<?xml version="1.0" encoding="UTF-8" standalone="no"?>
<!DOCTYPE svg PUBLIC "-//W3C//DTD SVG 1.1//EN"
 "http://www.w3.org/Graphics/SVG/1.1/DTD/svg11.dtd">
<!-- Generated by graphviz version 2.43.0 (0)
 -->
<!-- Title: client/include/webcface/array_like.h Pages: 1 -->
<svg width="2734pt" height="434pt"
 viewBox="0.00 0.00 2733.50 434.00" xmlns="http://www.w3.org/2000/svg" xmlns:xlink="http://www.w3.org/1999/xlink">
<g id="graph0" class="graph" transform="scale(1 1) rotate(0) translate(4 430)">
<title>client/include/webcface/array_like.h</title>
<!-- Node1 -->
<g id="Node000001" class="node">
<title>Node1</title>
<g id="a_Node000001"><a xlink:title=" ">
<polygon fill="#999999" stroke="#666666" points="978,-426 847,-426 847,-396 978,-396 978,-426"/>
<text text-anchor="start" x="855" y="-414" font-family="Helvetica,sans-Serif" font-size="10.00">client/include/webcface</text>
<text text-anchor="middle" x="912.5" y="-403" font-family="Helvetica,sans-Serif" font-size="10.00">/array_like.h</text>
</a>
</g>
</g>
<!-- Node2 -->
<g id="Node000002" class="node">
<title>Node2</title>
<g id="a_Node000002"><a xlink:href="transform_8h.html" target="_top" xlink:title=" ">
<polygon fill="white" stroke="#666666" points="793,-360 662,-360 662,-330 793,-330 793,-360"/>
<text text-anchor="start" x="670" y="-348" font-family="Helvetica,sans-Serif" font-size="10.00">client/include/webcface</text>
<text text-anchor="middle" x="727.5" y="-337" font-family="Helvetica,sans-Serif" font-size="10.00">/transform.h</text>
</a>
</g>
</g>
<!-- Node1&#45;&gt;Node2 -->
<g id="edge1_Node000001_Node000002" class="edge">
<title>Node1&#45;&gt;Node2</title>
<g id="a_edge1_Node000001_Node000002"><a xlink:title=" ">
<path fill="none" stroke="#63b8ff" d="M862.17,-392.59C832.6,-382.36 795.7,-369.59 768,-360.01"/>
<polygon fill="#63b8ff" stroke="#63b8ff" points="861.31,-395.99 871.9,-395.95 863.59,-389.38 861.31,-395.99"/>
</a>
</g>
</g>
<!-- Node34 -->
<g id="Node000034" class="node">
<title>Node34</title>
<g id="a_Node000034"><a xlink:href="client_2include_2webcface_2value_8h.html" target="_top" xlink:title=" ">
<polygon fill="white" stroke="#666666" points="2564,-162 2433,-162 2433,-132 2564,-132 2564,-162"/>
<text text-anchor="start" x="2441" y="-150" font-family="Helvetica,sans-Serif" font-size="10.00">client/include/webcface</text>
<text text-anchor="middle" x="2498.5" y="-139" font-family="Helvetica,sans-Serif" font-size="10.00">/value.h</text>
</a>
</g>
</g>
<!-- Node1&#45;&gt;Node34 -->
<g id="edge63_Node000001_Node000034" class="edge">
<title>Node1&#45;&gt;Node34</title>
<g id="a_edge63_Node000001_Node000034"><a xlink:title=" ">
<path fill="none" stroke="#63b8ff" d="M988.26,-397.48C1259.39,-352.7 2178.7,-200.83 2432.9,-158.84"/>
<polygon fill="#63b8ff" stroke="#63b8ff" points="987.42,-394.08 978.13,-399.16 988.57,-400.98 987.42,-394.08"/>
</a>
</g>
</g>
<!-- Node3 -->
<g id="Node000003" class="node">
<title>Node3</title>
<g id="a_Node000003"><a xlink:href="component__canvas2d_8h.html" target="_top" xlink:title=" ">
<polygon fill="white" stroke="#666666" points="1017,-294 882,-294 882,-264 1017,-264 1017,-294"/>
<text text-anchor="start" x="890" y="-282" font-family="Helvetica,sans-Serif" font-size="10.00">client/include/webcface</text>
<text text-anchor="middle" x="949.5" y="-271" font-family="Helvetica,sans-Serif" font-size="10.00">/component_canvas2d.h</text>
</a>
</g>
</g>
<!-- Node2&#45;&gt;Node3 -->
<g id="edge2_Node000002_Node000003" class="edge">
<title>Node2&#45;&gt;Node3</title>
<g id="a_edge2_Node000002_Node000003"><a xlink:title=" ">
<path fill="none" stroke="#63b8ff" d="M786.05,-327.12C821.84,-316.8 867.09,-303.76 900.89,-294.01"/>
<polygon fill="#63b8ff" stroke="#63b8ff" points="784.86,-323.82 776.22,-329.95 786.8,-330.55 784.86,-323.82"/>
</a>
</g>
</g>
<!-- Node6 -->
<g id="Node000006" class="node">
<title>Node6</title>
<g id="a_Node000006"><a xlink:href="webcface_8h.html" target="_top" xlink:title=" ">
<polygon fill="white" stroke="#666666" points="849,-30 718,-30 718,0 849,0 849,-30"/>
<text text-anchor="start" x="726" y="-18" font-family="Helvetica,sans-Serif" font-size="10.00">client/include/webcface</text>
<text text-anchor="middle" x="783.5" y="-7" font-family="Helvetica,sans-Serif" font-size="10.00">/webcface.h</text>
</a>
</g>
</g>
<!-- Node2&#45;&gt;Node6 -->
<g id="edge61_Node000002_Node000006" class="edge">
<title>Node2&#45;&gt;Node6</title>
<g id="a_edge61_Node000002_Node000006"><a xlink:title=" ">
<path fill="none" stroke="#63b8ff" d="M651.98,-334.16C625.16,-327.07 596.85,-314.9 577.5,-294 552.6,-267.11 557.5,-250.65 557.5,-214 557.5,-214 557.5,-214 557.5,-146 557.5,-109.35 551.5,-91.83 577.5,-66 587.65,-55.92 661.48,-39.64 717.88,-28.41"/>
<polygon fill="#63b8ff" stroke="#63b8ff" points="651.23,-337.57 661.78,-336.54 652.89,-330.77 651.23,-337.57"/>
</a>
</g>
</g>
<!-- Node27 -->
<g id="Node000027" class="node">
<title>Node27</title>
<g id="a_Node000027"><a xlink:href="component__canvas3d_8h.html" target="_top" xlink:title=" ">
<polygon fill="white" stroke="#666666" points="721,-294 586,-294 586,-264 721,-264 721,-294"/>
<text text-anchor="start" x="594" y="-282" font-family="Helvetica,sans-Serif" font-size="10.00">client/include/webcface</text>
<text text-anchor="middle" x="653.5" y="-271" font-family="Helvetica,sans-Serif" font-size="10.00">/component_canvas3d.h</text>
</a>
</g>
</g>
<!-- Node2&#45;&gt;Node27 -->
<g id="edge46_Node000002_Node000027" class="edge">
<title>Node2&#45;&gt;Node27</title>
<g id="a_edge46_Node000002_Node000027"><a xlink:title=" ">
<path fill="none" stroke="#63b8ff" d="M703.45,-323.2C692.47,-313.7 679.74,-302.69 669.88,-294.16"/>
<polygon fill="#63b8ff" stroke="#63b8ff" points="701.22,-325.9 711.08,-329.8 705.8,-320.61 701.22,-325.9"/>
</a>
</g>
</g>
<!-- Node28 -->
<g id="Node000028" class="node">
<title>Node28</title>
<g id="a_Node000028"><a xlink:href="robot__link_8h.html" target="_top" xlink:title=" ">
<polygon fill="white" stroke="#666666" points="529,-228 398,-228 398,-198 529,-198 529,-228"/>
<text text-anchor="start" x="406" y="-216" font-family="Helvetica,sans-Serif" font-size="10.00">client/include/webcface</text>
<text text-anchor="middle" x="463.5" y="-205" font-family="Helvetica,sans-Serif" font-size="10.00">/robot_link.h</text>
</a>
</g>
</g>
<!-- Node2&#45;&gt;Node28 -->
<g id="edge49_Node000002_Node000028" class="edge">
<title>Node2&#45;&gt;Node28</title>
<g id="a_edge49_Node000002_Node000028"><a xlink:title=" ">
<path fill="none" stroke="#63b8ff" d="M651.63,-332.61C617,-325.15 576.47,-313.11 543.5,-294 513.93,-276.86 487.6,-246.06 473.76,-228.09"/>
<polygon fill="#63b8ff" stroke="#63b8ff" points="651.19,-336.09 661.69,-334.68 652.61,-329.23 651.19,-336.09"/>
</a>
</g>
</g>
<!-- Node33 -->
<g id="Node000033" class="node">
<title>Node33</title>
<g id="a_Node000033"><a xlink:href="transform_8cc.html" target="_top" xlink:title=" ">
<polygon fill="white" stroke="#666666" points="864,-288.5 739,-288.5 739,-269.5 864,-269.5 864,-288.5"/>
<text text-anchor="middle" x="801.5" y="-276.5" font-family="Helvetica,sans-Serif" font-size="10.00">client/src/transform.cc</text>
</a>
</g>
</g>
<!-- Node2&#45;&gt;Node33 -->
<g id="edge62_Node000002_Node000033" class="edge">
<title>Node2&#45;&gt;Node33</title>
<g id="a_edge62_Node000002_Node000033"><a xlink:title=" ">
<path fill="none" stroke="#63b8ff" d="M751.86,-322.93C765.25,-311.35 781.14,-297.61 791.27,-288.84"/>
<polygon fill="#63b8ff" stroke="#63b8ff" points="749.2,-320.61 743.92,-329.8 753.78,-325.9 749.2,-320.61"/>
</a>
</g>
</g>
<!-- Node4 -->
<g id="Node000004" class="node">
<title>Node4</title>
<g id="a_Node000004"><a xlink:href="components_8h.html" target="_top" xlink:title=" ">
<polygon fill="white" stroke="#666666" points="1013,-228 882,-228 882,-198 1013,-198 1013,-228"/>
<text text-anchor="start" x="890" y="-216" font-family="Helvetica,sans-Serif" font-size="10.00">client/include/webcface</text>
<text text-anchor="middle" x="947.5" y="-205" font-family="Helvetica,sans-Serif" font-size="10.00">/components.h</text>
</a>
</g>
</g>
<!-- Node3&#45;&gt;Node4 -->
<g id="edge3_Node000003_Node000004" class="edge">
<title>Node3&#45;&gt;Node4</title>
<g id="a_edge3_Node000003_Node000004"><a xlink:title=" ">
<path fill="none" stroke="#63b8ff" d="M948.74,-253.54C948.47,-244.96 948.18,-235.61 947.94,-228.16"/>
<polygon fill="#63b8ff" stroke="#63b8ff" points="945.25,-253.91 949.06,-263.8 952.24,-253.69 945.25,-253.91"/>
</a>
</g>
</g>
<!-- Node26 -->
<g id="Node000026" class="node">
<title>Node26</title>
<g id="a_Node000026"><a xlink:href="component__canvas2d_8cc.html" target="_top" xlink:title=" ">
<polygon fill="white" stroke="#666666" points="1150,-228 1031,-228 1031,-198 1150,-198 1150,-228"/>
<text text-anchor="start" x="1039" y="-216" font-family="Helvetica,sans-Serif" font-size="10.00">client/src/component</text>
<text text-anchor="middle" x="1090.5" y="-205" font-family="Helvetica,sans-Serif" font-size="10.00">_canvas2d.cc</text>
</a>
</g>
</g>
<!-- Node3&#45;&gt;Node26 -->
<g id="edge45_Node000003_Node000026" class="edge">
<title>Node3&#45;&gt;Node26</title>
<g id="a_edge45_Node000003_Node000026"><a xlink:title=" ">
<path fill="none" stroke="#63b8ff" d="M989.63,-259.78C1011.86,-249.69 1039.07,-237.34 1059.63,-228.01"/>
<polygon fill="#63b8ff" stroke="#63b8ff" points="988.1,-256.63 980.44,-263.95 991,-263.01 988.1,-256.63"/>
</a>
</g>
</g>
<!-- Node5 -->
<g id="Node000005" class="node">
<title>Node5</title>
<g id="a_Node000005"><a xlink:href="client_2include_2webcface_2canvas2d_8h.html" target="_top" xlink:title=" ">
<polygon fill="white" stroke="#666666" points="1344,-96 1213,-96 1213,-66 1344,-66 1344,-96"/>
<text text-anchor="start" x="1221" y="-84" font-family="Helvetica,sans-Serif" font-size="10.00">client/include/webcface</text>
<text text-anchor="middle" x="1278.5" y="-73" font-family="Helvetica,sans-Serif" font-size="10.00">/canvas2d.h</text>
</a>
</g>
</g>
<!-- Node4&#45;&gt;Node5 -->
<g id="edge4_Node000004_Node000005" class="edge">
<title>Node4&#45;&gt;Node5</title>
<g id="a_edge4_Node000004_Node000005"><a xlink:title=" ">
<path fill="none" stroke="#63b8ff" d="M992.61,-194.28C1058.97,-168.22 1181.62,-120.05 1242.41,-96.17"/>
<polygon fill="#63b8ff" stroke="#63b8ff" points="991.27,-191.05 983.24,-197.96 993.82,-197.57 991.27,-191.05"/>
</a>
</g>
</g>
<!-- Node4&#45;&gt;Node6 -->
<g id="edge37_Node000004_Node000006" class="edge">
<title>Node4&#45;&gt;Node6</title>
<g id="a_edge37_Node000004_Node000006"><a xlink:title=" ">
<path fill="none" stroke="#63b8ff" d="M920.83,-191.77C893.78,-170.25 851.94,-134.11 823.5,-96 807.8,-74.97 795.4,-46.84 788.78,-30.15"/>
<polygon fill="#63b8ff" stroke="#63b8ff" points="918.69,-194.54 928.72,-197.97 923.02,-189.04 918.69,-194.54"/>
</a>
</g>
</g>
<!-- Node11 -->
<g id="Node000011" class="node">
<title>Node11</title>
<g id="a_Node000011"><a xlink:href="client_2include_2webcface_2canvas3d_8h.html" target="_top" xlink:title=" ">
<polygon fill="white" stroke="#666666" points="1156,-96 1025,-96 1025,-66 1156,-66 1156,-96"/>
<text text-anchor="start" x="1033" y="-84" font-family="Helvetica,sans-Serif" font-size="10.00">client/include/webcface</text>
<text text-anchor="middle" x="1090.5" y="-73" font-family="Helvetica,sans-Serif" font-size="10.00">/canvas3d.h</text>
</a>
</g>
</g>
<!-- Node4&#45;&gt;Node11 -->
<g id="edge10_Node000004_Node000011" class="edge">
<title>Node4&#45;&gt;Node11</title>
<g id="a_edge10_Node000004_Node000011"><a xlink:title=" ">
<path fill="none" stroke="#63b8ff" d="M970.78,-190.84C1000.14,-164.15 1049.81,-118.99 1074.94,-96.14"/>
<polygon fill="#63b8ff" stroke="#63b8ff" points="968.12,-188.52 963.08,-197.84 972.83,-193.7 968.12,-188.52"/>
</a>
</g>
</g>
<!-- Node13 -->
<g id="Node000013" class="node">
<title>Node13</title>
<g id="a_Node000013"><a xlink:href="data__buffer_8h.html" target="_top" xlink:title=" ">
<polygon fill="white" stroke="#666666" points="1007,-96 876,-96 876,-66 1007,-66 1007,-96"/>
<text text-anchor="start" x="884" y="-84" font-family="Helvetica,sans-Serif" font-size="10.00">client/include/webcface</text>
<text text-anchor="middle" x="941.5" y="-73" font-family="Helvetica,sans-Serif" font-size="10.00">/internal/data_buffer.h</text>
</a>
</g>
</g>
<!-- Node4&#45;&gt;Node13 -->
<g id="edge16_Node000004_Node000013" class="edge">
<title>Node4&#45;&gt;Node13</title>
<g id="a_edge16_Node000004_Node000013"><a xlink:title=" ">
<path fill="none" stroke="#63b8ff" d="M946.38,-187.68C945.13,-160.7 943.17,-118.11 942.15,-96.14"/>
<polygon fill="#63b8ff" stroke="#63b8ff" points="942.89,-188.01 946.85,-197.84 949.88,-187.69 942.89,-188.01"/>
</a>
</g>
</g>
<!-- Node16 -->
<g id="Node000016" class="node">
<title>Node16</title>
<g id="a_Node000016"><a xlink:href="client_2include_2webcface_2robot__model_8h.html" target="_top" xlink:title=" ">
<polygon fill="white" stroke="#666666" points="837,-162 706,-162 706,-132 837,-132 837,-162"/>
<text text-anchor="start" x="714" y="-150" font-family="Helvetica,sans-Serif" font-size="10.00">client/include/webcface</text>
<text text-anchor="middle" x="771.5" y="-139" font-family="Helvetica,sans-Serif" font-size="10.00">/robot_model.h</text>
</a>
</g>
</g>
<!-- Node4&#45;&gt;Node16 -->
<g id="edge21_Node000004_Node000016" class="edge">
<title>Node4&#45;&gt;Node16</title>
<g id="a_edge21_Node000004_Node000016"><a xlink:title=" ">
<path fill="none" stroke="#63b8ff" d="M899.26,-194.46C871.18,-184.25 836.26,-171.55 810.03,-162.01"/>
<polygon fill="#63b8ff" stroke="#63b8ff" points="898.28,-197.83 908.88,-197.95 900.67,-191.25 898.28,-197.83"/>
</a>
</g>
</g>
<!-- Node18 -->
<g id="Node000018" class="node">
<title>Node18</title>
<g id="a_Node000018"><a xlink:href="client_2include_2webcface_2view_8h.html" target="_top" xlink:title=" ">
<polygon fill="white" stroke="#666666" points="1438,-162 1307,-162 1307,-132 1438,-132 1438,-162"/>
<text text-anchor="start" x="1315" y="-150" font-family="Helvetica,sans-Serif" font-size="10.00">client/include/webcface</text>
<text text-anchor="middle" x="1372.5" y="-139" font-family="Helvetica,sans-Serif" font-size="10.00">/view.h</text>
</a>
</g>
</g>
<!-- Node4&#45;&gt;Node18 -->
<g id="edge28_Node000004_Node000018" class="edge">
<title>Node4&#45;&gt;Node18</title>
<g id="a_edge28_Node000004_Node000018"><a xlink:title=" ">
<path fill="none" stroke="#63b8ff" d="M1023.47,-197.88C1128.52,-180.73 1238.67,-165.58 1306.9,-156.52"/>
<polygon fill="#63b8ff" stroke="#63b8ff" points="1022.62,-194.48 1013.32,-199.55 1023.76,-201.38 1022.62,-194.48"/>
</a>
</g>
</g>
<!-- Node21 -->
<g id="Node000021" class="node">
<title>Node21</title>
<g id="a_Node000021"><a xlink:href="c__wcf__internal_8h.html" target="_top" xlink:title=" ">
<polygon fill="white" stroke="#666666" points="1986.5,-162 1886.5,-162 1886.5,-132 1986.5,-132 1986.5,-162"/>
<text text-anchor="start" x="1894.5" y="-150" font-family="Helvetica,sans-Serif" font-size="10.00">client/src/c_wcf/c</text>
<text text-anchor="middle" x="1936.5" y="-139" font-family="Helvetica,sans-Serif" font-size="10.00">_wcf_internal.h</text>
</a>
</g>
</g>
<!-- Node4&#45;&gt;Node21 -->
<g id="edge38_Node000004_Node000021" class="edge">
<title>Node4&#45;&gt;Node21</title>
<g id="a_edge38_Node000004_Node000021"><a xlink:title=" ">
<path fill="none" stroke="#63b8ff" d="M1023.66,-197.98C1358.42,-158.44 1749.41,-150.2 1886.27,-148.46"/>
<polygon fill="#63b8ff" stroke="#63b8ff" points="1022.79,-194.56 1013.28,-199.22 1023.62,-201.51 1022.79,-194.56"/>
</a>
</g>
</g>
<!-- Node5&#45;&gt;Node6 -->
<g id="edge5_Node000005_Node000006" class="edge">
<title>Node5&#45;&gt;Node6</title>
<g id="a_edge5_Node000005_Node000006"><a xlink:title=" ">
<path fill="none" stroke="#63b8ff" d="M1202.49,-70.51C1190.13,-68.99 1177.46,-67.44 1165.5,-66 1029.11,-49.55 994.32,-50.62 858.5,-30 855.49,-29.54 852.41,-29.05 849.31,-28.55"/>
<polygon fill="#63b8ff" stroke="#63b8ff" points="1202.43,-74.03 1212.78,-71.78 1203.29,-67.09 1202.43,-74.03"/>
</a>
</g>
</g>
<!-- Node7 -->
<g id="Node000007" class="node">
<title>Node7</title>
<g id="a_Node000007"><a xlink:href="canvas2d_8cc.html" target="_top" xlink:title=" ">
<polygon fill="white" stroke="#666666" points="1251.5,-24.5 1127.5,-24.5 1127.5,-5.5 1251.5,-5.5 1251.5,-24.5"/>
<text text-anchor="middle" x="1189.5" y="-12.5" font-family="Helvetica,sans-Serif" font-size="10.00">client/src/canvas2d.cc</text>
</a>
</g>
</g>
<!-- Node5&#45;&gt;Node7 -->
<g id="edge6_Node000005_Node000007" class="edge">
<title>Node5&#45;&gt;Node7</title>
<g id="a_edge6_Node000005_Node000007"><a xlink:title=" ">
<path fill="none" stroke="#63b8ff" d="M1250.51,-59.87C1234.04,-48.03 1214.04,-33.65 1201.54,-24.66"/>
<polygon fill="#63b8ff" stroke="#63b8ff" points="1248.59,-62.8 1258.75,-65.8 1252.67,-57.12 1248.59,-62.8"/>
</a>
</g>
</g>
<!-- Node8 -->
<g id="Node000008" class="node">
<title>Node8</title>
<g id="a_Node000008"><a xlink:href="client__msg__recv_8cc.html" target="_top" xlink:title=" ">
<polygon fill="white" stroke="#666666" points="1387,-30 1270,-30 1270,0 1387,0 1387,-30"/>
<text text-anchor="start" x="1278" y="-18" font-family="Helvetica,sans-Serif" font-size="10.00">client/src/client_msg</text>
<text text-anchor="middle" x="1328.5" y="-7" font-family="Helvetica,sans-Serif" font-size="10.00">_recv.cc</text>
</a>
</g>
</g>
<!-- Node5&#45;&gt;Node8 -->
<g id="edge7_Node000005_Node000008" class="edge">
<title>Node5&#45;&gt;Node8</title>
<g id="a_edge7_Node000005_Node000008"><a xlink:title=" ">
<path fill="none" stroke="#63b8ff" d="M1295.84,-57.81C1303,-48.64 1311.1,-38.28 1317.43,-30.16"/>
<polygon fill="#63b8ff" stroke="#63b8ff" points="1293,-55.76 1289.6,-65.8 1298.51,-60.07 1293,-55.76"/>
</a>
</g>
</g>
<!-- Node9 -->
<g id="Node000009" class="node">
<title>Node9</title>
<g id="a_Node000009"><a xlink:href="field_8cc.html" target="_top" xlink:title=" ">
<polygon fill="white" stroke="#666666" points="1503.5,-24.5 1405.5,-24.5 1405.5,-5.5 1503.5,-5.5 1503.5,-24.5"/>
<text text-anchor="middle" x="1454.5" y="-12.5" font-family="Helvetica,sans-Serif" font-size="10.00">client/src/field.cc</text>
</a>
</g>
</g>
<!-- Node5&#45;&gt;Node9 -->
<g id="edge8_Node000005_Node000009" class="edge">
<title>Node5&#45;&gt;Node9</title>
<g id="a_edge8_Node000005_Node000009"><a xlink:title=" ">
<path fill="none" stroke="#63b8ff" d="M1326.85,-62.42C1360.76,-50.09 1404.6,-34.15 1431.08,-24.52"/>
<polygon fill="#63b8ff" stroke="#63b8ff" points="1325.33,-59.25 1317.12,-65.95 1327.72,-65.83 1325.33,-59.25"/>
</a>
</g>
</g>
<!-- Node10 -->
<g id="Node000010" class="node">
<title>Node10</title>
<g id="a_Node000010"><a xlink:href="member_8cc.html" target="_top" xlink:title=" ">
<polygon fill="white" stroke="#666666" points="1639.5,-24.5 1521.5,-24.5 1521.5,-5.5 1639.5,-5.5 1639.5,-24.5"/>
<text text-anchor="middle" x="1580.5" y="-12.5" font-family="Helvetica,sans-Serif" font-size="10.00">client/src/member.cc</text>
</a>
</g>
</g>
<!-- Node5&#45;&gt;Node10 -->
<g id="edge9_Node000005_Node000010" class="edge">
<title>Node5&#45;&gt;Node10</title>
<g id="a_edge9_Node000005_Node000010"><a xlink:title=" ">
<path fill="none" stroke="#63b8ff" d="M1354.05,-63.99C1413.03,-51.49 1492.68,-34.61 1540.1,-24.56"/>
<polygon fill="#63b8ff" stroke="#63b8ff" points="1353.09,-60.62 1344.03,-66.11 1354.54,-67.46 1353.09,-60.62"/>
</a>
</g>
</g>
<!-- Node11&#45;&gt;Node6 -->
<g id="edge11_Node000011_Node000006" class="edge">
<title>Node11&#45;&gt;Node6</title>
<g id="a_edge11_Node000011_Node000006"><a xlink:title=" ">
<path fill="none" stroke="#63b8ff" d="M1014.7,-64.2C963.94,-53.62 897.78,-39.82 849.25,-29.71"/>
<polygon fill="#63b8ff" stroke="#63b8ff" points="1014.14,-67.66 1024.64,-66.27 1015.57,-60.8 1014.14,-67.66"/>
</a>
</g>
</g>
<!-- Node11&#45;&gt;Node8 -->
<g id="edge13_Node000011_Node000008" class="edge">
<title>Node11&#45;&gt;Node8</title>
<g id="a_edge13_Node000011_Node000008"><a xlink:title=" ">
<path fill="none" stroke="#63b8ff" d="M1152.78,-63.25C1191.23,-52.91 1239.99,-39.8 1276.39,-30.01"/>
<polygon fill="#63b8ff" stroke="#63b8ff" points="1151.48,-59.98 1142.73,-65.95 1153.3,-66.74 1151.48,-59.98"/>
</a>
</g>
</g>
<!-- Node11&#45;&gt;Node9 -->
<g id="edge14_Node000011_Node000009" class="edge">
<title>Node11&#45;&gt;Node9</title>
<g id="a_edge14_Node000011_Node000009"><a xlink:title=" ">
<path fill="none" stroke="#63b8ff" d="M1166.23,-69.24C1228.33,-60.03 1318.41,-45.78 1396.5,-30 1404.42,-28.4 1412.9,-26.47 1420.86,-24.57"/>
<polygon fill="#63b8ff" stroke="#63b8ff" points="1165.5,-65.81 1156.12,-70.73 1166.52,-72.73 1165.5,-65.81"/>
</a>
</g>
</g>
<!-- Node11&#45;&gt;Node10 -->
<g id="edge15_Node000011_Node000010" class="edge">
<title>Node11&#45;&gt;Node10</title>
<g id="a_edge15_Node000011_Node000010"><a xlink:title=" ">
<path fill="none" stroke="#63b8ff" d="M1166.32,-70.63C1179.07,-69.07 1192.16,-67.48 1204.5,-66 1341.34,-49.6 1376.43,-51.92 1512.5,-30 1522.14,-28.45 1532.49,-26.48 1542.13,-24.51"/>
<polygon fill="#63b8ff" stroke="#63b8ff" points="1165.7,-67.18 1156.2,-71.87 1166.55,-74.12 1165.7,-67.18"/>
</a>
</g>
</g>
<!-- Node12 -->
<g id="Node000012" class="node">
<title>Node12</title>
<g id="a_Node000012"><a xlink:href="canvas3d_8cc.html" target="_top" xlink:title=" ">
<polygon fill="white" stroke="#666666" points="991.5,-24.5 867.5,-24.5 867.5,-5.5 991.5,-5.5 991.5,-24.5"/>
<text text-anchor="middle" x="929.5" y="-12.5" font-family="Helvetica,sans-Serif" font-size="10.00">client/src/canvas3d.cc</text>
</a>
</g>
</g>
<!-- Node11&#45;&gt;Node12 -->
<g id="edge12_Node000011_Node000012" class="edge">
<title>Node11&#45;&gt;Node12</title>
<g id="a_edge12_Node000011_Node000012"><a xlink:title=" ">
<path fill="none" stroke="#63b8ff" d="M1045.87,-62.26C1014.91,-49.95 975.05,-34.11 950.93,-24.52"/>
<polygon fill="#63b8ff" stroke="#63b8ff" points="1044.58,-65.51 1055.17,-65.95 1047.17,-59.01 1044.58,-65.51"/>
</a>
</g>
</g>
<!-- Node13&#45;&gt;Node7 -->
<g id="edge17_Node000013_Node000007" class="edge">
<title>Node13&#45;&gt;Node7</title>
<g id="a_edge17_Node000013_Node000007"><a xlink:title=" ">
<path fill="none" stroke="#63b8ff" d="M1005.66,-63.44C1053.94,-50.98 1118.14,-34.42 1156.5,-24.52"/>
<polygon fill="#63b8ff" stroke="#63b8ff" points="1004.73,-60.07 995.92,-65.95 1006.48,-66.85 1004.73,-60.07"/>
</a>
</g>
</g>
<!-- Node13&#45;&gt;Node12 -->
<g id="edge18_Node000013_Node000012" class="edge">
<title>Node13&#45;&gt;Node12</title>
<g id="a_edge18_Node000013_Node000012"><a xlink:title=" ">
<path fill="none" stroke="#63b8ff" d="M936.99,-55.94C934.95,-45.06 932.66,-32.86 931.16,-24.84"/>
<polygon fill="#63b8ff" stroke="#63b8ff" points="933.55,-56.61 938.84,-65.8 940.43,-55.32 933.55,-56.61"/>
</a>
</g>
</g>
<!-- Node14 -->
<g id="Node000014" class="node">
<title>Node14</title>
<g id="a_Node000014"><a xlink:href="robot__model_8cc.html" target="_top" xlink:title=" ">
<polygon fill="white" stroke="#666666" points="700,-24.5 561,-24.5 561,-5.5 700,-5.5 700,-24.5"/>
<text text-anchor="middle" x="630.5" y="-12.5" font-family="Helvetica,sans-Serif" font-size="10.00">client/src/robot_model.cc</text>
</a>
</g>
</g>
<!-- Node13&#45;&gt;Node14 -->
<g id="edge19_Node000013_Node000014" class="edge">
<title>Node13&#45;&gt;Node14</title>
<g id="a_edge19_Node000013_Node000014"><a xlink:title=" ">
<path fill="none" stroke="#63b8ff" d="M865.97,-64.46C805.05,-51.92 721.63,-34.75 672.17,-24.58"/>
<polygon fill="#63b8ff" stroke="#63b8ff" points="865.42,-67.92 875.92,-66.51 866.84,-61.06 865.42,-67.92"/>
</a>
</g>
</g>
<!-- Node15 -->
<g id="Node000015" class="node">
<title>Node15</title>
<g id="a_Node000015"><a xlink:href="view_8cc.html" target="_top" xlink:title=" ">
<polygon fill="white" stroke="#666666" points="1109.5,-24.5 1009.5,-24.5 1009.5,-5.5 1109.5,-5.5 1109.5,-24.5"/>
<text text-anchor="middle" x="1059.5" y="-12.5" font-family="Helvetica,sans-Serif" font-size="10.00">client/src/view.cc</text>
</a>
</g>
</g>
<!-- Node13&#45;&gt;Node15 -->
<g id="edge20_Node000013_Node000015" class="edge">
<title>Node13&#45;&gt;Node15</title>
<g id="a_edge20_Node000013_Node000015"><a xlink:title=" ">
<path fill="none" stroke="#63b8ff" d="M976.28,-61.14C998.65,-49 1026.65,-33.82 1043.8,-24.52"/>
<polygon fill="#63b8ff" stroke="#63b8ff" points="974.52,-58.11 967.4,-65.95 977.85,-64.26 974.52,-58.11"/>
</a>
</g>
</g>
<!-- Node16&#45;&gt;Node6 -->
<g id="edge23_Node000016_Node000006" class="edge">
<title>Node16&#45;&gt;Node6</title>
<g id="a_edge23_Node000016_Node000006"><a xlink:title=" ">
<path fill="none" stroke="#63b8ff" d="M773.75,-121.68C776.23,-94.7 780.17,-52.11 782.19,-30.14"/>
<polygon fill="#63b8ff" stroke="#63b8ff" points="770.24,-121.56 772.81,-131.84 777.21,-122.2 770.24,-121.56"/>
</a>
</g>
</g>
<!-- Node16&#45;&gt;Node9 -->
<g id="edge25_Node000016_Node000009" class="edge">
<title>Node16&#45;&gt;Node9</title>
<g id="a_edge25_Node000016_Node000009"><a xlink:title=" ">
<path fill="none" stroke="#63b8ff" d="M847.55,-144.88C983.74,-141.98 1263.47,-131.73 1353.5,-96 1394.04,-79.91 1431.42,-41.91 1446.94,-24.72"/>
<polygon fill="#63b8ff" stroke="#63b8ff" points="847.13,-141.38 837.2,-145.09 847.27,-148.38 847.13,-141.38"/>
</a>
</g>
</g>
<!-- Node16&#45;&gt;Node10 -->
<g id="edge26_Node000016_Node000010" class="edge">
<title>Node16&#45;&gt;Node10</title>
<g id="a_edge26_Node000016_Node000010"><a xlink:title=" ">
<path fill="none" stroke="#63b8ff" d="M847.45,-142.91C989.54,-136.62 1290.33,-120.81 1391.5,-96 1392.05,-95.86 1511.74,-45.14 1560.34,-24.54"/>
<polygon fill="#63b8ff" stroke="#63b8ff" points="846.92,-139.43 837.08,-143.36 847.23,-146.42 846.92,-139.43"/>
</a>
</g>
</g>
<!-- Node16&#45;&gt;Node11 -->
<g id="edge22_Node000016_Node000011" class="edge">
<title>Node16&#45;&gt;Node11</title>
<g id="a_edge22_Node000016_Node000011"><a xlink:title=" ">
<path fill="none" stroke="#63b8ff" d="M847.09,-130.84C901.16,-119.99 973.22,-105.53 1024.88,-95.17"/>
<polygon fill="#63b8ff" stroke="#63b8ff" points="846.33,-127.42 837.21,-132.82 847.7,-134.28 846.33,-127.42"/>
</a>
</g>
</g>
<!-- Node16&#45;&gt;Node14 -->
<g id="edge27_Node000016_Node000014" class="edge">
<title>Node16&#45;&gt;Node14</title>
<g id="a_edge27_Node000016_Node000014"><a xlink:title=" ">
<path fill="none" stroke="#63b8ff" d="M758.75,-123.11C748.4,-105.96 732.6,-82.67 714.5,-66 694.9,-47.95 667.75,-33.23 649.68,-24.55"/>
<polygon fill="#63b8ff" stroke="#63b8ff" points="755.84,-125.07 763.92,-131.93 761.88,-121.53 755.84,-125.07"/>
</a>
</g>
</g>
<!-- Node17 -->
<g id="Node000017" class="node">
<title>Node17</title>
<g id="a_Node000017"><a xlink:href="component__canvas3d_8cc.html" target="_top" xlink:title=" ">
<polygon fill="white" stroke="#666666" points="705,-96 586,-96 586,-66 705,-66 705,-96"/>
<text text-anchor="start" x="594" y="-84" font-family="Helvetica,sans-Serif" font-size="10.00">client/src/component</text>
<text text-anchor="middle" x="645.5" y="-73" font-family="Helvetica,sans-Serif" font-size="10.00">_canvas3d.cc</text>
</a>
</g>
</g>
<!-- Node16&#45;&gt;Node17 -->
<g id="edge24_Node000016_Node000017" class="edge">
<title>Node16&#45;&gt;Node17</title>
<g id="a_edge24_Node000016_Node000017"><a xlink:title=" ">
<path fill="none" stroke="#63b8ff" d="M734.84,-127.38C715.12,-117.36 691.21,-105.22 673.09,-96.01"/>
<polygon fill="#63b8ff" stroke="#63b8ff" points="733.35,-130.55 743.85,-131.95 736.52,-124.31 733.35,-130.55"/>
</a>
</g>
</g>
<!-- Node18&#45;&gt;Node6 -->
<g id="edge30_Node000018_Node000006" class="edge">
<title>Node18&#45;&gt;Node6</title>
<g id="a_edge30_Node000018_Node000006"><a xlink:title=" ">
<path fill="none" stroke="#63b8ff" d="M1296.62,-144.49C1174.87,-141.07 941.99,-130.15 867.5,-96 835.28,-81.23 807.66,-48.96 793.54,-30.23"/>
<polygon fill="#63b8ff" stroke="#63b8ff" points="1296.53,-147.99 1306.62,-144.76 1296.72,-140.99 1296.53,-147.99"/>
</a>
</g>
</g>
<!-- Node18&#45;&gt;Node8 -->
<g id="edge33_Node000018_Node000008" class="edge">
<title>Node18&#45;&gt;Node8</title>
<g id="a_edge33_Node000018_Node000008"><a xlink:title=" ">
<path fill="none" stroke="#63b8ff" d="M1368.24,-121.66C1365.05,-105.59 1360.11,-84.21 1353.5,-66 1348.93,-53.41 1342.02,-39.87 1336.62,-30.05"/>
<polygon fill="#63b8ff" stroke="#63b8ff" points="1364.86,-122.66 1370.16,-131.84 1371.74,-121.36 1364.86,-122.66"/>
</a>
</g>
</g>
<!-- Node18&#45;&gt;Node9 -->
<g id="edge34_Node000018_Node000009" class="edge">
<title>Node18&#45;&gt;Node9</title>
<g id="a_edge34_Node000018_Node000009"><a xlink:title=" ">
<path fill="none" stroke="#63b8ff" d="M1398.67,-125.1C1407.78,-116.8 1417.47,-106.68 1424.5,-96 1439.99,-72.45 1449.01,-39.79 1452.63,-24.52"/>
<polygon fill="#63b8ff" stroke="#63b8ff" points="1396.11,-122.68 1390.89,-131.89 1400.72,-127.95 1396.11,-122.68"/>
</a>
</g>
</g>
<!-- Node18&#45;&gt;Node10 -->
<g id="edge35_Node000018_Node000010" class="edge">
<title>Node18&#45;&gt;Node10</title>
<g id="a_edge35_Node000018_Node000010"><a xlink:title=" ">
<path fill="none" stroke="#63b8ff" d="M1403.83,-126.42C1449.86,-97.65 1533.86,-45.15 1566.76,-24.59"/>
<polygon fill="#63b8ff" stroke="#63b8ff" points="1401.78,-123.57 1395.16,-131.84 1405.49,-129.51 1401.78,-123.57"/>
</a>
</g>
</g>
<!-- Node18&#45;&gt;Node13 -->
<g id="edge29_Node000018_Node000013" class="edge">
<title>Node18&#45;&gt;Node13</title>
<g id="a_edge29_Node000018_Node000013"><a xlink:title=" ">
<path fill="none" stroke="#63b8ff" d="M1296.39,-136.32C1224.21,-126.9 1112.78,-111.74 1016.5,-96 1013.49,-95.51 1010.42,-94.99 1007.32,-94.46"/>
<polygon fill="#63b8ff" stroke="#63b8ff" points="1296.38,-139.85 1306.75,-137.67 1297.29,-132.91 1296.38,-139.85"/>
</a>
</g>
</g>
<!-- Node18&#45;&gt;Node15 -->
<g id="edge36_Node000018_Node000015" class="edge">
<title>Node18&#45;&gt;Node15</title>
<g id="a_edge36_Node000018_Node000015"><a xlink:title=" ">
<path fill="none" stroke="#63b8ff" d="M1297.03,-129.84C1267.26,-121.87 1233.35,-110.74 1204.5,-96 1185.03,-86.05 1184.16,-77.4 1165.5,-66 1137.72,-49.03 1103.26,-33.74 1081.32,-24.66"/>
<polygon fill="#63b8ff" stroke="#63b8ff" points="1296.4,-133.29 1306.96,-132.43 1298.16,-126.52 1296.4,-133.29"/>
</a>
</g>
</g>
<!-- Node19 -->
<g id="Node000019" class="node">
<title>Node19</title>
<g id="a_Node000019"><a xlink:href="c__wcf_2member_8cc.html" target="_top" xlink:title=" ">
<polygon fill="white" stroke="#666666" points="1851,-90.5 1702,-90.5 1702,-71.5 1851,-71.5 1851,-90.5"/>
<text text-anchor="middle" x="1776.5" y="-78.5" font-family="Helvetica,sans-Serif" font-size="10.00">client/src/c_wcf/member.cc</text>
</a>
</g>
</g>
<!-- Node18&#45;&gt;Node19 -->
<g id="edge31_Node000018_Node000019" class="edge">
<title>Node18&#45;&gt;Node19</title>
<g id="a_edge31_Node000018_Node000019"><a xlink:title=" ">
<path fill="none" stroke="#63b8ff" d="M1448.18,-134.49C1513.26,-124.52 1609.61,-109.61 1693.5,-96 1704.17,-94.27 1715.61,-92.37 1726.48,-90.54"/>
<polygon fill="#63b8ff" stroke="#63b8ff" points="1447.37,-131.07 1438.01,-136.04 1448.43,-137.99 1447.37,-131.07"/>
</a>
</g>
</g>
<!-- Node20 -->
<g id="Node000020" class="node">
<title>Node20</title>
<g id="a_Node000020"><a xlink:href="c__wcf_2view_8cc.html" target="_top" xlink:title=" ">
<polygon fill="white" stroke="#666666" points="1684,-90.5 1553,-90.5 1553,-71.5 1684,-71.5 1684,-90.5"/>
<text text-anchor="middle" x="1618.5" y="-78.5" font-family="Helvetica,sans-Serif" font-size="10.00">client/src/c_wcf/view.cc</text>
</a>
</g>
</g>
<!-- Node18&#45;&gt;Node20 -->
<g id="edge32_Node000018_Node000020" class="edge">
<title>Node18&#45;&gt;Node20</title>
<g id="a_edge32_Node000018_Node000020"><a xlink:title=" ">
<path fill="none" stroke="#63b8ff" d="M1436.45,-129.36C1484.3,-116.91 1547.79,-100.4 1585.76,-90.52"/>
<polygon fill="#63b8ff" stroke="#63b8ff" points="1435.28,-126.05 1426.49,-131.95 1437.04,-132.82 1435.28,-126.05"/>
</a>
</g>
</g>
<!-- Node21&#45;&gt;Node19 -->
<g id="edge41_Node000021_Node000019" class="edge">
<title>Node21&#45;&gt;Node19</title>
<g id="a_edge41_Node000021_Node000019"><a xlink:title=" ">
<path fill="none" stroke="#63b8ff" d="M1891.75,-128.1C1861.04,-115.82 1821.66,-100.06 1797.79,-90.52"/>
<polygon fill="#63b8ff" stroke="#63b8ff" points="1890.8,-131.49 1901.39,-131.95 1893.4,-124.99 1890.8,-131.49"/>
</a>
</g>
</g>
<!-- Node21&#45;&gt;Node20 -->
<g id="edge44_Node000021_Node000020" class="edge">
<title>Node21&#45;&gt;Node20</title>
<g id="a_edge44_Node000021_Node000020"><a xlink:title=" ">
<path fill="none" stroke="#63b8ff" d="M1876.3,-133.88C1813.44,-121.23 1716.48,-101.72 1661.12,-90.58"/>
<polygon fill="#63b8ff" stroke="#63b8ff" points="1875.97,-137.39 1886.46,-135.93 1877.35,-130.53 1875.97,-137.39"/>
</a>
</g>
</g>
<!-- Node22 -->
<g id="Node000022" class="node">
<title>Node22</title>
<g id="a_Node000022"><a xlink:href="client_8cc.html" target="_top" xlink:title=" ">
<polygon fill="white" stroke="#666666" points="2004,-90.5 1869,-90.5 1869,-71.5 2004,-71.5 2004,-90.5"/>
<text text-anchor="middle" x="1936.5" y="-78.5" font-family="Helvetica,sans-Serif" font-size="10.00">client/src/c_wcf/client.cc</text>
</a>
</g>
</g>
<!-- Node21&#45;&gt;Node22 -->
<g id="edge39_Node000021_Node000022" class="edge">
<title>Node21&#45;&gt;Node22</title>
<g id="a_edge39_Node000021_Node000022"><a xlink:title=" ">
<path fill="none" stroke="#63b8ff" d="M1936.5,-121.6C1936.5,-110.8 1936.5,-98.78 1936.5,-90.84"/>
<polygon fill="#63b8ff" stroke="#63b8ff" points="1933,-121.8 1936.5,-131.8 1940,-121.8 1933,-121.8"/>
</a>
</g>
</g>
<!-- Node23 -->
<g id="Node000023" class="node">
<title>Node23</title>
<g id="a_Node000023"><a xlink:href="c__wcf_2func_8cc.html" target="_top" xlink:title=" ">
<polygon fill="white" stroke="#666666" points="2151,-90.5 2022,-90.5 2022,-71.5 2151,-71.5 2151,-90.5"/>
<text text-anchor="middle" x="2086.5" y="-78.5" font-family="Helvetica,sans-Serif" font-size="10.00">client/src/c_wcf/func.cc</text>
</a>
</g>
</g>
<!-- Node21&#45;&gt;Node23 -->
<g id="edge40_Node000021_Node000023" class="edge">
<title>Node21&#45;&gt;Node23</title>
<g id="a_edge40_Node000021_Node000023"><a xlink:title=" ">
<path fill="none" stroke="#63b8ff" d="M1978.83,-127.94C2007.56,-115.68 2044.26,-100.02 2066.54,-90.52"/>
<polygon fill="#63b8ff" stroke="#63b8ff" points="1977.24,-124.81 1969.42,-131.95 1979.99,-131.25 1977.24,-124.81"/>
</a>
</g>
</g>
<!-- Node24 -->
<g id="Node000024" class="node">
<title>Node24</title>
<g id="a_Node000024"><a xlink:href="c__wcf_2text_8cc.html" target="_top" xlink:title=" ">
<polygon fill="white" stroke="#666666" points="2297.5,-90.5 2169.5,-90.5 2169.5,-71.5 2297.5,-71.5 2297.5,-90.5"/>
<text text-anchor="middle" x="2233.5" y="-78.5" font-family="Helvetica,sans-Serif" font-size="10.00">client/src/c_wcf/text.cc</text>
</a>
</g>
</g>
<!-- Node21&#45;&gt;Node24 -->
<g id="edge42_Node000021_Node000024" class="edge">
<title>Node21&#45;&gt;Node24</title>
<g id="a_edge42_Node000021_Node000024"><a xlink:title=" ">
<path fill="none" stroke="#63b8ff" d="M1996.44,-133.08C2055.2,-120.42 2143.11,-101.48 2193.73,-90.57"/>
<polygon fill="#63b8ff" stroke="#63b8ff" points="1995.58,-129.69 1986.55,-135.22 1997.06,-136.53 1995.58,-129.69"/>
</a>
</g>
</g>
<!-- Node25 -->
<g id="Node000025" class="node">
<title>Node25</title>
<g id="a_Node000025"><a xlink:href="c__wcf_2value_8cc.html" target="_top" xlink:title=" ">
<polygon fill="white" stroke="#666666" points="2451,-90.5 2316,-90.5 2316,-71.5 2451,-71.5 2451,-90.5"/>
<text text-anchor="middle" x="2383.5" y="-78.5" font-family="Helvetica,sans-Serif" font-size="10.00">client/src/c_wcf/value.cc</text>
</a>
</g>
</g>
<!-- Node21&#45;&gt;Node25 -->
<g id="edge43_Node000021_Node000025" class="edge">
<title>Node21&#45;&gt;Node25</title>
<g id="a_edge43_Node000021_Node000025"><a xlink:title=" ">
<path fill="none" stroke="#63b8ff" d="M1996.55,-138.74C2069.85,-129.68 2197.51,-113.26 2306.5,-96 2316.83,-94.36 2327.92,-92.44 2338.36,-90.56"/>
<polygon fill="#63b8ff" stroke="#63b8ff" points="1996.07,-135.27 1986.58,-139.97 1996.93,-142.22 1996.07,-135.27"/>
</a>
</g>
</g>
<!-- Node27&#45;&gt;Node4 -->
<g id="edge47_Node000027_Node000004" class="edge">
<title>Node27&#45;&gt;Node4</title>
<g id="a_edge47_Node000027_Node000004"><a xlink:title=" ">
<path fill="none" stroke="#63b8ff" d="M728.01,-261.78C775.87,-251.36 837.4,-237.97 883.13,-228.01"/>
<polygon fill="#63b8ff" stroke="#63b8ff" points="727.05,-258.41 718.02,-263.95 728.54,-265.25 727.05,-258.41"/>
</a>
</g>
</g>
<!-- Node27&#45;&gt;Node17 -->
<g id="edge48_Node000027_Node000017" class="edge">
<title>Node27&#45;&gt;Node17</title>
<g id="a_edge48_Node000027_Node000017"><a xlink:title=" ">
<path fill="none" stroke="#63b8ff" d="M652.52,-253.89C650.83,-212.58 647.44,-129.48 646.08,-96.23"/>
<polygon fill="#63b8ff" stroke="#63b8ff" points="649.02,-254.06 652.92,-263.9 656.01,-253.77 649.02,-254.06"/>
</a>
</g>
</g>
<!-- Node28&#45;&gt;Node6 -->
<g id="edge58_Node000028_Node000006" class="edge">
<title>Node28&#45;&gt;Node6</title>
<g id="a_edge58_Node000028_Node000006"><a xlink:title=" ">
<path fill="none" stroke="#63b8ff" d="M469.78,-187.99C479.69,-155.09 502.21,-96.58 543.5,-66 547.07,-63.36 648.11,-42.88 717.94,-28.97"/>
<polygon fill="#63b8ff" stroke="#63b8ff" points="466.39,-187.13 467,-197.71 473.12,-189.06 466.39,-187.13"/>
</a>
</g>
</g>
<!-- Node28&#45;&gt;Node13 -->
<g id="edge50_Node000028_Node000013" class="edge">
<title>Node28&#45;&gt;Node13</title>
<g id="a_edge50_Node000028_Node000013"><a xlink:title=" ">
<path fill="none" stroke="#63b8ff" d="M509.48,-194.34C556.28,-176.82 631.17,-150.06 697.5,-132 757.27,-115.73 826.55,-102.01 875.98,-93.09"/>
<polygon fill="#63b8ff" stroke="#63b8ff" points="508.06,-191.13 499.93,-197.93 510.52,-197.68 508.06,-191.13"/>
</a>
</g>
</g>
<!-- Node28&#45;&gt;Node16 -->
<g id="edge57_Node000028_Node000016" class="edge">
<title>Node28&#45;&gt;Node16</title>
<g id="a_edge57_Node000028_Node000016"><a xlink:title=" ">
<path fill="none" stroke="#63b8ff" d="M539.2,-196.27C590.3,-185.65 657.07,-171.78 705.91,-161.63"/>
<polygon fill="#63b8ff" stroke="#63b8ff" points="538.27,-192.89 529.2,-198.35 539.7,-199.74 538.27,-192.89"/>
</a>
</g>
</g>
<!-- Node29 -->
<g id="Node000029" class="node">
<title>Node29</title>
<g id="a_Node000029"><a xlink:href="robot__link__internal_8h.html" target="_top" xlink:title=" ">
<polygon fill="white" stroke="#666666" points="441,-162 280,-162 280,-132 441,-132 441,-162"/>
<text text-anchor="start" x="288" y="-150" font-family="Helvetica,sans-Serif" font-size="10.00">client/include/webcface</text>
<text text-anchor="middle" x="360.5" y="-139" font-family="Helvetica,sans-Serif" font-size="10.00">/internal/robot_link_internal.h</text>
</a>
</g>
</g>
<!-- Node28&#45;&gt;Node29 -->
<g id="edge51_Node000028_Node000029" class="edge">
<title>Node28&#45;&gt;Node29</title>
<g id="a_edge51_Node000028_Node000029"><a xlink:title=" ">
<path fill="none" stroke="#63b8ff" d="M431.99,-192.42C416.18,-182.6 397.4,-170.93 383.05,-162.01"/>
<polygon fill="#63b8ff" stroke="#63b8ff" points="430.56,-195.65 440.9,-197.95 434.25,-189.7 430.56,-195.65"/>
</a>
</g>
</g>
<!-- Node31 -->
<g id="Node000031" class="node">
<title>Node31</title>
<g id="a_Node000031"><a xlink:href="data__store2_8cc.html" target="_top" xlink:title=" ">
<polygon fill="white" stroke="#666666" points="135,-90.5 0,-90.5 0,-71.5 135,-71.5 135,-90.5"/>
<text text-anchor="middle" x="67.5" y="-78.5" font-family="Helvetica,sans-Serif" font-size="10.00">client/src/data_store2.cc</text>
</a>
</g>
</g>
<!-- Node28&#45;&gt;Node31 -->
<g id="edge59_Node000028_Node000031" class="edge">
<title>Node28&#45;&gt;Node31</title>
<g id="a_edge59_Node000028_Node000031"><a xlink:title=" ">
<path fill="none" stroke="#63b8ff" d="M387.75,-199.31C343.82,-190.91 287.8,-178.41 239.5,-162 179.63,-141.66 112.81,-106.83 83.15,-90.69"/>
<polygon fill="#63b8ff" stroke="#63b8ff" points="387.31,-202.79 397.78,-201.2 388.6,-195.91 387.31,-202.79"/>
</a>
</g>
</g>
<!-- Node32 -->
<g id="Node000032" class="node">
<title>Node32</title>
<g id="a_Node000032"><a xlink:href="robot__link_8cc.html" target="_top" xlink:title=" ">
<polygon fill="white" stroke="#666666" points="279.5,-90.5 153.5,-90.5 153.5,-71.5 279.5,-71.5 279.5,-90.5"/>
<text text-anchor="middle" x="216.5" y="-78.5" font-family="Helvetica,sans-Serif" font-size="10.00">client/src/robot_link.cc</text>
</a>
</g>
</g>
<!-- Node28&#45;&gt;Node32 -->
<g id="edge60_Node000028_Node000032" class="edge">
<title>Node28&#45;&gt;Node32</title>
<g id="a_edge60_Node000028_Node000032"><a xlink:title=" ">
<path fill="none" stroke="#63b8ff" d="M387.79,-205.15C349.82,-198.7 304.75,-186.21 270.5,-162 243.95,-143.24 226.63,-106.97 219.8,-90.5"/>
<polygon fill="#63b8ff" stroke="#63b8ff" points="387.36,-208.62 397.78,-206.73 388.46,-201.71 387.36,-208.62"/>
</a>
</g>
</g>
<!-- Node29&#45;&gt;Node8 -->
<g id="edge52_Node000029_Node000008" class="edge">
<title>Node29&#45;&gt;Node8</title>
<g id="a_edge52_Node000029_Node000008"><a xlink:title=" ">
<path fill="none" stroke="#63b8ff" d="M399.01,-127.77C441.61,-108.57 512.78,-79.32 577.5,-66 875.24,-4.74 959,-68.76 1260.5,-30 1263.61,-29.6 1266.79,-29.14 1269.99,-28.63"/>
<polygon fill="#63b8ff" stroke="#63b8ff" points="397.5,-124.61 389.85,-131.94 400.4,-130.98 397.5,-124.61"/>
</a>
</g>
</g>
<!-- Node29&#45;&gt;Node14 -->
<g id="edge56_Node000029_Node000014" class="edge">
<title>Node29&#45;&gt;Node14</title>
<g id="a_edge56_Node000029_Node000014"><a xlink:title=" ">
<path fill="none" stroke="#63b8ff" d="M339.44,-124.02C325.48,-106.76 312.15,-82.91 326.5,-66 355.97,-31.29 480.69,-20.63 560.94,-17.39"/>
<polygon fill="#63b8ff" stroke="#63b8ff" points="337.04,-126.61 346.22,-131.9 342.35,-122.04 337.04,-126.61"/>
</a>
</g>
</g>
<!-- Node30 -->
<g id="Node000030" class="node">
<title>Node30</title>
<g id="a_Node000030"><a xlink:href="client__msg__sync_8cc.html" target="_top" xlink:title=" ">
<polygon fill="white" stroke="#666666" points="453,-96 336,-96 336,-66 453,-66 453,-96"/>
<text text-anchor="start" x="344" y="-84" font-family="Helvetica,sans-Serif" font-size="10.00">client/src/client_msg</text>
<text text-anchor="middle" x="394.5" y="-73" font-family="Helvetica,sans-Serif" font-size="10.00">_sync.cc</text>
</a>
</g>
</g>
<!-- Node29&#45;&gt;Node30 -->
<g id="edge53_Node000029_Node000030" class="edge">
<title>Node29&#45;&gt;Node30</title>
<g id="a_edge53_Node000029_Node000030"><a xlink:title=" ">
<path fill="none" stroke="#63b8ff" d="M372.74,-122.96C377.5,-114 382.8,-104.03 386.98,-96.16"/>
<polygon fill="#63b8ff" stroke="#63b8ff" points="369.65,-121.32 368.05,-131.8 375.83,-124.61 369.65,-121.32"/>
</a>
</g>
</g>
<!-- Node29&#45;&gt;Node31 -->
<g id="edge54_Node000029_Node000031" class="edge">
<title>Node29&#45;&gt;Node31</title>
<g id="a_edge54_Node000029_Node000031"><a xlink:title=" ">
<path fill="none" stroke="#63b8ff" d="M286.12,-129.75C228.92,-117.26 152.19,-100.5 106.49,-90.52"/>
<polygon fill="#63b8ff" stroke="#63b8ff" points="285.68,-133.24 296.2,-131.95 287.18,-126.4 285.68,-133.24"/>
</a>
</g>
</g>
<!-- Node29&#45;&gt;Node32 -->
<g id="edge55_Node000029_Node000032" class="edge">
<title>Node29&#45;&gt;Node32</title>
<g id="a_edge55_Node000029_Node000032"><a xlink:title=" ">
<path fill="none" stroke="#63b8ff" d="M319.51,-127.78C291.97,-115.54 256.96,-99.98 235.66,-90.52"/>
<polygon fill="#63b8ff" stroke="#63b8ff" points="318.34,-131.09 328.9,-131.95 321.18,-124.7 318.34,-131.09"/>
</a>
</g>
</g>
<!-- Node34&#45;&gt;Node6 -->
<g id="edge64_Node000034_Node000006" class="edge">
<title>Node34&#45;&gt;Node6</title>
<g id="a_edge64_Node000034_Node000006"><a xlink:title=" ">
<path fill="none" stroke="#63b8ff" d="M2494.1,-121.83C2489.29,-103.12 2479.57,-78.36 2460.5,-66 2385.79,-17.59 947.05,-39.2 858.5,-30 855.47,-29.69 852.38,-29.31 849.26,-28.9"/>
<polygon fill="#63b8ff" stroke="#63b8ff" points="2490.72,-122.78 2496.34,-131.76 2497.55,-121.23 2490.72,-122.78"/>
</a>
</g>
</g>
<!-- Node34&#45;&gt;Node8 -->
<g id="edge67_Node000034_Node000008" class="edge">
<title>Node34&#45;&gt;Node8</title>
<g id="a_edge67_Node000034_Node000008"><a xlink:title=" ">
<path fill="none" stroke="#63b8ff" d="M2504.63,-122.02C2507.66,-104 2508.02,-80.1 2493.5,-66 2449.75,-23.53 1457.05,-37.17 1396.5,-30 1393.39,-29.63 1390.21,-29.19 1387,-28.7"/>
<polygon fill="#63b8ff" stroke="#63b8ff" points="2501.2,-121.33 2502.64,-131.83 2508.06,-122.72 2501.2,-121.33"/>
</a>
</g>
</g>
<!-- Node34&#45;&gt;Node9 -->
<g id="edge68_Node000034_Node000009" class="edge">
<title>Node34&#45;&gt;Node9</title>
<g id="a_edge68_Node000034_Node000009"><a xlink:title=" ">
<path fill="none" stroke="#63b8ff" d="M2519.46,-123.77C2533.53,-106.18 2546.92,-81.98 2531.5,-66 2492.16,-25.24 1568.62,-37.68 1512.5,-30 1503.37,-28.75 1493.57,-26.68 1484.68,-24.5"/>
<polygon fill="#63b8ff" stroke="#63b8ff" points="2516.44,-121.93 2512.62,-131.82 2521.77,-126.47 2516.44,-121.93"/>
</a>
</g>
</g>
<!-- Node34&#45;&gt;Node10 -->
<g id="edge69_Node000034_Node000010" class="edge">
<title>Node34&#45;&gt;Node10</title>
<g id="a_edge69_Node000034_Node000010"><a xlink:title=" ">
<path fill="none" stroke="#63b8ff" d="M2534.79,-126.61C2561,-110.2 2588.7,-86.19 2569.5,-66 2537.35,-32.18 1848.3,-19.76 1639.77,-16.77"/>
<polygon fill="#63b8ff" stroke="#63b8ff" points="2532.8,-123.72 2526.03,-131.86 2536.4,-129.72 2532.8,-123.72"/>
</a>
</g>
</g>
<!-- Node34&#45;&gt;Node19 -->
<g id="edge65_Node000034_Node000019" class="edge">
<title>Node34&#45;&gt;Node19</title>
<g id="a_edge65_Node000034_Node000019"><a xlink:title=" ">
<path fill="none" stroke="#63b8ff" d="M2422.48,-142.18C2302.68,-135.69 2062.76,-120.73 1860.5,-96 1848.47,-94.53 1835.52,-92.56 1823.49,-90.57"/>
<polygon fill="#63b8ff" stroke="#63b8ff" points="2422.47,-145.69 2432.64,-142.73 2422.85,-138.7 2422.47,-145.69"/>
</a>
</g>
</g>
<!-- Node34&#45;&gt;Node25 -->
<g id="edge66_Node000034_Node000025" class="edge">
<title>Node34&#45;&gt;Node25</title>
<g id="a_edge66_Node000034_Node000025"><a xlink:title=" ">
<path fill="none" stroke="#63b8ff" d="M2464.31,-126.97C2442.56,-114.87 2415.44,-99.78 2398.8,-90.52"/>
<polygon fill="#63b8ff" stroke="#63b8ff" points="2462.82,-130.15 2473.26,-131.95 2466.23,-124.03 2462.82,-130.15"/>
</a>
</g>
</g>
<!-- Node35 -->
<g id="Node000035" class="node">
<title>Node35</title>
<g id="a_Node000035"><a xlink:href="value_8cc.html" target="_top" xlink:title=" ">
<polygon fill="white" stroke="#666666" points="2725.5,-90.5 2621.5,-90.5 2621.5,-71.5 2725.5,-71.5 2725.5,-90.5"/>
<text text-anchor="middle" x="2673.5" y="-78.5" font-family="Helvetica,sans-Serif" font-size="10.00">client/src/value.cc</text>
</a>
</g>
</g>
<!-- Node34&#45;&gt;Node35 -->
<g id="edge70_Node000034_Node000035" class="edge">
<title>Node34&#45;&gt;Node35</title>
<g id="a_edge70_Node000034_Node000035"><a xlink:title=" ">
<path fill="none" stroke="#63b8ff" d="M2546.57,-128.42C2580.29,-116.09 2623.88,-100.15 2650.21,-90.52"/>
<polygon fill="#63b8ff" stroke="#63b8ff" points="2545.09,-125.23 2536.9,-131.95 2547.5,-131.81 2545.09,-125.23"/>
</a>
</g>
</g>
</g>
</svg>
