<?xml version="1.0" encoding="UTF-8" standalone="no"?>
<!DOCTYPE svg PUBLIC "-//W3C//DTD SVG 1.1//EN"
 "http://www.w3.org/Graphics/SVG/1.1/DTD/svg11.dtd">
<!-- Generated by graphviz version 2.43.0 (0)
 -->
<!-- Title: include/webcface/c_wcf/client.h Pages: 1 -->
<svg width="624pt" height="214pt"
 viewBox="0.00 0.00 624.00 214.00" xmlns="http://www.w3.org/2000/svg" xmlns:xlink="http://www.w3.org/1999/xlink">
<g id="graph0" class="graph" transform="scale(1 1) rotate(0) translate(4 210)">
<title>include/webcface/c_wcf/client.h</title>
<!-- Node1 -->
<g id="Node000001" class="node">
<title>Node1</title>
<g id="a_Node000001"><a xlink:title=" ">
<polygon fill="#999999" stroke="#666666" points="438,-206 328,-206 328,-176 438,-176 438,-206"/>
<text text-anchor="start" x="336" y="-194" font-family="Helvetica,sans-Serif" font-size="10.00">include/webcface/c</text>
<text text-anchor="middle" x="383" y="-183" font-family="Helvetica,sans-Serif" font-size="10.00">_wcf/client.h</text>
</a>
</g>
</g>
<!-- Node2 -->
<g id="Node000002" class="node">
<title>Node2</title>
<g id="a_Node000002"><a xlink:href="wcf_8h.html" target="_top" xlink:title=" ">
<polygon fill="white" stroke="#666666" points="448,-140 318,-140 318,-121 448,-121 448,-140"/>
<text text-anchor="middle" x="383" y="-128" font-family="Helvetica,sans-Serif" font-size="10.00">include/webcface/wcf.h</text>
</a>
</g>
</g>
<!-- Node1&#45;&gt;Node2 -->
<g id="edge1_Node000001_Node000002" class="edge">
<title>Node1&#45;&gt;Node2</title>
<g id="a_edge1_Node000001_Node000002"><a xlink:title=" ">
<path fill="none" stroke="#63b8ff" d="M383,-165.75C383,-156.72 383,-147.03 383,-140.27"/>
<polygon fill="#63b8ff" stroke="#63b8ff" points="379.5,-165.84 383,-175.84 386.5,-165.84 379.5,-165.84"/>
</a>
</g>
</g>
<!-- Node3 -->
<g id="Node000003" class="node">
<title>Node3</title>
<g id="a_Node000003"><a xlink:href="c__wcf__internal_8h.html" target="_top" xlink:title=" ">
<polygon fill="white" stroke="#666666" points="309.5,-79.5 182.5,-79.5 182.5,-60.5 309.5,-60.5 309.5,-79.5"/>
<text text-anchor="middle" x="246" y="-67.5" font-family="Helvetica,sans-Serif" font-size="10.00">c_wcf/c_wcf_internal.h</text>
</a>
</g>
</g>
<!-- Node2&#45;&gt;Node3 -->
<g id="edge2_Node000002_Node000003" class="edge">
<title>Node2&#45;&gt;Node3</title>
<g id="a_edge2_Node000002_Node000003"><a xlink:title=" ">
<path fill="none" stroke="#63b8ff" d="M353.57,-116.93C327.12,-105.64 288.99,-89.36 265.95,-79.52"/>
<polygon fill="#63b8ff" stroke="#63b8ff" points="352.51,-120.29 363.08,-120.99 355.26,-113.85 352.51,-120.29"/>
</a>
</g>
</g>
<!-- Node9 -->
<g id="Node000009" class="node">
<title>Node9</title>
<g id="a_Node000009"><a xlink:href="c__wcf_8h.html" target="_top" xlink:title=" ">
<polygon fill="white" stroke="#666666" points="438,-85 328,-85 328,-55 438,-55 438,-85"/>
<text text-anchor="start" x="336" y="-73" font-family="Helvetica,sans-Serif" font-size="10.00">include/webcface/c</text>
<text text-anchor="middle" x="383" y="-62" font-family="Helvetica,sans-Serif" font-size="10.00">_wcf.h</text>
</a>
</g>
</g>
<!-- Node2&#45;&gt;Node9 -->
<g id="edge8_Node000002_Node000009" class="edge">
<title>Node2&#45;&gt;Node9</title>
<g id="a_edge8_Node000002_Node000009"><a xlink:title=" ">
<path fill="none" stroke="#63b8ff" d="M383,-110.65C383,-102.36 383,-92.78 383,-85.11"/>
<polygon fill="#63b8ff" stroke="#63b8ff" points="379.5,-110.87 383,-120.87 386.5,-110.87 379.5,-110.87"/>
</a>
</g>
</g>
<!-- Node10 -->
<g id="Node000010" class="node">
<title>Node10</title>
<g id="a_Node000010"><a xlink:href="webcface_8h.html" target="_top" xlink:title=" ">
<polygon fill="white" stroke="#666666" points="616,-79.5 456,-79.5 456,-60.5 616,-60.5 616,-79.5"/>
<text text-anchor="middle" x="536" y="-67.5" font-family="Helvetica,sans-Serif" font-size="10.00">include/webcface/webcface.h</text>
</a>
</g>
</g>
<!-- Node2&#45;&gt;Node10 -->
<g id="edge9_Node000002_Node000010" class="edge">
<title>Node2&#45;&gt;Node10</title>
<g id="a_edge9_Node000002_Node000010"><a xlink:title=" ">
<path fill="none" stroke="#63b8ff" d="M414.7,-117.38C444.28,-106.07 487.65,-89.49 513.73,-79.52"/>
<polygon fill="#63b8ff" stroke="#63b8ff" points="413.34,-114.15 405.25,-120.99 415.84,-120.69 413.34,-114.15"/>
</a>
</g>
</g>
<!-- Node4 -->
<g id="Node000004" class="node">
<title>Node4</title>
<g id="a_Node000004"><a xlink:href="c__wcf_2client_8cc.html" target="_top" xlink:title=" ">
<polygon fill="white" stroke="#666666" points="88,-19 0,-19 0,0 88,0 88,-19"/>
<text text-anchor="middle" x="44" y="-7" font-family="Helvetica,sans-Serif" font-size="10.00">c_wcf/client.cc</text>
</a>
</g>
</g>
<!-- Node3&#45;&gt;Node4 -->
<g id="edge3_Node000003_Node000004" class="edge">
<title>Node3&#45;&gt;Node4</title>
<g id="a_edge3_Node000003_Node000004"><a xlink:title=" ">
<path fill="none" stroke="#63b8ff" d="M206.66,-57.61C167.59,-46.29 108.58,-29.2 73.41,-19.02"/>
<polygon fill="#63b8ff" stroke="#63b8ff" points="206.05,-61.07 216.63,-60.49 208,-54.35 206.05,-61.07"/>
</a>
</g>
</g>
<!-- Node5 -->
<g id="Node000005" class="node">
<title>Node5</title>
<g id="a_Node000005"><a xlink:href="c__wcf_2func_8cc.html" target="_top" xlink:title=" ">
<polygon fill="white" stroke="#666666" points="188,-19 106,-19 106,0 188,0 188,-19"/>
<text text-anchor="middle" x="147" y="-7" font-family="Helvetica,sans-Serif" font-size="10.00">c_wcf/func.cc</text>
</a>
</g>
</g>
<!-- Node3&#45;&gt;Node5 -->
<g id="edge4_Node000003_Node000005" class="edge">
<title>Node3&#45;&gt;Node5</title>
<g id="a_edge4_Node000003_Node000005"><a xlink:title=" ">
<path fill="none" stroke="#63b8ff" d="M222.77,-55.27C203.87,-44.1 177.78,-28.69 161.67,-19.17"/>
<polygon fill="#63b8ff" stroke="#63b8ff" points="221,-58.29 231.39,-60.37 224.56,-52.27 221,-58.29"/>
</a>
</g>
</g>
<!-- Node6 -->
<g id="Node000006" class="node">
<title>Node6</title>
<g id="a_Node000006"><a xlink:href="c__wcf_2text_8cc.html" target="_top" xlink:title=" ">
<polygon fill="white" stroke="#666666" points="286,-19 206,-19 206,0 286,0 286,-19"/>
<text text-anchor="middle" x="246" y="-7" font-family="Helvetica,sans-Serif" font-size="10.00">c_wcf/text.cc</text>
</a>
</g>
</g>
<!-- Node3&#45;&gt;Node6 -->
<g id="edge5_Node000003_Node000006" class="edge">
<title>Node3&#45;&gt;Node6</title>
<g id="a_edge5_Node000003_Node000006"><a xlink:title=" ">
<path fill="none" stroke="#63b8ff" d="M246,-50.16C246,-39.74 246,-27.3 246,-19.17"/>
<polygon fill="#63b8ff" stroke="#63b8ff" points="242.5,-50.37 246,-60.37 249.5,-50.37 242.5,-50.37"/>
</a>
</g>
</g>
<!-- Node7 -->
<g id="Node000007" class="node">
<title>Node7</title>
<g id="a_Node000007"><a xlink:href="c__wcf_2value_8cc.html" target="_top" xlink:title=" ">
<polygon fill="white" stroke="#666666" points="392,-19 304,-19 304,0 392,0 392,-19"/>
<text text-anchor="middle" x="348" y="-7" font-family="Helvetica,sans-Serif" font-size="10.00">c_wcf/value.cc</text>
</a>
</g>
</g>
<!-- Node3&#45;&gt;Node7 -->
<g id="edge6_Node000003_Node000007" class="edge">
<title>Node3&#45;&gt;Node7</title>
<g id="a_edge6_Node000003_Node000007"><a xlink:title=" ">
<path fill="none" stroke="#63b8ff" d="M269.94,-55.27C289.41,-44.1 316.29,-28.69 332.89,-19.17"/>
<polygon fill="#63b8ff" stroke="#63b8ff" points="267.98,-52.36 261.05,-60.37 271.47,-58.43 267.98,-52.36"/>
</a>
</g>
</g>
<!-- Node8 -->
<g id="Node000008" class="node">
<title>Node8</title>
<g id="a_Node000008"><a xlink:href="c__wcf_2view_8cc.html" target="_top" xlink:title=" ">
<polygon fill="white" stroke="#666666" points="493.5,-19 410.5,-19 410.5,0 493.5,0 493.5,-19"/>
<text text-anchor="middle" x="452" y="-7" font-family="Helvetica,sans-Serif" font-size="10.00">c_wcf/view.cc</text>
</a>
</g>
</g>
<!-- Node3&#45;&gt;Node8 -->
<g id="edge7_Node000003_Node000008" class="edge">
<title>Node3&#45;&gt;Node8</title>
<g id="a_edge7_Node000003_Node000008"><a xlink:title=" ">
<path fill="none" stroke="#63b8ff" d="M285.61,-57.75C325.45,-46.44 385.99,-29.25 422.01,-19.02"/>
<polygon fill="#63b8ff" stroke="#63b8ff" points="284.62,-54.39 275.95,-60.49 286.53,-61.13 284.62,-54.39"/>
</a>
</g>
</g>
</g>
</svg>
