<?xml version="1.0" encoding="UTF-8" standalone="no"?>
<!DOCTYPE svg PUBLIC "-//W3C//DTD SVG 1.1//EN"
 "http://www.w3.org/Graphics/SVG/1.1/DTD/svg11.dtd">
<!-- Generated by graphviz version 2.43.0 (0)
 -->
<!-- Title: include/webcface/canvas3d.h Pages: 1 -->
<svg width="1471pt" height="247pt"
 viewBox="0.00 0.00 1470.50 247.00" xmlns="http://www.w3.org/2000/svg" xmlns:xlink="http://www.w3.org/1999/xlink">
<g id="graph0" class="graph" transform="scale(1 1) rotate(0) translate(4 243)">
<title>include/webcface/canvas3d.h</title>
<!-- Node1 -->
<g id="Node000001" class="node">
<title>Node1</title>
<g id="a_Node000001"><a xlink:title=" ">
<polygon fill="#999999" stroke="#666666" points="794.5,-239 634.5,-239 634.5,-220 794.5,-220 794.5,-239"/>
<text text-anchor="middle" x="714.5" y="-227" font-family="Helvetica,sans-Serif" font-size="10.00">include/webcface/canvas3d.h</text>
</a>
</g>
</g>
<!-- Node2 -->
<g id="Node000002" class="node">
<title>Node2</title>
<g id="a_Node000002"><a xlink:href="canvas3d_8cc.html" target="_top" xlink:title=" ">
<polygon fill="white" stroke="#666666" points="107,-129 0,-129 0,-110 107,-110 107,-129"/>
<text text-anchor="middle" x="53.5" y="-117" font-family="Helvetica,sans-Serif" font-size="10.00">client/canvas3d.cc</text>
</a>
</g>
</g>
<!-- Node1&#45;&gt;Node2 -->
<g id="edge1_Node000001_Node000002" class="edge">
<title>Node1&#45;&gt;Node2</title>
<g id="a_edge1_Node000001_Node000002"><a xlink:title=" ">
<path fill="none" stroke="#63b8ff" d="M652.2,-218.32C522.54,-197.14 225.77,-148.65 105.53,-129"/>
<polygon fill="#63b8ff" stroke="#63b8ff" points="651.92,-221.82 662.36,-219.98 653.05,-214.91 651.92,-221.82"/>
</a>
</g>
</g>
<!-- Node3 -->
<g id="Node000003" class="node">
<title>Node3</title>
<g id="a_Node000003"><a xlink:href="member_8h.html" target="_top" xlink:title=" ">
<polygon fill="white" stroke="#666666" points="791.5,-184 637.5,-184 637.5,-165 791.5,-165 791.5,-184"/>
<text text-anchor="middle" x="714.5" y="-172" font-family="Helvetica,sans-Serif" font-size="10.00">include/webcface/member.h</text>
</a>
</g>
</g>
<!-- Node1&#45;&gt;Node3 -->
<g id="edge2_Node000001_Node000003" class="edge">
<title>Node1&#45;&gt;Node3</title>
<g id="a_edge2_Node000001_Node000003"><a xlink:title=" ">
<path fill="none" stroke="#63b8ff" d="M714.5,-209.66C714.5,-200.93 714.5,-190.99 714.5,-184.09"/>
<polygon fill="#63b8ff" stroke="#63b8ff" points="711,-209.75 714.5,-219.75 718,-209.75 711,-209.75"/>
</a>
</g>
</g>
<!-- Node22 -->
<g id="Node000022" class="node">
<title>Node22</title>
<g id="a_Node000022"><a xlink:href="webcface_8h.html" target="_top" xlink:title=" ">
<polygon fill="white" stroke="#666666" points="1462.5,-74 1302.5,-74 1302.5,-55 1462.5,-55 1462.5,-74"/>
<text text-anchor="middle" x="1382.5" y="-62" font-family="Helvetica,sans-Serif" font-size="10.00">include/webcface/webcface.h</text>
</a>
</g>
</g>
<!-- Node1&#45;&gt;Node22 -->
<g id="edge24_Node000001_Node000022" class="edge">
<title>Node1&#45;&gt;Node22</title>
<g id="a_edge24_Node000001_Node000022"><a xlink:title=" ">
<path fill="none" stroke="#63b8ff" d="M804.71,-223.05C956.13,-212.46 1253.44,-185.05 1340.5,-129 1361.17,-115.69 1373.98,-88.2 1379.43,-74.16"/>
<polygon fill="#63b8ff" stroke="#63b8ff" points="804.24,-219.58 794.5,-223.75 804.72,-226.56 804.24,-219.58"/>
</a>
</g>
</g>
<!-- Node3&#45;&gt;Node2 -->
<g id="edge4_Node000003_Node000002" class="edge">
<title>Node3&#45;&gt;Node2</title>
<g id="a_edge4_Node000003_Node000002"><a xlink:title=" ">
<path fill="none" stroke="#63b8ff" d="M626.99,-168.71C510.18,-161.92 296.95,-148.16 115.5,-129 112.8,-128.71 110.03,-128.4 107.24,-128.08"/>
<polygon fill="#63b8ff" stroke="#63b8ff" points="627.11,-172.22 637.3,-169.3 627.52,-165.23 627.11,-172.22"/>
</a>
</g>
</g>
<!-- Node4 -->
<g id="Node000004" class="node">
<title>Node4</title>
<g id="a_Node000004"><a xlink:href="canvas2d_8cc.html" target="_top" xlink:title=" ">
<polygon fill="white" stroke="#666666" points="232,-129 125,-129 125,-110 232,-110 232,-129"/>
<text text-anchor="middle" x="178.5" y="-117" font-family="Helvetica,sans-Serif" font-size="10.00">client/canvas2d.cc</text>
</a>
</g>
</g>
<!-- Node3&#45;&gt;Node4 -->
<g id="edge3_Node000003_Node000004" class="edge">
<title>Node3&#45;&gt;Node4</title>
<g id="a_edge3_Node000003_Node000004"><a xlink:title=" ">
<path fill="none" stroke="#63b8ff" d="M627.25,-166.35C532.26,-158.32 375.91,-144.38 241.5,-129 238.43,-128.65 235.28,-128.27 232.1,-127.88"/>
<polygon fill="#63b8ff" stroke="#63b8ff" points="627.13,-169.85 637.39,-167.21 627.72,-162.88 627.13,-169.85"/>
</a>
</g>
</g>
<!-- Node5 -->
<g id="Node000005" class="node">
<title>Node5</title>
<g id="a_Node000005"><a xlink:href="canvas__data_8cc.html" target="_top" xlink:title=" ">
<polygon fill="white" stroke="#666666" points="372.5,-129 250.5,-129 250.5,-110 372.5,-110 372.5,-129"/>
<text text-anchor="middle" x="311.5" y="-117" font-family="Helvetica,sans-Serif" font-size="10.00">client/canvas_data.cc</text>
</a>
</g>
</g>
<!-- Node3&#45;&gt;Node5 -->
<g id="edge5_Node000003_Node000005" class="edge">
<title>Node3&#45;&gt;Node5</title>
<g id="a_edge5_Node000003_Node000005"><a xlink:title=" ">
<path fill="none" stroke="#63b8ff" d="M639.65,-163.66C562.71,-153.54 444.35,-137.97 372.79,-128.56"/>
<polygon fill="#63b8ff" stroke="#63b8ff" points="639.38,-167.15 649.75,-164.98 640.29,-160.21 639.38,-167.15"/>
</a>
</g>
</g>
<!-- Node6 -->
<g id="Node000006" class="node">
<title>Node6</title>
<g id="a_Node000006"><a xlink:href="field_8cc.html" target="_top" xlink:title=" ">
<polygon fill="white" stroke="#666666" points="472,-129 391,-129 391,-110 472,-110 472,-129"/>
<text text-anchor="middle" x="431.5" y="-117" font-family="Helvetica,sans-Serif" font-size="10.00">client/field.cc</text>
</a>
</g>
</g>
<!-- Node3&#45;&gt;Node6 -->
<g id="edge6_Node000003_Node000006" class="edge">
<title>Node3&#45;&gt;Node6</title>
<g id="a_edge6_Node000003_Node000006"><a xlink:title=" ">
<path fill="none" stroke="#63b8ff" d="M659.12,-163.13C604.22,-152.85 521.41,-137.34 472.26,-128.13"/>
<polygon fill="#63b8ff" stroke="#63b8ff" points="658.56,-166.58 669.03,-164.98 659.85,-159.7 658.56,-166.58"/>
</a>
</g>
</g>
<!-- Node7 -->
<g id="Node000007" class="node">
<title>Node7</title>
<g id="a_Node000007"><a xlink:href="image_8cc.html" target="_top" xlink:title=" ">
<polygon fill="white" stroke="#666666" points="581,-129 490,-129 490,-110 581,-110 581,-129"/>
<text text-anchor="middle" x="535.5" y="-117" font-family="Helvetica,sans-Serif" font-size="10.00">client/image.cc</text>
</a>
</g>
</g>
<!-- Node3&#45;&gt;Node7 -->
<g id="edge7_Node000003_Node000007" class="edge">
<title>Node3&#45;&gt;Node7</title>
<g id="a_edge7_Node000003_Node000007"><a xlink:title=" ">
<path fill="none" stroke="#63b8ff" d="M675.85,-162.06C642.39,-152.15 594.75,-138.04 564.48,-129.08"/>
<polygon fill="#63b8ff" stroke="#63b8ff" points="675.16,-165.5 685.74,-164.98 677.15,-158.79 675.16,-165.5"/>
</a>
</g>
</g>
<!-- Node8 -->
<g id="Node000008" class="node">
<title>Node8</title>
<g id="a_Node000008"><a xlink:href="member_8cc.html" target="_top" xlink:title=" ">
<polygon fill="white" stroke="#666666" points="700,-129 599,-129 599,-110 700,-110 700,-129"/>
<text text-anchor="middle" x="649.5" y="-117" font-family="Helvetica,sans-Serif" font-size="10.00">client/member.cc</text>
</a>
</g>
</g>
<!-- Node3&#45;&gt;Node8 -->
<g id="edge8_Node000003_Node000008" class="edge">
<title>Node3&#45;&gt;Node8</title>
<g id="a_edge8_Node000003_Node000008"><a xlink:title=" ">
<path fill="none" stroke="#63b8ff" d="M696.23,-158.6C684.58,-149.11 669.9,-137.13 660.13,-129.17"/>
<polygon fill="#63b8ff" stroke="#63b8ff" points="694.09,-161.38 704.06,-164.98 698.52,-155.95 694.09,-161.38"/>
</a>
</g>
</g>
<!-- Node9 -->
<g id="Node000009" class="node">
<title>Node9</title>
<g id="a_Node000009"><a xlink:href="robot__model_8cc.html" target="_top" xlink:title=" ">
<polygon fill="white" stroke="#666666" points="840.5,-129 718.5,-129 718.5,-110 840.5,-110 840.5,-129"/>
<text text-anchor="middle" x="779.5" y="-117" font-family="Helvetica,sans-Serif" font-size="10.00">client/robot_model.cc</text>
</a>
</g>
</g>
<!-- Node3&#45;&gt;Node9 -->
<g id="edge9_Node000003_Node000009" class="edge">
<title>Node3&#45;&gt;Node9</title>
<g id="a_edge9_Node000003_Node000009"><a xlink:title=" ">
<path fill="none" stroke="#63b8ff" d="M732.77,-158.6C744.42,-149.11 759.1,-137.13 768.87,-129.17"/>
<polygon fill="#63b8ff" stroke="#63b8ff" points="730.48,-155.95 724.94,-164.98 734.91,-161.38 730.48,-155.95"/>
</a>
</g>
</g>
<!-- Node10 -->
<g id="Node000010" class="node">
<title>Node10</title>
<g id="a_Node000010"><a xlink:href="client_2text_8cc.html" target="_top" xlink:title=" ">
<polygon fill="white" stroke="#666666" points="938.5,-129 858.5,-129 858.5,-110 938.5,-110 938.5,-129"/>
<text text-anchor="middle" x="898.5" y="-117" font-family="Helvetica,sans-Serif" font-size="10.00">client/text.cc</text>
</a>
</g>
</g>
<!-- Node3&#45;&gt;Node10 -->
<g id="edge10_Node000003_Node000010" class="edge">
<title>Node3&#45;&gt;Node10</title>
<g id="a_edge10_Node000003_Node000010"><a xlink:title=" ">
<path fill="none" stroke="#63b8ff" d="M753.79,-162.18C788.2,-152.27 837.46,-138.08 868.71,-129.08"/>
<polygon fill="#63b8ff" stroke="#63b8ff" points="752.7,-158.85 744.06,-164.98 754.64,-165.58 752.7,-158.85"/>
</a>
</g>
</g>
<!-- Node11 -->
<g id="Node000011" class="node">
<title>Node11</title>
<g id="a_Node000011"><a xlink:href="client_2value_8cc.html" target="_top" xlink:title=" ">
<polygon fill="white" stroke="#666666" points="1044,-129 957,-129 957,-110 1044,-110 1044,-129"/>
<text text-anchor="middle" x="1000.5" y="-117" font-family="Helvetica,sans-Serif" font-size="10.00">client/value.cc</text>
</a>
</g>
</g>
<!-- Node3&#45;&gt;Node11 -->
<g id="edge11_Node000003_Node000011" class="edge">
<title>Node3&#45;&gt;Node11</title>
<g id="a_edge11_Node000003_Node000011"><a xlink:title=" ">
<path fill="none" stroke="#63b8ff" d="M770.29,-163.16C824.76,-153.07 906.53,-137.91 956.54,-128.65"/>
<polygon fill="#63b8ff" stroke="#63b8ff" points="769.65,-159.72 760.45,-164.98 770.92,-166.6 769.65,-159.72"/>
</a>
</g>
</g>
<!-- Node12 -->
<g id="Node000012" class="node">
<title>Node12</title>
<g id="a_Node000012"><a xlink:href="client_2view_8cc.html" target="_top" xlink:title=" ">
<polygon fill="white" stroke="#666666" points="1145,-129 1062,-129 1062,-110 1145,-110 1145,-129"/>
<text text-anchor="middle" x="1103.5" y="-117" font-family="Helvetica,sans-Serif" font-size="10.00">client/view.cc</text>
</a>
</g>
</g>
<!-- Node3&#45;&gt;Node12 -->
<g id="edge12_Node000003_Node000012" class="edge">
<title>Node3&#45;&gt;Node12</title>
<g id="a_edge12_Node000003_Node000012"><a xlink:title=" ">
<path fill="none" stroke="#63b8ff" d="M794.8,-163.71C863.36,-155.17 964.52,-142.12 1052.5,-129 1055.52,-128.55 1058.63,-128.07 1061.77,-127.57"/>
<polygon fill="#63b8ff" stroke="#63b8ff" points="794,-160.29 784.51,-164.99 794.87,-167.23 794,-160.29"/>
</a>
</g>
</g>
<!-- Node13 -->
<g id="Node000013" class="node">
<title>Node13</title>
<g id="a_Node000013"><a xlink:href="client_8h.html" target="_top" xlink:title=" ">
<polygon fill="white" stroke="#666666" points="1303.5,-129 1163.5,-129 1163.5,-110 1303.5,-110 1303.5,-129"/>
<text text-anchor="middle" x="1233.5" y="-117" font-family="Helvetica,sans-Serif" font-size="10.00">include/webcface/client.h</text>
</a>
</g>
</g>
<!-- Node3&#45;&gt;Node13 -->
<g id="edge13_Node000003_Node000013" class="edge">
<title>Node3&#45;&gt;Node13</title>
<g id="a_edge13_Node000003_Node000013"><a xlink:title=" ">
<path fill="none" stroke="#63b8ff" d="M801.84,-164.77C890.44,-155.89 1031.52,-141.66 1153.5,-129 1156.7,-128.67 1159.96,-128.33 1163.26,-127.98"/>
<polygon fill="#63b8ff" stroke="#63b8ff" points="801.43,-161.3 791.83,-165.78 802.13,-168.26 801.43,-161.3"/>
</a>
</g>
</g>
<!-- Node3&#45;&gt;Node22 -->
<g id="edge23_Node000003_Node000022" class="edge">
<title>Node3&#45;&gt;Node22</title>
<g id="a_edge23_Node000003_Node000022"><a xlink:title=" ">
<path fill="none" stroke="#63b8ff" d="M801.61,-173.91C944.8,-173.45 1222.99,-167.43 1312.5,-129 1340.54,-116.96 1364.79,-88.89 1375.95,-74.45"/>
<polygon fill="#63b8ff" stroke="#63b8ff" points="801.53,-170.41 791.54,-173.94 801.55,-177.41 801.53,-170.41"/>
</a>
</g>
</g>
<!-- Node14 -->
<g id="Node000014" class="node">
<title>Node14</title>
<g id="a_Node000014"><a xlink:href="c__wcf__internal_8h.html" target="_top" xlink:title=" ">
<polygon fill="white" stroke="#666666" points="1055,-74 928,-74 928,-55 1055,-55 1055,-74"/>
<text text-anchor="middle" x="991.5" y="-62" font-family="Helvetica,sans-Serif" font-size="10.00">c_wcf/c_wcf_internal.h</text>
</a>
</g>
</g>
<!-- Node13&#45;&gt;Node14 -->
<g id="edge14_Node000013_Node000014" class="edge">
<title>Node13&#45;&gt;Node14</title>
<g id="a_edge14_Node000013_Node000014"><a xlink:title=" ">
<path fill="none" stroke="#63b8ff" d="M1184.71,-107.82C1139.36,-97.88 1072.67,-83.28 1030.69,-74.08"/>
<polygon fill="#63b8ff" stroke="#63b8ff" points="1184.1,-111.26 1194.62,-109.98 1185.6,-104.43 1184.1,-111.26"/>
</a>
</g>
</g>
<!-- Node20 -->
<g id="Node000020" class="node">
<title>Node20</title>
<g id="a_Node000020"><a xlink:href="client_2client_8cc.html" target="_top" xlink:title=" ">
<polygon fill="white" stroke="#666666" points="1160,-74 1073,-74 1073,-55 1160,-55 1160,-74"/>
<text text-anchor="middle" x="1116.5" y="-62" font-family="Helvetica,sans-Serif" font-size="10.00">client/client.cc</text>
</a>
</g>
</g>
<!-- Node13&#45;&gt;Node20 -->
<g id="edge20_Node000013_Node000020" class="edge">
<title>Node13&#45;&gt;Node20</title>
<g id="a_edge20_Node000013_Node000020"><a xlink:title=" ">
<path fill="none" stroke="#63b8ff" d="M1205.39,-105.77C1183.81,-95.99 1154.59,-82.75 1135.64,-74.17"/>
<polygon fill="#63b8ff" stroke="#63b8ff" points="1204.15,-109.05 1214.7,-109.98 1207.04,-102.67 1204.15,-109.05"/>
</a>
</g>
</g>
<!-- Node21 -->
<g id="Node000021" class="node">
<title>Node21</title>
<g id="a_Node000021"><a xlink:href="client__ws_8cc.html" target="_top" xlink:title=" ">
<polygon fill="white" stroke="#666666" points="1284.5,-74 1178.5,-74 1178.5,-55 1284.5,-55 1284.5,-74"/>
<text text-anchor="middle" x="1231.5" y="-62" font-family="Helvetica,sans-Serif" font-size="10.00">client/client_ws.cc</text>
</a>
</g>
</g>
<!-- Node13&#45;&gt;Node21 -->
<g id="edge21_Node000013_Node000021" class="edge">
<title>Node13&#45;&gt;Node21</title>
<g id="a_edge21_Node000013_Node000021"><a xlink:title=" ">
<path fill="none" stroke="#63b8ff" d="M1232.79,-99.66C1232.46,-90.93 1232.08,-80.99 1231.82,-74.09"/>
<polygon fill="#63b8ff" stroke="#63b8ff" points="1229.3,-99.89 1233.17,-109.75 1236.29,-99.62 1229.3,-99.89"/>
</a>
</g>
</g>
<!-- Node13&#45;&gt;Node22 -->
<g id="edge22_Node000013_Node000022" class="edge">
<title>Node13&#45;&gt;Node22</title>
<g id="a_edge22_Node000013_Node000022"><a xlink:title=" ">
<path fill="none" stroke="#63b8ff" d="M1267.09,-106.55C1294.76,-96.71 1333.34,-82.98 1358.12,-74.17"/>
<polygon fill="#63b8ff" stroke="#63b8ff" points="1265.69,-103.34 1257.44,-109.98 1268.03,-109.93 1265.69,-103.34"/>
</a>
</g>
</g>
<!-- Node15 -->
<g id="Node000015" class="node">
<title>Node15</title>
<g id="a_Node000015"><a xlink:href="c__wcf_2client_8cc.html" target="_top" xlink:title=" ">
<polygon fill="white" stroke="#666666" points="833.5,-19 745.5,-19 745.5,0 833.5,0 833.5,-19"/>
<text text-anchor="middle" x="789.5" y="-7" font-family="Helvetica,sans-Serif" font-size="10.00">c_wcf/client.cc</text>
</a>
</g>
</g>
<!-- Node14&#45;&gt;Node15 -->
<g id="edge15_Node000014_Node000015" class="edge">
<title>Node14&#45;&gt;Node15</title>
<g id="a_edge15_Node000014_Node000015"><a xlink:title=" ">
<path fill="none" stroke="#63b8ff" d="M949.34,-52.44C911.52,-42.52 856.81,-28.16 822.21,-19.08"/>
<polygon fill="#63b8ff" stroke="#63b8ff" points="948.48,-55.83 959.05,-54.98 950.26,-49.06 948.48,-55.83"/>
</a>
</g>
</g>
<!-- Node16 -->
<g id="Node000016" class="node">
<title>Node16</title>
<g id="a_Node000016"><a xlink:href="c__wcf_2func_8cc.html" target="_top" xlink:title=" ">
<polygon fill="white" stroke="#666666" points="933.5,-19 851.5,-19 851.5,0 933.5,0 933.5,-19"/>
<text text-anchor="middle" x="892.5" y="-7" font-family="Helvetica,sans-Serif" font-size="10.00">c_wcf/func.cc</text>
</a>
</g>
</g>
<!-- Node14&#45;&gt;Node16 -->
<g id="edge16_Node000014_Node000016" class="edge">
<title>Node14&#45;&gt;Node16</title>
<g id="a_edge16_Node000014_Node000016"><a xlink:title=" ">
<path fill="none" stroke="#63b8ff" d="M966.72,-50.23C948.56,-40.51 924.44,-27.6 908.7,-19.17"/>
<polygon fill="#63b8ff" stroke="#63b8ff" points="965.13,-53.35 975.59,-54.98 968.43,-47.18 965.13,-53.35"/>
</a>
</g>
</g>
<!-- Node17 -->
<g id="Node000017" class="node">
<title>Node17</title>
<g id="a_Node000017"><a xlink:href="c__wcf_2text_8cc.html" target="_top" xlink:title=" ">
<polygon fill="white" stroke="#666666" points="1031.5,-19 951.5,-19 951.5,0 1031.5,0 1031.5,-19"/>
<text text-anchor="middle" x="991.5" y="-7" font-family="Helvetica,sans-Serif" font-size="10.00">c_wcf/text.cc</text>
</a>
</g>
</g>
<!-- Node14&#45;&gt;Node17 -->
<g id="edge17_Node000014_Node000017" class="edge">
<title>Node14&#45;&gt;Node17</title>
<g id="a_edge17_Node000014_Node000017"><a xlink:title=" ">
<path fill="none" stroke="#63b8ff" d="M991.5,-44.66C991.5,-35.93 991.5,-25.99 991.5,-19.09"/>
<polygon fill="#63b8ff" stroke="#63b8ff" points="988,-44.75 991.5,-54.75 995,-44.75 988,-44.75"/>
</a>
</g>
</g>
<!-- Node18 -->
<g id="Node000018" class="node">
<title>Node18</title>
<g id="a_Node000018"><a xlink:href="c__wcf_2value_8cc.html" target="_top" xlink:title=" ">
<polygon fill="white" stroke="#666666" points="1137.5,-19 1049.5,-19 1049.5,0 1137.5,0 1137.5,-19"/>
<text text-anchor="middle" x="1093.5" y="-7" font-family="Helvetica,sans-Serif" font-size="10.00">c_wcf/value.cc</text>
</a>
</g>
</g>
<!-- Node14&#45;&gt;Node18 -->
<g id="edge18_Node000014_Node000018" class="edge">
<title>Node14&#45;&gt;Node18</title>
<g id="a_edge18_Node000014_Node000018"><a xlink:title=" ">
<path fill="none" stroke="#63b8ff" d="M1016.77,-50.37C1035.51,-40.63 1060.52,-27.64 1076.81,-19.17"/>
<polygon fill="#63b8ff" stroke="#63b8ff" points="1015.15,-47.27 1007.89,-54.98 1018.38,-53.48 1015.15,-47.27"/>
</a>
</g>
</g>
<!-- Node19 -->
<g id="Node000019" class="node">
<title>Node19</title>
<g id="a_Node000019"><a xlink:href="c__wcf_2view_8cc.html" target="_top" xlink:title=" ">
<polygon fill="white" stroke="#666666" points="1239,-19 1156,-19 1156,0 1239,0 1239,-19"/>
<text text-anchor="middle" x="1197.5" y="-7" font-family="Helvetica,sans-Serif" font-size="10.00">c_wcf/view.cc</text>
</a>
</g>
</g>
<!-- Node14&#45;&gt;Node19 -->
<g id="edge19_Node000014_Node000019" class="edge">
<title>Node14&#45;&gt;Node19</title>
<g id="a_edge19_Node000014_Node000019"><a xlink:title=" ">
<path fill="none" stroke="#63b8ff" d="M1034.5,-52.44C1073.06,-42.52 1128.86,-28.16 1164.14,-19.08"/>
<polygon fill="#63b8ff" stroke="#63b8ff" points="1033.41,-49.1 1024.6,-54.98 1035.15,-55.88 1033.41,-49.1"/>
</a>
</g>
</g>
</g>
</svg>
