<?xml version="1.0" encoding="UTF-8" standalone="no"?>
<!DOCTYPE svg PUBLIC "-//W3C//DTD SVG 1.1//EN"
 "http://www.w3.org/Graphics/SVG/1.1/DTD/svg11.dtd">
<!-- Generated by graphviz version 2.43.0 (0)
 -->
<!-- Title: include/webcface/canvas2d.h Pages: 1 -->
<svg width="1085pt" height="302pt"
 viewBox="0.00 0.00 1085.00 302.00" xmlns="http://www.w3.org/2000/svg" xmlns:xlink="http://www.w3.org/1999/xlink">
<g id="graph0" class="graph" transform="scale(1 1) rotate(0) translate(4 298)">
<title>include/webcface/canvas2d.h</title>
<!-- Node1 -->
<g id="Node000001" class="node">
<title>Node1</title>
<g id="a_Node000001"><a xlink:title=" ">
<polygon fill="#999999" stroke="#666666" points="597,-294 437,-294 437,-275 597,-275 597,-294"/>
<text text-anchor="middle" x="517" y="-282" font-family="Helvetica,sans-Serif" font-size="10.00">include/webcface/canvas2d.h</text>
</a>
</g>
</g>
<!-- Node2 -->
<g id="Node000002" class="node">
<title>Node2</title>
<g id="a_Node000002"><a xlink:title=" ">
<polygon fill="#e0e0e0" stroke="#999999" points="60,-239 0,-239 0,-220 60,-220 60,-239"/>
<text text-anchor="middle" x="30" y="-227" font-family="Helvetica,sans-Serif" font-size="10.00">concepts</text>
</a>
</g>
</g>
<!-- Node1&#45;&gt;Node2 -->
<g id="edge1_Node000001_Node000002" class="edge">
<title>Node1&#45;&gt;Node2</title>
<g id="a_edge1_Node000001_Node000002"><a xlink:title=" ">
<path fill="none" stroke="#63b8ff" d="M436.7,-277.64C347.75,-270.63 200.19,-257.49 74,-239 72.74,-238.82 71.47,-238.62 70.18,-238.42"/>
<polygon fill="#63b8ff" stroke="#63b8ff" points="70.68,-234.95 60.24,-236.71 69.5,-241.85 70.68,-234.95"/>
</a>
</g>
</g>
<!-- Node3 -->
<g id="Node000003" class="node">
<title>Node3</title>
<g id="a_Node000003"><a xlink:title=" ">
<polygon fill="#e0e0e0" stroke="#999999" points="715,-74 657,-74 657,-55 715,-55 715,-74"/>
<text text-anchor="middle" x="686" y="-62" font-family="Helvetica,sans-Serif" font-size="10.00">memory</text>
</a>
</g>
</g>
<!-- Node1&#45;&gt;Node3 -->
<g id="edge2_Node000001_Node000003" class="edge">
<title>Node1&#45;&gt;Node3</title>
<g id="a_edge2_Node000001_Node000003"><a xlink:title=" ">
<path fill="none" stroke="#63b8ff" d="M523.63,-274.95C548.86,-242.4 639.25,-125.81 673.09,-82.16"/>
<polygon fill="#63b8ff" stroke="#63b8ff" points="675.88,-84.27 679.24,-74.22 670.34,-79.98 675.88,-84.27"/>
</a>
</g>
</g>
<!-- Node4 -->
<g id="Node000004" class="node">
<title>Node4</title>
<g id="a_Node000004"><a xlink:href="def_8h.html" target="_top" xlink:title=" ">
<polygon fill="white" stroke="#666666" points="522,-19 436,-19 436,0 522,0 522,-19"/>
<text text-anchor="middle" x="479" y="-7" font-family="Helvetica,sans-Serif" font-size="10.00">common/def.h</text>
</a>
</g>
</g>
<!-- Node1&#45;&gt;Node4 -->
<g id="edge3_Node000001_Node000004" class="edge">
<title>Node1&#45;&gt;Node4</title>
<g id="a_edge3_Node000001_Node000004"><a xlink:title=" ">
<path fill="none" stroke="#63b8ff" d="M436.81,-279.61C312.64,-271.37 88,-246.64 88,-175.5 88,-175.5 88,-175.5 88,-118.5 88,-49.32 318.27,-22.72 425.38,-14.08"/>
<polygon fill="#63b8ff" stroke="#63b8ff" points="425.97,-17.55 435.66,-13.28 425.42,-10.57 425.97,-17.55"/>
</a>
</g>
</g>
<!-- Node5 -->
<g id="Node000005" class="node">
<title>Node5</title>
<g id="a_Node000005"><a xlink:href="common_2canvas2d_8h.html" target="_top" xlink:title=" ">
<polygon fill="white" stroke="#666666" points="386,-239 268,-239 268,-220 386,-220 386,-239"/>
<text text-anchor="middle" x="327" y="-227" font-family="Helvetica,sans-Serif" font-size="10.00">common/canvas2d.h</text>
</a>
</g>
</g>
<!-- Node1&#45;&gt;Node5 -->
<g id="edge4_Node000001_Node000005" class="edge">
<title>Node1&#45;&gt;Node5</title>
<g id="a_edge4_Node000001_Node000005"><a xlink:title=" ">
<path fill="none" stroke="#63b8ff" d="M486.47,-274.98C454.3,-266.01 403.44,-251.82 367.83,-241.89"/>
<polygon fill="#63b8ff" stroke="#63b8ff" points="368.34,-238.4 357.77,-239.08 366.46,-245.14 368.34,-238.4"/>
</a>
</g>
</g>
<!-- Node16 -->
<g id="Node000016" class="node">
<title>Node16</title>
<g id="a_Node000016"><a xlink:href="event__target_8h.html" target="_top" xlink:title=" ">
<polygon fill="white" stroke="#666666" points="863,-184 775,-184 775,-165 863,-165 863,-184"/>
<text text-anchor="middle" x="819" y="-172" font-family="Helvetica,sans-Serif" font-size="10.00">event_target.h</text>
</a>
</g>
</g>
<!-- Node1&#45;&gt;Node16 -->
<g id="edge27_Node000001_Node000016" class="edge">
<title>Node1&#45;&gt;Node16</title>
<g id="a_edge27_Node000001_Node000016"><a xlink:title=" ">
<path fill="none" stroke="#63b8ff" d="M597.03,-276.91C640.86,-271.03 695.2,-259.93 740,-239 765.02,-227.31 789.05,-206.09 803.91,-191.42"/>
<polygon fill="#63b8ff" stroke="#63b8ff" points="806.64,-193.62 811.16,-184.04 801.65,-188.71 806.64,-193.62"/>
</a>
</g>
</g>
<!-- Node19 -->
<g id="Node000019" class="node">
<title>Node19</title>
<g id="a_Node000019"><a xlink:href="field_8h.html" target="_top" xlink:title=" ">
<polygon fill="white" stroke="#666666" points="758.5,-129 711.5,-129 711.5,-110 758.5,-110 758.5,-129"/>
<text text-anchor="middle" x="735" y="-117" font-family="Helvetica,sans-Serif" font-size="10.00">field.h</text>
</a>
</g>
</g>
<!-- Node1&#45;&gt;Node19 -->
<g id="edge36_Node000001_Node000019" class="edge">
<title>Node1&#45;&gt;Node19</title>
<g id="a_edge36_Node000001_Node000019"><a xlink:title=" ">
<path fill="none" stroke="#63b8ff" d="M597.16,-278.43C628.97,-272.72 663.88,-261.34 689,-239 718.45,-212.81 729.2,-165.5 733,-139.28"/>
<polygon fill="#63b8ff" stroke="#63b8ff" points="736.5,-139.51 734.28,-129.16 729.56,-138.64 736.5,-139.51"/>
</a>
</g>
</g>
<!-- Node5&#45;&gt;Node4 -->
<g id="edge8_Node000005_Node000004" class="edge">
<title>Node5&#45;&gt;Node4</title>
<g id="a_edge8_Node000005_Node000004"><a xlink:title=" ">
<path fill="none" stroke="#63b8ff" d="M267.81,-221.44C241.03,-215.46 210.79,-204.41 190,-184 165.77,-160.21 155.75,-140.34 171,-110 189.41,-73.39 207.48,-71.47 245,-55 303.69,-29.25 377.07,-18.37 425.86,-13.79"/>
<polygon fill="#63b8ff" stroke="#63b8ff" points="426.22,-17.27 435.88,-12.9 425.61,-10.3 426.22,-17.27"/>
</a>
</g>
</g>
<!-- Node6 -->
<g id="Node000006" class="node">
<title>Node6</title>
<g id="a_Node000006"><a xlink:title=" ">
<polygon fill="#e0e0e0" stroke="#999999" points="239.5,-129 192.5,-129 192.5,-110 239.5,-110 239.5,-129"/>
<text text-anchor="middle" x="216" y="-117" font-family="Helvetica,sans-Serif" font-size="10.00">vector</text>
</a>
</g>
</g>
<!-- Node5&#45;&gt;Node6 -->
<g id="edge5_Node000005_Node000006" class="edge">
<title>Node5&#45;&gt;Node6</title>
<g id="a_edge5_Node000005_Node000006"><a xlink:title=" ">
<path fill="none" stroke="#63b8ff" d="M317.92,-219.66C299.12,-201.38 255.76,-159.18 232.1,-136.17"/>
<polygon fill="#63b8ff" stroke="#63b8ff" points="234.51,-133.62 224.9,-129.16 229.63,-138.64 234.51,-133.62"/>
</a>
</g>
</g>
<!-- Node7 -->
<g id="Node000007" class="node">
<title>Node7</title>
<g id="a_Node000007"><a xlink:title=" ">
<polygon fill="#e0e0e0" stroke="#999999" points="408,-74 352,-74 352,-55 408,-55 408,-74"/>
<text text-anchor="middle" x="380" y="-62" font-family="Helvetica,sans-Serif" font-size="10.00">optional</text>
</a>
</g>
</g>
<!-- Node5&#45;&gt;Node7 -->
<g id="edge6_Node000005_Node000007" class="edge">
<title>Node5&#45;&gt;Node7</title>
<g id="a_edge6_Node000005_Node000007"><a xlink:title=" ">
<path fill="none" stroke="#63b8ff" d="M299.65,-219.92C247.77,-202.26 143.58,-159.32 183,-110 192.92,-97.58 287.61,-80.43 342.02,-71.48"/>
<polygon fill="#63b8ff" stroke="#63b8ff" points="342.69,-74.92 352,-69.86 341.57,-68.01 342.69,-74.92"/>
</a>
</g>
</g>
<!-- Node8 -->
<g id="Node000008" class="node">
<title>Node8</title>
<g id="a_Node000008"><a xlink:title=" ">
<polygon fill="#e0e0e0" stroke="#999999" points="479.5,-184 414.5,-184 414.5,-165 479.5,-165 479.5,-184"/>
<text text-anchor="middle" x="447" y="-172" font-family="Helvetica,sans-Serif" font-size="10.00">stdexcept</text>
</a>
</g>
</g>
<!-- Node5&#45;&gt;Node8 -->
<g id="edge7_Node000005_Node000008" class="edge">
<title>Node5&#45;&gt;Node8</title>
<g id="a_edge7_Node000005_Node000008"><a xlink:title=" ">
<path fill="none" stroke="#63b8ff" d="M346.28,-219.98C365.67,-211.42 395.81,-198.11 418.07,-188.28"/>
<polygon fill="#63b8ff" stroke="#63b8ff" points="419.64,-191.41 427.37,-184.17 416.81,-185.01 419.64,-191.41"/>
</a>
</g>
</g>
<!-- Node9 -->
<g id="Node000009" class="node">
<title>Node9</title>
<g id="a_Node000009"><a xlink:href="transform_8h.html" target="_top" xlink:title=" ">
<polygon fill="white" stroke="#666666" points="332,-129 258,-129 258,-110 332,-110 332,-129"/>
<text text-anchor="middle" x="295" y="-117" font-family="Helvetica,sans-Serif" font-size="10.00">transform.h</text>
</a>
</g>
</g>
<!-- Node5&#45;&gt;Node9 -->
<g id="edge9_Node000005_Node000009" class="edge">
<title>Node5&#45;&gt;Node9</title>
<g id="a_edge9_Node000005_Node000009"><a xlink:title=" ">
<path fill="none" stroke="#63b8ff" d="M324.38,-219.66C319.18,-202.09 307.43,-162.45 300.47,-138.95"/>
<polygon fill="#63b8ff" stroke="#63b8ff" points="303.76,-137.75 297.57,-129.16 297.05,-139.74 303.76,-137.75"/>
</a>
</g>
</g>
<!-- Node11 -->
<g id="Node000011" class="node">
<title>Node11</title>
<g id="a_Node000011"><a xlink:href="common_2view_8h.html" target="_top" xlink:title=" ">
<polygon fill="white" stroke="#666666" points="586,-129 538,-129 538,-110 586,-110 586,-129"/>
<text text-anchor="middle" x="562" y="-117" font-family="Helvetica,sans-Serif" font-size="10.00">view.h</text>
</a>
</g>
</g>
<!-- Node5&#45;&gt;Node11 -->
<g id="edge12_Node000005_Node000011" class="edge">
<title>Node5&#45;&gt;Node11</title>
<g id="a_edge12_Node000005_Node000011"><a xlink:title=" ">
<path fill="none" stroke="#63b8ff" d="M379.95,-219.96C412.47,-213.26 454.21,-202 488,-184 510.98,-171.76 533.06,-151.3 547.03,-136.92"/>
<polygon fill="#63b8ff" stroke="#63b8ff" points="549.93,-138.94 554.26,-129.27 544.85,-134.14 549.93,-138.94"/>
</a>
</g>
</g>
<!-- Node14 -->
<g id="Node000014" class="node">
<title>Node14</title>
<g id="a_Node000014"><a xlink:href="common_2canvas3d_8h.html" target="_top" xlink:title=" ">
<polygon fill="white" stroke="#666666" points="396,-184 324,-184 324,-165 396,-165 396,-184"/>
<text text-anchor="middle" x="360" y="-172" font-family="Helvetica,sans-Serif" font-size="10.00">canvas3d.h</text>
</a>
</g>
</g>
<!-- Node5&#45;&gt;Node14 -->
<g id="edge19_Node000005_Node000014" class="edge">
<title>Node5&#45;&gt;Node14</title>
<g id="a_edge19_Node000005_Node000014"><a xlink:title=" ">
<path fill="none" stroke="#63b8ff" d="M332.45,-219.75C337.01,-212.42 343.67,-201.73 349.29,-192.7"/>
<polygon fill="#63b8ff" stroke="#63b8ff" points="352.34,-194.43 354.65,-184.09 346.4,-190.73 352.34,-194.43"/>
</a>
</g>
</g>
<!-- Node9&#45;&gt;Node4 -->
<g id="edge10_Node000009_Node000004" class="edge">
<title>Node9&#45;&gt;Node4</title>
<g id="a_edge10_Node000009_Node000004"><a xlink:title=" ">
<path fill="none" stroke="#63b8ff" d="M299.34,-109.76C306.56,-96.11 322.3,-69.77 343,-55 367.47,-37.53 399.21,-26.63 425.86,-20"/>
<polygon fill="#63b8ff" stroke="#63b8ff" points="426.87,-23.36 435.81,-17.66 425.27,-16.54 426.87,-23.36"/>
</a>
</g>
</g>
<!-- Node10 -->
<g id="Node000010" class="node">
<title>Node10</title>
<g id="a_Node000010"><a xlink:title=" ">
<polygon fill="#e0e0e0" stroke="#999999" points="296,-74 254,-74 254,-55 296,-55 296,-74"/>
<text text-anchor="middle" x="275" y="-62" font-family="Helvetica,sans-Serif" font-size="10.00">array</text>
</a>
</g>
</g>
<!-- Node9&#45;&gt;Node10 -->
<g id="edge11_Node000009_Node000010" class="edge">
<title>Node9&#45;&gt;Node10</title>
<g id="a_edge11_Node000009_Node000010"><a xlink:title=" ">
<path fill="none" stroke="#63b8ff" d="M291.7,-109.75C289.02,-102.65 285.15,-92.4 281.81,-83.56"/>
<polygon fill="#63b8ff" stroke="#63b8ff" points="285.05,-82.21 278.24,-74.09 278.5,-84.68 285.05,-82.21"/>
</a>
</g>
</g>
<!-- Node11&#45;&gt;Node4 -->
<g id="edge18_Node000011_Node000004" class="edge">
<title>Node11&#45;&gt;Node4</title>
<g id="a_edge18_Node000011_Node000004"><a xlink:title=" ">
<path fill="none" stroke="#63b8ff" d="M555.21,-109.66C541.4,-91.69 509.85,-50.64 491.98,-27.38"/>
<polygon fill="#63b8ff" stroke="#63b8ff" points="494.52,-24.95 485.65,-19.16 488.97,-29.22 494.52,-24.95"/>
</a>
</g>
</g>
<!-- Node11&#45;&gt;Node7 -->
<g id="edge14_Node000011_Node000007" class="edge">
<title>Node11&#45;&gt;Node7</title>
<g id="a_edge14_Node000011_Node000007"><a xlink:title=" ">
<path fill="none" stroke="#63b8ff" d="M537.83,-111.46C507.16,-102.53 453.92,-87.03 417.84,-76.52"/>
<polygon fill="#63b8ff" stroke="#63b8ff" points="418.74,-73.13 408.16,-73.7 416.78,-79.86 418.74,-73.13"/>
</a>
</g>
</g>
<!-- Node12 -->
<g id="Node000012" class="node">
<title>Node12</title>
<g id="a_Node000012"><a xlink:title=" ">
<polygon fill="#e0e0e0" stroke="#999999" points="624,-19 580,-19 580,0 624,0 624,-19"/>
<text text-anchor="middle" x="602" y="-7" font-family="Helvetica,sans-Serif" font-size="10.00">string</text>
</a>
</g>
</g>
<!-- Node11&#45;&gt;Node12 -->
<g id="edge13_Node000011_Node000012" class="edge">
<title>Node11&#45;&gt;Node12</title>
<g id="a_edge13_Node000011_Node000012"><a xlink:title=" ">
<path fill="none" stroke="#63b8ff" d="M558.43,-109.88C553.78,-97.28 547.11,-73.34 555,-55 560.15,-43.03 570.29,-32.76 579.83,-25.12"/>
<polygon fill="#63b8ff" stroke="#63b8ff" points="581.99,-27.88 587.93,-19.11 577.81,-22.26 581.99,-27.88"/>
</a>
</g>
</g>
<!-- Node13 -->
<g id="Node000013" class="node">
<title>Node13</title>
<g id="a_Node000013"><a xlink:href="field__base_8h.html" target="_top" xlink:title=" ">
<polygon fill="white" stroke="#666666" points="639.5,-74 564.5,-74 564.5,-55 639.5,-55 639.5,-74"/>
<text text-anchor="middle" x="602" y="-62" font-family="Helvetica,sans-Serif" font-size="10.00">field_base.h</text>
</a>
</g>
</g>
<!-- Node11&#45;&gt;Node13 -->
<g id="edge15_Node000011_Node000013" class="edge">
<title>Node11&#45;&gt;Node13</title>
<g id="a_edge15_Node000011_Node000013"><a xlink:title=" ">
<path fill="none" stroke="#63b8ff" d="M568.61,-109.75C574.26,-102.26 582.54,-91.28 589.45,-82.13"/>
<polygon fill="#63b8ff" stroke="#63b8ff" points="592.29,-84.18 595.52,-74.09 586.7,-79.96 592.29,-84.18"/>
</a>
</g>
</g>
<!-- Node13&#45;&gt;Node4 -->
<g id="edge17_Node000013_Node000004" class="edge">
<title>Node13&#45;&gt;Node4</title>
<g id="a_edge17_Node000013_Node000004"><a xlink:title=" ">
<path fill="none" stroke="#63b8ff" d="M582.24,-54.98C562.27,-46.38 531.2,-32.99 508.35,-23.15"/>
<polygon fill="#63b8ff" stroke="#63b8ff" points="509.69,-19.91 499.12,-19.17 506.92,-26.34 509.69,-19.91"/>
</a>
</g>
</g>
<!-- Node13&#45;&gt;Node12 -->
<g id="edge16_Node000013_Node000012" class="edge">
<title>Node13&#45;&gt;Node12</title>
<g id="a_edge16_Node000013_Node000012"><a xlink:title=" ">
<path fill="none" stroke="#63b8ff" d="M602,-54.75C602,-47.8 602,-37.85 602,-29.13"/>
<polygon fill="#63b8ff" stroke="#63b8ff" points="605.5,-29.09 602,-19.09 598.5,-29.09 605.5,-29.09"/>
</a>
</g>
</g>
<!-- Node14&#45;&gt;Node4 -->
<g id="edge20_Node000014_Node000004" class="edge">
<title>Node14&#45;&gt;Node4</title>
<g id="a_edge20_Node000014_Node000004"><a xlink:title=" ">
<path fill="none" stroke="#63b8ff" d="M396.13,-166.04C430.6,-158.11 478.87,-144.58 490,-129 511.34,-99.14 497.77,-53.67 487.46,-28.62"/>
<polygon fill="#63b8ff" stroke="#63b8ff" points="490.57,-27 483.36,-19.25 484.16,-29.81 490.57,-27"/>
</a>
</g>
</g>
<!-- Node14&#45;&gt;Node6 -->
<g id="edge24_Node000014_Node000006" class="edge">
<title>Node14&#45;&gt;Node6</title>
<g id="a_edge24_Node000014_Node000006"><a xlink:title=" ">
<path fill="none" stroke="#63b8ff" d="M336.86,-164.98C313.18,-156.27 276.13,-142.63 249.29,-132.75"/>
<polygon fill="#63b8ff" stroke="#63b8ff" points="250.15,-129.34 239.56,-129.17 247.73,-135.91 250.15,-129.34"/>
</a>
</g>
</g>
<!-- Node14&#45;&gt;Node7 -->
<g id="edge25_Node000014_Node000007" class="edge">
<title>Node14&#45;&gt;Node7</title>
<g id="a_edge25_Node000014_Node000007"><a xlink:title=" ">
<path fill="none" stroke="#63b8ff" d="M361.64,-164.66C364.88,-147.17 372.17,-107.8 376.52,-84.27"/>
<polygon fill="#63b8ff" stroke="#63b8ff" points="380.02,-84.63 378.4,-74.16 373.13,-83.35 380.02,-84.63"/>
</a>
</g>
</g>
<!-- Node14&#45;&gt;Node9 -->
<g id="edge21_Node000014_Node000009" class="edge">
<title>Node14&#45;&gt;Node9</title>
<g id="a_edge21_Node000014_Node000009"><a xlink:title=" ">
<path fill="none" stroke="#63b8ff" d="M349.56,-164.98C339.85,-157.07 325.18,-145.11 313.5,-135.58"/>
<polygon fill="#63b8ff" stroke="#63b8ff" points="315.6,-132.78 305.63,-129.17 311.17,-138.2 315.6,-132.78"/>
</a>
</g>
</g>
<!-- Node14&#45;&gt;Node11 -->
<g id="edge23_Node000014_Node000011" class="edge">
<title>Node14&#45;&gt;Node11</title>
<g id="a_edge23_Node000014_Node000011"><a xlink:title=" ">
<path fill="none" stroke="#63b8ff" d="M392.45,-164.98C429.56,-155.25 490.04,-139.38 527.84,-129.46"/>
<polygon fill="#63b8ff" stroke="#63b8ff" points="529.08,-132.76 537.87,-126.83 527.31,-125.98 529.08,-132.76"/>
</a>
</g>
</g>
<!-- Node14&#45;&gt;Node13 -->
<g id="edge22_Node000014_Node000013" class="edge">
<title>Node14&#45;&gt;Node13</title>
<g id="a_edge22_Node000014_Node000013"><a xlink:title=" ">
<path fill="none" stroke="#63b8ff" d="M396.18,-166.67C462.07,-154.22 594.89,-129.11 595,-129 605.94,-117.18 606.72,-98.34 605.35,-84.25"/>
<polygon fill="#63b8ff" stroke="#63b8ff" points="608.79,-83.61 603.94,-74.19 601.86,-84.58 608.79,-83.61"/>
</a>
</g>
</g>
<!-- Node15 -->
<g id="Node000015" class="node">
<title>Node15</title>
<g id="a_Node000015"><a xlink:title=" ">
<polygon fill="#e0e0e0" stroke="#999999" points="481.5,-129 388.5,-129 388.5,-110 481.5,-110 481.5,-129"/>
<text text-anchor="middle" x="435" y="-117" font-family="Helvetica,sans-Serif" font-size="10.00">unordered_map</text>
</a>
</g>
</g>
<!-- Node14&#45;&gt;Node15 -->
<g id="edge26_Node000014_Node000015" class="edge">
<title>Node14&#45;&gt;Node15</title>
<g id="a_edge26_Node000014_Node000015"><a xlink:title=" ">
<path fill="none" stroke="#63b8ff" d="M372.05,-164.98C383.46,-156.92 400.83,-144.65 414.43,-135.03"/>
<polygon fill="#63b8ff" stroke="#63b8ff" points="416.58,-137.8 422.73,-129.17 412.54,-132.08 416.58,-137.8"/>
</a>
</g>
</g>
<!-- Node16&#45;&gt;Node4 -->
<g id="edge35_Node000016_Node000004" class="edge">
<title>Node16&#45;&gt;Node4</title>
<g id="a_edge35_Node000016_Node000004"><a xlink:title=" ">
<path fill="none" stroke="#63b8ff" d="M816.24,-164.88C808.62,-142.57 785.01,-82.75 743,-55 725.72,-43.58 604.53,-26.49 532.5,-17.16"/>
<polygon fill="#63b8ff" stroke="#63b8ff" points="532.61,-13.65 522.25,-15.85 531.72,-20.59 532.61,-13.65"/>
</a>
</g>
</g>
<!-- Node17 -->
<g id="Node000017" class="node">
<title>Node17</title>
<g id="a_Node000017"><a xlink:title=" ">
<polygon fill="#e0e0e0" stroke="#999999" points="912.5,-129 847.5,-129 847.5,-110 912.5,-110 912.5,-129"/>
<text text-anchor="middle" x="880" y="-117" font-family="Helvetica,sans-Serif" font-size="10.00">functional</text>
</a>
</g>
</g>
<!-- Node16&#45;&gt;Node17 -->
<g id="edge28_Node000016_Node000017" class="edge">
<title>Node16&#45;&gt;Node17</title>
<g id="a_edge28_Node000016_Node000017"><a xlink:title=" ">
<path fill="none" stroke="#63b8ff" d="M828.8,-164.98C837.82,-157.15 851.41,-145.34 862.32,-135.86"/>
<polygon fill="#63b8ff" stroke="#63b8ff" points="864.77,-138.37 870.02,-129.17 860.18,-133.09 864.77,-138.37"/>
</a>
</g>
</g>
<!-- Node18 -->
<g id="Node000018" class="node">
<title>Node18</title>
<g id="a_Node000018"><a xlink:title=" ">
<polygon fill="#e0e0e0" stroke="#999999" points="1077,-129 931,-129 931,-110 1077,-110 1077,-129"/>
<text text-anchor="middle" x="1004" y="-117" font-family="Helvetica,sans-Serif" font-size="10.00">eventpp/eventdispatcher.h</text>
</a>
</g>
</g>
<!-- Node16&#45;&gt;Node18 -->
<g id="edge29_Node000016_Node000018" class="edge">
<title>Node16&#45;&gt;Node18</title>
<g id="a_edge29_Node000016_Node000018"><a xlink:title=" ">
<path fill="none" stroke="#63b8ff" d="M848.72,-164.98C880.05,-156.01 929.57,-141.82 964.24,-131.89"/>
<polygon fill="#63b8ff" stroke="#63b8ff" points="965.39,-135.2 974.04,-129.08 963.47,-128.47 965.39,-135.2"/>
</a>
</g>
</g>
<!-- Node16&#45;&gt;Node19 -->
<g id="edge30_Node000016_Node000019" class="edge">
<title>Node16&#45;&gt;Node19</title>
<g id="a_edge30_Node000016_Node000019"><a xlink:title=" ">
<path fill="none" stroke="#63b8ff" d="M805.5,-164.98C792.6,-156.84 772.9,-144.41 757.6,-134.76"/>
<polygon fill="#63b8ff" stroke="#63b8ff" points="759.07,-131.55 748.74,-129.17 755.33,-137.47 759.07,-131.55"/>
</a>
</g>
</g>
<!-- Node19&#45;&gt;Node3 -->
<g id="edge31_Node000019_Node000003" class="edge">
<title>Node19&#45;&gt;Node3</title>
<g id="a_edge31_Node000019_Node000003"><a xlink:title=" ">
<path fill="none" stroke="#63b8ff" d="M726.91,-109.75C719.84,-102.11 709.41,-90.82 700.85,-81.56"/>
<polygon fill="#63b8ff" stroke="#63b8ff" points="703.3,-79.06 693.94,-74.09 698.16,-83.81 703.3,-79.06"/>
</a>
</g>
</g>
<!-- Node19&#45;&gt;Node4 -->
<g id="edge34_Node000019_Node000004" class="edge">
<title>Node19&#45;&gt;Node4</title>
<g id="a_edge34_Node000019_Node000004"><a xlink:title=" ">
<path fill="none" stroke="#63b8ff" d="M736.32,-109.73C737.84,-96.03 738.5,-69.62 724,-55 710.63,-41.52 600.17,-25.58 532.21,-16.9"/>
<polygon fill="#63b8ff" stroke="#63b8ff" points="532.46,-13.41 522.1,-15.63 531.59,-20.35 532.46,-13.41"/>
</a>
</g>
</g>
<!-- Node19&#45;&gt;Node12 -->
<g id="edge32_Node000019_Node000012" class="edge">
<title>Node19&#45;&gt;Node12</title>
<g id="a_edge32_Node000019_Node000012"><a xlink:title=" ">
<path fill="none" stroke="#63b8ff" d="M742.65,-109.9C753.27,-96.9 769.78,-71.96 757,-55 742.24,-35.41 675.05,-21.78 634.13,-15.14"/>
<polygon fill="#63b8ff" stroke="#63b8ff" points="634.52,-11.66 624.1,-13.57 633.43,-18.57 634.52,-11.66"/>
</a>
</g>
</g>
<!-- Node19&#45;&gt;Node13 -->
<g id="edge33_Node000019_Node000013" class="edge">
<title>Node19&#45;&gt;Node13</title>
<g id="a_edge33_Node000019_Node000013"><a xlink:title=" ">
<path fill="none" stroke="#63b8ff" d="M713.63,-109.98C691.85,-101.3 657.84,-87.75 633.08,-77.88"/>
<polygon fill="#63b8ff" stroke="#63b8ff" points="634.34,-74.62 623.76,-74.17 631.75,-81.12 634.34,-74.62"/>
</a>
</g>
</g>
</g>
</svg>
