<?xml version="1.0" encoding="UTF-8" standalone="no"?>
<!DOCTYPE svg PUBLIC "-//W3C//DTD SVG 1.1//EN"
 "http://www.w3.org/Graphics/SVG/1.1/DTD/svg11.dtd">
<!-- Generated by graphviz version 2.43.0 (0)
 -->
<!-- Title: BasicLoggerBuf&lt; CharT &gt; Pages: 1 -->
<svg width="1236pt" height="754pt"
 viewBox="0.00 0.00 1236.00 753.90" xmlns="http://www.w3.org/2000/svg" xmlns:xlink="http://www.w3.org/1999/xlink">
<g id="graph0" class="graph" transform="scale(1 1) rotate(0) translate(4 749.9)">
<title>BasicLoggerBuf&lt; CharT &gt;</title>
<!-- Node1 -->
<g id="Node000001" class="node">
<title>Node1</title>
<g id="a_Node000001"><a xlink:title=" ">
<polygon fill="#999999" stroke="#666666" points="1228,-417.4 1085,-417.4 1085,-398.4 1228,-398.4 1228,-417.4"/>
<text text-anchor="middle" x="1156.5" y="-405.4" font-family="Helvetica,sans-Serif" font-size="10.00">BasicLoggerBuf&lt; CharT &gt;</text>
</a>
</g>
</g>
<!-- Node2 -->
<g id="Node000002" class="node">
<title>Node2</title>
<g id="a_Node000002"><a xlink:title=" ">
<polygon fill="white" stroke="#666666" points="1012,-435.4 863,-435.4 863,-416.4 1012,-416.4 1012,-435.4"/>
<text text-anchor="middle" x="937.5" y="-423.4" font-family="Helvetica,sans-Serif" font-size="10.00">basic_streambuf&lt; CharT &gt;</text>
</a>
</g>
</g>
<!-- Node2&#45;&gt;Node1 -->
<g id="edge1_Node000001_Node000002" class="edge">
<title>Node2&#45;&gt;Node1</title>
<g id="a_edge1_Node000001_Node000002"><a xlink:title=" ">
<path fill="none" stroke="#63b8ff" d="M1022.3,-418.95C1042.97,-417.23 1064.9,-415.41 1084.87,-413.76"/>
<polygon fill="#63b8ff" stroke="#63b8ff" points="1021.95,-415.46 1012.27,-419.78 1022.52,-422.44 1021.95,-415.46"/>
</a>
</g>
</g>
<!-- Node3 -->
<g id="Node000003" class="node">
<title>Node3</title>
<g id="a_Node000003"><a xlink:href="structwebcface_1_1internal_1_1ClientData.html" target="_top" xlink:title=" ">
<polygon fill="white" stroke="#666666" points="971.5,-398.4 903.5,-398.4 903.5,-379.4 971.5,-379.4 971.5,-398.4"/>
<text text-anchor="middle" x="937.5" y="-386.4" font-family="Helvetica,sans-Serif" font-size="10.00">ClientData</text>
</a>
</g>
</g>
<!-- Node3&#45;&gt;Node1 -->
<g id="edge2_Node000001_Node000003" class="edge">
<title>Node3&#45;&gt;Node1</title>
<g id="a_edge2_Node000001_Node000003"><a xlink:title=" ">
<path fill="none" stroke="#9a32cd" stroke-dasharray="5,2" d="M981.74,-392.55C1006.67,-394.67 1038.6,-397.4 1067,-399.9 1072.84,-400.41 1078.9,-400.95 1084.98,-401.49"/>
<polygon fill="#9a32cd" stroke="#9a32cd" points="981.78,-389.04 971.52,-391.68 981.18,-396.01 981.78,-389.04"/>
</a>
</g>
<text text-anchor="middle" x="1048.5" y="-402.9" font-family="Helvetica,sans-Serif" font-size="10.00" fill="grey"> data_p</text>
</g>
<!-- Node4 -->
<g id="Node000004" class="node">
<title>Node4</title>
<g id="a_Node000004"><a xlink:title=" ">
<polygon fill="white" stroke="#666666" points="695,-745.9 579,-745.9 579,-715.9 695,-715.9 695,-745.9"/>
<text text-anchor="start" x="587" y="-733.9" font-family="Helvetica,sans-Serif" font-size="10.00">enable_shared_from</text>
<text text-anchor="middle" x="637" y="-722.9" font-family="Helvetica,sans-Serif" font-size="10.00">_this&lt; ClientData &gt;</text>
</a>
</g>
</g>
<!-- Node4&#45;&gt;Node3 -->
<g id="edge3_Node000003_Node000004" class="edge">
<title>Node4&#45;&gt;Node3</title>
<g id="a_edge3_Node000003_Node000004"><a xlink:title=" ">
<path fill="none" stroke="#63b8ff" d="M705.36,-741.38C751.51,-744.4 810.41,-739.3 845,-701.9 889.44,-653.84 821.36,-458.4 863,-407.9 872.73,-396.1 888.73,-391.09 903.32,-389.15"/>
<polygon fill="#63b8ff" stroke="#63b8ff" points="705.37,-737.87 695.13,-740.57 704.82,-744.85 705.37,-737.87"/>
</a>
</g>
</g>
<!-- Node5 -->
<g id="Node000005" class="node">
<title>Node5</title>
<g id="a_Node000005"><a xlink:href="classwebcface_1_1encoding_1_1SharedString.html" target="_top" xlink:title="u8stringとstringとwstringをshared_ptrで持ち共有する">
<polygon fill="white" stroke="#666666" points="79,-333.4 0,-333.4 0,-314.4 79,-314.4 79,-333.4"/>
<text text-anchor="middle" x="39.5" y="-321.4" font-family="Helvetica,sans-Serif" font-size="10.00">SharedString</text>
</a>
</g>
</g>
<!-- Node5&#45;&gt;Node3 -->
<g id="edge4_Node000003_Node000005" class="edge">
<title>Node5&#45;&gt;Node3</title>
<g id="a_edge4_Node000003_Node000005"><a xlink:title=" ">
<path fill="none" stroke="#9a32cd" stroke-dasharray="5,2" d="M42.61,-343.7C48.68,-397.66 67.68,-545.78 97,-583.9 133.23,-631.01 158.23,-630.95 216,-644.9 352.3,-677.8 748.49,-696.61 845,-594.9 873.74,-564.61 835.89,-439.64 863,-407.9 872.84,-396.37 888.68,-391.37 903.13,-389.35"/>
<polygon fill="#9a32cd" stroke="#9a32cd" points="46.05,-342.99 41.48,-333.43 39.09,-343.75 46.05,-342.99"/>
</a>
</g>
<text text-anchor="middle" x="440.5" y="-684.9" font-family="Helvetica,sans-Serif" font-size="10.00" fill="grey"> host</text>
<text text-anchor="middle" x="440.5" y="-673.9" font-family="Helvetica,sans-Serif" font-size="10.00" fill="grey">self_member_name</text>
</g>
<!-- Node6 -->
<g id="Node000006" class="node">
<title>Node6</title>
<g id="a_Node000006"><a xlink:href="classwebcface_1_1internal_1_1SyncDataStore2.html" target="_top" xlink:title=" ">
<polygon fill="white" stroke="#666666" points="720.5,-483.4 553.5,-483.4 553.5,-464.4 720.5,-464.4 720.5,-483.4"/>
<text text-anchor="middle" x="637" y="-471.4" font-family="Helvetica,sans-Serif" font-size="10.00">SyncDataStore2&lt; ValueData &gt;</text>
</a>
</g>
</g>
<!-- Node5&#45;&gt;Node6 -->
<g id="edge6_Node000006_Node000005" class="edge">
<title>Node5&#45;&gt;Node6</title>
<g id="a_edge6_Node000006_Node000005"><a xlink:title=" ">
<path fill="none" stroke="#9a32cd" stroke-dasharray="5,2" d="M47.66,-342.94C56.56,-364.63 73.5,-400.14 97,-423.9 186.1,-514 231.98,-520.2 357,-540.9 430.23,-553.02 459.41,-577.47 524,-540.9 537.53,-533.24 530.13,-520.95 542,-510.9 557.26,-497.98 577.57,-489.23 595.4,-483.49"/>
<polygon fill="#9a32cd" stroke="#9a32cd" points="50.86,-341.53 43.94,-333.52 44.35,-344.1 50.86,-341.53"/>
</a>
</g>
<text text-anchor="middle" x="277.5" y="-539.9" font-family="Helvetica,sans-Serif" font-size="10.00" fill="grey"> self_member_name</text>
</g>
<!-- Node7 -->
<g id="Node000007" class="node">
<title>Node7</title>
<g id="a_Node000007"><a xlink:href="classwebcface_1_1internal_1_1SyncDataStore2.html" target="_top" xlink:title="送受信するデータを保持するクラス">
<polygon fill="white" stroke="#666666" points="335,-405.9 220,-405.9 220,-375.9 335,-375.9 335,-405.9"/>
<text text-anchor="start" x="228" y="-393.9" font-family="Helvetica,sans-Serif" font-size="10.00">SyncDataStore2&lt; T,</text>
<text text-anchor="middle" x="277.5" y="-382.9" font-family="Helvetica,sans-Serif" font-size="10.00"> ReqT &gt;</text>
</a>
</g>
</g>
<!-- Node5&#45;&gt;Node7 -->
<g id="edge8_Node000007_Node000005" class="edge">
<title>Node5&#45;&gt;Node7</title>
<g id="a_edge8_Node000007_Node000005"><a xlink:title=" ">
<path fill="none" stroke="#9a32cd" stroke-dasharray="5,2" d="M83.89,-336.22C123.24,-347.39 181.37,-363.89 223.47,-375.84"/>
<polygon fill="#9a32cd" stroke="#9a32cd" points="84.64,-332.79 74.06,-333.43 82.73,-339.52 84.64,-332.79"/>
</a>
</g>
<text text-anchor="middle" x="147.5" y="-369.9" font-family="Helvetica,sans-Serif" font-size="10.00" fill="grey"> self_member_name</text>
</g>
<!-- Node8 -->
<g id="Node000008" class="node">
<title>Node8</title>
<g id="a_Node000008"><a xlink:href="classwebcface_1_1internal_1_1SyncDataStore2.html" target="_top" xlink:title=" ">
<polygon fill="white" stroke="#666666" points="717.5,-446.4 556.5,-446.4 556.5,-427.4 717.5,-427.4 717.5,-446.4"/>
<text text-anchor="middle" x="637" y="-434.4" font-family="Helvetica,sans-Serif" font-size="10.00">SyncDataStore2&lt; TextData &gt;</text>
</a>
</g>
</g>
<!-- Node5&#45;&gt;Node8 -->
<g id="edge10_Node000008_Node000005" class="edge">
<title>Node5&#45;&gt;Node8</title>
<g id="a_edge10_Node000008_Node000005"><a xlink:title=" ">
<path fill="none" stroke="#9a32cd" stroke-dasharray="5,2" d="M54.36,-341.79C64.91,-354.41 80.41,-370.96 97,-381.9 200.37,-450.04 235.27,-459.3 357,-481.9 429.97,-495.45 458.26,-516.35 524,-481.9 536.45,-475.38 530.26,-463.63 542,-455.9 547.84,-452.05 554.29,-448.96 561,-446.47"/>
<polygon fill="#9a32cd" stroke="#9a32cd" points="56.9,-339.37 47.89,-333.79 51.46,-343.77 56.9,-339.37"/>
</a>
</g>
<text text-anchor="middle" x="277.5" y="-480.9" font-family="Helvetica,sans-Serif" font-size="10.00" fill="grey"> self_member_name</text>
</g>
<!-- Node9 -->
<g id="Node000009" class="node">
<title>Node9</title>
<g id="a_Node000009"><a xlink:href="classwebcface_1_1internal_1_1SyncDataStore2.html" target="_top" xlink:title=" ">
<polygon fill="white" stroke="#666666" points="718.5,-597.4 555.5,-597.4 555.5,-578.4 718.5,-578.4 718.5,-597.4"/>
<text text-anchor="middle" x="637" y="-585.4" font-family="Helvetica,sans-Serif" font-size="10.00">SyncDataStore2&lt; FuncData &gt;</text>
</a>
</g>
</g>
<!-- Node5&#45;&gt;Node9 -->
<g id="edge13_Node000009_Node000005" class="edge">
<title>Node5&#45;&gt;Node9</title>
<g id="a_edge13_Node000009_Node000005"><a xlink:title=" ">
<path fill="none" stroke="#9a32cd" stroke-dasharray="5,2" d="M42.38,-344.01C46.68,-381.77 59.94,-464.7 97,-522.9 134.57,-581.9 150.72,-600.78 216,-625.9 232.62,-632.29 518.54,-629.87 524,-628.9 557.64,-622.93 594.44,-607.63 616.36,-597.5"/>
<polygon fill="#9a32cd" stroke="#9a32cd" points="45.83,-343.4 41.31,-333.82 38.87,-344.13 45.83,-343.4"/>
</a>
</g>
<text text-anchor="middle" x="277.5" y="-632.9" font-family="Helvetica,sans-Serif" font-size="10.00" fill="grey"> self_member_name</text>
</g>
<!-- Node10 -->
<g id="Node000010" class="node">
<title>Node10</title>
<g id="a_Node000010"><a xlink:href="classwebcface_1_1internal_1_1SyncDataStore2.html" target="_top" xlink:title=" ">
<polygon fill="white" stroke="#666666" points="719,-538.4 555,-538.4 555,-519.4 719,-519.4 719,-538.4"/>
<text text-anchor="middle" x="637" y="-526.4" font-family="Helvetica,sans-Serif" font-size="10.00">SyncDataStore2&lt; ViewData &gt;</text>
</a>
</g>
</g>
<!-- Node5&#45;&gt;Node10 -->
<g id="edge16_Node000010_Node000005" class="edge">
<title>Node5&#45;&gt;Node10</title>
<g id="a_edge16_Node000010_Node000005"><a xlink:title=" ">
<path fill="none" stroke="#9a32cd" stroke-dasharray="5,2" d="M43.64,-343.46C49.45,-374.46 64.4,-435.51 97,-475.9 136.42,-524.73 159.44,-524.7 216,-551.9 340.85,-611.94 403.44,-668.16 524,-599.9 537.53,-592.24 530.32,-580.16 542,-569.9 558.85,-555.09 581.89,-544.93 600.94,-538.42"/>
<polygon fill="#9a32cd" stroke="#9a32cd" points="47.06,-342.74 41.89,-333.49 40.17,-343.94 47.06,-342.74"/>
</a>
</g>
<text text-anchor="middle" x="277.5" y="-613.9" font-family="Helvetica,sans-Serif" font-size="10.00" fill="grey"> self_member_name</text>
</g>
<!-- Node11 -->
<g id="Node000011" class="node">
<title>Node11</title>
<g id="a_Node000011"><a xlink:href="classwebcface_1_1internal_1_1SyncDataStore2.html" target="_top" xlink:title=" ">
<polygon fill="white" stroke="#666666" points="713,-409.4 561,-409.4 561,-368.4 713,-368.4 713,-409.4"/>
<text text-anchor="start" x="569" y="-397.4" font-family="Helvetica,sans-Serif" font-size="10.00">SyncDataStore2&lt; webcface</text>
<text text-anchor="start" x="569" y="-386.4" font-family="Helvetica,sans-Serif" font-size="10.00">::ImageFrame, webcface</text>
<text text-anchor="middle" x="637" y="-375.4" font-family="Helvetica,sans-Serif" font-size="10.00">::message::ImageReq &gt;</text>
</a>
</g>
</g>
<!-- Node5&#45;&gt;Node11 -->
<g id="edge19_Node000011_Node000005" class="edge">
<title>Node5&#45;&gt;Node11</title>
<g id="a_edge19_Node000011_Node000005"><a xlink:title=" ">
<path fill="none" stroke="#9a32cd" stroke-dasharray="5,2" d="M89.17,-321.99C195.6,-318.45 445.77,-313.73 524,-343.9 533.72,-347.64 532.87,-353.89 542,-358.9 548.31,-362.36 555.08,-365.49 561.98,-368.31"/>
<polygon fill="#9a32cd" stroke="#9a32cd" points="88.9,-318.5 79.02,-322.34 89.14,-325.49 88.9,-318.5"/>
</a>
</g>
<text text-anchor="middle" x="277.5" y="-322.9" font-family="Helvetica,sans-Serif" font-size="10.00" fill="grey"> self_member_name</text>
</g>
<!-- Node12 -->
<g id="Node000012" class="node">
<title>Node12</title>
<g id="a_Node000012"><a xlink:href="classwebcface_1_1internal_1_1SyncDataStore2.html" target="_top" xlink:title=" ">
<polygon fill="white" stroke="#666666" points="719,-349.9 555,-349.9 555,-319.9 719,-319.9 719,-349.9"/>
<text text-anchor="start" x="563" y="-337.9" font-family="Helvetica,sans-Serif" font-size="10.00">SyncDataStore2&lt; RobotModel</text>
<text text-anchor="middle" x="637" y="-326.9" font-family="Helvetica,sans-Serif" font-size="10.00">Data &gt;</text>
</a>
</g>
</g>
<!-- Node5&#45;&gt;Node12 -->
<g id="edge22_Node000012_Node000005" class="edge">
<title>Node5&#45;&gt;Node12</title>
<g id="a_edge22_Node000012_Node000005"><a xlink:title=" ">
<path fill="none" stroke="#9a32cd" stroke-dasharray="5,2" d="M75.65,-311.04C158.04,-283.08 368.39,-224.47 524,-291.9 534.67,-296.52 531.97,-305.01 542,-310.9 547.81,-314.31 554.1,-317.24 560.57,-319.76"/>
<polygon fill="#9a32cd" stroke="#9a32cd" points="74.33,-307.79 66.02,-314.37 76.62,-314.41 74.33,-307.79"/>
</a>
</g>
<text text-anchor="middle" x="277.5" y="-275.9" font-family="Helvetica,sans-Serif" font-size="10.00" fill="grey"> self_member_name</text>
</g>
<!-- Node13 -->
<g id="Node000013" class="node">
<title>Node13</title>
<g id="a_Node000013"><a xlink:href="classwebcface_1_1internal_1_1SyncDataStore2.html" target="_top" xlink:title=" ">
<polygon fill="white" stroke="#666666" points="732,-301.4 542,-301.4 542,-282.4 732,-282.4 732,-301.4"/>
<text text-anchor="middle" x="637" y="-289.4" font-family="Helvetica,sans-Serif" font-size="10.00">SyncDataStore2&lt; Canvas3DData &gt;</text>
</a>
</g>
</g>
<!-- Node5&#45;&gt;Node13 -->
<g id="edge25_Node000013_Node000005" class="edge">
<title>Node5&#45;&gt;Node13</title>
<g id="a_edge25_Node000013_Node000005"><a xlink:title=" ">
<path fill="none" stroke="#9a32cd" stroke-dasharray="5,2" d="M55.49,-306.83C66.05,-295.85 81.09,-282.14 97,-273.9 181.82,-229.98 441.87,-176.14 524,-224.9 538.37,-233.43 529.32,-247.02 542,-257.9 555.43,-269.43 573.08,-277.17 589.46,-282.31"/>
<polygon fill="#9a32cd" stroke="#9a32cd" points="52.87,-304.51 48.65,-314.23 58.01,-309.26 52.87,-304.51"/>
</a>
</g>
<text text-anchor="middle" x="277.5" y="-235.9" font-family="Helvetica,sans-Serif" font-size="10.00" fill="grey"> self_member_name</text>
</g>
<!-- Node14 -->
<g id="Node000014" class="node">
<title>Node14</title>
<g id="a_Node000014"><a xlink:href="classwebcface_1_1internal_1_1SyncDataStore2.html" target="_top" xlink:title=" ">
<polygon fill="white" stroke="#666666" points="732,-248.4 542,-248.4 542,-229.4 732,-229.4 732,-248.4"/>
<text text-anchor="middle" x="637" y="-236.4" font-family="Helvetica,sans-Serif" font-size="10.00">SyncDataStore2&lt; Canvas2DData &gt;</text>
</a>
</g>
</g>
<!-- Node5&#45;&gt;Node14 -->
<g id="edge28_Node000014_Node000005" class="edge">
<title>Node5&#45;&gt;Node14</title>
<g id="a_edge28_Node000014_Node000005"><a xlink:title=" ">
<path fill="none" stroke="#9a32cd" stroke-dasharray="5,2" d="M47.83,-304.7C56.56,-284.3 73.04,-252.48 97,-233.9 140.87,-199.87 161.14,-204.44 216,-195.9 256.76,-189.55 516.12,-199.49 524,-200.9 556.34,-206.68 592,-220.08 614.21,-229.32"/>
<polygon fill="#9a32cd" stroke="#9a32cd" points="44.49,-303.61 43.97,-314.19 50.98,-306.25 44.49,-303.61"/>
</a>
</g>
<text text-anchor="middle" x="277.5" y="-198.9" font-family="Helvetica,sans-Serif" font-size="10.00" fill="grey"> self_member_name</text>
</g>
<!-- Node15 -->
<g id="Node000015" class="node">
<title>Node15</title>
<g id="a_Node000015"><a xlink:href="classwebcface_1_1internal_1_1SyncDataStore1.html" target="_top" xlink:title=" ">
<polygon fill="white" stroke="#666666" points="724.5,-166.4 549.5,-166.4 549.5,-125.4 724.5,-125.4 724.5,-166.4"/>
<text text-anchor="start" x="557.5" y="-154.4" font-family="Helvetica,sans-Serif" font-size="10.00">SyncDataStore1&lt; std</text>
<text text-anchor="start" x="557.5" y="-143.4" font-family="Helvetica,sans-Serif" font-size="10.00">::shared_ptr&lt; std::vector</text>
<text text-anchor="middle" x="637" y="-132.4" font-family="Helvetica,sans-Serif" font-size="10.00">&lt; webcface::LogLineData &gt; &gt; &gt;</text>
</a>
</g>
</g>
<!-- Node5&#45;&gt;Node15 -->
<g id="edge31_Node000015_Node000005" class="edge">
<title>Node5&#45;&gt;Node15</title>
<g id="a_edge31_Node000015_Node000005"><a xlink:title=" ">
<path fill="none" stroke="#9a32cd" stroke-dasharray="5,2" d="M43.06,-303.87C47.94,-274.61 61.47,-220.75 97,-193.9 166.09,-141.68 415.25,-139.78 549.26,-142.8"/>
<polygon fill="#9a32cd" stroke="#9a32cd" points="39.55,-303.69 41.54,-314.1 46.47,-304.72 39.55,-303.69"/>
</a>
</g>
<text text-anchor="middle" x="277.5" y="-158.9" font-family="Helvetica,sans-Serif" font-size="10.00" fill="grey"> self_member_name</text>
</g>
<!-- Node16 -->
<g id="Node000016" class="node">
<title>Node16</title>
<g id="a_Node000016"><a xlink:href="classwebcface_1_1internal_1_1SyncDataStore1.html" target="_top" xlink:title=" ">
<polygon fill="white" stroke="#666666" points="339,-97.4 216,-97.4 216,-78.4 339,-78.4 339,-97.4"/>
<text text-anchor="middle" x="277.5" y="-85.4" font-family="Helvetica,sans-Serif" font-size="10.00">SyncDataStore1&lt; T &gt;</text>
</a>
</g>
</g>
<!-- Node5&#45;&gt;Node16 -->
<g id="edge33_Node000016_Node000005" class="edge">
<title>Node5&#45;&gt;Node16</title>
<g id="a_edge33_Node000016_Node000005"><a xlink:title=" ">
<path fill="none" stroke="#9a32cd" stroke-dasharray="5,2" d="M42.86,-304.18C49.02,-256.07 67.26,-134.73 97,-108.9 129.1,-81.02 177.51,-76.77 215.96,-78.95"/>
<polygon fill="#9a32cd" stroke="#9a32cd" points="39.36,-303.9 41.6,-314.25 46.31,-304.76 39.36,-303.9"/>
</a>
</g>
<text text-anchor="middle" x="147.5" y="-111.9" font-family="Helvetica,sans-Serif" font-size="10.00" fill="grey"> self_member_name</text>
</g>
<!-- Node17 -->
<g id="Node000017" class="node">
<title>Node17</title>
<g id="a_Node000017"><a xlink:href="classwebcface_1_1internal_1_1SyncDataStore1.html" target="_top" xlink:title=" ">
<polygon fill="white" stroke="#666666" points="701,-90.4 573,-90.4 573,-49.4 701,-49.4 701,-90.4"/>
<text text-anchor="start" x="581" y="-78.4" font-family="Helvetica,sans-Serif" font-size="10.00">SyncDataStore1&lt; std</text>
<text text-anchor="start" x="581" y="-67.4" font-family="Helvetica,sans-Serif" font-size="10.00">::chrono::system_clock</text>
<text text-anchor="middle" x="637" y="-56.4" font-family="Helvetica,sans-Serif" font-size="10.00">::time_point &gt;</text>
</a>
</g>
</g>
<!-- Node5&#45;&gt;Node17 -->
<g id="edge35_Node000017_Node000005" class="edge">
<title>Node5&#45;&gt;Node17</title>
<g id="a_edge35_Node000017_Node000005"><a xlink:title=" ">
<path fill="none" stroke="#9a32cd" stroke-dasharray="5,2" d="M42.16,-304.03C47.03,-250.66 63.14,-106.11 97,-74.9 236.95,54.12 335.08,-18.64 524,-41.9 540.01,-43.87 557.03,-47.37 572.84,-51.24"/>
<polygon fill="#9a32cd" stroke="#9a32cd" points="38.65,-303.95 41.26,-314.22 45.62,-304.57 38.65,-303.95"/>
</a>
</g>
<text text-anchor="middle" x="277.5" y="-10.9" font-family="Helvetica,sans-Serif" font-size="10.00" fill="grey"> self_member_name</text>
</g>
<!-- Node6&#45;&gt;Node3 -->
<g id="edge5_Node000003_Node000006" class="edge">
<title>Node6&#45;&gt;Node3</title>
<g id="a_edge5_Node000003_Node000006"><a xlink:title=" ">
<path fill="none" stroke="#9a32cd" stroke-dasharray="5,2" d="M698.39,-462.44C709.57,-460.29 721.14,-458.04 732,-455.9 782.28,-445.97 801.96,-460.72 845,-432.9 856.5,-425.47 851.7,-415.63 863,-407.9 874.86,-399.79 889.94,-395.14 903.36,-392.48"/>
<polygon fill="#9a32cd" stroke="#9a32cd" points="697.43,-459.06 688.27,-464.38 698.75,-465.94 697.43,-459.06"/>
</a>
</g>
<text text-anchor="middle" x="797.5" y="-455.9" font-family="Helvetica,sans-Serif" font-size="10.00" fill="grey"> value_store</text>
</g>
<!-- Node7&#45;&gt;Node6 -->
<g id="edge7_Node000006_Node000007" class="edge">
<title>Node7&#45;&gt;Node6</title>
<g id="a_edge7_Node000006_Node000007"><a xlink:title=" ">
<path fill="none" stroke="orange" stroke-dasharray="5,2" d="M301.75,-412.48C316.45,-424.78 336.49,-439.23 357,-446.9 420.01,-470.48 496.33,-476.46 553.21,-476.98"/>
<polygon fill="orange" stroke="orange" points="304.02,-409.81 294.17,-405.92 299.45,-415.11 304.02,-409.81"/>
</a>
</g>
<text text-anchor="middle" x="440.5" y="-478.9" font-family="Helvetica,sans-Serif" font-size="10.00" fill="grey"> &lt; ValueData &gt;</text>
</g>
<!-- Node7&#45;&gt;Node8 -->
<g id="edge11_Node000008_Node000007" class="edge">
<title>Node7&#45;&gt;Node8</title>
<g id="a_edge11_Node000008_Node000007"><a xlink:title=" ">
<path fill="none" stroke="orange" stroke-dasharray="5,2" d="M333.85,-408.63C341.57,-410.66 349.44,-412.49 357,-413.9 423.54,-426.26 500.24,-431.98 556.36,-434.62"/>
<polygon fill="orange" stroke="orange" points="334.77,-405.25 324.2,-405.98 332.91,-412 334.77,-405.25"/>
</a>
</g>
<text text-anchor="middle" x="440.5" y="-434.9" font-family="Helvetica,sans-Serif" font-size="10.00" fill="grey"> &lt; TextData &gt;</text>
</g>
<!-- Node7&#45;&gt;Node9 -->
<g id="edge14_Node000009_Node000007" class="edge">
<title>Node7&#45;&gt;Node9</title>
<g id="a_edge14_Node000009_Node000007"><a xlink:title=" ">
<path fill="none" stroke="orange" stroke-dasharray="5,2" d="M298.85,-413.64C312.06,-429.51 328.68,-451.74 339,-473.9 353.11,-504.19 332.27,-524.43 357,-546.9 413.98,-598.67 506.23,-602.31 568.92,-597.41"/>
<polygon fill="orange" stroke="orange" points="301.45,-411.3 292.3,-405.95 296.12,-415.83 301.45,-411.3"/>
</a>
</g>
<text text-anchor="middle" x="440.5" y="-600.9" font-family="Helvetica,sans-Serif" font-size="10.00" fill="grey"> &lt; FuncData &gt;</text>
</g>
<!-- Node7&#45;&gt;Node10 -->
<g id="edge17_Node000010_Node000007" class="edge">
<title>Node7&#45;&gt;Node10</title>
<g id="a_edge17_Node000010_Node000007"><a xlink:title=" ">
<path fill="none" stroke="orange" stroke-dasharray="5,2" d="M295.26,-414.08C315.74,-442.11 348.71,-486.15 357,-490.9 417.12,-525.35 496.21,-533.3 554.82,-533.53"/>
<polygon fill="orange" stroke="orange" points="298.06,-411.98 289.34,-405.95 292.4,-416.1 298.06,-411.98"/>
</a>
</g>
<text text-anchor="middle" x="440.5" y="-534.9" font-family="Helvetica,sans-Serif" font-size="10.00" fill="grey"> &lt; ViewData &gt;</text>
</g>
<!-- Node7&#45;&gt;Node11 -->
<g id="edge20_Node000011_Node000007" class="edge">
<title>Node7&#45;&gt;Node11</title>
<g id="a_edge20_Node000011_Node000007"><a xlink:title=" ">
<path fill="none" stroke="orange" stroke-dasharray="5,2" d="M345.48,-390.52C406.75,-390.18 497.28,-389.67 560.96,-389.32"/>
<polygon fill="orange" stroke="orange" points="345.13,-387.03 335.15,-390.58 345.17,-394.03 345.13,-387.03"/>
</a>
</g>
<text text-anchor="start" x="357" y="-403.9" font-family="Helvetica,sans-Serif" font-size="10.00" fill="grey"> &lt; webcface::ImageFrame,</text>
<text text-anchor="middle" x="440.5" y="-392.9" font-family="Helvetica,sans-Serif" font-size="10.00" fill="grey"> webcface::message::ImageReq &gt;</text>
</g>
<!-- Node7&#45;&gt;Node12 -->
<g id="edge23_Node000012_Node000007" class="edge">
<title>Node7&#45;&gt;Node12</title>
<g id="a_edge23_Node000012_Node000007"><a xlink:title=" ">
<path fill="none" stroke="orange" stroke-dasharray="5,2" d="M345.29,-376.08C349.24,-375.31 353.17,-374.58 357,-373.9 423.33,-362.1 499.06,-351.7 554.87,-344.62"/>
<polygon fill="orange" stroke="orange" points="344.55,-372.66 335.43,-378.05 345.92,-379.53 344.55,-372.66"/>
</a>
</g>
<text text-anchor="middle" x="440.5" y="-376.9" font-family="Helvetica,sans-Serif" font-size="10.00" fill="grey"> &lt; RobotModelData &gt;</text>
</g>
<!-- Node7&#45;&gt;Node13 -->
<g id="edge26_Node000013_Node000007" class="edge">
<title>Node7&#45;&gt;Node13</title>
<g id="a_edge26_Node000013_Node000007"><a xlink:title=" ">
<path fill="none" stroke="orange" stroke-dasharray="5,2" d="M301.48,-369.15C316.21,-356.49 336.38,-341.4 357,-332.9 415.61,-308.73 486.32,-298.52 541.89,-294.33"/>
<polygon fill="orange" stroke="orange" points="299.06,-366.62 293.89,-375.87 303.7,-371.86 299.06,-366.62"/>
</a>
</g>
<text text-anchor="middle" x="440.5" y="-335.9" font-family="Helvetica,sans-Serif" font-size="10.00" fill="grey"> &lt; Canvas3DData &gt;</text>
</g>
<!-- Node7&#45;&gt;Node14 -->
<g id="edge29_Node000014_Node000007" class="edge">
<title>Node7&#45;&gt;Node14</title>
<g id="a_edge29_Node000014_Node000007"><a xlink:title=" ">
<path fill="none" stroke="orange" stroke-dasharray="5,2" d="M309.98,-369.46C320.46,-360.99 331.38,-350.5 339,-338.9 353.81,-316.33 336.53,-298.48 357,-280.9 408.56,-236.61 486.18,-228 546.48,-229.39"/>
<polygon fill="orange" stroke="orange" points="307.54,-366.92 301.75,-375.79 311.81,-372.47 307.54,-366.92"/>
</a>
</g>
<text text-anchor="middle" x="440.5" y="-283.9" font-family="Helvetica,sans-Serif" font-size="10.00" fill="grey"> &lt; Canvas2DData &gt;</text>
</g>
<!-- Node8&#45;&gt;Node3 -->
<g id="edge9_Node000003_Node000008" class="edge">
<title>Node8&#45;&gt;Node3</title>
<g id="a_edge9_Node000003_Node000008"><a xlink:title=" ">
<path fill="none" stroke="#9a32cd" stroke-dasharray="5,2" d="M708.19,-425.79C748.27,-419.42 799.46,-411.26 845,-403.9 864.39,-400.76 886.08,-397.21 903.47,-394.35"/>
<polygon fill="#9a32cd" stroke="#9a32cd" points="707.57,-422.34 698.25,-427.37 708.67,-429.25 707.57,-422.34"/>
</a>
</g>
<text text-anchor="middle" x="797.5" y="-420.9" font-family="Helvetica,sans-Serif" font-size="10.00" fill="grey"> text_store</text>
</g>
<!-- Node9&#45;&gt;Node3 -->
<g id="edge12_Node000003_Node000009" class="edge">
<title>Node9&#45;&gt;Node3</title>
<g id="a_edge12_Node000003_Node000009"><a xlink:title=" ">
<path fill="none" stroke="#9a32cd" stroke-dasharray="5,2" d="M728.7,-584.24C769.99,-577.74 816,-562.82 845,-529.9 881.22,-488.77 826.36,-448.66 863,-407.9 873.13,-396.63 888.99,-391.65 903.39,-389.58"/>
<polygon fill="#9a32cd" stroke="#9a32cd" points="728,-580.81 718.59,-585.69 728.99,-587.74 728,-580.81"/>
</a>
</g>
<text text-anchor="middle" x="797.5" y="-582.9" font-family="Helvetica,sans-Serif" font-size="10.00" fill="grey"> func_store</text>
</g>
<!-- Node10&#45;&gt;Node3 -->
<g id="edge15_Node000003_Node000010" class="edge">
<title>Node10&#45;&gt;Node3</title>
<g id="a_edge15_Node000003_Node000010"><a xlink:title=" ">
<path fill="none" stroke="#9a32cd" stroke-dasharray="5,2" d="M728.92,-521.52C769.21,-513.81 814.33,-498.42 845,-467.9 864.73,-448.26 842.94,-427.2 863,-407.9 873.73,-397.57 889.31,-392.66 903.37,-390.39"/>
<polygon fill="#9a32cd" stroke="#9a32cd" points="728.29,-518.08 719.06,-523.28 729.52,-524.97 728.29,-518.08"/>
</a>
</g>
<text text-anchor="middle" x="797.5" y="-517.9" font-family="Helvetica,sans-Serif" font-size="10.00" fill="grey"> view_store</text>
</g>
<!-- Node11&#45;&gt;Node3 -->
<g id="edge18_Node000003_Node000011" class="edge">
<title>Node11&#45;&gt;Node3</title>
<g id="a_edge18_Node000003_Node000011"><a xlink:title=" ">
<path fill="none" stroke="#9a32cd" stroke-dasharray="5,2" d="M723.54,-388.9C783.46,-388.9 860.24,-388.9 903.32,-388.9"/>
<polygon fill="#9a32cd" stroke="#9a32cd" points="723.32,-385.4 713.32,-388.9 723.32,-392.4 723.32,-385.4"/>
</a>
</g>
<text text-anchor="middle" x="797.5" y="-391.9" font-family="Helvetica,sans-Serif" font-size="10.00" fill="grey"> image_store</text>
</g>
<!-- Node12&#45;&gt;Node3 -->
<g id="edge21_Node000003_Node000012" class="edge">
<title>Node12&#45;&gt;Node3</title>
<g id="a_edge21_Node000003_Node000012"><a xlink:title=" ">
<path fill="none" stroke="#9a32cd" stroke-dasharray="5,2" d="M729.25,-351.41C788.17,-362.06 861.38,-375.31 903.14,-382.86"/>
<polygon fill="#9a32cd" stroke="#9a32cd" points="729.64,-347.92 719.17,-349.58 728.39,-354.81 729.64,-347.92"/>
</a>
</g>
<text text-anchor="middle" x="797.5" y="-373.9" font-family="Helvetica,sans-Serif" font-size="10.00" fill="grey"> robot_model_store</text>
</g>
<!-- Node13&#45;&gt;Node3 -->
<g id="edge24_Node000003_Node000013" class="edge">
<title>Node13&#45;&gt;Node3</title>
<g id="a_edge24_Node000003_Node000013"><a xlink:title=" ">
<path fill="none" stroke="#9a32cd" stroke-dasharray="5,2" d="M710.13,-303.35C750.63,-311.08 801.59,-322.99 845,-339.9 873.04,-350.82 903.44,-368.34 921.18,-379.21"/>
<polygon fill="#9a32cd" stroke="#9a32cd" points="710.55,-299.87 700.07,-301.48 709.26,-306.75 710.55,-299.87"/>
</a>
</g>
<text text-anchor="middle" x="797.5" y="-342.9" font-family="Helvetica,sans-Serif" font-size="10.00" fill="grey"> canvas3d_store</text>
</g>
<!-- Node14&#45;&gt;Node3 -->
<g id="edge27_Node000003_Node000014" class="edge">
<title>Node14&#45;&gt;Node3</title>
<g id="a_edge27_Node000003_Node000014"><a xlink:title=" ">
<path fill="none" stroke="#9a32cd" stroke-dasharray="5,2" d="M716.14,-250.38C756.61,-258.75 805.66,-272.79 845,-295.9 883.08,-318.27 916.24,-360.52 929.88,-379.38"/>
<polygon fill="#9a32cd" stroke="#9a32cd" points="716.8,-246.95 706.31,-248.43 715.44,-253.81 716.8,-246.95"/>
</a>
</g>
<text text-anchor="middle" x="797.5" y="-298.9" font-family="Helvetica,sans-Serif" font-size="10.00" fill="grey"> canvas2d_store</text>
</g>
<!-- Node15&#45;&gt;Node3 -->
<g id="edge30_Node000003_Node000015" class="edge">
<title>Node15&#45;&gt;Node3</title>
<g id="a_edge30_Node000003_Node000015"><a xlink:title=" ">
<path fill="none" stroke="#9a32cd" stroke-dasharray="5,2" d="M714.02,-170C756.04,-186.07 807.23,-210.44 845,-243.9 890.9,-284.56 922.18,-353.67 932.64,-379.12"/>
<polygon fill="#9a32cd" stroke="#9a32cd" points="715.24,-166.72 704.65,-166.5 712.79,-173.28 715.24,-166.72"/>
</a>
</g>
<text text-anchor="middle" x="797.5" y="-246.9" font-family="Helvetica,sans-Serif" font-size="10.00" fill="grey"> log_store</text>
</g>
<!-- Node16&#45;&gt;Node15 -->
<g id="edge32_Node000015_Node000016" class="edge">
<title>Node16&#45;&gt;Node15</title>
<g id="a_edge32_Node000015_Node000016"><a xlink:title=" ">
<path fill="none" stroke="orange" stroke-dasharray="5,2" d="M349.35,-84.54C398.86,-83.77 466.19,-85.91 524,-98.9 549.1,-104.54 575.71,-115.48 596.7,-125.38"/>
<polygon fill="orange" stroke="orange" points="348.99,-81.05 339.06,-84.75 349.13,-88.05 348.99,-81.05"/>
</a>
</g>
<text text-anchor="start" x="384" y="-123.9" font-family="Helvetica,sans-Serif" font-size="10.00" fill="grey"> &lt; std::shared_ptr&lt;</text>
<text text-anchor="start" x="384" y="-112.9" font-family="Helvetica,sans-Serif" font-size="10.00" fill="grey"> std::vector&lt; webcface</text>
<text text-anchor="middle" x="440.5" y="-101.9" font-family="Helvetica,sans-Serif" font-size="10.00" fill="grey">::LogLineData &gt; &gt; &gt;</text>
</g>
<!-- Node16&#45;&gt;Node17 -->
<g id="edge36_Node000017_Node000016" class="edge">
<title>Node16&#45;&gt;Node17</title>
<g id="a_edge36_Node000017_Node000016"><a xlink:title=" ">
<path fill="none" stroke="orange" stroke-dasharray="5,2" d="M304.09,-73.64C319.02,-66.14 338.51,-57.73 357,-53.9 430.04,-38.76 515.98,-47.58 572.99,-57.03"/>
<polygon fill="orange" stroke="orange" points="302.24,-70.66 294.99,-78.38 305.48,-76.86 302.24,-70.66"/>
</a>
</g>
<text text-anchor="start" x="385" y="-67.9" font-family="Helvetica,sans-Serif" font-size="10.00" fill="grey"> &lt; std::chrono::system</text>
<text text-anchor="middle" x="440.5" y="-56.9" font-family="Helvetica,sans-Serif" font-size="10.00" fill="grey">_clock::time_point &gt;</text>
</g>
<!-- Node17&#45;&gt;Node3 -->
<g id="edge34_Node000003_Node000017" class="edge">
<title>Node17&#45;&gt;Node3</title>
<g id="a_edge34_Node000003_Node000017"><a xlink:title=" ">
<path fill="none" stroke="#9a32cd" stroke-dasharray="5,2" d="M710.86,-90.53C754.63,-106.14 808.69,-131.56 845,-169.9 906.21,-234.52 929.27,-346 934.98,-379.26"/>
<polygon fill="#9a32cd" stroke="#9a32cd" points="712,-87.22 701.4,-87.25 709.7,-93.83 712,-87.22"/>
</a>
</g>
<text text-anchor="middle" x="797.5" y="-172.9" font-family="Helvetica,sans-Serif" font-size="10.00" fill="grey"> sync_time_store</text>
</g>
<!-- Node18 -->
<g id="Node000018" class="node">
<title>Node18</title>
<g id="a_Node000018"><a xlink:href="classwebcface_1_1internal_1_1FuncResultStore.html" target="_top" xlink:title="AsyncFuncResultのリストを保持する。">
<polygon fill="white" stroke="#666666" points="684.5,-31.4 589.5,-31.4 589.5,-12.4 684.5,-12.4 684.5,-31.4"/>
<text text-anchor="middle" x="637" y="-19.4" font-family="Helvetica,sans-Serif" font-size="10.00">FuncResultStore</text>
</a>
</g>
</g>
<!-- Node18&#45;&gt;Node3 -->
<g id="edge37_Node000003_Node000018" class="edge">
<title>Node18&#45;&gt;Node3</title>
<g id="a_edge37_Node000003_Node000018"><a xlink:title=" ">
<path fill="none" stroke="#9a32cd" stroke-dasharray="5,2" d="M694.93,-25.82C742.09,-32.21 807.28,-48.82 845,-91.9 923.91,-182.01 934.77,-339.18 936.26,-379.34"/>
<polygon fill="#9a32cd" stroke="#9a32cd" points="695.21,-22.33 684.86,-24.58 694.35,-29.28 695.21,-22.33"/>
</a>
</g>
<text text-anchor="middle" x="797.5" y="-94.9" font-family="Helvetica,sans-Serif" font-size="10.00" fill="grey"> func_result_store</text>
</g>
</g>
</svg>
