<?xml version="1.0" encoding="UTF-8" standalone="no"?>
<!DOCTYPE svg PUBLIC "-//W3C//DTD SVG 1.1//EN"
 "http://www.w3.org/Graphics/SVG/1.1/DTD/svg11.dtd">
<!-- Generated by graphviz version 2.43.0 (0)
 -->
<!-- Title: Canvas2DComponent Pages: 1 -->
<svg width="410pt" height="160pt"
 viewBox="0.00 0.00 410.00 160.00" xmlns="http://www.w3.org/2000/svg" xmlns:xlink="http://www.w3.org/1999/xlink">
<g id="graph0" class="graph" transform="scale(1 1) rotate(0) translate(4 156)">
<title>Canvas2DComponent</title>
<!-- Node1 -->
<g id="Node000001" class="node">
<title>Node1</title>
<g id="a_Node000001"><a xlink:title="Canvas2Dの各要素を表すクラス。">
<polygon fill="#999999" stroke="#666666" points="146,-19 24,-19 24,0 146,0 146,-19"/>
<text text-anchor="middle" x="85" y="-7" font-family="Helvetica,sans-Serif" font-size="10.00">Canvas2DComponent</text>
</a>
</g>
</g>
<!-- Node2 -->
<g id="Node000002" class="node">
<title>Node2</title>
<g id="a_Node000002"><a xlink:href="structwebcface_1_1Common_1_1Canvas2DComponentBase.html" target="_top" xlink:title=" ">
<polygon fill="white" stroke="#666666" points="146,-80.5 0,-80.5 0,-61.5 146,-61.5 146,-80.5"/>
<text text-anchor="middle" x="73" y="-68.5" font-family="Helvetica,sans-Serif" font-size="10.00">Canvas2DComponentBase</text>
</a>
</g>
</g>
<!-- Node2&#45;&gt;Node1 -->
<g id="edge1_Node000001_Node000002" class="edge">
<title>Node2&#45;&gt;Node1</title>
<g id="a_edge1_Node000001_Node000002"><a xlink:title=" ">
<path fill="none" stroke="darkgreen" d="M76.7,-51.66C78.89,-40.77 81.57,-27.49 83.28,-19.01"/>
<polygon fill="darkgreen" stroke="darkgreen" points="73.27,-50.98 74.72,-61.48 80.13,-52.36 73.27,-50.98"/>
</a>
</g>
</g>
<!-- Node3 -->
<g id="Node000003" class="node">
<title>Node3</title>
<g id="a_Node000003"><a xlink:href="classwebcface_1_1IdBase.html" target="_top" xlink:title=" ">
<polygon fill="white" stroke="#666666" points="331.5,-86 164.5,-86 164.5,-56 331.5,-56 331.5,-86"/>
<text text-anchor="start" x="172.5" y="-74" font-family="Helvetica,sans-Serif" font-size="10.00">IdBase&lt; Canvas2DComponent</text>
<text text-anchor="middle" x="248" y="-63" font-family="Helvetica,sans-Serif" font-size="10.00">Type &gt;</text>
</a>
</g>
</g>
<!-- Node3&#45;&gt;Node1 -->
<g id="edge2_Node000001_Node000003" class="edge">
<title>Node3&#45;&gt;Node1</title>
<g id="a_edge2_Node000001_Node000003"><a xlink:title=" ">
<path fill="none" stroke="#63b8ff" d="M199.9,-52.44C169.87,-41.48 132.52,-27.85 108.72,-19.16"/>
<polygon fill="#63b8ff" stroke="#63b8ff" points="198.78,-55.76 209.37,-55.9 201.18,-49.18 198.78,-55.76"/>
</a>
</g>
</g>
<!-- Node4 -->
<g id="Node000004" class="node">
<title>Node4</title>
<g id="a_Node000004"><a xlink:href="classwebcface_1_1IdBase.html" target="_top" xlink:title=" ">
<polygon fill="white" stroke="#666666" points="309,-152 187,-152 187,-133 309,-133 309,-152"/>
<text text-anchor="middle" x="248" y="-140" font-family="Helvetica,sans-Serif" font-size="10.00">IdBase&lt; TypeEnum &gt;</text>
</a>
</g>
</g>
<!-- Node4&#45;&gt;Node3 -->
<g id="edge3_Node000003_Node000004" class="edge">
<title>Node4&#45;&gt;Node3</title>
<g id="a_edge3_Node000003_Node000004"><a xlink:title=" ">
<path fill="none" stroke="orange" stroke-dasharray="5,2" d="M248,-122.71C248,-111.19 248,-96.68 248,-86.14"/>
<polygon fill="orange" stroke="orange" points="244.5,-122.98 248,-132.98 251.5,-122.98 244.5,-122.98"/>
</a>
</g>
<text text-anchor="middle" x="325" y="-107" font-family="Helvetica,sans-Serif" font-size="10.00" fill="grey"> &lt; Canvas2DComponentType &gt;</text>
</g>
</g>
</svg>
