<?xml version="1.0" encoding="UTF-8" standalone="no"?>
<!DOCTYPE svg PUBLIC "-//W3C//DTD SVG 1.1//EN"
 "http://www.w3.org/Graphics/SVG/1.1/DTD/svg11.dtd">
<!-- Generated by graphviz version 2.43.0 (0)
 -->
<!-- Title: TemporalGeometry Pages: 1 -->
<svg width="823pt" height="149pt"
 viewBox="0.00 0.00 823.00 148.50" xmlns="http://www.w3.org/2000/svg" xmlns:xlink="http://www.w3.org/1999/xlink">
<g id="graph0" class="graph" transform="scale(1 1) rotate(0) translate(4 144.5)">
<title>TemporalGeometry</title>
<!-- Node1 -->
<g id="Node000001" class="node">
<title>Node1</title>
<g id="a_Node000001"><a xlink:title=" ">
<polygon fill="#999999" stroke="#666666" points="815,-45 705,-45 705,-26 815,-26 815,-45"/>
<text text-anchor="middle" x="760" y="-33" font-family="Helvetica,sans-Serif" font-size="10.00">TemporalGeometry</text>
</a>
</g>
</g>
<!-- Node2 -->
<g id="Node000002" class="node">
<title>Node2</title>
<g id="a_Node000002"><a xlink:href="structTemporalComponent.html" target="_top" xlink:title=" ">
<polygon fill="white" stroke="#666666" points="668,-81.5 542,-81.5 542,-51.5 668,-51.5 668,-81.5"/>
<text text-anchor="start" x="550" y="-69.5" font-family="Helvetica,sans-Serif" font-size="10.00">TemporalComponent&lt;</text>
<text text-anchor="middle" x="605" y="-58.5" font-family="Helvetica,sans-Serif" font-size="10.00"> false, true, true &gt;</text>
</a>
</g>
</g>
<!-- Node2&#45;&gt;Node1 -->
<g id="edge1_Node000001_Node000002" class="edge">
<title>Node2&#45;&gt;Node1</title>
<g id="a_edge1_Node000001_Node000002"><a xlink:title=" ">
<path fill="none" stroke="#63b8ff" d="M678.21,-51.87C689.64,-49.55 701.19,-47.21 711.85,-45.05"/>
<polygon fill="#63b8ff" stroke="#63b8ff" points="677.34,-48.47 668.23,-53.89 678.73,-55.34 677.34,-48.47"/>
</a>
</g>
</g>
<!-- Node3 -->
<g id="Node000003" class="node">
<title>Node3</title>
<g id="a_Node000003"><a xlink:href="classTemporalViewComponent.html" target="_top" xlink:title="Viewを構築するときに使う一時的なViewComponent.">
<polygon fill="white" stroke="#666666" points="154.5,-138 12.5,-138 12.5,-119 154.5,-119 154.5,-138"/>
<text text-anchor="middle" x="83.5" y="-126" font-family="Helvetica,sans-Serif" font-size="10.00">TemporalViewComponent</text>
</a>
</g>
</g>
<!-- Node3&#45;&gt;Node2 -->
<g id="edge2_Node000002_Node000003" class="edge">
<title>Node3&#45;&gt;Node2</title>
<g id="a_edge2_Node000002_Node000003"><a xlink:title=" ">
<path fill="none" stroke="#9a32cd" stroke-dasharray="5,2" d="M164.72,-131.63C253.94,-133.1 401.62,-129.51 524,-97.5 539.56,-93.43 556.23,-87.28 570.31,-81.52"/>
<polygon fill="#9a32cd" stroke="#9a32cd" points="164.74,-128.13 154.67,-131.44 164.61,-135.13 164.74,-128.13"/>
</a>
</g>
<text text-anchor="middle" x="342" y="-132.5" font-family="Helvetica,sans-Serif" font-size="10.00" fill="grey"> component_v</text>
</g>
<!-- Node6 -->
<g id="Node000006" class="node">
<title>Node6</title>
<g id="a_Node000006"><a xlink:href="structTemporalComponent.html" target="_top" xlink:title="Canvas2D, Canvas3D (, View) に要素をaddするときに使うインタフェース">
<polygon fill="white" stroke="#666666" points="405,-105.5 279,-105.5 279,-75.5 405,-75.5 405,-105.5"/>
<text text-anchor="start" x="287" y="-93.5" font-family="Helvetica,sans-Serif" font-size="10.00">TemporalComponent&lt;</text>
<text text-anchor="middle" x="342" y="-82.5" font-family="Helvetica,sans-Serif" font-size="10.00"> V, C2, C3 &gt;</text>
</a>
</g>
</g>
<!-- Node3&#45;&gt;Node6 -->
<g id="edge6_Node000006_Node000003" class="edge">
<title>Node3&#45;&gt;Node6</title>
<g id="a_edge6_Node000006_Node000003"><a xlink:title=" ">
<path fill="none" stroke="#9a32cd" stroke-dasharray="5,2" d="M158.89,-117.48C196.92,-111.85 242.66,-105.07 278.79,-99.72"/>
<polygon fill="#9a32cd" stroke="#9a32cd" points="158.27,-114.03 148.89,-118.96 159.3,-120.96 158.27,-114.03"/>
</a>
</g>
<text text-anchor="middle" x="223" y="-115.5" font-family="Helvetica,sans-Serif" font-size="10.00" fill="grey"> component_v</text>
</g>
<!-- Node4 -->
<g id="Node000004" class="node">
<title>Node4</title>
<g id="a_Node000004"><a xlink:href="classTemporalCanvas2DComponent.html" target="_top" xlink:title=" ">
<polygon fill="white" stroke="#666666" points="167,-67 0,-67 0,-48 167,-48 167,-67"/>
<text text-anchor="middle" x="83.5" y="-55" font-family="Helvetica,sans-Serif" font-size="10.00">TemporalCanvas2DComponent</text>
</a>
</g>
</g>
<!-- Node4&#45;&gt;Node2 -->
<g id="edge3_Node000002_Node000004" class="edge">
<title>Node4&#45;&gt;Node2</title>
<g id="a_edge3_Node000002_Node000004"><a xlink:title=" ">
<path fill="none" stroke="#9a32cd" stroke-dasharray="5,2" d="M177.59,-56.35C209.72,-56 245.94,-55.67 279,-55.5 335,-55.21 349.02,-53.95 405,-55.5 450.83,-56.77 502.53,-59.67 541.74,-62.17"/>
<polygon fill="#9a32cd" stroke="#9a32cd" points="177.27,-52.85 167.31,-56.46 177.35,-59.85 177.27,-52.85"/>
</a>
</g>
<text text-anchor="middle" x="342" y="-58.5" font-family="Helvetica,sans-Serif" font-size="10.00" fill="grey"> component_2d</text>
</g>
<!-- Node4&#45;&gt;Node6 -->
<g id="edge7_Node000006_Node000004" class="edge">
<title>Node4&#45;&gt;Node6</title>
<g id="a_edge7_Node000006_Node000004"><a xlink:title=" ">
<path fill="none" stroke="#9a32cd" stroke-dasharray="5,2" d="M168.35,-68.29C204.38,-72.92 245.73,-78.24 278.94,-82.52"/>
<polygon fill="#9a32cd" stroke="#9a32cd" points="168.71,-64.81 158.35,-67 167.82,-71.75 168.71,-64.81"/>
</a>
</g>
<text text-anchor="middle" x="223" y="-82.5" font-family="Helvetica,sans-Serif" font-size="10.00" fill="grey"> component_2d</text>
</g>
<!-- Node5 -->
<g id="Node000005" class="node">
<title>Node5</title>
<g id="a_Node000005"><a xlink:href="classTemporalCanvas3DComponent.html" target="_top" xlink:title="Canvas3Dを構築するときに使う一時的なCanvas3DComponent.">
<polygon fill="white" stroke="#666666" points="167,-19 0,-19 0,0 167,0 167,-19"/>
<text text-anchor="middle" x="83.5" y="-7" font-family="Helvetica,sans-Serif" font-size="10.00">TemporalCanvas3DComponent</text>
</a>
</g>
</g>
<!-- Node5&#45;&gt;Node2 -->
<g id="edge4_Node000002_Node000005" class="edge">
<title>Node5&#45;&gt;Node2</title>
<g id="a_edge4_Node000002_Node000005"><a xlink:title=" ">
<path fill="none" stroke="#9a32cd" stroke-dasharray="5,2" d="M177.49,-15.8C266.66,-22.45 404.92,-34.36 524,-51.5 529.73,-52.33 535.68,-53.27 541.63,-54.28"/>
<polygon fill="#9a32cd" stroke="#9a32cd" points="177.63,-12.3 167.4,-15.06 177.12,-19.28 177.63,-12.3"/>
</a>
</g>
<text text-anchor="middle" x="342" y="-38.5" font-family="Helvetica,sans-Serif" font-size="10.00" fill="grey"> component_3d</text>
</g>
<!-- Node5&#45;&gt;Node6 -->
<g id="edge8_Node000006_Node000005" class="edge">
<title>Node5&#45;&gt;Node6</title>
<g id="a_edge8_Node000006_Node000005"><a xlink:title=" ">
<path fill="none" stroke="#9a32cd" stroke-dasharray="5,2" d="M139.04,-21.37C174.26,-29.61 220.83,-41.58 261,-55.5 277.33,-61.16 294.98,-68.72 309.54,-75.37"/>
<polygon fill="#9a32cd" stroke="#9a32cd" points="139.49,-17.88 128.96,-19.04 137.91,-24.7 139.49,-17.88"/>
</a>
</g>
<text text-anchor="middle" x="223" y="-58.5" font-family="Helvetica,sans-Serif" font-size="10.00" fill="grey"> component_3d</text>
</g>
<!-- Node6&#45;&gt;Node2 -->
<g id="edge5_Node000002_Node000006" class="edge">
<title>Node6&#45;&gt;Node2</title>
<g id="a_edge5_Node000002_Node000006"><a xlink:title=" ">
<path fill="none" stroke="orange" stroke-dasharray="5,2" d="M415.34,-83.85C455.07,-80.19 503.84,-75.71 541.84,-72.22"/>
<polygon fill="orange" stroke="orange" points="414.82,-80.38 405.18,-84.78 415.46,-87.35 414.82,-80.38"/>
</a>
</g>
<text text-anchor="middle" x="473.5" y="-85.5" font-family="Helvetica,sans-Serif" font-size="10.00" fill="grey"> &lt; false, true, true &gt;</text>
</g>
<!-- Node7 -->
<g id="Node000007" class="node">
<title>Node7</title>
<g id="a_Node000007"><a xlink:href="structGeometry.html" target="_top" xlink:title=" ">
<polygon fill="white" stroke="#666666" points="637.5,-33 572.5,-33 572.5,-14 637.5,-14 637.5,-33"/>
<text text-anchor="middle" x="605" y="-21" font-family="Helvetica,sans-Serif" font-size="10.00">Geometry</text>
</a>
</g>
</g>
<!-- Node7&#45;&gt;Node1 -->
<g id="edge9_Node000001_Node000007" class="edge">
<title>Node7&#45;&gt;Node1</title>
<g id="a_edge9_Node000001_Node000007"><a xlink:title=" ">
<path fill="none" stroke="#63b8ff" d="M648.15,-26.81C665.64,-28.18 686.15,-29.79 704.74,-31.24"/>
<polygon fill="#63b8ff" stroke="#63b8ff" points="647.94,-23.28 637.7,-25.99 647.4,-30.26 647.94,-23.28"/>
</a>
</g>
</g>
</g>
</svg>
