<?xml version="1.0" encoding="UTF-8" standalone="no"?>
<!DOCTYPE svg PUBLIC "-//W3C//DTD SVG 1.1//EN"
 "http://www.w3.org/Graphics/SVG/1.1/DTD/svg11.dtd">
<!-- Generated by graphviz version 2.43.0 (0)
 -->
<!-- Title: FuncListener Pages: 1 -->
<svg width="86pt" height="192pt"
 viewBox="0.00 0.00 86.00 192.00" xmlns="http://www.w3.org/2000/svg" xmlns:xlink="http://www.w3.org/1999/xlink">
<g id="graph0" class="graph" transform="scale(1 1) rotate(0) translate(4 188)">
<title>FuncListener</title>
<!-- Node1 -->
<g id="Node000001" class="node">
<title>Node1</title>
<g id="a_Node000001"><a xlink:title=" ">
<polygon fill="#999999" stroke="#666666" points="78,-19 0,-19 0,0 78,0 78,-19"/>
<text text-anchor="middle" x="39" y="-7" font-family="Helvetica,sans-Serif" font-size="10.00">FuncListener</text>
</a>
</g>
</g>
<!-- Node2 -->
<g id="Node000002" class="node">
<title>Node2</title>
<g id="a_Node000002"><a xlink:href="classFunc.html" target="_top" xlink:title="関数1つを表すクラス">
<polygon fill="white" stroke="#666666" points="58.5,-74 19.5,-74 19.5,-55 58.5,-55 58.5,-74"/>
<text text-anchor="middle" x="39" y="-62" font-family="Helvetica,sans-Serif" font-size="10.00">Func</text>
</a>
</g>
</g>
<!-- Node2&#45;&gt;Node1 -->
<g id="edge1_Node000001_Node000002" class="edge">
<title>Node2&#45;&gt;Node1</title>
<g id="a_edge1_Node000001_Node000002"><a xlink:title=" ">
<path fill="none" stroke="darkgreen" d="M39,-44.66C39,-35.93 39,-25.99 39,-19.09"/>
<polygon fill="darkgreen" stroke="darkgreen" points="35.5,-44.75 39,-54.75 42.5,-44.75 35.5,-44.75"/>
</a>
</g>
</g>
<!-- Node3 -->
<g id="Node000003" class="node">
<title>Node3</title>
<g id="a_Node000003"><a xlink:href="structField.html" target="_top" xlink:title="ClientDataの参照とメンバ名とデータ名を持つクラス">
<polygon fill="white" stroke="#666666" points="59,-129 19,-129 19,-110 59,-110 59,-129"/>
<text text-anchor="middle" x="39" y="-117" font-family="Helvetica,sans-Serif" font-size="10.00">Field</text>
</a>
</g>
</g>
<!-- Node3&#45;&gt;Node2 -->
<g id="edge2_Node000002_Node000003" class="edge">
<title>Node3&#45;&gt;Node2</title>
<g id="a_edge2_Node000002_Node000003"><a xlink:title=" ">
<path fill="none" stroke="darkgreen" d="M39,-99.66C39,-90.93 39,-80.99 39,-74.09"/>
<polygon fill="darkgreen" stroke="darkgreen" points="35.5,-99.75 39,-109.75 42.5,-99.75 35.5,-99.75"/>
</a>
</g>
</g>
<!-- Node4 -->
<g id="Node000004" class="node">
<title>Node4</title>
<g id="a_Node000004"><a xlink:href="structCommon_1_1FieldBase.html" target="_top" xlink:title="メンバ名とデータ名を持つクラス">
<polygon fill="white" stroke="#666666" points="71,-184 7,-184 7,-165 71,-165 71,-184"/>
<text text-anchor="middle" x="39" y="-172" font-family="Helvetica,sans-Serif" font-size="10.00">FieldBase</text>
</a>
</g>
</g>
<!-- Node4&#45;&gt;Node3 -->
<g id="edge3_Node000003_Node000004" class="edge">
<title>Node4&#45;&gt;Node3</title>
<g id="a_edge3_Node000003_Node000004"><a xlink:title=" ">
<path fill="none" stroke="#63b8ff" d="M39,-154.66C39,-145.93 39,-135.99 39,-129.09"/>
<polygon fill="#63b8ff" stroke="#63b8ff" points="35.5,-154.75 39,-164.75 42.5,-154.75 35.5,-154.75"/>
</a>
</g>
</g>
</g>
</svg>
