<?xml version="1.0" encoding="UTF-8" standalone="no"?>
<!DOCTYPE svg PUBLIC "-//W3C//DTD SVG 1.1//EN"
 "http://www.w3.org/Graphics/SVG/1.1/DTD/svg11.dtd">
<!-- Generated by graphviz version 2.43.0 (0)
 -->
<!-- Title: TemporalGeometry Pages: 1 -->
<svg width="218pt" height="171pt"
 viewBox="0.00 0.00 217.50 171.00" xmlns="http://www.w3.org/2000/svg" xmlns:xlink="http://www.w3.org/1999/xlink">
<g id="graph0" class="graph" transform="scale(1 1) rotate(0) translate(4 167)">
<title>TemporalGeometry</title>
<!-- Node1 -->
<g id="Node000001" class="node">
<title>Node1</title>
<g id="a_Node000001"><a xlink:title=" ">
<polygon fill="#999999" stroke="#666666" points="175,-19 65,-19 65,0 175,0 175,-19"/>
<text text-anchor="middle" x="120" y="-7" font-family="Helvetica,sans-Serif" font-size="10.00">TemporalGeometry</text>
</a>
</g>
</g>
<!-- Node2 -->
<g id="Node000002" class="node">
<title>Node2</title>
<g id="a_Node000002"><a xlink:href="classwebcface_1_1TemporalComponent.html" target="_top" xlink:title=" ">
<polygon fill="white" stroke="#666666" points="126,-86 0,-86 0,-56 126,-56 126,-86"/>
<text text-anchor="start" x="8" y="-74" font-family="Helvetica,sans-Serif" font-size="10.00">TemporalComponent&lt;</text>
<text text-anchor="middle" x="63" y="-63" font-family="Helvetica,sans-Serif" font-size="10.00"> false, true, true &gt;</text>
</a>
</g>
</g>
<!-- Node2&#45;&gt;Node1 -->
<g id="edge1_Node000001_Node000002" class="edge">
<title>Node2&#45;&gt;Node1</title>
<g id="a_edge1_Node000001_Node000002"><a xlink:title=" ">
<path fill="none" stroke="#63b8ff" d="M83.59,-48.5C93.31,-38.36 104.35,-26.83 111.71,-19.16"/>
<polygon fill="#63b8ff" stroke="#63b8ff" points="80.9,-46.26 76.51,-55.9 85.95,-51.1 80.9,-46.26"/>
</a>
</g>
</g>
<!-- Node3 -->
<g id="Node000003" class="node">
<title>Node3</title>
<g id="a_Node000003"><a xlink:href="classwebcface_1_1TemporalComponent.html" target="_top" xlink:title="Canvas2D, Canvas3D (, View) に要素をaddするときに使うインタフェース">
<polygon fill="white" stroke="#666666" points="126,-163 0,-163 0,-133 126,-133 126,-163"/>
<text text-anchor="start" x="8" y="-151" font-family="Helvetica,sans-Serif" font-size="10.00">TemporalComponent&lt;</text>
<text text-anchor="middle" x="63" y="-140" font-family="Helvetica,sans-Serif" font-size="10.00"> V, C2, C3 &gt;</text>
</a>
</g>
</g>
<!-- Node3&#45;&gt;Node2 -->
<g id="edge2_Node000002_Node000003" class="edge">
<title>Node3&#45;&gt;Node2</title>
<g id="a_edge2_Node000002_Node000003"><a xlink:title=" ">
<path fill="none" stroke="orange" stroke-dasharray="5,2" d="M63,-122.54C63,-110.45 63,-96.29 63,-86.04"/>
<polygon fill="orange" stroke="orange" points="59.5,-122.89 63,-132.89 66.5,-122.89 59.5,-122.89"/>
</a>
</g>
<text text-anchor="middle" x="113.5" y="-107" font-family="Helvetica,sans-Serif" font-size="10.00" fill="grey"> &lt; false, true, true &gt;</text>
</g>
<!-- Node4 -->
<g id="Node000004" class="node">
<title>Node4</title>
<g id="a_Node000004"><a xlink:href="structwebcface_1_1Geometry.html" target="_top" xlink:title=" ">
<polygon fill="white" stroke="#666666" points="209.5,-80.5 144.5,-80.5 144.5,-61.5 209.5,-61.5 209.5,-80.5"/>
<text text-anchor="middle" x="177" y="-68.5" font-family="Helvetica,sans-Serif" font-size="10.00">Geometry</text>
</a>
</g>
</g>
<!-- Node4&#45;&gt;Node1 -->
<g id="edge3_Node000001_Node000004" class="edge">
<title>Node4&#45;&gt;Node1</title>
<g id="a_edge3_Node000001_Node000004"><a xlink:title=" ">
<path fill="none" stroke="#63b8ff" d="M161.67,-54C150.88,-42.74 136.86,-28.1 128.15,-19.01"/>
<polygon fill="#63b8ff" stroke="#63b8ff" points="159.39,-56.68 168.83,-61.48 164.44,-51.83 159.39,-56.68"/>
</a>
</g>
</g>
</g>
</svg>
