<?xml version="1.0" encoding="UTF-8" standalone="no"?>
<!DOCTYPE svg PUBLIC "-//W3C//DTD SVG 1.1//EN"
 "http://www.w3.org/Graphics/SVG/1.1/DTD/svg11.dtd">
<!-- Generated by graphviz version 2.43.0 (0)
 -->
<!-- Title: SyncDataStore1&lt; T &gt; Pages: 1 -->
<svg width="455pt" height="110pt"
 viewBox="0.00 0.00 455.00 109.50" xmlns="http://www.w3.org/2000/svg" xmlns:xlink="http://www.w3.org/1999/xlink">
<g id="graph0" class="graph" transform="scale(1 1) rotate(0) translate(4 105.5)">
<title>SyncDataStore1&lt; T &gt;</title>
<!-- Node1 -->
<g id="Node000001" class="node">
<title>Node1</title>
<g id="a_Node000001"><a xlink:title=" ">
<polygon fill="#999999" stroke="#666666" points="123,-59 0,-59 0,-40 123,-40 123,-59"/>
<text text-anchor="middle" x="61.5" y="-47" font-family="Helvetica,sans-Serif" font-size="10.00">SyncDataStore1&lt; T &gt;</text>
</a>
</g>
</g>
<!-- Node2 -->
<g id="Node000002" class="node">
<title>Node2</title>
<g id="a_Node000002"><a xlink:href="classwebcface_1_1internal_1_1SyncDataStore1.html" target="_top" xlink:title=" ">
<polygon fill="white" stroke="#666666" points="447,-100 272,-100 272,-59 447,-59 447,-100"/>
<text text-anchor="start" x="280" y="-88" font-family="Helvetica,sans-Serif" font-size="10.00">SyncDataStore1&lt; std</text>
<text text-anchor="start" x="280" y="-77" font-family="Helvetica,sans-Serif" font-size="10.00">::shared_ptr&lt; std::vector</text>
<text text-anchor="middle" x="359.5" y="-66" font-family="Helvetica,sans-Serif" font-size="10.00">&lt; webcface::LogLineData &gt; &gt; &gt;</text>
</a>
</g>
</g>
<!-- Node1&#45;&gt;Node2 -->
<g id="edge1_Node000001_Node000002" class="edge">
<title>Node1&#45;&gt;Node2</title>
<g id="a_edge1_Node000001_Node000002"><a xlink:title=" ">
<path fill="none" stroke="orange" stroke-dasharray="5,2" d="M133.37,-56.73C135.95,-56.99 138.5,-57.25 141,-57.5 184.14,-61.88 232.09,-66.73 271.97,-70.76"/>
<polygon fill="orange" stroke="orange" points="133.66,-53.24 123.35,-55.71 132.95,-60.2 133.66,-53.24"/>
</a>
</g>
<text text-anchor="start" x="141" y="-93.5" font-family="Helvetica,sans-Serif" font-size="10.00" fill="grey"> &lt; std::shared_ptr&lt;</text>
<text text-anchor="start" x="141" y="-82.5" font-family="Helvetica,sans-Serif" font-size="10.00" fill="grey"> std::vector&lt; webcface</text>
<text text-anchor="middle" x="197.5" y="-71.5" font-family="Helvetica,sans-Serif" font-size="10.00" fill="grey">::LogLineData &gt; &gt; &gt;</text>
</g>
<!-- Node3 -->
<g id="Node000003" class="node">
<title>Node3</title>
<g id="a_Node000003"><a xlink:href="classwebcface_1_1internal_1_1SyncDataStore1.html" target="_top" xlink:title=" ">
<polygon fill="white" stroke="#666666" points="423.5,-41 295.5,-41 295.5,0 423.5,0 423.5,-41"/>
<text text-anchor="start" x="303.5" y="-29" font-family="Helvetica,sans-Serif" font-size="10.00">SyncDataStore1&lt; std</text>
<text text-anchor="start" x="303.5" y="-18" font-family="Helvetica,sans-Serif" font-size="10.00">::chrono::system_clock</text>
<text text-anchor="middle" x="359.5" y="-7" font-family="Helvetica,sans-Serif" font-size="10.00">::time_point &gt;</text>
</a>
</g>
</g>
<!-- Node1&#45;&gt;Node3 -->
<g id="edge2_Node000001_Node000003" class="edge">
<title>Node1&#45;&gt;Node3</title>
<g id="a_edge2_Node000001_Node000003"><a xlink:title=" ">
<path fill="none" stroke="orange" stroke-dasharray="5,2" d="M121.58,-38.26C128.11,-37.23 134.69,-36.28 141,-35.5 192.65,-29.13 251.57,-25.28 295.04,-23.07"/>
<polygon fill="orange" stroke="orange" points="120.67,-34.86 111.37,-39.95 121.81,-41.77 120.67,-34.86"/>
</a>
</g>
<text text-anchor="start" x="142" y="-49.5" font-family="Helvetica,sans-Serif" font-size="10.00" fill="grey"> &lt; std::chrono::system</text>
<text text-anchor="middle" x="197.5" y="-38.5" font-family="Helvetica,sans-Serif" font-size="10.00" fill="grey">_clock::time_point &gt;</text>
</g>
</g>
</svg>
