<?xml version="1.0" encoding="UTF-8" standalone="no"?>
<!DOCTYPE svg PUBLIC "-//W3C//DTD SVG 1.1//EN"
 "http://www.w3.org/Graphics/SVG/1.1/DTD/svg11.dtd">
<!-- Generated by graphviz version 2.43.0 (0)
 -->
<!-- Title: SyncDataStore1&lt; T &gt; Pages: 1 -->
<svg width="454pt" height="109pt"
 viewBox="0.00 0.00 454.00 108.50" xmlns="http://www.w3.org/2000/svg" xmlns:xlink="http://www.w3.org/1999/xlink">
<g id="graph0" class="graph" transform="scale(1 1) rotate(0) translate(4 104.5)">
<title>SyncDataStore1&lt; T &gt;</title>
<!-- Node1 -->
<g id="Node000001" class="node">
<title>Node1</title>
<g id="a_Node000001"><a xlink:title=" ">
<polygon fill="#999999" stroke="#666666" points="123,-59 0,-59 0,-40 123,-40 123,-59"/>
<text text-anchor="middle" x="61.5" y="-47" font-family="Helvetica,sans-Serif" font-size="10.00">SyncDataStore1&lt; T &gt;</text>
</a>
</g>
</g>
<!-- Node2 -->
<g id="Node000002" class="node">
<title>Node2</title>
<g id="a_Node000002"><a xlink:href="classwebcface_1_1internal_1_1SyncDataStore1.html" target="_top" xlink:title=" ">
<polygon fill="white" stroke="#666666" points="446,-100 271,-100 271,-59 446,-59 446,-100"/>
<text text-anchor="start" x="279" y="-88" font-family="Helvetica,sans-Serif" font-size="10.00">SyncDataStore1&lt; std</text>
<text text-anchor="start" x="279" y="-77" font-family="Helvetica,sans-Serif" font-size="10.00">::shared_ptr&lt; std::deque</text>
<text text-anchor="middle" x="358.5" y="-66" font-family="Helvetica,sans-Serif" font-size="10.00">&lt; webcface::LogLineData &gt; &gt; &gt;</text>
</a>
</g>
</g>
<!-- Node1&#45;&gt;Node2 -->
<g id="edge1_Node000001_Node000002" class="edge">
<title>Node1&#45;&gt;Node2</title>
<g id="a_edge1_Node000001_Node000002"><a xlink:title=" ">
<path fill="none" stroke="orange" stroke-dasharray="5,2" d="M133.37,-56.72C135.95,-56.99 138.5,-57.25 141,-57.5 183.75,-61.85 231.26,-66.68 270.85,-70.7"/>
<polygon fill="orange" stroke="orange" points="133.66,-53.23 123.35,-55.7 132.95,-60.2 133.66,-53.23"/>
</a>
</g>
<text text-anchor="start" x="141" y="-92.5" font-family="Helvetica,sans-Serif" font-size="10.00" fill="grey"> &lt; std::shared_ptr&lt;</text>
<text text-anchor="start" x="141" y="-81.5" font-family="Helvetica,sans-Serif" font-size="10.00" fill="grey"> std::deque&lt; webcface</text>
<text text-anchor="middle" x="197" y="-70.5" font-family="Helvetica,sans-Serif" font-size="10.00" fill="grey">::LogLineData &gt; &gt; &gt;</text>
</g>
<!-- Node3 -->
<g id="Node000003" class="node">
<title>Node3</title>
<g id="a_Node000003"><a xlink:href="classwebcface_1_1internal_1_1SyncDataStore1.html" target="_top" xlink:title=" ">
<polygon fill="white" stroke="#666666" points="422.5,-41 294.5,-41 294.5,0 422.5,0 422.5,-41"/>
<text text-anchor="start" x="302.5" y="-29" font-family="Helvetica,sans-Serif" font-size="10.00">SyncDataStore1&lt; std</text>
<text text-anchor="start" x="302.5" y="-18" font-family="Helvetica,sans-Serif" font-size="10.00">::chrono::system_clock</text>
<text text-anchor="middle" x="358.5" y="-7" font-family="Helvetica,sans-Serif" font-size="10.00">::time_point &gt;</text>
</a>
</g>
</g>
<!-- Node1&#45;&gt;Node3 -->
<g id="edge2_Node000001_Node000003" class="edge">
<title>Node1&#45;&gt;Node3</title>
<g id="a_edge2_Node000001_Node000003"><a xlink:title=" ">
<path fill="none" stroke="orange" stroke-dasharray="5,2" d="M121.58,-38.26C128.11,-37.23 134.69,-36.28 141,-35.5 192.42,-29.15 251.06,-25.3 294.33,-23.09"/>
<polygon fill="orange" stroke="orange" points="120.67,-34.87 111.37,-39.95 121.81,-41.77 120.67,-34.87"/>
</a>
</g>
<text text-anchor="start" x="141.5" y="-49.5" font-family="Helvetica,sans-Serif" font-size="10.00" fill="grey"> &lt; std::chrono::system</text>
<text text-anchor="middle" x="197" y="-38.5" font-family="Helvetica,sans-Serif" font-size="10.00" fill="grey">_clock::time_point &gt;</text>
</g>
</g>
</svg>
