<?xml version="1.0" encoding="UTF-8" standalone="no"?>
<!DOCTYPE svg PUBLIC "-//W3C//DTD SVG 1.1//EN"
 "http://www.w3.org/Graphics/SVG/1.1/DTD/svg11.dtd">
<!-- Generated by graphviz version 2.43.0 (0)
 -->
<!-- Title: Canvas2DComponent Pages: 1 -->
<svg width="246pt" height="160pt"
 viewBox="0.00 0.00 245.50 160.00" xmlns="http://www.w3.org/2000/svg" xmlns:xlink="http://www.w3.org/1999/xlink">
<g id="graph0" class="graph" transform="scale(1 1) rotate(0) translate(4 156)">
<title>Canvas2DComponent</title>
<!-- Node1 -->
<g id="Node000001" class="node">
<title>Node1</title>
<g id="a_Node000001"><a xlink:title="Canvas2Dの各要素を表すクラス。">
<polygon fill="#999999" stroke="#666666" points="144.5,-19 22.5,-19 22.5,0 144.5,0 144.5,-19"/>
<text text-anchor="middle" x="83.5" y="-7" font-family="Helvetica,sans-Serif" font-size="10.00">Canvas2DComponent</text>
</a>
</g>
</g>
<!-- Node2 -->
<g id="Node000002" class="node">
<title>Node2</title>
<g id="a_Node000002"><a xlink:href="classwebcface_1_1IdBase.html" target="_top" xlink:title=" ">
<polygon fill="white" stroke="#666666" points="167,-86 0,-86 0,-56 167,-56 167,-86"/>
<text text-anchor="start" x="8" y="-74" font-family="Helvetica,sans-Serif" font-size="10.00">IdBase&lt; Canvas2DComponent</text>
<text text-anchor="middle" x="83.5" y="-63" font-family="Helvetica,sans-Serif" font-size="10.00">Type &gt;</text>
</a>
</g>
</g>
<!-- Node2&#45;&gt;Node1 -->
<g id="edge1_Node000001_Node000002" class="edge">
<title>Node2&#45;&gt;Node1</title>
<g id="a_edge1_Node000001_Node000002"><a xlink:title=" ">
<path fill="none" stroke="#63b8ff" d="M83.5,-45.79C83.5,-36.36 83.5,-26.15 83.5,-19.16"/>
<polygon fill="#63b8ff" stroke="#63b8ff" points="80,-45.9 83.5,-55.9 87,-45.9 80,-45.9"/>
</a>
</g>
</g>
<!-- Node3 -->
<g id="Node000003" class="node">
<title>Node3</title>
<g id="a_Node000003"><a xlink:href="classwebcface_1_1IdBase.html" target="_top" xlink:title=" ">
<polygon fill="white" stroke="#666666" points="144.5,-152 22.5,-152 22.5,-133 144.5,-133 144.5,-152"/>
<text text-anchor="middle" x="83.5" y="-140" font-family="Helvetica,sans-Serif" font-size="10.00">IdBase&lt; TypeEnum &gt;</text>
</a>
</g>
</g>
<!-- Node3&#45;&gt;Node2 -->
<g id="edge2_Node000002_Node000003" class="edge">
<title>Node3&#45;&gt;Node2</title>
<g id="a_edge2_Node000002_Node000003"><a xlink:title=" ">
<path fill="none" stroke="orange" stroke-dasharray="5,2" d="M83.5,-122.71C83.5,-111.19 83.5,-96.68 83.5,-86.14"/>
<polygon fill="orange" stroke="orange" points="80,-122.98 83.5,-132.98 87,-122.98 80,-122.98"/>
</a>
</g>
<text text-anchor="middle" x="160.5" y="-107" font-family="Helvetica,sans-Serif" font-size="10.00" fill="grey"> &lt; Canvas2DComponentType &gt;</text>
</g>
</g>
</svg>
