<?xml version="1.0" encoding="UTF-8" standalone="no"?>
<!DOCTYPE svg PUBLIC "-//W3C//DTD SVG 1.1//EN"
 "http://www.w3.org/Graphics/SVG/1.1/DTD/svg11.dtd">
<!-- Generated by graphviz version 2.43.0 (0)
 -->
<!-- Title: client/include/webcface/value.h Pages: 1 -->
<svg width="1267pt" height="104pt"
 viewBox="0.00 0.00 1267.00 104.00" xmlns="http://www.w3.org/2000/svg" xmlns:xlink="http://www.w3.org/1999/xlink">
<g id="graph0" class="graph" transform="scale(1 1) rotate(0) translate(4 100)">
<title>client/include/webcface/value.h</title>
<!-- Node1 -->
<g id="Node000001" class="node">
<title>Node1</title>
<g id="a_Node000001"><a xlink:title=" ">
<polygon fill="#999999" stroke="#666666" points="747.5,-96 616.5,-96 616.5,-66 747.5,-66 747.5,-96"/>
<text text-anchor="start" x="624.5" y="-84" font-family="Helvetica,sans-Serif" font-size="10.00">client/include/webcface</text>
<text text-anchor="middle" x="682" y="-73" font-family="Helvetica,sans-Serif" font-size="10.00">/value.h</text>
</a>
</g>
</g>
<!-- Node2 -->
<g id="Node000002" class="node">
<title>Node2</title>
<g id="a_Node000002"><a xlink:href="latency-value_8cc.html" target="_top" xlink:title=" ">
<polygon fill="white" stroke="#666666" points="116,-30 0,-30 0,0 116,0 116,-30"/>
<text text-anchor="start" x="8" y="-18" font-family="Helvetica,sans-Serif" font-size="10.00">benchmarks/latency</text>
<text text-anchor="middle" x="58" y="-7" font-family="Helvetica,sans-Serif" font-size="10.00">&#45;value.cc</text>
</a>
</g>
</g>
<!-- Node1&#45;&gt;Node2 -->
<g id="edge1_Node000001_Node000002" class="edge">
<title>Node1&#45;&gt;Node2</title>
<g id="a_edge1_Node000001_Node000002"><a xlink:title=" ">
<path fill="none" stroke="#63b8ff" d="M606,-75.99C498.47,-69.68 295.94,-55.44 125,-30 122.06,-29.56 119.06,-29.08 116.03,-28.56"/>
<polygon fill="#63b8ff" stroke="#63b8ff" points="605.92,-79.49 616.11,-76.58 606.33,-72.5 605.92,-79.49"/>
</a>
</g>
</g>
<!-- Node3 -->
<g id="Node000003" class="node">
<title>Node3</title>
<g id="a_Node000003"><a xlink:href="sync-value_8cc.html" target="_top" xlink:title=" ">
<polygon fill="white" stroke="#666666" points="280,-24.5 134,-24.5 134,-5.5 280,-5.5 280,-24.5"/>
<text text-anchor="middle" x="207" y="-12.5" font-family="Helvetica,sans-Serif" font-size="10.00">benchmarks/sync&#45;value.cc</text>
</a>
</g>
</g>
<!-- Node1&#45;&gt;Node3 -->
<g id="edge2_Node000001_Node000003" class="edge">
<title>Node1&#45;&gt;Node3</title>
<g id="a_edge2_Node000001_Node000003"><a xlink:title=" ">
<path fill="none" stroke="#63b8ff" d="M605.79,-71.28C526.52,-61.98 398.87,-46.36 289,-30 278,-28.36 266.2,-26.44 255.07,-24.56"/>
<polygon fill="#63b8ff" stroke="#63b8ff" points="605.83,-74.81 616.17,-72.49 606.65,-67.85 605.83,-74.81"/>
</a>
</g>
</g>
<!-- Node4 -->
<g id="Node000004" class="node">
<title>Node4</title>
<g id="a_Node000004"><a xlink:href="webcface_8h.html" target="_top" xlink:title=" ">
<polygon fill="white" stroke="#666666" points="429.5,-30 298.5,-30 298.5,0 429.5,0 429.5,-30"/>
<text text-anchor="start" x="306.5" y="-18" font-family="Helvetica,sans-Serif" font-size="10.00">client/include/webcface</text>
<text text-anchor="middle" x="364" y="-7" font-family="Helvetica,sans-Serif" font-size="10.00">/webcface.h</text>
</a>
</g>
</g>
<!-- Node1&#45;&gt;Node4 -->
<g id="edge3_Node000001_Node000004" class="edge">
<title>Node1&#45;&gt;Node4</title>
<g id="a_edge3_Node000001_Node000004"><a xlink:title=" ">
<path fill="none" stroke="#63b8ff" d="M606.67,-64.84C552.86,-54.01 481.18,-39.58 429.69,-29.22"/>
<polygon fill="#63b8ff" stroke="#63b8ff" points="606,-68.27 616.5,-66.82 607.38,-61.41 606,-68.27"/>
</a>
</g>
</g>
<!-- Node5 -->
<g id="Node000005" class="node">
<title>Node5</title>
<g id="a_Node000005"><a xlink:href="c__wcf_2member_8cc.html" target="_top" xlink:title=" ">
<polygon fill="white" stroke="#666666" points="596.5,-24.5 447.5,-24.5 447.5,-5.5 596.5,-5.5 596.5,-24.5"/>
<text text-anchor="middle" x="522" y="-12.5" font-family="Helvetica,sans-Serif" font-size="10.00">client/src/c_wcf/member.cc</text>
</a>
</g>
</g>
<!-- Node1&#45;&gt;Node5 -->
<g id="edge4_Node000001_Node000005" class="edge">
<title>Node1&#45;&gt;Node5</title>
<g id="a_edge4_Node000001_Node000005"><a xlink:title=" ">
<path fill="none" stroke="#63b8ff" d="M637.25,-62.1C606.54,-49.82 567.16,-34.06 543.29,-24.52"/>
<polygon fill="#63b8ff" stroke="#63b8ff" points="636.3,-65.49 646.89,-65.95 638.9,-58.99 636.3,-65.49"/>
</a>
</g>
</g>
<!-- Node6 -->
<g id="Node000006" class="node">
<title>Node6</title>
<g id="a_Node000006"><a xlink:href="c__wcf_2value_8cc.html" target="_top" xlink:title=" ">
<polygon fill="white" stroke="#666666" points="749.5,-24.5 614.5,-24.5 614.5,-5.5 749.5,-5.5 749.5,-24.5"/>
<text text-anchor="middle" x="682" y="-12.5" font-family="Helvetica,sans-Serif" font-size="10.00">client/src/c_wcf/value.cc</text>
</a>
</g>
</g>
<!-- Node1&#45;&gt;Node6 -->
<g id="edge5_Node000001_Node000006" class="edge">
<title>Node1&#45;&gt;Node6</title>
<g id="a_edge5_Node000001_Node000006"><a xlink:title=" ">
<path fill="none" stroke="#63b8ff" d="M682,-55.6C682,-44.8 682,-32.78 682,-24.84"/>
<polygon fill="#63b8ff" stroke="#63b8ff" points="678.5,-55.8 682,-65.8 685.5,-55.8 678.5,-55.8"/>
</a>
</g>
</g>
<!-- Node7 -->
<g id="Node000007" class="node">
<title>Node7</title>
<g id="a_Node000007"><a xlink:href="client__msg__recv_8cc.html" target="_top" xlink:title=" ">
<polygon fill="white" stroke="#666666" points="884.5,-30 767.5,-30 767.5,0 884.5,0 884.5,-30"/>
<text text-anchor="start" x="775.5" y="-18" font-family="Helvetica,sans-Serif" font-size="10.00">client/src/client_msg</text>
<text text-anchor="middle" x="826" y="-7" font-family="Helvetica,sans-Serif" font-size="10.00">_recv.cc</text>
</a>
</g>
</g>
<!-- Node1&#45;&gt;Node7 -->
<g id="edge6_Node000001_Node000007" class="edge">
<title>Node1&#45;&gt;Node7</title>
<g id="a_edge6_Node000001_Node000007"><a xlink:title=" ">
<path fill="none" stroke="#63b8ff" d="M722.99,-61.78C745.69,-51.69 773.48,-39.34 794.47,-30.01"/>
<polygon fill="#63b8ff" stroke="#63b8ff" points="721.32,-58.7 713.6,-65.95 724.16,-65.09 721.32,-58.7"/>
</a>
</g>
</g>
<!-- Node8 -->
<g id="Node000008" class="node">
<title>Node8</title>
<g id="a_Node000008"><a xlink:href="field_8cc.html" target="_top" xlink:title=" ">
<polygon fill="white" stroke="#666666" points="1001,-24.5 903,-24.5 903,-5.5 1001,-5.5 1001,-24.5"/>
<text text-anchor="middle" x="952" y="-12.5" font-family="Helvetica,sans-Serif" font-size="10.00">client/src/field.cc</text>
</a>
</g>
</g>
<!-- Node1&#45;&gt;Node8 -->
<g id="edge7_Node000001_Node000008" class="edge">
<title>Node1&#45;&gt;Node8</title>
<g id="a_edge7_Node000001_Node000008"><a xlink:title=" ">
<path fill="none" stroke="#63b8ff" d="M751.85,-63.62C793.19,-53.91 846.6,-41.31 894,-30 901.36,-28.24 909.23,-26.35 916.73,-24.54"/>
<polygon fill="#63b8ff" stroke="#63b8ff" points="750.81,-60.27 741.87,-65.97 752.41,-67.09 750.81,-60.27"/>
</a>
</g>
</g>
<!-- Node9 -->
<g id="Node000009" class="node">
<title>Node9</title>
<g id="a_Node000009"><a xlink:href="member_8cc.html" target="_top" xlink:title=" ">
<polygon fill="white" stroke="#666666" points="1137,-24.5 1019,-24.5 1019,-5.5 1137,-5.5 1137,-24.5"/>
<text text-anchor="middle" x="1078" y="-12.5" font-family="Helvetica,sans-Serif" font-size="10.00">client/src/member.cc</text>
</a>
</g>
</g>
<!-- Node1&#45;&gt;Node9 -->
<g id="edge8_Node000001_Node000009" class="edge">
<title>Node1&#45;&gt;Node9</title>
<g id="a_edge8_Node000001_Node000009"><a xlink:title=" ">
<path fill="none" stroke="#63b8ff" d="M757.5,-69.62C824.1,-60.2 923.71,-45.45 1010,-30 1019.14,-28.36 1028.93,-26.45 1038.15,-24.56"/>
<polygon fill="#63b8ff" stroke="#63b8ff" points="756.92,-66.17 747.51,-71.03 757.9,-73.1 756.92,-66.17"/>
</a>
</g>
</g>
<!-- Node10 -->
<g id="Node000010" class="node">
<title>Node10</title>
<g id="a_Node000010"><a xlink:href="value_8cc.html" target="_top" xlink:title=" ">
<polygon fill="white" stroke="#666666" points="1259,-24.5 1155,-24.5 1155,-5.5 1259,-5.5 1259,-24.5"/>
<text text-anchor="middle" x="1207" y="-12.5" font-family="Helvetica,sans-Serif" font-size="10.00">client/src/value.cc</text>
</a>
</g>
</g>
<!-- Node1&#45;&gt;Node10 -->
<g id="edge9_Node000001_Node000010" class="edge">
<title>Node1&#45;&gt;Node10</title>
<g id="a_edge9_Node000001_Node000010"><a xlink:title=" ">
<path fill="none" stroke="#63b8ff" d="M757.72,-74.61C849.89,-67.4 1010.07,-52.84 1146,-30 1154.79,-28.52 1164.2,-26.56 1172.94,-24.56"/>
<polygon fill="#63b8ff" stroke="#63b8ff" points="757.35,-71.12 747.65,-75.38 757.89,-78.1 757.35,-71.12"/>
</a>
</g>
</g>
</g>
</svg>
