<?xml version="1.0" encoding="UTF-8" standalone="no"?>
<!DOCTYPE svg PUBLIC "-//W3C//DTD SVG 1.1//EN"
 "http://www.w3.org/Graphics/SVG/1.1/DTD/svg11.dtd">
<!-- Generated by graphviz version 2.43.0 (0)
 -->
<!-- Title: client/include/webcface/canvas2d.h Pages: 1 -->
<svg width="1453pt" height="434pt"
 viewBox="0.00 0.00 1453.00 434.00" xmlns="http://www.w3.org/2000/svg" xmlns:xlink="http://www.w3.org/1999/xlink">
<g id="graph0" class="graph" transform="scale(1 1) rotate(0) translate(4 430)">
<title>client/include/webcface/canvas2d.h</title>
<!-- Node1 -->
<g id="Node000001" class="node">
<title>Node1</title>
<g id="a_Node000001"><a xlink:title=" ">
<polygon fill="#999999" stroke="#666666" points="831.5,-426 700.5,-426 700.5,-396 831.5,-396 831.5,-426"/>
<text text-anchor="start" x="708.5" y="-414" font-family="Helvetica,sans-Serif" font-size="10.00">client/include/webcface</text>
<text text-anchor="middle" x="766" y="-403" font-family="Helvetica,sans-Serif" font-size="10.00">/canvas2d.h</text>
</a>
</g>
</g>
<!-- Node2 -->
<g id="Node000002" class="node">
<title>Node2</title>
<g id="a_Node000002"><a xlink:title=" ">
<polygon fill="#e0e0e0" stroke="#999999" points="73,-19 15,-19 15,0 73,0 73,-19"/>
<text text-anchor="middle" x="44" y="-7" font-family="Helvetica,sans-Serif" font-size="10.00">memory</text>
</a>
</g>
</g>
<!-- Node1&#45;&gt;Node2 -->
<g id="edge1_Node000001_Node000002" class="edge">
<title>Node1&#45;&gt;Node2</title>
<g id="a_edge1_Node000001_Node000002"><a xlink:title=" ">
<path fill="none" stroke="#63b8ff" d="M700.36,-407.14C514.84,-398.2 0,-367.04 0,-296.5 0,-296.5 0,-296.5 0,-124 0,-87.9 19.59,-49.43 32.63,-27.84"/>
<polygon fill="#63b8ff" stroke="#63b8ff" points="35.72,-29.5 38.07,-19.17 29.79,-25.79 35.72,-29.5"/>
</a>
</g>
</g>
<!-- Node3 -->
<g id="Node000003" class="node">
<title>Node3</title>
<g id="a_Node000003"><a xlink:href="webcface-config_8h.html" target="_top" xlink:title=" ">
<polygon fill="white" stroke="#666666" points="1018.5,-19 913.5,-19 913.5,0 1018.5,0 1018.5,-19"/>
<text text-anchor="middle" x="966" y="-7" font-family="Helvetica,sans-Serif" font-size="10.00">webcface&#45;config.h</text>
</a>
</g>
</g>
<!-- Node1&#45;&gt;Node3 -->
<g id="edge2_Node000001_Node000003" class="edge">
<title>Node1&#45;&gt;Node3</title>
<g id="a_edge2_Node000001_Node000003"><a xlink:title=" ">
<path fill="none" stroke="#63b8ff" d="M831.72,-405.87C1002.13,-394.3 1445,-358.28 1445,-296.5 1445,-296.5 1445,-296.5 1445,-124 1445,-84.22 1423.05,-73.82 1388,-55 1357.11,-38.42 1138.82,-21.89 1028.91,-14.51"/>
<polygon fill="#63b8ff" stroke="#63b8ff" points="1028.84,-10.99 1018.63,-13.82 1028.37,-17.98 1028.84,-10.99"/>
</a>
</g>
</g>
<!-- Node4 -->
<g id="Node000004" class="node">
<title>Node4</title>
<g id="a_Node000004"><a xlink:href="field_8h.html" target="_top" xlink:title=" ">
<polygon fill="white" stroke="#666666" points="435.5,-134.5 388.5,-134.5 388.5,-115.5 435.5,-115.5 435.5,-134.5"/>
<text text-anchor="middle" x="412" y="-122.5" font-family="Helvetica,sans-Serif" font-size="10.00">field.h</text>
</a>
</g>
</g>
<!-- Node1&#45;&gt;Node4 -->
<g id="edge3_Node000001_Node000004" class="edge">
<title>Node1&#45;&gt;Node4</title>
<g id="a_edge3_Node000001_Node000004"><a xlink:title=" ">
<path fill="none" stroke="#63b8ff" d="M700.39,-398.3C613.74,-380.95 472,-345.13 472,-296.5 472,-296.5 472,-296.5 472,-239.5 472,-201.1 444.83,-162.99 427.06,-142.16"/>
<polygon fill="#63b8ff" stroke="#63b8ff" points="429.59,-139.75 420.34,-134.58 424.35,-144.39 429.59,-139.75"/>
</a>
</g>
</g>
<!-- Node11 -->
<g id="Node000011" class="node">
<title>Node11</title>
<g id="a_Node000011"><a xlink:href="components_8h.html" target="_top" xlink:title=" ">
<polygon fill="white" stroke="#666666" points="992,-360 906,-360 906,-341 992,-341 992,-360"/>
<text text-anchor="middle" x="949" y="-348" font-family="Helvetica,sans-Serif" font-size="10.00">components.h</text>
</a>
</g>
</g>
<!-- Node1&#45;&gt;Node11 -->
<g id="edge16_Node000001_Node000011" class="edge">
<title>Node1&#45;&gt;Node11</title>
<g id="a_edge16_Node000001_Node000011"><a xlink:title=" ">
<path fill="none" stroke="#63b8ff" d="M809.83,-395.99C841.14,-385.98 882.78,-372.67 912.33,-363.22"/>
<polygon fill="#63b8ff" stroke="#63b8ff" points="913.78,-366.43 922.24,-360.05 911.65,-359.76 913.78,-366.43"/>
</a>
</g>
</g>
<!-- Node4&#45;&gt;Node2 -->
<g id="edge4_Node000004_Node000002" class="edge">
<title>Node4&#45;&gt;Node2</title>
<g id="a_edge4_Node000004_Node000002"><a xlink:title=" ">
<path fill="none" stroke="#63b8ff" d="M388.37,-123.85C337.52,-122.71 214.88,-115.49 123,-74 97.83,-62.63 73.83,-41.34 59.03,-26.56"/>
<polygon fill="#63b8ff" stroke="#63b8ff" points="61.28,-23.86 51.8,-19.13 56.26,-28.74 61.28,-23.86"/>
</a>
</g>
</g>
<!-- Node4&#45;&gt;Node3 -->
<g id="edge8_Node000004_Node000003" class="edge">
<title>Node4&#45;&gt;Node3</title>
<g id="a_edge8_Node000004_Node000003"><a xlink:title=" ">
<path fill="none" stroke="#63b8ff" d="M411.5,-115.14C411.2,-100.14 413.02,-69.91 431,-55 466.65,-25.42 769.62,-14.95 903.19,-11.74"/>
<polygon fill="#63b8ff" stroke="#63b8ff" points="903.36,-15.24 913.27,-11.51 903.19,-8.24 903.36,-15.24"/>
</a>
</g>
</g>
<!-- Node5 -->
<g id="Node000005" class="node">
<title>Node5</title>
<g id="a_Node000005"><a xlink:title=" ">
<polygon fill="#e0e0e0" stroke="#999999" points="360,-19 316,-19 316,0 360,0 360,-19"/>
<text text-anchor="middle" x="338" y="-7" font-family="Helvetica,sans-Serif" font-size="10.00">string</text>
</a>
</g>
</g>
<!-- Node4&#45;&gt;Node5 -->
<g id="edge5_Node000004_Node000005" class="edge">
<title>Node4&#45;&gt;Node5</title>
<g id="a_edge5_Node000004_Node000005"><a xlink:title=" ">
<path fill="none" stroke="#63b8ff" d="M400.1,-115.3C388.41,-106.19 370.8,-90.88 360,-74 351.16,-60.18 345.39,-42.38 341.99,-29.15"/>
<polygon fill="#63b8ff" stroke="#63b8ff" points="345.37,-28.22 339.67,-19.29 338.55,-29.83 345.37,-28.22"/>
</a>
</g>
</g>
<!-- Node6 -->
<g id="Node000006" class="node">
<title>Node6</title>
<g id="a_Node000006"><a xlink:title=" ">
<polygon fill="#e0e0e0" stroke="#999999" points="179.5,-19 106.5,-19 106.5,0 179.5,0 179.5,-19"/>
<text text-anchor="middle" x="143" y="-7" font-family="Helvetica,sans-Serif" font-size="10.00">string_view</text>
</a>
</g>
</g>
<!-- Node4&#45;&gt;Node6 -->
<g id="edge6_Node000004_Node000006" class="edge">
<title>Node4&#45;&gt;Node6</title>
<g id="a_edge6_Node000004_Node000006"><a xlink:title=" ">
<path fill="none" stroke="#63b8ff" d="M388.4,-123.49C327.15,-121.6 165.6,-112.97 133,-74 122.4,-61.33 127.4,-42.07 133.51,-28.09"/>
<polygon fill="#63b8ff" stroke="#63b8ff" points="136.7,-29.53 137.94,-19.01 130.41,-26.46 136.7,-29.53"/>
</a>
</g>
</g>
<!-- Node7 -->
<g id="Node000007" class="node">
<title>Node7</title>
<g id="a_Node000007"><a xlink:title=" ">
<polygon fill="#e0e0e0" stroke="#999999" points="875.5,-74 828.5,-74 828.5,-55 875.5,-55 875.5,-74"/>
<text text-anchor="middle" x="852" y="-62" font-family="Helvetica,sans-Serif" font-size="10.00">vector</text>
</a>
</g>
</g>
<!-- Node4&#45;&gt;Node7 -->
<g id="edge7_Node000004_Node000007" class="edge">
<title>Node4&#45;&gt;Node7</title>
<g id="a_edge7_Node000004_Node000007"><a xlink:title=" ">
<path fill="none" stroke="#63b8ff" d="M431.13,-115.49C436.5,-113.4 442.4,-111.37 448,-110 592.62,-74.72 633.09,-90.85 781,-74 793.09,-72.62 806.33,-71.05 818.06,-69.64"/>
<polygon fill="#63b8ff" stroke="#63b8ff" points="818.83,-73.08 828.34,-68.4 817.99,-66.13 818.83,-73.08"/>
</a>
</g>
</g>
<!-- Node8 -->
<g id="Node000008" class="node">
<title>Node8</title>
<g id="a_Node000008"><a xlink:href="common_2encoding_8h.html" target="_top" xlink:title=" ">
<polygon fill="white" stroke="#666666" points="307.5,-74 142.5,-74 142.5,-55 307.5,-55 307.5,-74"/>
<text text-anchor="middle" x="225" y="-62" font-family="Helvetica,sans-Serif" font-size="10.00">webcface/common/encoding.h</text>
</a>
</g>
</g>
<!-- Node4&#45;&gt;Node8 -->
<g id="edge9_Node000004_Node000008" class="edge">
<title>Node4&#45;&gt;Node8</title>
<g id="a_edge9_Node000004_Node000008"><a xlink:title=" ">
<path fill="none" stroke="#63b8ff" d="M388.32,-116.59C356.47,-106.63 299.52,-88.81 261.99,-77.07"/>
<polygon fill="#63b8ff" stroke="#63b8ff" points="263.02,-73.73 252.43,-74.08 260.93,-80.41 263.02,-73.73"/>
</a>
</g>
</g>
<!-- Node8&#45;&gt;Node2 -->
<g id="edge14_Node000008_Node000002" class="edge">
<title>Node8&#45;&gt;Node2</title>
<g id="a_edge14_Node000008_Node000002"><a xlink:title=" ">
<path fill="none" stroke="#63b8ff" d="M195.92,-54.98C165.31,-46.02 116.95,-31.86 83.03,-21.93"/>
<polygon fill="#63b8ff" stroke="#63b8ff" points="83.59,-18.45 73.01,-18.99 81.62,-25.16 83.59,-18.45"/>
</a>
</g>
</g>
<!-- Node8&#45;&gt;Node3 -->
<g id="edge15_Node000008_Node000003" class="edge">
<title>Node8&#45;&gt;Node3</title>
<g id="a_edge15_Node000008_Node000003"><a xlink:title=" ">
<path fill="none" stroke="#63b8ff" d="M307.85,-57.57C457.47,-46.87 769.6,-24.55 903.17,-14.99"/>
<polygon fill="#63b8ff" stroke="#63b8ff" points="903.51,-18.48 913.24,-14.27 903.01,-11.5 903.51,-18.48"/>
</a>
</g>
</g>
<!-- Node8&#45;&gt;Node5 -->
<g id="edge12_Node000008_Node000005" class="edge">
<title>Node8&#45;&gt;Node5</title>
<g id="a_edge12_Node000008_Node000005"><a xlink:title=" ">
<path fill="none" stroke="#63b8ff" d="M243.16,-54.98C261.25,-46.5 289.28,-33.35 310.19,-23.54"/>
<polygon fill="#63b8ff" stroke="#63b8ff" points="311.95,-26.59 319.51,-19.17 308.97,-20.25 311.95,-26.59"/>
</a>
</g>
</g>
<!-- Node8&#45;&gt;Node6 -->
<g id="edge13_Node000008_Node000006" class="edge">
<title>Node8&#45;&gt;Node6</title>
<g id="a_edge13_Node000008_Node000006"><a xlink:title=" ">
<path fill="none" stroke="#63b8ff" d="M211.83,-54.98C199.23,-46.84 180,-34.41 165.06,-24.76"/>
<polygon fill="#63b8ff" stroke="#63b8ff" points="166.71,-21.66 156.41,-19.17 162.91,-27.54 166.71,-21.66"/>
</a>
</g>
</g>
<!-- Node9 -->
<g id="Node000009" class="node">
<title>Node9</title>
<g id="a_Node000009"><a xlink:title=" ">
<polygon fill="#e0e0e0" stroke="#999999" points="294,-19 256,-19 256,0 294,0 294,-19"/>
<text text-anchor="middle" x="275" y="-7" font-family="Helvetica,sans-Serif" font-size="10.00">map</text>
</a>
</g>
</g>
<!-- Node8&#45;&gt;Node9 -->
<g id="edge10_Node000008_Node000009" class="edge">
<title>Node8&#45;&gt;Node9</title>
<g id="a_edge10_Node000008_Node000009"><a xlink:title=" ">
<path fill="none" stroke="#63b8ff" d="M233.26,-54.75C240.46,-47.11 251.11,-35.82 259.85,-26.56"/>
<polygon fill="#63b8ff" stroke="#63b8ff" points="262.58,-28.76 266.9,-19.09 257.49,-23.96 262.58,-28.76"/>
</a>
</g>
</g>
<!-- Node10 -->
<g id="Node000010" class="node">
<title>Node10</title>
<g id="a_Node000010"><a xlink:title=" ">
<polygon fill="#e0e0e0" stroke="#999999" points="238,-19 206,-19 206,0 238,0 238,-19"/>
<text text-anchor="middle" x="222" y="-7" font-family="Helvetica,sans-Serif" font-size="10.00">set</text>
</a>
</g>
</g>
<!-- Node8&#45;&gt;Node10 -->
<g id="edge11_Node000008_Node000010" class="edge">
<title>Node8&#45;&gt;Node10</title>
<g id="a_edge11_Node000008_Node000010"><a xlink:title=" ">
<path fill="none" stroke="#63b8ff" d="M224.5,-54.75C224.11,-47.8 223.55,-37.85 223.05,-29.13"/>
<polygon fill="#63b8ff" stroke="#63b8ff" points="226.55,-28.88 222.49,-19.09 219.56,-29.27 226.55,-28.88"/>
</a>
</g>
</g>
<!-- Node12 -->
<g id="Node000012" class="node">
<title>Node12</title>
<g id="a_Node000012"><a xlink:href="component__view_8h.html" target="_top" xlink:title=" ">
<polygon fill="white" stroke="#666666" points="959,-250 851,-250 851,-231 959,-231 959,-250"/>
<text text-anchor="middle" x="905" y="-238" font-family="Helvetica,sans-Serif" font-size="10.00">component_view.h</text>
</a>
</g>
</g>
<!-- Node11&#45;&gt;Node12 -->
<g id="edge17_Node000011_Node000012" class="edge">
<title>Node11&#45;&gt;Node12</title>
<g id="a_edge17_Node000011_Node000012"><a xlink:title=" ">
<path fill="none" stroke="#63b8ff" d="M942.33,-340.76C936.01,-332.1 926.67,-318.26 921,-305 914.84,-290.61 910.68,-273.33 908.15,-260.43"/>
<polygon fill="#63b8ff" stroke="#63b8ff" points="911.56,-259.63 906.33,-250.41 904.67,-260.87 911.56,-259.63"/>
</a>
</g>
</g>
<!-- Node23 -->
<g id="Node000023" class="node">
<title>Node23</title>
<g id="a_Node000023"><a xlink:href="component__canvas2d_8h.html" target="_top" xlink:title=" ">
<polygon fill="white" stroke="#666666" points="1062,-305 930,-305 930,-286 1062,-286 1062,-305"/>
<text text-anchor="middle" x="996" y="-293" font-family="Helvetica,sans-Serif" font-size="10.00">component_canvas2d.h</text>
</a>
</g>
</g>
<!-- Node11&#45;&gt;Node23 -->
<g id="edge41_Node000011_Node000023" class="edge">
<title>Node11&#45;&gt;Node23</title>
<g id="a_edge41_Node000011_Node000023"><a xlink:title=" ">
<path fill="none" stroke="#63b8ff" d="M956.76,-340.75C963.47,-333.18 973.34,-322.05 981.51,-312.84"/>
<polygon fill="#63b8ff" stroke="#63b8ff" points="984.37,-314.89 988.38,-305.09 979.13,-310.25 984.37,-314.89"/>
</a>
</g>
</g>
<!-- Node33 -->
<g id="Node000033" class="node">
<title>Node33</title>
<g id="a_Node000033"><a xlink:href="component__canvas3d_8h.html" target="_top" xlink:title=" ">
<polygon fill="white" stroke="#666666" points="1226,-305 1094,-305 1094,-286 1226,-286 1226,-305"/>
<text text-anchor="middle" x="1160" y="-293" font-family="Helvetica,sans-Serif" font-size="10.00">component_canvas3d.h</text>
</a>
</g>
</g>
<!-- Node11&#45;&gt;Node33 -->
<g id="edge66_Node000011_Node000033" class="edge">
<title>Node11&#45;&gt;Node33</title>
<g id="a_edge66_Node000011_Node000033"><a xlink:title=" ">
<path fill="none" stroke="#63b8ff" d="M982.9,-340.98C1019.02,-331.91 1076.32,-317.52 1115.92,-307.57"/>
<polygon fill="#63b8ff" stroke="#63b8ff" points="1116.99,-310.91 1125.83,-305.08 1115.28,-304.12 1116.99,-310.91"/>
</a>
</g>
</g>
<!-- Node12&#45;&gt;Node3 -->
<g id="edge22_Node000012_Node000003" class="edge">
<title>Node12&#45;&gt;Node3</title>
<g id="a_edge22_Node000012_Node000003"><a xlink:title=" ">
<path fill="none" stroke="#63b8ff" d="M906.86,-230.97C911.44,-210.19 923.76,-155.3 936,-110 943.7,-81.49 953.82,-48.76 960.12,-28.86"/>
<polygon fill="#63b8ff" stroke="#63b8ff" points="963.48,-29.83 963.18,-19.24 956.81,-27.7 963.48,-29.83"/>
</a>
</g>
</g>
<!-- Node12&#45;&gt;Node7 -->
<g id="edge21_Node000012_Node000007" class="edge">
<title>Node12&#45;&gt;Node7</title>
<g id="a_edge21_Node000012_Node000007"><a xlink:title=" ">
<path fill="none" stroke="#63b8ff" d="M902.3,-230.63C894.04,-203.52 869,-121.32 857.67,-84.13"/>
<polygon fill="#63b8ff" stroke="#63b8ff" points="860.89,-82.69 854.63,-74.14 854.2,-84.73 860.89,-82.69"/>
</a>
</g>
</g>
<!-- Node13 -->
<g id="Node000013" class="node">
<title>Node13</title>
<g id="a_Node000013"><a xlink:title=" ">
<polygon fill="#e0e0e0" stroke="#999999" points="850.5,-134.5 785.5,-134.5 785.5,-115.5 850.5,-115.5 850.5,-134.5"/>
<text text-anchor="middle" x="818" y="-122.5" font-family="Helvetica,sans-Serif" font-size="10.00">functional</text>
</a>
</g>
</g>
<!-- Node12&#45;&gt;Node13 -->
<g id="edge18_Node000012_Node000013" class="edge">
<title>Node12&#45;&gt;Node13</title>
<g id="a_edge18_Node000012_Node000013"><a xlink:title=" ">
<path fill="none" stroke="#63b8ff" d="M896.67,-230.94C888.32,-222.19 875.26,-208.08 865,-195 851.77,-178.13 838.14,-157.73 828.99,-143.5"/>
<polygon fill="#63b8ff" stroke="#63b8ff" points="831.75,-141.32 823.43,-134.76 825.84,-145.08 831.75,-141.32"/>
</a>
</g>
</g>
<!-- Node14 -->
<g id="Node000014" class="node">
<title>Node14</title>
<g id="a_Node000014"><a xlink:title=" ">
<polygon fill="#e0e0e0" stroke="#999999" points="1001,-134.5 945,-134.5 945,-115.5 1001,-115.5 1001,-134.5"/>
<text text-anchor="middle" x="973" y="-122.5" font-family="Helvetica,sans-Serif" font-size="10.00">optional</text>
</a>
</g>
</g>
<!-- Node12&#45;&gt;Node14 -->
<g id="edge19_Node000012_Node000014" class="edge">
<title>Node12&#45;&gt;Node14</title>
<g id="a_edge19_Node000012_Node000014"><a xlink:title=" ">
<path fill="none" stroke="#63b8ff" d="M910.11,-230.97C921.24,-212.4 947.83,-168.01 962.63,-143.32"/>
<polygon fill="#63b8ff" stroke="#63b8ff" points="965.69,-145.01 967.83,-134.63 959.69,-141.41 965.69,-145.01"/>
</a>
</g>
</g>
<!-- Node15 -->
<g id="Node000015" class="node">
<title>Node15</title>
<g id="a_Node000015"><a xlink:title=" ">
<polygon fill="#e0e0e0" stroke="#999999" points="1114.5,-195 1021.5,-195 1021.5,-176 1114.5,-176 1114.5,-195"/>
<text text-anchor="middle" x="1068" y="-183" font-family="Helvetica,sans-Serif" font-size="10.00">unordered_map</text>
</a>
</g>
</g>
<!-- Node12&#45;&gt;Node15 -->
<g id="edge20_Node000012_Node000015" class="edge">
<title>Node12&#45;&gt;Node15</title>
<g id="a_edge20_Node000012_Node000015"><a xlink:title=" ">
<path fill="none" stroke="#63b8ff" d="M931.19,-230.98C958.44,-222.13 1001.3,-208.19 1031.78,-198.28"/>
<polygon fill="#63b8ff" stroke="#63b8ff" points="1033.18,-201.5 1041.61,-195.08 1031.01,-194.85 1033.18,-201.5"/>
</a>
</g>
</g>
<!-- Node16 -->
<g id="Node000016" class="node">
<title>Node16</title>
<g id="a_Node000016"><a xlink:href="common_2val__adaptor_8h.html" target="_top" xlink:title=" ">
<polygon fill="white" stroke="#666666" points="584.5,-140 457.5,-140 457.5,-110 584.5,-110 584.5,-140"/>
<text text-anchor="start" x="465.5" y="-128" font-family="Helvetica,sans-Serif" font-size="10.00">webcface/common/val</text>
<text text-anchor="middle" x="521" y="-117" font-family="Helvetica,sans-Serif" font-size="10.00">_adaptor.h</text>
</a>
</g>
</g>
<!-- Node12&#45;&gt;Node16 -->
<g id="edge23_Node000012_Node000016" class="edge">
<title>Node12&#45;&gt;Node16</title>
<g id="a_edge23_Node000012_Node000016"><a xlink:title=" ">
<path fill="none" stroke="#63b8ff" d="M850.64,-232.98C802.61,-226.32 731.07,-214.21 671,-195 629.98,-181.88 585.44,-160.4 555.65,-144.88"/>
<polygon fill="#63b8ff" stroke="#63b8ff" points="556.99,-141.64 546.51,-140.07 553.73,-147.83 556.99,-141.64"/>
</a>
</g>
</g>
<!-- Node21 -->
<g id="Node000021" class="node">
<title>Node21</title>
<g id="a_Node000021"><a xlink:href="client_2include_2webcface_2text_8h.html" target="_top" xlink:title=" ">
<polygon fill="white" stroke="#666666" points="774.5,-195 679.5,-195 679.5,-176 774.5,-176 774.5,-195"/>
<text text-anchor="middle" x="727" y="-183" font-family="Helvetica,sans-Serif" font-size="10.00">webcface/text.h</text>
</a>
</g>
</g>
<!-- Node12&#45;&gt;Node21 -->
<g id="edge32_Node000012_Node000021" class="edge">
<title>Node12&#45;&gt;Node21</title>
<g id="a_edge32_Node000012_Node000021"><a xlink:title=" ">
<path fill="none" stroke="#63b8ff" d="M876.4,-230.98C846.39,-222.05 799.02,-207.94 765.68,-198.02"/>
<polygon fill="#63b8ff" stroke="#63b8ff" points="766.41,-194.58 755.82,-195.08 764.41,-201.29 766.41,-194.58"/>
</a>
</g>
</g>
<!-- Node16&#45;&gt;Node3 -->
<g id="edge31_Node000016_Node000003" class="edge">
<title>Node16&#45;&gt;Node3</title>
<g id="a_edge31_Node000016_Node000003"><a xlink:title=" ">
<path fill="none" stroke="#63b8ff" d="M551.38,-109.86C593.66,-90.21 665.78,-56.85 672,-55 749.76,-31.85 842.84,-20.35 903.13,-14.92"/>
<polygon fill="#63b8ff" stroke="#63b8ff" points="903.6,-18.4 913.26,-14.04 902.99,-11.42 903.6,-18.4"/>
</a>
</g>
</g>
<!-- Node16&#45;&gt;Node5 -->
<g id="edge24_Node000016_Node000005" class="edge">
<title>Node16&#45;&gt;Node5</title>
<g id="a_edge24_Node000016_Node000005"><a xlink:title=" ">
<path fill="none" stroke="#63b8ff" d="M494.25,-109.97C476.15,-100.28 451.84,-86.86 431,-74 405.27,-58.11 376.68,-38.24 358.08,-25"/>
<polygon fill="#63b8ff" stroke="#63b8ff" points="359.97,-22.05 349.81,-19.08 355.9,-27.75 359.97,-22.05"/>
</a>
</g>
</g>
<!-- Node16&#45;&gt;Node7 -->
<g id="edge25_Node000016_Node000007" class="edge">
<title>Node16&#45;&gt;Node7</title>
<g id="a_edge25_Node000016_Node000007"><a xlink:title=" ">
<path fill="none" stroke="#63b8ff" d="M584.82,-112.72C654.53,-100.4 763.54,-81.13 818.27,-71.46"/>
<polygon fill="#63b8ff" stroke="#63b8ff" points="818.91,-74.9 828.15,-69.72 817.69,-68.01 818.91,-74.9"/>
</a>
</g>
</g>
<!-- Node16&#45;&gt;Node8 -->
<g id="edge30_Node000016_Node000008" class="edge">
<title>Node16&#45;&gt;Node8</title>
<g id="a_edge30_Node000016_Node000008"><a xlink:title=" ">
<path fill="none" stroke="#63b8ff" d="M457.14,-111.38C403.71,-100.82 328.39,-85.93 278.19,-76.01"/>
<polygon fill="#63b8ff" stroke="#63b8ff" points="278.68,-72.54 268.19,-74.04 277.32,-79.41 278.68,-72.54"/>
</a>
</g>
</g>
<!-- Node17 -->
<g id="Node000017" class="node">
<title>Node17</title>
<g id="a_Node000017"><a xlink:title=" ">
<polygon fill="#e0e0e0" stroke="#999999" points="481.5,-74 440.5,-74 440.5,-55 481.5,-55 481.5,-74"/>
<text text-anchor="middle" x="461" y="-62" font-family="Helvetica,sans-Serif" font-size="10.00">tuple</text>
</a>
</g>
</g>
<!-- Node16&#45;&gt;Node17 -->
<g id="edge26_Node000016_Node000017" class="edge">
<title>Node16&#45;&gt;Node17</title>
<g id="a_edge26_Node000016_Node000017"><a xlink:title=" ">
<path fill="none" stroke="#63b8ff" d="M506.48,-109.84C497.68,-101.26 486.43,-90.3 477.33,-81.42"/>
<polygon fill="#63b8ff" stroke="#63b8ff" points="479.59,-78.74 469.99,-74.27 474.71,-83.75 479.59,-78.74"/>
</a>
</g>
</g>
<!-- Node18 -->
<g id="Node000018" class="node">
<title>Node18</title>
<g id="a_Node000018"><a xlink:title=" ">
<polygon fill="#e0e0e0" stroke="#999999" points="550,-74 500,-74 500,-55 550,-55 550,-74"/>
<text text-anchor="middle" x="525" y="-62" font-family="Helvetica,sans-Serif" font-size="10.00">cstdint</text>
</a>
</g>
</g>
<!-- Node16&#45;&gt;Node18 -->
<g id="edge27_Node000016_Node000018" class="edge">
<title>Node16&#45;&gt;Node18</title>
<g id="a_edge27_Node000016_Node000018"><a xlink:title=" ">
<path fill="none" stroke="#63b8ff" d="M521.97,-109.84C522.49,-102.21 523.14,-92.7 523.7,-84.45"/>
<polygon fill="#63b8ff" stroke="#63b8ff" points="527.21,-84.48 524.4,-74.27 520.23,-84 527.21,-84.48"/>
</a>
</g>
</g>
<!-- Node19 -->
<g id="Node000019" class="node">
<title>Node19</title>
<g id="a_Node000019"><a xlink:title=" ">
<polygon fill="#e0e0e0" stroke="#999999" points="771.5,-74 714.5,-74 714.5,-55 771.5,-55 771.5,-74"/>
<text text-anchor="middle" x="743" y="-62" font-family="Helvetica,sans-Serif" font-size="10.00">ostream</text>
</a>
</g>
</g>
<!-- Node16&#45;&gt;Node19 -->
<g id="edge28_Node000016_Node000019" class="edge">
<title>Node16&#45;&gt;Node19</title>
<g id="a_edge28_Node000016_Node000019"><a xlink:title=" ">
<path fill="none" stroke="#63b8ff" d="M574.17,-109.99C614.22,-99.44 668.2,-85.21 704.23,-75.72"/>
<polygon fill="#63b8ff" stroke="#63b8ff" points="705.56,-78.98 714.34,-73.05 703.78,-72.22 705.56,-78.98"/>
</a>
</g>
</g>
<!-- Node20 -->
<g id="Node000020" class="node">
<title>Node20</title>
<g id="a_Node000020"><a xlink:title=" ">
<polygon fill="#e0e0e0" stroke="#999999" points="619.5,-74 568.5,-74 568.5,-55 619.5,-55 619.5,-74"/>
<text text-anchor="middle" x="594" y="-62" font-family="Helvetica,sans-Serif" font-size="10.00">variant</text>
</a>
</g>
</g>
<!-- Node16&#45;&gt;Node20 -->
<g id="edge29_Node000016_Node000020" class="edge">
<title>Node16&#45;&gt;Node20</title>
<g id="a_edge29_Node000016_Node000020"><a xlink:title=" ">
<path fill="none" stroke="#63b8ff" d="M538.67,-109.84C549.7,-101 563.89,-89.63 575.13,-80.62"/>
<polygon fill="#63b8ff" stroke="#63b8ff" points="577.45,-83.25 583.06,-74.27 573.07,-77.79 577.45,-83.25"/>
</a>
</g>
</g>
<!-- Node21&#45;&gt;Node2 -->
<g id="edge37_Node000021_Node000002" class="edge">
<title>Node21&#45;&gt;Node2</title>
<g id="a_edge37_Node000021_Node000002"><a xlink:title=" ">
<path fill="none" stroke="#63b8ff" d="M679.32,-181.22C548.37,-171.46 186.44,-139.11 89,-74 72.02,-62.66 59.41,-42.58 51.92,-28.03"/>
<polygon fill="#63b8ff" stroke="#63b8ff" points="55.07,-26.5 47.57,-19.02 48.76,-29.54 55.07,-26.5"/>
</a>
</g>
</g>
<!-- Node21&#45;&gt;Node3 -->
<g id="edge39_Node000021_Node000003" class="edge">
<title>Node21&#45;&gt;Node3</title>
<g id="a_edge39_Node000021_Node000003"><a xlink:title=" ">
<path fill="none" stroke="#63b8ff" d="M730.58,-175.99C740.81,-152.71 772.53,-87.58 820,-55 844.71,-38.04 876.09,-27.38 903.42,-20.76"/>
<polygon fill="#63b8ff" stroke="#63b8ff" points="904.31,-24.15 913.28,-18.5 902.75,-17.32 904.31,-24.15"/>
</a>
</g>
</g>
<!-- Node21&#45;&gt;Node4 -->
<g id="edge38_Node000021_Node000004" class="edge">
<title>Node21&#45;&gt;Node4</title>
<g id="a_edge38_Node000021_Node000004"><a xlink:title=" ">
<path fill="none" stroke="#63b8ff" d="M679.46,-180.03C623.4,-174.05 527.77,-161.61 448,-140 445.84,-139.42 443.64,-138.75 441.44,-138.02"/>
<polygon fill="#63b8ff" stroke="#63b8ff" points="442.52,-134.7 431.93,-134.62 440.16,-141.29 442.52,-134.7"/>
</a>
</g>
</g>
<!-- Node21&#45;&gt;Node13 -->
<g id="edge33_Node000021_Node000013" class="edge">
<title>Node21&#45;&gt;Node13</title>
<g id="a_edge33_Node000021_Node000013"><a xlink:title=" ">
<path fill="none" stroke="#63b8ff" d="M740.43,-175.87C755.08,-166.45 778.76,-151.23 796.1,-140.08"/>
<polygon fill="#63b8ff" stroke="#63b8ff" points="798,-143.02 804.52,-134.67 794.21,-137.13 798,-143.02"/>
</a>
</g>
</g>
<!-- Node21&#45;&gt;Node14 -->
<g id="edge35_Node000021_Node000014" class="edge">
<title>Node21&#45;&gt;Node14</title>
<g id="a_edge35_Node000021_Node000014"><a xlink:title=" ">
<path fill="none" stroke="#63b8ff" d="M762.77,-175.99C808.71,-165.07 888.08,-146.19 935.05,-135.03"/>
<polygon fill="#63b8ff" stroke="#63b8ff" points="935.92,-138.42 944.84,-132.7 934.3,-131.61 935.92,-138.42"/>
</a>
</g>
</g>
<!-- Node21&#45;&gt;Node16 -->
<g id="edge40_Node000021_Node000016" class="edge">
<title>Node21&#45;&gt;Node16</title>
<g id="a_edge40_Node000021_Node000016"><a xlink:title=" ">
<path fill="none" stroke="#63b8ff" d="M697.05,-175.99C666.62,-167.35 618.68,-153.74 580.51,-142.9"/>
<polygon fill="#63b8ff" stroke="#63b8ff" points="581.1,-139.43 570.53,-140.06 579.19,-146.16 581.1,-139.43"/>
</a>
</g>
</g>
<!-- Node21&#45;&gt;Node19 -->
<g id="edge34_Node000021_Node000019" class="edge">
<title>Node21&#45;&gt;Node19</title>
<g id="a_edge34_Node000021_Node000019"><a xlink:title=" ">
<path fill="none" stroke="#63b8ff" d="M708.65,-175.88C695.21,-168.46 677.98,-156.36 670,-140 664.15,-128.02 663.47,-121.63 670,-110 678.11,-95.56 693.01,-85.26 707.25,-78.22"/>
<polygon fill="#63b8ff" stroke="#63b8ff" points="708.77,-81.38 716.43,-74.06 705.88,-75 708.77,-81.38"/>
</a>
</g>
</g>
<!-- Node22 -->
<g id="Node000022" class="node">
<title>Node22</title>
<g id="a_Node000022"><a xlink:title=" ">
<polygon fill="#e0e0e0" stroke="#999999" points="729,-134.5 679,-134.5 679,-115.5 729,-115.5 729,-134.5"/>
<text text-anchor="middle" x="704" y="-122.5" font-family="Helvetica,sans-Serif" font-size="10.00">chrono</text>
</a>
</g>
</g>
<!-- Node21&#45;&gt;Node22 -->
<g id="edge36_Node000021_Node000022" class="edge">
<title>Node21&#45;&gt;Node22</title>
<g id="a_edge36_Node000021_Node000022"><a xlink:title=" ">
<path fill="none" stroke="#63b8ff" d="M723.61,-175.87C720.34,-167.57 715.31,-154.78 711.16,-144.22"/>
<polygon fill="#63b8ff" stroke="#63b8ff" points="714.32,-142.69 707.41,-134.67 707.81,-145.25 714.32,-142.69"/>
</a>
</g>
</g>
<!-- Node23&#45;&gt;Node3 -->
<g id="edge44_Node000023_Node000003" class="edge">
<title>Node23&#45;&gt;Node3</title>
<g id="a_edge44_Node000023_Node000003"><a xlink:title=" ">
<path fill="none" stroke="#63b8ff" d="M929.69,-293.7C855.18,-288.99 736.15,-269.33 671,-195 654.62,-176.32 663.23,-164.74 661,-140 659.8,-126.72 656.52,-122.56 661,-110 671.62,-80.25 678.71,-70.89 706,-55 738.63,-36 837.13,-23.01 903.09,-16.17"/>
<polygon fill="#63b8ff" stroke="#63b8ff" points="903.78,-19.62 913.38,-15.13 903.07,-12.66 903.78,-19.62"/>
</a>
</g>
</g>
<!-- Node23&#45;&gt;Node4 -->
<g id="edge60_Node000023_Node000004" class="edge">
<title>Node23&#45;&gt;Node4</title>
<g id="a_edge60_Node000023_Node000004"><a xlink:title=" ">
<path fill="none" stroke="#63b8ff" d="M929.73,-290.85C832.99,-284.88 658.15,-271.5 599,-250 594.39,-248.32 481.17,-172.45 433.18,-140.23"/>
<polygon fill="#63b8ff" stroke="#63b8ff" points="435.02,-137.25 424.76,-134.58 431.11,-143.06 435.02,-137.25"/>
</a>
</g>
</g>
<!-- Node23&#45;&gt;Node12 -->
<g id="edge61_Node000023_Node000012" class="edge">
<title>Node23&#45;&gt;Node12</title>
<g id="a_edge61_Node000023_Node000012"><a xlink:title=" ">
<path fill="none" stroke="#63b8ff" d="M981.38,-285.98C967.14,-277.69 945.25,-264.94 928.55,-255.22"/>
<polygon fill="#63b8ff" stroke="#63b8ff" points="930.29,-252.18 919.89,-250.17 926.77,-258.23 930.29,-252.18"/>
</a>
</g>
</g>
<!-- Node23&#45;&gt;Node14 -->
<g id="edge43_Node000023_Node000014" class="edge">
<title>Node23&#45;&gt;Node14</title>
<g id="a_edge43_Node000023_Node000014"><a xlink:title=" ">
<path fill="none" stroke="#63b8ff" d="M994.83,-285.91C991.28,-259.89 980.57,-181.47 975.6,-145.01"/>
<polygon fill="#63b8ff" stroke="#63b8ff" points="979.02,-144.21 974.2,-134.77 972.08,-145.15 979.02,-144.21"/>
</a>
</g>
</g>
<!-- Node23&#45;&gt;Node15 -->
<g id="edge42_Node000023_Node000015" class="edge">
<title>Node23&#45;&gt;Node15</title>
<g id="a_edge42_Node000023_Node000015"><a xlink:title=" ">
<path fill="none" stroke="#63b8ff" d="M1001.89,-285.66C1013.82,-267.77 1041,-227 1056.54,-203.69"/>
<polygon fill="#63b8ff" stroke="#63b8ff" points="1059.59,-205.42 1062.23,-195.16 1053.77,-201.54 1059.59,-205.42"/>
</a>
</g>
</g>
<!-- Node24 -->
<g id="Node000024" class="node">
<title>Node24</title>
<g id="a_Node000024"><a xlink:href="transform_8h.html" target="_top" xlink:title=" ">
<polygon fill="white" stroke="#666666" points="1207,-195 1133,-195 1133,-176 1207,-176 1207,-195"/>
<text text-anchor="middle" x="1170" y="-183" font-family="Helvetica,sans-Serif" font-size="10.00">transform.h</text>
</a>
</g>
</g>
<!-- Node23&#45;&gt;Node24 -->
<g id="edge45_Node000023_Node000024" class="edge">
<title>Node23&#45;&gt;Node24</title>
<g id="a_edge45_Node000023_Node000024"><a xlink:title=" ">
<path fill="none" stroke="#63b8ff" d="M1009.95,-285.84C1039.85,-267.28 1110.41,-223.49 1147.04,-200.75"/>
<polygon fill="#63b8ff" stroke="#63b8ff" points="1149.34,-203.44 1155.99,-195.2 1145.65,-197.5 1149.34,-203.44"/>
</a>
</g>
</g>
<!-- Node32 -->
<g id="Node000032" class="node">
<title>Node32</title>
<g id="a_Node000032"><a xlink:href="geometry_8h.html" target="_top" xlink:title=" ">
<polygon fill="white" stroke="#666666" points="1378.5,-134.5 1257.5,-134.5 1257.5,-115.5 1378.5,-115.5 1378.5,-134.5"/>
<text text-anchor="middle" x="1318" y="-122.5" font-family="Helvetica,sans-Serif" font-size="10.00">webcface/geometry.h</text>
</a>
</g>
</g>
<!-- Node23&#45;&gt;Node32 -->
<g id="edge62_Node000023_Node000032" class="edge">
<title>Node23&#45;&gt;Node32</title>
<g id="a_edge62_Node000023_Node000032"><a xlink:title=" ">
<path fill="none" stroke="#63b8ff" d="M1015.79,-285.91C1036.18,-277.02 1068.88,-262.69 1097,-250 1150.11,-226.03 1165.26,-223.64 1216,-195 1245.84,-178.16 1278.3,-155.36 1298.4,-140.66"/>
<polygon fill="#63b8ff" stroke="#63b8ff" points="1300.49,-143.47 1306.46,-134.72 1296.34,-137.83 1300.49,-143.47"/>
</a>
</g>
</g>
<!-- Node24&#45;&gt;Node3 -->
<g id="edge46_Node000024_Node000003" class="edge">
<title>Node24&#45;&gt;Node3</title>
<g id="a_edge46_Node000024_Node000003"><a xlink:title=" ">
<path fill="none" stroke="#63b8ff" d="M1132.97,-177.63C1107.01,-171.33 1072.67,-159.87 1048,-140 1010.13,-109.5 984.54,-56.55 973,-28.75"/>
<polygon fill="#63b8ff" stroke="#63b8ff" points="976.11,-27.11 969.15,-19.12 969.61,-29.7 976.11,-27.11"/>
</a>
</g>
</g>
<!-- Node24&#45;&gt;Node14 -->
<g id="edge58_Node000024_Node000014" class="edge">
<title>Node24&#45;&gt;Node14</title>
<g id="a_edge58_Node000024_Node000014"><a xlink:title=" ">
<path fill="none" stroke="#63b8ff" d="M1138.71,-175.94C1107.32,-167.24 1057.65,-153.22 1015,-140 1012.71,-139.29 1010.35,-138.54 1007.98,-137.78"/>
<polygon fill="#63b8ff" stroke="#63b8ff" points="1008.86,-134.39 998.26,-134.61 1006.68,-141.04 1008.86,-134.39"/>
</a>
</g>
</g>
<!-- Node25 -->
<g id="Node000025" class="node">
<title>Node25</title>
<g id="a_Node000025"><a xlink:href="array__like_8h.html" target="_top" xlink:title=" ">
<polygon fill="white" stroke="#666666" points="1201,-134.5 1127,-134.5 1127,-115.5 1201,-115.5 1201,-134.5"/>
<text text-anchor="middle" x="1164" y="-122.5" font-family="Helvetica,sans-Serif" font-size="10.00">array_like.h</text>
</a>
</g>
</g>
<!-- Node24&#45;&gt;Node25 -->
<g id="edge47_Node000024_Node000025" class="edge">
<title>Node24&#45;&gt;Node25</title>
<g id="a_edge47_Node000024_Node000025"><a xlink:title=" ">
<path fill="none" stroke="#63b8ff" d="M1169.11,-175.87C1168.28,-167.75 1167.01,-155.31 1165.94,-144.89"/>
<polygon fill="#63b8ff" stroke="#63b8ff" points="1169.39,-144.26 1164.89,-134.67 1162.43,-144.97 1169.39,-144.26"/>
</a>
</g>
</g>
<!-- Node27 -->
<g id="Node000027" class="node">
<title>Node27</title>
<g id="a_Node000027"><a xlink:title=" ">
<polygon fill="#e0e0e0" stroke="#999999" points="1248,-74 1206,-74 1206,-55 1248,-55 1248,-74"/>
<text text-anchor="middle" x="1227" y="-62" font-family="Helvetica,sans-Serif" font-size="10.00">array</text>
</a>
</g>
</g>
<!-- Node24&#45;&gt;Node27 -->
<g id="edge57_Node000024_Node000027" class="edge">
<title>Node24&#45;&gt;Node27</title>
<g id="a_edge57_Node000024_Node000027"><a xlink:title=" ">
<path fill="none" stroke="#63b8ff" d="M1180.48,-175.7C1189.66,-167.42 1202.64,-154.2 1210,-140 1219.14,-122.37 1223.4,-99.89 1225.37,-84.26"/>
<polygon fill="#63b8ff" stroke="#63b8ff" points="1228.85,-84.56 1226.43,-74.25 1221.89,-83.83 1228.85,-84.56"/>
</a>
</g>
</g>
<!-- Node31 -->
<g id="Node000031" class="node">
<title>Node31</title>
<g id="a_Node000031"><a xlink:title=" ">
<polygon fill="#e0e0e0" stroke="#999999" points="1109,-134.5 1057,-134.5 1057,-115.5 1109,-115.5 1109,-134.5"/>
<text text-anchor="middle" x="1083" y="-122.5" font-family="Helvetica,sans-Serif" font-size="10.00">cassert</text>
</a>
</g>
</g>
<!-- Node24&#45;&gt;Node31 -->
<g id="edge59_Node000024_Node000031" class="edge">
<title>Node24&#45;&gt;Node31</title>
<g id="a_edge59_Node000024_Node000031"><a xlink:title=" ">
<path fill="none" stroke="#63b8ff" d="M1157.16,-175.87C1143.28,-166.54 1120.93,-151.51 1104.39,-140.38"/>
<polygon fill="#63b8ff" stroke="#63b8ff" points="1106.14,-137.34 1095.89,-134.67 1102.24,-143.15 1106.14,-137.34"/>
</a>
</g>
</g>
<!-- Node25&#45;&gt;Node3 -->
<g id="edge56_Node000025_Node000003" class="edge">
<title>Node25&#45;&gt;Node3</title>
<g id="a_edge56_Node000025_Node000003"><a xlink:title=" ">
<path fill="none" stroke="#63b8ff" d="M1157.34,-115.09C1146.04,-100.56 1121.72,-71.71 1095,-55 1070.44,-39.64 1039.91,-28.8 1014.72,-21.67"/>
<polygon fill="#63b8ff" stroke="#63b8ff" points="1015.57,-18.27 1005,-19.02 1013.73,-25.03 1015.57,-18.27"/>
</a>
</g>
</g>
<!-- Node25&#45;&gt;Node5 -->
<g id="edge52_Node000025_Node000005" class="edge">
<title>Node25&#45;&gt;Node5</title>
<g id="a_edge52_Node000025_Node000005"><a xlink:title=" ">
<path fill="none" stroke="#63b8ff" d="M1136.84,-115.42C1130.67,-113.56 1124.13,-111.65 1118,-110 1015.27,-82.27 990.1,-71.58 885,-55 690.95,-24.38 454.66,-14.22 370.04,-11.42"/>
<polygon fill="#63b8ff" stroke="#63b8ff" points="370.13,-7.92 360.03,-11.1 369.91,-14.92 370.13,-7.92"/>
</a>
</g>
</g>
<!-- Node25&#45;&gt;Node7 -->
<g id="edge49_Node000025_Node000007" class="edge">
<title>Node25&#45;&gt;Node7</title>
<g id="a_edge49_Node000025_Node000007"><a xlink:title=" ">
<path fill="none" stroke="#63b8ff" d="M1137.9,-115.37C1131.44,-113.43 1124.51,-111.5 1118,-110 1018.02,-87.01 990.77,-93.21 890,-74 888.55,-73.72 887.07,-73.43 885.57,-73.13"/>
<polygon fill="#63b8ff" stroke="#63b8ff" points="886.18,-69.68 875.67,-71.04 884.73,-76.53 886.18,-69.68"/>
</a>
</g>
</g>
<!-- Node26 -->
<g id="Node000026" class="node">
<title>Node26</title>
<g id="a_Node000026"><a xlink:title=" ">
<polygon fill="#e0e0e0" stroke="#999999" points="1085.5,-74 1020.5,-74 1020.5,-55 1085.5,-55 1085.5,-74"/>
<text text-anchor="middle" x="1053" y="-62" font-family="Helvetica,sans-Serif" font-size="10.00">stdexcept</text>
</a>
</g>
</g>
<!-- Node25&#45;&gt;Node26 -->
<g id="edge48_Node000025_Node000026" class="edge">
<title>Node25&#45;&gt;Node26</title>
<g id="a_edge48_Node000025_Node000026"><a xlink:title=" ">
<path fill="none" stroke="#63b8ff" d="M1147.62,-115.37C1129.42,-105.78 1099.8,-90.17 1078.55,-78.97"/>
<polygon fill="#63b8ff" stroke="#63b8ff" points="1079.92,-75.73 1069.45,-74.17 1076.66,-81.93 1079.92,-75.73"/>
</a>
</g>
</g>
<!-- Node25&#45;&gt;Node27 -->
<g id="edge50_Node000025_Node000027" class="edge">
<title>Node25&#45;&gt;Node27</title>
<g id="a_edge50_Node000025_Node000027"><a xlink:title=" ">
<path fill="none" stroke="#63b8ff" d="M1173.3,-115.37C1182.97,-106.38 1198.34,-92.11 1210.16,-81.14"/>
<polygon fill="#63b8ff" stroke="#63b8ff" points="1212.72,-83.54 1217.67,-74.17 1207.96,-78.41 1212.72,-83.54"/>
</a>
</g>
</g>
<!-- Node28 -->
<g id="Node000028" class="node">
<title>Node28</title>
<g id="a_Node000028"><a xlink:title=" ">
<polygon fill="#e0e0e0" stroke="#999999" points="1335.5,-74 1266.5,-74 1266.5,-55 1335.5,-55 1335.5,-74"/>
<text text-anchor="middle" x="1301" y="-62" font-family="Helvetica,sans-Serif" font-size="10.00">type_traits</text>
</a>
</g>
</g>
<!-- Node25&#45;&gt;Node28 -->
<g id="edge51_Node000025_Node000028" class="edge">
<title>Node25&#45;&gt;Node28</title>
<g id="a_edge51_Node000025_Node000028"><a xlink:title=" ">
<path fill="none" stroke="#63b8ff" d="M1183.92,-115.49C1206.95,-105.66 1245.08,-89.38 1271.54,-78.08"/>
<polygon fill="#63b8ff" stroke="#63b8ff" points="1273.23,-81.16 1281.05,-74.02 1270.48,-74.72 1273.23,-81.16"/>
</a>
</g>
</g>
<!-- Node29 -->
<g id="Node000029" class="node">
<title>Node29</title>
<g id="a_Node000029"><a xlink:href="trait_8h.html" target="_top" xlink:title=" ">
<polygon fill="white" stroke="#666666" points="1188,-74 1142,-74 1142,-55 1188,-55 1188,-74"/>
<text text-anchor="middle" x="1165" y="-62" font-family="Helvetica,sans-Serif" font-size="10.00">trait.h</text>
</a>
</g>
</g>
<!-- Node25&#45;&gt;Node29 -->
<g id="edge53_Node000025_Node000029" class="edge">
<title>Node25&#45;&gt;Node29</title>
<g id="a_edge53_Node000025_Node000029"><a xlink:title=" ">
<path fill="none" stroke="#63b8ff" d="M1164.15,-115.37C1164.29,-107.25 1164.5,-94.81 1164.68,-84.39"/>
<polygon fill="#63b8ff" stroke="#63b8ff" points="1168.18,-84.23 1164.85,-74.17 1161.18,-84.11 1168.18,-84.23"/>
</a>
</g>
</g>
<!-- Node29&#45;&gt;Node3 -->
<g id="edge55_Node000029_Node000003" class="edge">
<title>Node29&#45;&gt;Node3</title>
<g id="a_edge55_Node000029_Node000003"><a xlink:title=" ">
<path fill="none" stroke="#63b8ff" d="M1141.78,-57.32C1108.99,-48.58 1048.55,-32.49 1007.82,-21.64"/>
<polygon fill="#63b8ff" stroke="#63b8ff" points="1008.48,-18.19 997.92,-19 1006.68,-24.96 1008.48,-18.19"/>
</a>
</g>
</g>
<!-- Node30 -->
<g id="Node000030" class="node">
<title>Node30</title>
<g id="a_Node000030"><a xlink:title=" ">
<polygon fill="#e0e0e0" stroke="#999999" points="1191.5,-19 1138.5,-19 1138.5,0 1191.5,0 1191.5,-19"/>
<text text-anchor="middle" x="1165" y="-7" font-family="Helvetica,sans-Serif" font-size="10.00">cstddef</text>
</a>
</g>
</g>
<!-- Node29&#45;&gt;Node30 -->
<g id="edge54_Node000029_Node000030" class="edge">
<title>Node29&#45;&gt;Node30</title>
<g id="a_edge54_Node000029_Node000030"><a xlink:title=" ">
<path fill="none" stroke="#63b8ff" d="M1165,-54.75C1165,-47.8 1165,-37.85 1165,-29.13"/>
<polygon fill="#63b8ff" stroke="#63b8ff" points="1168.5,-29.09 1165,-19.09 1161.5,-29.09 1168.5,-29.09"/>
</a>
</g>
</g>
<!-- Node32&#45;&gt;Node3 -->
<g id="edge63_Node000032_Node000003" class="edge">
<title>Node32&#45;&gt;Node3</title>
<g id="a_edge63_Node000032_Node000003"><a xlink:title=" ">
<path fill="none" stroke="#63b8ff" d="M1326.52,-115.35C1339.44,-101.2 1360.9,-72.88 1345,-55 1324.38,-31.82 1131.02,-18.74 1028.75,-13.38"/>
<polygon fill="#63b8ff" stroke="#63b8ff" points="1028.71,-9.88 1018.55,-12.86 1028.36,-16.87 1028.71,-9.88"/>
</a>
</g>
</g>
<!-- Node32&#45;&gt;Node7 -->
<g id="edge64_Node000032_Node000007" class="edge">
<title>Node32&#45;&gt;Node7</title>
<g id="a_edge64_Node000032_Node000007"><a xlink:title=" ">
<path fill="none" stroke="#63b8ff" d="M1257.46,-116.1C1241.99,-114.09 1225.38,-111.95 1210,-110 1091.06,-94.9 949.83,-77.5 886.14,-69.68"/>
<polygon fill="#63b8ff" stroke="#63b8ff" points="886.24,-66.17 875.89,-68.43 885.39,-73.12 886.24,-66.17"/>
</a>
</g>
</g>
<!-- Node32&#45;&gt;Node28 -->
<g id="edge65_Node000032_Node000028" class="edge">
<title>Node32&#45;&gt;Node28</title>
<g id="a_edge65_Node000032_Node000028"><a xlink:title=" ">
<path fill="none" stroke="#63b8ff" d="M1315.49,-115.37C1313.11,-107.16 1309.44,-94.54 1306.39,-84.05"/>
<polygon fill="#63b8ff" stroke="#63b8ff" points="1309.67,-82.79 1303.52,-74.17 1302.95,-84.75 1309.67,-82.79"/>
</a>
</g>
</g>
<!-- Node33&#45;&gt;Node3 -->
<g id="edge71_Node000033_Node000003" class="edge">
<title>Node33&#45;&gt;Node3</title>
<g id="a_edge71_Node000033_Node000003"><a xlink:title=" ">
<path fill="none" stroke="#63b8ff" d="M1226.19,-292.96C1299.36,-287.33 1407,-265.6 1407,-186.5 1407,-186.5 1407,-186.5 1407,-124 1407,-87.14 1392.47,-74.19 1361,-55 1333.31,-38.12 1133.28,-22.03 1028.96,-14.68"/>
<polygon fill="#63b8ff" stroke="#63b8ff" points="1029.08,-11.18 1018.86,-13.97 1028.6,-18.16 1029.08,-11.18"/>
</a>
</g>
</g>
<!-- Node33&#45;&gt;Node12 -->
<g id="edge68_Node000033_Node000012" class="edge">
<title>Node33&#45;&gt;Node12</title>
<g id="a_edge68_Node000033_Node000012"><a xlink:title=" ">
<path fill="none" stroke="#63b8ff" d="M1119.03,-285.98C1074.74,-276.78 1004.06,-262.09 956.15,-252.13"/>
<polygon fill="#63b8ff" stroke="#63b8ff" points="956.79,-248.69 946.29,-250.08 955.37,-255.54 956.79,-248.69"/>
</a>
</g>
</g>
<!-- Node33&#45;&gt;Node15 -->
<g id="edge67_Node000033_Node000015" class="edge">
<title>Node33&#45;&gt;Node15</title>
<g id="a_edge67_Node000033_Node000015"><a xlink:title=" ">
<path fill="none" stroke="#63b8ff" d="M1152.47,-285.66C1137.1,-267.61 1101.88,-226.28 1082.12,-203.08"/>
<polygon fill="#63b8ff" stroke="#63b8ff" points="1084.52,-200.5 1075.38,-195.16 1079.2,-205.04 1084.52,-200.5"/>
</a>
</g>
</g>
<!-- Node33&#45;&gt;Node24 -->
<g id="edge70_Node000033_Node000024" class="edge">
<title>Node33&#45;&gt;Node24</title>
<g id="a_edge70_Node000033_Node000024"><a xlink:title=" ">
<path fill="none" stroke="#63b8ff" d="M1160.82,-285.66C1162.44,-268.17 1166.08,-228.8 1168.26,-205.27"/>
<polygon fill="#63b8ff" stroke="#63b8ff" points="1171.76,-205.44 1169.2,-195.16 1164.79,-204.79 1171.76,-205.44"/>
</a>
</g>
</g>
<!-- Node33&#45;&gt;Node32 -->
<g id="edge69_Node000033_Node000032" class="edge">
<title>Node33&#45;&gt;Node32</title>
<g id="a_edge69_Node000033_Node000032"><a xlink:title=" ">
<path fill="none" stroke="#63b8ff" d="M1203.45,-285.94C1226.15,-279.48 1252.9,-268.45 1271,-250 1299.92,-220.52 1311.39,-171.48 1315.66,-144.75"/>
<polygon fill="#63b8ff" stroke="#63b8ff" points="1319.14,-145.19 1317.08,-134.79 1312.21,-144.2 1319.14,-145.19"/>
</a>
</g>
</g>
</g>
</svg>
