<?xml version="1.0" encoding="UTF-8" standalone="no"?>
<!DOCTYPE svg PUBLIC "-//W3C//DTD SVG 1.1//EN"
 "http://www.w3.org/Graphics/SVG/1.1/DTD/svg11.dtd">
<!-- Generated by graphviz version 2.43.0 (0)
 -->
<!-- Title: client/include/webcface/text.h Pages: 1 -->
<svg width="1040pt" height="214pt"
 viewBox="0.00 0.00 1040.00 214.00" xmlns="http://www.w3.org/2000/svg" xmlns:xlink="http://www.w3.org/1999/xlink">
<g id="graph0" class="graph" transform="scale(1 1) rotate(0) translate(4 210)">
<title>client/include/webcface/text.h</title>
<!-- Node1 -->
<g id="Node000001" class="node">
<title>Node1</title>
<g id="a_Node000001"><a xlink:title=" ">
<polygon fill="#999999" stroke="#666666" points="553,-206 422,-206 422,-176 553,-176 553,-206"/>
<text text-anchor="start" x="430" y="-194" font-family="Helvetica,sans-Serif" font-size="10.00">client/include/webcface</text>
<text text-anchor="middle" x="487.5" y="-183" font-family="Helvetica,sans-Serif" font-size="10.00">/text.h</text>
</a>
</g>
</g>
<!-- Node2 -->
<g id="Node000002" class="node">
<title>Node2</title>
<g id="a_Node000002"><a xlink:title=" ">
<polygon fill="#e0e0e0" stroke="#999999" points="65,-134.5 0,-134.5 0,-115.5 65,-115.5 65,-134.5"/>
<text text-anchor="middle" x="32.5" y="-122.5" font-family="Helvetica,sans-Serif" font-size="10.00">functional</text>
</a>
</g>
</g>
<!-- Node1&#45;&gt;Node2 -->
<g id="edge1_Node000001_Node000002" class="edge">
<title>Node1&#45;&gt;Node2</title>
<g id="a_edge1_Node000001_Node000002"><a xlink:title=" ">
<path fill="none" stroke="#63b8ff" d="M421.94,-185.37C340.87,-178.86 198.96,-164.93 79.5,-140 75.87,-139.24 72.11,-138.34 68.38,-137.36"/>
<polygon fill="#63b8ff" stroke="#63b8ff" points="69.22,-133.96 58.65,-134.63 67.34,-140.7 69.22,-133.96"/>
</a>
</g>
</g>
<!-- Node3 -->
<g id="Node000003" class="node">
<title>Node3</title>
<g id="a_Node000003"><a xlink:title=" ">
<polygon fill="#e0e0e0" stroke="#999999" points="796,-74 739,-74 739,-55 796,-55 796,-74"/>
<text text-anchor="middle" x="767.5" y="-62" font-family="Helvetica,sans-Serif" font-size="10.00">ostream</text>
</a>
</g>
</g>
<!-- Node1&#45;&gt;Node3 -->
<g id="edge2_Node000001_Node000003" class="edge">
<title>Node1&#45;&gt;Node3</title>
<g id="a_edge2_Node000001_Node000003"><a xlink:title=" ">
<path fill="none" stroke="#63b8ff" d="M508.7,-175.71C535.14,-158.36 582.16,-129.07 625.5,-110 659.45,-95.06 699.98,-82.88 729.04,-75.07"/>
<polygon fill="#63b8ff" stroke="#63b8ff" points="730.03,-78.42 738.81,-72.49 728.24,-71.66 730.03,-78.42"/>
</a>
</g>
</g>
<!-- Node4 -->
<g id="Node000004" class="node">
<title>Node4</title>
<g id="a_Node000004"><a xlink:title=" ">
<polygon fill="#e0e0e0" stroke="#999999" points="835.5,-134.5 779.5,-134.5 779.5,-115.5 835.5,-115.5 835.5,-134.5"/>
<text text-anchor="middle" x="807.5" y="-122.5" font-family="Helvetica,sans-Serif" font-size="10.00">optional</text>
</a>
</g>
</g>
<!-- Node1&#45;&gt;Node4 -->
<g id="edge3_Node000001_Node000004" class="edge">
<title>Node1&#45;&gt;Node4</title>
<g id="a_edge3_Node000001_Node000004"><a xlink:title=" ">
<path fill="none" stroke="#63b8ff" d="M553.18,-181.94C611.04,-174.01 697.26,-160.14 770.5,-140 772.79,-139.37 775.14,-138.65 777.49,-137.89"/>
<polygon fill="#63b8ff" stroke="#63b8ff" points="778.71,-141.17 786.98,-134.54 776.39,-134.56 778.71,-141.17"/>
</a>
</g>
</g>
<!-- Node5 -->
<g id="Node000005" class="node">
<title>Node5</title>
<g id="a_Node000005"><a xlink:title=" ">
<polygon fill="#e0e0e0" stroke="#999999" points="903.5,-134.5 853.5,-134.5 853.5,-115.5 903.5,-115.5 903.5,-134.5"/>
<text text-anchor="middle" x="878.5" y="-122.5" font-family="Helvetica,sans-Serif" font-size="10.00">chrono</text>
</a>
</g>
</g>
<!-- Node1&#45;&gt;Node5 -->
<g id="edge4_Node000001_Node000005" class="edge">
<title>Node1&#45;&gt;Node5</title>
<g id="a_edge4_Node000001_Node000005"><a xlink:title=" ">
<path fill="none" stroke="#63b8ff" d="M553.31,-185.76C625.7,-179.95 744.99,-166.99 844.5,-140 846.44,-139.47 848.42,-138.86 850.4,-138.2"/>
<polygon fill="#63b8ff" stroke="#63b8ff" points="851.95,-141.36 860.09,-134.57 849.5,-134.8 851.95,-141.36"/>
</a>
</g>
</g>
<!-- Node6 -->
<g id="Node000006" class="node">
<title>Node6</title>
<g id="a_Node000006"><a xlink:title=" ">
<polygon fill="#e0e0e0" stroke="#999999" points="160.5,-19 102.5,-19 102.5,0 160.5,0 160.5,-19"/>
<text text-anchor="middle" x="131.5" y="-7" font-family="Helvetica,sans-Serif" font-size="10.00">memory</text>
</a>
</g>
</g>
<!-- Node1&#45;&gt;Node6 -->
<g id="edge5_Node000001_Node000006" class="edge">
<title>Node1&#45;&gt;Node6</title>
<g id="a_edge5_Node000001_Node000006"><a xlink:title=" ">
<path fill="none" stroke="#63b8ff" d="M421.95,-189.11C340.37,-184.1 203.55,-162.1 135.5,-74 125.9,-61.57 125.73,-43.36 127.48,-29.62"/>
<polygon fill="#63b8ff" stroke="#63b8ff" points="130.99,-29.81 129.23,-19.36 124.09,-28.63 130.99,-29.81"/>
</a>
</g>
</g>
<!-- Node7 -->
<g id="Node000007" class="node">
<title>Node7</title>
<g id="a_Node000007"><a xlink:href="field_8h.html" target="_top" xlink:title=" ">
<polygon fill="white" stroke="#666666" points="443,-134.5 396,-134.5 396,-115.5 443,-115.5 443,-134.5"/>
<text text-anchor="middle" x="419.5" y="-122.5" font-family="Helvetica,sans-Serif" font-size="10.00">field.h</text>
</a>
</g>
</g>
<!-- Node1&#45;&gt;Node7 -->
<g id="edge6_Node000001_Node000007" class="edge">
<title>Node1&#45;&gt;Node7</title>
<g id="a_edge6_Node000001_Node000007"><a xlink:title=" ">
<path fill="none" stroke="#63b8ff" d="M472.41,-175.8C461.7,-165.72 447.33,-152.19 436.27,-141.78"/>
<polygon fill="#63b8ff" stroke="#63b8ff" points="438.58,-139.15 428.9,-134.84 433.78,-144.25 438.58,-139.15"/>
</a>
</g>
</g>
<!-- Node11 -->
<g id="Node000011" class="node">
<title>Node11</title>
<g id="a_Node000011"><a xlink:href="webcface-config_8h.html" target="_top" xlink:title=" ">
<polygon fill="white" stroke="#666666" points="400,-19 295,-19 295,0 400,0 400,-19"/>
<text text-anchor="middle" x="347.5" y="-7" font-family="Helvetica,sans-Serif" font-size="10.00">webcface&#45;config.h</text>
</a>
</g>
</g>
<!-- Node1&#45;&gt;Node11 -->
<g id="edge22_Node000001_Node000011" class="edge">
<title>Node1&#45;&gt;Node11</title>
<g id="a_edge22_Node000001_Node000011"><a xlink:title=" ">
<path fill="none" stroke="#63b8ff" d="M441.27,-175.97C422.27,-168.12 401.5,-156.51 387.5,-140 360.07,-107.65 351.43,-56.66 348.73,-29.31"/>
<polygon fill="#63b8ff" stroke="#63b8ff" points="352.2,-28.84 347.89,-19.16 345.23,-29.41 352.2,-28.84"/>
</a>
</g>
</g>
<!-- Node17 -->
<g id="Node000017" class="node">
<title>Node17</title>
<g id="a_Node000017"><a xlink:href="common_2val__adaptor_8h.html" target="_top" xlink:title=" ">
<polygon fill="white" stroke="#666666" points="761,-140 634,-140 634,-110 761,-110 761,-140"/>
<text text-anchor="start" x="642" y="-128" font-family="Helvetica,sans-Serif" font-size="10.00">webcface/common/val</text>
<text text-anchor="middle" x="697.5" y="-117" font-family="Helvetica,sans-Serif" font-size="10.00">_adaptor.h</text>
</a>
</g>
</g>
<!-- Node1&#45;&gt;Node17 -->
<g id="edge23_Node000001_Node000017" class="edge">
<title>Node1&#45;&gt;Node17</title>
<g id="a_edge23_Node000001_Node000017"><a xlink:title=" ">
<path fill="none" stroke="#63b8ff" d="M533.59,-175.95C565.45,-166.24 608.03,-153.27 641.8,-142.98"/>
<polygon fill="#63b8ff" stroke="#63b8ff" points="642.98,-146.28 651.52,-140.01 640.94,-139.58 642.98,-146.28"/>
</a>
</g>
</g>
<!-- Node7&#45;&gt;Node6 -->
<g id="edge7_Node000007_Node000006" class="edge">
<title>Node7&#45;&gt;Node6</title>
<g id="a_edge7_Node000007_Node000006"><a xlink:title=" ">
<path fill="none" stroke="#63b8ff" d="M395.61,-122.68C336.69,-118.97 186.63,-106.46 150.5,-74 138.07,-62.83 133.63,-43.91 132.11,-29.62"/>
<polygon fill="#63b8ff" stroke="#63b8ff" points="135.59,-29.13 131.43,-19.39 128.6,-29.6 135.59,-29.13"/>
</a>
</g>
</g>
<!-- Node8 -->
<g id="Node000008" class="node">
<title>Node8</title>
<g id="a_Node000008"><a xlink:title=" ">
<polygon fill="#e0e0e0" stroke="#999999" points="667.5,-19 623.5,-19 623.5,0 667.5,0 667.5,-19"/>
<text text-anchor="middle" x="645.5" y="-7" font-family="Helvetica,sans-Serif" font-size="10.00">string</text>
</a>
</g>
</g>
<!-- Node7&#45;&gt;Node8 -->
<g id="edge8_Node000007_Node000008" class="edge">
<title>Node7&#45;&gt;Node8</title>
<g id="a_edge8_Node000007_Node000008"><a xlink:title=" ">
<path fill="none" stroke="#63b8ff" d="M443.34,-119.62C494.88,-109.96 613.12,-86.68 626.5,-74 638.63,-62.51 643.11,-43.63 644.72,-29.43"/>
<polygon fill="#63b8ff" stroke="#63b8ff" points="648.22,-29.52 645.48,-19.29 641.24,-29 648.22,-29.52"/>
</a>
</g>
</g>
<!-- Node9 -->
<g id="Node000009" class="node">
<title>Node9</title>
<g id="a_Node000009"><a xlink:title=" ">
<polygon fill="#e0e0e0" stroke="#999999" points="493,-19 420,-19 420,0 493,0 493,-19"/>
<text text-anchor="middle" x="456.5" y="-7" font-family="Helvetica,sans-Serif" font-size="10.00">string_view</text>
</a>
</g>
</g>
<!-- Node7&#45;&gt;Node9 -->
<g id="edge9_Node000007_Node000009" class="edge">
<title>Node7&#45;&gt;Node9</title>
<g id="a_edge9_Node000007_Node000009"><a xlink:title=" ">
<path fill="none" stroke="#63b8ff" d="M422.28,-115.47C428.25,-97.15 442.42,-53.68 450.53,-28.81"/>
<polygon fill="#63b8ff" stroke="#63b8ff" points="453.91,-29.72 453.69,-19.13 447.26,-27.55 453.91,-29.72"/>
</a>
</g>
</g>
<!-- Node10 -->
<g id="Node000010" class="node">
<title>Node10</title>
<g id="a_Node000010"><a xlink:title=" ">
<polygon fill="#e0e0e0" stroke="#999999" points="721,-74 674,-74 674,-55 721,-55 721,-74"/>
<text text-anchor="middle" x="697.5" y="-62" font-family="Helvetica,sans-Serif" font-size="10.00">vector</text>
</a>
</g>
</g>
<!-- Node7&#45;&gt;Node10 -->
<g id="edge10_Node000007_Node000010" class="edge">
<title>Node7&#45;&gt;Node10</title>
<g id="a_edge10_Node000007_Node000010"><a xlink:title=" ">
<path fill="none" stroke="#63b8ff" d="M443.03,-119.22C486.05,-110.45 580.25,-91.12 659.5,-74 660.95,-73.69 662.42,-73.37 663.91,-73.04"/>
<polygon fill="#63b8ff" stroke="#63b8ff" points="664.78,-76.43 673.8,-70.86 663.28,-69.6 664.78,-76.43"/>
</a>
</g>
</g>
<!-- Node7&#45;&gt;Node11 -->
<g id="edge11_Node000007_Node000011" class="edge">
<title>Node7&#45;&gt;Node11</title>
<g id="a_edge11_Node000007_Node000011"><a xlink:title=" ">
<path fill="none" stroke="#63b8ff" d="M414.09,-115.47C402.31,-96.9 374.15,-52.51 358.48,-27.82"/>
<polygon fill="#63b8ff" stroke="#63b8ff" points="361.29,-25.7 352.97,-19.13 355.38,-29.45 361.29,-25.7"/>
</a>
</g>
</g>
<!-- Node12 -->
<g id="Node000012" class="node">
<title>Node12</title>
<g id="a_Node000012"><a xlink:href="common_2encoding_8h.html" target="_top" xlink:title=" ">
<polygon fill="white" stroke="#666666" points="617,-74 452,-74 452,-55 617,-55 617,-74"/>
<text text-anchor="middle" x="534.5" y="-62" font-family="Helvetica,sans-Serif" font-size="10.00">webcface/common/encoding.h</text>
</a>
</g>
</g>
<!-- Node7&#45;&gt;Node12 -->
<g id="edge12_Node000007_Node000012" class="edge">
<title>Node7&#45;&gt;Node12</title>
<g id="a_edge12_Node000007_Node000012"><a xlink:title=" ">
<path fill="none" stroke="#63b8ff" d="M436.47,-115.37C455.41,-105.73 486.29,-90.03 508.33,-78.81"/>
<polygon fill="#63b8ff" stroke="#63b8ff" points="510.14,-81.82 517.46,-74.17 506.96,-75.58 510.14,-81.82"/>
</a>
</g>
</g>
<!-- Node15 -->
<g id="Node000015" class="node">
<title>Node15</title>
<g id="a_Node000015"><a xlink:href="complete_8h.html" target="_top" xlink:title=" ">
<polygon fill="white" stroke="#666666" points="281,-74 160,-74 160,-55 281,-55 281,-74"/>
<text text-anchor="middle" x="220.5" y="-62" font-family="Helvetica,sans-Serif" font-size="10.00">webcface/complete.h</text>
</a>
</g>
</g>
<!-- Node7&#45;&gt;Node15 -->
<g id="edge19_Node000007_Node000015" class="edge">
<title>Node7&#45;&gt;Node15</title>
<g id="a_edge19_Node000007_Node000015"><a xlink:title=" ">
<path fill="none" stroke="#63b8ff" d="M395.89,-117.06C362.2,-107.15 299.92,-88.85 259.36,-76.92"/>
<polygon fill="#63b8ff" stroke="#63b8ff" points="260.13,-73.5 249.55,-74.04 258.16,-80.22 260.13,-73.5"/>
</a>
</g>
</g>
<!-- Node12&#45;&gt;Node6 -->
<g id="edge17_Node000012_Node000006" class="edge">
<title>Node12&#45;&gt;Node6</title>
<g id="a_edge17_Node000012_Node000006"><a xlink:title=" ">
<path fill="none" stroke="#63b8ff" d="M462.01,-54.98C391.17,-46.49 280.3,-32.77 184.5,-19 180.02,-18.36 175.33,-17.65 170.68,-16.93"/>
<polygon fill="#63b8ff" stroke="#63b8ff" points="171.06,-13.45 160.63,-15.35 169.97,-20.36 171.06,-13.45"/>
</a>
</g>
</g>
<!-- Node12&#45;&gt;Node8 -->
<g id="edge15_Node000012_Node000008" class="edge">
<title>Node12&#45;&gt;Node8</title>
<g id="a_edge15_Node000012_Node000008"><a xlink:title=" ">
<path fill="none" stroke="#63b8ff" d="M552.33,-54.98C570.11,-46.5 597.65,-33.35 618.18,-23.54"/>
<polygon fill="#63b8ff" stroke="#63b8ff" points="619.83,-26.64 627.34,-19.17 616.81,-20.32 619.83,-26.64"/>
</a>
</g>
</g>
<!-- Node12&#45;&gt;Node9 -->
<g id="edge16_Node000012_Node000009" class="edge">
<title>Node12&#45;&gt;Node9</title>
<g id="a_edge16_Node000012_Node000009"><a xlink:title=" ">
<path fill="none" stroke="#63b8ff" d="M521.97,-54.98C510.1,-46.92 492.04,-34.65 477.89,-25.03"/>
<polygon fill="#63b8ff" stroke="#63b8ff" points="479.5,-21.9 469.26,-19.17 475.56,-27.69 479.5,-21.9"/>
</a>
</g>
</g>
<!-- Node12&#45;&gt;Node11 -->
<g id="edge18_Node000012_Node000011" class="edge">
<title>Node12&#45;&gt;Node11</title>
<g id="a_edge18_Node000012_Node000011"><a xlink:title=" ">
<path fill="none" stroke="#63b8ff" d="M504.46,-54.98C472.79,-46.01 422.73,-31.82 387.69,-21.89"/>
<polygon fill="#63b8ff" stroke="#63b8ff" points="388.36,-18.44 377.78,-19.08 386.45,-25.18 388.36,-18.44"/>
</a>
</g>
</g>
<!-- Node13 -->
<g id="Node000013" class="node">
<title>Node13</title>
<g id="a_Node000013"><a xlink:title=" ">
<polygon fill="#e0e0e0" stroke="#999999" points="550.5,-19 512.5,-19 512.5,0 550.5,0 550.5,-19"/>
<text text-anchor="middle" x="531.5" y="-7" font-family="Helvetica,sans-Serif" font-size="10.00">map</text>
</a>
</g>
</g>
<!-- Node12&#45;&gt;Node13 -->
<g id="edge13_Node000012_Node000013" class="edge">
<title>Node12&#45;&gt;Node13</title>
<g id="a_edge13_Node000012_Node000013"><a xlink:title=" ">
<path fill="none" stroke="#63b8ff" d="M534,-54.75C533.61,-47.8 533.05,-37.85 532.55,-29.13"/>
<polygon fill="#63b8ff" stroke="#63b8ff" points="536.05,-28.88 531.99,-19.09 529.06,-29.27 536.05,-28.88"/>
</a>
</g>
</g>
<!-- Node14 -->
<g id="Node000014" class="node">
<title>Node14</title>
<g id="a_Node000014"><a xlink:title=" ">
<polygon fill="#e0e0e0" stroke="#999999" points="600.5,-19 568.5,-19 568.5,0 600.5,0 600.5,-19"/>
<text text-anchor="middle" x="584.5" y="-7" font-family="Helvetica,sans-Serif" font-size="10.00">set</text>
</a>
</g>
</g>
<!-- Node12&#45;&gt;Node14 -->
<g id="edge14_Node000012_Node000014" class="edge">
<title>Node12&#45;&gt;Node14</title>
<g id="a_edge14_Node000012_Node000014"><a xlink:title=" ">
<path fill="none" stroke="#63b8ff" d="M542.76,-54.75C549.96,-47.11 560.61,-35.82 569.35,-26.56"/>
<polygon fill="#63b8ff" stroke="#63b8ff" points="572.08,-28.76 576.4,-19.09 566.99,-23.96 572.08,-28.76"/>
</a>
</g>
</g>
<!-- Node15&#45;&gt;Node11 -->
<g id="edge21_Node000015_Node000011" class="edge">
<title>Node15&#45;&gt;Node11</title>
<g id="a_edge21_Node000015_Node000011"><a xlink:title=" ">
<path fill="none" stroke="#63b8ff" d="M240.9,-54.98C261.52,-46.38 293.61,-32.99 317.19,-23.15"/>
<polygon fill="#63b8ff" stroke="#63b8ff" points="318.84,-26.25 326.72,-19.17 316.15,-19.79 318.84,-26.25"/>
</a>
</g>
</g>
<!-- Node16 -->
<g id="Node000016" class="node">
<title>Node16</title>
<g id="a_Node000016"><a xlink:title=" ">
<polygon fill="#e0e0e0" stroke="#999999" points="247,-19 194,-19 194,0 247,0 247,-19"/>
<text text-anchor="middle" x="220.5" y="-7" font-family="Helvetica,sans-Serif" font-size="10.00">cstddef</text>
</a>
</g>
</g>
<!-- Node15&#45;&gt;Node16 -->
<g id="edge20_Node000015_Node000016" class="edge">
<title>Node15&#45;&gt;Node16</title>
<g id="a_edge20_Node000015_Node000016"><a xlink:title=" ">
<path fill="none" stroke="#63b8ff" d="M220.5,-54.75C220.5,-47.8 220.5,-37.85 220.5,-29.13"/>
<polygon fill="#63b8ff" stroke="#63b8ff" points="224,-29.09 220.5,-19.09 217,-29.09 224,-29.09"/>
</a>
</g>
</g>
<!-- Node17&#45;&gt;Node3 -->
<g id="edge28_Node000017_Node000003" class="edge">
<title>Node17&#45;&gt;Node3</title>
<g id="a_edge28_Node000017_Node000003"><a xlink:title=" ">
<path fill="none" stroke="#63b8ff" d="M714.45,-109.84C724.92,-101.09 738.36,-89.85 749.09,-80.88"/>
<polygon fill="#63b8ff" stroke="#63b8ff" points="751.58,-83.36 757.01,-74.27 747.09,-77.99 751.58,-83.36"/>
</a>
</g>
</g>
<!-- Node17&#45;&gt;Node8 -->
<g id="edge24_Node000017_Node000008" class="edge">
<title>Node17&#45;&gt;Node8</title>
<g id="a_edge24_Node000017_Node000008"><a xlink:title=" ">
<path fill="none" stroke="#63b8ff" d="M754.42,-109.98C789.54,-98.5 824.55,-80.07 805.5,-55 790.1,-34.74 719.85,-21.26 677.73,-14.84"/>
<polygon fill="#63b8ff" stroke="#63b8ff" points="678.07,-11.36 667.67,-13.37 677.06,-18.28 678.07,-11.36"/>
</a>
</g>
</g>
<!-- Node17&#45;&gt;Node10 -->
<g id="edge25_Node000017_Node000010" class="edge">
<title>Node17&#45;&gt;Node10</title>
<g id="a_edge25_Node000017_Node000010"><a xlink:title=" ">
<path fill="none" stroke="#63b8ff" d="M697.5,-109.84C697.5,-102.21 697.5,-92.7 697.5,-84.45"/>
<polygon fill="#63b8ff" stroke="#63b8ff" points="701,-84.27 697.5,-74.27 694,-84.27 701,-84.27"/>
</a>
</g>
</g>
<!-- Node17&#45;&gt;Node11 -->
<g id="edge31_Node000017_Node000011" class="edge">
<title>Node17&#45;&gt;Node11</title>
<g id="a_edge31_Node000017_Node000011"><a xlink:title=" ">
<path fill="none" stroke="#63b8ff" d="M633.94,-118.42C581.33,-112.19 505.45,-99.42 443.5,-74 413.97,-61.89 383.93,-40.17 365.5,-25.55"/>
<polygon fill="#63b8ff" stroke="#63b8ff" points="367.64,-22.78 357.66,-19.21 363.23,-28.22 367.64,-22.78"/>
</a>
</g>
</g>
<!-- Node17&#45;&gt;Node12 -->
<g id="edge30_Node000017_Node000012" class="edge">
<title>Node17&#45;&gt;Node12</title>
<g id="a_edge30_Node000017_Node000012"><a xlink:title=" ">
<path fill="none" stroke="#63b8ff" d="M658.46,-109.99C630.9,-100.1 594.35,-86.98 568.09,-77.56"/>
<polygon fill="#63b8ff" stroke="#63b8ff" points="569.17,-74.22 558.57,-74.14 566.8,-80.81 569.17,-74.22"/>
</a>
</g>
</g>
<!-- Node18 -->
<g id="Node000018" class="node">
<title>Node18</title>
<g id="a_Node000018"><a xlink:title=" ">
<polygon fill="#e0e0e0" stroke="#999999" points="894,-74 853,-74 853,-55 894,-55 894,-74"/>
<text text-anchor="middle" x="873.5" y="-62" font-family="Helvetica,sans-Serif" font-size="10.00">tuple</text>
</a>
</g>
</g>
<!-- Node17&#45;&gt;Node18 -->
<g id="edge26_Node000017_Node000018" class="edge">
<title>Node17&#45;&gt;Node18</title>
<g id="a_edge26_Node000017_Node000018"><a xlink:title=" ">
<path fill="none" stroke="#63b8ff" d="M739.66,-109.99C771.54,-99.39 814.56,-85.09 843.12,-75.6"/>
<polygon fill="#63b8ff" stroke="#63b8ff" points="844.56,-78.81 852.94,-72.33 842.35,-72.17 844.56,-78.81"/>
</a>
</g>
</g>
<!-- Node19 -->
<g id="Node000019" class="node">
<title>Node19</title>
<g id="a_Node000019"><a xlink:title=" ">
<polygon fill="#e0e0e0" stroke="#999999" points="962.5,-74 912.5,-74 912.5,-55 962.5,-55 962.5,-74"/>
<text text-anchor="middle" x="937.5" y="-62" font-family="Helvetica,sans-Serif" font-size="10.00">cstdint</text>
</a>
</g>
</g>
<!-- Node17&#45;&gt;Node19 -->
<g id="edge27_Node000017_Node000019" class="edge">
<title>Node17&#45;&gt;Node19</title>
<g id="a_edge27_Node000017_Node000019"><a xlink:title=" ">
<path fill="none" stroke="#63b8ff" d="M755.69,-109.99C794.62,-100.59 847.28,-87.83 902.32,-74.28"/>
<polygon fill="#63b8ff" stroke="#63b8ff" points="903.38,-77.62 912.25,-71.83 901.71,-70.83 903.38,-77.62"/>
</a>
</g>
</g>
<!-- Node20 -->
<g id="Node000020" class="node">
<title>Node20</title>
<g id="a_Node000020"><a xlink:title=" ">
<polygon fill="#e0e0e0" stroke="#999999" points="1032,-74 981,-74 981,-55 1032,-55 1032,-74"/>
<text text-anchor="middle" x="1006.5" y="-62" font-family="Helvetica,sans-Serif" font-size="10.00">variant</text>
</a>
</g>
</g>
<!-- Node17&#45;&gt;Node20 -->
<g id="edge29_Node000017_Node000020" class="edge">
<title>Node17&#45;&gt;Node20</title>
<g id="a_edge29_Node000017_Node000020"><a xlink:title=" ">
<path fill="none" stroke="#63b8ff" d="M761.19,-111.74C764.34,-111.15 767.45,-110.56 770.5,-110 856.68,-94.02 881.05,-92.79 971.11,-73.97"/>
<polygon fill="#63b8ff" stroke="#63b8ff" points="971.86,-77.39 980.93,-71.9 970.42,-70.54 971.86,-77.39"/>
</a>
</g>
</g>
</g>
</svg>
