<?xml version="1.0" encoding="UTF-8" standalone="no"?>
<!DOCTYPE svg PUBLIC "-//W3C//DTD SVG 1.1//EN"
 "http://www.w3.org/Graphics/SVG/1.1/DTD/svg11.dtd">
<!-- Generated by graphviz version 2.43.0 (0)
 -->
<!-- Title: client/include/webcface/exception.h Pages: 1 -->
<svg width="266pt" height="148pt"
 viewBox="0.00 0.00 265.90 148.00" xmlns="http://www.w3.org/2000/svg" xmlns:xlink="http://www.w3.org/1999/xlink">
<g id="graph0" class="graph" transform="scale(1 1) rotate(0) translate(4 144)">
<title>client/include/webcface/exception.h</title>
<!-- Node1 -->
<g id="Node000001" class="node">
<title>Node1</title>
<g id="a_Node000001"><a xlink:title=" ">
<polygon fill="#999999" stroke="#666666" points="226,-140 95,-140 95,-110 226,-110 226,-140"/>
<text text-anchor="start" x="103" y="-128" font-family="Helvetica,sans-Serif" font-size="10.00">client/include/webcface</text>
<text text-anchor="middle" x="160.5" y="-117" font-family="Helvetica,sans-Serif" font-size="10.00">/exception.h</text>
</a>
</g>
</g>
<!-- Node2 -->
<g id="Node000002" class="node">
<title>Node2</title>
<g id="a_Node000002"><a xlink:href="webcface-config_8h.html" target="_top" xlink:title=" ">
<polygon fill="white" stroke="#666666" points="105,-19 0,-19 0,0 105,0 105,-19"/>
<text text-anchor="middle" x="52.5" y="-7" font-family="Helvetica,sans-Serif" font-size="10.00">webcface&#45;config.h</text>
</a>
</g>
</g>
<!-- Node1&#45;&gt;Node2 -->
<g id="edge1_Node000001_Node000002" class="edge">
<title>Node1&#45;&gt;Node2</title>
<g id="a_edge1_Node000001_Node000002"><a xlink:title=" ">
<path fill="none" stroke="#63b8ff" d="M117.19,-109.8C99.37,-101.89 80,-90.29 67.5,-74 57.69,-61.22 54.15,-43.05 52.94,-29.42"/>
<polygon fill="#63b8ff" stroke="#63b8ff" points="56.43,-29.05 52.39,-19.25 49.44,-29.43 56.43,-29.05"/>
</a>
</g>
</g>
<!-- Node3 -->
<g id="Node000003" class="node">
<title>Node3</title>
<g id="a_Node000003"><a xlink:href="common_2include_2webcface_2common_2exception_8h.html" target="_top" xlink:title=" ">
<polygon fill="white" stroke="#666666" points="245,-74 76,-74 76,-55 245,-55 245,-74"/>
<text text-anchor="middle" x="160.5" y="-62" font-family="Helvetica,sans-Serif" font-size="10.00">webcface/common/exception.h</text>
</a>
</g>
</g>
<!-- Node1&#45;&gt;Node3 -->
<g id="edge2_Node000001_Node000003" class="edge">
<title>Node1&#45;&gt;Node3</title>
<g id="a_edge2_Node000001_Node000003"><a xlink:title=" ">
<path fill="none" stroke="#63b8ff" d="M160.5,-109.84C160.5,-102.21 160.5,-92.7 160.5,-84.45"/>
<polygon fill="#63b8ff" stroke="#63b8ff" points="164,-84.27 160.5,-74.27 157,-84.27 164,-84.27"/>
</a>
</g>
</g>
<!-- Node4 -->
<g id="Node000004" class="node">
<title>Node4</title>
<g id="a_Node000004"><a xlink:title=" ">
<polygon fill="#e0e0e0" stroke="#999999" points="249,-19 184,-19 184,0 249,0 249,-19"/>
<text text-anchor="middle" x="216.5" y="-7" font-family="Helvetica,sans-Serif" font-size="10.00">stdexcept</text>
</a>
</g>
</g>
<!-- Node1&#45;&gt;Node4 -->
<g id="edge5_Node000001_Node000004" class="edge">
<title>Node1&#45;&gt;Node4</title>
<g id="a_edge5_Node000001_Node000004"><a xlink:title=" ">
<path fill="none" stroke="#63b8ff" d="M209.11,-109.92C226.56,-102.25 244.41,-90.8 254.5,-74 264.34,-57.61 249.91,-38.82 236.09,-25.96"/>
<polygon fill="#63b8ff" stroke="#63b8ff" points="238.06,-23.04 228.21,-19.13 233.48,-28.33 238.06,-23.04"/>
</a>
</g>
</g>
<!-- Node3&#45;&gt;Node2 -->
<g id="edge3_Node000003_Node000002" class="edge">
<title>Node3&#45;&gt;Node2</title>
<g id="a_edge3_Node000003_Node000002"><a xlink:title=" ">
<path fill="none" stroke="#63b8ff" d="M143.15,-54.98C125.93,-46.54 99.3,-33.47 79.35,-23.68"/>
<polygon fill="#63b8ff" stroke="#63b8ff" points="80.69,-20.43 70.17,-19.17 77.6,-26.72 80.69,-20.43"/>
</a>
</g>
</g>
<!-- Node3&#45;&gt;Node4 -->
<g id="edge4_Node000003_Node000004" class="edge">
<title>Node3&#45;&gt;Node4</title>
<g id="a_edge4_Node000003_Node000004"><a xlink:title=" ">
<path fill="none" stroke="#63b8ff" d="M169.5,-54.98C177.69,-47.23 190.01,-35.58 199.97,-26.14"/>
<polygon fill="#63b8ff" stroke="#63b8ff" points="202.48,-28.59 207.34,-19.17 197.67,-23.5 202.48,-28.59"/>
</a>
</g>
</g>
</g>
</svg>
