<?xml version="1.0" encoding="UTF-8" standalone="no"?>
<!DOCTYPE svg PUBLIC "-//W3C//DTD SVG 1.1//EN"
 "http://www.w3.org/Graphics/SVG/1.1/DTD/svg11.dtd">
<!-- Generated by graphviz version 2.43.0 (0)
 -->
<!-- Title: /home/runner/work/webcface/webcface/client/include/webcface/client.h Pages: 1 -->
<svg width="3463pt" height="203pt"
 viewBox="0.00 0.00 3462.50 203.00" xmlns="http://www.w3.org/2000/svg" xmlns:xlink="http://www.w3.org/1999/xlink">
<g id="graph0" class="graph" transform="scale(1 1) rotate(0) translate(4 199)">
<title>/home/runner/work/webcface/webcface/client/include/webcface/client.h</title>
<!-- Node1 -->
<g id="Node000001" class="node">
<title>Node1</title>
<g id="a_Node000001"><a xlink:title=" ">
<polygon fill="#999999" stroke="#666666" points="1944,-195 1786,-195 1786,-154 1944,-154 1944,-195"/>
<text text-anchor="start" x="1794" y="-183" font-family="Helvetica,sans-Serif" font-size="10.00">/home/runner/work/webcface</text>
<text text-anchor="start" x="1794" y="-172" font-family="Helvetica,sans-Serif" font-size="10.00">/webcface/client/include</text>
<text text-anchor="middle" x="1865" y="-161" font-family="Helvetica,sans-Serif" font-size="10.00">/webcface/client.h</text>
</a>
</g>
</g>
<!-- Node2 -->
<g id="Node000002" class="node">
<title>Node2</title>
<g id="a_Node000002"><a xlink:href="webcface_8h.html" target="_top" xlink:title=" ">
<polygon fill="white" stroke="#666666" points="334,-118 176,-118 176,-77 334,-77 334,-118"/>
<text text-anchor="start" x="184" y="-106" font-family="Helvetica,sans-Serif" font-size="10.00">/home/runner/work/webcface</text>
<text text-anchor="start" x="184" y="-95" font-family="Helvetica,sans-Serif" font-size="10.00">/webcface/client/include</text>
<text text-anchor="middle" x="255" y="-84" font-family="Helvetica,sans-Serif" font-size="10.00">/webcface/webcface.h</text>
</a>
</g>
</g>
<!-- Node1&#45;&gt;Node2 -->
<g id="edge1_Node000001_Node000002" class="edge">
<title>Node1&#45;&gt;Node2</title>
<g id="a_edge1_Node000001_Node000002"><a xlink:title=" ">
<path fill="none" stroke="#63b8ff" d="M1775.69,-172.37C1493.44,-168.48 622.8,-153.8 343,-118 340.05,-117.62 337.05,-117.19 334.03,-116.72"/>
<polygon fill="#63b8ff" stroke="#63b8ff" points="1775.84,-175.88 1785.88,-172.51 1775.93,-168.88 1775.84,-175.88"/>
</a>
</g>
</g>
<!-- Node3 -->
<g id="Node000003" class="node">
<title>Node3</title>
<g id="a_Node000003"><a xlink:href="c__wcf__internal_8h.html" target="_top" xlink:title=" ">
<polygon fill="white" stroke="#666666" points="510,-118 352,-118 352,-77 510,-77 510,-118"/>
<text text-anchor="start" x="360" y="-106" font-family="Helvetica,sans-Serif" font-size="10.00">/home/runner/work/webcface</text>
<text text-anchor="start" x="360" y="-95" font-family="Helvetica,sans-Serif" font-size="10.00">/webcface/client/src/c_wcf</text>
<text text-anchor="middle" x="431" y="-84" font-family="Helvetica,sans-Serif" font-size="10.00">/c_wcf_internal.h</text>
</a>
</g>
</g>
<!-- Node1&#45;&gt;Node3 -->
<g id="edge2_Node000001_Node000003" class="edge">
<title>Node1&#45;&gt;Node3</title>
<g id="a_edge2_Node000001_Node000003"><a xlink:title=" ">
<path fill="none" stroke="#63b8ff" d="M1775.46,-171.87C1515.39,-166.83 763.02,-149.81 519,-118 516.05,-117.62 513.06,-117.18 510.04,-116.71"/>
<polygon fill="#63b8ff" stroke="#63b8ff" points="1775.55,-175.38 1785.62,-172.07 1775.69,-168.38 1775.55,-175.38"/>
</a>
</g>
</g>
<!-- Node9 -->
<g id="Node000009" class="node">
<title>Node9</title>
<g id="a_Node000009"><a xlink:href="client_8cc.html" target="_top" xlink:title=" ">
<polygon fill="white" stroke="#666666" points="686,-112.5 528,-112.5 528,-82.5 686,-82.5 686,-112.5"/>
<text text-anchor="start" x="536" y="-100.5" font-family="Helvetica,sans-Serif" font-size="10.00">/home/runner/work/webcface</text>
<text text-anchor="middle" x="607" y="-89.5" font-family="Helvetica,sans-Serif" font-size="10.00">/webcface/client/src/client.cc</text>
</a>
</g>
</g>
<!-- Node1&#45;&gt;Node9 -->
<g id="edge8_Node000001_Node000009" class="edge">
<title>Node1&#45;&gt;Node9</title>
<g id="a_edge8_Node000001_Node000009"><a xlink:title=" ">
<path fill="none" stroke="#63b8ff" d="M1775.48,-171.23C1539.37,-164.94 903.54,-145.84 695,-118 684.76,-116.63 673.96,-114.67 663.55,-112.52"/>
<polygon fill="#63b8ff" stroke="#63b8ff" points="1775.66,-174.74 1785.75,-171.51 1775.84,-167.74 1775.66,-174.74"/>
</a>
</g>
</g>
<!-- Node10 -->
<g id="Node000010" class="node">
<title>Node10</title>
<g id="a_Node000010"><a xlink:href="client__ws_8cc.html" target="_top" xlink:title=" ">
<polygon fill="white" stroke="#666666" points="880,-112.5 704,-112.5 704,-82.5 880,-82.5 880,-112.5"/>
<text text-anchor="start" x="712" y="-100.5" font-family="Helvetica,sans-Serif" font-size="10.00">/home/runner/work/webcface</text>
<text text-anchor="middle" x="792" y="-89.5" font-family="Helvetica,sans-Serif" font-size="10.00">/webcface/client/src/client_ws.cc</text>
</a>
</g>
</g>
<!-- Node1&#45;&gt;Node10 -->
<g id="edge9_Node000001_Node000010" class="edge">
<title>Node1&#45;&gt;Node10</title>
<g id="a_edge9_Node000001_Node000010"><a xlink:title=" ">
<path fill="none" stroke="#63b8ff" d="M1775.87,-172.64C1603.76,-170.06 1213.94,-159.69 889,-118 878.01,-116.59 866.4,-114.65 855.18,-112.54"/>
<polygon fill="#63b8ff" stroke="#63b8ff" points="1775.85,-176.14 1785.9,-172.79 1775.95,-169.15 1775.85,-176.14"/>
</a>
</g>
</g>
<!-- Node11 -->
<g id="Node000011" class="node">
<title>Node11</title>
<g id="a_Node000011"><a xlink:href="benchmark_8cc.html" target="_top" xlink:title=" ">
<polygon fill="white" stroke="#666666" points="1086,-112.5 898,-112.5 898,-82.5 1086,-82.5 1086,-112.5"/>
<text text-anchor="start" x="906" y="-100.5" font-family="Helvetica,sans-Serif" font-size="10.00">/home/runner/work/webcface</text>
<text text-anchor="middle" x="992" y="-89.5" font-family="Helvetica,sans-Serif" font-size="10.00">/webcface/examples/benchmark.cc</text>
</a>
</g>
</g>
<!-- Node1&#45;&gt;Node11 -->
<g id="edge10_Node000001_Node000011" class="edge">
<title>Node1&#45;&gt;Node11</title>
<g id="a_edge10_Node000001_Node000011"><a xlink:title=" ">
<path fill="none" stroke="#63b8ff" d="M1775.9,-170.41C1632.14,-164.68 1340.3,-149.95 1095,-118 1083.63,-116.52 1071.62,-114.59 1059.97,-112.51"/>
<polygon fill="#63b8ff" stroke="#63b8ff" points="1775.87,-173.91 1786,-170.81 1776.14,-166.92 1775.87,-173.91"/>
</a>
</g>
</g>
<!-- Node12 -->
<g id="Node000012" class="node">
<title>Node12</title>
<g id="a_Node000012"><a xlink:href="examples_2canvas2d_8cc.html" target="_top" xlink:title=" ">
<polygon fill="white" stroke="#666666" points="1284,-112.5 1104,-112.5 1104,-82.5 1284,-82.5 1284,-112.5"/>
<text text-anchor="start" x="1112" y="-100.5" font-family="Helvetica,sans-Serif" font-size="10.00">/home/runner/work/webcface</text>
<text text-anchor="middle" x="1194" y="-89.5" font-family="Helvetica,sans-Serif" font-size="10.00">/webcface/examples/canvas2d.cc</text>
</a>
</g>
</g>
<!-- Node1&#45;&gt;Node12 -->
<g id="edge11_Node000001_Node000012" class="edge">
<title>Node1&#45;&gt;Node12</title>
<g id="a_edge11_Node000001_Node000012"><a xlink:title=" ">
<path fill="none" stroke="#63b8ff" d="M1775.62,-167.55C1662.77,-159.4 1462.85,-142.91 1293,-118 1282.43,-116.45 1271.27,-114.53 1260.41,-112.51"/>
<polygon fill="#63b8ff" stroke="#63b8ff" points="1775.37,-171.04 1785.59,-168.26 1775.87,-164.05 1775.37,-171.04"/>
</a>
</g>
</g>
<!-- Node13 -->
<g id="Node000013" class="node">
<title>Node13</title>
<g id="a_Node000013"><a xlink:href="examples_2canvas3d_8cc.html" target="_top" xlink:title=" ">
<polygon fill="white" stroke="#666666" points="1482,-112.5 1302,-112.5 1302,-82.5 1482,-82.5 1482,-112.5"/>
<text text-anchor="start" x="1310" y="-100.5" font-family="Helvetica,sans-Serif" font-size="10.00">/home/runner/work/webcface</text>
<text text-anchor="middle" x="1392" y="-89.5" font-family="Helvetica,sans-Serif" font-size="10.00">/webcface/examples/canvas3d.cc</text>
</a>
</g>
</g>
<!-- Node1&#45;&gt;Node13 -->
<g id="edge12_Node000001_Node000013" class="edge">
<title>Node1&#45;&gt;Node13</title>
<g id="a_edge12_Node000001_Node000013"><a xlink:title=" ">
<path fill="none" stroke="#63b8ff" d="M1775.91,-161.39C1700.23,-150.83 1588.8,-134.63 1492,-118 1482.24,-116.32 1471.96,-114.45 1461.86,-112.54"/>
<polygon fill="#63b8ff" stroke="#63b8ff" points="1775.5,-164.87 1785.89,-162.78 1776.46,-157.93 1775.5,-164.87"/>
</a>
</g>
</g>
<!-- Node14 -->
<g id="Node000014" class="node">
<title>Node14</title>
<g id="a_Node000014"><a xlink:href="cv-recv_8cc.html" target="_top" xlink:title=" ">
<polygon fill="white" stroke="#666666" points="1669.5,-112.5 1500.5,-112.5 1500.5,-82.5 1669.5,-82.5 1669.5,-112.5"/>
<text text-anchor="start" x="1508.5" y="-100.5" font-family="Helvetica,sans-Serif" font-size="10.00">/home/runner/work/webcface</text>
<text text-anchor="middle" x="1585" y="-89.5" font-family="Helvetica,sans-Serif" font-size="10.00">/webcface/examples/cv&#45;recv.cc</text>
</a>
</g>
</g>
<!-- Node1&#45;&gt;Node14 -->
<g id="edge13_Node000001_Node000014" class="edge">
<title>Node1&#45;&gt;Node14</title>
<g id="a_edge13_Node000001_Node000014"><a xlink:title=" ">
<path fill="none" stroke="#63b8ff" d="M1782.34,-151.36C1735.5,-138.81 1678.31,-123.49 1637.57,-112.58"/>
<polygon fill="#63b8ff" stroke="#63b8ff" points="1781.6,-154.78 1792.16,-153.99 1783.41,-148.02 1781.6,-154.78"/>
</a>
</g>
</g>
<!-- Node15 -->
<g id="Node000015" class="node">
<title>Node15</title>
<g id="a_Node000015"><a xlink:href="cv-send_8cc.html" target="_top" xlink:title=" ">
<polygon fill="white" stroke="#666666" points="1860,-112.5 1688,-112.5 1688,-82.5 1860,-82.5 1860,-112.5"/>
<text text-anchor="start" x="1696" y="-100.5" font-family="Helvetica,sans-Serif" font-size="10.00">/home/runner/work/webcface</text>
<text text-anchor="middle" x="1774" y="-89.5" font-family="Helvetica,sans-Serif" font-size="10.00">/webcface/examples/cv&#45;send.cc</text>
</a>
</g>
</g>
<!-- Node1&#45;&gt;Node15 -->
<g id="edge14_Node000001_Node000015" class="edge">
<title>Node1&#45;&gt;Node15</title>
<g id="a_edge14_Node000001_Node000015"><a xlink:title=" ">
<path fill="none" stroke="#63b8ff" d="M1833.05,-147.17C1818.95,-135.55 1802.93,-122.34 1791.14,-112.63"/>
<polygon fill="#63b8ff" stroke="#63b8ff" points="1831.15,-150.14 1841.09,-153.79 1835.6,-144.73 1831.15,-150.14"/>
</a>
</g>
</g>
<!-- Node16 -->
<g id="Node000016" class="node">
<title>Node16</title>
<g id="a_Node000016"><a xlink:href="examples_2func_8cc.html" target="_top" xlink:title=" ">
<polygon fill="white" stroke="#666666" points="2036,-112.5 1878,-112.5 1878,-82.5 2036,-82.5 2036,-112.5"/>
<text text-anchor="start" x="1886" y="-100.5" font-family="Helvetica,sans-Serif" font-size="10.00">/home/runner/work/webcface</text>
<text text-anchor="middle" x="1957" y="-89.5" font-family="Helvetica,sans-Serif" font-size="10.00">/webcface/examples/func.cc</text>
</a>
</g>
</g>
<!-- Node1&#45;&gt;Node16 -->
<g id="edge15_Node000001_Node000016" class="edge">
<title>Node1&#45;&gt;Node16</title>
<g id="a_edge15_Node000001_Node000016"><a xlink:title=" ">
<path fill="none" stroke="#63b8ff" d="M1897.3,-147.17C1911.56,-135.55 1927.75,-122.34 1939.67,-112.63"/>
<polygon fill="#63b8ff" stroke="#63b8ff" points="1894.71,-144.76 1889.17,-153.79 1899.13,-150.19 1894.71,-144.76"/>
</a>
</g>
</g>
<!-- Node17 -->
<g id="Node000017" class="node">
<title>Node17</title>
<g id="a_Node000017"><a xlink:href="image-recv_8cc.html" target="_top" xlink:title=" ">
<polygon fill="white" stroke="#666666" points="2212,-118 2054,-118 2054,-77 2212,-77 2212,-118"/>
<text text-anchor="start" x="2062" y="-106" font-family="Helvetica,sans-Serif" font-size="10.00">/home/runner/work/webcface</text>
<text text-anchor="start" x="2062" y="-95" font-family="Helvetica,sans-Serif" font-size="10.00">/webcface/examples/image</text>
<text text-anchor="middle" x="2133" y="-84" font-family="Helvetica,sans-Serif" font-size="10.00">&#45;recv.cc</text>
</a>
</g>
</g>
<!-- Node1&#45;&gt;Node17 -->
<g id="edge16_Node000001_Node000017" class="edge">
<title>Node1&#45;&gt;Node17</title>
<g id="a_edge16_Node000001_Node000017"><a xlink:title=" ">
<path fill="none" stroke="#63b8ff" d="M1944.63,-151.21C1982.29,-140.68 2026.85,-128.21 2063.17,-118.04"/>
<polygon fill="#63b8ff" stroke="#63b8ff" points="1943.4,-147.92 1934.71,-153.99 1945.29,-154.67 1943.4,-147.92"/>
</a>
</g>
</g>
<!-- Node18 -->
<g id="Node000018" class="node">
<title>Node18</title>
<g id="a_Node000018"><a xlink:href="image-send_8cc.html" target="_top" xlink:title=" ">
<polygon fill="white" stroke="#666666" points="2388,-118 2230,-118 2230,-77 2388,-77 2388,-118"/>
<text text-anchor="start" x="2238" y="-106" font-family="Helvetica,sans-Serif" font-size="10.00">/home/runner/work/webcface</text>
<text text-anchor="start" x="2238" y="-95" font-family="Helvetica,sans-Serif" font-size="10.00">/webcface/examples/image</text>
<text text-anchor="middle" x="2309" y="-84" font-family="Helvetica,sans-Serif" font-size="10.00">&#45;send.cc</text>
</a>
</g>
</g>
<!-- Node1&#45;&gt;Node18 -->
<g id="edge17_Node000001_Node000018" class="edge">
<title>Node1&#45;&gt;Node18</title>
<g id="a_edge17_Node000001_Node000018"><a xlink:title=" ">
<path fill="none" stroke="#63b8ff" d="M1954.04,-161.22C2026.22,-150.88 2130.44,-135.07 2221,-118 2223.92,-117.45 2226.89,-116.87 2229.89,-116.28"/>
<polygon fill="#63b8ff" stroke="#63b8ff" points="1953.48,-157.76 1944.08,-162.64 1954.47,-164.69 1953.48,-157.76"/>
</a>
</g>
</g>
<!-- Node19 -->
<g id="Node000019" class="node">
<title>Node19</title>
<g id="a_Node000019"><a xlink:href="examples_2log_8cc.html" target="_top" xlink:title=" ">
<polygon fill="white" stroke="#666666" points="2564,-112.5 2406,-112.5 2406,-82.5 2564,-82.5 2564,-112.5"/>
<text text-anchor="start" x="2414" y="-100.5" font-family="Helvetica,sans-Serif" font-size="10.00">/home/runner/work/webcface</text>
<text text-anchor="middle" x="2485" y="-89.5" font-family="Helvetica,sans-Serif" font-size="10.00">/webcface/examples/log.cc</text>
</a>
</g>
</g>
<!-- Node1&#45;&gt;Node19 -->
<g id="edge18_Node000001_Node000019" class="edge">
<title>Node1&#45;&gt;Node19</title>
<g id="a_edge18_Node000001_Node000019"><a xlink:title=" ">
<path fill="none" stroke="#63b8ff" d="M1954.26,-167.32C2060.28,-159.25 2242.27,-143.13 2397,-118 2406.42,-116.47 2416.35,-114.56 2426.01,-112.54"/>
<polygon fill="#63b8ff" stroke="#63b8ff" points="1953.95,-163.83 1944.24,-168.07 1954.48,-170.81 1953.95,-163.83"/>
</a>
</g>
</g>
<!-- Node20 -->
<g id="Node000020" class="node">
<title>Node20</title>
<g id="a_Node000020"><a xlink:href="recv_8cc.html" target="_top" xlink:title=" ">
<polygon fill="white" stroke="#666666" points="2740,-112.5 2582,-112.5 2582,-82.5 2740,-82.5 2740,-112.5"/>
<text text-anchor="start" x="2590" y="-100.5" font-family="Helvetica,sans-Serif" font-size="10.00">/home/runner/work/webcface</text>
<text text-anchor="middle" x="2661" y="-89.5" font-family="Helvetica,sans-Serif" font-size="10.00">/webcface/examples/recv.cc</text>
</a>
</g>
</g>
<!-- Node1&#45;&gt;Node20 -->
<g id="edge19_Node000001_Node000020" class="edge">
<title>Node1&#45;&gt;Node20</title>
<g id="a_edge19_Node000001_Node000020"><a xlink:title=" ">
<path fill="none" stroke="#63b8ff" d="M1954.52,-170.5C2089.3,-165.07 2352.09,-150.97 2573,-118 2582.75,-116.54 2593.03,-114.62 2602.99,-112.56"/>
<polygon fill="#63b8ff" stroke="#63b8ff" points="1954.1,-167.01 1944.25,-170.9 1954.38,-174 1954.1,-167.01"/>
</a>
</g>
</g>
<!-- Node21 -->
<g id="Node000021" class="node">
<title>Node21</title>
<g id="a_Node000021"><a xlink:href="examples_2value_8cc.html" target="_top" xlink:title=" ">
<polygon fill="white" stroke="#666666" points="2919.5,-112.5 2758.5,-112.5 2758.5,-82.5 2919.5,-82.5 2919.5,-112.5"/>
<text text-anchor="start" x="2766.5" y="-100.5" font-family="Helvetica,sans-Serif" font-size="10.00">/home/runner/work/webcface</text>
<text text-anchor="middle" x="2839" y="-89.5" font-family="Helvetica,sans-Serif" font-size="10.00">/webcface/examples/value.cc</text>
</a>
</g>
</g>
<!-- Node1&#45;&gt;Node21 -->
<g id="edge20_Node000001_Node000021" class="edge">
<title>Node1&#45;&gt;Node21</title>
<g id="a_edge20_Node000001_Node000021"><a xlink:title=" ">
<path fill="none" stroke="#63b8ff" d="M1954.31,-172.33C2114.34,-169.25 2460.24,-158.11 2749,-118 2759.13,-116.59 2769.83,-114.67 2780.16,-112.58"/>
<polygon fill="#63b8ff" stroke="#63b8ff" points="1953.97,-168.84 1944.04,-172.52 1954.11,-175.84 1953.97,-168.84"/>
</a>
</g>
</g>
<!-- Node22 -->
<g id="Node000022" class="node">
<title>Node22</title>
<g id="a_Node000022"><a xlink:href="examples_2view_8cc.html" target="_top" xlink:title=" ">
<polygon fill="white" stroke="#666666" points="3096,-112.5 2938,-112.5 2938,-82.5 3096,-82.5 3096,-112.5"/>
<text text-anchor="start" x="2946" y="-100.5" font-family="Helvetica,sans-Serif" font-size="10.00">/home/runner/work/webcface</text>
<text text-anchor="middle" x="3017" y="-89.5" font-family="Helvetica,sans-Serif" font-size="10.00">/webcface/examples/view.cc</text>
</a>
</g>
</g>
<!-- Node1&#45;&gt;Node22 -->
<g id="edge21_Node000001_Node000022" class="edge">
<title>Node1&#45;&gt;Node22</title>
<g id="a_edge21_Node000001_Node000022"><a xlink:title=" ">
<path fill="none" stroke="#63b8ff" d="M1954.31,-173.83C2137.8,-173.41 2570.12,-166.78 2929,-118 2939.08,-116.63 2949.71,-114.7 2959.97,-112.58"/>
<polygon fill="#63b8ff" stroke="#63b8ff" points="1954.17,-170.33 1944.17,-173.85 1954.18,-177.33 1954.17,-170.33"/>
</a>
</g>
</g>
<!-- Node23 -->
<g id="Node000023" class="node">
<title>Node23</title>
<g id="a_Node000023"><a xlink:href="c__wcf__test_8cc.html" target="_top" xlink:title=" ">
<polygon fill="white" stroke="#666666" points="3275.5,-112.5 3114.5,-112.5 3114.5,-82.5 3275.5,-82.5 3275.5,-112.5"/>
<text text-anchor="start" x="3122.5" y="-100.5" font-family="Helvetica,sans-Serif" font-size="10.00">/home/runner/work/webcface</text>
<text text-anchor="middle" x="3195" y="-89.5" font-family="Helvetica,sans-Serif" font-size="10.00">/webcface/tests/c_wcf_test.cc</text>
</a>
</g>
</g>
<!-- Node1&#45;&gt;Node23 -->
<g id="edge22_Node000001_Node000023" class="edge">
<title>Node1&#45;&gt;Node23</title>
<g id="a_edge22_Node000001_Node000023"><a xlink:title=" ">
<path fill="none" stroke="#63b8ff" d="M1954.64,-171.45C2200.57,-165.52 2882.34,-146.89 3105,-118 3115.46,-116.64 3126.51,-114.69 3137.15,-112.54"/>
<polygon fill="#63b8ff" stroke="#63b8ff" points="1954.23,-167.96 1944.31,-171.7 1954.39,-174.96 1954.23,-167.96"/>
</a>
</g>
</g>
<!-- Node24 -->
<g id="Node000024" class="node">
<title>Node24</title>
<g id="a_Node000024"><a xlink:href="client__test_8cc.html" target="_top" xlink:title=" ">
<polygon fill="white" stroke="#666666" points="3454.5,-112.5 3293.5,-112.5 3293.5,-82.5 3454.5,-82.5 3454.5,-112.5"/>
<text text-anchor="start" x="3301.5" y="-100.5" font-family="Helvetica,sans-Serif" font-size="10.00">/home/runner/work/webcface</text>
<text text-anchor="middle" x="3374" y="-89.5" font-family="Helvetica,sans-Serif" font-size="10.00">/webcface/tests/client_test.cc</text>
</a>
</g>
</g>
<!-- Node1&#45;&gt;Node24 -->
<g id="edge23_Node000001_Node000024" class="edge">
<title>Node1&#45;&gt;Node24</title>
<g id="a_edge23_Node000001_Node000024"><a xlink:title=" ">
<path fill="none" stroke="#63b8ff" d="M1954.29,-172.07C2223.7,-167.45 3025.87,-151.19 3285,-118 3295.36,-116.67 3306.29,-114.74 3316.81,-112.59"/>
<polygon fill="#63b8ff" stroke="#63b8ff" points="1954.1,-168.58 1944.16,-172.25 1954.22,-175.58 1954.1,-168.58"/>
</a>
</g>
</g>
<!-- Node4 -->
<g id="Node000004" class="node">
<title>Node4</title>
<g id="a_Node000004"><a xlink:href="c__wcf_2client_8cc.html" target="_top" xlink:title=" ">
<polygon fill="white" stroke="#666666" points="158,-41 0,-41 0,0 158,0 158,-41"/>
<text text-anchor="start" x="8" y="-29" font-family="Helvetica,sans-Serif" font-size="10.00">/home/runner/work/webcface</text>
<text text-anchor="start" x="8" y="-18" font-family="Helvetica,sans-Serif" font-size="10.00">/webcface/client/src/c_wcf</text>
<text text-anchor="middle" x="79" y="-7" font-family="Helvetica,sans-Serif" font-size="10.00">/client.cc</text>
</a>
</g>
</g>
<!-- Node3&#45;&gt;Node4 -->
<g id="edge3_Node000003_Node000004" class="edge">
<title>Node3&#45;&gt;Node4</title>
<g id="a_edge3_Node000003_Node000004"><a xlink:title=" ">
<path fill="none" stroke="#63b8ff" d="M341.97,-76.8C263.27,-60.13 242.04,-56.99 167,-41 164.09,-40.38 161.13,-39.75 158.14,-39.1"/>
<polygon fill="#63b8ff" stroke="#63b8ff" points="341.35,-80.24 351.86,-78.9 342.81,-73.4 341.35,-80.24"/>
</a>
</g>
</g>
<!-- Node5 -->
<g id="Node000005" class="node">
<title>Node5</title>
<g id="a_Node000005"><a xlink:href="client_2src_2c__wcf_2func_8cc.html" target="_top" xlink:title=" ">
<polygon fill="white" stroke="#666666" points="334,-41 176,-41 176,0 334,0 334,-41"/>
<text text-anchor="start" x="184" y="-29" font-family="Helvetica,sans-Serif" font-size="10.00">/home/runner/work/webcface</text>
<text text-anchor="start" x="184" y="-18" font-family="Helvetica,sans-Serif" font-size="10.00">/webcface/client/src/c_wcf</text>
<text text-anchor="middle" x="255" y="-7" font-family="Helvetica,sans-Serif" font-size="10.00">/func.cc</text>
</a>
</g>
</g>
<!-- Node3&#45;&gt;Node5 -->
<g id="edge4_Node000003_Node000005" class="edge">
<title>Node3&#45;&gt;Node5</title>
<g id="a_edge4_Node000003_Node000005"><a xlink:title=" ">
<path fill="none" stroke="#63b8ff" d="M375.84,-73C351.74,-62.72 323.8,-50.82 300.86,-41.04"/>
<polygon fill="#63b8ff" stroke="#63b8ff" points="374.65,-76.29 385.22,-76.99 377.39,-69.85 374.65,-76.29"/>
</a>
</g>
</g>
<!-- Node6 -->
<g id="Node000006" class="node">
<title>Node6</title>
<g id="a_Node000006"><a xlink:href="c__wcf_2text_8cc.html" target="_top" xlink:title=" ">
<polygon fill="white" stroke="#666666" points="510,-41 352,-41 352,0 510,0 510,-41"/>
<text text-anchor="start" x="360" y="-29" font-family="Helvetica,sans-Serif" font-size="10.00">/home/runner/work/webcface</text>
<text text-anchor="start" x="360" y="-18" font-family="Helvetica,sans-Serif" font-size="10.00">/webcface/client/src/c_wcf</text>
<text text-anchor="middle" x="431" y="-7" font-family="Helvetica,sans-Serif" font-size="10.00">/text.cc</text>
</a>
</g>
</g>
<!-- Node3&#45;&gt;Node6 -->
<g id="edge5_Node000003_Node000006" class="edge">
<title>Node3&#45;&gt;Node6</title>
<g id="a_edge5_Node000003_Node000006"><a xlink:title=" ">
<path fill="none" stroke="#63b8ff" d="M431,-66.69C431,-58.08 431,-48.9 431,-41.07"/>
<polygon fill="#63b8ff" stroke="#63b8ff" points="427.5,-66.79 431,-76.79 434.5,-66.79 427.5,-66.79"/>
</a>
</g>
</g>
<!-- Node7 -->
<g id="Node000007" class="node">
<title>Node7</title>
<g id="a_Node000007"><a xlink:href="client_2src_2c__wcf_2value_8cc.html" target="_top" xlink:title=" ">
<polygon fill="white" stroke="#666666" points="686,-41 528,-41 528,0 686,0 686,-41"/>
<text text-anchor="start" x="536" y="-29" font-family="Helvetica,sans-Serif" font-size="10.00">/home/runner/work/webcface</text>
<text text-anchor="start" x="536" y="-18" font-family="Helvetica,sans-Serif" font-size="10.00">/webcface/client/src/c_wcf</text>
<text text-anchor="middle" x="607" y="-7" font-family="Helvetica,sans-Serif" font-size="10.00">/value.cc</text>
</a>
</g>
</g>
<!-- Node3&#45;&gt;Node7 -->
<g id="edge6_Node000003_Node000007" class="edge">
<title>Node3&#45;&gt;Node7</title>
<g id="a_edge6_Node000003_Node000007"><a xlink:title=" ">
<path fill="none" stroke="#63b8ff" d="M486.16,-73C510.26,-62.72 538.2,-50.82 561.14,-41.04"/>
<polygon fill="#63b8ff" stroke="#63b8ff" points="484.61,-69.85 476.78,-76.99 487.35,-76.29 484.61,-69.85"/>
</a>
</g>
</g>
<!-- Node8 -->
<g id="Node000008" class="node">
<title>Node8</title>
<g id="a_Node000008"><a xlink:href="client_2src_2c__wcf_2view_8cc.html" target="_top" xlink:title=" ">
<polygon fill="white" stroke="#666666" points="862,-41 704,-41 704,0 862,0 862,-41"/>
<text text-anchor="start" x="712" y="-29" font-family="Helvetica,sans-Serif" font-size="10.00">/home/runner/work/webcface</text>
<text text-anchor="start" x="712" y="-18" font-family="Helvetica,sans-Serif" font-size="10.00">/webcface/client/src/c_wcf</text>
<text text-anchor="middle" x="783" y="-7" font-family="Helvetica,sans-Serif" font-size="10.00">/view.cc</text>
</a>
</g>
</g>
<!-- Node3&#45;&gt;Node8 -->
<g id="edge7_Node000003_Node000008" class="edge">
<title>Node3&#45;&gt;Node8</title>
<g id="a_edge7_Node000003_Node000008"><a xlink:title=" ">
<path fill="none" stroke="#63b8ff" d="M520.03,-76.8C598.73,-60.13 619.96,-56.99 695,-41 697.91,-40.38 700.87,-39.75 703.86,-39.1"/>
<polygon fill="#63b8ff" stroke="#63b8ff" points="519.19,-73.4 510.14,-78.9 520.65,-80.24 519.19,-73.4"/>
</a>
</g>
</g>
</g>
</svg>
