<?xml version="1.0" encoding="UTF-8" standalone="no"?>
<!DOCTYPE svg PUBLIC "-//W3C//DTD SVG 1.1//EN"
 "http://www.w3.org/Graphics/SVG/1.1/DTD/svg11.dtd">
<!-- Generated by graphviz version 2.43.0 (0)
 -->
<!-- Title: client/include/webcface/canvas2d.h Pages: 1 -->
<svg width="1589pt" height="434pt"
 viewBox="0.00 0.00 1589.00 434.00" xmlns="http://www.w3.org/2000/svg" xmlns:xlink="http://www.w3.org/1999/xlink">
<g id="graph0" class="graph" transform="scale(1 1) rotate(0) translate(4 430)">
<title>client/include/webcface/canvas2d.h</title>
<!-- Node1 -->
<g id="Node000001" class="node">
<title>Node1</title>
<g id="a_Node000001"><a xlink:title=" ">
<polygon fill="#999999" stroke="#666666" points="966.5,-426 835.5,-426 835.5,-396 966.5,-396 966.5,-426"/>
<text text-anchor="start" x="843.5" y="-414" font-family="Helvetica,sans-Serif" font-size="10.00">client/include/webcface</text>
<text text-anchor="middle" x="901" y="-403" font-family="Helvetica,sans-Serif" font-size="10.00">/canvas2d.h</text>
</a>
</g>
</g>
<!-- Node2 -->
<g id="Node000002" class="node">
<title>Node2</title>
<g id="a_Node000002"><a xlink:title=" ">
<polygon fill="#e0e0e0" stroke="#999999" points="226,-19 168,-19 168,0 226,0 226,-19"/>
<text text-anchor="middle" x="197" y="-7" font-family="Helvetica,sans-Serif" font-size="10.00">memory</text>
</a>
</g>
</g>
<!-- Node1&#45;&gt;Node2 -->
<g id="edge1_Node000001_Node000002" class="edge">
<title>Node1&#45;&gt;Node2</title>
<g id="a_edge1_Node000001_Node000002"><a xlink:title=" ">
<path fill="none" stroke="#63b8ff" d="M835.48,-408.63C628.14,-403.44 0,-380.75 0,-296.5 0,-296.5 0,-296.5 0,-124 0,-51.91 100.26,-24.91 157.73,-15.36"/>
<polygon fill="#63b8ff" stroke="#63b8ff" points="158.59,-18.77 167.93,-13.77 157.51,-11.85 158.59,-18.77"/>
</a>
</g>
</g>
<!-- Node3 -->
<g id="Node000003" class="node">
<title>Node3</title>
<g id="a_Node000003"><a xlink:href="webcface-config_8h.html" target="_top" xlink:title=" ">
<polygon fill="white" stroke="#666666" points="1146.5,-19 1041.5,-19 1041.5,0 1146.5,0 1146.5,-19"/>
<text text-anchor="middle" x="1094" y="-7" font-family="Helvetica,sans-Serif" font-size="10.00">webcface&#45;config.h</text>
</a>
</g>
</g>
<!-- Node1&#45;&gt;Node3 -->
<g id="edge2_Node000001_Node000003" class="edge">
<title>Node1&#45;&gt;Node3</title>
<g id="a_edge2_Node000001_Node000003"><a xlink:title=" ">
<path fill="none" stroke="#63b8ff" d="M966.51,-405.9C1136.94,-394.38 1581,-358.4 1581,-296.5 1581,-296.5 1581,-296.5 1581,-124 1581,-82.17 1554.41,-73.72 1517,-55 1455.39,-24.18 1258.87,-14.64 1156.84,-11.74"/>
<polygon fill="#63b8ff" stroke="#63b8ff" points="1156.76,-8.24 1146.67,-11.47 1156.57,-15.24 1156.76,-8.24"/>
</a>
</g>
</g>
<!-- Node4 -->
<g id="Node000004" class="node">
<title>Node4</title>
<g id="a_Node000004"><a xlink:href="field_8h.html" target="_top" xlink:title=" ">
<polygon fill="white" stroke="#666666" points="750.5,-134.5 703.5,-134.5 703.5,-115.5 750.5,-115.5 750.5,-134.5"/>
<text text-anchor="middle" x="727" y="-122.5" font-family="Helvetica,sans-Serif" font-size="10.00">field.h</text>
</a>
</g>
</g>
<!-- Node1&#45;&gt;Node4 -->
<g id="edge3_Node000001_Node000004" class="edge">
<title>Node1&#45;&gt;Node4</title>
<g id="a_edge3_Node000001_Node000004"><a xlink:title=" ">
<path fill="none" stroke="#63b8ff" d="M851.65,-395.87C807.27,-379.77 749,-348.7 749,-296.5 749,-296.5 749,-296.5 749,-239.5 749,-205.5 739.37,-166.81 732.85,-144.51"/>
<polygon fill="#63b8ff" stroke="#63b8ff" points="736.13,-143.27 729.88,-134.72 729.43,-145.3 736.13,-143.27"/>
</a>
</g>
</g>
<!-- Node11 -->
<g id="Node000011" class="node">
<title>Node11</title>
<g id="a_Node000011"><a xlink:href="components_8h.html" target="_top" xlink:title=" ">
<polygon fill="white" stroke="#666666" points="1003,-360 917,-360 917,-341 1003,-341 1003,-360"/>
<text text-anchor="middle" x="960" y="-348" font-family="Helvetica,sans-Serif" font-size="10.00">components.h</text>
</a>
</g>
</g>
<!-- Node1&#45;&gt;Node11 -->
<g id="edge17_Node000001_Node000011" class="edge">
<title>Node1&#45;&gt;Node11</title>
<g id="a_edge17_Node000001_Node000011"><a xlink:title=" ">
<path fill="none" stroke="#63b8ff" d="M915.28,-395.84C923.93,-387.26 934.99,-376.3 943.94,-367.42"/>
<polygon fill="#63b8ff" stroke="#63b8ff" points="946.52,-369.79 951.16,-360.27 941.59,-364.82 946.52,-369.79"/>
</a>
</g>
</g>
<!-- Node4&#45;&gt;Node2 -->
<g id="edge4_Node000004_Node000002" class="edge">
<title>Node4&#45;&gt;Node2</title>
<g id="a_edge4_Node000004_Node000002"><a xlink:title=" ">
<path fill="none" stroke="#63b8ff" d="M703.48,-120.69C653.8,-113.54 534.66,-95.54 436,-74 364.68,-58.43 282.67,-35.53 235.63,-21.91"/>
<polygon fill="#63b8ff" stroke="#63b8ff" points="236.44,-18.5 225.86,-19.07 234.48,-25.22 236.44,-18.5"/>
</a>
</g>
</g>
<!-- Node4&#45;&gt;Node3 -->
<g id="edge8_Node000004_Node000003" class="edge">
<title>Node4&#45;&gt;Node3</title>
<g id="a_edge8_Node000004_Node000003"><a xlink:title=" ">
<path fill="none" stroke="#63b8ff" d="M750.52,-116.6C780.17,-107.18 832.64,-90.16 877,-74 898.56,-66.15 903.2,-62.16 925,-55 965.36,-41.75 1012.13,-29.68 1046.22,-21.47"/>
<polygon fill="#63b8ff" stroke="#63b8ff" points="1047.46,-24.77 1056.37,-19.04 1045.83,-17.96 1047.46,-24.77"/>
</a>
</g>
</g>
<!-- Node5 -->
<g id="Node000005" class="node">
<title>Node5</title>
<g id="a_Node000005"><a xlink:title=" ">
<polygon fill="#e0e0e0" stroke="#999999" points="501,-19 457,-19 457,0 501,0 501,-19"/>
<text text-anchor="middle" x="479" y="-7" font-family="Helvetica,sans-Serif" font-size="10.00">string</text>
</a>
</g>
</g>
<!-- Node4&#45;&gt;Node5 -->
<g id="edge5_Node000004_Node000005" class="edge">
<title>Node4&#45;&gt;Node5</title>
<g id="a_edge5_Node000004_Node000005"><a xlink:title=" ">
<path fill="none" stroke="#63b8ff" d="M703.21,-120.64C636.58,-111.12 452.4,-84.01 444,-74 431.71,-59.35 446.32,-39.74 460.24,-26.2"/>
<polygon fill="#63b8ff" stroke="#63b8ff" points="462.69,-28.7 467.73,-19.38 457.98,-23.53 462.69,-28.7"/>
</a>
</g>
</g>
<!-- Node6 -->
<g id="Node000006" class="node">
<title>Node6</title>
<g id="a_Node000006"><a xlink:title=" ">
<polygon fill="#e0e0e0" stroke="#999999" points="646.5,-19 573.5,-19 573.5,0 646.5,0 646.5,-19"/>
<text text-anchor="middle" x="610" y="-7" font-family="Helvetica,sans-Serif" font-size="10.00">string_view</text>
</a>
</g>
</g>
<!-- Node4&#45;&gt;Node6 -->
<g id="edge6_Node000004_Node000006" class="edge">
<title>Node4&#45;&gt;Node6</title>
<g id="a_edge6_Node000004_Node000006"><a xlink:title=" ">
<path fill="none" stroke="#63b8ff" d="M718.21,-115.47C698.64,-96.49 651.27,-50.53 626.19,-26.21"/>
<polygon fill="#63b8ff" stroke="#63b8ff" points="628.51,-23.58 618.9,-19.13 623.64,-28.61 628.51,-23.58"/>
</a>
</g>
</g>
<!-- Node7 -->
<g id="Node000007" class="node">
<title>Node7</title>
<g id="a_Node000007"><a xlink:title=" ">
<polygon fill="#e0e0e0" stroke="#999999" points="1014.5,-74 967.5,-74 967.5,-55 1014.5,-55 1014.5,-74"/>
<text text-anchor="middle" x="991" y="-62" font-family="Helvetica,sans-Serif" font-size="10.00">vector</text>
</a>
</g>
</g>
<!-- Node4&#45;&gt;Node7 -->
<g id="edge7_Node000004_Node000007" class="edge">
<title>Node4&#45;&gt;Node7</title>
<g id="a_edge7_Node000004_Node000007"><a xlink:title=" ">
<path fill="none" stroke="#63b8ff" d="M750.89,-118.71C798.11,-108.24 903.48,-84.89 957.56,-72.91"/>
<polygon fill="#63b8ff" stroke="#63b8ff" points="958.34,-76.32 967.35,-70.74 956.83,-69.49 958.34,-76.32"/>
</a>
</g>
</g>
<!-- Node8 -->
<g id="Node000008" class="node">
<title>Node8</title>
<g id="a_Node000008"><a xlink:href="common_2encoding_8h.html" target="_top" xlink:title=" ">
<polygon fill="white" stroke="#666666" points="618.5,-74 453.5,-74 453.5,-55 618.5,-55 618.5,-74"/>
<text text-anchor="middle" x="536" y="-62" font-family="Helvetica,sans-Serif" font-size="10.00">webcface/common/encoding.h</text>
</a>
</g>
</g>
<!-- Node4&#45;&gt;Node8 -->
<g id="edge9_Node000004_Node000008" class="edge">
<title>Node4&#45;&gt;Node8</title>
<g id="a_edge9_Node000004_Node000008"><a xlink:title=" ">
<path fill="none" stroke="#63b8ff" d="M703.2,-116.71C670.7,-106.76 612.1,-88.81 573.63,-77.02"/>
<polygon fill="#63b8ff" stroke="#63b8ff" points="574.41,-73.6 563.83,-74.02 572.36,-80.3 574.41,-73.6"/>
</a>
</g>
</g>
<!-- Node9 -->
<g id="Node000009" class="node">
<title>Node9</title>
<g id="a_Node000009"><a xlink:href="complete_8h.html" target="_top" xlink:title=" ">
<polygon fill="white" stroke="#666666" points="834.5,-74 713.5,-74 713.5,-55 834.5,-55 834.5,-74"/>
<text text-anchor="middle" x="774" y="-62" font-family="Helvetica,sans-Serif" font-size="10.00">webcface/complete.h</text>
</a>
</g>
</g>
<!-- Node4&#45;&gt;Node9 -->
<g id="edge14_Node000004_Node000009" class="edge">
<title>Node4&#45;&gt;Node9</title>
<g id="a_edge14_Node000004_Node000009"><a xlink:title=" ">
<path fill="none" stroke="#63b8ff" d="M733.94,-115.37C740.95,-106.64 751.96,-92.93 760.67,-82.09"/>
<polygon fill="#63b8ff" stroke="#63b8ff" points="763.5,-84.16 767.04,-74.17 758.04,-79.77 763.5,-84.16"/>
</a>
</g>
</g>
<!-- Node8&#45;&gt;Node2 -->
<g id="edge12_Node000008_Node000002" class="edge">
<title>Node8&#45;&gt;Node2</title>
<g id="a_edge12_Node000008_Node000002"><a xlink:title=" ">
<path fill="none" stroke="#63b8ff" d="M481.53,-54.98C412.89,-44.25 296.57,-26.07 236.12,-16.62"/>
<polygon fill="#63b8ff" stroke="#63b8ff" points="236.63,-13.15 226.21,-15.07 235.54,-20.07 236.63,-13.15"/>
</a>
</g>
</g>
<!-- Node8&#45;&gt;Node3 -->
<g id="edge13_Node000008_Node000003" class="edge">
<title>Node8&#45;&gt;Node3</title>
<g id="a_edge13_Node000008_Node000003"><a xlink:title=" ">
<path fill="none" stroke="#63b8ff" d="M618.64,-55.65C731.12,-44.97 929.97,-26.08 1031.12,-16.47"/>
<polygon fill="#63b8ff" stroke="#63b8ff" points="1031.56,-19.95 1041.19,-15.52 1030.9,-12.98 1031.56,-19.95"/>
</a>
</g>
</g>
<!-- Node8&#45;&gt;Node5 -->
<g id="edge10_Node000008_Node000005" class="edge">
<title>Node8&#45;&gt;Node5</title>
<g id="a_edge10_Node000008_Node000005"><a xlink:title=" ">
<path fill="none" stroke="#63b8ff" d="M526.84,-54.98C518.5,-47.23 505.97,-35.58 495.82,-26.14"/>
<polygon fill="#63b8ff" stroke="#63b8ff" points="498.03,-23.42 488.32,-19.17 493.26,-28.54 498.03,-23.42"/>
</a>
</g>
</g>
<!-- Node8&#45;&gt;Node6 -->
<g id="edge11_Node000008_Node000006" class="edge">
<title>Node8&#45;&gt;Node6</title>
<g id="a_edge11_Node000008_Node000006"><a xlink:title=" ">
<path fill="none" stroke="#63b8ff" d="M547.89,-54.98C559.15,-46.92 576.29,-34.65 589.71,-25.03"/>
<polygon fill="#63b8ff" stroke="#63b8ff" points="591.8,-27.84 597.89,-19.17 587.73,-22.15 591.8,-27.84"/>
</a>
</g>
</g>
<!-- Node9&#45;&gt;Node3 -->
<g id="edge16_Node000009_Node000003" class="edge">
<title>Node9&#45;&gt;Node3</title>
<g id="a_edge16_Node000009_Node000003"><a xlink:title=" ">
<path fill="none" stroke="#63b8ff" d="M825.41,-54.98C881.78,-45.65 972.19,-30.67 1032.33,-20.71"/>
<polygon fill="#63b8ff" stroke="#63b8ff" points="1033.16,-24.13 1042.45,-19.04 1032.01,-17.22 1033.16,-24.13"/>
</a>
</g>
</g>
<!-- Node10 -->
<g id="Node000010" class="node">
<title>Node10</title>
<g id="a_Node000010"><a xlink:title=" ">
<polygon fill="#e0e0e0" stroke="#999999" points="911.5,-19 858.5,-19 858.5,0 911.5,0 911.5,-19"/>
<text text-anchor="middle" x="885" y="-7" font-family="Helvetica,sans-Serif" font-size="10.00">cstddef</text>
</a>
</g>
</g>
<!-- Node9&#45;&gt;Node10 -->
<g id="edge15_Node000009_Node000010" class="edge">
<title>Node9&#45;&gt;Node10</title>
<g id="a_edge15_Node000009_Node000010"><a xlink:title=" ">
<path fill="none" stroke="#63b8ff" d="M791.83,-54.98C809.61,-46.5 837.15,-33.35 857.68,-23.54"/>
<polygon fill="#63b8ff" stroke="#63b8ff" points="859.33,-26.64 866.84,-19.17 856.31,-20.32 859.33,-26.64"/>
</a>
</g>
</g>
<!-- Node12 -->
<g id="Node000012" class="node">
<title>Node12</title>
<g id="a_Node000012"><a xlink:href="component__view_8h.html" target="_top" xlink:title=" ">
<polygon fill="white" stroke="#666666" points="908,-250 800,-250 800,-231 908,-231 908,-250"/>
<text text-anchor="middle" x="854" y="-238" font-family="Helvetica,sans-Serif" font-size="10.00">component_view.h</text>
</a>
</g>
</g>
<!-- Node11&#45;&gt;Node12 -->
<g id="edge18_Node000011_Node000012" class="edge">
<title>Node11&#45;&gt;Node12</title>
<g id="a_edge18_Node000011_Node000012"><a xlink:title=" ">
<path fill="none" stroke="#63b8ff" d="M951.33,-340.66C933.46,-322.46 892.32,-280.55 869.67,-257.47"/>
<polygon fill="#63b8ff" stroke="#63b8ff" points="872,-254.84 862.5,-250.16 867,-259.75 872,-254.84"/>
</a>
</g>
</g>
<!-- Node23 -->
<g id="Node000023" class="node">
<title>Node23</title>
<g id="a_Node000023"><a xlink:href="component__canvas2d_8h.html" target="_top" xlink:title=" ">
<polygon fill="white" stroke="#666666" points="1108,-305 976,-305 976,-286 1108,-286 1108,-305"/>
<text text-anchor="middle" x="1042" y="-293" font-family="Helvetica,sans-Serif" font-size="10.00">component_canvas2d.h</text>
</a>
</g>
</g>
<!-- Node11&#45;&gt;Node23 -->
<g id="edge42_Node000011_Node000023" class="edge">
<title>Node11&#45;&gt;Node23</title>
<g id="a_edge42_Node000011_Node000023"><a xlink:title=" ">
<path fill="none" stroke="#63b8ff" d="M973.17,-340.98C985.77,-332.84 1005,-320.41 1019.94,-310.76"/>
<polygon fill="#63b8ff" stroke="#63b8ff" points="1022.09,-313.54 1028.59,-305.17 1018.29,-307.66 1022.09,-313.54"/>
</a>
</g>
</g>
<!-- Node32 -->
<g id="Node000032" class="node">
<title>Node32</title>
<g id="a_Node000032"><a xlink:href="component__canvas3d_8h.html" target="_top" xlink:title=" ">
<polygon fill="white" stroke="#666666" points="1323,-305 1191,-305 1191,-286 1323,-286 1323,-305"/>
<text text-anchor="middle" x="1257" y="-293" font-family="Helvetica,sans-Serif" font-size="10.00">component_canvas3d.h</text>
</a>
</g>
</g>
<!-- Node11&#45;&gt;Node32 -->
<g id="edge67_Node000011_Node000032" class="edge">
<title>Node11&#45;&gt;Node32</title>
<g id="a_edge67_Node000011_Node000032"><a xlink:title=" ">
<path fill="none" stroke="#63b8ff" d="M1003.19,-341.79C1054.94,-332.56 1141.85,-317.05 1199.32,-306.79"/>
<polygon fill="#63b8ff" stroke="#63b8ff" points="1200.11,-310.21 1209.33,-305.01 1198.88,-303.32 1200.11,-310.21"/>
</a>
</g>
</g>
<!-- Node12&#45;&gt;Node3 -->
<g id="edge23_Node000012_Node000003" class="edge">
<title>Node12&#45;&gt;Node3</title>
<g id="a_edge23_Node000012_Node000003"><a xlink:title=" ">
<path fill="none" stroke="#63b8ff" d="M870.34,-230.92C885.3,-222.7 907.67,-209.43 925,-195 990.26,-140.64 1054.42,-61.69 1081.09,-27.42"/>
<polygon fill="#63b8ff" stroke="#63b8ff" points="1083.98,-29.41 1087.31,-19.36 1078.43,-25.13 1083.98,-29.41"/>
</a>
</g>
</g>
<!-- Node12&#45;&gt;Node7 -->
<g id="edge22_Node000012_Node000007" class="edge">
<title>Node12&#45;&gt;Node7</title>
<g id="a_edge22_Node000012_Node000007"><a xlink:title=" ">
<path fill="none" stroke="#63b8ff" d="M864.02,-230.96C882.74,-214.65 923.61,-177.35 951,-140 964.12,-122.11 975.69,-99.38 982.97,-83.76"/>
<polygon fill="#63b8ff" stroke="#63b8ff" points="986.35,-84.78 987.29,-74.23 979.97,-81.89 986.35,-84.78"/>
</a>
</g>
</g>
<!-- Node13 -->
<g id="Node000013" class="node">
<title>Node13</title>
<g id="a_Node000013"><a xlink:title=" ">
<polygon fill="#e0e0e0" stroke="#999999" points="235.5,-134.5 170.5,-134.5 170.5,-115.5 235.5,-115.5 235.5,-134.5"/>
<text text-anchor="middle" x="203" y="-122.5" font-family="Helvetica,sans-Serif" font-size="10.00">functional</text>
</a>
</g>
</g>
<!-- Node12&#45;&gt;Node13 -->
<g id="edge19_Node000012_Node000013" class="edge">
<title>Node12&#45;&gt;Node13</title>
<g id="a_edge19_Node000012_Node000013"><a xlink:title=" ">
<path fill="none" stroke="#63b8ff" d="M799.83,-237.44C685.79,-232.66 424.44,-219.37 339,-195 295.92,-182.71 250.37,-156.52 224.44,-140.17"/>
<polygon fill="#63b8ff" stroke="#63b8ff" points="226.12,-137.1 215.81,-134.64 222.34,-142.99 226.12,-137.1"/>
</a>
</g>
</g>
<!-- Node14 -->
<g id="Node000014" class="node">
<title>Node14</title>
<g id="a_Node000014"><a xlink:title=" ">
<polygon fill="#e0e0e0" stroke="#999999" points="310,-134.5 254,-134.5 254,-115.5 310,-115.5 310,-134.5"/>
<text text-anchor="middle" x="282" y="-122.5" font-family="Helvetica,sans-Serif" font-size="10.00">optional</text>
</a>
</g>
</g>
<!-- Node12&#45;&gt;Node14 -->
<g id="edge20_Node000012_Node000014" class="edge">
<title>Node12&#45;&gt;Node14</title>
<g id="a_edge20_Node000012_Node000014"><a xlink:title=" ">
<path fill="none" stroke="#63b8ff" d="M799.83,-238.04C691.75,-234.54 453.17,-223.72 377,-195 345.86,-183.26 315.79,-158.42 298.1,-141.98"/>
<polygon fill="#63b8ff" stroke="#63b8ff" points="300.11,-139.05 290.46,-134.67 295.27,-144.11 300.11,-139.05"/>
</a>
</g>
</g>
<!-- Node15 -->
<g id="Node000015" class="node">
<title>Node15</title>
<g id="a_Node000015"><a xlink:title=" ">
<polygon fill="#e0e0e0" stroke="#999999" points="1133.5,-195 1040.5,-195 1040.5,-176 1133.5,-176 1133.5,-195"/>
<text text-anchor="middle" x="1087" y="-183" font-family="Helvetica,sans-Serif" font-size="10.00">unordered_map</text>
</a>
</g>
</g>
<!-- Node12&#45;&gt;Node15 -->
<g id="edge21_Node000012_Node000015" class="edge">
<title>Node12&#45;&gt;Node15</title>
<g id="a_edge21_Node000012_Node000015"><a xlink:title=" ">
<path fill="none" stroke="#63b8ff" d="M891.44,-230.98C931.65,-221.84 995.68,-207.27 1039.44,-197.32"/>
<polygon fill="#63b8ff" stroke="#63b8ff" points="1040.3,-200.71 1049.27,-195.08 1038.74,-193.89 1040.3,-200.71"/>
</a>
</g>
</g>
<!-- Node16 -->
<g id="Node000016" class="node">
<title>Node16</title>
<g id="a_Node000016"><a xlink:href="common_2val__adaptor_8h.html" target="_top" xlink:title=" ">
<polygon fill="white" stroke="#666666" points="599.5,-140 472.5,-140 472.5,-110 599.5,-110 599.5,-140"/>
<text text-anchor="start" x="480.5" y="-128" font-family="Helvetica,sans-Serif" font-size="10.00">webcface/common/val</text>
<text text-anchor="middle" x="536" y="-117" font-family="Helvetica,sans-Serif" font-size="10.00">_adaptor.h</text>
</a>
</g>
</g>
<!-- Node12&#45;&gt;Node16 -->
<g id="edge24_Node000012_Node000016" class="edge">
<title>Node12&#45;&gt;Node16</title>
<g id="a_edge24_Node000012_Node000016"><a xlink:title=" ">
<path fill="none" stroke="#63b8ff" d="M830.1,-230.97C778.26,-212.47 654.62,-168.34 585.29,-143.59"/>
<polygon fill="#63b8ff" stroke="#63b8ff" points="586.06,-140.15 575.47,-140.09 583.71,-146.74 586.06,-140.15"/>
</a>
</g>
</g>
<!-- Node21 -->
<g id="Node000021" class="node">
<title>Node21</title>
<g id="a_Node000021"><a xlink:href="client_2include_2webcface_2text_8h.html" target="_top" xlink:title=" ">
<polygon fill="white" stroke="#666666" points="481.5,-195 386.5,-195 386.5,-176 481.5,-176 481.5,-195"/>
<text text-anchor="middle" x="434" y="-183" font-family="Helvetica,sans-Serif" font-size="10.00">webcface/text.h</text>
</a>
</g>
</g>
<!-- Node12&#45;&gt;Node21 -->
<g id="edge33_Node000012_Node000021" class="edge">
<title>Node12&#45;&gt;Node21</title>
<g id="a_edge33_Node000012_Node000021"><a xlink:title=" ">
<path fill="none" stroke="#63b8ff" d="M799.95,-232.68C720.6,-222.67 573.17,-204.06 491.76,-193.79"/>
<polygon fill="#63b8ff" stroke="#63b8ff" points="492.04,-190.3 481.68,-192.52 491.17,-197.24 492.04,-190.3"/>
</a>
</g>
</g>
<!-- Node16&#45;&gt;Node3 -->
<g id="edge32_Node000016_Node000003" class="edge">
<title>Node16&#45;&gt;Node3</title>
<g id="a_edge32_Node000016_Node000003"><a xlink:title=" ">
<path fill="none" stroke="#63b8ff" d="M599.6,-120.38C663.06,-115.24 762.59,-102.95 844,-74 859.95,-68.33 861.17,-61 877,-55 927.21,-35.97 987.2,-24.46 1031.37,-17.93"/>
<polygon fill="#63b8ff" stroke="#63b8ff" points="1031.99,-21.37 1041.39,-16.49 1030.99,-14.45 1031.99,-21.37"/>
</a>
</g>
</g>
<!-- Node16&#45;&gt;Node5 -->
<g id="edge25_Node000016_Node000005" class="edge">
<title>Node16&#45;&gt;Node5</title>
<g id="a_edge25_Node000016_Node000005"><a xlink:title=" ">
<path fill="none" stroke="#63b8ff" d="M484.89,-109.91C454.38,-100.35 419.88,-87.11 411,-74 397.25,-53.69 423.73,-35.13 447.56,-23.4"/>
<polygon fill="#63b8ff" stroke="#63b8ff" points="449.22,-26.48 456.81,-19.09 446.27,-20.14 449.22,-26.48"/>
</a>
</g>
</g>
<!-- Node16&#45;&gt;Node7 -->
<g id="edge26_Node000016_Node000007" class="edge">
<title>Node16&#45;&gt;Node7</title>
<g id="a_edge26_Node000016_Node000007"><a xlink:title=" ">
<path fill="none" stroke="#63b8ff" d="M599.74,-115.8C697.62,-103.22 881.51,-79.58 957.17,-69.85"/>
<polygon fill="#63b8ff" stroke="#63b8ff" points="957.63,-73.32 967.11,-68.57 956.74,-66.38 957.63,-73.32"/>
</a>
</g>
</g>
<!-- Node16&#45;&gt;Node8 -->
<g id="edge31_Node000016_Node000008" class="edge">
<title>Node16&#45;&gt;Node8</title>
<g id="a_edge31_Node000016_Node000008"><a xlink:title=" ">
<path fill="none" stroke="#63b8ff" d="M536,-109.84C536,-102.21 536,-92.7 536,-84.45"/>
<polygon fill="#63b8ff" stroke="#63b8ff" points="539.5,-84.27 536,-74.27 532.5,-84.27 539.5,-84.27"/>
</a>
</g>
</g>
<!-- Node17 -->
<g id="Node000017" class="node">
<title>Node17</title>
<g id="a_Node000017"><a xlink:title=" ">
<polygon fill="#e0e0e0" stroke="#999999" points="320.5,-74 279.5,-74 279.5,-55 320.5,-55 320.5,-74"/>
<text text-anchor="middle" x="300" y="-62" font-family="Helvetica,sans-Serif" font-size="10.00">tuple</text>
</a>
</g>
</g>
<!-- Node16&#45;&gt;Node17 -->
<g id="edge27_Node000016_Node000017" class="edge">
<title>Node16&#45;&gt;Node17</title>
<g id="a_edge27_Node000016_Node000017"><a xlink:title=" ">
<path fill="none" stroke="#63b8ff" d="M479.47,-109.99C432.73,-98.4 368.13,-82.39 330.54,-73.07"/>
<polygon fill="#63b8ff" stroke="#63b8ff" points="331.24,-69.64 320.69,-70.63 329.55,-76.43 331.24,-69.64"/>
</a>
</g>
</g>
<!-- Node18 -->
<g id="Node000018" class="node">
<title>Node18</title>
<g id="a_Node000018"><a xlink:title=" ">
<polygon fill="#e0e0e0" stroke="#999999" points="192,-74 142,-74 142,-55 192,-55 192,-74"/>
<text text-anchor="middle" x="167" y="-62" font-family="Helvetica,sans-Serif" font-size="10.00">cstdint</text>
</a>
</g>
</g>
<!-- Node16&#45;&gt;Node18 -->
<g id="edge28_Node000016_Node000018" class="edge">
<title>Node16&#45;&gt;Node18</title>
<g id="a_edge28_Node000016_Node000018"><a xlink:title=" ">
<path fill="none" stroke="#63b8ff" d="M472.33,-111.58C469.18,-111.03 466.06,-110.5 463,-110 350.19,-91.45 318.14,-96.01 202.17,-74.04"/>
<polygon fill="#63b8ff" stroke="#63b8ff" points="202.66,-70.57 192.18,-72.12 201.34,-77.44 202.66,-70.57"/>
</a>
</g>
</g>
<!-- Node19 -->
<g id="Node000019" class="node">
<title>Node19</title>
<g id="a_Node000019"><a xlink:title=" ">
<polygon fill="#e0e0e0" stroke="#999999" points="123.5,-74 66.5,-74 66.5,-55 123.5,-55 123.5,-74"/>
<text text-anchor="middle" x="95" y="-62" font-family="Helvetica,sans-Serif" font-size="10.00">ostream</text>
</a>
</g>
</g>
<!-- Node16&#45;&gt;Node19 -->
<g id="edge29_Node000016_Node000019" class="edge">
<title>Node16&#45;&gt;Node19</title>
<g id="a_edge29_Node000016_Node000019"><a xlink:title=" ">
<path fill="none" stroke="#63b8ff" d="M472.35,-111.48C469.19,-110.96 466.06,-110.46 463,-110 320.38,-88.58 280.33,-97.7 133.84,-73.94"/>
<polygon fill="#63b8ff" stroke="#63b8ff" points="134,-70.42 123.57,-72.25 132.87,-77.33 134,-70.42"/>
</a>
</g>
</g>
<!-- Node20 -->
<g id="Node000020" class="node">
<title>Node20</title>
<g id="a_Node000020"><a xlink:title=" ">
<polygon fill="#e0e0e0" stroke="#999999" points="261.5,-74 210.5,-74 210.5,-55 261.5,-55 261.5,-74"/>
<text text-anchor="middle" x="236" y="-62" font-family="Helvetica,sans-Serif" font-size="10.00">variant</text>
</a>
</g>
</g>
<!-- Node16&#45;&gt;Node20 -->
<g id="edge30_Node000016_Node000020" class="edge">
<title>Node16&#45;&gt;Node20</title>
<g id="a_edge30_Node000016_Node000020"><a xlink:title=" ">
<path fill="none" stroke="#63b8ff" d="M472.3,-111.76C469.16,-111.17 466.04,-110.58 463,-110 380.36,-94.37 356.93,-92.7 271.46,-74.22"/>
<polygon fill="#63b8ff" stroke="#63b8ff" points="272.1,-70.78 261.58,-72.07 270.61,-77.62 272.1,-70.78"/>
</a>
</g>
</g>
<!-- Node21&#45;&gt;Node2 -->
<g id="edge38_Node000021_Node000002" class="edge">
<title>Node21&#45;&gt;Node2</title>
<g id="a_edge38_Node000021_Node000002"><a xlink:title=" ">
<path fill="none" stroke="#63b8ff" d="M415.34,-175.97C398.21,-167.78 372.47,-154.54 352,-140 335.84,-128.52 336.96,-118.39 319,-110 265.76,-85.12 95.62,-118.29 57,-74 25.74,-38.15 105.86,-21.44 157.43,-14.6"/>
<polygon fill="#63b8ff" stroke="#63b8ff" points="158.14,-18.03 167.63,-13.32 157.28,-11.09 158.14,-18.03"/>
</a>
</g>
</g>
<!-- Node21&#45;&gt;Node3 -->
<g id="edge40_Node000021_Node000003" class="edge">
<title>Node21&#45;&gt;Node3</title>
<g id="a_edge40_Node000021_Node000003"><a xlink:title=" ">
<path fill="none" stroke="#63b8ff" d="M481.76,-181.97C546.01,-177.68 663.36,-166.65 760,-140 832.18,-120.09 846.19,-103.51 915,-74 934.58,-65.61 939.09,-62.56 959,-55 991.22,-42.76 1028.46,-30.63 1055.66,-22.14"/>
<polygon fill="#63b8ff" stroke="#63b8ff" points="1057.05,-25.37 1065.56,-19.06 1054.97,-18.68 1057.05,-25.37"/>
</a>
</g>
</g>
<!-- Node21&#45;&gt;Node4 -->
<g id="edge39_Node000021_Node000004" class="edge">
<title>Node21&#45;&gt;Node4</title>
<g id="a_edge39_Node000021_Node000004"><a xlink:title=" ">
<path fill="none" stroke="#63b8ff" d="M476.6,-175.99C535.23,-164.29 639.59,-143.45 693.18,-132.75"/>
<polygon fill="#63b8ff" stroke="#63b8ff" points="694.07,-136.14 703.2,-130.75 692.7,-129.28 694.07,-136.14"/>
</a>
</g>
</g>
<!-- Node21&#45;&gt;Node13 -->
<g id="edge34_Node000021_Node000013" class="edge">
<title>Node21&#45;&gt;Node13</title>
<g id="a_edge34_Node000021_Node000013"><a xlink:title=" ">
<path fill="none" stroke="#63b8ff" d="M392.8,-175.93C354.33,-167.65 295.43,-154.31 245,-140 242.39,-139.26 239.69,-138.45 236.99,-137.62"/>
<polygon fill="#63b8ff" stroke="#63b8ff" points="237.9,-134.24 227.31,-134.52 235.77,-140.9 237.9,-134.24"/>
</a>
</g>
</g>
<!-- Node21&#45;&gt;Node14 -->
<g id="edge36_Node000021_Node000014" class="edge">
<title>Node21&#45;&gt;Node14</title>
<g id="a_edge36_Node000021_Node000014"><a xlink:title=" ">
<path fill="none" stroke="#63b8ff" d="M411.9,-175.99C386.01,-166.03 342.92,-149.45 313.53,-138.13"/>
<polygon fill="#63b8ff" stroke="#63b8ff" points="314.72,-134.84 304.13,-134.52 312.2,-141.38 314.72,-134.84"/>
</a>
</g>
</g>
<!-- Node21&#45;&gt;Node16 -->
<g id="edge41_Node000021_Node000016" class="edge">
<title>Node21&#45;&gt;Node16</title>
<g id="a_edge41_Node000021_Node000016"><a xlink:title=" ">
<path fill="none" stroke="#63b8ff" d="M449.05,-175.87C463.02,-167.86 484.31,-155.65 502.32,-145.31"/>
<polygon fill="#63b8ff" stroke="#63b8ff" points="504.46,-148.13 511.39,-140.11 500.97,-142.05 504.46,-148.13"/>
</a>
</g>
</g>
<!-- Node21&#45;&gt;Node19 -->
<g id="edge35_Node000021_Node000019" class="edge">
<title>Node21&#45;&gt;Node19</title>
<g id="a_edge35_Node000021_Node000019"><a xlink:title=" ">
<path fill="none" stroke="#63b8ff" d="M427.42,-175.87C414.75,-159.94 385.25,-126.07 352,-110 266.05,-68.46 232.04,-91.19 133.65,-73.94"/>
<polygon fill="#63b8ff" stroke="#63b8ff" points="134.07,-70.46 123.6,-72.08 132.79,-77.34 134.07,-70.46"/>
</a>
</g>
</g>
<!-- Node22 -->
<g id="Node000022" class="node">
<title>Node22</title>
<g id="a_Node000022"><a xlink:title=" ">
<polygon fill="#e0e0e0" stroke="#999999" points="454,-134.5 404,-134.5 404,-115.5 454,-115.5 454,-134.5"/>
<text text-anchor="middle" x="429" y="-122.5" font-family="Helvetica,sans-Serif" font-size="10.00">chrono</text>
</a>
</g>
</g>
<!-- Node21&#45;&gt;Node22 -->
<g id="edge37_Node000021_Node000022" class="edge">
<title>Node21&#45;&gt;Node22</title>
<g id="a_edge37_Node000021_Node000022"><a xlink:title=" ">
<path fill="none" stroke="#63b8ff" d="M433.26,-175.87C432.57,-167.75 431.5,-155.31 430.61,-144.89"/>
<polygon fill="#63b8ff" stroke="#63b8ff" points="434.08,-144.33 429.74,-134.67 427.11,-144.93 434.08,-144.33"/>
</a>
</g>
</g>
<!-- Node23&#45;&gt;Node3 -->
<g id="edge45_Node000023_Node000003" class="edge">
<title>Node23&#45;&gt;Node3</title>
<g id="a_edge45_Node000023_Node000003"><a xlink:title=" ">
<path fill="none" stroke="#63b8ff" d="M1056.18,-285.96C1079.53,-270.98 1125.23,-237.46 1143,-195 1146.2,-187.35 1140.62,-91.45 1126,-55 1121.94,-44.88 1115.11,-34.91 1108.79,-26.98"/>
<polygon fill="#63b8ff" stroke="#63b8ff" points="1111.42,-24.66 1102.3,-19.26 1106.06,-29.16 1111.42,-24.66"/>
</a>
</g>
</g>
<!-- Node23&#45;&gt;Node4 -->
<g id="edge61_Node000023_Node000004" class="edge">
<title>Node23&#45;&gt;Node4</title>
<g id="a_edge61_Node000023_Node000004"><a xlink:title=" ">
<path fill="none" stroke="#63b8ff" d="M1025.95,-285.91C974.65,-258.48 814.46,-172.78 752.15,-139.45"/>
<polygon fill="#63b8ff" stroke="#63b8ff" points="753.49,-136.2 743.02,-134.57 750.19,-142.37 753.49,-136.2"/>
</a>
</g>
</g>
<!-- Node23&#45;&gt;Node12 -->
<g id="edge62_Node000023_Node000012" class="edge">
<title>Node23&#45;&gt;Node12</title>
<g id="a_edge62_Node000023_Node000012"><a xlink:title=" ">
<path fill="none" stroke="#63b8ff" d="M1011.79,-285.98C979.96,-277.01 929.64,-262.82 894.4,-252.89"/>
<polygon fill="#63b8ff" stroke="#63b8ff" points="895.02,-249.43 884.44,-250.08 893.12,-256.16 895.02,-249.43"/>
</a>
</g>
</g>
<!-- Node23&#45;&gt;Node14 -->
<g id="edge44_Node000023_Node000014" class="edge">
<title>Node23&#45;&gt;Node14</title>
<g id="a_edge44_Node000023_Node000014"><a xlink:title=" ">
<path fill="none" stroke="#63b8ff" d="M975.86,-291.21C822.53,-282.61 447.63,-255.83 339,-195 317.67,-183.05 301.03,-159.73 291.37,-143.52"/>
<polygon fill="#63b8ff" stroke="#63b8ff" points="294.24,-141.5 286.28,-134.52 288.15,-144.95 294.24,-141.5"/>
</a>
</g>
</g>
<!-- Node23&#45;&gt;Node15 -->
<g id="edge43_Node000023_Node000015" class="edge">
<title>Node23&#45;&gt;Node15</title>
<g id="a_edge43_Node000023_Node000015"><a xlink:title=" ">
<path fill="none" stroke="#63b8ff" d="M1045.68,-285.66C1053.04,-268.01 1069.67,-228.09 1079.44,-204.64"/>
<polygon fill="#63b8ff" stroke="#63b8ff" points="1082.78,-205.74 1083.39,-195.16 1076.32,-203.04 1082.78,-205.74"/>
</a>
</g>
</g>
<!-- Node24 -->
<g id="Node000024" class="node">
<title>Node24</title>
<g id="a_Node000024"><a xlink:href="transform_8h.html" target="_top" xlink:title=" ">
<polygon fill="white" stroke="#666666" points="1310,-195 1236,-195 1236,-176 1310,-176 1310,-195"/>
<text text-anchor="middle" x="1273" y="-183" font-family="Helvetica,sans-Serif" font-size="10.00">transform.h</text>
</a>
</g>
</g>
<!-- Node23&#45;&gt;Node24 -->
<g id="edge46_Node000023_Node000024" class="edge">
<title>Node23&#45;&gt;Node24</title>
<g id="a_edge46_Node000023_Node000024"><a xlink:title=" ">
<path fill="none" stroke="#63b8ff" d="M1075.7,-285.93C1103.38,-278.28 1143.22,-265.84 1176,-250 1204.63,-236.17 1234.86,-215.22 1253.82,-201.21"/>
<polygon fill="#63b8ff" stroke="#63b8ff" points="1256.03,-203.94 1261.93,-195.14 1251.83,-198.34 1256.03,-203.94"/>
</a>
</g>
</g>
<!-- Node31 -->
<g id="Node000031" class="node">
<title>Node31</title>
<g id="a_Node000031"><a xlink:href="geometry_8h.html" target="_top" xlink:title=" ">
<polygon fill="white" stroke="#666666" points="1514.5,-134.5 1393.5,-134.5 1393.5,-115.5 1514.5,-115.5 1514.5,-134.5"/>
<text text-anchor="middle" x="1454" y="-122.5" font-family="Helvetica,sans-Serif" font-size="10.00">webcface/geometry.h</text>
</a>
</g>
</g>
<!-- Node23&#45;&gt;Node31 -->
<g id="edge63_Node000023_Node000031" class="edge">
<title>Node23&#45;&gt;Node31</title>
<g id="a_edge63_Node000023_Node000031"><a xlink:title=" ">
<path fill="none" stroke="#63b8ff" d="M1081.76,-285.93C1115.38,-278.15 1164.57,-265.55 1206,-250 1258.29,-230.38 1269.02,-219.93 1319,-195 1357.18,-175.95 1401.13,-153.36 1428.24,-139.35"/>
<polygon fill="#63b8ff" stroke="#63b8ff" points="1430.15,-142.31 1437.43,-134.6 1426.94,-136.09 1430.15,-142.31"/>
</a>
</g>
</g>
<!-- Node24&#45;&gt;Node3 -->
<g id="edge47_Node000024_Node000003" class="edge">
<title>Node24&#45;&gt;Node3</title>
<g id="a_edge47_Node000024_Node000003"><a xlink:title=" ">
<path fill="none" stroke="#63b8ff" d="M1286.83,-175.89C1298.56,-167.92 1315.02,-155.05 1325,-140 1346.5,-107.57 1371.01,-84.81 1346,-55 1322.27,-26.71 1223.12,-16.4 1156.49,-12.64"/>
<polygon fill="#63b8ff" stroke="#63b8ff" points="1156.67,-9.15 1146.5,-12.12 1156.3,-16.14 1156.67,-9.15"/>
</a>
</g>
</g>
<!-- Node24&#45;&gt;Node14 -->
<g id="edge59_Node000024_Node000014" class="edge">
<title>Node24&#45;&gt;Node14</title>
<g id="a_edge59_Node000024_Node000014"><a xlink:title=" ">
<path fill="none" stroke="#63b8ff" d="M1235.75,-181.89C1209.76,-180.12 1174.28,-177.77 1143,-176 810.71,-157.14 726.61,-168.48 395,-140 370.12,-137.86 342.28,-134.43 320.46,-131.49"/>
<polygon fill="#63b8ff" stroke="#63b8ff" points="320.65,-127.99 310.27,-130.1 319.7,-134.92 320.65,-127.99"/>
</a>
</g>
</g>
<!-- Node25 -->
<g id="Node000025" class="node">
<title>Node25</title>
<g id="a_Node000025"><a xlink:href="array__like_8h.html" target="_top" xlink:title=" ">
<polygon fill="white" stroke="#666666" points="1229,-134.5 1155,-134.5 1155,-115.5 1229,-115.5 1229,-134.5"/>
<text text-anchor="middle" x="1192" y="-122.5" font-family="Helvetica,sans-Serif" font-size="10.00">array_like.h</text>
</a>
</g>
</g>
<!-- Node24&#45;&gt;Node25 -->
<g id="edge48_Node000024_Node000025" class="edge">
<title>Node24&#45;&gt;Node25</title>
<g id="a_edge48_Node000024_Node000025"><a xlink:title=" ">
<path fill="none" stroke="#63b8ff" d="M1261.05,-175.87C1248.25,-166.62 1227.7,-151.78 1212.35,-140.69"/>
<polygon fill="#63b8ff" stroke="#63b8ff" points="1214.16,-137.68 1204,-134.67 1210.06,-143.36 1214.16,-137.68"/>
</a>
</g>
</g>
<!-- Node27 -->
<g id="Node000027" class="node">
<title>Node27</title>
<g id="a_Node000027"><a xlink:title=" ">
<polygon fill="#e0e0e0" stroke="#999999" points="1337,-74 1295,-74 1295,-55 1337,-55 1337,-74"/>
<text text-anchor="middle" x="1316" y="-62" font-family="Helvetica,sans-Serif" font-size="10.00">array</text>
</a>
</g>
</g>
<!-- Node24&#45;&gt;Node27 -->
<g id="edge58_Node000024_Node000027" class="edge">
<title>Node24&#45;&gt;Node27</title>
<g id="a_edge58_Node000024_Node000027"><a xlink:title=" ">
<path fill="none" stroke="#63b8ff" d="M1282.2,-175.93C1290.49,-167.62 1302.22,-154.2 1308,-140 1315.27,-122.14 1316.8,-99.99 1316.81,-84.5"/>
<polygon fill="#63b8ff" stroke="#63b8ff" points="1320.3,-84.06 1316.58,-74.14 1313.3,-84.21 1320.3,-84.06"/>
</a>
</g>
</g>
<!-- Node30 -->
<g id="Node000030" class="node">
<title>Node30</title>
<g id="a_Node000030"><a xlink:title=" ">
<polygon fill="#e0e0e0" stroke="#999999" points="1299,-134.5 1247,-134.5 1247,-115.5 1299,-115.5 1299,-134.5"/>
<text text-anchor="middle" x="1273" y="-122.5" font-family="Helvetica,sans-Serif" font-size="10.00">cassert</text>
</a>
</g>
</g>
<!-- Node24&#45;&gt;Node30 -->
<g id="edge60_Node000024_Node000030" class="edge">
<title>Node24&#45;&gt;Node30</title>
<g id="a_edge60_Node000024_Node000030"><a xlink:title=" ">
<path fill="none" stroke="#63b8ff" d="M1273,-175.87C1273,-167.75 1273,-155.31 1273,-144.89"/>
<polygon fill="#63b8ff" stroke="#63b8ff" points="1276.5,-144.67 1273,-134.67 1269.5,-144.67 1276.5,-144.67"/>
</a>
</g>
</g>
<!-- Node25&#45;&gt;Node3 -->
<g id="edge57_Node000025_Node000003" class="edge">
<title>Node25&#45;&gt;Node3</title>
<g id="a_edge57_Node000025_Node000003"><a xlink:title=" ">
<path fill="none" stroke="#63b8ff" d="M1207.92,-115.45C1229.84,-102.57 1264.78,-77.32 1248,-55 1236.68,-39.94 1194.25,-28.36 1156.79,-20.8"/>
<polygon fill="#63b8ff" stroke="#63b8ff" points="1157.38,-17.35 1146.89,-18.86 1156.04,-24.22 1157.38,-17.35"/>
</a>
</g>
</g>
<!-- Node25&#45;&gt;Node5 -->
<g id="edge53_Node000025_Node000005" class="edge">
<title>Node25&#45;&gt;Node5</title>
<g id="a_edge53_Node000025_Node000005"><a xlink:title=" ">
<path fill="none" stroke="#63b8ff" d="M1154.72,-122.36C1072.76,-118.27 870.94,-105.59 705,-74 667.56,-66.87 564.2,-36.27 511.22,-20.29"/>
<polygon fill="#63b8ff" stroke="#63b8ff" points="511.92,-16.85 501.33,-17.3 509.89,-23.55 511.92,-16.85"/>
</a>
</g>
</g>
<!-- Node25&#45;&gt;Node7 -->
<g id="edge50_Node000025_Node000007" class="edge">
<title>Node25&#45;&gt;Node7</title>
<g id="a_edge50_Node000025_Node000007"><a xlink:title=" ">
<path fill="none" stroke="#63b8ff" d="M1162.77,-115.49C1125.99,-104.79 1062.97,-86.45 1024.35,-75.2"/>
<polygon fill="#63b8ff" stroke="#63b8ff" points="1025.19,-71.81 1014.61,-72.37 1023.23,-78.53 1025.19,-71.81"/>
</a>
</g>
</g>
<!-- Node26 -->
<g id="Node000026" class="node">
<title>Node26</title>
<g id="a_Node000026"><a xlink:title=" ">
<polygon fill="#e0e0e0" stroke="#999999" points="1238.5,-74 1173.5,-74 1173.5,-55 1238.5,-55 1238.5,-74"/>
<text text-anchor="middle" x="1206" y="-62" font-family="Helvetica,sans-Serif" font-size="10.00">stdexcept</text>
</a>
</g>
</g>
<!-- Node25&#45;&gt;Node26 -->
<g id="edge49_Node000025_Node000026" class="edge">
<title>Node25&#45;&gt;Node26</title>
<g id="a_edge49_Node000025_Node000026"><a xlink:title=" ">
<path fill="none" stroke="#63b8ff" d="M1194.07,-115.37C1196.03,-107.16 1199.05,-94.54 1201.56,-84.05"/>
<polygon fill="#63b8ff" stroke="#63b8ff" points="1205,-84.71 1203.93,-74.17 1198.19,-83.08 1205,-84.71"/>
</a>
</g>
</g>
<!-- Node25&#45;&gt;Node27 -->
<g id="edge51_Node000025_Node000027" class="edge">
<title>Node25&#45;&gt;Node27</title>
<g id="a_edge51_Node000025_Node000027"><a xlink:title=" ">
<path fill="none" stroke="#63b8ff" d="M1210.03,-115.49C1230.69,-105.75 1264.78,-89.66 1288.7,-78.38"/>
<polygon fill="#63b8ff" stroke="#63b8ff" points="1290.4,-81.45 1297.95,-74.02 1287.41,-75.12 1290.4,-81.45"/>
</a>
</g>
</g>
<!-- Node28 -->
<g id="Node000028" class="node">
<title>Node28</title>
<g id="a_Node000028"><a xlink:title=" ">
<polygon fill="#e0e0e0" stroke="#999999" points="1462.5,-74 1393.5,-74 1393.5,-55 1462.5,-55 1462.5,-74"/>
<text text-anchor="middle" x="1428" y="-62" font-family="Helvetica,sans-Serif" font-size="10.00">type_traits</text>
</a>
</g>
</g>
<!-- Node25&#45;&gt;Node28 -->
<g id="edge52_Node000025_Node000028" class="edge">
<title>Node25&#45;&gt;Node28</title>
<g id="a_edge52_Node000025_Node000028"><a xlink:title=" ">
<path fill="none" stroke="#63b8ff" d="M1219.16,-115.41C1225.33,-113.55 1231.87,-111.65 1238,-110 1287.4,-96.71 1344.63,-83.62 1383.27,-75.11"/>
<polygon fill="#63b8ff" stroke="#63b8ff" points="1384.14,-78.5 1393.16,-72.94 1382.64,-71.66 1384.14,-78.5"/>
</a>
</g>
</g>
<!-- Node29 -->
<g id="Node000029" class="node">
<title>Node29</title>
<g id="a_Node000029"><a xlink:href="trait_8h.html" target="_top" xlink:title=" ">
<polygon fill="white" stroke="#666666" points="1117,-74 1071,-74 1071,-55 1117,-55 1117,-74"/>
<text text-anchor="middle" x="1094" y="-62" font-family="Helvetica,sans-Serif" font-size="10.00">trait.h</text>
</a>
</g>
</g>
<!-- Node25&#45;&gt;Node29 -->
<g id="edge54_Node000025_Node000029" class="edge">
<title>Node25&#45;&gt;Node29</title>
<g id="a_edge54_Node000025_Node000029"><a xlink:title=" ">
<path fill="none" stroke="#63b8ff" d="M1177.54,-115.37C1161.69,-105.91 1136.03,-90.59 1117.32,-79.42"/>
<polygon fill="#63b8ff" stroke="#63b8ff" points="1118.9,-76.29 1108.52,-74.17 1115.31,-82.3 1118.9,-76.29"/>
</a>
</g>
</g>
<!-- Node29&#45;&gt;Node3 -->
<g id="edge56_Node000029_Node000003" class="edge">
<title>Node29&#45;&gt;Node3</title>
<g id="a_edge56_Node000029_Node000003"><a xlink:title=" ">
<path fill="none" stroke="#63b8ff" d="M1094,-54.75C1094,-47.8 1094,-37.85 1094,-29.13"/>
<polygon fill="#63b8ff" stroke="#63b8ff" points="1097.5,-29.09 1094,-19.09 1090.5,-29.09 1097.5,-29.09"/>
</a>
</g>
</g>
<!-- Node29&#45;&gt;Node10 -->
<g id="edge55_Node000029_Node000010" class="edge">
<title>Node29&#45;&gt;Node10</title>
<g id="a_edge55_Node000029_Node000010"><a xlink:title=" ">
<path fill="none" stroke="#63b8ff" d="M1070.83,-57.63C1034.63,-48.44 964.32,-30.62 921.33,-19.71"/>
<polygon fill="#63b8ff" stroke="#63b8ff" points="922.1,-16.3 911.55,-17.23 920.38,-23.08 922.1,-16.3"/>
</a>
</g>
</g>
<!-- Node31&#45;&gt;Node3 -->
<g id="edge64_Node000031_Node000003" class="edge">
<title>Node31&#45;&gt;Node3</title>
<g id="a_edge64_Node000031_Node000003"><a xlink:title=" ">
<path fill="none" stroke="#63b8ff" d="M1460.73,-115.2C1470.87,-100.84 1487.3,-72.21 1472,-55 1451.46,-31.91 1259.09,-18.8 1156.98,-13.42"/>
<polygon fill="#63b8ff" stroke="#63b8ff" points="1156.96,-9.91 1146.79,-12.89 1156.6,-16.9 1156.96,-9.91"/>
</a>
</g>
</g>
<!-- Node31&#45;&gt;Node7 -->
<g id="edge65_Node000031_Node000007" class="edge">
<title>Node31&#45;&gt;Node7</title>
<g id="a_edge65_Node000031_Node000007"><a xlink:title=" ">
<path fill="none" stroke="#63b8ff" d="M1393.47,-116.35C1294.91,-103.9 1102.93,-79.64 1025.05,-69.8"/>
<polygon fill="#63b8ff" stroke="#63b8ff" points="1025.2,-66.29 1014.84,-68.51 1024.32,-73.24 1025.2,-66.29"/>
</a>
</g>
</g>
<!-- Node31&#45;&gt;Node28 -->
<g id="edge66_Node000031_Node000028" class="edge">
<title>Node31&#45;&gt;Node28</title>
<g id="a_edge66_Node000031_Node000028"><a xlink:title=" ">
<path fill="none" stroke="#63b8ff" d="M1450.16,-115.37C1446.44,-106.99 1440.67,-94.01 1435.95,-83.39"/>
<polygon fill="#63b8ff" stroke="#63b8ff" points="1439.11,-81.88 1431.85,-74.17 1432.72,-84.73 1439.11,-81.88"/>
</a>
</g>
</g>
<!-- Node32&#45;&gt;Node3 -->
<g id="edge72_Node000032_Node000003" class="edge">
<title>Node32&#45;&gt;Node3</title>
<g id="a_edge72_Node000032_Node000003"><a xlink:title=" ">
<path fill="none" stroke="#63b8ff" d="M1308.46,-285.95C1390.8,-270.79 1543,-236.06 1543,-186.5 1543,-186.5 1543,-186.5 1543,-124 1543,-85.06 1523,-73.99 1489,-55 1433.56,-24.03 1253.68,-14.59 1156.94,-11.73"/>
<polygon fill="#63b8ff" stroke="#63b8ff" points="1156.8,-8.22 1146.7,-11.44 1156.6,-15.22 1156.8,-8.22"/>
</a>
</g>
</g>
<!-- Node32&#45;&gt;Node12 -->
<g id="edge69_Node000032_Node000012" class="edge">
<title>Node32&#45;&gt;Node12</title>
<g id="a_edge69_Node000032_Node000012"><a xlink:title=" ">
<path fill="none" stroke="#63b8ff" d="M1192.25,-285.98C1117.03,-276.09 993.65,-259.87 918.52,-249.99"/>
<polygon fill="#63b8ff" stroke="#63b8ff" points="918.62,-246.47 908.25,-248.63 917.71,-253.41 918.62,-246.47"/>
</a>
</g>
</g>
<!-- Node32&#45;&gt;Node15 -->
<g id="edge68_Node000032_Node000015" class="edge">
<title>Node32&#45;&gt;Node15</title>
<g id="a_edge68_Node000032_Node000015"><a xlink:title=" ">
<path fill="none" stroke="#63b8ff" d="M1243.38,-285.84C1214.16,-267.28 1145.22,-223.49 1109.44,-200.75"/>
<polygon fill="#63b8ff" stroke="#63b8ff" points="1111.01,-197.6 1100.69,-195.2 1107.25,-203.51 1111.01,-197.6"/>
</a>
</g>
</g>
<!-- Node32&#45;&gt;Node24 -->
<g id="edge71_Node000032_Node000024" class="edge">
<title>Node32&#45;&gt;Node24</title>
<g id="a_edge71_Node000032_Node000024"><a xlink:title=" ">
<path fill="none" stroke="#63b8ff" d="M1258.31,-285.66C1260.9,-268.17 1266.73,-228.8 1270.22,-205.27"/>
<polygon fill="#63b8ff" stroke="#63b8ff" points="1273.71,-205.56 1271.72,-195.16 1266.79,-204.54 1273.71,-205.56"/>
</a>
</g>
</g>
<!-- Node32&#45;&gt;Node31 -->
<g id="edge70_Node000032_Node000031" class="edge">
<title>Node32&#45;&gt;Node31</title>
<g id="a_edge70_Node000032_Node000031"><a xlink:title=" ">
<path fill="none" stroke="#63b8ff" d="M1313.39,-285.94C1339.4,-279.61 1369.26,-268.71 1391,-250 1424.14,-221.48 1441.91,-171.28 1449.48,-144.33"/>
<polygon fill="#63b8ff" stroke="#63b8ff" points="1452.87,-145.19 1452.04,-134.63 1446.11,-143.4 1452.87,-145.19"/>
</a>
</g>
</g>
</g>
</svg>
