<?xml version="1.0" encoding="UTF-8" standalone="no"?>
<!DOCTYPE svg PUBLIC "-//W3C//DTD SVG 1.1//EN"
 "http://www.w3.org/Graphics/SVG/1.1/DTD/svg11.dtd">
<!-- Generated by graphviz version 2.43.0 (0)
 -->
<!-- Title: client/include/webcface/value.h Pages: 1 -->
<svg width="959pt" height="203pt"
 viewBox="0.00 0.00 958.50 203.00" xmlns="http://www.w3.org/2000/svg" xmlns:xlink="http://www.w3.org/1999/xlink">
<g id="graph0" class="graph" transform="scale(1 1) rotate(0) translate(4 199)">
<title>client/include/webcface/value.h</title>
<!-- Node1 -->
<g id="Node000001" class="node">
<title>Node1</title>
<g id="a_Node000001"><a xlink:title=" ">
<polygon fill="#999999" stroke="#666666" points="323,-195 192,-195 192,-165 323,-165 323,-195"/>
<text text-anchor="start" x="200" y="-183" font-family="Helvetica,sans-Serif" font-size="10.00">client/include/webcface</text>
<text text-anchor="middle" x="257.5" y="-172" font-family="Helvetica,sans-Serif" font-size="10.00">/value.h</text>
</a>
</g>
</g>
<!-- Node2 -->
<g id="Node000002" class="node">
<title>Node2</title>
<g id="a_Node000002"><a xlink:title=" ">
<polygon fill="#e0e0e0" stroke="#999999" points="65,-129 0,-129 0,-110 65,-110 65,-129"/>
<text text-anchor="middle" x="32.5" y="-117" font-family="Helvetica,sans-Serif" font-size="10.00">functional</text>
</a>
</g>
</g>
<!-- Node1&#45;&gt;Node2 -->
<g id="edge1_Node000001_Node000002" class="edge">
<title>Node1&#45;&gt;Node2</title>
<g id="a_edge1_Node000001_Node000002"><a xlink:title=" ">
<path fill="none" stroke="#63b8ff" d="M203.61,-164.99C164.15,-154.73 111.36,-141 74.9,-131.52"/>
<polygon fill="#63b8ff" stroke="#63b8ff" points="75.63,-128.1 65.07,-128.97 73.87,-134.87 75.63,-128.1"/>
</a>
</g>
</g>
<!-- Node3 -->
<g id="Node000003" class="node">
<title>Node3</title>
<g id="a_Node000003"><a xlink:title=" ">
<polygon fill="#e0e0e0" stroke="#999999" points="140,-129 83,-129 83,-110 140,-110 140,-129"/>
<text text-anchor="middle" x="111.5" y="-117" font-family="Helvetica,sans-Serif" font-size="10.00">ostream</text>
</a>
</g>
</g>
<!-- Node1&#45;&gt;Node3 -->
<g id="edge2_Node000001_Node000003" class="edge">
<title>Node1&#45;&gt;Node3</title>
<g id="a_edge2_Node000001_Node000003"><a xlink:title=" ">
<path fill="none" stroke="#63b8ff" d="M222.53,-164.99C198.17,-155.23 165.97,-142.33 142.53,-132.93"/>
<polygon fill="#63b8ff" stroke="#63b8ff" points="143.65,-129.61 133.06,-129.14 141.04,-136.11 143.65,-129.61"/>
</a>
</g>
</g>
<!-- Node4 -->
<g id="Node000004" class="node">
<title>Node4</title>
<g id="a_Node000004"><a xlink:title=" ">
<polygon fill="#e0e0e0" stroke="#999999" points="214.5,-129 158.5,-129 158.5,-110 214.5,-110 214.5,-129"/>
<text text-anchor="middle" x="186.5" y="-117" font-family="Helvetica,sans-Serif" font-size="10.00">optional</text>
</a>
</g>
</g>
<!-- Node1&#45;&gt;Node4 -->
<g id="edge3_Node000001_Node000004" class="edge">
<title>Node1&#45;&gt;Node4</title>
<g id="a_edge3_Node000001_Node000004"><a xlink:title=" ">
<path fill="none" stroke="#63b8ff" d="M240.31,-164.84C229.69,-156.09 216.06,-144.85 205.17,-135.88"/>
<polygon fill="#63b8ff" stroke="#63b8ff" points="207.08,-132.92 197.14,-129.27 202.63,-138.33 207.08,-132.92"/>
</a>
</g>
</g>
<!-- Node5 -->
<g id="Node000005" class="node">
<title>Node5</title>
<g id="a_Node000005"><a xlink:title=" ">
<polygon fill="#e0e0e0" stroke="#999999" points="282.5,-129 232.5,-129 232.5,-110 282.5,-110 282.5,-129"/>
<text text-anchor="middle" x="257.5" y="-117" font-family="Helvetica,sans-Serif" font-size="10.00">chrono</text>
</a>
</g>
</g>
<!-- Node1&#45;&gt;Node5 -->
<g id="edge4_Node000001_Node000005" class="edge">
<title>Node1&#45;&gt;Node5</title>
<g id="a_edge4_Node000001_Node000005"><a xlink:title=" ">
<path fill="none" stroke="#63b8ff" d="M257.5,-164.84C257.5,-157.21 257.5,-147.7 257.5,-139.45"/>
<polygon fill="#63b8ff" stroke="#63b8ff" points="261,-139.27 257.5,-129.27 254,-139.27 261,-139.27"/>
</a>
</g>
</g>
<!-- Node6 -->
<g id="Node000006" class="node">
<title>Node6</title>
<g id="a_Node000006"><a xlink:href="field_8h.html" target="_top" xlink:title=" ">
<polygon fill="white" stroke="#666666" points="348,-129 301,-129 301,-110 348,-110 348,-129"/>
<text text-anchor="middle" x="324.5" y="-117" font-family="Helvetica,sans-Serif" font-size="10.00">field.h</text>
</a>
</g>
</g>
<!-- Node1&#45;&gt;Node6 -->
<g id="edge5_Node000001_Node000006" class="edge">
<title>Node1&#45;&gt;Node6</title>
<g id="a_edge5_Node000001_Node000006"><a xlink:title=" ">
<path fill="none" stroke="#63b8ff" d="M273.72,-164.84C283.74,-156.09 296.61,-144.85 306.88,-135.88"/>
<polygon fill="#63b8ff" stroke="#63b8ff" points="309.23,-138.48 314.46,-129.27 304.63,-133.21 309.23,-138.48"/>
</a>
</g>
</g>
<!-- Node11 -->
<g id="Node000011" class="node">
<title>Node11</title>
<g id="a_Node000011"><a xlink:href="webcface-config_8h.html" target="_top" xlink:title=" ">
<polygon fill="white" stroke="#666666" points="614,-19 509,-19 509,0 614,0 614,-19"/>
<text text-anchor="middle" x="561.5" y="-7" font-family="Helvetica,sans-Serif" font-size="10.00">webcface&#45;config.h</text>
</a>
</g>
</g>
<!-- Node1&#45;&gt;Node11 -->
<g id="edge29_Node000001_Node000011" class="edge">
<title>Node1&#45;&gt;Node11</title>
<g id="a_edge29_Node000001_Node000011"><a xlink:title=" ">
<path fill="none" stroke="#63b8ff" d="M323.04,-167.52C409.95,-150.8 556.05,-117.01 587.5,-74 597.88,-59.8 587.64,-40.86 577.11,-27.36"/>
<polygon fill="#63b8ff" stroke="#63b8ff" points="579.49,-24.76 570.36,-19.39 574.15,-29.28 579.49,-24.76"/>
</a>
</g>
</g>
<!-- Node15 -->
<g id="Node000015" class="node">
<title>Node15</title>
<g id="a_Node000015"><a xlink:href="array__like_8h.html" target="_top" xlink:title=" ">
<polygon fill="white" stroke="#666666" points="725.5,-129 651.5,-129 651.5,-110 725.5,-110 725.5,-129"/>
<text text-anchor="middle" x="688.5" y="-117" font-family="Helvetica,sans-Serif" font-size="10.00">array_like.h</text>
</a>
</g>
</g>
<!-- Node1&#45;&gt;Node15 -->
<g id="edge19_Node000001_Node000015" class="edge">
<title>Node1&#45;&gt;Node15</title>
<g id="a_edge19_Node000001_Node000015"><a xlink:title=" ">
<path fill="none" stroke="#63b8ff" d="M323.43,-170.05C411.04,-158.16 563.73,-137.44 640.92,-126.96"/>
<polygon fill="#63b8ff" stroke="#63b8ff" points="641.86,-130.36 651.3,-125.55 640.92,-123.43 641.86,-130.36"/>
</a>
</g>
</g>
<!-- Node7 -->
<g id="Node000007" class="node">
<title>Node7</title>
<g id="a_Node000007"><a xlink:title=" ">
<polygon fill="#e0e0e0" stroke="#999999" points="188.5,-19 130.5,-19 130.5,0 188.5,0 188.5,-19"/>
<text text-anchor="middle" x="159.5" y="-7" font-family="Helvetica,sans-Serif" font-size="10.00">memory</text>
</a>
</g>
</g>
<!-- Node6&#45;&gt;Node7 -->
<g id="edge6_Node000006_Node000007" class="edge">
<title>Node6&#45;&gt;Node7</title>
<g id="a_edge6_Node000006_Node000007"><a xlink:title=" ">
<path fill="none" stroke="#63b8ff" d="M300.76,-112.14C297.66,-111.38 294.51,-110.65 291.5,-110 245.64,-100.14 113.71,-109.89 83.5,-74 66.36,-53.64 97.72,-34.69 125.2,-22.89"/>
<polygon fill="#63b8ff" stroke="#63b8ff" points="126.74,-26.04 134.67,-19.02 124.09,-19.56 126.74,-26.04"/>
</a>
</g>
</g>
<!-- Node8 -->
<g id="Node000008" class="node">
<title>Node8</title>
<g id="a_Node000008"><a xlink:title=" ">
<polygon fill="#e0e0e0" stroke="#999999" points="308.5,-19 264.5,-19 264.5,0 308.5,0 308.5,-19"/>
<text text-anchor="middle" x="286.5" y="-7" font-family="Helvetica,sans-Serif" font-size="10.00">string</text>
</a>
</g>
</g>
<!-- Node6&#45;&gt;Node8 -->
<g id="edge7_Node000006_Node000008" class="edge">
<title>Node6&#45;&gt;Node8</title>
<g id="a_edge7_Node000006_Node000008"><a xlink:title=" ">
<path fill="none" stroke="#63b8ff" d="M321.39,-109.66C315.18,-92.01 301.13,-52.09 292.88,-28.64"/>
<polygon fill="#63b8ff" stroke="#63b8ff" points="296.17,-27.43 289.55,-19.16 289.56,-29.75 296.17,-27.43"/>
</a>
</g>
</g>
<!-- Node9 -->
<g id="Node000009" class="node">
<title>Node9</title>
<g id="a_Node000009"><a xlink:title=" ">
<polygon fill="#e0e0e0" stroke="#999999" points="80,-19 7,-19 7,0 80,0 80,-19"/>
<text text-anchor="middle" x="43.5" y="-7" font-family="Helvetica,sans-Serif" font-size="10.00">string_view</text>
</a>
</g>
</g>
<!-- Node6&#45;&gt;Node9 -->
<g id="edge8_Node000006_Node000009" class="edge">
<title>Node6&#45;&gt;Node9</title>
<g id="a_edge8_Node000006_Node000009"><a xlink:title=" ">
<path fill="none" stroke="#63b8ff" d="M300.77,-112.12C297.66,-111.37 294.51,-110.64 291.5,-110 196.29,-89.84 153.88,-131.7 75.5,-74 60.76,-63.15 52.37,-43.58 47.9,-29.02"/>
<polygon fill="#63b8ff" stroke="#63b8ff" points="51.21,-27.83 45.22,-19.09 44.45,-29.66 51.21,-27.83"/>
</a>
</g>
</g>
<!-- Node10 -->
<g id="Node000010" class="node">
<title>Node10</title>
<g id="a_Node000010"><a xlink:title=" ">
<polygon fill="#e0e0e0" stroke="#999999" points="400,-74 353,-74 353,-55 400,-55 400,-74"/>
<text text-anchor="middle" x="376.5" y="-62" font-family="Helvetica,sans-Serif" font-size="10.00">vector</text>
</a>
</g>
</g>
<!-- Node6&#45;&gt;Node10 -->
<g id="edge9_Node000006_Node000010" class="edge">
<title>Node6&#45;&gt;Node10</title>
<g id="a_edge9_Node000006_Node000010"><a xlink:title=" ">
<path fill="none" stroke="#63b8ff" d="M333.09,-109.75C340.66,-102.03 351.88,-90.6 361.01,-81.28"/>
<polygon fill="#63b8ff" stroke="#63b8ff" points="363.57,-83.68 368.07,-74.09 358.57,-78.78 363.57,-83.68"/>
</a>
</g>
</g>
<!-- Node6&#45;&gt;Node11 -->
<g id="edge10_Node000006_Node000011" class="edge">
<title>Node6&#45;&gt;Node11</title>
<g id="a_edge10_Node000006_Node000011"><a xlink:title=" ">
<path fill="none" stroke="#63b8ff" d="M324.46,-109.65C324.9,-95.84 327.87,-69.29 343.5,-55 365.84,-34.57 442.55,-22.48 498.67,-16.17"/>
<polygon fill="#63b8ff" stroke="#63b8ff" points="499.33,-19.62 508.9,-15.06 498.58,-12.66 499.33,-19.62"/>
</a>
</g>
</g>
<!-- Node12 -->
<g id="Node000012" class="node">
<title>Node12</title>
<g id="a_Node000012"><a xlink:href="common_2encoding_8h.html" target="_top" xlink:title=" ">
<polygon fill="white" stroke="#666666" points="258,-74 93,-74 93,-55 258,-55 258,-74"/>
<text text-anchor="middle" x="175.5" y="-62" font-family="Helvetica,sans-Serif" font-size="10.00">webcface/common/encoding.h</text>
</a>
</g>
</g>
<!-- Node6&#45;&gt;Node12 -->
<g id="edge11_Node000006_Node000012" class="edge">
<title>Node6&#45;&gt;Node12</title>
<g id="a_edge11_Node000006_Node000012"><a xlink:title=" ">
<path fill="none" stroke="#63b8ff" d="M300.89,-110.1C276.19,-101.32 237.19,-87.44 209.24,-77.5"/>
<polygon fill="#63b8ff" stroke="#63b8ff" points="210.09,-74.09 199.49,-74.03 207.74,-80.68 210.09,-74.09"/>
</a>
</g>
</g>
<!-- Node13 -->
<g id="Node000013" class="node">
<title>Node13</title>
<g id="a_Node000013"><a xlink:href="complete_8h.html" target="_top" xlink:title=" ">
<polygon fill="white" stroke="#666666" points="578,-74 457,-74 457,-55 578,-55 578,-74"/>
<text text-anchor="middle" x="517.5" y="-62" font-family="Helvetica,sans-Serif" font-size="10.00">webcface/complete.h</text>
</a>
</g>
</g>
<!-- Node6&#45;&gt;Node13 -->
<g id="edge16_Node000006_Node000013" class="edge">
<title>Node6&#45;&gt;Node13</title>
<g id="a_edge16_Node000006_Node000013"><a xlink:title=" ">
<path fill="none" stroke="#63b8ff" d="M348.17,-112C380.04,-103.25 437.27,-87.53 476.3,-76.82"/>
<polygon fill="#63b8ff" stroke="#63b8ff" points="477.57,-80.09 486.29,-74.07 475.72,-73.34 477.57,-80.09"/>
</a>
</g>
</g>
<!-- Node12&#45;&gt;Node7 -->
<g id="edge14_Node000012_Node000007" class="edge">
<title>Node12&#45;&gt;Node7</title>
<g id="a_edge14_Node000012_Node000007"><a xlink:title=" ">
<path fill="none" stroke="#63b8ff" d="M172.86,-54.75C170.74,-47.72 167.69,-37.62 165.04,-28.84"/>
<polygon fill="#63b8ff" stroke="#63b8ff" points="168.33,-27.65 162.09,-19.09 161.63,-29.67 168.33,-27.65"/>
</a>
</g>
</g>
<!-- Node12&#45;&gt;Node8 -->
<g id="edge12_Node000012_Node000008" class="edge">
<title>Node12&#45;&gt;Node8</title>
<g id="a_edge12_Node000012_Node000008"><a xlink:title=" ">
<path fill="none" stroke="#63b8ff" d="M193.33,-54.98C211.11,-46.5 238.65,-33.35 259.18,-23.54"/>
<polygon fill="#63b8ff" stroke="#63b8ff" points="260.83,-26.64 268.34,-19.17 257.81,-20.32 260.83,-26.64"/>
</a>
</g>
</g>
<!-- Node12&#45;&gt;Node9 -->
<g id="edge13_Node000012_Node000009" class="edge">
<title>Node12&#45;&gt;Node9</title>
<g id="a_edge13_Node000012_Node000009"><a xlink:title=" ">
<path fill="none" stroke="#63b8ff" d="M154.29,-54.98C132.77,-46.34 99.22,-32.87 74.67,-23.02"/>
<polygon fill="#63b8ff" stroke="#63b8ff" points="75.68,-19.65 65.09,-19.17 73.07,-26.14 75.68,-19.65"/>
</a>
</g>
</g>
<!-- Node12&#45;&gt;Node11 -->
<g id="edge15_Node000012_Node000011" class="edge">
<title>Node12&#45;&gt;Node11</title>
<g id="a_edge15_Node000012_Node000011"><a xlink:title=" ">
<path fill="none" stroke="#63b8ff" d="M237.52,-54.98C309.22,-45.14 426.59,-29.02 498.65,-19.13"/>
<polygon fill="#63b8ff" stroke="#63b8ff" points="499.51,-22.55 508.94,-17.72 498.55,-15.61 499.51,-22.55"/>
</a>
</g>
</g>
<!-- Node13&#45;&gt;Node11 -->
<g id="edge18_Node000013_Node000011" class="edge">
<title>Node13&#45;&gt;Node11</title>
<g id="a_edge18_Node000013_Node000011"><a xlink:title=" ">
<path fill="none" stroke="#63b8ff" d="M524.77,-54.75C531.04,-47.18 540.29,-36.05 547.93,-26.84"/>
<polygon fill="#63b8ff" stroke="#63b8ff" points="550.67,-29.02 554.37,-19.09 545.29,-24.55 550.67,-29.02"/>
</a>
</g>
</g>
<!-- Node14 -->
<g id="Node000014" class="node">
<title>Node14</title>
<g id="a_Node000014"><a xlink:title=" ">
<polygon fill="#e0e0e0" stroke="#999999" points="841,-19 788,-19 788,0 841,0 841,-19"/>
<text text-anchor="middle" x="814.5" y="-7" font-family="Helvetica,sans-Serif" font-size="10.00">cstddef</text>
</a>
</g>
</g>
<!-- Node13&#45;&gt;Node14 -->
<g id="edge17_Node000013_Node000014" class="edge">
<title>Node13&#45;&gt;Node14</title>
<g id="a_edge17_Node000013_Node000014"><a xlink:title=" ">
<path fill="none" stroke="#63b8ff" d="M565.22,-54.98C624.4,-44.42 724.03,-26.65 777.66,-17.07"/>
<polygon fill="#63b8ff" stroke="#63b8ff" points="778.52,-20.48 787.75,-15.27 777.29,-13.59 778.52,-20.48"/>
</a>
</g>
</g>
<!-- Node15&#45;&gt;Node8 -->
<g id="edge24_Node000015_Node000008" class="edge">
<title>Node15&#45;&gt;Node8</title>
<g id="a_edge24_Node000015_Node000008"><a xlink:title=" ">
<path fill="none" stroke="#63b8ff" d="M651.13,-114.74C603.25,-109.2 518.13,-96.95 448.5,-74 430.19,-67.97 427.26,-62.51 409.5,-55 378.99,-42.09 343.3,-29.44 318.25,-20.95"/>
<polygon fill="#63b8ff" stroke="#63b8ff" points="319.14,-17.56 308.55,-17.69 316.91,-24.19 319.14,-17.56"/>
</a>
</g>
</g>
<!-- Node15&#45;&gt;Node10 -->
<g id="edge21_Node000015_Node000010" class="edge">
<title>Node15&#45;&gt;Node10</title>
<g id="a_edge21_Node000015_Node000010"><a xlink:title=" ">
<path fill="none" stroke="#63b8ff" d="M651.15,-113.15C598.3,-105.41 498.73,-90.25 414.5,-74 413.05,-73.72 411.57,-73.43 410.07,-73.12"/>
<polygon fill="#63b8ff" stroke="#63b8ff" points="410.68,-69.67 400.17,-71.02 409.23,-76.52 410.68,-69.67"/>
</a>
</g>
</g>
<!-- Node15&#45;&gt;Node11 -->
<g id="edge28_Node000015_Node000011" class="edge">
<title>Node15&#45;&gt;Node11</title>
<g id="a_edge28_Node000015_Node000011"><a xlink:title=" ">
<path fill="none" stroke="#63b8ff" d="M679.97,-109.98C667.34,-97.5 642.76,-73.7 620.5,-55 607.97,-44.48 593.29,-33.4 581.71,-24.93"/>
<polygon fill="#63b8ff" stroke="#63b8ff" points="583.69,-22.04 573.54,-19.01 579.58,-27.71 583.69,-22.04"/>
</a>
</g>
</g>
<!-- Node16 -->
<g id="Node000016" class="node">
<title>Node16</title>
<g id="a_Node000016"><a xlink:title=" ">
<polygon fill="#e0e0e0" stroke="#999999" points="738,-74 673,-74 673,-55 738,-55 738,-74"/>
<text text-anchor="middle" x="705.5" y="-62" font-family="Helvetica,sans-Serif" font-size="10.00">stdexcept</text>
</a>
</g>
</g>
<!-- Node15&#45;&gt;Node16 -->
<g id="edge20_Node000015_Node000016" class="edge">
<title>Node15&#45;&gt;Node16</title>
<g id="a_edge20_Node000015_Node000016"><a xlink:title=" ">
<path fill="none" stroke="#63b8ff" d="M691.31,-109.75C693.56,-102.72 696.8,-92.62 699.62,-83.84"/>
<polygon fill="#63b8ff" stroke="#63b8ff" points="703.02,-84.68 702.75,-74.09 696.36,-82.54 703.02,-84.68"/>
</a>
</g>
</g>
<!-- Node17 -->
<g id="Node000017" class="node">
<title>Node17</title>
<g id="a_Node000017"><a xlink:title=" ">
<polygon fill="#e0e0e0" stroke="#999999" points="798.5,-74 756.5,-74 756.5,-55 798.5,-55 798.5,-74"/>
<text text-anchor="middle" x="777.5" y="-62" font-family="Helvetica,sans-Serif" font-size="10.00">array</text>
</a>
</g>
</g>
<!-- Node15&#45;&gt;Node17 -->
<g id="edge22_Node000015_Node000017" class="edge">
<title>Node15&#45;&gt;Node17</title>
<g id="a_edge22_Node000015_Node000017"><a xlink:title=" ">
<path fill="none" stroke="#63b8ff" d="M702.8,-109.98C716.6,-101.77 737.74,-89.18 754.01,-79.49"/>
<polygon fill="#63b8ff" stroke="#63b8ff" points="756.14,-82.29 762.94,-74.17 752.56,-76.28 756.14,-82.29"/>
</a>
</g>
</g>
<!-- Node18 -->
<g id="Node000018" class="node">
<title>Node18</title>
<g id="a_Node000018"><a xlink:title=" ">
<polygon fill="#e0e0e0" stroke="#999999" points="886,-74 817,-74 817,-55 886,-55 886,-74"/>
<text text-anchor="middle" x="851.5" y="-62" font-family="Helvetica,sans-Serif" font-size="10.00">type_traits</text>
</a>
</g>
</g>
<!-- Node15&#45;&gt;Node18 -->
<g id="edge23_Node000015_Node000018" class="edge">
<title>Node15&#45;&gt;Node18</title>
<g id="a_edge23_Node000015_Node000018"><a xlink:title=" ">
<path fill="none" stroke="#63b8ff" d="M714.69,-109.98C741.94,-101.13 784.8,-87.19 815.28,-77.28"/>
<polygon fill="#63b8ff" stroke="#63b8ff" points="816.68,-80.5 825.11,-74.08 814.51,-73.85 816.68,-80.5"/>
</a>
</g>
</g>
<!-- Node19 -->
<g id="Node000019" class="node">
<title>Node19</title>
<g id="a_Node000019"><a xlink:href="trait_8h.html" target="_top" xlink:title=" ">
<polygon fill="white" stroke="#666666" points="950.5,-74 904.5,-74 904.5,-55 950.5,-55 950.5,-74"/>
<text text-anchor="middle" x="927.5" y="-62" font-family="Helvetica,sans-Serif" font-size="10.00">trait.h</text>
</a>
</g>
</g>
<!-- Node15&#45;&gt;Node19 -->
<g id="edge25_Node000015_Node000019" class="edge">
<title>Node15&#45;&gt;Node19</title>
<g id="a_edge25_Node000015_Node000019"><a xlink:title=" ">
<path fill="none" stroke="#63b8ff" d="M725.64,-111.07C765.14,-103.05 829.66,-89.6 894.48,-74.15"/>
<polygon fill="#63b8ff" stroke="#63b8ff" points="895.55,-77.5 904.46,-71.76 893.92,-70.69 895.55,-77.5"/>
</a>
</g>
</g>
<!-- Node19&#45;&gt;Node11 -->
<g id="edge27_Node000019_Node000011" class="edge">
<title>Node19&#45;&gt;Node11</title>
<g id="a_edge27_Node000019_Node000011"><a xlink:title=" ">
<path fill="none" stroke="#63b8ff" d="M904.16,-56.93C901.26,-56.23 898.32,-55.56 895.5,-55 801.77,-36.38 691.65,-23.41 624.23,-16.45"/>
<polygon fill="#63b8ff" stroke="#63b8ff" points="624.5,-12.96 614.19,-15.43 623.79,-19.92 624.5,-12.96"/>
</a>
</g>
</g>
<!-- Node19&#45;&gt;Node14 -->
<g id="edge26_Node000019_Node000014" class="edge">
<title>Node19&#45;&gt;Node14</title>
<g id="a_edge26_Node000019_Node000014"><a xlink:title=" ">
<path fill="none" stroke="#63b8ff" d="M909.34,-54.98C891.25,-46.5 863.22,-33.35 842.31,-23.54"/>
<polygon fill="#63b8ff" stroke="#63b8ff" points="843.53,-20.25 832.99,-19.17 840.55,-26.59 843.53,-20.25"/>
</a>
</g>
</g>
</g>
</svg>
