<?xml version="1.0" encoding="UTF-8" standalone="no"?>
<!DOCTYPE svg PUBLIC "-//W3C//DTD SVG 1.1//EN"
 "http://www.w3.org/Graphics/SVG/1.1/DTD/svg11.dtd">
<!-- Generated by graphviz version 2.43.0 (0)
 -->
<!-- Title: client/client_internal.h Pages: 1 -->
<svg width="1418pt" height="82pt"
 viewBox="0.00 0.00 1418.00 82.00" xmlns="http://www.w3.org/2000/svg" xmlns:xlink="http://www.w3.org/1999/xlink">
<g id="graph0" class="graph" transform="scale(1 1) rotate(0) translate(4 78)">
<title>client/client_internal.h</title>
<!-- Node1 -->
<g id="Node000001" class="node">
<title>Node1</title>
<g id="a_Node000001"><a xlink:title=" ">
<polygon fill="#999999" stroke="#666666" points="762,-74 637,-74 637,-55 762,-55 762,-74"/>
<text text-anchor="middle" x="699.5" y="-62" font-family="Helvetica,sans-Serif" font-size="10.00">client/client_internal.h</text>
</a>
</g>
</g>
<!-- Node2 -->
<g id="Node000002" class="node">
<title>Node2</title>
<g id="a_Node000002"><a xlink:href="canvas3d_8cc.html" target="_top" xlink:title=" ">
<polygon fill="white" stroke="#666666" points="107,-19 0,-19 0,0 107,0 107,-19"/>
<text text-anchor="middle" x="53.5" y="-7" font-family="Helvetica,sans-Serif" font-size="10.00">client/canvas3d.cc</text>
</a>
</g>
</g>
<!-- Node1&#45;&gt;Node2 -->
<g id="edge1_Node000001_Node000002" class="edge">
<title>Node1&#45;&gt;Node2</title>
<g id="a_edge1_Node000001_Node000002"><a xlink:title=" ">
<path fill="none" stroke="#63b8ff" d="M626.68,-59.36C516.06,-52.76 299.1,-38.56 115.5,-19 112.8,-18.71 110.03,-18.4 107.24,-18.07"/>
<polygon fill="#63b8ff" stroke="#63b8ff" points="626.54,-62.86 636.73,-59.96 626.95,-55.87 626.54,-62.86"/>
</a>
</g>
</g>
<!-- Node3 -->
<g id="Node000003" class="node">
<title>Node3</title>
<g id="a_Node000003"><a xlink:href="client_8cc.html" target="_top" xlink:title=" ">
<polygon fill="white" stroke="#666666" points="212,-19 125,-19 125,0 212,0 212,-19"/>
<text text-anchor="middle" x="168.5" y="-7" font-family="Helvetica,sans-Serif" font-size="10.00">client/client.cc</text>
</a>
</g>
</g>
<!-- Node1&#45;&gt;Node3 -->
<g id="edge2_Node000001_Node000003" class="edge">
<title>Node1&#45;&gt;Node3</title>
<g id="a_edge2_Node000001_Node000003"><a xlink:title=" ">
<path fill="none" stroke="#63b8ff" d="M626.48,-58.21C532.58,-51.07 364.56,-37.11 221.5,-19 218.45,-18.61 215.3,-18.19 212.14,-17.73"/>
<polygon fill="#63b8ff" stroke="#63b8ff" points="626.48,-61.72 636.72,-58.99 627.01,-54.74 626.48,-61.72"/>
</a>
</g>
</g>
<!-- Node4 -->
<g id="Node000004" class="node">
<title>Node4</title>
<g id="a_Node000004"><a xlink:href="client__ws_8cc.html" target="_top" xlink:title=" ">
<polygon fill="white" stroke="#666666" points="336.5,-19 230.5,-19 230.5,0 336.5,0 336.5,-19"/>
<text text-anchor="middle" x="283.5" y="-7" font-family="Helvetica,sans-Serif" font-size="10.00">client/client_ws.cc</text>
</a>
</g>
</g>
<!-- Node1&#45;&gt;Node4 -->
<g id="edge3_Node000001_Node000004" class="edge">
<title>Node1&#45;&gt;Node4</title>
<g id="a_edge3_Node000001_Node000004"><a xlink:title=" ">
<path fill="none" stroke="#63b8ff" d="M626.54,-54.57C554.95,-45.75 442.67,-31.77 345.5,-19 342.59,-18.62 339.61,-18.22 336.59,-17.82"/>
<polygon fill="#63b8ff" stroke="#63b8ff" points="626.45,-58.09 636.81,-55.83 627.31,-51.14 626.45,-58.09"/>
</a>
</g>
</g>
<!-- Node5 -->
<g id="Node000005" class="node">
<title>Node5</title>
<g id="a_Node000005"><a xlink:href="field_8cc.html" target="_top" xlink:title=" ">
<polygon fill="white" stroke="#666666" points="436,-19 355,-19 355,0 436,0 436,-19"/>
<text text-anchor="middle" x="395.5" y="-7" font-family="Helvetica,sans-Serif" font-size="10.00">client/field.cc</text>
</a>
</g>
</g>
<!-- Node1&#45;&gt;Node5 -->
<g id="edge4_Node000001_Node000005" class="edge">
<title>Node1&#45;&gt;Node5</title>
<g id="a_edge4_Node000001_Node000005"><a xlink:title=" ">
<path fill="none" stroke="#63b8ff" d="M640.57,-53.23C580.52,-42.76 488.97,-26.8 436.42,-17.63"/>
<polygon fill="#63b8ff" stroke="#63b8ff" points="640.2,-56.72 650.66,-54.98 641.41,-49.82 640.2,-56.72"/>
</a>
</g>
</g>
<!-- Node6 -->
<g id="Node000006" class="node">
<title>Node6</title>
<g id="a_Node000006"><a xlink:href="func_8cc.html" target="_top" xlink:title=" ">
<polygon fill="white" stroke="#666666" points="535,-19 454,-19 454,0 535,0 535,-19"/>
<text text-anchor="middle" x="494.5" y="-7" font-family="Helvetica,sans-Serif" font-size="10.00">client/func.cc</text>
</a>
</g>
</g>
<!-- Node1&#45;&gt;Node6 -->
<g id="edge5_Node000001_Node000006" class="edge">
<title>Node1&#45;&gt;Node6</title>
<g id="a_edge5_Node000001_Node000006"><a xlink:title=" ">
<path fill="none" stroke="#63b8ff" d="M656.71,-52.44C618.33,-42.52 562.81,-28.16 527.69,-19.08"/>
<polygon fill="#63b8ff" stroke="#63b8ff" points="656.01,-55.87 666.56,-54.98 657.76,-49.09 656.01,-55.87"/>
</a>
</g>
</g>
<!-- Node7 -->
<g id="Node000007" class="node">
<title>Node7</title>
<g id="a_Node000007"><a xlink:href="image_8cc.html" target="_top" xlink:title=" ">
<polygon fill="white" stroke="#666666" points="644,-19 553,-19 553,0 644,0 644,-19"/>
<text text-anchor="middle" x="598.5" y="-7" font-family="Helvetica,sans-Serif" font-size="10.00">client/image.cc</text>
</a>
</g>
</g>
<!-- Node1&#45;&gt;Node7 -->
<g id="edge6_Node000001_Node000007" class="edge">
<title>Node1&#45;&gt;Node7</title>
<g id="a_edge6_Node000001_Node000007"><a xlink:title=" ">
<path fill="none" stroke="#63b8ff" d="M674.22,-50.23C655.7,-40.51 631.08,-27.6 615.02,-19.17"/>
<polygon fill="#63b8ff" stroke="#63b8ff" points="672.79,-53.44 683.27,-54.98 676.04,-47.24 672.79,-53.44"/>
</a>
</g>
</g>
<!-- Node8 -->
<g id="Node000008" class="node">
<title>Node8</title>
<g id="a_Node000008"><a xlink:href="log_8cc.html" target="_top" xlink:title=" ">
<polygon fill="white" stroke="#666666" points="737,-19 662,-19 662,0 737,0 737,-19"/>
<text text-anchor="middle" x="699.5" y="-7" font-family="Helvetica,sans-Serif" font-size="10.00">client/log.cc</text>
</a>
</g>
</g>
<!-- Node1&#45;&gt;Node8 -->
<g id="edge7_Node000001_Node000008" class="edge">
<title>Node1&#45;&gt;Node8</title>
<g id="a_edge7_Node000001_Node000008"><a xlink:title=" ">
<path fill="none" stroke="#63b8ff" d="M699.5,-44.66C699.5,-35.93 699.5,-25.99 699.5,-19.09"/>
<polygon fill="#63b8ff" stroke="#63b8ff" points="696,-44.75 699.5,-54.75 703,-44.75 696,-44.75"/>
</a>
</g>
</g>
<!-- Node9 -->
<g id="Node000009" class="node">
<title>Node9</title>
<g id="a_Node000009"><a xlink:href="logger_8cc.html" target="_top" xlink:title=" ">
<polygon fill="white" stroke="#666666" points="845.5,-19 755.5,-19 755.5,0 845.5,0 845.5,-19"/>
<text text-anchor="middle" x="800.5" y="-7" font-family="Helvetica,sans-Serif" font-size="10.00">client/logger.cc</text>
</a>
</g>
</g>
<!-- Node1&#45;&gt;Node9 -->
<g id="edge8_Node000001_Node000009" class="edge">
<title>Node1&#45;&gt;Node9</title>
<g id="a_edge8_Node000001_Node000009"><a xlink:title=" ">
<path fill="none" stroke="#63b8ff" d="M724.78,-50.23C743.3,-40.51 767.92,-27.6 783.98,-19.17"/>
<polygon fill="#63b8ff" stroke="#63b8ff" points="722.96,-47.24 715.73,-54.98 726.21,-53.44 722.96,-47.24"/>
</a>
</g>
</g>
<!-- Node10 -->
<g id="Node000010" class="node">
<title>Node10</title>
<g id="a_Node000010"><a xlink:href="member_8cc.html" target="_top" xlink:title=" ">
<polygon fill="white" stroke="#666666" points="965,-19 864,-19 864,0 965,0 965,-19"/>
<text text-anchor="middle" x="914.5" y="-7" font-family="Helvetica,sans-Serif" font-size="10.00">client/member.cc</text>
</a>
</g>
</g>
<!-- Node1&#45;&gt;Node10 -->
<g id="edge9_Node000001_Node000010" class="edge">
<title>Node1&#45;&gt;Node10</title>
<g id="a_edge9_Node000001_Node000010"><a xlink:title=" ">
<path fill="none" stroke="#63b8ff" d="M743.86,-52.56C784.13,-42.64 842.7,-28.2 879.69,-19.08"/>
<polygon fill="#63b8ff" stroke="#63b8ff" points="742.92,-49.19 734.04,-54.98 744.59,-55.99 742.92,-49.19"/>
</a>
</g>
</g>
<!-- Node11 -->
<g id="Node000011" class="node">
<title>Node11</title>
<g id="a_Node000011"><a xlink:href="robot__model_8cc.html" target="_top" xlink:title=" ">
<polygon fill="white" stroke="#666666" points="1105.5,-19 983.5,-19 983.5,0 1105.5,0 1105.5,-19"/>
<text text-anchor="middle" x="1044.5" y="-7" font-family="Helvetica,sans-Serif" font-size="10.00">client/robot_model.cc</text>
</a>
</g>
</g>
<!-- Node1&#45;&gt;Node11 -->
<g id="edge10_Node000001_Node000011" class="edge">
<title>Node1&#45;&gt;Node11</title>
<g id="a_edge10_Node000001_Node000011"><a xlink:title=" ">
<path fill="none" stroke="#63b8ff" d="M765.03,-53.43C829.81,-43.48 927.84,-28.42 988.92,-19.04"/>
<polygon fill="#63b8ff" stroke="#63b8ff" points="764.28,-50.01 754.93,-54.98 765.35,-56.93 764.28,-50.01"/>
</a>
</g>
</g>
<!-- Node12 -->
<g id="Node000012" class="node">
<title>Node12</title>
<g id="a_Node000012"><a xlink:href="text_8cc.html" target="_top" xlink:title=" ">
<polygon fill="white" stroke="#666666" points="1203.5,-19 1123.5,-19 1123.5,0 1203.5,0 1203.5,-19"/>
<text text-anchor="middle" x="1163.5" y="-7" font-family="Helvetica,sans-Serif" font-size="10.00">client/text.cc</text>
</a>
</g>
</g>
<!-- Node1&#45;&gt;Node12 -->
<g id="edge11_Node000001_Node000012" class="edge">
<title>Node1&#45;&gt;Node12</title>
<g id="a_edge11_Node000001_Node000012"><a xlink:title=" ">
<path fill="none" stroke="#63b8ff" d="M772.31,-57.14C855.32,-49.55 994.98,-35.76 1114.5,-19 1117.41,-18.59 1120.41,-18.14 1123.42,-17.67"/>
<polygon fill="#63b8ff" stroke="#63b8ff" points="771.87,-53.66 762.23,-58.05 772.51,-60.63 771.87,-53.66"/>
</a>
</g>
</g>
<!-- Node13 -->
<g id="Node000013" class="node">
<title>Node13</title>
<g id="a_Node000013"><a xlink:href="value_8cc.html" target="_top" xlink:title=" ">
<polygon fill="white" stroke="#666666" points="1309,-19 1222,-19 1222,0 1309,0 1309,-19"/>
<text text-anchor="middle" x="1265.5" y="-7" font-family="Helvetica,sans-Serif" font-size="10.00">client/value.cc</text>
</a>
</g>
</g>
<!-- Node1&#45;&gt;Node13 -->
<g id="edge12_Node000001_Node000013" class="edge">
<title>Node1&#45;&gt;Node13</title>
<g id="a_edge12_Node000001_Node000013"><a xlink:title=" ">
<path fill="none" stroke="#63b8ff" d="M772.29,-58.85C871.88,-52.12 1056.11,-38.3 1212.5,-19 1215.55,-18.62 1218.7,-18.2 1221.86,-17.76"/>
<polygon fill="#63b8ff" stroke="#63b8ff" points="771.78,-55.38 762.04,-59.54 772.25,-62.36 771.78,-55.38"/>
</a>
</g>
</g>
<!-- Node14 -->
<g id="Node000014" class="node">
<title>Node14</title>
<g id="a_Node000014"><a xlink:href="view_8cc.html" target="_top" xlink:title=" ">
<polygon fill="white" stroke="#666666" points="1410,-19 1327,-19 1327,0 1410,0 1410,-19"/>
<text text-anchor="middle" x="1368.5" y="-7" font-family="Helvetica,sans-Serif" font-size="10.00">client/view.cc</text>
</a>
</g>
</g>
<!-- Node1&#45;&gt;Node14 -->
<g id="edge13_Node000001_Node000014" class="edge">
<title>Node1&#45;&gt;Node14</title>
<g id="a_edge13_Node000001_Node000014"><a xlink:title=" ">
<path fill="none" stroke="#63b8ff" d="M772.24,-60.55C888.14,-55.34 1121.74,-42.74 1318.5,-19 1321.21,-18.67 1324,-18.3 1326.8,-17.9"/>
<polygon fill="#63b8ff" stroke="#63b8ff" points="771.91,-57.06 762.07,-61 772.22,-64.06 771.91,-57.06"/>
</a>
</g>
</g>
</g>
</svg>
