<?xml version="1.0" encoding="UTF-8" standalone="no"?>
<!DOCTYPE svg PUBLIC "-//W3C//DTD SVG 1.1//EN"
 "http://www.w3.org/Graphics/SVG/1.1/DTD/svg11.dtd">
<!-- Generated by graphviz version 2.43.0 (0)
 -->
<!-- Title: client/include/webcface/value.h Pages: 1 -->
<svg width="997pt" height="214pt"
 viewBox="0.00 0.00 996.50 214.00" xmlns="http://www.w3.org/2000/svg" xmlns:xlink="http://www.w3.org/1999/xlink">
<g id="graph0" class="graph" transform="scale(1 1) rotate(0) translate(4 210)">
<title>client/include/webcface/value.h</title>
<!-- Node1 -->
<g id="Node000001" class="node">
<title>Node1</title>
<g id="a_Node000001"><a xlink:title=" ">
<polygon fill="#999999" stroke="#666666" points="441.5,-206 310.5,-206 310.5,-176 441.5,-176 441.5,-206"/>
<text text-anchor="start" x="318.5" y="-194" font-family="Helvetica,sans-Serif" font-size="10.00">client/include/webcface</text>
<text text-anchor="middle" x="376" y="-183" font-family="Helvetica,sans-Serif" font-size="10.00">/value.h</text>
</a>
</g>
</g>
<!-- Node2 -->
<g id="Node000002" class="node">
<title>Node2</title>
<g id="a_Node000002"><a xlink:title=" ">
<polygon fill="#e0e0e0" stroke="#999999" points="150.5,-134.5 85.5,-134.5 85.5,-115.5 150.5,-115.5 150.5,-134.5"/>
<text text-anchor="middle" x="118" y="-122.5" font-family="Helvetica,sans-Serif" font-size="10.00">functional</text>
</a>
</g>
</g>
<!-- Node1&#45;&gt;Node2 -->
<g id="edge1_Node000001_Node000002" class="edge">
<title>Node1&#45;&gt;Node2</title>
<g id="a_edge1_Node000001_Node000002"><a xlink:title=" ">
<path fill="none" stroke="#63b8ff" d="M310.03,-176.64C266.79,-167.43 209.19,-154.31 159,-140 156.53,-139.3 153.99,-138.53 151.45,-137.73"/>
<polygon fill="#63b8ff" stroke="#63b8ff" points="152.31,-134.33 141.72,-134.56 150.14,-140.99 152.31,-134.33"/>
</a>
</g>
</g>
<!-- Node3 -->
<g id="Node000003" class="node">
<title>Node3</title>
<g id="a_Node000003"><a xlink:title=" ">
<polygon fill="#e0e0e0" stroke="#999999" points="225.5,-134.5 168.5,-134.5 168.5,-115.5 225.5,-115.5 225.5,-134.5"/>
<text text-anchor="middle" x="197" y="-122.5" font-family="Helvetica,sans-Serif" font-size="10.00">ostream</text>
</a>
</g>
</g>
<!-- Node1&#45;&gt;Node3 -->
<g id="edge2_Node000001_Node000003" class="edge">
<title>Node1&#45;&gt;Node3</title>
<g id="a_edge2_Node000001_Node000003"><a xlink:title=" ">
<path fill="none" stroke="#63b8ff" d="M335.84,-175.91C307.6,-165.96 268.95,-152.27 235,-140 233.36,-139.41 231.69,-138.8 230,-138.18"/>
<polygon fill="#63b8ff" stroke="#63b8ff" points="230.89,-134.78 220.3,-134.63 228.48,-141.36 230.89,-134.78"/>
</a>
</g>
</g>
<!-- Node4 -->
<g id="Node000004" class="node">
<title>Node4</title>
<g id="a_Node000004"><a xlink:title=" ">
<polygon fill="#e0e0e0" stroke="#999999" points="300,-134.5 244,-134.5 244,-115.5 300,-115.5 300,-134.5"/>
<text text-anchor="middle" x="272" y="-122.5" font-family="Helvetica,sans-Serif" font-size="10.00">optional</text>
</a>
</g>
</g>
<!-- Node1&#45;&gt;Node4 -->
<g id="edge3_Node000001_Node000004" class="edge">
<title>Node1&#45;&gt;Node4</title>
<g id="a_edge3_Node000001_Node000004"><a xlink:title=" ">
<path fill="none" stroke="#63b8ff" d="M353.18,-175.95C335.82,-165.27 312.06,-150.65 294.73,-139.98"/>
<polygon fill="#63b8ff" stroke="#63b8ff" points="296.19,-136.78 285.84,-134.52 292.52,-142.74 296.19,-136.78"/>
</a>
</g>
</g>
<!-- Node5 -->
<g id="Node000005" class="node">
<title>Node5</title>
<g id="a_Node000005"><a xlink:title=" ">
<polygon fill="#e0e0e0" stroke="#999999" points="368,-134.5 318,-134.5 318,-115.5 368,-115.5 368,-134.5"/>
<text text-anchor="middle" x="343" y="-122.5" font-family="Helvetica,sans-Serif" font-size="10.00">chrono</text>
</a>
</g>
</g>
<!-- Node1&#45;&gt;Node5 -->
<g id="edge4_Node000001_Node000005" class="edge">
<title>Node1&#45;&gt;Node5</title>
<g id="a_edge4_Node000001_Node000005"><a xlink:title=" ">
<path fill="none" stroke="#63b8ff" d="M368.68,-175.8C363.83,-166.41 357.45,-154.02 352.25,-143.95"/>
<polygon fill="#63b8ff" stroke="#63b8ff" points="355.25,-142.13 347.56,-134.84 349.03,-145.34 355.25,-142.13"/>
</a>
</g>
</g>
<!-- Node6 -->
<g id="Node000006" class="node">
<title>Node6</title>
<g id="a_Node000006"><a xlink:href="field_8h.html" target="_top" xlink:title=" ">
<polygon fill="white" stroke="#666666" points="433.5,-134.5 386.5,-134.5 386.5,-115.5 433.5,-115.5 433.5,-134.5"/>
<text text-anchor="middle" x="410" y="-122.5" font-family="Helvetica,sans-Serif" font-size="10.00">field.h</text>
</a>
</g>
</g>
<!-- Node1&#45;&gt;Node6 -->
<g id="edge5_Node000001_Node000006" class="edge">
<title>Node1&#45;&gt;Node6</title>
<g id="a_edge5_Node000001_Node000006"><a xlink:title=" ">
<path fill="none" stroke="#63b8ff" d="M383.55,-175.8C388.53,-166.41 395.12,-154.02 400.47,-143.95"/>
<polygon fill="#63b8ff" stroke="#63b8ff" points="403.7,-145.32 405.3,-134.84 397.52,-142.03 403.7,-145.32"/>
</a>
</g>
</g>
<!-- Node10 -->
<g id="Node000010" class="node">
<title>Node10</title>
<g id="a_Node000010"><a xlink:href="webcface-config_8h.html" target="_top" xlink:title=" ">
<polygon fill="white" stroke="#666666" points="648.5,-19 543.5,-19 543.5,0 648.5,0 648.5,-19"/>
<text text-anchor="middle" x="596" y="-7" font-family="Helvetica,sans-Serif" font-size="10.00">webcface&#45;config.h</text>
</a>
</g>
</g>
<!-- Node1&#45;&gt;Node10 -->
<g id="edge35_Node000001_Node000010" class="edge">
<title>Node1&#45;&gt;Node10</title>
<g id="a_edge35_Node000001_Node000010"><a xlink:title=" ">
<path fill="none" stroke="#63b8ff" d="M441.72,-187.92C584.74,-181.81 916.67,-158.64 982,-74 1022.37,-21.69 778.38,-12.22 658.97,-10.68"/>
<polygon fill="#63b8ff" stroke="#63b8ff" points="658.9,-7.18 648.86,-10.56 658.82,-14.18 658.9,-7.18"/>
</a>
</g>
</g>
<!-- Node15 -->
<g id="Node000015" class="node">
<title>Node15</title>
<g id="a_Node000015"><a xlink:href="array__like_8h.html" target="_top" xlink:title=" ">
<polygon fill="white" stroke="#666666" points="721,-134.5 647,-134.5 647,-115.5 721,-115.5 721,-134.5"/>
<text text-anchor="middle" x="684" y="-122.5" font-family="Helvetica,sans-Serif" font-size="10.00">array_like.h</text>
</a>
</g>
</g>
<!-- Node1&#45;&gt;Node15 -->
<g id="edge18_Node000001_Node000015" class="edge">
<title>Node1&#45;&gt;Node15</title>
<g id="a_edge18_Node000001_Node000015"><a xlink:title=" ">
<path fill="none" stroke="#63b8ff" d="M441.7,-176.35C500.33,-164.17 584.76,-146.62 636.9,-135.79"/>
<polygon fill="#63b8ff" stroke="#63b8ff" points="637.81,-139.17 646.89,-133.71 636.38,-132.32 637.81,-139.17"/>
</a>
</g>
</g>
<!-- Node21 -->
<g id="Node000021" class="node">
<title>Node21</title>
<g id="a_Node000021"><a xlink:href="num__vector_8h.html" target="_top" xlink:title=" ">
<polygon fill="white" stroke="#666666" points="586,-140 452,-140 452,-110 586,-110 586,-140"/>
<text text-anchor="start" x="460" y="-128" font-family="Helvetica,sans-Serif" font-size="10.00">webcface/common/num</text>
<text text-anchor="middle" x="519" y="-117" font-family="Helvetica,sans-Serif" font-size="10.00">_vector.h</text>
</a>
</g>
</g>
<!-- Node1&#45;&gt;Node21 -->
<g id="edge31_Node000001_Node000021" class="edge">
<title>Node1&#45;&gt;Node21</title>
<g id="a_edge31_Node000001_Node000021"><a xlink:title=" ">
<path fill="none" stroke="#63b8ff" d="M407.38,-175.95C428.24,-166.62 455.84,-154.27 478.38,-144.18"/>
<polygon fill="#63b8ff" stroke="#63b8ff" points="479.99,-147.29 487.69,-140.01 477.13,-140.9 479.99,-147.29"/>
</a>
</g>
</g>
<!-- Node7 -->
<g id="Node000007" class="node">
<title>Node7</title>
<g id="a_Node000007"><a xlink:title=" ">
<polygon fill="#e0e0e0" stroke="#999999" points="58,-19 0,-19 0,0 58,0 58,-19"/>
<text text-anchor="middle" x="29" y="-7" font-family="Helvetica,sans-Serif" font-size="10.00">memory</text>
</a>
</g>
</g>
<!-- Node6&#45;&gt;Node7 -->
<g id="edge6_Node000006_Node000007" class="edge">
<title>Node6&#45;&gt;Node7</title>
<g id="a_edge6_Node000006_Node000007"><a xlink:title=" ">
<path fill="none" stroke="#63b8ff" d="M392.53,-115.43C387.61,-113.34 382.19,-111.33 377,-110 298.68,-89.99 69.26,-133.93 15,-74 3.67,-61.49 10.35,-41.93 17.87,-27.83"/>
<polygon fill="#63b8ff" stroke="#63b8ff" points="20.95,-29.49 22.99,-19.09 14.91,-25.94 20.95,-29.49"/>
</a>
</g>
</g>
<!-- Node8 -->
<g id="Node000008" class="node">
<title>Node8</title>
<g id="a_Node000008"><a xlink:title=" ">
<polygon fill="#e0e0e0" stroke="#999999" points="273,-19 229,-19 229,0 273,0 273,-19"/>
<text text-anchor="middle" x="251" y="-7" font-family="Helvetica,sans-Serif" font-size="10.00">string</text>
</a>
</g>
</g>
<!-- Node6&#45;&gt;Node8 -->
<g id="edge7_Node000006_Node000008" class="edge">
<title>Node6&#45;&gt;Node8</title>
<g id="a_edge7_Node000006_Node000008"><a xlink:title=" ">
<path fill="none" stroke="#63b8ff" d="M390.19,-115.36C385.86,-113.54 381.29,-111.67 377,-110 332.18,-92.6 309.37,-107.62 275,-74 262.77,-62.03 256.69,-43.22 253.72,-29.17"/>
<polygon fill="#63b8ff" stroke="#63b8ff" points="257.14,-28.38 251.95,-19.15 250.24,-29.6 257.14,-28.38"/>
</a>
</g>
</g>
<!-- Node9 -->
<g id="Node000009" class="node">
<title>Node9</title>
<g id="a_Node000009"><a xlink:title=" ">
<polygon fill="#e0e0e0" stroke="#999999" points="542.5,-74 495.5,-74 495.5,-55 542.5,-55 542.5,-74"/>
<text text-anchor="middle" x="519" y="-62" font-family="Helvetica,sans-Serif" font-size="10.00">vector</text>
</a>
</g>
</g>
<!-- Node6&#45;&gt;Node9 -->
<g id="edge8_Node000006_Node000009" class="edge">
<title>Node6&#45;&gt;Node9</title>
<g id="a_edge8_Node000006_Node000009"><a xlink:title=" ">
<path fill="none" stroke="#63b8ff" d="M426.08,-115.37C443.95,-105.78 473.04,-90.17 493.91,-78.97"/>
<polygon fill="#63b8ff" stroke="#63b8ff" points="495.69,-81.98 502.85,-74.17 492.38,-75.81 495.69,-81.98"/>
</a>
</g>
</g>
<!-- Node6&#45;&gt;Node10 -->
<g id="edge9_Node000006_Node000010" class="edge">
<title>Node6&#45;&gt;Node10</title>
<g id="a_edge9_Node000006_Node000010"><a xlink:title=" ">
<path fill="none" stroke="#63b8ff" d="M417.64,-115.3C430.53,-101.07 457.93,-72.63 486,-55 508.24,-41.03 535.61,-29.94 557.48,-22.33"/>
<polygon fill="#63b8ff" stroke="#63b8ff" points="558.75,-25.59 567.1,-19.07 556.51,-18.96 558.75,-25.59"/>
</a>
</g>
</g>
<!-- Node11 -->
<g id="Node000011" class="node">
<title>Node11</title>
<g id="a_Node000011"><a xlink:href="common_2encoding_8h.html" target="_top" xlink:title=" ">
<polygon fill="white" stroke="#666666" points="222.5,-74 57.5,-74 57.5,-55 222.5,-55 222.5,-74"/>
<text text-anchor="middle" x="140" y="-62" font-family="Helvetica,sans-Serif" font-size="10.00">webcface/common/encoding.h</text>
</a>
</g>
</g>
<!-- Node6&#45;&gt;Node11 -->
<g id="edge10_Node000006_Node000011" class="edge">
<title>Node6&#45;&gt;Node11</title>
<g id="a_edge10_Node000006_Node000011"><a xlink:title=" ">
<path fill="none" stroke="#63b8ff" d="M391.76,-115.43C387.03,-113.44 381.89,-111.48 377,-110 324.36,-94.09 263.34,-82.8 216.4,-75.56"/>
<polygon fill="#63b8ff" stroke="#63b8ff" points="216.71,-72.07 206.3,-74.04 215.67,-78.99 216.71,-72.07"/>
</a>
</g>
</g>
<!-- Node13 -->
<g id="Node000013" class="node">
<title>Node13</title>
<g id="a_Node000013"><a xlink:href="complete_8h.html" target="_top" xlink:title=" ">
<polygon fill="white" stroke="#666666" points="438.5,-74 317.5,-74 317.5,-55 438.5,-55 438.5,-74"/>
<text text-anchor="middle" x="378" y="-62" font-family="Helvetica,sans-Serif" font-size="10.00">webcface/complete.h</text>
</a>
</g>
</g>
<!-- Node6&#45;&gt;Node13 -->
<g id="edge15_Node000006_Node000013" class="edge">
<title>Node6&#45;&gt;Node13</title>
<g id="a_edge15_Node000006_Node000013"><a xlink:title=" ">
<path fill="none" stroke="#63b8ff" d="M405.28,-115.37C400.65,-106.9 393.45,-93.74 387.61,-83.07"/>
<polygon fill="#63b8ff" stroke="#63b8ff" points="390.61,-81.26 382.74,-74.17 384.47,-84.62 390.61,-81.26"/>
</a>
</g>
</g>
<!-- Node11&#45;&gt;Node7 -->
<g id="edge13_Node000011_Node000007" class="edge">
<title>Node11&#45;&gt;Node7</title>
<g id="a_edge13_Node000011_Node000007"><a xlink:title=" ">
<path fill="none" stroke="#63b8ff" d="M122.17,-54.98C104.39,-46.5 76.85,-33.35 56.32,-23.54"/>
<polygon fill="#63b8ff" stroke="#63b8ff" points="57.69,-20.32 47.16,-19.17 54.67,-26.64 57.69,-20.32"/>
</a>
</g>
</g>
<!-- Node11&#45;&gt;Node8 -->
<g id="edge11_Node000011_Node000008" class="edge">
<title>Node11&#45;&gt;Node8</title>
<g id="a_edge11_Node000011_Node000008"><a xlink:title=" ">
<path fill="none" stroke="#63b8ff" d="M157.83,-54.98C175.61,-46.5 203.15,-33.35 223.68,-23.54"/>
<polygon fill="#63b8ff" stroke="#63b8ff" points="225.33,-26.64 232.84,-19.17 222.31,-20.32 225.33,-26.64"/>
</a>
</g>
</g>
<!-- Node11&#45;&gt;Node10 -->
<g id="edge14_Node000011_Node000010" class="edge">
<title>Node11&#45;&gt;Node10</title>
<g id="a_edge14_Node000011_Node000010"><a xlink:title=" ">
<path fill="none" stroke="#63b8ff" d="M213.26,-54.98C301.84,-44.69 449.41,-27.54 533.07,-17.81"/>
<polygon fill="#63b8ff" stroke="#63b8ff" points="533.67,-21.27 543.19,-16.64 532.86,-14.32 533.67,-21.27"/>
</a>
</g>
</g>
<!-- Node12 -->
<g id="Node000012" class="node">
<title>Node12</title>
<g id="a_Node000012"><a xlink:title=" ">
<polygon fill="#e0e0e0" stroke="#999999" points="176.5,-19 103.5,-19 103.5,0 176.5,0 176.5,-19"/>
<text text-anchor="middle" x="140" y="-7" font-family="Helvetica,sans-Serif" font-size="10.00">string_view</text>
</a>
</g>
</g>
<!-- Node11&#45;&gt;Node12 -->
<g id="edge12_Node000011_Node000012" class="edge">
<title>Node11&#45;&gt;Node12</title>
<g id="a_edge12_Node000011_Node000012"><a xlink:title=" ">
<path fill="none" stroke="#63b8ff" d="M140,-54.75C140,-47.8 140,-37.85 140,-29.13"/>
<polygon fill="#63b8ff" stroke="#63b8ff" points="143.5,-29.09 140,-19.09 136.5,-29.09 143.5,-29.09"/>
</a>
</g>
</g>
<!-- Node13&#45;&gt;Node10 -->
<g id="edge17_Node000013_Node000010" class="edge">
<title>Node13&#45;&gt;Node10</title>
<g id="a_edge17_Node000013_Node000010"><a xlink:title=" ">
<path fill="none" stroke="#63b8ff" d="M413.03,-54.98C450.5,-45.87 510.05,-31.4 550.98,-21.45"/>
<polygon fill="#63b8ff" stroke="#63b8ff" points="551.81,-24.85 560.7,-19.08 550.16,-18.04 551.81,-24.85"/>
</a>
</g>
</g>
<!-- Node14 -->
<g id="Node000014" class="node">
<title>Node14</title>
<g id="a_Node000014"><a xlink:title=" ">
<polygon fill="#e0e0e0" stroke="#999999" points="452.5,-19 399.5,-19 399.5,0 452.5,0 452.5,-19"/>
<text text-anchor="middle" x="426" y="-7" font-family="Helvetica,sans-Serif" font-size="10.00">cstddef</text>
</a>
</g>
</g>
<!-- Node13&#45;&gt;Node14 -->
<g id="edge16_Node000013_Node000014" class="edge">
<title>Node13&#45;&gt;Node14</title>
<g id="a_edge16_Node000013_Node000014"><a xlink:title=" ">
<path fill="none" stroke="#63b8ff" d="M385.93,-54.75C392.85,-47.11 403.07,-35.82 411.45,-26.56"/>
<polygon fill="#63b8ff" stroke="#63b8ff" points="414.1,-28.85 418.22,-19.09 408.91,-24.15 414.1,-28.85"/>
</a>
</g>
</g>
<!-- Node15&#45;&gt;Node8 -->
<g id="edge23_Node000015_Node000008" class="edge">
<title>Node15&#45;&gt;Node8</title>
<g id="a_edge23_Node000015_Node000008"><a xlink:title=" ">
<path fill="none" stroke="#63b8ff" d="M646.8,-117.88C630.86,-115.33 612.04,-112.41 595,-110 467.71,-92.01 421.91,-133.6 308,-74 287.97,-63.52 271.57,-42.98 261.59,-28.09"/>
<polygon fill="#63b8ff" stroke="#63b8ff" points="264.3,-25.84 255.98,-19.28 258.4,-29.6 264.3,-25.84"/>
</a>
</g>
</g>
<!-- Node15&#45;&gt;Node9 -->
<g id="edge20_Node000015_Node000009" class="edge">
<title>Node15&#45;&gt;Node9</title>
<g id="a_edge20_Node000015_Node000009"><a xlink:title=" ">
<path fill="none" stroke="#63b8ff" d="M660.01,-115.49C631.7,-105.46 584.46,-88.71 552.54,-77.39"/>
<polygon fill="#63b8ff" stroke="#63b8ff" points="553.35,-73.96 542.75,-73.92 551.01,-80.56 553.35,-73.96"/>
</a>
</g>
</g>
<!-- Node15&#45;&gt;Node10 -->
<g id="edge30_Node000015_Node000010" class="edge">
<title>Node15&#45;&gt;Node10</title>
<g id="a_edge30_Node000015_Node000010"><a xlink:title=" ">
<path fill="none" stroke="#63b8ff" d="M721.37,-116.87C764.53,-106.99 826.53,-86.67 801,-55 783.34,-33.09 712.29,-21.42 658.75,-15.61"/>
<polygon fill="#63b8ff" stroke="#63b8ff" points="658.95,-12.11 648.64,-14.55 658.22,-19.07 658.95,-12.11"/>
</a>
</g>
</g>
<!-- Node16 -->
<g id="Node000016" class="node">
<title>Node16</title>
<g id="a_Node000016"><a xlink:title=" ">
<polygon fill="#e0e0e0" stroke="#999999" points="988.5,-19 923.5,-19 923.5,0 988.5,0 988.5,-19"/>
<text text-anchor="middle" x="956" y="-7" font-family="Helvetica,sans-Serif" font-size="10.00">stdexcept</text>
</a>
</g>
</g>
<!-- Node15&#45;&gt;Node16 -->
<g id="edge19_Node000015_Node000016" class="edge">
<title>Node15&#45;&gt;Node16</title>
<g id="a_edge19_Node000015_Node000016"><a xlink:title=" ">
<path fill="none" stroke="#63b8ff" d="M721.07,-123.49C793.35,-121.62 948.96,-113.04 982,-74 993.6,-60.29 982.53,-40.72 971.46,-26.93"/>
<polygon fill="#63b8ff" stroke="#63b8ff" points="973.96,-24.47 964.77,-19.2 968.67,-29.05 973.96,-24.47"/>
</a>
</g>
</g>
<!-- Node17 -->
<g id="Node000017" class="node">
<title>Node17</title>
<g id="a_Node000017"><a xlink:title=" ">
<polygon fill="#e0e0e0" stroke="#999999" points="705,-74 663,-74 663,-55 705,-55 705,-74"/>
<text text-anchor="middle" x="684" y="-62" font-family="Helvetica,sans-Serif" font-size="10.00">array</text>
</a>
</g>
</g>
<!-- Node15&#45;&gt;Node17 -->
<g id="edge21_Node000015_Node000017" class="edge">
<title>Node15&#45;&gt;Node17</title>
<g id="a_edge21_Node000015_Node000017"><a xlink:title=" ">
<path fill="none" stroke="#63b8ff" d="M684,-115.37C684,-107.25 684,-94.81 684,-84.39"/>
<polygon fill="#63b8ff" stroke="#63b8ff" points="687.5,-84.17 684,-74.17 680.5,-84.17 687.5,-84.17"/>
</a>
</g>
</g>
<!-- Node18 -->
<g id="Node000018" class="node">
<title>Node18</title>
<g id="a_Node000018"><a xlink:title=" ">
<polygon fill="#e0e0e0" stroke="#999999" points="792.5,-74 723.5,-74 723.5,-55 792.5,-55 792.5,-74"/>
<text text-anchor="middle" x="758" y="-62" font-family="Helvetica,sans-Serif" font-size="10.00">type_traits</text>
</a>
</g>
</g>
<!-- Node15&#45;&gt;Node18 -->
<g id="edge22_Node000015_Node000018" class="edge">
<title>Node15&#45;&gt;Node18</title>
<g id="a_edge22_Node000015_Node000018"><a xlink:title=" ">
<path fill="none" stroke="#63b8ff" d="M694.92,-115.37C706.51,-106.21 725.03,-91.56 739.02,-80.51"/>
<polygon fill="#63b8ff" stroke="#63b8ff" points="741.36,-83.11 747.04,-74.17 737.02,-77.62 741.36,-83.11"/>
</a>
</g>
</g>
<!-- Node19 -->
<g id="Node000019" class="node">
<title>Node19</title>
<g id="a_Node000019"><a xlink:href="trait_8h.html" target="_top" xlink:title=" ">
<polygon fill="white" stroke="#666666" points="645,-74 599,-74 599,-55 645,-55 645,-74"/>
<text text-anchor="middle" x="622" y="-62" font-family="Helvetica,sans-Serif" font-size="10.00">trait.h</text>
</a>
</g>
</g>
<!-- Node15&#45;&gt;Node19 -->
<g id="edge24_Node000015_Node000019" class="edge">
<title>Node15&#45;&gt;Node19</title>
<g id="a_edge24_Node000015_Node000019"><a xlink:title=" ">
<path fill="none" stroke="#63b8ff" d="M674.85,-115.37C665.33,-106.38 650.2,-92.11 638.57,-81.14"/>
<polygon fill="#63b8ff" stroke="#63b8ff" points="640.86,-78.48 631.19,-74.17 636.06,-83.58 640.86,-78.48"/>
</a>
</g>
</g>
<!-- Node20 -->
<g id="Node000020" class="node">
<title>Node20</title>
<g id="a_Node000020"><a xlink:href="exception_8h.html" target="_top" xlink:title=" ">
<polygon fill="white" stroke="#666666" points="972.5,-74 849.5,-74 849.5,-55 972.5,-55 972.5,-74"/>
<text text-anchor="middle" x="911" y="-62" font-family="Helvetica,sans-Serif" font-size="10.00">webcface/exception.h</text>
</a>
</g>
</g>
<!-- Node15&#45;&gt;Node20 -->
<g id="edge27_Node000015_Node000020" class="edge">
<title>Node15&#45;&gt;Node20</title>
<g id="a_edge27_Node000015_Node000020"><a xlink:title=" ">
<path fill="none" stroke="#63b8ff" d="M717.01,-115.49C756.94,-105.2 824.24,-87.86 868.14,-76.54"/>
<polygon fill="#63b8ff" stroke="#63b8ff" points="869.14,-79.9 877.95,-74.02 867.4,-73.12 869.14,-79.9"/>
</a>
</g>
</g>
<!-- Node19&#45;&gt;Node10 -->
<g id="edge26_Node000019_Node000010" class="edge">
<title>Node19&#45;&gt;Node10</title>
<g id="a_edge26_Node000019_Node000010"><a xlink:title=" ">
<path fill="none" stroke="#63b8ff" d="M617.71,-54.75C614.19,-47.57 609.09,-37.18 604.72,-28.27"/>
<polygon fill="#63b8ff" stroke="#63b8ff" points="607.76,-26.53 600.21,-19.09 601.48,-29.61 607.76,-26.53"/>
</a>
</g>
</g>
<!-- Node19&#45;&gt;Node14 -->
<g id="edge25_Node000019_Node000014" class="edge">
<title>Node19&#45;&gt;Node14</title>
<g id="a_edge25_Node000019_Node000014"><a xlink:title=" ">
<path fill="none" stroke="#63b8ff" d="M598.75,-57.21C565.07,-48.11 502.41,-31.16 462.52,-20.38"/>
<polygon fill="#63b8ff" stroke="#63b8ff" points="463.23,-16.94 452.66,-17.71 461.4,-23.7 463.23,-16.94"/>
</a>
</g>
</g>
<!-- Node20&#45;&gt;Node10 -->
<g id="edge28_Node000020_Node000010" class="edge">
<title>Node20&#45;&gt;Node10</title>
<g id="a_edge28_Node000020_Node000010"><a xlink:title=" ">
<path fill="none" stroke="#63b8ff" d="M860.39,-54.98C804.9,-45.65 715.91,-30.67 656.71,-20.71"/>
<polygon fill="#63b8ff" stroke="#63b8ff" points="657.19,-17.25 646.75,-19.04 656.03,-24.15 657.19,-17.25"/>
</a>
</g>
</g>
<!-- Node20&#45;&gt;Node16 -->
<g id="edge29_Node000020_Node000016" class="edge">
<title>Node20&#45;&gt;Node16</title>
<g id="a_edge29_Node000020_Node000016"><a xlink:title=" ">
<path fill="none" stroke="#63b8ff" d="M918.43,-54.75C924.85,-47.18 934.31,-36.05 942.12,-26.84"/>
<polygon fill="#63b8ff" stroke="#63b8ff" points="944.9,-28.98 948.71,-19.09 939.57,-24.45 944.9,-28.98"/>
</a>
</g>
</g>
<!-- Node21&#45;&gt;Node7 -->
<g id="edge32_Node000021_Node000007" class="edge">
<title>Node21&#45;&gt;Node7</title>
<g id="a_edge32_Node000021_Node000007"><a xlink:title=" ">
<path fill="none" stroke="#63b8ff" d="M451.86,-111.43C448.53,-110.92 445.23,-110.44 442,-110 354.89,-98.12 116.05,-129.66 48,-74 34.93,-63.31 30.6,-44 29.29,-29.48"/>
<polygon fill="#63b8ff" stroke="#63b8ff" points="32.76,-28.92 28.77,-19.11 25.77,-29.27 32.76,-28.92"/>
</a>
</g>
</g>
<!-- Node21&#45;&gt;Node9 -->
<g id="edge33_Node000021_Node000009" class="edge">
<title>Node21&#45;&gt;Node9</title>
<g id="a_edge33_Node000021_Node000009"><a xlink:title=" ">
<path fill="none" stroke="#63b8ff" d="M519,-109.84C519,-102.21 519,-92.7 519,-84.45"/>
<polygon fill="#63b8ff" stroke="#63b8ff" points="522.5,-84.27 519,-74.27 515.5,-84.27 522.5,-84.27"/>
</a>
</g>
</g>
<!-- Node21&#45;&gt;Node10 -->
<g id="edge34_Node000021_Node000010" class="edge">
<title>Node21&#45;&gt;Node10</title>
<g id="a_edge34_Node000021_Node000010"><a xlink:title=" ">
<path fill="none" stroke="#63b8ff" d="M528.75,-109.63C542.92,-88.75 569.14,-50.09 584.32,-27.72"/>
<polygon fill="#63b8ff" stroke="#63b8ff" points="587.36,-29.47 590.08,-19.23 581.57,-25.54 587.36,-29.47"/>
</a>
</g>
</g>
</g>
</svg>
