<?xml version="1.0" encoding="UTF-8" standalone="no"?>
<!DOCTYPE svg PUBLIC "-//W3C//DTD SVG 1.1//EN"
 "http://www.w3.org/Graphics/SVG/1.1/DTD/svg11.dtd">
<!-- Generated by graphviz version 2.43.0 (0)
 -->
<!-- Title: client/include/webcface/log.h Pages: 1 -->
<svg width="2447pt" height="357pt"
 viewBox="0.00 0.00 2446.74 357.00" xmlns="http://www.w3.org/2000/svg" xmlns:xlink="http://www.w3.org/1999/xlink">
<g id="graph0" class="graph" transform="scale(1 1) rotate(0) translate(4 353)">
<title>client/include/webcface/log.h</title>
<!-- Node1 -->
<g id="Node000001" class="node">
<title>Node1</title>
<g id="a_Node000001"><a xlink:title=" ">
<polygon fill="#999999" stroke="#666666" points="474.24,-349 343.24,-349 343.24,-319 474.24,-319 474.24,-349"/>
<text text-anchor="start" x="351.24" y="-337" font-family="Helvetica,sans-Serif" font-size="10.00">client/include/webcface</text>
<text text-anchor="middle" x="408.74" y="-326" font-family="Helvetica,sans-Serif" font-size="10.00">/log.h</text>
</a>
</g>
</g>
<!-- Node2 -->
<g id="Node000002" class="node">
<title>Node2</title>
<g id="a_Node000002"><a xlink:href="client__internal_8h.html" target="_top" xlink:title=" ">
<polygon fill="white" stroke="#666666" points="1388.24,-217 1249.24,-217 1249.24,-187 1388.24,-187 1388.24,-217"/>
<text text-anchor="start" x="1257.24" y="-205" font-family="Helvetica,sans-Serif" font-size="10.00">client/include/webcface</text>
<text text-anchor="middle" x="1318.74" y="-194" font-family="Helvetica,sans-Serif" font-size="10.00">/internal/client_internal.h</text>
</a>
</g>
</g>
<!-- Node1&#45;&gt;Node2 -->
<g id="edge1_Node000001_Node000002" class="edge">
<title>Node1&#45;&gt;Node2</title>
<g id="a_edge1_Node000001_Node000002"><a xlink:title=" ">
<path fill="none" stroke="#63b8ff" d="M484.62,-322.16C658.1,-297.38 1081.62,-236.87 1249.01,-212.96"/>
<polygon fill="#63b8ff" stroke="#63b8ff" points="483.95,-318.72 474.55,-323.6 484.94,-325.65 483.95,-318.72"/>
</a>
</g>
</g>
<!-- Node8 -->
<g id="Node000008" class="node">
<title>Node8</title>
<g id="a_Node000008"><a xlink:href="client__msg__recv_8cc.html" target="_top" xlink:title=" ">
<polygon fill="white" stroke="#666666" points="262.24,-151 145.24,-151 145.24,-121 262.24,-121 262.24,-151"/>
<text text-anchor="start" x="153.24" y="-139" font-family="Helvetica,sans-Serif" font-size="10.00">client/src/client_msg</text>
<text text-anchor="middle" x="203.74" y="-128" font-family="Helvetica,sans-Serif" font-size="10.00">_recv.cc</text>
</a>
</g>
</g>
<!-- Node1&#45;&gt;Node8 -->
<g id="edge55_Node000001_Node000008" class="edge">
<title>Node1&#45;&gt;Node8</title>
<g id="a_edge55_Node000001_Node000008"><a xlink:title=" ">
<path fill="none" stroke="#63b8ff" d="M386.75,-311.98C344.79,-271.85 254.29,-185.33 218.62,-151.23"/>
<polygon fill="#63b8ff" stroke="#63b8ff" points="384.35,-314.52 394,-318.9 389.19,-309.46 384.35,-314.52"/>
</a>
</g>
</g>
<!-- Node12 -->
<g id="Node000012" class="node">
<title>Node12</title>
<g id="a_Node000012"><a xlink:href="field_8cc.html" target="_top" xlink:title=" ">
<polygon fill="white" stroke="#666666" points="378.74,-145.5 280.74,-145.5 280.74,-126.5 378.74,-126.5 378.74,-145.5"/>
<text text-anchor="middle" x="329.74" y="-133.5" font-family="Helvetica,sans-Serif" font-size="10.00">client/src/field.cc</text>
</a>
</g>
</g>
<!-- Node1&#45;&gt;Node12 -->
<g id="edge57_Node000001_Node000012" class="edge">
<title>Node1&#45;&gt;Node12</title>
<g id="a_edge57_Node000001_Node000012"><a xlink:title=" ">
<path fill="none" stroke="#63b8ff" d="M399.22,-309.39C381.63,-265.74 344.77,-174.3 333.26,-145.73"/>
<polygon fill="#63b8ff" stroke="#63b8ff" points="396.07,-310.94 403.06,-318.9 402.56,-308.32 396.07,-310.94"/>
</a>
</g>
</g>
<!-- Node16 -->
<g id="Node000016" class="node">
<title>Node16</title>
<g id="a_Node000016"><a xlink:href="log_8cc.html" target="_top" xlink:title=" ">
<polygon fill="white" stroke="#666666" points="126.74,-145.5 34.74,-145.5 34.74,-126.5 126.74,-126.5 126.74,-145.5"/>
<text text-anchor="middle" x="80.74" y="-133.5" font-family="Helvetica,sans-Serif" font-size="10.00">client/src/log.cc</text>
</a>
</g>
</g>
<!-- Node1&#45;&gt;Node16 -->
<g id="edge58_Node000001_Node000016" class="edge">
<title>Node1&#45;&gt;Node16</title>
<g id="a_edge58_Node000001_Node000016"><a xlink:title=" ">
<path fill="none" stroke="#63b8ff" d="M376.1,-313.59C360.54,-304.34 341.67,-293.11 324.74,-283 237.41,-230.89 132.63,-168.1 95.03,-145.57"/>
<polygon fill="#63b8ff" stroke="#63b8ff" points="374.45,-316.69 384.83,-318.79 378.03,-310.67 374.45,-316.69"/>
</a>
</g>
</g>
<!-- Node17 -->
<g id="Node000017" class="node">
<title>Node17</title>
<g id="a_Node000017"><a xlink:href="member_8cc.html" target="_top" xlink:title=" ">
<polygon fill="white" stroke="#666666" points="514.74,-145.5 396.74,-145.5 396.74,-126.5 514.74,-126.5 514.74,-145.5"/>
<text text-anchor="middle" x="455.74" y="-133.5" font-family="Helvetica,sans-Serif" font-size="10.00">client/src/member.cc</text>
</a>
</g>
</g>
<!-- Node1&#45;&gt;Node17 -->
<g id="edge59_Node000001_Node000017" class="edge">
<title>Node1&#45;&gt;Node17</title>
<g id="a_edge59_Node000001_Node000017"><a xlink:title=" ">
<path fill="none" stroke="#63b8ff" d="M414.47,-309.11C424.96,-265.36 446.81,-174.24 453.65,-145.73"/>
<polygon fill="#63b8ff" stroke="#63b8ff" points="411.05,-308.36 412.12,-318.9 417.85,-310 411.05,-308.36"/>
</a>
</g>
</g>
<!-- Node22 -->
<g id="Node000022" class="node">
<title>Node22</title>
<g id="a_Node000022"><a xlink:href="data__store2_8h.html" target="_top" xlink:title=" ">
<polygon fill="white" stroke="#666666" points="1409.24,-283 1278.24,-283 1278.24,-253 1409.24,-253 1409.24,-283"/>
<text text-anchor="start" x="1286.24" y="-271" font-family="Helvetica,sans-Serif" font-size="10.00">client/include/webcface</text>
<text text-anchor="middle" x="1343.74" y="-260" font-family="Helvetica,sans-Serif" font-size="10.00">/internal/data_store2.h</text>
</a>
</g>
</g>
<!-- Node1&#45;&gt;Node22 -->
<g id="edge23_Node000001_Node000022" class="edge">
<title>Node1&#45;&gt;Node22</title>
<g id="a_edge23_Node000001_Node000022"><a xlink:title=" ">
<path fill="none" stroke="#63b8ff" d="M484.6,-327.81C663.59,-315.56 1109.74,-285.02 1278.06,-273.5"/>
<polygon fill="#63b8ff" stroke="#63b8ff" points="484.22,-324.32 474.49,-328.5 484.7,-331.31 484.22,-324.32"/>
</a>
</g>
</g>
<!-- Node23 -->
<g id="Node000023" class="node">
<title>Node23</title>
<g id="a_Node000023"><a xlink:href="data__store2_8cc.html" target="_top" xlink:title=" ">
<polygon fill="white" stroke="#666666" points="1580.24,-211.5 1445.24,-211.5 1445.24,-192.5 1580.24,-192.5 1580.24,-211.5"/>
<text text-anchor="middle" x="1512.74" y="-199.5" font-family="Helvetica,sans-Serif" font-size="10.00">client/src/data_store2.cc</text>
</a>
</g>
</g>
<!-- Node1&#45;&gt;Node23 -->
<g id="edge56_Node000001_Node000023" class="edge">
<title>Node1&#45;&gt;Node23</title>
<g id="a_edge56_Node000001_Node000023"><a xlink:title=" ">
<path fill="none" stroke="#63b8ff" d="M484.48,-332.06C704.39,-328.92 1332.78,-317.06 1418.74,-283 1457.79,-267.53 1492.14,-228.85 1506.1,-211.57"/>
<polygon fill="#63b8ff" stroke="#63b8ff" points="484.27,-328.56 474.32,-332.2 484.37,-335.56 484.27,-328.56"/>
</a>
</g>
</g>
<!-- Node24 -->
<g id="Node000024" class="node">
<title>Node24</title>
<g id="a_Node000024"><a xlink:href="internal_2logger_8h.html" target="_top" xlink:title=" ">
<polygon fill="white" stroke="#666666" points="146.24,-217 15.24,-217 15.24,-187 146.24,-187 146.24,-217"/>
<text text-anchor="start" x="23.24" y="-205" font-family="Helvetica,sans-Serif" font-size="10.00">client/include/webcface</text>
<text text-anchor="middle" x="80.74" y="-194" font-family="Helvetica,sans-Serif" font-size="10.00">/internal/logger.h</text>
</a>
</g>
</g>
<!-- Node1&#45;&gt;Node24 -->
<g id="edge27_Node000001_Node000024" class="edge">
<title>Node1&#45;&gt;Node24</title>
<g id="a_edge27_Node000001_Node000024"><a xlink:title=" ">
<path fill="none" stroke="#63b8ff" d="M332.93,-321.61C292.3,-313.85 242.03,-301.55 199.74,-283 160.07,-265.6 119.35,-234.9 97.34,-217.01"/>
<polygon fill="#63b8ff" stroke="#63b8ff" points="332.3,-325.05 342.77,-323.44 333.58,-318.17 332.3,-325.05"/>
</a>
</g>
</g>
<!-- Node25 -->
<g id="Node000025" class="node">
<title>Node25</title>
<g id="a_Node000025"><a xlink:href="member_8h.html" target="_top" xlink:title=" ">
<polygon fill="white" stroke="#666666" points="855.24,-217 724.24,-217 724.24,-187 855.24,-187 855.24,-217"/>
<text text-anchor="start" x="732.24" y="-205" font-family="Helvetica,sans-Serif" font-size="10.00">client/include/webcface</text>
<text text-anchor="middle" x="789.74" y="-194" font-family="Helvetica,sans-Serif" font-size="10.00">/member.h</text>
</a>
</g>
</g>
<!-- Node1&#45;&gt;Node25 -->
<g id="edge30_Node000001_Node000025" class="edge">
<title>Node1&#45;&gt;Node25</title>
<g id="a_edge30_Node000001_Node000025"><a xlink:title=" ">
<path fill="none" stroke="#63b8ff" d="M459.74,-315.6C536.01,-289.57 678.34,-241.01 748.49,-217.08"/>
<polygon fill="#63b8ff" stroke="#63b8ff" points="458.21,-312.42 449.87,-318.96 460.47,-319.05 458.21,-312.42"/>
</a>
</g>
</g>
<!-- Node27 -->
<g id="Node000027" class="node">
<title>Node27</title>
<g id="a_Node000027"><a xlink:href="webcface_8h.html" target="_top" xlink:title=" ">
<polygon fill="white" stroke="#666666" points="560.24,-85 429.24,-85 429.24,-55 560.24,-55 560.24,-85"/>
<text text-anchor="start" x="437.24" y="-73" font-family="Helvetica,sans-Serif" font-size="10.00">client/include/webcface</text>
<text text-anchor="middle" x="494.74" y="-62" font-family="Helvetica,sans-Serif" font-size="10.00">/webcface.h</text>
</a>
</g>
</g>
<!-- Node1&#45;&gt;Node27 -->
<g id="edge54_Node000001_Node000027" class="edge">
<title>Node1&#45;&gt;Node27</title>
<g id="a_edge54_Node000001_Node000027"><a xlink:title=" ">
<path fill="none" stroke="#63b8ff" d="M332.86,-323.09C226.15,-307.31 40.79,-272.44 5.74,-217 -6.39,-197.81 4.07,-132.14 15.74,-121 45.07,-93 305.03,-78.72 429.22,-73.45"/>
<polygon fill="#63b8ff" stroke="#63b8ff" points="332.54,-326.58 342.94,-324.56 333.55,-319.66 332.54,-326.58"/>
</a>
</g>
</g>
<!-- Node3 -->
<g id="Node000003" class="node">
<title>Node3</title>
<g id="a_Node000003"><a xlink:href="client__ws_8h.html" target="_top" xlink:title=" ">
<polygon fill="white" stroke="#666666" points="1890.24,-151 1759.24,-151 1759.24,-121 1890.24,-121 1890.24,-151"/>
<text text-anchor="start" x="1767.24" y="-139" font-family="Helvetica,sans-Serif" font-size="10.00">client/include/webcface</text>
<text text-anchor="middle" x="1824.74" y="-128" font-family="Helvetica,sans-Serif" font-size="10.00">/internal/client_ws.h</text>
</a>
</g>
</g>
<!-- Node2&#45;&gt;Node3 -->
<g id="edge2_Node000002_Node000003" class="edge">
<title>Node2&#45;&gt;Node3</title>
<g id="a_edge2_Node000002_Node000003"><a xlink:title=" ">
<path fill="none" stroke="#63b8ff" d="M1398.31,-187.61C1399.79,-187.4 1401.27,-187.2 1402.74,-187 1554.19,-166.43 1593.37,-172.19 1744.74,-151 1749.35,-150.36 1754.1,-149.64 1758.87,-148.89"/>
<polygon fill="#63b8ff" stroke="#63b8ff" points="1397.75,-184.16 1388.36,-189.06 1398.76,-191.08 1397.75,-184.16"/>
</a>
</g>
</g>
<!-- Node4 -->
<g id="Node000004" class="node">
<title>Node4</title>
<g id="a_Node000004"><a xlink:href="client__threading_8cc.html" target="_top" xlink:title=" ">
<polygon fill="white" stroke="#666666" points="1776.74,-79.5 1620.74,-79.5 1620.74,-60.5 1776.74,-60.5 1776.74,-79.5"/>
<text text-anchor="middle" x="1698.74" y="-67.5" font-family="Helvetica,sans-Serif" font-size="10.00">client/src/client_threading.cc</text>
</a>
</g>
</g>
<!-- Node2&#45;&gt;Node4 -->
<g id="edge9_Node000002_Node000004" class="edge">
<title>Node2&#45;&gt;Node4</title>
<g id="a_edge9_Node000002_Node000004"><a xlink:title=" ">
<path fill="none" stroke="#63b8ff" d="M1398.31,-187.64C1399.8,-187.42 1401.27,-187.21 1402.74,-187 1470.09,-177.41 1661.55,-201.85 1706.74,-151 1724.54,-130.97 1711.14,-95.98 1703.33,-79.74"/>
<polygon fill="#63b8ff" stroke="#63b8ff" points="1397.74,-184.19 1388.37,-189.13 1398.78,-191.11 1397.74,-184.19"/>
</a>
</g>
</g>
<!-- Node5 -->
<g id="Node000005" class="node">
<title>Node5</title>
<g id="a_Node000005"><a xlink:href="client__ws_8cc.html" target="_top" xlink:title=" ">
<polygon fill="white" stroke="#666666" points="1918.24,-79.5 1795.24,-79.5 1795.24,-60.5 1918.24,-60.5 1918.24,-79.5"/>
<text text-anchor="middle" x="1856.74" y="-67.5" font-family="Helvetica,sans-Serif" font-size="10.00">client/src/client_ws.cc</text>
</a>
</g>
</g>
<!-- Node2&#45;&gt;Node5 -->
<g id="edge10_Node000002_Node000005" class="edge">
<title>Node2&#45;&gt;Node5</title>
<g id="a_edge10_Node000002_Node000005"><a xlink:title=" ">
<path fill="none" stroke="#63b8ff" d="M1398.3,-187.55C1399.79,-187.36 1401.27,-187.18 1402.74,-187 1457.72,-180.44 1862.03,-191.54 1899.74,-151 1920.25,-128.95 1886.22,-95.27 1867.61,-79.59"/>
<polygon fill="#63b8ff" stroke="#63b8ff" points="1397.78,-184.09 1388.34,-188.89 1398.72,-191.02 1397.78,-184.09"/>
</a>
</g>
</g>
<!-- Node6 -->
<g id="Node000006" class="node">
<title>Node6</title>
<g id="a_Node000006"><a xlink:href="canvas2d_8cc.html" target="_top" xlink:title=" ">
<polygon fill="white" stroke="#666666" points="1238.74,-145.5 1114.74,-145.5 1114.74,-126.5 1238.74,-126.5 1238.74,-145.5"/>
<text text-anchor="middle" x="1176.74" y="-133.5" font-family="Helvetica,sans-Serif" font-size="10.00">client/src/canvas2d.cc</text>
</a>
</g>
</g>
<!-- Node2&#45;&gt;Node6 -->
<g id="edge5_Node000002_Node000006" class="edge">
<title>Node2&#45;&gt;Node6</title>
<g id="a_edge5_Node000002_Node000006"><a xlink:title=" ">
<path fill="none" stroke="#63b8ff" d="M1278.31,-182.78C1251.16,-170.54 1216.64,-154.98 1195.64,-145.52"/>
<polygon fill="#63b8ff" stroke="#63b8ff" points="1277.02,-186.04 1287.58,-186.95 1279.9,-179.65 1277.02,-186.04"/>
</a>
</g>
</g>
<!-- Node7 -->
<g id="Node000007" class="node">
<title>Node7</title>
<g id="a_Node000007"><a xlink:href="canvas3d_8cc.html" target="_top" xlink:title=" ">
<polygon fill="white" stroke="#666666" points="1380.74,-145.5 1256.74,-145.5 1256.74,-126.5 1380.74,-126.5 1380.74,-145.5"/>
<text text-anchor="middle" x="1318.74" y="-133.5" font-family="Helvetica,sans-Serif" font-size="10.00">client/src/canvas3d.cc</text>
</a>
</g>
</g>
<!-- Node2&#45;&gt;Node7 -->
<g id="edge6_Node000002_Node000007" class="edge">
<title>Node2&#45;&gt;Node7</title>
<g id="a_edge6_Node000002_Node000007"><a xlink:title=" ">
<path fill="none" stroke="#63b8ff" d="M1318.74,-176.6C1318.74,-165.8 1318.74,-153.78 1318.74,-145.84"/>
<polygon fill="#63b8ff" stroke="#63b8ff" points="1315.24,-176.8 1318.74,-186.8 1322.24,-176.8 1315.24,-176.8"/>
</a>
</g>
</g>
<!-- Node2&#45;&gt;Node8 -->
<g id="edge7_Node000002_Node000008" class="edge">
<title>Node2&#45;&gt;Node8</title>
<g id="a_edge7_Node000002_Node000008"><a xlink:title=" ">
<path fill="none" stroke="#63b8ff" d="M1238.84,-198.79C1027.75,-192.71 458.59,-174.55 271.74,-151 268.63,-150.61 265.45,-150.15 262.25,-149.65"/>
<polygon fill="#63b8ff" stroke="#63b8ff" points="1238.82,-202.29 1248.92,-199.08 1239.03,-195.3 1238.82,-202.29"/>
</a>
</g>
</g>
<!-- Node9 -->
<g id="Node000009" class="node">
<title>Node9</title>
<g id="a_Node000009"><a xlink:href="client__msg__sync_8cc.html" target="_top" xlink:title=" ">
<polygon fill="white" stroke="#666666" points="695.24,-85 578.24,-85 578.24,-55 695.24,-55 695.24,-85"/>
<text text-anchor="start" x="586.24" y="-73" font-family="Helvetica,sans-Serif" font-size="10.00">client/src/client_msg</text>
<text text-anchor="middle" x="636.74" y="-62" font-family="Helvetica,sans-Serif" font-size="10.00">_sync.cc</text>
</a>
</g>
</g>
<!-- Node2&#45;&gt;Node9 -->
<g id="edge8_Node000002_Node000009" class="edge">
<title>Node2&#45;&gt;Node9</title>
<g id="a_edge8_Node000002_Node000009"><a xlink:title=" ">
<path fill="none" stroke="#63b8ff" d="M1398.31,-187.67C1399.8,-187.44 1401.28,-187.22 1402.74,-187 1525.34,-168.65 1759.75,-210.27 1673.74,-121 1636.36,-82.21 758.22,-91.45 704.74,-85 701.63,-84.62 698.45,-84.18 695.24,-83.69"/>
<polygon fill="#63b8ff" stroke="#63b8ff" points="1397.73,-184.22 1388.38,-189.21 1398.8,-191.14 1397.73,-184.22"/>
</a>
</g>
</g>
<!-- Node10 -->
<g id="Node000010" class="node">
<title>Node10</title>
<g id="a_Node000010"><a xlink:href="component__canvas2d_8cc.html" target="_top" xlink:title=" ">
<polygon fill="white" stroke="#666666" points="2066.24,-151 1947.24,-151 1947.24,-121 2066.24,-121 2066.24,-151"/>
<text text-anchor="start" x="1955.24" y="-139" font-family="Helvetica,sans-Serif" font-size="10.00">client/src/component</text>
<text text-anchor="middle" x="2006.74" y="-128" font-family="Helvetica,sans-Serif" font-size="10.00">_canvas2d.cc</text>
</a>
</g>
</g>
<!-- Node2&#45;&gt;Node10 -->
<g id="edge11_Node000002_Node000010" class="edge">
<title>Node2&#45;&gt;Node10</title>
<g id="a_edge11_Node000002_Node000010"><a xlink:title=" ">
<path fill="none" stroke="#63b8ff" d="M1398.3,-187.54C1399.79,-187.35 1401.27,-187.17 1402.74,-187 1637.24,-159.56 1698.55,-181 1932.74,-151 1937.41,-150.4 1942.23,-149.7 1947.06,-148.92"/>
<polygon fill="#63b8ff" stroke="#63b8ff" points="1397.79,-184.08 1388.34,-188.86 1398.71,-191.01 1397.79,-184.08"/>
</a>
</g>
</g>
<!-- Node11 -->
<g id="Node000011" class="node">
<title>Node11</title>
<g id="a_Node000011"><a xlink:href="component__view_8cc.html" target="_top" xlink:title=" ">
<polygon fill="white" stroke="#666666" points="2322.24,-151 2203.24,-151 2203.24,-121 2322.24,-121 2322.24,-151"/>
<text text-anchor="start" x="2211.24" y="-139" font-family="Helvetica,sans-Serif" font-size="10.00">client/src/component</text>
<text text-anchor="middle" x="2262.74" y="-128" font-family="Helvetica,sans-Serif" font-size="10.00">_view.cc</text>
</a>
</g>
</g>
<!-- Node2&#45;&gt;Node11 -->
<g id="edge12_Node000002_Node000011" class="edge">
<title>Node2&#45;&gt;Node11</title>
<g id="a_edge12_Node000002_Node000011"><a xlink:title=" ">
<path fill="none" stroke="#63b8ff" d="M1398.66,-190.74C1411.38,-189.34 1424.41,-188.02 1436.74,-187 1772.41,-159.14 1859.49,-192.61 2193.74,-151 2196.77,-150.62 2199.87,-150.19 2202.99,-149.7"/>
<polygon fill="#63b8ff" stroke="#63b8ff" points="1398.08,-187.29 1388.54,-191.89 1398.87,-194.24 1398.08,-187.29"/>
</a>
</g>
</g>
<!-- Node2&#45;&gt;Node12 -->
<g id="edge13_Node000002_Node000012" class="edge">
<title>Node2&#45;&gt;Node12</title>
<g id="a_edge13_Node000002_Node000012"><a xlink:title=" ">
<path fill="none" stroke="#63b8ff" d="M1238.9,-198.59C1044.58,-192.43 550.98,-174.88 387.74,-151 378.82,-149.7 369.27,-147.66 360.54,-145.54"/>
<polygon fill="#63b8ff" stroke="#63b8ff" points="1238.94,-202.1 1249.04,-198.91 1239.16,-195.1 1238.94,-202.1"/>
</a>
</g>
</g>
<!-- Node13 -->
<g id="Node000013" class="node">
<title>Node13</title>
<g id="a_Node000013"><a xlink:href="func_8cc.html" target="_top" xlink:title=" ">
<polygon fill="white" stroke="#666666" points="2438.74,-145.5 2340.74,-145.5 2340.74,-126.5 2438.74,-126.5 2438.74,-145.5"/>
<text text-anchor="middle" x="2389.74" y="-133.5" font-family="Helvetica,sans-Serif" font-size="10.00">client/src/func.cc</text>
</a>
</g>
</g>
<!-- Node2&#45;&gt;Node13 -->
<g id="edge14_Node000002_Node000013" class="edge">
<title>Node2&#45;&gt;Node13</title>
<g id="a_edge14_Node000002_Node000013"><a xlink:title=" ">
<path fill="none" stroke="#63b8ff" d="M1398.65,-190.67C1411.38,-189.27 1424.41,-187.98 1436.74,-187 1833.59,-155.52 1937.45,-205.97 2331.74,-151 2340.77,-149.74 2350.44,-147.69 2359.25,-145.55"/>
<polygon fill="#63b8ff" stroke="#63b8ff" points="1398.08,-187.21 1388.53,-191.81 1398.86,-194.16 1398.08,-187.21"/>
</a>
</g>
</g>
<!-- Node14 -->
<g id="Node000014" class="node">
<title>Node14</title>
<g id="a_Node000014"><a xlink:href="func__listener_8cc.html" target="_top" xlink:title=" ">
<polygon fill="white" stroke="#666666" points="1664.74,-145.5 1524.74,-145.5 1524.74,-126.5 1664.74,-126.5 1664.74,-145.5"/>
<text text-anchor="middle" x="1594.74" y="-133.5" font-family="Helvetica,sans-Serif" font-size="10.00">client/src/func_listener.cc</text>
</a>
</g>
</g>
<!-- Node2&#45;&gt;Node14 -->
<g id="edge15_Node000002_Node000014" class="edge">
<title>Node2&#45;&gt;Node14</title>
<g id="a_edge15_Node000002_Node000014"><a xlink:title=" ">
<path fill="none" stroke="#63b8ff" d="M1389.14,-184.68C1442.98,-172.19 1515.05,-155.48 1558.01,-145.52"/>
<polygon fill="#63b8ff" stroke="#63b8ff" points="1388.26,-181.29 1379.31,-186.95 1389.84,-188.11 1388.26,-181.29"/>
</a>
</g>
</g>
<!-- Node15 -->
<g id="Node000015" class="node">
<title>Node15</title>
<g id="a_Node000015"><a xlink:href="image_8cc.html" target="_top" xlink:title=" ">
<polygon fill="white" stroke="#666666" points="1506.74,-145.5 1398.74,-145.5 1398.74,-126.5 1506.74,-126.5 1506.74,-145.5"/>
<text text-anchor="middle" x="1452.74" y="-133.5" font-family="Helvetica,sans-Serif" font-size="10.00">client/src/image.cc</text>
</a>
</g>
</g>
<!-- Node2&#45;&gt;Node15 -->
<g id="edge16_Node000002_Node000015" class="edge">
<title>Node2&#45;&gt;Node15</title>
<g id="a_edge16_Node000002_Node000015"><a xlink:title=" ">
<path fill="none" stroke="#63b8ff" d="M1357.22,-182.62C1382.79,-170.41 1415.18,-154.94 1434.91,-145.52"/>
<polygon fill="#63b8ff" stroke="#63b8ff" points="1355.66,-179.49 1348.15,-186.95 1358.68,-185.8 1355.66,-179.49"/>
</a>
</g>
</g>
<!-- Node2&#45;&gt;Node16 -->
<g id="edge17_Node000002_Node000016" class="edge">
<title>Node2&#45;&gt;Node16</title>
<g id="a_edge17_Node000002_Node000016"><a xlink:title=" ">
<path fill="none" stroke="#63b8ff" d="M1239.15,-198.59C991.41,-190.96 244.07,-166.9 135.74,-151 127.16,-149.74 117.98,-147.69 109.63,-145.55"/>
<polygon fill="#63b8ff" stroke="#63b8ff" points="1239.06,-202.09 1249.16,-198.9 1239.27,-195.09 1239.06,-202.09"/>
</a>
</g>
</g>
<!-- Node2&#45;&gt;Node17 -->
<g id="edge18_Node000002_Node000017" class="edge">
<title>Node2&#45;&gt;Node17</title>
<g id="a_edge18_Node000002_Node000017"><a xlink:title=" ">
<path fill="none" stroke="#63b8ff" d="M1239.13,-197.46C1101.04,-190.93 808.21,-175.39 561.74,-151 546.5,-149.49 530.07,-147.5 514.81,-145.5"/>
<polygon fill="#63b8ff" stroke="#63b8ff" points="1239.05,-200.96 1249.21,-197.93 1239.38,-193.96 1239.05,-200.96"/>
</a>
</g>
</g>
<!-- Node18 -->
<g id="Node000018" class="node">
<title>Node18</title>
<g id="a_Node000018"><a xlink:href="robot__model_8cc.html" target="_top" xlink:title=" ">
<polygon fill="white" stroke="#666666" points="859.24,-145.5 720.24,-145.5 720.24,-126.5 859.24,-126.5 859.24,-145.5"/>
<text text-anchor="middle" x="789.74" y="-133.5" font-family="Helvetica,sans-Serif" font-size="10.00">client/src/robot_model.cc</text>
</a>
</g>
</g>
<!-- Node2&#45;&gt;Node18 -->
<g id="edge19_Node000002_Node000018" class="edge">
<title>Node2&#45;&gt;Node18</title>
<g id="a_edge19_Node000002_Node000018"><a xlink:title=" ">
<path fill="none" stroke="#63b8ff" d="M1239.04,-193.72C1148.94,-185.12 997.97,-169.61 868.74,-151 857.71,-149.41 845.86,-147.45 834.78,-145.5"/>
<polygon fill="#63b8ff" stroke="#63b8ff" points="1238.89,-197.22 1249.18,-194.68 1239.56,-190.25 1238.89,-197.22"/>
</a>
</g>
</g>
<!-- Node19 -->
<g id="Node000019" class="node">
<title>Node19</title>
<g id="a_Node000019"><a xlink:href="text_8cc.html" target="_top" xlink:title=" ">
<polygon fill="white" stroke="#666666" points="974.24,-145.5 877.24,-145.5 877.24,-126.5 974.24,-126.5 974.24,-145.5"/>
<text text-anchor="middle" x="925.74" y="-133.5" font-family="Helvetica,sans-Serif" font-size="10.00">client/src/text.cc</text>
</a>
</g>
</g>
<!-- Node2&#45;&gt;Node19 -->
<g id="edge20_Node000002_Node000019" class="edge">
<title>Node2&#45;&gt;Node19</title>
<g id="a_edge20_Node000002_Node000019"><a xlink:title=" ">
<path fill="none" stroke="#63b8ff" d="M1238.91,-191.11C1170.83,-182.2 1070.48,-167.91 983.74,-151 975.6,-149.41 966.89,-147.45 958.75,-145.5"/>
<polygon fill="#63b8ff" stroke="#63b8ff" points="1238.77,-194.62 1249.14,-192.44 1239.67,-187.68 1238.77,-194.62"/>
</a>
</g>
</g>
<!-- Node20 -->
<g id="Node000020" class="node">
<title>Node20</title>
<g id="a_Node000020"><a xlink:href="value_8cc.html" target="_top" xlink:title=" ">
<polygon fill="white" stroke="#666666" points="1096.74,-145.5 992.74,-145.5 992.74,-126.5 1096.74,-126.5 1096.74,-145.5"/>
<text text-anchor="middle" x="1044.74" y="-133.5" font-family="Helvetica,sans-Serif" font-size="10.00">client/src/value.cc</text>
</a>
</g>
</g>
<!-- Node2&#45;&gt;Node20 -->
<g id="edge21_Node000002_Node000020" class="edge">
<title>Node2&#45;&gt;Node20</title>
<g id="a_edge21_Node000002_Node000020"><a xlink:title=" ">
<path fill="none" stroke="#63b8ff" d="M1248.85,-184.68C1195.4,-172.19 1123.85,-155.48 1081.2,-145.52"/>
<polygon fill="#63b8ff" stroke="#63b8ff" points="1248.07,-188.09 1258.61,-186.95 1249.67,-181.27 1248.07,-188.09"/>
</a>
</g>
</g>
<!-- Node21 -->
<g id="Node000021" class="node">
<title>Node21</title>
<g id="a_Node000021"><a xlink:href="view_8cc.html" target="_top" xlink:title=" ">
<polygon fill="white" stroke="#666666" points="2184.74,-145.5 2084.74,-145.5 2084.74,-126.5 2184.74,-126.5 2184.74,-145.5"/>
<text text-anchor="middle" x="2134.74" y="-133.5" font-family="Helvetica,sans-Serif" font-size="10.00">client/src/view.cc</text>
</a>
</g>
</g>
<!-- Node2&#45;&gt;Node21 -->
<g id="edge22_Node000002_Node000021" class="edge">
<title>Node2&#45;&gt;Node21</title>
<g id="a_edge22_Node000002_Node000021"><a xlink:title=" ">
<path fill="none" stroke="#63b8ff" d="M1398.29,-187.51C1399.79,-187.33 1401.27,-187.16 1402.74,-187 1700.49,-154.33 1779.27,-193.75 2075.74,-151 2084.8,-149.69 2094.52,-147.66 2103.4,-145.54"/>
<polygon fill="#63b8ff" stroke="#63b8ff" points="1397.8,-184.04 1388.33,-188.79 1398.69,-190.99 1397.8,-184.04"/>
</a>
</g>
</g>
<!-- Node3&#45;&gt;Node4 -->
<g id="edge3_Node000003_Node000004" class="edge">
<title>Node3&#45;&gt;Node4</title>
<g id="a_edge3_Node000003_Node000004"><a xlink:title=" ">
<path fill="none" stroke="#63b8ff" d="M1787.92,-116.3C1763.98,-104.14 1733.9,-88.86 1715.51,-79.52"/>
<polygon fill="#63b8ff" stroke="#63b8ff" points="1786.59,-119.55 1797.09,-120.95 1789.76,-113.31 1786.59,-119.55"/>
</a>
</g>
</g>
<!-- Node3&#45;&gt;Node5 -->
<g id="edge4_Node000003_Node000005" class="edge">
<title>Node3&#45;&gt;Node5</title>
<g id="a_edge4_Node000003_Node000005"><a xlink:title=" ">
<path fill="none" stroke="#63b8ff" d="M1836.43,-111.61C1841.96,-100.56 1848.22,-88.03 1852.32,-79.84"/>
<polygon fill="#63b8ff" stroke="#63b8ff" points="1833.18,-110.29 1831.84,-120.8 1839.44,-113.42 1833.18,-110.29"/>
</a>
</g>
</g>
<!-- Node22&#45;&gt;Node2 -->
<g id="edge24_Node000022_Node000002" class="edge">
<title>Node22&#45;&gt;Node2</title>
<g id="a_edge24_Node000022_Node000002"><a xlink:title=" ">
<path fill="none" stroke="#63b8ff" d="M1334.52,-243.39C1331.08,-234.59 1327.28,-224.86 1324.27,-217.16"/>
<polygon fill="#63b8ff" stroke="#63b8ff" points="1331.29,-244.76 1338.19,-252.8 1337.81,-242.21 1331.29,-244.76"/>
</a>
</g>
</g>
<!-- Node22&#45;&gt;Node21 -->
<g id="edge26_Node000022_Node000021" class="edge">
<title>Node22&#45;&gt;Node21</title>
<g id="a_edge26_Node000022_Node000021"><a xlink:title=" ">
<path fill="none" stroke="#63b8ff" d="M1366.68,-245.89C1391.46,-223.33 1428.5,-190.32 1436.74,-187 1568.64,-133.81 1935,-171.5 2075.74,-151 2084.8,-149.68 2094.52,-147.64 2103.4,-145.52"/>
<polygon fill="#63b8ff" stroke="#63b8ff" points="1364.14,-243.47 1359.12,-252.8 1368.87,-248.64 1364.14,-243.47"/>
</a>
</g>
</g>
<!-- Node22&#45;&gt;Node23 -->
<g id="edge25_Node000022_Node000023" class="edge">
<title>Node22&#45;&gt;Node23</title>
<g id="a_edge25_Node000022_Node000023"><a xlink:title=" ">
<path fill="none" stroke="#63b8ff" d="M1390.58,-249.26C1423.08,-236.95 1464.93,-221.11 1490.25,-211.52"/>
<polygon fill="#63b8ff" stroke="#63b8ff" points="1388.94,-246.14 1380.83,-252.95 1391.42,-252.69 1388.94,-246.14"/>
</a>
</g>
</g>
<!-- Node24&#45;&gt;Node9 -->
<g id="edge28_Node000024_Node000009" class="edge">
<title>Node24&#45;&gt;Node9</title>
<g id="a_edge28_Node000024_Node000009"><a xlink:title=" ">
<path fill="none" stroke="#63b8ff" d="M51.31,-180.66C30.27,-163.71 8.48,-139.44 25.74,-121 67.06,-76.85 508.82,-93.12 568.74,-85 571.84,-84.58 575.02,-84.1 578.22,-83.58"/>
<polygon fill="#63b8ff" stroke="#63b8ff" points="49.2,-183.44 59.26,-186.77 53.46,-177.9 49.2,-183.44"/>
</a>
</g>
</g>
<!-- Node24&#45;&gt;Node16 -->
<g id="edge29_Node000024_Node000016" class="edge">
<title>Node24&#45;&gt;Node16</title>
<g id="a_edge29_Node000024_Node000016"><a xlink:title=" ">
<path fill="none" stroke="#63b8ff" d="M80.74,-176.6C80.74,-165.8 80.74,-153.78 80.74,-145.84"/>
<polygon fill="#63b8ff" stroke="#63b8ff" points="77.24,-176.8 80.74,-186.8 84.24,-176.8 77.24,-176.8"/>
</a>
</g>
</g>
<!-- Node25&#45;&gt;Node6 -->
<g id="edge44_Node000025_Node000006" class="edge">
<title>Node25&#45;&gt;Node6</title>
<g id="a_edge44_Node000025_Node000006"><a xlink:title=" ">
<path fill="none" stroke="#63b8ff" d="M865.55,-189.83C929.64,-180.18 1023.85,-165.55 1105.74,-151 1115.14,-149.33 1125.22,-147.42 1134.74,-145.55"/>
<polygon fill="#63b8ff" stroke="#63b8ff" points="864.9,-186.39 855.53,-191.33 865.93,-193.31 864.9,-186.39"/>
</a>
</g>
</g>
<!-- Node25&#45;&gt;Node7 -->
<g id="edge45_Node000025_Node000007" class="edge">
<title>Node25&#45;&gt;Node7</title>
<g id="a_edge45_Node000025_Node000007"><a xlink:title=" ">
<path fill="none" stroke="#63b8ff" d="M865.81,-194.71C956.89,-186.72 1113.93,-171.46 1247.74,-151 1257.8,-149.46 1268.6,-147.5 1278.67,-145.53"/>
<polygon fill="#63b8ff" stroke="#63b8ff" points="865.23,-191.25 855.57,-195.6 865.84,-198.22 865.23,-191.25"/>
</a>
</g>
</g>
<!-- Node25&#45;&gt;Node8 -->
<g id="edge46_Node000025_Node000008" class="edge">
<title>Node25&#45;&gt;Node8</title>
<g id="a_edge46_Node000025_Node000008"><a xlink:title=" ">
<path fill="none" stroke="#63b8ff" d="M713.92,-196.23C612.72,-189.28 428.07,-174.57 271.74,-151 268.64,-150.53 265.47,-150.02 262.27,-149.46"/>
<polygon fill="#63b8ff" stroke="#63b8ff" points="713.83,-199.73 724.05,-196.92 714.31,-192.75 713.83,-199.73"/>
</a>
</g>
</g>
<!-- Node25&#45;&gt;Node12 -->
<g id="edge47_Node000025_Node000012" class="edge">
<title>Node25&#45;&gt;Node12</title>
<g id="a_edge47_Node000025_Node000012"><a xlink:title=" ">
<path fill="none" stroke="#63b8ff" d="M713.82,-194.14C632.7,-186.21 500.54,-171.56 387.74,-151 379.38,-149.48 370.43,-147.49 362.12,-145.5"/>
<polygon fill="#63b8ff" stroke="#63b8ff" points="713.65,-197.64 723.94,-195.12 714.32,-190.67 713.65,-197.64"/>
</a>
</g>
</g>
<!-- Node25&#45;&gt;Node15 -->
<g id="edge48_Node000025_Node000015" class="edge">
<title>Node25&#45;&gt;Node15</title>
<g id="a_edge48_Node000025_Node000015"><a xlink:title=" ">
<path fill="none" stroke="#63b8ff" d="M865.37,-197.99C979.52,-192.7 1202.41,-179.49 1389.74,-151 1399.04,-149.59 1409.02,-147.59 1418.24,-145.55"/>
<polygon fill="#63b8ff" stroke="#63b8ff" points="865.16,-194.49 855.33,-198.45 865.48,-201.49 865.16,-194.49"/>
</a>
</g>
</g>
<!-- Node25&#45;&gt;Node17 -->
<g id="edge49_Node000025_Node000017" class="edge">
<title>Node25&#45;&gt;Node17</title>
<g id="a_edge49_Node000025_Node000017"><a xlink:title=" ">
<path fill="none" stroke="#63b8ff" d="M714.2,-186.53C662.09,-176.55 591.21,-162.97 528.74,-151 519.49,-149.23 509.58,-147.33 500.13,-145.52"/>
<polygon fill="#63b8ff" stroke="#63b8ff" points="713.56,-189.97 724.04,-188.42 714.88,-183.1 713.56,-189.97"/>
</a>
</g>
</g>
<!-- Node25&#45;&gt;Node18 -->
<g id="edge50_Node000025_Node000018" class="edge">
<title>Node25&#45;&gt;Node18</title>
<g id="a_edge50_Node000025_Node000018"><a xlink:title=" ">
<path fill="none" stroke="#63b8ff" d="M789.74,-176.6C789.74,-165.8 789.74,-153.78 789.74,-145.84"/>
<polygon fill="#63b8ff" stroke="#63b8ff" points="786.24,-176.8 789.74,-186.8 793.24,-176.8 786.24,-176.8"/>
</a>
</g>
</g>
<!-- Node25&#45;&gt;Node19 -->
<g id="edge51_Node000025_Node000019" class="edge">
<title>Node25&#45;&gt;Node19</title>
<g id="a_edge51_Node000025_Node000019"><a xlink:title=" ">
<path fill="none" stroke="#63b8ff" d="M828.8,-182.62C854.75,-170.41 887.61,-154.94 907.64,-145.52"/>
<polygon fill="#63b8ff" stroke="#63b8ff" points="827.14,-179.53 819.58,-186.95 830.12,-185.86 827.14,-179.53"/>
</a>
</g>
</g>
<!-- Node25&#45;&gt;Node20 -->
<g id="edge52_Node000025_Node000020" class="edge">
<title>Node25&#45;&gt;Node20</title>
<g id="a_edge52_Node000025_Node000020"><a xlink:title=" ">
<path fill="none" stroke="#63b8ff" d="M855.4,-184.52C905.08,-172.05 971.28,-155.44 1010.8,-145.52"/>
<polygon fill="#63b8ff" stroke="#63b8ff" points="854.55,-181.13 845.7,-186.95 856.25,-187.92 854.55,-181.13"/>
</a>
</g>
</g>
<!-- Node25&#45;&gt;Node21 -->
<g id="edge53_Node000025_Node000021" class="edge">
<title>Node25&#45;&gt;Node21</title>
<g id="a_edge53_Node000025_Node000021"><a xlink:title=" ">
<path fill="none" stroke="#63b8ff" d="M865.63,-198.46C1132.61,-189.46 2015.66,-159.22 2075.74,-151 2084.92,-149.74 2094.76,-147.7 2103.72,-145.55"/>
<polygon fill="#63b8ff" stroke="#63b8ff" points="865.14,-194.97 855.27,-198.81 865.38,-201.97 865.14,-194.97"/>
</a>
</g>
</g>
<!-- Node26 -->
<g id="Node000026" class="node">
<title>Node26</title>
<g id="a_Node000026"><a xlink:href="client_8h.html" target="_top" xlink:title=" ">
<polygon fill="white" stroke="#666666" points="702.24,-151 571.24,-151 571.24,-121 702.24,-121 702.24,-151"/>
<text text-anchor="start" x="579.24" y="-139" font-family="Helvetica,sans-Serif" font-size="10.00">client/include/webcface</text>
<text text-anchor="middle" x="636.74" y="-128" font-family="Helvetica,sans-Serif" font-size="10.00">/client.h</text>
</a>
</g>
</g>
<!-- Node25&#45;&gt;Node26 -->
<g id="edge31_Node000025_Node000026" class="edge">
<title>Node25&#45;&gt;Node26</title>
<g id="a_edge31_Node000025_Node000026"><a xlink:title=" ">
<path fill="none" stroke="#63b8ff" d="M746.84,-183.05C722.6,-172.91 692.74,-160.43 670.24,-151.01"/>
<polygon fill="#63b8ff" stroke="#63b8ff" points="745.59,-186.32 756.16,-186.95 748.29,-179.87 745.59,-186.32"/>
</a>
</g>
</g>
<!-- Node25&#45;&gt;Node27 -->
<g id="edge43_Node000025_Node000027" class="edge">
<title>Node25&#45;&gt;Node27</title>
<g id="a_edge43_Node000025_Node000027"><a xlink:title=" ">
<path fill="none" stroke="#63b8ff" d="M714.08,-196.78C667.36,-191.29 607.75,-178.88 561.74,-151 534.62,-134.57 513.27,-103.22 502.47,-85.02"/>
<polygon fill="#63b8ff" stroke="#63b8ff" points="713.83,-200.27 724.15,-197.88 714.59,-193.31 713.83,-200.27"/>
</a>
</g>
</g>
<!-- Node26&#45;&gt;Node4 -->
<g id="edge41_Node000026_Node000004" class="edge">
<title>Node26&#45;&gt;Node4</title>
<g id="a_edge41_Node000026_Node000004"><a xlink:title=" ">
<path fill="none" stroke="#63b8ff" d="M712.57,-120.89C1055.66,-80.63 1454.87,-72.85 1620.62,-71.34"/>
<polygon fill="#63b8ff" stroke="#63b8ff" points="711.95,-117.44 702.43,-122.09 712.78,-124.39 711.95,-117.44"/>
</a>
</g>
</g>
<!-- Node26&#45;&gt;Node5 -->
<g id="edge42_Node000026_Node000005" class="edge">
<title>Node26&#45;&gt;Node5</title>
<g id="a_edge42_Node000026_Node000005"><a xlink:title=" ">
<path fill="none" stroke="#63b8ff" d="M712.64,-120.91C1187.67,-69.41 1314.16,-139.03 1785.74,-85 1796.72,-83.74 1808.54,-81.69 1819.33,-79.55"/>
<polygon fill="#63b8ff" stroke="#63b8ff" points="711.99,-117.46 702.43,-122.03 712.75,-124.42 711.99,-117.46"/>
</a>
</g>
</g>
<!-- Node26&#45;&gt;Node9 -->
<g id="edge40_Node000026_Node000009" class="edge">
<title>Node26&#45;&gt;Node9</title>
<g id="a_edge40_Node000026_Node000009"><a xlink:title=" ">
<path fill="none" stroke="#63b8ff" d="M636.74,-110.54C636.74,-101.96 636.74,-92.61 636.74,-85.16"/>
<polygon fill="#63b8ff" stroke="#63b8ff" points="633.24,-110.8 636.74,-120.8 640.24,-110.8 633.24,-110.8"/>
</a>
</g>
</g>
<!-- Node26&#45;&gt;Node27 -->
<g id="edge32_Node000026_Node000027" class="edge">
<title>Node26&#45;&gt;Node27</title>
<g id="a_edge32_Node000026_Node000027"><a xlink:title=" ">
<path fill="none" stroke="#63b8ff" d="M596.32,-116.78C573.93,-106.69 546.53,-94.34 525.83,-85.01"/>
<polygon fill="#63b8ff" stroke="#63b8ff" points="595.02,-120.04 605.58,-120.95 597.9,-113.65 595.02,-120.04"/>
</a>
</g>
</g>
<!-- Node28 -->
<g id="Node000028" class="node">
<title>Node28</title>
<g id="a_Node000028"><a xlink:href="c__wcf__internal_8h.html" target="_top" xlink:title=" ">
<polygon fill="white" stroke="#666666" points="813.74,-85 713.74,-85 713.74,-55 813.74,-55 813.74,-85"/>
<text text-anchor="start" x="721.74" y="-73" font-family="Helvetica,sans-Serif" font-size="10.00">client/src/c_wcf/c</text>
<text text-anchor="middle" x="763.74" y="-62" font-family="Helvetica,sans-Serif" font-size="10.00">_wcf_internal.h</text>
</a>
</g>
</g>
<!-- Node26&#45;&gt;Node28 -->
<g id="edge33_Node000026_Node000028" class="edge">
<title>Node26&#45;&gt;Node28</title>
<g id="a_edge33_Node000026_Node000028"><a xlink:title=" ">
<path fill="none" stroke="#63b8ff" d="M673.69,-116.38C693.56,-106.36 717.67,-94.22 735.93,-85.01"/>
<polygon fill="#63b8ff" stroke="#63b8ff" points="671.96,-113.33 664.61,-120.95 675.11,-119.58 671.96,-113.33"/>
</a>
</g>
</g>
<!-- Node29 -->
<g id="Node000029" class="node">
<title>Node29</title>
<g id="a_Node000029"><a xlink:href="client_8cc.html" target="_top" xlink:title=" ">
<polygon fill="white" stroke="#666666" points="446.24,-19 311.24,-19 311.24,0 446.24,0 446.24,-19"/>
<text text-anchor="middle" x="378.74" y="-7" font-family="Helvetica,sans-Serif" font-size="10.00">client/src/c_wcf/client.cc</text>
</a>
</g>
</g>
<!-- Node28&#45;&gt;Node29 -->
<g id="edge34_Node000028_Node000029" class="edge">
<title>Node28&#45;&gt;Node29</title>
<g id="a_edge34_Node000028_Node000029"><a xlink:title=" ">
<path fill="none" stroke="#63b8ff" d="M704.04,-55.06C703.94,-55.04 703.84,-55.02 703.74,-55 655.79,-46.14 526.56,-29.22 446.25,-18.99"/>
<polygon fill="#63b8ff" stroke="#63b8ff" points="703.23,-58.46 713.72,-56.96 704.59,-51.6 703.23,-58.46"/>
</a>
</g>
</g>
<!-- Node30 -->
<g id="Node000030" class="node">
<title>Node30</title>
<g id="a_Node000030"><a xlink:href="c__wcf_2func_8cc.html" target="_top" xlink:title=" ">
<polygon fill="white" stroke="#666666" points="593.24,-19 464.24,-19 464.24,0 593.24,0 593.24,-19"/>
<text text-anchor="middle" x="528.74" y="-7" font-family="Helvetica,sans-Serif" font-size="10.00">client/src/c_wcf/func.cc</text>
</a>
</g>
</g>
<!-- Node28&#45;&gt;Node30 -->
<g id="edge35_Node000028_Node000030" class="edge">
<title>Node28&#45;&gt;Node30</title>
<g id="a_edge35_Node000028_Node000030"><a xlink:title=" ">
<path fill="none" stroke="#63b8ff" d="M703.78,-54.07C659.24,-42.99 600.07,-28.26 563.2,-19.08"/>
<polygon fill="#63b8ff" stroke="#63b8ff" points="703.06,-57.5 713.61,-56.52 704.75,-50.71 703.06,-57.5"/>
</a>
</g>
</g>
<!-- Node31 -->
<g id="Node000031" class="node">
<title>Node31</title>
<g id="a_Node000031"><a xlink:href="c__wcf_2member_8cc.html" target="_top" xlink:title=" ">
<polygon fill="white" stroke="#666666" points="760.24,-19 611.24,-19 611.24,0 760.24,0 760.24,-19"/>
<text text-anchor="middle" x="685.74" y="-7" font-family="Helvetica,sans-Serif" font-size="10.00">client/src/c_wcf/member.cc</text>
</a>
</g>
</g>
<!-- Node28&#45;&gt;Node31 -->
<g id="edge36_Node000028_Node000031" class="edge">
<title>Node28&#45;&gt;Node31</title>
<g id="a_edge36_Node000028_Node000031"><a xlink:title=" ">
<path fill="none" stroke="#63b8ff" d="M736.83,-48.82C723.38,-38.73 707.81,-27.05 697.43,-19.27"/>
<polygon fill="#63b8ff" stroke="#63b8ff" points="734.76,-51.64 744.86,-54.84 738.96,-46.04 734.76,-51.64"/>
</a>
</g>
</g>
<!-- Node32 -->
<g id="Node000032" class="node">
<title>Node32</title>
<g id="a_Node000032"><a xlink:href="c__wcf_2text_8cc.html" target="_top" xlink:title=" ">
<polygon fill="white" stroke="#666666" points="906.74,-19 778.74,-19 778.74,0 906.74,0 906.74,-19"/>
<text text-anchor="middle" x="842.74" y="-7" font-family="Helvetica,sans-Serif" font-size="10.00">client/src/c_wcf/text.cc</text>
</a>
</g>
</g>
<!-- Node28&#45;&gt;Node32 -->
<g id="edge37_Node000028_Node000032" class="edge">
<title>Node28&#45;&gt;Node32</title>
<g id="a_edge37_Node000028_Node000032"><a xlink:title=" ">
<path fill="none" stroke="#63b8ff" d="M791,-48.82C804.61,-38.73 820.38,-27.05 830.9,-19.27"/>
<polygon fill="#63b8ff" stroke="#63b8ff" points="788.82,-46.07 782.86,-54.84 792.98,-51.7 788.82,-46.07"/>
</a>
</g>
</g>
<!-- Node33 -->
<g id="Node000033" class="node">
<title>Node33</title>
<g id="a_Node000033"><a xlink:href="c__wcf_2value_8cc.html" target="_top" xlink:title=" ">
<polygon fill="white" stroke="#666666" points="1060.24,-19 925.24,-19 925.24,0 1060.24,0 1060.24,-19"/>
<text text-anchor="middle" x="992.74" y="-7" font-family="Helvetica,sans-Serif" font-size="10.00">client/src/c_wcf/value.cc</text>
</a>
</g>
</g>
<!-- Node28&#45;&gt;Node33 -->
<g id="edge38_Node000028_Node000033" class="edge">
<title>Node28&#45;&gt;Node33</title>
<g id="a_edge38_Node000028_Node000033"><a xlink:title=" ">
<path fill="none" stroke="#63b8ff" d="M823.83,-53.65C867.06,-42.6 923.77,-28.12 959.24,-19.06"/>
<polygon fill="#63b8ff" stroke="#63b8ff" points="822.82,-50.3 813.99,-56.16 824.55,-57.08 822.82,-50.3"/>
</a>
</g>
</g>
<!-- Node34 -->
<g id="Node000034" class="node">
<title>Node34</title>
<g id="a_Node000034"><a xlink:href="c__wcf_2view_8cc.html" target="_top" xlink:title=" ">
<polygon fill="white" stroke="#666666" points="1209.24,-19 1078.24,-19 1078.24,0 1209.24,0 1209.24,-19"/>
<text text-anchor="middle" x="1143.74" y="-7" font-family="Helvetica,sans-Serif" font-size="10.00">client/src/c_wcf/view.cc</text>
</a>
</g>
</g>
<!-- Node28&#45;&gt;Node34 -->
<g id="edge39_Node000028_Node000034" class="edge">
<title>Node28&#45;&gt;Node34</title>
<g id="a_edge39_Node000028_Node000034"><a xlink:title=" ">
<path fill="none" stroke="#63b8ff" d="M823.73,-59.77C896.38,-48.58 1017.77,-29.89 1088.31,-19.03"/>
<polygon fill="#63b8ff" stroke="#63b8ff" points="823.16,-56.31 813.81,-61.29 824.22,-63.23 823.16,-56.31"/>
</a>
</g>
</g>
</g>
</svg>
