<?xml version="1.0" encoding="UTF-8" standalone="no"?>
<!DOCTYPE svg PUBLIC "-//W3C//DTD SVG 1.1//EN"
 "http://www.w3.org/Graphics/SVG/1.1/DTD/svg11.dtd">
<!-- Generated by graphviz version 2.43.0 (0)
 -->
<!-- Title: client/include/webcface/robot_model.h Pages: 1 -->
<svg width="817pt" height="170pt"
 viewBox="0.00 0.00 817.00 170.00" xmlns="http://www.w3.org/2000/svg" xmlns:xlink="http://www.w3.org/1999/xlink">
<g id="graph0" class="graph" transform="scale(1 1) rotate(0) translate(4 166)">
<title>client/include/webcface/robot_model.h</title>
<!-- Node1 -->
<g id="Node000001" class="node">
<title>Node1</title>
<g id="a_Node000001"><a xlink:title=" ">
<polygon fill="#999999" stroke="#666666" points="551,-162 420,-162 420,-132 551,-132 551,-162"/>
<text text-anchor="start" x="428" y="-150" font-family="Helvetica,sans-Serif" font-size="10.00">client/include/webcface</text>
<text text-anchor="middle" x="485.5" y="-139" font-family="Helvetica,sans-Serif" font-size="10.00">/robot_model.h</text>
</a>
</g>
</g>
<!-- Node2 -->
<g id="Node000002" class="node">
<title>Node2</title>
<g id="a_Node000002"><a xlink:href="client_2include_2webcface_2canvas3d_8h.html" target="_top" xlink:title=" ">
<polygon fill="white" stroke="#666666" points="421,-96 290,-96 290,-66 421,-66 421,-96"/>
<text text-anchor="start" x="298" y="-84" font-family="Helvetica,sans-Serif" font-size="10.00">client/include/webcface</text>
<text text-anchor="middle" x="355.5" y="-73" font-family="Helvetica,sans-Serif" font-size="10.00">/canvas3d.h</text>
</a>
</g>
</g>
<!-- Node1&#45;&gt;Node2 -->
<g id="edge1_Node000001_Node000002" class="edge">
<title>Node1&#45;&gt;Node2</title>
<g id="a_edge1_Node000001_Node000002"><a xlink:title=" ">
<path fill="none" stroke="#63b8ff" d="M447.95,-127.51C427.55,-117.47 402.74,-105.26 383.96,-96.01"/>
<polygon fill="#63b8ff" stroke="#63b8ff" points="446.45,-130.68 456.97,-131.95 449.55,-124.4 446.45,-130.68"/>
</a>
</g>
</g>
<!-- Node3 -->
<g id="Node000003" class="node">
<title>Node3</title>
<g id="a_Node000003"><a xlink:href="webcface_8h.html" target="_top" xlink:title=" ">
<polygon fill="white" stroke="#666666" points="131,-30 0,-30 0,0 131,0 131,-30"/>
<text text-anchor="start" x="8" y="-18" font-family="Helvetica,sans-Serif" font-size="10.00">client/include/webcface</text>
<text text-anchor="middle" x="65.5" y="-7" font-family="Helvetica,sans-Serif" font-size="10.00">/webcface.h</text>
</a>
</g>
</g>
<!-- Node1&#45;&gt;Node3 -->
<g id="edge7_Node000001_Node000003" class="edge">
<title>Node1&#45;&gt;Node3</title>
<g id="a_edge7_Node000001_Node000003"><a xlink:title=" ">
<path fill="none" stroke="#63b8ff" d="M409.68,-129.74C370.76,-120.83 322.78,-108.97 280.5,-96 215.58,-76.08 141.77,-47.21 99.7,-30.14"/>
<polygon fill="#63b8ff" stroke="#63b8ff" points="409.35,-133.25 419.88,-132.05 410.9,-126.43 409.35,-133.25"/>
</a>
</g>
</g>
<!-- Node6 -->
<g id="Node000006" class="node">
<title>Node6</title>
<g id="a_Node000006"><a xlink:href="field_8cc.html" target="_top" xlink:title=" ">
<polygon fill="white" stroke="#666666" points="524.5,-24.5 426.5,-24.5 426.5,-5.5 524.5,-5.5 524.5,-24.5"/>
<text text-anchor="middle" x="475.5" y="-12.5" font-family="Helvetica,sans-Serif" font-size="10.00">client/src/field.cc</text>
</a>
</g>
</g>
<!-- Node1&#45;&gt;Node6 -->
<g id="edge9_Node000001_Node000006" class="edge">
<title>Node1&#45;&gt;Node6</title>
<g id="a_edge9_Node000001_Node000006"><a xlink:title=" ">
<path fill="none" stroke="#63b8ff" d="M483.62,-121.57C481.36,-92.17 477.68,-44.31 476.17,-24.75"/>
<polygon fill="#63b8ff" stroke="#63b8ff" points="480.15,-122.14 484.41,-131.84 487.13,-121.6 480.15,-122.14"/>
</a>
</g>
</g>
<!-- Node7 -->
<g id="Node000007" class="node">
<title>Node7</title>
<g id="a_Node000007"><a xlink:href="member_8cc.html" target="_top" xlink:title=" ">
<polygon fill="white" stroke="#666666" points="660.5,-24.5 542.5,-24.5 542.5,-5.5 660.5,-5.5 660.5,-24.5"/>
<text text-anchor="middle" x="601.5" y="-12.5" font-family="Helvetica,sans-Serif" font-size="10.00">client/src/member.cc</text>
</a>
</g>
</g>
<!-- Node1&#45;&gt;Node7 -->
<g id="edge10_Node000001_Node000007" class="edge">
<title>Node1&#45;&gt;Node7</title>
<g id="a_edge10_Node000001_Node000007"><a xlink:title=" ">
<path fill="none" stroke="#63b8ff" d="M493.22,-122.17C499.61,-105.13 510,-82.39 524.5,-66 540.87,-47.5 565.64,-33.07 582.64,-24.57"/>
<polygon fill="#63b8ff" stroke="#63b8ff" points="489.8,-121.35 489.75,-131.94 496.39,-123.69 489.8,-121.35"/>
</a>
</g>
</g>
<!-- Node8 -->
<g id="Node000008" class="node">
<title>Node8</title>
<g id="a_Node000008"><a xlink:href="component__canvas3d_8cc.html" target="_top" xlink:title=" ">
<polygon fill="white" stroke="#666666" points="652,-96 533,-96 533,-66 652,-66 652,-96"/>
<text text-anchor="start" x="541" y="-84" font-family="Helvetica,sans-Serif" font-size="10.00">client/src/component</text>
<text text-anchor="middle" x="592.5" y="-73" font-family="Helvetica,sans-Serif" font-size="10.00">_canvas3d.cc</text>
</a>
</g>
</g>
<!-- Node1&#45;&gt;Node8 -->
<g id="edge8_Node000001_Node000008" class="edge">
<title>Node1&#45;&gt;Node8</title>
<g id="a_edge8_Node000001_Node000008"><a xlink:title=" ">
<path fill="none" stroke="#63b8ff" d="M517.78,-126.69C534.29,-116.82 554.03,-105.01 569.07,-96.01"/>
<polygon fill="#63b8ff" stroke="#63b8ff" points="515.77,-123.82 508.98,-131.95 519.36,-129.83 515.77,-123.82"/>
</a>
</g>
</g>
<!-- Node9 -->
<g id="Node000009" class="node">
<title>Node9</title>
<g id="a_Node000009"><a xlink:href="robot__model_8cc.html" target="_top" xlink:title=" ">
<polygon fill="white" stroke="#666666" points="809,-90.5 670,-90.5 670,-71.5 809,-71.5 809,-90.5"/>
<text text-anchor="middle" x="739.5" y="-78.5" font-family="Helvetica,sans-Serif" font-size="10.00">client/src/robot_model.cc</text>
</a>
</g>
</g>
<!-- Node1&#45;&gt;Node9 -->
<g id="edge11_Node000001_Node000009" class="edge">
<title>Node1&#45;&gt;Node9</title>
<g id="a_edge11_Node000001_Node000009"><a xlink:title=" ">
<path fill="none" stroke="#63b8ff" d="M551.21,-129.44C600.66,-116.98 666.41,-100.42 705.7,-90.52"/>
<polygon fill="#63b8ff" stroke="#63b8ff" points="550.08,-126.12 541.24,-131.95 551.79,-132.91 550.08,-126.12"/>
</a>
</g>
</g>
<!-- Node2&#45;&gt;Node3 -->
<g id="edge2_Node000002_Node000003" class="edge">
<title>Node2&#45;&gt;Node3</title>
<g id="a_edge2_Node000002_Node000003"><a xlink:title=" ">
<path fill="none" stroke="#63b8ff" d="M282,-63.78C234.79,-53.36 174.1,-39.97 128.99,-30.01"/>
<polygon fill="#63b8ff" stroke="#63b8ff" points="281.34,-67.22 291.86,-65.95 282.85,-60.38 281.34,-67.22"/>
</a>
</g>
</g>
<!-- Node4 -->
<g id="Node000004" class="node">
<title>Node4</title>
<g id="a_Node000004"><a xlink:href="canvas3d_8cc.html" target="_top" xlink:title=" ">
<polygon fill="white" stroke="#666666" points="408.5,-24.5 284.5,-24.5 284.5,-5.5 408.5,-5.5 408.5,-24.5"/>
<text text-anchor="middle" x="346.5" y="-12.5" font-family="Helvetica,sans-Serif" font-size="10.00">client/src/canvas3d.cc</text>
</a>
</g>
</g>
<!-- Node2&#45;&gt;Node4 -->
<g id="edge3_Node000002_Node000004" class="edge">
<title>Node2&#45;&gt;Node4</title>
<g id="a_edge3_Node000002_Node000004"><a xlink:title=" ">
<path fill="none" stroke="#63b8ff" d="M352.07,-55.6C350.55,-44.8 348.86,-32.78 347.74,-24.84"/>
<polygon fill="#63b8ff" stroke="#63b8ff" points="348.64,-56.38 353.5,-65.8 355.58,-55.41 348.64,-56.38"/>
</a>
</g>
</g>
<!-- Node5 -->
<g id="Node000005" class="node">
<title>Node5</title>
<g id="a_Node000005"><a xlink:href="client__msg__recv_8cc.html" target="_top" xlink:title=" ">
<polygon fill="white" stroke="#666666" points="266,-30 149,-30 149,0 266,0 266,-30"/>
<text text-anchor="start" x="157" y="-18" font-family="Helvetica,sans-Serif" font-size="10.00">client/src/client_msg</text>
<text text-anchor="middle" x="207.5" y="-7" font-family="Helvetica,sans-Serif" font-size="10.00">_recv.cc</text>
</a>
</g>
</g>
<!-- Node2&#45;&gt;Node5 -->
<g id="edge4_Node000002_Node000005" class="edge">
<title>Node2&#45;&gt;Node5</title>
<g id="a_edge4_Node000002_Node000005"><a xlink:title=" ">
<path fill="none" stroke="#63b8ff" d="M313.69,-61.92C290.3,-51.8 261.58,-39.38 239.9,-30.01"/>
<polygon fill="#63b8ff" stroke="#63b8ff" points="312.45,-65.2 323.02,-65.95 315.23,-58.77 312.45,-65.2"/>
</a>
</g>
</g>
<!-- Node2&#45;&gt;Node6 -->
<g id="edge5_Node000002_Node000006" class="edge">
<title>Node2&#45;&gt;Node6</title>
<g id="a_edge5_Node000002_Node000006"><a xlink:title=" ">
<path fill="none" stroke="#63b8ff" d="M390.87,-61.14C413.62,-49 442.09,-33.82 459.53,-24.52"/>
<polygon fill="#63b8ff" stroke="#63b8ff" points="389.01,-58.16 381.83,-65.95 392.31,-64.34 389.01,-58.16"/>
</a>
</g>
</g>
<!-- Node2&#45;&gt;Node7 -->
<g id="edge6_Node000002_Node000007" class="edge">
<title>Node2&#45;&gt;Node7</title>
<g id="a_edge6_Node000002_Node000007"><a xlink:title=" ">
<path fill="none" stroke="#63b8ff" d="M419.45,-63.36C467.3,-50.91 530.79,-34.4 568.76,-24.52"/>
<polygon fill="#63b8ff" stroke="#63b8ff" points="418.28,-60.05 409.49,-65.95 420.04,-66.82 418.28,-60.05"/>
</a>
</g>
</g>
</g>
</svg>
