<?xml version="1.0" encoding="UTF-8" standalone="no"?>
<!DOCTYPE svg PUBLIC "-//W3C//DTD SVG 1.1//EN"
 "http://www.w3.org/Graphics/SVG/1.1/DTD/svg11.dtd">
<!-- Generated by graphviz version 2.43.0 (0)
 -->
<!-- Title: client/include/webcface/log.h Pages: 1 -->
<svg width="2555pt" height="291pt"
 viewBox="0.00 0.00 2555.00 291.00" xmlns="http://www.w3.org/2000/svg" xmlns:xlink="http://www.w3.org/1999/xlink">
<g id="graph0" class="graph" transform="scale(1 1) rotate(0) translate(4 287)">
<title>client/include/webcface/log.h</title>
<!-- Node1 -->
<g id="Node000001" class="node">
<title>Node1</title>
<g id="a_Node000001"><a xlink:title=" ">
<polygon fill="#999999" stroke="#666666" points="1965,-283 1834,-283 1834,-253 1965,-253 1965,-283"/>
<text text-anchor="start" x="1842" y="-271" font-family="Helvetica,sans-Serif" font-size="10.00">client/include/webcface</text>
<text text-anchor="middle" x="1899.5" y="-260" font-family="Helvetica,sans-Serif" font-size="10.00">/log.h</text>
</a>
</g>
</g>
<!-- Node2 -->
<g id="Node000002" class="node">
<title>Node2</title>
<g id="a_Node000002"><a xlink:href="client__internal_8h.html" target="_top" xlink:title=" ">
<polygon fill="white" stroke="#666666" points="1463,-151 1324,-151 1324,-121 1463,-121 1463,-151"/>
<text text-anchor="start" x="1332" y="-139" font-family="Helvetica,sans-Serif" font-size="10.00">client/include/webcface</text>
<text text-anchor="middle" x="1393.5" y="-128" font-family="Helvetica,sans-Serif" font-size="10.00">/internal/client_internal.h</text>
</a>
</g>
</g>
<!-- Node1&#45;&gt;Node2 -->
<g id="edge1_Node000001_Node000002" class="edge">
<title>Node1&#45;&gt;Node2</title>
<g id="a_edge1_Node000001_Node000002"><a xlink:title=" ">
<path fill="none" stroke="#63b8ff" d="M1835.15,-250.47C1734.72,-224.67 1542.5,-175.28 1448.29,-151.08"/>
<polygon fill="#63b8ff" stroke="#63b8ff" points="1834.31,-253.87 1844.87,-252.96 1836.05,-247.09 1834.31,-253.87"/>
</a>
</g>
</g>
<!-- Node8 -->
<g id="Node000008" class="node">
<title>Node8</title>
<g id="a_Node000008"><a xlink:href="client__msg__recv_8cc.html" target="_top" xlink:title=" ">
<polygon fill="white" stroke="#666666" points="117,-85 0,-85 0,-55 117,-55 117,-85"/>
<text text-anchor="start" x="8" y="-73" font-family="Helvetica,sans-Serif" font-size="10.00">client/src/client_msg</text>
<text text-anchor="middle" x="58.5" y="-62" font-family="Helvetica,sans-Serif" font-size="10.00">_recv.cc</text>
</a>
</g>
</g>
<!-- Node1&#45;&gt;Node8 -->
<g id="edge33_Node000001_Node000008" class="edge">
<title>Node1&#45;&gt;Node8</title>
<g id="a_edge33_Node000001_Node000008"><a xlink:title=" ">
<path fill="none" stroke="#63b8ff" d="M1823.75,-264.71C1666.65,-259.56 1294.03,-245.23 982.5,-217 750.49,-195.98 692.49,-188.14 462.5,-151 338.97,-131.05 195.54,-100.99 117.14,-83.97"/>
<polygon fill="#63b8ff" stroke="#63b8ff" points="1823.67,-268.21 1833.78,-265.04 1823.9,-261.21 1823.67,-268.21"/>
</a>
</g>
</g>
<!-- Node12 -->
<g id="Node000012" class="node">
<title>Node12</title>
<g id="a_Node000012"><a xlink:href="field_8cc.html" target="_top" xlink:title=" ">
<polygon fill="white" stroke="#666666" points="233.5,-79.5 135.5,-79.5 135.5,-60.5 233.5,-60.5 233.5,-79.5"/>
<text text-anchor="middle" x="184.5" y="-67.5" font-family="Helvetica,sans-Serif" font-size="10.00">client/src/field.cc</text>
</a>
</g>
</g>
<!-- Node1&#45;&gt;Node12 -->
<g id="edge35_Node000001_Node000012" class="edge">
<title>Node1&#45;&gt;Node12</title>
<g id="a_edge35_Node000001_Node000012"><a xlink:title=" ">
<path fill="none" stroke="#63b8ff" d="M1823.77,-262.13C1588.14,-246.26 847.49,-190.8 242.5,-85 234.03,-83.52 224.96,-81.53 216.56,-79.51"/>
<polygon fill="#63b8ff" stroke="#63b8ff" points="1823.73,-265.64 1833.95,-262.82 1824.2,-258.66 1823.73,-265.64"/>
</a>
</g>
</g>
<!-- Node16 -->
<g id="Node000016" class="node">
<title>Node16</title>
<g id="a_Node000016"><a xlink:href="log_8cc.html" target="_top" xlink:title=" ">
<polygon fill="white" stroke="#666666" points="2313.5,-79.5 2221.5,-79.5 2221.5,-60.5 2313.5,-60.5 2313.5,-79.5"/>
<text text-anchor="middle" x="2267.5" y="-67.5" font-family="Helvetica,sans-Serif" font-size="10.00">client/src/log.cc</text>
</a>
</g>
</g>
<!-- Node1&#45;&gt;Node16 -->
<g id="edge36_Node000001_Node000016" class="edge">
<title>Node1&#45;&gt;Node16</title>
<g id="a_edge36_Node000001_Node000016"><a xlink:title=" ">
<path fill="none" stroke="#63b8ff" d="M1975.13,-254.31C2044.64,-239.45 2147.38,-209.1 2218.5,-151 2242.72,-131.22 2258.17,-96.11 2264.38,-79.79"/>
<polygon fill="#63b8ff" stroke="#63b8ff" points="1974.2,-250.92 1965.12,-256.39 1975.63,-257.78 1974.2,-250.92"/>
</a>
</g>
</g>
<!-- Node17 -->
<g id="Node000017" class="node">
<title>Node17</title>
<g id="a_Node000017"><a xlink:href="member_8cc.html" target="_top" xlink:title=" ">
<polygon fill="white" stroke="#666666" points="1949.5,-79.5 1831.5,-79.5 1831.5,-60.5 1949.5,-60.5 1949.5,-79.5"/>
<text text-anchor="middle" x="1890.5" y="-67.5" font-family="Helvetica,sans-Serif" font-size="10.00">client/src/member.cc</text>
</a>
</g>
</g>
<!-- Node1&#45;&gt;Node17 -->
<g id="edge37_Node000001_Node000017" class="edge">
<title>Node1&#45;&gt;Node17</title>
<g id="a_edge37_Node000001_Node000017"><a xlink:title=" ">
<path fill="none" stroke="#63b8ff" d="M1855.49,-247.69C1843.23,-240.01 1831.39,-229.88 1824.5,-217 1797.46,-166.48 1856.67,-102.73 1880.84,-79.75"/>
<polygon fill="#63b8ff" stroke="#63b8ff" points="1854.02,-250.88 1864.43,-252.85 1857.52,-244.82 1854.02,-250.88"/>
</a>
</g>
</g>
<!-- Node22 -->
<g id="Node000022" class="node">
<title>Node22</title>
<g id="a_Node000022"><a xlink:href="data__store2_8h.html" target="_top" xlink:title=" ">
<polygon fill="white" stroke="#666666" points="1965,-217 1834,-217 1834,-187 1965,-187 1965,-217"/>
<text text-anchor="start" x="1842" y="-205" font-family="Helvetica,sans-Serif" font-size="10.00">client/include/webcface</text>
<text text-anchor="middle" x="1899.5" y="-194" font-family="Helvetica,sans-Serif" font-size="10.00">/internal/data_store2.h</text>
</a>
</g>
</g>
<!-- Node1&#45;&gt;Node22 -->
<g id="edge23_Node000001_Node000022" class="edge">
<title>Node1&#45;&gt;Node22</title>
<g id="a_edge23_Node000001_Node000022"><a xlink:title=" ">
<path fill="none" stroke="#63b8ff" d="M1899.5,-242.54C1899.5,-233.96 1899.5,-224.61 1899.5,-217.16"/>
<polygon fill="#63b8ff" stroke="#63b8ff" points="1896,-242.8 1899.5,-252.8 1903,-242.8 1896,-242.8"/>
</a>
</g>
</g>
<!-- Node23 -->
<g id="Node000023" class="node">
<title>Node23</title>
<g id="a_Node000023"><a xlink:href="data__store2_8cc.html" target="_top" xlink:title=" ">
<polygon fill="white" stroke="#666666" points="2061,-145.5 1926,-145.5 1926,-126.5 2061,-126.5 2061,-145.5"/>
<text text-anchor="middle" x="1993.5" y="-133.5" font-family="Helvetica,sans-Serif" font-size="10.00">client/src/data_store2.cc</text>
</a>
</g>
</g>
<!-- Node1&#45;&gt;Node23 -->
<g id="edge34_Node000001_Node000023" class="edge">
<title>Node1&#45;&gt;Node23</title>
<g id="a_edge34_Node000001_Node000023"><a xlink:title=" ">
<path fill="none" stroke="#63b8ff" d="M1938.88,-247.87C1951.6,-239.93 1964.69,-229.59 1973.5,-217 1989.18,-194.6 1992.6,-161.09 1993.32,-145.52"/>
<polygon fill="#63b8ff" stroke="#63b8ff" points="1937.03,-244.89 1930.18,-252.98 1940.58,-250.93 1937.03,-244.89"/>
</a>
</g>
</g>
<!-- Node24 -->
<g id="Node000024" class="node">
<title>Node24</title>
<g id="a_Node000024"><a xlink:href="internal_2logger_8h.html" target="_top" xlink:title=" ">
<polygon fill="white" stroke="#666666" points="2210,-151 2079,-151 2079,-121 2210,-121 2210,-151"/>
<text text-anchor="start" x="2087" y="-139" font-family="Helvetica,sans-Serif" font-size="10.00">client/include/webcface</text>
<text text-anchor="middle" x="2144.5" y="-128" font-family="Helvetica,sans-Serif" font-size="10.00">/internal/logger.h</text>
</a>
</g>
</g>
<!-- Node1&#45;&gt;Node24 -->
<g id="edge27_Node000001_Node000024" class="edge">
<title>Node1&#45;&gt;Node24</title>
<g id="a_edge27_Node000001_Node000024"><a xlink:title=" ">
<path fill="none" stroke="#63b8ff" d="M1935.45,-248.14C1953.23,-238.8 1975.01,-227.33 1994.5,-217 2037.92,-193.99 2088.31,-167.07 2118.24,-151.06"/>
<polygon fill="#63b8ff" stroke="#63b8ff" points="1933.77,-245.07 1926.55,-252.81 1937.03,-251.26 1933.77,-245.07"/>
</a>
</g>
</g>
<!-- Node25 -->
<g id="Node000025" class="node">
<title>Node25</title>
<g id="a_Node000025"><a xlink:href="webcface_8h.html" target="_top" xlink:title=" ">
<polygon fill="white" stroke="#666666" points="2398,-217 2267,-217 2267,-187 2398,-187 2398,-217"/>
<text text-anchor="start" x="2275" y="-205" font-family="Helvetica,sans-Serif" font-size="10.00">client/include/webcface</text>
<text text-anchor="middle" x="2332.5" y="-194" font-family="Helvetica,sans-Serif" font-size="10.00">/webcface.h</text>
</a>
</g>
</g>
<!-- Node1&#45;&gt;Node25 -->
<g id="edge30_Node000001_Node000025" class="edge">
<title>Node1&#45;&gt;Node25</title>
<g id="a_edge30_Node000001_Node000025"><a xlink:title=" ">
<path fill="none" stroke="#63b8ff" d="M1975.58,-256.95C2047.14,-247.33 2157.23,-232.08 2252.5,-217 2257.1,-216.27 2261.84,-215.5 2266.61,-214.71"/>
<polygon fill="#63b8ff" stroke="#63b8ff" points="1974.75,-253.53 1965.31,-258.33 1975.68,-260.47 1974.75,-253.53"/>
</a>
</g>
</g>
<!-- Node3 -->
<g id="Node000003" class="node">
<title>Node3</title>
<g id="a_Node000003"><a xlink:href="client__ws_8h.html" target="_top" xlink:title=" ">
<polygon fill="white" stroke="#666666" points="1633,-85 1502,-85 1502,-55 1633,-55 1633,-85"/>
<text text-anchor="start" x="1510" y="-73" font-family="Helvetica,sans-Serif" font-size="10.00">client/include/webcface</text>
<text text-anchor="middle" x="1567.5" y="-62" font-family="Helvetica,sans-Serif" font-size="10.00">/internal/client_ws.h</text>
</a>
</g>
</g>
<!-- Node2&#45;&gt;Node3 -->
<g id="edge2_Node000002_Node000003" class="edge">
<title>Node2&#45;&gt;Node3</title>
<g id="a_edge2_Node000002_Node000003"><a xlink:title=" ">
<path fill="none" stroke="#63b8ff" d="M1441.2,-117.46C1468.96,-107.25 1503.47,-94.55 1529.4,-85.01"/>
<polygon fill="#63b8ff" stroke="#63b8ff" points="1439.86,-114.22 1431.69,-120.95 1442.28,-120.79 1439.86,-114.22"/>
</a>
</g>
</g>
<!-- Node4 -->
<g id="Node000004" class="node">
<title>Node4</title>
<g id="a_Node000004"><a xlink:href="client__threading_8cc.html" target="_top" xlink:title=" ">
<polygon fill="white" stroke="#666666" points="1566.5,-19 1410.5,-19 1410.5,0 1566.5,0 1566.5,-19"/>
<text text-anchor="middle" x="1488.5" y="-7" font-family="Helvetica,sans-Serif" font-size="10.00">client/src/client_threading.cc</text>
</a>
</g>
</g>
<!-- Node2&#45;&gt;Node4 -->
<g id="edge9_Node000002_Node000004" class="edge">
<title>Node2&#45;&gt;Node4</title>
<g id="a_edge9_Node000002_Node000004"><a xlink:title=" ">
<path fill="none" stroke="#63b8ff" d="M1423.73,-114.64C1434.43,-106.37 1445.93,-96.13 1454.5,-85 1470.63,-64.05 1481.27,-34.21 1485.88,-19.46"/>
<polygon fill="#63b8ff" stroke="#63b8ff" points="1421.33,-112.06 1415.39,-120.84 1425.51,-117.68 1421.33,-112.06"/>
</a>
</g>
</g>
<!-- Node5 -->
<g id="Node000005" class="node">
<title>Node5</title>
<g id="a_Node000005"><a xlink:href="client__ws_8cc.html" target="_top" xlink:title=" ">
<polygon fill="white" stroke="#666666" points="1715,-19 1592,-19 1592,0 1715,0 1715,-19"/>
<text text-anchor="middle" x="1653.5" y="-7" font-family="Helvetica,sans-Serif" font-size="10.00">client/src/client_ws.cc</text>
</a>
</g>
</g>
<!-- Node2&#45;&gt;Node5 -->
<g id="edge10_Node000002_Node000005" class="edge">
<title>Node2&#45;&gt;Node5</title>
<g id="a_edge10_Node000002_Node000005"><a xlink:title=" ">
<path fill="none" stroke="#63b8ff" d="M1473.23,-128.69C1536.7,-121.95 1618.56,-108.85 1641.5,-85 1658.75,-67.06 1657.01,-34.71 1654.96,-19.22"/>
<polygon fill="#63b8ff" stroke="#63b8ff" points="1472.81,-125.21 1463.21,-129.72 1473.52,-132.18 1472.81,-125.21"/>
</a>
</g>
</g>
<!-- Node6 -->
<g id="Node000006" class="node">
<title>Node6</title>
<g id="a_Node000006"><a xlink:href="canvas2d_8cc.html" target="_top" xlink:title=" ">
<polygon fill="white" stroke="#666666" points="1813.5,-79.5 1689.5,-79.5 1689.5,-60.5 1813.5,-60.5 1813.5,-79.5"/>
<text text-anchor="middle" x="1751.5" y="-67.5" font-family="Helvetica,sans-Serif" font-size="10.00">client/src/canvas2d.cc</text>
</a>
</g>
</g>
<!-- Node2&#45;&gt;Node6 -->
<g id="edge5_Node000002_Node000006" class="edge">
<title>Node2&#45;&gt;Node6</title>
<g id="a_edge5_Node000002_Node000006"><a xlink:title=" ">
<path fill="none" stroke="#63b8ff" d="M1473,-121.05C1529.51,-111.1 1607.19,-97.35 1675.5,-85 1685.14,-83.26 1695.46,-81.37 1705.29,-79.56"/>
<polygon fill="#63b8ff" stroke="#63b8ff" points="1472.3,-117.62 1463.06,-122.8 1473.51,-124.51 1472.3,-117.62"/>
</a>
</g>
</g>
<!-- Node7 -->
<g id="Node000007" class="node">
<title>Node7</title>
<g id="a_Node000007"><a xlink:href="canvas3d_8cc.html" target="_top" xlink:title=" ">
<polygon fill="white" stroke="#666666" points="375.5,-79.5 251.5,-79.5 251.5,-60.5 375.5,-60.5 375.5,-79.5"/>
<text text-anchor="middle" x="313.5" y="-67.5" font-family="Helvetica,sans-Serif" font-size="10.00">client/src/canvas3d.cc</text>
</a>
</g>
</g>
<!-- Node2&#45;&gt;Node7 -->
<g id="edge6_Node000002_Node000007" class="edge">
<title>Node2&#45;&gt;Node7</title>
<g id="a_edge6_Node000002_Node000007"><a xlink:title=" ">
<path fill="none" stroke="#63b8ff" d="M1313.34,-131.7C1090.75,-122.44 475.48,-96.16 384.5,-85 373.65,-83.67 361.98,-81.63 351.29,-79.51"/>
<polygon fill="#63b8ff" stroke="#63b8ff" points="1313.5,-135.21 1323.64,-132.13 1313.79,-128.21 1313.5,-135.21"/>
</a>
</g>
</g>
<!-- Node2&#45;&gt;Node8 -->
<g id="edge7_Node000002_Node000008" class="edge">
<title>Node2&#45;&gt;Node8</title>
<g id="a_edge7_Node000002_Node000008"><a xlink:title=" ">
<path fill="none" stroke="#63b8ff" d="M1313.62,-133.56C1073.05,-128.95 357.81,-113.18 126.5,-85 123.39,-84.62 120.21,-84.17 117.01,-83.68"/>
<polygon fill="#63b8ff" stroke="#63b8ff" points="1313.62,-137.06 1323.69,-133.75 1313.76,-130.06 1313.62,-137.06"/>
</a>
</g>
</g>
<!-- Node9 -->
<g id="Node000009" class="node">
<title>Node9</title>
<g id="a_Node000009"><a xlink:href="client__msg__sync_8cc.html" target="_top" xlink:title=" ">
<polygon fill="white" stroke="#666666" points="2203,-85 2086,-85 2086,-55 2203,-55 2203,-85"/>
<text text-anchor="start" x="2094" y="-73" font-family="Helvetica,sans-Serif" font-size="10.00">client/src/client_msg</text>
<text text-anchor="middle" x="2144.5" y="-62" font-family="Helvetica,sans-Serif" font-size="10.00">_sync.cc</text>
</a>
</g>
</g>
<!-- Node2&#45;&gt;Node9 -->
<g id="edge8_Node000002_Node000009" class="edge">
<title>Node2&#45;&gt;Node9</title>
<g id="a_edge8_Node000002_Node000009"><a xlink:title=" ">
<path fill="none" stroke="#63b8ff" d="M1473.23,-132.52C1601.05,-127.8 1859.51,-115.15 2076.5,-85 2079.6,-84.57 2082.78,-84.08 2085.98,-83.55"/>
<polygon fill="#63b8ff" stroke="#63b8ff" points="1473,-129.03 1463.13,-132.89 1473.25,-136.03 1473,-129.03"/>
</a>
</g>
</g>
<!-- Node10 -->
<g id="Node000010" class="node">
<title>Node10</title>
<g id="a_Node000010"><a xlink:href="component__canvas2d_8cc.html" target="_top" xlink:title=" ">
<polygon fill="white" stroke="#666666" points="513,-85 394,-85 394,-55 513,-55 513,-85"/>
<text text-anchor="start" x="402" y="-73" font-family="Helvetica,sans-Serif" font-size="10.00">client/src/component</text>
<text text-anchor="middle" x="453.5" y="-62" font-family="Helvetica,sans-Serif" font-size="10.00">_canvas2d.cc</text>
</a>
</g>
</g>
<!-- Node2&#45;&gt;Node10 -->
<g id="edge11_Node000002_Node000010" class="edge">
<title>Node2&#45;&gt;Node10</title>
<g id="a_edge11_Node000002_Node000010"><a xlink:title=" ">
<path fill="none" stroke="#63b8ff" d="M1313.56,-131.91C1128.18,-124.5 673.31,-104.87 521.5,-85 518.75,-84.64 515.95,-84.23 513.12,-83.79"/>
<polygon fill="#63b8ff" stroke="#63b8ff" points="1313.64,-135.42 1323.78,-132.32 1313.92,-128.42 1313.64,-135.42"/>
</a>
</g>
</g>
<!-- Node11 -->
<g id="Node000011" class="node">
<title>Node11</title>
<g id="a_Node000011"><a xlink:href="component__view_8cc.html" target="_top" xlink:title=" ">
<polygon fill="white" stroke="#666666" points="650,-85 531,-85 531,-55 650,-55 650,-85"/>
<text text-anchor="start" x="539" y="-73" font-family="Helvetica,sans-Serif" font-size="10.00">client/src/component</text>
<text text-anchor="middle" x="590.5" y="-62" font-family="Helvetica,sans-Serif" font-size="10.00">_view.cc</text>
</a>
</g>
</g>
<!-- Node2&#45;&gt;Node11 -->
<g id="edge12_Node000002_Node000011" class="edge">
<title>Node2&#45;&gt;Node11</title>
<g id="a_edge12_Node000002_Node000011"><a xlink:title=" ">
<path fill="none" stroke="#63b8ff" d="M1313.61,-133.01C1178.39,-128.88 896.05,-116.91 659.5,-85 656.47,-84.59 653.38,-84.13 650.26,-83.63"/>
<polygon fill="#63b8ff" stroke="#63b8ff" points="1313.77,-136.52 1323.87,-133.32 1313.98,-129.52 1313.77,-136.52"/>
</a>
</g>
</g>
<!-- Node2&#45;&gt;Node12 -->
<g id="edge13_Node000002_Node000012" class="edge">
<title>Node2&#45;&gt;Node12</title>
<g id="a_edge13_Node000002_Node000012"><a xlink:title=" ">
<path fill="none" stroke="#63b8ff" d="M1313.81,-131.96C1061.78,-122.3 295.4,-92.46 242.5,-85 233.47,-83.73 223.8,-81.67 214.99,-79.53"/>
<polygon fill="#63b8ff" stroke="#63b8ff" points="1313.87,-135.47 1323.99,-132.35 1314.14,-128.47 1313.87,-135.47"/>
</a>
</g>
</g>
<!-- Node13 -->
<g id="Node000013" class="node">
<title>Node13</title>
<g id="a_Node000013"><a xlink:href="func_8cc.html" target="_top" xlink:title=" ">
<polygon fill="white" stroke="#666666" points="766.5,-79.5 668.5,-79.5 668.5,-60.5 766.5,-60.5 766.5,-79.5"/>
<text text-anchor="middle" x="717.5" y="-67.5" font-family="Helvetica,sans-Serif" font-size="10.00">client/src/func.cc</text>
</a>
</g>
</g>
<!-- Node2&#45;&gt;Node13 -->
<g id="edge14_Node000002_Node000013" class="edge">
<title>Node2&#45;&gt;Node13</title>
<g id="a_edge14_Node000002_Node000013"><a xlink:title=" ">
<path fill="none" stroke="#63b8ff" d="M1313.51,-132.52C1195.25,-127.94 967.08,-115.68 775.5,-85 766.81,-83.61 757.49,-81.6 748.93,-79.53"/>
<polygon fill="#63b8ff" stroke="#63b8ff" points="1313.44,-136.02 1323.57,-132.9 1313.71,-129.02 1313.44,-136.02"/>
</a>
</g>
</g>
<!-- Node14 -->
<g id="Node000014" class="node">
<title>Node14</title>
<g id="a_Node000014"><a xlink:href="func__listener_8cc.html" target="_top" xlink:title=" ">
<polygon fill="white" stroke="#666666" points="924.5,-79.5 784.5,-79.5 784.5,-60.5 924.5,-60.5 924.5,-79.5"/>
<text text-anchor="middle" x="854.5" y="-67.5" font-family="Helvetica,sans-Serif" font-size="10.00">client/src/func_listener.cc</text>
</a>
</g>
</g>
<!-- Node2&#45;&gt;Node14 -->
<g id="edge15_Node000002_Node000014" class="edge">
<title>Node2&#45;&gt;Node14</title>
<g id="a_edge15_Node000002_Node000014"><a xlink:title=" ">
<path fill="none" stroke="#63b8ff" d="M1313.9,-127.98C1222.03,-119.51 1066.49,-103.99 933.5,-85 922.47,-83.42 910.62,-81.47 899.54,-79.52"/>
<polygon fill="#63b8ff" stroke="#63b8ff" points="1313.68,-131.48 1323.96,-128.91 1314.32,-124.51 1313.68,-131.48"/>
</a>
</g>
</g>
<!-- Node15 -->
<g id="Node000015" class="node">
<title>Node15</title>
<g id="a_Node000015"><a xlink:href="image_8cc.html" target="_top" xlink:title=" ">
<polygon fill="white" stroke="#666666" points="1050.5,-79.5 942.5,-79.5 942.5,-60.5 1050.5,-60.5 1050.5,-79.5"/>
<text text-anchor="middle" x="996.5" y="-67.5" font-family="Helvetica,sans-Serif" font-size="10.00">client/src/image.cc</text>
</a>
</g>
</g>
<!-- Node2&#45;&gt;Node15 -->
<g id="edge16_Node000002_Node000015" class="edge">
<title>Node2&#45;&gt;Node15</title>
<g id="a_edge16_Node000002_Node000015"><a xlink:title=" ">
<path fill="none" stroke="#63b8ff" d="M1313.67,-124.65C1245.84,-115.47 1146,-101.06 1059.5,-85 1050.8,-83.38 1041.47,-81.43 1032.72,-79.51"/>
<polygon fill="#63b8ff" stroke="#63b8ff" points="1313.48,-128.16 1323.86,-126.02 1314.41,-121.22 1313.48,-128.16"/>
</a>
</g>
</g>
<!-- Node2&#45;&gt;Node16 -->
<g id="edge17_Node000002_Node000016" class="edge">
<title>Node2&#45;&gt;Node16</title>
<g id="a_edge17_Node000002_Node000016"><a xlink:title=" ">
<path fill="none" stroke="#63b8ff" d="M1473.45,-134.97C1620.46,-133.85 1943.21,-126.38 2211.5,-85 2220.12,-83.67 2229.34,-81.63 2237.77,-79.51"/>
<polygon fill="#63b8ff" stroke="#63b8ff" points="1473.15,-131.48 1463.18,-135.04 1473.2,-138.48 1473.15,-131.48"/>
</a>
</g>
</g>
<!-- Node2&#45;&gt;Node17 -->
<g id="edge18_Node000002_Node000017" class="edge">
<title>Node2&#45;&gt;Node17</title>
<g id="a_edge18_Node000002_Node000017"><a xlink:title=" ">
<path fill="none" stroke="#63b8ff" d="M1473.22,-127.8C1559.58,-119.52 1701.26,-104.51 1822.5,-85 1832.14,-83.45 1842.49,-81.48 1852.13,-79.51"/>
<polygon fill="#63b8ff" stroke="#63b8ff" points="1472.85,-124.32 1463.23,-128.75 1473.52,-131.29 1472.85,-124.32"/>
</a>
</g>
</g>
<!-- Node18 -->
<g id="Node000018" class="node">
<title>Node18</title>
<g id="a_Node000018"><a xlink:href="robot__model_8cc.html" target="_top" xlink:title=" ">
<polygon fill="white" stroke="#666666" points="1208,-79.5 1069,-79.5 1069,-60.5 1208,-60.5 1208,-79.5"/>
<text text-anchor="middle" x="1138.5" y="-67.5" font-family="Helvetica,sans-Serif" font-size="10.00">client/src/robot_model.cc</text>
</a>
</g>
</g>
<!-- Node2&#45;&gt;Node18 -->
<g id="edge19_Node000002_Node000018" class="edge">
<title>Node2&#45;&gt;Node18</title>
<g id="a_edge19_Node000002_Node000018"><a xlink:title=" ">
<path fill="none" stroke="#63b8ff" d="M1327.84,-118.52C1278.16,-106.05 1211.96,-89.44 1172.44,-79.52"/>
<polygon fill="#63b8ff" stroke="#63b8ff" points="1326.99,-121.92 1337.54,-120.95 1328.69,-115.13 1326.99,-121.92"/>
</a>
</g>
</g>
<!-- Node19 -->
<g id="Node000019" class="node">
<title>Node19</title>
<g id="a_Node000019"><a xlink:href="text_8cc.html" target="_top" xlink:title=" ">
<polygon fill="white" stroke="#666666" points="1323,-79.5 1226,-79.5 1226,-60.5 1323,-60.5 1323,-79.5"/>
<text text-anchor="middle" x="1274.5" y="-67.5" font-family="Helvetica,sans-Serif" font-size="10.00">client/src/text.cc</text>
</a>
</g>
</g>
<!-- Node2&#45;&gt;Node19 -->
<g id="edge20_Node000002_Node000019" class="edge">
<title>Node2&#45;&gt;Node19</title>
<g id="a_edge20_Node000002_Node000019"><a xlink:title=" ">
<path fill="none" stroke="#63b8ff" d="M1358.43,-116.14C1335.86,-104 1307.63,-88.82 1290.34,-79.52"/>
<polygon fill="#63b8ff" stroke="#63b8ff" points="1356.92,-119.3 1367.38,-120.95 1360.24,-113.14 1356.92,-119.3"/>
</a>
</g>
</g>
<!-- Node20 -->
<g id="Node000020" class="node">
<title>Node20</title>
<g id="a_Node000020"><a xlink:href="value_8cc.html" target="_top" xlink:title=" ">
<polygon fill="white" stroke="#666666" points="1445.5,-79.5 1341.5,-79.5 1341.5,-60.5 1445.5,-60.5 1445.5,-79.5"/>
<text text-anchor="middle" x="1393.5" y="-67.5" font-family="Helvetica,sans-Serif" font-size="10.00">client/src/value.cc</text>
</a>
</g>
</g>
<!-- Node2&#45;&gt;Node20 -->
<g id="edge21_Node000002_Node000020" class="edge">
<title>Node2&#45;&gt;Node20</title>
<g id="a_edge21_Node000002_Node000020"><a xlink:title=" ">
<path fill="none" stroke="#63b8ff" d="M1393.5,-110.6C1393.5,-99.8 1393.5,-87.78 1393.5,-79.84"/>
<polygon fill="#63b8ff" stroke="#63b8ff" points="1390,-110.8 1393.5,-120.8 1397,-110.8 1390,-110.8"/>
</a>
</g>
</g>
<!-- Node21 -->
<g id="Node000021" class="node">
<title>Node21</title>
<g id="a_Node000021"><a xlink:href="view_8cc.html" target="_top" xlink:title=" ">
<polygon fill="white" stroke="#666666" points="2067.5,-79.5 1967.5,-79.5 1967.5,-60.5 2067.5,-60.5 2067.5,-79.5"/>
<text text-anchor="middle" x="2017.5" y="-67.5" font-family="Helvetica,sans-Serif" font-size="10.00">client/src/view.cc</text>
</a>
</g>
</g>
<!-- Node2&#45;&gt;Node21 -->
<g id="edge22_Node000002_Node000021" class="edge">
<title>Node2&#45;&gt;Node21</title>
<g id="a_edge22_Node000002_Node000021"><a xlink:title=" ">
<path fill="none" stroke="#63b8ff" d="M1473.05,-131.59C1582.83,-126.07 1786.71,-112.83 1958.5,-85 1967.23,-83.59 1976.58,-81.59 1985.21,-79.55"/>
<polygon fill="#63b8ff" stroke="#63b8ff" points="1472.86,-128.1 1463.05,-132.09 1473.21,-135.09 1472.86,-128.1"/>
</a>
</g>
</g>
<!-- Node3&#45;&gt;Node4 -->
<g id="edge3_Node000003_Node000004" class="edge">
<title>Node3&#45;&gt;Node4</title>
<g id="a_edge3_Node000003_Node000004"><a xlink:title=" ">
<path fill="none" stroke="#63b8ff" d="M1540.24,-48.82C1526.63,-38.73 1510.85,-27.05 1500.34,-19.27"/>
<polygon fill="#63b8ff" stroke="#63b8ff" points="1538.26,-51.7 1548.38,-54.84 1542.42,-46.07 1538.26,-51.7"/>
</a>
</g>
</g>
<!-- Node3&#45;&gt;Node5 -->
<g id="edge4_Node000003_Node000005" class="edge">
<title>Node3&#45;&gt;Node5</title>
<g id="a_edge4_Node000003_Node000005"><a xlink:title=" ">
<path fill="none" stroke="#63b8ff" d="M1596.81,-49.06C1611.82,-38.85 1629.32,-26.95 1640.87,-19.09"/>
<polygon fill="#63b8ff" stroke="#63b8ff" points="1594.62,-46.32 1588.32,-54.84 1598.56,-52.11 1594.62,-46.32"/>
</a>
</g>
</g>
<!-- Node22&#45;&gt;Node2 -->
<g id="edge24_Node000022_Node000002" class="edge">
<title>Node22&#45;&gt;Node2</title>
<g id="a_edge24_Node000022_Node000002"><a xlink:title=" ">
<path fill="none" stroke="#63b8ff" d="M1823.77,-191.42C1726.12,-179.07 1557.63,-157.76 1463.07,-145.8"/>
<polygon fill="#63b8ff" stroke="#63b8ff" points="1823.51,-194.92 1833.87,-192.7 1824.39,-187.97 1823.51,-194.92"/>
</a>
</g>
</g>
<!-- Node22&#45;&gt;Node21 -->
<g id="edge26_Node000022_Node000021" class="edge">
<title>Node22&#45;&gt;Node21</title>
<g id="a_edge26_Node000022_Node000021"><a xlink:title=" ">
<path fill="none" stroke="#63b8ff" d="M1899.29,-176.38C1900.35,-159.24 1904.28,-136.73 1916.5,-121 1932.94,-99.83 1960.71,-87 1982.97,-79.64"/>
<polygon fill="#63b8ff" stroke="#63b8ff" points="1895.78,-176.63 1898.95,-186.74 1902.78,-176.86 1895.78,-176.63"/>
</a>
</g>
</g>
<!-- Node22&#45;&gt;Node23 -->
<g id="edge25_Node000022_Node000023" class="edge">
<title>Node22&#45;&gt;Node23</title>
<g id="a_edge25_Node000022_Node000023"><a xlink:title=" ">
<path fill="none" stroke="#63b8ff" d="M1929.06,-180.87C1946.46,-169.03 1967.58,-154.65 1980.78,-145.66"/>
<polygon fill="#63b8ff" stroke="#63b8ff" points="1926.66,-178.28 1920.36,-186.8 1930.6,-184.06 1926.66,-178.28"/>
</a>
</g>
</g>
<!-- Node24&#45;&gt;Node9 -->
<g id="edge28_Node000024_Node000009" class="edge">
<title>Node24&#45;&gt;Node9</title>
<g id="a_edge28_Node000024_Node000009"><a xlink:title=" ">
<path fill="none" stroke="#63b8ff" d="M2144.5,-110.54C2144.5,-101.96 2144.5,-92.61 2144.5,-85.16"/>
<polygon fill="#63b8ff" stroke="#63b8ff" points="2141,-110.8 2144.5,-120.8 2148,-110.8 2141,-110.8"/>
</a>
</g>
</g>
<!-- Node24&#45;&gt;Node16 -->
<g id="edge29_Node000024_Node000016" class="edge">
<title>Node24&#45;&gt;Node16</title>
<g id="a_edge29_Node000024_Node000016"><a xlink:title=" ">
<path fill="none" stroke="#63b8ff" d="M2180.44,-116.3C2203.82,-104.14 2233.18,-88.86 2251.13,-79.52"/>
<polygon fill="#63b8ff" stroke="#63b8ff" points="2178.75,-113.23 2171.49,-120.95 2181.98,-119.44 2178.75,-113.23"/>
</a>
</g>
</g>
<!-- Node26 -->
<g id="Node000026" class="node">
<title>Node26</title>
<g id="a_Node000026"><a xlink:href="webcface_8cc.html" target="_top" xlink:title=" ">
<polygon fill="white" stroke="#666666" points="2398,-151 2267,-151 2267,-121 2398,-121 2398,-151"/>
<text text-anchor="start" x="2275" y="-139" font-family="Helvetica,sans-Serif" font-size="10.00">client/include/webcface</text>
<text text-anchor="middle" x="2332.5" y="-128" font-family="Helvetica,sans-Serif" font-size="10.00">/modules/webcface.cc</text>
</a>
</g>
</g>
<!-- Node25&#45;&gt;Node26 -->
<g id="edge31_Node000025_Node000026" class="edge">
<title>Node25&#45;&gt;Node26</title>
<g id="a_edge31_Node000025_Node000026"><a xlink:title=" ">
<path fill="none" stroke="#63b8ff" d="M2332.5,-176.54C2332.5,-167.96 2332.5,-158.61 2332.5,-151.16"/>
<polygon fill="#63b8ff" stroke="#63b8ff" points="2329,-176.8 2332.5,-186.8 2336,-176.8 2329,-176.8"/>
</a>
</g>
</g>
<!-- Node27 -->
<g id="Node000027" class="node">
<title>Node27</title>
<g id="a_Node000027"><a xlink:href="webcface_8ixx.html" target="_top" xlink:title=" ">
<polygon fill="white" stroke="#666666" points="2547,-151 2416,-151 2416,-121 2547,-121 2547,-151"/>
<text text-anchor="start" x="2424" y="-139" font-family="Helvetica,sans-Serif" font-size="10.00">client/include/webcface</text>
<text text-anchor="middle" x="2481.5" y="-128" font-family="Helvetica,sans-Serif" font-size="10.00">/modules/webcface.ixx</text>
</a>
</g>
</g>
<!-- Node25&#45;&gt;Node27 -->
<g id="edge32_Node000025_Node000027" class="edge">
<title>Node25&#45;&gt;Node27</title>
<g id="a_edge32_Node000025_Node000027"><a xlink:title=" ">
<path fill="none" stroke="#63b8ff" d="M2374.59,-182.92C2398.14,-172.8 2427.06,-160.38 2448.88,-151.01"/>
<polygon fill="#63b8ff" stroke="#63b8ff" points="2373.01,-179.79 2365.2,-186.95 2375.77,-186.22 2373.01,-179.79"/>
</a>
</g>
</g>
</g>
</svg>
