<?xml version="1.0" encoding="UTF-8" standalone="no"?>
<!DOCTYPE svg PUBLIC "-//W3C//DTD SVG 1.1//EN"
 "http://www.w3.org/Graphics/SVG/1.1/DTD/svg11.dtd">
<!-- Generated by graphviz version 2.43.0 (0)
 -->
<!-- Title: common/include/webcface/common/internal/message/text.h Pages: 1 -->
<svg width="685pt" height="115pt"
 viewBox="0.00 0.00 685.00 115.00" xmlns="http://www.w3.org/2000/svg" xmlns:xlink="http://www.w3.org/1999/xlink">
<g id="graph0" class="graph" transform="scale(1 1) rotate(0) translate(4 111)">
<title>common/include/webcface/common/internal/message/text.h</title>
<!-- Node1 -->
<g id="Node000001" class="node">
<title>Node1</title>
<g id="a_Node000001"><a xlink:title=" ">
<polygon fill="#999999" stroke="#666666" points="393.5,-107 243.5,-107 243.5,-66 393.5,-66 393.5,-107"/>
<text text-anchor="start" x="251.5" y="-95" font-family="Helvetica,sans-Serif" font-size="10.00">common/include/webcface</text>
<text text-anchor="start" x="251.5" y="-84" font-family="Helvetica,sans-Serif" font-size="10.00">/common/internal/message</text>
<text text-anchor="middle" x="318.5" y="-73" font-family="Helvetica,sans-Serif" font-size="10.00">/text.h</text>
</a>
</g>
</g>
<!-- Node2 -->
<g id="Node000002" class="node">
<title>Node2</title>
<g id="a_Node000002"><a xlink:href="client__msg__recv_8cc.html" target="_top" xlink:title=" ">
<polygon fill="white" stroke="#666666" points="117,-30 0,-30 0,0 117,0 117,-30"/>
<text text-anchor="start" x="8" y="-18" font-family="Helvetica,sans-Serif" font-size="10.00">client/src/client_msg</text>
<text text-anchor="middle" x="58.5" y="-7" font-family="Helvetica,sans-Serif" font-size="10.00">_recv.cc</text>
</a>
</g>
</g>
<!-- Node1&#45;&gt;Node2 -->
<g id="edge1_Node000001_Node000002" class="edge">
<title>Node1&#45;&gt;Node2</title>
<g id="a_edge1_Node000001_Node000002"><a xlink:title=" ">
<path fill="none" stroke="#63b8ff" d="M235.69,-63.37C194.78,-52.43 146.65,-39.56 110.89,-30"/>
<polygon fill="#63b8ff" stroke="#63b8ff" points="234.82,-66.75 245.38,-65.96 236.63,-59.99 234.82,-66.75"/>
</a>
</g>
</g>
<!-- Node3 -->
<g id="Node000003" class="node">
<title>Node3</title>
<g id="a_Node000003"><a xlink:href="client__msg__sync_8cc.html" target="_top" xlink:title=" ">
<polygon fill="white" stroke="#666666" points="252,-30 135,-30 135,0 252,0 252,-30"/>
<text text-anchor="start" x="143" y="-18" font-family="Helvetica,sans-Serif" font-size="10.00">client/src/client_msg</text>
<text text-anchor="middle" x="193.5" y="-7" font-family="Helvetica,sans-Serif" font-size="10.00">_sync.cc</text>
</a>
</g>
</g>
<!-- Node1&#45;&gt;Node3 -->
<g id="edge2_Node000001_Node000003" class="edge">
<title>Node1&#45;&gt;Node3</title>
<g id="a_edge2_Node000001_Node000003"><a xlink:title=" ">
<path fill="none" stroke="#63b8ff" d="M274.44,-61C255.83,-50.66 234.83,-38.98 218.88,-30.11"/>
<polygon fill="#63b8ff" stroke="#63b8ff" points="272.91,-64.15 283.35,-65.96 276.31,-58.04 272.91,-64.15"/>
</a>
</g>
</g>
<!-- Node4 -->
<g id="Node000004" class="node">
<title>Node4</title>
<g id="a_Node000004"><a xlink:href="text_8cc.html" target="_top" xlink:title=" ">
<polygon fill="white" stroke="#666666" points="367,-24.5 270,-24.5 270,-5.5 367,-5.5 367,-24.5"/>
<text text-anchor="middle" x="318.5" y="-12.5" font-family="Helvetica,sans-Serif" font-size="10.00">client/src/text.cc</text>
</a>
</g>
</g>
<!-- Node1&#45;&gt;Node4 -->
<g id="edge3_Node000001_Node000004" class="edge">
<title>Node1&#45;&gt;Node4</title>
<g id="a_edge3_Node000001_Node000004"><a xlink:title=" ">
<path fill="none" stroke="#63b8ff" d="M318.5,-55.47C318.5,-44.35 318.5,-32.58 318.5,-24.82"/>
<polygon fill="#63b8ff" stroke="#63b8ff" points="315,-55.77 318.5,-65.77 322,-55.77 315,-55.77"/>
</a>
</g>
</g>
<!-- Node5 -->
<g id="Node000005" class="node">
<title>Node5</title>
<g id="a_Node000005"><a xlink:href="message_8cc.html" target="_top" xlink:title=" ">
<polygon fill="white" stroke="#666666" points="522,-24.5 385,-24.5 385,-5.5 522,-5.5 522,-24.5"/>
<text text-anchor="middle" x="453.5" y="-12.5" font-family="Helvetica,sans-Serif" font-size="10.00">common/src/message.cc</text>
</a>
</g>
</g>
<!-- Node1&#45;&gt;Node5 -->
<g id="edge4_Node000001_Node000005" class="edge">
<title>Node1&#45;&gt;Node5</title>
<g id="a_edge4_Node000001_Node000005"><a xlink:title=" ">
<path fill="none" stroke="#63b8ff" d="M365.41,-61.35C390.27,-48.55 419.25,-33.63 436.98,-24.5"/>
<polygon fill="#63b8ff" stroke="#63b8ff" points="363.75,-58.27 356.46,-65.96 366.96,-64.49 363.75,-58.27"/>
</a>
</g>
</g>
<!-- Node6 -->
<g id="Node000006" class="node">
<title>Node6</title>
<g id="a_Node000006"><a xlink:href="member__data_8cc.html" target="_top" xlink:title=" ">
<polygon fill="white" stroke="#666666" points="677,-30 540,-30 540,0 677,0 677,-30"/>
<text text-anchor="start" x="548" y="-18" font-family="Helvetica,sans-Serif" font-size="10.00">server&#45;store/src/member</text>
<text text-anchor="middle" x="608.5" y="-7" font-family="Helvetica,sans-Serif" font-size="10.00">_data.cc</text>
</a>
</g>
</g>
<!-- Node1&#45;&gt;Node6 -->
<g id="edge5_Node000001_Node000006" class="edge">
<title>Node1&#45;&gt;Node6</title>
<g id="a_edge5_Node000001_Node000006"><a xlink:title=" ">
<path fill="none" stroke="#63b8ff" d="M403.43,-65.15C450.45,-53.88 507.71,-40.15 549.76,-30.08"/>
<polygon fill="#63b8ff" stroke="#63b8ff" points="402.47,-61.78 393.56,-67.51 404.1,-68.58 402.47,-61.78"/>
</a>
</g>
</g>
</g>
</svg>
