<?xml version="1.0" encoding="UTF-8" standalone="no"?>
<!DOCTYPE svg PUBLIC "-//W3C//DTD SVG 1.1//EN"
 "http://www.w3.org/Graphics/SVG/1.1/DTD/svg11.dtd">
<!-- Generated by graphviz version 2.43.0 (0)
 -->
<!-- Title: include/webcface/common/log.h Pages: 1 -->
<svg width="2311pt" height="258pt"
 viewBox="0.00 0.00 2311.00 258.00" xmlns="http://www.w3.org/2000/svg" xmlns:xlink="http://www.w3.org/1999/xlink">
<g id="graph0" class="graph" transform="scale(1 1) rotate(0) translate(4 254)">
<title>include/webcface/common/log.h</title>
<!-- Node1 -->
<g id="Node000001" class="node">
<title>Node1</title>
<g id="a_Node000001"><a xlink:title=" ">
<polygon fill="#999999" stroke="#666666" points="595,-250 448,-250 448,-220 595,-220 595,-250"/>
<text text-anchor="start" x="456" y="-238" font-family="Helvetica,sans-Serif" font-size="10.00">include/webcface/common</text>
<text text-anchor="middle" x="521.5" y="-227" font-family="Helvetica,sans-Serif" font-size="10.00">/log.h</text>
</a>
</g>
</g>
<!-- Node2 -->
<g id="Node000002" class="node">
<title>Node2</title>
<g id="a_Node000002"><a xlink:href="client__internal_8h.html" target="_top" xlink:title=" ">
<polygon fill="white" stroke="#666666" points="919,-74 794,-74 794,-55 919,-55 919,-74"/>
<text text-anchor="middle" x="856.5" y="-62" font-family="Helvetica,sans-Serif" font-size="10.00">client/client_internal.h</text>
</a>
</g>
</g>
<!-- Node1&#45;&gt;Node2 -->
<g id="edge1_Node000001_Node000002" class="edge">
<title>Node1&#45;&gt;Node2</title>
<g id="a_edge1_Node000001_Node000002"><a xlink:title=" ">
<path fill="none" stroke="#63b8ff" d="M562.56,-215.78C583.09,-206.52 608.24,-194.93 630.5,-184 710.43,-144.75 804.17,-94.08 840.76,-74.12"/>
<polygon fill="#63b8ff" stroke="#63b8ff" points="560.87,-212.7 553.19,-220 563.74,-219.09 560.87,-212.7"/>
</a>
</g>
</g>
<!-- Node19 -->
<g id="Node000019" class="node">
<title>Node19</title>
<g id="a_Node000019"><a xlink:href="data__store1_8h.html" target="_top" xlink:title=" ">
<polygon fill="white" stroke="#666666" points="621,-184 508,-184 508,-165 621,-165 621,-184"/>
<text text-anchor="middle" x="564.5" y="-172" font-family="Helvetica,sans-Serif" font-size="10.00">client/data_store1.h</text>
</a>
</g>
</g>
<!-- Node1&#45;&gt;Node19 -->
<g id="edge18_Node000001_Node000019" class="edge">
<title>Node1&#45;&gt;Node19</title>
<g id="a_edge18_Node000001_Node000019"><a xlink:title=" ">
<path fill="none" stroke="#63b8ff" d="M538.03,-211.51C545.03,-201.99 552.76,-191.47 558.06,-184.27"/>
<polygon fill="#63b8ff" stroke="#63b8ff" points="535.01,-209.71 531.91,-219.84 540.65,-213.85 535.01,-209.71"/>
</a>
</g>
</g>
<!-- Node21 -->
<g id="Node000021" class="node">
<title>Node21</title>
<g id="a_Node000021"><a xlink:href="log_8h.html" target="_top" xlink:title=" ">
<polygon fill="white" stroke="#666666" points="265.5,-129 137.5,-129 137.5,-110 265.5,-110 265.5,-129"/>
<text text-anchor="middle" x="201.5" y="-117" font-family="Helvetica,sans-Serif" font-size="10.00">include/webcface/log.h</text>
</a>
</g>
</g>
<!-- Node1&#45;&gt;Node21 -->
<g id="edge21_Node000001_Node000021" class="edge">
<title>Node1&#45;&gt;Node21</title>
<g id="a_edge21_Node000001_Node000021"><a xlink:title=" ">
<path fill="none" stroke="#63b8ff" d="M437.91,-222.79C394.8,-215.17 342.07,-202.95 297.5,-184 263.48,-169.54 228.49,-142.82 211.71,-129.11"/>
<polygon fill="#63b8ff" stroke="#63b8ff" points="437.35,-226.24 447.8,-224.49 438.53,-219.35 437.35,-226.24"/>
</a>
</g>
</g>
<!-- Node22 -->
<g id="Node000022" class="node">
<title>Node22</title>
<g id="a_Node000022"><a xlink:href="webcface_8h.html" target="_top" xlink:title=" ">
<polygon fill="white" stroke="#666666" points="389.5,-74 229.5,-74 229.5,-55 389.5,-55 389.5,-74"/>
<text text-anchor="middle" x="309.5" y="-62" font-family="Helvetica,sans-Serif" font-size="10.00">include/webcface/webcface.h</text>
</a>
</g>
</g>
<!-- Node1&#45;&gt;Node22 -->
<g id="edge30_Node000001_Node000022" class="edge">
<title>Node1&#45;&gt;Node22</title>
<g id="a_edge30_Node000001_Node000022"><a xlink:title=" ">
<path fill="none" stroke="#63b8ff" d="M469.83,-216.18C428.25,-199.49 370.94,-170.79 334.5,-129 320.33,-112.75 313.67,-87.51 311.01,-74.28"/>
<polygon fill="#63b8ff" stroke="#63b8ff" points="468.65,-219.48 479.24,-219.87 471.21,-212.97 468.65,-219.48"/>
</a>
</g>
</g>
<!-- Node23 -->
<g id="Node000023" class="node">
<title>Node23</title>
<g id="a_Node000023"><a xlink:href="logger_8h.html" target="_top" xlink:title=" ">
<polygon fill="white" stroke="#666666" points="487,-129 344,-129 344,-110 487,-110 487,-129"/>
<text text-anchor="middle" x="415.5" y="-117" font-family="Helvetica,sans-Serif" font-size="10.00">include/webcface/logger.h</text>
</a>
</g>
</g>
<!-- Node1&#45;&gt;Node23 -->
<g id="edge26_Node000001_Node000023" class="edge">
<title>Node1&#45;&gt;Node23</title>
<g id="a_edge26_Node000001_Node000023"><a xlink:title=" ">
<path fill="none" stroke="#63b8ff" d="M500.97,-212.02C477.45,-186.83 440.05,-146.79 423.65,-129.23"/>
<polygon fill="#63b8ff" stroke="#63b8ff" points="498.69,-214.71 508.08,-219.63 503.81,-209.93 498.69,-214.71"/>
</a>
</g>
</g>
<!-- Node24 -->
<g id="Node000024" class="node">
<title>Node24</title>
<g id="a_Node000024"><a xlink:href="message_8h.html" target="_top" xlink:title=" ">
<polygon fill="white" stroke="#666666" points="1358,-184 1241,-184 1241,-165 1358,-165 1358,-184"/>
<text text-anchor="middle" x="1299.5" y="-172" font-family="Helvetica,sans-Serif" font-size="10.00">message/message.h</text>
</a>
</g>
</g>
<!-- Node1&#45;&gt;Node24 -->
<g id="edge31_Node000001_Node000024" class="edge">
<title>Node1&#45;&gt;Node24</title>
<g id="a_edge31_Node000001_Node000024"><a xlink:title=" ">
<path fill="none" stroke="#63b8ff" d="M605.22,-227.7C763.78,-215.78 1104.25,-190.18 1240.94,-179.9"/>
<polygon fill="#63b8ff" stroke="#63b8ff" points="604.75,-224.23 595.04,-228.47 605.28,-231.21 604.75,-224.23"/>
</a>
</g>
</g>
<!-- Node3 -->
<g id="Node000003" class="node">
<title>Node3</title>
<g id="a_Node000003"><a xlink:href="canvas2d_8cc.html" target="_top" xlink:title=" ">
<polygon fill="white" stroke="#666666" points="1690,-19 1583,-19 1583,0 1690,0 1690,-19"/>
<text text-anchor="middle" x="1636.5" y="-7" font-family="Helvetica,sans-Serif" font-size="10.00">client/canvas2d.cc</text>
</a>
</g>
</g>
<!-- Node2&#45;&gt;Node3 -->
<g id="edge2_Node000002_Node000003" class="edge">
<title>Node2&#45;&gt;Node3</title>
<g id="a_edge2_Node000002_Node000003"><a xlink:title=" ">
<path fill="none" stroke="#63b8ff" d="M929.61,-54.97C1216.73,-30.51 1291.62,-46.23 1574.5,-19 1577.2,-18.74 1579.97,-18.45 1582.76,-18.14"/>
<polygon fill="#63b8ff" stroke="#63b8ff" points="928.97,-51.51 919.31,-55.85 929.57,-58.48 928.97,-51.51"/>
</a>
</g>
</g>
<!-- Node4 -->
<g id="Node000004" class="node">
<title>Node4</title>
<g id="a_Node000004"><a xlink:href="canvas3d_8cc.html" target="_top" xlink:title=" ">
<polygon fill="white" stroke="#666666" points="1815,-19 1708,-19 1708,0 1815,0 1815,-19"/>
<text text-anchor="middle" x="1761.5" y="-7" font-family="Helvetica,sans-Serif" font-size="10.00">client/canvas3d.cc</text>
</a>
</g>
</g>
<!-- Node2&#45;&gt;Node4 -->
<g id="edge3_Node000002_Node000004" class="edge">
<title>Node2&#45;&gt;Node4</title>
<g id="a_edge3_Node000002_Node000004"><a xlink:title=" ">
<path fill="none" stroke="#63b8ff" d="M929.51,-54.99C1272.12,-27.33 1361.23,-50.02 1699.5,-19 1702.2,-18.75 1704.97,-18.47 1707.77,-18.17"/>
<polygon fill="#63b8ff" stroke="#63b8ff" points="928.98,-51.52 919.3,-55.82 929.55,-58.5 928.98,-51.52"/>
</a>
</g>
</g>
<!-- Node5 -->
<g id="Node000005" class="node">
<title>Node5</title>
<g id="a_Node000005"><a xlink:href="canvas__data_8cc.html" target="_top" xlink:title=" ">
<polygon fill="white" stroke="#666666" points="787.5,-19 665.5,-19 665.5,0 787.5,0 787.5,-19"/>
<text text-anchor="middle" x="726.5" y="-7" font-family="Helvetica,sans-Serif" font-size="10.00">client/canvas_data.cc</text>
</a>
</g>
</g>
<!-- Node2&#45;&gt;Node5 -->
<g id="edge4_Node000002_Node000005" class="edge">
<title>Node2&#45;&gt;Node5</title>
<g id="a_edge4_Node000002_Node000005"><a xlink:title=" ">
<path fill="none" stroke="#63b8ff" d="M826.23,-51.16C802.16,-41.35 769.1,-27.87 747.77,-19.17"/>
<polygon fill="#63b8ff" stroke="#63b8ff" points="825.03,-54.45 835.61,-54.98 827.67,-47.97 825.03,-54.45"/>
</a>
</g>
</g>
<!-- Node6 -->
<g id="Node000006" class="node">
<title>Node6</title>
<g id="a_Node000006"><a xlink:href="client_2client_8cc.html" target="_top" xlink:title=" ">
<polygon fill="white" stroke="#666666" points="299,-19 212,-19 212,0 299,0 299,-19"/>
<text text-anchor="middle" x="255.5" y="-7" font-family="Helvetica,sans-Serif" font-size="10.00">client/client.cc</text>
</a>
</g>
</g>
<!-- Node2&#45;&gt;Node6 -->
<g id="edge5_Node000002_Node000006" class="edge">
<title>Node2&#45;&gt;Node6</title>
<g id="a_edge5_Node000002_Node000006"><a xlink:title=" ">
<path fill="none" stroke="#63b8ff" d="M783.94,-55.42C782.44,-55.28 780.96,-55.14 779.5,-55 570.47,-35.48 516.99,-43.64 308.5,-19 305.45,-18.64 302.3,-18.23 299.13,-17.79"/>
<polygon fill="#63b8ff" stroke="#63b8ff" points="783.61,-58.91 793.9,-56.41 784.3,-51.94 783.61,-58.91"/>
</a>
</g>
</g>
<!-- Node7 -->
<g id="Node000007" class="node">
<title>Node7</title>
<g id="a_Node000007"><a xlink:href="client__ws_8cc.html" target="_top" xlink:title=" ">
<polygon fill="white" stroke="#666666" points="911.5,-19 805.5,-19 805.5,0 911.5,0 911.5,-19"/>
<text text-anchor="middle" x="858.5" y="-7" font-family="Helvetica,sans-Serif" font-size="10.00">client/client_ws.cc</text>
</a>
</g>
</g>
<!-- Node2&#45;&gt;Node7 -->
<g id="edge6_Node000002_Node000007" class="edge">
<title>Node2&#45;&gt;Node7</title>
<g id="a_edge6_Node000002_Node000007"><a xlink:title=" ">
<path fill="none" stroke="#63b8ff" d="M857.21,-44.66C857.54,-35.93 857.92,-25.99 858.18,-19.09"/>
<polygon fill="#63b8ff" stroke="#63b8ff" points="853.71,-44.62 856.83,-54.75 860.7,-44.89 853.71,-44.62"/>
</a>
</g>
</g>
<!-- Node8 -->
<g id="Node000008" class="node">
<title>Node8</title>
<g id="a_Node000008"><a xlink:href="field_8cc.html" target="_top" xlink:title=" ">
<polygon fill="white" stroke="#666666" points="507,-19 426,-19 426,0 507,0 507,-19"/>
<text text-anchor="middle" x="466.5" y="-7" font-family="Helvetica,sans-Serif" font-size="10.00">client/field.cc</text>
</a>
</g>
</g>
<!-- Node2&#45;&gt;Node8 -->
<g id="edge7_Node000002_Node000008" class="edge">
<title>Node2&#45;&gt;Node8</title>
<g id="a_edge7_Node000002_Node000008"><a xlink:title=" ">
<path fill="none" stroke="#63b8ff" d="M783.42,-54.76C714.49,-46.31 608.33,-32.81 516.5,-19 513.45,-18.54 510.3,-18.05 507.14,-17.54"/>
<polygon fill="#63b8ff" stroke="#63b8ff" points="783.38,-58.28 793.73,-56.01 784.23,-51.33 783.38,-58.28"/>
</a>
</g>
</g>
<!-- Node9 -->
<g id="Node000009" class="node">
<title>Node9</title>
<g id="a_Node000009"><a xlink:href="client_2func_8cc.html" target="_top" xlink:title=" ">
<polygon fill="white" stroke="#666666" points="1011,-19 930,-19 930,0 1011,0 1011,-19"/>
<text text-anchor="middle" x="970.5" y="-7" font-family="Helvetica,sans-Serif" font-size="10.00">client/func.cc</text>
</a>
</g>
</g>
<!-- Node2&#45;&gt;Node9 -->
<g id="edge8_Node000002_Node000009" class="edge">
<title>Node2&#45;&gt;Node9</title>
<g id="a_edge8_Node000002_Node000009"><a xlink:title=" ">
<path fill="none" stroke="#63b8ff" d="M883.89,-50.77C904.92,-40.99 933.39,-27.75 951.85,-19.17"/>
<polygon fill="#63b8ff" stroke="#63b8ff" points="882.41,-47.6 874.82,-54.98 885.36,-53.94 882.41,-47.6"/>
</a>
</g>
</g>
<!-- Node10 -->
<g id="Node000010" class="node">
<title>Node10</title>
<g id="a_Node000010"><a xlink:href="func__listener_8cc.html" target="_top" xlink:title=" ">
<polygon fill="white" stroke="#666666" points="647.5,-19 525.5,-19 525.5,0 647.5,0 647.5,-19"/>
<text text-anchor="middle" x="586.5" y="-7" font-family="Helvetica,sans-Serif" font-size="10.00">client/func_listener.cc</text>
</a>
</g>
</g>
<!-- Node2&#45;&gt;Node10 -->
<g id="edge9_Node000002_Node000010" class="edge">
<title>Node2&#45;&gt;Node10</title>
<g id="a_edge9_Node000002_Node000010"><a xlink:title=" ">
<path fill="none" stroke="#63b8ff" d="M803.02,-53C752.41,-43.07 677.35,-28.33 630.22,-19.08"/>
<polygon fill="#63b8ff" stroke="#63b8ff" points="802.63,-56.49 813.12,-54.98 803.98,-49.62 802.63,-56.49"/>
</a>
</g>
</g>
<!-- Node11 -->
<g id="Node000011" class="node">
<title>Node11</title>
<g id="a_Node000011"><a xlink:href="image_8cc.html" target="_top" xlink:title=" ">
<polygon fill="white" stroke="#666666" points="1120,-19 1029,-19 1029,0 1120,0 1120,-19"/>
<text text-anchor="middle" x="1074.5" y="-7" font-family="Helvetica,sans-Serif" font-size="10.00">client/image.cc</text>
</a>
</g>
</g>
<!-- Node2&#45;&gt;Node11 -->
<g id="edge10_Node000002_Node000011" class="edge">
<title>Node2&#45;&gt;Node11</title>
<g id="a_edge10_Node000002_Node000011"><a xlink:title=" ">
<path fill="none" stroke="#63b8ff" d="M901.48,-52.56C942.31,-42.64 1001.7,-28.2 1039.2,-19.08"/>
<polygon fill="#63b8ff" stroke="#63b8ff" points="900.42,-49.22 891.53,-54.98 902.07,-56.02 900.42,-49.22"/>
</a>
</g>
</g>
<!-- Node12 -->
<g id="Node000012" class="node">
<title>Node12</title>
<g id="a_Node000012"><a xlink:href="log_8cc.html" target="_top" xlink:title=" ">
<polygon fill="white" stroke="#666666" points="194,-19 119,-19 119,0 194,0 194,-19"/>
<text text-anchor="middle" x="156.5" y="-7" font-family="Helvetica,sans-Serif" font-size="10.00">client/log.cc</text>
</a>
</g>
</g>
<!-- Node2&#45;&gt;Node12 -->
<g id="edge11_Node000002_Node000012" class="edge">
<title>Node2&#45;&gt;Node12</title>
<g id="a_edge11_Node000002_Node000012"><a xlink:title=" ">
<path fill="none" stroke="#63b8ff" d="M783.63,-59.6C637.48,-51.61 313.11,-32.94 202.5,-19 199.76,-18.65 196.94,-18.25 194.1,-17.81"/>
<polygon fill="#63b8ff" stroke="#63b8ff" points="783.66,-63.11 793.84,-60.16 784.04,-56.12 783.66,-63.11"/>
</a>
</g>
</g>
<!-- Node13 -->
<g id="Node000013" class="node">
<title>Node13</title>
<g id="a_Node000013"><a xlink:href="logger_8cc.html" target="_top" xlink:title=" ">
<polygon fill="white" stroke="#666666" points="407.5,-19 317.5,-19 317.5,0 407.5,0 407.5,-19"/>
<text text-anchor="middle" x="362.5" y="-7" font-family="Helvetica,sans-Serif" font-size="10.00">client/logger.cc</text>
</a>
</g>
</g>
<!-- Node2&#45;&gt;Node13 -->
<g id="edge12_Node000002_Node000013" class="edge">
<title>Node2&#45;&gt;Node13</title>
<g id="a_edge12_Node000002_Node000013"><a xlink:title=" ">
<path fill="none" stroke="#63b8ff" d="M783.93,-55.47C782.44,-55.31 780.96,-55.15 779.5,-55 618.26,-38.11 577.31,-39.61 416.5,-19 413.58,-18.63 410.58,-18.22 407.55,-17.79"/>
<polygon fill="#63b8ff" stroke="#63b8ff" points="783.58,-58.95 793.89,-56.53 784.32,-51.99 783.58,-58.95"/>
</a>
</g>
</g>
<!-- Node14 -->
<g id="Node000014" class="node">
<title>Node14</title>
<g id="a_Node000014"><a xlink:href="member_8cc.html" target="_top" xlink:title=" ">
<polygon fill="white" stroke="#666666" points="101,-19 0,-19 0,0 101,0 101,-19"/>
<text text-anchor="middle" x="50.5" y="-7" font-family="Helvetica,sans-Serif" font-size="10.00">client/member.cc</text>
</a>
</g>
</g>
<!-- Node2&#45;&gt;Node14 -->
<g id="edge13_Node000002_Node000014" class="edge">
<title>Node2&#45;&gt;Node14</title>
<g id="a_edge13_Node000002_Node000014"><a xlink:title=" ">
<path fill="none" stroke="#63b8ff" d="M783.76,-61.19C650.01,-56.48 356.09,-44.06 109.5,-19 106.82,-18.73 104.08,-18.42 101.32,-18.1"/>
<polygon fill="#63b8ff" stroke="#63b8ff" points="783.77,-64.69 793.89,-61.54 784.02,-57.69 783.77,-64.69"/>
</a>
</g>
</g>
<!-- Node15 -->
<g id="Node000015" class="node">
<title>Node15</title>
<g id="a_Node000015"><a xlink:href="robot__model_8cc.html" target="_top" xlink:title=" ">
<polygon fill="white" stroke="#666666" points="1260.5,-19 1138.5,-19 1138.5,0 1260.5,0 1260.5,-19"/>
<text text-anchor="middle" x="1199.5" y="-7" font-family="Helvetica,sans-Serif" font-size="10.00">client/robot_model.cc</text>
</a>
</g>
</g>
<!-- Node2&#45;&gt;Node15 -->
<g id="edge14_Node000002_Node000015" class="edge">
<title>Node2&#45;&gt;Node15</title>
<g id="a_edge14_Node000002_Node000015"><a xlink:title=" ">
<path fill="none" stroke="#63b8ff" d="M921.65,-53.43C986.05,-43.48 1083.52,-28.42 1144.24,-19.04"/>
<polygon fill="#63b8ff" stroke="#63b8ff" points="920.96,-50 911.61,-54.98 922.03,-56.92 920.96,-50"/>
</a>
</g>
</g>
<!-- Node16 -->
<g id="Node000016" class="node">
<title>Node16</title>
<g id="a_Node000016"><a xlink:href="client_2text_8cc.html" target="_top" xlink:title=" ">
<polygon fill="white" stroke="#666666" points="1358.5,-19 1278.5,-19 1278.5,0 1358.5,0 1358.5,-19"/>
<text text-anchor="middle" x="1318.5" y="-7" font-family="Helvetica,sans-Serif" font-size="10.00">client/text.cc</text>
</a>
</g>
</g>
<!-- Node2&#45;&gt;Node16 -->
<g id="edge15_Node000002_Node000016" class="edge">
<title>Node2&#45;&gt;Node16</title>
<g id="a_edge15_Node000002_Node000016"><a xlink:title=" ">
<path fill="none" stroke="#63b8ff" d="M929.51,-54.91C1081.66,-38.14 1121.8,-39.58 1269.5,-19 1272.41,-18.59 1275.41,-18.15 1278.42,-17.68"/>
<polygon fill="#63b8ff" stroke="#63b8ff" points="928.88,-51.45 919.32,-56.04 929.65,-58.41 928.88,-51.45"/>
</a>
</g>
</g>
<!-- Node17 -->
<g id="Node000017" class="node">
<title>Node17</title>
<g id="a_Node000017"><a xlink:href="client_2value_8cc.html" target="_top" xlink:title=" ">
<polygon fill="white" stroke="#666666" points="1464,-19 1377,-19 1377,0 1464,0 1464,-19"/>
<text text-anchor="middle" x="1420.5" y="-7" font-family="Helvetica,sans-Serif" font-size="10.00">client/value.cc</text>
</a>
</g>
</g>
<!-- Node2&#45;&gt;Node17 -->
<g id="edge16_Node000002_Node000017" class="edge">
<title>Node2&#45;&gt;Node17</title>
<g id="a_edge16_Node000002_Node000017"><a xlink:title=" ">
<path fill="none" stroke="#63b8ff" d="M929.35,-54.96C1124.99,-35.74 1176.38,-42.13 1367.5,-19 1370.55,-18.63 1373.7,-18.22 1376.86,-17.77"/>
<polygon fill="#63b8ff" stroke="#63b8ff" points="928.92,-51.48 919.31,-55.95 929.61,-58.45 928.92,-51.48"/>
</a>
</g>
</g>
<!-- Node18 -->
<g id="Node000018" class="node">
<title>Node18</title>
<g id="a_Node000018"><a xlink:href="client_2view_8cc.html" target="_top" xlink:title=" ">
<polygon fill="white" stroke="#666666" points="1565,-19 1482,-19 1482,0 1565,0 1565,-19"/>
<text text-anchor="middle" x="1523.5" y="-7" font-family="Helvetica,sans-Serif" font-size="10.00">client/view.cc</text>
</a>
</g>
</g>
<!-- Node2&#45;&gt;Node18 -->
<g id="edge17_Node000002_Node000018" class="edge">
<title>Node2&#45;&gt;Node18</title>
<g id="a_edge17_Node000002_Node000018"><a xlink:title=" ">
<path fill="none" stroke="#63b8ff" d="M929.5,-54.96C1171.96,-33.15 1235.71,-46.99 1473.5,-19 1476.21,-18.68 1479,-18.31 1481.8,-17.92"/>
<polygon fill="#63b8ff" stroke="#63b8ff" points="928.95,-51.5 919.31,-55.89 929.58,-58.47 928.95,-51.5"/>
</a>
</g>
</g>
<!-- Node19&#45;&gt;Node2 -->
<g id="edge19_Node000019_Node000002" class="edge">
<title>Node19&#45;&gt;Node2</title>
<g id="a_edge19_Node000019_Node000002"><a xlink:title=" ">
<path fill="none" stroke="#63b8ff" d="M592.38,-160.61C622.07,-147.13 670.58,-125.78 713.5,-110 751.69,-95.96 796.63,-82.46 825.79,-74.08"/>
<polygon fill="#63b8ff" stroke="#63b8ff" points="590.72,-157.53 583.07,-164.86 593.62,-163.9 590.72,-157.53"/>
</a>
</g>
</g>
<!-- Node20 -->
<g id="Node000020" class="node">
<title>Node20</title>
<g id="a_Node000020"><a xlink:href="data__store1_8cc.html" target="_top" xlink:title=" ">
<polygon fill="white" stroke="#666666" points="623.5,-129 505.5,-129 505.5,-110 623.5,-110 623.5,-129"/>
<text text-anchor="middle" x="564.5" y="-117" font-family="Helvetica,sans-Serif" font-size="10.00">client/data_store1.cc</text>
</a>
</g>
</g>
<!-- Node19&#45;&gt;Node20 -->
<g id="edge20_Node000019_Node000020" class="edge">
<title>Node19&#45;&gt;Node20</title>
<g id="a_edge20_Node000019_Node000020"><a xlink:title=" ">
<path fill="none" stroke="#63b8ff" d="M564.5,-154.66C564.5,-145.93 564.5,-135.99 564.5,-129.09"/>
<polygon fill="#63b8ff" stroke="#63b8ff" points="561,-154.75 564.5,-164.75 568,-154.75 561,-154.75"/>
</a>
</g>
</g>
<!-- Node21&#45;&gt;Node6 -->
<g id="edge22_Node000021_Node000006" class="edge">
<title>Node21&#45;&gt;Node6</title>
<g id="a_edge22_Node000021_Node000006"><a xlink:title=" ">
<path fill="none" stroke="#63b8ff" d="M205.15,-99.79C208.15,-86.75 213.12,-69.22 220.5,-55 227.65,-41.22 239.31,-27.49 247.18,-19.01"/>
<polygon fill="#63b8ff" stroke="#63b8ff" points="201.66,-99.39 203.01,-109.89 208.5,-100.84 201.66,-99.39"/>
</a>
</g>
</g>
<!-- Node21&#45;&gt;Node12 -->
<g id="edge23_Node000021_Node000012" class="edge">
<title>Node21&#45;&gt;Node12</title>
<g id="a_edge23_Node000021_Node000012"><a xlink:title=" ">
<path fill="none" stroke="#63b8ff" d="M193.84,-100.12C184.03,-76.56 167.4,-36.66 160.11,-19.16"/>
<polygon fill="#63b8ff" stroke="#63b8ff" points="190.74,-101.78 197.82,-109.66 197.2,-99.08 190.74,-101.78"/>
</a>
</g>
</g>
<!-- Node21&#45;&gt;Node14 -->
<g id="edge24_Node000021_Node000014" class="edge">
<title>Node21&#45;&gt;Node14</title>
<g id="a_edge24_Node000021_Node000014"><a xlink:title=" ">
<path fill="none" stroke="#63b8ff" d="M181.23,-104.01C149.38,-81.22 88.55,-37.72 62.66,-19.2"/>
<polygon fill="#63b8ff" stroke="#63b8ff" points="179.23,-106.87 189.4,-109.84 183.3,-101.18 179.23,-106.87"/>
</a>
</g>
</g>
<!-- Node21&#45;&gt;Node22 -->
<g id="edge25_Node000021_Node000022" class="edge">
<title>Node21&#45;&gt;Node22</title>
<g id="a_edge25_Node000021_Node000022"><a xlink:title=" ">
<path fill="none" stroke="#63b8ff" d="M227.99,-105.5C247.86,-95.75 274.5,-82.68 291.83,-74.17"/>
<polygon fill="#63b8ff" stroke="#63b8ff" points="226.29,-102.44 218.85,-109.98 229.37,-108.72 226.29,-102.44"/>
</a>
</g>
</g>
<!-- Node23&#45;&gt;Node2 -->
<g id="edge27_Node000023_Node000002" class="edge">
<title>Node23&#45;&gt;Node2</title>
<g id="a_edge27_Node000023_Node000002"><a xlink:title=" ">
<path fill="none" stroke="#63b8ff" d="M496.3,-108.79C581.99,-98.49 715.53,-82.44 793.68,-73.05"/>
<polygon fill="#63b8ff" stroke="#63b8ff" points="495.87,-105.32 486.35,-109.98 496.7,-112.27 495.87,-105.32"/>
</a>
</g>
</g>
<!-- Node23&#45;&gt;Node13 -->
<g id="edge28_Node000023_Node000013" class="edge">
<title>Node23&#45;&gt;Node13</title>
<g id="a_edge28_Node000023_Node000013"><a xlink:title=" ">
<path fill="none" stroke="#63b8ff" d="M412.61,-99.75C410.1,-86.7 405.71,-69.16 398.5,-55 391.47,-41.19 379.64,-27.68 371.47,-19.24"/>
<polygon fill="#63b8ff" stroke="#63b8ff" points="409.21,-100.61 414.36,-109.87 416.11,-99.42 409.21,-100.61"/>
</a>
</g>
</g>
<!-- Node23&#45;&gt;Node22 -->
<g id="edge29_Node000023_Node000022" class="edge">
<title>Node23&#45;&gt;Node22</title>
<g id="a_edge29_Node000023_Node000022"><a xlink:title=" ">
<path fill="none" stroke="#63b8ff" d="M389.5,-105.5C370,-95.75 343.85,-82.68 326.84,-74.17"/>
<polygon fill="#63b8ff" stroke="#63b8ff" points="387.96,-108.64 398.47,-109.98 391.09,-102.38 387.96,-108.64"/>
</a>
</g>
</g>
<!-- Node24&#45;&gt;Node3 -->
<g id="edge32_Node000024_Node000003" class="edge">
<title>Node24&#45;&gt;Node3</title>
<g id="a_edge32_Node000024_Node000003"><a xlink:title=" ">
<path fill="none" stroke="#63b8ff" d="M1326.53,-160.42C1393,-128.27 1563.04,-46.03 1618.62,-19.15"/>
<polygon fill="#63b8ff" stroke="#63b8ff" points="1324.62,-157.46 1317.14,-164.97 1327.67,-163.76 1324.62,-157.46"/>
</a>
</g>
</g>
<!-- Node24&#45;&gt;Node4 -->
<g id="edge33_Node000024_Node000004" class="edge">
<title>Node24&#45;&gt;Node4</title>
<g id="a_edge33_Node000024_Node000004"><a xlink:title=" ">
<path fill="none" stroke="#63b8ff" d="M1333.27,-161.59C1422.05,-130.26 1660.44,-46.16 1737.27,-19.05"/>
<polygon fill="#63b8ff" stroke="#63b8ff" points="1331.95,-158.34 1323.69,-164.97 1334.28,-164.94 1331.95,-158.34"/>
</a>
</g>
</g>
<!-- Node24&#45;&gt;Node6 -->
<g id="edge34_Node000024_Node000006" class="edge">
<title>Node24&#45;&gt;Node6</title>
<g id="a_edge34_Node000024_Node000006"><a xlink:title=" ">
<path fill="none" stroke="#63b8ff" d="M1230.59,-168.29C1156.28,-161.96 1034.74,-149.48 931.5,-129 811.13,-105.12 786.1,-77.68 665.5,-55 508.78,-25.52 466.63,-39.64 308.5,-19 305.45,-18.6 302.31,-18.17 299.14,-17.71"/>
<polygon fill="#63b8ff" stroke="#63b8ff" points="1230.49,-171.8 1240.75,-169.15 1231.08,-164.82 1230.49,-171.8"/>
</a>
</g>
</g>
<!-- Node24&#45;&gt;Node9 -->
<g id="edge38_Node000024_Node000009" class="edge">
<title>Node24&#45;&gt;Node9</title>
<g id="a_edge38_Node000024_Node000009"><a xlink:title=" ">
<path fill="none" stroke="#63b8ff" d="M1230.76,-166.36C1196.71,-160.35 1156.22,-149.3 1124.5,-129 1088.84,-106.18 1097.8,-81.15 1064.5,-55 1043.77,-38.72 1016.11,-26.53 996.17,-19.07"/>
<polygon fill="#63b8ff" stroke="#63b8ff" points="1230.2,-169.81 1240.63,-167.99 1231.34,-162.9 1230.2,-169.81"/>
</a>
</g>
</g>
<!-- Node24&#45;&gt;Node11 -->
<g id="edge39_Node000024_Node000011" class="edge">
<title>Node24&#45;&gt;Node11</title>
<g id="a_edge39_Node000024_Node000011"><a xlink:title=" ">
<path fill="none" stroke="#63b8ff" d="M1230.77,-166.31C1200.56,-160.29 1166.18,-149.25 1140.5,-129 1135.58,-125.12 1093.16,-45.66 1079.04,-19.08"/>
<polygon fill="#63b8ff" stroke="#63b8ff" points="1230.38,-169.79 1240.84,-168.16 1231.64,-162.91 1230.38,-169.79"/>
</a>
</g>
</g>
<!-- Node24&#45;&gt;Node12 -->
<g id="edge40_Node000024_Node000012" class="edge">
<title>Node24&#45;&gt;Node12</title>
<g id="a_edge40_Node000024_Node000012"><a xlink:title=" ">
<path fill="none" stroke="#63b8ff" d="M1230.57,-168.19C1142.12,-161.03 984.03,-147.07 849.5,-129 560.41,-90.18 489.7,-69.95 202.5,-19 199.78,-18.52 196.97,-18.01 194.15,-17.5"/>
<polygon fill="#63b8ff" stroke="#63b8ff" points="1230.49,-171.69 1240.74,-169.01 1231.05,-164.72 1230.49,-171.69"/>
</a>
</g>
</g>
<!-- Node24&#45;&gt;Node14 -->
<g id="edge41_Node000024_Node000014" class="edge">
<title>Node24&#45;&gt;Node14</title>
<g id="a_edge41_Node000024_Node000014"><a xlink:title=" ">
<path fill="none" stroke="#63b8ff" d="M1230.46,-172.61C986.43,-169.26 176.63,-156.13 128.5,-129 84.09,-103.96 60.5,-41.94 53.1,-19.11"/>
<polygon fill="#63b8ff" stroke="#63b8ff" points="1230.57,-176.12 1240.62,-172.75 1230.67,-169.12 1230.57,-176.12"/>
</a>
</g>
</g>
<!-- Node24&#45;&gt;Node15 -->
<g id="edge42_Node000024_Node000015" class="edge">
<title>Node24&#45;&gt;Node15</title>
<g id="a_edge42_Node000024_Node000015"><a xlink:title=" ">
<path fill="none" stroke="#63b8ff" d="M1295.93,-154.75C1292.96,-141.7 1288,-124.16 1280.5,-110 1260.59,-72.4 1225.3,-35.52 1208.66,-19.21"/>
<polygon fill="#63b8ff" stroke="#63b8ff" points="1292.57,-155.8 1298.03,-164.87 1299.42,-154.37 1292.57,-155.8"/>
</a>
</g>
</g>
<!-- Node24&#45;&gt;Node16 -->
<g id="edge43_Node000024_Node000016" class="edge">
<title>Node24&#45;&gt;Node16</title>
<g id="a_edge43_Node000024_Node000016"><a xlink:title=" ">
<path fill="none" stroke="#63b8ff" d="M1306.47,-155.15C1309.16,-147.23 1311.96,-137.78 1313.5,-129 1320.61,-88.44 1319.66,-38.93 1318.91,-19.21"/>
<polygon fill="#63b8ff" stroke="#63b8ff" points="1303.08,-154.21 1302.99,-164.8 1309.67,-156.58 1303.08,-154.21"/>
</a>
</g>
</g>
<!-- Node24&#45;&gt;Node17 -->
<g id="edge44_Node000024_Node000017" class="edge">
<title>Node24&#45;&gt;Node17</title>
<g id="a_edge44_Node000024_Node000017"><a xlink:title=" ">
<path fill="none" stroke="#63b8ff" d="M1312.03,-156.62C1337.52,-122.28 1394.63,-45.34 1413.96,-19.31"/>
<polygon fill="#63b8ff" stroke="#63b8ff" points="1309.16,-154.62 1306.01,-164.74 1314.78,-158.79 1309.16,-154.62"/>
</a>
</g>
</g>
<!-- Node24&#45;&gt;Node18 -->
<g id="edge45_Node000024_Node000018" class="edge">
<title>Node24&#45;&gt;Node18</title>
<g id="a_edge45_Node000024_Node000018"><a xlink:title=" ">
<path fill="none" stroke="#63b8ff" d="M1319.42,-159.01C1364.88,-125.92 1475.2,-45.64 1511.62,-19.15"/>
<polygon fill="#63b8ff" stroke="#63b8ff" points="1317.25,-156.25 1311.23,-164.97 1321.37,-161.91 1317.25,-156.25"/>
</a>
</g>
</g>
<!-- Node25 -->
<g id="Node000025" class="node">
<title>Node25</title>
<g id="a_Node000025"><a xlink:href="data__store2_8h.html" target="_top" xlink:title=" ">
<polygon fill="white" stroke="#666666" points="1053,-129 940,-129 940,-110 1053,-110 1053,-129"/>
<text text-anchor="middle" x="996.5" y="-117" font-family="Helvetica,sans-Serif" font-size="10.00">client/data_store2.h</text>
</a>
</g>
</g>
<!-- Node24&#45;&gt;Node25 -->
<g id="edge35_Node000024_Node000025" class="edge">
<title>Node24&#45;&gt;Node25</title>
<g id="a_edge35_Node000024_Node000025"><a xlink:title=" ">
<path fill="none" stroke="#63b8ff" d="M1240.89,-163.25C1183.99,-153.3 1098.63,-138.36 1045.31,-129.04"/>
<polygon fill="#63b8ff" stroke="#63b8ff" points="1240.36,-166.71 1250.82,-164.98 1241.57,-159.81 1240.36,-166.71"/>
</a>
</g>
</g>
<!-- Node27 -->
<g id="Node000027" class="node">
<title>Node27</title>
<g id="a_Node000027"><a xlink:href="message_8cc.html" target="_top" xlink:title=" ">
<polygon fill="white" stroke="#666666" points="1271.5,-129 1149.5,-129 1149.5,-110 1271.5,-110 1271.5,-129"/>
<text text-anchor="middle" x="1210.5" y="-117" font-family="Helvetica,sans-Serif" font-size="10.00">message/message.cc</text>
</a>
</g>
</g>
<!-- Node24&#45;&gt;Node27 -->
<g id="edge46_Node000024_Node000027" class="edge">
<title>Node24&#45;&gt;Node27</title>
<g id="a_edge46_Node000024_Node000027"><a xlink:title=" ">
<path fill="none" stroke="#63b8ff" d="M1276.32,-159.7C1260.11,-150.04 1238.95,-137.44 1225.06,-129.17"/>
<polygon fill="#63b8ff" stroke="#63b8ff" points="1274.82,-162.88 1285.2,-164.98 1278.4,-156.86 1274.82,-162.88"/>
</a>
</g>
</g>
<!-- Node28 -->
<g id="Node000028" class="node">
<title>Node28</title>
<g id="a_Node000028"><a xlink:href="s__client__data_8cc.html" target="_top" xlink:title=" ">
<polygon fill="white" stroke="#666666" points="1961.5,-19 1833.5,-19 1833.5,0 1961.5,0 1961.5,-19"/>
<text text-anchor="middle" x="1897.5" y="-7" font-family="Helvetica,sans-Serif" font-size="10.00">server/s_client_data.cc</text>
</a>
</g>
</g>
<!-- Node24&#45;&gt;Node28 -->
<g id="edge47_Node000024_Node000028" class="edge">
<title>Node24&#45;&gt;Node28</title>
<g id="a_edge47_Node000024_Node000028"><a xlink:title=" ">
<path fill="none" stroke="#63b8ff" d="M1341.83,-162.32C1375.61,-153.37 1424.11,-140.47 1466.5,-129 1616.69,-88.34 1796,-38.68 1866.69,-19.06"/>
<polygon fill="#63b8ff" stroke="#63b8ff" points="1340.62,-159.02 1331.85,-164.96 1342.41,-165.79 1340.62,-159.02"/>
</a>
</g>
</g>
<!-- Node29 -->
<g id="Node000029" class="node">
<title>Node29</title>
<g id="a_Node000029"><a xlink:href="s__client__data_8h.html" target="_top" xlink:title=" ">
<polygon fill="white" stroke="#666666" points="2094.5,-129 1970.5,-129 1970.5,-110 2094.5,-110 2094.5,-129"/>
<text text-anchor="middle" x="2032.5" y="-117" font-family="Helvetica,sans-Serif" font-size="10.00">server/s_client_data.h</text>
</a>
</g>
</g>
<!-- Node24&#45;&gt;Node29 -->
<g id="edge48_Node000024_Node000029" class="edge">
<title>Node24&#45;&gt;Node29</title>
<g id="a_edge48_Node000024_Node000029"><a xlink:title=" ">
<path fill="none" stroke="#63b8ff" d="M1368.58,-168.51C1510.78,-158.22 1834.31,-134.83 1970.38,-124.99"/>
<polygon fill="#63b8ff" stroke="#63b8ff" points="1367.97,-165.04 1358.25,-169.25 1368.47,-172.02 1367.97,-165.04"/>
</a>
</g>
</g>
<!-- Node32 -->
<g id="Node000032" class="node">
<title>Node32</title>
<g id="a_Node000032"><a xlink:href="websock_8cc.html" target="_top" xlink:title=" ">
<polygon fill="white" stroke="#666666" points="2303,-19 2196,-19 2196,0 2303,0 2303,-19"/>
<text text-anchor="middle" x="2249.5" y="-7" font-family="Helvetica,sans-Serif" font-size="10.00">server/websock.cc</text>
</a>
</g>
</g>
<!-- Node24&#45;&gt;Node32 -->
<g id="edge57_Node000024_Node000032" class="edge">
<title>Node24&#45;&gt;Node32</title>
<g id="a_edge57_Node000024_Node000032"><a xlink:title=" ">
<path fill="none" stroke="#63b8ff" d="M1368.3,-172.12C1550.44,-168.11 2035.91,-155.1 2103.5,-129 2166.54,-104.66 2223.09,-42.2 2242.43,-19.19"/>
<polygon fill="#63b8ff" stroke="#63b8ff" points="1368.22,-168.62 1358.3,-172.33 1368.37,-175.62 1368.22,-168.62"/>
</a>
</g>
</g>
<!-- Node25&#45;&gt;Node2 -->
<g id="edge36_Node000025_Node000002" class="edge">
<title>Node25&#45;&gt;Node2</title>
<g id="a_edge36_Node000025_Node000002"><a xlink:title=" ">
<path fill="none" stroke="#63b8ff" d="M964.59,-106.42C938.62,-96.59 902.58,-82.95 879.4,-74.17"/>
<polygon fill="#63b8ff" stroke="#63b8ff" points="963.42,-109.72 974.01,-109.98 965.89,-103.17 963.42,-109.72"/>
</a>
</g>
</g>
<!-- Node26 -->
<g id="Node000026" class="node">
<title>Node26</title>
<g id="a_Node000026"><a xlink:href="data__store2_8cc.html" target="_top" xlink:title=" ">
<polygon fill="white" stroke="#666666" points="1055.5,-74 937.5,-74 937.5,-55 1055.5,-55 1055.5,-74"/>
<text text-anchor="middle" x="996.5" y="-62" font-family="Helvetica,sans-Serif" font-size="10.00">client/data_store2.cc</text>
</a>
</g>
</g>
<!-- Node25&#45;&gt;Node26 -->
<g id="edge37_Node000025_Node000026" class="edge">
<title>Node25&#45;&gt;Node26</title>
<g id="a_edge37_Node000025_Node000026"><a xlink:title=" ">
<path fill="none" stroke="#63b8ff" d="M996.5,-99.66C996.5,-90.93 996.5,-80.99 996.5,-74.09"/>
<polygon fill="#63b8ff" stroke="#63b8ff" points="993,-99.75 996.5,-109.75 1000,-99.75 993,-99.75"/>
</a>
</g>
</g>
<!-- Node29&#45;&gt;Node28 -->
<g id="edge49_Node000029_Node000028" class="edge">
<title>Node29&#45;&gt;Node28</title>
<g id="a_edge49_Node000029_Node000028"><a xlink:title=" ">
<path fill="none" stroke="#63b8ff" d="M2013.38,-103.21C1984.63,-80.2 1931.18,-37.44 1908.32,-19.16"/>
<polygon fill="#63b8ff" stroke="#63b8ff" points="2011.46,-106.15 2021.45,-109.66 2015.83,-100.68 2011.46,-106.15"/>
</a>
</g>
</g>
<!-- Node30 -->
<g id="Node000030" class="node">
<title>Node30</title>
<g id="a_Node000030"><a xlink:href="store_8cc.html" target="_top" xlink:title=" ">
<polygon fill="white" stroke="#666666" points="2178,-19 2089,-19 2089,0 2178,0 2178,-19"/>
<text text-anchor="middle" x="2133.5" y="-7" font-family="Helvetica,sans-Serif" font-size="10.00">server/store.cc</text>
</a>
</g>
</g>
<!-- Node29&#45;&gt;Node30 -->
<g id="edge50_Node000029_Node000030" class="edge">
<title>Node29&#45;&gt;Node30</title>
<g id="a_edge50_Node000029_Node000030"><a xlink:title=" ">
<path fill="none" stroke="#63b8ff" d="M2051.32,-103.52C2061.29,-95.23 2073.51,-84.51 2083.5,-74 2100.9,-55.7 2118.55,-31.74 2127.5,-19.13"/>
<polygon fill="#63b8ff" stroke="#63b8ff" points="2049.11,-100.81 2043.57,-109.84 2053.53,-106.23 2049.11,-100.81"/>
</a>
</g>
</g>
<!-- Node31 -->
<g id="Node000031" class="node">
<title>Node31</title>
<g id="a_Node000031"><a xlink:href="store_8h.html" target="_top" xlink:title=" ">
<polygon fill="white" stroke="#666666" points="2074.5,-74 1990.5,-74 1990.5,-55 2074.5,-55 2074.5,-74"/>
<text text-anchor="middle" x="2032.5" y="-62" font-family="Helvetica,sans-Serif" font-size="10.00">server/store.h</text>
</a>
</g>
</g>
<!-- Node29&#45;&gt;Node31 -->
<g id="edge51_Node000029_Node000031" class="edge">
<title>Node29&#45;&gt;Node31</title>
<g id="a_edge51_Node000029_Node000031"><a xlink:title=" ">
<path fill="none" stroke="#63b8ff" d="M2032.5,-99.66C2032.5,-90.93 2032.5,-80.99 2032.5,-74.09"/>
<polygon fill="#63b8ff" stroke="#63b8ff" points="2029,-99.75 2032.5,-109.75 2036,-99.75 2029,-99.75"/>
</a>
</g>
</g>
<!-- Node29&#45;&gt;Node32 -->
<g id="edge56_Node000029_Node000032" class="edge">
<title>Node29&#45;&gt;Node32</title>
<g id="a_edge56_Node000029_Node000032"><a xlink:title=" ">
<path fill="none" stroke="#63b8ff" d="M2059.05,-105.28C2104.17,-82.83 2194.58,-37.83 2232.33,-19.05"/>
<polygon fill="#63b8ff" stroke="#63b8ff" points="2057.28,-102.26 2049.89,-109.84 2060.4,-108.52 2057.28,-102.26"/>
</a>
</g>
</g>
<!-- Node31&#45;&gt;Node28 -->
<g id="edge52_Node000031_Node000028" class="edge">
<title>Node31&#45;&gt;Node28</title>
<g id="a_edge52_Node000031_Node000028"><a xlink:title=" ">
<path fill="none" stroke="#63b8ff" d="M2001.4,-51.29C1976.38,-41.47 1941.84,-27.91 1919.58,-19.17"/>
<polygon fill="#63b8ff" stroke="#63b8ff" points="2000.22,-54.59 2010.81,-54.98 2002.78,-48.07 2000.22,-54.59"/>
</a>
</g>
</g>
<!-- Node31&#45;&gt;Node30 -->
<g id="edge53_Node000031_Node000030" class="edge">
<title>Node31&#45;&gt;Node30</title>
<g id="a_edge53_Node000031_Node000030"><a xlink:title=" ">
<path fill="none" stroke="#63b8ff" d="M2057.78,-50.23C2076.3,-40.51 2100.92,-27.6 2116.98,-19.17"/>
<polygon fill="#63b8ff" stroke="#63b8ff" points="2055.96,-47.24 2048.73,-54.98 2059.21,-53.44 2055.96,-47.24"/>
</a>
</g>
</g>
<!-- Node31&#45;&gt;Node32 -->
<g id="edge54_Node000031_Node000032" class="edge">
<title>Node31&#45;&gt;Node32</title>
<g id="a_edge54_Node000031_Node000032"><a xlink:title=" ">
<path fill="none" stroke="#63b8ff" d="M2077.27,-52.56C2117.92,-42.64 2177.03,-28.2 2214.36,-19.08"/>
<polygon fill="#63b8ff" stroke="#63b8ff" points="2076.25,-49.21 2067.36,-54.98 2077.91,-56.01 2076.25,-49.21"/>
</a>
</g>
</g>
<!-- Node33 -->
<g id="Node000033" class="node">
<title>Node33</title>
<g id="a_Node000033"><a xlink:href="server__main_8cc.html" target="_top" xlink:title=" ">
<polygon fill="white" stroke="#666666" points="2071,-19 1980,-19 1980,0 2071,0 2071,-19"/>
<text text-anchor="middle" x="2025.5" y="-7" font-family="Helvetica,sans-Serif" font-size="10.00">server_main.cc</text>
</a>
</g>
</g>
<!-- Node31&#45;&gt;Node33 -->
<g id="edge55_Node000031_Node000033" class="edge">
<title>Node31&#45;&gt;Node33</title>
<g id="a_edge55_Node000031_Node000033"><a xlink:title=" ">
<path fill="none" stroke="#63b8ff" d="M2030.01,-44.66C2028.86,-35.93 2027.55,-25.99 2026.63,-19.09"/>
<polygon fill="#63b8ff" stroke="#63b8ff" points="2026.56,-45.29 2031.34,-54.75 2033.5,-44.38 2026.56,-45.29"/>
</a>
</g>
</g>
</g>
</svg>
