<?xml version="1.0" encoding="UTF-8" standalone="no"?>
<!DOCTYPE svg PUBLIC "-//W3C//DTD SVG 1.1//EN"
 "http://www.w3.org/Graphics/SVG/1.1/DTD/svg11.dtd">
<!-- Generated by graphviz version 2.43.0 (0)
 -->
<!-- Title: include/webcface/common/func.h Pages: 1 -->
<svg width="1742pt" height="368pt"
 viewBox="0.00 0.00 1742.00 368.00" xmlns="http://www.w3.org/2000/svg" xmlns:xlink="http://www.w3.org/1999/xlink">
<g id="graph0" class="graph" transform="scale(1 1) rotate(0) translate(4 364)">
<title>include/webcface/common/func.h</title>
<!-- Node1 -->
<g id="Node000001" class="node">
<title>Node1</title>
<g id="a_Node000001"><a xlink:title=" ">
<polygon fill="#999999" stroke="#666666" points="837.5,-360 690.5,-360 690.5,-330 837.5,-330 837.5,-360"/>
<text text-anchor="start" x="698.5" y="-348" font-family="Helvetica,sans-Serif" font-size="10.00">include/webcface/common</text>
<text text-anchor="middle" x="764" y="-337" font-family="Helvetica,sans-Serif" font-size="10.00">/func.h</text>
</a>
</g>
</g>
<!-- Node2 -->
<g id="Node000002" class="node">
<title>Node2</title>
<g id="a_Node000002"><a xlink:href="client__internal_8h.html" target="_top" xlink:title=" ">
<polygon fill="white" stroke="#666666" points="826.5,-184 701.5,-184 701.5,-165 826.5,-165 826.5,-184"/>
<text text-anchor="middle" x="764" y="-172" font-family="Helvetica,sans-Serif" font-size="10.00">client/client_internal.h</text>
</a>
</g>
</g>
<!-- Node1&#45;&gt;Node2 -->
<g id="edge1_Node000001_Node000002" class="edge">
<title>Node1&#45;&gt;Node2</title>
<g id="a_edge1_Node000001_Node000002"><a xlink:title=" ">
<path fill="none" stroke="#63b8ff" d="M764,-319.69C764,-281.5 764,-209.23 764,-184.25"/>
<polygon fill="#63b8ff" stroke="#63b8ff" points="760.5,-319.92 764,-329.92 767.5,-319.92 760.5,-319.92"/>
</a>
</g>
</g>
<!-- Node13 -->
<g id="Node000013" class="node">
<title>Node13</title>
<g id="a_Node000013"><a xlink:href="data__store2_8h.html" target="_top" xlink:title=" ">
<polygon fill="white" stroke="#666666" points="996.5,-239 883.5,-239 883.5,-220 996.5,-220 996.5,-239"/>
<text text-anchor="middle" x="940" y="-227" font-family="Helvetica,sans-Serif" font-size="10.00">client/data_store2.h</text>
</a>
</g>
</g>
<!-- Node1&#45;&gt;Node13 -->
<g id="edge12_Node000001_Node000013" class="edge">
<title>Node1&#45;&gt;Node13</title>
<g id="a_edge12_Node000001_Node000013"><a xlink:title=" ">
<path fill="none" stroke="#63b8ff" d="M794.71,-324.19C833.44,-299.22 898.34,-257.36 926.4,-239.27"/>
<polygon fill="#63b8ff" stroke="#63b8ff" points="792.44,-321.49 785.93,-329.85 796.24,-327.38 792.44,-321.49"/>
</a>
</g>
</g>
<!-- Node15 -->
<g id="Node000015" class="node">
<title>Node15</title>
<g id="a_Node000015"><a xlink:href="func_8h.html" target="_top" xlink:title=" ">
<polygon fill="white" stroke="#666666" points="565,-294 431,-294 431,-275 565,-275 565,-294"/>
<text text-anchor="middle" x="498" y="-282" font-family="Helvetica,sans-Serif" font-size="10.00">include/webcface/func.h</text>
</a>
</g>
</g>
<!-- Node1&#45;&gt;Node15 -->
<g id="edge15_Node000001_Node000015" class="edge">
<title>Node1&#45;&gt;Node15</title>
<g id="a_edge15_Node000001_Node000015"><a xlink:title=" ">
<path fill="none" stroke="#63b8ff" d="M690.23,-327.78C640.55,-316.85 577.01,-302.88 536.89,-294.05"/>
<polygon fill="#63b8ff" stroke="#63b8ff" points="689.77,-331.26 700.29,-329.99 691.27,-324.42 689.77,-331.26"/>
</a>
</g>
</g>
<!-- Node17 -->
<g id="Node000017" class="node">
<title>Node17</title>
<g id="a_Node000017"><a xlink:href="webcface_8h.html" target="_top" xlink:title=" ">
<polygon fill="white" stroke="#666666" points="160,-74 0,-74 0,-55 160,-55 160,-74"/>
<text text-anchor="middle" x="80" y="-62" font-family="Helvetica,sans-Serif" font-size="10.00">include/webcface/webcface.h</text>
</a>
</g>
</g>
<!-- Node1&#45;&gt;Node17 -->
<g id="edge36_Node000001_Node000017" class="edge">
<title>Node1&#45;&gt;Node17</title>
<g id="a_edge36_Node000001_Node000017"><a xlink:title=" ">
<path fill="none" stroke="#63b8ff" d="M680.4,-340.16C482.91,-329.97 4,-298.28 4,-230.5 4,-230.5 4,-230.5 4,-173.5 4,-129.48 46.75,-90.74 68.12,-74.12"/>
<polygon fill="#63b8ff" stroke="#63b8ff" points="680.27,-343.66 690.44,-340.67 680.63,-336.67 680.27,-343.66"/>
</a>
</g>
</g>
<!-- Node20 -->
<g id="Node000020" class="node">
<title>Node20</title>
<g id="a_Node000020"><a xlink:href="message_8h.html" target="_top" xlink:title=" ">
<polygon fill="white" stroke="#666666" points="1234.5,-184 1117.5,-184 1117.5,-165 1234.5,-165 1234.5,-184"/>
<text text-anchor="middle" x="1176" y="-172" font-family="Helvetica,sans-Serif" font-size="10.00">message/message.h</text>
</a>
</g>
</g>
<!-- Node1&#45;&gt;Node20 -->
<g id="edge37_Node000001_Node000020" class="edge">
<title>Node1&#45;&gt;Node20</title>
<g id="a_edge37_Node000001_Node000020"><a xlink:title=" ">
<path fill="none" stroke="#63b8ff" d="M807.85,-326.07C895.81,-290.09 1090.86,-210.32 1155.06,-184.06"/>
<polygon fill="#63b8ff" stroke="#63b8ff" points="806.35,-322.9 798.42,-329.92 809,-329.38 806.35,-322.9"/>
</a>
</g>
</g>
<!-- Node3 -->
<g id="Node000003" class="node">
<title>Node3</title>
<g id="a_Node000003"><a xlink:href="client_8cc.html" target="_top" xlink:title=" ">
<polygon fill="white" stroke="#666666" points="716.5,-74 629.5,-74 629.5,-55 716.5,-55 716.5,-74"/>
<text text-anchor="middle" x="673" y="-62" font-family="Helvetica,sans-Serif" font-size="10.00">client/client.cc</text>
</a>
</g>
</g>
<!-- Node2&#45;&gt;Node3 -->
<g id="edge2_Node000002_Node000003" class="edge">
<title>Node2&#45;&gt;Node3</title>
<g id="a_edge2_Node000002_Node000003"><a xlink:title=" ">
<path fill="none" stroke="#63b8ff" d="M755,-155.65C747.84,-142.34 737.05,-124.11 725,-110 712.96,-95.91 696.29,-82.46 685.09,-74.11"/>
<polygon fill="#63b8ff" stroke="#63b8ff" points="752,-157.47 759.73,-164.72 758.21,-154.23 752,-157.47"/>
</a>
</g>
</g>
<!-- Node4 -->
<g id="Node000004" class="node">
<title>Node4</title>
<g id="a_Node000004"><a xlink:href="client__ws_8cc.html" target="_top" xlink:title=" ">
<polygon fill="white" stroke="#666666" points="447,-74 341,-74 341,-55 447,-55 447,-74"/>
<text text-anchor="middle" x="394" y="-62" font-family="Helvetica,sans-Serif" font-size="10.00">client/client_ws.cc</text>
</a>
</g>
</g>
<!-- Node2&#45;&gt;Node4 -->
<g id="edge3_Node000002_Node000004" class="edge">
<title>Node2&#45;&gt;Node4</title>
<g id="a_edge3_Node000002_Node000004"><a xlink:title=" ">
<path fill="none" stroke="#63b8ff" d="M744.08,-159.22C722.64,-144.56 687,-122.22 653,-110 584.41,-85.36 500.57,-74.14 447.22,-69.19"/>
<polygon fill="#63b8ff" stroke="#63b8ff" points="742.15,-162.14 752.36,-164.98 746.15,-156.4 742.15,-162.14"/>
</a>
</g>
</g>
<!-- Node5 -->
<g id="Node000005" class="node">
<title>Node5</title>
<g id="a_Node000005"><a xlink:href="field_8cc.html" target="_top" xlink:title=" ">
<polygon fill="white" stroke="#666666" points="385.5,-129 304.5,-129 304.5,-110 385.5,-110 385.5,-129"/>
<text text-anchor="middle" x="345" y="-117" font-family="Helvetica,sans-Serif" font-size="10.00">client/field.cc</text>
</a>
</g>
</g>
<!-- Node2&#45;&gt;Node5 -->
<g id="edge4_Node000002_Node000005" class="edge">
<title>Node2&#45;&gt;Node5</title>
<g id="a_edge4_Node000002_Node000005"><a xlink:title=" ">
<path fill="none" stroke="#63b8ff" d="M691.11,-165.87C616.38,-157.77 496.86,-144.1 394,-129 391.27,-128.6 388.45,-128.17 385.62,-127.71"/>
<polygon fill="#63b8ff" stroke="#63b8ff" points="691.03,-169.38 701.35,-166.97 691.78,-162.42 691.03,-169.38"/>
</a>
</g>
</g>
<!-- Node6 -->
<g id="Node000006" class="node">
<title>Node6</title>
<g id="a_Node000006"><a xlink:href="func_8cc.html" target="_top" xlink:title=" ">
<polygon fill="white" stroke="#666666" points="966.5,-129 885.5,-129 885.5,-110 966.5,-110 966.5,-129"/>
<text text-anchor="middle" x="926" y="-117" font-family="Helvetica,sans-Serif" font-size="10.00">client/func.cc</text>
</a>
</g>
</g>
<!-- Node2&#45;&gt;Node6 -->
<g id="edge5_Node000002_Node000006" class="edge">
<title>Node2&#45;&gt;Node6</title>
<g id="a_edge5_Node000002_Node000006"><a xlink:title=" ">
<path fill="none" stroke="#63b8ff" d="M799.77,-161.8C830,-151.91 872.61,-137.97 899.77,-129.08"/>
<polygon fill="#63b8ff" stroke="#63b8ff" points="798.44,-158.55 790.03,-164.98 800.62,-165.2 798.44,-158.55"/>
</a>
</g>
</g>
<!-- Node7 -->
<g id="Node000007" class="node">
<title>Node7</title>
<g id="a_Node000007"><a xlink:href="log_8cc.html" target="_top" xlink:title=" ">
<polygon fill="white" stroke="#666666" points="1263.5,-129 1188.5,-129 1188.5,-110 1263.5,-110 1263.5,-129"/>
<text text-anchor="middle" x="1226" y="-117" font-family="Helvetica,sans-Serif" font-size="10.00">client/log.cc</text>
</a>
</g>
</g>
<!-- Node2&#45;&gt;Node7 -->
<g id="edge6_Node000002_Node000007" class="edge">
<title>Node2&#45;&gt;Node7</title>
<g id="a_edge6_Node000002_Node000007"><a xlink:title=" ">
<path fill="none" stroke="#63b8ff" d="M836.67,-167.42C919.86,-160.06 1060.12,-146.46 1180,-129 1182.73,-128.6 1185.55,-128.16 1188.38,-127.69"/>
<polygon fill="#63b8ff" stroke="#63b8ff" points="836.21,-163.94 826.56,-168.3 836.83,-170.92 836.21,-163.94"/>
</a>
</g>
</g>
<!-- Node8 -->
<g id="Node000008" class="node">
<title>Node8</title>
<g id="a_Node000008"><a xlink:href="logger_8cc.html" target="_top" xlink:title=" ">
<polygon fill="white" stroke="#666666" points="867,-129 777,-129 777,-110 867,-110 867,-129"/>
<text text-anchor="middle" x="822" y="-117" font-family="Helvetica,sans-Serif" font-size="10.00">client/logger.cc</text>
</a>
</g>
</g>
<!-- Node2&#45;&gt;Node8 -->
<g id="edge7_Node000002_Node000008" class="edge">
<title>Node2&#45;&gt;Node8</title>
<g id="a_edge7_Node000002_Node000008"><a xlink:title=" ">
<path fill="none" stroke="#63b8ff" d="M780.91,-158.04C791.2,-148.64 803.97,-136.98 812.51,-129.17"/>
<polygon fill="#63b8ff" stroke="#63b8ff" points="778.34,-155.66 773.32,-164.98 783.06,-160.82 778.34,-155.66"/>
</a>
</g>
</g>
<!-- Node9 -->
<g id="Node000009" class="node">
<title>Node9</title>
<g id="a_Node000009"><a xlink:href="member_8cc.html" target="_top" xlink:title=" ">
<polygon fill="white" stroke="#666666" points="504.5,-129 403.5,-129 403.5,-110 504.5,-110 504.5,-129"/>
<text text-anchor="middle" x="454" y="-117" font-family="Helvetica,sans-Serif" font-size="10.00">client/member.cc</text>
</a>
</g>
</g>
<!-- Node2&#45;&gt;Node9 -->
<g id="edge8_Node000002_Node000009" class="edge">
<title>Node2&#45;&gt;Node9</title>
<g id="a_edge8_Node000002_Node000009"><a xlink:title=" ">
<path fill="none" stroke="#63b8ff" d="M704.04,-163.25C645.82,-153.3 558.49,-138.36 503.94,-129.04"/>
<polygon fill="#63b8ff" stroke="#63b8ff" points="703.75,-166.75 714.19,-164.98 704.93,-159.85 703.75,-166.75"/>
</a>
</g>
</g>
<!-- Node10 -->
<g id="Node000010" class="node">
<title>Node10</title>
<g id="a_Node000010"><a xlink:href="text_8cc.html" target="_top" xlink:title=" ">
<polygon fill="white" stroke="#666666" points="1065,-129 985,-129 985,-110 1065,-110 1065,-129"/>
<text text-anchor="middle" x="1025" y="-117" font-family="Helvetica,sans-Serif" font-size="10.00">client/text.cc</text>
</a>
</g>
</g>
<!-- Node2&#45;&gt;Node10 -->
<g id="edge9_Node000002_Node000010" class="edge">
<title>Node2&#45;&gt;Node10</title>
<g id="a_edge9_Node000002_Node000010"><a xlink:title=" ">
<path fill="none" stroke="#63b8ff" d="M815.84,-162.97C865.55,-152.88 939.53,-137.86 984.88,-128.65"/>
<polygon fill="#63b8ff" stroke="#63b8ff" points="815.04,-159.56 805.93,-164.98 816.43,-166.42 815.04,-159.56"/>
</a>
</g>
</g>
<!-- Node11 -->
<g id="Node000011" class="node">
<title>Node11</title>
<g id="a_Node000011"><a xlink:href="value_8cc.html" target="_top" xlink:title=" ">
<polygon fill="white" stroke="#666666" points="1170.5,-129 1083.5,-129 1083.5,-110 1170.5,-110 1170.5,-129"/>
<text text-anchor="middle" x="1127" y="-117" font-family="Helvetica,sans-Serif" font-size="10.00">client/value.cc</text>
</a>
</g>
</g>
<!-- Node2&#45;&gt;Node11 -->
<g id="edge10_Node000002_Node000011" class="edge">
<title>Node2&#45;&gt;Node11</title>
<g id="a_edge10_Node000002_Node000011"><a xlink:title=" ">
<path fill="none" stroke="#63b8ff" d="M835.71,-163.55C898.57,-154.74 992.4,-141.4 1074,-129 1077.04,-128.54 1080.18,-128.05 1083.34,-127.56"/>
<polygon fill="#63b8ff" stroke="#63b8ff" points="834.93,-160.12 825.51,-164.97 835.9,-167.05 834.93,-160.12"/>
</a>
</g>
</g>
<!-- Node12 -->
<g id="Node000012" class="node">
<title>Node12</title>
<g id="a_Node000012"><a xlink:href="view_8cc.html" target="_top" xlink:title=" ">
<polygon fill="white" stroke="#666666" points="644.5,-129 561.5,-129 561.5,-110 644.5,-110 644.5,-129"/>
<text text-anchor="middle" x="603" y="-117" font-family="Helvetica,sans-Serif" font-size="10.00">client/view.cc</text>
</a>
</g>
</g>
<!-- Node2&#45;&gt;Node12 -->
<g id="edge11_Node000002_Node000012" class="edge">
<title>Node2&#45;&gt;Node12</title>
<g id="a_edge11_Node000002_Node000012"><a xlink:title=" ">
<path fill="none" stroke="#63b8ff" d="M728.45,-161.8C698.41,-151.91 656.06,-137.97 629.07,-129.08"/>
<polygon fill="#63b8ff" stroke="#63b8ff" points="727.54,-165.18 738.13,-164.98 729.73,-158.53 727.54,-165.18"/>
</a>
</g>
</g>
<!-- Node13&#45;&gt;Node2 -->
<g id="edge13_Node000013_Node000002" class="edge">
<title>Node13&#45;&gt;Node2</title>
<g id="a_edge13_Node000013_Node000002"><a xlink:title=" ">
<path fill="none" stroke="#63b8ff" d="M902,-217.06C869.1,-207.15 822.26,-193.04 792.5,-184.08"/>
<polygon fill="#63b8ff" stroke="#63b8ff" points="901.14,-220.45 911.72,-219.98 903.16,-213.75 901.14,-220.45"/>
</a>
</g>
</g>
<!-- Node14 -->
<g id="Node000014" class="node">
<title>Node14</title>
<g id="a_Node000014"><a xlink:href="data__store2_8cc.html" target="_top" xlink:title=" ">
<polygon fill="white" stroke="#666666" points="1001,-184 883,-184 883,-165 1001,-165 1001,-184"/>
<text text-anchor="middle" x="942" y="-172" font-family="Helvetica,sans-Serif" font-size="10.00">client/data_store2.cc</text>
</a>
</g>
</g>
<!-- Node13&#45;&gt;Node14 -->
<g id="edge14_Node000013_Node000014" class="edge">
<title>Node13&#45;&gt;Node14</title>
<g id="a_edge14_Node000013_Node000014"><a xlink:title=" ">
<path fill="none" stroke="#63b8ff" d="M940.71,-209.66C941.04,-200.93 941.42,-190.99 941.68,-184.09"/>
<polygon fill="#63b8ff" stroke="#63b8ff" points="937.21,-209.62 940.33,-219.75 944.2,-209.89 937.21,-209.62"/>
</a>
</g>
</g>
<!-- Node15&#45;&gt;Node3 -->
<g id="edge16_Node000015_Node000003" class="edge">
<title>Node15&#45;&gt;Node3</title>
<g id="a_edge16_Node000015_Node000003"><a xlink:title=" ">
<path fill="none" stroke="#63b8ff" d="M565.25,-272.1C586.18,-265.54 607.74,-255.23 623,-239 668.96,-190.13 673.02,-101.72 673.12,-74.03"/>
<polygon fill="#63b8ff" stroke="#63b8ff" points="564.02,-268.81 555.38,-274.94 565.96,-275.54 564.02,-268.81"/>
</a>
</g>
</g>
<!-- Node15&#45;&gt;Node6 -->
<g id="edge17_Node000015_Node000006" class="edge">
<title>Node15&#45;&gt;Node6</title>
<g id="a_edge17_Node000015_Node000006"><a xlink:title=" ">
<path fill="none" stroke="#63b8ff" d="M558.51,-273.05C628.13,-259.38 744.48,-231.42 835,-184 866.23,-167.64 899.31,-142.22 915.64,-129.05"/>
<polygon fill="#63b8ff" stroke="#63b8ff" points="557.74,-269.63 548.59,-274.96 559.07,-276.51 557.74,-269.63"/>
</a>
</g>
</g>
<!-- Node15&#45;&gt;Node9 -->
<g id="edge18_Node000015_Node000009" class="edge">
<title>Node15&#45;&gt;Node9</title>
<g id="a_edge18_Node000015_Node000009"><a xlink:title=" ">
<path fill="none" stroke="#63b8ff" d="M484.59,-266.89C478.85,-258.91 472.65,-248.94 469,-239 454.64,-199.87 453.58,-149.13 453.79,-129.14"/>
<polygon fill="#63b8ff" stroke="#63b8ff" points="481.87,-269.1 490.71,-274.94 487.45,-264.86 481.87,-269.1"/>
</a>
</g>
</g>
<!-- Node16 -->
<g id="Node000016" class="node">
<title>Node16</title>
<g id="a_Node000016"><a xlink:href="client_8h.html" target="_top" xlink:title=" ">
<polygon fill="white" stroke="#666666" points="286,-129 146,-129 146,-110 286,-110 286,-129"/>
<text text-anchor="middle" x="216" y="-117" font-family="Helvetica,sans-Serif" font-size="10.00">include/webcface/client.h</text>
</a>
</g>
</g>
<!-- Node15&#45;&gt;Node16 -->
<g id="edge19_Node000015_Node000016" class="edge">
<title>Node15&#45;&gt;Node16</title>
<g id="a_edge19_Node000015_Node000016"><a xlink:title=" ">
<path fill="none" stroke="#63b8ff" d="M450.2,-272.39C398.64,-258.53 316.27,-230.79 259,-184 240.03,-168.5 226.11,-142.48 219.79,-129.07"/>
<polygon fill="#63b8ff" stroke="#63b8ff" points="449.52,-275.83 460.09,-274.98 451.3,-269.06 449.52,-275.83"/>
</a>
</g>
</g>
<!-- Node15&#45;&gt;Node17 -->
<g id="edge35_Node000015_Node000017" class="edge">
<title>Node15&#45;&gt;Node17</title>
<g id="a_edge35_Node000015_Node000017"><a xlink:title=" ">
<path fill="none" stroke="#63b8ff" d="M440.54,-272.91C404,-265.35 356.01,-253.9 315,-239 211.13,-201.27 158.85,-217 92,-129 79.65,-112.74 78.79,-87.5 79.33,-74.27"/>
<polygon fill="#63b8ff" stroke="#63b8ff" points="440.03,-276.38 450.53,-274.94 441.42,-269.52 440.03,-276.38"/>
</a>
</g>
</g>
<!-- Node18 -->
<g id="Node000018" class="node">
<title>Node18</title>
<g id="a_Node000018"><a xlink:href="member_8h.html" target="_top" xlink:title=" ">
<polygon fill="white" stroke="#666666" points="422,-184 268,-184 268,-165 422,-165 422,-184"/>
<text text-anchor="middle" x="345" y="-172" font-family="Helvetica,sans-Serif" font-size="10.00">include/webcface/member.h</text>
</a>
</g>
</g>
<!-- Node15&#45;&gt;Node18 -->
<g id="edge23_Node000015_Node000018" class="edge">
<title>Node15&#45;&gt;Node18</title>
<g id="a_edge23_Node000015_Node000018"><a xlink:title=" ">
<path fill="none" stroke="#63b8ff" d="M477.47,-269.01C445.19,-246.22 383.56,-202.72 357.32,-184.2"/>
<polygon fill="#63b8ff" stroke="#63b8ff" points="475.55,-271.94 485.74,-274.84 479.59,-266.22 475.55,-271.94"/>
</a>
</g>
</g>
<!-- Node19 -->
<g id="Node000019" class="node">
<title>Node19</title>
<g id="a_Node000019"><a xlink:href="view_8h.html" target="_top" xlink:title=" ">
<polygon fill="white" stroke="#666666" points="614,-239 478,-239 478,-220 614,-220 614,-239"/>
<text text-anchor="middle" x="546" y="-227" font-family="Helvetica,sans-Serif" font-size="10.00">include/webcface/view.h</text>
</a>
</g>
</g>
<!-- Node15&#45;&gt;Node19 -->
<g id="edge29_Node000015_Node000019" class="edge">
<title>Node15&#45;&gt;Node19</title>
<g id="a_edge29_Node000015_Node000019"><a xlink:title=" ">
<path fill="none" stroke="#63b8ff" d="M512.73,-267.24C521.14,-257.95 531.35,-246.68 538.22,-239.09"/>
<polygon fill="#63b8ff" stroke="#63b8ff" points="510.04,-264.99 505.93,-274.75 515.23,-269.69 510.04,-264.99"/>
</a>
</g>
</g>
<!-- Node16&#45;&gt;Node3 -->
<g id="edge20_Node000016_Node000003" class="edge">
<title>Node16&#45;&gt;Node3</title>
<g id="a_edge20_Node000016_Node000003"><a xlink:title=" ">
<path fill="none" stroke="#63b8ff" d="M296.46,-109.17C393.44,-97.92 552.88,-79.43 629.38,-70.56"/>
<polygon fill="#63b8ff" stroke="#63b8ff" points="295.93,-105.71 286.4,-110.33 296.74,-112.66 295.93,-105.71"/>
</a>
</g>
</g>
<!-- Node16&#45;&gt;Node4 -->
<g id="edge21_Node000016_Node000004" class="edge">
<title>Node16&#45;&gt;Node4</title>
<g id="a_edge21_Node000016_Node000004"><a xlink:title=" ">
<path fill="none" stroke="#63b8ff" d="M254.44,-107.06C287.7,-97.15 335.08,-83.04 365.18,-74.08"/>
<polygon fill="#63b8ff" stroke="#63b8ff" points="253.18,-103.78 244.6,-109.98 255.18,-110.49 253.18,-103.78"/>
</a>
</g>
</g>
<!-- Node16&#45;&gt;Node17 -->
<g id="edge22_Node000016_Node000017" class="edge">
<title>Node16&#45;&gt;Node17</title>
<g id="a_edge22_Node000016_Node000017"><a xlink:title=" ">
<path fill="none" stroke="#63b8ff" d="M184.67,-106.29C159.46,-96.47 124.67,-82.91 102.25,-74.17"/>
<polygon fill="#63b8ff" stroke="#63b8ff" points="183.56,-109.61 194.15,-109.98 186.1,-103.09 183.56,-109.61"/>
</a>
</g>
</g>
<!-- Node18&#45;&gt;Node5 -->
<g id="edge24_Node000018_Node000005" class="edge">
<title>Node18&#45;&gt;Node5</title>
<g id="a_edge24_Node000018_Node000005"><a xlink:title=" ">
<path fill="none" stroke="#63b8ff" d="M345,-154.66C345,-145.93 345,-135.99 345,-129.09"/>
<polygon fill="#63b8ff" stroke="#63b8ff" points="341.5,-154.75 345,-164.75 348.5,-154.75 341.5,-154.75"/>
</a>
</g>
</g>
<!-- Node18&#45;&gt;Node9 -->
<g id="edge25_Node000018_Node000009" class="edge">
<title>Node18&#45;&gt;Node9</title>
<g id="a_edge25_Node000018_Node000009"><a xlink:title=" ">
<path fill="none" stroke="#63b8ff" d="M371.73,-160.5C391.79,-150.75 418.68,-137.68 436.17,-129.17"/>
<polygon fill="#63b8ff" stroke="#63b8ff" points="369.98,-157.46 362.51,-164.98 373.04,-163.76 369.98,-157.46"/>
</a>
</g>
</g>
<!-- Node18&#45;&gt;Node12 -->
<g id="edge26_Node000018_Node000012" class="edge">
<title>Node18&#45;&gt;Node12</title>
<g id="a_edge26_Node000018_Node000012"><a xlink:title=" ">
<path fill="none" stroke="#63b8ff" d="M396.4,-162.94C444.76,-153.01 516.28,-138.31 561.22,-129.08"/>
<polygon fill="#63b8ff" stroke="#63b8ff" points="395.54,-159.54 386.45,-164.98 396.95,-166.4 395.54,-159.54"/>
</a>
</g>
</g>
<!-- Node18&#45;&gt;Node16 -->
<g id="edge27_Node000018_Node000016" class="edge">
<title>Node18&#45;&gt;Node16</title>
<g id="a_edge27_Node000018_Node000016"><a xlink:title=" ">
<path fill="none" stroke="#63b8ff" d="M314.96,-161.16C291.08,-151.35 258.28,-137.87 237.1,-129.17"/>
<polygon fill="#63b8ff" stroke="#63b8ff" points="313.69,-164.42 324.27,-164.98 316.35,-157.95 313.69,-164.42"/>
</a>
</g>
</g>
<!-- Node18&#45;&gt;Node17 -->
<g id="edge28_Node000018_Node000017" class="edge">
<title>Node18&#45;&gt;Node17</title>
<g id="a_edge28_Node000018_Node000017"><a xlink:title=" ">
<path fill="none" stroke="#63b8ff" d="M257.45,-167.06C218.52,-161.2 173.37,-150.07 137,-129 113.16,-115.19 93.87,-87.93 85.11,-74.05"/>
<polygon fill="#63b8ff" stroke="#63b8ff" points="257.34,-170.58 267.73,-168.51 258.32,-163.65 257.34,-170.58"/>
</a>
</g>
</g>
<!-- Node19&#45;&gt;Node3 -->
<g id="edge30_Node000019_Node000003" class="edge">
<title>Node19&#45;&gt;Node3</title>
<g id="a_edge30_Node000019_Node000003"><a xlink:title=" ">
<path fill="none" stroke="#63b8ff" d="M541.17,-209.93C535.78,-184.69 530.41,-139.34 552,-110 569.91,-85.66 602.58,-74.62 629.46,-69.62"/>
<polygon fill="#63b8ff" stroke="#63b8ff" points="537.77,-210.77 543.48,-219.7 544.59,-209.16 537.77,-210.77"/>
</a>
</g>
</g>
<!-- Node19&#45;&gt;Node9 -->
<g id="edge31_Node000019_Node000009" class="edge">
<title>Node19&#45;&gt;Node9</title>
<g id="a_edge31_Node000019_Node000009"><a xlink:title=" ">
<path fill="none" stroke="#63b8ff" d="M531.94,-212C512.13,-188.73 476.68,-147.13 461.38,-129.16"/>
<polygon fill="#63b8ff" stroke="#63b8ff" points="529.32,-214.32 538.47,-219.66 534.65,-209.78 529.32,-214.32"/>
</a>
</g>
</g>
<!-- Node19&#45;&gt;Node12 -->
<g id="edge32_Node000019_Node000012" class="edge">
<title>Node19&#45;&gt;Node12</title>
<g id="a_edge32_Node000019_Node000012"><a xlink:title=" ">
<path fill="none" stroke="#63b8ff" d="M555.36,-210.76C567.75,-187.28 589.11,-146.81 598.43,-129.16"/>
<polygon fill="#63b8ff" stroke="#63b8ff" points="552.24,-209.18 550.66,-219.66 558.43,-212.45 552.24,-209.18"/>
</a>
</g>
</g>
<!-- Node19&#45;&gt;Node17 -->
<g id="edge34_Node000019_Node000017" class="edge">
<title>Node19&#45;&gt;Node17</title>
<g id="a_edge34_Node000019_Node000017"><a xlink:title=" ">
<path fill="none" stroke="#63b8ff" d="M467.84,-219.96C356.95,-206.34 161.64,-176.29 110,-129 93.46,-113.85 85.2,-87.67 81.86,-74.15"/>
<polygon fill="#63b8ff" stroke="#63b8ff" points="467.63,-223.46 477.97,-221.19 468.47,-216.51 467.63,-223.46"/>
</a>
</g>
</g>
<!-- Node19&#45;&gt;Node18 -->
<g id="edge33_Node000019_Node000018" class="edge">
<title>Node19&#45;&gt;Node18</title>
<g id="a_edge33_Node000019_Node000018"><a xlink:title=" ">
<path fill="none" stroke="#63b8ff" d="M503.57,-217.31C465.96,-207.39 411.83,-193.12 377.55,-184.08"/>
<polygon fill="#63b8ff" stroke="#63b8ff" points="503.14,-220.82 513.71,-219.98 504.93,-214.05 503.14,-220.82"/>
</a>
</g>
</g>
<!-- Node20&#45;&gt;Node3 -->
<g id="edge38_Node000020_Node000003" class="edge">
<title>Node20&#45;&gt;Node3</title>
<g id="a_edge38_Node000020_Node000003"><a xlink:title=" ">
<path fill="none" stroke="#63b8ff" d="M1220.27,-162.01C1254.93,-150.98 1294.03,-132.65 1273,-110 1235.33,-69.43 848.58,-65.54 716.74,-65.4"/>
<polygon fill="#63b8ff" stroke="#63b8ff" points="1219.21,-158.68 1210.66,-164.93 1221.25,-165.37 1219.21,-158.68"/>
</a>
</g>
</g>
<!-- Node20&#45;&gt;Node6 -->
<g id="edge39_Node000020_Node000006" class="edge">
<title>Node20&#45;&gt;Node6</title>
<g id="a_edge39_Node000020_Node000006"><a xlink:title=" ">
<path fill="none" stroke="#63b8ff" d="M1125.9,-162.88C1079.04,-152.94 1009.94,-138.3 966.48,-129.08"/>
<polygon fill="#63b8ff" stroke="#63b8ff" points="1125.32,-166.33 1135.83,-164.98 1126.78,-159.49 1125.32,-166.33"/>
</a>
</g>
</g>
<!-- Node20&#45;&gt;Node7 -->
<g id="edge40_Node000020_Node000007" class="edge">
<title>Node20&#45;&gt;Node7</title>
<g id="a_edge40_Node000020_Node000007"><a xlink:title=" ">
<path fill="none" stroke="#63b8ff" d="M1191.34,-157.24C1200.1,-147.95 1210.74,-136.68 1217.9,-129.09"/>
<polygon fill="#63b8ff" stroke="#63b8ff" points="1188.57,-155.07 1184.26,-164.75 1193.66,-159.88 1188.57,-155.07"/>
</a>
</g>
</g>
<!-- Node20&#45;&gt;Node9 -->
<g id="edge41_Node000020_Node000009" class="edge">
<title>Node20&#45;&gt;Node9</title>
<g id="a_edge41_Node000020_Node000009"><a xlink:title=" ">
<path fill="none" stroke="#63b8ff" d="M1107.42,-168.95C992.5,-161.26 753.79,-144.95 552,-129 536.59,-127.78 519.83,-126.36 504.6,-125.04"/>
<polygon fill="#63b8ff" stroke="#63b8ff" points="1107.27,-172.45 1117.48,-169.63 1107.73,-165.47 1107.27,-172.45"/>
</a>
</g>
</g>
<!-- Node20&#45;&gt;Node10 -->
<g id="edge42_Node000020_Node000010" class="edge">
<title>Node20&#45;&gt;Node10</title>
<g id="a_edge42_Node000020_Node000010"><a xlink:title=" ">
<path fill="none" stroke="#63b8ff" d="M1141.95,-161.55C1113.91,-151.71 1074.82,-137.98 1049.7,-129.17"/>
<polygon fill="#63b8ff" stroke="#63b8ff" points="1141.14,-164.98 1151.74,-164.98 1143.46,-158.37 1141.14,-164.98"/>
</a>
</g>
</g>
<!-- Node20&#45;&gt;Node11 -->
<g id="edge43_Node000020_Node000011" class="edge">
<title>Node20&#45;&gt;Node11</title>
<g id="a_edge43_Node000020_Node000011"><a xlink:title=" ">
<path fill="none" stroke="#63b8ff" d="M1160.97,-157.24C1152.38,-147.95 1141.96,-136.68 1134.94,-129.09"/>
<polygon fill="#63b8ff" stroke="#63b8ff" points="1158.55,-159.78 1167.91,-164.75 1163.69,-155.03 1158.55,-159.78"/>
</a>
</g>
</g>
<!-- Node20&#45;&gt;Node12 -->
<g id="edge44_Node000020_Node000012" class="edge">
<title>Node20&#45;&gt;Node12</title>
<g id="a_edge44_Node000020_Node000012"><a xlink:title=" ">
<path fill="none" stroke="#63b8ff" d="M1107.19,-167.14C987.05,-156.02 742.51,-133.4 644.75,-124.36"/>
<polygon fill="#63b8ff" stroke="#63b8ff" points="1107.09,-170.64 1117.37,-168.08 1107.74,-163.67 1107.09,-170.64"/>
</a>
</g>
</g>
<!-- Node21 -->
<g id="Node000021" class="node">
<title>Node21</title>
<g id="a_Node000021"><a xlink:href="message_8cc.html" target="_top" xlink:title=" ">
<polygon fill="white" stroke="#666666" points="1734,-129 1612,-129 1612,-110 1734,-110 1734,-129"/>
<text text-anchor="middle" x="1673" y="-117" font-family="Helvetica,sans-Serif" font-size="10.00">message/message.cc</text>
</a>
</g>
</g>
<!-- Node20&#45;&gt;Node21 -->
<g id="edge45_Node000020_Node000021" class="edge">
<title>Node20&#45;&gt;Node21</title>
<g id="a_edge45_Node000020_Node000021"><a xlink:title=" ">
<path fill="none" stroke="#63b8ff" d="M1244.85,-166.41C1328.41,-157.76 1473.57,-142.61 1598,-129 1602.43,-128.52 1607,-128.01 1611.61,-127.5"/>
<polygon fill="#63b8ff" stroke="#63b8ff" points="1244.31,-162.94 1234.73,-167.45 1245.03,-169.91 1244.31,-162.94"/>
</a>
</g>
</g>
<!-- Node22 -->
<g id="Node000022" class="node">
<title>Node22</title>
<g id="a_Node000022"><a xlink:href="s__client__data_8cc.html" target="_top" xlink:title=" ">
<polygon fill="white" stroke="#666666" points="1399,-19 1271,-19 1271,0 1399,0 1399,-19"/>
<text text-anchor="middle" x="1335" y="-7" font-family="Helvetica,sans-Serif" font-size="10.00">server/s_client_data.cc</text>
</a>
</g>
</g>
<!-- Node20&#45;&gt;Node22 -->
<g id="edge46_Node000020_Node000022" class="edge">
<title>Node20&#45;&gt;Node22</title>
<g id="a_edge46_Node000020_Node000022"><a xlink:title=" ">
<path fill="none" stroke="#63b8ff" d="M1230.08,-162.08C1250.72,-155.4 1273.08,-145 1289,-129 1320.76,-97.09 1331.11,-40.79 1334.01,-19.23"/>
<polygon fill="#63b8ff" stroke="#63b8ff" points="1229,-158.75 1220.44,-164.99 1231.02,-165.46 1229,-158.75"/>
</a>
</g>
</g>
<!-- Node23 -->
<g id="Node000023" class="node">
<title>Node23</title>
<g id="a_Node000023"><a xlink:href="s__client__data_8h.html" target="_top" xlink:title=" ">
<polygon fill="white" stroke="#666666" points="1482,-129 1358,-129 1358,-110 1482,-110 1482,-129"/>
<text text-anchor="middle" x="1420" y="-117" font-family="Helvetica,sans-Serif" font-size="10.00">server/s_client_data.h</text>
</a>
</g>
</g>
<!-- Node20&#45;&gt;Node23 -->
<g id="edge47_Node000020_Node000023" class="edge">
<title>Node20&#45;&gt;Node23</title>
<g id="a_edge47_Node000020_Node000023"><a xlink:title=" ">
<path fill="none" stroke="#63b8ff" d="M1225.19,-162.82C1270.92,-152.88 1338.16,-138.28 1380.49,-129.08"/>
<polygon fill="#63b8ff" stroke="#63b8ff" points="1224.23,-159.44 1215.2,-164.98 1225.72,-166.28 1224.23,-159.44"/>
</a>
</g>
</g>
<!-- Node26 -->
<g id="Node000026" class="node">
<title>Node26</title>
<g id="a_Node000026"><a xlink:href="websock_8cc.html" target="_top" xlink:title=" ">
<polygon fill="white" stroke="#666666" points="1631.5,-19 1524.5,-19 1524.5,0 1631.5,0 1631.5,-19"/>
<text text-anchor="middle" x="1578" y="-7" font-family="Helvetica,sans-Serif" font-size="10.00">server/websock.cc</text>
</a>
</g>
</g>
<!-- Node20&#45;&gt;Node26 -->
<g id="edge55_Node000020_Node000026" class="edge">
<title>Node20&#45;&gt;Node26</title>
<g id="a_edge55_Node000020_Node000026"><a xlink:title=" ">
<path fill="none" stroke="#63b8ff" d="M1244.93,-168.61C1324.16,-162.15 1448.72,-149.18 1491,-129 1523.35,-113.56 1529.23,-103.22 1550,-74 1562.56,-56.32 1571.3,-32.11 1575.38,-19.29"/>
<polygon fill="#63b8ff" stroke="#63b8ff" points="1244.23,-165.16 1234.54,-169.44 1244.79,-172.14 1244.23,-165.16"/>
</a>
</g>
</g>
<!-- Node23&#45;&gt;Node22 -->
<g id="edge48_Node000023_Node000022" class="edge">
<title>Node23&#45;&gt;Node22</title>
<g id="a_edge48_Node000023_Node000022"><a xlink:title=" ">
<path fill="none" stroke="#63b8ff" d="M1406.77,-101.69C1388.42,-78.37 1355.9,-37.05 1341.81,-19.16"/>
<polygon fill="#63b8ff" stroke="#63b8ff" points="1404.11,-103.97 1413.04,-109.66 1409.61,-99.64 1404.11,-103.97"/>
</a>
</g>
</g>
<!-- Node24 -->
<g id="Node000024" class="node">
<title>Node24</title>
<g id="a_Node000024"><a xlink:href="store_8cc.html" target="_top" xlink:title=" ">
<polygon fill="white" stroke="#666666" points="1506.5,-19 1417.5,-19 1417.5,0 1506.5,0 1506.5,-19"/>
<text text-anchor="middle" x="1462" y="-7" font-family="Helvetica,sans-Serif" font-size="10.00">server/store.cc</text>
</a>
</g>
</g>
<!-- Node23&#45;&gt;Node24 -->
<g id="edge49_Node000023_Node000024" class="edge">
<title>Node23&#45;&gt;Node24</title>
<g id="a_edge49_Node000023_Node000024"><a xlink:title=" ">
<path fill="none" stroke="#63b8ff" d="M1418.55,-99.82C1418.23,-86.79 1419.2,-69.26 1425,-55 1430.83,-40.67 1443.03,-27.47 1451.83,-19.24"/>
<polygon fill="#63b8ff" stroke="#63b8ff" points="1415.06,-100.1 1419.08,-109.91 1422.05,-99.74 1415.06,-100.1"/>
</a>
</g>
</g>
<!-- Node25 -->
<g id="Node000025" class="node">
<title>Node25</title>
<g id="a_Node000025"><a xlink:href="store_8h.html" target="_top" xlink:title=" ">
<polygon fill="white" stroke="#666666" points="1518,-74 1434,-74 1434,-55 1518,-55 1518,-74"/>
<text text-anchor="middle" x="1476" y="-62" font-family="Helvetica,sans-Serif" font-size="10.00">server/store.h</text>
</a>
</g>
</g>
<!-- Node23&#45;&gt;Node25 -->
<g id="edge50_Node000023_Node000025" class="edge">
<title>Node23&#45;&gt;Node25</title>
<g id="a_edge50_Node000023_Node000025"><a xlink:title=" ">
<path fill="none" stroke="#63b8ff" d="M1436.33,-103.04C1446.26,-93.64 1458.59,-81.98 1466.84,-74.17"/>
<polygon fill="#63b8ff" stroke="#63b8ff" points="1433.85,-100.57 1429,-109.98 1438.67,-105.65 1433.85,-100.57"/>
</a>
</g>
</g>
<!-- Node23&#45;&gt;Node26 -->
<g id="edge54_Node000023_Node000026" class="edge">
<title>Node23&#45;&gt;Node26</title>
<g id="a_edge54_Node000023_Node000026"><a xlink:title=" ">
<path fill="none" stroke="#63b8ff" d="M1461.27,-106.75C1482.27,-99.49 1507.42,-88.71 1527,-74 1547.8,-58.38 1565.05,-32.41 1573.1,-19.04"/>
<polygon fill="#63b8ff" stroke="#63b8ff" points="1460.04,-103.47 1451.65,-109.94 1462.24,-110.12 1460.04,-103.47"/>
</a>
</g>
</g>
<!-- Node25&#45;&gt;Node22 -->
<g id="edge51_Node000025_Node000022" class="edge">
<title>Node25&#45;&gt;Node22</title>
<g id="a_edge51_Node000025_Node000022"><a xlink:title=" ">
<path fill="none" stroke="#63b8ff" d="M1443.86,-51.42C1417.71,-41.59 1381.41,-27.95 1358.07,-19.17"/>
<polygon fill="#63b8ff" stroke="#63b8ff" points="1442.75,-54.74 1453.35,-54.98 1445.22,-48.19 1442.75,-54.74"/>
</a>
</g>
</g>
<!-- Node25&#45;&gt;Node24 -->
<g id="edge52_Node000025_Node000024" class="edge">
<title>Node25&#45;&gt;Node24</title>
<g id="a_edge52_Node000025_Node000024"><a xlink:title=" ">
<path fill="none" stroke="#63b8ff" d="M1471.1,-44.95C1468.78,-36.15 1466.11,-26.06 1464.27,-19.09"/>
<polygon fill="#63b8ff" stroke="#63b8ff" points="1467.75,-45.97 1473.69,-54.75 1474.52,-44.19 1467.75,-45.97"/>
</a>
</g>
</g>
<!-- Node25&#45;&gt;Node26 -->
<g id="edge53_Node000025_Node000026" class="edge">
<title>Node25&#45;&gt;Node26</title>
<g id="a_edge53_Node000025_Node000026"><a xlink:title=" ">
<path fill="none" stroke="#63b8ff" d="M1501.27,-50.37C1520.01,-40.63 1545.02,-27.64 1561.31,-19.17"/>
<polygon fill="#63b8ff" stroke="#63b8ff" points="1499.65,-47.27 1492.39,-54.98 1502.88,-53.48 1499.65,-47.27"/>
</a>
</g>
</g>
</g>
</svg>
