<?xml version="1.0" encoding="UTF-8" standalone="no"?>
<!DOCTYPE svg PUBLIC "-//W3C//DTD SVG 1.1//EN"
 "http://www.w3.org/Graphics/SVG/1.1/DTD/svg11.dtd">
<!-- Generated by graphviz version 2.43.0 (0)
 -->
<!-- Title: include/webcface/common/log.h Pages: 1 -->
<svg width="1868pt" height="313pt"
 viewBox="0.00 0.00 1868.41 313.00" xmlns="http://www.w3.org/2000/svg" xmlns:xlink="http://www.w3.org/1999/xlink">
<g id="graph0" class="graph" transform="scale(1 1) rotate(0) translate(4 309)">
<title>include/webcface/common/log.h</title>
<!-- Node1 -->
<g id="Node000001" class="node">
<title>Node1</title>
<g id="a_Node000001"><a xlink:title=" ">
<polygon fill="#999999" stroke="#666666" points="588,-305 441,-305 441,-275 588,-275 588,-305"/>
<text text-anchor="start" x="449" y="-293" font-family="Helvetica,sans-Serif" font-size="10.00">include/webcface/common</text>
<text text-anchor="middle" x="514.5" y="-282" font-family="Helvetica,sans-Serif" font-size="10.00">/log.h</text>
</a>
</g>
</g>
<!-- Node2 -->
<g id="Node000002" class="node">
<title>Node2</title>
<g id="a_Node000002"><a xlink:href="client__internal_8h.html" target="_top" xlink:title=" ">
<polygon fill="white" stroke="#666666" points="820,-129 695,-129 695,-110 820,-110 820,-129"/>
<text text-anchor="middle" x="757.5" y="-117" font-family="Helvetica,sans-Serif" font-size="10.00">client/client_internal.h</text>
</a>
</g>
</g>
<!-- Node1&#45;&gt;Node2 -->
<g id="edge1_Node000001_Node000002" class="edge">
<title>Node1&#45;&gt;Node2</title>
<g id="a_edge1_Node000001_Node000002"><a xlink:title=" ">
<path fill="none" stroke="#63b8ff" d="M561.69,-270.95C581.48,-262.48 604.31,-251.49 623.5,-239 676.33,-204.6 729.64,-150.25 749.44,-129.21"/>
<polygon fill="#63b8ff" stroke="#63b8ff" points="560.12,-267.82 552.25,-274.9 562.83,-274.27 560.12,-267.82"/>
</a>
</g>
</g>
<!-- Node20 -->
<g id="Node000020" class="node">
<title>Node20</title>
<g id="a_Node000020"><a xlink:href="data__store1_8h.html" target="_top" xlink:title=" ">
<polygon fill="white" stroke="#666666" points="614,-239 501,-239 501,-220 614,-220 614,-239"/>
<text text-anchor="middle" x="557.5" y="-227" font-family="Helvetica,sans-Serif" font-size="10.00">client/data_store1.h</text>
</a>
</g>
</g>
<!-- Node1&#45;&gt;Node20 -->
<g id="edge21_Node000001_Node000020" class="edge">
<title>Node1&#45;&gt;Node20</title>
<g id="a_edge21_Node000001_Node000020"><a xlink:title=" ">
<path fill="none" stroke="#63b8ff" d="M531.03,-266.51C538.03,-256.99 545.76,-246.47 551.06,-239.27"/>
<polygon fill="#63b8ff" stroke="#63b8ff" points="528.01,-264.71 524.91,-274.84 533.65,-268.85 528.01,-264.71"/>
</a>
</g>
</g>
<!-- Node22 -->
<g id="Node000022" class="node">
<title>Node22</title>
<g id="a_Node000022"><a xlink:href="log_8h.html" target="_top" xlink:title=" ">
<polygon fill="white" stroke="#666666" points="259.5,-184 131.5,-184 131.5,-165 259.5,-165 259.5,-184"/>
<text text-anchor="middle" x="195.5" y="-172" font-family="Helvetica,sans-Serif" font-size="10.00">include/webcface/log.h</text>
</a>
</g>
</g>
<!-- Node1&#45;&gt;Node22 -->
<g id="edge24_Node000001_Node000022" class="edge">
<title>Node1&#45;&gt;Node22</title>
<g id="a_edge24_Node000001_Node000022"><a xlink:title=" ">
<path fill="none" stroke="#63b8ff" d="M431.03,-277.07C389,-269.32 337.89,-257.19 294.5,-239 259.66,-224.4 223.47,-197.74 206.08,-184.07"/>
<polygon fill="#63b8ff" stroke="#63b8ff" points="430.49,-280.53 440.95,-278.85 431.73,-273.64 430.49,-280.53"/>
</a>
</g>
</g>
<!-- Node23 -->
<g id="Node000023" class="node">
<title>Node23</title>
<g id="a_Node000023"><a xlink:href="webcface_8h.html" target="_top" xlink:title=" ">
<polygon fill="white" stroke="#666666" points="388.5,-129 228.5,-129 228.5,-110 388.5,-110 388.5,-129"/>
<text text-anchor="middle" x="308.5" y="-117" font-family="Helvetica,sans-Serif" font-size="10.00">include/webcface/webcface.h</text>
</a>
</g>
</g>
<!-- Node1&#45;&gt;Node23 -->
<g id="edge33_Node000001_Node000023" class="edge">
<title>Node1&#45;&gt;Node23</title>
<g id="a_edge33_Node000001_Node000023"><a xlink:title=" ">
<path fill="none" stroke="#63b8ff" d="M460.31,-271.36C418.32,-255.03 361.71,-226.75 327.5,-184 314.41,-167.65 310.33,-142.45 309.06,-129.25"/>
<polygon fill="#63b8ff" stroke="#63b8ff" points="459.24,-274.7 469.83,-274.96 461.72,-268.15 459.24,-274.7"/>
</a>
</g>
</g>
<!-- Node24 -->
<g id="Node000024" class="node">
<title>Node24</title>
<g id="a_Node000024"><a xlink:href="logger_8h.html" target="_top" xlink:title=" ">
<polygon fill="white" stroke="#666666" points="480,-184 337,-184 337,-165 480,-165 480,-184"/>
<text text-anchor="middle" x="408.5" y="-172" font-family="Helvetica,sans-Serif" font-size="10.00">include/webcface/logger.h</text>
</a>
</g>
</g>
<!-- Node1&#45;&gt;Node24 -->
<g id="edge29_Node000001_Node000024" class="edge">
<title>Node1&#45;&gt;Node24</title>
<g id="a_edge29_Node000001_Node000024"><a xlink:title=" ">
<path fill="none" stroke="#63b8ff" d="M493.97,-267.02C470.45,-241.83 433.05,-201.79 416.65,-184.23"/>
<polygon fill="#63b8ff" stroke="#63b8ff" points="491.69,-269.71 501.08,-274.63 496.81,-264.93 491.69,-269.71"/>
</a>
</g>
</g>
<!-- Node25 -->
<g id="Node000025" class="node">
<title>Node25</title>
<g id="a_Node000025"><a xlink:href="message_8h.html" target="_top" xlink:title=" ">
<polygon fill="white" stroke="#666666" points="1297,-239 1180,-239 1180,-220 1297,-220 1297,-239"/>
<text text-anchor="middle" x="1238.5" y="-227" font-family="Helvetica,sans-Serif" font-size="10.00">message/message.h</text>
</a>
</g>
</g>
<!-- Node1&#45;&gt;Node25 -->
<g id="edge34_Node000001_Node000025" class="edge">
<title>Node1&#45;&gt;Node25</title>
<g id="a_edge34_Node000001_Node000025"><a xlink:title=" ">
<path fill="none" stroke="#63b8ff" d="M598.21,-282.24C746.52,-270.25 1051.85,-245.58 1179.93,-235.23"/>
<polygon fill="#63b8ff" stroke="#63b8ff" points="597.93,-278.75 588.24,-283.04 598.49,-285.72 597.93,-278.75"/>
</a>
</g>
</g>
<!-- Node3 -->
<g id="Node000003" class="node">
<title>Node3</title>
<g id="a_Node000003"><a xlink:href="canvas2d_8cc.html" target="_top" xlink:title=" ">
<polygon fill="white" stroke="#666666" points="1696,-74 1589,-74 1589,-55 1696,-55 1696,-74"/>
<text text-anchor="middle" x="1642.5" y="-62" font-family="Helvetica,sans-Serif" font-size="10.00">client/canvas2d.cc</text>
</a>
</g>
</g>
<!-- Node2&#45;&gt;Node3 -->
<g id="edge2_Node000002_Node000003" class="edge">
<title>Node2&#45;&gt;Node3</title>
<g id="a_edge2_Node000002_Node000003"><a xlink:title=" ">
<path fill="none" stroke="#63b8ff" d="M830.75,-109.97C1164.29,-82.85 1251.17,-104.41 1580.5,-74 1583.2,-73.75 1585.97,-73.47 1588.76,-73.16"/>
<polygon fill="#63b8ff" stroke="#63b8ff" points="829.98,-106.52 820.3,-110.82 830.56,-113.49 829.98,-106.52"/>
</a>
</g>
</g>
<!-- Node4 -->
<g id="Node000004" class="node">
<title>Node4</title>
<g id="a_Node000004"><a xlink:href="canvas3d_8cc.html" target="_top" xlink:title=" ">
<polygon fill="white" stroke="#666666" points="1821,-74 1714,-74 1714,-55 1821,-55 1821,-74"/>
<text text-anchor="middle" x="1767.5" y="-62" font-family="Helvetica,sans-Serif" font-size="10.00">client/canvas3d.cc</text>
</a>
</g>
</g>
<!-- Node2&#45;&gt;Node4 -->
<g id="edge3_Node000002_Node000004" class="edge">
<title>Node2&#45;&gt;Node4</title>
<g id="a_edge3_Node000002_Node000004"><a xlink:title=" ">
<path fill="none" stroke="#63b8ff" d="M830.43,-110C1219.66,-79.63 1320.69,-108.21 1705.5,-74 1708.21,-73.76 1710.97,-73.48 1713.77,-73.19"/>
<polygon fill="#63b8ff" stroke="#63b8ff" points="829.99,-106.52 820.3,-110.8 830.54,-113.5 829.99,-106.52"/>
</a>
</g>
</g>
<!-- Node5 -->
<g id="Node000005" class="node">
<title>Node5</title>
<g id="a_Node000005"><a xlink:href="canvas__data_8cc.html" target="_top" xlink:title=" ">
<polygon fill="white" stroke="#666666" points="639.5,-74 517.5,-74 517.5,-55 639.5,-55 639.5,-74"/>
<text text-anchor="middle" x="578.5" y="-62" font-family="Helvetica,sans-Serif" font-size="10.00">client/canvas_data.cc</text>
</a>
</g>
</g>
<!-- Node2&#45;&gt;Node5 -->
<g id="edge4_Node000002_Node000005" class="edge">
<title>Node2&#45;&gt;Node5</title>
<g id="a_edge4_Node000002_Node000005"><a xlink:title=" ">
<path fill="none" stroke="#63b8ff" d="M718.85,-107.06C685.39,-97.15 637.75,-83.04 607.48,-74.08"/>
<polygon fill="#63b8ff" stroke="#63b8ff" points="718.16,-110.5 728.74,-109.98 720.15,-103.79 718.16,-110.5"/>
</a>
</g>
</g>
<!-- Node6 -->
<g id="Node000006" class="node">
<title>Node6</title>
<g id="a_Node000006"><a xlink:href="client_2client_8cc.html" target="_top" xlink:title=" ">
<polygon fill="white" stroke="#666666" points="759,-19 672,-19 672,0 759,0 759,-19"/>
<text text-anchor="middle" x="715.5" y="-7" font-family="Helvetica,sans-Serif" font-size="10.00">client/client.cc</text>
</a>
</g>
</g>
<!-- Node2&#45;&gt;Node6 -->
<g id="edge5_Node000002_Node000006" class="edge">
<title>Node2&#45;&gt;Node6</title>
<g id="a_edge5_Node000002_Node000006"><a xlink:title=" ">
<path fill="none" stroke="#63b8ff" d="M829.84,-107.83C870.7,-98.63 909.72,-82.37 888.5,-55 872.78,-34.72 805.08,-22.06 759.18,-15.65"/>
<polygon fill="#63b8ff" stroke="#63b8ff" points="829.07,-104.42 820.01,-109.91 830.52,-111.27 829.07,-104.42"/>
</a>
</g>
</g>
<!-- Node7 -->
<g id="Node000007" class="node">
<title>Node7</title>
<g id="a_Node000007"><a xlink:href="client__ws_8cc.html" target="_top" xlink:title=" ">
<polygon fill="white" stroke="#666666" points="461.5,-19 355.5,-19 355.5,0 461.5,0 461.5,-19"/>
<text text-anchor="middle" x="408.5" y="-7" font-family="Helvetica,sans-Serif" font-size="10.00">client/client_ws.cc</text>
</a>
</g>
</g>
<!-- Node2&#45;&gt;Node7 -->
<g id="edge6_Node000002_Node000007" class="edge">
<title>Node2&#45;&gt;Node7</title>
<g id="a_edge6_Node000002_Node000007"><a xlink:title=" ">
<path fill="none" stroke="#63b8ff" d="M684.45,-114.81C582.49,-108.91 407.77,-95.73 388.5,-74 374.54,-58.26 390.54,-32.81 400.95,-19.4"/>
<polygon fill="#63b8ff" stroke="#63b8ff" points="684.51,-118.32 694.69,-115.4 684.9,-111.33 684.51,-118.32"/>
</a>
</g>
</g>
<!-- Node8 -->
<g id="Node000008" class="node">
<title>Node8</title>
<g id="a_Node000008"><a xlink:href="client__ws_8h.html" target="_top" xlink:title=" ">
<polygon fill="white" stroke="#666666" points="499,-74 398,-74 398,-55 499,-55 499,-74"/>
<text text-anchor="middle" x="448.5" y="-62" font-family="Helvetica,sans-Serif" font-size="10.00">client/client_ws.h</text>
</a>
</g>
</g>
<!-- Node2&#45;&gt;Node8 -->
<g id="edge7_Node000002_Node000008" class="edge">
<title>Node2&#45;&gt;Node8</title>
<g id="a_edge7_Node000002_Node000008"><a xlink:title=" ">
<path fill="none" stroke="#63b8ff" d="M697.73,-108.25C639.7,-98.3 552.65,-83.36 498.28,-74.04"/>
<polygon fill="#63b8ff" stroke="#63b8ff" points="697.41,-111.74 707.85,-109.98 698.59,-104.84 697.41,-111.74"/>
</a>
</g>
</g>
<!-- Node9 -->
<g id="Node000009" class="node">
<title>Node9</title>
<g id="a_Node000009"><a xlink:href="field_8cc.html" target="_top" xlink:title=" ">
<polygon fill="white" stroke="#666666" points="739,-74 658,-74 658,-55 739,-55 739,-74"/>
<text text-anchor="middle" x="698.5" y="-62" font-family="Helvetica,sans-Serif" font-size="10.00">client/field.cc</text>
</a>
</g>
</g>
<!-- Node2&#45;&gt;Node9 -->
<g id="edge10_Node000002_Node000009" class="edge">
<title>Node2&#45;&gt;Node9</title>
<g id="a_edge10_Node000002_Node000009"><a xlink:title=" ">
<path fill="none" stroke="#63b8ff" d="M740.3,-103.04C729.83,-93.64 716.85,-81.98 708.15,-74.17"/>
<polygon fill="#63b8ff" stroke="#63b8ff" points="738.24,-105.91 748.02,-109.98 742.92,-100.7 738.24,-105.91"/>
</a>
</g>
</g>
<!-- Node10 -->
<g id="Node000010" class="node">
<title>Node10</title>
<g id="a_Node000010"><a xlink:href="client_2func_8cc.html" target="_top" xlink:title=" ">
<polygon fill="white" stroke="#666666" points="1017,-74 936,-74 936,-55 1017,-55 1017,-74"/>
<text text-anchor="middle" x="976.5" y="-62" font-family="Helvetica,sans-Serif" font-size="10.00">client/func.cc</text>
</a>
</g>
</g>
<!-- Node2&#45;&gt;Node10 -->
<g id="edge11_Node000002_Node000010" class="edge">
<title>Node2&#45;&gt;Node10</title>
<g id="a_edge11_Node000002_Node000010"><a xlink:title=" ">
<path fill="none" stroke="#63b8ff" d="M802.43,-107.63C843.45,-97.7 903.29,-83.22 941.04,-74.08"/>
<polygon fill="#63b8ff" stroke="#63b8ff" points="801.58,-104.23 792.69,-109.98 803.23,-111.03 801.58,-104.23"/>
</a>
</g>
</g>
<!-- Node11 -->
<g id="Node000011" class="node">
<title>Node11</title>
<g id="a_Node000011"><a xlink:href="func__listener_8cc.html" target="_top" xlink:title=" ">
<polygon fill="white" stroke="#666666" points="879.5,-74 757.5,-74 757.5,-55 879.5,-55 879.5,-74"/>
<text text-anchor="middle" x="818.5" y="-62" font-family="Helvetica,sans-Serif" font-size="10.00">client/func_listener.cc</text>
</a>
</g>
</g>
<!-- Node2&#45;&gt;Node11 -->
<g id="edge12_Node000002_Node000011" class="edge">
<title>Node2&#45;&gt;Node11</title>
<g id="a_edge12_Node000002_Node000011"><a xlink:title=" ">
<path fill="none" stroke="#63b8ff" d="M774.97,-103.32C785.84,-93.87 799.44,-82.06 808.52,-74.17"/>
<polygon fill="#63b8ff" stroke="#63b8ff" points="772.55,-100.78 767.3,-109.98 777.15,-106.07 772.55,-100.78"/>
</a>
</g>
</g>
<!-- Node12 -->
<g id="Node000012" class="node">
<title>Node12</title>
<g id="a_Node000012"><a xlink:href="image_8cc.html" target="_top" xlink:title=" ">
<polygon fill="white" stroke="#666666" points="1126,-74 1035,-74 1035,-55 1126,-55 1126,-74"/>
<text text-anchor="middle" x="1080.5" y="-62" font-family="Helvetica,sans-Serif" font-size="10.00">client/image.cc</text>
</a>
</g>
</g>
<!-- Node2&#45;&gt;Node12 -->
<g id="edge13_Node000002_Node000012" class="edge">
<title>Node2&#45;&gt;Node12</title>
<g id="a_edge13_Node000002_Node000012"><a xlink:title=" ">
<path fill="none" stroke="#63b8ff" d="M819.6,-108.31C882.63,-97.97 978.71,-82.2 1035,-72.97"/>
<polygon fill="#63b8ff" stroke="#63b8ff" points="818.7,-104.91 809.4,-109.98 819.83,-111.82 818.7,-104.91"/>
</a>
</g>
</g>
<!-- Node13 -->
<g id="Node000013" class="node">
<title>Node13</title>
<g id="a_Node000013"><a xlink:href="log_8cc.html" target="_top" xlink:title=" ">
<polygon fill="white" stroke="#666666" points="233,-74 158,-74 158,-55 233,-55 233,-74"/>
<text text-anchor="middle" x="195.5" y="-62" font-family="Helvetica,sans-Serif" font-size="10.00">client/log.cc</text>
</a>
</g>
</g>
<!-- Node2&#45;&gt;Node13 -->
<g id="edge14_Node000002_Node000013" class="edge">
<title>Node2&#45;&gt;Node13</title>
<g id="a_edge14_Node000002_Node000013"><a xlink:title=" ">
<path fill="none" stroke="#63b8ff" d="M684.59,-113.04C563.48,-103.83 325.91,-85.12 242.5,-74 239.46,-73.59 236.31,-73.13 233.16,-72.63"/>
<polygon fill="#63b8ff" stroke="#63b8ff" points="684.64,-116.55 694.88,-113.82 685.17,-109.57 684.64,-116.55"/>
</a>
</g>
</g>
<!-- Node14 -->
<g id="Node000014" class="node">
<title>Node14</title>
<g id="a_Node000014"><a xlink:href="logger_8cc.html" target="_top" xlink:title=" ">
<polygon fill="white" stroke="#666666" points="341.5,-74 251.5,-74 251.5,-55 341.5,-55 341.5,-74"/>
<text text-anchor="middle" x="296.5" y="-62" font-family="Helvetica,sans-Serif" font-size="10.00">client/logger.cc</text>
</a>
</g>
</g>
<!-- Node2&#45;&gt;Node14 -->
<g id="edge15_Node000002_Node000014" class="edge">
<title>Node2&#45;&gt;Node14</title>
<g id="a_edge15_Node000002_Node000014"><a xlink:title=" ">
<path fill="none" stroke="#63b8ff" d="M684.47,-110.43C569.68,-97.75 359.55,-74.52 355.5,-74 350.98,-73.42 346.28,-72.8 341.58,-72.15"/>
<polygon fill="#63b8ff" stroke="#63b8ff" points="684.27,-113.93 694.6,-111.55 685.04,-106.97 684.27,-113.93"/>
</a>
</g>
</g>
<!-- Node15 -->
<g id="Node000015" class="node">
<title>Node15</title>
<g id="a_Node000015"><a xlink:href="member_8cc.html" target="_top" xlink:title=" ">
<polygon fill="white" stroke="#666666" points="101,-74 0,-74 0,-55 101,-55 101,-74"/>
<text text-anchor="middle" x="50.5" y="-62" font-family="Helvetica,sans-Serif" font-size="10.00">client/member.cc</text>
</a>
</g>
</g>
<!-- Node2&#45;&gt;Node15 -->
<g id="edge16_Node000002_Node000015" class="edge">
<title>Node2&#45;&gt;Node15</title>
<g id="a_edge16_Node000002_Node000015"><a xlink:title=" ">
<path fill="none" stroke="#63b8ff" d="M684.77,-113.51C570.54,-105.59 342.12,-89.47 148.5,-74 133.09,-72.77 116.33,-71.35 101.1,-70.02"/>
<polygon fill="#63b8ff" stroke="#63b8ff" points="684.58,-117 694.79,-114.2 685.06,-110.02 684.58,-117"/>
</a>
</g>
</g>
<!-- Node16 -->
<g id="Node000016" class="node">
<title>Node16</title>
<g id="a_Node000016"><a xlink:href="robot__model_8cc.html" target="_top" xlink:title=" ">
<polygon fill="white" stroke="#666666" points="1266.5,-74 1144.5,-74 1144.5,-55 1266.5,-55 1266.5,-74"/>
<text text-anchor="middle" x="1205.5" y="-62" font-family="Helvetica,sans-Serif" font-size="10.00">client/robot_model.cc</text>
</a>
</g>
</g>
<!-- Node2&#45;&gt;Node16 -->
<g id="edge17_Node000002_Node000016" class="edge">
<title>Node2&#45;&gt;Node16</title>
<g id="a_edge17_Node000002_Node000016"><a xlink:title=" ">
<path fill="none" stroke="#63b8ff" d="M830.36,-109.9C967.15,-93.79 1002.72,-89.87 1135.5,-74 1138.42,-73.65 1141.4,-73.29 1144.42,-72.93"/>
<polygon fill="#63b8ff" stroke="#63b8ff" points="829.85,-106.44 820.33,-111.08 830.67,-113.39 829.85,-106.44"/>
</a>
</g>
</g>
<!-- Node17 -->
<g id="Node000017" class="node">
<title>Node17</title>
<g id="a_Node000017"><a xlink:href="client_2text_8cc.html" target="_top" xlink:title=" ">
<polygon fill="white" stroke="#666666" points="1364.5,-74 1284.5,-74 1284.5,-55 1364.5,-55 1364.5,-74"/>
<text text-anchor="middle" x="1324.5" y="-62" font-family="Helvetica,sans-Serif" font-size="10.00">client/text.cc</text>
</a>
</g>
</g>
<!-- Node2&#45;&gt;Node17 -->
<g id="edge18_Node000002_Node000017" class="edge">
<title>Node2&#45;&gt;Node17</title>
<g id="a_edge18_Node000002_Node000017"><a xlink:title=" ">
<path fill="none" stroke="#63b8ff" d="M830.5,-109.94C1029.12,-90.62 1081.49,-98.61 1275.5,-74 1278.41,-73.63 1281.42,-73.21 1284.43,-72.76"/>
<polygon fill="#63b8ff" stroke="#63b8ff" points="829.92,-106.48 820.31,-110.95 830.61,-113.45 829.92,-106.48"/>
</a>
</g>
</g>
<!-- Node18 -->
<g id="Node000018" class="node">
<title>Node18</title>
<g id="a_Node000018"><a xlink:href="client_2value_8cc.html" target="_top" xlink:title=" ">
<polygon fill="white" stroke="#666666" points="1470,-74 1383,-74 1383,-55 1470,-55 1470,-74"/>
<text text-anchor="middle" x="1426.5" y="-62" font-family="Helvetica,sans-Serif" font-size="10.00">client/value.cc</text>
</a>
</g>
</g>
<!-- Node2&#45;&gt;Node18 -->
<g id="edge19_Node000002_Node000018" class="edge">
<title>Node2&#45;&gt;Node18</title>
<g id="a_edge19_Node000002_Node000018"><a xlink:title=" ">
<path fill="none" stroke="#63b8ff" d="M830.48,-109.97C1072.51,-88.15 1136.02,-100.84 1373.5,-74 1376.56,-73.65 1379.7,-73.26 1382.87,-72.83"/>
<polygon fill="#63b8ff" stroke="#63b8ff" points="829.95,-106.5 820.31,-110.89 830.59,-113.47 829.95,-106.5"/>
</a>
</g>
</g>
<!-- Node19 -->
<g id="Node000019" class="node">
<title>Node19</title>
<g id="a_Node000019"><a xlink:href="client_2view_8cc.html" target="_top" xlink:title=" ">
<polygon fill="white" stroke="#666666" points="1571,-74 1488,-74 1488,-55 1571,-55 1571,-74"/>
<text text-anchor="middle" x="1529.5" y="-62" font-family="Helvetica,sans-Serif" font-size="10.00">client/view.cc</text>
</a>
</g>
</g>
<!-- Node2&#45;&gt;Node19 -->
<g id="edge20_Node000002_Node000019" class="edge">
<title>Node2&#45;&gt;Node19</title>
<g id="a_edge20_Node000002_Node000019"><a xlink:title=" ">
<path fill="none" stroke="#63b8ff" d="M830.67,-109.96C1119.52,-85.52 1195.35,-105.92 1479.5,-74 1482.21,-73.7 1485,-73.34 1487.81,-72.95"/>
<polygon fill="#63b8ff" stroke="#63b8ff" points="829.97,-106.51 820.31,-110.85 830.57,-113.49 829.97,-106.51"/>
</a>
</g>
</g>
<!-- Node8&#45;&gt;Node6 -->
<g id="edge8_Node000008_Node000006" class="edge">
<title>Node8&#45;&gt;Node6</title>
<g id="a_edge8_Node000008_Node000006"><a xlink:title=" ">
<path fill="none" stroke="#63b8ff" d="M501.38,-53C551.43,-43.07 625.66,-28.33 672.27,-19.08"/>
<polygon fill="#63b8ff" stroke="#63b8ff" points="500.53,-49.6 491.4,-54.98 501.89,-56.47 500.53,-49.6"/>
</a>
</g>
</g>
<!-- Node8&#45;&gt;Node7 -->
<g id="edge9_Node000008_Node000007" class="edge">
<title>Node8&#45;&gt;Node7</title>
<g id="a_edge9_Node000008_Node000007"><a xlink:title=" ">
<path fill="none" stroke="#63b8ff" d="M435.8,-46.67C428.87,-37.5 420.59,-26.52 414.98,-19.09"/>
<polygon fill="#63b8ff" stroke="#63b8ff" points="433.08,-48.87 441.89,-54.75 438.66,-44.66 433.08,-48.87"/>
</a>
</g>
</g>
<!-- Node20&#45;&gt;Node2 -->
<g id="edge22_Node000020_Node000002" class="edge">
<title>Node20&#45;&gt;Node2</title>
<g id="a_edge22_Node000020_Node000002"><a xlink:title=" ">
<path fill="none" stroke="#63b8ff" d="M582.5,-215C624.26,-192.45 707.03,-147.75 741.67,-129.05"/>
<polygon fill="#63b8ff" stroke="#63b8ff" points="580.66,-212.01 573.53,-219.84 583.99,-218.17 580.66,-212.01"/>
</a>
</g>
</g>
<!-- Node21 -->
<g id="Node000021" class="node">
<title>Node21</title>
<g id="a_Node000021"><a xlink:href="data__store1_8cc.html" target="_top" xlink:title=" ">
<polygon fill="white" stroke="#666666" points="616.5,-184 498.5,-184 498.5,-165 616.5,-165 616.5,-184"/>
<text text-anchor="middle" x="557.5" y="-172" font-family="Helvetica,sans-Serif" font-size="10.00">client/data_store1.cc</text>
</a>
</g>
</g>
<!-- Node20&#45;&gt;Node21 -->
<g id="edge23_Node000020_Node000021" class="edge">
<title>Node20&#45;&gt;Node21</title>
<g id="a_edge23_Node000020_Node000021"><a xlink:title=" ">
<path fill="none" stroke="#63b8ff" d="M557.5,-209.66C557.5,-200.93 557.5,-190.99 557.5,-184.09"/>
<polygon fill="#63b8ff" stroke="#63b8ff" points="554,-209.75 557.5,-219.75 561,-209.75 554,-209.75"/>
</a>
</g>
</g>
<!-- Node22&#45;&gt;Node6 -->
<g id="edge25_Node000022_Node000006" class="edge">
<title>Node22&#45;&gt;Node6</title>
<g id="a_edge25_Node000022_Node000006"><a xlink:title=" ">
<path fill="none" stroke="#63b8ff" d="M179.61,-157.46C156.95,-132.66 120.96,-84.78 148.5,-55 166.22,-35.83 541.67,-17.96 671.66,-12.33"/>
<polygon fill="#63b8ff" stroke="#63b8ff" points="177.26,-160.06 186.68,-164.92 182.34,-155.25 177.26,-160.06"/>
</a>
</g>
</g>
<!-- Node22&#45;&gt;Node13 -->
<g id="edge26_Node000022_Node000013" class="edge">
<title>Node22&#45;&gt;Node13</title>
<g id="a_edge26_Node000022_Node000013"><a xlink:title=" ">
<path fill="none" stroke="#63b8ff" d="M195.5,-154.48C195.5,-130.84 195.5,-91.5 195.5,-74.16"/>
<polygon fill="#63b8ff" stroke="#63b8ff" points="192,-154.66 195.5,-164.66 199,-154.66 192,-154.66"/>
</a>
</g>
</g>
<!-- Node22&#45;&gt;Node15 -->
<g id="edge27_Node000022_Node000015" class="edge">
<title>Node22&#45;&gt;Node15</title>
<g id="a_edge27_Node000022_Node000015"><a xlink:title=" ">
<path fill="none" stroke="#63b8ff" d="M167.56,-160.28C151.66,-152.2 131.75,-141.12 115.5,-129 92.48,-111.84 69.34,-86.98 57.88,-74.05"/>
<polygon fill="#63b8ff" stroke="#63b8ff" points="166.35,-163.59 176.86,-164.9 169.47,-157.32 166.35,-163.59"/>
</a>
</g>
</g>
<!-- Node22&#45;&gt;Node23 -->
<g id="edge28_Node000022_Node000023" class="edge">
<title>Node22&#45;&gt;Node23</title>
<g id="a_edge28_Node000022_Node000023"><a xlink:title=" ">
<path fill="none" stroke="#63b8ff" d="M222.93,-160.63C243.75,-150.87 271.8,-137.71 290.01,-129.17"/>
<polygon fill="#63b8ff" stroke="#63b8ff" points="221.22,-157.57 213.66,-164.98 224.2,-163.91 221.22,-157.57"/>
</a>
</g>
</g>
<!-- Node24&#45;&gt;Node2 -->
<g id="edge30_Node000024_Node000002" class="edge">
<title>Node24&#45;&gt;Node2</title>
<g id="a_edge30_Node000024_Node000002"><a xlink:title=" ">
<path fill="none" stroke="#63b8ff" d="M474.79,-163.43C540.32,-153.48 639.49,-138.42 701.28,-129.04"/>
<polygon fill="#63b8ff" stroke="#63b8ff" points="473.93,-160.02 464.57,-164.98 474.99,-166.94 473.93,-160.02"/>
</a>
</g>
</g>
<!-- Node24&#45;&gt;Node14 -->
<g id="edge31_Node000024_Node000014" class="edge">
<title>Node24&#45;&gt;Node14</title>
<g id="a_edge31_Node000024_Node000014"><a xlink:title=" ">
<path fill="none" stroke="#63b8ff" d="M409.72,-154.44C409.61,-140.73 407.3,-122.53 397.5,-110 382.98,-91.43 359.1,-80.44 338.2,-74.02"/>
<polygon fill="#63b8ff" stroke="#63b8ff" points="406.22,-154.57 409.42,-164.67 413.21,-154.78 406.22,-154.57"/>
</a>
</g>
</g>
<!-- Node24&#45;&gt;Node23 -->
<g id="edge32_Node000024_Node000023" class="edge">
<title>Node24&#45;&gt;Node23</title>
<g id="a_edge32_Node000024_Node000023"><a xlink:title=" ">
<path fill="none" stroke="#63b8ff" d="M383.47,-160.23C365.13,-150.51 340.76,-137.6 324.86,-129.17"/>
<polygon fill="#63b8ff" stroke="#63b8ff" points="381.96,-163.39 392.43,-164.98 385.24,-157.21 381.96,-163.39"/>
</a>
</g>
</g>
<!-- Node25&#45;&gt;Node3 -->
<g id="edge35_Node000025_Node000003" class="edge">
<title>Node25&#45;&gt;Node3</title>
<g id="a_edge35_Node000025_Node000003"><a xlink:title=" ">
<path fill="none" stroke="#63b8ff" d="M1307.42,-223.26C1381.48,-216.72 1493.67,-203.91 1531.5,-184 1582.89,-156.96 1623.45,-96.71 1637.33,-74.2"/>
<polygon fill="#63b8ff" stroke="#63b8ff" points="1306.9,-219.79 1297.23,-224.14 1307.5,-226.77 1306.9,-219.79"/>
</a>
</g>
</g>
<!-- Node25&#45;&gt;Node4 -->
<g id="edge36_Node000025_Node000004" class="edge">
<title>Node25&#45;&gt;Node4</title>
<g id="a_edge36_Node000025_Node000004"><a xlink:title=" ">
<path fill="none" stroke="#63b8ff" d="M1307.52,-226.38C1373.52,-222.63 1475.05,-212.3 1558.5,-184 1639.87,-156.4 1725.62,-96.49 1756.01,-74.14"/>
<polygon fill="#63b8ff" stroke="#63b8ff" points="1307.04,-222.9 1297.24,-226.93 1307.41,-229.89 1307.04,-222.9"/>
</a>
</g>
</g>
<!-- Node25&#45;&gt;Node6 -->
<g id="edge37_Node000025_Node000006" class="edge">
<title>Node25&#45;&gt;Node6</title>
<g id="a_edge37_Node000025_Node000006"><a xlink:title=" ">
<path fill="none" stroke="#63b8ff" d="M1307.25,-229.43C1493.8,-229.88 1985.44,-216.25 1830.5,-55 1792.77,-15.73 960.97,-11.11 759.27,-10.57"/>
<polygon fill="#63b8ff" stroke="#63b8ff" points="1307.01,-225.92 1297,-229.39 1306.99,-232.92 1307.01,-225.92"/>
</a>
</g>
</g>
<!-- Node25&#45;&gt;Node10 -->
<g id="edge41_Node000025_Node000010" class="edge">
<title>Node25&#45;&gt;Node10</title>
<g id="a_edge41_Node000025_Node000010"><a xlink:title=" ">
<path fill="none" stroke="#63b8ff" d="M1169.46,-224.01C1132.59,-218.76 1088.04,-207.59 1054.5,-184 1013.2,-154.95 988.03,-96.44 979.64,-74.28"/>
<polygon fill="#63b8ff" stroke="#63b8ff" points="1169.27,-227.51 1179.64,-225.33 1170.17,-220.57 1169.27,-227.51"/>
</a>
</g>
</g>
<!-- Node25&#45;&gt;Node12 -->
<g id="edge42_Node000025_Node000012" class="edge">
<title>Node25&#45;&gt;Node12</title>
<g id="a_edge42_Node000025_Node000012"><a xlink:title=" ">
<path fill="none" stroke="#63b8ff" d="M1169.92,-219.3C1128.11,-212.12 1080.31,-200.57 1067.5,-184 1041.68,-150.6 1065.26,-95.18 1075.91,-74.05"/>
<polygon fill="#63b8ff" stroke="#63b8ff" points="1169.41,-222.76 1179.84,-220.94 1170.55,-215.86 1169.41,-222.76"/>
</a>
</g>
</g>
<!-- Node25&#45;&gt;Node13 -->
<g id="edge43_Node000025_Node000013" class="edge">
<title>Node25&#45;&gt;Node13</title>
<g id="a_edge43_Node000025_Node000013"><a xlink:title=" ">
<path fill="none" stroke="#63b8ff" d="M1169.77,-222.55C1088.87,-215.17 950.56,-201.43 832.5,-184 603.54,-150.2 331.14,-94.19 233.03,-73.5"/>
<polygon fill="#63b8ff" stroke="#63b8ff" points="1169.56,-226.04 1179.83,-223.46 1170.19,-219.07 1169.56,-226.04"/>
</a>
</g>
</g>
<!-- Node25&#45;&gt;Node15 -->
<g id="edge44_Node000025_Node000015" class="edge">
<title>Node25&#45;&gt;Node15</title>
<g id="a_edge44_Node000025_Node000015"><a xlink:title=" ">
<path fill="none" stroke="#63b8ff" d="M1169.52,-227.54C933.11,-224.02 167.67,-210.61 122.5,-184 79.56,-158.71 58.99,-96.84 52.68,-74.08"/>
<polygon fill="#63b8ff" stroke="#63b8ff" points="1169.65,-231.04 1179.7,-227.69 1169.76,-224.04 1169.65,-231.04"/>
</a>
</g>
</g>
<!-- Node25&#45;&gt;Node16 -->
<g id="edge45_Node000025_Node000016" class="edge">
<title>Node25&#45;&gt;Node16</title>
<g id="a_edge45_Node000025_Node000016"><a xlink:title=" ">
<path fill="none" stroke="#63b8ff" d="M1171.72,-218.09C1133.55,-210.62 1091.03,-199.2 1079.5,-184 1043.84,-136.99 1137.16,-92.33 1182.47,-74.11"/>
<polygon fill="#63b8ff" stroke="#63b8ff" points="1171.35,-221.58 1181.83,-220 1172.65,-214.7 1171.35,-221.58"/>
</a>
</g>
</g>
<!-- Node25&#45;&gt;Node17 -->
<g id="edge46_Node000025_Node000017" class="edge">
<title>Node25&#45;&gt;Node17</title>
<g id="a_edge46_Node000025_Node000017"><a xlink:title=" ">
<path fill="none" stroke="#63b8ff" d="M1236.37,-209.78C1234.06,-196.25 1229.28,-178.11 1219.5,-165 1198.83,-137.29 1143.59,-137.53 1164.5,-110 1171.87,-100.3 1239.24,-84.01 1284.18,-74.06"/>
<polygon fill="#63b8ff" stroke="#63b8ff" points="1232.93,-210.44 1237.79,-219.86 1239.86,-209.47 1232.93,-210.44"/>
</a>
</g>
</g>
<!-- Node25&#45;&gt;Node18 -->
<g id="edge47_Node000025_Node000018" class="edge">
<title>Node25&#45;&gt;Node18</title>
<g id="a_edge47_Node000025_Node000018"><a xlink:title=" ">
<path fill="none" stroke="#63b8ff" d="M1307.56,-221.98C1353.38,-215.97 1414.12,-204.7 1464.5,-184 1505.43,-167.18 1526.56,-167.99 1547.5,-129 1551.49,-121.56 1552.33,-116.93 1547.5,-110 1537.51,-95.68 1494.76,-82.29 1462.89,-74.01"/>
<polygon fill="#63b8ff" stroke="#63b8ff" points="1306.91,-218.54 1297.43,-223.26 1307.79,-225.48 1306.91,-218.54"/>
</a>
</g>
</g>
<!-- Node25&#45;&gt;Node19 -->
<g id="edge48_Node000025_Node000019" class="edge">
<title>Node25&#45;&gt;Node19</title>
<g id="a_edge48_Node000025_Node000019"><a xlink:title=" ">
<path fill="none" stroke="#63b8ff" d="M1307.24,-227.32C1362.25,-223.97 1440.09,-213.72 1501.5,-184 1534.36,-168.1 1547.66,-162.35 1562.5,-129 1571.39,-109.02 1552.46,-86.5 1539.76,-74.37"/>
<polygon fill="#63b8ff" stroke="#63b8ff" points="1307.03,-223.82 1297.24,-227.86 1307.42,-230.81 1307.03,-223.82"/>
</a>
</g>
</g>
<!-- Node26 -->
<g id="Node000026" class="node">
<title>Node26</title>
<g id="a_Node000026"><a xlink:href="data__store2_8h.html" target="_top" xlink:title=" ">
<polygon fill="white" stroke="#666666" points="954,-184 841,-184 841,-165 954,-165 954,-184"/>
<text text-anchor="middle" x="897.5" y="-172" font-family="Helvetica,sans-Serif" font-size="10.00">client/data_store2.h</text>
</a>
</g>
</g>
<!-- Node25&#45;&gt;Node26 -->
<g id="edge38_Node000025_Node000026" class="edge">
<title>Node25&#45;&gt;Node26</title>
<g id="a_edge38_Node000025_Node000026"><a xlink:title=" ">
<path fill="none" stroke="#63b8ff" d="M1173.73,-218.43C1109.7,-208.48 1012.81,-193.42 952.43,-184.04"/>
<polygon fill="#63b8ff" stroke="#63b8ff" points="1173.29,-221.91 1183.71,-219.98 1174.37,-214.99 1173.29,-221.91"/>
</a>
</g>
</g>
<!-- Node28 -->
<g id="Node000028" class="node">
<title>Node28</title>
<g id="a_Node000028"><a xlink:href="message_8cc.html" target="_top" xlink:title=" ">
<polygon fill="white" stroke="#666666" points="1210.5,-184 1088.5,-184 1088.5,-165 1210.5,-165 1210.5,-184"/>
<text text-anchor="middle" x="1149.5" y="-172" font-family="Helvetica,sans-Serif" font-size="10.00">message/message.cc</text>
</a>
</g>
</g>
<!-- Node25&#45;&gt;Node28 -->
<g id="edge49_Node000025_Node000028" class="edge">
<title>Node25&#45;&gt;Node28</title>
<g id="a_edge49_Node000025_Node000028"><a xlink:title=" ">
<path fill="none" stroke="#63b8ff" d="M1215.32,-214.7C1199.11,-205.04 1177.95,-192.44 1164.06,-184.17"/>
<polygon fill="#63b8ff" stroke="#63b8ff" points="1213.82,-217.88 1224.2,-219.98 1217.4,-211.86 1213.82,-217.88"/>
</a>
</g>
</g>
<!-- Node29 -->
<g id="Node000029" class="node">
<title>Node29</title>
<g id="a_Node000029"><a xlink:href="member__data_8cc.html" target="_top" xlink:title=" ">
<polygon fill="white" stroke="#666666" points="1305.5,-129 1173.5,-129 1173.5,-110 1305.5,-110 1305.5,-129"/>
<text text-anchor="middle" x="1239.5" y="-117" font-family="Helvetica,sans-Serif" font-size="10.00">server/member_data.cc</text>
</a>
</g>
</g>
<!-- Node25&#45;&gt;Node29 -->
<g id="edge50_Node000025_Node000029" class="edge">
<title>Node25&#45;&gt;Node29</title>
<g id="a_edge50_Node000025_Node000029"><a xlink:title=" ">
<path fill="none" stroke="#63b8ff" d="M1245.65,-210.18C1248.37,-202.26 1251.15,-192.81 1252.5,-184 1255.54,-164.2 1248.07,-141.24 1243.23,-129.08"/>
<polygon fill="#63b8ff" stroke="#63b8ff" points="1242.27,-209.23 1242.1,-219.82 1248.84,-211.65 1242.27,-209.23"/>
</a>
</g>
</g>
<!-- Node30 -->
<g id="Node000030" class="node">
<title>Node30</title>
<g id="a_Node000030"><a xlink:href="member__data_8h.html" target="_top" xlink:title=" ">
<polygon fill="white" stroke="#666666" points="1432.5,-184 1304.5,-184 1304.5,-165 1432.5,-165 1432.5,-184"/>
<text text-anchor="middle" x="1368.5" y="-172" font-family="Helvetica,sans-Serif" font-size="10.00">server/member_data.h</text>
</a>
</g>
</g>
<!-- Node25&#45;&gt;Node30 -->
<g id="edge51_Node000025_Node000030" class="edge">
<title>Node25&#45;&gt;Node30</title>
<g id="a_edge51_Node000025_Node000030"><a xlink:title=" ">
<path fill="none" stroke="#63b8ff" d="M1268.77,-216.16C1292.84,-206.35 1325.9,-192.87 1347.23,-184.17"/>
<polygon fill="#63b8ff" stroke="#63b8ff" points="1267.33,-212.97 1259.39,-219.98 1269.97,-219.45 1267.33,-212.97"/>
</a>
</g>
</g>
<!-- Node32 -->
<g id="Node000032" class="node">
<title>Node32</title>
<g id="a_Node000032"><a xlink:href="websock_8cc.html" target="_top" xlink:title=" ">
<polygon fill="white" stroke="#666666" points="1538,-129 1431,-129 1431,-110 1538,-110 1538,-129"/>
<text text-anchor="middle" x="1484.5" y="-117" font-family="Helvetica,sans-Serif" font-size="10.00">server/websock.cc</text>
</a>
</g>
</g>
<!-- Node25&#45;&gt;Node32 -->
<g id="edge55_Node000025_Node000032" class="edge">
<title>Node25&#45;&gt;Node32</title>
<g id="a_edge55_Node000025_Node000032"><a xlink:title=" ">
<path fill="none" stroke="#63b8ff" d="M1307.39,-226.11C1349.25,-221.74 1402.05,-210.74 1441.5,-184 1462,-170.11 1475.41,-142.88 1481.21,-129.03"/>
<polygon fill="#63b8ff" stroke="#63b8ff" points="1306.9,-222.64 1297.28,-227.06 1307.56,-229.61 1306.9,-222.64"/>
</a>
</g>
</g>
<!-- Node26&#45;&gt;Node2 -->
<g id="edge39_Node000026_Node000002" class="edge">
<title>Node26&#45;&gt;Node2</title>
<g id="a_edge39_Node000026_Node000002"><a xlink:title=" ">
<path fill="none" stroke="#63b8ff" d="M865.59,-161.42C839.62,-151.59 803.58,-137.95 780.4,-129.17"/>
<polygon fill="#63b8ff" stroke="#63b8ff" points="864.42,-164.72 875.01,-164.98 866.89,-158.17 864.42,-164.72"/>
</a>
</g>
</g>
<!-- Node27 -->
<g id="Node000027" class="node">
<title>Node27</title>
<g id="a_Node000027"><a xlink:href="data__store2_8cc.html" target="_top" xlink:title=" ">
<polygon fill="white" stroke="#666666" points="956.5,-129 838.5,-129 838.5,-110 956.5,-110 956.5,-129"/>
<text text-anchor="middle" x="897.5" y="-117" font-family="Helvetica,sans-Serif" font-size="10.00">client/data_store2.cc</text>
</a>
</g>
</g>
<!-- Node26&#45;&gt;Node27 -->
<g id="edge40_Node000026_Node000027" class="edge">
<title>Node26&#45;&gt;Node27</title>
<g id="a_edge40_Node000026_Node000027"><a xlink:title=" ">
<path fill="none" stroke="#63b8ff" d="M897.5,-154.66C897.5,-145.93 897.5,-135.99 897.5,-129.09"/>
<polygon fill="#63b8ff" stroke="#63b8ff" points="894,-154.75 897.5,-164.75 901,-154.75 894,-154.75"/>
</a>
</g>
</g>
<!-- Node30&#45;&gt;Node29 -->
<g id="edge52_Node000030_Node000029" class="edge">
<title>Node30&#45;&gt;Node29</title>
<g id="a_edge52_Node000030_Node000029"><a xlink:title=" ">
<path fill="none" stroke="#63b8ff" d="M1338.46,-161.16C1314.58,-151.35 1281.78,-137.87 1260.6,-129.17"/>
<polygon fill="#63b8ff" stroke="#63b8ff" points="1337.19,-164.42 1347.77,-164.98 1339.85,-157.95 1337.19,-164.42"/>
</a>
</g>
</g>
<!-- Node31 -->
<g id="Node000031" class="node">
<title>Node31</title>
<g id="a_Node000031"><a xlink:href="store_8cc.html" target="_top" xlink:title=" ">
<polygon fill="white" stroke="#666666" points="1413,-129 1324,-129 1324,-110 1413,-110 1413,-129"/>
<text text-anchor="middle" x="1368.5" y="-117" font-family="Helvetica,sans-Serif" font-size="10.00">server/store.cc</text>
</a>
</g>
</g>
<!-- Node30&#45;&gt;Node31 -->
<g id="edge53_Node000030_Node000031" class="edge">
<title>Node30&#45;&gt;Node31</title>
<g id="a_edge53_Node000030_Node000031"><a xlink:title=" ">
<path fill="none" stroke="#63b8ff" d="M1368.5,-154.66C1368.5,-145.93 1368.5,-135.99 1368.5,-129.09"/>
<polygon fill="#63b8ff" stroke="#63b8ff" points="1365,-154.75 1368.5,-164.75 1372,-154.75 1365,-154.75"/>
</a>
</g>
</g>
<!-- Node30&#45;&gt;Node32 -->
<g id="edge54_Node000030_Node000032" class="edge">
<title>Node30&#45;&gt;Node32</title>
<g id="a_edge54_Node000030_Node000032"><a xlink:title=" ">
<path fill="none" stroke="#63b8ff" d="M1396.37,-160.77C1417.77,-150.99 1446.74,-137.75 1465.52,-129.17"/>
<polygon fill="#63b8ff" stroke="#63b8ff" points="1394.78,-157.65 1387.14,-164.98 1397.69,-164.01 1394.78,-157.65"/>
</a>
</g>
</g>
</g>
</svg>
