<?xml version="1.0" encoding="UTF-8" standalone="no"?>
<!DOCTYPE svg PUBLIC "-//W3C//DTD SVG 1.1//EN"
 "http://www.w3.org/Graphics/SVG/1.1/DTD/svg11.dtd">
<!-- Generated by graphviz version 2.43.0 (0)
 -->
<!-- Title: include/webcface/common/robot_model.h Pages: 1 -->
<svg width="2360pt" height="379pt"
 viewBox="0.00 0.00 2359.50 379.00" xmlns="http://www.w3.org/2000/svg" xmlns:xlink="http://www.w3.org/1999/xlink">
<g id="graph0" class="graph" transform="scale(1 1) rotate(0) translate(4 375)">
<title>include/webcface/common/robot_model.h</title>
<!-- Node1 -->
<g id="Node000001" class="node">
<title>Node1</title>
<g id="a_Node000001"><a xlink:title=" ">
<polygon fill="#999999" stroke="#666666" points="748.5,-371 601.5,-371 601.5,-341 748.5,-341 748.5,-371"/>
<text text-anchor="start" x="609.5" y="-359" font-family="Helvetica,sans-Serif" font-size="10.00">include/webcface/common</text>
<text text-anchor="middle" x="675" y="-348" font-family="Helvetica,sans-Serif" font-size="10.00">/robot_model.h</text>
</a>
</g>
</g>
<!-- Node2 -->
<g id="Node000002" class="node">
<title>Node2</title>
<g id="a_Node000002"><a xlink:href="client__internal_8h.html" target="_top" xlink:title=" ">
<polygon fill="white" stroke="#666666" points="1117.5,-184 992.5,-184 992.5,-165 1117.5,-165 1117.5,-184"/>
<text text-anchor="middle" x="1055" y="-172" font-family="Helvetica,sans-Serif" font-size="10.00">client/client_internal.h</text>
</a>
</g>
</g>
<!-- Node1&#45;&gt;Node2 -->
<g id="edge1_Node000001_Node000002" class="edge">
<title>Node1&#45;&gt;Node2</title>
<g id="a_edge1_Node000001_Node000002"><a xlink:title=" ">
<path fill="none" stroke="#63b8ff" d="M714.17,-336.5C795.15,-298.25 978.29,-211.74 1036.72,-184.13"/>
<polygon fill="#63b8ff" stroke="#63b8ff" points="712.37,-333.48 704.82,-340.91 715.35,-339.81 712.37,-333.48"/>
</a>
</g>
</g>
<!-- Node18 -->
<g id="Node000018" class="node">
<title>Node18</title>
<g id="a_Node000018"><a xlink:href="data__store2_8h.html" target="_top" xlink:title=" ">
<polygon fill="white" stroke="#666666" points="821.5,-239 708.5,-239 708.5,-220 821.5,-220 821.5,-239"/>
<text text-anchor="middle" x="765" y="-227" font-family="Helvetica,sans-Serif" font-size="10.00">client/data_store2.h</text>
</a>
</g>
</g>
<!-- Node1&#45;&gt;Node18 -->
<g id="edge17_Node000001_Node000018" class="edge">
<title>Node1&#45;&gt;Node18</title>
<g id="a_edge17_Node000001_Node000018"><a xlink:title=" ">
<path fill="none" stroke="#63b8ff" d="M691.39,-332.33C711.63,-304.33 745.06,-258.08 758.81,-239.07"/>
<polygon fill="#63b8ff" stroke="#63b8ff" points="688.35,-330.56 685.32,-340.72 694.02,-334.66 688.35,-330.56"/>
</a>
</g>
</g>
<!-- Node20 -->
<g id="Node000020" class="node">
<title>Node20</title>
<g id="a_Node000020"><a xlink:href="canvas3d_8h.html" target="_top" xlink:title=" ">
<polygon fill="white" stroke="#666666" points="386,-239 226,-239 226,-220 386,-220 386,-239"/>
<text text-anchor="middle" x="306" y="-227" font-family="Helvetica,sans-Serif" font-size="10.00">include/webcface/canvas3d.h</text>
</a>
</g>
</g>
<!-- Node1&#45;&gt;Node20 -->
<g id="edge20_Node000001_Node000020" class="edge">
<title>Node1&#45;&gt;Node20</title>
<g id="a_edge20_Node000001_Node000020"><a xlink:title=" ">
<path fill="none" stroke="#63b8ff" d="M623.51,-337.63C543.35,-310.58 391.68,-259.41 331.52,-239.11"/>
<polygon fill="#63b8ff" stroke="#63b8ff" points="622.79,-341.08 633.39,-340.96 625.03,-334.45 622.79,-341.08"/>
</a>
</g>
</g>
<!-- Node29 -->
<g id="Node000029" class="node">
<title>Node29</title>
<g id="a_Node000029"><a xlink:href="webcface_8h.html" target="_top" xlink:title=" ">
<polygon fill="white" stroke="#666666" points="160,-74 0,-74 0,-55 160,-55 160,-74"/>
<text text-anchor="middle" x="80" y="-62" font-family="Helvetica,sans-Serif" font-size="10.00">include/webcface/webcface.h</text>
</a>
</g>
</g>
<!-- Node1&#45;&gt;Node29 -->
<g id="edge49_Node000001_Node000029" class="edge">
<title>Node1&#45;&gt;Node29</title>
<g id="a_edge49_Node000001_Node000029"><a xlink:title=" ">
<path fill="none" stroke="#63b8ff" d="M591.05,-348.09C411.01,-332.14 4,-289.56 4,-230.5 4,-230.5 4,-230.5 4,-173.5 4,-129.48 46.75,-90.74 68.12,-74.12"/>
<polygon fill="#63b8ff" stroke="#63b8ff" points="591,-351.6 601.27,-348.99 591.62,-344.63 591,-351.6"/>
</a>
</g>
</g>
<!-- Node30 -->
<g id="Node000030" class="node">
<title>Node30</title>
<g id="a_Node000030"><a xlink:href="robot__model_8h.html" target="_top" xlink:title=" ">
<polygon fill="white" stroke="#666666" points="371,-305 241,-305 241,-275 371,-275 371,-305"/>
<text text-anchor="start" x="249" y="-293" font-family="Helvetica,sans-Serif" font-size="10.00">include/webcface/robot</text>
<text text-anchor="middle" x="306" y="-282" font-family="Helvetica,sans-Serif" font-size="10.00">_model.h</text>
</a>
</g>
</g>
<!-- Node1&#45;&gt;Node30 -->
<g id="edge44_Node000001_Node000030" class="edge">
<title>Node1&#45;&gt;Node30</title>
<g id="a_edge44_Node000001_Node000030"><a xlink:title=" ">
<path fill="none" stroke="#63b8ff" d="M591.14,-340.46C524.37,-328.88 432.27,-312.9 371.01,-302.28"/>
<polygon fill="#63b8ff" stroke="#63b8ff" points="590.76,-343.94 601.21,-342.2 591.96,-337.04 590.76,-343.94"/>
</a>
</g>
</g>
<!-- Node31 -->
<g id="Node000031" class="node">
<title>Node31</title>
<g id="a_Node000031"><a xlink:href="message_8h.html" target="_top" xlink:title=" ">
<polygon fill="white" stroke="#666666" points="1242.5,-299.5 1125.5,-299.5 1125.5,-280.5 1242.5,-280.5 1242.5,-299.5"/>
<text text-anchor="middle" x="1184" y="-287.5" font-family="Helvetica,sans-Serif" font-size="10.00">message/message.h</text>
</a>
</g>
</g>
<!-- Node1&#45;&gt;Node31 -->
<g id="edge50_Node000001_Node000031" class="edge">
<title>Node1&#45;&gt;Node31</title>
<g id="a_edge50_Node000001_Node000031"><a xlink:title=" ">
<path fill="none" stroke="#63b8ff" d="M758.83,-344.46C862.15,-331.47 1035.1,-309.72 1125.28,-298.38"/>
<polygon fill="#63b8ff" stroke="#63b8ff" points="758.23,-341.01 748.74,-345.73 759.1,-347.95 758.23,-341.01"/>
</a>
</g>
</g>
<!-- Node3 -->
<g id="Node000003" class="node">
<title>Node3</title>
<g id="a_Node000003"><a xlink:href="canvas2d_8cc.html" target="_top" xlink:title=" ">
<polygon fill="white" stroke="#666666" points="1633.5,-129 1526.5,-129 1526.5,-110 1633.5,-110 1633.5,-129"/>
<text text-anchor="middle" x="1580" y="-117" font-family="Helvetica,sans-Serif" font-size="10.00">client/canvas2d.cc</text>
</a>
</g>
</g>
<!-- Node2&#45;&gt;Node3 -->
<g id="edge2_Node000002_Node000003" class="edge">
<title>Node2&#45;&gt;Node3</title>
<g id="a_edge2_Node000002_Node000003"><a xlink:title=" ">
<path fill="none" stroke="#63b8ff" d="M1128.08,-167.33C1219.23,-159.43 1379.8,-144.86 1517,-129 1520.07,-128.65 1523.22,-128.27 1526.4,-127.87"/>
<polygon fill="#63b8ff" stroke="#63b8ff" points="1127.51,-163.86 1117.85,-168.21 1128.11,-170.84 1127.51,-163.86"/>
</a>
</g>
</g>
<!-- Node4 -->
<g id="Node000004" class="node">
<title>Node4</title>
<g id="a_Node000004"><a xlink:href="canvas3d_8cc.html" target="_top" xlink:title=" ">
<polygon fill="white" stroke="#666666" points="355.5,-129 248.5,-129 248.5,-110 355.5,-110 355.5,-129"/>
<text text-anchor="middle" x="302" y="-117" font-family="Helvetica,sans-Serif" font-size="10.00">client/canvas3d.cc</text>
</a>
</g>
</g>
<!-- Node2&#45;&gt;Node4 -->
<g id="edge3_Node000002_Node000004" class="edge">
<title>Node2&#45;&gt;Node4</title>
<g id="a_edge3_Node000002_Node000004"><a xlink:title=" ">
<path fill="none" stroke="#63b8ff" d="M982.29,-168.91C861.82,-161.23 613.23,-145.02 403,-129 387.65,-127.83 370.99,-126.47 355.71,-125.18"/>
<polygon fill="#63b8ff" stroke="#63b8ff" points="982.29,-172.42 992.49,-169.56 982.73,-165.44 982.29,-172.42"/>
</a>
</g>
</g>
<!-- Node5 -->
<g id="Node000005" class="node">
<title>Node5</title>
<g id="a_Node000005"><a xlink:href="client_2client_8cc.html" target="_top" xlink:title=" ">
<polygon fill="white" stroke="#666666" points="1293.5,-74 1206.5,-74 1206.5,-55 1293.5,-55 1293.5,-74"/>
<text text-anchor="middle" x="1250" y="-62" font-family="Helvetica,sans-Serif" font-size="10.00">client/client.cc</text>
</a>
</g>
</g>
<!-- Node2&#45;&gt;Node5 -->
<g id="edge4_Node000002_Node000005" class="edge">
<title>Node2&#45;&gt;Node5</title>
<g id="a_edge4_Node000002_Node000005"><a xlink:title=" ">
<path fill="none" stroke="#63b8ff" d="M1127.99,-171.33C1163.21,-166.6 1203.65,-155.19 1231,-129 1246.29,-114.35 1249.42,-87.96 1249.97,-74.27"/>
<polygon fill="#63b8ff" stroke="#63b8ff" points="1127.25,-167.9 1117.73,-172.55 1128.07,-174.85 1127.25,-167.9"/>
</a>
</g>
</g>
<!-- Node6 -->
<g id="Node000006" class="node">
<title>Node6</title>
<g id="a_Node000006"><a xlink:href="client__ws_8cc.html" target="_top" xlink:title=" ">
<polygon fill="white" stroke="#666666" points="919,-74 813,-74 813,-55 919,-55 919,-74"/>
<text text-anchor="middle" x="866" y="-62" font-family="Helvetica,sans-Serif" font-size="10.00">client/client_ws.cc</text>
</a>
</g>
</g>
<!-- Node2&#45;&gt;Node6 -->
<g id="edge5_Node000002_Node000006" class="edge">
<title>Node2&#45;&gt;Node6</title>
<g id="a_edge5_Node000002_Node000006"><a xlink:title=" ">
<path fill="none" stroke="#63b8ff" d="M1075.29,-158.48C1090.85,-145.13 1107.7,-125.41 1095,-110 1073.13,-83.48 979.58,-72.56 919.02,-68.22"/>
<polygon fill="#63b8ff" stroke="#63b8ff" points="1073.01,-155.82 1067.43,-164.82 1077.41,-161.26 1073.01,-155.82"/>
</a>
</g>
</g>
<!-- Node7 -->
<g id="Node000007" class="node">
<title>Node7</title>
<g id="a_Node000007"><a xlink:href="field_8cc.html" target="_top" xlink:title=" ">
<polygon fill="white" stroke="#666666" points="976.5,-129 895.5,-129 895.5,-110 976.5,-110 976.5,-129"/>
<text text-anchor="middle" x="936" y="-117" font-family="Helvetica,sans-Serif" font-size="10.00">client/field.cc</text>
</a>
</g>
</g>
<!-- Node2&#45;&gt;Node7 -->
<g id="edge6_Node000002_Node000007" class="edge">
<title>Node2&#45;&gt;Node7</title>
<g id="a_edge6_Node000002_Node000007"><a xlink:title=" ">
<path fill="none" stroke="#63b8ff" d="M1026.7,-160.9C1004.72,-151.11 974.82,-137.79 955.47,-129.17"/>
<polygon fill="#63b8ff" stroke="#63b8ff" points="1025.32,-164.11 1035.88,-164.98 1028.17,-157.72 1025.32,-164.11"/>
</a>
</g>
</g>
<!-- Node8 -->
<g id="Node000008" class="node">
<title>Node8</title>
<g id="a_Node000008"><a xlink:href="client_2func_8cc.html" target="_top" xlink:title=" ">
<polygon fill="white" stroke="#666666" points="1732.5,-129 1651.5,-129 1651.5,-110 1732.5,-110 1732.5,-129"/>
<text text-anchor="middle" x="1692" y="-117" font-family="Helvetica,sans-Serif" font-size="10.00">client/func.cc</text>
</a>
</g>
</g>
<!-- Node2&#45;&gt;Node8 -->
<g id="edge7_Node000002_Node000008" class="edge">
<title>Node2&#45;&gt;Node8</title>
<g id="a_edge7_Node000002_Node000008"><a xlink:title=" ">
<path fill="none" stroke="#63b8ff" d="M1127.96,-170.24C1239.33,-164.75 1458.28,-151.96 1643,-129 1645.74,-128.66 1648.56,-128.27 1651.4,-127.85"/>
<polygon fill="#63b8ff" stroke="#63b8ff" points="1127.67,-166.75 1117.85,-170.73 1128.01,-173.74 1127.67,-166.75"/>
</a>
</g>
</g>
<!-- Node9 -->
<g id="Node000009" class="node">
<title>Node9</title>
<g id="a_Node000009"><a xlink:href="func__listener_8cc.html" target="_top" xlink:title=" ">
<polygon fill="white" stroke="#666666" points="1400,-129 1278,-129 1278,-110 1400,-110 1400,-129"/>
<text text-anchor="middle" x="1339" y="-117" font-family="Helvetica,sans-Serif" font-size="10.00">client/func_listener.cc</text>
</a>
</g>
</g>
<!-- Node2&#45;&gt;Node9 -->
<g id="edge8_Node000002_Node000009" class="edge">
<title>Node2&#45;&gt;Node9</title>
<g id="a_edge8_Node000002_Node000009"><a xlink:title=" ">
<path fill="none" stroke="#63b8ff" d="M1110.58,-163.13C1163.83,-153.19 1243.23,-138.37 1293.01,-129.08"/>
<polygon fill="#63b8ff" stroke="#63b8ff" points="1109.82,-159.71 1100.63,-164.98 1111.1,-166.59 1109.82,-159.71"/>
</a>
</g>
</g>
<!-- Node10 -->
<g id="Node000010" class="node">
<title>Node10</title>
<g id="a_Node000010"><a xlink:href="image_8cc.html" target="_top" xlink:title=" ">
<polygon fill="white" stroke="#666666" points="1085.5,-129 994.5,-129 994.5,-110 1085.5,-110 1085.5,-129"/>
<text text-anchor="middle" x="1040" y="-117" font-family="Helvetica,sans-Serif" font-size="10.00">client/image.cc</text>
</a>
</g>
</g>
<!-- Node2&#45;&gt;Node10 -->
<g id="edge9_Node000002_Node000010" class="edge">
<title>Node2&#45;&gt;Node10</title>
<g id="a_edge9_Node000002_Node000010"><a xlink:title=" ">
<path fill="none" stroke="#63b8ff" d="M1049.75,-154.95C1047.26,-146.15 1044.4,-136.06 1042.43,-129.09"/>
<polygon fill="#63b8ff" stroke="#63b8ff" points="1046.43,-156.08 1052.52,-164.75 1053.17,-154.17 1046.43,-156.08"/>
</a>
</g>
</g>
<!-- Node11 -->
<g id="Node000011" class="node">
<title>Node11</title>
<g id="a_Node000011"><a xlink:href="log_8cc.html" target="_top" xlink:title=" ">
<polygon fill="white" stroke="#666666" points="1825.5,-129 1750.5,-129 1750.5,-110 1825.5,-110 1825.5,-129"/>
<text text-anchor="middle" x="1788" y="-117" font-family="Helvetica,sans-Serif" font-size="10.00">client/log.cc</text>
</a>
</g>
</g>
<!-- Node2&#45;&gt;Node11 -->
<g id="edge10_Node000002_Node000011" class="edge">
<title>Node2&#45;&gt;Node11</title>
<g id="a_edge10_Node000002_Node000011"><a xlink:title=" ">
<path fill="none" stroke="#63b8ff" d="M1128.02,-171.6C1253.82,-167.7 1519.35,-156.68 1742,-129 1744.74,-128.66 1747.56,-128.26 1750.4,-127.82"/>
<polygon fill="#63b8ff" stroke="#63b8ff" points="1127.64,-168.11 1117.75,-171.91 1127.85,-175.11 1127.64,-168.11"/>
</a>
</g>
</g>
<!-- Node12 -->
<g id="Node000012" class="node">
<title>Node12</title>
<g id="a_Node000012"><a xlink:href="logger_8cc.html" target="_top" xlink:title=" ">
<polygon fill="white" stroke="#666666" points="1508,-129 1418,-129 1418,-110 1508,-110 1508,-129"/>
<text text-anchor="middle" x="1463" y="-117" font-family="Helvetica,sans-Serif" font-size="10.00">client/logger.cc</text>
</a>
</g>
</g>
<!-- Node2&#45;&gt;Node12 -->
<g id="edge11_Node000002_Node000012" class="edge">
<title>Node2&#45;&gt;Node12</title>
<g id="a_edge11_Node000002_Node000012"><a xlink:title=" ">
<path fill="none" stroke="#63b8ff" d="M1128.01,-164.99C1199.65,-156.49 1311.96,-142.73 1409,-129 1411.91,-128.59 1414.91,-128.15 1417.93,-127.7"/>
<polygon fill="#63b8ff" stroke="#63b8ff" points="1127.26,-161.56 1117.75,-166.21 1128.09,-168.51 1127.26,-161.56"/>
</a>
</g>
</g>
<!-- Node13 -->
<g id="Node000013" class="node">
<title>Node13</title>
<g id="a_Node000013"><a xlink:href="member_8cc.html" target="_top" xlink:title=" ">
<polygon fill="white" stroke="#666666" points="877.5,-129 776.5,-129 776.5,-110 877.5,-110 877.5,-129"/>
<text text-anchor="middle" x="827" y="-117" font-family="Helvetica,sans-Serif" font-size="10.00">client/member.cc</text>
</a>
</g>
</g>
<!-- Node2&#45;&gt;Node13 -->
<g id="edge12_Node000002_Node000013" class="edge">
<title>Node2&#45;&gt;Node13</title>
<g id="a_edge12_Node000002_Node000013"><a xlink:title=" ">
<path fill="none" stroke="#63b8ff" d="M1008.5,-162.69C965.78,-152.76 903.3,-138.24 863.92,-129.08"/>
<polygon fill="#63b8ff" stroke="#63b8ff" points="1007.84,-166.13 1018.37,-164.98 1009.42,-159.31 1007.84,-166.13"/>
</a>
</g>
</g>
<!-- Node14 -->
<g id="Node000014" class="node">
<title>Node14</title>
<g id="a_Node000014"><a xlink:href="robot__model_8cc.html" target="_top" xlink:title=" ">
<polygon fill="white" stroke="#666666" points="230,-129 108,-129 108,-110 230,-110 230,-129"/>
<text text-anchor="middle" x="169" y="-117" font-family="Helvetica,sans-Serif" font-size="10.00">client/robot_model.cc</text>
</a>
</g>
</g>
<!-- Node2&#45;&gt;Node14 -->
<g id="edge13_Node000002_Node000014" class="edge">
<title>Node2&#45;&gt;Node14</title>
<g id="a_edge13_Node000002_Node000014"><a xlink:title=" ">
<path fill="none" stroke="#63b8ff" d="M982.1,-170.13C810.16,-162.07 383.01,-141.45 240,-129 236.78,-128.72 233.49,-128.41 230.16,-128.08"/>
<polygon fill="#63b8ff" stroke="#63b8ff" points="982.16,-173.63 992.32,-170.6 982.49,-166.64 982.16,-173.63"/>
</a>
</g>
</g>
<!-- Node15 -->
<g id="Node000015" class="node">
<title>Node15</title>
<g id="a_Node000015"><a xlink:href="client_2text_8cc.html" target="_top" xlink:title=" ">
<polygon fill="white" stroke="#666666" points="1222,-129 1142,-129 1142,-110 1222,-110 1222,-129"/>
<text text-anchor="middle" x="1182" y="-117" font-family="Helvetica,sans-Serif" font-size="10.00">client/text.cc</text>
</a>
</g>
</g>
<!-- Node2&#45;&gt;Node15 -->
<g id="edge14_Node000002_Node000015" class="edge">
<title>Node2&#45;&gt;Node15</title>
<g id="a_edge14_Node000002_Node000015"><a xlink:title=" ">
<path fill="none" stroke="#63b8ff" d="M1084.88,-161.03C1108.37,-151.23 1140.47,-137.83 1161.22,-129.17"/>
<polygon fill="#63b8ff" stroke="#63b8ff" points="1083.29,-157.9 1075.4,-164.98 1085.98,-164.36 1083.29,-157.9"/>
</a>
</g>
</g>
<!-- Node16 -->
<g id="Node000016" class="node">
<title>Node16</title>
<g id="a_Node000016"><a xlink:href="client_2value_8cc.html" target="_top" xlink:title=" ">
<polygon fill="white" stroke="#666666" points="657.5,-129 570.5,-129 570.5,-110 657.5,-110 657.5,-129"/>
<text text-anchor="middle" x="614" y="-117" font-family="Helvetica,sans-Serif" font-size="10.00">client/value.cc</text>
</a>
</g>
</g>
<!-- Node2&#45;&gt;Node16 -->
<g id="edge15_Node000002_Node000016" class="edge">
<title>Node2&#45;&gt;Node16</title>
<g id="a_edge15_Node000002_Node000016"><a xlink:title=" ">
<path fill="none" stroke="#63b8ff" d="M982.19,-166.13C904.12,-158.01 776.61,-144.07 667,-129 663.95,-128.58 660.81,-128.13 657.65,-127.66"/>
<polygon fill="#63b8ff" stroke="#63b8ff" points="982.09,-169.64 992.4,-167.19 982.81,-162.68 982.09,-169.64"/>
</a>
</g>
</g>
<!-- Node17 -->
<g id="Node000017" class="node">
<title>Node17</title>
<g id="a_Node000017"><a xlink:href="client_2view_8cc.html" target="_top" xlink:title=" ">
<polygon fill="white" stroke="#666666" points="758.5,-129 675.5,-129 675.5,-110 758.5,-110 758.5,-129"/>
<text text-anchor="middle" x="717" y="-117" font-family="Helvetica,sans-Serif" font-size="10.00">client/view.cc</text>
</a>
</g>
</g>
<!-- Node2&#45;&gt;Node17 -->
<g id="edge16_Node000002_Node000017" class="edge">
<title>Node2&#45;&gt;Node17</title>
<g id="a_edge16_Node000002_Node000017"><a xlink:title=" ">
<path fill="none" stroke="#63b8ff" d="M988.71,-163.44C930.52,-154.56 843.61,-141.16 768,-129 764.99,-128.52 761.87,-128.01 758.74,-127.5"/>
<polygon fill="#63b8ff" stroke="#63b8ff" points="988.46,-166.94 998.88,-164.99 989.52,-160.02 988.46,-166.94"/>
</a>
</g>
</g>
<!-- Node18&#45;&gt;Node2 -->
<g id="edge18_Node000018_Node000002" class="edge">
<title>Node18&#45;&gt;Node2</title>
<g id="a_edge18_Node000018_Node000002"><a xlink:title=" ">
<path fill="none" stroke="#63b8ff" d="M821.76,-218.13C876.13,-208.19 957.21,-193.37 1008.04,-184.08"/>
<polygon fill="#63b8ff" stroke="#63b8ff" points="820.8,-214.74 811.59,-219.98 822.06,-221.63 820.8,-214.74"/>
</a>
</g>
</g>
<!-- Node19 -->
<g id="Node000019" class="node">
<title>Node19</title>
<g id="a_Node000019"><a xlink:href="data__store2_8cc.html" target="_top" xlink:title=" ">
<polygon fill="white" stroke="#666666" points="827,-184 709,-184 709,-165 827,-165 827,-184"/>
<text text-anchor="middle" x="768" y="-172" font-family="Helvetica,sans-Serif" font-size="10.00">client/data_store2.cc</text>
</a>
</g>
</g>
<!-- Node18&#45;&gt;Node19 -->
<g id="edge19_Node000018_Node000019" class="edge">
<title>Node18&#45;&gt;Node19</title>
<g id="a_edge19_Node000018_Node000019"><a xlink:title=" ">
<path fill="none" stroke="#63b8ff" d="M766.07,-209.66C766.56,-200.93 767.12,-190.99 767.51,-184.09"/>
<polygon fill="#63b8ff" stroke="#63b8ff" points="762.57,-209.57 765.5,-219.75 769.56,-209.96 762.57,-209.57"/>
</a>
</g>
</g>
<!-- Node20&#45;&gt;Node4 -->
<g id="edge21_Node000020_Node000004" class="edge">
<title>Node20&#45;&gt;Node4</title>
<g id="a_edge21_Node000020_Node000004"><a xlink:title=" ">
<path fill="none" stroke="#63b8ff" d="M305.3,-209.48C304.42,-185.84 302.96,-146.5 302.32,-129.16"/>
<polygon fill="#63b8ff" stroke="#63b8ff" points="301.8,-209.8 305.67,-219.66 308.8,-209.54 301.8,-209.8"/>
</a>
</g>
</g>
<!-- Node21 -->
<g id="Node000021" class="node">
<title>Node21</title>
<g id="a_Node000021"><a xlink:href="member_8h.html" target="_top" xlink:title=" ">
<polygon fill="white" stroke="#666666" points="691,-184 537,-184 537,-165 691,-165 691,-184"/>
<text text-anchor="middle" x="614" y="-172" font-family="Helvetica,sans-Serif" font-size="10.00">include/webcface/member.h</text>
</a>
</g>
</g>
<!-- Node20&#45;&gt;Node21 -->
<g id="edge22_Node000020_Node000021" class="edge">
<title>Node20&#45;&gt;Node21</title>
<g id="a_edge22_Node000020_Node000021"><a xlink:title=" ">
<path fill="none" stroke="#63b8ff" d="M365.58,-218.25C423.41,-208.3 510.19,-193.36 564.38,-184.04"/>
<polygon fill="#63b8ff" stroke="#63b8ff" points="364.75,-214.84 355.49,-219.98 365.93,-221.74 364.75,-214.84"/>
</a>
</g>
</g>
<!-- Node20&#45;&gt;Node29 -->
<g id="edge43_Node000020_Node000029" class="edge">
<title>Node20&#45;&gt;Node29</title>
<g id="a_edge43_Node000020_Node000029"><a xlink:title=" ">
<path fill="none" stroke="#63b8ff" d="M257.25,-217.28C210.21,-203.98 140.21,-177.27 99,-129 85.4,-113.07 81.53,-87.7 80.44,-74.36"/>
<polygon fill="#63b8ff" stroke="#63b8ff" points="256.36,-220.66 266.93,-219.92 258.2,-213.91 256.36,-220.66"/>
</a>
</g>
</g>
<!-- Node21&#45;&gt;Node3 -->
<g id="edge23_Node000021_Node000003" class="edge">
<title>Node21&#45;&gt;Node3</title>
<g id="a_edge23_Node000021_Node000003"><a xlink:title=" ">
<path fill="none" stroke="#63b8ff" d="M701.33,-164.95C1064.23,-139.51 1158.25,-161.04 1517,-129 1520.08,-128.73 1523.24,-128.41 1526.42,-128.06"/>
<polygon fill="#63b8ff" stroke="#63b8ff" points="701.07,-161.46 691.34,-165.66 701.56,-168.44 701.07,-161.46"/>
</a>
</g>
</g>
<!-- Node21&#45;&gt;Node4 -->
<g id="edge24_Node000021_Node000004" class="edge">
<title>Node21&#45;&gt;Node4</title>
<g id="a_edge24_Node000021_Node000004"><a xlink:title=" ">
<path fill="none" stroke="#63b8ff" d="M554.01,-163.31C495.43,-153.36 407.27,-138.38 352.26,-129.04"/>
<polygon fill="#63b8ff" stroke="#63b8ff" points="553.43,-166.76 563.87,-164.98 554.6,-159.86 553.43,-166.76"/>
</a>
</g>
</g>
<!-- Node21&#45;&gt;Node7 -->
<g id="edge25_Node000021_Node000007" class="edge">
<title>Node21&#45;&gt;Node7</title>
<g id="a_edge25_Node000021_Node000007"><a xlink:title=" ">
<path fill="none" stroke="#63b8ff" d="M677.39,-163.35C732.74,-154.45 815.22,-141.07 887,-129 889.72,-128.54 892.53,-128.07 895.36,-127.58"/>
<polygon fill="#63b8ff" stroke="#63b8ff" points="676.7,-159.92 667.38,-164.96 677.81,-166.83 676.7,-159.92"/>
</a>
</g>
</g>
<!-- Node21&#45;&gt;Node10 -->
<g id="edge26_Node000021_Node000010" class="edge">
<title>Node21&#45;&gt;Node10</title>
<g id="a_edge26_Node000021_Node000010"><a xlink:title=" ">
<path fill="none" stroke="#63b8ff" d="M700.99,-164.02C776.46,-155.57 888.58,-142.49 986,-129 988.73,-128.62 991.53,-128.22 994.35,-127.81"/>
<polygon fill="#63b8ff" stroke="#63b8ff" points="700.6,-160.54 691.05,-165.13 701.38,-167.49 700.6,-160.54"/>
</a>
</g>
</g>
<!-- Node21&#45;&gt;Node13 -->
<g id="edge27_Node000021_Node000013" class="edge">
<title>Node21&#45;&gt;Node13</title>
<g id="a_edge27_Node000021_Node000013"><a xlink:title=" ">
<path fill="none" stroke="#63b8ff" d="M657.95,-162.56C697.84,-152.64 755.87,-138.2 792.51,-129.08"/>
<polygon fill="#63b8ff" stroke="#63b8ff" points="657.08,-159.17 648.22,-164.98 658.77,-165.97 657.08,-159.17"/>
</a>
</g>
</g>
<!-- Node21&#45;&gt;Node14 -->
<g id="edge28_Node000021_Node000014" class="edge">
<title>Node21&#45;&gt;Node14</title>
<g id="a_edge28_Node000021_Node000014"><a xlink:title=" ">
<path fill="none" stroke="#63b8ff" d="M532.34,-163.8C456.57,-154.8 340.66,-141.01 240,-129 236.8,-128.62 233.51,-128.22 230.19,-127.83"/>
<polygon fill="#63b8ff" stroke="#63b8ff" points="531.96,-167.28 542.3,-164.98 532.78,-160.33 531.96,-167.28"/>
</a>
</g>
</g>
<!-- Node21&#45;&gt;Node15 -->
<g id="edge29_Node000021_Node000015" class="edge">
<title>Node21&#45;&gt;Node15</title>
<g id="a_edge29_Node000021_Node000015"><a xlink:title=" ">
<path fill="none" stroke="#63b8ff" d="M701.46,-164.87C877.17,-148.22 922.75,-145.26 1095,-129 1110.26,-127.56 1127.02,-125.93 1141.72,-124.49"/>
<polygon fill="#63b8ff" stroke="#63b8ff" points="700.98,-161.4 691.35,-165.83 701.64,-168.37 700.98,-161.4"/>
</a>
</g>
</g>
<!-- Node21&#45;&gt;Node16 -->
<g id="edge30_Node000021_Node000016" class="edge">
<title>Node21&#45;&gt;Node16</title>
<g id="a_edge30_Node000021_Node000016"><a xlink:title=" ">
<path fill="none" stroke="#63b8ff" d="M614,-154.66C614,-145.93 614,-135.99 614,-129.09"/>
<polygon fill="#63b8ff" stroke="#63b8ff" points="610.5,-154.75 614,-164.75 617.5,-154.75 610.5,-154.75"/>
</a>
</g>
</g>
<!-- Node21&#45;&gt;Node17 -->
<g id="edge31_Node000021_Node000017" class="edge">
<title>Node21&#45;&gt;Node17</title>
<g id="a_edge31_Node000021_Node000017"><a xlink:title=" ">
<path fill="none" stroke="#63b8ff" d="M639.52,-160.37C658.44,-150.63 683.7,-137.64 700.15,-129.17"/>
<polygon fill="#63b8ff" stroke="#63b8ff" points="637.84,-157.3 630.55,-164.98 641.04,-163.52 637.84,-157.3"/>
</a>
</g>
</g>
<!-- Node22 -->
<g id="Node000022" class="node">
<title>Node22</title>
<g id="a_Node000022"><a xlink:href="client_8h.html" target="_top" xlink:title=" ">
<polygon fill="white" stroke="#666666" points="552,-129 412,-129 412,-110 552,-110 552,-129"/>
<text text-anchor="middle" x="482" y="-117" font-family="Helvetica,sans-Serif" font-size="10.00">include/webcface/client.h</text>
</a>
</g>
</g>
<!-- Node21&#45;&gt;Node22 -->
<g id="edge32_Node000021_Node000022" class="edge">
<title>Node21&#45;&gt;Node22</title>
<g id="a_edge32_Node000021_Node000022"><a xlink:title=" ">
<path fill="none" stroke="#63b8ff" d="M583.27,-161.16C558.83,-151.35 525.26,-137.87 503.59,-129.17"/>
<polygon fill="#63b8ff" stroke="#63b8ff" points="582.21,-164.51 592.79,-164.98 584.82,-158.01 582.21,-164.51"/>
</a>
</g>
</g>
<!-- Node21&#45;&gt;Node29 -->
<g id="edge42_Node000021_Node000029" class="edge">
<title>Node21&#45;&gt;Node29</title>
<g id="a_edge42_Node000021_Node000029"><a xlink:title=" ">
<path fill="none" stroke="#63b8ff" d="M543.28,-163.24C501.72,-156.07 448.55,-144.9 403,-129 385.17,-122.78 382.99,-115.75 365,-110 297.74,-88.51 218.11,-77.19 160.15,-71.36"/>
<polygon fill="#63b8ff" stroke="#63b8ff" points="542.87,-166.72 553.31,-164.93 544.04,-159.82 542.87,-166.72"/>
</a>
</g>
</g>
<!-- Node22&#45;&gt;Node5 -->
<g id="edge39_Node000022_Node000005" class="edge">
<title>Node22&#45;&gt;Node5</title>
<g id="a_edge39_Node000022_Node000005"><a xlink:title=" ">
<path fill="none" stroke="#63b8ff" d="M562.25,-110.02C812.97,-88.8 1099.16,-73.22 1206.49,-67.69"/>
<polygon fill="#63b8ff" stroke="#63b8ff" points="561.89,-106.54 552.22,-110.87 562.49,-113.51 561.89,-106.54"/>
</a>
</g>
</g>
<!-- Node22&#45;&gt;Node6 -->
<g id="edge40_Node000022_Node000006" class="edge">
<title>Node22&#45;&gt;Node6</title>
<g id="a_edge40_Node000022_Node000006"><a xlink:title=" ">
<path fill="none" stroke="#63b8ff" d="M554.03,-108.56C629.26,-98.18 745.49,-82.13 812.81,-72.84"/>
<polygon fill="#63b8ff" stroke="#63b8ff" points="553.12,-105.15 543.7,-109.98 554.08,-112.08 553.12,-105.15"/>
</a>
</g>
</g>
<!-- Node23 -->
<g id="Node000023" class="node">
<title>Node23</title>
<g id="a_Node000023"><a xlink:href="c__wcf__internal_8h.html" target="_top" xlink:title=" ">
<polygon fill="white" stroke="#666666" points="545.5,-74 418.5,-74 418.5,-55 545.5,-55 545.5,-74"/>
<text text-anchor="middle" x="482" y="-62" font-family="Helvetica,sans-Serif" font-size="10.00">c_wcf/c_wcf_internal.h</text>
</a>
</g>
</g>
<!-- Node22&#45;&gt;Node23 -->
<g id="edge33_Node000022_Node000023" class="edge">
<title>Node22&#45;&gt;Node23</title>
<g id="a_edge33_Node000022_Node000023"><a xlink:title=" ">
<path fill="none" stroke="#63b8ff" d="M482,-99.66C482,-90.93 482,-80.99 482,-74.09"/>
<polygon fill="#63b8ff" stroke="#63b8ff" points="478.5,-99.75 482,-109.75 485.5,-99.75 478.5,-99.75"/>
</a>
</g>
</g>
<!-- Node22&#45;&gt;Node29 -->
<g id="edge41_Node000022_Node000029" class="edge">
<title>Node22&#45;&gt;Node29</title>
<g id="a_edge41_Node000022_Node000029"><a xlink:title=" ">
<path fill="none" stroke="#63b8ff" d="M407.04,-108.62C331.57,-98.67 216.37,-83.48 144.76,-74.04"/>
<polygon fill="#63b8ff" stroke="#63b8ff" points="407.04,-112.15 417.41,-109.98 407.96,-105.21 407.04,-112.15"/>
</a>
</g>
</g>
<!-- Node24 -->
<g id="Node000024" class="node">
<title>Node24</title>
<g id="a_Node000024"><a xlink:href="c__wcf_2client_8cc.html" target="_top" xlink:title=" ">
<polygon fill="white" stroke="#666666" points="324,-19 236,-19 236,0 324,0 324,-19"/>
<text text-anchor="middle" x="280" y="-7" font-family="Helvetica,sans-Serif" font-size="10.00">c_wcf/client.cc</text>
</a>
</g>
</g>
<!-- Node23&#45;&gt;Node24 -->
<g id="edge34_Node000023_Node000024" class="edge">
<title>Node23&#45;&gt;Node24</title>
<g id="a_edge34_Node000023_Node000024"><a xlink:title=" ">
<path fill="none" stroke="#63b8ff" d="M439.84,-52.44C402.02,-42.52 347.31,-28.16 312.71,-19.08"/>
<polygon fill="#63b8ff" stroke="#63b8ff" points="438.98,-55.83 449.55,-54.98 440.76,-49.06 438.98,-55.83"/>
</a>
</g>
</g>
<!-- Node25 -->
<g id="Node000025" class="node">
<title>Node25</title>
<g id="a_Node000025"><a xlink:href="c__wcf_2func_8cc.html" target="_top" xlink:title=" ">
<polygon fill="white" stroke="#666666" points="424,-19 342,-19 342,0 424,0 424,-19"/>
<text text-anchor="middle" x="383" y="-7" font-family="Helvetica,sans-Serif" font-size="10.00">c_wcf/func.cc</text>
</a>
</g>
</g>
<!-- Node23&#45;&gt;Node25 -->
<g id="edge35_Node000023_Node000025" class="edge">
<title>Node23&#45;&gt;Node25</title>
<g id="a_edge35_Node000023_Node000025"><a xlink:title=" ">
<path fill="none" stroke="#63b8ff" d="M457.22,-50.23C439.06,-40.51 414.94,-27.6 399.2,-19.17"/>
<polygon fill="#63b8ff" stroke="#63b8ff" points="455.63,-53.35 466.09,-54.98 458.93,-47.18 455.63,-53.35"/>
</a>
</g>
</g>
<!-- Node26 -->
<g id="Node000026" class="node">
<title>Node26</title>
<g id="a_Node000026"><a xlink:href="c__wcf_2text_8cc.html" target="_top" xlink:title=" ">
<polygon fill="white" stroke="#666666" points="522,-19 442,-19 442,0 522,0 522,-19"/>
<text text-anchor="middle" x="482" y="-7" font-family="Helvetica,sans-Serif" font-size="10.00">c_wcf/text.cc</text>
</a>
</g>
</g>
<!-- Node23&#45;&gt;Node26 -->
<g id="edge36_Node000023_Node000026" class="edge">
<title>Node23&#45;&gt;Node26</title>
<g id="a_edge36_Node000023_Node000026"><a xlink:title=" ">
<path fill="none" stroke="#63b8ff" d="M482,-44.66C482,-35.93 482,-25.99 482,-19.09"/>
<polygon fill="#63b8ff" stroke="#63b8ff" points="478.5,-44.75 482,-54.75 485.5,-44.75 478.5,-44.75"/>
</a>
</g>
</g>
<!-- Node27 -->
<g id="Node000027" class="node">
<title>Node27</title>
<g id="a_Node000027"><a xlink:href="c__wcf_2value_8cc.html" target="_top" xlink:title=" ">
<polygon fill="white" stroke="#666666" points="628,-19 540,-19 540,0 628,0 628,-19"/>
<text text-anchor="middle" x="584" y="-7" font-family="Helvetica,sans-Serif" font-size="10.00">c_wcf/value.cc</text>
</a>
</g>
</g>
<!-- Node23&#45;&gt;Node27 -->
<g id="edge37_Node000023_Node000027" class="edge">
<title>Node23&#45;&gt;Node27</title>
<g id="a_edge37_Node000023_Node000027"><a xlink:title=" ">
<path fill="none" stroke="#63b8ff" d="M507.27,-50.37C526.01,-40.63 551.02,-27.64 567.31,-19.17"/>
<polygon fill="#63b8ff" stroke="#63b8ff" points="505.65,-47.27 498.39,-54.98 508.88,-53.48 505.65,-47.27"/>
</a>
</g>
</g>
<!-- Node28 -->
<g id="Node000028" class="node">
<title>Node28</title>
<g id="a_Node000028"><a xlink:href="c__wcf_2view_8cc.html" target="_top" xlink:title=" ">
<polygon fill="white" stroke="#666666" points="729.5,-19 646.5,-19 646.5,0 729.5,0 729.5,-19"/>
<text text-anchor="middle" x="688" y="-7" font-family="Helvetica,sans-Serif" font-size="10.00">c_wcf/view.cc</text>
</a>
</g>
</g>
<!-- Node23&#45;&gt;Node28 -->
<g id="edge38_Node000023_Node000028" class="edge">
<title>Node23&#45;&gt;Node28</title>
<g id="a_edge38_Node000023_Node000028"><a xlink:title=" ">
<path fill="none" stroke="#63b8ff" d="M525,-52.44C563.56,-42.52 619.36,-28.16 654.64,-19.08"/>
<polygon fill="#63b8ff" stroke="#63b8ff" points="523.91,-49.1 515.1,-54.98 525.65,-55.88 523.91,-49.1"/>
</a>
</g>
</g>
<!-- Node30&#45;&gt;Node14 -->
<g id="edge45_Node000030_Node000014" class="edge">
<title>Node30&#45;&gt;Node14</title>
<g id="a_edge45_Node000030_Node000014"><a xlink:title=" ">
<path fill="none" stroke="#63b8ff" d="M259.51,-270.4C244.39,-262.53 228.54,-252.11 217,-239 187.22,-205.18 174.49,-150.48 170.49,-129.29"/>
<polygon fill="#63b8ff" stroke="#63b8ff" points="258.27,-273.69 268.79,-274.97 261.36,-267.41 258.27,-273.69"/>
</a>
</g>
</g>
<!-- Node30&#45;&gt;Node20 -->
<g id="edge46_Node000030_Node000020" class="edge">
<title>Node30&#45;&gt;Node20</title>
<g id="a_edge46_Node000030_Node000020"><a xlink:title=" ">
<path fill="none" stroke="#63b8ff" d="M306,-264.75C306,-255.72 306,-246.03 306,-239.27"/>
<polygon fill="#63b8ff" stroke="#63b8ff" points="302.5,-264.84 306,-274.84 309.5,-264.84 302.5,-264.84"/>
</a>
</g>
</g>
<!-- Node30&#45;&gt;Node21 -->
<g id="edge47_Node000030_Node000021" class="edge">
<title>Node30&#45;&gt;Node21</title>
<g id="a_edge47_Node000030_Node000021"><a xlink:title=" ">
<path fill="none" stroke="#63b8ff" d="M353.56,-271.47C420.54,-246.79 540.11,-202.73 590.54,-184.14"/>
<polygon fill="#63b8ff" stroke="#63b8ff" points="352.25,-268.23 344.08,-274.97 354.67,-274.8 352.25,-268.23"/>
</a>
</g>
</g>
<!-- Node30&#45;&gt;Node29 -->
<g id="edge48_Node000030_Node000029" class="edge">
<title>Node30&#45;&gt;Node29</title>
<g id="a_edge48_Node000030_Node000029"><a xlink:title=" ">
<path fill="none" stroke="#63b8ff" d="M258.08,-270.93C204.03,-247.55 119.2,-201.06 85,-129 76.47,-111.02 77.46,-86.93 78.8,-74.21"/>
<polygon fill="#63b8ff" stroke="#63b8ff" points="256.89,-274.23 267.47,-274.89 259.62,-267.78 256.89,-274.23"/>
</a>
</g>
</g>
<!-- Node31&#45;&gt;Node3 -->
<g id="edge51_Node000031_Node000003" class="edge">
<title>Node31&#45;&gt;Node3</title>
<g id="a_edge51_Node000031_Node000003"><a xlink:title=" ">
<path fill="none" stroke="#63b8ff" d="M1213.76,-276.34C1290.73,-243.59 1494.9,-156.71 1559.86,-129.07"/>
<polygon fill="#63b8ff" stroke="#63b8ff" points="1212.01,-273.28 1204.18,-280.41 1214.75,-279.72 1212.01,-273.28"/>
</a>
</g>
</g>
<!-- Node31&#45;&gt;Node4 -->
<g id="edge52_Node000031_Node000004" class="edge">
<title>Node31&#45;&gt;Node4</title>
<g id="a_edge52_Node000031_Node000004"><a xlink:title=" ">
<path fill="none" stroke="#63b8ff" d="M1115.29,-286.37C1020.84,-281.74 845.99,-269.54 700,-239 621.44,-222.57 603.27,-211.86 528,-184 507.64,-176.46 503.61,-171.84 483,-165 436.62,-149.62 381.98,-136.9 344.96,-129.05"/>
<polygon fill="#63b8ff" stroke="#63b8ff" points="1115.13,-289.86 1125.29,-286.84 1115.47,-282.87 1115.13,-289.86"/>
</a>
</g>
</g>
<!-- Node31&#45;&gt;Node5 -->
<g id="edge53_Node000031_Node000005" class="edge">
<title>Node31&#45;&gt;Node5</title>
<g id="a_edge53_Node000031_Node000005"><a xlink:title=" ">
<path fill="none" stroke="#63b8ff" d="M1252.75,-282.73C1405.24,-267.23 1764,-221.51 1835,-129 1840.14,-122.3 1840.74,-116.19 1835,-110 1798.39,-70.5 1422.97,-65.89 1293.57,-65.49"/>
<polygon fill="#63b8ff" stroke="#63b8ff" points="1252.17,-279.27 1242.57,-283.75 1252.87,-286.23 1252.17,-279.27"/>
</a>
</g>
</g>
<!-- Node31&#45;&gt;Node8 -->
<g id="edge55_Node000031_Node000008" class="edge">
<title>Node31&#45;&gt;Node8</title>
<g id="a_edge55_Node000031_Node000008"><a xlink:title=" ">
<path fill="none" stroke="#63b8ff" d="M1219.79,-277.37C1250.81,-267.28 1296.89,-252.25 1337,-239 1460.7,-198.14 1608.4,-148.6 1666.62,-129.03"/>
<polygon fill="#63b8ff" stroke="#63b8ff" points="1218.7,-274.05 1210.28,-280.47 1220.87,-280.7 1218.7,-274.05"/>
</a>
</g>
</g>
<!-- Node31&#45;&gt;Node10 -->
<g id="edge56_Node000031_Node000010" class="edge">
<title>Node31&#45;&gt;Node10</title>
<g id="a_edge56_Node000031_Node000010"><a xlink:title=" ">
<path fill="none" stroke="#63b8ff" d="M1179.64,-270.57C1172.59,-244.24 1156.42,-195.68 1127,-165 1110.56,-147.86 1086.08,-136.16 1067.27,-129.07"/>
<polygon fill="#63b8ff" stroke="#63b8ff" points="1176.28,-271.53 1182.12,-280.37 1183.06,-269.82 1176.28,-271.53"/>
</a>
</g>
</g>
<!-- Node31&#45;&gt;Node11 -->
<g id="edge57_Node000031_Node000011" class="edge">
<title>Node31&#45;&gt;Node11</title>
<g id="a_edge57_Node000031_Node000011"><a xlink:title=" ">
<path fill="none" stroke="#63b8ff" d="M1228.24,-277.99C1267.62,-268.09 1326.77,-253 1378,-239 1521.66,-199.74 1692.48,-149.08 1759.25,-129.12"/>
<polygon fill="#63b8ff" stroke="#63b8ff" points="1227.27,-274.62 1218.42,-280.45 1228.97,-281.41 1227.27,-274.62"/>
</a>
</g>
</g>
<!-- Node31&#45;&gt;Node13 -->
<g id="edge58_Node000031_Node000013" class="edge">
<title>Node31&#45;&gt;Node13</title>
<g id="a_edge58_Node000031_Node000013"><a xlink:title=" ">
<path fill="none" stroke="#63b8ff" d="M1159.57,-275.61C1116.06,-251.97 1021.99,-201.88 940,-165 909.62,-151.33 873.69,-137.59 850.64,-129.06"/>
<polygon fill="#63b8ff" stroke="#63b8ff" points="1158.09,-278.79 1168.55,-280.5 1161.44,-272.64 1158.09,-278.79"/>
</a>
</g>
</g>
<!-- Node31&#45;&gt;Node14 -->
<g id="edge59_Node000031_Node000014" class="edge">
<title>Node31&#45;&gt;Node14</title>
<g id="a_edge59_Node000031_Node000014"><a xlink:title=" ">
<path fill="none" stroke="#63b8ff" d="M1115.17,-286.55C1008.89,-281.95 798.74,-269.55 623,-239 457.67,-210.26 264.44,-151.04 195.27,-129.01"/>
<polygon fill="#63b8ff" stroke="#63b8ff" points="1115.3,-290.06 1125.44,-286.99 1115.59,-283.07 1115.3,-290.06"/>
</a>
</g>
</g>
<!-- Node31&#45;&gt;Node15 -->
<g id="edge60_Node000031_Node000015" class="edge">
<title>Node31&#45;&gt;Node15</title>
<g id="a_edge60_Node000031_Node000015"><a xlink:title=" ">
<path fill="none" stroke="#63b8ff" d="M1183.78,-270.24C1183.35,-233.98 1182.42,-155.54 1182.1,-129.27"/>
<polygon fill="#63b8ff" stroke="#63b8ff" points="1180.28,-270.45 1183.9,-280.41 1187.28,-270.37 1180.28,-270.45"/>
</a>
</g>
</g>
<!-- Node31&#45;&gt;Node16 -->
<g id="edge61_Node000031_Node000016" class="edge">
<title>Node31&#45;&gt;Node16</title>
<g id="a_edge61_Node000031_Node000016"><a xlink:title=" ">
<path fill="none" stroke="#63b8ff" d="M1138.9,-278.03C1102.81,-268.83 1051.14,-254.7 1007,-239 928.98,-211.24 915.04,-189.72 836,-165 803.36,-154.79 712.53,-137.9 657.69,-128.13"/>
<polygon fill="#63b8ff" stroke="#63b8ff" points="1138.09,-281.43 1148.64,-280.49 1139.8,-274.65 1138.09,-281.43"/>
</a>
</g>
</g>
<!-- Node31&#45;&gt;Node17 -->
<g id="edge62_Node000031_Node000017" class="edge">
<title>Node31&#45;&gt;Node17</title>
<g id="a_edge62_Node000031_Node000017"><a xlink:title=" ">
<path fill="none" stroke="#63b8ff" d="M1148.91,-276.9C1121.87,-267.31 1083.7,-253.21 1051,-239 1000.5,-217.06 989.29,-208.53 940,-184 923.1,-175.59 919.74,-171.47 902,-165 854.05,-147.51 796.6,-134.92 758.57,-127.69"/>
<polygon fill="#63b8ff" stroke="#63b8ff" points="1148.1,-280.32 1158.7,-280.34 1150.43,-273.72 1148.1,-280.32"/>
</a>
</g>
</g>
<!-- Node31&#45;&gt;Node18 -->
<g id="edge54_Node000031_Node000018" class="edge">
<title>Node31&#45;&gt;Node18</title>
<g id="a_edge54_Node000031_Node000018"><a xlink:title=" ">
<path fill="none" stroke="#63b8ff" d="M1115.33,-279.41C1033.37,-267.97 897.86,-249.05 821.63,-238.41"/>
<polygon fill="#63b8ff" stroke="#63b8ff" points="1114.91,-282.89 1125.3,-280.8 1115.88,-275.95 1114.91,-282.89"/>
</a>
</g>
</g>
<!-- Node32 -->
<g id="Node000032" class="node">
<title>Node32</title>
<g id="a_Node000032"><a xlink:href="message_8cc.html" target="_top" xlink:title=" ">
<polygon fill="white" stroke="#666666" points="2199,-239 2077,-239 2077,-220 2199,-220 2199,-239"/>
<text text-anchor="middle" x="2138" y="-227" font-family="Helvetica,sans-Serif" font-size="10.00">message/message.cc</text>
</a>
</g>
</g>
<!-- Node31&#45;&gt;Node32 -->
<g id="edge63_Node000031_Node000032" class="edge">
<title>Node31&#45;&gt;Node32</title>
<g id="a_edge63_Node000031_Node000032"><a xlink:title=" ">
<path fill="none" stroke="#63b8ff" d="M1252.89,-286.61C1401.82,-281.12 1764.84,-265.95 2068,-239 2070.93,-238.74 2073.92,-238.45 2076.94,-238.15"/>
<polygon fill="#63b8ff" stroke="#63b8ff" points="1252.4,-283.13 1242.54,-286.99 1252.66,-290.12 1252.4,-283.13"/>
</a>
</g>
</g>
<!-- Node33 -->
<g id="Node000033" class="node">
<title>Node33</title>
<g id="a_Node000033"><a xlink:href="s__client__data_8cc.html" target="_top" xlink:title=" ">
<polygon fill="white" stroke="#666666" points="2010,-129 1882,-129 1882,-110 2010,-110 2010,-129"/>
<text text-anchor="middle" x="1946" y="-117" font-family="Helvetica,sans-Serif" font-size="10.00">server/s_client_data.cc</text>
</a>
</g>
</g>
<!-- Node31&#45;&gt;Node33 -->
<g id="edge64_Node000031_Node000033" class="edge">
<title>Node31&#45;&gt;Node33</title>
<g id="a_edge64_Node000031_Node000033"><a xlink:title=" ">
<path fill="none" stroke="#63b8ff" d="M1253.01,-287.39C1416.16,-283.11 1815.88,-269.6 1868,-239 1911.97,-213.19 1935.83,-151.64 1943.35,-129.03"/>
<polygon fill="#63b8ff" stroke="#63b8ff" points="1252.52,-283.91 1242.61,-287.66 1252.7,-290.9 1252.52,-283.91"/>
</a>
</g>
</g>
<!-- Node34 -->
<g id="Node000034" class="node">
<title>Node34</title>
<g id="a_Node000034"><a xlink:href="s__client__data_8h.html" target="_top" xlink:title=" ">
<polygon fill="white" stroke="#666666" points="2059,-239 1935,-239 1935,-220 2059,-220 2059,-239"/>
<text text-anchor="middle" x="1997" y="-227" font-family="Helvetica,sans-Serif" font-size="10.00">server/s_client_data.h</text>
</a>
</g>
</g>
<!-- Node31&#45;&gt;Node34 -->
<g id="edge65_Node000031_Node000034" class="edge">
<title>Node31&#45;&gt;Node34</title>
<g id="a_edge65_Node000031_Node000034"><a xlink:title=" ">
<path fill="none" stroke="#63b8ff" d="M1253.08,-285.12C1383.01,-277.64 1672.59,-260.08 1916,-239 1922.06,-238.48 1928.37,-237.89 1934.67,-237.27"/>
<polygon fill="#63b8ff" stroke="#63b8ff" points="1252.67,-281.64 1242.88,-285.71 1253.07,-288.63 1252.67,-281.64"/>
</a>
</g>
</g>
<!-- Node37 -->
<g id="Node000037" class="node">
<title>Node37</title>
<g id="a_Node000037"><a xlink:href="websock_8cc.html" target="_top" xlink:title=" ">
<polygon fill="white" stroke="#666666" points="2351.5,-129 2244.5,-129 2244.5,-110 2351.5,-110 2351.5,-129"/>
<text text-anchor="middle" x="2298" y="-117" font-family="Helvetica,sans-Serif" font-size="10.00">server/websock.cc</text>
</a>
</g>
</g>
<!-- Node31&#45;&gt;Node37 -->
<g id="edge74_Node000031_Node000037" class="edge">
<title>Node31&#45;&gt;Node37</title>
<g id="a_edge74_Node000031_Node000037"><a xlink:title=" ">
<path fill="none" stroke="#63b8ff" d="M1253.08,-288.98C1469.36,-288.47 2124.05,-283.24 2208,-239 2255.31,-214.07 2284.95,-151.98 2294.57,-129.12"/>
<polygon fill="#63b8ff" stroke="#63b8ff" points="1252.81,-285.48 1242.82,-289.01 1252.82,-292.48 1252.81,-285.48"/>
</a>
</g>
</g>
<!-- Node34&#45;&gt;Node33 -->
<g id="edge66_Node000034_Node000033" class="edge">
<title>Node34&#45;&gt;Node33</title>
<g id="a_edge66_Node000034_Node000033"><a xlink:title=" ">
<path fill="none" stroke="#63b8ff" d="M1988.47,-210.44C1977.37,-186.92 1958.39,-146.73 1950.09,-129.16"/>
<polygon fill="#63b8ff" stroke="#63b8ff" points="1985.39,-212.11 1992.83,-219.66 1991.72,-209.12 1985.39,-212.11"/>
</a>
</g>
</g>
<!-- Node35 -->
<g id="Node000035" class="node">
<title>Node35</title>
<g id="a_Node000035"><a xlink:href="store_8cc.html" target="_top" xlink:title=" ">
<polygon fill="white" stroke="#666666" points="2117.5,-129 2028.5,-129 2028.5,-110 2117.5,-110 2117.5,-129"/>
<text text-anchor="middle" x="2073" y="-117" font-family="Helvetica,sans-Serif" font-size="10.00">server/store.cc</text>
</a>
</g>
</g>
<!-- Node34&#45;&gt;Node35 -->
<g id="edge67_Node000034_Node000035" class="edge">
<title>Node34&#45;&gt;Node35</title>
<g id="a_edge67_Node000034_Node000035"><a xlink:title=" ">
<path fill="none" stroke="#63b8ff" d="M2001.81,-209.73C2005.8,-196.43 2012.4,-178.62 2022,-165 2032.43,-150.21 2048.77,-137.11 2060.13,-129.02"/>
<polygon fill="#63b8ff" stroke="#63b8ff" points="1998.36,-209.07 1999.05,-219.64 2005.1,-210.94 1998.36,-209.07"/>
</a>
</g>
</g>
<!-- Node36 -->
<g id="Node000036" class="node">
<title>Node36</title>
<g id="a_Node000036"><a xlink:href="store_8h.html" target="_top" xlink:title=" ">
<polygon fill="white" stroke="#666666" points="2115,-184 2031,-184 2031,-165 2115,-165 2115,-184"/>
<text text-anchor="middle" x="2073" y="-172" font-family="Helvetica,sans-Serif" font-size="10.00">server/store.h</text>
</a>
</g>
</g>
<!-- Node34&#45;&gt;Node36 -->
<g id="edge68_Node000034_Node000036" class="edge">
<title>Node34&#45;&gt;Node36</title>
<g id="a_edge68_Node000034_Node000036"><a xlink:title=" ">
<path fill="none" stroke="#63b8ff" d="M2017.58,-214.15C2031.31,-204.57 2048.93,-192.29 2060.57,-184.17"/>
<polygon fill="#63b8ff" stroke="#63b8ff" points="2015.41,-211.39 2009.21,-219.98 2019.42,-217.14 2015.41,-211.39"/>
</a>
</g>
</g>
<!-- Node34&#45;&gt;Node37 -->
<g id="edge73_Node000034_Node000037" class="edge">
<title>Node34&#45;&gt;Node37</title>
<g id="a_edge73_Node000034_Node000037"><a xlink:title=" ">
<path fill="none" stroke="#63b8ff" d="M2031.47,-216.56C2057.04,-207.67 2092.73,-195.18 2124,-184 2178.2,-164.62 2241.67,-141.29 2274.95,-129.02"/>
<polygon fill="#63b8ff" stroke="#63b8ff" points="2030.15,-213.31 2021.86,-219.9 2032.45,-219.92 2030.15,-213.31"/>
</a>
</g>
</g>
<!-- Node36&#45;&gt;Node33 -->
<g id="edge69_Node000036_Node000033" class="edge">
<title>Node36&#45;&gt;Node33</title>
<g id="a_edge69_Node000036_Node000033"><a xlink:title=" ">
<path fill="none" stroke="#63b8ff" d="M2043.12,-161.03C2019.63,-151.23 1987.53,-137.83 1966.78,-129.17"/>
<polygon fill="#63b8ff" stroke="#63b8ff" points="2042.02,-164.36 2052.6,-164.98 2044.71,-157.9 2042.02,-164.36"/>
</a>
</g>
</g>
<!-- Node36&#45;&gt;Node35 -->
<g id="edge70_Node000036_Node000035" class="edge">
<title>Node36&#45;&gt;Node35</title>
<g id="a_edge70_Node000036_Node000035"><a xlink:title=" ">
<path fill="none" stroke="#63b8ff" d="M2073,-154.66C2073,-145.93 2073,-135.99 2073,-129.09"/>
<polygon fill="#63b8ff" stroke="#63b8ff" points="2069.5,-154.75 2073,-164.75 2076.5,-154.75 2069.5,-154.75"/>
</a>
</g>
</g>
<!-- Node36&#45;&gt;Node37 -->
<g id="edge71_Node000036_Node000037" class="edge">
<title>Node36&#45;&gt;Node37</title>
<g id="a_edge71_Node000036_Node000037"><a xlink:title=" ">
<path fill="none" stroke="#63b8ff" d="M2118.89,-162.69C2161.05,-152.76 2222.7,-138.24 2261.57,-129.08"/>
<polygon fill="#63b8ff" stroke="#63b8ff" points="2118.08,-159.28 2109.15,-164.98 2119.69,-166.1 2118.08,-159.28"/>
</a>
</g>
</g>
<!-- Node38 -->
<g id="Node000038" class="node">
<title>Node38</title>
<g id="a_Node000038"><a xlink:href="server__main_8cc.html" target="_top" xlink:title=" ">
<polygon fill="white" stroke="#666666" points="2226.5,-129 2135.5,-129 2135.5,-110 2226.5,-110 2226.5,-129"/>
<text text-anchor="middle" x="2181" y="-117" font-family="Helvetica,sans-Serif" font-size="10.00">server_main.cc</text>
</a>
</g>
</g>
<!-- Node36&#45;&gt;Node38 -->
<g id="edge72_Node000036_Node000038" class="edge">
<title>Node36&#45;&gt;Node38</title>
<g id="a_edge72_Node000036_Node000038"><a xlink:title=" ">
<path fill="none" stroke="#63b8ff" d="M2099.49,-160.5C2119.36,-150.75 2146,-137.68 2163.33,-129.17"/>
<polygon fill="#63b8ff" stroke="#63b8ff" points="2097.79,-157.44 2090.35,-164.98 2100.87,-163.72 2097.79,-157.44"/>
</a>
</g>
</g>
</g>
</svg>
