<?xml version="1.0" encoding="UTF-8" standalone="no"?>
<!DOCTYPE svg PUBLIC "-//W3C//DTD SVG 1.1//EN"
 "http://www.w3.org/Graphics/SVG/1.1/DTD/svg11.dtd">
<!-- Generated by graphviz version 2.43.0 (0)
 -->
<!-- Title: include/webcface/common/view.h Pages: 1 -->
<svg width="1294pt" height="379pt"
 viewBox="0.00 0.00 1294.00 379.00" xmlns="http://www.w3.org/2000/svg" xmlns:xlink="http://www.w3.org/1999/xlink">
<g id="graph0" class="graph" transform="scale(1 1) rotate(0) translate(4 375)">
<title>include/webcface/common/view.h</title>
<!-- Node1 -->
<g id="Node000001" class="node">
<title>Node1</title>
<g id="a_Node000001"><a xlink:title=" ">
<polygon fill="#999999" stroke="#666666" points="594.5,-371 447.5,-371 447.5,-341 594.5,-341 594.5,-371"/>
<text text-anchor="start" x="455.5" y="-359" font-family="Helvetica,sans-Serif" font-size="10.00">include/webcface/common</text>
<text text-anchor="middle" x="521" y="-348" font-family="Helvetica,sans-Serif" font-size="10.00">/view.h</text>
</a>
</g>
</g>
<!-- Node2 -->
<g id="Node000002" class="node">
<title>Node2</title>
<g id="a_Node000002"><a xlink:href="client__data_8h.html" target="_top" xlink:title=" ">
<polygon fill="white" stroke="#666666" points="633.5,-305 502.5,-305 502.5,-275 633.5,-275 633.5,-305"/>
<text text-anchor="start" x="510.5" y="-293" font-family="Helvetica,sans-Serif" font-size="10.00">include/webcface/client</text>
<text text-anchor="middle" x="568" y="-282" font-family="Helvetica,sans-Serif" font-size="10.00">_data.h</text>
</a>
</g>
</g>
<!-- Node1&#45;&gt;Node2 -->
<g id="edge1_Node000001_Node000002" class="edge">
<title>Node1&#45;&gt;Node2</title>
<g id="a_edge1_Node000001_Node000002"><a xlink:title=" ">
<path fill="none" stroke="#63b8ff" d="M537.5,-332.53C544.19,-323.43 551.7,-313.19 557.6,-305.16"/>
<polygon fill="#63b8ff" stroke="#63b8ff" points="534.53,-330.66 531.43,-340.8 540.17,-334.81 534.53,-330.66"/>
</a>
</g>
</g>
<!-- Node10 -->
<g id="Node000010" class="node">
<title>Node10</title>
<g id="a_Node000010"><a xlink:href="webcface_8h.html" target="_top" xlink:title=" ">
<polygon fill="white" stroke="#666666" points="160,-74 0,-74 0,-55 160,-55 160,-74"/>
<text text-anchor="middle" x="80" y="-62" font-family="Helvetica,sans-Serif" font-size="10.00">include/webcface/webcface.h</text>
</a>
</g>
</g>
<!-- Node1&#45;&gt;Node10 -->
<g id="edge28_Node000001_Node000010" class="edge">
<title>Node1&#45;&gt;Node10</title>
<g id="a_edge28_Node000001_Node000010"><a xlink:title=" ">
<path fill="none" stroke="#63b8ff" d="M437.19,-352.01C290.81,-344.49 4,-318.52 4,-230.5 4,-230.5 4,-230.5 4,-173.5 4,-129.48 46.75,-90.74 68.12,-74.12"/>
<polygon fill="#63b8ff" stroke="#63b8ff" points="437.31,-355.52 447.48,-352.52 437.66,-348.53 437.31,-355.52"/>
</a>
</g>
</g>
<!-- Node14 -->
<g id="Node000014" class="node">
<title>Node14</title>
<g id="a_Node000014"><a xlink:href="view_8h.html" target="_top" xlink:title=" ">
<polygon fill="white" stroke="#666666" points="554,-129 418,-129 418,-110 554,-110 554,-129"/>
<text text-anchor="middle" x="486" y="-117" font-family="Helvetica,sans-Serif" font-size="10.00">include/webcface/view.h</text>
</a>
</g>
</g>
<!-- Node1&#45;&gt;Node14 -->
<g id="edge27_Node000001_Node000014" class="edge">
<title>Node1&#45;&gt;Node14</title>
<g id="a_edge27_Node000001_Node000014"><a xlink:title=" ">
<path fill="none" stroke="#63b8ff" d="M505.9,-332.23C501.21,-323.99 496.59,-314.4 494,-305 475.92,-239.48 482.3,-155.95 485.03,-129.17"/>
<polygon fill="#63b8ff" stroke="#63b8ff" points="502.95,-334.12 511.12,-340.87 508.94,-330.5 502.95,-334.12"/>
</a>
</g>
</g>
<!-- Node15 -->
<g id="Node000015" class="node">
<title>Node15</title>
<g id="a_Node000015"><a xlink:href="message_8h.html" target="_top" xlink:title=" ">
<polygon fill="white" stroke="#666666" points="964.5,-184 847.5,-184 847.5,-165 964.5,-165 964.5,-184"/>
<text text-anchor="middle" x="906" y="-172" font-family="Helvetica,sans-Serif" font-size="10.00">message/message.h</text>
</a>
</g>
</g>
<!-- Node1&#45;&gt;Node15 -->
<g id="edge29_Node000001_Node000015" class="edge">
<title>Node1&#45;&gt;Node15</title>
<g id="a_edge29_Node000001_Node000015"><a xlink:title=" ">
<path fill="none" stroke="#63b8ff" d="M604.61,-341.86C707.35,-323.8 872.57,-287.91 909,-239 921,-222.89 914.42,-197.59 909.61,-184.31"/>
<polygon fill="#63b8ff" stroke="#63b8ff" points="603.82,-338.44 594.56,-343.6 605.01,-345.34 603.82,-338.44"/>
</a>
</g>
</g>
<!-- Node3 -->
<g id="Node000003" class="node">
<title>Node3</title>
<g id="a_Node000003"><a xlink:href="client__data_8cc.html" target="_top" xlink:title=" ">
<polygon fill="white" stroke="#666666" points="900,-239 786,-239 786,-220 900,-220 900,-239"/>
<text text-anchor="middle" x="843" y="-227" font-family="Helvetica,sans-Serif" font-size="10.00">client/client_data.cc</text>
</a>
</g>
</g>
<!-- Node2&#45;&gt;Node3 -->
<g id="edge2_Node000002_Node000003" class="edge">
<title>Node2&#45;&gt;Node3</title>
<g id="a_edge2_Node000002_Node000003"><a xlink:title=" ">
<path fill="none" stroke="#63b8ff" d="M643.6,-272.92C695.01,-261.98 761.03,-247.94 802.69,-239.08"/>
<polygon fill="#63b8ff" stroke="#63b8ff" points="642.57,-269.56 633.52,-275.06 644.03,-276.4 642.57,-269.56"/>
</a>
</g>
</g>
<!-- Node4 -->
<g id="Node000004" class="node">
<title>Node4</title>
<g id="a_Node000004"><a xlink:href="field_8cc.html" target="_top" xlink:title=" ">
<polygon fill="white" stroke="#666666" points="583.5,-239 502.5,-239 502.5,-220 583.5,-220 583.5,-239"/>
<text text-anchor="middle" x="543" y="-227" font-family="Helvetica,sans-Serif" font-size="10.00">client/field.cc</text>
</a>
</g>
</g>
<!-- Node2&#45;&gt;Node4 -->
<g id="edge3_Node000002_Node000004" class="edge">
<title>Node2&#45;&gt;Node4</title>
<g id="a_edge3_Node000002_Node000004"><a xlink:title=" ">
<path fill="none" stroke="#63b8ff" d="M558.01,-265.63C554.05,-256.35 549.73,-246.25 546.75,-239.27"/>
<polygon fill="#63b8ff" stroke="#63b8ff" points="554.8,-267.02 561.95,-274.84 561.24,-264.27 554.8,-267.02"/>
</a>
</g>
</g>
<!-- Node5 -->
<g id="Node000005" class="node">
<title>Node5</title>
<g id="a_Node000005"><a xlink:href="logger_8cc.html" target="_top" xlink:title=" ">
<polygon fill="white" stroke="#666666" points="692,-239 602,-239 602,-220 692,-220 692,-239"/>
<text text-anchor="middle" x="647" y="-227" font-family="Helvetica,sans-Serif" font-size="10.00">client/logger.cc</text>
</a>
</g>
</g>
<!-- Node2&#45;&gt;Node5 -->
<g id="edge4_Node000002_Node000005" class="edge">
<title>Node2&#45;&gt;Node5</title>
<g id="a_edge4_Node000002_Node000005"><a xlink:title=" ">
<path fill="none" stroke="#63b8ff" d="M595.26,-268.82C608.87,-258.73 624.65,-247.05 635.16,-239.27"/>
<polygon fill="#63b8ff" stroke="#63b8ff" points="593.08,-266.07 587.12,-274.84 597.24,-271.7 593.08,-266.07"/>
</a>
</g>
</g>
<!-- Node6 -->
<g id="Node000006" class="node">
<title>Node6</title>
<g id="a_Node000006"><a xlink:href="member_8cc.html" target="_top" xlink:title=" ">
<polygon fill="white" stroke="#666666" points="770.5,-74 669.5,-74 669.5,-55 770.5,-55 770.5,-74"/>
<text text-anchor="middle" x="720" y="-62" font-family="Helvetica,sans-Serif" font-size="10.00">client/member.cc</text>
</a>
</g>
</g>
<!-- Node2&#45;&gt;Node6 -->
<g id="edge5_Node000002_Node000006" class="edge">
<title>Node2&#45;&gt;Node6</title>
<g id="a_edge5_Node000002_Node000006"><a xlink:title=" ">
<path fill="none" stroke="#63b8ff" d="M643.93,-281.65C671.44,-274.91 699.91,-262.33 717,-239 754.92,-187.23 731.81,-101.5 722.98,-74.16"/>
<polygon fill="#63b8ff" stroke="#63b8ff" points="642.87,-278.3 633.86,-283.87 644.38,-285.13 642.87,-278.3"/>
</a>
</g>
</g>
<!-- Node7 -->
<g id="Node000007" class="node">
<title>Node7</title>
<g id="a_Node000007"><a xlink:href="client_8h.html" target="_top" xlink:title=" ">
<polygon fill="white" stroke="#666666" points="286,-129 146,-129 146,-110 286,-110 286,-129"/>
<text text-anchor="middle" x="216" y="-117" font-family="Helvetica,sans-Serif" font-size="10.00">include/webcface/client.h</text>
</a>
</g>
</g>
<!-- Node2&#45;&gt;Node7 -->
<g id="edge6_Node000002_Node000007" class="edge">
<title>Node2&#45;&gt;Node7</title>
<g id="a_edge6_Node000002_Node000007"><a xlink:title=" ">
<path fill="none" stroke="#63b8ff" d="M492.11,-281.05C424.96,-272.88 332.97,-258.6 302,-239 257.76,-210.99 229.03,-151.33 219.5,-129.09"/>
<polygon fill="#63b8ff" stroke="#63b8ff" points="491.9,-284.55 502.24,-282.25 492.73,-277.59 491.9,-284.55"/>
</a>
</g>
</g>
<!-- Node2&#45;&gt;Node10 -->
<g id="edge26_Node000002_Node000010" class="edge">
<title>Node2&#45;&gt;Node10</title>
<g id="a_edge26_Node000002_Node000010"><a xlink:title=" ">
<path fill="none" stroke="#63b8ff" d="M492.32,-281.91C432.34,-274.92 346.95,-261.85 275,-239 221,-221.85 207.91,-214.24 160,-184 127.13,-163.25 111.94,-162.36 92,-129 81.64,-111.67 79.92,-87.31 79.81,-74.38"/>
<polygon fill="#63b8ff" stroke="#63b8ff" points="492.14,-285.41 502.47,-283.07 492.93,-278.46 492.14,-285.41"/>
</a>
</g>
</g>
<!-- Node11 -->
<g id="Node000011" class="node">
<title>Node11</title>
<g id="a_Node000011"><a xlink:href="data_8h.html" target="_top" xlink:title=" ">
<polygon fill="white" stroke="#666666" points="445.5,-239 310.5,-239 310.5,-220 445.5,-220 445.5,-239"/>
<text text-anchor="middle" x="378" y="-227" font-family="Helvetica,sans-Serif" font-size="10.00">include/webcface/data.h</text>
</a>
</g>
</g>
<!-- Node2&#45;&gt;Node11 -->
<g id="edge10_Node000002_Node000011" class="edge">
<title>Node2&#45;&gt;Node11</title>
<g id="a_edge10_Node000002_Node000011"><a xlink:title=" ">
<path fill="none" stroke="#63b8ff" d="M512.85,-272.02C477.74,-261.21 433.78,-247.67 405.78,-239.05"/>
<polygon fill="#63b8ff" stroke="#63b8ff" points="511.9,-275.39 522.49,-274.99 513.96,-268.7 511.9,-275.39"/>
</a>
</g>
</g>
<!-- Node2&#45;&gt;Node14 -->
<g id="edge25_Node000002_Node000014" class="edge">
<title>Node2&#45;&gt;Node14</title>
<g id="a_edge25_Node000002_Node000014"><a xlink:title=" ">
<path fill="none" stroke="#63b8ff" d="M643.48,-276.72C682.99,-266.65 719.64,-249.16 701,-220 666,-165.24 592.31,-140.17 541.01,-129.01"/>
<polygon fill="#63b8ff" stroke="#63b8ff" points="642.59,-273.33 633.68,-279.06 644.22,-280.14 642.59,-273.33"/>
</a>
</g>
</g>
<!-- Node8 -->
<g id="Node000008" class="node">
<title>Node8</title>
<g id="a_Node000008"><a xlink:href="client_8cc.html" target="_top" xlink:title=" ">
<polygon fill="white" stroke="#666666" points="395.5,-74 308.5,-74 308.5,-55 395.5,-55 395.5,-74"/>
<text text-anchor="middle" x="352" y="-62" font-family="Helvetica,sans-Serif" font-size="10.00">client/client.cc</text>
</a>
</g>
</g>
<!-- Node7&#45;&gt;Node8 -->
<g id="edge7_Node000007_Node000008" class="edge">
<title>Node7&#45;&gt;Node8</title>
<g id="a_edge7_Node000007_Node000008"><a xlink:title=" ">
<path fill="none" stroke="#63b8ff" d="M247.33,-106.29C272.54,-96.47 307.33,-82.91 329.75,-74.17"/>
<polygon fill="#63b8ff" stroke="#63b8ff" points="245.9,-103.09 237.85,-109.98 248.44,-109.61 245.9,-103.09"/>
</a>
</g>
</g>
<!-- Node9 -->
<g id="Node000009" class="node">
<title>Node9</title>
<g id="a_Node000009"><a xlink:href="client__ws_8cc.html" target="_top" xlink:title=" ">
<polygon fill="white" stroke="#666666" points="284,-74 178,-74 178,-55 284,-55 284,-74"/>
<text text-anchor="middle" x="231" y="-62" font-family="Helvetica,sans-Serif" font-size="10.00">client/client_ws.cc</text>
</a>
</g>
</g>
<!-- Node7&#45;&gt;Node9 -->
<g id="edge8_Node000007_Node000009" class="edge">
<title>Node7&#45;&gt;Node9</title>
<g id="a_edge8_Node000007_Node000009"><a xlink:title=" ">
<path fill="none" stroke="#63b8ff" d="M221.25,-99.95C223.74,-91.15 226.6,-81.06 228.57,-74.09"/>
<polygon fill="#63b8ff" stroke="#63b8ff" points="217.83,-99.17 218.48,-109.75 224.57,-101.08 217.83,-99.17"/>
</a>
</g>
</g>
<!-- Node7&#45;&gt;Node10 -->
<g id="edge9_Node000007_Node000010" class="edge">
<title>Node7&#45;&gt;Node10</title>
<g id="a_edge9_Node000007_Node000010"><a xlink:title=" ">
<path fill="none" stroke="#63b8ff" d="M184.67,-106.29C159.46,-96.47 124.67,-82.91 102.25,-74.17"/>
<polygon fill="#63b8ff" stroke="#63b8ff" points="183.56,-109.61 194.15,-109.98 186.1,-103.09 183.56,-109.61"/>
</a>
</g>
</g>
<!-- Node11&#45;&gt;Node6 -->
<g id="edge12_Node000011_Node000006" class="edge">
<title>Node11&#45;&gt;Node6</title>
<g id="a_edge12_Node000011_Node000006"><a xlink:title=" ">
<path fill="none" stroke="#63b8ff" d="M433.72,-217.77C494.05,-204.24 591.26,-176.79 663,-129 685.69,-113.89 705.21,-87.7 714.39,-74.16"/>
<polygon fill="#63b8ff" stroke="#63b8ff" points="432.65,-214.42 423.63,-219.97 434.15,-221.25 432.65,-214.42"/>
</a>
</g>
</g>
<!-- Node11&#45;&gt;Node8 -->
<g id="edge11_Node000011_Node000008" class="edge">
<title>Node11&#45;&gt;Node8</title>
<g id="a_edge11_Node000011_Node000008"><a xlink:title=" ">
<path fill="none" stroke="#63b8ff" d="M340.17,-215.81C325.55,-208.84 310.36,-198.58 302,-184 279.68,-145.06 323.23,-94.22 342.98,-74.17"/>
<polygon fill="#63b8ff" stroke="#63b8ff" points="339.05,-219.14 349.61,-219.92 341.84,-212.72 339.05,-219.14"/>
</a>
</g>
</g>
<!-- Node11&#45;&gt;Node10 -->
<g id="edge24_Node000011_Node000010" class="edge">
<title>Node11&#45;&gt;Node10</title>
<g id="a_edge24_Node000011_Node000010"><a xlink:title=" ">
<path fill="none" stroke="#63b8ff" d="M309.54,-217.99C250.38,-205.74 165.83,-180.23 110,-129 93.47,-113.83 85.2,-87.66 81.86,-74.14"/>
<polygon fill="#63b8ff" stroke="#63b8ff" points="309.06,-221.46 319.55,-219.99 310.42,-214.6 309.06,-221.46"/>
</a>
</g>
</g>
<!-- Node12 -->
<g id="Node000012" class="node">
<title>Node12</title>
<g id="a_Node000012"><a xlink:href="func_8h.html" target="_top" xlink:title=" ">
<polygon fill="white" stroke="#666666" points="445,-184 311,-184 311,-165 445,-165 445,-184"/>
<text text-anchor="middle" x="378" y="-172" font-family="Helvetica,sans-Serif" font-size="10.00">include/webcface/func.h</text>
</a>
</g>
</g>
<!-- Node11&#45;&gt;Node12 -->
<g id="edge13_Node000011_Node000012" class="edge">
<title>Node11&#45;&gt;Node12</title>
<g id="a_edge13_Node000011_Node000012"><a xlink:title=" ">
<path fill="none" stroke="#63b8ff" d="M378,-209.66C378,-200.93 378,-190.99 378,-184.09"/>
<polygon fill="#63b8ff" stroke="#63b8ff" points="374.5,-209.75 378,-219.75 381.5,-209.75 374.5,-209.75"/>
</a>
</g>
</g>
<!-- Node11&#45;&gt;Node14 -->
<g id="edge23_Node000011_Node000014" class="edge">
<title>Node11&#45;&gt;Node14</title>
<g id="a_edge23_Node000011_Node000014"><a xlink:title=" ">
<path fill="none" stroke="#63b8ff" d="M409.01,-215.45C424.02,-207.95 441.47,-197.35 454,-184 469.38,-167.62 479.07,-142.44 483.38,-129.24"/>
<polygon fill="#63b8ff" stroke="#63b8ff" points="407.11,-212.48 399.57,-219.93 410.11,-218.8 407.11,-212.48"/>
</a>
</g>
</g>
<!-- Node12&#45;&gt;Node6 -->
<g id="edge16_Node000012_Node000006" class="edge">
<title>Node12&#45;&gt;Node6</title>
<g id="a_edge16_Node000012_Node000006"><a xlink:title=" ">
<path fill="none" stroke="#63b8ff" d="M382.04,-154.9C386.23,-140.3 394.3,-120.7 409,-110 449.51,-80.5 592.09,-70.42 669.35,-67.08"/>
<polygon fill="#63b8ff" stroke="#63b8ff" points="378.58,-154.32 379.55,-164.87 385.37,-156.01 378.58,-154.32"/>
</a>
</g>
</g>
<!-- Node12&#45;&gt;Node7 -->
<g id="edge17_Node000012_Node000007" class="edge">
<title>Node12&#45;&gt;Node7</title>
<g id="a_edge17_Node000012_Node000007"><a xlink:title=" ">
<path fill="none" stroke="#63b8ff" d="M342.23,-161.8C312,-151.91 269.39,-137.97 242.23,-129.08"/>
<polygon fill="#63b8ff" stroke="#63b8ff" points="341.38,-165.2 351.97,-164.98 343.56,-158.55 341.38,-165.2"/>
</a>
</g>
</g>
<!-- Node12&#45;&gt;Node8 -->
<g id="edge14_Node000012_Node000008" class="edge">
<title>Node12&#45;&gt;Node8</title>
<g id="a_edge14_Node000012_Node000008"><a xlink:title=" ">
<path fill="none" stroke="#63b8ff" d="M373.5,-154.8C367.82,-131.2 358.28,-91.58 354.08,-74.16"/>
<polygon fill="#63b8ff" stroke="#63b8ff" points="370.13,-155.76 375.87,-164.66 376.93,-154.12 370.13,-155.76"/>
</a>
</g>
</g>
<!-- Node12&#45;&gt;Node10 -->
<g id="edge22_Node000012_Node000010" class="edge">
<title>Node12&#45;&gt;Node10</title>
<g id="a_edge22_Node000012_Node000010"><a xlink:title=" ">
<path fill="none" stroke="#63b8ff" d="M300.9,-171.89C251.34,-167.92 187.09,-157.08 137,-129 112.96,-115.53 93.77,-88.11 85.06,-74.12"/>
<polygon fill="#63b8ff" stroke="#63b8ff" points="300.7,-175.39 310.93,-172.62 301.21,-168.41 300.7,-175.39"/>
</a>
</g>
</g>
<!-- Node13 -->
<g id="Node000013" class="node">
<title>Node13</title>
<g id="a_Node000013"><a xlink:href="func_8cc.html" target="_top" xlink:title=" ">
<polygon fill="white" stroke="#666666" points="653.5,-129 572.5,-129 572.5,-110 653.5,-110 653.5,-129"/>
<text text-anchor="middle" x="613" y="-117" font-family="Helvetica,sans-Serif" font-size="10.00">client/func.cc</text>
</a>
</g>
</g>
<!-- Node12&#45;&gt;Node13 -->
<g id="edge15_Node000012_Node000013" class="edge">
<title>Node12&#45;&gt;Node13</title>
<g id="a_edge15_Node000012_Node000013"><a xlink:title=" ">
<path fill="none" stroke="#63b8ff" d="M425.65,-162.75C469.69,-152.82 534.27,-138.26 574.95,-129.08"/>
<polygon fill="#63b8ff" stroke="#63b8ff" points="424.74,-159.37 415.76,-164.98 426.28,-166.2 424.74,-159.37"/>
</a>
</g>
</g>
<!-- Node12&#45;&gt;Node14 -->
<g id="edge18_Node000012_Node000014" class="edge">
<title>Node12&#45;&gt;Node14</title>
<g id="a_edge18_Node000012_Node000014"><a xlink:title=" ">
<path fill="none" stroke="#63b8ff" d="M404.49,-160.5C424.36,-150.75 451,-137.68 468.33,-129.17"/>
<polygon fill="#63b8ff" stroke="#63b8ff" points="402.79,-157.44 395.35,-164.98 405.87,-163.72 402.79,-157.44"/>
</a>
</g>
</g>
<!-- Node14&#45;&gt;Node6 -->
<g id="edge20_Node000014_Node000006" class="edge">
<title>Node14&#45;&gt;Node6</title>
<g id="a_edge20_Node000014_Node000006"><a xlink:title=" ">
<path fill="none" stroke="#63b8ff" d="M533.45,-107.75C577.3,-97.82 641.6,-83.26 682.11,-74.08"/>
<polygon fill="#63b8ff" stroke="#63b8ff" points="532.58,-104.36 523.6,-109.98 534.12,-111.19 532.58,-104.36"/>
</a>
</g>
</g>
<!-- Node14&#45;&gt;Node8 -->
<g id="edge19_Node000014_Node000008" class="edge">
<title>Node14&#45;&gt;Node8</title>
<g id="a_edge19_Node000014_Node000008"><a xlink:title=" ">
<path fill="none" stroke="#63b8ff" d="M455.13,-106.29C430.3,-96.47 396.01,-82.91 373.92,-74.17"/>
<polygon fill="#63b8ff" stroke="#63b8ff" points="453.88,-109.56 464.47,-109.98 456.46,-103.05 453.88,-109.56"/>
</a>
</g>
</g>
<!-- Node14&#45;&gt;Node10 -->
<g id="edge21_Node000014_Node000010" class="edge">
<title>Node14&#45;&gt;Node10</title>
<g id="a_edge21_Node000014_Node000010"><a xlink:title=" ">
<path fill="none" stroke="#63b8ff" d="M410.76,-108.68C334.55,-98.73 217.88,-83.5 145.41,-74.04"/>
<polygon fill="#63b8ff" stroke="#63b8ff" points="410.4,-112.16 420.77,-109.98 411.31,-105.22 410.4,-112.16"/>
</a>
</g>
</g>
<!-- Node15&#45;&gt;Node6 -->
<g id="edge32_Node000015_Node000006" class="edge">
<title>Node15&#45;&gt;Node6</title>
<g id="a_edge32_Node000015_Node000006"><a xlink:title=" ">
<path fill="none" stroke="#63b8ff" d="M876.99,-160.53C858.86,-152.13 835.19,-140.62 815,-129 783.88,-111.1 749.27,-86.77 731.67,-74.05"/>
<polygon fill="#63b8ff" stroke="#63b8ff" points="875.89,-163.87 886.44,-164.86 878.8,-157.51 875.89,-163.87"/>
</a>
</g>
</g>
<!-- Node15&#45;&gt;Node8 -->
<g id="edge30_Node000015_Node000008" class="edge">
<title>Node15&#45;&gt;Node8</title>
<g id="a_edge30_Node000015_Node000008"><a xlink:title=" ">
<path fill="none" stroke="#63b8ff" d="M867.56,-162.01C819.92,-148.1 736.07,-124.73 663,-110 568.36,-90.93 455.92,-76.96 395.53,-70.15"/>
<polygon fill="#63b8ff" stroke="#63b8ff" points="866.86,-165.45 877.44,-164.91 868.83,-158.73 866.86,-165.45"/>
</a>
</g>
</g>
<!-- Node15&#45;&gt;Node13 -->
<g id="edge31_Node000015_Node000013" class="edge">
<title>Node15&#45;&gt;Node13</title>
<g id="a_edge31_Node000015_Node000013"><a xlink:title=" ">
<path fill="none" stroke="#63b8ff" d="M848.93,-163.18C791.57,-152.8 704.59,-137.07 653.82,-127.88"/>
<polygon fill="#63b8ff" stroke="#63b8ff" points="848.46,-166.65 858.92,-164.98 849.71,-159.76 848.46,-166.65"/>
</a>
</g>
</g>
<!-- Node16 -->
<g id="Node000016" class="node">
<title>Node16</title>
<g id="a_Node000016"><a xlink:href="message_8cc.html" target="_top" xlink:title=" ">
<polygon fill="white" stroke="#666666" points="946,-129 824,-129 824,-110 946,-110 946,-129"/>
<text text-anchor="middle" x="885" y="-117" font-family="Helvetica,sans-Serif" font-size="10.00">message/message.cc</text>
</a>
</g>
</g>
<!-- Node15&#45;&gt;Node16 -->
<g id="edge33_Node000015_Node000016" class="edge">
<title>Node15&#45;&gt;Node16</title>
<g id="a_edge33_Node000015_Node000016"><a xlink:title=" ">
<path fill="none" stroke="#63b8ff" d="M898.76,-155.24C895.25,-146.37 891.2,-136.14 888.4,-129.09"/>
<polygon fill="#63b8ff" stroke="#63b8ff" points="895.59,-156.74 902.53,-164.75 902.1,-154.16 895.59,-156.74"/>
</a>
</g>
</g>
<!-- Node17 -->
<g id="Node000017" class="node">
<title>Node17</title>
<g id="a_Node000017"><a xlink:href="s__client__data_8cc.html" target="_top" xlink:title=" ">
<polygon fill="white" stroke="#666666" points="1286,-19 1158,-19 1158,0 1286,0 1286,-19"/>
<text text-anchor="middle" x="1222" y="-7" font-family="Helvetica,sans-Serif" font-size="10.00">server/s_client_data.cc</text>
</a>
</g>
</g>
<!-- Node15&#45;&gt;Node17 -->
<g id="edge34_Node000015_Node000017" class="edge">
<title>Node15&#45;&gt;Node17</title>
<g id="a_edge34_Node000015_Node000017"><a xlink:title=" ">
<path fill="none" stroke="#63b8ff" d="M975.01,-170.06C1022.23,-165.37 1085.07,-154.43 1135,-129 1166.94,-112.73 1173.23,-103.22 1194,-74 1206.56,-56.32 1215.3,-32.11 1219.38,-19.29"/>
<polygon fill="#63b8ff" stroke="#63b8ff" points="974.52,-166.59 964.88,-170.99 975.16,-173.56 974.52,-166.59"/>
</a>
</g>
</g>
<!-- Node18 -->
<g id="Node000018" class="node">
<title>Node18</title>
<g id="a_Node000018"><a xlink:href="s__client__data_8h.html" target="_top" xlink:title=" ">
<polygon fill="white" stroke="#666666" points="1126,-129 1002,-129 1002,-110 1126,-110 1126,-129"/>
<text text-anchor="middle" x="1064" y="-117" font-family="Helvetica,sans-Serif" font-size="10.00">server/s_client_data.h</text>
</a>
</g>
</g>
<!-- Node15&#45;&gt;Node18 -->
<g id="edge35_Node000015_Node000018" class="edge">
<title>Node15&#45;&gt;Node18</title>
<g id="a_edge35_Node000015_Node000018"><a xlink:title=" ">
<path fill="none" stroke="#63b8ff" d="M940.88,-161.8C970.37,-151.91 1011.93,-137.97 1038.42,-129.08"/>
<polygon fill="#63b8ff" stroke="#63b8ff" points="939.75,-158.49 931.39,-164.98 941.98,-165.12 939.75,-158.49"/>
</a>
</g>
</g>
<!-- Node21 -->
<g id="Node000021" class="node">
<title>Node21</title>
<g id="a_Node000021"><a xlink:href="websock_8cc.html" target="_top" xlink:title=" ">
<polygon fill="white" stroke="#666666" points="1032.5,-19 925.5,-19 925.5,0 1032.5,0 1032.5,-19"/>
<text text-anchor="middle" x="979" y="-7" font-family="Helvetica,sans-Serif" font-size="10.00">server/websock.cc</text>
</a>
</g>
</g>
<!-- Node15&#45;&gt;Node21 -->
<g id="edge43_Node000015_Node000021" class="edge">
<title>Node15&#45;&gt;Node21</title>
<g id="a_edge43_Node000015_Node000021"><a xlink:title=" ">
<path fill="none" stroke="#63b8ff" d="M927.64,-158.84C937.45,-151.09 948.33,-140.75 955,-129 975.95,-92.13 978.78,-39.67 979.04,-19.17"/>
<polygon fill="#63b8ff" stroke="#63b8ff" points="925.35,-156.18 919.42,-164.95 929.53,-161.79 925.35,-156.18"/>
</a>
</g>
</g>
<!-- Node18&#45;&gt;Node17 -->
<g id="edge36_Node000018_Node000017" class="edge">
<title>Node18&#45;&gt;Node17</title>
<g id="a_edge36_Node000018_Node000017"><a xlink:title=" ">
<path fill="none" stroke="#63b8ff" d="M1105.27,-106.75C1126.27,-99.49 1151.42,-88.71 1171,-74 1191.8,-58.38 1209.05,-32.41 1217.1,-19.04"/>
<polygon fill="#63b8ff" stroke="#63b8ff" points="1104.04,-103.47 1095.65,-109.94 1106.24,-110.12 1104.04,-103.47"/>
</a>
</g>
</g>
<!-- Node19 -->
<g id="Node000019" class="node">
<title>Node19</title>
<g id="a_Node000019"><a xlink:href="store_8cc.html" target="_top" xlink:title=" ">
<polygon fill="white" stroke="#666666" points="1139.5,-19 1050.5,-19 1050.5,0 1139.5,0 1139.5,-19"/>
<text text-anchor="middle" x="1095" y="-7" font-family="Helvetica,sans-Serif" font-size="10.00">server/store.cc</text>
</a>
</g>
</g>
<!-- Node18&#45;&gt;Node19 -->
<g id="edge37_Node000018_Node000019" class="edge">
<title>Node18&#45;&gt;Node19</title>
<g id="a_edge37_Node000018_Node000019"><a xlink:title=" ">
<path fill="none" stroke="#63b8ff" d="M1063.3,-99.26C1063.37,-86.45 1064.49,-69.38 1069,-55 1073.23,-41.51 1082.14,-27.72 1088.35,-19.14"/>
<polygon fill="#63b8ff" stroke="#63b8ff" points="1059.81,-99.7 1063.47,-109.64 1066.81,-99.58 1059.81,-99.7"/>
</a>
</g>
</g>
<!-- Node20 -->
<g id="Node000020" class="node">
<title>Node20</title>
<g id="a_Node000020"><a xlink:href="store_8h.html" target="_top" xlink:title=" ">
<polygon fill="white" stroke="#666666" points="1162,-74 1078,-74 1078,-55 1162,-55 1162,-74"/>
<text text-anchor="middle" x="1120" y="-62" font-family="Helvetica,sans-Serif" font-size="10.00">server/store.h</text>
</a>
</g>
</g>
<!-- Node18&#45;&gt;Node20 -->
<g id="edge38_Node000018_Node000020" class="edge">
<title>Node18&#45;&gt;Node20</title>
<g id="a_edge38_Node000018_Node000020"><a xlink:title=" ">
<path fill="none" stroke="#63b8ff" d="M1080.33,-103.04C1090.26,-93.64 1102.59,-81.98 1110.84,-74.17"/>
<polygon fill="#63b8ff" stroke="#63b8ff" points="1077.85,-100.57 1073,-109.98 1082.67,-105.65 1077.85,-100.57"/>
</a>
</g>
</g>
<!-- Node18&#45;&gt;Node21 -->
<g id="edge42_Node000018_Node000021" class="edge">
<title>Node18&#45;&gt;Node21</title>
<g id="a_edge42_Node000018_Node000021"><a xlink:title=" ">
<path fill="none" stroke="#63b8ff" d="M1050.77,-101.69C1032.42,-78.37 999.9,-37.05 985.81,-19.16"/>
<polygon fill="#63b8ff" stroke="#63b8ff" points="1048.11,-103.97 1057.04,-109.66 1053.61,-99.64 1048.11,-103.97"/>
</a>
</g>
</g>
<!-- Node20&#45;&gt;Node17 -->
<g id="edge39_Node000020_Node000017" class="edge">
<title>Node20&#45;&gt;Node17</title>
<g id="a_edge39_Node000020_Node000017"><a xlink:title=" ">
<path fill="none" stroke="#63b8ff" d="M1145.27,-50.37C1164.01,-40.63 1189.02,-27.64 1205.31,-19.17"/>
<polygon fill="#63b8ff" stroke="#63b8ff" points="1143.65,-47.27 1136.39,-54.98 1146.88,-53.48 1143.65,-47.27"/>
</a>
</g>
</g>
<!-- Node20&#45;&gt;Node19 -->
<g id="edge40_Node000020_Node000019" class="edge">
<title>Node20&#45;&gt;Node19</title>
<g id="a_edge40_Node000020_Node000019"><a xlink:title=" ">
<path fill="none" stroke="#63b8ff" d="M1111.52,-45.53C1107.31,-36.6 1102.41,-26.22 1099.05,-19.09"/>
<polygon fill="#63b8ff" stroke="#63b8ff" points="1108.44,-47.2 1115.87,-54.75 1114.77,-44.21 1108.44,-47.2"/>
</a>
</g>
</g>
<!-- Node20&#45;&gt;Node21 -->
<g id="edge41_Node000020_Node000021" class="edge">
<title>Node20&#45;&gt;Node21</title>
<g id="a_edge41_Node000020_Node000021"><a xlink:title=" ">
<path fill="none" stroke="#63b8ff" d="M1087.86,-51.42C1061.71,-41.59 1025.41,-27.95 1002.07,-19.17"/>
<polygon fill="#63b8ff" stroke="#63b8ff" points="1086.75,-54.74 1097.35,-54.98 1089.22,-48.19 1086.75,-54.74"/>
</a>
</g>
</g>
</g>
</svg>
