<?xml version="1.0" encoding="UTF-8" standalone="no"?>
<!DOCTYPE svg PUBLIC "-//W3C//DTD SVG 1.1//EN"
 "http://www.w3.org/Graphics/SVG/1.1/DTD/svg11.dtd">
<!-- Generated by graphviz version 2.43.0 (0)
 -->
<!-- Title: include/webcface/common/robot_model.h Pages: 1 -->
<svg width="2072pt" height="324pt"
 viewBox="0.00 0.00 2071.64 324.00" xmlns="http://www.w3.org/2000/svg" xmlns:xlink="http://www.w3.org/1999/xlink">
<g id="graph0" class="graph" transform="scale(1 1) rotate(0) translate(4 320)">
<title>include/webcface/common/robot_model.h</title>
<!-- Node1 -->
<g id="Node000001" class="node">
<title>Node1</title>
<g id="a_Node000001"><a xlink:title=" ">
<polygon fill="#999999" stroke="#666666" points="1043,-316 896,-316 896,-286 1043,-286 1043,-316"/>
<text text-anchor="start" x="904" y="-304" font-family="Helvetica,sans-Serif" font-size="10.00">include/webcface/common</text>
<text text-anchor="middle" x="969.5" y="-293" font-family="Helvetica,sans-Serif" font-size="10.00">/robot_model.h</text>
</a>
</g>
</g>
<!-- Node2 -->
<g id="Node000002" class="node">
<title>Node2</title>
<g id="a_Node000002"><a xlink:href="client__internal_8h.html" target="_top" xlink:title=" ">
<polygon fill="white" stroke="#666666" points="903,-129 778,-129 778,-110 903,-110 903,-129"/>
<text text-anchor="middle" x="840.5" y="-117" font-family="Helvetica,sans-Serif" font-size="10.00">client/client_internal.h</text>
</a>
</g>
</g>
<!-- Node1&#45;&gt;Node2 -->
<g id="edge1_Node000001_Node000002" class="edge">
<title>Node1&#45;&gt;Node2</title>
<g id="a_edge1_Node000001_Node000002"><a xlink:title=" ">
<path fill="none" stroke="#63b8ff" d="M953.41,-277.62C924.71,-237.68 865.9,-155.84 846.71,-129.13"/>
<polygon fill="#63b8ff" stroke="#63b8ff" points="950.7,-279.84 959.38,-285.91 956.38,-275.75 950.7,-279.84"/>
</a>
</g>
</g>
<!-- Node20 -->
<g id="Node000020" class="node">
<title>Node20</title>
<g id="a_Node000020"><a xlink:href="data__buffer_8h.html" target="_top" xlink:title=" ">
<polygon fill="white" stroke="#666666" points="342.5,-129 232.5,-129 232.5,-110 342.5,-110 342.5,-129"/>
<text text-anchor="middle" x="287.5" y="-117" font-family="Helvetica,sans-Serif" font-size="10.00">client/data_buffer.h</text>
</a>
</g>
</g>
<!-- Node1&#45;&gt;Node20 -->
<g id="edge21_Node000001_Node000020" class="edge">
<title>Node1&#45;&gt;Node20</title>
<g id="a_edge21_Node000001_Node000020"><a xlink:title=" ">
<path fill="none" stroke="#63b8ff" d="M885.82,-290.92C821.85,-282.98 731.81,-269.6 654.5,-250 518.93,-215.63 362.65,-152.17 307.79,-129.14"/>
<polygon fill="#63b8ff" stroke="#63b8ff" points="885.5,-294.41 895.85,-292.15 886.35,-287.46 885.5,-294.41"/>
</a>
</g>
</g>
<!-- Node21 -->
<g id="Node000021" class="node">
<title>Node21</title>
<g id="a_Node000021"><a xlink:href="data__store2_8h.html" target="_top" xlink:title=" ">
<polygon fill="white" stroke="#666666" points="645,-189.5 532,-189.5 532,-170.5 645,-170.5 645,-189.5"/>
<text text-anchor="middle" x="588.5" y="-177.5" font-family="Helvetica,sans-Serif" font-size="10.00">client/data_store2.h</text>
</a>
</g>
</g>
<!-- Node1&#45;&gt;Node21 -->
<g id="edge26_Node000001_Node000021" class="edge">
<title>Node1&#45;&gt;Node21</title>
<g id="a_edge26_Node000001_Node000021"><a xlink:title=" ">
<path fill="none" stroke="#63b8ff" d="M885.78,-292.97C830.8,-286.34 758.11,-273.72 697.5,-250 658.08,-234.57 617.46,-204.32 598.89,-189.53"/>
<polygon fill="#63b8ff" stroke="#63b8ff" points="885.5,-296.46 895.84,-294.13 886.31,-289.5 885.5,-296.46"/>
</a>
</g>
</g>
<!-- Node23 -->
<g id="Node000023" class="node">
<title>Node23</title>
<g id="a_Node000023"><a xlink:href="canvas3d_8h.html" target="_top" xlink:title=" ">
<polygon fill="white" stroke="#666666" points="1229.5,-129 1069.5,-129 1069.5,-110 1229.5,-110 1229.5,-129"/>
<text text-anchor="middle" x="1149.5" y="-117" font-family="Helvetica,sans-Serif" font-size="10.00">include/webcface/canvas3d.h</text>
</a>
</g>
</g>
<!-- Node1&#45;&gt;Node23 -->
<g id="edge29_Node000001_Node000023" class="edge">
<title>Node1&#45;&gt;Node23</title>
<g id="a_edge29_Node000001_Node000023"><a xlink:title=" ">
<path fill="none" stroke="#63b8ff" d="M965.61,-275.76C962.3,-245.95 961.66,-195.57 988.5,-165 1008.78,-141.9 1039.87,-130.3 1069.34,-124.64"/>
<polygon fill="#63b8ff" stroke="#63b8ff" points="962.15,-276.27 966.91,-285.73 969.09,-275.37 962.15,-276.27"/>
</a>
</g>
</g>
<!-- Node24 -->
<g id="Node000024" class="node">
<title>Node24</title>
<g id="a_Node000024"><a xlink:href="webcface_8h.html" target="_top" xlink:title=" ">
<polygon fill="white" stroke="#666666" points="2036.5,-74 1876.5,-74 1876.5,-55 2036.5,-55 2036.5,-74"/>
<text text-anchor="middle" x="1956.5" y="-62" font-family="Helvetica,sans-Serif" font-size="10.00">include/webcface/webcface.h</text>
</a>
</g>
</g>
<!-- Node1&#45;&gt;Node24 -->
<g id="edge43_Node000001_Node000024" class="edge">
<title>Node1&#45;&gt;Node24</title>
<g id="a_edge43_Node000001_Node000024"><a xlink:title=" ">
<path fill="none" stroke="#63b8ff" d="M1053.28,-298.22C1246.93,-292.83 1719.38,-271.94 1855.5,-195 1907.38,-165.68 1941.87,-97.92 1952.78,-74.03"/>
<polygon fill="#63b8ff" stroke="#63b8ff" points="1053.06,-294.73 1043.16,-298.5 1053.25,-301.72 1053.06,-294.73"/>
</a>
</g>
</g>
<!-- Node25 -->
<g id="Node000025" class="node">
<title>Node25</title>
<g id="a_Node000025"><a xlink:href="robot__model_8h.html" target="_top" xlink:title=" ">
<polygon fill="white" stroke="#666666" points="1127.5,-195 997.5,-195 997.5,-165 1127.5,-165 1127.5,-195"/>
<text text-anchor="start" x="1005.5" y="-183" font-family="Helvetica,sans-Serif" font-size="10.00">include/webcface/robot</text>
<text text-anchor="middle" x="1062.5" y="-172" font-family="Helvetica,sans-Serif" font-size="10.00">_model.h</text>
</a>
</g>
</g>
<!-- Node1&#45;&gt;Node25 -->
<g id="edge35_Node000001_Node000025" class="edge">
<title>Node1&#45;&gt;Node25</title>
<g id="a_edge35_Node000001_Node000025"><a xlink:title=" ">
<path fill="none" stroke="#63b8ff" d="M986.73,-277.95C1005.66,-253.74 1035.48,-215.58 1051.48,-195.1"/>
<polygon fill="#63b8ff" stroke="#63b8ff" points="983.93,-275.85 980.53,-285.88 989.45,-280.16 983.93,-275.85"/>
</a>
</g>
</g>
<!-- Node26 -->
<g id="Node000026" class="node">
<title>Node26</title>
<g id="a_Node000026"><a xlink:href="message_8h.html" target="_top" xlink:title=" ">
<polygon fill="white" stroke="#666666" points="1392,-250 1275,-250 1275,-231 1392,-231 1392,-250"/>
<text text-anchor="middle" x="1333.5" y="-238" font-family="Helvetica,sans-Serif" font-size="10.00">message/message.h</text>
</a>
</g>
</g>
<!-- Node1&#45;&gt;Node26 -->
<g id="edge44_Node000001_Node000026" class="edge">
<title>Node1&#45;&gt;Node26</title>
<g id="a_edge44_Node000001_Node000026"><a xlink:title=" ">
<path fill="none" stroke="#63b8ff" d="M1053.28,-286.54C1123.28,-275.28 1220.96,-259.59 1280.58,-250.01"/>
<polygon fill="#63b8ff" stroke="#63b8ff" points="1052.48,-283.12 1043.16,-288.16 1053.59,-290.03 1052.48,-283.12"/>
</a>
</g>
</g>
<!-- Node3 -->
<g id="Node000003" class="node">
<title>Node3</title>
<g id="a_Node000003"><a xlink:href="canvas2d_8cc.html" target="_top" xlink:title=" ">
<polygon fill="white" stroke="#666666" points="208,-74 101,-74 101,-55 208,-55 208,-74"/>
<text text-anchor="middle" x="154.5" y="-62" font-family="Helvetica,sans-Serif" font-size="10.00">client/canvas2d.cc</text>
</a>
</g>
</g>
<!-- Node2&#45;&gt;Node3 -->
<g id="edge2_Node000002_Node000003" class="edge">
<title>Node2&#45;&gt;Node3</title>
<g id="a_edge2_Node000002_Node000003"><a xlink:title=" ">
<path fill="none" stroke="#63b8ff" d="M767.56,-113.87C626.78,-104.83 322.27,-84.8 217.5,-74 214.43,-73.68 211.27,-73.33 208.09,-72.96"/>
<polygon fill="#63b8ff" stroke="#63b8ff" points="767.61,-117.38 777.81,-114.53 768.06,-110.39 767.61,-117.38"/>
</a>
</g>
</g>
<!-- Node4 -->
<g id="Node000004" class="node">
<title>Node4</title>
<g id="a_Node000004"><a xlink:href="canvas3d_8cc.html" target="_top" xlink:title=" ">
<polygon fill="white" stroke="#666666" points="918,-74 811,-74 811,-55 918,-55 918,-74"/>
<text text-anchor="middle" x="864.5" y="-62" font-family="Helvetica,sans-Serif" font-size="10.00">client/canvas3d.cc</text>
</a>
</g>
</g>
<!-- Node2&#45;&gt;Node4 -->
<g id="edge3_Node000002_Node000004" class="edge">
<title>Node2&#45;&gt;Node4</title>
<g id="a_edge3_Node000002_Node000004"><a xlink:title=" ">
<path fill="none" stroke="#63b8ff" d="M848.64,-100.53C852.68,-91.6 857.38,-81.22 860.61,-74.09"/>
<polygon fill="#63b8ff" stroke="#63b8ff" points="845.4,-99.19 844.46,-109.75 851.78,-102.08 845.4,-99.19"/>
</a>
</g>
</g>
<!-- Node5 -->
<g id="Node000005" class="node">
<title>Node5</title>
<g id="a_Node000005"><a xlink:href="canvas__data_8cc.html" target="_top" xlink:title=" ">
<polygon fill="white" stroke="#666666" points="1058.5,-74 936.5,-74 936.5,-55 1058.5,-55 1058.5,-74"/>
<text text-anchor="middle" x="997.5" y="-62" font-family="Helvetica,sans-Serif" font-size="10.00">client/canvas_data.cc</text>
</a>
</g>
</g>
<!-- Node2&#45;&gt;Node5 -->
<g id="edge4_Node000002_Node000005" class="edge">
<title>Node2&#45;&gt;Node5</title>
<g id="a_edge4_Node000002_Node000005"><a xlink:title=" ">
<path fill="none" stroke="#63b8ff" d="M875.55,-106.67C904.82,-96.79 945.87,-82.93 972.08,-74.08"/>
<polygon fill="#63b8ff" stroke="#63b8ff" points="874.08,-103.47 865.72,-109.98 876.32,-110.1 874.08,-103.47"/>
</a>
</g>
</g>
<!-- Node6 -->
<g id="Node000006" class="node">
<title>Node6</title>
<g id="a_Node000006"><a xlink:href="client_2client_8cc.html" target="_top" xlink:title=" ">
<polygon fill="white" stroke="#666666" points="1230,-19 1143,-19 1143,0 1230,0 1230,-19"/>
<text text-anchor="middle" x="1186.5" y="-7" font-family="Helvetica,sans-Serif" font-size="10.00">client/client.cc</text>
</a>
</g>
</g>
<!-- Node2&#45;&gt;Node6 -->
<g id="edge5_Node000002_Node000006" class="edge">
<title>Node2&#45;&gt;Node6</title>
<g id="a_edge5_Node000002_Node000006"><a xlink:title=" ">
<path fill="none" stroke="#63b8ff" d="M820.98,-103.36C805.79,-89.79 789.33,-69.79 802.5,-55 824.85,-29.91 1047.2,-16.84 1142.98,-12.34"/>
<polygon fill="#63b8ff" stroke="#63b8ff" points="818.74,-106.05 828.64,-109.81 823.25,-100.7 818.74,-106.05"/>
</a>
</g>
</g>
<!-- Node7 -->
<g id="Node000007" class="node">
<title>Node7</title>
<g id="a_Node000007"><a xlink:href="client__ws_8cc.html" target="_top" xlink:title=" ">
<polygon fill="white" stroke="#666666" points="469.5,-19 363.5,-19 363.5,0 469.5,0 469.5,-19"/>
<text text-anchor="middle" x="416.5" y="-7" font-family="Helvetica,sans-Serif" font-size="10.00">client/client_ws.cc</text>
</a>
</g>
</g>
<!-- Node2&#45;&gt;Node7 -->
<g id="edge6_Node000002_Node000007" class="edge">
<title>Node2&#45;&gt;Node7</title>
<g id="a_edge6_Node000002_Node000007"><a xlink:title=" ">
<path fill="none" stroke="#63b8ff" d="M767.93,-110.46C766.44,-110.31 764.96,-110.15 763.5,-110 722.75,-105.75 424.02,-104.35 396.5,-74 382.21,-58.24 398.8,-32.33 409.25,-19"/>
<polygon fill="#63b8ff" stroke="#63b8ff" points="767.58,-113.95 777.89,-111.52 768.32,-106.99 767.58,-113.95"/>
</a>
</g>
</g>
<!-- Node8 -->
<g id="Node000008" class="node">
<title>Node8</title>
<g id="a_Node000008"><a xlink:href="client__ws_8h.html" target="_top" xlink:title=" ">
<polygon fill="white" stroke="#666666" points="506,-74 405,-74 405,-55 506,-55 506,-74"/>
<text text-anchor="middle" x="455.5" y="-62" font-family="Helvetica,sans-Serif" font-size="10.00">client/client_ws.h</text>
</a>
</g>
</g>
<!-- Node2&#45;&gt;Node8 -->
<g id="edge7_Node000002_Node000008" class="edge">
<title>Node2&#45;&gt;Node8</title>
<g id="a_edge7_Node000002_Node000008"><a xlink:title=" ">
<path fill="none" stroke="#63b8ff" d="M767.6,-108.62C701.73,-99.66 602.1,-86.06 515.5,-74 512.48,-73.58 509.37,-73.14 506.24,-72.7"/>
<polygon fill="#63b8ff" stroke="#63b8ff" points="767.5,-112.14 777.88,-110.01 768.44,-105.2 767.5,-112.14"/>
</a>
</g>
</g>
<!-- Node9 -->
<g id="Node000009" class="node">
<title>Node9</title>
<g id="a_Node000009"><a xlink:href="field_8cc.html" target="_top" xlink:title=" ">
<polygon fill="white" stroke="#666666" points="1158,-74 1077,-74 1077,-55 1158,-55 1158,-74"/>
<text text-anchor="middle" x="1117.5" y="-62" font-family="Helvetica,sans-Serif" font-size="10.00">client/field.cc</text>
</a>
</g>
</g>
<!-- Node2&#45;&gt;Node9 -->
<g id="edge10_Node000002_Node000009" class="edge">
<title>Node2&#45;&gt;Node9</title>
<g id="a_edge10_Node000002_Node000009"><a xlink:title=" ">
<path fill="none" stroke="#63b8ff" d="M894.98,-108.08C948.39,-97.86 1028.59,-82.51 1076.72,-73.3"/>
<polygon fill="#63b8ff" stroke="#63b8ff" points="894.17,-104.67 885,-109.98 895.48,-111.54 894.17,-104.67"/>
</a>
</g>
</g>
<!-- Node10 -->
<g id="Node000010" class="node">
<title>Node10</title>
<g id="a_Node000010"><a xlink:href="client_2func_8cc.html" target="_top" xlink:title=" ">
<polygon fill="white" stroke="#666666" points="1520,-74 1439,-74 1439,-55 1520,-55 1520,-74"/>
<text text-anchor="middle" x="1479.5" y="-62" font-family="Helvetica,sans-Serif" font-size="10.00">client/func.cc</text>
</a>
</g>
</g>
<!-- Node2&#45;&gt;Node10 -->
<g id="edge11_Node000002_Node000010" class="edge">
<title>Node2&#45;&gt;Node10</title>
<g id="a_edge11_Node000002_Node000010"><a xlink:title=" ">
<path fill="none" stroke="#63b8ff" d="M913.27,-115.27C1024.88,-109.82 1244.9,-97.04 1430.5,-74 1433.24,-73.66 1436.06,-73.27 1438.9,-72.85"/>
<polygon fill="#63b8ff" stroke="#63b8ff" points="912.95,-111.79 903.14,-115.76 913.29,-118.78 912.95,-111.79"/>
</a>
</g>
</g>
<!-- Node11 -->
<g id="Node000011" class="node">
<title>Node11</title>
<g id="a_Node000011"><a xlink:href="func__listener_8cc.html" target="_top" xlink:title=" ">
<polygon fill="white" stroke="#666666" points="646.5,-74 524.5,-74 524.5,-55 646.5,-55 646.5,-74"/>
<text text-anchor="middle" x="585.5" y="-62" font-family="Helvetica,sans-Serif" font-size="10.00">client/func_listener.cc</text>
</a>
</g>
</g>
<!-- Node2&#45;&gt;Node11 -->
<g id="edge12_Node000002_Node000011" class="edge">
<title>Node2&#45;&gt;Node11</title>
<g id="a_edge12_Node000002_Node000011"><a xlink:title=" ">
<path fill="none" stroke="#63b8ff" d="M789.7,-107.94C741.9,-98.01 671.21,-83.31 626.79,-74.08"/>
<polygon fill="#63b8ff" stroke="#63b8ff" points="789.03,-111.38 799.53,-109.98 790.45,-104.52 789.03,-111.38"/>
</a>
</g>
</g>
<!-- Node12 -->
<g id="Node000012" class="node">
<title>Node12</title>
<g id="a_Node000012"><a xlink:href="image_8cc.html" target="_top" xlink:title=" ">
<polygon fill="white" stroke="#666666" points="1629,-74 1538,-74 1538,-55 1629,-55 1629,-74"/>
<text text-anchor="middle" x="1583.5" y="-62" font-family="Helvetica,sans-Serif" font-size="10.00">client/image.cc</text>
</a>
</g>
</g>
<!-- Node2&#45;&gt;Node12 -->
<g id="edge13_Node000002_Node000012" class="edge">
<title>Node2&#45;&gt;Node12</title>
<g id="a_edge13_Node000002_Node000012"><a xlink:title=" ">
<path fill="none" stroke="#63b8ff" d="M913.66,-115.98C1039.71,-111.14 1305.85,-98.77 1529.5,-74 1532.24,-73.7 1535.04,-73.35 1537.87,-72.98"/>
<polygon fill="#63b8ff" stroke="#63b8ff" points="913.23,-112.49 903.37,-116.37 913.49,-119.49 913.23,-112.49"/>
</a>
</g>
</g>
<!-- Node13 -->
<g id="Node000013" class="node">
<title>Node13</title>
<g id="a_Node000013"><a xlink:href="log_8cc.html" target="_top" xlink:title=" ">
<polygon fill="white" stroke="#666666" points="1722,-74 1647,-74 1647,-55 1722,-55 1722,-74"/>
<text text-anchor="middle" x="1684.5" y="-62" font-family="Helvetica,sans-Serif" font-size="10.00">client/log.cc</text>
</a>
</g>
</g>
<!-- Node2&#45;&gt;Node13 -->
<g id="edge14_Node000002_Node000013" class="edge">
<title>Node2&#45;&gt;Node13</title>
<g id="a_edge14_Node000002_Node000013"><a xlink:title=" ">
<path fill="none" stroke="#63b8ff" d="M913.16,-115.63C1082.45,-108.76 1499.27,-90.68 1638.5,-74 1641.24,-73.67 1644.07,-73.28 1646.9,-72.85"/>
<polygon fill="#63b8ff" stroke="#63b8ff" points="912.95,-112.14 903.1,-116.04 913.24,-119.13 912.95,-112.14"/>
</a>
</g>
</g>
<!-- Node14 -->
<g id="Node000014" class="node">
<title>Node14</title>
<g id="a_Node000014"><a xlink:href="logger_8cc.html" target="_top" xlink:title=" ">
<polygon fill="white" stroke="#666666" points="754.5,-74 664.5,-74 664.5,-55 754.5,-55 754.5,-74"/>
<text text-anchor="middle" x="709.5" y="-62" font-family="Helvetica,sans-Serif" font-size="10.00">client/logger.cc</text>
</a>
</g>
</g>
<!-- Node2&#45;&gt;Node14 -->
<g id="edge15_Node000002_Node000014" class="edge">
<title>Node2&#45;&gt;Node14</title>
<g id="a_edge15_Node000002_Node000014"><a xlink:title=" ">
<path fill="none" stroke="#63b8ff" d="M810,-106.16C785.75,-96.35 752.43,-82.87 730.93,-74.17"/>
<polygon fill="#63b8ff" stroke="#63b8ff" points="808.87,-109.48 819.45,-109.98 811.5,-102.99 808.87,-109.48"/>
</a>
</g>
</g>
<!-- Node15 -->
<g id="Node000015" class="node">
<title>Node15</title>
<g id="a_Node000015"><a xlink:href="member_8cc.html" target="_top" xlink:title=" ">
<polygon fill="white" stroke="#666666" points="1421,-74 1320,-74 1320,-55 1421,-55 1421,-74"/>
<text text-anchor="middle" x="1370.5" y="-62" font-family="Helvetica,sans-Serif" font-size="10.00">client/member.cc</text>
</a>
</g>
</g>
<!-- Node2&#45;&gt;Node15 -->
<g id="edge16_Node000002_Node000015" class="edge">
<title>Node2&#45;&gt;Node15</title>
<g id="a_edge16_Node000002_Node000015"><a xlink:title=" ">
<path fill="none" stroke="#63b8ff" d="M913.18,-112.74C1005.81,-105.15 1170.79,-90.77 1311.5,-74 1314.27,-73.67 1317.12,-73.31 1319.99,-72.94"/>
<polygon fill="#63b8ff" stroke="#63b8ff" points="912.76,-109.27 903.08,-113.57 913.33,-116.24 912.76,-109.27"/>
</a>
</g>
</g>
<!-- Node16 -->
<g id="Node000016" class="node">
<title>Node16</title>
<g id="a_Node000016"><a xlink:href="robot__model_8cc.html" target="_top" xlink:title=" ">
<polygon fill="white" stroke="#666666" points="348.5,-74 226.5,-74 226.5,-55 348.5,-55 348.5,-74"/>
<text text-anchor="middle" x="287.5" y="-62" font-family="Helvetica,sans-Serif" font-size="10.00">client/robot_model.cc</text>
</a>
</g>
</g>
<!-- Node2&#45;&gt;Node16 -->
<g id="edge17_Node000002_Node000016" class="edge">
<title>Node2&#45;&gt;Node16</title>
<g id="a_edge17_Node000002_Node000016"><a xlink:title=" ">
<path fill="none" stroke="#63b8ff" d="M767.93,-110.45C766.44,-110.3 764.96,-110.15 763.5,-110 585.45,-92.18 540.52,-92.08 362.5,-74 358.07,-73.55 353.49,-73.07 348.88,-72.57"/>
<polygon fill="#63b8ff" stroke="#63b8ff" points="767.59,-113.93 777.9,-111.48 768.31,-106.97 767.59,-113.93"/>
</a>
</g>
</g>
<!-- Node17 -->
<g id="Node000017" class="node">
<title>Node17</title>
<g id="a_Node000017"><a xlink:href="client_2text_8cc.html" target="_top" xlink:title=" ">
<polygon fill="white" stroke="#666666" points="1820.5,-74 1740.5,-74 1740.5,-55 1820.5,-55 1820.5,-74"/>
<text text-anchor="middle" x="1780.5" y="-62" font-family="Helvetica,sans-Serif" font-size="10.00">client/text.cc</text>
</a>
</g>
</g>
<!-- Node2&#45;&gt;Node17 -->
<g id="edge18_Node000002_Node000017" class="edge">
<title>Node2&#45;&gt;Node17</title>
<g id="a_edge18_Node000002_Node000017"><a xlink:title=" ">
<path fill="none" stroke="#63b8ff" d="M913.21,-115.38C1111.33,-106.8 1651.31,-82.92 1731.5,-74 1734.42,-73.68 1737.42,-73.29 1740.45,-72.86"/>
<polygon fill="#63b8ff" stroke="#63b8ff" points="913.02,-111.88 903.19,-115.81 913.33,-118.88 913.02,-111.88"/>
</a>
</g>
</g>
<!-- Node18 -->
<g id="Node000018" class="node">
<title>Node18</title>
<g id="a_Node000018"><a xlink:href="client_2value_8cc.html" target="_top" xlink:title=" ">
<polygon fill="white" stroke="#666666" points="1302,-74 1215,-74 1215,-55 1302,-55 1302,-74"/>
<text text-anchor="middle" x="1258.5" y="-62" font-family="Helvetica,sans-Serif" font-size="10.00">client/value.cc</text>
</a>
</g>
</g>
<!-- Node2&#45;&gt;Node18 -->
<g id="edge19_Node000002_Node000018" class="edge">
<title>Node2&#45;&gt;Node18</title>
<g id="a_edge19_Node000002_Node000018"><a xlink:title=" ">
<path fill="none" stroke="#63b8ff" d="M913.14,-109.29C1000.14,-98.26 1143.09,-80.13 1214.72,-71.05"/>
<polygon fill="#63b8ff" stroke="#63b8ff" points="912.56,-105.84 903.08,-110.57 913.44,-112.78 912.56,-105.84"/>
</a>
</g>
</g>
<!-- Node19 -->
<g id="Node000019" class="node">
<title>Node19</title>
<g id="a_Node000019"><a xlink:href="client_2view_8cc.html" target="_top" xlink:title=" ">
<polygon fill="white" stroke="#666666" points="83,-74 0,-74 0,-55 83,-55 83,-74"/>
<text text-anchor="middle" x="41.5" y="-62" font-family="Helvetica,sans-Serif" font-size="10.00">client/view.cc</text>
</a>
</g>
</g>
<!-- Node2&#45;&gt;Node19 -->
<g id="edge20_Node000002_Node000019" class="edge">
<title>Node2&#45;&gt;Node19</title>
<g id="a_edge20_Node000002_Node000019"><a xlink:title=" ">
<path fill="none" stroke="#63b8ff" d="M767.5,-115.18C605.68,-107.66 220.99,-88.81 91.5,-74 88.79,-73.69 86,-73.33 83.19,-72.94"/>
<polygon fill="#63b8ff" stroke="#63b8ff" points="767.67,-118.69 777.83,-115.66 768,-111.7 767.67,-118.69"/>
</a>
</g>
</g>
<!-- Node8&#45;&gt;Node6 -->
<g id="edge8_Node000008_Node000006" class="edge">
<title>Node8&#45;&gt;Node6</title>
<g id="a_edge8_Node000008_Node000006"><a xlink:title=" ">
<path fill="none" stroke="#63b8ff" d="M516.29,-55C759.26,-30.12 1037.2,-16.79 1142.84,-12.27"/>
<polygon fill="#63b8ff" stroke="#63b8ff" points="515.79,-51.54 506.21,-56.05 516.51,-58.5 515.79,-51.54"/>
</a>
</g>
</g>
<!-- Node8&#45;&gt;Node7 -->
<g id="edge9_Node000008_Node000007" class="edge">
<title>Node8&#45;&gt;Node7</title>
<g id="a_edge9_Node000008_Node000007"><a xlink:title=" ">
<path fill="none" stroke="#63b8ff" d="M443.12,-46.67C436.36,-37.5 428.29,-26.52 422.82,-19.09"/>
<polygon fill="#63b8ff" stroke="#63b8ff" points="440.31,-48.77 449.06,-54.75 445.95,-44.62 440.31,-48.77"/>
</a>
</g>
</g>
<!-- Node20&#45;&gt;Node3 -->
<g id="edge22_Node000020_Node000003" class="edge">
<title>Node20&#45;&gt;Node3</title>
<g id="a_edge22_Node000020_Node000003"><a xlink:title=" ">
<path fill="none" stroke="#63b8ff" d="M256.53,-106.16C231.91,-96.35 198.09,-82.87 176.26,-74.17"/>
<polygon fill="#63b8ff" stroke="#63b8ff" points="255.55,-109.53 266.13,-109.98 258.14,-103.03 255.55,-109.53"/>
</a>
</g>
</g>
<!-- Node20&#45;&gt;Node4 -->
<g id="edge23_Node000020_Node000004" class="edge">
<title>Node20&#45;&gt;Node4</title>
<g id="a_edge23_Node000020_Node000004"><a xlink:title=" ">
<path fill="none" stroke="#63b8ff" d="M352.64,-112.52C467.69,-101.95 704.74,-80.17 810.96,-70.42"/>
<polygon fill="#63b8ff" stroke="#63b8ff" points="352.2,-109.04 342.56,-113.44 352.84,-116.01 352.2,-109.04"/>
</a>
</g>
</g>
<!-- Node20&#45;&gt;Node16 -->
<g id="edge24_Node000020_Node000016" class="edge">
<title>Node20&#45;&gt;Node16</title>
<g id="a_edge24_Node000020_Node000016"><a xlink:title=" ">
<path fill="none" stroke="#63b8ff" d="M287.5,-99.66C287.5,-90.93 287.5,-80.99 287.5,-74.09"/>
<polygon fill="#63b8ff" stroke="#63b8ff" points="284,-99.75 287.5,-109.75 291,-99.75 284,-99.75"/>
</a>
</g>
</g>
<!-- Node20&#45;&gt;Node19 -->
<g id="edge25_Node000020_Node000019" class="edge">
<title>Node20&#45;&gt;Node19</title>
<g id="a_edge25_Node000020_Node000019"><a xlink:title=" ">
<path fill="none" stroke="#63b8ff" d="M238.2,-107.88C192.09,-97.94 124.1,-83.3 81.33,-74.08"/>
<polygon fill="#63b8ff" stroke="#63b8ff" points="237.46,-111.3 247.98,-109.98 238.94,-104.46 237.46,-111.3"/>
</a>
</g>
</g>
<!-- Node21&#45;&gt;Node2 -->
<g id="edge27_Node000021_Node000002" class="edge">
<title>Node21&#45;&gt;Node2</title>
<g id="a_edge27_Node000021_Node000002"><a xlink:title=" ">
<path fill="none" stroke="#63b8ff" d="M635.11,-168.18C683.8,-156.88 759.19,-139.38 803.81,-129.02"/>
<polygon fill="#63b8ff" stroke="#63b8ff" points="634.09,-164.82 625.14,-170.49 635.68,-171.64 634.09,-164.82"/>
</a>
</g>
</g>
<!-- Node22 -->
<g id="Node000022" class="node">
<title>Node22</title>
<g id="a_Node000022"><a xlink:href="data__store2_8cc.html" target="_top" xlink:title=" ">
<polygon fill="white" stroke="#666666" points="645.5,-129 527.5,-129 527.5,-110 645.5,-110 645.5,-129"/>
<text text-anchor="middle" x="586.5" y="-117" font-family="Helvetica,sans-Serif" font-size="10.00">client/data_store2.cc</text>
</a>
</g>
</g>
<!-- Node21&#45;&gt;Node22 -->
<g id="edge28_Node000021_Node000022" class="edge">
<title>Node21&#45;&gt;Node22</title>
<g id="a_edge28_Node000021_Node000022"><a xlink:title=" ">
<path fill="none" stroke="#63b8ff" d="M587.86,-160.16C587.5,-149.74 587.07,-137.3 586.8,-129.17"/>
<polygon fill="#63b8ff" stroke="#63b8ff" points="584.37,-160.49 588.2,-170.37 591.36,-160.25 584.37,-160.49"/>
</a>
</g>
</g>
<!-- Node23&#45;&gt;Node4 -->
<g id="edge30_Node000023_Node000004" class="edge">
<title>Node23&#45;&gt;Node4</title>
<g id="a_edge30_Node000023_Node000004"><a xlink:title=" ">
<path fill="none" stroke="#63b8ff" d="M1093.72,-108.13C1040.29,-98.19 960.61,-83.37 910.65,-74.08"/>
<polygon fill="#63b8ff" stroke="#63b8ff" points="1093.24,-111.6 1103.71,-109.98 1094.52,-104.72 1093.24,-111.6"/>
</a>
</g>
</g>
<!-- Node23&#45;&gt;Node6 -->
<g id="edge31_Node000023_Node000006" class="edge">
<title>Node23&#45;&gt;Node6</title>
<g id="a_edge31_Node000023_Node000006"><a xlink:title=" ">
<path fill="none" stroke="#63b8ff" d="M1157.31,-100.3C1160.63,-92.3 1164.43,-82.75 1167.5,-74 1174.28,-54.67 1180.82,-31.52 1184.17,-19.21"/>
<polygon fill="#63b8ff" stroke="#63b8ff" points="1154,-99.15 1153.33,-109.73 1160.44,-101.88 1154,-99.15"/>
</a>
</g>
</g>
<!-- Node23&#45;&gt;Node9 -->
<g id="edge32_Node000023_Node000009" class="edge">
<title>Node23&#45;&gt;Node9</title>
<g id="a_edge32_Node000023_Node000009"><a xlink:title=" ">
<path fill="none" stroke="#63b8ff" d="M1139,-101.1C1133.53,-92.04 1127.08,-81.37 1122.69,-74.09"/>
<polygon fill="#63b8ff" stroke="#63b8ff" points="1136.05,-103 1144.22,-109.75 1142.04,-99.38 1136.05,-103"/>
</a>
</g>
</g>
<!-- Node23&#45;&gt;Node15 -->
<g id="edge33_Node000023_Node000015" class="edge">
<title>Node23&#45;&gt;Node15</title>
<g id="a_edge33_Node000023_Node000015"><a xlink:title=" ">
<path fill="none" stroke="#63b8ff" d="M1194.84,-107.63C1236.24,-97.7 1296.62,-83.22 1334.71,-74.08"/>
<polygon fill="#63b8ff" stroke="#63b8ff" points="1193.92,-104.25 1185.01,-109.98 1195.55,-111.06 1193.92,-104.25"/>
</a>
</g>
</g>
<!-- Node23&#45;&gt;Node24 -->
<g id="edge34_Node000023_Node000024" class="edge">
<title>Node23&#45;&gt;Node24</title>
<g id="a_edge34_Node000023_Node000024"><a xlink:title=" ">
<path fill="none" stroke="#63b8ff" d="M1239.91,-112.63C1370.19,-104.15 1618.3,-87.98 1829.5,-74 1844.6,-73 1860.72,-71.93 1876.22,-70.89"/>
<polygon fill="#63b8ff" stroke="#63b8ff" points="1239.34,-109.16 1229.58,-113.3 1239.79,-116.14 1239.34,-109.16"/>
</a>
</g>
</g>
<!-- Node25&#45;&gt;Node5 -->
<g id="edge36_Node000025_Node000005" class="edge">
<title>Node25&#45;&gt;Node5</title>
<g id="a_edge36_Node000025_Node000005"><a xlink:title=" ">
<path fill="none" stroke="#63b8ff" d="M1049.15,-155.7C1034.7,-130.45 1012.38,-91.48 1002.5,-74.23"/>
<polygon fill="#63b8ff" stroke="#63b8ff" points="1046.26,-157.69 1054.27,-164.63 1052.34,-154.21 1046.26,-157.69"/>
</a>
</g>
</g>
<!-- Node25&#45;&gt;Node6 -->
<g id="edge37_Node000025_Node000006" class="edge">
<title>Node25&#45;&gt;Node6</title>
<g id="a_edge37_Node000025_Node000006"><a xlink:title=" ">
<path fill="none" stroke="#63b8ff" d="M1127.63,-162.49C1192.55,-146.65 1295.3,-123.23 1385.5,-110 1434.47,-102.81 1795.95,-110.39 1829.5,-74 1835.22,-67.79 1835.26,-61.17 1829.5,-55 1788.75,-11.33 1368.74,-9.55 1230.41,-10.16"/>
<polygon fill="#63b8ff" stroke="#63b8ff" points="1126.42,-159.18 1117.54,-164.96 1128.09,-165.98 1126.42,-159.18"/>
</a>
</g>
</g>
<!-- Node25&#45;&gt;Node9 -->
<g id="edge38_Node000025_Node000009" class="edge">
<title>Node25&#45;&gt;Node9</title>
<g id="a_edge38_Node000025_Node000009"><a xlink:title=" ">
<path fill="none" stroke="#63b8ff" d="M1056.45,-154.78C1054.27,-140.99 1053.78,-123.77 1060.5,-110 1068.48,-93.64 1085.71,-81.54 1099.15,-74.12"/>
<polygon fill="#63b8ff" stroke="#63b8ff" points="1053.09,-155.84 1058.45,-164.98 1059.96,-154.49 1053.09,-155.84"/>
</a>
</g>
</g>
<!-- Node25&#45;&gt;Node15 -->
<g id="edge39_Node000025_Node000015" class="edge">
<title>Node25&#45;&gt;Node15</title>
<g id="a_edge39_Node000025_Node000015"><a xlink:title=" ">
<path fill="none" stroke="#63b8ff" d="M1131.54,-162.32C1164.37,-153.65 1203.91,-142.12 1238.5,-129 1282.01,-112.49 1330.77,-87.14 1355.04,-74.02"/>
<polygon fill="#63b8ff" stroke="#63b8ff" points="1130.38,-159.01 1121.58,-164.92 1132.14,-165.78 1130.38,-159.01"/>
</a>
</g>
</g>
<!-- Node25&#45;&gt;Node16 -->
<g id="edge40_Node000025_Node000016" class="edge">
<title>Node25&#45;&gt;Node16</title>
<g id="a_edge40_Node000025_Node000016"><a xlink:title=" ">
<path fill="none" stroke="#63b8ff" d="M987.35,-171.18C927.48,-163.77 841.99,-150.5 769.5,-129 749.08,-122.94 746.12,-115.36 725.5,-110 707.54,-105.33 464.65,-82.13 348.52,-71.2"/>
<polygon fill="#63b8ff" stroke="#63b8ff" points="987.13,-174.68 997.47,-172.41 987.97,-167.73 987.13,-174.68"/>
</a>
</g>
</g>
<!-- Node25&#45;&gt;Node23 -->
<g id="edge41_Node000025_Node000023" class="edge">
<title>Node25&#45;&gt;Node23</title>
<g id="a_edge41_Node000025_Node000023"><a xlink:title=" ">
<path fill="none" stroke="#63b8ff" d="M1092.15,-159.06C1107.34,-148.85 1125.04,-136.95 1136.72,-129.09"/>
<polygon fill="#63b8ff" stroke="#63b8ff" points="1089.91,-156.35 1083.56,-164.84 1093.81,-162.16 1089.91,-156.35"/>
</a>
</g>
</g>
<!-- Node25&#45;&gt;Node24 -->
<g id="edge42_Node000025_Node000024" class="edge">
<title>Node25&#45;&gt;Node24</title>
<g id="a_edge42_Node000025_Node000024"><a xlink:title=" ">
<path fill="none" stroke="#63b8ff" d="M1137.74,-164.87C1248.62,-147.32 1281.08,-159.01 1385.5,-129 1405.58,-123.23 1408.25,-115.16 1428.5,-110 1616.06,-62.22 1669.67,-90.72 1862.5,-74 1866.99,-73.61 1871.6,-73.21 1876.25,-72.8"/>
<polygon fill="#63b8ff" stroke="#63b8ff" points="1137.15,-161.42 1127.84,-166.48 1138.27,-168.33 1137.15,-161.42"/>
</a>
</g>
</g>
<!-- Node26&#45;&gt;Node3 -->
<g id="edge45_Node000026_Node000003" class="edge">
<title>Node26&#45;&gt;Node3</title>
<g id="a_edge45_Node000026_Node000003"><a xlink:title=" ">
<path fill="none" stroke="#63b8ff" d="M1264.42,-236.74C1144.14,-231.39 901.27,-218.07 819.5,-195 756.37,-177.19 745.28,-160.04 687.5,-129 672.59,-120.99 670.66,-115.04 654.5,-110 468.46,-51.98 411.24,-95.04 217.5,-74 214.43,-73.67 211.27,-73.3 208.09,-72.92"/>
<polygon fill="#63b8ff" stroke="#63b8ff" points="1264.48,-240.24 1274.62,-237.18 1264.78,-233.25 1264.48,-240.24"/>
</a>
</g>
</g>
<!-- Node26&#45;&gt;Node4 -->
<g id="edge46_Node000026_Node000004" class="edge">
<title>Node26&#45;&gt;Node4</title>
<g id="a_edge46_Node000026_Node000004"><a xlink:title=" ">
<path fill="none" stroke="#63b8ff" d="M1264.81,-236.29C1178.23,-231.29 1035.08,-219.53 988.5,-195 943.66,-171.39 948.01,-146.16 912.5,-110 899.76,-97.03 884.19,-82.89 874.31,-74.11"/>
<polygon fill="#63b8ff" stroke="#63b8ff" points="1264.64,-239.79 1274.82,-236.86 1265.03,-232.8 1264.64,-239.79"/>
</a>
</g>
</g>
<!-- Node26&#45;&gt;Node6 -->
<g id="edge47_Node000026_Node000006" class="edge">
<title>Node26&#45;&gt;Node6</title>
<g id="a_edge47_Node000026_Node000006"><a xlink:title=" ">
<path fill="none" stroke="#63b8ff" d="M1402.51,-237.7C1524.58,-233.84 1773.45,-222.74 1855.5,-195 1954.87,-161.4 2117.73,-131.06 2045.5,-55 2017.17,-25.17 1401.06,-13.72 1230.13,-11.11"/>
<polygon fill="#63b8ff" stroke="#63b8ff" points="1402.05,-234.21 1392.17,-238.02 1402.27,-241.21 1402.05,-234.21"/>
</a>
</g>
</g>
<!-- Node26&#45;&gt;Node10 -->
<g id="edge49_Node000026_Node000010" class="edge">
<title>Node26&#45;&gt;Node10</title>
<g id="a_edge49_Node000026_Node000010"><a xlink:title=" ">
<path fill="none" stroke="#63b8ff" d="M1402.74,-234.83C1524.21,-224.91 1767.09,-196.87 1811.5,-129 1856.88,-59.64 2016.33,-146.42 1529.5,-74 1526.45,-73.55 1523.3,-73.06 1520.14,-72.55"/>
<polygon fill="#63b8ff" stroke="#63b8ff" points="1402.12,-231.36 1392.43,-235.65 1402.68,-238.34 1402.12,-231.36"/>
</a>
</g>
</g>
<!-- Node26&#45;&gt;Node12 -->
<g id="edge50_Node000026_Node000012" class="edge">
<title>Node26&#45;&gt;Node12</title>
<g id="a_edge50_Node000026_Node000012"><a xlink:title=" ">
<path fill="none" stroke="#63b8ff" d="M1402.27,-235.77C1500.34,-229.78 1675.09,-216.48 1734.5,-195 1784.58,-176.89 1809.26,-175.89 1834.5,-129 1838.5,-121.56 1839.92,-116.47 1834.5,-110 1831.2,-106.06 1700.54,-84.41 1629.08,-72.82"/>
<polygon fill="#63b8ff" stroke="#63b8ff" points="1401.92,-232.28 1392.15,-236.37 1402.34,-239.27 1401.92,-232.28"/>
</a>
</g>
</g>
<!-- Node26&#45;&gt;Node13 -->
<g id="edge51_Node000026_Node000013" class="edge">
<title>Node26&#45;&gt;Node13</title>
<g id="a_edge51_Node000026_Node000013"><a xlink:title=" ">
<path fill="none" stroke="#63b8ff" d="M1402.51,-238.31C1511.48,-235.5 1717.76,-226.11 1783.5,-195 1826.73,-174.54 1878.59,-147.97 1849.5,-110 1841.65,-99.75 1768.25,-82.88 1722.03,-73.12"/>
<polygon fill="#63b8ff" stroke="#63b8ff" points="1402.19,-234.82 1392.28,-238.56 1402.36,-241.81 1402.19,-234.82"/>
</a>
</g>
</g>
<!-- Node26&#45;&gt;Node15 -->
<g id="edge52_Node000026_Node000015" class="edge">
<title>Node26&#45;&gt;Node15</title>
<g id="a_edge52_Node000026_Node000015"><a xlink:title=" ">
<path fill="none" stroke="#63b8ff" d="M1337.53,-220.56C1345.49,-183.12 1362.96,-100.95 1368.66,-74.14"/>
<polygon fill="#63b8ff" stroke="#63b8ff" points="1334.04,-220.12 1335.39,-230.63 1340.89,-221.58 1334.04,-220.12"/>
</a>
</g>
</g>
<!-- Node26&#45;&gt;Node16 -->
<g id="edge53_Node000026_Node000016" class="edge">
<title>Node26&#45;&gt;Node16</title>
<g id="a_edge53_Node000026_Node000016"><a xlink:title=" ">
<path fill="none" stroke="#63b8ff" d="M1264.84,-235.16C1187.4,-229.43 1057.97,-217.35 948.5,-195 847.23,-174.32 821.65,-166.93 725.5,-129 707.93,-122.07 705.61,-115.35 687.5,-110 655.84,-100.65 452.9,-80.85 348.85,-71.13"/>
<polygon fill="#63b8ff" stroke="#63b8ff" points="1264.73,-238.66 1274.96,-235.89 1265.23,-231.68 1264.73,-238.66"/>
</a>
</g>
</g>
<!-- Node26&#45;&gt;Node17 -->
<g id="edge54_Node000026_Node000017" class="edge">
<title>Node26&#45;&gt;Node17</title>
<g id="a_edge54_Node000026_Node000017"><a xlink:title=" ">
<path fill="none" stroke="#63b8ff" d="M1402.55,-240.34C1520.11,-240.62 1753.13,-235.79 1822.5,-195 1859.35,-173.33 1889.81,-146.46 1867.5,-110 1856.26,-91.62 1834.76,-80.52 1815.94,-74.01"/>
<polygon fill="#63b8ff" stroke="#63b8ff" points="1402.24,-236.84 1392.23,-240.3 1402.22,-243.84 1402.24,-236.84"/>
</a>
</g>
</g>
<!-- Node26&#45;&gt;Node18 -->
<g id="edge55_Node000026_Node000018" class="edge">
<title>Node26&#45;&gt;Node18</title>
<g id="a_edge55_Node000026_Node000018"><a xlink:title=" ">
<path fill="none" stroke="#63b8ff" d="M1325.54,-221.04C1309.5,-183.83 1273.83,-101.07 1262.23,-74.14"/>
<polygon fill="#63b8ff" stroke="#63b8ff" points="1322.51,-222.83 1329.68,-230.63 1328.93,-220.06 1322.51,-222.83"/>
</a>
</g>
</g>
<!-- Node26&#45;&gt;Node19 -->
<g id="edge56_Node000026_Node000019" class="edge">
<title>Node26&#45;&gt;Node19</title>
<g id="a_edge56_Node000026_Node000019"><a xlink:title=" ">
<path fill="none" stroke="#63b8ff" d="M1264.84,-239.46C1124.77,-238.56 796.28,-232.25 523.5,-195 388.23,-176.53 354.85,-166.22 223.5,-129 164.74,-112.35 97.26,-87.17 63.36,-74.08"/>
<polygon fill="#63b8ff" stroke="#63b8ff" points="1264.98,-242.96 1274.99,-239.52 1265.02,-235.96 1264.98,-242.96"/>
</a>
</g>
</g>
<!-- Node26&#45;&gt;Node21 -->
<g id="edge48_Node000026_Node000021" class="edge">
<title>Node26&#45;&gt;Node21</title>
<g id="a_edge48_Node000026_Node000021"><a xlink:title=" ">
<path fill="none" stroke="#63b8ff" d="M1264.31,-237.87C1141.88,-234.33 879.25,-223.8 659.5,-195 648.91,-193.61 637.53,-191.6 627.04,-189.54"/>
<polygon fill="#63b8ff" stroke="#63b8ff" points="1264.56,-241.38 1274.65,-238.16 1264.75,-234.38 1264.56,-241.38"/>
</a>
</g>
</g>
<!-- Node27 -->
<g id="Node000027" class="node">
<title>Node27</title>
<g id="a_Node000027"><a xlink:href="message_8cc.html" target="_top" xlink:title=" ">
<polygon fill="white" stroke="#666666" points="1267.5,-189.5 1145.5,-189.5 1145.5,-170.5 1267.5,-170.5 1267.5,-189.5"/>
<text text-anchor="middle" x="1206.5" y="-177.5" font-family="Helvetica,sans-Serif" font-size="10.00">message/message.cc</text>
</a>
</g>
</g>
<!-- Node26&#45;&gt;Node27 -->
<g id="edge57_Node000026_Node000027" class="edge">
<title>Node26&#45;&gt;Node27</title>
<g id="a_edge57_Node000026_Node000027"><a xlink:title=" ">
<path fill="none" stroke="#63b8ff" d="M1305.89,-226.78C1281.38,-215.49 1246.26,-199.31 1224.99,-189.52"/>
<polygon fill="#63b8ff" stroke="#63b8ff" points="1304.49,-229.99 1315.03,-230.99 1307.41,-223.63 1304.49,-229.99"/>
</a>
</g>
</g>
<!-- Node28 -->
<g id="Node000028" class="node">
<title>Node28</title>
<g id="a_Node000028"><a xlink:href="member__data_8cc.html" target="_top" xlink:title=" ">
<polygon fill="white" stroke="#666666" points="1569.5,-129 1437.5,-129 1437.5,-110 1569.5,-110 1569.5,-129"/>
<text text-anchor="middle" x="1503.5" y="-117" font-family="Helvetica,sans-Serif" font-size="10.00">server/member_data.cc</text>
</a>
</g>
</g>
<!-- Node26&#45;&gt;Node28 -->
<g id="edge58_Node000026_Node000028" class="edge">
<title>Node26&#45;&gt;Node28</title>
<g id="a_edge58_Node000026_Node000028"><a xlink:title=" ">
<path fill="none" stroke="#63b8ff" d="M1353.93,-225.2C1389.5,-200.3 1461.8,-149.69 1490.93,-129.3"/>
<polygon fill="#63b8ff" stroke="#63b8ff" points="1351.91,-222.34 1345.73,-230.94 1355.93,-228.07 1351.91,-222.34"/>
</a>
</g>
</g>
<!-- Node29 -->
<g id="Node000029" class="node">
<title>Node29</title>
<g id="a_Node000029"><a xlink:href="member__data_8h.html" target="_top" xlink:title=" ">
<polygon fill="white" stroke="#666666" points="1605.5,-189.5 1477.5,-189.5 1477.5,-170.5 1605.5,-170.5 1605.5,-189.5"/>
<text text-anchor="middle" x="1541.5" y="-177.5" font-family="Helvetica,sans-Serif" font-size="10.00">server/member_data.h</text>
</a>
</g>
</g>
<!-- Node26&#45;&gt;Node29 -->
<g id="edge59_Node000026_Node000029" class="edge">
<title>Node26&#45;&gt;Node29</title>
<g id="a_edge59_Node000026_Node000029"><a xlink:title=" ">
<path fill="none" stroke="#63b8ff" d="M1373.49,-228.25C1413.72,-216.94 1474.85,-199.75 1511.22,-189.52"/>
<polygon fill="#63b8ff" stroke="#63b8ff" points="1372.42,-224.92 1363.74,-230.99 1374.32,-231.66 1372.42,-224.92"/>
</a>
</g>
</g>
<!-- Node31 -->
<g id="Node000031" class="node">
<title>Node31</title>
<g id="a_Node000031"><a xlink:href="websock_8cc.html" target="_top" xlink:title=" ">
<polygon fill="white" stroke="#666666" points="1802,-129 1695,-129 1695,-110 1802,-110 1802,-129"/>
<text text-anchor="middle" x="1748.5" y="-117" font-family="Helvetica,sans-Serif" font-size="10.00">server/websock.cc</text>
</a>
</g>
</g>
<!-- Node26&#45;&gt;Node31 -->
<g id="edge63_Node000026_Node000031" class="edge">
<title>Node26&#45;&gt;Node31</title>
<g id="a_edge63_Node000026_Node000031"><a xlink:title=" ">
<path fill="none" stroke="#63b8ff" d="M1402.39,-235.33C1460.3,-230.25 1544.58,-219.13 1614.5,-195 1662.81,-178.33 1714.03,-144.76 1736.62,-129.02"/>
<polygon fill="#63b8ff" stroke="#63b8ff" points="1401.93,-231.86 1392.25,-236.19 1402.51,-238.84 1401.93,-231.86"/>
</a>
</g>
</g>
<!-- Node29&#45;&gt;Node28 -->
<g id="edge60_Node000029_Node000028" class="edge">
<title>Node29&#45;&gt;Node28</title>
<g id="a_edge60_Node000029_Node000028"><a xlink:title=" ">
<path fill="none" stroke="#63b8ff" d="M1530.33,-161.8C1523.36,-151.08 1514.7,-137.73 1509.13,-129.17"/>
<polygon fill="#63b8ff" stroke="#63b8ff" points="1527.51,-163.89 1535.89,-170.37 1533.38,-160.08 1527.51,-163.89"/>
</a>
</g>
</g>
<!-- Node30 -->
<g id="Node000030" class="node">
<title>Node30</title>
<g id="a_Node000030"><a xlink:href="store_8cc.html" target="_top" xlink:title=" ">
<polygon fill="white" stroke="#666666" points="1677,-129 1588,-129 1588,-110 1677,-110 1677,-129"/>
<text text-anchor="middle" x="1632.5" y="-117" font-family="Helvetica,sans-Serif" font-size="10.00">server/store.cc</text>
</a>
</g>
</g>
<!-- Node29&#45;&gt;Node30 -->
<g id="edge61_Node000029_Node000030" class="edge">
<title>Node29&#45;&gt;Node30</title>
<g id="a_edge61_Node000029_Node000030"><a xlink:title=" ">
<path fill="none" stroke="#63b8ff" d="M1563.81,-164.66C1581.1,-153.55 1604.48,-138.51 1619.02,-129.17"/>
<polygon fill="#63b8ff" stroke="#63b8ff" points="1561.45,-162.02 1554.93,-170.37 1565.23,-167.9 1561.45,-162.02"/>
</a>
</g>
</g>
<!-- Node29&#45;&gt;Node31 -->
<g id="edge62_Node000029_Node000031" class="edge">
<title>Node29&#45;&gt;Node31</title>
<g id="a_edge62_Node000029_Node000031"><a xlink:title=" ">
<path fill="none" stroke="#63b8ff" d="M1581.3,-167.75C1621.33,-156.44 1682.17,-139.25 1718.36,-129.02"/>
<polygon fill="#63b8ff" stroke="#63b8ff" points="1580.27,-164.41 1571.6,-170.49 1582.17,-171.14 1580.27,-164.41"/>
</a>
</g>
</g>
</g>
</svg>
