<?xml version="1.0" encoding="UTF-8" standalone="no"?>
<!DOCTYPE svg PUBLIC "-//W3C//DTD SVG 1.1//EN"
 "http://www.w3.org/Graphics/SVG/1.1/DTD/svg11.dtd">
<!-- Generated by graphviz version 2.43.0 (0)
 -->
<!-- Title: include/webcface/common/canvas3d.h Pages: 1 -->
<svg width="944pt" height="258pt"
 viewBox="0.00 0.00 944.00 258.00" xmlns="http://www.w3.org/2000/svg" xmlns:xlink="http://www.w3.org/1999/xlink">
<g id="graph0" class="graph" transform="scale(1 1) rotate(0) translate(4 254)">
<title>include/webcface/common/canvas3d.h</title>
<!-- Node1 -->
<g id="Node000001" class="node">
<title>Node1</title>
<g id="a_Node000001"><a xlink:title=" ">
<polygon fill="#999999" stroke="#666666" points="744,-250 597,-250 597,-220 744,-220 744,-250"/>
<text text-anchor="start" x="605" y="-238" font-family="Helvetica,sans-Serif" font-size="10.00">include/webcface/common</text>
<text text-anchor="middle" x="670.5" y="-227" font-family="Helvetica,sans-Serif" font-size="10.00">/canvas3d.h</text>
</a>
</g>
</g>
<!-- Node2 -->
<g id="Node000002" class="node">
<title>Node2</title>
<g id="a_Node000002"><a xlink:href="def_8h.html" target="_top" xlink:title=" ">
<polygon fill="white" stroke="#666666" points="285,-19 244,-19 244,0 285,0 285,-19"/>
<text text-anchor="middle" x="264.5" y="-7" font-family="Helvetica,sans-Serif" font-size="10.00">def.h</text>
</a>
</g>
</g>
<!-- Node1&#45;&gt;Node2 -->
<g id="edge1_Node000001_Node000002" class="edge">
<title>Node1&#45;&gt;Node2</title>
<g id="a_edge1_Node000001_Node000002"><a xlink:title=" ">
<path fill="none" stroke="#63b8ff" d="M733.18,-219.91C751.93,-212.45 770.43,-201.13 781.5,-184 800.51,-154.59 877.27,-160.12 775.5,-55 742.04,-20.43 400.94,-12.52 295.43,-10.89"/>
<polygon fill="#63b8ff" stroke="#63b8ff" points="295.19,-7.38 285.14,-10.74 295.08,-14.38 295.19,-7.38"/>
</a>
</g>
</g>
<!-- Node3 -->
<g id="Node000003" class="node">
<title>Node3</title>
<g id="a_Node000003"><a xlink:href="transform_8h.html" target="_top" xlink:title=" ">
<polygon fill="white" stroke="#666666" points="772.5,-184 698.5,-184 698.5,-165 772.5,-165 772.5,-184"/>
<text text-anchor="middle" x="735.5" y="-172" font-family="Helvetica,sans-Serif" font-size="10.00">transform.h</text>
</a>
</g>
</g>
<!-- Node1&#45;&gt;Node3 -->
<g id="edge2_Node000001_Node000003" class="edge">
<title>Node1&#45;&gt;Node3</title>
<g id="a_edge2_Node000001_Node000003"><a xlink:title=" ">
<path fill="none" stroke="#63b8ff" d="M686.23,-219.84C695.86,-211.17 708.19,-200.08 718.11,-191.15"/>
<polygon fill="#63b8ff" stroke="#63b8ff" points="720.67,-193.56 725.76,-184.27 715.99,-188.35 720.67,-193.56"/>
</a>
</g>
</g>
<!-- Node5 -->
<g id="Node000005" class="node">
<title>Node5</title>
<g id="a_Node000005"><a xlink:href="field__base_8h.html" target="_top" xlink:title=" ">
<polygon fill="white" stroke="#666666" points="75,-129 0,-129 0,-110 75,-110 75,-129"/>
<text text-anchor="middle" x="37.5" y="-117" font-family="Helvetica,sans-Serif" font-size="10.00">field_base.h</text>
</a>
</g>
</g>
<!-- Node1&#45;&gt;Node5 -->
<g id="edge5_Node000001_Node000005" class="edge">
<title>Node1&#45;&gt;Node5</title>
<g id="a_edge5_Node000001_Node000005"><a xlink:title=" ">
<path fill="none" stroke="#63b8ff" d="M596.96,-220.81C465.82,-197.3 195.1,-148.76 85.32,-129.07"/>
<polygon fill="#63b8ff" stroke="#63b8ff" points="85.67,-125.58 75.2,-127.26 84.43,-132.47 85.67,-125.58"/>
</a>
</g>
</g>
<!-- Node7 -->
<g id="Node000007" class="node">
<title>Node7</title>
<g id="a_Node000007"><a xlink:href="common_2view_8h.html" target="_top" xlink:title=" ">
<polygon fill="white" stroke="#666666" points="449.5,-184 401.5,-184 401.5,-165 449.5,-165 449.5,-184"/>
<text text-anchor="middle" x="425.5" y="-172" font-family="Helvetica,sans-Serif" font-size="10.00">view.h</text>
</a>
</g>
</g>
<!-- Node1&#45;&gt;Node7 -->
<g id="edge8_Node000001_Node000007" class="edge">
<title>Node1&#45;&gt;Node7</title>
<g id="a_edge8_Node000001_Node000007"><a xlink:title=" ">
<path fill="none" stroke="#63b8ff" d="M611.82,-219.99C564.25,-208.63 498.88,-193.02 459.56,-183.63"/>
<polygon fill="#63b8ff" stroke="#63b8ff" points="460.21,-180.19 449.67,-181.27 458.58,-187 460.21,-180.19"/>
</a>
</g>
</g>
<!-- Node8 -->
<g id="Node000008" class="node">
<title>Node8</title>
<g id="a_Node000008"><a xlink:title=" ">
<polygon fill="#e0e0e0" stroke="#999999" points="623.5,-129 567.5,-129 567.5,-110 623.5,-110 623.5,-129"/>
<text text-anchor="middle" x="595.5" y="-117" font-family="Helvetica,sans-Serif" font-size="10.00">optional</text>
</a>
</g>
</g>
<!-- Node1&#45;&gt;Node8 -->
<g id="edge26_Node000001_Node000008" class="edge">
<title>Node1&#45;&gt;Node8</title>
<g id="a_edge26_Node000001_Node000008"><a xlink:title=" ">
<path fill="none" stroke="#63b8ff" d="M661,-219.63C647.21,-198.75 621.66,-160.09 606.88,-137.72"/>
<polygon fill="#63b8ff" stroke="#63b8ff" points="609.7,-135.64 601.27,-129.23 603.86,-139.5 609.7,-135.64"/>
</a>
</g>
</g>
<!-- Node9 -->
<g id="Node000009" class="node">
<title>Node9</title>
<g id="a_Node000009"><a xlink:title=" ">
<polygon fill="#e0e0e0" stroke="#999999" points="748,-74 701,-74 701,-55 748,-55 748,-74"/>
<text text-anchor="middle" x="724.5" y="-62" font-family="Helvetica,sans-Serif" font-size="10.00">vector</text>
</a>
</g>
</g>
<!-- Node1&#45;&gt;Node9 -->
<g id="edge25_Node000001_Node000009" class="edge">
<title>Node1&#45;&gt;Node9</title>
<g id="a_edge25_Node000001_Node000009"><a xlink:title=" ">
<path fill="none" stroke="#63b8ff" d="M672.04,-219.79C674.94,-196.27 682.3,-148.06 697.5,-110 701.31,-100.47 707.05,-90.64 712.26,-82.65"/>
<polygon fill="#63b8ff" stroke="#63b8ff" points="715.25,-84.48 717.99,-74.24 709.46,-80.53 715.25,-84.48"/>
</a>
</g>
</g>
<!-- Node17 -->
<g id="Node000017" class="node">
<title>Node17</title>
<g id="a_Node000017"><a xlink:title=" ">
<polygon fill="#e0e0e0" stroke="#999999" points="936,-184 843,-184 843,-165 936,-165 936,-184"/>
<text text-anchor="middle" x="889.5" y="-172" font-family="Helvetica,sans-Serif" font-size="10.00">unordered_map</text>
</a>
</g>
</g>
<!-- Node1&#45;&gt;Node17 -->
<g id="edge27_Node000001_Node000017" class="edge">
<title>Node1&#45;&gt;Node17</title>
<g id="a_edge27_Node000001_Node000017"><a xlink:title=" ">
<path fill="none" stroke="#63b8ff" d="M722.96,-219.99C761.08,-209.8 812,-196.2 847.46,-186.73"/>
<polygon fill="#63b8ff" stroke="#63b8ff" points="848.72,-190.02 857.48,-184.05 846.91,-183.25 848.72,-190.02"/>
</a>
</g>
</g>
<!-- Node3&#45;&gt;Node2 -->
<g id="edge3_Node000003_Node000002" class="edge">
<title>Node3&#45;&gt;Node2</title>
<g id="a_edge3_Node000003_Node000002"><a xlink:title=" ">
<path fill="none" stroke="#63b8ff" d="M741.42,-164.72C755.23,-143.05 786.29,-86.51 757.5,-55 726.25,-20.8 397.9,-12.64 295.1,-10.92"/>
<polygon fill="#63b8ff" stroke="#63b8ff" points="295.11,-7.42 285.05,-10.76 295,-14.42 295.11,-7.42"/>
</a>
</g>
</g>
<!-- Node4 -->
<g id="Node000004" class="node">
<title>Node4</title>
<g id="a_Node000004"><a xlink:title=" ">
<polygon fill="#e0e0e0" stroke="#999999" points="748.5,-129 706.5,-129 706.5,-110 748.5,-110 748.5,-129"/>
<text text-anchor="middle" x="727.5" y="-117" font-family="Helvetica,sans-Serif" font-size="10.00">array</text>
</a>
</g>
</g>
<!-- Node3&#45;&gt;Node4 -->
<g id="edge4_Node000003_Node000004" class="edge">
<title>Node3&#45;&gt;Node4</title>
<g id="a_edge4_Node000003_Node000004"><a xlink:title=" ">
<path fill="none" stroke="#63b8ff" d="M734.18,-164.75C733.13,-157.8 731.63,-147.85 730.31,-139.13"/>
<polygon fill="#63b8ff" stroke="#63b8ff" points="733.75,-138.45 728.8,-129.09 726.83,-139.5 733.75,-138.45"/>
</a>
</g>
</g>
<!-- Node5&#45;&gt;Node2 -->
<g id="edge7_Node000005_Node000002" class="edge">
<title>Node5&#45;&gt;Node2</title>
<g id="a_edge7_Node000005_Node000002"><a xlink:title=" ">
<path fill="none" stroke="#63b8ff" d="M38.23,-109.62C39.87,-95.78 45.09,-69.18 61.5,-55 87.05,-32.92 183.77,-19.34 233.92,-13.63"/>
<polygon fill="#63b8ff" stroke="#63b8ff" points="234.32,-17.11 243.87,-12.53 233.55,-10.15 234.32,-17.11"/>
</a>
</g>
</g>
<!-- Node6 -->
<g id="Node000006" class="node">
<title>Node6</title>
<g id="a_Node000006"><a xlink:title=" ">
<polygon fill="#e0e0e0" stroke="#999999" points="147.5,-74 103.5,-74 103.5,-55 147.5,-55 147.5,-74"/>
<text text-anchor="middle" x="125.5" y="-62" font-family="Helvetica,sans-Serif" font-size="10.00">string</text>
</a>
</g>
</g>
<!-- Node5&#45;&gt;Node6 -->
<g id="edge6_Node000005_Node000006" class="edge">
<title>Node5&#45;&gt;Node6</title>
<g id="a_edge6_Node000005_Node000006"><a xlink:title=" ">
<path fill="none" stroke="#63b8ff" d="M51.64,-109.98C65.29,-101.77 86.19,-89.18 102.28,-79.49"/>
<polygon fill="#63b8ff" stroke="#63b8ff" points="104.34,-82.33 111.1,-74.17 100.73,-76.33 104.34,-82.33"/>
</a>
</g>
</g>
<!-- Node7&#45;&gt;Node2 -->
<g id="edge13_Node000007_Node000002" class="edge">
<title>Node7&#45;&gt;Node2</title>
<g id="a_edge13_Node000007_Node000002"><a xlink:title=" ">
<path fill="none" stroke="#63b8ff" d="M401.32,-170.06C331.32,-159.56 131.14,-125.44 94.5,-74 58.97,-24.11 175.43,-13.37 233.54,-11.1"/>
<polygon fill="#63b8ff" stroke="#63b8ff" points="233.78,-14.59 243.66,-10.76 233.55,-7.59 233.78,-14.59"/>
</a>
</g>
</g>
<!-- Node7&#45;&gt;Node5 -->
<g id="edge12_Node000007_Node000005" class="edge">
<title>Node7&#45;&gt;Node5</title>
<g id="a_edge12_Node000007_Node000005"><a xlink:title=" ">
<path fill="none" stroke="#63b8ff" d="M401.43,-170.57C346.21,-163.78 206.21,-146.26 89.5,-129 88.2,-128.81 86.89,-128.61 85.56,-128.41"/>
<polygon fill="#63b8ff" stroke="#63b8ff" points="85.67,-124.89 75.25,-126.81 84.6,-131.8 85.67,-124.89"/>
</a>
</g>
</g>
<!-- Node7&#45;&gt;Node6 -->
<g id="edge9_Node000007_Node000006" class="edge">
<title>Node7&#45;&gt;Node6</title>
<g id="a_edge9_Node000007_Node000006"><a xlink:title=" ">
<path fill="none" stroke="#63b8ff" d="M401.71,-164.94C348.13,-145.65 217.96,-98.79 157.43,-77"/>
<polygon fill="#63b8ff" stroke="#63b8ff" points="158.25,-73.57 147.66,-73.48 155.88,-80.16 158.25,-73.57"/>
</a>
</g>
</g>
<!-- Node7&#45;&gt;Node8 -->
<g id="edge10_Node000007_Node000008" class="edge">
<title>Node7&#45;&gt;Node8</title>
<g id="a_edge10_Node000007_Node000008"><a xlink:title=" ">
<path fill="none" stroke="#63b8ff" d="M449.86,-165.91C478.23,-157.06 525.41,-142.35 558.36,-132.08"/>
<polygon fill="#63b8ff" stroke="#63b8ff" points="559.59,-135.36 568.09,-129.05 557.5,-128.68 559.59,-135.36"/>
</a>
</g>
</g>
<!-- Node7&#45;&gt;Node9 -->
<g id="edge11_Node000007_Node000009" class="edge">
<title>Node7&#45;&gt;Node9</title>
<g id="a_edge11_Node000007_Node000009"><a xlink:title=" ">
<path fill="none" stroke="#63b8ff" d="M441.06,-164.91C465.49,-151.7 514.57,-126.22 558.5,-110 561.67,-108.83 643.52,-87.02 691.08,-74.38"/>
<polygon fill="#63b8ff" stroke="#63b8ff" points="692.19,-77.7 700.95,-71.75 690.39,-70.94 692.19,-77.7"/>
</a>
</g>
</g>
<!-- Node10 -->
<g id="Node000010" class="node">
<title>Node10</title>
<g id="a_Node000010"><a xlink:href="val_8h.html" target="_top" xlink:title=" ">
<polygon fill="white" stroke="#666666" points="446,-129 405,-129 405,-110 446,-110 446,-129"/>
<text text-anchor="middle" x="425.5" y="-117" font-family="Helvetica,sans-Serif" font-size="10.00">val.h</text>
</a>
</g>
</g>
<!-- Node7&#45;&gt;Node10 -->
<g id="edge14_Node000007_Node000010" class="edge">
<title>Node7&#45;&gt;Node10</title>
<g id="a_edge14_Node000007_Node000010"><a xlink:title=" ">
<path fill="none" stroke="#63b8ff" d="M425.5,-164.75C425.5,-157.8 425.5,-147.85 425.5,-139.13"/>
<polygon fill="#63b8ff" stroke="#63b8ff" points="429,-139.09 425.5,-129.09 422,-139.09 429,-139.09"/>
</a>
</g>
</g>
<!-- Node10&#45;&gt;Node2 -->
<g id="edge24_Node000010_Node000002" class="edge">
<title>Node10&#45;&gt;Node2</title>
<g id="a_edge24_Node000010_Node000002"><a xlink:title=" ">
<path fill="none" stroke="#63b8ff" d="M404.85,-111.62C384.19,-104.19 352.04,-91.07 327.5,-74 308.29,-60.63 289.86,-41 277.95,-27.1"/>
<polygon fill="#63b8ff" stroke="#63b8ff" points="280.53,-24.73 271.43,-19.3 275.16,-29.22 280.53,-24.73"/>
</a>
</g>
</g>
<!-- Node10&#45;&gt;Node6 -->
<g id="edge15_Node000010_Node000006" class="edge">
<title>Node10&#45;&gt;Node6</title>
<g id="a_edge15_Node000010_Node000006"><a xlink:title=" ">
<path fill="none" stroke="#63b8ff" d="M404.77,-115.82C360.97,-109.99 255.59,-95.15 157.83,-74.1"/>
<polygon fill="#63b8ff" stroke="#63b8ff" points="158.3,-70.62 147.78,-71.91 156.81,-77.46 158.3,-70.62"/>
</a>
</g>
</g>
<!-- Node10&#45;&gt;Node9 -->
<g id="edge16_Node000010_Node000009" class="edge">
<title>Node10&#45;&gt;Node9</title>
<g id="a_edge16_Node000010_Node000009"><a xlink:title=" ">
<path fill="none" stroke="#63b8ff" d="M446.06,-115.75C489.52,-109.79 594.06,-94.71 690.85,-74.2"/>
<polygon fill="#63b8ff" stroke="#63b8ff" points="691.75,-77.58 700.79,-72.06 690.28,-70.74 691.75,-77.58"/>
</a>
</g>
</g>
<!-- Node11 -->
<g id="Node000011" class="node">
<title>Node11</title>
<g id="a_Node000011"><a xlink:title=" ">
<polygon fill="#e0e0e0" stroke="#999999" points="377,-74 336,-74 336,-55 377,-55 377,-74"/>
<text text-anchor="middle" x="356.5" y="-62" font-family="Helvetica,sans-Serif" font-size="10.00">tuple</text>
</a>
</g>
</g>
<!-- Node10&#45;&gt;Node11 -->
<g id="edge17_Node000010_Node000011" class="edge">
<title>Node10&#45;&gt;Node11</title>
<g id="a_edge17_Node000010_Node000011"><a xlink:title=" ">
<path fill="none" stroke="#63b8ff" d="M414.41,-109.98C404.01,-102 388.24,-89.88 375.78,-80.31"/>
<polygon fill="#63b8ff" stroke="#63b8ff" points="377.85,-77.49 367.79,-74.17 373.59,-83.04 377.85,-77.49"/>
</a>
</g>
</g>
<!-- Node12 -->
<g id="Node000012" class="node">
<title>Node12</title>
<g id="a_Node000012"><a xlink:title=" ">
<polygon fill="#e0e0e0" stroke="#999999" points="455.5,-74 395.5,-74 395.5,-55 455.5,-55 455.5,-74"/>
<text text-anchor="middle" x="425.5" y="-62" font-family="Helvetica,sans-Serif" font-size="10.00">concepts</text>
</a>
</g>
</g>
<!-- Node10&#45;&gt;Node12 -->
<g id="edge18_Node000010_Node000012" class="edge">
<title>Node10&#45;&gt;Node12</title>
<g id="a_edge18_Node000010_Node000012"><a xlink:title=" ">
<path fill="none" stroke="#63b8ff" d="M425.5,-109.75C425.5,-102.8 425.5,-92.85 425.5,-84.13"/>
<polygon fill="#63b8ff" stroke="#63b8ff" points="429,-84.09 425.5,-74.09 422,-84.09 429,-84.09"/>
</a>
</g>
</g>
<!-- Node13 -->
<g id="Node000013" class="node">
<title>Node13</title>
<g id="a_Node000013"><a xlink:title=" ">
<polygon fill="#e0e0e0" stroke="#999999" points="539,-74 474,-74 474,-55 539,-55 539,-74"/>
<text text-anchor="middle" x="506.5" y="-62" font-family="Helvetica,sans-Serif" font-size="10.00">stdexcept</text>
</a>
</g>
</g>
<!-- Node10&#45;&gt;Node13 -->
<g id="edge19_Node000010_Node000013" class="edge">
<title>Node10&#45;&gt;Node13</title>
<g id="a_edge19_Node000010_Node000013"><a xlink:title=" ">
<path fill="none" stroke="#63b8ff" d="M438.51,-109.98C450.96,-101.84 469.96,-89.41 484.71,-79.76"/>
<polygon fill="#63b8ff" stroke="#63b8ff" points="486.8,-82.57 493.25,-74.17 482.96,-76.72 486.8,-82.57"/>
</a>
</g>
</g>
<!-- Node14 -->
<g id="Node000014" class="node">
<title>Node14</title>
<g id="a_Node000014"><a xlink:title=" ">
<polygon fill="#e0e0e0" stroke="#999999" points="607.5,-74 557.5,-74 557.5,-55 607.5,-55 607.5,-74"/>
<text text-anchor="middle" x="582.5" y="-62" font-family="Helvetica,sans-Serif" font-size="10.00">cstdint</text>
</a>
</g>
</g>
<!-- Node10&#45;&gt;Node14 -->
<g id="edge20_Node000010_Node000014" class="edge">
<title>Node10&#45;&gt;Node14</title>
<g id="a_edge20_Node000010_Node000014"><a xlink:title=" ">
<path fill="none" stroke="#63b8ff" d="M446.03,-111.57C471.83,-102.86 516.5,-87.78 547.69,-77.25"/>
<polygon fill="#63b8ff" stroke="#63b8ff" points="548.94,-80.52 557.3,-74.01 546.7,-73.89 548.94,-80.52"/>
</a>
</g>
</g>
<!-- Node15 -->
<g id="Node000015" class="node">
<title>Node15</title>
<g id="a_Node000015"><a xlink:title=" ">
<polygon fill="#e0e0e0" stroke="#999999" points="683,-74 626,-74 626,-55 683,-55 683,-74"/>
<text text-anchor="middle" x="654.5" y="-62" font-family="Helvetica,sans-Serif" font-size="10.00">ostream</text>
</a>
</g>
</g>
<!-- Node10&#45;&gt;Node15 -->
<g id="edge21_Node000010_Node000015" class="edge">
<title>Node10&#45;&gt;Node15</title>
<g id="a_edge21_Node000010_Node000015"><a xlink:title=" ">
<path fill="none" stroke="#63b8ff" d="M446.23,-113.7C484.57,-104.83 567.1,-85.73 615.97,-74.42"/>
<polygon fill="#63b8ff" stroke="#63b8ff" points="616.91,-77.79 625.86,-72.13 615.33,-70.97 616.91,-77.79"/>
</a>
</g>
</g>
<!-- Node16 -->
<g id="Node000016" class="node">
<title>Node16</title>
<g id="a_Node000016"><a xlink:href="def__types_8h.html" target="_top" xlink:title=" ">
<polygon fill="white" stroke="#666666" points="279,-74 166,-74 166,-55 279,-55 279,-74"/>
<text text-anchor="middle" x="222.5" y="-62" font-family="Helvetica,sans-Serif" font-size="10.00">../c_wcf/def_types.h</text>
</a>
</g>
</g>
<!-- Node10&#45;&gt;Node16 -->
<g id="edge22_Node000010_Node000016" class="edge">
<title>Node10&#45;&gt;Node16</title>
<g id="a_edge22_Node000010_Node000016"><a xlink:title=" ">
<path fill="none" stroke="#63b8ff" d="M404.92,-113.13C372.26,-104.6 307.88,-87.79 265,-76.6"/>
<polygon fill="#63b8ff" stroke="#63b8ff" points="265.69,-73.16 255.13,-74.02 263.93,-79.93 265.69,-73.16"/>
</a>
</g>
</g>
<!-- Node16&#45;&gt;Node2 -->
<g id="edge23_Node000016_Node000002" class="edge">
<title>Node16&#45;&gt;Node2</title>
<g id="a_edge23_Node000016_Node000002"><a xlink:title=" ">
<path fill="none" stroke="#63b8ff" d="M229.44,-54.75C235.37,-47.26 244.07,-36.28 251.32,-27.13"/>
<polygon fill="#63b8ff" stroke="#63b8ff" points="254.23,-29.1 257.69,-19.09 248.74,-24.75 254.23,-29.1"/>
</a>
</g>
</g>
</g>
</svg>
