<?xml version="1.0" encoding="UTF-8" standalone="no"?>
<!DOCTYPE svg PUBLIC "-//W3C//DTD SVG 1.1//EN"
 "http://www.w3.org/Graphics/SVG/1.1/DTD/svg11.dtd">
<!-- Generated by graphviz version 2.43.0 (0)
 -->
<!-- Title: common/include/webcface/common/internal/message/log.h Pages: 1 -->
<svg width="698pt" height="269pt"
 viewBox="0.00 0.00 698.09 269.00" xmlns="http://www.w3.org/2000/svg" xmlns:xlink="http://www.w3.org/1999/xlink">
<g id="graph0" class="graph" transform="scale(1 1) rotate(0) translate(4 265)">
<title>common/include/webcface/common/internal/message/log.h</title>
<!-- Node1 -->
<g id="Node000001" class="node">
<title>Node1</title>
<g id="a_Node000001"><a xlink:title=" ">
<polygon fill="#999999" stroke="#666666" points="613.59,-261 436.59,-261 436.59,-231 613.59,-231 613.59,-261"/>
<text text-anchor="start" x="444.59" y="-249" font-family="Helvetica,sans-Serif" font-size="10.00">common/include/webcface</text>
<text text-anchor="middle" x="525.09" y="-238" font-family="Helvetica,sans-Serif" font-size="10.00">/common/internal/message/log.h</text>
</a>
</g>
</g>
<!-- Node2 -->
<g id="Node000002" class="node">
<title>Node2</title>
<g id="a_Node000002"><a xlink:href="base_8h.html" target="_top" xlink:title=" ">
<polygon fill="white" stroke="#666666" points="268.59,-195 213.59,-195 213.59,-176 268.59,-176 268.59,-195"/>
<text text-anchor="middle" x="241.09" y="-183" font-family="Helvetica,sans-Serif" font-size="10.00">./base.h</text>
</a>
</g>
</g>
<!-- Node1&#45;&gt;Node2 -->
<g id="edge1_Node000001_Node000002" class="edge">
<title>Node1&#45;&gt;Node2</title>
<g id="a_edge1_Node000001_Node000002"><a xlink:title=" ">
<path fill="none" stroke="#63b8ff" d="M457.06,-230.99C401.19,-219.48 324.12,-203.6 278.75,-194.26"/>
<polygon fill="#63b8ff" stroke="#63b8ff" points="279.25,-190.79 268.75,-192.2 277.84,-197.64 279.25,-190.79"/>
</a>
</g>
</g>
<!-- Node13 -->
<g id="Node000013" class="node">
<title>Node13</title>
<g id="a_Node000013"><a xlink:href="common_2encoding_8h.html" target="_top" xlink:title=" ">
<polygon fill="white" stroke="#666666" points="625.09,-74 555.09,-74 555.09,-55 625.09,-55 625.09,-74"/>
<text text-anchor="middle" x="590.09" y="-62" font-family="Helvetica,sans-Serif" font-size="10.00">encoding.h</text>
</a>
</g>
</g>
<!-- Node1&#45;&gt;Node13 -->
<g id="edge19_Node000001_Node000013" class="edge">
<title>Node1&#45;&gt;Node13</title>
<g id="a_edge19_Node000001_Node000013"><a xlink:title=" ">
<path fill="none" stroke="#63b8ff" d="M528.43,-230.83C531.88,-216.77 537.66,-194.68 544.09,-176 555.54,-142.74 571.96,-105.14 581.77,-83.49"/>
<polygon fill="#63b8ff" stroke="#63b8ff" points="585.03,-84.78 586.01,-74.23 578.66,-81.87 585.03,-84.78"/>
</a>
</g>
</g>
<!-- Node16 -->
<g id="Node000016" class="node">
<title>Node16</title>
<g id="a_Node000016"><a xlink:title=" ">
<polygon fill="#e0e0e0" stroke="#999999" points="600.59,-195 553.59,-195 553.59,-176 600.59,-176 600.59,-195"/>
<text text-anchor="middle" x="577.09" y="-183" font-family="Helvetica,sans-Serif" font-size="10.00">deque</text>
</a>
</g>
</g>
<!-- Node1&#45;&gt;Node16 -->
<g id="edge20_Node000001_Node000016" class="edge">
<title>Node1&#45;&gt;Node16</title>
<g id="a_edge20_Node000001_Node000016"><a xlink:title=" ">
<path fill="none" stroke="#63b8ff" d="M537.67,-230.84C545.15,-222.43 554.65,-211.74 562.46,-202.96"/>
<polygon fill="#63b8ff" stroke="#63b8ff" points="565.27,-205.07 569.29,-195.27 560.03,-200.41 565.27,-205.07"/>
</a>
</g>
</g>
<!-- Node3 -->
<g id="Node000003" class="node">
<title>Node3</title>
<g id="a_Node000003"><a xlink:href="webcface-config_8h.html" target="_top" xlink:title=" ">
<polygon fill="white" stroke="#666666" points="305.59,-19 200.59,-19 200.59,0 305.59,0 305.59,-19"/>
<text text-anchor="middle" x="253.09" y="-7" font-family="Helvetica,sans-Serif" font-size="10.00">webcface&#45;config.h</text>
</a>
</g>
</g>
<!-- Node2&#45;&gt;Node3 -->
<g id="edge2_Node000002_Node000003" class="edge">
<title>Node2&#45;&gt;Node3</title>
<g id="a_edge2_Node000002_Node000003"><a xlink:title=" ">
<path fill="none" stroke="#63b8ff" d="M223.33,-175.86C184.29,-155.71 97.09,-103.58 131.09,-55 144.77,-35.45 167.99,-24.46 190.52,-18.29"/>
<polygon fill="#63b8ff" stroke="#63b8ff" points="191.57,-21.64 200.45,-15.86 189.9,-14.84 191.57,-21.64"/>
</a>
</g>
</g>
<!-- Node4 -->
<g id="Node000004" class="node">
<title>Node4</title>
<g id="a_Node000004"><a xlink:href="fmt_8h.html" target="_top" xlink:title=" ">
<polygon fill="white" stroke="#666666" points="73.59,-134.5 24.59,-134.5 24.59,-115.5 73.59,-115.5 73.59,-134.5"/>
<text text-anchor="middle" x="49.09" y="-122.5" font-family="Helvetica,sans-Serif" font-size="10.00">./fmt.h</text>
</a>
</g>
</g>
<!-- Node2&#45;&gt;Node4 -->
<g id="edge3_Node000002_Node000004" class="edge">
<title>Node2&#45;&gt;Node4</title>
<g id="a_edge3_Node000002_Node000004"><a xlink:title=" ">
<path fill="none" stroke="#63b8ff" d="M213.58,-176.12C179.36,-165.69 120.93,-147.89 83.7,-136.55"/>
<polygon fill="#63b8ff" stroke="#63b8ff" points="84.39,-133.1 73.8,-133.53 82.35,-139.79 84.39,-133.1"/>
</a>
</g>
</g>
<!-- Node6 -->
<g id="Node000006" class="node">
<title>Node6</title>
<g id="a_Node000006"><a xlink:href="common_2val__adaptor_8h.html" target="_top" xlink:title=" ">
<polygon fill="white" stroke="#666666" points="432.59,-140 305.59,-140 305.59,-110 432.59,-110 432.59,-140"/>
<text text-anchor="start" x="313.59" y="-128" font-family="Helvetica,sans-Serif" font-size="10.00">webcface/common/val</text>
<text text-anchor="middle" x="369.09" y="-117" font-family="Helvetica,sans-Serif" font-size="10.00">_adaptor.h</text>
</a>
</g>
</g>
<!-- Node2&#45;&gt;Node6 -->
<g id="edge6_Node000002_Node000006" class="edge">
<title>Node2&#45;&gt;Node6</title>
<g id="a_edge6_Node000002_Node000006"><a xlink:title=" ">
<path fill="none" stroke="#63b8ff" d="M259.7,-175.99C277.74,-167.75 305.69,-154.98 328.82,-144.4"/>
<polygon fill="#63b8ff" stroke="#63b8ff" points="330.43,-147.52 338.07,-140.18 327.52,-141.15 330.43,-147.52"/>
</a>
</g>
</g>
<!-- Node4&#45;&gt;Node3 -->
<g id="edge4_Node000004_Node000003" class="edge">
<title>Node4&#45;&gt;Node3</title>
<g id="a_edge4_Node000004_Node000003"><a xlink:title=" ">
<path fill="none" stroke="#63b8ff" d="M36.62,-115.45C18.38,-101.92 -11.69,-75.05 5.09,-55 28.26,-27.29 124.76,-16.81 190.33,-12.87"/>
<polygon fill="#63b8ff" stroke="#63b8ff" points="190.78,-16.35 200.57,-12.29 190.39,-9.36 190.78,-16.35"/>
</a>
</g>
</g>
<!-- Node5 -->
<g id="Node000005" class="node">
<title>Node5</title>
<g id="a_Node000005"><a xlink:title=" ">
<polygon fill="#e0e0e0" stroke="#999999" points="83.59,-74 14.59,-74 14.59,-55 83.59,-55 83.59,-74"/>
<text text-anchor="middle" x="49.09" y="-62" font-family="Helvetica,sans-Serif" font-size="10.00">fmt/base.h</text>
</a>
</g>
</g>
<!-- Node4&#45;&gt;Node5 -->
<g id="edge5_Node000004_Node000005" class="edge">
<title>Node4&#45;&gt;Node5</title>
<g id="a_edge5_Node000004_Node000005"><a xlink:title=" ">
<path fill="none" stroke="#63b8ff" d="M49.09,-115.37C49.09,-107.25 49.09,-94.81 49.09,-84.39"/>
<polygon fill="#63b8ff" stroke="#63b8ff" points="52.59,-84.17 49.09,-74.17 45.59,-84.17 52.59,-84.17"/>
</a>
</g>
</g>
<!-- Node6&#45;&gt;Node3 -->
<g id="edge18_Node000006_Node000003" class="edge">
<title>Node6&#45;&gt;Node3</title>
<g id="a_edge18_Node000006_Node000003"><a xlink:title=" ">
<path fill="none" stroke="#63b8ff" d="M384.71,-109.94C398.97,-95.36 416.03,-72.34 403.09,-55 383,-28.09 347.34,-16.79 315.82,-12.3"/>
<polygon fill="#63b8ff" stroke="#63b8ff" points="316.11,-8.81 305.76,-11.08 315.26,-15.76 316.11,-8.81"/>
</a>
</g>
</g>
<!-- Node7 -->
<g id="Node000007" class="node">
<title>Node7</title>
<g id="a_Node000007"><a xlink:title=" ">
<polygon fill="#e0e0e0" stroke="#999999" points="496.09,-19 452.09,-19 452.09,0 496.09,0 496.09,-19"/>
<text text-anchor="middle" x="474.09" y="-7" font-family="Helvetica,sans-Serif" font-size="10.00">string</text>
</a>
</g>
</g>
<!-- Node6&#45;&gt;Node7 -->
<g id="edge7_Node000006_Node000007" class="edge">
<title>Node6&#45;&gt;Node7</title>
<g id="a_edge7_Node000006_Node000007"><a xlink:title=" ">
<path fill="none" stroke="#63b8ff" d="M393.03,-109.88C407.02,-100.84 424.35,-88.17 437.09,-74 449.46,-60.24 459.69,-41.69 466.23,-28.19"/>
<polygon fill="#63b8ff" stroke="#63b8ff" points="469.45,-29.56 470.49,-19.02 463.1,-26.62 469.45,-29.56"/>
</a>
</g>
</g>
<!-- Node8 -->
<g id="Node000008" class="node">
<title>Node8</title>
<g id="a_Node000008"><a xlink:title=" ">
<polygon fill="#e0e0e0" stroke="#999999" points="536.59,-74 489.59,-74 489.59,-55 536.59,-55 536.59,-74"/>
<text text-anchor="middle" x="513.09" y="-62" font-family="Helvetica,sans-Serif" font-size="10.00">vector</text>
</a>
</g>
</g>
<!-- Node6&#45;&gt;Node8 -->
<g id="edge8_Node000006_Node000008" class="edge">
<title>Node6&#45;&gt;Node8</title>
<g id="a_edge8_Node000006_Node000008"><a xlink:title=" ">
<path fill="none" stroke="#63b8ff" d="M403.58,-109.99C427.6,-100.23 459.36,-87.33 482.49,-77.93"/>
<polygon fill="#63b8ff" stroke="#63b8ff" points="483.87,-81.15 491.82,-74.14 481.24,-74.66 483.87,-81.15"/>
</a>
</g>
</g>
<!-- Node9 -->
<g id="Node000009" class="node">
<title>Node9</title>
<g id="a_Node000009"><a xlink:title=" ">
<polygon fill="#e0e0e0" stroke="#999999" points="181.59,-74 140.59,-74 140.59,-55 181.59,-55 181.59,-74"/>
<text text-anchor="middle" x="161.09" y="-62" font-family="Helvetica,sans-Serif" font-size="10.00">tuple</text>
</a>
</g>
</g>
<!-- Node6&#45;&gt;Node9 -->
<g id="edge9_Node000006_Node000009" class="edge">
<title>Node6&#45;&gt;Node9</title>
<g id="a_edge9_Node000006_Node000009"><a xlink:title=" ">
<path fill="none" stroke="#63b8ff" d="M318.82,-109.91C285.39,-100.54 240.25,-87.86 191.53,-74.12"/>
<polygon fill="#63b8ff" stroke="#63b8ff" points="192.32,-70.71 181.74,-71.36 190.42,-77.44 192.32,-70.71"/>
</a>
</g>
</g>
<!-- Node10 -->
<g id="Node000010" class="node">
<title>Node10</title>
<g id="a_Node000010"><a xlink:title=" ">
<polygon fill="#e0e0e0" stroke="#999999" points="250.09,-74 200.09,-74 200.09,-55 250.09,-55 250.09,-74"/>
<text text-anchor="middle" x="225.09" y="-62" font-family="Helvetica,sans-Serif" font-size="10.00">cstdint</text>
</a>
</g>
</g>
<!-- Node6&#45;&gt;Node10 -->
<g id="edge10_Node000006_Node000010" class="edge">
<title>Node6&#45;&gt;Node10</title>
<g id="a_edge10_Node000006_Node000010"><a xlink:title=" ">
<path fill="none" stroke="#63b8ff" d="M334.59,-109.99C310.57,-100.23 278.81,-87.33 255.69,-77.93"/>
<polygon fill="#63b8ff" stroke="#63b8ff" points="256.93,-74.66 246.35,-74.14 254.3,-81.15 256.93,-74.66"/>
</a>
</g>
</g>
<!-- Node11 -->
<g id="Node000011" class="node">
<title>Node11</title>
<g id="a_Node000011"><a xlink:title=" ">
<polygon fill="#e0e0e0" stroke="#999999" points="325.59,-74 268.59,-74 268.59,-55 325.59,-55 325.59,-74"/>
<text text-anchor="middle" x="297.09" y="-62" font-family="Helvetica,sans-Serif" font-size="10.00">ostream</text>
</a>
</g>
</g>
<!-- Node6&#45;&gt;Node11 -->
<g id="edge11_Node000006_Node000011" class="edge">
<title>Node6&#45;&gt;Node11</title>
<g id="a_edge11_Node000006_Node000011"><a xlink:title=" ">
<path fill="none" stroke="#63b8ff" d="M351.66,-109.84C340.78,-101 326.79,-89.63 315.69,-80.62"/>
<polygon fill="#63b8ff" stroke="#63b8ff" points="317.84,-77.86 307.88,-74.27 313.43,-83.29 317.84,-77.86"/>
</a>
</g>
</g>
<!-- Node12 -->
<g id="Node000012" class="node">
<title>Node12</title>
<g id="a_Node000012"><a xlink:title=" ">
<polygon fill="#e0e0e0" stroke="#999999" points="394.59,-74 343.59,-74 343.59,-55 394.59,-55 394.59,-74"/>
<text text-anchor="middle" x="369.09" y="-62" font-family="Helvetica,sans-Serif" font-size="10.00">variant</text>
</a>
</g>
</g>
<!-- Node6&#45;&gt;Node12 -->
<g id="edge12_Node000006_Node000012" class="edge">
<title>Node6&#45;&gt;Node12</title>
<g id="a_edge12_Node000006_Node000012"><a xlink:title=" ">
<path fill="none" stroke="#63b8ff" d="M369.09,-109.84C369.09,-102.21 369.09,-92.7 369.09,-84.45"/>
<polygon fill="#63b8ff" stroke="#63b8ff" points="372.59,-84.27 369.09,-74.27 365.59,-84.27 372.59,-84.27"/>
</a>
</g>
</g>
<!-- Node6&#45;&gt;Node13 -->
<g id="edge13_Node000006_Node000013" class="edge">
<title>Node6&#45;&gt;Node13</title>
<g id="a_edge13_Node000006_Node000013"><a xlink:title=" ">
<path fill="none" stroke="#63b8ff" d="M422.02,-109.99C460.49,-99.8 511.88,-86.2 547.66,-76.73"/>
<polygon fill="#63b8ff" stroke="#63b8ff" points="549,-80 557.77,-74.05 547.21,-73.23 549,-80"/>
</a>
</g>
</g>
<!-- Node13&#45;&gt;Node3 -->
<g id="edge17_Node000013_Node000003" class="edge">
<title>Node13&#45;&gt;Node3</title>
<g id="a_edge17_Node000013_Node000003"><a xlink:title=" ">
<path fill="none" stroke="#63b8ff" d="M554.73,-56.7C551.48,-56.11 548.22,-55.53 545.09,-55 466.12,-41.53 374.8,-27.93 315.6,-19.37"/>
<polygon fill="#63b8ff" stroke="#63b8ff" points="316.06,-15.9 305.66,-17.94 315.06,-22.83 316.06,-15.9"/>
</a>
</g>
</g>
<!-- Node13&#45;&gt;Node7 -->
<g id="edge14_Node000013_Node000007" class="edge">
<title>Node13&#45;&gt;Node7</title>
<g id="a_edge14_Node000013_Node000007"><a xlink:title=" ">
<path fill="none" stroke="#63b8ff" d="M571.45,-54.98C552.79,-46.46 523.83,-33.23 502.35,-23.41"/>
<polygon fill="#63b8ff" stroke="#63b8ff" points="503.61,-20.14 493.06,-19.17 500.7,-26.51 503.61,-20.14"/>
</a>
</g>
</g>
<!-- Node14 -->
<g id="Node000014" class="node">
<title>Node14</title>
<g id="a_Node000014"><a xlink:title=" ">
<polygon fill="#e0e0e0" stroke="#999999" points="613.59,-19 540.59,-19 540.59,0 613.59,0 613.59,-19"/>
<text text-anchor="middle" x="577.09" y="-7" font-family="Helvetica,sans-Serif" font-size="10.00">string_view</text>
</a>
</g>
</g>
<!-- Node13&#45;&gt;Node14 -->
<g id="edge15_Node000013_Node000014" class="edge">
<title>Node13&#45;&gt;Node14</title>
<g id="a_edge15_Node000013_Node000014"><a xlink:title=" ">
<path fill="none" stroke="#63b8ff" d="M587.94,-54.75C586.22,-47.72 583.74,-37.62 581.59,-28.84"/>
<polygon fill="#63b8ff" stroke="#63b8ff" points="584.97,-27.97 579.19,-19.09 578.18,-29.63 584.97,-27.97"/>
</a>
</g>
</g>
<!-- Node15 -->
<g id="Node000015" class="node">
<title>Node15</title>
<g id="a_Node000015"><a xlink:title=" ">
<polygon fill="#e0e0e0" stroke="#999999" points="690.09,-19 632.09,-19 632.09,0 690.09,0 690.09,-19"/>
<text text-anchor="middle" x="661.09" y="-7" font-family="Helvetica,sans-Serif" font-size="10.00">memory</text>
</a>
</g>
</g>
<!-- Node13&#45;&gt;Node15 -->
<g id="edge16_Node000013_Node000015" class="edge">
<title>Node13&#45;&gt;Node15</title>
<g id="a_edge16_Node000013_Node000015"><a xlink:title=" ">
<path fill="none" stroke="#63b8ff" d="M601.49,-54.98C612.2,-47 628.43,-34.88 641.25,-25.31"/>
<polygon fill="#63b8ff" stroke="#63b8ff" points="643.55,-27.96 649.47,-19.17 639.36,-22.35 643.55,-27.96"/>
</a>
</g>
</g>
</g>
</svg>
