<?xml version="1.0" encoding="UTF-8" standalone="no"?>
<!DOCTYPE svg PUBLIC "-//W3C//DTD SVG 1.1//EN"
 "http://www.w3.org/Graphics/SVG/1.1/DTD/svg11.dtd">
<!-- Generated by graphviz version 2.43.0 (0)
 -->
<!-- Title: include/webcface/common/image.h Pages: 1 -->
<svg width="2370pt" height="313pt"
 viewBox="0.00 0.00 2369.50 313.00" xmlns="http://www.w3.org/2000/svg" xmlns:xlink="http://www.w3.org/1999/xlink">
<g id="graph0" class="graph" transform="scale(1 1) rotate(0) translate(4 309)">
<title>include/webcface/common/image.h</title>
<!-- Node1 -->
<g id="Node000001" class="node">
<title>Node1</title>
<g id="a_Node000001"><a xlink:title=" ">
<polygon fill="#999999" stroke="#666666" points="1123.5,-305 976.5,-305 976.5,-275 1123.5,-275 1123.5,-305"/>
<text text-anchor="start" x="984.5" y="-293" font-family="Helvetica,sans-Serif" font-size="10.00">include/webcface/common</text>
<text text-anchor="middle" x="1050" y="-282" font-family="Helvetica,sans-Serif" font-size="10.00">/image.h</text>
</a>
</g>
</g>
<!-- Node2 -->
<g id="Node000002" class="node">
<title>Node2</title>
<g id="a_Node000002"><a xlink:href="client__internal_8h.html" target="_top" xlink:title=" ">
<polygon fill="white" stroke="#666666" points="1245.5,-129 1120.5,-129 1120.5,-110 1245.5,-110 1245.5,-129"/>
<text text-anchor="middle" x="1183" y="-117" font-family="Helvetica,sans-Serif" font-size="10.00">client/client_internal.h</text>
</a>
</g>
</g>
<!-- Node1&#45;&gt;Node2 -->
<g id="edge1_Node000001_Node000002" class="edge">
<title>Node1&#45;&gt;Node2</title>
<g id="a_edge1_Node000001_Node000002"><a xlink:title=" ">
<path fill="none" stroke="#63b8ff" d="M1067.66,-266.63C1097.36,-229 1156.03,-154.66 1176.09,-129.25"/>
<polygon fill="#63b8ff" stroke="#63b8ff" points="1064.56,-264.91 1061.11,-274.92 1070.05,-269.24 1064.56,-264.91"/>
</a>
</g>
</g>
<!-- Node17 -->
<g id="Node000017" class="node">
<title>Node17</title>
<g id="a_Node000017"><a xlink:href="data__store2_8h.html" target="_top" xlink:title=" ">
<polygon fill="white" stroke="#666666" points="1019.5,-184 906.5,-184 906.5,-165 1019.5,-165 1019.5,-184"/>
<text text-anchor="middle" x="963" y="-172" font-family="Helvetica,sans-Serif" font-size="10.00">client/data_store2.h</text>
</a>
</g>
</g>
<!-- Node1&#45;&gt;Node17 -->
<g id="edge16_Node000001_Node000017" class="edge">
<title>Node1&#45;&gt;Node17</title>
<g id="a_edge16_Node000001_Node000017"><a xlink:title=" ">
<path fill="none" stroke="#63b8ff" d="M1047.63,-264.76C1045.26,-250.61 1040.51,-233.04 1031,-220 1018.95,-203.47 998.73,-191.39 983.47,-184.02"/>
<polygon fill="#63b8ff" stroke="#63b8ff" points="1044.18,-265.35 1049.02,-274.78 1051.12,-264.39 1044.18,-265.35"/>
</a>
</g>
</g>
<!-- Node19 -->
<g id="Node000019" class="node">
<title>Node19</title>
<g id="a_Node000019"><a xlink:href="image_8h.html" target="_top" xlink:title=" ">
<polygon fill="white" stroke="#666666" points="1022,-239 878,-239 878,-220 1022,-220 1022,-239"/>
<text text-anchor="middle" x="950" y="-227" font-family="Helvetica,sans-Serif" font-size="10.00">include/webcface/image.h</text>
</a>
</g>
</g>
<!-- Node1&#45;&gt;Node19 -->
<g id="edge19_Node000001_Node000019" class="edge">
<title>Node1&#45;&gt;Node19</title>
<g id="a_edge19_Node000001_Node000019"><a xlink:title=" ">
<path fill="none" stroke="#63b8ff" d="M1017.15,-269.78C999.46,-259.43 978.51,-247.18 964.77,-239.14"/>
<polygon fill="#63b8ff" stroke="#63b8ff" points="1015.65,-272.96 1026.05,-274.99 1019.18,-266.92 1015.65,-272.96"/>
</a>
</g>
</g>
<!-- Node26 -->
<g id="Node000026" class="node">
<title>Node26</title>
<g id="a_Node000026"><a xlink:href="webcface_8h.html" target="_top" xlink:title=" ">
<polygon fill="white" stroke="#666666" points="160,-74 0,-74 0,-55 160,-55 160,-74"/>
<text text-anchor="middle" x="80" y="-62" font-family="Helvetica,sans-Serif" font-size="10.00">include/webcface/webcface.h</text>
</a>
</g>
</g>
<!-- Node1&#45;&gt;Node26 -->
<g id="edge35_Node000001_Node000026" class="edge">
<title>Node1&#45;&gt;Node26</title>
<g id="a_edge35_Node000001_Node000026"><a xlink:title=" ">
<path fill="none" stroke="#63b8ff" d="M966.19,-279.28C814.91,-260.31 487.29,-212.72 222,-129 174.61,-114.05 121.99,-87.78 96.13,-74.19"/>
<polygon fill="#63b8ff" stroke="#63b8ff" points="965.98,-282.78 976.34,-280.54 966.85,-275.83 965.98,-282.78"/>
</a>
</g>
</g>
<!-- Node27 -->
<g id="Node000027" class="node">
<title>Node27</title>
<g id="a_Node000027"><a xlink:href="message_8h.html" target="_top" xlink:title=" ">
<polygon fill="white" stroke="#666666" points="1456.5,-239 1339.5,-239 1339.5,-220 1456.5,-220 1456.5,-239"/>
<text text-anchor="middle" x="1398" y="-227" font-family="Helvetica,sans-Serif" font-size="10.00">message/message.h</text>
</a>
</g>
</g>
<!-- Node1&#45;&gt;Node27 -->
<g id="edge36_Node000001_Node000027" class="edge">
<title>Node1&#45;&gt;Node27</title>
<g id="a_edge36_Node000001_Node000027"><a xlink:title=" ">
<path fill="none" stroke="#63b8ff" d="M1133.86,-274.9C1200.47,-263.71 1291.43,-248.42 1347.36,-239.01"/>
<polygon fill="#63b8ff" stroke="#63b8ff" points="1133.08,-271.48 1123.8,-276.59 1134.24,-278.39 1133.08,-271.48"/>
</a>
</g>
</g>
<!-- Node3 -->
<g id="Node000003" class="node">
<title>Node3</title>
<g id="a_Node000003"><a xlink:href="canvas3d_8cc.html" target="_top" xlink:title=" ">
<polygon fill="white" stroke="#666666" points="979.5,-74 872.5,-74 872.5,-55 979.5,-55 979.5,-74"/>
<text text-anchor="middle" x="926" y="-62" font-family="Helvetica,sans-Serif" font-size="10.00">client/canvas3d.cc</text>
</a>
</g>
</g>
<!-- Node2&#45;&gt;Node3 -->
<g id="edge2_Node000002_Node000003" class="edge">
<title>Node2&#45;&gt;Node3</title>
<g id="a_edge2_Node000002_Node000003"><a xlink:title=" ">
<path fill="none" stroke="#63b8ff" d="M1131.8,-107.94C1083.62,-98.01 1012.38,-83.31 967.62,-74.08"/>
<polygon fill="#63b8ff" stroke="#63b8ff" points="1131.21,-111.39 1141.71,-109.98 1132.62,-104.54 1131.21,-111.39"/>
</a>
</g>
</g>
<!-- Node4 -->
<g id="Node000004" class="node">
<title>Node4</title>
<g id="a_Node000004"><a xlink:href="client_2client_8cc.html" target="_top" xlink:title=" ">
<polygon fill="white" stroke="#666666" points="535.5,-74 448.5,-74 448.5,-55 535.5,-55 535.5,-74"/>
<text text-anchor="middle" x="492" y="-62" font-family="Helvetica,sans-Serif" font-size="10.00">client/client.cc</text>
</a>
</g>
</g>
<!-- Node2&#45;&gt;Node4 -->
<g id="edge3_Node000002_Node000004" class="edge">
<title>Node2&#45;&gt;Node4</title>
<g id="a_edge3_Node000002_Node000004"><a xlink:title=" ">
<path fill="none" stroke="#63b8ff" d="M1110.21,-114.28C966.7,-105.83 651.81,-86.54 544,-74 541.27,-73.68 538.47,-73.32 535.65,-72.94"/>
<polygon fill="#63b8ff" stroke="#63b8ff" points="1110.06,-117.78 1120.24,-114.87 1110.47,-110.79 1110.06,-117.78"/>
</a>
</g>
</g>
<!-- Node5 -->
<g id="Node000005" class="node">
<title>Node5</title>
<g id="a_Node000005"><a xlink:href="client__ws_8cc.html" target="_top" xlink:title=" ">
<polygon fill="white" stroke="#666666" points="430,-74 324,-74 324,-55 430,-55 430,-74"/>
<text text-anchor="middle" x="377" y="-62" font-family="Helvetica,sans-Serif" font-size="10.00">client/client_ws.cc</text>
</a>
</g>
</g>
<!-- Node2&#45;&gt;Node5 -->
<g id="edge4_Node000002_Node000005" class="edge">
<title>Node2&#45;&gt;Node5</title>
<g id="a_edge4_Node000002_Node000005"><a xlink:title=" ">
<path fill="none" stroke="#63b8ff" d="M1110.16,-114.29C929.33,-103.83 472,-77.24 439,-74 436.08,-73.71 433.09,-73.39 430.07,-73.05"/>
<polygon fill="#63b8ff" stroke="#63b8ff" points="1110.19,-117.8 1120.38,-114.89 1110.6,-110.81 1110.19,-117.8"/>
</a>
</g>
</g>
<!-- Node6 -->
<g id="Node000006" class="node">
<title>Node6</title>
<g id="a_Node000006"><a xlink:href="field_8cc.html" target="_top" xlink:title=" ">
<polygon fill="white" stroke="#666666" points="634.5,-74 553.5,-74 553.5,-55 634.5,-55 634.5,-74"/>
<text text-anchor="middle" x="594" y="-62" font-family="Helvetica,sans-Serif" font-size="10.00">client/field.cc</text>
</a>
</g>
</g>
<!-- Node2&#45;&gt;Node6 -->
<g id="edge5_Node000002_Node000006" class="edge">
<title>Node2&#45;&gt;Node6</title>
<g id="a_edge5_Node000002_Node000006"><a xlink:title=" ">
<path fill="none" stroke="#63b8ff" d="M1110.38,-114.59C1006.5,-108.52 809.61,-95.27 643,-74 640.26,-73.65 637.44,-73.25 634.6,-72.83"/>
<polygon fill="#63b8ff" stroke="#63b8ff" points="1110.26,-118.09 1120.45,-115.17 1110.67,-111.1 1110.26,-118.09"/>
</a>
</g>
</g>
<!-- Node7 -->
<g id="Node000007" class="node">
<title>Node7</title>
<g id="a_Node000007"><a xlink:href="client_2func_8cc.html" target="_top" xlink:title=" ">
<polygon fill="white" stroke="#666666" points="1780.5,-74 1699.5,-74 1699.5,-55 1780.5,-55 1780.5,-74"/>
<text text-anchor="middle" x="1740" y="-62" font-family="Helvetica,sans-Serif" font-size="10.00">client/func.cc</text>
</a>
</g>
</g>
<!-- Node2&#45;&gt;Node7 -->
<g id="edge6_Node000002_Node000007" class="edge">
<title>Node2&#45;&gt;Node7</title>
<g id="a_edge6_Node000002_Node000007"><a xlink:title=" ">
<path fill="none" stroke="#63b8ff" d="M1255.77,-113.97C1354.42,-107.4 1535.95,-93.82 1690,-74 1693.06,-73.61 1696.21,-73.16 1699.38,-72.69"/>
<polygon fill="#63b8ff" stroke="#63b8ff" points="1255.36,-110.49 1245.62,-114.64 1255.83,-117.47 1255.36,-110.49"/>
</a>
</g>
</g>
<!-- Node8 -->
<g id="Node000008" class="node">
<title>Node8</title>
<g id="a_Node000008"><a xlink:href="func__listener_8cc.html" target="_top" xlink:title=" ">
<polygon fill="white" stroke="#666666" points="1120,-74 998,-74 998,-55 1120,-55 1120,-74"/>
<text text-anchor="middle" x="1059" y="-62" font-family="Helvetica,sans-Serif" font-size="10.00">client/func_listener.cc</text>
</a>
</g>
</g>
<!-- Node2&#45;&gt;Node8 -->
<g id="edge7_Node000002_Node000008" class="edge">
<title>Node2&#45;&gt;Node8</title>
<g id="a_edge7_Node000002_Node000008"><a xlink:title=" ">
<path fill="none" stroke="#63b8ff" d="M1153.82,-106.03C1130.89,-96.23 1099.55,-82.83 1079.29,-74.17"/>
<polygon fill="#63b8ff" stroke="#63b8ff" points="1152.51,-109.27 1163.08,-109.98 1155.26,-102.84 1152.51,-109.27"/>
</a>
</g>
</g>
<!-- Node9 -->
<g id="Node000009" class="node">
<title>Node9</title>
<g id="a_Node000009"><a xlink:href="image_8cc.html" target="_top" xlink:title=" ">
<polygon fill="white" stroke="#666666" points="1337.5,-74 1246.5,-74 1246.5,-55 1337.5,-55 1337.5,-74"/>
<text text-anchor="middle" x="1292" y="-62" font-family="Helvetica,sans-Serif" font-size="10.00">client/image.cc</text>
</a>
</g>
</g>
<!-- Node2&#45;&gt;Node9 -->
<g id="edge8_Node000002_Node000009" class="edge">
<title>Node2&#45;&gt;Node9</title>
<g id="a_edge8_Node000002_Node000009"><a xlink:title=" ">
<path fill="none" stroke="#63b8ff" d="M1209.73,-105.5C1229.79,-95.75 1256.68,-82.68 1274.17,-74.17"/>
<polygon fill="#63b8ff" stroke="#63b8ff" points="1207.98,-102.46 1200.51,-109.98 1211.04,-108.76 1207.98,-102.46"/>
</a>
</g>
</g>
<!-- Node10 -->
<g id="Node000010" class="node">
<title>Node10</title>
<g id="a_Node000010"><a xlink:href="log_8cc.html" target="_top" xlink:title=" ">
<polygon fill="white" stroke="#666666" points="1873.5,-74 1798.5,-74 1798.5,-55 1873.5,-55 1873.5,-74"/>
<text text-anchor="middle" x="1836" y="-62" font-family="Helvetica,sans-Serif" font-size="10.00">client/log.cc</text>
</a>
</g>
</g>
<!-- Node2&#45;&gt;Node10 -->
<g id="edge9_Node000002_Node000010" class="edge">
<title>Node2&#45;&gt;Node10</title>
<g id="a_edge9_Node000002_Node000010"><a xlink:title=" ">
<path fill="none" stroke="#63b8ff" d="M1255.6,-115.65C1369.56,-110.62 1597.25,-98.31 1789,-74 1792.04,-73.61 1795.19,-73.16 1798.34,-72.67"/>
<polygon fill="#63b8ff" stroke="#63b8ff" points="1255.43,-112.15 1245.59,-116.09 1255.73,-119.15 1255.43,-112.15"/>
</a>
</g>
</g>
<!-- Node11 -->
<g id="Node000011" class="node">
<title>Node11</title>
<g id="a_Node000011"><a xlink:href="logger_8cc.html" target="_top" xlink:title=" ">
<polygon fill="white" stroke="#666666" points="1228,-74 1138,-74 1138,-55 1228,-55 1228,-74"/>
<text text-anchor="middle" x="1183" y="-62" font-family="Helvetica,sans-Serif" font-size="10.00">client/logger.cc</text>
</a>
</g>
</g>
<!-- Node2&#45;&gt;Node11 -->
<g id="edge10_Node000002_Node000011" class="edge">
<title>Node2&#45;&gt;Node11</title>
<g id="a_edge10_Node000002_Node000011"><a xlink:title=" ">
<path fill="none" stroke="#63b8ff" d="M1183,-99.66C1183,-90.93 1183,-80.99 1183,-74.09"/>
<polygon fill="#63b8ff" stroke="#63b8ff" points="1179.5,-99.75 1183,-109.75 1186.5,-99.75 1179.5,-99.75"/>
</a>
</g>
</g>
<!-- Node12 -->
<g id="Node000012" class="node">
<title>Node12</title>
<g id="a_Node000012"><a xlink:href="member_8cc.html" target="_top" xlink:title=" ">
<polygon fill="white" stroke="#666666" points="753.5,-74 652.5,-74 652.5,-55 753.5,-55 753.5,-74"/>
<text text-anchor="middle" x="703" y="-62" font-family="Helvetica,sans-Serif" font-size="10.00">client/member.cc</text>
</a>
</g>
</g>
<!-- Node2&#45;&gt;Node12 -->
<g id="edge11_Node000002_Node000012" class="edge">
<title>Node2&#45;&gt;Node12</title>
<g id="a_edge11_Node000002_Node000012"><a xlink:title=" ">
<path fill="none" stroke="#63b8ff" d="M1109.94,-111.62C1025.9,-103.51 883.82,-89.21 762,-74 759.23,-73.65 756.38,-73.29 753.51,-72.91"/>
<polygon fill="#63b8ff" stroke="#63b8ff" points="1109.86,-115.13 1120.15,-112.6 1110.53,-108.16 1109.86,-115.13"/>
</a>
</g>
</g>
<!-- Node13 -->
<g id="Node000013" class="node">
<title>Node13</title>
<g id="a_Node000013"><a xlink:href="robot__model_8cc.html" target="_top" xlink:title=" ">
<polygon fill="white" stroke="#666666" points="1478,-74 1356,-74 1356,-55 1478,-55 1478,-74"/>
<text text-anchor="middle" x="1417" y="-62" font-family="Helvetica,sans-Serif" font-size="10.00">client/robot_model.cc</text>
</a>
</g>
</g>
<!-- Node2&#45;&gt;Node13 -->
<g id="edge12_Node000002_Node000013" class="edge">
<title>Node2&#45;&gt;Node13</title>
<g id="a_edge12_Node000002_Node000013"><a xlink:title=" ">
<path fill="none" stroke="#63b8ff" d="M1230.45,-107.75C1274.3,-97.82 1338.6,-83.26 1379.11,-74.08"/>
<polygon fill="#63b8ff" stroke="#63b8ff" points="1229.58,-104.36 1220.6,-109.98 1231.12,-111.19 1229.58,-104.36"/>
</a>
</g>
</g>
<!-- Node14 -->
<g id="Node000014" class="node">
<title>Node14</title>
<g id="a_Node000014"><a xlink:href="text_8cc.html" target="_top" xlink:title=" ">
<polygon fill="white" stroke="#666666" points="1576,-74 1496,-74 1496,-55 1576,-55 1576,-74"/>
<text text-anchor="middle" x="1536" y="-62" font-family="Helvetica,sans-Serif" font-size="10.00">client/text.cc</text>
</a>
</g>
</g>
<!-- Node2&#45;&gt;Node14 -->
<g id="edge13_Node000002_Node000014" class="edge">
<title>Node2&#45;&gt;Node14</title>
<g id="a_edge13_Node000002_Node000014"><a xlink:title=" ">
<path fill="none" stroke="#63b8ff" d="M1254.51,-108.58C1316.17,-99.89 1407.54,-86.7 1487,-74 1489.9,-73.54 1492.89,-73.05 1495.9,-72.54"/>
<polygon fill="#63b8ff" stroke="#63b8ff" points="1253.92,-105.12 1244.5,-109.98 1254.89,-112.06 1253.92,-105.12"/>
</a>
</g>
</g>
<!-- Node15 -->
<g id="Node000015" class="node">
<title>Node15</title>
<g id="a_Node000015"><a xlink:href="client_2value_8cc.html" target="_top" xlink:title=" ">
<polygon fill="white" stroke="#666666" points="1681.5,-74 1594.5,-74 1594.5,-55 1681.5,-55 1681.5,-74"/>
<text text-anchor="middle" x="1638" y="-62" font-family="Helvetica,sans-Serif" font-size="10.00">client/value.cc</text>
</a>
</g>
</g>
<!-- Node2&#45;&gt;Node15 -->
<g id="edge14_Node000002_Node000015" class="edge">
<title>Node2&#45;&gt;Node15</title>
<g id="a_edge14_Node000002_Node000015"><a xlink:title=" ">
<path fill="none" stroke="#63b8ff" d="M1255.83,-111.52C1336.47,-103.53 1470.23,-89.55 1585,-74 1588.05,-73.59 1591.19,-73.14 1594.35,-72.67"/>
<polygon fill="#63b8ff" stroke="#63b8ff" points="1255.39,-108.04 1245.78,-112.51 1256.08,-115.01 1255.39,-108.04"/>
</a>
</g>
</g>
<!-- Node16 -->
<g id="Node000016" class="node">
<title>Node16</title>
<g id="a_Node000016"><a xlink:href="view_8cc.html" target="_top" xlink:title=" ">
<polygon fill="white" stroke="#666666" points="854.5,-74 771.5,-74 771.5,-55 854.5,-55 854.5,-74"/>
<text text-anchor="middle" x="813" y="-62" font-family="Helvetica,sans-Serif" font-size="10.00">client/view.cc</text>
</a>
</g>
</g>
<!-- Node2&#45;&gt;Node16 -->
<g id="edge15_Node000002_Node000016" class="edge">
<title>Node2&#45;&gt;Node16</title>
<g id="a_edge15_Node000002_Node000016"><a xlink:title=" ">
<path fill="none" stroke="#63b8ff" d="M1110.24,-109.02C1045.32,-100.41 947.71,-87.09 863,-74 860.3,-73.58 857.52,-73.14 854.73,-72.69"/>
<polygon fill="#63b8ff" stroke="#63b8ff" points="1110,-112.52 1120.37,-110.36 1110.92,-105.58 1110,-112.52"/>
</a>
</g>
</g>
<!-- Node17&#45;&gt;Node2 -->
<g id="edge17_Node000017_Node000002" class="edge">
<title>Node17&#45;&gt;Node2</title>
<g id="a_edge17_Node000017_Node000002"><a xlink:title=" ">
<path fill="none" stroke="#63b8ff" d="M1008.13,-162.63C1049.34,-152.7 1109.45,-138.22 1147.38,-129.08"/>
<polygon fill="#63b8ff" stroke="#63b8ff" points="1007.25,-159.24 998.35,-164.98 1008.89,-166.05 1007.25,-159.24"/>
</a>
</g>
</g>
<!-- Node18 -->
<g id="Node000018" class="node">
<title>Node18</title>
<g id="a_Node000018"><a xlink:href="data__store2_8cc.html" target="_top" xlink:title=" ">
<polygon fill="white" stroke="#666666" points="1022,-129 904,-129 904,-110 1022,-110 1022,-129"/>
<text text-anchor="middle" x="963" y="-117" font-family="Helvetica,sans-Serif" font-size="10.00">client/data_store2.cc</text>
</a>
</g>
</g>
<!-- Node17&#45;&gt;Node18 -->
<g id="edge18_Node000017_Node000018" class="edge">
<title>Node17&#45;&gt;Node18</title>
<g id="a_edge18_Node000017_Node000018"><a xlink:title=" ">
<path fill="none" stroke="#63b8ff" d="M963,-154.66C963,-145.93 963,-135.99 963,-129.09"/>
<polygon fill="#63b8ff" stroke="#63b8ff" points="959.5,-154.75 963,-164.75 966.5,-154.75 959.5,-154.75"/>
</a>
</g>
</g>
<!-- Node19&#45;&gt;Node9 -->
<g id="edge20_Node000019_Node000009" class="edge">
<title>Node19&#45;&gt;Node9</title>
<g id="a_edge20_Node000019_Node000009"><a xlink:title=" ">
<path fill="none" stroke="#63b8ff" d="M1029.34,-218.26C1095.37,-206.31 1188.79,-181.08 1254,-129 1272.47,-114.25 1284.02,-87.9 1289.06,-74.24"/>
<polygon fill="#63b8ff" stroke="#63b8ff" points="1028.65,-214.82 1019.4,-219.99 1029.85,-221.72 1028.65,-214.82"/>
</a>
</g>
</g>
<!-- Node20 -->
<g id="Node000020" class="node">
<title>Node20</title>
<g id="a_Node000020"><a xlink:href="member_8h.html" target="_top" xlink:title=" ">
<polygon fill="white" stroke="#666666" points="780,-184 626,-184 626,-165 780,-165 780,-184"/>
<text text-anchor="middle" x="703" y="-172" font-family="Helvetica,sans-Serif" font-size="10.00">include/webcface/member.h</text>
</a>
</g>
</g>
<!-- Node19&#45;&gt;Node20 -->
<g id="edge21_Node000019_Node000020" class="edge">
<title>Node19&#45;&gt;Node20</title>
<g id="a_edge21_Node000019_Node000020"><a xlink:title=" ">
<path fill="none" stroke="#63b8ff" d="M900.5,-217.88C854.2,-207.94 785.93,-193.3 743,-184.08"/>
<polygon fill="#63b8ff" stroke="#63b8ff" points="899.8,-221.31 910.32,-219.98 901.27,-214.46 899.8,-221.31"/>
</a>
</g>
</g>
<!-- Node20&#45;&gt;Node3 -->
<g id="edge22_Node000020_Node000003" class="edge">
<title>Node20&#45;&gt;Node3</title>
<g id="a_edge22_Node000020_Node000003"><a xlink:title=" ">
<path fill="none" stroke="#63b8ff" d="M730,-160.43C776.27,-138.02 869.48,-92.87 908.35,-74.05"/>
<polygon fill="#63b8ff" stroke="#63b8ff" points="728.35,-157.34 720.87,-164.84 731.4,-163.64 728.35,-157.34"/>
</a>
</g>
</g>
<!-- Node20&#45;&gt;Node6 -->
<g id="edge23_Node000020_Node000006" class="edge">
<title>Node20&#45;&gt;Node6</title>
<g id="a_edge23_Node000020_Node000006"><a xlink:title=" ">
<path fill="none" stroke="#63b8ff" d="M686.96,-157.61C663.6,-134.47 621.03,-92.29 602.74,-74.16"/>
<polygon fill="#63b8ff" stroke="#63b8ff" points="684.51,-160.11 694.08,-164.66 689.44,-155.14 684.51,-160.11"/>
</a>
</g>
</g>
<!-- Node20&#45;&gt;Node12 -->
<g id="edge24_Node000020_Node000012" class="edge">
<title>Node20&#45;&gt;Node12</title>
<g id="a_edge24_Node000020_Node000012"><a xlink:title=" ">
<path fill="none" stroke="#63b8ff" d="M703,-154.48C703,-130.84 703,-91.5 703,-74.16"/>
<polygon fill="#63b8ff" stroke="#63b8ff" points="699.5,-154.66 703,-164.66 706.5,-154.66 699.5,-154.66"/>
</a>
</g>
</g>
<!-- Node20&#45;&gt;Node16 -->
<g id="edge25_Node000020_Node000016" class="edge">
<title>Node20&#45;&gt;Node16</title>
<g id="a_edge25_Node000020_Node000016"><a xlink:title=" ">
<path fill="none" stroke="#63b8ff" d="M719.19,-157.61C742.76,-134.47 785.72,-92.29 804.18,-74.16"/>
<polygon fill="#63b8ff" stroke="#63b8ff" points="716.69,-155.16 712,-164.66 721.59,-160.15 716.69,-155.16"/>
</a>
</g>
</g>
<!-- Node21 -->
<g id="Node000021" class="node">
<title>Node21</title>
<g id="a_Node000021"><a xlink:href="client_8h.html" target="_top" xlink:title=" ">
<polygon fill="white" stroke="#666666" points="447,-129 307,-129 307,-110 447,-110 447,-129"/>
<text text-anchor="middle" x="377" y="-117" font-family="Helvetica,sans-Serif" font-size="10.00">include/webcface/client.h</text>
</a>
</g>
</g>
<!-- Node20&#45;&gt;Node21 -->
<g id="edge26_Node000020_Node000021" class="edge">
<title>Node20&#45;&gt;Node21</title>
<g id="a_edge26_Node000020_Node000021"><a xlink:title=" ">
<path fill="none" stroke="#63b8ff" d="M640.7,-163.37C579.49,-153.42 487.12,-138.4 429.52,-129.04"/>
<polygon fill="#63b8ff" stroke="#63b8ff" points="640.19,-166.83 650.62,-164.98 641.31,-159.93 640.19,-166.83"/>
</a>
</g>
</g>
<!-- Node20&#45;&gt;Node26 -->
<g id="edge34_Node000020_Node000026" class="edge">
<title>Node20&#45;&gt;Node26</title>
<g id="a_edge34_Node000020_Node000026"><a xlink:title=" ">
<path fill="none" stroke="#63b8ff" d="M615.8,-168.32C533.32,-162.39 406.39,-150.57 298,-129 226.28,-114.73 144.04,-87.8 104.18,-74.05"/>
<polygon fill="#63b8ff" stroke="#63b8ff" points="615.66,-171.82 625.88,-169.03 616.15,-164.84 615.66,-171.82"/>
</a>
</g>
</g>
<!-- Node21&#45;&gt;Node4 -->
<g id="edge31_Node000021_Node000004" class="edge">
<title>Node21&#45;&gt;Node4</title>
<g id="a_edge31_Node000021_Node000004"><a xlink:title=" ">
<path fill="none" stroke="#63b8ff" d="M404.63,-105.77C425.84,-95.99 454.56,-82.75 473.19,-74.17"/>
<polygon fill="#63b8ff" stroke="#63b8ff" points="403.09,-102.62 395.48,-109.98 406.02,-108.98 403.09,-102.62"/>
</a>
</g>
</g>
<!-- Node21&#45;&gt;Node5 -->
<g id="edge32_Node000021_Node000005" class="edge">
<title>Node21&#45;&gt;Node5</title>
<g id="a_edge32_Node000021_Node000005"><a xlink:title=" ">
<path fill="none" stroke="#63b8ff" d="M377,-99.66C377,-90.93 377,-80.99 377,-74.09"/>
<polygon fill="#63b8ff" stroke="#63b8ff" points="373.5,-99.75 377,-109.75 380.5,-99.75 373.5,-99.75"/>
</a>
</g>
</g>
<!-- Node22 -->
<g id="Node000022" class="node">
<title>Node22</title>
<g id="a_Node000022"><a xlink:href="c__wcf__internal_8h.html" target="_top" xlink:title=" ">
<polygon fill="white" stroke="#666666" points="305.5,-74 178.5,-74 178.5,-55 305.5,-55 305.5,-74"/>
<text text-anchor="middle" x="242" y="-62" font-family="Helvetica,sans-Serif" font-size="10.00">c_wcf/c_wcf_internal.h</text>
</a>
</g>
</g>
<!-- Node21&#45;&gt;Node22 -->
<g id="edge27_Node000021_Node000022" class="edge">
<title>Node21&#45;&gt;Node22</title>
<g id="a_edge27_Node000021_Node000022"><a xlink:title=" ">
<path fill="none" stroke="#63b8ff" d="M345.9,-106.29C320.88,-96.47 286.34,-82.91 264.08,-74.17"/>
<polygon fill="#63b8ff" stroke="#63b8ff" points="344.72,-109.59 355.31,-109.98 347.28,-103.07 344.72,-109.59"/>
</a>
</g>
</g>
<!-- Node21&#45;&gt;Node26 -->
<g id="edge33_Node000021_Node000026" class="edge">
<title>Node21&#45;&gt;Node26</title>
<g id="a_edge33_Node000021_Node000026"><a xlink:title=" ">
<path fill="none" stroke="#63b8ff" d="M319.22,-108.19C263.54,-98.25 180.26,-83.39 128.09,-74.08"/>
<polygon fill="#63b8ff" stroke="#63b8ff" points="318.82,-111.67 329.28,-109.98 320.05,-104.78 318.82,-111.67"/>
</a>
</g>
</g>
<!-- Node23 -->
<g id="Node000023" class="node">
<title>Node23</title>
<g id="a_Node000023"><a xlink:href="c__wcf_2client_8cc.html" target="_top" xlink:title=" ">
<polygon fill="white" stroke="#666666" points="183,-19 95,-19 95,0 183,0 183,-19"/>
<text text-anchor="middle" x="139" y="-7" font-family="Helvetica,sans-Serif" font-size="10.00">c_wcf/client.cc</text>
</a>
</g>
</g>
<!-- Node22&#45;&gt;Node23 -->
<g id="edge28_Node000022_Node000023" class="edge">
<title>Node22&#45;&gt;Node23</title>
<g id="a_edge28_Node000022_Node000023"><a xlink:title=" ">
<path fill="none" stroke="#63b8ff" d="M216.48,-50.37C197.56,-40.63 172.3,-27.64 155.85,-19.17"/>
<polygon fill="#63b8ff" stroke="#63b8ff" points="214.96,-53.52 225.45,-54.98 218.16,-47.3 214.96,-53.52"/>
</a>
</g>
</g>
<!-- Node24 -->
<g id="Node000024" class="node">
<title>Node24</title>
<g id="a_Node000024"><a xlink:href="c__wcf_2func_8cc.html" target="_top" xlink:title=" ">
<polygon fill="white" stroke="#666666" points="283,-19 201,-19 201,0 283,0 283,-19"/>
<text text-anchor="middle" x="242" y="-7" font-family="Helvetica,sans-Serif" font-size="10.00">c_wcf/func.cc</text>
</a>
</g>
</g>
<!-- Node22&#45;&gt;Node24 -->
<g id="edge29_Node000022_Node000024" class="edge">
<title>Node22&#45;&gt;Node24</title>
<g id="a_edge29_Node000022_Node000024"><a xlink:title=" ">
<path fill="none" stroke="#63b8ff" d="M242,-44.66C242,-35.93 242,-25.99 242,-19.09"/>
<polygon fill="#63b8ff" stroke="#63b8ff" points="238.5,-44.75 242,-54.75 245.5,-44.75 238.5,-44.75"/>
</a>
</g>
</g>
<!-- Node25 -->
<g id="Node000025" class="node">
<title>Node25</title>
<g id="a_Node000025"><a xlink:href="c__wcf_2value_8cc.html" target="_top" xlink:title=" ">
<polygon fill="white" stroke="#666666" points="389,-19 301,-19 301,0 389,0 389,-19"/>
<text text-anchor="middle" x="345" y="-7" font-family="Helvetica,sans-Serif" font-size="10.00">c_wcf/value.cc</text>
</a>
</g>
</g>
<!-- Node22&#45;&gt;Node25 -->
<g id="edge30_Node000022_Node000025" class="edge">
<title>Node22&#45;&gt;Node25</title>
<g id="a_edge30_Node000022_Node000025"><a xlink:title=" ">
<path fill="none" stroke="#63b8ff" d="M267.52,-50.37C286.44,-40.63 311.7,-27.64 328.15,-19.17"/>
<polygon fill="#63b8ff" stroke="#63b8ff" points="265.84,-47.3 258.55,-54.98 269.04,-53.52 265.84,-47.3"/>
</a>
</g>
</g>
<!-- Node27&#45;&gt;Node3 -->
<g id="edge37_Node000027_Node000003" class="edge">
<title>Node27&#45;&gt;Node3</title>
<g id="a_edge37_Node000027_Node000003"><a xlink:title=" ">
<path fill="none" stroke="#63b8ff" d="M1342.78,-217.8C1307.17,-210.15 1260.18,-198.62 1220,-184 1149.39,-158.31 1137.82,-137.76 1068,-110 1031.03,-95.3 987.15,-82.18 958.06,-74.06"/>
<polygon fill="#63b8ff" stroke="#63b8ff" points="1342.47,-221.31 1352.97,-219.95 1343.91,-214.46 1342.47,-221.31"/>
</a>
</g>
</g>
<!-- Node27&#45;&gt;Node4 -->
<g id="edge38_Node000027_Node000004" class="edge">
<title>Node27&#45;&gt;Node4</title>
<g id="a_edge38_Node000027_Node000004"><a xlink:title=" ">
<path fill="none" stroke="#63b8ff" d="M1329.21,-227.28C1150.58,-223.72 681.4,-211.82 617,-184 560.18,-159.45 513.52,-97.12 497.74,-74.16"/>
<polygon fill="#63b8ff" stroke="#63b8ff" points="1329.21,-230.78 1339.28,-227.47 1329.35,-223.78 1329.21,-230.78"/>
</a>
</g>
</g>
<!-- Node27&#45;&gt;Node7 -->
<g id="edge40_Node000027_Node000007" class="edge">
<title>Node27&#45;&gt;Node7</title>
<g id="a_edge40_Node000027_Node000007"><a xlink:title=" ">
<path fill="none" stroke="#63b8ff" d="M1425.18,-215.66C1443.96,-206.79 1469.51,-194.7 1492,-184 1578.19,-143.01 1681.07,-93.74 1721.96,-74.15"/>
<polygon fill="#63b8ff" stroke="#63b8ff" points="1423.58,-212.55 1416.03,-219.99 1426.57,-218.88 1423.58,-212.55"/>
</a>
</g>
</g>
<!-- Node27&#45;&gt;Node9 -->
<g id="edge41_Node000027_Node000009" class="edge">
<title>Node27&#45;&gt;Node9</title>
<g id="a_edge41_Node000027_Node000009"><a xlink:title=" ">
<path fill="none" stroke="#63b8ff" d="M1387.93,-211.04C1380.43,-198.18 1369.82,-180.35 1360,-165 1338.12,-130.81 1310.35,-91.3 1298.18,-74.17"/>
<polygon fill="#63b8ff" stroke="#63b8ff" points="1384.95,-212.88 1393,-219.77 1391.01,-209.37 1384.95,-212.88"/>
</a>
</g>
</g>
<!-- Node27&#45;&gt;Node10 -->
<g id="edge42_Node000027_Node000010" class="edge">
<title>Node27&#45;&gt;Node10</title>
<g id="a_edge42_Node000027_Node000010"><a xlink:title=" ">
<path fill="none" stroke="#63b8ff" d="M1433.28,-216.56C1459.05,-207.76 1494.78,-195.39 1526,-184 1634.8,-144.3 1763.85,-93.89 1814.29,-74.06"/>
<polygon fill="#63b8ff" stroke="#63b8ff" points="1431.92,-213.32 1423.58,-219.86 1434.18,-219.95 1431.92,-213.32"/>
</a>
</g>
</g>
<!-- Node27&#45;&gt;Node12 -->
<g id="edge43_Node000027_Node000012" class="edge">
<title>Node27&#45;&gt;Node12</title>
<g id="a_edge43_Node000027_Node000012"><a xlink:title=" ">
<path fill="none" stroke="#63b8ff" d="M1329.1,-226.26C1211.08,-221.78 975.37,-209.84 897,-184 819.41,-158.42 740.46,-96.73 713.07,-74.05"/>
<polygon fill="#63b8ff" stroke="#63b8ff" points="1328.99,-229.76 1339.11,-226.63 1329.25,-222.76 1328.99,-229.76"/>
</a>
</g>
</g>
<!-- Node27&#45;&gt;Node13 -->
<g id="edge44_Node000027_Node000013" class="edge">
<title>Node27&#45;&gt;Node13</title>
<g id="a_edge44_Node000027_Node000013"><a xlink:title=" ">
<path fill="none" stroke="#63b8ff" d="M1400.23,-209.37C1404.35,-174.03 1413,-99.79 1415.97,-74.31"/>
<polygon fill="#63b8ff" stroke="#63b8ff" points="1396.7,-209.4 1399.02,-219.74 1403.66,-210.21 1396.7,-209.4"/>
</a>
</g>
</g>
<!-- Node27&#45;&gt;Node14 -->
<g id="edge45_Node000027_Node000014" class="edge">
<title>Node27&#45;&gt;Node14</title>
<g id="a_edge45_Node000027_Node000014"><a xlink:title=" ">
<path fill="none" stroke="#63b8ff" d="M1411.92,-212.05C1440.81,-177.93 1506.41,-100.45 1528.54,-74.31"/>
<polygon fill="#63b8ff" stroke="#63b8ff" points="1409.21,-209.84 1405.42,-219.74 1414.55,-214.37 1409.21,-209.84"/>
</a>
</g>
</g>
<!-- Node27&#45;&gt;Node15 -->
<g id="edge46_Node000027_Node000015" class="edge">
<title>Node27&#45;&gt;Node15</title>
<g id="a_edge46_Node000027_Node000015"><a xlink:title=" ">
<path fill="none" stroke="#63b8ff" d="M1419.03,-214.21C1467.56,-181.26 1586.17,-100.7 1625.27,-74.15"/>
<polygon fill="#63b8ff" stroke="#63b8ff" points="1416.87,-211.45 1410.57,-219.97 1420.8,-217.24 1416.87,-211.45"/>
</a>
</g>
</g>
<!-- Node27&#45;&gt;Node16 -->
<g id="edge47_Node000027_Node000016" class="edge">
<title>Node27&#45;&gt;Node16</title>
<g id="a_edge47_Node000027_Node000016"><a xlink:title=" ">
<path fill="none" stroke="#63b8ff" d="M1329.31,-219.97C1284.29,-213.14 1224.62,-201.73 1174,-184 1169.78,-182.52 1035.22,-111.49 1031,-110 999.04,-98.71 908.44,-81.99 854.63,-72.59"/>
<polygon fill="#63b8ff" stroke="#63b8ff" points="1328.85,-223.44 1339.26,-221.44 1329.88,-216.52 1328.85,-223.44"/>
</a>
</g>
</g>
<!-- Node27&#45;&gt;Node17 -->
<g id="edge39_Node000027_Node000017" class="edge">
<title>Node27&#45;&gt;Node17</title>
<g id="a_edge39_Node000027_Node000017"><a xlink:title=" ">
<path fill="none" stroke="#63b8ff" d="M1329.2,-220.12C1243.65,-209.69 1099.21,-192.1 1019.7,-182.41"/>
<polygon fill="#63b8ff" stroke="#63b8ff" points="1328.98,-223.62 1339.33,-221.35 1329.83,-216.67 1328.98,-223.62"/>
</a>
</g>
</g>
<!-- Node28 -->
<g id="Node000028" class="node">
<title>Node28</title>
<g id="a_Node000028"><a xlink:href="message_8cc.html" target="_top" xlink:title=" ">
<polygon fill="white" stroke="#666666" points="1351,-184 1229,-184 1229,-165 1351,-165 1351,-184"/>
<text text-anchor="middle" x="1290" y="-172" font-family="Helvetica,sans-Serif" font-size="10.00">message/message.cc</text>
</a>
</g>
</g>
<!-- Node27&#45;&gt;Node28 -->
<g id="edge48_Node000027_Node000028" class="edge">
<title>Node27&#45;&gt;Node28</title>
<g id="a_edge48_Node000027_Node000028"><a xlink:title=" ">
<path fill="none" stroke="#63b8ff" d="M1371.51,-215.5C1351.64,-205.75 1325,-192.68 1307.67,-184.17"/>
<polygon fill="#63b8ff" stroke="#63b8ff" points="1370.13,-218.72 1380.65,-219.98 1373.21,-212.44 1370.13,-218.72"/>
</a>
</g>
</g>
<!-- Node29 -->
<g id="Node000029" class="node">
<title>Node29</title>
<g id="a_Node000029"><a xlink:href="s__client__data_8cc.html" target="_top" xlink:title=" ">
<polygon fill="white" stroke="#666666" points="2020,-74 1892,-74 1892,-55 2020,-55 2020,-74"/>
<text text-anchor="middle" x="1956" y="-62" font-family="Helvetica,sans-Serif" font-size="10.00">server/s_client_data.cc</text>
</a>
</g>
</g>
<!-- Node27&#45;&gt;Node29 -->
<g id="edge49_Node000027_Node000029" class="edge">
<title>Node27&#45;&gt;Node29</title>
<g id="a_edge49_Node000027_Node000029"><a xlink:title=" ">
<path fill="none" stroke="#63b8ff" d="M1441.36,-217.38C1475.14,-208.61 1523.16,-195.91 1565,-184 1702.46,-144.87 1865.77,-93.92 1929.07,-74"/>
<polygon fill="#63b8ff" stroke="#63b8ff" points="1440.16,-214.07 1431.36,-219.97 1441.92,-220.85 1440.16,-214.07"/>
</a>
</g>
</g>
<!-- Node30 -->
<g id="Node000030" class="node">
<title>Node30</title>
<g id="a_Node000030"><a xlink:href="s__client__data_8h.html" target="_top" xlink:title=" ">
<polygon fill="white" stroke="#666666" points="2153,-184 2029,-184 2029,-165 2153,-165 2153,-184"/>
<text text-anchor="middle" x="2091" y="-172" font-family="Helvetica,sans-Serif" font-size="10.00">server/s_client_data.h</text>
</a>
</g>
</g>
<!-- Node27&#45;&gt;Node30 -->
<g id="edge50_Node000027_Node000030" class="edge">
<title>Node27&#45;&gt;Node30</title>
<g id="a_edge50_Node000027_Node000030"><a xlink:title=" ">
<path fill="none" stroke="#63b8ff" d="M1467,-223.22C1602.06,-212.89 1899.36,-190.16 2028.77,-180.26"/>
<polygon fill="#63b8ff" stroke="#63b8ff" points="1466.49,-219.75 1456.79,-224 1467.02,-226.73 1466.49,-219.75"/>
</a>
</g>
</g>
<!-- Node33 -->
<g id="Node000033" class="node">
<title>Node33</title>
<g id="a_Node000033"><a xlink:href="websock_8cc.html" target="_top" xlink:title=" ">
<polygon fill="white" stroke="#666666" points="2361.5,-74 2254.5,-74 2254.5,-55 2361.5,-55 2361.5,-74"/>
<text text-anchor="middle" x="2308" y="-62" font-family="Helvetica,sans-Serif" font-size="10.00">server/websock.cc</text>
</a>
</g>
</g>
<!-- Node27&#45;&gt;Node33 -->
<g id="edge59_Node000027_Node000033" class="edge">
<title>Node27&#45;&gt;Node33</title>
<g id="a_edge59_Node000027_Node000033"><a xlink:title=" ">
<path fill="none" stroke="#63b8ff" d="M1466.69,-226.9C1642.28,-222.48 2098.2,-208.75 2162,-184 2225,-159.56 2281.58,-97.17 2300.93,-74.18"/>
<polygon fill="#63b8ff" stroke="#63b8ff" points="1466.45,-223.41 1456.54,-227.16 1466.62,-230.41 1466.45,-223.41"/>
</a>
</g>
</g>
<!-- Node30&#45;&gt;Node29 -->
<g id="edge51_Node000030_Node000029" class="edge">
<title>Node30&#45;&gt;Node29</title>
<g id="a_edge51_Node000030_Node000029"><a xlink:title=" ">
<path fill="none" stroke="#63b8ff" d="M2071.88,-158.21C2043.13,-135.2 1989.68,-92.44 1966.82,-74.16"/>
<polygon fill="#63b8ff" stroke="#63b8ff" points="2069.96,-161.15 2079.95,-164.66 2074.33,-155.68 2069.96,-161.15"/>
</a>
</g>
</g>
<!-- Node31 -->
<g id="Node000031" class="node">
<title>Node31</title>
<g id="a_Node000031"><a xlink:href="store_8cc.html" target="_top" xlink:title=" ">
<polygon fill="white" stroke="#666666" points="2236.5,-74 2147.5,-74 2147.5,-55 2236.5,-55 2236.5,-74"/>
<text text-anchor="middle" x="2192" y="-62" font-family="Helvetica,sans-Serif" font-size="10.00">server/store.cc</text>
</a>
</g>
</g>
<!-- Node30&#45;&gt;Node31 -->
<g id="edge52_Node000030_Node000031" class="edge">
<title>Node30&#45;&gt;Node31</title>
<g id="a_edge52_Node000030_Node000031"><a xlink:title=" ">
<path fill="none" stroke="#63b8ff" d="M2109.82,-158.52C2119.79,-150.23 2132.01,-139.51 2142,-129 2159.4,-110.7 2177.05,-86.74 2186,-74.13"/>
<polygon fill="#63b8ff" stroke="#63b8ff" points="2107.61,-155.81 2102.07,-164.84 2112.03,-161.23 2107.61,-155.81"/>
</a>
</g>
</g>
<!-- Node32 -->
<g id="Node000032" class="node">
<title>Node32</title>
<g id="a_Node000032"><a xlink:href="store_8h.html" target="_top" xlink:title=" ">
<polygon fill="white" stroke="#666666" points="2133,-129 2049,-129 2049,-110 2133,-110 2133,-129"/>
<text text-anchor="middle" x="2091" y="-117" font-family="Helvetica,sans-Serif" font-size="10.00">server/store.h</text>
</a>
</g>
</g>
<!-- Node30&#45;&gt;Node32 -->
<g id="edge53_Node000030_Node000032" class="edge">
<title>Node30&#45;&gt;Node32</title>
<g id="a_edge53_Node000030_Node000032"><a xlink:title=" ">
<path fill="none" stroke="#63b8ff" d="M2091,-154.66C2091,-145.93 2091,-135.99 2091,-129.09"/>
<polygon fill="#63b8ff" stroke="#63b8ff" points="2087.5,-154.75 2091,-164.75 2094.5,-154.75 2087.5,-154.75"/>
</a>
</g>
</g>
<!-- Node30&#45;&gt;Node33 -->
<g id="edge58_Node000030_Node000033" class="edge">
<title>Node30&#45;&gt;Node33</title>
<g id="a_edge58_Node000030_Node000033"><a xlink:title=" ">
<path fill="none" stroke="#63b8ff" d="M2117.55,-160.28C2162.67,-137.83 2253.08,-92.83 2290.83,-74.05"/>
<polygon fill="#63b8ff" stroke="#63b8ff" points="2115.78,-157.26 2108.39,-164.84 2118.9,-163.52 2115.78,-157.26"/>
</a>
</g>
</g>
<!-- Node32&#45;&gt;Node29 -->
<g id="edge54_Node000032_Node000029" class="edge">
<title>Node32&#45;&gt;Node29</title>
<g id="a_edge54_Node000032_Node000029"><a xlink:title=" ">
<path fill="none" stroke="#63b8ff" d="M2059.9,-106.29C2034.88,-96.47 2000.34,-82.91 1978.08,-74.17"/>
<polygon fill="#63b8ff" stroke="#63b8ff" points="2058.72,-109.59 2069.31,-109.98 2061.28,-103.07 2058.72,-109.59"/>
</a>
</g>
</g>
<!-- Node32&#45;&gt;Node31 -->
<g id="edge55_Node000032_Node000031" class="edge">
<title>Node32&#45;&gt;Node31</title>
<g id="a_edge55_Node000032_Node000031"><a xlink:title=" ">
<path fill="none" stroke="#63b8ff" d="M2116.28,-105.23C2134.8,-95.51 2159.42,-82.6 2175.48,-74.17"/>
<polygon fill="#63b8ff" stroke="#63b8ff" points="2114.46,-102.24 2107.23,-109.98 2117.71,-108.44 2114.46,-102.24"/>
</a>
</g>
</g>
<!-- Node32&#45;&gt;Node33 -->
<g id="edge56_Node000032_Node000033" class="edge">
<title>Node32&#45;&gt;Node33</title>
<g id="a_edge56_Node000032_Node000033"><a xlink:title=" ">
<path fill="none" stroke="#63b8ff" d="M2135.77,-107.56C2176.42,-97.64 2235.53,-83.2 2272.86,-74.08"/>
<polygon fill="#63b8ff" stroke="#63b8ff" points="2134.75,-104.21 2125.86,-109.98 2136.41,-111.01 2134.75,-104.21"/>
</a>
</g>
</g>
<!-- Node34 -->
<g id="Node000034" class="node">
<title>Node34</title>
<g id="a_Node000034"><a xlink:href="server__main_8cc.html" target="_top" xlink:title=" ">
<polygon fill="white" stroke="#666666" points="2129.5,-74 2038.5,-74 2038.5,-55 2129.5,-55 2129.5,-74"/>
<text text-anchor="middle" x="2084" y="-62" font-family="Helvetica,sans-Serif" font-size="10.00">server_main.cc</text>
</a>
</g>
</g>
<!-- Node32&#45;&gt;Node34 -->
<g id="edge57_Node000032_Node000034" class="edge">
<title>Node32&#45;&gt;Node34</title>
<g id="a_edge57_Node000032_Node000034"><a xlink:title=" ">
<path fill="none" stroke="#63b8ff" d="M2088.51,-99.66C2087.36,-90.93 2086.05,-80.99 2085.13,-74.09"/>
<polygon fill="#63b8ff" stroke="#63b8ff" points="2085.06,-100.29 2089.84,-109.75 2092,-99.38 2085.06,-100.29"/>
</a>
</g>
</g>
</g>
</svg>
