<?xml version="1.0" encoding="UTF-8" standalone="no"?>
<!DOCTYPE svg PUBLIC "-//W3C//DTD SVG 1.1//EN"
 "http://www.w3.org/Graphics/SVG/1.1/DTD/svg11.dtd">
<!-- Generated by graphviz version 2.43.0 (0)
 -->
<!-- Title: include/webcface/common/canvas2d.h Pages: 1 -->
<svg width="1064pt" height="368pt"
 viewBox="0.00 0.00 1063.50 368.00" xmlns="http://www.w3.org/2000/svg" xmlns:xlink="http://www.w3.org/1999/xlink">
<g id="graph0" class="graph" transform="scale(1 1) rotate(0) translate(4 364)">
<title>include/webcface/common/canvas2d.h</title>
<!-- Node1 -->
<g id="Node000001" class="node">
<title>Node1</title>
<g id="a_Node000001"><a xlink:title=" ">
<polygon fill="#999999" stroke="#666666" points="773,-360 626,-360 626,-330 773,-330 773,-360"/>
<text text-anchor="start" x="634" y="-348" font-family="Helvetica,sans-Serif" font-size="10.00">include/webcface/common</text>
<text text-anchor="middle" x="699.5" y="-337" font-family="Helvetica,sans-Serif" font-size="10.00">/canvas2d.h</text>
</a>
</g>
</g>
<!-- Node2 -->
<g id="Node000002" class="node">
<title>Node2</title>
<g id="a_Node000002"><a xlink:title=" ">
<polygon fill="#e0e0e0" stroke="#999999" points="863,-129 816,-129 816,-110 863,-110 863,-129"/>
<text text-anchor="middle" x="839.5" y="-117" font-family="Helvetica,sans-Serif" font-size="10.00">vector</text>
</a>
</g>
</g>
<!-- Node1&#45;&gt;Node2 -->
<g id="edge1_Node000001_Node000002" class="edge">
<title>Node1&#45;&gt;Node2</title>
<g id="a_edge1_Node000001_Node000002"><a xlink:title=" ">
<path fill="none" stroke="#63b8ff" d="M745.12,-329.86C785.65,-314.6 842.4,-285.94 868.5,-239 886.77,-206.14 865.75,-161.86 851.15,-137.81"/>
<polygon fill="#63b8ff" stroke="#63b8ff" points="853.93,-135.65 845.6,-129.1 848.03,-139.42 853.93,-135.65"/>
</a>
</g>
</g>
<!-- Node3 -->
<g id="Node000003" class="node">
<title>Node3</title>
<g id="a_Node000003"><a xlink:title=" ">
<polygon fill="#e0e0e0" stroke="#999999" points="139.5,-129 83.5,-129 83.5,-110 139.5,-110 139.5,-129"/>
<text text-anchor="middle" x="111.5" y="-117" font-family="Helvetica,sans-Serif" font-size="10.00">optional</text>
</a>
</g>
</g>
<!-- Node1&#45;&gt;Node3 -->
<g id="edge2_Node000001_Node000003" class="edge">
<title>Node1&#45;&gt;Node3</title>
<g id="a_edge2_Node000001_Node000003"><a xlink:title=" ">
<path fill="none" stroke="#63b8ff" d="M654.22,-329.96C571.56,-303.91 391.15,-245.2 243.5,-184 205.63,-168.3 163.11,-147.2 136.82,-133.72"/>
<polygon fill="#63b8ff" stroke="#63b8ff" points="138.39,-130.59 127.9,-129.12 135.19,-136.81 138.39,-130.59"/>
</a>
</g>
</g>
<!-- Node4 -->
<g id="Node000004" class="node">
<title>Node4</title>
<g id="a_Node000004"><a xlink:title=" ">
<polygon fill="#e0e0e0" stroke="#999999" points="65,-129 0,-129 0,-110 65,-110 65,-129"/>
<text text-anchor="middle" x="32.5" y="-117" font-family="Helvetica,sans-Serif" font-size="10.00">stdexcept</text>
</a>
</g>
</g>
<!-- Node1&#45;&gt;Node4 -->
<g id="edge3_Node000001_Node000004" class="edge">
<title>Node1&#45;&gt;Node4</title>
<g id="a_edge3_Node000001_Node000004"><a xlink:title=" ">
<path fill="none" stroke="#63b8ff" d="M630.37,-329.95C588.42,-320.89 534,-308.17 486.5,-294 322.01,-244.93 132.26,-164.28 61.26,-133.24"/>
<polygon fill="#63b8ff" stroke="#63b8ff" points="62.61,-130.01 52.05,-129.19 59.8,-136.42 62.61,-130.01"/>
</a>
</g>
</g>
<!-- Node5 -->
<g id="Node000005" class="node">
<title>Node5</title>
<g id="a_Node000005"><a xlink:href="def_8h.html" target="_top" xlink:title=" ">
<polygon fill="white" stroke="#666666" points="808,-74 767,-74 767,-55 808,-55 808,-74"/>
<text text-anchor="middle" x="787.5" y="-62" font-family="Helvetica,sans-Serif" font-size="10.00">def.h</text>
</a>
</g>
</g>
<!-- Node1&#45;&gt;Node5 -->
<g id="edge4_Node000001_Node000005" class="edge">
<title>Node1&#45;&gt;Node5</title>
<g id="a_edge4_Node000001_Node000005"><a xlink:title=" ">
<path fill="none" stroke="#63b8ff" d="M773.26,-335.6C877.54,-321.64 1055.5,-289.21 1055.5,-230.5 1055.5,-230.5 1055.5,-230.5 1055.5,-173.5 1055.5,-122.8 888.43,-84.84 818.11,-71.1"/>
<polygon fill="#63b8ff" stroke="#63b8ff" points="818.56,-67.62 808.08,-69.18 817.25,-74.5 818.56,-67.62"/>
</a>
</g>
</g>
<!-- Node7 -->
<g id="Node000007" class="node">
<title>Node7</title>
<g id="a_Node000007"><a xlink:href="transform_8h.html" target="_top" xlink:title=" ">
<polygon fill="white" stroke="#666666" points="1027.5,-239 953.5,-239 953.5,-220 1027.5,-220 1027.5,-239"/>
<text text-anchor="middle" x="990.5" y="-227" font-family="Helvetica,sans-Serif" font-size="10.00">transform.h</text>
</a>
</g>
</g>
<!-- Node1&#45;&gt;Node7 -->
<g id="edge6_Node000001_Node000007" class="edge">
<title>Node1&#45;&gt;Node7</title>
<g id="a_edge6_Node000001_Node000007"><a xlink:title=" ">
<path fill="none" stroke="#63b8ff" d="M773,-341.53C823.11,-336.91 889.24,-324.8 939.5,-294 957.72,-282.84 972.2,-262.72 981.01,-248.12"/>
<polygon fill="#63b8ff" stroke="#63b8ff" points="984.26,-249.48 986.18,-239.06 978.18,-246.01 984.26,-249.48"/>
</a>
</g>
</g>
<!-- Node9 -->
<g id="Node000009" class="node">
<title>Node9</title>
<g id="a_Node000009"><a xlink:href="common_2view_8h.html" target="_top" xlink:title=" ">
<polygon fill="white" stroke="#666666" points="633.5,-239 585.5,-239 585.5,-220 633.5,-220 633.5,-239"/>
<text text-anchor="middle" x="609.5" y="-227" font-family="Helvetica,sans-Serif" font-size="10.00">view.h</text>
</a>
</g>
</g>
<!-- Node1&#45;&gt;Node9 -->
<g id="edge9_Node000001_Node000009" class="edge">
<title>Node1&#45;&gt;Node9</title>
<g id="a_edge9_Node000001_Node000009"><a xlink:title=" ">
<path fill="none" stroke="#63b8ff" d="M682.45,-329.7C671.71,-320.22 657.95,-307.13 647.5,-294 636.03,-279.58 625.48,-261.38 618.42,-248.17"/>
<polygon fill="#63b8ff" stroke="#63b8ff" points="621.47,-246.44 613.75,-239.18 615.26,-249.67 621.47,-246.44"/>
</a>
</g>
</g>
<!-- Node11 -->
<g id="Node000011" class="node">
<title>Node11</title>
<g id="a_Node000011"><a xlink:href="field__base_8h.html" target="_top" xlink:title=" ">
<polygon fill="white" stroke="#666666" points="751,-184 676,-184 676,-165 751,-165 751,-184"/>
<text text-anchor="middle" x="713.5" y="-172" font-family="Helvetica,sans-Serif" font-size="10.00">field_base.h</text>
</a>
</g>
</g>
<!-- Node1&#45;&gt;Node11 -->
<g id="edge38_Node000001_Node000011" class="edge">
<title>Node1&#45;&gt;Node11</title>
<g id="a_edge38_Node000001_Node000011"><a xlink:title=" ">
<path fill="none" stroke="#63b8ff" d="M694.76,-329.75C691.72,-319.85 688.07,-306.28 686.5,-294 681.86,-257.7 695.9,-216.2 705.44,-193.2"/>
<polygon fill="#63b8ff" stroke="#63b8ff" points="708.65,-194.59 709.42,-184.02 702.23,-191.8 708.65,-194.59"/>
</a>
</g>
</g>
<!-- Node19 -->
<g id="Node000019" class="node">
<title>Node19</title>
<g id="a_Node000019"><a xlink:href="common_2canvas3d_8h.html" target="_top" xlink:title=" ">
<polygon fill="white" stroke="#666666" points="767.5,-294 695.5,-294 695.5,-275 767.5,-275 767.5,-294"/>
<text text-anchor="middle" x="731.5" y="-282" font-family="Helvetica,sans-Serif" font-size="10.00">canvas3d.h</text>
</a>
</g>
</g>
<!-- Node1&#45;&gt;Node19 -->
<g id="edge30_Node000001_Node000019" class="edge">
<title>Node1&#45;&gt;Node19</title>
<g id="a_edge30_Node000001_Node000019"><a xlink:title=" ">
<path fill="none" stroke="#63b8ff" d="M707.25,-329.84C711.65,-321.78 717.21,-311.62 721.9,-303.06"/>
<polygon fill="#63b8ff" stroke="#63b8ff" points="724.98,-304.72 726.7,-294.27 718.84,-301.36 724.98,-304.72"/>
</a>
</g>
</g>
<!-- Node6 -->
<g id="Node000006" class="node">
<title>Node6</title>
<g id="a_Node000006"><a xlink:href="macros_8h.html" target="_top" xlink:title=" ">
<polygon fill="white" stroke="#666666" points="818.5,-19 756.5,-19 756.5,0 818.5,0 818.5,-19"/>
<text text-anchor="middle" x="787.5" y="-7" font-family="Helvetica,sans-Serif" font-size="10.00">macros.h</text>
</a>
</g>
</g>
<!-- Node5&#45;&gt;Node6 -->
<g id="edge5_Node000005_Node000006" class="edge">
<title>Node5&#45;&gt;Node6</title>
<g id="a_edge5_Node000005_Node000006"><a xlink:title=" ">
<path fill="none" stroke="#63b8ff" d="M787.5,-54.75C787.5,-47.8 787.5,-37.85 787.5,-29.13"/>
<polygon fill="#63b8ff" stroke="#63b8ff" points="791,-29.09 787.5,-19.09 784,-29.09 791,-29.09"/>
</a>
</g>
</g>
<!-- Node7&#45;&gt;Node5 -->
<g id="edge7_Node000007_Node000005" class="edge">
<title>Node7&#45;&gt;Node5</title>
<g id="a_edge7_Node000007_Node000005"><a xlink:title=" ">
<path fill="none" stroke="#63b8ff" d="M984.77,-219.93C967.45,-194.07 916.14,-118.17 905.5,-110 879.4,-89.97 843.27,-78.12 817.89,-71.75"/>
<polygon fill="#63b8ff" stroke="#63b8ff" points="818.6,-68.32 808.06,-69.42 816.99,-75.13 818.6,-68.32"/>
</a>
</g>
</g>
<!-- Node8 -->
<g id="Node000008" class="node">
<title>Node8</title>
<g id="a_Node000008"><a xlink:title=" ">
<polygon fill="#e0e0e0" stroke="#999999" points="1011.5,-184 969.5,-184 969.5,-165 1011.5,-165 1011.5,-184"/>
<text text-anchor="middle" x="990.5" y="-172" font-family="Helvetica,sans-Serif" font-size="10.00">array</text>
</a>
</g>
</g>
<!-- Node7&#45;&gt;Node8 -->
<g id="edge8_Node000007_Node000008" class="edge">
<title>Node7&#45;&gt;Node8</title>
<g id="a_edge8_Node000007_Node000008"><a xlink:title=" ">
<path fill="none" stroke="#63b8ff" d="M990.5,-219.75C990.5,-212.8 990.5,-202.85 990.5,-194.13"/>
<polygon fill="#63b8ff" stroke="#63b8ff" points="994,-194.09 990.5,-184.09 987,-194.09 994,-194.09"/>
</a>
</g>
</g>
<!-- Node9&#45;&gt;Node2 -->
<g id="edge12_Node000009_Node000002" class="edge">
<title>Node9&#45;&gt;Node2</title>
<g id="a_edge12_Node000009_Node000002"><a xlink:title=" ">
<path fill="none" stroke="#63b8ff" d="M615.1,-219.62C624.3,-205.77 643.96,-179.17 667.5,-165 710.91,-138.87 769.44,-127.95 805.8,-123.48"/>
<polygon fill="#63b8ff" stroke="#63b8ff" points="806.35,-126.94 815.89,-122.34 805.56,-119.98 806.35,-126.94"/>
</a>
</g>
</g>
<!-- Node9&#45;&gt;Node3 -->
<g id="edge11_Node000009_Node000003" class="edge">
<title>Node9&#45;&gt;Node3</title>
<g id="a_edge11_Node000009_Node000003"><a xlink:title=" ">
<path fill="none" stroke="#63b8ff" d="M585.48,-223.43C518.37,-209.25 322.96,-167.79 149.58,-129.22"/>
<polygon fill="#63b8ff" stroke="#63b8ff" points="150.29,-125.79 139.77,-127.04 148.77,-132.63 150.29,-125.79"/>
</a>
</g>
</g>
<!-- Node9&#45;&gt;Node5 -->
<g id="edge16_Node000009_Node000005" class="edge">
<title>Node9&#45;&gt;Node5</title>
<g id="a_edge16_Node000009_Node000005"><a xlink:title=" ">
<path fill="none" stroke="#63b8ff" d="M611.7,-219.91C615.57,-206.46 624.79,-180.39 641.5,-165 672.89,-136.1 695.57,-153.51 730.5,-129 748.8,-116.16 765.34,-96.38 775.83,-82.32"/>
<polygon fill="#63b8ff" stroke="#63b8ff" points="778.79,-84.19 781.8,-74.03 773.12,-80.09 778.79,-84.19"/>
</a>
</g>
</g>
<!-- Node10 -->
<g id="Node000010" class="node">
<title>Node10</title>
<g id="a_Node000010"><a xlink:title=" ">
<polygon fill="#e0e0e0" stroke="#999999" points="721.5,-129 677.5,-129 677.5,-110 721.5,-110 721.5,-129"/>
<text text-anchor="middle" x="699.5" y="-117" font-family="Helvetica,sans-Serif" font-size="10.00">string</text>
</a>
</g>
</g>
<!-- Node9&#45;&gt;Node10 -->
<g id="edge10_Node000009_Node000010" class="edge">
<title>Node9&#45;&gt;Node10</title>
<g id="a_edge10_Node000009_Node000010"><a xlink:title=" ">
<path fill="none" stroke="#63b8ff" d="M603.83,-219.95C596.03,-207.01 584.18,-182.15 595.5,-165 603.88,-152.3 640.23,-138.67 667.61,-129.89"/>
<polygon fill="#63b8ff" stroke="#63b8ff" points="668.72,-133.21 677.22,-126.88 666.63,-126.53 668.72,-133.21"/>
</a>
</g>
</g>
<!-- Node9&#45;&gt;Node11 -->
<g id="edge13_Node000009_Node000011" class="edge">
<title>Node9&#45;&gt;Node11</title>
<g id="a_edge13_Node000009_Node000011"><a xlink:title=" ">
<path fill="none" stroke="#63b8ff" d="M626.21,-219.98C642.71,-211.57 668.2,-198.59 687.38,-188.81"/>
<polygon fill="#63b8ff" stroke="#63b8ff" points="689.17,-191.83 696.49,-184.17 685.99,-185.59 689.17,-191.83"/>
</a>
</g>
</g>
<!-- Node12 -->
<g id="Node000012" class="node">
<title>Node12</title>
<g id="a_Node000012"><a xlink:href="val_8h.html" target="_top" xlink:title=" ">
<polygon fill="white" stroke="#666666" points="500,-184 459,-184 459,-165 500,-165 500,-184"/>
<text text-anchor="middle" x="479.5" y="-172" font-family="Helvetica,sans-Serif" font-size="10.00">val.h</text>
</a>
</g>
</g>
<!-- Node9&#45;&gt;Node12 -->
<g id="edge17_Node000009_Node000012" class="edge">
<title>Node9&#45;&gt;Node12</title>
<g id="a_edge17_Node000009_Node000012"><a xlink:title=" ">
<path fill="none" stroke="#63b8ff" d="M588.61,-219.98C567.29,-211.29 533.98,-197.71 509.77,-187.84"/>
<polygon fill="#63b8ff" stroke="#63b8ff" points="510.92,-184.53 500.33,-183.99 508.27,-191.01 510.92,-184.53"/>
</a>
</g>
</g>
<!-- Node11&#45;&gt;Node5 -->
<g id="edge15_Node000011_Node000005" class="edge">
<title>Node11&#45;&gt;Node5</title>
<g id="a_edge15_Node000011_Node000005"><a xlink:title=" ">
<path fill="none" stroke="#63b8ff" d="M726.16,-164.96C737.33,-156.85 753.36,-143.75 763.5,-129 772.89,-115.34 779.21,-97.53 782.99,-84.25"/>
<polygon fill="#63b8ff" stroke="#63b8ff" points="786.44,-84.91 785.59,-74.35 779.67,-83.13 786.44,-84.91"/>
</a>
</g>
</g>
<!-- Node11&#45;&gt;Node10 -->
<g id="edge14_Node000011_Node000010" class="edge">
<title>Node11&#45;&gt;Node10</title>
<g id="a_edge14_Node000011_Node000010"><a xlink:title=" ">
<path fill="none" stroke="#63b8ff" d="M711.19,-164.75C709.33,-157.72 706.66,-147.62 704.35,-138.84"/>
<polygon fill="#63b8ff" stroke="#63b8ff" points="707.71,-137.86 701.77,-129.09 700.94,-139.65 707.71,-137.86"/>
</a>
</g>
</g>
<!-- Node12&#45;&gt;Node2 -->
<g id="edge19_Node000012_Node000002" class="edge">
<title>Node12&#45;&gt;Node2</title>
<g id="a_edge19_Node000012_Node000002"><a xlink:title=" ">
<path fill="none" stroke="#63b8ff" d="M500.15,-170.46C559.67,-161.7 732.04,-136.32 805.59,-125.49"/>
<polygon fill="#63b8ff" stroke="#63b8ff" points="806.32,-128.92 815.7,-124 805.3,-122 806.32,-128.92"/>
</a>
</g>
</g>
<!-- Node12&#45;&gt;Node3 -->
<g id="edge26_Node000012_Node000003" class="edge">
<title>Node12&#45;&gt;Node3</title>
<g id="a_edge26_Node000012_Node000003"><a xlink:title=" ">
<path fill="none" stroke="#63b8ff" d="M458.87,-171.4C408.04,-166.07 272.56,-151.02 149.68,-129.07"/>
<polygon fill="#63b8ff" stroke="#63b8ff" points="150.19,-125.6 139.73,-127.27 148.94,-132.49 150.19,-125.6"/>
</a>
</g>
</g>
<!-- Node12&#45;&gt;Node4 -->
<g id="edge22_Node000012_Node000004" class="edge">
<title>Node12&#45;&gt;Node4</title>
<g id="a_edge22_Node000012_Node000004"><a xlink:title=" ">
<path fill="none" stroke="#63b8ff" d="M458.76,-171.89C400.21,-167.19 228.52,-152.47 75.09,-128.94"/>
<polygon fill="#63b8ff" stroke="#63b8ff" points="75.43,-125.45 65.01,-127.38 74.35,-132.37 75.43,-125.45"/>
</a>
</g>
</g>
<!-- Node12&#45;&gt;Node5 -->
<g id="edge29_Node000012_Node000005" class="edge">
<title>Node12&#45;&gt;Node5</title>
<g id="a_edge29_Node000012_Node000005"><a xlink:title=" ">
<path fill="none" stroke="#63b8ff" d="M458.71,-172.42C406.48,-169 276.85,-155.79 318.5,-110 348,-77.56 657.15,-68.24 756.76,-66.07"/>
<polygon fill="#63b8ff" stroke="#63b8ff" points="756.86,-69.57 766.79,-65.86 756.72,-62.57 756.86,-69.57"/>
</a>
</g>
</g>
<!-- Node12&#45;&gt;Node10 -->
<g id="edge18_Node000012_Node000010" class="edge">
<title>Node12&#45;&gt;Node10</title>
<g id="a_edge18_Node000012_Node000010"><a xlink:title=" ">
<path fill="none" stroke="#63b8ff" d="M500.26,-168.87C533.48,-161.41 600.87,-146.05 667.37,-129.22"/>
<polygon fill="#63b8ff" stroke="#63b8ff" points="668.35,-132.58 677.17,-126.73 666.62,-125.8 668.35,-132.58"/>
</a>
</g>
</g>
<!-- Node13 -->
<g id="Node000013" class="node">
<title>Node13</title>
<g id="a_Node000013"><a xlink:title=" ">
<polygon fill="#e0e0e0" stroke="#999999" points="513,-129 472,-129 472,-110 513,-110 513,-129"/>
<text text-anchor="middle" x="492.5" y="-117" font-family="Helvetica,sans-Serif" font-size="10.00">tuple</text>
</a>
</g>
</g>
<!-- Node12&#45;&gt;Node13 -->
<g id="edge20_Node000012_Node000013" class="edge">
<title>Node12&#45;&gt;Node13</title>
<g id="a_edge20_Node000012_Node000013"><a xlink:title=" ">
<path fill="none" stroke="#63b8ff" d="M481.65,-164.75C483.37,-157.72 485.85,-147.62 488,-138.84"/>
<polygon fill="#63b8ff" stroke="#63b8ff" points="491.41,-139.63 490.39,-129.09 484.61,-137.97 491.41,-139.63"/>
</a>
</g>
</g>
<!-- Node14 -->
<g id="Node000014" class="node">
<title>Node14</title>
<g id="a_Node000014"><a xlink:title=" ">
<polygon fill="#e0e0e0" stroke="#999999" points="591.5,-129 531.5,-129 531.5,-110 591.5,-110 591.5,-129"/>
<text text-anchor="middle" x="561.5" y="-117" font-family="Helvetica,sans-Serif" font-size="10.00">concepts</text>
</a>
</g>
</g>
<!-- Node12&#45;&gt;Node14 -->
<g id="edge21_Node000012_Node000014" class="edge">
<title>Node12&#45;&gt;Node14</title>
<g id="a_edge21_Node000012_Node000014"><a xlink:title=" ">
<path fill="none" stroke="#63b8ff" d="M492.67,-164.98C505.27,-156.84 524.5,-144.41 539.44,-134.76"/>
<polygon fill="#63b8ff" stroke="#63b8ff" points="541.59,-137.54 548.09,-129.17 537.79,-131.66 541.59,-137.54"/>
</a>
</g>
</g>
<!-- Node15 -->
<g id="Node000015" class="node">
<title>Node15</title>
<g id="a_Node000015"><a xlink:title=" ">
<polygon fill="#e0e0e0" stroke="#999999" points="659.5,-129 609.5,-129 609.5,-110 659.5,-110 659.5,-129"/>
<text text-anchor="middle" x="634.5" y="-117" font-family="Helvetica,sans-Serif" font-size="10.00">cstdint</text>
</a>
</g>
</g>
<!-- Node12&#45;&gt;Node15 -->
<g id="edge23_Node000012_Node000015" class="edge">
<title>Node12&#45;&gt;Node15</title>
<g id="a_edge23_Node000012_Node000015"><a xlink:title=" ">
<path fill="none" stroke="#63b8ff" d="M500.08,-166.46C525.46,-157.78 568.98,-142.9 599.62,-132.43"/>
<polygon fill="#63b8ff" stroke="#63b8ff" points="601.14,-135.61 609.47,-129.06 598.87,-128.98 601.14,-135.61"/>
</a>
</g>
</g>
<!-- Node16 -->
<g id="Node000016" class="node">
<title>Node16</title>
<g id="a_Node000016"><a xlink:title=" ">
<polygon fill="#e0e0e0" stroke="#999999" points="385,-129 328,-129 328,-110 385,-110 385,-129"/>
<text text-anchor="middle" x="356.5" y="-117" font-family="Helvetica,sans-Serif" font-size="10.00">ostream</text>
</a>
</g>
</g>
<!-- Node12&#45;&gt;Node16 -->
<g id="edge24_Node000012_Node000016" class="edge">
<title>Node12&#45;&gt;Node16</title>
<g id="a_edge24_Node000012_Node000016"><a xlink:title=" ">
<path fill="none" stroke="#63b8ff" d="M459.74,-164.98C439.77,-156.38 408.7,-142.99 385.85,-133.15"/>
<polygon fill="#63b8ff" stroke="#63b8ff" points="387.19,-129.91 376.62,-129.17 384.42,-136.34 387.19,-129.91"/>
</a>
</g>
</g>
<!-- Node17 -->
<g id="Node000017" class="node">
<title>Node17</title>
<g id="a_Node000017"><a xlink:title=" ">
<polygon fill="#e0e0e0" stroke="#999999" points="454,-129 403,-129 403,-110 454,-110 454,-129"/>
<text text-anchor="middle" x="428.5" y="-117" font-family="Helvetica,sans-Serif" font-size="10.00">variant</text>
</a>
</g>
</g>
<!-- Node12&#45;&gt;Node17 -->
<g id="edge25_Node000012_Node000017" class="edge">
<title>Node12&#45;&gt;Node17</title>
<g id="a_edge25_Node000012_Node000017"><a xlink:title=" ">
<path fill="none" stroke="#63b8ff" d="M471.08,-164.75C463.73,-157.11 452.87,-145.82 443.96,-136.56"/>
<polygon fill="#63b8ff" stroke="#63b8ff" points="446.22,-133.87 436.76,-129.09 441.18,-138.72 446.22,-133.87"/>
</a>
</g>
</g>
<!-- Node18 -->
<g id="Node000018" class="node">
<title>Node18</title>
<g id="a_Node000018"><a xlink:href="def__types_8h.html" target="_top" xlink:title=" ">
<polygon fill="white" stroke="#666666" points="271,-129 158,-129 158,-110 271,-110 271,-129"/>
<text text-anchor="middle" x="214.5" y="-117" font-family="Helvetica,sans-Serif" font-size="10.00">../c_wcf/def_types.h</text>
</a>
</g>
</g>
<!-- Node12&#45;&gt;Node18 -->
<g id="edge27_Node000012_Node000018" class="edge">
<title>Node12&#45;&gt;Node18</title>
<g id="a_edge27_Node000012_Node000018"><a xlink:title=" ">
<path fill="none" stroke="#63b8ff" d="M458.71,-169.34C417.76,-161.15 325.58,-142.72 266.91,-130.98"/>
<polygon fill="#63b8ff" stroke="#63b8ff" points="267.58,-127.55 257.09,-129.02 266.21,-134.41 267.58,-127.55"/>
</a>
</g>
</g>
<!-- Node18&#45;&gt;Node5 -->
<g id="edge28_Node000018_Node000005" class="edge">
<title>Node18&#45;&gt;Node5</title>
<g id="a_edge28_Node000018_Node000005"><a xlink:title=" ">
<path fill="none" stroke="#63b8ff" d="M271.06,-111.57C275.94,-111.02 280.81,-110.49 285.5,-110 463.78,-91.43 678.2,-74.08 756.75,-67.89"/>
<polygon fill="#63b8ff" stroke="#63b8ff" points="757.22,-71.37 766.92,-67.1 756.67,-64.39 757.22,-71.37"/>
</a>
</g>
</g>
<!-- Node19&#45;&gt;Node2 -->
<g id="edge35_Node000019_Node000002" class="edge">
<title>Node19&#45;&gt;Node2</title>
<g id="a_edge35_Node000019_Node000002"><a xlink:title=" ">
<path fill="none" stroke="#63b8ff" d="M734.1,-274.9C738.11,-262.32 746.49,-238.4 757.5,-220 776.71,-187.87 805.82,-155.25 823.7,-136.5"/>
<polygon fill="#63b8ff" stroke="#63b8ff" points="826.39,-138.75 830.82,-129.13 821.35,-133.88 826.39,-138.75"/>
</a>
</g>
</g>
<!-- Node19&#45;&gt;Node3 -->
<g id="edge36_Node000019_Node000003" class="edge">
<title>Node19&#45;&gt;Node3</title>
<g id="a_edge36_Node000019_Node000003"><a xlink:title=" ">
<path fill="none" stroke="#63b8ff" d="M695.41,-276C622.19,-260.55 451.11,-223.34 309.5,-184 251.43,-167.87 184.88,-145.77 145.62,-132.35"/>
<polygon fill="#63b8ff" stroke="#63b8ff" points="146.6,-128.98 136.01,-129.05 144.33,-135.6 146.6,-128.98"/>
</a>
</g>
</g>
<!-- Node19&#45;&gt;Node5 -->
<g id="edge31_Node000019_Node000005" class="edge">
<title>Node19&#45;&gt;Node5</title>
<g id="a_edge31_Node000019_Node000005"><a xlink:title=" ">
<path fill="none" stroke="#63b8ff" d="M767.74,-282.63C799.85,-279.73 845.15,-269.94 868.5,-239 903.06,-193.22 902.2,-159.07 872.5,-110 860.68,-90.46 837.14,-79.09 817.82,-72.74"/>
<polygon fill="#63b8ff" stroke="#63b8ff" points="818.78,-69.37 808.19,-69.86 816.77,-76.08 818.78,-69.37"/>
</a>
</g>
</g>
<!-- Node19&#45;&gt;Node7 -->
<g id="edge32_Node000019_Node000007" class="edge">
<title>Node19&#45;&gt;Node7</title>
<g id="a_edge32_Node000019_Node000007"><a xlink:title=" ">
<path fill="none" stroke="#63b8ff" d="M767.51,-276.13C813.29,-266.76 892.43,-250.57 943.07,-240.2"/>
<polygon fill="#63b8ff" stroke="#63b8ff" points="944.02,-243.58 953.12,-238.15 942.62,-236.73 944.02,-243.58"/>
</a>
</g>
</g>
<!-- Node19&#45;&gt;Node9 -->
<g id="edge34_Node000019_Node000009" class="edge">
<title>Node19&#45;&gt;Node9</title>
<g id="a_edge34_Node000019_Node000009"><a xlink:title=" ">
<path fill="none" stroke="#63b8ff" d="M711.9,-274.98C692.18,-266.42 661.55,-253.11 638.92,-243.28"/>
<polygon fill="#63b8ff" stroke="#63b8ff" points="640.02,-239.94 629.46,-239.17 637.24,-246.37 640.02,-239.94"/>
</a>
</g>
</g>
<!-- Node19&#45;&gt;Node11 -->
<g id="edge33_Node000019_Node000011" class="edge">
<title>Node19&#45;&gt;Node11</title>
<g id="a_edge33_Node000019_Node000011"><a xlink:title=" ">
<path fill="none" stroke="#63b8ff" d="M729.91,-274.98C728.26,-266.03 725.61,-251.54 723.5,-239 720.97,-224 718.3,-206.98 716.36,-194.33"/>
<polygon fill="#63b8ff" stroke="#63b8ff" points="719.77,-193.49 714.8,-184.14 712.85,-194.55 719.77,-193.49"/>
</a>
</g>
</g>
<!-- Node20 -->
<g id="Node000020" class="node">
<title>Node20</title>
<g id="a_Node000020"><a xlink:title=" ">
<polygon fill="#e0e0e0" stroke="#999999" points="859,-239 766,-239 766,-220 859,-220 859,-239"/>
<text text-anchor="middle" x="812.5" y="-227" font-family="Helvetica,sans-Serif" font-size="10.00">unordered_map</text>
</a>
</g>
</g>
<!-- Node19&#45;&gt;Node20 -->
<g id="edge37_Node000019_Node000020" class="edge">
<title>Node19&#45;&gt;Node20</title>
<g id="a_edge37_Node000019_Node000020"><a xlink:title=" ">
<path fill="none" stroke="#63b8ff" d="M744.51,-274.98C756.96,-266.84 775.96,-254.41 790.71,-244.76"/>
<polygon fill="#63b8ff" stroke="#63b8ff" points="792.8,-247.57 799.25,-239.17 788.96,-241.72 792.8,-247.57"/>
</a>
</g>
</g>
</g>
</svg>
