<?xml version="1.0" encoding="UTF-8" standalone="no"?>
<!DOCTYPE svg PUBLIC "-//W3C//DTD SVG 1.1//EN"
 "http://www.w3.org/Graphics/SVG/1.1/DTD/svg11.dtd">
<!-- Generated by graphviz version 2.43.0 (0)
 -->
<!-- Title: include/webcface/common/canvas3d.h Pages: 1 -->
<svg width="944pt" height="313pt"
 viewBox="0.00 0.00 944.00 313.00" xmlns="http://www.w3.org/2000/svg" xmlns:xlink="http://www.w3.org/1999/xlink">
<g id="graph0" class="graph" transform="scale(1 1) rotate(0) translate(4 309)">
<title>include/webcface/common/canvas3d.h</title>
<!-- Node1 -->
<g id="Node000001" class="node">
<title>Node1</title>
<g id="a_Node000001"><a xlink:title=" ">
<polygon fill="#999999" stroke="#666666" points="744,-305 597,-305 597,-275 744,-275 744,-305"/>
<text text-anchor="start" x="605" y="-293" font-family="Helvetica,sans-Serif" font-size="10.00">include/webcface/common</text>
<text text-anchor="middle" x="670.5" y="-282" font-family="Helvetica,sans-Serif" font-size="10.00">/canvas3d.h</text>
</a>
</g>
</g>
<!-- Node2 -->
<g id="Node000002" class="node">
<title>Node2</title>
<g id="a_Node000002"><a xlink:href="def_8h.html" target="_top" xlink:title=" ">
<polygon fill="white" stroke="#666666" points="285,-74 244,-74 244,-55 285,-55 285,-74"/>
<text text-anchor="middle" x="264.5" y="-62" font-family="Helvetica,sans-Serif" font-size="10.00">def.h</text>
</a>
</g>
</g>
<!-- Node1&#45;&gt;Node2 -->
<g id="edge1_Node000001_Node000002" class="edge">
<title>Node1&#45;&gt;Node2</title>
<g id="a_edge1_Node000001_Node000002"><a xlink:title=" ">
<path fill="none" stroke="#63b8ff" d="M733.18,-274.91C751.93,-267.45 770.43,-256.13 781.5,-239 800.51,-209.59 877.27,-215.12 775.5,-110 742.04,-75.43 400.94,-67.52 295.43,-65.89"/>
<polygon fill="#63b8ff" stroke="#63b8ff" points="295.19,-62.38 285.14,-65.74 295.08,-69.38 295.19,-62.38"/>
</a>
</g>
</g>
<!-- Node4 -->
<g id="Node000004" class="node">
<title>Node4</title>
<g id="a_Node000004"><a xlink:href="transform_8h.html" target="_top" xlink:title=" ">
<polygon fill="white" stroke="#666666" points="772.5,-239 698.5,-239 698.5,-220 772.5,-220 772.5,-239"/>
<text text-anchor="middle" x="735.5" y="-227" font-family="Helvetica,sans-Serif" font-size="10.00">transform.h</text>
</a>
</g>
</g>
<!-- Node1&#45;&gt;Node4 -->
<g id="edge3_Node000001_Node000004" class="edge">
<title>Node1&#45;&gt;Node4</title>
<g id="a_edge3_Node000001_Node000004"><a xlink:title=" ">
<path fill="none" stroke="#63b8ff" d="M686.23,-274.84C695.86,-266.17 708.19,-255.08 718.11,-246.15"/>
<polygon fill="#63b8ff" stroke="#63b8ff" points="720.67,-248.56 725.76,-239.27 715.99,-243.35 720.67,-248.56"/>
</a>
</g>
</g>
<!-- Node6 -->
<g id="Node000006" class="node">
<title>Node6</title>
<g id="a_Node000006"><a xlink:href="field__base_8h.html" target="_top" xlink:title=" ">
<polygon fill="white" stroke="#666666" points="75,-184 0,-184 0,-165 75,-165 75,-184"/>
<text text-anchor="middle" x="37.5" y="-172" font-family="Helvetica,sans-Serif" font-size="10.00">field_base.h</text>
</a>
</g>
</g>
<!-- Node1&#45;&gt;Node6 -->
<g id="edge6_Node000001_Node000006" class="edge">
<title>Node1&#45;&gt;Node6</title>
<g id="a_edge6_Node000001_Node000006"><a xlink:title=" ">
<path fill="none" stroke="#63b8ff" d="M596.96,-275.81C465.82,-252.3 195.1,-203.76 85.32,-184.07"/>
<polygon fill="#63b8ff" stroke="#63b8ff" points="85.67,-180.58 75.2,-182.26 84.43,-187.47 85.67,-180.58"/>
</a>
</g>
</g>
<!-- Node8 -->
<g id="Node000008" class="node">
<title>Node8</title>
<g id="a_Node000008"><a xlink:href="common_2view_8h.html" target="_top" xlink:title=" ">
<polygon fill="white" stroke="#666666" points="449.5,-239 401.5,-239 401.5,-220 449.5,-220 449.5,-239"/>
<text text-anchor="middle" x="425.5" y="-227" font-family="Helvetica,sans-Serif" font-size="10.00">view.h</text>
</a>
</g>
</g>
<!-- Node1&#45;&gt;Node8 -->
<g id="edge9_Node000001_Node000008" class="edge">
<title>Node1&#45;&gt;Node8</title>
<g id="a_edge9_Node000001_Node000008"><a xlink:title=" ">
<path fill="none" stroke="#63b8ff" d="M611.82,-274.99C564.25,-263.63 498.88,-248.02 459.56,-238.63"/>
<polygon fill="#63b8ff" stroke="#63b8ff" points="460.21,-235.19 449.67,-236.27 458.58,-242 460.21,-235.19"/>
</a>
</g>
</g>
<!-- Node9 -->
<g id="Node000009" class="node">
<title>Node9</title>
<g id="a_Node000009"><a xlink:title=" ">
<polygon fill="#e0e0e0" stroke="#999999" points="623.5,-184 567.5,-184 567.5,-165 623.5,-165 623.5,-184"/>
<text text-anchor="middle" x="595.5" y="-172" font-family="Helvetica,sans-Serif" font-size="10.00">optional</text>
</a>
</g>
</g>
<!-- Node1&#45;&gt;Node9 -->
<g id="edge27_Node000001_Node000009" class="edge">
<title>Node1&#45;&gt;Node9</title>
<g id="a_edge27_Node000001_Node000009"><a xlink:title=" ">
<path fill="none" stroke="#63b8ff" d="M661,-274.63C647.21,-253.75 621.66,-215.09 606.88,-192.72"/>
<polygon fill="#63b8ff" stroke="#63b8ff" points="609.7,-190.64 601.27,-184.23 603.86,-194.5 609.7,-190.64"/>
</a>
</g>
</g>
<!-- Node10 -->
<g id="Node000010" class="node">
<title>Node10</title>
<g id="a_Node000010"><a xlink:title=" ">
<polygon fill="#e0e0e0" stroke="#999999" points="748,-129 701,-129 701,-110 748,-110 748,-129"/>
<text text-anchor="middle" x="724.5" y="-117" font-family="Helvetica,sans-Serif" font-size="10.00">vector</text>
</a>
</g>
</g>
<!-- Node1&#45;&gt;Node10 -->
<g id="edge26_Node000001_Node000010" class="edge">
<title>Node1&#45;&gt;Node10</title>
<g id="a_edge26_Node000001_Node000010"><a xlink:title=" ">
<path fill="none" stroke="#63b8ff" d="M672.04,-274.79C674.94,-251.27 682.3,-203.06 697.5,-165 701.31,-155.47 707.05,-145.64 712.26,-137.65"/>
<polygon fill="#63b8ff" stroke="#63b8ff" points="715.25,-139.48 717.99,-129.24 709.46,-135.53 715.25,-139.48"/>
</a>
</g>
</g>
<!-- Node18 -->
<g id="Node000018" class="node">
<title>Node18</title>
<g id="a_Node000018"><a xlink:title=" ">
<polygon fill="#e0e0e0" stroke="#999999" points="936,-239 843,-239 843,-220 936,-220 936,-239"/>
<text text-anchor="middle" x="889.5" y="-227" font-family="Helvetica,sans-Serif" font-size="10.00">unordered_map</text>
</a>
</g>
</g>
<!-- Node1&#45;&gt;Node18 -->
<g id="edge28_Node000001_Node000018" class="edge">
<title>Node1&#45;&gt;Node18</title>
<g id="a_edge28_Node000001_Node000018"><a xlink:title=" ">
<path fill="none" stroke="#63b8ff" d="M722.96,-274.99C761.08,-264.8 812,-251.2 847.46,-241.73"/>
<polygon fill="#63b8ff" stroke="#63b8ff" points="848.72,-245.02 857.48,-239.05 846.91,-238.25 848.72,-245.02"/>
</a>
</g>
</g>
<!-- Node3 -->
<g id="Node000003" class="node">
<title>Node3</title>
<g id="a_Node000003"><a xlink:href="macros_8h.html" target="_top" xlink:title=" ">
<polygon fill="white" stroke="#666666" points="295.5,-19 233.5,-19 233.5,0 295.5,0 295.5,-19"/>
<text text-anchor="middle" x="264.5" y="-7" font-family="Helvetica,sans-Serif" font-size="10.00">macros.h</text>
</a>
</g>
</g>
<!-- Node2&#45;&gt;Node3 -->
<g id="edge2_Node000002_Node000003" class="edge">
<title>Node2&#45;&gt;Node3</title>
<g id="a_edge2_Node000002_Node000003"><a xlink:title=" ">
<path fill="none" stroke="#63b8ff" d="M264.5,-54.75C264.5,-47.8 264.5,-37.85 264.5,-29.13"/>
<polygon fill="#63b8ff" stroke="#63b8ff" points="268,-29.09 264.5,-19.09 261,-29.09 268,-29.09"/>
</a>
</g>
</g>
<!-- Node4&#45;&gt;Node2 -->
<g id="edge4_Node000004_Node000002" class="edge">
<title>Node4&#45;&gt;Node2</title>
<g id="a_edge4_Node000004_Node000002"><a xlink:title=" ">
<path fill="none" stroke="#63b8ff" d="M741.42,-219.72C755.23,-198.05 786.29,-141.51 757.5,-110 726.25,-75.8 397.9,-67.64 295.1,-65.92"/>
<polygon fill="#63b8ff" stroke="#63b8ff" points="295.11,-62.42 285.05,-65.76 295,-69.42 295.11,-62.42"/>
</a>
</g>
</g>
<!-- Node5 -->
<g id="Node000005" class="node">
<title>Node5</title>
<g id="a_Node000005"><a xlink:title=" ">
<polygon fill="#e0e0e0" stroke="#999999" points="748.5,-184 706.5,-184 706.5,-165 748.5,-165 748.5,-184"/>
<text text-anchor="middle" x="727.5" y="-172" font-family="Helvetica,sans-Serif" font-size="10.00">array</text>
</a>
</g>
</g>
<!-- Node4&#45;&gt;Node5 -->
<g id="edge5_Node000004_Node000005" class="edge">
<title>Node4&#45;&gt;Node5</title>
<g id="a_edge5_Node000004_Node000005"><a xlink:title=" ">
<path fill="none" stroke="#63b8ff" d="M734.18,-219.75C733.13,-212.8 731.63,-202.85 730.31,-194.13"/>
<polygon fill="#63b8ff" stroke="#63b8ff" points="733.75,-193.45 728.8,-184.09 726.83,-194.5 733.75,-193.45"/>
</a>
</g>
</g>
<!-- Node6&#45;&gt;Node2 -->
<g id="edge8_Node000006_Node000002" class="edge">
<title>Node6&#45;&gt;Node2</title>
<g id="a_edge8_Node000006_Node000002"><a xlink:title=" ">
<path fill="none" stroke="#63b8ff" d="M38.23,-164.62C39.87,-150.78 45.09,-124.18 61.5,-110 87.05,-87.92 183.77,-74.34 233.92,-68.63"/>
<polygon fill="#63b8ff" stroke="#63b8ff" points="234.32,-72.11 243.87,-67.53 233.55,-65.15 234.32,-72.11"/>
</a>
</g>
</g>
<!-- Node7 -->
<g id="Node000007" class="node">
<title>Node7</title>
<g id="a_Node000007"><a xlink:title=" ">
<polygon fill="#e0e0e0" stroke="#999999" points="147.5,-129 103.5,-129 103.5,-110 147.5,-110 147.5,-129"/>
<text text-anchor="middle" x="125.5" y="-117" font-family="Helvetica,sans-Serif" font-size="10.00">string</text>
</a>
</g>
</g>
<!-- Node6&#45;&gt;Node7 -->
<g id="edge7_Node000006_Node000007" class="edge">
<title>Node6&#45;&gt;Node7</title>
<g id="a_edge7_Node000006_Node000007"><a xlink:title=" ">
<path fill="none" stroke="#63b8ff" d="M51.64,-164.98C65.29,-156.77 86.19,-144.18 102.28,-134.49"/>
<polygon fill="#63b8ff" stroke="#63b8ff" points="104.34,-137.33 111.1,-129.17 100.73,-131.33 104.34,-137.33"/>
</a>
</g>
</g>
<!-- Node8&#45;&gt;Node2 -->
<g id="edge14_Node000008_Node000002" class="edge">
<title>Node8&#45;&gt;Node2</title>
<g id="a_edge14_Node000008_Node000002"><a xlink:title=" ">
<path fill="none" stroke="#63b8ff" d="M401.32,-225.06C331.32,-214.56 131.14,-180.44 94.5,-129 58.97,-79.11 175.43,-68.37 233.54,-66.1"/>
<polygon fill="#63b8ff" stroke="#63b8ff" points="233.78,-69.59 243.66,-65.76 233.55,-62.59 233.78,-69.59"/>
</a>
</g>
</g>
<!-- Node8&#45;&gt;Node6 -->
<g id="edge13_Node000008_Node000006" class="edge">
<title>Node8&#45;&gt;Node6</title>
<g id="a_edge13_Node000008_Node000006"><a xlink:title=" ">
<path fill="none" stroke="#63b8ff" d="M401.43,-225.57C346.21,-218.78 206.21,-201.26 89.5,-184 88.2,-183.81 86.89,-183.61 85.56,-183.41"/>
<polygon fill="#63b8ff" stroke="#63b8ff" points="85.67,-179.89 75.25,-181.81 84.6,-186.8 85.67,-179.89"/>
</a>
</g>
</g>
<!-- Node8&#45;&gt;Node7 -->
<g id="edge10_Node000008_Node000007" class="edge">
<title>Node8&#45;&gt;Node7</title>
<g id="a_edge10_Node000008_Node000007"><a xlink:title=" ">
<path fill="none" stroke="#63b8ff" d="M401.71,-219.94C348.13,-200.65 217.96,-153.79 157.43,-132"/>
<polygon fill="#63b8ff" stroke="#63b8ff" points="158.25,-128.57 147.66,-128.48 155.88,-135.16 158.25,-128.57"/>
</a>
</g>
</g>
<!-- Node8&#45;&gt;Node9 -->
<g id="edge11_Node000008_Node000009" class="edge">
<title>Node8&#45;&gt;Node9</title>
<g id="a_edge11_Node000008_Node000009"><a xlink:title=" ">
<path fill="none" stroke="#63b8ff" d="M449.86,-220.91C478.23,-212.06 525.41,-197.35 558.36,-187.08"/>
<polygon fill="#63b8ff" stroke="#63b8ff" points="559.59,-190.36 568.09,-184.05 557.5,-183.68 559.59,-190.36"/>
</a>
</g>
</g>
<!-- Node8&#45;&gt;Node10 -->
<g id="edge12_Node000008_Node000010" class="edge">
<title>Node8&#45;&gt;Node10</title>
<g id="a_edge12_Node000008_Node000010"><a xlink:title=" ">
<path fill="none" stroke="#63b8ff" d="M441.06,-219.91C465.49,-206.7 514.57,-181.22 558.5,-165 561.67,-163.83 643.52,-142.02 691.08,-129.38"/>
<polygon fill="#63b8ff" stroke="#63b8ff" points="692.19,-132.7 700.95,-126.75 690.39,-125.94 692.19,-132.7"/>
</a>
</g>
</g>
<!-- Node11 -->
<g id="Node000011" class="node">
<title>Node11</title>
<g id="a_Node000011"><a xlink:href="val_8h.html" target="_top" xlink:title=" ">
<polygon fill="white" stroke="#666666" points="446,-184 405,-184 405,-165 446,-165 446,-184"/>
<text text-anchor="middle" x="425.5" y="-172" font-family="Helvetica,sans-Serif" font-size="10.00">val.h</text>
</a>
</g>
</g>
<!-- Node8&#45;&gt;Node11 -->
<g id="edge15_Node000008_Node000011" class="edge">
<title>Node8&#45;&gt;Node11</title>
<g id="a_edge15_Node000008_Node000011"><a xlink:title=" ">
<path fill="none" stroke="#63b8ff" d="M425.5,-219.75C425.5,-212.8 425.5,-202.85 425.5,-194.13"/>
<polygon fill="#63b8ff" stroke="#63b8ff" points="429,-194.09 425.5,-184.09 422,-194.09 429,-194.09"/>
</a>
</g>
</g>
<!-- Node11&#45;&gt;Node2 -->
<g id="edge25_Node000011_Node000002" class="edge">
<title>Node11&#45;&gt;Node2</title>
<g id="a_edge25_Node000011_Node000002"><a xlink:title=" ">
<path fill="none" stroke="#63b8ff" d="M404.85,-166.62C384.19,-159.19 352.04,-146.07 327.5,-129 308.29,-115.63 289.86,-96 277.95,-82.1"/>
<polygon fill="#63b8ff" stroke="#63b8ff" points="280.53,-79.73 271.43,-74.3 275.16,-84.22 280.53,-79.73"/>
</a>
</g>
</g>
<!-- Node11&#45;&gt;Node7 -->
<g id="edge16_Node000011_Node000007" class="edge">
<title>Node11&#45;&gt;Node7</title>
<g id="a_edge16_Node000011_Node000007"><a xlink:title=" ">
<path fill="none" stroke="#63b8ff" d="M404.77,-170.82C360.97,-164.99 255.59,-150.15 157.83,-129.1"/>
<polygon fill="#63b8ff" stroke="#63b8ff" points="158.3,-125.62 147.78,-126.91 156.81,-132.46 158.3,-125.62"/>
</a>
</g>
</g>
<!-- Node11&#45;&gt;Node10 -->
<g id="edge17_Node000011_Node000010" class="edge">
<title>Node11&#45;&gt;Node10</title>
<g id="a_edge17_Node000011_Node000010"><a xlink:title=" ">
<path fill="none" stroke="#63b8ff" d="M446.06,-170.75C489.52,-164.79 594.06,-149.71 690.85,-129.2"/>
<polygon fill="#63b8ff" stroke="#63b8ff" points="691.75,-132.58 700.79,-127.06 690.28,-125.74 691.75,-132.58"/>
</a>
</g>
</g>
<!-- Node12 -->
<g id="Node000012" class="node">
<title>Node12</title>
<g id="a_Node000012"><a xlink:title=" ">
<polygon fill="#e0e0e0" stroke="#999999" points="377,-129 336,-129 336,-110 377,-110 377,-129"/>
<text text-anchor="middle" x="356.5" y="-117" font-family="Helvetica,sans-Serif" font-size="10.00">tuple</text>
</a>
</g>
</g>
<!-- Node11&#45;&gt;Node12 -->
<g id="edge18_Node000011_Node000012" class="edge">
<title>Node11&#45;&gt;Node12</title>
<g id="a_edge18_Node000011_Node000012"><a xlink:title=" ">
<path fill="none" stroke="#63b8ff" d="M414.41,-164.98C404.01,-157 388.24,-144.88 375.78,-135.31"/>
<polygon fill="#63b8ff" stroke="#63b8ff" points="377.85,-132.49 367.79,-129.17 373.59,-138.04 377.85,-132.49"/>
</a>
</g>
</g>
<!-- Node13 -->
<g id="Node000013" class="node">
<title>Node13</title>
<g id="a_Node000013"><a xlink:title=" ">
<polygon fill="#e0e0e0" stroke="#999999" points="455.5,-129 395.5,-129 395.5,-110 455.5,-110 455.5,-129"/>
<text text-anchor="middle" x="425.5" y="-117" font-family="Helvetica,sans-Serif" font-size="10.00">concepts</text>
</a>
</g>
</g>
<!-- Node11&#45;&gt;Node13 -->
<g id="edge19_Node000011_Node000013" class="edge">
<title>Node11&#45;&gt;Node13</title>
<g id="a_edge19_Node000011_Node000013"><a xlink:title=" ">
<path fill="none" stroke="#63b8ff" d="M425.5,-164.75C425.5,-157.8 425.5,-147.85 425.5,-139.13"/>
<polygon fill="#63b8ff" stroke="#63b8ff" points="429,-139.09 425.5,-129.09 422,-139.09 429,-139.09"/>
</a>
</g>
</g>
<!-- Node14 -->
<g id="Node000014" class="node">
<title>Node14</title>
<g id="a_Node000014"><a xlink:title=" ">
<polygon fill="#e0e0e0" stroke="#999999" points="539,-129 474,-129 474,-110 539,-110 539,-129"/>
<text text-anchor="middle" x="506.5" y="-117" font-family="Helvetica,sans-Serif" font-size="10.00">stdexcept</text>
</a>
</g>
</g>
<!-- Node11&#45;&gt;Node14 -->
<g id="edge20_Node000011_Node000014" class="edge">
<title>Node11&#45;&gt;Node14</title>
<g id="a_edge20_Node000011_Node000014"><a xlink:title=" ">
<path fill="none" stroke="#63b8ff" d="M438.51,-164.98C450.96,-156.84 469.96,-144.41 484.71,-134.76"/>
<polygon fill="#63b8ff" stroke="#63b8ff" points="486.8,-137.57 493.25,-129.17 482.96,-131.72 486.8,-137.57"/>
</a>
</g>
</g>
<!-- Node15 -->
<g id="Node000015" class="node">
<title>Node15</title>
<g id="a_Node000015"><a xlink:title=" ">
<polygon fill="#e0e0e0" stroke="#999999" points="607.5,-129 557.5,-129 557.5,-110 607.5,-110 607.5,-129"/>
<text text-anchor="middle" x="582.5" y="-117" font-family="Helvetica,sans-Serif" font-size="10.00">cstdint</text>
</a>
</g>
</g>
<!-- Node11&#45;&gt;Node15 -->
<g id="edge21_Node000011_Node000015" class="edge">
<title>Node11&#45;&gt;Node15</title>
<g id="a_edge21_Node000011_Node000015"><a xlink:title=" ">
<path fill="none" stroke="#63b8ff" d="M446.03,-166.57C471.83,-157.86 516.5,-142.78 547.69,-132.25"/>
<polygon fill="#63b8ff" stroke="#63b8ff" points="548.94,-135.52 557.3,-129.01 546.7,-128.89 548.94,-135.52"/>
</a>
</g>
</g>
<!-- Node16 -->
<g id="Node000016" class="node">
<title>Node16</title>
<g id="a_Node000016"><a xlink:title=" ">
<polygon fill="#e0e0e0" stroke="#999999" points="683,-129 626,-129 626,-110 683,-110 683,-129"/>
<text text-anchor="middle" x="654.5" y="-117" font-family="Helvetica,sans-Serif" font-size="10.00">ostream</text>
</a>
</g>
</g>
<!-- Node11&#45;&gt;Node16 -->
<g id="edge22_Node000011_Node000016" class="edge">
<title>Node11&#45;&gt;Node16</title>
<g id="a_edge22_Node000011_Node000016"><a xlink:title=" ">
<path fill="none" stroke="#63b8ff" d="M446.23,-168.7C484.57,-159.83 567.1,-140.73 615.97,-129.42"/>
<polygon fill="#63b8ff" stroke="#63b8ff" points="616.91,-132.79 625.86,-127.13 615.33,-125.97 616.91,-132.79"/>
</a>
</g>
</g>
<!-- Node17 -->
<g id="Node000017" class="node">
<title>Node17</title>
<g id="a_Node000017"><a xlink:href="def__types_8h.html" target="_top" xlink:title=" ">
<polygon fill="white" stroke="#666666" points="279,-129 166,-129 166,-110 279,-110 279,-129"/>
<text text-anchor="middle" x="222.5" y="-117" font-family="Helvetica,sans-Serif" font-size="10.00">../c_wcf/def_types.h</text>
</a>
</g>
</g>
<!-- Node11&#45;&gt;Node17 -->
<g id="edge23_Node000011_Node000017" class="edge">
<title>Node11&#45;&gt;Node17</title>
<g id="a_edge23_Node000011_Node000017"><a xlink:title=" ">
<path fill="none" stroke="#63b8ff" d="M404.92,-168.13C372.26,-159.6 307.88,-142.79 265,-131.6"/>
<polygon fill="#63b8ff" stroke="#63b8ff" points="265.69,-128.16 255.13,-129.02 263.93,-134.93 265.69,-128.16"/>
</a>
</g>
</g>
<!-- Node17&#45;&gt;Node2 -->
<g id="edge24_Node000017_Node000002" class="edge">
<title>Node17&#45;&gt;Node2</title>
<g id="a_edge24_Node000017_Node000002"><a xlink:title=" ">
<path fill="none" stroke="#63b8ff" d="M229.44,-109.75C235.37,-102.26 244.07,-91.28 251.32,-82.13"/>
<polygon fill="#63b8ff" stroke="#63b8ff" points="254.23,-84.1 257.69,-74.09 248.74,-79.75 254.23,-84.1"/>
</a>
</g>
</g>
</g>
</svg>
