<?xml version="1.0" encoding="UTF-8" standalone="no"?>
<!DOCTYPE svg PUBLIC "-//W3C//DTD SVG 1.1//EN"
 "http://www.w3.org/Graphics/SVG/1.1/DTD/svg11.dtd">
<!-- Generated by graphviz version 2.43.0 (0)
 -->
<!-- Title: client/include/webcface/component_canvas3d.h Pages: 1 -->
<svg width="1366pt" height="335pt"
 viewBox="0.00 0.00 1366.00 335.00" xmlns="http://www.w3.org/2000/svg" xmlns:xlink="http://www.w3.org/1999/xlink">
<g id="graph0" class="graph" transform="scale(1 1) rotate(0) translate(4 331)">
<title>client/include/webcface/component_canvas3d.h</title>
<!-- Node1 -->
<g id="Node000001" class="node">
<title>Node1</title>
<g id="a_Node000001"><a xlink:title=" ">
<polygon fill="#999999" stroke="#666666" points="967.5,-327 832.5,-327 832.5,-297 967.5,-297 967.5,-327"/>
<text text-anchor="start" x="840.5" y="-315" font-family="Helvetica,sans-Serif" font-size="10.00">client/include/webcface</text>
<text text-anchor="middle" x="900" y="-304" font-family="Helvetica,sans-Serif" font-size="10.00">/component_canvas3d.h</text>
</a>
</g>
</g>
<!-- Node2 -->
<g id="Node000002" class="node">
<title>Node2</title>
<g id="a_Node000002"><a xlink:title=" ">
<polygon fill="#e0e0e0" stroke="#999999" points="509.5,-195 416.5,-195 416.5,-176 509.5,-176 509.5,-195"/>
<text text-anchor="middle" x="463" y="-183" font-family="Helvetica,sans-Serif" font-size="10.00">unordered_map</text>
</a>
</g>
</g>
<!-- Node1&#45;&gt;Node2 -->
<g id="edge1_Node000001_Node000002" class="edge">
<title>Node1&#45;&gt;Node2</title>
<g id="a_edge1_Node000001_Node000002"><a xlink:title=" ">
<path fill="none" stroke="#63b8ff" d="M832.29,-298.6C786.4,-289.62 724.59,-276.38 671,-261 606.76,-242.57 533.61,-214.71 493.44,-198.8"/>
<polygon fill="#63b8ff" stroke="#63b8ff" points="494.55,-195.48 483.97,-195.03 491.96,-201.98 494.55,-195.48"/>
</a>
</g>
</g>
<!-- Node3 -->
<g id="Node000003" class="node">
<title>Node3</title>
<g id="a_Node000003"><a xlink:href="component__view_8h.html" target="_top" xlink:title=" ">
<polygon fill="white" stroke="#666666" points="801.5,-261 680.5,-261 680.5,-231 801.5,-231 801.5,-261"/>
<text text-anchor="start" x="688.5" y="-249" font-family="Helvetica,sans-Serif" font-size="10.00">webcface/component</text>
<text text-anchor="middle" x="741" y="-238" font-family="Helvetica,sans-Serif" font-size="10.00">_view.h</text>
</a>
</g>
</g>
<!-- Node1&#45;&gt;Node3 -->
<g id="edge2_Node000001_Node000003" class="edge">
<title>Node1&#45;&gt;Node3</title>
<g id="a_edge2_Node000001_Node000003"><a xlink:title=" ">
<path fill="none" stroke="#63b8ff" d="M865.11,-296.95C841.6,-287.49 810.4,-274.93 785.16,-264.78"/>
<polygon fill="#63b8ff" stroke="#63b8ff" points="786.4,-261.5 775.81,-261.01 783.78,-267.99 786.4,-261.5"/>
</a>
</g>
</g>
<!-- Node7 -->
<g id="Node000007" class="node">
<title>Node7</title>
<g id="a_Node000007"><a xlink:href="webcface-config_8h.html" target="_top" xlink:title=" ">
<polygon fill="white" stroke="#666666" points="848.5,-19 743.5,-19 743.5,0 848.5,0 848.5,-19"/>
<text text-anchor="middle" x="796" y="-7" font-family="Helvetica,sans-Serif" font-size="10.00">webcface&#45;config.h</text>
</a>
</g>
</g>
<!-- Node1&#45;&gt;Node7 -->
<g id="edge58_Node000001_Node000007" class="edge">
<title>Node1&#45;&gt;Node7</title>
<g id="a_edge58_Node000001_Node000007"><a xlink:title=" ">
<path fill="none" stroke="#63b8ff" d="M900,-296.81C900,-273.7 900,-226.49 900,-186.5 900,-186.5 900,-186.5 900,-124 900,-92.07 900.15,-79.77 880,-55 868.07,-40.34 850.01,-29.89 833.68,-22.82"/>
<polygon fill="#63b8ff" stroke="#63b8ff" points="834.91,-19.54 824.33,-19.04 832.29,-26.03 834.91,-19.54"/>
</a>
</g>
</g>
<!-- Node22 -->
<g id="Node000022" class="node">
<title>Node22</title>
<g id="a_Node000022"><a xlink:href="geometry_8h.html" target="_top" xlink:title=" ">
<polygon fill="white" stroke="#666666" points="1049.5,-134.5 928.5,-134.5 928.5,-115.5 1049.5,-115.5 1049.5,-134.5"/>
<text text-anchor="middle" x="989" y="-122.5" font-family="Helvetica,sans-Serif" font-size="10.00">webcface/geometry.h</text>
</a>
</g>
</g>
<!-- Node1&#45;&gt;Node22 -->
<g id="edge39_Node000001_Node000022" class="edge">
<title>Node1&#45;&gt;Node22</title>
<g id="a_edge39_Node000001_Node000022"><a xlink:title=" ">
<path fill="none" stroke="#63b8ff" d="M906.84,-296.79C922.84,-263.52 962.72,-180.63 980.37,-143.95"/>
<polygon fill="#63b8ff" stroke="#63b8ff" points="983.72,-145.06 984.9,-134.53 977.41,-142.02 983.72,-145.06"/>
</a>
</g>
</g>
<!-- Node24 -->
<g id="Node000024" class="node">
<title>Node24</title>
<g id="a_Node000024"><a xlink:href="transform_8h.html" target="_top" xlink:title=" ">
<polygon fill="white" stroke="#666666" points="1195.5,-195 1072.5,-195 1072.5,-176 1195.5,-176 1195.5,-195"/>
<text text-anchor="middle" x="1134" y="-183" font-family="Helvetica,sans-Serif" font-size="10.00">webcface/transform.h</text>
</a>
</g>
</g>
<!-- Node1&#45;&gt;Node24 -->
<g id="edge43_Node000001_Node000024" class="edge">
<title>Node1&#45;&gt;Node24</title>
<g id="a_edge43_Node000001_Node000024"><a xlink:title=" ">
<path fill="none" stroke="#63b8ff" d="M926.39,-296.96C971.82,-272.79 1064.22,-223.63 1108.81,-199.9"/>
<polygon fill="#63b8ff" stroke="#63b8ff" points="1110.63,-202.9 1117.82,-195.11 1107.35,-196.72 1110.63,-202.9"/>
</a>
</g>
</g>
<!-- Node3&#45;&gt;Node2 -->
<g id="edge5_Node000003_Node000002" class="edge">
<title>Node3&#45;&gt;Node2</title>
<g id="a_edge5_Node000003_Node000002"><a xlink:title=" ">
<path fill="none" stroke="#63b8ff" d="M680.34,-232.23C630.47,-221.74 560.64,-207.05 513.72,-197.17"/>
<polygon fill="#63b8ff" stroke="#63b8ff" points="514.28,-193.71 503.77,-195.08 512.84,-200.56 514.28,-193.71"/>
</a>
</g>
</g>
<!-- Node4 -->
<g id="Node000004" class="node">
<title>Node4</title>
<g id="a_Node000004"><a xlink:title=" ">
<polygon fill="#e0e0e0" stroke="#999999" points="721.5,-134.5 656.5,-134.5 656.5,-115.5 721.5,-115.5 721.5,-134.5"/>
<text text-anchor="middle" x="689" y="-122.5" font-family="Helvetica,sans-Serif" font-size="10.00">functional</text>
</a>
</g>
</g>
<!-- Node3&#45;&gt;Node4 -->
<g id="edge3_Node000003_Node000004" class="edge">
<title>Node3&#45;&gt;Node4</title>
<g id="a_edge3_Node000003_Node000004"><a xlink:title=" ">
<path fill="none" stroke="#63b8ff" d="M734.83,-230.88C725.36,-209.22 707.26,-167.78 696.86,-143.99"/>
<polygon fill="#63b8ff" stroke="#63b8ff" points="700.02,-142.47 692.81,-134.71 693.6,-145.28 700.02,-142.47"/>
</a>
</g>
</g>
<!-- Node5 -->
<g id="Node000005" class="node">
<title>Node5</title>
<g id="a_Node000005"><a xlink:title=" ">
<polygon fill="#e0e0e0" stroke="#999999" points="796,-134.5 740,-134.5 740,-115.5 796,-115.5 796,-134.5"/>
<text text-anchor="middle" x="768" y="-122.5" font-family="Helvetica,sans-Serif" font-size="10.00">optional</text>
</a>
</g>
</g>
<!-- Node3&#45;&gt;Node5 -->
<g id="edge4_Node000003_Node000005" class="edge">
<title>Node3&#45;&gt;Node5</title>
<g id="a_edge4_Node000003_Node000005"><a xlink:title=" ">
<path fill="none" stroke="#63b8ff" d="M744.2,-230.88C749.08,-209.41 758.35,-168.52 763.77,-144.64"/>
<polygon fill="#63b8ff" stroke="#63b8ff" points="767.22,-145.24 766.02,-134.71 760.4,-143.69 767.22,-145.24"/>
</a>
</g>
</g>
<!-- Node6 -->
<g id="Node000006" class="node">
<title>Node6</title>
<g id="a_Node000006"><a xlink:title=" ">
<polygon fill="#e0e0e0" stroke="#999999" points="871.5,-74 824.5,-74 824.5,-55 871.5,-55 871.5,-74"/>
<text text-anchor="middle" x="848" y="-62" font-family="Helvetica,sans-Serif" font-size="10.00">vector</text>
</a>
</g>
</g>
<!-- Node3&#45;&gt;Node6 -->
<g id="edge6_Node000003_Node000006" class="edge">
<title>Node3&#45;&gt;Node6</title>
<g id="a_edge6_Node000003_Node000006"><a xlink:title=" ">
<path fill="none" stroke="#63b8ff" d="M790.19,-230.96C808.18,-223.29 826.84,-211.81 838,-195 860.37,-161.3 856.3,-111.25 851.86,-84.3"/>
<polygon fill="#63b8ff" stroke="#63b8ff" points="855.27,-83.48 850.01,-74.29 848.38,-84.75 855.27,-83.48"/>
</a>
</g>
</g>
<!-- Node3&#45;&gt;Node7 -->
<g id="edge7_Node000003_Node000007" class="edge">
<title>Node3&#45;&gt;Node7</title>
<g id="a_edge7_Node000003_Node000007"><a xlink:title=" ">
<path fill="none" stroke="#63b8ff" d="M753.13,-230.92C768.7,-211.83 794.9,-175.97 805,-140 815.77,-101.63 807.37,-54.48 801.14,-28.99"/>
<polygon fill="#63b8ff" stroke="#63b8ff" points="804.5,-27.98 798.59,-19.19 797.72,-29.75 804.5,-27.98"/>
</a>
</g>
</g>
<!-- Node8 -->
<g id="Node000008" class="node">
<title>Node8</title>
<g id="a_Node000008"><a xlink:href="common_2val__adaptor_8h.html" target="_top" xlink:title=" ">
<polygon fill="white" stroke="#666666" points="638.5,-140 511.5,-140 511.5,-110 638.5,-110 638.5,-140"/>
<text text-anchor="start" x="519.5" y="-128" font-family="Helvetica,sans-Serif" font-size="10.00">webcface/common/val</text>
<text text-anchor="middle" x="575" y="-117" font-family="Helvetica,sans-Serif" font-size="10.00">_adaptor.h</text>
</a>
</g>
</g>
<!-- Node3&#45;&gt;Node8 -->
<g id="edge8_Node000003_Node000008" class="edge">
<title>Node3&#45;&gt;Node8</title>
<g id="a_edge8_Node000003_Node000008"><a xlink:title=" ">
<path fill="none" stroke="#63b8ff" d="M721.31,-230.88C691.98,-209.86 636.69,-170.22 603.12,-146.15"/>
<polygon fill="#63b8ff" stroke="#63b8ff" points="604.84,-143.08 594.67,-140.1 600.76,-148.77 604.84,-143.08"/>
</a>
</g>
</g>
<!-- Node17 -->
<g id="Node000017" class="node">
<title>Node17</title>
<g id="a_Node000017"><a xlink:href="client_2include_2webcface_2text_8h.html" target="_top" xlink:title=" ">
<polygon fill="white" stroke="#666666" points="622.5,-195 527.5,-195 527.5,-176 622.5,-176 622.5,-195"/>
<text text-anchor="middle" x="575" y="-183" font-family="Helvetica,sans-Serif" font-size="10.00">webcface/text.h</text>
</a>
</g>
</g>
<!-- Node3&#45;&gt;Node17 -->
<g id="edge21_Node000003_Node000017" class="edge">
<title>Node3&#45;&gt;Node17</title>
<g id="a_edge21_Node000003_Node000017"><a xlink:title=" ">
<path fill="none" stroke="#63b8ff" d="M701.24,-230.99C673.17,-221.1 635.95,-207.98 609.21,-198.56"/>
<polygon fill="#63b8ff" stroke="#63b8ff" points="610.11,-195.16 599.51,-195.14 607.78,-201.76 610.11,-195.16"/>
</a>
</g>
</g>
<!-- Node8&#45;&gt;Node6 -->
<g id="edge10_Node000008_Node000006" class="edge">
<title>Node8&#45;&gt;Node6</title>
<g id="a_edge10_Node000008_Node000006"><a xlink:title=" ">
<path fill="none" stroke="#63b8ff" d="M638.66,-110.36C693.65,-98.57 770.95,-82.01 814.59,-72.66"/>
<polygon fill="#63b8ff" stroke="#63b8ff" points="815.36,-76.07 824.4,-70.56 813.89,-69.23 815.36,-76.07"/>
</a>
</g>
</g>
<!-- Node8&#45;&gt;Node7 -->
<g id="edge20_Node000008_Node000007" class="edge">
<title>Node8&#45;&gt;Node7</title>
<g id="a_edge20_Node000008_Node000007"><a xlink:title=" ">
<path fill="none" stroke="#63b8ff" d="M632.58,-109.95C672.33,-99.6 721.12,-85.4 739,-74 757.85,-61.98 774.29,-42.06 784.61,-27.73"/>
<polygon fill="#63b8ff" stroke="#63b8ff" points="787.65,-29.48 790.46,-19.27 781.9,-25.5 787.65,-29.48"/>
</a>
</g>
</g>
<!-- Node9 -->
<g id="Node000009" class="node">
<title>Node9</title>
<g id="a_Node000009"><a xlink:title=" ">
<polygon fill="#e0e0e0" stroke="#999999" points="383,-19 339,-19 339,0 383,0 383,-19"/>
<text text-anchor="middle" x="361" y="-7" font-family="Helvetica,sans-Serif" font-size="10.00">string</text>
</a>
</g>
</g>
<!-- Node8&#45;&gt;Node9 -->
<g id="edge9_Node000008_Node000009" class="edge">
<title>Node8&#45;&gt;Node9</title>
<g id="a_edge9_Node000008_Node000009"><a xlink:title=" ">
<path fill="none" stroke="#63b8ff" d="M563.73,-109.84C550.67,-94.3 527.74,-69.63 503,-55 468.29,-34.48 423.11,-22.44 393.14,-16.17"/>
<polygon fill="#63b8ff" stroke="#63b8ff" points="393.7,-12.71 383.21,-14.18 392.33,-19.57 393.7,-12.71"/>
</a>
</g>
</g>
<!-- Node10 -->
<g id="Node000010" class="node">
<title>Node10</title>
<g id="a_Node000010"><a xlink:title=" ">
<polygon fill="#e0e0e0" stroke="#999999" points="661.5,-74 620.5,-74 620.5,-55 661.5,-55 661.5,-74"/>
<text text-anchor="middle" x="641" y="-62" font-family="Helvetica,sans-Serif" font-size="10.00">tuple</text>
</a>
</g>
</g>
<!-- Node8&#45;&gt;Node10 -->
<g id="edge11_Node000008_Node000010" class="edge">
<title>Node8&#45;&gt;Node10</title>
<g id="a_edge11_Node000008_Node000010"><a xlink:title=" ">
<path fill="none" stroke="#63b8ff" d="M590.98,-109.84C600.75,-101.17 613.27,-90.08 623.34,-81.15"/>
<polygon fill="#63b8ff" stroke="#63b8ff" points="625.95,-83.52 631.11,-74.27 621.31,-78.28 625.95,-83.52"/>
</a>
</g>
</g>
<!-- Node11 -->
<g id="Node000011" class="node">
<title>Node11</title>
<g id="a_Node000011"><a xlink:title=" ">
<polygon fill="#e0e0e0" stroke="#999999" points="730,-74 680,-74 680,-55 730,-55 730,-74"/>
<text text-anchor="middle" x="705" y="-62" font-family="Helvetica,sans-Serif" font-size="10.00">cstdint</text>
</a>
</g>
</g>
<!-- Node8&#45;&gt;Node11 -->
<g id="edge12_Node000008_Node000011" class="edge">
<title>Node8&#45;&gt;Node11</title>
<g id="a_edge12_Node000008_Node000011"><a xlink:title=" ">
<path fill="none" stroke="#63b8ff" d="M606.14,-109.99C627.54,-100.36 655.73,-87.67 676.53,-78.31"/>
<polygon fill="#63b8ff" stroke="#63b8ff" points="678.12,-81.43 685.8,-74.14 675.25,-75.05 678.12,-81.43"/>
</a>
</g>
</g>
<!-- Node12 -->
<g id="Node000012" class="node">
<title>Node12</title>
<g id="a_Node000012"><a xlink:title=" ">
<polygon fill="#e0e0e0" stroke="#999999" points="494.5,-74 437.5,-74 437.5,-55 494.5,-55 494.5,-74"/>
<text text-anchor="middle" x="466" y="-62" font-family="Helvetica,sans-Serif" font-size="10.00">ostream</text>
</a>
</g>
</g>
<!-- Node8&#45;&gt;Node12 -->
<g id="edge13_Node000008_Node000012" class="edge">
<title>Node8&#45;&gt;Node12</title>
<g id="a_edge13_Node000008_Node000012"><a xlink:title=" ">
<path fill="none" stroke="#63b8ff" d="M548.89,-109.99C531.36,-100.58 508.38,-88.24 491.06,-78.95"/>
<polygon fill="#63b8ff" stroke="#63b8ff" points="492.56,-75.78 482.1,-74.14 489.25,-81.95 492.56,-75.78"/>
</a>
</g>
</g>
<!-- Node13 -->
<g id="Node000013" class="node">
<title>Node13</title>
<g id="a_Node000013"><a xlink:title=" ">
<polygon fill="#e0e0e0" stroke="#999999" points="602.5,-74 551.5,-74 551.5,-55 602.5,-55 602.5,-74"/>
<text text-anchor="middle" x="577" y="-62" font-family="Helvetica,sans-Serif" font-size="10.00">variant</text>
</a>
</g>
</g>
<!-- Node8&#45;&gt;Node13 -->
<g id="edge14_Node000008_Node000013" class="edge">
<title>Node8&#45;&gt;Node13</title>
<g id="a_edge14_Node000008_Node000013"><a xlink:title=" ">
<path fill="none" stroke="#63b8ff" d="M575.48,-109.84C575.74,-102.21 576.07,-92.7 576.35,-84.45"/>
<polygon fill="#63b8ff" stroke="#63b8ff" points="579.86,-84.38 576.7,-74.27 572.86,-84.14 579.86,-84.38"/>
</a>
</g>
</g>
<!-- Node14 -->
<g id="Node000014" class="node">
<title>Node14</title>
<g id="a_Node000014"><a xlink:href="common_2encoding_8h.html" target="_top" xlink:title=" ">
<polygon fill="white" stroke="#666666" points="165,-74 95,-74 95,-55 165,-55 165,-74"/>
<text text-anchor="middle" x="130" y="-62" font-family="Helvetica,sans-Serif" font-size="10.00">encoding.h</text>
</a>
</g>
</g>
<!-- Node8&#45;&gt;Node14 -->
<g id="edge15_Node000008_Node000014" class="edge">
<title>Node8&#45;&gt;Node14</title>
<g id="a_edge15_Node000008_Node000014"><a xlink:title=" ">
<path fill="none" stroke="#63b8ff" d="M511.34,-111.52C508.19,-110.99 505.06,-110.48 502,-110 384.78,-91.77 245.76,-76.93 175.51,-69.9"/>
<polygon fill="#63b8ff" stroke="#63b8ff" points="175.54,-66.39 165.25,-68.88 174.85,-73.35 175.54,-66.39"/>
</a>
</g>
</g>
<!-- Node14&#45;&gt;Node7 -->
<g id="edge19_Node000014_Node000007" class="edge">
<title>Node14&#45;&gt;Node7</title>
<g id="a_edge19_Node000014_Node000007"><a xlink:title=" ">
<path fill="none" stroke="#63b8ff" d="M165.12,-59.9C180.96,-58.32 199.92,-56.49 217,-55 404.59,-38.63 626.67,-22.46 733.04,-14.91"/>
<polygon fill="#63b8ff" stroke="#63b8ff" points="733.55,-18.38 743.28,-14.19 733.06,-11.4 733.55,-18.38"/>
</a>
</g>
</g>
<!-- Node14&#45;&gt;Node9 -->
<g id="edge16_Node000014_Node000009" class="edge">
<title>Node14&#45;&gt;Node9</title>
<g id="a_edge16_Node000014_Node000009"><a xlink:title=" ">
<path fill="none" stroke="#63b8ff" d="M165.08,-55.45C209.63,-45.23 285.84,-27.74 328.91,-17.86"/>
<polygon fill="#63b8ff" stroke="#63b8ff" points="329.88,-21.23 338.85,-15.58 328.32,-14.41 329.88,-21.23"/>
</a>
</g>
</g>
<!-- Node15 -->
<g id="Node000015" class="node">
<title>Node15</title>
<g id="a_Node000015"><a xlink:title=" ">
<polygon fill="#e0e0e0" stroke="#999999" points="158.5,-19 85.5,-19 85.5,0 158.5,0 158.5,-19"/>
<text text-anchor="middle" x="122" y="-7" font-family="Helvetica,sans-Serif" font-size="10.00">string_view</text>
</a>
</g>
</g>
<!-- Node14&#45;&gt;Node15 -->
<g id="edge17_Node000014_Node000015" class="edge">
<title>Node14&#45;&gt;Node15</title>
<g id="a_edge17_Node000014_Node000015"><a xlink:title=" ">
<path fill="none" stroke="#63b8ff" d="M128.68,-54.75C127.63,-47.8 126.13,-37.85 124.81,-29.13"/>
<polygon fill="#63b8ff" stroke="#63b8ff" points="128.25,-28.45 123.3,-19.09 121.33,-29.5 128.25,-28.45"/>
</a>
</g>
</g>
<!-- Node16 -->
<g id="Node000016" class="node">
<title>Node16</title>
<g id="a_Node000016"><a xlink:title=" ">
<polygon fill="#e0e0e0" stroke="#999999" points="58,-19 0,-19 0,0 58,0 58,-19"/>
<text text-anchor="middle" x="29" y="-7" font-family="Helvetica,sans-Serif" font-size="10.00">memory</text>
</a>
</g>
</g>
<!-- Node14&#45;&gt;Node16 -->
<g id="edge18_Node000014_Node000016" class="edge">
<title>Node14&#45;&gt;Node16</title>
<g id="a_edge18_Node000014_Node000016"><a xlink:title=" ">
<path fill="none" stroke="#63b8ff" d="M113.77,-54.98C97.82,-46.61 73.22,-33.7 54.62,-23.95"/>
<polygon fill="#63b8ff" stroke="#63b8ff" points="56,-20.72 45.52,-19.17 52.75,-26.92 56,-20.72"/>
</a>
</g>
</g>
<!-- Node17&#45;&gt;Node4 -->
<g id="edge22_Node000017_Node000004" class="edge">
<title>Node17&#45;&gt;Node4</title>
<g id="a_edge22_Node000017_Node000004"><a xlink:title=" ">
<path fill="none" stroke="#63b8ff" d="M591.82,-175.87C610.6,-166.23 641.2,-150.53 663.05,-139.31"/>
<polygon fill="#63b8ff" stroke="#63b8ff" points="664.81,-142.35 672.11,-134.67 661.61,-136.12 664.81,-142.35"/>
</a>
</g>
</g>
<!-- Node17&#45;&gt;Node5 -->
<g id="edge24_Node000017_Node000005" class="edge">
<title>Node17&#45;&gt;Node5</title>
<g id="a_edge24_Node000017_Node000005"><a xlink:title=" ">
<path fill="none" stroke="#63b8ff" d="M607.27,-175.98C638.77,-167.48 687.96,-153.76 730,-140 731.9,-139.38 733.86,-138.72 735.82,-138.04"/>
<polygon fill="#63b8ff" stroke="#63b8ff" points="737.34,-141.21 745.59,-134.57 735,-134.62 737.34,-141.21"/>
</a>
</g>
</g>
<!-- Node17&#45;&gt;Node7 -->
<g id="edge37_Node000017_Node000007" class="edge">
<title>Node17&#45;&gt;Node7</title>
<g id="a_edge37_Node000017_Node000007"><a xlink:title=" ">
<path fill="none" stroke="#63b8ff" d="M527.35,-176.7C488.25,-169.21 437.39,-156.6 425,-140 416.68,-128.85 417.45,-66.27 428,-55 448.44,-33.16 633.29,-19.57 732.96,-13.77"/>
<polygon fill="#63b8ff" stroke="#63b8ff" points="733.43,-17.25 743.21,-13.18 733.03,-10.26 733.43,-17.25"/>
</a>
</g>
</g>
<!-- Node17&#45;&gt;Node8 -->
<g id="edge38_Node000017_Node000008" class="edge">
<title>Node17&#45;&gt;Node8</title>
<g id="a_edge38_Node000017_Node000008"><a xlink:title=" ">
<path fill="none" stroke="#63b8ff" d="M575,-175.87C575,-169.11 575,-159.35 575,-150.26"/>
<polygon fill="#63b8ff" stroke="#63b8ff" points="578.5,-150.11 575,-140.11 571.5,-150.11 578.5,-150.11"/>
</a>
</g>
</g>
<!-- Node17&#45;&gt;Node12 -->
<g id="edge23_Node000017_Node000012" class="edge">
<title>Node17&#45;&gt;Node12</title>
<g id="a_edge23_Node000017_Node000012"><a xlink:title=" ">
<path fill="none" stroke="#63b8ff" d="M528.72,-175.99C492.14,-168.22 445.42,-155.58 434,-140 420.82,-122.02 436.2,-97.77 449.84,-81.89"/>
<polygon fill="#63b8ff" stroke="#63b8ff" points="452.5,-84.17 456.66,-74.43 447.33,-79.45 452.5,-84.17"/>
</a>
</g>
</g>
<!-- Node17&#45;&gt;Node16 -->
<g id="edge26_Node000017_Node000016" class="edge">
<title>Node17&#45;&gt;Node16</title>
<g id="a_edge26_Node000017_Node000016"><a xlink:title=" ">
<path fill="none" stroke="#63b8ff" d="M527.44,-177.25C524.24,-176.81 521.08,-176.39 518,-176 367.7,-156.82 323.79,-184.65 179,-140 119.72,-121.72 97.84,-119.81 56,-74 44.4,-61.3 37.32,-42.86 33.33,-29.13"/>
<polygon fill="#63b8ff" stroke="#63b8ff" points="36.69,-28.11 30.78,-19.31 29.91,-29.87 36.69,-28.11"/>
</a>
</g>
</g>
<!-- Node18 -->
<g id="Node000018" class="node">
<title>Node18</title>
<g id="a_Node000018"><a xlink:title=" ">
<polygon fill="#e0e0e0" stroke="#999999" points="493,-134.5 443,-134.5 443,-115.5 493,-115.5 493,-134.5"/>
<text text-anchor="middle" x="468" y="-122.5" font-family="Helvetica,sans-Serif" font-size="10.00">chrono</text>
</a>
</g>
</g>
<!-- Node17&#45;&gt;Node18 -->
<g id="edge25_Node000017_Node000018" class="edge">
<title>Node17&#45;&gt;Node18</title>
<g id="a_edge25_Node000017_Node000018"><a xlink:title=" ">
<path fill="none" stroke="#63b8ff" d="M559.21,-175.87C541.67,-166.28 513.12,-150.67 492.63,-139.47"/>
<polygon fill="#63b8ff" stroke="#63b8ff" points="494.31,-136.39 483.85,-134.67 490.95,-142.54 494.31,-136.39"/>
</a>
</g>
</g>
<!-- Node19 -->
<g id="Node000019" class="node">
<title>Node19</title>
<g id="a_Node000019"><a xlink:href="field_8h.html" target="_top" xlink:title=" ">
<polygon fill="white" stroke="#666666" points="235.5,-134.5 188.5,-134.5 188.5,-115.5 235.5,-115.5 235.5,-134.5"/>
<text text-anchor="middle" x="212" y="-122.5" font-family="Helvetica,sans-Serif" font-size="10.00">field.h</text>
</a>
</g>
</g>
<!-- Node17&#45;&gt;Node19 -->
<g id="edge27_Node000017_Node000019" class="edge">
<title>Node17&#45;&gt;Node19</title>
<g id="a_edge27_Node000017_Node000019"><a xlink:title=" ">
<path fill="none" stroke="#63b8ff" d="M527.17,-176.79C452.58,-164.77 310.41,-141.86 245.64,-131.42"/>
<polygon fill="#63b8ff" stroke="#63b8ff" points="246,-127.93 235.57,-129.8 244.89,-134.85 246,-127.93"/>
</a>
</g>
</g>
<!-- Node19&#45;&gt;Node6 -->
<g id="edge31_Node000019_Node000006" class="edge">
<title>Node19&#45;&gt;Node6</title>
<g id="a_edge31_Node000019_Node000006"><a xlink:title=" ">
<path fill="none" stroke="#63b8ff" d="M235.77,-121.81C332.99,-112.87 700.52,-79.07 814.25,-68.6"/>
<polygon fill="#63b8ff" stroke="#63b8ff" points="814.81,-72.07 824.45,-67.67 814.17,-65.1 814.81,-72.07"/>
</a>
</g>
</g>
<!-- Node19&#45;&gt;Node7 -->
<g id="edge32_Node000019_Node000007" class="edge">
<title>Node19&#45;&gt;Node7</title>
<g id="a_edge32_Node000019_Node000007"><a xlink:title=" ">
<path fill="none" stroke="#63b8ff" d="M213.93,-115.42C217.82,-100.29 228.19,-69.12 250,-55 289.74,-29.29 597.81,-16.65 732.89,-12.31"/>
<polygon fill="#63b8ff" stroke="#63b8ff" points="733.2,-15.8 743.08,-11.99 732.98,-8.8 733.2,-15.8"/>
</a>
</g>
</g>
<!-- Node19&#45;&gt;Node9 -->
<g id="edge29_Node000019_Node000009" class="edge">
<title>Node19&#45;&gt;Node9</title>
<g id="a_edge29_Node000019_Node000009"><a xlink:title=" ">
<path fill="none" stroke="#63b8ff" d="M209.8,-115.27C206.76,-100.99 203.1,-72.49 217,-55 243.6,-21.55 294.87,-12.67 328.5,-10.62"/>
<polygon fill="#63b8ff" stroke="#63b8ff" points="328.91,-14.11 338.75,-10.17 328.61,-7.11 328.91,-14.11"/>
</a>
</g>
</g>
<!-- Node19&#45;&gt;Node14 -->
<g id="edge33_Node000019_Node000014" class="edge">
<title>Node19&#45;&gt;Node14</title>
<g id="a_edge33_Node000019_Node000014"><a xlink:title=" ">
<path fill="none" stroke="#63b8ff" d="M199.9,-115.37C186.94,-106.12 166.14,-91.28 150.6,-80.19"/>
<polygon fill="#63b8ff" stroke="#63b8ff" points="152.32,-77.13 142.15,-74.17 148.26,-82.82 152.32,-77.13"/>
</a>
</g>
</g>
<!-- Node19&#45;&gt;Node15 -->
<g id="edge30_Node000019_Node000015" class="edge">
<title>Node19&#45;&gt;Node15</title>
<g id="a_edge30_Node000019_Node000015"><a xlink:title=" ">
<path fill="none" stroke="#63b8ff" d="M188.32,-122.29C158.66,-118.74 108.94,-107.78 86,-74 75.41,-58.4 89.29,-39.48 102.78,-26.37"/>
<polygon fill="#63b8ff" stroke="#63b8ff" points="105.42,-28.7 110.48,-19.4 100.72,-23.51 105.42,-28.7"/>
</a>
</g>
</g>
<!-- Node19&#45;&gt;Node16 -->
<g id="edge28_Node000019_Node000016" class="edge">
<title>Node19&#45;&gt;Node16</title>
<g id="a_edge28_Node000019_Node000016"><a xlink:title=" ">
<path fill="none" stroke="#63b8ff" d="M188.02,-119.13C159.83,-112.52 112.64,-98.62 79,-74 62.07,-61.61 47.86,-42.04 38.97,-27.89"/>
<polygon fill="#63b8ff" stroke="#63b8ff" points="41.85,-25.89 33.7,-19.13 35.85,-29.5 41.85,-25.89"/>
</a>
</g>
</g>
<!-- Node20 -->
<g id="Node000020" class="node">
<title>Node20</title>
<g id="a_Node000020"><a xlink:href="complete_8h.html" target="_top" xlink:title=" ">
<polygon fill="white" stroke="#666666" points="380.5,-74 259.5,-74 259.5,-55 380.5,-55 380.5,-74"/>
<text text-anchor="middle" x="320" y="-62" font-family="Helvetica,sans-Serif" font-size="10.00">webcface/complete.h</text>
</a>
</g>
</g>
<!-- Node19&#45;&gt;Node20 -->
<g id="edge34_Node000019_Node000020" class="edge">
<title>Node19&#45;&gt;Node20</title>
<g id="a_edge34_Node000019_Node000020"><a xlink:title=" ">
<path fill="none" stroke="#63b8ff" d="M227.94,-115.37C245.64,-105.78 274.46,-90.17 295.14,-78.97"/>
<polygon fill="#63b8ff" stroke="#63b8ff" points="296.87,-82.01 304,-74.17 293.54,-75.85 296.87,-82.01"/>
</a>
</g>
</g>
<!-- Node20&#45;&gt;Node7 -->
<g id="edge36_Node000020_Node000007" class="edge">
<title>Node20&#45;&gt;Node7</title>
<g id="a_edge36_Node000020_Node000007"><a xlink:title=" ">
<path fill="none" stroke="#63b8ff" d="M380.58,-56.62C385.46,-56.07 390.31,-55.53 395,-55 514.58,-41.59 654.24,-26.14 733.19,-17.42"/>
<polygon fill="#63b8ff" stroke="#63b8ff" points="733.89,-20.87 743.45,-16.29 733.12,-13.91 733.89,-20.87"/>
</a>
</g>
</g>
<!-- Node21 -->
<g id="Node000021" class="node">
<title>Node21</title>
<g id="a_Node000021"><a xlink:title=" ">
<polygon fill="#e0e0e0" stroke="#999999" points="1110.5,-19 1057.5,-19 1057.5,0 1110.5,0 1110.5,-19"/>
<text text-anchor="middle" x="1084" y="-7" font-family="Helvetica,sans-Serif" font-size="10.00">cstddef</text>
</a>
</g>
</g>
<!-- Node20&#45;&gt;Node21 -->
<g id="edge35_Node000020_Node000021" class="edge">
<title>Node20&#45;&gt;Node21</title>
<g id="a_edge35_Node000020_Node000021"><a xlink:title=" ">
<path fill="none" stroke="#63b8ff" d="M380.54,-58.62C396.01,-57.4 412.62,-56.13 428,-55 663.89,-37.72 947.67,-19.26 1047.29,-12.85"/>
<polygon fill="#63b8ff" stroke="#63b8ff" points="1047.68,-16.33 1057.44,-12.2 1047.23,-9.35 1047.68,-16.33"/>
</a>
</g>
</g>
<!-- Node22&#45;&gt;Node6 -->
<g id="edge41_Node000022_Node000006" class="edge">
<title>Node22&#45;&gt;Node6</title>
<g id="a_edge41_Node000022_Node000006"><a xlink:title=" ">
<path fill="none" stroke="#63b8ff" d="M968.5,-115.49C944.69,-105.62 905.21,-89.23 877.96,-77.93"/>
<polygon fill="#63b8ff" stroke="#63b8ff" points="879.11,-74.62 868.53,-74.02 876.42,-81.08 879.11,-74.62"/>
</a>
</g>
</g>
<!-- Node22&#45;&gt;Node7 -->
<g id="edge40_Node000022_Node000007" class="edge">
<title>Node22&#45;&gt;Node7</title>
<g id="a_edge40_Node000022_Node000007"><a xlink:title=" ">
<path fill="none" stroke="#63b8ff" d="M981.53,-115.22C968.91,-100.87 942.02,-72.26 914,-55 890.43,-40.48 861.36,-29.45 837.97,-22"/>
<polygon fill="#63b8ff" stroke="#63b8ff" points="838.91,-18.63 828.33,-19.03 836.85,-25.32 838.91,-18.63"/>
</a>
</g>
</g>
<!-- Node23 -->
<g id="Node000023" class="node">
<title>Node23</title>
<g id="a_Node000023"><a xlink:title=" ">
<polygon fill="#e0e0e0" stroke="#999999" points="1035.5,-74 966.5,-74 966.5,-55 1035.5,-55 1035.5,-74"/>
<text text-anchor="middle" x="1001" y="-62" font-family="Helvetica,sans-Serif" font-size="10.00">type_traits</text>
</a>
</g>
</g>
<!-- Node22&#45;&gt;Node23 -->
<g id="edge42_Node000022_Node000023" class="edge">
<title>Node22&#45;&gt;Node23</title>
<g id="a_edge42_Node000022_Node000023"><a xlink:title=" ">
<path fill="none" stroke="#63b8ff" d="M990.77,-115.37C992.45,-107.16 995.04,-94.54 997.19,-84.05"/>
<polygon fill="#63b8ff" stroke="#63b8ff" points="1000.64,-84.67 999.22,-74.17 993.78,-83.26 1000.64,-84.67"/>
</a>
</g>
</g>
<!-- Node24&#45;&gt;Node5 -->
<g id="edge56_Node000024_Node000005" class="edge">
<title>Node24&#45;&gt;Node5</title>
<g id="a_edge56_Node000024_Node000005"><a xlink:title=" ">
<path fill="none" stroke="#63b8ff" d="M1080.78,-175.99C1006.07,-164.05 871.9,-142.61 806.26,-132.12"/>
<polygon fill="#63b8ff" stroke="#63b8ff" points="806.76,-128.65 796.34,-130.53 805.66,-135.56 806.76,-128.65"/>
</a>
</g>
</g>
<!-- Node24&#45;&gt;Node7 -->
<g id="edge44_Node000024_Node000007" class="edge">
<title>Node24&#45;&gt;Node7</title>
<g id="a_edge44_Node000024_Node000007"><a xlink:title=" ">
<path fill="none" stroke="#63b8ff" d="M1130.82,-175.79C1121.64,-152.02 1092.69,-85.75 1045,-55 1014.93,-35.61 922.28,-22.88 858.88,-16.18"/>
<polygon fill="#63b8ff" stroke="#63b8ff" points="858.89,-12.66 848.58,-15.12 858.17,-19.63 858.89,-12.66"/>
</a>
</g>
</g>
<!-- Node25 -->
<g id="Node000025" class="node">
<title>Node25</title>
<g id="a_Node000025"><a xlink:href="array__like_8h.html" target="_top" xlink:title=" ">
<polygon fill="white" stroke="#666666" points="1204,-134.5 1130,-134.5 1130,-115.5 1204,-115.5 1204,-134.5"/>
<text text-anchor="middle" x="1167" y="-122.5" font-family="Helvetica,sans-Serif" font-size="10.00">array_like.h</text>
</a>
</g>
</g>
<!-- Node24&#45;&gt;Node25 -->
<g id="edge45_Node000024_Node000025" class="edge">
<title>Node24&#45;&gt;Node25</title>
<g id="a_edge45_Node000024_Node000025"><a xlink:title=" ">
<path fill="none" stroke="#63b8ff" d="M1138.87,-175.87C1143.65,-167.4 1151.07,-154.24 1157.09,-143.57"/>
<polygon fill="#63b8ff" stroke="#63b8ff" points="1160.25,-145.1 1162.11,-134.67 1154.15,-141.66 1160.25,-145.1"/>
</a>
</g>
</g>
<!-- Node27 -->
<g id="Node000027" class="node">
<title>Node27</title>
<g id="a_Node000027"><a xlink:title=" ">
<polygon fill="#e0e0e0" stroke="#999999" points="1358,-74 1316,-74 1316,-55 1358,-55 1358,-74"/>
<text text-anchor="middle" x="1337" y="-62" font-family="Helvetica,sans-Serif" font-size="10.00">array</text>
</a>
</g>
</g>
<!-- Node24&#45;&gt;Node27 -->
<g id="edge55_Node000024_Node000027" class="edge">
<title>Node24&#45;&gt;Node27</title>
<g id="a_edge55_Node000024_Node000027"><a xlink:title=" ">
<path fill="none" stroke="#63b8ff" d="M1151.1,-175.86C1167.41,-167.38 1192.47,-153.76 1213,-140 1230.87,-128.02 1232.92,-121.66 1251,-110 1269.42,-98.12 1291.39,-86.79 1308.51,-78.54"/>
<polygon fill="#63b8ff" stroke="#63b8ff" points="1310.44,-81.5 1317.97,-74.06 1307.44,-75.18 1310.44,-81.5"/>
</a>
</g>
</g>
<!-- Node29 -->
<g id="Node000029" class="node">
<title>Node29</title>
<g id="a_Node000029"><a xlink:title=" ">
<polygon fill="#e0e0e0" stroke="#999999" points="1312,-134.5 1260,-134.5 1260,-115.5 1312,-115.5 1312,-134.5"/>
<text text-anchor="middle" x="1286" y="-122.5" font-family="Helvetica,sans-Serif" font-size="10.00">cassert</text>
</a>
</g>
</g>
<!-- Node24&#45;&gt;Node29 -->
<g id="edge57_Node000024_Node000029" class="edge">
<title>Node24&#45;&gt;Node29</title>
<g id="a_edge57_Node000024_Node000029"><a xlink:title=" ">
<path fill="none" stroke="#63b8ff" d="M1156.1,-175.99C1181.99,-166.03 1225.08,-149.45 1254.47,-138.13"/>
<polygon fill="#63b8ff" stroke="#63b8ff" points="1255.8,-141.38 1263.87,-134.52 1253.28,-134.84 1255.8,-141.38"/>
</a>
</g>
</g>
<!-- Node25&#45;&gt;Node6 -->
<g id="edge47_Node000025_Node000006" class="edge">
<title>Node25&#45;&gt;Node6</title>
<g id="a_edge47_Node000025_Node000006"><a xlink:title=" ">
<path fill="none" stroke="#63b8ff" d="M1129.78,-117.17C1067.3,-105.72 942.25,-82.78 881.99,-71.73"/>
<polygon fill="#63b8ff" stroke="#63b8ff" points="882.34,-68.24 871.87,-69.88 881.07,-75.12 882.34,-68.24"/>
</a>
</g>
</g>
<!-- Node25&#45;&gt;Node7 -->
<g id="edge54_Node000025_Node000007" class="edge">
<title>Node25&#45;&gt;Node7</title>
<g id="a_edge54_Node000025_Node000007"><a xlink:title=" ">
<path fill="none" stroke="#63b8ff" d="M1163.43,-115.49C1156.64,-100.46 1140.33,-69.46 1116,-55 1073.75,-29.89 939.38,-18.3 858.81,-13.49"/>
<polygon fill="#63b8ff" stroke="#63b8ff" points="858.97,-10 848.78,-12.91 858.56,-16.99 858.97,-10"/>
</a>
</g>
</g>
<!-- Node25&#45;&gt;Node9 -->
<g id="edge50_Node000025_Node000009" class="edge">
<title>Node25&#45;&gt;Node9</title>
<g id="a_edge50_Node000025_Node000009"><a xlink:title=" ">
<path fill="none" stroke="#63b8ff" d="M1156.01,-115.48C1135.53,-100.15 1089.54,-68.28 1045,-55 920.59,-17.9 511.38,-11.71 393.22,-10.7"/>
<polygon fill="#63b8ff" stroke="#63b8ff" points="393.04,-7.2 383.02,-10.62 392.99,-14.2 393.04,-7.2"/>
</a>
</g>
</g>
<!-- Node25&#45;&gt;Node23 -->
<g id="edge49_Node000025_Node000023" class="edge">
<title>Node25&#45;&gt;Node23</title>
<g id="a_edge49_Node000025_Node000023"><a xlink:title=" ">
<path fill="none" stroke="#63b8ff" d="M1142.86,-115.49C1114.46,-105.49 1067.12,-88.8 1035.01,-77.49"/>
<polygon fill="#63b8ff" stroke="#63b8ff" points="1035.76,-74.04 1025.17,-74.02 1033.44,-80.64 1035.76,-74.04"/>
</a>
</g>
</g>
<!-- Node26 -->
<g id="Node000026" class="node">
<title>Node26</title>
<g id="a_Node000026"><a xlink:title=" ">
<polygon fill="#e0e0e0" stroke="#999999" points="1233.5,-74 1168.5,-74 1168.5,-55 1233.5,-55 1233.5,-74"/>
<text text-anchor="middle" x="1201" y="-62" font-family="Helvetica,sans-Serif" font-size="10.00">stdexcept</text>
</a>
</g>
</g>
<!-- Node25&#45;&gt;Node26 -->
<g id="edge46_Node000025_Node000026" class="edge">
<title>Node25&#45;&gt;Node26</title>
<g id="a_edge46_Node000025_Node000026"><a xlink:title=" ">
<path fill="none" stroke="#63b8ff" d="M1172.02,-115.37C1176.94,-106.9 1184.59,-93.74 1190.79,-83.07"/>
<polygon fill="#63b8ff" stroke="#63b8ff" points="1193.96,-84.57 1195.96,-74.17 1187.91,-81.05 1193.96,-84.57"/>
</a>
</g>
</g>
<!-- Node25&#45;&gt;Node27 -->
<g id="edge48_Node000025_Node000027" class="edge">
<title>Node25&#45;&gt;Node27</title>
<g id="a_edge48_Node000025_Node000027"><a xlink:title=" ">
<path fill="none" stroke="#63b8ff" d="M1191.72,-115.49C1222.01,-105.07 1273.35,-87.4 1306.19,-76.1"/>
<polygon fill="#63b8ff" stroke="#63b8ff" points="1307.43,-79.38 1315.74,-72.81 1305.15,-72.76 1307.43,-79.38"/>
</a>
</g>
</g>
<!-- Node28 -->
<g id="Node000028" class="node">
<title>Node28</title>
<g id="a_Node000028"><a xlink:href="trait_8h.html" target="_top" xlink:title=" ">
<polygon fill="white" stroke="#666666" points="1298,-74 1252,-74 1252,-55 1298,-55 1298,-74"/>
<text text-anchor="middle" x="1275" y="-62" font-family="Helvetica,sans-Serif" font-size="10.00">trait.h</text>
</a>
</g>
</g>
<!-- Node25&#45;&gt;Node28 -->
<g id="edge51_Node000025_Node000028" class="edge">
<title>Node25&#45;&gt;Node28</title>
<g id="a_edge51_Node000025_Node000028"><a xlink:title=" ">
<path fill="none" stroke="#63b8ff" d="M1182.94,-115.37C1200.64,-105.78 1229.46,-90.17 1250.14,-78.97"/>
<polygon fill="#63b8ff" stroke="#63b8ff" points="1251.87,-82.01 1259,-74.17 1248.54,-75.85 1251.87,-82.01"/>
</a>
</g>
</g>
<!-- Node28&#45;&gt;Node7 -->
<g id="edge53_Node000028_Node000007" class="edge">
<title>Node28&#45;&gt;Node7</title>
<g id="a_edge53_Node000028_Node000007"><a xlink:title=" ">
<path fill="none" stroke="#63b8ff" d="M1251.68,-56.84C1248.77,-56.15 1245.83,-55.51 1243,-55 1107.32,-30.39 945.83,-18.55 858.9,-13.58"/>
<polygon fill="#63b8ff" stroke="#63b8ff" points="858.86,-10.07 848.68,-13 858.47,-17.06 858.86,-10.07"/>
</a>
</g>
</g>
<!-- Node28&#45;&gt;Node21 -->
<g id="edge52_Node000028_Node000021" class="edge">
<title>Node28&#45;&gt;Node21</title>
<g id="a_edge52_Node000028_Node000021"><a xlink:title=" ">
<path fill="none" stroke="#63b8ff" d="M1251.96,-57.11C1219.35,-48.06 1159.41,-31.42 1120.65,-20.67"/>
<polygon fill="#63b8ff" stroke="#63b8ff" points="1121.38,-17.24 1110.8,-17.94 1119.5,-23.98 1121.38,-17.24"/>
</a>
</g>
</g>
</g>
</svg>
