<?xml version="1.0" encoding="UTF-8" standalone="no"?>
<!DOCTYPE svg PUBLIC "-//W3C//DTD SVG 1.1//EN"
 "http://www.w3.org/Graphics/SVG/1.1/DTD/svg11.dtd">
<!-- Generated by graphviz version 2.43.0 (0)
 -->
<!-- Title: client/include/webcface/component_view.h Pages: 1 -->
<svg width="2400pt" height="368pt"
 viewBox="0.00 0.00 2399.76 368.00" xmlns="http://www.w3.org/2000/svg" xmlns:xlink="http://www.w3.org/1999/xlink">
<g id="graph0" class="graph" transform="scale(1 1) rotate(0) translate(4 364)">
<title>client/include/webcface/component_view.h</title>
<!-- Node1 -->
<g id="Node000001" class="node">
<title>Node1</title>
<g id="a_Node000001"><a xlink:title=" ">
<polygon fill="#999999" stroke="#666666" points="1548.26,-360 1417.26,-360 1417.26,-330 1548.26,-330 1548.26,-360"/>
<text text-anchor="start" x="1425.26" y="-348" font-family="Helvetica,sans-Serif" font-size="10.00">client/include/webcface</text>
<text text-anchor="middle" x="1482.76" y="-337" font-family="Helvetica,sans-Serif" font-size="10.00">/component_view.h</text>
</a>
</g>
</g>
<!-- Node2 -->
<g id="Node000002" class="node">
<title>Node2</title>
<g id="a_Node000002"><a xlink:href="component__canvas2d_8h.html" target="_top" xlink:title=" ">
<polygon fill="white" stroke="#666666" points="1550.26,-294 1415.26,-294 1415.26,-264 1550.26,-264 1550.26,-294"/>
<text text-anchor="start" x="1423.26" y="-282" font-family="Helvetica,sans-Serif" font-size="10.00">client/include/webcface</text>
<text text-anchor="middle" x="1482.76" y="-271" font-family="Helvetica,sans-Serif" font-size="10.00">/component_canvas2d.h</text>
</a>
</g>
</g>
<!-- Node1&#45;&gt;Node2 -->
<g id="edge1_Node000001_Node000002" class="edge">
<title>Node1&#45;&gt;Node2</title>
<g id="a_edge1_Node000001_Node000002"><a xlink:title=" ">
<path fill="none" stroke="#63b8ff" d="M1482.76,-319.54C1482.76,-310.96 1482.76,-301.61 1482.76,-294.16"/>
<polygon fill="#63b8ff" stroke="#63b8ff" points="1479.26,-319.8 1482.76,-329.8 1486.26,-319.8 1479.26,-319.8"/>
</a>
</g>
</g>
<!-- Node3 -->
<g id="Node000003" class="node">
<title>Node3</title>
<g id="a_Node000003"><a xlink:href="components_8h.html" target="_top" xlink:title=" ">
<polygon fill="white" stroke="#666666" points="1429.26,-228 1298.26,-228 1298.26,-198 1429.26,-198 1429.26,-228"/>
<text text-anchor="start" x="1306.26" y="-216" font-family="Helvetica,sans-Serif" font-size="10.00">client/include/webcface</text>
<text text-anchor="middle" x="1363.76" y="-205" font-family="Helvetica,sans-Serif" font-size="10.00">/components.h</text>
</a>
</g>
</g>
<!-- Node1&#45;&gt;Node3 -->
<g id="edge48_Node000001_Node000003" class="edge">
<title>Node1&#45;&gt;Node3</title>
<g id="a_edge48_Node000001_Node000003"><a xlink:title=" ">
<path fill="none" stroke="#63b8ff" d="M1445.12,-324.86C1431.55,-316.67 1416.86,-306.18 1405.76,-294 1387.69,-274.18 1375.02,-245.14 1368.6,-228.05"/>
<polygon fill="#63b8ff" stroke="#63b8ff" points="1443.42,-327.92 1453.83,-329.9 1446.93,-321.86 1443.42,-327.92"/>
</a>
</g>
</g>
<!-- Node26 -->
<g id="Node000026" class="node">
<title>Node26</title>
<g id="a_Node000026"><a xlink:href="component__canvas3d_8h.html" target="_top" xlink:title=" ">
<polygon fill="white" stroke="#666666" points="1358.26,-294 1223.26,-294 1223.26,-264 1358.26,-264 1358.26,-294"/>
<text text-anchor="start" x="1231.26" y="-282" font-family="Helvetica,sans-Serif" font-size="10.00">client/include/webcface</text>
<text text-anchor="middle" x="1290.76" y="-271" font-family="Helvetica,sans-Serif" font-size="10.00">/component_canvas3d.h</text>
</a>
</g>
</g>
<!-- Node1&#45;&gt;Node26 -->
<g id="edge45_Node000001_Node000026" class="edge">
<title>Node1&#45;&gt;Node26</title>
<g id="a_edge45_Node000001_Node000026"><a xlink:title=" ">
<path fill="none" stroke="#63b8ff" d="M1430.93,-326.72C1400.17,-316.47 1361.66,-303.63 1332.8,-294.01"/>
<polygon fill="#63b8ff" stroke="#63b8ff" points="1430.03,-330.11 1440.63,-329.95 1432.25,-323.47 1430.03,-330.11"/>
</a>
</g>
</g>
<!-- Node27 -->
<g id="Node000027" class="node">
<title>Node27</title>
<g id="a_Node000027"><a xlink:href="robot__link_8h.html" target="_top" xlink:title=" ">
<polygon fill="white" stroke="#666666" points="1843.26,-228 1712.26,-228 1712.26,-198 1843.26,-198 1843.26,-228"/>
<text text-anchor="start" x="1720.26" y="-216" font-family="Helvetica,sans-Serif" font-size="10.00">client/include/webcface</text>
<text text-anchor="middle" x="1777.76" y="-205" font-family="Helvetica,sans-Serif" font-size="10.00">/robot_link.h</text>
</a>
</g>
</g>
<!-- Node1&#45;&gt;Node27 -->
<g id="edge49_Node000001_Node000027" class="edge">
<title>Node1&#45;&gt;Node27</title>
<g id="a_edge49_Node000001_Node000027"><a xlink:title=" ">
<path fill="none" stroke="#63b8ff" d="M1513.73,-324.36C1527.65,-315.35 1544.2,-304.37 1558.76,-294 1576.58,-281.32 1578.2,-273.77 1597.76,-264 1633.74,-246.03 1677.09,-233.73 1712.24,-225.84"/>
<polygon fill="#63b8ff" stroke="#63b8ff" points="1511.52,-321.63 1505,-329.98 1515.3,-327.51 1511.52,-321.63"/>
</a>
</g>
</g>
<!-- Node32 -->
<g id="Node000032" class="node">
<title>Node32</title>
<g id="a_Node000032"><a xlink:href="component__view_8cc.html" target="_top" xlink:title=" ">
<polygon fill="white" stroke="#666666" points="1726.26,-294 1607.26,-294 1607.26,-264 1726.26,-264 1726.26,-294"/>
<text text-anchor="start" x="1615.26" y="-282" font-family="Helvetica,sans-Serif" font-size="10.00">client/src/component</text>
<text text-anchor="middle" x="1666.76" y="-271" font-family="Helvetica,sans-Serif" font-size="10.00">_view.cc</text>
</a>
</g>
</g>
<!-- Node1&#45;&gt;Node32 -->
<g id="edge61_Node000001_Node000032" class="edge">
<title>Node1&#45;&gt;Node32</title>
<g id="a_edge61_Node000001_Node000032"><a xlink:title=" ">
<path fill="none" stroke="#63b8ff" d="M1532.82,-326.59C1562.23,-316.36 1598.93,-303.59 1626.48,-294.01"/>
<polygon fill="#63b8ff" stroke="#63b8ff" points="1531.44,-323.36 1523.14,-329.95 1533.74,-329.98 1531.44,-323.36"/>
</a>
</g>
</g>
<!-- Node2&#45;&gt;Node3 -->
<g id="edge2_Node000002_Node000003" class="edge">
<title>Node2&#45;&gt;Node3</title>
<g id="a_edge2_Node000002_Node000003"><a xlink:title=" ">
<path fill="none" stroke="#63b8ff" d="M1447.63,-259.11C1429.11,-249.14 1406.78,-237.13 1389.82,-228.01"/>
<polygon fill="#63b8ff" stroke="#63b8ff" points="1446.18,-262.3 1456.65,-263.95 1449.5,-256.14 1446.18,-262.3"/>
</a>
</g>
</g>
<!-- Node25 -->
<g id="Node000025" class="node">
<title>Node25</title>
<g id="a_Node000025"><a xlink:href="component__canvas2d_8cc.html" target="_top" xlink:title=" ">
<polygon fill="white" stroke="#666666" points="1566.26,-228 1447.26,-228 1447.26,-198 1566.26,-198 1566.26,-228"/>
<text text-anchor="start" x="1455.26" y="-216" font-family="Helvetica,sans-Serif" font-size="10.00">client/src/component</text>
<text text-anchor="middle" x="1506.76" y="-205" font-family="Helvetica,sans-Serif" font-size="10.00">_canvas2d.cc</text>
</a>
</g>
</g>
<!-- Node2&#45;&gt;Node25 -->
<g id="edge44_Node000002_Node000025" class="edge">
<title>Node2&#45;&gt;Node25</title>
<g id="a_edge44_Node000002_Node000025"><a xlink:title=" ">
<path fill="none" stroke="#63b8ff" d="M1491.61,-254.39C1494.92,-245.59 1498.56,-235.86 1501.45,-228.16"/>
<polygon fill="#63b8ff" stroke="#63b8ff" points="1488.32,-253.2 1488.09,-263.8 1494.88,-255.66 1488.32,-253.2"/>
</a>
</g>
</g>
<!-- Node4 -->
<g id="Node000004" class="node">
<title>Node4</title>
<g id="a_Node000004"><a xlink:href="client_2include_2webcface_2canvas2d_8h.html" target="_top" xlink:title=" ">
<polygon fill="white" stroke="#666666" points="1429.26,-96 1298.26,-96 1298.26,-66 1429.26,-66 1429.26,-96"/>
<text text-anchor="start" x="1306.26" y="-84" font-family="Helvetica,sans-Serif" font-size="10.00">client/include/webcface</text>
<text text-anchor="middle" x="1363.76" y="-73" font-family="Helvetica,sans-Serif" font-size="10.00">/canvas2d.h</text>
</a>
</g>
</g>
<!-- Node3&#45;&gt;Node4 -->
<g id="edge3_Node000003_Node000004" class="edge">
<title>Node3&#45;&gt;Node4</title>
<g id="a_edge3_Node000003_Node000004"><a xlink:title=" ">
<path fill="none" stroke="#63b8ff" d="M1363.76,-187.68C1363.76,-160.7 1363.76,-118.11 1363.76,-96.14"/>
<polygon fill="#63b8ff" stroke="#63b8ff" points="1360.26,-187.84 1363.76,-197.84 1367.26,-187.84 1360.26,-187.84"/>
</a>
</g>
</g>
<!-- Node5 -->
<g id="Node000005" class="node">
<title>Node5</title>
<g id="a_Node000005"><a xlink:href="webcface_8h.html" target="_top" xlink:title=" ">
<polygon fill="white" stroke="#666666" points="1160.26,-30 1029.26,-30 1029.26,0 1160.26,0 1160.26,-30"/>
<text text-anchor="start" x="1037.26" y="-18" font-family="Helvetica,sans-Serif" font-size="10.00">client/include/webcface</text>
<text text-anchor="middle" x="1094.76" y="-7" font-family="Helvetica,sans-Serif" font-size="10.00">/webcface.h</text>
</a>
</g>
</g>
<!-- Node3&#45;&gt;Node5 -->
<g id="edge36_Node000003_Node000005" class="edge">
<title>Node3&#45;&gt;Node5</title>
<g id="a_edge36_Node000003_Node000005"><a xlink:title=" ">
<path fill="none" stroke="#63b8ff" d="M1287.86,-211.51C1014.4,-208.97 91.21,-193.2 6.76,-96 -1.98,-85.94 -2.45,-75.64 6.76,-66 42.19,-28.91 799.31,-18.77 1029.17,-16.55"/>
<polygon fill="#63b8ff" stroke="#63b8ff" points="1288.06,-215.02 1298.09,-211.61 1288.12,-208.02 1288.06,-215.02"/>
</a>
</g>
</g>
<!-- Node10 -->
<g id="Node000010" class="node">
<title>Node10</title>
<g id="a_Node000010"><a xlink:href="client_2include_2webcface_2canvas3d_8h.html" target="_top" xlink:title=" ">
<polygon fill="white" stroke="#666666" points="1655.26,-96 1524.26,-96 1524.26,-66 1655.26,-66 1655.26,-96"/>
<text text-anchor="start" x="1532.26" y="-84" font-family="Helvetica,sans-Serif" font-size="10.00">client/include/webcface</text>
<text text-anchor="middle" x="1589.76" y="-73" font-family="Helvetica,sans-Serif" font-size="10.00">/canvas3d.h</text>
</a>
</g>
</g>
<!-- Node3&#45;&gt;Node10 -->
<g id="edge9_Node000003_Node000010" class="edge">
<title>Node3&#45;&gt;Node10</title>
<g id="a_edge9_Node000003_Node000010"><a xlink:title=" ">
<path fill="none" stroke="#63b8ff" d="M1435.79,-195.46C1473.83,-185.77 1515.86,-173.26 1531.76,-162 1556.12,-144.74 1574.16,-113.99 1583.22,-96.05"/>
<polygon fill="#63b8ff" stroke="#63b8ff" points="1434.56,-192.16 1425.71,-197.98 1436.26,-198.95 1434.56,-192.16"/>
</a>
</g>
</g>
<!-- Node12 -->
<g id="Node000012" class="node">
<title>Node12</title>
<g id="a_Node000012"><a xlink:href="data__buffer_8h.html" target="_top" xlink:title=" ">
<polygon fill="white" stroke="#666666" points="1843.26,-96 1712.26,-96 1712.26,-66 1843.26,-66 1843.26,-96"/>
<text text-anchor="start" x="1720.26" y="-84" font-family="Helvetica,sans-Serif" font-size="10.00">client/include/webcface</text>
<text text-anchor="middle" x="1777.76" y="-73" font-family="Helvetica,sans-Serif" font-size="10.00">/internal/data_buffer.h</text>
</a>
</g>
</g>
<!-- Node3&#45;&gt;Node12 -->
<g id="edge15_Node000003_Node000012" class="edge">
<title>Node3&#45;&gt;Node12</title>
<g id="a_edge15_Node000003_Node000012"><a xlink:title=" ">
<path fill="none" stroke="#63b8ff" d="M1435.73,-195.65C1473.26,-186.64 1519.77,-174.72 1560.76,-162 1626.15,-141.71 1700.69,-112.96 1743.19,-96.02"/>
<polygon fill="#63b8ff" stroke="#63b8ff" points="1434.81,-192.27 1425.89,-197.99 1436.43,-199.08 1434.81,-192.27"/>
</a>
</g>
</g>
<!-- Node15 -->
<g id="Node000015" class="node">
<title>Node15</title>
<g id="a_Node000015"><a xlink:href="client_2include_2webcface_2robot__model_8h.html" target="_top" xlink:title=" ">
<polygon fill="white" stroke="#666666" points="1523.26,-162 1392.26,-162 1392.26,-132 1523.26,-132 1523.26,-162"/>
<text text-anchor="start" x="1400.26" y="-150" font-family="Helvetica,sans-Serif" font-size="10.00">client/include/webcface</text>
<text text-anchor="middle" x="1457.76" y="-139" font-family="Helvetica,sans-Serif" font-size="10.00">/robot_model.h</text>
</a>
</g>
</g>
<!-- Node3&#45;&gt;Node15 -->
<g id="edge20_Node000003_Node000015" class="edge">
<title>Node3&#45;&gt;Node15</title>
<g id="a_edge20_Node000003_Node000015"><a xlink:title=" ">
<path fill="none" stroke="#63b8ff" d="M1393.1,-192.03C1407.32,-182.34 1424.07,-170.94 1436.96,-162.16"/>
<polygon fill="#63b8ff" stroke="#63b8ff" points="1390.92,-189.28 1384.62,-197.8 1394.86,-195.06 1390.92,-189.28"/>
</a>
</g>
</g>
<!-- Node17 -->
<g id="Node000017" class="node">
<title>Node17</title>
<g id="a_Node000017"><a xlink:href="client_2include_2webcface_2view_8h.html" target="_top" xlink:title=" ">
<polygon fill="white" stroke="#666666" points="1297.26,-162 1166.26,-162 1166.26,-132 1297.26,-132 1297.26,-162"/>
<text text-anchor="start" x="1174.26" y="-150" font-family="Helvetica,sans-Serif" font-size="10.00">client/include/webcface</text>
<text text-anchor="middle" x="1231.76" y="-139" font-family="Helvetica,sans-Serif" font-size="10.00">/view.h</text>
</a>
</g>
</g>
<!-- Node3&#45;&gt;Node17 -->
<g id="edge27_Node000003_Node000017" class="edge">
<title>Node3&#45;&gt;Node17</title>
<g id="a_edge27_Node000003_Node000017"><a xlink:title=" ">
<path fill="none" stroke="#63b8ff" d="M1325.63,-193.51C1304.93,-183.47 1279.73,-171.26 1260.66,-162.01"/>
<polygon fill="#63b8ff" stroke="#63b8ff" points="1324.27,-196.74 1334.79,-197.95 1327.32,-190.44 1324.27,-196.74"/>
</a>
</g>
</g>
<!-- Node20 -->
<g id="Node000020" class="node">
<title>Node20</title>
<g id="a_Node000020"><a xlink:href="c__wcf__internal_8h.html" target="_top" xlink:title=" ">
<polygon fill="white" stroke="#666666" points="583.76,-162 483.76,-162 483.76,-132 583.76,-132 583.76,-162"/>
<text text-anchor="start" x="491.76" y="-150" font-family="Helvetica,sans-Serif" font-size="10.00">client/src/c_wcf/c</text>
<text text-anchor="middle" x="533.76" y="-139" font-family="Helvetica,sans-Serif" font-size="10.00">_wcf_internal.h</text>
</a>
</g>
</g>
<!-- Node3&#45;&gt;Node20 -->
<g id="edge37_Node000003_Node000020" class="edge">
<title>Node3&#45;&gt;Node20</title>
<g id="a_edge37_Node000003_Node000020"><a xlink:title=" ">
<path fill="none" stroke="#63b8ff" d="M1287.73,-206.14C1120.38,-193.23 723.89,-162.66 583.83,-151.86"/>
<polygon fill="#63b8ff" stroke="#63b8ff" points="1287.7,-209.65 1297.94,-206.92 1288.24,-202.67 1287.7,-209.65"/>
</a>
</g>
</g>
<!-- Node4&#45;&gt;Node5 -->
<g id="edge4_Node000004_Node000005" class="edge">
<title>Node4&#45;&gt;Node5</title>
<g id="a_edge4_Node000004_Node000005"><a xlink:title=" ">
<path fill="none" stroke="#63b8ff" d="M1294.76,-63.58C1251.09,-53.19 1195.24,-39.9 1153.66,-30.01"/>
<polygon fill="#63b8ff" stroke="#63b8ff" points="1294.19,-67.05 1304.73,-65.95 1295.81,-60.24 1294.19,-67.05"/>
</a>
</g>
</g>
<!-- Node6 -->
<g id="Node000006" class="node">
<title>Node6</title>
<g id="a_Node000006"><a xlink:href="canvas2d_8cc.html" target="_top" xlink:title=" ">
<polygon fill="white" stroke="#666666" points="1554.76,-24.5 1430.76,-24.5 1430.76,-5.5 1554.76,-5.5 1554.76,-24.5"/>
<text text-anchor="middle" x="1492.76" y="-12.5" font-family="Helvetica,sans-Serif" font-size="10.00">client/src/canvas2d.cc</text>
</a>
</g>
</g>
<!-- Node4&#45;&gt;Node6 -->
<g id="edge5_Node000004_Node000006" class="edge">
<title>Node4&#45;&gt;Node6</title>
<g id="a_edge5_Node000004_Node000006"><a xlink:title=" ">
<path fill="none" stroke="#63b8ff" d="M1401.13,-61.46C1425.7,-49.27 1456.68,-33.9 1475.59,-24.52"/>
<polygon fill="#63b8ff" stroke="#63b8ff" points="1399.47,-58.38 1392.07,-65.95 1402.59,-64.65 1399.47,-58.38"/>
</a>
</g>
</g>
<!-- Node7 -->
<g id="Node000007" class="node">
<title>Node7</title>
<g id="a_Node000007"><a xlink:href="client__msg__recv_8cc.html" target="_top" xlink:title=" ">
<polygon fill="white" stroke="#666666" points="1690.26,-30 1573.26,-30 1573.26,0 1690.26,0 1690.26,-30"/>
<text text-anchor="start" x="1581.26" y="-18" font-family="Helvetica,sans-Serif" font-size="10.00">client/src/client_msg</text>
<text text-anchor="middle" x="1631.76" y="-7" font-family="Helvetica,sans-Serif" font-size="10.00">_recv.cc</text>
</a>
</g>
</g>
<!-- Node4&#45;&gt;Node7 -->
<g id="edge6_Node000004_Node000007" class="edge">
<title>Node4&#45;&gt;Node7</title>
<g id="a_edge6_Node000004_Node000007"><a xlink:title=" ">
<path fill="none" stroke="#63b8ff" d="M1432.51,-63.58C1476.01,-53.19 1531.66,-39.9 1573.09,-30.01"/>
<polygon fill="#63b8ff" stroke="#63b8ff" points="1431.49,-60.23 1422.58,-65.95 1433.12,-67.04 1431.49,-60.23"/>
</a>
</g>
</g>
<!-- Node8 -->
<g id="Node000008" class="node">
<title>Node8</title>
<g id="a_Node000008"><a xlink:href="field_8cc.html" target="_top" xlink:title=" ">
<polygon fill="white" stroke="#666666" points="1412.76,-24.5 1314.76,-24.5 1314.76,-5.5 1412.76,-5.5 1412.76,-24.5"/>
<text text-anchor="middle" x="1363.76" y="-12.5" font-family="Helvetica,sans-Serif" font-size="10.00">client/src/field.cc</text>
</a>
</g>
</g>
<!-- Node4&#45;&gt;Node8 -->
<g id="edge7_Node000004_Node000008" class="edge">
<title>Node4&#45;&gt;Node8</title>
<g id="a_edge7_Node000004_Node000008"><a xlink:title=" ">
<path fill="none" stroke="#63b8ff" d="M1363.76,-55.6C1363.76,-44.8 1363.76,-32.78 1363.76,-24.84"/>
<polygon fill="#63b8ff" stroke="#63b8ff" points="1360.26,-55.8 1363.76,-65.8 1367.26,-55.8 1360.26,-55.8"/>
</a>
</g>
</g>
<!-- Node9 -->
<g id="Node000009" class="node">
<title>Node9</title>
<g id="a_Node000009"><a xlink:href="member_8cc.html" target="_top" xlink:title=" ">
<polygon fill="white" stroke="#666666" points="1296.76,-24.5 1178.76,-24.5 1178.76,-5.5 1296.76,-5.5 1296.76,-24.5"/>
<text text-anchor="middle" x="1237.76" y="-12.5" font-family="Helvetica,sans-Serif" font-size="10.00">client/src/member.cc</text>
</a>
</g>
</g>
<!-- Node4&#45;&gt;Node9 -->
<g id="edge8_Node000004_Node000009" class="edge">
<title>Node4&#45;&gt;Node9</title>
<g id="a_edge8_Node000004_Node000009"><a xlink:title=" ">
<path fill="none" stroke="#63b8ff" d="M1326.94,-61.3C1303,-49.14 1272.92,-33.86 1254.53,-24.52"/>
<polygon fill="#63b8ff" stroke="#63b8ff" points="1325.61,-64.55 1336.11,-65.95 1328.78,-58.31 1325.61,-64.55"/>
</a>
</g>
</g>
<!-- Node10&#45;&gt;Node5 -->
<g id="edge10_Node000010_Node000005" class="edge">
<title>Node10&#45;&gt;Node5</title>
<g id="a_edge10_Node000010_Node000005"><a xlink:title=" ">
<path fill="none" stroke="#63b8ff" d="M1514.11,-72.51C1429.87,-63.83 1289.74,-48.32 1169.76,-30 1166.75,-29.54 1163.67,-29.05 1160.57,-28.54"/>
<polygon fill="#63b8ff" stroke="#63b8ff" points="1513.8,-76 1524.11,-73.54 1514.52,-69.04 1513.8,-76"/>
</a>
</g>
</g>
<!-- Node10&#45;&gt;Node7 -->
<g id="edge12_Node000010_Node000007" class="edge">
<title>Node10&#45;&gt;Node7</title>
<g id="a_edge12_Node000010_Node000007"><a xlink:title=" ">
<path fill="none" stroke="#63b8ff" d="M1604.7,-57.24C1610.62,-48.21 1617.25,-38.11 1622.47,-30.16"/>
<polygon fill="#63b8ff" stroke="#63b8ff" points="1601.64,-55.52 1599.08,-65.8 1607.5,-59.36 1601.64,-55.52"/>
</a>
</g>
</g>
<!-- Node10&#45;&gt;Node8 -->
<g id="edge13_Node000010_Node000008" class="edge">
<title>Node10&#45;&gt;Node8</title>
<g id="a_edge13_Node000010_Node000008"><a xlink:title=" ">
<path fill="none" stroke="#63b8ff" d="M1530.46,-63.21C1486.56,-50.78 1428.57,-34.35 1393.84,-24.52"/>
<polygon fill="#63b8ff" stroke="#63b8ff" points="1529.59,-66.6 1540.17,-65.95 1531.5,-59.86 1529.59,-66.6"/>
</a>
</g>
</g>
<!-- Node10&#45;&gt;Node9 -->
<g id="edge14_Node000010_Node000009" class="edge">
<title>Node10&#45;&gt;Node9</title>
<g id="a_edge14_Node000010_Node000009"><a xlink:title=" ">
<path fill="none" stroke="#63b8ff" d="M1514.18,-67.3C1456.9,-57.53 1376.27,-43.46 1305.76,-30 1296.88,-28.3 1287.37,-26.4 1278.36,-24.56"/>
<polygon fill="#63b8ff" stroke="#63b8ff" points="1513.79,-70.79 1524.24,-69.01 1514.97,-63.89 1513.79,-70.79"/>
</a>
</g>
</g>
<!-- Node11 -->
<g id="Node000011" class="node">
<title>Node11</title>
<g id="a_Node000011"><a xlink:href="canvas3d_8cc.html" target="_top" xlink:title=" ">
<polygon fill="white" stroke="#666666" points="1832.76,-24.5 1708.76,-24.5 1708.76,-5.5 1832.76,-5.5 1832.76,-24.5"/>
<text text-anchor="middle" x="1770.76" y="-12.5" font-family="Helvetica,sans-Serif" font-size="10.00">client/src/canvas3d.cc</text>
</a>
</g>
</g>
<!-- Node10&#45;&gt;Node11 -->
<g id="edge11_Node000010_Node000011" class="edge">
<title>Node10&#45;&gt;Node11</title>
<g id="a_edge11_Node000010_Node000011"><a xlink:title=" ">
<path fill="none" stroke="#63b8ff" d="M1639.04,-62.58C1673.97,-50.23 1719.32,-34.19 1746.67,-24.52"/>
<polygon fill="#63b8ff" stroke="#63b8ff" points="1637.74,-59.32 1629.48,-65.95 1640.08,-65.92 1637.74,-59.32"/>
</a>
</g>
</g>
<!-- Node12&#45;&gt;Node6 -->
<g id="edge16_Node000012_Node000006" class="edge">
<title>Node12&#45;&gt;Node6</title>
<g id="a_edge16_Node000012_Node000006"><a xlink:title=" ">
<path fill="none" stroke="#63b8ff" d="M1705.41,-63.75C1649.78,-51.26 1575.14,-34.5 1530.69,-24.52"/>
<polygon fill="#63b8ff" stroke="#63b8ff" points="1704.69,-67.18 1715.22,-65.95 1706.23,-60.35 1704.69,-67.18"/>
</a>
</g>
</g>
<!-- Node12&#45;&gt;Node11 -->
<g id="edge17_Node000012_Node000011" class="edge">
<title>Node12&#45;&gt;Node11</title>
<g id="a_edge17_Node000012_Node000011"><a xlink:title=" ">
<path fill="none" stroke="#63b8ff" d="M1775.09,-55.6C1773.91,-44.8 1772.6,-32.78 1771.73,-24.84"/>
<polygon fill="#63b8ff" stroke="#63b8ff" points="1771.64,-56.24 1776.21,-65.8 1778.6,-55.48 1771.64,-56.24"/>
</a>
</g>
</g>
<!-- Node13 -->
<g id="Node000013" class="node">
<title>Node13</title>
<g id="a_Node000013"><a xlink:href="robot__model_8cc.html" target="_top" xlink:title=" ">
<polygon fill="white" stroke="#666666" points="2108.26,-24.5 1969.26,-24.5 1969.26,-5.5 2108.26,-5.5 2108.26,-24.5"/>
<text text-anchor="middle" x="2038.76" y="-12.5" font-family="Helvetica,sans-Serif" font-size="10.00">client/src/robot_model.cc</text>
</a>
</g>
</g>
<!-- Node12&#45;&gt;Node13 -->
<g id="edge18_Node000012_Node000013" class="edge">
<title>Node12&#45;&gt;Node13</title>
<g id="a_edge18_Node000012_Node000013"><a xlink:title=" ">
<path fill="none" stroke="#63b8ff" d="M1844.97,-63.52C1895.82,-51.05 1963.58,-34.44 2004.03,-24.52"/>
<polygon fill="#63b8ff" stroke="#63b8ff" points="1843.92,-60.17 1835.04,-65.95 1845.59,-66.97 1843.92,-60.17"/>
</a>
</g>
</g>
<!-- Node14 -->
<g id="Node000014" class="node">
<title>Node14</title>
<g id="a_Node000014"><a xlink:href="view_8cc.html" target="_top" xlink:title=" ">
<polygon fill="white" stroke="#666666" points="1950.76,-24.5 1850.76,-24.5 1850.76,-5.5 1950.76,-5.5 1950.76,-24.5"/>
<text text-anchor="middle" x="1900.76" y="-12.5" font-family="Helvetica,sans-Serif" font-size="10.00">client/src/view.cc</text>
</a>
</g>
</g>
<!-- Node12&#45;&gt;Node14 -->
<g id="edge19_Node000012_Node000014" class="edge">
<title>Node12&#45;&gt;Node14</title>
<g id="a_edge19_Node000012_Node000014"><a xlink:title=" ">
<path fill="none" stroke="#63b8ff" d="M1813.71,-61.3C1837.08,-49.14 1866.44,-33.86 1884.39,-24.52"/>
<polygon fill="#63b8ff" stroke="#63b8ff" points="1812.01,-58.23 1804.75,-65.95 1815.24,-64.44 1812.01,-58.23"/>
</a>
</g>
</g>
<!-- Node15&#45;&gt;Node5 -->
<g id="edge22_Node000015_Node000005" class="edge">
<title>Node15&#45;&gt;Node5</title>
<g id="a_edge22_Node000015_Node000005"><a xlink:title=" ">
<path fill="none" stroke="#63b8ff" d="M1382.28,-130.75C1344.88,-122.24 1299.36,-110.43 1259.76,-96 1208.31,-77.25 1151.52,-47.59 1119.78,-30.13"/>
<polygon fill="#63b8ff" stroke="#63b8ff" points="1381.58,-134.18 1392.1,-132.95 1383.11,-127.35 1381.58,-134.18"/>
</a>
</g>
</g>
<!-- Node15&#45;&gt;Node8 -->
<g id="edge24_Node000015_Node000008" class="edge">
<title>Node15&#45;&gt;Node8</title>
<g id="a_edge24_Node000015_Node000008"><a xlink:title=" ">
<path fill="none" stroke="#63b8ff" d="M1456.22,-121.52C1454.12,-104.63 1449.21,-82.35 1437.76,-66 1424.33,-46.82 1401,-32.87 1384.12,-24.65"/>
<polygon fill="#63b8ff" stroke="#63b8ff" points="1452.76,-122.13 1457.23,-131.73 1459.73,-121.43 1452.76,-122.13"/>
</a>
</g>
</g>
<!-- Node15&#45;&gt;Node9 -->
<g id="edge25_Node000015_Node000009" class="edge">
<title>Node15&#45;&gt;Node9</title>
<g id="a_edge25_Node000015_Node000009"><a xlink:title=" ">
<path fill="none" stroke="#63b8ff" d="M1382.25,-135.62C1350.97,-128.44 1315.78,-116.35 1288.76,-96 1263.5,-76.98 1247.44,-41.49 1240.99,-24.93"/>
<polygon fill="#63b8ff" stroke="#63b8ff" points="1381.73,-139.09 1392.25,-137.78 1383.21,-132.25 1381.73,-139.09"/>
</a>
</g>
</g>
<!-- Node15&#45;&gt;Node10 -->
<g id="edge21_Node000015_Node000010" class="edge">
<title>Node15&#45;&gt;Node10</title>
<g id="a_edge21_Node000015_Node000010"><a xlink:title=" ">
<path fill="none" stroke="#63b8ff" d="M1495.89,-127.51C1516.6,-117.47 1541.79,-105.26 1560.86,-96.01"/>
<polygon fill="#63b8ff" stroke="#63b8ff" points="1494.2,-124.44 1486.73,-131.95 1497.25,-130.74 1494.2,-124.44"/>
</a>
</g>
</g>
<!-- Node15&#45;&gt;Node13 -->
<g id="edge26_Node000015_Node000013" class="edge">
<title>Node15&#45;&gt;Node13</title>
<g id="a_edge26_Node000015_Node000013"><a xlink:title=" ">
<path fill="none" stroke="#63b8ff" d="M1533.44,-141.02C1631.25,-133.79 1795.67,-118.72 1851.76,-96 1872.36,-87.66 1872.11,-76.37 1891.76,-66 1928,-46.87 1973.03,-32.83 2003.63,-24.58"/>
<polygon fill="#63b8ff" stroke="#63b8ff" points="1533.03,-137.54 1523.31,-141.76 1533.54,-144.52 1533.03,-137.54"/>
</a>
</g>
</g>
<!-- Node16 -->
<g id="Node000016" class="node">
<title>Node16</title>
<g id="a_Node000016"><a xlink:href="component__canvas3d_8cc.html" target="_top" xlink:title=" ">
<polygon fill="white" stroke="#666666" points="1089.26,-96 970.26,-96 970.26,-66 1089.26,-66 1089.26,-96"/>
<text text-anchor="start" x="978.26" y="-84" font-family="Helvetica,sans-Serif" font-size="10.00">client/src/component</text>
<text text-anchor="middle" x="1029.76" y="-73" font-family="Helvetica,sans-Serif" font-size="10.00">_canvas3d.cc</text>
</a>
</g>
</g>
<!-- Node15&#45;&gt;Node16 -->
<g id="edge23_Node000015_Node000016" class="edge">
<title>Node15&#45;&gt;Node16</title>
<g id="a_edge23_Node000015_Node000016"><a xlink:title=" ">
<path fill="none" stroke="#63b8ff" d="M1381.9,-134.66C1298.43,-122.17 1166,-102.37 1089.55,-90.94"/>
<polygon fill="#63b8ff" stroke="#63b8ff" points="1381.42,-138.12 1391.82,-136.14 1382.45,-131.2 1381.42,-138.12"/>
</a>
</g>
</g>
<!-- Node17&#45;&gt;Node5 -->
<g id="edge29_Node000017_Node000005" class="edge">
<title>Node17&#45;&gt;Node5</title>
<g id="a_edge29_Node000017_Node000005"><a xlink:title=" ">
<path fill="none" stroke="#63b8ff" d="M1209.46,-124.84C1181.33,-98.15 1133.74,-52.99 1109.67,-30.14"/>
<polygon fill="#63b8ff" stroke="#63b8ff" points="1207.18,-127.5 1216.84,-131.84 1211.99,-122.42 1207.18,-127.5"/>
</a>
</g>
</g>
<!-- Node17&#45;&gt;Node7 -->
<g id="edge32_Node000017_Node000007" class="edge">
<title>Node17&#45;&gt;Node7</title>
<g id="a_edge32_Node000017_Node000007"><a xlink:title=" ">
<path fill="none" stroke="#63b8ff" d="M1307.21,-130.6C1346.53,-121.84 1395.18,-109.86 1437.76,-96 1469.03,-85.83 1552.65,-50.23 1599.25,-30.12"/>
<polygon fill="#63b8ff" stroke="#63b8ff" points="1306.43,-127.18 1297.42,-132.75 1307.94,-134.02 1306.43,-127.18"/>
</a>
</g>
</g>
<!-- Node17&#45;&gt;Node8 -->
<g id="edge33_Node000017_Node000008" class="edge">
<title>Node17&#45;&gt;Node8</title>
<g id="a_edge33_Node000017_Node000008"><a xlink:title=" ">
<path fill="none" stroke="#63b8ff" d="M1244.94,-123.08C1255.42,-106.09 1271.2,-83.03 1288.76,-66 1306.63,-48.68 1331.23,-33.59 1347.31,-24.64"/>
<polygon fill="#63b8ff" stroke="#63b8ff" points="1241.84,-121.44 1239.69,-131.81 1247.84,-125.05 1241.84,-121.44"/>
</a>
</g>
</g>
<!-- Node17&#45;&gt;Node9 -->
<g id="edge34_Node000017_Node000009" class="edge">
<title>Node17&#45;&gt;Node9</title>
<g id="a_edge34_Node000017_Node000009"><a xlink:title=" ">
<path fill="none" stroke="#63b8ff" d="M1223.04,-122.22C1218.32,-106.29 1214.13,-84.85 1217.76,-66 1220.7,-50.76 1228.23,-34.26 1233.17,-24.54"/>
<polygon fill="#63b8ff" stroke="#63b8ff" points="1219.74,-123.37 1226.15,-131.81 1226.4,-121.22 1219.74,-123.37"/>
</a>
</g>
</g>
<!-- Node17&#45;&gt;Node12 -->
<g id="edge28_Node000017_Node000012" class="edge">
<title>Node17&#45;&gt;Node12</title>
<g id="a_edge28_Node000017_Node000012"><a xlink:title=" ">
<path fill="none" stroke="#63b8ff" d="M1307.56,-138.49C1419.69,-127.26 1624.42,-106.34 1697.76,-96 1702.37,-95.35 1707.12,-94.64 1711.9,-93.88"/>
<polygon fill="#63b8ff" stroke="#63b8ff" points="1306.94,-135.03 1297.34,-139.51 1307.64,-142 1306.94,-135.03"/>
</a>
</g>
</g>
<!-- Node17&#45;&gt;Node14 -->
<g id="edge35_Node000017_Node000014" class="edge">
<title>Node17&#45;&gt;Node14</title>
<g id="a_edge35_Node000017_Node000014"><a xlink:title=" ">
<path fill="none" stroke="#63b8ff" d="M1307.67,-138.28C1427.21,-125.96 1647.51,-102.59 1663.76,-96 1684.03,-87.78 1683.09,-75.54 1702.76,-66 1710.14,-62.42 1810.26,-37.9 1865.22,-24.58"/>
<polygon fill="#63b8ff" stroke="#63b8ff" points="1307.07,-134.82 1297.48,-139.32 1307.79,-141.78 1307.07,-134.82"/>
</a>
</g>
</g>
<!-- Node18 -->
<g id="Node000018" class="node">
<title>Node18</title>
<g id="a_Node000018"><a xlink:href="c__wcf_2member_8cc.html" target="_top" xlink:title=" ">
<polygon fill="white" stroke="#666666" points="952.26,-90.5 803.26,-90.5 803.26,-71.5 952.26,-71.5 952.26,-90.5"/>
<text text-anchor="middle" x="877.76" y="-78.5" font-family="Helvetica,sans-Serif" font-size="10.00">client/src/c_wcf/member.cc</text>
</a>
</g>
</g>
<!-- Node17&#45;&gt;Node18 -->
<g id="edge30_Node000017_Node000018" class="edge">
<title>Node17&#45;&gt;Node18</title>
<g id="a_edge30_Node000017_Node000018"><a xlink:title=" ">
<path fill="none" stroke="#63b8ff" d="M1155.9,-132.29C1085.79,-119.61 983.81,-101.17 924.79,-90.5"/>
<polygon fill="#63b8ff" stroke="#63b8ff" points="1155.54,-135.78 1166.01,-134.11 1156.79,-128.89 1155.54,-135.78"/>
</a>
</g>
</g>
<!-- Node19 -->
<g id="Node000019" class="node">
<title>Node19</title>
<g id="a_Node000019"><a xlink:href="c__wcf_2view_8cc.html" target="_top" xlink:title=" ">
<polygon fill="white" stroke="#666666" points="747.26,-90.5 616.26,-90.5 616.26,-71.5 747.26,-71.5 747.26,-90.5"/>
<text text-anchor="middle" x="681.76" y="-78.5" font-family="Helvetica,sans-Serif" font-size="10.00">client/src/c_wcf/view.cc</text>
</a>
</g>
</g>
<!-- Node17&#45;&gt;Node19 -->
<g id="edge31_Node000017_Node000019" class="edge">
<title>Node17&#45;&gt;Node19</title>
<g id="a_edge31_Node000017_Node000019"><a xlink:title=" ">
<path fill="none" stroke="#63b8ff" d="M1155.98,-137.6C1068.63,-127.86 920.77,-111.19 793.76,-96 778.78,-94.21 762.68,-92.23 747.49,-90.33"/>
<polygon fill="#63b8ff" stroke="#63b8ff" points="1155.74,-141.09 1166.07,-138.72 1156.51,-134.14 1155.74,-141.09"/>
</a>
</g>
</g>
<!-- Node20&#45;&gt;Node18 -->
<g id="edge40_Node000020_Node000018" class="edge">
<title>Node20&#45;&gt;Node18</title>
<g id="a_edge40_Node000020_Node000018"><a xlink:title=" ">
<path fill="none" stroke="#63b8ff" d="M593.89,-134.81C661.69,-122.2 770.46,-101.96 831.81,-90.55"/>
<polygon fill="#63b8ff" stroke="#63b8ff" points="592.97,-131.42 583.78,-136.69 594.25,-138.31 592.97,-131.42"/>
</a>
</g>
</g>
<!-- Node20&#45;&gt;Node19 -->
<g id="edge43_Node000020_Node000019" class="edge">
<title>Node20&#45;&gt;Node19</title>
<g id="a_edge43_Node000020_Node000019"><a xlink:title=" ">
<path fill="none" stroke="#63b8ff" d="M575.52,-127.94C603.88,-115.68 640.08,-100.02 662.07,-90.52"/>
<polygon fill="#63b8ff" stroke="#63b8ff" points="574.03,-124.77 566.24,-131.95 576.81,-131.2 574.03,-124.77"/>
</a>
</g>
</g>
<!-- Node21 -->
<g id="Node000021" class="node">
<title>Node21</title>
<g id="a_Node000021"><a xlink:href="client_8cc.html" target="_top" xlink:title=" ">
<polygon fill="white" stroke="#666666" points="304.26,-90.5 169.26,-90.5 169.26,-71.5 304.26,-71.5 304.26,-90.5"/>
<text text-anchor="middle" x="236.76" y="-78.5" font-family="Helvetica,sans-Serif" font-size="10.00">client/src/c_wcf/client.cc</text>
</a>
</g>
</g>
<!-- Node20&#45;&gt;Node21 -->
<g id="edge38_Node000020_Node000021" class="edge">
<title>Node20&#45;&gt;Node21</title>
<g id="a_edge38_Node000020_Node000021"><a xlink:title=" ">
<path fill="none" stroke="#63b8ff" d="M473.82,-133.08C415.06,-120.42 327.15,-101.48 276.53,-90.57"/>
<polygon fill="#63b8ff" stroke="#63b8ff" points="473.2,-136.53 483.72,-135.22 474.68,-129.69 473.2,-136.53"/>
</a>
</g>
</g>
<!-- Node22 -->
<g id="Node000022" class="node">
<title>Node22</title>
<g id="a_Node000022"><a xlink:href="c__wcf_2func_8cc.html" target="_top" xlink:title=" ">
<polygon fill="white" stroke="#666666" points="451.26,-90.5 322.26,-90.5 322.26,-71.5 451.26,-71.5 451.26,-90.5"/>
<text text-anchor="middle" x="386.76" y="-78.5" font-family="Helvetica,sans-Serif" font-size="10.00">client/src/c_wcf/func.cc</text>
</a>
</g>
</g>
<!-- Node20&#45;&gt;Node22 -->
<g id="edge39_Node000020_Node000022" class="edge">
<title>Node20&#45;&gt;Node22</title>
<g id="a_edge39_Node000020_Node000022"><a xlink:title=" ">
<path fill="none" stroke="#63b8ff" d="M492.28,-127.94C464.12,-115.68 428.16,-100.02 406.33,-90.52"/>
<polygon fill="#63b8ff" stroke="#63b8ff" points="490.94,-131.17 501.5,-131.95 493.73,-124.75 490.94,-131.17"/>
</a>
</g>
</g>
<!-- Node23 -->
<g id="Node000023" class="node">
<title>Node23</title>
<g id="a_Node000023"><a xlink:href="c__wcf_2text_8cc.html" target="_top" xlink:title=" ">
<polygon fill="white" stroke="#666666" points="597.76,-90.5 469.76,-90.5 469.76,-71.5 597.76,-71.5 597.76,-90.5"/>
<text text-anchor="middle" x="533.76" y="-78.5" font-family="Helvetica,sans-Serif" font-size="10.00">client/src/c_wcf/text.cc</text>
</a>
</g>
</g>
<!-- Node20&#45;&gt;Node23 -->
<g id="edge41_Node000020_Node000023" class="edge">
<title>Node20&#45;&gt;Node23</title>
<g id="a_edge41_Node000020_Node000023"><a xlink:title=" ">
<path fill="none" stroke="#63b8ff" d="M533.76,-121.6C533.76,-110.8 533.76,-98.78 533.76,-90.84"/>
<polygon fill="#63b8ff" stroke="#63b8ff" points="530.26,-121.8 533.76,-131.8 537.26,-121.8 530.26,-121.8"/>
</a>
</g>
</g>
<!-- Node24 -->
<g id="Node000024" class="node">
<title>Node24</title>
<g id="a_Node000024"><a xlink:href="c__wcf_2value_8cc.html" target="_top" xlink:title=" ">
<polygon fill="white" stroke="#666666" points="151.26,-90.5 16.26,-90.5 16.26,-71.5 151.26,-71.5 151.26,-90.5"/>
<text text-anchor="middle" x="83.76" y="-78.5" font-family="Helvetica,sans-Serif" font-size="10.00">client/src/c_wcf/value.cc</text>
</a>
</g>
</g>
<!-- Node20&#45;&gt;Node24 -->
<g id="edge42_Node000020_Node000024" class="edge">
<title>Node20&#45;&gt;Node24</title>
<g id="a_edge42_Node000020_Node000024"><a xlink:title=" ">
<path fill="none" stroke="#63b8ff" d="M473.67,-138.89C399.68,-129.93 270.21,-113.55 159.76,-96 149.43,-94.36 138.33,-92.42 127.9,-90.51"/>
<polygon fill="#63b8ff" stroke="#63b8ff" points="473.39,-142.38 483.74,-140.11 474.23,-135.43 473.39,-142.38"/>
</a>
</g>
</g>
<!-- Node26&#45;&gt;Node3 -->
<g id="edge46_Node000026_Node000003" class="edge">
<title>Node26&#45;&gt;Node3</title>
<g id="a_edge46_Node000026_Node000003"><a xlink:title=" ">
<path fill="none" stroke="#63b8ff" d="M1314.49,-257.2C1325.32,-247.7 1337.88,-236.69 1347.61,-228.16"/>
<polygon fill="#63b8ff" stroke="#63b8ff" points="1312.17,-254.57 1306.96,-263.8 1316.79,-259.84 1312.17,-254.57"/>
</a>
</g>
</g>
<!-- Node26&#45;&gt;Node16 -->
<g id="edge47_Node000026_Node000016" class="edge">
<title>Node26&#45;&gt;Node16</title>
<g id="a_edge47_Node000026_Node000016"><a xlink:title=" ">
<path fill="none" stroke="#63b8ff" d="M1263.76,-257.72C1210.78,-217.93 1094.41,-130.55 1048.71,-96.23"/>
<polygon fill="#63b8ff" stroke="#63b8ff" points="1261.89,-260.7 1271.99,-263.9 1266.1,-255.1 1261.89,-260.7"/>
</a>
</g>
</g>
<!-- Node27&#45;&gt;Node5 -->
<g id="edge58_Node000027_Node000005" class="edge">
<title>Node27&#45;&gt;Node5</title>
<g id="a_edge58_Node000027_Node000005"><a xlink:title=" ">
<path fill="none" stroke="#63b8ff" d="M1701.81,-206.84C1560.04,-197.04 1260.15,-175.53 1156.76,-162 994.17,-140.73 898.83,-221.89 793.76,-96 785.22,-85.76 785.14,-76.17 793.76,-66 823.3,-31.15 949.7,-20.56 1029.01,-17.36"/>
<polygon fill="#63b8ff" stroke="#63b8ff" points="1701.93,-210.35 1712.15,-207.55 1702.41,-203.37 1701.93,-210.35"/>
</a>
</g>
</g>
<!-- Node27&#45;&gt;Node12 -->
<g id="edge50_Node000027_Node000012" class="edge">
<title>Node27&#45;&gt;Node12</title>
<g id="a_edge50_Node000027_Node000012"><a xlink:title=" ">
<path fill="none" stroke="#63b8ff" d="M1777.76,-187.68C1777.76,-160.7 1777.76,-118.11 1777.76,-96.14"/>
<polygon fill="#63b8ff" stroke="#63b8ff" points="1774.26,-187.84 1777.76,-197.84 1781.26,-187.84 1774.26,-187.84"/>
</a>
</g>
</g>
<!-- Node27&#45;&gt;Node15 -->
<g id="edge57_Node000027_Node000015" class="edge">
<title>Node27&#45;&gt;Node15</title>
<g id="a_edge57_Node000027_Node000015"><a xlink:title=" ">
<path fill="none" stroke="#63b8ff" d="M1702.31,-196.91C1647.99,-186.05 1575.43,-171.53 1523.48,-161.14"/>
<polygon fill="#63b8ff" stroke="#63b8ff" points="1701.74,-200.37 1712.23,-198.89 1703.11,-193.5 1701.74,-200.37"/>
</a>
</g>
</g>
<!-- Node28 -->
<g id="Node000028" class="node">
<title>Node28</title>
<g id="a_Node000028"><a xlink:href="robot__link__internal_8h.html" target="_top" xlink:title=" ">
<polygon fill="white" stroke="#666666" points="2183.26,-162 2022.26,-162 2022.26,-132 2183.26,-132 2183.26,-162"/>
<text text-anchor="start" x="2030.26" y="-150" font-family="Helvetica,sans-Serif" font-size="10.00">client/include/webcface</text>
<text text-anchor="middle" x="2102.76" y="-139" font-family="Helvetica,sans-Serif" font-size="10.00">/internal/robot_link_internal.h</text>
</a>
</g>
</g>
<!-- Node27&#45;&gt;Node28 -->
<g id="edge51_Node000027_Node000028" class="edge">
<title>Node27&#45;&gt;Node28</title>
<g id="a_edge51_Node000027_Node000028"><a xlink:title=" ">
<path fill="none" stroke="#63b8ff" d="M1853.34,-197.12C1907.06,-186.54 1978.72,-172.43 2031.45,-162.04"/>
<polygon fill="#63b8ff" stroke="#63b8ff" points="1852.67,-193.68 1843.53,-199.05 1854.02,-200.55 1852.67,-193.68"/>
</a>
</g>
</g>
<!-- Node30 -->
<g id="Node000030" class="node">
<title>Node30</title>
<g id="a_Node000030"><a xlink:href="data__store2_8cc.html" target="_top" xlink:title=" ">
<polygon fill="white" stroke="#666666" points="2035.26,-90.5 1900.26,-90.5 1900.26,-71.5 2035.26,-71.5 2035.26,-90.5"/>
<text text-anchor="middle" x="1967.76" y="-78.5" font-family="Helvetica,sans-Serif" font-size="10.00">client/src/data_store2.cc</text>
</a>
</g>
</g>
<!-- Node27&#45;&gt;Node30 -->
<g id="edge59_Node000027_Node000030" class="edge">
<title>Node27&#45;&gt;Node30</title>
<g id="a_edge59_Node000027_Node000030"><a xlink:title=" ">
<path fill="none" stroke="#63b8ff" d="M1806.88,-192.07C1848.93,-163.31 1924.88,-111.34 1954.98,-90.75"/>
<polygon fill="#63b8ff" stroke="#63b8ff" points="1804.73,-189.3 1798.46,-197.84 1808.69,-195.08 1804.73,-189.3"/>
</a>
</g>
</g>
<!-- Node31 -->
<g id="Node000031" class="node">
<title>Node31</title>
<g id="a_Node000031"><a xlink:href="robot__link_8cc.html" target="_top" xlink:title=" ">
<polygon fill="white" stroke="#666666" points="2391.76,-90.5 2265.76,-90.5 2265.76,-71.5 2391.76,-71.5 2391.76,-90.5"/>
<text text-anchor="middle" x="2328.76" y="-78.5" font-family="Helvetica,sans-Serif" font-size="10.00">client/src/robot_link.cc</text>
</a>
</g>
</g>
<!-- Node27&#45;&gt;Node31 -->
<g id="edge60_Node000027_Node000031" class="edge">
<title>Node27&#45;&gt;Node31</title>
<g id="a_edge60_Node000027_Node000031"><a xlink:title=" ">
<path fill="none" stroke="#63b8ff" d="M1853.62,-212.09C1938.42,-210.11 2078.8,-200.5 2192.76,-162 2243.37,-144.9 2295.79,-107.43 2317.9,-90.55"/>
<polygon fill="#63b8ff" stroke="#63b8ff" points="1853.49,-208.6 1843.56,-212.3 1853.63,-215.59 1853.49,-208.6"/>
</a>
</g>
</g>
<!-- Node28&#45;&gt;Node7 -->
<g id="edge52_Node000028_Node000007" class="edge">
<title>Node28&#45;&gt;Node7</title>
<g id="a_edge52_Node000028_Node000007"><a xlink:title=" ">
<path fill="none" stroke="#63b8ff" d="M2092.6,-122.78C2083.1,-104.08 2067.03,-78.86 2044.76,-66 1978.01,-27.45 1775.94,-41.79 1699.76,-30 1696.66,-29.52 1693.5,-28.99 1690.3,-28.44"/>
<polygon fill="#63b8ff" stroke="#63b8ff" points="2089.48,-124.37 2096.97,-131.87 2095.79,-121.34 2089.48,-124.37"/>
</a>
</g>
</g>
<!-- Node28&#45;&gt;Node13 -->
<g id="edge56_Node000028_Node000013" class="edge">
<title>Node28&#45;&gt;Node13</title>
<g id="a_edge56_Node000028_Node000013"><a xlink:title=" ">
<path fill="none" stroke="#63b8ff" d="M2164.93,-128.58C2202.54,-114.82 2239.57,-93.38 2218.76,-66 2203.99,-46.57 2144.38,-32.7 2097.75,-24.58"/>
<polygon fill="#63b8ff" stroke="#63b8ff" points="2163.67,-125.31 2155.38,-131.91 2165.98,-131.92 2163.67,-125.31"/>
</a>
</g>
</g>
<!-- Node29 -->
<g id="Node000029" class="node">
<title>Node29</title>
<g id="a_Node000029"><a xlink:href="client__msg__sync_8cc.html" target="_top" xlink:title=" ">
<polygon fill="white" stroke="#666666" points="2209.26,-96 2092.26,-96 2092.26,-66 2209.26,-66 2209.26,-96"/>
<text text-anchor="start" x="2100.26" y="-84" font-family="Helvetica,sans-Serif" font-size="10.00">client/src/client_msg</text>
<text text-anchor="middle" x="2150.76" y="-73" font-family="Helvetica,sans-Serif" font-size="10.00">_sync.cc</text>
</a>
</g>
</g>
<!-- Node28&#45;&gt;Node29 -->
<g id="edge53_Node000028_Node000029" class="edge">
<title>Node28&#45;&gt;Node29</title>
<g id="a_edge53_Node000028_Node000029"><a xlink:title=" ">
<path fill="none" stroke="#63b8ff" d="M2119.62,-123.53C2126.44,-114.43 2134.12,-104.19 2140.14,-96.16"/>
<polygon fill="#63b8ff" stroke="#63b8ff" points="2116.61,-121.7 2113.41,-131.8 2122.21,-125.9 2116.61,-121.7"/>
</a>
</g>
</g>
<!-- Node28&#45;&gt;Node30 -->
<g id="edge54_Node000028_Node000030" class="edge">
<title>Node28&#45;&gt;Node30</title>
<g id="a_edge54_Node000028_Node000030"><a xlink:title=" ">
<path fill="none" stroke="#63b8ff" d="M2063.99,-127.62C2038.23,-115.41 2005.61,-99.94 1985.73,-90.52"/>
<polygon fill="#63b8ff" stroke="#63b8ff" points="2062.6,-130.83 2073.14,-131.95 2065.6,-124.51 2062.6,-130.83"/>
</a>
</g>
</g>
<!-- Node28&#45;&gt;Node31 -->
<g id="edge55_Node000028_Node000031" class="edge">
<title>Node28&#45;&gt;Node31</title>
<g id="a_edge55_Node000028_Node000031"><a xlink:title=" ">
<path fill="none" stroke="#63b8ff" d="M2162.06,-129.21C2205.96,-116.78 2263.95,-100.35 2298.69,-90.52"/>
<polygon fill="#63b8ff" stroke="#63b8ff" points="2161.03,-125.86 2152.36,-131.95 2162.93,-132.6 2161.03,-125.86"/>
</a>
</g>
</g>
</g>
</svg>
