<?xml version="1.0" encoding="UTF-8" standalone="no"?>
<!DOCTYPE svg PUBLIC "-//W3C//DTD SVG 1.1//EN"
 "http://www.w3.org/Graphics/SVG/1.1/DTD/svg11.dtd">
<!-- Generated by graphviz version 2.43.0 (0)
 -->
<!-- Title: client/include/webcface/component_canvas2d.h Pages: 1 -->
<svg width="1853pt" height="368pt"
 viewBox="0.00 0.00 1853.00 368.00" xmlns="http://www.w3.org/2000/svg" xmlns:xlink="http://www.w3.org/1999/xlink">
<g id="graph0" class="graph" transform="scale(1 1) rotate(0) translate(4 364)">
<title>client/include/webcface/component_canvas2d.h</title>
<!-- Node1 -->
<g id="Node000001" class="node">
<title>Node1</title>
<g id="a_Node000001"><a xlink:title=" ">
<polygon fill="#999999" stroke="#666666" points="699,-360 564,-360 564,-330 699,-330 699,-360"/>
<text text-anchor="start" x="572" y="-348" font-family="Helvetica,sans-Serif" font-size="10.00">client/include/webcface</text>
<text text-anchor="middle" x="631.5" y="-337" font-family="Helvetica,sans-Serif" font-size="10.00">/component_canvas2d.h</text>
</a>
</g>
</g>
<!-- Node2 -->
<g id="Node000002" class="node">
<title>Node2</title>
<g id="a_Node000002"><a xlink:href="components_8h.html" target="_top" xlink:title=" ">
<polygon fill="white" stroke="#666666" points="626,-294 495,-294 495,-264 626,-264 626,-294"/>
<text text-anchor="start" x="503" y="-282" font-family="Helvetica,sans-Serif" font-size="10.00">client/include/webcface</text>
<text text-anchor="middle" x="560.5" y="-271" font-family="Helvetica,sans-Serif" font-size="10.00">/components.h</text>
</a>
</g>
</g>
<!-- Node1&#45;&gt;Node2 -->
<g id="edge1_Node000001_Node000002" class="edge">
<title>Node1&#45;&gt;Node2</title>
<g id="a_edge1_Node000001_Node000002"><a xlink:title=" ">
<path fill="none" stroke="#63b8ff" d="M608.12,-322.92C597.65,-313.49 585.58,-302.61 576.21,-294.16"/>
<polygon fill="#63b8ff" stroke="#63b8ff" points="605.97,-325.7 615.74,-329.8 610.66,-320.5 605.97,-325.7"/>
</a>
</g>
</g>
<!-- Node26 -->
<g id="Node000026" class="node">
<title>Node26</title>
<g id="a_Node000026"><a xlink:href="component__canvas2d_8cc.html" target="_top" xlink:title=" ">
<polygon fill="white" stroke="#666666" points="763,-294 644,-294 644,-264 763,-264 763,-294"/>
<text text-anchor="start" x="652" y="-282" font-family="Helvetica,sans-Serif" font-size="10.00">client/src/component</text>
<text text-anchor="middle" x="703.5" y="-271" font-family="Helvetica,sans-Serif" font-size="10.00">_canvas2d.cc</text>
</a>
</g>
</g>
<!-- Node1&#45;&gt;Node26 -->
<g id="edge45_Node000001_Node000026" class="edge">
<title>Node1&#45;&gt;Node26</title>
<g id="a_edge45_Node000001_Node000026"><a xlink:title=" ">
<path fill="none" stroke="#63b8ff" d="M655.21,-322.92C665.83,-313.49 678.07,-302.61 687.57,-294.16"/>
<polygon fill="#63b8ff" stroke="#63b8ff" points="652.63,-320.54 647.48,-329.8 657.28,-325.77 652.63,-320.54"/>
</a>
</g>
</g>
<!-- Node3 -->
<g id="Node000003" class="node">
<title>Node3</title>
<g id="a_Node000003"><a xlink:href="client_2include_2webcface_2canvas2d_8h.html" target="_top" xlink:title=" ">
<polygon fill="white" stroke="#666666" points="626,-162 495,-162 495,-132 626,-132 626,-162"/>
<text text-anchor="start" x="503" y="-150" font-family="Helvetica,sans-Serif" font-size="10.00">client/include/webcface</text>
<text text-anchor="middle" x="560.5" y="-139" font-family="Helvetica,sans-Serif" font-size="10.00">/canvas2d.h</text>
</a>
</g>
</g>
<!-- Node2&#45;&gt;Node3 -->
<g id="edge2_Node000002_Node000003" class="edge">
<title>Node2&#45;&gt;Node3</title>
<g id="a_edge2_Node000002_Node000003"><a xlink:title=" ">
<path fill="none" stroke="#63b8ff" d="M560.5,-253.68C560.5,-226.7 560.5,-184.11 560.5,-162.14"/>
<polygon fill="#63b8ff" stroke="#63b8ff" points="557,-253.84 560.5,-263.84 564,-253.84 557,-253.84"/>
</a>
</g>
</g>
<!-- Node4 -->
<g id="Node000004" class="node">
<title>Node4</title>
<g id="a_Node000004"><a xlink:href="webcface_8h.html" target="_top" xlink:title=" ">
<polygon fill="white" stroke="#666666" points="205,-96 74,-96 74,-66 205,-66 205,-96"/>
<text text-anchor="start" x="82" y="-84" font-family="Helvetica,sans-Serif" font-size="10.00">client/include/webcface</text>
<text text-anchor="middle" x="139.5" y="-73" font-family="Helvetica,sans-Serif" font-size="10.00">/webcface.h</text>
</a>
</g>
</g>
<!-- Node2&#45;&gt;Node4 -->
<g id="edge37_Node000002_Node000004" class="edge">
<title>Node2&#45;&gt;Node4</title>
<g id="a_edge37_Node000002_Node000004"><a xlink:title=" ">
<path fill="none" stroke="#63b8ff" d="M484.48,-273.11C352.18,-262.78 88.69,-233.52 36.5,-162 15.68,-133.47 58.48,-110 95.1,-96.02"/>
<polygon fill="#63b8ff" stroke="#63b8ff" points="484.31,-276.61 494.54,-273.88 484.84,-269.63 484.31,-276.61"/>
</a>
</g>
</g>
<!-- Node11 -->
<g id="Node000011" class="node">
<title>Node11</title>
<g id="a_Node000011"><a xlink:href="client_2include_2webcface_2canvas3d_8h.html" target="_top" xlink:title=" ">
<polygon fill="white" stroke="#666666" points="477,-162 346,-162 346,-132 477,-132 477,-162"/>
<text text-anchor="start" x="354" y="-150" font-family="Helvetica,sans-Serif" font-size="10.00">client/include/webcface</text>
<text text-anchor="middle" x="411.5" y="-139" font-family="Helvetica,sans-Serif" font-size="10.00">/canvas3d.h</text>
</a>
</g>
</g>
<!-- Node2&#45;&gt;Node11 -->
<g id="edge10_Node000002_Node000011" class="edge">
<title>Node2&#45;&gt;Node11</title>
<g id="a_edge10_Node000002_Node000011"><a xlink:title=" ">
<path fill="none" stroke="#63b8ff" d="M536.63,-257.18C506.09,-230.53 454.01,-185.09 427.71,-162.14"/>
<polygon fill="#63b8ff" stroke="#63b8ff" points="534.43,-259.9 544.27,-263.84 539.04,-254.63 534.43,-259.9"/>
</a>
</g>
</g>
<!-- Node13 -->
<g id="Node000013" class="node">
<title>Node13</title>
<g id="a_Node000013"><a xlink:href="data__buffer_8h.html" target="_top" xlink:title=" ">
<polygon fill="white" stroke="#666666" points="890,-162 759,-162 759,-132 890,-132 890,-162"/>
<text text-anchor="start" x="767" y="-150" font-family="Helvetica,sans-Serif" font-size="10.00">client/include/webcface</text>
<text text-anchor="middle" x="824.5" y="-139" font-family="Helvetica,sans-Serif" font-size="10.00">/internal/data_buffer.h</text>
</a>
</g>
</g>
<!-- Node2&#45;&gt;Node13 -->
<g id="edge16_Node000002_Node000013" class="edge">
<title>Node2&#45;&gt;Node13</title>
<g id="a_edge16_Node000002_Node000013"><a xlink:title=" ">
<path fill="none" stroke="#63b8ff" d="M636.21,-262.4C690.64,-250.74 756.33,-235.55 767.5,-228 792.08,-211.38 809.58,-180.4 818.27,-162.25"/>
<polygon fill="#63b8ff" stroke="#63b8ff" points="635.25,-259.03 626.2,-264.54 636.7,-265.88 635.25,-259.03"/>
</a>
</g>
</g>
<!-- Node16 -->
<g id="Node000016" class="node">
<title>Node16</title>
<g id="a_Node000016"><a xlink:href="client_2include_2webcface_2robot__model_8h.html" target="_top" xlink:title=" ">
<polygon fill="white" stroke="#666666" points="383,-228 252,-228 252,-198 383,-198 383,-228"/>
<text text-anchor="start" x="260" y="-216" font-family="Helvetica,sans-Serif" font-size="10.00">client/include/webcface</text>
<text text-anchor="middle" x="317.5" y="-205" font-family="Helvetica,sans-Serif" font-size="10.00">/robot_model.h</text>
</a>
</g>
</g>
<!-- Node2&#45;&gt;Node16 -->
<g id="edge21_Node000002_Node000016" class="edge">
<title>Node2&#45;&gt;Node16</title>
<g id="a_edge21_Node000002_Node000016"><a xlink:title=" ">
<path fill="none" stroke="#63b8ff" d="M497.42,-261.39C458.08,-251.03 408.03,-237.84 370.7,-228.01"/>
<polygon fill="#63b8ff" stroke="#63b8ff" points="496.61,-264.79 507.17,-263.95 498.39,-258.02 496.61,-264.79"/>
</a>
</g>
</g>
<!-- Node18 -->
<g id="Node000018" class="node">
<title>Node18</title>
<g id="a_Node000018"><a xlink:href="client_2include_2webcface_2view_8h.html" target="_top" xlink:title=" ">
<polygon fill="white" stroke="#666666" points="758,-228 627,-228 627,-198 758,-198 758,-228"/>
<text text-anchor="start" x="635" y="-216" font-family="Helvetica,sans-Serif" font-size="10.00">client/include/webcface</text>
<text text-anchor="middle" x="692.5" y="-205" font-family="Helvetica,sans-Serif" font-size="10.00">/view.h</text>
</a>
</g>
</g>
<!-- Node2&#45;&gt;Node18 -->
<g id="edge28_Node000002_Node000018" class="edge">
<title>Node2&#45;&gt;Node18</title>
<g id="a_edge28_Node000002_Node000018"><a xlink:title=" ">
<path fill="none" stroke="#63b8ff" d="M598.63,-259.51C619.34,-249.47 644.53,-237.26 663.6,-228.01"/>
<polygon fill="#63b8ff" stroke="#63b8ff" points="596.94,-256.44 589.47,-263.95 599.99,-262.74 596.94,-256.44"/>
</a>
</g>
</g>
<!-- Node21 -->
<g id="Node000021" class="node">
<title>Node21</title>
<g id="a_Node000021"><a xlink:href="c__wcf__internal_8h.html" target="_top" xlink:title=" ">
<polygon fill="white" stroke="#666666" points="1380.5,-228 1280.5,-228 1280.5,-198 1380.5,-198 1380.5,-228"/>
<text text-anchor="start" x="1288.5" y="-216" font-family="Helvetica,sans-Serif" font-size="10.00">client/src/c_wcf/c</text>
<text text-anchor="middle" x="1330.5" y="-205" font-family="Helvetica,sans-Serif" font-size="10.00">_wcf_internal.h</text>
</a>
</g>
</g>
<!-- Node2&#45;&gt;Node21 -->
<g id="edge38_Node000002_Node000021" class="edge">
<title>Node2&#45;&gt;Node21</title>
<g id="a_edge38_Node000002_Node000021"><a xlink:title=" ">
<path fill="none" stroke="#63b8ff" d="M636.43,-263.84C882.96,-232.36 1166.72,-219.72 1280.08,-215.63"/>
<polygon fill="#63b8ff" stroke="#63b8ff" points="635.67,-260.41 626.2,-265.16 636.57,-267.35 635.67,-260.41"/>
</a>
</g>
</g>
<!-- Node3&#45;&gt;Node4 -->
<g id="edge3_Node000003_Node000004" class="edge">
<title>Node3&#45;&gt;Node4</title>
<g id="a_edge3_Node000003_Node000004"><a xlink:title=" ">
<path fill="none" stroke="#63b8ff" d="M484.67,-131.92C363.82,-112.95 331.32,-114.65 214.5,-96 211.49,-95.52 208.42,-95.01 205.32,-94.49"/>
<polygon fill="#63b8ff" stroke="#63b8ff" points="484.26,-135.4 494.68,-133.51 485.36,-128.49 484.26,-135.4"/>
</a>
</g>
</g>
<!-- Node7 -->
<g id="Node000007" class="node">
<title>Node7</title>
<g id="a_Node000007"><a xlink:href="canvas2d_8cc.html" target="_top" xlink:title=" ">
<polygon fill="white" stroke="#666666" points="877.5,-90.5 753.5,-90.5 753.5,-71.5 877.5,-71.5 877.5,-90.5"/>
<text text-anchor="middle" x="815.5" y="-78.5" font-family="Helvetica,sans-Serif" font-size="10.00">client/src/canvas2d.cc</text>
</a>
</g>
</g>
<!-- Node3&#45;&gt;Node7 -->
<g id="edge6_Node000003_Node000007" class="edge">
<title>Node3&#45;&gt;Node7</title>
<g id="a_edge6_Node000003_Node000007"><a xlink:title=" ">
<path fill="none" stroke="#63b8ff" d="M626.16,-129.52C675.84,-117.05 742.04,-100.44 781.56,-90.52"/>
<polygon fill="#63b8ff" stroke="#63b8ff" points="625.31,-126.13 616.46,-131.95 627.01,-132.92 625.31,-126.13"/>
</a>
</g>
</g>
<!-- Node8 -->
<g id="Node000008" class="node">
<title>Node8</title>
<g id="a_Node000008"><a xlink:href="client__msg__recv_8cc.html" target="_top" xlink:title=" ">
<polygon fill="white" stroke="#666666" points="593,-96 476,-96 476,-66 593,-66 593,-96"/>
<text text-anchor="start" x="484" y="-84" font-family="Helvetica,sans-Serif" font-size="10.00">client/src/client_msg</text>
<text text-anchor="middle" x="534.5" y="-73" font-family="Helvetica,sans-Serif" font-size="10.00">_recv.cc</text>
</a>
</g>
</g>
<!-- Node3&#45;&gt;Node8 -->
<g id="edge7_Node000003_Node000008" class="edge">
<title>Node3&#45;&gt;Node8</title>
<g id="a_edge7_Node000003_Node000008"><a xlink:title=" ">
<path fill="none" stroke="#63b8ff" d="M550.91,-122.39C547.33,-113.59 543.38,-103.86 540.25,-96.16"/>
<polygon fill="#63b8ff" stroke="#63b8ff" points="547.72,-123.85 554.73,-131.8 554.21,-121.21 547.72,-123.85"/>
</a>
</g>
</g>
<!-- Node9 -->
<g id="Node000009" class="node">
<title>Node9</title>
<g id="a_Node000009"><a xlink:href="field_8cc.html" target="_top" xlink:title=" ">
<polygon fill="white" stroke="#666666" points="457.5,-90.5 359.5,-90.5 359.5,-71.5 457.5,-71.5 457.5,-90.5"/>
<text text-anchor="middle" x="408.5" y="-78.5" font-family="Helvetica,sans-Serif" font-size="10.00">client/src/field.cc</text>
</a>
</g>
</g>
<!-- Node3&#45;&gt;Node9 -->
<g id="edge8_Node000003_Node000009" class="edge">
<title>Node3&#45;&gt;Node9</title>
<g id="a_edge8_Node000003_Node000009"><a xlink:title=" ">
<path fill="none" stroke="#63b8ff" d="M517.61,-127.94C488.49,-115.68 451.31,-100.02 428.73,-90.52"/>
<polygon fill="#63b8ff" stroke="#63b8ff" points="516.57,-131.3 527.14,-131.95 519.28,-124.85 516.57,-131.3"/>
</a>
</g>
</g>
<!-- Node10 -->
<g id="Node000010" class="node">
<title>Node10</title>
<g id="a_Node000010"><a xlink:href="member_8cc.html" target="_top" xlink:title=" ">
<polygon fill="white" stroke="#666666" points="341.5,-90.5 223.5,-90.5 223.5,-71.5 341.5,-71.5 341.5,-90.5"/>
<text text-anchor="middle" x="282.5" y="-78.5" font-family="Helvetica,sans-Serif" font-size="10.00">client/src/member.cc</text>
</a>
</g>
</g>
<!-- Node3&#45;&gt;Node10 -->
<g id="edge9_Node000003_Node000010" class="edge">
<title>Node3&#45;&gt;Node10</title>
<g id="a_edge9_Node000003_Node000010"><a xlink:title=" ">
<path fill="none" stroke="#63b8ff" d="M489.59,-129.68C435.36,-117.19 362.76,-100.48 319.5,-90.52"/>
<polygon fill="#63b8ff" stroke="#63b8ff" points="488.96,-133.12 499.49,-131.95 490.53,-126.3 488.96,-133.12"/>
</a>
</g>
</g>
<!-- Node5 -->
<g id="Node000005" class="node">
<title>Node5</title>
<g id="a_Node000005"><a xlink:href="webcface_8cc.html" target="_top" xlink:title=" ">
<polygon fill="white" stroke="#666666" points="131,-30 0,-30 0,0 131,0 131,-30"/>
<text text-anchor="start" x="8" y="-18" font-family="Helvetica,sans-Serif" font-size="10.00">client/include/webcface</text>
<text text-anchor="middle" x="65.5" y="-7" font-family="Helvetica,sans-Serif" font-size="10.00">/modules/webcface.cc</text>
</a>
</g>
</g>
<!-- Node4&#45;&gt;Node5 -->
<g id="edge4_Node000004_Node000005" class="edge">
<title>Node4&#45;&gt;Node5</title>
<g id="a_edge4_Node000004_Node000005"><a xlink:title=" ">
<path fill="none" stroke="#63b8ff" d="M115.45,-59.2C104.47,-49.7 91.74,-38.69 81.88,-30.16"/>
<polygon fill="#63b8ff" stroke="#63b8ff" points="113.22,-61.9 123.08,-65.8 117.8,-56.61 113.22,-61.9"/>
</a>
</g>
</g>
<!-- Node6 -->
<g id="Node000006" class="node">
<title>Node6</title>
<g id="a_Node000006"><a xlink:href="webcface_8ixx.html" target="_top" xlink:title=" ">
<polygon fill="white" stroke="#666666" points="280,-30 149,-30 149,0 280,0 280,-30"/>
<text text-anchor="start" x="157" y="-18" font-family="Helvetica,sans-Serif" font-size="10.00">client/include/webcface</text>
<text text-anchor="middle" x="214.5" y="-7" font-family="Helvetica,sans-Serif" font-size="10.00">/modules/webcface.ixx</text>
</a>
</g>
</g>
<!-- Node4&#45;&gt;Node6 -->
<g id="edge5_Node000004_Node000006" class="edge">
<title>Node4&#45;&gt;Node6</title>
<g id="a_edge5_Node000004_Node000006"><a xlink:title=" ">
<path fill="none" stroke="#63b8ff" d="M163.87,-59.2C175.01,-49.7 187.91,-38.69 197.9,-30.16"/>
<polygon fill="#63b8ff" stroke="#63b8ff" points="161.48,-56.64 156.14,-65.8 166.02,-61.97 161.48,-56.64"/>
</a>
</g>
</g>
<!-- Node11&#45;&gt;Node4 -->
<g id="edge11_Node000011_Node000004" class="edge">
<title>Node11&#45;&gt;Node4</title>
<g id="a_edge11_Node000011_Node000004"><a xlink:title=" ">
<path fill="none" stroke="#63b8ff" d="M342.01,-129.65C297.81,-119.25 241.18,-105.93 199.05,-96.01"/>
<polygon fill="#63b8ff" stroke="#63b8ff" points="341.27,-133.07 351.81,-131.95 342.88,-126.26 341.27,-133.07"/>
</a>
</g>
</g>
<!-- Node11&#45;&gt;Node8 -->
<g id="edge13_Node000011_Node000008" class="edge">
<title>Node11&#45;&gt;Node8</title>
<g id="a_edge13_Node000011_Node000008"><a xlink:title=" ">
<path fill="none" stroke="#63b8ff" d="M447.55,-127.24C466.75,-117.25 489.96,-105.18 507.57,-96.01"/>
<polygon fill="#63b8ff" stroke="#63b8ff" points="445.75,-124.23 438.49,-131.95 448.98,-130.44 445.75,-124.23"/>
</a>
</g>
</g>
<!-- Node11&#45;&gt;Node9 -->
<g id="edge14_Node000011_Node000009" class="edge">
<title>Node11&#45;&gt;Node9</title>
<g id="a_edge14_Node000011_Node000009"><a xlink:title=" ">
<path fill="none" stroke="#63b8ff" d="M410.36,-121.6C409.85,-110.8 409.29,-98.78 408.91,-90.84"/>
<polygon fill="#63b8ff" stroke="#63b8ff" points="406.87,-121.97 410.83,-131.8 413.86,-121.64 406.87,-121.97"/>
</a>
</g>
</g>
<!-- Node11&#45;&gt;Node10 -->
<g id="edge15_Node000011_Node000010" class="edge">
<title>Node11&#45;&gt;Node10</title>
<g id="a_edge15_Node000011_Node000010"><a xlink:title=" ">
<path fill="none" stroke="#63b8ff" d="M374.13,-127.46C349.56,-115.27 318.58,-99.9 299.67,-90.52"/>
<polygon fill="#63b8ff" stroke="#63b8ff" points="372.68,-130.65 383.19,-131.95 375.79,-124.38 372.68,-130.65"/>
</a>
</g>
</g>
<!-- Node12 -->
<g id="Node000012" class="node">
<title>Node12</title>
<g id="a_Node000012"><a xlink:href="canvas3d_8cc.html" target="_top" xlink:title=" ">
<polygon fill="white" stroke="#666666" points="735.5,-90.5 611.5,-90.5 611.5,-71.5 735.5,-71.5 735.5,-90.5"/>
<text text-anchor="middle" x="673.5" y="-78.5" font-family="Helvetica,sans-Serif" font-size="10.00">client/src/canvas3d.cc</text>
</a>
</g>
</g>
<!-- Node11&#45;&gt;Node12 -->
<g id="edge12_Node000011_Node000012" class="edge">
<title>Node11&#45;&gt;Node12</title>
<g id="a_edge12_Node000011_Node000012"><a xlink:title=" ">
<path fill="none" stroke="#63b8ff" d="M478.97,-129.52C530.01,-117.05 598.03,-100.44 638.63,-90.52"/>
<polygon fill="#63b8ff" stroke="#63b8ff" points="477.88,-126.18 469,-131.95 479.54,-132.98 477.88,-126.18"/>
</a>
</g>
</g>
<!-- Node13&#45;&gt;Node7 -->
<g id="edge17_Node000013_Node000007" class="edge">
<title>Node13&#45;&gt;Node7</title>
<g id="a_edge17_Node000013_Node000007"><a xlink:title=" ">
<path fill="none" stroke="#63b8ff" d="M821.07,-121.6C819.55,-110.8 817.86,-98.78 816.74,-90.84"/>
<polygon fill="#63b8ff" stroke="#63b8ff" points="817.64,-122.38 822.5,-131.8 824.58,-121.41 817.64,-122.38"/>
</a>
</g>
</g>
<!-- Node13&#45;&gt;Node12 -->
<g id="edge18_Node000013_Node000012" class="edge">
<title>Node13&#45;&gt;Node12</title>
<g id="a_edge18_Node000013_Node000012"><a xlink:title=" ">
<path fill="none" stroke="#63b8ff" d="M781.89,-127.94C752.96,-115.68 716.02,-100.02 693.6,-90.52"/>
<polygon fill="#63b8ff" stroke="#63b8ff" points="780.79,-131.28 791.36,-131.95 783.52,-124.83 780.79,-131.28"/>
</a>
</g>
</g>
<!-- Node14 -->
<g id="Node000014" class="node">
<title>Node14</title>
<g id="a_Node000014"><a xlink:href="robot__model_8cc.html" target="_top" xlink:title=" ">
<polygon fill="white" stroke="#666666" points="1035,-90.5 896,-90.5 896,-71.5 1035,-71.5 1035,-90.5"/>
<text text-anchor="middle" x="965.5" y="-78.5" font-family="Helvetica,sans-Serif" font-size="10.00">client/src/robot_model.cc</text>
</a>
</g>
</g>
<!-- Node13&#45;&gt;Node14 -->
<g id="edge19_Node000013_Node000014" class="edge">
<title>Node13&#45;&gt;Node14</title>
<g id="a_edge19_Node000013_Node000014"><a xlink:title=" ">
<path fill="none" stroke="#63b8ff" d="M864.64,-127.78C891.6,-115.54 925.88,-99.98 946.74,-90.52"/>
<polygon fill="#63b8ff" stroke="#63b8ff" points="863.1,-124.63 855.44,-131.95 866,-131.01 863.1,-124.63"/>
</a>
</g>
</g>
<!-- Node15 -->
<g id="Node000015" class="node">
<title>Node15</title>
<g id="a_Node000015"><a xlink:href="view_8cc.html" target="_top" xlink:title=" ">
<polygon fill="white" stroke="#666666" points="1153.5,-90.5 1053.5,-90.5 1053.5,-71.5 1153.5,-71.5 1153.5,-90.5"/>
<text text-anchor="middle" x="1103.5" y="-78.5" font-family="Helvetica,sans-Serif" font-size="10.00">client/src/view.cc</text>
</a>
</g>
</g>
<!-- Node13&#45;&gt;Node15 -->
<g id="edge20_Node000013_Node000015" class="edge">
<title>Node13&#45;&gt;Node15</title>
<g id="a_edge20_Node000013_Node000015"><a xlink:title=" ">
<path fill="none" stroke="#63b8ff" d="M896.92,-129.72C939.84,-120.03 995.3,-107.43 1044.5,-96 1051.99,-94.26 1060,-92.38 1067.63,-90.57"/>
<polygon fill="#63b8ff" stroke="#63b8ff" points="896.11,-126.32 887.12,-131.93 897.65,-133.15 896.11,-126.32"/>
</a>
</g>
</g>
<!-- Node16&#45;&gt;Node4 -->
<g id="edge23_Node000016_Node000004" class="edge">
<title>Node16&#45;&gt;Node4</title>
<g id="a_edge23_Node000016_Node000004"><a xlink:title=" ">
<path fill="none" stroke="#63b8ff" d="M241.61,-208.56C170.29,-203.54 70.93,-191.35 46.5,-162 24.63,-135.73 66.74,-110.95 101.2,-96.12"/>
<polygon fill="#63b8ff" stroke="#63b8ff" points="241.71,-212.07 251.92,-209.25 242.18,-205.09 241.71,-212.07"/>
</a>
</g>
</g>
<!-- Node16&#45;&gt;Node9 -->
<g id="edge25_Node000016_Node000009" class="edge">
<title>Node16&#45;&gt;Node9</title>
<g id="a_edge25_Node000016_Node000009"><a xlink:title=" ">
<path fill="none" stroke="#63b8ff" d="M318.75,-187.58C320.65,-170.71 325.28,-148.45 336.5,-132 349.53,-112.89 372.47,-98.85 388.96,-90.59"/>
<polygon fill="#63b8ff" stroke="#63b8ff" points="315.25,-187.5 317.86,-197.77 322.22,-188.11 315.25,-187.5"/>
</a>
</g>
</g>
<!-- Node16&#45;&gt;Node10 -->
<g id="edge26_Node000016_Node000010" class="edge">
<title>Node16&#45;&gt;Node10</title>
<g id="a_edge26_Node000016_Node000010"><a xlink:title=" ">
<path fill="none" stroke="#63b8ff" d="M288.08,-191.33C279.1,-183.31 270.32,-173.32 265.5,-162 255.04,-137.44 269.11,-105.81 277.33,-90.74"/>
<polygon fill="#63b8ff" stroke="#63b8ff" points="286.01,-194.16 295.94,-197.86 290.48,-188.78 286.01,-194.16"/>
</a>
</g>
</g>
<!-- Node16&#45;&gt;Node11 -->
<g id="edge22_Node000016_Node000011" class="edge">
<title>Node16&#45;&gt;Node11</title>
<g id="a_edge22_Node000016_Node000011"><a xlink:title=" ">
<path fill="none" stroke="#63b8ff" d="M346.83,-192.03C361.06,-182.34 377.81,-170.94 390.7,-162.16"/>
<polygon fill="#63b8ff" stroke="#63b8ff" points="344.66,-189.28 338.36,-197.8 348.6,-195.06 344.66,-189.28"/>
</a>
</g>
</g>
<!-- Node16&#45;&gt;Node14 -->
<g id="edge27_Node000016_Node000014" class="edge">
<title>Node16&#45;&gt;Node14</title>
<g id="a_edge27_Node000016_Node000014"><a xlink:title=" ">
<path fill="none" stroke="#63b8ff" d="M393.18,-202.16C457.63,-193.28 552.56,-179.02 634.5,-162 686.64,-151.17 698.78,-144.7 750.5,-132 812.28,-116.83 884.34,-100.31 927.37,-90.57"/>
<polygon fill="#63b8ff" stroke="#63b8ff" points="392.53,-198.72 383.1,-203.54 393.48,-205.65 392.53,-198.72"/>
</a>
</g>
</g>
<!-- Node17 -->
<g id="Node000017" class="node">
<title>Node17</title>
<g id="a_Node000017"><a xlink:href="component__canvas3d_8cc.html" target="_top" xlink:title=" ">
<polygon fill="white" stroke="#666666" points="175,-162 56,-162 56,-132 175,-132 175,-162"/>
<text text-anchor="start" x="64" y="-150" font-family="Helvetica,sans-Serif" font-size="10.00">client/src/component</text>
<text text-anchor="middle" x="115.5" y="-139" font-family="Helvetica,sans-Serif" font-size="10.00">_canvas3d.cc</text>
</a>
</g>
</g>
<!-- Node16&#45;&gt;Node17 -->
<g id="edge24_Node000016_Node000017" class="edge">
<title>Node16&#45;&gt;Node17</title>
<g id="a_edge24_Node000016_Node000017"><a xlink:title=" ">
<path fill="none" stroke="#63b8ff" d="M263.39,-194.86C230.95,-184.58 190.23,-171.68 159.73,-162.01"/>
<polygon fill="#63b8ff" stroke="#63b8ff" points="262.58,-198.27 273.17,-197.95 264.69,-191.6 262.58,-198.27"/>
</a>
</g>
</g>
<!-- Node18&#45;&gt;Node4 -->
<g id="edge30_Node000018_Node000004" class="edge">
<title>Node18&#45;&gt;Node4</title>
<g id="a_edge30_Node000018_Node000004"><a xlink:title=" ">
<path fill="none" stroke="#63b8ff" d="M616.38,-209.52C536.84,-205.25 409.16,-193.63 303.5,-162 250.24,-146.06 192.93,-114.38 162.15,-96.03"/>
<polygon fill="#63b8ff" stroke="#63b8ff" points="616.63,-213.04 626.8,-210.05 616.99,-206.05 616.63,-213.04"/>
</a>
</g>
</g>
<!-- Node18&#45;&gt;Node8 -->
<g id="edge33_Node000018_Node000008" class="edge">
<title>Node18&#45;&gt;Node8</title>
<g id="a_edge33_Node000018_Node000008"><a xlink:title=" ">
<path fill="none" stroke="#63b8ff" d="M690.9,-187.94C688.52,-170.41 682.7,-147.16 668.5,-132 656.79,-119.49 618.77,-105.94 586.2,-96.1"/>
<polygon fill="#63b8ff" stroke="#63b8ff" points="687.43,-188.43 691.97,-198 694.39,-187.68 687.43,-188.43"/>
</a>
</g>
</g>
<!-- Node18&#45;&gt;Node9 -->
<g id="edge34_Node000018_Node000009" class="edge">
<title>Node18&#45;&gt;Node9</title>
<g id="a_edge34_Node000018_Node000009"><a xlink:title=" ">
<path fill="none" stroke="#63b8ff" d="M681.67,-188.82C671.91,-170.54 655.82,-145.89 634.5,-132 570.51,-90.33 540.95,-112.96 466.5,-96 458.93,-94.27 450.81,-92.36 443.12,-90.51"/>
<polygon fill="#63b8ff" stroke="#63b8ff" points="678.66,-190.63 686.31,-197.96 684.9,-187.46 678.66,-190.63"/>
</a>
</g>
</g>
<!-- Node18&#45;&gt;Node10 -->
<g id="edge35_Node000018_Node000010" class="edge">
<title>Node18&#45;&gt;Node10</title>
<g id="a_edge35_Node000018_Node000010"><a xlink:title=" ">
<path fill="none" stroke="#63b8ff" d="M616.8,-208.53C526.46,-203.18 381.93,-190.37 336.5,-162 308.79,-144.69 291.96,-107.33 285.52,-90.51"/>
<polygon fill="#63b8ff" stroke="#63b8ff" points="616.8,-212.04 626.99,-209.12 617.21,-205.05 616.8,-212.04"/>
</a>
</g>
</g>
<!-- Node18&#45;&gt;Node13 -->
<g id="edge29_Node000018_Node000013" class="edge">
<title>Node18&#45;&gt;Node13</title>
<g id="a_edge29_Node000018_Node000013"><a xlink:title=" ">
<path fill="none" stroke="#63b8ff" d="M730.63,-193.51C751.34,-183.47 776.53,-171.26 795.6,-162.01"/>
<polygon fill="#63b8ff" stroke="#63b8ff" points="728.94,-190.44 721.47,-197.95 731.99,-196.74 728.94,-190.44"/>
</a>
</g>
</g>
<!-- Node18&#45;&gt;Node15 -->
<g id="edge36_Node000018_Node000015" class="edge">
<title>Node18&#45;&gt;Node15</title>
<g id="a_edge36_Node000018_Node000015"><a xlink:title=" ">
<path fill="none" stroke="#63b8ff" d="M768.33,-201.53C808.67,-194.05 858.3,-181.72 899.5,-162 919.23,-152.56 919.05,-142 938.5,-132 961.59,-120.13 1029.17,-101.38 1070.33,-90.53"/>
<polygon fill="#63b8ff" stroke="#63b8ff" points="767.51,-198.12 758.28,-203.33 768.74,-205.01 767.51,-198.12"/>
</a>
</g>
</g>
<!-- Node19 -->
<g id="Node000019" class="node">
<title>Node19</title>
<g id="a_Node000019"><a xlink:href="c__wcf_2member_8cc.html" target="_top" xlink:title=" ">
<polygon fill="white" stroke="#666666" points="1245,-156.5 1096,-156.5 1096,-137.5 1245,-137.5 1245,-156.5"/>
<text text-anchor="middle" x="1170.5" y="-144.5" font-family="Helvetica,sans-Serif" font-size="10.00">client/src/c_wcf/member.cc</text>
</a>
</g>
</g>
<!-- Node18&#45;&gt;Node19 -->
<g id="edge31_Node000018_Node000019" class="edge">
<title>Node18&#45;&gt;Node19</title>
<g id="a_edge31_Node000018_Node000019"><a xlink:title=" ">
<path fill="none" stroke="#63b8ff" d="M768.25,-203.35C847.86,-194.04 976.67,-178.35 1087.5,-162 1098.63,-160.36 1110.58,-158.44 1121.84,-156.55"/>
<polygon fill="#63b8ff" stroke="#63b8ff" points="767.84,-199.87 758.31,-204.51 768.65,-206.83 767.84,-199.87"/>
</a>
</g>
</g>
<!-- Node20 -->
<g id="Node000020" class="node">
<title>Node20</title>
<g id="a_Node000020"><a xlink:href="c__wcf_2view_8cc.html" target="_top" xlink:title=" ">
<polygon fill="white" stroke="#666666" points="1078,-156.5 947,-156.5 947,-137.5 1078,-137.5 1078,-156.5"/>
<text text-anchor="middle" x="1012.5" y="-144.5" font-family="Helvetica,sans-Serif" font-size="10.00">client/src/c_wcf/view.cc</text>
</a>
</g>
</g>
<!-- Node18&#45;&gt;Node20 -->
<g id="edge32_Node000018_Node000020" class="edge">
<title>Node18&#45;&gt;Node20</title>
<g id="a_edge32_Node000018_Node000020"><a xlink:title=" ">
<path fill="none" stroke="#63b8ff" d="M767.9,-196.92C830.74,-184.35 918.02,-166.9 969.55,-156.59"/>
<polygon fill="#63b8ff" stroke="#63b8ff" points="767.15,-193.5 758.03,-198.89 768.52,-200.36 767.15,-193.5"/>
</a>
</g>
</g>
<!-- Node21&#45;&gt;Node19 -->
<g id="edge41_Node000021_Node000019" class="edge">
<title>Node21&#45;&gt;Node19</title>
<g id="a_edge41_Node000021_Node000019"><a xlink:title=" ">
<path fill="none" stroke="#63b8ff" d="M1285.75,-194.1C1255.04,-181.82 1215.66,-166.06 1191.79,-156.52"/>
<polygon fill="#63b8ff" stroke="#63b8ff" points="1284.8,-197.49 1295.39,-197.95 1287.4,-190.99 1284.8,-197.49"/>
</a>
</g>
</g>
<!-- Node21&#45;&gt;Node20 -->
<g id="edge44_Node000021_Node000020" class="edge">
<title>Node21&#45;&gt;Node20</title>
<g id="a_edge44_Node000021_Node000020"><a xlink:title=" ">
<path fill="none" stroke="#63b8ff" d="M1270.3,-199.88C1207.44,-187.23 1110.48,-167.72 1055.12,-156.58"/>
<polygon fill="#63b8ff" stroke="#63b8ff" points="1269.97,-203.39 1280.46,-201.93 1271.35,-196.53 1269.97,-203.39"/>
</a>
</g>
</g>
<!-- Node22 -->
<g id="Node000022" class="node">
<title>Node22</title>
<g id="a_Node000022"><a xlink:href="client_8cc.html" target="_top" xlink:title=" ">
<polygon fill="white" stroke="#666666" points="1398,-156.5 1263,-156.5 1263,-137.5 1398,-137.5 1398,-156.5"/>
<text text-anchor="middle" x="1330.5" y="-144.5" font-family="Helvetica,sans-Serif" font-size="10.00">client/src/c_wcf/client.cc</text>
</a>
</g>
</g>
<!-- Node21&#45;&gt;Node22 -->
<g id="edge39_Node000021_Node000022" class="edge">
<title>Node21&#45;&gt;Node22</title>
<g id="a_edge39_Node000021_Node000022"><a xlink:title=" ">
<path fill="none" stroke="#63b8ff" d="M1330.5,-187.6C1330.5,-176.8 1330.5,-164.78 1330.5,-156.84"/>
<polygon fill="#63b8ff" stroke="#63b8ff" points="1327,-187.8 1330.5,-197.8 1334,-187.8 1327,-187.8"/>
</a>
</g>
</g>
<!-- Node23 -->
<g id="Node000023" class="node">
<title>Node23</title>
<g id="a_Node000023"><a xlink:href="c__wcf_2func_8cc.html" target="_top" xlink:title=" ">
<polygon fill="white" stroke="#666666" points="1545,-156.5 1416,-156.5 1416,-137.5 1545,-137.5 1545,-156.5"/>
<text text-anchor="middle" x="1480.5" y="-144.5" font-family="Helvetica,sans-Serif" font-size="10.00">client/src/c_wcf/func.cc</text>
</a>
</g>
</g>
<!-- Node21&#45;&gt;Node23 -->
<g id="edge40_Node000021_Node000023" class="edge">
<title>Node21&#45;&gt;Node23</title>
<g id="a_edge40_Node000021_Node000023"><a xlink:title=" ">
<path fill="none" stroke="#63b8ff" d="M1372.83,-193.94C1401.56,-181.68 1438.26,-166.02 1460.54,-156.52"/>
<polygon fill="#63b8ff" stroke="#63b8ff" points="1371.24,-190.81 1363.42,-197.95 1373.99,-197.25 1371.24,-190.81"/>
</a>
</g>
</g>
<!-- Node24 -->
<g id="Node000024" class="node">
<title>Node24</title>
<g id="a_Node000024"><a xlink:href="c__wcf_2text_8cc.html" target="_top" xlink:title=" ">
<polygon fill="white" stroke="#666666" points="1691.5,-156.5 1563.5,-156.5 1563.5,-137.5 1691.5,-137.5 1691.5,-156.5"/>
<text text-anchor="middle" x="1627.5" y="-144.5" font-family="Helvetica,sans-Serif" font-size="10.00">client/src/c_wcf/text.cc</text>
</a>
</g>
</g>
<!-- Node21&#45;&gt;Node24 -->
<g id="edge42_Node000021_Node000024" class="edge">
<title>Node21&#45;&gt;Node24</title>
<g id="a_edge42_Node000021_Node000024"><a xlink:title=" ">
<path fill="none" stroke="#63b8ff" d="M1390.44,-199.08C1449.2,-186.42 1537.11,-167.48 1587.73,-156.57"/>
<polygon fill="#63b8ff" stroke="#63b8ff" points="1389.58,-195.69 1380.55,-201.22 1391.06,-202.53 1389.58,-195.69"/>
</a>
</g>
</g>
<!-- Node25 -->
<g id="Node000025" class="node">
<title>Node25</title>
<g id="a_Node000025"><a xlink:href="c__wcf_2value_8cc.html" target="_top" xlink:title=" ">
<polygon fill="white" stroke="#666666" points="1845,-156.5 1710,-156.5 1710,-137.5 1845,-137.5 1845,-156.5"/>
<text text-anchor="middle" x="1777.5" y="-144.5" font-family="Helvetica,sans-Serif" font-size="10.00">client/src/c_wcf/value.cc</text>
</a>
</g>
</g>
<!-- Node21&#45;&gt;Node25 -->
<g id="edge43_Node000021_Node000025" class="edge">
<title>Node21&#45;&gt;Node25</title>
<g id="a_edge43_Node000021_Node000025"><a xlink:title=" ">
<path fill="none" stroke="#63b8ff" d="M1390.55,-204.74C1463.85,-195.68 1591.51,-179.26 1700.5,-162 1710.83,-160.36 1721.92,-158.44 1732.36,-156.56"/>
<polygon fill="#63b8ff" stroke="#63b8ff" points="1390.07,-201.27 1380.58,-205.97 1390.93,-208.22 1390.07,-201.27"/>
</a>
</g>
</g>
</g>
</svg>
