<?xml version="1.0" encoding="UTF-8" standalone="no"?>
<!DOCTYPE svg PUBLIC "-//W3C//DTD SVG 1.1//EN"
 "http://www.w3.org/Graphics/SVG/1.1/DTD/svg11.dtd">
<!-- Generated by graphviz version 2.43.0 (0)
 -->
<!-- Title: client/include/webcface/component_view.h Pages: 1 -->
<svg width="831pt" height="269pt"
 viewBox="0.00 0.00 831.20 269.00" xmlns="http://www.w3.org/2000/svg" xmlns:xlink="http://www.w3.org/1999/xlink">
<g id="graph0" class="graph" transform="scale(1 1) rotate(0) translate(4 265)">
<title>client/include/webcface/component_view.h</title>
<!-- Node1 -->
<g id="Node000001" class="node">
<title>Node1</title>
<g id="a_Node000001"><a xlink:title=" ">
<polygon fill="#999999" stroke="#666666" points="332.64,-261 201.64,-261 201.64,-231 332.64,-231 332.64,-261"/>
<text text-anchor="start" x="209.64" y="-249" font-family="Helvetica,sans-Serif" font-size="10.00">client/include/webcface</text>
<text text-anchor="middle" x="267.14" y="-238" font-family="Helvetica,sans-Serif" font-size="10.00">/component_view.h</text>
</a>
</g>
</g>
<!-- Node2 -->
<g id="Node000002" class="node">
<title>Node2</title>
<g id="a_Node000002"><a xlink:title=" ">
<polygon fill="#e0e0e0" stroke="#999999" points="78.64,-134.5 13.64,-134.5 13.64,-115.5 78.64,-115.5 78.64,-134.5"/>
<text text-anchor="middle" x="46.14" y="-122.5" font-family="Helvetica,sans-Serif" font-size="10.00">functional</text>
</a>
</g>
</g>
<!-- Node1&#45;&gt;Node2 -->
<g id="edge1_Node000001_Node000002" class="edge">
<title>Node1&#45;&gt;Node2</title>
<g id="a_edge1_Node000001_Node000002"><a xlink:title=" ">
<path fill="none" stroke="#63b8ff" d="M240.93,-230.88C197.97,-207.75 113.16,-162.09 71.06,-139.42"/>
<polygon fill="#63b8ff" stroke="#63b8ff" points="72.51,-136.22 62.04,-134.56 69.19,-142.38 72.51,-136.22"/>
</a>
</g>
</g>
<!-- Node3 -->
<g id="Node000003" class="node">
<title>Node3</title>
<g id="a_Node000003"><a xlink:title=" ">
<polygon fill="#e0e0e0" stroke="#999999" points="153.14,-134.5 97.14,-134.5 97.14,-115.5 153.14,-115.5 153.14,-134.5"/>
<text text-anchor="middle" x="125.14" y="-122.5" font-family="Helvetica,sans-Serif" font-size="10.00">optional</text>
</a>
</g>
</g>
<!-- Node1&#45;&gt;Node3 -->
<g id="edge2_Node000001_Node000003" class="edge">
<title>Node1&#45;&gt;Node3</title>
<g id="a_edge2_Node000001_Node000003"><a xlink:title=" ">
<path fill="none" stroke="#63b8ff" d="M250.3,-230.88C223.4,-208.34 170.97,-164.41 143.28,-141.2"/>
<polygon fill="#63b8ff" stroke="#63b8ff" points="145.45,-138.45 135.54,-134.71 140.96,-143.82 145.45,-138.45"/>
</a>
</g>
</g>
<!-- Node4 -->
<g id="Node000004" class="node">
<title>Node4</title>
<g id="a_Node000004"><a xlink:title=" ">
<polygon fill="#e0e0e0" stroke="#999999" points="575.64,-195 482.64,-195 482.64,-176 575.64,-176 575.64,-195"/>
<text text-anchor="middle" x="529.14" y="-183" font-family="Helvetica,sans-Serif" font-size="10.00">unordered_map</text>
</a>
</g>
</g>
<!-- Node1&#45;&gt;Node4 -->
<g id="edge3_Node000001_Node000004" class="edge">
<title>Node1&#45;&gt;Node4</title>
<g id="a_edge3_Node000001_Node000004"><a xlink:title=" ">
<path fill="none" stroke="#63b8ff" d="M329.9,-230.99C376.29,-220.63 438.52,-206.73 481.02,-197.25"/>
<polygon fill="#63b8ff" stroke="#63b8ff" points="481.84,-200.65 490.84,-195.05 480.31,-193.82 481.84,-200.65"/>
</a>
</g>
</g>
<!-- Node5 -->
<g id="Node000005" class="node">
<title>Node5</title>
<g id="a_Node000005"><a xlink:title=" ">
<polygon fill="#e0e0e0" stroke="#999999" points="491.64,-74 444.64,-74 444.64,-55 491.64,-55 491.64,-74"/>
<text text-anchor="middle" x="468.14" y="-62" font-family="Helvetica,sans-Serif" font-size="10.00">vector</text>
</a>
</g>
</g>
<!-- Node1&#45;&gt;Node5 -->
<g id="edge4_Node000001_Node000005" class="edge">
<title>Node1&#45;&gt;Node5</title>
<g id="a_edge4_Node000001_Node000005"><a xlink:title=" ">
<path fill="none" stroke="#63b8ff" d="M282.92,-230.91C319.91,-197.88 412.06,-115.59 450.68,-81.1"/>
<polygon fill="#63b8ff" stroke="#63b8ff" points="453.35,-83.41 458.48,-74.13 448.69,-78.19 453.35,-83.41"/>
</a>
</g>
</g>
<!-- Node6 -->
<g id="Node000006" class="node">
<title>Node6</title>
<g id="a_Node000006"><a xlink:href="webcface-config_8h.html" target="_top" xlink:title=" ">
<polygon fill="white" stroke="#666666" points="204.64,-19 99.64,-19 99.64,0 204.64,0 204.64,-19"/>
<text text-anchor="middle" x="152.14" y="-7" font-family="Helvetica,sans-Serif" font-size="10.00">webcface&#45;config.h</text>
</a>
</g>
</g>
<!-- Node1&#45;&gt;Node6 -->
<g id="edge5_Node000001_Node000006" class="edge">
<title>Node1&#45;&gt;Node6</title>
<g id="a_edge5_Node000001_Node000006"><a xlink:title=" ">
<path fill="none" stroke="#63b8ff" d="M201.6,-239.16C139,-229.7 47.92,-204.92 4.14,-140 -4.7,-126.89 3.29,-63.35 10.14,-55 21.49,-41.19 62.04,-29.31 96.92,-21.31"/>
<polygon fill="#63b8ff" stroke="#63b8ff" points="98.05,-24.64 107.05,-19.05 96.53,-17.81 98.05,-24.64"/>
</a>
</g>
</g>
<!-- Node7 -->
<g id="Node000007" class="node">
<title>Node7</title>
<g id="a_Node000007"><a xlink:href="common_2val__adaptor_8h.html" target="_top" xlink:title=" ">
<polygon fill="white" stroke="#666666" points="645.64,-140 518.64,-140 518.64,-110 645.64,-110 645.64,-140"/>
<text text-anchor="start" x="526.64" y="-128" font-family="Helvetica,sans-Serif" font-size="10.00">webcface/common/val</text>
<text text-anchor="middle" x="582.14" y="-117" font-family="Helvetica,sans-Serif" font-size="10.00">_adaptor.h</text>
</a>
</g>
</g>
<!-- Node1&#45;&gt;Node7 -->
<g id="edge6_Node000001_Node000007" class="edge">
<title>Node1&#45;&gt;Node7</title>
<g id="a_edge6_Node000001_Node000007"><a xlink:title=" ">
<path fill="none" stroke="#63b8ff" d="M319.11,-230.91C351.41,-221.69 393.6,-208.83 430.14,-195 435.83,-192.85 499.29,-163.91 542.39,-144.2"/>
<polygon fill="#63b8ff" stroke="#63b8ff" points="543.88,-147.37 551.52,-140.02 540.97,-141 543.88,-147.37"/>
</a>
</g>
</g>
<!-- Node16 -->
<g id="Node000016" class="node">
<title>Node16</title>
<g id="a_Node000016"><a xlink:href="client_2include_2webcface_2text_8h.html" target="_top" xlink:title=" ">
<polygon fill="white" stroke="#666666" points="314.64,-195 219.64,-195 219.64,-176 314.64,-176 314.64,-195"/>
<text text-anchor="middle" x="267.14" y="-183" font-family="Helvetica,sans-Serif" font-size="10.00">webcface/text.h</text>
</a>
</g>
</g>
<!-- Node1&#45;&gt;Node16 -->
<g id="edge19_Node000001_Node000016" class="edge">
<title>Node1&#45;&gt;Node16</title>
<g id="a_edge19_Node000001_Node000016"><a xlink:title=" ">
<path fill="none" stroke="#63b8ff" d="M267.14,-230.84C267.14,-223.21 267.14,-213.7 267.14,-205.45"/>
<polygon fill="#63b8ff" stroke="#63b8ff" points="270.64,-205.27 267.14,-195.27 263.64,-205.27 270.64,-205.27"/>
</a>
</g>
</g>
<!-- Node7&#45;&gt;Node5 -->
<g id="edge8_Node000007_Node000005" class="edge">
<title>Node7&#45;&gt;Node5</title>
<g id="a_edge8_Node000007_Node000005"><a xlink:title=" ">
<path fill="none" stroke="#63b8ff" d="M554.84,-109.99C536.5,-100.58 512.47,-88.24 494.36,-78.95"/>
<polygon fill="#63b8ff" stroke="#63b8ff" points="495.48,-75.59 484.98,-74.14 492.28,-81.82 495.48,-75.59"/>
</a>
</g>
</g>
<!-- Node7&#45;&gt;Node6 -->
<g id="edge18_Node000007_Node000006" class="edge">
<title>Node7&#45;&gt;Node6</title>
<g id="a_edge18_Node000007_Node000006"><a xlink:title=" ">
<path fill="none" stroke="#63b8ff" d="M585.36,-109.93C588.02,-94.24 589.38,-69.2 575.14,-55 519.99,0.04 309.42,-26.48 214.83,-18.95"/>
<polygon fill="#63b8ff" stroke="#63b8ff" points="214.99,-15.45 204.7,-17.96 214.31,-22.42 214.99,-15.45"/>
</a>
</g>
</g>
<!-- Node8 -->
<g id="Node000008" class="node">
<title>Node8</title>
<g id="a_Node000008"><a xlink:title=" ">
<polygon fill="#e0e0e0" stroke="#999999" points="438.14,-19 394.14,-19 394.14,0 438.14,0 438.14,-19"/>
<text text-anchor="middle" x="416.14" y="-7" font-family="Helvetica,sans-Serif" font-size="10.00">string</text>
</a>
</g>
</g>
<!-- Node7&#45;&gt;Node8 -->
<g id="edge7_Node000007_Node000008" class="edge">
<title>Node7&#45;&gt;Node8</title>
<g id="a_edge7_Node000007_Node000008"><a xlink:title=" ">
<path fill="none" stroke="#63b8ff" d="M645.9,-124.12C729.98,-122.17 861.81,-110.56 812.14,-55 788.03,-28.02 538.78,-15.41 448.53,-11.71"/>
<polygon fill="#63b8ff" stroke="#63b8ff" points="448.48,-8.21 438.34,-11.3 448.2,-15.2 448.48,-8.21"/>
</a>
</g>
</g>
<!-- Node9 -->
<g id="Node000009" class="node">
<title>Node9</title>
<g id="a_Node000009"><a xlink:title=" ">
<polygon fill="#e0e0e0" stroke="#999999" points="664.64,-74 623.64,-74 623.64,-55 664.64,-55 664.64,-74"/>
<text text-anchor="middle" x="644.14" y="-62" font-family="Helvetica,sans-Serif" font-size="10.00">tuple</text>
</a>
</g>
</g>
<!-- Node7&#45;&gt;Node9 -->
<g id="edge9_Node000007_Node000009" class="edge">
<title>Node7&#45;&gt;Node9</title>
<g id="a_edge9_Node000007_Node000009"><a xlink:title=" ">
<path fill="none" stroke="#63b8ff" d="M597.15,-109.84C606.34,-101.17 618.1,-90.08 627.56,-81.15"/>
<polygon fill="#63b8ff" stroke="#63b8ff" points="629.98,-83.67 634.85,-74.27 625.18,-78.58 629.98,-83.67"/>
</a>
</g>
</g>
<!-- Node10 -->
<g id="Node000010" class="node">
<title>Node10</title>
<g id="a_Node000010"><a xlink:title=" ">
<polygon fill="#e0e0e0" stroke="#999999" points="733.14,-74 683.14,-74 683.14,-55 733.14,-55 733.14,-74"/>
<text text-anchor="middle" x="708.14" y="-62" font-family="Helvetica,sans-Serif" font-size="10.00">cstdint</text>
</a>
</g>
</g>
<!-- Node7&#45;&gt;Node10 -->
<g id="edge10_Node000007_Node000010" class="edge">
<title>Node7&#45;&gt;Node10</title>
<g id="a_edge10_Node000007_Node000010"><a xlink:title=" ">
<path fill="none" stroke="#63b8ff" d="M612.32,-109.99C632.97,-100.4 660.14,-87.79 680.28,-78.44"/>
<polygon fill="#63b8ff" stroke="#63b8ff" points="681.94,-81.52 689.54,-74.14 678.99,-75.18 681.94,-81.52"/>
</a>
</g>
</g>
<!-- Node11 -->
<g id="Node000011" class="node">
<title>Node11</title>
<g id="a_Node000011"><a xlink:title=" ">
<polygon fill="#e0e0e0" stroke="#999999" points="566.64,-74 509.64,-74 509.64,-55 566.64,-55 566.64,-74"/>
<text text-anchor="middle" x="538.14" y="-62" font-family="Helvetica,sans-Serif" font-size="10.00">ostream</text>
</a>
</g>
</g>
<!-- Node7&#45;&gt;Node11 -->
<g id="edge11_Node000007_Node000011" class="edge">
<title>Node7&#45;&gt;Node11</title>
<g id="a_edge11_Node000007_Node000011"><a xlink:title=" ">
<path fill="none" stroke="#63b8ff" d="M571.49,-109.84C565.3,-101.61 557.46,-91.18 550.94,-82.51"/>
<polygon fill="#63b8ff" stroke="#63b8ff" points="553.55,-80.15 544.74,-74.27 547.95,-84.36 553.55,-80.15"/>
</a>
</g>
</g>
<!-- Node12 -->
<g id="Node000012" class="node">
<title>Node12</title>
<g id="a_Node000012"><a xlink:title=" ">
<polygon fill="#e0e0e0" stroke="#999999" points="802.64,-74 751.64,-74 751.64,-55 802.64,-55 802.64,-74"/>
<text text-anchor="middle" x="777.14" y="-62" font-family="Helvetica,sans-Serif" font-size="10.00">variant</text>
</a>
</g>
</g>
<!-- Node7&#45;&gt;Node12 -->
<g id="edge12_Node000007_Node000012" class="edge">
<title>Node7&#45;&gt;Node12</title>
<g id="a_edge12_Node000007_Node000012"><a xlink:title=" ">
<path fill="none" stroke="#63b8ff" d="M628.85,-109.99C663.52,-99.59 710.08,-85.62 741.71,-76.13"/>
<polygon fill="#63b8ff" stroke="#63b8ff" points="742.85,-79.44 751.43,-73.22 740.84,-72.74 742.85,-79.44"/>
</a>
</g>
</g>
<!-- Node13 -->
<g id="Node000013" class="node">
<title>Node13</title>
<g id="a_Node000013"><a xlink:href="common_2encoding_8h.html" target="_top" xlink:title=" ">
<polygon fill="white" stroke="#666666" points="312.14,-74 242.14,-74 242.14,-55 312.14,-55 312.14,-74"/>
<text text-anchor="middle" x="277.14" y="-62" font-family="Helvetica,sans-Serif" font-size="10.00">encoding.h</text>
</a>
</g>
</g>
<!-- Node7&#45;&gt;Node13 -->
<g id="edge13_Node000007_Node000013" class="edge">
<title>Node7&#45;&gt;Node13</title>
<g id="a_edge13_Node000007_Node000013"><a xlink:title=" ">
<path fill="none" stroke="#63b8ff" d="M518.58,-111.81C459.82,-100.54 373.99,-84.07 322.06,-74.12"/>
<polygon fill="#63b8ff" stroke="#63b8ff" points="322.63,-70.66 312.15,-72.21 321.31,-77.53 322.63,-70.66"/>
</a>
</g>
</g>
<!-- Node13&#45;&gt;Node6 -->
<g id="edge17_Node000013_Node000006" class="edge">
<title>Node13&#45;&gt;Node6</title>
<g id="a_edge17_Node000013_Node000006"><a xlink:title=" ">
<path fill="none" stroke="#63b8ff" d="M257.06,-54.98C236.77,-46.38 205.19,-32.99 181.97,-23.15"/>
<polygon fill="#63b8ff" stroke="#63b8ff" points="183.17,-19.85 172.59,-19.17 180.43,-26.3 183.17,-19.85"/>
</a>
</g>
</g>
<!-- Node13&#45;&gt;Node8 -->
<g id="edge14_Node000013_Node000008" class="edge">
<title>Node13&#45;&gt;Node8</title>
<g id="a_edge14_Node000013_Node000008"><a xlink:title=" ">
<path fill="none" stroke="#63b8ff" d="M299.48,-54.98C322.48,-46.21 358.53,-32.47 384.47,-22.58"/>
<polygon fill="#63b8ff" stroke="#63b8ff" points="385.77,-25.83 393.87,-18.99 383.28,-19.29 385.77,-25.83"/>
</a>
</g>
</g>
<!-- Node14 -->
<g id="Node000014" class="node">
<title>Node14</title>
<g id="a_Node000014"><a xlink:title=" ">
<polygon fill="#e0e0e0" stroke="#999999" points="295.64,-19 222.64,-19 222.64,0 295.64,0 295.64,-19"/>
<text text-anchor="middle" x="259.14" y="-7" font-family="Helvetica,sans-Serif" font-size="10.00">string_view</text>
</a>
</g>
</g>
<!-- Node13&#45;&gt;Node14 -->
<g id="edge15_Node000013_Node000014" class="edge">
<title>Node13&#45;&gt;Node14</title>
<g id="a_edge15_Node000013_Node000014"><a xlink:title=" ">
<path fill="none" stroke="#63b8ff" d="M274.17,-54.75C271.79,-47.72 268.36,-37.62 265.38,-28.84"/>
<polygon fill="#63b8ff" stroke="#63b8ff" points="268.59,-27.43 262.06,-19.09 261.96,-29.68 268.59,-27.43"/>
</a>
</g>
</g>
<!-- Node15 -->
<g id="Node000015" class="node">
<title>Node15</title>
<g id="a_Node000015"><a xlink:title=" ">
<polygon fill="#e0e0e0" stroke="#999999" points="372.14,-19 314.14,-19 314.14,0 372.14,0 372.14,-19"/>
<text text-anchor="middle" x="343.14" y="-7" font-family="Helvetica,sans-Serif" font-size="10.00">memory</text>
</a>
</g>
</g>
<!-- Node13&#45;&gt;Node15 -->
<g id="edge16_Node000013_Node000015" class="edge">
<title>Node13&#45;&gt;Node15</title>
<g id="a_edge16_Node000013_Node000015"><a xlink:title=" ">
<path fill="none" stroke="#63b8ff" d="M287.75,-54.98C297.6,-47.07 312.5,-35.11 324.36,-25.58"/>
<polygon fill="#63b8ff" stroke="#63b8ff" points="326.74,-28.16 332.35,-19.17 322.36,-22.7 326.74,-28.16"/>
</a>
</g>
</g>
<!-- Node16&#45;&gt;Node2 -->
<g id="edge20_Node000016_Node000002" class="edge">
<title>Node16&#45;&gt;Node2</title>
<g id="a_edge20_Node000016_Node000002"><a xlink:title=" ">
<path fill="none" stroke="#63b8ff" d="M229.2,-175.97C192.81,-167.58 136.42,-154.02 88.14,-140 85.69,-139.29 83.17,-138.52 80.63,-137.73"/>
<polygon fill="#63b8ff" stroke="#63b8ff" points="81.51,-134.34 70.92,-134.61 79.37,-141 81.51,-134.34"/>
</a>
</g>
</g>
<!-- Node16&#45;&gt;Node3 -->
<g id="edge22_Node000016_Node000003" class="edge">
<title>Node16&#45;&gt;Node3</title>
<g id="a_edge22_Node000016_Node000003"><a xlink:title=" ">
<path fill="none" stroke="#63b8ff" d="M246.5,-175.99C222.52,-166.12 182.76,-149.73 155.32,-138.43"/>
<polygon fill="#63b8ff" stroke="#63b8ff" points="156.4,-135.09 145.82,-134.52 153.73,-141.56 156.4,-135.09"/>
</a>
</g>
</g>
<!-- Node16&#45;&gt;Node6 -->
<g id="edge35_Node000016_Node000006" class="edge">
<title>Node16&#45;&gt;Node6</title>
<g id="a_edge35_Node000016_Node000006"><a xlink:title=" ">
<path fill="none" stroke="#63b8ff" d="M253.58,-175.95C239.88,-167.22 218.23,-153.11 200.14,-140 182.72,-127.37 181.47,-119.47 162.14,-110 102.52,-80.77 58.05,-126.3 17.14,-74 11.94,-67.35 12.2,-61.84 17.14,-55 27.11,-41.23 65.43,-29.39 98.72,-21.4"/>
<polygon fill="#63b8ff" stroke="#63b8ff" points="99.9,-24.72 108.85,-19.04 98.32,-17.9 99.9,-24.72"/>
</a>
</g>
</g>
<!-- Node16&#45;&gt;Node7 -->
<g id="edge36_Node000016_Node000007" class="edge">
<title>Node16&#45;&gt;Node7</title>
<g id="a_edge36_Node000016_Node000007"><a xlink:title=" ">
<path fill="none" stroke="#63b8ff" d="M312.95,-175.99C364.27,-166.46 448.18,-150.88 508.69,-139.64"/>
<polygon fill="#63b8ff" stroke="#63b8ff" points="509.38,-143.07 518.57,-137.81 508.1,-136.19 509.38,-143.07"/>
</a>
</g>
</g>
<!-- Node16&#45;&gt;Node11 -->
<g id="edge21_Node000016_Node000011" class="edge">
<title>Node16&#45;&gt;Node11</title>
<g id="a_edge21_Node000016_Node000011"><a xlink:title=" ">
<path fill="none" stroke="#63b8ff" d="M294.36,-175.94C319.95,-167.64 359.14,-154.22 392.14,-140 436.05,-121.08 485.21,-94.9 513.82,-79.15"/>
<polygon fill="#63b8ff" stroke="#63b8ff" points="515.64,-82.14 522.69,-74.23 512.25,-76.01 515.64,-82.14"/>
</a>
</g>
</g>
<!-- Node16&#45;&gt;Node15 -->
<g id="edge24_Node000016_Node000015" class="edge">
<title>Node16&#45;&gt;Node15</title>
<g id="a_edge24_Node000016_Node000015"><a xlink:title=" ">
<path fill="none" stroke="#63b8ff" d="M288.81,-175.93C303.94,-168.73 323.15,-156.89 333.14,-140 353.74,-105.19 350.38,-55.58 346.53,-29"/>
<polygon fill="#63b8ff" stroke="#63b8ff" points="349.98,-28.44 344.91,-19.13 343.07,-29.57 349.98,-28.44"/>
</a>
</g>
</g>
<!-- Node17 -->
<g id="Node000017" class="node">
<title>Node17</title>
<g id="a_Node000017"><a xlink:title=" ">
<polygon fill="#e0e0e0" stroke="#999999" points="259.14,-134.5 209.14,-134.5 209.14,-115.5 259.14,-115.5 259.14,-134.5"/>
<text text-anchor="middle" x="234.14" y="-122.5" font-family="Helvetica,sans-Serif" font-size="10.00">chrono</text>
</a>
</g>
</g>
<!-- Node16&#45;&gt;Node17 -->
<g id="edge23_Node000016_Node000017" class="edge">
<title>Node16&#45;&gt;Node17</title>
<g id="a_edge23_Node000016_Node000017"><a xlink:title=" ">
<path fill="none" stroke="#63b8ff" d="M262.28,-175.87C257.5,-167.4 250.08,-154.24 244.05,-143.57"/>
<polygon fill="#63b8ff" stroke="#63b8ff" points="247,-141.66 239.03,-134.67 240.9,-145.1 247,-141.66"/>
</a>
</g>
</g>
<!-- Node18 -->
<g id="Node000018" class="node">
<title>Node18</title>
<g id="a_Node000018"><a xlink:href="field_8h.html" target="_top" xlink:title=" ">
<polygon fill="white" stroke="#666666" points="324.64,-134.5 277.64,-134.5 277.64,-115.5 324.64,-115.5 324.64,-134.5"/>
<text text-anchor="middle" x="301.14" y="-122.5" font-family="Helvetica,sans-Serif" font-size="10.00">field.h</text>
</a>
</g>
</g>
<!-- Node16&#45;&gt;Node18 -->
<g id="edge25_Node000016_Node000018" class="edge">
<title>Node16&#45;&gt;Node18</title>
<g id="a_edge25_Node000016_Node000018"><a xlink:title=" ">
<path fill="none" stroke="#63b8ff" d="M272.16,-175.87C277.08,-167.4 284.73,-154.24 290.94,-143.57"/>
<polygon fill="#63b8ff" stroke="#63b8ff" points="294.11,-145.07 296.11,-134.67 288.06,-141.55 294.11,-145.07"/>
</a>
</g>
</g>
<!-- Node18&#45;&gt;Node5 -->
<g id="edge29_Node000018_Node000005" class="edge">
<title>Node18&#45;&gt;Node5</title>
<g id="a_edge29_Node000018_Node000005"><a xlink:title=" ">
<path fill="none" stroke="#63b8ff" d="M324.72,-115.74C353.48,-105.67 402.29,-88.57 434.87,-77.16"/>
<polygon fill="#63b8ff" stroke="#63b8ff" points="436.14,-80.42 444.42,-73.81 433.83,-73.81 436.14,-80.42"/>
</a>
</g>
</g>
<!-- Node18&#45;&gt;Node6 -->
<g id="edge30_Node000018_Node000006" class="edge">
<title>Node18&#45;&gt;Node6</title>
<g id="a_edge30_Node000018_Node000006"><a xlink:title=" ">
<path fill="none" stroke="#63b8ff" d="M287.47,-115.39C272.38,-105.75 247.54,-89.45 227.14,-74 206.68,-58.5 184.36,-39.28 169.44,-26.07"/>
<polygon fill="#63b8ff" stroke="#63b8ff" points="171.37,-23.11 161.58,-19.06 166.71,-28.33 171.37,-23.11"/>
</a>
</g>
</g>
<!-- Node18&#45;&gt;Node8 -->
<g id="edge27_Node000018_Node000008" class="edge">
<title>Node18&#45;&gt;Node8</title>
<g id="a_edge27_Node000018_Node000008"><a xlink:title=" ">
<path fill="none" stroke="#63b8ff" d="M309.79,-115.47C329.02,-96.49 375.58,-50.53 400.23,-26.21"/>
<polygon fill="#63b8ff" stroke="#63b8ff" points="402.74,-28.65 407.4,-19.13 397.82,-23.66 402.74,-28.65"/>
</a>
</g>
</g>
<!-- Node18&#45;&gt;Node13 -->
<g id="edge31_Node000018_Node000013" class="edge">
<title>Node18&#45;&gt;Node13</title>
<g id="a_edge31_Node000018_Node000013"><a xlink:title=" ">
<path fill="none" stroke="#63b8ff" d="M297.6,-115.37C294.2,-107.07 288.95,-94.28 284.62,-83.72"/>
<polygon fill="#63b8ff" stroke="#63b8ff" points="287.73,-82.09 280.7,-74.17 281.26,-84.75 287.73,-82.09"/>
</a>
</g>
</g>
<!-- Node18&#45;&gt;Node14 -->
<g id="edge28_Node000018_Node000014" class="edge">
<title>Node18&#45;&gt;Node14</title>
<g id="a_edge28_Node000018_Node000014"><a xlink:title=" ">
<path fill="none" stroke="#63b8ff" d="M280.93,-115.47C264.71,-107.41 243.07,-93.61 233.14,-74 225.37,-58.63 234.68,-40.36 244.25,-27.37"/>
<polygon fill="#63b8ff" stroke="#63b8ff" points="247.18,-29.31 250.71,-19.32 241.72,-24.93 247.18,-29.31"/>
</a>
</g>
</g>
<!-- Node18&#45;&gt;Node15 -->
<g id="edge26_Node000018_Node000015" class="edge">
<title>Node18&#45;&gt;Node15</title>
<g id="a_edge26_Node000018_Node000015"><a xlink:title=" ">
<path fill="none" stroke="#63b8ff" d="M304.81,-115.2C308.92,-105.25 315.72,-88.54 321.14,-74 326.76,-58.95 332.7,-41.72 336.99,-29.01"/>
<polygon fill="#63b8ff" stroke="#63b8ff" points="340.43,-29.77 340.28,-19.17 333.79,-27.54 340.43,-29.77"/>
</a>
</g>
</g>
<!-- Node19 -->
<g id="Node000019" class="node">
<title>Node19</title>
<g id="a_Node000019"><a xlink:href="complete_8h.html" target="_top" xlink:title=" ">
<polygon fill="white" stroke="#666666" points="147.64,-74 26.64,-74 26.64,-55 147.64,-55 147.64,-74"/>
<text text-anchor="middle" x="87.14" y="-62" font-family="Helvetica,sans-Serif" font-size="10.00">webcface/complete.h</text>
</a>
</g>
</g>
<!-- Node18&#45;&gt;Node19 -->
<g id="edge32_Node000018_Node000019" class="edge">
<title>Node18&#45;&gt;Node19</title>
<g id="a_edge32_Node000018_Node000019"><a xlink:title=" ">
<path fill="none" stroke="#63b8ff" d="M282.5,-115.48C277.86,-113.53 272.87,-111.57 268.14,-110 225.76,-95.9 176.47,-84.07 140.03,-76.16"/>
<polygon fill="#63b8ff" stroke="#63b8ff" points="140.63,-72.71 130.12,-74.03 139.16,-79.55 140.63,-72.71"/>
</a>
</g>
</g>
<!-- Node19&#45;&gt;Node6 -->
<g id="edge34_Node000019_Node000006" class="edge">
<title>Node19&#45;&gt;Node6</title>
<g id="a_edge34_Node000019_Node000006"><a xlink:title=" ">
<path fill="none" stroke="#63b8ff" d="M97.59,-54.98C107.29,-47.07 121.96,-35.11 133.64,-25.58"/>
<polygon fill="#63b8ff" stroke="#63b8ff" points="135.97,-28.2 141.51,-19.17 131.55,-22.78 135.97,-28.2"/>
</a>
</g>
</g>
<!-- Node20 -->
<g id="Node000020" class="node">
<title>Node20</title>
<g id="a_Node000020"><a xlink:title=" ">
<polygon fill="#e0e0e0" stroke="#999999" points="81.64,-19 28.64,-19 28.64,0 81.64,0 81.64,-19"/>
<text text-anchor="middle" x="55.14" y="-7" font-family="Helvetica,sans-Serif" font-size="10.00">cstddef</text>
</a>
</g>
</g>
<!-- Node19&#45;&gt;Node20 -->
<g id="edge33_Node000019_Node000020" class="edge">
<title>Node19&#45;&gt;Node20</title>
<g id="a_edge33_Node000019_Node000020"><a xlink:title=" ">
<path fill="none" stroke="#63b8ff" d="M81.86,-54.75C77.43,-47.42 70.98,-36.73 65.53,-27.7"/>
<polygon fill="#63b8ff" stroke="#63b8ff" points="68.5,-25.84 60.33,-19.09 62.5,-29.46 68.5,-25.84"/>
</a>
</g>
</g>
</g>
</svg>
