<?xml version="1.0" encoding="UTF-8" standalone="no"?>
<!DOCTYPE svg PUBLIC "-//W3C//DTD SVG 1.1//EN"
 "http://www.w3.org/Graphics/SVG/1.1/DTD/svg11.dtd">
<!-- Generated by graphviz version 2.43.0 (0)
 -->
<!-- Title: client/include/webcface/component_canvas3d.h Pages: 1 -->
<svg width="1532pt" height="335pt"
 viewBox="0.00 0.00 1532.00 335.00" xmlns="http://www.w3.org/2000/svg" xmlns:xlink="http://www.w3.org/1999/xlink">
<g id="graph0" class="graph" transform="scale(1 1) rotate(0) translate(4 331)">
<title>client/include/webcface/component_canvas3d.h</title>
<!-- Node1 -->
<g id="Node000001" class="node">
<title>Node1</title>
<g id="a_Node000001"><a xlink:title=" ">
<polygon fill="#999999" stroke="#666666" points="967.5,-327 832.5,-327 832.5,-297 967.5,-297 967.5,-327"/>
<text text-anchor="start" x="840.5" y="-315" font-family="Helvetica,sans-Serif" font-size="10.00">client/include/webcface</text>
<text text-anchor="middle" x="900" y="-304" font-family="Helvetica,sans-Serif" font-size="10.00">/component_canvas3d.h</text>
</a>
</g>
</g>
<!-- Node2 -->
<g id="Node000002" class="node">
<title>Node2</title>
<g id="a_Node000002"><a xlink:title=" ">
<polygon fill="#e0e0e0" stroke="#999999" points="509.5,-195 416.5,-195 416.5,-176 509.5,-176 509.5,-195"/>
<text text-anchor="middle" x="463" y="-183" font-family="Helvetica,sans-Serif" font-size="10.00">unordered_map</text>
</a>
</g>
</g>
<!-- Node1&#45;&gt;Node2 -->
<g id="edge1_Node000001_Node000002" class="edge">
<title>Node1&#45;&gt;Node2</title>
<g id="a_edge1_Node000001_Node000002"><a xlink:title=" ">
<path fill="none" stroke="#63b8ff" d="M832.44,-298.85C786.07,-289.91 723.32,-276.63 669,-261 605.32,-242.68 532.9,-214.79 493.13,-198.84"/>
<polygon fill="#63b8ff" stroke="#63b8ff" points="494.33,-195.55 483.75,-195.05 491.71,-202.04 494.33,-195.55"/>
</a>
</g>
</g>
<!-- Node3 -->
<g id="Node000003" class="node">
<title>Node3</title>
<g id="a_Node000003"><a xlink:href="component__view_8h.html" target="_top" xlink:title=" ">
<polygon fill="white" stroke="#666666" points="799.5,-261 678.5,-261 678.5,-231 799.5,-231 799.5,-261"/>
<text text-anchor="start" x="686.5" y="-249" font-family="Helvetica,sans-Serif" font-size="10.00">webcface/component</text>
<text text-anchor="middle" x="739" y="-238" font-family="Helvetica,sans-Serif" font-size="10.00">_view.h</text>
</a>
</g>
</g>
<!-- Node1&#45;&gt;Node3 -->
<g id="edge2_Node000001_Node000003" class="edge">
<title>Node1&#45;&gt;Node3</title>
<g id="a_edge2_Node000001_Node000003"><a xlink:title=" ">
<path fill="none" stroke="#63b8ff" d="M864.67,-296.95C840.87,-287.49 809.27,-274.93 783.72,-264.78"/>
<polygon fill="#63b8ff" stroke="#63b8ff" points="784.84,-261.45 774.25,-261.01 782.25,-267.96 784.84,-261.45"/>
</a>
</g>
</g>
<!-- Node7 -->
<g id="Node000007" class="node">
<title>Node7</title>
<g id="a_Node000007"><a xlink:href="webcface-config_8h.html" target="_top" xlink:title=" ">
<polygon fill="white" stroke="#666666" points="933.5,-19 828.5,-19 828.5,0 933.5,0 933.5,-19"/>
<text text-anchor="middle" x="881" y="-7" font-family="Helvetica,sans-Serif" font-size="10.00">webcface&#45;config.h</text>
</a>
</g>
</g>
<!-- Node1&#45;&gt;Node7 -->
<g id="edge61_Node000001_Node000007" class="edge">
<title>Node1&#45;&gt;Node7</title>
<g id="a_edge61_Node000001_Node000007"><a xlink:title=" ">
<path fill="none" stroke="#63b8ff" d="M900,-296.81C900,-273.7 900,-226.49 900,-186.5 900,-186.5 900,-186.5 900,-124 900,-90.16 891.68,-51.41 886.05,-29.07"/>
<polygon fill="#63b8ff" stroke="#63b8ff" points="889.4,-28.03 883.48,-19.25 882.63,-29.81 889.4,-28.03"/>
</a>
</g>
</g>
<!-- Node22 -->
<g id="Node000022" class="node">
<title>Node22</title>
<g id="a_Node000022"><a xlink:href="geometry_8h.html" target="_top" xlink:title=" ">
<polygon fill="white" stroke="#666666" points="1049.5,-134.5 928.5,-134.5 928.5,-115.5 1049.5,-115.5 1049.5,-134.5"/>
<text text-anchor="middle" x="989" y="-122.5" font-family="Helvetica,sans-Serif" font-size="10.00">webcface/geometry.h</text>
</a>
</g>
</g>
<!-- Node1&#45;&gt;Node22 -->
<g id="edge39_Node000001_Node000022" class="edge">
<title>Node1&#45;&gt;Node22</title>
<g id="a_edge39_Node000001_Node000022"><a xlink:title=" ">
<path fill="none" stroke="#63b8ff" d="M906.84,-296.79C922.84,-263.52 962.72,-180.63 980.37,-143.95"/>
<polygon fill="#63b8ff" stroke="#63b8ff" points="983.72,-145.06 984.9,-134.53 977.41,-142.02 983.72,-145.06"/>
</a>
</g>
</g>
<!-- Node24 -->
<g id="Node000024" class="node">
<title>Node24</title>
<g id="a_Node000024"><a xlink:href="transform_8h.html" target="_top" xlink:title=" ">
<polygon fill="white" stroke="#666666" points="1300.5,-195 1177.5,-195 1177.5,-176 1300.5,-176 1300.5,-195"/>
<text text-anchor="middle" x="1239" y="-183" font-family="Helvetica,sans-Serif" font-size="10.00">webcface/transform.h</text>
</a>
</g>
</g>
<!-- Node1&#45;&gt;Node24 -->
<g id="edge43_Node000001_Node000024" class="edge">
<title>Node1&#45;&gt;Node24</title>
<g id="a_edge43_Node000001_Node000024"><a xlink:title=" ">
<path fill="none" stroke="#63b8ff" d="M938.23,-296.96C1005.29,-272.33 1142.99,-221.76 1206.09,-198.59"/>
<polygon fill="#63b8ff" stroke="#63b8ff" points="1207.38,-201.84 1215.56,-195.11 1204.96,-195.27 1207.38,-201.84"/>
</a>
</g>
</g>
<!-- Node3&#45;&gt;Node2 -->
<g id="edge5_Node000003_Node000002" class="edge">
<title>Node3&#45;&gt;Node2</title>
<g id="a_edge5_Node000003_Node000002"><a xlink:title=" ">
<path fill="none" stroke="#63b8ff" d="M678.43,-232.16C628.91,-221.66 559.71,-207 513.23,-197.15"/>
<polygon fill="#63b8ff" stroke="#63b8ff" points="513.89,-193.71 503.38,-195.06 512.44,-200.56 513.89,-193.71"/>
</a>
</g>
</g>
<!-- Node4 -->
<g id="Node000004" class="node">
<title>Node4</title>
<g id="a_Node000004"><a xlink:title=" ">
<polygon fill="#e0e0e0" stroke="#999999" points="721.5,-134.5 656.5,-134.5 656.5,-115.5 721.5,-115.5 721.5,-134.5"/>
<text text-anchor="middle" x="689" y="-122.5" font-family="Helvetica,sans-Serif" font-size="10.00">functional</text>
</a>
</g>
</g>
<!-- Node3&#45;&gt;Node4 -->
<g id="edge3_Node000003_Node000004" class="edge">
<title>Node3&#45;&gt;Node4</title>
<g id="a_edge3_Node000003_Node000004"><a xlink:title=" ">
<path fill="none" stroke="#63b8ff" d="M733.07,-230.88C723.96,-209.22 706.56,-167.78 696.56,-143.99"/>
<polygon fill="#63b8ff" stroke="#63b8ff" points="699.76,-142.57 692.66,-134.71 693.31,-145.29 699.76,-142.57"/>
</a>
</g>
</g>
<!-- Node5 -->
<g id="Node000005" class="node">
<title>Node5</title>
<g id="a_Node000005"><a xlink:title=" ">
<polygon fill="#e0e0e0" stroke="#999999" points="796,-134.5 740,-134.5 740,-115.5 796,-115.5 796,-134.5"/>
<text text-anchor="middle" x="768" y="-122.5" font-family="Helvetica,sans-Serif" font-size="10.00">optional</text>
</a>
</g>
</g>
<!-- Node3&#45;&gt;Node5 -->
<g id="edge4_Node000003_Node000005" class="edge">
<title>Node3&#45;&gt;Node5</title>
<g id="a_edge4_Node000003_Node000005"><a xlink:title=" ">
<path fill="none" stroke="#63b8ff" d="M742.44,-230.88C747.67,-209.41 757.64,-168.52 763.46,-144.64"/>
<polygon fill="#63b8ff" stroke="#63b8ff" points="766.91,-145.26 765.88,-134.71 760.11,-143.6 766.91,-145.26"/>
</a>
</g>
</g>
<!-- Node6 -->
<g id="Node000006" class="node">
<title>Node6</title>
<g id="a_Node000006"><a xlink:title=" ">
<polygon fill="#e0e0e0" stroke="#999999" points="833.5,-74 786.5,-74 786.5,-55 833.5,-55 833.5,-74"/>
<text text-anchor="middle" x="810" y="-62" font-family="Helvetica,sans-Serif" font-size="10.00">vector</text>
</a>
</g>
</g>
<!-- Node3&#45;&gt;Node6 -->
<g id="edge6_Node000003_Node000006" class="edge">
<title>Node3&#45;&gt;Node6</title>
<g id="a_edge6_Node000003_Node000006"><a xlink:title=" ">
<path fill="none" stroke="#63b8ff" d="M751.14,-230.88C766.79,-211.74 793.36,-175.84 805,-140 810.94,-121.73 811.67,-99.64 811.24,-84.28"/>
<polygon fill="#63b8ff" stroke="#63b8ff" points="814.73,-83.84 810.75,-74.02 807.74,-84.18 814.73,-83.84"/>
</a>
</g>
</g>
<!-- Node3&#45;&gt;Node7 -->
<g id="edge7_Node000003_Node000007" class="edge">
<title>Node3&#45;&gt;Node7</title>
<g id="a_edge7_Node000003_Node000007"><a xlink:title=" ">
<path fill="none" stroke="#63b8ff" d="M759.9,-230.93C772.22,-221.82 787.42,-209.05 798,-195 838.6,-141.07 865.02,-64.12 875.67,-29.12"/>
<polygon fill="#63b8ff" stroke="#63b8ff" points="879.09,-29.89 878.57,-19.31 872.38,-27.91 879.09,-29.89"/>
</a>
</g>
</g>
<!-- Node8 -->
<g id="Node000008" class="node">
<title>Node8</title>
<g id="a_Node000008"><a xlink:href="common_2val__adaptor_8h.html" target="_top" xlink:title=" ">
<polygon fill="white" stroke="#666666" points="638.5,-140 511.5,-140 511.5,-110 638.5,-110 638.5,-140"/>
<text text-anchor="start" x="519.5" y="-128" font-family="Helvetica,sans-Serif" font-size="10.00">webcface/common/val</text>
<text text-anchor="middle" x="575" y="-117" font-family="Helvetica,sans-Serif" font-size="10.00">_adaptor.h</text>
</a>
</g>
</g>
<!-- Node3&#45;&gt;Node8 -->
<g id="edge8_Node000003_Node000008" class="edge">
<title>Node3&#45;&gt;Node8</title>
<g id="a_edge8_Node000003_Node000008"><a xlink:title=" ">
<path fill="none" stroke="#63b8ff" d="M719.54,-230.88C690.57,-209.86 635.95,-170.22 602.78,-146.15"/>
<polygon fill="#63b8ff" stroke="#63b8ff" points="604.58,-143.14 594.43,-140.1 600.47,-148.81 604.58,-143.14"/>
</a>
</g>
</g>
<!-- Node17 -->
<g id="Node000017" class="node">
<title>Node17</title>
<g id="a_Node000017"><a xlink:href="client_2include_2webcface_2text_8h.html" target="_top" xlink:title=" ">
<polygon fill="white" stroke="#666666" points="622.5,-195 527.5,-195 527.5,-176 622.5,-176 622.5,-195"/>
<text text-anchor="middle" x="575" y="-183" font-family="Helvetica,sans-Serif" font-size="10.00">webcface/text.h</text>
</a>
</g>
</g>
<!-- Node3&#45;&gt;Node17 -->
<g id="edge21_Node000003_Node000017" class="edge">
<title>Node3&#45;&gt;Node17</title>
<g id="a_edge21_Node000003_Node000017"><a xlink:title=" ">
<path fill="none" stroke="#63b8ff" d="M699.72,-230.99C671.99,-221.1 635.22,-207.98 608.8,-198.56"/>
<polygon fill="#63b8ff" stroke="#63b8ff" points="609.81,-195.2 599.22,-195.14 607.46,-201.8 609.81,-195.2"/>
</a>
</g>
</g>
<!-- Node8&#45;&gt;Node6 -->
<g id="edge10_Node000008_Node000006" class="edge">
<title>Node8&#45;&gt;Node6</title>
<g id="a_edge10_Node000008_Node000006"><a xlink:title=" ">
<path fill="none" stroke="#63b8ff" d="M632.5,-109.92C670.65,-100.54 722.09,-87.83 776.4,-74.13"/>
<polygon fill="#63b8ff" stroke="#63b8ff" points="777.38,-77.5 786.21,-71.66 775.66,-70.71 777.38,-77.5"/>
</a>
</g>
</g>
<!-- Node8&#45;&gt;Node7 -->
<g id="edge20_Node000008_Node000007" class="edge">
<title>Node8&#45;&gt;Node7</title>
<g id="a_edge20_Node000008_Node000007"><a xlink:title=" ">
<path fill="none" stroke="#63b8ff" d="M571.39,-109.83C568.36,-94.29 566.44,-69.61 580,-55 611.3,-21.28 739.35,-12.85 818,-10.9"/>
<polygon fill="#63b8ff" stroke="#63b8ff" points="818.36,-14.39 828.29,-10.67 818.21,-7.39 818.36,-14.39"/>
</a>
</g>
</g>
<!-- Node9 -->
<g id="Node000009" class="node">
<title>Node9</title>
<g id="a_Node000009"><a xlink:title=" ">
<polygon fill="#e0e0e0" stroke="#999999" points="255,-19 211,-19 211,0 255,0 255,-19"/>
<text text-anchor="middle" x="233" y="-7" font-family="Helvetica,sans-Serif" font-size="10.00">string</text>
</a>
</g>
</g>
<!-- Node8&#45;&gt;Node9 -->
<g id="edge9_Node000008_Node000009" class="edge">
<title>Node8&#45;&gt;Node9</title>
<g id="a_edge9_Node000008_Node000009"><a xlink:title=" ">
<path fill="none" stroke="#63b8ff" d="M557.08,-109.73C536.2,-93.86 500.08,-68.66 465,-55 382.88,-23.02 356.3,-36.87 270,-19 268.51,-18.69 266.98,-18.37 265.44,-18.04"/>
<polygon fill="#63b8ff" stroke="#63b8ff" points="265.79,-14.53 255.27,-15.78 264.28,-21.36 265.79,-14.53"/>
</a>
</g>
</g>
<!-- Node10 -->
<g id="Node000010" class="node">
<title>Node10</title>
<g id="a_Node000010"><a xlink:title=" ">
<polygon fill="#e0e0e0" stroke="#999999" points="630.5,-74 589.5,-74 589.5,-55 630.5,-55 630.5,-74"/>
<text text-anchor="middle" x="610" y="-62" font-family="Helvetica,sans-Serif" font-size="10.00">tuple</text>
</a>
</g>
</g>
<!-- Node8&#45;&gt;Node10 -->
<g id="edge11_Node000008_Node000010" class="edge">
<title>Node8&#45;&gt;Node10</title>
<g id="a_edge11_Node000008_Node000010"><a xlink:title=" ">
<path fill="none" stroke="#63b8ff" d="M583.47,-109.84C588.29,-101.78 594.37,-91.62 599.5,-83.06"/>
<polygon fill="#63b8ff" stroke="#63b8ff" points="602.62,-84.64 604.76,-74.27 596.62,-81.05 602.62,-84.64"/>
</a>
</g>
</g>
<!-- Node11 -->
<g id="Node000011" class="node">
<title>Node11</title>
<g id="a_Node000011"><a xlink:title=" ">
<polygon fill="#e0e0e0" stroke="#999999" points="699,-74 649,-74 649,-55 699,-55 699,-74"/>
<text text-anchor="middle" x="674" y="-62" font-family="Helvetica,sans-Serif" font-size="10.00">cstdint</text>
</a>
</g>
</g>
<!-- Node8&#45;&gt;Node11 -->
<g id="edge12_Node000008_Node000011" class="edge">
<title>Node8&#45;&gt;Node11</title>
<g id="a_edge12_Node000008_Node000011"><a xlink:title=" ">
<path fill="none" stroke="#63b8ff" d="M598.71,-109.99C614.35,-100.75 634.74,-88.7 650.36,-79.47"/>
<polygon fill="#63b8ff" stroke="#63b8ff" points="652.55,-82.24 659.38,-74.14 648.99,-76.21 652.55,-82.24"/>
</a>
</g>
</g>
<!-- Node12 -->
<g id="Node000012" class="node">
<title>Node12</title>
<g id="a_Node000012"><a xlink:title=" ">
<polygon fill="#e0e0e0" stroke="#999999" points="456.5,-74 399.5,-74 399.5,-55 456.5,-55 456.5,-74"/>
<text text-anchor="middle" x="428" y="-62" font-family="Helvetica,sans-Serif" font-size="10.00">ostream</text>
</a>
</g>
</g>
<!-- Node8&#45;&gt;Node12 -->
<g id="edge13_Node000008_Node000012" class="edge">
<title>Node8&#45;&gt;Node12</title>
<g id="a_edge13_Node000008_Node000012"><a xlink:title=" ">
<path fill="none" stroke="#63b8ff" d="M539.79,-109.99C515.26,-100.23 482.85,-87.33 459.24,-77.93"/>
<polygon fill="#63b8ff" stroke="#63b8ff" points="460.29,-74.58 449.71,-74.14 457.71,-81.09 460.29,-74.58"/>
</a>
</g>
</g>
<!-- Node13 -->
<g id="Node000013" class="node">
<title>Node13</title>
<g id="a_Node000013"><a xlink:title=" ">
<polygon fill="#e0e0e0" stroke="#999999" points="768.5,-74 717.5,-74 717.5,-55 768.5,-55 768.5,-74"/>
<text text-anchor="middle" x="743" y="-62" font-family="Helvetica,sans-Serif" font-size="10.00">variant</text>
</a>
</g>
</g>
<!-- Node8&#45;&gt;Node13 -->
<g id="edge14_Node000008_Node000013" class="edge">
<title>Node8&#45;&gt;Node13</title>
<g id="a_edge14_Node000008_Node000013"><a xlink:title=" ">
<path fill="none" stroke="#63b8ff" d="M615.24,-109.99C643.77,-100.05 681.65,-86.86 708.73,-77.43"/>
<polygon fill="#63b8ff" stroke="#63b8ff" points="709.9,-80.73 718.19,-74.14 707.6,-74.12 709.9,-80.73"/>
</a>
</g>
</g>
<!-- Node14 -->
<g id="Node000014" class="node">
<title>Node14</title>
<g id="a_Node000014"><a xlink:href="common_2encoding_8h.html" target="_top" xlink:title=" ">
<polygon fill="white" stroke="#666666" points="203,-74 133,-74 133,-55 203,-55 203,-74"/>
<text text-anchor="middle" x="168" y="-62" font-family="Helvetica,sans-Serif" font-size="10.00">encoding.h</text>
</a>
</g>
</g>
<!-- Node8&#45;&gt;Node14 -->
<g id="edge15_Node000008_Node000014" class="edge">
<title>Node8&#45;&gt;Node14</title>
<g id="a_edge15_Node000008_Node000014"><a xlink:title=" ">
<path fill="none" stroke="#63b8ff" d="M511.48,-115.67C427.57,-104.6 283.16,-85.29 213.2,-74.1"/>
<polygon fill="#63b8ff" stroke="#63b8ff" points="213.47,-70.6 203.03,-72.44 212.34,-77.51 213.47,-70.6"/>
</a>
</g>
</g>
<!-- Node14&#45;&gt;Node7 -->
<g id="edge19_Node000014_Node000007" class="edge">
<title>Node14&#45;&gt;Node7</title>
<g id="a_edge19_Node000014_Node000007"><a xlink:title=" ">
<path fill="none" stroke="#63b8ff" d="M203,-56.33C206.04,-55.83 209.07,-55.38 212,-55 433.82,-26.31 699.55,-15.62 818.31,-12.07"/>
<polygon fill="#63b8ff" stroke="#63b8ff" points="818.42,-15.57 828.31,-11.78 818.21,-8.57 818.42,-15.57"/>
</a>
</g>
</g>
<!-- Node14&#45;&gt;Node9 -->
<g id="edge16_Node000014_Node000009" class="edge">
<title>Node14&#45;&gt;Node9</title>
<g id="a_edge16_Node000014_Node000009"><a xlink:title=" ">
<path fill="none" stroke="#63b8ff" d="M178.44,-54.98C188.15,-47.07 202.82,-35.11 214.5,-25.58"/>
<polygon fill="#63b8ff" stroke="#63b8ff" points="216.83,-28.2 222.37,-19.17 212.4,-22.78 216.83,-28.2"/>
</a>
</g>
</g>
<!-- Node15 -->
<g id="Node000015" class="node">
<title>Node15</title>
<g id="a_Node000015"><a xlink:title=" ">
<polygon fill="#e0e0e0" stroke="#999999" points="180.5,-19 107.5,-19 107.5,0 180.5,0 180.5,-19"/>
<text text-anchor="middle" x="144" y="-7" font-family="Helvetica,sans-Serif" font-size="10.00">string_view</text>
</a>
</g>
</g>
<!-- Node14&#45;&gt;Node15 -->
<g id="edge17_Node000014_Node000015" class="edge">
<title>Node14&#45;&gt;Node15</title>
<g id="a_edge17_Node000014_Node000015"><a xlink:title=" ">
<path fill="none" stroke="#63b8ff" d="M164.04,-54.75C160.79,-47.57 156.08,-37.18 152.05,-28.27"/>
<polygon fill="#63b8ff" stroke="#63b8ff" points="155.2,-26.75 147.89,-19.09 148.83,-29.64 155.2,-26.75"/>
</a>
</g>
</g>
<!-- Node16 -->
<g id="Node000016" class="node">
<title>Node16</title>
<g id="a_Node000016"><a xlink:title=" ">
<polygon fill="#e0e0e0" stroke="#999999" points="58,-19 0,-19 0,0 58,0 58,-19"/>
<text text-anchor="middle" x="29" y="-7" font-family="Helvetica,sans-Serif" font-size="10.00">memory</text>
</a>
</g>
</g>
<!-- Node14&#45;&gt;Node16 -->
<g id="edge18_Node000014_Node000016" class="edge">
<title>Node14&#45;&gt;Node16</title>
<g id="a_edge18_Node000014_Node000016"><a xlink:title=" ">
<path fill="none" stroke="#63b8ff" d="M145.67,-54.98C122.8,-46.27 87.04,-32.63 61.14,-22.75"/>
<polygon fill="#63b8ff" stroke="#63b8ff" points="62.33,-19.46 51.74,-19.17 59.84,-26 62.33,-19.46"/>
</a>
</g>
</g>
<!-- Node17&#45;&gt;Node4 -->
<g id="edge22_Node000017_Node000004" class="edge">
<title>Node17&#45;&gt;Node4</title>
<g id="a_edge22_Node000017_Node000004"><a xlink:title=" ">
<path fill="none" stroke="#63b8ff" d="M591.82,-175.87C610.6,-166.23 641.2,-150.53 663.05,-139.31"/>
<polygon fill="#63b8ff" stroke="#63b8ff" points="664.81,-142.35 672.11,-134.67 661.61,-136.12 664.81,-142.35"/>
</a>
</g>
</g>
<!-- Node17&#45;&gt;Node5 -->
<g id="edge24_Node000017_Node000005" class="edge">
<title>Node17&#45;&gt;Node5</title>
<g id="a_edge24_Node000017_Node000005"><a xlink:title=" ">
<path fill="none" stroke="#63b8ff" d="M607.27,-175.98C638.77,-167.48 687.96,-153.76 730,-140 731.9,-139.38 733.86,-138.72 735.82,-138.04"/>
<polygon fill="#63b8ff" stroke="#63b8ff" points="737.34,-141.21 745.59,-134.57 735,-134.62 737.34,-141.21"/>
</a>
</g>
</g>
<!-- Node17&#45;&gt;Node7 -->
<g id="edge37_Node000017_Node000007" class="edge">
<title>Node17&#45;&gt;Node7</title>
<g id="a_edge37_Node000017_Node000007"><a xlink:title=" ">
<path fill="none" stroke="#63b8ff" d="M548.43,-175.94C531.87,-169.06 511.88,-157.6 502,-140 478.71,-98.53 523.61,-74.46 567,-55 610.63,-35.44 739.62,-21.93 818.04,-15.27"/>
<polygon fill="#63b8ff" stroke="#63b8ff" points="818.61,-18.74 828.28,-14.42 818.03,-11.76 818.61,-18.74"/>
</a>
</g>
</g>
<!-- Node17&#45;&gt;Node8 -->
<g id="edge38_Node000017_Node000008" class="edge">
<title>Node17&#45;&gt;Node8</title>
<g id="a_edge38_Node000017_Node000008"><a xlink:title=" ">
<path fill="none" stroke="#63b8ff" d="M575,-175.87C575,-169.11 575,-159.35 575,-150.26"/>
<polygon fill="#63b8ff" stroke="#63b8ff" points="578.5,-150.11 575,-140.11 571.5,-150.11 578.5,-150.11"/>
</a>
</g>
</g>
<!-- Node17&#45;&gt;Node12 -->
<g id="edge23_Node000017_Node000012" class="edge">
<title>Node17&#45;&gt;Node12</title>
<g id="a_edge23_Node000017_Node000012"><a xlink:title=" ">
<path fill="none" stroke="#63b8ff" d="M528.12,-175.92C477.9,-166.26 404.23,-150.53 396,-140 382.12,-122.25 398.11,-97.56 412.05,-81.56"/>
<polygon fill="#63b8ff" stroke="#63b8ff" points="414.76,-83.78 418.98,-74.06 409.62,-79.03 414.76,-83.78"/>
</a>
</g>
</g>
<!-- Node17&#45;&gt;Node16 -->
<g id="edge26_Node000017_Node000016" class="edge">
<title>Node17&#45;&gt;Node16</title>
<g id="a_edge26_Node000017_Node000016"><a xlink:title=" ">
<path fill="none" stroke="#63b8ff" d="M527.43,-177.27C524.24,-176.83 521.08,-176.4 518,-176 373.44,-157.25 330.49,-185.49 192,-140 136.38,-121.73 122.05,-112.57 78,-74 62.51,-60.43 48.56,-41.35 39.55,-27.65"/>
<polygon fill="#63b8ff" stroke="#63b8ff" points="42.46,-25.72 34.14,-19.17 36.56,-29.48 42.46,-25.72"/>
</a>
</g>
</g>
<!-- Node18 -->
<g id="Node000018" class="node">
<title>Node18</title>
<g id="a_Node000018"><a xlink:title=" ">
<polygon fill="#e0e0e0" stroke="#999999" points="455,-134.5 405,-134.5 405,-115.5 455,-115.5 455,-134.5"/>
<text text-anchor="middle" x="430" y="-122.5" font-family="Helvetica,sans-Serif" font-size="10.00">chrono</text>
</a>
</g>
</g>
<!-- Node17&#45;&gt;Node18 -->
<g id="edge25_Node000017_Node000018" class="edge">
<title>Node17&#45;&gt;Node18</title>
<g id="a_edge25_Node000017_Node000018"><a xlink:title=" ">
<path fill="none" stroke="#63b8ff" d="M553.92,-175.99C529.32,-166.07 488.47,-149.59 460.44,-138.28"/>
<polygon fill="#63b8ff" stroke="#63b8ff" points="461.69,-135.01 451.11,-134.52 459.07,-141.5 461.69,-135.01"/>
</a>
</g>
</g>
<!-- Node19 -->
<g id="Node000019" class="node">
<title>Node19</title>
<g id="a_Node000019"><a xlink:href="field_8h.html" target="_top" xlink:title=" ">
<polygon fill="white" stroke="#666666" points="248.5,-134.5 201.5,-134.5 201.5,-115.5 248.5,-115.5 248.5,-134.5"/>
<text text-anchor="middle" x="225" y="-122.5" font-family="Helvetica,sans-Serif" font-size="10.00">field.h</text>
</a>
</g>
</g>
<!-- Node17&#45;&gt;Node19 -->
<g id="edge27_Node000017_Node000019" class="edge">
<title>Node17&#45;&gt;Node19</title>
<g id="a_edge27_Node000017_Node000019"><a xlink:title=" ">
<path fill="none" stroke="#63b8ff" d="M527.43,-176.55C455.7,-164.56 321.57,-142.14 258.9,-131.67"/>
<polygon fill="#63b8ff" stroke="#63b8ff" points="259.2,-128.17 248.76,-129.97 258.05,-135.07 259.2,-128.17"/>
</a>
</g>
</g>
<!-- Node19&#45;&gt;Node6 -->
<g id="edge31_Node000019_Node000006" class="edge">
<title>Node19&#45;&gt;Node6</title>
<g id="a_edge31_Node000019_Node000006"><a xlink:title=" ">
<path fill="none" stroke="#63b8ff" d="M248.51,-122.1C342.73,-114.44 691.7,-85.79 776.36,-73.66"/>
<polygon fill="#63b8ff" stroke="#63b8ff" points="776.97,-77.1 786.31,-72.09 775.88,-70.19 776.97,-77.1"/>
</a>
</g>
</g>
<!-- Node19&#45;&gt;Node7 -->
<g id="edge32_Node000019_Node000007" class="edge">
<title>Node19&#45;&gt;Node7</title>
<g id="a_edge32_Node000019_Node000007"><a xlink:title=" ">
<path fill="none" stroke="#63b8ff" d="M247.98,-115.48C273.4,-105.92 315.47,-89.68 351,-74 368.64,-66.22 371.43,-60.18 390,-55 468.85,-33.02 703.99,-19.04 817.84,-13.38"/>
<polygon fill="#63b8ff" stroke="#63b8ff" points="818.32,-16.86 828.14,-12.87 817.98,-9.87 818.32,-16.86"/>
</a>
</g>
</g>
<!-- Node19&#45;&gt;Node9 -->
<g id="edge29_Node000019_Node000009" class="edge">
<title>Node19&#45;&gt;Node9</title>
<g id="a_edge29_Node000019_Node000009"><a xlink:title=" ">
<path fill="none" stroke="#63b8ff" d="M201.24,-118.62C164.93,-109.24 102.03,-87.7 124,-55 132.97,-41.64 172.13,-27.89 200.96,-19.27"/>
<polygon fill="#63b8ff" stroke="#63b8ff" points="202.04,-22.6 210.66,-16.45 200.08,-15.88 202.04,-22.6"/>
</a>
</g>
</g>
<!-- Node19&#45;&gt;Node14 -->
<g id="edge33_Node000019_Node000014" class="edge">
<title>Node19&#45;&gt;Node14</title>
<g id="a_edge33_Node000019_Node000014"><a xlink:title=" ">
<path fill="none" stroke="#63b8ff" d="M216.59,-115.37C207.92,-106.47 194.2,-92.39 183.54,-81.45"/>
<polygon fill="#63b8ff" stroke="#63b8ff" points="185.93,-78.89 176.45,-74.17 180.92,-83.77 185.93,-78.89"/>
</a>
</g>
</g>
<!-- Node19&#45;&gt;Node15 -->
<g id="edge30_Node000019_Node000015" class="edge">
<title>Node19&#45;&gt;Node15</title>
<g id="a_edge30_Node000019_Node000015"><a xlink:title=" ">
<path fill="none" stroke="#63b8ff" d="M201.44,-120.68C175.44,-115.63 134.77,-103.27 116,-74 106.39,-59.03 117.18,-40.2 128.04,-26.95"/>
<polygon fill="#63b8ff" stroke="#63b8ff" points="130.95,-28.94 134.97,-19.14 125.71,-24.3 130.95,-28.94"/>
</a>
</g>
</g>
<!-- Node19&#45;&gt;Node16 -->
<g id="edge28_Node000019_Node000016" class="edge">
<title>Node19&#45;&gt;Node16</title>
<g id="a_edge28_Node000019_Node000016"><a xlink:title=" ">
<path fill="none" stroke="#63b8ff" d="M201.45,-115.94C177.37,-107.23 139.3,-92.12 109,-74 85.63,-60.02 61.51,-39.97 45.95,-26.15"/>
<polygon fill="#63b8ff" stroke="#63b8ff" points="48.01,-23.3 38.25,-19.2 43.32,-28.5 48.01,-23.3"/>
</a>
</g>
</g>
<!-- Node20 -->
<g id="Node000020" class="node">
<title>Node20</title>
<g id="a_Node000020"><a xlink:href="complete_8h.html" target="_top" xlink:title=" ">
<polygon fill="white" stroke="#666666" points="342.5,-74 221.5,-74 221.5,-55 342.5,-55 342.5,-74"/>
<text text-anchor="middle" x="282" y="-62" font-family="Helvetica,sans-Serif" font-size="10.00">webcface/complete.h</text>
</a>
</g>
</g>
<!-- Node19&#45;&gt;Node20 -->
<g id="edge34_Node000019_Node000020" class="edge">
<title>Node19&#45;&gt;Node20</title>
<g id="a_edge34_Node000019_Node000020"><a xlink:title=" ">
<path fill="none" stroke="#63b8ff" d="M233.41,-115.37C242.08,-106.47 255.8,-92.39 266.46,-81.45"/>
<polygon fill="#63b8ff" stroke="#63b8ff" points="269.08,-83.77 273.55,-74.17 264.07,-78.89 269.08,-83.77"/>
</a>
</g>
</g>
<!-- Node20&#45;&gt;Node7 -->
<g id="edge36_Node000020_Node000007" class="edge">
<title>Node20&#45;&gt;Node7</title>
<g id="a_edge36_Node000020_Node000007"><a xlink:title=" ">
<path fill="none" stroke="#63b8ff" d="M342.57,-56.49C347.45,-55.97 352.31,-55.47 357,-55 523.28,-38.52 719.64,-22.86 818.07,-15.27"/>
<polygon fill="#63b8ff" stroke="#63b8ff" points="818.45,-18.75 828.15,-14.49 817.91,-11.77 818.45,-18.75"/>
</a>
</g>
</g>
<!-- Node21 -->
<g id="Node000021" class="node">
<title>Node21</title>
<g id="a_Node000021"><a xlink:title=" ">
<polygon fill="#e0e0e0" stroke="#999999" points="332.5,-19 279.5,-19 279.5,0 332.5,0 332.5,-19"/>
<text text-anchor="middle" x="306" y="-7" font-family="Helvetica,sans-Serif" font-size="10.00">cstddef</text>
</a>
</g>
</g>
<!-- Node20&#45;&gt;Node21 -->
<g id="edge35_Node000020_Node000021" class="edge">
<title>Node20&#45;&gt;Node21</title>
<g id="a_edge35_Node000020_Node000021"><a xlink:title=" ">
<path fill="none" stroke="#63b8ff" d="M285.96,-54.75C289.21,-47.57 293.92,-37.18 297.95,-28.27"/>
<polygon fill="#63b8ff" stroke="#63b8ff" points="301.17,-29.64 302.11,-19.09 294.8,-26.75 301.17,-29.64"/>
</a>
</g>
</g>
<!-- Node22&#45;&gt;Node6 -->
<g id="edge41_Node000022_Node000006" class="edge">
<title>Node22&#45;&gt;Node6</title>
<g id="a_edge41_Node000022_Node000006"><a xlink:title=" ">
<path fill="none" stroke="#63b8ff" d="M962.97,-115.49C931.38,-105.17 878.04,-87.74 843.43,-76.43"/>
<polygon fill="#63b8ff" stroke="#63b8ff" points="844.36,-73.05 833.77,-73.27 842.19,-79.7 844.36,-73.05"/>
</a>
</g>
</g>
<!-- Node22&#45;&gt;Node7 -->
<g id="edge40_Node000022_Node000007" class="edge">
<title>Node22&#45;&gt;Node7</title>
<g id="a_edge40_Node000022_Node000007"><a xlink:title=" ">
<path fill="none" stroke="#63b8ff" d="M980.88,-115.47C962.9,-96.57 919.47,-50.93 896.25,-26.52"/>
<polygon fill="#63b8ff" stroke="#63b8ff" points="898.64,-23.96 889.21,-19.13 893.57,-28.79 898.64,-23.96"/>
</a>
</g>
</g>
<!-- Node23 -->
<g id="Node000023" class="node">
<title>Node23</title>
<g id="a_Node000023"><a xlink:title=" ">
<polygon fill="#e0e0e0" stroke="#999999" points="1035.5,-74 966.5,-74 966.5,-55 1035.5,-55 1035.5,-74"/>
<text text-anchor="middle" x="1001" y="-62" font-family="Helvetica,sans-Serif" font-size="10.00">type_traits</text>
</a>
</g>
</g>
<!-- Node22&#45;&gt;Node23 -->
<g id="edge42_Node000022_Node000023" class="edge">
<title>Node22&#45;&gt;Node23</title>
<g id="a_edge42_Node000022_Node000023"><a xlink:title=" ">
<path fill="none" stroke="#63b8ff" d="M990.77,-115.37C992.45,-107.16 995.04,-94.54 997.19,-84.05"/>
<polygon fill="#63b8ff" stroke="#63b8ff" points="1000.64,-84.67 999.22,-74.17 993.78,-83.26 1000.64,-84.67"/>
</a>
</g>
</g>
<!-- Node24&#45;&gt;Node5 -->
<g id="edge59_Node000024_Node000005" class="edge">
<title>Node24&#45;&gt;Node5</title>
<g id="a_edge59_Node000024_Node000005"><a xlink:title=" ">
<path fill="none" stroke="#63b8ff" d="M1177.42,-176.85C1078.75,-164.6 888.02,-140.91 806.48,-130.78"/>
<polygon fill="#63b8ff" stroke="#63b8ff" points="806.54,-127.26 796.18,-129.5 805.67,-134.21 806.54,-127.26"/>
</a>
</g>
</g>
<!-- Node24&#45;&gt;Node7 -->
<g id="edge44_Node000024_Node000007" class="edge">
<title>Node24&#45;&gt;Node7</title>
<g id="a_edge44_Node000024_Node000007"><a xlink:title=" ">
<path fill="none" stroke="#63b8ff" d="M1272.96,-175.98C1339.77,-157.73 1477.4,-111.86 1425,-55 1392.96,-20.24 1080.33,-12.63 944.01,-10.97"/>
<polygon fill="#63b8ff" stroke="#63b8ff" points="943.77,-7.46 933.73,-10.85 943.68,-14.46 943.77,-7.46"/>
</a>
</g>
</g>
<!-- Node25 -->
<g id="Node000025" class="node">
<title>Node25</title>
<g id="a_Node000025"><a xlink:href="array__like_8h.html" target="_top" xlink:title=" ">
<polygon fill="white" stroke="#666666" points="1203,-134.5 1129,-134.5 1129,-115.5 1203,-115.5 1203,-134.5"/>
<text text-anchor="middle" x="1166" y="-122.5" font-family="Helvetica,sans-Serif" font-size="10.00">array_like.h</text>
</a>
</g>
</g>
<!-- Node24&#45;&gt;Node25 -->
<g id="edge45_Node000024_Node000025" class="edge">
<title>Node24&#45;&gt;Node25</title>
<g id="a_edge45_Node000024_Node000025"><a xlink:title=" ">
<path fill="none" stroke="#63b8ff" d="M1228.23,-175.87C1216.8,-166.71 1198.52,-152.06 1184.72,-141.01"/>
<polygon fill="#63b8ff" stroke="#63b8ff" points="1186.81,-138.19 1176.82,-134.67 1182.43,-143.65 1186.81,-138.19"/>
</a>
</g>
</g>
<!-- Node27 -->
<g id="Node000027" class="node">
<title>Node27</title>
<g id="a_Node000027"><a xlink:title=" ">
<polygon fill="#e0e0e0" stroke="#999999" points="1416,-74 1374,-74 1374,-55 1416,-55 1416,-74"/>
<text text-anchor="middle" x="1395" y="-62" font-family="Helvetica,sans-Serif" font-size="10.00">array</text>
</a>
</g>
</g>
<!-- Node24&#45;&gt;Node27 -->
<g id="edge58_Node000024_Node000027" class="edge">
<title>Node24&#45;&gt;Node27</title>
<g id="a_edge58_Node000024_Node000027"><a xlink:title=" ">
<path fill="none" stroke="#63b8ff" d="M1250.22,-175.94C1276.51,-155.88 1342.38,-105.64 1375.44,-80.42"/>
<polygon fill="#63b8ff" stroke="#63b8ff" points="1377.63,-83.15 1383.46,-74.3 1373.39,-77.58 1377.63,-83.15"/>
</a>
</g>
</g>
<!-- Node30 -->
<g id="Node000030" class="node">
<title>Node30</title>
<g id="a_Node000030"><a xlink:title=" ">
<polygon fill="#e0e0e0" stroke="#999999" points="1524,-134.5 1472,-134.5 1472,-115.5 1524,-115.5 1524,-134.5"/>
<text text-anchor="middle" x="1498" y="-122.5" font-family="Helvetica,sans-Serif" font-size="10.00">cassert</text>
</a>
</g>
</g>
<!-- Node24&#45;&gt;Node30 -->
<g id="edge60_Node000024_Node000030" class="edge">
<title>Node24&#45;&gt;Node30</title>
<g id="a_edge60_Node000024_Node000030"><a xlink:title=" ">
<path fill="none" stroke="#63b8ff" d="M1291.24,-175.95C1335.91,-168.15 1401.7,-155.49 1458,-140 1460.48,-139.32 1463.03,-138.56 1465.59,-137.76"/>
<polygon fill="#63b8ff" stroke="#63b8ff" points="1466.93,-141 1475.32,-134.54 1464.73,-134.36 1466.93,-141"/>
</a>
</g>
</g>
<!-- Node25&#45;&gt;Node6 -->
<g id="edge47_Node000025_Node000006" class="edge">
<title>Node25&#45;&gt;Node6</title>
<g id="a_edge47_Node000025_Node000006"><a xlink:title=" ">
<path fill="none" stroke="#63b8ff" d="M1128.91,-117.91C1059.43,-106.49 910.68,-82.04 843.8,-71.05"/>
<polygon fill="#63b8ff" stroke="#63b8ff" points="844.22,-67.58 833.79,-69.41 843.09,-74.48 844.22,-67.58"/>
</a>
</g>
</g>
<!-- Node25&#45;&gt;Node7 -->
<g id="edge57_Node000025_Node000007" class="edge">
<title>Node25&#45;&gt;Node7</title>
<g id="a_edge57_Node000025_Node000007"><a xlink:title=" ">
<path fill="none" stroke="#63b8ff" d="M1166.36,-115.29C1166.46,-100.52 1164.35,-70.65 1147,-55 1117.9,-28.75 1013.11,-17.8 944.07,-13.37"/>
<polygon fill="#63b8ff" stroke="#63b8ff" points="943.93,-9.85 933.73,-12.74 943.5,-16.84 943.93,-9.85"/>
</a>
</g>
</g>
<!-- Node25&#45;&gt;Node9 -->
<g id="edge50_Node000025_Node000009" class="edge">
<title>Node25&#45;&gt;Node9</title>
<g id="a_edge50_Node000025_Node000009"><a xlink:title=" ">
<path fill="none" stroke="#63b8ff" d="M1151.83,-115.49C1122.23,-97.79 1055.57,-58.34 1044,-55 878.55,-7.32 440.59,-42.37 270,-19 268.49,-18.79 266.95,-18.55 265.4,-18.29"/>
<polygon fill="#63b8ff" stroke="#63b8ff" points="265.67,-14.78 255.19,-16.28 264.32,-21.65 265.67,-14.78"/>
</a>
</g>
</g>
<!-- Node25&#45;&gt;Node23 -->
<g id="edge49_Node000025_Node000023" class="edge">
<title>Node25&#45;&gt;Node23</title>
<g id="a_edge49_Node000025_Node000023"><a xlink:title=" ">
<path fill="none" stroke="#63b8ff" d="M1142.01,-115.49C1113.78,-105.49 1066.72,-88.8 1034.81,-77.49"/>
<polygon fill="#63b8ff" stroke="#63b8ff" points="1035.62,-74.06 1025.02,-74.02 1033.28,-80.66 1035.62,-74.06"/>
</a>
</g>
</g>
<!-- Node26 -->
<g id="Node000026" class="node">
<title>Node26</title>
<g id="a_Node000026"><a xlink:title=" ">
<polygon fill="#e0e0e0" stroke="#999999" points="1333.5,-19 1268.5,-19 1268.5,0 1333.5,0 1333.5,-19"/>
<text text-anchor="middle" x="1301" y="-7" font-family="Helvetica,sans-Serif" font-size="10.00">stdexcept</text>
</a>
</g>
</g>
<!-- Node25&#45;&gt;Node26 -->
<g id="edge46_Node000025_Node000026" class="edge">
<title>Node25&#45;&gt;Node26</title>
<g id="a_edge46_Node000025_Node000026"><a xlink:title=" ">
<path fill="none" stroke="#63b8ff" d="M1203.1,-124.21C1241.17,-122.18 1298.71,-112.41 1327,-74 1337.43,-59.84 1327.18,-40.89 1316.63,-27.38"/>
<polygon fill="#63b8ff" stroke="#63b8ff" points="1319.01,-24.77 1309.88,-19.4 1313.67,-29.3 1319.01,-24.77"/>
</a>
</g>
</g>
<!-- Node25&#45;&gt;Node27 -->
<g id="edge48_Node000025_Node000027" class="edge">
<title>Node25&#45;&gt;Node27</title>
<g id="a_edge48_Node000025_Node000027"><a xlink:title=" ">
<path fill="none" stroke="#63b8ff" d="M1199.3,-115.49C1243.53,-104.19 1321.08,-84.38 1364.08,-73.4"/>
<polygon fill="#63b8ff" stroke="#63b8ff" points="1365.15,-76.74 1373.98,-70.87 1363.42,-69.95 1365.15,-76.74"/>
</a>
</g>
</g>
<!-- Node28 -->
<g id="Node000028" class="node">
<title>Node28</title>
<g id="a_Node000028"><a xlink:href="trait_8h.html" target="_top" xlink:title=" ">
<polygon fill="white" stroke="#666666" points="1138,-74 1092,-74 1092,-55 1138,-55 1138,-74"/>
<text text-anchor="middle" x="1115" y="-62" font-family="Helvetica,sans-Serif" font-size="10.00">trait.h</text>
</a>
</g>
</g>
<!-- Node25&#45;&gt;Node28 -->
<g id="edge51_Node000025_Node000028" class="edge">
<title>Node25&#45;&gt;Node28</title>
<g id="a_edge51_Node000025_Node000028"><a xlink:title=" ">
<path fill="none" stroke="#63b8ff" d="M1158.47,-115.37C1150.79,-106.55 1138.68,-92.66 1129.19,-81.77"/>
<polygon fill="#63b8ff" stroke="#63b8ff" points="1131.77,-79.41 1122.56,-74.17 1126.49,-84.01 1131.77,-79.41"/>
</a>
</g>
</g>
<!-- Node29 -->
<g id="Node000029" class="node">
<title>Node29</title>
<g id="a_Node000029"><a xlink:href="exception_8h.html" target="_top" xlink:title=" ">
<polygon fill="white" stroke="#666666" points="1317.5,-74 1194.5,-74 1194.5,-55 1317.5,-55 1317.5,-74"/>
<text text-anchor="middle" x="1256" y="-62" font-family="Helvetica,sans-Serif" font-size="10.00">webcface/exception.h</text>
</a>
</g>
</g>
<!-- Node25&#45;&gt;Node29 -->
<g id="edge54_Node000025_Node000029" class="edge">
<title>Node25&#45;&gt;Node29</title>
<g id="a_edge54_Node000025_Node000029"><a xlink:title=" ">
<path fill="none" stroke="#63b8ff" d="M1179.28,-115.37C1193.64,-106.04 1216.76,-91.01 1233.87,-79.88"/>
<polygon fill="#63b8ff" stroke="#63b8ff" points="1236.19,-82.55 1242.67,-74.17 1232.37,-76.68 1236.19,-82.55"/>
</a>
</g>
</g>
<!-- Node28&#45;&gt;Node7 -->
<g id="edge53_Node000028_Node000007" class="edge">
<title>Node28&#45;&gt;Node7</title>
<g id="a_edge53_Node000028_Node000007"><a xlink:title=" ">
<path fill="none" stroke="#63b8ff" d="M1091.91,-58.18C1087.3,-57.12 1082.5,-56.02 1078,-55 1027.21,-43.43 969.02,-30.3 929.13,-21.32"/>
<polygon fill="#63b8ff" stroke="#63b8ff" points="929.67,-17.85 919.14,-19.07 928.13,-24.68 929.67,-17.85"/>
</a>
</g>
</g>
<!-- Node28&#45;&gt;Node21 -->
<g id="edge52_Node000028_Node000021" class="edge">
<title>Node28&#45;&gt;Node21</title>
<g id="a_edge52_Node000028_Node000021"><a xlink:title=" ">
<path fill="none" stroke="#63b8ff" d="M1091.62,-57.5C1087.13,-56.53 1082.44,-55.63 1078,-55 797.32,-14.96 454.35,-10.7 342.88,-10.43"/>
<polygon fill="#63b8ff" stroke="#63b8ff" points="342.83,-6.93 332.83,-10.42 342.82,-13.93 342.83,-6.93"/>
</a>
</g>
</g>
<!-- Node29&#45;&gt;Node7 -->
<g id="edge55_Node000029_Node000007" class="edge">
<title>Node29&#45;&gt;Node7</title>
<g id="a_edge55_Node000029_Node000007"><a xlink:title=" ">
<path fill="none" stroke="#63b8ff" d="M1195.75,-54.98C1126.58,-45.21 1013.68,-29.25 943.56,-19.34"/>
<polygon fill="#63b8ff" stroke="#63b8ff" points="943.92,-15.86 933.53,-17.92 942.94,-22.79 943.92,-15.86"/>
</a>
</g>
</g>
<!-- Node29&#45;&gt;Node26 -->
<g id="edge56_Node000029_Node000026" class="edge">
<title>Node29&#45;&gt;Node26</title>
<g id="a_edge56_Node000029_Node000026"><a xlink:title=" ">
<path fill="none" stroke="#63b8ff" d="M1263.43,-54.75C1269.85,-47.18 1279.31,-36.05 1287.12,-26.84"/>
<polygon fill="#63b8ff" stroke="#63b8ff" points="1289.9,-28.98 1293.71,-19.09 1284.57,-24.45 1289.9,-28.98"/>
</a>
</g>
</g>
</g>
</svg>
