<?xml version="1.0" encoding="UTF-8" standalone="no"?>
<!DOCTYPE svg PUBLIC "-//W3C//DTD SVG 1.1//EN"
 "http://www.w3.org/Graphics/SVG/1.1/DTD/svg11.dtd">
<!-- Generated by graphviz version 2.43.0 (0)
 -->
<!-- Title: /home/runner/work/webcface/webcface/client/include/webcface/component_canvas3d.h Pages: 1 -->
<svg width="1880pt" height="401pt"
 viewBox="0.00 0.00 1880.29 401.00" xmlns="http://www.w3.org/2000/svg" xmlns:xlink="http://www.w3.org/1999/xlink">
<g id="graph0" class="graph" transform="scale(1 1) rotate(0) translate(4 397)">
<title>/home/runner/work/webcface/webcface/client/include/webcface/component_canvas3d.h</title>
<!-- Node1 -->
<g id="Node000001" class="node">
<title>Node1</title>
<g id="a_Node000001"><a xlink:title=" ">
<polygon fill="#999999" stroke="#666666" points="1790.29,-393 1605.29,-393 1605.29,-352 1790.29,-352 1790.29,-393"/>
<text text-anchor="start" x="1613.29" y="-381" font-family="Helvetica,sans-Serif" font-size="10.00">/home/runner/work/webcface</text>
<text text-anchor="start" x="1613.29" y="-370" font-family="Helvetica,sans-Serif" font-size="10.00">/webcface/client/include</text>
<text text-anchor="middle" x="1697.79" y="-359" font-family="Helvetica,sans-Serif" font-size="10.00">/webcface/component_canvas3d.h</text>
</a>
</g>
</g>
<!-- Node2 -->
<g id="Node000002" class="node">
<title>Node2</title>
<g id="a_Node000002"><a xlink:href="component__view_8h.html" target="_top" xlink:title=" ">
<polygon fill="white" stroke="#666666" points="1205.29,-316 1084.29,-316 1084.29,-286 1205.29,-286 1205.29,-316"/>
<text text-anchor="start" x="1092.29" y="-304" font-family="Helvetica,sans-Serif" font-size="10.00">webcface/component</text>
<text text-anchor="middle" x="1144.79" y="-293" font-family="Helvetica,sans-Serif" font-size="10.00">_view.h</text>
</a>
</g>
</g>
<!-- Node1&#45;&gt;Node2 -->
<g id="edge1_Node000001_Node000002" class="edge">
<title>Node1&#45;&gt;Node2</title>
<g id="a_edge1_Node000001_Node000002"><a xlink:title=" ">
<path fill="none" stroke="#63b8ff" d="M1605.23,-359.87C1495.39,-346.06 1314.68,-323.35 1215.46,-310.88"/>
<polygon fill="#63b8ff" stroke="#63b8ff" points="1215.89,-307.41 1205.54,-309.63 1215.02,-314.35 1215.89,-307.41"/>
</a>
</g>
</g>
<!-- Node9 -->
<g id="Node000009" class="node">
<title>Node9</title>
<g id="a_Node000009"><a xlink:href="def_8h.html" target="_top" xlink:title=" ">
<polygon fill="white" stroke="#666666" points="1321.79,-19 1185.79,-19 1185.79,0 1321.79,0 1321.79,-19"/>
<text text-anchor="middle" x="1253.79" y="-7" font-family="Helvetica,sans-Serif" font-size="10.00">webcface/common/def.h</text>
</a>
</g>
</g>
<!-- Node1&#45;&gt;Node9 -->
<g id="edge77_Node000001_Node000009" class="edge">
<title>Node1&#45;&gt;Node9</title>
<g id="a_edge77_Node000001_Node000009"><a xlink:title=" ">
<path fill="none" stroke="#63b8ff" d="M1703.48,-351.87C1710.29,-326.58 1720.79,-281.15 1720.79,-241.5 1720.79,-241.5 1720.79,-241.5 1720.79,-124 1720.79,-44.97 1465.06,-20.75 1332.08,-13.5"/>
<polygon fill="#63b8ff" stroke="#63b8ff" points="1332.12,-10 1321.95,-12.97 1331.75,-16.99 1332.12,-10"/>
</a>
</g>
</g>
<!-- Node34 -->
<g id="Node000034" class="node">
<title>Node34</title>
<g id="a_Node000034"><a xlink:href="geometry_8h.html" target="_top" xlink:title=" ">
<polygon fill="white" stroke="#666666" points="1692.29,-134.5 1571.29,-134.5 1571.29,-115.5 1692.29,-115.5 1692.29,-134.5"/>
<text text-anchor="middle" x="1631.79" y="-122.5" font-family="Helvetica,sans-Serif" font-size="10.00">webcface/geometry.h</text>
</a>
</g>
</g>
<!-- Node1&#45;&gt;Node34 -->
<g id="edge71_Node000001_Node000034" class="edge">
<title>Node1&#45;&gt;Node34</title>
<g id="a_edge71_Node000001_Node000034"><a xlink:title=" ">
<path fill="none" stroke="#63b8ff" d="M1692.5,-351.82C1680.04,-305.46 1648.96,-189.87 1636.79,-144.6"/>
<polygon fill="#63b8ff" stroke="#63b8ff" points="1640.1,-143.44 1634.13,-134.69 1633.34,-145.25 1640.1,-143.44"/>
</a>
</g>
</g>
<!-- Node35 -->
<g id="Node000035" class="node">
<title>Node35</title>
<g id="a_Node000035"><a xlink:href="transform_8h.html" target="_top" xlink:title=" ">
<polygon fill="white" stroke="#666666" points="1872.29,-310.5 1749.29,-310.5 1749.29,-291.5 1872.29,-291.5 1872.29,-310.5"/>
<text text-anchor="middle" x="1810.79" y="-298.5" font-family="Helvetica,sans-Serif" font-size="10.00">webcface/transform.h</text>
</a>
</g>
</g>
<!-- Node1&#45;&gt;Node35 -->
<g id="edge74_Node000001_Node000035" class="edge">
<title>Node1&#45;&gt;Node35</title>
<g id="a_edge74_Node000001_Node000035"><a xlink:title=" ">
<path fill="none" stroke="#63b8ff" d="M1729.57,-351.96C1748.3,-340.44 1771.54,-326.14 1788.35,-315.8"/>
<polygon fill="#63b8ff" stroke="#63b8ff" points="1790.28,-318.72 1796.97,-310.5 1786.61,-312.76 1790.28,-318.72"/>
</a>
</g>
</g>
<!-- Node3 -->
<g id="Node000003" class="node">
<title>Node3</title>
<g id="a_Node000003"><a xlink:title=" ">
<polygon fill="#e0e0e0" stroke="#999999" points="1172.79,-134.5 1116.79,-134.5 1116.79,-115.5 1172.79,-115.5 1172.79,-134.5"/>
<text text-anchor="middle" x="1144.79" y="-122.5" font-family="Helvetica,sans-Serif" font-size="10.00">optional</text>
</a>
</g>
</g>
<!-- Node2&#45;&gt;Node3 -->
<g id="edge2_Node000002_Node000003" class="edge">
<title>Node2&#45;&gt;Node3</title>
<g id="a_edge2_Node000002_Node000003"><a xlink:title=" ">
<path fill="none" stroke="#63b8ff" d="M1144.79,-285.76C1144.79,-254.55 1144.79,-180.11 1144.79,-144.97"/>
<polygon fill="#63b8ff" stroke="#63b8ff" points="1148.29,-144.68 1144.79,-134.68 1141.29,-144.68 1148.29,-144.68"/>
</a>
</g>
</g>
<!-- Node4 -->
<g id="Node000004" class="node">
<title>Node4</title>
<g id="a_Node000004"><a xlink:title=" ">
<polygon fill="#e0e0e0" stroke="#999999" points="1225.29,-74 1178.29,-74 1178.29,-55 1225.29,-55 1225.29,-74"/>
<text text-anchor="middle" x="1201.79" y="-62" font-family="Helvetica,sans-Serif" font-size="10.00">vector</text>
</a>
</g>
</g>
<!-- Node2&#45;&gt;Node4 -->
<g id="edge3_Node000002_Node000004" class="edge">
<title>Node2&#45;&gt;Node4</title>
<g id="a_edge3_Node000002_Node000004"><a xlink:title=" ">
<path fill="none" stroke="#63b8ff" d="M1195.89,-285.98C1259.14,-265.57 1364.1,-220.97 1409.79,-140 1446.92,-74.2 1303.79,-65.55 1235.8,-65.06"/>
<polygon fill="#63b8ff" stroke="#63b8ff" points="1235.58,-61.56 1225.57,-65.05 1235.57,-68.56 1235.58,-61.56"/>
</a>
</g>
</g>
<!-- Node5 -->
<g id="Node000005" class="node">
<title>Node5</title>
<g id="a_Node000005"><a xlink:href="field_8h.html" target="_top" xlink:title=" ">
<polygon fill="white" stroke="#666666" points="603.29,-134.5 556.29,-134.5 556.29,-115.5 603.29,-115.5 603.29,-134.5"/>
<text text-anchor="middle" x="579.79" y="-122.5" font-family="Helvetica,sans-Serif" font-size="10.00">field.h</text>
</a>
</g>
</g>
<!-- Node2&#45;&gt;Node5 -->
<g id="edge4_Node000002_Node000005" class="edge">
<title>Node2&#45;&gt;Node5</title>
<g id="a_edge4_Node000002_Node000005"><a xlink:title=" ">
<path fill="none" stroke="#63b8ff" d="M1083.86,-289.37C1036.51,-280.52 969.41,-266.69 911.79,-250 797.5,-216.89 666.43,-163.04 609.15,-138.68"/>
<polygon fill="#63b8ff" stroke="#63b8ff" points="610.22,-135.33 599.65,-134.62 607.47,-141.77 610.22,-135.33"/>
</a>
</g>
</g>
<!-- Node2&#45;&gt;Node9 -->
<g id="edge18_Node000002_Node000009" class="edge">
<title>Node2&#45;&gt;Node9</title>
<g id="a_edge18_Node000002_Node000009"><a xlink:title=" ">
<path fill="none" stroke="#63b8ff" d="M1205.67,-295.32C1317.16,-285.06 1542.79,-255.75 1542.79,-186.5 1542.79,-186.5 1542.79,-186.5 1542.79,-124 1542.79,-74.79 1395.79,-38.04 1311.47,-21.01"/>
<polygon fill="#63b8ff" stroke="#63b8ff" points="1312,-17.55 1301.51,-19.03 1310.64,-24.41 1312,-17.55"/>
</a>
</g>
</g>
<!-- Node14 -->
<g id="Node000014" class="node">
<title>Node14</title>
<g id="a_Node000014"><a xlink:href="encoding_2include_2webcface_2encoding_2val__adaptor_8h.html" target="_top" xlink:title=" ">
<polygon fill="white" stroke="#666666" points="749.79,-140 621.79,-140 621.79,-110 749.79,-110 749.79,-140"/>
<text text-anchor="start" x="629.79" y="-128" font-family="Helvetica,sans-Serif" font-size="10.00">webcface/encoding/val</text>
<text text-anchor="middle" x="685.79" y="-117" font-family="Helvetica,sans-Serif" font-size="10.00">_adaptor.h</text>
</a>
</g>
</g>
<!-- Node2&#45;&gt;Node14 -->
<g id="edge19_Node000002_Node000014" class="edge">
<title>Node2&#45;&gt;Node14</title>
<g id="a_edge19_Node000002_Node000014"><a xlink:title=" ">
<path fill="none" stroke="#63b8ff" d="M1086.18,-285.95C1050.67,-276.88 1004.68,-264.17 964.79,-250 907.21,-229.55 894.64,-219.78 838.79,-195 800.41,-177.97 756.76,-158.25 725.94,-144.27"/>
<polygon fill="#63b8ff" stroke="#63b8ff" points="727.36,-141.07 716.8,-140.12 724.46,-147.44 727.36,-141.07"/>
</a>
</g>
</g>
<!-- Node20 -->
<g id="Node000020" class="node">
<title>Node20</title>
<g id="a_Node000020"><a xlink:href="component__id_8h.html" target="_top" xlink:title=" ">
<polygon fill="white" stroke="#666666" points="108.29,-74 13.29,-74 13.29,-55 108.29,-55 108.29,-74"/>
<text text-anchor="middle" x="60.79" y="-62" font-family="Helvetica,sans-Serif" font-size="10.00">component_id.h</text>
</a>
</g>
</g>
<!-- Node2&#45;&gt;Node20 -->
<g id="edge29_Node000002_Node000020" class="edge">
<title>Node2&#45;&gt;Node20</title>
<g id="a_edge29_Node000002_Node000020"><a xlink:title=" ">
<path fill="none" stroke="#63b8ff" d="M1083.83,-293.17C953.58,-278.26 638.66,-240.43 376.79,-195 259.99,-174.74 215.52,-204.1 115.79,-140 94.09,-126.05 77.98,-100.31 68.98,-83.04"/>
<polygon fill="#63b8ff" stroke="#63b8ff" points="72.09,-81.43 64.52,-74.01 65.81,-84.53 72.09,-81.43"/>
</a>
</g>
</g>
<!-- Node21 -->
<g id="Node000021" class="node">
<title>Node21</title>
<g id="a_Node000021"><a xlink:href="func_8h.html" target="_top" xlink:title=" ">
<polygon fill="white" stroke="#666666" points="1069.79,-250 973.79,-250 973.79,-231 1069.79,-231 1069.79,-250"/>
<text text-anchor="middle" x="1021.79" y="-238" font-family="Helvetica,sans-Serif" font-size="10.00">webcface/func.h</text>
</a>
</g>
</g>
<!-- Node2&#45;&gt;Node21 -->
<g id="edge33_Node000002_Node000021" class="edge">
<title>Node2&#45;&gt;Node21</title>
<g id="a_edge33_Node000002_Node000021"><a xlink:title=" ">
<path fill="none" stroke="#63b8ff" d="M1115.33,-285.99C1095.17,-276.4 1068.65,-263.79 1048.99,-254.44"/>
<polygon fill="#63b8ff" stroke="#63b8ff" points="1050.49,-251.27 1039.96,-250.14 1047.48,-257.6 1050.49,-251.27"/>
</a>
</g>
</g>
<!-- Node32 -->
<g id="Node000032" class="node">
<title>Node32</title>
<g id="a_Node000032"><a xlink:href="text_8h.html" target="_top" xlink:title=" ">
<polygon fill="white" stroke="#666666" points="1271.29,-195 1176.29,-195 1176.29,-176 1271.29,-176 1271.29,-195"/>
<text text-anchor="middle" x="1223.79" y="-183" font-family="Helvetica,sans-Serif" font-size="10.00">webcface/text.h</text>
</a>
</g>
</g>
<!-- Node2&#45;&gt;Node32 -->
<g id="edge62_Node000002_Node000032" class="edge">
<title>Node2&#45;&gt;Node32</title>
<g id="a_edge62_Node000002_Node000032"><a xlink:title=" ">
<path fill="none" stroke="#63b8ff" d="M1154.8,-285.63C1169.33,-264.75 1196.23,-226.09 1211.8,-203.72"/>
<polygon fill="#63b8ff" stroke="#63b8ff" points="1214.88,-205.44 1217.72,-195.23 1209.13,-201.44 1214.88,-205.44"/>
</a>
</g>
</g>
<!-- Node5&#45;&gt;Node4 -->
<g id="edge8_Node000005_Node000004" class="edge">
<title>Node5&#45;&gt;Node4</title>
<g id="a_edge8_Node000005_Node000004"><a xlink:title=" ">
<path fill="none" stroke="#63b8ff" d="M596.89,-115.46C601.9,-113.31 607.46,-111.26 612.79,-110 850.98,-53.5 923.07,-112.44 1168.22,-73.93"/>
<polygon fill="#63b8ff" stroke="#63b8ff" points="1168.82,-77.38 1178.14,-72.33 1167.71,-70.47 1168.82,-77.38"/>
</a>
</g>
</g>
<!-- Node6 -->
<g id="Node000006" class="node">
<title>Node6</title>
<g id="a_Node000006"><a xlink:title=" ">
<polygon fill="#e0e0e0" stroke="#999999" points="603.79,-19 545.79,-19 545.79,0 603.79,0 603.79,-19"/>
<text text-anchor="middle" x="574.79" y="-7" font-family="Helvetica,sans-Serif" font-size="10.00">memory</text>
</a>
</g>
</g>
<!-- Node5&#45;&gt;Node6 -->
<g id="edge5_Node000005_Node000006" class="edge">
<title>Node5&#45;&gt;Node6</title>
<g id="a_edge5_Node000005_Node000006"><a xlink:title=" ">
<path fill="none" stroke="#63b8ff" d="M572.67,-115.47C565.29,-106.02 554.22,-90 549.79,-74 545.31,-57.83 553.44,-40.12 561.6,-27.52"/>
<polygon fill="#63b8ff" stroke="#63b8ff" points="564.46,-29.53 567.36,-19.34 558.74,-25.5 564.46,-29.53"/>
</a>
</g>
</g>
<!-- Node7 -->
<g id="Node000007" class="node">
<title>Node7</title>
<g id="a_Node000007"><a xlink:title=" ">
<polygon fill="#e0e0e0" stroke="#999999" points="308.79,-19 264.79,-19 264.79,0 308.79,0 308.79,-19"/>
<text text-anchor="middle" x="286.79" y="-7" font-family="Helvetica,sans-Serif" font-size="10.00">string</text>
</a>
</g>
</g>
<!-- Node5&#45;&gt;Node7 -->
<g id="edge6_Node000005_Node000007" class="edge">
<title>Node5&#45;&gt;Node7</title>
<g id="a_edge6_Node000005_Node000007"><a xlink:title=" ">
<path fill="none" stroke="#63b8ff" d="M558.27,-115.44C552.94,-113.5 547.2,-111.55 541.79,-110 466.29,-88.37 440.11,-106.89 368.79,-74 343.13,-62.17 318.11,-40.98 302.6,-26.35"/>
<polygon fill="#63b8ff" stroke="#63b8ff" points="304.63,-23.45 295.01,-19 299.76,-28.47 304.63,-23.45"/>
</a>
</g>
</g>
<!-- Node8 -->
<g id="Node000008" class="node">
<title>Node8</title>
<g id="a_Node000008"><a xlink:title=" ">
<polygon fill="#e0e0e0" stroke="#999999" points="527.29,-19 454.29,-19 454.29,0 527.29,0 527.29,-19"/>
<text text-anchor="middle" x="490.79" y="-7" font-family="Helvetica,sans-Serif" font-size="10.00">string_view</text>
</a>
</g>
</g>
<!-- Node5&#45;&gt;Node8 -->
<g id="edge7_Node000005_Node000008" class="edge">
<title>Node5&#45;&gt;Node8</title>
<g id="a_edge7_Node000005_Node000008"><a xlink:title=" ">
<path fill="none" stroke="#63b8ff" d="M573.1,-115.47C558.41,-96.74 523.11,-51.72 503.86,-27.16"/>
<polygon fill="#63b8ff" stroke="#63b8ff" points="506.48,-24.84 497.56,-19.13 500.97,-29.16 506.48,-24.84"/>
</a>
</g>
</g>
<!-- Node5&#45;&gt;Node9 -->
<g id="edge9_Node000005_Node000009" class="edge">
<title>Node5&#45;&gt;Node9</title>
<g id="a_edge9_Node000005_Node000009"><a xlink:title=" ">
<path fill="none" stroke="#63b8ff" d="M598.03,-115.43C602.76,-113.44 607.91,-111.47 612.79,-110 696.33,-84.81 722.33,-99.45 805.79,-74 826.17,-67.79 829.2,-60.45 849.79,-55 960.46,-25.72 1093.11,-15.68 1175.44,-12.25"/>
<polygon fill="#63b8ff" stroke="#63b8ff" points="1175.62,-15.75 1185.47,-11.86 1175.34,-8.75 1175.62,-15.75"/>
</a>
</g>
</g>
<!-- Node10 -->
<g id="Node000010" class="node">
<title>Node10</title>
<g id="a_Node000010"><a xlink:href="encoding_8h.html" target="_top" xlink:title=" ">
<polygon fill="white" stroke="#666666" points="726.29,-74 559.29,-74 559.29,-55 726.29,-55 726.29,-74"/>
<text text-anchor="middle" x="642.79" y="-62" font-family="Helvetica,sans-Serif" font-size="10.00">webcface/encoding/encoding.h</text>
</a>
</g>
</g>
<!-- Node5&#45;&gt;Node10 -->
<g id="edge10_Node000005_Node000010" class="edge">
<title>Node5&#45;&gt;Node10</title>
<g id="a_edge10_Node000005_Node000010"><a xlink:title=" ">
<path fill="none" stroke="#63b8ff" d="M589.09,-115.37C598.77,-106.38 614.13,-92.11 625.95,-81.14"/>
<polygon fill="#63b8ff" stroke="#63b8ff" points="628.51,-83.54 633.46,-74.17 623.75,-78.41 628.51,-83.54"/>
</a>
</g>
</g>
<!-- Node10&#45;&gt;Node6 -->
<g id="edge13_Node000010_Node000006" class="edge">
<title>Node10&#45;&gt;Node6</title>
<g id="a_edge13_Node000010_Node000006"><a xlink:title=" ">
<path fill="none" stroke="#63b8ff" d="M631.87,-54.98C621.72,-47.07 606.37,-35.11 594.15,-25.58"/>
<polygon fill="#63b8ff" stroke="#63b8ff" points="595.95,-22.56 585.92,-19.17 591.65,-28.08 595.95,-22.56"/>
</a>
</g>
</g>
<!-- Node10&#45;&gt;Node7 -->
<g id="edge11_Node000010_Node000007" class="edge">
<title>Node10&#45;&gt;Node7</title>
<g id="a_edge11_Node000010_Node000007"><a xlink:title=" ">
<path fill="none" stroke="#63b8ff" d="M573.15,-54.96C509.19,-46.81 411.86,-33.64 327.79,-19 324.9,-18.5 321.91,-17.94 318.91,-17.36"/>
<polygon fill="#63b8ff" stroke="#63b8ff" points="319.36,-13.88 308.87,-15.35 317.99,-20.75 319.36,-13.88"/>
</a>
</g>
</g>
<!-- Node10&#45;&gt;Node8 -->
<g id="edge12_Node000010_Node000008" class="edge">
<title>Node10&#45;&gt;Node8</title>
<g id="a_edge12_Node000010_Node000008"><a xlink:title=" ">
<path fill="none" stroke="#63b8ff" d="M618.37,-54.98C593.07,-46.16 553.34,-32.31 524.94,-22.41"/>
<polygon fill="#63b8ff" stroke="#63b8ff" points="526,-19.07 515.4,-19.08 523.69,-25.68 526,-19.07"/>
</a>
</g>
</g>
<!-- Node10&#45;&gt;Node9 -->
<g id="edge17_Node000010_Node000009" class="edge">
<title>Node10&#45;&gt;Node9</title>
<g id="a_edge17_Node000010_Node000009"><a xlink:title=" ">
<path fill="none" stroke="#63b8ff" d="M726.39,-56.17C730.92,-55.77 735.41,-55.38 739.79,-55 894.21,-41.55 1074.74,-25.95 1175.52,-17.25"/>
<polygon fill="#63b8ff" stroke="#63b8ff" points="1175.95,-20.73 1185.61,-16.38 1175.35,-13.75 1175.95,-20.73"/>
</a>
</g>
</g>
<!-- Node11 -->
<g id="Node000011" class="node">
<title>Node11</title>
<g id="a_Node000011"><a xlink:title=" ">
<polygon fill="#e0e0e0" stroke="#999999" points="669.79,-19 621.79,-19 621.79,0 669.79,0 669.79,-19"/>
<text text-anchor="middle" x="645.79" y="-7" font-family="Helvetica,sans-Serif" font-size="10.00">mutex</text>
</a>
</g>
</g>
<!-- Node10&#45;&gt;Node11 -->
<g id="edge14_Node000010_Node000011" class="edge">
<title>Node10&#45;&gt;Node11</title>
<g id="a_edge14_Node000010_Node000011"><a xlink:title=" ">
<path fill="none" stroke="#63b8ff" d="M643.29,-54.75C643.68,-47.8 644.24,-37.85 644.74,-29.13"/>
<polygon fill="#63b8ff" stroke="#63b8ff" points="648.23,-29.27 645.31,-19.09 641.25,-28.88 648.23,-29.27"/>
</a>
</g>
</g>
<!-- Node12 -->
<g id="Node000012" class="node">
<title>Node12</title>
<g id="a_Node000012"><a xlink:title=" ">
<polygon fill="#e0e0e0" stroke="#999999" points="430.29,-19 337.29,-19 337.29,0 430.29,0 430.29,-19"/>
<text text-anchor="middle" x="383.79" y="-7" font-family="Helvetica,sans-Serif" font-size="10.00">unordered_map</text>
</a>
</g>
</g>
<!-- Node10&#45;&gt;Node12 -->
<g id="edge15_Node000010_Node000012" class="edge">
<title>Node10&#45;&gt;Node12</title>
<g id="a_edge15_Node000010_Node000012"><a xlink:title=" ">
<path fill="none" stroke="#63b8ff" d="M601.18,-54.98C556.19,-45.78 484.41,-31.09 435.74,-21.13"/>
<polygon fill="#63b8ff" stroke="#63b8ff" points="436.23,-17.66 425.73,-19.08 434.83,-24.52 436.23,-17.66"/>
</a>
</g>
</g>
<!-- Node13 -->
<g id="Node000013" class="node">
<title>Node13</title>
<g id="a_Node000013"><a xlink:title=" ">
<polygon fill="#e0e0e0" stroke="#999999" points="773.79,-19 687.79,-19 687.79,0 773.79,0 773.79,-19"/>
<text text-anchor="middle" x="730.79" y="-7" font-family="Helvetica,sans-Serif" font-size="10.00">unordered_set</text>
</a>
</g>
</g>
<!-- Node10&#45;&gt;Node13 -->
<g id="edge16_Node000010_Node000013" class="edge">
<title>Node10&#45;&gt;Node13</title>
<g id="a_edge16_Node000010_Node000013"><a xlink:title=" ">
<path fill="none" stroke="#63b8ff" d="M656.93,-54.98C670.58,-46.77 691.48,-34.18 707.57,-24.49"/>
<polygon fill="#63b8ff" stroke="#63b8ff" points="709.63,-27.33 716.4,-19.17 706.02,-21.33 709.63,-27.33"/>
</a>
</g>
</g>
<!-- Node14&#45;&gt;Node4 -->
<g id="edge21_Node000014_Node000004" class="edge">
<title>Node14&#45;&gt;Node4</title>
<g id="a_edge21_Node000014_Node000004"><a xlink:title=" ">
<path fill="none" stroke="#63b8ff" d="M750.02,-115.66C765.64,-113.72 782.31,-111.72 797.79,-110 959.66,-92.05 1004.57,-102.97 1168.2,-74.03"/>
<polygon fill="#63b8ff" stroke="#63b8ff" points="1168.9,-77.46 1178.12,-72.25 1167.66,-70.57 1168.9,-77.46"/>
</a>
</g>
</g>
<!-- Node14&#45;&gt;Node7 -->
<g id="edge20_Node000014_Node000007" class="edge">
<title>Node14&#45;&gt;Node7</title>
<g id="a_edge20_Node000014_Node000007"><a xlink:title=" ">
<path fill="none" stroke="#63b8ff" d="M636.47,-109.97C553.57,-86.39 388.56,-39.45 318.95,-19.65"/>
<polygon fill="#63b8ff" stroke="#63b8ff" points="319.59,-16.19 309.01,-16.82 317.67,-22.92 319.59,-16.19"/>
</a>
</g>
</g>
<!-- Node14&#45;&gt;Node9 -->
<g id="edge28_Node000014_Node000009" class="edge">
<title>Node14&#45;&gt;Node9</title>
<g id="a_edge28_Node000014_Node000009"><a xlink:title=" ">
<path fill="none" stroke="#63b8ff" d="M750.02,-112.18C754.67,-111.42 759.3,-110.68 763.79,-110 893.08,-90.44 930.42,-111.14 1055.79,-74 1074.28,-68.52 1076.77,-61.85 1094.79,-55 1131.3,-41.13 1173.99,-29.42 1205.94,-21.49"/>
<polygon fill="#63b8ff" stroke="#63b8ff" points="1207.03,-24.83 1215.91,-19.06 1205.36,-18.03 1207.03,-24.83"/>
</a>
</g>
</g>
<!-- Node14&#45;&gt;Node10 -->
<g id="edge27_Node000014_Node000010" class="edge">
<title>Node14&#45;&gt;Node10</title>
<g id="a_edge27_Node000014_Node000010"><a xlink:title=" ">
<path fill="none" stroke="#63b8ff" d="M675.38,-109.84C669.33,-101.61 661.67,-91.18 655.29,-82.51"/>
<polygon fill="#63b8ff" stroke="#63b8ff" points="657.98,-80.25 649.23,-74.27 652.34,-84.4 657.98,-80.25"/>
</a>
</g>
</g>
<!-- Node15 -->
<g id="Node000015" class="node">
<title>Node15</title>
<g id="a_Node000015"><a xlink:title=" ">
<polygon fill="#e0e0e0" stroke="#999999" points="968.29,-74 927.29,-74 927.29,-55 968.29,-55 968.29,-74"/>
<text text-anchor="middle" x="947.79" y="-62" font-family="Helvetica,sans-Serif" font-size="10.00">tuple</text>
</a>
</g>
</g>
<!-- Node14&#45;&gt;Node15 -->
<g id="edge22_Node000014_Node000015" class="edge">
<title>Node14&#45;&gt;Node15</title>
<g id="a_edge22_Node000014_Node000015"><a xlink:title=" ">
<path fill="none" stroke="#63b8ff" d="M749.87,-111.57C794.46,-102.62 855.47,-89.77 917.32,-74.24"/>
<polygon fill="#63b8ff" stroke="#63b8ff" points="918.41,-77.57 927.25,-71.72 916.69,-70.79 918.41,-77.57"/>
</a>
</g>
</g>
<!-- Node16 -->
<g id="Node000016" class="node">
<title>Node16</title>
<g id="a_Node000016"><a xlink:title=" ">
<polygon fill="#e0e0e0" stroke="#999999" points="1046.79,-74 986.79,-74 986.79,-55 1046.79,-55 1046.79,-74"/>
<text text-anchor="middle" x="1016.79" y="-62" font-family="Helvetica,sans-Serif" font-size="10.00">concepts</text>
</a>
</g>
</g>
<!-- Node14&#45;&gt;Node16 -->
<g id="edge23_Node000014_Node000016" class="edge">
<title>Node14&#45;&gt;Node16</title>
<g id="a_edge23_Node000014_Node000016"><a xlink:title=" ">
<path fill="none" stroke="#63b8ff" d="M750.05,-112.41C754.7,-111.59 759.32,-110.78 763.79,-110 855.66,-94.03 881.4,-92.37 976.53,-74.17"/>
<polygon fill="#63b8ff" stroke="#63b8ff" points="977.43,-77.56 986.59,-72.23 976.11,-70.69 977.43,-77.56"/>
</a>
</g>
</g>
<!-- Node17 -->
<g id="Node000017" class="node">
<title>Node17</title>
<g id="a_Node000017"><a xlink:title=" ">
<polygon fill="#e0e0e0" stroke="#999999" points="427.79,-74 377.79,-74 377.79,-55 427.79,-55 427.79,-74"/>
<text text-anchor="middle" x="402.79" y="-62" font-family="Helvetica,sans-Serif" font-size="10.00">cstdint</text>
</a>
</g>
</g>
<!-- Node14&#45;&gt;Node17 -->
<g id="edge24_Node000014_Node000017" class="edge">
<title>Node14&#45;&gt;Node17</title>
<g id="a_edge24_Node000014_Node000017"><a xlink:title=" ">
<path fill="none" stroke="#63b8ff" d="M621.79,-111.11C572.54,-101.14 502.82,-86.9 441.79,-74 440.53,-73.73 439.25,-73.46 437.96,-73.19"/>
<polygon fill="#63b8ff" stroke="#63b8ff" points="438.47,-69.72 427.96,-71.03 437,-76.56 438.47,-69.72"/>
</a>
</g>
</g>
<!-- Node18 -->
<g id="Node000018" class="node">
<title>Node18</title>
<g id="a_Node000018"><a xlink:title=" ">
<polygon fill="#e0e0e0" stroke="#999999" points="1160.29,-74 1103.29,-74 1103.29,-55 1160.29,-55 1160.29,-74"/>
<text text-anchor="middle" x="1131.79" y="-62" font-family="Helvetica,sans-Serif" font-size="10.00">ostream</text>
</a>
</g>
</g>
<!-- Node14&#45;&gt;Node18 -->
<g id="edge25_Node000014_Node000018" class="edge">
<title>Node14&#45;&gt;Node18</title>
<g id="a_edge25_Node000014_Node000018"><a xlink:title=" ">
<path fill="none" stroke="#63b8ff" d="M750.01,-112.12C754.67,-111.37 759.3,-110.65 763.79,-110 907.62,-89.15 945.16,-96.11 1088.79,-74 1090.25,-73.78 1091.73,-73.54 1093.23,-73.29"/>
<polygon fill="#63b8ff" stroke="#63b8ff" points="1093.94,-76.71 1103.17,-71.51 1092.71,-69.82 1093.94,-76.71"/>
</a>
</g>
</g>
<!-- Node19 -->
<g id="Node000019" class="node">
<title>Node19</title>
<g id="a_Node000019"><a xlink:title=" ">
<polygon fill="#e0e0e0" stroke="#999999" points="909.29,-74 858.29,-74 858.29,-55 909.29,-55 909.29,-74"/>
<text text-anchor="middle" x="883.79" y="-62" font-family="Helvetica,sans-Serif" font-size="10.00">variant</text>
</a>
</g>
</g>
<!-- Node14&#45;&gt;Node19 -->
<g id="edge26_Node000014_Node000019" class="edge">
<title>Node14&#45;&gt;Node19</title>
<g id="a_edge26_Node000014_Node000019"><a xlink:title=" ">
<path fill="none" stroke="#63b8ff" d="M733.22,-109.99C768.63,-99.53 816.25,-85.46 848.38,-75.96"/>
<polygon fill="#63b8ff" stroke="#63b8ff" points="849.63,-79.24 858.23,-73.05 847.65,-72.53 849.63,-79.24"/>
</a>
</g>
</g>
<!-- Node20&#45;&gt;Node7 -->
<g id="edge32_Node000020_Node000007" class="edge">
<title>Node20&#45;&gt;Node7</title>
<g id="a_edge32_Node000020_Node000007"><a xlink:title=" ">
<path fill="none" stroke="#63b8ff" d="M97.1,-54.98C140.7,-44.76 213.13,-27.78 254.74,-18.02"/>
<polygon fill="#63b8ff" stroke="#63b8ff" points="255.68,-21.39 264.61,-15.7 254.08,-14.58 255.68,-21.39"/>
</a>
</g>
</g>
<!-- Node20&#45;&gt;Node9 -->
<g id="edge30_Node000020_Node000009" class="edge">
<title>Node20&#45;&gt;Node9</title>
<g id="a_edge30_Node000020_Node000009"><a xlink:title=" ">
<path fill="none" stroke="#63b8ff" d="M108.41,-55.9C111.24,-55.57 114.05,-55.26 116.79,-55 322.84,-35.39 953.38,-18.07 1175.42,-12.43"/>
<polygon fill="#63b8ff" stroke="#63b8ff" points="1175.78,-15.92 1185.69,-12.17 1175.6,-8.92 1175.78,-15.92"/>
</a>
</g>
</g>
<!-- Node20&#45;&gt;Node12 -->
<g id="edge31_Node000020_Node000012" class="edge">
<title>Node20&#45;&gt;Node12</title>
<g id="a_edge31_Node000020_Node000012"><a xlink:title=" ">
<path fill="none" stroke="#63b8ff" d="M108.45,-55.68C166.71,-46.12 265.2,-29.96 327.24,-19.78"/>
<polygon fill="#63b8ff" stroke="#63b8ff" points="327.95,-23.21 337.25,-18.14 326.81,-16.3 327.95,-23.21"/>
</a>
</g>
</g>
<!-- Node21&#45;&gt;Node4 -->
<g id="edge34_Node000021_Node000004" class="edge">
<title>Node21&#45;&gt;Node4</title>
<g id="a_edge34_Node000021_Node000004"><a xlink:title=" ">
<path fill="none" stroke="#63b8ff" d="M1025.54,-230.77C1035.68,-208.07 1065.75,-146.38 1107.79,-110 1125.46,-94.71 1149.3,-83.5 1168.54,-76.16"/>
<polygon fill="#63b8ff" stroke="#63b8ff" points="1169.93,-79.38 1178.13,-72.67 1167.54,-72.8 1169.93,-79.38"/>
</a>
</g>
</g>
<!-- Node21&#45;&gt;Node9 -->
<g id="edge61_Node000021_Node000009" class="edge">
<title>Node21&#45;&gt;Node9</title>
<g id="a_edge61_Node000021_Node000009"><a xlink:title=" ">
<path fill="none" stroke="#63b8ff" d="M1070.05,-235.44C1168.59,-226 1387.05,-198.74 1427.79,-140 1450.98,-106.57 1425.87,-80.02 1393.79,-55 1372.67,-38.52 1345.3,-28.07 1320.38,-21.48"/>
<polygon fill="#63b8ff" stroke="#63b8ff" points="1321.15,-18.07 1310.6,-19.06 1319.46,-24.86 1321.15,-18.07"/>
</a>
</g>
</g>
<!-- Node21&#45;&gt;Node14 -->
<g id="edge46_Node000021_Node000014" class="edge">
<title>Node21&#45;&gt;Node14</title>
<g id="a_edge46_Node000021_Node000014"><a xlink:title=" ">
<path fill="none" stroke="#63b8ff" d="M996.54,-230.97C941.54,-212.39 810.05,-167.97 736.97,-143.29"/>
<polygon fill="#63b8ff" stroke="#63b8ff" points="738.09,-139.97 727.49,-140.09 735.84,-146.6 738.09,-139.97"/>
</a>
</g>
</g>
<!-- Node22 -->
<g id="Node000022" class="node">
<title>Node22</title>
<g id="a_Node000022"><a xlink:href="func__info_8h.html" target="_top" xlink:title=" ">
<polygon fill="white" stroke="#666666" points="1010.29,-195 939.29,-195 939.29,-176 1010.29,-176 1010.29,-195"/>
<text text-anchor="middle" x="974.79" y="-183" font-family="Helvetica,sans-Serif" font-size="10.00">func_info.h</text>
</a>
</g>
</g>
<!-- Node21&#45;&gt;Node22 -->
<g id="edge35_Node000021_Node000022" class="edge">
<title>Node21&#45;&gt;Node22</title>
<g id="a_edge35_Node000021_Node000022"><a xlink:title=" ">
<path fill="none" stroke="#63b8ff" d="M1014.03,-230.75C1007.32,-223.18 997.45,-212.05 989.29,-202.84"/>
<polygon fill="#63b8ff" stroke="#63b8ff" points="991.66,-200.25 982.41,-195.09 986.42,-204.89 991.66,-200.25"/>
</a>
</g>
</g>
<!-- Node27 -->
<g id="Node000027" class="node">
<title>Node27</title>
<g id="a_Node000027"><a xlink:href="func__result_8h.html" target="_top" xlink:title=" ">
<polygon fill="white" stroke="#666666" points="465.79,-195 385.79,-195 385.79,-176 465.79,-176 465.79,-195"/>
<text text-anchor="middle" x="425.79" y="-183" font-family="Helvetica,sans-Serif" font-size="10.00">func_result.h</text>
</a>
</g>
</g>
<!-- Node21&#45;&gt;Node27 -->
<g id="edge47_Node000021_Node000027" class="edge">
<title>Node21&#45;&gt;Node27</title>
<g id="a_edge47_Node000021_Node000027"><a xlink:title=" ">
<path fill="none" stroke="#63b8ff" d="M973.77,-235.23C862.83,-225.36 589.56,-201.06 476.26,-190.99"/>
<polygon fill="#63b8ff" stroke="#63b8ff" points="476.4,-187.49 466.13,-190.09 475.78,-194.46 476.4,-187.49"/>
</a>
</g>
</g>
<!-- Node22&#45;&gt;Node3 -->
<g id="edge40_Node000022_Node000003" class="edge">
<title>Node22&#45;&gt;Node3</title>
<g id="a_edge40_Node000022_Node000003"><a xlink:title=" ">
<path fill="none" stroke="#63b8ff" d="M999.51,-175.99C1028.72,-165.94 1077.5,-149.16 1110.38,-137.84"/>
<polygon fill="#63b8ff" stroke="#63b8ff" points="1111.73,-141.08 1120.04,-134.52 1109.45,-134.46 1111.73,-141.08"/>
</a>
</g>
</g>
<!-- Node22&#45;&gt;Node4 -->
<g id="edge37_Node000022_Node000004" class="edge">
<title>Node22&#45;&gt;Node4</title>
<g id="a_edge37_Node000022_Node000004"><a xlink:title=" ">
<path fill="none" stroke="#63b8ff" d="M979.52,-175.89C988.54,-160.28 1009.73,-127.35 1036.79,-110 1038.21,-109.09 1120.29,-87.17 1168.13,-74.44"/>
<polygon fill="#63b8ff" stroke="#63b8ff" points="1169.3,-77.76 1178.06,-71.8 1167.5,-70.99 1169.3,-77.76"/>
</a>
</g>
</g>
<!-- Node22&#45;&gt;Node7 -->
<g id="edge41_Node000022_Node000007" class="edge">
<title>Node22&#45;&gt;Node7</title>
<g id="a_edge41_Node000022_Node000007"><a xlink:title=" ">
<path fill="none" stroke="#63b8ff" d="M939.05,-183.34C849.51,-180.02 617.73,-168.82 546.79,-140 526.86,-131.9 528.3,-119.08 508.79,-110 436.8,-76.5 400.72,-116.73 333.79,-74 316.32,-62.85 303.1,-42.73 295.2,-28.12"/>
<polygon fill="#63b8ff" stroke="#63b8ff" points="298.24,-26.39 290.59,-19.07 292,-29.57 298.24,-26.39"/>
</a>
</g>
</g>
<!-- Node22&#45;&gt;Node9 -->
<g id="edge45_Node000022_Node000009" class="edge">
<title>Node22&#45;&gt;Node9</title>
<g id="a_edge45_Node000022_Node000009"><a xlink:title=" ">
<path fill="none" stroke="#63b8ff" d="M987.86,-175.8C1011.12,-160.64 1061.59,-129.17 1107.79,-110 1161.98,-87.51 1193.01,-115.18 1234.79,-74 1246.69,-62.27 1251.2,-43.42 1252.88,-29.3"/>
<polygon fill="#63b8ff" stroke="#63b8ff" points="1256.38,-29.47 1253.71,-19.22 1249.4,-28.9 1256.38,-29.47"/>
</a>
</g>
</g>
<!-- Node22&#45;&gt;Node14 -->
<g id="edge44_Node000022_Node000014" class="edge">
<title>Node22&#45;&gt;Node14</title>
<g id="a_edge44_Node000022_Node000014"><a xlink:title=" ">
<path fill="none" stroke="#63b8ff" d="M939.06,-177.27C894.61,-168.27 817.57,-152.68 760.1,-141.04"/>
<polygon fill="#63b8ff" stroke="#63b8ff" points="760.46,-137.54 749.97,-138.99 759.08,-144.41 760.46,-137.54"/>
</a>
</g>
</g>
<!-- Node22&#45;&gt;Node18 -->
<g id="edge42_Node000022_Node000018" class="edge">
<title>Node22&#45;&gt;Node18</title>
<g id="a_edge42_Node000022_Node000018"><a xlink:title=" ">
<path fill="none" stroke="#63b8ff" d="M975.13,-175.86C976.21,-160.5 980.64,-128.36 998.79,-110 1012.23,-96.41 1059.21,-82.75 1093.54,-74.22"/>
<polygon fill="#63b8ff" stroke="#63b8ff" points="1094.4,-77.61 1103.29,-71.85 1092.74,-70.81 1094.4,-77.61"/>
</a>
</g>
</g>
<!-- Node23 -->
<g id="Node000023" class="node">
<title>Node23</title>
<g id="a_Node000023"><a xlink:title=" ">
<polygon fill="#e0e0e0" stroke="#999999" points="499.79,-134.5 453.79,-134.5 453.79,-115.5 499.79,-115.5 499.79,-134.5"/>
<text text-anchor="middle" x="476.79" y="-122.5" font-family="Helvetica,sans-Serif" font-size="10.00">future</text>
</a>
</g>
</g>
<!-- Node22&#45;&gt;Node23 -->
<g id="edge36_Node000022_Node000023" class="edge">
<title>Node22&#45;&gt;Node23</title>
<g id="a_edge36_Node000022_Node000023"><a xlink:title=" ">
<path fill="none" stroke="#63b8ff" d="M939.29,-184.26C861.27,-183.05 669.43,-176.27 513.79,-140 511.27,-139.41 508.7,-138.7 506.13,-137.9"/>
<polygon fill="#63b8ff" stroke="#63b8ff" points="507.05,-134.52 496.46,-134.55 504.76,-141.13 507.05,-134.52"/>
</a>
</g>
</g>
<!-- Node24 -->
<g id="Node000024" class="node">
<title>Node24</title>
<g id="a_Node000024"><a xlink:title=" ">
<polygon fill="#e0e0e0" stroke="#999999" points="875.29,-134.5 806.29,-134.5 806.29,-115.5 875.29,-115.5 875.29,-134.5"/>
<text text-anchor="middle" x="840.79" y="-122.5" font-family="Helvetica,sans-Serif" font-size="10.00">type_traits</text>
</a>
</g>
</g>
<!-- Node22&#45;&gt;Node24 -->
<g id="edge38_Node000022_Node000024" class="edge">
<title>Node22&#45;&gt;Node24</title>
<g id="a_edge38_Node000022_Node000024"><a xlink:title=" ">
<path fill="none" stroke="#63b8ff" d="M955.31,-175.99C932.78,-166.16 895.49,-149.88 869.61,-138.58"/>
<polygon fill="#63b8ff" stroke="#63b8ff" points="870.86,-135.31 860.3,-134.52 868.06,-141.73 870.86,-135.31"/>
</a>
</g>
</g>
<!-- Node25 -->
<g id="Node000025" class="node">
<title>Node25</title>
<g id="a_Node000025"><a xlink:title=" ">
<polygon fill="#e0e0e0" stroke="#999999" points="1256.29,-134.5 1191.29,-134.5 1191.29,-115.5 1256.29,-115.5 1256.29,-134.5"/>
<text text-anchor="middle" x="1223.79" y="-122.5" font-family="Helvetica,sans-Serif" font-size="10.00">functional</text>
</a>
</g>
</g>
<!-- Node22&#45;&gt;Node25 -->
<g id="edge39_Node000022_Node000025" class="edge">
<title>Node22&#45;&gt;Node25</title>
<g id="a_edge39_Node000022_Node000025"><a xlink:title=" ">
<path fill="none" stroke="#63b8ff" d="M1010.61,-178.04C1052.11,-170.27 1122.4,-156.23 1181.79,-140 1184.41,-139.28 1187.11,-138.5 1189.81,-137.68"/>
<polygon fill="#63b8ff" stroke="#63b8ff" points="1191.03,-140.96 1199.5,-134.6 1188.91,-134.29 1191.03,-140.96"/>
</a>
</g>
</g>
<!-- Node26 -->
<g id="Node000026" class="node">
<title>Node26</title>
<g id="a_Node000026"><a xlink:title=" ">
<polygon fill="#e0e0e0" stroke="#999999" points="946.29,-134.5 893.29,-134.5 893.29,-115.5 946.29,-115.5 946.29,-134.5"/>
<text text-anchor="middle" x="919.79" y="-122.5" font-family="Helvetica,sans-Serif" font-size="10.00">cstddef</text>
</a>
</g>
</g>
<!-- Node22&#45;&gt;Node26 -->
<g id="edge43_Node000022_Node000026" class="edge">
<title>Node22&#45;&gt;Node26</title>
<g id="a_edge43_Node000022_Node000026"><a xlink:title=" ">
<path fill="none" stroke="#63b8ff" d="M966.68,-175.87C958.39,-167.05 945.33,-153.16 935.09,-142.27"/>
<polygon fill="#63b8ff" stroke="#63b8ff" points="937.34,-139.56 927.94,-134.67 932.24,-144.35 937.34,-139.56"/>
</a>
</g>
</g>
<!-- Node27&#45;&gt;Node5 -->
<g id="edge54_Node000027_Node000005" class="edge">
<title>Node27&#45;&gt;Node5</title>
<g id="a_edge54_Node000027_Node000005"><a xlink:title=" ">
<path fill="none" stroke="#63b8ff" d="M448.18,-175.99C474.42,-166.03 518.07,-149.45 547.85,-138.13"/>
<polygon fill="#63b8ff" stroke="#63b8ff" points="549.27,-141.34 557.37,-134.52 546.78,-134.8 549.27,-141.34"/>
</a>
</g>
</g>
<!-- Node27&#45;&gt;Node6 -->
<g id="edge51_Node000027_Node000006" class="edge">
<title>Node27&#45;&gt;Node6</title>
<g id="a_edge51_Node000027_Node000006"><a xlink:title=" ">
<path fill="none" stroke="#63b8ff" d="M416.14,-175.79C392.74,-153.65 337.16,-94.18 368.79,-55 414.53,1.65 457.88,-32.04 535.28,-18.87"/>
<polygon fill="#63b8ff" stroke="#63b8ff" points="536.25,-22.25 545.41,-16.91 534.92,-15.37 536.25,-22.25"/>
</a>
</g>
</g>
<!-- Node27&#45;&gt;Node7 -->
<g id="edge49_Node000027_Node000007" class="edge">
<title>Node27&#45;&gt;Node7</title>
<g id="a_edge49_Node000027_Node000007"><a xlink:title=" ">
<path fill="none" stroke="#63b8ff" d="M385.47,-183.67C325.17,-181.34 208.65,-172.59 115.79,-140 61.27,-120.87 32.46,-124.17 3.79,-74 -0.4,-66.67 -1.7,-61.42 3.79,-55 35.78,-17.59 187.45,-11.43 254.63,-10.56"/>
<polygon fill="#63b8ff" stroke="#63b8ff" points="254.69,-14.06 264.66,-10.46 254.62,-7.06 254.69,-14.06"/>
</a>
</g>
</g>
<!-- Node27&#45;&gt;Node9 -->
<g id="edge56_Node000027_Node000009" class="edge">
<title>Node27&#45;&gt;Node9</title>
<g id="a_edge56_Node000027_Node000009"><a xlink:title=" ">
<path fill="none" stroke="#63b8ff" d="M425.12,-175.77C424.44,-159.96 425.55,-126.73 444.79,-110 499.8,-62.19 701.24,-95.79 770.79,-74 787.68,-68.71 788.87,-60.2 805.79,-55 872.81,-34.4 1065.91,-20.82 1175.46,-14.54"/>
<polygon fill="#63b8ff" stroke="#63b8ff" points="1175.69,-18.03 1185.47,-13.97 1175.29,-11.04 1175.69,-18.03"/>
</a>
</g>
</g>
<!-- Node27&#45;&gt;Node14 -->
<g id="edge55_Node000027_Node000014" class="edge">
<title>Node27&#45;&gt;Node14</title>
<g id="a_edge55_Node000027_Node000014"><a xlink:title=" ">
<path fill="none" stroke="#63b8ff" d="M463.6,-175.99C502.8,-167.17 565.04,-153.17 613.69,-142.22"/>
<polygon fill="#63b8ff" stroke="#63b8ff" points="614.55,-145.62 623.53,-140.01 613.01,-138.79 614.55,-145.62"/>
</a>
</g>
</g>
<!-- Node27&#45;&gt;Node17 -->
<g id="edge53_Node000027_Node000017" class="edge">
<title>Node27&#45;&gt;Node17</title>
<g id="a_edge53_Node000027_Node000017"><a xlink:title=" ">
<path fill="none" stroke="#63b8ff" d="M422.51,-175.76C419.31,-166.88 414.52,-152.67 411.79,-140 407.76,-121.33 405.4,-99.6 404.11,-84.45"/>
<polygon fill="#63b8ff" stroke="#63b8ff" points="407.59,-84 403.33,-74.3 400.61,-84.54 407.59,-84"/>
</a>
</g>
</g>
<!-- Node27&#45;&gt;Node18 -->
<g id="edge48_Node000027_Node000018" class="edge">
<title>Node27&#45;&gt;Node18</title>
<g id="a_edge48_Node000027_Node000018"><a xlink:title=" ">
<path fill="none" stroke="#63b8ff" d="M466.03,-181.74C542.68,-176.05 706.62,-161.71 758.79,-140 778.98,-131.6 777.56,-118.3 797.79,-110 918.35,-60.53 960.12,-94.65 1088.79,-74 1090.25,-73.77 1091.73,-73.52 1093.22,-73.26"/>
<polygon fill="#63b8ff" stroke="#63b8ff" points="1093.95,-76.69 1103.16,-71.46 1092.7,-69.8 1093.95,-76.69"/>
</a>
</g>
</g>
<!-- Node27&#45;&gt;Node23 -->
<g id="edge50_Node000027_Node000023" class="edge">
<title>Node27&#45;&gt;Node23</title>
<g id="a_edge50_Node000027_Node000023"><a xlink:title=" ">
<path fill="none" stroke="#63b8ff" d="M433.32,-175.87C441,-167.05 453.11,-153.16 462.61,-142.27"/>
<polygon fill="#63b8ff" stroke="#63b8ff" points="465.3,-144.51 469.24,-134.67 460.03,-139.91 465.3,-144.51"/>
</a>
</g>
</g>
<!-- Node28 -->
<g id="Node000028" class="node">
<title>Node28</title>
<g id="a_Node000028"><a xlink:title=" ">
<polygon fill="#e0e0e0" stroke="#999999" points="321.29,-134.5 256.29,-134.5 256.29,-115.5 321.29,-115.5 321.29,-134.5"/>
<text text-anchor="middle" x="288.79" y="-122.5" font-family="Helvetica,sans-Serif" font-size="10.00">stdexcept</text>
</a>
</g>
</g>
<!-- Node27&#45;&gt;Node28 -->
<g id="edge52_Node000027_Node000028" class="edge">
<title>Node27&#45;&gt;Node28</title>
<g id="a_edge52_Node000027_Node000028"><a xlink:title=" ">
<path fill="none" stroke="#63b8ff" d="M405.87,-175.99C382.84,-166.16 344.71,-149.88 318.25,-138.58"/>
<polygon fill="#63b8ff" stroke="#63b8ff" points="319.31,-135.22 308.74,-134.52 316.56,-141.66 319.31,-135.22"/>
</a>
</g>
</g>
<!-- Node29 -->
<g id="Node000029" class="node">
<title>Node29</title>
<g id="a_Node000029"><a xlink:href="def__types_8h.html" target="_top" xlink:title=" ">
<polygon fill="white" stroke="#666666" points="238.29,-140 125.29,-140 125.29,-110 238.29,-110 238.29,-140"/>
<text text-anchor="start" x="133.29" y="-128" font-family="Helvetica,sans-Serif" font-size="10.00">webcface/c_wcf/def</text>
<text text-anchor="middle" x="181.79" y="-117" font-family="Helvetica,sans-Serif" font-size="10.00">_types.h</text>
</a>
</g>
</g>
<!-- Node27&#45;&gt;Node29 -->
<g id="edge57_Node000027_Node000029" class="edge">
<title>Node27&#45;&gt;Node29</title>
<g id="a_edge57_Node000027_Node000029"><a xlink:title=" ">
<path fill="none" stroke="#63b8ff" d="M390.31,-175.99C353.25,-167.11 294.23,-152.96 248.43,-141.98"/>
<polygon fill="#63b8ff" stroke="#63b8ff" points="249.11,-138.54 238.57,-139.61 247.48,-145.35 249.11,-138.54"/>
</a>
</g>
</g>
<!-- Node29&#45;&gt;Node9 -->
<g id="edge58_Node000029_Node000009" class="edge">
<title>Node29&#45;&gt;Node9</title>
<g id="a_edge58_Node000029_Node000009"><a xlink:title=" ">
<path fill="none" stroke="#63b8ff" d="M238.43,-111.32C241.25,-110.84 244.05,-110.39 246.79,-110 462.05,-79.03 523.8,-126.72 734.79,-74 755.06,-68.94 757.57,-60.26 777.79,-55 914.58,-19.4 1080.01,-11.47 1175.45,-10.15"/>
<polygon fill="#63b8ff" stroke="#63b8ff" points="1175.65,-13.65 1185.6,-10.03 1175.56,-6.65 1175.65,-13.65"/>
</a>
</g>
</g>
<!-- Node30 -->
<g id="Node000030" class="node">
<title>Node30</title>
<g id="a_Node000030"><a xlink:title=" ">
<polygon fill="#e0e0e0" stroke="#999999" points="245.79,-74 191.79,-74 191.79,-55 245.79,-55 245.79,-74"/>
<text text-anchor="middle" x="218.79" y="-62" font-family="Helvetica,sans-Serif" font-size="10.00">wchar.h</text>
</a>
</g>
</g>
<!-- Node29&#45;&gt;Node30 -->
<g id="edge59_Node000029_Node000030" class="edge">
<title>Node29&#45;&gt;Node30</title>
<g id="a_edge59_Node000029_Node000030"><a xlink:title=" ">
<path fill="none" stroke="#63b8ff" d="M190.75,-109.84C195.9,-101.69 202.41,-91.4 207.86,-82.78"/>
<polygon fill="#63b8ff" stroke="#63b8ff" points="210.86,-84.59 213.25,-74.27 204.94,-80.85 210.86,-84.59"/>
</a>
</g>
</g>
<!-- Node31 -->
<g id="Node000031" class="node">
<title>Node31</title>
<g id="a_Node000031"><a xlink:title=" ">
<polygon fill="#e0e0e0" stroke="#999999" points="173.29,-74 126.29,-74 126.29,-55 173.29,-55 173.29,-74"/>
<text text-anchor="middle" x="149.79" y="-62" font-family="Helvetica,sans-Serif" font-size="10.00">float.h</text>
</a>
</g>
</g>
<!-- Node29&#45;&gt;Node31 -->
<g id="edge60_Node000029_Node000031" class="edge">
<title>Node29&#45;&gt;Node31</title>
<g id="a_edge60_Node000029_Node000031"><a xlink:title=" ">
<path fill="none" stroke="#63b8ff" d="M174.04,-109.84C169.64,-101.78 164.08,-91.62 159.39,-83.06"/>
<polygon fill="#63b8ff" stroke="#63b8ff" points="162.46,-81.36 154.59,-74.27 156.31,-84.72 162.46,-81.36"/>
</a>
</g>
</g>
<!-- Node32&#45;&gt;Node3 -->
<g id="edge65_Node000032_Node000003" class="edge">
<title>Node32&#45;&gt;Node3</title>
<g id="a_edge65_Node000032_Node000003"><a xlink:title=" ">
<path fill="none" stroke="#63b8ff" d="M1212.13,-175.87C1199.65,-166.62 1179.61,-151.78 1164.63,-140.69"/>
<polygon fill="#63b8ff" stroke="#63b8ff" points="1166.62,-137.81 1156.5,-134.67 1162.45,-143.43 1166.62,-137.81"/>
</a>
</g>
</g>
<!-- Node32&#45;&gt;Node5 -->
<g id="edge68_Node000032_Node000005" class="edge">
<title>Node32&#45;&gt;Node5</title>
<g id="a_edge68_Node000032_Node000005"><a xlink:title=" ">
<path fill="none" stroke="#63b8ff" d="M1176,-181.92C1041.66,-174.55 666.94,-153.08 612.79,-140 610.63,-139.48 608.43,-138.83 606.24,-138.1"/>
<polygon fill="#63b8ff" stroke="#63b8ff" points="607.49,-134.83 596.9,-134.51 604.98,-141.36 607.49,-134.83"/>
</a>
</g>
</g>
<!-- Node32&#45;&gt;Node6 -->
<g id="edge67_Node000032_Node000006" class="edge">
<title>Node32&#45;&gt;Node6</title>
<g id="a_edge67_Node000032_Node000006"><a xlink:title=" ">
<path fill="none" stroke="#63b8ff" d="M1242.46,-175.97C1256.13,-168.59 1273.65,-156.5 1281.79,-140 1300.89,-101.28 1273.46,-74.19 1234.79,-55 1113.56,5.18 766,-36.22 614.3,-18.86"/>
<polygon fill="#63b8ff" stroke="#63b8ff" points="614.53,-15.36 604.16,-17.56 613.64,-22.3 614.53,-15.36"/>
</a>
</g>
</g>
<!-- Node32&#45;&gt;Node9 -->
<g id="edge69_Node000032_Node000009" class="edge">
<title>Node32&#45;&gt;Node9</title>
<g id="a_edge69_Node000032_Node000009"><a xlink:title=" ">
<path fill="none" stroke="#63b8ff" d="M1271.61,-179.73C1320.9,-173.7 1392.88,-161.44 1409.79,-140 1450.6,-88.28 1348.34,-42.96 1290.41,-22.33"/>
<polygon fill="#63b8ff" stroke="#63b8ff" points="1291.43,-18.98 1280.83,-19 1289.13,-25.59 1291.43,-18.98"/>
</a>
</g>
</g>
<!-- Node32&#45;&gt;Node14 -->
<g id="edge70_Node000032_Node000014" class="edge">
<title>Node32&#45;&gt;Node14</title>
<g id="a_edge70_Node000032_Node000014"><a xlink:title=" ">
<path fill="none" stroke="#63b8ff" d="M1176.16,-179.84C1097.38,-172.07 935.02,-155.74 797.79,-140 785.58,-138.6 772.63,-137.04 760.03,-135.49"/>
<polygon fill="#63b8ff" stroke="#63b8ff" points="760.38,-132.01 750.03,-134.26 759.52,-138.96 760.38,-132.01"/>
</a>
</g>
</g>
<!-- Node32&#45;&gt;Node18 -->
<g id="edge64_Node000032_Node000018" class="edge">
<title>Node32&#45;&gt;Node18</title>
<g id="a_edge64_Node000032_Node000018"><a xlink:title=" ">
<path fill="none" stroke="#63b8ff" d="M1235.12,-175.86C1252.46,-161.58 1281.95,-132.39 1265.79,-110 1259.96,-101.93 1207.55,-86.17 1170.04,-75.74"/>
<polygon fill="#63b8ff" stroke="#63b8ff" points="1170.96,-72.37 1160.38,-73.08 1169.1,-79.11 1170.96,-72.37"/>
</a>
</g>
</g>
<!-- Node32&#45;&gt;Node25 -->
<g id="edge63_Node000032_Node000025" class="edge">
<title>Node32&#45;&gt;Node25</title>
<g id="a_edge63_Node000032_Node000025"><a xlink:title=" ">
<path fill="none" stroke="#63b8ff" d="M1223.79,-175.87C1223.79,-167.75 1223.79,-155.31 1223.79,-144.89"/>
<polygon fill="#63b8ff" stroke="#63b8ff" points="1227.29,-144.67 1223.79,-134.67 1220.29,-144.67 1227.29,-144.67"/>
</a>
</g>
</g>
<!-- Node33 -->
<g id="Node000033" class="node">
<title>Node33</title>
<g id="a_Node000033"><a xlink:title=" ">
<polygon fill="#e0e0e0" stroke="#999999" points="1400.79,-134.5 1350.79,-134.5 1350.79,-115.5 1400.79,-115.5 1400.79,-134.5"/>
<text text-anchor="middle" x="1375.79" y="-122.5" font-family="Helvetica,sans-Serif" font-size="10.00">chrono</text>
</a>
</g>
</g>
<!-- Node32&#45;&gt;Node33 -->
<g id="edge66_Node000032_Node000033" class="edge">
<title>Node32&#45;&gt;Node33</title>
<g id="a_edge66_Node000032_Node000033"><a xlink:title=" ">
<path fill="none" stroke="#63b8ff" d="M1245.89,-175.99C1271.78,-166.03 1314.87,-149.45 1344.26,-138.13"/>
<polygon fill="#63b8ff" stroke="#63b8ff" points="1345.59,-141.38 1353.66,-134.52 1343.07,-134.84 1345.59,-141.38"/>
</a>
</g>
</g>
<!-- Node34&#45;&gt;Node4 -->
<g id="edge73_Node000034_Node000004" class="edge">
<title>Node34&#45;&gt;Node4</title>
<g id="a_edge73_Node000034_Node000004"><a xlink:title=" ">
<path fill="none" stroke="#63b8ff" d="M1571.09,-115.74C1479.3,-103.25 1308.2,-79.98 1235.68,-70.11"/>
<polygon fill="#63b8ff" stroke="#63b8ff" points="1236.1,-66.63 1225.72,-68.75 1235.15,-73.57 1236.1,-66.63"/>
</a>
</g>
</g>
<!-- Node34&#45;&gt;Node9 -->
<g id="edge72_Node000034_Node000009" class="edge">
<title>Node34&#45;&gt;Node9</title>
<g id="a_edge72_Node000034_Node000009"><a xlink:title=" ">
<path fill="none" stroke="#63b8ff" d="M1625.46,-115.49C1613.75,-100.47 1587.14,-69.46 1556.79,-55 1518.15,-36.58 1408.24,-23.73 1332.01,-16.73"/>
<polygon fill="#63b8ff" stroke="#63b8ff" points="1332.23,-13.23 1321.96,-15.82 1331.6,-20.2 1332.23,-13.23"/>
</a>
</g>
</g>
<!-- Node35&#45;&gt;Node9 -->
<g id="edge75_Node000035_Node000009" class="edge">
<title>Node35&#45;&gt;Node9</title>
<g id="a_edge75_Node000035_Node000009"><a xlink:title=" ">
<path fill="none" stroke="#63b8ff" d="M1803.91,-291.47C1789.99,-273.33 1759.79,-229.06 1759.79,-186.5 1759.79,-186.5 1759.79,-186.5 1759.79,-124 1759.79,-91.38 1760.6,-74.94 1734.79,-55 1703.69,-30.98 1460.31,-18.28 1332.15,-13.2"/>
<polygon fill="#63b8ff" stroke="#63b8ff" points="1332.13,-9.69 1322,-12.8 1331.85,-16.69 1332.13,-9.69"/>
</a>
</g>
</g>
<!-- Node36 -->
<g id="Node000036" class="node">
<title>Node36</title>
<g id="a_Node000036"><a xlink:title=" ">
<polygon fill="#e0e0e0" stroke="#999999" points="1831.79,-250 1789.79,-250 1789.79,-231 1831.79,-231 1831.79,-250"/>
<text text-anchor="middle" x="1810.79" y="-238" font-family="Helvetica,sans-Serif" font-size="10.00">array</text>
</a>
</g>
</g>
<!-- Node35&#45;&gt;Node36 -->
<g id="edge76_Node000035_Node000036" class="edge">
<title>Node35&#45;&gt;Node36</title>
<g id="a_edge76_Node000035_Node000036"><a xlink:title=" ">
<path fill="none" stroke="#63b8ff" d="M1810.79,-291.37C1810.79,-283.25 1810.79,-270.81 1810.79,-260.39"/>
<polygon fill="#63b8ff" stroke="#63b8ff" points="1814.29,-260.17 1810.79,-250.17 1807.29,-260.17 1814.29,-260.17"/>
</a>
</g>
</g>
</g>
</svg>
