<?xml version="1.0" encoding="UTF-8" standalone="no"?>
<!DOCTYPE svg PUBLIC "-//W3C//DTD SVG 1.1//EN"
 "http://www.w3.org/Graphics/SVG/1.1/DTD/svg11.dtd">
<!-- Generated by graphviz version 2.43.0 (0)
 -->
<!-- Title: client/include/webcface/component_canvas2d.h Pages: 1 -->
<svg width="1442pt" height="390pt"
 viewBox="0.00 0.00 1441.53 390.00" xmlns="http://www.w3.org/2000/svg" xmlns:xlink="http://www.w3.org/1999/xlink">
<g id="graph0" class="graph" transform="scale(1 1) rotate(0) translate(4 386)">
<title>client/include/webcface/component_canvas2d.h</title>
<!-- Node1 -->
<g id="Node000001" class="node">
<title>Node1</title>
<g id="a_Node000001"><a xlink:title=" ">
<polygon fill="#999999" stroke="#666666" points="879.03,-382 744.03,-382 744.03,-352 879.03,-352 879.03,-382"/>
<text text-anchor="start" x="752.03" y="-370" font-family="Helvetica,sans-Serif" font-size="10.00">client/include/webcface</text>
<text text-anchor="middle" x="811.53" y="-359" font-family="Helvetica,sans-Serif" font-size="10.00">/component_canvas2d.h</text>
</a>
</g>
</g>
<!-- Node2 -->
<g id="Node000002" class="node">
<title>Node2</title>
<g id="a_Node000002"><a xlink:title=" ">
<polygon fill="#e0e0e0" stroke="#999999" points="446.03,-250 353.03,-250 353.03,-231 446.03,-231 446.03,-250"/>
<text text-anchor="middle" x="399.53" y="-238" font-family="Helvetica,sans-Serif" font-size="10.00">unordered_map</text>
</a>
</g>
</g>
<!-- Node1&#45;&gt;Node2 -->
<g id="edge1_Node000001_Node000002" class="edge">
<title>Node1&#45;&gt;Node2</title>
<g id="a_edge1_Node000001_Node000002"><a xlink:title=" ">
<path fill="none" stroke="#63b8ff" d="M765.07,-351.96C682.79,-327.1 513.04,-275.8 437.37,-252.94"/>
<polygon fill="#63b8ff" stroke="#63b8ff" points="438.35,-249.57 427.76,-250.03 436.32,-256.28 438.35,-249.57"/>
</a>
</g>
</g>
<!-- Node3 -->
<g id="Node000003" class="node">
<title>Node3</title>
<g id="a_Node000003"><a xlink:title=" ">
<polygon fill="#e0e0e0" stroke="#999999" points="821.53,-134.5 765.53,-134.5 765.53,-115.5 821.53,-115.5 821.53,-134.5"/>
<text text-anchor="middle" x="793.53" y="-122.5" font-family="Helvetica,sans-Serif" font-size="10.00">optional</text>
</a>
</g>
</g>
<!-- Node1&#45;&gt;Node3 -->
<g id="edge2_Node000001_Node000003" class="edge">
<title>Node1&#45;&gt;Node3</title>
<g id="a_edge2_Node000001_Node000003"><a xlink:title=" ">
<path fill="none" stroke="#63b8ff" d="M810.45,-351.71C807.36,-310.4 798.39,-190.89 794.92,-144.61"/>
<polygon fill="#63b8ff" stroke="#63b8ff" points="798.4,-144.23 794.16,-134.52 791.42,-144.75 798.4,-144.23"/>
</a>
</g>
</g>
<!-- Node4 -->
<g id="Node000004" class="node">
<title>Node4</title>
<g id="a_Node000004"><a xlink:href="webcface-config_8h.html" target="_top" xlink:title=" ">
<polygon fill="white" stroke="#666666" points="1004.03,-19 899.03,-19 899.03,0 1004.03,0 1004.03,-19"/>
<text text-anchor="middle" x="951.53" y="-7" font-family="Helvetica,sans-Serif" font-size="10.00">webcface&#45;config.h</text>
</a>
</g>
</g>
<!-- Node1&#45;&gt;Node4 -->
<g id="edge3_Node000001_Node000004" class="edge">
<title>Node1&#45;&gt;Node4</title>
<g id="a_edge3_Node000001_Node000004"><a xlink:title=" ">
<path fill="none" stroke="#63b8ff" d="M879.24,-363.89C1020.07,-357.65 1331.53,-333.46 1331.53,-241.5 1331.53,-241.5 1331.53,-241.5 1331.53,-124 1331.53,-90.01 1326.07,-74.92 1298.53,-55 1254.38,-23.07 1101.7,-14.04 1014.28,-11.49"/>
<polygon fill="#63b8ff" stroke="#63b8ff" points="1014.31,-7.99 1004.22,-11.22 1014.12,-14.99 1014.31,-7.99"/>
</a>
</g>
</g>
<!-- Node5 -->
<g id="Node000005" class="node">
<title>Node5</title>
<g id="a_Node000005"><a xlink:href="transform_8h.html" target="_top" xlink:title=" ">
<polygon fill="white" stroke="#666666" points="1433.53,-310.5 1359.53,-310.5 1359.53,-291.5 1433.53,-291.5 1433.53,-310.5"/>
<text text-anchor="middle" x="1396.53" y="-298.5" font-family="Helvetica,sans-Serif" font-size="10.00">transform.h</text>
</a>
</g>
</g>
<!-- Node1&#45;&gt;Node5 -->
<g id="edge4_Node000001_Node000005" class="edge">
<title>Node1&#45;&gt;Node5</title>
<g id="a_edge4_Node000001_Node000005"><a xlink:title=" ">
<path fill="none" stroke="#63b8ff" d="M879.06,-363.46C980.89,-358.77 1179.5,-346.32 1345.53,-316 1349.96,-315.19 1354.58,-314.17 1359.14,-313.06"/>
<polygon fill="#63b8ff" stroke="#63b8ff" points="1360.14,-316.42 1368.94,-310.52 1358.38,-309.64 1360.14,-316.42"/>
</a>
</g>
</g>
<!-- Node7 -->
<g id="Node000007" class="node">
<title>Node7</title>
<g id="a_Node000007"><a xlink:href="field_8h.html" target="_top" xlink:title=" ">
<polygon fill="white" stroke="#666666" points="209.03,-134.5 162.03,-134.5 162.03,-115.5 209.03,-115.5 209.03,-134.5"/>
<text text-anchor="middle" x="185.53" y="-122.5" font-family="Helvetica,sans-Serif" font-size="10.00">field.h</text>
</a>
</g>
</g>
<!-- Node1&#45;&gt;Node7 -->
<g id="edge7_Node000001_Node000007" class="edge">
<title>Node1&#45;&gt;Node7</title>
<g id="a_edge7_Node000001_Node000007"><a xlink:title=" ">
<path fill="none" stroke="#63b8ff" d="M743.72,-359.49C649.47,-348.2 475.67,-319.2 344.53,-250 287.01,-219.65 229.23,-168.05 201.87,-142.02"/>
<polygon fill="#63b8ff" stroke="#63b8ff" points="204.02,-139.23 194.39,-134.82 199.16,-144.27 204.02,-139.23"/>
</a>
</g>
</g>
<!-- Node15 -->
<g id="Node000015" class="node">
<title>Node15</title>
<g id="a_Node000015"><a xlink:href="component__view_8h.html" target="_top" xlink:title=" ">
<polygon fill="white" stroke="#666666" points="783.03,-316 662.03,-316 662.03,-286 783.03,-286 783.03,-316"/>
<text text-anchor="start" x="670.03" y="-304" font-family="Helvetica,sans-Serif" font-size="10.00">webcface/component</text>
<text text-anchor="middle" x="722.53" y="-293" font-family="Helvetica,sans-Serif" font-size="10.00">_view.h</text>
</a>
</g>
</g>
<!-- Node1&#45;&gt;Node15 -->
<g id="edge20_Node000001_Node000015" class="edge">
<title>Node1&#45;&gt;Node15</title>
<g id="a_edge20_Node000001_Node000015"><a xlink:title=" ">
<path fill="none" stroke="#63b8ff" d="M791.77,-351.8C779.68,-343.1 764,-331.82 750.62,-322.2"/>
<polygon fill="#63b8ff" stroke="#63b8ff" points="752.39,-319.16 742.22,-316.16 748.3,-324.84 752.39,-319.16"/>
</a>
</g>
</g>
<!-- Node32 -->
<g id="Node000032" class="node">
<title>Node32</title>
<g id="a_Node000032"><a xlink:href="geometry_8h.html" target="_top" xlink:title=" ">
<polygon fill="white" stroke="#666666" points="1303.03,-134.5 1182.03,-134.5 1182.03,-115.5 1303.03,-115.5 1303.03,-134.5"/>
<text text-anchor="middle" x="1242.53" y="-122.5" font-family="Helvetica,sans-Serif" font-size="10.00">webcface/geometry.h</text>
</a>
</g>
</g>
<!-- Node1&#45;&gt;Node32 -->
<g id="edge63_Node000001_Node000032" class="edge">
<title>Node1&#45;&gt;Node32</title>
<g id="a_edge63_Node000001_Node000032"><a xlink:title=" ">
<path fill="none" stroke="#63b8ff" d="M879.17,-358.26C956.16,-346.46 1082.24,-317.69 1167.53,-250 1203.21,-221.68 1225.93,-171.39 1236.18,-144.38"/>
<polygon fill="#63b8ff" stroke="#63b8ff" points="1239.59,-145.25 1239.71,-134.66 1233.01,-142.86 1239.59,-145.25"/>
</a>
</g>
</g>
<!-- Node5&#45;&gt;Node4 -->
<g id="edge5_Node000005_Node000004" class="edge">
<title>Node5&#45;&gt;Node4</title>
<g id="a_edge5_Node000005_Node000004"><a xlink:title=" ">
<path fill="none" stroke="#63b8ff" d="M1400.84,-291.42C1409.79,-272.81 1429.53,-227.13 1429.53,-186.5 1429.53,-186.5 1429.53,-186.5 1429.53,-124 1429.53,-75.69 1390.02,-73.82 1345.53,-55 1287.34,-30.39 1110.02,-18.19 1014.34,-13.26"/>
<polygon fill="#63b8ff" stroke="#63b8ff" points="1014.37,-9.76 1004.21,-12.75 1014.02,-16.75 1014.37,-9.76"/>
</a>
</g>
</g>
<!-- Node6 -->
<g id="Node000006" class="node">
<title>Node6</title>
<g id="a_Node000006"><a xlink:title=" ">
<polygon fill="#e0e0e0" stroke="#999999" points="1401.53,-250 1359.53,-250 1359.53,-231 1401.53,-231 1401.53,-250"/>
<text text-anchor="middle" x="1380.53" y="-238" font-family="Helvetica,sans-Serif" font-size="10.00">array</text>
</a>
</g>
</g>
<!-- Node5&#45;&gt;Node6 -->
<g id="edge6_Node000005_Node000006" class="edge">
<title>Node5&#45;&gt;Node6</title>
<g id="a_edge6_Node000005_Node000006"><a xlink:title=" ">
<path fill="none" stroke="#63b8ff" d="M1394.17,-291.37C1391.92,-283.16 1388.47,-270.54 1385.6,-260.05"/>
<polygon fill="#63b8ff" stroke="#63b8ff" points="1388.91,-258.89 1382.9,-250.17 1382.16,-260.74 1388.91,-258.89"/>
</a>
</g>
</g>
<!-- Node7&#45;&gt;Node4 -->
<g id="edge12_Node000007_Node000004" class="edge">
<title>Node7&#45;&gt;Node4</title>
<g id="a_edge12_Node000007_Node000004"><a xlink:title=" ">
<path fill="none" stroke="#63b8ff" d="M203.77,-115.43C208.5,-113.44 213.64,-111.47 218.53,-110 302.07,-84.81 327.96,-99.12 411.53,-74 432.32,-67.75 435.46,-60.26 456.53,-55 608.58,-17.05 794.05,-10.55 888.97,-9.98"/>
<polygon fill="#63b8ff" stroke="#63b8ff" points="889,-13.48 898.98,-9.94 888.97,-6.48 889,-13.48"/>
</a>
</g>
</g>
<!-- Node8 -->
<g id="Node000008" class="node">
<title>Node8</title>
<g id="a_Node000008"><a xlink:title=" ">
<polygon fill="#e0e0e0" stroke="#999999" points="487.53,-19 429.53,-19 429.53,0 487.53,0 487.53,-19"/>
<text text-anchor="middle" x="458.53" y="-7" font-family="Helvetica,sans-Serif" font-size="10.00">memory</text>
</a>
</g>
</g>
<!-- Node7&#45;&gt;Node8 -->
<g id="edge8_Node000007_Node000008" class="edge">
<title>Node7&#45;&gt;Node8</title>
<g id="a_edge8_Node000007_Node000008"><a xlink:title=" ">
<path fill="none" stroke="#63b8ff" d="M204.14,-115.39C208.78,-113.44 213.78,-111.51 218.53,-110 290.05,-87.24 316.23,-107.23 383.53,-74 407.28,-62.27 429.8,-41.42 443.86,-26.81"/>
<polygon fill="#63b8ff" stroke="#63b8ff" points="446.47,-29.14 450.74,-19.45 441.36,-24.36 446.47,-29.14"/>
</a>
</g>
</g>
<!-- Node9 -->
<g id="Node000009" class="node">
<title>Node9</title>
<g id="a_Node000009"><a xlink:title=" ">
<polygon fill="#e0e0e0" stroke="#999999" points="44.53,-19 0.53,-19 0.53,0 44.53,0 44.53,-19"/>
<text text-anchor="middle" x="22.53" y="-7" font-family="Helvetica,sans-Serif" font-size="10.00">string</text>
</a>
</g>
</g>
<!-- Node7&#45;&gt;Node9 -->
<g id="edge9_Node000007_Node000009" class="edge">
<title>Node7&#45;&gt;Node9</title>
<g id="a_edge9_Node000007_Node000009"><a xlink:title=" ">
<path fill="none" stroke="#63b8ff" d="M162.01,-120.66C119.24,-114.06 31.45,-97.87 13.53,-74 3.83,-61.09 8.01,-42.42 13.45,-28.67"/>
<polygon fill="#63b8ff" stroke="#63b8ff" points="16.76,-29.84 17.66,-19.29 10.37,-26.98 16.76,-29.84"/>
</a>
</g>
</g>
<!-- Node10 -->
<g id="Node000010" class="node">
<title>Node10</title>
<g id="a_Node000010"><a xlink:title=" ">
<polygon fill="#e0e0e0" stroke="#999999" points="198.03,-19 125.03,-19 125.03,0 198.03,0 198.03,-19"/>
<text text-anchor="middle" x="161.53" y="-7" font-family="Helvetica,sans-Serif" font-size="10.00">string_view</text>
</a>
</g>
</g>
<!-- Node7&#45;&gt;Node10 -->
<g id="edge10_Node000007_Node000010" class="edge">
<title>Node7&#45;&gt;Node10</title>
<g id="a_edge10_Node000007_Node000010"><a xlink:title=" ">
<path fill="none" stroke="#63b8ff" d="M161.78,-124.75C124.94,-124.47 54.9,-117.8 22.53,-74 -4.11,-37.97 64.88,-21.85 114.92,-15.04"/>
<polygon fill="#63b8ff" stroke="#63b8ff" points="115.48,-18.5 124.96,-13.76 114.6,-11.55 115.48,-18.5"/>
</a>
</g>
</g>
<!-- Node11 -->
<g id="Node000011" class="node">
<title>Node11</title>
<g id="a_Node000011"><a xlink:title=" ">
<polygon fill="#e0e0e0" stroke="#999999" points="864.03,-74 817.03,-74 817.03,-55 864.03,-55 864.03,-74"/>
<text text-anchor="middle" x="840.53" y="-62" font-family="Helvetica,sans-Serif" font-size="10.00">vector</text>
</a>
</g>
</g>
<!-- Node7&#45;&gt;Node11 -->
<g id="edge11_Node000007_Node000011" class="edge">
<title>Node7&#45;&gt;Node11</title>
<g id="a_edge11_Node000007_Node000011"><a xlink:title=" ">
<path fill="none" stroke="#63b8ff" d="M202.62,-115.46C207.63,-113.32 213.2,-111.27 218.53,-110 457.29,-53.28 525.16,-96.59 769.53,-74 781.64,-72.88 794.88,-71.37 806.62,-69.94"/>
<polygon fill="#63b8ff" stroke="#63b8ff" points="807.4,-73.37 816.89,-68.65 806.54,-66.42 807.4,-73.37"/>
</a>
</g>
</g>
<!-- Node12 -->
<g id="Node000012" class="node">
<title>Node12</title>
<g id="a_Node000012"><a xlink:href="encoding_8h.html" target="_top" xlink:title=" ">
<polygon fill="white" stroke="#666666" points="374.03,-74 207.03,-74 207.03,-55 374.03,-55 374.03,-74"/>
<text text-anchor="middle" x="290.53" y="-62" font-family="Helvetica,sans-Serif" font-size="10.00">webcface/encoding/encoding.h</text>
</a>
</g>
</g>
<!-- Node7&#45;&gt;Node12 -->
<g id="edge13_Node000007_Node000012" class="edge">
<title>Node7&#45;&gt;Node12</title>
<g id="a_edge13_Node000007_Node000012"><a xlink:title=" ">
<path fill="none" stroke="#63b8ff" d="M201.02,-115.37C218.16,-105.82 246,-90.31 266.08,-79.12"/>
<polygon fill="#63b8ff" stroke="#63b8ff" points="267.94,-82.09 274.97,-74.17 264.53,-75.98 267.94,-82.09"/>
</a>
</g>
</g>
<!-- Node12&#45;&gt;Node4 -->
<g id="edge19_Node000012_Node000004" class="edge">
<title>Node12&#45;&gt;Node4</title>
<g id="a_edge19_Node000012_Node000004"><a xlink:title=" ">
<path fill="none" stroke="#63b8ff" d="M374.24,-56.79C508.59,-46.02 769.34,-25.11 888.89,-15.52"/>
<polygon fill="#63b8ff" stroke="#63b8ff" points="889.29,-19 898.98,-14.71 888.73,-12.02 889.29,-19"/>
</a>
</g>
</g>
<!-- Node12&#45;&gt;Node8 -->
<g id="edge18_Node000012_Node000008" class="edge">
<title>Node12&#45;&gt;Node8</title>
<g id="a_edge18_Node000012_Node000008"><a xlink:title=" ">
<path fill="none" stroke="#63b8ff" d="M317.52,-54.98C345.72,-46.09 390.17,-32.07 421.61,-22.15"/>
<polygon fill="#63b8ff" stroke="#63b8ff" points="422.84,-25.43 431.32,-19.08 420.73,-18.75 422.84,-25.43"/>
</a>
</g>
</g>
<!-- Node12&#45;&gt;Node9 -->
<g id="edge16_Node000012_Node000009" class="edge">
<title>Node12&#45;&gt;Node9</title>
<g id="a_edge16_Node000012_Node000009"><a xlink:title=" ">
<path fill="none" stroke="#63b8ff" d="M247.47,-54.98C193.57,-44.33 102.5,-26.32 54.44,-16.81"/>
<polygon fill="#63b8ff" stroke="#63b8ff" points="55.07,-13.37 44.58,-14.86 53.72,-20.24 55.07,-13.37"/>
</a>
</g>
</g>
<!-- Node12&#45;&gt;Node10 -->
<g id="edge17_Node000012_Node000010" class="edge">
<title>Node12&#45;&gt;Node10</title>
<g id="a_edge17_Node000012_Node000010"><a xlink:title=" ">
<path fill="none" stroke="#63b8ff" d="M269.8,-54.98C248.77,-46.34 215.98,-32.87 191.99,-23.02"/>
<polygon fill="#63b8ff" stroke="#63b8ff" points="193.21,-19.73 182.63,-19.17 190.55,-26.21 193.21,-19.73"/>
</a>
</g>
</g>
<!-- Node13 -->
<g id="Node000013" class="node">
<title>Node13</title>
<g id="a_Node000013"><a xlink:title=" ">
<polygon fill="#e0e0e0" stroke="#999999" points="335.53,-19 297.53,-19 297.53,0 335.53,0 335.53,-19"/>
<text text-anchor="middle" x="316.53" y="-7" font-family="Helvetica,sans-Serif" font-size="10.00">map</text>
</a>
</g>
</g>
<!-- Node12&#45;&gt;Node13 -->
<g id="edge14_Node000012_Node000013" class="edge">
<title>Node12&#45;&gt;Node13</title>
<g id="a_edge14_Node000012_Node000013"><a xlink:title=" ">
<path fill="none" stroke="#63b8ff" d="M294.82,-54.75C298.34,-47.57 303.44,-37.18 307.81,-28.27"/>
<polygon fill="#63b8ff" stroke="#63b8ff" points="311.05,-29.61 312.31,-19.09 304.77,-26.53 311.05,-29.61"/>
</a>
</g>
</g>
<!-- Node14 -->
<g id="Node000014" class="node">
<title>Node14</title>
<g id="a_Node000014"><a xlink:title=" ">
<polygon fill="#e0e0e0" stroke="#999999" points="279.53,-19 247.53,-19 247.53,0 279.53,0 279.53,-19"/>
<text text-anchor="middle" x="263.53" y="-7" font-family="Helvetica,sans-Serif" font-size="10.00">set</text>
</a>
</g>
</g>
<!-- Node12&#45;&gt;Node14 -->
<g id="edge15_Node000012_Node000014" class="edge">
<title>Node12&#45;&gt;Node14</title>
<g id="a_edge15_Node000012_Node000014"><a xlink:title=" ">
<path fill="none" stroke="#63b8ff" d="M286.07,-54.75C282.41,-47.57 277.12,-37.18 272.58,-28.27"/>
<polygon fill="#63b8ff" stroke="#63b8ff" points="275.56,-26.41 267.9,-19.09 269.32,-29.59 275.56,-26.41"/>
</a>
</g>
</g>
<!-- Node15&#45;&gt;Node2 -->
<g id="edge22_Node000015_Node000002" class="edge">
<title>Node15&#45;&gt;Node2</title>
<g id="a_edge22_Node000015_Node000002"><a xlink:title=" ">
<path fill="none" stroke="#63b8ff" d="M661.77,-289C602.81,-278.32 514.03,-262.24 456.42,-251.8"/>
<polygon fill="#63b8ff" stroke="#63b8ff" points="456.85,-248.33 446.39,-249.99 455.61,-255.21 456.85,-248.33"/>
</a>
</g>
</g>
<!-- Node15&#45;&gt;Node3 -->
<g id="edge21_Node000015_Node000003" class="edge">
<title>Node15&#45;&gt;Node3</title>
<g id="a_edge21_Node000015_Node000003"><a xlink:title=" ">
<path fill="none" stroke="#63b8ff" d="M728.34,-285.76C741.18,-254.28 771.98,-178.81 786.15,-144.07"/>
<polygon fill="#63b8ff" stroke="#63b8ff" points="789.45,-145.27 789.98,-134.68 782.96,-142.62 789.45,-145.27"/>
</a>
</g>
</g>
<!-- Node15&#45;&gt;Node4 -->
<g id="edge25_Node000015_Node000004" class="edge">
<title>Node15&#45;&gt;Node4</title>
<g id="a_edge25_Node000015_Node000004"><a xlink:title=" ">
<path fill="none" stroke="#63b8ff" d="M783.36,-296.65C902.17,-288.44 1153.53,-262.14 1153.53,-186.5 1153.53,-186.5 1153.53,-186.5 1153.53,-124 1153.53,-59.17 1073.46,-30.98 1014.14,-18.99"/>
<polygon fill="#63b8ff" stroke="#63b8ff" points="1014.55,-15.51 1004.07,-17.07 1013.24,-22.39 1014.55,-15.51"/>
</a>
</g>
</g>
<!-- Node15&#45;&gt;Node7 -->
<g id="edge24_Node000015_Node000007" class="edge">
<title>Node15&#45;&gt;Node7</title>
<g id="a_edge24_Node000015_Node000007"><a xlink:title=" ">
<path fill="none" stroke="#63b8ff" d="M668.74,-285.91C632.84,-276.3 584.68,-263 542.53,-250 397.21,-205.19 360.62,-194.18 218.53,-140 217.15,-139.47 215.74,-138.92 214.32,-138.36"/>
<polygon fill="#63b8ff" stroke="#63b8ff" points="215.55,-135.09 204.97,-134.53 212.9,-141.56 215.55,-135.09"/>
</a>
</g>
</g>
<!-- Node15&#45;&gt;Node11 -->
<g id="edge23_Node000015_Node000011" class="edge">
<title>Node15&#45;&gt;Node11</title>
<g id="a_edge23_Node000015_Node000011"><a xlink:title=" ">
<path fill="none" stroke="#63b8ff" d="M735.63,-285.92C759.26,-259.6 808.57,-200.13 830.53,-140 837.16,-121.83 839.46,-99.73 840.23,-84.34"/>
<polygon fill="#63b8ff" stroke="#63b8ff" points="843.74,-84.16 840.56,-74.05 836.74,-83.93 843.74,-84.16"/>
</a>
</g>
</g>
<!-- Node16 -->
<g id="Node000016" class="node">
<title>Node16</title>
<g id="a_Node000016"><a xlink:href="encoding_2include_2webcface_2encoding_2val__adaptor_8h.html" target="_top" xlink:title=" ">
<polygon fill="white" stroke="#666666" points="709.53,-140 581.53,-140 581.53,-110 709.53,-110 709.53,-140"/>
<text text-anchor="start" x="589.53" y="-128" font-family="Helvetica,sans-Serif" font-size="10.00">webcface/encoding/val</text>
<text text-anchor="middle" x="645.53" y="-117" font-family="Helvetica,sans-Serif" font-size="10.00">_adaptor.h</text>
</a>
</g>
</g>
<!-- Node15&#45;&gt;Node16 -->
<g id="edge26_Node000015_Node000016" class="edge">
<title>Node15&#45;&gt;Node16</title>
<g id="a_edge26_Node000015_Node000016"><a xlink:title=" ">
<path fill="none" stroke="#63b8ff" d="M716.22,-285.76C703.03,-255.94 672.36,-186.63 656.09,-149.88"/>
<polygon fill="#63b8ff" stroke="#63b8ff" points="659.16,-148.16 651.91,-140.44 652.76,-151 659.16,-148.16"/>
</a>
</g>
</g>
<!-- Node21 -->
<g id="Node000021" class="node">
<title>Node21</title>
<g id="a_Node000021"><a xlink:href="func_8h.html" target="_top" xlink:title=" ">
<polygon fill="white" stroke="#666666" points="647.53,-250 551.53,-250 551.53,-231 647.53,-231 647.53,-250"/>
<text text-anchor="middle" x="599.53" y="-238" font-family="Helvetica,sans-Serif" font-size="10.00">webcface/func.h</text>
</a>
</g>
</g>
<!-- Node15&#45;&gt;Node21 -->
<g id="edge35_Node000015_Node000021" class="edge">
<title>Node15&#45;&gt;Node21</title>
<g id="a_edge35_Node000015_Node000021"><a xlink:title=" ">
<path fill="none" stroke="#63b8ff" d="M693.06,-285.99C672.91,-276.4 646.38,-263.79 626.73,-254.44"/>
<polygon fill="#63b8ff" stroke="#63b8ff" points="628.22,-251.27 617.69,-250.14 625.22,-257.6 628.22,-251.27"/>
</a>
</g>
</g>
<!-- Node29 -->
<g id="Node000029" class="node">
<title>Node29</title>
<g id="a_Node000029"><a xlink:href="text_8h.html" target="_top" xlink:title=" ">
<polygon fill="white" stroke="#666666" points="973.03,-195 878.03,-195 878.03,-176 973.03,-176 973.03,-195"/>
<text text-anchor="middle" x="925.53" y="-183" font-family="Helvetica,sans-Serif" font-size="10.00">webcface/text.h</text>
</a>
</g>
</g>
<!-- Node15&#45;&gt;Node29 -->
<g id="edge54_Node000015_Node000029" class="edge">
<title>Node15&#45;&gt;Node29</title>
<g id="a_edge54_Node000015_Node000029"><a xlink:title=" ">
<path fill="none" stroke="#63b8ff" d="M780.48,-285.96C807.09,-277.92 838.26,-266.16 863.53,-250 883.3,-237.35 901.5,-217.26 913,-203.07"/>
<polygon fill="#63b8ff" stroke="#63b8ff" points="915.82,-205.15 919.24,-195.12 910.31,-200.82 915.82,-205.15"/>
</a>
</g>
</g>
<!-- Node16&#45;&gt;Node4 -->
<g id="edge34_Node000016_Node000004" class="edge">
<title>Node16&#45;&gt;Node4</title>
<g id="a_edge34_Node000016_Node000004"><a xlink:title=" ">
<path fill="none" stroke="#63b8ff" d="M682.43,-109.9C707.24,-100.23 740.57,-86.87 769.53,-74 787.14,-66.17 790.6,-62.11 808.53,-55 841.82,-41.8 880.69,-29.92 909.5,-21.76"/>
<polygon fill="#63b8ff" stroke="#63b8ff" points="910.55,-25.1 919.24,-19.03 908.67,-18.36 910.55,-25.1"/>
</a>
</g>
</g>
<!-- Node16&#45;&gt;Node9 -->
<g id="edge27_Node000016_Node000009" class="edge">
<title>Node16&#45;&gt;Node9</title>
<g id="a_edge27_Node000016_Node000009"><a xlink:title=" ">
<path fill="none" stroke="#63b8ff" d="M581.53,-118.1C466.72,-107.32 234.38,-84.6 198.53,-74 180.42,-68.65 178.01,-62.14 160.53,-55 125.03,-40.5 82.93,-27.51 54.64,-19.35"/>
<polygon fill="#63b8ff" stroke="#63b8ff" points="55.46,-15.95 44.88,-16.58 53.54,-22.68 55.46,-15.95"/>
</a>
</g>
</g>
<!-- Node16&#45;&gt;Node11 -->
<g id="edge28_Node000016_Node000011" class="edge">
<title>Node16&#45;&gt;Node11</title>
<g id="a_edge28_Node000016_Node000011"><a xlink:title=" ">
<path fill="none" stroke="#63b8ff" d="M692.23,-109.99C727.72,-99.34 775.65,-84.96 807.3,-75.47"/>
<polygon fill="#63b8ff" stroke="#63b8ff" points="808.39,-78.79 816.96,-72.57 806.38,-72.09 808.39,-78.79"/>
</a>
</g>
</g>
<!-- Node16&#45;&gt;Node12 -->
<g id="edge33_Node000016_Node000012" class="edge">
<title>Node16&#45;&gt;Node12</title>
<g id="a_edge33_Node000016_Node000012"><a xlink:title=" ">
<path fill="none" stroke="#63b8ff" d="M581.24,-113.41C516.18,-102.69 416.31,-86.23 352.21,-75.66"/>
<polygon fill="#63b8ff" stroke="#63b8ff" points="352.67,-72.19 342.24,-74.02 351.53,-79.1 352.67,-72.19"/>
</a>
</g>
</g>
<!-- Node17 -->
<g id="Node000017" class="node">
<title>Node17</title>
<g id="a_Node000017"><a xlink:title=" ">
<polygon fill="#e0e0e0" stroke="#999999" points="760.03,-74 719.03,-74 719.03,-55 760.03,-55 760.03,-74"/>
<text text-anchor="middle" x="739.53" y="-62" font-family="Helvetica,sans-Serif" font-size="10.00">tuple</text>
</a>
</g>
</g>
<!-- Node16&#45;&gt;Node17 -->
<g id="edge29_Node000016_Node000017" class="edge">
<title>Node16&#45;&gt;Node17</title>
<g id="a_edge29_Node000016_Node000017"><a xlink:title=" ">
<path fill="none" stroke="#63b8ff" d="M668.28,-109.84C683.13,-100.6 702.42,-88.59 717.19,-79.4"/>
<polygon fill="#63b8ff" stroke="#63b8ff" points="719.08,-82.35 725.72,-74.09 715.38,-76.41 719.08,-82.35"/>
</a>
</g>
</g>
<!-- Node18 -->
<g id="Node000018" class="node">
<title>Node18</title>
<g id="a_Node000018"><a xlink:title=" ">
<polygon fill="#e0e0e0" stroke="#999999" points="631.53,-74 581.53,-74 581.53,-55 631.53,-55 631.53,-74"/>
<text text-anchor="middle" x="606.53" y="-62" font-family="Helvetica,sans-Serif" font-size="10.00">cstdint</text>
</a>
</g>
</g>
<!-- Node16&#45;&gt;Node18 -->
<g id="edge30_Node000016_Node000018" class="edge">
<title>Node16&#45;&gt;Node18</title>
<g id="a_edge30_Node000016_Node000018"><a xlink:title=" ">
<path fill="none" stroke="#63b8ff" d="M636.09,-109.84C630.66,-101.69 623.79,-91.4 618.05,-82.78"/>
<polygon fill="#63b8ff" stroke="#63b8ff" points="620.83,-80.65 612.37,-74.27 615.01,-84.53 620.83,-80.65"/>
</a>
</g>
</g>
<!-- Node19 -->
<g id="Node000019" class="node">
<title>Node19</title>
<g id="a_Node000019"><a xlink:title=" ">
<polygon fill="#e0e0e0" stroke="#999999" points="939.03,-74 882.03,-74 882.03,-55 939.03,-55 939.03,-74"/>
<text text-anchor="middle" x="910.53" y="-62" font-family="Helvetica,sans-Serif" font-size="10.00">ostream</text>
</a>
</g>
</g>
<!-- Node16&#45;&gt;Node19 -->
<g id="edge31_Node000016_Node000019" class="edge">
<title>Node16&#45;&gt;Node19</title>
<g id="a_edge31_Node000016_Node000019"><a xlink:title=" ">
<path fill="none" stroke="#63b8ff" d="M709.94,-110.05C753.21,-100.64 811.8,-87.82 871.81,-74.37"/>
<polygon fill="#63b8ff" stroke="#63b8ff" points="872.86,-77.72 881.85,-72.12 871.33,-70.89 872.86,-77.72"/>
</a>
</g>
</g>
<!-- Node20 -->
<g id="Node000020" class="node">
<title>Node20</title>
<g id="a_Node000020"><a xlink:title=" ">
<polygon fill="#e0e0e0" stroke="#999999" points="701.03,-74 650.03,-74 650.03,-55 701.03,-55 701.03,-74"/>
<text text-anchor="middle" x="675.53" y="-62" font-family="Helvetica,sans-Serif" font-size="10.00">variant</text>
</a>
</g>
</g>
<!-- Node16&#45;&gt;Node20 -->
<g id="edge32_Node000016_Node000020" class="edge">
<title>Node16&#45;&gt;Node20</title>
<g id="a_edge32_Node000016_Node000020"><a xlink:title=" ">
<path fill="none" stroke="#63b8ff" d="M652.79,-109.84C656.88,-101.87 662.02,-91.84 666.38,-83.33"/>
<polygon fill="#63b8ff" stroke="#63b8ff" points="669.58,-84.76 671.03,-74.27 663.35,-81.57 669.58,-84.76"/>
</a>
</g>
</g>
<!-- Node21&#45;&gt;Node16 -->
<g id="edge36_Node000021_Node000016" class="edge">
<title>Node21&#45;&gt;Node16</title>
<g id="a_edge36_Node000021_Node000016"><a xlink:title=" ">
<path fill="none" stroke="#63b8ff" d="M602.98,-230.97C609.92,-213.86 625.74,-174.81 636.02,-149.47"/>
<polygon fill="#63b8ff" stroke="#63b8ff" points="639.27,-150.76 639.78,-140.18 632.78,-148.13 639.27,-150.76"/>
</a>
</g>
</g>
<!-- Node22 -->
<g id="Node000022" class="node">
<title>Node22</title>
<g id="a_Node000022"><a xlink:href="func__result_8h.html" target="_top" xlink:title=" ">
<polygon fill="white" stroke="#666666" points="582.53,-195 502.53,-195 502.53,-176 582.53,-176 582.53,-195"/>
<text text-anchor="middle" x="542.53" y="-183" font-family="Helvetica,sans-Serif" font-size="10.00">func_result.h</text>
</a>
</g>
</g>
<!-- Node21&#45;&gt;Node22 -->
<g id="edge37_Node000021_Node000022" class="edge">
<title>Node21&#45;&gt;Node22</title>
<g id="a_edge37_Node000021_Node000022"><a xlink:title=" ">
<path fill="none" stroke="#63b8ff" d="M590.37,-230.98C582.02,-223.23 569.49,-211.58 559.35,-202.14"/>
<polygon fill="#63b8ff" stroke="#63b8ff" points="561.56,-199.42 551.85,-195.17 556.79,-204.54 561.56,-199.42"/>
</a>
</g>
</g>
<!-- Node28 -->
<g id="Node000028" class="node">
<title>Node28</title>
<g id="a_Node000028"><a xlink:href="arg_8h.html" target="_top" xlink:title=" ">
<polygon fill="white" stroke="#666666" points="745.03,-195 704.03,-195 704.03,-176 745.03,-176 745.03,-195"/>
<text text-anchor="middle" x="724.53" y="-183" font-family="Helvetica,sans-Serif" font-size="10.00">arg.h</text>
</a>
</g>
</g>
<!-- Node21&#45;&gt;Node28 -->
<g id="edge50_Node000021_Node000028" class="edge">
<title>Node21&#45;&gt;Node28</title>
<g id="a_edge50_Node000021_Node000028"><a xlink:title=" ">
<path fill="none" stroke="#63b8ff" d="M619.61,-230.98C639.9,-222.38 671.48,-208.99 694.7,-199.15"/>
<polygon fill="#63b8ff" stroke="#63b8ff" points="696.24,-202.3 704.08,-195.17 693.5,-195.85 696.24,-202.3"/>
</a>
</g>
</g>
<!-- Node22&#45;&gt;Node3 -->
<g id="edge39_Node000022_Node000003" class="edge">
<title>Node22&#45;&gt;Node3</title>
<g id="a_edge39_Node000022_Node000003"><a xlink:title=" ">
<path fill="none" stroke="#63b8ff" d="M579.02,-175.99C626.02,-165.04 707.32,-146.09 755.19,-134.94"/>
<polygon fill="#63b8ff" stroke="#63b8ff" points="756.21,-138.29 765.16,-132.61 754.63,-131.47 756.21,-138.29"/>
</a>
</g>
</g>
<!-- Node22&#45;&gt;Node4 -->
<g id="edge38_Node000022_Node000004" class="edge">
<title>Node22&#45;&gt;Node4</title>
<g id="a_edge38_Node000022_Node000004"><a xlink:title=" ">
<path fill="none" stroke="#63b8ff" d="M541.52,-175.93C539.31,-152.49 536.76,-87.01 572.53,-55 595.58,-34.36 786.85,-20.15 888.53,-13.97"/>
<polygon fill="#63b8ff" stroke="#63b8ff" points="888.9,-17.45 898.67,-13.36 888.48,-10.47 888.9,-17.45"/>
</a>
</g>
</g>
<!-- Node22&#45;&gt;Node7 -->
<g id="edge44_Node000022_Node000007" class="edge">
<title>Node22&#45;&gt;Node7</title>
<g id="a_edge44_Node000022_Node000007"><a xlink:title=" ">
<path fill="none" stroke="#63b8ff" d="M502.44,-178.08C497.75,-177.36 493.03,-176.66 488.53,-176 368.72,-158.59 335.3,-171.93 218.53,-140 216.64,-139.48 214.71,-138.88 212.79,-138.22"/>
<polygon fill="#63b8ff" stroke="#63b8ff" points="213.96,-134.92 203.37,-134.6 211.45,-141.46 213.96,-134.92"/>
</a>
</g>
</g>
<!-- Node22&#45;&gt;Node8 -->
<g id="edge42_Node000022_Node000008" class="edge">
<title>Node22&#45;&gt;Node8</title>
<g id="a_edge42_Node000022_Node000008"><a xlink:title=" ">
<path fill="none" stroke="#63b8ff" d="M538.25,-175.63C525.04,-148.29 484.79,-64.9 467.06,-28.18"/>
<polygon fill="#63b8ff" stroke="#63b8ff" points="470.2,-26.63 462.7,-19.14 463.89,-29.67 470.2,-26.63"/>
</a>
</g>
</g>
<!-- Node22&#45;&gt;Node9 -->
<g id="edge40_Node000022_Node000009" class="edge">
<title>Node22&#45;&gt;Node9</title>
<g id="a_edge40_Node000022_Node000009"><a xlink:title=" ">
<path fill="none" stroke="#63b8ff" d="M502.3,-183.88C430.85,-181.92 277.66,-173.75 153.53,-140 83.63,-121 44.03,-134.71 4.53,-74 -4.53,-60.09 2.43,-41.59 10.17,-28.15"/>
<polygon fill="#63b8ff" stroke="#63b8ff" points="13.33,-29.71 15.73,-19.4 7.42,-25.96 13.33,-29.71"/>
</a>
</g>
</g>
<!-- Node22&#45;&gt;Node16 -->
<g id="edge45_Node000022_Node000016" class="edge">
<title>Node22&#45;&gt;Node16</title>
<g id="a_edge45_Node000022_Node000016"><a xlink:title=" ">
<path fill="none" stroke="#63b8ff" d="M557.72,-175.87C571.83,-167.86 593.33,-155.65 611.52,-145.31"/>
<polygon fill="#63b8ff" stroke="#63b8ff" points="613.71,-148.1 620.67,-140.11 610.25,-142.01 613.71,-148.1"/>
</a>
</g>
</g>
<!-- Node23 -->
<g id="Node000023" class="node">
<title>Node23</title>
<g id="a_Node000023"><a xlink:title=" ">
<polygon fill="#e0e0e0" stroke="#999999" points="487.53,-134.5 441.53,-134.5 441.53,-115.5 487.53,-115.5 487.53,-134.5"/>
<text text-anchor="middle" x="464.53" y="-122.5" font-family="Helvetica,sans-Serif" font-size="10.00">future</text>
</a>
</g>
</g>
<!-- Node22&#45;&gt;Node23 -->
<g id="edge41_Node000022_Node000023" class="edge">
<title>Node22&#45;&gt;Node23</title>
<g id="a_edge41_Node000022_Node000023"><a xlink:title=" ">
<path fill="none" stroke="#63b8ff" d="M531.02,-175.87C518.69,-166.62 498.91,-151.78 484.12,-140.69"/>
<polygon fill="#63b8ff" stroke="#63b8ff" points="486.18,-137.87 476.08,-134.67 481.98,-143.47 486.18,-137.87"/>
</a>
</g>
</g>
<!-- Node24 -->
<g id="Node000024" class="node">
<title>Node24</title>
<g id="a_Node000024"><a xlink:title=" ">
<polygon fill="#e0e0e0" stroke="#999999" points="423.03,-134.5 358.03,-134.5 358.03,-115.5 423.03,-115.5 423.03,-134.5"/>
<text text-anchor="middle" x="390.53" y="-122.5" font-family="Helvetica,sans-Serif" font-size="10.00">stdexcept</text>
</a>
</g>
</g>
<!-- Node22&#45;&gt;Node24 -->
<g id="edge43_Node000022_Node000024" class="edge">
<title>Node22&#45;&gt;Node24</title>
<g id="a_edge43_Node000022_Node000024"><a xlink:title=" ">
<path fill="none" stroke="#63b8ff" d="M520.42,-175.99C494.53,-166.03 451.45,-149.45 422.05,-138.13"/>
<polygon fill="#63b8ff" stroke="#63b8ff" points="423.24,-134.84 412.65,-134.52 420.73,-141.38 423.24,-134.84"/>
</a>
</g>
</g>
<!-- Node25 -->
<g id="Node000025" class="node">
<title>Node25</title>
<g id="a_Node000025"><a xlink:href="def__types_8h.html" target="_top" xlink:title=" ">
<polygon fill="white" stroke="#666666" points="340.03,-140 227.03,-140 227.03,-110 340.03,-110 340.03,-140"/>
<text text-anchor="start" x="235.03" y="-128" font-family="Helvetica,sans-Serif" font-size="10.00">webcface/c_wcf/def</text>
<text text-anchor="middle" x="283.53" y="-117" font-family="Helvetica,sans-Serif" font-size="10.00">_types.h</text>
</a>
</g>
</g>
<!-- Node22&#45;&gt;Node25 -->
<g id="edge46_Node000022_Node000025" class="edge">
<title>Node22&#45;&gt;Node25</title>
<g id="a_edge46_Node000022_Node000025"><a xlink:title=" ">
<path fill="none" stroke="#63b8ff" d="M504.87,-175.99C464.44,-166.86 399.41,-152.17 350.28,-141.08"/>
<polygon fill="#63b8ff" stroke="#63b8ff" points="350.89,-137.63 340.36,-138.84 349.34,-144.45 350.89,-137.63"/>
</a>
</g>
</g>
<!-- Node25&#45;&gt;Node4 -->
<g id="edge47_Node000025_Node000004" class="edge">
<title>Node25&#45;&gt;Node4</title>
<g id="a_edge47_Node000025_Node000004"><a xlink:title=" ">
<path fill="none" stroke="#63b8ff" d="M327.44,-109.92C378.05,-94.22 463.97,-69.17 539.53,-55 662.09,-32.01 807.57,-19.75 888.73,-14.23"/>
<polygon fill="#63b8ff" stroke="#63b8ff" points="889.04,-17.72 898.79,-13.56 888.58,-10.73 889.04,-17.72"/>
</a>
</g>
</g>
<!-- Node26 -->
<g id="Node000026" class="node">
<title>Node26</title>
<g id="a_Node000026"><a xlink:title=" ">
<polygon fill="#e0e0e0" stroke="#999999" points="151.53,-74 97.53,-74 97.53,-55 151.53,-55 151.53,-74"/>
<text text-anchor="middle" x="124.53" y="-62" font-family="Helvetica,sans-Serif" font-size="10.00">wchar.h</text>
</a>
</g>
</g>
<!-- Node25&#45;&gt;Node26 -->
<g id="edge48_Node000025_Node000026" class="edge">
<title>Node25&#45;&gt;Node26</title>
<g id="a_edge48_Node000025_Node000026"><a xlink:title=" ">
<path fill="none" stroke="#63b8ff" d="M245.44,-109.99C218.68,-100.14 183.22,-87.1 157.63,-77.68"/>
<polygon fill="#63b8ff" stroke="#63b8ff" points="158.6,-74.31 148.01,-74.14 156.18,-80.88 158.6,-74.31"/>
</a>
</g>
</g>
<!-- Node27 -->
<g id="Node000027" class="node">
<title>Node27</title>
<g id="a_Node000027"><a xlink:title=" ">
<polygon fill="#e0e0e0" stroke="#999999" points="79.03,-74 32.03,-74 32.03,-55 79.03,-55 79.03,-74"/>
<text text-anchor="middle" x="55.53" y="-62" font-family="Helvetica,sans-Serif" font-size="10.00">float.h</text>
</a>
</g>
</g>
<!-- Node25&#45;&gt;Node27 -->
<g id="edge49_Node000025_Node000027" class="edge">
<title>Node25&#45;&gt;Node27</title>
<g id="a_edge49_Node000025_Node000027"><a xlink:title=" ">
<path fill="none" stroke="#63b8ff" d="M228.47,-109.9C191.7,-100.48 141.98,-87.73 89.21,-74.17"/>
<polygon fill="#63b8ff" stroke="#63b8ff" points="89.87,-70.73 79.32,-71.63 88.13,-77.51 89.87,-70.73"/>
</a>
</g>
</g>
<!-- Node28&#45;&gt;Node3 -->
<g id="edge52_Node000028_Node000003" class="edge">
<title>Node28&#45;&gt;Node3</title>
<g id="a_edge52_Node000028_Node000003"><a xlink:title=" ">
<path fill="none" stroke="#63b8ff" d="M734.71,-175.87C745.41,-166.8 762.46,-152.34 775.46,-141.32"/>
<polygon fill="#63b8ff" stroke="#63b8ff" points="777.94,-143.8 783.3,-134.67 773.41,-138.46 777.94,-143.8"/>
</a>
</g>
</g>
<!-- Node28&#45;&gt;Node11 -->
<g id="edge51_Node000028_Node000011" class="edge">
<title>Node28&#45;&gt;Node11</title>
<g id="a_edge51_Node000028_Node000011"><a xlink:title=" ">
<path fill="none" stroke="#63b8ff" d="M726.3,-175.64C729.74,-160.52 738.59,-129.46 756.53,-110 770.27,-95.09 790.17,-84.24 807.16,-76.99"/>
<polygon fill="#63b8ff" stroke="#63b8ff" points="808.78,-80.11 816.75,-73.13 806.17,-73.61 808.78,-80.11"/>
</a>
</g>
</g>
<!-- Node28&#45;&gt;Node16 -->
<g id="edge53_Node000028_Node000016" class="edge">
<title>Node28&#45;&gt;Node16</title>
<g id="a_edge53_Node000028_Node000016"><a xlink:title=" ">
<path fill="none" stroke="#63b8ff" d="M712.87,-175.87C702.35,-168.08 686.47,-156.32 672.77,-146.17"/>
<polygon fill="#63b8ff" stroke="#63b8ff" points="674.71,-143.25 664.59,-140.11 670.54,-148.88 674.71,-143.25"/>
</a>
</g>
</g>
<!-- Node29&#45;&gt;Node3 -->
<g id="edge57_Node000029_Node000003" class="edge">
<title>Node29&#45;&gt;Node3</title>
<g id="a_edge57_Node000029_Node000003"><a xlink:title=" ">
<path fill="none" stroke="#63b8ff" d="M906.33,-175.99C884.14,-166.16 847.4,-149.88 821.91,-138.58"/>
<polygon fill="#63b8ff" stroke="#63b8ff" points="823.3,-135.37 812.74,-134.52 820.47,-141.77 823.3,-135.37"/>
</a>
</g>
</g>
<!-- Node29&#45;&gt;Node4 -->
<g id="edge61_Node000029_Node000004" class="edge">
<title>Node29&#45;&gt;Node4</title>
<g id="a_edge61_Node000029_Node000004"><a xlink:title=" ">
<path fill="none" stroke="#63b8ff" d="M973.3,-178.61C1018.47,-171.94 1081.52,-159.42 1096.53,-140 1135.1,-90.1 1040.1,-44.05 985.98,-22.81"/>
<polygon fill="#63b8ff" stroke="#63b8ff" points="986.98,-19.45 976.39,-19.14 984.47,-25.99 986.98,-19.45"/>
</a>
</g>
</g>
<!-- Node29&#45;&gt;Node7 -->
<g id="edge60_Node000029_Node000007" class="edge">
<title>Node29&#45;&gt;Node7</title>
<g id="a_edge60_Node000029_Node000007"><a xlink:title=" ">
<path fill="none" stroke="#63b8ff" d="M877.8,-181.94C724.18,-173.64 250.58,-147.57 218.53,-140 216.36,-139.49 214.16,-138.85 211.97,-138.12"/>
<polygon fill="#63b8ff" stroke="#63b8ff" points="213.21,-134.85 202.62,-134.55 210.71,-141.39 213.21,-134.85"/>
</a>
</g>
</g>
<!-- Node29&#45;&gt;Node8 -->
<g id="edge59_Node000029_Node000008" class="edge">
<title>Node29&#45;&gt;Node8</title>
<g id="a_edge59_Node000029_Node000008"><a xlink:title=" ">
<path fill="none" stroke="#63b8ff" d="M927.85,-175.92C935.16,-148.45 956.76,-64.02 948.53,-55 918.32,-21.93 608.72,-13.18 497.79,-11.09"/>
<polygon fill="#63b8ff" stroke="#63b8ff" points="497.76,-7.59 487.7,-10.91 497.63,-14.59 497.76,-7.59"/>
</a>
</g>
</g>
<!-- Node29&#45;&gt;Node16 -->
<g id="edge62_Node000029_Node000016" class="edge">
<title>Node29&#45;&gt;Node16</title>
<g id="a_edge62_Node000029_Node000016"><a xlink:title=" ">
<path fill="none" stroke="#63b8ff" d="M884.81,-175.99C841.64,-166.97 772.51,-152.53 719.63,-141.48"/>
<polygon fill="#63b8ff" stroke="#63b8ff" points="720.12,-138.01 709.62,-139.39 718.69,-144.86 720.12,-138.01"/>
</a>
</g>
</g>
<!-- Node29&#45;&gt;Node19 -->
<g id="edge56_Node000029_Node000019" class="edge">
<title>Node29&#45;&gt;Node19</title>
<g id="a_edge56_Node000029_Node000019"><a xlink:title=" ">
<path fill="none" stroke="#63b8ff" d="M921.96,-175.82C918.53,-166.98 913.58,-152.79 911.53,-140 908.52,-121.27 908.63,-99.56 909.27,-84.42"/>
<polygon fill="#63b8ff" stroke="#63b8ff" points="912.78,-84.46 909.82,-74.29 905.79,-84.08 912.78,-84.46"/>
</a>
</g>
</g>
<!-- Node30 -->
<g id="Node000030" class="node">
<title>Node30</title>
<g id="a_Node000030"><a xlink:title=" ">
<polygon fill="#e0e0e0" stroke="#999999" points="1019.03,-134.5 954.03,-134.5 954.03,-115.5 1019.03,-115.5 1019.03,-134.5"/>
<text text-anchor="middle" x="986.53" y="-122.5" font-family="Helvetica,sans-Serif" font-size="10.00">functional</text>
</a>
</g>
</g>
<!-- Node29&#45;&gt;Node30 -->
<g id="edge55_Node000029_Node000030" class="edge">
<title>Node29&#45;&gt;Node30</title>
<g id="a_edge55_Node000029_Node000030"><a xlink:title=" ">
<path fill="none" stroke="#63b8ff" d="M934.53,-175.87C943.9,-166.88 958.78,-152.61 970.22,-141.64"/>
<polygon fill="#63b8ff" stroke="#63b8ff" points="972.69,-144.12 977.49,-134.67 967.85,-139.06 972.69,-144.12"/>
</a>
</g>
</g>
<!-- Node31 -->
<g id="Node000031" class="node">
<title>Node31</title>
<g id="a_Node000031"><a xlink:title=" ">
<polygon fill="#e0e0e0" stroke="#999999" points="1087.53,-134.5 1037.53,-134.5 1037.53,-115.5 1087.53,-115.5 1087.53,-134.5"/>
<text text-anchor="middle" x="1062.53" y="-122.5" font-family="Helvetica,sans-Serif" font-size="10.00">chrono</text>
</a>
</g>
</g>
<!-- Node29&#45;&gt;Node31 -->
<g id="edge58_Node000029_Node000031" class="edge">
<title>Node29&#45;&gt;Node31</title>
<g id="a_edge58_Node000029_Node000031"><a xlink:title=" ">
<path fill="none" stroke="#63b8ff" d="M945.45,-175.99C968.48,-166.16 1006.61,-149.88 1033.07,-138.58"/>
<polygon fill="#63b8ff" stroke="#63b8ff" points="1034.76,-141.66 1042.58,-134.52 1032.01,-135.22 1034.76,-141.66"/>
</a>
</g>
</g>
<!-- Node32&#45;&gt;Node4 -->
<g id="edge64_Node000032_Node000004" class="edge">
<title>Node32&#45;&gt;Node4</title>
<g id="a_edge64_Node000032_Node000004"><a xlink:title=" ">
<path fill="none" stroke="#63b8ff" d="M1235.73,-115.19C1223.7,-100.27 1197.13,-70.17 1167.53,-55 1119.63,-30.46 1059.22,-19.45 1014.47,-14.52"/>
<polygon fill="#63b8ff" stroke="#63b8ff" points="1014.62,-11.01 1004.31,-13.47 1013.9,-17.98 1014.62,-11.01"/>
</a>
</g>
</g>
<!-- Node32&#45;&gt;Node11 -->
<g id="edge65_Node000032_Node000011" class="edge">
<title>Node32&#45;&gt;Node11</title>
<g id="a_edge65_Node000032_Node000011"><a xlink:title=" ">
<path fill="none" stroke="#63b8ff" d="M1181.77,-117.98C1110.42,-110.42 988.38,-95.94 874.2,-73.91"/>
<polygon fill="#63b8ff" stroke="#63b8ff" points="874.73,-70.45 864.24,-71.96 873.39,-77.32 874.73,-70.45"/>
</a>
</g>
</g>
<!-- Node33 -->
<g id="Node000033" class="node">
<title>Node33</title>
<g id="a_Node000033"><a xlink:title=" ">
<polygon fill="#e0e0e0" stroke="#999999" points="1289.03,-74 1220.03,-74 1220.03,-55 1289.03,-55 1289.03,-74"/>
<text text-anchor="middle" x="1254.53" y="-62" font-family="Helvetica,sans-Serif" font-size="10.00">type_traits</text>
</a>
</g>
</g>
<!-- Node32&#45;&gt;Node33 -->
<g id="edge66_Node000032_Node000033" class="edge">
<title>Node32&#45;&gt;Node33</title>
<g id="a_edge66_Node000032_Node000033"><a xlink:title=" ">
<path fill="none" stroke="#63b8ff" d="M1244.3,-115.37C1245.98,-107.16 1248.57,-94.54 1250.72,-84.05"/>
<polygon fill="#63b8ff" stroke="#63b8ff" points="1254.17,-84.67 1252.75,-74.17 1247.31,-83.26 1254.17,-84.67"/>
</a>
</g>
</g>
</g>
</svg>
