<?xml version="1.0" encoding="UTF-8" standalone="no"?>
<!DOCTYPE svg PUBLIC "-//W3C//DTD SVG 1.1//EN"
 "http://www.w3.org/Graphics/SVG/1.1/DTD/svg11.dtd">
<!-- Generated by graphviz version 2.43.0 (0)
 -->
<!-- Title: /home/runner/work/webcface/webcface/client/include/webcface/component_canvas2d.h Pages: 1 -->
<svg width="1770pt" height="401pt"
 viewBox="0.00 0.00 1770.05 401.00" xmlns="http://www.w3.org/2000/svg" xmlns:xlink="http://www.w3.org/1999/xlink">
<g id="graph0" class="graph" transform="scale(1 1) rotate(0) translate(4 397)">
<title>/home/runner/work/webcface/webcface/client/include/webcface/component_canvas2d.h</title>
<!-- Node1 -->
<g id="Node000001" class="node">
<title>Node1</title>
<g id="a_Node000001"><a xlink:title=" ">
<polygon fill="#999999" stroke="#666666" points="424.73,-393 239.73,-393 239.73,-352 424.73,-352 424.73,-393"/>
<text text-anchor="start" x="247.73" y="-381" font-family="Helvetica,sans-Serif" font-size="10.00">/home/runner/work/webcface</text>
<text text-anchor="start" x="247.73" y="-370" font-family="Helvetica,sans-Serif" font-size="10.00">/webcface/client/include</text>
<text text-anchor="middle" x="332.23" y="-359" font-family="Helvetica,sans-Serif" font-size="10.00">/webcface/component_canvas2d.h</text>
</a>
</g>
</g>
<!-- Node2 -->
<g id="Node000002" class="node">
<title>Node2</title>
<g id="a_Node000002"><a xlink:title=" ">
<polygon fill="#e0e0e0" stroke="#999999" points="624.73,-74 577.73,-74 577.73,-55 624.73,-55 624.73,-74"/>
<text text-anchor="middle" x="601.23" y="-62" font-family="Helvetica,sans-Serif" font-size="10.00">vector</text>
</a>
</g>
</g>
<!-- Node1&#45;&gt;Node2 -->
<g id="edge1_Node000001_Node000002" class="edge">
<title>Node1&#45;&gt;Node2</title>
<g id="a_edge1_Node000001_Node000002"><a xlink:title=" ">
<path fill="none" stroke="#63b8ff" d="M362.71,-351.92C376.04,-342.28 391.14,-329.77 402.23,-316 466.2,-236.59 430.07,-181.03 503.23,-110 521.2,-92.55 547.23,-81.17 567.94,-74.29"/>
<polygon fill="#63b8ff" stroke="#63b8ff" points="569.12,-77.59 577.62,-71.27 567.04,-70.91 569.12,-77.59"/>
</a>
</g>
</g>
<!-- Node3 -->
<g id="Node000003" class="node">
<title>Node3</title>
<g id="a_Node000003"><a xlink:title=" ">
<polygon fill="#e0e0e0" stroke="#999999" points="283.23,-134.5 227.23,-134.5 227.23,-115.5 283.23,-115.5 283.23,-134.5"/>
<text text-anchor="middle" x="255.23" y="-122.5" font-family="Helvetica,sans-Serif" font-size="10.00">optional</text>
</a>
</g>
</g>
<!-- Node1&#45;&gt;Node3 -->
<g id="edge2_Node000001_Node000003" class="edge">
<title>Node1&#45;&gt;Node3</title>
<g id="a_edge2_Node000001_Node000003"><a xlink:title=" ">
<path fill="none" stroke="#63b8ff" d="M295.94,-351.77C282.93,-342.7 269.65,-330.67 262.23,-316 233.44,-259.13 244.1,-179.95 251.07,-144.47"/>
<polygon fill="#63b8ff" stroke="#63b8ff" points="254.52,-145.08 253.16,-134.58 247.67,-143.64 254.52,-145.08"/>
</a>
</g>
</g>
<!-- Node4 -->
<g id="Node000004" class="node">
<title>Node4</title>
<g id="a_Node000004"><a xlink:href="def_8h.html" target="_top" xlink:title=" ">
<polygon fill="white" stroke="#666666" points="1089.23,-19 953.23,-19 953.23,0 1089.23,0 1089.23,-19"/>
<text text-anchor="middle" x="1021.23" y="-7" font-family="Helvetica,sans-Serif" font-size="10.00">webcface/common/def.h</text>
</a>
</g>
</g>
<!-- Node1&#45;&gt;Node4 -->
<g id="edge3_Node000001_Node000004" class="edge">
<title>Node1&#45;&gt;Node4</title>
<g id="a_edge3_Node000001_Node000004"><a xlink:title=" ">
<path fill="none" stroke="#63b8ff" d="M424.97,-367.92C741.28,-355.1 1758.23,-308.68 1758.23,-241.5 1758.23,-241.5 1758.23,-241.5 1758.23,-124 1758.23,-110.2 1791.02,-101.02 1659.23,-55 1558.08,-19.68 1246.84,-12.32 1099.76,-10.84"/>
<polygon fill="#63b8ff" stroke="#63b8ff" points="1099.5,-7.34 1089.46,-10.74 1099.43,-14.34 1099.5,-7.34"/>
</a>
</g>
</g>
<!-- Node5 -->
<g id="Node000005" class="node">
<title>Node5</title>
<g id="a_Node000005"><a xlink:href="transform_8h.html" target="_top" xlink:title=" ">
<polygon fill="white" stroke="#666666" points="198.23,-310.5 124.23,-310.5 124.23,-291.5 198.23,-291.5 198.23,-310.5"/>
<text text-anchor="middle" x="161.23" y="-298.5" font-family="Helvetica,sans-Serif" font-size="10.00">transform.h</text>
</a>
</g>
</g>
<!-- Node1&#45;&gt;Node5 -->
<g id="edge4_Node000001_Node000005" class="edge">
<title>Node1&#45;&gt;Node5</title>
<g id="a_edge4_Node000001_Node000005"><a xlink:title=" ">
<path fill="none" stroke="#63b8ff" d="M284.14,-351.96C254.49,-339.9 217.36,-324.81 191.71,-314.39"/>
<polygon fill="#63b8ff" stroke="#63b8ff" points="192.73,-311.03 182.15,-310.5 190.1,-317.51 192.73,-311.03"/>
</a>
</g>
</g>
<!-- Node7 -->
<g id="Node000007" class="node">
<title>Node7</title>
<g id="a_Node000007"><a xlink:href="field_8h.html" target="_top" xlink:title=" ">
<polygon fill="white" stroke="#666666" points="94.73,-134.5 47.73,-134.5 47.73,-115.5 94.73,-115.5 94.73,-134.5"/>
<text text-anchor="middle" x="71.23" y="-122.5" font-family="Helvetica,sans-Serif" font-size="10.00">field.h</text>
</a>
</g>
</g>
<!-- Node1&#45;&gt;Node7 -->
<g id="edge7_Node000001_Node000007" class="edge">
<title>Node1&#45;&gt;Node7</title>
<g id="a_edge7_Node000001_Node000007"><a xlink:title=" ">
<path fill="none" stroke="#63b8ff" d="M239.57,-367.55C160.24,-358.45 51.82,-330.9 6.23,-250 -15.52,-211.4 26.65,-164.91 52.75,-141.33"/>
<polygon fill="#63b8ff" stroke="#63b8ff" points="55.32,-143.73 60.55,-134.51 50.72,-138.45 55.32,-143.73"/>
</a>
</g>
</g>
<!-- Node15 -->
<g id="Node000015" class="node">
<title>Node15</title>
<g id="a_Node000015"><a xlink:href="component__view_8h.html" target="_top" xlink:title=" ">
<polygon fill="white" stroke="#666666" points="392.73,-316 271.73,-316 271.73,-286 392.73,-286 392.73,-316"/>
<text text-anchor="start" x="279.73" y="-304" font-family="Helvetica,sans-Serif" font-size="10.00">webcface/component</text>
<text text-anchor="middle" x="332.23" y="-293" font-family="Helvetica,sans-Serif" font-size="10.00">_view.h</text>
</a>
</g>
</g>
<!-- Node1&#45;&gt;Node15 -->
<g id="edge21_Node000001_Node000015" class="edge">
<title>Node1&#45;&gt;Node15</title>
<g id="a_edge21_Node000001_Node000015"><a xlink:title=" ">
<path fill="none" stroke="#63b8ff" d="M332.23,-351.77C332.23,-343.85 332.23,-334.63 332.23,-326.3"/>
<polygon fill="#63b8ff" stroke="#63b8ff" points="335.73,-326.04 332.23,-316.04 328.73,-326.04 335.73,-326.04"/>
</a>
</g>
</g>
<!-- Node36 -->
<g id="Node000036" class="node">
<title>Node36</title>
<g id="a_Node000036"><a xlink:href="geometry_8h.html" target="_top" xlink:title=" ">
<polygon fill="white" stroke="#666666" points="1729.73,-134.5 1608.73,-134.5 1608.73,-115.5 1729.73,-115.5 1729.73,-134.5"/>
<text text-anchor="middle" x="1669.23" y="-122.5" font-family="Helvetica,sans-Serif" font-size="10.00">webcface/geometry.h</text>
</a>
</g>
</g>
<!-- Node1&#45;&gt;Node36 -->
<g id="edge78_Node000001_Node000036" class="edge">
<title>Node1&#45;&gt;Node36</title>
<g id="a_edge78_Node000001_Node000036"><a xlink:title=" ">
<path fill="none" stroke="#63b8ff" d="M424.86,-361.85C582.81,-344.62 913.97,-305.14 1190.23,-250 1356.24,-216.87 1550.52,-161.26 1631.16,-137.42"/>
<polygon fill="#63b8ff" stroke="#63b8ff" points="1632.28,-140.74 1640.87,-134.54 1630.29,-134.03 1632.28,-140.74"/>
</a>
</g>
</g>
<!-- Node5&#45;&gt;Node4 -->
<g id="edge5_Node000005_Node000004" class="edge">
<title>Node5&#45;&gt;Node4</title>
<g id="a_edge5_Node000005_Node000004"><a xlink:title=" ">
<path fill="none" stroke="#63b8ff" d="M159.9,-291.12C155.9,-260.55 147.29,-158.92 201.23,-110 255.22,-61.04 456.93,-93.26 527.23,-74 546.99,-68.59 549.44,-60.3 569.23,-55 697.03,-20.8 851.47,-12.31 942.73,-10.53"/>
<polygon fill="#63b8ff" stroke="#63b8ff" points="943.06,-14.02 952.99,-10.35 942.93,-7.02 943.06,-14.02"/>
</a>
</g>
</g>
<!-- Node6 -->
<g id="Node000006" class="node">
<title>Node6</title>
<g id="a_Node000006"><a xlink:title=" ">
<polygon fill="#e0e0e0" stroke="#999999" points="57.23,-250 15.23,-250 15.23,-231 57.23,-231 57.23,-250"/>
<text text-anchor="middle" x="36.23" y="-238" font-family="Helvetica,sans-Serif" font-size="10.00">array</text>
</a>
</g>
</g>
<!-- Node5&#45;&gt;Node6 -->
<g id="edge6_Node000005_Node000006" class="edge">
<title>Node5&#45;&gt;Node6</title>
<g id="a_edge6_Node000005_Node000006"><a xlink:title=" ">
<path fill="none" stroke="#63b8ff" d="M143.05,-291.49C122.22,-281.75 87.86,-265.66 63.75,-254.38"/>
<polygon fill="#63b8ff" stroke="#63b8ff" points="64.97,-251.09 54.43,-250.02 62,-257.43 64.97,-251.09"/>
</a>
</g>
</g>
<!-- Node7&#45;&gt;Node2 -->
<g id="edge11_Node000007_Node000002" class="edge">
<title>Node7&#45;&gt;Node2</title>
<g id="a_edge11_Node000007_Node000002"><a xlink:title=" ">
<path fill="none" stroke="#63b8ff" d="M94.79,-120.99C117.84,-118.07 153.93,-113.58 185.23,-110 336.2,-92.74 374.17,-90.44 525.23,-74 539.08,-72.49 554.35,-70.79 567.54,-69.31"/>
<polygon fill="#63b8ff" stroke="#63b8ff" points="568.07,-72.77 577.61,-68.18 567.28,-65.82 568.07,-72.77"/>
</a>
</g>
</g>
<!-- Node7&#45;&gt;Node4 -->
<g id="edge12_Node000007_Node000004" class="edge">
<title>Node7&#45;&gt;Node4</title>
<g id="a_edge12_Node000007_Node000004"><a xlink:title=" ">
<path fill="none" stroke="#63b8ff" d="M94.77,-119.17C109.74,-116.22 129.57,-112.54 147.23,-110 299.82,-88.02 343.24,-113.64 492.23,-74 512.42,-68.63 515,-60.24 535.23,-55 675.83,-18.55 846.07,-10.96 943.19,-9.93"/>
<polygon fill="#63b8ff" stroke="#63b8ff" points="943.26,-13.43 953.23,-9.84 943.2,-6.43 943.26,-13.43"/>
</a>
</g>
</g>
<!-- Node8 -->
<g id="Node000008" class="node">
<title>Node8</title>
<g id="a_Node000008"><a xlink:title=" ">
<polygon fill="#e0e0e0" stroke="#999999" points="91.23,-19 33.23,-19 33.23,0 91.23,0 91.23,-19"/>
<text text-anchor="middle" x="62.23" y="-7" font-family="Helvetica,sans-Serif" font-size="10.00">memory</text>
</a>
</g>
</g>
<!-- Node7&#45;&gt;Node8 -->
<g id="edge8_Node000007_Node000008" class="edge">
<title>Node7&#45;&gt;Node8</title>
<g id="a_edge8_Node000007_Node000008"><a xlink:title=" ">
<path fill="none" stroke="#63b8ff" d="M70.55,-115.47C69.11,-97.23 65.68,-54.07 63.71,-29.14"/>
<polygon fill="#63b8ff" stroke="#63b8ff" points="67.19,-28.82 62.91,-19.13 60.21,-29.38 67.19,-28.82"/>
</a>
</g>
</g>
<!-- Node9 -->
<g id="Node000009" class="node">
<title>Node9</title>
<g id="a_Node000009"><a xlink:title=" ">
<polygon fill="#e0e0e0" stroke="#999999" points="606.23,-19 562.23,-19 562.23,0 606.23,0 606.23,-19"/>
<text text-anchor="middle" x="584.23" y="-7" font-family="Helvetica,sans-Serif" font-size="10.00">string</text>
</a>
</g>
</g>
<!-- Node7&#45;&gt;Node9 -->
<g id="edge9_Node000007_Node000009" class="edge">
<title>Node7&#45;&gt;Node9</title>
<g id="a_edge9_Node000007_Node000009"><a xlink:title=" ">
<path fill="none" stroke="#63b8ff" d="M92.3,-115.4C97.74,-113.4 103.65,-111.45 109.23,-110 209.81,-83.91 241.09,-105.1 340.23,-74 358.63,-68.23 361.01,-61.31 379.23,-55 438.74,-34.38 511.41,-21.31 552.29,-15"/>
<polygon fill="#63b8ff" stroke="#63b8ff" points="552.85,-18.46 562.21,-13.51 551.8,-11.53 552.85,-18.46"/>
</a>
</g>
</g>
<!-- Node10 -->
<g id="Node000010" class="node">
<title>Node10</title>
<g id="a_Node000010"><a xlink:title=" ">
<polygon fill="#e0e0e0" stroke="#999999" points="183.73,-19 110.73,-19 110.73,0 183.73,0 183.73,-19"/>
<text text-anchor="middle" x="147.23" y="-7" font-family="Helvetica,sans-Serif" font-size="10.00">string_view</text>
</a>
</g>
</g>
<!-- Node7&#45;&gt;Node10 -->
<g id="edge10_Node000007_Node000010" class="edge">
<title>Node7&#45;&gt;Node10</title>
<g id="a_edge10_Node000007_Node000010"><a xlink:title=" ">
<path fill="none" stroke="#63b8ff" d="M76.94,-115.47C89.43,-96.82 119.36,-52.11 135.85,-27.49"/>
<polygon fill="#63b8ff" stroke="#63b8ff" points="138.79,-29.39 141.45,-19.13 132.98,-25.49 138.79,-29.39"/>
</a>
</g>
</g>
<!-- Node11 -->
<g id="Node000011" class="node">
<title>Node11</title>
<g id="a_Node000011"><a xlink:href="encoding_8h.html" target="_top" xlink:title=" ">
<polygon fill="white" stroke="#666666" points="331.73,-74 164.73,-74 164.73,-55 331.73,-55 331.73,-74"/>
<text text-anchor="middle" x="248.23" y="-62" font-family="Helvetica,sans-Serif" font-size="10.00">webcface/encoding/encoding.h</text>
</a>
</g>
</g>
<!-- Node7&#45;&gt;Node11 -->
<g id="edge13_Node000007_Node000011" class="edge">
<title>Node7&#45;&gt;Node11</title>
<g id="a_edge13_Node000007_Node000011"><a xlink:title=" ">
<path fill="none" stroke="#63b8ff" d="M94.08,-115.4C99.06,-113.58 104.31,-111.69 109.23,-110 143.37,-98.25 182.57,-85.79 210.62,-77.06"/>
<polygon fill="#63b8ff" stroke="#63b8ff" points="211.91,-80.32 220.42,-74.01 209.83,-73.64 211.91,-80.32"/>
</a>
</g>
</g>
<!-- Node11&#45;&gt;Node4 -->
<g id="edge20_Node000011_Node000004" class="edge">
<title>Node11&#45;&gt;Node4</title>
<g id="a_edge20_Node000011_Node000004"><a xlink:title=" ">
<path fill="none" stroke="#63b8ff" d="M332.06,-57.75C482.54,-47.43 796.4,-25.91 942.84,-15.87"/>
<polygon fill="#63b8ff" stroke="#63b8ff" points="943.35,-19.35 953.09,-15.17 942.88,-12.36 943.35,-19.35"/>
</a>
</g>
</g>
<!-- Node11&#45;&gt;Node8 -->
<g id="edge16_Node000011_Node000008" class="edge">
<title>Node11&#45;&gt;Node8</title>
<g id="a_edge16_Node000011_Node000008"><a xlink:title=" ">
<path fill="none" stroke="#63b8ff" d="M218.34,-54.98C186.57,-45.93 136.17,-31.57 101.27,-21.63"/>
<polygon fill="#63b8ff" stroke="#63b8ff" points="102,-18.19 91.43,-18.82 100.08,-24.93 102,-18.19"/>
</a>
</g>
</g>
<!-- Node11&#45;&gt;Node9 -->
<g id="edge14_Node000011_Node000009" class="edge">
<title>Node11&#45;&gt;Node9</title>
<g id="a_edge14_Node000011_Node000009"><a xlink:title=" ">
<path fill="none" stroke="#63b8ff" d="M302.21,-54.98C372.77,-43.86 494.12,-24.71 551.87,-15.6"/>
<polygon fill="#63b8ff" stroke="#63b8ff" points="552.55,-19.04 561.88,-14.02 551.46,-12.13 552.55,-19.04"/>
</a>
</g>
</g>
<!-- Node11&#45;&gt;Node10 -->
<g id="edge15_Node000011_Node000010" class="edge">
<title>Node11&#45;&gt;Node10</title>
<g id="a_edge15_Node000011_Node000010"><a xlink:title=" ">
<path fill="none" stroke="#63b8ff" d="M232,-54.98C216.05,-46.61 191.45,-33.7 172.85,-23.95"/>
<polygon fill="#63b8ff" stroke="#63b8ff" points="174.23,-20.72 163.75,-19.17 170.98,-26.92 174.23,-20.72"/>
</a>
</g>
</g>
<!-- Node12 -->
<g id="Node000012" class="node">
<title>Node12</title>
<g id="a_Node000012"><a xlink:title=" ">
<polygon fill="#e0e0e0" stroke="#999999" points="355.23,-19 307.23,-19 307.23,0 355.23,0 355.23,-19"/>
<text text-anchor="middle" x="331.23" y="-7" font-family="Helvetica,sans-Serif" font-size="10.00">mutex</text>
</a>
</g>
</g>
<!-- Node11&#45;&gt;Node12 -->
<g id="edge17_Node000011_Node000012" class="edge">
<title>Node11&#45;&gt;Node12</title>
<g id="a_edge17_Node000011_Node000012"><a xlink:title=" ">
<path fill="none" stroke="#63b8ff" d="M261.56,-54.98C274.31,-46.84 293.78,-34.41 308.9,-24.76"/>
<polygon fill="#63b8ff" stroke="#63b8ff" points="311.11,-27.5 317.65,-19.17 307.34,-21.6 311.11,-27.5"/>
</a>
</g>
</g>
<!-- Node13 -->
<g id="Node000013" class="node">
<title>Node13</title>
<g id="a_Node000013"><a xlink:title=" ">
<polygon fill="#e0e0e0" stroke="#999999" points="474.73,-19 381.73,-19 381.73,0 474.73,0 474.73,-19"/>
<text text-anchor="middle" x="428.23" y="-7" font-family="Helvetica,sans-Serif" font-size="10.00">unordered_map</text>
</a>
</g>
</g>
<!-- Node11&#45;&gt;Node13 -->
<g id="edge18_Node000011_Node000013" class="edge">
<title>Node11&#45;&gt;Node13</title>
<g id="a_edge18_Node000011_Node000013"><a xlink:title=" ">
<path fill="none" stroke="#63b8ff" d="M277.15,-54.98C307.5,-46.05 355.4,-31.94 389.11,-22.02"/>
<polygon fill="#63b8ff" stroke="#63b8ff" points="390.48,-25.26 399.08,-19.08 388.5,-18.55 390.48,-25.26"/>
</a>
</g>
</g>
<!-- Node14 -->
<g id="Node000014" class="node">
<title>Node14</title>
<g id="a_Node000014"><a xlink:title=" ">
<polygon fill="#e0e0e0" stroke="#999999" points="289.23,-19 203.23,-19 203.23,0 289.23,0 289.23,-19"/>
<text text-anchor="middle" x="246.23" y="-7" font-family="Helvetica,sans-Serif" font-size="10.00">unordered_set</text>
</a>
</g>
</g>
<!-- Node11&#45;&gt;Node14 -->
<g id="edge19_Node000011_Node000014" class="edge">
<title>Node11&#45;&gt;Node14</title>
<g id="a_edge19_Node000011_Node000014"><a xlink:title=" ">
<path fill="none" stroke="#63b8ff" d="M247.9,-54.75C247.64,-47.8 247.26,-37.85 246.93,-29.13"/>
<polygon fill="#63b8ff" stroke="#63b8ff" points="250.43,-28.95 246.55,-19.09 243.43,-29.21 250.43,-28.95"/>
</a>
</g>
</g>
<!-- Node15&#45;&gt;Node2 -->
<g id="edge23_Node000015_Node000002" class="edge">
<title>Node15&#45;&gt;Node2</title>
<g id="a_edge23_Node000015_Node000002"><a xlink:title=" ">
<path fill="none" stroke="#63b8ff" d="M312.21,-285.91C267.26,-252.65 166.21,-167.73 218.23,-110 269.83,-52.74 487.16,-86.43 563.23,-74 564.69,-73.76 566.18,-73.5 567.68,-73.23"/>
<polygon fill="#63b8ff" stroke="#63b8ff" points="568.48,-76.63 577.59,-71.23 567.1,-69.77 568.48,-76.63"/>
</a>
</g>
</g>
<!-- Node15&#45;&gt;Node3 -->
<g id="edge22_Node000015_Node000003" class="edge">
<title>Node15&#45;&gt;Node3</title>
<g id="a_edge22_Node000015_Node000003"><a xlink:title=" ">
<path fill="none" stroke="#63b8ff" d="M325.93,-285.76C312,-254.28 278.6,-178.81 263.22,-144.07"/>
<polygon fill="#63b8ff" stroke="#63b8ff" points="266.32,-142.41 259.07,-134.68 259.92,-145.25 266.32,-142.41"/>
</a>
</g>
</g>
<!-- Node15&#45;&gt;Node4 -->
<g id="edge25_Node000015_Node000004" class="edge">
<title>Node15&#45;&gt;Node4</title>
<g id="a_edge25_Node000015_Node000004"><a xlink:title=" ">
<path fill="none" stroke="#63b8ff" d="M392.92,-292.94C536.37,-275.02 890.4,-223.21 971.23,-140 1001.63,-108.7 1014.04,-56.9 1018.7,-29.25"/>
<polygon fill="#63b8ff" stroke="#63b8ff" points="1022.17,-29.73 1020.21,-19.32 1015.25,-28.67 1022.17,-29.73"/>
</a>
</g>
</g>
<!-- Node15&#45;&gt;Node7 -->
<g id="edge24_Node000015_Node000007" class="edge">
<title>Node15&#45;&gt;Node7</title>
<g id="a_edge24_Node000015_Node000007"><a xlink:title=" ">
<path fill="none" stroke="#63b8ff" d="M271.5,-293.28C213.8,-285.71 132.52,-271.57 109.23,-250 79.45,-222.42 72.77,-172.21 71.42,-144.9"/>
<polygon fill="#63b8ff" stroke="#63b8ff" points="74.91,-144.63 71.12,-134.74 67.92,-144.84 74.91,-144.63"/>
</a>
</g>
</g>
<!-- Node16 -->
<g id="Node000016" class="node">
<title>Node16</title>
<g id="a_Node000016"><a xlink:href="encoding_2include_2webcface_2encoding_2val__adaptor_8h.html" target="_top" xlink:title=" ">
<polygon fill="white" stroke="#666666" points="1344.23,-140 1216.23,-140 1216.23,-110 1344.23,-110 1344.23,-140"/>
<text text-anchor="start" x="1224.23" y="-128" font-family="Helvetica,sans-Serif" font-size="10.00">webcface/encoding/val</text>
<text text-anchor="middle" x="1280.23" y="-117" font-family="Helvetica,sans-Serif" font-size="10.00">_adaptor.h</text>
</a>
</g>
</g>
<!-- Node15&#45;&gt;Node16 -->
<g id="edge26_Node000015_Node000016" class="edge">
<title>Node15&#45;&gt;Node16</title>
<g id="a_edge26_Node000015_Node000016"><a xlink:title=" ">
<path fill="none" stroke="#63b8ff" d="M393.03,-298.88C572.56,-295.22 1092.11,-281.96 1161.23,-250 1208.64,-228.08 1246.85,-178.16 1266.28,-148.78"/>
<polygon fill="#63b8ff" stroke="#63b8ff" points="1269.45,-150.32 1271.91,-140.02 1263.56,-146.54 1269.45,-150.32"/>
</a>
</g>
</g>
<!-- Node22 -->
<g id="Node000022" class="node">
<title>Node22</title>
<g id="a_Node000022"><a xlink:href="component__id_8h.html" target="_top" xlink:title=" ">
<polygon fill="white" stroke="#666666" points="482.73,-74 387.73,-74 387.73,-55 482.73,-55 482.73,-74"/>
<text text-anchor="middle" x="435.23" y="-62" font-family="Helvetica,sans-Serif" font-size="10.00">component_id.h</text>
</a>
</g>
</g>
<!-- Node15&#45;&gt;Node22 -->
<g id="edge36_Node000015_Node000022" class="edge">
<title>Node15&#45;&gt;Node22</title>
<g id="a_edge36_Node000015_Node000022"><a xlink:title=" ">
<path fill="none" stroke="#63b8ff" d="M271.63,-292.06C242.17,-285.33 208.25,-272.91 185.23,-250 139.53,-204.52 105.26,-158.95 147.23,-110 150.97,-105.64 294.44,-85.06 377.44,-73.47"/>
<polygon fill="#63b8ff" stroke="#63b8ff" points="378.07,-76.92 387.49,-72.07 377.11,-69.99 378.07,-76.92"/>
</a>
</g>
</g>
<!-- Node23 -->
<g id="Node000023" class="node">
<title>Node23</title>
<g id="a_Node000023"><a xlink:href="func_8h.html" target="_top" xlink:title=" ">
<polygon fill="white" stroke="#666666" points="1152.23,-250 1056.23,-250 1056.23,-231 1152.23,-231 1152.23,-250"/>
<text text-anchor="middle" x="1104.23" y="-238" font-family="Helvetica,sans-Serif" font-size="10.00">webcface/func.h</text>
</a>
</g>
</g>
<!-- Node15&#45;&gt;Node23 -->
<g id="edge40_Node000015_Node000023" class="edge">
<title>Node15&#45;&gt;Node23</title>
<g id="a_edge40_Node000015_Node000023"><a xlink:title=" ">
<path fill="none" stroke="#63b8ff" d="M393.13,-297.07C516.05,-290.85 802.55,-274.84 1042.23,-250 1043.51,-249.87 1044.8,-249.73 1046.1,-249.59"/>
<polygon fill="#63b8ff" stroke="#63b8ff" points="1046.68,-253.04 1056.2,-248.4 1045.86,-246.09 1046.68,-253.04"/>
</a>
</g>
</g>
<!-- Node34 -->
<g id="Node000034" class="node">
<title>Node34</title>
<g id="a_Node000034"><a xlink:href="text_8h.html" target="_top" xlink:title=" ">
<polygon fill="white" stroke="#666666" points="398.73,-195 303.73,-195 303.73,-176 398.73,-176 398.73,-195"/>
<text text-anchor="middle" x="351.23" y="-183" font-family="Helvetica,sans-Serif" font-size="10.00">webcface/text.h</text>
</a>
</g>
</g>
<!-- Node15&#45;&gt;Node34 -->
<g id="edge69_Node000015_Node000034" class="edge">
<title>Node15&#45;&gt;Node34</title>
<g id="a_edge69_Node000015_Node000034"><a xlink:title=" ">
<path fill="none" stroke="#63b8ff" d="M334.63,-285.63C338.05,-265.21 344.31,-227.81 348.09,-205.24"/>
<polygon fill="#63b8ff" stroke="#63b8ff" points="351.57,-205.67 349.77,-195.23 344.66,-204.51 351.57,-205.67"/>
</a>
</g>
</g>
<!-- Node16&#45;&gt;Node2 -->
<g id="edge28_Node000016_Node000002" class="edge">
<title>Node16&#45;&gt;Node2</title>
<g id="a_edge28_Node000016_Node000002"><a xlink:title=" ">
<path fill="none" stroke="#63b8ff" d="M1216.2,-111.29C1213.17,-110.82 1210.17,-110.39 1207.23,-110 990.44,-81.35 727.4,-69.92 635.15,-66.61"/>
<polygon fill="#63b8ff" stroke="#63b8ff" points="635.13,-63.11 625.01,-66.25 634.88,-70.1 635.13,-63.11"/>
</a>
</g>
</g>
<!-- Node16&#45;&gt;Node4 -->
<g id="edge35_Node000016_Node000004" class="edge">
<title>Node16&#45;&gt;Node4</title>
<g id="a_edge35_Node000016_Node000004"><a xlink:title=" ">
<path fill="none" stroke="#63b8ff" d="M1286.53,-109.78C1292.25,-94.42 1298.02,-70.13 1285.23,-55 1261.77,-27.26 1168.53,-16.81 1099.48,-12.87"/>
<polygon fill="#63b8ff" stroke="#63b8ff" points="1099.65,-9.37 1089.47,-12.33 1099.27,-16.36 1099.65,-9.37"/>
</a>
</g>
</g>
<!-- Node16&#45;&gt;Node9 -->
<g id="edge27_Node000016_Node000009" class="edge">
<title>Node16&#45;&gt;Node9</title>
<g id="a_edge27_Node000016_Node000009"><a xlink:title=" ">
<path fill="none" stroke="#63b8ff" d="M1224.23,-109.93C1148.28,-90.9 1019.46,-58.89 997.23,-55 856.64,-30.4 686.59,-17.24 616.65,-12.53"/>
<polygon fill="#63b8ff" stroke="#63b8ff" points="616.52,-9.02 606.31,-11.85 616.06,-16 616.52,-9.02"/>
</a>
</g>
</g>
<!-- Node16&#45;&gt;Node11 -->
<g id="edge34_Node000016_Node000011" class="edge">
<title>Node16&#45;&gt;Node11</title>
<g id="a_edge34_Node000016_Node000011"><a xlink:title=" ">
<path fill="none" stroke="#63b8ff" d="M1216.22,-111.18C1213.18,-110.74 1210.18,-110.34 1207.23,-110 841.38,-67.2 747.04,-93.93 379.23,-74 367.32,-73.35 354.8,-72.62 342.42,-71.85"/>
<polygon fill="#63b8ff" stroke="#63b8ff" points="342.27,-68.34 332.07,-71.21 341.84,-75.32 342.27,-68.34"/>
</a>
</g>
</g>
<!-- Node17 -->
<g id="Node000017" class="node">
<title>Node17</title>
<g id="a_Node000017"><a xlink:title=" ">
<polygon fill="#e0e0e0" stroke="#999999" points="1197.73,-74 1156.73,-74 1156.73,-55 1197.73,-55 1197.73,-74"/>
<text text-anchor="middle" x="1177.23" y="-62" font-family="Helvetica,sans-Serif" font-size="10.00">tuple</text>
</a>
</g>
</g>
<!-- Node16&#45;&gt;Node17 -->
<g id="edge29_Node000016_Node000017" class="edge">
<title>Node16&#45;&gt;Node17</title>
<g id="a_edge29_Node000016_Node000017"><a xlink:title=" ">
<path fill="none" stroke="#63b8ff" d="M1255.56,-109.99C1239.14,-100.66 1217.67,-88.47 1201.37,-79.21"/>
<polygon fill="#63b8ff" stroke="#63b8ff" points="1202.86,-76.03 1192.44,-74.14 1199.41,-82.12 1202.86,-76.03"/>
</a>
</g>
</g>
<!-- Node18 -->
<g id="Node000018" class="node">
<title>Node18</title>
<g id="a_Node000018"><a xlink:title=" ">
<polygon fill="#e0e0e0" stroke="#999999" points="1276.23,-74 1216.23,-74 1216.23,-55 1276.23,-55 1276.23,-74"/>
<text text-anchor="middle" x="1246.23" y="-62" font-family="Helvetica,sans-Serif" font-size="10.00">concepts</text>
</a>
</g>
</g>
<!-- Node16&#45;&gt;Node18 -->
<g id="edge30_Node000016_Node000018" class="edge">
<title>Node16&#45;&gt;Node18</title>
<g id="a_edge30_Node000016_Node000018"><a xlink:title=" ">
<path fill="none" stroke="#63b8ff" d="M1272,-109.84C1267.31,-101.78 1261.41,-91.62 1256.43,-83.06"/>
<polygon fill="#63b8ff" stroke="#63b8ff" points="1259.37,-81.15 1251.32,-74.27 1253.32,-84.67 1259.37,-81.15"/>
</a>
</g>
</g>
<!-- Node19 -->
<g id="Node000019" class="node">
<title>Node19</title>
<g id="a_Node000019"><a xlink:title=" ">
<polygon fill="#e0e0e0" stroke="#999999" points="1382.23,-74 1332.23,-74 1332.23,-55 1382.23,-55 1382.23,-74"/>
<text text-anchor="middle" x="1357.23" y="-62" font-family="Helvetica,sans-Serif" font-size="10.00">cstdint</text>
</a>
</g>
</g>
<!-- Node16&#45;&gt;Node19 -->
<g id="edge31_Node000016_Node000019" class="edge">
<title>Node16&#45;&gt;Node19</title>
<g id="a_edge31_Node000016_Node000019"><a xlink:title=" ">
<path fill="none" stroke="#63b8ff" d="M1298.87,-109.84C1310.62,-100.91 1325.76,-89.41 1337.68,-80.35"/>
<polygon fill="#63b8ff" stroke="#63b8ff" points="1339.85,-83.1 1345.69,-74.27 1335.61,-77.53 1339.85,-83.1"/>
</a>
</g>
</g>
<!-- Node20 -->
<g id="Node000020" class="node">
<title>Node20</title>
<g id="a_Node000020"><a xlink:title=" ">
<polygon fill="#e0e0e0" stroke="#999999" points="945.73,-74 888.73,-74 888.73,-55 945.73,-55 945.73,-74"/>
<text text-anchor="middle" x="917.23" y="-62" font-family="Helvetica,sans-Serif" font-size="10.00">ostream</text>
</a>
</g>
</g>
<!-- Node16&#45;&gt;Node20 -->
<g id="edge32_Node000016_Node000020" class="edge">
<title>Node16&#45;&gt;Node20</title>
<g id="a_edge32_Node000016_Node000020"><a xlink:title=" ">
<path fill="none" stroke="#63b8ff" d="M1216.16,-111.57C1213.14,-111.03 1210.15,-110.5 1207.23,-110 1117.63,-94.54 1011.99,-79 956.24,-71.02"/>
<polygon fill="#63b8ff" stroke="#63b8ff" points="956.49,-67.52 946.1,-69.57 955.5,-74.45 956.49,-67.52"/>
</a>
</g>
</g>
<!-- Node21 -->
<g id="Node000021" class="node">
<title>Node21</title>
<g id="a_Node000021"><a xlink:title=" ">
<polygon fill="#e0e0e0" stroke="#999999" points="1138.73,-74 1087.73,-74 1087.73,-55 1138.73,-55 1138.73,-74"/>
<text text-anchor="middle" x="1113.23" y="-62" font-family="Helvetica,sans-Serif" font-size="10.00">variant</text>
</a>
</g>
</g>
<!-- Node16&#45;&gt;Node21 -->
<g id="edge33_Node000016_Node000021" class="edge">
<title>Node16&#45;&gt;Node21</title>
<g id="a_edge33_Node000016_Node000021"><a xlink:title=" ">
<path fill="none" stroke="#63b8ff" d="M1240.23,-109.99C1211.99,-100.1 1174.55,-86.98 1147.64,-77.56"/>
<polygon fill="#63b8ff" stroke="#63b8ff" points="1148.49,-74.14 1137.89,-74.14 1146.17,-80.75 1148.49,-74.14"/>
</a>
</g>
</g>
<!-- Node22&#45;&gt;Node4 -->
<g id="edge37_Node000022_Node000004" class="edge">
<title>Node22&#45;&gt;Node4</title>
<g id="a_edge37_Node000022_Node000004"><a xlink:title=" ">
<path fill="none" stroke="#63b8ff" d="M482.93,-56.71C487.75,-56.1 492.59,-55.52 497.23,-55 654.92,-37.51 839.99,-23.26 942.6,-15.91"/>
<polygon fill="#63b8ff" stroke="#63b8ff" points="943.15,-19.38 952.87,-15.18 942.65,-12.4 943.15,-19.38"/>
</a>
</g>
</g>
<!-- Node22&#45;&gt;Node9 -->
<g id="edge39_Node000022_Node000009" class="edge">
<title>Node22&#45;&gt;Node9</title>
<g id="a_edge39_Node000022_Node000009"><a xlink:title=" ">
<path fill="none" stroke="#63b8ff" d="M459.17,-54.98C484.37,-46.02 524.19,-31.86 552.11,-21.92"/>
<polygon fill="#63b8ff" stroke="#63b8ff" points="553.56,-25.12 561.81,-18.47 551.22,-18.53 553.56,-25.12"/>
</a>
</g>
</g>
<!-- Node22&#45;&gt;Node13 -->
<g id="edge38_Node000022_Node000013" class="edge">
<title>Node22&#45;&gt;Node13</title>
<g id="a_edge38_Node000022_Node000013"><a xlink:title=" ">
<path fill="none" stroke="#63b8ff" d="M434.07,-54.75C433.16,-47.8 431.84,-37.85 430.69,-29.13"/>
<polygon fill="#63b8ff" stroke="#63b8ff" points="434.14,-28.54 429.36,-19.09 427.2,-29.46 434.14,-28.54"/>
</a>
</g>
</g>
<!-- Node23&#45;&gt;Node2 -->
<g id="edge41_Node000023_Node000002" class="edge">
<title>Node23&#45;&gt;Node2</title>
<g id="a_edge41_Node000023_Node000002"><a xlink:title=" ">
<path fill="none" stroke="#63b8ff" d="M1055.86,-239.24C926.97,-237.38 580.42,-224.49 513.23,-140 504.93,-129.56 506.24,-121.36 513.23,-110 525.06,-90.75 548.09,-79.52 567.62,-73.16"/>
<polygon fill="#63b8ff" stroke="#63b8ff" points="568.84,-76.45 577.43,-70.26 566.85,-69.74 568.84,-76.45"/>
</a>
</g>
</g>
<!-- Node23&#45;&gt;Node4 -->
<g id="edge68_Node000023_Node000004" class="edge">
<title>Node23&#45;&gt;Node4</title>
<g id="a_edge68_Node000023_Node000004"><a xlink:title=" ">
<path fill="none" stroke="#63b8ff" d="M1152.38,-235.01C1257.09,-224.31 1500.96,-194.12 1561.23,-140 1590.26,-113.93 1609.71,-83.66 1583.23,-55 1551.1,-20.23 1246.51,-12.6 1099.66,-10.94"/>
<polygon fill="#63b8ff" stroke="#63b8ff" points="1099.4,-7.44 1089.37,-10.84 1099.33,-14.44 1099.4,-7.44"/>
</a>
</g>
</g>
<!-- Node23&#45;&gt;Node16 -->
<g id="edge53_Node000023_Node000016" class="edge">
<title>Node23&#45;&gt;Node16</title>
<g id="a_edge53_Node000023_Node000016"><a xlink:title=" ">
<path fill="none" stroke="#63b8ff" d="M1117.46,-230.97C1145.28,-213.02 1210.51,-170.96 1249.42,-145.87"/>
<polygon fill="#63b8ff" stroke="#63b8ff" points="1251.73,-148.54 1258.24,-140.18 1247.94,-142.66 1251.73,-148.54"/>
</a>
</g>
</g>
<!-- Node24 -->
<g id="Node000024" class="node">
<title>Node24</title>
<g id="a_Node000024"><a xlink:href="func__info_8h.html" target="_top" xlink:title=" ">
<polygon fill="white" stroke="#666666" points="830.73,-195 759.73,-195 759.73,-176 830.73,-176 830.73,-195"/>
<text text-anchor="middle" x="795.23" y="-183" font-family="Helvetica,sans-Serif" font-size="10.00">func_info.h</text>
</a>
</g>
</g>
<!-- Node23&#45;&gt;Node24 -->
<g id="edge42_Node000023_Node000024" class="edge">
<title>Node23&#45;&gt;Node24</title>
<g id="a_edge42_Node000023_Node000024"><a xlink:title=" ">
<path fill="none" stroke="#63b8ff" d="M1055.95,-231.22C997.18,-221.14 898.68,-204.24 841.05,-194.36"/>
<polygon fill="#63b8ff" stroke="#63b8ff" points="841.58,-190.9 831.13,-192.66 840.39,-197.8 841.58,-190.9"/>
</a>
</g>
</g>
<!-- Node29 -->
<g id="Node000029" class="node">
<title>Node29</title>
<g id="a_Node000029"><a xlink:href="func__result_8h.html" target="_top" xlink:title=" ">
<polygon fill="white" stroke="#666666" points="1144.23,-195 1064.23,-195 1064.23,-176 1144.23,-176 1144.23,-195"/>
<text text-anchor="middle" x="1104.23" y="-183" font-family="Helvetica,sans-Serif" font-size="10.00">func_result.h</text>
</a>
</g>
</g>
<!-- Node23&#45;&gt;Node29 -->
<g id="edge54_Node000023_Node000029" class="edge">
<title>Node23&#45;&gt;Node29</title>
<g id="a_edge54_Node000023_Node000029"><a xlink:title=" ">
<path fill="none" stroke="#63b8ff" d="M1104.23,-230.75C1104.23,-223.8 1104.23,-213.85 1104.23,-205.13"/>
<polygon fill="#63b8ff" stroke="#63b8ff" points="1107.73,-205.09 1104.23,-195.09 1100.73,-205.09 1107.73,-205.09"/>
</a>
</g>
</g>
<!-- Node24&#45;&gt;Node2 -->
<g id="edge44_Node000024_Node000002" class="edge">
<title>Node24&#45;&gt;Node2</title>
<g id="a_edge44_Node000024_Node000002"><a xlink:title=" ">
<path fill="none" stroke="#63b8ff" d="M759.58,-182.39C725.29,-178.66 673.7,-168.36 639.23,-140 621.75,-125.62 611.47,-101.14 606.1,-84.18"/>
<polygon fill="#63b8ff" stroke="#63b8ff" points="609.39,-82.95 603.26,-74.31 602.66,-84.89 609.39,-82.95"/>
</a>
</g>
</g>
<!-- Node24&#45;&gt;Node3 -->
<g id="edge47_Node000024_Node000003" class="edge">
<title>Node24&#45;&gt;Node3</title>
<g id="a_edge47_Node000024_Node000003"><a xlink:title=" ">
<path fill="none" stroke="#63b8ff" d="M759.65,-184.67C676.65,-184.34 464.21,-179.36 292.23,-140 289.71,-139.42 287.13,-138.71 284.57,-137.92"/>
<polygon fill="#63b8ff" stroke="#63b8ff" points="285.48,-134.54 274.89,-134.58 283.2,-141.15 285.48,-134.54"/>
</a>
</g>
</g>
<!-- Node24&#45;&gt;Node4 -->
<g id="edge52_Node000024_Node000004" class="edge">
<title>Node24&#45;&gt;Node4</title>
<g id="a_edge52_Node000024_Node000004"><a xlink:title=" ">
<path fill="none" stroke="#63b8ff" d="M802.82,-175.95C810.42,-167.21 822.23,-153.11 831.23,-140 855.91,-104.05 846.23,-82.31 880.23,-55 900.81,-38.47 927.61,-28.03 952.31,-21.47"/>
<polygon fill="#63b8ff" stroke="#63b8ff" points="953.16,-24.87 962.02,-19.06 951.47,-18.07 953.16,-24.87"/>
</a>
</g>
</g>
<!-- Node24&#45;&gt;Node9 -->
<g id="edge48_Node000024_Node000009" class="edge">
<title>Node24&#45;&gt;Node9</title>
<g id="a_edge48_Node000024_Node000009"><a xlink:title=" ">
<path fill="none" stroke="#63b8ff" d="M759.58,-179.1C732.96,-173.42 697.17,-162.09 673.23,-140 642.68,-111.81 658.95,-88.42 634.23,-55 626,-43.87 614.6,-33.47 604.77,-25.52"/>
<polygon fill="#63b8ff" stroke="#63b8ff" points="606.69,-22.58 596.65,-19.21 602.4,-28.11 606.69,-22.58"/>
</a>
</g>
</g>
<!-- Node24&#45;&gt;Node16 -->
<g id="edge51_Node000024_Node000016" class="edge">
<title>Node24&#45;&gt;Node16</title>
<g id="a_edge51_Node000024_Node000016"><a xlink:title=" ">
<path fill="none" stroke="#63b8ff" d="M830.9,-181.64C900.88,-175.81 1061.24,-161.4 1206.22,-140.07"/>
<polygon fill="#63b8ff" stroke="#63b8ff" points="1206.81,-143.52 1216.19,-138.59 1205.78,-136.6 1206.81,-143.52"/>
</a>
</g>
</g>
<!-- Node24&#45;&gt;Node20 -->
<g id="edge49_Node000024_Node000020" class="edge">
<title>Node24&#45;&gt;Node20</title>
<g id="a_edge49_Node000024_Node000020"><a xlink:title=" ">
<path fill="none" stroke="#63b8ff" d="M812.38,-175.85C827.18,-167.85 848.56,-154.97 864.23,-140 882.1,-122.93 897.83,-99.07 907.42,-82.99"/>
<polygon fill="#63b8ff" stroke="#63b8ff" points="910.58,-84.52 912.56,-74.11 904.52,-81.01 910.58,-84.52"/>
</a>
</g>
</g>
<!-- Node25 -->
<g id="Node000025" class="node">
<title>Node25</title>
<g id="a_Node000025"><a xlink:title=" ">
<polygon fill="#e0e0e0" stroke="#999999" points="962.23,-134.5 916.23,-134.5 916.23,-115.5 962.23,-115.5 962.23,-134.5"/>
<text text-anchor="middle" x="939.23" y="-122.5" font-family="Helvetica,sans-Serif" font-size="10.00">future</text>
</a>
</g>
</g>
<!-- Node24&#45;&gt;Node25 -->
<g id="edge43_Node000024_Node000025" class="edge">
<title>Node24&#45;&gt;Node25</title>
<g id="a_edge43_Node000024_Node000025"><a xlink:title=" ">
<path fill="none" stroke="#63b8ff" d="M816.17,-175.99C840.59,-166.07 881.16,-149.59 909,-138.28"/>
<polygon fill="#63b8ff" stroke="#63b8ff" points="910.32,-141.52 918.26,-134.52 907.68,-135.04 910.32,-141.52"/>
</a>
</g>
</g>
<!-- Node26 -->
<g id="Node000026" class="node">
<title>Node26</title>
<g id="a_Node000026"><a xlink:title=" ">
<polygon fill="#e0e0e0" stroke="#999999" points="750.73,-134.5 681.73,-134.5 681.73,-115.5 750.73,-115.5 750.73,-134.5"/>
<text text-anchor="middle" x="716.23" y="-122.5" font-family="Helvetica,sans-Serif" font-size="10.00">type_traits</text>
</a>
</g>
</g>
<!-- Node24&#45;&gt;Node26 -->
<g id="edge45_Node000024_Node000026" class="edge">
<title>Node24&#45;&gt;Node26</title>
<g id="a_edge45_Node000024_Node000026"><a xlink:title=" ">
<path fill="none" stroke="#63b8ff" d="M783.57,-175.87C771.09,-166.62 751.05,-151.78 736.07,-140.69"/>
<polygon fill="#63b8ff" stroke="#63b8ff" points="738.05,-137.81 727.93,-134.67 733.89,-143.43 738.05,-137.81"/>
</a>
</g>
</g>
<!-- Node27 -->
<g id="Node000027" class="node">
<title>Node27</title>
<g id="a_Node000027"><a xlink:title=" ">
<polygon fill="#e0e0e0" stroke="#999999" points="586.73,-134.5 521.73,-134.5 521.73,-115.5 586.73,-115.5 586.73,-134.5"/>
<text text-anchor="middle" x="554.23" y="-122.5" font-family="Helvetica,sans-Serif" font-size="10.00">functional</text>
</a>
</g>
</g>
<!-- Node24&#45;&gt;Node27 -->
<g id="edge46_Node000024_Node000027" class="edge">
<title>Node24&#45;&gt;Node27</title>
<g id="a_edge46_Node000024_Node000027"><a xlink:title=" ">
<path fill="none" stroke="#63b8ff" d="M759.66,-177.06C720.63,-168.72 656.2,-154.48 601.23,-140 598.1,-139.18 594.86,-138.29 591.62,-137.37"/>
<polygon fill="#63b8ff" stroke="#63b8ff" points="592.56,-134 581.98,-134.59 590.62,-140.73 592.56,-134"/>
</a>
</g>
</g>
<!-- Node28 -->
<g id="Node000028" class="node">
<title>Node28</title>
<g id="a_Node000028"><a xlink:title=" ">
<polygon fill="#e0e0e0" stroke="#999999" points="821.73,-134.5 768.73,-134.5 768.73,-115.5 821.73,-115.5 821.73,-134.5"/>
<text text-anchor="middle" x="795.23" y="-122.5" font-family="Helvetica,sans-Serif" font-size="10.00">cstddef</text>
</a>
</g>
</g>
<!-- Node24&#45;&gt;Node28 -->
<g id="edge50_Node000024_Node000028" class="edge">
<title>Node24&#45;&gt;Node28</title>
<g id="a_edge50_Node000024_Node000028"><a xlink:title=" ">
<path fill="none" stroke="#63b8ff" d="M795.23,-175.87C795.23,-167.75 795.23,-155.31 795.23,-144.89"/>
<polygon fill="#63b8ff" stroke="#63b8ff" points="798.73,-144.67 795.23,-134.67 791.73,-144.67 798.73,-144.67"/>
</a>
</g>
</g>
<!-- Node29&#45;&gt;Node4 -->
<g id="edge63_Node000029_Node000004" class="edge">
<title>Node29&#45;&gt;Node4</title>
<g id="a_edge63_Node000029_Node000004"><a xlink:title=" ">
<path fill="none" stroke="#63b8ff" d="M1144.43,-182.96C1210.79,-179.61 1339.21,-169.41 1372.23,-140 1401.14,-114.26 1416.91,-83.96 1391.23,-55 1372.22,-33.57 1202.43,-20.49 1099.58,-14.47"/>
<polygon fill="#63b8ff" stroke="#63b8ff" points="1099.72,-10.97 1089.54,-13.89 1099.32,-17.96 1099.72,-10.97"/>
</a>
</g>
</g>
<!-- Node29&#45;&gt;Node7 -->
<g id="edge61_Node000029_Node000007" class="edge">
<title>Node29&#45;&gt;Node7</title>
<g id="a_edge61_Node000029_Node000007"><a xlink:title=" ">
<path fill="none" stroke="#63b8ff" d="M1064.01,-183.12C938.71,-178.69 544.26,-163.7 218.23,-140 179.4,-137.18 134.91,-132.78 105.14,-129.66"/>
<polygon fill="#63b8ff" stroke="#63b8ff" points="105.19,-126.15 94.88,-128.58 104.46,-133.11 105.19,-126.15"/>
</a>
</g>
</g>
<!-- Node29&#45;&gt;Node8 -->
<g id="edge58_Node000029_Node000008" class="edge">
<title>Node29&#45;&gt;Node8</title>
<g id="a_edge58_Node000029_Node000008"><a xlink:title=" ">
<path fill="none" stroke="#63b8ff" d="M1079.27,-175.94C1058.33,-168.18 1028.1,-155.58 1004.23,-140 987.63,-129.17 989.55,-117.55 971.23,-110 803.41,-40.83 327.43,-131.37 155.23,-74 125.26,-64.02 96.08,-41.34 78.62,-25.97"/>
<polygon fill="#63b8ff" stroke="#63b8ff" points="80.81,-23.23 71.05,-19.1 76.1,-28.41 80.81,-23.23"/>
</a>
</g>
</g>
<!-- Node29&#45;&gt;Node9 -->
<g id="edge56_Node000029_Node000009" class="edge">
<title>Node29&#45;&gt;Node9</title>
<g id="a_edge56_Node000029_Node000009"><a xlink:title=" ">
<path fill="none" stroke="#63b8ff" d="M1098.07,-175.85C1079.79,-151 1022.85,-79.65 955.23,-55 893.23,-32.4 695.49,-17.62 616.89,-12.5"/>
<polygon fill="#63b8ff" stroke="#63b8ff" points="616.82,-8.99 606.62,-11.84 616.38,-15.97 616.82,-8.99"/>
</a>
</g>
</g>
<!-- Node29&#45;&gt;Node16 -->
<g id="edge62_Node000029_Node000016" class="edge">
<title>Node29&#45;&gt;Node16</title>
<g id="a_edge62_Node000029_Node000016"><a xlink:title=" ">
<path fill="none" stroke="#63b8ff" d="M1129.82,-175.99C1155.48,-167.46 1195.73,-154.09 1228.13,-143.32"/>
<polygon fill="#63b8ff" stroke="#63b8ff" points="1229.53,-146.54 1237.92,-140.06 1227.32,-139.9 1229.53,-146.54"/>
</a>
</g>
</g>
<!-- Node29&#45;&gt;Node19 -->
<g id="edge60_Node000029_Node000019" class="edge">
<title>Node29&#45;&gt;Node19</title>
<g id="a_edge60_Node000029_Node000019"><a xlink:title=" ">
<path fill="none" stroke="#63b8ff" d="M1144.34,-183.18C1207.63,-180.17 1326.26,-170.52 1353.23,-140 1366.47,-125.02 1365.2,-101.01 1362.1,-84.32"/>
<polygon fill="#63b8ff" stroke="#63b8ff" points="1365.42,-83.12 1359.82,-74.13 1358.59,-84.65 1365.42,-83.12"/>
</a>
</g>
</g>
<!-- Node29&#45;&gt;Node20 -->
<g id="edge55_Node000029_Node000020" class="edge">
<title>Node29&#45;&gt;Node20</title>
<g id="a_edge55_Node000029_Node000020"><a xlink:title=" ">
<path fill="none" stroke="#63b8ff" d="M1093.84,-175.84C1076.12,-161.28 1038.6,-131.39 1004.23,-110 985.15,-98.13 962.52,-86.63 945.12,-78.29"/>
<polygon fill="#63b8ff" stroke="#63b8ff" points="946.59,-75.11 936.05,-74.01 943.6,-81.44 946.59,-75.11"/>
</a>
</g>
</g>
<!-- Node29&#45;&gt;Node25 -->
<g id="edge57_Node000029_Node000025" class="edge">
<title>Node29&#45;&gt;Node25</title>
<g id="a_edge57_Node000029_Node000025"><a xlink:title=" ">
<path fill="none" stroke="#63b8ff" d="M1078.66,-175.84C1052.77,-167.01 1011.61,-152.84 976.23,-140 974.59,-139.4 972.91,-138.79 971.21,-138.16"/>
<polygon fill="#63b8ff" stroke="#63b8ff" points="972.09,-134.76 961.5,-134.54 969.64,-141.31 972.09,-134.76"/>
</a>
</g>
</g>
<!-- Node30 -->
<g id="Node000030" class="node">
<title>Node30</title>
<g id="a_Node000030"><a xlink:title=" ">
<polygon fill="#e0e0e0" stroke="#999999" points="1197.73,-134.5 1132.73,-134.5 1132.73,-115.5 1197.73,-115.5 1197.73,-134.5"/>
<text text-anchor="middle" x="1165.23" y="-122.5" font-family="Helvetica,sans-Serif" font-size="10.00">stdexcept</text>
</a>
</g>
</g>
<!-- Node29&#45;&gt;Node30 -->
<g id="edge59_Node000029_Node000030" class="edge">
<title>Node29&#45;&gt;Node30</title>
<g id="a_edge59_Node000029_Node000030"><a xlink:title=" ">
<path fill="none" stroke="#63b8ff" d="M1113.23,-175.87C1122.6,-166.88 1137.48,-152.61 1148.93,-141.64"/>
<polygon fill="#63b8ff" stroke="#63b8ff" points="1151.4,-144.12 1156.19,-134.67 1146.55,-139.06 1151.4,-144.12"/>
</a>
</g>
</g>
<!-- Node31 -->
<g id="Node000031" class="node">
<title>Node31</title>
<g id="a_Node000031"><a xlink:href="def__types_8h.html" target="_top" xlink:title=" ">
<polygon fill="white" stroke="#666666" points="1551.73,-140 1438.73,-140 1438.73,-110 1551.73,-110 1551.73,-140"/>
<text text-anchor="start" x="1446.73" y="-128" font-family="Helvetica,sans-Serif" font-size="10.00">webcface/c_wcf/def</text>
<text text-anchor="middle" x="1495.23" y="-117" font-family="Helvetica,sans-Serif" font-size="10.00">_types.h</text>
</a>
</g>
</g>
<!-- Node29&#45;&gt;Node31 -->
<g id="edge64_Node000029_Node000031" class="edge">
<title>Node29&#45;&gt;Node31</title>
<g id="a_edge64_Node000029_Node000031"><a xlink:title=" ">
<path fill="none" stroke="#63b8ff" d="M1144.25,-179.67C1204.94,-172.18 1323.83,-156.87 1424.23,-140 1425.7,-139.75 1427.19,-139.5 1428.69,-139.24"/>
<polygon fill="#63b8ff" stroke="#63b8ff" points="1429.47,-142.65 1438.7,-137.45 1428.24,-135.76 1429.47,-142.65"/>
</a>
</g>
</g>
<!-- Node31&#45;&gt;Node4 -->
<g id="edge65_Node000031_Node000004" class="edge">
<title>Node31&#45;&gt;Node4</title>
<g id="a_edge65_Node000031_Node000004"><a xlink:title=" ">
<path fill="none" stroke="#63b8ff" d="M1527.47,-109.99C1554.4,-96.41 1585.65,-74.99 1567.23,-55 1536.19,-21.32 1242.73,-13.13 1099.33,-11.14"/>
<polygon fill="#63b8ff" stroke="#63b8ff" points="1099.32,-7.64 1089.28,-11.01 1099.23,-14.64 1099.32,-7.64"/>
</a>
</g>
</g>
<!-- Node32 -->
<g id="Node000032" class="node">
<title>Node32</title>
<g id="a_Node000032"><a xlink:title=" ">
<polygon fill="#e0e0e0" stroke="#999999" points="1492.23,-74 1438.23,-74 1438.23,-55 1492.23,-55 1492.23,-74"/>
<text text-anchor="middle" x="1465.23" y="-62" font-family="Helvetica,sans-Serif" font-size="10.00">wchar.h</text>
</a>
</g>
</g>
<!-- Node31&#45;&gt;Node32 -->
<g id="edge66_Node000031_Node000032" class="edge">
<title>Node31&#45;&gt;Node32</title>
<g id="a_edge66_Node000031_Node000032"><a xlink:title=" ">
<path fill="none" stroke="#63b8ff" d="M1487.97,-109.84C1483.88,-101.87 1478.73,-91.84 1474.37,-83.33"/>
<polygon fill="#63b8ff" stroke="#63b8ff" points="1477.4,-81.57 1469.72,-74.27 1471.17,-84.76 1477.4,-81.57"/>
</a>
</g>
</g>
<!-- Node33 -->
<g id="Node000033" class="node">
<title>Node33</title>
<g id="a_Node000033"><a xlink:title=" ">
<polygon fill="#e0e0e0" stroke="#999999" points="1557.73,-74 1510.73,-74 1510.73,-55 1557.73,-55 1557.73,-74"/>
<text text-anchor="middle" x="1534.23" y="-62" font-family="Helvetica,sans-Serif" font-size="10.00">float.h</text>
</a>
</g>
</g>
<!-- Node31&#45;&gt;Node33 -->
<g id="edge67_Node000031_Node000033" class="edge">
<title>Node31&#45;&gt;Node33</title>
<g id="a_edge67_Node000031_Node000033"><a xlink:title=" ">
<path fill="none" stroke="#63b8ff" d="M1504.67,-109.84C1510.1,-101.69 1516.96,-91.4 1522.71,-82.78"/>
<polygon fill="#63b8ff" stroke="#63b8ff" points="1525.75,-84.53 1528.38,-74.27 1519.93,-80.65 1525.75,-84.53"/>
</a>
</g>
</g>
<!-- Node34&#45;&gt;Node3 -->
<g id="edge72_Node000034_Node000003" class="edge">
<title>Node34&#45;&gt;Node3</title>
<g id="a_edge72_Node000034_Node000003"><a xlink:title=" ">
<path fill="none" stroke="#63b8ff" d="M337.06,-175.87C321.54,-166.41 296.4,-151.09 278.08,-139.92"/>
<polygon fill="#63b8ff" stroke="#63b8ff" points="279.81,-136.88 269.45,-134.67 276.17,-142.86 279.81,-136.88"/>
</a>
</g>
</g>
<!-- Node34&#45;&gt;Node4 -->
<g id="edge76_Node000034_Node000004" class="edge">
<title>Node34&#45;&gt;Node4</title>
<g id="a_edge76_Node000034_Node000004"><a xlink:title=" ">
<path fill="none" stroke="#63b8ff" d="M366.82,-175.8C395.13,-160.35 457.25,-128.07 513.23,-110 661.44,-62.16 841.78,-33.49 942.84,-19.96"/>
<polygon fill="#63b8ff" stroke="#63b8ff" points="943.51,-23.41 952.96,-18.62 942.59,-16.47 943.51,-23.41"/>
</a>
</g>
</g>
<!-- Node34&#45;&gt;Node7 -->
<g id="edge75_Node000034_Node000007" class="edge">
<title>Node34&#45;&gt;Node7</title>
<g id="a_edge75_Node000034_Node000007"><a xlink:title=" ">
<path fill="none" stroke="#63b8ff" d="M310.51,-175.99C255.03,-164.4 156.69,-143.85 105.05,-133.07"/>
<polygon fill="#63b8ff" stroke="#63b8ff" points="105.57,-129.6 95.07,-130.98 104.14,-136.45 105.57,-129.6"/>
</a>
</g>
</g>
<!-- Node34&#45;&gt;Node8 -->
<g id="edge74_Node000034_Node000008" class="edge">
<title>Node34&#45;&gt;Node8</title>
<g id="a_edge74_Node000034_Node000008"><a xlink:title=" ">
<path fill="none" stroke="#63b8ff" d="M303.55,-185C224.59,-184.68 72,-178.91 38.23,-140 10.73,-108.32 34.97,-55.53 50.92,-28.17"/>
<polygon fill="#63b8ff" stroke="#63b8ff" points="54.09,-29.68 56.31,-19.32 48.12,-26.04 54.09,-29.68"/>
</a>
</g>
</g>
<!-- Node34&#45;&gt;Node16 -->
<g id="edge77_Node000034_Node000016" class="edge">
<title>Node34&#45;&gt;Node16</title>
<g id="a_edge77_Node000034_Node000016"><a xlink:title=" ">
<path fill="none" stroke="#63b8ff" d="M398.75,-184.32C527.3,-183.34 892.73,-177.31 1206.03,-140.02"/>
<polygon fill="#63b8ff" stroke="#63b8ff" points="1206.7,-143.46 1216.21,-138.79 1205.87,-136.51 1206.7,-143.46"/>
</a>
</g>
</g>
<!-- Node34&#45;&gt;Node20 -->
<g id="edge71_Node000034_Node000020" class="edge">
<title>Node34&#45;&gt;Node20</title>
<g id="a_edge71_Node000034_Node000020"><a xlink:title=" ">
<path fill="none" stroke="#63b8ff" d="M365.8,-175.84C393.46,-159.84 455.95,-125.87 513.23,-110 643.83,-73.8 805.85,-66.87 878.65,-65.67"/>
<polygon fill="#63b8ff" stroke="#63b8ff" points="878.77,-69.17 888.72,-65.53 878.68,-62.17 878.77,-69.17"/>
</a>
</g>
</g>
<!-- Node34&#45;&gt;Node27 -->
<g id="edge70_Node000034_Node000027" class="edge">
<title>Node34&#45;&gt;Node27</title>
<g id="a_edge70_Node000034_Node000027"><a xlink:title=" ">
<path fill="none" stroke="#63b8ff" d="M381.46,-175.99C412.91,-167.11 463.56,-152.73 507.23,-140 509.99,-139.2 512.84,-138.36 515.7,-137.52"/>
<polygon fill="#63b8ff" stroke="#63b8ff" points="516.82,-140.84 525.41,-134.64 514.83,-134.12 516.82,-140.84"/>
</a>
</g>
</g>
<!-- Node35 -->
<g id="Node000035" class="node">
<title>Node35</title>
<g id="a_Node000035"><a xlink:title=" ">
<polygon fill="#e0e0e0" stroke="#999999" points="351.23,-134.5 301.23,-134.5 301.23,-115.5 351.23,-115.5 351.23,-134.5"/>
<text text-anchor="middle" x="326.23" y="-122.5" font-family="Helvetica,sans-Serif" font-size="10.00">chrono</text>
</a>
</g>
</g>
<!-- Node34&#45;&gt;Node35 -->
<g id="edge73_Node000034_Node000035" class="edge">
<title>Node34&#45;&gt;Node35</title>
<g id="a_edge73_Node000034_Node000035"><a xlink:title=" ">
<path fill="none" stroke="#63b8ff" d="M347.54,-175.87C343.96,-167.49 338.41,-154.51 333.88,-143.89"/>
<polygon fill="#63b8ff" stroke="#63b8ff" points="337.08,-142.49 329.93,-134.67 330.64,-145.24 337.08,-142.49"/>
</a>
</g>
</g>
<!-- Node36&#45;&gt;Node2 -->
<g id="edge80_Node000036_Node000002" class="edge">
<title>Node36&#45;&gt;Node2</title>
<g id="a_edge80_Node000036_Node000002"><a xlink:title=" ">
<path fill="none" stroke="#63b8ff" d="M1610.47,-115.49C1594.52,-113.42 1577.24,-111.41 1561.23,-110 1375.77,-93.71 784.12,-72 635.4,-66.7"/>
<polygon fill="#63b8ff" stroke="#63b8ff" points="635.2,-63.2 625.08,-66.34 634.95,-70.19 635.2,-63.2"/>
</a>
</g>
</g>
<!-- Node36&#45;&gt;Node4 -->
<g id="edge79_Node000036_Node000004" class="edge">
<title>Node36&#45;&gt;Node4</title>
<g id="a_edge79_Node000036_Node000004"><a xlink:title=" ">
<path fill="none" stroke="#63b8ff" d="M1668.19,-115.46C1665.85,-100.38 1658.68,-69.3 1638.23,-55 1595.06,-24.81 1255.67,-14.76 1099.45,-11.71"/>
<polygon fill="#63b8ff" stroke="#63b8ff" points="1099.5,-8.21 1089.43,-11.52 1099.36,-15.21 1099.5,-8.21"/>
</a>
</g>
</g>
</g>
</svg>
