<?xml version="1.0" encoding="UTF-8" standalone="no"?>
<!DOCTYPE svg PUBLIC "-//W3C//DTD SVG 1.1//EN"
 "http://www.w3.org/Graphics/SVG/1.1/DTD/svg11.dtd">
<!-- Generated by graphviz version 2.43.0 (0)
 -->
<!-- Title: client/include/webcface/internal/component_internal.h Pages: 1 -->
<svg width="1074pt" height="104pt"
 viewBox="0.00 0.00 1074.00 104.00" xmlns="http://www.w3.org/2000/svg" xmlns:xlink="http://www.w3.org/1999/xlink">
<g id="graph0" class="graph" transform="scale(1 1) rotate(0) translate(4 100)">
<title>client/include/webcface/internal/component_internal.h</title>
<!-- Node1 -->
<g id="Node000001" class="node">
<title>Node1</title>
<g id="a_Node000001"><a xlink:title=" ">
<polygon fill="#999999" stroke="#666666" points="629.5,-96 462.5,-96 462.5,-66 629.5,-66 629.5,-96"/>
<text text-anchor="start" x="470.5" y="-84" font-family="Helvetica,sans-Serif" font-size="10.00">client/include/webcface</text>
<text text-anchor="middle" x="546" y="-73" font-family="Helvetica,sans-Serif" font-size="10.00">/internal/component_internal.h</text>
</a>
</g>
</g>
<!-- Node2 -->
<g id="Node000002" class="node">
<title>Node2</title>
<g id="a_Node000002"><a xlink:href="canvas2d_8cc.html" target="_top" xlink:title=" ">
<polygon fill="white" stroke="#666666" points="124,-24.5 0,-24.5 0,-5.5 124,-5.5 124,-24.5"/>
<text text-anchor="middle" x="62" y="-12.5" font-family="Helvetica,sans-Serif" font-size="10.00">client/src/canvas2d.cc</text>
</a>
</g>
</g>
<!-- Node1&#45;&gt;Node2 -->
<g id="edge1_Node000001_Node000002" class="edge">
<title>Node1&#45;&gt;Node2</title>
<g id="a_edge1_Node000001_Node000002"><a xlink:title=" ">
<path fill="none" stroke="#63b8ff" d="M452.28,-70.66C368.39,-61.82 242.16,-47.34 133,-30 123.07,-28.42 112.42,-26.46 102.46,-24.52"/>
<polygon fill="#63b8ff" stroke="#63b8ff" points="451.98,-74.15 462.29,-71.71 452.71,-67.18 451.98,-74.15"/>
</a>
</g>
</g>
<!-- Node3 -->
<g id="Node000003" class="node">
<title>Node3</title>
<g id="a_Node000003"><a xlink:href="canvas3d_8cc.html" target="_top" xlink:title=" ">
<polygon fill="white" stroke="#666666" points="266,-24.5 142,-24.5 142,-5.5 266,-5.5 266,-24.5"/>
<text text-anchor="middle" x="204" y="-12.5" font-family="Helvetica,sans-Serif" font-size="10.00">client/src/canvas3d.cc</text>
</a>
</g>
</g>
<!-- Node1&#45;&gt;Node3 -->
<g id="edge2_Node000001_Node000003" class="edge">
<title>Node1&#45;&gt;Node3</title>
<g id="a_edge2_Node000001_Node000003"><a xlink:title=" ">
<path fill="none" stroke="#63b8ff" d="M458.5,-64.14C405.39,-54.44 336.26,-41.69 275,-30 265.87,-28.26 256.08,-26.35 246.78,-24.52"/>
<polygon fill="#63b8ff" stroke="#63b8ff" points="458.1,-67.62 468.56,-65.97 459.35,-60.73 458.1,-67.62"/>
</a>
</g>
</g>
<!-- Node4 -->
<g id="Node000004" class="node">
<title>Node4</title>
<g id="a_Node000004"><a xlink:href="client__msg__recv_8cc.html" target="_top" xlink:title=" ">
<polygon fill="white" stroke="#666666" points="401.5,-30 284.5,-30 284.5,0 401.5,0 401.5,-30"/>
<text text-anchor="start" x="292.5" y="-18" font-family="Helvetica,sans-Serif" font-size="10.00">client/src/client_msg</text>
<text text-anchor="middle" x="343" y="-7" font-family="Helvetica,sans-Serif" font-size="10.00">_recv.cc</text>
</a>
</g>
</g>
<!-- Node1&#45;&gt;Node4 -->
<g id="edge3_Node000001_Node000004" class="edge">
<title>Node1&#45;&gt;Node4</title>
<g id="a_edge3_Node000001_Node000004"><a xlink:title=" ">
<path fill="none" stroke="#63b8ff" d="M491.62,-62.86C459.03,-52.58 418.1,-39.68 387.45,-30.01"/>
<polygon fill="#63b8ff" stroke="#63b8ff" points="490.86,-66.29 501.45,-65.95 492.97,-59.61 490.86,-66.29"/>
</a>
</g>
</g>
<!-- Node5 -->
<g id="Node000005" class="node">
<title>Node5</title>
<g id="a_Node000005"><a xlink:href="client__msg__sync_8cc.html" target="_top" xlink:title=" ">
<polygon fill="white" stroke="#666666" points="536.5,-30 419.5,-30 419.5,0 536.5,0 536.5,-30"/>
<text text-anchor="start" x="427.5" y="-18" font-family="Helvetica,sans-Serif" font-size="10.00">client/src/client_msg</text>
<text text-anchor="middle" x="478" y="-7" font-family="Helvetica,sans-Serif" font-size="10.00">_sync.cc</text>
</a>
</g>
</g>
<!-- Node1&#45;&gt;Node5 -->
<g id="edge4_Node000001_Node000005" class="edge">
<title>Node1&#45;&gt;Node5</title>
<g id="a_edge4_Node000001_Node000005"><a xlink:title=" ">
<path fill="none" stroke="#63b8ff" d="M523.61,-58.92C513.58,-49.49 502.02,-38.61 493.05,-30.16"/>
<polygon fill="#63b8ff" stroke="#63b8ff" points="521.23,-61.49 530.91,-65.8 526.03,-56.39 521.23,-61.49"/>
</a>
</g>
</g>
<!-- Node6 -->
<g id="Node000006" class="node">
<title>Node6</title>
<g id="a_Node000006"><a xlink:href="component__canvas2d_8cc.html" target="_top" xlink:title=" ">
<polygon fill="white" stroke="#666666" points="673.5,-30 554.5,-30 554.5,0 673.5,0 673.5,-30"/>
<text text-anchor="start" x="562.5" y="-18" font-family="Helvetica,sans-Serif" font-size="10.00">client/src/component</text>
<text text-anchor="middle" x="614" y="-7" font-family="Helvetica,sans-Serif" font-size="10.00">_canvas2d.cc</text>
</a>
</g>
</g>
<!-- Node1&#45;&gt;Node6 -->
<g id="edge5_Node000001_Node000006" class="edge">
<title>Node1&#45;&gt;Node6</title>
<g id="a_edge5_Node000001_Node000006"><a xlink:title=" ">
<path fill="none" stroke="#63b8ff" d="M568.39,-58.92C578.42,-49.49 589.98,-38.61 598.95,-30.16"/>
<polygon fill="#63b8ff" stroke="#63b8ff" points="565.97,-56.39 561.09,-65.8 570.77,-61.49 565.97,-56.39"/>
</a>
</g>
</g>
<!-- Node7 -->
<g id="Node000007" class="node">
<title>Node7</title>
<g id="a_Node000007"><a xlink:href="component__canvas3d_8cc.html" target="_top" xlink:title=" ">
<polygon fill="white" stroke="#666666" points="810.5,-30 691.5,-30 691.5,0 810.5,0 810.5,-30"/>
<text text-anchor="start" x="699.5" y="-18" font-family="Helvetica,sans-Serif" font-size="10.00">client/src/component</text>
<text text-anchor="middle" x="751" y="-7" font-family="Helvetica,sans-Serif" font-size="10.00">_canvas3d.cc</text>
</a>
</g>
</g>
<!-- Node1&#45;&gt;Node7 -->
<g id="edge6_Node000001_Node000007" class="edge">
<title>Node1&#45;&gt;Node7</title>
<g id="a_edge6_Node000001_Node000007"><a xlink:title=" ">
<path fill="none" stroke="#63b8ff" d="M600.91,-62.86C633.83,-52.58 675.16,-39.68 706.12,-30.01"/>
<polygon fill="#63b8ff" stroke="#63b8ff" points="599.49,-59.63 590.99,-65.95 601.58,-66.32 599.49,-59.63"/>
</a>
</g>
</g>
<!-- Node8 -->
<g id="Node000008" class="node">
<title>Node8</title>
<g id="a_Node000008"><a xlink:href="component__view_8cc.html" target="_top" xlink:title=" ">
<polygon fill="white" stroke="#666666" points="947.5,-30 828.5,-30 828.5,0 947.5,0 947.5,-30"/>
<text text-anchor="start" x="836.5" y="-18" font-family="Helvetica,sans-Serif" font-size="10.00">client/src/component</text>
<text text-anchor="middle" x="888" y="-7" font-family="Helvetica,sans-Serif" font-size="10.00">_view.cc</text>
</a>
</g>
</g>
<!-- Node1&#45;&gt;Node8 -->
<g id="edge7_Node000001_Node000008" class="edge">
<title>Node1&#45;&gt;Node8</title>
<g id="a_edge7_Node000001_Node000008"><a xlink:title=" ">
<path fill="none" stroke="#63b8ff" d="M635.67,-64.16C689.23,-54.57 758.57,-41.93 820,-30 822.72,-29.47 825.5,-28.93 828.31,-28.37"/>
<polygon fill="#63b8ff" stroke="#63b8ff" points="634.75,-60.77 625.52,-65.98 635.98,-67.66 634.75,-60.77"/>
</a>
</g>
</g>
<!-- Node9 -->
<g id="Node000009" class="node">
<title>Node9</title>
<g id="a_Node000009"><a xlink:href="view_8cc.html" target="_top" xlink:title=" ">
<polygon fill="white" stroke="#666666" points="1066,-24.5 966,-24.5 966,-5.5 1066,-5.5 1066,-24.5"/>
<text text-anchor="middle" x="1016" y="-12.5" font-family="Helvetica,sans-Serif" font-size="10.00">client/src/view.cc</text>
</a>
</g>
</g>
<!-- Node1&#45;&gt;Node9 -->
<g id="edge8_Node000001_Node000009" class="edge">
<title>Node1&#45;&gt;Node9</title>
<g id="a_edge8_Node000001_Node000009"><a xlink:title=" ">
<path fill="none" stroke="#63b8ff" d="M639.83,-71.6C723.43,-63.4 848.89,-49.34 957,-30 965.5,-28.48 974.6,-26.5 983.06,-24.5"/>
<polygon fill="#63b8ff" stroke="#63b8ff" points="639.46,-68.12 629.85,-72.57 640.14,-75.09 639.46,-68.12"/>
</a>
</g>
</g>
</g>
</svg>
