<?xml version="1.0" encoding="UTF-8" standalone="no"?>
<!DOCTYPE svg PUBLIC "-//W3C//DTD SVG 1.1//EN"
 "http://www.w3.org/Graphics/SVG/1.1/DTD/svg11.dtd">
<!-- Generated by graphviz version 2.43.0 (0)
 -->
<!-- Title: client/data_store2.h Pages: 1 -->
<svg width="1566pt" height="192pt"
 viewBox="0.00 0.00 1566.00 192.00" xmlns="http://www.w3.org/2000/svg" xmlns:xlink="http://www.w3.org/1999/xlink">
<g id="graph0" class="graph" transform="scale(1 1) rotate(0) translate(4 188)">
<title>client/data_store2.h</title>
<!-- Node1 -->
<g id="Node000001" class="node">
<title>Node1</title>
<g id="a_Node000001"><a xlink:title=" ">
<polygon fill="#999999" stroke="#666666" points="787.5,-184 674.5,-184 674.5,-165 787.5,-165 787.5,-184"/>
<text text-anchor="middle" x="731" y="-172" font-family="Helvetica,sans-Serif" font-size="10.00">client/data_store2.h</text>
</a>
</g>
</g>
<!-- Node2 -->
<g id="Node000002" class="node">
<title>Node2</title>
<g id="a_Node000002"><a xlink:title=" ">
<polygon fill="#e0e0e0" stroke="#999999" points="48,-129 0,-129 0,-110 48,-110 48,-129"/>
<text text-anchor="middle" x="24" y="-117" font-family="Helvetica,sans-Serif" font-size="10.00">mutex</text>
</a>
</g>
</g>
<!-- Node1&#45;&gt;Node2 -->
<g id="edge1_Node000001_Node000002" class="edge">
<title>Node1&#45;&gt;Node2</title>
<g id="a_edge1_Node000001_Node000002"><a xlink:title=" ">
<path fill="none" stroke="#63b8ff" d="M674.31,-172.66C558.62,-170.31 287.24,-161.49 62,-129 60.72,-128.82 59.42,-128.61 58.11,-128.39"/>
<polygon fill="#63b8ff" stroke="#63b8ff" points="58.5,-124.9 48.02,-126.46 57.18,-131.78 58.5,-124.9"/>
</a>
</g>
</g>
<!-- Node3 -->
<g id="Node000003" class="node">
<title>Node3</title>
<g id="a_Node000003"><a xlink:title=" ">
<polygon fill="#e0e0e0" stroke="#999999" points="565.5,-74 472.5,-74 472.5,-55 565.5,-55 565.5,-74"/>
<text text-anchor="middle" x="519" y="-62" font-family="Helvetica,sans-Serif" font-size="10.00">unordered_map</text>
</a>
</g>
</g>
<!-- Node1&#45;&gt;Node3 -->
<g id="edge2_Node000001_Node000003" class="edge">
<title>Node1&#45;&gt;Node3</title>
<g id="a_edge2_Node000001_Node000003"><a xlink:title=" ">
<path fill="none" stroke="#63b8ff" d="M714.01,-164.84C676.94,-145.96 588.6,-100.96 544.69,-78.59"/>
<polygon fill="#63b8ff" stroke="#63b8ff" points="546.28,-75.47 535.78,-74.05 543.1,-81.7 546.28,-75.47"/>
</a>
</g>
</g>
<!-- Node4 -->
<g id="Node000004" class="node">
<title>Node4</title>
<g id="a_Node000004"><a xlink:title=" ">
<polygon fill="#e0e0e0" stroke="#999999" points="390,-19 346,-19 346,0 390,0 390,-19"/>
<text text-anchor="middle" x="368" y="-7" font-family="Helvetica,sans-Serif" font-size="10.00">string</text>
</a>
</g>
</g>
<!-- Node1&#45;&gt;Node4 -->
<g id="edge3_Node000001_Node000004" class="edge">
<title>Node1&#45;&gt;Node4</title>
<g id="a_edge3_Node000001_Node000004"><a xlink:title=" ">
<path fill="none" stroke="#63b8ff" d="M674.48,-173.45C532.67,-172.74 170.42,-167.17 133,-129 109.96,-105.5 108.97,-80.32 130,-55 155.79,-23.95 276.82,-14.44 335.69,-11.63"/>
<polygon fill="#63b8ff" stroke="#63b8ff" points="336.08,-15.12 345.92,-11.18 335.78,-8.12 336.08,-15.12"/>
</a>
</g>
</g>
<!-- Node5 -->
<g id="Node000005" class="node">
<title>Node5</title>
<g id="a_Node000005"><a xlink:title=" ">
<polygon fill="#e0e0e0" stroke="#999999" points="980,-74 924,-74 924,-55 980,-55 980,-74"/>
<text text-anchor="middle" x="952" y="-62" font-family="Helvetica,sans-Serif" font-size="10.00">optional</text>
</a>
</g>
</g>
<!-- Node1&#45;&gt;Node5 -->
<g id="edge4_Node000001_Node000005" class="edge">
<title>Node1&#45;&gt;Node5</title>
<g id="a_edge4_Node000001_Node000005"><a xlink:title=" ">
<path fill="none" stroke="#63b8ff" d="M778.73,-164.98C809.31,-158.18 849.1,-146.81 881,-129 903.21,-116.6 924.36,-96.18 937.71,-81.85"/>
<polygon fill="#63b8ff" stroke="#63b8ff" points="940.5,-83.99 944.62,-74.22 935.31,-79.29 940.5,-83.99"/>
</a>
</g>
</g>
<!-- Node6 -->
<g id="Node000006" class="node">
<title>Node6</title>
<g id="a_Node000006"><a xlink:title=" ">
<polygon fill="#e0e0e0" stroke="#999999" points="1533.5,-74 1468.5,-74 1468.5,-55 1533.5,-55 1533.5,-74"/>
<text text-anchor="middle" x="1501" y="-62" font-family="Helvetica,sans-Serif" font-size="10.00">functional</text>
</a>
</g>
</g>
<!-- Node1&#45;&gt;Node6 -->
<g id="edge5_Node000001_Node000006" class="edge">
<title>Node1&#45;&gt;Node6</title>
<g id="a_edge5_Node000001_Node000006"><a xlink:title=" ">
<path fill="none" stroke="#63b8ff" d="M787.81,-169.02C869.8,-162.23 1025.96,-148.07 1158,-129 1266.67,-113.3 1393.45,-87.99 1458.19,-74.56"/>
<polygon fill="#63b8ff" stroke="#63b8ff" points="1458.96,-77.97 1468.03,-72.5 1457.53,-71.12 1458.96,-77.97"/>
</a>
</g>
</g>
<!-- Node7 -->
<g id="Node000007" class="node">
<title>Node7</title>
<g id="a_Node000007"><a xlink:title=" ">
<polygon fill="#e0e0e0" stroke="#999999" points="1558,-19 1498,-19 1498,0 1558,0 1558,-19"/>
<text text-anchor="middle" x="1528" y="-7" font-family="Helvetica,sans-Serif" font-size="10.00">concepts</text>
</a>
</g>
</g>
<!-- Node1&#45;&gt;Node7 -->
<g id="edge6_Node000001_Node000007" class="edge">
<title>Node1&#45;&gt;Node7</title>
<g id="a_edge6_Node000001_Node000007"><a xlink:title=" ">
<path fill="none" stroke="#63b8ff" d="M787.6,-170.94C963.9,-162.37 1494.31,-131.93 1543,-74 1553.78,-61.18 1547.1,-41.98 1539.54,-28.05"/>
<polygon fill="#63b8ff" stroke="#63b8ff" points="1542.5,-26.18 1534.36,-19.39 1536.49,-29.77 1542.5,-26.18"/>
</a>
</g>
</g>
<!-- Node8 -->
<g id="Node000008" class="node">
<title>Node8</title>
<g id="a_Node000008"><a xlink:href="field_8h.html" target="_top" xlink:title=" ">
<polygon fill="white" stroke="#666666" points="238,-129 142,-129 142,-110 238,-110 238,-129"/>
<text text-anchor="middle" x="190" y="-117" font-family="Helvetica,sans-Serif" font-size="10.00">webcface/field.h</text>
</a>
</g>
</g>
<!-- Node1&#45;&gt;Node8 -->
<g id="edge7_Node000001_Node000008" class="edge">
<title>Node1&#45;&gt;Node8</title>
<g id="a_edge7_Node000001_Node000008"><a xlink:title=" ">
<path fill="none" stroke="#63b8ff" d="M674.48,-168.03C588.3,-159.67 418.87,-143.21 275,-129 266.31,-128.14 257.13,-127.23 248.14,-126.33"/>
<polygon fill="#63b8ff" stroke="#63b8ff" points="248.4,-122.84 238.1,-125.33 247.7,-129.81 248.4,-122.84"/>
</a>
</g>
</g>
<!-- Node11 -->
<g id="Node000011" class="node">
<title>Node11</title>
<g id="a_Node000011"><a xlink:href="def_8h.html" target="_top" xlink:title=" ">
<polygon fill="white" stroke="#666666" points="737.5,-19 696.5,-19 696.5,0 737.5,0 737.5,-19"/>
<text text-anchor="middle" x="717" y="-7" font-family="Helvetica,sans-Serif" font-size="10.00">def.h</text>
</a>
</g>
</g>
<!-- Node1&#45;&gt;Node11 -->
<g id="edge28_Node000001_Node000011" class="edge">
<title>Node1&#45;&gt;Node11</title>
<g id="a_edge28_Node000001_Node000011"><a xlink:title=" ">
<path fill="none" stroke="#63b8ff" d="M674.24,-168.6C578.3,-158.21 400.31,-128.57 463,-55 493.97,-18.65 623.09,-28.63 686.48,-18.55"/>
<polygon fill="#63b8ff" stroke="#63b8ff" points="687.25,-21.97 696.42,-16.67 685.95,-15.09 687.25,-21.97"/>
</a>
</g>
</g>
<!-- Node12 -->
<g id="Node000012" class="node">
<title>Node12</title>
<g id="a_Node000012"><a xlink:href="dict_8h.html" target="_top" xlink:title=" ">
<polygon fill="white" stroke="#666666" points="871.5,-129 732.5,-129 732.5,-110 871.5,-110 871.5,-129"/>
<text text-anchor="middle" x="802" y="-117" font-family="Helvetica,sans-Serif" font-size="10.00">webcface/common/dict.h</text>
</a>
</g>
</g>
<!-- Node1&#45;&gt;Node12 -->
<g id="edge14_Node000001_Node000012" class="edge">
<title>Node1&#45;&gt;Node12</title>
<g id="a_edge14_Node000001_Node000012"><a xlink:title=" ">
<path fill="none" stroke="#63b8ff" d="M742.41,-164.98C753.11,-157 769.34,-144.88 782.16,-135.31"/>
<polygon fill="#63b8ff" stroke="#63b8ff" points="784.47,-137.96 790.39,-129.17 780.28,-132.35 784.47,-137.96"/>
</a>
</g>
</g>
<!-- Node17 -->
<g id="Node000017" class="node">
<title>Node17</title>
<g id="a_Node000017"><a xlink:href="common_2func_8h.html" target="_top" xlink:title=" ">
<polygon fill="white" stroke="#666666" points="1121,-129 979,-129 979,-110 1121,-110 1121,-129"/>
<text text-anchor="middle" x="1050" y="-117" font-family="Helvetica,sans-Serif" font-size="10.00">webcface/common/func.h</text>
</a>
</g>
</g>
<!-- Node1&#45;&gt;Node17 -->
<g id="edge29_Node000001_Node000017" class="edge">
<title>Node1&#45;&gt;Node17</title>
<g id="a_edge29_Node000001_Node000017"><a xlink:title=" ">
<path fill="none" stroke="#63b8ff" d="M782.25,-164.98C838.44,-155.65 928.57,-140.67 988.52,-130.71"/>
<polygon fill="#63b8ff" stroke="#63b8ff" points="989.32,-134.13 998.61,-129.04 988.17,-127.22 989.32,-134.13"/>
</a>
</g>
</g>
<!-- Node23 -->
<g id="Node000023" class="node">
<title>Node23</title>
<g id="a_Node000023"><a xlink:href="common_2view_8h.html" target="_top" xlink:title=" ">
<polygon fill="white" stroke="#666666" points="427.5,-129 284.5,-129 284.5,-110 427.5,-110 427.5,-129"/>
<text text-anchor="middle" x="356" y="-117" font-family="Helvetica,sans-Serif" font-size="10.00">webcface/common/view.h</text>
</a>
</g>
</g>
<!-- Node1&#45;&gt;Node23 -->
<g id="edge47_Node000001_Node000023" class="edge">
<title>Node1&#45;&gt;Node23</title>
<g id="a_edge47_Node000001_Node000023"><a xlink:title=" ">
<path fill="none" stroke="#63b8ff" d="M674.45,-165.51C608.24,-156.15 498.52,-140.64 426.74,-130.5"/>
<polygon fill="#63b8ff" stroke="#63b8ff" points="426.82,-126.97 416.43,-129.04 425.84,-133.91 426.82,-126.97"/>
</a>
</g>
</g>
<!-- Node24 -->
<g id="Node000024" class="node">
<title>Node24</title>
<g id="a_Node000024"><a xlink:href="common_2image_8h.html" target="_top" xlink:title=" ">
<polygon fill="white" stroke="#666666" points="1276,-74 1124,-74 1124,-55 1276,-55 1276,-74"/>
<text text-anchor="middle" x="1200" y="-62" font-family="Helvetica,sans-Serif" font-size="10.00">webcface/common/image.h</text>
</a>
</g>
</g>
<!-- Node1&#45;&gt;Node24 -->
<g id="edge52_Node000001_Node000024" class="edge">
<title>Node1&#45;&gt;Node24</title>
<g id="a_edge52_Node000001_Node000024"><a xlink:title=" ">
<path fill="none" stroke="#63b8ff" d="M787.86,-171.45C883.09,-167.32 1070.28,-155.95 1130,-129 1153.25,-118.51 1174.08,-97.34 1186.85,-82.33"/>
<polygon fill="#63b8ff" stroke="#63b8ff" points="1189.77,-84.29 1193.4,-74.33 1184.36,-79.85 1189.77,-84.29"/>
</a>
</g>
</g>
<!-- Node8&#45;&gt;Node4 -->
<g id="edge9_Node000008_Node000004" class="edge">
<title>Node8&#45;&gt;Node4</title>
<g id="a_edge9_Node000008_Node000004"><a xlink:title=" ">
<path fill="none" stroke="#63b8ff" d="M173.96,-109.86C153.3,-97.62 121.86,-74.56 138,-55 162.68,-25.09 278.23,-15.05 335.57,-11.87"/>
<polygon fill="#63b8ff" stroke="#63b8ff" points="336.08,-15.35 345.89,-11.34 335.72,-8.36 336.08,-15.35"/>
</a>
</g>
</g>
<!-- Node9 -->
<g id="Node000009" class="node">
<title>Node9</title>
<g id="a_Node000009"><a xlink:title=" ">
<polygon fill="#e0e0e0" stroke="#999999" points="678,-19 620,-19 620,0 678,0 678,-19"/>
<text text-anchor="middle" x="649" y="-7" font-family="Helvetica,sans-Serif" font-size="10.00">memory</text>
</a>
</g>
</g>
<!-- Node8&#45;&gt;Node9 -->
<g id="edge8_Node000008_Node000009" class="edge">
<title>Node8&#45;&gt;Node9</title>
<g id="a_edge8_Node000008_Node000009"><a xlink:title=" ">
<path fill="none" stroke="#63b8ff" d="M183.98,-109.9C175.37,-96.44 162.02,-70.36 176,-55 204.98,-23.16 501.34,-13.66 609.64,-11.23"/>
<polygon fill="#63b8ff" stroke="#63b8ff" points="609.9,-14.73 619.82,-11.01 609.75,-7.73 609.9,-14.73"/>
</a>
</g>
</g>
<!-- Node10 -->
<g id="Node000010" class="node">
<title>Node10</title>
<g id="a_Node000010"><a xlink:href="field__base_8h.html" target="_top" xlink:title=" ">
<polygon fill="white" stroke="#666666" points="339.5,-74 218.5,-74 218.5,-55 339.5,-55 339.5,-74"/>
<text text-anchor="middle" x="279" y="-62" font-family="Helvetica,sans-Serif" font-size="10.00">common/field_base.h</text>
</a>
</g>
</g>
<!-- Node8&#45;&gt;Node10 -->
<g id="edge10_Node000008_Node000010" class="edge">
<title>Node8&#45;&gt;Node10</title>
<g id="a_edge10_Node000008_Node000010"><a xlink:title=" ">
<path fill="none" stroke="#63b8ff" d="M204.3,-109.98C218.1,-101.77 239.24,-89.18 255.51,-79.49"/>
<polygon fill="#63b8ff" stroke="#63b8ff" points="257.64,-82.29 264.44,-74.17 254.06,-76.28 257.64,-82.29"/>
</a>
</g>
</g>
<!-- Node8&#45;&gt;Node11 -->
<g id="edge13_Node000008_Node000011" class="edge">
<title>Node8&#45;&gt;Node11</title>
<g id="a_edge13_Node000008_Node000011"><a xlink:title=" ">
<path fill="none" stroke="#63b8ff" d="M189.74,-109.86C189.85,-95.86 192.33,-68.42 209,-55 248.67,-23.08 601.46,-27.8 686.5,-18.31"/>
<polygon fill="#63b8ff" stroke="#63b8ff" points="687.06,-21.76 696.47,-16.9 686.08,-14.83 687.06,-21.76"/>
</a>
</g>
</g>
<!-- Node10&#45;&gt;Node4 -->
<g id="edge11_Node000010_Node000004" class="edge">
<title>Node10&#45;&gt;Node4</title>
<g id="a_edge11_Node000010_Node000004"><a xlink:title=" ">
<path fill="none" stroke="#63b8ff" d="M293.3,-54.98C307.1,-46.77 328.24,-34.18 344.51,-24.49"/>
<polygon fill="#63b8ff" stroke="#63b8ff" points="346.64,-27.29 353.44,-19.17 343.06,-21.28 346.64,-27.29"/>
</a>
</g>
</g>
<!-- Node10&#45;&gt;Node11 -->
<g id="edge12_Node000010_Node000011" class="edge">
<title>Node10&#45;&gt;Node11</title>
<g id="a_edge12_Node000010_Node000011"><a xlink:title=" ">
<path fill="none" stroke="#63b8ff" d="M339.63,-58.14C432.38,-49.75 606.27,-33.16 686.26,-18.74"/>
<polygon fill="#63b8ff" stroke="#63b8ff" points="687.28,-22.11 696.45,-16.81 685.98,-15.23 687.28,-22.11"/>
</a>
</g>
</g>
<!-- Node12&#45;&gt;Node3 -->
<g id="edge16_Node000012_Node000003" class="edge">
<title>Node12&#45;&gt;Node3</title>
<g id="a_edge16_Node000012_Node000003"><a xlink:title=" ">
<path fill="none" stroke="#63b8ff" d="M756.53,-109.98C707.06,-100.72 627.95,-85.9 574.77,-75.94"/>
<polygon fill="#63b8ff" stroke="#63b8ff" points="575.3,-72.48 564.83,-74.08 574.01,-79.36 575.3,-72.48"/>
</a>
</g>
</g>
<!-- Node12&#45;&gt;Node4 -->
<g id="edge15_Node000012_Node000004" class="edge">
<title>Node12&#45;&gt;Node4</title>
<g id="a_edge15_Node000012_Node000004"><a xlink:title=" ">
<path fill="none" stroke="#63b8ff" d="M757.53,-109.97C719.89,-102.22 664.76,-89.62 618,-74 597.8,-67.25 594.28,-61.5 574,-55 513.74,-35.68 440.88,-22.16 399.95,-15.41"/>
<polygon fill="#63b8ff" stroke="#63b8ff" points="400.45,-11.95 390.02,-13.81 399.33,-18.86 400.45,-11.95"/>
</a>
</g>
</g>
<!-- Node12&#45;&gt;Node5 -->
<g id="edge18_Node000012_Node000005" class="edge">
<title>Node12&#45;&gt;Node5</title>
<g id="a_edge18_Node000012_Node000005"><a xlink:title=" ">
<path fill="none" stroke="#63b8ff" d="M826.1,-109.98C850.88,-101.23 889.7,-87.51 917.69,-77.62"/>
<polygon fill="#63b8ff" stroke="#63b8ff" points="919.2,-80.8 927.46,-74.17 916.87,-74.2 919.2,-80.8"/>
</a>
</g>
</g>
<!-- Node12&#45;&gt;Node7 -->
<g id="edge22_Node000012_Node000007" class="edge">
<title>Node12&#45;&gt;Node7</title>
<g id="a_edge22_Node000012_Node000007"><a xlink:title=" ">
<path fill="none" stroke="#63b8ff" d="M871.66,-114.98C997.17,-108.28 1256.5,-92.67 1345,-74 1401.24,-62.14 1463.97,-37.81 1499.44,-22.95"/>
<polygon fill="#63b8ff" stroke="#63b8ff" points="1500.85,-26.15 1508.69,-19.02 1498.12,-19.7 1500.85,-26.15"/>
</a>
</g>
</g>
<!-- Node12&#45;&gt;Node9 -->
<g id="edge19_Node000012_Node000009" class="edge">
<title>Node12&#45;&gt;Node9</title>
<g id="a_edge19_Node000012_Node000009"><a xlink:title=" ">
<path fill="none" stroke="#63b8ff" d="M782.77,-109.85C765.43,-101.67 739.57,-88.52 719,-74 698.6,-59.61 677.73,-39.9 664.14,-26.27"/>
<polygon fill="#63b8ff" stroke="#63b8ff" points="666.55,-23.72 657.05,-19.03 661.55,-28.62 666.55,-23.72"/>
</a>
</g>
</g>
<!-- Node12&#45;&gt;Node11 -->
<g id="edge27_Node000012_Node000011" class="edge">
<title>Node12&#45;&gt;Node11</title>
<g id="a_edge27_Node000012_Node000011"><a xlink:title=" ">
<path fill="none" stroke="#63b8ff" d="M780.1,-109.95C764.38,-102.7 743.94,-90.78 732,-74 722.66,-60.87 719.07,-42.74 717.72,-29.21"/>
<polygon fill="#63b8ff" stroke="#63b8ff" points="721.21,-28.88 717.04,-19.14 714.22,-29.35 721.21,-28.88"/>
</a>
</g>
</g>
<!-- Node13 -->
<g id="Node000013" class="node">
<title>Node13</title>
<g id="a_Node000013"><a xlink:title=" ">
<polygon fill="#e0e0e0" stroke="#999999" points="848.5,-19 765.5,-19 765.5,0 848.5,0 848.5,-19"/>
<text text-anchor="middle" x="807" y="-7" font-family="Helvetica,sans-Serif" font-size="10.00">initializer_list</text>
</a>
</g>
</g>
<!-- Node12&#45;&gt;Node13 -->
<g id="edge17_Node000012_Node000013" class="edge">
<title>Node12&#45;&gt;Node13</title>
<g id="a_edge17_Node000012_Node000013"><a xlink:title=" ">
<path fill="none" stroke="#63b8ff" d="M812.44,-109.87C821.42,-101.7 833.74,-88.55 839,-74 845.06,-57.24 834.11,-39.19 823.4,-26.63"/>
<polygon fill="#63b8ff" stroke="#63b8ff" points="825.94,-24.22 816.59,-19.24 820.79,-28.96 825.94,-24.22"/>
</a>
</g>
</g>
<!-- Node14 -->
<g id="Node000014" class="node">
<title>Node14</title>
<g id="a_Node000014"><a xlink:title=" ">
<polygon fill="#e0e0e0" stroke="#999999" points="919.5,-19 872.5,-19 872.5,0 919.5,0 919.5,-19"/>
<text text-anchor="middle" x="896" y="-7" font-family="Helvetica,sans-Serif" font-size="10.00">vector</text>
</a>
</g>
</g>
<!-- Node12&#45;&gt;Node14 -->
<g id="edge20_Node000012_Node000014" class="edge">
<title>Node12&#45;&gt;Node14</title>
<g id="a_edge20_Node000012_Node000014"><a xlink:title=" ">
<path fill="none" stroke="#63b8ff" d="M813.71,-109.72C824.57,-101.25 840.85,-87.73 853,-74 865.78,-59.56 877.86,-41.13 885.95,-27.85"/>
<polygon fill="#63b8ff" stroke="#63b8ff" points="888.98,-29.6 891.08,-19.22 882.96,-26.03 888.98,-29.6"/>
</a>
</g>
</g>
<!-- Node15 -->
<g id="Node000015" class="node">
<title>Node15</title>
<g id="a_Node000015"><a xlink:title=" ">
<polygon fill="#e0e0e0" stroke="#999999" points="1067.5,-74 998.5,-74 998.5,-55 1067.5,-55 1067.5,-74"/>
<text text-anchor="middle" x="1033" y="-62" font-family="Helvetica,sans-Serif" font-size="10.00">type_traits</text>
</a>
</g>
</g>
<!-- Node12&#45;&gt;Node15 -->
<g id="edge21_Node000012_Node000015" class="edge">
<title>Node12&#45;&gt;Node15</title>
<g id="a_edge21_Node000012_Node000015"><a xlink:title=" ">
<path fill="none" stroke="#63b8ff" d="M839.11,-109.98C879.73,-100.67 944.83,-85.73 988.25,-75.77"/>
<polygon fill="#63b8ff" stroke="#63b8ff" points="989.28,-79.12 998.25,-73.47 987.72,-72.3 989.28,-79.12"/>
</a>
</g>
</g>
<!-- Node16 -->
<g id="Node000016" class="node">
<title>Node16</title>
<g id="a_Node000016"><a xlink:href="vector_8h.html" target="_top" xlink:title=" ">
<polygon fill="white" stroke="#666666" points="830,-74 774,-74 774,-55 830,-55 830,-74"/>
<text text-anchor="middle" x="802" y="-62" font-family="Helvetica,sans-Serif" font-size="10.00">vector.h</text>
</a>
</g>
</g>
<!-- Node12&#45;&gt;Node16 -->
<g id="edge23_Node000012_Node000016" class="edge">
<title>Node12&#45;&gt;Node16</title>
<g id="a_edge23_Node000012_Node000016"><a xlink:title=" ">
<path fill="none" stroke="#63b8ff" d="M802,-109.75C802,-102.8 802,-92.85 802,-84.13"/>
<polygon fill="#63b8ff" stroke="#63b8ff" points="805.5,-84.09 802,-74.09 798.5,-84.09 805.5,-84.09"/>
</a>
</g>
</g>
<!-- Node16&#45;&gt;Node11 -->
<g id="edge26_Node000016_Node000011" class="edge">
<title>Node16&#45;&gt;Node11</title>
<g id="a_edge26_Node000016_Node000011"><a xlink:title=" ">
<path fill="none" stroke="#63b8ff" d="M788.34,-54.98C775.16,-46.77 754.97,-34.18 739.43,-24.49"/>
<polygon fill="#63b8ff" stroke="#63b8ff" points="741.24,-21.49 730.91,-19.17 737.54,-27.43 741.24,-21.49"/>
</a>
</g>
</g>
<!-- Node16&#45;&gt;Node13 -->
<g id="edge25_Node000016_Node000013" class="edge">
<title>Node16&#45;&gt;Node13</title>
<g id="a_edge25_Node000016_Node000013"><a xlink:title=" ">
<path fill="none" stroke="#63b8ff" d="M802.83,-54.75C803.48,-47.8 804.42,-37.85 805.24,-29.13"/>
<polygon fill="#63b8ff" stroke="#63b8ff" points="808.73,-29.37 806.19,-19.09 801.77,-28.72 808.73,-29.37"/>
</a>
</g>
</g>
<!-- Node16&#45;&gt;Node14 -->
<g id="edge24_Node000016_Node000014" class="edge">
<title>Node16&#45;&gt;Node14</title>
<g id="a_edge24_Node000016_Node000014"><a xlink:title=" ">
<path fill="none" stroke="#63b8ff" d="M817.1,-54.98C831.82,-46.69 854.42,-33.94 871.67,-24.22"/>
<polygon fill="#63b8ff" stroke="#63b8ff" points="873.63,-27.13 880.62,-19.17 870.19,-21.03 873.63,-27.13"/>
</a>
</g>
</g>
<!-- Node17&#45;&gt;Node4 -->
<g id="edge34_Node000017_Node000004" class="edge">
<title>Node17&#45;&gt;Node4</title>
<g id="a_edge34_Node000017_Node000004"><a xlink:title=" ">
<path fill="none" stroke="#63b8ff" d="M986.79,-109.97C923.89,-101.37 824.67,-87.46 739,-74 613.34,-54.26 464.27,-27.82 400.05,-16.29"/>
<polygon fill="#63b8ff" stroke="#63b8ff" points="400.59,-12.83 390.13,-14.51 399.35,-19.72 400.59,-12.83"/>
</a>
</g>
</g>
<!-- Node17&#45;&gt;Node5 -->
<g id="edge33_Node000017_Node000005" class="edge">
<title>Node17&#45;&gt;Node5</title>
<g id="a_edge33_Node000017_Node000005"><a xlink:title=" ">
<path fill="none" stroke="#63b8ff" d="M1034.25,-109.98C1018.77,-101.61 994.91,-88.7 976.86,-78.95"/>
<polygon fill="#63b8ff" stroke="#63b8ff" points="978.49,-75.85 968.03,-74.17 975.16,-82.01 978.49,-75.85"/>
</a>
</g>
</g>
<!-- Node17&#45;&gt;Node6 -->
<g id="edge32_Node000017_Node000006" class="edge">
<title>Node17&#45;&gt;Node6</title>
<g id="a_edge32_Node000017_Node000006"><a xlink:title=" ">
<path fill="none" stroke="#63b8ff" d="M1121.34,-112.15C1202.22,-104.6 1337.91,-90.87 1454,-74 1455.46,-73.79 1456.95,-73.56 1458.45,-73.33"/>
<polygon fill="#63b8ff" stroke="#63b8ff" points="1459.13,-76.77 1468.43,-71.69 1458,-69.86 1459.13,-76.77"/>
</a>
</g>
</g>
<!-- Node17&#45;&gt;Node11 -->
<g id="edge46_Node000017_Node000011" class="edge">
<title>Node17&#45;&gt;Node11</title>
<g id="a_edge46_Node000017_Node000011"><a xlink:title=" ">
<path fill="none" stroke="#63b8ff" d="M978.69,-113.47C906.31,-107.3 800.08,-94.99 765,-74 747.08,-63.28 733.59,-43.08 725.54,-28.34"/>
<polygon fill="#63b8ff" stroke="#63b8ff" points="728.53,-26.49 720.86,-19.19 722.3,-29.68 728.53,-26.49"/>
</a>
</g>
</g>
<!-- Node17&#45;&gt;Node14 -->
<g id="edge30_Node000017_Node000014" class="edge">
<title>Node17&#45;&gt;Node14</title>
<g id="a_edge30_Node000017_Node000014"><a xlink:title=" ">
<path fill="none" stroke="#63b8ff" d="M1058.84,-109.95C1071.14,-97.01 1090.47,-72.14 1077,-55 1037.05,-4.17 998.31,-32.59 929.67,-18.89"/>
<polygon fill="#63b8ff" stroke="#63b8ff" points="930.31,-15.45 919.78,-16.67 928.77,-22.28 930.31,-15.45"/>
</a>
</g>
</g>
<!-- Node17&#45;&gt;Node15 -->
<g id="edge31_Node000017_Node000015" class="edge">
<title>Node17&#45;&gt;Node15</title>
<g id="a_edge31_Node000017_Node000015"><a xlink:title=" ">
<path fill="none" stroke="#63b8ff" d="M1047.19,-109.75C1044.94,-102.72 1041.7,-92.62 1038.88,-83.84"/>
<polygon fill="#63b8ff" stroke="#63b8ff" points="1042.14,-82.54 1035.75,-74.09 1035.48,-84.68 1042.14,-82.54"/>
</a>
</g>
</g>
<!-- Node18 -->
<g id="Node000018" class="node">
<title>Node18</title>
<g id="a_Node000018"><a xlink:title=" ">
<polygon fill="#e0e0e0" stroke="#999999" points="1479.5,-19 1422.5,-19 1422.5,0 1479.5,0 1479.5,-19"/>
<text text-anchor="middle" x="1451" y="-7" font-family="Helvetica,sans-Serif" font-size="10.00">ostream</text>
</a>
</g>
</g>
<!-- Node17&#45;&gt;Node18 -->
<g id="edge35_Node000017_Node000018" class="edge">
<title>Node17&#45;&gt;Node18</title>
<g id="a_edge35_Node000017_Node000018"><a xlink:title=" ">
<path fill="none" stroke="#63b8ff" d="M1121.3,-118.63C1187.37,-116.43 1287.18,-107.13 1367,-74 1393.74,-62.9 1419.55,-41.23 1435.34,-26.31"/>
<polygon fill="#63b8ff" stroke="#63b8ff" points="1437.91,-28.7 1442.64,-19.22 1433.03,-23.68 1437.91,-28.7"/>
</a>
</g>
</g>
<!-- Node19 -->
<g id="Node000019" class="node">
<title>Node19</title>
<g id="a_Node000019"><a xlink:title=" ">
<polygon fill="#e0e0e0" stroke="#999999" points="1404,-19 1354,-19 1354,0 1404,0 1404,-19"/>
<text text-anchor="middle" x="1379" y="-7" font-family="Helvetica,sans-Serif" font-size="10.00">cstdint</text>
</a>
</g>
</g>
<!-- Node17&#45;&gt;Node19 -->
<g id="edge36_Node000017_Node000019" class="edge">
<title>Node17&#45;&gt;Node19</title>
<g id="a_edge36_Node000017_Node000019"><a xlink:title=" ">
<path fill="none" stroke="#63b8ff" d="M1121.06,-115.03C1196.6,-110.1 1309.93,-98.75 1345,-74 1360.14,-63.31 1369.15,-43.72 1374.05,-29.11"/>
<polygon fill="#63b8ff" stroke="#63b8ff" points="1377.52,-29.72 1377.03,-19.14 1370.81,-27.72 1377.52,-29.72"/>
</a>
</g>
</g>
<!-- Node20 -->
<g id="Node000020" class="node">
<title>Node20</title>
<g id="a_Node000020"><a xlink:href="val_8h.html" target="_top" xlink:title=" ">
<polygon fill="white" stroke="#666666" points="1335.5,-74 1294.5,-74 1294.5,-55 1335.5,-55 1335.5,-74"/>
<text text-anchor="middle" x="1315" y="-62" font-family="Helvetica,sans-Serif" font-size="10.00">val.h</text>
</a>
</g>
</g>
<!-- Node17&#45;&gt;Node20 -->
<g id="edge37_Node000017_Node000020" class="edge">
<title>Node17&#45;&gt;Node20</title>
<g id="a_edge37_Node000017_Node000020"><a xlink:title=" ">
<path fill="none" stroke="#63b8ff" d="M1102.55,-109.93C1148.12,-102.18 1216.03,-89.9 1284.33,-73.97"/>
<polygon fill="#63b8ff" stroke="#63b8ff" points="1285.48,-77.3 1294.41,-71.6 1283.87,-70.48 1285.48,-77.3"/>
</a>
</g>
</g>
<!-- Node20&#45;&gt;Node4 -->
<g id="edge38_Node000020_Node000004" class="edge">
<title>Node20&#45;&gt;Node4</title>
<g id="a_edge38_Node000020_Node000004"><a xlink:title=" ">
<path fill="none" stroke="#63b8ff" d="M1294.48,-57.02C1291.33,-56.22 1288.1,-55.51 1285,-55 1196.39,-40.49 553.26,-17.05 400.49,-11.64"/>
<polygon fill="#63b8ff" stroke="#63b8ff" points="400.47,-8.13 390.35,-11.28 400.23,-15.13 400.47,-8.13"/>
</a>
</g>
</g>
<!-- Node20&#45;&gt;Node7 -->
<g id="edge41_Node000020_Node000007" class="edge">
<title>Node20&#45;&gt;Node7</title>
<g id="a_edge41_Node000020_Node000007"><a xlink:title=" ">
<path fill="none" stroke="#63b8ff" d="M1335.81,-58.32C1371.04,-49.56 1442.99,-31.65 1488.17,-20.41"/>
<polygon fill="#63b8ff" stroke="#63b8ff" points="1489.08,-23.79 1497.94,-17.98 1487.39,-17 1489.08,-23.79"/>
</a>
</g>
</g>
<!-- Node20&#45;&gt;Node11 -->
<g id="edge45_Node000020_Node000011" class="edge">
<title>Node20&#45;&gt;Node11</title>
<g id="a_edge45_Node000020_Node000011"><a xlink:title=" ">
<path fill="none" stroke="#63b8ff" d="M1294.47,-57.08C1291.32,-56.27 1288.09,-55.54 1285,-55 1053.26,-14.72 989.95,-51.53 757,-19 753.93,-18.57 750.75,-18.04 747.58,-17.46"/>
<polygon fill="#63b8ff" stroke="#63b8ff" points="748.15,-14.01 737.66,-15.47 746.78,-20.87 748.15,-14.01"/>
</a>
</g>
</g>
<!-- Node20&#45;&gt;Node14 -->
<g id="edge39_Node000020_Node000014" class="edge">
<title>Node20&#45;&gt;Node14</title>
<g id="a_edge39_Node000020_Node000014"><a xlink:title=" ">
<path fill="none" stroke="#63b8ff" d="M1294.46,-57.17C1291.31,-56.35 1288.08,-55.59 1285,-55 1131.99,-25.82 1087.38,-46.04 929.75,-18.83"/>
<polygon fill="#63b8ff" stroke="#63b8ff" points="930.15,-15.35 919.7,-17.06 928.94,-22.25 930.15,-15.35"/>
</a>
</g>
</g>
<!-- Node20&#45;&gt;Node18 -->
<g id="edge44_Node000020_Node000018" class="edge">
<title>Node20&#45;&gt;Node18</title>
<g id="a_edge44_Node000020_Node000018"><a xlink:title=" ">
<path fill="none" stroke="#63b8ff" d="M1335.66,-55.45C1357.93,-46.77 1393.65,-32.85 1419.44,-22.8"/>
<polygon fill="#63b8ff" stroke="#63b8ff" points="1420.75,-26.05 1428.79,-19.15 1418.2,-19.52 1420.75,-26.05"/>
</a>
</g>
</g>
<!-- Node20&#45;&gt;Node19 -->
<g id="edge43_Node000020_Node000019" class="edge">
<title>Node20&#45;&gt;Node19</title>
<g id="a_edge43_Node000020_Node000019"><a xlink:title=" ">
<path fill="none" stroke="#63b8ff" d="M1325.28,-54.98C1334.84,-47.07 1349.28,-35.11 1360.78,-25.58"/>
<polygon fill="#63b8ff" stroke="#63b8ff" points="1363.06,-28.24 1368.53,-19.17 1358.6,-22.85 1363.06,-28.24"/>
</a>
</g>
</g>
<!-- Node21 -->
<g id="Node000021" class="node">
<title>Node21</title>
<g id="a_Node000021"><a xlink:title=" ">
<polygon fill="#e0e0e0" stroke="#999999" points="1335.5,-19 1294.5,-19 1294.5,0 1335.5,0 1335.5,-19"/>
<text text-anchor="middle" x="1315" y="-7" font-family="Helvetica,sans-Serif" font-size="10.00">tuple</text>
</a>
</g>
</g>
<!-- Node20&#45;&gt;Node21 -->
<g id="edge40_Node000020_Node000021" class="edge">
<title>Node20&#45;&gt;Node21</title>
<g id="a_edge40_Node000020_Node000021"><a xlink:title=" ">
<path fill="none" stroke="#63b8ff" d="M1315,-54.75C1315,-47.8 1315,-37.85 1315,-29.13"/>
<polygon fill="#63b8ff" stroke="#63b8ff" points="1318.5,-29.09 1315,-19.09 1311.5,-29.09 1318.5,-29.09"/>
</a>
</g>
</g>
<!-- Node22 -->
<g id="Node000022" class="node">
<title>Node22</title>
<g id="a_Node000022"><a xlink:title=" ">
<polygon fill="#e0e0e0" stroke="#999999" points="1276.5,-19 1211.5,-19 1211.5,0 1276.5,0 1276.5,-19"/>
<text text-anchor="middle" x="1244" y="-7" font-family="Helvetica,sans-Serif" font-size="10.00">stdexcept</text>
</a>
</g>
</g>
<!-- Node20&#45;&gt;Node22 -->
<g id="edge42_Node000020_Node000022" class="edge">
<title>Node20&#45;&gt;Node22</title>
<g id="a_edge42_Node000020_Node000022"><a xlink:title=" ">
<path fill="none" stroke="#63b8ff" d="M1303.59,-54.98C1292.89,-47 1276.66,-34.88 1263.84,-25.31"/>
<polygon fill="#63b8ff" stroke="#63b8ff" points="1265.72,-22.35 1255.61,-19.17 1261.53,-27.96 1265.72,-22.35"/>
</a>
</g>
</g>
<!-- Node23&#45;&gt;Node4 -->
<g id="edge48_Node000023_Node000004" class="edge">
<title>Node23&#45;&gt;Node4</title>
<g id="a_edge48_Node000023_Node000004"><a xlink:title=" ">
<path fill="none" stroke="#63b8ff" d="M356.98,-109.66C358.93,-92.17 363.3,-52.8 365.91,-29.27"/>
<polygon fill="#63b8ff" stroke="#63b8ff" points="369.41,-29.48 367.04,-19.16 362.45,-28.71 369.41,-29.48"/>
</a>
</g>
</g>
<!-- Node23&#45;&gt;Node5 -->
<g id="edge49_Node000023_Node000005" class="edge">
<title>Node23&#45;&gt;Node5</title>
<g id="a_edge49_Node000023_Node000005"><a xlink:title=" ">
<path fill="none" stroke="#63b8ff" d="M427.6,-112.13C554.72,-100.83 815.69,-77.62 913.69,-68.91"/>
<polygon fill="#63b8ff" stroke="#63b8ff" points="914.09,-72.39 923.74,-68.01 913.47,-65.41 914.09,-72.39"/>
</a>
</g>
</g>
<!-- Node23&#45;&gt;Node10 -->
<g id="edge50_Node000023_Node000010" class="edge">
<title>Node23&#45;&gt;Node10</title>
<g id="a_edge50_Node000023_Node000010"><a xlink:title=" ">
<path fill="none" stroke="#63b8ff" d="M343.63,-109.98C331.91,-101.92 314.08,-89.65 300.11,-80.03"/>
<polygon fill="#63b8ff" stroke="#63b8ff" points="301.82,-76.96 291.6,-74.17 297.85,-82.72 301.82,-76.96"/>
</a>
</g>
</g>
<!-- Node23&#45;&gt;Node11 -->
<g id="edge51_Node000023_Node000011" class="edge">
<title>Node23&#45;&gt;Node11</title>
<g id="a_edge51_Node000023_Node000011"><a xlink:title=" ">
<path fill="none" stroke="#63b8ff" d="M363.14,-109.76C375.24,-95.61 401.3,-67.96 430,-55 532.24,-8.83 571.96,-40.91 686.59,-18.73"/>
<polygon fill="#63b8ff" stroke="#63b8ff" points="687.33,-22.15 696.44,-16.73 685.94,-15.29 687.33,-22.15"/>
</a>
</g>
</g>
<!-- Node24&#45;&gt;Node9 -->
<g id="edge54_Node000024_Node000009" class="edge">
<title>Node24&#45;&gt;Node9</title>
<g id="a_edge54_Node000024_Node000009"><a xlink:title=" ">
<path fill="none" stroke="#63b8ff" d="M1123.51,-58.06C1006.17,-49.52 786,-32.66 688.47,-18.81"/>
<polygon fill="#63b8ff" stroke="#63b8ff" points="688.72,-15.31 678.31,-17.31 687.69,-22.23 688.72,-15.31"/>
</a>
</g>
</g>
<!-- Node24&#45;&gt;Node11 -->
<g id="edge57_Node000024_Node000011" class="edge">
<title>Node24&#45;&gt;Node11</title>
<g id="a_edge57_Node000024_Node000011"><a xlink:title=" ">
<path fill="none" stroke="#63b8ff" d="M1123.64,-58.38C1035.1,-51.85 884.92,-38.96 757,-19 753.94,-18.52 750.77,-17.96 747.6,-17.36"/>
<polygon fill="#63b8ff" stroke="#63b8ff" points="748.18,-13.91 737.68,-15.34 746.78,-20.77 748.18,-13.91"/>
</a>
</g>
</g>
<!-- Node24&#45;&gt;Node14 -->
<g id="edge53_Node000024_Node000014" class="edge">
<title>Node24&#45;&gt;Node14</title>
<g id="a_edge53_Node000024_Node000014"><a xlink:title=" ">
<path fill="none" stroke="#63b8ff" d="M1138.36,-54.98C1085.5,-47.31 1007.13,-35.08 929.67,-18.97"/>
<polygon fill="#63b8ff" stroke="#63b8ff" points="930.24,-15.52 919.73,-16.88 928.8,-22.37 930.24,-15.52"/>
</a>
</g>
</g>
<!-- Node24&#45;&gt;Node19 -->
<g id="edge55_Node000024_Node000019" class="edge">
<title>Node24&#45;&gt;Node19</title>
<g id="a_edge55_Node000024_Node000019"><a xlink:title=" ">
<path fill="none" stroke="#63b8ff" d="M1228.76,-54.98C1260.11,-45.7 1310.27,-30.85 1343.91,-20.89"/>
<polygon fill="#63b8ff" stroke="#63b8ff" points="1345.19,-24.16 1353.78,-17.97 1343.2,-17.45 1345.19,-24.16"/>
</a>
</g>
</g>
<!-- Node24&#45;&gt;Node22 -->
<g id="edge56_Node000024_Node000022" class="edge">
<title>Node24&#45;&gt;Node22</title>
<g id="a_edge56_Node000024_Node000022"><a xlink:title=" ">
<path fill="none" stroke="#63b8ff" d="M1207.27,-54.75C1213.54,-47.18 1222.79,-36.05 1230.43,-26.84"/>
<polygon fill="#63b8ff" stroke="#63b8ff" points="1233.17,-29.02 1236.87,-19.09 1227.79,-24.55 1233.17,-29.02"/>
</a>
</g>
</g>
<!-- Node25 -->
<g id="Node000025" class="node">
<title>Node25</title>
<g id="a_Node000025"><a xlink:title=" ">
<polygon fill="#e0e0e0" stroke="#999999" points="1040.5,-19 937.5,-19 937.5,0 1040.5,0 1040.5,-19"/>
<text text-anchor="middle" x="989" y="-7" font-family="Helvetica,sans-Serif" font-size="10.00">opencv2/core.hpp</text>
</a>
</g>
</g>
<!-- Node24&#45;&gt;Node25 -->
<g id="edge58_Node000024_Node000025" class="edge">
<title>Node24&#45;&gt;Node25</title>
<g id="a_edge58_Node000024_Node000025"><a xlink:title=" ">
<path fill="none" stroke="#63b8ff" d="M1166.1,-54.98C1129.98,-45.91 1072.68,-31.52 1033.08,-21.57"/>
<polygon fill="#63b8ff" stroke="#63b8ff" points="1033.72,-18.12 1023.17,-19.08 1032.01,-24.91 1033.72,-18.12"/>
</a>
</g>
</g>
<!-- Node26 -->
<g id="Node000026" class="node">
<title>Node26</title>
<g id="a_Node000026"><a xlink:title=" ">
<polygon fill="#e0e0e0" stroke="#999999" points="1193,-19 1059,-19 1059,0 1193,0 1193,-19"/>
<text text-anchor="middle" x="1126" y="-7" font-family="Helvetica,sans-Serif" font-size="10.00">opencv2/imgcodecs.hpp</text>
</a>
</g>
</g>
<!-- Node24&#45;&gt;Node26 -->
<g id="edge59_Node000024_Node000026" class="edge">
<title>Node24&#45;&gt;Node26</title>
<g id="a_edge59_Node000024_Node000026"><a xlink:title=" ">
<path fill="none" stroke="#63b8ff" d="M1188.11,-54.98C1176.85,-46.92 1159.71,-34.65 1146.29,-25.03"/>
<polygon fill="#63b8ff" stroke="#63b8ff" points="1148.27,-22.15 1138.11,-19.17 1144.2,-27.84 1148.27,-22.15"/>
</a>
</g>
</g>
</g>
</svg>
