<?xml version="1.0" encoding="UTF-8" standalone="no"?>
<!DOCTYPE svg PUBLIC "-//W3C//DTD SVG 1.1//EN"
 "http://www.w3.org/Graphics/SVG/1.1/DTD/svg11.dtd">
<!-- Generated by graphviz version 2.43.0 (0)
 -->
<!-- Title: client/include/webcface/internal/data_store2.h Pages: 1 -->
<svg width="1061pt" height="269pt"
 viewBox="0.00 0.00 1060.50 269.00" xmlns="http://www.w3.org/2000/svg" xmlns:xlink="http://www.w3.org/1999/xlink">
<g id="graph0" class="graph" transform="scale(1 1) rotate(0) translate(4 265)">
<title>client/include/webcface/internal/data_store2.h</title>
<!-- Node1 -->
<g id="Node000001" class="node">
<title>Node1</title>
<g id="a_Node000001"><a xlink:title=" ">
<polygon fill="#999999" stroke="#666666" points="565.5,-261 434.5,-261 434.5,-231 565.5,-231 565.5,-261"/>
<text text-anchor="start" x="442.5" y="-249" font-family="Helvetica,sans-Serif" font-size="10.00">client/include/webcface</text>
<text text-anchor="middle" x="500" y="-238" font-family="Helvetica,sans-Serif" font-size="10.00">/internal/data_store2.h</text>
</a>
</g>
</g>
<!-- Node2 -->
<g id="Node000002" class="node">
<title>Node2</title>
<g id="a_Node000002"><a xlink:title=" ">
<polygon fill="#e0e0e0" stroke="#999999" points="367.5,-195 320.5,-195 320.5,-176 367.5,-176 367.5,-195"/>
<text text-anchor="middle" x="344" y="-183" font-family="Helvetica,sans-Serif" font-size="10.00">deque</text>
</a>
</g>
</g>
<!-- Node1&#45;&gt;Node2 -->
<g id="edge1_Node000001_Node000002" class="edge">
<title>Node1&#45;&gt;Node2</title>
<g id="a_edge1_Node000001_Node000002"><a xlink:title=" ">
<path fill="none" stroke="#63b8ff" d="M462.63,-230.99C436.37,-221.14 401.59,-208.1 376.48,-198.68"/>
<polygon fill="#63b8ff" stroke="#63b8ff" points="377.63,-195.37 367.04,-195.14 375.17,-201.93 377.63,-195.37"/>
</a>
</g>
</g>
<!-- Node3 -->
<g id="Node000003" class="node">
<title>Node3</title>
<g id="a_Node000003"><a xlink:title=" ">
<polygon fill="#e0e0e0" stroke="#999999" points="434,-195 386,-195 386,-176 434,-176 434,-195"/>
<text text-anchor="middle" x="410" y="-183" font-family="Helvetica,sans-Serif" font-size="10.00">mutex</text>
</a>
</g>
</g>
<!-- Node1&#45;&gt;Node3 -->
<g id="edge2_Node000001_Node000003" class="edge">
<title>Node1&#45;&gt;Node3</title>
<g id="a_edge2_Node000001_Node000003"><a xlink:title=" ">
<path fill="none" stroke="#63b8ff" d="M478.21,-230.84C464.13,-221.68 445.87,-209.82 431.79,-200.66"/>
<polygon fill="#63b8ff" stroke="#63b8ff" points="433.51,-197.61 423.22,-195.09 429.7,-203.48 433.51,-197.61"/>
</a>
</g>
</g>
<!-- Node4 -->
<g id="Node000004" class="node">
<title>Node4</title>
<g id="a_Node000004"><a xlink:title=" ">
<polygon fill="#e0e0e0" stroke="#999999" points="472,-134.5 416,-134.5 416,-115.5 472,-115.5 472,-134.5"/>
<text text-anchor="middle" x="444" y="-122.5" font-family="Helvetica,sans-Serif" font-size="10.00">optional</text>
</a>
</g>
</g>
<!-- Node1&#45;&gt;Node4 -->
<g id="edge3_Node000001_Node000004" class="edge">
<title>Node1&#45;&gt;Node4</title>
<g id="a_edge3_Node000001_Node000004"><a xlink:title=" ">
<path fill="none" stroke="#63b8ff" d="M496.15,-230.87C492.02,-216.64 484.86,-194.25 476,-176 470.46,-164.6 462.86,-152.61 456.45,-143.23"/>
<polygon fill="#63b8ff" stroke="#63b8ff" points="459.18,-141.02 450.57,-134.84 453.45,-145.04 459.18,-141.02"/>
</a>
</g>
</g>
<!-- Node5 -->
<g id="Node000005" class="node">
<title>Node5</title>
<g id="a_Node000005"><a xlink:href="map_8h.html" target="_top" xlink:title=" ">
<polygon fill="white" stroke="#666666" points="228.5,-140 79.5,-140 79.5,-110 228.5,-110 228.5,-140"/>
<text text-anchor="start" x="87.5" y="-128" font-family="Helvetica,sans-Serif" font-size="10.00">webcface/common/internal</text>
<text text-anchor="middle" x="154" y="-117" font-family="Helvetica,sans-Serif" font-size="10.00">/map.h</text>
</a>
</g>
</g>
<!-- Node1&#45;&gt;Node5 -->
<g id="edge4_Node000001_Node000005" class="edge">
<title>Node1&#45;&gt;Node5</title>
<g id="a_edge4_Node000001_Node000005"><a xlink:title=" ">
<path fill="none" stroke="#63b8ff" d="M492.43,-230.79C483.07,-214.72 465.58,-189.1 443,-176 409.04,-156.29 311.08,-142.18 238.58,-134.08"/>
<polygon fill="#63b8ff" stroke="#63b8ff" points="238.85,-130.59 228.53,-132.97 238.09,-137.54 238.85,-130.59"/>
</a>
</g>
</g>
<!-- Node13 -->
<g id="Node000013" class="node">
<title>Node13</title>
<g id="a_Node000013"><a xlink:href="field_8h.html" target="_top" xlink:title=" ">
<polygon fill="white" stroke="#666666" points="586,-134.5 490,-134.5 490,-115.5 586,-115.5 586,-134.5"/>
<text text-anchor="middle" x="538" y="-122.5" font-family="Helvetica,sans-Serif" font-size="10.00">webcface/field.h</text>
</a>
</g>
</g>
<!-- Node1&#45;&gt;Node13 -->
<g id="edge13_Node000001_Node000013" class="edge">
<title>Node1&#45;&gt;Node13</title>
<g id="a_edge13_Node000001_Node000013"><a xlink:title=" ">
<path fill="none" stroke="#63b8ff" d="M504.51,-230.88C511.4,-209.31 524.54,-168.15 532.15,-144.31"/>
<polygon fill="#63b8ff" stroke="#63b8ff" points="535.51,-145.3 535.22,-134.71 528.84,-143.17 535.51,-145.3"/>
</a>
</g>
</g>
<!-- Node17 -->
<g id="Node000017" class="node">
<title>Node17</title>
<g id="a_Node000017"><a xlink:href="client_2include_2webcface_2log_8h.html" target="_top" xlink:title=" ">
<polygon fill="white" stroke="#666666" points="659,-195 569,-195 569,-176 659,-176 659,-195"/>
<text text-anchor="middle" x="614" y="-183" font-family="Helvetica,sans-Serif" font-size="10.00">webcface/log.h</text>
</a>
</g>
</g>
<!-- Node1&#45;&gt;Node17 -->
<g id="edge23_Node000001_Node000017" class="edge">
<title>Node1&#45;&gt;Node17</title>
<g id="a_edge23_Node000001_Node000017"><a xlink:title=" ">
<path fill="none" stroke="#63b8ff" d="M527.31,-230.99C545.65,-221.58 569.68,-209.24 587.79,-199.95"/>
<polygon fill="#63b8ff" stroke="#63b8ff" points="589.87,-202.82 597.16,-195.14 586.67,-196.59 589.87,-202.82"/>
</a>
</g>
</g>
<!-- Node20 -->
<g id="Node000020" class="node">
<title>Node20</title>
<g id="a_Node000020"><a xlink:href="common_2val__adaptor_8h.html" target="_top" xlink:title=" ">
<polygon fill="white" stroke="#666666" points="959.5,-140 832.5,-140 832.5,-110 959.5,-110 959.5,-140"/>
<text text-anchor="start" x="840.5" y="-128" font-family="Helvetica,sans-Serif" font-size="10.00">webcface/common/val</text>
<text text-anchor="middle" x="896" y="-117" font-family="Helvetica,sans-Serif" font-size="10.00">_adaptor.h</text>
</a>
</g>
</g>
<!-- Node1&#45;&gt;Node20 -->
<g id="edge30_Node000001_Node000020" class="edge">
<title>Node1&#45;&gt;Node20</title>
<g id="a_edge30_Node000001_Node000020"><a xlink:title=" ">
<path fill="none" stroke="#63b8ff" d="M547.45,-230.94C581.11,-220.95 627.34,-207.2 668,-195 726.68,-177.39 793.79,-157.06 839.93,-143.05"/>
<polygon fill="#63b8ff" stroke="#63b8ff" points="841.18,-146.33 849.73,-140.07 839.15,-139.63 841.18,-146.33"/>
</a>
</g>
</g>
<!-- Node6 -->
<g id="Node000006" class="node">
<title>Node6</title>
<g id="a_Node000006"><a xlink:title=" ">
<polygon fill="#e0e0e0" stroke="#999999" points="88,-74 50,-74 50,-55 88,-55 88,-74"/>
<text text-anchor="middle" x="69" y="-62" font-family="Helvetica,sans-Serif" font-size="10.00">map</text>
</a>
</g>
</g>
<!-- Node5&#45;&gt;Node6 -->
<g id="edge5_Node000005_Node000006" class="edge">
<title>Node5&#45;&gt;Node6</title>
<g id="a_edge5_Node000005_Node000006"><a xlink:title=" ">
<path fill="none" stroke="#63b8ff" d="M133.42,-109.84C120.33,-100.83 103.41,-89.18 90.2,-80.09"/>
<polygon fill="#63b8ff" stroke="#63b8ff" points="91.96,-77.05 81.74,-74.27 87.99,-82.82 91.96,-77.05"/>
</a>
</g>
</g>
<!-- Node7 -->
<g id="Node000007" class="node">
<title>Node7</title>
<g id="a_Node000007"><a xlink:title=" ">
<polygon fill="#e0e0e0" stroke="#999999" points="32,-74 0,-74 0,-55 32,-55 32,-74"/>
<text text-anchor="middle" x="16" y="-62" font-family="Helvetica,sans-Serif" font-size="10.00">set</text>
</a>
</g>
</g>
<!-- Node5&#45;&gt;Node7 -->
<g id="edge6_Node000005_Node000007" class="edge">
<title>Node5&#45;&gt;Node7</title>
<g id="a_edge6_Node000005_Node000007"><a xlink:title=" ">
<path fill="none" stroke="#63b8ff" d="M120.95,-109.99C96.61,-99.67 63.99,-85.84 41.61,-76.36"/>
<polygon fill="#63b8ff" stroke="#63b8ff" points="42.69,-73.01 32.12,-72.33 39.96,-79.46 42.69,-73.01"/>
</a>
</g>
</g>
<!-- Node8 -->
<g id="Node000008" class="node">
<title>Node8</title>
<g id="a_Node000008"><a xlink:href="webcface-config_8h.html" target="_top" xlink:title=" ">
<polygon fill="white" stroke="#666666" points="577.5,-19 472.5,-19 472.5,0 577.5,0 577.5,-19"/>
<text text-anchor="middle" x="525" y="-7" font-family="Helvetica,sans-Serif" font-size="10.00">webcface&#45;config.h</text>
</a>
</g>
</g>
<!-- Node5&#45;&gt;Node8 -->
<g id="edge7_Node000005_Node000008" class="edge">
<title>Node5&#45;&gt;Node8</title>
<g id="a_edge7_Node000005_Node000008"><a xlink:title=" ">
<path fill="none" stroke="#63b8ff" d="M161.34,-109.96C170.59,-93.79 188.09,-67.83 211,-55 212.37,-54.23 371.21,-31.97 462.42,-19.23"/>
<polygon fill="#63b8ff" stroke="#63b8ff" points="462.96,-22.69 472.38,-17.84 461.99,-15.75 462.96,-22.69"/>
</a>
</g>
</g>
<!-- Node9 -->
<g id="Node000009" class="node">
<title>Node9</title>
<g id="a_Node000009"><a xlink:href="common_2encoding_8h.html" target="_top" xlink:title=" ">
<polygon fill="white" stroke="#666666" points="385.5,-74 220.5,-74 220.5,-55 385.5,-55 385.5,-74"/>
<text text-anchor="middle" x="303" y="-62" font-family="Helvetica,sans-Serif" font-size="10.00">webcface/common/encoding.h</text>
</a>
</g>
</g>
<!-- Node5&#45;&gt;Node9 -->
<g id="edge8_Node000005_Node000009" class="edge">
<title>Node5&#45;&gt;Node9</title>
<g id="a_edge8_Node000005_Node000009"><a xlink:title=" ">
<path fill="none" stroke="#63b8ff" d="M189.69,-109.99C214.66,-100.18 247.7,-87.21 271.66,-77.81"/>
<polygon fill="#63b8ff" stroke="#63b8ff" points="272.97,-81.05 281,-74.14 270.41,-74.54 272.97,-81.05"/>
</a>
</g>
</g>
<!-- Node9&#45;&gt;Node8 -->
<g id="edge12_Node000009_Node000008" class="edge">
<title>Node9&#45;&gt;Node8</title>
<g id="a_edge12_Node000009_Node000008"><a xlink:title=" ">
<path fill="none" stroke="#63b8ff" d="M338.67,-54.98C376.83,-45.87 437.47,-31.4 479.15,-21.45"/>
<polygon fill="#63b8ff" stroke="#63b8ff" points="480.14,-24.81 489.05,-19.08 478.51,-18 480.14,-24.81"/>
</a>
</g>
</g>
<!-- Node10 -->
<g id="Node000010" class="node">
<title>Node10</title>
<g id="a_Node000010"><a xlink:title=" ">
<polygon fill="#e0e0e0" stroke="#999999" points="640,-19 596,-19 596,0 640,0 640,-19"/>
<text text-anchor="middle" x="618" y="-7" font-family="Helvetica,sans-Serif" font-size="10.00">string</text>
</a>
</g>
</g>
<!-- Node9&#45;&gt;Node10 -->
<g id="edge9_Node000009_Node000010" class="edge">
<title>Node9&#45;&gt;Node10</title>
<g id="a_edge9_Node000009_Node000010"><a xlink:title=" ">
<path fill="none" stroke="#63b8ff" d="M371.39,-54.98C426.8,-47.57 507.02,-35.71 585.65,-19.09"/>
<polygon fill="#63b8ff" stroke="#63b8ff" points="586.68,-22.45 595.72,-16.93 585.21,-15.6 586.68,-22.45"/>
</a>
</g>
</g>
<!-- Node11 -->
<g id="Node000011" class="node">
<title>Node11</title>
<g id="a_Node000011"><a xlink:title=" ">
<polygon fill="#e0e0e0" stroke="#999999" points="178.5,-19 105.5,-19 105.5,0 178.5,0 178.5,-19"/>
<text text-anchor="middle" x="142" y="-7" font-family="Helvetica,sans-Serif" font-size="10.00">string_view</text>
</a>
</g>
</g>
<!-- Node9&#45;&gt;Node11 -->
<g id="edge10_Node000009_Node000011" class="edge">
<title>Node9&#45;&gt;Node11</title>
<g id="a_edge10_Node000009_Node000011"><a xlink:title=" ">
<path fill="none" stroke="#63b8ff" d="M277.13,-54.98C250.22,-46.13 207.88,-32.19 177.77,-22.28"/>
<polygon fill="#63b8ff" stroke="#63b8ff" points="178.66,-18.88 168.07,-19.08 176.47,-25.53 178.66,-18.88"/>
</a>
</g>
</g>
<!-- Node12 -->
<g id="Node000012" class="node">
<title>Node12</title>
<g id="a_Node000012"><a xlink:title=" ">
<polygon fill="#e0e0e0" stroke="#999999" points="306,-19 248,-19 248,0 306,0 306,-19"/>
<text text-anchor="middle" x="277" y="-7" font-family="Helvetica,sans-Serif" font-size="10.00">memory</text>
</a>
</g>
</g>
<!-- Node9&#45;&gt;Node12 -->
<g id="edge11_Node000009_Node000012" class="edge">
<title>Node9&#45;&gt;Node12</title>
<g id="a_edge11_Node000009_Node000012"><a xlink:title=" ">
<path fill="none" stroke="#63b8ff" d="M298.71,-54.75C295.19,-47.57 290.09,-37.18 285.72,-28.27"/>
<polygon fill="#63b8ff" stroke="#63b8ff" points="288.76,-26.53 281.21,-19.09 282.48,-29.61 288.76,-26.53"/>
</a>
</g>
</g>
<!-- Node13&#45;&gt;Node8 -->
<g id="edge18_Node000013_Node000008" class="edge">
<title>Node13&#45;&gt;Node8</title>
<g id="a_edge18_Node000013_Node000008"><a xlink:title=" ">
<path fill="none" stroke="#63b8ff" d="M537.89,-115.47C537.64,-102.4 536.8,-76.66 534,-55 532.9,-46.5 531.11,-37.19 529.42,-29.29"/>
<polygon fill="#63b8ff" stroke="#63b8ff" points="532.78,-28.29 527.16,-19.3 525.95,-29.83 532.78,-28.29"/>
</a>
</g>
</g>
<!-- Node13&#45;&gt;Node9 -->
<g id="edge19_Node000013_Node000009" class="edge">
<title>Node13&#45;&gt;Node9</title>
<g id="a_edge19_Node000013_Node000009"><a xlink:title=" ">
<path fill="none" stroke="#63b8ff" d="M503.83,-115.49C462.41,-105.18 392.52,-87.78 347.08,-76.47"/>
<polygon fill="#63b8ff" stroke="#63b8ff" points="347.76,-73.04 337.21,-74.02 346.07,-79.83 347.76,-73.04"/>
</a>
</g>
</g>
<!-- Node13&#45;&gt;Node10 -->
<g id="edge15_Node000013_Node000010" class="edge">
<title>Node13&#45;&gt;Node10</title>
<g id="a_edge15_Node000013_Node000010"><a xlink:title=" ">
<path fill="none" stroke="#63b8ff" d="M544.01,-115.47C557.16,-96.82 588.67,-52.11 606.03,-27.49"/>
<polygon fill="#63b8ff" stroke="#63b8ff" points="609.02,-29.32 611.92,-19.13 603.3,-25.29 609.02,-29.32"/>
</a>
</g>
</g>
<!-- Node13&#45;&gt;Node11 -->
<g id="edge16_Node000013_Node000011" class="edge">
<title>Node13&#45;&gt;Node11</title>
<g id="a_edge16_Node000013_Node000011"><a xlink:title=" ">
<path fill="none" stroke="#63b8ff" d="M505.88,-115.44C497.8,-113.48 489.11,-111.52 481,-110 358.53,-87.11 314.24,-130.1 203,-74 181.98,-63.4 164.17,-42.56 153.32,-27.65"/>
<polygon fill="#63b8ff" stroke="#63b8ff" points="156.08,-25.49 147.49,-19.27 150.33,-29.48 156.08,-25.49"/>
</a>
</g>
</g>
<!-- Node13&#45;&gt;Node12 -->
<g id="edge14_Node000013_Node000012" class="edge">
<title>Node13&#45;&gt;Node12</title>
<g id="a_edge14_Node000013_Node000012"><a xlink:title=" ">
<path fill="none" stroke="#63b8ff" d="M505.88,-115.47C497.79,-113.5 489.11,-111.53 481,-110 421.52,-98.76 250.87,-119.54 211,-74 194.65,-55.33 222.77,-35.82 247.21,-23.44"/>
<polygon fill="#63b8ff" stroke="#63b8ff" points="248.8,-26.55 256.29,-19.06 245.76,-20.25 248.8,-26.55"/>
</a>
</g>
</g>
<!-- Node14 -->
<g id="Node000014" class="node">
<title>Node14</title>
<g id="a_Node000014"><a xlink:title=" ">
<polygon fill="#e0e0e0" stroke="#999999" points="704.5,-74 657.5,-74 657.5,-55 704.5,-55 704.5,-74"/>
<text text-anchor="middle" x="681" y="-62" font-family="Helvetica,sans-Serif" font-size="10.00">vector</text>
</a>
</g>
</g>
<!-- Node13&#45;&gt;Node14 -->
<g id="edge17_Node000013_Node000014" class="edge">
<title>Node13&#45;&gt;Node14</title>
<g id="a_edge17_Node000013_Node000014"><a xlink:title=" ">
<path fill="none" stroke="#63b8ff" d="M558.79,-115.49C582.94,-105.62 622.98,-89.23 650.62,-77.93"/>
<polygon fill="#63b8ff" stroke="#63b8ff" points="652.25,-81.04 660.18,-74.02 649.6,-74.56 652.25,-81.04"/>
</a>
</g>
</g>
<!-- Node15 -->
<g id="Node000015" class="node">
<title>Node15</title>
<g id="a_Node000015"><a xlink:href="complete_8h.html" target="_top" xlink:title=" ">
<polygon fill="white" stroke="#666666" points="524.5,-74 403.5,-74 403.5,-55 524.5,-55 524.5,-74"/>
<text text-anchor="middle" x="464" y="-62" font-family="Helvetica,sans-Serif" font-size="10.00">webcface/complete.h</text>
</a>
</g>
</g>
<!-- Node13&#45;&gt;Node15 -->
<g id="edge20_Node000013_Node000015" class="edge">
<title>Node13&#45;&gt;Node15</title>
<g id="a_edge20_Node000013_Node000015"><a xlink:title=" ">
<path fill="none" stroke="#63b8ff" d="M527.08,-115.37C515.49,-106.21 496.97,-91.56 482.98,-80.51"/>
<polygon fill="#63b8ff" stroke="#63b8ff" points="484.98,-77.62 474.96,-74.17 480.64,-83.11 484.98,-77.62"/>
</a>
</g>
</g>
<!-- Node15&#45;&gt;Node8 -->
<g id="edge22_Node000015_Node000008" class="edge">
<title>Node15&#45;&gt;Node8</title>
<g id="a_edge22_Node000015_Node000008"><a xlink:title=" ">
<path fill="none" stroke="#63b8ff" d="M473.8,-54.98C482.82,-47.15 496.41,-35.34 507.32,-25.86"/>
<polygon fill="#63b8ff" stroke="#63b8ff" points="509.77,-28.37 515.02,-19.17 505.18,-23.09 509.77,-28.37"/>
</a>
</g>
</g>
<!-- Node16 -->
<g id="Node000016" class="node">
<title>Node16</title>
<g id="a_Node000016"><a xlink:title=" ">
<polygon fill="#e0e0e0" stroke="#999999" points="454.5,-19 401.5,-19 401.5,0 454.5,0 454.5,-19"/>
<text text-anchor="middle" x="428" y="-7" font-family="Helvetica,sans-Serif" font-size="10.00">cstddef</text>
</a>
</g>
</g>
<!-- Node15&#45;&gt;Node16 -->
<g id="edge21_Node000015_Node000016" class="edge">
<title>Node15&#45;&gt;Node16</title>
<g id="a_edge21_Node000015_Node000016"><a xlink:title=" ">
<path fill="none" stroke="#63b8ff" d="M458.06,-54.75C453.02,-47.34 445.66,-36.5 439.49,-27.41"/>
<polygon fill="#63b8ff" stroke="#63b8ff" points="442.35,-25.39 433.83,-19.09 436.56,-29.33 442.35,-25.39"/>
</a>
</g>
</g>
<!-- Node17&#45;&gt;Node4 -->
<g id="edge25_Node000017_Node000004" class="edge">
<title>Node17&#45;&gt;Node4</title>
<g id="a_edge25_Node000017_Node000004"><a xlink:title=" ">
<path fill="none" stroke="#63b8ff" d="M587.4,-175.94C560.48,-167.19 517.7,-153.08 481,-140 479.35,-139.41 477.67,-138.81 475.97,-138.19"/>
<polygon fill="#63b8ff" stroke="#63b8ff" points="476.85,-134.78 466.25,-134.58 474.41,-141.34 476.85,-134.78"/>
</a>
</g>
</g>
<!-- Node17&#45;&gt;Node8 -->
<g id="edge29_Node000017_Node000008" class="edge">
<title>Node17&#45;&gt;Node8</title>
<g id="a_edge29_Node000017_Node000008"><a xlink:title=" ">
<path fill="none" stroke="#63b8ff" d="M612.84,-175.89C610.71,-161.66 605.38,-132.55 595,-110 580.3,-78.06 555.11,-45.57 539.29,-26.77"/>
<polygon fill="#63b8ff" stroke="#63b8ff" points="541.92,-24.46 532.76,-19.14 536.61,-29.01 541.92,-24.46"/>
</a>
</g>
</g>
<!-- Node17&#45;&gt;Node13 -->
<g id="edge28_Node000017_Node000013" class="edge">
<title>Node17&#45;&gt;Node13</title>
<g id="a_edge28_Node000017_Node000013"><a xlink:title=" ">
<path fill="none" stroke="#63b8ff" d="M602.79,-175.87C590.89,-166.71 571.86,-152.06 557.49,-141.01"/>
<polygon fill="#63b8ff" stroke="#63b8ff" points="559.32,-137.99 549.26,-134.67 555.05,-143.54 559.32,-137.99"/>
</a>
</g>
</g>
<!-- Node17&#45;&gt;Node14 -->
<g id="edge26_Node000017_Node000014" class="edge">
<title>Node17&#45;&gt;Node14</title>
<g id="a_edge26_Node000017_Node000014"><a xlink:title=" ">
<path fill="none" stroke="#63b8ff" d="M618.82,-175.94C629.73,-156.57 656.5,-109.02 671.1,-83.08"/>
<polygon fill="#63b8ff" stroke="#63b8ff" points="674.19,-84.73 676.04,-74.3 668.09,-81.3 674.19,-84.73"/>
</a>
</g>
</g>
<!-- Node18 -->
<g id="Node000018" class="node">
<title>Node18</title>
<g id="a_Node000018"><a xlink:title=" ">
<polygon fill="#e0e0e0" stroke="#999999" points="745.5,-134.5 680.5,-134.5 680.5,-115.5 745.5,-115.5 745.5,-134.5"/>
<text text-anchor="middle" x="713" y="-122.5" font-family="Helvetica,sans-Serif" font-size="10.00">functional</text>
</a>
</g>
</g>
<!-- Node17&#45;&gt;Node18 -->
<g id="edge24_Node000017_Node000018" class="edge">
<title>Node17&#45;&gt;Node18</title>
<g id="a_edge24_Node000017_Node000018"><a xlink:title=" ">
<path fill="none" stroke="#63b8ff" d="M628.61,-175.87C644.69,-166.36 670.78,-150.95 689.7,-139.77"/>
<polygon fill="#63b8ff" stroke="#63b8ff" points="691.5,-142.77 698.33,-134.67 687.94,-136.74 691.5,-142.77"/>
</a>
</g>
</g>
<!-- Node19 -->
<g id="Node000019" class="node">
<title>Node19</title>
<g id="a_Node000019"><a xlink:title=" ">
<polygon fill="#e0e0e0" stroke="#999999" points="814,-134.5 764,-134.5 764,-115.5 814,-115.5 814,-134.5"/>
<text text-anchor="middle" x="789" y="-122.5" font-family="Helvetica,sans-Serif" font-size="10.00">chrono</text>
</a>
</g>
</g>
<!-- Node17&#45;&gt;Node19 -->
<g id="edge27_Node000017_Node000019" class="edge">
<title>Node17&#45;&gt;Node19</title>
<g id="a_edge27_Node000017_Node000019"><a xlink:title=" ">
<path fill="none" stroke="#63b8ff" d="M643.68,-175.93C672.38,-167.46 717,-153.79 755,-140 756.43,-139.48 757.88,-138.94 759.34,-138.38"/>
<polygon fill="#63b8ff" stroke="#63b8ff" points="760.96,-141.51 768.97,-134.58 758.39,-135 760.96,-141.51"/>
</a>
</g>
</g>
<!-- Node20&#45;&gt;Node8 -->
<g id="edge38_Node000020_Node000008" class="edge">
<title>Node20&#45;&gt;Node8</title>
<g id="a_edge38_Node000020_Node000008"><a xlink:title=" ">
<path fill="none" stroke="#63b8ff" d="M850.68,-109.93C822.03,-100.63 784.43,-87.67 752,-74 734.6,-66.67 731.75,-61.43 714,-55 672.14,-39.84 623.16,-28.48 585.55,-21.03"/>
<polygon fill="#63b8ff" stroke="#63b8ff" points="585.75,-17.5 575.26,-19.03 584.41,-24.37 585.75,-17.5"/>
</a>
</g>
</g>
<!-- Node20&#45;&gt;Node9 -->
<g id="edge37_Node000020_Node000009" class="edge">
<title>Node20&#45;&gt;Node9</title>
<g id="a_edge37_Node000020_Node000009"><a xlink:title=" ">
<path fill="none" stroke="#63b8ff" d="M832.36,-111.39C829.2,-110.89 826.07,-110.42 823,-110 637.12,-84.43 586.86,-90.56 395.84,-74.06"/>
<polygon fill="#63b8ff" stroke="#63b8ff" points="396.02,-70.56 385.75,-73.18 395.41,-77.53 396.02,-70.56"/>
</a>
</g>
</g>
<!-- Node20&#45;&gt;Node10 -->
<g id="edge31_Node000020_Node000010" class="edge">
<title>Node20&#45;&gt;Node10</title>
<g id="a_edge31_Node000020_Node000010"><a xlink:title=" ">
<path fill="none" stroke="#63b8ff" d="M884.42,-109.73C870.73,-93.86 846.44,-68.66 820,-55 764.68,-26.41 691.62,-16.13 650.24,-12.48"/>
<polygon fill="#63b8ff" stroke="#63b8ff" points="650.43,-8.98 640.18,-11.67 649.87,-15.96 650.43,-8.98"/>
</a>
</g>
</g>
<!-- Node20&#45;&gt;Node14 -->
<g id="edge32_Node000020_Node000014" class="edge">
<title>Node20&#45;&gt;Node14</title>
<g id="a_edge32_Node000020_Node000014"><a xlink:title=" ">
<path fill="none" stroke="#63b8ff" d="M844.5,-109.99C804.14,-99 749.16,-84.04 714.37,-74.58"/>
<polygon fill="#63b8ff" stroke="#63b8ff" points="715.26,-71.19 704.69,-71.95 713.42,-77.95 715.26,-71.19"/>
</a>
</g>
</g>
<!-- Node21 -->
<g id="Node000021" class="node">
<title>Node21</title>
<g id="a_Node000021"><a xlink:title=" ">
<polygon fill="#e0e0e0" stroke="#999999" points="1052.5,-74 1011.5,-74 1011.5,-55 1052.5,-55 1052.5,-74"/>
<text text-anchor="middle" x="1032" y="-62" font-family="Helvetica,sans-Serif" font-size="10.00">tuple</text>
</a>
</g>
</g>
<!-- Node20&#45;&gt;Node21 -->
<g id="edge33_Node000020_Node000021" class="edge">
<title>Node20&#45;&gt;Node21</title>
<g id="a_edge33_Node000020_Node000021"><a xlink:title=" ">
<path fill="none" stroke="#63b8ff" d="M928.58,-109.99C951.06,-100.31 980.72,-87.56 1002.51,-78.18"/>
<polygon fill="#63b8ff" stroke="#63b8ff" points="1004.11,-81.31 1011.92,-74.14 1001.35,-74.88 1004.11,-81.31"/>
</a>
</g>
</g>
<!-- Node22 -->
<g id="Node000022" class="node">
<title>Node22</title>
<g id="a_Node000022"><a xlink:title=" ">
<polygon fill="#e0e0e0" stroke="#999999" points="811,-74 761,-74 761,-55 811,-55 811,-74"/>
<text text-anchor="middle" x="786" y="-62" font-family="Helvetica,sans-Serif" font-size="10.00">cstdint</text>
</a>
</g>
</g>
<!-- Node20&#45;&gt;Node22 -->
<g id="edge34_Node000020_Node000022" class="edge">
<title>Node20&#45;&gt;Node22</title>
<g id="a_edge34_Node000020_Node000022"><a xlink:title=" ">
<path fill="none" stroke="#63b8ff" d="M869.65,-109.99C851.95,-100.58 828.77,-88.24 811.29,-78.95"/>
<polygon fill="#63b8ff" stroke="#63b8ff" points="812.72,-75.74 802.24,-74.14 809.43,-81.92 812.72,-75.74"/>
</a>
</g>
</g>
<!-- Node23 -->
<g id="Node000023" class="node">
<title>Node23</title>
<g id="a_Node000023"><a xlink:title=" ">
<polygon fill="#e0e0e0" stroke="#999999" points="924.5,-74 867.5,-74 867.5,-55 924.5,-55 924.5,-74"/>
<text text-anchor="middle" x="896" y="-62" font-family="Helvetica,sans-Serif" font-size="10.00">ostream</text>
</a>
</g>
</g>
<!-- Node20&#45;&gt;Node23 -->
<g id="edge35_Node000020_Node000023" class="edge">
<title>Node20&#45;&gt;Node23</title>
<g id="a_edge35_Node000020_Node000023"><a xlink:title=" ">
<path fill="none" stroke="#63b8ff" d="M896,-109.84C896,-102.21 896,-92.7 896,-84.45"/>
<polygon fill="#63b8ff" stroke="#63b8ff" points="899.5,-84.27 896,-74.27 892.5,-84.27 899.5,-84.27"/>
</a>
</g>
</g>
<!-- Node24 -->
<g id="Node000024" class="node">
<title>Node24</title>
<g id="a_Node000024"><a xlink:title=" ">
<polygon fill="#e0e0e0" stroke="#999999" points="993.5,-74 942.5,-74 942.5,-55 993.5,-55 993.5,-74"/>
<text text-anchor="middle" x="968" y="-62" font-family="Helvetica,sans-Serif" font-size="10.00">variant</text>
</a>
</g>
</g>
<!-- Node20&#45;&gt;Node24 -->
<g id="edge36_Node000020_Node000024" class="edge">
<title>Node20&#45;&gt;Node24</title>
<g id="a_edge36_Node000020_Node000024"><a xlink:title=" ">
<path fill="none" stroke="#63b8ff" d="M913.43,-109.84C924.31,-101 938.3,-89.63 949.39,-80.62"/>
<polygon fill="#63b8ff" stroke="#63b8ff" points="951.66,-83.29 957.21,-74.27 947.24,-77.86 951.66,-83.29"/>
</a>
</g>
</g>
</g>
</svg>
