<?xml version="1.0" encoding="UTF-8" standalone="no"?>
<!DOCTYPE svg PUBLIC "-//W3C//DTD SVG 1.1//EN"
 "http://www.w3.org/Graphics/SVG/1.1/DTD/svg11.dtd">
<!-- Generated by graphviz version 2.43.0 (0)
 -->
<!-- Title: client/data_store1.cc Pages: 1 -->
<svg width="692pt" height="302pt"
 viewBox="0.00 0.00 691.50 302.00" xmlns="http://www.w3.org/2000/svg" xmlns:xlink="http://www.w3.org/1999/xlink">
<g id="graph0" class="graph" transform="scale(1 1) rotate(0) translate(4 298)">
<title>client/data_store1.cc</title>
<!-- Node1 -->
<g id="Node000001" class="node">
<title>Node1</title>
<g id="a_Node000001"><a xlink:title=" ">
<polygon fill="#999999" stroke="#666666" points="338,-294 220,-294 220,-275 338,-275 338,-294"/>
<text text-anchor="middle" x="279" y="-282" font-family="Helvetica,sans-Serif" font-size="10.00">client/data_store1.cc</text>
</a>
</g>
</g>
<!-- Node2 -->
<g id="Node000002" class="node">
<title>Node2</title>
<g id="a_Node000002"><a xlink:href="data__store1_8h.html" target="_top" xlink:title=" ">
<polygon fill="white" stroke="#666666" points="320.5,-239 237.5,-239 237.5,-220 320.5,-220 320.5,-239"/>
<text text-anchor="middle" x="279" y="-227" font-family="Helvetica,sans-Serif" font-size="10.00">data_store1.h</text>
</a>
</g>
</g>
<!-- Node1&#45;&gt;Node2 -->
<g id="edge1_Node000001_Node000002" class="edge">
<title>Node1&#45;&gt;Node2</title>
<g id="a_edge1_Node000001_Node000002"><a xlink:title=" ">
<path fill="none" stroke="#63b8ff" d="M279,-274.75C279,-267.8 279,-257.85 279,-249.13"/>
<polygon fill="#63b8ff" stroke="#63b8ff" points="282.5,-249.09 279,-239.09 275.5,-249.09 282.5,-249.09"/>
</a>
</g>
</g>
<!-- Node3 -->
<g id="Node000003" class="node">
<title>Node3</title>
<g id="a_Node000003"><a xlink:title=" ">
<polygon fill="#e0e0e0" stroke="#999999" points="48,-184 0,-184 0,-165 48,-165 48,-184"/>
<text text-anchor="middle" x="24" y="-172" font-family="Helvetica,sans-Serif" font-size="10.00">mutex</text>
</a>
</g>
</g>
<!-- Node2&#45;&gt;Node3 -->
<g id="edge2_Node000002_Node000003" class="edge">
<title>Node2&#45;&gt;Node3</title>
<g id="a_edge2_Node000002_Node000003"><a xlink:title=" ">
<path fill="none" stroke="#63b8ff" d="M237.12,-220.81C194.48,-212.82 126.23,-199.6 58.15,-184.17"/>
<polygon fill="#63b8ff" stroke="#63b8ff" points="58.64,-180.69 48.11,-181.87 57.08,-187.51 58.64,-180.69"/>
</a>
</g>
</g>
<!-- Node4 -->
<g id="Node000004" class="node">
<title>Node4</title>
<g id="a_Node000004"><a xlink:title=" ">
<polygon fill="#e0e0e0" stroke="#999999" points="159.5,-184 66.5,-184 66.5,-165 159.5,-165 159.5,-184"/>
<text text-anchor="middle" x="113" y="-172" font-family="Helvetica,sans-Serif" font-size="10.00">unordered_map</text>
</a>
</g>
</g>
<!-- Node2&#45;&gt;Node4 -->
<g id="edge3_Node000002_Node000004" class="edge">
<title>Node2&#45;&gt;Node4</title>
<g id="a_edge3_Node000002_Node000004"><a xlink:title=" ">
<path fill="none" stroke="#63b8ff" d="M252.33,-219.98C224.46,-211.09 180.55,-197.07 149.48,-187.15"/>
<polygon fill="#63b8ff" stroke="#63b8ff" points="150.47,-183.79 139.88,-184.08 148.34,-190.46 150.47,-183.79"/>
</a>
</g>
</g>
<!-- Node5 -->
<g id="Node000005" class="node">
<title>Node5</title>
<g id="a_Node000005"><a xlink:title=" ">
<polygon fill="#e0e0e0" stroke="#999999" points="279,-74 235,-74 235,-55 279,-55 279,-74"/>
<text text-anchor="middle" x="257" y="-62" font-family="Helvetica,sans-Serif" font-size="10.00">string</text>
</a>
</g>
</g>
<!-- Node2&#45;&gt;Node5 -->
<g id="edge4_Node000002_Node000005" class="edge">
<title>Node2&#45;&gt;Node5</title>
<g id="a_edge4_Node000002_Node000005"><a xlink:title=" ">
<path fill="none" stroke="#63b8ff" d="M253.15,-219.99C236.73,-213.09 216.8,-201.58 207,-184 187.45,-148.93 220.03,-104.67 241.15,-81.43"/>
<polygon fill="#63b8ff" stroke="#63b8ff" points="243.72,-83.8 248.04,-74.13 238.63,-79 243.72,-83.8"/>
</a>
</g>
</g>
<!-- Node6 -->
<g id="Node000006" class="node">
<title>Node6</title>
<g id="a_Node000006"><a xlink:title=" ">
<polygon fill="#e0e0e0" stroke="#999999" points="272,-184 216,-184 216,-165 272,-165 272,-184"/>
<text text-anchor="middle" x="244" y="-172" font-family="Helvetica,sans-Serif" font-size="10.00">optional</text>
</a>
</g>
</g>
<!-- Node2&#45;&gt;Node6 -->
<g id="edge5_Node000002_Node000006" class="edge">
<title>Node2&#45;&gt;Node6</title>
<g id="a_edge5_Node000002_Node000006"><a xlink:title=" ">
<path fill="none" stroke="#63b8ff" d="M273.22,-219.75C268.38,-212.42 261.32,-201.73 255.36,-192.7"/>
<polygon fill="#63b8ff" stroke="#63b8ff" points="258.1,-190.5 249.67,-184.09 252.26,-194.36 258.1,-190.5"/>
</a>
</g>
</g>
<!-- Node7 -->
<g id="Node000007" class="node">
<title>Node7</title>
<g id="a_Node000007"><a xlink:title=" ">
<polygon fill="#e0e0e0" stroke="#999999" points="337.5,-184 290.5,-184 290.5,-165 337.5,-165 337.5,-184"/>
<text text-anchor="middle" x="314" y="-172" font-family="Helvetica,sans-Serif" font-size="10.00">vector</text>
</a>
</g>
</g>
<!-- Node2&#45;&gt;Node7 -->
<g id="edge6_Node000002_Node000007" class="edge">
<title>Node2&#45;&gt;Node7</title>
<g id="a_edge6_Node000002_Node000007"><a xlink:title=" ">
<path fill="none" stroke="#63b8ff" d="M284.78,-219.75C289.62,-212.42 296.68,-201.73 302.64,-192.7"/>
<polygon fill="#63b8ff" stroke="#63b8ff" points="305.74,-194.36 308.33,-184.09 299.9,-190.5 305.74,-194.36"/>
</a>
</g>
</g>
<!-- Node8 -->
<g id="Node000008" class="node">
<title>Node8</title>
<g id="a_Node000008"><a xlink:title=" ">
<polygon fill="#e0e0e0" stroke="#999999" points="414,-184 356,-184 356,-165 414,-165 414,-184"/>
<text text-anchor="middle" x="385" y="-172" font-family="Helvetica,sans-Serif" font-size="10.00">memory</text>
</a>
</g>
</g>
<!-- Node2&#45;&gt;Node8 -->
<g id="edge7_Node000002_Node000008" class="edge">
<title>Node2&#45;&gt;Node8</title>
<g id="a_edge7_Node000002_Node000008"><a xlink:title=" ">
<path fill="none" stroke="#63b8ff" d="M296.03,-219.98C312.93,-211.54 339.06,-198.47 358.64,-188.68"/>
<polygon fill="#63b8ff" stroke="#63b8ff" points="360.28,-191.77 367.66,-184.17 357.15,-185.51 360.28,-191.77"/>
</a>
</g>
</g>
<!-- Node9 -->
<g id="Node000009" class="node">
<title>Node9</title>
<g id="a_Node000009"><a xlink:href="def_8h.html" target="_top" xlink:title=" ">
<polygon fill="white" stroke="#666666" points="673,-74 537,-74 537,-55 673,-55 673,-74"/>
<text text-anchor="middle" x="605" y="-62" font-family="Helvetica,sans-Serif" font-size="10.00">webcface/common/def.h</text>
</a>
</g>
</g>
<!-- Node2&#45;&gt;Node9 -->
<g id="edge8_Node000002_Node000009" class="edge">
<title>Node2&#45;&gt;Node9</title>
<g id="a_edge8_Node000002_Node000009"><a xlink:title=" ">
<path fill="none" stroke="#63b8ff" d="M320.63,-227.87C393.6,-225.88 540.37,-217.68 577,-184 604.79,-158.45 607.43,-110.88 606.49,-84.45"/>
<polygon fill="#63b8ff" stroke="#63b8ff" points="609.97,-84.03 605.91,-74.24 602.98,-84.43 609.97,-84.03"/>
</a>
</g>
</g>
<!-- Node11 -->
<g id="Node000011" class="node">
<title>Node11</title>
<g id="a_Node000011"><a xlink:href="common_2log_8h.html" target="_top" xlink:title=" ">
<polygon fill="white" stroke="#666666" points="568,-184 432,-184 432,-165 568,-165 568,-184"/>
<text text-anchor="middle" x="500" y="-172" font-family="Helvetica,sans-Serif" font-size="10.00">webcface/common/log.h</text>
</a>
</g>
</g>
<!-- Node2&#45;&gt;Node11 -->
<g id="edge10_Node000002_Node000011" class="edge">
<title>Node2&#45;&gt;Node11</title>
<g id="a_edge10_Node000002_Node000011"><a xlink:title=" ">
<path fill="none" stroke="#63b8ff" d="M314.51,-219.98C352.49,-210.87 412.87,-196.4 454.36,-186.45"/>
<polygon fill="#63b8ff" stroke="#63b8ff" points="455.31,-189.82 464.21,-184.08 453.67,-183.01 455.31,-189.82"/>
</a>
</g>
</g>
<!-- Node10 -->
<g id="Node000010" class="node">
<title>Node10</title>
<g id="a_Node000010"><a xlink:href="macros_8h.html" target="_top" xlink:title=" ">
<polygon fill="white" stroke="#666666" points="683.5,-19 526.5,-19 526.5,0 683.5,0 683.5,-19"/>
<text text-anchor="middle" x="605" y="-7" font-family="Helvetica,sans-Serif" font-size="10.00">webcface/common/macros.h</text>
</a>
</g>
</g>
<!-- Node9&#45;&gt;Node10 -->
<g id="edge9_Node000009_Node000010" class="edge">
<title>Node9&#45;&gt;Node10</title>
<g id="a_edge9_Node000009_Node000010"><a xlink:title=" ">
<path fill="none" stroke="#63b8ff" d="M605,-54.75C605,-47.8 605,-37.85 605,-29.13"/>
<polygon fill="#63b8ff" stroke="#63b8ff" points="608.5,-29.09 605,-19.09 601.5,-29.09 608.5,-29.09"/>
</a>
</g>
</g>
<!-- Node11&#45;&gt;Node5 -->
<g id="edge11_Node000011_Node000005" class="edge">
<title>Node11&#45;&gt;Node5</title>
<g id="a_edge11_Node000011_Node000005"><a xlink:title=" ">
<path fill="none" stroke="#63b8ff" d="M440.92,-164.97C378.74,-155.5 288.17,-140.07 276,-129 263.64,-117.76 259.19,-98.84 257.65,-84.57"/>
<polygon fill="#63b8ff" stroke="#63b8ff" points="261.13,-84.1 256.95,-74.36 254.14,-84.58 261.13,-84.1"/>
</a>
</g>
</g>
<!-- Node11&#45;&gt;Node9 -->
<g id="edge14_Node000011_Node000009" class="edge">
<title>Node11&#45;&gt;Node9</title>
<g id="a_edge14_Node000011_Node000009"><a xlink:title=" ">
<path fill="none" stroke="#63b8ff" d="M517.53,-164.98C532.31,-157.16 553.33,-144.45 568,-129 580.74,-115.58 590.92,-96.99 597.35,-83.39"/>
<polygon fill="#63b8ff" stroke="#63b8ff" points="600.61,-84.68 601.52,-74.13 594.22,-81.81 600.61,-84.68"/>
</a>
</g>
</g>
<!-- Node12 -->
<g id="Node000012" class="node">
<title>Node12</title>
<g id="a_Node000012"><a xlink:title=" ">
<polygon fill="#e0e0e0" stroke="#999999" points="335,-129 285,-129 285,-110 335,-110 335,-129"/>
<text text-anchor="middle" x="310" y="-117" font-family="Helvetica,sans-Serif" font-size="10.00">chrono</text>
</a>
</g>
</g>
<!-- Node11&#45;&gt;Node12 -->
<g id="edge12_Node000011_Node000012" class="edge">
<title>Node11&#45;&gt;Node12</title>
<g id="a_edge12_Node000011_Node000012"><a xlink:title=" ">
<path fill="none" stroke="#63b8ff" d="M469.47,-164.98C435.58,-155.53 380.95,-140.29 345.26,-130.34"/>
<polygon fill="#63b8ff" stroke="#63b8ff" points="345.86,-126.87 335.28,-127.55 343.98,-133.61 345.86,-126.87"/>
</a>
</g>
</g>
<!-- Node13 -->
<g id="Node000013" class="node">
<title>Node13</title>
<g id="a_Node000013"><a xlink:title=" ">
<polygon fill="#e0e0e0" stroke="#999999" points="422.5,-129 353.5,-129 353.5,-110 422.5,-110 422.5,-129"/>
<text text-anchor="middle" x="388" y="-117" font-family="Helvetica,sans-Serif" font-size="10.00">type_traits</text>
</a>
</g>
</g>
<!-- Node11&#45;&gt;Node13 -->
<g id="edge13_Node000011_Node000013" class="edge">
<title>Node11&#45;&gt;Node13</title>
<g id="a_edge13_Node000011_Node000013"><a xlink:title=" ">
<path fill="none" stroke="#63b8ff" d="M482.01,-164.98C464.07,-156.5 436.28,-143.35 415.57,-133.54"/>
<polygon fill="#63b8ff" stroke="#63b8ff" points="416.86,-130.28 406.32,-129.17 413.86,-136.61 416.86,-130.28"/>
</a>
</g>
</g>
<!-- Node14 -->
<g id="Node000014" class="node">
<title>Node14</title>
<g id="a_Node000014"><a xlink:href="encoding_8h.html" target="_top" xlink:title=" ">
<polygon fill="white" stroke="#666666" points="559.5,-129 440.5,-129 440.5,-110 559.5,-110 559.5,-129"/>
<text text-anchor="middle" x="500" y="-117" font-family="Helvetica,sans-Serif" font-size="10.00">webcface/encoding.h</text>
</a>
</g>
</g>
<!-- Node11&#45;&gt;Node14 -->
<g id="edge15_Node000011_Node000014" class="edge">
<title>Node11&#45;&gt;Node14</title>
<g id="a_edge15_Node000011_Node000014"><a xlink:title=" ">
<path fill="none" stroke="#63b8ff" d="M500,-164.75C500,-157.8 500,-147.85 500,-139.13"/>
<polygon fill="#63b8ff" stroke="#63b8ff" points="503.5,-139.09 500,-129.09 496.5,-139.09 503.5,-139.09"/>
</a>
</g>
</g>
<!-- Node14&#45;&gt;Node5 -->
<g id="edge16_Node000014_Node000005" class="edge">
<title>Node14&#45;&gt;Node5</title>
<g id="a_edge16_Node000014_Node000005"><a xlink:title=" ">
<path fill="none" stroke="#63b8ff" d="M460.96,-109.98C413.26,-99.58 333.47,-82.18 289.15,-72.51"/>
<polygon fill="#63b8ff" stroke="#63b8ff" points="289.72,-69.06 279.21,-70.34 288.23,-75.89 289.72,-69.06"/>
</a>
</g>
</g>
<!-- Node14&#45;&gt;Node9 -->
<g id="edge18_Node000014_Node000009" class="edge">
<title>Node14&#45;&gt;Node9</title>
<g id="a_edge18_Node000014_Node000009"><a xlink:title=" ">
<path fill="none" stroke="#63b8ff" d="M516.87,-109.98C533.61,-101.54 559.5,-88.47 578.89,-78.68"/>
<polygon fill="#63b8ff" stroke="#63b8ff" points="580.47,-81.8 587.82,-74.17 577.32,-75.55 580.47,-81.8"/>
</a>
</g>
</g>
<!-- Node15 -->
<g id="Node000015" class="node">
<title>Node15</title>
<g id="a_Node000015"><a xlink:title=" ">
<polygon fill="#e0e0e0" stroke="#999999" points="518.5,-74 445.5,-74 445.5,-55 518.5,-55 518.5,-74"/>
<text text-anchor="middle" x="482" y="-62" font-family="Helvetica,sans-Serif" font-size="10.00">string_view</text>
</a>
</g>
</g>
<!-- Node14&#45;&gt;Node15 -->
<g id="edge17_Node000014_Node000015" class="edge">
<title>Node14&#45;&gt;Node15</title>
<g id="a_edge17_Node000014_Node000015"><a xlink:title=" ">
<path fill="none" stroke="#63b8ff" d="M497.03,-109.75C494.64,-102.72 491.21,-92.62 488.23,-83.84"/>
<polygon fill="#63b8ff" stroke="#63b8ff" points="491.45,-82.43 484.92,-74.09 484.82,-84.68 491.45,-82.43"/>
</a>
</g>
</g>
</g>
</svg>
