<?xml version="1.0" encoding="UTF-8" standalone="no"?>
<!DOCTYPE svg PUBLIC "-//W3C//DTD SVG 1.1//EN"
 "http://www.w3.org/Graphics/SVG/1.1/DTD/svg11.dtd">
<!-- Generated by graphviz version 2.43.0 (0)
 -->
<!-- Title: client/src/data_store1.cc Pages: 1 -->
<svg width="518pt" height="313pt"
 viewBox="0.00 0.00 518.00 313.00" xmlns="http://www.w3.org/2000/svg" xmlns:xlink="http://www.w3.org/1999/xlink">
<g id="graph0" class="graph" transform="scale(1 1) rotate(0) translate(4 309)">
<title>client/src/data_store1.cc</title>
<!-- Node1 -->
<g id="Node000001" class="node">
<title>Node1</title>
<g id="a_Node000001"><a xlink:title=" ">
<polygon fill="#999999" stroke="#666666" points="257.5,-305 122.5,-305 122.5,-286 257.5,-286 257.5,-305"/>
<text text-anchor="middle" x="190" y="-293" font-family="Helvetica,sans-Serif" font-size="10.00">client/src/data_store1.cc</text>
</a>
</g>
</g>
<!-- Node2 -->
<g id="Node000002" class="node">
<title>Node2</title>
<g id="a_Node000002"><a xlink:href="data__store1_8h.html" target="_top" xlink:title=" ">
<polygon fill="white" stroke="#666666" points="254,-250 126,-250 126,-220 254,-220 254,-250"/>
<text text-anchor="start" x="134" y="-238" font-family="Helvetica,sans-Serif" font-size="10.00">webcface/internal/data</text>
<text text-anchor="middle" x="190" y="-227" font-family="Helvetica,sans-Serif" font-size="10.00">_store1.h</text>
</a>
</g>
</g>
<!-- Node1&#45;&gt;Node2 -->
<g id="edge1_Node000001_Node000002" class="edge">
<title>Node1&#45;&gt;Node2</title>
<g id="a_edge1_Node000001_Node000002"><a xlink:title=" ">
<path fill="none" stroke="#63b8ff" d="M190,-285.87C190,-279.11 190,-269.35 190,-260.26"/>
<polygon fill="#63b8ff" stroke="#63b8ff" points="193.5,-260.11 190,-250.11 186.5,-260.11 193.5,-260.11"/>
</a>
</g>
</g>
<!-- Node3 -->
<g id="Node000003" class="node">
<title>Node3</title>
<g id="a_Node000003"><a xlink:title=" ">
<polygon fill="#e0e0e0" stroke="#999999" points="89,-184 41,-184 41,-165 89,-165 89,-184"/>
<text text-anchor="middle" x="65" y="-172" font-family="Helvetica,sans-Serif" font-size="10.00">mutex</text>
</a>
</g>
</g>
<!-- Node2&#45;&gt;Node3 -->
<g id="edge2_Node000002_Node000003" class="edge">
<title>Node2&#45;&gt;Node3</title>
<g id="a_edge2_Node000002_Node000003"><a xlink:title=" ">
<path fill="none" stroke="#63b8ff" d="M160.06,-219.99C139.58,-210.4 112.62,-197.79 92.65,-188.44"/>
<polygon fill="#63b8ff" stroke="#63b8ff" points="94,-185.21 83.46,-184.14 91.03,-191.55 94,-185.21"/>
</a>
</g>
</g>
<!-- Node4 -->
<g id="Node000004" class="node">
<title>Node4</title>
<g id="a_Node000004"><a xlink:title=" ">
<polygon fill="#e0e0e0" stroke="#999999" points="56,-129 0,-129 0,-110 56,-110 56,-129"/>
<text text-anchor="middle" x="28" y="-117" font-family="Helvetica,sans-Serif" font-size="10.00">optional</text>
</a>
</g>
</g>
<!-- Node2&#45;&gt;Node4 -->
<g id="edge3_Node000002_Node000004" class="edge">
<title>Node2&#45;&gt;Node4</title>
<g id="a_edge3_Node000002_Node000004"><a xlink:title=" ">
<path fill="none" stroke="#63b8ff" d="M171.98,-219.83C153.64,-205.58 124.28,-183.17 98,-165 82.6,-154.35 64.79,-143.05 50.99,-134.49"/>
<polygon fill="#63b8ff" stroke="#63b8ff" points="52.5,-131.31 42.15,-129.05 48.83,-137.28 52.5,-131.31"/>
</a>
</g>
</g>
<!-- Node5 -->
<g id="Node000005" class="node">
<title>Node5</title>
<g id="a_Node000005"><a xlink:title=" ">
<polygon fill="#e0e0e0" stroke="#999999" points="452.5,-184 405.5,-184 405.5,-165 452.5,-165 452.5,-184"/>
<text text-anchor="middle" x="429" y="-172" font-family="Helvetica,sans-Serif" font-size="10.00">deque</text>
</a>
</g>
</g>
<!-- Node2&#45;&gt;Node5 -->
<g id="edge4_Node000002_Node000005" class="edge">
<title>Node2&#45;&gt;Node5</title>
<g id="a_edge4_Node000002_Node000005"><a xlink:title=" ">
<path fill="none" stroke="#63b8ff" d="M247.25,-219.99C293.45,-208.68 356.87,-193.16 395.28,-183.75"/>
<polygon fill="#63b8ff" stroke="#63b8ff" points="396.54,-187.05 405.42,-181.27 394.88,-180.25 396.54,-187.05"/>
</a>
</g>
</g>
<!-- Node6 -->
<g id="Node000006" class="node">
<title>Node6</title>
<g id="a_Node000006"><a xlink:href="log_8h.html" target="_top" xlink:title=" ">
<polygon fill="white" stroke="#666666" points="235,-184 145,-184 145,-165 235,-165 235,-184"/>
<text text-anchor="middle" x="190" y="-172" font-family="Helvetica,sans-Serif" font-size="10.00">webcface/log.h</text>
</a>
</g>
</g>
<!-- Node2&#45;&gt;Node6 -->
<g id="edge5_Node000002_Node000006" class="edge">
<title>Node2&#45;&gt;Node6</title>
<g id="a_edge5_Node000002_Node000006"><a xlink:title=" ">
<path fill="none" stroke="#63b8ff" d="M190,-219.84C190,-212.21 190,-202.7 190,-194.45"/>
<polygon fill="#63b8ff" stroke="#63b8ff" points="193.5,-194.27 190,-184.27 186.5,-194.27 193.5,-194.27"/>
</a>
</g>
</g>
<!-- Node15 -->
<g id="Node000015" class="node">
<title>Node15</title>
<g id="a_Node000015"><a xlink:href="encoding_8h.html" target="_top" xlink:title=" ">
<polygon fill="white" stroke="#666666" points="460.5,-74 293.5,-74 293.5,-55 460.5,-55 460.5,-74"/>
<text text-anchor="middle" x="377" y="-62" font-family="Helvetica,sans-Serif" font-size="10.00">webcface/encoding/encoding.h</text>
</a>
</g>
</g>
<!-- Node2&#45;&gt;Node15 -->
<g id="edge24_Node000002_Node000015" class="edge">
<title>Node2&#45;&gt;Node15</title>
<g id="a_edge24_Node000002_Node000015"><a xlink:title=" ">
<path fill="none" stroke="#63b8ff" d="M226.6,-219.99C264.51,-203.68 322.89,-173.19 357,-129 367.04,-115.99 372.1,-97.84 374.61,-84.28"/>
<polygon fill="#63b8ff" stroke="#63b8ff" points="378.1,-84.59 376.17,-74.18 371.19,-83.52 378.1,-84.59"/>
</a>
</g>
</g>
<!-- Node6&#45;&gt;Node4 -->
<g id="edge7_Node000006_Node000004" class="edge">
<title>Node6&#45;&gt;Node4</title>
<g id="a_edge7_Node000006_Node000004"><a xlink:title=" ">
<path fill="none" stroke="#63b8ff" d="M163.97,-164.98C136.89,-156.13 94.29,-142.19 63.99,-132.28"/>
<polygon fill="#63b8ff" stroke="#63b8ff" points="64.82,-128.87 54.23,-129.08 62.65,-135.52 64.82,-128.87"/>
</a>
</g>
</g>
<!-- Node7 -->
<g id="Node000007" class="node">
<title>Node7</title>
<g id="a_Node000007"><a xlink:title=" ">
<polygon fill="#e0e0e0" stroke="#999999" points="348.5,-129 283.5,-129 283.5,-110 348.5,-110 348.5,-129"/>
<text text-anchor="middle" x="316" y="-117" font-family="Helvetica,sans-Serif" font-size="10.00">functional</text>
</a>
</g>
</g>
<!-- Node6&#45;&gt;Node7 -->
<g id="edge6_Node000006_Node000007" class="edge">
<title>Node6&#45;&gt;Node7</title>
<g id="a_edge6_Node000006_Node000007"><a xlink:title=" ">
<path fill="none" stroke="#63b8ff" d="M210.24,-164.98C230.7,-156.38 262.53,-142.99 285.93,-133.15"/>
<polygon fill="#63b8ff" stroke="#63b8ff" points="287.53,-136.27 295.39,-129.17 284.81,-129.82 287.53,-136.27"/>
</a>
</g>
</g>
<!-- Node8 -->
<g id="Node000008" class="node">
<title>Node8</title>
<g id="a_Node000008"><a xlink:title=" ">
<polygon fill="#e0e0e0" stroke="#999999" points="161.5,-74 114.5,-74 114.5,-55 161.5,-55 161.5,-74"/>
<text text-anchor="middle" x="138" y="-62" font-family="Helvetica,sans-Serif" font-size="10.00">vector</text>
</a>
</g>
</g>
<!-- Node6&#45;&gt;Node8 -->
<g id="edge8_Node000006_Node000008" class="edge">
<title>Node6&#45;&gt;Node8</title>
<g id="a_edge8_Node000006_Node000008"><a xlink:title=" ">
<path fill="none" stroke="#63b8ff" d="M188.42,-164.93C185.9,-152.39 180.28,-128.52 171,-110 166,-100.02 158.75,-89.95 152.32,-81.91"/>
<polygon fill="#63b8ff" stroke="#63b8ff" points="154.9,-79.54 145.81,-74.1 149.53,-84.02 154.9,-79.54"/>
</a>
</g>
</g>
<!-- Node9 -->
<g id="Node000009" class="node">
<title>Node9</title>
<g id="a_Node000009"><a xlink:title=" ">
<polygon fill="#e0e0e0" stroke="#999999" points="162,-129 112,-129 112,-110 162,-110 162,-129"/>
<text text-anchor="middle" x="137" y="-117" font-family="Helvetica,sans-Serif" font-size="10.00">chrono</text>
</a>
</g>
</g>
<!-- Node6&#45;&gt;Node9 -->
<g id="edge9_Node000006_Node000009" class="edge">
<title>Node6&#45;&gt;Node9</title>
<g id="a_edge9_Node000006_Node000009"><a xlink:title=" ">
<path fill="none" stroke="#63b8ff" d="M181.25,-164.75C173.53,-157.03 162.1,-145.6 152.78,-136.28"/>
<polygon fill="#63b8ff" stroke="#63b8ff" points="155.14,-133.69 145.59,-129.09 150.19,-138.64 155.14,-133.69"/>
</a>
</g>
</g>
<!-- Node10 -->
<g id="Node000010" class="node">
<title>Node10</title>
<g id="a_Node000010"><a xlink:href="field_8h.html" target="_top" xlink:title=" ">
<polygon fill="white" stroke="#666666" points="265.5,-129 218.5,-129 218.5,-110 265.5,-110 265.5,-129"/>
<text text-anchor="middle" x="242" y="-117" font-family="Helvetica,sans-Serif" font-size="10.00">field.h</text>
</a>
</g>
</g>
<!-- Node6&#45;&gt;Node10 -->
<g id="edge10_Node000006_Node000010" class="edge">
<title>Node6&#45;&gt;Node10</title>
<g id="a_edge10_Node000006_Node000010"><a xlink:title=" ">
<path fill="none" stroke="#63b8ff" d="M198.59,-164.75C206.16,-157.03 217.38,-145.6 226.51,-136.28"/>
<polygon fill="#63b8ff" stroke="#63b8ff" points="229.07,-138.68 233.57,-129.09 224.07,-133.78 229.07,-138.68"/>
</a>
</g>
</g>
<!-- Node14 -->
<g id="Node000014" class="node">
<title>Node14</title>
<g id="a_Node000014"><a xlink:href="webcface-config_8h.html" target="_top" xlink:title=" ">
<polygon fill="white" stroke="#666666" points="174.5,-19 69.5,-19 69.5,0 174.5,0 174.5,-19"/>
<text text-anchor="middle" x="122" y="-7" font-family="Helvetica,sans-Serif" font-size="10.00">webcface&#45;config.h</text>
</a>
</g>
</g>
<!-- Node6&#45;&gt;Node14 -->
<g id="edge23_Node000006_Node000014" class="edge">
<title>Node6&#45;&gt;Node14</title>
<g id="a_edge23_Node000006_Node000014"><a xlink:title=" ">
<path fill="none" stroke="#63b8ff" d="M154.56,-164.99C135.74,-158.48 114.24,-147.38 103,-129 83.78,-97.58 100.16,-53.06 112.14,-28.51"/>
<polygon fill="#63b8ff" stroke="#63b8ff" points="115.41,-29.79 116.89,-19.3 109.19,-26.58 115.41,-29.79"/>
</a>
</g>
</g>
<!-- Node10&#45;&gt;Node8 -->
<g id="edge14_Node000010_Node000008" class="edge">
<title>Node10&#45;&gt;Node8</title>
<g id="a_edge14_Node000010_Node000008"><a xlink:title=" ">
<path fill="none" stroke="#63b8ff" d="M225.29,-109.98C208.79,-101.57 183.3,-88.59 164.12,-78.81"/>
<polygon fill="#63b8ff" stroke="#63b8ff" points="165.51,-75.59 155.01,-74.17 162.33,-81.83 165.51,-75.59"/>
</a>
</g>
</g>
<!-- Node11 -->
<g id="Node000011" class="node">
<title>Node11</title>
<g id="a_Node000011"><a xlink:title=" ">
<polygon fill="#e0e0e0" stroke="#999999" points="342,-19 284,-19 284,0 342,0 342,-19"/>
<text text-anchor="middle" x="313" y="-7" font-family="Helvetica,sans-Serif" font-size="10.00">memory</text>
</a>
</g>
</g>
<!-- Node10&#45;&gt;Node11 -->
<g id="edge11_Node000010_Node000011" class="edge">
<title>Node10&#45;&gt;Node11</title>
<g id="a_edge11_Node000010_Node000011"><a xlink:title=" ">
<path fill="none" stroke="#63b8ff" d="M247.81,-109.66C259.57,-91.77 286.37,-51 301.7,-27.69"/>
<polygon fill="#63b8ff" stroke="#63b8ff" points="304.74,-29.44 307.31,-19.16 298.89,-25.59 304.74,-29.44"/>
</a>
</g>
</g>
<!-- Node12 -->
<g id="Node000012" class="node">
<title>Node12</title>
<g id="a_Node000012"><a xlink:title=" ">
<polygon fill="#e0e0e0" stroke="#999999" points="510,-19 466,-19 466,0 510,0 510,-19"/>
<text text-anchor="middle" x="488" y="-7" font-family="Helvetica,sans-Serif" font-size="10.00">string</text>
</a>
</g>
</g>
<!-- Node10&#45;&gt;Node12 -->
<g id="edge12_Node000010_Node000012" class="edge">
<title>Node10&#45;&gt;Node12</title>
<g id="a_edge12_Node000010_Node000012"><a xlink:title=" ">
<path fill="none" stroke="#63b8ff" d="M265.72,-111.98C268.5,-111.28 271.31,-110.61 274,-110 359.99,-90.67 403.4,-132.86 469,-74 481.44,-62.84 485.88,-43.92 487.39,-29.62"/>
<polygon fill="#63b8ff" stroke="#63b8ff" points="490.9,-29.6 488.08,-19.39 483.92,-29.13 490.9,-29.6"/>
</a>
</g>
</g>
<!-- Node13 -->
<g id="Node000013" class="node">
<title>Node13</title>
<g id="a_Node000013"><a xlink:title=" ">
<polygon fill="#e0e0e0" stroke="#999999" points="265.5,-19 192.5,-19 192.5,0 265.5,0 265.5,-19"/>
<text text-anchor="middle" x="229" y="-7" font-family="Helvetica,sans-Serif" font-size="10.00">string_view</text>
</a>
</g>
</g>
<!-- Node10&#45;&gt;Node13 -->
<g id="edge13_Node000010_Node000013" class="edge">
<title>Node10&#45;&gt;Node13</title>
<g id="a_edge13_Node000010_Node000013"><a xlink:title=" ">
<path fill="none" stroke="#63b8ff" d="M240.94,-109.66C238.83,-92.17 234.09,-52.8 231.26,-29.27"/>
<polygon fill="#63b8ff" stroke="#63b8ff" points="234.71,-28.67 230.04,-19.16 227.76,-29.51 234.71,-28.67"/>
</a>
</g>
</g>
<!-- Node10&#45;&gt;Node14 -->
<g id="edge15_Node000010_Node000014" class="edge">
<title>Node10&#45;&gt;Node14</title>
<g id="a_edge15_Node000010_Node000014"><a xlink:title=" ">
<path fill="none" stroke="#63b8ff" d="M232.18,-109.66C211.77,-91.3 164.57,-48.81 139.07,-25.87"/>
<polygon fill="#63b8ff" stroke="#63b8ff" points="141.39,-23.25 131.62,-19.16 136.71,-28.45 141.39,-23.25"/>
</a>
</g>
</g>
<!-- Node10&#45;&gt;Node15 -->
<g id="edge16_Node000010_Node000015" class="edge">
<title>Node10&#45;&gt;Node15</title>
<g id="a_edge16_Node000010_Node000015"><a xlink:title=" ">
<path fill="none" stroke="#63b8ff" d="M263.69,-109.98C285.8,-101.3 320.32,-87.75 345.45,-77.88"/>
<polygon fill="#63b8ff" stroke="#63b8ff" points="346.89,-81.08 354.92,-74.17 344.33,-74.57 346.89,-81.08"/>
</a>
</g>
</g>
<!-- Node15&#45;&gt;Node11 -->
<g id="edge21_Node000015_Node000011" class="edge">
<title>Node15&#45;&gt;Node11</title>
<g id="a_edge21_Node000015_Node000011"><a xlink:title=" ">
<path fill="none" stroke="#63b8ff" d="M366.72,-54.98C357.16,-47.07 342.72,-35.11 331.22,-25.58"/>
<polygon fill="#63b8ff" stroke="#63b8ff" points="333.4,-22.85 323.47,-19.17 328.94,-28.24 333.4,-22.85"/>
</a>
</g>
</g>
<!-- Node15&#45;&gt;Node12 -->
<g id="edge19_Node000015_Node000012" class="edge">
<title>Node15&#45;&gt;Node12</title>
<g id="a_edge19_Node000015_Node000012"><a xlink:title=" ">
<path fill="none" stroke="#63b8ff" d="M394.83,-54.98C412.61,-46.5 440.15,-33.35 460.68,-23.54"/>
<polygon fill="#63b8ff" stroke="#63b8ff" points="462.33,-26.64 469.84,-19.17 459.31,-20.32 462.33,-26.64"/>
</a>
</g>
</g>
<!-- Node15&#45;&gt;Node13 -->
<g id="edge20_Node000015_Node000013" class="edge">
<title>Node15&#45;&gt;Node13</title>
<g id="a_edge20_Node000015_Node000013"><a xlink:title=" ">
<path fill="none" stroke="#63b8ff" d="M353.22,-54.98C328.77,-46.23 290.47,-32.51 262.85,-22.62"/>
<polygon fill="#63b8ff" stroke="#63b8ff" points="263.81,-19.25 253.21,-19.17 261.45,-25.84 263.81,-19.25"/>
</a>
</g>
</g>
<!-- Node15&#45;&gt;Node14 -->
<g id="edge22_Node000015_Node000014" class="edge">
<title>Node15&#45;&gt;Node14</title>
<g id="a_edge22_Node000015_Node000014"><a xlink:title=" ">
<path fill="none" stroke="#63b8ff" d="M336.03,-54.98C291.74,-45.78 221.06,-31.09 173.15,-21.13"/>
<polygon fill="#63b8ff" stroke="#63b8ff" points="173.79,-17.69 163.29,-19.08 172.37,-24.54 173.79,-17.69"/>
</a>
</g>
</g>
<!-- Node16 -->
<g id="Node000016" class="node">
<title>Node16</title>
<g id="a_Node000016"><a xlink:title=" ">
<polygon fill="#e0e0e0" stroke="#999999" points="448,-19 410,-19 410,0 448,0 448,-19"/>
<text text-anchor="middle" x="429" y="-7" font-family="Helvetica,sans-Serif" font-size="10.00">map</text>
</a>
</g>
</g>
<!-- Node15&#45;&gt;Node16 -->
<g id="edge17_Node000015_Node000016" class="edge">
<title>Node15&#45;&gt;Node16</title>
<g id="a_edge17_Node000015_Node000016"><a xlink:title=" ">
<path fill="none" stroke="#63b8ff" d="M385.59,-54.75C393.16,-47.03 404.38,-35.6 413.51,-26.28"/>
<polygon fill="#63b8ff" stroke="#63b8ff" points="416.07,-28.68 420.57,-19.09 411.07,-23.78 416.07,-28.68"/>
</a>
</g>
</g>
<!-- Node17 -->
<g id="Node000017" class="node">
<title>Node17</title>
<g id="a_Node000017"><a xlink:title=" ">
<polygon fill="#e0e0e0" stroke="#999999" points="392,-19 360,-19 360,0 392,0 392,-19"/>
<text text-anchor="middle" x="376" y="-7" font-family="Helvetica,sans-Serif" font-size="10.00">set</text>
</a>
</g>
</g>
<!-- Node15&#45;&gt;Node17 -->
<g id="edge18_Node000015_Node000017" class="edge">
<title>Node15&#45;&gt;Node17</title>
<g id="a_edge18_Node000015_Node000017"><a xlink:title=" ">
<path fill="none" stroke="#63b8ff" d="M376.83,-54.75C376.7,-47.8 376.52,-37.85 376.35,-29.13"/>
<polygon fill="#63b8ff" stroke="#63b8ff" points="379.85,-29.02 376.16,-19.09 372.85,-29.15 379.85,-29.02"/>
</a>
</g>
</g>
</g>
</svg>
