<?xml version="1.0" encoding="UTF-8" standalone="no"?>
<!DOCTYPE svg PUBLIC "-//W3C//DTD SVG 1.1//EN"
 "http://www.w3.org/Graphics/SVG/1.1/DTD/svg11.dtd">
<!-- Generated by graphviz version 2.43.0 (0)
 -->
<!-- Title: client/data_store2.h Pages: 1 -->
<svg width="1286pt" height="192pt"
 viewBox="0.00 0.00 1285.50 192.00" xmlns="http://www.w3.org/2000/svg" xmlns:xlink="http://www.w3.org/1999/xlink">
<g id="graph0" class="graph" transform="scale(1 1) rotate(0) translate(4 188)">
<title>client/data_store2.h</title>
<!-- Node1 -->
<g id="Node000001" class="node">
<title>Node1</title>
<g id="a_Node000001"><a xlink:title=" ">
<polygon fill="#999999" stroke="#666666" points="556.5,-184 443.5,-184 443.5,-165 556.5,-165 556.5,-184"/>
<text text-anchor="middle" x="500" y="-172" font-family="Helvetica,sans-Serif" font-size="10.00">client/data_store2.h</text>
</a>
</g>
</g>
<!-- Node2 -->
<g id="Node000002" class="node">
<title>Node2</title>
<g id="a_Node000002"><a xlink:title=" ">
<polygon fill="#e0e0e0" stroke="#999999" points="48,-129 0,-129 0,-110 48,-110 48,-129"/>
<text text-anchor="middle" x="24" y="-117" font-family="Helvetica,sans-Serif" font-size="10.00">mutex</text>
</a>
</g>
</g>
<!-- Node1&#45;&gt;Node2 -->
<g id="edge1_Node000001_Node000002" class="edge">
<title>Node1&#45;&gt;Node2</title>
<g id="a_edge1_Node000001_Node000002"><a xlink:title=" ">
<path fill="none" stroke="#63b8ff" d="M443.37,-169.91C359.62,-164.1 198,-151.04 62,-129 60.72,-128.79 59.43,-128.57 58.12,-128.33"/>
<polygon fill="#63b8ff" stroke="#63b8ff" points="58.53,-124.85 48.04,-126.33 57.16,-131.71 58.53,-124.85"/>
</a>
</g>
</g>
<!-- Node3 -->
<g id="Node000003" class="node">
<title>Node3</title>
<g id="a_Node000003"><a xlink:title=" ">
<polygon fill="#e0e0e0" stroke="#999999" points="593.5,-74 500.5,-74 500.5,-55 593.5,-55 593.5,-74"/>
<text text-anchor="middle" x="547" y="-62" font-family="Helvetica,sans-Serif" font-size="10.00">unordered_map</text>
</a>
</g>
</g>
<!-- Node1&#45;&gt;Node3 -->
<g id="edge2_Node000001_Node000003" class="edge">
<title>Node1&#45;&gt;Node3</title>
<g id="a_edge2_Node000001_Node000003"><a xlink:title=" ">
<path fill="none" stroke="#63b8ff" d="M507.14,-164.82C513.9,-156.21 523.9,-142.4 530,-129 536.59,-114.54 541.04,-97.03 543.73,-84.06"/>
<polygon fill="#63b8ff" stroke="#63b8ff" points="547.2,-84.5 545.65,-74.02 540.33,-83.19 547.2,-84.5"/>
</a>
</g>
</g>
<!-- Node4 -->
<g id="Node000004" class="node">
<title>Node4</title>
<g id="a_Node000004"><a xlink:title=" ">
<polygon fill="#e0e0e0" stroke="#999999" points="494,-19 450,-19 450,0 494,0 494,-19"/>
<text text-anchor="middle" x="472" y="-7" font-family="Helvetica,sans-Serif" font-size="10.00">string</text>
</a>
</g>
</g>
<!-- Node1&#45;&gt;Node4 -->
<g id="edge3_Node000001_Node000004" class="edge">
<title>Node1&#45;&gt;Node4</title>
<g id="a_edge3_Node000001_Node000004"><a xlink:title=" ">
<path fill="none" stroke="#63b8ff" d="M443.23,-168.97C340.7,-159.36 131.81,-132.85 95,-74 57.64,-14.27 341.5,-9.94 439.52,-10.2"/>
<polygon fill="#63b8ff" stroke="#63b8ff" points="439.71,-13.7 449.73,-10.24 439.75,-6.7 439.71,-13.7"/>
</a>
</g>
</g>
<!-- Node5 -->
<g id="Node000005" class="node">
<title>Node5</title>
<g id="a_Node000005"><a xlink:title=" ">
<polygon fill="#e0e0e0" stroke="#999999" points="668,-74 612,-74 612,-55 668,-55 668,-74"/>
<text text-anchor="middle" x="640" y="-62" font-family="Helvetica,sans-Serif" font-size="10.00">optional</text>
</a>
</g>
</g>
<!-- Node1&#45;&gt;Node5 -->
<g id="edge4_Node000001_Node000005" class="edge">
<title>Node1&#45;&gt;Node5</title>
<g id="a_edge4_Node000001_Node000005"><a xlink:title=" ">
<path fill="none" stroke="#63b8ff" d="M511.46,-164.66C535.47,-146.14 591.29,-103.08 620.85,-80.28"/>
<polygon fill="#63b8ff" stroke="#63b8ff" points="623,-83.04 628.78,-74.16 618.72,-77.5 623,-83.04"/>
</a>
</g>
</g>
<!-- Node6 -->
<g id="Node000006" class="node">
<title>Node6</title>
<g id="a_Node000006"><a xlink:title=" ">
<polygon fill="#e0e0e0" stroke="#999999" points="1277.5,-74 1212.5,-74 1212.5,-55 1277.5,-55 1277.5,-74"/>
<text text-anchor="middle" x="1245" y="-62" font-family="Helvetica,sans-Serif" font-size="10.00">functional</text>
</a>
</g>
</g>
<!-- Node1&#45;&gt;Node6 -->
<g id="edge5_Node000001_Node000006" class="edge">
<title>Node1&#45;&gt;Node6</title>
<g id="a_edge5_Node000001_Node000006"><a xlink:title=" ">
<path fill="none" stroke="#63b8ff" d="M556.9,-172.54C690.65,-169.8 1021.77,-160.01 1128,-129 1164.46,-118.36 1202.33,-95.21 1224.77,-80"/>
<polygon fill="#63b8ff" stroke="#63b8ff" points="1226.89,-82.78 1233.12,-74.21 1222.91,-77.03 1226.89,-82.78"/>
</a>
</g>
</g>
<!-- Node7 -->
<g id="Node000007" class="node">
<title>Node7</title>
<g id="a_Node000007"><a xlink:href="field_8h.html" target="_top" xlink:title=" ">
<polygon fill="white" stroke="#666666" points="355,-129 259,-129 259,-110 355,-110 355,-129"/>
<text text-anchor="middle" x="307" y="-117" font-family="Helvetica,sans-Serif" font-size="10.00">webcface/field.h</text>
</a>
</g>
</g>
<!-- Node1&#45;&gt;Node7 -->
<g id="edge6_Node000001_Node000007" class="edge">
<title>Node1&#45;&gt;Node7</title>
<g id="a_edge6_Node000001_Node000007"><a xlink:title=" ">
<path fill="none" stroke="#63b8ff" d="M468.99,-164.98C436.17,-155.97 384.2,-141.7 348.01,-131.76"/>
<polygon fill="#63b8ff" stroke="#63b8ff" points="348.82,-128.36 338.25,-129.08 346.97,-135.11 348.82,-128.36"/>
</a>
</g>
</g>
<!-- Node10 -->
<g id="Node000010" class="node">
<title>Node10</title>
<g id="a_Node000010"><a xlink:href="def_8h.html" target="_top" xlink:title=" ">
<polygon fill="white" stroke="#666666" points="190,-74 104,-74 104,-55 190,-55 190,-74"/>
<text text-anchor="middle" x="147" y="-62" font-family="Helvetica,sans-Serif" font-size="10.00">common/def.h</text>
</a>
</g>
</g>
<!-- Node1&#45;&gt;Node10 -->
<g id="edge24_Node000001_Node000010" class="edge">
<title>Node1&#45;&gt;Node10</title>
<g id="a_edge24_Node000001_Node000010"><a xlink:title=" ">
<path fill="none" stroke="#63b8ff" d="M443.28,-169.51C391.52,-164.45 313.64,-153.27 250,-129 218.34,-116.93 185.69,-94.86 165.86,-80.18"/>
<polygon fill="#63b8ff" stroke="#63b8ff" points="167.79,-77.26 157.7,-74.02 163.57,-82.84 167.79,-77.26"/>
</a>
</g>
</g>
<!-- Node11 -->
<g id="Node000011" class="node">
<title>Node11</title>
<g id="a_Node000011"><a xlink:href="dict_8h.html" target="_top" xlink:title=" ">
<polygon fill="white" stroke="#666666" points="784.5,-129 645.5,-129 645.5,-110 784.5,-110 784.5,-129"/>
<text text-anchor="middle" x="715" y="-117" font-family="Helvetica,sans-Serif" font-size="10.00">webcface/common/dict.h</text>
</a>
</g>
</g>
<!-- Node1&#45;&gt;Node11 -->
<g id="edge12_Node000001_Node000011" class="edge">
<title>Node1&#45;&gt;Node11</title>
<g id="a_edge12_Node000001_Node000011"><a xlink:title=" ">
<path fill="none" stroke="#63b8ff" d="M534.54,-164.98C571.42,-155.89 629.99,-141.46 670.34,-131.51"/>
<polygon fill="#63b8ff" stroke="#63b8ff" points="671.31,-134.87 680.19,-129.08 669.64,-128.08 671.31,-134.87"/>
</a>
</g>
</g>
<!-- Node17 -->
<g id="Node000017" class="node">
<title>Node17</title>
<g id="a_Node000017"><a xlink:href="common_2func_8h.html" target="_top" xlink:title=" ">
<polygon fill="white" stroke="#666666" points="1119,-129 977,-129 977,-110 1119,-110 1119,-129"/>
<text text-anchor="middle" x="1048" y="-117" font-family="Helvetica,sans-Serif" font-size="10.00">webcface/common/func.h</text>
</a>
</g>
</g>
<!-- Node1&#45;&gt;Node17 -->
<g id="edge25_Node000001_Node000017" class="edge">
<title>Node1&#45;&gt;Node17</title>
<g id="a_edge25_Node000001_Node000017"><a xlink:title=" ">
<path fill="none" stroke="#63b8ff" d="M556.58,-168.03C654.04,-158.6 853.91,-139.27 966.41,-128.39"/>
<polygon fill="#63b8ff" stroke="#63b8ff" points="967.06,-131.84 976.68,-127.4 966.39,-124.88 967.06,-131.84"/>
</a>
</g>
</g>
<!-- Node23 -->
<g id="Node000023" class="node">
<title>Node23</title>
<g id="a_Node000023"><a xlink:href="common_2view_8h.html" target="_top" xlink:title=" ">
<polygon fill="white" stroke="#666666" points="521.5,-129 378.5,-129 378.5,-110 521.5,-110 521.5,-129"/>
<text text-anchor="middle" x="450" y="-117" font-family="Helvetica,sans-Serif" font-size="10.00">webcface/common/view.h</text>
</a>
</g>
</g>
<!-- Node1&#45;&gt;Node23 -->
<g id="edge41_Node000001_Node000023" class="edge">
<title>Node1&#45;&gt;Node23</title>
<g id="a_edge41_Node000001_Node000023"><a xlink:title=" ">
<path fill="none" stroke="#63b8ff" d="M491.74,-164.75C484.54,-157.11 473.89,-145.82 465.15,-136.56"/>
<polygon fill="#63b8ff" stroke="#63b8ff" points="467.51,-133.96 458.1,-129.09 462.42,-138.76 467.51,-133.96"/>
</a>
</g>
</g>
<!-- Node7&#45;&gt;Node4 -->
<g id="edge8_Node000007_Node000004" class="edge">
<title>Node7&#45;&gt;Node4</title>
<g id="a_edge8_Node000007_Node000004"><a xlink:title=" ">
<path fill="none" stroke="#63b8ff" d="M284.45,-109.9C257.67,-98.42 218.79,-76.99 237,-55 262.37,-24.37 381.38,-14.66 439.66,-11.72"/>
<polygon fill="#63b8ff" stroke="#63b8ff" points="439.98,-15.21 449.8,-11.24 439.65,-8.21 439.98,-15.21"/>
</a>
</g>
</g>
<!-- Node8 -->
<g id="Node000008" class="node">
<title>Node8</title>
<g id="a_Node000008"><a xlink:title=" ">
<polygon fill="#e0e0e0" stroke="#999999" points="444,-74 386,-74 386,-55 444,-55 444,-74"/>
<text text-anchor="middle" x="415" y="-62" font-family="Helvetica,sans-Serif" font-size="10.00">memory</text>
</a>
</g>
</g>
<!-- Node7&#45;&gt;Node8 -->
<g id="edge7_Node000007_Node000008" class="edge">
<title>Node7&#45;&gt;Node8</title>
<g id="a_edge7_Node000007_Node000008"><a xlink:title=" ">
<path fill="none" stroke="#63b8ff" d="M324.35,-109.98C341.57,-101.54 368.2,-88.47 388.15,-78.68"/>
<polygon fill="#63b8ff" stroke="#63b8ff" points="389.9,-81.72 397.33,-74.17 386.81,-75.43 389.9,-81.72"/>
</a>
</g>
</g>
<!-- Node9 -->
<g id="Node000009" class="node">
<title>Node9</title>
<g id="a_Node000009"><a xlink:href="field__base_8h.html" target="_top" xlink:title=" ">
<polygon fill="white" stroke="#666666" points="367.5,-74 246.5,-74 246.5,-55 367.5,-55 367.5,-74"/>
<text text-anchor="middle" x="307" y="-62" font-family="Helvetica,sans-Serif" font-size="10.00">common/field_base.h</text>
</a>
</g>
</g>
<!-- Node7&#45;&gt;Node9 -->
<g id="edge9_Node000007_Node000009" class="edge">
<title>Node7&#45;&gt;Node9</title>
<g id="a_edge9_Node000007_Node000009"><a xlink:title=" ">
<path fill="none" stroke="#63b8ff" d="M307,-109.75C307,-102.8 307,-92.85 307,-84.13"/>
<polygon fill="#63b8ff" stroke="#63b8ff" points="310.5,-84.09 307,-74.09 303.5,-84.09 310.5,-84.09"/>
</a>
</g>
</g>
<!-- Node7&#45;&gt;Node10 -->
<g id="edge11_Node000007_Node000010" class="edge">
<title>Node7&#45;&gt;Node10</title>
<g id="a_edge11_Node000007_Node000010"><a xlink:title=" ">
<path fill="none" stroke="#63b8ff" d="M281.29,-109.98C254.55,-101.13 212.47,-87.19 182.55,-77.28"/>
<polygon fill="#63b8ff" stroke="#63b8ff" points="183.5,-73.9 172.91,-74.08 181.3,-80.55 183.5,-73.9"/>
</a>
</g>
</g>
<!-- Node9&#45;&gt;Node4 -->
<g id="edge10_Node000009_Node000004" class="edge">
<title>Node9&#45;&gt;Node4</title>
<g id="a_edge10_Node000009_Node000004"><a xlink:title=" ">
<path fill="none" stroke="#63b8ff" d="M333.51,-54.98C362.48,-45.68 408.9,-30.77 439.91,-20.81"/>
<polygon fill="#63b8ff" stroke="#63b8ff" points="441.34,-24.03 449.79,-17.63 439.2,-17.36 441.34,-24.03"/>
</a>
</g>
</g>
<!-- Node11&#45;&gt;Node3 -->
<g id="edge14_Node000011_Node000003" class="edge">
<title>Node11&#45;&gt;Node3</title>
<g id="a_edge14_Node000011_Node000003"><a xlink:title=" ">
<path fill="none" stroke="#63b8ff" d="M688.01,-109.98C659.8,-101.09 615.36,-87.07 583.92,-77.15"/>
<polygon fill="#63b8ff" stroke="#63b8ff" points="584.79,-73.75 574.2,-74.08 582.69,-80.43 584.79,-73.75"/>
</a>
</g>
</g>
<!-- Node11&#45;&gt;Node4 -->
<g id="edge13_Node000011_Node000004" class="edge">
<title>Node11&#45;&gt;Node4</title>
<g id="a_edge13_Node000011_Node000004"><a xlink:title=" ">
<path fill="none" stroke="#63b8ff" d="M712.38,-109.98C707.68,-96.14 696.41,-68.94 677,-55 624.91,-17.6 547.49,-10.6 504.23,-9.87"/>
<polygon fill="#63b8ff" stroke="#63b8ff" points="504.03,-6.37 494.01,-9.8 503.99,-13.37 504.03,-6.37"/>
</a>
</g>
</g>
<!-- Node11&#45;&gt;Node5 -->
<g id="edge16_Node000011_Node000005" class="edge">
<title>Node11&#45;&gt;Node5</title>
<g id="a_edge16_Node000011_Node000005"><a xlink:title=" ">
<path fill="none" stroke="#63b8ff" d="M702.95,-109.98C691.54,-101.92 674.17,-89.65 660.57,-80.03"/>
<polygon fill="#63b8ff" stroke="#63b8ff" points="662.46,-77.08 652.27,-74.17 658.42,-82.8 662.46,-77.08"/>
</a>
</g>
</g>
<!-- Node11&#45;&gt;Node8 -->
<g id="edge17_Node000011_Node000008" class="edge">
<title>Node11&#45;&gt;Node8</title>
<g id="a_edge17_Node000011_Node000008"><a xlink:title=" ">
<path fill="none" stroke="#63b8ff" d="M666.8,-109.98C607.67,-99.54 508.58,-82.03 454,-72.39"/>
<polygon fill="#63b8ff" stroke="#63b8ff" points="454.49,-68.92 444.03,-70.63 453.27,-75.81 454.49,-68.92"/>
</a>
</g>
</g>
<!-- Node12 -->
<g id="Node000012" class="node">
<title>Node12</title>
<g id="a_Node000012"><a xlink:title=" ">
<polygon fill="#e0e0e0" stroke="#999999" points="790.5,-19 707.5,-19 707.5,0 790.5,0 790.5,-19"/>
<text text-anchor="middle" x="749" y="-7" font-family="Helvetica,sans-Serif" font-size="10.00">initializer_list</text>
</a>
</g>
</g>
<!-- Node11&#45;&gt;Node12 -->
<g id="edge15_Node000011_Node000012" class="edge">
<title>Node11&#45;&gt;Node12</title>
<g id="a_edge15_Node000011_Node000012"><a xlink:title=" ">
<path fill="none" stroke="#63b8ff" d="M717.78,-109.66C723.31,-92.09 735.79,-52.45 743.19,-28.95"/>
<polygon fill="#63b8ff" stroke="#63b8ff" points="746.61,-29.75 746.27,-19.16 739.93,-27.65 746.61,-29.75"/>
</a>
</g>
</g>
<!-- Node13 -->
<g id="Node000013" class="node">
<title>Node13</title>
<g id="a_Node000013"><a xlink:title=" ">
<polygon fill="#e0e0e0" stroke="#999999" points="870.5,-19 823.5,-19 823.5,0 870.5,0 870.5,-19"/>
<text text-anchor="middle" x="847" y="-7" font-family="Helvetica,sans-Serif" font-size="10.00">vector</text>
</a>
</g>
</g>
<!-- Node11&#45;&gt;Node13 -->
<g id="edge18_Node000011_Node000013" class="edge">
<title>Node11&#45;&gt;Node13</title>
<g id="a_edge18_Node000011_Node000013"><a xlink:title=" ">
<path fill="none" stroke="#63b8ff" d="M760.93,-109.98C783.59,-103.59 809.69,-92.62 827,-74 838.42,-61.71 843.32,-42.93 845.42,-28.98"/>
<polygon fill="#63b8ff" stroke="#63b8ff" points="848.9,-29.38 846.58,-19.05 841.95,-28.58 848.9,-29.38"/>
</a>
</g>
</g>
<!-- Node14 -->
<g id="Node000014" class="node">
<title>Node14</title>
<g id="a_Node000014"><a xlink:title=" ">
<polygon fill="#e0e0e0" stroke="#999999" points="981.5,-74 912.5,-74 912.5,-55 981.5,-55 981.5,-74"/>
<text text-anchor="middle" x="947" y="-62" font-family="Helvetica,sans-Serif" font-size="10.00">type_traits</text>
</a>
</g>
</g>
<!-- Node11&#45;&gt;Node14 -->
<g id="edge19_Node000011_Node000014" class="edge">
<title>Node11&#45;&gt;Node14</title>
<g id="a_edge19_Node000011_Node000014"><a xlink:title=" ">
<path fill="none" stroke="#63b8ff" d="M752.27,-109.98C793.27,-100.62 859.11,-85.58 902.71,-75.62"/>
<polygon fill="#63b8ff" stroke="#63b8ff" points="903.5,-79.03 912.47,-73.39 901.94,-72.2 903.5,-79.03"/>
</a>
</g>
</g>
<!-- Node15 -->
<g id="Node000015" class="node">
<title>Node15</title>
<g id="a_Node000015"><a xlink:title=" ">
<polygon fill="#e0e0e0" stroke="#999999" points="953,-19 893,-19 893,0 953,0 953,-19"/>
<text text-anchor="middle" x="923" y="-7" font-family="Helvetica,sans-Serif" font-size="10.00">concepts</text>
</a>
</g>
</g>
<!-- Node11&#45;&gt;Node15 -->
<g id="edge20_Node000011_Node000015" class="edge">
<title>Node11&#45;&gt;Node15</title>
<g id="a_edge20_Node000011_Node000015"><a xlink:title=" ">
<path fill="none" stroke="#63b8ff" d="M751.22,-109.99C778.38,-102.73 815.89,-90.78 846,-74 869.5,-60.9 892.81,-40.34 907.53,-26.18"/>
<polygon fill="#63b8ff" stroke="#63b8ff" points="910.09,-28.57 914.76,-19.06 905.18,-23.58 910.09,-28.57"/>
</a>
</g>
</g>
<!-- Node16 -->
<g id="Node000016" class="node">
<title>Node16</title>
<g id="a_Node000016"><a xlink:href="vector_8h.html" target="_top" xlink:title=" ">
<polygon fill="white" stroke="#666666" points="818,-74 762,-74 762,-55 818,-55 818,-74"/>
<text text-anchor="middle" x="790" y="-62" font-family="Helvetica,sans-Serif" font-size="10.00">vector.h</text>
</a>
</g>
</g>
<!-- Node11&#45;&gt;Node16 -->
<g id="edge21_Node000011_Node000016" class="edge">
<title>Node11&#45;&gt;Node16</title>
<g id="a_edge21_Node000011_Node000016"><a xlink:title=" ">
<path fill="none" stroke="#63b8ff" d="M727.05,-109.98C738.46,-101.92 755.83,-89.65 769.43,-80.03"/>
<polygon fill="#63b8ff" stroke="#63b8ff" points="771.58,-82.8 777.73,-74.17 767.54,-77.08 771.58,-82.8"/>
</a>
</g>
</g>
<!-- Node16&#45;&gt;Node12 -->
<g id="edge23_Node000016_Node000012" class="edge">
<title>Node16&#45;&gt;Node12</title>
<g id="a_edge23_Node000016_Node000012"><a xlink:title=" ">
<path fill="none" stroke="#63b8ff" d="M783.23,-54.75C777.44,-47.26 768.94,-36.28 761.86,-27.13"/>
<polygon fill="#63b8ff" stroke="#63b8ff" points="764.53,-24.86 755.64,-19.09 758.99,-29.14 764.53,-24.86"/>
</a>
</g>
</g>
<!-- Node16&#45;&gt;Node13 -->
<g id="edge22_Node000016_Node000013" class="edge">
<title>Node16&#45;&gt;Node13</title>
<g id="a_edge22_Node000016_Node000013"><a xlink:title=" ">
<path fill="none" stroke="#63b8ff" d="M799.16,-54.98C807.5,-47.23 820.03,-35.58 830.18,-26.14"/>
<polygon fill="#63b8ff" stroke="#63b8ff" points="832.74,-28.54 837.68,-19.17 827.97,-23.42 832.74,-28.54"/>
</a>
</g>
</g>
<!-- Node17&#45;&gt;Node4 -->
<g id="edge30_Node000017_Node000004" class="edge">
<title>Node17&#45;&gt;Node4</title>
<g id="a_edge30_Node000017_Node000004"><a xlink:title=" ">
<path fill="none" stroke="#63b8ff" d="M1043.08,-109.61C1034.58,-95.24 1015.66,-67.29 991,-55 947.47,-33.3 610.64,-16.65 504.16,-11.88"/>
<polygon fill="#63b8ff" stroke="#63b8ff" points="504.17,-8.38 494.02,-11.43 503.86,-15.37 504.17,-8.38"/>
</a>
</g>
</g>
<!-- Node17&#45;&gt;Node5 -->
<g id="edge29_Node000017_Node000005" class="edge">
<title>Node17&#45;&gt;Node5</title>
<g id="a_edge29_Node000017_Node000005"><a xlink:title=" ">
<path fill="none" stroke="#63b8ff" d="M982.45,-109.98C896.32,-98.8 747.84,-79.51 678.17,-70.46"/>
<polygon fill="#63b8ff" stroke="#63b8ff" points="678.46,-66.97 668.09,-69.15 677.55,-73.91 678.46,-66.97"/>
</a>
</g>
</g>
<!-- Node17&#45;&gt;Node6 -->
<g id="edge28_Node000017_Node000006" class="edge">
<title>Node17&#45;&gt;Node6</title>
<g id="a_edge28_Node000017_Node000006"><a xlink:title=" ">
<path fill="none" stroke="#63b8ff" d="M1079.65,-109.98C1113.16,-100.97 1166.2,-86.7 1203.14,-76.76"/>
<polygon fill="#63b8ff" stroke="#63b8ff" points="1204.35,-80.06 1213.1,-74.08 1202.53,-73.3 1204.35,-80.06"/>
</a>
</g>
</g>
<!-- Node17&#45;&gt;Node13 -->
<g id="edge26_Node000017_Node000013" class="edge">
<title>Node17&#45;&gt;Node13</title>
<g id="a_edge26_Node000017_Node000013"><a xlink:title=" ">
<path fill="none" stroke="#63b8ff" d="M1047.21,-109.68C1045.51,-95.92 1040.19,-69.43 1024,-55 1021.28,-52.58 931.19,-30.69 880.62,-18.54"/>
<polygon fill="#63b8ff" stroke="#63b8ff" points="881.31,-15.1 870.77,-16.17 879.68,-21.91 881.31,-15.1"/>
</a>
</g>
</g>
<!-- Node17&#45;&gt;Node14 -->
<g id="edge27_Node000017_Node000014" class="edge">
<title>Node17&#45;&gt;Node14</title>
<g id="a_edge27_Node000017_Node000014"><a xlink:title=" ">
<path fill="none" stroke="#63b8ff" d="M1031.77,-109.98C1015.82,-101.61 991.22,-88.7 972.62,-78.95"/>
<polygon fill="#63b8ff" stroke="#63b8ff" points="974,-75.72 963.52,-74.17 970.75,-81.92 974,-75.72"/>
</a>
</g>
</g>
<!-- Node18 -->
<g id="Node000018" class="node">
<title>Node18</title>
<g id="a_Node000018"><a xlink:title=" ">
<polygon fill="#e0e0e0" stroke="#999999" points="1172.5,-19 1115.5,-19 1115.5,0 1172.5,0 1172.5,-19"/>
<text text-anchor="middle" x="1144" y="-7" font-family="Helvetica,sans-Serif" font-size="10.00">ostream</text>
</a>
</g>
</g>
<!-- Node17&#45;&gt;Node18 -->
<g id="edge31_Node000017_Node000018" class="edge">
<title>Node17&#45;&gt;Node18</title>
<g id="a_edge31_Node000017_Node000018"><a xlink:title=" ">
<path fill="none" stroke="#63b8ff" d="M1074.02,-109.95C1091.45,-102.92 1113.59,-91.29 1127,-74 1136.95,-61.18 1141.09,-43.01 1142.8,-29.39"/>
<polygon fill="#63b8ff" stroke="#63b8ff" points="1146.31,-29.52 1143.75,-19.24 1139.34,-28.87 1146.31,-29.52"/>
</a>
</g>
</g>
<!-- Node19 -->
<g id="Node000019" class="node">
<title>Node19</title>
<g id="a_Node000019"><a xlink:title=" ">
<polygon fill="#e0e0e0" stroke="#999999" points="1241,-19 1191,-19 1191,0 1241,0 1241,-19"/>
<text text-anchor="middle" x="1216" y="-7" font-family="Helvetica,sans-Serif" font-size="10.00">cstdint</text>
</a>
</g>
</g>
<!-- Node17&#45;&gt;Node19 -->
<g id="edge32_Node000017_Node000019" class="edge">
<title>Node17&#45;&gt;Node19</title>
<g id="a_edge32_Node000017_Node000019"><a xlink:title=" ">
<path fill="none" stroke="#63b8ff" d="M1071.76,-109.92C1092.05,-102.06 1121.6,-89.33 1145,-74 1166.05,-60.21 1187.15,-40.39 1200.82,-26.57"/>
<polygon fill="#63b8ff" stroke="#63b8ff" points="1203.5,-28.83 1207.94,-19.22 1198.47,-23.96 1203.5,-28.83"/>
</a>
</g>
</g>
<!-- Node20 -->
<g id="Node000020" class="node">
<title>Node20</title>
<g id="a_Node000020"><a xlink:href="val_8h.html" target="_top" xlink:title=" ">
<polygon fill="white" stroke="#666666" points="1117.5,-74 1076.5,-74 1076.5,-55 1117.5,-55 1117.5,-74"/>
<text text-anchor="middle" x="1097" y="-62" font-family="Helvetica,sans-Serif" font-size="10.00">val.h</text>
</a>
</g>
</g>
<!-- Node17&#45;&gt;Node20 -->
<g id="edge33_Node000017_Node000020" class="edge">
<title>Node17&#45;&gt;Node20</title>
<g id="a_edge33_Node000017_Node000020"><a xlink:title=" ">
<path fill="none" stroke="#63b8ff" d="M1056.09,-109.75C1063.16,-102.11 1073.59,-90.82 1082.15,-81.56"/>
<polygon fill="#63b8ff" stroke="#63b8ff" points="1084.84,-83.81 1089.06,-74.09 1079.7,-79.06 1084.84,-83.81"/>
</a>
</g>
</g>
<!-- Node20&#45;&gt;Node4 -->
<g id="edge34_Node000020_Node000004" class="edge">
<title>Node20&#45;&gt;Node4</title>
<g id="a_edge34_Node000020_Node000004"><a xlink:title=" ">
<path fill="none" stroke="#63b8ff" d="M1076.25,-60.89C1061.65,-59.09 1041.65,-56.74 1024,-55 826.72,-35.57 589.16,-18.57 504.16,-12.69"/>
<polygon fill="#63b8ff" stroke="#63b8ff" points="504.33,-9.2 494.11,-12 503.85,-16.18 504.33,-9.2"/>
</a>
</g>
</g>
<!-- Node20&#45;&gt;Node13 -->
<g id="edge35_Node000020_Node000013" class="edge">
<title>Node20&#45;&gt;Node13</title>
<g id="a_edge35_Node000020_Node000013"><a xlink:title=" ">
<path fill="none" stroke="#63b8ff" d="M1076.3,-58.33C1071.61,-57.2 1066.64,-56.03 1062,-55 983.21,-37.47 962.89,-36.04 884,-19 882.94,-18.77 881.86,-18.54 880.77,-18.3"/>
<polygon fill="#63b8ff" stroke="#63b8ff" points="881.39,-14.85 870.86,-16.08 879.86,-21.68 881.39,-14.85"/>
</a>
</g>
</g>
<!-- Node20&#45;&gt;Node15 -->
<g id="edge37_Node000020_Node000015" class="edge">
<title>Node20&#45;&gt;Node15</title>
<g id="a_edge37_Node000020_Node000015"><a xlink:title=" ">
<path fill="none" stroke="#63b8ff" d="M1076.36,-57.21C1048.01,-48.58 996.52,-32.89 961.07,-22.1"/>
<polygon fill="#63b8ff" stroke="#63b8ff" points="961.67,-18.62 951.09,-19.05 959.63,-25.32 961.67,-18.62"/>
</a>
</g>
</g>
<!-- Node20&#45;&gt;Node18 -->
<g id="edge40_Node000020_Node000018" class="edge">
<title>Node20&#45;&gt;Node18</title>
<g id="a_edge40_Node000020_Node000018"><a xlink:title=" ">
<path fill="none" stroke="#63b8ff" d="M1104.76,-54.75C1111.47,-47.18 1121.34,-36.05 1129.51,-26.84"/>
<polygon fill="#63b8ff" stroke="#63b8ff" points="1132.37,-28.89 1136.38,-19.09 1127.13,-24.25 1132.37,-28.89"/>
</a>
</g>
</g>
<!-- Node20&#45;&gt;Node19 -->
<g id="edge39_Node000020_Node000019" class="edge">
<title>Node20&#45;&gt;Node19</title>
<g id="a_edge39_Node000020_Node000019"><a xlink:title=" ">
<path fill="none" stroke="#63b8ff" d="M1116.12,-54.98C1135.35,-46.42 1165.23,-33.11 1187.31,-23.28"/>
<polygon fill="#63b8ff" stroke="#63b8ff" points="1188.82,-26.44 1196.53,-19.17 1185.97,-20.04 1188.82,-26.44"/>
</a>
</g>
</g>
<!-- Node21 -->
<g id="Node000021" class="node">
<title>Node21</title>
<g id="a_Node000021"><a xlink:title=" ">
<polygon fill="#e0e0e0" stroke="#999999" points="1014.5,-19 973.5,-19 973.5,0 1014.5,0 1014.5,-19"/>
<text text-anchor="middle" x="994" y="-7" font-family="Helvetica,sans-Serif" font-size="10.00">tuple</text>
</a>
</g>
</g>
<!-- Node20&#45;&gt;Node21 -->
<g id="edge36_Node000020_Node000021" class="edge">
<title>Node20&#45;&gt;Node21</title>
<g id="a_edge36_Node000020_Node000021"><a xlink:title=" ">
<path fill="none" stroke="#63b8ff" d="M1080.45,-54.98C1064.11,-46.57 1038.87,-33.59 1019.87,-23.81"/>
<polygon fill="#63b8ff" stroke="#63b8ff" points="1021.34,-20.63 1010.85,-19.17 1018.14,-26.86 1021.34,-20.63"/>
</a>
</g>
</g>
<!-- Node22 -->
<g id="Node000022" class="node">
<title>Node22</title>
<g id="a_Node000022"><a xlink:title=" ">
<polygon fill="#e0e0e0" stroke="#999999" points="1097.5,-19 1032.5,-19 1032.5,0 1097.5,0 1097.5,-19"/>
<text text-anchor="middle" x="1065" y="-7" font-family="Helvetica,sans-Serif" font-size="10.00">stdexcept</text>
</a>
</g>
</g>
<!-- Node20&#45;&gt;Node22 -->
<g id="edge38_Node000020_Node000022" class="edge">
<title>Node20&#45;&gt;Node22</title>
<g id="a_edge38_Node000020_Node000022"><a xlink:title=" ">
<path fill="none" stroke="#63b8ff" d="M1091.72,-54.75C1087.29,-47.42 1080.84,-36.73 1075.38,-27.7"/>
<polygon fill="#63b8ff" stroke="#63b8ff" points="1078.35,-25.84 1070.19,-19.09 1072.36,-29.46 1078.35,-25.84"/>
</a>
</g>
</g>
<!-- Node23&#45;&gt;Node4 -->
<g id="edge42_Node000023_Node000004" class="edge">
<title>Node23&#45;&gt;Node4</title>
<g id="a_edge42_Node000023_Node000004"><a xlink:title=" ">
<path fill="none" stroke="#63b8ff" d="M451.8,-109.66C455.36,-92.17 463.38,-52.8 468.18,-29.27"/>
<polygon fill="#63b8ff" stroke="#63b8ff" points="471.67,-29.66 470.24,-19.16 464.81,-28.26 471.67,-29.66"/>
</a>
</g>
</g>
<!-- Node23&#45;&gt;Node5 -->
<g id="edge43_Node000023_Node000005" class="edge">
<title>Node23&#45;&gt;Node5</title>
<g id="a_edge43_Node000023_Node000005"><a xlink:title=" ">
<path fill="none" stroke="#63b8ff" d="M480.53,-109.98C513.47,-100.8 565.98,-86.15 601.68,-76.19"/>
<polygon fill="#63b8ff" stroke="#63b8ff" points="603.03,-79.45 611.72,-73.39 601.15,-72.7 603.03,-79.45"/>
</a>
</g>
</g>
<!-- Node23&#45;&gt;Node9 -->
<g id="edge44_Node000023_Node000009" class="edge">
<title>Node23&#45;&gt;Node9</title>
<g id="a_edge44_Node000023_Node000009"><a xlink:title=" ">
<path fill="none" stroke="#63b8ff" d="M427.02,-109.98C403.5,-101.27 366.71,-87.63 340.06,-77.75"/>
<polygon fill="#63b8ff" stroke="#63b8ff" points="340.99,-74.36 330.39,-74.17 338.55,-80.93 340.99,-74.36"/>
</a>
</g>
</g>
</g>
</svg>
