<?xml version="1.0" encoding="UTF-8" standalone="no"?>
<!DOCTYPE svg PUBLIC "-//W3C//DTD SVG 1.1//EN"
 "http://www.w3.org/Graphics/SVG/1.1/DTD/svg11.dtd">
<!-- Generated by graphviz version 2.43.0 (0)
 -->
<!-- Title: include/webcface/common/def.h Pages: 1 -->
<svg width="1764pt" height="511pt"
 viewBox="0.00 0.00 1763.50 511.00" xmlns="http://www.w3.org/2000/svg" xmlns:xlink="http://www.w3.org/1999/xlink">
<g id="graph0" class="graph" transform="scale(1 1) rotate(0) translate(4 507)">
<title>include/webcface/common/def.h</title>
<!-- Node1 -->
<g id="Node000001" class="node">
<title>Node1</title>
<g id="a_Node000001"><a xlink:title=" ">
<polygon fill="#999999" stroke="#666666" points="1261.5,-503 1114.5,-503 1114.5,-473 1261.5,-473 1261.5,-503"/>
<text text-anchor="start" x="1122.5" y="-491" font-family="Helvetica,sans-Serif" font-size="10.00">include/webcface/common</text>
<text text-anchor="middle" x="1188" y="-480" font-family="Helvetica,sans-Serif" font-size="10.00">/def.h</text>
</a>
</g>
</g>
<!-- Node2 -->
<g id="Node000002" class="node">
<title>Node2</title>
<g id="a_Node000002"><a xlink:href="client_8cc.html" target="_top" xlink:title=" ">
<polygon fill="white" stroke="#666666" points="513.5,-19 426.5,-19 426.5,0 513.5,0 513.5,-19"/>
<text text-anchor="middle" x="470" y="-7" font-family="Helvetica,sans-Serif" font-size="10.00">client/client.cc</text>
</a>
</g>
</g>
<!-- Node1&#45;&gt;Node2 -->
<g id="edge1_Node000001_Node000002" class="edge">
<title>Node1&#45;&gt;Node2</title>
<g id="a_edge1_Node000001_Node000002"><a xlink:title=" ">
<path fill="none" stroke="#63b8ff" d="M1103.96,-487.4C833.03,-487.57 0,-479.09 0,-368 0,-368 0,-368 0,-179 0,-139.22 25.38,-134.13 57,-110 104.28,-73.91 121.97,-71.87 179,-55 224.46,-41.55 356.83,-24.23 426.29,-15.71"/>
<polygon fill="#63b8ff" stroke="#63b8ff" points="1104.14,-490.9 1114.13,-487.38 1104.13,-483.9 1104.14,-490.9"/>
</a>
</g>
</g>
<!-- Node3 -->
<g id="Node000003" class="node">
<title>Node3</title>
<g id="a_Node000003"><a xlink:href="client_8h.html" target="_top" xlink:title=" ">
<polygon fill="white" stroke="#666666" points="1212,-74 1072,-74 1072,-55 1212,-55 1212,-74"/>
<text text-anchor="middle" x="1142" y="-62" font-family="Helvetica,sans-Serif" font-size="10.00">include/webcface/client.h</text>
</a>
</g>
</g>
<!-- Node1&#45;&gt;Node3 -->
<g id="edge2_Node000001_Node000003" class="edge">
<title>Node1&#45;&gt;Node3</title>
<g id="a_edge2_Node000001_Node000003"><a xlink:title=" ">
<path fill="none" stroke="#63b8ff" d="M1188,-462.7C1188,-438.65 1188,-400.79 1188,-368 1188,-368 1188,-368 1188,-179 1188,-137.11 1160.76,-92.48 1148.2,-74.13"/>
<polygon fill="#63b8ff" stroke="#63b8ff" points="1184.5,-462.71 1188,-472.71 1191.5,-462.71 1184.5,-462.71"/>
</a>
</g>
</g>
<!-- Node5 -->
<g id="Node000005" class="node">
<title>Node5</title>
<g id="a_Node000005"><a xlink:href="webcface_8h.html" target="_top" xlink:title=" ">
<polygon fill="white" stroke="#666666" points="986,-19 826,-19 826,0 986,0 986,-19"/>
<text text-anchor="middle" x="906" y="-7" font-family="Helvetica,sans-Serif" font-size="10.00">include/webcface/webcface.h</text>
</a>
</g>
</g>
<!-- Node1&#45;&gt;Node5 -->
<g id="edge68_Node000001_Node000005" class="edge">
<title>Node1&#45;&gt;Node5</title>
<g id="a_edge68_Node000001_Node000005"><a xlink:title=" ">
<path fill="none" stroke="#63b8ff" d="M1229.4,-468.42C1311.26,-428.53 1486,-326.37 1486,-181 1486,-181 1486,-181 1486,-118.5 1486,-42.82 1401.45,-73.25 1328,-55 1265.26,-39.41 1090.22,-24.28 986.33,-16.31"/>
<polygon fill="#63b8ff" stroke="#63b8ff" points="1227.4,-465.5 1219.89,-472.98 1230.42,-471.81 1227.4,-465.5"/>
</a>
</g>
</g>
<!-- Node6 -->
<g id="Node000006" class="node">
<title>Node6</title>
<g id="a_Node000006"><a xlink:href="client__data_8h.html" target="_top" xlink:title=" ">
<polygon fill="white" stroke="#666666" points="940.5,-195 809.5,-195 809.5,-165 940.5,-165 940.5,-195"/>
<text text-anchor="start" x="817.5" y="-183" font-family="Helvetica,sans-Serif" font-size="10.00">include/webcface/client</text>
<text text-anchor="middle" x="875" y="-172" font-family="Helvetica,sans-Serif" font-size="10.00">_data.h</text>
</a>
</g>
</g>
<!-- Node1&#45;&gt;Node6 -->
<g id="edge6_Node000001_Node000006" class="edge">
<title>Node1&#45;&gt;Node6</title>
<g id="a_edge6_Node000001_Node000006"><a xlink:title=" ">
<path fill="none" stroke="#63b8ff" d="M1141.67,-468.53C1123.95,-460.3 1104.14,-449.59 1088,-437 992.05,-362.12 909.88,-237.3 883.7,-195.29"/>
<polygon fill="#63b8ff" stroke="#63b8ff" points="1140.71,-471.94 1151.27,-472.85 1143.58,-465.55 1140.71,-471.94"/>
</a>
</g>
</g>
<!-- Node11 -->
<g id="Node000011" class="node">
<title>Node11</title>
<g id="a_Node000011"><a xlink:href="func_8h.html" target="_top" xlink:title=" ">
<polygon fill="white" stroke="#666666" points="1084,-129 950,-129 950,-110 1084,-110 1084,-129"/>
<text text-anchor="middle" x="1017" y="-117" font-family="Helvetica,sans-Serif" font-size="10.00">include/webcface/func.h</text>
</a>
</g>
</g>
<!-- Node1&#45;&gt;Node11 -->
<g id="edge61_Node000001_Node000011" class="edge">
<title>Node1&#45;&gt;Node11</title>
<g id="a_edge61_Node000001_Node000011"><a xlink:title=" ">
<path fill="none" stroke="#63b8ff" d="M1160.65,-466.44C1135.47,-444.94 1102,-408.71 1102,-368 1102,-368 1102,-368 1102,-245 1102,-193.44 1051.66,-147.51 1028.46,-129.07"/>
<polygon fill="#63b8ff" stroke="#63b8ff" points="1158.54,-469.23 1168.49,-472.89 1162.99,-463.83 1158.54,-469.23"/>
</a>
</g>
</g>
<!-- Node17 -->
<g id="Node000017" class="node">
<title>Node17</title>
<g id="a_Node000017"><a xlink:href="field_8h.html" target="_top" xlink:title=" ">
<polygon fill="white" stroke="#666666" points="646,-437 512,-437 512,-418 646,-418 646,-437"/>
<text text-anchor="middle" x="579" y="-425" font-family="Helvetica,sans-Serif" font-size="10.00">include/webcface/field.h</text>
</a>
</g>
</g>
<!-- Node1&#45;&gt;Node17 -->
<g id="edge36_Node000001_Node000017" class="edge">
<title>Node1&#45;&gt;Node17</title>
<g id="a_edge36_Node000001_Node000017"><a xlink:title=" ">
<path fill="none" stroke="#63b8ff" d="M1104.19,-478.95C982.16,-467.23 757.94,-445.69 646.11,-434.95"/>
<polygon fill="#63b8ff" stroke="#63b8ff" points="1103.95,-482.44 1114.24,-479.91 1104.62,-475.47 1103.95,-482.44"/>
</a>
</g>
</g>
<!-- Node19 -->
<g id="Node000019" class="node">
<title>Node19</title>
<g id="a_Node000019"><a xlink:href="member_8h.html" target="_top" xlink:title=" ">
<polygon fill="white" stroke="#666666" points="711,-316 557,-316 557,-297 711,-297 711,-316"/>
<text text-anchor="middle" x="634" y="-304" font-family="Helvetica,sans-Serif" font-size="10.00">include/webcface/member.h</text>
</a>
</g>
</g>
<!-- Node1&#45;&gt;Node19 -->
<g id="edge67_Node000001_Node000019" class="edge">
<title>Node1&#45;&gt;Node19</title>
<g id="a_edge67_Node000001_Node000019"><a xlink:title=" ">
<path fill="none" stroke="#63b8ff" d="M1104.48,-471.93C1061.22,-463.3 1007.81,-451.32 961,-437 840.43,-400.11 701.6,-338.47 652.43,-316.01"/>
<polygon fill="#63b8ff" stroke="#63b8ff" points="1103.9,-475.39 1114.39,-473.89 1105.26,-468.52 1103.9,-475.39"/>
</a>
</g>
</g>
<!-- Node21 -->
<g id="Node000021" class="node">
<title>Node21</title>
<g id="a_Node000021"><a xlink:href="logger_8h.html" target="_top" xlink:title=" ">
<polygon fill="white" stroke="#666666" points="1367.5,-255.5 1224.5,-255.5 1224.5,-236.5 1367.5,-236.5 1367.5,-255.5"/>
<text text-anchor="middle" x="1296" y="-243.5" font-family="Helvetica,sans-Serif" font-size="10.00">include/webcface/logger.h</text>
</a>
</g>
</g>
<!-- Node1&#45;&gt;Node21 -->
<g id="edge62_Node000001_Node000021" class="edge">
<title>Node1&#45;&gt;Node21</title>
<g id="a_edge62_Node000001_Node000021"><a xlink:title=" ">
<path fill="none" stroke="#63b8ff" d="M1198.68,-463.27C1222.11,-411.19 1277.17,-288.85 1292.17,-255.52"/>
<polygon fill="#63b8ff" stroke="#63b8ff" points="1195.34,-462.15 1194.43,-472.71 1201.73,-465.02 1195.34,-462.15"/>
</a>
</g>
</g>
<!-- Node22 -->
<g id="Node000022" class="node">
<title>Node22</title>
<g id="a_Node000022"><a xlink:href="s__client__data_8cc.html" target="_top" xlink:title=" ">
<polygon fill="white" stroke="#666666" points="1521,-437 1393,-437 1393,-418 1521,-418 1521,-437"/>
<text text-anchor="middle" x="1457" y="-425" font-family="Helvetica,sans-Serif" font-size="10.00">server/s_client_data.cc</text>
</a>
</g>
</g>
<!-- Node1&#45;&gt;Node22 -->
<g id="edge69_Node000001_Node000022" class="edge">
<title>Node1&#45;&gt;Node22</title>
<g id="a_edge69_Node000001_Node000022"><a xlink:title=" ">
<path fill="none" stroke="#63b8ff" d="M1262.29,-470.84C1312.58,-459.91 1377.02,-445.89 1417.67,-437.05"/>
<polygon fill="#63b8ff" stroke="#63b8ff" points="1261.46,-467.44 1252.43,-472.99 1262.95,-474.28 1261.46,-467.44"/>
</a>
</g>
</g>
<!-- Node23 -->
<g id="Node000023" class="node">
<title>Node23</title>
<g id="a_Node000023"><a xlink:href="websock_8cc.html" target="_top" xlink:title=" ">
<polygon fill="white" stroke="#666666" points="1646.5,-437 1539.5,-437 1539.5,-418 1646.5,-418 1646.5,-437"/>
<text text-anchor="middle" x="1593" y="-425" font-family="Helvetica,sans-Serif" font-size="10.00">server/websock.cc</text>
</a>
</g>
</g>
<!-- Node1&#45;&gt;Node23 -->
<g id="edge70_Node000001_Node000023" class="edge">
<title>Node1&#45;&gt;Node23</title>
<g id="a_edge70_Node000001_Node000023"><a xlink:title=" ">
<path fill="none" stroke="#63b8ff" d="M1271.91,-474.88C1352.27,-463.27 1471.11,-446.11 1539.41,-436.24"/>
<polygon fill="#63b8ff" stroke="#63b8ff" points="1271.21,-471.44 1261.81,-476.34 1272.21,-478.37 1271.21,-471.44"/>
</a>
</g>
</g>
<!-- Node24 -->
<g id="Node000024" class="node">
<title>Node24</title>
<g id="a_Node000024"><a xlink:href="server__main_8cc.html" target="_top" xlink:title=" ">
<polygon fill="white" stroke="#666666" points="1755.5,-437 1664.5,-437 1664.5,-418 1755.5,-418 1755.5,-437"/>
<text text-anchor="middle" x="1710" y="-425" font-family="Helvetica,sans-Serif" font-size="10.00">server_main.cc</text>
</a>
</g>
</g>
<!-- Node1&#45;&gt;Node24 -->
<g id="edge71_Node000001_Node000024" class="edge">
<title>Node1&#45;&gt;Node24</title>
<g id="a_edge71_Node000001_Node000024"><a xlink:title=" ">
<path fill="none" stroke="#63b8ff" d="M1271.89,-479.3C1365.67,-470.41 1521.95,-454.7 1656,-437 1658.73,-436.64 1661.53,-436.25 1664.36,-435.85"/>
<polygon fill="#63b8ff" stroke="#63b8ff" points="1271.52,-475.82 1261.9,-480.25 1272.18,-482.79 1271.52,-475.82"/>
</a>
</g>
</g>
<!-- Node3&#45;&gt;Node2 -->
<g id="edge3_Node000003_Node000002" class="edge">
<title>Node3&#45;&gt;Node2</title>
<g id="a_edge3_Node000003_Node000002"><a xlink:title=" ">
<path fill="none" stroke="#63b8ff" d="M1061.96,-57.19C919.08,-45.92 624.68,-22.7 513.66,-13.94"/>
<polygon fill="#63b8ff" stroke="#63b8ff" points="1061.74,-60.68 1071.99,-57.98 1062.29,-53.7 1061.74,-60.68"/>
</a>
</g>
</g>
<!-- Node4 -->
<g id="Node000004" class="node">
<title>Node4</title>
<g id="a_Node000004"><a xlink:href="client__ws_8cc.html" target="_top" xlink:title=" ">
<polygon fill="white" stroke="#666666" points="1195,-19 1089,-19 1089,0 1195,0 1195,-19"/>
<text text-anchor="middle" x="1142" y="-7" font-family="Helvetica,sans-Serif" font-size="10.00">client/client_ws.cc</text>
</a>
</g>
</g>
<!-- Node3&#45;&gt;Node4 -->
<g id="edge4_Node000003_Node000004" class="edge">
<title>Node3&#45;&gt;Node4</title>
<g id="a_edge4_Node000003_Node000004"><a xlink:title=" ">
<path fill="none" stroke="#63b8ff" d="M1142,-44.66C1142,-35.93 1142,-25.99 1142,-19.09"/>
<polygon fill="#63b8ff" stroke="#63b8ff" points="1138.5,-44.75 1142,-54.75 1145.5,-44.75 1138.5,-44.75"/>
</a>
</g>
</g>
<!-- Node3&#45;&gt;Node5 -->
<g id="edge5_Node000003_Node000005" class="edge">
<title>Node3&#45;&gt;Node5</title>
<g id="a_edge5_Node000003_Node000005"><a xlink:title=" ">
<path fill="none" stroke="#63b8ff" d="M1094.15,-52.75C1049.92,-42.82 985.07,-28.26 944.21,-19.08"/>
<polygon fill="#63b8ff" stroke="#63b8ff" points="1093.56,-56.21 1104.08,-54.98 1095.09,-49.38 1093.56,-56.21"/>
</a>
</g>
</g>
<!-- Node6&#45;&gt;Node3 -->
<g id="edge11_Node000006_Node000003" class="edge">
<title>Node6&#45;&gt;Node3</title>
<g id="a_edge11_Node000006_Node000003"><a xlink:title=" ">
<path fill="none" stroke="#63b8ff" d="M950.61,-164.27C1008.62,-152.53 1080.79,-136.82 1093,-129 1114.81,-115.03 1130.8,-87.84 1137.91,-74.01"/>
<polygon fill="#63b8ff" stroke="#63b8ff" points="949.82,-160.86 940.7,-166.26 951.2,-167.72 949.82,-160.86"/>
</a>
</g>
</g>
<!-- Node6&#45;&gt;Node5 -->
<g id="edge35_Node000006_Node000005" class="edge">
<title>Node6&#45;&gt;Node5</title>
<g id="a_edge35_Node000006_Node000005"><a xlink:title=" ">
<path fill="none" stroke="#63b8ff" d="M836.44,-159.64C817.41,-147.19 800.23,-129.7 809,-110 818.73,-88.15 832.1,-90.92 849,-74 867.63,-55.34 887.91,-31.93 898.54,-19.4"/>
<polygon fill="#63b8ff" stroke="#63b8ff" points="834.86,-162.78 845.22,-164.99 838.5,-156.8 834.86,-162.78"/>
</a>
</g>
</g>
<!-- Node7 -->
<g id="Node000007" class="node">
<title>Node7</title>
<g id="a_Node000007"><a xlink:href="client__data_8cc.html" target="_top" xlink:title=" ">
<polygon fill="white" stroke="#666666" points="932,-129 818,-129 818,-110 932,-110 932,-129"/>
<text text-anchor="middle" x="875" y="-117" font-family="Helvetica,sans-Serif" font-size="10.00">client/client_data.cc</text>
</a>
</g>
</g>
<!-- Node6&#45;&gt;Node7 -->
<g id="edge7_Node000006_Node000007" class="edge">
<title>Node6&#45;&gt;Node7</title>
<g id="a_edge7_Node000006_Node000007"><a xlink:title=" ">
<path fill="none" stroke="#63b8ff" d="M875,-154.75C875,-145.72 875,-136.03 875,-129.27"/>
<polygon fill="#63b8ff" stroke="#63b8ff" points="871.5,-154.84 875,-164.84 878.5,-154.84 871.5,-154.84"/>
</a>
</g>
</g>
<!-- Node8 -->
<g id="Node000008" class="node">
<title>Node8</title>
<g id="a_Node000008"><a xlink:href="field_8cc.html" target="_top" xlink:title=" ">
<polygon fill="white" stroke="#666666" points="571.5,-129 490.5,-129 490.5,-110 571.5,-110 571.5,-129"/>
<text text-anchor="middle" x="531" y="-117" font-family="Helvetica,sans-Serif" font-size="10.00">client/field.cc</text>
</a>
</g>
</g>
<!-- Node6&#45;&gt;Node8 -->
<g id="edge8_Node000006_Node000008" class="edge">
<title>Node6&#45;&gt;Node8</title>
<g id="a_edge8_Node000006_Node000008"><a xlink:title=" ">
<path fill="none" stroke="#63b8ff" d="M799.37,-166.14C729.19,-154.2 627.39,-136.89 571.5,-127.39"/>
<polygon fill="#63b8ff" stroke="#63b8ff" points="799.04,-169.63 809.49,-167.86 800.21,-162.73 799.04,-169.63"/>
</a>
</g>
</g>
<!-- Node9 -->
<g id="Node000009" class="node">
<title>Node9</title>
<g id="a_Node000009"><a xlink:href="logger_8cc.html" target="_top" xlink:title=" ">
<polygon fill="white" stroke="#666666" points="1306,-129 1216,-129 1216,-110 1306,-110 1306,-129"/>
<text text-anchor="middle" x="1261" y="-117" font-family="Helvetica,sans-Serif" font-size="10.00">client/logger.cc</text>
</a>
</g>
</g>
<!-- Node6&#45;&gt;Node9 -->
<g id="edge9_Node000006_Node000009" class="edge">
<title>Node6&#45;&gt;Node9</title>
<g id="a_edge9_Node000006_Node000009"><a xlink:title=" ">
<path fill="none" stroke="#63b8ff" d="M950.81,-167.51C1029.75,-155.55 1150.79,-137.2 1215.87,-127.34"/>
<polygon fill="#63b8ff" stroke="#63b8ff" points="950.28,-164.05 940.92,-169.01 951.33,-170.97 950.28,-164.05"/>
</a>
</g>
</g>
<!-- Node10 -->
<g id="Node000010" class="node">
<title>Node10</title>
<g id="a_Node000010"><a xlink:href="member_8cc.html" target="_top" xlink:title=" ">
<polygon fill="white" stroke="#666666" points="390.5,-19 289.5,-19 289.5,0 390.5,0 390.5,-19"/>
<text text-anchor="middle" x="340" y="-7" font-family="Helvetica,sans-Serif" font-size="10.00">client/member.cc</text>
</a>
</g>
</g>
<!-- Node6&#45;&gt;Node10 -->
<g id="edge10_Node000006_Node000010" class="edge">
<title>Node6&#45;&gt;Node10</title>
<g id="a_edge10_Node000006_Node000010"><a xlink:title=" ">
<path fill="none" stroke="#63b8ff" d="M832.55,-160.93C770.05,-134.83 649.16,-86.29 543,-55 490.74,-39.6 429.51,-26.88 388.06,-19.04"/>
<polygon fill="#63b8ff" stroke="#63b8ff" points="831.5,-164.28 842.07,-164.92 834.2,-157.82 831.5,-164.28"/>
</a>
</g>
</g>
<!-- Node6&#45;&gt;Node11 -->
<g id="edge12_Node000006_Node000011" class="edge">
<title>Node6&#45;&gt;Node11</title>
<g id="a_edge12_Node000006_Node000011"><a xlink:title=" ">
<path fill="none" stroke="#63b8ff" d="M918.56,-161.05C944.3,-150.45 975.72,-137.51 996.03,-129.14"/>
<polygon fill="#63b8ff" stroke="#63b8ff" points="916.93,-157.94 909.01,-164.99 919.59,-164.41 916.93,-157.94"/>
</a>
</g>
</g>
<!-- Node13 -->
<g id="Node000013" class="node">
<title>Node13</title>
<g id="a_Node000013"><a xlink:href="view_8h.html" target="_top" xlink:title=" ">
<polygon fill="white" stroke="#666666" points="840,-74 704,-74 704,-55 840,-55 840,-74"/>
<text text-anchor="middle" x="772" y="-62" font-family="Helvetica,sans-Serif" font-size="10.00">include/webcface/view.h</text>
</a>
</g>
</g>
<!-- Node6&#45;&gt;Node13 -->
<g id="edge34_Node000006_Node000013" class="edge">
<title>Node6&#45;&gt;Node13</title>
<g id="a_edge34_Node000006_Node000013"><a xlink:title=" ">
<path fill="none" stroke="#63b8ff" d="M814.56,-160.67C799.6,-153.23 785.22,-142.98 776,-129 764.93,-112.22 767.58,-87.2 770.04,-74.14"/>
<polygon fill="#63b8ff" stroke="#63b8ff" points="813.37,-163.97 823.92,-164.95 816.28,-157.61 813.37,-163.97"/>
</a>
</g>
</g>
<!-- Node14 -->
<g id="Node000014" class="node">
<title>Node14</title>
<g id="a_Node000014"><a xlink:href="log_8h.html" target="_top" xlink:title=" ">
<polygon fill="white" stroke="#666666" points="534,-74 406,-74 406,-55 534,-55 534,-74"/>
<text text-anchor="middle" x="470" y="-62" font-family="Helvetica,sans-Serif" font-size="10.00">include/webcface/log.h</text>
</a>
</g>
</g>
<!-- Node6&#45;&gt;Node14 -->
<g id="edge22_Node000006_Node000014" class="edge">
<title>Node6&#45;&gt;Node14</title>
<g id="a_edge22_Node000006_Node000014"><a xlink:title=" ">
<path fill="none" stroke="#63b8ff" d="M815.13,-162.22C727.48,-137.66 567.42,-92.8 500.59,-74.07"/>
<polygon fill="#63b8ff" stroke="#63b8ff" points="814.36,-165.64 824.93,-164.97 816.25,-158.9 814.36,-165.64"/>
</a>
</g>
</g>
<!-- Node15 -->
<g id="Node000015" class="node">
<title>Node15</title>
<g id="a_Node000015"><a xlink:href="text_8h.html" target="_top" xlink:title=" ">
<polygon fill="white" stroke="#666666" points="387.5,-74 254.5,-74 254.5,-55 387.5,-55 387.5,-74"/>
<text text-anchor="middle" x="321" y="-62" font-family="Helvetica,sans-Serif" font-size="10.00">include/webcface/text.h</text>
</a>
</g>
</g>
<!-- Node6&#45;&gt;Node15 -->
<g id="edge26_Node000006_Node000015" class="edge">
<title>Node6&#45;&gt;Node15</title>
<g id="a_edge26_Node000006_Node000015"><a xlink:title=" ">
<path fill="none" stroke="#63b8ff" d="M799.42,-166.21C751.36,-157.38 688.04,-144.47 633,-129 608.91,-122.23 604.2,-116.36 580,-110 515.58,-93.06 440.4,-80.97 387.68,-73.7"/>
<polygon fill="#63b8ff" stroke="#63b8ff" points="798.97,-169.69 809.44,-168.03 800.22,-162.8 798.97,-169.69"/>
</a>
</g>
</g>
<!-- Node16 -->
<g id="Node000016" class="node">
<title>Node16</title>
<g id="a_Node000016"><a xlink:href="value_8h.html" target="_top" xlink:title=" ">
<polygon fill="white" stroke="#666666" points="206,-129 66,-129 66,-110 206,-110 206,-129"/>
<text text-anchor="middle" x="136" y="-117" font-family="Helvetica,sans-Serif" font-size="10.00">include/webcface/value.h</text>
</a>
</g>
</g>
<!-- Node6&#45;&gt;Node16 -->
<g id="edge30_Node000006_Node000016" class="edge">
<title>Node6&#45;&gt;Node16</title>
<g id="a_edge30_Node000006_Node000016"><a xlink:title=" ">
<path fill="none" stroke="#63b8ff" d="M799.37,-173.01C655.78,-161.65 345.6,-137.09 206.27,-126.06"/>
<polygon fill="#63b8ff" stroke="#63b8ff" points="799.17,-176.51 809.42,-173.81 799.73,-169.53 799.17,-176.51"/>
</a>
</g>
</g>
<!-- Node11&#45;&gt;Node2 -->
<g id="edge13_Node000011_Node000002" class="edge">
<title>Node11&#45;&gt;Node2</title>
<g id="a_edge13_Node000011_Node000002"><a xlink:title=" ">
<path fill="none" stroke="#63b8ff" d="M989.46,-105.69C956.72,-91.03 900.06,-67.45 849,-55 729.76,-25.93 584.63,-15.63 513.52,-12.16"/>
<polygon fill="#63b8ff" stroke="#63b8ff" points="988.27,-109 998.82,-109.93 991.16,-102.62 988.27,-109"/>
</a>
</g>
</g>
<!-- Node11&#45;&gt;Node3 -->
<g id="edge16_Node000011_Node000003" class="edge">
<title>Node11&#45;&gt;Node3</title>
<g id="a_edge16_Node000011_Node000003"><a xlink:title=" ">
<path fill="none" stroke="#63b8ff" d="M1046.41,-106.03C1069.53,-96.23 1101.13,-82.83 1121.55,-74.17"/>
<polygon fill="#63b8ff" stroke="#63b8ff" points="1044.92,-102.86 1037.08,-109.98 1047.66,-109.3 1044.92,-102.86"/>
</a>
</g>
</g>
<!-- Node11&#45;&gt;Node5 -->
<g id="edge21_Node000011_Node000005" class="edge">
<title>Node11&#45;&gt;Node5</title>
<g id="a_edge21_Node000011_Node000005"><a xlink:title=" ">
<path fill="none" stroke="#63b8ff" d="M1024.96,-100.51C1029.69,-86.85 1033.15,-68.23 1024,-55 1010.99,-36.18 988.93,-25.31 967.39,-19.04"/>
<polygon fill="#63b8ff" stroke="#63b8ff" points="1021.71,-99.22 1021.29,-109.81 1028.22,-101.79 1021.71,-99.22"/>
</a>
</g>
</g>
<!-- Node11&#45;&gt;Node10 -->
<g id="edge15_Node000011_Node000010" class="edge">
<title>Node11&#45;&gt;Node10</title>
<g id="a_edge15_Node000011_Node000010"><a xlink:title=" ">
<path fill="none" stroke="#63b8ff" d="M939.74,-108.66C859.83,-98.34 740.49,-82.46 695,-74 658.65,-67.24 650.27,-62.19 614,-55 536.47,-39.63 445.83,-25.69 390.69,-17.66"/>
<polygon fill="#63b8ff" stroke="#63b8ff" points="939.4,-112.15 949.77,-109.96 940.3,-105.21 939.4,-112.15"/>
</a>
</g>
</g>
<!-- Node12 -->
<g id="Node000012" class="node">
<title>Node12</title>
<g id="a_Node000012"><a xlink:href="func_8cc.html" target="_top" xlink:title=" ">
<polygon fill="white" stroke="#666666" points="1015.5,-74 934.5,-74 934.5,-55 1015.5,-55 1015.5,-74"/>
<text text-anchor="middle" x="975" y="-62" font-family="Helvetica,sans-Serif" font-size="10.00">client/func.cc</text>
</a>
</g>
</g>
<!-- Node11&#45;&gt;Node12 -->
<g id="edge14_Node000011_Node000012" class="edge">
<title>Node11&#45;&gt;Node12</title>
<g id="a_edge14_Node000011_Node000012"><a xlink:title=" ">
<path fill="none" stroke="#63b8ff" d="M1003.67,-101.67C996.39,-92.5 987.7,-81.52 981.81,-74.09"/>
<polygon fill="#63b8ff" stroke="#63b8ff" points="1001.11,-104.08 1010.06,-109.75 1006.6,-99.74 1001.11,-104.08"/>
</a>
</g>
</g>
<!-- Node11&#45;&gt;Node13 -->
<g id="edge17_Node000011_Node000013" class="edge">
<title>Node11&#45;&gt;Node13</title>
<g id="a_edge17_Node000011_Node000013"><a xlink:title=" ">
<path fill="none" stroke="#63b8ff" d="M967.61,-107.82C921.7,-97.88 854.17,-83.28 811.67,-74.08"/>
<polygon fill="#63b8ff" stroke="#63b8ff" points="967.12,-111.29 977.64,-109.98 968.6,-104.45 967.12,-111.29"/>
</a>
</g>
</g>
<!-- Node13&#45;&gt;Node2 -->
<g id="edge18_Node000013_Node000002" class="edge">
<title>Node13&#45;&gt;Node2</title>
<g id="a_edge18_Node000013_Node000002"><a xlink:title=" ">
<path fill="none" stroke="#63b8ff" d="M713.63,-53.26C655.05,-42.98 566.16,-27.38 513.5,-18.13"/>
<polygon fill="#63b8ff" stroke="#63b8ff" points="713.02,-56.7 723.48,-54.98 714.23,-49.81 713.02,-56.7"/>
</a>
</g>
</g>
<!-- Node13&#45;&gt;Node5 -->
<g id="edge20_Node000013_Node000005" class="edge">
<title>Node13&#45;&gt;Node5</title>
<g id="a_edge20_Node000013_Node000005"><a xlink:title=" ">
<path fill="none" stroke="#63b8ff" d="M802.87,-51.29C827.7,-41.47 861.99,-27.91 884.08,-19.17"/>
<polygon fill="#63b8ff" stroke="#63b8ff" points="801.54,-48.05 793.53,-54.98 804.12,-54.56 801.54,-48.05"/>
</a>
</g>
</g>
<!-- Node13&#45;&gt;Node10 -->
<g id="edge19_Node000013_Node000010" class="edge">
<title>Node13&#45;&gt;Node10</title>
<g id="a_edge19_Node000013_Node000010"><a xlink:title=" ">
<path fill="none" stroke="#63b8ff" d="M693.61,-53.88C605.56,-43.08 465.24,-25.86 390.58,-16.71"/>
<polygon fill="#63b8ff" stroke="#63b8ff" points="693.2,-57.36 703.55,-55.1 694.05,-50.41 693.2,-57.36"/>
</a>
</g>
</g>
<!-- Node14&#45;&gt;Node2 -->
<g id="edge23_Node000014_Node000002" class="edge">
<title>Node14&#45;&gt;Node2</title>
<g id="a_edge23_Node000014_Node000002"><a xlink:title=" ">
<path fill="none" stroke="#63b8ff" d="M470,-44.66C470,-35.93 470,-25.99 470,-19.09"/>
<polygon fill="#63b8ff" stroke="#63b8ff" points="466.5,-44.75 470,-54.75 473.5,-44.75 466.5,-44.75"/>
</a>
</g>
</g>
<!-- Node14&#45;&gt;Node5 -->
<g id="edge25_Node000014_Node000005" class="edge">
<title>Node14&#45;&gt;Node5</title>
<g id="a_edge25_Node000014_Node000005"><a xlink:title=" ">
<path fill="none" stroke="#63b8ff" d="M544.54,-54.44C626.2,-44.51 756.16,-28.71 835.98,-19.01"/>
<polygon fill="#63b8ff" stroke="#63b8ff" points="543.84,-51 534.33,-55.68 544.68,-57.95 543.84,-51"/>
</a>
</g>
</g>
<!-- Node14&#45;&gt;Node10 -->
<g id="edge24_Node000014_Node000010" class="edge">
<title>Node14&#45;&gt;Node10</title>
<g id="a_edge24_Node000014_Node000010"><a xlink:title=" ">
<path fill="none" stroke="#63b8ff" d="M439.73,-51.16C415.66,-41.35 382.6,-27.87 361.27,-19.17"/>
<polygon fill="#63b8ff" stroke="#63b8ff" points="438.53,-54.45 449.11,-54.98 441.17,-47.97 438.53,-54.45"/>
</a>
</g>
</g>
<!-- Node15&#45;&gt;Node2 -->
<g id="edge27_Node000015_Node000002" class="edge">
<title>Node15&#45;&gt;Node2</title>
<g id="a_edge27_Node000015_Node000002"><a xlink:title=" ">
<path fill="none" stroke="#63b8ff" d="M354.59,-51.55C382.26,-41.71 420.84,-27.98 445.62,-19.17"/>
<polygon fill="#63b8ff" stroke="#63b8ff" points="353.19,-48.34 344.94,-54.98 355.53,-54.93 353.19,-48.34"/>
</a>
</g>
</g>
<!-- Node15&#45;&gt;Node5 -->
<g id="edge29_Node000015_Node000005" class="edge">
<title>Node15&#45;&gt;Node5</title>
<g id="a_edge29_Node000015_Node000005"><a xlink:title=" ">
<path fill="none" stroke="#63b8ff" d="M398.1,-54.91C555.95,-39.28 727.53,-24.9 825.72,-16.92"/>
<polygon fill="#63b8ff" stroke="#63b8ff" points="397.32,-51.47 387.72,-55.95 398.02,-58.44 397.32,-51.47"/>
</a>
</g>
</g>
<!-- Node15&#45;&gt;Node10 -->
<g id="edge28_Node000015_Node000010" class="edge">
<title>Node15&#45;&gt;Node10</title>
<g id="a_edge28_Node000015_Node000010"><a xlink:title=" ">
<path fill="none" stroke="#63b8ff" d="M327.55,-45.24C330.72,-36.37 334.39,-26.14 336.92,-19.09"/>
<polygon fill="#63b8ff" stroke="#63b8ff" points="324.22,-44.15 324.14,-54.75 330.81,-46.52 324.22,-44.15"/>
</a>
</g>
</g>
<!-- Node16&#45;&gt;Node2 -->
<g id="edge31_Node000016_Node000002" class="edge">
<title>Node16&#45;&gt;Node2</title>
<g id="a_edge31_Node000016_Node000002"><a xlink:title=" ">
<path fill="none" stroke="#63b8ff" d="M150.33,-102.42C164.49,-87.63 187.51,-66.33 212,-55 231.13,-46.15 358,-26.76 426.43,-16.75"/>
<polygon fill="#63b8ff" stroke="#63b8ff" points="147.66,-100.15 143.43,-109.87 152.8,-104.91 147.66,-100.15"/>
</a>
</g>
</g>
<!-- Node16&#45;&gt;Node5 -->
<g id="edge33_Node000016_Node000005" class="edge">
<title>Node16&#45;&gt;Node5</title>
<g id="a_edge33_Node000016_Node000005"><a xlink:title=" ">
<path fill="none" stroke="#63b8ff" d="M159.17,-104.91C190.83,-86.37 243.83,-55.36 245,-55 351.33,-22.42 674.18,-13.67 825.77,-11.34"/>
<polygon fill="#63b8ff" stroke="#63b8ff" points="157.35,-101.92 150.49,-110 160.89,-107.96 157.35,-101.92"/>
</a>
</g>
</g>
<!-- Node16&#45;&gt;Node10 -->
<g id="edge32_Node000016_Node000010" class="edge">
<title>Node16&#45;&gt;Node10</title>
<g id="a_edge32_Node000016_Node000010"><a xlink:title=" ">
<path fill="none" stroke="#63b8ff" d="M130.26,-99.66C127.28,-85.81 126.07,-67.33 136,-55 154.87,-31.57 235.05,-19.81 289.08,-14.44"/>
<polygon fill="#63b8ff" stroke="#63b8ff" points="126.93,-100.78 132.85,-109.57 133.7,-99.01 126.93,-100.78"/>
</a>
</g>
</g>
<!-- Node17&#45;&gt;Node5 -->
<g id="edge60_Node000017_Node000005" class="edge">
<title>Node17&#45;&gt;Node5</title>
<g id="a_edge60_Node000017_Node000005"><a xlink:title=" ">
<path fill="none" stroke="#63b8ff" d="M656.36,-422.79C839.12,-412.19 1288.83,-374.84 1376,-261 1435.52,-183.27 1385.37,-99.17 1298,-55 1270.88,-41.29 1092.91,-25.2 986.32,-16.62"/>
<polygon fill="#63b8ff" stroke="#63b8ff" points="656.07,-419.3 646.28,-423.36 656.46,-426.29 656.07,-419.3"/>
</a>
</g>
</g>
<!-- Node17&#45;&gt;Node6 -->
<g id="edge38_Node000017_Node000006" class="edge">
<title>Node17&#45;&gt;Node6</title>
<g id="a_edge38_Node000017_Node000006"><a xlink:title=" ">
<path fill="none" stroke="#63b8ff" d="M598.52,-411.71C625.97,-390.81 677.38,-351.22 720,-316 771.99,-273.04 831.7,-219.93 859.39,-195.07"/>
<polygon fill="#63b8ff" stroke="#63b8ff" points="596.33,-408.98 590.49,-417.82 600.57,-414.55 596.33,-408.98"/>
</a>
</g>
</g>
<!-- Node17&#45;&gt;Node8 -->
<g id="edge37_Node000017_Node000008" class="edge">
<title>Node17&#45;&gt;Node8</title>
<g id="a_edge37_Node000017_Node000008"><a xlink:title=" ">
<path fill="none" stroke="#63b8ff" d="M565.69,-409.89C549.42,-387.86 524,-347.11 524,-307.5 524,-307.5 524,-307.5 524,-245 524,-201.49 528.32,-149.55 530.17,-129.25"/>
<polygon fill="#63b8ff" stroke="#63b8ff" points="562.95,-412.07 571.81,-417.88 568.51,-407.81 562.95,-412.07"/>
</a>
</g>
</g>
<!-- Node17&#45;&gt;Node14 -->
<g id="edge56_Node000017_Node000014" class="edge">
<title>Node17&#45;&gt;Node14</title>
<g id="a_edge56_Node000017_Node000014"><a xlink:title=" ">
<path fill="none" stroke="#63b8ff" d="M556.99,-412.1C529.49,-392.17 486,-353.4 486,-307.5 486,-307.5 486,-307.5 486,-245 486,-178.98 475.13,-99.85 471.31,-74.07"/>
<polygon fill="#63b8ff" stroke="#63b8ff" points="555.08,-415.03 565.28,-417.89 559.08,-409.3 555.08,-415.03"/>
</a>
</g>
</g>
<!-- Node17&#45;&gt;Node15 -->
<g id="edge58_Node000017_Node000015" class="edge">
<title>Node17&#45;&gt;Node15</title>
<g id="a_edge58_Node000017_Node000015"><a xlink:title=" ">
<path fill="none" stroke="#63b8ff" d="M501.39,-425.27C426.62,-422.25 321.11,-412.51 295,-382 214.36,-287.74 295.55,-114.68 316.4,-74.15"/>
<polygon fill="#63b8ff" stroke="#63b8ff" points="501.6,-428.78 511.73,-425.66 501.86,-421.79 501.6,-428.78"/>
</a>
</g>
</g>
<!-- Node17&#45;&gt;Node16 -->
<g id="edge59_Node000017_Node000016" class="edge">
<title>Node17&#45;&gt;Node16</title>
<g id="a_edge59_Node000017_Node000016"><a xlink:title=" ">
<path fill="none" stroke="#63b8ff" d="M501.61,-422.81C387.8,-416.7 185.9,-403.05 160,-382 133,-360.06 136,-342.29 136,-307.5 136,-307.5 136,-307.5 136,-245 136,-201.55 136,-149.58 136,-129.25"/>
<polygon fill="#63b8ff" stroke="#63b8ff" points="501.49,-426.31 511.66,-423.34 501.86,-419.32 501.49,-426.31"/>
</a>
</g>
</g>
<!-- Node18 -->
<g id="Node000018" class="node">
<title>Node18</title>
<g id="a_Node000018"><a xlink:href="event__target_8h.html" target="_top" xlink:title=" ">
<polygon fill="white" stroke="#666666" points="436,-382 304,-382 304,-352 436,-352 436,-382"/>
<text text-anchor="start" x="312" y="-370" font-family="Helvetica,sans-Serif" font-size="10.00">include/webcface/event</text>
<text text-anchor="middle" x="370" y="-359" font-family="Helvetica,sans-Serif" font-size="10.00">_target.h</text>
</a>
</g>
</g>
<!-- Node17&#45;&gt;Node18 -->
<g id="edge39_Node000017_Node000018" class="edge">
<title>Node17&#45;&gt;Node18</title>
<g id="a_edge39_Node000017_Node000018"><a xlink:title=" ">
<path fill="none" stroke="#63b8ff" d="M538.63,-415.2C504.86,-405.75 456.52,-392.22 420.25,-382.06"/>
<polygon fill="#63b8ff" stroke="#63b8ff" points="538.04,-418.67 548.61,-417.99 539.92,-411.93 538.04,-418.67"/>
</a>
</g>
</g>
<!-- Node17&#45;&gt;Node19 -->
<g id="edge57_Node000017_Node000019" class="edge">
<title>Node17&#45;&gt;Node19</title>
<g id="a_edge57_Node000017_Node000019"><a xlink:title=" ">
<path fill="none" stroke="#63b8ff" d="M587.29,-408.55C599.27,-382.64 620.95,-335.74 629.93,-316.3"/>
<polygon fill="#63b8ff" stroke="#63b8ff" points="583.97,-407.4 582.96,-417.94 590.33,-410.33 583.97,-407.4"/>
</a>
</g>
</g>
<!-- Node20 -->
<g id="Node000020" class="node">
<title>Node20</title>
<g id="a_Node000020"><a xlink:href="func__result_8h.html" target="_top" xlink:title=" ">
<polygon fill="white" stroke="#666666" points="1071.5,-261 946.5,-261 946.5,-231 1071.5,-231 1071.5,-261"/>
<text text-anchor="start" x="954.5" y="-249" font-family="Helvetica,sans-Serif" font-size="10.00">include/webcface/func</text>
<text text-anchor="middle" x="1009" y="-238" font-family="Helvetica,sans-Serif" font-size="10.00">_result.h</text>
</a>
</g>
</g>
<!-- Node17&#45;&gt;Node20 -->
<g id="edge55_Node000017_Node000020" class="edge">
<title>Node17&#45;&gt;Node20</title>
<g id="a_edge55_Node000017_Node000020"><a xlink:title=" ">
<path fill="none" stroke="#63b8ff" d="M656.1,-421.87C735.88,-415.98 854.26,-403.85 894,-382 946.61,-353.07 985.8,-289.88 1001.48,-261.41"/>
<polygon fill="#63b8ff" stroke="#63b8ff" points="655.81,-418.38 646.09,-422.59 656.31,-425.36 655.81,-418.38"/>
</a>
</g>
</g>
<!-- Node18&#45;&gt;Node3 -->
<g id="edge41_Node000018_Node000003" class="edge">
<title>Node18&#45;&gt;Node3</title>
<g id="a_edge41_Node000018_Node000003"><a xlink:title=" ">
<path fill="none" stroke="#63b8ff" d="M397.88,-345.47C407.36,-337.24 417.25,-327.08 424,-316 473.4,-234.86 407.34,-169.99 481,-110 527.88,-71.81 963.68,-78.17 1024,-74 1039.47,-72.93 1056.08,-71.75 1071.81,-70.62"/>
<polygon fill="#63b8ff" stroke="#63b8ff" points="395.57,-342.83 390.09,-351.9 400.03,-348.23 395.57,-342.83"/>
</a>
</g>
</g>
<!-- Node18&#45;&gt;Node5 -->
<g id="edge54_Node000018_Node000005" class="edge">
<title>Node18&#45;&gt;Node5</title>
<g id="a_edge54_Node000018_Node000005"><a xlink:title=" ">
<path fill="none" stroke="#63b8ff" d="M371.19,-341.96C375.02,-291.4 391.15,-173.5 459,-110 487.91,-82.94 742.6,-37.73 854.1,-19.01"/>
<polygon fill="#63b8ff" stroke="#63b8ff" points="367.7,-341.74 370.53,-351.95 374.68,-342.21 367.7,-341.74"/>
</a>
</g>
</g>
<!-- Node18&#45;&gt;Node10 -->
<g id="edge40_Node000018_Node000010" class="edge">
<title>Node18&#45;&gt;Node10</title>
<g id="a_edge40_Node000018_Node000010"><a xlink:title=" ">
<path fill="none" stroke="#63b8ff" d="M323.44,-347.98C249.81,-316.53 109.46,-243.81 57,-129 14.27,-35.5 196.82,-15.63 289.26,-11.51"/>
<polygon fill="#63b8ff" stroke="#63b8ff" points="322.37,-351.33 332.94,-351.97 325.08,-344.87 322.37,-351.33"/>
</a>
</g>
</g>
<!-- Node18&#45;&gt;Node14 -->
<g id="edge42_Node000018_Node000014" class="edge">
<title>Node18&#45;&gt;Node14</title>
<g id="a_edge42_Node000018_Node000014"><a xlink:title=" ">
<path fill="none" stroke="#63b8ff" d="M362.88,-341.94C356.45,-318.08 348,-280.34 348,-247 348,-247 348,-247 348,-179 348,-146.53 350.12,-133.98 372,-110 388.5,-91.92 413.77,-80.69 434.52,-74.03"/>
<polygon fill="#63b8ff" stroke="#63b8ff" points="359.59,-343.18 365.65,-351.87 366.33,-341.3 359.59,-343.18"/>
</a>
</g>
</g>
<!-- Node18&#45;&gt;Node15 -->
<g id="edge52_Node000018_Node000015" class="edge">
<title>Node18&#45;&gt;Node15</title>
<g id="a_edge52_Node000018_Node000015"><a xlink:title=" ">
<path fill="none" stroke="#63b8ff" d="M350.89,-343.8C333.32,-321.07 310,-283.93 310,-247 310,-247 310,-247 310,-179 310,-139.6 316.65,-92.87 319.61,-74.02"/>
<polygon fill="#63b8ff" stroke="#63b8ff" points="348.29,-346.16 357.28,-351.77 353.76,-341.78 348.29,-346.16"/>
</a>
</g>
</g>
<!-- Node18&#45;&gt;Node16 -->
<g id="edge53_Node000018_Node000016" class="edge">
<title>Node18&#45;&gt;Node16</title>
<g id="a_edge53_Node000018_Node000016"><a xlink:title=" ">
<path fill="none" stroke="#63b8ff" d="M336.52,-346.33C323.26,-337.8 308.28,-327.21 296,-316 226.34,-252.45 160.83,-157.75 141.64,-129.05"/>
<polygon fill="#63b8ff" stroke="#63b8ff" points="335.05,-349.53 345.38,-351.88 338.77,-343.6 335.05,-349.53"/>
</a>
</g>
</g>
<!-- Node18&#45;&gt;Node19 -->
<g id="edge43_Node000018_Node000019" class="edge">
<title>Node18&#45;&gt;Node19</title>
<g id="a_edge43_Node000018_Node000019"><a xlink:title=" ">
<path fill="none" stroke="#63b8ff" d="M443.22,-349.78C492.53,-338.85 555.59,-324.88 595.4,-316.05"/>
<polygon fill="#63b8ff" stroke="#63b8ff" points="442.24,-346.41 433.23,-351.99 443.75,-353.24 442.24,-346.41"/>
</a>
</g>
</g>
<!-- Node19&#45;&gt;Node3 -->
<g id="edge46_Node000019_Node000003" class="edge">
<title>Node19&#45;&gt;Node3</title>
<g id="a_edge46_Node000019_Node000003"><a xlink:title=" ">
<path fill="none" stroke="#63b8ff" d="M678.74,-294.41C786.08,-267.02 1054.02,-193.68 1118,-129 1133.25,-113.58 1138.98,-87.52 1140.99,-74.08"/>
<polygon fill="#63b8ff" stroke="#63b8ff" points="677.7,-291.07 668.87,-296.92 679.42,-297.85 677.7,-291.07"/>
</a>
</g>
</g>
<!-- Node19&#45;&gt;Node5 -->
<g id="edge51_Node000019_Node000005" class="edge">
<title>Node19&#45;&gt;Node5</title>
<g id="a_edge51_Node000019_Node000005"><a xlink:title=" ">
<path fill="none" stroke="#63b8ff" d="M634.98,-286.74C636.16,-262.38 638,-218.52 638,-181 638,-181 638,-181 638,-118.5 638,-80.58 662.16,-73.96 695,-55 734.64,-32.12 784.53,-20.94 825.85,-15.51"/>
<polygon fill="#63b8ff" stroke="#63b8ff" points="631.48,-286.59 634.47,-296.75 638.47,-286.94 631.48,-286.59"/>
</a>
</g>
</g>
<!-- Node19&#45;&gt;Node8 -->
<g id="edge44_Node000019_Node000008" class="edge">
<title>Node19&#45;&gt;Node8</title>
<g id="a_edge44_Node000019_Node000008"><a xlink:title=" ">
<path fill="none" stroke="#63b8ff" d="M628.95,-287C620.76,-258.98 602.75,-204.84 576,-165 566.45,-150.77 551.83,-137.36 541.86,-129.05"/>
<polygon fill="#63b8ff" stroke="#63b8ff" points="625.6,-288.01 631.69,-296.68 632.34,-286.1 625.6,-288.01"/>
</a>
</g>
</g>
<!-- Node19&#45;&gt;Node10 -->
<g id="edge45_Node000019_Node000010" class="edge">
<title>Node19&#45;&gt;Node10</title>
<g id="a_edge45_Node000019_Node000010"><a xlink:title=" ">
<path fill="none" stroke="#63b8ff" d="M588.68,-294.33C503.19,-270.55 320.01,-205.93 245,-74 229.36,-46.49 270.09,-28.61 303.01,-19.04"/>
<polygon fill="#63b8ff" stroke="#63b8ff" points="587.79,-297.72 598.36,-296.97 589.63,-290.97 587.79,-297.72"/>
</a>
</g>
</g>
<!-- Node19&#45;&gt;Node20 -->
<g id="edge47_Node000019_Node000020" class="edge">
<title>Node19&#45;&gt;Node20</title>
<g id="a_edge47_Node000019_Node000020"><a xlink:title=" ">
<path fill="none" stroke="#63b8ff" d="M698.47,-295.44C767.87,-284.62 877.54,-267.51 946.27,-256.79"/>
<polygon fill="#63b8ff" stroke="#63b8ff" points="697.87,-291.99 688.53,-296.99 698.95,-298.91 697.87,-291.99"/>
</a>
</g>
</g>
<!-- Node20&#45;&gt;Node5 -->
<g id="edge50_Node000020_Node000005" class="edge">
<title>Node20&#45;&gt;Node5</title>
<g id="a_edge50_Node000020_Node000005"><a xlink:title=" ">
<path fill="none" stroke="#63b8ff" d="M1081.77,-240.87C1188.12,-231.66 1367.96,-202.35 1315,-110 1290.92,-68.01 1266.71,-70.91 1221,-55 1144.06,-28.23 1051.21,-17.53 986.33,-13.28"/>
<polygon fill="#63b8ff" stroke="#63b8ff" points="1081.39,-237.38 1071.71,-241.69 1081.97,-244.36 1081.39,-237.38"/>
</a>
</g>
</g>
<!-- Node20&#45;&gt;Node6 -->
<g id="edge48_Node000020_Node000006" class="edge">
<title>Node20&#45;&gt;Node6</title>
<g id="a_edge48_Node000020_Node000006"><a xlink:title=" ">
<path fill="none" stroke="#63b8ff" d="M970.29,-226.51C949.27,-216.47 923.7,-204.26 904.34,-195.01"/>
<polygon fill="#63b8ff" stroke="#63b8ff" points="969.06,-229.8 979.59,-230.95 972.08,-223.49 969.06,-229.8"/>
</a>
</g>
</g>
<!-- Node20&#45;&gt;Node11 -->
<g id="edge49_Node000020_Node000011" class="edge">
<title>Node20&#45;&gt;Node11</title>
<g id="a_edge49_Node000020_Node000011"><a xlink:title=" ">
<path fill="none" stroke="#63b8ff" d="M1010.58,-220.48C1012.38,-192.34 1015.25,-147.67 1016.45,-129.07"/>
<polygon fill="#63b8ff" stroke="#63b8ff" points="1007.07,-220.51 1009.92,-230.72 1014.05,-220.96 1007.07,-220.51"/>
</a>
</g>
</g>
<!-- Node21&#45;&gt;Node3 -->
<g id="edge64_Node000021_Node000003" class="edge">
<title>Node21&#45;&gt;Node3</title>
<g id="a_edge64_Node000021_Node000003"><a xlink:title=" ">
<path fill="none" stroke="#63b8ff" d="M1305.91,-227.3C1320.11,-199.31 1341.74,-144.48 1315,-110 1301.7,-92.84 1251.21,-81.14 1208.18,-74.06"/>
<polygon fill="#63b8ff" stroke="#63b8ff" points="1302.73,-225.84 1301.12,-236.31 1308.91,-229.13 1302.73,-225.84"/>
</a>
</g>
</g>
<!-- Node21&#45;&gt;Node5 -->
<g id="edge66_Node000021_Node000005" class="edge">
<title>Node21&#45;&gt;Node5</title>
<g id="a_edge66_Node000021_Node000005"><a xlink:title=" ">
<path fill="none" stroke="#63b8ff" d="M1314.2,-229.31C1323.22,-220.3 1333.2,-208.18 1338,-195 1343.53,-179.82 1335.3,-114.27 1333,-110 1314.4,-75.48 1300.15,-70.21 1264,-55 1215.44,-34.56 1076.07,-21.77 986.23,-15.4"/>
<polygon fill="#63b8ff" stroke="#63b8ff" points="1311.57,-226.98 1306.67,-236.37 1316.36,-232.08 1311.57,-226.98"/>
</a>
</g>
</g>
<!-- Node21&#45;&gt;Node6 -->
<g id="edge65_Node000021_Node000006" class="edge">
<title>Node21&#45;&gt;Node6</title>
<g id="a_edge65_Node000021_Node000006"><a xlink:title=" ">
<path fill="none" stroke="#63b8ff" d="M1229.33,-234.87C1150.27,-222.85 1019.33,-202.94 940.69,-190.99"/>
<polygon fill="#63b8ff" stroke="#63b8ff" points="1229.25,-238.39 1239.66,-236.44 1230.3,-231.47 1229.25,-238.39"/>
</a>
</g>
</g>
<!-- Node21&#45;&gt;Node9 -->
<g id="edge63_Node000021_Node000009" class="edge">
<title>Node21&#45;&gt;Node9</title>
<g id="a_edge63_Node000021_Node000009"><a xlink:title=" ">
<path fill="none" stroke="#63b8ff" d="M1290.83,-226.6C1283.16,-199.31 1269.06,-149.17 1263.42,-129.12"/>
<polygon fill="#63b8ff" stroke="#63b8ff" points="1287.52,-227.76 1293.59,-236.44 1294.26,-225.87 1287.52,-227.76"/>
</a>
</g>
</g>
</g>
</svg>
