<?xml version="1.0" encoding="UTF-8" standalone="no"?>
<!DOCTYPE svg PUBLIC "-//W3C//DTD SVG 1.1//EN"
 "http://www.w3.org/Graphics/SVG/1.1/DTD/svg11.dtd">
<!-- Generated by graphviz version 2.43.0 (0)
 -->
<!-- Title: include/webcface/common/dict.h Pages: 1 -->
<svg width="1912pt" height="313pt"
 viewBox="0.00 0.00 1911.50 313.00" xmlns="http://www.w3.org/2000/svg" xmlns:xlink="http://www.w3.org/1999/xlink">
<g id="graph0" class="graph" transform="scale(1 1) rotate(0) translate(4 309)">
<title>include/webcface/common/dict.h</title>
<!-- Node1 -->
<g id="Node000001" class="node">
<title>Node1</title>
<g id="a_Node000001"><a xlink:title=" ">
<polygon fill="#999999" stroke="#666666" points="1770,-305 1623,-305 1623,-275 1770,-275 1770,-305"/>
<text text-anchor="start" x="1631" y="-293" font-family="Helvetica,sans-Serif" font-size="10.00">include/webcface/common</text>
<text text-anchor="middle" x="1696.5" y="-282" font-family="Helvetica,sans-Serif" font-size="10.00">/dict.h</text>
</a>
</g>
</g>
<!-- Node2 -->
<g id="Node000002" class="node">
<title>Node2</title>
<g id="a_Node000002"><a xlink:href="data__store2_8h.html" target="_top" xlink:title=" ">
<polygon fill="white" stroke="#666666" points="830,-239 717,-239 717,-220 830,-220 830,-239"/>
<text text-anchor="middle" x="773.5" y="-227" font-family="Helvetica,sans-Serif" font-size="10.00">client/data_store2.h</text>
</a>
</g>
</g>
<!-- Node1&#45;&gt;Node2 -->
<g id="edge1_Node000001_Node000002" class="edge">
<title>Node1&#45;&gt;Node2</title>
<g id="a_edge1_Node000001_Node000002"><a xlink:title=" ">
<path fill="none" stroke="#63b8ff" d="M1612.69,-283.69C1427.43,-271.95 987.16,-244.04 830.25,-234.1"/>
<polygon fill="#63b8ff" stroke="#63b8ff" points="1612.71,-287.2 1622.92,-284.34 1613.16,-280.21 1612.71,-287.2"/>
</a>
</g>
</g>
<!-- Node20 -->
<g id="Node000020" class="node">
<title>Node20</title>
<g id="a_Node000020"><a xlink:href="text_8h.html" target="_top" xlink:title=" ">
<polygon fill="white" stroke="#666666" points="1686,-239 1553,-239 1553,-220 1686,-220 1686,-239"/>
<text text-anchor="middle" x="1619.5" y="-227" font-family="Helvetica,sans-Serif" font-size="10.00">include/webcface/text.h</text>
</a>
</g>
</g>
<!-- Node1&#45;&gt;Node20 -->
<g id="edge19_Node000001_Node000020" class="edge">
<title>Node1&#45;&gt;Node20</title>
<g id="a_edge19_Node000001_Node000020"><a xlink:title=" ">
<path fill="none" stroke="#63b8ff" d="M1669.56,-268.53C1656.37,-258.51 1641.19,-246.98 1631.04,-239.27"/>
<polygon fill="#63b8ff" stroke="#63b8ff" points="1667.78,-271.58 1677.86,-274.84 1672.02,-266 1667.78,-271.58"/>
</a>
</g>
</g>
<!-- Node27 -->
<g id="Node000027" class="node">
<title>Node27</title>
<g id="a_Node000027"><a xlink:href="webcface_8h.html" target="_top" xlink:title=" ">
<polygon fill="white" stroke="#666666" points="1903.5,-74 1743.5,-74 1743.5,-55 1903.5,-55 1903.5,-74"/>
<text text-anchor="middle" x="1823.5" y="-62" font-family="Helvetica,sans-Serif" font-size="10.00">include/webcface/webcface.h</text>
</a>
</g>
</g>
<!-- Node1&#45;&gt;Node27 -->
<g id="edge43_Node000001_Node000027" class="edge">
<title>Node1&#45;&gt;Node27</title>
<g id="a_edge43_Node000001_Node000027"><a xlink:title=" ">
<path fill="none" stroke="#63b8ff" d="M1780.05,-281.79C1807.86,-274.97 1836.15,-262.29 1853.5,-239 1887.76,-193.02 1873.09,-164.58 1855.5,-110 1850.95,-95.87 1840.06,-82.44 1832.25,-74.1"/>
<polygon fill="#63b8ff" stroke="#63b8ff" points="1779.25,-278.39 1770.25,-283.97 1780.77,-285.22 1779.25,-278.39"/>
</a>
</g>
</g>
<!-- Node28 -->
<g id="Node000028" class="node">
<title>Node28</title>
<g id="a_Node000028"><a xlink:href="value_8h.html" target="_top" xlink:title=" ">
<polygon fill="white" stroke="#666666" points="1844.5,-239 1704.5,-239 1704.5,-220 1844.5,-220 1844.5,-239"/>
<text text-anchor="middle" x="1774.5" y="-227" font-family="Helvetica,sans-Serif" font-size="10.00">include/webcface/value.h</text>
</a>
</g>
</g>
<!-- Node1&#45;&gt;Node28 -->
<g id="edge38_Node000001_Node000028" class="edge">
<title>Node1&#45;&gt;Node28</title>
<g id="a_edge38_Node000001_Node000028"><a xlink:title=" ">
<path fill="none" stroke="#63b8ff" d="M1723.41,-268.82C1736.86,-258.73 1752.43,-247.05 1762.81,-239.27"/>
<polygon fill="#63b8ff" stroke="#63b8ff" points="1721.28,-266.04 1715.38,-274.84 1725.48,-271.64 1721.28,-266.04"/>
</a>
</g>
</g>
<!-- Node3 -->
<g id="Node000003" class="node">
<title>Node3</title>
<g id="a_Node000003"><a xlink:href="client__internal_8h.html" target="_top" xlink:title=" ">
<polygon fill="white" stroke="#666666" points="836,-184 711,-184 711,-165 836,-165 836,-184"/>
<text text-anchor="middle" x="773.5" y="-172" font-family="Helvetica,sans-Serif" font-size="10.00">client/client_internal.h</text>
</a>
</g>
</g>
<!-- Node2&#45;&gt;Node3 -->
<g id="edge2_Node000002_Node000003" class="edge">
<title>Node2&#45;&gt;Node3</title>
<g id="a_edge2_Node000002_Node000003"><a xlink:title=" ">
<path fill="none" stroke="#63b8ff" d="M773.5,-209.66C773.5,-200.93 773.5,-190.99 773.5,-184.09"/>
<polygon fill="#63b8ff" stroke="#63b8ff" points="770,-209.75 773.5,-219.75 777,-209.75 770,-209.75"/>
</a>
</g>
</g>
<!-- Node19 -->
<g id="Node000019" class="node">
<title>Node19</title>
<g id="a_Node000019"><a xlink:href="data__store2_8cc.html" target="_top" xlink:title=" ">
<polygon fill="white" stroke="#666666" points="692.5,-184 574.5,-184 574.5,-165 692.5,-165 692.5,-184"/>
<text text-anchor="middle" x="633.5" y="-172" font-family="Helvetica,sans-Serif" font-size="10.00">client/data_store2.cc</text>
</a>
</g>
</g>
<!-- Node2&#45;&gt;Node19 -->
<g id="edge18_Node000002_Node000019" class="edge">
<title>Node2&#45;&gt;Node19</title>
<g id="a_edge18_Node000002_Node000019"><a xlink:title=" ">
<path fill="none" stroke="#63b8ff" d="M741.59,-216.42C715.62,-206.59 679.58,-192.95 656.4,-184.17"/>
<polygon fill="#63b8ff" stroke="#63b8ff" points="740.42,-219.72 751.01,-219.98 742.89,-213.17 740.42,-219.72"/>
</a>
</g>
</g>
<!-- Node4 -->
<g id="Node000004" class="node">
<title>Node4</title>
<g id="a_Node000004"><a xlink:href="canvas2d_8cc.html" target="_top" xlink:title=" ">
<polygon fill="white" stroke="#666666" points="1074,-129 967,-129 967,-110 1074,-110 1074,-129"/>
<text text-anchor="middle" x="1020.5" y="-117" font-family="Helvetica,sans-Serif" font-size="10.00">client/canvas2d.cc</text>
</a>
</g>
</g>
<!-- Node3&#45;&gt;Node4 -->
<g id="edge3_Node000003_Node000004" class="edge">
<title>Node3&#45;&gt;Node4</title>
<g id="a_edge3_Node000003_Node000004"><a xlink:title=" ">
<path fill="none" stroke="#63b8ff" d="M823,-162.88C869.3,-152.94 937.57,-138.3 980.5,-129.08"/>
<polygon fill="#63b8ff" stroke="#63b8ff" points="822.23,-159.46 813.18,-164.98 823.7,-166.31 822.23,-159.46"/>
</a>
</g>
</g>
<!-- Node5 -->
<g id="Node000005" class="node">
<title>Node5</title>
<g id="a_Node000005"><a xlink:href="canvas3d_8cc.html" target="_top" xlink:title=" ">
<polygon fill="white" stroke="#666666" points="1199,-129 1092,-129 1092,-110 1199,-110 1199,-129"/>
<text text-anchor="middle" x="1145.5" y="-117" font-family="Helvetica,sans-Serif" font-size="10.00">client/canvas3d.cc</text>
</a>
</g>
</g>
<!-- Node3&#45;&gt;Node5 -->
<g id="edge4_Node000003_Node000005" class="edge">
<title>Node3&#45;&gt;Node5</title>
<g id="a_edge4_Node000003_Node000005"><a xlink:title=" ">
<path fill="none" stroke="#63b8ff" d="M843.18,-163.57C915.29,-153.3 1026.38,-137.47 1091.92,-128.13"/>
<polygon fill="#63b8ff" stroke="#63b8ff" points="842.67,-160.11 833.27,-164.98 843.66,-167.04 842.67,-160.11"/>
</a>
</g>
</g>
<!-- Node6 -->
<g id="Node000006" class="node">
<title>Node6</title>
<g id="a_Node000006"><a xlink:href="client_2client_8cc.html" target="_top" xlink:title=" ">
<polygon fill="white" stroke="#666666" points="1700,-74 1613,-74 1613,-55 1700,-55 1700,-74"/>
<text text-anchor="middle" x="1656.5" y="-62" font-family="Helvetica,sans-Serif" font-size="10.00">client/client.cc</text>
</a>
</g>
</g>
<!-- Node3&#45;&gt;Node6 -->
<g id="edge5_Node000003_Node000006" class="edge">
<title>Node3&#45;&gt;Node6</title>
<g id="a_edge5_Node000003_Node000006"><a xlink:title=" ">
<path fill="none" stroke="#63b8ff" d="M761.79,-156.03C753.87,-141.84 746.79,-122.23 758.5,-110 790.03,-77.06 1533.03,-77.47 1578.5,-74 1589.64,-73.15 1601.64,-71.97 1612.82,-70.76"/>
<polygon fill="#63b8ff" stroke="#63b8ff" points="758.98,-158.13 767.19,-164.83 764.95,-154.47 758.98,-158.13"/>
</a>
</g>
</g>
<!-- Node7 -->
<g id="Node000007" class="node">
<title>Node7</title>
<g id="a_Node000007"><a xlink:href="client__ws_8cc.html" target="_top" xlink:title=" ">
<polygon fill="white" stroke="#666666" points="798.5,-74 692.5,-74 692.5,-55 798.5,-55 798.5,-74"/>
<text text-anchor="middle" x="745.5" y="-62" font-family="Helvetica,sans-Serif" font-size="10.00">client/client_ws.cc</text>
</a>
</g>
</g>
<!-- Node3&#45;&gt;Node7 -->
<g id="edge6_Node000003_Node000007" class="edge">
<title>Node3&#45;&gt;Node7</title>
<g id="a_edge6_Node000003_Node000007"><a xlink:title=" ">
<path fill="none" stroke="#63b8ff" d="M700.58,-165.21C603.95,-160.43 179.71,-172.93 138.5,-129 132.72,-122.84 132.75,-116.19 138.5,-110 175.82,-69.85 551.43,-65.55 692.41,-65.36"/>
<polygon fill="#63b8ff" stroke="#63b8ff" points="700.48,-168.71 710.69,-165.88 700.95,-161.73 700.48,-168.71"/>
</a>
</g>
</g>
<!-- Node8 -->
<g id="Node000008" class="node">
<title>Node8</title>
<g id="a_Node000008"><a xlink:href="field_8cc.html" target="_top" xlink:title=" ">
<polygon fill="white" stroke="#666666" points="1417,-129 1336,-129 1336,-110 1417,-110 1417,-129"/>
<text text-anchor="middle" x="1376.5" y="-117" font-family="Helvetica,sans-Serif" font-size="10.00">client/field.cc</text>
</a>
</g>
</g>
<!-- Node3&#45;&gt;Node8 -->
<g id="edge7_Node000003_Node000008" class="edge">
<title>Node3&#45;&gt;Node8</title>
<g id="a_edge7_Node000003_Node000008"><a xlink:title=" ">
<path fill="none" stroke="#63b8ff" d="M846.56,-169.68C952.59,-163.66 1155.16,-150.42 1326.5,-129 1329.56,-128.62 1332.71,-128.18 1335.89,-127.71"/>
<polygon fill="#63b8ff" stroke="#63b8ff" points="846.09,-166.2 836.3,-170.25 846.48,-173.19 846.09,-166.2"/>
</a>
</g>
</g>
<!-- Node9 -->
<g id="Node000009" class="node">
<title>Node9</title>
<g id="a_Node000009"><a xlink:href="client_2func_8cc.html" target="_top" xlink:title=" ">
<polygon fill="white" stroke="#666666" points="571,-129 490,-129 490,-110 571,-110 571,-129"/>
<text text-anchor="middle" x="530.5" y="-117" font-family="Helvetica,sans-Serif" font-size="10.00">client/func.cc</text>
</a>
</g>
</g>
<!-- Node3&#45;&gt;Node9 -->
<g id="edge8_Node000003_Node000009" class="edge">
<title>Node3&#45;&gt;Node9</title>
<g id="a_edge8_Node000003_Node000009"><a xlink:title=" ">
<path fill="none" stroke="#63b8ff" d="M724.51,-162.82C678.97,-152.88 612,-138.28 569.85,-129.08"/>
<polygon fill="#63b8ff" stroke="#63b8ff" points="723.94,-166.27 734.46,-164.98 725.43,-159.43 723.94,-166.27"/>
</a>
</g>
</g>
<!-- Node10 -->
<g id="Node000010" class="node">
<title>Node10</title>
<g id="a_Node000010"><a xlink:href="func__listener_8cc.html" target="_top" xlink:title=" ">
<polygon fill="white" stroke="#666666" points="711.5,-129 589.5,-129 589.5,-110 711.5,-110 711.5,-129"/>
<text text-anchor="middle" x="650.5" y="-117" font-family="Helvetica,sans-Serif" font-size="10.00">client/func_listener.cc</text>
</a>
</g>
</g>
<!-- Node3&#45;&gt;Node10 -->
<g id="edge9_Node000003_Node000010" class="edge">
<title>Node3&#45;&gt;Node10</title>
<g id="a_edge9_Node000003_Node000010"><a xlink:title=" ">
<path fill="none" stroke="#63b8ff" d="M744.25,-160.9C721.53,-151.11 690.63,-137.79 670.62,-129.17"/>
<polygon fill="#63b8ff" stroke="#63b8ff" points="743.17,-164.24 753.74,-164.98 745.94,-157.81 743.17,-164.24"/>
</a>
</g>
</g>
<!-- Node11 -->
<g id="Node000011" class="node">
<title>Node11</title>
<g id="a_Node000011"><a xlink:href="image_8cc.html" target="_top" xlink:title=" ">
<polygon fill="white" stroke="#666666" points="91,-129 0,-129 0,-110 91,-110 91,-129"/>
<text text-anchor="middle" x="45.5" y="-117" font-family="Helvetica,sans-Serif" font-size="10.00">client/image.cc</text>
</a>
</g>
</g>
<!-- Node3&#45;&gt;Node11 -->
<g id="edge10_Node000003_Node000011" class="edge">
<title>Node3&#45;&gt;Node11</title>
<g id="a_edge10_Node000003_Node000011"><a xlink:title=" ">
<path fill="none" stroke="#63b8ff" d="M700.37,-164.96C435.43,-141.79 366.18,-155.29 105.5,-129 100.89,-128.54 96.1,-127.98 91.32,-127.38"/>
<polygon fill="#63b8ff" stroke="#63b8ff" points="700.42,-168.48 710.69,-165.87 701.04,-161.5 700.42,-168.48"/>
</a>
</g>
</g>
<!-- Node12 -->
<g id="Node000012" class="node">
<title>Node12</title>
<g id="a_Node000012"><a xlink:href="log_8cc.html" target="_top" xlink:title=" ">
<polygon fill="white" stroke="#666666" points="223,-129 148,-129 148,-110 223,-110 223,-129"/>
<text text-anchor="middle" x="185.5" y="-117" font-family="Helvetica,sans-Serif" font-size="10.00">client/log.cc</text>
</a>
</g>
</g>
<!-- Node3&#45;&gt;Node12 -->
<g id="edge11_Node000003_Node000012" class="edge">
<title>Node3&#45;&gt;Node12</title>
<g id="a_edge11_Node000003_Node000012"><a xlink:title=" ">
<path fill="none" stroke="#63b8ff" d="M700.62,-164.96C491.71,-145.07 436.61,-155.22 232.5,-129 229.46,-128.61 226.31,-128.15 223.16,-127.66"/>
<polygon fill="#63b8ff" stroke="#63b8ff" points="700.4,-168.46 710.69,-165.93 701.07,-161.49 700.4,-168.46"/>
</a>
</g>
</g>
<!-- Node13 -->
<g id="Node000013" class="node">
<title>Node13</title>
<g id="a_Node000013"><a xlink:href="logger_8cc.html" target="_top" xlink:title=" ">
<polygon fill="white" stroke="#666666" points="331.5,-129 241.5,-129 241.5,-110 331.5,-110 331.5,-129"/>
<text text-anchor="middle" x="286.5" y="-117" font-family="Helvetica,sans-Serif" font-size="10.00">client/logger.cc</text>
</a>
</g>
</g>
<!-- Node3&#45;&gt;Node13 -->
<g id="edge12_Node000003_Node000013" class="edge">
<title>Node3&#45;&gt;Node13</title>
<g id="a_edge12_Node000003_Node000013"><a xlink:title=" ">
<path fill="none" stroke="#63b8ff" d="M700.41,-164.9C539.48,-147.62 497.15,-149.12 340.5,-129 337.58,-128.63 334.58,-128.22 331.55,-127.79"/>
<polygon fill="#63b8ff" stroke="#63b8ff" points="700.36,-168.42 710.68,-166.02 701.11,-161.46 700.36,-168.42"/>
</a>
</g>
</g>
<!-- Node14 -->
<g id="Node000014" class="node">
<title>Node14</title>
<g id="a_Node000014"><a xlink:href="member_8cc.html" target="_top" xlink:title=" ">
<polygon fill="white" stroke="#666666" points="1318,-129 1217,-129 1217,-110 1318,-110 1318,-129"/>
<text text-anchor="middle" x="1267.5" y="-117" font-family="Helvetica,sans-Serif" font-size="10.00">client/member.cc</text>
</a>
</g>
</g>
<!-- Node3&#45;&gt;Node14 -->
<g id="edge13_Node000003_Node000014" class="edge">
<title>Node3&#45;&gt;Node14</title>
<g id="a_edge13_Node000003_Node000014"><a xlink:title=" ">
<path fill="none" stroke="#63b8ff" d="M846.32,-166.9C932.62,-158.87 1080.71,-144.48 1207.5,-129 1210.53,-128.63 1213.64,-128.24 1216.78,-127.83"/>
<polygon fill="#63b8ff" stroke="#63b8ff" points="845.75,-163.44 836.11,-167.84 846.39,-170.41 845.75,-163.44"/>
</a>
</g>
</g>
<!-- Node15 -->
<g id="Node000015" class="node">
<title>Node15</title>
<g id="a_Node000015"><a xlink:href="robot__model_8cc.html" target="_top" xlink:title=" ">
<polygon fill="white" stroke="#666666" points="471.5,-129 349.5,-129 349.5,-110 471.5,-110 471.5,-129"/>
<text text-anchor="middle" x="410.5" y="-117" font-family="Helvetica,sans-Serif" font-size="10.00">client/robot_model.cc</text>
</a>
</g>
</g>
<!-- Node3&#45;&gt;Node15 -->
<g id="edge14_Node000003_Node000015" class="edge">
<title>Node3&#45;&gt;Node15</title>
<g id="a_edge14_Node000003_Node000015"><a xlink:title=" ">
<path fill="none" stroke="#63b8ff" d="M704.97,-163.49C636.82,-153.54 533.38,-138.44 468.98,-129.04"/>
<polygon fill="#63b8ff" stroke="#63b8ff" points="704.78,-167 715.18,-164.98 705.79,-160.08 704.78,-167"/>
</a>
</g>
</g>
<!-- Node16 -->
<g id="Node000016" class="node">
<title>Node16</title>
<g id="a_Node000016"><a xlink:href="text_8cc.html" target="_top" xlink:title=" ">
<polygon fill="white" stroke="#666666" points="847.5,-129 767.5,-129 767.5,-110 847.5,-110 847.5,-129"/>
<text text-anchor="middle" x="807.5" y="-117" font-family="Helvetica,sans-Serif" font-size="10.00">client/text.cc</text>
</a>
</g>
</g>
<!-- Node3&#45;&gt;Node16 -->
<g id="edge15_Node000003_Node000016" class="edge">
<title>Node3&#45;&gt;Node16</title>
<g id="a_edge15_Node000003_Node000016"><a xlink:title=" ">
<path fill="none" stroke="#63b8ff" d="M784.66,-156.1C790.47,-147.04 797.32,-136.37 801.99,-129.09"/>
<polygon fill="#63b8ff" stroke="#63b8ff" points="781.57,-154.44 779.11,-164.75 787.46,-158.22 781.57,-154.44"/>
</a>
</g>
</g>
<!-- Node17 -->
<g id="Node000017" class="node">
<title>Node17</title>
<g id="a_Node000017"><a xlink:href="client_2value_8cc.html" target="_top" xlink:title=" ">
<polygon fill="white" stroke="#666666" points="1719,-129 1632,-129 1632,-110 1719,-110 1719,-129"/>
<text text-anchor="middle" x="1675.5" y="-117" font-family="Helvetica,sans-Serif" font-size="10.00">client/value.cc</text>
</a>
</g>
</g>
<!-- Node3&#45;&gt;Node17 -->
<g id="edge16_Node000003_Node000017" class="edge">
<title>Node3&#45;&gt;Node17</title>
<g id="a_edge16_Node000003_Node000017"><a xlink:title=" ">
<path fill="none" stroke="#63b8ff" d="M846.46,-170.44C988.59,-164.26 1312.52,-149.16 1584.5,-129 1599.85,-127.86 1616.63,-126.37 1631.56,-124.95"/>
<polygon fill="#63b8ff" stroke="#63b8ff" points="845.97,-166.95 836.13,-170.88 846.27,-173.95 845.97,-166.95"/>
</a>
</g>
</g>
<!-- Node18 -->
<g id="Node000018" class="node">
<title>Node18</title>
<g id="a_Node000018"><a xlink:href="view_8cc.html" target="_top" xlink:title=" ">
<polygon fill="white" stroke="#666666" points="949,-129 866,-129 866,-110 949,-110 949,-129"/>
<text text-anchor="middle" x="907.5" y="-117" font-family="Helvetica,sans-Serif" font-size="10.00">client/view.cc</text>
</a>
</g>
</g>
<!-- Node3&#45;&gt;Node18 -->
<g id="edge17_Node000003_Node000018" class="edge">
<title>Node3&#45;&gt;Node18</title>
<g id="a_edge17_Node000003_Node000018"><a xlink:title=" ">
<path fill="none" stroke="#63b8ff" d="M804.37,-161.29C829.2,-151.47 863.49,-137.91 885.58,-129.17"/>
<polygon fill="#63b8ff" stroke="#63b8ff" points="803.04,-158.05 795.03,-164.98 805.62,-164.56 803.04,-158.05"/>
</a>
</g>
</g>
<!-- Node20&#45;&gt;Node6 -->
<g id="edge20_Node000020_Node000006" class="edge">
<title>Node20&#45;&gt;Node6</title>
<g id="a_edge20_Node000020_Node000006"><a xlink:title=" ">
<path fill="none" stroke="#63b8ff" d="M1644.32,-214.53C1670.85,-198.01 1711.39,-167.79 1728.5,-129 1739.67,-103.69 1706.08,-84.5 1681.08,-74.14"/>
<polygon fill="#63b8ff" stroke="#63b8ff" points="1642.35,-211.63 1635.59,-219.79 1645.96,-217.63 1642.35,-211.63"/>
</a>
</g>
</g>
<!-- Node20&#45;&gt;Node16 -->
<g id="edge21_Node000020_Node000016" class="edge">
<title>Node20&#45;&gt;Node16</title>
<g id="a_edge21_Node000020_Node000016"><a xlink:title=" ">
<path fill="none" stroke="#63b8ff" d="M1542.74,-219.57C1405.02,-203.32 1106.95,-167.04 856.5,-129 853.6,-128.56 850.6,-128.09 847.59,-127.6"/>
<polygon fill="#63b8ff" stroke="#63b8ff" points="1542.43,-223.06 1552.77,-220.76 1543.25,-216.11 1542.43,-223.06"/>
</a>
</g>
</g>
<!-- Node21 -->
<g id="Node000021" class="node">
<title>Node21</title>
<g id="a_Node000021"><a xlink:href="member_8h.html" target="_top" xlink:title=" ">
<polygon fill="white" stroke="#666666" points="1453.5,-184 1299.5,-184 1299.5,-165 1453.5,-165 1453.5,-184"/>
<text text-anchor="middle" x="1376.5" y="-172" font-family="Helvetica,sans-Serif" font-size="10.00">include/webcface/member.h</text>
</a>
</g>
</g>
<!-- Node20&#45;&gt;Node21 -->
<g id="edge22_Node000020_Node000021" class="edge">
<title>Node20&#45;&gt;Node21</title>
<g id="a_edge22_Node000020_Node000021"><a xlink:title=" ">
<path fill="none" stroke="#63b8ff" d="M1570.51,-217.82C1524.97,-207.88 1458,-193.28 1415.85,-184.08"/>
<polygon fill="#63b8ff" stroke="#63b8ff" points="1569.94,-221.27 1580.46,-219.98 1571.43,-214.43 1569.94,-221.27"/>
</a>
</g>
</g>
<!-- Node20&#45;&gt;Node27 -->
<g id="edge37_Node000020_Node000027" class="edge">
<title>Node20&#45;&gt;Node27</title>
<g id="a_edge37_Node000020_Node000027"><a xlink:title=" ">
<path fill="none" stroke="#63b8ff" d="M1650.87,-215.94C1668.62,-208.09 1690.74,-197 1708.5,-184 1755.45,-149.62 1800.25,-95.25 1816.79,-74.21"/>
<polygon fill="#63b8ff" stroke="#63b8ff" points="1649.32,-212.79 1641.51,-219.96 1652.08,-219.23 1649.32,-212.79"/>
</a>
</g>
</g>
<!-- Node21&#45;&gt;Node4 -->
<g id="edge23_Node000021_Node000004" class="edge">
<title>Node21&#45;&gt;Node4</title>
<g id="a_edge23_Node000021_Node000004"><a xlink:title=" ">
<path fill="none" stroke="#63b8ff" d="M1309.09,-163.46C1240.9,-153.31 1136.83,-137.82 1074.06,-128.47"/>
<polygon fill="#63b8ff" stroke="#63b8ff" points="1308.9,-166.97 1319.3,-164.98 1309.93,-160.05 1308.9,-166.97"/>
</a>
</g>
</g>
<!-- Node21&#45;&gt;Node5 -->
<g id="edge24_Node000021_Node000005" class="edge">
<title>Node21&#45;&gt;Node5</title>
<g id="a_edge24_Node000021_Node000005"><a xlink:title=" ">
<path fill="none" stroke="#63b8ff" d="M1329.39,-162.69C1286.11,-152.76 1222.81,-138.24 1182.91,-129.08"/>
<polygon fill="#63b8ff" stroke="#63b8ff" points="1328.86,-166.16 1339.39,-164.98 1330.42,-159.34 1328.86,-166.16"/>
</a>
</g>
</g>
<!-- Node21&#45;&gt;Node8 -->
<g id="edge25_Node000021_Node000008" class="edge">
<title>Node21&#45;&gt;Node8</title>
<g id="a_edge25_Node000021_Node000008"><a xlink:title=" ">
<path fill="none" stroke="#63b8ff" d="M1376.5,-154.66C1376.5,-145.93 1376.5,-135.99 1376.5,-129.09"/>
<polygon fill="#63b8ff" stroke="#63b8ff" points="1373,-154.75 1376.5,-164.75 1380,-154.75 1373,-154.75"/>
</a>
</g>
</g>
<!-- Node21&#45;&gt;Node14 -->
<g id="edge26_Node000021_Node000014" class="edge">
<title>Node21&#45;&gt;Node14</title>
<g id="a_edge26_Node000021_Node000014"><a xlink:title=" ">
<path fill="none" stroke="#63b8ff" d="M1349.77,-160.5C1329.71,-150.75 1302.82,-137.68 1285.33,-129.17"/>
<polygon fill="#63b8ff" stroke="#63b8ff" points="1348.46,-163.76 1358.99,-164.98 1351.52,-157.46 1348.46,-163.76"/>
</a>
</g>
</g>
<!-- Node21&#45;&gt;Node18 -->
<g id="edge27_Node000021_Node000018" class="edge">
<title>Node21&#45;&gt;Node18</title>
<g id="a_edge27_Node000021_Node000018"><a xlink:title=" ">
<path fill="none" stroke="#63b8ff" d="M1289.37,-165.85C1204.49,-158.02 1071.88,-144.78 957.5,-129 954.8,-128.63 952.01,-128.22 949.21,-127.79"/>
<polygon fill="#63b8ff" stroke="#63b8ff" points="1289.21,-169.35 1299.48,-166.78 1289.85,-162.38 1289.21,-169.35"/>
</a>
</g>
</g>
<!-- Node22 -->
<g id="Node000022" class="node">
<title>Node22</title>
<g id="a_Node000022"><a xlink:href="client_8h.html" target="_top" xlink:title=" ">
<polygon fill="white" stroke="#666666" points="1575.5,-129 1435.5,-129 1435.5,-110 1575.5,-110 1575.5,-129"/>
<text text-anchor="middle" x="1505.5" y="-117" font-family="Helvetica,sans-Serif" font-size="10.00">include/webcface/client.h</text>
</a>
</g>
</g>
<!-- Node21&#45;&gt;Node22 -->
<g id="edge28_Node000021_Node000022" class="edge">
<title>Node21&#45;&gt;Node22</title>
<g id="a_edge28_Node000021_Node000022"><a xlink:title=" ">
<path fill="none" stroke="#63b8ff" d="M1406.54,-161.16C1430.42,-151.35 1463.22,-137.87 1484.4,-129.17"/>
<polygon fill="#63b8ff" stroke="#63b8ff" points="1405.15,-157.95 1397.23,-164.98 1407.81,-164.42 1405.15,-157.95"/>
</a>
</g>
</g>
<!-- Node21&#45;&gt;Node27 -->
<g id="edge36_Node000021_Node000027" class="edge">
<title>Node21&#45;&gt;Node27</title>
<g id="a_edge36_Node000021_Node000027"><a xlink:title=" ">
<path fill="none" stroke="#63b8ff" d="M1444.4,-163.27C1485.6,-156 1538.86,-144.74 1584.5,-129 1602.73,-122.71 1605.3,-116.36 1623.5,-110 1671.52,-93.22 1728.3,-81.3 1769.07,-74.05"/>
<polygon fill="#63b8ff" stroke="#63b8ff" points="1443.72,-159.83 1434.46,-164.98 1444.91,-166.73 1443.72,-159.83"/>
</a>
</g>
</g>
<!-- Node22&#45;&gt;Node6 -->
<g id="edge33_Node000022_Node000006" class="edge">
<title>Node22&#45;&gt;Node6</title>
<g id="a_edge33_Node000022_Node000006"><a xlink:title=" ">
<path fill="none" stroke="#63b8ff" d="M1539.55,-106.55C1567.59,-96.71 1606.68,-82.98 1631.8,-74.17"/>
<polygon fill="#63b8ff" stroke="#63b8ff" points="1538.04,-103.37 1529.76,-109.98 1540.36,-109.98 1538.04,-103.37"/>
</a>
</g>
</g>
<!-- Node22&#45;&gt;Node7 -->
<g id="edge34_Node000022_Node000007" class="edge">
<title>Node22&#45;&gt;Node7</title>
<g id="a_edge34_Node000022_Node000007"><a xlink:title=" ">
<path fill="none" stroke="#63b8ff" d="M1425.34,-109.93C1185.16,-89.38 911.65,-74.14 798.54,-68.21"/>
<polygon fill="#63b8ff" stroke="#63b8ff" points="1425.04,-113.42 1435.3,-110.79 1425.64,-106.45 1425.04,-113.42"/>
</a>
</g>
</g>
<!-- Node23 -->
<g id="Node000023" class="node">
<title>Node23</title>
<g id="a_Node000023"><a xlink:href="c__wcf__internal_8h.html" target="_top" xlink:title=" ">
<polygon fill="white" stroke="#666666" points="1569,-74 1442,-74 1442,-55 1569,-55 1569,-74"/>
<text text-anchor="middle" x="1505.5" y="-62" font-family="Helvetica,sans-Serif" font-size="10.00">c_wcf/c_wcf_internal.h</text>
</a>
</g>
</g>
<!-- Node22&#45;&gt;Node23 -->
<g id="edge29_Node000022_Node000023" class="edge">
<title>Node22&#45;&gt;Node23</title>
<g id="a_edge29_Node000022_Node000023"><a xlink:title=" ">
<path fill="none" stroke="#63b8ff" d="M1505.5,-99.66C1505.5,-90.93 1505.5,-80.99 1505.5,-74.09"/>
<polygon fill="#63b8ff" stroke="#63b8ff" points="1502,-99.75 1505.5,-109.75 1509,-99.75 1502,-99.75"/>
</a>
</g>
</g>
<!-- Node22&#45;&gt;Node27 -->
<g id="edge35_Node000022_Node000027" class="edge">
<title>Node22&#45;&gt;Node27</title>
<g id="a_edge35_Node000022_Node000027"><a xlink:title=" ">
<path fill="none" stroke="#63b8ff" d="M1566.64,-108.31C1626.36,-98.36 1716.2,-83.38 1772.27,-74.04"/>
<polygon fill="#63b8ff" stroke="#63b8ff" points="1565.88,-104.89 1556.59,-109.98 1567.03,-111.79 1565.88,-104.89"/>
</a>
</g>
</g>
<!-- Node24 -->
<g id="Node000024" class="node">
<title>Node24</title>
<g id="a_Node000024"><a xlink:href="c__wcf_2client_8cc.html" target="_top" xlink:title=" ">
<polygon fill="white" stroke="#666666" points="1446.5,-19 1358.5,-19 1358.5,0 1446.5,0 1446.5,-19"/>
<text text-anchor="middle" x="1402.5" y="-7" font-family="Helvetica,sans-Serif" font-size="10.00">c_wcf/client.cc</text>
</a>
</g>
</g>
<!-- Node23&#45;&gt;Node24 -->
<g id="edge30_Node000023_Node000024" class="edge">
<title>Node23&#45;&gt;Node24</title>
<g id="a_edge30_Node000023_Node000024"><a xlink:title=" ">
<path fill="none" stroke="#63b8ff" d="M1479.98,-50.37C1461.06,-40.63 1435.8,-27.64 1419.35,-19.17"/>
<polygon fill="#63b8ff" stroke="#63b8ff" points="1478.46,-53.52 1488.95,-54.98 1481.66,-47.3 1478.46,-53.52"/>
</a>
</g>
</g>
<!-- Node25 -->
<g id="Node000025" class="node">
<title>Node25</title>
<g id="a_Node000025"><a xlink:href="c__wcf_2func_8cc.html" target="_top" xlink:title=" ">
<polygon fill="white" stroke="#666666" points="1546.5,-19 1464.5,-19 1464.5,0 1546.5,0 1546.5,-19"/>
<text text-anchor="middle" x="1505.5" y="-7" font-family="Helvetica,sans-Serif" font-size="10.00">c_wcf/func.cc</text>
</a>
</g>
</g>
<!-- Node23&#45;&gt;Node25 -->
<g id="edge31_Node000023_Node000025" class="edge">
<title>Node23&#45;&gt;Node25</title>
<g id="a_edge31_Node000023_Node000025"><a xlink:title=" ">
<path fill="none" stroke="#63b8ff" d="M1505.5,-44.66C1505.5,-35.93 1505.5,-25.99 1505.5,-19.09"/>
<polygon fill="#63b8ff" stroke="#63b8ff" points="1502,-44.75 1505.5,-54.75 1509,-44.75 1502,-44.75"/>
</a>
</g>
</g>
<!-- Node26 -->
<g id="Node000026" class="node">
<title>Node26</title>
<g id="a_Node000026"><a xlink:href="c__wcf_2value_8cc.html" target="_top" xlink:title=" ">
<polygon fill="white" stroke="#666666" points="1652.5,-19 1564.5,-19 1564.5,0 1652.5,0 1652.5,-19"/>
<text text-anchor="middle" x="1608.5" y="-7" font-family="Helvetica,sans-Serif" font-size="10.00">c_wcf/value.cc</text>
</a>
</g>
</g>
<!-- Node23&#45;&gt;Node26 -->
<g id="edge32_Node000023_Node000026" class="edge">
<title>Node23&#45;&gt;Node26</title>
<g id="a_edge32_Node000023_Node000026"><a xlink:title=" ">
<path fill="none" stroke="#63b8ff" d="M1531.02,-50.37C1549.94,-40.63 1575.2,-27.64 1591.65,-19.17"/>
<polygon fill="#63b8ff" stroke="#63b8ff" points="1529.34,-47.3 1522.05,-54.98 1532.54,-53.52 1529.34,-47.3"/>
</a>
</g>
</g>
<!-- Node28&#45;&gt;Node6 -->
<g id="edge39_Node000028_Node000006" class="edge">
<title>Node28&#45;&gt;Node6</title>
<g id="a_edge39_Node000028_Node000006"><a xlink:title=" ">
<path fill="none" stroke="#63b8ff" d="M1774.18,-209.58C1772.81,-184.26 1766.95,-139.18 1743.5,-110 1729.26,-92.28 1706.09,-80.92 1687.24,-74.11"/>
<polygon fill="#63b8ff" stroke="#63b8ff" points="1770.69,-209.82 1774.54,-219.69 1777.68,-209.57 1770.69,-209.82"/>
</a>
</g>
</g>
<!-- Node28&#45;&gt;Node17 -->
<g id="edge40_Node000028_Node000017" class="edge">
<title>Node28&#45;&gt;Node17</title>
<g id="a_edge40_Node000028_Node000017"><a xlink:title=" ">
<path fill="none" stroke="#63b8ff" d="M1759.37,-212C1738.05,-188.73 1699.91,-147.13 1683.44,-129.16"/>
<polygon fill="#63b8ff" stroke="#63b8ff" points="1757.06,-214.66 1766.4,-219.66 1762.22,-209.93 1757.06,-214.66"/>
</a>
</g>
</g>
<!-- Node28&#45;&gt;Node21 -->
<g id="edge41_Node000028_Node000021" class="edge">
<title>Node28&#45;&gt;Node21</title>
<g id="a_edge41_Node000028_Node000021"><a xlink:title=" ">
<path fill="none" stroke="#63b8ff" d="M1700.28,-218.62C1625.57,-208.67 1511.52,-193.48 1440.62,-184.04"/>
<polygon fill="#63b8ff" stroke="#63b8ff" points="1700.18,-222.13 1710.55,-219.98 1701.1,-215.2 1700.18,-222.13"/>
</a>
</g>
</g>
<!-- Node28&#45;&gt;Node27 -->
<g id="edge42_Node000028_Node000027" class="edge">
<title>Node28&#45;&gt;Node27</title>
<g id="a_edge42_Node000028_Node000027"><a xlink:title=" ">
<path fill="none" stroke="#63b8ff" d="M1804.58,-215.18C1817.16,-207.91 1830.46,-197.59 1837.5,-184 1856.75,-146.84 1836.9,-94.54 1827.68,-74.13"/>
<polygon fill="#63b8ff" stroke="#63b8ff" points="1802.83,-212.14 1795.65,-219.93 1806.12,-218.32 1802.83,-212.14"/>
</a>
</g>
</g>
</g>
</svg>
