<?xml version="1.0" encoding="UTF-8" standalone="no"?>
<!DOCTYPE svg PUBLIC "-//W3C//DTD SVG 1.1//EN"
 "http://www.w3.org/Graphics/SVG/1.1/DTD/svg11.dtd">
<!-- Generated by graphviz version 2.43.0 (0)
 -->
<!-- Title: client/src/c_wcf Pages: 1 -->
<svg width="138pt" height="117pt"
 viewBox="0.00 0.00 137.50 117.00" xmlns="http://www.w3.org/2000/svg" xmlns:xlink="http://www.w3.org/1999/xlink">
<g id="graph0" class="graph" transform="scale(1 1) rotate(0) translate(4 113)">
<title>client/src/c_wcf</title>
<g id="clust1" class="cluster">
<title>clusterdir_b565d458ba0ce2faccd0ea2cd60c04eb</title>
<g id="a_clust1"><a xlink:href="dir_b565d458ba0ce2faccd0ea2cd60c04eb.html" target="_top" xlink:title="src">
<polygon fill="#daffe6" stroke="#7f7f7f" stroke-dasharray="5,2" points="33,-47 33,-101 93,-101 93,-47 33,-47"/>
<text text-anchor="middle" x="63" y="-89" font-family="Helvetica,sans-Serif" font-size="10.00">src</text>
</a>
</g>
</g>
<!-- dir_81dc01503b4758498154e925b296735c -->
<g id="node1" class="node">
<title>dir_81dc01503b4758498154e925b296735c</title>
<g id="a_node1"><a xlink:href="dir_81dc01503b4758498154e925b296735c.html" target="_top" xlink:title="c_wcf">
<polygon fill="#daffe6" stroke="#404040" stroke-width="2" points="85,-74 41,-74 41,-55 85,-55 85,-74"/>
<text text-anchor="middle" x="63" y="-62" font-family="Helvetica,sans-Serif" font-size="10.00">c_wcf</text>
</a>
</g>
</g>
<!-- dir_5c23080e296bbe846f4ed2d01d7b595d -->
<g id="node2" class="node">
<title>dir_5c23080e296bbe846f4ed2d01d7b595d</title>
<g id="a_node2"><a xlink:href="dir_5c23080e296bbe846f4ed2d01d7b595d.html" target="_top" xlink:title="include">
<polygon fill="#daffe6" stroke="red" stroke-dasharray="5,2" points="52,-19 0,-19 0,0 52,0 52,-19"/>
<text text-anchor="middle" x="26" y="-7" font-family="Helvetica,sans-Serif" font-size="10.00">include</text>
</a>
</g>
</g>
<!-- dir_81dc01503b4758498154e925b296735c&#45;&gt;dir_5c23080e296bbe846f4ed2d01d7b595d -->
<g id="edge1" class="edge">
<title>dir_81dc01503b4758498154e925b296735c&#45;&gt;dir_5c23080e296bbe846f4ed2d01d7b595d</title>
<path fill="none" stroke="#63b8ff" d="M56.89,-54.75C51.72,-47.34 44.15,-36.5 37.81,-27.41"/>
<polygon fill="#63b8ff" stroke="#63b8ff" points="40.59,-25.29 32,-19.09 34.85,-29.29 40.59,-25.29"/>
<g id="a_edge1&#45;headlabel"><a xlink:href="dir_000003_000009.html" target="_top" xlink:title="12">
<text text-anchor="middle" x="44.98" y="-24.11" font-family="Helvetica,sans-Serif" font-size="10.00" fill="#63b8ff">12</text>
</a>
</g>
</g>
<!-- dir_bdd9a5d540de89e9fe90efdfc6973a4f -->
<g id="node3" class="node">
<title>dir_bdd9a5d540de89e9fe90efdfc6973a4f</title>
<g id="a_node3"><a xlink:href="dir_bdd9a5d540de89e9fe90efdfc6973a4f.html" target="_top" xlink:title="common">
<polygon fill="#daffe6" stroke="red" points="129.5,-19 70.5,-19 70.5,0 129.5,0 129.5,-19"/>
<text text-anchor="middle" x="100" y="-7" font-family="Helvetica,sans-Serif" font-size="10.00">common</text>
</a>
</g>
</g>
<!-- dir_81dc01503b4758498154e925b296735c&#45;&gt;dir_bdd9a5d540de89e9fe90efdfc6973a4f -->
<g id="edge2" class="edge">
<title>dir_81dc01503b4758498154e925b296735c&#45;&gt;dir_bdd9a5d540de89e9fe90efdfc6973a4f</title>
<path fill="none" stroke="#63b8ff" d="M69.11,-54.75C74.28,-47.34 81.85,-36.5 88.19,-27.41"/>
<polygon fill="#63b8ff" stroke="#63b8ff" points="91.15,-29.29 94,-19.09 85.41,-25.29 91.15,-29.29"/>
<g id="a_edge2&#45;headlabel"><a xlink:href="dir_000003_000005.html" target="_top" xlink:title="2">
<text text-anchor="middle" x="91.42" y="-31.36" font-family="Helvetica,sans-Serif" font-size="10.00" fill="#63b8ff">2</text>
</a>
</g>
</g>
</g>
</svg>
