<?xml version="1.0" encoding="UTF-8" standalone="no"?>
<!DOCTYPE svg PUBLIC "-//W3C//DTD SVG 1.1//EN"
 "http://www.w3.org/Graphics/SVG/1.1/DTD/svg11.dtd">
<!-- Generated by graphviz version 2.43.0 (0)
 -->
<!-- Title: server&#45;store Pages: 1 -->
<svg width="179pt" height="153pt"
 viewBox="0.00 0.00 178.50 153.00" xmlns="http://www.w3.org/2000/svg" xmlns:xlink="http://www.w3.org/1999/xlink">
<g id="graph0" class="graph" transform="scale(1 1) rotate(0) translate(4 149)">
<title>server&#45;store</title>
<g id="clust1" class="cluster">
<title>clusterdir_9cb285999b179f8aca5679ee400b878d</title>
<g id="a_clust1"><a xlink:href="dir_9cb285999b179f8aca5679ee400b878d.html" target="_top">
<polygon fill="#daffe6" stroke="#404040" stroke-width="2" points="20.5,-47 20.5,-137 162.5,-137 162.5,-47 20.5,-47"/>
</a>
</g>
</g>
<!-- dir_9cb285999b179f8aca5679ee400b878d -->
<g id="node1" class="node">
<title>dir_9cb285999b179f8aca5679ee400b878d</title>
<text text-anchor="middle" x="116.5" y="-117" font-family="Helvetica,sans-Serif" font-size="10.00">server&#45;store</text>
</g>
<!-- dir_f53cacbf47894fb03ba5cf8a6c70dd7c -->
<g id="node2" class="node">
<title>dir_f53cacbf47894fb03ba5cf8a6c70dd7c</title>
<g id="a_node2"><a xlink:href="dir_f53cacbf47894fb03ba5cf8a6c70dd7c.html" target="_top" xlink:title="include">
<polygon fill="#4eff89" stroke="#404040" points="80.5,-74 28.5,-74 28.5,-55 80.5,-55 80.5,-74"/>
<text text-anchor="middle" x="54.5" y="-62" font-family="Helvetica,sans-Serif" font-size="10.00">include</text>
</a>
</g>
</g>
<!-- dir_4fef79e7177ba769987a8da36c892c5f -->
<g id="node4" class="node">
<title>dir_4fef79e7177ba769987a8da36c892c5f</title>
<g id="a_node4"><a xlink:href="dir_4fef79e7177ba769987a8da36c892c5f.html" target="_top" xlink:title="build">
<polygon fill="#daffe6" stroke="#404040" points="41,-19 0,-19 0,0 41,0 41,-19"/>
<text text-anchor="middle" x="20.5" y="-7" font-family="Helvetica,sans-Serif" font-size="10.00">build</text>
</a>
</g>
</g>
<!-- dir_f53cacbf47894fb03ba5cf8a6c70dd7c&#45;&gt;dir_4fef79e7177ba769987a8da36c892c5f -->
<g id="edge1" class="edge">
<title>dir_f53cacbf47894fb03ba5cf8a6c70dd7c&#45;&gt;dir_4fef79e7177ba769987a8da36c892c5f</title>
<path fill="none" stroke="#63b8ff" d="M48.89,-54.75C44.18,-47.42 37.33,-36.73 31.53,-27.7"/>
<polygon fill="#63b8ff" stroke="#63b8ff" points="34.36,-25.62 26.01,-19.09 28.46,-29.4 34.36,-25.62"/>
<g id="a_edge1&#45;headlabel"><a xlink:href="dir_000011_000001.html" target="_top" xlink:title="4">
<text text-anchor="middle" x="38.69" y="-24.61" font-family="Helvetica,sans-Serif" font-size="10.00" fill="#63b8ff">4</text>
</a>
</g>
</g>
<!-- dir_bdd9a5d540de89e9fe90efdfc6973a4f -->
<g id="node5" class="node">
<title>dir_bdd9a5d540de89e9fe90efdfc6973a4f</title>
<g id="a_node5"><a xlink:href="dir_bdd9a5d540de89e9fe90efdfc6973a4f.html" target="_top" xlink:title="common">
<polygon fill="#daffe6" stroke="red" points="128,-19 69,-19 69,0 128,0 128,-19"/>
<text text-anchor="middle" x="98.5" y="-7" font-family="Helvetica,sans-Serif" font-size="10.00">common</text>
</a>
</g>
</g>
<!-- dir_f53cacbf47894fb03ba5cf8a6c70dd7c&#45;&gt;dir_bdd9a5d540de89e9fe90efdfc6973a4f -->
<g id="edge2" class="edge">
<title>dir_f53cacbf47894fb03ba5cf8a6c70dd7c&#45;&gt;dir_bdd9a5d540de89e9fe90efdfc6973a4f</title>
<path fill="none" stroke="#63b8ff" d="M61.77,-54.75C68.04,-47.18 77.29,-36.05 84.93,-26.84"/>
<polygon fill="#63b8ff" stroke="#63b8ff" points="87.67,-29.02 91.37,-19.09 82.29,-24.55 87.67,-29.02"/>
<g id="a_edge2&#45;headlabel"><a xlink:href="dir_000011_000005.html" target="_top" xlink:title="12">
<text text-anchor="middle" x="87.56" y="-31.1" font-family="Helvetica,sans-Serif" font-size="10.00" fill="#63b8ff">12</text>
</a>
</g>
</g>
<!-- dir_44cc14728d7860dce3bb0e201967c0c4 -->
<g id="node3" class="node">
<title>dir_44cc14728d7860dce3bb0e201967c0c4</title>
<g id="a_node3"><a xlink:href="dir_44cc14728d7860dce3bb0e201967c0c4.html" target="_top" xlink:title="src">
<polygon fill="#4eff89" stroke="#404040" points="60,-129 29,-129 29,-110 60,-110 60,-129"/>
<text text-anchor="middle" x="44.5" y="-117" font-family="Helvetica,sans-Serif" font-size="10.00">src</text>
</a>
</g>
</g>
<!-- dir_44cc14728d7860dce3bb0e201967c0c4&#45;&gt;dir_f53cacbf47894fb03ba5cf8a6c70dd7c -->
<g id="edge5" class="edge">
<title>dir_44cc14728d7860dce3bb0e201967c0c4&#45;&gt;dir_f53cacbf47894fb03ba5cf8a6c70dd7c</title>
<path fill="none" stroke="#63b8ff" d="M46.15,-109.75C47.46,-102.8 49.34,-92.85 50.98,-84.13"/>
<polygon fill="#63b8ff" stroke="#63b8ff" points="54.46,-84.56 52.88,-74.09 47.59,-83.27 54.46,-84.56"/>
<g id="a_edge5&#45;headlabel"><a xlink:href="dir_000019_000011.html" target="_top" xlink:title="17">
<text text-anchor="middle" x="56.59" y="-86.12" font-family="Helvetica,sans-Serif" font-size="10.00" fill="#63b8ff">17</text>
</a>
</g>
</g>
<!-- dir_44cc14728d7860dce3bb0e201967c0c4&#45;&gt;dir_4fef79e7177ba769987a8da36c892c5f -->
<g id="edge3" class="edge">
<title>dir_44cc14728d7860dce3bb0e201967c0c4&#45;&gt;dir_4fef79e7177ba769987a8da36c892c5f</title>
<path fill="none" stroke="#63b8ff" d="M37.87,-109.88C31.74,-101.32 23.04,-87.54 19.5,-74 15.66,-59.32 16.24,-42.06 17.59,-29.25"/>
<polygon fill="#63b8ff" stroke="#63b8ff" points="21.07,-29.67 18.89,-19.3 14.13,-28.77 21.07,-29.67"/>
<g id="a_edge3&#45;headlabel"><a xlink:href="dir_000019_000001.html" target="_top" xlink:title="3">
<text text-anchor="middle" x="23.42" y="-31.11" font-family="Helvetica,sans-Serif" font-size="10.00" fill="#63b8ff">3</text>
</a>
</g>
</g>
<!-- dir_44cc14728d7860dce3bb0e201967c0c4&#45;&gt;dir_bdd9a5d540de89e9fe90efdfc6973a4f -->
<g id="edge4" class="edge">
<title>dir_44cc14728d7860dce3bb0e201967c0c4&#45;&gt;dir_bdd9a5d540de89e9fe90efdfc6973a4f</title>
<path fill="none" stroke="#63b8ff" d="M57.03,-109.82C67.54,-101.81 82,-88.92 89.5,-74 96.46,-60.15 98.51,-42.58 98.94,-29.44"/>
<polygon fill="#63b8ff" stroke="#63b8ff" points="102.44,-29.24 98.97,-19.23 95.44,-29.22 102.44,-29.24"/>
<g id="a_edge4&#45;headlabel"><a xlink:href="dir_000019_000005.html" target="_top" xlink:title="5">
<text text-anchor="middle" x="105.27" y="-30.35" font-family="Helvetica,sans-Serif" font-size="10.00" fill="#63b8ff">5</text>
</a>
</g>
</g>
</g>
</svg>
