<?xml version="1.0" encoding="UTF-8" standalone="no"?>
<!DOCTYPE svg PUBLIC "-//W3C//DTD SVG 1.1//EN"
 "http://www.w3.org/Graphics/SVG/1.1/DTD/svg11.dtd">
<!-- Generated by graphviz version 2.43.0 (0)
 -->
<!-- Title: client/include/webcface Pages: 1 -->
<svg width="333pt" height="149pt"
 viewBox="0.00 0.00 332.50 149.00" xmlns="http://www.w3.org/2000/svg" xmlns:xlink="http://www.w3.org/1999/xlink">
<g id="graph0" class="graph" transform="scale(1 1) rotate(0) translate(4 145)">
<title>client/include/webcface</title>
<g id="clust1" class="cluster">
<title>clusterdir_5c23080e296bbe846f4ed2d01d7b595d</title>
<g id="a_clust1"><a xlink:href="dir_5c23080e296bbe846f4ed2d01d7b595d.html" target="_top" xlink:title="include">
<polygon fill="#daffe6" stroke="#7f7f7f" stroke-dasharray="5,2" points="8,-8 8,-133 176,-133 176,-8 8,-8"/>
<text text-anchor="middle" x="92" y="-121" font-family="Helvetica,sans-Serif" font-size="10.00">include</text>
</a>
</g>
</g>
<g id="clust2" class="cluster">
<title>clusterdir_8bd58ff883f4686dab3daf23d9479d3b</title>
<g id="a_clust2"><a xlink:href="dir_8bd58ff883f4686dab3daf23d9479d3b.html" target="_top">
<polygon fill="#daffe6" stroke="#404040" stroke-width="2" points="16,-16 16,-106 168,-106 168,-16 16,-16"/>
</a>
</g>
</g>
<!-- dir_8bd58ff883f4686dab3daf23d9479d3b -->
<g id="node1" class="node">
<title>dir_8bd58ff883f4686dab3daf23d9479d3b</title>
<text text-anchor="middle" x="56" y="-86" font-family="Helvetica,sans-Serif" font-size="10.00">webcface</text>
</g>
<!-- dir_3c7d6bd2c75fa3e3c4a968df4078832c -->
<g id="node2" class="node">
<title>dir_3c7d6bd2c75fa3e3c4a968df4078832c</title>
<g id="a_node2"><a xlink:href="dir_3c7d6bd2c75fa3e3c4a968df4078832c.html" target="_top" xlink:title="c_wcf">
<polygon fill="#4eff89" stroke="#404040" points="78,-43 34,-43 34,-24 78,-24 78,-43"/>
<text text-anchor="middle" x="56" y="-31" font-family="Helvetica,sans-Serif" font-size="10.00">c_wcf</text>
</a>
</g>
</g>
<!-- dir_8bd58ff883f4686dab3daf23d9479d3b&#45;&gt;dir_3c7d6bd2c75fa3e3c4a968df4078832c -->
<g id="edge1" class="edge">
<title>dir_8bd58ff883f4686dab3daf23d9479d3b&#45;&gt;dir_3c7d6bd2c75fa3e3c4a968df4078832c</title>
<path fill="none" stroke="#63b8ff" d="M56,-78.75C56,-71.8 56,-61.85 56,-53.13"/>
<polygon fill="#63b8ff" stroke="#63b8ff" points="59.5,-53.09 56,-43.09 52.5,-53.09 59.5,-53.09"/>
<g id="a_edge1&#45;headlabel"><a xlink:href="dir_000022_000001.html" target="_top" xlink:title="8">
<text text-anchor="middle" x="62.34" y="-54.18" font-family="Helvetica,sans-Serif" font-size="10.00" fill="#63b8ff">8</text>
</a>
</g>
</g>
<!-- dir_7f2982da9d43e0d7c25a6e4522b21798 -->
<g id="node4" class="node">
<title>dir_7f2982da9d43e0d7c25a6e4522b21798</title>
<g id="a_node4"><a xlink:href="dir_7f2982da9d43e0d7c25a6e4522b21798.html" target="_top" xlink:title="encoding">
<polygon fill="#daffe6" stroke="red" points="245.5,-43 184.5,-43 184.5,-24 245.5,-24 245.5,-43"/>
<text text-anchor="middle" x="215" y="-31" font-family="Helvetica,sans-Serif" font-size="10.00">encoding</text>
</a>
</g>
</g>
<!-- dir_8bd58ff883f4686dab3daf23d9479d3b&#45;&gt;dir_7f2982da9d43e0d7c25a6e4522b21798 -->
<g id="edge2" class="edge">
<title>dir_8bd58ff883f4686dab3daf23d9479d3b&#45;&gt;dir_7f2982da9d43e0d7c25a6e4522b21798</title>
<path fill="none" stroke="#63b8ff" d="M81.55,-78.98C108.12,-70.13 149.94,-56.19 179.67,-46.28"/>
<polygon fill="#63b8ff" stroke="#63b8ff" points="180.87,-49.56 189.25,-43.08 178.66,-42.92 180.87,-49.56"/>
<g id="a_edge2&#45;headlabel"><a xlink:href="dir_000022_000005.html" target="_top" xlink:title="13">
<text text-anchor="middle" x="178.36" y="-50.9" font-family="Helvetica,sans-Serif" font-size="10.00" fill="#63b8ff">13</text>
</a>
</g>
</g>
<!-- dir_96b6547db6ac3cc6aa0de0b99fd274ad -->
<g id="node3" class="node">
<title>dir_96b6547db6ac3cc6aa0de0b99fd274ad</title>
<g id="a_node3"><a xlink:href="dir_96b6547db6ac3cc6aa0de0b99fd274ad.html" target="_top" xlink:title="internal">
<polygon fill="#4eff89" stroke="#404040" points="160,-98 106,-98 106,-79 160,-79 160,-98"/>
<text text-anchor="middle" x="133" y="-86" font-family="Helvetica,sans-Serif" font-size="10.00">internal</text>
</a>
</g>
</g>
<!-- dir_96b6547db6ac3cc6aa0de0b99fd274ad&#45;&gt;dir_7f2982da9d43e0d7c25a6e4522b21798 -->
<g id="edge3" class="edge">
<title>dir_96b6547db6ac3cc6aa0de0b99fd274ad&#45;&gt;dir_7f2982da9d43e0d7c25a6e4522b21798</title>
<path fill="none" stroke="#63b8ff" d="M146.17,-78.98C158.77,-70.84 178,-58.41 192.94,-48.76"/>
<polygon fill="#63b8ff" stroke="#63b8ff" points="195.09,-51.54 201.59,-43.17 191.29,-45.66 195.09,-51.54"/>
<g id="a_edge3&#45;headlabel"><a xlink:href="dir_000011_000005.html" target="_top" xlink:title="3">
<text text-anchor="middle" x="193.61" y="-53.37" font-family="Helvetica,sans-Serif" font-size="10.00" fill="#63b8ff">3</text>
</a>
</g>
</g>
<!-- dir_d06cd19e7b0a7bd71ca3f88af4ac0d59 -->
<g id="node5" class="node">
<title>dir_d06cd19e7b0a7bd71ca3f88af4ac0d59</title>
<g id="a_node5"><a xlink:href="dir_d06cd19e7b0a7bd71ca3f88af4ac0d59.html" target="_top" xlink:title="message">
<polygon fill="#daffe6" stroke="red" points="324.5,-43 263.5,-43 263.5,-24 324.5,-24 324.5,-43"/>
<text text-anchor="middle" x="294" y="-31" font-family="Helvetica,sans-Serif" font-size="10.00">message</text>
</a>
</g>
</g>
<!-- dir_96b6547db6ac3cc6aa0de0b99fd274ad&#45;&gt;dir_d06cd19e7b0a7bd71ca3f88af4ac0d59 -->
<g id="edge4" class="edge">
<title>dir_96b6547db6ac3cc6aa0de0b99fd274ad&#45;&gt;dir_d06cd19e7b0a7bd71ca3f88af4ac0d59</title>
<path fill="none" stroke="#63b8ff" d="M158.87,-78.98C185.78,-70.13 228.12,-56.19 258.23,-46.28"/>
<polygon fill="#63b8ff" stroke="#63b8ff" points="259.53,-49.53 267.93,-43.08 257.34,-42.88 259.53,-49.53"/>
<g id="a_edge4&#45;headlabel"><a xlink:href="dir_000011_000012.html" target="_top" xlink:title="3">
<text text-anchor="middle" x="257" y="-50.85" font-family="Helvetica,sans-Serif" font-size="10.00" fill="#63b8ff">3</text>
</a>
</g>
</g>
</g>
</svg>
