<?xml version="1.0" encoding="UTF-8" standalone="no"?>
<!DOCTYPE svg PUBLIC "-//W3C//DTD SVG 1.1//EN"
 "http://www.w3.org/Graphics/SVG/1.1/DTD/svg11.dtd">
<!-- Generated by graphviz version 2.43.0 (0)
 -->
<!-- Title: server&#45;store Pages: 1 -->
<svg width="270pt" height="153pt"
 viewBox="0.00 0.00 269.50 153.00" xmlns="http://www.w3.org/2000/svg" xmlns:xlink="http://www.w3.org/1999/xlink">
<g id="graph0" class="graph" transform="scale(1 1) rotate(0) translate(4 149)">
<title>server&#45;store</title>
<g id="clust1" class="cluster">
<title>clusterdir_9cb285999b179f8aca5679ee400b878d</title>
<g id="a_clust1"><a xlink:href="dir_9cb285999b179f8aca5679ee400b878d.html" target="_top">
<polygon fill="#daffe6" stroke="#404040" stroke-width="2" points="80.5,-47 80.5,-137 222.5,-137 222.5,-47 80.5,-47"/>
</a>
</g>
</g>
<!-- dir_9cb285999b179f8aca5679ee400b878d -->
<g id="node1" class="node">
<title>dir_9cb285999b179f8aca5679ee400b878d</title>
<text text-anchor="middle" x="176.5" y="-117" font-family="Helvetica,sans-Serif" font-size="10.00">server&#45;store</text>
</g>
<!-- dir_f53cacbf47894fb03ba5cf8a6c70dd7c -->
<g id="node2" class="node">
<title>dir_f53cacbf47894fb03ba5cf8a6c70dd7c</title>
<g id="a_node2"><a xlink:href="dir_f53cacbf47894fb03ba5cf8a6c70dd7c.html" target="_top" xlink:title="include">
<polygon fill="#4eff89" stroke="#404040" points="140.5,-74 88.5,-74 88.5,-55 140.5,-55 140.5,-74"/>
<text text-anchor="middle" x="114.5" y="-62" font-family="Helvetica,sans-Serif" font-size="10.00">include</text>
</a>
</g>
</g>
<!-- dir_4fef79e7177ba769987a8da36c892c5f -->
<g id="node4" class="node">
<title>dir_4fef79e7177ba769987a8da36c892c5f</title>
<g id="a_node4"><a xlink:href="dir_4fef79e7177ba769987a8da36c892c5f.html" target="_top" xlink:title="build">
<polygon fill="#daffe6" stroke="#404040" points="41,-19 0,-19 0,0 41,0 41,-19"/>
<text text-anchor="middle" x="20.5" y="-7" font-family="Helvetica,sans-Serif" font-size="10.00">build</text>
</a>
</g>
</g>
<!-- dir_f53cacbf47894fb03ba5cf8a6c70dd7c&#45;&gt;dir_4fef79e7177ba769987a8da36c892c5f -->
<g id="edge1" class="edge">
<title>dir_f53cacbf47894fb03ba5cf8a6c70dd7c&#45;&gt;dir_4fef79e7177ba769987a8da36c892c5f</title>
<path fill="none" stroke="#63b8ff" d="M99.4,-54.98C84.68,-46.69 62.08,-33.94 44.83,-24.22"/>
<polygon fill="#63b8ff" stroke="#63b8ff" points="46.31,-21.03 35.88,-19.17 42.87,-27.13 46.31,-21.03"/>
<g id="a_edge1&#45;headlabel"><a xlink:href="dir_000010_000000.html" target="_top" xlink:title="4">
<text text-anchor="middle" x="50.83" y="-17.83" font-family="Helvetica,sans-Serif" font-size="10.00" fill="#63b8ff">4</text>
</a>
</g>
</g>
<!-- dir_7f2982da9d43e0d7c25a6e4522b21798 -->
<g id="node5" class="node">
<title>dir_7f2982da9d43e0d7c25a6e4522b21798</title>
<g id="a_node5"><a xlink:href="dir_7f2982da9d43e0d7c25a6e4522b21798.html" target="_top" xlink:title="encoding">
<polygon fill="#daffe6" stroke="red" points="120,-19 59,-19 59,0 120,0 120,-19"/>
<text text-anchor="middle" x="89.5" y="-7" font-family="Helvetica,sans-Serif" font-size="10.00">encoding</text>
</a>
</g>
</g>
<!-- dir_f53cacbf47894fb03ba5cf8a6c70dd7c&#45;&gt;dir_7f2982da9d43e0d7c25a6e4522b21798 -->
<g id="edge4" class="edge">
<title>dir_f53cacbf47894fb03ba5cf8a6c70dd7c&#45;&gt;dir_7f2982da9d43e0d7c25a6e4522b21798</title>
<path fill="none" stroke="#63b8ff" d="M110.37,-54.75C106.99,-47.57 102.08,-37.18 97.88,-28.27"/>
<polygon fill="#63b8ff" stroke="#63b8ff" points="100.98,-26.64 93.55,-19.09 94.65,-29.63 100.98,-26.64"/>
<g id="a_edge4&#45;headlabel"><a xlink:href="dir_000010_000005.html" target="_top" xlink:title="1">
<text text-anchor="middle" x="105.08" y="-26.18" font-family="Helvetica,sans-Serif" font-size="10.00" fill="#63b8ff">1</text>
</a>
</g>
</g>
<!-- dir_d06cd19e7b0a7bd71ca3f88af4ac0d59 -->
<g id="node6" class="node">
<title>dir_d06cd19e7b0a7bd71ca3f88af4ac0d59</title>
<g id="a_node6"><a xlink:href="dir_d06cd19e7b0a7bd71ca3f88af4ac0d59.html" target="_top" xlink:title="message">
<polygon fill="#daffe6" stroke="red" points="199,-19 138,-19 138,0 199,0 199,-19"/>
<text text-anchor="middle" x="168.5" y="-7" font-family="Helvetica,sans-Serif" font-size="10.00">message</text>
</a>
</g>
</g>
<!-- dir_f53cacbf47894fb03ba5cf8a6c70dd7c&#45;&gt;dir_d06cd19e7b0a7bd71ca3f88af4ac0d59 -->
<g id="edge2" class="edge">
<title>dir_f53cacbf47894fb03ba5cf8a6c70dd7c&#45;&gt;dir_d06cd19e7b0a7bd71ca3f88af4ac0d59</title>
<path fill="none" stroke="#63b8ff" d="M123.42,-54.75C131.28,-47.03 142.93,-35.6 152.42,-26.28"/>
<polygon fill="#63b8ff" stroke="#63b8ff" points="155.06,-28.59 159.75,-19.09 150.16,-23.6 155.06,-28.59"/>
<g id="a_edge2&#45;headlabel"><a xlink:href="dir_000010_000012.html" target="_top" xlink:title="1">
<text text-anchor="middle" x="154.49" y="-30.64" font-family="Helvetica,sans-Serif" font-size="10.00" fill="#63b8ff">1</text>
</a>
</g>
</g>
<!-- dir_db3a54907829b36871118d03417739cd -->
<g id="node7" class="node">
<title>dir_db3a54907829b36871118d03417739cd</title>
<g id="a_node7"><a xlink:href="dir_db3a54907829b36871118d03417739cd.html" target="_top" xlink:title="client">
<polygon fill="#daffe6" stroke="red" points="261.5,-19 217.5,-19 217.5,0 261.5,0 261.5,-19"/>
<text text-anchor="middle" x="239.5" y="-7" font-family="Helvetica,sans-Serif" font-size="10.00">client</text>
</a>
</g>
</g>
<!-- dir_f53cacbf47894fb03ba5cf8a6c70dd7c&#45;&gt;dir_db3a54907829b36871118d03417739cd -->
<g id="edge3" class="edge">
<title>dir_f53cacbf47894fb03ba5cf8a6c70dd7c&#45;&gt;dir_db3a54907829b36871118d03417739cd</title>
<path fill="none" stroke="#63b8ff" d="M134.58,-54.98C154.87,-46.38 186.46,-32.99 209.67,-23.15"/>
<polygon fill="#63b8ff" stroke="#63b8ff" points="211.21,-26.3 219.05,-19.17 208.48,-19.85 211.21,-26.3"/>
<g id="a_edge3&#45;headlabel"><a xlink:href="dir_000010_000003.html" target="_top" xlink:title="1">
<text text-anchor="middle" x="209.01" y="-27.81" font-family="Helvetica,sans-Serif" font-size="10.00" fill="#63b8ff">1</text>
</a>
</g>
</g>
<!-- dir_44cc14728d7860dce3bb0e201967c0c4 -->
<g id="node3" class="node">
<title>dir_44cc14728d7860dce3bb0e201967c0c4</title>
<g id="a_node3"><a xlink:href="dir_44cc14728d7860dce3bb0e201967c0c4.html" target="_top" xlink:title="src">
<polygon fill="#4eff89" stroke="#404040" points="120,-129 89,-129 89,-110 120,-110 120,-129"/>
<text text-anchor="middle" x="104.5" y="-117" font-family="Helvetica,sans-Serif" font-size="10.00">src</text>
</a>
</g>
</g>
<!-- dir_44cc14728d7860dce3bb0e201967c0c4&#45;&gt;dir_f53cacbf47894fb03ba5cf8a6c70dd7c -->
<g id="edge8" class="edge">
<title>dir_44cc14728d7860dce3bb0e201967c0c4&#45;&gt;dir_f53cacbf47894fb03ba5cf8a6c70dd7c</title>
<path fill="none" stroke="#63b8ff" d="M106.15,-109.75C107.46,-102.8 109.34,-92.85 110.98,-84.13"/>
<polygon fill="#63b8ff" stroke="#63b8ff" points="114.46,-84.56 112.88,-74.09 107.59,-83.27 114.46,-84.56"/>
<g id="a_edge8&#45;headlabel"><a xlink:href="dir_000019_000010.html" target="_top" xlink:title="17">
<text text-anchor="middle" x="116.59" y="-86.12" font-family="Helvetica,sans-Serif" font-size="10.00" fill="#63b8ff">17</text>
</a>
</g>
</g>
<!-- dir_44cc14728d7860dce3bb0e201967c0c4&#45;&gt;dir_4fef79e7177ba769987a8da36c892c5f -->
<g id="edge5" class="edge">
<title>dir_44cc14728d7860dce3bb0e201967c0c4&#45;&gt;dir_4fef79e7177ba769987a8da36c892c5f</title>
<path fill="none" stroke="#63b8ff" d="M97.63,-109.66C83.59,-91.61 51.44,-50.28 33.39,-27.08"/>
<polygon fill="#63b8ff" stroke="#63b8ff" points="36.14,-24.9 27.23,-19.16 30.61,-29.2 36.14,-24.9"/>
<g id="a_edge5&#45;headlabel"><a xlink:href="dir_000019_000000.html" target="_top" xlink:title="3">
<text text-anchor="middle" x="40.58" y="-23.5" font-family="Helvetica,sans-Serif" font-size="10.00" fill="#63b8ff">3</text>
</a>
</g>
</g>
<!-- dir_44cc14728d7860dce3bb0e201967c0c4&#45;&gt;dir_d06cd19e7b0a7bd71ca3f88af4ac0d59 -->
<g id="edge6" class="edge">
<title>dir_44cc14728d7860dce3bb0e201967c0c4&#45;&gt;dir_d06cd19e7b0a7bd71ca3f88af4ac0d59</title>
<path fill="none" stroke="#63b8ff" d="M116.09,-109.84C126.27,-101.66 140.79,-88.51 149.5,-74 157.83,-60.13 162.74,-42.33 165.48,-29.11"/>
<polygon fill="#63b8ff" stroke="#63b8ff" points="168.92,-29.74 167.29,-19.27 162.04,-28.47 168.92,-29.74"/>
<g id="a_edge6&#45;headlabel"><a xlink:href="dir_000019_000012.html" target="_top" xlink:title="3">
<text text-anchor="middle" x="171.06" y="-31.29" font-family="Helvetica,sans-Serif" font-size="10.00" fill="#63b8ff">3</text>
</a>
</g>
</g>
<!-- dir_44cc14728d7860dce3bb0e201967c0c4&#45;&gt;dir_db3a54907829b36871118d03417739cd -->
<g id="edge7" class="edge">
<title>dir_44cc14728d7860dce3bb0e201967c0c4&#45;&gt;dir_db3a54907829b36871118d03417739cd</title>
<path fill="none" stroke="#63b8ff" d="M118.07,-109.98C131.49,-101.38 152.44,-87.48 169.5,-74 188.87,-58.7 209.66,-39.45 223.5,-26.17"/>
<polygon fill="#63b8ff" stroke="#63b8ff" points="226.03,-28.6 230.78,-19.13 221.16,-23.56 226.03,-28.6"/>
<g id="a_edge7&#45;headlabel"><a xlink:href="dir_000019_000003.html" target="_top" xlink:title="2">
<text text-anchor="middle" x="225.42" y="-30.64" font-family="Helvetica,sans-Serif" font-size="10.00" fill="#63b8ff">2</text>
</a>
</g>
</g>
</g>
</svg>
