<?xml version="1.0" encoding="UTF-8" standalone="no"?>
<!DOCTYPE svg PUBLIC "-//W3C//DTD SVG 1.1//EN"
 "http://www.w3.org/Graphics/SVG/1.1/DTD/svg11.dtd">
<!-- Generated by graphviz version 2.43.0 (0)
 -->
<!-- Title: /home/runner/work/webcface/webcface/tests/dummy_server.cc Pages: 1 -->
<svg width="1691pt" height="412pt"
 viewBox="0.00 0.00 1690.84 412.00" xmlns="http://www.w3.org/2000/svg" xmlns:xlink="http://www.w3.org/1999/xlink">
<g id="graph0" class="graph" transform="scale(1 1) rotate(0) translate(4 408)">
<title>/home/runner/work/webcface/webcface/tests/dummy_server.cc</title>
<!-- Node1 -->
<g id="Node000001" class="node">
<title>Node1</title>
<g id="a_Node000001"><a xlink:title=" ">
<polygon fill="#999999" stroke="#666666" points="1411.84,-404 1229.84,-404 1229.84,-374 1411.84,-374 1411.84,-404"/>
<text text-anchor="start" x="1237.84" y="-392" font-family="Helvetica,sans-Serif" font-size="10.00">/home/runner/work/webcface</text>
<text text-anchor="middle" x="1320.84" y="-381" font-family="Helvetica,sans-Serif" font-size="10.00">/webcface/tests/dummy_server.cc</text>
</a>
</g>
</g>
<!-- Node2 -->
<g id="Node000002" class="node">
<title>Node2</title>
<g id="a_Node000002"><a xlink:href="message_8h.html" target="_top" xlink:title=" ">
<polygon fill="white" stroke="#666666" points="1011.34,-266.5 844.34,-266.5 844.34,-247.5 1011.34,-247.5 1011.34,-266.5"/>
<text text-anchor="middle" x="927.84" y="-254.5" font-family="Helvetica,sans-Serif" font-size="10.00">webcface/message/message.h</text>
</a>
</g>
</g>
<!-- Node1&#45;&gt;Node2 -->
<g id="edge1_Node000001_Node000002" class="edge">
<title>Node1&#45;&gt;Node2</title>
<g id="a_edge1_Node000001_Node000002"><a xlink:title=" ">
<path fill="none" stroke="#63b8ff" d="M1229.69,-374.79C1184.7,-366.78 1130.07,-354.8 1082.84,-338 1033.15,-320.32 979.33,-289.68 950,-271.88"/>
<polygon fill="#63b8ff" stroke="#63b8ff" points="951.73,-268.84 941.37,-266.59 948.07,-274.8 951.73,-268.84"/>
</a>
</g>
</g>
<!-- Node10 -->
<g id="Node000010" class="node">
<title>Node10</title>
<g id="a_Node000010"><a xlink:title=" ">
<polygon fill="#e0e0e0" stroke="#999999" points="1298.34,-200.5 1207.34,-200.5 1207.34,-181.5 1298.34,-181.5 1298.34,-200.5"/>
<text text-anchor="middle" x="1252.84" y="-188.5" font-family="Helvetica,sans-Serif" font-size="10.00">spdlog/logger.h</text>
</a>
</g>
</g>
<!-- Node1&#45;&gt;Node10 -->
<g id="edge43_Node000001_Node000010" class="edge">
<title>Node1&#45;&gt;Node10</title>
<g id="a_edge43_Node000001_Node000010"><a xlink:title=" ">
<path fill="none" stroke="#63b8ff" d="M1315.95,-373.9C1303.87,-339.08 1272.62,-249.02 1259.16,-210.22"/>
<polygon fill="#63b8ff" stroke="#63b8ff" points="1262.45,-209.03 1255.86,-200.73 1255.83,-211.32 1262.45,-209.03"/>
</a>
</g>
</g>
<!-- Node28 -->
<g id="Node000028" class="node">
<title>Node28</title>
<g id="a_Node000028"><a xlink:title=" ">
<polygon fill="#e0e0e0" stroke="#999999" points="1460.34,-338 1349.34,-338 1349.34,-308 1460.34,-308 1460.34,-338"/>
<text text-anchor="start" x="1357.34" y="-326" font-family="Helvetica,sans-Serif" font-size="10.00">spdlog/sinks/stdout</text>
<text text-anchor="middle" x="1404.84" y="-315" font-family="Helvetica,sans-Serif" font-size="10.00">_color_sinks.h</text>
</a>
</g>
</g>
<!-- Node1&#45;&gt;Node28 -->
<g id="edge44_Node000001_Node000028" class="edge">
<title>Node1&#45;&gt;Node28</title>
<g id="a_edge44_Node000001_Node000028"><a xlink:title=" ">
<path fill="none" stroke="#63b8ff" d="M1339.48,-373.8C1350.79,-365.18 1365.41,-354.04 1377.96,-344.48"/>
<polygon fill="#63b8ff" stroke="#63b8ff" points="1380.41,-347.01 1386.25,-338.16 1376.17,-341.44 1380.41,-347.01"/>
</a>
</g>
</g>
<!-- Node29 -->
<g id="Node000029" class="node">
<title>Node29</title>
<g id="a_Node000029"><a xlink:title=" ">
<polygon fill="#e0e0e0" stroke="#999999" points="1254.84,-266.5 1206.84,-266.5 1206.84,-247.5 1254.84,-247.5 1254.84,-266.5"/>
<text text-anchor="middle" x="1230.84" y="-254.5" font-family="Helvetica,sans-Serif" font-size="10.00">thread</text>
</a>
</g>
</g>
<!-- Node1&#45;&gt;Node29 -->
<g id="edge45_Node000001_Node000029" class="edge">
<title>Node1&#45;&gt;Node29</title>
<g id="a_edge45_Node000001_Node000029"><a xlink:title=" ">
<path fill="none" stroke="#63b8ff" d="M1302.86,-373.61C1292.02,-364.29 1278.5,-351.41 1268.84,-338 1254.98,-318.76 1244.03,-293.67 1237.51,-276.76"/>
<polygon fill="#63b8ff" stroke="#63b8ff" points="1240.64,-275.13 1233.88,-266.97 1234.07,-277.56 1240.64,-275.13"/>
</a>
</g>
</g>
<!-- Node30 -->
<g id="Node000030" class="node">
<title>Node30</title>
<g id="a_Node000030"><a xlink:href="dummy__server_8h.html" target="_top" xlink:title=" ">
<polygon fill="white" stroke="#666666" points="1189.84,-332.5 1091.84,-332.5 1091.84,-313.5 1189.84,-313.5 1189.84,-332.5"/>
<text text-anchor="middle" x="1140.84" y="-320.5" font-family="Helvetica,sans-Serif" font-size="10.00">dummy_server.h</text>
</a>
</g>
</g>
<!-- Node1&#45;&gt;Node30 -->
<g id="edge46_Node000001_Node000030" class="edge">
<title>Node1&#45;&gt;Node30</title>
<g id="a_edge46_Node000001_Node000030"><a xlink:title=" ">
<path fill="none" stroke="#63b8ff" d="M1281.33,-373.95C1249.35,-362.58 1204.79,-346.74 1174.48,-335.96"/>
<polygon fill="#63b8ff" stroke="#63b8ff" points="1175.39,-332.57 1164.79,-332.52 1173.04,-339.17 1175.39,-332.57"/>
</a>
</g>
</g>
<!-- Node31 -->
<g id="Node000031" class="node">
<title>Node31</title>
<g id="a_Node000031"><a xlink:title=" ">
<polygon fill="#e0e0e0" stroke="#999999" points="1526.84,-332.5 1478.84,-332.5 1478.84,-313.5 1526.84,-313.5 1526.84,-332.5"/>
<text text-anchor="middle" x="1502.84" y="-320.5" font-family="Helvetica,sans-Serif" font-size="10.00">crow.h</text>
</a>
</g>
</g>
<!-- Node1&#45;&gt;Node31 -->
<g id="edge53_Node000001_Node000031" class="edge">
<title>Node1&#45;&gt;Node31</title>
<g id="a_edge53_Node000001_Node000031"><a xlink:title=" ">
<path fill="none" stroke="#63b8ff" d="M1365.82,-373.91C1395.55,-364.35 1435.27,-351.11 1469.84,-338 1471.22,-337.48 1472.63,-336.93 1474.05,-336.37"/>
<polygon fill="#63b8ff" stroke="#63b8ff" points="1475.46,-339.57 1483.39,-332.54 1472.81,-333.09 1475.46,-339.57"/>
</a>
</g>
</g>
<!-- Node32 -->
<g id="Node000032" class="node">
<title>Node32</title>
<g id="a_Node000032"><a xlink:href="unix__path_8h.html" target="_top" xlink:title=" ">
<polygon fill="white" stroke="#666666" points="1432.34,-272 1311.34,-272 1311.34,-242 1432.34,-242 1432.34,-272"/>
<text text-anchor="start" x="1319.34" y="-260" font-family="Helvetica,sans-Serif" font-size="10.00">webcface/server/unix</text>
<text text-anchor="middle" x="1371.84" y="-249" font-family="Helvetica,sans-Serif" font-size="10.00">_path.h</text>
</a>
</g>
</g>
<!-- Node1&#45;&gt;Node32 -->
<g id="edge54_Node000001_Node000032" class="edge">
<title>Node1&#45;&gt;Node32</title>
<g id="a_edge54_Node000001_Node000032"><a xlink:title=" ">
<path fill="none" stroke="#63b8ff" d="M1322.98,-373.99C1325.78,-357.68 1331.47,-330.15 1340.84,-308 1344.81,-298.6 1350.4,-288.93 1355.74,-280.62"/>
<polygon fill="#63b8ff" stroke="#63b8ff" points="1358.71,-282.49 1361.35,-272.23 1352.89,-278.6 1358.71,-282.49"/>
</a>
</g>
</g>
<!-- Node35 -->
<g id="Node000035" class="node">
<title>Node35</title>
<g id="a_Node000035"><a xlink:title=" ">
<polygon fill="#e0e0e0" stroke="#999999" points="1600.84,-332.5 1544.84,-332.5 1544.84,-313.5 1600.84,-313.5 1600.84,-332.5"/>
<text text-anchor="middle" x="1572.84" y="-320.5" font-family="Helvetica,sans-Serif" font-size="10.00">unistd.h</text>
</a>
</g>
</g>
<!-- Node1&#45;&gt;Node35 -->
<g id="edge59_Node000001_Node000035" class="edge">
<title>Node1&#45;&gt;Node35</title>
<g id="a_edge59_Node000001_Node000035"><a xlink:title=" ">
<path fill="none" stroke="#63b8ff" d="M1392.15,-373.91C1434.31,-364.96 1488.54,-352.38 1535.84,-338 1537.76,-337.42 1539.72,-336.78 1541.7,-336.12"/>
<polygon fill="#63b8ff" stroke="#63b8ff" points="1543.24,-339.29 1551.48,-332.63 1540.89,-332.69 1543.24,-339.29"/>
</a>
</g>
</g>
<!-- Node36 -->
<g id="Node000036" class="node">
<title>Node36</title>
<g id="a_Node000036"><a xlink:title=" ">
<polygon fill="#e0e0e0" stroke="#999999" points="1682.84,-332.5 1618.84,-332.5 1618.84,-313.5 1682.84,-313.5 1682.84,-332.5"/>
<text text-anchor="middle" x="1650.84" y="-320.5" font-family="Helvetica,sans-Serif" font-size="10.00">sys/stat.h</text>
</a>
</g>
</g>
<!-- Node1&#45;&gt;Node36 -->
<g id="edge60_Node000001_Node000036" class="edge">
<title>Node1&#45;&gt;Node36</title>
<g id="a_edge60_Node000001_Node000036"><a xlink:title=" ">
<path fill="none" stroke="#63b8ff" d="M1412.08,-375.98C1469.35,-367.51 1544.47,-354.7 1609.84,-338 1612.48,-337.32 1615.19,-336.56 1617.91,-335.75"/>
<polygon fill="#63b8ff" stroke="#63b8ff" points="1619.15,-339.02 1627.61,-332.64 1617.02,-332.35 1619.15,-339.02"/>
</a>
</g>
</g>
<!-- Node3 -->
<g id="Node000003" class="node">
<title>Node3</title>
<g id="a_Node000003"><a xlink:title=" ">
<polygon fill="#e0e0e0" stroke="#999999" points="99.84,-74 17.84,-74 17.84,-55 99.84,-55 99.84,-74"/>
<text text-anchor="middle" x="58.84" y="-62" font-family="Helvetica,sans-Serif" font-size="10.00">msgpack.hpp</text>
</a>
</g>
</g>
<!-- Node2&#45;&gt;Node3 -->
<g id="edge2_Node000002_Node000003" class="edge">
<title>Node2&#45;&gt;Node3</title>
<g id="a_edge2_Node000002_Node000003"><a xlink:title=" ">
<path fill="none" stroke="#63b8ff" d="M844.31,-255.09C655.76,-251.39 204.62,-232.8 89.84,-140 72.77,-126.2 64.98,-101.39 61.51,-84.21"/>
<polygon fill="#63b8ff" stroke="#63b8ff" points="64.93,-83.48 59.79,-74.22 58.03,-84.66 64.93,-83.48"/>
</a>
</g>
</g>
<!-- Node4 -->
<g id="Node000004" class="node">
<title>Node4</title>
<g id="a_Node000004"><a xlink:title=" ">
<polygon fill="#e0e0e0" stroke="#999999" points="271.84,-19 227.84,-19 227.84,0 271.84,0 271.84,-19"/>
<text text-anchor="middle" x="249.84" y="-7" font-family="Helvetica,sans-Serif" font-size="10.00">string</text>
</a>
</g>
</g>
<!-- Node2&#45;&gt;Node4 -->
<g id="edge3_Node000002_Node000004" class="edge">
<title>Node2&#45;&gt;Node4</title>
<g id="a_edge3_Node000002_Node000004"><a xlink:title=" ">
<path fill="none" stroke="#63b8ff" d="M844.27,-255.83C673.53,-254.63 290.38,-247.25 166.84,-206 115.97,-189.02 106.2,-175.3 65.84,-140 31.6,-110.05 -20.26,-89.96 8.84,-55 34.97,-23.6 157.52,-14.27 217.12,-11.56"/>
<polygon fill="#63b8ff" stroke="#63b8ff" points="217.64,-15.05 227.48,-11.13 217.34,-8.05 217.64,-15.05"/>
</a>
</g>
</g>
<!-- Node5 -->
<g id="Node000005" class="node">
<title>Node5</title>
<g id="a_Node000005"><a xlink:title=" ">
<polygon fill="#e0e0e0" stroke="#999999" points="1059.34,-200.5 1014.34,-200.5 1014.34,-181.5 1059.34,-181.5 1059.34,-200.5"/>
<text text-anchor="middle" x="1036.84" y="-188.5" font-family="Helvetica,sans-Serif" font-size="10.00">utility</text>
</a>
</g>
</g>
<!-- Node2&#45;&gt;Node5 -->
<g id="edge4_Node000002_Node000005" class="edge">
<title>Node2&#45;&gt;Node5</title>
<g id="a_edge4_Node000002_Node000005"><a xlink:title=" ">
<path fill="none" stroke="#63b8ff" d="M942.54,-247.37C960.66,-236.73 991.69,-218.51 1013.18,-205.89"/>
<polygon fill="#63b8ff" stroke="#63b8ff" points="1015.17,-208.78 1022.02,-200.7 1011.63,-202.74 1015.17,-208.78"/>
</a>
</g>
</g>
<!-- Node6 -->
<g id="Node000006" class="node">
<title>Node6</title>
<g id="a_Node000006"><a xlink:title=" ">
<polygon fill="#e0e0e0" stroke="#999999" points="1024.34,-74 977.34,-74 977.34,-55 1024.34,-55 1024.34,-74"/>
<text text-anchor="middle" x="1000.84" y="-62" font-family="Helvetica,sans-Serif" font-size="10.00">vector</text>
</a>
</g>
</g>
<!-- Node2&#45;&gt;Node6 -->
<g id="edge5_Node000002_Node000006" class="edge">
<title>Node2&#45;&gt;Node6</title>
<g id="a_edge5_Node000002_Node000006"><a xlink:title=" ">
<path fill="none" stroke="#63b8ff" d="M925.2,-247.37C918.49,-223.62 903,-155.96 928.84,-110 937.28,-94.97 953.11,-84.37 967.77,-77.3"/>
<polygon fill="#63b8ff" stroke="#63b8ff" points="969.42,-80.4 977.15,-73.15 966.59,-73.99 969.42,-80.4"/>
</a>
</g>
</g>
<!-- Node7 -->
<g id="Node000007" class="node">
<title>Node7</title>
<g id="a_Node000007"><a xlink:title=" ">
<polygon fill="#e0e0e0" stroke="#999999" points="649.34,-200.5 602.34,-200.5 602.34,-181.5 649.34,-181.5 649.34,-200.5"/>
<text text-anchor="middle" x="625.84" y="-188.5" font-family="Helvetica,sans-Serif" font-size="10.00">deque</text>
</a>
</g>
</g>
<!-- Node2&#45;&gt;Node7 -->
<g id="edge6_Node000002_Node000007" class="edge">
<title>Node2&#45;&gt;Node7</title>
<g id="a_edge6_Node000002_Node000007"><a xlink:title=" ">
<path fill="none" stroke="#63b8ff" d="M859.43,-247.48C804.47,-239.63 725.7,-226.13 658.84,-206 657.16,-205.49 655.45,-204.93 653.73,-204.33"/>
<polygon fill="#63b8ff" stroke="#63b8ff" points="654.66,-200.93 644.08,-200.57 652.13,-207.46 654.66,-200.93"/>
</a>
</g>
</g>
<!-- Node8 -->
<g id="Node000008" class="node">
<title>Node8</title>
<g id="a_Node000008"><a xlink:title=" ">
<polygon fill="#e0e0e0" stroke="#999999" points="1112.34,-200.5 1077.34,-200.5 1077.34,-181.5 1112.34,-181.5 1112.34,-200.5"/>
<text text-anchor="middle" x="1094.84" y="-188.5" font-family="Helvetica,sans-Serif" font-size="10.00">any</text>
</a>
</g>
</g>
<!-- Node2&#45;&gt;Node8 -->
<g id="edge7_Node000002_Node000008" class="edge">
<title>Node2&#45;&gt;Node8</title>
<g id="a_edge7_Node000002_Node000008"><a xlink:title=" ">
<path fill="none" stroke="#63b8ff" d="M955.88,-247.46C984.7,-238.36 1030.61,-222.95 1068.84,-206 1069.52,-205.7 1070.21,-205.38 1070.91,-205.06"/>
<polygon fill="#63b8ff" stroke="#63b8ff" points="1072.54,-208.16 1079.91,-200.54 1069.4,-201.9 1072.54,-208.16"/>
</a>
</g>
</g>
<!-- Node9 -->
<g id="Node000009" class="node">
<title>Node9</title>
<g id="a_Node000009"><a xlink:title=" ">
<polygon fill="#e0e0e0" stroke="#999999" points="958.84,-74 908.84,-74 908.84,-55 958.84,-55 958.84,-74"/>
<text text-anchor="middle" x="933.84" y="-62" font-family="Helvetica,sans-Serif" font-size="10.00">cstdint</text>
</a>
</g>
</g>
<!-- Node2&#45;&gt;Node9 -->
<g id="edge8_Node000002_Node000009" class="edge">
<title>Node2&#45;&gt;Node9</title>
<g id="a_edge8_Node000002_Node000009"><a xlink:title=" ">
<path fill="none" stroke="#63b8ff" d="M919.96,-247.21C912.09,-237.79 900.52,-222.02 895.84,-206 883.85,-165.05 881.07,-150.03 895.84,-110 899.9,-98.99 908.03,-88.86 915.73,-81.05"/>
<polygon fill="#63b8ff" stroke="#63b8ff" points="918.25,-83.48 923.12,-74.07 913.45,-78.39 918.25,-83.48"/>
</a>
</g>
</g>
<!-- Node2&#45;&gt;Node10 -->
<g id="edge9_Node000002_Node000010" class="edge">
<title>Node2&#45;&gt;Node10</title>
<g id="a_edge9_Node000002_Node000010"><a xlink:title=" ">
<path fill="none" stroke="#63b8ff" d="M971.33,-247.44C1030.44,-235.8 1136.04,-215 1199.75,-202.45"/>
<polygon fill="#63b8ff" stroke="#63b8ff" points="1200.46,-205.88 1209.6,-200.51 1199.11,-199.01 1200.46,-205.88"/>
</a>
</g>
</g>
<!-- Node11 -->
<g id="Node000011" class="node">
<title>Node11</title>
<g id="a_Node000011"><a xlink:href="def_8h.html" target="_top" xlink:title=" ">
<polygon fill="white" stroke="#666666" points="948.84,-19 812.84,-19 812.84,0 948.84,0 948.84,-19"/>
<text text-anchor="middle" x="880.84" y="-7" font-family="Helvetica,sans-Serif" font-size="10.00">webcface/common/def.h</text>
</a>
</g>
</g>
<!-- Node2&#45;&gt;Node11 -->
<g id="edge10_Node000002_Node000011" class="edge">
<title>Node2&#45;&gt;Node11</title>
<g id="a_edge10_Node000002_Node000011"><a xlink:title=" ">
<path fill="none" stroke="#63b8ff" d="M935.34,-247.49C951.61,-229.19 989.9,-186.89 1005.84,-176 1039.71,-152.86 1068.18,-174.2 1090.84,-140 1098.2,-128.88 1095.03,-122.66 1090.84,-110 1081.24,-81.06 1075.11,-72.06 1049.84,-55 1023.06,-36.93 989.33,-26.19 959.06,-19.81"/>
<polygon fill="#63b8ff" stroke="#63b8ff" points="959.43,-16.32 948.94,-17.81 958.07,-23.18 959.43,-16.32"/>
</a>
</g>
</g>
<!-- Node12 -->
<g id="Node000012" class="node">
<title>Node12</title>
<g id="a_Node000012"><a xlink:href="u8string_8h.html" target="_top" xlink:title=" ">
<polygon fill="white" stroke="#666666" points="302.84,-134.5 140.84,-134.5 140.84,-115.5 302.84,-115.5 302.84,-134.5"/>
<text text-anchor="middle" x="221.84" y="-122.5" font-family="Helvetica,sans-Serif" font-size="10.00">webcface/message/u8string.h</text>
</a>
</g>
</g>
<!-- Node2&#45;&gt;Node12 -->
<g id="edge11_Node000002_Node000012" class="edge">
<title>Node2&#45;&gt;Node12</title>
<g id="a_edge11_Node000002_Node000012"><a xlink:title=" ">
<path fill="none" stroke="#63b8ff" d="M862.67,-247.49C795.2,-238.38 686.85,-222.95 593.84,-206 475.68,-184.47 337.72,-153.17 267.69,-136.84"/>
<polygon fill="#63b8ff" stroke="#63b8ff" points="268.39,-133.41 257.86,-134.54 266.8,-140.23 268.39,-133.41"/>
</a>
</g>
</g>
<!-- Node20 -->
<g id="Node000020" class="node">
<title>Node20</title>
<g id="a_Node000020"><a xlink:href="message_2include_2webcface_2message_2val__adaptor_8h.html" target="_top" xlink:title=" ">
<polygon fill="white" stroke="#666666" points="795.84,-206 667.84,-206 667.84,-176 795.84,-176 795.84,-206"/>
<text text-anchor="start" x="675.84" y="-194" font-family="Helvetica,sans-Serif" font-size="10.00">webcface/message/val</text>
<text text-anchor="middle" x="731.84" y="-183" font-family="Helvetica,sans-Serif" font-size="10.00">_adaptor.h</text>
</a>
</g>
</g>
<!-- Node2&#45;&gt;Node20 -->
<g id="edge24_Node000002_Node000020" class="edge">
<title>Node2&#45;&gt;Node20</title>
<g id="a_edge24_Node000002_Node000020"><a xlink:title=" ">
<path fill="none" stroke="#63b8ff" d="M901.4,-247.37C871.67,-237.66 822.6,-221.64 784.88,-209.32"/>
<polygon fill="#63b8ff" stroke="#63b8ff" points="785.66,-205.89 775.07,-206.12 783.48,-212.55 785.66,-205.89"/>
</a>
</g>
</g>
<!-- Node27 -->
<g id="Node000027" class="node">
<title>Node27</title>
<g id="a_Node000027"><a xlink:href="image__mode_8h.html" target="_top" xlink:title=" ">
<polygon fill="white" stroke="#666666" points="1081.84,-140 937.84,-140 937.84,-110 1081.84,-110 1081.84,-140"/>
<text text-anchor="start" x="945.84" y="-128" font-family="Helvetica,sans-Serif" font-size="10.00">webcface/encoding/image</text>
<text text-anchor="middle" x="1009.84" y="-117" font-family="Helvetica,sans-Serif" font-size="10.00">_mode.h</text>
</a>
</g>
</g>
<!-- Node2&#45;&gt;Node27 -->
<g id="edge41_Node000002_Node000027" class="edge">
<title>Node2&#45;&gt;Node27</title>
<g id="a_edge41_Node000002_Node000027"><a xlink:title=" ">
<path fill="none" stroke="#63b8ff" d="M932.06,-247.35C939.48,-232.42 955.6,-200.99 971.84,-176 977.99,-166.54 985.37,-156.55 991.99,-148.02"/>
<polygon fill="#63b8ff" stroke="#63b8ff" points="994.84,-150.06 998.28,-140.04 989.35,-145.72 994.84,-150.06"/>
</a>
</g>
</g>
<!-- Node12&#45;&gt;Node3 -->
<g id="edge21_Node000012_Node000003" class="edge">
<title>Node12&#45;&gt;Node3</title>
<g id="a_edge21_Node000012_Node000003"><a xlink:title=" ">
<path fill="none" stroke="#63b8ff" d="M198.13,-115.49C170.25,-105.49 123.76,-88.8 92.23,-77.49"/>
<polygon fill="#63b8ff" stroke="#63b8ff" points="93.16,-74.1 82.57,-74.02 90.8,-80.69 93.16,-74.1"/>
</a>
</g>
</g>
<!-- Node12&#45;&gt;Node4 -->
<g id="edge22_Node000012_Node000004" class="edge">
<title>Node12&#45;&gt;Node4</title>
<g id="a_edge22_Node000012_Node000004"><a xlink:title=" ">
<path fill="none" stroke="#63b8ff" d="M223.94,-115.47C228.44,-97.23 239.09,-54.07 245.24,-29.14"/>
<polygon fill="#63b8ff" stroke="#63b8ff" points="248.71,-29.68 247.71,-19.13 241.91,-28 248.71,-29.68"/>
</a>
</g>
</g>
<!-- Node12&#45;&gt;Node11 -->
<g id="edge23_Node000012_Node000011" class="edge">
<title>Node12&#45;&gt;Node11</title>
<g id="a_edge23_Node000012_Node000011"><a xlink:title=" ">
<path fill="none" stroke="#63b8ff" d="M302.97,-115.9C360.16,-108.68 437.99,-95.79 503.84,-74 521.76,-68.07 523.78,-60.53 541.84,-55 589.01,-40.56 717.88,-26.11 802.44,-17.75"/>
<polygon fill="#63b8ff" stroke="#63b8ff" points="802.91,-21.22 812.52,-16.76 802.23,-14.25 802.91,-21.22"/>
</a>
</g>
</g>
<!-- Node13 -->
<g id="Node000013" class="node">
<title>Node13</title>
<g id="a_Node000013"><a xlink:title=" ">
<polygon fill="#e0e0e0" stroke="#999999" points="195.34,-74 118.34,-74 118.34,-55 195.34,-55 195.34,-74"/>
<text text-anchor="middle" x="156.84" y="-62" font-family="Helvetica,sans-Serif" font-size="10.00">utf8/cpp20.h</text>
</a>
</g>
</g>
<!-- Node12&#45;&gt;Node13 -->
<g id="edge12_Node000012_Node000013" class="edge">
<title>Node12&#45;&gt;Node13</title>
<g id="a_edge12_Node000012_Node000013"><a xlink:title=" ">
<path fill="none" stroke="#63b8ff" d="M212.25,-115.37C202.26,-106.38 186.41,-92.11 174.21,-81.14"/>
<polygon fill="#63b8ff" stroke="#63b8ff" points="176.24,-78.26 166.47,-74.17 171.56,-83.46 176.24,-78.26"/>
</a>
</g>
</g>
<!-- Node14 -->
<g id="Node000014" class="node">
<title>Node14</title>
<g id="a_Node000014"><a xlink:href="encoding_8h.html" target="_top" xlink:title=" ">
<polygon fill="white" stroke="#666666" points="494.34,-74 327.34,-74 327.34,-55 494.34,-55 494.34,-74"/>
<text text-anchor="middle" x="410.84" y="-62" font-family="Helvetica,sans-Serif" font-size="10.00">webcface/encoding/encoding.h</text>
</a>
</g>
</g>
<!-- Node12&#45;&gt;Node14 -->
<g id="edge13_Node000012_Node000014" class="edge">
<title>Node12&#45;&gt;Node14</title>
<g id="a_edge13_Node000012_Node000014"><a xlink:title=" ">
<path fill="none" stroke="#63b8ff" d="M249.32,-115.49C282.07,-105.36 336.96,-88.37 373.53,-77.05"/>
<polygon fill="#63b8ff" stroke="#63b8ff" points="374.8,-80.32 383.32,-74.02 372.73,-73.63 374.8,-80.32"/>
</a>
</g>
</g>
<!-- Node14&#45;&gt;Node4 -->
<g id="edge14_Node000014_Node000004" class="edge">
<title>Node14&#45;&gt;Node4</title>
<g id="a_edge14_Node000014_Node000004"><a xlink:title=" ">
<path fill="none" stroke="#63b8ff" d="M384.97,-54.98C356.86,-45.73 311.92,-30.94 281.66,-20.98"/>
<polygon fill="#63b8ff" stroke="#63b8ff" points="282.6,-17.6 272.01,-17.8 280.42,-24.25 282.6,-17.6"/>
</a>
</g>
</g>
<!-- Node14&#45;&gt;Node11 -->
<g id="edge20_Node000014_Node000011" class="edge">
<title>Node14&#45;&gt;Node11</title>
<g id="a_edge20_Node000014_Node000011"><a xlink:title=" ">
<path fill="none" stroke="#63b8ff" d="M486.35,-54.98C573.09,-45.2 714.71,-29.23 802.58,-19.32"/>
<polygon fill="#63b8ff" stroke="#63b8ff" points="803.22,-22.77 812.76,-18.18 802.43,-15.82 803.22,-22.77"/>
</a>
</g>
</g>
<!-- Node15 -->
<g id="Node000015" class="node">
<title>Node15</title>
<g id="a_Node000015"><a xlink:title=" ">
<polygon fill="#e0e0e0" stroke="#999999" points="363.34,-19 290.34,-19 290.34,0 363.34,0 363.34,-19"/>
<text text-anchor="middle" x="326.84" y="-7" font-family="Helvetica,sans-Serif" font-size="10.00">string_view</text>
</a>
</g>
</g>
<!-- Node14&#45;&gt;Node15 -->
<g id="edge15_Node000014_Node000015" class="edge">
<title>Node14&#45;&gt;Node15</title>
<g id="a_edge15_Node000014_Node000015"><a xlink:title=" ">
<path fill="none" stroke="#63b8ff" d="M397.34,-54.98C384.44,-46.84 364.73,-34.41 349.43,-24.76"/>
<polygon fill="#63b8ff" stroke="#63b8ff" points="350.9,-21.55 340.58,-19.17 347.17,-27.47 350.9,-21.55"/>
</a>
</g>
</g>
<!-- Node16 -->
<g id="Node000016" class="node">
<title>Node16</title>
<g id="a_Node000016"><a xlink:title=" ">
<polygon fill="#e0e0e0" stroke="#999999" points="439.84,-19 381.84,-19 381.84,0 439.84,0 439.84,-19"/>
<text text-anchor="middle" x="410.84" y="-7" font-family="Helvetica,sans-Serif" font-size="10.00">memory</text>
</a>
</g>
</g>
<!-- Node14&#45;&gt;Node16 -->
<g id="edge16_Node000014_Node000016" class="edge">
<title>Node14&#45;&gt;Node16</title>
<g id="a_edge16_Node000014_Node000016"><a xlink:title=" ">
<path fill="none" stroke="#63b8ff" d="M410.84,-54.75C410.84,-47.8 410.84,-37.85 410.84,-29.13"/>
<polygon fill="#63b8ff" stroke="#63b8ff" points="414.34,-29.09 410.84,-19.09 407.34,-29.09 414.34,-29.09"/>
</a>
</g>
</g>
<!-- Node17 -->
<g id="Node000017" class="node">
<title>Node17</title>
<g id="a_Node000017"><a xlink:title=" ">
<polygon fill="#e0e0e0" stroke="#999999" points="758.84,-19 710.84,-19 710.84,0 758.84,0 758.84,-19"/>
<text text-anchor="middle" x="734.84" y="-7" font-family="Helvetica,sans-Serif" font-size="10.00">mutex</text>
</a>
</g>
</g>
<!-- Node14&#45;&gt;Node17 -->
<g id="edge17_Node000014_Node000017" class="edge">
<title>Node14&#45;&gt;Node17</title>
<g id="a_edge17_Node000014_Node000017"><a xlink:title=" ">
<path fill="none" stroke="#63b8ff" d="M462.89,-54.98C529.75,-44.05 643.9,-25.38 700.68,-16.09"/>
<polygon fill="#63b8ff" stroke="#63b8ff" points="701.29,-19.53 710.59,-14.47 700.16,-12.63 701.29,-19.53"/>
</a>
</g>
</g>
<!-- Node18 -->
<g id="Node000018" class="node">
<title>Node18</title>
<g id="a_Node000018"><a xlink:title=" ">
<polygon fill="#e0e0e0" stroke="#999999" points="551.34,-19 458.34,-19 458.34,0 551.34,0 551.34,-19"/>
<text text-anchor="middle" x="504.84" y="-7" font-family="Helvetica,sans-Serif" font-size="10.00">unordered_map</text>
</a>
</g>
</g>
<!-- Node14&#45;&gt;Node18 -->
<g id="edge18_Node000014_Node000018" class="edge">
<title>Node14&#45;&gt;Node18</title>
<g id="a_edge18_Node000014_Node000018"><a xlink:title=" ">
<path fill="none" stroke="#63b8ff" d="M425.94,-54.98C440.65,-46.69 463.26,-33.94 480.51,-24.22"/>
<polygon fill="#63b8ff" stroke="#63b8ff" points="482.47,-27.13 489.46,-19.17 479.03,-21.03 482.47,-27.13"/>
</a>
</g>
</g>
<!-- Node19 -->
<g id="Node000019" class="node">
<title>Node19</title>
<g id="a_Node000019"><a xlink:title=" ">
<polygon fill="#e0e0e0" stroke="#999999" points="655.84,-19 569.84,-19 569.84,0 655.84,0 655.84,-19"/>
<text text-anchor="middle" x="612.84" y="-7" font-family="Helvetica,sans-Serif" font-size="10.00">unordered_set</text>
</a>
</g>
</g>
<!-- Node14&#45;&gt;Node19 -->
<g id="edge19_Node000014_Node000019" class="edge">
<title>Node14&#45;&gt;Node19</title>
<g id="a_edge19_Node000014_Node000019"><a xlink:title=" ">
<path fill="none" stroke="#63b8ff" d="M443.29,-54.98C477.79,-45.93 532.5,-31.58 570.4,-21.64"/>
<polygon fill="#63b8ff" stroke="#63b8ff" points="571.34,-25.01 580.13,-19.08 569.57,-18.23 571.34,-25.01"/>
</a>
</g>
</g>
<!-- Node20&#45;&gt;Node3 -->
<g id="edge35_Node000020_Node000003" class="edge">
<title>Node20&#45;&gt;Node3</title>
<g id="a_edge35_Node000020_Node000003"><a xlink:title=" ">
<path fill="none" stroke="#63b8ff" d="M667.81,-177.27C664.78,-176.81 661.78,-176.38 658.84,-176 542.43,-160.92 238.44,-189.14 131.84,-140 104.95,-127.61 82.63,-100.66 70.01,-82.8"/>
<polygon fill="#63b8ff" stroke="#63b8ff" points="72.83,-80.72 64.32,-74.41 67.04,-84.65 72.83,-80.72"/>
</a>
</g>
</g>
<!-- Node20&#45;&gt;Node4 -->
<g id="edge36_Node000020_Node000004" class="edge">
<title>Node20&#45;&gt;Node4</title>
<g id="a_edge36_Node000020_Node000004"><a xlink:title=" ">
<path fill="none" stroke="#63b8ff" d="M667.75,-176.08C552.27,-150.58 318.39,-96.92 287.84,-74 272.62,-62.59 262.29,-43.13 256.29,-28.76"/>
<polygon fill="#63b8ff" stroke="#63b8ff" points="259.54,-27.45 252.68,-19.38 253,-29.97 259.54,-27.45"/>
</a>
</g>
</g>
<!-- Node20&#45;&gt;Node9 -->
<g id="edge37_Node000020_Node000009" class="edge">
<title>Node20&#45;&gt;Node9</title>
<g id="a_edge37_Node000020_Node000009"><a xlink:title=" ">
<path fill="none" stroke="#63b8ff" d="M756.07,-175.98C772.77,-166.18 795.36,-152.64 814.84,-140 834.38,-127.31 838.21,-122.56 857.84,-110 874.9,-99.08 894.66,-87.54 909.75,-78.95"/>
<polygon fill="#63b8ff" stroke="#63b8ff" points="911.5,-81.98 918.48,-74.02 908.05,-75.89 911.5,-81.98"/>
</a>
</g>
</g>
<!-- Node20&#45;&gt;Node11 -->
<g id="edge38_Node000020_Node000011" class="edge">
<title>Node20&#45;&gt;Node11</title>
<g id="a_edge38_Node000020_Node000011"><a xlink:title=" ">
<path fill="none" stroke="#63b8ff" d="M731.59,-175.75C732.05,-158.17 735.44,-128.37 751.84,-110 782.17,-76 813.73,-104.22 847.84,-74 861.47,-61.92 870.31,-42.84 875.38,-28.75"/>
<polygon fill="#63b8ff" stroke="#63b8ff" points="878.74,-29.74 878.53,-19.15 872.09,-27.55 878.74,-29.74"/>
</a>
</g>
</g>
<!-- Node20&#45;&gt;Node12 -->
<g id="edge40_Node000020_Node000012" class="edge">
<title>Node20&#45;&gt;Node12</title>
<g id="a_edge40_Node000020_Node000012"><a xlink:title=" ">
<path fill="none" stroke="#63b8ff" d="M667.79,-177.4C664.77,-176.91 661.77,-176.44 658.84,-176 507.65,-153.59 468.47,-159.15 316.84,-140 307.16,-138.78 296.95,-137.38 286.94,-135.96"/>
<polygon fill="#63b8ff" stroke="#63b8ff" points="287.44,-132.49 277.04,-134.53 286.44,-139.42 287.44,-132.49"/>
</a>
</g>
</g>
<!-- Node21 -->
<g id="Node000021" class="node">
<title>Node21</title>
<g id="a_Node000021"><a xlink:href="encoding_2include_2webcface_2encoding_2val__adaptor_8h.html" target="_top" xlink:title=" ">
<polygon fill="white" stroke="#666666" points="703.84,-140 575.84,-140 575.84,-110 703.84,-110 703.84,-140"/>
<text text-anchor="start" x="583.84" y="-128" font-family="Helvetica,sans-Serif" font-size="10.00">webcface/encoding/val</text>
<text text-anchor="middle" x="639.84" y="-117" font-family="Helvetica,sans-Serif" font-size="10.00">_adaptor.h</text>
</a>
</g>
</g>
<!-- Node20&#45;&gt;Node21 -->
<g id="edge25_Node000020_Node000021" class="edge">
<title>Node20&#45;&gt;Node21</title>
<g id="a_edge25_Node000020_Node000021"><a xlink:title=" ">
<path fill="none" stroke="#63b8ff" d="M711.42,-175.8C698.79,-167.01 682.4,-155.61 668.48,-145.93"/>
<polygon fill="#63b8ff" stroke="#63b8ff" points="670.4,-143 660.2,-140.16 666.41,-148.75 670.4,-143"/>
</a>
</g>
</g>
<!-- Node26 -->
<g id="Node000026" class="node">
<title>Node26</title>
<g id="a_Node000026"><a xlink:title=" ">
<polygon fill="#e0e0e0" stroke="#999999" points="805.34,-134.5 760.34,-134.5 760.34,-115.5 805.34,-115.5 805.34,-134.5"/>
<text text-anchor="middle" x="782.84" y="-122.5" font-family="Helvetica,sans-Serif" font-size="10.00">utf8.h</text>
</a>
</g>
</g>
<!-- Node20&#45;&gt;Node26 -->
<g id="edge39_Node000020_Node000026" class="edge">
<title>Node20&#45;&gt;Node26</title>
<g id="a_edge39_Node000020_Node000026"><a xlink:title=" ">
<path fill="none" stroke="#63b8ff" d="M743.15,-175.8C750.95,-166.01 761.34,-152.98 769.53,-142.7"/>
<polygon fill="#63b8ff" stroke="#63b8ff" points="772.29,-144.85 775.79,-134.84 766.82,-140.48 772.29,-144.85"/>
</a>
</g>
</g>
<!-- Node21&#45;&gt;Node4 -->
<g id="edge26_Node000021_Node000004" class="edge">
<title>Node21&#45;&gt;Node4</title>
<g id="a_edge26_Node000021_Node000004"><a xlink:title=" ">
<path fill="none" stroke="#63b8ff" d="M575.74,-118.46C495.45,-110.75 363.04,-95.31 318.84,-74 296.03,-63.01 275.48,-41.94 262.85,-27.1"/>
<polygon fill="#63b8ff" stroke="#63b8ff" points="265.42,-24.71 256.37,-19.2 260.01,-29.15 265.42,-24.71"/>
</a>
</g>
</g>
<!-- Node21&#45;&gt;Node6 -->
<g id="edge27_Node000021_Node000006" class="edge">
<title>Node21&#45;&gt;Node6</title>
<g id="a_edge27_Node000021_Node000006"><a xlink:title=" ">
<path fill="none" stroke="#63b8ff" d="M703.97,-116.17C768.14,-107.89 869.81,-93.6 967.1,-73.96"/>
<polygon fill="#63b8ff" stroke="#63b8ff" points="968.01,-77.35 977.11,-71.92 966.61,-70.49 968.01,-77.35"/>
</a>
</g>
</g>
<!-- Node21&#45;&gt;Node9 -->
<g id="edge30_Node000021_Node000009" class="edge">
<title>Node21&#45;&gt;Node9</title>
<g id="a_edge30_Node000021_Node000009"><a xlink:title=" ">
<path fill="none" stroke="#63b8ff" d="M703.99,-111.23C763.81,-99.33 850.79,-82.02 898.78,-72.48"/>
<polygon fill="#63b8ff" stroke="#63b8ff" points="899.56,-75.89 908.68,-70.5 898.19,-69.02 899.56,-75.89"/>
</a>
</g>
</g>
<!-- Node21&#45;&gt;Node11 -->
<g id="edge34_Node000021_Node000011" class="edge">
<title>Node21&#45;&gt;Node11</title>
<g id="a_edge34_Node000021_Node000011"><a xlink:title=" ">
<path fill="none" stroke="#63b8ff" d="M703.96,-110.63C748.64,-100.56 803.69,-86.42 823.84,-74 842.87,-62.27 859.28,-42.3 869.53,-27.88"/>
<polygon fill="#63b8ff" stroke="#63b8ff" points="872.61,-29.58 875.35,-19.35 866.83,-25.64 872.61,-29.58"/>
</a>
</g>
</g>
<!-- Node21&#45;&gt;Node14 -->
<g id="edge33_Node000021_Node000014" class="edge">
<title>Node21&#45;&gt;Node14</title>
<g id="a_edge33_Node000021_Node000014"><a xlink:title=" ">
<path fill="none" stroke="#63b8ff" d="M584.98,-109.99C544.95,-99.76 491.42,-86.09 454.32,-76.61"/>
<polygon fill="#63b8ff" stroke="#63b8ff" points="454.87,-73.14 444.32,-74.05 453.14,-79.92 454.87,-73.14"/>
</a>
</g>
</g>
<!-- Node22 -->
<g id="Node000022" class="node">
<title>Node22</title>
<g id="a_Node000022"><a xlink:title=" ">
<polygon fill="#e0e0e0" stroke="#999999" points="591.34,-74 550.34,-74 550.34,-55 591.34,-55 591.34,-74"/>
<text text-anchor="middle" x="570.84" y="-62" font-family="Helvetica,sans-Serif" font-size="10.00">tuple</text>
</a>
</g>
</g>
<!-- Node21&#45;&gt;Node22 -->
<g id="edge28_Node000021_Node000022" class="edge">
<title>Node21&#45;&gt;Node22</title>
<g id="a_edge28_Node000021_Node000022"><a xlink:title=" ">
<path fill="none" stroke="#63b8ff" d="M623.13,-109.84C612.81,-101.09 599.56,-89.85 588.98,-80.88"/>
<polygon fill="#63b8ff" stroke="#63b8ff" points="591.07,-78.06 581.18,-74.27 586.54,-83.4 591.07,-78.06"/>
</a>
</g>
</g>
<!-- Node23 -->
<g id="Node000023" class="node">
<title>Node23</title>
<g id="a_Node000023"><a xlink:title=" ">
<polygon fill="#e0e0e0" stroke="#999999" points="669.84,-74 609.84,-74 609.84,-55 669.84,-55 669.84,-74"/>
<text text-anchor="middle" x="639.84" y="-62" font-family="Helvetica,sans-Serif" font-size="10.00">concepts</text>
</a>
</g>
</g>
<!-- Node21&#45;&gt;Node23 -->
<g id="edge29_Node000021_Node000023" class="edge">
<title>Node21&#45;&gt;Node23</title>
<g id="a_edge29_Node000021_Node000023"><a xlink:title=" ">
<path fill="none" stroke="#63b8ff" d="M639.84,-109.84C639.84,-102.21 639.84,-92.7 639.84,-84.45"/>
<polygon fill="#63b8ff" stroke="#63b8ff" points="643.34,-84.27 639.84,-74.27 636.34,-84.27 643.34,-84.27"/>
</a>
</g>
</g>
<!-- Node24 -->
<g id="Node000024" class="node">
<title>Node24</title>
<g id="a_Node000024"><a xlink:title=" ">
<polygon fill="#e0e0e0" stroke="#999999" points="745.34,-74 688.34,-74 688.34,-55 745.34,-55 745.34,-74"/>
<text text-anchor="middle" x="716.84" y="-62" font-family="Helvetica,sans-Serif" font-size="10.00">ostream</text>
</a>
</g>
</g>
<!-- Node21&#45;&gt;Node24 -->
<g id="edge31_Node000021_Node000024" class="edge">
<title>Node21&#45;&gt;Node24</title>
<g id="a_edge31_Node000021_Node000024"><a xlink:title=" ">
<path fill="none" stroke="#63b8ff" d="M658.48,-109.84C670.22,-100.91 685.37,-89.41 697.29,-80.35"/>
<polygon fill="#63b8ff" stroke="#63b8ff" points="699.45,-83.1 705.3,-74.27 695.22,-77.53 699.45,-83.1"/>
</a>
</g>
</g>
<!-- Node25 -->
<g id="Node000025" class="node">
<title>Node25</title>
<g id="a_Node000025"><a xlink:title=" ">
<polygon fill="#e0e0e0" stroke="#999999" points="814.34,-74 763.34,-74 763.34,-55 814.34,-55 814.34,-74"/>
<text text-anchor="middle" x="788.84" y="-62" font-family="Helvetica,sans-Serif" font-size="10.00">variant</text>
</a>
</g>
</g>
<!-- Node21&#45;&gt;Node25 -->
<g id="edge32_Node000021_Node000025" class="edge">
<title>Node21&#45;&gt;Node25</title>
<g id="a_edge32_Node000021_Node000025"><a xlink:title=" ">
<path fill="none" stroke="#63b8ff" d="M675.53,-109.99C700.5,-100.18 733.54,-87.21 757.49,-77.81"/>
<polygon fill="#63b8ff" stroke="#63b8ff" points="758.8,-81.05 766.83,-74.14 756.24,-74.54 758.8,-81.05"/>
</a>
</g>
</g>
<!-- Node27&#45;&gt;Node11 -->
<g id="edge42_Node000027_Node000011" class="edge">
<title>Node27&#45;&gt;Node11</title>
<g id="a_edge42_Node000027_Node000011"><a xlink:title=" ">
<path fill="none" stroke="#63b8ff" d="M1021.95,-109.84C1033.12,-94.99 1046.25,-71.53 1033.84,-55 1022.72,-40.19 981.37,-28.69 944.45,-21.1"/>
<polygon fill="#63b8ff" stroke="#63b8ff" points="944.68,-17.58 934.19,-19.06 943.32,-24.44 944.68,-17.58"/>
</a>
</g>
</g>
<!-- Node30&#45;&gt;Node2 -->
<g id="edge47_Node000030_Node000002" class="edge">
<title>Node30&#45;&gt;Node2</title>
<g id="a_edge47_Node000030_Node000002"><a xlink:title=" ">
<path fill="none" stroke="#63b8ff" d="M1112.11,-313.37C1074.37,-302.03 1007.98,-282.08 966.04,-269.48"/>
<polygon fill="#63b8ff" stroke="#63b8ff" points="967.03,-266.12 956.45,-266.6 965.02,-272.83 967.03,-266.12"/>
</a>
</g>
</g>
<!-- Node30&#45;&gt;Node5 -->
<g id="edge50_Node000030_Node000005" class="edge">
<title>Node30&#45;&gt;Node5</title>
<g id="a_edge50_Node000030_Node000005"><a xlink:title=" ">
<path fill="none" stroke="#63b8ff" d="M1134.01,-313.47C1117.05,-292.27 1072.73,-236.86 1050.28,-208.8"/>
<polygon fill="#63b8ff" stroke="#63b8ff" points="1052.8,-206.35 1043.82,-200.73 1047.34,-210.73 1052.8,-206.35"/>
</a>
</g>
</g>
<!-- Node30&#45;&gt;Node6 -->
<g id="edge49_Node000030_Node000006" class="edge">
<title>Node30&#45;&gt;Node6</title>
<g id="a_edge49_Node000030_Node000006"><a xlink:title=" ">
<path fill="none" stroke="#63b8ff" d="M1141.67,-313.26C1144.22,-281.21 1148.54,-168.87 1090.84,-110 1075.22,-94.07 1052.72,-82.94 1034.12,-75.8"/>
<polygon fill="#63b8ff" stroke="#63b8ff" points="1035.13,-72.44 1024.54,-72.33 1032.75,-79.03 1035.13,-72.44"/>
</a>
</g>
</g>
<!-- Node30&#45;&gt;Node8 -->
<g id="edge48_Node000030_Node000008" class="edge">
<title>Node30&#45;&gt;Node8</title>
<g id="a_edge48_Node000030_Node000008"><a xlink:title=" ">
<path fill="none" stroke="#63b8ff" d="M1137.82,-313.47C1130.44,-292.63 1111.39,-238.77 1101.31,-210.28"/>
<polygon fill="#63b8ff" stroke="#63b8ff" points="1104.56,-208.99 1097.93,-200.73 1097.96,-211.33 1104.56,-208.99"/>
</a>
</g>
</g>
<!-- Node30&#45;&gt;Node17 -->
<g id="edge52_Node000030_Node000017" class="edge">
<title>Node30&#45;&gt;Node17</title>
<g id="a_edge52_Node000030_Node000017"><a xlink:title=" ">
<path fill="none" stroke="#63b8ff" d="M1144.28,-313.32C1147.99,-303.49 1153.65,-286.88 1155.84,-272 1166.62,-198.52 1163.06,-166.48 1114.84,-110 1086.58,-76.91 1074.37,-70.82 1033.84,-55 1009.55,-45.52 842.79,-23.94 769.39,-14.76"/>
<polygon fill="#63b8ff" stroke="#63b8ff" points="769.62,-11.26 759.27,-13.5 768.76,-18.21 769.62,-11.26"/>
</a>
</g>
</g>
<!-- Node30&#45;&gt;Node29 -->
<g id="edge51_Node000030_Node000029" class="edge">
<title>Node30&#45;&gt;Node29</title>
<g id="a_edge51_Node000030_Node000029"><a xlink:title=" ">
<path fill="none" stroke="#63b8ff" d="M1152.97,-313.37C1167.6,-302.97 1192.41,-285.32 1210.1,-272.75"/>
<polygon fill="#63b8ff" stroke="#63b8ff" points="1212.48,-275.35 1218.6,-266.7 1208.43,-269.64 1212.48,-275.35"/>
</a>
</g>
</g>
<!-- Node32&#45;&gt;Node10 -->
<g id="edge56_Node000032_Node000010" class="edge">
<title>Node32&#45;&gt;Node10</title>
<g id="a_edge56_Node000032_Node000010"><a xlink:title=" ">
<path fill="none" stroke="#63b8ff" d="M1345.72,-241.95C1325.5,-231.08 1297.66,-216.11 1277.75,-205.4"/>
<polygon fill="#63b8ff" stroke="#63b8ff" points="1279.14,-202.17 1268.67,-200.52 1275.82,-208.34 1279.14,-202.17"/>
</a>
</g>
</g>
<!-- Node32&#45;&gt;Node11 -->
<g id="edge55_Node000032_Node000011" class="edge">
<title>Node32&#45;&gt;Node11</title>
<g id="a_edge55_Node000032_Node000011"><a xlink:title=" ">
<path fill="none" stroke="#63b8ff" d="M1364.71,-241.92C1344.69,-204.06 1283.91,-99.88 1199.84,-55 1159.39,-33.41 1039.87,-21.22 959.17,-15.25"/>
<polygon fill="#63b8ff" stroke="#63b8ff" points="959.26,-11.74 949.04,-14.51 958.76,-18.73 959.26,-11.74"/>
</a>
</g>
</g>
<!-- Node33 -->
<g id="Node000033" class="node">
<title>Node33</title>
<g id="a_Node000033"><a xlink:title=" ">
<polygon fill="#e0e0e0" stroke="#999999" points="1422.84,-200.5 1354.84,-200.5 1354.84,-181.5 1422.84,-181.5 1422.84,-200.5"/>
<text text-anchor="middle" x="1388.84" y="-188.5" font-family="Helvetica,sans-Serif" font-size="10.00">filesystem</text>
</a>
</g>
</g>
<!-- Node32&#45;&gt;Node33 -->
<g id="edge57_Node000032_Node000033" class="edge">
<title>Node32&#45;&gt;Node33</title>
<g id="a_edge57_Node000032_Node000033"><a xlink:title=" ">
<path fill="none" stroke="#63b8ff" d="M1375.61,-241.8C1378.05,-232.6 1381.26,-220.53 1383.9,-210.58"/>
<polygon fill="#63b8ff" stroke="#63b8ff" points="1387.3,-211.41 1386.49,-200.84 1380.54,-209.61 1387.3,-211.41"/>
</a>
</g>
</g>
<!-- Node34 -->
<g id="Node000034" class="node">
<title>Node34</title>
<g id="a_Node000034"><a xlink:title=" ">
<polygon fill="#e0e0e0" stroke="#999999" points="1496.84,-200.5 1440.84,-200.5 1440.84,-181.5 1496.84,-181.5 1496.84,-200.5"/>
<text text-anchor="middle" x="1468.84" y="-188.5" font-family="Helvetica,sans-Serif" font-size="10.00">optional</text>
</a>
</g>
</g>
<!-- Node32&#45;&gt;Node34 -->
<g id="edge58_Node000032_Node000034" class="edge">
<title>Node32&#45;&gt;Node34</title>
<g id="a_edge58_Node000032_Node000034"><a xlink:title=" ">
<path fill="none" stroke="#63b8ff" d="M1393.36,-241.8C1409.32,-231.27 1430.99,-216.97 1447.02,-206.4"/>
<polygon fill="#63b8ff" stroke="#63b8ff" points="1449.29,-209.09 1455.71,-200.66 1445.44,-203.24 1449.29,-209.09"/>
</a>
</g>
</g>
</g>
</svg>
