<?xml version="1.0" encoding="UTF-8" standalone="no"?>
<!DOCTYPE svg PUBLIC "-//W3C//DTD SVG 1.1//EN"
 "http://www.w3.org/Graphics/SVG/1.1/DTD/svg11.dtd">
<!-- Generated by graphviz version 2.43.0 (0)
 -->
<!-- Title: /home/runner/work/webcface/webcface/examples/func.cc Pages: 1 -->
<svg width="1826pt" height="434pt"
 viewBox="0.00 0.00 1826.00 434.00" xmlns="http://www.w3.org/2000/svg" xmlns:xlink="http://www.w3.org/1999/xlink">
<g id="graph0" class="graph" transform="scale(1 1) rotate(0) translate(4 430)">
<title>/home/runner/work/webcface/webcface/examples/func.cc</title>
<!-- Node1 -->
<g id="Node000001" class="node">
<title>Node1</title>
<g id="a_Node000001"><a xlink:title=" ">
<polygon fill="#999999" stroke="#666666" points="1554,-426 1396,-426 1396,-396 1554,-396 1554,-426"/>
<text text-anchor="start" x="1404" y="-414" font-family="Helvetica,sans-Serif" font-size="10.00">/home/runner/work/webcface</text>
<text text-anchor="middle" x="1475" y="-403" font-family="Helvetica,sans-Serif" font-size="10.00">/webcface/examples/func.cc</text>
</a>
</g>
</g>
<!-- Node2 -->
<g id="Node000002" class="node">
<title>Node2</title>
<g id="a_Node000002"><a xlink:href="client_8h.html" target="_top" xlink:title=" ">
<polygon fill="white" stroke="#666666" points="1365,-360 1263,-360 1263,-341 1365,-341 1365,-360"/>
<text text-anchor="middle" x="1314" y="-348" font-family="Helvetica,sans-Serif" font-size="10.00">webcface/client.h</text>
</a>
</g>
</g>
<!-- Node1&#45;&gt;Node2 -->
<g id="edge1_Node000001_Node000002" class="edge">
<title>Node1&#45;&gt;Node2</title>
<g id="a_edge1_Node000001_Node000002"><a xlink:title=" ">
<path fill="none" stroke="#63b8ff" d="M1436.44,-395.99C1409.21,-386.1 1373.12,-372.98 1347.18,-363.56"/>
<polygon fill="#63b8ff" stroke="#63b8ff" points="1348.37,-360.26 1337.78,-360.14 1345.98,-366.84 1348.37,-360.26"/>
</a>
</g>
</g>
<!-- Node16 -->
<g id="Node000016" class="node">
<title>Node16</title>
<g id="a_Node000016"><a xlink:href="func_8h.html" target="_top" xlink:title=" ">
<polygon fill="white" stroke="#666666" points="661.5,-250 614.5,-250 614.5,-231 661.5,-231 661.5,-250"/>
<text text-anchor="middle" x="638" y="-238" font-family="Helvetica,sans-Serif" font-size="10.00">func.h</text>
</a>
</g>
</g>
<!-- Node1&#45;&gt;Node16 -->
<g id="edge70_Node000001_Node000016" class="edge">
<title>Node1&#45;&gt;Node16</title>
<g id="a_edge70_Node000001_Node000016"><a xlink:title=" ">
<path fill="none" stroke="#63b8ff" d="M1405.44,-396C1234.1,-361.5 796.6,-273.43 671.74,-248.29"/>
<polygon fill="#63b8ff" stroke="#63b8ff" points="672.13,-244.8 661.63,-246.26 670.75,-251.66 672.13,-244.8"/>
</a>
</g>
</g>
<!-- Node33 -->
<g id="Node000033" class="node">
<title>Node33</title>
<g id="a_Node000033"><a xlink:title=" ">
<polygon fill="#e0e0e0" stroke="#999999" points="1433,-360 1383,-360 1383,-341 1433,-341 1433,-360"/>
<text text-anchor="middle" x="1408" y="-348" font-family="Helvetica,sans-Serif" font-size="10.00">chrono</text>
</a>
</g>
</g>
<!-- Node1&#45;&gt;Node33 -->
<g id="edge71_Node000001_Node000033" class="edge">
<title>Node1&#45;&gt;Node33</title>
<g id="a_edge71_Node000001_Node000033"><a xlink:title=" ">
<path fill="none" stroke="#63b8ff" d="M1458.78,-395.84C1448.76,-387.09 1435.89,-375.85 1425.62,-366.88"/>
<polygon fill="#63b8ff" stroke="#63b8ff" points="1427.87,-364.21 1418.04,-360.27 1423.27,-369.48 1427.87,-364.21"/>
</a>
</g>
</g>
<!-- Node34 -->
<g id="Node000034" class="node">
<title>Node34</title>
<g id="a_Node000034"><a xlink:title=" ">
<polygon fill="#e0e0e0" stroke="#999999" points="1498.5,-360 1451.5,-360 1451.5,-341 1498.5,-341 1498.5,-360"/>
<text text-anchor="middle" x="1475" y="-348" font-family="Helvetica,sans-Serif" font-size="10.00">cmath</text>
</a>
</g>
</g>
<!-- Node1&#45;&gt;Node34 -->
<g id="edge72_Node000001_Node000034" class="edge">
<title>Node1&#45;&gt;Node34</title>
<g id="a_edge72_Node000001_Node000034"><a xlink:title=" ">
<path fill="none" stroke="#63b8ff" d="M1475,-395.84C1475,-388.21 1475,-378.7 1475,-370.45"/>
<polygon fill="#63b8ff" stroke="#63b8ff" points="1478.5,-370.27 1475,-360.27 1471.5,-370.27 1478.5,-370.27"/>
</a>
</g>
</g>
<!-- Node35 -->
<g id="Node000035" class="node">
<title>Node35</title>
<g id="a_Node000035"><a xlink:title=" ">
<polygon fill="#e0e0e0" stroke="#999999" points="1577,-360 1517,-360 1517,-341 1577,-341 1577,-360"/>
<text text-anchor="middle" x="1547" y="-348" font-family="Helvetica,sans-Serif" font-size="10.00">iostream</text>
</a>
</g>
</g>
<!-- Node1&#45;&gt;Node35 -->
<g id="edge73_Node000001_Node000035" class="edge">
<title>Node1&#45;&gt;Node35</title>
<g id="a_edge73_Node000001_Node000035"><a xlink:title=" ">
<path fill="none" stroke="#63b8ff" d="M1492.43,-395.84C1503.31,-387 1517.3,-375.63 1528.39,-366.62"/>
<polygon fill="#63b8ff" stroke="#63b8ff" points="1530.66,-369.29 1536.21,-360.27 1526.24,-363.86 1530.66,-369.29"/>
</a>
</g>
</g>
<!-- Node36 -->
<g id="Node000036" class="node">
<title>Node36</title>
<g id="a_Node000036"><a xlink:title=" ">
<polygon fill="#e0e0e0" stroke="#999999" points="1654.5,-360 1595.5,-360 1595.5,-341 1654.5,-341 1654.5,-360"/>
<text text-anchor="middle" x="1625" y="-348" font-family="Helvetica,sans-Serif" font-size="10.00">numbers</text>
</a>
</g>
</g>
<!-- Node1&#45;&gt;Node36 -->
<g id="edge74_Node000001_Node000036" class="edge">
<title>Node1&#45;&gt;Node36</title>
<g id="a_edge74_Node000001_Node000036"><a xlink:title=" ">
<path fill="none" stroke="#63b8ff" d="M1510.93,-395.99C1536.07,-386.18 1569.33,-373.21 1593.45,-363.81"/>
<polygon fill="#63b8ff" stroke="#63b8ff" points="1594.8,-367.03 1602.85,-360.14 1592.26,-360.51 1594.8,-367.03"/>
</a>
</g>
</g>
<!-- Node37 -->
<g id="Node000037" class="node">
<title>Node37</title>
<g id="a_Node000037"><a xlink:title=" ">
<polygon fill="#e0e0e0" stroke="#999999" points="1721,-360 1673,-360 1673,-341 1721,-341 1721,-360"/>
<text text-anchor="middle" x="1697" y="-348" font-family="Helvetica,sans-Serif" font-size="10.00">thread</text>
</a>
</g>
</g>
<!-- Node1&#45;&gt;Node37 -->
<g id="edge75_Node000001_Node000037" class="edge">
<title>Node1&#45;&gt;Node37</title>
<g id="a_edge75_Node000001_Node000037"><a xlink:title=" ">
<path fill="none" stroke="#63b8ff" d="M1528.17,-395.99C1569.97,-384.97 1626.94,-369.96 1662.85,-360.5"/>
<polygon fill="#63b8ff" stroke="#63b8ff" points="1664.05,-363.8 1672.83,-357.87 1662.27,-357.03 1664.05,-363.8"/>
</a>
</g>
</g>
<!-- Node3 -->
<g id="Node000003" class="node">
<title>Node3</title>
<g id="a_Node000003"><a xlink:title=" ">
<polygon fill="#e0e0e0" stroke="#999999" points="1368,-19 1324,-19 1324,0 1368,0 1368,-19"/>
<text text-anchor="middle" x="1346" y="-7" font-family="Helvetica,sans-Serif" font-size="10.00">string</text>
</a>
</g>
</g>
<!-- Node2&#45;&gt;Node3 -->
<g id="edge2_Node000002_Node000003" class="edge">
<title>Node2&#45;&gt;Node3</title>
<g id="a_edge2_Node000002_Node000003"><a xlink:title=" ">
<path fill="none" stroke="#63b8ff" d="M1345.55,-340.88C1405.74,-323.51 1531,-282.42 1531,-241.5 1531,-241.5 1531,-241.5 1531,-184.5 1531,-118.86 1509.32,-98.32 1460,-55 1447.43,-43.96 1407.21,-29.67 1378.1,-20.3"/>
<polygon fill="#63b8ff" stroke="#63b8ff" points="1378.92,-16.89 1368.33,-17.21 1376.8,-23.56 1378.92,-16.89"/>
</a>
</g>
</g>
<!-- Node4 -->
<g id="Node000004" class="node">
<title>Node4</title>
<g id="a_Node000004"><a xlink:title=" ">
<polygon fill="#e0e0e0" stroke="#999999" points="1818,-19 1760,-19 1760,0 1818,0 1818,-19"/>
<text text-anchor="middle" x="1789" y="-7" font-family="Helvetica,sans-Serif" font-size="10.00">memory</text>
</a>
</g>
</g>
<!-- Node2&#45;&gt;Node4 -->
<g id="edge3_Node000002_Node000004" class="edge">
<title>Node2&#45;&gt;Node4</title>
<g id="a_edge3_Node000002_Node000004"><a xlink:title=" ">
<path fill="none" stroke="#63b8ff" d="M1364.28,-340.99C1488.71,-319.6 1801,-263.69 1801,-241.5 1801,-241.5 1801,-241.5 1801,-124 1801,-90.42 1795.74,-51.56 1792.19,-29.13"/>
<polygon fill="#63b8ff" stroke="#63b8ff" points="1795.6,-28.31 1790.52,-19.01 1788.69,-29.45 1795.6,-28.31"/>
</a>
</g>
</g>
<!-- Node5 -->
<g id="Node000005" class="node">
<title>Node5</title>
<g id="a_Node000005"><a xlink:title=" ">
<polygon fill="#e0e0e0" stroke="#999999" points="1224.5,-74 1177.5,-74 1177.5,-55 1224.5,-55 1224.5,-74"/>
<text text-anchor="middle" x="1201" y="-62" font-family="Helvetica,sans-Serif" font-size="10.00">vector</text>
</a>
</g>
</g>
<!-- Node2&#45;&gt;Node5 -->
<g id="edge4_Node000002_Node000005" class="edge">
<title>Node2&#45;&gt;Node5</title>
<g id="a_edge4_Node000002_Node000005"><a xlink:title=" ">
<path fill="none" stroke="#63b8ff" d="M1325.72,-340.84C1346.81,-324.16 1389,-285.33 1389,-241.5 1389,-241.5 1389,-241.5 1389,-184.5 1389,-112.28 1288.74,-82.08 1234.65,-71.04"/>
<polygon fill="#63b8ff" stroke="#63b8ff" points="1235.29,-67.6 1224.81,-69.14 1233.96,-74.47 1235.29,-67.6"/>
</a>
</g>
</g>
<!-- Node6 -->
<g id="Node000006" class="node">
<title>Node6</title>
<g id="a_Node000006"><a xlink:href="member_8h.html" target="_top" xlink:title=" ">
<polygon fill="white" stroke="#666666" points="1273,-305 1207,-305 1207,-286 1273,-286 1273,-305"/>
<text text-anchor="middle" x="1240" y="-293" font-family="Helvetica,sans-Serif" font-size="10.00">member.h</text>
</a>
</g>
</g>
<!-- Node2&#45;&gt;Node6 -->
<g id="edge5_Node000002_Node000006" class="edge">
<title>Node2&#45;&gt;Node6</title>
<g id="a_edge5_Node000002_Node000006"><a xlink:title=" ">
<path fill="none" stroke="#63b8ff" d="M1302.11,-340.98C1290.85,-332.92 1273.71,-320.65 1260.29,-311.03"/>
<polygon fill="#63b8ff" stroke="#63b8ff" points="1262.27,-308.15 1252.11,-305.17 1258.2,-313.84 1262.27,-308.15"/>
</a>
</g>
</g>
<!-- Node11 -->
<g id="Node000011" class="node">
<title>Node11</title>
<g id="a_Node000011"><a xlink:href="def_8h.html" target="_top" xlink:title=" ">
<polygon fill="white" stroke="#666666" points="768,-19 632,-19 632,0 768,0 768,-19"/>
<text text-anchor="middle" x="700" y="-7" font-family="Helvetica,sans-Serif" font-size="10.00">webcface/common/def.h</text>
</a>
</g>
</g>
<!-- Node2&#45;&gt;Node11 -->
<g id="edge69_Node000002_Node000011" class="edge">
<title>Node2&#45;&gt;Node11</title>
<g id="a_edge69_Node000002_Node000011"><a xlink:title=" ">
<path fill="none" stroke="#63b8ff" d="M1262.89,-348.03C1020.68,-340.71 0,-306.06 0,-241.5 0,-241.5 0,-241.5 0,-124 0,-84.5 20.95,-73.2 56,-55 105.06,-29.52 461,-16.88 621.67,-12.43"/>
<polygon fill="#63b8ff" stroke="#63b8ff" points="622.07,-15.92 631.97,-12.15 621.87,-8.92 622.07,-15.92"/>
</a>
</g>
</g>
<!-- Node6&#45;&gt;Node3 -->
<g id="edge6_Node000006_Node000003" class="edge">
<title>Node6&#45;&gt;Node3</title>
<g id="a_edge6_Node000006_Node000003"><a xlink:title=" ">
<path fill="none" stroke="#63b8ff" d="M1268.61,-286C1321.15,-268.6 1431.42,-223.4 1473,-140 1498.84,-88.17 1422,-43.97 1376.68,-23.19"/>
<polygon fill="#63b8ff" stroke="#63b8ff" points="1378.1,-19.99 1367.54,-19.12 1375.25,-26.38 1378.1,-19.99"/>
</a>
</g>
</g>
<!-- Node6&#45;&gt;Node5 -->
<g id="edge7_Node000006_Node000005" class="edge">
<title>Node6&#45;&gt;Node5</title>
<g id="a_edge7_Node000006_Node000005"><a xlink:title=" ">
<path fill="none" stroke="#63b8ff" d="M1238.52,-285.8C1232.81,-252.29 1212.17,-131.08 1204.18,-84.2"/>
<polygon fill="#63b8ff" stroke="#63b8ff" points="1207.61,-83.48 1202.48,-74.21 1200.71,-84.65 1207.61,-83.48"/>
</a>
</g>
</g>
<!-- Node7 -->
<g id="Node000007" class="node">
<title>Node7</title>
<g id="a_Node000007"><a xlink:title=" ">
<polygon fill="#e0e0e0" stroke="#999999" points="1285,-134.5 1229,-134.5 1229,-115.5 1285,-115.5 1285,-134.5"/>
<text text-anchor="middle" x="1257" y="-122.5" font-family="Helvetica,sans-Serif" font-size="10.00">optional</text>
</a>
</g>
</g>
<!-- Node6&#45;&gt;Node7 -->
<g id="edge8_Node000006_Node000007" class="edge">
<title>Node6&#45;&gt;Node7</title>
<g id="a_edge8_Node000006_Node000007"><a xlink:title=" ">
<path fill="none" stroke="#63b8ff" d="M1240.87,-285.91C1243.49,-259.89 1251.4,-181.47 1255.08,-145.01"/>
<polygon fill="#63b8ff" stroke="#63b8ff" points="1258.59,-145.07 1256.11,-134.77 1251.63,-144.37 1258.59,-145.07"/>
</a>
</g>
</g>
<!-- Node8 -->
<g id="Node000008" class="node">
<title>Node8</title>
<g id="a_Node000008"><a xlink:title=" ">
<polygon fill="#e0e0e0" stroke="#999999" points="813,-74 753,-74 753,-55 813,-55 813,-74"/>
<text text-anchor="middle" x="783" y="-62" font-family="Helvetica,sans-Serif" font-size="10.00">concepts</text>
</a>
</g>
</g>
<!-- Node6&#45;&gt;Node8 -->
<g id="edge9_Node000006_Node000008" class="edge">
<title>Node6&#45;&gt;Node8</title>
<g id="a_edge9_Node000006_Node000008"><a xlink:title=" ">
<path fill="none" stroke="#63b8ff" d="M1206.99,-294.08C1162.99,-292.14 1084.07,-283.75 1027,-250 956.46,-208.28 974.48,-156.5 907,-110 881.56,-92.47 848.45,-81.05 822.84,-74.17"/>
<polygon fill="#63b8ff" stroke="#63b8ff" points="823.63,-70.76 813.07,-71.67 821.89,-77.54 823.63,-70.76"/>
</a>
</g>
</g>
<!-- Node9 -->
<g id="Node000009" class="node">
<title>Node9</title>
<g id="a_Node000009"><a xlink:href="field_8h.html" target="_top" xlink:title=" ">
<polygon fill="white" stroke="#666666" points="1464.5,-134.5 1417.5,-134.5 1417.5,-115.5 1464.5,-115.5 1464.5,-134.5"/>
<text text-anchor="middle" x="1441" y="-122.5" font-family="Helvetica,sans-Serif" font-size="10.00">field.h</text>
</a>
</g>
</g>
<!-- Node6&#45;&gt;Node9 -->
<g id="edge10_Node000006_Node000009" class="edge">
<title>Node6&#45;&gt;Node9</title>
<g id="a_edge10_Node000006_Node000009"><a xlink:title=" ">
<path fill="none" stroke="#63b8ff" d="M1251.82,-285.77C1274.6,-268.85 1325.92,-230.14 1367,-195 1387.5,-177.47 1410.03,-156.14 1424.78,-141.88"/>
<polygon fill="#63b8ff" stroke="#63b8ff" points="1427.38,-144.23 1432.12,-134.75 1422.51,-139.21 1427.38,-144.23"/>
</a>
</g>
</g>
<!-- Node6&#45;&gt;Node11 -->
<g id="edge24_Node000006_Node000011" class="edge">
<title>Node6&#45;&gt;Node11</title>
<g id="a_edge24_Node000006_Node000011"><a xlink:title=" ">
<path fill="none" stroke="#63b8ff" d="M1228.14,-285.85C1181.15,-251.91 1002.57,-126.21 839,-55 807.65,-41.35 770.74,-29.73 742.83,-21.79"/>
<polygon fill="#63b8ff" stroke="#63b8ff" points="743.55,-18.36 732.98,-19.03 741.67,-25.1 743.55,-18.36"/>
</a>
</g>
</g>
<!-- Node6&#45;&gt;Node16 -->
<g id="edge25_Node000006_Node000016" class="edge">
<title>Node6&#45;&gt;Node16</title>
<g id="a_edge25_Node000006_Node000016"><a xlink:title=" ">
<path fill="none" stroke="#63b8ff" d="M1206.78,-291.57C1101.68,-282.32 777.21,-253.76 671.6,-244.46"/>
<polygon fill="#63b8ff" stroke="#63b8ff" points="671.78,-240.96 661.51,-243.57 671.16,-247.93 671.78,-240.96"/>
</a>
</g>
</g>
<!-- Node32 -->
<g id="Node000032" class="node">
<title>Node32</title>
<g id="a_Node000032"><a xlink:href="log_8h.html" target="_top" xlink:title=" ">
<polygon fill="white" stroke="#666666" points="1358,-195 1268,-195 1268,-176 1358,-176 1358,-195"/>
<text text-anchor="middle" x="1313" y="-183" font-family="Helvetica,sans-Serif" font-size="10.00">webcface/log.h</text>
</a>
</g>
</g>
<!-- Node6&#45;&gt;Node32 -->
<g id="edge63_Node000006_Node000032" class="edge">
<title>Node6&#45;&gt;Node32</title>
<g id="a_edge63_Node000006_Node000032"><a xlink:title=" ">
<path fill="none" stroke="#63b8ff" d="M1245.97,-285.66C1258.06,-267.77 1285.62,-227 1301.38,-203.69"/>
<polygon fill="#63b8ff" stroke="#63b8ff" points="1304.45,-205.4 1307.15,-195.16 1298.65,-201.48 1304.45,-205.4"/>
</a>
</g>
</g>
<!-- Node9&#45;&gt;Node3 -->
<g id="edge12_Node000009_Node000003" class="edge">
<title>Node9&#45;&gt;Node3</title>
<g id="a_edge12_Node000009_Node000003"><a xlink:title=" ">
<path fill="none" stroke="#63b8ff" d="M1437.55,-115.24C1431.81,-101.42 1419.32,-74.15 1403,-55 1393.11,-43.39 1379.76,-32.77 1368.47,-24.83"/>
<polygon fill="#63b8ff" stroke="#63b8ff" points="1370.2,-21.77 1359.96,-19.06 1366.28,-27.56 1370.2,-21.77"/>
</a>
</g>
</g>
<!-- Node9&#45;&gt;Node4 -->
<g id="edge11_Node000009_Node000004" class="edge">
<title>Node9&#45;&gt;Node4</title>
<g id="a_edge11_Node000009_Node000004"><a xlink:title=" ">
<path fill="none" stroke="#63b8ff" d="M1464.85,-124.41C1515.5,-124.33 1636.34,-119 1724,-74 1745.62,-62.9 1764.75,-42.17 1776.57,-27.42"/>
<polygon fill="#63b8ff" stroke="#63b8ff" points="1779.61,-29.2 1782.93,-19.14 1774.06,-24.93 1779.61,-29.2"/>
</a>
</g>
</g>
<!-- Node9&#45;&gt;Node5 -->
<g id="edge14_Node000009_Node000005" class="edge">
<title>Node9&#45;&gt;Node5</title>
<g id="a_edge14_Node000009_Node000005"><a xlink:title=" ">
<path fill="none" stroke="#63b8ff" d="M1419.47,-115.49C1414.13,-113.54 1408.4,-111.58 1403,-110 1344.51,-92.87 1274.78,-78.89 1234.43,-71.42"/>
<polygon fill="#63b8ff" stroke="#63b8ff" points="1235.06,-67.97 1224.59,-69.62 1233.8,-74.86 1235.06,-67.97"/>
</a>
</g>
</g>
<!-- Node10 -->
<g id="Node000010" class="node">
<title>Node10</title>
<g id="a_Node000010"><a xlink:title=" ">
<polygon fill="#e0e0e0" stroke="#999999" points="1741.5,-19 1668.5,-19 1668.5,0 1741.5,0 1741.5,-19"/>
<text text-anchor="middle" x="1705" y="-7" font-family="Helvetica,sans-Serif" font-size="10.00">string_view</text>
</a>
</g>
</g>
<!-- Node9&#45;&gt;Node10 -->
<g id="edge13_Node000009_Node000010" class="edge">
<title>Node9&#45;&gt;Node10</title>
<g id="a_edge13_Node000009_Node000010"><a xlink:title=" ">
<path fill="none" stroke="#63b8ff" d="M1464.72,-123.24C1523.87,-120.78 1675.37,-110.95 1706,-74 1716.22,-61.68 1714.52,-42.91 1711.14,-28.97"/>
<polygon fill="#63b8ff" stroke="#63b8ff" points="1714.41,-27.67 1708.27,-19.04 1707.69,-29.62 1714.41,-27.67"/>
</a>
</g>
</g>
<!-- Node9&#45;&gt;Node11 -->
<g id="edge15_Node000009_Node000011" class="edge">
<title>Node9&#45;&gt;Node11</title>
<g id="a_edge15_Node000009_Node000011"><a xlink:title=" ">
<path fill="none" stroke="#63b8ff" d="M1434.66,-115.25C1422.93,-99.84 1396.16,-68.25 1365,-55 1312.23,-32.57 942.47,-18.19 778.26,-12.85"/>
<polygon fill="#63b8ff" stroke="#63b8ff" points="778.33,-9.35 768.22,-12.52 778.1,-16.35 778.33,-9.35"/>
</a>
</g>
</g>
<!-- Node12 -->
<g id="Node000012" class="node">
<title>Node12</title>
<g id="a_Node000012"><a xlink:href="encoding_8h.html" target="_top" xlink:title=" ">
<polygon fill="white" stroke="#666666" points="1697.5,-74 1530.5,-74 1530.5,-55 1697.5,-55 1697.5,-74"/>
<text text-anchor="middle" x="1614" y="-62" font-family="Helvetica,sans-Serif" font-size="10.00">webcface/encoding/encoding.h</text>
</a>
</g>
</g>
<!-- Node9&#45;&gt;Node12 -->
<g id="edge16_Node000009_Node000012" class="edge">
<title>Node9&#45;&gt;Node12</title>
<g id="a_edge16_Node000009_Node000012"><a xlink:title=" ">
<path fill="none" stroke="#63b8ff" d="M1464.69,-115.99C1494.26,-105.99 1545.05,-88.81 1579.08,-77.31"/>
<polygon fill="#63b8ff" stroke="#63b8ff" points="1580.28,-80.6 1588.63,-74.08 1578.04,-73.97 1580.28,-80.6"/>
</a>
</g>
</g>
<!-- Node12&#45;&gt;Node3 -->
<g id="edge17_Node000012_Node000003" class="edge">
<title>Node12&#45;&gt;Node3</title>
<g id="a_edge17_Node000012_Node000003"><a xlink:title=" ">
<path fill="none" stroke="#63b8ff" d="M1561.96,-54.99C1516.03,-47.2 1447.07,-34.81 1378.42,-19.18"/>
<polygon fill="#63b8ff" stroke="#63b8ff" points="1378.83,-15.68 1368.3,-16.85 1377.26,-22.5 1378.83,-15.68"/>
</a>
</g>
</g>
<!-- Node12&#45;&gt;Node4 -->
<g id="edge19_Node000012_Node000004" class="edge">
<title>Node12&#45;&gt;Node4</title>
<g id="a_edge19_Node000012_Node000004"><a xlink:title=" ">
<path fill="none" stroke="#63b8ff" d="M1642.12,-54.98C1671.62,-46.05 1718.19,-31.94 1750.97,-22.02"/>
<polygon fill="#63b8ff" stroke="#63b8ff" points="1752.11,-25.33 1760.66,-19.08 1750.08,-18.63 1752.11,-25.33"/>
</a>
</g>
</g>
<!-- Node12&#45;&gt;Node10 -->
<g id="edge18_Node000012_Node000010" class="edge">
<title>Node12&#45;&gt;Node10</title>
<g id="a_edge18_Node000012_Node000010"><a xlink:title=" ">
<path fill="none" stroke="#63b8ff" d="M1628.62,-54.98C1642.86,-46.69 1664.75,-33.94 1681.45,-24.22"/>
<polygon fill="#63b8ff" stroke="#63b8ff" points="1683.23,-27.23 1690.11,-19.17 1679.71,-21.18 1683.23,-27.23"/>
</a>
</g>
</g>
<!-- Node12&#45;&gt;Node11 -->
<g id="edge23_Node000012_Node000011" class="edge">
<title>Node12&#45;&gt;Node11</title>
<g id="a_edge23_Node000012_Node000011"><a xlink:title=" ">
<path fill="none" stroke="#63b8ff" d="M1530.47,-58.66C1354.8,-48.47 949.31,-24.96 778.31,-15.04"/>
<polygon fill="#63b8ff" stroke="#63b8ff" points="778.31,-11.54 768.13,-14.45 777.91,-18.52 778.31,-11.54"/>
</a>
</g>
</g>
<!-- Node13 -->
<g id="Node000013" class="node">
<title>Node13</title>
<g id="a_Node000013"><a xlink:title=" ">
<polygon fill="#e0e0e0" stroke="#999999" points="1650,-19 1602,-19 1602,0 1650,0 1650,-19"/>
<text text-anchor="middle" x="1626" y="-7" font-family="Helvetica,sans-Serif" font-size="10.00">mutex</text>
</a>
</g>
</g>
<!-- Node12&#45;&gt;Node13 -->
<g id="edge20_Node000012_Node000013" class="edge">
<title>Node12&#45;&gt;Node13</title>
<g id="a_edge20_Node000012_Node000013"><a xlink:title=" ">
<path fill="none" stroke="#63b8ff" d="M1615.98,-54.75C1617.57,-47.72 1619.86,-37.62 1621.85,-28.84"/>
<polygon fill="#63b8ff" stroke="#63b8ff" points="1625.26,-29.62 1624.06,-19.09 1618.43,-28.07 1625.26,-29.62"/>
</a>
</g>
</g>
<!-- Node14 -->
<g id="Node000014" class="node">
<title>Node14</title>
<g id="a_Node000014"><a xlink:title=" ">
<polygon fill="#e0e0e0" stroke="#999999" points="1479.5,-19 1386.5,-19 1386.5,0 1479.5,0 1479.5,-19"/>
<text text-anchor="middle" x="1433" y="-7" font-family="Helvetica,sans-Serif" font-size="10.00">unordered_map</text>
</a>
</g>
</g>
<!-- Node12&#45;&gt;Node14 -->
<g id="edge21_Node000012_Node000014" class="edge">
<title>Node12&#45;&gt;Node14</title>
<g id="a_edge21_Node000012_Node000014"><a xlink:title=" ">
<path fill="none" stroke="#63b8ff" d="M1584.92,-54.98C1554.4,-46.05 1506.24,-31.94 1472.34,-22.02"/>
<polygon fill="#63b8ff" stroke="#63b8ff" points="1472.89,-18.53 1462.31,-19.08 1470.92,-25.25 1472.89,-18.53"/>
</a>
</g>
</g>
<!-- Node15 -->
<g id="Node000015" class="node">
<title>Node15</title>
<g id="a_Node000015"><a xlink:title=" ">
<polygon fill="#e0e0e0" stroke="#999999" points="1584,-19 1498,-19 1498,0 1584,0 1584,-19"/>
<text text-anchor="middle" x="1541" y="-7" font-family="Helvetica,sans-Serif" font-size="10.00">unordered_set</text>
</a>
</g>
</g>
<!-- Node12&#45;&gt;Node15 -->
<g id="edge22_Node000012_Node000015" class="edge">
<title>Node12&#45;&gt;Node15</title>
<g id="a_edge22_Node000012_Node000015"><a xlink:title=" ">
<path fill="none" stroke="#63b8ff" d="M1602.27,-54.98C1591.27,-47 1574.58,-34.88 1561.4,-25.31"/>
<polygon fill="#63b8ff" stroke="#63b8ff" points="1563.09,-22.21 1552.94,-19.17 1558.98,-27.88 1563.09,-22.21"/>
</a>
</g>
</g>
<!-- Node16&#45;&gt;Node5 -->
<g id="edge26_Node000016_Node000005" class="edge">
<title>Node16&#45;&gt;Node5</title>
<g id="a_edge26_Node000016_Node000005"><a xlink:title=" ">
<path fill="none" stroke="#63b8ff" d="M661.75,-234.88C699.23,-227.43 774.27,-211.89 837,-195 915.31,-173.91 934.54,-167.04 1011,-140 1068.34,-119.72 1134.21,-93.14 1171.39,-77.83"/>
<polygon fill="#63b8ff" stroke="#63b8ff" points="1172.74,-81.06 1180.65,-74 1170.07,-74.59 1172.74,-81.06"/>
</a>
</g>
</g>
<!-- Node16&#45;&gt;Node11 -->
<g id="edge62_Node000016_Node000011" class="edge">
<title>Node16&#45;&gt;Node11</title>
<g id="a_edge62_Node000016_Node000011"><a xlink:title=" ">
<path fill="none" stroke="#63b8ff" d="M614.28,-235.94C565.87,-228.64 452.18,-211.26 357,-195 220.4,-171.67 38.61,-247.36 57,-110 60.36,-84.89 52.42,-71.08 72,-55 113.58,-20.85 462.8,-12.9 621.76,-11.06"/>
<polygon fill="#63b8ff" stroke="#63b8ff" points="621.98,-14.56 631.94,-10.95 621.91,-7.56 621.98,-14.56"/>
</a>
</g>
</g>
<!-- Node17 -->
<g id="Node000017" class="node">
<title>Node17</title>
<g id="a_Node000017"><a xlink:href="func__info_8h.html" target="_top" xlink:title=" ">
<polygon fill="white" stroke="#666666" points="828.5,-195 757.5,-195 757.5,-176 828.5,-176 828.5,-195"/>
<text text-anchor="middle" x="793" y="-183" font-family="Helvetica,sans-Serif" font-size="10.00">func_info.h</text>
</a>
</g>
</g>
<!-- Node16&#45;&gt;Node17 -->
<g id="edge27_Node000016_Node000017" class="edge">
<title>Node16&#45;&gt;Node17</title>
<g id="a_edge27_Node000016_Node000017"><a xlink:title=" ">
<path fill="none" stroke="#63b8ff" d="M661.54,-231.45C687.33,-222.63 728.96,-208.4 758.45,-198.31"/>
<polygon fill="#63b8ff" stroke="#63b8ff" points="759.62,-201.61 767.95,-195.07 757.36,-194.99 759.62,-201.61"/>
</a>
</g>
</g>
<!-- Node23 -->
<g id="Node000023" class="node">
<title>Node23</title>
<g id="a_Node000023"><a xlink:href="encoding_2include_2webcface_2encoding_2val__adaptor_8h.html" target="_top" xlink:title=" ">
<polygon fill="white" stroke="#666666" points="702,-140 574,-140 574,-110 702,-110 702,-140"/>
<text text-anchor="start" x="582" y="-128" font-family="Helvetica,sans-Serif" font-size="10.00">webcface/encoding/val</text>
<text text-anchor="middle" x="638" y="-117" font-family="Helvetica,sans-Serif" font-size="10.00">_adaptor.h</text>
</a>
</g>
</g>
<!-- Node16&#45;&gt;Node23 -->
<g id="edge47_Node000016_Node000023" class="edge">
<title>Node16&#45;&gt;Node23</title>
<g id="a_edge47_Node000016_Node000023"><a xlink:title=" ">
<path fill="none" stroke="#63b8ff" d="M638,-230.97C638,-214.08 638,-175.85 638,-150.48"/>
<polygon fill="#63b8ff" stroke="#63b8ff" points="641.5,-150.18 638,-140.18 634.5,-150.18 641.5,-150.18"/>
</a>
</g>
</g>
<!-- Node27 -->
<g id="Node000027" class="node">
<title>Node27</title>
<g id="a_Node000027"><a xlink:href="func__result_8h.html" target="_top" xlink:title=" ">
<polygon fill="white" stroke="#666666" points="446,-195 366,-195 366,-176 446,-176 446,-195"/>
<text text-anchor="middle" x="406" y="-183" font-family="Helvetica,sans-Serif" font-size="10.00">func_result.h</text>
</a>
</g>
</g>
<!-- Node16&#45;&gt;Node27 -->
<g id="edge48_Node000016_Node000027" class="edge">
<title>Node16&#45;&gt;Node27</title>
<g id="a_edge48_Node000016_Node000027"><a xlink:title=" ">
<path fill="none" stroke="#63b8ff" d="M614.48,-234.13C576.84,-225.53 502.33,-208.51 453.34,-197.31"/>
<polygon fill="#63b8ff" stroke="#63b8ff" points="453.83,-193.84 443.3,-195.02 452.27,-200.66 453.83,-193.84"/>
</a>
</g>
</g>
<!-- Node17&#45;&gt;Node3 -->
<g id="edge33_Node000017_Node000003" class="edge">
<title>Node17&#45;&gt;Node3</title>
<g id="a_edge33_Node000017_Node000003"><a xlink:title=" ">
<path fill="none" stroke="#63b8ff" d="M821.7,-175.92C845.42,-168.23 879.53,-155.74 907,-140 925.67,-129.3 925.68,-119.47 945,-110 1072.73,-47.39 1243.22,-22.07 1313.55,-13.84"/>
<polygon fill="#63b8ff" stroke="#63b8ff" points="1314.03,-17.31 1323.58,-12.71 1313.25,-10.35 1314.03,-17.31"/>
</a>
</g>
</g>
<!-- Node17&#45;&gt;Node5 -->
<g id="edge29_Node000017_Node000005" class="edge">
<title>Node17&#45;&gt;Node5</title>
<g id="a_edge29_Node000017_Node000005"><a xlink:title=" ">
<path fill="none" stroke="#63b8ff" d="M822.34,-175.94C896.14,-154.42 1089.12,-98.13 1167.34,-75.32"/>
<polygon fill="#63b8ff" stroke="#63b8ff" points="1168.54,-78.61 1177.16,-72.45 1166.58,-71.89 1168.54,-78.61"/>
</a>
</g>
</g>
<!-- Node17&#45;&gt;Node7 -->
<g id="edge32_Node000017_Node000007" class="edge">
<title>Node17&#45;&gt;Node7</title>
<g id="a_edge32_Node000017_Node000007"><a xlink:title=" ">
<path fill="none" stroke="#63b8ff" d="M828.68,-181.23C897.17,-174.76 1051.74,-159.29 1181,-140 1193.32,-138.16 1206.69,-135.82 1218.74,-133.57"/>
<polygon fill="#63b8ff" stroke="#63b8ff" points="1219.75,-136.94 1228.92,-131.64 1218.45,-130.07 1219.75,-136.94"/>
</a>
</g>
</g>
<!-- Node17&#45;&gt;Node11 -->
<g id="edge46_Node000017_Node000011" class="edge">
<title>Node17&#45;&gt;Node11</title>
<g id="a_edge46_Node000017_Node000011"><a xlink:title=" ">
<path fill="none" stroke="#63b8ff" d="M780.22,-176C769.61,-168.1 755.28,-155.27 749,-140 743.93,-127.67 741.96,-121.32 749,-110 770.45,-75.5 845.29,-88.28 822,-55 810.83,-39.03 793.29,-28.78 774.96,-22.19"/>
<polygon fill="#63b8ff" stroke="#63b8ff" points="775.93,-18.83 765.34,-19.07 773.77,-25.48 775.93,-18.83"/>
</a>
</g>
</g>
<!-- Node18 -->
<g id="Node000018" class="node">
<title>Node18</title>
<g id="a_Node000018"><a xlink:title=" ">
<polygon fill="#e0e0e0" stroke="#999999" points="518,-134.5 472,-134.5 472,-115.5 518,-115.5 518,-134.5"/>
<text text-anchor="middle" x="495" y="-122.5" font-family="Helvetica,sans-Serif" font-size="10.00">future</text>
</a>
</g>
</g>
<!-- Node17&#45;&gt;Node18 -->
<g id="edge28_Node000017_Node000018" class="edge">
<title>Node17&#45;&gt;Node18</title>
<g id="a_edge28_Node000017_Node000018"><a xlink:title=" ">
<path fill="none" stroke="#63b8ff" d="M757.49,-180.65C706.83,-174.66 611.18,-161.51 532,-140 529.71,-139.38 527.36,-138.67 525.01,-137.9"/>
<polygon fill="#63b8ff" stroke="#63b8ff" points="526.11,-134.58 515.51,-134.56 523.78,-141.18 526.11,-134.58"/>
</a>
</g>
</g>
<!-- Node19 -->
<g id="Node000019" class="node">
<title>Node19</title>
<g id="a_Node000019"><a xlink:title=" ">
<polygon fill="#e0e0e0" stroke="#999999" points="827.5,-134.5 758.5,-134.5 758.5,-115.5 827.5,-115.5 827.5,-134.5"/>
<text text-anchor="middle" x="793" y="-122.5" font-family="Helvetica,sans-Serif" font-size="10.00">type_traits</text>
</a>
</g>
</g>
<!-- Node17&#45;&gt;Node19 -->
<g id="edge30_Node000017_Node000019" class="edge">
<title>Node17&#45;&gt;Node19</title>
<g id="a_edge30_Node000017_Node000019"><a xlink:title=" ">
<path fill="none" stroke="#63b8ff" d="M793,-175.87C793,-167.75 793,-155.31 793,-144.89"/>
<polygon fill="#63b8ff" stroke="#63b8ff" points="796.5,-144.67 793,-134.67 789.5,-144.67 796.5,-144.67"/>
</a>
</g>
</g>
<!-- Node20 -->
<g id="Node000020" class="node">
<title>Node20</title>
<g id="a_Node000020"><a xlink:title=" ">
<polygon fill="#e0e0e0" stroke="#999999" points="1172.5,-134.5 1107.5,-134.5 1107.5,-115.5 1172.5,-115.5 1172.5,-134.5"/>
<text text-anchor="middle" x="1140" y="-122.5" font-family="Helvetica,sans-Serif" font-size="10.00">functional</text>
</a>
</g>
</g>
<!-- Node17&#45;&gt;Node20 -->
<g id="edge31_Node000017_Node000020" class="edge">
<title>Node17&#45;&gt;Node20</title>
<g id="a_edge31_Node000017_Node000020"><a xlink:title=" ">
<path fill="none" stroke="#63b8ff" d="M828.5,-178.51C892.74,-167.68 1028.01,-144.88 1097.23,-133.21"/>
<polygon fill="#63b8ff" stroke="#63b8ff" points="1098.07,-136.62 1107.35,-131.5 1096.9,-129.72 1098.07,-136.62"/>
</a>
</g>
</g>
<!-- Node21 -->
<g id="Node000021" class="node">
<title>Node21</title>
<g id="a_Node000021"><a xlink:title=" ">
<polygon fill="#e0e0e0" stroke="#999999" points="529.5,-74 472.5,-74 472.5,-55 529.5,-55 529.5,-74"/>
<text text-anchor="middle" x="501" y="-62" font-family="Helvetica,sans-Serif" font-size="10.00">ostream</text>
</a>
</g>
</g>
<!-- Node17&#45;&gt;Node21 -->
<g id="edge34_Node000017_Node000021" class="edge">
<title>Node17&#45;&gt;Node21</title>
<g id="a_edge34_Node000017_Node000021"><a xlink:title=" ">
<path fill="none" stroke="#63b8ff" d="M757.29,-184.61C710.15,-183.25 626.01,-175.49 565,-140 541.12,-126.11 521.84,-99.97 510.89,-82.64"/>
<polygon fill="#63b8ff" stroke="#63b8ff" points="513.87,-80.8 505.69,-74.05 507.88,-84.42 513.87,-80.8"/>
</a>
</g>
</g>
<!-- Node22 -->
<g id="Node000022" class="node">
<title>Node22</title>
<g id="a_Node000022"><a xlink:title=" ">
<polygon fill="#e0e0e0" stroke="#999999" points="898.5,-134.5 845.5,-134.5 845.5,-115.5 898.5,-115.5 898.5,-134.5"/>
<text text-anchor="middle" x="872" y="-122.5" font-family="Helvetica,sans-Serif" font-size="10.00">cstddef</text>
</a>
</g>
</g>
<!-- Node17&#45;&gt;Node22 -->
<g id="edge35_Node000017_Node000022" class="edge">
<title>Node17&#45;&gt;Node22</title>
<g id="a_edge35_Node000017_Node000022"><a xlink:title=" ">
<path fill="none" stroke="#63b8ff" d="M804.66,-175.87C817.14,-166.62 837.18,-151.78 852.16,-140.69"/>
<polygon fill="#63b8ff" stroke="#63b8ff" points="854.34,-143.43 860.3,-134.67 850.18,-137.81 854.34,-143.43"/>
</a>
</g>
</g>
<!-- Node17&#45;&gt;Node23 -->
<g id="edge36_Node000017_Node000023" class="edge">
<title>Node17&#45;&gt;Node23</title>
<g id="a_edge36_Node000017_Node000023"><a xlink:title=" ">
<path fill="none" stroke="#63b8ff" d="M770.46,-175.99C748.15,-167.57 713.33,-154.43 684.99,-143.73"/>
<polygon fill="#63b8ff" stroke="#63b8ff" points="685.86,-140.32 675.26,-140.06 683.38,-146.87 685.86,-140.32"/>
</a>
</g>
</g>
<!-- Node23&#45;&gt;Node3 -->
<g id="edge37_Node000023_Node000003" class="edge">
<title>Node23&#45;&gt;Node3</title>
<g id="a_edge37_Node000023_Node000003"><a xlink:title=" ">
<path fill="none" stroke="#63b8ff" d="M657.22,-109.81C682.46,-91.47 725.69,-61.18 744,-55 851.03,-18.89 1204.68,-12.04 1313.71,-10.78"/>
<polygon fill="#63b8ff" stroke="#63b8ff" points="1313.81,-14.28 1323.77,-10.67 1313.73,-7.28 1313.81,-14.28"/>
</a>
</g>
</g>
<!-- Node23&#45;&gt;Node5 -->
<g id="edge38_Node000023_Node000005" class="edge">
<title>Node23&#45;&gt;Node5</title>
<g id="a_edge38_Node000023_Node000005"><a xlink:title=" ">
<path fill="none" stroke="#63b8ff" d="M702.24,-115.6C717.55,-113.68 733.85,-111.7 749,-110 905.09,-92.48 1091.95,-75.28 1167.18,-68.51"/>
<polygon fill="#63b8ff" stroke="#63b8ff" points="1167.8,-71.97 1177.45,-67.59 1167.18,-65 1167.8,-71.97"/>
</a>
</g>
</g>
<!-- Node23&#45;&gt;Node8 -->
<g id="edge40_Node000023_Node000008" class="edge">
<title>Node23&#45;&gt;Node8</title>
<g id="a_edge40_Node000023_Node000008"><a xlink:title=" ">
<path fill="none" stroke="#63b8ff" d="M672.73,-109.99C696.92,-100.23 728.9,-87.33 752.19,-77.93"/>
<polygon fill="#63b8ff" stroke="#63b8ff" points="753.62,-81.13 761.59,-74.14 751,-74.63 753.62,-81.13"/>
</a>
</g>
</g>
<!-- Node23&#45;&gt;Node11 -->
<g id="edge45_Node000023_Node000011" class="edge">
<title>Node23&#45;&gt;Node11</title>
<g id="a_edge45_Node000023_Node000011"><a xlink:title=" ">
<path fill="none" stroke="#63b8ff" d="M610.79,-109.99C588.46,-96.57 562.67,-75.42 577,-55 588.22,-39.01 605.78,-28.74 624.16,-22.16"/>
<polygon fill="#63b8ff" stroke="#63b8ff" points="625.38,-25.44 633.82,-19.04 623.23,-18.78 625.38,-25.44"/>
</a>
</g>
</g>
<!-- Node23&#45;&gt;Node12 -->
<g id="edge44_Node000023_Node000012" class="edge">
<title>Node23&#45;&gt;Node12</title>
<g id="a_edge44_Node000023_Node000012"><a xlink:title=" ">
<path fill="none" stroke="#63b8ff" d="M702.18,-115.08C717.5,-113.18 733.81,-111.35 749,-110 1028.94,-85.18 1361.17,-72.88 1520.14,-68.05"/>
<polygon fill="#63b8ff" stroke="#63b8ff" points="1520.46,-71.54 1530.35,-67.74 1520.25,-64.55 1520.46,-71.54"/>
</a>
</g>
</g>
<!-- Node23&#45;&gt;Node21 -->
<g id="edge42_Node000023_Node000021" class="edge">
<title>Node23&#45;&gt;Node21</title>
<g id="a_edge42_Node000023_Node000021"><a xlink:title=" ">
<path fill="none" stroke="#63b8ff" d="M605.19,-109.99C582.53,-100.31 552.65,-87.56 530.7,-78.18"/>
<polygon fill="#63b8ff" stroke="#63b8ff" points="531.8,-74.85 521.23,-74.14 529.05,-81.29 531.8,-74.85"/>
</a>
</g>
</g>
<!-- Node24 -->
<g id="Node000024" class="node">
<title>Node24</title>
<g id="a_Node000024"><a xlink:title=" ">
<polygon fill="#e0e0e0" stroke="#999999" points="696.5,-74 655.5,-74 655.5,-55 696.5,-55 696.5,-74"/>
<text text-anchor="middle" x="676" y="-62" font-family="Helvetica,sans-Serif" font-size="10.00">tuple</text>
</a>
</g>
</g>
<!-- Node23&#45;&gt;Node24 -->
<g id="edge39_Node000023_Node000024" class="edge">
<title>Node23&#45;&gt;Node24</title>
<g id="a_edge39_Node000023_Node000024"><a xlink:title=" ">
<path fill="none" stroke="#63b8ff" d="M647.2,-109.84C652.49,-101.69 659.18,-91.4 664.78,-82.78"/>
<polygon fill="#63b8ff" stroke="#63b8ff" points="667.79,-84.56 670.31,-74.27 661.92,-80.75 667.79,-84.56"/>
</a>
</g>
</g>
<!-- Node25 -->
<g id="Node000025" class="node">
<title>Node25</title>
<g id="a_Node000025"><a xlink:title=" ">
<polygon fill="#e0e0e0" stroke="#999999" points="378,-74 328,-74 328,-55 378,-55 378,-74"/>
<text text-anchor="middle" x="353" y="-62" font-family="Helvetica,sans-Serif" font-size="10.00">cstdint</text>
</a>
</g>
</g>
<!-- Node23&#45;&gt;Node25 -->
<g id="edge41_Node000023_Node000025" class="edge">
<title>Node23&#45;&gt;Node25</title>
<g id="a_edge41_Node000023_Node000025"><a xlink:title=" ">
<path fill="none" stroke="#63b8ff" d="M573.69,-110.8C516.14,-98.99 433.97,-82.12 387.85,-72.65"/>
<polygon fill="#63b8ff" stroke="#63b8ff" points="388.53,-69.22 378.03,-70.64 387.12,-76.08 388.53,-69.22"/>
</a>
</g>
</g>
<!-- Node26 -->
<g id="Node000026" class="node">
<title>Node26</title>
<g id="a_Node000026"><a xlink:title=" ">
<polygon fill="#e0e0e0" stroke="#999999" points="637.5,-74 586.5,-74 586.5,-55 637.5,-55 637.5,-74"/>
<text text-anchor="middle" x="612" y="-62" font-family="Helvetica,sans-Serif" font-size="10.00">variant</text>
</a>
</g>
</g>
<!-- Node23&#45;&gt;Node26 -->
<g id="edge43_Node000023_Node000026" class="edge">
<title>Node23&#45;&gt;Node26</title>
<g id="a_edge43_Node000023_Node000026"><a xlink:title=" ">
<path fill="none" stroke="#63b8ff" d="M631.71,-109.84C628.2,-101.95 623.8,-92.05 620.05,-83.61"/>
<polygon fill="#63b8ff" stroke="#63b8ff" points="623.16,-81.98 615.9,-74.27 616.76,-84.83 623.16,-81.98"/>
</a>
</g>
</g>
<!-- Node27&#45;&gt;Node3 -->
<g id="edge50_Node000027_Node000003" class="edge">
<title>Node27&#45;&gt;Node3</title>
<g id="a_edge50_Node000027_Node000003"><a xlink:title=" ">
<path fill="none" stroke="#63b8ff" d="M404.44,-175.85C400.72,-152.22 394.18,-86.29 430,-55 463.95,-25.34 1155.15,-13.33 1313.76,-10.95"/>
<polygon fill="#63b8ff" stroke="#63b8ff" points="1313.89,-14.45 1323.83,-10.81 1313.78,-7.45 1313.89,-14.45"/>
</a>
</g>
</g>
<!-- Node27&#45;&gt;Node4 -->
<g id="edge52_Node000027_Node000004" class="edge">
<title>Node27&#45;&gt;Node4</title>
<g id="a_edge52_Node000027_Node000004"><a xlink:title=" ">
<path fill="none" stroke="#63b8ff" d="M408.56,-175.63C416.48,-148.8 441.39,-69.53 463,-55 520.6,-16.26 1610.89,-27.13 1749.5,-18.52"/>
<polygon fill="#63b8ff" stroke="#63b8ff" points="1749.97,-21.99 1759.64,-17.65 1749.38,-15.02 1749.97,-21.99"/>
</a>
</g>
</g>
<!-- Node27&#45;&gt;Node9 -->
<g id="edge55_Node000027_Node000009" class="edge">
<title>Node27&#45;&gt;Node9</title>
<g id="a_edge55_Node000027_Node000009"><a xlink:title=" ">
<path fill="none" stroke="#63b8ff" d="M446.31,-183.12C571.89,-178.7 967.23,-163.74 1294,-140 1332.83,-137.18 1377.31,-132.78 1407.08,-129.67"/>
<polygon fill="#63b8ff" stroke="#63b8ff" points="1407.77,-133.11 1417.35,-128.58 1407.04,-126.15 1407.77,-133.11"/>
</a>
</g>
</g>
<!-- Node27&#45;&gt;Node11 -->
<g id="edge57_Node000027_Node000011" class="edge">
<title>Node27&#45;&gt;Node11</title>
<g id="a_edge57_Node000027_Node000011"><a xlink:title=" ">
<path fill="none" stroke="#63b8ff" d="M399.26,-175.75C388.5,-161.79 366.72,-133.64 348,-110 335.24,-93.89 325.83,-93.38 319,-74 316.19,-66.04 313.39,-61.31 319,-55 338.76,-32.8 516.18,-19.93 621.81,-14.16"/>
<polygon fill="#63b8ff" stroke="#63b8ff" points="622,-17.66 631.8,-13.63 621.62,-10.67 622,-17.66"/>
</a>
</g>
</g>
<!-- Node27&#45;&gt;Node18 -->
<g id="edge51_Node000027_Node000018" class="edge">
<title>Node27&#45;&gt;Node18</title>
<g id="a_edge51_Node000027_Node000018"><a xlink:title=" ">
<path fill="none" stroke="#63b8ff" d="M419.13,-175.87C433.33,-166.54 456.2,-151.51 473.12,-140.38"/>
<polygon fill="#63b8ff" stroke="#63b8ff" points="475.38,-143.08 481.81,-134.67 471.53,-137.24 475.38,-143.08"/>
</a>
</g>
</g>
<!-- Node27&#45;&gt;Node21 -->
<g id="edge49_Node000027_Node000021" class="edge">
<title>Node27&#45;&gt;Node21</title>
<g id="a_edge49_Node000027_Node000021"><a xlink:title=" ">
<path fill="none" stroke="#63b8ff" d="M365.95,-178.53C314,-169.14 233.55,-147.94 265,-110 277.48,-94.95 398.35,-78.07 462.09,-70.11"/>
<polygon fill="#63b8ff" stroke="#63b8ff" points="462.68,-73.57 472.18,-68.87 461.82,-66.62 462.68,-73.57"/>
</a>
</g>
</g>
<!-- Node27&#45;&gt;Node23 -->
<g id="edge56_Node000027_Node000023" class="edge">
<title>Node27&#45;&gt;Node23</title>
<g id="a_edge56_Node000027_Node000023"><a xlink:title=" ">
<path fill="none" stroke="#63b8ff" d="M439.73,-175.99C474.36,-167.26 529.14,-153.45 572.35,-142.55"/>
<polygon fill="#63b8ff" stroke="#63b8ff" points="573.38,-145.9 582.22,-140.06 571.67,-139.12 573.38,-145.9"/>
</a>
</g>
</g>
<!-- Node27&#45;&gt;Node25 -->
<g id="edge54_Node000027_Node000025" class="edge">
<title>Node27&#45;&gt;Node25</title>
<g id="a_edge54_Node000027_Node000025"><a xlink:title=" ">
<path fill="none" stroke="#63b8ff" d="M365.79,-179.9C319.65,-173.69 248.25,-160.93 232,-140 223.82,-129.47 224.37,-120.93 232,-110 251.22,-82.45 289.49,-71.91 317.87,-67.9"/>
<polygon fill="#63b8ff" stroke="#63b8ff" points="318.31,-71.37 327.82,-66.7 317.47,-64.42 318.31,-71.37"/>
</a>
</g>
</g>
<!-- Node28 -->
<g id="Node000028" class="node">
<title>Node28</title>
<g id="a_Node000028"><a xlink:title=" ">
<polygon fill="#e0e0e0" stroke="#999999" points="339.5,-134.5 274.5,-134.5 274.5,-115.5 339.5,-115.5 339.5,-134.5"/>
<text text-anchor="middle" x="307" y="-122.5" font-family="Helvetica,sans-Serif" font-size="10.00">stdexcept</text>
</a>
</g>
</g>
<!-- Node27&#45;&gt;Node28 -->
<g id="edge53_Node000027_Node000028" class="edge">
<title>Node27&#45;&gt;Node28</title>
<g id="a_edge53_Node000027_Node000028"><a xlink:title=" ">
<path fill="none" stroke="#63b8ff" d="M391.39,-175.87C375.31,-166.36 349.22,-150.95 330.3,-139.77"/>
<polygon fill="#63b8ff" stroke="#63b8ff" points="332.06,-136.74 321.67,-134.67 328.5,-142.77 332.06,-136.74"/>
</a>
</g>
</g>
<!-- Node29 -->
<g id="Node000029" class="node">
<title>Node29</title>
<g id="a_Node000029"><a xlink:href="def__types_8h.html" target="_top" xlink:title=" ">
<polygon fill="white" stroke="#666666" points="179.5,-140 66.5,-140 66.5,-110 179.5,-110 179.5,-140"/>
<text text-anchor="start" x="74.5" y="-128" font-family="Helvetica,sans-Serif" font-size="10.00">webcface/c_wcf/def</text>
<text text-anchor="middle" x="123" y="-117" font-family="Helvetica,sans-Serif" font-size="10.00">_types.h</text>
</a>
</g>
</g>
<!-- Node27&#45;&gt;Node29 -->
<g id="edge58_Node000027_Node000029" class="edge">
<title>Node27&#45;&gt;Node29</title>
<g id="a_edge58_Node000027_Node000029"><a xlink:title=" ">
<path fill="none" stroke="#63b8ff" d="M365.75,-176.18C319.93,-166.71 244.34,-151.08 189.68,-139.78"/>
<polygon fill="#63b8ff" stroke="#63b8ff" points="190.23,-136.32 179.73,-137.73 188.81,-143.18 190.23,-136.32"/>
</a>
</g>
</g>
<!-- Node29&#45;&gt;Node11 -->
<g id="edge59_Node000029_Node000011" class="edge">
<title>Node29&#45;&gt;Node11</title>
<g id="a_edge59_Node000029_Node000011"><a xlink:title=" ">
<path fill="none" stroke="#63b8ff" d="M149.54,-109.88C181.12,-93.78 235.88,-68 286,-55 400.48,-25.31 537.72,-15.39 621.87,-12.1"/>
<polygon fill="#63b8ff" stroke="#63b8ff" points="622,-15.6 631.87,-11.73 621.74,-8.61 622,-15.6"/>
</a>
</g>
</g>
<!-- Node30 -->
<g id="Node000030" class="node">
<title>Node30</title>
<g id="a_Node000030"><a xlink:title=" ">
<polygon fill="#e0e0e0" stroke="#999999" points="135,-74 81,-74 81,-55 135,-55 135,-74"/>
<text text-anchor="middle" x="108" y="-62" font-family="Helvetica,sans-Serif" font-size="10.00">wchar.h</text>
</a>
</g>
</g>
<!-- Node29&#45;&gt;Node30 -->
<g id="edge60_Node000029_Node000030" class="edge">
<title>Node29&#45;&gt;Node30</title>
<g id="a_edge60_Node000029_Node000030"><a xlink:title=" ">
<path fill="none" stroke="#63b8ff" d="M119.37,-109.84C117.39,-102.13 114.92,-92.49 112.79,-84.17"/>
<polygon fill="#63b8ff" stroke="#63b8ff" points="116.12,-83.08 110.25,-74.27 109.34,-84.82 116.12,-83.08"/>
</a>
</g>
</g>
<!-- Node31 -->
<g id="Node000031" class="node">
<title>Node31</title>
<g id="a_Node000031"><a xlink:title=" ">
<polygon fill="#e0e0e0" stroke="#999999" points="200.5,-74 153.5,-74 153.5,-55 200.5,-55 200.5,-74"/>
<text text-anchor="middle" x="177" y="-62" font-family="Helvetica,sans-Serif" font-size="10.00">float.h</text>
</a>
</g>
</g>
<!-- Node29&#45;&gt;Node31 -->
<g id="edge61_Node000029_Node000031" class="edge">
<title>Node29&#45;&gt;Node31</title>
<g id="a_edge61_Node000029_Node000031"><a xlink:title=" ">
<path fill="none" stroke="#63b8ff" d="M136.07,-109.84C143.91,-101.35 153.91,-90.52 162.06,-81.69"/>
<polygon fill="#63b8ff" stroke="#63b8ff" points="164.7,-83.99 168.91,-74.27 159.55,-79.24 164.7,-83.99"/>
</a>
</g>
</g>
<!-- Node32&#45;&gt;Node5 -->
<g id="edge66_Node000032_Node000005" class="edge">
<title>Node32&#45;&gt;Node5</title>
<g id="a_edge66_Node000032_Node000005"><a xlink:title=" ">
<path fill="none" stroke="#63b8ff" d="M1313.06,-175.63C1312.7,-160.48 1309.92,-129.4 1294,-110 1278.95,-91.65 1254.54,-80.37 1234.5,-73.76"/>
<polygon fill="#63b8ff" stroke="#63b8ff" points="1235.37,-70.37 1224.79,-70.8 1233.33,-77.06 1235.37,-70.37"/>
</a>
</g>
</g>
<!-- Node32&#45;&gt;Node7 -->
<g id="edge65_Node000032_Node000007" class="edge">
<title>Node32&#45;&gt;Node7</title>
<g id="a_edge65_Node000032_Node000007"><a xlink:title=" ">
<path fill="none" stroke="#63b8ff" d="M1304.74,-175.87C1296.22,-166.97 1282.74,-152.89 1272.27,-141.95"/>
<polygon fill="#63b8ff" stroke="#63b8ff" points="1274.74,-139.47 1265.3,-134.67 1269.68,-144.31 1274.74,-139.47"/>
</a>
</g>
</g>
<!-- Node32&#45;&gt;Node9 -->
<g id="edge67_Node000032_Node000009" class="edge">
<title>Node32&#45;&gt;Node9</title>
<g id="a_edge67_Node000032_Node000009"><a xlink:title=" ">
<path fill="none" stroke="#63b8ff" d="M1331.61,-175.99C1353.04,-166.2 1388.44,-150.02 1413.15,-138.73"/>
<polygon fill="#63b8ff" stroke="#63b8ff" points="1414.72,-141.86 1422.37,-134.52 1411.82,-135.49 1414.72,-141.86"/>
</a>
</g>
</g>
<!-- Node32&#45;&gt;Node11 -->
<g id="edge68_Node000032_Node000011" class="edge">
<title>Node32&#45;&gt;Node11</title>
<g id="a_edge68_Node000032_Node000011"><a xlink:title=" ">
<path fill="none" stroke="#63b8ff" d="M1316.11,-175.59C1320.65,-160.93 1327.39,-131.21 1316,-110 1295.06,-71.01 1274.8,-69.52 1233,-55 1151.23,-26.6 905.84,-15.96 778.54,-12.28"/>
<polygon fill="#63b8ff" stroke="#63b8ff" points="778.56,-8.78 768.46,-12 778.36,-15.78 778.56,-8.78"/>
</a>
</g>
</g>
<!-- Node32&#45;&gt;Node20 -->
<g id="edge64_Node000032_Node000020" class="edge">
<title>Node32&#45;&gt;Node20</title>
<g id="a_edge64_Node000032_Node000020"><a xlink:title=" ">
<path fill="none" stroke="#63b8ff" d="M1287.84,-175.99C1258.12,-165.94 1208.48,-149.16 1175.01,-137.84"/>
<polygon fill="#63b8ff" stroke="#63b8ff" points="1175.78,-134.4 1165.19,-134.52 1173.54,-141.04 1175.78,-134.4"/>
</a>
</g>
</g>
</g>
</svg>
