<?xml version="1.0" encoding="UTF-8" standalone="no"?>
<!DOCTYPE svg PUBLIC "-//W3C//DTD SVG 1.1//EN"
 "http://www.w3.org/Graphics/SVG/1.1/DTD/svg11.dtd">
<!-- Generated by graphviz version 2.43.0 (0)
 -->
<!-- Title: include/webcface/common/field_base.h Pages: 1 -->
<svg width="656pt" height="203pt"
 viewBox="0.00 0.00 655.50 203.00" xmlns="http://www.w3.org/2000/svg" xmlns:xlink="http://www.w3.org/1999/xlink">
<g id="graph0" class="graph" transform="scale(1 1) rotate(0) translate(4 199)">
<title>include/webcface/common/field_base.h</title>
<!-- Node1 -->
<g id="Node000001" class="node">
<title>Node1</title>
<g id="a_Node000001"><a xlink:title=" ">
<polygon fill="#999999" stroke="#666666" points="203.5,-195 56.5,-195 56.5,-165 203.5,-165 203.5,-195"/>
<text text-anchor="start" x="64.5" y="-183" font-family="Helvetica,sans-Serif" font-size="10.00">include/webcface/common</text>
<text text-anchor="middle" x="130" y="-172" font-family="Helvetica,sans-Serif" font-size="10.00">/field_base.h</text>
</a>
</g>
</g>
<!-- Node2 -->
<g id="Node000002" class="node">
<title>Node2</title>
<g id="a_Node000002"><a xlink:title=" ">
<polygon fill="#e0e0e0" stroke="#999999" points="44,-74 0,-74 0,-55 44,-55 44,-74"/>
<text text-anchor="middle" x="22" y="-62" font-family="Helvetica,sans-Serif" font-size="10.00">string</text>
</a>
</g>
</g>
<!-- Node1&#45;&gt;Node2 -->
<g id="edge1_Node000001_Node000002" class="edge">
<title>Node1&#45;&gt;Node2</title>
<g id="a_edge1_Node000001_Node000002"><a xlink:title=" ">
<path fill="none" stroke="#63b8ff" d="M116.32,-164.63C96.1,-143.37 58.35,-103.71 37.26,-81.54"/>
<polygon fill="#63b8ff" stroke="#63b8ff" points="39.74,-79.06 30.31,-74.23 34.66,-83.89 39.74,-79.06"/>
</a>
</g>
</g>
<!-- Node3 -->
<g id="Node000003" class="node">
<title>Node3</title>
<g id="a_Node000003"><a xlink:href="def_8h.html" target="_top" xlink:title=" ">
<polygon fill="white" stroke="#666666" points="198,-74 62,-74 62,-55 198,-55 198,-74"/>
<text text-anchor="middle" x="130" y="-62" font-family="Helvetica,sans-Serif" font-size="10.00">webcface/common/def.h</text>
</a>
</g>
</g>
<!-- Node1&#45;&gt;Node3 -->
<g id="edge2_Node000001_Node000003" class="edge">
<title>Node1&#45;&gt;Node3</title>
<g id="a_edge2_Node000001_Node000003"><a xlink:title=" ">
<path fill="none" stroke="#63b8ff" d="M130,-164.63C130,-144.21 130,-106.81 130,-84.24"/>
<polygon fill="#63b8ff" stroke="#63b8ff" points="133.5,-84.23 130,-74.23 126.5,-84.23 133.5,-84.23"/>
</a>
</g>
</g>
<!-- Node5 -->
<g id="Node000005" class="node">
<title>Node5</title>
<g id="a_Node000005"><a xlink:href="encoding_8h.html" target="_top" xlink:title=" ">
<polygon fill="white" stroke="#666666" points="339.5,-129 220.5,-129 220.5,-110 339.5,-110 339.5,-129"/>
<text text-anchor="middle" x="280" y="-117" font-family="Helvetica,sans-Serif" font-size="10.00">webcface/encoding.h</text>
</a>
</g>
</g>
<!-- Node1&#45;&gt;Node5 -->
<g id="edge4_Node000001_Node000005" class="edge">
<title>Node1&#45;&gt;Node5</title>
<g id="a_edge4_Node000001_Node000005"><a xlink:title=" ">
<path fill="none" stroke="#63b8ff" d="M165.93,-164.99C191.07,-155.18 224.33,-142.21 248.45,-132.81"/>
<polygon fill="#63b8ff" stroke="#63b8ff" points="249.8,-136.03 257.85,-129.14 247.26,-129.51 249.8,-136.03"/>
</a>
</g>
</g>
<!-- Node4 -->
<g id="Node000004" class="node">
<title>Node4</title>
<g id="a_Node000004"><a xlink:href="macros_8h.html" target="_top" xlink:title=" ">
<polygon fill="white" stroke="#666666" points="208.5,-19 51.5,-19 51.5,0 208.5,0 208.5,-19"/>
<text text-anchor="middle" x="130" y="-7" font-family="Helvetica,sans-Serif" font-size="10.00">webcface/common/macros.h</text>
</a>
</g>
</g>
<!-- Node3&#45;&gt;Node4 -->
<g id="edge3_Node000003_Node000004" class="edge">
<title>Node3&#45;&gt;Node4</title>
<g id="a_edge3_Node000003_Node000004"><a xlink:title=" ">
<path fill="none" stroke="#63b8ff" d="M130,-54.75C130,-47.8 130,-37.85 130,-29.13"/>
<polygon fill="#63b8ff" stroke="#63b8ff" points="133.5,-29.09 130,-19.09 126.5,-29.09 133.5,-29.09"/>
</a>
</g>
</g>
<!-- Node5&#45;&gt;Node2 -->
<g id="edge5_Node000005_Node000002" class="edge">
<title>Node5&#45;&gt;Node2</title>
<g id="a_edge5_Node000005_Node000002"><a xlink:title=" ">
<path fill="none" stroke="#63b8ff" d="M231.07,-109.99C187.11,-102.1 120.59,-89.56 54.11,-74.13"/>
<polygon fill="#63b8ff" stroke="#63b8ff" points="54.84,-70.7 44.3,-71.83 53.24,-77.52 54.84,-70.7"/>
</a>
</g>
</g>
<!-- Node5&#45;&gt;Node3 -->
<g id="edge11_Node000005_Node000003" class="edge">
<title>Node5&#45;&gt;Node3</title>
<g id="a_edge11_Node000005_Node000003"><a xlink:title=" ">
<path fill="none" stroke="#63b8ff" d="M255.9,-109.98C231.12,-101.23 192.3,-87.51 164.31,-77.62"/>
<polygon fill="#63b8ff" stroke="#63b8ff" points="165.13,-74.2 154.54,-74.17 162.8,-80.8 165.13,-74.2"/>
</a>
</g>
</g>
<!-- Node6 -->
<g id="Node000006" class="node">
<title>Node6</title>
<g id="a_Node000006"><a xlink:title=" ">
<polygon fill="#e0e0e0" stroke="#999999" points="647.5,-74 574.5,-74 574.5,-55 647.5,-55 647.5,-74"/>
<text text-anchor="middle" x="611" y="-62" font-family="Helvetica,sans-Serif" font-size="10.00">string_view</text>
</a>
</g>
</g>
<!-- Node5&#45;&gt;Node6 -->
<g id="edge6_Node000005_Node000006" class="edge">
<title>Node5&#45;&gt;Node6</title>
<g id="a_edge6_Node000005_Node000006"><a xlink:title=" ">
<path fill="none" stroke="#63b8ff" d="M337.67,-109.98C393.1,-101.68 479.49,-88.45 564.29,-74.08"/>
<polygon fill="#63b8ff" stroke="#63b8ff" points="565.09,-77.49 574.36,-72.37 563.91,-70.59 565.09,-77.49"/>
</a>
</g>
</g>
<!-- Node7 -->
<g id="Node000007" class="node">
<title>Node7</title>
<g id="a_Node000007"><a xlink:title=" ">
<polygon fill="#e0e0e0" stroke="#999999" points="274,-74 216,-74 216,-55 274,-55 274,-74"/>
<text text-anchor="middle" x="245" y="-62" font-family="Helvetica,sans-Serif" font-size="10.00">memory</text>
</a>
</g>
</g>
<!-- Node5&#45;&gt;Node7 -->
<g id="edge7_Node000005_Node000007" class="edge">
<title>Node5&#45;&gt;Node7</title>
<g id="a_edge7_Node000005_Node000007"><a xlink:title=" ">
<path fill="none" stroke="#63b8ff" d="M274.22,-109.75C269.38,-102.42 262.32,-91.73 256.36,-82.7"/>
<polygon fill="#63b8ff" stroke="#63b8ff" points="259.1,-80.5 250.67,-74.09 253.26,-84.36 259.1,-80.5"/>
</a>
</g>
</g>
<!-- Node8 -->
<g id="Node000008" class="node">
<title>Node8</title>
<g id="a_Node000008"><a xlink:title=" ">
<polygon fill="#e0e0e0" stroke="#999999" points="340,-74 292,-74 292,-55 340,-55 340,-74"/>
<text text-anchor="middle" x="316" y="-62" font-family="Helvetica,sans-Serif" font-size="10.00">mutex</text>
</a>
</g>
</g>
<!-- Node5&#45;&gt;Node8 -->
<g id="edge8_Node000005_Node000008" class="edge">
<title>Node5&#45;&gt;Node8</title>
<g id="a_edge8_Node000005_Node000008"><a xlink:title=" ">
<path fill="none" stroke="#63b8ff" d="M285.94,-109.75C290.98,-102.34 298.34,-91.5 304.51,-82.41"/>
<polygon fill="#63b8ff" stroke="#63b8ff" points="307.44,-84.33 310.17,-74.09 301.65,-80.39 307.44,-84.33"/>
</a>
</g>
</g>
<!-- Node9 -->
<g id="Node000009" class="node">
<title>Node9</title>
<g id="a_Node000009"><a xlink:title=" ">
<polygon fill="#e0e0e0" stroke="#999999" points="451.5,-74 358.5,-74 358.5,-55 451.5,-55 451.5,-74"/>
<text text-anchor="middle" x="405" y="-62" font-family="Helvetica,sans-Serif" font-size="10.00">unordered_map</text>
</a>
</g>
</g>
<!-- Node5&#45;&gt;Node9 -->
<g id="edge9_Node000005_Node000009" class="edge">
<title>Node5&#45;&gt;Node9</title>
<g id="a_edge9_Node000005_Node000009"><a xlink:title=" ">
<path fill="none" stroke="#63b8ff" d="M300.08,-109.98C320.37,-101.38 351.96,-87.99 375.17,-78.15"/>
<polygon fill="#63b8ff" stroke="#63b8ff" points="376.71,-81.3 384.55,-74.17 373.98,-74.85 376.71,-81.3"/>
</a>
</g>
</g>
<!-- Node10 -->
<g id="Node000010" class="node">
<title>Node10</title>
<g id="a_Node000010"><a xlink:title=" ">
<polygon fill="#e0e0e0" stroke="#999999" points="556,-74 470,-74 470,-55 556,-55 556,-74"/>
<text text-anchor="middle" x="513" y="-62" font-family="Helvetica,sans-Serif" font-size="10.00">unordered_set</text>
</a>
</g>
</g>
<!-- Node5&#45;&gt;Node10 -->
<g id="edge10_Node000005_Node000010" class="edge">
<title>Node5&#45;&gt;Node10</title>
<g id="a_edge10_Node000005_Node000010"><a xlink:title=" ">
<path fill="none" stroke="#63b8ff" d="M317.44,-109.98C357.65,-100.84 421.68,-86.27 465.44,-76.32"/>
<polygon fill="#63b8ff" stroke="#63b8ff" points="466.3,-79.71 475.27,-74.08 464.74,-72.89 466.3,-79.71"/>
</a>
</g>
</g>
</g>
</svg>
