<?xml version="1.0" encoding="UTF-8" standalone="no"?>
<!DOCTYPE svg PUBLIC "-//W3C//DTD SVG 1.1//EN"
 "http://www.w3.org/Graphics/SVG/1.1/DTD/svg11.dtd">
<!-- Generated by graphviz version 2.43.0 (0)
 -->
<!-- Title: client/include/webcface/field.h Pages: 1 -->
<svg width="530pt" height="148pt"
 viewBox="0.00 0.00 529.50 148.00" xmlns="http://www.w3.org/2000/svg" xmlns:xlink="http://www.w3.org/1999/xlink">
<g id="graph0" class="graph" transform="scale(1 1) rotate(0) translate(4 144)">
<title>client/include/webcface/field.h</title>
<!-- Node1 -->
<g id="Node000001" class="node">
<title>Node1</title>
<g id="a_Node000001"><a xlink:title=" ">
<polygon fill="#999999" stroke="#666666" points="334.5,-140 203.5,-140 203.5,-110 334.5,-110 334.5,-140"/>
<text text-anchor="start" x="211.5" y="-128" font-family="Helvetica,sans-Serif" font-size="10.00">client/include/webcface</text>
<text text-anchor="middle" x="269" y="-117" font-family="Helvetica,sans-Serif" font-size="10.00">/field.h</text>
</a>
</g>
</g>
<!-- Node2 -->
<g id="Node000002" class="node">
<title>Node2</title>
<g id="a_Node000002"><a xlink:title=" ">
<polygon fill="#e0e0e0" stroke="#999999" points="58,-19 0,-19 0,0 58,0 58,-19"/>
<text text-anchor="middle" x="29" y="-7" font-family="Helvetica,sans-Serif" font-size="10.00">memory</text>
</a>
</g>
</g>
<!-- Node1&#45;&gt;Node2 -->
<g id="edge1_Node000001_Node000002" class="edge">
<title>Node1&#45;&gt;Node2</title>
<g id="a_edge1_Node000001_Node000002"><a xlink:title=" ">
<path fill="none" stroke="#63b8ff" d="M203.38,-123.11C158.02,-119.27 98.73,-107.45 58,-74 44.27,-62.72 36.75,-43.53 32.84,-29.19"/>
<polygon fill="#63b8ff" stroke="#63b8ff" points="36.22,-28.3 30.5,-19.39 29.41,-29.92 36.22,-28.3"/>
</a>
</g>
</g>
<!-- Node3 -->
<g id="Node000003" class="node">
<title>Node3</title>
<g id="a_Node000003"><a xlink:title=" ">
<polygon fill="#e0e0e0" stroke="#999999" points="121,-19 77,-19 77,0 121,0 121,-19"/>
<text text-anchor="middle" x="99" y="-7" font-family="Helvetica,sans-Serif" font-size="10.00">string</text>
</a>
</g>
</g>
<!-- Node1&#45;&gt;Node3 -->
<g id="edge2_Node000001_Node000003" class="edge">
<title>Node1&#45;&gt;Node3</title>
<g id="a_edge2_Node000001_Node000003"><a xlink:title=" ">
<path fill="none" stroke="#63b8ff" d="M203.35,-116.59C150.72,-109.13 82.93,-95.61 66,-74 54.47,-59.29 67.89,-39.93 80.92,-26.47"/>
<polygon fill="#63b8ff" stroke="#63b8ff" points="83.58,-28.77 88.35,-19.31 78.72,-23.73 83.58,-28.77"/>
</a>
</g>
</g>
<!-- Node4 -->
<g id="Node000004" class="node">
<title>Node4</title>
<g id="a_Node000004"><a xlink:title=" ">
<polygon fill="#e0e0e0" stroke="#999999" points="213.5,-19 140.5,-19 140.5,0 213.5,0 213.5,-19"/>
<text text-anchor="middle" x="177" y="-7" font-family="Helvetica,sans-Serif" font-size="10.00">string_view</text>
</a>
</g>
</g>
<!-- Node1&#45;&gt;Node4 -->
<g id="edge3_Node000001_Node000004" class="edge">
<title>Node1&#45;&gt;Node4</title>
<g id="a_edge3_Node000001_Node000004"><a xlink:title=" ">
<path fill="none" stroke="#63b8ff" d="M267.9,-109.98C266.1,-95.02 261.37,-71.29 249,-55 238.57,-41.27 222.58,-30.78 208.32,-23.45"/>
<polygon fill="#63b8ff" stroke="#63b8ff" points="209.8,-20.27 199.27,-19.08 206.75,-26.58 209.8,-20.27"/>
</a>
</g>
</g>
<!-- Node5 -->
<g id="Node000005" class="node">
<title>Node5</title>
<g id="a_Node000005"><a xlink:title=" ">
<polygon fill="#e0e0e0" stroke="#999999" points="521.5,-74 474.5,-74 474.5,-55 521.5,-55 521.5,-74"/>
<text text-anchor="middle" x="498" y="-62" font-family="Helvetica,sans-Serif" font-size="10.00">vector</text>
</a>
</g>
</g>
<!-- Node1&#45;&gt;Node5 -->
<g id="edge4_Node000001_Node000005" class="edge">
<title>Node1&#45;&gt;Node5</title>
<g id="a_edge4_Node000001_Node000005"><a xlink:title=" ">
<path fill="none" stroke="#63b8ff" d="M325.09,-109.94C362.22,-100.59 412.25,-87.92 464.47,-74.38"/>
<polygon fill="#63b8ff" stroke="#63b8ff" points="465.44,-77.74 474.24,-71.84 463.68,-70.97 465.44,-77.74"/>
</a>
</g>
</g>
<!-- Node6 -->
<g id="Node000006" class="node">
<title>Node6</title>
<g id="a_Node000006"><a xlink:href="webcface-config_8h.html" target="_top" xlink:title=" ">
<polygon fill="white" stroke="#666666" points="355.5,-19 250.5,-19 250.5,0 355.5,0 355.5,-19"/>
<text text-anchor="middle" x="303" y="-7" font-family="Helvetica,sans-Serif" font-size="10.00">webcface&#45;config.h</text>
</a>
</g>
</g>
<!-- Node1&#45;&gt;Node6 -->
<g id="edge5_Node000001_Node000006" class="edge">
<title>Node1&#45;&gt;Node6</title>
<g id="a_edge5_Node000001_Node000006"><a xlink:title=" ">
<path fill="none" stroke="#63b8ff" d="M273.31,-109.63C279.45,-89.12 290.73,-51.47 297.48,-28.93"/>
<polygon fill="#63b8ff" stroke="#63b8ff" points="300.87,-29.81 300.39,-19.23 294.16,-27.8 300.87,-29.81"/>
</a>
</g>
</g>
<!-- Node7 -->
<g id="Node000007" class="node">
<title>Node7</title>
<g id="a_Node000007"><a xlink:href="common_2encoding_8h.html" target="_top" xlink:title=" ">
<polygon fill="white" stroke="#666666" points="240.5,-74 75.5,-74 75.5,-55 240.5,-55 240.5,-74"/>
<text text-anchor="middle" x="158" y="-62" font-family="Helvetica,sans-Serif" font-size="10.00">webcface/common/encoding.h</text>
</a>
</g>
</g>
<!-- Node1&#45;&gt;Node7 -->
<g id="edge6_Node000001_Node000007" class="edge">
<title>Node1&#45;&gt;Node7</title>
<g id="a_edge6_Node000001_Node000007"><a xlink:title=" ">
<path fill="none" stroke="#63b8ff" d="M242.41,-109.99C224.55,-100.58 201.16,-88.24 183.52,-78.95"/>
<polygon fill="#63b8ff" stroke="#63b8ff" points="184.87,-75.71 174.39,-74.14 181.61,-81.9 184.87,-75.71"/>
</a>
</g>
</g>
<!-- Node8 -->
<g id="Node000008" class="node">
<title>Node8</title>
<g id="a_Node000008"><a xlink:href="complete_8h.html" target="_top" xlink:title=" ">
<polygon fill="white" stroke="#666666" points="456.5,-74 335.5,-74 335.5,-55 456.5,-55 456.5,-74"/>
<text text-anchor="middle" x="396" y="-62" font-family="Helvetica,sans-Serif" font-size="10.00">webcface/complete.h</text>
</a>
</g>
</g>
<!-- Node1&#45;&gt;Node8 -->
<g id="edge11_Node000001_Node000008" class="edge">
<title>Node1&#45;&gt;Node8</title>
<g id="a_edge11_Node000001_Node000008"><a xlink:title=" ">
<path fill="none" stroke="#63b8ff" d="M299.42,-109.99C320.23,-100.4 347.62,-87.79 367.91,-78.44"/>
<polygon fill="#63b8ff" stroke="#63b8ff" points="369.63,-81.5 377.24,-74.14 366.7,-75.14 369.63,-81.5"/>
</a>
</g>
</g>
<!-- Node7&#45;&gt;Node2 -->
<g id="edge9_Node000007_Node000002" class="edge">
<title>Node7&#45;&gt;Node2</title>
<g id="a_edge9_Node000007_Node000002"><a xlink:title=" ">
<path fill="none" stroke="#63b8ff" d="M137.27,-54.98C116.24,-46.34 83.45,-32.87 59.46,-23.02"/>
<polygon fill="#63b8ff" stroke="#63b8ff" points="60.68,-19.73 50.1,-19.17 58.02,-26.21 60.68,-19.73"/>
</a>
</g>
</g>
<!-- Node7&#45;&gt;Node3 -->
<g id="edge7_Node000007_Node000003" class="edge">
<title>Node7&#45;&gt;Node3</title>
<g id="a_edge7_Node000007_Node000003"><a xlink:title=" ">
<path fill="none" stroke="#63b8ff" d="M148.52,-54.98C139.8,-47.15 126.66,-35.34 116.1,-25.86"/>
<polygon fill="#63b8ff" stroke="#63b8ff" points="118.43,-23.25 108.65,-19.17 113.75,-28.46 118.43,-23.25"/>
</a>
</g>
</g>
<!-- Node7&#45;&gt;Node4 -->
<g id="edge8_Node000007_Node000004" class="edge">
<title>Node7&#45;&gt;Node4</title>
<g id="a_edge8_Node000007_Node000004"><a xlink:title=" ">
<path fill="none" stroke="#63b8ff" d="M161.14,-54.75C163.68,-47.65 167.36,-37.4 170.53,-28.56"/>
<polygon fill="#63b8ff" stroke="#63b8ff" points="173.84,-29.68 173.92,-19.09 167.25,-27.32 173.84,-29.68"/>
</a>
</g>
</g>
<!-- Node7&#45;&gt;Node6 -->
<g id="edge10_Node000007_Node000006" class="edge">
<title>Node7&#45;&gt;Node6</title>
<g id="a_edge10_Node000007_Node000006"><a xlink:title=" ">
<path fill="none" stroke="#63b8ff" d="M181.3,-54.98C205.25,-46.23 242.78,-32.51 269.83,-22.62"/>
<polygon fill="#63b8ff" stroke="#63b8ff" points="271.09,-25.89 279.28,-19.17 268.69,-19.32 271.09,-25.89"/>
</a>
</g>
</g>
<!-- Node8&#45;&gt;Node6 -->
<g id="edge13_Node000008_Node000006" class="edge">
<title>Node8&#45;&gt;Node6</title>
<g id="a_edge13_Node000008_Node000006"><a xlink:title=" ">
<path fill="none" stroke="#63b8ff" d="M381.06,-54.98C366.5,-46.69 344.13,-33.94 327.07,-24.22"/>
<polygon fill="#63b8ff" stroke="#63b8ff" points="328.64,-21.08 318.21,-19.17 325.17,-27.16 328.64,-21.08"/>
</a>
</g>
</g>
<!-- Node9 -->
<g id="Node000009" class="node">
<title>Node9</title>
<g id="a_Node000009"><a xlink:title=" ">
<polygon fill="#e0e0e0" stroke="#999999" points="426.5,-19 373.5,-19 373.5,0 426.5,0 426.5,-19"/>
<text text-anchor="middle" x="400" y="-7" font-family="Helvetica,sans-Serif" font-size="10.00">cstddef</text>
</a>
</g>
</g>
<!-- Node8&#45;&gt;Node9 -->
<g id="edge12_Node000008_Node000009" class="edge">
<title>Node8&#45;&gt;Node9</title>
<g id="a_edge12_Node000008_Node000009"><a xlink:title=" ">
<path fill="none" stroke="#63b8ff" d="M396.66,-54.75C397.18,-47.8 397.94,-37.85 398.59,-29.13"/>
<polygon fill="#63b8ff" stroke="#63b8ff" points="402.09,-29.32 399.35,-19.09 395.11,-28.8 402.09,-29.32"/>
</a>
</g>
</g>
</g>
</svg>
