<?xml version="1.0" encoding="UTF-8" standalone="no"?>
<!DOCTYPE svg PUBLIC "-//W3C//DTD SVG 1.1//EN"
 "http://www.w3.org/Graphics/SVG/1.1/DTD/svg11.dtd">
<!-- Generated by graphviz version 2.43.0 (0)
 -->
<!-- Title: include/webcface/field.h Pages: 1 -->
<svg width="1622pt" height="379pt"
 viewBox="0.00 0.00 1622.00 379.00" xmlns="http://www.w3.org/2000/svg" xmlns:xlink="http://www.w3.org/1999/xlink">
<g id="graph0" class="graph" transform="scale(1 1) rotate(0) translate(4 375)">
<title>include/webcface/field.h</title>
<!-- Node1 -->
<g id="Node000001" class="node">
<title>Node1</title>
<g id="a_Node000001"><a xlink:title=" ">
<polygon fill="#999999" stroke="#666666" points="1145,-371 1011,-371 1011,-352 1145,-352 1145,-371"/>
<text text-anchor="middle" x="1078" y="-359" font-family="Helvetica,sans-Serif" font-size="10.00">include/webcface/field.h</text>
</a>
</g>
</g>
<!-- Node2 -->
<g id="Node000002" class="node">
<title>Node2</title>
<g id="a_Node000002"><a xlink:href="client__internal_8h.html" target="_top" xlink:title=" ">
<polygon fill="white" stroke="#666666" points="499.5,-184 374.5,-184 374.5,-165 499.5,-165 499.5,-184"/>
<text text-anchor="middle" x="437" y="-172" font-family="Helvetica,sans-Serif" font-size="10.00">client/client_internal.h</text>
</a>
</g>
</g>
<!-- Node1&#45;&gt;Node2 -->
<g id="edge1_Node000001_Node000002" class="edge">
<title>Node1&#45;&gt;Node2</title>
<g id="a_edge1_Node000001_Node000002"><a xlink:title=" ">
<path fill="none" stroke="#63b8ff" d="M1000.91,-358.18C857.99,-353.31 562.74,-340.41 523,-316 471.58,-284.42 446.5,-209.45 439.27,-184.07"/>
<polygon fill="#63b8ff" stroke="#63b8ff" points="1000.82,-361.67 1010.93,-358.51 1001.06,-354.68 1000.82,-361.67"/>
</a>
</g>
</g>
<!-- Node5 -->
<g id="Node000005" class="node">
<title>Node5</title>
<g id="a_Node000005"><a xlink:href="field_8cc.html" target="_top" xlink:title=" ">
<polygon fill="white" stroke="#666666" points="1243.5,-74 1162.5,-74 1162.5,-55 1243.5,-55 1243.5,-74"/>
<text text-anchor="middle" x="1203" y="-62" font-family="Helvetica,sans-Serif" font-size="10.00">client/field.cc</text>
</a>
</g>
</g>
<!-- Node1&#45;&gt;Node5 -->
<g id="edge16_Node000001_Node000005" class="edge">
<title>Node1&#45;&gt;Node5</title>
<g id="a_edge16_Node000001_Node000005"><a xlink:title=" ">
<path fill="none" stroke="#63b8ff" d="M1155.34,-355.45C1255.28,-343.99 1420.91,-306.5 1458,-184 1485.66,-92.66 1322.36,-71.72 1243.63,-66.92"/>
<polygon fill="#63b8ff" stroke="#63b8ff" points="1154.85,-351.99 1145.28,-356.54 1155.6,-358.95 1154.85,-351.99"/>
</a>
</g>
</g>
<!-- Node14 -->
<g id="Node000014" class="node">
<title>Node14</title>
<g id="a_Node000014"><a xlink:href="data__store2_8h.html" target="_top" xlink:title=" ">
<polygon fill="white" stroke="#666666" points="439.5,-310.5 326.5,-310.5 326.5,-291.5 439.5,-291.5 439.5,-310.5"/>
<text text-anchor="middle" x="383" y="-298.5" font-family="Helvetica,sans-Serif" font-size="10.00">client/data_store2.h</text>
</a>
</g>
</g>
<!-- Node1&#45;&gt;Node14 -->
<g id="edge13_Node000001_Node000014" class="edge">
<title>Node1&#45;&gt;Node14</title>
<g id="a_edge13_Node000001_Node000014"><a xlink:title=" ">
<path fill="none" stroke="#63b8ff" d="M1000.73,-358.06C882.52,-353.63 649.87,-342.19 454,-316 443.54,-314.6 432.3,-312.61 421.92,-310.57"/>
<polygon fill="#63b8ff" stroke="#63b8ff" points="1000.65,-361.56 1010.77,-358.43 1000.91,-354.56 1000.65,-361.56"/>
</a>
</g>
</g>
<!-- Node16 -->
<g id="Node000016" class="node">
<title>Node16</title>
<g id="a_Node000016"><a xlink:href="event__target_8h.html" target="_top" xlink:title=" ">
<polygon fill="white" stroke="#666666" points="1144,-250 1012,-250 1012,-220 1144,-220 1144,-250"/>
<text text-anchor="start" x="1020" y="-238" font-family="Helvetica,sans-Serif" font-size="10.00">include/webcface/event</text>
<text text-anchor="middle" x="1078" y="-227" font-family="Helvetica,sans-Serif" font-size="10.00">_target.h</text>
</a>
</g>
</g>
<!-- Node1&#45;&gt;Node16 -->
<g id="edge17_Node000001_Node000016" class="edge">
<title>Node1&#45;&gt;Node16</title>
<g id="a_edge17_Node000001_Node000016"><a xlink:title=" ">
<path fill="none" stroke="#63b8ff" d="M1078,-341.91C1078,-316.83 1078,-272.72 1078,-250.16"/>
<polygon fill="#63b8ff" stroke="#63b8ff" points="1074.5,-341.94 1078,-351.94 1081.5,-341.94 1074.5,-341.94"/>
</a>
</g>
</g>
<!-- Node18 -->
<g id="Node000018" class="node">
<title>Node18</title>
<g id="a_Node000018"><a xlink:href="webcface_8h.html" target="_top" xlink:title=" ">
<polygon fill="white" stroke="#666666" points="1447,-19 1287,-19 1287,0 1447,0 1447,-19"/>
<text text-anchor="middle" x="1367" y="-7" font-family="Helvetica,sans-Serif" font-size="10.00">include/webcface/webcface.h</text>
</a>
</g>
</g>
<!-- Node1&#45;&gt;Node18 -->
<g id="edge70_Node000001_Node000018" class="edge">
<title>Node1&#45;&gt;Node18</title>
<g id="a_edge70_Node000001_Node000018"><a xlink:title=" ">
<path fill="none" stroke="#63b8ff" d="M1155.48,-358.5C1303.95,-352.55 1614,-329 1614,-236 1614,-236 1614,-236 1614,-118.5 1614,-44.32 1519.32,-20.59 1447.19,-13.28"/>
<polygon fill="#63b8ff" stroke="#63b8ff" points="1154.93,-355.02 1145.07,-358.9 1155.2,-362.01 1154.93,-355.02"/>
</a>
</g>
</g>
<!-- Node19 -->
<g id="Node000019" class="node">
<title>Node19</title>
<g id="a_Node000019"><a xlink:href="image_8h.html" target="_top" xlink:title=" ">
<polygon fill="white" stroke="#666666" points="700,-184 556,-184 556,-165 700,-165 700,-184"/>
<text text-anchor="middle" x="628" y="-172" font-family="Helvetica,sans-Serif" font-size="10.00">include/webcface/image.h</text>
</a>
</g>
</g>
<!-- Node1&#45;&gt;Node19 -->
<g id="edge65_Node000001_Node000019" class="edge">
<title>Node1&#45;&gt;Node19</title>
<g id="a_edge65_Node000001_Node000019"><a xlink:title=" ">
<path fill="none" stroke="#63b8ff" d="M1047.82,-348.09C962.55,-313.04 721.31,-213.86 648.84,-184.07"/>
<polygon fill="#63b8ff" stroke="#63b8ff" points="1046.62,-351.38 1057.2,-351.95 1049.28,-344.91 1046.62,-351.38"/>
</a>
</g>
</g>
<!-- Node20 -->
<g id="Node000020" class="node">
<title>Node20</title>
<g id="a_Node000020"><a xlink:href="member_8h.html" target="_top" xlink:title=" ">
<polygon fill="white" stroke="#666666" points="1206,-129 1052,-129 1052,-110 1206,-110 1206,-129"/>
<text text-anchor="middle" x="1129" y="-117" font-family="Helvetica,sans-Serif" font-size="10.00">include/webcface/member.h</text>
</a>
</g>
</g>
<!-- Node1&#45;&gt;Node20 -->
<g id="edge67_Node000001_Node000020" class="edge">
<title>Node1&#45;&gt;Node20</title>
<g id="a_edge67_Node000001_Node000020"><a xlink:title=" ">
<path fill="none" stroke="#63b8ff" d="M1146.14,-350.02C1232.81,-332.61 1378.88,-288.64 1443,-184 1447.41,-176.8 1448.54,-171.38 1443,-165 1427.66,-147.33 1294.23,-133.51 1206.31,-126.21"/>
<polygon fill="#63b8ff" stroke="#63b8ff" points="1145.29,-346.62 1136.14,-351.97 1146.62,-353.49 1145.29,-346.62"/>
</a>
</g>
</g>
<!-- Node21 -->
<g id="Node000021" class="node">
<title>Node21</title>
<g id="a_Node000021"><a xlink:href="log_8h.html" target="_top" xlink:title=" ">
<polygon fill="white" stroke="#666666" points="1048,-184 920,-184 920,-165 1048,-165 1048,-184"/>
<text text-anchor="middle" x="984" y="-172" font-family="Helvetica,sans-Serif" font-size="10.00">include/webcface/log.h</text>
</a>
</g>
</g>
<!-- Node1&#45;&gt;Node21 -->
<g id="edge66_Node000001_Node000021" class="edge">
<title>Node1&#45;&gt;Node21</title>
<g id="a_edge66_Node000001_Node000021"><a xlink:title=" ">
<path fill="none" stroke="#63b8ff" d="M1064.22,-344.18C1047.44,-323.53 1019.32,-286.26 1003,-250 992.81,-227.36 987.4,-198.29 985.2,-184.09"/>
<polygon fill="#63b8ff" stroke="#63b8ff" points="1061.58,-346.48 1070.65,-351.96 1066.97,-342.03 1061.58,-346.48"/>
</a>
</g>
</g>
<!-- Node22 -->
<g id="Node000022" class="node">
<title>Node22</title>
<g id="a_Node000022"><a xlink:href="text_8h.html" target="_top" xlink:title=" ">
<polygon fill="white" stroke="#666666" points="1275.5,-184 1142.5,-184 1142.5,-165 1275.5,-165 1275.5,-184"/>
<text text-anchor="middle" x="1209" y="-172" font-family="Helvetica,sans-Serif" font-size="10.00">include/webcface/text.h</text>
</a>
</g>
</g>
<!-- Node1&#45;&gt;Node22 -->
<g id="edge68_Node000001_Node000022" class="edge">
<title>Node1&#45;&gt;Node22</title>
<g id="a_edge68_Node000001_Node000022"><a xlink:title=" ">
<path fill="none" stroke="#63b8ff" d="M1090.42,-342.96C1117.77,-304.34 1182.39,-213.08 1202.74,-184.33"/>
<polygon fill="#63b8ff" stroke="#63b8ff" points="1087.24,-341.39 1084.32,-351.58 1092.95,-345.44 1087.24,-341.39"/>
</a>
</g>
</g>
<!-- Node23 -->
<g id="Node000023" class="node">
<title>Node23</title>
<g id="a_Node000023"><a xlink:href="value_8h.html" target="_top" xlink:title=" ">
<polygon fill="white" stroke="#666666" points="1434,-184 1294,-184 1294,-165 1434,-165 1434,-184"/>
<text text-anchor="middle" x="1364" y="-172" font-family="Helvetica,sans-Serif" font-size="10.00">include/webcface/value.h</text>
</a>
</g>
</g>
<!-- Node1&#45;&gt;Node23 -->
<g id="edge69_Node000001_Node000023" class="edge">
<title>Node1&#45;&gt;Node23</title>
<g id="a_edge69_Node000001_Node000023"><a xlink:title=" ">
<path fill="none" stroke="#63b8ff" d="M1099.94,-346.31C1156.34,-309.83 1305.16,-213.56 1350.62,-184.16"/>
<polygon fill="#63b8ff" stroke="#63b8ff" points="1097.91,-343.46 1091.41,-351.83 1101.71,-349.33 1097.91,-343.46"/>
</a>
</g>
</g>
<!-- Node25 -->
<g id="Node000025" class="node">
<title>Node25</title>
<g id="a_Node000025"><a xlink:href="func__result_8h.html" target="_top" xlink:title=" ">
<polygon fill="white" stroke="#666666" points="656.5,-316 531.5,-316 531.5,-286 656.5,-286 656.5,-316"/>
<text text-anchor="start" x="539.5" y="-304" font-family="Helvetica,sans-Serif" font-size="10.00">include/webcface/func</text>
<text text-anchor="middle" x="594" y="-293" font-family="Helvetica,sans-Serif" font-size="10.00">_result.h</text>
</a>
</g>
</g>
<!-- Node1&#45;&gt;Node25 -->
<g id="edge53_Node000001_Node000025" class="edge">
<title>Node1&#45;&gt;Node25</title>
<g id="a_edge53_Node000001_Node000025"><a xlink:title=" ">
<path fill="none" stroke="#63b8ff" d="M1000.79,-351.17C905.33,-339.63 744.73,-320.22 656.58,-309.56"/>
<polygon fill="#63b8ff" stroke="#63b8ff" points="1000.61,-354.67 1010.96,-352.4 1001.45,-347.72 1000.61,-354.67"/>
</a>
</g>
</g>
<!-- Node3 -->
<g id="Node000003" class="node">
<title>Node3</title>
<g id="a_Node000003"><a xlink:href="client_8cc.html" target="_top" xlink:title=" ">
<polygon fill="white" stroke="#666666" points="837.5,-19 750.5,-19 750.5,0 837.5,0 837.5,-19"/>
<text text-anchor="middle" x="794" y="-7" font-family="Helvetica,sans-Serif" font-size="10.00">client/client.cc</text>
</a>
</g>
</g>
<!-- Node2&#45;&gt;Node3 -->
<g id="edge2_Node000002_Node000003" class="edge">
<title>Node2&#45;&gt;Node3</title>
<g id="a_edge2_Node000002_Node000003"><a xlink:title=" ">
<path fill="none" stroke="#63b8ff" d="M364.22,-164.07C322.08,-156.96 274.87,-145.55 262,-129 241.81,-103.04 239.73,-79.21 262,-55 294.78,-19.36 628.63,-12.25 750.1,-10.84"/>
<polygon fill="#63b8ff" stroke="#63b8ff" points="363.81,-167.55 374.24,-165.7 364.93,-160.64 363.81,-167.55"/>
</a>
</g>
</g>
<!-- Node4 -->
<g id="Node000004" class="node">
<title>Node4</title>
<g id="a_Node000004"><a xlink:href="client__ws_8cc.html" target="_top" xlink:title=" ">
<polygon fill="white" stroke="#666666" points="307,-19 201,-19 201,0 307,0 307,-19"/>
<text text-anchor="middle" x="254" y="-7" font-family="Helvetica,sans-Serif" font-size="10.00">client/client_ws.cc</text>
</a>
</g>
</g>
<!-- Node2&#45;&gt;Node4 -->
<g id="edge3_Node000002_Node000004" class="edge">
<title>Node2&#45;&gt;Node4</title>
<g id="a_edge3_Node000002_Node000004"><a xlink:title=" ">
<path fill="none" stroke="#63b8ff" d="M364.27,-167.53C311.3,-161.5 245.96,-149.97 229,-129 202.03,-95.65 233.92,-40.2 247.99,-19.05"/>
<polygon fill="#63b8ff" stroke="#63b8ff" points="364.03,-171.03 374.35,-168.63 364.79,-164.07 364.03,-171.03"/>
</a>
</g>
</g>
<!-- Node2&#45;&gt;Node5 -->
<g id="edge4_Node000002_Node000005" class="edge">
<title>Node2&#45;&gt;Node5</title>
<g id="a_edge4_Node000002_Node000005"><a xlink:title=" ">
<path fill="none" stroke="#63b8ff" d="M445.28,-155.2C453.16,-140.16 466.56,-119.8 485,-110 550.73,-75.06 1080.03,-82.38 1154,-74 1156.75,-73.69 1159.57,-73.32 1162.41,-72.92"/>
<polygon fill="#63b8ff" stroke="#63b8ff" points="441.95,-154.04 440.71,-164.56 448.24,-157.11 441.95,-154.04"/>
</a>
</g>
</g>
<!-- Node6 -->
<g id="Node000006" class="node">
<title>Node6</title>
<g id="a_Node000006"><a xlink:href="func_8cc.html" target="_top" xlink:title=" ">
<polygon fill="white" stroke="#666666" points="176.5,-129 95.5,-129 95.5,-110 176.5,-110 176.5,-129"/>
<text text-anchor="middle" x="136" y="-117" font-family="Helvetica,sans-Serif" font-size="10.00">client/func.cc</text>
</a>
</g>
</g>
<!-- Node2&#45;&gt;Node6 -->
<g id="edge5_Node000002_Node000006" class="edge">
<title>Node2&#45;&gt;Node6</title>
<g id="a_edge5_Node000002_Node000006"><a xlink:title=" ">
<path fill="none" stroke="#63b8ff" d="M378.65,-163.23C319.19,-152.76 228.55,-136.8 176.52,-127.63"/>
<polygon fill="#63b8ff" stroke="#63b8ff" points="378.18,-166.7 388.64,-164.98 379.4,-159.8 378.18,-166.7"/>
</a>
</g>
</g>
<!-- Node7 -->
<g id="Node000007" class="node">
<title>Node7</title>
<g id="a_Node000007"><a xlink:href="image_8cc.html" target="_top" xlink:title=" ">
<polygon fill="white" stroke="#666666" points="584.5,-129 493.5,-129 493.5,-110 584.5,-110 584.5,-129"/>
<text text-anchor="middle" x="539" y="-117" font-family="Helvetica,sans-Serif" font-size="10.00">client/image.cc</text>
</a>
</g>
</g>
<!-- Node2&#45;&gt;Node7 -->
<g id="edge6_Node000002_Node000007" class="edge">
<title>Node2&#45;&gt;Node7</title>
<g id="a_edge6_Node000002_Node000007"><a xlink:title=" ">
<path fill="none" stroke="#63b8ff" d="M462.27,-160.37C481.01,-150.63 506.02,-137.64 522.31,-129.17"/>
<polygon fill="#63b8ff" stroke="#63b8ff" points="460.65,-157.27 453.39,-164.98 463.88,-163.48 460.65,-157.27"/>
</a>
</g>
</g>
<!-- Node8 -->
<g id="Node000008" class="node">
<title>Node8</title>
<g id="a_Node000008"><a xlink:href="log_8cc.html" target="_top" xlink:title=" ">
<polygon fill="white" stroke="#666666" points="677.5,-129 602.5,-129 602.5,-110 677.5,-110 677.5,-129"/>
<text text-anchor="middle" x="640" y="-117" font-family="Helvetica,sans-Serif" font-size="10.00">client/log.cc</text>
</a>
</g>
</g>
<!-- Node2&#45;&gt;Node8 -->
<g id="edge7_Node000002_Node000008" class="edge">
<title>Node2&#45;&gt;Node8</title>
<g id="a_edge7_Node000002_Node000008"><a xlink:title=" ">
<path fill="none" stroke="#63b8ff" d="M479.37,-162.44C517.37,-152.52 572.36,-138.16 607.13,-129.08"/>
<polygon fill="#63b8ff" stroke="#63b8ff" points="478.41,-159.07 469.62,-164.98 480.18,-165.84 478.41,-159.07"/>
</a>
</g>
</g>
<!-- Node9 -->
<g id="Node000009" class="node">
<title>Node9</title>
<g id="a_Node000009"><a xlink:href="logger_8cc.html" target="_top" xlink:title=" ">
<polygon fill="white" stroke="#666666" points="361,-129 271,-129 271,-110 361,-110 361,-129"/>
<text text-anchor="middle" x="316" y="-117" font-family="Helvetica,sans-Serif" font-size="10.00">client/logger.cc</text>
</a>
</g>
</g>
<!-- Node2&#45;&gt;Node9 -->
<g id="edge8_Node000002_Node000009" class="edge">
<title>Node2&#45;&gt;Node9</title>
<g id="a_edge8_Node000002_Node000009"><a xlink:title=" ">
<path fill="none" stroke="#63b8ff" d="M408.23,-160.9C385.88,-151.11 355.48,-137.79 335.79,-129.17"/>
<polygon fill="#63b8ff" stroke="#63b8ff" points="407,-164.18 417.56,-164.98 409.8,-157.77 407,-164.18"/>
</a>
</g>
</g>
<!-- Node10 -->
<g id="Node000010" class="node">
<title>Node10</title>
<g id="a_Node000010"><a xlink:href="member_8cc.html" target="_top" xlink:title=" ">
<polygon fill="white" stroke="#666666" points="1144.5,-74 1043.5,-74 1043.5,-55 1144.5,-55 1144.5,-74"/>
<text text-anchor="middle" x="1094" y="-62" font-family="Helvetica,sans-Serif" font-size="10.00">client/member.cc</text>
</a>
</g>
</g>
<!-- Node2&#45;&gt;Node10 -->
<g id="edge9_Node000002_Node000010" class="edge">
<title>Node2&#45;&gt;Node10</title>
<g id="a_edge9_Node000002_Node000010"><a xlink:title=" ">
<path fill="none" stroke="#63b8ff" d="M435.62,-154.59C435.69,-140.1 438.45,-120.82 451,-110 462.2,-100.34 893.78,-76.27 1043.48,-68.19"/>
<polygon fill="#63b8ff" stroke="#63b8ff" points="432.13,-155.06 436,-164.93 439.13,-154.81 432.13,-155.06"/>
</a>
</g>
</g>
<!-- Node11 -->
<g id="Node000011" class="node">
<title>Node11</title>
<g id="a_Node000011"><a xlink:href="text_8cc.html" target="_top" xlink:title=" ">
<polygon fill="white" stroke="#666666" points="814,-129 734,-129 734,-110 814,-110 814,-129"/>
<text text-anchor="middle" x="774" y="-117" font-family="Helvetica,sans-Serif" font-size="10.00">client/text.cc</text>
</a>
</g>
</g>
<!-- Node2&#45;&gt;Node11 -->
<g id="edge10_Node000002_Node000011" class="edge">
<title>Node2&#45;&gt;Node11</title>
<g id="a_edge10_Node000002_Node000011"><a xlink:title=" ">
<path fill="none" stroke="#63b8ff" d="M501.39,-163.37C569.91,-152.6 676.22,-135.88 733.74,-126.83"/>
<polygon fill="#63b8ff" stroke="#63b8ff" points="500.48,-159.97 491.14,-164.98 501.57,-166.89 500.48,-159.97"/>
</a>
</g>
</g>
<!-- Node12 -->
<g id="Node000012" class="node">
<title>Node12</title>
<g id="a_Node000012"><a xlink:href="value_8cc.html" target="_top" xlink:title=" ">
<polygon fill="white" stroke="#666666" points="1033.5,-129 946.5,-129 946.5,-110 1033.5,-110 1033.5,-129"/>
<text text-anchor="middle" x="990" y="-117" font-family="Helvetica,sans-Serif" font-size="10.00">client/value.cc</text>
</a>
</g>
</g>
<!-- Node2&#45;&gt;Node12 -->
<g id="edge11_Node000002_Node000012" class="edge">
<title>Node2&#45;&gt;Node12</title>
<g id="a_edge11_Node000002_Node000012"><a xlink:title=" ">
<path fill="none" stroke="#63b8ff" d="M509.57,-165.46C511.06,-165.3 512.54,-165.15 514,-165 673.16,-148.78 862.49,-131.76 946.33,-124.34"/>
<polygon fill="#63b8ff" stroke="#63b8ff" points="509.19,-161.98 499.61,-166.5 509.92,-168.94 509.19,-161.98"/>
</a>
</g>
</g>
<!-- Node13 -->
<g id="Node000013" class="node">
<title>Node13</title>
<g id="a_Node000013"><a xlink:href="view_8cc.html" target="_top" xlink:title=" ">
<polygon fill="white" stroke="#666666" points="905.5,-74 822.5,-74 822.5,-55 905.5,-55 905.5,-74"/>
<text text-anchor="middle" x="864" y="-62" font-family="Helvetica,sans-Serif" font-size="10.00">client/view.cc</text>
</a>
</g>
</g>
<!-- Node2&#45;&gt;Node13 -->
<g id="edge12_Node000002_Node000013" class="edge">
<title>Node2&#45;&gt;Node13</title>
<g id="a_edge12_Node000002_Node000013"><a xlink:title=" ">
<path fill="none" stroke="#63b8ff" d="M422.11,-156.79C411.51,-142.84 401.07,-123.16 413,-110 440.21,-79.97 715.66,-69.46 822.22,-66.49"/>
<polygon fill="#63b8ff" stroke="#63b8ff" points="419.49,-159.12 428.53,-164.63 424.9,-154.68 419.49,-159.12"/>
</a>
</g>
</g>
<!-- Node14&#45;&gt;Node2 -->
<g id="edge14_Node000014_Node000002" class="edge">
<title>Node14&#45;&gt;Node2</title>
<g id="a_edge14_Node000014_Node000002"><a xlink:title=" ">
<path fill="none" stroke="#63b8ff" d="M390.82,-281.96C402.62,-254.76 424.53,-204.26 433.26,-184.12"/>
<polygon fill="#63b8ff" stroke="#63b8ff" points="387.48,-280.88 386.71,-291.44 393.9,-283.66 387.48,-280.88"/>
</a>
</g>
</g>
<!-- Node15 -->
<g id="Node000015" class="node">
<title>Node15</title>
<g id="a_Node000015"><a xlink:href="data__store2_8cc.html" target="_top" xlink:title=" ">
<polygon fill="white" stroke="#666666" points="118,-244.5 0,-244.5 0,-225.5 118,-225.5 118,-244.5"/>
<text text-anchor="middle" x="59" y="-232.5" font-family="Helvetica,sans-Serif" font-size="10.00">client/data_store2.cc</text>
</a>
</g>
</g>
<!-- Node14&#45;&gt;Node15 -->
<g id="edge15_Node000014_Node000015" class="edge">
<title>Node14&#45;&gt;Node15</title>
<g id="a_edge15_Node000014_Node000015"><a xlink:title=" ">
<path fill="none" stroke="#63b8ff" d="M328.6,-289.54C276.75,-279.53 196.51,-263.94 127,-250 118.25,-248.25 108.88,-246.34 99.98,-244.51"/>
<polygon fill="#63b8ff" stroke="#63b8ff" points="328.09,-293.01 338.58,-291.47 329.42,-286.13 328.09,-293.01"/>
</a>
</g>
</g>
<!-- Node16&#45;&gt;Node10 -->
<g id="edge18_Node000016_Node000010" class="edge">
<title>Node16&#45;&gt;Node10</title>
<g id="a_edge18_Node000016_Node000010"><a xlink:title=" ">
<path fill="none" stroke="#63b8ff" d="M1092.25,-211.35C1102.44,-196.61 1117.26,-177.82 1134,-165 1165.28,-141.04 1193.53,-162.03 1215,-129 1235.1,-98.07 1186.14,-81.28 1144.6,-72.87"/>
<polygon fill="#63b8ff" stroke="#63b8ff" points="1089.18,-209.65 1086.54,-219.91 1095,-213.54 1089.18,-209.65"/>
</a>
</g>
</g>
<!-- Node17 -->
<g id="Node000017" class="node">
<title>Node17</title>
<g id="a_Node000017"><a xlink:href="client_8h.html" target="_top" xlink:title=" ">
<polygon fill="white" stroke="#666666" points="411,-74 271,-74 271,-55 411,-55 411,-74"/>
<text text-anchor="middle" x="341" y="-62" font-family="Helvetica,sans-Serif" font-size="10.00">include/webcface/client.h</text>
</a>
</g>
</g>
<!-- Node16&#45;&gt;Node17 -->
<g id="edge19_Node000016_Node000017" class="edge">
<title>Node16&#45;&gt;Node17</title>
<g id="a_edge19_Node000016_Node000017"><a xlink:title=" ">
<path fill="none" stroke="#63b8ff" d="M1001.75,-227.83C920.61,-220.28 798.36,-205.73 757,-184 716.92,-162.94 727.35,-130.52 687,-110 640.17,-86.18 497.89,-74.21 411.05,-68.96"/>
<polygon fill="#63b8ff" stroke="#63b8ff" points="1001.64,-231.34 1011.92,-228.77 1002.28,-224.37 1001.64,-231.34"/>
</a>
</g>
</g>
<!-- Node16&#45;&gt;Node18 -->
<g id="edge52_Node000016_Node000018" class="edge">
<title>Node16&#45;&gt;Node18</title>
<g id="a_edge52_Node000016_Node000018"><a xlink:title=" ">
<path fill="none" stroke="#63b8ff" d="M1154.22,-229.51C1246.04,-223.08 1394.06,-209.15 1443,-184 1497.98,-155.74 1530.82,-105.38 1495,-55 1481.71,-36.31 1459.97,-25.4 1438.16,-19.05"/>
<polygon fill="#63b8ff" stroke="#63b8ff" points="1153.88,-226.03 1144.14,-230.2 1154.36,-233.01 1153.88,-226.03"/>
</a>
</g>
</g>
<!-- Node16&#45;&gt;Node19 -->
<g id="edge23_Node000016_Node000019" class="edge">
<title>Node16&#45;&gt;Node19</title>
<g id="a_edge23_Node000016_Node000019"><a xlink:title=" ">
<path fill="none" stroke="#63b8ff" d="M1001.57,-224.06C915.01,-212.81 775.38,-194.66 693.57,-184.02"/>
<polygon fill="#63b8ff" stroke="#63b8ff" points="1001.23,-227.55 1011.6,-225.37 1002.14,-220.61 1001.23,-227.55"/>
</a>
</g>
</g>
<!-- Node16&#45;&gt;Node20 -->
<g id="edge36_Node000016_Node000020" class="edge">
<title>Node16&#45;&gt;Node20</title>
<g id="a_edge36_Node000016_Node000020"><a xlink:title=" ">
<path fill="none" stroke="#63b8ff" d="M1083.98,-209.84C1087.75,-196.32 1093.19,-179.34 1100,-165 1106.25,-151.84 1115.83,-137.97 1122.25,-129.28"/>
<polygon fill="#63b8ff" stroke="#63b8ff" points="1080.51,-209.27 1081.32,-219.84 1087.28,-211.07 1080.51,-209.27"/>
</a>
</g>
</g>
<!-- Node16&#45;&gt;Node21 -->
<g id="edge31_Node000016_Node000021" class="edge">
<title>Node16&#45;&gt;Node21</title>
<g id="a_edge31_Node000016_Node000021"><a xlink:title=" ">
<path fill="none" stroke="#63b8ff" d="M1046.43,-214.35C1029.91,-204.07 1010.54,-192.02 997.81,-184.09"/>
<polygon fill="#63b8ff" stroke="#63b8ff" points="1044.91,-217.53 1055.25,-219.84 1048.6,-211.58 1044.91,-217.53"/>
</a>
</g>
</g>
<!-- Node16&#45;&gt;Node22 -->
<g id="edge37_Node000016_Node000022" class="edge">
<title>Node16&#45;&gt;Node22</title>
<g id="a_edge37_Node000016_Node000022"><a xlink:title=" ">
<path fill="none" stroke="#63b8ff" d="M1118.82,-215.77C1142.44,-205.22 1171.08,-192.43 1189.65,-184.14"/>
<polygon fill="#63b8ff" stroke="#63b8ff" points="1117.08,-212.71 1109.38,-219.99 1119.94,-219.11 1117.08,-212.71"/>
</a>
</g>
</g>
<!-- Node16&#45;&gt;Node23 -->
<g id="edge42_Node000016_Node000023" class="edge">
<title>Node16&#45;&gt;Node23</title>
<g id="a_edge42_Node000016_Node000023"><a xlink:title=" ">
<path fill="none" stroke="#63b8ff" d="M1154.2,-218.41C1208.13,-207.38 1278.41,-193.01 1322.37,-184.01"/>
<polygon fill="#63b8ff" stroke="#63b8ff" points="1153.43,-215 1144.33,-220.43 1154.83,-221.86 1153.43,-215"/>
</a>
</g>
</g>
<!-- Node24 -->
<g id="Node000024" class="node">
<title>Node24</title>
<g id="a_Node000024"><a xlink:href="view_8h.html" target="_top" xlink:title=" ">
<polygon fill="white" stroke="#666666" points="902,-184 766,-184 766,-165 902,-165 902,-184"/>
<text text-anchor="middle" x="834" y="-172" font-family="Helvetica,sans-Serif" font-size="10.00">include/webcface/view.h</text>
</a>
</g>
</g>
<!-- Node16&#45;&gt;Node24 -->
<g id="edge47_Node000016_Node000024" class="edge">
<title>Node16&#45;&gt;Node24</title>
<g id="a_edge47_Node000016_Node000024"><a xlink:title=" ">
<path fill="none" stroke="#63b8ff" d="M1009.76,-217.64C964.27,-206.73 906.32,-192.84 869.68,-184.05"/>
<polygon fill="#63b8ff" stroke="#63b8ff" points="1009.02,-221.06 1019.56,-219.99 1010.65,-214.25 1009.02,-221.06"/>
</a>
</g>
</g>
<!-- Node17&#45;&gt;Node3 -->
<g id="edge20_Node000017_Node000003" class="edge">
<title>Node17&#45;&gt;Node3</title>
<g id="a_edge20_Node000017_Node000003"><a xlink:title=" ">
<path fill="none" stroke="#63b8ff" d="M421.24,-54.11C517.19,-42.89 674.35,-24.5 750.25,-15.62"/>
<polygon fill="#63b8ff" stroke="#63b8ff" points="420.81,-50.64 411.28,-55.28 421.62,-57.59 420.81,-50.64"/>
</a>
</g>
</g>
<!-- Node17&#45;&gt;Node4 -->
<g id="edge21_Node000017_Node000004" class="edge">
<title>Node17&#45;&gt;Node4</title>
<g id="a_edge21_Node000017_Node000004"><a xlink:title=" ">
<path fill="none" stroke="#63b8ff" d="M318.34,-49.7C302.49,-40.04 281.81,-27.44 268.23,-19.17"/>
<polygon fill="#63b8ff" stroke="#63b8ff" points="316.66,-52.77 327.02,-54.98 320.3,-46.79 316.66,-52.77"/>
</a>
</g>
</g>
<!-- Node17&#45;&gt;Node18 -->
<g id="edge22_Node000017_Node000018" class="edge">
<title>Node17&#45;&gt;Node18</title>
<g id="a_edge22_Node000017_Node000018"><a xlink:title=" ">
<path fill="none" stroke="#63b8ff" d="M421.15,-55.29C422.44,-55.19 423.73,-55.09 425,-55 743.8,-31.36 1124.27,-17.89 1286.89,-12.83"/>
<polygon fill="#63b8ff" stroke="#63b8ff" points="420.78,-51.81 411.1,-56.12 421.36,-58.79 420.78,-51.81"/>
</a>
</g>
</g>
<!-- Node19&#45;&gt;Node7 -->
<g id="edge24_Node000019_Node000007" class="edge">
<title>Node19&#45;&gt;Node7</title>
<g id="a_edge24_Node000019_Node000007"><a xlink:title=" ">
<path fill="none" stroke="#63b8ff" d="M604.82,-159.7C588.61,-150.04 567.45,-137.44 553.56,-129.17"/>
<polygon fill="#63b8ff" stroke="#63b8ff" points="603.32,-162.88 613.7,-164.98 606.9,-156.86 603.32,-162.88"/>
</a>
</g>
</g>
<!-- Node19&#45;&gt;Node20 -->
<g id="edge25_Node000019_Node000020" class="edge">
<title>Node19&#45;&gt;Node20</title>
<g id="a_edge25_Node000019_Node000020"><a xlink:title=" ">
<path fill="none" stroke="#63b8ff" d="M710.15,-164.81C804.79,-154.8 959.12,-138.47 1051.68,-128.68"/>
<polygon fill="#63b8ff" stroke="#63b8ff" points="709.62,-161.35 700.05,-165.88 710.36,-168.31 709.62,-161.35"/>
</a>
</g>
</g>
<!-- Node20&#45;&gt;Node5 -->
<g id="edge26_Node000020_Node000005" class="edge">
<title>Node20&#45;&gt;Node5</title>
<g id="a_edge26_Node000020_Node000005"><a xlink:title=" ">
<path fill="none" stroke="#63b8ff" d="M1149.03,-104.15C1162.41,-94.57 1179.56,-82.29 1190.89,-74.17"/>
<polygon fill="#63b8ff" stroke="#63b8ff" points="1146.98,-101.32 1140.89,-109.98 1151.06,-107.01 1146.98,-101.32"/>
</a>
</g>
</g>
<!-- Node20&#45;&gt;Node10 -->
<g id="edge27_Node000020_Node000010" class="edge">
<title>Node20&#45;&gt;Node10</title>
<g id="a_edge27_Node000020_Node000010"><a xlink:title=" ">
<path fill="none" stroke="#63b8ff" d="M1117.7,-101.39C1111.68,-92.27 1104.53,-81.45 1099.67,-74.09"/>
<polygon fill="#63b8ff" stroke="#63b8ff" points="1114.79,-103.33 1123.22,-109.75 1120.63,-99.47 1114.79,-103.33"/>
</a>
</g>
</g>
<!-- Node20&#45;&gt;Node13 -->
<g id="edge28_Node000020_Node000013" class="edge">
<title>Node20&#45;&gt;Node13</title>
<g id="a_edge28_Node000020_Node000013"><a xlink:title=" ">
<path fill="none" stroke="#63b8ff" d="M1076.42,-107.98C1026.27,-97.95 951.74,-83.05 905.6,-73.82"/>
<polygon fill="#63b8ff" stroke="#63b8ff" points="1075.93,-111.46 1086.42,-109.98 1077.3,-104.59 1075.93,-111.46"/>
</a>
</g>
</g>
<!-- Node20&#45;&gt;Node17 -->
<g id="edge29_Node000020_Node000017" class="edge">
<title>Node20&#45;&gt;Node17</title>
<g id="a_edge29_Node000020_Node000017"><a xlink:title=" ">
<path fill="none" stroke="#63b8ff" d="M1041.45,-109.9C804.14,-90.82 535.63,-75.74 411.06,-69.12"/>
<polygon fill="#63b8ff" stroke="#63b8ff" points="1041.41,-113.41 1051.66,-110.73 1041.97,-106.43 1041.41,-113.41"/>
</a>
</g>
</g>
<!-- Node20&#45;&gt;Node18 -->
<g id="edge30_Node000020_Node000018" class="edge">
<title>Node20&#45;&gt;Node18</title>
<g id="a_edge30_Node000020_Node000018"><a xlink:title=" ">
<path fill="none" stroke="#63b8ff" d="M1085.9,-106.93C1052.56,-95.91 1015.17,-77.66 1035,-55 1067.07,-18.34 1199.3,-10.61 1286.9,-9.64"/>
<polygon fill="#63b8ff" stroke="#63b8ff" points="1085,-110.31 1095.59,-109.98 1087.1,-103.64 1085,-110.31"/>
</a>
</g>
</g>
<!-- Node21&#45;&gt;Node3 -->
<g id="edge32_Node000021_Node000003" class="edge">
<title>Node21&#45;&gt;Node3</title>
<g id="a_edge32_Node000021_Node000003"><a xlink:title=" ">
<path fill="none" stroke="#63b8ff" d="M964.28,-158.36C955.17,-150.48 944.87,-140.16 938,-129 919.95,-99.67 938.72,-79.97 915,-55 894.73,-33.66 863.35,-22.5 837.63,-16.7"/>
<polygon fill="#63b8ff" stroke="#63b8ff" points="962.24,-161.22 972.18,-164.88 966.69,-155.82 962.24,-161.22"/>
</a>
</g>
</g>
<!-- Node21&#45;&gt;Node8 -->
<g id="edge33_Node000021_Node000008" class="edge">
<title>Node21&#45;&gt;Node8</title>
<g id="a_edge33_Node000021_Node000008"><a xlink:title=" ">
<path fill="none" stroke="#63b8ff" d="M918.51,-163.41C847.15,-152.42 735.47,-135.21 677.6,-126.29"/>
<polygon fill="#63b8ff" stroke="#63b8ff" points="918.31,-166.92 928.73,-164.98 919.38,-160 918.31,-166.92"/>
</a>
</g>
</g>
<!-- Node21&#45;&gt;Node18 -->
<g id="edge35_Node000021_Node000018" class="edge">
<title>Node21&#45;&gt;Node18</title>
<g id="a_edge35_Node000021_Node000018"><a xlink:title=" ">
<path fill="none" stroke="#63b8ff" d="M1058.18,-169.35C1135.06,-163.87 1249.07,-152.09 1286,-129 1329.53,-101.79 1355.45,-41.64 1363.92,-19.18"/>
<polygon fill="#63b8ff" stroke="#63b8ff" points="1057.79,-165.87 1048.06,-170.05 1058.28,-172.85 1057.79,-165.87"/>
</a>
</g>
</g>
<!-- Node21&#45;&gt;Node20 -->
<g id="edge34_Node000021_Node000020" class="edge">
<title>Node21&#45;&gt;Node20</title>
<g id="a_edge34_Node000021_Node000020"><a xlink:title=" ">
<path fill="none" stroke="#63b8ff" d="M1016.69,-161.55C1043.62,-151.71 1081.16,-137.98 1105.28,-129.17"/>
<polygon fill="#63b8ff" stroke="#63b8ff" points="1015.49,-158.26 1007.3,-164.98 1017.89,-164.84 1015.49,-158.26"/>
</a>
</g>
</g>
<!-- Node22&#45;&gt;Node3 -->
<g id="edge38_Node000022_Node000003" class="edge">
<title>Node22&#45;&gt;Node3</title>
<g id="a_edge38_Node000022_Node000003"><a xlink:title=" ">
<path fill="none" stroke="#63b8ff" d="M1224.18,-157.46C1245.81,-132.66 1280.03,-84.78 1253,-55 1225.39,-24.58 947,-14.33 837.71,-11.47"/>
<polygon fill="#63b8ff" stroke="#63b8ff" points="1221.54,-155.16 1217.43,-164.92 1226.73,-159.85 1221.54,-155.16"/>
</a>
</g>
</g>
<!-- Node22&#45;&gt;Node11 -->
<g id="edge39_Node000022_Node000011" class="edge">
<title>Node22&#45;&gt;Node11</title>
<g id="a_edge39_Node000022_Node000011"><a xlink:title=" ">
<path fill="none" stroke="#63b8ff" d="M1132.27,-164.15C1039.36,-152.83 886.38,-134.19 814.14,-125.39"/>
<polygon fill="#63b8ff" stroke="#63b8ff" points="1132.11,-167.66 1142.46,-165.39 1132.96,-160.71 1132.11,-167.66"/>
</a>
</g>
</g>
<!-- Node22&#45;&gt;Node18 -->
<g id="edge41_Node000022_Node000018" class="edge">
<title>Node22&#45;&gt;Node18</title>
<g id="a_edge41_Node000022_Node000018"><a xlink:title=" ">
<path fill="none" stroke="#63b8ff" d="M1269.94,-163.19C1322.67,-153.64 1391.75,-139.4 1400,-129 1420.45,-103.24 1410.32,-86.23 1400,-55 1395.29,-40.75 1384.07,-27.34 1376.02,-19.04"/>
<polygon fill="#63b8ff" stroke="#63b8ff" points="1269.19,-159.76 1259.96,-164.97 1270.42,-166.65 1269.19,-159.76"/>
</a>
</g>
</g>
<!-- Node22&#45;&gt;Node20 -->
<g id="edge40_Node000022_Node000020" class="edge">
<title>Node22&#45;&gt;Node20</title>
<g id="a_edge40_Node000022_Node000020"><a xlink:title=" ">
<path fill="none" stroke="#63b8ff" d="M1187.75,-159.42C1173.24,-149.81 1154.46,-137.37 1142.09,-129.17"/>
<polygon fill="#63b8ff" stroke="#63b8ff" points="1185.88,-162.38 1196.15,-164.98 1189.74,-156.54 1185.88,-162.38"/>
</a>
</g>
</g>
<!-- Node23&#45;&gt;Node3 -->
<g id="edge43_Node000023_Node000003" class="edge">
<title>Node23&#45;&gt;Node3</title>
<g id="a_edge43_Node000023_Node000003"><a xlink:title=" ">
<path fill="none" stroke="#63b8ff" d="M1356,-155.92C1342.66,-128.93 1313.14,-77.98 1271,-55 1196.97,-14.64 941,-10.3 837.72,-10.24"/>
<polygon fill="#63b8ff" stroke="#63b8ff" points="1352.85,-157.46 1360.31,-164.99 1359.17,-154.45 1352.85,-157.46"/>
</a>
</g>
</g>
<!-- Node23&#45;&gt;Node12 -->
<g id="edge44_Node000023_Node000012" class="edge">
<title>Node23&#45;&gt;Node12</title>
<g id="a_edge44_Node000023_Node000012"><a xlink:title=" ">
<path fill="none" stroke="#63b8ff" d="M1289.52,-163.63C1224.42,-154.9 1127.38,-141.61 1043,-129 1039.96,-128.55 1036.82,-128.07 1033.66,-127.58"/>
<polygon fill="#63b8ff" stroke="#63b8ff" points="1289.31,-167.14 1299.69,-164.99 1290.24,-160.2 1289.31,-167.14"/>
</a>
</g>
</g>
<!-- Node23&#45;&gt;Node18 -->
<g id="edge46_Node000023_Node000018" class="edge">
<title>Node23&#45;&gt;Node18</title>
<g id="a_edge46_Node000023_Node000018"><a xlink:title=" ">
<path fill="none" stroke="#63b8ff" d="M1429.71,-161.71C1447.7,-155.15 1465.19,-144.92 1476,-129 1494.47,-101.79 1494.34,-82.3 1476,-55 1463.35,-36.17 1441.17,-25.3 1420.12,-19.03"/>
<polygon fill="#63b8ff" stroke="#63b8ff" points="1428.12,-158.55 1419.71,-165 1430.3,-165.2 1428.12,-158.55"/>
</a>
</g>
</g>
<!-- Node23&#45;&gt;Node20 -->
<g id="edge45_Node000023_Node000020" class="edge">
<title>Node23&#45;&gt;Node20</title>
<g id="a_edge45_Node000023_Node000020"><a xlink:title=" ">
<path fill="none" stroke="#63b8ff" d="M1316.35,-162.75C1272.31,-152.82 1207.73,-138.26 1167.05,-129.08"/>
<polygon fill="#63b8ff" stroke="#63b8ff" points="1315.72,-166.2 1326.24,-164.98 1317.26,-159.37 1315.72,-166.2"/>
</a>
</g>
</g>
<!-- Node24&#45;&gt;Node3 -->
<g id="edge48_Node000024_Node000003" class="edge">
<title>Node24&#45;&gt;Node3</title>
<g id="a_edge48_Node000024_Node000003"><a xlink:title=" ">
<path fill="none" stroke="#63b8ff" d="M831.29,-154.57C829.33,-141.89 826.44,-124.85 823,-110 815.12,-75.99 802.53,-36.39 796.89,-19.2"/>
<polygon fill="#63b8ff" stroke="#63b8ff" points="827.88,-155.43 832.81,-164.81 834.8,-154.41 827.88,-155.43"/>
</a>
</g>
</g>
<!-- Node24&#45;&gt;Node13 -->
<g id="edge49_Node000024_Node000013" class="edge">
<title>Node24&#45;&gt;Node13</title>
<g id="a_edge49_Node000024_Node000013"><a xlink:title=" ">
<path fill="none" stroke="#63b8ff" d="M844.21,-156.25C848.52,-148.22 853.18,-138.39 856,-129 861.7,-110.06 863.34,-86.76 863.81,-74.32"/>
<polygon fill="#63b8ff" stroke="#63b8ff" points="841.15,-154.56 839.29,-164.99 847.24,-158 841.15,-154.56"/>
</a>
</g>
</g>
<!-- Node24&#45;&gt;Node18 -->
<g id="edge51_Node000024_Node000018" class="edge">
<title>Node24&#45;&gt;Node18</title>
<g id="a_edge51_Node000024_Node000018"><a xlink:title=" ">
<path fill="none" stroke="#63b8ff" d="M912.31,-164.62C1022.8,-152.05 1211.52,-130.43 1215,-129 1278.77,-102.84 1338.33,-42.05 1359.17,-19.3"/>
<polygon fill="#63b8ff" stroke="#63b8ff" points="911.74,-161.16 902.2,-165.77 912.53,-168.11 911.74,-161.16"/>
</a>
</g>
</g>
<!-- Node24&#45;&gt;Node20 -->
<g id="edge50_Node000024_Node000020" class="edge">
<title>Node24&#45;&gt;Node20</title>
<g id="a_edge50_Node000024_Node000020"><a xlink:title=" ">
<path fill="none" stroke="#63b8ff" d="M891.39,-163.19C946.7,-153.25 1029.41,-138.39 1081.23,-129.08"/>
<polygon fill="#63b8ff" stroke="#63b8ff" points="890.62,-159.77 881.4,-164.98 891.86,-166.66 890.62,-159.77"/>
</a>
</g>
</g>
<!-- Node25&#45;&gt;Node2 -->
<g id="edge54_Node000025_Node000002" class="edge">
<title>Node25&#45;&gt;Node2</title>
<g id="a_edge54_Node000025_Node000002"><a xlink:title=" ">
<path fill="none" stroke="#63b8ff" d="M565.95,-279.99C553.57,-270.99 538.92,-260.14 526,-250 496.68,-226.98 463.26,-198.33 446.97,-184.2"/>
<polygon fill="#63b8ff" stroke="#63b8ff" points="563.96,-282.86 574.12,-285.88 568.06,-277.19 563.96,-282.86"/>
</a>
</g>
</g>
<!-- Node25&#45;&gt;Node18 -->
<g id="edge64_Node000025_Node000018" class="edge">
<title>Node25&#45;&gt;Node18</title>
<g id="a_edge64_Node000025_Node000018"><a xlink:title=" ">
<path fill="none" stroke="#63b8ff" d="M666.7,-298.42C893.97,-292.51 1576,-267.16 1576,-175.5 1576,-175.5 1576,-175.5 1576,-118.5 1576,-56.93 1503.53,-30.42 1443.93,-19.03"/>
<polygon fill="#63b8ff" stroke="#63b8ff" points="666.46,-294.92 656.55,-298.68 666.63,-301.92 666.46,-294.92"/>
</a>
</g>
</g>
<!-- Node26 -->
<g id="Node000026" class="node">
<title>Node26</title>
<g id="a_Node000026"><a xlink:href="func__internal_8h.html" target="_top" xlink:title=" ">
<polygon fill="white" stroke="#666666" points="653.5,-244.5 534.5,-244.5 534.5,-225.5 653.5,-225.5 653.5,-244.5"/>
<text text-anchor="middle" x="594" y="-232.5" font-family="Helvetica,sans-Serif" font-size="10.00">client/func_internal.h</text>
</a>
</g>
</g>
<!-- Node25&#45;&gt;Node26 -->
<g id="edge55_Node000025_Node000026" class="edge">
<title>Node25&#45;&gt;Node26</title>
<g id="a_edge55_Node000025_Node000026"><a xlink:title=" ">
<path fill="none" stroke="#63b8ff" d="M594,-275.6C594,-264.8 594,-252.78 594,-244.84"/>
<polygon fill="#63b8ff" stroke="#63b8ff" points="590.5,-275.8 594,-285.8 597.5,-275.8 590.5,-275.8"/>
</a>
</g>
</g>
<!-- Node27 -->
<g id="Node000027" class="node">
<title>Node27</title>
<g id="a_Node000027"><a xlink:href="func_8h.html" target="_top" xlink:title=" ">
<polygon fill="white" stroke="#666666" points="270,-244.5 136,-244.5 136,-225.5 270,-225.5 270,-244.5"/>
<text text-anchor="middle" x="203" y="-232.5" font-family="Helvetica,sans-Serif" font-size="10.00">include/webcface/func.h</text>
</a>
</g>
</g>
<!-- Node25&#45;&gt;Node27 -->
<g id="edge57_Node000025_Node000027" class="edge">
<title>Node25&#45;&gt;Node27</title>
<g id="a_edge57_Node000025_Node000027"><a xlink:title=" ">
<path fill="none" stroke="#63b8ff" d="M521.02,-288.06C443.64,-275.39 323.34,-255.7 255.03,-244.52"/>
<polygon fill="#63b8ff" stroke="#63b8ff" points="520.75,-291.56 531.18,-289.72 521.88,-284.65 520.75,-291.56"/>
</a>
</g>
</g>
<!-- Node26&#45;&gt;Node2 -->
<g id="edge56_Node000026_Node000002" class="edge">
<title>Node26&#45;&gt;Node2</title>
<g id="a_edge56_Node000026_Node000002"><a xlink:title=" ">
<path fill="none" stroke="#63b8ff" d="M561.47,-221.88C531.12,-210.57 486.61,-193.99 459.86,-184.02"/>
<polygon fill="#63b8ff" stroke="#63b8ff" points="560.58,-225.28 571.17,-225.49 563.02,-218.72 560.58,-225.28"/>
</a>
</g>
</g>
<!-- Node27&#45;&gt;Node3 -->
<g id="edge58_Node000027_Node000003" class="edge">
<title>Node27&#45;&gt;Node3</title>
<g id="a_edge58_Node000027_Node000003"><a xlink:title=" ">
<path fill="none" stroke="#63b8ff" d="M143.41,-223.42C101.95,-214.72 51.88,-201.07 39,-184 19.19,-157.75 17.93,-136.06 38,-110 96.34,-34.23 151.75,-71.16 246,-55 431.81,-23.15 657.08,-13.96 750.34,-11.42"/>
<polygon fill="#63b8ff" stroke="#63b8ff" points="142.97,-226.9 153.47,-225.47 144.37,-220.05 142.97,-226.9"/>
</a>
</g>
</g>
<!-- Node27&#45;&gt;Node6 -->
<g id="edge59_Node000027_Node000006" class="edge">
<title>Node27&#45;&gt;Node6</title>
<g id="a_edge59_Node000027_Node000006"><a xlink:title=" ">
<path fill="none" stroke="#63b8ff" d="M192.86,-216.82C178.32,-192.19 152.11,-147.79 141.09,-129.13"/>
<polygon fill="#63b8ff" stroke="#63b8ff" points="189.87,-218.64 197.96,-225.47 195.89,-215.08 189.87,-218.64"/>
</a>
</g>
</g>
<!-- Node27&#45;&gt;Node17 -->
<g id="edge60_Node000027_Node000017" class="edge">
<title>Node27&#45;&gt;Node17</title>
<g id="a_edge60_Node000027_Node000017"><a xlink:title=" ">
<path fill="none" stroke="#63b8ff" d="M149.81,-223.15C111.53,-214.14 64.68,-200.2 53,-184 33.77,-157.32 31.59,-134.97 53,-110 67.04,-93.63 190.13,-79.32 270.78,-71.6"/>
<polygon fill="#63b8ff" stroke="#63b8ff" points="149.31,-226.62 159.83,-225.45 150.87,-219.8 149.31,-226.62"/>
</a>
</g>
</g>
<!-- Node27&#45;&gt;Node18 -->
<g id="edge63_Node000027_Node000018" class="edge">
<title>Node27&#45;&gt;Node18</title>
<g id="a_edge63_Node000027_Node000018"><a xlink:title=" ">
<path fill="none" stroke="#63b8ff" d="M174.71,-221.09C129.12,-198.63 48.18,-150.87 86,-110 96.26,-98.91 1007.45,-35.27 1286.62,-16.02"/>
<polygon fill="#63b8ff" stroke="#63b8ff" points="173.31,-224.3 183.84,-225.48 176.35,-217.99 173.31,-224.3"/>
</a>
</g>
</g>
<!-- Node27&#45;&gt;Node20 -->
<g id="edge61_Node000027_Node000020" class="edge">
<title>Node27&#45;&gt;Node20</title>
<g id="a_edge61_Node000027_Node000020"><a xlink:title=" ">
<path fill="none" stroke="#63b8ff" d="M280.25,-227.87C343.05,-221.36 433.31,-208.48 509,-184 526.97,-178.19 528.79,-170 547,-165 760.13,-106.46 822.78,-147.87 1043,-129 1045.84,-128.76 1048.73,-128.5 1051.65,-128.24"/>
<polygon fill="#63b8ff" stroke="#63b8ff" points="279.62,-224.42 270.02,-228.9 280.32,-231.38 279.62,-224.42"/>
</a>
</g>
</g>
<!-- Node27&#45;&gt;Node24 -->
<g id="edge62_Node000027_Node000024" class="edge">
<title>Node27&#45;&gt;Node24</title>
<g id="a_edge62_Node000027_Node000024"><a xlink:title=" ">
<path fill="none" stroke="#63b8ff" d="M280.44,-226.82C404.96,-215.28 647.65,-192.78 765.93,-181.81"/>
<polygon fill="#63b8ff" stroke="#63b8ff" points="279.86,-223.36 270.23,-227.77 280.51,-230.33 279.86,-223.36"/>
</a>
</g>
</g>
</g>
</svg>
