<?xml version="1.0" encoding="UTF-8" standalone="no"?>
<!DOCTYPE svg PUBLIC "-//W3C//DTD SVG 1.1//EN"
 "http://www.w3.org/Graphics/SVG/1.1/DTD/svg11.dtd">
<!-- Generated by graphviz version 2.43.0 (0)
 -->
<!-- Title: include/webcface/field.h Pages: 1 -->
<svg width="244pt" height="137pt"
 viewBox="0.00 0.00 243.50 137.00" xmlns="http://www.w3.org/2000/svg" xmlns:xlink="http://www.w3.org/1999/xlink">
<g id="graph0" class="graph" transform="scale(1 1) rotate(0) translate(4 133)">
<title>include/webcface/field.h</title>
<!-- Node1 -->
<g id="Node000001" class="node">
<title>Node1</title>
<g id="a_Node000001"><a xlink:title=" ">
<polygon fill="#999999" stroke="#666666" points="153,-129 19,-129 19,-110 153,-110 153,-129"/>
<text text-anchor="middle" x="86" y="-117" font-family="Helvetica,sans-Serif" font-size="10.00">include/webcface/field.h</text>
</a>
</g>
</g>
<!-- Node2 -->
<g id="Node000002" class="node">
<title>Node2</title>
<g id="a_Node000002"><a xlink:title=" ">
<polygon fill="#e0e0e0" stroke="#999999" points="58,-74 0,-74 0,-55 58,-55 58,-74"/>
<text text-anchor="middle" x="29" y="-62" font-family="Helvetica,sans-Serif" font-size="10.00">memory</text>
</a>
</g>
</g>
<!-- Node1&#45;&gt;Node2 -->
<g id="edge1_Node000001_Node000002" class="edge">
<title>Node1&#45;&gt;Node2</title>
<g id="a_edge1_Node000001_Node000002"><a xlink:title=" ">
<path fill="none" stroke="#63b8ff" d="M76.84,-109.98C68.5,-102.23 55.97,-90.58 45.82,-81.14"/>
<polygon fill="#63b8ff" stroke="#63b8ff" points="48.03,-78.42 38.32,-74.17 43.26,-83.54 48.03,-78.42"/>
</a>
</g>
</g>
<!-- Node3 -->
<g id="Node000003" class="node">
<title>Node3</title>
<g id="a_Node000003"><a xlink:title=" ">
<polygon fill="#e0e0e0" stroke="#999999" points="152,-19 108,-19 108,0 152,0 152,-19"/>
<text text-anchor="middle" x="130" y="-7" font-family="Helvetica,sans-Serif" font-size="10.00">string</text>
</a>
</g>
</g>
<!-- Node1&#45;&gt;Node3 -->
<g id="edge2_Node000001_Node000003" class="edge">
<title>Node1&#45;&gt;Node3</title>
<g id="a_edge2_Node000001_Node000003"><a xlink:title=" ">
<path fill="none" stroke="#63b8ff" d="M88.21,-109.69C91.45,-97.25 97.99,-73.95 106,-55 109.89,-45.8 115.06,-35.99 119.6,-27.93"/>
<polygon fill="#63b8ff" stroke="#63b8ff" points="122.72,-29.53 124.71,-19.12 116.67,-26.02 122.72,-29.53"/>
</a>
</g>
</g>
<!-- Node4 -->
<g id="Node000004" class="node">
<title>Node4</title>
<g id="a_Node000004"><a xlink:href="field__base_8h.html" target="_top" xlink:title=" ">
<polygon fill="white" stroke="#666666" points="235.5,-74 114.5,-74 114.5,-55 235.5,-55 235.5,-74"/>
<text text-anchor="middle" x="175" y="-62" font-family="Helvetica,sans-Serif" font-size="10.00">common/field_base.h</text>
</a>
</g>
</g>
<!-- Node1&#45;&gt;Node4 -->
<g id="edge3_Node000001_Node000004" class="edge">
<title>Node1&#45;&gt;Node4</title>
<g id="a_edge3_Node000001_Node000004"><a xlink:title=" ">
<path fill="none" stroke="#63b8ff" d="M100.3,-109.98C114.1,-101.77 135.24,-89.18 151.51,-79.49"/>
<polygon fill="#63b8ff" stroke="#63b8ff" points="153.64,-82.29 160.44,-74.17 150.06,-76.28 153.64,-82.29"/>
</a>
</g>
</g>
<!-- Node4&#45;&gt;Node3 -->
<g id="edge4_Node000004_Node000003" class="edge">
<title>Node4&#45;&gt;Node3</title>
<g id="a_edge4_Node000004_Node000003"><a xlink:title=" ">
<path fill="none" stroke="#63b8ff" d="M167.57,-54.75C161.15,-47.18 151.69,-36.05 143.88,-26.84"/>
<polygon fill="#63b8ff" stroke="#63b8ff" points="146.43,-24.45 137.29,-19.09 141.1,-28.98 146.43,-24.45"/>
</a>
</g>
</g>
</g>
</svg>
