<?xml version="1.0" encoding="UTF-8" standalone="no"?>
<!DOCTYPE svg PUBLIC "-//W3C//DTD SVG 1.1//EN"
 "http://www.w3.org/Graphics/SVG/1.1/DTD/svg11.dtd">
<!-- Generated by graphviz version 2.43.0 (0)
 -->
<!-- Title: include/webcface/field.h Pages: 1 -->
<svg width="460pt" height="247pt"
 viewBox="0.00 0.00 459.50 247.00" xmlns="http://www.w3.org/2000/svg" xmlns:xlink="http://www.w3.org/1999/xlink">
<g id="graph0" class="graph" transform="scale(1 1) rotate(0) translate(4 243)">
<title>include/webcface/field.h</title>
<!-- Node1 -->
<g id="Node000001" class="node">
<title>Node1</title>
<g id="a_Node000001"><a xlink:title=" ">
<polygon fill="#999999" stroke="#666666" points="331,-239 197,-239 197,-220 331,-220 331,-239"/>
<text text-anchor="middle" x="264" y="-227" font-family="Helvetica,sans-Serif" font-size="10.00">include/webcface/field.h</text>
</a>
</g>
</g>
<!-- Node2 -->
<g id="Node000002" class="node">
<title>Node2</title>
<g id="a_Node000002"><a xlink:title=" ">
<polygon fill="#e0e0e0" stroke="#999999" points="58,-184 0,-184 0,-165 58,-165 58,-184"/>
<text text-anchor="middle" x="29" y="-172" font-family="Helvetica,sans-Serif" font-size="10.00">memory</text>
</a>
</g>
</g>
<!-- Node1&#45;&gt;Node2 -->
<g id="edge1_Node000001_Node000002" class="edge">
<title>Node1&#45;&gt;Node2</title>
<g id="a_edge1_Node000001_Node000002"><a xlink:title=" ">
<path fill="none" stroke="#63b8ff" d="M226.24,-219.98C182.88,-210.21 112.09,-194.24 68.15,-184.33"/>
<polygon fill="#63b8ff" stroke="#63b8ff" points="68.65,-180.85 58.13,-182.07 67.11,-187.68 68.65,-180.85"/>
</a>
</g>
</g>
<!-- Node3 -->
<g id="Node000003" class="node">
<title>Node3</title>
<g id="a_Node000003"><a xlink:title=" ">
<polygon fill="#e0e0e0" stroke="#999999" points="146,-74 102,-74 102,-55 146,-55 146,-74"/>
<text text-anchor="middle" x="124" y="-62" font-family="Helvetica,sans-Serif" font-size="10.00">string</text>
</a>
</g>
</g>
<!-- Node1&#45;&gt;Node3 -->
<g id="edge2_Node000001_Node000003" class="edge">
<title>Node1&#45;&gt;Node3</title>
<g id="a_edge2_Node000001_Node000003"><a xlink:title=" ">
<path fill="none" stroke="#63b8ff" d="M207.33,-220C166.9,-212.63 117.56,-200.56 105,-184 82.53,-154.38 100.61,-108.49 113.63,-83.39"/>
<polygon fill="#63b8ff" stroke="#63b8ff" points="116.88,-84.75 118.61,-74.3 110.74,-81.39 116.88,-84.75"/>
</a>
</g>
</g>
<!-- Node4 -->
<g id="Node000004" class="node">
<title>Node4</title>
<g id="a_Node000004"><a xlink:title=" ">
<polygon fill="#e0e0e0" stroke="#999999" points="410.5,-74 337.5,-74 337.5,-55 410.5,-55 410.5,-74"/>
<text text-anchor="middle" x="374" y="-62" font-family="Helvetica,sans-Serif" font-size="10.00">string_view</text>
</a>
</g>
</g>
<!-- Node1&#45;&gt;Node4 -->
<g id="edge3_Node000001_Node000004" class="edge">
<title>Node1&#45;&gt;Node4</title>
<g id="a_edge3_Node000001_Node000004"><a xlink:title=" ">
<path fill="none" stroke="#63b8ff" d="M280.46,-219.88C293.99,-212.08 312.85,-199.46 325,-184 349.22,-153.19 363.3,-108.72 369.73,-83.94"/>
<polygon fill="#63b8ff" stroke="#63b8ff" points="373.17,-84.61 372.16,-74.07 366.38,-82.94 373.17,-84.61"/>
</a>
</g>
</g>
<!-- Node5 -->
<g id="Node000005" class="node">
<title>Node5</title>
<g id="a_Node000005"><a xlink:title=" ">
<polygon fill="#e0e0e0" stroke="#999999" points="451.5,-184 404.5,-184 404.5,-165 451.5,-165 451.5,-184"/>
<text text-anchor="middle" x="428" y="-172" font-family="Helvetica,sans-Serif" font-size="10.00">vector</text>
</a>
</g>
</g>
<!-- Node1&#45;&gt;Node5 -->
<g id="edge4_Node000001_Node000005" class="edge">
<title>Node1&#45;&gt;Node5</title>
<g id="a_edge4_Node000001_Node000005"><a xlink:title=" ">
<path fill="none" stroke="#63b8ff" d="M290.35,-219.98C318.66,-210.84 363.72,-196.27 394.52,-186.32"/>
<polygon fill="#63b8ff" stroke="#63b8ff" points="395.94,-189.54 404.38,-183.13 393.79,-182.88 395.94,-189.54"/>
</a>
</g>
</g>
<!-- Node6 -->
<g id="Node000006" class="node">
<title>Node6</title>
<g id="a_Node000006"><a xlink:href="field__base_8h.html" target="_top" xlink:title=" ">
<polygon fill="white" stroke="#666666" points="235.5,-184 114.5,-184 114.5,-165 235.5,-165 235.5,-184"/>
<text text-anchor="middle" x="175" y="-172" font-family="Helvetica,sans-Serif" font-size="10.00">common/field_base.h</text>
</a>
</g>
</g>
<!-- Node1&#45;&gt;Node6 -->
<g id="edge5_Node000001_Node000006" class="edge">
<title>Node1&#45;&gt;Node6</title>
<g id="a_edge5_Node000001_Node000006"><a xlink:title=" ">
<path fill="none" stroke="#63b8ff" d="M249.7,-219.98C235.9,-211.77 214.76,-199.18 198.49,-189.49"/>
<polygon fill="#63b8ff" stroke="#63b8ff" points="199.94,-186.28 189.56,-184.17 196.36,-192.29 199.94,-186.28"/>
</a>
</g>
</g>
<!-- Node7 -->
<g id="Node000007" class="node">
<title>Node7</title>
<g id="a_Node000007"><a xlink:href="def_8h.html" target="_top" xlink:title=" ">
<polygon fill="white" stroke="#666666" points="318,-74 182,-74 182,-55 318,-55 318,-74"/>
<text text-anchor="middle" x="250" y="-62" font-family="Helvetica,sans-Serif" font-size="10.00">webcface/common/def.h</text>
</a>
</g>
</g>
<!-- Node1&#45;&gt;Node7 -->
<g id="edge14_Node000001_Node000007" class="edge">
<title>Node1&#45;&gt;Node7</title>
<g id="a_edge14_Node000001_Node000007"><a xlink:title=" ">
<path fill="none" stroke="#63b8ff" d="M273.4,-219.98C294,-200.23 339.61,-149.97 318,-110 310.42,-95.98 296.3,-85.67 282.87,-78.53"/>
<polygon fill="#63b8ff" stroke="#63b8ff" points="284.3,-75.33 273.78,-74.08 281.23,-81.62 284.3,-75.33"/>
</a>
</g>
</g>
<!-- Node9 -->
<g id="Node000009" class="node">
<title>Node9</title>
<g id="a_Node000009"><a xlink:href="encoding_8h.html" target="_top" xlink:title=" ">
<polygon fill="white" stroke="#666666" points="309.5,-129 190.5,-129 190.5,-110 309.5,-110 309.5,-129"/>
<text text-anchor="middle" x="250" y="-117" font-family="Helvetica,sans-Serif" font-size="10.00">webcface/encoding.h</text>
</a>
</g>
</g>
<!-- Node1&#45;&gt;Node9 -->
<g id="edge13_Node000001_Node000009" class="edge">
<title>Node1&#45;&gt;Node9</title>
<g id="a_edge13_Node000001_Node000009"><a xlink:title=" ">
<path fill="none" stroke="#63b8ff" d="M262.85,-219.66C260.59,-202.17 255.48,-162.8 252.43,-139.27"/>
<polygon fill="#63b8ff" stroke="#63b8ff" points="255.88,-138.63 251.12,-129.16 248.94,-139.53 255.88,-138.63"/>
</a>
</g>
</g>
<!-- Node6&#45;&gt;Node3 -->
<g id="edge6_Node000006_Node000003" class="edge">
<title>Node6&#45;&gt;Node3</title>
<g id="a_edge6_Node000006_Node000003"><a xlink:title=" ">
<path fill="none" stroke="#63b8ff" d="M169.13,-164.9C163.3,-156.13 154.33,-142 148,-129 140.82,-114.27 134.36,-96.8 129.95,-83.92"/>
<polygon fill="#63b8ff" stroke="#63b8ff" points="133.25,-82.72 126.77,-74.34 126.6,-84.93 133.25,-82.72"/>
</a>
</g>
</g>
<!-- Node6&#45;&gt;Node7 -->
<g id="edge7_Node000006_Node000007" class="edge">
<title>Node6&#45;&gt;Node7</title>
<g id="a_edge7_Node000006_Node000007"><a xlink:title=" ">
<path fill="none" stroke="#63b8ff" d="M173.59,-164.97C171.92,-152.05 170.53,-127.22 181,-110 189.42,-96.14 203.98,-85.82 217.56,-78.62"/>
<polygon fill="#63b8ff" stroke="#63b8ff" points="219.28,-81.67 226.72,-74.13 216.2,-75.38 219.28,-81.67"/>
</a>
</g>
</g>
<!-- Node6&#45;&gt;Node9 -->
<g id="edge9_Node000006_Node000009" class="edge">
<title>Node6&#45;&gt;Node9</title>
<g id="a_edge9_Node000006_Node000009"><a xlink:title=" ">
<path fill="none" stroke="#63b8ff" d="M187.05,-164.98C198.46,-156.92 215.83,-144.65 229.43,-135.03"/>
<polygon fill="#63b8ff" stroke="#63b8ff" points="231.58,-137.8 237.73,-129.17 227.54,-132.08 231.58,-137.8"/>
</a>
</g>
</g>
<!-- Node8 -->
<g id="Node000008" class="node">
<title>Node8</title>
<g id="a_Node000008"><a xlink:href="macros_8h.html" target="_top" xlink:title=" ">
<polygon fill="white" stroke="#666666" points="328.5,-19 171.5,-19 171.5,0 328.5,0 328.5,-19"/>
<text text-anchor="middle" x="250" y="-7" font-family="Helvetica,sans-Serif" font-size="10.00">webcface/common/macros.h</text>
</a>
</g>
</g>
<!-- Node7&#45;&gt;Node8 -->
<g id="edge8_Node000007_Node000008" class="edge">
<title>Node7&#45;&gt;Node8</title>
<g id="a_edge8_Node000007_Node000008"><a xlink:title=" ">
<path fill="none" stroke="#63b8ff" d="M250,-54.75C250,-47.8 250,-37.85 250,-29.13"/>
<polygon fill="#63b8ff" stroke="#63b8ff" points="253.5,-29.09 250,-19.09 246.5,-29.09 253.5,-29.09"/>
</a>
</g>
</g>
<!-- Node9&#45;&gt;Node3 -->
<g id="edge10_Node000009_Node000003" class="edge">
<title>Node9&#45;&gt;Node3</title>
<g id="a_edge10_Node000009_Node000003"><a xlink:title=" ">
<path fill="none" stroke="#63b8ff" d="M229.76,-109.98C209.3,-101.38 177.47,-87.99 154.07,-78.15"/>
<polygon fill="#63b8ff" stroke="#63b8ff" points="155.19,-74.82 144.61,-74.17 152.47,-81.27 155.19,-74.82"/>
</a>
</g>
</g>
<!-- Node9&#45;&gt;Node4 -->
<g id="edge11_Node000009_Node000004" class="edge">
<title>Node9&#45;&gt;Node4</title>
<g id="a_edge11_Node000009_Node000004"><a xlink:title=" ">
<path fill="none" stroke="#63b8ff" d="M269.92,-109.98C290.05,-101.38 321.38,-87.99 344.41,-78.15"/>
<polygon fill="#63b8ff" stroke="#63b8ff" points="345.9,-81.32 353.71,-74.17 343.14,-74.88 345.9,-81.32"/>
</a>
</g>
</g>
<!-- Node9&#45;&gt;Node7 -->
<g id="edge12_Node000009_Node000007" class="edge">
<title>Node9&#45;&gt;Node7</title>
<g id="a_edge12_Node000009_Node000007"><a xlink:title=" ">
<path fill="none" stroke="#63b8ff" d="M250,-109.75C250,-102.8 250,-92.85 250,-84.13"/>
<polygon fill="#63b8ff" stroke="#63b8ff" points="253.5,-84.09 250,-74.09 246.5,-84.09 253.5,-84.09"/>
</a>
</g>
</g>
</g>
</svg>
