<?xml version="1.0" encoding="UTF-8" standalone="no"?>
<!DOCTYPE svg PUBLIC "-//W3C//DTD SVG 1.1//EN"
 "http://www.w3.org/Graphics/SVG/1.1/DTD/svg11.dtd">
<!-- Generated by graphviz version 2.43.0 (0)
 -->
<!-- Title: include/webcface/field.h Pages: 1 -->
<svg width="958pt" height="500pt"
 viewBox="0.00 0.00 958.00 500.00" xmlns="http://www.w3.org/2000/svg" xmlns:xlink="http://www.w3.org/1999/xlink">
<g id="graph0" class="graph" transform="scale(1 1) rotate(0) translate(4 496)">
<title>include/webcface/field.h</title>
<!-- Node1 -->
<g id="Node000001" class="node">
<title>Node1</title>
<g id="a_Node000001"><a xlink:title=" ">
<polygon fill="#999999" stroke="#666666" points="456,-492 322,-492 322,-473 456,-473 456,-492"/>
<text text-anchor="middle" x="389" y="-480" font-family="Helvetica,sans-Serif" font-size="10.00">include/webcface/field.h</text>
</a>
</g>
</g>
<!-- Node2 -->
<g id="Node000002" class="node">
<title>Node2</title>
<g id="a_Node000002"><a xlink:href="field_8cc.html" target="_top" xlink:title=" ">
<polygon fill="white" stroke="#666666" points="377.5,-184 296.5,-184 296.5,-165 377.5,-165 377.5,-184"/>
<text text-anchor="middle" x="337" y="-172" font-family="Helvetica,sans-Serif" font-size="10.00">client/field.cc</text>
</a>
</g>
</g>
<!-- Node1&#45;&gt;Node2 -->
<g id="edge1_Node000001_Node000002" class="edge">
<title>Node1&#45;&gt;Node2</title>
<g id="a_edge1_Node000001_Node000002"><a xlink:title=" ">
<path fill="none" stroke="#63b8ff" d="M311.79,-472.21C268.38,-465.23 220.28,-453.91 207,-437 137.97,-349.06 284.3,-218.61 326.21,-184.12"/>
<polygon fill="#63b8ff" stroke="#63b8ff" points="311.42,-475.69 321.84,-473.77 312.49,-468.78 311.42,-475.69"/>
</a>
</g>
</g>
<!-- Node3 -->
<g id="Node000003" class="node">
<title>Node3</title>
<g id="a_Node000003"><a xlink:href="client__data_8h.html" target="_top" xlink:title=" ">
<polygon fill="white" stroke="#666666" points="603.5,-250 472.5,-250 472.5,-220 603.5,-220 603.5,-250"/>
<text text-anchor="start" x="480.5" y="-238" font-family="Helvetica,sans-Serif" font-size="10.00">include/webcface/client</text>
<text text-anchor="middle" x="538" y="-227" font-family="Helvetica,sans-Serif" font-size="10.00">_data.h</text>
</a>
</g>
</g>
<!-- Node1&#45;&gt;Node3 -->
<g id="edge2_Node000001_Node000003" class="edge">
<title>Node1&#45;&gt;Node3</title>
<g id="a_edge2_Node000001_Node000003"><a xlink:title=" ">
<path fill="none" stroke="#63b8ff" d="M420.57,-469.06C471.46,-447.03 569.89,-395.84 609,-316 614.87,-304.03 615.14,-297.84 609,-286 600.81,-270.21 585.08,-258.35 570.51,-250.16"/>
<polygon fill="#63b8ff" stroke="#63b8ff" points="419.2,-465.83 411.35,-472.95 421.92,-472.28 419.2,-465.83"/>
</a>
</g>
</g>
<!-- Node10 -->
<g id="Node000010" class="node">
<title>Node10</title>
<g id="a_Node000010"><a xlink:href="webcface_8h.html" target="_top" xlink:title=" ">
<polygon fill="white" stroke="#666666" points="878,-19 718,-19 718,0 878,0 878,-19"/>
<text text-anchor="middle" x="798" y="-7" font-family="Helvetica,sans-Serif" font-size="10.00">include/webcface/webcface.h</text>
</a>
</g>
</g>
<!-- Node1&#45;&gt;Node10 -->
<g id="edge45_Node000001_Node000010" class="edge">
<title>Node1&#45;&gt;Node10</title>
<g id="a_edge45_Node000001_Node000010"><a xlink:title=" ">
<path fill="none" stroke="#63b8ff" d="M466.44,-481.04C620.34,-478.04 950,-460.19 950,-362.5 950,-362.5 950,-362.5 950,-118.5 950,-61.85 878.97,-32.18 834.02,-19.08"/>
<polygon fill="#63b8ff" stroke="#63b8ff" points="466.05,-477.55 456.11,-481.23 466.17,-484.55 466.05,-477.55"/>
</a>
</g>
</g>
<!-- Node11 -->
<g id="Node000011" class="node">
<title>Node11</title>
<g id="a_Node000011"><a xlink:href="data_8h.html" target="_top" xlink:title=" ">
<polygon fill="white" stroke="#666666" points="239.5,-184 104.5,-184 104.5,-165 239.5,-165 239.5,-184"/>
<text text-anchor="middle" x="172" y="-172" font-family="Helvetica,sans-Serif" font-size="10.00">include/webcface/data.h</text>
</a>
</g>
</g>
<!-- Node1&#45;&gt;Node11 -->
<g id="edge28_Node000001_Node000011" class="edge">
<title>Node1&#45;&gt;Node11</title>
<g id="a_edge28_Node000001_Node000011"><a xlink:title=" ">
<path fill="none" stroke="#63b8ff" d="M313.74,-471.45C210.61,-455.53 38,-420.26 38,-362.5 38,-362.5 38,-362.5 38,-300 38,-239.66 111.81,-200.31 149.87,-184.03"/>
<polygon fill="#63b8ff" stroke="#63b8ff" points="313.39,-474.94 323.8,-472.97 314.44,-468.01 313.39,-474.94"/>
</a>
</g>
</g>
<!-- Node15 -->
<g id="Node000015" class="node">
<title>Node15</title>
<g id="a_Node000015"><a xlink:href="event__target_8h.html" target="_top" xlink:title=" ">
<polygon fill="white" stroke="#666666" points="348,-437 216,-437 216,-407 348,-407 348,-437"/>
<text text-anchor="start" x="224" y="-425" font-family="Helvetica,sans-Serif" font-size="10.00">include/webcface/event</text>
<text text-anchor="middle" x="282" y="-414" font-family="Helvetica,sans-Serif" font-size="10.00">_target.h</text>
</a>
</g>
</g>
<!-- Node1&#45;&gt;Node15 -->
<g id="edge29_Node000001_Node000015" class="edge">
<title>Node1&#45;&gt;Node15</title>
<g id="a_edge29_Node000001_Node000015"><a xlink:title=" ">
<path fill="none" stroke="#63b8ff" d="M363.97,-467.81C347.08,-458.58 324.86,-446.43 307.82,-437.11"/>
<polygon fill="#63b8ff" stroke="#63b8ff" points="362.76,-471.14 373.21,-472.87 366.12,-465 362.76,-471.14"/>
</a>
</g>
</g>
<!-- Node16 -->
<g id="Node000016" class="node">
<title>Node16</title>
<g id="a_Node000016"><a xlink:href="member_8h.html" target="_top" xlink:title=" ">
<polygon fill="white" stroke="#666666" points="466,-371 312,-371 312,-352 466,-352 466,-371"/>
<text text-anchor="middle" x="389" y="-359" font-family="Helvetica,sans-Serif" font-size="10.00">include/webcface/member.h</text>
</a>
</g>
</g>
<!-- Node1&#45;&gt;Node16 -->
<g id="edge44_Node000001_Node000016" class="edge">
<title>Node1&#45;&gt;Node16</title>
<g id="a_edge44_Node000001_Node000016"><a xlink:title=" ">
<path fill="none" stroke="#63b8ff" d="M389,-462.86C389,-436.81 389,-390.56 389,-371.3"/>
<polygon fill="#63b8ff" stroke="#63b8ff" points="385.5,-462.94 389,-472.94 392.5,-462.94 385.5,-462.94"/>
</a>
</g>
</g>
<!-- Node17 -->
<g id="Node000017" class="node">
<title>Node17</title>
<g id="a_Node000017"><a xlink:href="func__result_8h.html" target="_top" xlink:title=" ">
<polygon fill="white" stroke="#666666" points="600.5,-316 475.5,-316 475.5,-286 600.5,-286 600.5,-316"/>
<text text-anchor="start" x="483.5" y="-304" font-family="Helvetica,sans-Serif" font-size="10.00">include/webcface/func</text>
<text text-anchor="middle" x="538" y="-293" font-family="Helvetica,sans-Serif" font-size="10.00">_result.h</text>
</a>
</g>
</g>
<!-- Node1&#45;&gt;Node17 -->
<g id="edge43_Node000001_Node000017" class="edge">
<title>Node1&#45;&gt;Node17</title>
<g id="a_edge43_Node000001_Node000017"><a xlink:title=" ">
<path fill="none" stroke="#63b8ff" d="M402.69,-465.01C431.7,-430.06 498.93,-349.07 526.2,-316.22"/>
<polygon fill="#63b8ff" stroke="#63b8ff" points="399.88,-462.91 396.19,-472.84 405.27,-467.38 399.88,-462.91"/>
</a>
</g>
</g>
<!-- Node3&#45;&gt;Node2 -->
<g id="edge4_Node000003_Node000002" class="edge">
<title>Node3&#45;&gt;Node2</title>
<g id="a_edge4_Node000003_Node000002"><a xlink:title=" ">
<path fill="none" stroke="#63b8ff" d="M480.13,-217.16C442.92,-206.33 396.13,-192.71 366.39,-184.05"/>
<polygon fill="#63b8ff" stroke="#63b8ff" points="479.28,-220.55 489.86,-219.99 481.23,-213.83 479.28,-220.55"/>
</a>
</g>
</g>
<!-- Node4 -->
<g id="Node000004" class="node">
<title>Node4</title>
<g id="a_Node000004"><a xlink:href="client__data_8cc.html" target="_top" xlink:title=" ">
<polygon fill="white" stroke="#666666" points="662,-184 548,-184 548,-165 662,-165 662,-184"/>
<text text-anchor="middle" x="605" y="-172" font-family="Helvetica,sans-Serif" font-size="10.00">client/client_data.cc</text>
</a>
</g>
</g>
<!-- Node3&#45;&gt;Node4 -->
<g id="edge3_Node000003_Node000004" class="edge">
<title>Node3&#45;&gt;Node4</title>
<g id="a_edge3_Node000003_Node000004"><a xlink:title=" ">
<path fill="none" stroke="#63b8ff" d="M561.77,-213.24C573.17,-203.29 586.21,-191.91 594.96,-184.27"/>
<polygon fill="#63b8ff" stroke="#63b8ff" points="559.45,-210.63 554.22,-219.84 564.05,-215.9 559.45,-210.63"/>
</a>
</g>
</g>
<!-- Node5 -->
<g id="Node000005" class="node">
<title>Node5</title>
<g id="a_Node000005"><a xlink:href="logger_8cc.html" target="_top" xlink:title=" ">
<polygon fill="white" stroke="#666666" points="770,-184 680,-184 680,-165 770,-165 770,-184"/>
<text text-anchor="middle" x="725" y="-172" font-family="Helvetica,sans-Serif" font-size="10.00">client/logger.cc</text>
</a>
</g>
</g>
<!-- Node3&#45;&gt;Node5 -->
<g id="edge5_Node000003_Node000005" class="edge">
<title>Node3&#45;&gt;Node5</title>
<g id="a_edge5_Node000003_Node000005"><a xlink:title=" ">
<path fill="none" stroke="#63b8ff" d="M592.73,-216.88C627.2,-206.09 670.22,-192.64 697.66,-184.05"/>
<polygon fill="#63b8ff" stroke="#63b8ff" points="591.29,-213.66 582.79,-219.99 593.38,-220.34 591.29,-213.66"/>
</a>
</g>
</g>
<!-- Node6 -->
<g id="Node000006" class="node">
<title>Node6</title>
<g id="a_Node000006"><a xlink:href="member_8cc.html" target="_top" xlink:title=" ">
<polygon fill="white" stroke="#666666" points="145.5,-19 44.5,-19 44.5,0 145.5,0 145.5,-19"/>
<text text-anchor="middle" x="95" y="-7" font-family="Helvetica,sans-Serif" font-size="10.00">client/member.cc</text>
</a>
</g>
</g>
<!-- Node3&#45;&gt;Node6 -->
<g id="edge6_Node000003_Node000006" class="edge">
<title>Node3&#45;&gt;Node6</title>
<g id="a_edge6_Node000003_Node000006"><a xlink:title=" ">
<path fill="none" stroke="#63b8ff" d="M461.8,-230.83C341.57,-225.05 118.96,-210.81 95,-184 52.05,-135.93 80.91,-46.99 91.53,-19.1"/>
<polygon fill="#63b8ff" stroke="#63b8ff" points="461.89,-234.34 472.05,-231.32 462.22,-227.35 461.89,-234.34"/>
</a>
</g>
</g>
<!-- Node7 -->
<g id="Node000007" class="node">
<title>Node7</title>
<g id="a_Node000007"><a xlink:href="client_8h.html" target="_top" xlink:title=" ">
<polygon fill="white" stroke="#666666" points="688,-74 548,-74 548,-55 688,-55 688,-74"/>
<text text-anchor="middle" x="618" y="-62" font-family="Helvetica,sans-Serif" font-size="10.00">include/webcface/client.h</text>
</a>
</g>
</g>
<!-- Node3&#45;&gt;Node7 -->
<g id="edge7_Node000003_Node000007" class="edge">
<title>Node3&#45;&gt;Node7</title>
<g id="a_edge7_Node000003_Node000007"><a xlink:title=" ">
<path fill="none" stroke="#63b8ff" d="M534.59,-209.77C533.6,-196.22 533.92,-179.25 539,-165 553.09,-125.53 589.78,-89.84 607.76,-74.06"/>
<polygon fill="#63b8ff" stroke="#63b8ff" points="531.12,-210.18 535.6,-219.78 538.08,-209.48 531.12,-210.18"/>
</a>
</g>
</g>
<!-- Node3&#45;&gt;Node10 -->
<g id="edge27_Node000003_Node000010" class="edge">
<title>Node3&#45;&gt;Node10</title>
<g id="a_edge27_Node000003_Node000010"><a xlink:title=" ">
<path fill="none" stroke="#63b8ff" d="M613.86,-227.88C676,-221.2 757.12,-208.08 779,-184 822.61,-136.01 806.59,-47.01 800.16,-19.1"/>
<polygon fill="#63b8ff" stroke="#63b8ff" points="613.25,-224.43 603.67,-228.94 613.98,-231.39 613.25,-224.43"/>
</a>
</g>
</g>
<!-- Node3&#45;&gt;Node11 -->
<g id="edge11_Node000003_Node000011" class="edge">
<title>Node3&#45;&gt;Node11</title>
<g id="a_edge11_Node000003_Node000011"><a xlink:title=" ">
<path fill="none" stroke="#63b8ff" d="M461.96,-221.85C391.27,-210.55 287.77,-194 225.44,-184.04"/>
<polygon fill="#63b8ff" stroke="#63b8ff" points="461.72,-225.35 472.14,-223.47 462.82,-218.44 461.72,-225.35"/>
</a>
</g>
</g>
<!-- Node14 -->
<g id="Node000014" class="node">
<title>Node14</title>
<g id="a_Node000014"><a xlink:href="view_8h.html" target="_top" xlink:title=" ">
<polygon fill="white" stroke="#666666" points="392,-74 256,-74 256,-55 392,-55 392,-74"/>
<text text-anchor="middle" x="324" y="-62" font-family="Helvetica,sans-Serif" font-size="10.00">include/webcface/view.h</text>
</a>
</g>
</g>
<!-- Node3&#45;&gt;Node14 -->
<g id="edge26_Node000003_Node000014" class="edge">
<title>Node3&#45;&gt;Node14</title>
<g id="a_edge26_Node000003_Node000014"><a xlink:title=" ">
<path fill="none" stroke="#63b8ff" d="M514.67,-213.08C498.91,-199.16 477.51,-180.62 458,-165 414.35,-130.04 360.35,-91.24 336.42,-74.26"/>
<polygon fill="#63b8ff" stroke="#63b8ff" points="512.55,-215.89 522.35,-219.91 517.2,-210.65 512.55,-215.89"/>
</a>
</g>
</g>
<!-- Node8 -->
<g id="Node000008" class="node">
<title>Node8</title>
<g id="a_Node000008"><a xlink:href="client_8cc.html" target="_top" xlink:title=" ">
<polygon fill="white" stroke="#666666" points="319.5,-19 232.5,-19 232.5,0 319.5,0 319.5,-19"/>
<text text-anchor="middle" x="276" y="-7" font-family="Helvetica,sans-Serif" font-size="10.00">client/client.cc</text>
</a>
</g>
</g>
<!-- Node7&#45;&gt;Node8 -->
<g id="edge8_Node000007_Node000008" class="edge">
<title>Node7&#45;&gt;Node8</title>
<g id="a_edge8_Node000007_Node000008"><a xlink:title=" ">
<path fill="none" stroke="#63b8ff" d="M552.82,-53.4C484.39,-42.79 378.7,-26.42 319.68,-17.27"/>
<polygon fill="#63b8ff" stroke="#63b8ff" points="552.63,-56.91 563.05,-54.98 553.71,-49.99 552.63,-56.91"/>
</a>
</g>
</g>
<!-- Node9 -->
<g id="Node000009" class="node">
<title>Node9</title>
<g id="a_Node000009"><a xlink:href="client__ws_8cc.html" target="_top" xlink:title=" ">
<polygon fill="white" stroke="#666666" points="671,-19 565,-19 565,0 671,0 671,-19"/>
<text text-anchor="middle" x="618" y="-7" font-family="Helvetica,sans-Serif" font-size="10.00">client/client_ws.cc</text>
</a>
</g>
</g>
<!-- Node7&#45;&gt;Node9 -->
<g id="edge9_Node000007_Node000009" class="edge">
<title>Node7&#45;&gt;Node9</title>
<g id="a_edge9_Node000007_Node000009"><a xlink:title=" ">
<path fill="none" stroke="#63b8ff" d="M618,-44.66C618,-35.93 618,-25.99 618,-19.09"/>
<polygon fill="#63b8ff" stroke="#63b8ff" points="614.5,-44.75 618,-54.75 621.5,-44.75 614.5,-44.75"/>
</a>
</g>
</g>
<!-- Node7&#45;&gt;Node10 -->
<g id="edge10_Node000007_Node000010" class="edge">
<title>Node7&#45;&gt;Node10</title>
<g id="a_edge10_Node000007_Node000010"><a xlink:title=" ">
<path fill="none" stroke="#63b8ff" d="M656.87,-52.06C690.51,-42.15 738.42,-28.04 768.85,-19.08"/>
<polygon fill="#63b8ff" stroke="#63b8ff" points="655.52,-48.8 646.92,-54.98 657.5,-55.52 655.52,-48.8"/>
</a>
</g>
</g>
<!-- Node11&#45;&gt;Node6 -->
<g id="edge13_Node000011_Node000006" class="edge">
<title>Node11&#45;&gt;Node6</title>
<g id="a_edge13_Node000011_Node000006"><a xlink:title=" ">
<path fill="none" stroke="#63b8ff" d="M157.48,-157.02C150.9,-148.97 143.41,-138.9 138,-129 116.9,-90.4 102.43,-39.36 97.18,-19.21"/>
<polygon fill="#63b8ff" stroke="#63b8ff" points="154.98,-159.48 164.11,-164.86 160.32,-154.96 154.98,-159.48"/>
</a>
</g>
</g>
<!-- Node11&#45;&gt;Node8 -->
<g id="edge12_Node000011_Node000008" class="edge">
<title>Node11&#45;&gt;Node8</title>
<g id="a_edge12_Node000011_Node000008"><a xlink:title=" ">
<path fill="none" stroke="#63b8ff" d="M175.09,-154.68C177.77,-141.59 182.43,-124.04 190,-110 210.7,-71.61 248.38,-35.12 266.19,-19.06"/>
<polygon fill="#63b8ff" stroke="#63b8ff" points="171.59,-154.37 173.23,-164.83 178.48,-155.63 171.59,-154.37"/>
</a>
</g>
</g>
<!-- Node11&#45;&gt;Node10 -->
<g id="edge25_Node000011_Node000010" class="edge">
<title>Node11&#45;&gt;Node10</title>
<g id="a_edge25_Node000011_Node000010"><a xlink:title=" ">
<path fill="none" stroke="#63b8ff" d="M249.87,-167.85C354.63,-158.24 545.33,-133.57 697,-74 732.67,-59.99 769.53,-33.07 787.23,-19.21"/>
<polygon fill="#63b8ff" stroke="#63b8ff" points="249.34,-164.39 239.69,-168.76 249.96,-171.36 249.34,-164.39"/>
</a>
</g>
</g>
<!-- Node12 -->
<g id="Node000012" class="node">
<title>Node12</title>
<g id="a_Node000012"><a xlink:href="func_8h.html" target="_top" xlink:title=" ">
<polygon fill="white" stroke="#666666" points="352,-129 218,-129 218,-110 352,-110 352,-129"/>
<text text-anchor="middle" x="285" y="-117" font-family="Helvetica,sans-Serif" font-size="10.00">include/webcface/func.h</text>
</a>
</g>
</g>
<!-- Node11&#45;&gt;Node12 -->
<g id="edge14_Node000011_Node000012" class="edge">
<title>Node11&#45;&gt;Node12</title>
<g id="a_edge14_Node000011_Node000012"><a xlink:title=" ">
<path fill="none" stroke="#63b8ff" d="M199.43,-160.63C220.25,-150.87 248.3,-137.71 266.51,-129.17"/>
<polygon fill="#63b8ff" stroke="#63b8ff" points="197.72,-157.57 190.16,-164.98 200.7,-163.91 197.72,-157.57"/>
</a>
</g>
</g>
<!-- Node11&#45;&gt;Node14 -->
<g id="edge24_Node000011_Node000014" class="edge">
<title>Node11&#45;&gt;Node14</title>
<g id="a_edge24_Node000011_Node000014"><a xlink:title=" ">
<path fill="none" stroke="#63b8ff" d="M178.7,-155.28C184.7,-141.21 194.77,-122.14 209,-110 230.26,-91.87 259.72,-80.66 283.51,-74.03"/>
<polygon fill="#63b8ff" stroke="#63b8ff" points="175.33,-154.29 174.9,-164.87 181.83,-156.86 175.33,-154.29"/>
</a>
</g>
</g>
<!-- Node12&#45;&gt;Node6 -->
<g id="edge17_Node000012_Node000006" class="edge">
<title>Node12&#45;&gt;Node6</title>
<g id="a_edge17_Node000012_Node000006"><a xlink:title=" ">
<path fill="none" stroke="#63b8ff" d="M261,-104.86C221.25,-82.26 142.88,-37.71 110.04,-19.05"/>
<polygon fill="#63b8ff" stroke="#63b8ff" points="259.35,-107.95 269.77,-109.84 262.81,-101.86 259.35,-107.95"/>
</a>
</g>
</g>
<!-- Node12&#45;&gt;Node7 -->
<g id="edge18_Node000012_Node000007" class="edge">
<title>Node12&#45;&gt;Node7</title>
<g id="a_edge18_Node000012_Node000007"><a xlink:title=" ">
<path fill="none" stroke="#63b8ff" d="M348.64,-108.37C411.17,-98.42 505.52,-83.4 564.35,-74.04"/>
<polygon fill="#63b8ff" stroke="#63b8ff" points="347.83,-104.96 338.5,-109.98 348.93,-111.87 347.83,-104.96"/>
</a>
</g>
</g>
<!-- Node12&#45;&gt;Node8 -->
<g id="edge15_Node000012_Node000008" class="edge">
<title>Node12&#45;&gt;Node8</title>
<g id="a_edge15_Node000012_Node000008"><a xlink:title=" ">
<path fill="none" stroke="#63b8ff" d="M266.9,-102.95C259.19,-95.14 251.06,-85.01 247,-74 239.62,-53.99 256.09,-31.48 267.11,-19.36"/>
<polygon fill="#63b8ff" stroke="#63b8ff" points="264.61,-105.61 274.29,-109.93 269.42,-100.52 264.61,-105.61"/>
</a>
</g>
</g>
<!-- Node12&#45;&gt;Node10 -->
<g id="edge23_Node000012_Node000010" class="edge">
<title>Node12&#45;&gt;Node10</title>
<g id="a_edge23_Node000012_Node000010"><a xlink:title=" ">
<path fill="none" stroke="#63b8ff" d="M356.28,-108.33C398.72,-101.15 453.24,-89.95 500,-74 518.25,-67.78 520.65,-60.91 539,-55 597.41,-36.18 665.93,-24.85 717.82,-18.34"/>
<polygon fill="#63b8ff" stroke="#63b8ff" points="355.61,-104.9 346.32,-109.98 356.75,-111.8 355.61,-104.9"/>
</a>
</g>
</g>
<!-- Node13 -->
<g id="Node000013" class="node">
<title>Node13</title>
<g id="a_Node000013"><a xlink:href="func_8cc.html" target="_top" xlink:title=" ">
<polygon fill="white" stroke="#666666" points="491.5,-74 410.5,-74 410.5,-55 491.5,-55 491.5,-74"/>
<text text-anchor="middle" x="451" y="-62" font-family="Helvetica,sans-Serif" font-size="10.00">client/func.cc</text>
</a>
</g>
</g>
<!-- Node12&#45;&gt;Node13 -->
<g id="edge16_Node000012_Node000013" class="edge">
<title>Node12&#45;&gt;Node13</title>
<g id="a_edge16_Node000012_Node000013"><a xlink:title=" ">
<path fill="none" stroke="#63b8ff" d="M321.25,-106.93C352.25,-97.03 396.17,-83.01 424.12,-74.08"/>
<polygon fill="#63b8ff" stroke="#63b8ff" points="320.13,-103.61 311.67,-109.98 322.26,-110.28 320.13,-103.61"/>
</a>
</g>
</g>
<!-- Node12&#45;&gt;Node14 -->
<g id="edge19_Node000012_Node000014" class="edge">
<title>Node12&#45;&gt;Node14</title>
<g id="a_edge19_Node000012_Node000014"><a xlink:title=" ">
<path fill="none" stroke="#63b8ff" d="M297.38,-101.67C304.14,-92.5 312.21,-81.52 317.68,-74.09"/>
<polygon fill="#63b8ff" stroke="#63b8ff" points="294.55,-99.62 291.44,-109.75 300.19,-103.77 294.55,-99.62"/>
</a>
</g>
</g>
<!-- Node14&#45;&gt;Node6 -->
<g id="edge21_Node000014_Node000006" class="edge">
<title>Node14&#45;&gt;Node6</title>
<g id="a_edge21_Node000014_Node000006"><a xlink:title=" ">
<path fill="none" stroke="#63b8ff" d="M277.29,-52.69C234.39,-42.76 171.64,-28.24 132.08,-19.08"/>
<polygon fill="#63b8ff" stroke="#63b8ff" points="276.68,-56.14 287.21,-54.98 278.25,-49.32 276.68,-56.14"/>
</a>
</g>
</g>
<!-- Node14&#45;&gt;Node8 -->
<g id="edge20_Node000014_Node000008" class="edge">
<title>Node14&#45;&gt;Node8</title>
<g id="a_edge20_Node000014_Node000008"><a xlink:title=" ">
<path fill="none" stroke="#63b8ff" d="M309.27,-47.24C300.86,-37.95 290.65,-26.68 283.78,-19.09"/>
<polygon fill="#63b8ff" stroke="#63b8ff" points="306.77,-49.69 316.07,-54.75 311.96,-44.99 306.77,-49.69"/>
</a>
</g>
</g>
<!-- Node14&#45;&gt;Node10 -->
<g id="edge22_Node000014_Node000010" class="edge">
<title>Node14&#45;&gt;Node10</title>
<g id="a_edge22_Node000014_Node000010"><a xlink:title=" ">
<path fill="none" stroke="#63b8ff" d="M402.15,-54.76C490.65,-44.87 633.92,-28.85 721.66,-19.04"/>
<polygon fill="#63b8ff" stroke="#63b8ff" points="401.71,-51.29 392.16,-55.88 402.49,-58.25 401.71,-51.29"/>
</a>
</g>
</g>
<!-- Node15&#45;&gt;Node6 -->
<g id="edge30_Node000015_Node000006" class="edge">
<title>Node15&#45;&gt;Node6</title>
<g id="a_edge30_Node000015_Node000006"><a xlink:title=" ">
<path fill="none" stroke="#63b8ff" d="M230.83,-403.27C149.54,-371.46 0,-296.51 0,-175.5 0,-175.5 0,-175.5 0,-118.5 0,-71.3 51.78,-34.93 78.88,-19.12"/>
<polygon fill="#63b8ff" stroke="#63b8ff" points="229.8,-406.62 240.39,-406.93 232.31,-400.09 229.8,-406.62"/>
</a>
</g>
</g>
<!-- Node15&#45;&gt;Node7 -->
<g id="edge31_Node000015_Node000007" class="edge">
<title>Node15&#45;&gt;Node7</title>
<g id="a_edge31_Node000015_Node000007"><a xlink:title=" ">
<path fill="none" stroke="#63b8ff" d="M277.47,-396.8C273.38,-372.82 268,-335.01 268,-302 268,-302 268,-302 268,-234 268,-202.19 264.77,-187.75 287,-165 308.18,-143.32 502.02,-93.9 582.86,-74.02"/>
<polygon fill="#63b8ff" stroke="#63b8ff" points="274.05,-397.54 279.23,-406.78 280.94,-396.32 274.05,-397.54"/>
</a>
</g>
</g>
<!-- Node15&#45;&gt;Node10 -->
<g id="edge42_Node000015_Node000010" class="edge">
<title>Node15&#45;&gt;Node10</title>
<g id="a_edge42_Node000015_Node000010"><a xlink:title=" ">
<path fill="none" stroke="#63b8ff" d="M358.23,-414.78C525.92,-398.98 912,-350.22 912,-236 912,-236 912,-236 912,-118.5 912,-67.93 852.14,-33.94 819.18,-19.05"/>
<polygon fill="#63b8ff" stroke="#63b8ff" points="357.86,-411.29 348.23,-415.7 358.51,-418.26 357.86,-411.29"/>
</a>
</g>
</g>
<!-- Node15&#45;&gt;Node11 -->
<g id="edge32_Node000015_Node000011" class="edge">
<title>Node15&#45;&gt;Node11</title>
<g id="a_edge32_Node000015_Node000011"><a xlink:title=" ">
<path fill="none" stroke="#63b8ff" d="M268.38,-397.96C263.62,-389.58 258.37,-379.97 254,-371 219.63,-300.54 185.69,-211.99 175.25,-184.23"/>
<polygon fill="#63b8ff" stroke="#63b8ff" points="265.44,-399.88 273.47,-406.79 271.51,-396.38 265.44,-399.88"/>
</a>
</g>
</g>
<!-- Node15&#45;&gt;Node16 -->
<g id="edge33_Node000015_Node000016" class="edge">
<title>Node15&#45;&gt;Node16</title>
<g id="a_edge33_Node000015_Node000016"><a xlink:title=" ">
<path fill="none" stroke="#63b8ff" d="M316.63,-402.07C335.67,-391.66 358.36,-379.25 373.2,-371.14"/>
<polygon fill="#63b8ff" stroke="#63b8ff" points="314.72,-399.12 307.63,-406.99 318.08,-405.26 314.72,-399.12"/>
</a>
</g>
</g>
<!-- Node16&#45;&gt;Node2 -->
<g id="edge34_Node000016_Node000002" class="edge">
<title>Node16&#45;&gt;Node2</title>
<g id="a_edge34_Node000016_Node000002"><a xlink:title=" ">
<path fill="none" stroke="#63b8ff" d="M383.72,-341.72C372.67,-302.41 347.48,-212.78 339.48,-184.33"/>
<polygon fill="#63b8ff" stroke="#63b8ff" points="380.42,-342.9 386.49,-351.58 387.16,-341 380.42,-342.9"/>
</a>
</g>
</g>
<!-- Node16&#45;&gt;Node6 -->
<g id="edge35_Node000016_Node000006" class="edge">
<title>Node16&#45;&gt;Node6</title>
<g id="a_edge35_Node000016_Node000006"><a xlink:title=" ">
<path fill="none" stroke="#63b8ff" d="M346.51,-349.03C278.32,-328.29 145.42,-277.72 79,-184 45.81,-137.17 57.92,-110.38 73,-55 76.58,-41.86 84.12,-27.99 89.37,-19.29"/>
<polygon fill="#63b8ff" stroke="#63b8ff" points="345.9,-352.5 356.48,-352 347.89,-345.79 345.9,-352.5"/>
</a>
</g>
</g>
<!-- Node16&#45;&gt;Node7 -->
<g id="edge36_Node000016_Node000007" class="edge">
<title>Node16&#45;&gt;Node7</title>
<g id="a_edge36_Node000016_Node000007"><a xlink:title=" ">
<path fill="none" stroke="#63b8ff" d="M397,-342.45C409.48,-315.02 435.08,-261.64 463,-220 498.49,-167.06 508.13,-153.19 555,-110 570.36,-95.84 590.4,-82.42 603.7,-74.09"/>
<polygon fill="#63b8ff" stroke="#63b8ff" points="393.65,-341.36 392.75,-351.91 400.04,-344.23 393.65,-341.36"/>
</a>
</g>
</g>
<!-- Node16&#45;&gt;Node10 -->
<g id="edge41_Node000016_Node000010" class="edge">
<title>Node16&#45;&gt;Node10</title>
<g id="a_edge41_Node000016_Node000010"><a xlink:title=" ">
<path fill="none" stroke="#63b8ff" d="M476.36,-358.04C571.23,-351.22 722.97,-327.81 826,-250 857.43,-226.26 874,-214.89 874,-175.5 874,-175.5 874,-175.5 874,-118.5 874,-74.48 831.25,-35.74 809.88,-19.12"/>
<polygon fill="#63b8ff" stroke="#63b8ff" points="475.96,-354.56 466.22,-358.72 476.43,-361.54 475.96,-354.56"/>
</a>
</g>
</g>
<!-- Node16&#45;&gt;Node17 -->
<g id="edge37_Node000016_Node000017" class="edge">
<title>Node16&#45;&gt;Node17</title>
<g id="a_edge37_Node000016_Node000017"><a xlink:title=" ">
<path fill="none" stroke="#63b8ff" d="M419.99,-348.33C443.93,-338.93 477.1,-325.91 502.18,-316.06"/>
<polygon fill="#63b8ff" stroke="#63b8ff" points="418.7,-345.08 410.67,-351.99 421.25,-351.6 418.7,-345.08"/>
</a>
</g>
</g>
<!-- Node17&#45;&gt;Node3 -->
<g id="edge38_Node000017_Node000003" class="edge">
<title>Node17&#45;&gt;Node3</title>
<g id="a_edge38_Node000017_Node000003"><a xlink:title=" ">
<path fill="none" stroke="#63b8ff" d="M538,-275.54C538,-266.96 538,-257.61 538,-250.16"/>
<polygon fill="#63b8ff" stroke="#63b8ff" points="534.5,-275.8 538,-285.8 541.5,-275.8 534.5,-275.8"/>
</a>
</g>
</g>
<!-- Node17&#45;&gt;Node10 -->
<g id="edge40_Node000017_Node000010" class="edge">
<title>Node17&#45;&gt;Node10</title>
<g id="a_edge40_Node000017_Node000010"><a xlink:title=" ">
<path fill="none" stroke="#63b8ff" d="M611.07,-299.84C699.3,-295.36 836,-272.72 836,-175.5 836,-175.5 836,-175.5 836,-118.5 836,-89.6 832.07,-82.09 822,-55 817.11,-41.84 808.96,-27.74 803.53,-19.03"/>
<polygon fill="#63b8ff" stroke="#63b8ff" points="610.67,-296.36 600.83,-300.3 610.98,-303.35 610.67,-296.36"/>
</a>
</g>
</g>
<!-- Node17&#45;&gt;Node12 -->
<g id="edge39_Node000017_Node000012" class="edge">
<title>Node17&#45;&gt;Node12</title>
<g id="a_edge39_Node000017_Node000012"><a xlink:title=" ">
<path fill="none" stroke="#63b8ff" d="M505.03,-280.51C491.46,-271.87 475.93,-261.15 463,-250 424.39,-216.72 427.34,-194.82 386,-165 363.31,-148.63 333.65,-136.46 312.35,-129.02"/>
<polygon fill="#63b8ff" stroke="#63b8ff" points="503.28,-283.55 513.61,-285.87 506.99,-277.61 503.28,-283.55"/>
</a>
</g>
</g>
</g>
</svg>
