<?xml version="1.0" encoding="UTF-8" standalone="no"?>
<!DOCTYPE svg PUBLIC "-//W3C//DTD SVG 1.1//EN"
 "http://www.w3.org/Graphics/SVG/1.1/DTD/svg11.dtd">
<!-- Generated by graphviz version 2.43.0 (0)
 -->
<!-- Title: common/src/fmt.cc Pages: 1 -->
<svg width="1836pt" height="324pt"
 viewBox="0.00 0.00 1836.00 324.00" xmlns="http://www.w3.org/2000/svg" xmlns:xlink="http://www.w3.org/1999/xlink">
<g id="graph0" class="graph" transform="scale(1 1) rotate(0) translate(4 320)">
<title>common/src/fmt.cc</title>
<!-- Node1 -->
<g id="Node000001" class="node">
<title>Node1</title>
<g id="a_Node000001"><a xlink:title=" ">
<polygon fill="#999999" stroke="#666666" points="1047.5,-316 937.5,-316 937.5,-297 1047.5,-297 1047.5,-316"/>
<text text-anchor="middle" x="992.5" y="-304" font-family="Helvetica,sans-Serif" font-size="10.00">common/src/fmt.cc</text>
</a>
</g>
</g>
<!-- Node2 -->
<g id="Node000002" class="node">
<title>Node2</title>
<g id="a_Node000002"><a xlink:href="common_2include_2webcface_2common_2internal_2message_2value_8h.html" target="_top" xlink:title=" ">
<polygon fill="white" stroke="#666666" points="650,-261 501,-261 501,-231 650,-231 650,-261"/>
<text text-anchor="start" x="509" y="-249" font-family="Helvetica,sans-Serif" font-size="10.00">webcface/common/internal</text>
<text text-anchor="middle" x="575.5" y="-238" font-family="Helvetica,sans-Serif" font-size="10.00">/message/value.h</text>
</a>
</g>
</g>
<!-- Node1&#45;&gt;Node2 -->
<g id="edge1_Node000001_Node000002" class="edge">
<title>Node1&#45;&gt;Node2</title>
<g id="a_edge1_Node000001_Node000002"><a xlink:title=" ">
<path fill="none" stroke="#63b8ff" d="M937.33,-298.68C873.28,-290.64 764.21,-276.57 660.18,-261.07"/>
<polygon fill="#63b8ff" stroke="#63b8ff" points="660.54,-257.59 650.14,-259.57 659.51,-264.51 660.54,-257.59"/>
</a>
</g>
</g>
<!-- Node19 -->
<g id="Node000019" class="node">
<title>Node19</title>
<g id="a_Node000019"><a xlink:href="common_2include_2webcface_2common_2internal_2message_2text_8h.html" target="_top" xlink:title=" ">
<polygon fill="white" stroke="#666666" points="316,-261 167,-261 167,-231 316,-231 316,-261"/>
<text text-anchor="start" x="175" y="-249" font-family="Helvetica,sans-Serif" font-size="10.00">webcface/common/internal</text>
<text text-anchor="middle" x="241.5" y="-238" font-family="Helvetica,sans-Serif" font-size="10.00">/message/text.h</text>
</a>
</g>
</g>
<!-- Node1&#45;&gt;Node19 -->
<g id="edge24_Node000001_Node000019" class="edge">
<title>Node1&#45;&gt;Node19</title>
<g id="a_edge24_Node000001_Node000019"><a xlink:title=" ">
<path fill="none" stroke="#63b8ff" d="M937.43,-303.66C824.7,-299.5 559.39,-287.68 326.13,-260.98"/>
<polygon fill="#63b8ff" stroke="#63b8ff" points="326.44,-257.5 316.1,-259.83 325.63,-264.45 326.44,-257.5"/>
</a>
</g>
</g>
<!-- Node20 -->
<g id="Node000020" class="node">
<title>Node20</title>
<g id="a_Node000020"><a xlink:href="common_2include_2webcface_2common_2internal_2message_2view_8h.html" target="_top" xlink:title=" ">
<polygon fill="white" stroke="#666666" points="1151,-261 1002,-261 1002,-231 1151,-231 1151,-261"/>
<text text-anchor="start" x="1010" y="-249" font-family="Helvetica,sans-Serif" font-size="10.00">webcface/common/internal</text>
<text text-anchor="middle" x="1076.5" y="-238" font-family="Helvetica,sans-Serif" font-size="10.00">/message/view.h</text>
</a>
</g>
</g>
<!-- Node1&#45;&gt;Node20 -->
<g id="edge28_Node000001_Node000020" class="edge">
<title>Node1&#45;&gt;Node20</title>
<g id="a_edge28_Node000001_Node000020"><a xlink:title=" ">
<path fill="none" stroke="#63b8ff" d="M1004.89,-296.87C1016.19,-289 1033.29,-277.09 1047.95,-266.89"/>
<polygon fill="#63b8ff" stroke="#63b8ff" points="1050.03,-269.7 1056.23,-261.11 1046.03,-263.96 1050.03,-269.7"/>
</a>
</g>
</g>
<!-- Node23 -->
<g id="Node000023" class="node">
<title>Node23</title>
<g id="a_Node000023"><a xlink:href="common_2include_2webcface_2common_2internal_2message_2canvas2d_8h.html" target="_top" xlink:title=" ">
<polygon fill="white" stroke="#666666" points="1485,-261 1336,-261 1336,-231 1485,-231 1485,-261"/>
<text text-anchor="start" x="1344" y="-249" font-family="Helvetica,sans-Serif" font-size="10.00">webcface/common/internal</text>
<text text-anchor="middle" x="1410.5" y="-238" font-family="Helvetica,sans-Serif" font-size="10.00">/message/canvas2d.h</text>
</a>
</g>
</g>
<!-- Node1&#45;&gt;Node23 -->
<g id="edge34_Node000001_Node000023" class="edge">
<title>Node1&#45;&gt;Node23</title>
<g id="a_edge34_Node000001_Node000023"><a xlink:title=" ">
<path fill="none" stroke="#63b8ff" d="M1047.71,-298.77C1112.11,-290.78 1222.03,-276.73 1325.84,-261.22"/>
<polygon fill="#63b8ff" stroke="#63b8ff" points="1326.49,-264.66 1335.86,-259.72 1325.45,-257.74 1326.49,-264.66"/>
</a>
</g>
</g>
<!-- Node25 -->
<g id="Node000025" class="node">
<title>Node25</title>
<g id="a_Node000025"><a xlink:href="common_2include_2webcface_2common_2internal_2message_2canvas3d_8h.html" target="_top" xlink:title=" ">
<polygon fill="white" stroke="#666666" points="1652,-261 1503,-261 1503,-231 1652,-231 1652,-261"/>
<text text-anchor="start" x="1511" y="-249" font-family="Helvetica,sans-Serif" font-size="10.00">webcface/common/internal</text>
<text text-anchor="middle" x="1577.5" y="-238" font-family="Helvetica,sans-Serif" font-size="10.00">/message/canvas3d.h</text>
</a>
</g>
</g>
<!-- Node1&#45;&gt;Node25 -->
<g id="edge41_Node000001_Node000025" class="edge">
<title>Node1&#45;&gt;Node25</title>
<g id="a_edge41_Node000001_Node000025"><a xlink:title=" ">
<path fill="none" stroke="#63b8ff" d="M1047.62,-302.04C1138.38,-296.03 1325.17,-282.34 1492.89,-261.15"/>
<polygon fill="#63b8ff" stroke="#63b8ff" points="1493.41,-264.61 1502.88,-259.87 1492.52,-257.66 1493.41,-264.61"/>
</a>
</g>
</g>
<!-- Node26 -->
<g id="Node000026" class="node">
<title>Node26</title>
<g id="a_Node000026"><a xlink:href="common_2include_2webcface_2common_2internal_2message_2image_8h.html" target="_top" xlink:title=" ">
<polygon fill="white" stroke="#666666" points="984,-261 835,-261 835,-231 984,-231 984,-261"/>
<text text-anchor="start" x="843" y="-249" font-family="Helvetica,sans-Serif" font-size="10.00">webcface/common/internal</text>
<text text-anchor="middle" x="909.5" y="-238" font-family="Helvetica,sans-Serif" font-size="10.00">/message/image.h</text>
</a>
</g>
</g>
<!-- Node1&#45;&gt;Node26 -->
<g id="edge48_Node000001_Node000026" class="edge">
<title>Node1&#45;&gt;Node26</title>
<g id="a_edge48_Node000001_Node000026"><a xlink:title=" ">
<path fill="none" stroke="#63b8ff" d="M980.25,-296.87C969.1,-289 952.2,-277.09 937.71,-266.89"/>
<polygon fill="#63b8ff" stroke="#63b8ff" points="939.72,-264.01 929.53,-261.11 935.68,-269.74 939.72,-264.01"/>
</a>
</g>
</g>
<!-- Node27 -->
<g id="Node000027" class="node">
<title>Node27</title>
<g id="a_Node000027"><a xlink:href="common_2include_2webcface_2common_2internal_2message_2func_8h.html" target="_top" xlink:title=" ">
<polygon fill="white" stroke="#666666" points="817,-261 668,-261 668,-231 817,-231 817,-261"/>
<text text-anchor="start" x="676" y="-249" font-family="Helvetica,sans-Serif" font-size="10.00">webcface/common/internal</text>
<text text-anchor="middle" x="742.5" y="-238" font-family="Helvetica,sans-Serif" font-size="10.00">/message/func.h</text>
</a>
</g>
</g>
<!-- Node1&#45;&gt;Node27 -->
<g id="edge53_Node000001_Node000027" class="edge">
<title>Node1&#45;&gt;Node27</title>
<g id="a_edge53_Node000001_Node000027"><a xlink:title=" ">
<path fill="none" stroke="#63b8ff" d="M956.15,-296.99C918.6,-288.21 859.06,-274.27 812.36,-263.35"/>
<polygon fill="#63b8ff" stroke="#63b8ff" points="813.14,-259.93 802.6,-261.06 811.54,-266.75 813.14,-259.93"/>
</a>
</g>
</g>
<!-- Node28 -->
<g id="Node000028" class="node">
<title>Node28</title>
<g id="a_Node000028"><a xlink:href="common_2include_2webcface_2common_2internal_2message_2log_8h.html" target="_top" xlink:title=" ">
<polygon fill="white" stroke="#666666" points="149,-261 0,-261 0,-231 149,-231 149,-261"/>
<text text-anchor="start" x="8" y="-249" font-family="Helvetica,sans-Serif" font-size="10.00">webcface/common/internal</text>
<text text-anchor="middle" x="74.5" y="-238" font-family="Helvetica,sans-Serif" font-size="10.00">/message/log.h</text>
</a>
</g>
</g>
<!-- Node1&#45;&gt;Node28 -->
<g id="edge59_Node000001_Node000028" class="edge">
<title>Node1&#45;&gt;Node28</title>
<g id="a_edge59_Node000001_Node000028"><a xlink:title=" ">
<path fill="none" stroke="#63b8ff" d="M937.19,-304.68C804.71,-302.27 458.62,-293.25 159.28,-260.99"/>
<polygon fill="#63b8ff" stroke="#63b8ff" points="159.42,-257.48 149.09,-259.88 158.66,-264.44 159.42,-257.48"/>
</a>
</g>
</g>
<!-- Node30 -->
<g id="Node000030" class="node">
<title>Node30</title>
<g id="a_Node000030"><a xlink:href="common_2include_2webcface_2common_2internal_2message_2robot__model_8h.html" target="_top" xlink:title=" ">
<polygon fill="white" stroke="#666666" points="483,-261 334,-261 334,-231 483,-231 483,-261"/>
<text text-anchor="start" x="342" y="-249" font-family="Helvetica,sans-Serif" font-size="10.00">webcface/common/internal</text>
<text text-anchor="middle" x="408.5" y="-238" font-family="Helvetica,sans-Serif" font-size="10.00">/message/robot_model.h</text>
</a>
</g>
</g>
<!-- Node1&#45;&gt;Node30 -->
<g id="edge63_Node000001_Node000030" class="edge">
<title>Node1&#45;&gt;Node30</title>
<g id="a_edge63_Node000001_Node000030"><a xlink:title=" ">
<path fill="none" stroke="#63b8ff" d="M937.23,-301.97C846.7,-295.87 660.95,-282.1 493.12,-261.01"/>
<polygon fill="#63b8ff" stroke="#63b8ff" points="493.47,-257.53 483.11,-259.74 492.59,-264.47 493.47,-257.53"/>
</a>
</g>
</g>
<!-- Node31 -->
<g id="Node000031" class="node">
<title>Node31</title>
<g id="a_Node000031"><a xlink:href="sync_8h.html" target="_top" xlink:title=" ">
<polygon fill="white" stroke="#666666" points="1318,-261 1169,-261 1169,-231 1318,-231 1318,-261"/>
<text text-anchor="start" x="1177" y="-249" font-family="Helvetica,sans-Serif" font-size="10.00">webcface/common/internal</text>
<text text-anchor="middle" x="1243.5" y="-238" font-family="Helvetica,sans-Serif" font-size="10.00">/message/sync.h</text>
</a>
</g>
</g>
<!-- Node1&#45;&gt;Node31 -->
<g id="edge67_Node000001_Node000031" class="edge">
<title>Node1&#45;&gt;Node31</title>
<g id="a_edge67_Node000001_Node000031"><a xlink:title=" ">
<path fill="none" stroke="#63b8ff" d="M1029,-296.99C1066.7,-288.21 1126.47,-274.27 1173.36,-263.35"/>
<polygon fill="#63b8ff" stroke="#63b8ff" points="1174.21,-266.74 1183.16,-261.06 1172.62,-259.93 1174.21,-266.74"/>
</a>
</g>
</g>
<!-- Node33 -->
<g id="Node000033" class="node">
<title>Node33</title>
<g id="a_Node000033"><a xlink:title=" ">
<polygon fill="#e0e0e0" stroke="#999999" points="1731,-255.5 1670,-255.5 1670,-236.5 1731,-236.5 1731,-255.5"/>
<text text-anchor="middle" x="1700.5" y="-243.5" font-family="Helvetica,sans-Serif" font-size="10.00">fmt/std.h</text>
</a>
</g>
</g>
<!-- Node1&#45;&gt;Node33 -->
<g id="edge72_Node000001_Node000033" class="edge">
<title>Node1&#45;&gt;Node33</title>
<g id="a_edge72_Node000001_Node000033"><a xlink:title=" ">
<path fill="none" stroke="#63b8ff" d="M1047.67,-303.8C1185.97,-299.24 1544.7,-285.35 1661.5,-261 1664.5,-260.37 1667.59,-259.57 1670.64,-258.66"/>
<polygon fill="#63b8ff" stroke="#63b8ff" points="1671.77,-261.97 1680.16,-255.51 1669.57,-255.33 1671.77,-261.97"/>
</a>
</g>
</g>
<!-- Node34 -->
<g id="Node000034" class="node">
<title>Node34</title>
<g id="a_Node000034"><a xlink:title=" ">
<polygon fill="#e0e0e0" stroke="#999999" points="1828,-255.5 1749,-255.5 1749,-236.5 1828,-236.5 1828,-255.5"/>
<text text-anchor="middle" x="1788.5" y="-243.5" font-family="Helvetica,sans-Serif" font-size="10.00">fmt/chrono.h</text>
</a>
</g>
</g>
<!-- Node1&#45;&gt;Node34 -->
<g id="edge73_Node000001_Node000034" class="edge">
<title>Node1&#45;&gt;Node34</title>
<g id="a_edge73_Node000001_Node000034"><a xlink:title=" ">
<path fill="none" stroke="#63b8ff" d="M1047.74,-303.82C1197.21,-299.02 1607.27,-284.09 1740.5,-261 1744.69,-260.27 1749.03,-259.31 1753.31,-258.24"/>
<polygon fill="#63b8ff" stroke="#63b8ff" points="1754.37,-261.58 1763.09,-255.56 1752.52,-254.82 1754.37,-261.58"/>
</a>
</g>
</g>
<!-- Node3 -->
<g id="Node000003" class="node">
<title>Node3</title>
<g id="a_Node000003"><a xlink:href="base_8h.html" target="_top" xlink:title=" ">
<polygon fill="white" stroke="#666666" points="963,-195 908,-195 908,-176 963,-176 963,-195"/>
<text text-anchor="middle" x="935.5" y="-183" font-family="Helvetica,sans-Serif" font-size="10.00">./base.h</text>
</a>
</g>
</g>
<!-- Node2&#45;&gt;Node3 -->
<g id="edge2_Node000002_Node000003" class="edge">
<title>Node2&#45;&gt;Node3</title>
<g id="a_edge2_Node000002_Node000003"><a xlink:title=" ">
<path fill="none" stroke="#63b8ff" d="M650.15,-232.54C653.31,-232.02 656.44,-231.5 659.5,-231 744.59,-217.05 844.5,-201.03 897.68,-192.53"/>
<polygon fill="#63b8ff" stroke="#63b8ff" points="898.35,-195.97 907.68,-190.94 897.25,-189.06 898.35,-195.97"/>
</a>
</g>
</g>
<!-- Node9 -->
<g id="Node000009" class="node">
<title>Node9</title>
<g id="a_Node000009"><a xlink:title=" ">
<polygon fill="#e0e0e0" stroke="#999999" points="1265,-74 1218,-74 1218,-55 1265,-55 1265,-74"/>
<text text-anchor="middle" x="1241.5" y="-62" font-family="Helvetica,sans-Serif" font-size="10.00">vector</text>
</a>
</g>
</g>
<!-- Node2&#45;&gt;Node9 -->
<g id="edge23_Node000002_Node000009" class="edge">
<title>Node2&#45;&gt;Node9</title>
<g id="a_edge23_Node000002_Node000009"><a xlink:title=" ">
<path fill="none" stroke="#63b8ff" d="M621.67,-230.94C674.38,-215.37 763.41,-190.56 841.5,-176 978.72,-150.41 1025.41,-195.47 1153.5,-140 1161.68,-136.46 1201.08,-101.78 1224.3,-81"/>
<polygon fill="#63b8ff" stroke="#63b8ff" points="1226.92,-83.35 1232.03,-74.06 1222.25,-78.14 1226.92,-83.35"/>
</a>
</g>
</g>
<!-- Node14 -->
<g id="Node000014" class="node">
<title>Node14</title>
<g id="a_Node000014"><a xlink:href="common_2encoding_8h.html" target="_top" xlink:title=" ">
<polygon fill="white" stroke="#666666" points="851.5,-74 781.5,-74 781.5,-55 851.5,-55 851.5,-74"/>
<text text-anchor="middle" x="816.5" y="-62" font-family="Helvetica,sans-Serif" font-size="10.00">encoding.h</text>
</a>
</g>
</g>
<!-- Node2&#45;&gt;Node14 -->
<g id="edge22_Node000002_Node000014" class="edge">
<title>Node2&#45;&gt;Node14</title>
<g id="a_edge22_Node000002_Node000014"><a xlink:title=" ">
<path fill="none" stroke="#63b8ff" d="M594.41,-230.91C639.14,-197.6 751.11,-114.2 796.71,-80.24"/>
<polygon fill="#63b8ff" stroke="#63b8ff" points="798.98,-82.92 804.91,-74.13 794.8,-77.3 798.98,-82.92"/>
</a>
</g>
</g>
<!-- Node4 -->
<g id="Node000004" class="node">
<title>Node4</title>
<g id="a_Node000004"><a xlink:href="webcface-config_8h.html" target="_top" xlink:title=" ">
<polygon fill="white" stroke="#666666" points="1384,-19 1279,-19 1279,0 1384,0 1384,-19"/>
<text text-anchor="middle" x="1331.5" y="-7" font-family="Helvetica,sans-Serif" font-size="10.00">webcface&#45;config.h</text>
</a>
</g>
</g>
<!-- Node3&#45;&gt;Node4 -->
<g id="edge3_Node000003_Node000004" class="edge">
<title>Node3&#45;&gt;Node4</title>
<g id="a_edge3_Node000003_Node000004"><a xlink:title=" ">
<path fill="none" stroke="#63b8ff" d="M963.19,-180.87C1034.19,-171.49 1218,-146.69 1229.5,-140 1275.33,-113.34 1308.24,-57.45 1322.93,-28.6"/>
<polygon fill="#63b8ff" stroke="#63b8ff" points="1326.24,-29.81 1327.51,-19.29 1319.96,-26.72 1326.24,-29.81"/>
</a>
</g>
</g>
<!-- Node5 -->
<g id="Node000005" class="node">
<title>Node5</title>
<g id="a_Node000005"><a xlink:href="fmt_8h.html" target="_top" xlink:title=" ">
<polygon fill="white" stroke="#666666" points="1561,-134.5 1512,-134.5 1512,-115.5 1561,-115.5 1561,-134.5"/>
<text text-anchor="middle" x="1536.5" y="-122.5" font-family="Helvetica,sans-Serif" font-size="10.00">./fmt.h</text>
</a>
</g>
</g>
<!-- Node3&#45;&gt;Node5 -->
<g id="edge4_Node000003_Node000005" class="edge">
<title>Node3&#45;&gt;Node5</title>
<g id="a_edge4_Node000003_Node000005"><a xlink:title=" ">
<path fill="none" stroke="#63b8ff" d="M963.26,-181.1C977.39,-179.44 994.84,-177.48 1010.5,-176 1222.16,-156.03 1278.21,-177.4 1487.5,-140 1492.26,-139.15 1497.22,-138.03 1502.07,-136.78"/>
<polygon fill="#63b8ff" stroke="#63b8ff" points="1503.08,-140.13 1511.8,-134.11 1501.23,-133.38 1503.08,-140.13"/>
</a>
</g>
</g>
<!-- Node7 -->
<g id="Node000007" class="node">
<title>Node7</title>
<g id="a_Node000007"><a xlink:href="common_2val__adaptor_8h.html" target="_top" xlink:title=" ">
<polygon fill="white" stroke="#666666" points="1111,-140 984,-140 984,-110 1111,-110 1111,-140"/>
<text text-anchor="start" x="992" y="-128" font-family="Helvetica,sans-Serif" font-size="10.00">webcface/common/val</text>
<text text-anchor="middle" x="1047.5" y="-117" font-family="Helvetica,sans-Serif" font-size="10.00">_adaptor.h</text>
</a>
</g>
</g>
<!-- Node3&#45;&gt;Node7 -->
<g id="edge7_Node000003_Node000007" class="edge">
<title>Node3&#45;&gt;Node7</title>
<g id="a_edge7_Node000003_Node000007"><a xlink:title=" ">
<path fill="none" stroke="#63b8ff" d="M952.03,-175.87C967.65,-167.71 991.6,-155.2 1011.61,-144.75"/>
<polygon fill="#63b8ff" stroke="#63b8ff" points="1013.23,-147.85 1020.48,-140.11 1009.99,-141.64 1013.23,-147.85"/>
</a>
</g>
</g>
<!-- Node5&#45;&gt;Node4 -->
<g id="edge5_Node000005_Node000004" class="edge">
<title>Node5&#45;&gt;Node4</title>
<g id="a_edge5_Node000005_Node000004"><a xlink:title=" ">
<path fill="none" stroke="#63b8ff" d="M1548.97,-115.45C1567.21,-101.92 1597.28,-75.05 1580.5,-55 1557.22,-27.19 1460.33,-16.74 1394.51,-12.83"/>
<polygon fill="#63b8ff" stroke="#63b8ff" points="1394.41,-9.32 1384.23,-12.26 1394.02,-16.31 1394.41,-9.32"/>
</a>
</g>
</g>
<!-- Node6 -->
<g id="Node000006" class="node">
<title>Node6</title>
<g id="a_Node000006"><a xlink:title=" ">
<polygon fill="#e0e0e0" stroke="#999999" points="1571,-74 1502,-74 1502,-55 1571,-55 1571,-74"/>
<text text-anchor="middle" x="1536.5" y="-62" font-family="Helvetica,sans-Serif" font-size="10.00">fmt/base.h</text>
</a>
</g>
</g>
<!-- Node5&#45;&gt;Node6 -->
<g id="edge6_Node000005_Node000006" class="edge">
<title>Node5&#45;&gt;Node6</title>
<g id="a_edge6_Node000005_Node000006"><a xlink:title=" ">
<path fill="none" stroke="#63b8ff" d="M1536.5,-115.37C1536.5,-107.25 1536.5,-94.81 1536.5,-84.39"/>
<polygon fill="#63b8ff" stroke="#63b8ff" points="1540,-84.17 1536.5,-74.17 1533,-84.17 1540,-84.17"/>
</a>
</g>
</g>
<!-- Node7&#45;&gt;Node4 -->
<g id="edge21_Node000007_Node000004" class="edge">
<title>Node7&#45;&gt;Node4</title>
<g id="a_edge21_Node000007_Node000004"><a xlink:title=" ">
<path fill="none" stroke="#63b8ff" d="M1083.83,-109.97C1108.46,-100.28 1141.66,-86.87 1170.5,-74 1188.11,-66.14 1191.75,-62.54 1209.5,-55 1238.14,-42.84 1271.35,-30.86 1295.88,-22.4"/>
<polygon fill="#63b8ff" stroke="#63b8ff" points="1297.16,-25.66 1305.49,-19.11 1294.9,-19.04 1297.16,-25.66"/>
</a>
</g>
</g>
<!-- Node8 -->
<g id="Node000008" class="node">
<title>Node8</title>
<g id="a_Node000008"><a xlink:title=" ">
<polygon fill="#e0e0e0" stroke="#999999" points="1066.5,-19 1022.5,-19 1022.5,0 1066.5,0 1066.5,-19"/>
<text text-anchor="middle" x="1044.5" y="-7" font-family="Helvetica,sans-Serif" font-size="10.00">string</text>
</a>
</g>
</g>
<!-- Node7&#45;&gt;Node8 -->
<g id="edge8_Node000007_Node000008" class="edge">
<title>Node7&#45;&gt;Node8</title>
<g id="a_edge8_Node000007_Node000008"><a xlink:title=" ">
<path fill="none" stroke="#63b8ff" d="M1054.86,-109.79C1061.15,-95.88 1068.59,-74.06 1064.5,-55 1062.53,-45.8 1058.5,-36.2 1054.57,-28.29"/>
<polygon fill="#63b8ff" stroke="#63b8ff" points="1057.59,-26.51 1049.82,-19.32 1051.41,-29.79 1057.59,-26.51"/>
</a>
</g>
</g>
<!-- Node7&#45;&gt;Node9 -->
<g id="edge9_Node000007_Node000009" class="edge">
<title>Node7&#45;&gt;Node9</title>
<g id="a_edge9_Node000007_Node000009"><a xlink:title=" ">
<path fill="none" stroke="#63b8ff" d="M1093.97,-109.99C1129.17,-99.37 1176.69,-85.04 1208.17,-75.55"/>
<polygon fill="#63b8ff" stroke="#63b8ff" points="1209.23,-78.89 1217.79,-72.65 1207.21,-72.18 1209.23,-78.89"/>
</a>
</g>
</g>
<!-- Node10 -->
<g id="Node000010" class="node">
<title>Node10</title>
<g id="a_Node000010"><a xlink:title=" ">
<polygon fill="#e0e0e0" stroke="#999999" points="1055,-74 1014,-74 1014,-55 1055,-55 1055,-74"/>
<text text-anchor="middle" x="1034.5" y="-62" font-family="Helvetica,sans-Serif" font-size="10.00">tuple</text>
</a>
</g>
</g>
<!-- Node7&#45;&gt;Node10 -->
<g id="edge10_Node000007_Node000010" class="edge">
<title>Node7&#45;&gt;Node10</title>
<g id="a_edge10_Node000007_Node000010"><a xlink:title=" ">
<path fill="none" stroke="#63b8ff" d="M1044.35,-109.84C1042.64,-102.13 1040.5,-92.49 1038.65,-84.17"/>
<polygon fill="#63b8ff" stroke="#63b8ff" points="1042.03,-83.27 1036.45,-74.27 1035.2,-84.79 1042.03,-83.27"/>
</a>
</g>
</g>
<!-- Node11 -->
<g id="Node000011" class="node">
<title>Node11</title>
<g id="a_Node000011"><a xlink:title=" ">
<polygon fill="#e0e0e0" stroke="#999999" points="1161.5,-74 1111.5,-74 1111.5,-55 1161.5,-55 1161.5,-74"/>
<text text-anchor="middle" x="1136.5" y="-62" font-family="Helvetica,sans-Serif" font-size="10.00">cstdint</text>
</a>
</g>
</g>
<!-- Node7&#45;&gt;Node11 -->
<g id="edge11_Node000007_Node000011" class="edge">
<title>Node7&#45;&gt;Node11</title>
<g id="a_edge11_Node000007_Node000011"><a xlink:title=" ">
<path fill="none" stroke="#63b8ff" d="M1069.04,-109.84C1082.97,-100.68 1101.03,-88.82 1114.95,-79.66"/>
<polygon fill="#63b8ff" stroke="#63b8ff" points="1116.99,-82.51 1123.42,-74.09 1113.15,-76.66 1116.99,-82.51"/>
</a>
</g>
</g>
<!-- Node12 -->
<g id="Node000012" class="node">
<title>Node12</title>
<g id="a_Node000012"><a xlink:title=" ">
<polygon fill="#e0e0e0" stroke="#999999" points="927,-74 870,-74 870,-55 927,-55 927,-74"/>
<text text-anchor="middle" x="898.5" y="-62" font-family="Helvetica,sans-Serif" font-size="10.00">ostream</text>
</a>
</g>
</g>
<!-- Node7&#45;&gt;Node12 -->
<g id="edge12_Node000007_Node000012" class="edge">
<title>Node7&#45;&gt;Node12</title>
<g id="a_edge12_Node000007_Node000012"><a xlink:title=" ">
<path fill="none" stroke="#63b8ff" d="M1011.81,-109.99C986.84,-100.18 953.8,-87.21 929.84,-77.81"/>
<polygon fill="#63b8ff" stroke="#63b8ff" points="931.09,-74.54 920.5,-74.14 928.53,-81.05 931.09,-74.54"/>
</a>
</g>
</g>
<!-- Node13 -->
<g id="Node000013" class="node">
<title>Node13</title>
<g id="a_Node000013"><a xlink:title=" ">
<polygon fill="#e0e0e0" stroke="#999999" points="996,-74 945,-74 945,-55 996,-55 996,-74"/>
<text text-anchor="middle" x="970.5" y="-62" font-family="Helvetica,sans-Serif" font-size="10.00">variant</text>
</a>
</g>
</g>
<!-- Node7&#45;&gt;Node13 -->
<g id="edge13_Node000007_Node000013" class="edge">
<title>Node7&#45;&gt;Node13</title>
<g id="a_edge13_Node000007_Node000013"><a xlink:title=" ">
<path fill="none" stroke="#63b8ff" d="M1028.86,-109.84C1017.11,-100.91 1001.97,-89.41 990.05,-80.35"/>
<polygon fill="#63b8ff" stroke="#63b8ff" points="992.12,-77.53 982.04,-74.27 987.88,-83.1 992.12,-77.53"/>
</a>
</g>
</g>
<!-- Node7&#45;&gt;Node14 -->
<g id="edge14_Node000007_Node000014" class="edge">
<title>Node7&#45;&gt;Node14</title>
<g id="a_edge14_Node000007_Node000014"><a xlink:title=" ">
<path fill="none" stroke="#63b8ff" d="M992.17,-109.99C951.79,-99.76 897.79,-86.09 860.37,-76.61"/>
<polygon fill="#63b8ff" stroke="#63b8ff" points="860.83,-73.12 850.28,-74.05 859.11,-79.9 860.83,-73.12"/>
</a>
</g>
</g>
<!-- Node14&#45;&gt;Node4 -->
<g id="edge20_Node000014_Node000004" class="edge">
<title>Node14&#45;&gt;Node4</title>
<g id="a_edge20_Node000014_Node000004"><a xlink:title=" ">
<path fill="none" stroke="#63b8ff" d="M851.82,-56.51C855.09,-55.96 858.35,-55.45 861.5,-55 1006.65,-34.46 1178.4,-20.9 1268.73,-14.59"/>
<polygon fill="#63b8ff" stroke="#63b8ff" points="1269.07,-18.08 1278.8,-13.9 1268.58,-11.09 1269.07,-18.08"/>
</a>
</g>
</g>
<!-- Node14&#45;&gt;Node8 -->
<g id="edge17_Node000014_Node000008" class="edge">
<title>Node14&#45;&gt;Node8</title>
<g id="a_edge17_Node000014_Node000008"><a xlink:title=" ">
<path fill="none" stroke="#63b8ff" d="M851.63,-55.33C895.59,-45.11 970.26,-27.76 1012.64,-17.91"/>
<polygon fill="#63b8ff" stroke="#63b8ff" points="1013.48,-21.3 1022.43,-15.63 1011.9,-14.49 1013.48,-21.3"/>
</a>
</g>
</g>
<!-- Node15 -->
<g id="Node000015" class="node">
<title>Node15</title>
<g id="a_Node000015"><a xlink:title=" ">
<polygon fill="#e0e0e0" stroke="#999999" points="747.5,-19 709.5,-19 709.5,0 747.5,0 747.5,-19"/>
<text text-anchor="middle" x="728.5" y="-7" font-family="Helvetica,sans-Serif" font-size="10.00">map</text>
</a>
</g>
</g>
<!-- Node14&#45;&gt;Node15 -->
<g id="edge15_Node000014_Node000015" class="edge">
<title>Node14&#45;&gt;Node15</title>
<g id="a_edge15_Node000014_Node000015"><a xlink:title=" ">
<path fill="none" stroke="#63b8ff" d="M802.36,-54.98C788.71,-46.77 767.81,-34.18 751.72,-24.49"/>
<polygon fill="#63b8ff" stroke="#63b8ff" points="753.27,-21.33 742.9,-19.17 749.66,-27.33 753.27,-21.33"/>
</a>
</g>
</g>
<!-- Node16 -->
<g id="Node000016" class="node">
<title>Node16</title>
<g id="a_Node000016"><a xlink:title=" ">
<polygon fill="#e0e0e0" stroke="#999999" points="797.5,-19 765.5,-19 765.5,0 797.5,0 797.5,-19"/>
<text text-anchor="middle" x="781.5" y="-7" font-family="Helvetica,sans-Serif" font-size="10.00">set</text>
</a>
</g>
</g>
<!-- Node14&#45;&gt;Node16 -->
<g id="edge16_Node000014_Node000016" class="edge">
<title>Node14&#45;&gt;Node16</title>
<g id="a_edge16_Node000014_Node000016"><a xlink:title=" ">
<path fill="none" stroke="#63b8ff" d="M810.72,-54.75C805.88,-47.42 798.82,-36.73 792.86,-27.7"/>
<polygon fill="#63b8ff" stroke="#63b8ff" points="795.6,-25.5 787.17,-19.09 789.76,-29.36 795.6,-25.5"/>
</a>
</g>
</g>
<!-- Node17 -->
<g id="Node000017" class="node">
<title>Node17</title>
<g id="a_Node000017"><a xlink:title=" ">
<polygon fill="#e0e0e0" stroke="#999999" points="889,-19 816,-19 816,0 889,0 889,-19"/>
<text text-anchor="middle" x="852.5" y="-7" font-family="Helvetica,sans-Serif" font-size="10.00">string_view</text>
</a>
</g>
</g>
<!-- Node14&#45;&gt;Node17 -->
<g id="edge18_Node000014_Node000017" class="edge">
<title>Node14&#45;&gt;Node17</title>
<g id="a_edge18_Node000014_Node000017"><a xlink:title=" ">
<path fill="none" stroke="#63b8ff" d="M822.44,-54.75C827.48,-47.34 834.84,-36.5 841.01,-27.41"/>
<polygon fill="#63b8ff" stroke="#63b8ff" points="843.94,-29.33 846.67,-19.09 838.15,-25.39 843.94,-29.33"/>
</a>
</g>
</g>
<!-- Node18 -->
<g id="Node000018" class="node">
<title>Node18</title>
<g id="a_Node000018"><a xlink:title=" ">
<polygon fill="#e0e0e0" stroke="#999999" points="965.5,-19 907.5,-19 907.5,0 965.5,0 965.5,-19"/>
<text text-anchor="middle" x="936.5" y="-7" font-family="Helvetica,sans-Serif" font-size="10.00">memory</text>
</a>
</g>
</g>
<!-- Node14&#45;&gt;Node18 -->
<g id="edge19_Node000014_Node000018" class="edge">
<title>Node14&#45;&gt;Node18</title>
<g id="a_edge19_Node000014_Node000018"><a xlink:title=" ">
<path fill="none" stroke="#63b8ff" d="M835.78,-54.98C855.17,-46.42 885.31,-33.11 907.57,-23.28"/>
<polygon fill="#63b8ff" stroke="#63b8ff" points="909.14,-26.41 916.87,-19.17 906.31,-20.01 909.14,-26.41"/>
</a>
</g>
</g>
<!-- Node19&#45;&gt;Node3 -->
<g id="edge25_Node000019_Node000003" class="edge">
<title>Node19&#45;&gt;Node3</title>
<g id="a_edge25_Node000019_Node000003"><a xlink:title=" ">
<path fill="none" stroke="#63b8ff" d="M316.1,-232.2C319.27,-231.77 322.42,-231.37 325.5,-231 541.2,-205.21 801.71,-192.22 897.66,-188.04"/>
<polygon fill="#63b8ff" stroke="#63b8ff" points="897.91,-191.54 907.75,-187.61 897.61,-184.54 897.91,-191.54"/>
</a>
</g>
</g>
<!-- Node19&#45;&gt;Node7 -->
<g id="edge27_Node000019_Node000007" class="edge">
<title>Node19&#45;&gt;Node7</title>
<g id="a_edge27_Node000019_Node000007"><a xlink:title=" ">
<path fill="none" stroke="#63b8ff" d="M316.14,-232.48C319.3,-231.97 322.43,-231.48 325.5,-231 562.13,-194.08 843.07,-154.42 973.78,-136.21"/>
<polygon fill="#63b8ff" stroke="#63b8ff" points="974.27,-139.67 983.69,-134.83 973.3,-132.74 974.27,-139.67"/>
</a>
</g>
</g>
<!-- Node19&#45;&gt;Node14 -->
<g id="edge26_Node000019_Node000014" class="edge">
<title>Node19&#45;&gt;Node14</title>
<g id="a_edge26_Node000019_Node000014"><a xlink:title=" ">
<path fill="none" stroke="#63b8ff" d="M280.19,-230.91C351.37,-205.21 508.13,-149.74 642.5,-110 685.91,-97.16 736.04,-84.57 771.31,-76.08"/>
<polygon fill="#63b8ff" stroke="#63b8ff" points="772.39,-79.42 781.3,-73.69 770.76,-72.61 772.39,-79.42"/>
</a>
</g>
</g>
<!-- Node20&#45;&gt;Node3 -->
<g id="edge29_Node000020_Node000003" class="edge">
<title>Node20&#45;&gt;Node3</title>
<g id="a_edge29_Node000020_Node000003"><a xlink:title=" ">
<path fill="none" stroke="#63b8ff" d="M1042.73,-230.99C1019.31,-221.27 988.38,-208.44 965.77,-199.06"/>
<polygon fill="#63b8ff" stroke="#63b8ff" points="966.9,-195.74 956.32,-195.14 964.22,-202.2 966.9,-195.74"/>
</a>
</g>
</g>
<!-- Node20&#45;&gt;Node7 -->
<g id="edge31_Node000020_Node000007" class="edge">
<title>Node20&#45;&gt;Node7</title>
<g id="a_edge31_Node000020_Node000007"><a xlink:title=" ">
<path fill="none" stroke="#63b8ff" d="M1081.58,-230.9C1085.91,-216.7 1090.54,-194.32 1084.5,-176 1081.19,-165.95 1074.99,-156.27 1068.6,-148.15"/>
<polygon fill="#63b8ff" stroke="#63b8ff" points="1071.11,-145.69 1061.99,-140.3 1065.76,-150.2 1071.11,-145.69"/>
</a>
</g>
</g>
<!-- Node20&#45;&gt;Node14 -->
<g id="edge30_Node000020_Node000014" class="edge">
<title>Node20&#45;&gt;Node14</title>
<g id="a_edge30_Node000020_Node000014"><a xlink:title=" ">
<path fill="none" stroke="#63b8ff" d="M1008.25,-230.97C966.17,-221.33 917.01,-207.98 899.5,-195 860.13,-165.8 834.55,-111.9 823.22,-83.73"/>
<polygon fill="#63b8ff" stroke="#63b8ff" points="826.45,-82.37 819.58,-74.3 819.92,-84.89 826.45,-82.37"/>
</a>
</g>
</g>
<!-- Node21 -->
<g id="Node000021" class="node">
<title>Node21</title>
<g id="a_Node000021"><a xlink:title=" ">
<polygon fill="#e0e0e0" stroke="#999999" points="1075.5,-195 1019.5,-195 1019.5,-176 1075.5,-176 1075.5,-195"/>
<text text-anchor="middle" x="1047.5" y="-183" font-family="Helvetica,sans-Serif" font-size="10.00">optional</text>
</a>
</g>
</g>
<!-- Node20&#45;&gt;Node21 -->
<g id="edge32_Node000020_Node000021" class="edge">
<title>Node20&#45;&gt;Node21</title>
<g id="a_edge32_Node000020_Node000021"><a xlink:title=" ">
<path fill="none" stroke="#63b8ff" d="M1069.48,-230.84C1065.53,-222.87 1060.56,-212.84 1056.34,-204.33"/>
<polygon fill="#63b8ff" stroke="#63b8ff" points="1059.42,-202.67 1051.85,-195.27 1053.15,-205.78 1059.42,-202.67"/>
</a>
</g>
</g>
<!-- Node22 -->
<g id="Node000022" class="node">
<title>Node22</title>
<g id="a_Node000022"><a xlink:title=" ">
<polygon fill="#e0e0e0" stroke="#999999" points="1331,-195 1238,-195 1238,-176 1331,-176 1331,-195"/>
<text text-anchor="middle" x="1284.5" y="-183" font-family="Helvetica,sans-Serif" font-size="10.00">unordered_map</text>
</a>
</g>
</g>
<!-- Node20&#45;&gt;Node22 -->
<g id="edge33_Node000020_Node000022" class="edge">
<title>Node20&#45;&gt;Node22</title>
<g id="a_edge33_Node000020_Node000022"><a xlink:title=" ">
<path fill="none" stroke="#63b8ff" d="M1126.32,-230.99C1162.37,-220.85 1210.48,-207.32 1244.13,-197.85"/>
<polygon fill="#63b8ff" stroke="#63b8ff" points="1245.41,-201.13 1254.09,-195.05 1243.51,-194.39 1245.41,-201.13"/>
</a>
</g>
</g>
<!-- Node23&#45;&gt;Node3 -->
<g id="edge35_Node000023_Node000003" class="edge">
<title>Node23&#45;&gt;Node3</title>
<g id="a_edge35_Node000023_Node000003"><a xlink:title=" ">
<path fill="none" stroke="#63b8ff" d="M1335.87,-232.22C1333.05,-231.79 1330.25,-231.39 1327.5,-231 1325.31,-230.69 1071.06,-201.87 973.25,-190.78"/>
<polygon fill="#63b8ff" stroke="#63b8ff" points="973.53,-187.29 963.2,-189.64 972.74,-194.24 973.53,-187.29"/>
</a>
</g>
</g>
<!-- Node23&#45;&gt;Node9 -->
<g id="edge39_Node000023_Node000009" class="edge">
<title>Node23&#45;&gt;Node9</title>
<g id="a_edge39_Node000023_Node000009"><a xlink:title=" ">
<path fill="none" stroke="#63b8ff" d="M1404.82,-230.83C1398.52,-216.17 1387.4,-193.08 1373.5,-176 1340.65,-135.63 1291.41,-99.05 1263.28,-79.78"/>
<polygon fill="#63b8ff" stroke="#63b8ff" points="1265.18,-76.84 1254.93,-74.15 1261.27,-82.65 1265.18,-76.84"/>
</a>
</g>
</g>
<!-- Node23&#45;&gt;Node14 -->
<g id="edge36_Node000023_Node000014" class="edge">
<title>Node23&#45;&gt;Node14</title>
<g id="a_edge36_Node000023_Node000014"><a xlink:title=" ">
<path fill="none" stroke="#63b8ff" d="M1400.81,-230.71C1388.79,-214.31 1366.66,-188.13 1340.5,-176 1178.96,-101.11 1109.72,-198.36 941.5,-140 918.44,-132 916.37,-122.66 895.5,-110 877.67,-99.18 857.13,-87.64 841.47,-79.02"/>
<polygon fill="#63b8ff" stroke="#63b8ff" points="842.87,-75.8 832.41,-74.07 839.51,-81.94 842.87,-75.8"/>
</a>
</g>
</g>
<!-- Node23&#45;&gt;Node21 -->
<g id="edge37_Node000023_Node000021" class="edge">
<title>Node23&#45;&gt;Node21</title>
<g id="a_edge37_Node000023_Node000021"><a xlink:title=" ">
<path fill="none" stroke="#63b8ff" d="M1335.85,-232.37C1333.03,-231.91 1330.24,-231.45 1327.5,-231 1241.21,-216.87 1139.84,-200.92 1085.87,-192.48"/>
<polygon fill="#63b8ff" stroke="#63b8ff" points="1086.15,-188.98 1075.73,-190.9 1085.07,-195.9 1086.15,-188.98"/>
</a>
</g>
</g>
<!-- Node23&#45;&gt;Node22 -->
<g id="edge38_Node000023_Node000022" class="edge">
<title>Node23&#45;&gt;Node22</title>
<g id="a_edge38_Node000023_Node000022"><a xlink:title=" ">
<path fill="none" stroke="#63b8ff" d="M1380.32,-230.99C1359.67,-221.4 1332.5,-208.79 1312.37,-199.44"/>
<polygon fill="#63b8ff" stroke="#63b8ff" points="1313.65,-196.18 1303.11,-195.14 1310.7,-202.52 1313.65,-196.18"/>
</a>
</g>
</g>
<!-- Node24 -->
<g id="Node000024" class="node">
<title>Node24</title>
<g id="a_Node000024"><a xlink:title=" ">
<polygon fill="#e0e0e0" stroke="#999999" points="1467.5,-195 1425.5,-195 1425.5,-176 1467.5,-176 1467.5,-195"/>
<text text-anchor="middle" x="1446.5" y="-183" font-family="Helvetica,sans-Serif" font-size="10.00">array</text>
</a>
</g>
</g>
<!-- Node23&#45;&gt;Node24 -->
<g id="edge40_Node000023_Node000024" class="edge">
<title>Node23&#45;&gt;Node24</title>
<g id="a_edge40_Node000023_Node000024"><a xlink:title=" ">
<path fill="none" stroke="#63b8ff" d="M1419.21,-230.84C1424.17,-222.78 1430.43,-212.62 1435.7,-204.06"/>
<polygon fill="#63b8ff" stroke="#63b8ff" points="1438.85,-205.62 1441.11,-195.27 1432.88,-201.95 1438.85,-205.62"/>
</a>
</g>
</g>
<!-- Node25&#45;&gt;Node3 -->
<g id="edge42_Node000025_Node000003" class="edge">
<title>Node25&#45;&gt;Node3</title>
<g id="a_edge42_Node000025_Node000003"><a xlink:title=" ">
<path fill="none" stroke="#63b8ff" d="M1502.89,-232.08C1500.06,-231.7 1497.26,-231.33 1494.5,-231 1280.36,-205.03 1225.26,-215.15 1010.5,-195 998.39,-193.86 985.2,-192.43 973.31,-191.07"/>
<polygon fill="#63b8ff" stroke="#63b8ff" points="973.59,-187.58 963.26,-189.9 972.78,-194.54 973.59,-187.58"/>
</a>
</g>
</g>
<!-- Node25&#45;&gt;Node9 -->
<g id="edge46_Node000025_Node000009" class="edge">
<title>Node25&#45;&gt;Node9</title>
<g id="a_edge46_Node000025_Node000009"><a xlink:title=" ">
<path fill="none" stroke="#63b8ff" d="M1566.56,-230.91C1554.12,-215.67 1532.53,-191.48 1509.5,-176 1432.75,-124.4 1328.11,-89.95 1275.15,-74.61"/>
<polygon fill="#63b8ff" stroke="#63b8ff" points="1275.85,-71.17 1265.27,-71.8 1273.93,-77.9 1275.85,-71.17"/>
</a>
</g>
</g>
<!-- Node25&#45;&gt;Node14 -->
<g id="edge43_Node000025_Node000014" class="edge">
<title>Node25&#45;&gt;Node14</title>
<g id="a_edge43_Node000025_Node000014"><a xlink:title=" ">
<path fill="none" stroke="#63b8ff" d="M1558.02,-230.88C1531.28,-211.62 1485.47,-179.13 1476.5,-176 1265.71,-102.49 1185.93,-214.54 975.5,-140 953.53,-132.22 953.09,-120.92 932.5,-110 907.32,-96.64 877.24,-85.22 854.01,-77.29"/>
<polygon fill="#63b8ff" stroke="#63b8ff" points="855.11,-73.97 844.51,-74.11 852.89,-80.61 855.11,-73.97"/>
</a>
</g>
</g>
<!-- Node25&#45;&gt;Node21 -->
<g id="edge44_Node000025_Node000021" class="edge">
<title>Node25&#45;&gt;Node21</title>
<g id="a_edge44_Node000025_Node000021"><a xlink:title=" ">
<path fill="none" stroke="#63b8ff" d="M1502.88,-232.17C1500.05,-231.76 1497.25,-231.37 1494.5,-231 1343.71,-210.8 1163.17,-195.55 1085.78,-189.43"/>
<polygon fill="#63b8ff" stroke="#63b8ff" points="1085.8,-185.92 1075.56,-188.63 1085.25,-192.9 1085.8,-185.92"/>
</a>
</g>
</g>
<!-- Node25&#45;&gt;Node22 -->
<g id="edge45_Node000025_Node000022" class="edge">
<title>Node25&#45;&gt;Node22</title>
<g id="a_edge45_Node000025_Node000022"><a xlink:title=" ">
<path fill="none" stroke="#63b8ff" d="M1507.32,-230.99C1455.11,-220.56 1384.96,-206.56 1337.42,-197.07"/>
<polygon fill="#63b8ff" stroke="#63b8ff" points="1337.83,-193.58 1327.34,-195.05 1336.46,-200.44 1337.83,-193.58"/>
</a>
</g>
</g>
<!-- Node25&#45;&gt;Node24 -->
<g id="edge47_Node000025_Node000024" class="edge">
<title>Node25&#45;&gt;Node24</title>
<g id="a_edge47_Node000025_Node000024"><a xlink:title=" ">
<path fill="none" stroke="#63b8ff" d="M1546.12,-230.99C1524.56,-221.36 1496.15,-208.67 1475.19,-199.31"/>
<polygon fill="#63b8ff" stroke="#63b8ff" points="1476.4,-196.02 1465.85,-195.14 1473.55,-202.41 1476.4,-196.02"/>
</a>
</g>
</g>
<!-- Node26&#45;&gt;Node3 -->
<g id="edge49_Node000026_Node000003" class="edge">
<title>Node26&#45;&gt;Node3</title>
<g id="a_edge49_Node000026_Node000003"><a xlink:title=" ">
<path fill="none" stroke="#63b8ff" d="M915.79,-230.84C919.3,-222.95 923.7,-213.05 927.45,-204.61"/>
<polygon fill="#63b8ff" stroke="#63b8ff" points="930.74,-205.83 931.6,-195.27 924.34,-202.98 930.74,-205.83"/>
</a>
</g>
</g>
<!-- Node26&#45;&gt;Node9 -->
<g id="edge52_Node000026_Node000009" class="edge">
<title>Node26&#45;&gt;Node9</title>
<g id="a_edge52_Node000026_Node000009"><a xlink:title=" ">
<path fill="none" stroke="#63b8ff" d="M925.36,-230.85C944.24,-214.84 977.38,-189.27 1010.5,-176 1102.06,-139.31 1159.86,-209.86 1229.5,-140 1243.78,-125.68 1245.2,-101.54 1244.08,-84.63"/>
<polygon fill="#63b8ff" stroke="#63b8ff" points="1247.52,-83.88 1243.02,-74.29 1240.56,-84.59 1247.52,-83.88"/>
</a>
</g>
</g>
<!-- Node26&#45;&gt;Node14 -->
<g id="edge50_Node000026_Node000014" class="edge">
<title>Node26&#45;&gt;Node14</title>
<g id="a_edge50_Node000026_Node000014"><a xlink:title=" ">
<path fill="none" stroke="#63b8ff" d="M871.03,-230.84C854.85,-222.85 837.5,-211.17 827.5,-195 806.21,-160.58 809.35,-110.82 813.14,-84.11"/>
<polygon fill="#63b8ff" stroke="#63b8ff" points="816.61,-84.62 814.74,-74.19 809.7,-83.51 816.61,-84.62"/>
</a>
</g>
</g>
<!-- Node26&#45;&gt;Node21 -->
<g id="edge51_Node000026_Node000021" class="edge">
<title>Node26&#45;&gt;Node21</title>
<g id="a_edge51_Node000026_Node000021"><a xlink:title=" ">
<path fill="none" stroke="#63b8ff" d="M942.55,-230.99C965.48,-221.27 995.74,-208.44 1017.88,-199.06"/>
<polygon fill="#63b8ff" stroke="#63b8ff" points="1019.28,-202.26 1027.12,-195.14 1016.55,-195.82 1019.28,-202.26"/>
</a>
</g>
</g>
<!-- Node27&#45;&gt;Node3 -->
<g id="edge54_Node000027_Node000003" class="edge">
<title>Node27&#45;&gt;Node3</title>
<g id="a_edge54_Node000027_Node000003"><a xlink:title=" ">
<path fill="none" stroke="#63b8ff" d="M788.73,-230.99C822.24,-220.83 866.97,-207.27 898.21,-197.8"/>
<polygon fill="#63b8ff" stroke="#63b8ff" points="899.29,-201.13 907.84,-194.88 897.26,-194.43 899.29,-201.13"/>
</a>
</g>
</g>
<!-- Node27&#45;&gt;Node7 -->
<g id="edge56_Node000027_Node000007" class="edge">
<title>Node27&#45;&gt;Node7</title>
<g id="a_edge56_Node000027_Node000007"><a xlink:title=" ">
<path fill="none" stroke="#63b8ff" d="M763.91,-230.86C787.83,-215.57 828.13,-191.35 865.5,-176 900.26,-161.72 940.4,-150.21 974.13,-141.84"/>
<polygon fill="#63b8ff" stroke="#63b8ff" points="975.03,-145.22 983.91,-139.45 973.37,-138.42 975.03,-145.22"/>
</a>
</g>
</g>
<!-- Node27&#45;&gt;Node9 -->
<g id="edge58_Node000027_Node000009" class="edge">
<title>Node27&#45;&gt;Node9</title>
<g id="a_edge58_Node000027_Node000009"><a xlink:title=" ">
<path fill="none" stroke="#63b8ff" d="M768.03,-230.99C798.42,-214.99 851.13,-189.3 899.5,-176 1025.58,-141.33 1080.1,-208.48 1191.5,-140 1212.6,-127.03 1226.78,-101.43 1234.49,-83.9"/>
<polygon fill="#63b8ff" stroke="#63b8ff" points="1237.91,-84.78 1238.46,-74.2 1231.43,-82.13 1237.91,-84.78"/>
</a>
</g>
</g>
<!-- Node27&#45;&gt;Node14 -->
<g id="edge55_Node000027_Node000014" class="edge">
<title>Node27&#45;&gt;Node14</title>
<g id="a_edge55_Node000027_Node000014"><a xlink:title=" ">
<path fill="none" stroke="#63b8ff" d="M746.37,-230.82C753.42,-205.79 769.51,-152.43 789.5,-110 793.93,-100.6 799.83,-90.66 804.98,-82.57"/>
<polygon fill="#63b8ff" stroke="#63b8ff" points="808,-84.34 810.56,-74.06 802.15,-80.51 808,-84.34"/>
</a>
</g>
</g>
<!-- Node27&#45;&gt;Node21 -->
<g id="edge57_Node000027_Node000021" class="edge">
<title>Node27&#45;&gt;Node21</title>
<g id="a_edge57_Node000027_Node000021"><a xlink:title=" ">
<path fill="none" stroke="#63b8ff" d="M815.56,-230.99C876.47,-219.3 960.84,-203.12 1009.24,-193.84"/>
<polygon fill="#63b8ff" stroke="#63b8ff" points="1010.13,-197.23 1019.29,-191.91 1008.81,-190.36 1010.13,-197.23"/>
</a>
</g>
</g>
<!-- Node28&#45;&gt;Node3 -->
<g id="edge60_Node000028_Node000003" class="edge">
<title>Node28&#45;&gt;Node3</title>
<g id="a_edge60_Node000028_Node000003"><a xlink:title=" ">
<path fill="none" stroke="#63b8ff" d="M149.1,-232.14C152.27,-231.73 155.41,-231.34 158.5,-231 441.44,-199.41 784.99,-189.68 897.7,-187.22"/>
<polygon fill="#63b8ff" stroke="#63b8ff" points="897.96,-190.72 907.88,-187 897.81,-183.72 897.96,-190.72"/>
</a>
</g>
</g>
<!-- Node28&#45;&gt;Node14 -->
<g id="edge61_Node000028_Node000014" class="edge">
<title>Node28&#45;&gt;Node14</title>
<g id="a_edge61_Node000028_Node000014"><a xlink:title=" ">
<path fill="none" stroke="#63b8ff" d="M117.06,-230.9C198.88,-204.22 384.15,-145.79 543.5,-110 622.95,-92.16 716.93,-78.43 771.33,-71.19"/>
<polygon fill="#63b8ff" stroke="#63b8ff" points="771.88,-74.65 781.34,-69.87 770.97,-67.71 771.88,-74.65"/>
</a>
</g>
</g>
<!-- Node29 -->
<g id="Node000029" class="node">
<title>Node29</title>
<g id="a_Node000029"><a xlink:title=" ">
<polygon fill="#e0e0e0" stroke="#999999" points="98,-195 51,-195 51,-176 98,-176 98,-195"/>
<text text-anchor="middle" x="74.5" y="-183" font-family="Helvetica,sans-Serif" font-size="10.00">deque</text>
</a>
</g>
</g>
<!-- Node28&#45;&gt;Node29 -->
<g id="edge62_Node000028_Node000029" class="edge">
<title>Node28&#45;&gt;Node29</title>
<g id="a_edge62_Node000028_Node000029"><a xlink:title=" ">
<path fill="none" stroke="#63b8ff" d="M74.5,-230.84C74.5,-223.21 74.5,-213.7 74.5,-205.45"/>
<polygon fill="#63b8ff" stroke="#63b8ff" points="78,-205.27 74.5,-195.27 71,-205.27 78,-205.27"/>
</a>
</g>
</g>
<!-- Node30&#45;&gt;Node3 -->
<g id="edge64_Node000030_Node000003" class="edge">
<title>Node30&#45;&gt;Node3</title>
<g id="a_edge64_Node000030_Node000003"><a xlink:title=" ">
<path fill="none" stroke="#63b8ff" d="M483.12,-232.31C486.28,-231.85 489.42,-231.41 492.5,-231 642.15,-211.04 821.31,-195.63 897.85,-189.45"/>
<polygon fill="#63b8ff" stroke="#63b8ff" points="898.26,-192.93 907.95,-188.64 897.7,-185.95 898.26,-192.93"/>
</a>
</g>
</g>
<!-- Node30&#45;&gt;Node9 -->
<g id="edge66_Node000030_Node000009" class="edge">
<title>Node30&#45;&gt;Node9</title>
<g id="a_edge66_Node000030_Node000009"><a xlink:title=" ">
<path fill="none" stroke="#63b8ff" d="M469.07,-230.93C537.54,-215.48 652.49,-190.88 752.5,-176 915.05,-151.81 970.29,-206.66 1120.5,-140 1138.62,-131.96 1137.17,-121.24 1153.5,-110 1171.7,-97.47 1193.93,-86.26 1211.48,-78.22"/>
<polygon fill="#63b8ff" stroke="#63b8ff" points="1213,-81.38 1220.7,-74.1 1210.15,-74.99 1213,-81.38"/>
</a>
</g>
</g>
<!-- Node30&#45;&gt;Node14 -->
<g id="edge65_Node000030_Node000014" class="edge">
<title>Node30&#45;&gt;Node14</title>
<g id="a_edge65_Node000030_Node000014"><a xlink:title=" ">
<path fill="none" stroke="#63b8ff" d="M439.95,-230.87C495.06,-206.13 612.72,-153.5 712.5,-110 737.52,-99.09 766.03,-86.91 786.86,-78.06"/>
<polygon fill="#63b8ff" stroke="#63b8ff" points="788.3,-81.25 796.14,-74.12 785.57,-74.8 788.3,-81.25"/>
</a>
</g>
</g>
<!-- Node31&#45;&gt;Node3 -->
<g id="edge68_Node000031_Node000003" class="edge">
<title>Node31&#45;&gt;Node3</title>
<g id="a_edge68_Node000031_Node000003"><a xlink:title=" ">
<path fill="none" stroke="#63b8ff" d="M1169.73,-230.99C1107.88,-219.24 1022.09,-202.95 973.35,-193.69"/>
<polygon fill="#63b8ff" stroke="#63b8ff" points="973.72,-190.2 963.24,-191.77 972.41,-197.07 973.72,-190.2"/>
</a>
</g>
</g>
<!-- Node31&#45;&gt;Node14 -->
<g id="edge69_Node000031_Node000014" class="edge">
<title>Node31&#45;&gt;Node14</title>
<g id="a_edge69_Node000031_Node000014"><a xlink:title=" ">
<path fill="none" stroke="#63b8ff" d="M1216.04,-230.94C1184.88,-215.49 1132.18,-190.9 1084.5,-176 1006.21,-151.54 977.27,-175.84 903.5,-140 873.99,-125.66 846.38,-98.86 830.48,-81.61"/>
<polygon fill="#63b8ff" stroke="#63b8ff" points="832.94,-79.12 823.65,-74.01 827.73,-83.79 832.94,-79.12"/>
</a>
</g>
</g>
<!-- Node31&#45;&gt;Node22 -->
<g id="edge70_Node000031_Node000022" class="edge">
<title>Node31&#45;&gt;Node22</title>
<g id="a_edge70_Node000031_Node000022"><a xlink:title=" ">
<path fill="none" stroke="#63b8ff" d="M1253.42,-230.84C1259.19,-222.61 1266.5,-212.18 1272.58,-203.51"/>
<polygon fill="#63b8ff" stroke="#63b8ff" points="1275.48,-205.46 1278.36,-195.27 1269.75,-201.45 1275.48,-205.46"/>
</a>
</g>
</g>
<!-- Node32 -->
<g id="Node000032" class="node">
<title>Node32</title>
<g id="a_Node000032"><a xlink:title=" ">
<polygon fill="#e0e0e0" stroke="#999999" points="1219.5,-195 1169.5,-195 1169.5,-176 1219.5,-176 1219.5,-195"/>
<text text-anchor="middle" x="1194.5" y="-183" font-family="Helvetica,sans-Serif" font-size="10.00">chrono</text>
</a>
</g>
</g>
<!-- Node31&#45;&gt;Node32 -->
<g id="edge71_Node000031_Node000032" class="edge">
<title>Node31&#45;&gt;Node32</title>
<g id="a_edge71_Node000031_Node000032"><a xlink:title=" ">
<path fill="none" stroke="#63b8ff" d="M1231.64,-230.84C1224.6,-222.43 1215.64,-211.74 1208.29,-202.96"/>
<polygon fill="#63b8ff" stroke="#63b8ff" points="1210.95,-200.68 1201.84,-195.27 1205.58,-205.18 1210.95,-200.68"/>
</a>
</g>
</g>
</g>
</svg>
