<?xml version="1.0" encoding="UTF-8" standalone="no"?>
<!DOCTYPE svg PUBLIC "-//W3C//DTD SVG 1.1//EN"
 "http://www.w3.org/Graphics/SVG/1.1/DTD/svg11.dtd">
<!-- Generated by graphviz version 2.43.0 (0)
 -->
<!-- Title: include/webcface/func_result.h Pages: 1 -->
<svg width="1244pt" height="313pt"
 viewBox="0.00 0.00 1244.08 313.00" xmlns="http://www.w3.org/2000/svg" xmlns:xlink="http://www.w3.org/1999/xlink">
<g id="graph0" class="graph" transform="scale(1 1) rotate(0) translate(4 309)">
<title>include/webcface/func_result.h</title>
<!-- Node1 -->
<g id="Node000001" class="node">
<title>Node1</title>
<g id="a_Node000001"><a xlink:title=" ">
<polygon fill="#999999" stroke="#666666" points="724.58,-305 599.58,-305 599.58,-275 724.58,-275 724.58,-305"/>
<text text-anchor="start" x="607.58" y="-293" font-family="Helvetica,sans-Serif" font-size="10.00">include/webcface/func</text>
<text text-anchor="middle" x="662.08" y="-282" font-family="Helvetica,sans-Serif" font-size="10.00">_result.h</text>
</a>
</g>
</g>
<!-- Node2 -->
<g id="Node000002" class="node">
<title>Node2</title>
<g id="a_Node000002"><a xlink:href="client__internal_8h.html" target="_top" xlink:title=" ">
<polygon fill="white" stroke="#666666" points="503.58,-129 378.58,-129 378.58,-110 503.58,-110 503.58,-129"/>
<text text-anchor="middle" x="441.08" y="-117" font-family="Helvetica,sans-Serif" font-size="10.00">client/client_internal.h</text>
</a>
</g>
</g>
<!-- Node1&#45;&gt;Node2 -->
<g id="edge1_Node000001_Node000002" class="edge">
<title>Node1&#45;&gt;Node2</title>
<g id="a_edge1_Node000001_Node000002"><a xlink:title=" ">
<path fill="none" stroke="#63b8ff" d="M589.54,-277.74C561.12,-270.45 529.73,-258.51 506.08,-239 468.97,-208.39 449.61,-150.82 443.37,-129.09"/>
<polygon fill="#63b8ff" stroke="#63b8ff" points="588.91,-281.19 599.45,-280.13 590.55,-274.38 588.91,-281.19"/>
</a>
</g>
</g>
<!-- Node13 -->
<g id="Node000013" class="node">
<title>Node13</title>
<g id="a_Node000013"><a xlink:href="func__internal_8h.html" target="_top" xlink:title=" ">
<polygon fill="white" stroke="#666666" points="633.58,-239 514.58,-239 514.58,-220 633.58,-220 633.58,-239"/>
<text text-anchor="middle" x="574.08" y="-227" font-family="Helvetica,sans-Serif" font-size="10.00">client/func_internal.h</text>
</a>
</g>
</g>
<!-- Node1&#45;&gt;Node13 -->
<g id="edge12_Node000001_Node000013" class="edge">
<title>Node1&#45;&gt;Node13</title>
<g id="a_edge12_Node000001_Node000013"><a xlink:title=" ">
<path fill="none" stroke="#63b8ff" d="M632.09,-269.06C616.73,-258.85 598.82,-246.95 587.01,-239.09"/>
<polygon fill="#63b8ff" stroke="#63b8ff" points="630.51,-272.22 640.78,-274.84 634.39,-266.39 630.51,-272.22"/>
</a>
</g>
</g>
<!-- Node14 -->
<g id="Node000014" class="node">
<title>Node14</title>
<g id="a_Node000014"><a xlink:href="func_8h.html" target="_top" xlink:title=" ">
<polygon fill="white" stroke="#666666" points="872.08,-239 738.08,-239 738.08,-220 872.08,-220 872.08,-239"/>
<text text-anchor="middle" x="805.08" y="-227" font-family="Helvetica,sans-Serif" font-size="10.00">include/webcface/func.h</text>
</a>
</g>
</g>
<!-- Node1&#45;&gt;Node14 -->
<g id="edge14_Node000001_Node000014" class="edge">
<title>Node1&#45;&gt;Node14</title>
<g id="a_edge14_Node000001_Node000014"><a xlink:title=" ">
<path fill="none" stroke="#63b8ff" d="M705.61,-271.19C731.59,-260.57 763.42,-247.54 783.96,-239.14"/>
<polygon fill="#63b8ff" stroke="#63b8ff" points="704.26,-267.96 696.33,-274.99 706.91,-274.44 704.26,-267.96"/>
</a>
</g>
</g>
<!-- Node16 -->
<g id="Node000016" class="node">
<title>Node16</title>
<g id="a_Node000016"><a xlink:href="webcface_8h.html" target="_top" xlink:title=" ">
<polygon fill="white" stroke="#666666" points="1202.08,-19 1042.08,-19 1042.08,0 1202.08,0 1202.08,-19"/>
<text text-anchor="middle" x="1122.08" y="-7" font-family="Helvetica,sans-Serif" font-size="10.00">include/webcface/webcface.h</text>
</a>
</g>
</g>
<!-- Node1&#45;&gt;Node16 -->
<g id="edge35_Node000001_Node000016" class="edge">
<title>Node1&#45;&gt;Node16</title>
<g id="a_edge35_Node000001_Node000016"><a xlink:title=" ">
<path fill="none" stroke="#63b8ff" d="M734.94,-289.66C889.48,-289.08 1236.08,-276.54 1236.08,-175.5 1236.08,-175.5 1236.08,-175.5 1236.08,-118.5 1236.08,-67.93 1176.22,-33.94 1143.25,-19.05"/>
<polygon fill="#63b8ff" stroke="#63b8ff" points="734.59,-286.16 724.6,-289.68 734.61,-293.16 734.59,-286.16"/>
</a>
</g>
</g>
<!-- Node3 -->
<g id="Node000003" class="node">
<title>Node3</title>
<g id="a_Node000003"><a xlink:href="client_8cc.html" target="_top" xlink:title=" ">
<polygon fill="white" stroke="#666666" points="876.58,-19 789.58,-19 789.58,0 876.58,0 876.58,-19"/>
<text text-anchor="middle" x="833.08" y="-7" font-family="Helvetica,sans-Serif" font-size="10.00">client/client.cc</text>
</a>
</g>
</g>
<!-- Node2&#45;&gt;Node3 -->
<g id="edge2_Node000002_Node000003" class="edge">
<title>Node2&#45;&gt;Node3</title>
<g id="a_edge2_Node000002_Node000003"><a xlink:title=" ">
<path fill="none" stroke="#63b8ff" d="M437.83,-99.49C436.58,-85.25 437.62,-66.35 449.08,-55 472.93,-31.39 693.89,-17.51 789.42,-12.57"/>
<polygon fill="#63b8ff" stroke="#63b8ff" points="434.4,-100.21 439.17,-109.67 441.34,-99.3 434.4,-100.21"/>
</a>
</g>
</g>
<!-- Node4 -->
<g id="Node000004" class="node">
<title>Node4</title>
<g id="a_Node000004"><a xlink:href="client__ws_8cc.html" target="_top" xlink:title=" ">
<polygon fill="white" stroke="#666666" points="479.08,-19 373.08,-19 373.08,0 479.08,0 479.08,-19"/>
<text text-anchor="middle" x="426.08" y="-7" font-family="Helvetica,sans-Serif" font-size="10.00">client/client_ws.cc</text>
</a>
</g>
</g>
<!-- Node2&#45;&gt;Node4 -->
<g id="edge3_Node000002_Node000004" class="edge">
<title>Node2&#45;&gt;Node4</title>
<g id="a_edge3_Node000002_Node000004"><a xlink:title=" ">
<path fill="none" stroke="#63b8ff" d="M368.13,-116.27C250.55,-111.92 29.84,-100.31 6.08,-74 -44.08,-18.44 249.4,-11.07 373.08,-10.39"/>
<polygon fill="#63b8ff" stroke="#63b8ff" points="368.02,-119.77 378.14,-116.63 368.27,-112.77 368.02,-119.77"/>
</a>
</g>
</g>
<!-- Node5 -->
<g id="Node000005" class="node">
<title>Node5</title>
<g id="a_Node000005"><a xlink:href="field_8cc.html" target="_top" xlink:title=" ">
<polygon fill="white" stroke="#666666" points="897.58,-74 816.58,-74 816.58,-55 897.58,-55 897.58,-74"/>
<text text-anchor="middle" x="857.08" y="-62" font-family="Helvetica,sans-Serif" font-size="10.00">client/field.cc</text>
</a>
</g>
</g>
<!-- Node2&#45;&gt;Node5 -->
<g id="edge4_Node000002_Node000005" class="edge">
<title>Node2&#45;&gt;Node5</title>
<g id="a_edge4_Node000002_Node000005"><a xlink:title=" ">
<path fill="none" stroke="#63b8ff" d="M514.04,-110.76C588.21,-102.64 706.35,-88.98 808.08,-74 810.81,-73.6 813.63,-73.16 816.46,-72.71"/>
<polygon fill="#63b8ff" stroke="#63b8ff" points="513.44,-107.31 503.88,-111.87 514.2,-114.27 513.44,-107.31"/>
</a>
</g>
</g>
<!-- Node6 -->
<g id="Node000006" class="node">
<title>Node6</title>
<g id="a_Node000006"><a xlink:href="func_8cc.html" target="_top" xlink:title=" ">
<polygon fill="white" stroke="#666666" points="539.58,-74 458.58,-74 458.58,-55 539.58,-55 539.58,-74"/>
<text text-anchor="middle" x="499.08" y="-62" font-family="Helvetica,sans-Serif" font-size="10.00">client/func.cc</text>
</a>
</g>
</g>
<!-- Node2&#45;&gt;Node6 -->
<g id="edge5_Node000002_Node000006" class="edge">
<title>Node2&#45;&gt;Node6</title>
<g id="a_edge5_Node000002_Node000006"><a xlink:title=" ">
<path fill="none" stroke="#63b8ff" d="M457.99,-103.04C468.28,-93.64 481.05,-81.98 489.59,-74.17"/>
<polygon fill="#63b8ff" stroke="#63b8ff" points="455.42,-100.66 450.4,-109.98 460.14,-105.82 455.42,-100.66"/>
</a>
</g>
</g>
<!-- Node7 -->
<g id="Node000007" class="node">
<title>Node7</title>
<g id="a_Node000007"><a xlink:href="log_8cc.html" target="_top" xlink:title=" ">
<polygon fill="white" stroke="#666666" points="195.58,-74 120.58,-74 120.58,-55 195.58,-55 195.58,-74"/>
<text text-anchor="middle" x="158.08" y="-62" font-family="Helvetica,sans-Serif" font-size="10.00">client/log.cc</text>
</a>
</g>
</g>
<!-- Node2&#45;&gt;Node7 -->
<g id="edge6_Node000002_Node000007" class="edge">
<title>Node2&#45;&gt;Node7</title>
<g id="a_edge6_Node000002_Node000007"><a xlink:title=" ">
<path fill="none" stroke="#63b8ff" d="M385.49,-108.09C329.42,-97.59 244.37,-81.66 195.74,-72.55"/>
<polygon fill="#63b8ff" stroke="#63b8ff" points="385.14,-111.58 395.61,-109.98 386.43,-104.7 385.14,-111.58"/>
</a>
</g>
</g>
<!-- Node8 -->
<g id="Node000008" class="node">
<title>Node8</title>
<g id="a_Node000008"><a xlink:href="logger_8cc.html" target="_top" xlink:title=" ">
<polygon fill="white" stroke="#666666" points="304.08,-74 214.08,-74 214.08,-55 304.08,-55 304.08,-74"/>
<text text-anchor="middle" x="259.08" y="-62" font-family="Helvetica,sans-Serif" font-size="10.00">client/logger.cc</text>
</a>
</g>
</g>
<!-- Node2&#45;&gt;Node8 -->
<g id="edge7_Node000002_Node000008" class="edge">
<title>Node2&#45;&gt;Node8</title>
<g id="a_edge7_Node000002_Node000008"><a xlink:title=" ">
<path fill="none" stroke="#63b8ff" d="M402.22,-107.18C368.18,-97.27 319.46,-83.08 288.55,-74.08"/>
<polygon fill="#63b8ff" stroke="#63b8ff" points="401.26,-110.55 411.84,-109.98 403.22,-103.83 401.26,-110.55"/>
</a>
</g>
</g>
<!-- Node9 -->
<g id="Node000009" class="node">
<title>Node9</title>
<g id="a_Node000009"><a xlink:href="member_8cc.html" target="_top" xlink:title=" ">
<polygon fill="white" stroke="#666666" points="658.58,-74 557.58,-74 557.58,-55 658.58,-55 658.58,-74"/>
<text text-anchor="middle" x="608.08" y="-62" font-family="Helvetica,sans-Serif" font-size="10.00">client/member.cc</text>
</a>
</g>
</g>
<!-- Node2&#45;&gt;Node9 -->
<g id="edge8_Node000002_Node000009" class="edge">
<title>Node2&#45;&gt;Node9</title>
<g id="a_edge8_Node000002_Node000009"><a xlink:title=" ">
<path fill="none" stroke="#63b8ff" d="M477.54,-106.93C508.73,-97.03 552.92,-83.01 581.04,-74.08"/>
<polygon fill="#63b8ff" stroke="#63b8ff" points="476.38,-103.62 467.91,-109.98 478.5,-110.3 476.38,-103.62"/>
</a>
</g>
</g>
<!-- Node10 -->
<g id="Node000010" class="node">
<title>Node10</title>
<g id="a_Node000010"><a xlink:href="text_8cc.html" target="_top" xlink:title=" ">
<polygon fill="white" stroke="#666666" points="402.08,-74 322.08,-74 322.08,-55 402.08,-55 402.08,-74"/>
<text text-anchor="middle" x="362.08" y="-62" font-family="Helvetica,sans-Serif" font-size="10.00">client/text.cc</text>
</a>
</g>
</g>
<!-- Node2&#45;&gt;Node10 -->
<g id="edge9_Node000002_Node000010" class="edge">
<title>Node2&#45;&gt;Node10</title>
<g id="a_edge9_Node000002_Node000010"><a xlink:title=" ">
<path fill="none" stroke="#63b8ff" d="M419.69,-104.15C405.41,-94.57 387.1,-82.29 375,-74.17"/>
<polygon fill="#63b8ff" stroke="#63b8ff" points="418.13,-107.32 428.39,-109.98 422.03,-101.51 418.13,-107.32"/>
</a>
</g>
</g>
<!-- Node11 -->
<g id="Node000011" class="node">
<title>Node11</title>
<g id="a_Node000011"><a xlink:href="value_8cc.html" target="_top" xlink:title=" ">
<polygon fill="white" stroke="#666666" points="102.58,-74 15.58,-74 15.58,-55 102.58,-55 102.58,-74"/>
<text text-anchor="middle" x="59.08" y="-62" font-family="Helvetica,sans-Serif" font-size="10.00">client/value.cc</text>
</a>
</g>
</g>
<!-- Node2&#45;&gt;Node11 -->
<g id="edge10_Node000002_Node000011" class="edge">
<title>Node2&#45;&gt;Node11</title>
<g id="a_edge10_Node000002_Node000011"><a xlink:title=" ">
<path fill="none" stroke="#63b8ff" d="M368.33,-109.28C301.41,-100.67 199.46,-87.18 111.08,-74 108.37,-73.6 105.57,-73.17 102.76,-72.73"/>
<polygon fill="#63b8ff" stroke="#63b8ff" points="367.99,-112.77 378.36,-110.57 368.88,-105.83 367.99,-112.77"/>
</a>
</g>
</g>
<!-- Node12 -->
<g id="Node000012" class="node">
<title>Node12</title>
<g id="a_Node000012"><a xlink:href="view_8cc.html" target="_top" xlink:title=" ">
<polygon fill="white" stroke="#666666" points="798.58,-74 715.58,-74 715.58,-55 798.58,-55 798.58,-74"/>
<text text-anchor="middle" x="757.08" y="-62" font-family="Helvetica,sans-Serif" font-size="10.00">client/view.cc</text>
</a>
</g>
</g>
<!-- Node2&#45;&gt;Node12 -->
<g id="edge11_Node000002_Node000012" class="edge">
<title>Node2&#45;&gt;Node12</title>
<g id="a_edge11_Node000002_Node000012"><a xlink:title=" ">
<path fill="none" stroke="#63b8ff" d="M502.01,-108.28C564.8,-97.75 660.96,-81.62 715.51,-72.47"/>
<polygon fill="#63b8ff" stroke="#63b8ff" points="501.13,-104.88 491.85,-109.98 502.29,-111.78 501.13,-104.88"/>
</a>
</g>
</g>
<!-- Node13&#45;&gt;Node2 -->
<g id="edge13_Node000013_Node000002" class="edge">
<title>Node13&#45;&gt;Node2</title>
<g id="a_edge13_Node000013_Node000002"><a xlink:title=" ">
<path fill="none" stroke="#63b8ff" d="M555.24,-213.21C526.91,-190.2 474.26,-147.44 451.74,-129.16"/>
<polygon fill="#63b8ff" stroke="#63b8ff" points="553.23,-216.08 563.2,-219.66 557.64,-210.64 553.23,-216.08"/>
</a>
</g>
</g>
<!-- Node14&#45;&gt;Node3 -->
<g id="edge15_Node000014_Node000003" class="edge">
<title>Node14&#45;&gt;Node3</title>
<g id="a_edge15_Node000014_Node000003"><a xlink:title=" ">
<path fill="none" stroke="#63b8ff" d="M850.97,-217.08C913.12,-198.8 1021.31,-156.35 1065.08,-74 1069.04,-66.54 1070.46,-61.51 1065.08,-55 1041.66,-26.67 937.3,-16.19 876.82,-12.46"/>
<polygon fill="#63b8ff" stroke="#63b8ff" points="849.7,-213.8 841.04,-219.91 851.61,-220.53 849.7,-213.8"/>
</a>
</g>
</g>
<!-- Node14&#45;&gt;Node6 -->
<g id="edge16_Node000014_Node000006" class="edge">
<title>Node14&#45;&gt;Node6</title>
<g id="a_edge16_Node000014_Node000006"><a xlink:title=" ">
<path fill="none" stroke="#63b8ff" d="M751.4,-217.56C721.98,-210.36 685.42,-199.38 655.08,-184 593.19,-152.64 530.87,-96.01 508.11,-74.3"/>
<polygon fill="#63b8ff" stroke="#63b8ff" points="750.95,-221.06 761.49,-219.96 752.57,-214.24 750.95,-221.06"/>
</a>
</g>
</g>
<!-- Node14&#45;&gt;Node9 -->
<g id="edge17_Node000014_Node000009" class="edge">
<title>Node14&#45;&gt;Node9</title>
<g id="a_edge17_Node000014_Node000009"><a xlink:title=" ">
<path fill="none" stroke="#63b8ff" d="M746.98,-217.3C723.68,-210.61 697.75,-200.14 678.08,-184 640.21,-152.93 618.1,-95.63 610.8,-74.04"/>
<polygon fill="#63b8ff" stroke="#63b8ff" points="746.21,-220.72 756.78,-219.94 748.03,-213.96 746.21,-220.72"/>
</a>
</g>
</g>
<!-- Node15 -->
<g id="Node000015" class="node">
<title>Node15</title>
<g id="a_Node000015"><a xlink:href="client_8h.html" target="_top" xlink:title=" ">
<polygon fill="white" stroke="#666666" points="1056.08,-74 916.08,-74 916.08,-55 1056.08,-55 1056.08,-74"/>
<text text-anchor="middle" x="986.08" y="-62" font-family="Helvetica,sans-Serif" font-size="10.00">include/webcface/client.h</text>
</a>
</g>
</g>
<!-- Node14&#45;&gt;Node15 -->
<g id="edge18_Node000014_Node000015" class="edge">
<title>Node14&#45;&gt;Node15</title>
<g id="a_edge18_Node000014_Node000015"><a xlink:title=" ">
<path fill="none" stroke="#63b8ff" d="M829.22,-214.72C858.41,-197.29 907.99,-165.14 943.08,-129 959.77,-111.81 974.25,-87.4 981.37,-74.42"/>
<polygon fill="#63b8ff" stroke="#63b8ff" points="827.34,-211.76 820.5,-219.85 830.89,-217.8 827.34,-211.76"/>
</a>
</g>
</g>
<!-- Node14&#45;&gt;Node16 -->
<g id="edge34_Node000014_Node000016" class="edge">
<title>Node14&#45;&gt;Node16</title>
<g id="a_edge34_Node000014_Node000016"><a xlink:title=" ">
<path fill="none" stroke="#63b8ff" d="M862.7,-217.77C894.45,-210.62 934,-199.62 967.08,-184 1005.44,-165.89 1015.66,-159.56 1045.08,-129 1079.62,-93.12 1107.8,-39.63 1117.99,-19.02"/>
<polygon fill="#63b8ff" stroke="#63b8ff" points="861.71,-214.4 852.69,-219.96 863.21,-221.24 861.71,-214.4"/>
</a>
</g>
</g>
<!-- Node17 -->
<g id="Node000017" class="node">
<title>Node17</title>
<g id="a_Node000017"><a xlink:href="member_8h.html" target="_top" xlink:title=" ">
<polygon fill="white" stroke="#666666" points="934.08,-129 780.08,-129 780.08,-110 934.08,-110 934.08,-129"/>
<text text-anchor="middle" x="857.08" y="-117" font-family="Helvetica,sans-Serif" font-size="10.00">include/webcface/member.h</text>
</a>
</g>
</g>
<!-- Node14&#45;&gt;Node17 -->
<g id="edge22_Node000014_Node000017" class="edge">
<title>Node14&#45;&gt;Node17</title>
<g id="a_edge22_Node000014_Node000017"><a xlink:title=" ">
<path fill="none" stroke="#63b8ff" d="M816.43,-211.35C821.55,-203.24 827.46,-193.31 832.08,-184 841.45,-165.1 849.87,-141.79 854.14,-129.33"/>
<polygon fill="#63b8ff" stroke="#63b8ff" points="813.4,-209.59 810.91,-219.88 819.28,-213.38 813.4,-209.59"/>
</a>
</g>
</g>
<!-- Node18 -->
<g id="Node000018" class="node">
<title>Node18</title>
<g id="a_Node000018"><a xlink:href="view_8h.html" target="_top" xlink:title=" ">
<polygon fill="white" stroke="#666666" points="823.08,-184 687.08,-184 687.08,-165 823.08,-165 823.08,-184"/>
<text text-anchor="middle" x="755.08" y="-172" font-family="Helvetica,sans-Serif" font-size="10.00">include/webcface/view.h</text>
</a>
</g>
</g>
<!-- Node14&#45;&gt;Node18 -->
<g id="edge28_Node000014_Node000018" class="edge">
<title>Node14&#45;&gt;Node18</title>
<g id="a_edge28_Node000014_Node000018"><a xlink:title=" ">
<path fill="none" stroke="#63b8ff" d="M789.74,-212.24C780.98,-202.95 770.34,-191.68 763.18,-184.09"/>
<polygon fill="#63b8ff" stroke="#63b8ff" points="787.41,-214.88 796.82,-219.75 792.51,-210.07 787.41,-214.88"/>
</a>
</g>
</g>
<!-- Node15&#45;&gt;Node3 -->
<g id="edge19_Node000015_Node000003" class="edge">
<title>Node15&#45;&gt;Node3</title>
<g id="a_edge19_Node000015_Node000003"><a xlink:title=" ">
<path fill="none" stroke="#63b8ff" d="M951.93,-51.67C923.4,-41.79 883.39,-27.93 857.85,-19.08"/>
<polygon fill="#63b8ff" stroke="#63b8ff" points="950.9,-55.02 961.5,-54.98 953.19,-48.4 950.9,-55.02"/>
</a>
</g>
</g>
<!-- Node15&#45;&gt;Node4 -->
<g id="edge20_Node000015_Node000004" class="edge">
<title>Node15&#45;&gt;Node4</title>
<g id="a_edge20_Node000015_Node000004"><a xlink:title=" ">
<path fill="none" stroke="#63b8ff" d="M905.75,-54.88C744.16,-38.78 565.97,-22.81 479.13,-15.15"/>
<polygon fill="#63b8ff" stroke="#63b8ff" points="905.58,-58.38 915.87,-55.89 906.27,-51.41 905.58,-58.38"/>
</a>
</g>
</g>
<!-- Node15&#45;&gt;Node16 -->
<g id="edge21_Node000015_Node000016" class="edge">
<title>Node15&#45;&gt;Node16</title>
<g id="a_edge21_Node000015_Node000016"><a xlink:title=" ">
<path fill="none" stroke="#63b8ff" d="M1017.41,-51.29C1042.62,-41.47 1077.41,-27.91 1099.83,-19.17"/>
<polygon fill="#63b8ff" stroke="#63b8ff" points="1015.98,-48.09 1007.93,-54.98 1018.52,-54.61 1015.98,-48.09"/>
</a>
</g>
</g>
<!-- Node17&#45;&gt;Node5 -->
<g id="edge23_Node000017_Node000005" class="edge">
<title>Node17&#45;&gt;Node5</title>
<g id="a_edge23_Node000017_Node000005"><a xlink:title=" ">
<path fill="none" stroke="#63b8ff" d="M857.08,-99.66C857.08,-90.93 857.08,-80.99 857.08,-74.09"/>
<polygon fill="#63b8ff" stroke="#63b8ff" points="853.58,-99.75 857.08,-109.75 860.58,-99.75 853.58,-99.75"/>
</a>
</g>
</g>
<!-- Node17&#45;&gt;Node9 -->
<g id="edge24_Node000017_Node000009" class="edge">
<title>Node17&#45;&gt;Node9</title>
<g id="a_edge24_Node000017_Node000009"><a xlink:title=" ">
<path fill="none" stroke="#63b8ff" d="M807.18,-107.88C760.51,-97.94 691.68,-83.3 648.4,-74.08"/>
<polygon fill="#63b8ff" stroke="#63b8ff" points="806.56,-111.33 817.07,-109.98 808.02,-104.48 806.56,-111.33"/>
</a>
</g>
</g>
<!-- Node17&#45;&gt;Node12 -->
<g id="edge25_Node000017_Node000012" class="edge">
<title>Node17&#45;&gt;Node12</title>
<g id="a_edge25_Node000017_Node000012"><a xlink:title=" ">
<path fill="none" stroke="#63b8ff" d="M832.05,-105.23C813.71,-95.51 789.34,-82.6 773.44,-74.17"/>
<polygon fill="#63b8ff" stroke="#63b8ff" points="830.54,-108.39 841.01,-109.98 833.82,-102.21 830.54,-108.39"/>
</a>
</g>
</g>
<!-- Node17&#45;&gt;Node15 -->
<g id="edge26_Node000017_Node000015" class="edge">
<title>Node17&#45;&gt;Node15</title>
<g id="a_edge26_Node000017_Node000015"><a xlink:title=" ">
<path fill="none" stroke="#63b8ff" d="M887.11,-106.16C911,-96.35 943.8,-82.87 964.98,-74.17"/>
<polygon fill="#63b8ff" stroke="#63b8ff" points="885.73,-102.95 877.81,-109.98 888.39,-109.42 885.73,-102.95"/>
</a>
</g>
</g>
<!-- Node17&#45;&gt;Node16 -->
<g id="edge27_Node000017_Node000016" class="edge">
<title>Node17&#45;&gt;Node16</title>
<g id="a_edge27_Node000017_Node000016"><a xlink:title=" ">
<path fill="none" stroke="#63b8ff" d="M944.63,-112.06C983.56,-106.2 1028.71,-95.07 1065.08,-74 1088.92,-60.19 1108.21,-32.93 1116.97,-19.05"/>
<polygon fill="#63b8ff" stroke="#63b8ff" points="943.76,-108.65 934.35,-113.51 944.74,-115.58 943.76,-108.65"/>
</a>
</g>
</g>
<!-- Node18&#45;&gt;Node3 -->
<g id="edge29_Node000018_Node000003" class="edge">
<title>Node18&#45;&gt;Node3</title>
<g id="a_edge29_Node000018_Node000003"><a xlink:title=" ">
<path fill="none" stroke="#63b8ff" d="M739.05,-157.27C717.37,-133.3 683.92,-87.74 707.08,-55 725.63,-28.77 760.99,-17.9 789.54,-13.44"/>
<polygon fill="#63b8ff" stroke="#63b8ff" points="736.72,-159.9 746.12,-164.79 741.82,-155.11 736.72,-159.9"/>
</a>
</g>
</g>
<!-- Node18&#45;&gt;Node9 -->
<g id="edge30_Node000018_Node000009" class="edge">
<title>Node18&#45;&gt;Node9</title>
<g id="a_edge30_Node000018_Node000009"><a xlink:title=" ">
<path fill="none" stroke="#63b8ff" d="M726.87,-160.62C710.5,-152.56 689.86,-141.38 673.08,-129 649.97,-111.96 626.87,-87.05 615.44,-74.08"/>
<polygon fill="#63b8ff" stroke="#63b8ff" points="725.43,-163.81 735.96,-164.99 728.47,-157.5 725.43,-163.81"/>
</a>
</g>
</g>
<!-- Node18&#45;&gt;Node12 -->
<g id="edge31_Node000018_Node000012" class="edge">
<title>Node18&#45;&gt;Node12</title>
<g id="a_edge31_Node000018_Node000012"><a xlink:title=" ">
<path fill="none" stroke="#63b8ff" d="M755.43,-154.48C755.87,-130.84 756.6,-91.5 756.92,-74.16"/>
<polygon fill="#63b8ff" stroke="#63b8ff" points="751.93,-154.6 755.24,-164.66 758.93,-154.73 751.93,-154.6"/>
</a>
</g>
</g>
<!-- Node18&#45;&gt;Node16 -->
<g id="edge33_Node000018_Node000016" class="edge">
<title>Node18&#45;&gt;Node16</title>
<g id="a_edge33_Node000018_Node000016"><a xlink:title=" ">
<path fill="none" stroke="#63b8ff" d="M833.64,-169.03C908.07,-160.85 1018.79,-137.93 1090.08,-74 1106.99,-58.84 1116.12,-32.67 1119.92,-19.14"/>
<polygon fill="#63b8ff" stroke="#63b8ff" points="832.97,-165.58 823.39,-170.09 833.69,-172.54 832.97,-165.58"/>
</a>
</g>
</g>
<!-- Node18&#45;&gt;Node17 -->
<g id="edge32_Node000018_Node000017" class="edge">
<title>Node18&#45;&gt;Node17</title>
<g id="a_edge32_Node000018_Node000017"><a xlink:title=" ">
<path fill="none" stroke="#63b8ff" d="M780.35,-160.37C799.09,-150.63 824.1,-137.64 840.39,-129.17"/>
<polygon fill="#63b8ff" stroke="#63b8ff" points="778.73,-157.27 771.47,-164.98 781.95,-163.48 778.73,-157.27"/>
</a>
</g>
</g>
</g>
</svg>
