<?xml version="1.0" encoding="UTF-8" standalone="no"?>
<!DOCTYPE svg PUBLIC "-//W3C//DTD SVG 1.1//EN"
 "http://www.w3.org/Graphics/SVG/1.1/DTD/svg11.dtd">
<!-- Generated by graphviz version 2.43.0 (0)
 -->
<!-- Title: client/func_internal.h Pages: 1 -->
<svg width="1306pt" height="302pt"
 viewBox="0.00 0.00 1305.86 302.00" xmlns="http://www.w3.org/2000/svg" xmlns:xlink="http://www.w3.org/1999/xlink">
<g id="graph0" class="graph" transform="scale(1 1) rotate(0) translate(4 298)">
<title>client/func_internal.h</title>
<!-- Node1 -->
<g id="Node000001" class="node">
<title>Node1</title>
<g id="a_Node000001"><a xlink:title=" ">
<polygon fill="#999999" stroke="#666666" points="880.5,-294 761.5,-294 761.5,-275 880.5,-275 880.5,-294"/>
<text text-anchor="middle" x="821" y="-282" font-family="Helvetica,sans-Serif" font-size="10.00">client/func_internal.h</text>
</a>
</g>
</g>
<!-- Node2 -->
<g id="Node000002" class="node">
<title>Node2</title>
<g id="a_Node000002"><a xlink:title=" ">
<polygon fill="#e0e0e0" stroke="#999999" points="48,-239 0,-239 0,-220 48,-220 48,-239"/>
<text text-anchor="middle" x="24" y="-227" font-family="Helvetica,sans-Serif" font-size="10.00">mutex</text>
</a>
</g>
</g>
<!-- Node1&#45;&gt;Node2 -->
<g id="edge1_Node000001_Node000002" class="edge">
<title>Node1&#45;&gt;Node2</title>
<g id="a_edge1_Node000001_Node000002"><a xlink:title=" ">
<path fill="none" stroke="#63b8ff" d="M761.14,-283.27C632.53,-282.05 320.5,-275.25 62,-239 60.72,-238.82 59.42,-238.62 58.11,-238.4"/>
<polygon fill="#63b8ff" stroke="#63b8ff" points="58.49,-234.91 48.02,-236.49 57.19,-241.79 58.49,-234.91"/>
</a>
</g>
</g>
<!-- Node3 -->
<g id="Node000003" class="node">
<title>Node3</title>
<g id="a_Node000003"><a xlink:title=" ">
<polygon fill="#e0e0e0" stroke="#999999" points="906.5,-129 859.5,-129 859.5,-110 906.5,-110 906.5,-129"/>
<text text-anchor="middle" x="883" y="-117" font-family="Helvetica,sans-Serif" font-size="10.00">vector</text>
</a>
</g>
</g>
<!-- Node1&#45;&gt;Node3 -->
<g id="edge2_Node000001_Node000003" class="edge">
<title>Node1&#45;&gt;Node3</title>
<g id="a_edge2_Node000001_Node000003"><a xlink:title=" ">
<path fill="none" stroke="#63b8ff" d="M880.79,-278.52C907.11,-273.01 935.7,-261.75 952,-239 977.26,-203.75 931.64,-158.67 903.22,-135.59"/>
<polygon fill="#63b8ff" stroke="#63b8ff" points="905.07,-132.6 895.05,-129.17 900.75,-138.1 905.07,-132.6"/>
</a>
</g>
</g>
<!-- Node4 -->
<g id="Node000004" class="node">
<title>Node4</title>
<g id="a_Node000004"><a xlink:title=" ">
<polygon fill="#e0e0e0" stroke="#999999" points="853,-74 809,-74 809,-55 853,-55 853,-74"/>
<text text-anchor="middle" x="831" y="-62" font-family="Helvetica,sans-Serif" font-size="10.00">string</text>
</a>
</g>
</g>
<!-- Node1&#45;&gt;Node4 -->
<g id="edge3_Node000001_Node000004" class="edge">
<title>Node1&#45;&gt;Node4</title>
<g id="a_edge3_Node000001_Node000004"><a xlink:title=" ">
<path fill="none" stroke="#63b8ff" d="M761.45,-279.2C571.8,-264.43 -0.1,-211.02 95,-110 119.45,-84.02 659.5,-69.54 798.57,-66.24"/>
<polygon fill="#63b8ff" stroke="#63b8ff" points="798.7,-69.73 808.61,-66 798.53,-62.74 798.7,-69.73"/>
</a>
</g>
</g>
<!-- Node5 -->
<g id="Node000005" class="node">
<title>Node5</title>
<g id="a_Node000005"><a xlink:title=" ">
<polygon fill="#e0e0e0" stroke="#999999" points="942.5,-239 835.5,-239 835.5,-220 942.5,-220 942.5,-239"/>
<text text-anchor="middle" x="889" y="-227" font-family="Helvetica,sans-Serif" font-size="10.00">condition_variable</text>
</a>
</g>
</g>
<!-- Node1&#45;&gt;Node5 -->
<g id="edge4_Node000001_Node000005" class="edge">
<title>Node1&#45;&gt;Node5</title>
<g id="a_edge4_Node000001_Node000005"><a xlink:title=" ">
<path fill="none" stroke="#63b8ff" d="M831.93,-274.98C842.08,-267.07 857.42,-255.11 869.65,-245.58"/>
<polygon fill="#63b8ff" stroke="#63b8ff" points="872.14,-248.08 877.88,-239.17 867.84,-242.56 872.14,-248.08"/>
</a>
</g>
</g>
<!-- Node6 -->
<g id="Node000006" class="node">
<title>Node6</title>
<g id="a_Node000006"><a xlink:href="func__result_8h.html" target="_top" xlink:title=" ">
<polygon fill="white" stroke="#666666" points="817.5,-239 688.5,-239 688.5,-220 817.5,-220 817.5,-239"/>
<text text-anchor="middle" x="753" y="-227" font-family="Helvetica,sans-Serif" font-size="10.00">webcface/func_result.h</text>
</a>
</g>
</g>
<!-- Node1&#45;&gt;Node6 -->
<g id="edge5_Node000001_Node000006" class="edge">
<title>Node1&#45;&gt;Node6</title>
<g id="a_edge5_Node000001_Node000006"><a xlink:title=" ">
<path fill="none" stroke="#63b8ff" d="M810.07,-274.98C799.92,-267.07 784.58,-255.11 772.35,-245.58"/>
<polygon fill="#63b8ff" stroke="#63b8ff" points="774.16,-242.56 764.12,-239.17 769.86,-248.08 774.16,-242.56"/>
</a>
</g>
</g>
<!-- Node16 -->
<g id="Node000016" class="node">
<title>Node16</title>
<g id="a_Node000016"><a xlink:href="def_8h.html" target="_top" xlink:title=" ">
<polygon fill="white" stroke="#666666" points="1210.5,-74 1169.5,-74 1169.5,-55 1210.5,-55 1210.5,-74"/>
<text text-anchor="middle" x="1190" y="-62" font-family="Helvetica,sans-Serif" font-size="10.00">def.h</text>
</a>
</g>
</g>
<!-- Node1&#45;&gt;Node16 -->
<g id="edge37_Node000001_Node000016" class="edge">
<title>Node1&#45;&gt;Node16</title>
<g id="a_edge37_Node000001_Node000016"><a xlink:title=" ">
<path fill="none" stroke="#63b8ff" d="M870.56,-274.95C981.43,-254.68 1243.6,-200.06 1293,-129 1313.99,-98.81 1258.12,-80.22 1220.68,-71.48"/>
<polygon fill="#63b8ff" stroke="#63b8ff" points="1221.21,-68.01 1210.69,-69.27 1219.7,-74.84 1221.21,-68.01"/>
</a>
</g>
</g>
<!-- Node6&#45;&gt;Node4 -->
<g id="edge7_Node000006_Node000004" class="edge">
<title>Node6&#45;&gt;Node4</title>
<g id="a_edge7_Node000006_Node000004"><a xlink:title=" ">
<path fill="none" stroke="#63b8ff" d="M759.13,-219.84C770.81,-203.03 796.44,-164.5 812,-129 818.36,-114.49 823.37,-97.22 826.65,-84.36"/>
<polygon fill="#63b8ff" stroke="#63b8ff" points="830.12,-84.91 829.07,-74.37 823.31,-83.26 830.12,-84.91"/>
</a>
</g>
</g>
<!-- Node7 -->
<g id="Node000007" class="node">
<title>Node7</title>
<g id="a_Node000007"><a xlink:title=" ">
<polygon fill="#e0e0e0" stroke="#999999" points="802.5,-129 745.5,-129 745.5,-110 802.5,-110 802.5,-129"/>
<text text-anchor="middle" x="774" y="-117" font-family="Helvetica,sans-Serif" font-size="10.00">ostream</text>
</a>
</g>
</g>
<!-- Node6&#45;&gt;Node7 -->
<g id="edge6_Node000006_Node000007" class="edge">
<title>Node6&#45;&gt;Node7</title>
<g id="a_edge6_Node000006_Node000007"><a xlink:title=" ">
<path fill="none" stroke="#63b8ff" d="M754.72,-219.66C758.12,-202.17 765.77,-162.8 770.35,-139.27"/>
<polygon fill="#63b8ff" stroke="#63b8ff" points="773.84,-139.64 772.32,-129.16 766.97,-138.31 773.84,-139.64"/>
</a>
</g>
</g>
<!-- Node8 -->
<g id="Node000008" class="node">
<title>Node8</title>
<g id="a_Node000008"><a xlink:title=" ">
<polygon fill="#e0e0e0" stroke="#999999" points="905,-184 859,-184 859,-165 905,-165 905,-184"/>
<text text-anchor="middle" x="882" y="-172" font-family="Helvetica,sans-Serif" font-size="10.00">future</text>
</a>
</g>
</g>
<!-- Node6&#45;&gt;Node8 -->
<g id="edge8_Node000006_Node000008" class="edge">
<title>Node6&#45;&gt;Node8</title>
<g id="a_edge8_Node000006_Node000008"><a xlink:title=" ">
<path fill="none" stroke="#63b8ff" d="M773.73,-219.98C794.76,-211.34 827.55,-197.87 851.54,-188.02"/>
<polygon fill="#63b8ff" stroke="#63b8ff" points="852.98,-191.21 860.9,-184.17 850.32,-184.73 852.98,-191.21"/>
</a>
</g>
</g>
<!-- Node9 -->
<g id="Node000009" class="node">
<title>Node9</title>
<g id="a_Node000009"><a xlink:title=" ">
<polygon fill="#e0e0e0" stroke="#999999" points="983,-129 925,-129 925,-110 983,-110 983,-129"/>
<text text-anchor="middle" x="954" y="-117" font-family="Helvetica,sans-Serif" font-size="10.00">memory</text>
</a>
</g>
</g>
<!-- Node6&#45;&gt;Node9 -->
<g id="edge9_Node000006_Node000009" class="edge">
<title>Node6&#45;&gt;Node9</title>
<g id="a_edge9_Node000006_Node000009"><a xlink:title=" ">
<path fill="none" stroke="#63b8ff" d="M817.78,-221.67C849.26,-215.74 886.19,-204.67 914,-184 929.48,-172.49 940.44,-153.05 946.92,-138.71"/>
<polygon fill="#63b8ff" stroke="#63b8ff" points="950.21,-139.92 950.85,-129.35 943.75,-137.21 950.21,-139.92"/>
</a>
</g>
</g>
<!-- Node10 -->
<g id="Node000010" class="node">
<title>Node10</title>
<g id="a_Node000010"><a xlink:title=" ">
<polygon fill="#e0e0e0" stroke="#999999" points="169.5,-129 104.5,-129 104.5,-110 169.5,-110 169.5,-129"/>
<text text-anchor="middle" x="137" y="-117" font-family="Helvetica,sans-Serif" font-size="10.00">stdexcept</text>
</a>
</g>
</g>
<!-- Node6&#45;&gt;Node10 -->
<g id="edge10_Node000006_Node000010" class="edge">
<title>Node6&#45;&gt;Node10</title>
<g id="a_edge10_Node000006_Node000010"><a xlink:title=" ">
<path fill="none" stroke="#63b8ff" d="M688.34,-228.64C597.03,-227.42 425.76,-219.95 285,-184 239.49,-172.38 189.97,-148.66 161.3,-133.73"/>
<polygon fill="#63b8ff" stroke="#63b8ff" points="162.9,-130.61 152.42,-129.03 159.62,-136.8 162.9,-130.61"/>
</a>
</g>
</g>
<!-- Node11 -->
<g id="Node000011" class="node">
<title>Node11</title>
<g id="a_Node000011"><a xlink:title=" ">
<polygon fill="#e0e0e0" stroke="#999999" points="238,-129 188,-129 188,-110 238,-110 238,-129"/>
<text text-anchor="middle" x="213" y="-117" font-family="Helvetica,sans-Serif" font-size="10.00">cstdint</text>
</a>
</g>
</g>
<!-- Node6&#45;&gt;Node11 -->
<g id="edge11_Node000006_Node000011" class="edge">
<title>Node6&#45;&gt;Node11</title>
<g id="a_edge11_Node000006_Node000011"><a xlink:title=" ">
<path fill="none" stroke="#63b8ff" d="M688.34,-229.09C604.74,-228.19 455.45,-220.85 334,-184 296.52,-172.63 257.06,-149.52 233.76,-134.54"/>
<polygon fill="#63b8ff" stroke="#63b8ff" points="235.66,-131.6 225.38,-129.05 231.83,-137.45 235.66,-131.6"/>
</a>
</g>
</g>
<!-- Node12 -->
<g id="Node000012" class="node">
<title>Node12</title>
<g id="a_Node000012"><a xlink:title=" ">
<polygon fill="#e0e0e0" stroke="#999999" points="467,-184 343,-184 343,-165 467,-165 467,-184"/>
<text text-anchor="middle" x="405" y="-172" font-family="Helvetica,sans-Serif" font-size="10.00">eventpp/callbacklist.h</text>
</a>
</g>
</g>
<!-- Node6&#45;&gt;Node12 -->
<g id="edge12_Node000006_Node000012" class="edge">
<title>Node6&#45;&gt;Node12</title>
<g id="a_edge12_Node000006_Node000012"><a xlink:title=" ">
<path fill="none" stroke="#63b8ff" d="M697.09,-219.98C635.54,-210.61 536.66,-195.55 471.26,-185.59"/>
<polygon fill="#63b8ff" stroke="#63b8ff" points="471.47,-182.08 461.06,-184.04 470.42,-189 471.47,-182.08"/>
</a>
</g>
</g>
<!-- Node13 -->
<g id="Node000013" class="node">
<title>Node13</title>
<g id="a_Node000013"><a xlink:href="field_8h.html" target="_top" xlink:title=" ">
<polygon fill="white" stroke="#666666" points="1046.5,-184 999.5,-184 999.5,-165 1046.5,-165 1046.5,-184"/>
<text text-anchor="middle" x="1023" y="-172" font-family="Helvetica,sans-Serif" font-size="10.00">field.h</text>
</a>
</g>
</g>
<!-- Node6&#45;&gt;Node13 -->
<g id="edge13_Node000006_Node000013" class="edge">
<title>Node6&#45;&gt;Node13</title>
<g id="a_edge13_Node000006_Node000013"><a xlink:title=" ">
<path fill="none" stroke="#63b8ff" d="M796.38,-219.98C850.13,-209.43 940.55,-191.68 989.35,-182.11"/>
<polygon fill="#63b8ff" stroke="#63b8ff" points="990.25,-185.5 999.39,-180.13 988.9,-178.63 990.25,-185.5"/>
</a>
</g>
</g>
<!-- Node6&#45;&gt;Node16 -->
<g id="edge36_Node000006_Node000016" class="edge">
<title>Node6&#45;&gt;Node16</title>
<g id="a_edge36_Node000006_Node000016"><a xlink:title=" ">
<path fill="none" stroke="#63b8ff" d="M817.66,-220.99C951.5,-204.78 1248.81,-165.07 1277,-129 1296.38,-104.21 1252.68,-84.57 1220.47,-74.02"/>
<polygon fill="#63b8ff" stroke="#63b8ff" points="1221.09,-70.55 1210.5,-70.92 1219.01,-77.24 1221.09,-70.55"/>
</a>
</g>
</g>
<!-- Node18 -->
<g id="Node000018" class="node">
<title>Node18</title>
<g id="a_Node000018"><a xlink:href="val_8h.html" target="_top" xlink:title=" ">
<polygon fill="white" stroke="#666666" points="571,-184 485,-184 485,-165 571,-165 571,-184"/>
<text text-anchor="middle" x="528" y="-172" font-family="Helvetica,sans-Serif" font-size="10.00">common/val.h</text>
</a>
</g>
</g>
<!-- Node6&#45;&gt;Node18 -->
<g id="edge23_Node000006_Node000018" class="edge">
<title>Node6&#45;&gt;Node18</title>
<g id="a_edge23_Node000006_Node000018"><a xlink:title=" ">
<path fill="none" stroke="#63b8ff" d="M716.85,-219.98C678.09,-210.86 616.45,-196.33 574.2,-186.38"/>
<polygon fill="#63b8ff" stroke="#63b8ff" points="574.97,-182.97 564.43,-184.08 573.36,-189.78 574.97,-182.97"/>
</a>
</g>
</g>
<!-- Node13&#45;&gt;Node3 -->
<g id="edge17_Node000013_Node000003" class="edge">
<title>Node13&#45;&gt;Node3</title>
<g id="a_edge17_Node000013_Node000003"><a xlink:title=" ">
<path fill="none" stroke="#63b8ff" d="M1000.51,-164.98C977.48,-156.27 941.46,-142.63 915.37,-132.75"/>
<polygon fill="#63b8ff" stroke="#63b8ff" points="916.49,-129.44 905.9,-129.17 914.02,-135.98 916.49,-129.44"/>
</a>
</g>
</g>
<!-- Node13&#45;&gt;Node4 -->
<g id="edge15_Node000013_Node000004" class="edge">
<title>Node13&#45;&gt;Node4</title>
<g id="a_edge15_Node000013_Node000004"><a xlink:title=" ">
<path fill="none" stroke="#63b8ff" d="M1021.14,-164.68C1017.78,-150.92 1009.36,-124.42 992,-110 955.11,-79.35 898.68,-69.73 863.36,-66.76"/>
<polygon fill="#63b8ff" stroke="#63b8ff" points="863.35,-63.25 853.13,-66.04 862.85,-70.23 863.35,-63.25"/>
</a>
</g>
</g>
<!-- Node13&#45;&gt;Node9 -->
<g id="edge14_Node000013_Node000009" class="edge">
<title>Node13&#45;&gt;Node9</title>
<g id="a_edge14_Node000013_Node000009"><a xlink:title=" ">
<path fill="none" stroke="#63b8ff" d="M1011.91,-164.98C1001.51,-157 985.74,-144.88 973.28,-135.31"/>
<polygon fill="#63b8ff" stroke="#63b8ff" points="975.35,-132.49 965.29,-129.17 971.09,-138.04 975.35,-132.49"/>
</a>
</g>
</g>
<!-- Node14 -->
<g id="Node000014" class="node">
<title>Node14</title>
<g id="a_Node000014"><a xlink:title=" ">
<polygon fill="#e0e0e0" stroke="#999999" points="1251.5,-129 1178.5,-129 1178.5,-110 1251.5,-110 1251.5,-129"/>
<text text-anchor="middle" x="1215" y="-117" font-family="Helvetica,sans-Serif" font-size="10.00">string_view</text>
</a>
</g>
</g>
<!-- Node13&#45;&gt;Node14 -->
<g id="edge16_Node000013_Node000014" class="edge">
<title>Node13&#45;&gt;Node14</title>
<g id="a_edge16_Node000013_Node000014"><a xlink:title=" ">
<path fill="none" stroke="#63b8ff" d="M1046.54,-167C1078.26,-158.25 1135.19,-142.53 1174.01,-131.82"/>
<polygon fill="#63b8ff" stroke="#63b8ff" points="1175.24,-135.11 1183.95,-129.07 1173.38,-128.36 1175.24,-135.11"/>
</a>
</g>
</g>
<!-- Node15 -->
<g id="Node000015" class="node">
<title>Node15</title>
<g id="a_Node000015"><a xlink:href="field__base_8h.html" target="_top" xlink:title=" ">
<polygon fill="white" stroke="#666666" points="1160.5,-129 1039.5,-129 1039.5,-110 1160.5,-110 1160.5,-129"/>
<text text-anchor="middle" x="1100" y="-117" font-family="Helvetica,sans-Serif" font-size="10.00">common/field_base.h</text>
</a>
</g>
</g>
<!-- Node13&#45;&gt;Node15 -->
<g id="edge18_Node000013_Node000015" class="edge">
<title>Node13&#45;&gt;Node15</title>
<g id="a_edge18_Node000013_Node000015"><a xlink:title=" ">
<path fill="none" stroke="#63b8ff" d="M1035.37,-164.98C1047.09,-156.92 1064.92,-144.65 1078.89,-135.03"/>
<polygon fill="#63b8ff" stroke="#63b8ff" points="1081.15,-137.72 1087.4,-129.17 1077.18,-131.96 1081.15,-137.72"/>
</a>
</g>
</g>
<!-- Node13&#45;&gt;Node16 -->
<g id="edge22_Node000013_Node000016" class="edge">
<title>Node13&#45;&gt;Node16</title>
<g id="a_edge22_Node000013_Node000016"><a xlink:title=" ">
<path fill="none" stroke="#63b8ff" d="M1046.68,-172.76C1101.37,-170.49 1233.88,-161.66 1261,-129 1277.84,-108.72 1246.17,-89.07 1219.88,-77.13"/>
<polygon fill="#63b8ff" stroke="#63b8ff" points="1221.11,-73.85 1210.54,-73.1 1218.33,-80.28 1221.11,-73.85"/>
</a>
</g>
</g>
<!-- Node15&#45;&gt;Node4 -->
<g id="edge19_Node000015_Node000004" class="edge">
<title>Node15&#45;&gt;Node4</title>
<g id="a_edge19_Node000015_Node000004"><a xlink:title=" ">
<path fill="none" stroke="#63b8ff" d="M1056.78,-109.98C1002.68,-99.33 911.27,-81.32 863.03,-71.81"/>
<polygon fill="#63b8ff" stroke="#63b8ff" points="863.63,-68.36 853.14,-69.86 862.27,-75.23 863.63,-68.36"/>
</a>
</g>
</g>
<!-- Node15&#45;&gt;Node16 -->
<g id="edge20_Node000015_Node000016" class="edge">
<title>Node15&#45;&gt;Node16</title>
<g id="a_edge20_Node000015_Node000016"><a xlink:title=" ">
<path fill="none" stroke="#63b8ff" d="M1114.46,-109.98C1128.42,-101.77 1149.79,-89.18 1166.25,-79.49"/>
<polygon fill="#63b8ff" stroke="#63b8ff" points="1168.44,-82.26 1175.28,-74.17 1164.88,-76.23 1168.44,-82.26"/>
</a>
</g>
</g>
<!-- Node17 -->
<g id="Node000017" class="node">
<title>Node17</title>
<g id="a_Node000017"><a xlink:href="macros_8h.html" target="_top" xlink:title=" ">
<polygon fill="white" stroke="#666666" points="1221,-19 1159,-19 1159,0 1221,0 1221,-19"/>
<text text-anchor="middle" x="1190" y="-7" font-family="Helvetica,sans-Serif" font-size="10.00">macros.h</text>
</a>
</g>
</g>
<!-- Node16&#45;&gt;Node17 -->
<g id="edge21_Node000016_Node000017" class="edge">
<title>Node16&#45;&gt;Node17</title>
<g id="a_edge21_Node000016_Node000017"><a xlink:title=" ">
<path fill="none" stroke="#63b8ff" d="M1190,-54.75C1190,-47.8 1190,-37.85 1190,-29.13"/>
<polygon fill="#63b8ff" stroke="#63b8ff" points="1193.5,-29.09 1190,-19.09 1186.5,-29.09 1193.5,-29.09"/>
</a>
</g>
</g>
<!-- Node18&#45;&gt;Node3 -->
<g id="edge25_Node000018_Node000003" class="edge">
<title>Node18&#45;&gt;Node3</title>
<g id="a_edge25_Node000018_Node000003"><a xlink:title=" ">
<path fill="none" stroke="#63b8ff" d="M571.18,-167.05C642.77,-156.37 784.56,-135.2 849.32,-125.53"/>
<polygon fill="#63b8ff" stroke="#63b8ff" points="850.02,-128.96 859.39,-124.02 848.99,-122.04 850.02,-128.96"/>
</a>
</g>
</g>
<!-- Node18&#45;&gt;Node4 -->
<g id="edge24_Node000018_Node000004" class="edge">
<title>Node18&#45;&gt;Node4</title>
<g id="a_edge24_Node000018_Node000004"><a xlink:title=" ">
<path fill="none" stroke="#63b8ff" d="M484.98,-166.34C416.05,-154.76 288.21,-132.85 285,-129 279.59,-122.51 279.28,-116.21 285,-110 319.9,-72.14 686.41,-66.49 798.57,-65.65"/>
<polygon fill="#63b8ff" stroke="#63b8ff" points="798.93,-69.15 808.9,-65.58 798.88,-62.15 798.93,-69.15"/>
</a>
</g>
</g>
<!-- Node18&#45;&gt;Node7 -->
<g id="edge30_Node000018_Node000007" class="edge">
<title>Node18&#45;&gt;Node7</title>
<g id="a_edge30_Node000018_Node000007"><a xlink:title=" ">
<path fill="none" stroke="#63b8ff" d="M568.89,-165C608.99,-156.61 672.14,-143.29 735.56,-129.29"/>
<polygon fill="#63b8ff" stroke="#63b8ff" points="736.32,-132.71 745.33,-127.13 734.81,-125.88 736.32,-132.71"/>
</a>
</g>
</g>
<!-- Node18&#45;&gt;Node10 -->
<g id="edge28_Node000018_Node000010" class="edge">
<title>Node18&#45;&gt;Node10</title>
<g id="a_edge28_Node000018_Node000010"><a xlink:title=" ">
<path fill="none" stroke="#63b8ff" d="M484.89,-166.31C481.88,-165.85 478.9,-165.41 476,-165 347.57,-146.73 311.99,-150.03 179.63,-128.97"/>
<polygon fill="#63b8ff" stroke="#63b8ff" points="179.94,-125.48 169.51,-127.34 178.83,-132.39 179.94,-125.48"/>
</a>
</g>
</g>
<!-- Node18&#45;&gt;Node11 -->
<g id="edge29_Node000018_Node000011" class="edge">
<title>Node18&#45;&gt;Node11</title>
<g id="a_edge29_Node000018_Node000011"><a xlink:title=" ">
<path fill="none" stroke="#63b8ff" d="M484.87,-166.44C481.87,-165.95 478.89,-165.47 476,-165 376.47,-148.87 351.08,-147.74 252,-129 250.74,-128.76 249.45,-128.51 248.15,-128.26"/>
<polygon fill="#63b8ff" stroke="#63b8ff" points="248.63,-124.78 238.13,-126.19 247.22,-131.64 248.63,-124.78"/>
</a>
</g>
</g>
<!-- Node18&#45;&gt;Node16 -->
<g id="edge35_Node000018_Node000016" class="edge">
<title>Node18&#45;&gt;Node16</title>
<g id="a_edge35_Node000018_Node000016"><a xlink:title=" ">
<path fill="none" stroke="#63b8ff" d="M535.54,-164.55C548.33,-150.1 575.83,-122.04 606,-110 657.58,-89.42 1046.38,-71.56 1159.33,-66.76"/>
<polygon fill="#63b8ff" stroke="#63b8ff" points="1159.53,-70.26 1169.37,-66.34 1159.24,-63.26 1159.53,-70.26"/>
</a>
</g>
</g>
<!-- Node19 -->
<g id="Node000019" class="node">
<title>Node19</title>
<g id="a_Node000019"><a xlink:title=" ">
<polygon fill="#e0e0e0" stroke="#999999" points="479.5,-129 438.5,-129 438.5,-110 479.5,-110 479.5,-129"/>
<text text-anchor="middle" x="459" y="-117" font-family="Helvetica,sans-Serif" font-size="10.00">tuple</text>
</a>
</g>
</g>
<!-- Node18&#45;&gt;Node19 -->
<g id="edge26_Node000018_Node000019" class="edge">
<title>Node18&#45;&gt;Node19</title>
<g id="a_edge26_Node000018_Node000019"><a xlink:title=" ">
<path fill="none" stroke="#63b8ff" d="M516.91,-164.98C506.51,-157 490.74,-144.88 478.28,-135.31"/>
<polygon fill="#63b8ff" stroke="#63b8ff" points="480.35,-132.49 470.29,-129.17 476.09,-138.04 480.35,-132.49"/>
</a>
</g>
</g>
<!-- Node20 -->
<g id="Node000020" class="node">
<title>Node20</title>
<g id="a_Node000020"><a xlink:title=" ">
<polygon fill="#e0e0e0" stroke="#999999" points="558,-129 498,-129 498,-110 558,-110 558,-129"/>
<text text-anchor="middle" x="528" y="-117" font-family="Helvetica,sans-Serif" font-size="10.00">concepts</text>
</a>
</g>
</g>
<!-- Node18&#45;&gt;Node20 -->
<g id="edge27_Node000018_Node000020" class="edge">
<title>Node18&#45;&gt;Node20</title>
<g id="a_edge27_Node000018_Node000020"><a xlink:title=" ">
<path fill="none" stroke="#63b8ff" d="M528,-164.75C528,-157.8 528,-147.85 528,-139.13"/>
<polygon fill="#63b8ff" stroke="#63b8ff" points="531.5,-139.09 528,-129.09 524.5,-139.09 531.5,-139.09"/>
</a>
</g>
</g>
<!-- Node21 -->
<g id="Node000021" class="node">
<title>Node21</title>
<g id="a_Node000021"><a xlink:title=" ">
<polygon fill="#e0e0e0" stroke="#999999" points="345.5,-129 294.5,-129 294.5,-110 345.5,-110 345.5,-129"/>
<text text-anchor="middle" x="320" y="-117" font-family="Helvetica,sans-Serif" font-size="10.00">variant</text>
</a>
</g>
</g>
<!-- Node18&#45;&gt;Node21 -->
<g id="edge31_Node000018_Node000021" class="edge">
<title>Node18&#45;&gt;Node21</title>
<g id="a_edge31_Node000018_Node000021"><a xlink:title=" ">
<path fill="none" stroke="#63b8ff" d="M494.58,-164.98C456.53,-155.29 394.6,-139.51 355.64,-129.58"/>
<polygon fill="#63b8ff" stroke="#63b8ff" points="356.34,-126.15 345.78,-127.07 354.61,-132.93 356.34,-126.15"/>
</a>
</g>
</g>
<!-- Node22 -->
<g id="Node000022" class="node">
<title>Node22</title>
<g id="a_Node000022"><a xlink:title=" ">
<polygon fill="#e0e0e0" stroke="#999999" points="420,-129 364,-129 364,-110 420,-110 420,-129"/>
<text text-anchor="middle" x="392" y="-117" font-family="Helvetica,sans-Serif" font-size="10.00">optional</text>
</a>
</g>
</g>
<!-- Node18&#45;&gt;Node22 -->
<g id="edge32_Node000018_Node000022" class="edge">
<title>Node18&#45;&gt;Node22</title>
<g id="a_edge32_Node000018_Node000022"><a xlink:title=" ">
<path fill="none" stroke="#63b8ff" d="M506.15,-164.98C483.88,-156.3 449.1,-142.75 423.78,-132.88"/>
<polygon fill="#63b8ff" stroke="#63b8ff" points="424.84,-129.54 414.25,-129.17 422.29,-136.06 424.84,-129.54"/>
</a>
</g>
</g>
<!-- Node23 -->
<g id="Node000023" class="node">
<title>Node23</title>
<g id="a_Node000023"><a xlink:href="def__types_8h.html" target="_top" xlink:title=" ">
<polygon fill="white" stroke="#666666" points="727.5,-129 614.5,-129 614.5,-110 727.5,-110 727.5,-129"/>
<text text-anchor="middle" x="671" y="-117" font-family="Helvetica,sans-Serif" font-size="10.00">../c_wcf/def_types.h</text>
</a>
</g>
</g>
<!-- Node18&#45;&gt;Node23 -->
<g id="edge33_Node000018_Node000023" class="edge">
<title>Node18&#45;&gt;Node23</title>
<g id="a_edge33_Node000018_Node000023"><a xlink:title=" ">
<path fill="none" stroke="#63b8ff" d="M550.98,-164.98C574.5,-156.27 611.29,-142.63 637.94,-132.75"/>
<polygon fill="#63b8ff" stroke="#63b8ff" points="639.45,-135.93 647.61,-129.17 637.01,-129.36 639.45,-135.93"/>
</a>
</g>
</g>
<!-- Node23&#45;&gt;Node16 -->
<g id="edge34_Node000023_Node000016" class="edge">
<title>Node23&#45;&gt;Node16</title>
<g id="a_edge34_Node000023_Node000016"><a xlink:title=" ">
<path fill="none" stroke="#63b8ff" d="M727.51,-111.11C730.72,-110.72 733.9,-110.35 737,-110 895.34,-92.03 1085.3,-74.76 1158.82,-68.24"/>
<polygon fill="#63b8ff" stroke="#63b8ff" points="1159.55,-71.69 1169.21,-67.32 1158.94,-64.71 1159.55,-71.69"/>
</a>
</g>
</g>
</g>
</svg>
