<?xml version="1.0" encoding="UTF-8" standalone="no"?>
<!DOCTYPE svg PUBLIC "-//W3C//DTD SVG 1.1//EN"
 "http://www.w3.org/Graphics/SVG/1.1/DTD/svg11.dtd">
<!-- Generated by graphviz version 2.43.0 (0)
 -->
<!-- Title: client/src/func_info.cc Pages: 1 -->
<svg width="1305pt" height="390pt"
 viewBox="0.00 0.00 1304.91 390.00" xmlns="http://www.w3.org/2000/svg" xmlns:xlink="http://www.w3.org/1999/xlink">
<g id="graph0" class="graph" transform="scale(1 1) rotate(0) translate(4 386)">
<title>client/src/func_info.cc</title>
<!-- Node1 -->
<g id="Node000001" class="node">
<title>Node1</title>
<g id="a_Node000001"><a xlink:title=" ">
<polygon fill="#999999" stroke="#666666" points="585.91,-382 463.91,-382 463.91,-363 585.91,-363 585.91,-382"/>
<text text-anchor="middle" x="524.91" y="-370" font-family="Helvetica,sans-Serif" font-size="10.00">client/src/func_info.cc</text>
</a>
</g>
</g>
<!-- Node2 -->
<g id="Node000002" class="node">
<title>Node2</title>
<g id="a_Node000002"><a xlink:href="common_2include_2webcface_2common_2internal_2message_2func_8h.html" target="_top" xlink:title=" ">
<polygon fill="white" stroke="#666666" points="496.41,-261 347.41,-261 347.41,-231 496.41,-231 496.41,-261"/>
<text text-anchor="start" x="355.41" y="-249" font-family="Helvetica,sans-Serif" font-size="10.00">webcface/common/internal</text>
<text text-anchor="middle" x="421.91" y="-238" font-family="Helvetica,sans-Serif" font-size="10.00">/message/func.h</text>
</a>
</g>
</g>
<!-- Node1&#45;&gt;Node2 -->
<g id="edge1_Node000001_Node000002" class="edge">
<title>Node1&#45;&gt;Node2</title>
<g id="a_edge1_Node000001_Node000002"><a xlink:title=" ">
<path fill="none" stroke="#63b8ff" d="M517.83,-362.94C502.02,-343.82 463.39,-297.13 440.26,-269.18"/>
<polygon fill="#63b8ff" stroke="#63b8ff" points="442.7,-266.63 433.63,-261.16 437.3,-271.1 442.7,-266.63"/>
</a>
</g>
</g>
<!-- Node18 -->
<g id="Node000018" class="node">
<title>Node18</title>
<g id="a_Node000018"><a xlink:href="func__internal_8h.html" target="_top" xlink:title=" ">
<polygon fill="white" stroke="#666666" points="691.91,-327 563.91,-327 563.91,-297 691.91,-297 691.91,-327"/>
<text text-anchor="start" x="571.91" y="-315" font-family="Helvetica,sans-Serif" font-size="10.00">webcface/internal/func</text>
<text text-anchor="middle" x="627.91" y="-304" font-family="Helvetica,sans-Serif" font-size="10.00">_internal.h</text>
</a>
</g>
</g>
<!-- Node1&#45;&gt;Node18 -->
<g id="edge24_Node000001_Node000018" class="edge">
<title>Node1&#45;&gt;Node18</title>
<g id="a_edge24_Node000001_Node000018"><a xlink:title=" ">
<path fill="none" stroke="#63b8ff" d="M540.11,-362.87C554.22,-354.86 575.71,-342.65 593.91,-332.31"/>
<polygon fill="#63b8ff" stroke="#63b8ff" points="596.09,-335.1 603.06,-327.11 592.64,-329.01 596.09,-335.1"/>
</a>
</g>
</g>
<!-- Node3 -->
<g id="Node000003" class="node">
<title>Node3</title>
<g id="a_Node000003"><a xlink:href="base_8h.html" target="_top" xlink:title=" ">
<polygon fill="white" stroke="#666666" points="224.41,-195 169.41,-195 169.41,-176 224.41,-176 224.41,-195"/>
<text text-anchor="middle" x="196.91" y="-183" font-family="Helvetica,sans-Serif" font-size="10.00">./base.h</text>
</a>
</g>
</g>
<!-- Node2&#45;&gt;Node3 -->
<g id="edge2_Node000002_Node000003" class="edge">
<title>Node2&#45;&gt;Node3</title>
<g id="a_edge2_Node000002_Node000003"><a xlink:title=" ">
<path fill="none" stroke="#63b8ff" d="M368.02,-230.99C326.78,-220.27 270.97,-205.76 234.47,-196.26"/>
<polygon fill="#63b8ff" stroke="#63b8ff" points="235.27,-192.86 224.71,-193.73 233.51,-199.63 235.27,-192.86"/>
</a>
</g>
</g>
<!-- Node7 -->
<g id="Node000007" class="node">
<title>Node7</title>
<g id="a_Node000007"><a xlink:href="common_2val__adaptor_8h.html" target="_top" xlink:title=" ">
<polygon fill="white" stroke="#666666" points="393.41,-140 266.41,-140 266.41,-110 393.41,-110 393.41,-140"/>
<text text-anchor="start" x="274.41" y="-128" font-family="Helvetica,sans-Serif" font-size="10.00">webcface/common/val</text>
<text text-anchor="middle" x="329.91" y="-117" font-family="Helvetica,sans-Serif" font-size="10.00">_adaptor.h</text>
</a>
</g>
</g>
<!-- Node2&#45;&gt;Node7 -->
<g id="edge21_Node000002_Node000007" class="edge">
<title>Node2&#45;&gt;Node7</title>
<g id="a_edge21_Node000002_Node000007"><a xlink:title=" ">
<path fill="none" stroke="#63b8ff" d="M411,-230.88C395.16,-210.39 365.66,-172.23 346.94,-148.03"/>
<polygon fill="#63b8ff" stroke="#63b8ff" points="349.7,-145.87 340.81,-140.1 344.16,-150.15 349.7,-145.87"/>
</a>
</g>
</g>
<!-- Node9 -->
<g id="Node000009" class="node">
<title>Node9</title>
<g id="a_Node000009"><a xlink:title=" ">
<polygon fill="#e0e0e0" stroke="#999999" points="543.41,-74 496.41,-74 496.41,-55 543.41,-55 543.41,-74"/>
<text text-anchor="middle" x="519.91" y="-62" font-family="Helvetica,sans-Serif" font-size="10.00">vector</text>
</a>
</g>
</g>
<!-- Node2&#45;&gt;Node9 -->
<g id="edge23_Node000002_Node000009" class="edge">
<title>Node2&#45;&gt;Node9</title>
<g id="a_edge23_Node000002_Node000009"><a xlink:title=" ">
<path fill="none" stroke="#63b8ff" d="M424.82,-230.99C430.61,-205.31 445.39,-149.69 471.91,-110 479.43,-98.75 490.34,-88.33 499.87,-80.41"/>
<polygon fill="#63b8ff" stroke="#63b8ff" points="502.11,-83.1 507.75,-74.13 497.75,-77.62 502.11,-83.1"/>
</a>
</g>
</g>
<!-- Node14 -->
<g id="Node000014" class="node">
<title>Node14</title>
<g id="a_Node000014"><a xlink:href="common_2encoding_8h.html" target="_top" xlink:title=" ">
<polygon fill="white" stroke="#666666" points="1201.91,-74 1131.91,-74 1131.91,-55 1201.91,-55 1201.91,-74"/>
<text text-anchor="middle" x="1166.91" y="-62" font-family="Helvetica,sans-Serif" font-size="10.00">encoding.h</text>
</a>
</g>
</g>
<!-- Node2&#45;&gt;Node14 -->
<g id="edge20_Node000002_Node000014" class="edge">
<title>Node2&#45;&gt;Node14</title>
<g id="a_edge20_Node000002_Node000014"><a xlink:title=" ">
<path fill="none" stroke="#63b8ff" d="M496.54,-232.22C499.36,-231.8 502.16,-231.39 504.91,-231 653.46,-209.94 1076.26,-253.9 1173.91,-140 1187.09,-124.63 1181.63,-100.36 1175.34,-83.72"/>
<polygon fill="#63b8ff" stroke="#63b8ff" points="1178.38,-81.92 1171.27,-74.07 1171.93,-84.64 1178.38,-81.92"/>
</a>
</g>
</g>
<!-- Node17 -->
<g id="Node000017" class="node">
<title>Node17</title>
<g id="a_Node000017"><a xlink:title=" ">
<polygon fill="#e0e0e0" stroke="#999999" points="543.91,-134.5 487.91,-134.5 487.91,-115.5 543.91,-115.5 543.91,-134.5"/>
<text text-anchor="middle" x="515.91" y="-122.5" font-family="Helvetica,sans-Serif" font-size="10.00">optional</text>
</a>
</g>
</g>
<!-- Node2&#45;&gt;Node17 -->
<g id="edge22_Node000002_Node000017" class="edge">
<title>Node2&#45;&gt;Node17</title>
<g id="a_edge22_Node000002_Node000017"><a xlink:title=" ">
<path fill="none" stroke="#63b8ff" d="M488.87,-230.96C507.93,-223.54 526.58,-212.22 537.91,-195 548.44,-178.99 538.64,-157.6 528.98,-142.9"/>
<polygon fill="#63b8ff" stroke="#63b8ff" points="531.82,-140.84 523.17,-134.72 526.11,-144.9 531.82,-140.84"/>
</a>
</g>
</g>
<!-- Node4 -->
<g id="Node000004" class="node">
<title>Node4</title>
<g id="a_Node000004"><a xlink:href="webcface-config_8h.html" target="_top" xlink:title=" ">
<polygon fill="white" stroke="#666666" points="681.41,-19 576.41,-19 576.41,0 681.41,0 681.41,-19"/>
<text text-anchor="middle" x="628.91" y="-7" font-family="Helvetica,sans-Serif" font-size="10.00">webcface&#45;config.h</text>
</a>
</g>
</g>
<!-- Node3&#45;&gt;Node4 -->
<g id="edge3_Node000003_Node000004" class="edge">
<title>Node3&#45;&gt;Node4</title>
<g id="a_edge3_Node000003_Node000004"><a xlink:title=" ">
<path fill="none" stroke="#63b8ff" d="M168.96,-177.51C105.06,-160.32 -42.17,-113.12 11.91,-55 49.09,-15.05 416.15,-10.49 565.85,-10.3"/>
<polygon fill="#63b8ff" stroke="#63b8ff" points="566.24,-13.8 576.24,-10.29 566.24,-6.8 566.24,-13.8"/>
</a>
</g>
</g>
<!-- Node5 -->
<g id="Node000005" class="node">
<title>Node5</title>
<g id="a_Node000005"><a xlink:href="fmt_8h.html" target="_top" xlink:title=" ">
<polygon fill="white" stroke="#666666" points="143.41,-134.5 94.41,-134.5 94.41,-115.5 143.41,-115.5 143.41,-134.5"/>
<text text-anchor="middle" x="118.91" y="-122.5" font-family="Helvetica,sans-Serif" font-size="10.00">./fmt.h</text>
</a>
</g>
</g>
<!-- Node3&#45;&gt;Node5 -->
<g id="edge4_Node000003_Node000005" class="edge">
<title>Node3&#45;&gt;Node5</title>
<g id="a_edge4_Node000003_Node000005"><a xlink:title=" ">
<path fill="none" stroke="#63b8ff" d="M185.4,-175.87C173.08,-166.62 153.29,-151.78 138.5,-140.69"/>
<polygon fill="#63b8ff" stroke="#63b8ff" points="140.57,-137.87 130.47,-134.67 136.37,-143.47 140.57,-137.87"/>
</a>
</g>
</g>
<!-- Node3&#45;&gt;Node7 -->
<g id="edge7_Node000003_Node000007" class="edge">
<title>Node3&#45;&gt;Node7</title>
<g id="a_edge7_Node000003_Node000007"><a xlink:title=" ">
<path fill="none" stroke="#63b8ff" d="M216.25,-175.99C235.14,-167.68 264.49,-154.78 288.63,-144.16"/>
<polygon fill="#63b8ff" stroke="#63b8ff" points="290.19,-147.29 297.94,-140.06 287.37,-140.89 290.19,-147.29"/>
</a>
</g>
</g>
<!-- Node5&#45;&gt;Node4 -->
<g id="edge5_Node000005_Node000004" class="edge">
<title>Node5&#45;&gt;Node4</title>
<g id="a_edge5_Node000005_Node000004"><a xlink:title=" ">
<path fill="none" stroke="#63b8ff" d="M118.43,-115.15C118.14,-100.17 119.99,-69.98 137.91,-55 170.09,-28.1 440.78,-16.31 565.92,-12.26"/>
<polygon fill="#63b8ff" stroke="#63b8ff" points="566.24,-15.75 576.13,-11.93 566.02,-8.75 566.24,-15.75"/>
</a>
</g>
</g>
<!-- Node6 -->
<g id="Node000006" class="node">
<title>Node6</title>
<g id="a_Node000006"><a xlink:title=" ">
<polygon fill="#e0e0e0" stroke="#999999" points="90.41,-74 21.41,-74 21.41,-55 90.41,-55 90.41,-74"/>
<text text-anchor="middle" x="55.91" y="-62" font-family="Helvetica,sans-Serif" font-size="10.00">fmt/base.h</text>
</a>
</g>
</g>
<!-- Node5&#45;&gt;Node6 -->
<g id="edge6_Node000005_Node000006" class="edge">
<title>Node5&#45;&gt;Node6</title>
<g id="a_edge6_Node000005_Node000006"><a xlink:title=" ">
<path fill="none" stroke="#63b8ff" d="M109.62,-115.37C99.94,-106.38 84.57,-92.11 72.75,-81.14"/>
<polygon fill="#63b8ff" stroke="#63b8ff" points="74.96,-78.41 65.25,-74.17 70.19,-83.54 74.96,-78.41"/>
</a>
</g>
</g>
<!-- Node7&#45;&gt;Node4 -->
<g id="edge19_Node000007_Node000004" class="edge">
<title>Node7&#45;&gt;Node4</title>
<g id="a_edge19_Node000007_Node000004"><a xlink:title=" ">
<path fill="none" stroke="#63b8ff" d="M337.9,-109.84C347.74,-93.81 365.98,-68.23 388.91,-55 443.34,-23.59 515.24,-13.64 566.11,-10.82"/>
<polygon fill="#63b8ff" stroke="#63b8ff" points="566.48,-14.31 576.31,-10.34 566.15,-7.32 566.48,-14.31"/>
</a>
</g>
</g>
<!-- Node8 -->
<g id="Node000008" class="node">
<title>Node8</title>
<g id="a_Node000008"><a xlink:title=" ">
<polygon fill="#e0e0e0" stroke="#999999" points="1103.91,-19 1059.91,-19 1059.91,0 1103.91,0 1103.91,-19"/>
<text text-anchor="middle" x="1081.91" y="-7" font-family="Helvetica,sans-Serif" font-size="10.00">string</text>
</a>
</g>
</g>
<!-- Node7&#45;&gt;Node8 -->
<g id="edge8_Node000007_Node000008" class="edge">
<title>Node7&#45;&gt;Node8</title>
<g id="a_edge8_Node000007_Node000008"><a xlink:title=" ">
<path fill="none" stroke="#63b8ff" d="M364.46,-109.92C388.09,-100.16 420.07,-86.67 447.91,-74 465.46,-66.01 468.3,-60.03 486.91,-55 514.27,-47.6 929.86,-20.32 1049.76,-12.57"/>
<polygon fill="#63b8ff" stroke="#63b8ff" points="1050.03,-16.06 1059.79,-11.92 1049.58,-9.07 1050.03,-16.06"/>
</a>
</g>
</g>
<!-- Node7&#45;&gt;Node9 -->
<g id="edge9_Node000007_Node000009" class="edge">
<title>Node7&#45;&gt;Node9</title>
<g id="a_edge9_Node000007_Node000009"><a xlink:title=" ">
<path fill="none" stroke="#63b8ff" d="M375.42,-109.99C409.55,-99.48 455.5,-85.33 486.34,-75.84"/>
<polygon fill="#63b8ff" stroke="#63b8ff" points="487.65,-79.1 496.17,-72.81 485.59,-72.41 487.65,-79.1"/>
</a>
</g>
</g>
<!-- Node10 -->
<g id="Node000010" class="node">
<title>Node10</title>
<g id="a_Node000010"><a xlink:title=" ">
<polygon fill="#e0e0e0" stroke="#999999" points="439.41,-74 398.41,-74 398.41,-55 439.41,-55 439.41,-74"/>
<text text-anchor="middle" x="418.91" y="-62" font-family="Helvetica,sans-Serif" font-size="10.00">tuple</text>
</a>
</g>
</g>
<!-- Node7&#45;&gt;Node10 -->
<g id="edge10_Node000007_Node000010" class="edge">
<title>Node7&#45;&gt;Node10</title>
<g id="a_edge10_Node000007_Node000010"><a xlink:title=" ">
<path fill="none" stroke="#63b8ff" d="M351.46,-109.84C365.38,-100.68 383.44,-88.82 397.37,-79.66"/>
<polygon fill="#63b8ff" stroke="#63b8ff" points="399.4,-82.51 405.84,-74.09 395.56,-76.66 399.4,-82.51"/>
</a>
</g>
</g>
<!-- Node11 -->
<g id="Node000011" class="node">
<title>Node11</title>
<g id="a_Node000011"><a xlink:title=" ">
<polygon fill="#e0e0e0" stroke="#999999" points="196.91,-74 146.91,-74 146.91,-55 196.91,-55 196.91,-74"/>
<text text-anchor="middle" x="171.91" y="-62" font-family="Helvetica,sans-Serif" font-size="10.00">cstdint</text>
</a>
</g>
</g>
<!-- Node7&#45;&gt;Node11 -->
<g id="edge11_Node000007_Node000011" class="edge">
<title>Node7&#45;&gt;Node11</title>
<g id="a_edge11_Node000007_Node000011"><a xlink:title=" ">
<path fill="none" stroke="#63b8ff" d="M292.07,-109.99C265.47,-100.14 230.24,-87.1 204.81,-77.68"/>
<polygon fill="#63b8ff" stroke="#63b8ff" points="205.84,-74.33 195.25,-74.14 203.41,-80.89 205.84,-74.33"/>
</a>
</g>
</g>
<!-- Node12 -->
<g id="Node000012" class="node">
<title>Node12</title>
<g id="a_Node000012"><a xlink:title=" ">
<polygon fill="#e0e0e0" stroke="#999999" points="272.41,-74 215.41,-74 215.41,-55 272.41,-55 272.41,-74"/>
<text text-anchor="middle" x="243.91" y="-62" font-family="Helvetica,sans-Serif" font-size="10.00">ostream</text>
</a>
</g>
</g>
<!-- Node7&#45;&gt;Node12 -->
<g id="edge12_Node000007_Node000012" class="edge">
<title>Node7&#45;&gt;Node12</title>
<g id="a_edge12_Node000007_Node000012"><a xlink:title=" ">
<path fill="none" stroke="#63b8ff" d="M309.09,-109.84C295.77,-100.77 278.52,-89.04 265.12,-79.92"/>
<polygon fill="#63b8ff" stroke="#63b8ff" points="266.78,-76.83 256.55,-74.09 262.85,-82.61 266.78,-76.83"/>
</a>
</g>
</g>
<!-- Node13 -->
<g id="Node000013" class="node">
<title>Node13</title>
<g id="a_Node000013"><a xlink:title=" ">
<polygon fill="#e0e0e0" stroke="#999999" points="341.41,-74 290.41,-74 290.41,-55 341.41,-55 341.41,-74"/>
<text text-anchor="middle" x="315.91" y="-62" font-family="Helvetica,sans-Serif" font-size="10.00">variant</text>
</a>
</g>
</g>
<!-- Node7&#45;&gt;Node13 -->
<g id="edge13_Node000007_Node000013" class="edge">
<title>Node7&#45;&gt;Node13</title>
<g id="a_edge13_Node000007_Node000013"><a xlink:title=" ">
<path fill="none" stroke="#63b8ff" d="M326.52,-109.84C324.68,-102.13 322.37,-92.49 320.38,-84.17"/>
<polygon fill="#63b8ff" stroke="#63b8ff" points="323.74,-83.18 318.01,-74.27 316.93,-84.81 323.74,-83.18"/>
</a>
</g>
</g>
<!-- Node7&#45;&gt;Node14 -->
<g id="edge14_Node000007_Node000014" class="edge">
<title>Node7&#45;&gt;Node14</title>
<g id="a_edge14_Node000007_Node000014"><a xlink:title=" ">
<path fill="none" stroke="#63b8ff" d="M393.68,-117.58C420.05,-115.04 450.94,-112.2 478.91,-110 731.08,-90.17 794.53,-90.94 1046.91,-74 1071.56,-72.35 1099.04,-70.41 1121.49,-68.8"/>
<polygon fill="#63b8ff" stroke="#63b8ff" points="1122.01,-72.27 1131.74,-68.06 1121.51,-65.29 1122.01,-72.27"/>
</a>
</g>
</g>
<!-- Node14&#45;&gt;Node4 -->
<g id="edge18_Node000014_Node000004" class="edge">
<title>Node14&#45;&gt;Node4</title>
<g id="a_edge18_Node000014_Node000004"><a xlink:title=" ">
<path fill="none" stroke="#63b8ff" d="M1131.61,-60.02C1042.18,-51.21 805.75,-27.92 691.91,-16.71"/>
<polygon fill="#63b8ff" stroke="#63b8ff" points="691.91,-13.19 681.62,-15.69 691.22,-20.16 691.91,-13.19"/>
</a>
</g>
</g>
<!-- Node14&#45;&gt;Node8 -->
<g id="edge15_Node000014_Node000008" class="edge">
<title>Node14&#45;&gt;Node8</title>
<g id="a_edge15_Node000014_Node000008"><a xlink:title=" ">
<path fill="none" stroke="#63b8ff" d="M1153.26,-54.98C1140.07,-46.77 1119.88,-34.18 1104.34,-24.49"/>
<polygon fill="#63b8ff" stroke="#63b8ff" points="1106.15,-21.49 1095.82,-19.17 1102.45,-27.43 1106.15,-21.49"/>
</a>
</g>
</g>
<!-- Node15 -->
<g id="Node000015" class="node">
<title>Node15</title>
<g id="a_Node000015"><a xlink:title=" ">
<polygon fill="#e0e0e0" stroke="#999999" points="1211.41,-19 1138.41,-19 1138.41,0 1211.41,0 1211.41,-19"/>
<text text-anchor="middle" x="1174.91" y="-7" font-family="Helvetica,sans-Serif" font-size="10.00">string_view</text>
</a>
</g>
</g>
<!-- Node14&#45;&gt;Node15 -->
<g id="edge16_Node000014_Node000015" class="edge">
<title>Node14&#45;&gt;Node15</title>
<g id="a_edge16_Node000014_Node000015"><a xlink:title=" ">
<path fill="none" stroke="#63b8ff" d="M1168.23,-54.75C1169.28,-47.8 1170.78,-37.85 1172.1,-29.13"/>
<polygon fill="#63b8ff" stroke="#63b8ff" points="1175.58,-29.5 1173.62,-19.09 1168.66,-28.45 1175.58,-29.5"/>
</a>
</g>
</g>
<!-- Node16 -->
<g id="Node000016" class="node">
<title>Node16</title>
<g id="a_Node000016"><a xlink:title=" ">
<polygon fill="#e0e0e0" stroke="#999999" points="1296.91,-19 1238.91,-19 1238.91,0 1296.91,0 1296.91,-19"/>
<text text-anchor="middle" x="1267.91" y="-7" font-family="Helvetica,sans-Serif" font-size="10.00">memory</text>
</a>
</g>
</g>
<!-- Node14&#45;&gt;Node16 -->
<g id="edge17_Node000014_Node000016" class="edge">
<title>Node14&#45;&gt;Node16</title>
<g id="a_edge17_Node000014_Node000016"><a xlink:title=" ">
<path fill="none" stroke="#63b8ff" d="M1183.14,-54.98C1199.09,-46.61 1223.69,-33.7 1242.29,-23.95"/>
<polygon fill="#63b8ff" stroke="#63b8ff" points="1244.16,-26.92 1251.39,-19.17 1240.91,-20.72 1244.16,-26.92"/>
</a>
</g>
</g>
<!-- Node19 -->
<g id="Node000019" class="node">
<title>Node19</title>
<g id="a_Node000019"><a xlink:title=" ">
<polygon fill="#e0e0e0" stroke="#999999" points="825.41,-255.5 732.41,-255.5 732.41,-236.5 825.41,-236.5 825.41,-255.5"/>
<text text-anchor="middle" x="778.91" y="-243.5" font-family="Helvetica,sans-Serif" font-size="10.00">unordered_map</text>
</a>
</g>
</g>
<!-- Node18&#45;&gt;Node19 -->
<g id="edge25_Node000018_Node000019" class="edge">
<title>Node18&#45;&gt;Node19</title>
<g id="a_edge25_Node000018_Node000019"><a xlink:title=" ">
<path fill="none" stroke="#63b8ff" d="M661.05,-296.95C687.41,-285.78 723.97,-270.29 749.35,-259.53"/>
<polygon fill="#63b8ff" stroke="#63b8ff" points="750.98,-262.64 758.82,-255.52 748.24,-256.2 750.98,-262.64"/>
</a>
</g>
</g>
<!-- Node20 -->
<g id="Node000020" class="node">
<title>Node20</title>
<g id="a_Node000020"><a xlink:title=" ">
<polygon fill="#e0e0e0" stroke="#999999" points="561.91,-255.5 513.91,-255.5 513.91,-236.5 561.91,-236.5 561.91,-255.5"/>
<text text-anchor="middle" x="537.91" y="-243.5" font-family="Helvetica,sans-Serif" font-size="10.00">mutex</text>
</a>
</g>
</g>
<!-- Node18&#45;&gt;Node20 -->
<g id="edge26_Node000018_Node000020" class="edge">
<title>Node18&#45;&gt;Node20</title>
<g id="a_edge26_Node000018_Node000020"><a xlink:title=" ">
<path fill="none" stroke="#63b8ff" d="M607.94,-296.8C593.27,-286.37 573.4,-272.24 558.58,-261.69"/>
<polygon fill="#63b8ff" stroke="#63b8ff" points="560.27,-258.6 550.09,-255.66 556.21,-264.31 560.27,-258.6"/>
</a>
</g>
</g>
<!-- Node21 -->
<g id="Node000021" class="node">
<title>Node21</title>
<g id="a_Node000021"><a xlink:href="func__result_8h.html" target="_top" xlink:title=" ">
<polygon fill="white" stroke="#666666" points="809.41,-195 680.41,-195 680.41,-176 809.41,-176 809.41,-195"/>
<text text-anchor="middle" x="744.91" y="-183" font-family="Helvetica,sans-Serif" font-size="10.00">webcface/func_result.h</text>
</a>
</g>
</g>
<!-- Node18&#45;&gt;Node21 -->
<g id="edge27_Node000018_Node000021" class="edge">
<title>Node18&#45;&gt;Node21</title>
<g id="a_edge27_Node000018_Node000021"><a xlink:title=" ">
<path fill="none" stroke="#63b8ff" d="M645.58,-296.86C657.21,-287.23 672.52,-273.92 684.91,-261 702.78,-242.36 721.08,-218.88 732.69,-203.32"/>
<polygon fill="#63b8ff" stroke="#63b8ff" points="735.59,-205.29 738.7,-195.16 729.95,-201.14 735.59,-205.29"/>
</a>
</g>
</g>
<!-- Node30 -->
<g id="Node000030" class="node">
<title>Node30</title>
<g id="a_Node000030"><a xlink:href="client_2include_2webcface_2func_8h.html" target="_top" xlink:title=" ">
<polygon fill="white" stroke="#666666" points="675.91,-255.5 579.91,-255.5 579.91,-236.5 675.91,-236.5 675.91,-255.5"/>
<text text-anchor="middle" x="627.91" y="-243.5" font-family="Helvetica,sans-Serif" font-size="10.00">webcface/func.h</text>
</a>
</g>
</g>
<!-- Node18&#45;&gt;Node30 -->
<g id="edge49_Node000018_Node000030" class="edge">
<title>Node18&#45;&gt;Node30</title>
<g id="a_edge49_Node000018_Node000030"><a xlink:title=" ">
<path fill="none" stroke="#63b8ff" d="M627.91,-296.8C627.91,-287.7 627.91,-275.79 627.91,-265.9"/>
<polygon fill="#63b8ff" stroke="#63b8ff" points="631.41,-265.84 627.91,-255.84 624.41,-265.84 631.41,-265.84"/>
</a>
</g>
</g>
<!-- Node21&#45;&gt;Node4 -->
<g id="edge28_Node000021_Node000004" class="edge">
<title>Node21&#45;&gt;Node4</title>
<g id="a_edge28_Node000021_Node000004"><a xlink:title=" ">
<path fill="none" stroke="#63b8ff" d="M736.41,-175.82C715.16,-153.98 660.58,-96.89 647.91,-74 640.15,-59.98 635.21,-42.43 632.32,-29.34"/>
<polygon fill="#63b8ff" stroke="#63b8ff" points="635.68,-28.29 630.29,-19.18 628.82,-29.67 635.68,-28.29"/>
</a>
</g>
</g>
<!-- Node21&#45;&gt;Node7 -->
<g id="edge44_Node000021_Node000007" class="edge">
<title>Node21&#45;&gt;Node7</title>
<g id="a_edge44_Node000021_Node000007"><a xlink:title=" ">
<path fill="none" stroke="#63b8ff" d="M684.57,-175.99C610.19,-165.51 483.85,-147.7 403.75,-136.41"/>
<polygon fill="#63b8ff" stroke="#63b8ff" points="404.13,-132.93 393.74,-135 403.15,-139.86 404.13,-132.93"/>
</a>
</g>
</g>
<!-- Node21&#45;&gt;Node8 -->
<g id="edge30_Node000021_Node000008" class="edge">
<title>Node21&#45;&gt;Node8</title>
<g id="a_edge30_Node000021_Node000008"><a xlink:title=" ">
<path fill="none" stroke="#63b8ff" d="M802.2,-175.95C867.9,-163.57 975.72,-135.06 1046.91,-74 1060.92,-61.98 1070.37,-42.9 1075.88,-28.79"/>
<polygon fill="#63b8ff" stroke="#63b8ff" points="1079.25,-29.76 1079.34,-19.17 1072.66,-27.39 1079.25,-29.76"/>
</a>
</g>
</g>
<!-- Node21&#45;&gt;Node16 -->
<g id="edge32_Node000021_Node000016" class="edge">
<title>Node21&#45;&gt;Node16</title>
<g id="a_edge32_Node000021_Node000016"><a xlink:title=" ">
<path fill="none" stroke="#63b8ff" d="M809.73,-182.63C913.14,-178.85 1110.3,-168.09 1173.91,-140 1214.23,-122.2 1223.99,-111.01 1247.91,-74 1256.74,-60.35 1261.9,-42.53 1264.76,-29.25"/>
<polygon fill="#63b8ff" stroke="#63b8ff" points="1268.22,-29.83 1266.66,-19.35 1261.34,-28.51 1268.22,-29.83"/>
</a>
</g>
</g>
<!-- Node21&#45;&gt;Node17 -->
<g id="edge29_Node000021_Node000017" class="edge">
<title>Node21&#45;&gt;Node17</title>
<g id="a_edge29_Node000021_Node000017"><a xlink:title=" ">
<path fill="none" stroke="#63b8ff" d="M711.61,-175.99C669.72,-165.29 597.96,-146.96 553.95,-135.72"/>
<polygon fill="#63b8ff" stroke="#63b8ff" points="554.75,-132.31 544.2,-133.23 553.02,-139.09 554.75,-132.31"/>
</a>
</g>
</g>
<!-- Node22 -->
<g id="Node000022" class="node">
<title>Node22</title>
<g id="a_Node000022"><a xlink:title=" ">
<polygon fill="#e0e0e0" stroke="#999999" points="1164.91,-134.5 1118.91,-134.5 1118.91,-115.5 1164.91,-115.5 1164.91,-134.5"/>
<text text-anchor="middle" x="1141.91" y="-122.5" font-family="Helvetica,sans-Serif" font-size="10.00">future</text>
</a>
</g>
</g>
<!-- Node21&#45;&gt;Node22 -->
<g id="edge31_Node000021_Node000022" class="edge">
<title>Node21&#45;&gt;Node22</title>
<g id="a_edge31_Node000021_Node000022"><a xlink:title=" ">
<path fill="none" stroke="#63b8ff" d="M809.63,-182.28C883.45,-178.45 1007.23,-168.07 1109.91,-140 1111.8,-139.48 1113.72,-138.88 1115.63,-138.21"/>
<polygon fill="#63b8ff" stroke="#63b8ff" points="1116.97,-141.44 1124.97,-134.5 1114.39,-134.94 1116.97,-141.44"/>
</a>
</g>
</g>
<!-- Node23 -->
<g id="Node000023" class="node">
<title>Node23</title>
<g id="a_Node000023"><a xlink:title=" ">
<polygon fill="#e0e0e0" stroke="#999999" points="665.41,-134.5 600.41,-134.5 600.41,-115.5 665.41,-115.5 665.41,-134.5"/>
<text text-anchor="middle" x="632.91" y="-122.5" font-family="Helvetica,sans-Serif" font-size="10.00">stdexcept</text>
</a>
</g>
</g>
<!-- Node21&#45;&gt;Node23 -->
<g id="edge33_Node000021_Node000023" class="edge">
<title>Node21&#45;&gt;Node23</title>
<g id="a_edge33_Node000021_Node000023"><a xlink:title=" ">
<path fill="none" stroke="#63b8ff" d="M728.39,-175.87C709.94,-166.23 679.87,-150.53 658.4,-139.31"/>
<polygon fill="#63b8ff" stroke="#63b8ff" points="659.99,-136.19 649.51,-134.67 656.75,-142.4 659.99,-136.19"/>
</a>
</g>
</g>
<!-- Node24 -->
<g id="Node000024" class="node">
<title>Node24</title>
<g id="a_Node000024"><a xlink:href="field_8h.html" target="_top" xlink:title=" ">
<polygon fill="white" stroke="#666666" points="1100.41,-134.5 1053.41,-134.5 1053.41,-115.5 1100.41,-115.5 1100.41,-134.5"/>
<text text-anchor="middle" x="1076.91" y="-122.5" font-family="Helvetica,sans-Serif" font-size="10.00">field.h</text>
</a>
</g>
</g>
<!-- Node21&#45;&gt;Node24 -->
<g id="edge34_Node000021_Node000024" class="edge">
<title>Node21&#45;&gt;Node24</title>
<g id="a_edge34_Node000021_Node000024"><a xlink:title=" ">
<path fill="none" stroke="#63b8ff" d="M809.61,-178.52C869.69,-172.07 961.29,-159.95 1038.91,-140 1041.35,-139.37 1043.86,-138.65 1046.36,-137.86"/>
<polygon fill="#63b8ff" stroke="#63b8ff" points="1047.52,-141.16 1055.85,-134.62 1045.25,-134.54 1047.52,-141.16"/>
</a>
</g>
</g>
<!-- Node27 -->
<g id="Node000027" class="node">
<title>Node27</title>
<g id="a_Node000027"><a xlink:href="def__types_8h.html" target="_top" xlink:title=" ">
<polygon fill="white" stroke="#666666" points="835.41,-140 722.41,-140 722.41,-110 835.41,-110 835.41,-140"/>
<text text-anchor="start" x="730.41" y="-128" font-family="Helvetica,sans-Serif" font-size="10.00">webcface/c_wcf/def</text>
<text text-anchor="middle" x="778.91" y="-117" font-family="Helvetica,sans-Serif" font-size="10.00">_types.h</text>
</a>
</g>
</g>
<!-- Node21&#45;&gt;Node27 -->
<g id="edge45_Node000021_Node000027" class="edge">
<title>Node21&#45;&gt;Node27</title>
<g id="a_edge45_Node000021_Node000027"><a xlink:title=" ">
<path fill="none" stroke="#63b8ff" d="M749.93,-175.87C754.07,-168.74 760.15,-158.28 765.67,-148.79"/>
<polygon fill="#63b8ff" stroke="#63b8ff" points="768.71,-150.52 770.71,-140.11 762.66,-147 768.71,-150.52"/>
</a>
</g>
</g>
<!-- Node24&#45;&gt;Node4 -->
<g id="edge39_Node000024_Node000004" class="edge">
<title>Node24&#45;&gt;Node4</title>
<g id="a_edge39_Node000024_Node000004"><a xlink:title=" ">
<path fill="none" stroke="#63b8ff" d="M1053.27,-118.33C1020.21,-110.1 958.54,-93.66 907.91,-74 889.94,-67.02 887.22,-61.03 868.91,-55 810.3,-35.68 740.7,-23.94 691.58,-17.41"/>
<polygon fill="#63b8ff" stroke="#63b8ff" points="691.79,-13.91 681.42,-16.09 690.89,-20.85 691.79,-13.91"/>
</a>
</g>
</g>
<!-- Node24&#45;&gt;Node8 -->
<g id="edge36_Node000024_Node000008" class="edge">
<title>Node24&#45;&gt;Node8</title>
<g id="a_edge36_Node000024_Node000008"><a xlink:title=" ">
<path fill="none" stroke="#63b8ff" d="M1077.52,-115.15C1078.19,-105.16 1079.25,-88.42 1079.91,-74 1080.6,-58.98 1081.12,-41.96 1081.46,-29.32"/>
<polygon fill="#63b8ff" stroke="#63b8ff" points="1084.96,-29.22 1081.72,-19.13 1077.97,-29.04 1084.96,-29.22"/>
</a>
</g>
</g>
<!-- Node24&#45;&gt;Node9 -->
<g id="edge38_Node000024_Node000009" class="edge">
<title>Node24&#45;&gt;Node9</title>
<g id="a_edge38_Node000024_Node000009"><a xlink:title=" ">
<path fill="none" stroke="#63b8ff" d="M1053.33,-121.52C965.44,-112.29 656.64,-79.86 553.64,-69.04"/>
<polygon fill="#63b8ff" stroke="#63b8ff" points="553.81,-65.54 543.5,-67.98 553.08,-72.5 553.81,-65.54"/>
</a>
</g>
</g>
<!-- Node24&#45;&gt;Node14 -->
<g id="edge40_Node000024_Node000014" class="edge">
<title>Node24&#45;&gt;Node14</title>
<g id="a_edge40_Node000024_Node000014"><a xlink:title=" ">
<path fill="none" stroke="#63b8ff" d="M1090.19,-115.37C1104.55,-106.04 1127.67,-91.01 1144.78,-79.88"/>
<polygon fill="#63b8ff" stroke="#63b8ff" points="1147.1,-82.55 1153.58,-74.17 1143.29,-76.68 1147.1,-82.55"/>
</a>
</g>
</g>
<!-- Node24&#45;&gt;Node15 -->
<g id="edge37_Node000024_Node000015" class="edge">
<title>Node24&#45;&gt;Node15</title>
<g id="a_edge37_Node000024_Node000015"><a xlink:title=" ">
<path fill="none" stroke="#63b8ff" d="M1096.73,-115.37C1101.05,-113.55 1105.62,-111.67 1109.91,-110 1154.31,-92.69 1183.45,-112.95 1210.91,-74 1221.9,-58.42 1207.54,-39.21 1193.82,-26.03"/>
<polygon fill="#63b8ff" stroke="#63b8ff" points="1195.8,-23.11 1186.02,-19.04 1191.13,-28.32 1195.8,-23.11"/>
</a>
</g>
</g>
<!-- Node24&#45;&gt;Node16 -->
<g id="edge35_Node000024_Node000016" class="edge">
<title>Node24&#45;&gt;Node16</title>
<g id="a_edge35_Node000024_Node000016"><a xlink:title=" ">
<path fill="none" stroke="#63b8ff" d="M1096.33,-115.38C1100.76,-113.52 1105.47,-111.63 1109.91,-110 1160.6,-91.44 1182.73,-106.4 1225.91,-74 1241.57,-62.26 1253.16,-42.85 1260.16,-28.58"/>
<polygon fill="#63b8ff" stroke="#63b8ff" points="1263.44,-29.83 1264.43,-19.28 1257.08,-26.91 1263.44,-29.83"/>
</a>
</g>
</g>
<!-- Node25 -->
<g id="Node000025" class="node">
<title>Node25</title>
<g id="a_Node000025"><a xlink:href="complete_8h.html" target="_top" xlink:title=" ">
<polygon fill="white" stroke="#666666" points="1037.41,-74 916.41,-74 916.41,-55 1037.41,-55 1037.41,-74"/>
<text text-anchor="middle" x="976.91" y="-62" font-family="Helvetica,sans-Serif" font-size="10.00">webcface/complete.h</text>
</a>
</g>
</g>
<!-- Node24&#45;&gt;Node25 -->
<g id="edge41_Node000024_Node000025" class="edge">
<title>Node24&#45;&gt;Node25</title>
<g id="a_edge41_Node000024_Node000025"><a xlink:title=" ">
<path fill="none" stroke="#63b8ff" d="M1062.16,-115.37C1045.91,-105.86 1019.56,-90.45 1000.45,-79.27"/>
<polygon fill="#63b8ff" stroke="#63b8ff" points="1002.13,-76.2 991.73,-74.17 998.59,-82.24 1002.13,-76.2"/>
</a>
</g>
</g>
<!-- Node25&#45;&gt;Node4 -->
<g id="edge43_Node000025_Node000004" class="edge">
<title>Node25&#45;&gt;Node4</title>
<g id="a_edge43_Node000025_Node000004"><a xlink:title=" ">
<path fill="none" stroke="#63b8ff" d="M921,-54.98C858.35,-45.44 757.04,-30.01 691.72,-20.06"/>
<polygon fill="#63b8ff" stroke="#63b8ff" points="691.96,-16.56 681.55,-18.52 690.91,-23.48 691.96,-16.56"/>
</a>
</g>
</g>
<!-- Node26 -->
<g id="Node000026" class="node">
<title>Node26</title>
<g id="a_Node000026"><a xlink:title=" ">
<polygon fill="#e0e0e0" stroke="#999999" points="933.41,-19 880.41,-19 880.41,0 933.41,0 933.41,-19"/>
<text text-anchor="middle" x="906.91" y="-7" font-family="Helvetica,sans-Serif" font-size="10.00">cstddef</text>
</a>
</g>
</g>
<!-- Node25&#45;&gt;Node26 -->
<g id="edge42_Node000025_Node000026" class="edge">
<title>Node25&#45;&gt;Node26</title>
<g id="a_edge42_Node000025_Node000026"><a xlink:title=" ">
<path fill="none" stroke="#63b8ff" d="M965.67,-54.98C955.11,-47 939.11,-34.88 926.47,-25.31"/>
<polygon fill="#63b8ff" stroke="#63b8ff" points="928.45,-22.42 918.36,-19.17 924.22,-28 928.45,-22.42"/>
</a>
</g>
</g>
<!-- Node27&#45;&gt;Node4 -->
<g id="edge46_Node000027_Node000004" class="edge">
<title>Node27&#45;&gt;Node4</title>
<g id="a_edge46_Node000027_Node000004"><a xlink:title=" ">
<path fill="none" stroke="#63b8ff" d="M731.08,-110C709.69,-101.99 685.23,-90.25 666.91,-74 652.82,-61.5 642.41,-42.49 636.08,-28.52"/>
<polygon fill="#63b8ff" stroke="#63b8ff" points="639.17,-26.86 632.04,-19.02 632.73,-29.59 639.17,-26.86"/>
</a>
</g>
</g>
<!-- Node28 -->
<g id="Node000028" class="node">
<title>Node28</title>
<g id="a_Node000028"><a xlink:title=" ">
<polygon fill="#e0e0e0" stroke="#999999" points="795.91,-74 741.91,-74 741.91,-55 795.91,-55 795.91,-74"/>
<text text-anchor="middle" x="768.91" y="-62" font-family="Helvetica,sans-Serif" font-size="10.00">wchar.h</text>
</a>
</g>
</g>
<!-- Node27&#45;&gt;Node28 -->
<g id="edge47_Node000027_Node000028" class="edge">
<title>Node27&#45;&gt;Node28</title>
<g id="a_edge47_Node000027_Node000028"><a xlink:title=" ">
<path fill="none" stroke="#63b8ff" d="M776.49,-109.84C775.17,-102.13 773.53,-92.49 772.1,-84.17"/>
<polygon fill="#63b8ff" stroke="#63b8ff" points="775.55,-83.53 770.41,-74.27 768.65,-84.71 775.55,-83.53"/>
</a>
</g>
</g>
<!-- Node29 -->
<g id="Node000029" class="node">
<title>Node29</title>
<g id="a_Node000029"><a xlink:title=" ">
<polygon fill="#e0e0e0" stroke="#999999" points="723.41,-74 676.41,-74 676.41,-55 723.41,-55 723.41,-74"/>
<text text-anchor="middle" x="699.91" y="-62" font-family="Helvetica,sans-Serif" font-size="10.00">float.h</text>
</a>
</g>
</g>
<!-- Node27&#45;&gt;Node29 -->
<g id="edge48_Node000027_Node000029" class="edge">
<title>Node27&#45;&gt;Node29</title>
<g id="a_edge48_Node000027_Node000029"><a xlink:title=" ">
<path fill="none" stroke="#63b8ff" d="M759.79,-109.84C747.74,-100.91 732.2,-89.41 719.97,-80.35"/>
<polygon fill="#63b8ff" stroke="#63b8ff" points="721.87,-77.4 711.75,-74.27 717.7,-83.03 721.87,-77.4"/>
</a>
</g>
</g>
<!-- Node30&#45;&gt;Node7 -->
<g id="edge50_Node000030_Node000007" class="edge">
<title>Node30&#45;&gt;Node7</title>
<g id="a_edge50_Node000030_Node000007"><a xlink:title=" ">
<path fill="none" stroke="#63b8ff" d="M599.29,-236.42C569.04,-227.12 520.11,-211.39 478.91,-195 440.07,-179.55 396.84,-159.16 367,-144.56"/>
<polygon fill="#63b8ff" stroke="#63b8ff" points="368.31,-141.31 357.8,-140.04 365.23,-147.59 368.31,-141.31"/>
</a>
</g>
</g>
<!-- Node30&#45;&gt;Node21 -->
<g id="edge51_Node000030_Node000021" class="edge">
<title>Node30&#45;&gt;Node21</title>
<g id="a_edge51_Node000030_Node000021"><a xlink:title=" ">
<path fill="none" stroke="#63b8ff" d="M644.92,-236.49C664.33,-226.79 696.3,-210.81 718.85,-199.53"/>
<polygon fill="#63b8ff" stroke="#63b8ff" points="720.5,-202.62 727.88,-195.02 717.37,-196.36 720.5,-202.62"/>
</a>
</g>
</g>
<!-- Node31 -->
<g id="Node000031" class="node">
<title>Node31</title>
<g id="a_Node000031"><a xlink:href="arg_8h.html" target="_top" xlink:title=" ">
<polygon fill="white" stroke="#666666" points="529.41,-195 488.41,-195 488.41,-176 529.41,-176 529.41,-195"/>
<text text-anchor="middle" x="508.91" y="-183" font-family="Helvetica,sans-Serif" font-size="10.00">arg.h</text>
</a>
</g>
</g>
<!-- Node30&#45;&gt;Node31 -->
<g id="edge52_Node000030_Node000031" class="edge">
<title>Node30&#45;&gt;Node31</title>
<g id="a_edge52_Node000030_Node000031"><a xlink:title=" ">
<path fill="none" stroke="#63b8ff" d="M610.61,-236.49C590.87,-226.79 558.36,-210.81 535.42,-199.53"/>
<polygon fill="#63b8ff" stroke="#63b8ff" points="536.75,-196.29 526.24,-195.02 533.67,-202.57 536.75,-196.29"/>
</a>
</g>
</g>
<!-- Node32 -->
<g id="Node000032" class="node">
<title>Node32</title>
<g id="a_Node000032"><a xlink:href="trait_8h.html" target="_top" xlink:title=" ">
<polygon fill="white" stroke="#666666" points="859.91,-74 813.91,-74 813.91,-55 859.91,-55 859.91,-74"/>
<text text-anchor="middle" x="836.91" y="-62" font-family="Helvetica,sans-Serif" font-size="10.00">trait.h</text>
</a>
</g>
</g>
<!-- Node30&#45;&gt;Node32 -->
<g id="edge56_Node000030_Node000032" class="edge">
<title>Node30&#45;&gt;Node32</title>
<g id="a_edge56_Node000030_Node000032"><a xlink:title=" ">
<path fill="none" stroke="#63b8ff" d="M675.95,-237.05C724.82,-228.16 796.33,-212.66 817.91,-195 848.59,-169.9 848.43,-149.48 844.91,-110 844.15,-101.5 842.6,-92.19 841.06,-84.29"/>
<polygon fill="#63b8ff" stroke="#63b8ff" points="844.44,-83.38 838.97,-74.3 837.59,-84.81 844.44,-83.38"/>
</a>
</g>
</g>
<!-- Node33 -->
<g id="Node000033" class="node">
<title>Node33</title>
<g id="a_Node000033"><a xlink:href="exception_8h.html" target="_top" xlink:title=" ">
<polygon fill="white" stroke="#666666" points="661.91,-195 587.91,-195 587.91,-176 661.91,-176 661.91,-195"/>
<text text-anchor="middle" x="624.91" y="-183" font-family="Helvetica,sans-Serif" font-size="10.00">exception.h</text>
</a>
</g>
</g>
<!-- Node30&#45;&gt;Node33 -->
<g id="edge59_Node000030_Node000033" class="edge">
<title>Node30&#45;&gt;Node33</title>
<g id="a_edge59_Node000030_Node000033"><a xlink:title=" ">
<path fill="none" stroke="#63b8ff" d="M627.47,-236.37C627.05,-228.25 626.42,-215.81 625.88,-205.39"/>
<polygon fill="#63b8ff" stroke="#63b8ff" points="629.36,-204.97 625.36,-195.17 622.37,-205.33 629.36,-204.97"/>
</a>
</g>
</g>
<!-- Node31&#45;&gt;Node7 -->
<g id="edge55_Node000031_Node000007" class="edge">
<title>Node31&#45;&gt;Node7</title>
<g id="a_edge55_Node000031_Node000007"><a xlink:title=" ">
<path fill="none" stroke="#63b8ff" d="M488.38,-177.79C462.78,-169.42 418.07,-154.81 382.66,-143.24"/>
<polygon fill="#63b8ff" stroke="#63b8ff" points="383.53,-139.84 372.94,-140.06 381.36,-146.5 383.53,-139.84"/>
</a>
</g>
</g>
<!-- Node31&#45;&gt;Node9 -->
<g id="edge53_Node000031_Node000009" class="edge">
<title>Node31&#45;&gt;Node9</title>
<g id="a_edge53_Node000031_Node000009"><a xlink:title=" ">
<path fill="none" stroke="#63b8ff" d="M500.7,-175.8C493.37,-167.38 483.16,-153.9 478.91,-140 475.02,-127.25 474.06,-122.42 478.91,-110 483.31,-98.73 492.05,-88.59 500.34,-80.85"/>
<polygon fill="#63b8ff" stroke="#63b8ff" points="502.74,-83.4 507.99,-74.2 498.14,-78.12 502.74,-83.4"/>
</a>
</g>
</g>
<!-- Node31&#45;&gt;Node17 -->
<g id="edge54_Node000031_Node000017" class="edge">
<title>Node31&#45;&gt;Node17</title>
<g id="a_edge54_Node000031_Node000017"><a xlink:title=" ">
<path fill="none" stroke="#63b8ff" d="M509.95,-175.87C510.92,-167.75 512.41,-155.31 513.65,-144.89"/>
<polygon fill="#63b8ff" stroke="#63b8ff" points="517.16,-145.01 514.88,-134.67 510.21,-144.18 517.16,-145.01"/>
</a>
</g>
</g>
<!-- Node32&#45;&gt;Node4 -->
<g id="edge58_Node000032_Node000004" class="edge">
<title>Node32&#45;&gt;Node4</title>
<g id="a_edge58_Node000032_Node000004"><a xlink:title=" ">
<path fill="none" stroke="#63b8ff" d="M813.85,-57.34C810.84,-56.55 807.81,-55.75 804.91,-55 760.21,-43.41 709.01,-30.51 673.41,-21.59"/>
<polygon fill="#63b8ff" stroke="#63b8ff" points="673.89,-18.11 663.34,-19.08 672.19,-24.9 673.89,-18.11"/>
</a>
</g>
</g>
<!-- Node32&#45;&gt;Node26 -->
<g id="edge57_Node000032_Node000026" class="edge">
<title>Node32&#45;&gt;Node26</title>
<g id="a_edge57_Node000032_Node000026"><a xlink:title=" ">
<path fill="none" stroke="#63b8ff" d="M848.16,-54.98C858.71,-47 874.71,-34.88 887.35,-25.31"/>
<polygon fill="#63b8ff" stroke="#63b8ff" points="889.6,-28 895.46,-19.17 885.38,-22.42 889.6,-28"/>
</a>
</g>
</g>
<!-- Node33&#45;&gt;Node4 -->
<g id="edge60_Node000033_Node000004" class="edge">
<title>Node33&#45;&gt;Node4</title>
<g id="a_edge60_Node000033_Node000004"><a xlink:title=" ">
<path fill="none" stroke="#63b8ff" d="M615.31,-175.69C607.04,-167.41 595.71,-154.18 590.91,-140 585.76,-124.78 594.31,-59.2 595.91,-55 599.84,-44.7 606.86,-34.71 613.42,-26.81"/>
<polygon fill="#63b8ff" stroke="#63b8ff" points="616.19,-28.96 620.19,-19.15 610.94,-24.33 616.19,-28.96"/>
</a>
</g>
</g>
<!-- Node33&#45;&gt;Node23 -->
<g id="edge61_Node000033_Node000023" class="edge">
<title>Node33&#45;&gt;Node23</title>
<g id="a_edge61_Node000033_Node000023"><a xlink:title=" ">
<path fill="none" stroke="#63b8ff" d="M626.09,-175.87C627.2,-167.75 628.9,-155.31 630.33,-144.89"/>
<polygon fill="#63b8ff" stroke="#63b8ff" points="633.84,-145.05 631.73,-134.67 626.9,-144.1 633.84,-145.05"/>
</a>
</g>
</g>
</g>
</svg>
