<?xml version="1.0" encoding="UTF-8" standalone="no"?>
<!DOCTYPE svg PUBLIC "-//W3C//DTD SVG 1.1//EN"
 "http://www.w3.org/Graphics/SVG/1.1/DTD/svg11.dtd">
<!-- Generated by graphviz version 2.43.0 (0)
 -->
<!-- Title: client/include/webcface/func_listener.h Pages: 1 -->
<svg width="1030pt" height="324pt"
 viewBox="0.00 0.00 1029.50 324.00" xmlns="http://www.w3.org/2000/svg" xmlns:xlink="http://www.w3.org/1999/xlink">
<g id="graph0" class="graph" transform="scale(1 1) rotate(0) translate(4 320)">
<title>client/include/webcface/func_listener.h</title>
<!-- Node1 -->
<g id="Node000001" class="node">
<title>Node1</title>
<g id="a_Node000001"><a xlink:title=" ">
<polygon fill="#999999" stroke="#666666" points="737.5,-316 606.5,-316 606.5,-286 737.5,-286 737.5,-316"/>
<text text-anchor="start" x="614.5" y="-304" font-family="Helvetica,sans-Serif" font-size="10.00">client/include/webcface</text>
<text text-anchor="middle" x="672" y="-293" font-family="Helvetica,sans-Serif" font-size="10.00">/func_listener.h</text>
</a>
</g>
</g>
<!-- Node2 -->
<g id="Node000002" class="node">
<title>Node2</title>
<g id="a_Node000002"><a xlink:href="func_8h.html" target="_top" xlink:title=" ">
<polygon fill="white" stroke="#666666" points="695.5,-250 648.5,-250 648.5,-231 695.5,-231 695.5,-250"/>
<text text-anchor="middle" x="672" y="-238" font-family="Helvetica,sans-Serif" font-size="10.00">func.h</text>
</a>
</g>
</g>
<!-- Node1&#45;&gt;Node2 -->
<g id="edge1_Node000001_Node000002" class="edge">
<title>Node1&#45;&gt;Node2</title>
<g id="a_edge1_Node000001_Node000002"><a xlink:title=" ">
<path fill="none" stroke="#63b8ff" d="M672,-285.84C672,-278.21 672,-268.7 672,-260.45"/>
<polygon fill="#63b8ff" stroke="#63b8ff" points="675.5,-260.27 672,-250.27 668.5,-260.27 675.5,-260.27"/>
</a>
</g>
</g>
<!-- Node3 -->
<g id="Node000003" class="node">
<title>Node3</title>
<g id="a_Node000003"><a xlink:href="encoding_2include_2webcface_2encoding_2val__adaptor_8h.html" target="_top" xlink:title=" ">
<polygon fill="white" stroke="#666666" points="828,-140 700,-140 700,-110 828,-110 828,-140"/>
<text text-anchor="start" x="708" y="-128" font-family="Helvetica,sans-Serif" font-size="10.00">webcface/encoding/val</text>
<text text-anchor="middle" x="764" y="-117" font-family="Helvetica,sans-Serif" font-size="10.00">_adaptor.h</text>
</a>
</g>
</g>
<!-- Node2&#45;&gt;Node3 -->
<g id="edge2_Node000002_Node000003" class="edge">
<title>Node2&#45;&gt;Node3</title>
<g id="a_edge2_Node000002_Node000003"><a xlink:title=" ">
<path fill="none" stroke="#63b8ff" d="M678.91,-230.97C693.03,-213.55 725.56,-173.42 746.06,-148.13"/>
<polygon fill="#63b8ff" stroke="#63b8ff" points="748.93,-150.15 752.51,-140.18 743.49,-145.75 748.93,-150.15"/>
</a>
</g>
</g>
<!-- Node17 -->
<g id="Node000017" class="node">
<title>Node17</title>
<g id="a_Node000017"><a xlink:href="func__result_8h.html" target="_top" xlink:title=" ">
<polygon fill="white" stroke="#666666" points="473,-195 393,-195 393,-176 473,-176 473,-195"/>
<text text-anchor="middle" x="433" y="-183" font-family="Helvetica,sans-Serif" font-size="10.00">func_result.h</text>
</a>
</g>
</g>
<!-- Node2&#45;&gt;Node17 -->
<g id="edge18_Node000002_Node000017" class="edge">
<title>Node2&#45;&gt;Node17</title>
<g id="a_edge18_Node000002_Node000017"><a xlink:title=" ">
<path fill="none" stroke="#63b8ff" d="M648.21,-234.22C609.55,-225.65 532.32,-208.52 481.66,-197.29"/>
<polygon fill="#63b8ff" stroke="#63b8ff" points="482.11,-193.81 471.59,-195.06 480.6,-200.64 482.11,-193.81"/>
</a>
</g>
</g>
<!-- Node25 -->
<g id="Node000025" class="node">
<title>Node25</title>
<g id="a_Node000025"><a xlink:href="arg_8h.html" target="_top" xlink:title=" ">
<polygon fill="white" stroke="#666666" points="692.5,-195 651.5,-195 651.5,-176 692.5,-176 692.5,-195"/>
<text text-anchor="middle" x="672" y="-183" font-family="Helvetica,sans-Serif" font-size="10.00">arg.h</text>
</a>
</g>
</g>
<!-- Node2&#45;&gt;Node25 -->
<g id="edge37_Node000002_Node000025" class="edge">
<title>Node2&#45;&gt;Node25</title>
<g id="a_edge37_Node000002_Node000025"><a xlink:title=" ">
<path fill="none" stroke="#63b8ff" d="M672,-230.75C672,-223.8 672,-213.85 672,-205.13"/>
<polygon fill="#63b8ff" stroke="#63b8ff" points="675.5,-205.09 672,-195.09 668.5,-205.09 675.5,-205.09"/>
</a>
</g>
</g>
<!-- Node4 -->
<g id="Node000004" class="node">
<title>Node4</title>
<g id="a_Node000004"><a xlink:title=" ">
<polygon fill="#e0e0e0" stroke="#999999" points="618,-19 574,-19 574,0 618,0 618,-19"/>
<text text-anchor="middle" x="596" y="-7" font-family="Helvetica,sans-Serif" font-size="10.00">string</text>
</a>
</g>
</g>
<!-- Node3&#45;&gt;Node4 -->
<g id="edge3_Node000003_Node000004" class="edge">
<title>Node3&#45;&gt;Node4</title>
<g id="a_edge3_Node000003_Node000004"><a xlink:title=" ">
<path fill="none" stroke="#63b8ff" d="M776.62,-109.73C788.26,-94.78 801.93,-71.25 789,-55 769.3,-30.24 678.22,-18.09 628.54,-13.21"/>
<polygon fill="#63b8ff" stroke="#63b8ff" points="628.6,-9.7 618.32,-12.25 627.95,-16.67 628.6,-9.7"/>
</a>
</g>
</g>
<!-- Node5 -->
<g id="Node000005" class="node">
<title>Node5</title>
<g id="a_Node000005"><a xlink:title=" ">
<polygon fill="#e0e0e0" stroke="#999999" points="671.5,-74 624.5,-74 624.5,-55 671.5,-55 671.5,-74"/>
<text text-anchor="middle" x="648" y="-62" font-family="Helvetica,sans-Serif" font-size="10.00">vector</text>
</a>
</g>
</g>
<!-- Node3&#45;&gt;Node5 -->
<g id="edge4_Node000003_Node000005" class="edge">
<title>Node3&#45;&gt;Node5</title>
<g id="a_edge4_Node000003_Node000005"><a xlink:title=" ">
<path fill="none" stroke="#63b8ff" d="M736.22,-109.99C717.38,-100.49 692.65,-88.02 674.16,-78.69"/>
<polygon fill="#63b8ff" stroke="#63b8ff" points="675.64,-75.52 665.13,-74.14 672.48,-81.77 675.64,-75.52"/>
</a>
</g>
</g>
<!-- Node6 -->
<g id="Node000006" class="node">
<title>Node6</title>
<g id="a_Node000006"><a xlink:title=" ">
<polygon fill="#e0e0e0" stroke="#999999" points="877.5,-74 836.5,-74 836.5,-55 877.5,-55 877.5,-74"/>
<text text-anchor="middle" x="857" y="-62" font-family="Helvetica,sans-Serif" font-size="10.00">tuple</text>
</a>
</g>
</g>
<!-- Node3&#45;&gt;Node6 -->
<g id="edge5_Node000003_Node000006" class="edge">
<title>Node3&#45;&gt;Node6</title>
<g id="a_edge5_Node000003_Node000006"><a xlink:title=" ">
<path fill="none" stroke="#63b8ff" d="M786.51,-109.84C801.06,-100.68 819.93,-88.82 834.49,-79.66"/>
<polygon fill="#63b8ff" stroke="#63b8ff" points="836.74,-82.38 843.34,-74.09 833.01,-76.46 836.74,-82.38"/>
</a>
</g>
</g>
<!-- Node7 -->
<g id="Node000007" class="node">
<title>Node7</title>
<g id="a_Node000007"><a xlink:title=" ">
<polygon fill="#e0e0e0" stroke="#999999" points="946,-74 896,-74 896,-55 946,-55 946,-74"/>
<text text-anchor="middle" x="921" y="-62" font-family="Helvetica,sans-Serif" font-size="10.00">cstdint</text>
</a>
</g>
</g>
<!-- Node3&#45;&gt;Node7 -->
<g id="edge6_Node000003_Node000007" class="edge">
<title>Node3&#45;&gt;Node7</title>
<g id="a_edge6_Node000003_Node000007"><a xlink:title=" ">
<path fill="none" stroke="#63b8ff" d="M801.61,-109.99C828.03,-100.14 863.04,-87.1 888.31,-77.68"/>
<polygon fill="#63b8ff" stroke="#63b8ff" points="889.67,-80.91 897.81,-74.14 887.22,-74.35 889.67,-80.91"/>
</a>
</g>
</g>
<!-- Node8 -->
<g id="Node000008" class="node">
<title>Node8</title>
<g id="a_Node000008"><a xlink:title=" ">
<polygon fill="#e0e0e0" stroke="#999999" points="1021.5,-74 964.5,-74 964.5,-55 1021.5,-55 1021.5,-74"/>
<text text-anchor="middle" x="993" y="-62" font-family="Helvetica,sans-Serif" font-size="10.00">ostream</text>
</a>
</g>
</g>
<!-- Node3&#45;&gt;Node8 -->
<g id="edge7_Node000003_Node000008" class="edge">
<title>Node3&#45;&gt;Node8</title>
<g id="a_edge7_Node000003_Node000008"><a xlink:title=" ">
<path fill="none" stroke="#63b8ff" d="M818.85,-109.99C860.7,-99.3 917.3,-84.84 954.45,-75.35"/>
<polygon fill="#63b8ff" stroke="#63b8ff" points="955.57,-78.68 964.39,-72.81 953.83,-71.89 955.57,-78.68"/>
</a>
</g>
</g>
<!-- Node9 -->
<g id="Node000009" class="node">
<title>Node9</title>
<g id="a_Node000009"><a xlink:title=" ">
<polygon fill="#e0e0e0" stroke="#999999" points="779.5,-74 728.5,-74 728.5,-55 779.5,-55 779.5,-74"/>
<text text-anchor="middle" x="754" y="-62" font-family="Helvetica,sans-Serif" font-size="10.00">variant</text>
</a>
</g>
</g>
<!-- Node3&#45;&gt;Node9 -->
<g id="edge8_Node000003_Node000009" class="edge">
<title>Node3&#45;&gt;Node9</title>
<g id="a_edge8_Node000003_Node000009"><a xlink:title=" ">
<path fill="none" stroke="#63b8ff" d="M761.58,-109.84C760.26,-102.13 758.61,-92.49 757.19,-84.17"/>
<polygon fill="#63b8ff" stroke="#63b8ff" points="760.63,-83.53 755.5,-74.27 753.73,-84.71 760.63,-83.53"/>
</a>
</g>
</g>
<!-- Node10 -->
<g id="Node000010" class="node">
<title>Node10</title>
<g id="a_Node000010"><a xlink:href="encoding_8h.html" target="_top" xlink:title=" ">
<polygon fill="white" stroke="#666666" points="278,-74 208,-74 208,-55 278,-55 278,-74"/>
<text text-anchor="middle" x="243" y="-62" font-family="Helvetica,sans-Serif" font-size="10.00">encoding.h</text>
</a>
</g>
</g>
<!-- Node3&#45;&gt;Node10 -->
<g id="edge9_Node000003_Node000010" class="edge">
<title>Node3&#45;&gt;Node10</title>
<g id="a_edge9_Node000003_Node000010"><a xlink:title=" ">
<path fill="none" stroke="#63b8ff" d="M699.75,-115.7C684.44,-113.78 668.14,-111.78 653,-110 520.56,-94.46 363.83,-77.98 288.24,-70.15"/>
<polygon fill="#63b8ff" stroke="#63b8ff" points="288.43,-66.65 278.12,-69.1 287.71,-73.61 288.43,-66.65"/>
</a>
</g>
</g>
<!-- Node16 -->
<g id="Node000016" class="node">
<title>Node16</title>
<g id="a_Node000016"><a xlink:href="webcface-config_8h.html" target="_top" xlink:title=" ">
<polygon fill="white" stroke="#666666" points="555.5,-19 450.5,-19 450.5,0 555.5,0 555.5,-19"/>
<text text-anchor="middle" x="503" y="-7" font-family="Helvetica,sans-Serif" font-size="10.00">webcface&#45;config.h</text>
</a>
</g>
</g>
<!-- Node3&#45;&gt;Node16 -->
<g id="edge17_Node000003_Node000016" class="edge">
<title>Node3&#45;&gt;Node16</title>
<g id="a_edge17_Node000003_Node000016"><a xlink:title=" ">
<path fill="none" stroke="#63b8ff" d="M751,-109.91C735.73,-94.2 708.91,-69.15 681,-55 659.39,-44.04 600.59,-30.39 556.44,-21.12"/>
<polygon fill="#63b8ff" stroke="#63b8ff" points="556.92,-17.64 546.42,-19.03 555.5,-24.5 556.92,-17.64"/>
</a>
</g>
</g>
<!-- Node10&#45;&gt;Node4 -->
<g id="edge10_Node000010_Node000004" class="edge">
<title>Node10&#45;&gt;Node4</title>
<g id="a_edge10_Node000010_Node000004"><a xlink:title=" ">
<path fill="none" stroke="#63b8ff" d="M278.04,-60.17C335.72,-54.36 454.4,-41.03 563.85,-19"/>
<polygon fill="#63b8ff" stroke="#63b8ff" points="564.64,-22.41 573.73,-16.98 563.23,-15.55 564.64,-22.41"/>
</a>
</g>
</g>
<!-- Node11 -->
<g id="Node000011" class="node">
<title>Node11</title>
<g id="a_Node000011"><a xlink:title=" ">
<polygon fill="#e0e0e0" stroke="#999999" points="149.5,-19 76.5,-19 76.5,0 149.5,0 149.5,-19"/>
<text text-anchor="middle" x="113" y="-7" font-family="Helvetica,sans-Serif" font-size="10.00">string_view</text>
</a>
</g>
</g>
<!-- Node10&#45;&gt;Node11 -->
<g id="edge11_Node000010_Node000011" class="edge">
<title>Node10&#45;&gt;Node11</title>
<g id="a_edge11_Node000010_Node000011"><a xlink:title=" ">
<path fill="none" stroke="#63b8ff" d="M222.11,-54.98C200.92,-46.34 167.87,-32.87 143.7,-23.02"/>
<polygon fill="#63b8ff" stroke="#63b8ff" points="144.85,-19.7 134.27,-19.17 142.21,-26.19 144.85,-19.7"/>
</a>
</g>
</g>
<!-- Node12 -->
<g id="Node000012" class="node">
<title>Node12</title>
<g id="a_Node000012"><a xlink:title=" ">
<polygon fill="#e0e0e0" stroke="#999999" points="58,-19 0,-19 0,0 58,0 58,-19"/>
<text text-anchor="middle" x="29" y="-7" font-family="Helvetica,sans-Serif" font-size="10.00">memory</text>
</a>
</g>
</g>
<!-- Node10&#45;&gt;Node12 -->
<g id="edge12_Node000010_Node000012" class="edge">
<title>Node10&#45;&gt;Node12</title>
<g id="a_edge12_Node000010_Node000012"><a xlink:title=" ">
<path fill="none" stroke="#63b8ff" d="M208.62,-54.98C170.17,-45.46 108.03,-30.07 67.86,-20.12"/>
<polygon fill="#63b8ff" stroke="#63b8ff" points="68.69,-16.72 58.14,-17.72 67.01,-23.52 68.69,-16.72"/>
</a>
</g>
</g>
<!-- Node13 -->
<g id="Node000013" class="node">
<title>Node13</title>
<g id="a_Node000013"><a xlink:title=" ">
<polygon fill="#e0e0e0" stroke="#999999" points="216,-19 168,-19 168,0 216,0 216,-19"/>
<text text-anchor="middle" x="192" y="-7" font-family="Helvetica,sans-Serif" font-size="10.00">mutex</text>
</a>
</g>
</g>
<!-- Node10&#45;&gt;Node13 -->
<g id="edge13_Node000010_Node000013" class="edge">
<title>Node10&#45;&gt;Node13</title>
<g id="a_edge13_Node000010_Node000013"><a xlink:title=" ">
<path fill="none" stroke="#63b8ff" d="M234.58,-54.75C227.23,-47.11 216.37,-35.82 207.46,-26.56"/>
<polygon fill="#63b8ff" stroke="#63b8ff" points="209.72,-23.87 200.26,-19.09 204.68,-28.72 209.72,-23.87"/>
</a>
</g>
</g>
<!-- Node14 -->
<g id="Node000014" class="node">
<title>Node14</title>
<g id="a_Node000014"><a xlink:title=" ">
<polygon fill="#e0e0e0" stroke="#999999" points="327.5,-19 234.5,-19 234.5,0 327.5,0 327.5,-19"/>
<text text-anchor="middle" x="281" y="-7" font-family="Helvetica,sans-Serif" font-size="10.00">unordered_map</text>
</a>
</g>
</g>
<!-- Node10&#45;&gt;Node14 -->
<g id="edge14_Node000010_Node000014" class="edge">
<title>Node10&#45;&gt;Node14</title>
<g id="a_edge14_Node000010_Node000014"><a xlink:title=" ">
<path fill="none" stroke="#63b8ff" d="M249.27,-54.75C254.59,-47.34 262.36,-36.5 268.88,-27.41"/>
<polygon fill="#63b8ff" stroke="#63b8ff" points="271.86,-29.26 274.84,-19.09 266.17,-25.18 271.86,-29.26"/>
</a>
</g>
</g>
<!-- Node15 -->
<g id="Node000015" class="node">
<title>Node15</title>
<g id="a_Node000015"><a xlink:title=" ">
<polygon fill="#e0e0e0" stroke="#999999" points="432,-19 346,-19 346,0 432,0 432,-19"/>
<text text-anchor="middle" x="389" y="-7" font-family="Helvetica,sans-Serif" font-size="10.00">unordered_set</text>
</a>
</g>
</g>
<!-- Node10&#45;&gt;Node15 -->
<g id="edge15_Node000010_Node000015" class="edge">
<title>Node10&#45;&gt;Node15</title>
<g id="a_edge15_Node000010_Node000015"><a xlink:title=" ">
<path fill="none" stroke="#63b8ff" d="M266.46,-54.98C290.58,-46.23 328.37,-32.51 355.6,-22.62"/>
<polygon fill="#63b8ff" stroke="#63b8ff" points="356.91,-25.87 365.12,-19.17 354.52,-19.29 356.91,-25.87"/>
</a>
</g>
</g>
<!-- Node10&#45;&gt;Node16 -->
<g id="edge16_Node000010_Node000016" class="edge">
<title>Node10&#45;&gt;Node16</title>
<g id="a_edge16_Node000010_Node000016"><a xlink:title=" ">
<path fill="none" stroke="#63b8ff" d="M278.06,-56.35C322.64,-47.27 399.95,-31.51 451.29,-21.04"/>
<polygon fill="#63b8ff" stroke="#63b8ff" points="452.1,-24.45 461.2,-19.02 450.7,-17.59 452.1,-24.45"/>
</a>
</g>
</g>
<!-- Node17&#45;&gt;Node3 -->
<g id="edge32_Node000017_Node000003" class="edge">
<title>Node17&#45;&gt;Node3</title>
<g id="a_edge32_Node000017_Node000003"><a xlink:title=" ">
<path fill="none" stroke="#63b8ff" d="M473.26,-177.39C526.93,-167.9 622.91,-150.94 689.86,-139.1"/>
<polygon fill="#63b8ff" stroke="#63b8ff" points="690.69,-142.51 699.93,-137.32 689.47,-135.62 690.69,-142.51"/>
</a>
</g>
</g>
<!-- Node17&#45;&gt;Node4 -->
<g id="edge21_Node000017_Node000004" class="edge">
<title>Node17&#45;&gt;Node4</title>
<g id="a_edge21_Node000017_Node000004"><a xlink:title=" ">
<path fill="none" stroke="#63b8ff" d="M470.19,-175.95C492.77,-169.23 521,-157.94 541,-140 574.08,-110.33 587.92,-57.42 593.16,-29.3"/>
<polygon fill="#63b8ff" stroke="#63b8ff" points="596.65,-29.65 594.86,-19.21 589.75,-28.48 596.65,-29.65"/>
</a>
</g>
</g>
<!-- Node17&#45;&gt;Node12 -->
<g id="edge23_Node000017_Node000012" class="edge">
<title>Node17&#45;&gt;Node12</title>
<g id="a_edge23_Node000017_Node000012"><a xlink:title=" ">
<path fill="none" stroke="#63b8ff" d="M392.98,-181.12C326.71,-175.02 197.45,-160.83 157,-140 104.48,-112.95 60.43,-56.39 40.47,-27.81"/>
<polygon fill="#63b8ff" stroke="#63b8ff" points="43.17,-25.56 34.65,-19.28 37.39,-29.51 43.17,-25.56"/>
</a>
</g>
</g>
<!-- Node17&#45;&gt;Node16 -->
<g id="edge19_Node000017_Node000016" class="edge">
<title>Node17&#45;&gt;Node16</title>
<g id="a_edge19_Node000017_Node000016"><a xlink:title=" ">
<path fill="none" stroke="#63b8ff" d="M426.63,-175.84C420.74,-167.25 412.39,-153.45 409,-140 405.74,-127.07 406.38,-123.07 409,-110 414.21,-84.02 414.86,-75.21 432,-55 443.16,-41.84 459.23,-31.32 473.25,-23.82"/>
<polygon fill="#63b8ff" stroke="#63b8ff" points="475.21,-26.75 482.55,-19.12 472.05,-20.51 475.21,-26.75"/>
</a>
</g>
</g>
<!-- Node18 -->
<g id="Node000018" class="node">
<title>Node18</title>
<g id="a_Node000018"><a xlink:title=" ">
<polygon fill="#e0e0e0" stroke="#999999" points="644,-134.5 588,-134.5 588,-115.5 644,-115.5 644,-134.5"/>
<text text-anchor="middle" x="616" y="-122.5" font-family="Helvetica,sans-Serif" font-size="10.00">optional</text>
</a>
</g>
</g>
<!-- Node17&#45;&gt;Node18 -->
<g id="edge20_Node000017_Node000018" class="edge">
<title>Node17&#45;&gt;Node18</title>
<g id="a_edge20_Node000017_Node000018"><a xlink:title=" ">
<path fill="none" stroke="#63b8ff" d="M460.6,-175.93C489.06,-167.07 534.69,-152.75 574,-140 576.28,-139.26 578.63,-138.49 581,-137.71"/>
<polygon fill="#63b8ff" stroke="#63b8ff" points="582.31,-140.97 590.7,-134.51 580.11,-134.32 582.31,-140.97"/>
</a>
</g>
</g>
<!-- Node19 -->
<g id="Node000019" class="node">
<title>Node19</title>
<g id="a_Node000019"><a xlink:title=" ">
<polygon fill="#e0e0e0" stroke="#999999" points="278,-134.5 232,-134.5 232,-115.5 278,-115.5 278,-134.5"/>
<text text-anchor="middle" x="255" y="-122.5" font-family="Helvetica,sans-Serif" font-size="10.00">future</text>
</a>
</g>
</g>
<!-- Node17&#45;&gt;Node19 -->
<g id="edge22_Node000017_Node000019" class="edge">
<title>Node17&#45;&gt;Node19</title>
<g id="a_edge22_Node000017_Node000019"><a xlink:title=" ">
<path fill="none" stroke="#63b8ff" d="M401.32,-176C371.51,-167.72 325.77,-154.33 287,-140 285.61,-139.49 284.2,-138.95 282.78,-138.38"/>
<polygon fill="#63b8ff" stroke="#63b8ff" points="284.04,-135.12 273.46,-134.51 281.36,-141.58 284.04,-135.12"/>
</a>
</g>
</g>
<!-- Node20 -->
<g id="Node000020" class="node">
<title>Node20</title>
<g id="a_Node000020"><a xlink:title=" ">
<polygon fill="#e0e0e0" stroke="#999999" points="361.5,-134.5 296.5,-134.5 296.5,-115.5 361.5,-115.5 361.5,-134.5"/>
<text text-anchor="middle" x="329" y="-122.5" font-family="Helvetica,sans-Serif" font-size="10.00">stdexcept</text>
</a>
</g>
</g>
<!-- Node17&#45;&gt;Node20 -->
<g id="edge24_Node000017_Node000020" class="edge">
<title>Node17&#45;&gt;Node20</title>
<g id="a_edge24_Node000017_Node000020"><a xlink:title=" ">
<path fill="none" stroke="#63b8ff" d="M417.65,-175.87C400.68,-166.32 373.1,-150.81 353.21,-139.62"/>
<polygon fill="#63b8ff" stroke="#63b8ff" points="354.84,-136.52 344.41,-134.67 351.41,-142.62 354.84,-136.52"/>
</a>
</g>
</g>
<!-- Node21 -->
<g id="Node000021" class="node">
<title>Node21</title>
<g id="a_Node000021"><a xlink:href="field_8h.html" target="_top" xlink:title=" ">
<polygon fill="white" stroke="#666666" points="213.5,-134.5 166.5,-134.5 166.5,-115.5 213.5,-115.5 213.5,-134.5"/>
<text text-anchor="middle" x="190" y="-122.5" font-family="Helvetica,sans-Serif" font-size="10.00">field.h</text>
</a>
</g>
</g>
<!-- Node17&#45;&gt;Node21 -->
<g id="edge25_Node000017_Node000021" class="edge">
<title>Node17&#45;&gt;Node21</title>
<g id="a_edge25_Node000017_Node000021"><a xlink:title=" ">
<path fill="none" stroke="#63b8ff" d="M392.93,-178.37C350.24,-171.3 280.94,-158.24 223,-140 221.37,-139.49 219.71,-138.92 218.04,-138.32"/>
<polygon fill="#63b8ff" stroke="#63b8ff" points="219.2,-135.02 208.61,-134.63 216.65,-141.54 219.2,-135.02"/>
</a>
</g>
</g>
<!-- Node22 -->
<g id="Node000022" class="node">
<title>Node22</title>
<g id="a_Node000022"><a xlink:href="def__types_8h.html" target="_top" xlink:title=" ">
<polygon fill="white" stroke="#666666" points="531.5,-140 418.5,-140 418.5,-110 531.5,-110 531.5,-140"/>
<text text-anchor="start" x="426.5" y="-128" font-family="Helvetica,sans-Serif" font-size="10.00">webcface/c_wcf/def</text>
<text text-anchor="middle" x="475" y="-117" font-family="Helvetica,sans-Serif" font-size="10.00">_types.h</text>
</a>
</g>
</g>
<!-- Node17&#45;&gt;Node22 -->
<g id="edge33_Node000017_Node000022" class="edge">
<title>Node17&#45;&gt;Node22</title>
<g id="a_edge33_Node000017_Node000022"><a xlink:title=" ">
<path fill="none" stroke="#63b8ff" d="M439.2,-175.87C444.37,-168.67 451.98,-158.07 458.85,-148.49"/>
<polygon fill="#63b8ff" stroke="#63b8ff" points="461.88,-150.28 464.87,-140.11 456.19,-146.2 461.88,-150.28"/>
</a>
</g>
</g>
<!-- Node21&#45;&gt;Node4 -->
<g id="edge27_Node000021_Node000004" class="edge">
<title>Node21&#45;&gt;Node4</title>
<g id="a_edge27_Node000021_Node000004"><a xlink:title=" ">
<path fill="none" stroke="#63b8ff" d="M209.02,-115.39C213.55,-113.49 218.41,-111.58 223,-110 368.72,-59.98 411.41,-60 564.24,-19.18"/>
<polygon fill="#63b8ff" stroke="#63b8ff" points="565.24,-22.53 573.99,-16.56 563.42,-15.77 565.24,-22.53"/>
</a>
</g>
</g>
<!-- Node21&#45;&gt;Node5 -->
<g id="edge29_Node000021_Node000005" class="edge">
<title>Node21&#45;&gt;Node5</title>
<g id="a_edge29_Node000021_Node000005"><a xlink:title=" ">
<path fill="none" stroke="#63b8ff" d="M207.47,-115.44C212.39,-113.35 217.82,-111.33 223,-110 376.18,-70.68 419.82,-91.4 577,-74 589.09,-72.66 602.33,-71.1 614.07,-69.69"/>
<polygon fill="#63b8ff" stroke="#63b8ff" points="614.84,-73.12 624.35,-68.44 614,-66.17 614.84,-73.12"/>
</a>
</g>
</g>
<!-- Node21&#45;&gt;Node10 -->
<g id="edge31_Node000021_Node000010" class="edge">
<title>Node21&#45;&gt;Node10</title>
<g id="a_edge31_Node000021_Node000010"><a xlink:title=" ">
<path fill="none" stroke="#63b8ff" d="M197.82,-115.37C205.81,-106.55 218.39,-92.66 228.26,-81.77"/>
<polygon fill="#63b8ff" stroke="#63b8ff" points="231.03,-83.93 235.15,-74.17 225.84,-79.23 231.03,-83.93"/>
</a>
</g>
</g>
<!-- Node21&#45;&gt;Node11 -->
<g id="edge28_Node000021_Node000011" class="edge">
<title>Node21&#45;&gt;Node11</title>
<g id="a_edge28_Node000021_Node000011"><a xlink:title=" ">
<path fill="none" stroke="#63b8ff" d="M184.21,-115.47C171.56,-96.82 141.23,-52.11 124.53,-27.49"/>
<polygon fill="#63b8ff" stroke="#63b8ff" points="127.37,-25.44 118.85,-19.13 121.57,-29.37 127.37,-25.44"/>
</a>
</g>
</g>
<!-- Node21&#45;&gt;Node12 -->
<g id="edge26_Node000021_Node000012" class="edge">
<title>Node21&#45;&gt;Node12</title>
<g id="a_edge26_Node000021_Node000012"><a xlink:title=" ">
<path fill="none" stroke="#63b8ff" d="M177.9,-115.47C150.51,-96.16 83.52,-48.93 49.51,-24.96"/>
<polygon fill="#63b8ff" stroke="#63b8ff" points="51.43,-22.03 41.24,-19.13 47.4,-27.75 51.43,-22.03"/>
</a>
</g>
</g>
<!-- Node21&#45;&gt;Node16 -->
<g id="edge30_Node000021_Node000016" class="edge">
<title>Node21&#45;&gt;Node16</title>
<g id="a_edge30_Node000021_Node000016"><a xlink:title=" ">
<path fill="none" stroke="#63b8ff" d="M206.32,-115.43C237.66,-99.05 305.35,-64.13 330,-55 369.17,-40.49 415.02,-28.93 449.67,-21.23"/>
<polygon fill="#63b8ff" stroke="#63b8ff" points="450.57,-24.62 459.59,-19.06 449.07,-17.78 450.57,-24.62"/>
</a>
</g>
</g>
<!-- Node22&#45;&gt;Node16 -->
<g id="edge34_Node000022_Node000016" class="edge">
<title>Node22&#45;&gt;Node16</title>
<g id="a_edge34_Node000022_Node000016"><a xlink:title=" ">
<path fill="none" stroke="#63b8ff" d="M459.13,-109.99C445.35,-96.05 429.05,-74.04 439,-55 446.11,-41.39 459.49,-31.1 472.19,-23.87"/>
<polygon fill="#63b8ff" stroke="#63b8ff" points="473.98,-26.88 481.21,-19.13 470.73,-20.68 473.98,-26.88"/>
</a>
</g>
</g>
<!-- Node23 -->
<g id="Node000023" class="node">
<title>Node23</title>
<g id="a_Node000023"><a xlink:title=" ">
<polygon fill="#e0e0e0" stroke="#999999" points="502,-74 448,-74 448,-55 502,-55 502,-74"/>
<text text-anchor="middle" x="475" y="-62" font-family="Helvetica,sans-Serif" font-size="10.00">wchar.h</text>
</a>
</g>
</g>
<!-- Node22&#45;&gt;Node23 -->
<g id="edge35_Node000022_Node000023" class="edge">
<title>Node22&#45;&gt;Node23</title>
<g id="a_edge35_Node000022_Node000023"><a xlink:title=" ">
<path fill="none" stroke="#63b8ff" d="M475,-109.84C475,-102.21 475,-92.7 475,-84.45"/>
<polygon fill="#63b8ff" stroke="#63b8ff" points="478.5,-84.27 475,-74.27 471.5,-84.27 478.5,-84.27"/>
</a>
</g>
</g>
<!-- Node24 -->
<g id="Node000024" class="node">
<title>Node24</title>
<g id="a_Node000024"><a xlink:title=" ">
<polygon fill="#e0e0e0" stroke="#999999" points="567.5,-74 520.5,-74 520.5,-55 567.5,-55 567.5,-74"/>
<text text-anchor="middle" x="544" y="-62" font-family="Helvetica,sans-Serif" font-size="10.00">float.h</text>
</a>
</g>
</g>
<!-- Node22&#45;&gt;Node24 -->
<g id="edge36_Node000022_Node000024" class="edge">
<title>Node22&#45;&gt;Node24</title>
<g id="a_edge36_Node000022_Node000024"><a xlink:title=" ">
<path fill="none" stroke="#63b8ff" d="M491.7,-109.84C502.03,-101.09 515.28,-89.85 525.86,-80.88"/>
<polygon fill="#63b8ff" stroke="#63b8ff" points="528.3,-83.4 533.66,-74.27 523.77,-78.06 528.3,-83.4"/>
</a>
</g>
</g>
<!-- Node25&#45;&gt;Node3 -->
<g id="edge40_Node000025_Node000003" class="edge">
<title>Node25&#45;&gt;Node3</title>
<g id="a_edge40_Node000025_Node000003"><a xlink:title=" ">
<path fill="none" stroke="#63b8ff" d="M685.57,-175.87C698.06,-167.93 717.02,-155.87 733.18,-145.6"/>
<polygon fill="#63b8ff" stroke="#63b8ff" points="735.24,-148.43 741.8,-140.11 731.49,-142.53 735.24,-148.43"/>
</a>
</g>
</g>
<!-- Node25&#45;&gt;Node5 -->
<g id="edge38_Node000025_Node000005" class="edge">
<title>Node25&#45;&gt;Node5</title>
<g id="a_edge38_Node000025_Node000005"><a xlink:title=" ">
<path fill="none" stroke="#63b8ff" d="M670.27,-175.94C666.42,-156.82 657.03,-110.27 651.76,-84.12"/>
<polygon fill="#63b8ff" stroke="#63b8ff" points="655.18,-83.41 649.78,-74.3 648.32,-84.8 655.18,-83.41"/>
</a>
</g>
</g>
<!-- Node25&#45;&gt;Node18 -->
<g id="edge39_Node000025_Node000018" class="edge">
<title>Node25&#45;&gt;Node18</title>
<g id="a_edge39_Node000025_Node000018"><a xlink:title=" ">
<path fill="none" stroke="#63b8ff" d="M663.74,-175.87C655.22,-166.97 641.74,-152.89 631.27,-141.95"/>
<polygon fill="#63b8ff" stroke="#63b8ff" points="633.74,-139.47 624.3,-134.67 628.68,-144.31 633.74,-139.47"/>
</a>
</g>
</g>
</g>
</svg>
