<?xml version="1.0" encoding="UTF-8" standalone="no"?>
<!DOCTYPE svg PUBLIC "-//W3C//DTD SVG 1.1//EN"
 "http://www.w3.org/Graphics/SVG/1.1/DTD/svg11.dtd">
<!-- Generated by graphviz version 2.43.0 (0)
 -->
<!-- Title: include/webcface/func_listener.h Pages: 1 -->
<svg width="1006pt" height="313pt"
 viewBox="0.00 0.00 1005.81 313.00" xmlns="http://www.w3.org/2000/svg" xmlns:xlink="http://www.w3.org/1999/xlink">
<g id="graph0" class="graph" transform="scale(1 1) rotate(0) translate(4 309)">
<title>include/webcface/func_listener.h</title>
<!-- Node1 -->
<g id="Node000001" class="node">
<title>Node1</title>
<g id="a_Node000001"><a xlink:title=" ">
<polygon fill="#999999" stroke="#666666" points="619.85,-305 494.85,-305 494.85,-275 619.85,-275 619.85,-305"/>
<text text-anchor="start" x="502.85" y="-293" font-family="Helvetica,sans-Serif" font-size="10.00">include/webcface/func</text>
<text text-anchor="middle" x="557.35" y="-282" font-family="Helvetica,sans-Serif" font-size="10.00">_listener.h</text>
</a>
</g>
</g>
<!-- Node2 -->
<g id="Node000002" class="node">
<title>Node2</title>
<g id="a_Node000002"><a xlink:href="field_8h.html" target="_top" xlink:title=" ">
<polygon fill="white" stroke="#666666" points="896.85,-129 849.85,-129 849.85,-110 896.85,-110 896.85,-129"/>
<text text-anchor="middle" x="873.35" y="-117" font-family="Helvetica,sans-Serif" font-size="10.00">field.h</text>
</a>
</g>
</g>
<!-- Node1&#45;&gt;Node2 -->
<g id="edge1_Node000001_Node000002" class="edge">
<title>Node1&#45;&gt;Node2</title>
<g id="a_edge1_Node000001_Node000002"><a xlink:title=" ">
<path fill="none" stroke="#63b8ff" d="M583.75,-274.92C643.74,-242.93 789.69,-165.11 848.34,-133.84"/>
<polygon fill="#63b8ff" stroke="#63b8ff" points="850.11,-136.86 857.29,-129.06 846.82,-130.68 850.11,-136.86"/>
</a>
</g>
</g>
<!-- Node7 -->
<g id="Node000007" class="node">
<title>Node7</title>
<g id="a_Node000007"><a xlink:href="func_8h.html" target="_top" xlink:title=" ">
<polygon fill="white" stroke="#666666" points="377.85,-239 330.85,-239 330.85,-220 377.85,-220 377.85,-239"/>
<text text-anchor="middle" x="354.35" y="-227" font-family="Helvetica,sans-Serif" font-size="10.00">func.h</text>
</a>
</g>
</g>
<!-- Node1&#45;&gt;Node7 -->
<g id="edge8_Node000001_Node000007" class="edge">
<title>Node1&#45;&gt;Node7</title>
<g id="a_edge8_Node000001_Node000007"><a xlink:title=" ">
<path fill="none" stroke="#63b8ff" d="M508.72,-274.99C471.31,-264.2 420.59,-249.59 387.67,-240.1"/>
<polygon fill="#63b8ff" stroke="#63b8ff" points="388.63,-236.74 378.06,-237.33 386.7,-243.46 388.63,-236.74"/>
</a>
</g>
</g>
<!-- Node15 -->
<g id="Node000015" class="node">
<title>Node15</title>
<g id="a_Node000015"><a xlink:href="val_8h.html" target="_top" xlink:title=" ">
<polygon fill="white" stroke="#666666" points="475.85,-129 434.85,-129 434.85,-110 475.85,-110 475.85,-129"/>
<text text-anchor="middle" x="455.35" y="-117" font-family="Helvetica,sans-Serif" font-size="10.00">val.h</text>
</a>
</g>
</g>
<!-- Node1&#45;&gt;Node15 -->
<g id="edge42_Node000001_Node000015" class="edge">
<title>Node1&#45;&gt;Node15</title>
<g id="a_edge42_Node000001_Node000015"><a xlink:title=" ">
<path fill="none" stroke="#63b8ff" d="M548.83,-274.92C530.26,-244.26 486.21,-171.48 465.91,-137.96"/>
<polygon fill="#63b8ff" stroke="#63b8ff" points="468.82,-136 460.65,-129.25 462.83,-139.62 468.82,-136"/>
</a>
</g>
</g>
<!-- Node20 -->
<g id="Node000020" class="node">
<title>Node20</title>
<g id="a_Node000020"><a xlink:href="func__result_8h.html" target="_top" xlink:title=" ">
<polygon fill="white" stroke="#666666" points="660.35,-184 580.35,-184 580.35,-165 660.35,-165 660.35,-184"/>
<text text-anchor="middle" x="620.35" y="-172" font-family="Helvetica,sans-Serif" font-size="10.00">func_result.h</text>
</a>
</g>
</g>
<!-- Node1&#45;&gt;Node20 -->
<g id="edge43_Node000001_Node000020" class="edge">
<title>Node1&#45;&gt;Node20</title>
<g id="a_edge43_Node000001_Node000020"><a xlink:title=" ">
<path fill="none" stroke="#63b8ff" d="M565.33,-274.63C576.86,-253.84 598.18,-215.44 610.62,-193.02"/>
<polygon fill="#63b8ff" stroke="#63b8ff" points="613.71,-194.67 615.5,-184.23 607.59,-191.27 613.71,-194.67"/>
</a>
</g>
</g>
<!-- Node3 -->
<g id="Node000003" class="node">
<title>Node3</title>
<g id="a_Node000003"><a xlink:title=" ">
<polygon fill="#e0e0e0" stroke="#999999" points="805.35,-74 747.35,-74 747.35,-55 805.35,-55 805.35,-74"/>
<text text-anchor="middle" x="776.35" y="-62" font-family="Helvetica,sans-Serif" font-size="10.00">memory</text>
</a>
</g>
</g>
<!-- Node2&#45;&gt;Node3 -->
<g id="edge2_Node000002_Node000003" class="edge">
<title>Node2&#45;&gt;Node3</title>
<g id="a_edge2_Node000002_Node000003"><a xlink:title=" ">
<path fill="none" stroke="#63b8ff" d="M857.76,-109.98C842.58,-101.69 819.25,-88.94 801.45,-79.22"/>
<polygon fill="#63b8ff" stroke="#63b8ff" points="802.67,-75.89 792.22,-74.17 799.31,-82.04 802.67,-75.89"/>
</a>
</g>
</g>
<!-- Node4 -->
<g id="Node000004" class="node">
<title>Node4</title>
<g id="a_Node000004"><a xlink:title=" ">
<polygon fill="#e0e0e0" stroke="#999999" points="741.35,-19 697.35,-19 697.35,0 741.35,0 741.35,-19"/>
<text text-anchor="middle" x="719.35" y="-7" font-family="Helvetica,sans-Serif" font-size="10.00">string</text>
</a>
</g>
</g>
<!-- Node2&#45;&gt;Node4 -->
<g id="edge3_Node000002_Node000004" class="edge">
<title>Node2&#45;&gt;Node4</title>
<g id="a_edge3_Node000002_Node000004"><a xlink:title=" ">
<path fill="none" stroke="#63b8ff" d="M896.88,-115.02C939.01,-107.84 1020.35,-89.13 991.35,-55 960.9,-19.16 816.86,-12.12 751.61,-10.79"/>
<polygon fill="#63b8ff" stroke="#63b8ff" points="751.53,-7.29 741.48,-10.61 751.41,-14.28 751.53,-7.29"/>
</a>
</g>
</g>
<!-- Node5 -->
<g id="Node000005" class="node">
<title>Node5</title>
<g id="a_Node000005"><a xlink:href="field__base_8h.html" target="_top" xlink:title=" ">
<polygon fill="white" stroke="#666666" points="982.85,-74 861.85,-74 861.85,-55 982.85,-55 982.85,-74"/>
<text text-anchor="middle" x="922.35" y="-62" font-family="Helvetica,sans-Serif" font-size="10.00">common/field_base.h</text>
</a>
</g>
</g>
<!-- Node2&#45;&gt;Node5 -->
<g id="edge4_Node000002_Node000005" class="edge">
<title>Node2&#45;&gt;Node5</title>
<g id="a_edge4_Node000002_Node000005"><a xlink:title=" ">
<path fill="none" stroke="#63b8ff" d="M881.44,-109.75C888.5,-102.11 898.93,-90.82 907.5,-81.56"/>
<polygon fill="#63b8ff" stroke="#63b8ff" points="910.19,-83.81 914.41,-74.09 905.05,-79.06 910.19,-83.81"/>
</a>
</g>
</g>
<!-- Node6 -->
<g id="Node000006" class="node">
<title>Node6</title>
<g id="a_Node000006"><a xlink:href="def_8h.html" target="_top" xlink:title=" ">
<polygon fill="white" stroke="#666666" points="466.85,-19 425.85,-19 425.85,0 466.85,0 466.85,-19"/>
<text text-anchor="middle" x="446.35" y="-7" font-family="Helvetica,sans-Serif" font-size="10.00">def.h</text>
</a>
</g>
</g>
<!-- Node2&#45;&gt;Node6 -->
<g id="edge7_Node000002_Node000006" class="edge">
<title>Node2&#45;&gt;Node6</title>
<g id="a_edge7_Node000002_Node000006"><a xlink:title=" ">
<path fill="none" stroke="#63b8ff" d="M868.12,-109.7C859.13,-95.47 839.29,-67.71 814.35,-55 755.48,-25 554.28,-14.5 476.96,-11.51"/>
<polygon fill="#63b8ff" stroke="#63b8ff" points="477.02,-8.01 466.9,-11.14 476.76,-15.01 477.02,-8.01"/>
</a>
</g>
</g>
<!-- Node5&#45;&gt;Node4 -->
<g id="edge5_Node000005_Node000004" class="edge">
<title>Node5&#45;&gt;Node4</title>
<g id="a_edge5_Node000005_Node000004"><a xlink:title=" ">
<path fill="none" stroke="#63b8ff" d="M889.73,-54.98C851.72,-45.06 789.32,-28.77 751.51,-18.9"/>
<polygon fill="#63b8ff" stroke="#63b8ff" points="752.1,-15.43 741.54,-16.29 750.33,-22.21 752.1,-15.43"/>
</a>
</g>
</g>
<!-- Node5&#45;&gt;Node6 -->
<g id="edge6_Node000005_Node000006" class="edge">
<title>Node5&#45;&gt;Node6</title>
<g id="a_edge6_Node000005_Node000006"><a xlink:title=" ">
<path fill="none" stroke="#63b8ff" d="M861.77,-56.62C856.89,-56.07 852.04,-55.53 847.35,-55 709.54,-39.54 545.05,-21.38 477.57,-13.94"/>
<polygon fill="#63b8ff" stroke="#63b8ff" points="477.55,-10.42 467.22,-12.8 476.78,-17.37 477.55,-10.42"/>
</a>
</g>
</g>
<!-- Node7&#45;&gt;Node6 -->
<g id="edge41_Node000007_Node000006" class="edge">
<title>Node7&#45;&gt;Node6</title>
<g id="a_edge41_Node000007_Node000006"><a xlink:title=" ">
<path fill="none" stroke="#63b8ff" d="M330.54,-226.73C273.23,-222.11 129.3,-208.35 88.35,-184 31.73,-150.33 -28.78,-103.92 15.35,-55 42.12,-25.32 321.57,-14.25 415.64,-11.35"/>
<polygon fill="#63b8ff" stroke="#63b8ff" points="415.77,-14.84 425.66,-11.05 415.56,-7.85 415.77,-14.84"/>
</a>
</g>
</g>
<!-- Node8 -->
<g id="Node000008" class="node">
<title>Node8</title>
<g id="a_Node000008"><a xlink:title=" ">
<polygon fill="#e0e0e0" stroke="#999999" points="84.85,-74 37.85,-74 37.85,-55 84.85,-55 84.85,-74"/>
<text text-anchor="middle" x="61.35" y="-62" font-family="Helvetica,sans-Serif" font-size="10.00">vector</text>
</a>
</g>
</g>
<!-- Node7&#45;&gt;Node8 -->
<g id="edge9_Node000007_Node000008" class="edge">
<title>Node7&#45;&gt;Node8</title>
<g id="a_edge9_Node000007_Node000008"><a xlink:title=" ">
<path fill="none" stroke="#63b8ff" d="M330.78,-229.09C272.21,-229.1 120.03,-219.98 54.35,-129 44.93,-115.96 48.43,-97.31 53.23,-83.6"/>
<polygon fill="#63b8ff" stroke="#63b8ff" points="56.51,-84.83 56.97,-74.25 50.01,-82.24 56.51,-84.83"/>
</a>
</g>
</g>
<!-- Node9 -->
<g id="Node000009" class="node">
<title>Node9</title>
<g id="a_Node000009"><a xlink:href="common_2func_8h.html" target="_top" xlink:title=" ">
<polygon fill="white" stroke="#666666" points="324.35,-184 232.35,-184 232.35,-165 324.35,-165 324.35,-184"/>
<text text-anchor="middle" x="278.35" y="-172" font-family="Helvetica,sans-Serif" font-size="10.00">common/func.h</text>
</a>
</g>
</g>
<!-- Node7&#45;&gt;Node9 -->
<g id="edge10_Node000007_Node000009" class="edge">
<title>Node7&#45;&gt;Node9</title>
<g id="a_edge10_Node000007_Node000009"><a xlink:title=" ">
<path fill="none" stroke="#63b8ff" d="M342.14,-219.98C330.57,-211.92 312.97,-199.65 299.19,-190.03"/>
<polygon fill="#63b8ff" stroke="#63b8ff" points="300.98,-187.02 290.78,-184.17 296.98,-192.76 300.98,-187.02"/>
</a>
</g>
</g>
<!-- Node7&#45;&gt;Node15 -->
<g id="edge30_Node000007_Node000015" class="edge">
<title>Node7&#45;&gt;Node15</title>
<g id="a_edge30_Node000007_Node000015"><a xlink:title=" ">
<path fill="none" stroke="#63b8ff" d="M362.61,-219.66C379.64,-201.46 418.83,-159.55 440.42,-136.47"/>
<polygon fill="#63b8ff" stroke="#63b8ff" points="442.98,-138.85 447.25,-129.16 437.86,-134.07 442.98,-138.85"/>
</a>
</g>
</g>
<!-- Node7&#45;&gt;Node20 -->
<g id="edge31_Node000007_Node000020" class="edge">
<title>Node7&#45;&gt;Node20</title>
<g id="a_edge31_Node000007_Node000020"><a xlink:title=" ">
<path fill="none" stroke="#63b8ff" d="M377.95,-223.8C420.89,-215.24 512.65,-196.96 570.14,-185.5"/>
<polygon fill="#63b8ff" stroke="#63b8ff" points="570.98,-188.9 580.11,-183.52 569.61,-182.04 570.98,-188.9"/>
</a>
</g>
</g>
<!-- Node9&#45;&gt;Node4 -->
<g id="edge15_Node000009_Node000004" class="edge">
<title>Node9&#45;&gt;Node4</title>
<g id="a_edge15_Node000009_Node000004"><a xlink:title=" ">
<path fill="none" stroke="#63b8ff" d="M301.24,-164.9C328.42,-153.44 367.88,-132.01 349.35,-110 287.77,-36.85 76.38,-125.16 141.35,-55 160.02,-34.84 567.63,-16.68 686.86,-11.79"/>
<polygon fill="#63b8ff" stroke="#63b8ff" points="687.32,-15.28 697.17,-11.37 687.03,-8.28 687.32,-15.28"/>
</a>
</g>
</g>
<!-- Node9&#45;&gt;Node6 -->
<g id="edge29_Node000009_Node000006" class="edge">
<title>Node9&#45;&gt;Node6</title>
<g id="a_edge29_Node000009_Node000006"><a xlink:title=" ">
<path fill="none" stroke="#63b8ff" d="M232,-169.21C174.71,-163.08 81.46,-150.16 54.35,-129 26.87,-107.55 5.04,-80.92 28.35,-55 54.19,-26.26 323.55,-14.61 415.66,-11.45"/>
<polygon fill="#63b8ff" stroke="#63b8ff" points="415.86,-14.94 425.74,-11.11 415.63,-7.95 415.86,-14.94"/>
</a>
</g>
</g>
<!-- Node9&#45;&gt;Node8 -->
<g id="edge11_Node000009_Node000008" class="edge">
<title>Node9&#45;&gt;Node8</title>
<g id="a_edge11_Node000009_Node000008"><a xlink:title=" ">
<path fill="none" stroke="#63b8ff" d="M232.23,-170.16C176.58,-165.1 87.77,-153.36 66.35,-129 55.75,-116.94 55.56,-98.14 57.39,-84.12"/>
<polygon fill="#63b8ff" stroke="#63b8ff" points="60.86,-84.57 59.12,-74.12 53.96,-83.37 60.86,-84.57"/>
</a>
</g>
</g>
<!-- Node10 -->
<g id="Node000010" class="node">
<title>Node10</title>
<g id="a_Node000010"><a xlink:title=" ">
<polygon fill="#e0e0e0" stroke="#999999" points="144.85,-129 75.85,-129 75.85,-110 144.85,-110 144.85,-129"/>
<text text-anchor="middle" x="110.35" y="-117" font-family="Helvetica,sans-Serif" font-size="10.00">type_traits</text>
</a>
</g>
</g>
<!-- Node9&#45;&gt;Node10 -->
<g id="edge12_Node000009_Node000010" class="edge">
<title>Node9&#45;&gt;Node10</title>
<g id="a_edge12_Node000009_Node000010"><a xlink:title=" ">
<path fill="none" stroke="#63b8ff" d="M251.36,-164.98C223.15,-156.09 178.71,-142.07 147.27,-132.15"/>
<polygon fill="#63b8ff" stroke="#63b8ff" points="148.14,-128.75 137.55,-129.08 146.03,-135.43 148.14,-128.75"/>
</a>
</g>
</g>
<!-- Node11 -->
<g id="Node000011" class="node">
<title>Node11</title>
<g id="a_Node000011"><a xlink:title=" ">
<polygon fill="#e0e0e0" stroke="#999999" points="227.85,-129 162.85,-129 162.85,-110 227.85,-110 227.85,-129"/>
<text text-anchor="middle" x="195.35" y="-117" font-family="Helvetica,sans-Serif" font-size="10.00">functional</text>
</a>
</g>
</g>
<!-- Node9&#45;&gt;Node11 -->
<g id="edge13_Node000009_Node000011" class="edge">
<title>Node9&#45;&gt;Node11</title>
<g id="a_edge13_Node000009_Node000011"><a xlink:title=" ">
<path fill="none" stroke="#63b8ff" d="M265.01,-164.98C252.26,-156.84 232.79,-144.41 217.68,-134.76"/>
<polygon fill="#63b8ff" stroke="#63b8ff" points="219.24,-131.6 208.93,-129.17 215.47,-137.5 219.24,-131.6"/>
</a>
</g>
</g>
<!-- Node12 -->
<g id="Node000012" class="node">
<title>Node12</title>
<g id="a_Node000012"><a xlink:title=" ">
<polygon fill="#e0e0e0" stroke="#999999" points="340.35,-129 284.35,-129 284.35,-110 340.35,-110 340.35,-129"/>
<text text-anchor="middle" x="312.35" y="-117" font-family="Helvetica,sans-Serif" font-size="10.00">optional</text>
</a>
</g>
</g>
<!-- Node9&#45;&gt;Node12 -->
<g id="edge14_Node000009_Node000012" class="edge">
<title>Node9&#45;&gt;Node12</title>
<g id="a_edge14_Node000009_Node000012"><a xlink:title=" ">
<path fill="none" stroke="#63b8ff" d="M283.96,-164.75C288.67,-157.42 295.52,-146.73 301.32,-137.7"/>
<polygon fill="#63b8ff" stroke="#63b8ff" points="304.38,-139.4 306.84,-129.09 298.49,-135.62 304.38,-139.4"/>
</a>
</g>
</g>
<!-- Node13 -->
<g id="Node000013" class="node">
<title>Node13</title>
<g id="a_Node000013"><a xlink:title=" ">
<polygon fill="#e0e0e0" stroke="#999999" points="569.85,-74 512.85,-74 512.85,-55 569.85,-55 569.85,-74"/>
<text text-anchor="middle" x="541.35" y="-62" font-family="Helvetica,sans-Serif" font-size="10.00">ostream</text>
</a>
</g>
</g>
<!-- Node9&#45;&gt;Node13 -->
<g id="edge16_Node000009_Node000013" class="edge">
<title>Node9&#45;&gt;Node13</title>
<g id="a_edge16_Node000009_Node000013"><a xlink:title=" ">
<path fill="none" stroke="#63b8ff" d="M324.65,-171.62C368.44,-168.04 434.67,-157.84 484.35,-129 503.89,-117.65 520.39,-97.27 530.53,-82.66"/>
<polygon fill="#63b8ff" stroke="#63b8ff" points="533.63,-84.31 536.24,-74.04 527.8,-80.45 533.63,-84.31"/>
</a>
</g>
</g>
<!-- Node14 -->
<g id="Node000014" class="node">
<title>Node14</title>
<g id="a_Node000014"><a xlink:title=" ">
<polygon fill="#e0e0e0" stroke="#999999" points="200.35,-74 150.35,-74 150.35,-55 200.35,-55 200.35,-74"/>
<text text-anchor="middle" x="175.35" y="-62" font-family="Helvetica,sans-Serif" font-size="10.00">cstdint</text>
</a>
</g>
</g>
<!-- Node9&#45;&gt;Node14 -->
<g id="edge17_Node000009_Node000014" class="edge">
<title>Node9&#45;&gt;Node14</title>
<g id="a_edge17_Node000009_Node000014"><a xlink:title=" ">
<path fill="none" stroke="#63b8ff" d="M273.79,-164.58C266.87,-151.61 252.78,-127.2 236.35,-110 225.24,-98.37 210.76,-87.66 198.7,-79.67"/>
<polygon fill="#63b8ff" stroke="#63b8ff" points="200.35,-76.57 190.04,-74.11 196.57,-82.46 200.35,-76.57"/>
</a>
</g>
</g>
<!-- Node9&#45;&gt;Node15 -->
<g id="edge18_Node000009_Node000015" class="edge">
<title>Node9&#45;&gt;Node15</title>
<g id="a_edge18_Node000009_Node000015"><a xlink:title=" ">
<path fill="none" stroke="#63b8ff" d="M306.79,-164.98C339.2,-155.28 391.96,-139.48 425.11,-129.55"/>
<polygon fill="#63b8ff" stroke="#63b8ff" points="426.15,-132.9 434.72,-126.68 424.14,-126.19 426.15,-132.9"/>
</a>
</g>
</g>
<!-- Node15&#45;&gt;Node4 -->
<g id="edge19_Node000015_Node000004" class="edge">
<title>Node15&#45;&gt;Node4</title>
<g id="a_edge19_Node000015_Node000004"><a xlink:title=" ">
<path fill="none" stroke="#63b8ff" d="M459.28,-109.93C466.12,-96.03 481.62,-68.73 503.35,-55 560.77,-18.73 642.31,-11.36 686.99,-10.25"/>
<polygon fill="#63b8ff" stroke="#63b8ff" points="687.31,-13.75 697.25,-10.09 687.2,-6.75 687.31,-13.75"/>
</a>
</g>
</g>
<!-- Node15&#45;&gt;Node6 -->
<g id="edge28_Node000015_Node000006" class="edge">
<title>Node15&#45;&gt;Node6</title>
<g id="a_edge28_Node000015_Node000006"><a xlink:title=" ">
<path fill="none" stroke="#63b8ff" d="M454.61,-109.66C453.15,-92.17 449.87,-52.8 447.91,-29.27"/>
<polygon fill="#63b8ff" stroke="#63b8ff" points="451.39,-28.83 447.07,-19.16 444.41,-29.41 451.39,-28.83"/>
</a>
</g>
</g>
<!-- Node15&#45;&gt;Node8 -->
<g id="edge20_Node000015_Node000008" class="edge">
<title>Node15&#45;&gt;Node8</title>
<g id="a_edge20_Node000015_Node000008"><a xlink:title=" ">
<path fill="none" stroke="#63b8ff" d="M434.72,-115.73C370.54,-107.09 174,-80.65 94.87,-70.01"/>
<polygon fill="#63b8ff" stroke="#63b8ff" points="95.32,-66.54 84.95,-68.67 94.39,-73.48 95.32,-66.54"/>
</a>
</g>
</g>
<!-- Node15&#45;&gt;Node13 -->
<g id="edge25_Node000015_Node000013" class="edge">
<title>Node15&#45;&gt;Node13</title>
<g id="a_edge25_Node000015_Node000013"><a xlink:title=" ">
<path fill="none" stroke="#63b8ff" d="M469.16,-109.98C482.5,-101.77 502.93,-89.18 518.65,-79.49"/>
<polygon fill="#63b8ff" stroke="#63b8ff" points="520.6,-82.4 527.28,-74.17 516.93,-76.44 520.6,-82.4"/>
</a>
</g>
</g>
<!-- Node15&#45;&gt;Node14 -->
<g id="edge24_Node000015_Node000014" class="edge">
<title>Node15&#45;&gt;Node14</title>
<g id="a_edge24_Node000015_Node000014"><a xlink:title=" ">
<path fill="none" stroke="#63b8ff" d="M434.67,-113.23C429.98,-112.1 425,-110.96 420.35,-110 330.27,-91.4 304.17,-93.39 210.45,-74.09"/>
<polygon fill="#63b8ff" stroke="#63b8ff" points="211.05,-70.64 200.55,-72.03 209.62,-77.5 211.05,-70.64"/>
</a>
</g>
</g>
<!-- Node16 -->
<g id="Node000016" class="node">
<title>Node16</title>
<g id="a_Node000016"><a xlink:title=" ">
<polygon fill="#e0e0e0" stroke="#999999" points="259.85,-74 218.85,-74 218.85,-55 259.85,-55 259.85,-74"/>
<text text-anchor="middle" x="239.35" y="-62" font-family="Helvetica,sans-Serif" font-size="10.00">tuple</text>
</a>
</g>
</g>
<!-- Node15&#45;&gt;Node16 -->
<g id="edge21_Node000015_Node000016" class="edge">
<title>Node15&#45;&gt;Node16</title>
<g id="a_edge21_Node000015_Node000016"><a xlink:title=" ">
<path fill="none" stroke="#63b8ff" d="M434.62,-113.45C429.93,-112.31 424.97,-111.11 420.35,-110 356.28,-94.58 337.75,-91.66 269.89,-74.05"/>
<polygon fill="#63b8ff" stroke="#63b8ff" points="270.53,-70.6 259.97,-71.47 268.77,-77.38 270.53,-70.6"/>
</a>
</g>
</g>
<!-- Node17 -->
<g id="Node000017" class="node">
<title>Node17</title>
<g id="a_Node000017"><a xlink:title=" ">
<polygon fill="#e0e0e0" stroke="#999999" points="418.35,-74 358.35,-74 358.35,-55 418.35,-55 418.35,-74"/>
<text text-anchor="middle" x="388.35" y="-62" font-family="Helvetica,sans-Serif" font-size="10.00">concepts</text>
</a>
</g>
</g>
<!-- Node15&#45;&gt;Node17 -->
<g id="edge22_Node000015_Node000017" class="edge">
<title>Node15&#45;&gt;Node17</title>
<g id="a_edge22_Node000015_Node000017"><a xlink:title=" ">
<path fill="none" stroke="#63b8ff" d="M444.58,-109.98C434.58,-102.07 419.46,-90.11 407.42,-80.58"/>
<polygon fill="#63b8ff" stroke="#63b8ff" points="409.32,-77.63 399.31,-74.17 404.98,-83.12 409.32,-77.63"/>
</a>
</g>
</g>
<!-- Node18 -->
<g id="Node000018" class="node">
<title>Node18</title>
<g id="a_Node000018"><a xlink:title=" ">
<polygon fill="#e0e0e0" stroke="#999999" points="652.85,-74 587.85,-74 587.85,-55 652.85,-55 652.85,-74"/>
<text text-anchor="middle" x="620.35" y="-62" font-family="Helvetica,sans-Serif" font-size="10.00">stdexcept</text>
</a>
</g>
</g>
<!-- Node15&#45;&gt;Node18 -->
<g id="edge23_Node000015_Node000018" class="edge">
<title>Node15&#45;&gt;Node18</title>
<g id="a_edge23_Node000015_Node000018"><a xlink:title=" ">
<path fill="none" stroke="#63b8ff" d="M475.91,-111.89C502.92,-103.22 550.8,-87.84 584,-77.18"/>
<polygon fill="#63b8ff" stroke="#63b8ff" points="585.33,-80.42 593.78,-74.03 583.19,-73.76 585.33,-80.42"/>
</a>
</g>
</g>
<!-- Node19 -->
<g id="Node000019" class="node">
<title>Node19</title>
<g id="a_Node000019"><a xlink:href="c__wcf_8h.html" target="_top" xlink:title=" ">
<polygon fill="white" stroke="#666666" points="340.35,-74 278.35,-74 278.35,-55 340.35,-55 340.35,-74"/>
<text text-anchor="middle" x="309.35" y="-62" font-family="Helvetica,sans-Serif" font-size="10.00">../c_wcf.h</text>
</a>
</g>
</g>
<!-- Node15&#45;&gt;Node19 -->
<g id="edge26_Node000015_Node000019" class="edge">
<title>Node15&#45;&gt;Node19</title>
<g id="a_edge26_Node000015_Node000019"><a xlink:title=" ">
<path fill="none" stroke="#63b8ff" d="M434.74,-111.02C410.83,-102.34 371.08,-87.91 342.75,-77.62"/>
<polygon fill="#63b8ff" stroke="#63b8ff" points="343.84,-74.3 333.24,-74.17 341.45,-80.88 343.84,-74.3"/>
</a>
</g>
</g>
<!-- Node19&#45;&gt;Node6 -->
<g id="edge27_Node000019_Node000006" class="edge">
<title>Node19&#45;&gt;Node6</title>
<g id="a_edge27_Node000019_Node000006"><a xlink:title=" ">
<path fill="none" stroke="#63b8ff" d="M331.36,-54.98C354.33,-46.1 390.5,-32.1 416.14,-22.19"/>
<polygon fill="#63b8ff" stroke="#63b8ff" points="417.67,-25.35 425.74,-18.47 415.15,-18.82 417.67,-25.35"/>
</a>
</g>
</g>
<!-- Node20&#45;&gt;Node2 -->
<g id="edge38_Node000020_Node000002" class="edge">
<title>Node20&#45;&gt;Node2</title>
<g id="a_edge38_Node000020_Node000002"><a xlink:title=" ">
<path fill="none" stroke="#63b8ff" d="M660.63,-166.01C702.78,-158.03 771.09,-144.68 839.5,-129.09"/>
<polygon fill="#63b8ff" stroke="#63b8ff" points="840.63,-132.43 849.59,-126.78 839.06,-125.6 840.63,-132.43"/>
</a>
</g>
</g>
<!-- Node20&#45;&gt;Node3 -->
<g id="edge35_Node000020_Node000003" class="edge">
<title>Node20&#45;&gt;Node3</title>
<g id="a_edge35_Node000020_Node000003"><a xlink:title=" ">
<path fill="none" stroke="#63b8ff" d="M657.33,-165C680.92,-158.2 711.13,-146.8 733.35,-129 748.73,-116.68 760.71,-97.37 768.07,-83.27"/>
<polygon fill="#63b8ff" stroke="#63b8ff" points="771.3,-84.62 772.59,-74.11 765.03,-81.52 771.3,-84.62"/>
</a>
</g>
</g>
<!-- Node20&#45;&gt;Node4 -->
<g id="edge33_Node000020_Node000004" class="edge">
<title>Node20&#45;&gt;Node4</title>
<g id="a_edge33_Node000020_Node000004"><a xlink:title=" ">
<path fill="none" stroke="#63b8ff" d="M645.39,-164.86C662.1,-157.8 683.16,-146.16 695.35,-129 716.65,-99.01 720.03,-54.55 720.05,-29.48"/>
<polygon fill="#63b8ff" stroke="#63b8ff" points="723.54,-29.1 719.86,-19.17 716.54,-29.23 723.54,-29.1"/>
</a>
</g>
</g>
<!-- Node20&#45;&gt;Node6 -->
<g id="edge40_Node000020_Node000006" class="edge">
<title>Node20&#45;&gt;Node6</title>
<g id="a_edge40_Node000020_Node000006"><a xlink:title=" ">
<path fill="none" stroke="#63b8ff" d="M628.48,-164.77C647.12,-143.7 689.25,-89.27 661.35,-55 638.45,-26.87 530.77,-15.97 477.03,-12.23"/>
<polygon fill="#63b8ff" stroke="#63b8ff" points="477.24,-8.74 467.04,-11.57 476.79,-15.72 477.24,-8.74"/>
</a>
</g>
</g>
<!-- Node20&#45;&gt;Node13 -->
<g id="edge32_Node000020_Node000013" class="edge">
<title>Node20&#45;&gt;Node13</title>
<g id="a_edge32_Node000020_Node000013"><a xlink:title=" ">
<path fill="none" stroke="#63b8ff" d="M613.88,-164.66C600.74,-146.69 570.71,-105.64 553.7,-82.38"/>
<polygon fill="#63b8ff" stroke="#63b8ff" points="556.41,-80.16 547.68,-74.16 550.76,-84.3 556.41,-80.16"/>
</a>
</g>
</g>
<!-- Node20&#45;&gt;Node14 -->
<g id="edge37_Node000020_Node000014" class="edge">
<title>Node20&#45;&gt;Node14</title>
<g id="a_edge37_Node000020_Node000014"><a xlink:title=" ">
<path fill="none" stroke="#63b8ff" d="M580.15,-166.66C540.28,-159.34 477.75,-146.38 425.35,-129 405.52,-122.42 402.24,-116.39 382.35,-110 310.64,-86.98 287.77,-91.12 210.76,-74.21"/>
<polygon fill="#63b8ff" stroke="#63b8ff" points="211.1,-70.7 200.57,-71.92 209.56,-77.53 211.1,-70.7"/>
</a>
</g>
</g>
<!-- Node20&#45;&gt;Node15 -->
<g id="edge39_Node000020_Node000015" class="edge">
<title>Node20&#45;&gt;Node15</title>
<g id="a_edge39_Node000020_Node000015"><a xlink:title=" ">
<path fill="none" stroke="#63b8ff" d="M593.84,-164.98C564.37,-155.52 516.87,-140.26 485.87,-130.31"/>
<polygon fill="#63b8ff" stroke="#63b8ff" points="486.64,-126.87 476.05,-127.15 484.5,-133.54 486.64,-126.87"/>
</a>
</g>
</g>
<!-- Node20&#45;&gt;Node18 -->
<g id="edge36_Node000020_Node000018" class="edge">
<title>Node20&#45;&gt;Node18</title>
<g id="a_edge36_Node000020_Node000018"><a xlink:title=" ">
<path fill="none" stroke="#63b8ff" d="M620.35,-164.66C620.35,-147.17 620.35,-107.8 620.35,-84.27"/>
<polygon fill="#63b8ff" stroke="#63b8ff" points="623.85,-84.16 620.35,-74.16 616.85,-84.16 623.85,-84.16"/>
</a>
</g>
</g>
<!-- Node21 -->
<g id="Node000021" class="node">
<title>Node21</title>
<g id="a_Node000021"><a xlink:title=" ">
<polygon fill="#e0e0e0" stroke="#999999" points="831.35,-129 785.35,-129 785.35,-110 831.35,-110 831.35,-129"/>
<text text-anchor="middle" x="808.35" y="-117" font-family="Helvetica,sans-Serif" font-size="10.00">future</text>
</a>
</g>
</g>
<!-- Node20&#45;&gt;Node21 -->
<g id="edge34_Node000020_Node000021" class="edge">
<title>Node20&#45;&gt;Node21</title>
<g id="a_edge34_Node000020_Node000021"><a xlink:title=" ">
<path fill="none" stroke="#63b8ff" d="M650.55,-164.98C684.75,-155.34 740.28,-139.69 775.52,-129.75"/>
<polygon fill="#63b8ff" stroke="#63b8ff" points="776.65,-133.07 785.33,-126.99 774.75,-126.33 776.65,-133.07"/>
</a>
</g>
</g>
</g>
</svg>
