<?xml version="1.0" encoding="UTF-8" standalone="no"?>
<!DOCTYPE svg PUBLIC "-//W3C//DTD SVG 1.1//EN"
 "http://www.w3.org/Graphics/SVG/1.1/DTD/svg11.dtd">
<!-- Generated by graphviz version 2.43.0 (0)
 -->
<!-- Title: client/include/webcface/func_result.h Pages: 1 -->
<svg width="1144pt" height="214pt"
 viewBox="0.00 0.00 1143.81 214.00" xmlns="http://www.w3.org/2000/svg" xmlns:xlink="http://www.w3.org/1999/xlink">
<g id="graph0" class="graph" transform="scale(1 1) rotate(0) translate(4 210)">
<title>client/include/webcface/func_result.h</title>
<!-- Node1 -->
<g id="Node000001" class="node">
<title>Node1</title>
<g id="a_Node000001"><a xlink:title=" ">
<polygon fill="#999999" stroke="#666666" points="376.71,-206 245.71,-206 245.71,-176 376.71,-176 376.71,-206"/>
<text text-anchor="start" x="253.71" y="-194" font-family="Helvetica,sans-Serif" font-size="10.00">client/include/webcface</text>
<text text-anchor="middle" x="311.21" y="-183" font-family="Helvetica,sans-Serif" font-size="10.00">/func_result.h</text>
</a>
</g>
</g>
<!-- Node2 -->
<g id="Node000002" class="node">
<title>Node2</title>
<g id="a_Node000002"><a xlink:href="webcface-config_8h.html" target="_top" xlink:title=" ">
<polygon fill="white" stroke="#666666" points="805.71,-19 700.71,-19 700.71,0 805.71,0 805.71,-19"/>
<text text-anchor="middle" x="753.21" y="-7" font-family="Helvetica,sans-Serif" font-size="10.00">webcface&#45;config.h</text>
</a>
</g>
</g>
<!-- Node1&#45;&gt;Node2 -->
<g id="edge1_Node000001_Node000002" class="edge">
<title>Node1&#45;&gt;Node2</title>
<g id="a_edge1_Node000001_Node000002"><a xlink:title=" ">
<path fill="none" stroke="#63b8ff" d="M377,-188.35C549.59,-183.65 1006.35,-168.62 1068.21,-140 1105.3,-122.84 1116.87,-111.87 1132.21,-74 1135.38,-66.17 1137.83,-61.31 1132.21,-55 1111.59,-31.82 918.23,-18.74 815.96,-13.38"/>
<polygon fill="#63b8ff" stroke="#63b8ff" points="815.93,-9.88 805.76,-12.86 815.57,-16.87 815.93,-9.88"/>
</a>
</g>
</g>
<!-- Node3 -->
<g id="Node000003" class="node">
<title>Node3</title>
<g id="a_Node000003"><a xlink:title=" ">
<polygon fill="#e0e0e0" stroke="#999999" points="76.21,-134.5 20.21,-134.5 20.21,-115.5 76.21,-115.5 76.21,-134.5"/>
<text text-anchor="middle" x="48.21" y="-122.5" font-family="Helvetica,sans-Serif" font-size="10.00">optional</text>
</a>
</g>
</g>
<!-- Node1&#45;&gt;Node3 -->
<g id="edge2_Node000001_Node000003" class="edge">
<title>Node1&#45;&gt;Node3</title>
<g id="a_edge2_Node000001_Node000003"><a xlink:title=" ">
<path fill="none" stroke="#63b8ff" d="M245.51,-176.92C201.33,-167.69 141.93,-154.43 90.21,-140 87.6,-139.27 84.9,-138.47 82.2,-137.65"/>
<polygon fill="#63b8ff" stroke="#63b8ff" points="83.11,-134.26 72.52,-134.56 80.98,-140.93 83.11,-134.26"/>
</a>
</g>
</g>
<!-- Node4 -->
<g id="Node000004" class="node">
<title>Node4</title>
<g id="a_Node000004"><a xlink:title=" ">
<polygon fill="#e0e0e0" stroke="#999999" points="184.21,-19 140.21,-19 140.21,0 184.21,0 184.21,-19"/>
<text text-anchor="middle" x="162.21" y="-7" font-family="Helvetica,sans-Serif" font-size="10.00">string</text>
</a>
</g>
</g>
<!-- Node1&#45;&gt;Node4 -->
<g id="edge3_Node000001_Node000004" class="edge">
<title>Node1&#45;&gt;Node4</title>
<g id="a_edge3_Node000001_Node000004"><a xlink:title=" ">
<path fill="none" stroke="#63b8ff" d="M268.7,-175.87C249.94,-167.84 228.88,-156.11 214.21,-140 184.82,-107.7 171.04,-56.69 165.46,-29.32"/>
<polygon fill="#63b8ff" stroke="#63b8ff" points="168.83,-28.35 163.54,-19.17 161.96,-29.64 168.83,-28.35"/>
</a>
</g>
</g>
<!-- Node5 -->
<g id="Node000005" class="node">
<title>Node5</title>
<g id="a_Node000005"><a xlink:title=" ">
<polygon fill="#e0e0e0" stroke="#999999" points="269.21,-134.5 223.21,-134.5 223.21,-115.5 269.21,-115.5 269.21,-134.5"/>
<text text-anchor="middle" x="246.21" y="-122.5" font-family="Helvetica,sans-Serif" font-size="10.00">future</text>
</a>
</g>
</g>
<!-- Node1&#45;&gt;Node5 -->
<g id="edge4_Node000001_Node000005" class="edge">
<title>Node1&#45;&gt;Node5</title>
<g id="a_edge4_Node000001_Node000005"><a xlink:title=" ">
<path fill="none" stroke="#63b8ff" d="M296.79,-175.8C286.65,-165.82 273.08,-152.46 262.55,-142.09"/>
<polygon fill="#63b8ff" stroke="#63b8ff" points="264.78,-139.37 255.2,-134.84 259.87,-144.35 264.78,-139.37"/>
</a>
</g>
</g>
<!-- Node6 -->
<g id="Node000006" class="node">
<title>Node6</title>
<g id="a_Node000006"><a xlink:title=" ">
<polygon fill="#e0e0e0" stroke="#999999" points="77.21,-19 19.21,-19 19.21,0 77.21,0 77.21,-19"/>
<text text-anchor="middle" x="48.21" y="-7" font-family="Helvetica,sans-Serif" font-size="10.00">memory</text>
</a>
</g>
</g>
<!-- Node1&#45;&gt;Node6 -->
<g id="edge5_Node000001_Node000006" class="edge">
<title>Node1&#45;&gt;Node6</title>
<g id="a_edge5_Node000001_Node000006"><a xlink:title=" ">
<path fill="none" stroke="#63b8ff" d="M245.68,-188.6C166.63,-185.37 40.65,-174.75 11.21,-140 -16.76,-106.98 15.05,-54.02 34.83,-27.21"/>
<polygon fill="#63b8ff" stroke="#63b8ff" points="37.67,-29.25 40.97,-19.18 32.11,-25 37.67,-29.25"/>
</a>
</g>
</g>
<!-- Node7 -->
<g id="Node000007" class="node">
<title>Node7</title>
<g id="a_Node000007"><a xlink:title=" ">
<polygon fill="#e0e0e0" stroke="#999999" points="417.71,-134.5 352.71,-134.5 352.71,-115.5 417.71,-115.5 417.71,-134.5"/>
<text text-anchor="middle" x="385.21" y="-122.5" font-family="Helvetica,sans-Serif" font-size="10.00">stdexcept</text>
</a>
</g>
</g>
<!-- Node1&#45;&gt;Node7 -->
<g id="edge6_Node000001_Node000007" class="edge">
<title>Node1&#45;&gt;Node7</title>
<g id="a_edge6_Node000001_Node000007"><a xlink:title=" ">
<path fill="none" stroke="#63b8ff" d="M327.64,-175.8C339.4,-165.62 355.23,-151.93 367.31,-141.48"/>
<polygon fill="#63b8ff" stroke="#63b8ff" points="369.71,-144.03 374.99,-134.84 365.13,-138.74 369.71,-144.03"/>
</a>
</g>
</g>
<!-- Node8 -->
<g id="Node000008" class="node">
<title>Node8</title>
<g id="a_Node000008"><a xlink:href="field_8h.html" target="_top" xlink:title=" ">
<polygon fill="white" stroke="#666666" points="334.71,-134.5 287.71,-134.5 287.71,-115.5 334.71,-115.5 334.71,-134.5"/>
<text text-anchor="middle" x="311.21" y="-122.5" font-family="Helvetica,sans-Serif" font-size="10.00">field.h</text>
</a>
</g>
</g>
<!-- Node1&#45;&gt;Node8 -->
<g id="edge7_Node000001_Node000008" class="edge">
<title>Node1&#45;&gt;Node8</title>
<g id="a_edge7_Node000001_Node000008"><a xlink:title=" ">
<path fill="none" stroke="#63b8ff" d="M311.21,-175.8C311.21,-166.7 311.21,-154.79 311.21,-144.9"/>
<polygon fill="#63b8ff" stroke="#63b8ff" points="314.71,-144.84 311.21,-134.84 307.71,-144.84 314.71,-144.84"/>
</a>
</g>
</g>
<!-- Node14 -->
<g id="Node000014" class="node">
<title>Node14</title>
<g id="a_Node000014"><a xlink:href="common_2val__adaptor_8h.html" target="_top" xlink:title=" ">
<polygon fill="white" stroke="#666666" points="738.71,-140 611.71,-140 611.71,-110 738.71,-110 738.71,-140"/>
<text text-anchor="start" x="619.71" y="-128" font-family="Helvetica,sans-Serif" font-size="10.00">webcface/common/val</text>
<text text-anchor="middle" x="675.21" y="-117" font-family="Helvetica,sans-Serif" font-size="10.00">_adaptor.h</text>
</a>
</g>
</g>
<!-- Node1&#45;&gt;Node14 -->
<g id="edge21_Node000001_Node000014" class="edge">
<title>Node1&#45;&gt;Node14</title>
<g id="a_edge21_Node000001_Node000014"><a xlink:title=" ">
<path fill="none" stroke="#63b8ff" d="M377.13,-178.41C440.46,-167.27 535.98,-150.48 601.73,-138.92"/>
<polygon fill="#63b8ff" stroke="#63b8ff" points="602.37,-142.36 611.62,-137.18 601.16,-135.47 602.37,-142.36"/>
</a>
</g>
</g>
<!-- Node19 -->
<g id="Node000019" class="node">
<title>Node19</title>
<g id="a_Node000019"><a xlink:href="def__types_8h.html" target="_top" xlink:title=" ">
<polygon fill="white" stroke="#666666" points="1058.71,-140 945.71,-140 945.71,-110 1058.71,-110 1058.71,-140"/>
<text text-anchor="start" x="953.71" y="-128" font-family="Helvetica,sans-Serif" font-size="10.00">webcface/c_wcf/def</text>
<text text-anchor="middle" x="1002.21" y="-117" font-family="Helvetica,sans-Serif" font-size="10.00">_types.h</text>
</a>
</g>
</g>
<!-- Node1&#45;&gt;Node19 -->
<g id="edge30_Node000001_Node000019" class="edge">
<title>Node1&#45;&gt;Node19</title>
<g id="a_edge30_Node000001_Node000019"><a xlink:title=" ">
<path fill="none" stroke="#63b8ff" d="M376.84,-183.92C508.34,-171.74 802.81,-144.47 935.33,-132.19"/>
<polygon fill="#63b8ff" stroke="#63b8ff" points="935.72,-135.67 945.35,-131.27 935.07,-128.7 935.72,-135.67"/>
</a>
</g>
</g>
<!-- Node8&#45;&gt;Node2 -->
<g id="edge12_Node000008_Node000002" class="edge">
<title>Node8&#45;&gt;Node2</title>
<g id="a_edge12_Node000008_Node000002"><a xlink:title=" ">
<path fill="none" stroke="#63b8ff" d="M328.88,-115.4C333.46,-113.41 338.46,-111.45 343.21,-110 428.76,-83.9 456.22,-101.85 541.21,-74 559.54,-68 562.12,-61.66 580.21,-55 619.55,-40.53 665.57,-28.93 700.26,-21.21"/>
<polygon fill="#63b8ff" stroke="#63b8ff" points="701.16,-24.6 710.18,-19.04 699.66,-17.76 701.16,-24.6"/>
</a>
</g>
</g>
<!-- Node8&#45;&gt;Node4 -->
<g id="edge9_Node000008_Node000004" class="edge">
<title>Node8&#45;&gt;Node4</title>
<g id="a_edge9_Node000008_Node000004"><a xlink:title=" ">
<path fill="none" stroke="#63b8ff" d="M291.67,-115.36C266.73,-104.12 225.25,-84.67 212.21,-74 196.15,-60.86 181.96,-41.71 172.84,-27.88"/>
<polygon fill="#63b8ff" stroke="#63b8ff" points="175.7,-25.85 167.38,-19.3 169.79,-29.61 175.7,-25.85"/>
</a>
</g>
</g>
<!-- Node8&#45;&gt;Node6 -->
<g id="edge8_Node000008_Node000006" class="edge">
<title>Node8&#45;&gt;Node6</title>
<g id="a_edge8_Node000008_Node000006"><a xlink:title=" ">
<path fill="none" stroke="#63b8ff" d="M290.99,-115.37C286.77,-113.58 282.35,-111.72 278.21,-110 239.21,-93.75 229.06,-90.63 190.21,-74 150.46,-56.99 104.88,-36.41 76.32,-23.39"/>
<polygon fill="#63b8ff" stroke="#63b8ff" points="77.51,-20.09 66.96,-19.12 74.61,-26.45 77.51,-20.09"/>
</a>
</g>
</g>
<!-- Node9 -->
<g id="Node000009" class="node">
<title>Node9</title>
<g id="a_Node000009"><a xlink:title=" ">
<polygon fill="#e0e0e0" stroke="#999999" points="311.71,-19 238.71,-19 238.71,0 311.71,0 311.71,-19"/>
<text text-anchor="middle" x="275.21" y="-7" font-family="Helvetica,sans-Serif" font-size="10.00">string_view</text>
</a>
</g>
</g>
<!-- Node8&#45;&gt;Node9 -->
<g id="edge10_Node000008_Node000009" class="edge">
<title>Node8&#45;&gt;Node9</title>
<g id="a_edge10_Node000008_Node000009"><a xlink:title=" ">
<path fill="none" stroke="#63b8ff" d="M293.23,-115.46C267.67,-103.14 223.42,-81.07 219.21,-74 207.88,-54.94 229.36,-36.29 248.91,-24.18"/>
<polygon fill="#63b8ff" stroke="#63b8ff" points="250.75,-27.16 257.63,-19.11 247.23,-21.11 250.75,-27.16"/>
</a>
</g>
</g>
<!-- Node10 -->
<g id="Node000010" class="node">
<title>Node10</title>
<g id="a_Node000010"><a xlink:title=" ">
<polygon fill="#e0e0e0" stroke="#999999" points="636.71,-74 589.71,-74 589.71,-55 636.71,-55 636.71,-74"/>
<text text-anchor="middle" x="613.21" y="-62" font-family="Helvetica,sans-Serif" font-size="10.00">vector</text>
</a>
</g>
</g>
<!-- Node8&#45;&gt;Node10 -->
<g id="edge11_Node000008_Node000010" class="edge">
<title>Node8&#45;&gt;Node10</title>
<g id="a_edge11_Node000008_Node000010"><a xlink:title=" ">
<path fill="none" stroke="#63b8ff" d="M328.51,-115.46C333.2,-113.42 338.32,-111.42 343.21,-110 443.4,-80.85 472.69,-93.4 575.21,-74 576.67,-73.73 578.15,-73.44 579.64,-73.13"/>
<polygon fill="#63b8ff" stroke="#63b8ff" points="580.48,-76.53 589.55,-71.05 579.04,-69.69 580.48,-76.53"/>
</a>
</g>
</g>
<!-- Node11 -->
<g id="Node000011" class="node">
<title>Node11</title>
<g id="a_Node000011"><a xlink:href="common_2encoding_8h.html" target="_top" xlink:title=" ">
<polygon fill="white" stroke="#666666" points="393.71,-74 228.71,-74 228.71,-55 393.71,-55 393.71,-74"/>
<text text-anchor="middle" x="311.21" y="-62" font-family="Helvetica,sans-Serif" font-size="10.00">webcface/common/encoding.h</text>
</a>
</g>
</g>
<!-- Node8&#45;&gt;Node11 -->
<g id="edge13_Node000008_Node000011" class="edge">
<title>Node8&#45;&gt;Node11</title>
<g id="a_edge13_Node000008_Node000011"><a xlink:title=" ">
<path fill="none" stroke="#63b8ff" d="M311.21,-115.37C311.21,-107.25 311.21,-94.81 311.21,-84.39"/>
<polygon fill="#63b8ff" stroke="#63b8ff" points="314.71,-84.17 311.21,-74.17 307.71,-84.17 314.71,-84.17"/>
</a>
</g>
</g>
<!-- Node12 -->
<g id="Node000012" class="node">
<title>Node12</title>
<g id="a_Node000012"><a xlink:href="complete_8h.html" target="_top" xlink:title=" ">
<polygon fill="white" stroke="#666666" points="532.71,-74 411.71,-74 411.71,-55 532.71,-55 532.71,-74"/>
<text text-anchor="middle" x="472.21" y="-62" font-family="Helvetica,sans-Serif" font-size="10.00">webcface/complete.h</text>
</a>
</g>
</g>
<!-- Node8&#45;&gt;Node12 -->
<g id="edge18_Node000008_Node000012" class="edge">
<title>Node8&#45;&gt;Node12</title>
<g id="a_edge18_Node000008_Node000012"><a xlink:title=" ">
<path fill="none" stroke="#63b8ff" d="M330.06,-115.46C334.36,-113.59 338.92,-111.68 343.21,-110 373.99,-97.98 409.53,-85.85 435.5,-77.29"/>
<polygon fill="#63b8ff" stroke="#63b8ff" points="436.89,-80.52 445.3,-74.08 434.71,-73.87 436.89,-80.52"/>
</a>
</g>
</g>
<!-- Node11&#45;&gt;Node2 -->
<g id="edge17_Node000011_Node000002" class="edge">
<title>Node11&#45;&gt;Node2</title>
<g id="a_edge17_Node000011_Node000002"><a xlink:title=" ">
<path fill="none" stroke="#63b8ff" d="M382.23,-54.98C467.41,-44.77 608.88,-27.81 690.3,-18.04"/>
<polygon fill="#63b8ff" stroke="#63b8ff" points="690.89,-21.5 700.4,-16.83 690.06,-14.55 690.89,-21.5"/>
</a>
</g>
</g>
<!-- Node11&#45;&gt;Node4 -->
<g id="edge14_Node000011_Node000004" class="edge">
<title>Node11&#45;&gt;Node4</title>
<g id="a_edge14_Node000011_Node000004"><a xlink:title=" ">
<path fill="none" stroke="#63b8ff" d="M287.27,-54.98C262.07,-46.02 222.25,-31.86 194.33,-21.92"/>
<polygon fill="#63b8ff" stroke="#63b8ff" points="195.23,-18.53 184.63,-18.47 192.88,-25.12 195.23,-18.53"/>
</a>
</g>
</g>
<!-- Node11&#45;&gt;Node6 -->
<g id="edge16_Node000011_Node000006" class="edge">
<title>Node11&#45;&gt;Node6</title>
<g id="a_edge16_Node000011_Node000006"><a xlink:title=" ">
<path fill="none" stroke="#63b8ff" d="M268.96,-54.98C218.8,-44.88 135.84,-28.16 87.18,-18.35"/>
<polygon fill="#63b8ff" stroke="#63b8ff" points="87.83,-14.91 77.34,-16.37 86.45,-21.78 87.83,-14.91"/>
</a>
</g>
</g>
<!-- Node11&#45;&gt;Node9 -->
<g id="edge15_Node000011_Node000009" class="edge">
<title>Node11&#45;&gt;Node9</title>
<g id="a_edge15_Node000011_Node000009"><a xlink:title=" ">
<path fill="none" stroke="#63b8ff" d="M305.27,-54.75C300.24,-47.34 292.88,-36.5 286.7,-27.41"/>
<polygon fill="#63b8ff" stroke="#63b8ff" points="289.56,-25.39 281.05,-19.09 283.77,-29.33 289.56,-25.39"/>
</a>
</g>
</g>
<!-- Node12&#45;&gt;Node2 -->
<g id="edge20_Node000012_Node000002" class="edge">
<title>Node12&#45;&gt;Node2</title>
<g id="a_edge20_Node000012_Node000002"><a xlink:title=" ">
<path fill="none" stroke="#63b8ff" d="M517.36,-54.98C566.48,-45.72 645.03,-30.9 697.84,-20.94"/>
<polygon fill="#63b8ff" stroke="#63b8ff" points="698.53,-24.37 707.71,-19.08 697.24,-17.5 698.53,-24.37"/>
</a>
</g>
</g>
<!-- Node13 -->
<g id="Node000013" class="node">
<title>Node13</title>
<g id="a_Node000013"><a xlink:title=" ">
<polygon fill="#e0e0e0" stroke="#999999" points="498.71,-19 445.71,-19 445.71,0 498.71,0 498.71,-19"/>
<text text-anchor="middle" x="472.21" y="-7" font-family="Helvetica,sans-Serif" font-size="10.00">cstddef</text>
</a>
</g>
</g>
<!-- Node12&#45;&gt;Node13 -->
<g id="edge19_Node000012_Node000013" class="edge">
<title>Node12&#45;&gt;Node13</title>
<g id="a_edge19_Node000012_Node000013"><a xlink:title=" ">
<path fill="none" stroke="#63b8ff" d="M472.21,-54.75C472.21,-47.8 472.21,-37.85 472.21,-29.13"/>
<polygon fill="#63b8ff" stroke="#63b8ff" points="475.71,-29.09 472.21,-19.09 468.71,-29.09 475.71,-29.09"/>
</a>
</g>
</g>
<!-- Node14&#45;&gt;Node2 -->
<g id="edge29_Node000014_Node000002" class="edge">
<title>Node14&#45;&gt;Node2</title>
<g id="a_edge29_Node000014_Node000002"><a xlink:title=" ">
<path fill="none" stroke="#63b8ff" d="M738.78,-119.76C802.78,-114.01 895.1,-101.15 917.21,-74 948.47,-35.62 874.37,-20.39 815.81,-14.37"/>
<polygon fill="#63b8ff" stroke="#63b8ff" points="816.12,-10.88 805.83,-13.42 815.45,-17.85 816.12,-10.88"/>
</a>
</g>
</g>
<!-- Node14&#45;&gt;Node4 -->
<g id="edge22_Node000014_Node000004" class="edge">
<title>Node14&#45;&gt;Node4</title>
<g id="a_edge22_Node000014_Node000004"><a xlink:title=" ">
<path fill="none" stroke="#63b8ff" d="M611.71,-119.56C494.59,-111.01 253.35,-91.53 219.21,-74 199.1,-63.68 182.72,-43.1 172.76,-28.16"/>
<polygon fill="#63b8ff" stroke="#63b8ff" points="175.47,-25.91 167.17,-19.32 169.56,-29.65 175.47,-25.91"/>
</a>
</g>
</g>
<!-- Node14&#45;&gt;Node10 -->
<g id="edge23_Node000014_Node000010" class="edge">
<title>Node14&#45;&gt;Node10</title>
<g id="a_edge23_Node000014_Node000010"><a xlink:title=" ">
<path fill="none" stroke="#63b8ff" d="M660.2,-109.84C651.02,-101.17 639.26,-90.08 629.8,-81.15"/>
<polygon fill="#63b8ff" stroke="#63b8ff" points="632.18,-78.58 622.5,-74.27 627.37,-83.67 632.18,-78.58"/>
</a>
</g>
</g>
<!-- Node14&#45;&gt;Node11 -->
<g id="edge28_Node000014_Node000011" class="edge">
<title>Node14&#45;&gt;Node11</title>
<g id="a_edge28_Node000014_Node000011"><a xlink:title=" ">
<path fill="none" stroke="#63b8ff" d="M611.39,-113.74C544.68,-103.02 440.64,-86.3 374.23,-75.63"/>
<polygon fill="#63b8ff" stroke="#63b8ff" points="374.73,-72.16 364.31,-74.03 373.62,-79.08 374.73,-72.16"/>
</a>
</g>
</g>
<!-- Node15 -->
<g id="Node000015" class="node">
<title>Node15</title>
<g id="a_Node000015"><a xlink:title=" ">
<polygon fill="#e0e0e0" stroke="#999999" points="695.71,-74 654.71,-74 654.71,-55 695.71,-55 695.71,-74"/>
<text text-anchor="middle" x="675.21" y="-62" font-family="Helvetica,sans-Serif" font-size="10.00">tuple</text>
</a>
</g>
</g>
<!-- Node14&#45;&gt;Node15 -->
<g id="edge24_Node000014_Node000015" class="edge">
<title>Node14&#45;&gt;Node15</title>
<g id="a_edge24_Node000014_Node000015"><a xlink:title=" ">
<path fill="none" stroke="#63b8ff" d="M675.21,-109.84C675.21,-102.21 675.21,-92.7 675.21,-84.45"/>
<polygon fill="#63b8ff" stroke="#63b8ff" points="678.71,-84.27 675.21,-74.27 671.71,-84.27 678.71,-84.27"/>
</a>
</g>
</g>
<!-- Node16 -->
<g id="Node000016" class="node">
<title>Node16</title>
<g id="a_Node000016"><a xlink:title=" ">
<polygon fill="#e0e0e0" stroke="#999999" points="764.21,-74 714.21,-74 714.21,-55 764.21,-55 764.21,-74"/>
<text text-anchor="middle" x="739.21" y="-62" font-family="Helvetica,sans-Serif" font-size="10.00">cstdint</text>
</a>
</g>
</g>
<!-- Node14&#45;&gt;Node16 -->
<g id="edge25_Node000014_Node000016" class="edge">
<title>Node14&#45;&gt;Node16</title>
<g id="a_edge25_Node000014_Node000016"><a xlink:title=" ">
<path fill="none" stroke="#63b8ff" d="M690.71,-109.84C700.19,-101.17 712.33,-90.08 722.09,-81.15"/>
<polygon fill="#63b8ff" stroke="#63b8ff" points="724.6,-83.6 729.62,-74.27 719.88,-78.43 724.6,-83.6"/>
</a>
</g>
</g>
<!-- Node17 -->
<g id="Node000017" class="node">
<title>Node17</title>
<g id="a_Node000017"><a xlink:title=" ">
<polygon fill="#e0e0e0" stroke="#999999" points="839.71,-74 782.71,-74 782.71,-55 839.71,-55 839.71,-74"/>
<text text-anchor="middle" x="811.21" y="-62" font-family="Helvetica,sans-Serif" font-size="10.00">ostream</text>
</a>
</g>
</g>
<!-- Node14&#45;&gt;Node17 -->
<g id="edge26_Node000014_Node000017" class="edge">
<title>Node14&#45;&gt;Node17</title>
<g id="a_edge26_Node000014_Node000017"><a xlink:title=" ">
<path fill="none" stroke="#63b8ff" d="M707.79,-109.99C730.28,-100.31 759.94,-87.56 781.73,-78.18"/>
<polygon fill="#63b8ff" stroke="#63b8ff" points="783.33,-81.31 791.13,-74.14 780.56,-74.88 783.33,-81.31"/>
</a>
</g>
</g>
<!-- Node18 -->
<g id="Node000018" class="node">
<title>Node18</title>
<g id="a_Node000018"><a xlink:title=" ">
<polygon fill="#e0e0e0" stroke="#999999" points="908.71,-74 857.71,-74 857.71,-55 908.71,-55 908.71,-74"/>
<text text-anchor="middle" x="883.21" y="-62" font-family="Helvetica,sans-Serif" font-size="10.00">variant</text>
</a>
</g>
</g>
<!-- Node14&#45;&gt;Node18 -->
<g id="edge27_Node000014_Node000018" class="edge">
<title>Node14&#45;&gt;Node18</title>
<g id="a_edge27_Node000014_Node000018"><a xlink:title=" ">
<path fill="none" stroke="#63b8ff" d="M725.03,-109.99C762.83,-99.36 813.87,-85 847.62,-75.51"/>
<polygon fill="#63b8ff" stroke="#63b8ff" points="848.83,-78.81 857.51,-72.73 846.94,-72.07 848.83,-78.81"/>
</a>
</g>
</g>
<!-- Node19&#45;&gt;Node2 -->
<g id="edge31_Node000019_Node000002" class="edge">
<title>Node19&#45;&gt;Node2</title>
<g id="a_edge31_Node000019_Node000002"><a xlink:title=" ">
<path fill="none" stroke="#63b8ff" d="M992.32,-109.8C980.55,-94 959.41,-68.85 935.21,-55 898.7,-34.1 852.63,-22.96 815.97,-17.05"/>
<polygon fill="#63b8ff" stroke="#63b8ff" points="816.31,-13.56 805.9,-15.52 815.26,-20.48 816.31,-13.56"/>
</a>
</g>
</g>
<!-- Node20 -->
<g id="Node000020" class="node">
<title>Node20</title>
<g id="a_Node000020"><a xlink:title=" ">
<polygon fill="#e0e0e0" stroke="#999999" points="1057.21,-74 1003.21,-74 1003.21,-55 1057.21,-55 1057.21,-74"/>
<text text-anchor="middle" x="1030.21" y="-62" font-family="Helvetica,sans-Serif" font-size="10.00">wchar.h</text>
</a>
</g>
</g>
<!-- Node19&#45;&gt;Node20 -->
<g id="edge32_Node000019_Node000020" class="edge">
<title>Node19&#45;&gt;Node20</title>
<g id="a_edge32_Node000019_Node000020"><a xlink:title=" ">
<path fill="none" stroke="#63b8ff" d="M1008.99,-109.84C1012.81,-101.87 1017.61,-91.84 1021.68,-83.33"/>
<polygon fill="#63b8ff" stroke="#63b8ff" points="1024.86,-84.8 1026.02,-74.27 1018.54,-81.77 1024.86,-84.8"/>
</a>
</g>
</g>
<!-- Node21 -->
<g id="Node000021" class="node">
<title>Node21</title>
<g id="a_Node000021"><a xlink:title=" ">
<polygon fill="#e0e0e0" stroke="#999999" points="1122.71,-74 1075.71,-74 1075.71,-55 1122.71,-55 1122.71,-74"/>
<text text-anchor="middle" x="1099.21" y="-62" font-family="Helvetica,sans-Serif" font-size="10.00">float.h</text>
</a>
</g>
</g>
<!-- Node19&#45;&gt;Node21 -->
<g id="edge33_Node000019_Node000021" class="edge">
<title>Node19&#45;&gt;Node21</title>
<g id="a_edge33_Node000019_Node000021"><a xlink:title=" ">
<path fill="none" stroke="#63b8ff" d="M1025.69,-109.84C1041.02,-100.6 1060.93,-88.59 1076.16,-79.4"/>
<polygon fill="#63b8ff" stroke="#63b8ff" points="1078.21,-82.26 1084.96,-74.09 1074.59,-76.26 1078.21,-82.26"/>
</a>
</g>
</g>
</g>
</svg>
