<?xml version="1.0" encoding="UTF-8" standalone="no"?>
<!DOCTYPE svg PUBLIC "-//W3C//DTD SVG 1.1//EN"
 "http://www.w3.org/Graphics/SVG/1.1/DTD/svg11.dtd">
<!-- Generated by graphviz version 2.43.0 (0)
 -->
<!-- Title: client/include/webcface/func_result.h Pages: 1 -->
<svg width="1200pt" height="214pt"
 viewBox="0.00 0.00 1199.76 214.00" xmlns="http://www.w3.org/2000/svg" xmlns:xlink="http://www.w3.org/1999/xlink">
<g id="graph0" class="graph" transform="scale(1 1) rotate(0) translate(4 210)">
<title>client/include/webcface/func_result.h</title>
<!-- Node1 -->
<g id="Node000001" class="node">
<title>Node1</title>
<g id="a_Node000001"><a xlink:title=" ">
<polygon fill="#999999" stroke="#666666" points="259.76,-206 128.76,-206 128.76,-176 259.76,-176 259.76,-206"/>
<text text-anchor="start" x="136.76" y="-194" font-family="Helvetica,sans-Serif" font-size="10.00">client/include/webcface</text>
<text text-anchor="middle" x="194.26" y="-183" font-family="Helvetica,sans-Serif" font-size="10.00">/func_result.h</text>
</a>
</g>
</g>
<!-- Node2 -->
<g id="Node000002" class="node">
<title>Node2</title>
<g id="a_Node000002"><a xlink:href="exception_8h.html" target="_top" xlink:title=" ">
<polygon fill="white" stroke="#666666" points="358.76,-134.5 235.76,-134.5 235.76,-115.5 358.76,-115.5 358.76,-134.5"/>
<text text-anchor="middle" x="297.26" y="-122.5" font-family="Helvetica,sans-Serif" font-size="10.00">webcface/exception.h</text>
</a>
</g>
</g>
<!-- Node1&#45;&gt;Node2 -->
<g id="edge1_Node000001_Node000002" class="edge">
<title>Node1&#45;&gt;Node2</title>
<g id="a_edge1_Node000001_Node000002"><a xlink:title=" ">
<path fill="none" stroke="#63b8ff" d="M216.86,-175.95C234.05,-165.27 257.59,-150.65 274.75,-139.98"/>
<polygon fill="#63b8ff" stroke="#63b8ff" points="276.91,-142.77 283.55,-134.52 273.21,-136.82 276.91,-142.77"/>
</a>
</g>
</g>
<!-- Node3 -->
<g id="Node000003" class="node">
<title>Node3</title>
<g id="a_Node000003"><a xlink:href="webcface-config_8h.html" target="_top" xlink:title=" ">
<polygon fill="white" stroke="#666666" points="423.76,-19 318.76,-19 318.76,0 423.76,0 423.76,-19"/>
<text text-anchor="middle" x="371.26" y="-7" font-family="Helvetica,sans-Serif" font-size="10.00">webcface&#45;config.h</text>
</a>
</g>
</g>
<!-- Node1&#45;&gt;Node3 -->
<g id="edge4_Node000001_Node000003" class="edge">
<title>Node1&#45;&gt;Node3</title>
<g id="a_edge4_Node000001_Node000003"><a xlink:title=" ">
<path fill="none" stroke="#63b8ff" d="M139.22,-175.92C118,-168.21 94.88,-156.72 78.26,-140 50.22,-111.79 24.14,-84.99 50.26,-55 50.52,-54.7 215.12,-31.99 308.48,-19.14"/>
<polygon fill="#63b8ff" stroke="#63b8ff" points="309.24,-22.57 318.67,-17.74 308.28,-15.63 309.24,-22.57"/>
</a>
</g>
</g>
<!-- Node4 -->
<g id="Node000004" class="node">
<title>Node4</title>
<g id="a_Node000004"><a xlink:title=" ">
<polygon fill="#e0e0e0" stroke="#999999" points="124.76,-74 59.76,-74 59.76,-55 124.76,-55 124.76,-74"/>
<text text-anchor="middle" x="92.26" y="-62" font-family="Helvetica,sans-Serif" font-size="10.00">stdexcept</text>
</a>
</g>
</g>
<!-- Node1&#45;&gt;Node4 -->
<g id="edge8_Node000001_Node000004" class="edge">
<title>Node1&#45;&gt;Node4</title>
<g id="a_edge8_Node000001_Node000004"><a xlink:title=" ">
<path fill="none" stroke="#63b8ff" d="M136,-175.96C117.53,-168.46 99.1,-157.1 88.26,-140 77.67,-123.29 81.14,-100 85.66,-83.93"/>
<polygon fill="#63b8ff" stroke="#63b8ff" points="89.09,-84.71 88.8,-74.12 82.42,-82.58 89.09,-84.71"/>
</a>
</g>
</g>
<!-- Node5 -->
<g id="Node000005" class="node">
<title>Node5</title>
<g id="a_Node000005"><a xlink:title=" ">
<polygon fill="#e0e0e0" stroke="#999999" points="153.26,-134.5 97.26,-134.5 97.26,-115.5 153.26,-115.5 153.26,-134.5"/>
<text text-anchor="middle" x="125.26" y="-122.5" font-family="Helvetica,sans-Serif" font-size="10.00">optional</text>
</a>
</g>
</g>
<!-- Node1&#45;&gt;Node5 -->
<g id="edge5_Node000001_Node000005" class="edge">
<title>Node1&#45;&gt;Node5</title>
<g id="a_edge5_Node000001_Node000005"><a xlink:title=" ">
<path fill="none" stroke="#63b8ff" d="M178.95,-175.8C168.08,-165.72 153.5,-152.19 142.27,-141.78"/>
<polygon fill="#63b8ff" stroke="#63b8ff" points="144.51,-139.08 134.79,-134.84 139.75,-144.21 144.51,-139.08"/>
</a>
</g>
</g>
<!-- Node6 -->
<g id="Node000006" class="node">
<title>Node6</title>
<g id="a_Node000006"><a xlink:title=" ">
<polygon fill="#e0e0e0" stroke="#999999" points="217.26,-134.5 171.26,-134.5 171.26,-115.5 217.26,-115.5 217.26,-134.5"/>
<text text-anchor="middle" x="194.26" y="-122.5" font-family="Helvetica,sans-Serif" font-size="10.00">future</text>
</a>
</g>
</g>
<!-- Node1&#45;&gt;Node6 -->
<g id="edge6_Node000001_Node000006" class="edge">
<title>Node1&#45;&gt;Node6</title>
<g id="a_edge6_Node000001_Node000006"><a xlink:title=" ">
<path fill="none" stroke="#63b8ff" d="M194.26,-175.8C194.26,-166.7 194.26,-154.79 194.26,-144.9"/>
<polygon fill="#63b8ff" stroke="#63b8ff" points="197.76,-144.84 194.26,-134.84 190.76,-144.84 197.76,-144.84"/>
</a>
</g>
</g>
<!-- Node7 -->
<g id="Node000007" class="node">
<title>Node7</title>
<g id="a_Node000007"><a xlink:title=" ">
<polygon fill="#e0e0e0" stroke="#999999" points="220.26,-19 162.26,-19 162.26,0 220.26,0 220.26,-19"/>
<text text-anchor="middle" x="191.26" y="-7" font-family="Helvetica,sans-Serif" font-size="10.00">memory</text>
</a>
</g>
</g>
<!-- Node1&#45;&gt;Node7 -->
<g id="edge7_Node000001_Node000007" class="edge">
<title>Node1&#45;&gt;Node7</title>
<g id="a_edge7_Node000001_Node000007"><a xlink:title=" ">
<path fill="none" stroke="#63b8ff" d="M128.36,-179.84C83.9,-171.49 30.94,-158.08 17.26,-140 -5.54,-109.87 -5.91,-84.84 17.26,-55 33.66,-33.88 106.2,-21.08 152.28,-14.94"/>
<polygon fill="#63b8ff" stroke="#63b8ff" points="152.78,-18.4 162.25,-13.66 151.89,-11.46 152.78,-18.4"/>
</a>
</g>
</g>
<!-- Node8 -->
<g id="Node000008" class="node">
<title>Node8</title>
<g id="a_Node000008"><a xlink:href="field_8h.html" target="_top" xlink:title=" ">
<polygon fill="white" stroke="#666666" points="423.76,-134.5 376.76,-134.5 376.76,-115.5 423.76,-115.5 423.76,-134.5"/>
<text text-anchor="middle" x="400.26" y="-122.5" font-family="Helvetica,sans-Serif" font-size="10.00">field.h</text>
</a>
</g>
</g>
<!-- Node1&#45;&gt;Node8 -->
<g id="edge9_Node000001_Node000008" class="edge">
<title>Node1&#45;&gt;Node8</title>
<g id="a_edge9_Node000001_Node000008"><a xlink:title=" ">
<path fill="none" stroke="#63b8ff" d="M248.95,-176C283.25,-166.77 328.22,-153.86 367.26,-140 368.69,-139.49 370.15,-138.95 371.61,-138.4"/>
<polygon fill="#63b8ff" stroke="#63b8ff" points="373.24,-141.51 381.22,-134.54 370.63,-135.02 373.24,-141.51"/>
</a>
</g>
</g>
<!-- Node15 -->
<g id="Node000015" class="node">
<title>Node15</title>
<g id="a_Node000015"><a xlink:href="common_2val__adaptor_8h.html" target="_top" xlink:title=" ">
<polygon fill="white" stroke="#666666" points="807.76,-140 680.76,-140 680.76,-110 807.76,-110 807.76,-140"/>
<text text-anchor="start" x="688.76" y="-128" font-family="Helvetica,sans-Serif" font-size="10.00">webcface/common/val</text>
<text text-anchor="middle" x="744.26" y="-117" font-family="Helvetica,sans-Serif" font-size="10.00">_adaptor.h</text>
</a>
</g>
</g>
<!-- Node1&#45;&gt;Node15 -->
<g id="edge22_Node000001_Node000015" class="edge">
<title>Node1&#45;&gt;Node15</title>
<g id="a_edge22_Node000001_Node000015"><a xlink:title=" ">
<path fill="none" stroke="#63b8ff" d="M259.78,-182.38C362.85,-170.38 562.2,-147.19 670.27,-134.61"/>
<polygon fill="#63b8ff" stroke="#63b8ff" points="670.91,-138.06 680.44,-133.43 670.1,-131.11 670.91,-138.06"/>
</a>
</g>
</g>
<!-- Node20 -->
<g id="Node000020" class="node">
<title>Node20</title>
<g id="a_Node000020"><a xlink:href="def__types_8h.html" target="_top" xlink:title=" ">
<polygon fill="white" stroke="#666666" points="1108.76,-140 995.76,-140 995.76,-110 1108.76,-110 1108.76,-140"/>
<text text-anchor="start" x="1003.76" y="-128" font-family="Helvetica,sans-Serif" font-size="10.00">webcface/c_wcf/def</text>
<text text-anchor="middle" x="1052.26" y="-117" font-family="Helvetica,sans-Serif" font-size="10.00">_types.h</text>
</a>
</g>
</g>
<!-- Node1&#45;&gt;Node20 -->
<g id="edge31_Node000001_Node000020" class="edge">
<title>Node1&#45;&gt;Node20</title>
<g id="a_edge31_Node000001_Node000020"><a xlink:title=" ">
<path fill="none" stroke="#63b8ff" d="M259.81,-185.11C418.98,-173.24 824.61,-142.98 985.27,-131"/>
<polygon fill="#63b8ff" stroke="#63b8ff" points="985.78,-134.47 995.49,-130.23 985.26,-127.49 985.78,-134.47"/>
</a>
</g>
</g>
<!-- Node2&#45;&gt;Node3 -->
<g id="edge2_Node000002_Node000003" class="edge">
<title>Node2&#45;&gt;Node3</title>
<g id="a_edge2_Node000002_Node000003"><a xlink:title=" ">
<path fill="none" stroke="#63b8ff" d="M269.67,-115.41C237.16,-103.85 190,-81.62 210.26,-55 222.44,-38.99 268.71,-27.26 308.54,-19.88"/>
<polygon fill="#63b8ff" stroke="#63b8ff" points="309.27,-23.3 318.5,-18.1 308.04,-16.41 309.27,-23.3"/>
</a>
</g>
</g>
<!-- Node2&#45;&gt;Node4 -->
<g id="edge3_Node000002_Node000004" class="edge">
<title>Node2&#45;&gt;Node4</title>
<g id="a_edge3_Node000002_Node000004"><a xlink:title=" ">
<path fill="none" stroke="#63b8ff" d="M267.45,-115.49C231.7,-105.29 171.63,-88.15 131.97,-76.83"/>
<polygon fill="#63b8ff" stroke="#63b8ff" points="132.68,-73.4 122.1,-74.02 130.76,-80.13 132.68,-73.4"/>
</a>
</g>
</g>
<!-- Node8&#45;&gt;Node3 -->
<g id="edge13_Node000008_Node000003" class="edge">
<title>Node8&#45;&gt;Node3</title>
<g id="a_edge13_Node000008_Node000003"><a xlink:title=" ">
<path fill="none" stroke="#63b8ff" d="M398.08,-115.47C393.42,-97.23 382.39,-54.07 376.02,-29.14"/>
<polygon fill="#63b8ff" stroke="#63b8ff" points="379.33,-27.95 373.46,-19.13 372.55,-29.69 379.33,-27.95"/>
</a>
</g>
</g>
<!-- Node8&#45;&gt;Node7 -->
<g id="edge10_Node000008_Node000007" class="edge">
<title>Node8&#45;&gt;Node7</title>
<g id="a_edge10_Node000008_Node000007"><a xlink:title=" ">
<path fill="none" stroke="#63b8ff" d="M381.63,-115.42C376.99,-113.48 372,-111.53 367.26,-110 299.16,-87.94 262.51,-122.94 210.26,-74 198.07,-62.58 193.59,-43.69 192,-29.47"/>
<polygon fill="#63b8ff" stroke="#63b8ff" points="195.48,-29.02 191.26,-19.31 188.5,-29.54 195.48,-29.02"/>
</a>
</g>
</g>
<!-- Node9 -->
<g id="Node000009" class="node">
<title>Node9</title>
<g id="a_Node000009"><a xlink:title=" ">
<polygon fill="#e0e0e0" stroke="#999999" points="613.26,-19 569.26,-19 569.26,0 613.26,0 613.26,-19"/>
<text text-anchor="middle" x="591.26" y="-7" font-family="Helvetica,sans-Serif" font-size="10.00">string</text>
</a>
</g>
</g>
<!-- Node8&#45;&gt;Node9 -->
<g id="edge11_Node000008_Node000009" class="edge">
<title>Node8&#45;&gt;Node9</title>
<g id="a_edge11_Node000008_Node000009"><a xlink:title=" ">
<path fill="none" stroke="#63b8ff" d="M423.88,-123.8C460.43,-122.19 530.71,-113.72 571.26,-74 583.25,-62.26 588.07,-43.41 590,-29.29"/>
<polygon fill="#63b8ff" stroke="#63b8ff" points="593.5,-29.51 591.01,-19.21 586.53,-28.81 593.5,-29.51"/>
</a>
</g>
</g>
<!-- Node10 -->
<g id="Node000010" class="node">
<title>Node10</title>
<g id="a_Node000010"><a xlink:title=" ">
<polygon fill="#e0e0e0" stroke="#999999" points="666.76,-74 619.76,-74 619.76,-55 666.76,-55 666.76,-74"/>
<text text-anchor="middle" x="643.26" y="-62" font-family="Helvetica,sans-Serif" font-size="10.00">vector</text>
</a>
</g>
</g>
<!-- Node8&#45;&gt;Node10 -->
<g id="edge12_Node000008_Node000010" class="edge">
<title>Node8&#45;&gt;Node10</title>
<g id="a_edge12_Node000008_Node000010"><a xlink:title=" ">
<path fill="none" stroke="#63b8ff" d="M424,-118.28C467.37,-107.84 559.53,-85.66 609.44,-73.64"/>
<polygon fill="#63b8ff" stroke="#63b8ff" points="610.52,-76.98 619.42,-71.24 608.88,-70.18 610.52,-76.98"/>
</a>
</g>
</g>
<!-- Node11 -->
<g id="Node000011" class="node">
<title>Node11</title>
<g id="a_Node000011"><a xlink:href="common_2encoding_8h.html" target="_top" xlink:title=" ">
<polygon fill="white" stroke="#666666" points="562.76,-74 397.76,-74 397.76,-55 562.76,-55 562.76,-74"/>
<text text-anchor="middle" x="480.26" y="-62" font-family="Helvetica,sans-Serif" font-size="10.00">webcface/common/encoding.h</text>
</a>
</g>
</g>
<!-- Node8&#45;&gt;Node11 -->
<g id="edge14_Node000008_Node000011" class="edge">
<title>Node8&#45;&gt;Node11</title>
<g id="a_edge14_Node000008_Node000011"><a xlink:title=" ">
<path fill="none" stroke="#63b8ff" d="M412.06,-115.37C424.71,-106.12 445,-91.28 460.17,-80.19"/>
<polygon fill="#63b8ff" stroke="#63b8ff" points="462.4,-82.9 468.41,-74.17 458.27,-77.24 462.4,-82.9"/>
</a>
</g>
</g>
<!-- Node13 -->
<g id="Node000013" class="node">
<title>Node13</title>
<g id="a_Node000013"><a xlink:href="complete_8h.html" target="_top" xlink:title=" ">
<polygon fill="white" stroke="#666666" points="340.76,-74 219.76,-74 219.76,-55 340.76,-55 340.76,-74"/>
<text text-anchor="middle" x="280.26" y="-62" font-family="Helvetica,sans-Serif" font-size="10.00">webcface/complete.h</text>
</a>
</g>
</g>
<!-- Node8&#45;&gt;Node13 -->
<g id="edge19_Node000008_Node000013" class="edge">
<title>Node8&#45;&gt;Node13</title>
<g id="a_edge19_Node000008_Node000013"><a xlink:title=" ">
<path fill="none" stroke="#63b8ff" d="M382.81,-115.49C362.9,-105.79 330.12,-89.81 306.99,-78.53"/>
<polygon fill="#63b8ff" stroke="#63b8ff" points="308.25,-75.25 297.73,-74.02 305.18,-81.54 308.25,-75.25"/>
</a>
</g>
</g>
<!-- Node11&#45;&gt;Node3 -->
<g id="edge18_Node000011_Node000003" class="edge">
<title>Node11&#45;&gt;Node3</title>
<g id="a_edge18_Node000011_Node000003"><a xlink:title=" ">
<path fill="none" stroke="#63b8ff" d="M462.75,-54.98C445.29,-46.5 418.25,-33.35 398.09,-23.54"/>
<polygon fill="#63b8ff" stroke="#63b8ff" points="399.61,-20.4 389.09,-19.17 396.55,-26.69 399.61,-20.4"/>
</a>
</g>
</g>
<!-- Node11&#45;&gt;Node7 -->
<g id="edge17_Node000011_Node000007" class="edge">
<title>Node11&#45;&gt;Node7</title>
<g id="a_edge17_Node000011_Node000007"><a xlink:title=" ">
<path fill="none" stroke="#63b8ff" d="M433.83,-54.98C377.43,-44.64 283.31,-27.38 230.42,-17.68"/>
<polygon fill="#63b8ff" stroke="#63b8ff" points="230.88,-14.21 220.41,-15.85 229.62,-21.09 230.88,-14.21"/>
</a>
</g>
</g>
<!-- Node11&#45;&gt;Node9 -->
<g id="edge15_Node000011_Node000009" class="edge">
<title>Node11&#45;&gt;Node9</title>
<g id="a_edge15_Node000011_Node000009"><a xlink:title=" ">
<path fill="none" stroke="#63b8ff" d="M498.09,-54.98C515.87,-46.5 543.41,-33.35 563.94,-23.54"/>
<polygon fill="#63b8ff" stroke="#63b8ff" points="565.58,-26.64 573.1,-19.17 562.57,-20.32 565.58,-26.64"/>
</a>
</g>
</g>
<!-- Node12 -->
<g id="Node000012" class="node">
<title>Node12</title>
<g id="a_Node000012"><a xlink:title=" ">
<polygon fill="#e0e0e0" stroke="#999999" points="516.76,-19 443.76,-19 443.76,0 516.76,0 516.76,-19"/>
<text text-anchor="middle" x="480.26" y="-7" font-family="Helvetica,sans-Serif" font-size="10.00">string_view</text>
</a>
</g>
</g>
<!-- Node11&#45;&gt;Node12 -->
<g id="edge16_Node000011_Node000012" class="edge">
<title>Node11&#45;&gt;Node12</title>
<g id="a_edge16_Node000011_Node000012"><a xlink:title=" ">
<path fill="none" stroke="#63b8ff" d="M480.26,-54.75C480.26,-47.8 480.26,-37.85 480.26,-29.13"/>
<polygon fill="#63b8ff" stroke="#63b8ff" points="483.76,-29.09 480.26,-19.09 476.76,-29.09 483.76,-29.09"/>
</a>
</g>
</g>
<!-- Node13&#45;&gt;Node3 -->
<g id="edge21_Node000013_Node000003" class="edge">
<title>Node13&#45;&gt;Node3</title>
<g id="a_edge21_Node000013_Node000003"><a xlink:title=" ">
<path fill="none" stroke="#63b8ff" d="M294.88,-54.98C309.12,-46.69 331.01,-33.94 347.71,-24.22"/>
<polygon fill="#63b8ff" stroke="#63b8ff" points="349.49,-27.23 356.37,-19.17 345.97,-21.18 349.49,-27.23"/>
</a>
</g>
</g>
<!-- Node14 -->
<g id="Node000014" class="node">
<title>Node14</title>
<g id="a_Node000014"><a xlink:title=" ">
<polygon fill="#e0e0e0" stroke="#999999" points="300.76,-19 247.76,-19 247.76,0 300.76,0 300.76,-19"/>
<text text-anchor="middle" x="274.26" y="-7" font-family="Helvetica,sans-Serif" font-size="10.00">cstddef</text>
</a>
</g>
</g>
<!-- Node13&#45;&gt;Node14 -->
<g id="edge20_Node000013_Node000014" class="edge">
<title>Node13&#45;&gt;Node14</title>
<g id="a_edge20_Node000013_Node000014"><a xlink:title=" ">
<path fill="none" stroke="#63b8ff" d="M279.27,-54.75C278.48,-47.8 277.36,-37.85 276.37,-29.13"/>
<polygon fill="#63b8ff" stroke="#63b8ff" points="279.83,-28.63 275.23,-19.09 272.88,-29.42 279.83,-28.63"/>
</a>
</g>
</g>
<!-- Node15&#45;&gt;Node3 -->
<g id="edge30_Node000015_Node000003" class="edge">
<title>Node15&#45;&gt;Node3</title>
<g id="a_edge30_Node000015_Node000003"><a xlink:title=" ">
<path fill="none" stroke="#63b8ff" d="M734.82,-109.96C723.13,-93.8 701.62,-67.84 676.26,-55 670.88,-52.27 521.69,-31.3 434,-19.15"/>
<polygon fill="#63b8ff" stroke="#63b8ff" points="434.27,-15.65 423.88,-17.74 433.31,-22.58 434.27,-15.65"/>
</a>
</g>
</g>
<!-- Node15&#45;&gt;Node9 -->
<g id="edge23_Node000015_Node000009" class="edge">
<title>Node15&#45;&gt;Node9</title>
<g id="a_edge23_Node000015_Node000009"><a xlink:title=" ">
<path fill="none" stroke="#63b8ff" d="M807.86,-124.94C896.39,-124.2 1040.23,-114.26 987.26,-55 963.14,-28.02 713.89,-15.41 623.65,-11.71"/>
<polygon fill="#63b8ff" stroke="#63b8ff" points="623.59,-8.21 613.46,-11.3 623.31,-15.2 623.59,-8.21"/>
</a>
</g>
</g>
<!-- Node15&#45;&gt;Node10 -->
<g id="edge24_Node000015_Node000010" class="edge">
<title>Node15&#45;&gt;Node10</title>
<g id="a_edge24_Node000015_Node000010"><a xlink:title=" ">
<path fill="none" stroke="#63b8ff" d="M720.07,-109.99C703.97,-100.66 682.92,-88.47 666.93,-79.21"/>
<polygon fill="#63b8ff" stroke="#63b8ff" points="668.58,-76.12 658.18,-74.14 665.07,-82.18 668.58,-76.12"/>
</a>
</g>
</g>
<!-- Node15&#45;&gt;Node11 -->
<g id="edge29_Node000015_Node000011" class="edge">
<title>Node15&#45;&gt;Node11</title>
<g id="a_edge29_Node000015_Node000011"><a xlink:title=" ">
<path fill="none" stroke="#63b8ff" d="M681.02,-109.99C634.28,-99.63 571.57,-85.73 528.76,-76.25"/>
<polygon fill="#63b8ff" stroke="#63b8ff" points="529.38,-72.8 518.86,-74.05 527.87,-79.63 529.38,-72.8"/>
</a>
</g>
</g>
<!-- Node16 -->
<g id="Node000016" class="node">
<title>Node16</title>
<g id="a_Node000016"><a xlink:title=" ">
<polygon fill="#e0e0e0" stroke="#999999" points="764.76,-74 723.76,-74 723.76,-55 764.76,-55 764.76,-74"/>
<text text-anchor="middle" x="744.26" y="-62" font-family="Helvetica,sans-Serif" font-size="10.00">tuple</text>
</a>
</g>
</g>
<!-- Node15&#45;&gt;Node16 -->
<g id="edge25_Node000015_Node000016" class="edge">
<title>Node15&#45;&gt;Node16</title>
<g id="a_edge25_Node000015_Node000016"><a xlink:title=" ">
<path fill="none" stroke="#63b8ff" d="M744.26,-109.84C744.26,-102.21 744.26,-92.7 744.26,-84.45"/>
<polygon fill="#63b8ff" stroke="#63b8ff" points="747.76,-84.27 744.26,-74.27 740.76,-84.27 747.76,-84.27"/>
</a>
</g>
</g>
<!-- Node17 -->
<g id="Node000017" class="node">
<title>Node17</title>
<g id="a_Node000017"><a xlink:title=" ">
<polygon fill="#e0e0e0" stroke="#999999" points="833.26,-74 783.26,-74 783.26,-55 833.26,-55 833.26,-74"/>
<text text-anchor="middle" x="808.26" y="-62" font-family="Helvetica,sans-Serif" font-size="10.00">cstdint</text>
</a>
</g>
</g>
<!-- Node15&#45;&gt;Node17 -->
<g id="edge26_Node000015_Node000017" class="edge">
<title>Node15&#45;&gt;Node17</title>
<g id="a_edge26_Node000015_Node000017"><a xlink:title=" ">
<path fill="none" stroke="#63b8ff" d="M759.75,-109.84C769.23,-101.17 781.37,-90.08 791.14,-81.15"/>
<polygon fill="#63b8ff" stroke="#63b8ff" points="793.65,-83.6 798.67,-74.27 788.93,-78.43 793.65,-83.6"/>
</a>
</g>
</g>
<!-- Node18 -->
<g id="Node000018" class="node">
<title>Node18</title>
<g id="a_Node000018"><a xlink:title=" ">
<polygon fill="#e0e0e0" stroke="#999999" points="908.76,-74 851.76,-74 851.76,-55 908.76,-55 908.76,-74"/>
<text text-anchor="middle" x="880.26" y="-62" font-family="Helvetica,sans-Serif" font-size="10.00">ostream</text>
</a>
</g>
</g>
<!-- Node15&#45;&gt;Node18 -->
<g id="edge27_Node000015_Node000018" class="edge">
<title>Node15&#45;&gt;Node18</title>
<g id="a_edge27_Node000015_Node000018"><a xlink:title=" ">
<path fill="none" stroke="#63b8ff" d="M776.83,-109.99C799.32,-100.31 828.98,-87.56 850.77,-78.18"/>
<polygon fill="#63b8ff" stroke="#63b8ff" points="852.37,-81.31 860.18,-74.14 849.61,-74.88 852.37,-81.31"/>
</a>
</g>
</g>
<!-- Node19 -->
<g id="Node000019" class="node">
<title>Node19</title>
<g id="a_Node000019"><a xlink:title=" ">
<polygon fill="#e0e0e0" stroke="#999999" points="977.76,-74 926.76,-74 926.76,-55 977.76,-55 977.76,-74"/>
<text text-anchor="middle" x="952.26" y="-62" font-family="Helvetica,sans-Serif" font-size="10.00">variant</text>
</a>
</g>
</g>
<!-- Node15&#45;&gt;Node19 -->
<g id="edge28_Node000015_Node000019" class="edge">
<title>Node15&#45;&gt;Node19</title>
<g id="a_edge28_Node000015_Node000019"><a xlink:title=" ">
<path fill="none" stroke="#63b8ff" d="M794.08,-109.99C831.88,-99.36 882.91,-85 916.67,-75.51"/>
<polygon fill="#63b8ff" stroke="#63b8ff" points="917.88,-78.81 926.56,-72.73 915.98,-72.07 917.88,-78.81"/>
</a>
</g>
</g>
<!-- Node20&#45;&gt;Node3 -->
<g id="edge32_Node000020_Node000003" class="edge">
<title>Node20&#45;&gt;Node3</title>
<g id="a_edge32_Node000020_Node000003"><a xlink:title=" ">
<path fill="none" stroke="#63b8ff" d="M1043.75,-109.91C1032.93,-93.44 1012.57,-66.92 987.26,-55 875.85,-2.53 556.8,-31.24 434.26,-19 434.15,-18.99 434.05,-18.98 433.94,-18.97"/>
<polygon fill="#63b8ff" stroke="#63b8ff" points="434.14,-15.47 423.82,-17.87 433.39,-22.43 434.14,-15.47"/>
</a>
</g>
</g>
<!-- Node21 -->
<g id="Node000021" class="node">
<title>Node21</title>
<g id="a_Node000021"><a xlink:title=" ">
<polygon fill="#e0e0e0" stroke="#999999" points="1126.26,-74 1072.26,-74 1072.26,-55 1126.26,-55 1126.26,-74"/>
<text text-anchor="middle" x="1099.26" y="-62" font-family="Helvetica,sans-Serif" font-size="10.00">wchar.h</text>
</a>
</g>
</g>
<!-- Node20&#45;&gt;Node21 -->
<g id="edge33_Node000020_Node000021" class="edge">
<title>Node20&#45;&gt;Node21</title>
<g id="a_edge33_Node000020_Node000021"><a xlink:title=" ">
<path fill="none" stroke="#63b8ff" d="M1063.64,-109.84C1070.32,-101.52 1078.8,-90.96 1085.82,-82.23"/>
<polygon fill="#63b8ff" stroke="#63b8ff" points="1088.68,-84.25 1092.22,-74.27 1083.23,-79.87 1088.68,-84.25"/>
</a>
</g>
</g>
<!-- Node22 -->
<g id="Node000022" class="node">
<title>Node22</title>
<g id="a_Node000022"><a xlink:title=" ">
<polygon fill="#e0e0e0" stroke="#999999" points="1191.76,-74 1144.76,-74 1144.76,-55 1191.76,-55 1191.76,-74"/>
<text text-anchor="middle" x="1168.26" y="-62" font-family="Helvetica,sans-Serif" font-size="10.00">float.h</text>
</a>
</g>
</g>
<!-- Node20&#45;&gt;Node22 -->
<g id="edge34_Node000020_Node000022" class="edge">
<title>Node20&#45;&gt;Node22</title>
<g id="a_edge34_Node000020_Node000022"><a xlink:title=" ">
<path fill="none" stroke="#63b8ff" d="M1080.04,-109.99C1098.88,-100.49 1123.61,-88.02 1142.1,-78.69"/>
<polygon fill="#63b8ff" stroke="#63b8ff" points="1143.78,-81.77 1151.13,-74.14 1140.62,-75.52 1143.78,-81.77"/>
</a>
</g>
</g>
</g>
</svg>
