<?xml version="1.0" encoding="UTF-8" standalone="no"?>
<!DOCTYPE svg PUBLIC "-//W3C//DTD SVG 1.1//EN"
 "http://www.w3.org/Graphics/SVG/1.1/DTD/svg11.dtd">
<!-- Generated by graphviz version 2.43.0 (0)
 -->
<!-- Title: client/include/webcface/internal/func_internal.h Pages: 1 -->
<svg width="1299pt" height="324pt"
 viewBox="0.00 0.00 1299.00 324.00" xmlns="http://www.w3.org/2000/svg" xmlns:xlink="http://www.w3.org/1999/xlink">
<g id="graph0" class="graph" transform="scale(1 1) rotate(0) translate(4 320)">
<title>client/include/webcface/internal/func_internal.h</title>
<!-- Node1 -->
<g id="Node000001" class="node">
<title>Node1</title>
<g id="a_Node000001"><a xlink:title=" ">
<polygon fill="#999999" stroke="#666666" points="836.5,-316 703.5,-316 703.5,-286 836.5,-286 836.5,-316"/>
<text text-anchor="start" x="711.5" y="-304" font-family="Helvetica,sans-Serif" font-size="10.00">client/include/webcface</text>
<text text-anchor="middle" x="770" y="-293" font-family="Helvetica,sans-Serif" font-size="10.00">/internal/func_internal.h</text>
</a>
</g>
</g>
<!-- Node2 -->
<g id="Node000002" class="node">
<title>Node2</title>
<g id="a_Node000002"><a xlink:title=" ">
<polygon fill="#e0e0e0" stroke="#999999" points="701.5,-250 608.5,-250 608.5,-231 701.5,-231 701.5,-250"/>
<text text-anchor="middle" x="655" y="-238" font-family="Helvetica,sans-Serif" font-size="10.00">unordered_map</text>
</a>
</g>
</g>
<!-- Node1&#45;&gt;Node2 -->
<g id="edge1_Node000001_Node000002" class="edge">
<title>Node1&#45;&gt;Node2</title>
<g id="a_edge1_Node000001_Node000002"><a xlink:title=" ">
<path fill="none" stroke="#63b8ff" d="M742.45,-285.99C723.78,-276.49 699.26,-264.02 680.94,-254.69"/>
<polygon fill="#63b8ff" stroke="#63b8ff" points="682.48,-251.55 671.98,-250.14 679.31,-257.79 682.48,-251.55"/>
</a>
</g>
</g>
<!-- Node3 -->
<g id="Node000003" class="node">
<title>Node3</title>
<g id="a_Node000003"><a xlink:title=" ">
<polygon fill="#e0e0e0" stroke="#999999" points="768,-250 720,-250 720,-231 768,-231 768,-250"/>
<text text-anchor="middle" x="744" y="-238" font-family="Helvetica,sans-Serif" font-size="10.00">mutex</text>
</a>
</g>
</g>
<!-- Node1&#45;&gt;Node3 -->
<g id="edge2_Node000001_Node000003" class="edge">
<title>Node1&#45;&gt;Node3</title>
<g id="a_edge2_Node000001_Node000003"><a xlink:title=" ">
<path fill="none" stroke="#63b8ff" d="M763.71,-285.84C760.2,-277.95 755.8,-268.05 752.05,-259.61"/>
<polygon fill="#63b8ff" stroke="#63b8ff" points="755.16,-257.98 747.9,-250.27 748.76,-260.83 755.16,-257.98"/>
</a>
</g>
</g>
<!-- Node4 -->
<g id="Node000004" class="node">
<title>Node4</title>
<g id="a_Node000004"><a xlink:href="func__result_8h.html" target="_top" xlink:title=" ">
<polygon fill="white" stroke="#666666" points="803.5,-195 674.5,-195 674.5,-176 803.5,-176 803.5,-195"/>
<text text-anchor="middle" x="739" y="-183" font-family="Helvetica,sans-Serif" font-size="10.00">webcface/func_result.h</text>
</a>
</g>
</g>
<!-- Node1&#45;&gt;Node4 -->
<g id="edge3_Node000001_Node000004" class="edge">
<title>Node1&#45;&gt;Node4</title>
<g id="a_edge3_Node000001_Node000004"><a xlink:title=" ">
<path fill="none" stroke="#63b8ff" d="M775.03,-285.79C779.27,-271.51 783.67,-249.07 777,-231 772.94,-219.99 764.81,-209.86 757.1,-202.05"/>
<polygon fill="#63b8ff" stroke="#63b8ff" points="759.39,-199.39 749.71,-195.07 754.58,-204.48 759.39,-199.39"/>
</a>
</g>
</g>
<!-- Node25 -->
<g id="Node000025" class="node">
<title>Node25</title>
<g id="a_Node000025"><a xlink:href="client_2include_2webcface_2func_8h.html" target="_top" xlink:title=" ">
<polygon fill="white" stroke="#666666" points="978,-250 882,-250 882,-231 978,-231 978,-250"/>
<text text-anchor="middle" x="930" y="-238" font-family="Helvetica,sans-Serif" font-size="10.00">webcface/func.h</text>
</a>
</g>
</g>
<!-- Node1&#45;&gt;Node25 -->
<g id="edge35_Node000001_Node000025" class="edge">
<title>Node1&#45;&gt;Node25</title>
<g id="a_edge35_Node000001_Node000025"><a xlink:title=" ">
<path fill="none" stroke="#63b8ff" d="M808.32,-285.99C835.26,-276.14 870.93,-263.1 896.69,-253.68"/>
<polygon fill="#63b8ff" stroke="#63b8ff" points="898.18,-256.86 906.37,-250.14 895.78,-250.29 898.18,-256.86"/>
</a>
</g>
</g>
<!-- Node5 -->
<g id="Node000005" class="node">
<title>Node5</title>
<g id="a_Node000005"><a xlink:href="webcface-config_8h.html" target="_top" xlink:title=" ">
<polygon fill="white" stroke="#666666" points="778.5,-19 673.5,-19 673.5,0 778.5,0 778.5,-19"/>
<text text-anchor="middle" x="726" y="-7" font-family="Helvetica,sans-Serif" font-size="10.00">webcface&#45;config.h</text>
</a>
</g>
</g>
<!-- Node4&#45;&gt;Node5 -->
<g id="edge4_Node000004_Node000005" class="edge">
<title>Node4&#45;&gt;Node5</title>
<g id="a_edge4_Node000004_Node000005"><a xlink:title=" ">
<path fill="none" stroke="#63b8ff" d="M738.34,-175.63C736.31,-148.52 730.17,-66.32 727.39,-29.13"/>
<polygon fill="#63b8ff" stroke="#63b8ff" points="730.88,-28.85 726.65,-19.14 723.9,-29.38 730.88,-28.85"/>
</a>
</g>
</g>
<!-- Node6 -->
<g id="Node000006" class="node">
<title>Node6</title>
<g id="a_Node000006"><a xlink:title=" ">
<polygon fill="#e0e0e0" stroke="#999999" points="810,-134.5 754,-134.5 754,-115.5 810,-115.5 810,-134.5"/>
<text text-anchor="middle" x="782" y="-122.5" font-family="Helvetica,sans-Serif" font-size="10.00">optional</text>
</a>
</g>
</g>
<!-- Node4&#45;&gt;Node6 -->
<g id="edge5_Node000004_Node000006" class="edge">
<title>Node4&#45;&gt;Node6</title>
<g id="a_edge5_Node000004_Node000006"><a xlink:title=" ">
<path fill="none" stroke="#63b8ff" d="M745.34,-175.87C751.7,-167.23 761.64,-153.7 769.57,-142.92"/>
<polygon fill="#63b8ff" stroke="#63b8ff" points="772.53,-144.8 775.63,-134.67 766.89,-140.65 772.53,-144.8"/>
</a>
</g>
</g>
<!-- Node7 -->
<g id="Node000007" class="node">
<title>Node7</title>
<g id="a_Node000007"><a xlink:title=" ">
<polygon fill="#e0e0e0" stroke="#999999" points="46,-134.5 0,-134.5 0,-115.5 46,-115.5 46,-134.5"/>
<text text-anchor="middle" x="23" y="-122.5" font-family="Helvetica,sans-Serif" font-size="10.00">future</text>
</a>
</g>
</g>
<!-- Node4&#45;&gt;Node7 -->
<g id="edge6_Node000004_Node000007" class="edge">
<title>Node4&#45;&gt;Node7</title>
<g id="a_edge6_Node000004_Node000007"><a xlink:title=" ">
<path fill="none" stroke="#63b8ff" d="M674.24,-182.7C528,-178.23 175.96,-165.15 60,-140 57.32,-139.42 54.58,-138.68 51.86,-137.85"/>
<polygon fill="#63b8ff" stroke="#63b8ff" points="52.85,-134.48 42.26,-134.52 50.56,-141.1 52.85,-134.48"/>
</a>
</g>
</g>
<!-- Node8 -->
<g id="Node000008" class="node">
<title>Node8</title>
<g id="a_Node000008"><a xlink:title=" ">
<polygon fill="#e0e0e0" stroke="#999999" points="279,-19 221,-19 221,0 279,0 279,-19"/>
<text text-anchor="middle" x="250" y="-7" font-family="Helvetica,sans-Serif" font-size="10.00">memory</text>
</a>
</g>
</g>
<!-- Node4&#45;&gt;Node8 -->
<g id="edge7_Node000004_Node000008" class="edge">
<title>Node4&#45;&gt;Node8</title>
<g id="a_edge7_Node000004_Node000008"><a xlink:title=" ">
<path fill="none" stroke="#63b8ff" d="M674.35,-184.53C523.79,-182.97 157.65,-169.27 93,-74 62.99,-29.77 154.76,-16.34 210.5,-12.26"/>
<polygon fill="#63b8ff" stroke="#63b8ff" points="211.03,-15.74 220.78,-11.59 210.58,-8.75 211.03,-15.74"/>
</a>
</g>
</g>
<!-- Node9 -->
<g id="Node000009" class="node">
<title>Node9</title>
<g id="a_Node000009"><a xlink:title=" ">
<polygon fill="#e0e0e0" stroke="#999999" points="1188.5,-134.5 1123.5,-134.5 1123.5,-115.5 1188.5,-115.5 1188.5,-134.5"/>
<text text-anchor="middle" x="1156" y="-122.5" font-family="Helvetica,sans-Serif" font-size="10.00">stdexcept</text>
</a>
</g>
</g>
<!-- Node4&#45;&gt;Node9 -->
<g id="edge8_Node000004_Node000009" class="edge">
<title>Node4&#45;&gt;Node9</title>
<g id="a_edge8_Node000004_Node000009"><a xlink:title=" ">
<path fill="none" stroke="#63b8ff" d="M799.64,-175.99C885.18,-163.99 1039.13,-142.4 1113.5,-131.96"/>
<polygon fill="#63b8ff" stroke="#63b8ff" points="1114.03,-135.42 1123.45,-130.57 1113.06,-128.49 1114.03,-135.42"/>
</a>
</g>
</g>
<!-- Node10 -->
<g id="Node000010" class="node">
<title>Node10</title>
<g id="a_Node000010"><a xlink:href="field_8h.html" target="_top" xlink:title=" ">
<polygon fill="white" stroke="#666666" points="571.5,-134.5 524.5,-134.5 524.5,-115.5 571.5,-115.5 571.5,-134.5"/>
<text text-anchor="middle" x="548" y="-122.5" font-family="Helvetica,sans-Serif" font-size="10.00">field.h</text>
</a>
</g>
</g>
<!-- Node4&#45;&gt;Node10 -->
<g id="edge9_Node000004_Node000010" class="edge">
<title>Node4&#45;&gt;Node10</title>
<g id="a_edge9_Node000004_Node000010"><a xlink:title=" ">
<path fill="none" stroke="#63b8ff" d="M711.23,-175.99C676.8,-165.45 618.19,-147.5 581.36,-136.22"/>
<polygon fill="#63b8ff" stroke="#63b8ff" points="582.18,-132.81 571.59,-133.23 580.13,-139.5 582.18,-132.81"/>
</a>
</g>
</g>
<!-- Node17 -->
<g id="Node000017" class="node">
<title>Node17</title>
<g id="a_Node000017"><a xlink:href="common_2val__adaptor_8h.html" target="_top" xlink:title=" ">
<polygon fill="white" stroke="#666666" points="993.5,-140 866.5,-140 866.5,-110 993.5,-110 993.5,-140"/>
<text text-anchor="start" x="874.5" y="-128" font-family="Helvetica,sans-Serif" font-size="10.00">webcface/common/val</text>
<text text-anchor="middle" x="930" y="-117" font-family="Helvetica,sans-Serif" font-size="10.00">_adaptor.h</text>
</a>
</g>
</g>
<!-- Node4&#45;&gt;Node17 -->
<g id="edge22_Node000004_Node000017" class="edge">
<title>Node4&#45;&gt;Node17</title>
<g id="a_edge22_Node000004_Node000017"><a xlink:title=" ">
<path fill="none" stroke="#63b8ff" d="M766.77,-175.99C794.86,-167.39 839.05,-153.86 874.37,-143.04"/>
<polygon fill="#63b8ff" stroke="#63b8ff" points="875.54,-146.34 884.08,-140.06 873.49,-139.65 875.54,-146.34"/>
</a>
</g>
</g>
<!-- Node22 -->
<g id="Node000022" class="node">
<title>Node22</title>
<g id="a_Node000022"><a xlink:href="def__types_8h.html" target="_top" xlink:title=" ">
<polygon fill="white" stroke="#666666" points="380.5,-140 267.5,-140 267.5,-110 380.5,-110 380.5,-140"/>
<text text-anchor="start" x="275.5" y="-128" font-family="Helvetica,sans-Serif" font-size="10.00">webcface/c_wcf/def</text>
<text text-anchor="middle" x="324" y="-117" font-family="Helvetica,sans-Serif" font-size="10.00">_types.h</text>
</a>
</g>
</g>
<!-- Node4&#45;&gt;Node22 -->
<g id="edge31_Node000004_Node000022" class="edge">
<title>Node4&#45;&gt;Node22</title>
<g id="a_edge31_Node000004_Node000022"><a xlink:title=" ">
<path fill="none" stroke="#63b8ff" d="M678.66,-175.99C602.02,-165.19 470.2,-146.61 390.66,-135.4"/>
<polygon fill="#63b8ff" stroke="#63b8ff" points="391.14,-131.93 380.75,-134 390.16,-138.86 391.14,-131.93"/>
</a>
</g>
</g>
<!-- Node10&#45;&gt;Node5 -->
<g id="edge13_Node000010_Node000005" class="edge">
<title>Node10&#45;&gt;Node5</title>
<g id="a_edge13_Node000010_Node000005"><a xlink:title=" ">
<path fill="none" stroke="#63b8ff" d="M547.96,-115.48C548.37,-100.99 551.36,-71.52 568,-55 593.01,-30.18 630.7,-18.96 663.01,-13.98"/>
<polygon fill="#63b8ff" stroke="#63b8ff" points="663.85,-17.4 673.28,-12.58 662.9,-10.47 663.85,-17.4"/>
</a>
</g>
</g>
<!-- Node10&#45;&gt;Node8 -->
<g id="edge10_Node000010_Node000008" class="edge">
<title>Node10&#45;&gt;Node8</title>
<g id="a_edge10_Node000010_Node000008"><a xlink:title=" ">
<path fill="none" stroke="#63b8ff" d="M524.23,-122.82C464.06,-119.35 307.82,-107.29 270,-74 257.4,-62.91 252.66,-43.98 250.92,-29.66"/>
<polygon fill="#63b8ff" stroke="#63b8ff" points="254.38,-29.09 250.07,-19.41 247.41,-29.66 254.38,-29.09"/>
</a>
</g>
</g>
<!-- Node11 -->
<g id="Node000011" class="node">
<title>Node11</title>
<g id="a_Node000011"><a xlink:title=" ">
<polygon fill="#e0e0e0" stroke="#999999" points="532,-19 488,-19 488,0 532,0 532,-19"/>
<text text-anchor="middle" x="510" y="-7" font-family="Helvetica,sans-Serif" font-size="10.00">string</text>
</a>
</g>
</g>
<!-- Node10&#45;&gt;Node11 -->
<g id="edge11_Node000010_Node000011" class="edge">
<title>Node10&#45;&gt;Node11</title>
<g id="a_edge11_Node000010_Node000011"><a xlink:title=" ">
<path fill="none" stroke="#63b8ff" d="M545.14,-115.47C539.01,-97.15 524.46,-53.68 516.13,-28.81"/>
<polygon fill="#63b8ff" stroke="#63b8ff" points="519.38,-27.5 512.89,-19.13 512.75,-29.72 519.38,-27.5"/>
</a>
</g>
</g>
<!-- Node12 -->
<g id="Node000012" class="node">
<title>Node12</title>
<g id="a_Node000012"><a xlink:title=" ">
<polygon fill="#e0e0e0" stroke="#999999" points="801.5,-74 754.5,-74 754.5,-55 801.5,-55 801.5,-74"/>
<text text-anchor="middle" x="778" y="-62" font-family="Helvetica,sans-Serif" font-size="10.00">vector</text>
</a>
</g>
</g>
<!-- Node10&#45;&gt;Node12 -->
<g id="edge12_Node000010_Node000012" class="edge">
<title>Node10&#45;&gt;Node12</title>
<g id="a_edge12_Node000010_Node000012"><a xlink:title=" ">
<path fill="none" stroke="#63b8ff" d="M571.75,-117.96C612.92,-107.49 697.63,-85.94 744.67,-73.98"/>
<polygon fill="#63b8ff" stroke="#63b8ff" points="745.55,-77.36 754.38,-71.51 743.83,-70.58 745.55,-77.36"/>
</a>
</g>
</g>
<!-- Node13 -->
<g id="Node000013" class="node">
<title>Node13</title>
<g id="a_Node000013"><a xlink:href="common_2encoding_8h.html" target="_top" xlink:title=" ">
<polygon fill="white" stroke="#666666" points="443.5,-74 278.5,-74 278.5,-55 443.5,-55 443.5,-74"/>
<text text-anchor="middle" x="361" y="-62" font-family="Helvetica,sans-Serif" font-size="10.00">webcface/common/encoding.h</text>
</a>
</g>
</g>
<!-- Node10&#45;&gt;Node13 -->
<g id="edge14_Node000010_Node000013" class="edge">
<title>Node10&#45;&gt;Node13</title>
<g id="a_edge14_Node000010_Node000013"><a xlink:title=" ">
<path fill="none" stroke="#63b8ff" d="M524.32,-116.59C492.47,-106.63 435.52,-88.81 397.99,-77.07"/>
<polygon fill="#63b8ff" stroke="#63b8ff" points="399.02,-73.73 388.43,-74.08 396.93,-80.41 399.02,-73.73"/>
</a>
</g>
</g>
<!-- Node15 -->
<g id="Node000015" class="node">
<title>Node15</title>
<g id="a_Node000015"><a xlink:href="complete_8h.html" target="_top" xlink:title=" ">
<polygon fill="white" stroke="#666666" points="697.5,-74 576.5,-74 576.5,-55 697.5,-55 697.5,-74"/>
<text text-anchor="middle" x="637" y="-62" font-family="Helvetica,sans-Serif" font-size="10.00">webcface/complete.h</text>
</a>
</g>
</g>
<!-- Node10&#45;&gt;Node15 -->
<g id="edge19_Node000010_Node000015" class="edge">
<title>Node10&#45;&gt;Node15</title>
<g id="a_edge19_Node000010_Node000015"><a xlink:title=" ">
<path fill="none" stroke="#63b8ff" d="M561.13,-115.37C575.33,-106.04 598.2,-91.01 615.12,-79.88"/>
<polygon fill="#63b8ff" stroke="#63b8ff" points="617.38,-82.58 623.81,-74.17 613.53,-76.74 617.38,-82.58"/>
</a>
</g>
</g>
<!-- Node13&#45;&gt;Node5 -->
<g id="edge18_Node000013_Node000005" class="edge">
<title>Node13&#45;&gt;Node5</title>
<g id="a_edge18_Node000013_Node000005"><a xlink:title=" ">
<path fill="none" stroke="#63b8ff" d="M419.64,-54.98C486.35,-45.3 594.85,-29.54 663.22,-19.62"/>
<polygon fill="#63b8ff" stroke="#63b8ff" points="664.03,-23.03 673.43,-18.13 663.03,-16.11 664.03,-23.03"/>
</a>
</g>
</g>
<!-- Node13&#45;&gt;Node8 -->
<g id="edge17_Node000013_Node000008" class="edge">
<title>Node13&#45;&gt;Node8</title>
<g id="a_edge17_Node000013_Node000008"><a xlink:title=" ">
<path fill="none" stroke="#63b8ff" d="M343.17,-54.98C325.39,-46.5 297.85,-33.35 277.32,-23.54"/>
<polygon fill="#63b8ff" stroke="#63b8ff" points="278.69,-20.32 268.16,-19.17 275.67,-26.64 278.69,-20.32"/>
</a>
</g>
</g>
<!-- Node13&#45;&gt;Node11 -->
<g id="edge15_Node000013_Node000011" class="edge">
<title>Node13&#45;&gt;Node11</title>
<g id="a_edge15_Node000013_Node000011"><a xlink:title=" ">
<path fill="none" stroke="#63b8ff" d="M384.94,-54.98C410.14,-46.02 449.96,-31.86 477.88,-21.92"/>
<polygon fill="#63b8ff" stroke="#63b8ff" points="479.33,-25.12 487.58,-18.47 476.99,-18.53 479.33,-25.12"/>
</a>
</g>
</g>
<!-- Node14 -->
<g id="Node000014" class="node">
<title>Node14</title>
<g id="a_Node000014"><a xlink:title=" ">
<polygon fill="#e0e0e0" stroke="#999999" points="397.5,-19 324.5,-19 324.5,0 397.5,0 397.5,-19"/>
<text text-anchor="middle" x="361" y="-7" font-family="Helvetica,sans-Serif" font-size="10.00">string_view</text>
</a>
</g>
</g>
<!-- Node13&#45;&gt;Node14 -->
<g id="edge16_Node000013_Node000014" class="edge">
<title>Node13&#45;&gt;Node14</title>
<g id="a_edge16_Node000013_Node000014"><a xlink:title=" ">
<path fill="none" stroke="#63b8ff" d="M361,-54.75C361,-47.8 361,-37.85 361,-29.13"/>
<polygon fill="#63b8ff" stroke="#63b8ff" points="364.5,-29.09 361,-19.09 357.5,-29.09 364.5,-29.09"/>
</a>
</g>
</g>
<!-- Node15&#45;&gt;Node5 -->
<g id="edge21_Node000015_Node000005" class="edge">
<title>Node15&#45;&gt;Node5</title>
<g id="a_edge21_Node000015_Node000005"><a xlink:title=" ">
<path fill="none" stroke="#63b8ff" d="M651.3,-54.98C665.1,-46.77 686.24,-34.18 702.51,-24.49"/>
<polygon fill="#63b8ff" stroke="#63b8ff" points="704.64,-27.29 711.44,-19.17 701.06,-21.28 704.64,-27.29"/>
</a>
</g>
</g>
<!-- Node16 -->
<g id="Node000016" class="node">
<title>Node16</title>
<g id="a_Node000016"><a xlink:title=" ">
<polygon fill="#e0e0e0" stroke="#999999" points="1071.5,-19 1018.5,-19 1018.5,0 1071.5,0 1071.5,-19"/>
<text text-anchor="middle" x="1045" y="-7" font-family="Helvetica,sans-Serif" font-size="10.00">cstddef</text>
</a>
</g>
</g>
<!-- Node15&#45;&gt;Node16 -->
<g id="edge20_Node000015_Node000016" class="edge">
<title>Node15&#45;&gt;Node16</title>
<g id="a_edge20_Node000015_Node000016"><a xlink:title=" ">
<path fill="none" stroke="#63b8ff" d="M697.64,-55.62C783.37,-44.49 937.38,-24.48 1007.91,-15.32"/>
<polygon fill="#63b8ff" stroke="#63b8ff" points="1008.62,-18.76 1018.09,-14 1007.72,-11.81 1008.62,-18.76"/>
</a>
</g>
</g>
<!-- Node17&#45;&gt;Node5 -->
<g id="edge30_Node000017_Node000005" class="edge">
<title>Node17&#45;&gt;Node5</title>
<g id="a_edge30_Node000017_Node000005"><a xlink:title=" ">
<path fill="none" stroke="#63b8ff" d="M915.53,-109.97C899.23,-94.79 871.43,-70.65 844,-55 819.37,-40.95 789.46,-29.73 765.92,-22.07"/>
<polygon fill="#63b8ff" stroke="#63b8ff" points="766.85,-18.69 756.26,-19 764.73,-25.36 766.85,-18.69"/>
</a>
</g>
</g>
<!-- Node17&#45;&gt;Node11 -->
<g id="edge23_Node000017_Node000011" class="edge">
<title>Node17&#45;&gt;Node11</title>
<g id="a_edge23_Node000017_Node000011"><a xlink:title=" ">
<path fill="none" stroke="#63b8ff" d="M905.79,-109.93C871.19,-89.81 811.64,-55.22 811,-55 717.07,-22.18 598.41,-13.57 542.26,-11.3"/>
<polygon fill="#63b8ff" stroke="#63b8ff" points="542.33,-7.81 532.21,-10.94 542.08,-14.8 542.33,-7.81"/>
</a>
</g>
</g>
<!-- Node17&#45;&gt;Node12 -->
<g id="edge24_Node000017_Node000012" class="edge">
<title>Node17&#45;&gt;Node12</title>
<g id="a_edge24_Node000017_Node000012"><a xlink:title=" ">
<path fill="none" stroke="#63b8ff" d="M893.59,-109.99C868.12,-100.18 834.41,-87.21 809.97,-77.81"/>
<polygon fill="#63b8ff" stroke="#63b8ff" points="811.04,-74.46 800.45,-74.14 808.52,-81 811.04,-74.46"/>
</a>
</g>
</g>
<!-- Node17&#45;&gt;Node13 -->
<g id="edge29_Node000017_Node000013" class="edge">
<title>Node17&#45;&gt;Node13</title>
<g id="a_edge29_Node000017_Node000013"><a xlink:title=" ">
<path fill="none" stroke="#63b8ff" d="M866.35,-115.65C850.87,-113.71 834.35,-111.71 819,-110 692.73,-95.91 546.59,-82.15 454,-73.75"/>
<polygon fill="#63b8ff" stroke="#63b8ff" points="454.09,-70.24 443.81,-72.83 453.46,-77.22 454.09,-70.24"/>
</a>
</g>
</g>
<!-- Node18 -->
<g id="Node000018" class="node">
<title>Node18</title>
<g id="a_Node000018"><a xlink:title=" ">
<polygon fill="#e0e0e0" stroke="#999999" points="1150.5,-74 1109.5,-74 1109.5,-55 1150.5,-55 1150.5,-74"/>
<text text-anchor="middle" x="1130" y="-62" font-family="Helvetica,sans-Serif" font-size="10.00">tuple</text>
</a>
</g>
</g>
<!-- Node17&#45;&gt;Node18 -->
<g id="edge25_Node000017_Node000018" class="edge">
<title>Node17&#45;&gt;Node18</title>
<g id="a_edge25_Node000017_Node000018"><a xlink:title=" ">
<path fill="none" stroke="#63b8ff" d="M977.91,-110C1009.99,-100.63 1053.41,-87.93 1099.78,-74.36"/>
<polygon fill="#63b8ff" stroke="#63b8ff" points="1100.79,-77.71 1109.41,-71.54 1098.82,-70.99 1100.79,-77.71"/>
</a>
</g>
</g>
<!-- Node19 -->
<g id="Node000019" class="node">
<title>Node19</title>
<g id="a_Node000019"><a xlink:title=" ">
<polygon fill="#e0e0e0" stroke="#999999" points="1016,-74 966,-74 966,-55 1016,-55 1016,-74"/>
<text text-anchor="middle" x="991" y="-62" font-family="Helvetica,sans-Serif" font-size="10.00">cstdint</text>
</a>
</g>
</g>
<!-- Node17&#45;&gt;Node19 -->
<g id="edge26_Node000017_Node000019" class="edge">
<title>Node17&#45;&gt;Node19</title>
<g id="a_edge26_Node000017_Node000019"><a xlink:title=" ">
<path fill="none" stroke="#63b8ff" d="M944.77,-109.84C953.71,-101.26 965.14,-90.3 974.4,-81.42"/>
<polygon fill="#63b8ff" stroke="#63b8ff" points="977.06,-83.71 981.86,-74.27 972.22,-78.66 977.06,-83.71"/>
</a>
</g>
</g>
<!-- Node20 -->
<g id="Node000020" class="node">
<title>Node20</title>
<g id="a_Node000020"><a xlink:title=" ">
<polygon fill="#e0e0e0" stroke="#999999" points="1091.5,-74 1034.5,-74 1034.5,-55 1091.5,-55 1091.5,-74"/>
<text text-anchor="middle" x="1063" y="-62" font-family="Helvetica,sans-Serif" font-size="10.00">ostream</text>
</a>
</g>
</g>
<!-- Node17&#45;&gt;Node20 -->
<g id="edge27_Node000017_Node000020" class="edge">
<title>Node17&#45;&gt;Node20</title>
<g id="a_edge27_Node000017_Node000020"><a xlink:title=" ">
<path fill="none" stroke="#63b8ff" d="M961.86,-109.99C983.85,-100.31 1012.85,-87.56 1034.16,-78.18"/>
<polygon fill="#63b8ff" stroke="#63b8ff" points="1035.61,-81.37 1043.36,-74.14 1032.8,-74.96 1035.61,-81.37"/>
</a>
</g>
</g>
<!-- Node21 -->
<g id="Node000021" class="node">
<title>Node21</title>
<g id="a_Node000021"><a xlink:title=" ">
<polygon fill="#e0e0e0" stroke="#999999" points="947.5,-74 896.5,-74 896.5,-55 947.5,-55 947.5,-74"/>
<text text-anchor="middle" x="922" y="-62" font-family="Helvetica,sans-Serif" font-size="10.00">variant</text>
</a>
</g>
</g>
<!-- Node17&#45;&gt;Node21 -->
<g id="edge28_Node000017_Node000021" class="edge">
<title>Node17&#45;&gt;Node21</title>
<g id="a_edge28_Node000017_Node000021"><a xlink:title=" ">
<path fill="none" stroke="#63b8ff" d="M928.06,-109.84C927.02,-102.21 925.72,-92.7 924.59,-84.45"/>
<polygon fill="#63b8ff" stroke="#63b8ff" points="928.02,-83.7 923.2,-74.27 921.09,-84.65 928.02,-83.7"/>
</a>
</g>
</g>
<!-- Node22&#45;&gt;Node5 -->
<g id="edge32_Node000022_Node000005" class="edge">
<title>Node22&#45;&gt;Node5</title>
<g id="a_edge32_Node000022_Node000005"><a xlink:title=" ">
<path fill="none" stroke="#63b8ff" d="M368.4,-109.94C414.22,-95.57 487.87,-72.9 552,-55 595.6,-42.83 645.7,-30.16 680.92,-21.46"/>
<polygon fill="#63b8ff" stroke="#63b8ff" points="682.01,-24.79 690.89,-19 680.34,-18 682.01,-24.79"/>
</a>
</g>
</g>
<!-- Node23 -->
<g id="Node000023" class="node">
<title>Node23</title>
<g id="a_Node000023"><a xlink:title=" ">
<polygon fill="#e0e0e0" stroke="#999999" points="156,-74 102,-74 102,-55 156,-55 156,-74"/>
<text text-anchor="middle" x="129" y="-62" font-family="Helvetica,sans-Serif" font-size="10.00">wchar.h</text>
</a>
</g>
</g>
<!-- Node22&#45;&gt;Node23 -->
<g id="edge33_Node000022_Node000023" class="edge">
<title>Node22&#45;&gt;Node23</title>
<g id="a_edge33_Node000022_Node000023"><a xlink:title=" ">
<path fill="none" stroke="#63b8ff" d="M277.29,-109.99C243.13,-99.74 197.43,-86.03 165.83,-76.55"/>
<polygon fill="#63b8ff" stroke="#63b8ff" points="166.69,-73.15 156.1,-73.63 164.67,-79.86 166.69,-73.15"/>
</a>
</g>
</g>
<!-- Node24 -->
<g id="Node000024" class="node">
<title>Node24</title>
<g id="a_Node000024"><a xlink:title=" ">
<polygon fill="#e0e0e0" stroke="#999999" points="221.5,-74 174.5,-74 174.5,-55 221.5,-55 221.5,-74"/>
<text text-anchor="middle" x="198" y="-62" font-family="Helvetica,sans-Serif" font-size="10.00">float.h</text>
</a>
</g>
</g>
<!-- Node22&#45;&gt;Node24 -->
<g id="edge34_Node000022_Node000024" class="edge">
<title>Node22&#45;&gt;Node24</title>
<g id="a_edge34_Node000022_Node000024"><a xlink:title=" ">
<path fill="none" stroke="#63b8ff" d="M293.82,-109.99C273.17,-100.4 246,-87.79 225.87,-78.44"/>
<polygon fill="#63b8ff" stroke="#63b8ff" points="227.15,-75.18 216.61,-74.14 224.2,-81.52 227.15,-75.18"/>
</a>
</g>
</g>
<!-- Node25&#45;&gt;Node4 -->
<g id="edge37_Node000025_Node000004" class="edge">
<title>Node25&#45;&gt;Node4</title>
<g id="a_edge37_Node000025_Node000004"><a xlink:title=" ">
<path fill="none" stroke="#63b8ff" d="M899.31,-230.98C866.83,-221.97 815.4,-207.7 779.59,-197.76"/>
<polygon fill="#63b8ff" stroke="#63b8ff" points="780.5,-194.38 769.93,-195.08 778.63,-201.13 780.5,-194.38"/>
</a>
</g>
</g>
<!-- Node25&#45;&gt;Node17 -->
<g id="edge36_Node000025_Node000017" class="edge">
<title>Node25&#45;&gt;Node17</title>
<g id="a_edge36_Node000025_Node000017"><a xlink:title=" ">
<path fill="none" stroke="#63b8ff" d="M930,-230.97C930,-214.08 930,-175.85 930,-150.48"/>
<polygon fill="#63b8ff" stroke="#63b8ff" points="933.5,-150.18 930,-140.18 926.5,-150.18 933.5,-150.18"/>
</a>
</g>
</g>
<!-- Node26 -->
<g id="Node000026" class="node">
<title>Node26</title>
<g id="a_Node000026"><a xlink:href="arg_8h.html" target="_top" xlink:title=" ">
<polygon fill="white" stroke="#666666" points="888.5,-195 847.5,-195 847.5,-176 888.5,-176 888.5,-195"/>
<text text-anchor="middle" x="868" y="-183" font-family="Helvetica,sans-Serif" font-size="10.00">arg.h</text>
</a>
</g>
</g>
<!-- Node25&#45;&gt;Node26 -->
<g id="edge38_Node000025_Node000026" class="edge">
<title>Node25&#45;&gt;Node26</title>
<g id="a_edge38_Node000025_Node000026"><a xlink:title=" ">
<path fill="none" stroke="#63b8ff" d="M920.04,-230.98C910.87,-223.15 897.06,-211.34 885.97,-201.86"/>
<polygon fill="#63b8ff" stroke="#63b8ff" points="888.02,-199.01 878.14,-195.17 883.47,-204.33 888.02,-199.01"/>
</a>
</g>
</g>
<!-- Node27 -->
<g id="Node000027" class="node">
<title>Node27</title>
<g id="a_Node000027"><a xlink:href="trait_8h.html" target="_top" xlink:title=" ">
<polygon fill="white" stroke="#666666" points="1291,-74 1245,-74 1245,-55 1291,-55 1291,-74"/>
<text text-anchor="middle" x="1268" y="-62" font-family="Helvetica,sans-Serif" font-size="10.00">trait.h</text>
</a>
</g>
</g>
<!-- Node25&#45;&gt;Node27 -->
<g id="edge42_Node000025_Node000027" class="edge">
<title>Node25&#45;&gt;Node27</title>
<g id="a_edge42_Node000025_Node000027"><a xlink:title=" ">
<path fill="none" stroke="#63b8ff" d="M978.16,-236.73C1046.44,-231.97 1167,-220.19 1202,-195 1239.61,-167.93 1257.22,-113.07 1264.17,-84.21"/>
<polygon fill="#63b8ff" stroke="#63b8ff" points="1267.64,-84.74 1266.4,-74.22 1260.81,-83.22 1267.64,-84.74"/>
</a>
</g>
</g>
<!-- Node28 -->
<g id="Node000028" class="node">
<title>Node28</title>
<g id="a_Node000028"><a xlink:href="func__trait_8h.html" target="_top" xlink:title=" ">
<polygon fill="white" stroke="#666666" points="1053,-195 981,-195 981,-176 1053,-176 1053,-195"/>
<text text-anchor="middle" x="1017" y="-183" font-family="Helvetica,sans-Serif" font-size="10.00">func_trait.h</text>
</a>
</g>
</g>
<!-- Node25&#45;&gt;Node28 -->
<g id="edge45_Node000025_Node000028" class="edge">
<title>Node25&#45;&gt;Node28</title>
<g id="a_edge45_Node000025_Node000028"><a xlink:title=" ">
<path fill="none" stroke="#63b8ff" d="M943.98,-230.98C957.47,-222.77 978.13,-210.18 994.04,-200.49"/>
<polygon fill="#63b8ff" stroke="#63b8ff" points="996.05,-203.36 1002.77,-195.17 992.41,-197.38 996.05,-203.36"/>
</a>
</g>
</g>
<!-- Node29 -->
<g id="Node000029" class="node">
<title>Node29</title>
<g id="a_Node000029"><a xlink:href="exception_8h.html" target="_top" xlink:title=" ">
<polygon fill="white" stroke="#666666" points="1193,-195 1119,-195 1119,-176 1193,-176 1193,-195"/>
<text text-anchor="middle" x="1156" y="-183" font-family="Helvetica,sans-Serif" font-size="10.00">exception.h</text>
</a>
</g>
</g>
<!-- Node25&#45;&gt;Node29 -->
<g id="edge49_Node000025_Node000029" class="edge">
<title>Node25&#45;&gt;Node29</title>
<g id="a_edge49_Node000025_Node000029"><a xlink:title=" ">
<path fill="none" stroke="#63b8ff" d="M966.31,-230.98C1005.24,-221.86 1067.16,-207.33 1109.6,-197.38"/>
<polygon fill="#63b8ff" stroke="#63b8ff" points="1110.47,-200.77 1119.4,-195.08 1108.87,-193.96 1110.47,-200.77"/>
</a>
</g>
</g>
<!-- Node26&#45;&gt;Node6 -->
<g id="edge40_Node000026_Node000006" class="edge">
<title>Node26&#45;&gt;Node6</title>
<g id="a_edge40_Node000026_Node000006"><a xlink:title=" ">
<path fill="none" stroke="#63b8ff" d="M855.31,-175.87C841.59,-166.54 819.5,-151.51 803.15,-140.38"/>
<polygon fill="#63b8ff" stroke="#63b8ff" points="804.98,-137.4 794.74,-134.67 801.04,-143.19 804.98,-137.4"/>
</a>
</g>
</g>
<!-- Node26&#45;&gt;Node12 -->
<g id="edge39_Node000026_Node000012" class="edge">
<title>Node26&#45;&gt;Node12</title>
<g id="a_edge39_Node000026_Node000012"><a xlink:title=" ">
<path fill="none" stroke="#63b8ff" d="M862.99,-175.93C854.56,-161.74 836.73,-132.69 819,-110 811.34,-100.19 801.98,-89.93 794.15,-81.73"/>
<polygon fill="#63b8ff" stroke="#63b8ff" points="796.42,-79.05 786.93,-74.32 791.4,-83.93 796.42,-79.05"/>
</a>
</g>
</g>
<!-- Node26&#45;&gt;Node17 -->
<g id="edge41_Node000026_Node000017" class="edge">
<title>Node26&#45;&gt;Node17</title>
<g id="a_edge41_Node000026_Node000017"><a xlink:title=" ">
<path fill="none" stroke="#63b8ff" d="M877.15,-175.87C885.17,-168.3 897.17,-156.98 907.7,-147.04"/>
<polygon fill="#63b8ff" stroke="#63b8ff" points="910.17,-149.52 915.04,-140.11 905.37,-144.43 910.17,-149.52"/>
</a>
</g>
</g>
<!-- Node27&#45;&gt;Node5 -->
<g id="edge44_Node000027_Node000005" class="edge">
<title>Node27&#45;&gt;Node5</title>
<g id="a_edge44_Node000027_Node000005"><a xlink:title=" ">
<path fill="none" stroke="#63b8ff" d="M1244.61,-57.61C1240.11,-56.63 1235.43,-55.7 1231,-55 1072.89,-30 884.55,-18.06 788.73,-13.24"/>
<polygon fill="#63b8ff" stroke="#63b8ff" points="788.8,-9.74 778.63,-12.74 788.45,-16.73 788.8,-9.74"/>
</a>
</g>
</g>
<!-- Node27&#45;&gt;Node16 -->
<g id="edge43_Node000027_Node000016" class="edge">
<title>Node27&#45;&gt;Node16</title>
<g id="a_edge43_Node000027_Node000016"><a xlink:title=" ">
<path fill="none" stroke="#63b8ff" d="M1244.98,-58.03C1206.28,-48.83 1127.92,-30.21 1081.61,-19.2"/>
<polygon fill="#63b8ff" stroke="#63b8ff" points="1082.22,-15.75 1071.68,-16.84 1080.6,-22.56 1082.22,-15.75"/>
</a>
</g>
</g>
<!-- Node28&#45;&gt;Node5 -->
<g id="edge48_Node000028_Node000005" class="edge">
<title>Node28&#45;&gt;Node5</title>
<g id="a_edge48_Node000028_Node000005"><a xlink:title=" ">
<path fill="none" stroke="#63b8ff" d="M1030.31,-175.9C1043.48,-167.23 1064.07,-153.28 1081,-140 1096.85,-127.56 1099.57,-122.97 1115,-110 1134.61,-93.52 1148.9,-97.08 1160,-74 1163.66,-66.39 1165.66,-61.27 1160,-55 1135.61,-27.98 903.21,-16.45 788.89,-12.38"/>
<polygon fill="#63b8ff" stroke="#63b8ff" points="788.98,-8.88 778.87,-12.03 788.74,-15.88 788.98,-8.88"/>
</a>
</g>
</g>
<!-- Node28&#45;&gt;Node17 -->
<g id="edge46_Node000028_Node000017" class="edge">
<title>Node28&#45;&gt;Node17</title>
<g id="a_edge46_Node000028_Node000017"><a xlink:title=" ">
<path fill="none" stroke="#63b8ff" d="M1004.16,-175.87C992.47,-168 974.75,-156.09 959.57,-145.89"/>
<polygon fill="#63b8ff" stroke="#63b8ff" points="961.24,-142.79 950.99,-140.11 957.34,-148.6 961.24,-142.79"/>
</a>
</g>
</g>
<!-- Node28&#45;&gt;Node18 -->
<g id="edge47_Node000028_Node000018" class="edge">
<title>Node28&#45;&gt;Node18</title>
<g id="a_edge47_Node000028_Node000018"><a xlink:title=" ">
<path fill="none" stroke="#63b8ff" d="M1023.78,-175.93C1035.12,-161.76 1058.89,-132.73 1081,-110 1090.92,-99.81 1102.7,-89.07 1112.22,-80.7"/>
<polygon fill="#63b8ff" stroke="#63b8ff" points="1114.65,-83.22 1119.9,-74.02 1110.06,-77.94 1114.65,-83.22"/>
</a>
</g>
</g>
<!-- Node29&#45;&gt;Node5 -->
<g id="edge50_Node000029_Node000005" class="edge">
<title>Node29&#45;&gt;Node5</title>
<g id="a_edge50_Node000029_Node000005"><a xlink:title=" ">
<path fill="none" stroke="#63b8ff" d="M1168.21,-175.86C1178.35,-167.88 1192.04,-155.01 1198,-140 1212.45,-103.63 1206.47,-78.27 1175,-55 1144.62,-32.54 905.02,-18.66 788.8,-13.18"/>
<polygon fill="#63b8ff" stroke="#63b8ff" points="788.78,-9.68 778.63,-12.71 788.45,-16.67 788.78,-9.68"/>
</a>
</g>
</g>
<!-- Node29&#45;&gt;Node9 -->
<g id="edge51_Node000029_Node000009" class="edge">
<title>Node29&#45;&gt;Node9</title>
<g id="a_edge51_Node000029_Node000009"><a xlink:title=" ">
<path fill="none" stroke="#63b8ff" d="M1156,-175.87C1156,-167.75 1156,-155.31 1156,-144.89"/>
<polygon fill="#63b8ff" stroke="#63b8ff" points="1159.5,-144.67 1156,-134.67 1152.5,-144.67 1159.5,-144.67"/>
</a>
</g>
</g>
</g>
</svg>
