<?xml version="1.0" encoding="UTF-8" standalone="no"?>
<!DOCTYPE svg PUBLIC "-//W3C//DTD SVG 1.1//EN"
 "http://www.w3.org/Graphics/SVG/1.1/DTD/svg11.dtd">
<!-- Generated by graphviz version 2.43.0 (0)
 -->
<!-- Title: include/webcface/func_result.h Pages: 1 -->
<svg width="1024pt" height="269pt"
 viewBox="0.00 0.00 1024.30 269.00" xmlns="http://www.w3.org/2000/svg" xmlns:xlink="http://www.w3.org/1999/xlink">
<g id="graph0" class="graph" transform="scale(1 1) rotate(0) translate(4 265)">
<title>include/webcface/func_result.h</title>
<!-- Node1 -->
<g id="Node000001" class="node">
<title>Node1</title>
<g id="a_Node000001"><a xlink:title=" ">
<polygon fill="#999999" stroke="#666666" points="804.34,-261 679.34,-261 679.34,-231 804.34,-231 804.34,-261"/>
<text text-anchor="start" x="687.34" y="-249" font-family="Helvetica,sans-Serif" font-size="10.00">include/webcface/func</text>
<text text-anchor="middle" x="741.84" y="-238" font-family="Helvetica,sans-Serif" font-size="10.00">_result.h</text>
</a>
</g>
</g>
<!-- Node2 -->
<g id="Node000002" class="node">
<title>Node2</title>
<g id="a_Node000002"><a xlink:href="client__data_8h.html" target="_top" xlink:title=" ">
<polygon fill="white" stroke="#666666" points="532.34,-195 401.34,-195 401.34,-165 532.34,-165 532.34,-195"/>
<text text-anchor="start" x="409.34" y="-183" font-family="Helvetica,sans-Serif" font-size="10.00">include/webcface/client</text>
<text text-anchor="middle" x="466.84" y="-172" font-family="Helvetica,sans-Serif" font-size="10.00">_data.h</text>
</a>
</g>
</g>
<!-- Node1&#45;&gt;Node2 -->
<g id="edge1_Node000001_Node000002" class="edge">
<title>Node1&#45;&gt;Node2</title>
<g id="a_edge1_Node000001_Node000002"><a xlink:title=" ">
<path fill="none" stroke="#63b8ff" d="M671.58,-228.65C626.9,-218.25 569.65,-204.93 527.05,-195.01"/>
<polygon fill="#63b8ff" stroke="#63b8ff" points="670.96,-232.1 681.49,-230.95 672.54,-225.28 670.96,-232.1"/>
</a>
</g>
</g>
<!-- Node10 -->
<g id="Node000010" class="node">
<title>Node10</title>
<g id="a_Node000010"><a xlink:href="webcface_8h.html" target="_top" xlink:title=" ">
<polygon fill="white" stroke="#666666" points="678.84,-19 518.84,-19 518.84,0 678.84,0 678.84,-19"/>
<text text-anchor="middle" x="598.84" y="-7" font-family="Helvetica,sans-Serif" font-size="10.00">include/webcface/webcface.h</text>
</a>
</g>
</g>
<!-- Node1&#45;&gt;Node10 -->
<g id="edge35_Node000001_Node000010" class="edge">
<title>Node1&#45;&gt;Node10</title>
<g id="a_edge35_Node000001_Node000010"><a xlink:title=" ">
<path fill="none" stroke="#63b8ff" d="M802.97,-227.96C899.44,-198.21 1069.25,-132.54 999.84,-55 978.88,-31.58 790.16,-19.12 679.25,-13.77"/>
<polygon fill="#63b8ff" stroke="#63b8ff" points="801.85,-224.64 793.3,-230.9 803.89,-231.34 801.85,-224.64"/>
</a>
</g>
</g>
<!-- Node11 -->
<g id="Node000011" class="node">
<title>Node11</title>
<g id="a_Node000011"><a xlink:href="func_8h.html" target="_top" xlink:title=" ">
<polygon fill="white" stroke="#666666" points="808.84,-129 674.84,-129 674.84,-110 808.84,-110 808.84,-129"/>
<text text-anchor="middle" x="741.84" y="-117" font-family="Helvetica,sans-Serif" font-size="10.00">include/webcface/func.h</text>
</a>
</g>
</g>
<!-- Node1&#45;&gt;Node11 -->
<g id="edge34_Node000001_Node000011" class="edge">
<title>Node1&#45;&gt;Node11</title>
<g id="a_edge34_Node000001_Node000011"><a xlink:title=" ">
<path fill="none" stroke="#63b8ff" d="M741.84,-220.48C741.84,-192.34 741.84,-147.67 741.84,-129.07"/>
<polygon fill="#63b8ff" stroke="#63b8ff" points="738.34,-220.72 741.84,-230.72 745.34,-220.72 738.34,-220.72"/>
</a>
</g>
</g>
<!-- Node3 -->
<g id="Node000003" class="node">
<title>Node3</title>
<g id="a_Node000003"><a xlink:href="client__data_8cc.html" target="_top" xlink:title=" ">
<polygon fill="white" stroke="#666666" points="372.84,-129 258.84,-129 258.84,-110 372.84,-110 372.84,-129"/>
<text text-anchor="middle" x="315.84" y="-117" font-family="Helvetica,sans-Serif" font-size="10.00">client/client_data.cc</text>
</a>
</g>
</g>
<!-- Node2&#45;&gt;Node3 -->
<g id="edge2_Node000002_Node000003" class="edge">
<title>Node2&#45;&gt;Node3</title>
<g id="a_edge2_Node000002_Node000003"><a xlink:title=" ">
<path fill="none" stroke="#63b8ff" d="M421.24,-161.33C393.74,-150.68 359.93,-137.58 338.14,-129.14"/>
<polygon fill="#63b8ff" stroke="#63b8ff" points="420.08,-164.64 430.67,-164.99 422.61,-158.11 420.08,-164.64"/>
</a>
</g>
</g>
<!-- Node4 -->
<g id="Node000004" class="node">
<title>Node4</title>
<g id="a_Node000004"><a xlink:href="field_8cc.html" target="_top" xlink:title=" ">
<polygon fill="white" stroke="#666666" points="472.34,-129 391.34,-129 391.34,-110 472.34,-110 472.34,-129"/>
<text text-anchor="middle" x="431.84" y="-117" font-family="Helvetica,sans-Serif" font-size="10.00">client/field.cc</text>
</a>
</g>
</g>
<!-- Node2&#45;&gt;Node4 -->
<g id="edge3_Node000002_Node000004" class="edge">
<title>Node2&#45;&gt;Node4</title>
<g id="a_edge3_Node000002_Node000004"><a xlink:title=" ">
<path fill="none" stroke="#63b8ff" d="M453.21,-156.22C447.56,-146.78 441.35,-136.39 437.09,-129.27"/>
<polygon fill="#63b8ff" stroke="#63b8ff" points="450.23,-158.05 458.37,-164.84 456.24,-154.46 450.23,-158.05"/>
</a>
</g>
</g>
<!-- Node5 -->
<g id="Node000005" class="node">
<title>Node5</title>
<g id="a_Node000005"><a xlink:href="logger_8cc.html" target="_top" xlink:title=" ">
<polygon fill="white" stroke="#666666" points="618.84,-129 528.84,-129 528.84,-110 618.84,-110 618.84,-129"/>
<text text-anchor="middle" x="573.84" y="-117" font-family="Helvetica,sans-Serif" font-size="10.00">client/logger.cc</text>
</a>
</g>
</g>
<!-- Node2&#45;&gt;Node5 -->
<g id="edge4_Node000002_Node000005" class="edge">
<title>Node2&#45;&gt;Node5</title>
<g id="a_edge4_Node000002_Node000005"><a xlink:title=" ">
<path fill="none" stroke="#63b8ff" d="M501.47,-160.07C520.51,-149.66 543.21,-137.25 558.04,-129.14"/>
<polygon fill="#63b8ff" stroke="#63b8ff" points="499.57,-157.12 492.47,-164.99 502.92,-163.26 499.57,-157.12"/>
</a>
</g>
</g>
<!-- Node6 -->
<g id="Node000006" class="node">
<title>Node6</title>
<g id="a_Node000006"><a xlink:href="member_8cc.html" target="_top" xlink:title=" ">
<polygon fill="white" stroke="#666666" points="216.34,-19 115.34,-19 115.34,0 216.34,0 216.34,-19"/>
<text text-anchor="middle" x="165.84" y="-7" font-family="Helvetica,sans-Serif" font-size="10.00">client/member.cc</text>
</a>
</g>
</g>
<!-- Node2&#45;&gt;Node6 -->
<g id="edge5_Node000002_Node000006" class="edge">
<title>Node2&#45;&gt;Node6</title>
<g id="a_edge5_Node000002_Node000006"><a xlink:title=" ">
<path fill="none" stroke="#63b8ff" d="M390.83,-173.39C272.1,-162.81 51.55,-135.23 6.84,-74 -23.17,-32.89 58.12,-18.36 115.23,-13.25"/>
<polygon fill="#63b8ff" stroke="#63b8ff" points="390.68,-176.89 400.95,-174.27 391.29,-169.92 390.68,-176.89"/>
</a>
</g>
</g>
<!-- Node7 -->
<g id="Node000007" class="node">
<title>Node7</title>
<g id="a_Node000007"><a xlink:href="client_8h.html" target="_top" xlink:title=" ">
<polygon fill="white" stroke="#666666" points="990.84,-74 850.84,-74 850.84,-55 990.84,-55 990.84,-74"/>
<text text-anchor="middle" x="920.84" y="-62" font-family="Helvetica,sans-Serif" font-size="10.00">include/webcface/client.h</text>
</a>
</g>
</g>
<!-- Node2&#45;&gt;Node7 -->
<g id="edge6_Node000002_Node000007" class="edge">
<title>Node2&#45;&gt;Node7</title>
<g id="a_edge6_Node000002_Node000007"><a xlink:title=" ">
<path fill="none" stroke="#63b8ff" d="M542.91,-177.1C615.5,-173.23 726.95,-161.87 817.84,-129 854.59,-115.71 892.31,-88.21 910.19,-74.17"/>
<polygon fill="#63b8ff" stroke="#63b8ff" points="542.3,-173.62 532.49,-177.62 542.65,-180.61 542.3,-173.62"/>
</a>
</g>
</g>
<!-- Node2&#45;&gt;Node10 -->
<g id="edge33_Node000002_Node000010" class="edge">
<title>Node2&#45;&gt;Node10</title>
<g id="a_edge33_Node000002_Node000010"><a xlink:title=" ">
<path fill="none" stroke="#63b8ff" d="M542.86,-174.59C574.41,-168.55 608.18,-155.69 627.84,-129 647.35,-102.52 637.21,-86.53 627.84,-55 623.74,-41.21 613.87,-27.7 606.78,-19.25"/>
<polygon fill="#63b8ff" stroke="#63b8ff" points="541.99,-171.19 532.72,-176.32 543.16,-178.09 541.99,-171.19"/>
</a>
</g>
</g>
<!-- Node2&#45;&gt;Node11 -->
<g id="edge10_Node000002_Node000011" class="edge">
<title>Node2&#45;&gt;Node11</title>
<g id="a_edge10_Node000002_Node000011"><a xlink:title=" ">
<path fill="none" stroke="#63b8ff" d="M542.44,-162.92C593.86,-151.98 659.87,-137.94 701.53,-129.08"/>
<polygon fill="#63b8ff" stroke="#63b8ff" points="541.41,-159.56 532.36,-165.06 542.87,-166.4 541.41,-159.56"/>
</a>
</g>
</g>
<!-- Node13 -->
<g id="Node000013" class="node">
<title>Node13</title>
<g id="a_Node000013"><a xlink:href="view_8h.html" target="_top" xlink:title=" ">
<polygon fill="white" stroke="#666666" points="618.84,-74 482.84,-74 482.84,-55 618.84,-55 618.84,-74"/>
<text text-anchor="middle" x="550.84" y="-62" font-family="Helvetica,sans-Serif" font-size="10.00">include/webcface/view.h</text>
</a>
</g>
</g>
<!-- Node2&#45;&gt;Node13 -->
<g id="edge32_Node000002_Node000013" class="edge">
<title>Node2&#45;&gt;Node13</title>
<g id="a_edge32_Node000002_Node000013"><a xlink:title=" ">
<path fill="none" stroke="#63b8ff" d="M483.6,-156.36C502.26,-131.14 531.5,-91.63 544.38,-74.23"/>
<polygon fill="#63b8ff" stroke="#63b8ff" points="480.62,-154.5 477.48,-164.63 486.24,-158.67 480.62,-154.5"/>
</a>
</g>
</g>
<!-- Node14 -->
<g id="Node000014" class="node">
<title>Node14</title>
<g id="a_Node000014"><a xlink:href="log_8h.html" target="_top" xlink:title=" ">
<polygon fill="white" stroke="#666666" points="154.84,-74 26.84,-74 26.84,-55 154.84,-55 154.84,-74"/>
<text text-anchor="middle" x="90.84" y="-62" font-family="Helvetica,sans-Serif" font-size="10.00">include/webcface/log.h</text>
</a>
</g>
</g>
<!-- Node2&#45;&gt;Node14 -->
<g id="edge20_Node000002_Node000014" class="edge">
<title>Node2&#45;&gt;Node14</title>
<g id="a_edge20_Node000002_Node000014"><a xlink:title=" ">
<path fill="none" stroke="#63b8ff" d="M391.28,-167.59C343.91,-159.34 281.99,-146.56 228.84,-129 182.77,-113.77 131.63,-87.63 106.51,-74.13"/>
<polygon fill="#63b8ff" stroke="#63b8ff" points="390.71,-171.04 401.15,-169.28 391.89,-164.14 390.71,-171.04"/>
</a>
</g>
</g>
<!-- Node15 -->
<g id="Node000015" class="node">
<title>Node15</title>
<g id="a_Node000015"><a xlink:href="text_8h.html" target="_top" xlink:title=" ">
<polygon fill="white" stroke="#666666" points="306.34,-74 173.34,-74 173.34,-55 306.34,-55 306.34,-74"/>
<text text-anchor="middle" x="239.84" y="-62" font-family="Helvetica,sans-Serif" font-size="10.00">include/webcface/text.h</text>
</a>
</g>
</g>
<!-- Node2&#45;&gt;Node15 -->
<g id="edge24_Node000002_Node000015" class="edge">
<title>Node2&#45;&gt;Node15</title>
<g id="a_edge24_Node000002_Node000015"><a xlink:title=" ">
<path fill="none" stroke="#63b8ff" d="M391.32,-172.43C332.84,-165.59 258.72,-152.49 239.84,-129 227.27,-113.36 232.57,-87.86 236.69,-74.43"/>
<polygon fill="#63b8ff" stroke="#63b8ff" points="390.96,-175.91 401.29,-173.55 391.75,-168.95 390.96,-175.91"/>
</a>
</g>
</g>
<!-- Node16 -->
<g id="Node000016" class="node">
<title>Node16</title>
<g id="a_Node000016"><a xlink:href="value_8h.html" target="_top" xlink:title=" ">
<polygon fill="white" stroke="#666666" points="464.84,-74 324.84,-74 324.84,-55 464.84,-55 464.84,-74"/>
<text text-anchor="middle" x="394.84" y="-62" font-family="Helvetica,sans-Serif" font-size="10.00">include/webcface/value.h</text>
</a>
</g>
</g>
<!-- Node2&#45;&gt;Node16 -->
<g id="edge28_Node000002_Node000016" class="edge">
<title>Node2&#45;&gt;Node16</title>
<g id="a_edge28_Node000002_Node000016"><a xlink:title=" ">
<path fill="none" stroke="#63b8ff" d="M390.99,-171.49C335.67,-164.27 267.43,-151.11 249.84,-129 224.69,-97.39 276.23,-81.14 324.68,-73.04"/>
<polygon fill="#63b8ff" stroke="#63b8ff" points="390.79,-175 401.15,-172.77 391.66,-168.05 390.79,-175"/>
</a>
</g>
</g>
<!-- Node8 -->
<g id="Node000008" class="node">
<title>Node8</title>
<g id="a_Node000008"><a xlink:href="client_8cc.html" target="_top" xlink:title=" ">
<polygon fill="white" stroke="#666666" points="469.34,-19 382.34,-19 382.34,0 469.34,0 469.34,-19"/>
<text text-anchor="middle" x="425.84" y="-7" font-family="Helvetica,sans-Serif" font-size="10.00">client/client.cc</text>
</a>
</g>
</g>
<!-- Node7&#45;&gt;Node8 -->
<g id="edge7_Node000007_Node000008" class="edge">
<title>Node7&#45;&gt;Node8</title>
<g id="a_edge7_Node000007_Node000008"><a xlink:title=" ">
<path fill="none" stroke="#63b8ff" d="M840.73,-54.92C735.1,-43.61 552.92,-24.11 469.66,-15.19"/>
<polygon fill="#63b8ff" stroke="#63b8ff" points="840.39,-58.41 850.71,-55.99 841.14,-51.45 840.39,-58.41"/>
</a>
</g>
</g>
<!-- Node9 -->
<g id="Node000009" class="node">
<title>Node9</title>
<g id="a_Node000009"><a xlink:href="client__ws_8cc.html" target="_top" xlink:title=" ">
<polygon fill="white" stroke="#666666" points="973.84,-19 867.84,-19 867.84,0 973.84,0 973.84,-19"/>
<text text-anchor="middle" x="920.84" y="-7" font-family="Helvetica,sans-Serif" font-size="10.00">client/client_ws.cc</text>
</a>
</g>
</g>
<!-- Node7&#45;&gt;Node9 -->
<g id="edge8_Node000007_Node000009" class="edge">
<title>Node7&#45;&gt;Node9</title>
<g id="a_edge8_Node000007_Node000009"><a xlink:title=" ">
<path fill="none" stroke="#63b8ff" d="M920.84,-44.66C920.84,-35.93 920.84,-25.99 920.84,-19.09"/>
<polygon fill="#63b8ff" stroke="#63b8ff" points="917.34,-44.75 920.84,-54.75 924.34,-44.75 917.34,-44.75"/>
</a>
</g>
</g>
<!-- Node7&#45;&gt;Node10 -->
<g id="edge9_Node000007_Node000010" class="edge">
<title>Node7&#45;&gt;Node10</title>
<g id="a_edge9_Node000007_Node000010"><a xlink:title=" ">
<path fill="none" stroke="#63b8ff" d="M858.93,-53.31C798.47,-43.36 707.49,-28.38 650.71,-19.04"/>
<polygon fill="#63b8ff" stroke="#63b8ff" points="858.67,-56.81 869.11,-54.98 859.81,-49.91 858.67,-56.81"/>
</a>
</g>
</g>
<!-- Node11&#45;&gt;Node6 -->
<g id="edge13_Node000011_Node000006" class="edge">
<title>Node11&#45;&gt;Node6</title>
<g id="a_edge13_Node000011_Node000006"><a xlink:title=" ">
<path fill="none" stroke="#63b8ff" d="M664.44,-112.57C652.2,-111.68 639.68,-110.79 627.84,-110 560.1,-105.48 64.42,-123.4 17.84,-74 -14.57,-39.62 60.31,-22.96 114.95,-15.6"/>
<polygon fill="#63b8ff" stroke="#63b8ff" points="664.41,-116.07 674.64,-113.32 664.92,-109.09 664.41,-116.07"/>
</a>
</g>
</g>
<!-- Node11&#45;&gt;Node7 -->
<g id="edge14_Node000011_Node000007" class="edge">
<title>Node11&#45;&gt;Node7</title>
<g id="a_edge14_Node000011_Node000007"><a xlink:title=" ">
<path fill="none" stroke="#63b8ff" d="M780.49,-107.06C813.95,-97.15 861.59,-83.04 891.86,-74.08"/>
<polygon fill="#63b8ff" stroke="#63b8ff" points="779.2,-103.79 770.6,-109.98 781.18,-110.5 779.2,-103.79"/>
</a>
</g>
</g>
<!-- Node11&#45;&gt;Node8 -->
<g id="edge11_Node000011_Node000008" class="edge">
<title>Node11&#45;&gt;Node8</title>
<g id="a_edge11_Node000011_Node000008"><a xlink:title=" ">
<path fill="none" stroke="#63b8ff" d="M720.85,-104.33C698.64,-89.95 662.13,-68.01 627.84,-55 575.13,-35.01 511.09,-22.8 469.45,-16.35"/>
<polygon fill="#63b8ff" stroke="#63b8ff" points="719.16,-107.42 729.44,-109.99 723.01,-101.57 719.16,-107.42"/>
</a>
</g>
</g>
<!-- Node11&#45;&gt;Node10 -->
<g id="edge19_Node000011_Node000010" class="edge">
<title>Node11&#45;&gt;Node10</title>
<g id="a_edge19_Node000011_Node000010"><a xlink:title=" ">
<path fill="none" stroke="#63b8ff" d="M733.42,-100.9C725.97,-86.91 713.96,-67.66 698.84,-55 678.44,-37.92 650.45,-26.21 629.27,-19.11"/>
<polygon fill="#63b8ff" stroke="#63b8ff" points="730.37,-102.64 738.01,-109.99 736.62,-99.49 730.37,-102.64"/>
</a>
</g>
</g>
<!-- Node12 -->
<g id="Node000012" class="node">
<title>Node12</title>
<g id="a_Node000012"><a xlink:href="func_8cc.html" target="_top" xlink:title=" ">
<polygon fill="white" stroke="#666666" points="832.34,-74 751.34,-74 751.34,-55 832.34,-55 832.34,-74"/>
<text text-anchor="middle" x="791.84" y="-62" font-family="Helvetica,sans-Serif" font-size="10.00">client/func.cc</text>
</a>
</g>
</g>
<!-- Node11&#45;&gt;Node12 -->
<g id="edge12_Node000011_Node000012" class="edge">
<title>Node11&#45;&gt;Node12</title>
<g id="a_edge12_Node000011_Node000012"><a xlink:title=" ">
<path fill="none" stroke="#63b8ff" d="M757.18,-102.24C765.95,-92.95 776.58,-81.68 783.74,-74.09"/>
<polygon fill="#63b8ff" stroke="#63b8ff" points="754.41,-100.07 750.1,-109.75 759.51,-104.88 754.41,-100.07"/>
</a>
</g>
</g>
<!-- Node11&#45;&gt;Node13 -->
<g id="edge15_Node000011_Node000013" class="edge">
<title>Node11&#45;&gt;Node13</title>
<g id="a_edge15_Node000011_Node000013"><a xlink:title=" ">
<path fill="none" stroke="#63b8ff" d="M701.06,-107.18C665.34,-97.27 614.21,-83.08 581.77,-74.08"/>
<polygon fill="#63b8ff" stroke="#63b8ff" points="700.58,-110.68 711.15,-109.98 702.45,-103.94 700.58,-110.68"/>
</a>
</g>
</g>
<!-- Node13&#45;&gt;Node6 -->
<g id="edge17_Node000013_Node000006" class="edge">
<title>Node13&#45;&gt;Node6</title>
<g id="a_edge17_Node000013_Node000006"><a xlink:title=" ">
<path fill="none" stroke="#63b8ff" d="M478.96,-53.6C402.53,-43.08 283.63,-26.72 216.48,-17.47"/>
<polygon fill="#63b8ff" stroke="#63b8ff" points="478.6,-57.09 488.98,-54.98 479.56,-50.15 478.6,-57.09"/>
</a>
</g>
</g>
<!-- Node13&#45;&gt;Node8 -->
<g id="edge16_Node000013_Node000008" class="edge">
<title>Node13&#45;&gt;Node8</title>
<g id="a_edge16_Node000013_Node000008"><a xlink:title=" ">
<path fill="none" stroke="#63b8ff" d="M521.43,-51.03C498.31,-41.23 466.71,-27.83 446.29,-19.17"/>
<polygon fill="#63b8ff" stroke="#63b8ff" points="520.18,-54.3 530.76,-54.98 522.92,-47.86 520.18,-54.3"/>
</a>
</g>
</g>
<!-- Node13&#45;&gt;Node10 -->
<g id="edge18_Node000013_Node000010" class="edge">
<title>Node13&#45;&gt;Node10</title>
<g id="a_edge18_Node000013_Node000010"><a xlink:title=" ">
<path fill="none" stroke="#63b8ff" d="M565.57,-47.24C573.98,-37.95 584.19,-26.68 591.06,-19.09"/>
<polygon fill="#63b8ff" stroke="#63b8ff" points="562.89,-44.99 558.77,-54.75 568.07,-49.69 562.89,-44.99"/>
</a>
</g>
</g>
<!-- Node14&#45;&gt;Node6 -->
<g id="edge22_Node000014_Node000006" class="edge">
<title>Node14&#45;&gt;Node6</title>
<g id="a_edge22_Node000014_Node000006"><a xlink:title=" ">
<path fill="none" stroke="#63b8ff" d="M111.15,-49.15C124.7,-39.57 142.08,-27.29 153.57,-19.17"/>
<polygon fill="#63b8ff" stroke="#63b8ff" points="109.04,-46.36 102.89,-54.98 113.08,-52.07 109.04,-46.36"/>
</a>
</g>
</g>
<!-- Node14&#45;&gt;Node8 -->
<g id="edge21_Node000014_Node000008" class="edge">
<title>Node14&#45;&gt;Node8</title>
<g id="a_edge21_Node000014_Node000008"><a xlink:title=" ">
<path fill="none" stroke="#63b8ff" d="M154.65,-53.41C221.38,-42.85 324.32,-26.56 382.29,-17.39"/>
<polygon fill="#63b8ff" stroke="#63b8ff" points="153.99,-49.96 144.66,-54.98 155.09,-56.88 153.99,-49.96"/>
</a>
</g>
</g>
<!-- Node14&#45;&gt;Node10 -->
<g id="edge23_Node000014_Node000010" class="edge">
<title>Node14&#45;&gt;Node10</title>
<g id="a_edge23_Node000014_Node000010"><a xlink:title=" ">
<path fill="none" stroke="#63b8ff" d="M165.06,-54.88C294.87,-40.73 433.54,-26.79 518.63,-18.37"/>
<polygon fill="#63b8ff" stroke="#63b8ff" points="164.49,-51.42 154.93,-55.99 165.25,-58.38 164.49,-51.42"/>
</a>
</g>
</g>
<!-- Node15&#45;&gt;Node6 -->
<g id="edge26_Node000015_Node000006" class="edge">
<title>Node15&#45;&gt;Node6</title>
<g id="a_edge26_Node000015_Node000006"><a xlink:title=" ">
<path fill="none" stroke="#63b8ff" d="M219.81,-49.15C206.43,-39.57 189.28,-27.29 177.95,-19.17"/>
<polygon fill="#63b8ff" stroke="#63b8ff" points="217.78,-52.01 227.95,-54.98 221.86,-46.32 217.78,-52.01"/>
</a>
</g>
</g>
<!-- Node15&#45;&gt;Node8 -->
<g id="edge25_Node000015_Node000008" class="edge">
<title>Node15&#45;&gt;Node8</title>
<g id="a_edge25_Node000015_Node000008"><a xlink:title=" ">
<path fill="none" stroke="#63b8ff" d="M279.56,-52.18C314.34,-42.27 364.13,-28.08 395.72,-19.08"/>
<polygon fill="#63b8ff" stroke="#63b8ff" points="278.38,-48.88 269.73,-54.98 280.3,-55.61 278.38,-48.88"/>
</a>
</g>
</g>
<!-- Node15&#45;&gt;Node10 -->
<g id="edge27_Node000015_Node000010" class="edge">
<title>Node15&#45;&gt;Node10</title>
<g id="a_edge27_Node000015_Node000010"><a xlink:title=" ">
<path fill="none" stroke="#63b8ff" d="M307.62,-53.49C375.02,-43.54 477.32,-28.44 541.01,-19.04"/>
<polygon fill="#63b8ff" stroke="#63b8ff" points="306.9,-50.06 297.52,-54.98 307.92,-56.99 306.9,-50.06"/>
</a>
</g>
</g>
<!-- Node16&#45;&gt;Node6 -->
<g id="edge30_Node000016_Node000006" class="edge">
<title>Node16&#45;&gt;Node6</title>
<g id="a_edge30_Node000016_Node000006"><a xlink:title=" ">
<path fill="none" stroke="#63b8ff" d="M348.13,-52.69C305.23,-42.76 242.48,-28.24 202.92,-19.08"/>
<polygon fill="#63b8ff" stroke="#63b8ff" points="347.52,-56.14 358.05,-54.98 349.1,-49.32 347.52,-56.14"/>
</a>
</g>
</g>
<!-- Node16&#45;&gt;Node8 -->
<g id="edge29_Node000016_Node000008" class="edge">
<title>Node16&#45;&gt;Node8</title>
<g id="a_edge29_Node000016_Node000008"><a xlink:title=" ">
<path fill="none" stroke="#63b8ff" d="M405.02,-46.1C410.32,-37.04 416.56,-26.37 420.82,-19.09"/>
<polygon fill="#63b8ff" stroke="#63b8ff" points="401.99,-44.35 399.96,-54.75 408.03,-47.88 401.99,-44.35"/>
</a>
</g>
</g>
<!-- Node16&#45;&gt;Node10 -->
<g id="edge31_Node000016_Node000010" class="edge">
<title>Node16&#45;&gt;Node10</title>
<g id="a_edge31_Node000016_Node000010"><a xlink:title=" ">
<path fill="none" stroke="#63b8ff" d="M437.42,-52.44C475.61,-42.52 530.87,-28.16 565.81,-19.08"/>
<polygon fill="#63b8ff" stroke="#63b8ff" points="436.42,-49.08 427.62,-54.98 438.18,-55.86 436.42,-49.08"/>
</a>
</g>
</g>
</g>
</svg>
