<?xml version="1.0" encoding="UTF-8" standalone="no"?>
<!DOCTYPE svg PUBLIC "-//W3C//DTD SVG 1.1//EN"
 "http://www.w3.org/Graphics/SVG/1.1/DTD/svg11.dtd">
<!-- Generated by graphviz version 2.43.0 (0)
 -->
<!-- Title: client/include/webcface/func_result.h Pages: 1 -->
<svg width="1190pt" height="214pt"
 viewBox="0.00 0.00 1189.50 214.00" xmlns="http://www.w3.org/2000/svg" xmlns:xlink="http://www.w3.org/1999/xlink">
<g id="graph0" class="graph" transform="scale(1 1) rotate(0) translate(4 210)">
<title>client/include/webcface/func_result.h</title>
<!-- Node1 -->
<g id="Node000001" class="node">
<title>Node1</title>
<g id="a_Node000001"><a xlink:title=" ">
<polygon fill="#999999" stroke="#666666" points="883.5,-206 752.5,-206 752.5,-176 883.5,-176 883.5,-206"/>
<text text-anchor="start" x="760.5" y="-194" font-family="Helvetica,sans-Serif" font-size="10.00">client/include/webcface</text>
<text text-anchor="middle" x="818" y="-183" font-family="Helvetica,sans-Serif" font-size="10.00">/func_result.h</text>
</a>
</g>
</g>
<!-- Node2 -->
<g id="Node000002" class="node">
<title>Node2</title>
<g id="a_Node000002"><a xlink:href="webcface-config_8h.html" target="_top" xlink:title=" ">
<polygon fill="white" stroke="#666666" points="620.5,-19 515.5,-19 515.5,0 620.5,0 620.5,-19"/>
<text text-anchor="middle" x="568" y="-7" font-family="Helvetica,sans-Serif" font-size="10.00">webcface&#45;config.h</text>
</a>
</g>
</g>
<!-- Node1&#45;&gt;Node2 -->
<g id="edge1_Node000001_Node000002" class="edge">
<title>Node1&#45;&gt;Node2</title>
<g id="a_edge1_Node000001_Node000002"><a xlink:title=" ">
<path fill="none" stroke="#63b8ff" d="M820.64,-175.92C824.88,-148.61 829.78,-88.21 798,-55 775.44,-31.42 690.79,-19.92 630.76,-14.62"/>
<polygon fill="#63b8ff" stroke="#63b8ff" points="630.86,-11.11 620.6,-13.76 630.27,-18.09 630.86,-11.11"/>
</a>
</g>
</g>
<!-- Node3 -->
<g id="Node000003" class="node">
<title>Node3</title>
<g id="a_Node000003"><a xlink:title=" ">
<polygon fill="#e0e0e0" stroke="#999999" points="1034,-134.5 978,-134.5 978,-115.5 1034,-115.5 1034,-134.5"/>
<text text-anchor="middle" x="1006" y="-122.5" font-family="Helvetica,sans-Serif" font-size="10.00">optional</text>
</a>
</g>
</g>
<!-- Node1&#45;&gt;Node3 -->
<g id="edge2_Node000001_Node000003" class="edge">
<title>Node1&#45;&gt;Node3</title>
<g id="a_edge2_Node000001_Node000003"><a xlink:title=" ">
<path fill="none" stroke="#63b8ff" d="M862.11,-175.93C892.31,-166.17 933.21,-152.69 969,-140 970.65,-139.42 972.33,-138.81 974.03,-138.19"/>
<polygon fill="#63b8ff" stroke="#63b8ff" points="975.59,-141.35 983.75,-134.59 973.16,-134.78 975.59,-141.35"/>
</a>
</g>
</g>
<!-- Node4 -->
<g id="Node000004" class="node">
<title>Node4</title>
<g id="a_Node000004"><a xlink:title=" ">
<polygon fill="#e0e0e0" stroke="#999999" points="123,-19 79,-19 79,0 123,0 123,-19"/>
<text text-anchor="middle" x="101" y="-7" font-family="Helvetica,sans-Serif" font-size="10.00">string</text>
</a>
</g>
</g>
<!-- Node1&#45;&gt;Node4 -->
<g id="edge3_Node000001_Node000004" class="edge">
<title>Node1&#45;&gt;Node4</title>
<g id="a_edge3_Node000001_Node000004"><a xlink:title=" ">
<path fill="none" stroke="#63b8ff" d="M752.25,-188C624.79,-183.5 348.72,-170.47 259,-140 207.16,-122.4 196.31,-109.92 155,-74 138.85,-59.96 123.34,-40.95 113.12,-27.4"/>
<polygon fill="#63b8ff" stroke="#63b8ff" points="115.69,-24.99 106.95,-19.02 110.06,-29.14 115.69,-24.99"/>
</a>
</g>
</g>
<!-- Node5 -->
<g id="Node000005" class="node">
<title>Node5</title>
<g id="a_Node000005"><a xlink:title=" ">
<polygon fill="#e0e0e0" stroke="#999999" points="1098,-134.5 1052,-134.5 1052,-115.5 1098,-115.5 1098,-134.5"/>
<text text-anchor="middle" x="1075" y="-122.5" font-family="Helvetica,sans-Serif" font-size="10.00">future</text>
</a>
</g>
</g>
<!-- Node1&#45;&gt;Node5 -->
<g id="edge4_Node000001_Node000005" class="edge">
<title>Node1&#45;&gt;Node5</title>
<g id="a_edge4_Node000001_Node000005"><a xlink:title=" ">
<path fill="none" stroke="#63b8ff" d="M883.88,-178.85C929.22,-170.33 990.51,-157.14 1043,-140 1044.44,-139.53 1045.91,-139.02 1047.38,-138.48"/>
<polygon fill="#63b8ff" stroke="#63b8ff" points="1048.99,-141.6 1056.96,-134.62 1046.38,-135.11 1048.99,-141.6"/>
</a>
</g>
</g>
<!-- Node6 -->
<g id="Node000006" class="node">
<title>Node6</title>
<g id="a_Node000006"><a xlink:title=" ">
<polygon fill="#e0e0e0" stroke="#999999" points="58,-19 0,-19 0,0 58,0 58,-19"/>
<text text-anchor="middle" x="29" y="-7" font-family="Helvetica,sans-Serif" font-size="10.00">memory</text>
</a>
</g>
</g>
<!-- Node1&#45;&gt;Node6 -->
<g id="edge5_Node000001_Node000006" class="edge">
<title>Node1&#45;&gt;Node6</title>
<g id="a_edge5_Node000001_Node000006"><a xlink:title=" ">
<path fill="none" stroke="#63b8ff" d="M752.49,-189.47C613.84,-187.59 295.23,-179.02 195,-140 130.21,-114.77 70.05,-55.53 43.41,-26.76"/>
<polygon fill="#63b8ff" stroke="#63b8ff" points="45.85,-24.24 36.53,-19.19 40.67,-28.94 45.85,-24.24"/>
</a>
</g>
</g>
<!-- Node7 -->
<g id="Node000007" class="node">
<title>Node7</title>
<g id="a_Node000007"><a xlink:title=" ">
<polygon fill="#e0e0e0" stroke="#999999" points="1181.5,-134.5 1116.5,-134.5 1116.5,-115.5 1181.5,-115.5 1181.5,-134.5"/>
<text text-anchor="middle" x="1149" y="-122.5" font-family="Helvetica,sans-Serif" font-size="10.00">stdexcept</text>
</a>
</g>
</g>
<!-- Node1&#45;&gt;Node7 -->
<g id="edge6_Node000001_Node000007" class="edge">
<title>Node1&#45;&gt;Node7</title>
<g id="a_edge6_Node000001_Node000007"><a xlink:title=" ">
<path fill="none" stroke="#63b8ff" d="M883.73,-181.5C942.69,-173.2 1031.33,-159.04 1107,-140 1109.8,-139.3 1112.67,-138.5 1115.55,-137.65"/>
<polygon fill="#63b8ff" stroke="#63b8ff" points="1116.7,-140.96 1125.2,-134.63 1114.61,-134.28 1116.7,-140.96"/>
</a>
</g>
</g>
<!-- Node8 -->
<g id="Node000008" class="node">
<title>Node8</title>
<g id="a_Node000008"><a xlink:href="field_8h.html" target="_top" xlink:title=" ">
<polygon fill="white" stroke="#666666" points="315.5,-134.5 268.5,-134.5 268.5,-115.5 315.5,-115.5 315.5,-134.5"/>
<text text-anchor="middle" x="292" y="-122.5" font-family="Helvetica,sans-Serif" font-size="10.00">field.h</text>
</a>
</g>
</g>
<!-- Node1&#45;&gt;Node8 -->
<g id="edge7_Node000001_Node000008" class="edge">
<title>Node1&#45;&gt;Node8</title>
<g id="a_edge7_Node000001_Node000008"><a xlink:title=" ">
<path fill="none" stroke="#63b8ff" d="M752.45,-182.02C639.29,-168.26 411.24,-140.51 325.56,-130.08"/>
<polygon fill="#63b8ff" stroke="#63b8ff" points="325.95,-126.6 315.6,-128.87 325.1,-133.55 325.95,-126.6"/>
</a>
</g>
</g>
<!-- Node15 -->
<g id="Node000015" class="node">
<title>Node15</title>
<g id="a_Node000015"><a xlink:href="encoding_2include_2webcface_2encoding_2val__adaptor_8h.html" target="_top" xlink:title=" ">
<polygon fill="white" stroke="#666666" points="625,-140 497,-140 497,-110 625,-110 625,-140"/>
<text text-anchor="start" x="505" y="-128" font-family="Helvetica,sans-Serif" font-size="10.00">webcface/encoding/val</text>
<text text-anchor="middle" x="561" y="-117" font-family="Helvetica,sans-Serif" font-size="10.00">_adaptor.h</text>
</a>
</g>
</g>
<!-- Node1&#45;&gt;Node15 -->
<g id="edge21_Node000001_Node000015" class="edge">
<title>Node1&#45;&gt;Node15</title>
<g id="a_edge21_Node000001_Node000015"><a xlink:title=" ">
<path fill="none" stroke="#63b8ff" d="M761.6,-175.95C721.93,-166.08 668.71,-152.82 627.05,-142.45"/>
<polygon fill="#63b8ff" stroke="#63b8ff" points="627.82,-139.03 617.27,-140.01 626.13,-145.83 627.82,-139.03"/>
</a>
</g>
</g>
<!-- Node20 -->
<g id="Node000020" class="node">
<title>Node20</title>
<g id="a_Node000020"><a xlink:href="def__types_8h.html" target="_top" xlink:title=" ">
<polygon fill="white" stroke="#666666" points="959.5,-140 846.5,-140 846.5,-110 959.5,-110 959.5,-140"/>
<text text-anchor="start" x="854.5" y="-128" font-family="Helvetica,sans-Serif" font-size="10.00">webcface/c_wcf/def</text>
<text text-anchor="middle" x="903" y="-117" font-family="Helvetica,sans-Serif" font-size="10.00">_types.h</text>
</a>
</g>
</g>
<!-- Node1&#45;&gt;Node20 -->
<g id="edge30_Node000001_Node000020" class="edge">
<title>Node1&#45;&gt;Node20</title>
<g id="a_edge30_Node000001_Node000020"><a xlink:title=" ">
<path fill="none" stroke="#63b8ff" d="M836.86,-175.8C848.42,-167.1 863.39,-155.82 876.17,-146.2"/>
<polygon fill="#63b8ff" stroke="#63b8ff" points="878.31,-148.98 884.19,-140.16 874.09,-143.38 878.31,-148.98"/>
</a>
</g>
</g>
<!-- Node8&#45;&gt;Node2 -->
<g id="edge12_Node000008_Node000002" class="edge">
<title>Node8&#45;&gt;Node2</title>
<g id="a_edge12_Node000008_Node000002"><a xlink:title=" ">
<path fill="none" stroke="#63b8ff" d="M307.68,-115.46C339.66,-98.08 410.37,-59.81 422,-55 455.19,-41.28 494.15,-29.62 523.48,-21.68"/>
<polygon fill="#63b8ff" stroke="#63b8ff" points="524.66,-24.98 533.42,-19.03 522.86,-18.22 524.66,-24.98"/>
</a>
</g>
</g>
<!-- Node8&#45;&gt;Node4 -->
<g id="edge9_Node000008_Node000004" class="edge">
<title>Node8&#45;&gt;Node4</title>
<g id="a_edge9_Node000008_Node000004"><a xlink:title=" ">
<path fill="none" stroke="#63b8ff" d="M270.41,-115.49C248.31,-106.42 213.28,-91.04 185,-74 160.73,-59.38 135.06,-39.19 118.58,-25.53"/>
<polygon fill="#63b8ff" stroke="#63b8ff" points="120.76,-22.79 110.85,-19.05 116.26,-28.16 120.76,-22.79"/>
</a>
</g>
</g>
<!-- Node8&#45;&gt;Node6 -->
<g id="edge8_Node000008_Node000006" class="edge">
<title>Node8&#45;&gt;Node6</title>
<g id="a_edge8_Node000008_Node000006"><a xlink:title=" ">
<path fill="none" stroke="#63b8ff" d="M268.4,-116.33C240.84,-107.15 194.04,-90.89 155,-74 118.92,-58.39 78.55,-37.39 53.46,-23.9"/>
<polygon fill="#63b8ff" stroke="#63b8ff" points="55.09,-20.8 44.63,-19.12 51.76,-26.96 55.09,-20.8"/>
</a>
</g>
</g>
<!-- Node9 -->
<g id="Node000009" class="node">
<title>Node9</title>
<g id="a_Node000009"><a xlink:title=" ">
<polygon fill="#e0e0e0" stroke="#999999" points="214.5,-19 141.5,-19 141.5,0 214.5,0 214.5,-19"/>
<text text-anchor="middle" x="178" y="-7" font-family="Helvetica,sans-Serif" font-size="10.00">string_view</text>
</a>
</g>
</g>
<!-- Node8&#45;&gt;Node9 -->
<g id="edge10_Node000008_Node000009" class="edge">
<title>Node8&#45;&gt;Node9</title>
<g id="a_edge10_Node000008_Node000009"><a xlink:title=" ">
<path fill="none" stroke="#63b8ff" d="M268.12,-116.81C247.12,-109.32 217.15,-95.62 199,-74 188.38,-61.36 183.08,-43.17 180.47,-29.5"/>
<polygon fill="#63b8ff" stroke="#63b8ff" points="183.87,-28.62 178.84,-19.29 176.96,-29.72 183.87,-28.62"/>
</a>
</g>
</g>
<!-- Node10 -->
<g id="Node000010" class="node">
<title>Node10</title>
<g id="a_Node000010"><a xlink:title=" ">
<polygon fill="#e0e0e0" stroke="#999999" points="478.5,-74 431.5,-74 431.5,-55 478.5,-55 478.5,-74"/>
<text text-anchor="middle" x="455" y="-62" font-family="Helvetica,sans-Serif" font-size="10.00">vector</text>
</a>
</g>
</g>
<!-- Node8&#45;&gt;Node10 -->
<g id="edge11_Node000008_Node000010" class="edge">
<title>Node8&#45;&gt;Node10</title>
<g id="a_edge11_Node000008_Node000010"><a xlink:title=" ">
<path fill="none" stroke="#63b8ff" d="M315.7,-115.49C343.59,-105.49 390.07,-88.8 421.6,-77.49"/>
<polygon fill="#63b8ff" stroke="#63b8ff" points="423.04,-80.69 431.27,-74.02 420.68,-74.1 423.04,-80.69"/>
</a>
</g>
</g>
<!-- Node11 -->
<g id="Node000011" class="node">
<title>Node11</title>
<g id="a_Node000011"><a xlink:href="encoding_8h.html" target="_top" xlink:title=" ">
<polygon fill="white" stroke="#666666" points="375.5,-74 208.5,-74 208.5,-55 375.5,-55 375.5,-74"/>
<text text-anchor="middle" x="292" y="-62" font-family="Helvetica,sans-Serif" font-size="10.00">webcface/encoding/encoding.h</text>
</a>
</g>
</g>
<!-- Node8&#45;&gt;Node11 -->
<g id="edge13_Node000008_Node000011" class="edge">
<title>Node8&#45;&gt;Node11</title>
<g id="a_edge13_Node000008_Node000011"><a xlink:title=" ">
<path fill="none" stroke="#63b8ff" d="M292,-115.37C292,-107.25 292,-94.81 292,-84.39"/>
<polygon fill="#63b8ff" stroke="#63b8ff" points="295.5,-84.17 292,-74.17 288.5,-84.17 295.5,-84.17"/>
</a>
</g>
</g>
<!-- Node11&#45;&gt;Node2 -->
<g id="edge20_Node000011_Node000002" class="edge">
<title>Node11&#45;&gt;Node2</title>
<g id="a_edge20_Node000011_Node000002"><a xlink:title=" ">
<path fill="none" stroke="#63b8ff" d="M336.34,-54.98C384.49,-45.74 461.42,-30.97 513.29,-21.01"/>
<polygon fill="#63b8ff" stroke="#63b8ff" points="514.15,-24.41 523.31,-19.08 512.83,-17.53 514.15,-24.41"/>
</a>
</g>
</g>
<!-- Node11&#45;&gt;Node4 -->
<g id="edge14_Node000011_Node000004" class="edge">
<title>Node11&#45;&gt;Node4</title>
<g id="a_edge14_Node000011_Node000004"><a xlink:title=" ">
<path fill="none" stroke="#63b8ff" d="M261.31,-54.98C226.18,-45.24 168.91,-29.34 133.17,-19.43"/>
<polygon fill="#63b8ff" stroke="#63b8ff" points="133.83,-15.98 123.26,-16.68 131.96,-22.72 133.83,-15.98"/>
</a>
</g>
</g>
<!-- Node11&#45;&gt;Node6 -->
<g id="edge16_Node000011_Node000006" class="edge">
<title>Node11&#45;&gt;Node6</title>
<g id="a_edge16_Node000011_Node000006"><a xlink:title=" ">
<path fill="none" stroke="#63b8ff" d="M249.01,-54.97C204.28,-46.07 132.2,-31.68 70,-19 69.4,-18.88 68.79,-18.75 68.18,-18.63"/>
<polygon fill="#63b8ff" stroke="#63b8ff" points="68.61,-15.14 58.11,-16.56 67.2,-22 68.61,-15.14"/>
</a>
</g>
</g>
<!-- Node11&#45;&gt;Node9 -->
<g id="edge15_Node000011_Node000009" class="edge">
<title>Node11&#45;&gt;Node9</title>
<g id="a_edge15_Node000011_Node000009"><a xlink:title=" ">
<path fill="none" stroke="#63b8ff" d="M273.68,-54.98C255.34,-46.46 226.89,-33.23 205.77,-23.41"/>
<polygon fill="#63b8ff" stroke="#63b8ff" points="207.19,-20.21 196.65,-19.17 204.24,-26.56 207.19,-20.21"/>
</a>
</g>
</g>
<!-- Node12 -->
<g id="Node000012" class="node">
<title>Node12</title>
<g id="a_Node000012"><a xlink:title=" ">
<polygon fill="#e0e0e0" stroke="#999999" points="281,-19 233,-19 233,0 281,0 281,-19"/>
<text text-anchor="middle" x="257" y="-7" font-family="Helvetica,sans-Serif" font-size="10.00">mutex</text>
</a>
</g>
</g>
<!-- Node11&#45;&gt;Node12 -->
<g id="edge17_Node000011_Node000012" class="edge">
<title>Node11&#45;&gt;Node12</title>
<g id="a_edge17_Node000011_Node000012"><a xlink:title=" ">
<path fill="none" stroke="#63b8ff" d="M286.22,-54.75C281.38,-47.42 274.32,-36.73 268.36,-27.7"/>
<polygon fill="#63b8ff" stroke="#63b8ff" points="271.1,-25.5 262.67,-19.09 265.26,-29.36 271.1,-25.5"/>
</a>
</g>
</g>
<!-- Node13 -->
<g id="Node000013" class="node">
<title>Node13</title>
<g id="a_Node000013"><a xlink:title=" ">
<polygon fill="#e0e0e0" stroke="#999999" points="392.5,-19 299.5,-19 299.5,0 392.5,0 392.5,-19"/>
<text text-anchor="middle" x="346" y="-7" font-family="Helvetica,sans-Serif" font-size="10.00">unordered_map</text>
</a>
</g>
</g>
<!-- Node11&#45;&gt;Node13 -->
<g id="edge18_Node000011_Node000013" class="edge">
<title>Node11&#45;&gt;Node13</title>
<g id="a_edge18_Node000011_Node000013"><a xlink:title=" ">
<path fill="none" stroke="#63b8ff" d="M300.92,-54.75C308.78,-47.03 320.43,-35.6 329.92,-26.28"/>
<polygon fill="#63b8ff" stroke="#63b8ff" points="332.56,-28.59 337.25,-19.09 327.66,-23.6 332.56,-28.59"/>
</a>
</g>
</g>
<!-- Node14 -->
<g id="Node000014" class="node">
<title>Node14</title>
<g id="a_Node000014"><a xlink:title=" ">
<polygon fill="#e0e0e0" stroke="#999999" points="497,-19 411,-19 411,0 497,0 497,-19"/>
<text text-anchor="middle" x="454" y="-7" font-family="Helvetica,sans-Serif" font-size="10.00">unordered_set</text>
</a>
</g>
</g>
<!-- Node11&#45;&gt;Node14 -->
<g id="edge19_Node000011_Node000014" class="edge">
<title>Node11&#45;&gt;Node14</title>
<g id="a_edge19_Node000011_Node000014"><a xlink:title=" ">
<path fill="none" stroke="#63b8ff" d="M318.03,-54.98C345.11,-46.13 387.71,-32.19 418.01,-22.28"/>
<polygon fill="#63b8ff" stroke="#63b8ff" points="419.35,-25.52 427.77,-19.08 417.18,-18.87 419.35,-25.52"/>
</a>
</g>
</g>
<!-- Node15&#45;&gt;Node2 -->
<g id="edge29_Node000015_Node000002" class="edge">
<title>Node15&#45;&gt;Node2</title>
<g id="a_edge29_Node000015_Node000002"><a xlink:title=" ">
<path fill="none" stroke="#63b8ff" d="M545.85,-109.82C533.14,-96.11 518.21,-74.6 526,-55 530.52,-43.63 539.47,-33.48 547.96,-25.76"/>
<polygon fill="#63b8ff" stroke="#63b8ff" points="550.41,-28.27 555.79,-19.14 545.89,-22.92 550.41,-28.27"/>
</a>
</g>
</g>
<!-- Node15&#45;&gt;Node4 -->
<g id="edge22_Node000015_Node000004" class="edge">
<title>Node15&#45;&gt;Node4</title>
<g id="a_edge22_Node000015_Node000004"><a xlink:title=" ">
<path fill="none" stroke="#63b8ff" d="M496.83,-123.49C422.84,-121.02 298.6,-111.05 199,-74 190.71,-70.92 148.22,-42.55 121.98,-24.79"/>
<polygon fill="#63b8ff" stroke="#63b8ff" points="123.7,-21.73 113.46,-19.01 119.77,-27.52 123.7,-21.73"/>
</a>
</g>
</g>
<!-- Node15&#45;&gt;Node10 -->
<g id="edge23_Node000015_Node000010" class="edge">
<title>Node15&#45;&gt;Node10</title>
<g id="a_edge23_Node000015_Node000010"><a xlink:title=" ">
<path fill="none" stroke="#63b8ff" d="M535.61,-109.99C518.71,-100.66 496.62,-88.47 479.84,-79.21"/>
<polygon fill="#63b8ff" stroke="#63b8ff" points="481.1,-75.91 470.65,-74.14 477.72,-82.04 481.1,-75.91"/>
</a>
</g>
</g>
<!-- Node15&#45;&gt;Node11 -->
<g id="edge28_Node000015_Node000011" class="edge">
<title>Node15&#45;&gt;Node11</title>
<g id="a_edge28_Node000015_Node000011"><a xlink:title=" ">
<path fill="none" stroke="#63b8ff" d="M496.91,-110.06C449.19,-99.68 385,-85.73 341.26,-76.21"/>
<polygon fill="#63b8ff" stroke="#63b8ff" points="341.95,-72.78 331.43,-74.08 340.46,-79.62 341.95,-72.78"/>
</a>
</g>
</g>
<!-- Node16 -->
<g id="Node000016" class="node">
<title>Node16</title>
<g id="a_Node000016"><a xlink:title=" ">
<polygon fill="#e0e0e0" stroke="#999999" points="645.5,-74 604.5,-74 604.5,-55 645.5,-55 645.5,-74"/>
<text text-anchor="middle" x="625" y="-62" font-family="Helvetica,sans-Serif" font-size="10.00">tuple</text>
</a>
</g>
</g>
<!-- Node15&#45;&gt;Node16 -->
<g id="edge24_Node000015_Node000016" class="edge">
<title>Node15&#45;&gt;Node16</title>
<g id="a_edge24_Node000015_Node000016"><a xlink:title=" ">
<path fill="none" stroke="#63b8ff" d="M576.49,-109.84C585.97,-101.17 598.11,-90.08 607.88,-81.15"/>
<polygon fill="#63b8ff" stroke="#63b8ff" points="610.39,-83.6 615.41,-74.27 605.67,-78.43 610.39,-83.6"/>
</a>
</g>
</g>
<!-- Node17 -->
<g id="Node000017" class="node">
<title>Node17</title>
<g id="a_Node000017"><a xlink:title=" ">
<polygon fill="#e0e0e0" stroke="#999999" points="714,-74 664,-74 664,-55 714,-55 714,-74"/>
<text text-anchor="middle" x="689" y="-62" font-family="Helvetica,sans-Serif" font-size="10.00">cstdint</text>
</a>
</g>
</g>
<!-- Node15&#45;&gt;Node17 -->
<g id="edge25_Node000015_Node000017" class="edge">
<title>Node15&#45;&gt;Node17</title>
<g id="a_edge25_Node000015_Node000017"><a xlink:title=" ">
<path fill="none" stroke="#63b8ff" d="M591.66,-109.99C612.73,-100.36 640.49,-87.67 660.97,-78.31"/>
<polygon fill="#63b8ff" stroke="#63b8ff" points="662.46,-81.48 670.1,-74.14 659.55,-75.11 662.46,-81.48"/>
</a>
</g>
</g>
<!-- Node18 -->
<g id="Node000018" class="node">
<title>Node18</title>
<g id="a_Node000018"><a xlink:title=" ">
<polygon fill="#e0e0e0" stroke="#999999" points="789.5,-74 732.5,-74 732.5,-55 789.5,-55 789.5,-74"/>
<text text-anchor="middle" x="761" y="-62" font-family="Helvetica,sans-Serif" font-size="10.00">ostream</text>
</a>
</g>
</g>
<!-- Node15&#45;&gt;Node18 -->
<g id="edge26_Node000015_Node000018" class="edge">
<title>Node15&#45;&gt;Node18</title>
<g id="a_edge26_Node000015_Node000018"><a xlink:title=" ">
<path fill="none" stroke="#63b8ff" d="M608.9,-109.99C643.63,-99.83 689.98,-86.27 722.35,-76.8"/>
<polygon fill="#63b8ff" stroke="#63b8ff" points="723.72,-80.05 732.34,-73.88 721.76,-73.33 723.72,-80.05"/>
</a>
</g>
</g>
<!-- Node19 -->
<g id="Node000019" class="node">
<title>Node19</title>
<g id="a_Node000019"><a xlink:title=" ">
<polygon fill="#e0e0e0" stroke="#999999" points="586.5,-74 535.5,-74 535.5,-55 586.5,-55 586.5,-74"/>
<text text-anchor="middle" x="561" y="-62" font-family="Helvetica,sans-Serif" font-size="10.00">variant</text>
</a>
</g>
</g>
<!-- Node15&#45;&gt;Node19 -->
<g id="edge27_Node000015_Node000019" class="edge">
<title>Node15&#45;&gt;Node19</title>
<g id="a_edge27_Node000015_Node000019"><a xlink:title=" ">
<path fill="none" stroke="#63b8ff" d="M561,-109.84C561,-102.21 561,-92.7 561,-84.45"/>
<polygon fill="#63b8ff" stroke="#63b8ff" points="564.5,-84.27 561,-74.27 557.5,-84.27 564.5,-84.27"/>
</a>
</g>
</g>
<!-- Node20&#45;&gt;Node2 -->
<g id="edge31_Node000020_Node000002" class="edge">
<title>Node20&#45;&gt;Node2</title>
<g id="a_edge31_Node000020_Node000002"><a xlink:title=" ">
<path fill="none" stroke="#63b8ff" d="M892.73,-109.77C880.29,-93.69 857.76,-68.05 832,-55 768.48,-22.81 686.43,-13.21 630.78,-10.69"/>
<polygon fill="#63b8ff" stroke="#63b8ff" points="630.84,-7.19 620.71,-10.3 630.56,-14.19 630.84,-7.19"/>
</a>
</g>
</g>
<!-- Node21 -->
<g id="Node000021" class="node">
<title>Node21</title>
<g id="a_Node000021"><a xlink:title=" ">
<polygon fill="#e0e0e0" stroke="#999999" points="938,-74 884,-74 884,-55 938,-55 938,-74"/>
<text text-anchor="middle" x="911" y="-62" font-family="Helvetica,sans-Serif" font-size="10.00">wchar.h</text>
</a>
</g>
</g>
<!-- Node20&#45;&gt;Node21 -->
<g id="edge32_Node000020_Node000021" class="edge">
<title>Node20&#45;&gt;Node21</title>
<g id="a_edge32_Node000020_Node000021"><a xlink:title=" ">
<path fill="none" stroke="#63b8ff" d="M904.94,-109.84C905.98,-102.21 907.28,-92.7 908.41,-84.45"/>
<polygon fill="#63b8ff" stroke="#63b8ff" points="911.91,-84.65 909.8,-74.27 904.98,-83.7 911.91,-84.65"/>
</a>
</g>
</g>
<!-- Node22 -->
<g id="Node000022" class="node">
<title>Node22</title>
<g id="a_Node000022"><a xlink:title=" ">
<polygon fill="#e0e0e0" stroke="#999999" points="1003.5,-74 956.5,-74 956.5,-55 1003.5,-55 1003.5,-74"/>
<text text-anchor="middle" x="980" y="-62" font-family="Helvetica,sans-Serif" font-size="10.00">float.h</text>
</a>
</g>
</g>
<!-- Node20&#45;&gt;Node22 -->
<g id="edge33_Node000020_Node000022" class="edge">
<title>Node20&#45;&gt;Node22</title>
<g id="a_edge33_Node000020_Node000022"><a xlink:title=" ">
<path fill="none" stroke="#63b8ff" d="M921.64,-109.84C933.39,-100.91 948.53,-89.41 960.45,-80.35"/>
<polygon fill="#63b8ff" stroke="#63b8ff" points="962.62,-83.1 968.46,-74.27 958.38,-77.53 962.62,-83.1"/>
</a>
</g>
</g>
</g>
</svg>
