<?xml version="1.0" encoding="UTF-8" standalone="no"?>
<!DOCTYPE svg PUBLIC "-//W3C//DTD SVG 1.1//EN"
 "http://www.w3.org/Graphics/SVG/1.1/DTD/svg11.dtd">
<!-- Generated by graphviz version 2.43.0 (0)
 -->
<!-- Title: client/func_internal.h Pages: 1 -->
<svg width="913pt" height="247pt"
 viewBox="0.00 0.00 912.71 247.00" xmlns="http://www.w3.org/2000/svg" xmlns:xlink="http://www.w3.org/1999/xlink">
<g id="graph0" class="graph" transform="scale(1 1) rotate(0) translate(4 243)">
<title>client/func_internal.h</title>
<!-- Node1 -->
<g id="Node000001" class="node">
<title>Node1</title>
<g id="a_Node000001"><a xlink:title=" ">
<polygon fill="#999999" stroke="#666666" points="187.5,-239 68.5,-239 68.5,-220 187.5,-220 187.5,-239"/>
<text text-anchor="middle" x="128" y="-227" font-family="Helvetica,sans-Serif" font-size="10.00">client/func_internal.h</text>
</a>
</g>
</g>
<!-- Node2 -->
<g id="Node000002" class="node">
<title>Node2</title>
<g id="a_Node000002"><a xlink:title=" ">
<polygon fill="#e0e0e0" stroke="#999999" points="48,-184 0,-184 0,-165 48,-165 48,-184"/>
<text text-anchor="middle" x="24" y="-172" font-family="Helvetica,sans-Serif" font-size="10.00">mutex</text>
</a>
</g>
</g>
<!-- Node1&#45;&gt;Node2 -->
<g id="edge1_Node000001_Node000002" class="edge">
<title>Node1&#45;&gt;Node2</title>
<g id="a_edge1_Node000001_Node000002"><a xlink:title=" ">
<path fill="none" stroke="#63b8ff" d="M111.29,-219.98C94.79,-211.57 69.3,-198.59 50.12,-188.81"/>
<polygon fill="#63b8ff" stroke="#63b8ff" points="51.51,-185.59 41.01,-184.17 48.33,-191.83 51.51,-185.59"/>
</a>
</g>
</g>
<!-- Node3 -->
<g id="Node000003" class="node">
<title>Node3</title>
<g id="a_Node000003"><a xlink:title=" ">
<polygon fill="#e0e0e0" stroke="#999999" points="151.5,-74 104.5,-74 104.5,-55 151.5,-55 151.5,-74"/>
<text text-anchor="middle" x="128" y="-62" font-family="Helvetica,sans-Serif" font-size="10.00">vector</text>
</a>
</g>
</g>
<!-- Node1&#45;&gt;Node3 -->
<g id="edge2_Node000001_Node000003" class="edge">
<title>Node1&#45;&gt;Node3</title>
<g id="a_edge2_Node000001_Node000003"><a xlink:title=" ">
<path fill="none" stroke="#63b8ff" d="M128,-219.74C128,-194.31 128,-120.08 128,-84.69"/>
<polygon fill="#63b8ff" stroke="#63b8ff" points="131.5,-84.31 128,-74.31 124.5,-84.31 131.5,-84.31"/>
</a>
</g>
</g>
<!-- Node4 -->
<g id="Node000004" class="node">
<title>Node4</title>
<g id="a_Node000004"><a xlink:title=" ">
<polygon fill="#e0e0e0" stroke="#999999" points="836,-19 792,-19 792,0 836,0 836,-19"/>
<text text-anchor="middle" x="814" y="-7" font-family="Helvetica,sans-Serif" font-size="10.00">string</text>
</a>
</g>
</g>
<!-- Node1&#45;&gt;Node4 -->
<g id="edge3_Node000001_Node000004" class="edge">
<title>Node1&#45;&gt;Node4</title>
<g id="a_edge3_Node000001_Node000004"><a xlink:title=" ">
<path fill="none" stroke="#63b8ff" d="M122,-219.88C103.31,-191.93 50.06,-102.81 95,-55 118.82,-29.66 644.25,-14.75 781.46,-11.29"/>
<polygon fill="#63b8ff" stroke="#63b8ff" points="781.83,-14.78 791.74,-11.03 781.65,-7.78 781.83,-14.78"/>
</a>
</g>
</g>
<!-- Node5 -->
<g id="Node000005" class="node">
<title>Node5</title>
<g id="a_Node000005"><a xlink:title=" ">
<polygon fill="#e0e0e0" stroke="#999999" points="606.5,-184 499.5,-184 499.5,-165 606.5,-165 606.5,-184"/>
<text text-anchor="middle" x="553" y="-172" font-family="Helvetica,sans-Serif" font-size="10.00">condition_variable</text>
</a>
</g>
</g>
<!-- Node1&#45;&gt;Node5 -->
<g id="edge4_Node000001_Node000005" class="edge">
<title>Node1&#45;&gt;Node5</title>
<g id="a_edge4_Node000001_Node000005"><a xlink:title=" ">
<path fill="none" stroke="#63b8ff" d="M187.77,-221.44C257.63,-213.12 377.02,-198.73 489.11,-184.23"/>
<polygon fill="#63b8ff" stroke="#63b8ff" points="489.77,-187.68 499.24,-182.92 488.87,-180.73 489.77,-187.68"/>
</a>
</g>
</g>
<!-- Node6 -->
<g id="Node000006" class="node">
<title>Node6</title>
<g id="a_Node000006"><a xlink:href="func__result_8h.html" target="_top" xlink:title=" ">
<polygon fill="white" stroke="#666666" points="481.5,-184 352.5,-184 352.5,-165 481.5,-165 481.5,-184"/>
<text text-anchor="middle" x="417" y="-172" font-family="Helvetica,sans-Serif" font-size="10.00">webcface/func_result.h</text>
</a>
</g>
</g>
<!-- Node1&#45;&gt;Node6 -->
<g id="edge5_Node000001_Node000006" class="edge">
<title>Node1&#45;&gt;Node6</title>
<g id="a_edge5_Node000001_Node000006"><a xlink:title=" ">
<path fill="none" stroke="#63b8ff" d="M174.43,-219.98C224.95,-210.72 305.74,-195.9 360.05,-185.94"/>
<polygon fill="#63b8ff" stroke="#63b8ff" points="361,-189.33 370.2,-184.08 359.74,-182.44 361,-189.33"/>
</a>
</g>
</g>
<!-- Node6&#45;&gt;Node4 -->
<g id="edge7_Node000006_Node000004" class="edge">
<title>Node6&#45;&gt;Node4</title>
<g id="a_edge7_Node000006_Node000004"><a xlink:title=" ">
<path fill="none" stroke="#63b8ff" d="M481.76,-165.39C558.02,-155.62 680.03,-139.25 725,-129 804.49,-110.89 851.76,-139.73 900,-74 918.08,-49.36 877.32,-30.14 845.93,-19.57"/>
<polygon fill="#63b8ff" stroke="#63b8ff" points="846.74,-16.16 836.15,-16.44 844.61,-22.82 846.74,-16.16"/>
</a>
</g>
</g>
<!-- Node7 -->
<g id="Node000007" class="node">
<title>Node7</title>
<g id="a_Node000007"><a xlink:title=" ">
<polygon fill="#e0e0e0" stroke="#999999" points="554.5,-74 497.5,-74 497.5,-55 554.5,-55 554.5,-74"/>
<text text-anchor="middle" x="526" y="-62" font-family="Helvetica,sans-Serif" font-size="10.00">ostream</text>
</a>
</g>
</g>
<!-- Node6&#45;&gt;Node7 -->
<g id="edge6_Node000006_Node000007" class="edge">
<title>Node6&#45;&gt;Node7</title>
<g id="a_edge6_Node000006_Node000007"><a xlink:title=" ">
<path fill="none" stroke="#63b8ff" d="M425.92,-164.66C444.29,-146.46 486.59,-104.55 509.88,-81.47"/>
<polygon fill="#63b8ff" stroke="#63b8ff" points="512.62,-83.68 517.26,-74.16 507.69,-78.71 512.62,-83.68"/>
</a>
</g>
</g>
<!-- Node8 -->
<g id="Node000008" class="node">
<title>Node8</title>
<g id="a_Node000008"><a xlink:title=" ">
<polygon fill="#e0e0e0" stroke="#999999" points="282,-129 236,-129 236,-110 282,-110 282,-129"/>
<text text-anchor="middle" x="259" y="-117" font-family="Helvetica,sans-Serif" font-size="10.00">future</text>
</a>
</g>
</g>
<!-- Node6&#45;&gt;Node8 -->
<g id="edge8_Node000006_Node000008" class="edge">
<title>Node6&#45;&gt;Node8</title>
<g id="a_edge8_Node000006_Node000008"><a xlink:title=" ">
<path fill="none" stroke="#63b8ff" d="M391.61,-164.98C364.42,-155.86 321.17,-141.36 291.51,-131.4"/>
<polygon fill="#63b8ff" stroke="#63b8ff" points="292.6,-128.08 282.01,-128.22 290.38,-134.72 292.6,-128.08"/>
</a>
</g>
</g>
<!-- Node9 -->
<g id="Node000009" class="node">
<title>Node9</title>
<g id="a_Node000009"><a xlink:title=" ">
<polygon fill="#e0e0e0" stroke="#999999" points="631,-74 573,-74 573,-55 631,-55 631,-74"/>
<text text-anchor="middle" x="602" y="-62" font-family="Helvetica,sans-Serif" font-size="10.00">memory</text>
</a>
</g>
</g>
<!-- Node6&#45;&gt;Node9 -->
<g id="edge9_Node000006_Node000009" class="edge">
<title>Node6&#45;&gt;Node9</title>
<g id="a_edge9_Node000006_Node000009"><a xlink:title=" ">
<path fill="none" stroke="#63b8ff" d="M431.83,-164.84C463.84,-146.16 539.65,-101.9 578.37,-79.3"/>
<polygon fill="#63b8ff" stroke="#63b8ff" points="580.49,-82.11 587.36,-74.05 576.96,-76.07 580.49,-82.11"/>
</a>
</g>
</g>
<!-- Node10 -->
<g id="Node000010" class="node">
<title>Node10</title>
<g id="a_Node000010"><a xlink:title=" ">
<polygon fill="#e0e0e0" stroke="#999999" points="234.5,-74 169.5,-74 169.5,-55 234.5,-55 234.5,-74"/>
<text text-anchor="middle" x="202" y="-62" font-family="Helvetica,sans-Serif" font-size="10.00">stdexcept</text>
</a>
</g>
</g>
<!-- Node6&#45;&gt;Node10 -->
<g id="edge10_Node000006_Node000010" class="edge">
<title>Node6&#45;&gt;Node10</title>
<g id="a_edge10_Node000006_Node000010"><a xlink:title=" ">
<path fill="none" stroke="#63b8ff" d="M399.89,-164.86C375.66,-152.62 329.97,-129.56 291,-110 269.9,-99.41 245.96,-87.44 228.22,-78.59"/>
<polygon fill="#63b8ff" stroke="#63b8ff" points="229.58,-75.35 219.07,-74.01 226.45,-81.61 229.58,-75.35"/>
</a>
</g>
</g>
<!-- Node11 -->
<g id="Node000011" class="node">
<title>Node11</title>
<g id="a_Node000011"><a xlink:title=" ">
<polygon fill="#e0e0e0" stroke="#999999" points="479,-74 429,-74 429,-55 479,-55 479,-74"/>
<text text-anchor="middle" x="454" y="-62" font-family="Helvetica,sans-Serif" font-size="10.00">cstdint</text>
</a>
</g>
</g>
<!-- Node6&#45;&gt;Node11 -->
<g id="edge11_Node000006_Node000011" class="edge">
<title>Node6&#45;&gt;Node11</title>
<g id="a_edge11_Node000006_Node000011"><a xlink:title=" ">
<path fill="none" stroke="#63b8ff" d="M420.13,-164.99C423.41,-156.05 428.66,-141.57 433,-129 438.21,-113.89 443.89,-96.67 448.03,-83.97"/>
<polygon fill="#63b8ff" stroke="#63b8ff" points="451.46,-84.74 451.22,-74.15 444.8,-82.58 451.46,-84.74"/>
</a>
</g>
</g>
<!-- Node12 -->
<g id="Node000012" class="node">
<title>Node12</title>
<g id="a_Node000012"><a xlink:href="field_8h.html" target="_top" xlink:title=" ">
<polygon fill="white" stroke="#666666" points="715.5,-129 668.5,-129 668.5,-110 715.5,-110 715.5,-129"/>
<text text-anchor="middle" x="692" y="-117" font-family="Helvetica,sans-Serif" font-size="10.00">field.h</text>
</a>
</g>
</g>
<!-- Node6&#45;&gt;Node12 -->
<g id="edge12_Node000006_Node000012" class="edge">
<title>Node6&#45;&gt;Node12</title>
<g id="a_edge12_Node000006_Node000012"><a xlink:title=" ">
<path fill="none" stroke="#63b8ff" d="M461.18,-164.98C516.18,-154.39 608.89,-136.52 658.42,-126.97"/>
<polygon fill="#63b8ff" stroke="#63b8ff" points="659.15,-130.4 668.31,-125.07 657.83,-123.52 659.15,-130.4"/>
</a>
</g>
</g>
<!-- Node15 -->
<g id="Node000015" class="node">
<title>Node15</title>
<g id="a_Node000015"><a xlink:href="val_8h.html" target="_top" xlink:title=" ">
<polygon fill="white" stroke="#666666" points="424,-129 338,-129 338,-110 424,-110 424,-129"/>
<text text-anchor="middle" x="381" y="-117" font-family="Helvetica,sans-Serif" font-size="10.00">common/val.h</text>
</a>
</g>
</g>
<!-- Node6&#45;&gt;Node15 -->
<g id="edge18_Node000006_Node000015" class="edge">
<title>Node6&#45;&gt;Node15</title>
<g id="a_edge18_Node000006_Node000015"><a xlink:title=" ">
<path fill="none" stroke="#63b8ff" d="M411.06,-164.75C406.02,-157.34 398.66,-146.5 392.49,-137.41"/>
<polygon fill="#63b8ff" stroke="#63b8ff" points="395.35,-135.39 386.83,-129.09 389.56,-139.33 395.35,-135.39"/>
</a>
</g>
</g>
<!-- Node12&#45;&gt;Node4 -->
<g id="edge14_Node000012_Node000004" class="edge">
<title>Node12&#45;&gt;Node4</title>
<g id="a_edge14_Node000012_Node000004"><a xlink:title=" ">
<path fill="none" stroke="#63b8ff" d="M715.61,-116.61C762.19,-112.33 863.19,-100.18 884,-74 899.75,-54.18 871.09,-35.19 845.83,-23.22"/>
<polygon fill="#63b8ff" stroke="#63b8ff" points="846.97,-19.9 836.41,-18.99 844.1,-26.28 846.97,-19.9"/>
</a>
</g>
</g>
<!-- Node12&#45;&gt;Node9 -->
<g id="edge13_Node000012_Node000009" class="edge">
<title>Node12&#45;&gt;Node9</title>
<g id="a_edge13_Node000012_Node000009"><a xlink:title=" ">
<path fill="none" stroke="#63b8ff" d="M677.54,-109.98C663.58,-101.77 642.21,-89.18 625.75,-79.49"/>
<polygon fill="#63b8ff" stroke="#63b8ff" points="627.12,-76.23 616.72,-74.17 623.56,-82.26 627.12,-76.23"/>
</a>
</g>
</g>
<!-- Node13 -->
<g id="Node000013" class="node">
<title>Node13</title>
<g id="a_Node000013"><a xlink:href="field__base_8h.html" target="_top" xlink:title=" ">
<polygon fill="white" stroke="#666666" points="874.5,-74 753.5,-74 753.5,-55 874.5,-55 874.5,-74"/>
<text text-anchor="middle" x="814" y="-62" font-family="Helvetica,sans-Serif" font-size="10.00">common/field_base.h</text>
</a>
</g>
</g>
<!-- Node12&#45;&gt;Node13 -->
<g id="edge15_Node000012_Node000013" class="edge">
<title>Node12&#45;&gt;Node13</title>
<g id="a_edge15_Node000012_Node000013"><a xlink:title=" ">
<path fill="none" stroke="#63b8ff" d="M711.6,-109.98C731.32,-101.42 761.95,-88.11 784.58,-78.28"/>
<polygon fill="#63b8ff" stroke="#63b8ff" points="786.26,-81.37 794.04,-74.17 783.48,-74.94 786.26,-81.37"/>
</a>
</g>
</g>
<!-- Node14 -->
<g id="Node000014" class="node">
<title>Node14</title>
<g id="a_Node000014"><a xlink:href="def_8h.html" target="_top" xlink:title=" ">
<polygon fill="white" stroke="#666666" points="735,-74 649,-74 649,-55 735,-55 735,-74"/>
<text text-anchor="middle" x="692" y="-62" font-family="Helvetica,sans-Serif" font-size="10.00">common/def.h</text>
</a>
</g>
</g>
<!-- Node12&#45;&gt;Node14 -->
<g id="edge17_Node000012_Node000014" class="edge">
<title>Node12&#45;&gt;Node14</title>
<g id="a_edge17_Node000012_Node000014"><a xlink:title=" ">
<path fill="none" stroke="#63b8ff" d="M692,-109.75C692,-102.8 692,-92.85 692,-84.13"/>
<polygon fill="#63b8ff" stroke="#63b8ff" points="695.5,-84.09 692,-74.09 688.5,-84.09 695.5,-84.09"/>
</a>
</g>
</g>
<!-- Node13&#45;&gt;Node4 -->
<g id="edge16_Node000013_Node000004" class="edge">
<title>Node13&#45;&gt;Node4</title>
<g id="a_edge16_Node000013_Node000004"><a xlink:title=" ">
<path fill="none" stroke="#63b8ff" d="M814,-54.75C814,-47.8 814,-37.85 814,-29.13"/>
<polygon fill="#63b8ff" stroke="#63b8ff" points="817.5,-29.09 814,-19.09 810.5,-29.09 817.5,-29.09"/>
</a>
</g>
</g>
<!-- Node15&#45;&gt;Node3 -->
<g id="edge20_Node000015_Node000003" class="edge">
<title>Node15&#45;&gt;Node3</title>
<g id="a_edge20_Node000015_Node000003"><a xlink:title=" ">
<path fill="none" stroke="#63b8ff" d="M337.64,-110.58C295.05,-102.62 228.02,-89.61 161.53,-74.26"/>
<polygon fill="#63b8ff" stroke="#63b8ff" points="162.26,-70.83 151.73,-71.97 160.67,-77.65 162.26,-70.83"/>
</a>
</g>
</g>
<!-- Node15&#45;&gt;Node4 -->
<g id="edge19_Node000015_Node000004" class="edge">
<title>Node15&#45;&gt;Node4</title>
<g id="a_edge19_Node000015_Node000004"><a xlink:title=" ">
<path fill="none" stroke="#63b8ff" d="M345.05,-109.91C308.08,-99.47 258.91,-80.1 282,-55 315.89,-18.15 671.51,-11.81 781.66,-10.72"/>
<polygon fill="#63b8ff" stroke="#63b8ff" points="781.86,-14.22 791.83,-10.63 781.8,-7.22 781.86,-14.22"/>
</a>
</g>
</g>
<!-- Node15&#45;&gt;Node7 -->
<g id="edge25_Node000015_Node000007" class="edge">
<title>Node15&#45;&gt;Node7</title>
<g id="a_edge25_Node000015_Node000007"><a xlink:title=" ">
<path fill="none" stroke="#63b8ff" d="M404.3,-109.98C428.25,-101.23 465.78,-87.51 492.83,-77.62"/>
<polygon fill="#63b8ff" stroke="#63b8ff" points="494.09,-80.89 502.28,-74.17 491.69,-74.32 494.09,-80.89"/>
</a>
</g>
</g>
<!-- Node15&#45;&gt;Node10 -->
<g id="edge23_Node000015_Node000010" class="edge">
<title>Node15&#45;&gt;Node10</title>
<g id="a_edge23_Node000015_Node000010"><a xlink:title=" ">
<path fill="none" stroke="#63b8ff" d="M352.24,-109.98C322.06,-101.05 274.43,-86.94 240.9,-77.02"/>
<polygon fill="#63b8ff" stroke="#63b8ff" points="241.57,-73.57 230.98,-74.08 239.58,-80.28 241.57,-73.57"/>
</a>
</g>
</g>
<!-- Node15&#45;&gt;Node11 -->
<g id="edge24_Node000015_Node000011" class="edge">
<title>Node15&#45;&gt;Node11</title>
<g id="a_edge24_Node000015_Node000011"><a xlink:title=" ">
<path fill="none" stroke="#63b8ff" d="M392.73,-109.98C403.73,-102 420.42,-89.88 433.6,-80.31"/>
<polygon fill="#63b8ff" stroke="#63b8ff" points="436.02,-82.88 442.06,-74.17 431.91,-77.21 436.02,-82.88"/>
</a>
</g>
</g>
<!-- Node16 -->
<g id="Node000016" class="node">
<title>Node16</title>
<g id="a_Node000016"><a xlink:title=" ">
<polygon fill="#e0e0e0" stroke="#999999" points="332.5,-74 291.5,-74 291.5,-55 332.5,-55 332.5,-74"/>
<text text-anchor="middle" x="312" y="-62" font-family="Helvetica,sans-Serif" font-size="10.00">tuple</text>
</a>
</g>
</g>
<!-- Node15&#45;&gt;Node16 -->
<g id="edge21_Node000015_Node000016" class="edge">
<title>Node15&#45;&gt;Node16</title>
<g id="a_edge21_Node000015_Node000016"><a xlink:title=" ">
<path fill="none" stroke="#63b8ff" d="M369.91,-109.98C359.51,-102 343.74,-89.88 331.28,-80.31"/>
<polygon fill="#63b8ff" stroke="#63b8ff" points="333.35,-77.49 323.29,-74.17 329.09,-83.04 333.35,-77.49"/>
</a>
</g>
</g>
<!-- Node17 -->
<g id="Node000017" class="node">
<title>Node17</title>
<g id="a_Node000017"><a xlink:title=" ">
<polygon fill="#e0e0e0" stroke="#999999" points="411,-74 351,-74 351,-55 411,-55 411,-74"/>
<text text-anchor="middle" x="381" y="-62" font-family="Helvetica,sans-Serif" font-size="10.00">concepts</text>
</a>
</g>
</g>
<!-- Node15&#45;&gt;Node17 -->
<g id="edge22_Node000015_Node000017" class="edge">
<title>Node15&#45;&gt;Node17</title>
<g id="a_edge22_Node000015_Node000017"><a xlink:title=" ">
<path fill="none" stroke="#63b8ff" d="M381,-109.75C381,-102.8 381,-92.85 381,-84.13"/>
<polygon fill="#63b8ff" stroke="#63b8ff" points="384.5,-84.09 381,-74.09 377.5,-84.09 384.5,-84.09"/>
</a>
</g>
</g>
</g>
</svg>
