<?xml version="1.0" encoding="UTF-8" standalone="no"?>
<!DOCTYPE svg PUBLIC "-//W3C//DTD SVG 1.1//EN"
 "http://www.w3.org/Graphics/SVG/1.1/DTD/svg11.dtd">
<!-- Generated by graphviz version 2.43.0 (0)
 -->
<!-- Title: client/src/func_info.cc Pages: 1 -->
<svg width="1372pt" height="390pt"
 viewBox="0.00 0.00 1372.06 390.00" xmlns="http://www.w3.org/2000/svg" xmlns:xlink="http://www.w3.org/1999/xlink">
<g id="graph0" class="graph" transform="scale(1 1) rotate(0) translate(4 386)">
<title>client/src/func_info.cc</title>
<!-- Node1 -->
<g id="Node000001" class="node">
<title>Node1</title>
<g id="a_Node000001"><a xlink:title=" ">
<polygon fill="#999999" stroke="#666666" points="704.24,-382 582.24,-382 582.24,-363 704.24,-363 704.24,-382"/>
<text text-anchor="middle" x="643.24" y="-370" font-family="Helvetica,sans-Serif" font-size="10.00">client/src/func_info.cc</text>
</a>
</g>
</g>
<!-- Node2 -->
<g id="Node000002" class="node">
<title>Node2</title>
<g id="a_Node000002"><a xlink:href="func__internal_8h.html" target="_top" xlink:title=" ">
<polygon fill="white" stroke="#666666" points="661.24,-327 533.24,-327 533.24,-297 661.24,-297 661.24,-327"/>
<text text-anchor="start" x="541.24" y="-315" font-family="Helvetica,sans-Serif" font-size="10.00">webcface/internal/func</text>
<text text-anchor="middle" x="597.24" y="-304" font-family="Helvetica,sans-Serif" font-size="10.00">_internal.h</text>
</a>
</g>
</g>
<!-- Node1&#45;&gt;Node2 -->
<g id="edge1_Node000001_Node000002" class="edge">
<title>Node1&#45;&gt;Node2</title>
<g id="a_edge1_Node000001_Node000002"><a xlink:title=" ">
<path fill="none" stroke="#63b8ff" d="M636.45,-362.87C630.73,-355.59 622.28,-344.85 614.7,-335.2"/>
<polygon fill="#63b8ff" stroke="#63b8ff" points="617.27,-332.81 608.34,-327.11 611.77,-337.14 617.27,-332.81"/>
</a>
</g>
</g>
<!-- Node27 -->
<g id="Node000027" class="node">
<title>Node27</title>
<g id="a_Node000027"><a xlink:href="message_8h.html" target="_top" xlink:title=" ">
<polygon fill="white" stroke="#666666" points="1114.74,-261 947.74,-261 947.74,-242 1114.74,-242 1114.74,-261"/>
<text text-anchor="middle" x="1031.24" y="-249" font-family="Helvetica,sans-Serif" font-size="10.00">webcface/message/message.h</text>
</a>
</g>
</g>
<!-- Node1&#45;&gt;Node27 -->
<g id="edge44_Node000001_Node000027" class="edge">
<title>Node1&#45;&gt;Node27</title>
<g id="a_edge44_Node000001_Node000027"><a xlink:title=" ">
<path fill="none" stroke="#63b8ff" d="M671.14,-362.94C739.57,-341.95 915.78,-287.91 993.48,-264.08"/>
<polygon fill="#63b8ff" stroke="#63b8ff" points="994.79,-267.34 1003.33,-261.06 992.74,-260.65 994.79,-267.34"/>
</a>
</g>
</g>
<!-- Node3 -->
<g id="Node000003" class="node">
<title>Node3</title>
<g id="a_Node000003"><a xlink:title=" ">
<polygon fill="#e0e0e0" stroke="#999999" points="494.24,-19 446.24,-19 446.24,0 494.24,0 494.24,-19"/>
<text text-anchor="middle" x="470.24" y="-7" font-family="Helvetica,sans-Serif" font-size="10.00">mutex</text>
</a>
</g>
</g>
<!-- Node2&#45;&gt;Node3 -->
<g id="edge2_Node000002_Node000003" class="edge">
<title>Node2&#45;&gt;Node3</title>
<g id="a_edge2_Node000002_Node000003"><a xlink:title=" ">
<path fill="none" stroke="#63b8ff" d="M586.07,-296.86C559.11,-261.7 490.94,-166.51 467.24,-74 463.47,-59.28 464.62,-42.03 466.49,-29.22"/>
<polygon fill="#63b8ff" stroke="#63b8ff" points="469.95,-29.74 468.21,-19.29 463.06,-28.55 469.95,-29.74"/>
</a>
</g>
</g>
<!-- Node4 -->
<g id="Node000004" class="node">
<title>Node4</title>
<g id="a_Node000004"><a xlink:href="func__result_8h.html" target="_top" xlink:title=" ">
<polygon fill="white" stroke="#666666" points="323.74,-200.5 194.74,-200.5 194.74,-181.5 323.74,-181.5 323.74,-200.5"/>
<text text-anchor="middle" x="259.24" y="-188.5" font-family="Helvetica,sans-Serif" font-size="10.00">webcface/func_result.h</text>
</a>
</g>
</g>
<!-- Node2&#45;&gt;Node4 -->
<g id="edge3_Node000002_Node000004" class="edge">
<title>Node2&#45;&gt;Node4</title>
<g id="a_edge3_Node000002_Node000004"><a xlink:title=" ">
<path fill="none" stroke="#63b8ff" d="M557.47,-297C490.38,-273.38 355.91,-226.03 293.06,-203.91"/>
<polygon fill="#63b8ff" stroke="#63b8ff" points="294.2,-200.6 283.61,-200.58 291.88,-207.2 294.2,-200.6"/>
</a>
</g>
</g>
<!-- Node25 -->
<g id="Node000025" class="node">
<title>Node25</title>
<g id="a_Node000025"><a xlink:href="func_8h.html" target="_top" xlink:title=" ">
<polygon fill="white" stroke="#666666" points="713.24,-261 617.24,-261 617.24,-242 713.24,-242 713.24,-261"/>
<text text-anchor="middle" x="665.24" y="-249" font-family="Helvetica,sans-Serif" font-size="10.00">webcface/func.h</text>
</a>
</g>
</g>
<!-- Node2&#45;&gt;Node25 -->
<g id="edge37_Node000002_Node000025" class="edge">
<title>Node2&#45;&gt;Node25</title>
<g id="a_edge37_Node000002_Node000025"><a xlink:title=" ">
<path fill="none" stroke="#63b8ff" d="M613.7,-296.84C623.87,-288.09 636.93,-276.85 647.36,-267.88"/>
<polygon fill="#63b8ff" stroke="#63b8ff" points="649.75,-270.44 655.05,-261.27 645.19,-265.13 649.75,-270.44"/>
</a>
</g>
</g>
<!-- Node5 -->
<g id="Node000005" class="node">
<title>Node5</title>
<g id="a_Node000005"><a xlink:href="webcface-config_8h.html" target="_top" xlink:title=" ">
<polygon fill="white" stroke="#666666" points="336.74,-19 231.74,-19 231.74,0 336.74,0 336.74,-19"/>
<text text-anchor="middle" x="284.24" y="-7" font-family="Helvetica,sans-Serif" font-size="10.00">webcface&#45;config.h</text>
</a>
</g>
</g>
<!-- Node4&#45;&gt;Node5 -->
<g id="edge4_Node000004_Node000005" class="edge">
<title>Node4&#45;&gt;Node5</title>
<g id="a_edge4_Node000004_Node000005"><a xlink:title=" ">
<path fill="none" stroke="#63b8ff" d="M254.65,-181.46C249.71,-171.74 242.17,-155.24 239.24,-140 232.08,-102.84 229.1,-89.69 244.24,-55 249.04,-44 257.65,-33.87 265.65,-26.06"/>
<polygon fill="#63b8ff" stroke="#63b8ff" points="268.27,-28.41 273.29,-19.08 263.55,-23.24 268.27,-28.41"/>
</a>
</g>
</g>
<!-- Node6 -->
<g id="Node000006" class="node">
<title>Node6</title>
<g id="a_Node000006"><a xlink:title=" ">
<polygon fill="#e0e0e0" stroke="#999999" points="744.24,-134.5 688.24,-134.5 688.24,-115.5 744.24,-115.5 744.24,-134.5"/>
<text text-anchor="middle" x="716.24" y="-122.5" font-family="Helvetica,sans-Serif" font-size="10.00">optional</text>
</a>
</g>
</g>
<!-- Node4&#45;&gt;Node6 -->
<g id="edge5_Node000004_Node000006" class="edge">
<title>Node4&#45;&gt;Node6</title>
<g id="a_edge5_Node000004_Node000006"><a xlink:title=" ">
<path fill="none" stroke="#63b8ff" d="M301.01,-181.48C311.5,-179.51 322.76,-177.54 333.24,-176 484.01,-153.82 525.3,-172.29 674.24,-140 677.29,-139.34 680.44,-138.53 683.57,-137.65"/>
<polygon fill="#63b8ff" stroke="#63b8ff" points="684.86,-140.91 693.38,-134.61 682.79,-134.22 684.86,-140.91"/>
</a>
</g>
</g>
<!-- Node7 -->
<g id="Node000007" class="node">
<title>Node7</title>
<g id="a_Node000007"><a xlink:title=" ">
<polygon fill="#e0e0e0" stroke="#999999" points="972.24,-19 928.24,-19 928.24,0 972.24,0 972.24,-19"/>
<text text-anchor="middle" x="950.24" y="-7" font-family="Helvetica,sans-Serif" font-size="10.00">string</text>
</a>
</g>
</g>
<!-- Node4&#45;&gt;Node7 -->
<g id="edge6_Node000004_Node000007" class="edge">
<title>Node4&#45;&gt;Node7</title>
<g id="a_edge6_Node000004_Node000007"><a xlink:title=" ">
<path fill="none" stroke="#63b8ff" d="M299.47,-181.49C376.15,-164.75 547.99,-124.72 687.24,-74 706.11,-67.13 709.15,-61.24 728.24,-55 793.99,-33.51 874.26,-20.54 918.01,-14.53"/>
<polygon fill="#63b8ff" stroke="#63b8ff" points="918.61,-17.98 928.05,-13.18 917.68,-11.04 918.61,-17.98"/>
</a>
</g>
</g>
<!-- Node8 -->
<g id="Node000008" class="node">
<title>Node8</title>
<g id="a_Node000008"><a xlink:title=" ">
<polygon fill="#e0e0e0" stroke="#999999" points="192.24,-134.5 146.24,-134.5 146.24,-115.5 192.24,-115.5 192.24,-134.5"/>
<text text-anchor="middle" x="169.24" y="-122.5" font-family="Helvetica,sans-Serif" font-size="10.00">future</text>
</a>
</g>
</g>
<!-- Node4&#45;&gt;Node8 -->
<g id="edge7_Node000004_Node000008" class="edge">
<title>Node4&#45;&gt;Node8</title>
<g id="a_edge7_Node000004_Node000008"><a xlink:title=" ">
<path fill="none" stroke="#63b8ff" d="M247.1,-181.37C232.47,-170.97 207.66,-153.32 189.98,-140.75"/>
<polygon fill="#63b8ff" stroke="#63b8ff" points="191.65,-137.64 181.47,-134.7 187.59,-143.35 191.65,-137.64"/>
</a>
</g>
</g>
<!-- Node9 -->
<g id="Node000009" class="node">
<title>Node9</title>
<g id="a_Node000009"><a xlink:title=" ">
<polygon fill="#e0e0e0" stroke="#999999" points="213.24,-19 155.24,-19 155.24,0 213.24,0 213.24,-19"/>
<text text-anchor="middle" x="184.24" y="-7" font-family="Helvetica,sans-Serif" font-size="10.00">memory</text>
</a>
</g>
</g>
<!-- Node4&#45;&gt;Node9 -->
<g id="edge8_Node000004_Node000009" class="edge">
<title>Node4&#45;&gt;Node9</title>
<g id="a_edge8_Node000004_Node000009"><a xlink:title=" ">
<path fill="none" stroke="#63b8ff" d="M194.7,-186.39C127.5,-181.13 28.79,-168.64 5.24,-140 -4.18,-128.54 0.77,-66.12 10.24,-55 27.5,-34.74 99.1,-21.71 144.91,-15.28"/>
<polygon fill="#63b8ff" stroke="#63b8ff" points="145.66,-18.71 155.1,-13.9 144.72,-11.77 145.66,-18.71"/>
</a>
</g>
</g>
<!-- Node10 -->
<g id="Node000010" class="node">
<title>Node10</title>
<g id="a_Node000010"><a xlink:title=" ">
<polygon fill="#e0e0e0" stroke="#999999" points="313.74,-134.5 248.74,-134.5 248.74,-115.5 313.74,-115.5 313.74,-134.5"/>
<text text-anchor="middle" x="281.24" y="-122.5" font-family="Helvetica,sans-Serif" font-size="10.00">stdexcept</text>
</a>
</g>
</g>
<!-- Node4&#45;&gt;Node10 -->
<g id="edge9_Node000004_Node000010" class="edge">
<title>Node4&#45;&gt;Node10</title>
<g id="a_edge9_Node000004_Node000010"><a xlink:title=" ">
<path fill="none" stroke="#63b8ff" d="M262.2,-181.37C265.43,-171.97 270.69,-156.67 274.87,-144.53"/>
<polygon fill="#63b8ff" stroke="#63b8ff" points="278.24,-145.5 278.18,-134.91 271.62,-143.22 278.24,-145.5"/>
</a>
</g>
</g>
<!-- Node11 -->
<g id="Node000011" class="node">
<title>Node11</title>
<g id="a_Node000011"><a xlink:href="field_8h.html" target="_top" xlink:title=" ">
<polygon fill="white" stroke="#666666" points="417.74,-134.5 370.74,-134.5 370.74,-115.5 417.74,-115.5 417.74,-134.5"/>
<text text-anchor="middle" x="394.24" y="-122.5" font-family="Helvetica,sans-Serif" font-size="10.00">field.h</text>
</a>
</g>
</g>
<!-- Node4&#45;&gt;Node11 -->
<g id="edge10_Node000004_Node000011" class="edge">
<title>Node4&#45;&gt;Node11</title>
<g id="a_edge10_Node000004_Node000011"><a xlink:title=" ">
<path fill="none" stroke="#63b8ff" d="M277.44,-181.37C300.39,-170.49 340.05,-151.69 366.71,-139.05"/>
<polygon fill="#63b8ff" stroke="#63b8ff" points="368.35,-142.15 375.89,-134.7 365.35,-135.82 368.35,-142.15"/>
</a>
</g>
</g>
<!-- Node17 -->
<g id="Node000017" class="node">
<title>Node17</title>
<g id="a_Node000017"><a xlink:href="encoding_2include_2webcface_2encoding_2val__adaptor_8h.html" target="_top" xlink:title=" ">
<polygon fill="white" stroke="#666666" points="890.24,-140 762.24,-140 762.24,-110 890.24,-110 890.24,-140"/>
<text text-anchor="start" x="770.24" y="-128" font-family="Helvetica,sans-Serif" font-size="10.00">webcface/encoding/val</text>
<text text-anchor="middle" x="826.24" y="-117" font-family="Helvetica,sans-Serif" font-size="10.00">_adaptor.h</text>
</a>
</g>
</g>
<!-- Node4&#45;&gt;Node17 -->
<g id="edge24_Node000004_Node000017" class="edge">
<title>Node4&#45;&gt;Node17</title>
<g id="a_edge24_Node000004_Node000017"><a xlink:title=" ">
<path fill="none" stroke="#63b8ff" d="M300.22,-181.48C310.93,-179.46 322.49,-177.47 333.24,-176 515.59,-151 565.9,-165.16 752.08,-140.06"/>
<polygon fill="#63b8ff" stroke="#63b8ff" points="752.77,-143.49 762.21,-138.67 751.82,-136.56 752.77,-143.49"/>
</a>
</g>
</g>
<!-- Node22 -->
<g id="Node000022" class="node">
<title>Node22</title>
<g id="a_Node000022"><a xlink:href="def__types_8h.html" target="_top" xlink:title=" ">
<polygon fill="white" stroke="#666666" points="127.74,-140 14.74,-140 14.74,-110 127.74,-110 127.74,-140"/>
<text text-anchor="start" x="22.74" y="-128" font-family="Helvetica,sans-Serif" font-size="10.00">webcface/c_wcf/def</text>
<text text-anchor="middle" x="71.24" y="-117" font-family="Helvetica,sans-Serif" font-size="10.00">_types.h</text>
</a>
</g>
</g>
<!-- Node4&#45;&gt;Node22 -->
<g id="edge33_Node000004_Node000022" class="edge">
<title>Node4&#45;&gt;Node22</title>
<g id="a_edge33_Node000004_Node000022"><a xlink:title=" ">
<path fill="none" stroke="#63b8ff" d="M233.88,-181.37C205.48,-171.7 158.7,-155.77 122.58,-143.48"/>
<polygon fill="#63b8ff" stroke="#63b8ff" points="123.3,-140.03 112.7,-140.12 121.04,-146.65 123.3,-140.03"/>
</a>
</g>
</g>
<!-- Node11&#45;&gt;Node5 -->
<g id="edge15_Node000011_Node000005" class="edge">
<title>Node11&#45;&gt;Node5</title>
<g id="a_edge15_Node000011_Node000005"><a xlink:title=" ">
<path fill="none" stroke="#63b8ff" d="M385.97,-115.47C367.66,-96.57 323.42,-50.93 299.77,-26.52"/>
<polygon fill="#63b8ff" stroke="#63b8ff" points="302.07,-23.88 292.6,-19.13 297.05,-28.75 302.07,-23.88"/>
</a>
</g>
</g>
<!-- Node11&#45;&gt;Node7 -->
<g id="edge12_Node000011_Node000007" class="edge">
<title>Node11&#45;&gt;Node7</title>
<g id="a_edge12_Node000011_Node000007"><a xlink:title=" ">
<path fill="none" stroke="#63b8ff" d="M417.82,-121.3C463.76,-115.64 568.11,-100.77 652.24,-74 671.76,-67.79 674.66,-61.02 694.24,-55 772.77,-30.84 869.14,-18.53 918.21,-13.44"/>
<polygon fill="#63b8ff" stroke="#63b8ff" points="918.63,-16.92 928.23,-12.44 917.93,-9.95 918.63,-16.92"/>
</a>
</g>
</g>
<!-- Node11&#45;&gt;Node9 -->
<g id="edge11_Node000011_Node000009" class="edge">
<title>Node11&#45;&gt;Node9</title>
<g id="a_edge11_Node000011_Node000009"><a xlink:title=" ">
<path fill="none" stroke="#63b8ff" d="M378.45,-115.47C342.2,-95.87 252.73,-47.52 209.04,-23.91"/>
<polygon fill="#63b8ff" stroke="#63b8ff" points="210.67,-20.81 200.21,-19.13 207.34,-26.96 210.67,-20.81"/>
</a>
</g>
</g>
<!-- Node12 -->
<g id="Node000012" class="node">
<title>Node12</title>
<g id="a_Node000012"><a xlink:title=" ">
<polygon fill="#e0e0e0" stroke="#999999" points="427.74,-19 354.74,-19 354.74,0 427.74,0 427.74,-19"/>
<text text-anchor="middle" x="391.24" y="-7" font-family="Helvetica,sans-Serif" font-size="10.00">string_view</text>
</a>
</g>
</g>
<!-- Node11&#45;&gt;Node12 -->
<g id="edge13_Node000011_Node000012" class="edge">
<title>Node11&#45;&gt;Node12</title>
<g id="a_edge13_Node000011_Node000012"><a xlink:title=" ">
<path fill="none" stroke="#63b8ff" d="M394.01,-115.47C393.53,-97.23 392.39,-54.07 391.73,-29.14"/>
<polygon fill="#63b8ff" stroke="#63b8ff" points="395.23,-29.03 391.47,-19.13 388.23,-29.22 395.23,-29.03"/>
</a>
</g>
</g>
<!-- Node13 -->
<g id="Node000013" class="node">
<title>Node13</title>
<g id="a_Node000013"><a xlink:title=" ">
<polygon fill="#e0e0e0" stroke="#999999" points="1025.74,-74 978.74,-74 978.74,-55 1025.74,-55 1025.74,-74"/>
<text text-anchor="middle" x="1002.24" y="-62" font-family="Helvetica,sans-Serif" font-size="10.00">vector</text>
</a>
</g>
</g>
<!-- Node11&#45;&gt;Node13 -->
<g id="edge14_Node000011_Node000013" class="edge">
<title>Node11&#45;&gt;Node13</title>
<g id="a_edge14_Node000011_Node000013"><a xlink:title=" ">
<path fill="none" stroke="#63b8ff" d="M417.81,-122.03C492.86,-115.7 732.92,-95.1 931.24,-74 943.34,-72.71 956.58,-71.17 968.31,-69.75"/>
<polygon fill="#63b8ff" stroke="#63b8ff" points="969.09,-73.18 978.59,-68.49 968.24,-66.23 969.09,-73.18"/>
</a>
</g>
</g>
<!-- Node14 -->
<g id="Node000014" class="node">
<title>Node14</title>
<g id="a_Node000014"><a xlink:href="encoding_8h.html" target="_top" xlink:title=" ">
<polygon fill="white" stroke="#666666" points="642.74,-74 475.74,-74 475.74,-55 642.74,-55 642.74,-74"/>
<text text-anchor="middle" x="559.24" y="-62" font-family="Helvetica,sans-Serif" font-size="10.00">webcface/encoding/encoding.h</text>
</a>
</g>
</g>
<!-- Node11&#45;&gt;Node14 -->
<g id="edge16_Node000011_Node000014" class="edge">
<title>Node11&#45;&gt;Node14</title>
<g id="a_edge16_Node000011_Node000014"><a xlink:title=" ">
<path fill="none" stroke="#63b8ff" d="M417.88,-115.62C446.02,-105.64 493.23,-88.9 525.28,-77.54"/>
<polygon fill="#63b8ff" stroke="#63b8ff" points="526.85,-80.7 535.1,-74.06 524.51,-74.1 526.85,-80.7"/>
</a>
</g>
</g>
<!-- Node14&#45;&gt;Node3 -->
<g id="edge20_Node000014_Node000003" class="edge">
<title>Node14&#45;&gt;Node3</title>
<g id="a_edge20_Node000014_Node000003"><a xlink:title=" ">
<path fill="none" stroke="#63b8ff" d="M544.94,-54.98C531.14,-46.77 510,-34.18 493.72,-24.49"/>
<polygon fill="#63b8ff" stroke="#63b8ff" points="495.18,-21.28 484.8,-19.17 491.6,-27.29 495.18,-21.28"/>
</a>
</g>
</g>
<!-- Node14&#45;&gt;Node5 -->
<g id="edge23_Node000014_Node000005" class="edge">
<title>Node14&#45;&gt;Node5</title>
<g id="a_edge23_Node000014_Node000005"><a xlink:title=" ">
<path fill="none" stroke="#63b8ff" d="M515.05,-54.98C467.09,-45.74 390.43,-30.97 338.75,-21.01"/>
<polygon fill="#63b8ff" stroke="#63b8ff" points="339.25,-17.54 328.77,-19.08 337.92,-24.41 339.25,-17.54"/>
</a>
</g>
</g>
<!-- Node14&#45;&gt;Node7 -->
<g id="edge17_Node000014_Node000007" class="edge">
<title>Node14&#45;&gt;Node7</title>
<g id="a_edge17_Node000014_Node000007"><a xlink:title=" ">
<path fill="none" stroke="#63b8ff" d="M622.06,-54.98C706.51,-43.54 853.51,-23.61 918.17,-14.85"/>
<polygon fill="#63b8ff" stroke="#63b8ff" points="918.73,-18.3 928.17,-13.49 917.79,-11.37 918.73,-18.3"/>
</a>
</g>
</g>
<!-- Node14&#45;&gt;Node9 -->
<g id="edge19_Node000014_Node000009" class="edge">
<title>Node14&#45;&gt;Node9</title>
<g id="a_edge19_Node000014_Node000009"><a xlink:title=" ">
<path fill="none" stroke="#63b8ff" d="M479.27,-54.97C413.13,-47.44 316.56,-35.38 223.51,-19.09"/>
<polygon fill="#63b8ff" stroke="#63b8ff" points="224.1,-15.64 213.64,-17.35 222.88,-22.54 224.1,-15.64"/>
</a>
</g>
</g>
<!-- Node14&#45;&gt;Node12 -->
<g id="edge18_Node000014_Node000012" class="edge">
<title>Node14&#45;&gt;Node12</title>
<g id="a_edge18_Node000014_Node000012"><a xlink:title=" ">
<path fill="none" stroke="#63b8ff" d="M532.25,-54.98C504.04,-46.09 459.6,-32.07 428.16,-22.15"/>
<polygon fill="#63b8ff" stroke="#63b8ff" points="429.03,-18.75 418.44,-19.08 426.93,-25.43 429.03,-18.75"/>
</a>
</g>
</g>
<!-- Node15 -->
<g id="Node000015" class="node">
<title>Node15</title>
<g id="a_Node000015"><a xlink:title=" ">
<polygon fill="#e0e0e0" stroke="#999999" points="605.74,-19 512.74,-19 512.74,0 605.74,0 605.74,-19"/>
<text text-anchor="middle" x="559.24" y="-7" font-family="Helvetica,sans-Serif" font-size="10.00">unordered_map</text>
</a>
</g>
</g>
<!-- Node14&#45;&gt;Node15 -->
<g id="edge21_Node000014_Node000015" class="edge">
<title>Node14&#45;&gt;Node15</title>
<g id="a_edge21_Node000014_Node000015"><a xlink:title=" ">
<path fill="none" stroke="#63b8ff" d="M559.24,-54.75C559.24,-47.8 559.24,-37.85 559.24,-29.13"/>
<polygon fill="#63b8ff" stroke="#63b8ff" points="562.74,-29.09 559.24,-19.09 555.74,-29.09 562.74,-29.09"/>
</a>
</g>
</g>
<!-- Node16 -->
<g id="Node000016" class="node">
<title>Node16</title>
<g id="a_Node000016"><a xlink:title=" ">
<polygon fill="#e0e0e0" stroke="#999999" points="710.24,-19 624.24,-19 624.24,0 710.24,0 710.24,-19"/>
<text text-anchor="middle" x="667.24" y="-7" font-family="Helvetica,sans-Serif" font-size="10.00">unordered_set</text>
</a>
</g>
</g>
<!-- Node14&#45;&gt;Node16 -->
<g id="edge22_Node000014_Node000016" class="edge">
<title>Node14&#45;&gt;Node16</title>
<g id="a_edge22_Node000014_Node000016"><a xlink:title=" ">
<path fill="none" stroke="#63b8ff" d="M576.59,-54.98C593.81,-46.54 620.44,-33.47 640.38,-23.68"/>
<polygon fill="#63b8ff" stroke="#63b8ff" points="642.13,-26.72 649.57,-19.17 639.05,-20.43 642.13,-26.72"/>
</a>
</g>
</g>
<!-- Node17&#45;&gt;Node5 -->
<g id="edge32_Node000017_Node000005" class="edge">
<title>Node17&#45;&gt;Node5</title>
<g id="a_edge32_Node000017_Node000005"><a xlink:title=" ">
<path fill="none" stroke="#63b8ff" d="M762.18,-111.47C759.16,-110.96 756.17,-110.47 753.24,-110 626.71,-89.92 591.99,-103.16 467.24,-74 411.71,-61.02 349.46,-37.38 313.75,-22.89"/>
<polygon fill="#63b8ff" stroke="#63b8ff" points="314.99,-19.62 304.41,-19.06 312.34,-26.09 314.99,-19.62"/>
</a>
</g>
</g>
<!-- Node17&#45;&gt;Node7 -->
<g id="edge25_Node000017_Node000007" class="edge">
<title>Node17&#45;&gt;Node7</title>
<g id="a_edge25_Node000017_Node000007"><a xlink:title=" ">
<path fill="none" stroke="#63b8ff" d="M876.44,-109.9C895.95,-102.15 916.98,-90.63 931.24,-74 941.89,-61.58 946.57,-43.36 948.62,-29.63"/>
<polygon fill="#63b8ff" stroke="#63b8ff" points="952.14,-29.7 949.81,-19.36 945.19,-28.9 952.14,-29.7"/>
</a>
</g>
</g>
<!-- Node17&#45;&gt;Node13 -->
<g id="edge26_Node000017_Node000013" class="edge">
<title>Node17&#45;&gt;Node13</title>
<g id="a_edge26_Node000017_Node000013"><a xlink:title=" ">
<path fill="none" stroke="#63b8ff" d="M868.39,-109.99C899.14,-99.77 940.25,-86.1 968.76,-76.63"/>
<polygon fill="#63b8ff" stroke="#63b8ff" points="969.89,-79.94 978.28,-73.46 967.69,-73.3 969.89,-79.94"/>
</a>
</g>
</g>
<!-- Node17&#45;&gt;Node14 -->
<g id="edge31_Node000017_Node000014" class="edge">
<title>Node17&#45;&gt;Node14</title>
<g id="a_edge31_Node000017_Node000014"><a xlink:title=" ">
<path fill="none" stroke="#63b8ff" d="M762.28,-109.99C715.01,-99.63 651.59,-85.73 608.29,-76.25"/>
<polygon fill="#63b8ff" stroke="#63b8ff" points="608.79,-72.78 598.28,-74.05 607.3,-79.61 608.79,-72.78"/>
</a>
</g>
</g>
<!-- Node18 -->
<g id="Node000018" class="node">
<title>Node18</title>
<g id="a_Node000018"><a xlink:title=" ">
<polygon fill="#e0e0e0" stroke="#999999" points="846.74,-74 805.74,-74 805.74,-55 846.74,-55 846.74,-74"/>
<text text-anchor="middle" x="826.24" y="-62" font-family="Helvetica,sans-Serif" font-size="10.00">tuple</text>
</a>
</g>
</g>
<!-- Node17&#45;&gt;Node18 -->
<g id="edge27_Node000017_Node000018" class="edge">
<title>Node17&#45;&gt;Node18</title>
<g id="a_edge27_Node000017_Node000018"><a xlink:title=" ">
<path fill="none" stroke="#63b8ff" d="M826.24,-109.84C826.24,-102.21 826.24,-92.7 826.24,-84.45"/>
<polygon fill="#63b8ff" stroke="#63b8ff" points="829.74,-84.27 826.24,-74.27 822.74,-84.27 829.74,-84.27"/>
</a>
</g>
</g>
<!-- Node19 -->
<g id="Node000019" class="node">
<title>Node19</title>
<g id="a_Node000019"><a xlink:title=" ">
<polygon fill="#e0e0e0" stroke="#999999" points="1334.24,-74 1284.24,-74 1284.24,-55 1334.24,-55 1334.24,-74"/>
<text text-anchor="middle" x="1309.24" y="-62" font-family="Helvetica,sans-Serif" font-size="10.00">cstdint</text>
</a>
</g>
</g>
<!-- Node17&#45;&gt;Node19 -->
<g id="edge28_Node000017_Node000019" class="edge">
<title>Node17&#45;&gt;Node19</title>
<g id="a_edge28_Node000017_Node000019"><a xlink:title=" ">
<path fill="none" stroke="#63b8ff" d="M890.38,-116.23C993.65,-103.72 1193.35,-79.54 1274.09,-69.76"/>
<polygon fill="#63b8ff" stroke="#63b8ff" points="1274.72,-73.21 1284.23,-68.53 1273.88,-66.26 1274.72,-73.21"/>
</a>
</g>
</g>
<!-- Node20 -->
<g id="Node000020" class="node">
<title>Node20</title>
<g id="a_Node000020"><a xlink:title=" ">
<polygon fill="#e0e0e0" stroke="#999999" points="921.74,-74 864.74,-74 864.74,-55 921.74,-55 921.74,-74"/>
<text text-anchor="middle" x="893.24" y="-62" font-family="Helvetica,sans-Serif" font-size="10.00">ostream</text>
</a>
</g>
</g>
<!-- Node17&#45;&gt;Node20 -->
<g id="edge29_Node000017_Node000020" class="edge">
<title>Node17&#45;&gt;Node20</title>
<g id="a_edge29_Node000017_Node000020"><a xlink:title=" ">
<path fill="none" stroke="#63b8ff" d="M842.46,-109.84C852.48,-101.09 865.35,-89.85 875.62,-80.88"/>
<polygon fill="#63b8ff" stroke="#63b8ff" points="877.97,-83.48 883.2,-74.27 873.36,-78.21 877.97,-83.48"/>
</a>
</g>
</g>
<!-- Node21 -->
<g id="Node000021" class="node">
<title>Node21</title>
<g id="a_Node000021"><a xlink:title=" ">
<polygon fill="#e0e0e0" stroke="#999999" points="787.74,-74 736.74,-74 736.74,-55 787.74,-55 787.74,-74"/>
<text text-anchor="middle" x="762.24" y="-62" font-family="Helvetica,sans-Serif" font-size="10.00">variant</text>
</a>
</g>
</g>
<!-- Node17&#45;&gt;Node21 -->
<g id="edge30_Node000017_Node000021" class="edge">
<title>Node17&#45;&gt;Node21</title>
<g id="a_edge30_Node000017_Node000021"><a xlink:title=" ">
<path fill="none" stroke="#63b8ff" d="M810.75,-109.84C801.27,-101.17 789.12,-90.08 779.36,-81.15"/>
<polygon fill="#63b8ff" stroke="#63b8ff" points="781.57,-78.43 771.83,-74.27 776.85,-83.6 781.57,-78.43"/>
</a>
</g>
</g>
<!-- Node22&#45;&gt;Node5 -->
<g id="edge34_Node000022_Node000005" class="edge">
<title>Node22&#45;&gt;Node5</title>
<g id="a_edge34_Node000022_Node000005"><a xlink:title=" ">
<path fill="none" stroke="#63b8ff" d="M97.78,-109.85C139.18,-87.79 218.57,-45.49 259.1,-23.9"/>
<polygon fill="#63b8ff" stroke="#63b8ff" points="260.87,-26.92 268.05,-19.12 257.58,-20.74 260.87,-26.92"/>
</a>
</g>
</g>
<!-- Node23 -->
<g id="Node000023" class="node">
<title>Node23</title>
<g id="a_Node000023"><a xlink:title=" ">
<polygon fill="#e0e0e0" stroke="#999999" points="73.24,-74 19.24,-74 19.24,-55 73.24,-55 73.24,-74"/>
<text text-anchor="middle" x="46.24" y="-62" font-family="Helvetica,sans-Serif" font-size="10.00">wchar.h</text>
</a>
</g>
</g>
<!-- Node22&#45;&gt;Node23 -->
<g id="edge35_Node000022_Node000023" class="edge">
<title>Node22&#45;&gt;Node23</title>
<g id="a_edge35_Node000022_Node000023"><a xlink:title=" ">
<path fill="none" stroke="#63b8ff" d="M65.19,-109.84C61.82,-101.95 57.59,-92.05 53.98,-83.61"/>
<polygon fill="#63b8ff" stroke="#63b8ff" points="57.13,-82.09 49.98,-74.27 50.7,-84.84 57.13,-82.09"/>
</a>
</g>
</g>
<!-- Node24 -->
<g id="Node000024" class="node">
<title>Node24</title>
<g id="a_Node000024"><a xlink:title=" ">
<polygon fill="#e0e0e0" stroke="#999999" points="138.74,-74 91.74,-74 91.74,-55 138.74,-55 138.74,-74"/>
<text text-anchor="middle" x="115.24" y="-62" font-family="Helvetica,sans-Serif" font-size="10.00">float.h</text>
</a>
</g>
</g>
<!-- Node22&#45;&gt;Node24 -->
<g id="edge36_Node000022_Node000024" class="edge">
<title>Node22&#45;&gt;Node24</title>
<g id="a_edge36_Node000022_Node000024"><a xlink:title=" ">
<path fill="none" stroke="#63b8ff" d="M81.89,-109.84C88.08,-101.61 95.92,-91.18 102.45,-82.51"/>
<polygon fill="#63b8ff" stroke="#63b8ff" points="105.43,-84.36 108.64,-74.27 99.84,-80.15 105.43,-84.36"/>
</a>
</g>
</g>
<!-- Node25&#45;&gt;Node4 -->
<g id="edge39_Node000025_Node000004" class="edge">
<title>Node25&#45;&gt;Node4</title>
<g id="a_edge39_Node000025_Node000004"><a xlink:title=" ">
<path fill="none" stroke="#63b8ff" d="M617.01,-244.86C552.3,-237.1 433.85,-222.25 333.24,-206 326.47,-204.91 319.38,-203.68 312.37,-202.41"/>
<polygon fill="#63b8ff" stroke="#63b8ff" points="312.68,-198.91 302.21,-200.53 311.41,-205.79 312.68,-198.91"/>
</a>
</g>
</g>
<!-- Node25&#45;&gt;Node17 -->
<g id="edge38_Node000025_Node000017" class="edge">
<title>Node25&#45;&gt;Node17</title>
<g id="a_edge38_Node000025_Node000017"><a xlink:title=" ">
<path fill="none" stroke="#63b8ff" d="M680.4,-241.99C695.11,-233.51 717.85,-219.79 736.24,-206 760.75,-187.62 786.7,-164.07 804.4,-147.29"/>
<polygon fill="#63b8ff" stroke="#63b8ff" points="807.11,-149.54 811.91,-140.1 802.27,-144.48 807.11,-149.54"/>
</a>
</g>
</g>
<!-- Node26 -->
<g id="Node000026" class="node">
<title>Node26</title>
<g id="a_Node000026"><a xlink:href="arg_8h.html" target="_top" xlink:title=" ">
<polygon fill="white" stroke="#666666" points="726.74,-200.5 685.74,-200.5 685.74,-181.5 726.74,-181.5 726.74,-200.5"/>
<text text-anchor="middle" x="706.24" y="-188.5" font-family="Helvetica,sans-Serif" font-size="10.00">arg.h</text>
</a>
</g>
</g>
<!-- Node25&#45;&gt;Node26 -->
<g id="edge40_Node000025_Node000026" class="edge">
<title>Node25&#45;&gt;Node26</title>
<g id="a_edge40_Node000025_Node000026"><a xlink:title=" ">
<path fill="none" stroke="#63b8ff" d="M671.29,-241.87C677.34,-233.23 686.82,-219.7 694.38,-208.92"/>
<polygon fill="#63b8ff" stroke="#63b8ff" points="697.29,-210.87 700.16,-200.67 691.56,-206.85 697.29,-210.87"/>
</a>
</g>
</g>
<!-- Node26&#45;&gt;Node6 -->
<g id="edge42_Node000026_Node000006" class="edge">
<title>Node26&#45;&gt;Node6</title>
<g id="a_edge42_Node000026_Node000006"><a xlink:title=" ">
<path fill="none" stroke="#63b8ff" d="M707.59,-181.37C709.04,-172.07 711.4,-156.98 713.28,-144.9"/>
<polygon fill="#63b8ff" stroke="#63b8ff" points="716.76,-145.33 714.85,-134.91 709.84,-144.25 716.76,-145.33"/>
</a>
</g>
</g>
<!-- Node26&#45;&gt;Node13 -->
<g id="edge41_Node000026_Node000013" class="edge">
<title>Node26&#45;&gt;Node13</title>
<g id="a_edge41_Node000026_Node000013"><a xlink:title=" ">
<path fill="none" stroke="#63b8ff" d="M727.02,-185.64C770.23,-176.41 868.31,-154.55 899.24,-140 916.83,-131.72 959.01,-99.54 983.59,-80.28"/>
<polygon fill="#63b8ff" stroke="#63b8ff" points="985.79,-83.01 991.48,-74.07 981.46,-77.51 985.79,-83.01"/>
</a>
</g>
</g>
<!-- Node26&#45;&gt;Node17 -->
<g id="edge43_Node000026_Node000017" class="edge">
<title>Node26&#45;&gt;Node17</title>
<g id="a_edge43_Node000026_Node000017"><a xlink:title=" ">
<path fill="none" stroke="#63b8ff" d="M722.42,-181.37C739.85,-172.07 768.13,-156.99 790.78,-144.91"/>
<polygon fill="#63b8ff" stroke="#63b8ff" points="792.59,-147.91 799.77,-140.12 789.3,-141.73 792.59,-147.91"/>
</a>
</g>
</g>
<!-- Node27&#45;&gt;Node7 -->
<g id="edge46_Node000027_Node000007" class="edge">
<title>Node27&#45;&gt;Node7</title>
<g id="a_edge46_Node000027_Node000007"><a xlink:title=" ">
<path fill="none" stroke="#63b8ff" d="M1114.97,-245.21C1181.32,-239.44 1267.22,-227.92 1294.24,-206 1349.03,-161.55 1390.24,-107.62 1343.24,-55 1319.31,-28.21 1071.94,-15.48 982.38,-11.73"/>
<polygon fill="#63b8ff" stroke="#63b8ff" points="982.4,-8.23 972.27,-11.32 982.12,-15.22 982.4,-8.23"/>
</a>
</g>
</g>
<!-- Node27&#45;&gt;Node13 -->
<g id="edge48_Node000027_Node000013" class="edge">
<title>Node27&#45;&gt;Node13</title>
<g id="a_edge48_Node000027_Node000013"><a xlink:title=" ">
<path fill="none" stroke="#63b8ff" d="M1030.4,-241.73C1028.73,-227.27 1024.05,-197.84 1012.24,-176 1001.91,-156.91 987.11,-160.23 979.24,-140 971.83,-120.96 981.15,-98.47 990.05,-83.22"/>
<polygon fill="#63b8ff" stroke="#63b8ff" points="993.27,-84.68 995.66,-74.36 987.36,-80.94 993.27,-84.68"/>
</a>
</g>
</g>
<!-- Node27&#45;&gt;Node19 -->
<g id="edge50_Node000027_Node000019" class="edge">
<title>Node27&#45;&gt;Node19</title>
<g id="a_edge50_Node000027_Node000019"><a xlink:title=" ">
<path fill="none" stroke="#63b8ff" d="M1114.97,-244.26C1174.51,-238.13 1247.76,-226.61 1270.24,-206 1304.82,-174.3 1309.77,-114.86 1309.87,-84.46"/>
<polygon fill="#63b8ff" stroke="#63b8ff" points="1313.37,-84.3 1309.72,-74.35 1306.37,-84.4 1313.37,-84.3"/>
</a>
</g>
</g>
<!-- Node28 -->
<g id="Node000028" class="node">
<title>Node28</title>
<g id="a_Node000028"><a xlink:title=" ">
<polygon fill="#e0e0e0" stroke="#999999" points="1228.24,-74 1146.24,-74 1146.24,-55 1228.24,-55 1228.24,-74"/>
<text text-anchor="middle" x="1187.24" y="-62" font-family="Helvetica,sans-Serif" font-size="10.00">msgpack.hpp</text>
</a>
</g>
</g>
<!-- Node27&#45;&gt;Node28 -->
<g id="edge45_Node000027_Node000028" class="edge">
<title>Node27&#45;&gt;Node28</title>
<g id="a_edge45_Node000027_Node000028"><a xlink:title=" ">
<path fill="none" stroke="#63b8ff" d="M1114.88,-244.41C1169.56,-238.48 1233.94,-227.15 1251.24,-206 1283.35,-166.74 1233.03,-108.76 1204.59,-81.18"/>
<polygon fill="#63b8ff" stroke="#63b8ff" points="1206.91,-78.56 1197.24,-74.25 1202.11,-83.66 1206.91,-78.56"/>
</a>
</g>
</g>
<!-- Node29 -->
<g id="Node000029" class="node">
<title>Node29</title>
<g id="a_Node000029"><a xlink:title=" ">
<polygon fill="#e0e0e0" stroke="#999999" points="828.74,-200.5 783.74,-200.5 783.74,-181.5 828.74,-181.5 828.74,-200.5"/>
<text text-anchor="middle" x="806.24" y="-188.5" font-family="Helvetica,sans-Serif" font-size="10.00">utility</text>
</a>
</g>
</g>
<!-- Node27&#45;&gt;Node29 -->
<g id="edge47_Node000027_Node000029" class="edge">
<title>Node27&#45;&gt;Node29</title>
<g id="a_edge47_Node000027_Node000029"><a xlink:title=" ">
<path fill="none" stroke="#63b8ff" d="M982.97,-241.96C943.51,-234.36 886.55,-221.99 838.24,-206 836.8,-205.52 835.34,-205.01 833.87,-204.46"/>
<polygon fill="#63b8ff" stroke="#63b8ff" points="834.87,-201.09 824.29,-200.59 832.25,-207.58 834.87,-201.09"/>
</a>
</g>
</g>
<!-- Node30 -->
<g id="Node000030" class="node">
<title>Node30</title>
<g id="a_Node000030"><a xlink:title=" ">
<polygon fill="#e0e0e0" stroke="#999999" points="893.74,-200.5 846.74,-200.5 846.74,-181.5 893.74,-181.5 893.74,-200.5"/>
<text text-anchor="middle" x="870.24" y="-188.5" font-family="Helvetica,sans-Serif" font-size="10.00">deque</text>
</a>
</g>
</g>
<!-- Node27&#45;&gt;Node30 -->
<g id="edge49_Node000027_Node000030" class="edge">
<title>Node27&#45;&gt;Node30</title>
<g id="a_edge49_Node000027_Node000030"><a xlink:title=" ">
<path fill="none" stroke="#63b8ff" d="M1005.07,-241.97C979.07,-233.36 938.14,-219.45 903.24,-206 901.86,-205.47 900.45,-204.91 899.03,-204.35"/>
<polygon fill="#63b8ff" stroke="#63b8ff" points="900.27,-201.07 889.69,-200.51 897.61,-207.55 900.27,-201.07"/>
</a>
</g>
</g>
<!-- Node31 -->
<g id="Node000031" class="node">
<title>Node31</title>
<g id="a_Node000031"><a xlink:title=" ">
<polygon fill="#e0e0e0" stroke="#999999" points="1002.74,-200.5 911.74,-200.5 911.74,-181.5 1002.74,-181.5 1002.74,-200.5"/>
<text text-anchor="middle" x="957.24" y="-188.5" font-family="Helvetica,sans-Serif" font-size="10.00">spdlog/logger.h</text>
</a>
</g>
</g>
<!-- Node27&#45;&gt;Node31 -->
<g id="edge51_Node000027_Node000031" class="edge">
<title>Node27&#45;&gt;Node31</title>
<g id="a_edge51_Node000027_Node000031"><a xlink:title=" ">
<path fill="none" stroke="#63b8ff" d="M1020.32,-241.87C1008.73,-232.71 990.2,-218.06 976.22,-207.01"/>
<polygon fill="#63b8ff" stroke="#63b8ff" points="978.22,-204.12 968.2,-200.67 973.88,-209.61 978.22,-204.12"/>
</a>
</g>
</g>
<!-- Node32 -->
<g id="Node000032" class="node">
<title>Node32</title>
<g id="a_Node000032"><a xlink:href="u8string_8h.html" target="_top" xlink:title=" ">
<polygon fill="white" stroke="#666666" points="1150.24,-134.5 988.24,-134.5 988.24,-115.5 1150.24,-115.5 1150.24,-134.5"/>
<text text-anchor="middle" x="1069.24" y="-122.5" font-family="Helvetica,sans-Serif" font-size="10.00">webcface/message/u8string.h</text>
</a>
</g>
</g>
<!-- Node27&#45;&gt;Node32 -->
<g id="edge52_Node000027_Node000032" class="edge">
<title>Node27&#45;&gt;Node32</title>
<g id="a_edge52_Node000027_Node000032"><a xlink:title=" ">
<path fill="none" stroke="#63b8ff" d="M1033.96,-241.98C1036.8,-233.03 1041.38,-218.54 1045.24,-206 1051.67,-185.05 1058.88,-160.96 1063.7,-144.73"/>
<polygon fill="#63b8ff" stroke="#63b8ff" points="1067.13,-145.47 1066.61,-134.89 1060.41,-143.48 1067.13,-145.47"/>
</a>
</g>
</g>
<!-- Node34 -->
<g id="Node000034" class="node">
<title>Node34</title>
<g id="a_Node000034"><a xlink:href="message_2include_2webcface_2message_2val__adaptor_8h.html" target="_top" xlink:title=" ">
<polygon fill="white" stroke="#666666" points="1242.24,-206 1114.24,-206 1114.24,-176 1242.24,-176 1242.24,-206"/>
<text text-anchor="start" x="1122.24" y="-194" font-family="Helvetica,sans-Serif" font-size="10.00">webcface/message/val</text>
<text text-anchor="middle" x="1178.24" y="-183" font-family="Helvetica,sans-Serif" font-size="10.00">_adaptor.h</text>
</a>
</g>
</g>
<!-- Node27&#45;&gt;Node34 -->
<g id="edge57_Node000027_Node000034" class="edge">
<title>Node27&#45;&gt;Node34</title>
<g id="a_edge57_Node000027_Node000034"><a xlink:title=" ">
<path fill="none" stroke="#63b8ff" d="M1052.61,-241.99C1073.68,-233.61 1106.51,-220.55 1133.32,-209.87"/>
<polygon fill="#63b8ff" stroke="#63b8ff" points="1134.9,-213.01 1142.9,-206.06 1132.31,-206.51 1134.9,-213.01"/>
</a>
</g>
</g>
<!-- Node35 -->
<g id="Node000035" class="node">
<title>Node35</title>
<g id="a_Node000035"><a xlink:href="image__mode_8h.html" target="_top" xlink:title=" ">
<polygon fill="white" stroke="#666666" points="486.24,-206 342.24,-206 342.24,-176 486.24,-176 486.24,-206"/>
<text text-anchor="start" x="350.24" y="-194" font-family="Helvetica,sans-Serif" font-size="10.00">webcface/encoding/image</text>
<text text-anchor="middle" x="414.24" y="-183" font-family="Helvetica,sans-Serif" font-size="10.00">_mode.h</text>
</a>
</g>
</g>
<!-- Node27&#45;&gt;Node35 -->
<g id="edge64_Node000027_Node000035" class="edge">
<title>Node27&#45;&gt;Node35</title>
<g id="a_edge64_Node000027_Node000035"><a xlink:title=" ">
<path fill="none" stroke="#63b8ff" d="M947.71,-242.58C829.35,-231.36 614.17,-210.96 496.51,-199.8"/>
<polygon fill="#63b8ff" stroke="#63b8ff" points="496.76,-196.31 486.47,-198.85 496.1,-203.28 496.76,-196.31"/>
</a>
</g>
</g>
<!-- Node32&#45;&gt;Node7 -->
<g id="edge56_Node000032_Node000007" class="edge">
<title>Node32&#45;&gt;Node7</title>
<g id="a_edge56_Node000032_Node000007"><a xlink:title=" ">
<path fill="none" stroke="#63b8ff" d="M1066.89,-115.33C1062.67,-101.15 1052.59,-72.78 1035.24,-55 1020.55,-39.95 999.68,-28.92 982.3,-21.61"/>
<polygon fill="#63b8ff" stroke="#63b8ff" points="983.13,-18.17 972.54,-17.73 980.54,-24.68 983.13,-18.17"/>
</a>
</g>
</g>
<!-- Node32&#45;&gt;Node14 -->
<g id="edge54_Node000032_Node000014" class="edge">
<title>Node32&#45;&gt;Node14</title>
<g id="a_edge54_Node000032_Node000014"><a xlink:title=" ">
<path fill="none" stroke="#63b8ff" d="M995.08,-115.49C901.69,-104.78 741.63,-86.42 643.65,-75.18"/>
<polygon fill="#63b8ff" stroke="#63b8ff" points="643.82,-71.68 633.49,-74.02 643.02,-78.63 643.82,-71.68"/>
</a>
</g>
</g>
<!-- Node32&#45;&gt;Node28 -->
<g id="edge55_Node000032_Node000028" class="edge">
<title>Node32&#45;&gt;Node28</title>
<g id="a_edge55_Node000032_Node000028"><a xlink:title=" ">
<path fill="none" stroke="#63b8ff" d="M1086.4,-115.49C1105.97,-105.79 1138.21,-89.81 1160.96,-78.53"/>
<polygon fill="#63b8ff" stroke="#63b8ff" points="1162.65,-81.59 1170.06,-74.02 1159.54,-75.32 1162.65,-81.59"/>
</a>
</g>
</g>
<!-- Node33 -->
<g id="Node000033" class="node">
<title>Node33</title>
<g id="a_Node000033"><a xlink:title=" ">
<polygon fill="#e0e0e0" stroke="#999999" points="1127.74,-74 1082.74,-74 1082.74,-55 1127.74,-55 1127.74,-74"/>
<text text-anchor="middle" x="1105.24" y="-62" font-family="Helvetica,sans-Serif" font-size="10.00">utf8.h</text>
</a>
</g>
</g>
<!-- Node32&#45;&gt;Node33 -->
<g id="edge53_Node000032_Node000033" class="edge">
<title>Node32&#45;&gt;Node33</title>
<g id="a_edge53_Node000032_Node000033"><a xlink:title=" ">
<path fill="none" stroke="#63b8ff" d="M1074.55,-115.37C1079.81,-106.81 1088.02,-93.47 1094.63,-82.74"/>
<polygon fill="#63b8ff" stroke="#63b8ff" points="1097.64,-84.52 1099.9,-74.17 1091.68,-80.85 1097.64,-84.52"/>
</a>
</g>
</g>
<!-- Node34&#45;&gt;Node7 -->
<g id="edge60_Node000034_Node000007" class="edge">
<title>Node34&#45;&gt;Node7</title>
<g id="a_edge60_Node000034_Node000007"><a xlink:title=" ">
<path fill="none" stroke="#63b8ff" d="M1193.45,-175.9C1220.03,-149.58 1269.19,-92.29 1237.24,-55 1204.69,-17.02 1050.23,-11.18 982.36,-10.48"/>
<polygon fill="#63b8ff" stroke="#63b8ff" points="982.27,-6.98 972.24,-10.4 982.21,-13.98 982.27,-6.98"/>
</a>
</g>
</g>
<!-- Node34&#45;&gt;Node17 -->
<g id="edge58_Node000034_Node000017" class="edge">
<title>Node34&#45;&gt;Node17</title>
<g id="a_edge58_Node000034_Node000017"><a xlink:title=" ">
<path fill="none" stroke="#63b8ff" d="M1114.09,-178.34C1053.76,-167.37 963.49,-150.96 900.17,-139.44"/>
<polygon fill="#63b8ff" stroke="#63b8ff" points="900.71,-135.98 890.25,-137.64 899.46,-142.87 900.71,-135.98"/>
</a>
</g>
</g>
<!-- Node34&#45;&gt;Node19 -->
<g id="edge61_Node000034_Node000019" class="edge">
<title>Node34&#45;&gt;Node19</title>
<g id="a_edge61_Node000034_Node000019"><a xlink:title=" ">
<path fill="none" stroke="#63b8ff" d="M1213.75,-175.94C1231.69,-167.53 1252.85,-155.45 1268.24,-140 1284.31,-123.87 1295.89,-100.14 1302.57,-83.82"/>
<polygon fill="#63b8ff" stroke="#63b8ff" points="1305.9,-84.9 1306.24,-74.31 1299.37,-82.38 1305.9,-84.9"/>
</a>
</g>
</g>
<!-- Node34&#45;&gt;Node28 -->
<g id="edge59_Node000034_Node000028" class="edge">
<title>Node34&#45;&gt;Node28</title>
<g id="a_edge59_Node000034_Node000028"><a xlink:title=" ">
<path fill="none" stroke="#63b8ff" d="M1183.34,-175.78C1186.61,-165.89 1190.55,-152.32 1192.24,-140 1194.05,-126.79 1192.98,-123.31 1192.24,-110 1191.76,-101.45 1190.77,-92.03 1189.79,-84.06"/>
<polygon fill="#63b8ff" stroke="#63b8ff" points="1193.25,-83.47 1188.48,-74.01 1186.3,-84.38 1193.25,-83.47"/>
</a>
</g>
</g>
<!-- Node34&#45;&gt;Node32 -->
<g id="edge63_Node000034_Node000032" class="edge">
<title>Node34&#45;&gt;Node32</title>
<g id="a_edge63_Node000034_Node000032"><a xlink:title=" ">
<path fill="none" stroke="#63b8ff" d="M1154.32,-175.95C1135.96,-165.18 1110.76,-150.38 1092.55,-139.69"/>
<polygon fill="#63b8ff" stroke="#63b8ff" points="1094.14,-136.56 1083.74,-134.52 1090.6,-142.6 1094.14,-136.56"/>
</a>
</g>
</g>
<!-- Node34&#45;&gt;Node33 -->
<g id="edge62_Node000034_Node000033" class="edge">
<title>Node34&#45;&gt;Node33</title>
<g id="a_edge62_Node000034_Node000033"><a xlink:title=" ">
<path fill="none" stroke="#63b8ff" d="M1177.59,-175.95C1176.24,-159.12 1172.07,-130.6 1159.24,-110 1151.71,-97.92 1139.76,-87.57 1129.01,-79.91"/>
<polygon fill="#63b8ff" stroke="#63b8ff" points="1130.64,-76.79 1120.39,-74.12 1126.74,-82.6 1130.64,-76.79"/>
</a>
</g>
</g>
<!-- Node35&#45;&gt;Node5 -->
<g id="edge65_Node000035_Node000005" class="edge">
<title>Node35&#45;&gt;Node5</title>
<g id="a_edge65_Node000035_Node000005"><a xlink:title=" ">
<path fill="none" stroke="#63b8ff" d="M397.2,-175.69C386.46,-166.2 372.71,-153.12 362.24,-140 332.75,-103.06 306.15,-54 292.97,-28.16"/>
<polygon fill="#63b8ff" stroke="#63b8ff" points="296.07,-26.54 288.45,-19.18 289.82,-29.69 296.07,-26.54"/>
</a>
</g>
</g>
</g>
</svg>
