<?xml version="1.0" encoding="UTF-8" standalone="no"?>
<!DOCTYPE svg PUBLIC "-//W3C//DTD SVG 1.1//EN"
 "http://www.w3.org/Graphics/SVG/1.1/DTD/svg11.dtd">
<!-- Generated by graphviz version 2.43.0 (0)
 -->
<!-- Title: client/include/webcface/internal/func_internal.h Pages: 1 -->
<svg width="1218pt" height="379pt"
 viewBox="0.00 0.00 1218.00 379.00" xmlns="http://www.w3.org/2000/svg" xmlns:xlink="http://www.w3.org/1999/xlink">
<g id="graph0" class="graph" transform="scale(1 1) rotate(0) translate(4 375)">
<title>client/include/webcface/internal/func_internal.h</title>
<!-- Node1 -->
<g id="Node000001" class="node">
<title>Node1</title>
<g id="a_Node000001"><a xlink:title=" ">
<polygon fill="#999999" stroke="#666666" points="668,-371 535,-371 535,-341 668,-341 668,-371"/>
<text text-anchor="start" x="543" y="-359" font-family="Helvetica,sans-Serif" font-size="10.00">client/include/webcface</text>
<text text-anchor="middle" x="601.5" y="-348" font-family="Helvetica,sans-Serif" font-size="10.00">/internal/func_internal.h</text>
</a>
</g>
</g>
<!-- Node2 -->
<g id="Node000002" class="node">
<title>Node2</title>
<g id="a_Node000002"><a xlink:title=" ">
<polygon fill="#e0e0e0" stroke="#999999" points="533,-305 440,-305 440,-286 533,-286 533,-305"/>
<text text-anchor="middle" x="486.5" y="-293" font-family="Helvetica,sans-Serif" font-size="10.00">unordered_map</text>
</a>
</g>
</g>
<!-- Node1&#45;&gt;Node2 -->
<g id="edge1_Node000001_Node000002" class="edge">
<title>Node1&#45;&gt;Node2</title>
<g id="a_edge1_Node000001_Node000002"><a xlink:title=" ">
<path fill="none" stroke="#63b8ff" d="M573.95,-340.99C555.28,-331.49 530.76,-319.02 512.44,-309.69"/>
<polygon fill="#63b8ff" stroke="#63b8ff" points="513.98,-306.55 503.48,-305.14 510.81,-312.79 513.98,-306.55"/>
</a>
</g>
</g>
<!-- Node3 -->
<g id="Node000003" class="node">
<title>Node3</title>
<g id="a_Node000003"><a xlink:title=" ">
<polygon fill="#e0e0e0" stroke="#999999" points="599.5,-305 551.5,-305 551.5,-286 599.5,-286 599.5,-305"/>
<text text-anchor="middle" x="575.5" y="-293" font-family="Helvetica,sans-Serif" font-size="10.00">mutex</text>
</a>
</g>
</g>
<!-- Node1&#45;&gt;Node3 -->
<g id="edge2_Node000001_Node000003" class="edge">
<title>Node1&#45;&gt;Node3</title>
<g id="a_edge2_Node000001_Node000003"><a xlink:title=" ">
<path fill="none" stroke="#63b8ff" d="M595.21,-340.84C591.7,-332.95 587.3,-323.05 583.55,-314.61"/>
<polygon fill="#63b8ff" stroke="#63b8ff" points="586.66,-312.98 579.4,-305.27 580.26,-315.83 586.66,-312.98"/>
</a>
</g>
</g>
<!-- Node4 -->
<g id="Node000004" class="node">
<title>Node4</title>
<g id="a_Node000004"><a xlink:href="func__result_8h.html" target="_top" xlink:title=" ">
<polygon fill="white" stroke="#666666" points="565,-250 436,-250 436,-231 565,-231 565,-250"/>
<text text-anchor="middle" x="500.5" y="-238" font-family="Helvetica,sans-Serif" font-size="10.00">webcface/func_result.h</text>
</a>
</g>
</g>
<!-- Node1&#45;&gt;Node4 -->
<g id="edge3_Node000001_Node000004" class="edge">
<title>Node1&#45;&gt;Node4</title>
<g id="a_edge3_Node000001_Node000004"><a xlink:title=" ">
<path fill="none" stroke="#63b8ff" d="M607.92,-340.75C613.6,-325.82 619.42,-302.31 608.5,-286 597.89,-270.15 580.49,-259.94 562.72,-253.36"/>
<polygon fill="#63b8ff" stroke="#63b8ff" points="563.45,-249.91 552.86,-250.07 561.24,-256.55 563.45,-249.91"/>
</a>
</g>
</g>
<!-- Node28 -->
<g id="Node000028" class="node">
<title>Node28</title>
<g id="a_Node000028"><a xlink:href="client_2include_2webcface_2func_8h.html" target="_top" xlink:title=" ">
<polygon fill="white" stroke="#666666" points="859.5,-305 763.5,-305 763.5,-286 859.5,-286 859.5,-305"/>
<text text-anchor="middle" x="811.5" y="-293" font-family="Helvetica,sans-Serif" font-size="10.00">webcface/func.h</text>
</a>
</g>
</g>
<!-- Node1&#45;&gt;Node28 -->
<g id="edge42_Node000001_Node000028" class="edge">
<title>Node1&#45;&gt;Node28</title>
<g id="a_edge42_Node000001_Node000028"><a xlink:title=" ">
<path fill="none" stroke="#63b8ff" d="M651.8,-340.99C688.2,-330.85 736.76,-317.32 770.75,-307.85"/>
<polygon fill="#63b8ff" stroke="#63b8ff" points="772.1,-311.11 780.79,-305.05 770.22,-304.37 772.1,-311.11"/>
</a>
</g>
</g>
<!-- Node5 -->
<g id="Node000005" class="node">
<title>Node5</title>
<g id="a_Node000005"><a xlink:href="val__adaptor__vec_8h.html" target="_top" xlink:title=" ">
<polygon fill="white" stroke="#666666" points="986,-195 859,-195 859,-165 986,-165 986,-195"/>
<text text-anchor="start" x="867" y="-183" font-family="Helvetica,sans-Serif" font-size="10.00">webcface/common/val</text>
<text text-anchor="middle" x="922.5" y="-172" font-family="Helvetica,sans-Serif" font-size="10.00">_adaptor_vec.h</text>
</a>
</g>
</g>
<!-- Node4&#45;&gt;Node5 -->
<g id="edge4_Node000004_Node000005" class="edge">
<title>Node4&#45;&gt;Node5</title>
<g id="a_edge4_Node000004_Node000005"><a xlink:title=" ">
<path fill="none" stroke="#63b8ff" d="M561.86,-230.99C637.93,-220.45 767.46,-202.49 848.82,-191.21"/>
<polygon fill="#63b8ff" stroke="#63b8ff" points="849.57,-194.64 858.99,-189.8 848.61,-187.71 849.57,-194.64"/>
</a>
</g>
</g>
<!-- Node6 -->
<g id="Node000006" class="node">
<title>Node6</title>
<g id="a_Node000006"><a xlink:href="common_2val__adaptor_8h.html" target="_top" xlink:title=" ">
<polygon fill="white" stroke="#666666" points="872,-129 789,-129 789,-110 872,-110 872,-129"/>
<text text-anchor="middle" x="830.5" y="-117" font-family="Helvetica,sans-Serif" font-size="10.00">val_adaptor.h</text>
</a>
</g>
</g>
<!-- Node4&#45;&gt;Node6 -->
<g id="edge37_Node000004_Node000006" class="edge">
<title>Node4&#45;&gt;Node6</title>
<g id="a_edge37_Node000004_Node000006"><a xlink:title=" ">
<path fill="none" stroke="#63b8ff" d="M551,-230.93C583.71,-224.1 626.58,-212.69 661.5,-195 680.69,-185.27 680.59,-175.28 699.5,-165 726.42,-150.37 759.04,-139.27 784.99,-131.81"/>
<polygon fill="#63b8ff" stroke="#63b8ff" points="786.26,-135.1 794.95,-129.04 784.38,-128.35 786.26,-135.1"/>
</a>
</g>
</g>
<!-- Node15 -->
<g id="Node000015" class="node">
<title>Node15</title>
<g id="a_Node000015"><a xlink:title=" ">
<polygon fill="#e0e0e0" stroke="#999999" points="139.5,-19 81.5,-19 81.5,0 139.5,0 139.5,-19"/>
<text text-anchor="middle" x="110.5" y="-7" font-family="Helvetica,sans-Serif" font-size="10.00">memory</text>
</a>
</g>
</g>
<!-- Node4&#45;&gt;Node15 -->
<g id="edge25_Node000004_Node000015" class="edge">
<title>Node4&#45;&gt;Node15</title>
<g id="a_edge25_Node000004_Node000015"><a xlink:title=" ">
<path fill="none" stroke="#63b8ff" d="M435.8,-233.93C367.87,-227.17 266.32,-214.25 232.5,-195 171.37,-160.21 164.39,-135.63 130.5,-74 122.75,-59.9 117.51,-42.36 114.35,-29.28"/>
<polygon fill="#63b8ff" stroke="#63b8ff" points="117.68,-28.15 112.09,-19.15 110.85,-29.67 117.68,-28.15"/>
</a>
</g>
</g>
<!-- Node16 -->
<g id="Node000016" class="node">
<title>Node16</title>
<g id="a_Node000016"><a xlink:href="webcface-config_8h.html" target="_top" xlink:title=" ">
<polygon fill="white" stroke="#666666" points="583,-19 478,-19 478,0 583,0 583,-19"/>
<text text-anchor="middle" x="530.5" y="-7" font-family="Helvetica,sans-Serif" font-size="10.00">webcface&#45;config.h</text>
</a>
</g>
</g>
<!-- Node4&#45;&gt;Node16 -->
<g id="edge22_Node000004_Node000016" class="edge">
<title>Node4&#45;&gt;Node16</title>
<g id="a_edge22_Node000004_Node000016"><a xlink:title=" ">
<path fill="none" stroke="#63b8ff" d="M498,-230.92C492.28,-210.03 479.41,-154.92 488.5,-110 494.61,-79.8 510.19,-47.36 520.56,-28.01"/>
<polygon fill="#63b8ff" stroke="#63b8ff" points="523.67,-29.62 525.43,-19.17 517.54,-26.24 523.67,-29.62"/>
</a>
</g>
</g>
<!-- Node17 -->
<g id="Node000017" class="node">
<title>Node17</title>
<g id="a_Node000017"><a xlink:href="exception_8h.html" target="_top" xlink:title=" ">
<polygon fill="white" stroke="#666666" points="652,-189.5 529,-189.5 529,-170.5 652,-170.5 652,-189.5"/>
<text text-anchor="middle" x="590.5" y="-177.5" font-family="Helvetica,sans-Serif" font-size="10.00">webcface/exception.h</text>
</a>
</g>
</g>
<!-- Node4&#45;&gt;Node17 -->
<g id="edge19_Node000004_Node000017" class="edge">
<title>Node4&#45;&gt;Node17</title>
<g id="a_edge19_Node000004_Node000017"><a xlink:title=" ">
<path fill="none" stroke="#63b8ff" d="M513.78,-230.87C528.14,-221.54 551.26,-206.51 568.37,-195.38"/>
<polygon fill="#63b8ff" stroke="#63b8ff" points="570.69,-198.05 577.17,-189.67 566.87,-192.18 570.69,-198.05"/>
</a>
</g>
</g>
<!-- Node18 -->
<g id="Node000018" class="node">
<title>Node18</title>
<g id="a_Node000018"><a xlink:title=" ">
<polygon fill="#e0e0e0" stroke="#999999" points="562,-129 497,-129 497,-110 562,-110 562,-129"/>
<text text-anchor="middle" x="529.5" y="-117" font-family="Helvetica,sans-Serif" font-size="10.00">stdexcept</text>
</a>
</g>
</g>
<!-- Node4&#45;&gt;Node18 -->
<g id="edge26_Node000004_Node000018" class="edge">
<title>Node4&#45;&gt;Node18</title>
<g id="a_edge26_Node000004_Node000018"><a xlink:title=" ">
<path fill="none" stroke="#63b8ff" d="M502.59,-230.94C507.24,-211.82 518.59,-165.27 524.96,-139.12"/>
<polygon fill="#63b8ff" stroke="#63b8ff" points="528.39,-139.85 527.36,-129.3 521.59,-138.19 528.39,-139.85"/>
</a>
</g>
</g>
<!-- Node19 -->
<g id="Node000019" class="node">
<title>Node19</title>
<g id="a_Node000019"><a xlink:title=" ">
<polygon fill="#e0e0e0" stroke="#999999" points="764.5,-189.5 708.5,-189.5 708.5,-170.5 764.5,-170.5 764.5,-189.5"/>
<text text-anchor="middle" x="736.5" y="-177.5" font-family="Helvetica,sans-Serif" font-size="10.00">optional</text>
</a>
</g>
</g>
<!-- Node4&#45;&gt;Node19 -->
<g id="edge23_Node000004_Node000019" class="edge">
<title>Node4&#45;&gt;Node19</title>
<g id="a_edge23_Node000004_Node000019"><a xlink:title=" ">
<path fill="none" stroke="#63b8ff" d="M543.18,-230.94C582.69,-222.73 642.93,-209.47 694.5,-195 697.12,-194.27 699.81,-193.47 702.51,-192.64"/>
<polygon fill="#63b8ff" stroke="#63b8ff" points="703.73,-195.92 712.19,-189.54 701.6,-189.25 703.73,-195.92"/>
</a>
</g>
</g>
<!-- Node20 -->
<g id="Node000020" class="node">
<title>Node20</title>
<g id="a_Node000020"><a xlink:title=" ">
<polygon fill="#e0e0e0" stroke="#999999" points="434.5,-189.5 388.5,-189.5 388.5,-170.5 434.5,-170.5 434.5,-189.5"/>
<text text-anchor="middle" x="411.5" y="-177.5" font-family="Helvetica,sans-Serif" font-size="10.00">future</text>
</a>
</g>
</g>
<!-- Node4&#45;&gt;Node20 -->
<g id="edge24_Node000004_Node000020" class="edge">
<title>Node4&#45;&gt;Node20</title>
<g id="a_edge24_Node000004_Node000020"><a xlink:title=" ">
<path fill="none" stroke="#63b8ff" d="M487.37,-230.87C473.17,-221.54 450.3,-206.51 433.38,-195.38"/>
<polygon fill="#63b8ff" stroke="#63b8ff" points="434.97,-192.24 424.69,-189.67 431.12,-198.08 434.97,-192.24"/>
</a>
</g>
</g>
<!-- Node21 -->
<g id="Node000021" class="node">
<title>Node21</title>
<g id="a_Node000021"><a xlink:title=" ">
<polygon fill="#e0e0e0" stroke="#999999" points="65,-189.5 0,-189.5 0,-170.5 65,-170.5 65,-189.5"/>
<text text-anchor="middle" x="32.5" y="-177.5" font-family="Helvetica,sans-Serif" font-size="10.00">functional</text>
</a>
</g>
</g>
<!-- Node4&#45;&gt;Node21 -->
<g id="edge27_Node000004_Node000021" class="edge">
<title>Node4&#45;&gt;Node21</title>
<g id="a_edge27_Node000004_Node000021"><a xlink:title=" ">
<path fill="none" stroke="#63b8ff" d="M435.75,-236.36C352.61,-231.49 204.18,-219.94 79.5,-195 75.77,-194.25 71.92,-193.34 68.09,-192.35"/>
<polygon fill="#63b8ff" stroke="#63b8ff" points="68.72,-188.89 58.14,-189.57 66.83,-195.63 68.72,-188.89"/>
</a>
</g>
</g>
<!-- Node22 -->
<g id="Node000022" class="node">
<title>Node22</title>
<g id="a_Node000022"><a xlink:href="field_8h.html" target="_top" xlink:title=" ">
<polygon fill="white" stroke="#666666" points="265,-129 218,-129 218,-110 265,-110 265,-129"/>
<text text-anchor="middle" x="241.5" y="-117" font-family="Helvetica,sans-Serif" font-size="10.00">field.h</text>
</a>
</g>
</g>
<!-- Node4&#45;&gt;Node22 -->
<g id="edge28_Node000004_Node000022" class="edge">
<title>Node4&#45;&gt;Node22</title>
<g id="a_edge28_Node000004_Node000022"><a xlink:title=" ">
<path fill="none" stroke="#63b8ff" d="M435.82,-236.77C369.67,-232.51 273.19,-221.78 248.5,-195 234.91,-180.26 235.16,-156.2 237.51,-139.43"/>
<polygon fill="#63b8ff" stroke="#63b8ff" points="241.02,-139.64 239.32,-129.18 234.13,-138.42 241.02,-139.64"/>
</a>
</g>
</g>
<!-- Node25 -->
<g id="Node000025" class="node">
<title>Node25</title>
<g id="a_Node000025"><a xlink:href="def__types_8h.html" target="_top" xlink:title=" ">
<polygon fill="white" stroke="#666666" points="370,-195 257,-195 257,-165 370,-165 370,-195"/>
<text text-anchor="start" x="265" y="-183" font-family="Helvetica,sans-Serif" font-size="10.00">webcface/c_wcf/def</text>
<text text-anchor="middle" x="313.5" y="-172" font-family="Helvetica,sans-Serif" font-size="10.00">_types.h</text>
</a>
</g>
</g>
<!-- Node4&#45;&gt;Node25 -->
<g id="edge38_Node000004_Node000025" class="edge">
<title>Node4&#45;&gt;Node25</title>
<g id="a_edge38_Node000004_Node000025"><a xlink:title=" ">
<path fill="none" stroke="#63b8ff" d="M473.31,-230.99C445.93,-222.43 402.91,-208.97 368.4,-198.18"/>
<polygon fill="#63b8ff" stroke="#63b8ff" points="369.05,-194.71 358.46,-195.06 366.96,-201.39 369.05,-194.71"/>
</a>
</g>
</g>
<!-- Node5&#45;&gt;Node6 -->
<g id="edge5_Node000005_Node000006" class="edge">
<title>Node5&#45;&gt;Node6</title>
<g id="a_edge5_Node000005_Node000006"><a xlink:title=" ">
<path fill="none" stroke="#63b8ff" d="M900.23,-164.84C885.83,-155.68 867.17,-143.82 852.77,-134.66"/>
<polygon fill="#63b8ff" stroke="#63b8ff" points="854.33,-131.51 844.02,-129.09 850.58,-137.41 854.33,-131.51"/>
</a>
</g>
</g>
<!-- Node5&#45;&gt;Node16 -->
<g id="edge18_Node000005_Node000016" class="edge">
<title>Node5&#45;&gt;Node16</title>
<g id="a_edge18_Node000005_Node000016"><a xlink:title=" ">
<path fill="none" stroke="#63b8ff" d="M939.11,-164.87C966.19,-140.17 1013.96,-88.59 983.5,-55 957.78,-26.63 711.26,-15.71 593.09,-12.08"/>
<polygon fill="#63b8ff" stroke="#63b8ff" points="593.19,-8.58 583.09,-11.78 592.98,-15.58 593.19,-8.58"/>
</a>
</g>
</g>
<!-- Node7 -->
<g id="Node000007" class="node">
<title>Node7</title>
<g id="a_Node000007"><a xlink:title=" ">
<polygon fill="#e0e0e0" stroke="#999999" points="293.5,-19 249.5,-19 249.5,0 293.5,0 293.5,-19"/>
<text text-anchor="middle" x="271.5" y="-7" font-family="Helvetica,sans-Serif" font-size="10.00">string</text>
</a>
</g>
</g>
<!-- Node6&#45;&gt;Node7 -->
<g id="edge6_Node000006_Node000007" class="edge">
<title>Node6&#45;&gt;Node7</title>
<g id="a_edge6_Node000006_Node000007"><a xlink:title=" ">
<path fill="none" stroke="#63b8ff" d="M788.66,-110.18C755.15,-102.78 707.31,-90.57 667.5,-74 651.88,-67.5 650.55,-60.36 634.5,-55 517.5,-15.94 369.04,-10.54 304.24,-10.2"/>
<polygon fill="#63b8ff" stroke="#63b8ff" points="303.86,-6.7 293.86,-10.19 303.85,-13.7 303.86,-6.7"/>
</a>
</g>
</g>
<!-- Node8 -->
<g id="Node000008" class="node">
<title>Node8</title>
<g id="a_Node000008"><a xlink:title=" ">
<polygon fill="#e0e0e0" stroke="#999999" points="625,-74 578,-74 578,-55 625,-55 625,-74"/>
<text text-anchor="middle" x="601.5" y="-62" font-family="Helvetica,sans-Serif" font-size="10.00">vector</text>
</a>
</g>
</g>
<!-- Node6&#45;&gt;Node8 -->
<g id="edge7_Node000006_Node000008" class="edge">
<title>Node6&#45;&gt;Node8</title>
<g id="a_edge7_Node000006_Node000008"><a xlink:title=" ">
<path fill="none" stroke="#63b8ff" d="M793.71,-109.98C749.91,-99.85 677.38,-83.06 635.06,-73.27"/>
<polygon fill="#63b8ff" stroke="#63b8ff" points="635.77,-69.84 625.24,-70.99 634.19,-76.66 635.77,-69.84"/>
</a>
</g>
</g>
<!-- Node9 -->
<g id="Node000009" class="node">
<title>Node9</title>
<g id="a_Node000009"><a xlink:title=" ">
<polygon fill="#e0e0e0" stroke="#999999" points="974,-74 933,-74 933,-55 974,-55 974,-74"/>
<text text-anchor="middle" x="953.5" y="-62" font-family="Helvetica,sans-Serif" font-size="10.00">tuple</text>
</a>
</g>
</g>
<!-- Node6&#45;&gt;Node9 -->
<g id="edge8_Node000006_Node000009" class="edge">
<title>Node6&#45;&gt;Node9</title>
<g id="a_edge8_Node000006_Node000009"><a xlink:title=" ">
<path fill="none" stroke="#63b8ff" d="M850.26,-109.98C870.23,-101.38 901.3,-87.99 924.15,-78.15"/>
<polygon fill="#63b8ff" stroke="#63b8ff" points="925.58,-81.34 933.38,-74.17 922.81,-74.91 925.58,-81.34"/>
</a>
</g>
</g>
<!-- Node10 -->
<g id="Node000010" class="node">
<title>Node10</title>
<g id="a_Node000010"><a xlink:title=" ">
<polygon fill="#e0e0e0" stroke="#999999" points="839.5,-74 789.5,-74 789.5,-55 839.5,-55 839.5,-74"/>
<text text-anchor="middle" x="814.5" y="-62" font-family="Helvetica,sans-Serif" font-size="10.00">cstdint</text>
</a>
</g>
</g>
<!-- Node6&#45;&gt;Node10 -->
<g id="edge9_Node000006_Node000010" class="edge">
<title>Node6&#45;&gt;Node10</title>
<g id="a_edge9_Node000006_Node000010"><a xlink:title=" ">
<path fill="none" stroke="#63b8ff" d="M827.86,-109.75C825.74,-102.72 822.69,-92.62 820.04,-83.84"/>
<polygon fill="#63b8ff" stroke="#63b8ff" points="823.33,-82.65 817.09,-74.09 816.63,-84.67 823.33,-82.65"/>
</a>
</g>
</g>
<!-- Node11 -->
<g id="Node000011" class="node">
<title>Node11</title>
<g id="a_Node000011"><a xlink:title=" ">
<polygon fill="#e0e0e0" stroke="#999999" points="915,-74 858,-74 858,-55 915,-55 915,-74"/>
<text text-anchor="middle" x="886.5" y="-62" font-family="Helvetica,sans-Serif" font-size="10.00">ostream</text>
</a>
</g>
</g>
<!-- Node6&#45;&gt;Node11 -->
<g id="edge10_Node000006_Node000011" class="edge">
<title>Node6&#45;&gt;Node11</title>
<g id="a_edge10_Node000006_Node000011"><a xlink:title=" ">
<path fill="none" stroke="#63b8ff" d="M839.5,-109.98C847.69,-102.23 860.01,-90.58 869.97,-81.14"/>
<polygon fill="#63b8ff" stroke="#63b8ff" points="872.48,-83.59 877.34,-74.17 867.67,-78.5 872.48,-83.59"/>
</a>
</g>
</g>
<!-- Node12 -->
<g id="Node000012" class="node">
<title>Node12</title>
<g id="a_Node000012"><a xlink:title=" ">
<polygon fill="#e0e0e0" stroke="#999999" points="771,-74 720,-74 720,-55 771,-55 771,-74"/>
<text text-anchor="middle" x="745.5" y="-62" font-family="Helvetica,sans-Serif" font-size="10.00">variant</text>
</a>
</g>
</g>
<!-- Node6&#45;&gt;Node12 -->
<g id="edge11_Node000006_Node000012" class="edge">
<title>Node6&#45;&gt;Node12</title>
<g id="a_edge11_Node000006_Node000012"><a xlink:title=" ">
<path fill="none" stroke="#63b8ff" d="M816.84,-109.98C803.66,-101.77 783.47,-89.18 767.93,-79.49"/>
<polygon fill="#63b8ff" stroke="#63b8ff" points="769.74,-76.49 759.41,-74.17 766.04,-82.43 769.74,-76.49"/>
</a>
</g>
</g>
<!-- Node13 -->
<g id="Node000013" class="node">
<title>Node13</title>
<g id="a_Node000013"><a xlink:href="common_2encoding_8h.html" target="_top" xlink:title=" ">
<polygon fill="white" stroke="#666666" points="229.5,-74 159.5,-74 159.5,-55 229.5,-55 229.5,-74"/>
<text text-anchor="middle" x="194.5" y="-62" font-family="Helvetica,sans-Serif" font-size="10.00">encoding.h</text>
</a>
</g>
</g>
<!-- Node6&#45;&gt;Node13 -->
<g id="edge12_Node000006_Node000013" class="edge">
<title>Node6&#45;&gt;Node13</title>
<g id="a_edge12_Node000006_Node000013"><a xlink:title=" ">
<path fill="none" stroke="#63b8ff" d="M788.77,-115.02C674.63,-105.51 357.91,-79.12 239.73,-69.27"/>
<polygon fill="#63b8ff" stroke="#63b8ff" points="239.84,-65.77 229.59,-68.42 239.26,-72.74 239.84,-65.77"/>
</a>
</g>
</g>
<!-- Node6&#45;&gt;Node16 -->
<g id="edge17_Node000006_Node000016" class="edge">
<title>Node6&#45;&gt;Node16</title>
<g id="a_edge17_Node000006_Node000016"><a xlink:title=" ">
<path fill="none" stroke="#63b8ff" d="M806.66,-109.98C782.54,-101.27 744.24,-87.18 711.5,-74 691.74,-66.04 687.43,-62.52 667.5,-55 634.68,-42.61 596.69,-30.44 569.06,-21.97"/>
<polygon fill="#63b8ff" stroke="#63b8ff" points="569.96,-18.58 559.37,-19.02 567.92,-25.28 569.96,-18.58"/>
</a>
</g>
</g>
<!-- Node13&#45;&gt;Node7 -->
<g id="edge13_Node000013_Node000007" class="edge">
<title>Node13&#45;&gt;Node7</title>
<g id="a_edge13_Node000013_Node000007"><a xlink:title=" ">
<path fill="none" stroke="#63b8ff" d="M206.87,-54.98C218.59,-46.92 236.42,-34.65 250.39,-25.03"/>
<polygon fill="#63b8ff" stroke="#63b8ff" points="252.65,-27.72 258.9,-19.17 248.68,-21.96 252.65,-27.72"/>
</a>
</g>
</g>
<!-- Node14 -->
<g id="Node000014" class="node">
<title>Node14</title>
<g id="a_Node000014"><a xlink:title=" ">
<polygon fill="#e0e0e0" stroke="#999999" points="231,-19 158,-19 158,0 231,0 231,-19"/>
<text text-anchor="middle" x="194.5" y="-7" font-family="Helvetica,sans-Serif" font-size="10.00">string_view</text>
</a>
</g>
</g>
<!-- Node13&#45;&gt;Node14 -->
<g id="edge14_Node000013_Node000014" class="edge">
<title>Node13&#45;&gt;Node14</title>
<g id="a_edge14_Node000013_Node000014"><a xlink:title=" ">
<path fill="none" stroke="#63b8ff" d="M194.5,-54.75C194.5,-47.8 194.5,-37.85 194.5,-29.13"/>
<polygon fill="#63b8ff" stroke="#63b8ff" points="198,-29.09 194.5,-19.09 191,-29.09 198,-29.09"/>
</a>
</g>
</g>
<!-- Node13&#45;&gt;Node15 -->
<g id="edge15_Node000013_Node000015" class="edge">
<title>Node13&#45;&gt;Node15</title>
<g id="a_edge15_Node000013_Node000015"><a xlink:title=" ">
<path fill="none" stroke="#63b8ff" d="M181,-54.98C168.1,-46.84 148.4,-34.41 133.1,-24.76"/>
<polygon fill="#63b8ff" stroke="#63b8ff" points="134.57,-21.55 124.24,-19.17 130.83,-27.47 134.57,-21.55"/>
</a>
</g>
</g>
<!-- Node13&#45;&gt;Node16 -->
<g id="edge16_Node000013_Node000016" class="edge">
<title>Node13&#45;&gt;Node16</title>
<g id="a_edge16_Node000013_Node000016"><a xlink:title=" ">
<path fill="none" stroke="#63b8ff" d="M229.51,-57.98C285.82,-49.1 397.31,-31.51 467.66,-20.41"/>
<polygon fill="#63b8ff" stroke="#63b8ff" points="468.4,-23.84 477.73,-18.82 467.3,-16.93 468.4,-23.84"/>
</a>
</g>
</g>
<!-- Node17&#45;&gt;Node16 -->
<g id="edge20_Node000017_Node000016" class="edge">
<title>Node17&#45;&gt;Node16</title>
<g id="a_edge20_Node000017_Node000016"><a xlink:title=" ">
<path fill="none" stroke="#63b8ff" d="M588.49,-170.4C585.34,-157.24 578.82,-131.39 571.5,-110 561.55,-80.93 547.47,-48.15 538.66,-28.42"/>
<polygon fill="#63b8ff" stroke="#63b8ff" points="541.78,-26.83 534.48,-19.15 535.4,-29.7 541.78,-26.83"/>
</a>
</g>
</g>
<!-- Node17&#45;&gt;Node18 -->
<g id="edge21_Node000017_Node000018" class="edge">
<title>Node17&#45;&gt;Node18</title>
<g id="a_edge21_Node000017_Node000018"><a xlink:title=" ">
<path fill="none" stroke="#63b8ff" d="M581.5,-170.37C572.13,-161.38 557.25,-147.11 545.8,-136.14"/>
<polygon fill="#63b8ff" stroke="#63b8ff" points="548.18,-133.56 538.54,-129.17 543.33,-138.62 548.18,-133.56"/>
</a>
</g>
</g>
<!-- Node22&#45;&gt;Node7 -->
<g id="edge30_Node000022_Node000007" class="edge">
<title>Node22&#45;&gt;Node7</title>
<g id="a_edge30_Node000022_Node000007"><a xlink:title=" ">
<path fill="none" stroke="#63b8ff" d="M243.96,-109.66C248.84,-92.09 259.85,-52.45 266.37,-28.95"/>
<polygon fill="#63b8ff" stroke="#63b8ff" points="269.79,-29.73 269.09,-19.16 263.05,-27.86 269.79,-29.73"/>
</a>
</g>
</g>
<!-- Node22&#45;&gt;Node8 -->
<g id="edge31_Node000022_Node000008" class="edge">
<title>Node22&#45;&gt;Node8</title>
<g id="a_edge31_Node000022_Node000008"><a xlink:title=" ">
<path fill="none" stroke="#63b8ff" d="M265.22,-112.04C268.33,-111.29 271.48,-110.59 274.5,-110 380.84,-89.14 508.55,-74.81 568,-68.75"/>
<polygon fill="#63b8ff" stroke="#63b8ff" points="568.35,-72.23 577.95,-67.75 567.65,-65.27 568.35,-72.23"/>
</a>
</g>
</g>
<!-- Node22&#45;&gt;Node13 -->
<g id="edge33_Node000022_Node000013" class="edge">
<title>Node22&#45;&gt;Node13</title>
<g id="a_edge33_Node000022_Node000013"><a xlink:title=" ">
<path fill="none" stroke="#63b8ff" d="M233.74,-109.75C227.03,-102.18 217.16,-91.05 208.99,-81.84"/>
<polygon fill="#63b8ff" stroke="#63b8ff" points="211.37,-79.25 202.12,-74.09 206.13,-83.89 211.37,-79.25"/>
</a>
</g>
</g>
<!-- Node22&#45;&gt;Node15 -->
<g id="edge29_Node000022_Node000015" class="edge">
<title>Node22&#45;&gt;Node15</title>
<g id="a_edge29_Node000022_Node000015"><a xlink:title=" ">
<path fill="none" stroke="#63b8ff" d="M217.71,-111C198,-103.87 170.13,-91.63 150.5,-74 136.44,-61.37 125.47,-42.67 118.61,-28.83"/>
<polygon fill="#63b8ff" stroke="#63b8ff" points="121.59,-26.95 114.17,-19.38 115.25,-29.92 121.59,-26.95"/>
</a>
</g>
</g>
<!-- Node22&#45;&gt;Node16 -->
<g id="edge32_Node000022_Node000016" class="edge">
<title>Node22&#45;&gt;Node16</title>
<g id="a_edge32_Node000022_Node000016"><a xlink:title=" ">
<path fill="none" stroke="#63b8ff" d="M248.73,-109.97C260.98,-96.11 287.24,-68.88 315.5,-55 363.43,-31.46 423.28,-20.35 467.66,-15.13"/>
<polygon fill="#63b8ff" stroke="#63b8ff" points="468.18,-18.59 477.73,-14.01 467.41,-11.63 468.18,-18.59"/>
</a>
</g>
</g>
<!-- Node23 -->
<g id="Node000023" class="node">
<title>Node23</title>
<g id="a_Node000023"><a xlink:href="complete_8h.html" target="_top" xlink:title=" ">
<polygon fill="white" stroke="#666666" points="445,-74 324,-74 324,-55 445,-55 445,-74"/>
<text text-anchor="middle" x="384.5" y="-62" font-family="Helvetica,sans-Serif" font-size="10.00">webcface/complete.h</text>
</a>
</g>
</g>
<!-- Node22&#45;&gt;Node23 -->
<g id="edge34_Node000022_Node000023" class="edge">
<title>Node22&#45;&gt;Node23</title>
<g id="a_edge34_Node000022_Node000023"><a xlink:title=" ">
<path fill="none" stroke="#63b8ff" d="M264.48,-109.98C288,-101.27 324.79,-87.63 351.44,-77.75"/>
<polygon fill="#63b8ff" stroke="#63b8ff" points="352.95,-80.93 361.11,-74.17 350.51,-74.36 352.95,-80.93"/>
</a>
</g>
</g>
<!-- Node23&#45;&gt;Node16 -->
<g id="edge36_Node000023_Node000016" class="edge">
<title>Node23&#45;&gt;Node16</title>
<g id="a_edge36_Node000023_Node000016"><a xlink:title=" ">
<path fill="none" stroke="#63b8ff" d="M407.96,-54.98C432.08,-46.23 469.87,-32.51 497.1,-22.62"/>
<polygon fill="#63b8ff" stroke="#63b8ff" points="498.41,-25.87 506.62,-19.17 496.02,-19.29 498.41,-25.87"/>
</a>
</g>
</g>
<!-- Node24 -->
<g id="Node000024" class="node">
<title>Node24</title>
<g id="a_Node000024"><a xlink:title=" ">
<polygon fill="#e0e0e0" stroke="#999999" points="919,-19 866,-19 866,0 919,0 919,-19"/>
<text text-anchor="middle" x="892.5" y="-7" font-family="Helvetica,sans-Serif" font-size="10.00">cstddef</text>
</a>
</g>
</g>
<!-- Node23&#45;&gt;Node24 -->
<g id="edge35_Node000023_Node000024" class="edge">
<title>Node23&#45;&gt;Node24</title>
<g id="a_edge35_Node000023_Node000024"><a xlink:title=" ">
<path fill="none" stroke="#63b8ff" d="M445.02,-57.19C551.47,-46.08 769.14,-23.37 855.76,-14.33"/>
<polygon fill="#63b8ff" stroke="#63b8ff" points="856.31,-17.79 865.89,-13.28 855.58,-10.83 856.31,-17.79"/>
</a>
</g>
</g>
<!-- Node25&#45;&gt;Node16 -->
<g id="edge39_Node000025_Node000016" class="edge">
<title>Node25&#45;&gt;Node16</title>
<g id="a_edge39_Node000025_Node000016"><a xlink:title=" ">
<path fill="none" stroke="#63b8ff" d="M347.2,-164.97C366.83,-156.05 391.55,-143.47 411.5,-129 454.36,-97.91 496.29,-51.3 517.05,-26.84"/>
<polygon fill="#63b8ff" stroke="#63b8ff" points="519.73,-29.08 523.47,-19.17 514.37,-24.58 519.73,-29.08"/>
</a>
</g>
</g>
<!-- Node26 -->
<g id="Node000026" class="node">
<title>Node26</title>
<g id="a_Node000026"><a xlink:title=" ">
<polygon fill="#e0e0e0" stroke="#999999" points="402.5,-129 348.5,-129 348.5,-110 402.5,-110 402.5,-129"/>
<text text-anchor="middle" x="375.5" y="-117" font-family="Helvetica,sans-Serif" font-size="10.00">wchar.h</text>
</a>
</g>
</g>
<!-- Node25&#45;&gt;Node26 -->
<g id="edge40_Node000025_Node000026" class="edge">
<title>Node25&#45;&gt;Node26</title>
<g id="a_edge40_Node000025_Node000026"><a xlink:title=" ">
<path fill="none" stroke="#63b8ff" d="M328.51,-164.84C337.69,-156.17 349.45,-145.08 358.91,-136.15"/>
<polygon fill="#63b8ff" stroke="#63b8ff" points="361.34,-138.67 366.21,-129.27 356.53,-133.58 361.34,-138.67"/>
</a>
</g>
</g>
<!-- Node27 -->
<g id="Node000027" class="node">
<title>Node27</title>
<g id="a_Node000027"><a xlink:title=" ">
<polygon fill="#e0e0e0" stroke="#999999" points="330,-129 283,-129 283,-110 330,-110 330,-129"/>
<text text-anchor="middle" x="306.5" y="-117" font-family="Helvetica,sans-Serif" font-size="10.00">float.h</text>
</a>
</g>
</g>
<!-- Node25&#45;&gt;Node27 -->
<g id="edge41_Node000025_Node000027" class="edge">
<title>Node25&#45;&gt;Node27</title>
<g id="a_edge41_Node000025_Node000027"><a xlink:title=" ">
<path fill="none" stroke="#63b8ff" d="M311.81,-164.84C310.89,-157.21 309.76,-147.7 308.77,-139.45"/>
<polygon fill="#63b8ff" stroke="#63b8ff" points="312.21,-138.78 307.55,-129.27 305.26,-139.61 312.21,-138.78"/>
</a>
</g>
</g>
<!-- Node28&#45;&gt;Node4 -->
<g id="edge44_Node000028_Node000004" class="edge">
<title>Node28&#45;&gt;Node4</title>
<g id="a_edge44_Node000028_Node000004"><a xlink:title=" ">
<path fill="none" stroke="#63b8ff" d="M763.25,-286.28C708.57,-276.96 619.41,-261.76 560.35,-251.7"/>
<polygon fill="#63b8ff" stroke="#63b8ff" points="560.86,-248.24 550.41,-250.01 559.68,-255.14 560.86,-248.24"/>
</a>
</g>
</g>
<!-- Node28&#45;&gt;Node5 -->
<g id="edge43_Node000028_Node000005" class="edge">
<title>Node28&#45;&gt;Node5</title>
<g id="a_edge43_Node000028_Node000005"><a xlink:title=" ">
<path fill="none" stroke="#63b8ff" d="M819.84,-285.97C837.02,-268.4 876.81,-227.72 901.5,-202.48"/>
<polygon fill="#63b8ff" stroke="#63b8ff" points="904.14,-204.78 908.63,-195.18 899.14,-199.88 904.14,-204.78"/>
</a>
</g>
</g>
<!-- Node28&#45;&gt;Node17 -->
<g id="edge57_Node000028_Node000017" class="edge">
<title>Node28&#45;&gt;Node17</title>
<g id="a_edge57_Node000028_Node000017"><a xlink:title=" ">
<path fill="none" stroke="#63b8ff" d="M794.89,-285.97C756.65,-266.33 662.18,-217.82 616.32,-194.26"/>
<polygon fill="#63b8ff" stroke="#63b8ff" points="617.8,-191.09 607.3,-189.63 614.6,-197.31 617.8,-191.09"/>
</a>
</g>
</g>
<!-- Node29 -->
<g id="Node000029" class="node">
<title>Node29</title>
<g id="a_Node000029"><a xlink:href="arg_8h.html" target="_top" xlink:title=" ">
<polygon fill="white" stroke="#666666" points="832,-250 791,-250 791,-231 832,-231 832,-250"/>
<text text-anchor="middle" x="811.5" y="-238" font-family="Helvetica,sans-Serif" font-size="10.00">arg.h</text>
</a>
</g>
</g>
<!-- Node28&#45;&gt;Node29 -->
<g id="edge45_Node000028_Node000029" class="edge">
<title>Node28&#45;&gt;Node29</title>
<g id="a_edge45_Node000028_Node000029"><a xlink:title=" ">
<path fill="none" stroke="#63b8ff" d="M811.5,-285.75C811.5,-278.8 811.5,-268.85 811.5,-260.13"/>
<polygon fill="#63b8ff" stroke="#63b8ff" points="815,-260.09 811.5,-250.09 808,-260.09 815,-260.09"/>
</a>
</g>
</g>
<!-- Node30 -->
<g id="Node000030" class="node">
<title>Node30</title>
<g id="a_Node000030"><a xlink:href="trait_8h.html" target="_top" xlink:title=" ">
<polygon fill="white" stroke="#666666" points="1210,-74 1069,-74 1069,-55 1210,-55 1210,-74"/>
<text text-anchor="middle" x="1139.5" y="-62" font-family="Helvetica,sans-Serif" font-size="10.00">webcface/common/trait.h</text>
</a>
</g>
</g>
<!-- Node28&#45;&gt;Node30 -->
<g id="edge50_Node000028_Node000030" class="edge">
<title>Node28&#45;&gt;Node30</title>
<g id="a_edge50_Node000028_Node000030"><a xlink:title=" ">
<path fill="none" stroke="#63b8ff" d="M859.52,-288.93C919.6,-279.57 1022.25,-255.36 1085.5,-195 1117.56,-164.4 1131.33,-111.89 1136.61,-84.06"/>
<polygon fill="#63b8ff" stroke="#63b8ff" points="1140.08,-84.54 1138.33,-74.09 1133.18,-83.35 1140.08,-84.54"/>
</a>
</g>
</g>
<!-- Node31 -->
<g id="Node000031" class="node">
<title>Node31</title>
<g id="a_Node000031"><a xlink:href="func__trait_8h.html" target="_top" xlink:title=" ">
<polygon fill="white" stroke="#666666" points="1076.5,-189.5 1004.5,-189.5 1004.5,-170.5 1076.5,-170.5 1076.5,-189.5"/>
<text text-anchor="middle" x="1040.5" y="-177.5" font-family="Helvetica,sans-Serif" font-size="10.00">func_trait.h</text>
</a>
</g>
</g>
<!-- Node28&#45;&gt;Node31 -->
<g id="edge53_Node000028_Node000031" class="edge">
<title>Node28&#45;&gt;Node31</title>
<g id="a_edge53_Node000028_Node000031"><a xlink:title=" ">
<path fill="none" stroke="#63b8ff" d="M828.71,-285.97C868.42,-266.29 966.63,-217.61 1014.05,-194.11"/>
<polygon fill="#63b8ff" stroke="#63b8ff" points="1015.68,-197.21 1023.09,-189.63 1012.57,-190.93 1015.68,-197.21"/>
</a>
</g>
</g>
<!-- Node29&#45;&gt;Node5 -->
<g id="edge49_Node000029_Node000005" class="edge">
<title>Node29&#45;&gt;Node5</title>
<g id="a_edge49_Node000029_Node000005"><a xlink:title=" ">
<path fill="none" stroke="#63b8ff" d="M827.88,-230.87C843.29,-222.75 866.89,-210.31 886.66,-199.89"/>
<polygon fill="#63b8ff" stroke="#63b8ff" points="888.5,-202.87 895.72,-195.11 885.24,-196.68 888.5,-202.87"/>
</a>
</g>
</g>
<!-- Node29&#45;&gt;Node6 -->
<g id="edge48_Node000029_Node000006" class="edge">
<title>Node29&#45;&gt;Node6</title>
<g id="a_edge48_Node000029_Node000006"><a xlink:title=" ">
<path fill="none" stroke="#63b8ff" d="M812.87,-230.94C815.91,-211.91 823.28,-165.69 827.47,-139.47"/>
<polygon fill="#63b8ff" stroke="#63b8ff" points="830.97,-139.73 829.09,-129.3 824.06,-138.62 830.97,-139.73"/>
</a>
</g>
</g>
<!-- Node29&#45;&gt;Node8 -->
<g id="edge46_Node000029_Node000008" class="edge">
<title>Node29&#45;&gt;Node8</title>
<g id="a_edge46_Node000029_Node000008"><a xlink:title=" ">
<path fill="none" stroke="#63b8ff" d="M808.86,-230.72C803.97,-215.7 792.29,-184.8 773.5,-165 733.73,-123.07 672.35,-93.41 634.68,-77.91"/>
<polygon fill="#63b8ff" stroke="#63b8ff" points="635.76,-74.58 625.18,-74.1 633.16,-81.07 635.76,-74.58"/>
</a>
</g>
</g>
<!-- Node29&#45;&gt;Node19 -->
<g id="edge47_Node000029_Node000019" class="edge">
<title>Node29&#45;&gt;Node19</title>
<g id="a_edge47_Node000029_Node000019"><a xlink:title=" ">
<path fill="none" stroke="#63b8ff" d="M800.43,-230.87C788.69,-221.71 769.91,-207.06 755.74,-196.01"/>
<polygon fill="#63b8ff" stroke="#63b8ff" points="757.65,-193.06 747.61,-189.67 753.34,-198.58 757.65,-193.06"/>
</a>
</g>
</g>
<!-- Node30&#45;&gt;Node16 -->
<g id="edge52_Node000030_Node000016" class="edge">
<title>Node30&#45;&gt;Node16</title>
<g id="a_edge52_Node000030_Node000016"><a xlink:title=" ">
<path fill="none" stroke="#63b8ff" d="M1068.55,-56.32C1063.79,-55.87 1059.08,-55.42 1054.5,-55 888.11,-39.62 691.8,-23.48 593.4,-15.54"/>
<polygon fill="#63b8ff" stroke="#63b8ff" points="593.58,-12.04 583.33,-14.72 593.02,-19.02 593.58,-12.04"/>
</a>
</g>
</g>
<!-- Node30&#45;&gt;Node24 -->
<g id="edge51_Node000030_Node000024" class="edge">
<title>Node30&#45;&gt;Node24</title>
<g id="a_edge51_Node000030_Node000024"><a xlink:title=" ">
<path fill="none" stroke="#63b8ff" d="M1099.82,-54.98C1052.65,-44.86 974.61,-28.12 928.93,-18.32"/>
<polygon fill="#63b8ff" stroke="#63b8ff" points="929.66,-14.89 919.15,-16.22 928.19,-21.74 929.66,-14.89"/>
</a>
</g>
</g>
<!-- Node31&#45;&gt;Node6 -->
<g id="edge54_Node000031_Node000006" class="edge">
<title>Node31&#45;&gt;Node6</title>
<g id="a_edge54_Node000031_Node000006"><a xlink:title=" ">
<path fill="none" stroke="#63b8ff" d="M1013.42,-170.39C1007.53,-168.57 1001.31,-166.69 995.5,-165 954.31,-153.04 907.03,-140.4 873.67,-131.66"/>
<polygon fill="#63b8ff" stroke="#63b8ff" points="874.35,-128.22 863.79,-129.08 872.58,-134.99 874.35,-128.22"/>
</a>
</g>
</g>
<!-- Node31&#45;&gt;Node9 -->
<g id="edge55_Node000031_Node000009" class="edge">
<title>Node31&#45;&gt;Node9</title>
<g id="a_edge55_Node000031_Node000009"><a xlink:title=" ">
<path fill="none" stroke="#63b8ff" d="M1033.96,-170.47C1019.6,-151.74 985.1,-106.72 966.27,-82.16"/>
<polygon fill="#63b8ff" stroke="#63b8ff" points="968.98,-79.94 960.12,-74.13 963.42,-84.2 968.98,-79.94"/>
</a>
</g>
</g>
<!-- Node31&#45;&gt;Node16 -->
<g id="edge56_Node000031_Node000016" class="edge">
<title>Node31&#45;&gt;Node16</title>
<g id="a_edge56_Node000031_Node000016"><a xlink:title=" ">
<path fill="none" stroke="#63b8ff" d="M1040.75,-170.34C1040.9,-147.32 1037.82,-84.38 1001.5,-55 970.44,-29.87 714.49,-17.23 593.46,-12.62"/>
<polygon fill="#63b8ff" stroke="#63b8ff" points="593.36,-9.11 583.23,-12.23 593.1,-16.11 593.36,-9.11"/>
</a>
</g>
</g>
</g>
</svg>
