<?xml version="1.0" encoding="UTF-8" standalone="no"?>
<!DOCTYPE svg PUBLIC "-//W3C//DTD SVG 1.1//EN"
 "http://www.w3.org/Graphics/SVG/1.1/DTD/svg11.dtd">
<!-- Generated by graphviz version 2.43.0 (0)
 -->
<!-- Title: /home/runner/work/webcface/webcface/client/include/webcface/func_info.h Pages: 1 -->
<svg width="1009pt" height="225pt"
 viewBox="0.00 0.00 1008.50 225.00" xmlns="http://www.w3.org/2000/svg" xmlns:xlink="http://www.w3.org/1999/xlink">
<g id="graph0" class="graph" transform="scale(1 1) rotate(0) translate(4 221)">
<title>/home/runner/work/webcface/webcface/client/include/webcface/func_info.h</title>
<!-- Node1 -->
<g id="Node000001" class="node">
<title>Node1</title>
<g id="a_Node000001"><a xlink:title=" ">
<polygon fill="#999999" stroke="#666666" points="734,-217 576,-217 576,-176 734,-176 734,-217"/>
<text text-anchor="start" x="584" y="-205" font-family="Helvetica,sans-Serif" font-size="10.00">/home/runner/work/webcface</text>
<text text-anchor="start" x="584" y="-194" font-family="Helvetica,sans-Serif" font-size="10.00">/webcface/client/include</text>
<text text-anchor="middle" x="655" y="-183" font-family="Helvetica,sans-Serif" font-size="10.00">/webcface/func_info.h</text>
</a>
</g>
</g>
<!-- Node2 -->
<g id="Node000002" class="node">
<title>Node2</title>
<g id="a_Node000002"><a xlink:title=" ">
<polygon fill="#e0e0e0" stroke="#999999" points="46,-134.5 0,-134.5 0,-115.5 46,-115.5 46,-134.5"/>
<text text-anchor="middle" x="23" y="-122.5" font-family="Helvetica,sans-Serif" font-size="10.00">future</text>
</a>
</g>
</g>
<!-- Node1&#45;&gt;Node2 -->
<g id="edge1_Node000001_Node000002" class="edge">
<title>Node1&#45;&gt;Node2</title>
<g id="a_edge1_Node000001_Node000002"><a xlink:title=" ">
<path fill="none" stroke="#63b8ff" d="M575.96,-194.84C460.96,-192.37 241.43,-181.98 60,-140 57.48,-139.42 54.91,-138.7 52.34,-137.91"/>
<polygon fill="#63b8ff" stroke="#63b8ff" points="53.26,-134.52 42.67,-134.56 50.97,-141.14 53.26,-134.52"/>
</a>
</g>
</g>
<!-- Node3 -->
<g id="Node000003" class="node">
<title>Node3</title>
<g id="a_Node000003"><a xlink:title=" ">
<polygon fill="#e0e0e0" stroke="#999999" points="149.5,-74 102.5,-74 102.5,-55 149.5,-55 149.5,-74"/>
<text text-anchor="middle" x="126" y="-62" font-family="Helvetica,sans-Serif" font-size="10.00">vector</text>
</a>
</g>
</g>
<!-- Node1&#45;&gt;Node3 -->
<g id="edge2_Node000001_Node000003" class="edge">
<title>Node1&#45;&gt;Node3</title>
<g id="a_edge2_Node000001_Node000003"><a xlink:title=" ">
<path fill="none" stroke="#63b8ff" d="M576,-184.81C512.71,-175.43 421.93,-160.14 344,-140 275.89,-122.39 198.45,-93.81 156.67,-77.65"/>
<polygon fill="#63b8ff" stroke="#63b8ff" points="157.92,-74.38 147.33,-74.01 155.38,-80.9 157.92,-74.38"/>
</a>
</g>
</g>
<!-- Node4 -->
<g id="Node000004" class="node">
<title>Node4</title>
<g id="a_Node000004"><a xlink:title=" ">
<polygon fill="#e0e0e0" stroke="#999999" points="771.5,-134.5 702.5,-134.5 702.5,-115.5 771.5,-115.5 771.5,-134.5"/>
<text text-anchor="middle" x="737" y="-122.5" font-family="Helvetica,sans-Serif" font-size="10.00">type_traits</text>
</a>
</g>
</g>
<!-- Node1&#45;&gt;Node4 -->
<g id="edge3_Node000001_Node000004" class="edge">
<title>Node1&#45;&gt;Node4</title>
<g id="a_edge3_Node000001_Node000004"><a xlink:title=" ">
<path fill="none" stroke="#63b8ff" d="M678.28,-175.77C691.08,-164.92 706.74,-151.65 718.66,-141.54"/>
<polygon fill="#63b8ff" stroke="#63b8ff" points="721.23,-143.96 726.59,-134.82 716.7,-138.62 721.23,-143.96"/>
</a>
</g>
</g>
<!-- Node5 -->
<g id="Node000005" class="node">
<title>Node5</title>
<g id="a_Node000005"><a xlink:title=" ">
<polygon fill="#e0e0e0" stroke="#999999" points="854.5,-134.5 789.5,-134.5 789.5,-115.5 854.5,-115.5 854.5,-134.5"/>
<text text-anchor="middle" x="822" y="-122.5" font-family="Helvetica,sans-Serif" font-size="10.00">functional</text>
</a>
</g>
</g>
<!-- Node1&#45;&gt;Node5 -->
<g id="edge4_Node000001_Node000005" class="edge">
<title>Node1&#45;&gt;Node5</title>
<g id="a_edge4_Node000001_Node000005"><a xlink:title=" ">
<path fill="none" stroke="#63b8ff" d="M701.96,-175.96C730.92,-163.9 767.18,-148.81 792.23,-138.39"/>
<polygon fill="#63b8ff" stroke="#63b8ff" points="793.68,-141.58 801.57,-134.5 790.99,-135.11 793.68,-141.58"/>
</a>
</g>
</g>
<!-- Node6 -->
<g id="Node000006" class="node">
<title>Node6</title>
<g id="a_Node000006"><a xlink:title=" ">
<polygon fill="#e0e0e0" stroke="#999999" points="929,-134.5 873,-134.5 873,-115.5 929,-115.5 929,-134.5"/>
<text text-anchor="middle" x="901" y="-122.5" font-family="Helvetica,sans-Serif" font-size="10.00">optional</text>
</a>
</g>
</g>
<!-- Node1&#45;&gt;Node6 -->
<g id="edge5_Node000001_Node000006" class="edge">
<title>Node1&#45;&gt;Node6</title>
<g id="a_edge5_Node000001_Node000006"><a xlink:title=" ">
<path fill="none" stroke="#63b8ff" d="M734.45,-176.44C773.72,-166.5 821.64,-153.6 864,-140 865.91,-139.39 867.87,-138.73 869.84,-138.05"/>
<polygon fill="#63b8ff" stroke="#63b8ff" points="871.39,-141.21 879.61,-134.52 869.02,-134.63 871.39,-141.21"/>
</a>
</g>
</g>
<!-- Node7 -->
<g id="Node000007" class="node">
<title>Node7</title>
<g id="a_Node000007"><a xlink:title=" ">
<polygon fill="#e0e0e0" stroke="#999999" points="157,-19 113,-19 113,0 157,0 157,-19"/>
<text text-anchor="middle" x="135" y="-7" font-family="Helvetica,sans-Serif" font-size="10.00">string</text>
</a>
</g>
</g>
<!-- Node1&#45;&gt;Node7 -->
<g id="edge6_Node000001_Node000007" class="edge">
<title>Node1&#45;&gt;Node7</title>
<g id="a_edge6_Node000001_Node000007"><a xlink:title=" ">
<path fill="none" stroke="#63b8ff" d="M575.66,-191.33C491.9,-185.42 356.67,-171.56 244,-140 173.47,-120.24 133.1,-135.29 93,-74 82.13,-57.39 98.47,-38.41 113.84,-25.56"/>
<polygon fill="#63b8ff" stroke="#63b8ff" points="116.37,-28.03 122.09,-19.11 112.06,-22.51 116.37,-28.03"/>
</a>
</g>
</g>
<!-- Node8 -->
<g id="Node000008" class="node">
<title>Node8</title>
<g id="a_Node000008"><a xlink:title=" ">
<polygon fill="#e0e0e0" stroke="#999999" points="664.5,-74 607.5,-74 607.5,-55 664.5,-55 664.5,-74"/>
<text text-anchor="middle" x="636" y="-62" font-family="Helvetica,sans-Serif" font-size="10.00">ostream</text>
</a>
</g>
</g>
<!-- Node1&#45;&gt;Node8 -->
<g id="edge7_Node000001_Node000008" class="edge">
<title>Node1&#45;&gt;Node8</title>
<g id="a_edge7_Node000001_Node000008"><a xlink:title=" ">
<path fill="none" stroke="#63b8ff" d="M652.11,-175.76C648.48,-150.86 642.27,-108.38 638.71,-84.06"/>
<polygon fill="#63b8ff" stroke="#63b8ff" points="642.15,-83.4 637.24,-74.01 635.23,-84.41 642.15,-83.4"/>
</a>
</g>
</g>
<!-- Node9 -->
<g id="Node000009" class="node">
<title>Node9</title>
<g id="a_Node000009"><a xlink:title=" ">
<polygon fill="#e0e0e0" stroke="#999999" points="1000.5,-134.5 947.5,-134.5 947.5,-115.5 1000.5,-115.5 1000.5,-134.5"/>
<text text-anchor="middle" x="974" y="-122.5" font-family="Helvetica,sans-Serif" font-size="10.00">cstddef</text>
</a>
</g>
</g>
<!-- Node1&#45;&gt;Node9 -->
<g id="edge8_Node000001_Node000009" class="edge">
<title>Node1&#45;&gt;Node9</title>
<g id="a_edge8_Node000001_Node000009"><a xlink:title=" ">
<path fill="none" stroke="#63b8ff" d="M734.28,-183.82C791.51,-174.45 870.32,-159.63 938,-140 939.93,-139.44 941.91,-138.82 943.88,-138.16"/>
<polygon fill="#63b8ff" stroke="#63b8ff" points="945.44,-141.32 953.66,-134.63 943.06,-134.73 945.44,-141.32"/>
</a>
</g>
</g>
<!-- Node10 -->
<g id="Node000010" class="node">
<title>Node10</title>
<g id="a_Node000010"><a xlink:href="encoding_2include_2webcface_2encoding_2val__adaptor_8h.html" target="_top" xlink:title=" ">
<polygon fill="white" stroke="#666666" points="481,-140 353,-140 353,-110 481,-110 481,-140"/>
<text text-anchor="start" x="361" y="-128" font-family="Helvetica,sans-Serif" font-size="10.00">webcface/encoding/val</text>
<text text-anchor="middle" x="417" y="-117" font-family="Helvetica,sans-Serif" font-size="10.00">_adaptor.h</text>
</a>
</g>
</g>
<!-- Node1&#45;&gt;Node10 -->
<g id="edge9_Node000001_Node000010" class="edge">
<title>Node1&#45;&gt;Node10</title>
<g id="a_edge9_Node000001_Node000010"><a xlink:title=" ">
<path fill="none" stroke="#63b8ff" d="M588.07,-175.96C552.41,-165.54 508.97,-152.86 474.79,-142.88"/>
<polygon fill="#63b8ff" stroke="#63b8ff" points="475.54,-139.45 464.96,-140 473.57,-146.17 475.54,-139.45"/>
</a>
</g>
</g>
<!-- Node21 -->
<g id="Node000021" class="node">
<title>Node21</title>
<g id="a_Node000021"><a xlink:href="def_8h.html" target="_top" xlink:title=" ">
<polygon fill="white" stroke="#666666" points="761,-19 625,-19 625,0 761,0 761,-19"/>
<text text-anchor="middle" x="693" y="-7" font-family="Helvetica,sans-Serif" font-size="10.00">webcface/common/def.h</text>
</a>
</g>
</g>
<!-- Node1&#45;&gt;Node21 -->
<g id="edge26_Node000001_Node000021" class="edge">
<title>Node1&#45;&gt;Node21</title>
<g id="a_edge26_Node000001_Node000021"><a xlink:title=" ">
<path fill="none" stroke="#63b8ff" d="M659.07,-175.7C666.46,-139.7 682.01,-64.02 689.2,-29"/>
<polygon fill="#63b8ff" stroke="#63b8ff" points="692.64,-29.66 691.22,-19.16 685.78,-28.25 692.64,-29.66"/>
</a>
</g>
</g>
<!-- Node10&#45;&gt;Node3 -->
<g id="edge11_Node000010_Node000003" class="edge">
<title>Node10&#45;&gt;Node3</title>
<g id="a_edge11_Node000010_Node000003"><a xlink:title=" ">
<path fill="none" stroke="#63b8ff" d="M352.96,-111.8C301.76,-101.94 228.18,-87.52 164,-74 162.55,-73.7 161.08,-73.38 159.58,-73.06"/>
<polygon fill="#63b8ff" stroke="#63b8ff" points="160.21,-69.61 149.7,-70.9 158.72,-76.45 160.21,-69.61"/>
</a>
</g>
</g>
<!-- Node10&#45;&gt;Node7 -->
<g id="edge10_Node000010_Node000007" class="edge">
<title>Node10&#45;&gt;Node7</title>
<g id="a_edge10_Node000010_Node000007"><a xlink:title=" ">
<path fill="none" stroke="#63b8ff" d="M352.87,-119.13C307.03,-113.41 245.19,-100.98 197,-74 176.29,-62.41 158.06,-41.78 146.82,-27.18"/>
<polygon fill="#63b8ff" stroke="#63b8ff" points="149.53,-24.96 140.76,-19.01 143.9,-29.13 149.53,-24.96"/>
</a>
</g>
</g>
<!-- Node10&#45;&gt;Node8 -->
<g id="edge15_Node000010_Node000008" class="edge">
<title>Node10&#45;&gt;Node8</title>
<g id="a_edge15_Node000010_Node000008"><a xlink:title=" ">
<path fill="none" stroke="#63b8ff" d="M469.46,-109.99C508.84,-99.47 561.9,-85.29 597.44,-75.8"/>
<polygon fill="#63b8ff" stroke="#63b8ff" points="598.67,-79.1 607.42,-73.13 596.86,-72.33 598.67,-79.1"/>
</a>
</g>
</g>
<!-- Node11 -->
<g id="Node000011" class="node">
<title>Node11</title>
<g id="a_Node000011"><a xlink:title=" ">
<polygon fill="#e0e0e0" stroke="#999999" points="589.5,-74 548.5,-74 548.5,-55 589.5,-55 589.5,-74"/>
<text text-anchor="middle" x="569" y="-62" font-family="Helvetica,sans-Serif" font-size="10.00">tuple</text>
</a>
</g>
</g>
<!-- Node10&#45;&gt;Node11 -->
<g id="edge12_Node000010_Node000011" class="edge">
<title>Node10&#45;&gt;Node11</title>
<g id="a_edge12_Node000010_Node000011"><a xlink:title=" ">
<path fill="none" stroke="#63b8ff" d="M453.41,-109.99C479.5,-99.95 514.23,-86.58 538.79,-77.13"/>
<polygon fill="#63b8ff" stroke="#63b8ff" points="540.23,-80.32 548.31,-73.46 537.72,-73.79 540.23,-80.32"/>
</a>
</g>
</g>
<!-- Node12 -->
<g id="Node000012" class="node">
<title>Node12</title>
<g id="a_Node000012"><a xlink:title=" ">
<polygon fill="#e0e0e0" stroke="#999999" points="266,-74 206,-74 206,-55 266,-55 266,-74"/>
<text text-anchor="middle" x="236" y="-62" font-family="Helvetica,sans-Serif" font-size="10.00">concepts</text>
</a>
</g>
</g>
<!-- Node10&#45;&gt;Node12 -->
<g id="edge13_Node000010_Node000012" class="edge">
<title>Node10&#45;&gt;Node12</title>
<g id="a_edge13_Node000010_Node000012"><a xlink:title=" ">
<path fill="none" stroke="#63b8ff" d="M373.65,-109.99C342.68,-99.98 301.5,-86.67 272.27,-77.22"/>
<polygon fill="#63b8ff" stroke="#63b8ff" points="273.06,-73.8 262.47,-74.05 270.9,-80.46 273.06,-73.8"/>
</a>
</g>
</g>
<!-- Node13 -->
<g id="Node000013" class="node">
<title>Node13</title>
<g id="a_Node000013"><a xlink:title=" ">
<polygon fill="#e0e0e0" stroke="#999999" points="334,-74 284,-74 284,-55 334,-55 334,-74"/>
<text text-anchor="middle" x="309" y="-62" font-family="Helvetica,sans-Serif" font-size="10.00">cstdint</text>
</a>
</g>
</g>
<!-- Node10&#45;&gt;Node13 -->
<g id="edge14_Node000010_Node000013" class="edge">
<title>Node10&#45;&gt;Node13</title>
<g id="a_edge14_Node000010_Node000013"><a xlink:title=" ">
<path fill="none" stroke="#63b8ff" d="M391.13,-109.99C373.76,-100.58 350.99,-88.24 333.83,-78.95"/>
<polygon fill="#63b8ff" stroke="#63b8ff" points="335.41,-75.82 324.95,-74.14 332.08,-81.98 335.41,-75.82"/>
</a>
</g>
</g>
<!-- Node14 -->
<g id="Node000014" class="node">
<title>Node14</title>
<g id="a_Node000014"><a xlink:title=" ">
<polygon fill="#e0e0e0" stroke="#999999" points="403.5,-74 352.5,-74 352.5,-55 403.5,-55 403.5,-74"/>
<text text-anchor="middle" x="378" y="-62" font-family="Helvetica,sans-Serif" font-size="10.00">variant</text>
</a>
</g>
</g>
<!-- Node10&#45;&gt;Node14 -->
<g id="edge16_Node000010_Node000014" class="edge">
<title>Node10&#45;&gt;Node14</title>
<g id="a_edge16_Node000010_Node000014"><a xlink:title=" ">
<path fill="none" stroke="#63b8ff" d="M407.56,-109.84C402.13,-101.69 395.27,-91.4 389.52,-82.78"/>
<polygon fill="#63b8ff" stroke="#63b8ff" points="392.3,-80.65 383.84,-74.27 386.48,-84.53 392.3,-80.65"/>
</a>
</g>
</g>
<!-- Node15 -->
<g id="Node000015" class="node">
<title>Node15</title>
<g id="a_Node000015"><a xlink:href="encoding_8h.html" target="_top" xlink:title=" ">
<polygon fill="white" stroke="#666666" points="492,-74 422,-74 422,-55 492,-55 492,-74"/>
<text text-anchor="middle" x="457" y="-62" font-family="Helvetica,sans-Serif" font-size="10.00">encoding.h</text>
</a>
</g>
</g>
<!-- Node10&#45;&gt;Node15 -->
<g id="edge17_Node000010_Node000015" class="edge">
<title>Node10&#45;&gt;Node15</title>
<g id="a_edge17_Node000010_Node000015"><a xlink:title=" ">
<path fill="none" stroke="#63b8ff" d="M426.68,-109.84C432.25,-101.69 439.29,-91.4 445.18,-82.78"/>
<polygon fill="#63b8ff" stroke="#63b8ff" points="448.25,-84.5 451.01,-74.27 442.47,-80.55 448.25,-84.5"/>
</a>
</g>
</g>
<!-- Node10&#45;&gt;Node21 -->
<g id="edge25_Node000010_Node000021" class="edge">
<title>Node10&#45;&gt;Node21</title>
<g id="a_edge25_Node000010_Node000021"><a xlink:title=" ">
<path fill="none" stroke="#63b8ff" d="M440.27,-109.97C469.85,-92.3 519.43,-63.23 539,-55 573.11,-40.66 613.34,-29.21 644.12,-21.52"/>
<polygon fill="#63b8ff" stroke="#63b8ff" points="645.29,-24.83 654.17,-19.05 643.63,-18.03 645.29,-24.83"/>
</a>
</g>
</g>
<!-- Node15&#45;&gt;Node7 -->
<g id="edge18_Node000015_Node000007" class="edge">
<title>Node15&#45;&gt;Node7</title>
<g id="a_edge18_Node000015_Node000007"><a xlink:title=" ">
<path fill="none" stroke="#63b8ff" d="M421.65,-56.68C418.39,-56.09 415.14,-55.53 412,-55 306.21,-37.28 275.91,-41.38 167.32,-19.05"/>
<polygon fill="#63b8ff" stroke="#63b8ff" points="167.78,-15.57 157.27,-16.96 166.35,-22.42 167.78,-15.57"/>
</a>
</g>
</g>
<!-- Node16 -->
<g id="Node000016" class="node">
<title>Node16</title>
<g id="a_Node000016"><a xlink:title=" ">
<polygon fill="#e0e0e0" stroke="#999999" points="606.5,-19 533.5,-19 533.5,0 606.5,0 606.5,-19"/>
<text text-anchor="middle" x="570" y="-7" font-family="Helvetica,sans-Serif" font-size="10.00">string_view</text>
</a>
</g>
</g>
<!-- Node15&#45;&gt;Node16 -->
<g id="edge19_Node000015_Node000016" class="edge">
<title>Node15&#45;&gt;Node16</title>
<g id="a_edge19_Node000015_Node000016"><a xlink:title=" ">
<path fill="none" stroke="#63b8ff" d="M475.16,-54.98C493.25,-46.5 521.28,-33.35 542.19,-23.54"/>
<polygon fill="#63b8ff" stroke="#63b8ff" points="543.95,-26.59 551.51,-19.17 540.97,-20.25 543.95,-26.59"/>
</a>
</g>
</g>
<!-- Node17 -->
<g id="Node000017" class="node">
<title>Node17</title>
<g id="a_Node000017"><a xlink:title=" ">
<polygon fill="#e0e0e0" stroke="#999999" points="233,-19 175,-19 175,0 233,0 233,-19"/>
<text text-anchor="middle" x="204" y="-7" font-family="Helvetica,sans-Serif" font-size="10.00">memory</text>
</a>
</g>
</g>
<!-- Node15&#45;&gt;Node17 -->
<g id="edge20_Node000015_Node000017" class="edge">
<title>Node15&#45;&gt;Node17</title>
<g id="a_edge20_Node000015_Node000017"><a xlink:title=" ">
<path fill="none" stroke="#63b8ff" d="M421.96,-56.43C381.37,-48.19 312.22,-34.05 243.21,-19.23"/>
<polygon fill="#63b8ff" stroke="#63b8ff" points="243.55,-15.73 233.04,-17.04 242.08,-22.57 243.55,-15.73"/>
</a>
</g>
</g>
<!-- Node18 -->
<g id="Node000018" class="node">
<title>Node18</title>
<g id="a_Node000018"><a xlink:title=" ">
<polygon fill="#e0e0e0" stroke="#999999" points="299,-19 251,-19 251,0 299,0 299,-19"/>
<text text-anchor="middle" x="275" y="-7" font-family="Helvetica,sans-Serif" font-size="10.00">mutex</text>
</a>
</g>
</g>
<!-- Node15&#45;&gt;Node18 -->
<g id="edge21_Node000015_Node000018" class="edge">
<title>Node15&#45;&gt;Node18</title>
<g id="a_edge21_Node000015_Node000018"><a xlink:title=" ">
<path fill="none" stroke="#63b8ff" d="M427.76,-54.98C395.43,-45.57 343.42,-30.42 309.22,-20.46"/>
<polygon fill="#63b8ff" stroke="#63b8ff" points="309.8,-16.99 299.22,-17.55 307.84,-23.71 309.8,-16.99"/>
</a>
</g>
</g>
<!-- Node19 -->
<g id="Node000019" class="node">
<title>Node19</title>
<g id="a_Node000019"><a xlink:title=" ">
<polygon fill="#e0e0e0" stroke="#999999" points="410.5,-19 317.5,-19 317.5,0 410.5,0 410.5,-19"/>
<text text-anchor="middle" x="364" y="-7" font-family="Helvetica,sans-Serif" font-size="10.00">unordered_map</text>
</a>
</g>
</g>
<!-- Node15&#45;&gt;Node19 -->
<g id="edge22_Node000015_Node000019" class="edge">
<title>Node15&#45;&gt;Node19</title>
<g id="a_edge22_Node000015_Node000019"><a xlink:title=" ">
<path fill="none" stroke="#63b8ff" d="M442.06,-54.98C427.5,-46.69 405.13,-33.94 388.07,-24.22"/>
<polygon fill="#63b8ff" stroke="#63b8ff" points="389.64,-21.08 379.21,-19.17 386.17,-27.16 389.64,-21.08"/>
</a>
</g>
</g>
<!-- Node20 -->
<g id="Node000020" class="node">
<title>Node20</title>
<g id="a_Node000020"><a xlink:title=" ">
<polygon fill="#e0e0e0" stroke="#999999" points="515,-19 429,-19 429,0 515,0 515,-19"/>
<text text-anchor="middle" x="472" y="-7" font-family="Helvetica,sans-Serif" font-size="10.00">unordered_set</text>
</a>
</g>
</g>
<!-- Node15&#45;&gt;Node20 -->
<g id="edge23_Node000015_Node000020" class="edge">
<title>Node15&#45;&gt;Node20</title>
<g id="a_edge23_Node000015_Node000020"><a xlink:title=" ">
<path fill="none" stroke="#63b8ff" d="M459.48,-54.75C461.46,-47.72 464.32,-37.62 466.81,-28.84"/>
<polygon fill="#63b8ff" stroke="#63b8ff" points="470.21,-29.66 469.57,-19.09 463.48,-27.76 470.21,-29.66"/>
</a>
</g>
</g>
<!-- Node15&#45;&gt;Node21 -->
<g id="edge24_Node000015_Node000021" class="edge">
<title>Node15&#45;&gt;Node21</title>
<g id="a_edge24_Node000015_Node000021"><a xlink:title=" ">
<path fill="none" stroke="#63b8ff" d="M492.08,-55.62C532.66,-46.51 599.72,-31.45 645.09,-21.26"/>
<polygon fill="#63b8ff" stroke="#63b8ff" points="646,-24.64 654.99,-19.04 644.47,-17.81 646,-24.64"/>
</a>
</g>
</g>
</g>
</svg>
