<?xml version="1.0" encoding="UTF-8" standalone="no"?>
<!DOCTYPE svg PUBLIC "-//W3C//DTD SVG 1.1//EN"
 "http://www.w3.org/Graphics/SVG/1.1/DTD/svg11.dtd">
<!-- Generated by graphviz version 2.43.0 (0)
 -->
<!-- Title: /home/runner/work/webcface/webcface/client/include/webcface/internal/func_internal.h Pages: 1 -->
<svg width="1264pt" height="280pt"
 viewBox="0.00 0.00 1263.50 280.00" xmlns="http://www.w3.org/2000/svg" xmlns:xlink="http://www.w3.org/1999/xlink">
<g id="graph0" class="graph" transform="scale(1 1) rotate(0) translate(4 276)">
<title>/home/runner/work/webcface/webcface/client/include/webcface/internal/func_internal.h</title>
<!-- Node1 -->
<g id="Node000001" class="node">
<title>Node1</title>
<g id="a_Node000001"><a xlink:title=" ">
<polygon fill="#999999" stroke="#666666" points="291,-272 109,-272 109,-231 291,-231 291,-272"/>
<text text-anchor="start" x="117" y="-260" font-family="Helvetica,sans-Serif" font-size="10.00">/home/runner/work/webcface</text>
<text text-anchor="start" x="117" y="-249" font-family="Helvetica,sans-Serif" font-size="10.00">/webcface/client/include</text>
<text text-anchor="middle" x="200" y="-238" font-family="Helvetica,sans-Serif" font-size="10.00">/webcface/internal/func_internal.h</text>
</a>
</g>
</g>
<!-- Node2 -->
<g id="Node000002" class="node">
<title>Node2</title>
<g id="a_Node000002"><a xlink:title=" ">
<polygon fill="#e0e0e0" stroke="#999999" points="48,-19 0,-19 0,0 48,0 48,-19"/>
<text text-anchor="middle" x="24" y="-7" font-family="Helvetica,sans-Serif" font-size="10.00">mutex</text>
</a>
</g>
</g>
<!-- Node1&#45;&gt;Node2 -->
<g id="edge1_Node000001_Node000002" class="edge">
<title>Node1&#45;&gt;Node2</title>
<g id="a_edge1_Node000001_Node000002"><a xlink:title=" ">
<path fill="none" stroke="#63b8ff" d="M111.35,-230.96C87.41,-222.69 62.7,-211.1 43,-195 -6.35,-154.68 2.48,-118.01 12,-55 13.31,-46.3 15.71,-36.86 18.03,-28.92"/>
<polygon fill="#63b8ff" stroke="#63b8ff" points="21.41,-29.83 21.01,-19.24 14.72,-27.76 21.41,-29.83"/>
</a>
</g>
</g>
<!-- Node3 -->
<g id="Node000003" class="node">
<title>Node3</title>
<g id="a_Node000003"><a xlink:href="func__info_8h.html" target="_top" xlink:title=" ">
<polygon fill="white" stroke="#666666" points="969,-195 849,-195 849,-176 969,-176 969,-195"/>
<text text-anchor="middle" x="909" y="-183" font-family="Helvetica,sans-Serif" font-size="10.00">webcface/func_info.h</text>
</a>
</g>
</g>
<!-- Node1&#45;&gt;Node3 -->
<g id="edge2_Node000001_Node000003" class="edge">
<title>Node1&#45;&gt;Node3</title>
<g id="a_edge2_Node000001_Node000003"><a xlink:title=" ">
<path fill="none" stroke="#63b8ff" d="M291.24,-242.26C434.53,-229.33 709.28,-204.53 838.52,-192.86"/>
<polygon fill="#63b8ff" stroke="#63b8ff" points="839.05,-196.33 848.69,-191.94 838.42,-189.36 839.05,-196.33"/>
</a>
</g>
</g>
<!-- Node22 -->
<g id="Node000022" class="node">
<title>Node22</title>
<g id="a_Node000022"><a xlink:href="def_8h.html" target="_top" xlink:title=" ">
<polygon fill="white" stroke="#666666" points="291,-19 155,-19 155,0 291,0 291,-19"/>
<text text-anchor="middle" x="223" y="-7" font-family="Helvetica,sans-Serif" font-size="10.00">webcface/common/def.h</text>
</a>
</g>
</g>
<!-- Node1&#45;&gt;Node22 -->
<g id="edge49_Node000001_Node000022" class="edge">
<title>Node1&#45;&gt;Node22</title>
<g id="a_edge49_Node000001_Node000022"><a xlink:title=" ">
<path fill="none" stroke="#63b8ff" d="M137.06,-230.87C94.87,-214.06 42.54,-185.25 17,-140 9.71,-127.08 13.9,-63.2 21,-55 37.27,-36.2 95.03,-24.72 144.64,-18.14"/>
<polygon fill="#63b8ff" stroke="#63b8ff" points="145.29,-21.58 154.76,-16.85 144.4,-14.64 145.29,-21.58"/>
</a>
</g>
</g>
<!-- Node23 -->
<g id="Node000023" class="node">
<title>Node23</title>
<g id="a_Node000023"><a xlink:href="func__result_8h.html" target="_top" xlink:title=" ">
<polygon fill="white" stroke="#666666" points="516.5,-195 387.5,-195 387.5,-176 516.5,-176 516.5,-195"/>
<text text-anchor="middle" x="452" y="-183" font-family="Helvetica,sans-Serif" font-size="10.00">webcface/func_result.h</text>
</a>
</g>
</g>
<!-- Node1&#45;&gt;Node23 -->
<g id="edge29_Node000001_Node000023" class="edge">
<title>Node1&#45;&gt;Node23</title>
<g id="a_edge29_Node000001_Node000023"><a xlink:title=" ">
<path fill="none" stroke="#63b8ff" d="M276.98,-230.95C320.24,-219.96 372.64,-206.65 408.76,-197.48"/>
<polygon fill="#63b8ff" stroke="#63b8ff" points="409.67,-200.86 418.5,-195.01 407.95,-194.08 409.67,-200.86"/>
</a>
</g>
</g>
<!-- Node4 -->
<g id="Node000004" class="node">
<title>Node4</title>
<g id="a_Node000004"><a xlink:title=" ">
<polygon fill="#e0e0e0" stroke="#999999" points="863,-134.5 817,-134.5 817,-115.5 863,-115.5 863,-134.5"/>
<text text-anchor="middle" x="840" y="-122.5" font-family="Helvetica,sans-Serif" font-size="10.00">future</text>
</a>
</g>
</g>
<!-- Node3&#45;&gt;Node4 -->
<g id="edge3_Node000003_Node000004" class="edge">
<title>Node3&#45;&gt;Node4</title>
<g id="a_edge3_Node000003_Node000004"><a xlink:title=" ">
<path fill="none" stroke="#63b8ff" d="M898.82,-175.87C888.12,-166.8 871.06,-152.34 858.07,-141.32"/>
<polygon fill="#63b8ff" stroke="#63b8ff" points="860.11,-138.46 850.22,-134.67 855.59,-143.8 860.11,-138.46"/>
</a>
</g>
</g>
<!-- Node5 -->
<g id="Node000005" class="node">
<title>Node5</title>
<g id="a_Node000005"><a xlink:title=" ">
<polygon fill="#e0e0e0" stroke="#999999" points="615.5,-74 568.5,-74 568.5,-55 615.5,-55 615.5,-74"/>
<text text-anchor="middle" x="592" y="-62" font-family="Helvetica,sans-Serif" font-size="10.00">vector</text>
</a>
</g>
</g>
<!-- Node3&#45;&gt;Node5 -->
<g id="edge4_Node000003_Node000005" class="edge">
<title>Node3&#45;&gt;Node5</title>
<g id="a_edge4_Node000003_Node000005"><a xlink:title=" ">
<path fill="none" stroke="#63b8ff" d="M848.65,-185.21C764.75,-184.77 619.38,-178.3 586,-140 572.71,-124.75 577.83,-100.46 583.86,-83.78"/>
<polygon fill="#63b8ff" stroke="#63b8ff" points="587.28,-84.68 587.78,-74.1 580.79,-82.06 587.28,-84.68"/>
</a>
</g>
</g>
<!-- Node6 -->
<g id="Node000006" class="node">
<title>Node6</title>
<g id="a_Node000006"><a xlink:title=" ">
<polygon fill="#e0e0e0" stroke="#999999" points="1172.5,-134.5 1103.5,-134.5 1103.5,-115.5 1172.5,-115.5 1172.5,-134.5"/>
<text text-anchor="middle" x="1138" y="-122.5" font-family="Helvetica,sans-Serif" font-size="10.00">type_traits</text>
</a>
</g>
</g>
<!-- Node3&#45;&gt;Node6 -->
<g id="edge5_Node000003_Node000006" class="edge">
<title>Node3&#45;&gt;Node6</title>
<g id="a_edge5_Node000003_Node000006"><a xlink:title=" ">
<path fill="none" stroke="#63b8ff" d="M945.3,-175.93C981.72,-167.24 1039.39,-153.22 1089,-140 1092.21,-139.15 1095.52,-138.24 1098.85,-137.32"/>
<polygon fill="#63b8ff" stroke="#63b8ff" points="1100.09,-140.61 1108.77,-134.54 1098.19,-133.87 1100.09,-140.61"/>
</a>
</g>
</g>
<!-- Node7 -->
<g id="Node000007" class="node">
<title>Node7</title>
<g id="a_Node000007"><a xlink:title=" ">
<polygon fill="#e0e0e0" stroke="#999999" points="1255.5,-134.5 1190.5,-134.5 1190.5,-115.5 1255.5,-115.5 1255.5,-134.5"/>
<text text-anchor="middle" x="1223" y="-122.5" font-family="Helvetica,sans-Serif" font-size="10.00">functional</text>
</a>
</g>
</g>
<!-- Node3&#45;&gt;Node7 -->
<g id="edge6_Node000003_Node000007" class="edge">
<title>Node3&#45;&gt;Node7</title>
<g id="a_edge6_Node000003_Node000007"><a xlink:title=" ">
<path fill="none" stroke="#63b8ff" d="M969.23,-177.63C1024.95,-170.58 1109.8,-158.08 1182,-140 1184.8,-139.3 1187.69,-138.49 1190.57,-137.63"/>
<polygon fill="#63b8ff" stroke="#63b8ff" points="1191.76,-140.92 1200.22,-134.54 1189.63,-134.25 1191.76,-140.92"/>
</a>
</g>
</g>
<!-- Node8 -->
<g id="Node000008" class="node">
<title>Node8</title>
<g id="a_Node000008"><a xlink:title=" ">
<polygon fill="#e0e0e0" stroke="#999999" points="937,-134.5 881,-134.5 881,-115.5 937,-115.5 937,-134.5"/>
<text text-anchor="middle" x="909" y="-122.5" font-family="Helvetica,sans-Serif" font-size="10.00">optional</text>
</a>
</g>
</g>
<!-- Node3&#45;&gt;Node8 -->
<g id="edge7_Node000003_Node000008" class="edge">
<title>Node3&#45;&gt;Node8</title>
<g id="a_edge7_Node000003_Node000008"><a xlink:title=" ">
<path fill="none" stroke="#63b8ff" d="M909,-175.87C909,-167.75 909,-155.31 909,-144.89"/>
<polygon fill="#63b8ff" stroke="#63b8ff" points="912.5,-144.67 909,-134.67 905.5,-144.67 912.5,-144.67"/>
</a>
</g>
</g>
<!-- Node9 -->
<g id="Node000009" class="node">
<title>Node9</title>
<g id="a_Node000009"><a xlink:title=" ">
<polygon fill="#e0e0e0" stroke="#999999" points="942,-19 898,-19 898,0 942,0 942,-19"/>
<text text-anchor="middle" x="920" y="-7" font-family="Helvetica,sans-Serif" font-size="10.00">string</text>
</a>
</g>
</g>
<!-- Node3&#45;&gt;Node9 -->
<g id="edge8_Node000003_Node000009" class="edge">
<title>Node3&#45;&gt;Node9</title>
<g id="a_edge8_Node000003_Node000009"><a xlink:title=" ">
<path fill="none" stroke="#63b8ff" d="M967.61,-176C991.45,-169.73 1017.47,-158.86 1035,-140 1055.7,-117.73 1048.96,-104.14 1053,-74 1054.12,-65.63 1057.93,-61.85 1053,-55 1030.19,-23.31 983.76,-13.86 952.26,-11.22"/>
<polygon fill="#63b8ff" stroke="#63b8ff" points="952.41,-7.73 942.21,-10.57 951.96,-14.71 952.41,-7.73"/>
</a>
</g>
</g>
<!-- Node10 -->
<g id="Node000010" class="node">
<title>Node10</title>
<g id="a_Node000010"><a xlink:title=" ">
<polygon fill="#e0e0e0" stroke="#999999" points="1043.5,-74 986.5,-74 986.5,-55 1043.5,-55 1043.5,-74"/>
<text text-anchor="middle" x="1015" y="-62" font-family="Helvetica,sans-Serif" font-size="10.00">ostream</text>
</a>
</g>
</g>
<!-- Node3&#45;&gt;Node10 -->
<g id="edge9_Node000003_Node000010" class="edge">
<title>Node3&#45;&gt;Node10</title>
<g id="a_edge9_Node000003_Node000010"><a xlink:title=" ">
<path fill="none" stroke="#63b8ff" d="M962.12,-175.97C983.17,-169.7 1005.35,-158.83 1018,-140 1029.03,-123.59 1025.83,-100.24 1021.45,-84.07"/>
<polygon fill="#63b8ff" stroke="#63b8ff" points="1024.7,-82.72 1018.4,-74.2 1018.01,-84.79 1024.7,-82.72"/>
</a>
</g>
</g>
<!-- Node11 -->
<g id="Node000011" class="node">
<title>Node11</title>
<g id="a_Node000011"><a xlink:title=" ">
<polygon fill="#e0e0e0" stroke="#999999" points="1008.5,-134.5 955.5,-134.5 955.5,-115.5 1008.5,-115.5 1008.5,-134.5"/>
<text text-anchor="middle" x="982" y="-122.5" font-family="Helvetica,sans-Serif" font-size="10.00">cstddef</text>
</a>
</g>
</g>
<!-- Node3&#45;&gt;Node11 -->
<g id="edge10_Node000003_Node000011" class="edge">
<title>Node3&#45;&gt;Node11</title>
<g id="a_edge10_Node000003_Node000011"><a xlink:title=" ">
<path fill="none" stroke="#63b8ff" d="M919.77,-175.87C931.2,-166.71 949.48,-152.06 963.28,-141.01"/>
<polygon fill="#63b8ff" stroke="#63b8ff" points="965.57,-143.65 971.18,-134.67 961.19,-138.19 965.57,-143.65"/>
</a>
</g>
</g>
<!-- Node12 -->
<g id="Node000012" class="node">
<title>Node12</title>
<g id="a_Node000012"><a xlink:href="encoding_2include_2webcface_2encoding_2val__adaptor_8h.html" target="_top" xlink:title=" ">
<polygon fill="white" stroke="#666666" points="723,-140 595,-140 595,-110 723,-110 723,-140"/>
<text text-anchor="start" x="603" y="-128" font-family="Helvetica,sans-Serif" font-size="10.00">webcface/encoding/val</text>
<text text-anchor="middle" x="659" y="-117" font-family="Helvetica,sans-Serif" font-size="10.00">_adaptor.h</text>
</a>
</g>
</g>
<!-- Node3&#45;&gt;Node12 -->
<g id="edge11_Node000003_Node000012" class="edge">
<title>Node3&#45;&gt;Node12</title>
<g id="a_edge11_Node000003_Node000012"><a xlink:title=" ">
<path fill="none" stroke="#63b8ff" d="M872.65,-175.99C835.1,-167.21 775.56,-153.27 728.86,-142.35"/>
<polygon fill="#63b8ff" stroke="#63b8ff" points="729.64,-138.93 719.1,-140.06 728.04,-145.75 729.64,-138.93"/>
</a>
</g>
</g>
<!-- Node3&#45;&gt;Node22 -->
<g id="edge28_Node000003_Node000022" class="edge">
<title>Node3&#45;&gt;Node22</title>
<g id="a_edge28_Node000003_Node000022"><a xlink:title=" ">
<path fill="none" stroke="#63b8ff" d="M848.84,-184.8C755.46,-183.99 570.6,-177.24 419,-140 381.65,-130.82 287.84,-99.45 259,-74 245.07,-61.7 235.29,-42.66 229.47,-28.64"/>
<polygon fill="#63b8ff" stroke="#63b8ff" points="232.65,-27.16 225.79,-19.08 226.12,-29.67 232.65,-27.16"/>
</a>
</g>
</g>
<!-- Node12&#45;&gt;Node5 -->
<g id="edge13_Node000012_Node000005" class="edge">
<title>Node12&#45;&gt;Node5</title>
<g id="a_edge13_Node000012_Node000005"><a xlink:title=" ">
<path fill="none" stroke="#63b8ff" d="M642.78,-109.84C632.76,-101.09 619.89,-89.85 609.62,-80.88"/>
<polygon fill="#63b8ff" stroke="#63b8ff" points="611.87,-78.21 602.04,-74.27 607.27,-83.48 611.87,-78.21"/>
</a>
</g>
</g>
<!-- Node12&#45;&gt;Node9 -->
<g id="edge12_Node000012_Node000009" class="edge">
<title>Node12&#45;&gt;Node9</title>
<g id="a_edge12_Node000012_Node000009"><a xlink:title=" ">
<path fill="none" stroke="#63b8ff" d="M723.08,-112.44C792.52,-99.66 894.37,-80.08 901,-74 913.32,-62.71 917.77,-43.8 919.32,-29.55"/>
<polygon fill="#63b8ff" stroke="#63b8ff" points="922.83,-29.57 920.04,-19.35 915.85,-29.08 922.83,-29.57"/>
</a>
</g>
</g>
<!-- Node12&#45;&gt;Node10 -->
<g id="edge17_Node000012_Node000010" class="edge">
<title>Node12&#45;&gt;Node10</title>
<g id="a_edge17_Node000012_Node000010"><a xlink:title=" ">
<path fill="none" stroke="#63b8ff" d="M723.06,-113.47C796.86,-101.35 915.75,-81.81 976.53,-71.82"/>
<polygon fill="#63b8ff" stroke="#63b8ff" points="977.17,-75.26 986.47,-70.19 976.03,-68.36 977.17,-75.26"/>
</a>
</g>
</g>
<!-- Node13 -->
<g id="Node000013" class="node">
<title>Node13</title>
<g id="a_Node000013"><a xlink:title=" ">
<polygon fill="#e0e0e0" stroke="#999999" points="743.5,-74 702.5,-74 702.5,-55 743.5,-55 743.5,-74"/>
<text text-anchor="middle" x="723" y="-62" font-family="Helvetica,sans-Serif" font-size="10.00">tuple</text>
</a>
</g>
</g>
<!-- Node12&#45;&gt;Node13 -->
<g id="edge14_Node000012_Node000013" class="edge">
<title>Node12&#45;&gt;Node13</title>
<g id="a_edge14_Node000012_Node000013"><a xlink:title=" ">
<path fill="none" stroke="#63b8ff" d="M674.49,-109.84C683.97,-101.17 696.11,-90.08 705.88,-81.15"/>
<polygon fill="#63b8ff" stroke="#63b8ff" points="708.39,-83.6 713.41,-74.27 703.67,-78.43 708.39,-83.6"/>
</a>
</g>
</g>
<!-- Node14 -->
<g id="Node000014" class="node">
<title>Node14</title>
<g id="a_Node000014"><a xlink:title=" ">
<polygon fill="#e0e0e0" stroke="#999999" points="822,-74 762,-74 762,-55 822,-55 822,-74"/>
<text text-anchor="middle" x="792" y="-62" font-family="Helvetica,sans-Serif" font-size="10.00">concepts</text>
</a>
</g>
</g>
<!-- Node12&#45;&gt;Node14 -->
<g id="edge15_Node000012_Node000014" class="edge">
<title>Node12&#45;&gt;Node14</title>
<g id="a_edge15_Node000012_Node000014"><a xlink:title=" ">
<path fill="none" stroke="#63b8ff" d="M690.86,-109.99C712.85,-100.31 741.85,-87.56 763.16,-78.18"/>
<polygon fill="#63b8ff" stroke="#63b8ff" points="764.61,-81.37 772.36,-74.14 761.8,-74.96 764.61,-81.37"/>
</a>
</g>
</g>
<!-- Node15 -->
<g id="Node000015" class="node">
<title>Node15</title>
<g id="a_Node000015"><a xlink:title=" ">
<polygon fill="#e0e0e0" stroke="#999999" points="684,-74 634,-74 634,-55 684,-55 684,-74"/>
<text text-anchor="middle" x="659" y="-62" font-family="Helvetica,sans-Serif" font-size="10.00">cstdint</text>
</a>
</g>
</g>
<!-- Node12&#45;&gt;Node15 -->
<g id="edge16_Node000012_Node000015" class="edge">
<title>Node12&#45;&gt;Node15</title>
<g id="a_edge16_Node000012_Node000015"><a xlink:title=" ">
<path fill="none" stroke="#63b8ff" d="M659,-109.84C659,-102.21 659,-92.7 659,-84.45"/>
<polygon fill="#63b8ff" stroke="#63b8ff" points="662.5,-84.27 659,-74.27 655.5,-84.27 662.5,-84.27"/>
</a>
</g>
</g>
<!-- Node16 -->
<g id="Node000016" class="node">
<title>Node16</title>
<g id="a_Node000016"><a xlink:title=" ">
<polygon fill="#e0e0e0" stroke="#999999" points="891.5,-74 840.5,-74 840.5,-55 891.5,-55 891.5,-74"/>
<text text-anchor="middle" x="866" y="-62" font-family="Helvetica,sans-Serif" font-size="10.00">variant</text>
</a>
</g>
</g>
<!-- Node12&#45;&gt;Node16 -->
<g id="edge18_Node000012_Node000016" class="edge">
<title>Node12&#45;&gt;Node16</title>
<g id="a_edge18_Node000012_Node000016"><a xlink:title=" ">
<path fill="none" stroke="#63b8ff" d="M708.58,-109.99C746.19,-99.36 796.99,-85 830.58,-75.51"/>
<polygon fill="#63b8ff" stroke="#63b8ff" points="831.75,-78.82 840.42,-72.73 829.85,-72.08 831.75,-78.82"/>
</a>
</g>
</g>
<!-- Node17 -->
<g id="Node000017" class="node">
<title>Node17</title>
<g id="a_Node000017"><a xlink:href="encoding_8h.html" target="_top" xlink:title=" ">
<polygon fill="white" stroke="#666666" points="512,-74 442,-74 442,-55 512,-55 512,-74"/>
<text text-anchor="middle" x="477" y="-62" font-family="Helvetica,sans-Serif" font-size="10.00">encoding.h</text>
</a>
</g>
</g>
<!-- Node12&#45;&gt;Node17 -->
<g id="edge19_Node000012_Node000017" class="edge">
<title>Node12&#45;&gt;Node17</title>
<g id="a_edge19_Node000012_Node000017"><a xlink:title=" ">
<path fill="none" stroke="#63b8ff" d="M615.41,-109.99C584.27,-99.98 542.86,-86.67 513.47,-77.22"/>
<polygon fill="#63b8ff" stroke="#63b8ff" points="514.2,-73.78 503.61,-74.05 512.06,-80.45 514.2,-73.78"/>
</a>
</g>
</g>
<!-- Node12&#45;&gt;Node22 -->
<g id="edge27_Node000012_Node000022" class="edge">
<title>Node12&#45;&gt;Node22</title>
<g id="a_edge27_Node000012_Node000022"><a xlink:title=" ">
<path fill="none" stroke="#63b8ff" d="M594.88,-111.17C549.47,-101.75 487.24,-88.18 433,-74 371.21,-57.85 300.27,-35.61 258.68,-22.19"/>
<polygon fill="#63b8ff" stroke="#63b8ff" points="259.6,-18.81 249.01,-19.06 257.45,-25.47 259.6,-18.81"/>
</a>
</g>
</g>
<!-- Node17&#45;&gt;Node2 -->
<g id="edge23_Node000017_Node000002" class="edge">
<title>Node17&#45;&gt;Node2</title>
<g id="a_edge23_Node000017_Node000002"><a xlink:title=" ">
<path fill="none" stroke="#63b8ff" d="M441.83,-59.39C357.01,-49.46 142,-24.31 58.19,-14.5"/>
<polygon fill="#63b8ff" stroke="#63b8ff" points="58.51,-11.01 48.17,-13.33 57.7,-17.97 58.51,-11.01"/>
</a>
</g>
</g>
<!-- Node17&#45;&gt;Node9 -->
<g id="edge20_Node000017_Node000009" class="edge">
<title>Node17&#45;&gt;Node9</title>
<g id="a_edge20_Node000017_Node000009"><a xlink:title=" ">
<path fill="none" stroke="#63b8ff" d="M512.02,-57.16C516.72,-56.39 521.47,-55.65 526,-55 659.89,-35.84 820.36,-19.88 887.73,-13.49"/>
<polygon fill="#63b8ff" stroke="#63b8ff" points="888.1,-16.97 897.73,-12.55 887.44,-10 888.1,-16.97"/>
</a>
</g>
</g>
<!-- Node18 -->
<g id="Node000018" class="node">
<title>Node18</title>
<g id="a_Node000018"><a xlink:title=" ">
<polygon fill="#e0e0e0" stroke="#999999" points="458.5,-19 385.5,-19 385.5,0 458.5,0 458.5,-19"/>
<text text-anchor="middle" x="422" y="-7" font-family="Helvetica,sans-Serif" font-size="10.00">string_view</text>
</a>
</g>
</g>
<!-- Node17&#45;&gt;Node18 -->
<g id="edge21_Node000017_Node000018" class="edge">
<title>Node17&#45;&gt;Node18</title>
<g id="a_edge21_Node000017_Node000018"><a xlink:title=" ">
<path fill="none" stroke="#63b8ff" d="M467.92,-54.75C459.91,-47.03 448.04,-35.6 438.38,-26.28"/>
<polygon fill="#63b8ff" stroke="#63b8ff" points="440.54,-23.51 430.91,-19.09 435.69,-28.55 440.54,-23.51"/>
</a>
</g>
</g>
<!-- Node19 -->
<g id="Node000019" class="node">
<title>Node19</title>
<g id="a_Node000019"><a xlink:title=" ">
<polygon fill="#e0e0e0" stroke="#999999" points="367,-19 309,-19 309,0 367,0 367,-19"/>
<text text-anchor="middle" x="338" y="-7" font-family="Helvetica,sans-Serif" font-size="10.00">memory</text>
</a>
</g>
</g>
<!-- Node17&#45;&gt;Node19 -->
<g id="edge22_Node000017_Node000019" class="edge">
<title>Node17&#45;&gt;Node19</title>
<g id="a_edge22_Node000017_Node000019"><a xlink:title=" ">
<path fill="none" stroke="#63b8ff" d="M454.67,-54.98C431.8,-46.27 396.04,-32.63 370.14,-22.75"/>
<polygon fill="#63b8ff" stroke="#63b8ff" points="371.33,-19.46 360.74,-19.17 368.84,-26 371.33,-19.46"/>
</a>
</g>
</g>
<!-- Node20 -->
<g id="Node000020" class="node">
<title>Node20</title>
<g id="a_Node000020"><a xlink:title=" ">
<polygon fill="#e0e0e0" stroke="#999999" points="674.5,-19 581.5,-19 581.5,0 674.5,0 674.5,-19"/>
<text text-anchor="middle" x="628" y="-7" font-family="Helvetica,sans-Serif" font-size="10.00">unordered_map</text>
</a>
</g>
</g>
<!-- Node17&#45;&gt;Node20 -->
<g id="edge24_Node000017_Node000020" class="edge">
<title>Node17&#45;&gt;Node20</title>
<g id="a_edge24_Node000017_Node000020"><a xlink:title=" ">
<path fill="none" stroke="#63b8ff" d="M501.26,-54.98C526.32,-46.19 565.63,-32.39 593.83,-22.49"/>
<polygon fill="#63b8ff" stroke="#63b8ff" points="595.02,-25.78 603.3,-19.17 592.7,-19.18 595.02,-25.78"/>
</a>
</g>
</g>
<!-- Node21 -->
<g id="Node000021" class="node">
<title>Node21</title>
<g id="a_Node000021"><a xlink:title=" ">
<polygon fill="#e0e0e0" stroke="#999999" points="563,-19 477,-19 477,0 563,0 563,-19"/>
<text text-anchor="middle" x="520" y="-7" font-family="Helvetica,sans-Serif" font-size="10.00">unordered_set</text>
</a>
</g>
</g>
<!-- Node17&#45;&gt;Node21 -->
<g id="edge25_Node000017_Node000021" class="edge">
<title>Node17&#45;&gt;Node21</title>
<g id="a_edge25_Node000017_Node000021"><a xlink:title=" ">
<path fill="none" stroke="#63b8ff" d="M484.1,-54.75C490.17,-47.26 499.09,-36.28 506.51,-27.13"/>
<polygon fill="#63b8ff" stroke="#63b8ff" points="509.45,-29.06 513.03,-19.09 504.01,-24.65 509.45,-29.06"/>
</a>
</g>
</g>
<!-- Node17&#45;&gt;Node22 -->
<g id="edge26_Node000017_Node000022" class="edge">
<title>Node17&#45;&gt;Node22</title>
<g id="a_edge26_Node000017_Node000022"><a xlink:title=" ">
<path fill="none" stroke="#63b8ff" d="M441.95,-56.19C398.41,-47.1 323.78,-31.53 273.92,-21.13"/>
<polygon fill="#63b8ff" stroke="#63b8ff" points="274.5,-17.67 263.99,-19.05 273.07,-24.52 274.5,-17.67"/>
</a>
</g>
</g>
<!-- Node23&#45;&gt;Node4 -->
<g id="edge32_Node000023_Node000004" class="edge">
<title>Node23&#45;&gt;Node4</title>
<g id="a_edge32_Node000023_Node000004"><a xlink:title=" ">
<path fill="none" stroke="#63b8ff" d="M516.56,-180.88C587.62,-175.85 704.8,-164.44 803,-140 805.45,-139.39 807.96,-138.67 810.46,-137.88"/>
<polygon fill="#63b8ff" stroke="#63b8ff" points="811.63,-141.18 819.92,-134.58 809.32,-134.57 811.63,-141.18"/>
</a>
</g>
</g>
<!-- Node23&#45;&gt;Node9 -->
<g id="edge31_Node000023_Node000009" class="edge">
<title>Node23&#45;&gt;Node9</title>
<g id="a_edge31_Node000023_Node000009"><a xlink:title=" ">
<path fill="none" stroke="#63b8ff" d="M516.53,-184.6C575.37,-182.34 663.34,-172.97 732,-140 749.87,-131.42 747.45,-119.21 765,-110 827.63,-77.15 876.01,-129.38 920,-74 929.85,-61.6 928.65,-43.13 925.69,-29.3"/>
<polygon fill="#63b8ff" stroke="#63b8ff" points="929.03,-28.21 923.13,-19.41 922.25,-29.97 929.03,-28.21"/>
</a>
</g>
</g>
<!-- Node23&#45;&gt;Node10 -->
<g id="edge30_Node000023_Node000010" class="edge">
<title>Node23&#45;&gt;Node10</title>
<g id="a_edge30_Node000023_Node000010"><a xlink:title=" ">
<path fill="none" stroke="#63b8ff" d="M516.56,-184C581.45,-181.52 683.29,-172.18 765,-140 786.68,-131.46 786.63,-119.3 808,-110 815.73,-106.64 918.72,-85.23 976.44,-73.38"/>
<polygon fill="#63b8ff" stroke="#63b8ff" points="977.23,-76.79 986.32,-71.35 975.82,-69.93 977.23,-76.79"/>
</a>
</g>
</g>
<!-- Node23&#45;&gt;Node12 -->
<g id="edge43_Node000023_Node000012" class="edge">
<title>Node23&#45;&gt;Node12</title>
<g id="a_edge43_Node000023_Node000012"><a xlink:title=" ">
<path fill="none" stroke="#63b8ff" d="M482.1,-175.99C512.67,-167.35 560.84,-153.74 599.2,-142.9"/>
<polygon fill="#63b8ff" stroke="#63b8ff" points="600.56,-146.15 609.23,-140.06 598.66,-139.42 600.56,-146.15"/>
</a>
</g>
</g>
<!-- Node23&#45;&gt;Node15 -->
<g id="edge35_Node000023_Node000015" class="edge">
<title>Node23&#45;&gt;Node15</title>
<g id="a_edge35_Node000023_Node000015"><a xlink:title=" ">
<path fill="none" stroke="#63b8ff" d="M466.89,-175.94C502.38,-155.54 592.23,-103.88 635.29,-79.13"/>
<polygon fill="#63b8ff" stroke="#63b8ff" points="637.04,-82.16 643.97,-74.14 633.56,-76.09 637.04,-82.16"/>
</a>
</g>
</g>
<!-- Node23&#45;&gt;Node19 -->
<g id="edge33_Node000023_Node000019" class="edge">
<title>Node23&#45;&gt;Node19</title>
<g id="a_edge33_Node000023_Node000019"><a xlink:title=" ">
<path fill="none" stroke="#63b8ff" d="M445.22,-175.78C438.39,-166.92 427.67,-152.71 419,-140 392.22,-100.74 363.24,-52.98 348.26,-27.87"/>
<polygon fill="#63b8ff" stroke="#63b8ff" points="351.19,-25.95 343.08,-19.13 345.18,-29.52 351.19,-25.95"/>
</a>
</g>
</g>
<!-- Node23&#45;&gt;Node22 -->
<g id="edge44_Node000023_Node000022" class="edge">
<title>Node23&#45;&gt;Node22</title>
<g id="a_edge44_Node000023_Node000022"><a xlink:title=" ">
<path fill="none" stroke="#63b8ff" d="M387.38,-178.15C331.97,-171.48 257.62,-159.26 235,-140 205.02,-114.47 204.42,-93.98 210,-55 211.25,-46.24 213.83,-36.79 216.36,-28.86"/>
<polygon fill="#63b8ff" stroke="#63b8ff" points="219.74,-29.8 219.66,-19.2 213.12,-27.54 219.74,-29.8"/>
</a>
</g>
</g>
<!-- Node24 -->
<g id="Node000024" class="node">
<title>Node24</title>
<g id="a_Node000024"><a xlink:title=" ">
<polygon fill="#e0e0e0" stroke="#999999" points="309.5,-134.5 244.5,-134.5 244.5,-115.5 309.5,-115.5 309.5,-134.5"/>
<text text-anchor="middle" x="277" y="-122.5" font-family="Helvetica,sans-Serif" font-size="10.00">stdexcept</text>
</a>
</g>
</g>
<!-- Node23&#45;&gt;Node24 -->
<g id="edge34_Node000023_Node000024" class="edge">
<title>Node23&#45;&gt;Node24</title>
<g id="a_edge34_Node000023_Node000024"><a xlink:title=" ">
<path fill="none" stroke="#63b8ff" d="M426.55,-175.99C396.36,-165.9 345.84,-149.01 311.98,-137.69"/>
<polygon fill="#63b8ff" stroke="#63b8ff" points="313.07,-134.37 302.48,-134.52 310.85,-141.01 313.07,-134.37"/>
</a>
</g>
</g>
<!-- Node25 -->
<g id="Node000025" class="node">
<title>Node25</title>
<g id="a_Node000025"><a xlink:href="field_8h.html" target="_top" xlink:title=" ">
<polygon fill="white" stroke="#666666" points="475.5,-134.5 428.5,-134.5 428.5,-115.5 475.5,-115.5 475.5,-134.5"/>
<text text-anchor="middle" x="452" y="-122.5" font-family="Helvetica,sans-Serif" font-size="10.00">field.h</text>
</a>
</g>
</g>
<!-- Node23&#45;&gt;Node25 -->
<g id="edge36_Node000023_Node000025" class="edge">
<title>Node23&#45;&gt;Node25</title>
<g id="a_edge36_Node000023_Node000025"><a xlink:title=" ">
<path fill="none" stroke="#63b8ff" d="M452,-175.87C452,-167.75 452,-155.31 452,-144.89"/>
<polygon fill="#63b8ff" stroke="#63b8ff" points="455.5,-144.67 452,-134.67 448.5,-144.67 455.5,-144.67"/>
</a>
</g>
</g>
<!-- Node26 -->
<g id="Node000026" class="node">
<title>Node26</title>
<g id="a_Node000026"><a xlink:href="def__types_8h.html" target="_top" xlink:title=" ">
<polygon fill="white" stroke="#666666" points="139.5,-140 26.5,-140 26.5,-110 139.5,-110 139.5,-140"/>
<text text-anchor="start" x="34.5" y="-128" font-family="Helvetica,sans-Serif" font-size="10.00">webcface/c_wcf/def</text>
<text text-anchor="middle" x="83" y="-117" font-family="Helvetica,sans-Serif" font-size="10.00">_types.h</text>
</a>
</g>
</g>
<!-- Node23&#45;&gt;Node26 -->
<g id="edge45_Node000023_Node000026" class="edge">
<title>Node23&#45;&gt;Node26</title>
<g id="a_edge45_Node000023_Node000026"><a xlink:title=" ">
<path fill="none" stroke="#63b8ff" d="M398.34,-175.99C332.62,-165.57 221.24,-147.92 149.97,-136.62"/>
<polygon fill="#63b8ff" stroke="#63b8ff" points="150.18,-133.11 139.75,-135 149.08,-140.02 150.18,-133.11"/>
</a>
</g>
</g>
<!-- Node25&#45;&gt;Node5 -->
<g id="edge40_Node000025_Node000005" class="edge">
<title>Node25&#45;&gt;Node5</title>
<g id="a_edge40_Node000025_Node000005"><a xlink:title=" ">
<path fill="none" stroke="#63b8ff" d="M472.36,-115.49C496,-105.62 535.2,-89.23 562.25,-77.93"/>
<polygon fill="#63b8ff" stroke="#63b8ff" points="563.74,-81.1 571.62,-74.02 561.04,-74.64 563.74,-81.1"/>
</a>
</g>
</g>
<!-- Node25&#45;&gt;Node9 -->
<g id="edge38_Node000025_Node000009" class="edge">
<title>Node25&#45;&gt;Node9</title>
<g id="a_edge38_Node000025_Node000009"><a xlink:title=" ">
<path fill="none" stroke="#63b8ff" d="M463.88,-115.36C487.26,-98.53 538.74,-62.34 559,-55 674.33,-13.2 822.5,-9.21 887.26,-9.72"/>
<polygon fill="#63b8ff" stroke="#63b8ff" points="887.6,-13.23 897.64,-9.85 887.69,-6.23 887.6,-13.23"/>
</a>
</g>
</g>
<!-- Node25&#45;&gt;Node17 -->
<g id="edge42_Node000025_Node000017" class="edge">
<title>Node25&#45;&gt;Node17</title>
<g id="a_edge42_Node000025_Node000017"><a xlink:title=" ">
<path fill="none" stroke="#63b8ff" d="M455.69,-115.37C459.27,-106.99 464.82,-94.01 469.35,-83.39"/>
<polygon fill="#63b8ff" stroke="#63b8ff" points="472.58,-84.74 473.3,-74.17 466.15,-81.99 472.58,-84.74"/>
</a>
</g>
</g>
<!-- Node25&#45;&gt;Node18 -->
<g id="edge39_Node000025_Node000018" class="edge">
<title>Node25&#45;&gt;Node18</title>
<g id="a_edge39_Node000025_Node000018"><a xlink:title=" ">
<path fill="none" stroke="#63b8ff" d="M448.12,-115.32C443.85,-105.48 437.07,-88.87 433,-74 428.97,-59.29 426.12,-42.25 424.32,-29.52"/>
<polygon fill="#63b8ff" stroke="#63b8ff" points="427.75,-28.7 422.98,-19.24 420.81,-29.61 427.75,-28.7"/>
</a>
</g>
</g>
<!-- Node25&#45;&gt;Node19 -->
<g id="edge37_Node000025_Node000019" class="edge">
<title>Node25&#45;&gt;Node19</title>
<g id="a_edge37_Node000025_Node000019"><a xlink:title=" ">
<path fill="none" stroke="#63b8ff" d="M443.43,-115.47C424.37,-96.49 378.21,-50.53 353.78,-26.21"/>
<polygon fill="#63b8ff" stroke="#63b8ff" points="356.22,-23.71 346.67,-19.13 351.29,-28.67 356.22,-23.71"/>
</a>
</g>
</g>
<!-- Node25&#45;&gt;Node22 -->
<g id="edge41_Node000025_Node000022" class="edge">
<title>Node25&#45;&gt;Node22</title>
<g id="a_edge41_Node000025_Node000022"><a xlink:title=" ">
<path fill="none" stroke="#63b8ff" d="M428.22,-118.37C388.41,-108.71 310.25,-88.57 286,-74 265.72,-61.81 247.26,-41.64 235.64,-27.3"/>
<polygon fill="#63b8ff" stroke="#63b8ff" points="238.26,-24.97 229.33,-19.25 232.75,-29.28 238.26,-24.97"/>
</a>
</g>
</g>
<!-- Node26&#45;&gt;Node22 -->
<g id="edge46_Node000026_Node000022" class="edge">
<title>Node26&#45;&gt;Node22</title>
<g id="a_edge46_Node000026_Node000022"><a xlink:title=" ">
<path fill="none" stroke="#63b8ff" d="M59.13,-109.94C38.41,-95.95 13.93,-73.92 29,-55 43.65,-36.61 97.53,-25.2 144.81,-18.54"/>
<polygon fill="#63b8ff" stroke="#63b8ff" points="145.34,-22 154.78,-17.19 144.4,-15.06 145.34,-22"/>
</a>
</g>
</g>
<!-- Node27 -->
<g id="Node000027" class="node">
<title>Node27</title>
<g id="a_Node000027"><a xlink:title=" ">
<polygon fill="#e0e0e0" stroke="#999999" points="92,-74 38,-74 38,-55 92,-55 92,-74"/>
<text text-anchor="middle" x="65" y="-62" font-family="Helvetica,sans-Serif" font-size="10.00">wchar.h</text>
</a>
</g>
</g>
<!-- Node26&#45;&gt;Node27 -->
<g id="edge47_Node000026_Node000027" class="edge">
<title>Node26&#45;&gt;Node27</title>
<g id="a_edge47_Node000026_Node000027"><a xlink:title=" ">
<path fill="none" stroke="#63b8ff" d="M78.64,-109.84C76.24,-102.04 73.24,-92.27 70.66,-83.89"/>
<polygon fill="#63b8ff" stroke="#63b8ff" points="73.98,-82.79 67.7,-74.27 67.29,-84.85 73.98,-82.79"/>
</a>
</g>
</g>
<!-- Node28 -->
<g id="Node000028" class="node">
<title>Node28</title>
<g id="a_Node000028"><a xlink:title=" ">
<polygon fill="#e0e0e0" stroke="#999999" points="157.5,-74 110.5,-74 110.5,-55 157.5,-55 157.5,-74"/>
<text text-anchor="middle" x="134" y="-62" font-family="Helvetica,sans-Serif" font-size="10.00">float.h</text>
</a>
</g>
</g>
<!-- Node26&#45;&gt;Node28 -->
<g id="edge48_Node000026_Node000028" class="edge">
<title>Node26&#45;&gt;Node28</title>
<g id="a_edge48_Node000026_Node000028"><a xlink:title=" ">
<path fill="none" stroke="#63b8ff" d="M95.35,-109.84C102.67,-101.43 112,-90.74 119.65,-81.96"/>
<polygon fill="#63b8ff" stroke="#63b8ff" points="122.42,-84.1 126.36,-74.27 117.15,-79.5 122.42,-84.1"/>
</a>
</g>
</g>
</g>
</svg>
