<?xml version="1.0" encoding="UTF-8" standalone="no"?>
<!DOCTYPE svg PUBLIC "-//W3C//DTD SVG 1.1//EN"
 "http://www.w3.org/Graphics/SVG/1.1/DTD/svg11.dtd">
<!-- Generated by graphviz version 2.43.0 (0)
 -->
<!-- Title: client/include/webcface/func_listener.h Pages: 1 -->
<svg width="1209pt" height="324pt"
 viewBox="0.00 0.00 1209.10 324.00" xmlns="http://www.w3.org/2000/svg" xmlns:xlink="http://www.w3.org/1999/xlink">
<g id="graph0" class="graph" transform="scale(1 1) rotate(0) translate(4 320)">
<title>client/include/webcface/func_listener.h</title>
<!-- Node1 -->
<g id="Node000001" class="node">
<title>Node1</title>
<g id="a_Node000001"><a xlink:title=" ">
<polygon fill="#999999" stroke="#666666" points="733.5,-316 602.5,-316 602.5,-286 733.5,-286 733.5,-316"/>
<text text-anchor="start" x="610.5" y="-304" font-family="Helvetica,sans-Serif" font-size="10.00">client/include/webcface</text>
<text text-anchor="middle" x="668" y="-293" font-family="Helvetica,sans-Serif" font-size="10.00">/func_listener.h</text>
</a>
</g>
</g>
<!-- Node2 -->
<g id="Node000002" class="node">
<title>Node2</title>
<g id="a_Node000002"><a xlink:href="client_2include_2webcface_2func_8h.html" target="_top" xlink:title=" ">
<polygon fill="white" stroke="#666666" points="691.5,-250 644.5,-250 644.5,-231 691.5,-231 691.5,-250"/>
<text text-anchor="middle" x="668" y="-238" font-family="Helvetica,sans-Serif" font-size="10.00">func.h</text>
</a>
</g>
</g>
<!-- Node1&#45;&gt;Node2 -->
<g id="edge1_Node000001_Node000002" class="edge">
<title>Node1&#45;&gt;Node2</title>
<g id="a_edge1_Node000001_Node000002"><a xlink:title=" ">
<path fill="none" stroke="#63b8ff" d="M668,-285.84C668,-278.21 668,-268.7 668,-260.45"/>
<polygon fill="#63b8ff" stroke="#63b8ff" points="671.5,-260.27 668,-250.27 664.5,-260.27 671.5,-260.27"/>
</a>
</g>
</g>
<!-- Node3 -->
<g id="Node000003" class="node">
<title>Node3</title>
<g id="a_Node000003"><a xlink:href="common_2val__adaptor_8h.html" target="_top" xlink:title=" ">
<polygon fill="white" stroke="#666666" points="966.5,-140 839.5,-140 839.5,-110 966.5,-110 966.5,-140"/>
<text text-anchor="start" x="847.5" y="-128" font-family="Helvetica,sans-Serif" font-size="10.00">webcface/common/val</text>
<text text-anchor="middle" x="903" y="-117" font-family="Helvetica,sans-Serif" font-size="10.00">_adaptor.h</text>
</a>
</g>
</g>
<!-- Node2&#45;&gt;Node3 -->
<g id="edge2_Node000002_Node000003" class="edge">
<title>Node2&#45;&gt;Node3</title>
<g id="a_edge2_Node000002_Node000003"><a xlink:title=" ">
<path fill="none" stroke="#63b8ff" d="M691.56,-231.96C715.73,-223.9 754.21,-210.23 786,-195 816.6,-180.34 849.77,-160.36 872.95,-145.67"/>
<polygon fill="#63b8ff" stroke="#63b8ff" points="875.08,-148.46 881.62,-140.13 871.31,-142.56 875.08,-148.46"/>
</a>
</g>
</g>
<!-- Node14 -->
<g id="Node000014" class="node">
<title>Node14</title>
<g id="a_Node000014"><a xlink:href="func__result_8h.html" target="_top" xlink:title=" ">
<polygon fill="white" stroke="#666666" points="615,-195 535,-195 535,-176 615,-176 615,-195"/>
<text text-anchor="middle" x="575" y="-183" font-family="Helvetica,sans-Serif" font-size="10.00">func_result.h</text>
</a>
</g>
</g>
<!-- Node2&#45;&gt;Node14 -->
<g id="edge15_Node000002_Node000014" class="edge">
<title>Node2&#45;&gt;Node14</title>
<g id="a_edge15_Node000002_Node000014"><a xlink:title=" ">
<path fill="none" stroke="#63b8ff" d="M653.06,-230.98C638.5,-222.69 616.13,-209.94 599.07,-200.22"/>
<polygon fill="#63b8ff" stroke="#63b8ff" points="600.64,-197.08 590.21,-195.17 597.17,-203.16 600.64,-197.08"/>
</a>
</g>
</g>
<!-- Node15 -->
<g id="Node000015" class="node">
<title>Node15</title>
<g id="a_Node000015"><a xlink:href="exception_8h.html" target="_top" xlink:title=" ">
<polygon fill="white" stroke="#666666" points="174.5,-134.5 51.5,-134.5 51.5,-115.5 174.5,-115.5 174.5,-134.5"/>
<text text-anchor="middle" x="113" y="-122.5" font-family="Helvetica,sans-Serif" font-size="10.00">webcface/exception.h</text>
</a>
</g>
</g>
<!-- Node2&#45;&gt;Node15 -->
<g id="edge49_Node000002_Node000015" class="edge">
<title>Node2&#45;&gt;Node15</title>
<g id="a_edge49_Node000002_Node000015"><a xlink:title=" ">
<path fill="none" stroke="#63b8ff" d="M644.15,-234.62C560.87,-217.59 281.73,-160.51 165,-136.63"/>
<polygon fill="#63b8ff" stroke="#63b8ff" points="165.38,-133.14 154.89,-134.57 163.98,-140 165.38,-133.14"/>
</a>
</g>
</g>
<!-- Node25 -->
<g id="Node000025" class="node">
<title>Node25</title>
<g id="a_Node000025"><a xlink:href="arg_8h.html" target="_top" xlink:title=" ">
<polygon fill="white" stroke="#666666" points="776.5,-195 735.5,-195 735.5,-176 776.5,-176 776.5,-195"/>
<text text-anchor="middle" x="756" y="-183" font-family="Helvetica,sans-Serif" font-size="10.00">arg.h</text>
</a>
</g>
</g>
<!-- Node2&#45;&gt;Node25 -->
<g id="edge38_Node000002_Node000025" class="edge">
<title>Node2&#45;&gt;Node25</title>
<g id="a_edge38_Node000002_Node000025"><a xlink:title=" ">
<path fill="none" stroke="#63b8ff" d="M682.14,-230.98C695.79,-222.77 716.69,-210.18 732.78,-200.49"/>
<polygon fill="#63b8ff" stroke="#63b8ff" points="734.84,-203.33 741.6,-195.17 731.23,-197.33 734.84,-203.33"/>
</a>
</g>
</g>
<!-- Node26 -->
<g id="Node000026" class="node">
<title>Node26</title>
<g id="a_Node000026"><a xlink:href="trait_8h.html" target="_top" xlink:title=" ">
<polygon fill="white" stroke="#666666" points="46,-74 0,-74 0,-55 46,-55 46,-74"/>
<text text-anchor="middle" x="23" y="-62" font-family="Helvetica,sans-Serif" font-size="10.00">trait.h</text>
</a>
</g>
</g>
<!-- Node2&#45;&gt;Node26 -->
<g id="edge42_Node000002_Node000026" class="edge">
<title>Node2&#45;&gt;Node26</title>
<g id="a_edge42_Node000002_Node000026"><a xlink:title=" ">
<path fill="none" stroke="#63b8ff" d="M644.32,-239.11C541.21,-236.95 132.41,-223.15 42,-140 26.75,-125.98 23.01,-101.58 22.43,-84.54"/>
<polygon fill="#63b8ff" stroke="#63b8ff" points="25.93,-84.13 22.42,-74.13 18.93,-84.13 25.93,-84.13"/>
</a>
</g>
</g>
<!-- Node27 -->
<g id="Node000027" class="node">
<title>Node27</title>
<g id="a_Node000027"><a xlink:href="func__trait_8h.html" target="_top" xlink:title=" ">
<polygon fill="white" stroke="#666666" points="979,-195 907,-195 907,-176 979,-176 979,-195"/>
<text text-anchor="middle" x="943" y="-183" font-family="Helvetica,sans-Serif" font-size="10.00">func_trait.h</text>
</a>
</g>
</g>
<!-- Node2&#45;&gt;Node27 -->
<g id="edge45_Node000002_Node000027" class="edge">
<title>Node2&#45;&gt;Node27</title>
<g id="a_edge45_Node000002_Node000027"><a xlink:title=" ">
<path fill="none" stroke="#63b8ff" d="M691.92,-234.89C737.53,-226.1 837.64,-206.8 896.75,-195.41"/>
<polygon fill="#63b8ff" stroke="#63b8ff" points="897.77,-198.78 906.93,-193.45 896.45,-191.91 897.77,-198.78"/>
</a>
</g>
</g>
<!-- Node4 -->
<g id="Node000004" class="node">
<title>Node4</title>
<g id="a_Node000004"><a xlink:title=" ">
<polygon fill="#e0e0e0" stroke="#999999" points="788,-19 744,-19 744,0 788,0 788,-19"/>
<text text-anchor="middle" x="766" y="-7" font-family="Helvetica,sans-Serif" font-size="10.00">string</text>
</a>
</g>
</g>
<!-- Node3&#45;&gt;Node4 -->
<g id="edge3_Node000003_Node000004" class="edge">
<title>Node3&#45;&gt;Node4</title>
<g id="a_edge3_Node000003_Node000004"><a xlink:title=" ">
<path fill="none" stroke="#63b8ff" d="M966.7,-120.66C1034.49,-114.8 1127.13,-98.75 1089,-55 1051.51,-11.99 872.78,-9.12 798.49,-9.85"/>
<polygon fill="#63b8ff" stroke="#63b8ff" points="798.28,-6.35 788.32,-9.98 798.36,-13.35 798.28,-6.35"/>
</a>
</g>
</g>
<!-- Node5 -->
<g id="Node000005" class="node">
<title>Node5</title>
<g id="a_Node000005"><a xlink:title=" ">
<polygon fill="#e0e0e0" stroke="#999999" points="827.5,-74 780.5,-74 780.5,-55 827.5,-55 827.5,-74"/>
<text text-anchor="middle" x="804" y="-62" font-family="Helvetica,sans-Serif" font-size="10.00">vector</text>
</a>
</g>
</g>
<!-- Node3&#45;&gt;Node5 -->
<g id="edge4_Node000003_Node000005" class="edge">
<title>Node3&#45;&gt;Node5</title>
<g id="a_edge4_Node000003_Node000005"><a xlink:title=" ">
<path fill="none" stroke="#63b8ff" d="M879.29,-109.99C863.65,-100.75 843.26,-88.7 827.64,-79.47"/>
<polygon fill="#63b8ff" stroke="#63b8ff" points="829.01,-76.21 818.62,-74.14 825.45,-82.24 829.01,-76.21"/>
</a>
</g>
</g>
<!-- Node6 -->
<g id="Node000006" class="node">
<title>Node6</title>
<g id="a_Node000006"><a xlink:title=" ">
<polygon fill="#e0e0e0" stroke="#999999" points="1177.5,-74 1136.5,-74 1136.5,-55 1177.5,-55 1177.5,-74"/>
<text text-anchor="middle" x="1157" y="-62" font-family="Helvetica,sans-Serif" font-size="10.00">tuple</text>
</a>
</g>
</g>
<!-- Node3&#45;&gt;Node6 -->
<g id="edge5_Node000003_Node000006" class="edge">
<title>Node3&#45;&gt;Node6</title>
<g id="a_edge5_Node000003_Node000006"><a xlink:title=" ">
<path fill="none" stroke="#63b8ff" d="M965.83,-109.9C1009.64,-100 1069.43,-86.39 1122,-74 1123.45,-73.66 1124.92,-73.31 1126.42,-72.95"/>
<polygon fill="#63b8ff" stroke="#63b8ff" points="1127.38,-76.32 1136.28,-70.58 1125.74,-69.52 1127.38,-76.32"/>
</a>
</g>
</g>
<!-- Node7 -->
<g id="Node000007" class="node">
<title>Node7</title>
<g id="a_Node000007"><a xlink:title=" ">
<polygon fill="#e0e0e0" stroke="#999999" points="1004,-74 954,-74 954,-55 1004,-55 1004,-74"/>
<text text-anchor="middle" x="979" y="-62" font-family="Helvetica,sans-Serif" font-size="10.00">cstdint</text>
</a>
</g>
</g>
<!-- Node3&#45;&gt;Node7 -->
<g id="edge6_Node000003_Node000007" class="edge">
<title>Node3&#45;&gt;Node7</title>
<g id="a_edge6_Node000003_Node000007"><a xlink:title=" ">
<path fill="none" stroke="#63b8ff" d="M921.4,-109.84C932.88,-101 947.65,-89.63 959.36,-80.62"/>
<polygon fill="#63b8ff" stroke="#63b8ff" points="961.82,-83.14 967.61,-74.27 957.55,-77.59 961.82,-83.14"/>
</a>
</g>
</g>
<!-- Node8 -->
<g id="Node000008" class="node">
<title>Node8</title>
<g id="a_Node000008"><a xlink:title=" ">
<polygon fill="#e0e0e0" stroke="#999999" points="1079.5,-74 1022.5,-74 1022.5,-55 1079.5,-55 1079.5,-74"/>
<text text-anchor="middle" x="1051" y="-62" font-family="Helvetica,sans-Serif" font-size="10.00">ostream</text>
</a>
</g>
</g>
<!-- Node3&#45;&gt;Node8 -->
<g id="edge7_Node000003_Node000008" class="edge">
<title>Node3&#45;&gt;Node8</title>
<g id="a_edge7_Node000003_Node000008"><a xlink:title=" ">
<path fill="none" stroke="#63b8ff" d="M938.45,-109.99C963.14,-100.23 995.78,-87.33 1019.55,-77.93"/>
<polygon fill="#63b8ff" stroke="#63b8ff" points="1021.13,-81.07 1029.14,-74.14 1018.56,-74.56 1021.13,-81.07"/>
</a>
</g>
</g>
<!-- Node9 -->
<g id="Node000009" class="node">
<title>Node9</title>
<g id="a_Node000009"><a xlink:title=" ">
<polygon fill="#e0e0e0" stroke="#999999" points="935.5,-74 884.5,-74 884.5,-55 935.5,-55 935.5,-74"/>
<text text-anchor="middle" x="910" y="-62" font-family="Helvetica,sans-Serif" font-size="10.00">variant</text>
</a>
</g>
</g>
<!-- Node3&#45;&gt;Node9 -->
<g id="edge8_Node000003_Node000009" class="edge">
<title>Node3&#45;&gt;Node9</title>
<g id="a_edge8_Node000003_Node000009"><a xlink:title=" ">
<path fill="none" stroke="#63b8ff" d="M904.69,-109.84C905.61,-102.21 906.74,-92.7 907.73,-84.45"/>
<polygon fill="#63b8ff" stroke="#63b8ff" points="911.24,-84.61 908.95,-74.27 904.29,-83.78 911.24,-84.61"/>
</a>
</g>
</g>
<!-- Node10 -->
<g id="Node000010" class="node">
<title>Node10</title>
<g id="a_Node000010"><a xlink:href="common_2encoding_8h.html" target="_top" xlink:title=" ">
<polygon fill="white" stroke="#666666" points="724,-74 654,-74 654,-55 724,-55 724,-74"/>
<text text-anchor="middle" x="689" y="-62" font-family="Helvetica,sans-Serif" font-size="10.00">encoding.h</text>
</a>
</g>
</g>
<!-- Node3&#45;&gt;Node10 -->
<g id="edge9_Node000003_Node000010" class="edge">
<title>Node3&#45;&gt;Node10</title>
<g id="a_edge9_Node000003_Node000010"><a xlink:title=" ">
<path fill="none" stroke="#63b8ff" d="M851.74,-109.99C814.49,-99.8 764.73,-86.2 730.08,-76.73"/>
<polygon fill="#63b8ff" stroke="#63b8ff" points="730.86,-73.31 720.29,-74.05 729.01,-80.07 730.86,-73.31"/>
</a>
</g>
</g>
<!-- Node13 -->
<g id="Node000013" class="node">
<title>Node13</title>
<g id="a_Node000013"><a xlink:href="webcface-config_8h.html" target="_top" xlink:title=" ">
<polygon fill="white" stroke="#666666" points="513.5,-19 408.5,-19 408.5,0 513.5,0 513.5,-19"/>
<text text-anchor="middle" x="461" y="-7" font-family="Helvetica,sans-Serif" font-size="10.00">webcface&#45;config.h</text>
</a>
</g>
</g>
<!-- Node3&#45;&gt;Node13 -->
<g id="edge14_Node000003_Node000013" class="edge">
<title>Node3&#45;&gt;Node13</title>
<g id="a_edge14_Node000003_Node000013"><a xlink:title=" ">
<path fill="none" stroke="#63b8ff" d="M894,-109.84C882.8,-93.57 862.07,-67.51 837,-55 809.66,-41.36 623.71,-24.06 523.96,-15.61"/>
<polygon fill="#63b8ff" stroke="#63b8ff" points="523.96,-12.1 513.7,-14.75 523.37,-19.08 523.96,-12.1"/>
</a>
</g>
</g>
<!-- Node10&#45;&gt;Node4 -->
<g id="edge10_Node000010_Node000004" class="edge">
<title>Node10&#45;&gt;Node4</title>
<g id="a_edge10_Node000010_Node000004"><a xlink:title=" ">
<path fill="none" stroke="#63b8ff" d="M701.37,-54.98C713.09,-46.92 730.92,-34.65 744.89,-25.03"/>
<polygon fill="#63b8ff" stroke="#63b8ff" points="747.15,-27.72 753.4,-19.17 743.18,-21.96 747.15,-27.72"/>
</a>
</g>
</g>
<!-- Node11 -->
<g id="Node000011" class="node">
<title>Node11</title>
<g id="a_Node000011"><a xlink:title=" ">
<polygon fill="#e0e0e0" stroke="#999999" points="725.5,-19 652.5,-19 652.5,0 725.5,0 725.5,-19"/>
<text text-anchor="middle" x="689" y="-7" font-family="Helvetica,sans-Serif" font-size="10.00">string_view</text>
</a>
</g>
</g>
<!-- Node10&#45;&gt;Node11 -->
<g id="edge11_Node000010_Node000011" class="edge">
<title>Node10&#45;&gt;Node11</title>
<g id="a_edge11_Node000010_Node000011"><a xlink:title=" ">
<path fill="none" stroke="#63b8ff" d="M689,-54.75C689,-47.8 689,-37.85 689,-29.13"/>
<polygon fill="#63b8ff" stroke="#63b8ff" points="692.5,-29.09 689,-19.09 685.5,-29.09 692.5,-29.09"/>
</a>
</g>
</g>
<!-- Node12 -->
<g id="Node000012" class="node">
<title>Node12</title>
<g id="a_Node000012"><a xlink:title=" ">
<polygon fill="#e0e0e0" stroke="#999999" points="634,-19 576,-19 576,0 634,0 634,-19"/>
<text text-anchor="middle" x="605" y="-7" font-family="Helvetica,sans-Serif" font-size="10.00">memory</text>
</a>
</g>
</g>
<!-- Node10&#45;&gt;Node12 -->
<g id="edge12_Node000010_Node000012" class="edge">
<title>Node10&#45;&gt;Node12</title>
<g id="a_edge12_Node000010_Node000012"><a xlink:title=" ">
<path fill="none" stroke="#63b8ff" d="M675.5,-54.98C662.6,-46.84 642.9,-34.41 627.6,-24.76"/>
<polygon fill="#63b8ff" stroke="#63b8ff" points="629.07,-21.55 618.74,-19.17 625.33,-27.47 629.07,-21.55"/>
</a>
</g>
</g>
<!-- Node10&#45;&gt;Node13 -->
<g id="edge13_Node000010_Node000013" class="edge">
<title>Node10&#45;&gt;Node13</title>
<g id="a_edge13_Node000010_Node000013"><a xlink:title=" ">
<path fill="none" stroke="#63b8ff" d="M653.87,-55.33C614.59,-46.2 550.79,-31.37 507.42,-21.29"/>
<polygon fill="#63b8ff" stroke="#63b8ff" points="508.21,-17.88 497.68,-19.03 506.62,-24.7 508.21,-17.88"/>
</a>
</g>
</g>
<!-- Node14&#45;&gt;Node3 -->
<g id="edge33_Node000014_Node000003" class="edge">
<title>Node14&#45;&gt;Node3</title>
<g id="a_edge33_Node000014_Node000003"><a xlink:title=" ">
<path fill="none" stroke="#63b8ff" d="M615.22,-177.33C668.43,-167.84 763.19,-150.94 829.39,-139.13"/>
<polygon fill="#63b8ff" stroke="#63b8ff" points="830.11,-142.55 839.35,-137.35 828.89,-135.66 830.11,-142.55"/>
</a>
</g>
</g>
<!-- Node14&#45;&gt;Node12 -->
<g id="edge22_Node000014_Node000012" class="edge">
<title>Node14&#45;&gt;Node12</title>
<g id="a_edge22_Node000014_Node000012"><a xlink:title=" ">
<path fill="none" stroke="#63b8ff" d="M573.45,-175.67C571.97,-166.72 569.84,-152.44 569,-140 568.11,-126.7 566.7,-123.13 569,-110 574.22,-80.25 587.59,-47.66 596.48,-28.16"/>
<polygon fill="#63b8ff" stroke="#63b8ff" points="599.7,-29.55 600.77,-19 593.36,-26.58 599.7,-29.55"/>
</a>
</g>
</g>
<!-- Node14&#45;&gt;Node13 -->
<g id="edge19_Node000014_Node000013" class="edge">
<title>Node14&#45;&gt;Node13</title>
<g id="a_edge19_Node000014_Node000013"><a xlink:title=" ">
<path fill="none" stroke="#63b8ff" d="M534.89,-183.17C462.87,-180.04 315.4,-170.05 275,-140 249,-120.66 251.06,-105.63 244,-74 242.16,-65.76 238.66,-61.54 244,-55 263.21,-31.46 341.38,-20.02 398.4,-14.72"/>
<polygon fill="#63b8ff" stroke="#63b8ff" points="398.78,-18.2 408.43,-13.83 398.16,-11.23 398.78,-18.2"/>
</a>
</g>
</g>
<!-- Node14&#45;&gt;Node15 -->
<g id="edge16_Node000014_Node000015" class="edge">
<title>Node14&#45;&gt;Node15</title>
<g id="a_edge16_Node000014_Node000015"><a xlink:title=" ">
<path fill="none" stroke="#63b8ff" d="M534.87,-180.77C464.6,-174.05 314.76,-158.81 189,-140 181.62,-138.9 173.86,-137.61 166.23,-136.28"/>
<polygon fill="#63b8ff" stroke="#63b8ff" points="166.78,-132.82 156.32,-134.5 165.55,-139.71 166.78,-132.82"/>
</a>
</g>
</g>
<!-- Node16 -->
<g id="Node000016" class="node">
<title>Node16</title>
<g id="a_Node000016"><a xlink:title=" ">
<polygon fill="#e0e0e0" stroke="#999999" points="167.5,-74 102.5,-74 102.5,-55 167.5,-55 167.5,-74"/>
<text text-anchor="middle" x="135" y="-62" font-family="Helvetica,sans-Serif" font-size="10.00">stdexcept</text>
</a>
</g>
</g>
<!-- Node14&#45;&gt;Node16 -->
<g id="edge23_Node000014_Node000016" class="edge">
<title>Node14&#45;&gt;Node16</title>
<g id="a_edge23_Node000014_Node000016"><a xlink:title=" ">
<path fill="none" stroke="#63b8ff" d="M534.75,-182.12C455.38,-176.98 281.68,-163.37 227,-140 210.41,-132.91 173.3,-100.5 151.62,-80.84"/>
<polygon fill="#63b8ff" stroke="#63b8ff" points="153.89,-78.17 144.15,-74.01 149.17,-83.34 153.89,-78.17"/>
</a>
</g>
</g>
<!-- Node17 -->
<g id="Node000017" class="node">
<title>Node17</title>
<g id="a_Node000017"><a xlink:title=" ">
<polygon fill="#e0e0e0" stroke="#999999" points="767,-134.5 711,-134.5 711,-115.5 767,-115.5 767,-134.5"/>
<text text-anchor="middle" x="739" y="-122.5" font-family="Helvetica,sans-Serif" font-size="10.00">optional</text>
</a>
</g>
</g>
<!-- Node14&#45;&gt;Node17 -->
<g id="edge20_Node000014_Node000017" class="edge">
<title>Node14&#45;&gt;Node17</title>
<g id="a_edge20_Node000014_Node000017"><a xlink:title=" ">
<path fill="none" stroke="#63b8ff" d="M598.85,-175.99C626.9,-165.99 673.67,-149.3 705.4,-137.99"/>
<polygon fill="#63b8ff" stroke="#63b8ff" points="706.88,-141.17 715.12,-134.52 704.53,-134.58 706.88,-141.17"/>
</a>
</g>
</g>
<!-- Node18 -->
<g id="Node000018" class="node">
<title>Node18</title>
<g id="a_Node000018"><a xlink:title=" ">
<polygon fill="#e0e0e0" stroke="#999999" points="624,-134.5 578,-134.5 578,-115.5 624,-115.5 624,-134.5"/>
<text text-anchor="middle" x="601" y="-122.5" font-family="Helvetica,sans-Serif" font-size="10.00">future</text>
</a>
</g>
</g>
<!-- Node14&#45;&gt;Node18 -->
<g id="edge21_Node000014_Node000018" class="edge">
<title>Node14&#45;&gt;Node18</title>
<g id="a_edge21_Node000014_Node000018"><a xlink:title=" ">
<path fill="none" stroke="#63b8ff" d="M578.84,-175.87C582.56,-167.49 588.33,-154.51 593.05,-143.89"/>
<polygon fill="#63b8ff" stroke="#63b8ff" points="596.28,-145.23 597.15,-134.67 589.89,-142.38 596.28,-145.23"/>
</a>
</g>
</g>
<!-- Node19 -->
<g id="Node000019" class="node">
<title>Node19</title>
<g id="a_Node000019"><a xlink:href="field_8h.html" target="_top" xlink:title=" ">
<polygon fill="white" stroke="#666666" points="689.5,-134.5 642.5,-134.5 642.5,-115.5 689.5,-115.5 689.5,-134.5"/>
<text text-anchor="middle" x="666" y="-122.5" font-family="Helvetica,sans-Serif" font-size="10.00">field.h</text>
</a>
</g>
</g>
<!-- Node14&#45;&gt;Node19 -->
<g id="edge24_Node000014_Node000019" class="edge">
<title>Node14&#45;&gt;Node19</title>
<g id="a_edge24_Node000014_Node000019"><a xlink:title=" ">
<path fill="none" stroke="#63b8ff" d="M588.43,-175.87C603.08,-166.45 626.76,-151.23 644.1,-140.08"/>
<polygon fill="#63b8ff" stroke="#63b8ff" points="646,-143.02 652.52,-134.67 642.21,-137.13 646,-143.02"/>
</a>
</g>
</g>
<!-- Node22 -->
<g id="Node000022" class="node">
<title>Node22</title>
<g id="a_Node000022"><a xlink:href="def__types_8h.html" target="_top" xlink:title=" ">
<polygon fill="white" stroke="#666666" points="397.5,-140 284.5,-140 284.5,-110 397.5,-110 397.5,-140"/>
<text text-anchor="start" x="292.5" y="-128" font-family="Helvetica,sans-Serif" font-size="10.00">webcface/c_wcf/def</text>
<text text-anchor="middle" x="341" y="-117" font-family="Helvetica,sans-Serif" font-size="10.00">_types.h</text>
</a>
</g>
</g>
<!-- Node14&#45;&gt;Node22 -->
<g id="edge34_Node000014_Node000022" class="edge">
<title>Node14&#45;&gt;Node22</title>
<g id="a_edge34_Node000014_Node000022"><a xlink:title=" ">
<path fill="none" stroke="#63b8ff" d="M540.97,-175.99C506.05,-167.26 450.8,-153.45 407.21,-142.55"/>
<polygon fill="#63b8ff" stroke="#63b8ff" points="407.81,-139.09 397.26,-140.06 406.11,-145.89 407.81,-139.09"/>
</a>
</g>
</g>
<!-- Node15&#45;&gt;Node13 -->
<g id="edge17_Node000015_Node000013" class="edge">
<title>Node15&#45;&gt;Node13</title>
<g id="a_edge17_Node000015_Node000013"><a xlink:title=" ">
<path fill="none" stroke="#63b8ff" d="M105.88,-115.24C95.14,-100.92 77.61,-72.36 93,-55 112.87,-32.59 298.44,-19.24 398.22,-13.62"/>
<polygon fill="#63b8ff" stroke="#63b8ff" points="398.68,-17.1 408.48,-13.06 398.3,-10.11 398.68,-17.1"/>
</a>
</g>
</g>
<!-- Node15&#45;&gt;Node16 -->
<g id="edge18_Node000015_Node000016" class="edge">
<title>Node15&#45;&gt;Node16</title>
<g id="a_edge18_Node000015_Node000016"><a xlink:title=" ">
<path fill="none" stroke="#63b8ff" d="M116.25,-115.37C119.37,-107.07 124.18,-94.28 128.15,-83.72"/>
<polygon fill="#63b8ff" stroke="#63b8ff" points="131.5,-84.76 131.74,-74.17 124.94,-82.3 131.5,-84.76"/>
</a>
</g>
</g>
<!-- Node19&#45;&gt;Node4 -->
<g id="edge26_Node000019_Node000004" class="edge">
<title>Node19&#45;&gt;Node4</title>
<g id="a_edge26_Node000019_Node000004"><a xlink:title=" ">
<path fill="none" stroke="#63b8ff" d="M681.13,-115.48C695.83,-106.61 718.05,-91.58 733,-74 744.56,-60.41 753.53,-42.08 759.18,-28.61"/>
<polygon fill="#63b8ff" stroke="#63b8ff" points="762.55,-29.62 762.99,-19.03 756.05,-27.03 762.55,-29.62"/>
</a>
</g>
</g>
<!-- Node19&#45;&gt;Node5 -->
<g id="edge27_Node000019_Node000005" class="edge">
<title>Node19&#45;&gt;Node5</title>
<g id="a_edge27_Node000019_Node000005"><a xlink:title=" ">
<path fill="none" stroke="#63b8ff" d="M686.07,-115.49C709.37,-105.62 748.01,-89.23 774.68,-77.93"/>
<polygon fill="#63b8ff" stroke="#63b8ff" points="776.07,-81.14 783.91,-74.02 773.34,-74.7 776.07,-81.14"/>
</a>
</g>
</g>
<!-- Node19&#45;&gt;Node10 -->
<g id="edge29_Node000019_Node000010" class="edge">
<title>Node19&#45;&gt;Node10</title>
<g id="a_edge29_Node000019_Node000010"><a xlink:title=" ">
<path fill="none" stroke="#63b8ff" d="M669.39,-115.37C672.66,-107.07 677.69,-94.28 681.84,-83.72"/>
<polygon fill="#63b8ff" stroke="#63b8ff" points="685.19,-84.75 685.59,-74.17 678.68,-82.19 685.19,-84.75"/>
</a>
</g>
</g>
<!-- Node19&#45;&gt;Node12 -->
<g id="edge25_Node000019_Node000012" class="edge">
<title>Node19&#45;&gt;Node12</title>
<g id="a_edge25_Node000019_Node000012"><a xlink:title=" ">
<path fill="none" stroke="#63b8ff" d="M661.42,-115.47C651.48,-96.98 627.79,-52.9 614.48,-28.14"/>
<polygon fill="#63b8ff" stroke="#63b8ff" points="617.46,-26.28 609.64,-19.13 611.29,-29.6 617.46,-26.28"/>
</a>
</g>
</g>
<!-- Node19&#45;&gt;Node13 -->
<g id="edge28_Node000019_Node000013" class="edge">
<title>Node19&#45;&gt;Node13</title>
<g id="a_edge28_Node000019_Node000013"><a xlink:title=" ">
<path fill="none" stroke="#63b8ff" d="M650.59,-115.47C615.27,-95.91 528.23,-47.72 485.48,-24.06"/>
<polygon fill="#63b8ff" stroke="#63b8ff" points="487.03,-20.91 476.59,-19.13 483.64,-27.04 487.03,-20.91"/>
</a>
</g>
</g>
<!-- Node20 -->
<g id="Node000020" class="node">
<title>Node20</title>
<g id="a_Node000020"><a xlink:href="complete_8h.html" target="_top" xlink:title=" ">
<polygon fill="white" stroke="#666666" points="521.5,-74 400.5,-74 400.5,-55 521.5,-55 521.5,-74"/>
<text text-anchor="middle" x="461" y="-62" font-family="Helvetica,sans-Serif" font-size="10.00">webcface/complete.h</text>
</a>
</g>
</g>
<!-- Node19&#45;&gt;Node20 -->
<g id="edge30_Node000019_Node000020" class="edge">
<title>Node19&#45;&gt;Node20</title>
<g id="a_edge30_Node000019_Node000020"><a xlink:title=" ">
<path fill="none" stroke="#63b8ff" d="M646.99,-115.37C642.46,-113.47 637.6,-111.56 633,-110 592.46,-96.24 545.32,-84.32 510.65,-76.29"/>
<polygon fill="#63b8ff" stroke="#63b8ff" points="511.3,-72.85 500.77,-74.03 509.73,-79.67 511.3,-72.85"/>
</a>
</g>
</g>
<!-- Node20&#45;&gt;Node13 -->
<g id="edge32_Node000020_Node000013" class="edge">
<title>Node20&#45;&gt;Node13</title>
<g id="a_edge32_Node000020_Node000013"><a xlink:title=" ">
<path fill="none" stroke="#63b8ff" d="M461,-54.75C461,-47.8 461,-37.85 461,-29.13"/>
<polygon fill="#63b8ff" stroke="#63b8ff" points="464.5,-29.09 461,-19.09 457.5,-29.09 464.5,-29.09"/>
</a>
</g>
</g>
<!-- Node21 -->
<g id="Node000021" class="node">
<title>Node21</title>
<g id="a_Node000021"><a xlink:title=" ">
<polygon fill="#e0e0e0" stroke="#999999" points="220.5,-19 167.5,-19 167.5,0 220.5,0 220.5,-19"/>
<text text-anchor="middle" x="194" y="-7" font-family="Helvetica,sans-Serif" font-size="10.00">cstddef</text>
</a>
</g>
</g>
<!-- Node20&#45;&gt;Node21 -->
<g id="edge31_Node000020_Node000021" class="edge">
<title>Node20&#45;&gt;Node21</title>
<g id="a_edge31_Node000020_Node000021"><a xlink:title=" ">
<path fill="none" stroke="#63b8ff" d="M418.1,-54.98C366.08,-44.66 279.31,-27.43 230.4,-17.73"/>
<polygon fill="#63b8ff" stroke="#63b8ff" points="231.06,-14.29 220.57,-15.77 229.69,-21.15 231.06,-14.29"/>
</a>
</g>
</g>
<!-- Node22&#45;&gt;Node13 -->
<g id="edge35_Node000022_Node000013" class="edge">
<title>Node22&#45;&gt;Node13</title>
<g id="a_edge35_Node000022_Node000013"><a xlink:title=" ">
<path fill="none" stroke="#63b8ff" d="M298.81,-109.95C268.05,-97.44 234.69,-77.64 253,-55 271,-32.75 343.46,-21.13 397.83,-15.42"/>
<polygon fill="#63b8ff" stroke="#63b8ff" points="398.5,-18.87 408.1,-14.39 397.8,-11.91 398.5,-18.87"/>
</a>
</g>
</g>
<!-- Node23 -->
<g id="Node000023" class="node">
<title>Node23</title>
<g id="a_Node000023"><a xlink:title=" ">
<polygon fill="#e0e0e0" stroke="#999999" points="382,-74 328,-74 328,-55 382,-55 382,-74"/>
<text text-anchor="middle" x="355" y="-62" font-family="Helvetica,sans-Serif" font-size="10.00">wchar.h</text>
</a>
</g>
</g>
<!-- Node22&#45;&gt;Node23 -->
<g id="edge36_Node000022_Node000023" class="edge">
<title>Node22&#45;&gt;Node23</title>
<g id="a_edge36_Node000022_Node000023"><a xlink:title=" ">
<path fill="none" stroke="#63b8ff" d="M344.39,-109.84C346.23,-102.13 348.54,-92.49 350.53,-84.17"/>
<polygon fill="#63b8ff" stroke="#63b8ff" points="353.98,-84.81 352.9,-74.27 347.17,-83.18 353.98,-84.81"/>
</a>
</g>
</g>
<!-- Node24 -->
<g id="Node000024" class="node">
<title>Node24</title>
<g id="a_Node000024"><a xlink:title=" ">
<polygon fill="#e0e0e0" stroke="#999999" points="309.5,-74 262.5,-74 262.5,-55 309.5,-55 309.5,-74"/>
<text text-anchor="middle" x="286" y="-62" font-family="Helvetica,sans-Serif" font-size="10.00">float.h</text>
</a>
</g>
</g>
<!-- Node22&#45;&gt;Node24 -->
<g id="edge37_Node000022_Node000024" class="edge">
<title>Node22&#45;&gt;Node24</title>
<g id="a_edge37_Node000022_Node000024"><a xlink:title=" ">
<path fill="none" stroke="#63b8ff" d="M327.69,-109.84C319.7,-101.35 309.52,-90.52 301.22,-81.69"/>
<polygon fill="#63b8ff" stroke="#63b8ff" points="303.64,-79.15 294.24,-74.27 298.54,-83.95 303.64,-79.15"/>
</a>
</g>
</g>
<!-- Node25&#45;&gt;Node3 -->
<g id="edge41_Node000025_Node000003" class="edge">
<title>Node25&#45;&gt;Node3</title>
<g id="a_edge41_Node000025_Node000003"><a xlink:title=" ">
<path fill="none" stroke="#63b8ff" d="M776.75,-176.24C797.85,-167.85 831.2,-154.57 858.33,-143.78"/>
<polygon fill="#63b8ff" stroke="#63b8ff" points="859.63,-147.03 867.63,-140.08 857.05,-140.52 859.63,-147.03"/>
</a>
</g>
</g>
<!-- Node25&#45;&gt;Node5 -->
<g id="edge39_Node000025_Node000005" class="edge">
<title>Node25&#45;&gt;Node5</title>
<g id="a_edge39_Node000025_Node000005"><a xlink:title=" ">
<path fill="none" stroke="#63b8ff" d="M760.15,-175.71C764.31,-166.78 770.84,-152.53 776,-140 783.8,-121.09 791.94,-99.13 797.42,-83.98"/>
<polygon fill="#63b8ff" stroke="#63b8ff" points="800.82,-84.88 800.9,-74.29 794.23,-82.52 800.82,-84.88"/>
</a>
</g>
</g>
<!-- Node25&#45;&gt;Node17 -->
<g id="edge40_Node000025_Node000017" class="edge">
<title>Node25&#45;&gt;Node17</title>
<g id="a_edge40_Node000025_Node000017"><a xlink:title=" ">
<path fill="none" stroke="#63b8ff" d="M753.49,-175.87C751.11,-167.66 747.44,-155.04 744.39,-144.55"/>
<polygon fill="#63b8ff" stroke="#63b8ff" points="747.67,-143.29 741.52,-134.67 740.95,-145.25 747.67,-143.29"/>
</a>
</g>
</g>
<!-- Node26&#45;&gt;Node13 -->
<g id="edge44_Node000026_Node000013" class="edge">
<title>Node26&#45;&gt;Node13</title>
<g id="a_edge44_Node000026_Node000013"><a xlink:title=" ">
<path fill="none" stroke="#63b8ff" d="M46.01,-57.78C50.62,-56.76 55.45,-55.77 60,-55 178.63,-34.86 318.62,-21.71 397.88,-15.24"/>
<polygon fill="#63b8ff" stroke="#63b8ff" points="398.5,-18.7 408.18,-14.41 397.93,-11.72 398.5,-18.7"/>
</a>
</g>
</g>
<!-- Node26&#45;&gt;Node21 -->
<g id="edge43_Node000026_Node000021" class="edge">
<title>Node26&#45;&gt;Node21</title>
<g id="a_edge43_Node000026_Node000021"><a xlink:title=" ">
<path fill="none" stroke="#63b8ff" d="M46.06,-56.35C74.65,-47.49 123.71,-32.29 157.44,-21.83"/>
<polygon fill="#63b8ff" stroke="#63b8ff" points="158.86,-25.05 167.38,-18.75 156.79,-18.37 158.86,-25.05"/>
</a>
</g>
</g>
<!-- Node27&#45;&gt;Node3 -->
<g id="edge46_Node000027_Node000003" class="edge">
<title>Node27&#45;&gt;Node3</title>
<g id="a_edge46_Node000027_Node000003"><a xlink:title=" ">
<path fill="none" stroke="#63b8ff" d="M937.1,-175.87C932.17,-168.67 924.93,-158.07 918.38,-148.49"/>
<polygon fill="#63b8ff" stroke="#63b8ff" points="921.18,-146.39 912.65,-140.11 915.41,-150.34 921.18,-146.39"/>
</a>
</g>
</g>
<!-- Node27&#45;&gt;Node6 -->
<g id="edge47_Node000027_Node000006" class="edge">
<title>Node27&#45;&gt;Node6</title>
<g id="a_edge47_Node000027_Node000006"><a xlink:title=" ">
<path fill="none" stroke="#63b8ff" d="M958.39,-175.94C995.09,-155.54 1087.98,-103.88 1132.49,-79.13"/>
<polygon fill="#63b8ff" stroke="#63b8ff" points="1134.42,-82.06 1141.46,-74.14 1131.02,-75.94 1134.42,-82.06"/>
</a>
</g>
</g>
<!-- Node27&#45;&gt;Node13 -->
<g id="edge48_Node000027_Node000013" class="edge">
<title>Node27&#45;&gt;Node13</title>
<g id="a_edge48_Node000027_Node000013"><a xlink:title=" ">
<path fill="none" stroke="#63b8ff" d="M979.25,-179.15C1062.19,-165.55 1253.65,-125.63 1187,-55 1139.64,-4.81 635.84,-23.76 567,-19 552.99,-18.03 537.96,-16.89 523.74,-15.76"/>
<polygon fill="#63b8ff" stroke="#63b8ff" points="523.8,-12.25 513.55,-14.94 523.24,-19.23 523.8,-12.25"/>
</a>
</g>
</g>
</g>
</svg>
