<?xml version="1.0" encoding="UTF-8" standalone="no"?>
<!DOCTYPE svg PUBLIC "-//W3C//DTD SVG 1.1//EN"
 "http://www.w3.org/Graphics/SVG/1.1/DTD/svg11.dtd">
<!-- Generated by graphviz version 2.43.0 (0)
 -->
<!-- Title: client/include/webcface/func_info.h Pages: 1 -->
<svg width="747pt" height="280pt"
 viewBox="0.00 0.00 746.50 280.00" xmlns="http://www.w3.org/2000/svg" xmlns:xlink="http://www.w3.org/1999/xlink">
<g id="graph0" class="graph" transform="scale(1 1) rotate(0) translate(4 276)">
<title>client/include/webcface/func_info.h</title>
<!-- Node1 -->
<g id="Node000001" class="node">
<title>Node1</title>
<g id="a_Node000001"><a xlink:title=" ">
<polygon fill="#999999" stroke="#666666" points="145,-272 14,-272 14,-242 145,-242 145,-272"/>
<text text-anchor="start" x="22" y="-260" font-family="Helvetica,sans-Serif" font-size="10.00">client/include/webcface</text>
<text text-anchor="middle" x="79.5" y="-249" font-family="Helvetica,sans-Serif" font-size="10.00">/func_info.h</text>
</a>
</g>
</g>
<!-- Node2 -->
<g id="Node000002" class="node">
<title>Node2</title>
<g id="a_Node000002"><a xlink:href="arg_8h.html" target="_top" xlink:title=" ">
<polygon fill="white" stroke="#666666" points="100,-206 59,-206 59,-187 100,-187 100,-206"/>
<text text-anchor="middle" x="79.5" y="-194" font-family="Helvetica,sans-Serif" font-size="10.00">arg.h</text>
</a>
</g>
</g>
<!-- Node1&#45;&gt;Node2 -->
<g id="edge1_Node000001_Node000002" class="edge">
<title>Node1&#45;&gt;Node2</title>
<g id="a_edge1_Node000001_Node000002"><a xlink:title=" ">
<path fill="none" stroke="#63b8ff" d="M79.5,-241.84C79.5,-234.21 79.5,-224.7 79.5,-216.45"/>
<polygon fill="#63b8ff" stroke="#63b8ff" points="83,-216.27 79.5,-206.27 76,-216.27 83,-216.27"/>
</a>
</g>
</g>
<!-- Node3 -->
<g id="Node000003" class="node">
<title>Node3</title>
<g id="a_Node000003"><a xlink:title=" ">
<polygon fill="#e0e0e0" stroke="#999999" points="47,-85 0,-85 0,-66 47,-66 47,-85"/>
<text text-anchor="middle" x="23.5" y="-73" font-family="Helvetica,sans-Serif" font-size="10.00">vector</text>
</a>
</g>
</g>
<!-- Node2&#45;&gt;Node3 -->
<g id="edge2_Node000002_Node000003" class="edge">
<title>Node2&#45;&gt;Node3</title>
<g id="a_edge2_Node000002_Node000003"><a xlink:title=" ">
<path fill="none" stroke="#63b8ff" d="M70.23,-186.83C61.8,-178.43 49.62,-164.96 42.5,-151 33.42,-133.2 28.46,-110.75 25.91,-95.17"/>
<polygon fill="#63b8ff" stroke="#63b8ff" points="29.37,-94.59 24.45,-85.2 22.44,-95.6 29.37,-94.59"/>
</a>
</g>
</g>
<!-- Node4 -->
<g id="Node000004" class="node">
<title>Node4</title>
<g id="a_Node000004"><a xlink:title=" ">
<polygon fill="#e0e0e0" stroke="#999999" points="107.5,-145.5 51.5,-145.5 51.5,-126.5 107.5,-126.5 107.5,-145.5"/>
<text text-anchor="middle" x="79.5" y="-133.5" font-family="Helvetica,sans-Serif" font-size="10.00">optional</text>
</a>
</g>
</g>
<!-- Node2&#45;&gt;Node4 -->
<g id="edge3_Node000002_Node000004" class="edge">
<title>Node2&#45;&gt;Node4</title>
<g id="a_edge3_Node000002_Node000004"><a xlink:title=" ">
<path fill="none" stroke="#63b8ff" d="M79.5,-186.87C79.5,-178.75 79.5,-166.31 79.5,-155.89"/>
<polygon fill="#63b8ff" stroke="#63b8ff" points="83,-155.67 79.5,-145.67 76,-155.67 83,-155.67"/>
</a>
</g>
</g>
<!-- Node5 -->
<g id="Node000005" class="node">
<title>Node5</title>
<g id="a_Node000005"><a xlink:href="encoding_2include_2webcface_2encoding_2val__adaptor_8h.html" target="_top" xlink:title=" ">
<polygon fill="white" stroke="#666666" points="253.5,-151 125.5,-151 125.5,-121 253.5,-121 253.5,-151"/>
<text text-anchor="start" x="133.5" y="-139" font-family="Helvetica,sans-Serif" font-size="10.00">webcface/encoding/val</text>
<text text-anchor="middle" x="189.5" y="-128" font-family="Helvetica,sans-Serif" font-size="10.00">_adaptor.h</text>
</a>
</g>
</g>
<!-- Node2&#45;&gt;Node5 -->
<g id="edge4_Node000002_Node000005" class="edge">
<title>Node2&#45;&gt;Node5</title>
<g id="a_edge4_Node000002_Node000005"><a xlink:title=" ">
<path fill="none" stroke="#63b8ff" d="M95.73,-186.87C111,-178.75 134.39,-166.31 153.98,-155.89"/>
<polygon fill="#63b8ff" stroke="#63b8ff" points="155.77,-158.9 162.96,-151.11 152.49,-152.72 155.77,-158.9"/>
</a>
</g>
</g>
<!-- Node5&#45;&gt;Node3 -->
<g id="edge6_Node000005_Node000003" class="edge">
<title>Node5&#45;&gt;Node3</title>
<g id="a_edge6_Node000005_Node000003"><a xlink:title=" ">
<path fill="none" stroke="#63b8ff" d="M149.74,-120.99C121.33,-110.98 83.55,-97.66 56.74,-88.21"/>
<polygon fill="#63b8ff" stroke="#63b8ff" points="57.64,-84.82 47.05,-84.8 55.32,-91.42 57.64,-84.82"/>
</a>
</g>
</g>
<!-- Node6 -->
<g id="Node000006" class="node">
<title>Node6</title>
<g id="a_Node000006"><a xlink:title=" ">
<polygon fill="#e0e0e0" stroke="#999999" points="105.5,-24.5 61.5,-24.5 61.5,-5.5 105.5,-5.5 105.5,-24.5"/>
<text text-anchor="middle" x="83.5" y="-12.5" font-family="Helvetica,sans-Serif" font-size="10.00">string</text>
</a>
</g>
</g>
<!-- Node5&#45;&gt;Node6 -->
<g id="edge5_Node000005_Node000006" class="edge">
<title>Node5&#45;&gt;Node6</title>
<g id="a_edge5_Node000005_Node000006"><a xlink:title=" ">
<path fill="none" stroke="#63b8ff" d="M143.21,-120.8C125.32,-113.02 106.34,-101.51 94.5,-85 84.02,-70.39 81.99,-49.57 82.14,-34.62"/>
<polygon fill="#63b8ff" stroke="#63b8ff" points="85.64,-34.68 82.57,-24.54 78.64,-34.38 85.64,-34.68"/>
</a>
</g>
</g>
<!-- Node7 -->
<g id="Node000007" class="node">
<title>Node7</title>
<g id="a_Node000007"><a xlink:title=" ">
<polygon fill="#e0e0e0" stroke="#999999" points="145,-85 104,-85 104,-66 145,-66 145,-85"/>
<text text-anchor="middle" x="124.5" y="-73" font-family="Helvetica,sans-Serif" font-size="10.00">tuple</text>
</a>
</g>
</g>
<!-- Node5&#45;&gt;Node7 -->
<g id="edge7_Node000005_Node000007" class="edge">
<title>Node5&#45;&gt;Node7</title>
<g id="a_edge7_Node000005_Node000007"><a xlink:title=" ">
<path fill="none" stroke="#63b8ff" d="M173.77,-120.84C164.14,-112.17 151.81,-101.08 141.89,-92.15"/>
<polygon fill="#63b8ff" stroke="#63b8ff" points="144.01,-89.35 134.24,-85.27 139.33,-94.56 144.01,-89.35"/>
</a>
</g>
</g>
<!-- Node8 -->
<g id="Node000008" class="node">
<title>Node8</title>
<g id="a_Node000008"><a xlink:title=" ">
<polygon fill="#e0e0e0" stroke="#999999" points="213.5,-85 163.5,-85 163.5,-66 213.5,-66 213.5,-85"/>
<text text-anchor="middle" x="188.5" y="-73" font-family="Helvetica,sans-Serif" font-size="10.00">cstdint</text>
</a>
</g>
</g>
<!-- Node5&#45;&gt;Node8 -->
<g id="edge8_Node000005_Node000008" class="edge">
<title>Node5&#45;&gt;Node8</title>
<g id="a_edge8_Node000005_Node000008"><a xlink:title=" ">
<path fill="none" stroke="#63b8ff" d="M189.26,-120.84C189.13,-113.21 188.97,-103.7 188.82,-95.45"/>
<polygon fill="#63b8ff" stroke="#63b8ff" points="192.32,-95.2 188.65,-85.27 185.32,-95.32 192.32,-95.2"/>
</a>
</g>
</g>
<!-- Node9 -->
<g id="Node000009" class="node">
<title>Node9</title>
<g id="a_Node000009"><a xlink:title=" ">
<polygon fill="#e0e0e0" stroke="#999999" points="289,-85 232,-85 232,-66 289,-66 289,-85"/>
<text text-anchor="middle" x="260.5" y="-73" font-family="Helvetica,sans-Serif" font-size="10.00">ostream</text>
</a>
</g>
</g>
<!-- Node5&#45;&gt;Node9 -->
<g id="edge9_Node000005_Node000009" class="edge">
<title>Node5&#45;&gt;Node9</title>
<g id="a_edge9_Node000005_Node000009"><a xlink:title=" ">
<path fill="none" stroke="#63b8ff" d="M206.69,-120.84C217.31,-112.09 230.94,-100.85 241.83,-91.88"/>
<polygon fill="#63b8ff" stroke="#63b8ff" points="244.37,-94.33 249.86,-85.27 239.92,-88.92 244.37,-94.33"/>
</a>
</g>
</g>
<!-- Node10 -->
<g id="Node000010" class="node">
<title>Node10</title>
<g id="a_Node000010"><a xlink:title=" ">
<polygon fill="#e0e0e0" stroke="#999999" points="358,-85 307,-85 307,-66 358,-66 358,-85"/>
<text text-anchor="middle" x="332.5" y="-73" font-family="Helvetica,sans-Serif" font-size="10.00">variant</text>
</a>
</g>
</g>
<!-- Node5&#45;&gt;Node10 -->
<g id="edge10_Node000005_Node000010" class="edge">
<title>Node5&#45;&gt;Node10</title>
<g id="a_edge10_Node000005_Node000010"><a xlink:title=" ">
<path fill="none" stroke="#63b8ff" d="M223.75,-120.99C247.61,-111.23 279.15,-98.33 302.11,-88.93"/>
<polygon fill="#63b8ff" stroke="#63b8ff" points="303.45,-92.17 311.38,-85.14 300.8,-85.69 303.45,-92.17"/>
</a>
</g>
</g>
<!-- Node11 -->
<g id="Node000011" class="node">
<title>Node11</title>
<g id="a_Node000011"><a xlink:href="encoding_8h.html" target="_top" xlink:title=" ">
<polygon fill="white" stroke="#666666" points="446.5,-85 376.5,-85 376.5,-66 446.5,-66 446.5,-85"/>
<text text-anchor="middle" x="411.5" y="-73" font-family="Helvetica,sans-Serif" font-size="10.00">encoding.h</text>
</a>
</g>
</g>
<!-- Node5&#45;&gt;Node11 -->
<g id="edge11_Node000005_Node000011" class="edge">
<title>Node5&#45;&gt;Node11</title>
<g id="a_edge11_Node000005_Node000011"><a xlink:title=" ">
<path fill="none" stroke="#63b8ff" d="M242.67,-120.99C281.48,-110.76 333.38,-97.09 369.34,-87.61"/>
<polygon fill="#63b8ff" stroke="#63b8ff" points="370.26,-90.99 379.04,-85.05 368.48,-84.22 370.26,-90.99"/>
</a>
</g>
</g>
<!-- Node17 -->
<g id="Node000017" class="node">
<title>Node17</title>
<g id="a_Node000017"><a xlink:title=" ">
<polygon fill="#e0e0e0" stroke="#999999" points="738.5,-30 580.5,-30 580.5,0 738.5,0 738.5,-30"/>
<text text-anchor="start" x="588.5" y="-18" font-family="Helvetica,sans-Serif" font-size="10.00">webcface/common/webcface</text>
<text text-anchor="middle" x="659.5" y="-7" font-family="Helvetica,sans-Serif" font-size="10.00">&#45;config.h</text>
</a>
</g>
</g>
<!-- Node5&#45;&gt;Node17 -->
<g id="edge19_Node000005_Node000017" class="edge">
<title>Node5&#45;&gt;Node17</title>
<g id="a_edge19_Node000005_Node000017"><a xlink:title=" ">
<path fill="none" stroke="#63b8ff" d="M253.75,-125.52C307.97,-116.9 387.43,-102.82 455.5,-85 510.75,-70.54 572.7,-48.77 613.68,-33.56"/>
<polygon fill="#63b8ff" stroke="#63b8ff" points="614.97,-36.81 623.12,-30.04 612.53,-30.26 614.97,-36.81"/>
</a>
</g>
</g>
<!-- Node11&#45;&gt;Node6 -->
<g id="edge12_Node000011_Node000006" class="edge">
<title>Node11&#45;&gt;Node6</title>
<g id="a_edge12_Node000011_Node000006"><a xlink:title=" ">
<path fill="none" stroke="#63b8ff" d="M376.15,-67.68C372.89,-67.1 369.64,-66.53 366.5,-66 257.96,-47.78 228.15,-57.17 121.5,-30 119.06,-29.38 116.55,-28.65 114.05,-27.87"/>
<polygon fill="#63b8ff" stroke="#63b8ff" points="115.15,-24.55 104.56,-24.64 112.9,-31.18 115.15,-24.55"/>
</a>
</g>
</g>
<!-- Node12 -->
<g id="Node000012" class="node">
<title>Node12</title>
<g id="a_Node000012"><a xlink:title=" ">
<polygon fill="#e0e0e0" stroke="#999999" points="204,-24.5 131,-24.5 131,-5.5 204,-5.5 204,-24.5"/>
<text text-anchor="middle" x="167.5" y="-12.5" font-family="Helvetica,sans-Serif" font-size="10.00">string_view</text>
</a>
</g>
</g>
<!-- Node11&#45;&gt;Node12 -->
<g id="edge13_Node000011_Node000012" class="edge">
<title>Node11&#45;&gt;Node12</title>
<g id="a_edge13_Node000011_Node000012"><a xlink:title=" ">
<path fill="none" stroke="#63b8ff" d="M376.26,-67.41C336.51,-59.21 270.05,-44.94 213.5,-30 210.53,-29.22 207.46,-28.37 204.39,-27.49"/>
<polygon fill="#63b8ff" stroke="#63b8ff" points="205.23,-24.09 194.65,-24.63 203.26,-30.8 205.23,-24.09"/>
</a>
</g>
</g>
<!-- Node13 -->
<g id="Node000013" class="node">
<title>Node13</title>
<g id="a_Node000013"><a xlink:title=" ">
<polygon fill="#e0e0e0" stroke="#999999" points="280.5,-24.5 222.5,-24.5 222.5,-5.5 280.5,-5.5 280.5,-24.5"/>
<text text-anchor="middle" x="251.5" y="-12.5" font-family="Helvetica,sans-Serif" font-size="10.00">memory</text>
</a>
</g>
</g>
<!-- Node11&#45;&gt;Node13 -->
<g id="edge14_Node000011_Node000013" class="edge">
<title>Node11&#45;&gt;Node13</title>
<g id="a_edge14_Node000011_Node000013"><a xlink:title=" ">
<path fill="none" stroke="#63b8ff" d="M388.1,-65.99C363.54,-57.05 323.79,-42.57 289.5,-30 287.87,-29.4 286.19,-28.79 284.5,-28.17"/>
<polygon fill="#63b8ff" stroke="#63b8ff" points="285.4,-24.77 274.81,-24.6 282.98,-31.34 285.4,-24.77"/>
</a>
</g>
</g>
<!-- Node14 -->
<g id="Node000014" class="node">
<title>Node14</title>
<g id="a_Node000014"><a xlink:title=" ">
<polygon fill="#e0e0e0" stroke="#999999" points="346.5,-24.5 298.5,-24.5 298.5,-5.5 346.5,-5.5 346.5,-24.5"/>
<text text-anchor="middle" x="322.5" y="-12.5" font-family="Helvetica,sans-Serif" font-size="10.00">mutex</text>
</a>
</g>
</g>
<!-- Node11&#45;&gt;Node14 -->
<g id="edge15_Node000011_Node000014" class="edge">
<title>Node11&#45;&gt;Node14</title>
<g id="a_edge15_Node000011_Node000014"><a xlink:title=" ">
<path fill="none" stroke="#63b8ff" d="M398.37,-65.87C384.17,-56.54 361.3,-41.51 344.38,-30.38"/>
<polygon fill="#63b8ff" stroke="#63b8ff" points="345.97,-27.24 335.69,-24.67 342.12,-33.08 345.97,-27.24"/>
</a>
</g>
</g>
<!-- Node15 -->
<g id="Node000015" class="node">
<title>Node15</title>
<g id="a_Node000015"><a xlink:title=" ">
<polygon fill="#e0e0e0" stroke="#999999" points="458,-24.5 365,-24.5 365,-5.5 458,-5.5 458,-24.5"/>
<text text-anchor="middle" x="411.5" y="-12.5" font-family="Helvetica,sans-Serif" font-size="10.00">unordered_map</text>
</a>
</g>
</g>
<!-- Node11&#45;&gt;Node15 -->
<g id="edge16_Node000011_Node000015" class="edge">
<title>Node11&#45;&gt;Node15</title>
<g id="a_edge16_Node000011_Node000015"><a xlink:title=" ">
<path fill="none" stroke="#63b8ff" d="M411.5,-65.87C411.5,-57.75 411.5,-45.31 411.5,-34.89"/>
<polygon fill="#63b8ff" stroke="#63b8ff" points="415,-34.67 411.5,-24.67 408,-34.67 415,-34.67"/>
</a>
</g>
</g>
<!-- Node16 -->
<g id="Node000016" class="node">
<title>Node16</title>
<g id="a_Node000016"><a xlink:title=" ">
<polygon fill="#e0e0e0" stroke="#999999" points="562.5,-24.5 476.5,-24.5 476.5,-5.5 562.5,-5.5 562.5,-24.5"/>
<text text-anchor="middle" x="519.5" y="-12.5" font-family="Helvetica,sans-Serif" font-size="10.00">unordered_set</text>
</a>
</g>
</g>
<!-- Node11&#45;&gt;Node16 -->
<g id="edge17_Node000011_Node000016" class="edge">
<title>Node11&#45;&gt;Node16</title>
<g id="a_edge17_Node000011_Node000016"><a xlink:title=" ">
<path fill="none" stroke="#63b8ff" d="M427.44,-65.87C445.14,-56.28 473.96,-40.67 494.64,-29.47"/>
<polygon fill="#63b8ff" stroke="#63b8ff" points="496.37,-32.51 503.5,-24.67 493.04,-26.35 496.37,-32.51"/>
</a>
</g>
</g>
<!-- Node11&#45;&gt;Node17 -->
<g id="edge18_Node000011_Node000017" class="edge">
<title>Node11&#45;&gt;Node17</title>
<g id="a_edge18_Node000011_Node000017"><a xlink:title=" ">
<path fill="none" stroke="#63b8ff" d="M446.51,-66.24C483.65,-57.48 543.32,-43.41 590.06,-32.38"/>
<polygon fill="#63b8ff" stroke="#63b8ff" points="590.9,-35.78 599.83,-30.08 589.29,-28.97 590.9,-35.78"/>
</a>
</g>
</g>
</g>
</svg>
