<?xml version="1.0" encoding="UTF-8" standalone="no"?>
<!DOCTYPE svg PUBLIC "-//W3C//DTD SVG 1.1//EN"
 "http://www.w3.org/Graphics/SVG/1.1/DTD/svg11.dtd">
<!-- Generated by graphviz version 2.43.0 (0)
 -->
<!-- Title: client/func_internal.h Pages: 1 -->
<svg width="1213pt" height="247pt"
 viewBox="0.00 0.00 1212.50 247.00" xmlns="http://www.w3.org/2000/svg" xmlns:xlink="http://www.w3.org/1999/xlink">
<g id="graph0" class="graph" transform="scale(1 1) rotate(0) translate(4 243)">
<title>client/func_internal.h</title>
<!-- Node1 -->
<g id="Node000001" class="node">
<title>Node1</title>
<g id="a_Node000001"><a xlink:title=" ">
<polygon fill="#999999" stroke="#666666" points="488.5,-239 369.5,-239 369.5,-220 488.5,-220 488.5,-239"/>
<text text-anchor="middle" x="429" y="-227" font-family="Helvetica,sans-Serif" font-size="10.00">client/func_internal.h</text>
</a>
</g>
</g>
<!-- Node2 -->
<g id="Node000002" class="node">
<title>Node2</title>
<g id="a_Node000002"><a xlink:title=" ">
<polygon fill="#e0e0e0" stroke="#999999" points="48,-184 0,-184 0,-165 48,-165 48,-184"/>
<text text-anchor="middle" x="24" y="-172" font-family="Helvetica,sans-Serif" font-size="10.00">mutex</text>
</a>
</g>
</g>
<!-- Node1&#45;&gt;Node2 -->
<g id="edge1_Node000001_Node000002" class="edge">
<title>Node1&#45;&gt;Node2</title>
<g id="a_edge1_Node000001_Node000002"><a xlink:title=" ">
<path fill="none" stroke="#63b8ff" d="M369.3,-223.1C296.46,-216.09 169.69,-202.53 62,-184 60.73,-183.78 59.43,-183.55 58.12,-183.3"/>
<polygon fill="#63b8ff" stroke="#63b8ff" points="58.55,-179.82 48.05,-181.26 57.16,-186.68 58.55,-179.82"/>
</a>
</g>
</g>
<!-- Node3 -->
<g id="Node000003" class="node">
<title>Node3</title>
<g id="a_Node000003"><a xlink:title=" ">
<polygon fill="#e0e0e0" stroke="#999999" points="189.5,-74 142.5,-74 142.5,-55 189.5,-55 189.5,-74"/>
<text text-anchor="middle" x="166" y="-62" font-family="Helvetica,sans-Serif" font-size="10.00">vector</text>
</a>
</g>
</g>
<!-- Node1&#45;&gt;Node3 -->
<g id="edge2_Node000001_Node000003" class="edge">
<title>Node1&#45;&gt;Node3</title>
<g id="a_edge2_Node000001_Node000003"><a xlink:title=" ">
<path fill="none" stroke="#63b8ff" d="M415.23,-219.97C372.46,-193.46 241.59,-112.35 188.61,-79.52"/>
<polygon fill="#63b8ff" stroke="#63b8ff" points="190.29,-76.44 179.95,-74.15 186.61,-82.39 190.29,-76.44"/>
</a>
</g>
</g>
<!-- Node4 -->
<g id="Node000004" class="node">
<title>Node4</title>
<g id="a_Node000004"><a xlink:title=" ">
<polygon fill="#e0e0e0" stroke="#999999" points="308,-19 264,-19 264,0 308,0 308,-19"/>
<text text-anchor="middle" x="286" y="-7" font-family="Helvetica,sans-Serif" font-size="10.00">string</text>
</a>
</g>
</g>
<!-- Node1&#45;&gt;Node4 -->
<g id="edge3_Node000001_Node000004" class="edge">
<title>Node1&#45;&gt;Node4</title>
<g id="a_edge3_Node000001_Node000004"><a xlink:title=" ">
<path fill="none" stroke="#63b8ff" d="M369.42,-220.36C293.26,-206.2 166.09,-168.82 123,-74 99.21,-21.64 199.81,-12 253.79,-10.52"/>
<polygon fill="#63b8ff" stroke="#63b8ff" points="253.98,-14.02 263.91,-10.33 253.85,-7.02 253.98,-14.02"/>
</a>
</g>
</g>
<!-- Node5 -->
<g id="Node000005" class="node">
<title>Node5</title>
<g id="a_Node000005"><a xlink:title=" ">
<polygon fill="#e0e0e0" stroke="#999999" points="1204.5,-184 1097.5,-184 1097.5,-165 1204.5,-165 1204.5,-184"/>
<text text-anchor="middle" x="1151" y="-172" font-family="Helvetica,sans-Serif" font-size="10.00">condition_variable</text>
</a>
</g>
</g>
<!-- Node1&#45;&gt;Node5 -->
<g id="edge4_Node000001_Node000005" class="edge">
<title>Node1&#45;&gt;Node5</title>
<g id="a_edge4_Node000001_Node000005"><a xlink:title=" ">
<path fill="none" stroke="#63b8ff" d="M488.61,-225.57C603.68,-219.67 864.37,-205.09 1083,-184 1084.3,-183.87 1085.61,-183.74 1086.93,-183.61"/>
<polygon fill="#63b8ff" stroke="#63b8ff" points="1087.64,-187.05 1097.21,-182.51 1086.89,-180.09 1087.64,-187.05"/>
</a>
</g>
</g>
<!-- Node6 -->
<g id="Node000006" class="node">
<title>Node6</title>
<g id="a_Node000006"><a xlink:href="func__result_8h.html" target="_top" xlink:title=" ">
<polygon fill="white" stroke="#666666" points="702.5,-184 573.5,-184 573.5,-165 702.5,-165 702.5,-184"/>
<text text-anchor="middle" x="638" y="-172" font-family="Helvetica,sans-Serif" font-size="10.00">webcface/func_result.h</text>
</a>
</g>
</g>
<!-- Node1&#45;&gt;Node6 -->
<g id="edge5_Node000001_Node000006" class="edge">
<title>Node1&#45;&gt;Node6</title>
<g id="a_edge5_Node000001_Node000006"><a xlink:title=" ">
<path fill="none" stroke="#63b8ff" d="M462.58,-219.98C498.35,-210.91 555.12,-196.52 594.34,-186.57"/>
<polygon fill="#63b8ff" stroke="#63b8ff" points="595.32,-189.93 604.16,-184.08 593.6,-183.15 595.32,-189.93"/>
</a>
</g>
</g>
<!-- Node14 -->
<g id="Node000014" class="node">
<title>Node14</title>
<g id="a_Node000014"><a xlink:href="def_8h.html" target="_top" xlink:title=" ">
<polygon fill="white" stroke="#666666" points="892.5,-19 851.5,-19 851.5,0 892.5,0 892.5,-19"/>
<text text-anchor="middle" x="872" y="-7" font-family="Helvetica,sans-Serif" font-size="10.00">def.h</text>
</a>
</g>
</g>
<!-- Node1&#45;&gt;Node14 -->
<g id="edge31_Node000001_Node000014" class="edge">
<title>Node1&#45;&gt;Node14</title>
<g id="a_edge31_Node000001_Node000014"><a xlink:title=" ">
<path fill="none" stroke="#63b8ff" d="M488.57,-224.09C630.61,-212.03 980.96,-172.56 1028,-74 1051.92,-23.88 954.5,-13.18 902.6,-10.99"/>
<polygon fill="#63b8ff" stroke="#63b8ff" points="902.69,-7.49 892.58,-10.65 902.45,-14.49 902.69,-7.49"/>
</a>
</g>
</g>
<!-- Node6&#45;&gt;Node4 -->
<g id="edge7_Node000006_Node000004" class="edge">
<title>Node6&#45;&gt;Node4</title>
<g id="a_edge7_Node000006_Node000004"><a xlink:title=" ">
<path fill="none" stroke="#63b8ff" d="M573.2,-170.98C449.12,-164.61 185.56,-143.06 133,-74 100.01,-30.66 199.56,-16.69 253.6,-12.36"/>
<polygon fill="#63b8ff" stroke="#63b8ff" points="254.04,-15.84 263.75,-11.61 253.52,-8.85 254.04,-15.84"/>
</a>
</g>
</g>
<!-- Node7 -->
<g id="Node000007" class="node">
<title>Node7</title>
<g id="a_Node000007"><a xlink:title=" ">
<polygon fill="#e0e0e0" stroke="#999999" points="627.5,-74 570.5,-74 570.5,-55 627.5,-55 627.5,-74"/>
<text text-anchor="middle" x="599" y="-62" font-family="Helvetica,sans-Serif" font-size="10.00">ostream</text>
</a>
</g>
</g>
<!-- Node6&#45;&gt;Node7 -->
<g id="edge6_Node000006_Node000007" class="edge">
<title>Node6&#45;&gt;Node7</title>
<g id="a_edge6_Node000006_Node000007"><a xlink:title=" ">
<path fill="none" stroke="#63b8ff" d="M634.81,-164.66C628.43,-147.01 614.02,-107.09 605.55,-83.64"/>
<polygon fill="#63b8ff" stroke="#63b8ff" points="608.82,-82.38 602.13,-74.16 602.23,-84.75 608.82,-82.38"/>
</a>
</g>
</g>
<!-- Node8 -->
<g id="Node000008" class="node">
<title>Node8</title>
<g id="a_Node000008"><a xlink:title=" ">
<polygon fill="#e0e0e0" stroke="#999999" points="909,-129 863,-129 863,-110 909,-110 909,-129"/>
<text text-anchor="middle" x="886" y="-117" font-family="Helvetica,sans-Serif" font-size="10.00">future</text>
</a>
</g>
</g>
<!-- Node6&#45;&gt;Node8 -->
<g id="edge8_Node000006_Node000008" class="edge">
<title>Node6&#45;&gt;Node8</title>
<g id="a_edge8_Node000006_Node000008"><a xlink:title=" ">
<path fill="none" stroke="#63b8ff" d="M679.68,-164.94C722.28,-156.14 790.32,-141.93 849,-129 850.27,-128.72 851.56,-128.43 852.86,-128.14"/>
<polygon fill="#63b8ff" stroke="#63b8ff" points="853.94,-131.49 862.92,-125.87 852.4,-124.66 853.94,-131.49"/>
</a>
</g>
</g>
<!-- Node9 -->
<g id="Node000009" class="node">
<title>Node9</title>
<g id="a_Node000009"><a xlink:title=" ">
<polygon fill="#e0e0e0" stroke="#999999" points="1003,-74 945,-74 945,-55 1003,-55 1003,-74"/>
<text text-anchor="middle" x="974" y="-62" font-family="Helvetica,sans-Serif" font-size="10.00">memory</text>
</a>
</g>
</g>
<!-- Node6&#45;&gt;Node9 -->
<g id="edge9_Node000006_Node000009" class="edge">
<title>Node6&#45;&gt;Node9</title>
<g id="a_edge9_Node000006_Node000009"><a xlink:title=" ">
<path fill="none" stroke="#63b8ff" d="M683.82,-164.93C720.27,-157.42 772.23,-145.19 816,-129 833.71,-122.45 836.68,-117.52 854,-110 882.13,-97.8 914.8,-85.82 938.94,-77.37"/>
<polygon fill="#63b8ff" stroke="#63b8ff" points="940.1,-80.67 948.4,-74.09 937.8,-74.06 940.1,-80.67"/>
</a>
</g>
</g>
<!-- Node10 -->
<g id="Node000010" class="node">
<title>Node10</title>
<g id="a_Node000010"><a xlink:title=" ">
<polygon fill="#e0e0e0" stroke="#999999" points="710.5,-74 645.5,-74 645.5,-55 710.5,-55 710.5,-74"/>
<text text-anchor="middle" x="678" y="-62" font-family="Helvetica,sans-Serif" font-size="10.00">stdexcept</text>
</a>
</g>
</g>
<!-- Node6&#45;&gt;Node10 -->
<g id="edge10_Node000006_Node000010" class="edge">
<title>Node6&#45;&gt;Node10</title>
<g id="a_edge10_Node000006_Node000010"><a xlink:title=" ">
<path fill="none" stroke="#63b8ff" d="M641.27,-164.66C647.81,-147.01 662.6,-107.09 671.28,-83.64"/>
<polygon fill="#63b8ff" stroke="#63b8ff" points="674.6,-84.75 674.79,-74.16 668.04,-82.32 674.6,-84.75"/>
</a>
</g>
</g>
<!-- Node11 -->
<g id="Node000011" class="node">
<title>Node11</title>
<g id="a_Node000011"><a xlink:title=" ">
<polygon fill="#e0e0e0" stroke="#999999" points="258,-74 208,-74 208,-55 258,-55 258,-74"/>
<text text-anchor="middle" x="233" y="-62" font-family="Helvetica,sans-Serif" font-size="10.00">cstdint</text>
</a>
</g>
</g>
<!-- Node6&#45;&gt;Node11 -->
<g id="edge11_Node000006_Node000011" class="edge">
<title>Node6&#45;&gt;Node11</title>
<g id="a_edge11_Node000006_Node000011"><a xlink:title=" ">
<path fill="none" stroke="#63b8ff" d="M573.42,-165.95C522.2,-159.04 449.14,-147.09 387,-129 340.9,-115.58 289.82,-92.86 259.61,-78.54"/>
<polygon fill="#63b8ff" stroke="#63b8ff" points="261.1,-75.38 250.57,-74.21 258.08,-81.69 261.1,-75.38"/>
</a>
</g>
</g>
<!-- Node12 -->
<g id="Node000012" class="node">
<title>Node12</title>
<g id="a_Node000012"><a xlink:href="field_8h.html" target="_top" xlink:title=" ">
<polygon fill="white" stroke="#666666" points="806.5,-129 759.5,-129 759.5,-110 806.5,-110 806.5,-129"/>
<text text-anchor="middle" x="783" y="-117" font-family="Helvetica,sans-Serif" font-size="10.00">field.h</text>
</a>
</g>
</g>
<!-- Node6&#45;&gt;Node12 -->
<g id="edge12_Node000006_Node000012" class="edge">
<title>Node6&#45;&gt;Node12</title>
<g id="a_edge12_Node000006_Node000012"><a xlink:title=" ">
<path fill="none" stroke="#63b8ff" d="M661.3,-164.98C685.25,-156.23 722.78,-142.51 749.83,-132.62"/>
<polygon fill="#63b8ff" stroke="#63b8ff" points="751.09,-135.89 759.28,-129.17 748.69,-129.32 751.09,-135.89"/>
</a>
</g>
</g>
<!-- Node6&#45;&gt;Node14 -->
<g id="edge30_Node000006_Node000014" class="edge">
<title>Node6&#45;&gt;Node14</title>
<g id="a_edge30_Node000006_Node000014"><a xlink:title=" ">
<path fill="none" stroke="#63b8ff" d="M702.5,-170.05C760.36,-165.38 846.86,-154.45 918,-129 963.58,-112.7 987.92,-115.99 1012,-74 1036.75,-30.84 951.23,-16.87 902.9,-12.46"/>
<polygon fill="#63b8ff" stroke="#63b8ff" points="902.89,-8.95 892.64,-11.61 902.32,-15.92 902.89,-8.95"/>
</a>
</g>
</g>
<!-- Node15 -->
<g id="Node000015" class="node">
<title>Node15</title>
<g id="a_Node000015"><a xlink:href="val_8h.html" target="_top" xlink:title=" ">
<polygon fill="white" stroke="#666666" points="482,-129 396,-129 396,-110 482,-110 482,-129"/>
<text text-anchor="middle" x="439" y="-117" font-family="Helvetica,sans-Serif" font-size="10.00">common/val.h</text>
</a>
</g>
</g>
<!-- Node6&#45;&gt;Node15 -->
<g id="edge19_Node000006_Node000015" class="edge">
<title>Node6&#45;&gt;Node15</title>
<g id="a_edge19_Node000006_Node000015"><a xlink:title=" ">
<path fill="none" stroke="#63b8ff" d="M606.03,-164.98C572.18,-155.97 518.6,-141.7 481.29,-131.76"/>
<polygon fill="#63b8ff" stroke="#63b8ff" points="481.79,-128.27 471.22,-129.08 479.99,-135.04 481.79,-128.27"/>
</a>
</g>
</g>
<!-- Node12&#45;&gt;Node4 -->
<g id="edge14_Node000012_Node000004" class="edge">
<title>Node12&#45;&gt;Node4</title>
<g id="a_edge14_Node000012_Node000004"><a xlink:title=" ">
<path fill="none" stroke="#63b8ff" d="M777.29,-109.65C767.51,-95.33 746.06,-67.45 720,-55 648.9,-21.03 406.67,-12.88 318.46,-11.02"/>
<polygon fill="#63b8ff" stroke="#63b8ff" points="318.32,-7.52 308.25,-10.82 318.18,-14.52 318.32,-7.52"/>
</a>
</g>
</g>
<!-- Node12&#45;&gt;Node9 -->
<g id="edge13_Node000012_Node000009" class="edge">
<title>Node12&#45;&gt;Node9</title>
<g id="a_edge13_Node000012_Node000009"><a xlink:title=" ">
<path fill="none" stroke="#63b8ff" d="M806.8,-111.89C838.93,-102.98 896.58,-86.98 935.06,-76.3"/>
<polygon fill="#63b8ff" stroke="#63b8ff" points="936.19,-79.62 944.89,-73.58 934.32,-72.88 936.19,-79.62"/>
</a>
</g>
</g>
<!-- Node13 -->
<g id="Node000013" class="node">
<title>Node13</title>
<g id="a_Node000013"><a xlink:href="field__base_8h.html" target="_top" xlink:title=" ">
<polygon fill="white" stroke="#666666" points="888.5,-74 767.5,-74 767.5,-55 888.5,-55 888.5,-74"/>
<text text-anchor="middle" x="828" y="-62" font-family="Helvetica,sans-Serif" font-size="10.00">common/field_base.h</text>
</a>
</g>
</g>
<!-- Node12&#45;&gt;Node13 -->
<g id="edge15_Node000012_Node000013" class="edge">
<title>Node12&#45;&gt;Node13</title>
<g id="a_edge15_Node000012_Node000013"><a xlink:title=" ">
<path fill="none" stroke="#63b8ff" d="M790.43,-109.75C796.85,-102.18 806.31,-91.05 814.12,-81.84"/>
<polygon fill="#63b8ff" stroke="#63b8ff" points="816.9,-83.98 820.71,-74.09 811.57,-79.45 816.9,-83.98"/>
</a>
</g>
</g>
<!-- Node12&#45;&gt;Node14 -->
<g id="edge18_Node000012_Node000014" class="edge">
<title>Node12&#45;&gt;Node14</title>
<g id="a_edge18_Node000012_Node000014"><a xlink:title=" ">
<path fill="none" stroke="#63b8ff" d="M806.55,-112.73C836.99,-104.75 887.35,-89.54 898,-74 907.94,-59.49 897.77,-40.59 887.37,-27.2"/>
<polygon fill="#63b8ff" stroke="#63b8ff" points="889.84,-24.69 880.72,-19.29 884.48,-29.2 889.84,-24.69"/>
</a>
</g>
</g>
<!-- Node13&#45;&gt;Node4 -->
<g id="edge16_Node000013_Node000004" class="edge">
<title>Node13&#45;&gt;Node4</title>
<g id="a_edge16_Node000013_Node000004"><a xlink:title=" ">
<path fill="none" stroke="#63b8ff" d="M767.43,-56.54C762.55,-56.01 757.69,-55.49 753,-55 590.09,-38.01 394.94,-20.25 318.73,-13.42"/>
<polygon fill="#63b8ff" stroke="#63b8ff" points="318.65,-9.89 308.37,-12.49 318.02,-16.87 318.65,-9.89"/>
</a>
</g>
</g>
<!-- Node13&#45;&gt;Node14 -->
<g id="edge17_Node000013_Node000014" class="edge">
<title>Node13&#45;&gt;Node14</title>
<g id="a_edge17_Node000013_Node000014"><a xlink:title=" ">
<path fill="none" stroke="#63b8ff" d="M835.27,-54.75C841.54,-47.18 850.79,-36.05 858.43,-26.84"/>
<polygon fill="#63b8ff" stroke="#63b8ff" points="861.17,-29.02 864.87,-19.09 855.79,-24.55 861.17,-29.02"/>
</a>
</g>
</g>
<!-- Node15&#45;&gt;Node3 -->
<g id="edge21_Node000015_Node000003" class="edge">
<title>Node15&#45;&gt;Node3</title>
<g id="a_edge21_Node000015_Node000003"><a xlink:title=" ">
<path fill="none" stroke="#63b8ff" d="M395.9,-111.43C349.79,-103.66 274.31,-90.35 199.78,-74.04"/>
<polygon fill="#63b8ff" stroke="#63b8ff" points="200.27,-70.56 189.75,-71.82 198.76,-77.4 200.27,-70.56"/>
</a>
</g>
</g>
<!-- Node15&#45;&gt;Node4 -->
<g id="edge20_Node000015_Node000004" class="edge">
<title>Node15&#45;&gt;Node4</title>
<g id="a_edge20_Node000015_Node000004"><a xlink:title=" ">
<path fill="none" stroke="#63b8ff" d="M395.8,-114.49C366.47,-109.55 328.82,-98.54 305,-74 293.36,-62.01 288.82,-43.2 287.06,-29.15"/>
<polygon fill="#63b8ff" stroke="#63b8ff" points="290.54,-28.79 286.16,-19.14 283.57,-29.41 290.54,-28.79"/>
</a>
</g>
</g>
<!-- Node15&#45;&gt;Node7 -->
<g id="edge26_Node000015_Node000007" class="edge">
<title>Node15&#45;&gt;Node7</title>
<g id="a_edge26_Node000015_Node000007"><a xlink:title=" ">
<path fill="none" stroke="#63b8ff" d="M464.71,-109.98C491.45,-101.13 533.53,-87.19 563.45,-77.28"/>
<polygon fill="#63b8ff" stroke="#63b8ff" points="564.7,-80.55 573.09,-74.08 562.5,-73.9 564.7,-80.55"/>
</a>
</g>
</g>
<!-- Node15&#45;&gt;Node10 -->
<g id="edge24_Node000015_Node000010" class="edge">
<title>Node15&#45;&gt;Node10</title>
<g id="a_edge24_Node000015_Node000010"><a xlink:title=" ">
<path fill="none" stroke="#63b8ff" d="M477.4,-109.98C520.61,-100.4 590.62,-84.88 635.46,-74.93"/>
<polygon fill="#63b8ff" stroke="#63b8ff" points="636.45,-78.3 645.45,-72.72 634.93,-71.47 636.45,-78.3"/>
</a>
</g>
</g>
<!-- Node15&#45;&gt;Node11 -->
<g id="edge25_Node000015_Node000011" class="edge">
<title>Node15&#45;&gt;Node11</title>
<g id="a_edge25_Node000015_Node000011"><a xlink:title=" ">
<path fill="none" stroke="#63b8ff" d="M405.9,-109.98C368.11,-100.26 306.54,-84.42 267.98,-74.5"/>
<polygon fill="#63b8ff" stroke="#63b8ff" points="268.78,-71.09 258.22,-71.99 267.04,-77.87 268.78,-71.09"/>
</a>
</g>
</g>
<!-- Node15&#45;&gt;Node14 -->
<g id="edge29_Node000015_Node000014" class="edge">
<title>Node15&#45;&gt;Node14</title>
<g id="a_edge29_Node000015_Node000014"><a xlink:title=" ">
<path fill="none" stroke="#63b8ff" d="M442,-109.73C447.37,-95.55 460.04,-67.85 481,-55 541.35,-18.01 760.14,-11.75 841.37,-10.7"/>
<polygon fill="#63b8ff" stroke="#63b8ff" points="841.49,-14.2 851.45,-10.59 841.41,-7.2 841.49,-14.2"/>
</a>
</g>
</g>
<!-- Node16 -->
<g id="Node000016" class="node">
<title>Node16</title>
<g id="a_Node000016"><a xlink:title=" ">
<polygon fill="#e0e0e0" stroke="#999999" points="355.5,-74 314.5,-74 314.5,-55 355.5,-55 355.5,-74"/>
<text text-anchor="middle" x="335" y="-62" font-family="Helvetica,sans-Serif" font-size="10.00">tuple</text>
</a>
</g>
</g>
<!-- Node15&#45;&gt;Node16 -->
<g id="edge22_Node000015_Node000016" class="edge">
<title>Node15&#45;&gt;Node16</title>
<g id="a_edge22_Node000015_Node000016"><a xlink:title=" ">
<path fill="none" stroke="#63b8ff" d="M422.29,-109.98C405.79,-101.57 380.3,-88.59 361.12,-78.81"/>
<polygon fill="#63b8ff" stroke="#63b8ff" points="362.51,-75.59 352.01,-74.17 359.33,-81.83 362.51,-75.59"/>
</a>
</g>
</g>
<!-- Node17 -->
<g id="Node000017" class="node">
<title>Node17</title>
<g id="a_Node000017"><a xlink:title=" ">
<polygon fill="#e0e0e0" stroke="#999999" points="434,-74 374,-74 374,-55 434,-55 434,-74"/>
<text text-anchor="middle" x="404" y="-62" font-family="Helvetica,sans-Serif" font-size="10.00">concepts</text>
</a>
</g>
</g>
<!-- Node15&#45;&gt;Node17 -->
<g id="edge23_Node000015_Node000017" class="edge">
<title>Node15&#45;&gt;Node17</title>
<g id="a_edge23_Node000015_Node000017"><a xlink:title=" ">
<path fill="none" stroke="#63b8ff" d="M433.22,-109.75C428.38,-102.42 421.32,-91.73 415.36,-82.7"/>
<polygon fill="#63b8ff" stroke="#63b8ff" points="418.1,-80.5 409.67,-74.09 412.26,-84.36 418.1,-80.5"/>
</a>
</g>
</g>
<!-- Node18 -->
<g id="Node000018" class="node">
<title>Node18</title>
<g id="a_Node000018"><a xlink:href="c__wcf_8h.html" target="_top" xlink:title=" ">
<polygon fill="white" stroke="#666666" points="552,-74 490,-74 490,-55 552,-55 552,-74"/>
<text text-anchor="middle" x="521" y="-62" font-family="Helvetica,sans-Serif" font-size="10.00">../c_wcf.h</text>
</a>
</g>
</g>
<!-- Node15&#45;&gt;Node18 -->
<g id="edge27_Node000015_Node000018" class="edge">
<title>Node15&#45;&gt;Node18</title>
<g id="a_edge27_Node000015_Node000018"><a xlink:title=" ">
<path fill="none" stroke="#63b8ff" d="M452.17,-109.98C464.77,-101.84 484,-89.41 498.94,-79.76"/>
<polygon fill="#63b8ff" stroke="#63b8ff" points="501.09,-82.54 507.59,-74.17 497.29,-76.66 501.09,-82.54"/>
</a>
</g>
</g>
<!-- Node18&#45;&gt;Node14 -->
<g id="edge28_Node000018_Node000014" class="edge">
<title>Node18&#45;&gt;Node14</title>
<g id="a_edge28_Node000018_Node000014"><a xlink:title=" ">
<path fill="none" stroke="#63b8ff" d="M552.3,-56.8C555.57,-56.17 558.85,-55.55 562,-55 663.88,-37.14 785.53,-21.25 841.31,-14.27"/>
<polygon fill="#63b8ff" stroke="#63b8ff" points="841.76,-17.74 851.25,-13.03 840.9,-10.79 841.76,-17.74"/>
</a>
</g>
</g>
</g>
</svg>
