<?xml version="1.0" encoding="UTF-8" standalone="no"?>
<!DOCTYPE svg PUBLIC "-//W3C//DTD SVG 1.1//EN"
 "http://www.w3.org/Graphics/SVG/1.1/DTD/svg11.dtd">
<!-- Generated by graphviz version 2.43.0 (0)
 -->
<!-- Title: include/webcface/func.h Pages: 1 -->
<svg width="926pt" height="247pt"
 viewBox="0.00 0.00 926.00 247.00" xmlns="http://www.w3.org/2000/svg" xmlns:xlink="http://www.w3.org/1999/xlink">
<g id="graph0" class="graph" transform="scale(1 1) rotate(0) translate(4 243)">
<title>include/webcface/func.h</title>
<!-- Node1 -->
<g id="Node000001" class="node">
<title>Node1</title>
<g id="a_Node000001"><a xlink:title=" ">
<polygon fill="#999999" stroke="#666666" points="529.5,-239 395.5,-239 395.5,-220 529.5,-220 529.5,-239"/>
<text text-anchor="middle" x="462.5" y="-227" font-family="Helvetica,sans-Serif" font-size="10.00">include/webcface/func.h</text>
</a>
</g>
</g>
<!-- Node2 -->
<g id="Node000002" class="node">
<title>Node2</title>
<g id="a_Node000002"><a xlink:href="client_8cc.html" target="_top" xlink:title=" ">
<polygon fill="white" stroke="#666666" points="87,-19 0,-19 0,0 87,0 87,-19"/>
<text text-anchor="middle" x="43.5" y="-7" font-family="Helvetica,sans-Serif" font-size="10.00">client/client.cc</text>
</a>
</g>
</g>
<!-- Node1&#45;&gt;Node2 -->
<g id="edge1_Node000001_Node000002" class="edge">
<title>Node1&#45;&gt;Node2</title>
<g id="a_edge1_Node000001_Node000002"><a xlink:title=" ">
<path fill="none" stroke="#63b8ff" d="M385.24,-223.06C335.08,-217.51 269.13,-206.36 214.5,-184 134.29,-151.18 99.81,-147.25 53.5,-74 42.65,-56.83 42.17,-31.98 42.8,-19.05"/>
<polygon fill="#63b8ff" stroke="#63b8ff" points="385.06,-226.56 395.37,-224.13 385.79,-219.6 385.06,-226.56"/>
</a>
</g>
</g>
<!-- Node3 -->
<g id="Node000003" class="node">
<title>Node3</title>
<g id="a_Node000003"><a xlink:href="func_8cc.html" target="_top" xlink:title=" ">
<polygon fill="white" stroke="#666666" points="918,-184 837,-184 837,-165 918,-165 918,-184"/>
<text text-anchor="middle" x="877.5" y="-172" font-family="Helvetica,sans-Serif" font-size="10.00">client/func.cc</text>
</a>
</g>
</g>
<!-- Node1&#45;&gt;Node3 -->
<g id="edge2_Node000001_Node000003" class="edge">
<title>Node1&#45;&gt;Node3</title>
<g id="a_edge2_Node000001_Node000003"><a xlink:title=" ">
<path fill="none" stroke="#63b8ff" d="M539.62,-219.65C612.57,-211.12 725.1,-197.54 822.5,-184 827.19,-183.35 832.1,-182.63 836.97,-181.91"/>
<polygon fill="#63b8ff" stroke="#63b8ff" points="539.12,-216.19 529.59,-220.82 539.93,-223.14 539.12,-216.19"/>
</a>
</g>
</g>
<!-- Node4 -->
<g id="Node000004" class="node">
<title>Node4</title>
<g id="a_Node000004"><a xlink:href="canvas3d_8h.html" target="_top" xlink:title=" ">
<polygon fill="white" stroke="#666666" points="670.5,-184 510.5,-184 510.5,-165 670.5,-165 670.5,-184"/>
<text text-anchor="middle" x="590.5" y="-172" font-family="Helvetica,sans-Serif" font-size="10.00">include/webcface/canvas3d.h</text>
</a>
</g>
</g>
<!-- Node1&#45;&gt;Node4 -->
<g id="edge3_Node000001_Node000004" class="edge">
<title>Node1&#45;&gt;Node4</title>
<g id="a_edge3_Node000001_Node000004"><a xlink:title=" ">
<path fill="none" stroke="#63b8ff" d="M492.62,-216.03C516.29,-206.23 548.65,-192.83 569.56,-184.17"/>
<polygon fill="#63b8ff" stroke="#63b8ff" points="490.97,-212.93 483.07,-219.98 493.64,-219.39 490.97,-212.93"/>
</a>
</g>
</g>
<!-- Node6 -->
<g id="Node000006" class="node">
<title>Node6</title>
<g id="a_Node000006"><a xlink:href="member_8h.html" target="_top" xlink:title=" ">
<polygon fill="white" stroke="#666666" points="539.5,-129 385.5,-129 385.5,-110 539.5,-110 539.5,-129"/>
<text text-anchor="middle" x="462.5" y="-117" font-family="Helvetica,sans-Serif" font-size="10.00">include/webcface/member.h</text>
</a>
</g>
</g>
<!-- Node1&#45;&gt;Node6 -->
<g id="edge17_Node000001_Node000006" class="edge">
<title>Node1&#45;&gt;Node6</title>
<g id="a_edge17_Node000001_Node000006"><a xlink:title=" ">
<path fill="none" stroke="#63b8ff" d="M462.5,-209.48C462.5,-185.84 462.5,-146.5 462.5,-129.16"/>
<polygon fill="#63b8ff" stroke="#63b8ff" points="459,-209.66 462.5,-219.66 466,-209.66 459,-209.66"/>
</a>
</g>
</g>
<!-- Node10 -->
<g id="Node000010" class="node">
<title>Node10</title>
<g id="a_Node000010"><a xlink:href="client_8h.html" target="_top" xlink:title=" ">
<polygon fill="white" stroke="#666666" points="220.5,-74 80.5,-74 80.5,-55 220.5,-55 220.5,-74"/>
<text text-anchor="middle" x="150.5" y="-62" font-family="Helvetica,sans-Serif" font-size="10.00">include/webcface/client.h</text>
</a>
</g>
</g>
<!-- Node1&#45;&gt;Node10 -->
<g id="edge16_Node000001_Node000010" class="edge">
<title>Node1&#45;&gt;Node10</title>
<g id="a_edge16_Node000001_Node000010"><a xlink:title=" ">
<path fill="none" stroke="#63b8ff" d="M385.17,-226.25C340.33,-221.83 284.42,-210.75 241.5,-184 196.15,-155.74 164.86,-96.23 154.37,-74.06"/>
<polygon fill="#63b8ff" stroke="#63b8ff" points="384.87,-229.74 395.14,-227.14 385.49,-222.76 384.87,-229.74"/>
</a>
</g>
</g>
<!-- Node12 -->
<g id="Node000012" class="node">
<title>Node12</title>
<g id="a_Node000012"><a xlink:href="webcface_8h.html" target="_top" xlink:title=" ">
<polygon fill="white" stroke="#666666" points="686.5,-19 526.5,-19 526.5,0 686.5,0 686.5,-19"/>
<text text-anchor="middle" x="606.5" y="-7" font-family="Helvetica,sans-Serif" font-size="10.00">include/webcface/webcface.h</text>
</a>
</g>
</g>
<!-- Node1&#45;&gt;Node12 -->
<g id="edge23_Node000001_Node000012" class="edge">
<title>Node1&#45;&gt;Node12</title>
<g id="a_edge23_Node000001_Node000012"><a xlink:title=" ">
<path fill="none" stroke="#63b8ff" d="M539.96,-225.47C583.63,-220.74 637.66,-209.61 679.5,-184 732.9,-151.32 746.78,-133.08 767.5,-74 781.2,-34.94 733.54,-19.53 686.59,-13.63"/>
<polygon fill="#63b8ff" stroke="#63b8ff" points="539.56,-222 529.95,-226.46 540.25,-228.96 539.56,-222"/>
</a>
</g>
</g>
<!-- Node13 -->
<g id="Node000013" class="node">
<title>Node13</title>
<g id="a_Node000013"><a xlink:href="view_8h.html" target="_top" xlink:title=" ">
<polygon fill="white" stroke="#666666" points="386.5,-184 250.5,-184 250.5,-165 386.5,-165 386.5,-184"/>
<text text-anchor="middle" x="318.5" y="-172" font-family="Helvetica,sans-Serif" font-size="10.00">include/webcface/view.h</text>
</a>
</g>
</g>
<!-- Node1&#45;&gt;Node13 -->
<g id="edge18_Node000001_Node000013" class="edge">
<title>Node1&#45;&gt;Node13</title>
<g id="a_edge18_Node000001_Node000013"><a xlink:title=" ">
<path fill="none" stroke="#63b8ff" d="M429.68,-216.42C402.97,-206.59 365.9,-192.95 342.06,-184.17"/>
<polygon fill="#63b8ff" stroke="#63b8ff" points="428.77,-219.82 439.36,-219.98 431.19,-213.25 428.77,-219.82"/>
</a>
</g>
</g>
<!-- Node5 -->
<g id="Node000005" class="node">
<title>Node5</title>
<g id="a_Node000005"><a xlink:href="canvas3d_8cc.html" target="_top" xlink:title=" ">
<polygon fill="white" stroke="#666666" points="742,-74 635,-74 635,-55 742,-55 742,-74"/>
<text text-anchor="middle" x="688.5" y="-62" font-family="Helvetica,sans-Serif" font-size="10.00">client/canvas3d.cc</text>
</a>
</g>
</g>
<!-- Node4&#45;&gt;Node5 -->
<g id="edge4_Node000004_Node000005" class="edge">
<title>Node4&#45;&gt;Node5</title>
<g id="a_edge4_Node000004_Node000005"><a xlink:title=" ">
<path fill="none" stroke="#63b8ff" d="M605.47,-157C626.58,-133.73 664.34,-92.13 680.64,-74.16"/>
<polygon fill="#63b8ff" stroke="#63b8ff" points="602.65,-154.9 598.52,-164.66 607.83,-159.61 602.65,-154.9"/>
</a>
</g>
</g>
<!-- Node4&#45;&gt;Node6 -->
<g id="edge5_Node000004_Node000006" class="edge">
<title>Node4&#45;&gt;Node6</title>
<g id="a_edge5_Node000004_Node000006"><a xlink:title=" ">
<path fill="none" stroke="#63b8ff" d="M560.38,-161.03C536.71,-151.23 504.35,-137.83 483.44,-129.17"/>
<polygon fill="#63b8ff" stroke="#63b8ff" points="559.36,-164.39 569.93,-164.98 562.03,-157.93 559.36,-164.39"/>
</a>
</g>
</g>
<!-- Node4&#45;&gt;Node12 -->
<g id="edge15_Node000004_Node000012" class="edge">
<title>Node4&#45;&gt;Node12</title>
<g id="a_edge15_Node000004_Node000012"><a xlink:title=" ">
<path fill="none" stroke="#63b8ff" d="M630.51,-161.44C669.28,-147.37 725.87,-119.97 751.5,-74 769.37,-41.96 729.17,-26.06 686.6,-18.19"/>
<polygon fill="#63b8ff" stroke="#63b8ff" points="628.87,-158.3 620.57,-164.89 631.17,-164.91 628.87,-158.3"/>
</a>
</g>
</g>
<!-- Node6&#45;&gt;Node5 -->
<g id="edge6_Node000006_Node000005" class="edge">
<title>Node6&#45;&gt;Node5</title>
<g id="a_edge6_Node000006_Node000005"><a xlink:title=" ">
<path fill="none" stroke="#63b8ff" d="M508.59,-107.69C550.94,-97.76 612.86,-83.24 651.9,-74.08"/>
<polygon fill="#63b8ff" stroke="#63b8ff" points="507.75,-104.29 498.81,-109.98 509.35,-111.11 507.75,-104.29"/>
</a>
</g>
</g>
<!-- Node7 -->
<g id="Node000007" class="node">
<title>Node7</title>
<g id="a_Node000007"><a xlink:href="field_8cc.html" target="_top" xlink:title=" ">
<polygon fill="white" stroke="#666666" points="459,-74 378,-74 378,-55 459,-55 459,-74"/>
<text text-anchor="middle" x="418.5" y="-62" font-family="Helvetica,sans-Serif" font-size="10.00">client/field.cc</text>
</a>
</g>
</g>
<!-- Node6&#45;&gt;Node7 -->
<g id="edge7_Node000006_Node000007" class="edge">
<title>Node6&#45;&gt;Node7</title>
<g id="a_edge7_Node000006_Node000007"><a xlink:title=" ">
<path fill="none" stroke="#63b8ff" d="M448.77,-101.96C441.1,-92.72 431.87,-81.6 425.63,-74.09"/>
<polygon fill="#63b8ff" stroke="#63b8ff" points="446.15,-104.29 455.23,-109.75 451.54,-99.82 446.15,-104.29"/>
</a>
</g>
</g>
<!-- Node8 -->
<g id="Node000008" class="node">
<title>Node8</title>
<g id="a_Node000008"><a xlink:href="member_8cc.html" target="_top" xlink:title=" ">
<polygon fill="white" stroke="#666666" points="578,-74 477,-74 477,-55 578,-55 578,-74"/>
<text text-anchor="middle" x="527.5" y="-62" font-family="Helvetica,sans-Serif" font-size="10.00">client/member.cc</text>
</a>
</g>
</g>
<!-- Node6&#45;&gt;Node8 -->
<g id="edge8_Node000006_Node000008" class="edge">
<title>Node6&#45;&gt;Node8</title>
<g id="a_edge8_Node000006_Node000008"><a xlink:title=" ">
<path fill="none" stroke="#63b8ff" d="M480.77,-103.6C492.42,-94.11 507.1,-82.13 516.87,-74.17"/>
<polygon fill="#63b8ff" stroke="#63b8ff" points="478.48,-100.95 472.94,-109.98 482.91,-106.38 478.48,-100.95"/>
</a>
</g>
</g>
<!-- Node9 -->
<g id="Node000009" class="node">
<title>Node9</title>
<g id="a_Node000009"><a xlink:href="view_8cc.html" target="_top" xlink:title=" ">
<polygon fill="white" stroke="#666666" points="360,-74 277,-74 277,-55 360,-55 360,-74"/>
<text text-anchor="middle" x="318.5" y="-62" font-family="Helvetica,sans-Serif" font-size="10.00">client/view.cc</text>
</a>
</g>
</g>
<!-- Node6&#45;&gt;Node9 -->
<g id="edge9_Node000006_Node000009" class="edge">
<title>Node6&#45;&gt;Node9</title>
<g id="a_edge9_Node000006_Node000009"><a xlink:title=" ">
<path fill="none" stroke="#63b8ff" d="M429.68,-106.42C402.97,-96.59 365.9,-82.95 342.06,-74.17"/>
<polygon fill="#63b8ff" stroke="#63b8ff" points="428.77,-109.82 439.36,-109.98 431.19,-103.25 428.77,-109.82"/>
</a>
</g>
</g>
<!-- Node6&#45;&gt;Node10 -->
<g id="edge10_Node000006_Node000010" class="edge">
<title>Node6&#45;&gt;Node10</title>
<g id="a_edge10_Node000006_Node000010"><a xlink:title=" ">
<path fill="none" stroke="#63b8ff" d="M402.51,-108.31C343.93,-98.36 255.77,-83.38 200.76,-74.04"/>
<polygon fill="#63b8ff" stroke="#63b8ff" points="401.93,-111.76 412.37,-109.98 403.1,-104.86 401.93,-111.76"/>
</a>
</g>
</g>
<!-- Node6&#45;&gt;Node12 -->
<g id="edge14_Node000006_Node000012" class="edge">
<title>Node6&#45;&gt;Node12</title>
<g id="a_edge14_Node000006_Node000012"><a xlink:title=" ">
<path fill="none" stroke="#63b8ff" d="M529.09,-107.19C550.19,-100.63 572.02,-90.29 587.5,-74 602.08,-58.65 605.52,-32.56 606.3,-19.1"/>
<polygon fill="#63b8ff" stroke="#63b8ff" points="528.12,-103.82 519.47,-109.94 530.05,-110.55 528.12,-103.82"/>
</a>
</g>
</g>
<!-- Node10&#45;&gt;Node2 -->
<g id="edge11_Node000010_Node000002" class="edge">
<title>Node10&#45;&gt;Node2</title>
<g id="a_edge11_Node000010_Node000002"><a xlink:title=" ">
<path fill="none" stroke="#63b8ff" d="M124.26,-50.5C104.57,-40.75 78.18,-27.68 61,-19.17"/>
<polygon fill="#63b8ff" stroke="#63b8ff" points="122.79,-53.68 133.31,-54.98 125.9,-47.41 122.79,-53.68"/>
</a>
</g>
</g>
<!-- Node11 -->
<g id="Node000011" class="node">
<title>Node11</title>
<g id="a_Node000011"><a xlink:href="client__ws_8cc.html" target="_top" xlink:title=" ">
<polygon fill="white" stroke="#666666" points="211.5,-19 105.5,-19 105.5,0 211.5,0 211.5,-19"/>
<text text-anchor="middle" x="158.5" y="-7" font-family="Helvetica,sans-Serif" font-size="10.00">client/client_ws.cc</text>
</a>
</g>
</g>
<!-- Node10&#45;&gt;Node11 -->
<g id="edge12_Node000010_Node000011" class="edge">
<title>Node10&#45;&gt;Node11</title>
<g id="a_edge12_Node000010_Node000011"><a xlink:title=" ">
<path fill="none" stroke="#63b8ff" d="M153.34,-44.66C154.66,-35.93 156.16,-25.99 157.2,-19.09"/>
<polygon fill="#63b8ff" stroke="#63b8ff" points="149.85,-44.34 151.82,-54.75 156.77,-45.38 149.85,-44.34"/>
</a>
</g>
</g>
<!-- Node10&#45;&gt;Node12 -->
<g id="edge13_Node000010_Node000012" class="edge">
<title>Node10&#45;&gt;Node12</title>
<g id="a_edge13_Node000010_Node000012"><a xlink:title=" ">
<path fill="none" stroke="#63b8ff" d="M230.93,-54.15C316.42,-44.22 450.45,-28.64 533.15,-19.03"/>
<polygon fill="#63b8ff" stroke="#63b8ff" points="230.28,-50.7 220.75,-55.33 231.09,-57.66 230.28,-50.7"/>
</a>
</g>
</g>
<!-- Node13&#45;&gt;Node2 -->
<g id="edge19_Node000013_Node000002" class="edge">
<title>Node13&#45;&gt;Node2</title>
<g id="a_edge19_Node000013_Node000002"><a xlink:title=" ">
<path fill="none" stroke="#63b8ff" d="M258.39,-162.73C203.5,-150.07 123.25,-124.1 71.5,-74 55.57,-58.58 48.08,-32.52 45.12,-19.08"/>
<polygon fill="#63b8ff" stroke="#63b8ff" points="257.81,-166.19 268.33,-164.94 259.33,-159.35 257.81,-166.19"/>
</a>
</g>
</g>
<!-- Node13&#45;&gt;Node6 -->
<g id="edge21_Node000013_Node000006" class="edge">
<title>Node13&#45;&gt;Node6</title>
<g id="a_edge21_Node000013_Node000006"><a xlink:title=" ">
<path fill="none" stroke="#63b8ff" d="M351.32,-161.42C378.03,-151.59 415.1,-137.95 438.94,-129.17"/>
<polygon fill="#63b8ff" stroke="#63b8ff" points="349.81,-158.25 341.64,-164.98 352.23,-164.82 349.81,-158.25"/>
</a>
</g>
</g>
<!-- Node13&#45;&gt;Node9 -->
<g id="edge20_Node000013_Node000009" class="edge">
<title>Node13&#45;&gt;Node9</title>
<g id="a_edge20_Node000013_Node000009"><a xlink:title=" ">
<path fill="none" stroke="#63b8ff" d="M318.5,-154.48C318.5,-130.84 318.5,-91.5 318.5,-74.16"/>
<polygon fill="#63b8ff" stroke="#63b8ff" points="315,-154.66 318.5,-164.66 322,-154.66 315,-154.66"/>
</a>
</g>
</g>
<!-- Node13&#45;&gt;Node12 -->
<g id="edge22_Node000013_Node000012" class="edge">
<title>Node13&#45;&gt;Node12</title>
<g id="a_edge22_Node000013_Node000012"><a xlink:title=" ">
<path fill="none" stroke="#63b8ff" d="M301.81,-157.33C278.43,-132.76 241.65,-85.62 268.5,-55 285.26,-35.89 431.66,-22.39 526.22,-15.58"/>
<polygon fill="#63b8ff" stroke="#63b8ff" points="299.6,-160.08 309.12,-164.75 304.59,-155.17 299.6,-160.08"/>
</a>
</g>
</g>
</g>
</svg>
