<?xml version="1.0" encoding="UTF-8" standalone="no"?>
<!DOCTYPE svg PUBLIC "-//W3C//DTD SVG 1.1//EN"
 "http://www.w3.org/Graphics/SVG/1.1/DTD/svg11.dtd">
<!-- Generated by graphviz version 2.43.0 (0)
 -->
<!-- Title: include/webcface/func_result.h Pages: 1 -->
<svg width="1681pt" height="313pt"
 viewBox="0.00 0.00 1681.00 313.00" xmlns="http://www.w3.org/2000/svg" xmlns:xlink="http://www.w3.org/1999/xlink">
<g id="graph0" class="graph" transform="scale(1 1) rotate(0) translate(4 309)">
<title>include/webcface/func_result.h</title>
<!-- Node1 -->
<g id="Node000001" class="node">
<title>Node1</title>
<g id="a_Node000001"><a xlink:title=" ">
<polygon fill="#999999" stroke="#666666" points="1130.5,-305 1005.5,-305 1005.5,-275 1130.5,-275 1130.5,-305"/>
<text text-anchor="start" x="1013.5" y="-293" font-family="Helvetica,sans-Serif" font-size="10.00">include/webcface/func</text>
<text text-anchor="middle" x="1068" y="-282" font-family="Helvetica,sans-Serif" font-size="10.00">_result.h</text>
</a>
</g>
</g>
<!-- Node2 -->
<g id="Node000002" class="node">
<title>Node2</title>
<g id="a_Node000002"><a xlink:href="client__internal_8h.html" target="_top" xlink:title=" ">
<polygon fill="white" stroke="#666666" points="765.5,-129 640.5,-129 640.5,-110 765.5,-110 765.5,-129"/>
<text text-anchor="middle" x="703" y="-117" font-family="Helvetica,sans-Serif" font-size="10.00">client/client_internal.h</text>
</a>
</g>
</g>
<!-- Node1&#45;&gt;Node2 -->
<g id="edge1_Node000001_Node000002" class="edge">
<title>Node1&#45;&gt;Node2</title>
<g id="a_edge1_Node000001_Node000002"><a xlink:title=" ">
<path fill="none" stroke="#63b8ff" d="M995.28,-284.61C945.27,-279.11 878.63,-266.75 826,-239 771.97,-210.51 725.25,-151.14 709.06,-129.03"/>
<polygon fill="#63b8ff" stroke="#63b8ff" points="995.07,-288.1 1005.37,-285.65 995.79,-281.14 995.07,-288.1"/>
</a>
</g>
</g>
<!-- Node16 -->
<g id="Node000016" class="node">
<title>Node16</title>
<g id="a_Node000016"><a xlink:href="func__internal_8h.html" target="_top" xlink:title=" ">
<polygon fill="white" stroke="#666666" points="953.5,-239 834.5,-239 834.5,-220 953.5,-220 953.5,-239"/>
<text text-anchor="middle" x="894" y="-227" font-family="Helvetica,sans-Serif" font-size="10.00">client/func_internal.h</text>
</a>
</g>
</g>
<!-- Node1&#45;&gt;Node16 -->
<g id="edge15_Node000001_Node000016" class="edge">
<title>Node1&#45;&gt;Node16</title>
<g id="a_edge15_Node000001_Node000016"><a xlink:title=" ">
<path fill="none" stroke="#63b8ff" d="M1016.66,-271.74C984.66,-260.98 944.86,-247.6 919.44,-239.05"/>
<polygon fill="#63b8ff" stroke="#63b8ff" points="1015.73,-275.12 1026.32,-274.99 1017.96,-268.48 1015.73,-275.12"/>
</a>
</g>
</g>
<!-- Node17 -->
<g id="Node000017" class="node">
<title>Node17</title>
<g id="a_Node000017"><a xlink:href="func_8h.html" target="_top" xlink:title=" ">
<polygon fill="white" stroke="#666666" points="1261,-239 1127,-239 1127,-220 1261,-220 1261,-239"/>
<text text-anchor="middle" x="1194" y="-227" font-family="Helvetica,sans-Serif" font-size="10.00">include/webcface/func.h</text>
</a>
</g>
</g>
<!-- Node1&#45;&gt;Node17 -->
<g id="edge17_Node000001_Node000017" class="edge">
<title>Node1&#45;&gt;Node17</title>
<g id="a_edge17_Node000001_Node000017"><a xlink:title=" ">
<path fill="none" stroke="#63b8ff" d="M1107.26,-270.77C1129.98,-260.22 1157.53,-247.43 1175.39,-239.14"/>
<polygon fill="#63b8ff" stroke="#63b8ff" points="1105.78,-267.6 1098.18,-274.99 1108.72,-273.95 1105.78,-267.6"/>
</a>
</g>
</g>
<!-- Node21 -->
<g id="Node000021" class="node">
<title>Node21</title>
<g id="a_Node000021"><a xlink:href="webcface_8h.html" target="_top" xlink:title=" ">
<polygon fill="white" stroke="#666666" points="1658,-19 1498,-19 1498,0 1658,0 1658,-19"/>
<text text-anchor="middle" x="1578" y="-7" font-family="Helvetica,sans-Serif" font-size="10.00">include/webcface/webcface.h</text>
</a>
</g>
</g>
<!-- Node1&#45;&gt;Node21 -->
<g id="edge41_Node000001_Node000021" class="edge">
<title>Node1&#45;&gt;Node21</title>
<g id="a_edge41_Node000001_Node000021"><a xlink:title=" ">
<path fill="none" stroke="#63b8ff" d="M1141.04,-282.86C1301.99,-268.34 1673,-229.06 1673,-175.5 1673,-175.5 1673,-175.5 1673,-118.5 1673,-71.3 1621.22,-34.93 1594.12,-19.12"/>
<polygon fill="#63b8ff" stroke="#63b8ff" points="1140.4,-279.4 1130.75,-283.78 1141.02,-286.37 1140.4,-279.4"/>
</a>
</g>
</g>
<!-- Node3 -->
<g id="Node000003" class="node">
<title>Node3</title>
<g id="a_Node000003"><a xlink:href="canvas3d_8cc.html" target="_top" xlink:title=" ">
<polygon fill="white" stroke="#666666" points="1454.5,-74 1347.5,-74 1347.5,-55 1454.5,-55 1454.5,-74"/>
<text text-anchor="middle" x="1401" y="-62" font-family="Helvetica,sans-Serif" font-size="10.00">client/canvas3d.cc</text>
</a>
</g>
</g>
<!-- Node2&#45;&gt;Node3 -->
<g id="edge2_Node000002_Node000003" class="edge">
<title>Node2&#45;&gt;Node3</title>
<g id="a_edge2_Node000002_Node000003"><a xlink:title=" ">
<path fill="none" stroke="#63b8ff" d="M775.89,-114.98C894.24,-108.9 1135.47,-95.05 1339,-74 1341.7,-73.72 1344.47,-73.41 1347.26,-73.09"/>
<polygon fill="#63b8ff" stroke="#63b8ff" points="775.67,-111.48 765.86,-115.49 776.02,-118.47 775.67,-111.48"/>
</a>
</g>
</g>
<!-- Node4 -->
<g id="Node000004" class="node">
<title>Node4</title>
<g id="a_Node000004"><a xlink:href="client_8cc.html" target="_top" xlink:title=" ">
<polygon fill="white" stroke="#666666" points="1092.5,-19 1005.5,-19 1005.5,0 1092.5,0 1092.5,-19"/>
<text text-anchor="middle" x="1049" y="-7" font-family="Helvetica,sans-Serif" font-size="10.00">client/client.cc</text>
</a>
</g>
</g>
<!-- Node2&#45;&gt;Node4 -->
<g id="edge3_Node000002_Node000004" class="edge">
<title>Node2&#45;&gt;Node4</title>
<g id="a_edge3_Node000002_Node000004"><a xlink:title=" ">
<path fill="none" stroke="#63b8ff" d="M703.42,-99.68C704.8,-85.24 709.17,-65.98 722,-55 763.74,-19.29 926.41,-12.11 1005.43,-10.75"/>
<polygon fill="#63b8ff" stroke="#63b8ff" points="699.9,-99.79 702.84,-109.97 706.89,-100.19 699.9,-99.79"/>
</a>
</g>
</g>
<!-- Node5 -->
<g id="Node000005" class="node">
<title>Node5</title>
<g id="a_Node000005"><a xlink:href="client__ws_8cc.html" target="_top" xlink:title=" ">
<polygon fill="white" stroke="#666666" points="752,-19 646,-19 646,0 752,0 752,-19"/>
<text text-anchor="middle" x="699" y="-7" font-family="Helvetica,sans-Serif" font-size="10.00">client/client_ws.cc</text>
</a>
</g>
</g>
<!-- Node2&#45;&gt;Node5 -->
<g id="edge4_Node000002_Node000005" class="edge">
<title>Node2&#45;&gt;Node5</title>
<g id="a_edge4_Node000002_Node000005"><a xlink:title=" ">
<path fill="none" stroke="#63b8ff" d="M630.21,-119.36C543.35,-118.65 405.71,-111.42 373,-74 367.44,-67.64 367.45,-61.36 373,-55 407.74,-15.19 562.52,-9.68 645.7,-9.68"/>
<polygon fill="#63b8ff" stroke="#63b8ff" points="630.26,-122.86 640.28,-119.42 630.3,-115.86 630.26,-122.86"/>
</a>
</g>
</g>
<!-- Node6 -->
<g id="Node000006" class="node">
<title>Node6</title>
<g id="a_Node000006"><a xlink:href="field_8cc.html" target="_top" xlink:title=" ">
<polygon fill="white" stroke="#666666" points="911.5,-74 830.5,-74 830.5,-55 911.5,-55 911.5,-74"/>
<text text-anchor="middle" x="871" y="-62" font-family="Helvetica,sans-Serif" font-size="10.00">client/field.cc</text>
</a>
</g>
</g>
<!-- Node2&#45;&gt;Node6 -->
<g id="edge5_Node000002_Node000006" class="edge">
<title>Node2&#45;&gt;Node6</title>
<g id="a_edge5_Node000002_Node000006"><a xlink:title=" ">
<path fill="none" stroke="#63b8ff" d="M739.68,-106.93C771.06,-97.03 815.51,-83.01 843.8,-74.08"/>
<polygon fill="#63b8ff" stroke="#63b8ff" points="738.48,-103.64 729.99,-109.98 740.58,-110.31 738.48,-103.64"/>
</a>
</g>
</g>
<!-- Node7 -->
<g id="Node000007" class="node">
<title>Node7</title>
<g id="a_Node000007"><a xlink:href="func_8cc.html" target="_top" xlink:title=" ">
<polygon fill="white" stroke="#666666" points="812.5,-74 731.5,-74 731.5,-55 812.5,-55 812.5,-74"/>
<text text-anchor="middle" x="772" y="-62" font-family="Helvetica,sans-Serif" font-size="10.00">client/func.cc</text>
</a>
</g>
</g>
<!-- Node2&#45;&gt;Node7 -->
<g id="edge6_Node000002_Node000007" class="edge">
<title>Node2&#45;&gt;Node7</title>
<g id="a_edge6_Node000002_Node000007"><a xlink:title=" ">
<path fill="none" stroke="#63b8ff" d="M722.04,-103.88C734.46,-94.34 750.24,-82.21 760.71,-74.17"/>
<polygon fill="#63b8ff" stroke="#63b8ff" points="719.88,-101.12 714.09,-109.98 724.15,-106.67 719.88,-101.12"/>
</a>
</g>
</g>
<!-- Node8 -->
<g id="Node000008" class="node">
<title>Node8</title>
<g id="a_Node000008"><a xlink:href="image_8cc.html" target="_top" xlink:title=" ">
<polygon fill="white" stroke="#666666" points="473.5,-74 382.5,-74 382.5,-55 473.5,-55 473.5,-74"/>
<text text-anchor="middle" x="428" y="-62" font-family="Helvetica,sans-Serif" font-size="10.00">client/image.cc</text>
</a>
</g>
</g>
<!-- Node2&#45;&gt;Node8 -->
<g id="edge7_Node000002_Node000008" class="edge">
<title>Node2&#45;&gt;Node8</title>
<g id="a_edge7_Node000002_Node000008"><a xlink:title=" ">
<path fill="none" stroke="#63b8ff" d="M648.86,-108.07C597.3,-98.13 520.64,-83.35 472.53,-74.08"/>
<polygon fill="#63b8ff" stroke="#63b8ff" points="648.33,-111.53 658.82,-109.98 649.66,-104.66 648.33,-111.53"/>
</a>
</g>
</g>
<!-- Node9 -->
<g id="Node000009" class="node">
<title>Node9</title>
<g id="a_Node000009"><a xlink:href="log_8cc.html" target="_top" xlink:title=" ">
<polygon fill="white" stroke="#666666" points="566.5,-74 491.5,-74 491.5,-55 566.5,-55 566.5,-74"/>
<text text-anchor="middle" x="529" y="-62" font-family="Helvetica,sans-Serif" font-size="10.00">client/log.cc</text>
</a>
</g>
</g>
<!-- Node2&#45;&gt;Node9 -->
<g id="edge8_Node000002_Node000009" class="edge">
<title>Node2&#45;&gt;Node9</title>
<g id="a_edge8_Node000002_Node000009"><a xlink:title=" ">
<path fill="none" stroke="#63b8ff" d="M665.43,-107.06C632.91,-97.15 586.6,-83.04 557.18,-74.08"/>
<polygon fill="#63b8ff" stroke="#63b8ff" points="664.46,-110.42 675.04,-109.98 666.5,-103.72 664.46,-110.42"/>
</a>
</g>
</g>
<!-- Node10 -->
<g id="Node000010" class="node">
<title>Node10</title>
<g id="a_Node000010"><a xlink:href="logger_8cc.html" target="_top" xlink:title=" ">
<polygon fill="white" stroke="#666666" points="675,-74 585,-74 585,-55 675,-55 675,-74"/>
<text text-anchor="middle" x="630" y="-62" font-family="Helvetica,sans-Serif" font-size="10.00">client/logger.cc</text>
</a>
</g>
</g>
<!-- Node2&#45;&gt;Node10 -->
<g id="edge9_Node000002_Node000010" class="edge">
<title>Node2&#45;&gt;Node10</title>
<g id="a_edge9_Node000002_Node000010"><a xlink:title=" ">
<path fill="none" stroke="#63b8ff" d="M682.86,-103.88C669.72,-94.34 653.02,-82.21 641.94,-74.17"/>
<polygon fill="#63b8ff" stroke="#63b8ff" points="681.12,-106.94 691.27,-109.98 685.24,-101.28 681.12,-106.94"/>
</a>
</g>
</g>
<!-- Node11 -->
<g id="Node000011" class="node">
<title>Node11</title>
<g id="a_Node000011"><a xlink:href="member_8cc.html" target="_top" xlink:title=" ">
<polygon fill="white" stroke="#666666" points="1069.5,-74 968.5,-74 968.5,-55 1069.5,-55 1069.5,-74"/>
<text text-anchor="middle" x="1019" y="-62" font-family="Helvetica,sans-Serif" font-size="10.00">client/member.cc</text>
</a>
</g>
</g>
<!-- Node2&#45;&gt;Node11 -->
<g id="edge10_Node000002_Node000011" class="edge">
<title>Node2&#45;&gt;Node11</title>
<g id="a_edge10_Node000002_Node000011"><a xlink:title=" ">
<path fill="none" stroke="#63b8ff" d="M763.77,-108.31C823.2,-98.34 912.66,-83.34 968.36,-73.99"/>
<polygon fill="#63b8ff" stroke="#63b8ff" points="763.05,-104.88 753.77,-109.98 764.21,-111.78 763.05,-104.88"/>
</a>
</g>
</g>
<!-- Node12 -->
<g id="Node000012" class="node">
<title>Node12</title>
<g id="a_Node000012"><a xlink:href="robot__model_8cc.html" target="_top" xlink:title=" ">
<polygon fill="white" stroke="#666666" points="122,-74 0,-74 0,-55 122,-55 122,-74"/>
<text text-anchor="middle" x="61" y="-62" font-family="Helvetica,sans-Serif" font-size="10.00">client/robot_model.cc</text>
</a>
</g>
</g>
<!-- Node2&#45;&gt;Node12 -->
<g id="edge11_Node000002_Node000012" class="edge">
<title>Node2&#45;&gt;Node12</title>
<g id="a_edge11_Node000002_Node000012"><a xlink:title=" ">
<path fill="none" stroke="#63b8ff" d="M630.08,-113.84C521.29,-106.66 310.07,-91.83 131,-74 128.08,-73.71 125.09,-73.4 122.07,-73.07"/>
<polygon fill="#63b8ff" stroke="#63b8ff" points="630.08,-117.35 640.29,-114.51 630.54,-110.36 630.08,-117.35"/>
</a>
</g>
</g>
<!-- Node13 -->
<g id="Node000013" class="node">
<title>Node13</title>
<g id="a_Node000013"><a xlink:href="text_8cc.html" target="_top" xlink:title=" ">
<polygon fill="white" stroke="#666666" points="220,-74 140,-74 140,-55 220,-55 220,-74"/>
<text text-anchor="middle" x="180" y="-62" font-family="Helvetica,sans-Serif" font-size="10.00">client/text.cc</text>
</a>
</g>
</g>
<!-- Node2&#45;&gt;Node13 -->
<g id="edge12_Node000002_Node000013" class="edge">
<title>Node2&#45;&gt;Node13</title>
<g id="a_edge12_Node000002_Node000013"><a xlink:title=" ">
<path fill="none" stroke="#63b8ff" d="M630.16,-113.44C536.94,-106.55 370.55,-92.89 229,-74 226.09,-73.61 223.09,-73.18 220.07,-72.71"/>
<polygon fill="#63b8ff" stroke="#63b8ff" points="630.1,-116.94 640.33,-114.18 630.61,-109.96 630.1,-116.94"/>
</a>
</g>
</g>
<!-- Node14 -->
<g id="Node000014" class="node">
<title>Node14</title>
<g id="a_Node000014"><a xlink:href="value_8cc.html" target="_top" xlink:title=" ">
<polygon fill="white" stroke="#666666" points="325.5,-74 238.5,-74 238.5,-55 325.5,-55 325.5,-74"/>
<text text-anchor="middle" x="282" y="-62" font-family="Helvetica,sans-Serif" font-size="10.00">client/value.cc</text>
</a>
</g>
</g>
<!-- Node2&#45;&gt;Node14 -->
<g id="edge13_Node000002_Node000014" class="edge">
<title>Node2&#45;&gt;Node14</title>
<g id="a_edge13_Node000002_Node000014"><a xlink:title=" ">
<path fill="none" stroke="#63b8ff" d="M630.26,-110.09C556.92,-101.5 440.52,-87.52 340,-74 335.36,-73.38 330.52,-72.7 325.69,-72.02"/>
<polygon fill="#63b8ff" stroke="#63b8ff" points="629.97,-113.58 640.31,-111.27 630.79,-106.63 629.97,-113.58"/>
</a>
</g>
</g>
<!-- Node15 -->
<g id="Node000015" class="node">
<title>Node15</title>
<g id="a_Node000015"><a xlink:href="view_8cc.html" target="_top" xlink:title=" ">
<polygon fill="white" stroke="#666666" points="1329.5,-74 1246.5,-74 1246.5,-55 1329.5,-55 1329.5,-74"/>
<text text-anchor="middle" x="1288" y="-62" font-family="Helvetica,sans-Serif" font-size="10.00">client/view.cc</text>
</a>
</g>
</g>
<!-- Node2&#45;&gt;Node15 -->
<g id="edge14_Node000002_Node000015" class="edge">
<title>Node2&#45;&gt;Node15</title>
<g id="a_edge14_Node000002_Node000015"><a xlink:title=" ">
<path fill="none" stroke="#63b8ff" d="M775.94,-114.32C878.94,-107.99 1072.78,-94.49 1237,-74 1240.03,-73.62 1243.15,-73.19 1246.29,-72.74"/>
<polygon fill="#63b8ff" stroke="#63b8ff" points="775.42,-110.85 765.65,-114.95 775.85,-117.83 775.42,-110.85"/>
</a>
</g>
</g>
<!-- Node16&#45;&gt;Node2 -->
<g id="edge16_Node000016_Node000002" class="edge">
<title>Node16&#45;&gt;Node2</title>
<g id="a_edge16_Node000016_Node000002"><a xlink:title=" ">
<path fill="none" stroke="#63b8ff" d="M869.87,-214.86C829.91,-192.26 751.13,-147.71 718.12,-129.05"/>
<polygon fill="#63b8ff" stroke="#63b8ff" points="868.26,-217.97 878.69,-219.84 871.71,-211.88 868.26,-217.97"/>
</a>
</g>
</g>
<!-- Node17&#45;&gt;Node4 -->
<g id="edge18_Node000017_Node000004" class="edge">
<title>Node17&#45;&gt;Node4</title>
<g id="a_edge18_Node000017_Node000004"><a xlink:title=" ">
<path fill="none" stroke="#63b8ff" d="M1156.47,-216.54C1101.68,-196.81 1001.8,-151.69 960,-74 945.48,-47.01 984.7,-28.8 1015.63,-19.03"/>
<polygon fill="#63b8ff" stroke="#63b8ff" points="1155.55,-219.93 1166.15,-219.93 1157.87,-213.32 1155.55,-219.93"/>
</a>
</g>
</g>
<!-- Node17&#45;&gt;Node7 -->
<g id="edge19_Node000017_Node000007" class="edge">
<title>Node17&#45;&gt;Node7</title>
<g id="a_edge19_Node000017_Node000007"><a xlink:title=" ">
<path fill="none" stroke="#63b8ff" d="M1116.68,-225.64C1061.56,-221.25 986.77,-210.43 926,-184 862.27,-156.29 801.39,-96.44 780.04,-74.12"/>
<polygon fill="#63b8ff" stroke="#63b8ff" points="1116.51,-229.13 1126.74,-226.38 1117.02,-222.15 1116.51,-229.13"/>
</a>
</g>
</g>
<!-- Node18 -->
<g id="Node000018" class="node">
<title>Node18</title>
<g id="a_Node000018"><a xlink:href="canvas3d_8h.html" target="_top" xlink:title=" ">
<polygon fill="white" stroke="#666666" points="1607,-184 1447,-184 1447,-165 1607,-165 1607,-184"/>
<text text-anchor="middle" x="1527" y="-172" font-family="Helvetica,sans-Serif" font-size="10.00">include/webcface/canvas3d.h</text>
</a>
</g>
</g>
<!-- Node17&#45;&gt;Node18 -->
<g id="edge20_Node000017_Node000018" class="edge">
<title>Node17&#45;&gt;Node18</title>
<g id="a_edge20_Node000017_Node000018"><a xlink:title=" ">
<path fill="none" stroke="#63b8ff" d="M1257.64,-218.37C1320.17,-208.42 1414.52,-193.4 1473.35,-184.04"/>
<polygon fill="#63b8ff" stroke="#63b8ff" points="1256.83,-214.96 1247.5,-219.98 1257.93,-221.87 1256.83,-214.96"/>
</a>
</g>
</g>
<!-- Node19 -->
<g id="Node000019" class="node">
<title>Node19</title>
<g id="a_Node000019"><a xlink:href="member_8h.html" target="_top" xlink:title=" ">
<polygon fill="white" stroke="#666666" points="1340,-129 1186,-129 1186,-110 1340,-110 1340,-129"/>
<text text-anchor="middle" x="1263" y="-117" font-family="Helvetica,sans-Serif" font-size="10.00">include/webcface/member.h</text>
</a>
</g>
</g>
<!-- Node17&#45;&gt;Node19 -->
<g id="edge34_Node000017_Node000019" class="edge">
<title>Node17&#45;&gt;Node19</title>
<g id="a_edge34_Node000017_Node000019"><a xlink:title=" ">
<path fill="none" stroke="#63b8ff" d="M1205.14,-211.07C1220.1,-187.64 1246.14,-146.89 1257.47,-129.16"/>
<polygon fill="#63b8ff" stroke="#63b8ff" points="1202.08,-209.35 1199.65,-219.66 1207.98,-213.12 1202.08,-209.35"/>
</a>
</g>
</g>
<!-- Node20 -->
<g id="Node000020" class="node">
<title>Node20</title>
<g id="a_Node000020"><a xlink:href="client_8h.html" target="_top" xlink:title=" ">
<polygon fill="white" stroke="#666666" points="1228,-74 1088,-74 1088,-55 1228,-55 1228,-74"/>
<text text-anchor="middle" x="1158" y="-62" font-family="Helvetica,sans-Serif" font-size="10.00">include/webcface/client.h</text>
</a>
</g>
</g>
<!-- Node17&#45;&gt;Node20 -->
<g id="edge33_Node000017_Node000020" class="edge">
<title>Node17&#45;&gt;Node20</title>
<g id="a_edge33_Node000017_Node000020"><a xlink:title=" ">
<path fill="none" stroke="#63b8ff" d="M1189.88,-209.83C1182.11,-174.67 1165.6,-99.9 1159.95,-74.31"/>
<polygon fill="#63b8ff" stroke="#63b8ff" points="1186.49,-210.73 1192.06,-219.74 1193.33,-209.22 1186.49,-210.73"/>
</a>
</g>
</g>
<!-- Node17&#45;&gt;Node21 -->
<g id="edge40_Node000017_Node000021" class="edge">
<title>Node17&#45;&gt;Node21</title>
<g id="a_edge40_Node000017_Node000021"><a xlink:title=" ">
<path fill="none" stroke="#63b8ff" d="M1271.46,-225.84C1387,-221.06 1593.42,-209.08 1616,-184 1660.15,-134.95 1603.93,-46.67 1584.3,-19.02"/>
<polygon fill="#63b8ff" stroke="#63b8ff" points="1271.1,-222.35 1261.25,-226.25 1271.38,-229.34 1271.1,-222.35"/>
</a>
</g>
</g>
<!-- Node22 -->
<g id="Node000022" class="node">
<title>Node22</title>
<g id="a_Node000022"><a xlink:href="view_8h.html" target="_top" xlink:title=" ">
<polygon fill="white" stroke="#666666" points="1429,-184 1293,-184 1293,-165 1429,-165 1429,-184"/>
<text text-anchor="middle" x="1361" y="-172" font-family="Helvetica,sans-Serif" font-size="10.00">include/webcface/view.h</text>
</a>
</g>
</g>
<!-- Node17&#45;&gt;Node22 -->
<g id="edge35_Node000017_Node000022" class="edge">
<title>Node17&#45;&gt;Node22</title>
<g id="a_edge35_Node000017_Node000022"><a xlink:title=" ">
<path fill="none" stroke="#63b8ff" d="M1230.46,-216.93C1261.66,-207.03 1305.84,-193.01 1333.96,-184.08"/>
<polygon fill="#63b8ff" stroke="#63b8ff" points="1229.3,-213.62 1220.83,-219.98 1231.42,-220.3 1229.3,-213.62"/>
</a>
</g>
</g>
<!-- Node18&#45;&gt;Node3 -->
<g id="edge21_Node000018_Node000003" class="edge">
<title>Node18&#45;&gt;Node3</title>
<g id="a_edge21_Node000018_Node000003"><a xlink:title=" ">
<path fill="none" stroke="#63b8ff" d="M1508.81,-157.91C1481.89,-134.83 1432.34,-92.37 1411.1,-74.16"/>
<polygon fill="#63b8ff" stroke="#63b8ff" points="1506.82,-160.81 1516.69,-164.66 1511.37,-155.5 1506.82,-160.81"/>
</a>
</g>
</g>
<!-- Node18&#45;&gt;Node19 -->
<g id="edge22_Node000018_Node000019" class="edge">
<title>Node18&#45;&gt;Node19</title>
<g id="a_edge22_Node000018_Node000019"><a xlink:title=" ">
<path fill="none" stroke="#63b8ff" d="M1474.71,-163C1425.22,-153.07 1351.83,-138.33 1305.75,-129.08"/>
<polygon fill="#63b8ff" stroke="#63b8ff" points="1474.09,-166.45 1484.58,-164.98 1475.47,-159.58 1474.09,-166.45"/>
</a>
</g>
</g>
<!-- Node18&#45;&gt;Node21 -->
<g id="edge32_Node000018_Node000021" class="edge">
<title>Node18&#45;&gt;Node21</title>
<g id="a_edge32_Node000018_Node000021"><a xlink:title=" ">
<path fill="none" stroke="#63b8ff" d="M1537.42,-156.01C1548.37,-136.68 1565.09,-104.26 1573,-74 1577.98,-54.96 1578.45,-31.7 1578.28,-19.29"/>
<polygon fill="#63b8ff" stroke="#63b8ff" points="1534.29,-154.44 1532.3,-164.84 1540.34,-157.95 1534.29,-154.44"/>
</a>
</g>
</g>
<!-- Node19&#45;&gt;Node3 -->
<g id="edge23_Node000019_Node000003" class="edge">
<title>Node19&#45;&gt;Node3</title>
<g id="a_edge23_Node000019_Node000003"><a xlink:title=" ">
<path fill="none" stroke="#63b8ff" d="M1294.79,-106.29C1320.37,-96.47 1355.67,-82.91 1378.42,-74.17"/>
<polygon fill="#63b8ff" stroke="#63b8ff" points="1293.25,-103.13 1285.17,-109.98 1295.76,-109.67 1293.25,-103.13"/>
</a>
</g>
</g>
<!-- Node19&#45;&gt;Node6 -->
<g id="edge24_Node000019_Node000006" class="edge">
<title>Node19&#45;&gt;Node6</title>
<g id="a_edge24_Node000019_Node000006"><a xlink:title=" ">
<path fill="none" stroke="#63b8ff" d="M1190,-108.63C1107.86,-97.52 977.35,-79.88 911.63,-70.99"/>
<polygon fill="#63b8ff" stroke="#63b8ff" points="1189.64,-112.11 1200.02,-109.98 1190.58,-105.18 1189.64,-112.11"/>
</a>
</g>
</g>
<!-- Node19&#45;&gt;Node11 -->
<g id="edge25_Node000019_Node000011" class="edge">
<title>Node19&#45;&gt;Node11</title>
<g id="a_edge25_Node000019_Node000011"><a xlink:title=" ">
<path fill="none" stroke="#63b8ff" d="M1213.81,-107.82C1168.08,-97.88 1100.84,-83.28 1058.51,-74.08"/>
<polygon fill="#63b8ff" stroke="#63b8ff" points="1213.28,-111.28 1223.8,-109.98 1214.77,-104.44 1213.28,-111.28"/>
</a>
</g>
</g>
<!-- Node19&#45;&gt;Node15 -->
<g id="edge26_Node000019_Node000015" class="edge">
<title>Node19&#45;&gt;Node15</title>
<g id="a_edge26_Node000019_Node000015"><a xlink:title=" ">
<path fill="none" stroke="#63b8ff" d="M1271.48,-100.53C1275.69,-91.6 1280.59,-81.22 1283.95,-74.09"/>
<polygon fill="#63b8ff" stroke="#63b8ff" points="1268.23,-99.21 1267.13,-109.75 1274.56,-102.2 1268.23,-99.21"/>
</a>
</g>
</g>
<!-- Node19&#45;&gt;Node20 -->
<g id="edge27_Node000019_Node000020" class="edge">
<title>Node19&#45;&gt;Node20</title>
<g id="a_edge27_Node000019_Node000020"><a xlink:title=" ">
<path fill="none" stroke="#63b8ff" d="M1236.98,-105.37C1217.7,-95.63 1191.95,-82.64 1175.18,-74.17"/>
<polygon fill="#63b8ff" stroke="#63b8ff" points="1235.63,-108.6 1246.13,-109.98 1238.78,-102.35 1235.63,-108.6"/>
</a>
</g>
</g>
<!-- Node19&#45;&gt;Node21 -->
<g id="edge31_Node000019_Node000021" class="edge">
<title>Node19&#45;&gt;Node21</title>
<g id="a_edge31_Node000019_Node000021"><a xlink:title=" ">
<path fill="none" stroke="#63b8ff" d="M1332.83,-108.18C1372.17,-101.11 1421.74,-90.05 1464,-74 1503.18,-59.12 1545.27,-32.58 1565.6,-19.01"/>
<polygon fill="#63b8ff" stroke="#63b8ff" points="1332.05,-104.77 1322.8,-109.94 1333.26,-111.66 1332.05,-104.77"/>
</a>
</g>
</g>
<!-- Node20&#45;&gt;Node4 -->
<g id="edge28_Node000020_Node000004" class="edge">
<title>Node20&#45;&gt;Node4</title>
<g id="a_edge28_Node000020_Node000004"><a xlink:title=" ">
<path fill="none" stroke="#63b8ff" d="M1131.27,-50.5C1111.21,-40.75 1084.32,-27.68 1066.83,-19.17"/>
<polygon fill="#63b8ff" stroke="#63b8ff" points="1129.96,-53.76 1140.49,-54.98 1133.02,-47.46 1129.96,-53.76"/>
</a>
</g>
</g>
<!-- Node20&#45;&gt;Node5 -->
<g id="edge29_Node000020_Node000005" class="edge">
<title>Node20&#45;&gt;Node5</title>
<g id="a_edge29_Node000020_Node000005"><a xlink:title=" ">
<path fill="none" stroke="#63b8ff" d="M1077.8,-54.24C984.19,-43.43 832.04,-25.86 752.03,-16.62"/>
<polygon fill="#63b8ff" stroke="#63b8ff" points="1077.45,-57.72 1087.79,-55.39 1078.26,-50.77 1077.45,-57.72"/>
</a>
</g>
</g>
<!-- Node20&#45;&gt;Node21 -->
<g id="edge30_Node000020_Node000021" class="edge">
<title>Node20&#45;&gt;Node21</title>
<g id="a_edge30_Node000020_Node000021"><a xlink:title=" ">
<path fill="none" stroke="#63b8ff" d="M1235.84,-53.68C1314.67,-43.73 1435.37,-28.5 1510.34,-19.04"/>
<polygon fill="#63b8ff" stroke="#63b8ff" points="1234.96,-50.26 1225.48,-54.98 1235.84,-57.21 1234.96,-50.26"/>
</a>
</g>
</g>
<!-- Node22&#45;&gt;Node4 -->
<g id="edge36_Node000022_Node000004" class="edge">
<title>Node22&#45;&gt;Node4</title>
<g id="a_edge36_Node000022_Node000004"><a xlink:title=" ">
<path fill="none" stroke="#63b8ff" d="M1387.49,-160.23C1428.15,-138.19 1497.89,-92.72 1464,-55 1439.48,-27.71 1194.08,-15.75 1092.59,-11.94"/>
<polygon fill="#63b8ff" stroke="#63b8ff" points="1385.78,-157.17 1378.57,-164.94 1389.05,-163.36 1385.78,-157.17"/>
</a>
</g>
</g>
<!-- Node22&#45;&gt;Node15 -->
<g id="edge37_Node000022_Node000015" class="edge">
<title>Node22&#45;&gt;Node15</title>
<g id="a_edge37_Node000022_Node000015"><a xlink:title=" ">
<path fill="none" stroke="#63b8ff" d="M1361.02,-154.6C1360.22,-141.22 1357.44,-123.35 1349,-110 1338.77,-93.82 1320.37,-81.62 1306.44,-74.13"/>
<polygon fill="#63b8ff" stroke="#63b8ff" points="1357.54,-155.08 1361.31,-164.98 1364.53,-154.88 1357.54,-155.08"/>
</a>
</g>
</g>
<!-- Node22&#45;&gt;Node19 -->
<g id="edge38_Node000022_Node000019" class="edge">
<title>Node22&#45;&gt;Node19</title>
<g id="a_edge38_Node000022_Node000019"><a xlink:title=" ">
<path fill="none" stroke="#63b8ff" d="M1335.97,-159.97C1318.06,-150.28 1294.47,-137.52 1279.03,-129.17"/>
<polygon fill="#63b8ff" stroke="#63b8ff" points="1334.79,-163.31 1345.25,-164.98 1338.12,-157.15 1334.79,-163.31"/>
</a>
</g>
</g>
<!-- Node22&#45;&gt;Node21 -->
<g id="edge39_Node000022_Node000021" class="edge">
<title>Node22&#45;&gt;Node21</title>
<g id="a_edge39_Node000022_Node000021"><a xlink:title=" ">
<path fill="none" stroke="#63b8ff" d="M1421.94,-162.52C1446.96,-155.84 1475.12,-145.33 1497,-129 1537.94,-98.44 1565.25,-40.84 1574.51,-19.1"/>
<polygon fill="#63b8ff" stroke="#63b8ff" points="1421.01,-159.15 1412.17,-164.98 1422.72,-165.93 1421.01,-159.15"/>
</a>
</g>
</g>
</g>
</svg>
