<?xml version="1.0" encoding="UTF-8" standalone="no"?>
<!DOCTYPE svg PUBLIC "-//W3C//DTD SVG 1.1//EN"
 "http://www.w3.org/Graphics/SVG/1.1/DTD/svg11.dtd">
<!-- Generated by graphviz version 2.43.0 (0)
 -->
<!-- Title: /home/runner/work/webcface/webcface/client/src/func_result.cc Pages: 1 -->
<svg width="1429pt" height="346pt"
 viewBox="0.00 0.00 1428.50 346.00" xmlns="http://www.w3.org/2000/svg" xmlns:xlink="http://www.w3.org/1999/xlink">
<g id="graph0" class="graph" transform="scale(1 1) rotate(0) translate(4 342)">
<title>/home/runner/work/webcface/webcface/client/src/func_result.cc</title>
<!-- Node1 -->
<g id="Node000001" class="node">
<title>Node1</title>
<g id="a_Node000001"><a xlink:title=" ">
<polygon fill="#999999" stroke="#666666" points="670.5,-338 512.5,-338 512.5,-297 670.5,-297 670.5,-338"/>
<text text-anchor="start" x="520.5" y="-326" font-family="Helvetica,sans-Serif" font-size="10.00">/home/runner/work/webcface</text>
<text text-anchor="start" x="520.5" y="-315" font-family="Helvetica,sans-Serif" font-size="10.00">/webcface/client/src/func</text>
<text text-anchor="middle" x="591.5" y="-304" font-family="Helvetica,sans-Serif" font-size="10.00">_result.cc</text>
</a>
</g>
</g>
<!-- Node2 -->
<g id="Node000002" class="node">
<title>Node2</title>
<g id="a_Node000002"><a xlink:href="func__result_8h.html" target="_top" xlink:title=" ">
<polygon fill="white" stroke="#666666" points="609,-195 480,-195 480,-176 609,-176 609,-195"/>
<text text-anchor="middle" x="544.5" y="-183" font-family="Helvetica,sans-Serif" font-size="10.00">webcface/func_result.h</text>
</a>
</g>
</g>
<!-- Node1&#45;&gt;Node2 -->
<g id="edge1_Node000001_Node000002" class="edge">
<title>Node1&#45;&gt;Node2</title>
<g id="a_edge1_Node000001_Node000002"><a xlink:title=" ">
<path fill="none" stroke="#63b8ff" d="M580.81,-296.87C575.42,-286.42 569.07,-273.25 564.5,-261 557.56,-242.43 551.96,-220.42 548.47,-205.16"/>
<polygon fill="#63b8ff" stroke="#63b8ff" points="551.88,-204.4 546.31,-195.39 545.05,-205.91 551.88,-204.4"/>
</a>
</g>
</g>
<!-- Node25 -->
<g id="Node000025" class="node">
<title>Node25</title>
<g id="a_Node000025"><a xlink:href="func__internal_8h.html" target="_top" xlink:title=" ">
<polygon fill="white" stroke="#666666" points="701.5,-261 573.5,-261 573.5,-231 701.5,-231 701.5,-261"/>
<text text-anchor="start" x="581.5" y="-249" font-family="Helvetica,sans-Serif" font-size="10.00">webcface/internal/func</text>
<text text-anchor="middle" x="637.5" y="-238" font-family="Helvetica,sans-Serif" font-size="10.00">_internal.h</text>
</a>
</g>
</g>
<!-- Node1&#45;&gt;Node25 -->
<g id="edge38_Node000001_Node000025" class="edge">
<title>Node1&#45;&gt;Node25</title>
<g id="a_edge38_Node000001_Node000025"><a xlink:title=" ">
<path fill="none" stroke="#63b8ff" d="M604.56,-296.77C610.16,-288.31 616.73,-278.38 622.52,-269.63"/>
<polygon fill="#63b8ff" stroke="#63b8ff" points="625.61,-271.31 628.21,-261.04 619.77,-267.45 625.61,-271.31"/>
</a>
</g>
</g>
<!-- Node3 -->
<g id="Node000003" class="node">
<title>Node3</title>
<g id="a_Node000003"><a xlink:title=" ">
<polygon fill="#e0e0e0" stroke="#999999" points="1261,-74 1204,-74 1204,-55 1261,-55 1261,-74"/>
<text text-anchor="middle" x="1232.5" y="-62" font-family="Helvetica,sans-Serif" font-size="10.00">ostream</text>
</a>
</g>
</g>
<!-- Node2&#45;&gt;Node3 -->
<g id="edge2_Node000002_Node000003" class="edge">
<title>Node2&#45;&gt;Node3</title>
<g id="a_edge2_Node000002_Node000003"><a xlink:title=" ">
<path fill="none" stroke="#63b8ff" d="M609.12,-182.35C719.81,-177.99 940.8,-166.25 1013.5,-140 1035.76,-131.96 1035.92,-119.73 1057.5,-110 1081.64,-99.11 1150.14,-83.21 1193.93,-73.66"/>
<polygon fill="#63b8ff" stroke="#63b8ff" points="1194.92,-77.03 1203.96,-71.49 1193.44,-70.19 1194.92,-77.03"/>
</a>
</g>
</g>
<!-- Node4 -->
<g id="Node000004" class="node">
<title>Node4</title>
<g id="a_Node000004"><a xlink:title=" ">
<polygon fill="#e0e0e0" stroke="#999999" points="558.5,-19 514.5,-19 514.5,0 558.5,0 558.5,-19"/>
<text text-anchor="middle" x="536.5" y="-7" font-family="Helvetica,sans-Serif" font-size="10.00">string</text>
</a>
</g>
</g>
<!-- Node2&#45;&gt;Node4 -->
<g id="edge3_Node000002_Node000004" class="edge">
<title>Node2&#45;&gt;Node4</title>
<g id="a_edge3_Node000002_Node000004"><a xlink:title=" ">
<path fill="none" stroke="#63b8ff" d="M525.83,-175.97C512.17,-168.59 494.64,-156.5 486.5,-140 469.79,-106.12 471.03,-89.47 486.5,-55 492,-42.74 502.73,-32.48 512.85,-24.91"/>
<polygon fill="#63b8ff" stroke="#63b8ff" points="514.85,-27.78 521.07,-19.2 510.86,-22.03 514.85,-27.78"/>
</a>
</g>
</g>
<!-- Node5 -->
<g id="Node000005" class="node">
<title>Node5</title>
<g id="a_Node000005"><a xlink:title=" ">
<polygon fill="#e0e0e0" stroke="#999999" points="749.5,-134.5 703.5,-134.5 703.5,-115.5 749.5,-115.5 749.5,-134.5"/>
<text text-anchor="middle" x="726.5" y="-122.5" font-family="Helvetica,sans-Serif" font-size="10.00">future</text>
</a>
</g>
</g>
<!-- Node2&#45;&gt;Node5 -->
<g id="edge4_Node000002_Node000005" class="edge">
<title>Node2&#45;&gt;Node5</title>
<g id="a_edge4_Node000002_Node000005"><a xlink:title=" ">
<path fill="none" stroke="#63b8ff" d="M574.39,-175.93C603.84,-167.35 650.01,-153.51 689.5,-140 691.35,-139.37 693.25,-138.7 695.16,-138.02"/>
<polygon fill="#63b8ff" stroke="#63b8ff" points="696.49,-141.26 704.67,-134.52 694.08,-134.69 696.49,-141.26"/>
</a>
</g>
</g>
<!-- Node6 -->
<g id="Node000006" class="node">
<title>Node6</title>
<g id="a_Node000006"><a xlink:title=" ">
<polygon fill="#e0e0e0" stroke="#999999" points="123.5,-19 65.5,-19 65.5,0 123.5,0 123.5,-19"/>
<text text-anchor="middle" x="94.5" y="-7" font-family="Helvetica,sans-Serif" font-size="10.00">memory</text>
</a>
</g>
</g>
<!-- Node2&#45;&gt;Node6 -->
<g id="edge5_Node000002_Node000006" class="edge">
<title>Node2&#45;&gt;Node6</title>
<g id="a_edge5_Node000002_Node000006"><a xlink:title=" ">
<path fill="none" stroke="#63b8ff" d="M479.73,-184.62C414.1,-182.65 310.78,-173.72 228.5,-140 182.93,-121.32 173.94,-109.2 139.5,-74 125.81,-60.01 113.21,-41.53 104.84,-28.11"/>
<polygon fill="#63b8ff" stroke="#63b8ff" points="107.72,-26.11 99.55,-19.37 101.74,-29.74 107.72,-26.11"/>
</a>
</g>
</g>
<!-- Node7 -->
<g id="Node000007" class="node">
<title>Node7</title>
<g id="a_Node000007"><a xlink:title=" ">
<polygon fill="#e0e0e0" stroke="#999999" points="65,-134.5 0,-134.5 0,-115.5 65,-115.5 65,-134.5"/>
<text text-anchor="middle" x="32.5" y="-122.5" font-family="Helvetica,sans-Serif" font-size="10.00">stdexcept</text>
</a>
</g>
</g>
<!-- Node2&#45;&gt;Node7 -->
<g id="edge6_Node000002_Node000007" class="edge">
<title>Node2&#45;&gt;Node7</title>
<g id="a_edge6_Node000002_Node000007"><a xlink:title=" ">
<path fill="none" stroke="#63b8ff" d="M479.62,-182.26C389.22,-178.25 220.59,-167.49 79.5,-140 75.77,-139.27 71.91,-138.37 68.09,-137.39"/>
<polygon fill="#63b8ff" stroke="#63b8ff" points="68.71,-133.93 58.13,-134.61 66.83,-140.67 68.71,-133.93"/>
</a>
</g>
</g>
<!-- Node8 -->
<g id="Node000008" class="node">
<title>Node8</title>
<g id="a_Node000008"><a xlink:title=" ">
<polygon fill="#e0e0e0" stroke="#999999" points="863.5,-74 813.5,-74 813.5,-55 863.5,-55 863.5,-74"/>
<text text-anchor="middle" x="838.5" y="-62" font-family="Helvetica,sans-Serif" font-size="10.00">cstdint</text>
</a>
</g>
</g>
<!-- Node2&#45;&gt;Node8 -->
<g id="edge7_Node000002_Node000008" class="edge">
<title>Node2&#45;&gt;Node8</title>
<g id="a_edge7_Node000002_Node000008"><a xlink:title=" ">
<path fill="none" stroke="#63b8ff" d="M559.88,-175.82C586.64,-160.96 643.74,-130.29 694.5,-110 730.9,-95.44 774.02,-82.68 803.53,-74.6"/>
<polygon fill="#63b8ff" stroke="#63b8ff" points="804.62,-77.93 813.36,-71.94 802.79,-71.17 804.62,-77.93"/>
</a>
</g>
</g>
<!-- Node9 -->
<g id="Node000009" class="node">
<title>Node9</title>
<g id="a_Node000009"><a xlink:title=" ">
<polygon fill="#e0e0e0" stroke="#999999" points="361.5,-134.5 237.5,-134.5 237.5,-115.5 361.5,-115.5 361.5,-134.5"/>
<text text-anchor="middle" x="299.5" y="-122.5" font-family="Helvetica,sans-Serif" font-size="10.00">eventpp/callbacklist.h</text>
</a>
</g>
</g>
<!-- Node2&#45;&gt;Node9 -->
<g id="edge8_Node000002_Node000009" class="edge">
<title>Node2&#45;&gt;Node9</title>
<g id="a_edge8_Node000002_Node000009"><a xlink:title=" ">
<path fill="none" stroke="#63b8ff" d="M508.87,-175.99C465.6,-165.66 392.52,-148.21 345.16,-136.9"/>
<polygon fill="#63b8ff" stroke="#63b8ff" points="345.71,-133.43 335.17,-134.52 344.08,-140.24 345.71,-133.43"/>
</a>
</g>
</g>
<!-- Node10 -->
<g id="Node000010" class="node">
<title>Node10</title>
<g id="a_Node000010"><a xlink:href="field_8h.html" target="_top" xlink:title=" ">
<polygon fill="white" stroke="#666666" points="427,-134.5 380,-134.5 380,-115.5 427,-115.5 427,-134.5"/>
<text text-anchor="middle" x="403.5" y="-122.5" font-family="Helvetica,sans-Serif" font-size="10.00">field.h</text>
</a>
</g>
</g>
<!-- Node2&#45;&gt;Node10 -->
<g id="edge9_Node000002_Node000010" class="edge">
<title>Node2&#45;&gt;Node10</title>
<g id="a_edge9_Node000002_Node000010"><a xlink:title=" ">
<path fill="none" stroke="#63b8ff" d="M524,-175.99C500.19,-166.12 460.71,-149.73 433.46,-138.43"/>
<polygon fill="#63b8ff" stroke="#63b8ff" points="434.61,-135.12 424.03,-134.52 431.92,-141.58 434.61,-135.12"/>
</a>
</g>
</g>
<!-- Node13 -->
<g id="Node000013" class="node">
<title>Node13</title>
<g id="a_Node000013"><a xlink:href="def_8h.html" target="_top" xlink:title=" ">
<polygon fill="white" stroke="#666666" points="1205.5,-19 1069.5,-19 1069.5,0 1205.5,0 1205.5,-19"/>
<text text-anchor="middle" x="1137.5" y="-7" font-family="Helvetica,sans-Serif" font-size="10.00">webcface/common/def.h</text>
</a>
</g>
</g>
<!-- Node2&#45;&gt;Node13 -->
<g id="edge33_Node000002_Node000013" class="edge">
<title>Node2&#45;&gt;Node13</title>
<g id="a_edge33_Node000002_Node000013"><a xlink:title=" ">
<path fill="none" stroke="#63b8ff" d="M609.13,-182.84C713.92,-179.32 915.71,-168.92 980.5,-140 998.6,-131.92 996.2,-119.68 1013.5,-110 1063.58,-81.98 1103.04,-119.89 1137.5,-74 1147.01,-61.34 1145.85,-42.9 1143,-29.15"/>
<polygon fill="#63b8ff" stroke="#63b8ff" points="1146.36,-28.17 1140.52,-19.33 1139.57,-29.88 1146.36,-28.17"/>
</a>
</g>
</g>
<!-- Node18 -->
<g id="Node000018" class="node">
<title>Node18</title>
<g id="a_Node000018"><a xlink:href="encoding_2include_2webcface_2encoding_2val__adaptor_8h.html" target="_top" xlink:title=" ">
<polygon fill="white" stroke="#666666" points="971.5,-140 843.5,-140 843.5,-110 971.5,-110 971.5,-140"/>
<text text-anchor="start" x="851.5" y="-128" font-family="Helvetica,sans-Serif" font-size="10.00">webcface/encoding/val</text>
<text text-anchor="middle" x="907.5" y="-117" font-family="Helvetica,sans-Serif" font-size="10.00">_adaptor.h</text>
</a>
</g>
</g>
<!-- Node2&#45;&gt;Node18 -->
<g id="edge23_Node000002_Node000018" class="edge">
<title>Node2&#45;&gt;Node18</title>
<g id="a_edge23_Node000002_Node000018"><a xlink:title=" ">
<path fill="none" stroke="#63b8ff" d="M597.28,-175.99C659.41,-165.98 763,-149.29 833.21,-137.97"/>
<polygon fill="#63b8ff" stroke="#63b8ff" points="834.01,-141.39 843.32,-136.34 832.89,-134.48 834.01,-141.39"/>
</a>
</g>
</g>
<!-- Node22 -->
<g id="Node000022" class="node">
<title>Node22</title>
<g id="a_Node000022"><a xlink:href="def__types_8h.html" target="_top" xlink:title=" ">
<polygon fill="white" stroke="#666666" points="609,-140 496,-140 496,-110 609,-110 609,-140"/>
<text text-anchor="start" x="504" y="-128" font-family="Helvetica,sans-Serif" font-size="10.00">webcface/c_wcf/def</text>
<text text-anchor="middle" x="552.5" y="-117" font-family="Helvetica,sans-Serif" font-size="10.00">_types.h</text>
</a>
</g>
</g>
<!-- Node2&#45;&gt;Node22 -->
<g id="edge34_Node000002_Node000022" class="edge">
<title>Node2&#45;&gt;Node22</title>
<g id="a_edge34_Node000002_Node000022"><a xlink:title=" ">
<path fill="none" stroke="#63b8ff" d="M545.68,-175.87C546.61,-169.11 547.94,-159.35 549.18,-150.26"/>
<polygon fill="#63b8ff" stroke="#63b8ff" points="552.68,-150.5 550.57,-140.11 545.75,-149.55 552.68,-150.5"/>
</a>
</g>
</g>
<!-- Node10&#45;&gt;Node4 -->
<g id="edge11_Node000010_Node000004" class="edge">
<title>Node10&#45;&gt;Node4</title>
<g id="a_edge11_Node000010_Node000004"><a xlink:title=" ">
<path fill="none" stroke="#63b8ff" d="M402.45,-115.24C401.24,-100.92 401.01,-72.37 415.5,-55 421.46,-47.85 470.74,-31.21 504.54,-20.43"/>
<polygon fill="#63b8ff" stroke="#63b8ff" points="505.99,-23.64 514.47,-17.29 503.88,-16.97 505.99,-23.64"/>
</a>
</g>
</g>
<!-- Node10&#45;&gt;Node6 -->
<g id="edge10_Node000010_Node000006" class="edge">
<title>Node10&#45;&gt;Node6</title>
<g id="a_edge10_Node000010_Node000006"><a xlink:title=" ">
<path fill="none" stroke="#63b8ff" d="M385.26,-115.42C380.53,-113.43 375.39,-111.47 370.5,-110 285.67,-84.55 255.14,-110.62 174.5,-74 149.16,-62.49 124.82,-41.23 109.78,-26.5"/>
<polygon fill="#63b8ff" stroke="#63b8ff" points="111.96,-23.72 102.44,-19.09 106.99,-28.65 111.96,-23.72"/>
</a>
</g>
</g>
<!-- Node11 -->
<g id="Node000011" class="node">
<title>Node11</title>
<g id="a_Node000011"><a xlink:title=" ">
<polygon fill="#e0e0e0" stroke="#999999" points="215,-19 142,-19 142,0 215,0 215,-19"/>
<text text-anchor="middle" x="178.5" y="-7" font-family="Helvetica,sans-Serif" font-size="10.00">string_view</text>
</a>
</g>
</g>
<!-- Node10&#45;&gt;Node11 -->
<g id="edge12_Node000010_Node000011" class="edge">
<title>Node10&#45;&gt;Node11</title>
<g id="a_edge12_Node000010_Node000011"><a xlink:title=" ">
<path fill="none" stroke="#63b8ff" d="M385.25,-115.46C380.52,-113.47 375.38,-111.5 370.5,-110 291.25,-85.68 244.53,-134.16 187.5,-74 176.38,-62.27 174.98,-43.42 175.85,-29.3"/>
<polygon fill="#63b8ff" stroke="#63b8ff" points="179.34,-29.52 176.89,-19.22 172.38,-28.8 179.34,-29.52"/>
</a>
</g>
</g>
<!-- Node12 -->
<g id="Node000012" class="node">
<title>Node12</title>
<g id="a_Node000012"><a xlink:title=" ">
<polygon fill="#e0e0e0" stroke="#999999" points="795,-74 748,-74 748,-55 795,-55 795,-74"/>
<text text-anchor="middle" x="771.5" y="-62" font-family="Helvetica,sans-Serif" font-size="10.00">vector</text>
</a>
</g>
</g>
<!-- Node10&#45;&gt;Node12 -->
<g id="edge13_Node000010_Node000012" class="edge">
<title>Node10&#45;&gt;Node12</title>
<g id="a_edge13_Node000010_Node000012"><a xlink:title=" ">
<path fill="none" stroke="#63b8ff" d="M427.1,-119.94C443.7,-117.1 466.45,-113.26 486.5,-110 577.33,-95.25 684.6,-78.75 737.92,-70.61"/>
<polygon fill="#63b8ff" stroke="#63b8ff" points="738.48,-74.06 747.84,-69.09 737.42,-67.14 738.48,-74.06"/>
</a>
</g>
</g>
<!-- Node10&#45;&gt;Node13 -->
<g id="edge14_Node000010_Node000013" class="edge">
<title>Node10&#45;&gt;Node13</title>
<g id="a_edge14_Node000010_Node000013"><a xlink:title=" ">
<path fill="none" stroke="#63b8ff" d="M410.62,-115.25C423.74,-99.83 453.45,-68.24 486.5,-55 588.47,-14.17 909.5,-9.66 1059.21,-9.88"/>
<polygon fill="#63b8ff" stroke="#63b8ff" points="1059.24,-13.38 1069.25,-9.9 1059.26,-6.38 1059.24,-13.38"/>
</a>
</g>
</g>
<!-- Node14 -->
<g id="Node000014" class="node">
<title>Node14</title>
<g id="a_Node000014"><a xlink:href="encoding_8h.html" target="_top" xlink:title=" ">
<polygon fill="white" stroke="#666666" points="364,-74 197,-74 197,-55 364,-55 364,-74"/>
<text text-anchor="middle" x="280.5" y="-62" font-family="Helvetica,sans-Serif" font-size="10.00">webcface/encoding/encoding.h</text>
</a>
</g>
</g>
<!-- Node10&#45;&gt;Node14 -->
<g id="edge15_Node000010_Node000014" class="edge">
<title>Node10&#45;&gt;Node14</title>
<g id="a_edge15_Node000010_Node000014"><a xlink:title=" ">
<path fill="none" stroke="#63b8ff" d="M385.61,-115.49C365.12,-105.75 331.31,-89.66 307.58,-78.38"/>
<polygon fill="#63b8ff" stroke="#63b8ff" points="308.94,-75.15 298.41,-74.02 305.93,-81.47 308.94,-75.15"/>
</a>
</g>
</g>
<!-- Node14&#45;&gt;Node4 -->
<g id="edge16_Node000014_Node000004" class="edge">
<title>Node14&#45;&gt;Node4</title>
<g id="a_edge16_Node000014_Node000004"><a xlink:title=" ">
<path fill="none" stroke="#63b8ff" d="M329,-54.96C372.48,-47.06 438.23,-34.55 504.06,-19.21"/>
<polygon fill="#63b8ff" stroke="#63b8ff" points="505.27,-22.52 514.2,-16.82 503.66,-15.71 505.27,-22.52"/>
</a>
</g>
</g>
<!-- Node14&#45;&gt;Node6 -->
<g id="edge18_Node000014_Node000006" class="edge">
<title>Node14&#45;&gt;Node6</title>
<g id="a_edge18_Node000014_Node000006"><a xlink:title=" ">
<path fill="none" stroke="#63b8ff" d="M250.62,-54.98C218.84,-45.93 168.44,-31.57 133.55,-21.63"/>
<polygon fill="#63b8ff" stroke="#63b8ff" points="134.27,-18.19 123.7,-18.82 132.35,-24.93 134.27,-18.19"/>
</a>
</g>
</g>
<!-- Node14&#45;&gt;Node11 -->
<g id="edge17_Node000014_Node000011" class="edge">
<title>Node14&#45;&gt;Node11</title>
<g id="a_edge17_Node000014_Node000011"><a xlink:title=" ">
<path fill="none" stroke="#63b8ff" d="M264.11,-54.98C247.93,-46.57 222.93,-33.59 204.12,-23.81"/>
<polygon fill="#63b8ff" stroke="#63b8ff" points="205.67,-20.68 195.19,-19.17 202.45,-26.89 205.67,-20.68"/>
</a>
</g>
</g>
<!-- Node14&#45;&gt;Node13 -->
<g id="edge22_Node000014_Node000013" class="edge">
<title>Node14&#45;&gt;Node13</title>
<g id="a_edge22_Node000014_Node000013"><a xlink:title=" ">
<path fill="none" stroke="#63b8ff" d="M364.04,-58.22C381.06,-57.15 398.86,-56.04 415.5,-55 649.74,-40.41 926.75,-23.41 1059.25,-15.29"/>
<polygon fill="#63b8ff" stroke="#63b8ff" points="1059.54,-18.78 1069.31,-14.67 1059.12,-11.79 1059.54,-18.78"/>
</a>
</g>
</g>
<!-- Node15 -->
<g id="Node000015" class="node">
<title>Node15</title>
<g id="a_Node000015"><a xlink:title=" ">
<polygon fill="#e0e0e0" stroke="#999999" points="496.5,-19 448.5,-19 448.5,0 496.5,0 496.5,-19"/>
<text text-anchor="middle" x="472.5" y="-7" font-family="Helvetica,sans-Serif" font-size="10.00">mutex</text>
</a>
</g>
</g>
<!-- Node14&#45;&gt;Node15 -->
<g id="edge19_Node000014_Node000015" class="edge">
<title>Node14&#45;&gt;Node15</title>
<g id="a_edge19_Node000014_Node000015"><a xlink:title=" ">
<path fill="none" stroke="#63b8ff" d="M311.35,-54.98C346.08,-45.4 402.36,-29.86 438.38,-19.92"/>
<polygon fill="#63b8ff" stroke="#63b8ff" points="439.71,-23.18 448.41,-17.15 437.84,-16.44 439.71,-23.18"/>
</a>
</g>
</g>
<!-- Node16 -->
<g id="Node000016" class="node">
<title>Node16</title>
<g id="a_Node000016"><a xlink:title=" ">
<polygon fill="#e0e0e0" stroke="#999999" points="326,-19 233,-19 233,0 326,0 326,-19"/>
<text text-anchor="middle" x="279.5" y="-7" font-family="Helvetica,sans-Serif" font-size="10.00">unordered_map</text>
</a>
</g>
</g>
<!-- Node14&#45;&gt;Node16 -->
<g id="edge20_Node000014_Node000016" class="edge">
<title>Node14&#45;&gt;Node16</title>
<g id="a_edge20_Node000014_Node000016"><a xlink:title=" ">
<path fill="none" stroke="#63b8ff" d="M280.33,-54.75C280.2,-47.8 280.02,-37.85 279.85,-29.13"/>
<polygon fill="#63b8ff" stroke="#63b8ff" points="283.35,-29.02 279.66,-19.09 276.35,-29.15 283.35,-29.02"/>
</a>
</g>
</g>
<!-- Node17 -->
<g id="Node000017" class="node">
<title>Node17</title>
<g id="a_Node000017"><a xlink:title=" ">
<polygon fill="#e0e0e0" stroke="#999999" points="430.5,-19 344.5,-19 344.5,0 430.5,0 430.5,-19"/>
<text text-anchor="middle" x="387.5" y="-7" font-family="Helvetica,sans-Serif" font-size="10.00">unordered_set</text>
</a>
</g>
</g>
<!-- Node14&#45;&gt;Node17 -->
<g id="edge21_Node000014_Node000017" class="edge">
<title>Node14&#45;&gt;Node17</title>
<g id="a_edge21_Node000014_Node000017"><a xlink:title=" ">
<path fill="none" stroke="#63b8ff" d="M297.69,-54.98C314.75,-46.54 341.13,-33.47 360.9,-23.68"/>
<polygon fill="#63b8ff" stroke="#63b8ff" points="362.59,-26.75 370,-19.17 359.48,-20.47 362.59,-26.75"/>
</a>
</g>
</g>
<!-- Node18&#45;&gt;Node3 -->
<g id="edge29_Node000018_Node000003" class="edge">
<title>Node18&#45;&gt;Node3</title>
<g id="a_edge29_Node000018_Node000003"><a xlink:title=" ">
<path fill="none" stroke="#63b8ff" d="M971.71,-112.44C1037.92,-100.52 1139.01,-82.33 1193.86,-72.46"/>
<polygon fill="#63b8ff" stroke="#63b8ff" points="1194.64,-75.87 1203.86,-70.66 1193.4,-68.98 1194.64,-75.87"/>
</a>
</g>
</g>
<!-- Node18&#45;&gt;Node4 -->
<g id="edge24_Node000018_Node000004" class="edge">
<title>Node18&#45;&gt;Node4</title>
<g id="a_edge24_Node000018_Node000004"><a xlink:title=" ">
<path fill="none" stroke="#63b8ff" d="M904.46,-109.77C900.23,-93.69 890.91,-68.05 872.5,-55 824.11,-20.71 643.59,-12.83 569.03,-11.03"/>
<polygon fill="#63b8ff" stroke="#63b8ff" points="568.9,-7.53 558.83,-10.8 568.75,-14.52 568.9,-7.53"/>
</a>
</g>
</g>
<!-- Node18&#45;&gt;Node8 -->
<g id="edge28_Node000018_Node000008" class="edge">
<title>Node18&#45;&gt;Node8</title>
<g id="a_edge28_Node000018_Node000008"><a xlink:title=" ">
<path fill="none" stroke="#63b8ff" d="M890.8,-109.84C880.47,-101.09 867.22,-89.85 856.64,-80.88"/>
<polygon fill="#63b8ff" stroke="#63b8ff" points="858.73,-78.06 848.84,-74.27 854.2,-83.4 858.73,-78.06"/>
</a>
</g>
</g>
<!-- Node18&#45;&gt;Node12 -->
<g id="edge25_Node000018_Node000012" class="edge">
<title>Node18&#45;&gt;Node12</title>
<g id="a_edge25_Node000018_Node000012"><a xlink:title=" ">
<path fill="none" stroke="#63b8ff" d="M874.92,-109.99C852.44,-100.31 822.78,-87.56 800.99,-78.18"/>
<polygon fill="#63b8ff" stroke="#63b8ff" points="802.15,-74.88 791.58,-74.14 799.39,-81.31 802.15,-74.88"/>
</a>
</g>
</g>
<!-- Node18&#45;&gt;Node13 -->
<g id="edge32_Node000018_Node000013" class="edge">
<title>Node18&#45;&gt;Node13</title>
<g id="a_edge32_Node000018_Node000013"><a xlink:title=" ">
<path fill="none" stroke="#63b8ff" d="M971.56,-112.17C1029.6,-100.91 1107.67,-84.22 1118.5,-74 1130.65,-62.53 1135.13,-43.65 1136.73,-29.45"/>
<polygon fill="#63b8ff" stroke="#63b8ff" points="1140.24,-29.53 1137.49,-19.3 1133.26,-29.01 1140.24,-29.53"/>
</a>
</g>
</g>
<!-- Node18&#45;&gt;Node14 -->
<g id="edge31_Node000018_Node000014" class="edge">
<title>Node18&#45;&gt;Node14</title>
<g id="a_edge31_Node000018_Node000014"><a xlink:title=" ">
<path fill="none" stroke="#63b8ff" d="M843.33,-117.96C817.04,-115.49 786.31,-112.6 758.5,-110 625.06,-97.52 470.65,-83.16 374.27,-74.21"/>
<polygon fill="#63b8ff" stroke="#63b8ff" points="374.54,-70.72 364.26,-73.28 373.89,-77.69 374.54,-70.72"/>
</a>
</g>
</g>
<!-- Node19 -->
<g id="Node000019" class="node">
<title>Node19</title>
<g id="a_Node000019"><a xlink:title=" ">
<polygon fill="#e0e0e0" stroke="#999999" points="961,-74 920,-74 920,-55 961,-55 961,-74"/>
<text text-anchor="middle" x="940.5" y="-62" font-family="Helvetica,sans-Serif" font-size="10.00">tuple</text>
</a>
</g>
</g>
<!-- Node18&#45;&gt;Node19 -->
<g id="edge26_Node000018_Node000019" class="edge">
<title>Node18&#45;&gt;Node19</title>
<g id="a_edge26_Node000018_Node000019"><a xlink:title=" ">
<path fill="none" stroke="#63b8ff" d="M915.49,-109.84C920.03,-101.78 925.77,-91.62 930.6,-83.06"/>
<polygon fill="#63b8ff" stroke="#63b8ff" points="933.69,-84.7 935.56,-74.27 927.59,-81.26 933.69,-84.7"/>
</a>
</g>
</g>
<!-- Node20 -->
<g id="Node000020" class="node">
<title>Node20</title>
<g id="a_Node000020"><a xlink:title=" ">
<polygon fill="#e0e0e0" stroke="#999999" points="1039.5,-74 979.5,-74 979.5,-55 1039.5,-55 1039.5,-74"/>
<text text-anchor="middle" x="1009.5" y="-62" font-family="Helvetica,sans-Serif" font-size="10.00">concepts</text>
</a>
</g>
</g>
<!-- Node18&#45;&gt;Node20 -->
<g id="edge27_Node000018_Node000020" class="edge">
<title>Node18&#45;&gt;Node20</title>
<g id="a_edge27_Node000018_Node000020"><a xlink:title=" ">
<path fill="none" stroke="#63b8ff" d="M931.93,-109.99C948.19,-100.66 969.45,-88.47 985.6,-79.21"/>
<polygon fill="#63b8ff" stroke="#63b8ff" points="987.5,-82.15 994.44,-74.14 984.02,-76.08 987.5,-82.15"/>
</a>
</g>
</g>
<!-- Node21 -->
<g id="Node000021" class="node">
<title>Node21</title>
<g id="a_Node000021"><a xlink:title=" ">
<polygon fill="#e0e0e0" stroke="#999999" points="1109,-74 1058,-74 1058,-55 1109,-55 1109,-74"/>
<text text-anchor="middle" x="1083.5" y="-62" font-family="Helvetica,sans-Serif" font-size="10.00">variant</text>
</a>
</g>
</g>
<!-- Node18&#45;&gt;Node21 -->
<g id="edge30_Node000018_Node000021" class="edge">
<title>Node18&#45;&gt;Node21</title>
<g id="a_edge30_Node000018_Node000021"><a xlink:title=" ">
<path fill="none" stroke="#63b8ff" d="M949.66,-109.99C979.77,-99.98 1019.81,-86.67 1048.23,-77.22"/>
<polygon fill="#63b8ff" stroke="#63b8ff" points="1049.38,-80.53 1057.77,-74.05 1047.17,-73.89 1049.38,-80.53"/>
</a>
</g>
</g>
<!-- Node22&#45;&gt;Node13 -->
<g id="edge35_Node000022_Node000013" class="edge">
<title>Node22&#45;&gt;Node13</title>
<g id="a_edge35_Node000022_Node000013"><a xlink:title=" ">
<path fill="none" stroke="#63b8ff" d="M583.54,-109.89C620.07,-93.92 682.93,-68.39 739.5,-55 848.67,-29.16 978.33,-18.22 1059.28,-13.65"/>
<polygon fill="#63b8ff" stroke="#63b8ff" points="1059.6,-17.14 1069.4,-13.1 1059.22,-10.15 1059.6,-17.14"/>
</a>
</g>
</g>
<!-- Node23 -->
<g id="Node000023" class="node">
<title>Node23</title>
<g id="a_Node000023"><a xlink:title=" ">
<polygon fill="#e0e0e0" stroke="#999999" points="549.5,-74 495.5,-74 495.5,-55 549.5,-55 549.5,-74"/>
<text text-anchor="middle" x="522.5" y="-62" font-family="Helvetica,sans-Serif" font-size="10.00">wchar.h</text>
</a>
</g>
</g>
<!-- Node22&#45;&gt;Node23 -->
<g id="edge36_Node000022_Node000023" class="edge">
<title>Node22&#45;&gt;Node23</title>
<g id="a_edge36_Node000022_Node000023"><a xlink:title=" ">
<path fill="none" stroke="#63b8ff" d="M545.24,-109.84C541.15,-101.87 536.01,-91.84 531.64,-83.33"/>
<polygon fill="#63b8ff" stroke="#63b8ff" points="534.67,-81.57 527,-74.27 528.44,-84.76 534.67,-81.57"/>
</a>
</g>
</g>
<!-- Node24 -->
<g id="Node000024" class="node">
<title>Node24</title>
<g id="a_Node000024"><a xlink:title=" ">
<polygon fill="#e0e0e0" stroke="#999999" points="615,-74 568,-74 568,-55 615,-55 615,-74"/>
<text text-anchor="middle" x="591.5" y="-62" font-family="Helvetica,sans-Serif" font-size="10.00">float.h</text>
</a>
</g>
</g>
<!-- Node22&#45;&gt;Node24 -->
<g id="edge37_Node000022_Node000024" class="edge">
<title>Node22&#45;&gt;Node24</title>
<g id="a_edge37_Node000022_Node000024"><a xlink:title=" ">
<path fill="none" stroke="#63b8ff" d="M561.94,-109.84C567.37,-101.69 574.23,-91.4 579.98,-82.78"/>
<polygon fill="#63b8ff" stroke="#63b8ff" points="583.02,-84.53 585.66,-74.27 577.2,-80.65 583.02,-84.53"/>
</a>
</g>
</g>
<!-- Node25&#45;&gt;Node2 -->
<g id="edge51_Node000025_Node000002" class="edge">
<title>Node25&#45;&gt;Node2</title>
<g id="a_edge51_Node000025_Node000002"><a xlink:title=" ">
<path fill="none" stroke="#63b8ff" d="M614.99,-230.84C600.44,-221.68 581.57,-209.82 567.01,-200.66"/>
<polygon fill="#63b8ff" stroke="#63b8ff" points="568.49,-197.46 558.16,-195.09 564.76,-203.38 568.49,-197.46"/>
</a>
</g>
</g>
<!-- Node25&#45;&gt;Node13 -->
<g id="edge52_Node000025_Node000013" class="edge">
<title>Node25&#45;&gt;Node13</title>
<g id="a_edge52_Node000025_Node000013"><a xlink:title=" ">
<path fill="none" stroke="#63b8ff" d="M701.64,-241.28C879.08,-230.3 1366.38,-195.33 1410.5,-140 1436.3,-107.65 1407.19,-77.56 1372.5,-55 1347.05,-38.45 1274.01,-26.29 1216.04,-18.9"/>
<polygon fill="#63b8ff" stroke="#63b8ff" points="1216.13,-15.38 1205.78,-17.62 1215.27,-22.33 1216.13,-15.38"/>
</a>
</g>
</g>
<!-- Node25&#45;&gt;Node15 -->
<g id="edge39_Node000025_Node000015" class="edge">
<title>Node25&#45;&gt;Node15</title>
<g id="a_edge39_Node000025_Node000015"><a xlink:title=" ">
<path fill="none" stroke="#63b8ff" d="M641.31,-230.91C649.68,-196.55 665.76,-107.38 623.5,-55 619.73,-50.32 549.85,-31.06 506.49,-19.47"/>
<polygon fill="#63b8ff" stroke="#63b8ff" points="507.19,-16.03 496.62,-16.84 505.38,-22.8 507.19,-16.03"/>
</a>
</g>
</g>
<!-- Node26 -->
<g id="Node000026" class="node">
<title>Node26</title>
<g id="a_Node000026"><a xlink:href="func__info_8h.html" target="_top" xlink:title=" ">
<polygon fill="white" stroke="#666666" points="1160.5,-195 1040.5,-195 1040.5,-176 1160.5,-176 1160.5,-195"/>
<text text-anchor="middle" x="1100.5" y="-183" font-family="Helvetica,sans-Serif" font-size="10.00">webcface/func_info.h</text>
</a>
</g>
</g>
<!-- Node25&#45;&gt;Node26 -->
<g id="edge40_Node000025_Node000026" class="edge">
<title>Node25&#45;&gt;Node26</title>
<g id="a_edge40_Node000025_Node000026"><a xlink:title=" ">
<path fill="none" stroke="#63b8ff" d="M701.88,-236.87C788.25,-225.95 941.08,-206.64 1030.32,-195.37"/>
<polygon fill="#63b8ff" stroke="#63b8ff" points="1030.86,-198.83 1040.34,-194.1 1029.98,-191.88 1030.86,-198.83"/>
</a>
</g>
</g>
<!-- Node26&#45;&gt;Node3 -->
<g id="edge47_Node000026_Node000003" class="edge">
<title>Node26&#45;&gt;Node3</title>
<g id="a_edge47_Node000026_Node000003"><a xlink:title=" ">
<path fill="none" stroke="#63b8ff" d="M1160.75,-183.43C1232.71,-180.74 1346.75,-171.46 1373.5,-140 1405.7,-102.13 1323.39,-80.74 1271.34,-71.33"/>
<polygon fill="#63b8ff" stroke="#63b8ff" points="1271.83,-67.87 1261.38,-69.61 1270.64,-74.76 1271.83,-67.87"/>
</a>
</g>
</g>
<!-- Node26&#45;&gt;Node4 -->
<g id="edge46_Node000026_Node000004" class="edge">
<title>Node26&#45;&gt;Node4</title>
<g id="a_edge46_Node000026_Node000004"><a xlink:title=" ">
<path fill="none" stroke="#63b8ff" d="M1040.32,-184.75C977.14,-182.98 876.1,-174.3 796.5,-140 776.74,-131.49 776.46,-121.85 758.5,-110 715.84,-81.84 704.05,-76.1 657.5,-55 627.94,-41.6 593.04,-29.1 568.34,-20.78"/>
<polygon fill="#63b8ff" stroke="#63b8ff" points="569.34,-17.43 558.75,-17.59 567.13,-24.07 569.34,-17.43"/>
</a>
</g>
</g>
<!-- Node26&#45;&gt;Node5 -->
<g id="edge41_Node000026_Node000005" class="edge">
<title>Node26&#45;&gt;Node5</title>
<g id="a_edge41_Node000026_Node000005"><a xlink:title=" ">
<path fill="none" stroke="#63b8ff" d="M1040.36,-180.75C972.34,-175.55 858.65,-163.94 763.5,-140 761.05,-139.38 758.54,-138.66 756.05,-137.86"/>
<polygon fill="#63b8ff" stroke="#63b8ff" points="757.18,-134.55 746.59,-134.56 754.87,-141.16 757.18,-134.55"/>
</a>
</g>
</g>
<!-- Node26&#45;&gt;Node12 -->
<g id="edge42_Node000026_Node000012" class="edge">
<title>Node26&#45;&gt;Node12</title>
<g id="a_edge42_Node000026_Node000012"><a xlink:title=" ">
<path fill="none" stroke="#63b8ff" d="M1040.23,-179.27C972.87,-172.58 868.74,-159.48 834.5,-140 810.65,-126.43 791.76,-100.2 781.1,-82.77"/>
<polygon fill="#63b8ff" stroke="#63b8ff" points="784.11,-80.99 776.04,-74.12 778.07,-84.52 784.11,-80.99"/>
</a>
</g>
</g>
<!-- Node26&#45;&gt;Node13 -->
<g id="edge50_Node000026_Node000013" class="edge">
<title>Node26&#45;&gt;Node13</title>
<g id="a_edge50_Node000026_Node000013"><a xlink:title=" ">
<path fill="none" stroke="#63b8ff" d="M1160.51,-184.11C1236.61,-182.2 1361.47,-173.82 1390.5,-140 1447.63,-73.44 1303.41,-36.87 1209.94,-20.74"/>
<polygon fill="#63b8ff" stroke="#63b8ff" points="1210.38,-17.26 1199.94,-19.06 1209.22,-24.17 1210.38,-17.26"/>
</a>
</g>
</g>
<!-- Node26&#45;&gt;Node18 -->
<g id="edge49_Node000026_Node000018" class="edge">
<title>Node26&#45;&gt;Node18</title>
<g id="a_edge49_Node000026_Node000018"><a xlink:title=" ">
<path fill="none" stroke="#63b8ff" d="M1072.44,-175.99C1044.05,-167.39 999.4,-153.86 963.71,-143.04"/>
<polygon fill="#63b8ff" stroke="#63b8ff" points="964.49,-139.62 953.9,-140.06 962.45,-146.31 964.49,-139.62"/>
</a>
</g>
</g>
<!-- Node27 -->
<g id="Node000027" class="node">
<title>Node27</title>
<g id="a_Node000027"><a xlink:title=" ">
<polygon fill="#e0e0e0" stroke="#999999" points="1135,-134.5 1066,-134.5 1066,-115.5 1135,-115.5 1135,-134.5"/>
<text text-anchor="middle" x="1100.5" y="-122.5" font-family="Helvetica,sans-Serif" font-size="10.00">type_traits</text>
</a>
</g>
</g>
<!-- Node26&#45;&gt;Node27 -->
<g id="edge43_Node000026_Node000027" class="edge">
<title>Node26&#45;&gt;Node27</title>
<g id="a_edge43_Node000026_Node000027"><a xlink:title=" ">
<path fill="none" stroke="#63b8ff" d="M1100.5,-175.87C1100.5,-167.75 1100.5,-155.31 1100.5,-144.89"/>
<polygon fill="#63b8ff" stroke="#63b8ff" points="1104,-144.67 1100.5,-134.67 1097,-144.67 1104,-144.67"/>
</a>
</g>
</g>
<!-- Node28 -->
<g id="Node000028" class="node">
<title>Node28</title>
<g id="a_Node000028"><a xlink:title=" ">
<polygon fill="#e0e0e0" stroke="#999999" points="1218,-134.5 1153,-134.5 1153,-115.5 1218,-115.5 1218,-134.5"/>
<text text-anchor="middle" x="1185.5" y="-122.5" font-family="Helvetica,sans-Serif" font-size="10.00">functional</text>
</a>
</g>
</g>
<!-- Node26&#45;&gt;Node28 -->
<g id="edge44_Node000026_Node000028" class="edge">
<title>Node26&#45;&gt;Node28</title>
<g id="a_edge44_Node000026_Node000028"><a xlink:title=" ">
<path fill="none" stroke="#63b8ff" d="M1113.04,-175.87C1126.6,-166.54 1148.44,-151.51 1164.6,-140.38"/>
<polygon fill="#63b8ff" stroke="#63b8ff" points="1166.65,-143.22 1172.91,-134.67 1162.68,-137.45 1166.65,-143.22"/>
</a>
</g>
</g>
<!-- Node29 -->
<g id="Node000029" class="node">
<title>Node29</title>
<g id="a_Node000029"><a xlink:title=" ">
<polygon fill="#e0e0e0" stroke="#999999" points="1292.5,-134.5 1236.5,-134.5 1236.5,-115.5 1292.5,-115.5 1292.5,-134.5"/>
<text text-anchor="middle" x="1264.5" y="-122.5" font-family="Helvetica,sans-Serif" font-size="10.00">optional</text>
</a>
</g>
</g>
<!-- Node26&#45;&gt;Node29 -->
<g id="edge45_Node000026_Node000029" class="edge">
<title>Node26&#45;&gt;Node29</title>
<g id="a_edge45_Node000026_Node000029"><a xlink:title=" ">
<path fill="none" stroke="#63b8ff" d="M1125.39,-175.98C1151.04,-167.16 1192.16,-152.88 1227.5,-140 1229.14,-139.4 1230.82,-138.78 1232.52,-138.16"/>
<polygon fill="#63b8ff" stroke="#63b8ff" points="1234.09,-141.31 1242.23,-134.53 1231.64,-134.75 1234.09,-141.31"/>
</a>
</g>
</g>
<!-- Node30 -->
<g id="Node000030" class="node">
<title>Node30</title>
<g id="a_Node000030"><a xlink:title=" ">
<polygon fill="#e0e0e0" stroke="#999999" points="1364,-134.5 1311,-134.5 1311,-115.5 1364,-115.5 1364,-134.5"/>
<text text-anchor="middle" x="1337.5" y="-122.5" font-family="Helvetica,sans-Serif" font-size="10.00">cstddef</text>
</a>
</g>
</g>
<!-- Node26&#45;&gt;Node30 -->
<g id="edge48_Node000026_Node000030" class="edge">
<title>Node26&#45;&gt;Node30</title>
<g id="a_edge48_Node000026_Node000030"><a xlink:title=" ">
<path fill="none" stroke="#63b8ff" d="M1148.96,-175.93C1190.01,-168.16 1250.2,-155.56 1301.5,-140 1303.43,-139.42 1305.39,-138.78 1307.37,-138.1"/>
<polygon fill="#63b8ff" stroke="#63b8ff" points="1308.93,-141.26 1317.13,-134.55 1306.54,-134.68 1308.93,-141.26"/>
</a>
</g>
</g>
</g>
</svg>
