<?xml version="1.0" encoding="UTF-8" standalone="no"?>
<!DOCTYPE svg PUBLIC "-//W3C//DTD SVG 1.1//EN"
 "http://www.w3.org/Graphics/SVG/1.1/DTD/svg11.dtd">
<!-- Generated by graphviz version 2.43.0 (0)
 -->
<!-- Title: client/func_internal.h Pages: 1 -->
<svg width="1264pt" height="302pt"
 viewBox="0.00 0.00 1263.50 302.00" xmlns="http://www.w3.org/2000/svg" xmlns:xlink="http://www.w3.org/1999/xlink">
<g id="graph0" class="graph" transform="scale(1 1) rotate(0) translate(4 298)">
<title>client/func_internal.h</title>
<!-- Node1 -->
<g id="Node000001" class="node">
<title>Node1</title>
<g id="a_Node000001"><a xlink:title=" ">
<polygon fill="#999999" stroke="#666666" points="513.5,-294 394.5,-294 394.5,-275 513.5,-275 513.5,-294"/>
<text text-anchor="middle" x="454" y="-282" font-family="Helvetica,sans-Serif" font-size="10.00">client/func_internal.h</text>
</a>
</g>
</g>
<!-- Node2 -->
<g id="Node000002" class="node">
<title>Node2</title>
<g id="a_Node000002"><a xlink:title=" ">
<polygon fill="#e0e0e0" stroke="#999999" points="48,-239 0,-239 0,-220 48,-220 48,-239"/>
<text text-anchor="middle" x="24" y="-227" font-family="Helvetica,sans-Serif" font-size="10.00">mutex</text>
</a>
</g>
</g>
<!-- Node1&#45;&gt;Node2 -->
<g id="edge1_Node000001_Node000002" class="edge">
<title>Node1&#45;&gt;Node2</title>
<g id="a_edge1_Node000001_Node000002"><a xlink:title=" ">
<path fill="none" stroke="#63b8ff" d="M394.29,-278.72C317.19,-272.1 179.02,-258.67 62,-239 60.72,-238.79 59.43,-238.56 58.12,-238.31"/>
<polygon fill="#63b8ff" stroke="#63b8ff" points="58.54,-234.83 48.05,-236.29 57.16,-241.69 58.54,-234.83"/>
</a>
</g>
</g>
<!-- Node3 -->
<g id="Node000003" class="node">
<title>Node3</title>
<g id="a_Node000003"><a xlink:title=" ">
<polygon fill="#e0e0e0" stroke="#999999" points="189.5,-129 142.5,-129 142.5,-110 189.5,-110 189.5,-129"/>
<text text-anchor="middle" x="166" y="-117" font-family="Helvetica,sans-Serif" font-size="10.00">vector</text>
</a>
</g>
</g>
<!-- Node1&#45;&gt;Node3 -->
<g id="edge2_Node000001_Node000003" class="edge">
<title>Node1&#45;&gt;Node3</title>
<g id="a_edge2_Node000001_Node000003"><a xlink:title=" ">
<path fill="none" stroke="#63b8ff" d="M438.92,-274.97C391.89,-248.35 247.58,-166.67 190.05,-134.11"/>
<polygon fill="#63b8ff" stroke="#63b8ff" points="191.7,-131.03 181.28,-129.15 188.26,-137.12 191.7,-131.03"/>
</a>
</g>
</g>
<!-- Node4 -->
<g id="Node000004" class="node">
<title>Node4</title>
<g id="a_Node000004"><a xlink:title=" ">
<polygon fill="#e0e0e0" stroke="#999999" points="308,-74 264,-74 264,-55 308,-55 308,-74"/>
<text text-anchor="middle" x="286" y="-62" font-family="Helvetica,sans-Serif" font-size="10.00">string</text>
</a>
</g>
</g>
<!-- Node1&#45;&gt;Node4 -->
<g id="edge3_Node000001_Node000004" class="edge">
<title>Node1&#45;&gt;Node4</title>
<g id="a_edge3_Node000001_Node000004"><a xlink:title=" ">
<path fill="none" stroke="#63b8ff" d="M394.36,-278.08C312.18,-266.83 169.07,-232.57 123,-129 99.63,-76.45 200.03,-66.9 253.88,-65.49"/>
<polygon fill="#63b8ff" stroke="#63b8ff" points="254.04,-68.98 263.97,-65.3 253.91,-61.99 254.04,-68.98"/>
</a>
</g>
</g>
<!-- Node5 -->
<g id="Node000005" class="node">
<title>Node5</title>
<g id="a_Node000005"><a xlink:title=" ">
<polygon fill="#e0e0e0" stroke="#999999" points="1255.5,-239 1148.5,-239 1148.5,-220 1255.5,-220 1255.5,-239"/>
<text text-anchor="middle" x="1202" y="-227" font-family="Helvetica,sans-Serif" font-size="10.00">condition_variable</text>
</a>
</g>
</g>
<!-- Node1&#45;&gt;Node5 -->
<g id="edge4_Node000001_Node000005" class="edge">
<title>Node1&#45;&gt;Node5</title>
<g id="a_edge4_Node000001_Node000005"><a xlink:title=" ">
<path fill="none" stroke="#63b8ff" d="M513.67,-280.78C632.11,-275.12 905.22,-260.77 1134,-239 1135.3,-238.88 1136.61,-238.75 1137.93,-238.61"/>
<polygon fill="#63b8ff" stroke="#63b8ff" points="1138.64,-242.06 1148.21,-237.52 1137.9,-235.1 1138.64,-242.06"/>
</a>
</g>
</g>
<!-- Node6 -->
<g id="Node000006" class="node">
<title>Node6</title>
<g id="a_Node000006"><a xlink:href="func__result_8h.html" target="_top" xlink:title=" ">
<polygon fill="white" stroke="#666666" points="753.5,-239 624.5,-239 624.5,-220 753.5,-220 753.5,-239"/>
<text text-anchor="middle" x="689" y="-227" font-family="Helvetica,sans-Serif" font-size="10.00">webcface/func_result.h</text>
</a>
</g>
</g>
<!-- Node1&#45;&gt;Node6 -->
<g id="edge5_Node000001_Node000006" class="edge">
<title>Node1&#45;&gt;Node6</title>
<g id="a_edge5_Node000001_Node000006"><a xlink:title=" ">
<path fill="none" stroke="#63b8ff" d="M491.76,-274.98C532.32,-265.84 596.89,-251.27 641.03,-241.32"/>
<polygon fill="#63b8ff" stroke="#63b8ff" points="641.96,-244.7 650.95,-239.08 640.42,-237.87 641.96,-244.7"/>
</a>
</g>
</g>
<!-- Node14 -->
<g id="Node000014" class="node">
<title>Node14</title>
<g id="a_Node000014"><a xlink:href="def_8h.html" target="_top" xlink:title=" ">
<polygon fill="white" stroke="#666666" points="943.5,-74 902.5,-74 902.5,-55 943.5,-55 943.5,-74"/>
<text text-anchor="middle" x="923" y="-62" font-family="Helvetica,sans-Serif" font-size="10.00">def.h</text>
</a>
</g>
</g>
<!-- Node1&#45;&gt;Node14 -->
<g id="edge32_Node000001_Node000014" class="edge">
<title>Node1&#45;&gt;Node14</title>
<g id="a_edge32_Node000001_Node000014"><a xlink:title=" ">
<path fill="none" stroke="#63b8ff" d="M513.73,-279.78C660.36,-269.09 1029.77,-232.14 1079,-129 1102.92,-78.88 1005.5,-68.18 953.6,-65.99"/>
<polygon fill="#63b8ff" stroke="#63b8ff" points="953.69,-62.49 943.58,-65.65 953.45,-69.49 953.69,-62.49"/>
</a>
</g>
</g>
<!-- Node6&#45;&gt;Node4 -->
<g id="edge7_Node000006_Node000004" class="edge">
<title>Node6&#45;&gt;Node4</title>
<g id="a_edge7_Node000006_Node000004"><a xlink:title=" ">
<path fill="none" stroke="#63b8ff" d="M624.35,-227.36C490.71,-223.46 191.6,-206.09 133,-129 100.04,-85.64 199.57,-71.68 253.61,-67.35"/>
<polygon fill="#63b8ff" stroke="#63b8ff" points="254.04,-70.83 263.76,-66.61 253.53,-63.85 254.04,-70.83"/>
</a>
</g>
</g>
<!-- Node7 -->
<g id="Node000007" class="node">
<title>Node7</title>
<g id="a_Node000007"><a xlink:title=" ">
<polygon fill="#e0e0e0" stroke="#999999" points="678.5,-129 621.5,-129 621.5,-110 678.5,-110 678.5,-129"/>
<text text-anchor="middle" x="650" y="-117" font-family="Helvetica,sans-Serif" font-size="10.00">ostream</text>
</a>
</g>
</g>
<!-- Node6&#45;&gt;Node7 -->
<g id="edge6_Node000006_Node000007" class="edge">
<title>Node6&#45;&gt;Node7</title>
<g id="a_edge6_Node000006_Node000007"><a xlink:title=" ">
<path fill="none" stroke="#63b8ff" d="M685.81,-219.66C679.43,-202.01 665.02,-162.09 656.55,-138.64"/>
<polygon fill="#63b8ff" stroke="#63b8ff" points="659.82,-137.38 653.13,-129.16 653.23,-139.75 659.82,-137.38"/>
</a>
</g>
</g>
<!-- Node8 -->
<g id="Node000008" class="node">
<title>Node8</title>
<g id="a_Node000008"><a xlink:title=" ">
<polygon fill="#e0e0e0" stroke="#999999" points="960,-184 914,-184 914,-165 960,-165 960,-184"/>
<text text-anchor="middle" x="937" y="-172" font-family="Helvetica,sans-Serif" font-size="10.00">future</text>
</a>
</g>
</g>
<!-- Node6&#45;&gt;Node8 -->
<g id="edge8_Node000006_Node000008" class="edge">
<title>Node6&#45;&gt;Node8</title>
<g id="a_edge8_Node000006_Node000008"><a xlink:title=" ">
<path fill="none" stroke="#63b8ff" d="M730.68,-219.94C773.28,-211.14 841.32,-196.93 900,-184 901.27,-183.72 902.56,-183.43 903.86,-183.14"/>
<polygon fill="#63b8ff" stroke="#63b8ff" points="904.94,-186.49 913.92,-180.87 903.4,-179.66 904.94,-186.49"/>
</a>
</g>
</g>
<!-- Node9 -->
<g id="Node000009" class="node">
<title>Node9</title>
<g id="a_Node000009"><a xlink:title=" ">
<polygon fill="#e0e0e0" stroke="#999999" points="1054,-129 996,-129 996,-110 1054,-110 1054,-129"/>
<text text-anchor="middle" x="1025" y="-117" font-family="Helvetica,sans-Serif" font-size="10.00">memory</text>
</a>
</g>
</g>
<!-- Node6&#45;&gt;Node9 -->
<g id="edge9_Node000006_Node000009" class="edge">
<title>Node6&#45;&gt;Node9</title>
<g id="a_edge9_Node000006_Node000009"><a xlink:title=" ">
<path fill="none" stroke="#63b8ff" d="M734.82,-219.93C771.27,-212.42 823.23,-200.19 867,-184 884.71,-177.45 887.68,-172.52 905,-165 933.13,-152.8 965.8,-140.82 989.94,-132.37"/>
<polygon fill="#63b8ff" stroke="#63b8ff" points="991.1,-135.67 999.4,-129.09 988.8,-129.06 991.1,-135.67"/>
</a>
</g>
</g>
<!-- Node10 -->
<g id="Node000010" class="node">
<title>Node10</title>
<g id="a_Node000010"><a xlink:title=" ">
<polygon fill="#e0e0e0" stroke="#999999" points="761.5,-129 696.5,-129 696.5,-110 761.5,-110 761.5,-129"/>
<text text-anchor="middle" x="729" y="-117" font-family="Helvetica,sans-Serif" font-size="10.00">stdexcept</text>
</a>
</g>
</g>
<!-- Node6&#45;&gt;Node10 -->
<g id="edge10_Node000006_Node000010" class="edge">
<title>Node6&#45;&gt;Node10</title>
<g id="a_edge10_Node000006_Node000010"><a xlink:title=" ">
<path fill="none" stroke="#63b8ff" d="M692.27,-219.66C698.81,-202.01 713.6,-162.09 722.28,-138.64"/>
<polygon fill="#63b8ff" stroke="#63b8ff" points="725.6,-139.75 725.79,-129.16 719.04,-137.32 725.6,-139.75"/>
</a>
</g>
</g>
<!-- Node11 -->
<g id="Node000011" class="node">
<title>Node11</title>
<g id="a_Node000011"><a xlink:title=" ">
<polygon fill="#e0e0e0" stroke="#999999" points="258,-129 208,-129 208,-110 258,-110 258,-129"/>
<text text-anchor="middle" x="233" y="-117" font-family="Helvetica,sans-Serif" font-size="10.00">cstdint</text>
</a>
</g>
</g>
<!-- Node6&#45;&gt;Node11 -->
<g id="edge11_Node000006_Node000011" class="edge">
<title>Node6&#45;&gt;Node11</title>
<g id="a_edge11_Node000006_Node000011"><a xlink:title=" ">
<path fill="none" stroke="#63b8ff" d="M624.43,-223.59C562.63,-217.82 467.22,-206.09 387,-184 340.46,-171.18 289.13,-148.08 259.05,-133.56"/>
<polygon fill="#63b8ff" stroke="#63b8ff" points="260.58,-130.41 250.06,-129.17 257.51,-136.7 260.58,-130.41"/>
</a>
</g>
</g>
<!-- Node12 -->
<g id="Node000012" class="node">
<title>Node12</title>
<g id="a_Node000012"><a xlink:href="field_8h.html" target="_top" xlink:title=" ">
<polygon fill="white" stroke="#666666" points="857.5,-184 810.5,-184 810.5,-165 857.5,-165 857.5,-184"/>
<text text-anchor="middle" x="834" y="-172" font-family="Helvetica,sans-Serif" font-size="10.00">field.h</text>
</a>
</g>
</g>
<!-- Node6&#45;&gt;Node12 -->
<g id="edge12_Node000006_Node000012" class="edge">
<title>Node6&#45;&gt;Node12</title>
<g id="a_edge12_Node000006_Node000012"><a xlink:title=" ">
<path fill="none" stroke="#63b8ff" d="M712.3,-219.98C736.25,-211.23 773.78,-197.51 800.83,-187.62"/>
<polygon fill="#63b8ff" stroke="#63b8ff" points="802.09,-190.89 810.28,-184.17 799.69,-184.32 802.09,-190.89"/>
</a>
</g>
</g>
<!-- Node6&#45;&gt;Node14 -->
<g id="edge31_Node000006_Node000014" class="edge">
<title>Node6&#45;&gt;Node14</title>
<g id="a_edge31_Node000006_Node000014"><a xlink:title=" ">
<path fill="none" stroke="#63b8ff" d="M753.5,-225.05C811.36,-220.38 897.86,-209.45 969,-184 1014.58,-167.7 1038.92,-170.99 1063,-129 1087.75,-85.84 1002.23,-71.87 953.9,-67.46"/>
<polygon fill="#63b8ff" stroke="#63b8ff" points="953.89,-63.95 943.64,-66.61 953.32,-70.92 953.89,-63.95"/>
</a>
</g>
</g>
<!-- Node16 -->
<g id="Node000016" class="node">
<title>Node16</title>
<g id="a_Node000016"><a xlink:href="val_8h.html" target="_top" xlink:title=" ">
<polygon fill="white" stroke="#666666" points="482,-184 396,-184 396,-165 482,-165 482,-184"/>
<text text-anchor="middle" x="439" y="-172" font-family="Helvetica,sans-Serif" font-size="10.00">common/val.h</text>
</a>
</g>
</g>
<!-- Node6&#45;&gt;Node16 -->
<g id="edge20_Node000006_Node000016" class="edge">
<title>Node6&#45;&gt;Node16</title>
<g id="a_edge20_Node000006_Node000016"><a xlink:title=" ">
<path fill="none" stroke="#63b8ff" d="M648.83,-219.98C605.5,-210.8 536.41,-196.15 489.44,-186.19"/>
<polygon fill="#63b8ff" stroke="#63b8ff" points="489.99,-182.73 479.48,-184.08 488.54,-189.58 489.99,-182.73"/>
</a>
</g>
</g>
<!-- Node12&#45;&gt;Node4 -->
<g id="edge14_Node000012_Node000004" class="edge">
<title>Node12&#45;&gt;Node4</title>
<g id="a_edge14_Node000012_Node000004"><a xlink:title=" ">
<path fill="none" stroke="#63b8ff" d="M828.31,-164.62C818.55,-150.26 797.13,-122.31 771,-110 690.36,-71.99 413.49,-66.41 318.38,-65.62"/>
<polygon fill="#63b8ff" stroke="#63b8ff" points="318.24,-62.12 308.22,-65.55 318.19,-69.12 318.24,-62.12"/>
</a>
</g>
</g>
<!-- Node12&#45;&gt;Node9 -->
<g id="edge13_Node000012_Node000009" class="edge">
<title>Node12&#45;&gt;Node9</title>
<g id="a_edge13_Node000012_Node000009"><a xlink:title=" ">
<path fill="none" stroke="#63b8ff" d="M857.8,-166.89C889.93,-157.98 947.58,-141.98 986.06,-131.3"/>
<polygon fill="#63b8ff" stroke="#63b8ff" points="987.19,-134.62 995.89,-128.58 985.32,-127.88 987.19,-134.62"/>
</a>
</g>
</g>
<!-- Node13 -->
<g id="Node000013" class="node">
<title>Node13</title>
<g id="a_Node000013"><a xlink:href="field__base_8h.html" target="_top" xlink:title=" ">
<polygon fill="white" stroke="#666666" points="939.5,-129 818.5,-129 818.5,-110 939.5,-110 939.5,-129"/>
<text text-anchor="middle" x="879" y="-117" font-family="Helvetica,sans-Serif" font-size="10.00">common/field_base.h</text>
</a>
</g>
</g>
<!-- Node12&#45;&gt;Node13 -->
<g id="edge15_Node000012_Node000013" class="edge">
<title>Node12&#45;&gt;Node13</title>
<g id="a_edge15_Node000012_Node000013"><a xlink:title=" ">
<path fill="none" stroke="#63b8ff" d="M841.43,-164.75C847.85,-157.18 857.31,-146.05 865.12,-136.84"/>
<polygon fill="#63b8ff" stroke="#63b8ff" points="867.9,-138.98 871.71,-129.09 862.57,-134.45 867.9,-138.98"/>
</a>
</g>
</g>
<!-- Node12&#45;&gt;Node14 -->
<g id="edge19_Node000012_Node000014" class="edge">
<title>Node12&#45;&gt;Node14</title>
<g id="a_edge19_Node000012_Node000014"><a xlink:title=" ">
<path fill="none" stroke="#63b8ff" d="M857.55,-167.73C887.99,-159.75 938.35,-144.54 949,-129 958.94,-114.49 948.77,-95.59 938.37,-82.2"/>
<polygon fill="#63b8ff" stroke="#63b8ff" points="940.84,-79.69 931.72,-74.29 935.48,-84.2 940.84,-79.69"/>
</a>
</g>
</g>
<!-- Node13&#45;&gt;Node4 -->
<g id="edge16_Node000013_Node000004" class="edge">
<title>Node13&#45;&gt;Node4</title>
<g id="a_edge16_Node000013_Node000004"><a xlink:title=" ">
<path fill="none" stroke="#63b8ff" d="M818.43,-111.49C813.55,-110.97 808.69,-110.47 804,-110 620.48,-91.72 399.92,-74.27 318.36,-67.97"/>
<polygon fill="#63b8ff" stroke="#63b8ff" points="318.47,-64.47 308.23,-67.19 317.94,-71.45 318.47,-64.47"/>
</a>
</g>
</g>
<!-- Node13&#45;&gt;Node14 -->
<g id="edge17_Node000013_Node000014" class="edge">
<title>Node13&#45;&gt;Node14</title>
<g id="a_edge17_Node000013_Node000014"><a xlink:title=" ">
<path fill="none" stroke="#63b8ff" d="M886.27,-109.75C892.54,-102.18 901.79,-91.05 909.43,-81.84"/>
<polygon fill="#63b8ff" stroke="#63b8ff" points="912.17,-84.02 915.87,-74.09 906.79,-79.55 912.17,-84.02"/>
</a>
</g>
</g>
<!-- Node15 -->
<g id="Node000015" class="node">
<title>Node15</title>
<g id="a_Node000015"><a xlink:href="macros_8h.html" target="_top" xlink:title=" ">
<polygon fill="white" stroke="#666666" points="954,-19 892,-19 892,0 954,0 954,-19"/>
<text text-anchor="middle" x="923" y="-7" font-family="Helvetica,sans-Serif" font-size="10.00">macros.h</text>
</a>
</g>
</g>
<!-- Node14&#45;&gt;Node15 -->
<g id="edge18_Node000014_Node000015" class="edge">
<title>Node14&#45;&gt;Node15</title>
<g id="a_edge18_Node000014_Node000015"><a xlink:title=" ">
<path fill="none" stroke="#63b8ff" d="M923,-54.75C923,-47.8 923,-37.85 923,-29.13"/>
<polygon fill="#63b8ff" stroke="#63b8ff" points="926.5,-29.09 923,-19.09 919.5,-29.09 926.5,-29.09"/>
</a>
</g>
</g>
<!-- Node16&#45;&gt;Node3 -->
<g id="edge22_Node000016_Node000003" class="edge">
<title>Node16&#45;&gt;Node3</title>
<g id="a_edge22_Node000016_Node000003"><a xlink:title=" ">
<path fill="none" stroke="#63b8ff" d="M395.9,-166.43C349.79,-158.66 274.31,-145.35 199.78,-129.04"/>
<polygon fill="#63b8ff" stroke="#63b8ff" points="200.27,-125.56 189.75,-126.82 198.76,-132.4 200.27,-125.56"/>
</a>
</g>
</g>
<!-- Node16&#45;&gt;Node4 -->
<g id="edge21_Node000016_Node000004" class="edge">
<title>Node16&#45;&gt;Node4</title>
<g id="a_edge21_Node000016_Node000004"><a xlink:title=" ">
<path fill="none" stroke="#63b8ff" d="M395.8,-169.49C366.47,-164.55 328.82,-153.54 305,-129 293.36,-117.01 288.82,-98.2 287.06,-84.15"/>
<polygon fill="#63b8ff" stroke="#63b8ff" points="290.54,-83.79 286.16,-74.14 283.57,-84.41 290.54,-83.79"/>
</a>
</g>
</g>
<!-- Node16&#45;&gt;Node7 -->
<g id="edge27_Node000016_Node000007" class="edge">
<title>Node16&#45;&gt;Node7</title>
<g id="a_edge27_Node000016_Node000007"><a xlink:title=" ">
<path fill="none" stroke="#63b8ff" d="M472.9,-164.98C510.73,-155.48 571.81,-140.14 611.44,-130.19"/>
<polygon fill="#63b8ff" stroke="#63b8ff" points="612.42,-133.55 621.27,-127.72 610.72,-126.76 612.42,-133.55"/>
</a>
</g>
</g>
<!-- Node16&#45;&gt;Node10 -->
<g id="edge25_Node000016_Node000010" class="edge">
<title>Node16&#45;&gt;Node10</title>
<g id="a_edge25_Node000016_Node000010"><a xlink:title=" ">
<path fill="none" stroke="#63b8ff" d="M482.25,-166.14C529.93,-157.95 609.16,-144.09 686.44,-129.26"/>
<polygon fill="#63b8ff" stroke="#63b8ff" points="687.19,-132.68 696.34,-127.36 685.86,-125.81 687.19,-132.68"/>
</a>
</g>
</g>
<!-- Node16&#45;&gt;Node11 -->
<g id="edge26_Node000016_Node000011" class="edge">
<title>Node16&#45;&gt;Node11</title>
<g id="a_edge26_Node000016_Node000011"><a xlink:title=" ">
<path fill="none" stroke="#63b8ff" d="M405.9,-164.98C368.11,-155.26 306.54,-139.42 267.98,-129.5"/>
<polygon fill="#63b8ff" stroke="#63b8ff" points="268.78,-126.09 258.22,-126.99 267.04,-132.87 268.78,-126.09"/>
</a>
</g>
</g>
<!-- Node16&#45;&gt;Node14 -->
<g id="edge30_Node000016_Node000014" class="edge">
<title>Node16&#45;&gt;Node14</title>
<g id="a_edge30_Node000016_Node000014"><a xlink:title=" ">
<path fill="none" stroke="#63b8ff" d="M442.12,-164.7C447.67,-150.46 460.73,-122.69 482,-110 551.38,-68.59 803.67,-65.17 892.11,-65.28"/>
<polygon fill="#63b8ff" stroke="#63b8ff" points="892.29,-68.78 902.3,-65.31 892.31,-61.78 892.29,-68.78"/>
</a>
</g>
</g>
<!-- Node17 -->
<g id="Node000017" class="node">
<title>Node17</title>
<g id="a_Node000017"><a xlink:title=" ">
<polygon fill="#e0e0e0" stroke="#999999" points="355.5,-129 314.5,-129 314.5,-110 355.5,-110 355.5,-129"/>
<text text-anchor="middle" x="335" y="-117" font-family="Helvetica,sans-Serif" font-size="10.00">tuple</text>
</a>
</g>
</g>
<!-- Node16&#45;&gt;Node17 -->
<g id="edge23_Node000016_Node000017" class="edge">
<title>Node16&#45;&gt;Node17</title>
<g id="a_edge23_Node000016_Node000017"><a xlink:title=" ">
<path fill="none" stroke="#63b8ff" d="M422.29,-164.98C405.79,-156.57 380.3,-143.59 361.12,-133.81"/>
<polygon fill="#63b8ff" stroke="#63b8ff" points="362.51,-130.59 352.01,-129.17 359.33,-136.83 362.51,-130.59"/>
</a>
</g>
</g>
<!-- Node18 -->
<g id="Node000018" class="node">
<title>Node18</title>
<g id="a_Node000018"><a xlink:title=" ">
<polygon fill="#e0e0e0" stroke="#999999" points="434,-129 374,-129 374,-110 434,-110 434,-129"/>
<text text-anchor="middle" x="404" y="-117" font-family="Helvetica,sans-Serif" font-size="10.00">concepts</text>
</a>
</g>
</g>
<!-- Node16&#45;&gt;Node18 -->
<g id="edge24_Node000016_Node000018" class="edge">
<title>Node16&#45;&gt;Node18</title>
<g id="a_edge24_Node000016_Node000018"><a xlink:title=" ">
<path fill="none" stroke="#63b8ff" d="M433.22,-164.75C428.38,-157.42 421.32,-146.73 415.36,-137.7"/>
<polygon fill="#63b8ff" stroke="#63b8ff" points="418.1,-135.5 409.67,-129.09 412.26,-139.36 418.1,-135.5"/>
</a>
</g>
</g>
<!-- Node19 -->
<g id="Node000019" class="node">
<title>Node19</title>
<g id="a_Node000019"><a xlink:href="def__types_8h.html" target="_top" xlink:title=" ">
<polygon fill="white" stroke="#666666" points="603.5,-129 490.5,-129 490.5,-110 603.5,-110 603.5,-129"/>
<text text-anchor="middle" x="547" y="-117" font-family="Helvetica,sans-Serif" font-size="10.00">../c_wcf/def_types.h</text>
</a>
</g>
</g>
<!-- Node16&#45;&gt;Node19 -->
<g id="edge28_Node000016_Node000019" class="edge">
<title>Node16&#45;&gt;Node19</title>
<g id="a_edge28_Node000016_Node000019"><a xlink:title=" ">
<path fill="none" stroke="#63b8ff" d="M456.35,-164.98C473.57,-156.54 500.2,-143.47 520.15,-133.68"/>
<polygon fill="#63b8ff" stroke="#63b8ff" points="521.9,-136.72 529.33,-129.17 518.81,-130.43 521.9,-136.72"/>
</a>
</g>
</g>
<!-- Node19&#45;&gt;Node14 -->
<g id="edge29_Node000019_Node000014" class="edge">
<title>Node19&#45;&gt;Node14</title>
<g id="a_edge29_Node000019_Node000014"><a xlink:title=" ">
<path fill="none" stroke="#63b8ff" d="M603.7,-110.51C684.18,-99.16 828.79,-78.78 892,-69.87"/>
<polygon fill="#63b8ff" stroke="#63b8ff" points="892.71,-73.3 902.13,-68.44 891.74,-66.37 892.71,-73.3"/>
</a>
</g>
</g>
</g>
</svg>
