<?xml version="1.0" encoding="UTF-8" standalone="no"?>
<!DOCTYPE svg PUBLIC "-//W3C//DTD SVG 1.1//EN"
 "http://www.w3.org/Graphics/SVG/1.1/DTD/svg11.dtd">
<!-- Generated by graphviz version 2.43.0 (0)
 -->
<!-- Title: client/src/func_result.cc Pages: 1 -->
<svg width="1074pt" height="379pt"
 viewBox="0.00 0.00 1074.31 379.00" xmlns="http://www.w3.org/2000/svg" xmlns:xlink="http://www.w3.org/1999/xlink">
<g id="graph0" class="graph" transform="scale(1 1) rotate(0) translate(4 375)">
<title>client/src/func_result.cc</title>
<!-- Node1 -->
<g id="Node000001" class="node">
<title>Node1</title>
<g id="a_Node000001"><a xlink:title=" ">
<polygon fill="#999999" stroke="#666666" points="480.05,-371 349.05,-371 349.05,-352 480.05,-352 480.05,-371"/>
<text text-anchor="middle" x="414.55" y="-359" font-family="Helvetica,sans-Serif" font-size="10.00">client/src/func_result.cc</text>
</a>
</g>
</g>
<!-- Node2 -->
<g id="Node000002" class="node">
<title>Node2</title>
<g id="a_Node000002"><a xlink:href="func__result_8h.html" target="_top" xlink:title=" ">
<polygon fill="white" stroke="#666666" points="479.05,-195 350.05,-195 350.05,-176 479.05,-176 479.05,-195"/>
<text text-anchor="middle" x="414.55" y="-183" font-family="Helvetica,sans-Serif" font-size="10.00">webcface/func_result.h</text>
</a>
</g>
</g>
<!-- Node1&#45;&gt;Node2 -->
<g id="edge1_Node000001_Node000002" class="edge">
<title>Node1&#45;&gt;Node2</title>
<g id="a_edge1_Node000001_Node000002"><a xlink:title=" ">
<path fill="none" stroke="#63b8ff" d="M414.55,-351.63C414.55,-324.64 414.55,-243.03 414.55,-205.61"/>
<polygon fill="#63b8ff" stroke="#63b8ff" points="418.05,-205.14 414.55,-195.14 411.05,-205.14 418.05,-205.14"/>
</a>
</g>
</g>
<!-- Node24 -->
<g id="Node000024" class="node">
<title>Node24</title>
<g id="a_Node000024"><a xlink:href="func__internal_8h.html" target="_top" xlink:title=" ">
<polygon fill="white" stroke="#666666" points="643.55,-316 515.55,-316 515.55,-286 643.55,-286 643.55,-316"/>
<text text-anchor="start" x="523.55" y="-304" font-family="Helvetica,sans-Serif" font-size="10.00">webcface/internal/func</text>
<text text-anchor="middle" x="579.55" y="-293" font-family="Helvetica,sans-Serif" font-size="10.00">_internal.h</text>
</a>
</g>
</g>
<!-- Node1&#45;&gt;Node24 -->
<g id="edge35_Node000001_Node000024" class="edge">
<title>Node1&#45;&gt;Node24</title>
<g id="a_edge35_Node000001_Node000024"><a xlink:title=" ">
<path fill="none" stroke="#63b8ff" d="M438.55,-351.99C462.5,-343.5 500.01,-330.2 530.32,-319.45"/>
<polygon fill="#63b8ff" stroke="#63b8ff" points="531.63,-322.7 539.88,-316.06 529.29,-316.11 531.63,-322.7"/>
</a>
</g>
</g>
<!-- Node27 -->
<g id="Node000027" class="node">
<title>Node27</title>
<g id="a_Node000027"><a xlink:href="unlock_8h.html" target="_top" xlink:title=" ">
<polygon fill="white" stroke="#666666" points="222.55,-250 74.55,-250 74.55,-231 222.55,-231 222.55,-250"/>
<text text-anchor="middle" x="148.55" y="-238" font-family="Helvetica,sans-Serif" font-size="10.00">webcface/internal/unlock.h</text>
</a>
</g>
</g>
<!-- Node1&#45;&gt;Node27 -->
<g id="edge45_Node000001_Node000027" class="edge">
<title>Node1&#45;&gt;Node27</title>
<g id="a_edge45_Node000001_Node000027"><a xlink:title=" ">
<path fill="none" stroke="#63b8ff" d="M395.42,-351.94C349.33,-331.32 231.92,-278.8 177.3,-254.36"/>
<polygon fill="#63b8ff" stroke="#63b8ff" points="178.42,-251.03 167.87,-250.14 175.57,-257.42 178.42,-251.03"/>
</a>
</g>
</g>
<!-- Node3 -->
<g id="Node000003" class="node">
<title>Node3</title>
<g id="a_Node000003"><a xlink:href="webcface-config_8h.html" target="_top" xlink:title=" ">
<polygon fill="white" stroke="#666666" points="256.05,-19 151.05,-19 151.05,0 256.05,0 256.05,-19"/>
<text text-anchor="middle" x="203.55" y="-7" font-family="Helvetica,sans-Serif" font-size="10.00">webcface&#45;config.h</text>
</a>
</g>
</g>
<!-- Node2&#45;&gt;Node3 -->
<g id="edge2_Node000002_Node000003" class="edge">
<title>Node2&#45;&gt;Node3</title>
<g id="a_edge2_Node000002_Node000003"><a xlink:title=" ">
<path fill="none" stroke="#63b8ff" d="M401.67,-175.98C375.18,-158.23 313.1,-115.51 265.55,-74 248.25,-58.9 230.08,-39.85 217.91,-26.58"/>
<polygon fill="#63b8ff" stroke="#63b8ff" points="220.49,-24.2 211.18,-19.14 215.3,-28.9 220.49,-24.2"/>
</a>
</g>
</g>
<!-- Node4 -->
<g id="Node000004" class="node">
<title>Node4</title>
<g id="a_Node000004"><a xlink:title=" ">
<polygon fill="#e0e0e0" stroke="#999999" points="654.55,-134.5 598.55,-134.5 598.55,-115.5 654.55,-115.5 654.55,-134.5"/>
<text text-anchor="middle" x="626.55" y="-122.5" font-family="Helvetica,sans-Serif" font-size="10.00">optional</text>
</a>
</g>
</g>
<!-- Node2&#45;&gt;Node4 -->
<g id="edge3_Node000002_Node000004" class="edge">
<title>Node2&#45;&gt;Node4</title>
<g id="a_edge3_Node000002_Node000004"><a xlink:title=" ">
<path fill="none" stroke="#63b8ff" d="M449.9,-175.97C484.42,-167.46 538.35,-153.73 584.55,-140 587,-139.27 589.52,-138.5 592.06,-137.7"/>
<polygon fill="#63b8ff" stroke="#63b8ff" points="593.33,-140.97 601.76,-134.56 591.17,-134.31 593.33,-140.97"/>
</a>
</g>
</g>
<!-- Node5 -->
<g id="Node000005" class="node">
<title>Node5</title>
<g id="a_Node000005"><a xlink:title=" ">
<polygon fill="#e0e0e0" stroke="#999999" points="705.55,-19 661.55,-19 661.55,0 705.55,0 705.55,-19"/>
<text text-anchor="middle" x="683.55" y="-7" font-family="Helvetica,sans-Serif" font-size="10.00">string</text>
</a>
</g>
</g>
<!-- Node2&#45;&gt;Node5 -->
<g id="edge4_Node000002_Node000005" class="edge">
<title>Node2&#45;&gt;Node5</title>
<g id="a_edge4_Node000002_Node000005"><a xlink:title=" ">
<path fill="none" stroke="#63b8ff" d="M436.06,-175.92C475.52,-159.6 561.15,-121.45 623.55,-74 641.58,-60.3 658.99,-40.98 670.37,-27.26"/>
<polygon fill="#63b8ff" stroke="#63b8ff" points="673.35,-29.14 676.92,-19.16 667.91,-24.73 673.35,-29.14"/>
</a>
</g>
</g>
<!-- Node6 -->
<g id="Node000006" class="node">
<title>Node6</title>
<g id="a_Node000006"><a xlink:title=" ">
<polygon fill="#e0e0e0" stroke="#999999" points="189.55,-134.5 143.55,-134.5 143.55,-115.5 189.55,-115.5 189.55,-134.5"/>
<text text-anchor="middle" x="166.55" y="-122.5" font-family="Helvetica,sans-Serif" font-size="10.00">future</text>
</a>
</g>
</g>
<!-- Node2&#45;&gt;Node6 -->
<g id="edge5_Node000002_Node000006" class="edge">
<title>Node2&#45;&gt;Node6</title>
<g id="a_edge5_Node000002_Node000006"><a xlink:title=" ">
<path fill="none" stroke="#63b8ff" d="M356.87,-175.99C312.87,-168.7 251.1,-156.7 198.55,-140 196.92,-139.48 195.27,-138.91 193.6,-138.3"/>
<polygon fill="#63b8ff" stroke="#63b8ff" points="194.82,-135.02 184.24,-134.52 192.21,-141.51 194.82,-135.02"/>
</a>
</g>
</g>
<!-- Node7 -->
<g id="Node000007" class="node">
<title>Node7</title>
<g id="a_Node000007"><a xlink:title=" ">
<polygon fill="#e0e0e0" stroke="#999999" points="335.55,-19 277.55,-19 277.55,0 335.55,0 335.55,-19"/>
<text text-anchor="middle" x="306.55" y="-7" font-family="Helvetica,sans-Serif" font-size="10.00">memory</text>
</a>
</g>
</g>
<!-- Node2&#45;&gt;Node7 -->
<g id="edge6_Node000002_Node000007" class="edge">
<title>Node2&#45;&gt;Node7</title>
<g id="a_edge6_Node000002_Node000007"><a xlink:title=" ">
<path fill="none" stroke="#63b8ff" d="M407.93,-175.8C401.28,-166.95 390.86,-152.76 382.55,-140 357.18,-101.02 330.26,-53.47 316.27,-28.23"/>
<polygon fill="#63b8ff" stroke="#63b8ff" points="319.16,-26.22 311.26,-19.15 313.03,-29.6 319.16,-26.22"/>
</a>
</g>
</g>
<!-- Node8 -->
<g id="Node000008" class="node">
<title>Node8</title>
<g id="a_Node000008"><a xlink:title=" ">
<polygon fill="#e0e0e0" stroke="#999999" points="273.05,-134.5 208.05,-134.5 208.05,-115.5 273.05,-115.5 273.05,-134.5"/>
<text text-anchor="middle" x="240.55" y="-122.5" font-family="Helvetica,sans-Serif" font-size="10.00">stdexcept</text>
</a>
</g>
</g>
<!-- Node2&#45;&gt;Node8 -->
<g id="edge7_Node000002_Node000008" class="edge">
<title>Node2&#45;&gt;Node8</title>
<g id="a_edge7_Node000002_Node000008"><a xlink:title=" ">
<path fill="none" stroke="#63b8ff" d="M389.25,-175.99C359.36,-165.94 309.43,-149.16 275.77,-137.84"/>
<polygon fill="#63b8ff" stroke="#63b8ff" points="276.48,-134.39 265.88,-134.52 274.25,-141.02 276.48,-134.39"/>
</a>
</g>
</g>
<!-- Node9 -->
<g id="Node000009" class="node">
<title>Node9</title>
<g id="a_Node000009"><a xlink:href="field_8h.html" target="_top" xlink:title=" ">
<polygon fill="white" stroke="#666666" points="438.05,-134.5 391.05,-134.5 391.05,-115.5 438.05,-115.5 438.05,-134.5"/>
<text text-anchor="middle" x="414.55" y="-122.5" font-family="Helvetica,sans-Serif" font-size="10.00">field.h</text>
</a>
</g>
</g>
<!-- Node2&#45;&gt;Node9 -->
<g id="edge8_Node000002_Node000009" class="edge">
<title>Node2&#45;&gt;Node9</title>
<g id="a_edge8_Node000002_Node000009"><a xlink:title=" ">
<path fill="none" stroke="#63b8ff" d="M414.55,-175.87C414.55,-167.75 414.55,-155.31 414.55,-144.89"/>
<polygon fill="#63b8ff" stroke="#63b8ff" points="418.05,-144.67 414.55,-134.67 411.05,-144.67 418.05,-144.67"/>
</a>
</g>
</g>
<!-- Node16 -->
<g id="Node000016" class="node">
<title>Node16</title>
<g id="a_Node000016"><a xlink:href="encoding_2include_2webcface_2encoding_2val__adaptor_8h.html" target="_top" xlink:title=" ">
<polygon fill="white" stroke="#666666" points="838.55,-140 710.55,-140 710.55,-110 838.55,-110 838.55,-140"/>
<text text-anchor="start" x="718.55" y="-128" font-family="Helvetica,sans-Serif" font-size="10.00">webcface/encoding/val</text>
<text text-anchor="middle" x="774.55" y="-117" font-family="Helvetica,sans-Serif" font-size="10.00">_adaptor.h</text>
</a>
</g>
</g>
<!-- Node2&#45;&gt;Node16 -->
<g id="edge22_Node000002_Node000016" class="edge">
<title>Node2&#45;&gt;Node16</title>
<g id="a_edge22_Node000002_Node000016"><a xlink:title=" ">
<path fill="none" stroke="#63b8ff" d="M466.9,-175.99C528.33,-166.01 630.63,-149.39 700.25,-138.07"/>
<polygon fill="#63b8ff" stroke="#63b8ff" points="700.97,-141.5 710.28,-136.44 699.85,-134.59 700.97,-141.5"/>
</a>
</g>
</g>
<!-- Node21 -->
<g id="Node000021" class="node">
<title>Node21</title>
<g id="a_Node000021"><a xlink:href="def__types_8h.html" target="_top" xlink:title=" ">
<polygon fill="white" stroke="#666666" points="125.05,-140 12.05,-140 12.05,-110 125.05,-110 125.05,-140"/>
<text text-anchor="start" x="20.05" y="-128" font-family="Helvetica,sans-Serif" font-size="10.00">webcface/c_wcf/def</text>
<text text-anchor="middle" x="68.55" y="-117" font-family="Helvetica,sans-Serif" font-size="10.00">_types.h</text>
</a>
</g>
</g>
<!-- Node2&#45;&gt;Node21 -->
<g id="edge31_Node000002_Node000021" class="edge">
<title>Node2&#45;&gt;Node21</title>
<g id="a_edge31_Node000002_Node000021"><a xlink:title=" ">
<path fill="none" stroke="#63b8ff" d="M355.14,-175.96C300.57,-167.92 217.24,-155.11 135.37,-140.09"/>
<polygon fill="#63b8ff" stroke="#63b8ff" points="135.87,-136.63 125.4,-138.25 134.6,-143.51 135.87,-136.63"/>
</a>
</g>
</g>
<!-- Node9&#45;&gt;Node3 -->
<g id="edge13_Node000009_Node000003" class="edge">
<title>Node9&#45;&gt;Node3</title>
<g id="a_edge13_Node000009_Node000003"><a xlink:title=" ">
<path fill="none" stroke="#63b8ff" d="M392.18,-115.47C368.81,-106.27 331.34,-90.68 300.55,-74 272.9,-59.02 242.87,-38.67 223.66,-25.09"/>
<polygon fill="#63b8ff" stroke="#63b8ff" points="225.58,-22.15 215.4,-19.19 221.51,-27.85 225.58,-22.15"/>
</a>
</g>
</g>
<!-- Node9&#45;&gt;Node5 -->
<g id="edge10_Node000009_Node000005" class="edge">
<title>Node9&#45;&gt;Node5</title>
<g id="a_edge10_Node000009_Node000005"><a xlink:title=" ">
<path fill="none" stroke="#63b8ff" d="M438.21,-120.15C473.53,-113.81 541.57,-99.29 594.55,-74 621.39,-61.19 648.72,-40.27 665.88,-25.97"/>
<polygon fill="#63b8ff" stroke="#63b8ff" points="668.52,-28.32 673.87,-19.17 663.99,-22.99 668.52,-28.32"/>
</a>
</g>
</g>
<!-- Node9&#45;&gt;Node7 -->
<g id="edge9_Node000009_Node000007" class="edge">
<title>Node9&#45;&gt;Node7</title>
<g id="a_edge9_Node000009_Node000007"><a xlink:title=" ">
<path fill="none" stroke="#63b8ff" d="M406.44,-115.47C388.45,-96.57 345.02,-50.93 321.8,-26.52"/>
<polygon fill="#63b8ff" stroke="#63b8ff" points="324.19,-23.96 314.76,-19.13 319.12,-28.79 324.19,-23.96"/>
</a>
</g>
</g>
<!-- Node10 -->
<g id="Node000010" class="node">
<title>Node10</title>
<g id="a_Node000010"><a xlink:title=" ">
<polygon fill="#e0e0e0" stroke="#999999" points="427.05,-19 354.05,-19 354.05,0 427.05,0 427.05,-19"/>
<text text-anchor="middle" x="390.55" y="-7" font-family="Helvetica,sans-Serif" font-size="10.00">string_view</text>
</a>
</g>
</g>
<!-- Node9&#45;&gt;Node10 -->
<g id="edge11_Node000009_Node000010" class="edge">
<title>Node9&#45;&gt;Node10</title>
<g id="a_edge11_Node000009_Node000010"><a xlink:title=" ">
<path fill="none" stroke="#63b8ff" d="M412.75,-115.47C408.89,-97.23 399.77,-54.07 394.5,-29.14"/>
<polygon fill="#63b8ff" stroke="#63b8ff" points="397.87,-28.19 392.38,-19.13 391.02,-29.64 397.87,-28.19"/>
</a>
</g>
</g>
<!-- Node11 -->
<g id="Node000011" class="node">
<title>Node11</title>
<g id="a_Node000011"><a xlink:title=" ">
<polygon fill="#e0e0e0" stroke="#999999" points="726.05,-74 679.05,-74 679.05,-55 726.05,-55 726.05,-74"/>
<text text-anchor="middle" x="702.55" y="-62" font-family="Helvetica,sans-Serif" font-size="10.00">vector</text>
</a>
</g>
</g>
<!-- Node9&#45;&gt;Node11 -->
<g id="edge12_Node000009_Node000011" class="edge">
<title>Node9&#45;&gt;Node11</title>
<g id="a_edge12_Node000009_Node000011"><a xlink:title=" ">
<path fill="none" stroke="#63b8ff" d="M438.12,-119.21C489.07,-108.86 609.61,-84.38 668.71,-72.37"/>
<polygon fill="#63b8ff" stroke="#63b8ff" points="669.56,-75.77 678.66,-70.35 668.16,-68.91 669.56,-75.77"/>
</a>
</g>
</g>
<!-- Node12 -->
<g id="Node000012" class="node">
<title>Node12</title>
<g id="a_Node000012"><a xlink:href="encoding_8h.html" target="_top" xlink:title=" ">
<polygon fill="white" stroke="#666666" points="585.05,-74 418.05,-74 418.05,-55 585.05,-55 585.05,-74"/>
<text text-anchor="middle" x="501.55" y="-62" font-family="Helvetica,sans-Serif" font-size="10.00">webcface/encoding/encoding.h</text>
</a>
</g>
</g>
<!-- Node9&#45;&gt;Node12 -->
<g id="edge14_Node000009_Node000012" class="edge">
<title>Node9&#45;&gt;Node12</title>
<g id="a_edge14_Node000009_Node000012"><a xlink:title=" ">
<path fill="none" stroke="#63b8ff" d="M427.39,-115.37C441.27,-106.04 463.62,-91.01 480.16,-79.88"/>
<polygon fill="#63b8ff" stroke="#63b8ff" points="482.32,-82.65 488.66,-74.17 478.41,-76.84 482.32,-82.65"/>
</a>
</g>
</g>
<!-- Node12&#45;&gt;Node3 -->
<g id="edge21_Node000012_Node000003" class="edge">
<title>Node12&#45;&gt;Node3</title>
<g id="a_edge21_Node000012_Node000003"><a xlink:title=" ">
<path fill="none" stroke="#63b8ff" d="M453.67,-54.98C401.48,-45.7 317.93,-30.84 261.93,-20.88"/>
<polygon fill="#63b8ff" stroke="#63b8ff" points="262.27,-17.39 251.81,-19.08 261.04,-24.28 262.27,-17.39"/>
</a>
</g>
</g>
<!-- Node12&#45;&gt;Node5 -->
<g id="edge15_Node000012_Node000005" class="edge">
<title>Node12&#45;&gt;Node5</title>
<g id="a_edge15_Node000012_Node000005"><a xlink:title=" ">
<path fill="none" stroke="#63b8ff" d="M530.79,-54.98C563.85,-45.36 617.49,-29.74 651.62,-19.8"/>
<polygon fill="#63b8ff" stroke="#63b8ff" points="652.92,-23.07 661.54,-16.91 650.96,-16.35 652.92,-23.07"/>
</a>
</g>
</g>
<!-- Node12&#45;&gt;Node7 -->
<g id="edge17_Node000012_Node000007" class="edge">
<title>Node12&#45;&gt;Node7</title>
<g id="a_edge17_Node000012_Node000007"><a xlink:title=" ">
<path fill="none" stroke="#63b8ff" d="M470.22,-54.98C436.27,-45.76 382.05,-31.02 345.41,-21.06"/>
<polygon fill="#63b8ff" stroke="#63b8ff" points="346.14,-17.63 335.58,-18.39 344.31,-24.39 346.14,-17.63"/>
</a>
</g>
</g>
<!-- Node12&#45;&gt;Node10 -->
<g id="edge16_Node000012_Node000010" class="edge">
<title>Node12&#45;&gt;Node10</title>
<g id="a_edge16_Node000012_Node000010"><a xlink:title=" ">
<path fill="none" stroke="#63b8ff" d="M483.72,-54.98C465.94,-46.5 438.41,-33.35 417.87,-23.54"/>
<polygon fill="#63b8ff" stroke="#63b8ff" points="419.24,-20.32 408.71,-19.17 416.23,-26.64 419.24,-20.32"/>
</a>
</g>
</g>
<!-- Node13 -->
<g id="Node000013" class="node">
<title>Node13</title>
<g id="a_Node000013"><a xlink:title=" ">
<polygon fill="#e0e0e0" stroke="#999999" points="930.55,-19 882.55,-19 882.55,0 930.55,0 930.55,-19"/>
<text text-anchor="middle" x="906.55" y="-7" font-family="Helvetica,sans-Serif" font-size="10.00">mutex</text>
</a>
</g>
</g>
<!-- Node12&#45;&gt;Node13 -->
<g id="edge18_Node000012_Node000013" class="edge">
<title>Node12&#45;&gt;Node13</title>
<g id="a_edge18_Node000012_Node000013"><a xlink:title=" ">
<path fill="none" stroke="#63b8ff" d="M566.62,-54.98C653.64,-43.6 804.78,-23.82 872.28,-14.99"/>
<polygon fill="#63b8ff" stroke="#63b8ff" points="872.91,-18.43 882.37,-13.66 872,-11.49 872.91,-18.43"/>
</a>
</g>
</g>
<!-- Node14 -->
<g id="Node000014" class="node">
<title>Node14</title>
<g id="a_Node000014"><a xlink:title=" ">
<polygon fill="#e0e0e0" stroke="#999999" points="643.05,-19 550.05,-19 550.05,0 643.05,0 643.05,-19"/>
<text text-anchor="middle" x="596.55" y="-7" font-family="Helvetica,sans-Serif" font-size="10.00">unordered_map</text>
</a>
</g>
</g>
<!-- Node12&#45;&gt;Node14 -->
<g id="edge19_Node000012_Node000014" class="edge">
<title>Node12&#45;&gt;Node14</title>
<g id="a_edge19_Node000012_Node000014"><a xlink:title=" ">
<path fill="none" stroke="#63b8ff" d="M516.82,-54.98C531.69,-46.69 554.54,-33.94 571.97,-24.22"/>
<polygon fill="#63b8ff" stroke="#63b8ff" points="573.98,-27.1 581.01,-19.17 570.57,-20.99 573.98,-27.1"/>
</a>
</g>
</g>
<!-- Node15 -->
<g id="Node000015" class="node">
<title>Node15</title>
<g id="a_Node000015"><a xlink:title=" ">
<polygon fill="#e0e0e0" stroke="#999999" points="531.55,-19 445.55,-19 445.55,0 531.55,0 531.55,-19"/>
<text text-anchor="middle" x="488.55" y="-7" font-family="Helvetica,sans-Serif" font-size="10.00">unordered_set</text>
</a>
</g>
</g>
<!-- Node12&#45;&gt;Node15 -->
<g id="edge20_Node000012_Node000015" class="edge">
<title>Node12&#45;&gt;Node15</title>
<g id="a_edge20_Node000012_Node000015"><a xlink:title=" ">
<path fill="none" stroke="#63b8ff" d="M499.41,-54.75C497.68,-47.72 495.21,-37.62 493.05,-28.84"/>
<polygon fill="#63b8ff" stroke="#63b8ff" points="496.44,-27.97 490.66,-19.09 489.64,-29.63 496.44,-27.97"/>
</a>
</g>
</g>
<!-- Node16&#45;&gt;Node3 -->
<g id="edge30_Node000016_Node000003" class="edge">
<title>Node16&#45;&gt;Node3</title>
<g id="a_edge30_Node000016_Node000003"><a xlink:title=" ">
<path fill="none" stroke="#63b8ff" d="M710.2,-115.76C613.32,-103.28 438.2,-80.33 409.55,-74 347.4,-60.26 276.9,-36.75 236.58,-22.51"/>
<polygon fill="#63b8ff" stroke="#63b8ff" points="237.6,-19.16 227.01,-19.11 235.26,-25.75 237.6,-19.16"/>
</a>
</g>
</g>
<!-- Node16&#45;&gt;Node5 -->
<g id="edge23_Node000016_Node000005" class="edge">
<title>Node16&#45;&gt;Node5</title>
<g id="a_edge23_Node000016_Node000005"><a xlink:title=" ">
<path fill="none" stroke="#63b8ff" d="M768.37,-109.88C761.57,-95.27 749.72,-72.21 735.55,-55 726.35,-43.82 714.12,-33.2 703.84,-25.14"/>
<polygon fill="#63b8ff" stroke="#63b8ff" points="705.85,-22.27 695.77,-19.01 701.62,-27.85 705.85,-22.27"/>
</a>
</g>
</g>
<!-- Node16&#45;&gt;Node11 -->
<g id="edge24_Node000016_Node000011" class="edge">
<title>Node16&#45;&gt;Node11</title>
<g id="a_edge24_Node000016_Node000011"><a xlink:title=" ">
<path fill="none" stroke="#63b8ff" d="M757.12,-109.84C746.25,-101 732.25,-89.63 721.16,-80.62"/>
<polygon fill="#63b8ff" stroke="#63b8ff" points="723.31,-77.86 713.34,-74.27 718.9,-83.29 723.31,-77.86"/>
</a>
</g>
</g>
<!-- Node16&#45;&gt;Node12 -->
<g id="edge29_Node000016_Node000012" class="edge">
<title>Node16&#45;&gt;Node12</title>
<g id="a_edge29_Node000016_Node000012"><a xlink:title=" ">
<path fill="none" stroke="#63b8ff" d="M710.55,-110.28C662,-99.88 596.23,-85.79 551.53,-76.21"/>
<polygon fill="#63b8ff" stroke="#63b8ff" points="551.99,-72.73 541.48,-74.06 550.53,-79.57 551.99,-72.73"/>
</a>
</g>
</g>
<!-- Node17 -->
<g id="Node000017" class="node">
<title>Node17</title>
<g id="a_Node000017"><a xlink:title=" ">
<polygon fill="#e0e0e0" stroke="#999999" points="824.05,-74 783.05,-74 783.05,-55 824.05,-55 824.05,-74"/>
<text text-anchor="middle" x="803.55" y="-62" font-family="Helvetica,sans-Serif" font-size="10.00">tuple</text>
</a>
</g>
</g>
<!-- Node16&#45;&gt;Node17 -->
<g id="edge25_Node000016_Node000017" class="edge">
<title>Node16&#45;&gt;Node17</title>
<g id="a_edge25_Node000016_Node000017"><a xlink:title=" ">
<path fill="none" stroke="#63b8ff" d="M781.57,-109.84C785.52,-101.87 790.5,-91.84 794.71,-83.33"/>
<polygon fill="#63b8ff" stroke="#63b8ff" points="797.9,-84.78 799.21,-74.27 791.63,-81.67 797.9,-84.78"/>
</a>
</g>
</g>
<!-- Node18 -->
<g id="Node000018" class="node">
<title>Node18</title>
<g id="a_Node000018"><a xlink:title=" ">
<polygon fill="#e0e0e0" stroke="#999999" points="892.55,-74 842.55,-74 842.55,-55 892.55,-55 892.55,-74"/>
<text text-anchor="middle" x="867.55" y="-62" font-family="Helvetica,sans-Serif" font-size="10.00">cstdint</text>
</a>
</g>
</g>
<!-- Node16&#45;&gt;Node18 -->
<g id="edge26_Node000016_Node000018" class="edge">
<title>Node16&#45;&gt;Node18</title>
<g id="a_edge26_Node000016_Node000018"><a xlink:title=" ">
<path fill="none" stroke="#63b8ff" d="M797.07,-109.84C811.62,-100.68 830.49,-88.82 845.04,-79.66"/>
<polygon fill="#63b8ff" stroke="#63b8ff" points="847.29,-82.38 853.89,-74.09 843.56,-76.46 847.29,-82.38"/>
</a>
</g>
</g>
<!-- Node19 -->
<g id="Node000019" class="node">
<title>Node19</title>
<g id="a_Node000019"><a xlink:title=" ">
<polygon fill="#e0e0e0" stroke="#999999" points="968.05,-74 911.05,-74 911.05,-55 968.05,-55 968.05,-74"/>
<text text-anchor="middle" x="939.55" y="-62" font-family="Helvetica,sans-Serif" font-size="10.00">ostream</text>
</a>
</g>
</g>
<!-- Node16&#45;&gt;Node19 -->
<g id="edge27_Node000016_Node000019" class="edge">
<title>Node16&#45;&gt;Node19</title>
<g id="a_edge27_Node000016_Node000019"><a xlink:title=" ">
<path fill="none" stroke="#63b8ff" d="M814.07,-109.99C841.97,-100.1 878.97,-86.98 905.55,-77.56"/>
<polygon fill="#63b8ff" stroke="#63b8ff" points="906.93,-80.78 915.19,-74.14 904.59,-74.18 906.93,-80.78"/>
</a>
</g>
</g>
<!-- Node20 -->
<g id="Node000020" class="node">
<title>Node20</title>
<g id="a_Node000020"><a xlink:title=" ">
<polygon fill="#e0e0e0" stroke="#999999" points="1037.05,-74 986.05,-74 986.05,-55 1037.05,-55 1037.05,-74"/>
<text text-anchor="middle" x="1011.55" y="-62" font-family="Helvetica,sans-Serif" font-size="10.00">variant</text>
</a>
</g>
</g>
<!-- Node16&#45;&gt;Node20 -->
<g id="edge28_Node000016_Node000020" class="edge">
<title>Node16&#45;&gt;Node20</title>
<g id="a_edge28_Node000016_Node000020"><a xlink:title=" ">
<path fill="none" stroke="#63b8ff" d="M831.88,-109.94C870.24,-100.51 922.13,-87.74 976.18,-74.34"/>
<polygon fill="#63b8ff" stroke="#63b8ff" points="977.07,-77.72 985.94,-71.91 975.39,-70.93 977.07,-77.72"/>
</a>
</g>
</g>
<!-- Node21&#45;&gt;Node3 -->
<g id="edge32_Node000021_Node000003" class="edge">
<title>Node21&#45;&gt;Node3</title>
<g id="a_edge32_Node000021_Node000003"><a xlink:title=" ">
<path fill="none" stroke="#63b8ff" d="M55.75,-109.87C43.91,-95.04 29.92,-71.6 42.55,-55 54.74,-38.99 101,-27.26 140.83,-19.88"/>
<polygon fill="#63b8ff" stroke="#63b8ff" points="141.57,-23.3 150.79,-18.1 140.33,-16.41 141.57,-23.3"/>
</a>
</g>
</g>
<!-- Node22 -->
<g id="Node000022" class="node">
<title>Node22</title>
<g id="a_Node000022"><a xlink:title=" ">
<polygon fill="#e0e0e0" stroke="#999999" points="105.55,-74 51.55,-74 51.55,-55 105.55,-55 105.55,-74"/>
<text text-anchor="middle" x="78.55" y="-62" font-family="Helvetica,sans-Serif" font-size="10.00">wchar.h</text>
</a>
</g>
</g>
<!-- Node21&#45;&gt;Node22 -->
<g id="edge33_Node000021_Node000022" class="edge">
<title>Node21&#45;&gt;Node22</title>
<g id="a_edge33_Node000021_Node000022"><a xlink:title=" ">
<path fill="none" stroke="#63b8ff" d="M70.97,-109.84C72.29,-102.13 73.94,-92.49 75.36,-84.17"/>
<polygon fill="#63b8ff" stroke="#63b8ff" points="78.82,-84.71 77.05,-74.27 71.92,-83.53 78.82,-84.71"/>
</a>
</g>
</g>
<!-- Node23 -->
<g id="Node000023" class="node">
<title>Node23</title>
<g id="a_Node000023"><a xlink:title=" ">
<polygon fill="#e0e0e0" stroke="#999999" points="171.05,-74 124.05,-74 124.05,-55 171.05,-55 171.05,-74"/>
<text text-anchor="middle" x="147.55" y="-62" font-family="Helvetica,sans-Serif" font-size="10.00">float.h</text>
</a>
</g>
</g>
<!-- Node21&#45;&gt;Node23 -->
<g id="edge34_Node000021_Node000023" class="edge">
<title>Node21&#45;&gt;Node23</title>
<g id="a_edge34_Node000021_Node000023"><a xlink:title=" ">
<path fill="none" stroke="#63b8ff" d="M87.68,-109.84C99.73,-100.91 115.27,-89.41 127.49,-80.35"/>
<polygon fill="#63b8ff" stroke="#63b8ff" points="129.76,-83.03 135.72,-74.27 125.6,-77.4 129.76,-83.03"/>
</a>
</g>
</g>
<!-- Node24&#45;&gt;Node2 -->
<g id="edge37_Node000024_Node000002" class="edge">
<title>Node24&#45;&gt;Node2</title>
<g id="a_edge37_Node000024_Node000002"><a xlink:title=" ">
<path fill="none" stroke="#63b8ff" d="M558.99,-285.85C527.54,-264.22 467.79,-223.12 435.88,-201.17"/>
<polygon fill="#63b8ff" stroke="#63b8ff" points="437.53,-198.05 427.3,-195.27 433.56,-203.82 437.53,-198.05"/>
</a>
</g>
</g>
<!-- Node24&#45;&gt;Node13 -->
<g id="edge36_Node000024_Node000013" class="edge">
<title>Node24&#45;&gt;Node13</title>
<g id="a_edge36_Node000024_Node000013"><a xlink:title=" ">
<path fill="none" stroke="#63b8ff" d="M643.59,-298.35C775.56,-293.21 1065.55,-272.17 1065.55,-186.5 1065.55,-186.5 1065.55,-186.5 1065.55,-124 1065.55,-92.19 1068.6,-77.93 1046.55,-55 1018.84,-26.18 972.56,-15.97 940.85,-12.38"/>
<polygon fill="#63b8ff" stroke="#63b8ff" points="941,-8.88 930.71,-11.41 940.32,-15.85 941,-8.88"/>
</a>
</g>
</g>
<!-- Node25 -->
<g id="Node000025" class="node">
<title>Node25</title>
<g id="a_Node000025"><a xlink:href="func_8h.html" target="_top" xlink:title=" ">
<polygon fill="white" stroke="#666666" points="671.55,-250 575.55,-250 575.55,-231 671.55,-231 671.55,-250"/>
<text text-anchor="middle" x="623.55" y="-238" font-family="Helvetica,sans-Serif" font-size="10.00">webcface/func.h</text>
</a>
</g>
</g>
<!-- Node24&#45;&gt;Node25 -->
<g id="edge38_Node000024_Node000025" class="edge">
<title>Node24&#45;&gt;Node25</title>
<g id="a_edge38_Node000024_Node000025"><a xlink:title=" ">
<path fill="none" stroke="#63b8ff" d="M590.2,-285.84C596.4,-277.61 604.24,-267.18 610.76,-258.51"/>
<polygon fill="#63b8ff" stroke="#63b8ff" points="613.75,-260.36 616.96,-250.27 608.15,-256.15 613.75,-260.36"/>
</a>
</g>
</g>
<!-- Node25&#45;&gt;Node2 -->
<g id="edge40_Node000025_Node000002" class="edge">
<title>Node25&#45;&gt;Node2</title>
<g id="a_edge40_Node000025_Node000002"><a xlink:title=" ">
<path fill="none" stroke="#63b8ff" d="M589.97,-230.98C554.2,-221.91 497.44,-207.52 458.21,-197.57"/>
<polygon fill="#63b8ff" stroke="#63b8ff" points="458.95,-194.15 448.4,-195.08 457.23,-200.93 458.95,-194.15"/>
</a>
</g>
</g>
<!-- Node25&#45;&gt;Node16 -->
<g id="edge39_Node000025_Node000016" class="edge">
<title>Node25&#45;&gt;Node16</title>
<g id="a_edge39_Node000025_Node000016"><a xlink:title=" ">
<path fill="none" stroke="#63b8ff" d="M634.9,-230.97C658.58,-213.17 713.8,-171.67 747.27,-146.51"/>
<polygon fill="#63b8ff" stroke="#63b8ff" points="749.8,-148.99 755.69,-140.18 745.59,-143.39 749.8,-148.99"/>
</a>
</g>
</g>
<!-- Node26 -->
<g id="Node000026" class="node">
<title>Node26</title>
<g id="a_Node000026"><a xlink:href="arg_8h.html" target="_top" xlink:title=" ">
<polygon fill="white" stroke="#666666" points="672.05,-195 631.05,-195 631.05,-176 672.05,-176 672.05,-195"/>
<text text-anchor="middle" x="651.55" y="-183" font-family="Helvetica,sans-Serif" font-size="10.00">arg.h</text>
</a>
</g>
</g>
<!-- Node25&#45;&gt;Node26 -->
<g id="edge41_Node000025_Node000026" class="edge">
<title>Node25&#45;&gt;Node26</title>
<g id="a_edge41_Node000025_Node000026"><a xlink:title=" ">
<path fill="none" stroke="#63b8ff" d="M628.18,-230.75C632.01,-223.49 637.58,-212.95 642.32,-203.98"/>
<polygon fill="#63b8ff" stroke="#63b8ff" points="645.44,-205.57 647.02,-195.09 639.25,-202.3 645.44,-205.57"/>
</a>
</g>
</g>
<!-- Node26&#45;&gt;Node4 -->
<g id="edge43_Node000026_Node000004" class="edge">
<title>Node26&#45;&gt;Node4</title>
<g id="a_edge43_Node000026_Node000004"><a xlink:title=" ">
<path fill="none" stroke="#63b8ff" d="M647.86,-175.87C644.28,-167.49 638.74,-154.51 634.2,-143.89"/>
<polygon fill="#63b8ff" stroke="#63b8ff" points="637.41,-142.49 630.26,-134.67 630.97,-145.24 637.41,-142.49"/>
</a>
</g>
</g>
<!-- Node26&#45;&gt;Node11 -->
<g id="edge42_Node000026_Node000011" class="edge">
<title>Node26&#45;&gt;Node11</title>
<g id="a_edge42_Node000026_Node000011"><a xlink:title=" ">
<path fill="none" stroke="#63b8ff" d="M655.22,-175.94C663.45,-156.74 683.54,-109.86 694.72,-83.77"/>
<polygon fill="#63b8ff" stroke="#63b8ff" points="698.06,-84.87 698.78,-74.3 691.62,-82.11 698.06,-84.87"/>
</a>
</g>
</g>
<!-- Node26&#45;&gt;Node16 -->
<g id="edge44_Node000026_Node000016" class="edge">
<title>Node26&#45;&gt;Node16</title>
<g id="a_edge44_Node000026_Node000016"><a xlink:title=" ">
<path fill="none" stroke="#63b8ff" d="M669.44,-175.99C686.69,-167.79 713.39,-155.09 735.56,-144.55"/>
<polygon fill="#63b8ff" stroke="#63b8ff" points="737.22,-147.63 744.74,-140.18 734.21,-141.31 737.22,-147.63"/>
</a>
</g>
</g>
<!-- Node27&#45;&gt;Node3 -->
<g id="edge46_Node000027_Node000003" class="edge">
<title>Node27&#45;&gt;Node3</title>
<g id="a_edge46_Node000027_Node000003"><a xlink:title=" ">
<path fill="none" stroke="#63b8ff" d="M122.2,-230.91C75.74,-214.03 -14.34,-172.64 2.55,-110 9.92,-82.7 12.05,-72.13 34.55,-55 65.09,-31.75 106.72,-20.61 141.02,-15.29"/>
<polygon fill="#63b8ff" stroke="#63b8ff" points="141.54,-18.75 150.95,-13.88 140.55,-11.82 141.54,-18.75"/>
</a>
</g>
</g>
</g>
</svg>
