<?xml version="1.0" encoding="UTF-8" standalone="no"?>
<!DOCTYPE svg PUBLIC "-//W3C//DTD SVG 1.1//EN"
 "http://www.w3.org/Graphics/SVG/1.1/DTD/svg11.dtd">
<!-- Generated by graphviz version 2.43.0 (0)
 -->
<!-- Title: /home/runner/work/webcface/webcface/client/src/image_frame.cc Pages: 1 -->
<svg width="1339pt" height="357pt"
 viewBox="0.00 0.00 1338.82 357.00" xmlns="http://www.w3.org/2000/svg" xmlns:xlink="http://www.w3.org/1999/xlink">
<g id="graph0" class="graph" transform="scale(1 1) rotate(0) translate(4 353)">
<title>/home/runner/work/webcface/webcface/client/src/image_frame.cc</title>
<!-- Node1 -->
<g id="Node000001" class="node">
<title>Node1</title>
<g id="a_Node000001"><a xlink:title=" ">
<polygon fill="#999999" stroke="#666666" points="434.5,-349 276.5,-349 276.5,-308 434.5,-308 434.5,-349"/>
<text text-anchor="start" x="284.5" y="-337" font-family="Helvetica,sans-Serif" font-size="10.00">/home/runner/work/webcface</text>
<text text-anchor="start" x="284.5" y="-326" font-family="Helvetica,sans-Serif" font-size="10.00">/webcface/client/src/image</text>
<text text-anchor="middle" x="355.5" y="-315" font-family="Helvetica,sans-Serif" font-size="10.00">_frame.cc</text>
</a>
</g>
</g>
<!-- Node2 -->
<g id="Node000002" class="node">
<title>Node2</title>
<g id="a_Node000002"><a xlink:href="image__frame_8h.html" target="_top" xlink:title=" ">
<polygon fill="white" stroke="#666666" points="263.5,-145.5 123.5,-145.5 123.5,-126.5 263.5,-126.5 263.5,-145.5"/>
<text text-anchor="middle" x="193.5" y="-133.5" font-family="Helvetica,sans-Serif" font-size="10.00">webcface/image_frame.h</text>
</a>
</g>
</g>
<!-- Node1&#45;&gt;Node2 -->
<g id="edge1_Node000001_Node000002" class="edge">
<title>Node1&#45;&gt;Node2</title>
<g id="a_edge1_Node000001_Node000002"><a xlink:title=" ">
<path fill="none" stroke="#63b8ff" d="M338.77,-307.83C306.73,-270.15 237.22,-188.41 207.47,-153.43"/>
<polygon fill="#63b8ff" stroke="#63b8ff" points="209.95,-150.95 200.81,-145.6 204.62,-155.48 209.95,-150.95"/>
</a>
</g>
</g>
<!-- Node9 -->
<g id="Node000009" class="node">
<title>Node9</title>
<g id="a_Node000009"><a xlink:href="message_8h.html" target="_top" xlink:title=" ">
<polygon fill="white" stroke="#666666" points="686,-272 519,-272 519,-253 686,-253 686,-272"/>
<text text-anchor="middle" x="602.5" y="-260" font-family="Helvetica,sans-Serif" font-size="10.00">webcface/message/message.h</text>
</a>
</g>
</g>
<!-- Node1&#45;&gt;Node9 -->
<g id="edge9_Node000001_Node000009" class="edge">
<title>Node1&#45;&gt;Node9</title>
<g id="a_edge9_Node000001_Node000009"><a xlink:title=" ">
<path fill="none" stroke="#63b8ff" d="M430.95,-307.95C473.17,-297.01 524.28,-283.77 559.67,-274.6"/>
<polygon fill="#63b8ff" stroke="#63b8ff" points="560.86,-277.9 569.66,-272.01 559.11,-271.13 560.86,-277.9"/>
</a>
</g>
</g>
<!-- Node3 -->
<g id="Node000003" class="node">
<title>Node3</title>
<g id="a_Node000003"><a xlink:title=" ">
<polygon fill="#e0e0e0" stroke="#999999" points="165.5,-79.5 109.5,-79.5 109.5,-60.5 165.5,-60.5 165.5,-79.5"/>
<text text-anchor="middle" x="137.5" y="-67.5" font-family="Helvetica,sans-Serif" font-size="10.00">optional</text>
</a>
</g>
</g>
<!-- Node2&#45;&gt;Node3 -->
<g id="edge2_Node000002_Node000003" class="edge">
<title>Node2&#45;&gt;Node3</title>
<g id="a_edge2_Node000002_Node000003"><a xlink:title=" ">
<path fill="none" stroke="#63b8ff" d="M185.95,-126.37C177.31,-116.5 162.97,-100.11 152.13,-87.72"/>
<polygon fill="#63b8ff" stroke="#63b8ff" points="154.51,-85.13 145.29,-79.91 149.24,-89.74 154.51,-85.13"/>
</a>
</g>
</g>
<!-- Node4 -->
<g id="Node000004" class="node">
<title>Node4</title>
<g id="a_Node000004"><a xlink:title=" ">
<polygon fill="#e0e0e0" stroke="#999999" points="431,-79.5 384,-79.5 384,-60.5 431,-60.5 431,-79.5"/>
<text text-anchor="middle" x="407.5" y="-67.5" font-family="Helvetica,sans-Serif" font-size="10.00">vector</text>
</a>
</g>
</g>
<!-- Node2&#45;&gt;Node4 -->
<g id="edge3_Node000002_Node000004" class="edge">
<title>Node2&#45;&gt;Node4</title>
<g id="a_edge3_Node000002_Node000004"><a xlink:title=" ">
<path fill="none" stroke="#63b8ff" d="M229.99,-126.42C266.86,-117.41 325.25,-102.17 374.5,-85 375.93,-84.5 377.39,-83.97 378.86,-83.42"/>
<polygon fill="#63b8ff" stroke="#63b8ff" points="380.48,-86.54 388.47,-79.58 377.89,-80.04 380.48,-86.54"/>
</a>
</g>
</g>
<!-- Node5 -->
<g id="Node000005" class="node">
<title>Node5</title>
<g id="a_Node000005"><a xlink:title=" ">
<polygon fill="#e0e0e0" stroke="#999999" points="311.5,-19 253.5,-19 253.5,0 311.5,0 311.5,-19"/>
<text text-anchor="middle" x="282.5" y="-7" font-family="Helvetica,sans-Serif" font-size="10.00">memory</text>
</a>
</g>
</g>
<!-- Node2&#45;&gt;Node5 -->
<g id="edge4_Node000002_Node000005" class="edge">
<title>Node2&#45;&gt;Node5</title>
<g id="a_edge4_Node000002_Node000005"><a xlink:title=" ">
<path fill="none" stroke="#63b8ff" d="M168.68,-126.45C133.67,-113.06 76.57,-85.49 100.5,-55 117.9,-32.83 195.14,-20.28 243.23,-14.49"/>
<polygon fill="#63b8ff" stroke="#63b8ff" points="243.78,-17.95 253.31,-13.32 242.97,-11 243.78,-17.95"/>
</a>
</g>
</g>
<!-- Node6 -->
<g id="Node000006" class="node">
<title>Node6</title>
<g id="a_Node000006"><a xlink:title=" ">
<polygon fill="#e0e0e0" stroke="#999999" points="53,-79.5 0,-79.5 0,-60.5 53,-60.5 53,-79.5"/>
<text text-anchor="middle" x="26.5" y="-67.5" font-family="Helvetica,sans-Serif" font-size="10.00">cstddef</text>
</a>
</g>
</g>
<!-- Node2&#45;&gt;Node6 -->
<g id="edge5_Node000002_Node000006" class="edge">
<title>Node2&#45;&gt;Node6</title>
<g id="a_edge5_Node000002_Node000006"><a xlink:title=" ">
<path fill="none" stroke="#63b8ff" d="M170.98,-126.37C142.01,-115.27 91.52,-95.92 58.56,-83.28"/>
<polygon fill="#63b8ff" stroke="#63b8ff" points="59.52,-79.91 48.93,-79.6 57.02,-86.44 59.52,-79.91"/>
</a>
</g>
</g>
<!-- Node7 -->
<g id="Node000007" class="node">
<title>Node7</title>
<g id="a_Node000007"><a xlink:href="def_8h.html" target="_top" xlink:title=" ">
<polygon fill="white" stroke="#666666" points="665.5,-19 529.5,-19 529.5,0 665.5,0 665.5,-19"/>
<text text-anchor="middle" x="597.5" y="-7" font-family="Helvetica,sans-Serif" font-size="10.00">webcface/common/def.h</text>
</a>
</g>
</g>
<!-- Node2&#45;&gt;Node7 -->
<g id="edge6_Node000002_Node000007" class="edge">
<title>Node2&#45;&gt;Node7</title>
<g id="a_edge6_Node000002_Node000007"><a xlink:title=" ">
<path fill="none" stroke="#63b8ff" d="M192.66,-126.43C191.56,-109.85 191.8,-73.39 212.5,-55 234.95,-35.06 413.25,-21.29 519.17,-14.78"/>
<polygon fill="#63b8ff" stroke="#63b8ff" points="519.41,-18.28 529.18,-14.18 518.99,-11.29 519.41,-18.28"/>
</a>
</g>
</g>
<!-- Node8 -->
<g id="Node000008" class="node">
<title>Node8</title>
<g id="a_Node000008"><a xlink:href="image__mode_8h.html" target="_top" xlink:title=" ">
<polygon fill="white" stroke="#666666" points="365.5,-85 221.5,-85 221.5,-55 365.5,-55 365.5,-85"/>
<text text-anchor="start" x="229.5" y="-73" font-family="Helvetica,sans-Serif" font-size="10.00">webcface/encoding/image</text>
<text text-anchor="middle" x="293.5" y="-62" font-family="Helvetica,sans-Serif" font-size="10.00">_mode.h</text>
</a>
</g>
</g>
<!-- Node2&#45;&gt;Node8 -->
<g id="edge7_Node000002_Node000008" class="edge">
<title>Node2&#45;&gt;Node8</title>
<g id="a_edge7_Node000002_Node000008"><a xlink:title=" ">
<path fill="none" stroke="#63b8ff" d="M206.99,-126.37C221.25,-117.24 244.24,-102.53 262.94,-90.56"/>
<polygon fill="#63b8ff" stroke="#63b8ff" points="264.91,-93.45 271.44,-85.12 261.13,-87.56 264.91,-93.45"/>
</a>
</g>
</g>
<!-- Node8&#45;&gt;Node7 -->
<g id="edge8_Node000008_Node000007" class="edge">
<title>Node8&#45;&gt;Node7</title>
<g id="a_edge8_Node000008_Node000007"><a xlink:title=" ">
<path fill="none" stroke="#63b8ff" d="M365.54,-55.14C420.08,-44.64 493.81,-30.45 543.38,-20.91"/>
<polygon fill="#63b8ff" stroke="#63b8ff" points="544.11,-24.34 553.27,-19.01 542.78,-17.47 544.11,-24.34"/>
</a>
</g>
</g>
<!-- Node9&#45;&gt;Node4 -->
<g id="edge13_Node000009_Node000004" class="edge">
<title>Node9&#45;&gt;Node4</title>
<g id="a_edge13_Node000009_Node000004"><a xlink:title=" ">
<path fill="none" stroke="#63b8ff" d="M527.41,-252.97C481.6,-246.09 429.13,-234.61 414.5,-217 384.32,-180.66 394.33,-119.98 402.04,-89.57"/>
<polygon fill="#63b8ff" stroke="#63b8ff" points="405.44,-90.4 404.69,-79.83 398.68,-88.56 405.44,-90.4"/>
</a>
</g>
</g>
<!-- Node9&#45;&gt;Node7 -->
<g id="edge18_Node000009_Node000007" class="edge">
<title>Node9&#45;&gt;Node7</title>
<g id="a_edge18_Node000009_Node000007"><a xlink:title=" ">
<path fill="none" stroke="#63b8ff" d="M548.05,-252.95C508.48,-245.5 459.8,-233.32 447.5,-217 419.25,-179.49 395.18,-149.65 478.5,-55 492.72,-38.85 513.37,-28.55 533.5,-21.98"/>
<polygon fill="#63b8ff" stroke="#63b8ff" points="534.73,-25.27 543.31,-19.05 532.73,-18.56 534.73,-25.27"/>
</a>
</g>
</g>
<!-- Node9&#45;&gt;Node8 -->
<g id="edge48_Node000009_Node000008" class="edge">
<title>Node9&#45;&gt;Node8</title>
<g id="a_edge48_Node000009_Node000008"><a xlink:title=" ">
<path fill="none" stroke="#63b8ff" d="M518.9,-257.64C478.83,-252.43 431.78,-241.1 395.5,-217 349.52,-186.45 318.06,-127.51 303.24,-94.63"/>
<polygon fill="#63b8ff" stroke="#63b8ff" points="306.38,-93.08 299.17,-85.32 299.97,-95.88 306.38,-93.08"/>
</a>
</g>
</g>
<!-- Node10 -->
<g id="Node000010" class="node">
<title>Node10</title>
<g id="a_Node000010"><a xlink:title=" ">
<polygon fill="#e0e0e0" stroke="#999999" points="569.5,-79.5 487.5,-79.5 487.5,-60.5 569.5,-60.5 569.5,-79.5"/>
<text text-anchor="middle" x="528.5" y="-67.5" font-family="Helvetica,sans-Serif" font-size="10.00">msgpack.hpp</text>
</a>
</g>
</g>
<!-- Node9&#45;&gt;Node10 -->
<g id="edge10_Node000009_Node000010" class="edge">
<title>Node9&#45;&gt;Node10</title>
<g id="a_edge10_Node000009_Node000010"><a xlink:title=" ">
<path fill="none" stroke="#63b8ff" d="M653.02,-252.99C701.58,-242.56 764,-221.83 737.5,-187 701.2,-139.28 659.2,-181.36 607.5,-151 579.73,-134.69 554.94,-106.17 540.82,-87.96"/>
<polygon fill="#63b8ff" stroke="#63b8ff" points="543.6,-85.82 534.78,-79.94 538.01,-90.04 543.6,-85.82"/>
</a>
</g>
</g>
<!-- Node11 -->
<g id="Node000011" class="node">
<title>Node11</title>
<g id="a_Node000011"><a xlink:title=" ">
<polygon fill="#e0e0e0" stroke="#999999" points="1223.5,-19 1179.5,-19 1179.5,0 1223.5,0 1223.5,-19"/>
<text text-anchor="middle" x="1201.5" y="-7" font-family="Helvetica,sans-Serif" font-size="10.00">string</text>
</a>
</g>
</g>
<!-- Node9&#45;&gt;Node11 -->
<g id="edge11_Node000009_Node000011" class="edge">
<title>Node9&#45;&gt;Node11</title>
<g id="a_edge11_Node000009_Node000011"><a xlink:title=" ">
<path fill="none" stroke="#63b8ff" d="M686.25,-258.98C820.75,-254.25 1078.69,-242.16 1166.5,-217 1255.12,-191.61 1305.32,-174.72 1326.5,-85 1329.56,-72.02 1334.19,-65.89 1326.5,-55 1305.68,-25.5 1263.5,-15.44 1233.91,-12.08"/>
<polygon fill="#63b8ff" stroke="#63b8ff" points="1233.93,-8.56 1223.64,-11.12 1233.28,-15.53 1233.93,-8.56"/>
</a>
</g>
</g>
<!-- Node12 -->
<g id="Node000012" class="node">
<title>Node12</title>
<g id="a_Node000012"><a xlink:title=" ">
<polygon fill="#e0e0e0" stroke="#999999" points="502,-211.5 457,-211.5 457,-192.5 502,-192.5 502,-211.5"/>
<text text-anchor="middle" x="479.5" y="-199.5" font-family="Helvetica,sans-Serif" font-size="10.00">utility</text>
</a>
</g>
</g>
<!-- Node9&#45;&gt;Node12 -->
<g id="edge12_Node000009_Node000012" class="edge">
<title>Node9&#45;&gt;Node12</title>
<g id="a_edge12_Node000009_Node000012"><a xlink:title=" ">
<path fill="none" stroke="#63b8ff" d="M584.61,-252.99C564.12,-243.25 530.31,-227.16 506.58,-215.88"/>
<polygon fill="#63b8ff" stroke="#63b8ff" points="507.94,-212.65 497.41,-211.52 504.93,-218.97 507.94,-212.65"/>
</a>
</g>
</g>
<!-- Node13 -->
<g id="Node000013" class="node">
<title>Node13</title>
<g id="a_Node000013"><a xlink:title=" ">
<polygon fill="#e0e0e0" stroke="#999999" points="567,-211.5 520,-211.5 520,-192.5 567,-192.5 567,-211.5"/>
<text text-anchor="middle" x="543.5" y="-199.5" font-family="Helvetica,sans-Serif" font-size="10.00">deque</text>
</a>
</g>
</g>
<!-- Node9&#45;&gt;Node13 -->
<g id="edge14_Node000009_Node000013" class="edge">
<title>Node9&#45;&gt;Node13</title>
<g id="a_edge14_Node000009_Node000013"><a xlink:title=" ">
<path fill="none" stroke="#63b8ff" d="M593.79,-252.87C584.82,-243.97 570.62,-229.89 559.59,-218.95"/>
<polygon fill="#63b8ff" stroke="#63b8ff" points="561.81,-216.22 552.24,-211.67 556.88,-221.19 561.81,-216.22"/>
</a>
</g>
</g>
<!-- Node14 -->
<g id="Node000014" class="node">
<title>Node14</title>
<g id="a_Node000014"><a xlink:title=" ">
<polygon fill="#e0e0e0" stroke="#999999" points="620,-211.5 585,-211.5 585,-192.5 620,-192.5 620,-211.5"/>
<text text-anchor="middle" x="602.5" y="-199.5" font-family="Helvetica,sans-Serif" font-size="10.00">any</text>
</a>
</g>
</g>
<!-- Node9&#45;&gt;Node14 -->
<g id="edge15_Node000009_Node000014" class="edge">
<title>Node9&#45;&gt;Node14</title>
<g id="a_edge15_Node000009_Node000014"><a xlink:title=" ">
<path fill="none" stroke="#63b8ff" d="M602.5,-252.87C602.5,-244.75 602.5,-232.31 602.5,-221.89"/>
<polygon fill="#63b8ff" stroke="#63b8ff" points="606,-221.67 602.5,-211.67 599,-221.67 606,-221.67"/>
</a>
</g>
</g>
<!-- Node15 -->
<g id="Node000015" class="node">
<title>Node15</title>
<g id="a_Node000015"><a xlink:title=" ">
<polygon fill="#e0e0e0" stroke="#999999" points="1317.5,-79.5 1267.5,-79.5 1267.5,-60.5 1317.5,-60.5 1317.5,-79.5"/>
<text text-anchor="middle" x="1292.5" y="-67.5" font-family="Helvetica,sans-Serif" font-size="10.00">cstdint</text>
</a>
</g>
</g>
<!-- Node9&#45;&gt;Node15 -->
<g id="edge16_Node000009_Node000015" class="edge">
<title>Node9&#45;&gt;Node15</title>
<g id="a_edge16_Node000009_Node000015"><a xlink:title=" ">
<path fill="none" stroke="#63b8ff" d="M686.25,-259.19C846.97,-252.96 1190.07,-230.47 1272.5,-151 1288.89,-135.2 1292.63,-108.17 1293.12,-89.95"/>
<polygon fill="#63b8ff" stroke="#63b8ff" points="1296.62,-89.91 1293.09,-79.92 1289.62,-89.93 1296.62,-89.91"/>
</a>
</g>
</g>
<!-- Node16 -->
<g id="Node000016" class="node">
<title>Node16</title>
<g id="a_Node000016"><a xlink:title=" ">
<polygon fill="#e0e0e0" stroke="#999999" points="729,-211.5 638,-211.5 638,-192.5 729,-192.5 729,-211.5"/>
<text text-anchor="middle" x="683.5" y="-199.5" font-family="Helvetica,sans-Serif" font-size="10.00">spdlog/logger.h</text>
</a>
</g>
</g>
<!-- Node9&#45;&gt;Node16 -->
<g id="edge17_Node000009_Node000016" class="edge">
<title>Node9&#45;&gt;Node16</title>
<g id="a_edge17_Node000009_Node000016"><a xlink:title=" ">
<path fill="none" stroke="#63b8ff" d="M614.45,-252.87C627.25,-243.62 647.8,-228.78 663.15,-217.69"/>
<polygon fill="#63b8ff" stroke="#63b8ff" points="665.44,-220.36 671.5,-211.67 661.34,-214.68 665.44,-220.36"/>
</a>
</g>
</g>
<!-- Node17 -->
<g id="Node000017" class="node">
<title>Node17</title>
<g id="a_Node000017"><a xlink:href="u8string_8h.html" target="_top" xlink:title=" ">
<polygon fill="white" stroke="#666666" points="821.5,-145.5 659.5,-145.5 659.5,-126.5 821.5,-126.5 821.5,-145.5"/>
<text text-anchor="middle" x="740.5" y="-133.5" font-family="Helvetica,sans-Serif" font-size="10.00">webcface/message/u8string.h</text>
</a>
</g>
</g>
<!-- Node9&#45;&gt;Node17 -->
<g id="edge19_Node000009_Node000017" class="edge">
<title>Node9&#45;&gt;Node17</title>
<g id="a_edge19_Node000009_Node000017"><a xlink:title=" ">
<path fill="none" stroke="#63b8ff" d="M665.82,-252.96C708.15,-245.8 758.4,-234 771.5,-217 786.21,-197.91 769.94,-171 755.98,-153.77"/>
<polygon fill="#63b8ff" stroke="#63b8ff" points="758.24,-151.03 749.06,-145.74 752.94,-155.6 758.24,-151.03"/>
</a>
</g>
</g>
<!-- Node24 -->
<g id="Node000024" class="node">
<title>Node24</title>
<g id="a_Node000024"><a xlink:href="message_2include_2webcface_2message_2val__adaptor_8h.html" target="_top" xlink:title=" ">
<polygon fill="white" stroke="#666666" points="951.5,-217 823.5,-217 823.5,-187 951.5,-187 951.5,-217"/>
<text text-anchor="start" x="831.5" y="-205" font-family="Helvetica,sans-Serif" font-size="10.00">webcface/message/val</text>
<text text-anchor="middle" x="887.5" y="-194" font-family="Helvetica,sans-Serif" font-size="10.00">_adaptor.h</text>
</a>
</g>
</g>
<!-- Node9&#45;&gt;Node24 -->
<g id="edge32_Node000009_Node000024" class="edge">
<title>Node9&#45;&gt;Node24</title>
<g id="a_edge32_Node000009_Node000024"><a xlink:title=" ">
<path fill="none" stroke="#63b8ff" d="M643.94,-252.99C688.27,-243.89 759.48,-229.28 813.48,-218.19"/>
<polygon fill="#63b8ff" stroke="#63b8ff" points="814.26,-221.61 823.35,-216.17 812.85,-214.75 814.26,-221.61"/>
</a>
</g>
</g>
<!-- Node17&#45;&gt;Node7 -->
<g id="edge31_Node000017_Node000007" class="edge">
<title>Node17&#45;&gt;Node7</title>
<g id="a_edge31_Node000017_Node000007"><a xlink:title=" ">
<path fill="none" stroke="#63b8ff" d="M691.94,-126.45C666.09,-119.47 635.75,-107.01 616.5,-85 603.08,-69.65 598.91,-46.1 597.73,-29.59"/>
<polygon fill="#63b8ff" stroke="#63b8ff" points="601.22,-29.33 597.31,-19.48 594.23,-29.61 601.22,-29.33"/>
</a>
</g>
</g>
<!-- Node17&#45;&gt;Node10 -->
<g id="edge29_Node000017_Node000010" class="edge">
<title>Node17&#45;&gt;Node10</title>
<g id="a_edge29_Node000017_Node000010"><a xlink:title=" ">
<path fill="none" stroke="#63b8ff" d="M711.91,-126.37C674.42,-115.05 608.54,-95.16 566.78,-82.56"/>
<polygon fill="#63b8ff" stroke="#63b8ff" points="567.56,-79.14 556.98,-79.6 565.54,-85.84 567.56,-79.14"/>
</a>
</g>
</g>
<!-- Node17&#45;&gt;Node11 -->
<g id="edge30_Node000017_Node000011" class="edge">
<title>Node17&#45;&gt;Node11</title>
<g id="a_edge30_Node000017_Node000011"><a xlink:title=" ">
<path fill="none" stroke="#63b8ff" d="M801.35,-126.47C842.18,-119.16 896.36,-106.34 940.5,-85 960.19,-75.48 959.59,-64.05 979.5,-55 1042.8,-26.21 1124.63,-15.96 1169.15,-12.38"/>
<polygon fill="#63b8ff" stroke="#63b8ff" points="1169.66,-15.85 1179.37,-11.62 1169.14,-8.87 1169.66,-15.85"/>
</a>
</g>
</g>
<!-- Node18 -->
<g id="Node000018" class="node">
<title>Node18</title>
<g id="a_Node000018"><a xlink:title=" ">
<polygon fill="#e0e0e0" stroke="#999999" points="671,-79.5 626,-79.5 626,-60.5 671,-60.5 671,-79.5"/>
<text text-anchor="middle" x="648.5" y="-67.5" font-family="Helvetica,sans-Serif" font-size="10.00">utf8.h</text>
</a>
</g>
</g>
<!-- Node17&#45;&gt;Node18 -->
<g id="edge20_Node000017_Node000018" class="edge">
<title>Node17&#45;&gt;Node18</title>
<g id="a_edge20_Node000017_Node000018"><a xlink:title=" ">
<path fill="none" stroke="#63b8ff" d="M728.09,-126.37C713.14,-115.97 687.78,-98.32 669.7,-85.75"/>
<polygon fill="#63b8ff" stroke="#63b8ff" points="671.21,-82.54 661,-79.7 667.22,-88.28 671.21,-82.54"/>
</a>
</g>
</g>
<!-- Node19 -->
<g id="Node000019" class="node">
<title>Node19</title>
<g id="a_Node000019"><a xlink:href="encoding_8h.html" target="_top" xlink:title=" ">
<polygon fill="white" stroke="#666666" points="932,-79.5 765,-79.5 765,-60.5 932,-60.5 932,-79.5"/>
<text text-anchor="middle" x="848.5" y="-67.5" font-family="Helvetica,sans-Serif" font-size="10.00">webcface/encoding/encoding.h</text>
</a>
</g>
</g>
<!-- Node17&#45;&gt;Node19 -->
<g id="edge21_Node000017_Node000019" class="edge">
<title>Node17&#45;&gt;Node19</title>
<g id="a_edge21_Node000017_Node000019"><a xlink:title=" ">
<path fill="none" stroke="#63b8ff" d="M755.07,-126.37C773.02,-115.73 803.77,-97.51 825.06,-84.89"/>
<polygon fill="#63b8ff" stroke="#63b8ff" points="827,-87.81 833.82,-79.7 823.43,-81.79 827,-87.81"/>
</a>
</g>
</g>
<!-- Node19&#45;&gt;Node5 -->
<g id="edge24_Node000019_Node000005" class="edge">
<title>Node19&#45;&gt;Node5</title>
<g id="a_edge24_Node000019_Node000005"><a xlink:title=" ">
<path fill="none" stroke="#63b8ff" d="M766.2,-60.49C642.48,-47.71 413.32,-24.02 321.78,-14.56"/>
<polygon fill="#63b8ff" stroke="#63b8ff" points="321.87,-11.05 311.56,-13.5 321.15,-18.01 321.87,-11.05"/>
</a>
</g>
</g>
<!-- Node19&#45;&gt;Node7 -->
<g id="edge28_Node000019_Node000007" class="edge">
<title>Node19&#45;&gt;Node7</title>
<g id="a_edge28_Node000019_Node000007"><a xlink:title=" ">
<path fill="none" stroke="#63b8ff" d="M812,-60.49C767.57,-50.14 692.49,-32.64 643.97,-21.33"/>
<polygon fill="#63b8ff" stroke="#63b8ff" points="644.58,-17.88 634.04,-19.02 642.99,-24.7 644.58,-17.88"/>
</a>
</g>
</g>
<!-- Node19&#45;&gt;Node11 -->
<g id="edge22_Node000019_Node000011" class="edge">
<title>Node19&#45;&gt;Node11</title>
<g id="a_edge22_Node000019_Node000011"><a xlink:title=" ">
<path fill="none" stroke="#63b8ff" d="M899.83,-60.49C973.76,-48.24 1108.06,-25.99 1169.39,-15.82"/>
<polygon fill="#63b8ff" stroke="#63b8ff" points="1169.99,-19.27 1179.28,-14.18 1168.84,-12.36 1169.99,-19.27"/>
</a>
</g>
</g>
<!-- Node20 -->
<g id="Node000020" class="node">
<title>Node20</title>
<g id="a_Node000020"><a xlink:title=" ">
<polygon fill="#e0e0e0" stroke="#999999" points="1065,-19 992,-19 992,0 1065,0 1065,-19"/>
<text text-anchor="middle" x="1028.5" y="-7" font-family="Helvetica,sans-Serif" font-size="10.00">string_view</text>
</a>
</g>
</g>
<!-- Node19&#45;&gt;Node20 -->
<g id="edge23_Node000019_Node000020" class="edge">
<title>Node19&#45;&gt;Node20</title>
<g id="a_edge23_Node000019_Node000020"><a xlink:title=" ">
<path fill="none" stroke="#63b8ff" d="M874.67,-60.49C905.73,-50.4 957.69,-33.51 992.52,-22.19"/>
<polygon fill="#63b8ff" stroke="#63b8ff" points="993.87,-25.44 1002.29,-19.02 991.7,-18.78 993.87,-25.44"/>
</a>
</g>
</g>
<!-- Node21 -->
<g id="Node000021" class="node">
<title>Node21</title>
<g id="a_Node000021"><a xlink:title=" ">
<polygon fill="#e0e0e0" stroke="#999999" points="757.5,-19 709.5,-19 709.5,0 757.5,0 757.5,-19"/>
<text text-anchor="middle" x="733.5" y="-7" font-family="Helvetica,sans-Serif" font-size="10.00">mutex</text>
</a>
</g>
</g>
<!-- Node19&#45;&gt;Node21 -->
<g id="edge25_Node000019_Node000021" class="edge">
<title>Node19&#45;&gt;Node21</title>
<g id="a_edge25_Node000019_Node000021"><a xlink:title=" ">
<path fill="none" stroke="#63b8ff" d="M831.53,-60.37C812.59,-50.73 781.71,-35.03 759.67,-23.81"/>
<polygon fill="#63b8ff" stroke="#63b8ff" points="761.04,-20.58 750.54,-19.17 757.86,-26.82 761.04,-20.58"/>
</a>
</g>
</g>
<!-- Node22 -->
<g id="Node000022" class="node">
<title>Node22</title>
<g id="a_Node000022"><a xlink:title=" ">
<polygon fill="#e0e0e0" stroke="#999999" points="869,-19 776,-19 776,0 869,0 869,-19"/>
<text text-anchor="middle" x="822.5" y="-7" font-family="Helvetica,sans-Serif" font-size="10.00">unordered_map</text>
</a>
</g>
</g>
<!-- Node19&#45;&gt;Node22 -->
<g id="edge26_Node000019_Node000022" class="edge">
<title>Node19&#45;&gt;Node22</title>
<g id="a_edge26_Node000019_Node000022"><a xlink:title=" ">
<path fill="none" stroke="#63b8ff" d="M844.66,-60.37C840.94,-51.99 835.17,-39.01 830.45,-28.39"/>
<polygon fill="#63b8ff" stroke="#63b8ff" points="833.61,-26.88 826.35,-19.17 827.22,-29.73 833.61,-26.88"/>
</a>
</g>
</g>
<!-- Node23 -->
<g id="Node000023" class="node">
<title>Node23</title>
<g id="a_Node000023"><a xlink:title=" ">
<polygon fill="#e0e0e0" stroke="#999999" points="973.5,-19 887.5,-19 887.5,0 973.5,0 973.5,-19"/>
<text text-anchor="middle" x="930.5" y="-7" font-family="Helvetica,sans-Serif" font-size="10.00">unordered_set</text>
</a>
</g>
</g>
<!-- Node19&#45;&gt;Node23 -->
<g id="edge27_Node000019_Node000023" class="edge">
<title>Node19&#45;&gt;Node23</title>
<g id="a_edge27_Node000019_Node000023"><a xlink:title=" ">
<path fill="none" stroke="#63b8ff" d="M860.6,-60.37C873.56,-51.12 894.36,-36.28 909.9,-25.19"/>
<polygon fill="#63b8ff" stroke="#63b8ff" points="912.24,-27.82 918.35,-19.17 908.18,-22.13 912.24,-27.82"/>
</a>
</g>
</g>
<!-- Node24&#45;&gt;Node7 -->
<g id="edge45_Node000024_Node000007" class="edge">
<title>Node24&#45;&gt;Node7</title>
<g id="a_edge45_Node000024_Node000007"><a xlink:title=" ">
<path fill="none" stroke="#63b8ff" d="M886.55,-186.94C884.57,-168.99 878.44,-138.23 859.5,-121 810.05,-76.04 772.71,-116 713.5,-85 695.65,-75.65 696.02,-66.55 679.5,-55 662.3,-42.98 641.5,-31.72 625.16,-23.54"/>
<polygon fill="#63b8ff" stroke="#63b8ff" points="626.63,-20.37 616.11,-19.1 623.54,-26.65 626.63,-20.37"/>
</a>
</g>
</g>
<!-- Node24&#45;&gt;Node10 -->
<g id="edge42_Node000024_Node000010" class="edge">
<title>Node24&#45;&gt;Node10</title>
<g id="a_edge42_Node000024_Node000010"><a xlink:title=" ">
<path fill="none" stroke="#63b8ff" d="M823.27,-194.51C774.35,-187.91 706.17,-175.1 650.5,-151 629.12,-141.74 626.91,-133.9 607.5,-121 588.74,-108.53 567.11,-94.89 551.23,-85.01"/>
<polygon fill="#63b8ff" stroke="#63b8ff" points="552.95,-81.96 542.61,-79.66 549.26,-87.91 552.95,-81.96"/>
</a>
</g>
</g>
<!-- Node24&#45;&gt;Node11 -->
<g id="edge43_Node000024_Node000011" class="edge">
<title>Node24&#45;&gt;Node11</title>
<g id="a_edge43_Node000024_Node000011"><a xlink:title=" ">
<path fill="none" stroke="#63b8ff" d="M951.62,-199.54C1028.17,-193.83 1152.26,-170.97 1203.5,-85 1213.62,-68.02 1210.95,-44.78 1207.15,-28.8"/>
<polygon fill="#63b8ff" stroke="#63b8ff" points="1210.5,-27.77 1204.48,-19.05 1203.75,-29.62 1210.5,-27.77"/>
</a>
</g>
</g>
<!-- Node24&#45;&gt;Node15 -->
<g id="edge44_Node000024_Node000015" class="edge">
<title>Node24&#45;&gt;Node15</title>
<g id="a_edge44_Node000024_Node000015"><a xlink:title=" ">
<path fill="none" stroke="#63b8ff" d="M951.76,-198.66C1041.51,-194.29 1198.67,-182.3 1245.5,-151 1267.22,-136.48 1280.28,-108.25 1286.94,-89.51"/>
<polygon fill="#63b8ff" stroke="#63b8ff" points="1290.35,-90.34 1290.14,-79.75 1283.7,-88.16 1290.35,-90.34"/>
</a>
</g>
</g>
<!-- Node24&#45;&gt;Node17 -->
<g id="edge47_Node000024_Node000017" class="edge">
<title>Node24&#45;&gt;Node17</title>
<g id="a_edge47_Node000024_Node000017"><a xlink:title=" ">
<path fill="none" stroke="#63b8ff" d="M855.24,-186.95C829.57,-175.78 793.99,-160.29 769.28,-149.53"/>
<polygon fill="#63b8ff" stroke="#63b8ff" points="770.63,-146.3 760.06,-145.52 767.83,-152.72 770.63,-146.3"/>
</a>
</g>
</g>
<!-- Node24&#45;&gt;Node18 -->
<g id="edge46_Node000024_Node000018" class="edge">
<title>Node24&#45;&gt;Node18</title>
<g id="a_edge46_Node000024_Node000018"><a xlink:title=" ">
<path fill="none" stroke="#63b8ff" d="M881.25,-186.77C872.55,-168.65 855.03,-137.69 830.5,-121 775.6,-83.64 748.89,-104.78 685.5,-85 683.58,-84.4 681.62,-83.76 679.65,-83.08"/>
<polygon fill="#63b8ff" stroke="#63b8ff" points="680.47,-79.66 669.87,-79.58 678.1,-86.25 680.47,-79.66"/>
</a>
</g>
</g>
<!-- Node25 -->
<g id="Node000025" class="node">
<title>Node25</title>
<g id="a_Node000025"><a xlink:href="encoding_2include_2webcface_2encoding_2val__adaptor_8h.html" target="_top" xlink:title=" ">
<polygon fill="white" stroke="#666666" points="1072.5,-151 944.5,-151 944.5,-121 1072.5,-121 1072.5,-151"/>
<text text-anchor="start" x="952.5" y="-139" font-family="Helvetica,sans-Serif" font-size="10.00">webcface/encoding/val</text>
<text text-anchor="middle" x="1008.5" y="-128" font-family="Helvetica,sans-Serif" font-size="10.00">_adaptor.h</text>
</a>
</g>
</g>
<!-- Node24&#45;&gt;Node25 -->
<g id="edge33_Node000024_Node000025" class="edge">
<title>Node24&#45;&gt;Node25</title>
<g id="a_edge33_Node000024_Node000025"><a xlink:title=" ">
<path fill="none" stroke="#63b8ff" d="M914.05,-186.95C931.39,-177.78 954.23,-165.71 973.1,-155.72"/>
<polygon fill="#63b8ff" stroke="#63b8ff" points="974.8,-158.78 982.01,-151.01 971.53,-152.59 974.8,-158.78"/>
</a>
</g>
</g>
<!-- Node25&#45;&gt;Node4 -->
<g id="edge35_Node000025_Node000004" class="edge">
<title>Node25&#45;&gt;Node4</title>
<g id="a_edge35_Node000025_Node000004"><a xlink:title=" ">
<path fill="none" stroke="#63b8ff" d="M944.04,-129.74C823.18,-119.73 566.76,-97.83 478.5,-85 466.19,-83.21 452.78,-80.71 440.97,-78.32"/>
<polygon fill="#63b8ff" stroke="#63b8ff" points="441.57,-74.87 431.06,-76.26 440.15,-81.72 441.57,-74.87"/>
</a>
</g>
</g>
<!-- Node25&#45;&gt;Node7 -->
<g id="edge41_Node000025_Node000007" class="edge">
<title>Node25&#45;&gt;Node7</title>
<g id="a_edge41_Node000025_Node000007"><a xlink:title=" ">
<path fill="none" stroke="#63b8ff" d="M944.38,-125.36C881.26,-115.32 789.64,-99.11 756.5,-85 735.06,-75.87 734.09,-65.92 713.5,-55 688.32,-41.64 658.24,-30.22 635.01,-22.29"/>
<polygon fill="#63b8ff" stroke="#63b8ff" points="636.11,-18.97 625.51,-19.11 633.89,-25.61 636.11,-18.97"/>
</a>
</g>
</g>
<!-- Node25&#45;&gt;Node11 -->
<g id="edge34_Node000025_Node000011" class="edge">
<title>Node25&#45;&gt;Node11</title>
<g id="a_edge34_Node000025_Node000011"><a xlink:title=" ">
<path fill="none" stroke="#63b8ff" d="M1072.78,-131.9C1109.62,-126.76 1154.05,-114.32 1182.5,-85 1196.85,-70.21 1200.8,-46.17 1201.68,-29.41"/>
<polygon fill="#63b8ff" stroke="#63b8ff" points="1205.18,-29.24 1201.88,-19.17 1198.18,-29.1 1205.18,-29.24"/>
</a>
</g>
</g>
<!-- Node25&#45;&gt;Node15 -->
<g id="edge37_Node000025_Node000015" class="edge">
<title>Node25&#45;&gt;Node15</title>
<g id="a_edge37_Node000025_Node000015"><a xlink:title=" ">
<path fill="none" stroke="#63b8ff" d="M1070.83,-120.95C1128.05,-108.06 1210.81,-89.41 1257.33,-78.93"/>
<polygon fill="#63b8ff" stroke="#63b8ff" points="1258.25,-82.31 1267.23,-76.69 1256.71,-75.48 1258.25,-82.31"/>
</a>
</g>
</g>
<!-- Node25&#45;&gt;Node19 -->
<g id="edge40_Node000025_Node000019" class="edge">
<title>Node25&#45;&gt;Node19</title>
<g id="a_edge40_Node000025_Node000019"><a xlink:title=" ">
<path fill="none" stroke="#63b8ff" d="M973.39,-120.95C945.2,-109.68 906.03,-94.01 879.11,-83.25"/>
<polygon fill="#63b8ff" stroke="#63b8ff" points="880.38,-79.98 869.79,-79.52 877.78,-86.48 880.38,-79.98"/>
</a>
</g>
</g>
<!-- Node26 -->
<g id="Node000026" class="node">
<title>Node26</title>
<g id="a_Node000026"><a xlink:title=" ">
<polygon fill="#e0e0e0" stroke="#999999" points="1029,-79.5 988,-79.5 988,-60.5 1029,-60.5 1029,-79.5"/>
<text text-anchor="middle" x="1008.5" y="-67.5" font-family="Helvetica,sans-Serif" font-size="10.00">tuple</text>
</a>
</g>
</g>
<!-- Node25&#45;&gt;Node26 -->
<g id="edge36_Node000025_Node000026" class="edge">
<title>Node25&#45;&gt;Node26</title>
<g id="a_edge36_Node000025_Node000026"><a xlink:title=" ">
<path fill="none" stroke="#63b8ff" d="M1008.5,-120.8C1008.5,-111.7 1008.5,-99.79 1008.5,-89.9"/>
<polygon fill="#63b8ff" stroke="#63b8ff" points="1012,-89.84 1008.5,-79.84 1005,-89.84 1012,-89.84"/>
</a>
</g>
</g>
<!-- Node27 -->
<g id="Node000027" class="node">
<title>Node27</title>
<g id="a_Node000027"><a xlink:title=" ">
<polygon fill="#e0e0e0" stroke="#999999" points="1104,-79.5 1047,-79.5 1047,-60.5 1104,-60.5 1104,-79.5"/>
<text text-anchor="middle" x="1075.5" y="-67.5" font-family="Helvetica,sans-Serif" font-size="10.00">ostream</text>
</a>
</g>
</g>
<!-- Node25&#45;&gt;Node27 -->
<g id="edge38_Node000025_Node000027" class="edge">
<title>Node25&#45;&gt;Node27</title>
<g id="a_edge38_Node000025_Node000027"><a xlink:title=" ">
<path fill="none" stroke="#63b8ff" d="M1023.37,-120.8C1033.92,-110.72 1048.08,-97.19 1058.98,-86.78"/>
<polygon fill="#63b8ff" stroke="#63b8ff" points="1061.43,-89.28 1066.24,-79.84 1056.59,-84.22 1061.43,-89.28"/>
</a>
</g>
</g>
<!-- Node28 -->
<g id="Node000028" class="node">
<title>Node28</title>
<g id="a_Node000028"><a xlink:title=" ">
<polygon fill="#e0e0e0" stroke="#999999" points="1173,-79.5 1122,-79.5 1122,-60.5 1173,-60.5 1173,-79.5"/>
<text text-anchor="middle" x="1147.5" y="-67.5" font-family="Helvetica,sans-Serif" font-size="10.00">variant</text>
</a>
</g>
</g>
<!-- Node25&#45;&gt;Node28 -->
<g id="edge39_Node000025_Node000028" class="edge">
<title>Node25&#45;&gt;Node28</title>
<g id="a_edge39_Node000025_Node000028"><a xlink:title=" ">
<path fill="none" stroke="#63b8ff" d="M1039,-120.95C1063.06,-109.88 1096.33,-94.56 1119.66,-83.82"/>
<polygon fill="#63b8ff" stroke="#63b8ff" points="1121.38,-86.88 1129,-79.52 1118.45,-80.52 1121.38,-86.88"/>
</a>
</g>
</g>
</g>
</svg>
