<?xml version="1.0" encoding="UTF-8" standalone="no"?>
<!DOCTYPE svg PUBLIC "-//W3C//DTD SVG 1.1//EN"
 "http://www.w3.org/Graphics/SVG/1.1/DTD/svg11.dtd">
<!-- Generated by graphviz version 2.43.0 (0)
 -->
<!-- Title: /home/runner/work/webcface/webcface/client/include/webcface/image.h Pages: 1 -->
<svg width="978pt" height="225pt"
 viewBox="0.00 0.00 977.50 225.00" xmlns="http://www.w3.org/2000/svg" xmlns:xlink="http://www.w3.org/1999/xlink">
<g id="graph0" class="graph" transform="scale(1 1) rotate(0) translate(4 221)">
<title>/home/runner/work/webcface/webcface/client/include/webcface/image.h</title>
<!-- Node1 -->
<g id="Node000001" class="node">
<title>Node1</title>
<g id="a_Node000001"><a xlink:title=" ">
<polygon fill="#999999" stroke="#666666" points="436,-217 278,-217 278,-176 436,-176 436,-217"/>
<text text-anchor="start" x="286" y="-205" font-family="Helvetica,sans-Serif" font-size="10.00">/home/runner/work/webcface</text>
<text text-anchor="start" x="286" y="-194" font-family="Helvetica,sans-Serif" font-size="10.00">/webcface/client/include</text>
<text text-anchor="middle" x="357" y="-183" font-family="Helvetica,sans-Serif" font-size="10.00">/webcface/image.h</text>
</a>
</g>
</g>
<!-- Node2 -->
<g id="Node000002" class="node">
<title>Node2</title>
<g id="a_Node000002"><a xlink:title=" ">
<polygon fill="#e0e0e0" stroke="#999999" points="185.5,-140 120.5,-140 120.5,-121 185.5,-121 185.5,-140"/>
<text text-anchor="middle" x="153" y="-128" font-family="Helvetica,sans-Serif" font-size="10.00">functional</text>
</a>
</g>
</g>
<!-- Node1&#45;&gt;Node2 -->
<g id="edge1_Node000001_Node000002" class="edge">
<title>Node1&#45;&gt;Node2</title>
<g id="a_edge1_Node000001_Node000002"><a xlink:title=" ">
<path fill="none" stroke="#63b8ff" d="M294.68,-175.95C260.41,-165.2 219.05,-152.22 189.89,-143.07"/>
<polygon fill="#63b8ff" stroke="#63b8ff" points="190.71,-139.66 180.12,-140.01 188.61,-146.34 190.71,-139.66"/>
</a>
</g>
</g>
<!-- Node3 -->
<g id="Node000003" class="node">
<title>Node3</title>
<g id="a_Node000003"><a xlink:title=" ">
<polygon fill="#e0e0e0" stroke="#999999" points="56,-79.5 0,-79.5 0,-60.5 56,-60.5 56,-79.5"/>
<text text-anchor="middle" x="28" y="-67.5" font-family="Helvetica,sans-Serif" font-size="10.00">optional</text>
</a>
</g>
</g>
<!-- Node1&#45;&gt;Node3 -->
<g id="edge2_Node000001_Node000003" class="edge">
<title>Node1&#45;&gt;Node3</title>
<g id="a_edge2_Node000001_Node000003"><a xlink:title=" ">
<path fill="none" stroke="#63b8ff" d="M312.36,-175.94C288.69,-165.46 259.18,-152.23 233,-140 215.53,-131.84 211.96,-128.03 194,-121 151.07,-104.2 100.09,-89.61 66.06,-80.59"/>
<polygon fill="#63b8ff" stroke="#63b8ff" points="66.63,-77.12 56.07,-77.98 64.86,-83.9 66.63,-77.12"/>
</a>
</g>
</g>
<!-- Node4 -->
<g id="Node000004" class="node">
<title>Node4</title>
<g id="a_Node000004"><a xlink:title=" ">
<polygon fill="#e0e0e0" stroke="#999999" points="609,-140 559,-140 559,-121 609,-121 609,-140"/>
<text text-anchor="middle" x="584" y="-128" font-family="Helvetica,sans-Serif" font-size="10.00">chrono</text>
</a>
</g>
</g>
<!-- Node1&#45;&gt;Node4 -->
<g id="edge3_Node000001_Node000004" class="edge">
<title>Node1&#45;&gt;Node4</title>
<g id="a_edge3_Node000001_Node000004"><a xlink:title=" ">
<path fill="none" stroke="#63b8ff" d="M426.34,-175.95C466.93,-164.51 516.45,-150.55 549.03,-141.36"/>
<polygon fill="#63b8ff" stroke="#63b8ff" points="550.3,-144.64 558.98,-138.55 548.4,-137.9 550.3,-144.64"/>
</a>
</g>
</g>
<!-- Node5 -->
<g id="Node000005" class="node">
<title>Node5</title>
<g id="a_Node000005"><a xlink:href="image__frame_8h.html" target="_top" xlink:title=" ">
<polygon fill="white" stroke="#666666" points="333.5,-140 242.5,-140 242.5,-121 333.5,-121 333.5,-140"/>
<text text-anchor="middle" x="288" y="-128" font-family="Helvetica,sans-Serif" font-size="10.00">image_frame.h</text>
</a>
</g>
</g>
<!-- Node1&#45;&gt;Node5 -->
<g id="edge4_Node000001_Node000005" class="edge">
<title>Node1&#45;&gt;Node5</title>
<g id="a_edge4_Node000001_Node000005"><a xlink:title=" ">
<path fill="none" stroke="#63b8ff" d="M335.92,-175.95C325.99,-166.74 314.3,-155.9 304.95,-147.23"/>
<polygon fill="#63b8ff" stroke="#63b8ff" points="307.16,-144.49 297.44,-140.26 302.4,-149.63 307.16,-144.49"/>
</a>
</g>
</g>
<!-- Node9 -->
<g id="Node000009" class="node">
<title>Node9</title>
<g id="a_Node000009"><a xlink:href="def_8h.html" target="_top" xlink:title=" ">
<polygon fill="white" stroke="#666666" points="458,-19 322,-19 322,0 458,0 458,-19"/>
<text text-anchor="middle" x="390" y="-7" font-family="Helvetica,sans-Serif" font-size="10.00">webcface/common/def.h</text>
</a>
</g>
</g>
<!-- Node1&#45;&gt;Node9 -->
<g id="edge26_Node000001_Node000009" class="edge">
<title>Node1&#45;&gt;Node9</title>
<g id="a_edge26_Node000001_Node000009"><a xlink:title=" ">
<path fill="none" stroke="#63b8ff" d="M360.53,-175.7C366.93,-139.86 380.34,-64.67 386.62,-29.46"/>
<polygon fill="#63b8ff" stroke="#63b8ff" points="390.14,-29.62 388.46,-19.16 383.25,-28.39 390.14,-29.62"/>
</a>
</g>
</g>
<!-- Node11 -->
<g id="Node000011" class="node">
<title>Node11</title>
<g id="a_Node000011"><a xlink:href="field_8h.html" target="_top" xlink:title=" ">
<polygon fill="white" stroke="#666666" points="540.5,-140 493.5,-140 493.5,-121 540.5,-121 540.5,-140"/>
<text text-anchor="middle" x="517" y="-128" font-family="Helvetica,sans-Serif" font-size="10.00">field.h</text>
</a>
</g>
</g>
<!-- Node1&#45;&gt;Node11 -->
<g id="edge12_Node000001_Node000011" class="edge">
<title>Node1&#45;&gt;Node11</title>
<g id="a_edge12_Node000001_Node000011"><a xlink:title=" ">
<path fill="none" stroke="#63b8ff" d="M405.87,-175.95C431.97,-165.51 463.31,-152.98 486.04,-143.88"/>
<polygon fill="#63b8ff" stroke="#63b8ff" points="487.54,-147.06 495.52,-140.09 484.94,-140.56 487.54,-147.06"/>
</a>
</g>
</g>
<!-- Node5&#45;&gt;Node3 -->
<g id="edge5_Node000005_Node000003" class="edge">
<title>Node5&#45;&gt;Node3</title>
<g id="a_edge5_Node000005_Node000003"><a xlink:title=" ">
<path fill="none" stroke="#63b8ff" d="M242.12,-121.79C197.74,-113.95 128.77,-100.73 70,-85 67.38,-84.3 64.68,-83.52 61.97,-82.71"/>
<polygon fill="#63b8ff" stroke="#63b8ff" points="62.87,-79.32 52.28,-79.64 60.76,-86 62.87,-79.32"/>
</a>
</g>
</g>
<!-- Node6 -->
<g id="Node000006" class="node">
<title>Node6</title>
<g id="a_Node000006"><a xlink:title=" ">
<polygon fill="#e0e0e0" stroke="#999999" points="469.5,-79.5 422.5,-79.5 422.5,-60.5 469.5,-60.5 469.5,-79.5"/>
<text text-anchor="middle" x="446" y="-67.5" font-family="Helvetica,sans-Serif" font-size="10.00">vector</text>
</a>
</g>
</g>
<!-- Node5&#45;&gt;Node6 -->
<g id="edge6_Node000005_Node000006" class="edge">
<title>Node5&#45;&gt;Node6</title>
<g id="a_edge6_Node000005_Node000006"><a xlink:title=" ">
<path fill="none" stroke="#63b8ff" d="M310.97,-120.99C337.89,-111.03 382.67,-94.45 413.23,-83.13"/>
<polygon fill="#63b8ff" stroke="#63b8ff" points="414.84,-86.27 423,-79.52 412.4,-79.71 414.84,-86.27"/>
</a>
</g>
</g>
<!-- Node7 -->
<g id="Node000007" class="node">
<title>Node7</title>
<g id="a_Node000007"><a xlink:title=" ">
<polygon fill="#e0e0e0" stroke="#999999" points="534,-19 476,-19 476,0 534,0 534,-19"/>
<text text-anchor="middle" x="505" y="-7" font-family="Helvetica,sans-Serif" font-size="10.00">memory</text>
</a>
</g>
</g>
<!-- Node5&#45;&gt;Node7 -->
<g id="edge7_Node000005_Node000007" class="edge">
<title>Node5&#45;&gt;Node7</title>
<g id="a_edge7_Node000005_Node000007"><a xlink:title=" ">
<path fill="none" stroke="#63b8ff" d="M301.65,-120.83C324.39,-106.51 371.63,-77.28 413,-55 434.05,-43.66 458.44,-31.93 476.81,-23.36"/>
<polygon fill="#63b8ff" stroke="#63b8ff" points="478.48,-26.44 486.08,-19.06 475.54,-20.09 478.48,-26.44"/>
</a>
</g>
</g>
<!-- Node8 -->
<g id="Node000008" class="node">
<title>Node8</title>
<g id="a_Node000008"><a xlink:title=" ">
<polygon fill="#e0e0e0" stroke="#999999" points="165.5,-79.5 112.5,-79.5 112.5,-60.5 165.5,-60.5 165.5,-79.5"/>
<text text-anchor="middle" x="139" y="-67.5" font-family="Helvetica,sans-Serif" font-size="10.00">cstddef</text>
</a>
</g>
</g>
<!-- Node5&#45;&gt;Node8 -->
<g id="edge8_Node000005_Node000008" class="edge">
<title>Node5&#45;&gt;Node8</title>
<g id="a_edge8_Node000005_Node000008"><a xlink:title=" ">
<path fill="none" stroke="#63b8ff" d="M266.33,-120.99C241.06,-111.07 199.09,-94.59 170.28,-83.28"/>
<polygon fill="#63b8ff" stroke="#63b8ff" points="171.28,-79.91 160.69,-79.52 168.72,-86.43 171.28,-79.91"/>
</a>
</g>
</g>
<!-- Node5&#45;&gt;Node9 -->
<g id="edge9_Node000005_Node000009" class="edge">
<title>Node5&#45;&gt;Node9</title>
<g id="a_edge9_Node000005_Node000009"><a xlink:title=" ">
<path fill="none" stroke="#63b8ff" d="M242.34,-121.54C190.42,-112.03 111.69,-96.03 103,-85 94.75,-74.53 94.32,-65.12 103,-55 129.36,-24.24 235.71,-14.56 311.24,-11.62"/>
<polygon fill="#63b8ff" stroke="#63b8ff" points="311.81,-15.1 321.68,-11.25 311.57,-8.11 311.81,-15.1"/>
</a>
</g>
</g>
<!-- Node10 -->
<g id="Node000010" class="node">
<title>Node10</title>
<g id="a_Node000010"><a xlink:href="image__mode_8h.html" target="_top" xlink:title=" ">
<polygon fill="white" stroke="#666666" points="328,-85 184,-85 184,-55 328,-55 328,-85"/>
<text text-anchor="start" x="192" y="-73" font-family="Helvetica,sans-Serif" font-size="10.00">webcface/encoding/image</text>
<text text-anchor="middle" x="256" y="-62" font-family="Helvetica,sans-Serif" font-size="10.00">_mode.h</text>
</a>
</g>
</g>
<!-- Node5&#45;&gt;Node10 -->
<g id="edge10_Node000005_Node000010" class="edge">
<title>Node5&#45;&gt;Node10</title>
<g id="a_edge10_Node000005_Node000010"><a xlink:title=" ">
<path fill="none" stroke="#63b8ff" d="M283.28,-120.87C279.42,-113.81 273.78,-103.5 268.63,-94.08"/>
<polygon fill="#63b8ff" stroke="#63b8ff" points="271.59,-92.21 263.72,-85.11 265.45,-95.57 271.59,-92.21"/>
</a>
</g>
</g>
<!-- Node10&#45;&gt;Node9 -->
<g id="edge11_Node000010_Node000009" class="edge">
<title>Node10&#45;&gt;Node9</title>
<g id="a_edge11_Node000010_Node000009"><a xlink:title=" ">
<path fill="none" stroke="#63b8ff" d="M288.1,-54.99C310.25,-45.31 339.48,-32.56 360.95,-23.18"/>
<polygon fill="#63b8ff" stroke="#63b8ff" points="362.45,-26.35 370.21,-19.14 359.65,-19.93 362.45,-26.35"/>
</a>
</g>
</g>
<!-- Node11&#45;&gt;Node6 -->
<g id="edge16_Node000011_Node000006" class="edge">
<title>Node11&#45;&gt;Node6</title>
<g id="a_edge16_Node000011_Node000006"><a xlink:title=" ">
<path fill="none" stroke="#63b8ff" d="M506.52,-120.87C495.51,-111.8 477.96,-97.34 464.59,-86.32"/>
<polygon fill="#63b8ff" stroke="#63b8ff" points="466.46,-83.33 456.52,-79.67 462.01,-88.73 466.46,-83.33"/>
</a>
</g>
</g>
<!-- Node11&#45;&gt;Node7 -->
<g id="edge13_Node000011_Node000007" class="edge">
<title>Node11&#45;&gt;Node7</title>
<g id="a_edge13_Node000011_Node000007"><a xlink:title=" ">
<path fill="none" stroke="#63b8ff" d="M516.67,-120.76C516.08,-106.82 514.65,-78.7 512,-55 511.04,-46.44 509.61,-37.01 508.3,-29.05"/>
<polygon fill="#63b8ff" stroke="#63b8ff" points="511.71,-28.26 506.57,-19 504.81,-29.45 511.71,-28.26"/>
</a>
</g>
</g>
<!-- Node11&#45;&gt;Node9 -->
<g id="edge17_Node000011_Node000009" class="edge">
<title>Node11&#45;&gt;Node9</title>
<g id="a_edge17_Node000011_Node000009"><a xlink:title=" ">
<path fill="none" stroke="#63b8ff" d="M514.34,-120.6C509.42,-105.42 497.54,-74.27 478,-55 463.63,-40.83 443.84,-30.28 426.66,-23.01"/>
<polygon fill="#63b8ff" stroke="#63b8ff" points="427.5,-19.58 416.91,-19.11 424.9,-26.08 427.5,-19.58"/>
</a>
</g>
</g>
<!-- Node12 -->
<g id="Node000012" class="node">
<title>Node12</title>
<g id="a_Node000012"><a xlink:title=" ">
<polygon fill="#e0e0e0" stroke="#999999" points="596,-19 552,-19 552,0 596,0 596,-19"/>
<text text-anchor="middle" x="574" y="-7" font-family="Helvetica,sans-Serif" font-size="10.00">string</text>
</a>
</g>
</g>
<!-- Node11&#45;&gt;Node12 -->
<g id="edge14_Node000011_Node000012" class="edge">
<title>Node11&#45;&gt;Node12</title>
<g id="a_edge14_Node000011_Node000012"><a xlink:title=" ">
<path fill="none" stroke="#63b8ff" d="M521.1,-120.94C530.34,-101.65 552.95,-54.44 565.41,-28.43"/>
<polygon fill="#63b8ff" stroke="#63b8ff" points="568.62,-29.83 569.78,-19.3 562.31,-26.81 568.62,-29.83"/>
</a>
</g>
</g>
<!-- Node13 -->
<g id="Node000013" class="node">
<title>Node13</title>
<g id="a_Node000013"><a xlink:title=" ">
<polygon fill="#e0e0e0" stroke="#999999" points="969.5,-19 896.5,-19 896.5,0 969.5,0 969.5,-19"/>
<text text-anchor="middle" x="933" y="-7" font-family="Helvetica,sans-Serif" font-size="10.00">string_view</text>
</a>
</g>
</g>
<!-- Node11&#45;&gt;Node13 -->
<g id="edge15_Node000011_Node000013" class="edge">
<title>Node11&#45;&gt;Node13</title>
<g id="a_edge15_Node000011_Node000013"><a xlink:title=" ">
<path fill="none" stroke="#63b8ff" d="M540.73,-123.1C543.84,-122.35 546.99,-121.62 550,-121 650.45,-100.18 680.06,-115.54 778,-85 827.12,-69.68 880.36,-41.22 909.9,-24.26"/>
<polygon fill="#63b8ff" stroke="#63b8ff" points="911.74,-27.24 918.63,-19.19 908.22,-21.19 911.74,-27.24"/>
</a>
</g>
</g>
<!-- Node14 -->
<g id="Node000014" class="node">
<title>Node14</title>
<g id="a_Node000014"><a xlink:href="encoding_8h.html" target="_top" xlink:title=" ">
<polygon fill="white" stroke="#666666" points="768.5,-79.5 601.5,-79.5 601.5,-60.5 768.5,-60.5 768.5,-79.5"/>
<text text-anchor="middle" x="685" y="-67.5" font-family="Helvetica,sans-Serif" font-size="10.00">webcface/encoding/encoding.h</text>
</a>
</g>
</g>
<!-- Node11&#45;&gt;Node14 -->
<g id="edge18_Node000011_Node000014" class="edge">
<title>Node11&#45;&gt;Node14</title>
<g id="a_edge18_Node000011_Node000014"><a xlink:title=" ">
<path fill="none" stroke="#63b8ff" d="M540.71,-121.24C569.48,-111.22 618.2,-94.26 650.97,-82.85"/>
<polygon fill="#63b8ff" stroke="#63b8ff" points="652.3,-86.09 660.59,-79.5 649.99,-79.48 652.3,-86.09"/>
</a>
</g>
</g>
<!-- Node14&#45;&gt;Node7 -->
<g id="edge21_Node000014_Node000007" class="edge">
<title>Node14&#45;&gt;Node7</title>
<g id="a_edge21_Node000014_Node000007"><a xlink:title=" ">
<path fill="none" stroke="#63b8ff" d="M658.83,-60.49C627.77,-50.4 575.81,-33.51 540.98,-22.19"/>
<polygon fill="#63b8ff" stroke="#63b8ff" points="541.8,-18.78 531.21,-19.02 539.63,-25.44 541.8,-18.78"/>
</a>
</g>
</g>
<!-- Node14&#45;&gt;Node9 -->
<g id="edge25_Node000014_Node000009" class="edge">
<title>Node14&#45;&gt;Node9</title>
<g id="a_edge25_Node000014_Node000009"><a xlink:title=" ">
<path fill="none" stroke="#63b8ff" d="M642.1,-60.49C589.34,-50.03 499.79,-32.27 442.84,-20.98"/>
<polygon fill="#63b8ff" stroke="#63b8ff" points="443.44,-17.53 432.95,-19.02 442.08,-24.4 443.44,-17.53"/>
</a>
</g>
</g>
<!-- Node14&#45;&gt;Node12 -->
<g id="edge19_Node000014_Node000012" class="edge">
<title>Node14&#45;&gt;Node12</title>
<g id="a_edge19_Node000014_Node000012"><a xlink:title=" ">
<path fill="none" stroke="#63b8ff" d="M668.62,-60.37C650.42,-50.78 620.8,-35.17 599.55,-23.97"/>
<polygon fill="#63b8ff" stroke="#63b8ff" points="600.92,-20.73 590.45,-19.17 597.66,-26.93 600.92,-20.73"/>
</a>
</g>
</g>
<!-- Node14&#45;&gt;Node13 -->
<g id="edge20_Node000014_Node000013" class="edge">
<title>Node14&#45;&gt;Node13</title>
<g id="a_edge20_Node000014_Node000013"><a xlink:title=" ">
<path fill="none" stroke="#63b8ff" d="M721.06,-60.49C764.96,-50.14 839.15,-32.64 887.08,-21.33"/>
<polygon fill="#63b8ff" stroke="#63b8ff" points="887.97,-24.72 896.9,-19.02 886.36,-17.91 887.97,-24.72"/>
</a>
</g>
</g>
<!-- Node15 -->
<g id="Node000015" class="node">
<title>Node15</title>
<g id="a_Node000015"><a xlink:title=" ">
<polygon fill="#e0e0e0" stroke="#999999" points="662,-19 614,-19 614,0 662,0 662,-19"/>
<text text-anchor="middle" x="638" y="-7" font-family="Helvetica,sans-Serif" font-size="10.00">mutex</text>
</a>
</g>
</g>
<!-- Node14&#45;&gt;Node15 -->
<g id="edge22_Node000014_Node000015" class="edge">
<title>Node14&#45;&gt;Node15</title>
<g id="a_edge22_Node000014_Node000015"><a xlink:title=" ">
<path fill="none" stroke="#63b8ff" d="M678.06,-60.37C671.05,-51.64 660.04,-37.93 651.33,-27.09"/>
<polygon fill="#63b8ff" stroke="#63b8ff" points="653.96,-24.77 644.96,-19.17 648.5,-29.16 653.96,-24.77"/>
</a>
</g>
</g>
<!-- Node16 -->
<g id="Node000016" class="node">
<title>Node16</title>
<g id="a_Node000016"><a xlink:title=" ">
<polygon fill="#e0e0e0" stroke="#999999" points="773.5,-19 680.5,-19 680.5,0 773.5,0 773.5,-19"/>
<text text-anchor="middle" x="727" y="-7" font-family="Helvetica,sans-Serif" font-size="10.00">unordered_map</text>
</a>
</g>
</g>
<!-- Node14&#45;&gt;Node16 -->
<g id="edge23_Node000014_Node000016" class="edge">
<title>Node14&#45;&gt;Node16</title>
<g id="a_edge23_Node000014_Node000016"><a xlink:title=" ">
<path fill="none" stroke="#63b8ff" d="M691.2,-60.37C697.4,-51.73 707.11,-38.2 714.86,-27.42"/>
<polygon fill="#63b8ff" stroke="#63b8ff" points="717.79,-29.33 720.78,-19.17 712.1,-25.25 717.79,-29.33"/>
</a>
</g>
</g>
<!-- Node17 -->
<g id="Node000017" class="node">
<title>Node17</title>
<g id="a_Node000017"><a xlink:title=" ">
<polygon fill="#e0e0e0" stroke="#999999" points="878,-19 792,-19 792,0 878,0 878,-19"/>
<text text-anchor="middle" x="835" y="-7" font-family="Helvetica,sans-Serif" font-size="10.00">unordered_set</text>
</a>
</g>
</g>
<!-- Node14&#45;&gt;Node17 -->
<g id="edge24_Node000014_Node000017" class="edge">
<title>Node14&#45;&gt;Node17</title>
<g id="a_edge24_Node000014_Node000017"><a xlink:title=" ">
<path fill="none" stroke="#63b8ff" d="M706.81,-60.49C732.25,-50.57 774.51,-34.09 803.51,-22.78"/>
<polygon fill="#63b8ff" stroke="#63b8ff" points="805.12,-25.91 813.16,-19.02 802.57,-19.39 805.12,-25.91"/>
</a>
</g>
</g>
</g>
</svg>
