<?xml version="1.0" encoding="UTF-8" standalone="no"?>
<!DOCTYPE svg PUBLIC "-//W3C//DTD SVG 1.1//EN"
 "http://www.w3.org/Graphics/SVG/1.1/DTD/svg11.dtd">
<!-- Generated by graphviz version 2.43.0 (0)
 -->
<!-- Title: client/src/image_frame.cc Pages: 1 -->
<svg width="781pt" height="324pt"
 viewBox="0.00 0.00 781.24 324.00" xmlns="http://www.w3.org/2000/svg" xmlns:xlink="http://www.w3.org/1999/xlink">
<g id="graph0" class="graph" transform="scale(1 1) rotate(0) translate(4 320)">
<title>client/src/image_frame.cc</title>
<!-- Node1 -->
<g id="Node000001" class="node">
<title>Node1</title>
<g id="a_Node000001"><a xlink:title=" ">
<polygon fill="#999999" stroke="#666666" points="553.74,-316 410.74,-316 410.74,-297 553.74,-297 553.74,-316"/>
<text text-anchor="middle" x="482.24" y="-304" font-family="Helvetica,sans-Serif" font-size="10.00">client/src/image_frame.cc</text>
</a>
</g>
</g>
<!-- Node2 -->
<g id="Node000002" class="node">
<title>Node2</title>
<g id="a_Node000002"><a xlink:title=" ">
<polygon fill="#e0e0e0" stroke="#999999" points="369.74,-255.5 316.74,-255.5 316.74,-236.5 369.74,-236.5 369.74,-255.5"/>
<text text-anchor="middle" x="343.24" y="-243.5" font-family="Helvetica,sans-Serif" font-size="10.00">cstddef</text>
</a>
</g>
</g>
<!-- Node1&#45;&gt;Node2 -->
<g id="edge1_Node000001_Node000002" class="edge">
<title>Node1&#45;&gt;Node2</title>
<g id="a_edge1_Node000001_Node000002"><a xlink:title=" ">
<path fill="none" stroke="#63b8ff" d="M462.03,-296.99C438.56,-287.12 399.63,-270.73 372.77,-259.43"/>
<polygon fill="#63b8ff" stroke="#63b8ff" points="374.05,-256.17 363.47,-255.52 371.33,-262.62 374.05,-256.17"/>
</a>
</g>
</g>
<!-- Node3 -->
<g id="Node000003" class="node">
<title>Node3</title>
<g id="a_Node000003"><a xlink:title=" ">
<polygon fill="#e0e0e0" stroke="#999999" points="452.74,-255.5 387.74,-255.5 387.74,-236.5 452.74,-236.5 452.74,-255.5"/>
<text text-anchor="middle" x="420.24" y="-243.5" font-family="Helvetica,sans-Serif" font-size="10.00">stdexcept</text>
</a>
</g>
</g>
<!-- Node1&#45;&gt;Node3 -->
<g id="edge2_Node000001_Node000003" class="edge">
<title>Node1&#45;&gt;Node3</title>
<g id="a_edge2_Node000001_Node000003"><a xlink:title=" ">
<path fill="none" stroke="#63b8ff" d="M473.09,-296.87C463.57,-287.88 448.44,-273.61 436.81,-262.64"/>
<polygon fill="#63b8ff" stroke="#63b8ff" points="439.1,-259.98 429.42,-255.67 434.3,-265.08 439.1,-259.98"/>
</a>
</g>
</g>
<!-- Node4 -->
<g id="Node000004" class="node">
<title>Node4</title>
<g id="a_Node000004"><a xlink:href="image__frame_8h.html" target="_top" xlink:title=" ">
<polygon fill="white" stroke="#666666" points="717.24,-134.5 577.24,-134.5 577.24,-115.5 717.24,-115.5 717.24,-134.5"/>
<text text-anchor="middle" x="647.24" y="-122.5" font-family="Helvetica,sans-Serif" font-size="10.00">webcface/image_frame.h</text>
</a>
</g>
</g>
<!-- Node1&#45;&gt;Node4 -->
<g id="edge3_Node000001_Node000004" class="edge">
<title>Node1&#45;&gt;Node4</title>
<g id="a_edge3_Node000001_Node000004"><a xlink:title=" ">
<path fill="none" stroke="#63b8ff" d="M553.94,-299.81C581.02,-293.97 609.73,-282.65 628.24,-261 656.36,-228.11 654.01,-173.35 650.36,-144.73"/>
<polygon fill="#63b8ff" stroke="#63b8ff" points="653.78,-143.9 648.86,-134.51 646.85,-144.91 653.78,-143.9"/>
</a>
</g>
</g>
<!-- Node9 -->
<g id="Node000009" class="node">
<title>Node9</title>
<g id="a_Node000009"><a xlink:href="common_2include_2webcface_2common_2internal_2message_2image_8h.html" target="_top" xlink:title=" ">
<polygon fill="white" stroke="#666666" points="619.74,-261 470.74,-261 470.74,-231 619.74,-231 619.74,-261"/>
<text text-anchor="start" x="478.74" y="-249" font-family="Helvetica,sans-Serif" font-size="10.00">webcface/common/internal</text>
<text text-anchor="middle" x="545.24" y="-238" font-family="Helvetica,sans-Serif" font-size="10.00">/message/image.h</text>
</a>
</g>
</g>
<!-- Node1&#45;&gt;Node9 -->
<g id="edge8_Node000001_Node000009" class="edge">
<title>Node1&#45;&gt;Node9</title>
<g id="a_edge8_Node000001_Node000009"><a xlink:title=" ">
<path fill="none" stroke="#63b8ff" d="M491.53,-296.87C499.69,-289.3 511.88,-277.98 522.58,-268.04"/>
<polygon fill="#63b8ff" stroke="#63b8ff" points="525.09,-270.48 530.04,-261.11 520.33,-265.35 525.09,-270.48"/>
</a>
</g>
</g>
<!-- Node5 -->
<g id="Node000005" class="node">
<title>Node5</title>
<g id="a_Node000005"><a xlink:title=" ">
<polygon fill="#e0e0e0" stroke="#999999" points="773.24,-74 717.24,-74 717.24,-55 773.24,-55 773.24,-74"/>
<text text-anchor="middle" x="745.24" y="-62" font-family="Helvetica,sans-Serif" font-size="10.00">optional</text>
</a>
</g>
</g>
<!-- Node4&#45;&gt;Node5 -->
<g id="edge4_Node000004_Node000005" class="edge">
<title>Node4&#45;&gt;Node5</title>
<g id="a_edge4_Node000004_Node000005"><a xlink:title=" ">
<path fill="none" stroke="#63b8ff" d="M661.7,-115.37C677.55,-105.91 703.21,-90.59 721.92,-79.42"/>
<polygon fill="#63b8ff" stroke="#63b8ff" points="723.93,-82.3 730.72,-74.17 720.34,-76.29 723.93,-82.3"/>
</a>
</g>
</g>
<!-- Node6 -->
<g id="Node000006" class="node">
<title>Node6</title>
<g id="a_Node000006"><a xlink:title=" ">
<polygon fill="#e0e0e0" stroke="#999999" points="534.74,-74 487.74,-74 487.74,-55 534.74,-55 534.74,-74"/>
<text text-anchor="middle" x="511.24" y="-62" font-family="Helvetica,sans-Serif" font-size="10.00">vector</text>
</a>
</g>
</g>
<!-- Node4&#45;&gt;Node6 -->
<g id="edge5_Node000004_Node000006" class="edge">
<title>Node4&#45;&gt;Node6</title>
<g id="a_edge5_Node000004_Node000006"><a xlink:title=" ">
<path fill="none" stroke="#63b8ff" d="M627.46,-115.49C604.6,-105.66 566.75,-89.38 540.48,-78.08"/>
<polygon fill="#63b8ff" stroke="#63b8ff" points="541.61,-74.75 531.04,-74.02 538.84,-81.18 541.61,-74.75"/>
</a>
</g>
</g>
<!-- Node7 -->
<g id="Node000007" class="node">
<title>Node7</title>
<g id="a_Node000007"><a xlink:title=" ">
<polygon fill="#e0e0e0" stroke="#999999" points="755.24,-19 697.24,-19 697.24,0 755.24,0 755.24,-19"/>
<text text-anchor="middle" x="726.24" y="-7" font-family="Helvetica,sans-Serif" font-size="10.00">memory</text>
</a>
</g>
</g>
<!-- Node4&#45;&gt;Node7 -->
<g id="edge6_Node000004_Node000007" class="edge">
<title>Node4&#45;&gt;Node7</title>
<g id="a_edge6_Node000004_Node000007"><a xlink:title=" ">
<path fill="none" stroke="#63b8ff" d="M653.18,-115.47C666.16,-96.82 697.27,-52.11 714.41,-27.49"/>
<polygon fill="#63b8ff" stroke="#63b8ff" points="717.39,-29.34 720.23,-19.13 711.65,-25.34 717.39,-29.34"/>
</a>
</g>
</g>
<!-- Node8 -->
<g id="Node000008" class="node">
<title>Node8</title>
<g id="a_Node000008"><a xlink:href="webcface-config_8h.html" target="_top" xlink:title=" ">
<polygon fill="white" stroke="#666666" points="200.74,-19 95.74,-19 95.74,0 200.74,0 200.74,-19"/>
<text text-anchor="middle" x="148.24" y="-7" font-family="Helvetica,sans-Serif" font-size="10.00">webcface&#45;config.h</text>
</a>
</g>
</g>
<!-- Node4&#45;&gt;Node8 -->
<g id="edge7_Node000004_Node000008" class="edge">
<title>Node4&#45;&gt;Node8</title>
<g id="a_edge7_Node000004_Node000008"><a xlink:title=" ">
<path fill="none" stroke="#63b8ff" d="M637.78,-115.41C620.47,-100.27 581.93,-69.08 543.24,-55 483.72,-33.34 306.47,-19.86 210.92,-13.97"/>
<polygon fill="#63b8ff" stroke="#63b8ff" points="211.01,-10.47 200.81,-13.36 210.58,-17.46 211.01,-10.47"/>
</a>
</g>
</g>
<!-- Node9&#45;&gt;Node5 -->
<g id="edge30_Node000009_Node000005" class="edge">
<title>Node9&#45;&gt;Node5</title>
<g id="a_edge30_Node000009_Node000005"><a xlink:title=" ">
<path fill="none" stroke="#63b8ff" d="M588.89,-230.9C630.4,-215.23 691.51,-185.93 726.24,-140 738.42,-123.89 742.84,-100.81 744.42,-84.61"/>
<polygon fill="#63b8ff" stroke="#63b8ff" points="747.93,-84.46 745.13,-74.24 740.95,-83.97 747.93,-84.46"/>
</a>
</g>
</g>
<!-- Node9&#45;&gt;Node6 -->
<g id="edge31_Node000009_Node000006" class="edge">
<title>Node9&#45;&gt;Node6</title>
<g id="a_edge31_Node000009_Node000006"><a xlink:title=" ">
<path fill="none" stroke="#63b8ff" d="M542.3,-230.57C540.28,-220.59 537.55,-207 535.24,-195 527.66,-155.67 519.22,-109.53 514.64,-84.31"/>
<polygon fill="#63b8ff" stroke="#63b8ff" points="518.05,-83.52 512.83,-74.3 511.16,-84.76 518.05,-83.52"/>
</a>
</g>
</g>
<!-- Node10 -->
<g id="Node000010" class="node">
<title>Node10</title>
<g id="a_Node000010"><a xlink:href="base_8h.html" target="_top" xlink:title=" ">
<polygon fill="white" stroke="#666666" points="249.74,-195 194.74,-195 194.74,-176 249.74,-176 249.74,-195"/>
<text text-anchor="middle" x="222.24" y="-183" font-family="Helvetica,sans-Serif" font-size="10.00">./base.h</text>
</a>
</g>
</g>
<!-- Node9&#45;&gt;Node10 -->
<g id="edge9_Node000009_Node000010" class="edge">
<title>Node9&#45;&gt;Node10</title>
<g id="a_edge9_Node000009_Node000010"><a xlink:title=" ">
<path fill="none" stroke="#63b8ff" d="M470.73,-231.51C404.85,-219.57 311.43,-202.65 259.94,-193.33"/>
<polygon fill="#63b8ff" stroke="#63b8ff" points="260.38,-189.85 249.92,-191.51 259.14,-196.74 260.38,-189.85"/>
</a>
</g>
</g>
<!-- Node19 -->
<g id="Node000019" class="node">
<title>Node19</title>
<g id="a_Node000019"><a xlink:href="common_2encoding_8h.html" target="_top" xlink:title=" ">
<polygon fill="white" stroke="#666666" points="661.24,-74 591.24,-74 591.24,-55 661.24,-55 661.24,-74"/>
<text text-anchor="middle" x="626.24" y="-62" font-family="Helvetica,sans-Serif" font-size="10.00">encoding.h</text>
</a>
</g>
</g>
<!-- Node9&#45;&gt;Node19 -->
<g id="edge29_Node000009_Node000019" class="edge">
<title>Node9&#45;&gt;Node19</title>
<g id="a_edge29_Node000009_Node000019"><a xlink:title=" ">
<path fill="none" stroke="#63b8ff" d="M544.4,-230.83C543.53,-204.9 544.79,-148.89 568.24,-110 575.91,-97.27 588.71,-86.87 600.33,-79.34"/>
<polygon fill="#63b8ff" stroke="#63b8ff" points="602.16,-82.32 608.89,-74.14 598.52,-76.34 602.16,-82.32"/>
</a>
</g>
</g>
<!-- Node10&#45;&gt;Node8 -->
<g id="edge10_Node000010_Node000008" class="edge">
<title>Node10&#45;&gt;Node8</title>
<g id="a_edge10_Node000010_Node000008"><a xlink:title=" ">
<path fill="none" stroke="#63b8ff" d="M194.64,-181.31C143.57,-173.65 36.51,-148.93 3.24,-74 -13.49,-36.33 39.16,-21 85.64,-14.77"/>
<polygon fill="#63b8ff" stroke="#63b8ff" points="86.23,-18.22 95.74,-13.54 85.39,-11.27 86.23,-18.22"/>
</a>
</g>
</g>
<!-- Node11 -->
<g id="Node000011" class="node">
<title>Node11</title>
<g id="a_Node000011"><a xlink:href="fmt_8h.html" target="_top" xlink:title=" ">
<polygon fill="white" stroke="#666666" points="134.74,-134.5 85.74,-134.5 85.74,-115.5 134.74,-115.5 134.74,-134.5"/>
<text text-anchor="middle" x="110.24" y="-122.5" font-family="Helvetica,sans-Serif" font-size="10.00">./fmt.h</text>
</a>
</g>
</g>
<!-- Node10&#45;&gt;Node11 -->
<g id="edge11_Node000010_Node000011" class="edge">
<title>Node10&#45;&gt;Node11</title>
<g id="a_edge11_Node000010_Node000011"><a xlink:title=" ">
<path fill="none" stroke="#63b8ff" d="M205.71,-175.87C187.27,-166.23 157.2,-150.53 135.73,-139.31"/>
<polygon fill="#63b8ff" stroke="#63b8ff" points="137.32,-136.19 126.83,-134.67 134.08,-142.4 137.32,-136.19"/>
</a>
</g>
</g>
<!-- Node13 -->
<g id="Node000013" class="node">
<title>Node13</title>
<g id="a_Node000013"><a xlink:href="common_2val__adaptor_8h.html" target="_top" xlink:title=" ">
<polygon fill="white" stroke="#666666" points="396.74,-140 269.74,-140 269.74,-110 396.74,-110 396.74,-140"/>
<text text-anchor="start" x="277.74" y="-128" font-family="Helvetica,sans-Serif" font-size="10.00">webcface/common/val</text>
<text text-anchor="middle" x="333.24" y="-117" font-family="Helvetica,sans-Serif" font-size="10.00">_adaptor.h</text>
</a>
</g>
</g>
<!-- Node10&#45;&gt;Node13 -->
<g id="edge14_Node000010_Node000013" class="edge">
<title>Node10&#45;&gt;Node13</title>
<g id="a_edge14_Node000010_Node000013"><a xlink:title=" ">
<path fill="none" stroke="#63b8ff" d="M238.62,-175.87C254.03,-167.75 277.62,-155.31 297.4,-144.89"/>
<polygon fill="#63b8ff" stroke="#63b8ff" points="299.24,-147.87 306.46,-140.11 295.98,-141.68 299.24,-147.87"/>
</a>
</g>
</g>
<!-- Node11&#45;&gt;Node8 -->
<g id="edge12_Node000011_Node000008" class="edge">
<title>Node11&#45;&gt;Node8</title>
<g id="a_edge12_Node000011_Node000008"><a xlink:title=" ">
<path fill="none" stroke="#63b8ff" d="M113.09,-115.47C119.23,-97.15 133.78,-53.68 142.11,-28.81"/>
<polygon fill="#63b8ff" stroke="#63b8ff" points="145.49,-29.72 145.35,-19.13 138.86,-27.5 145.49,-29.72"/>
</a>
</g>
</g>
<!-- Node12 -->
<g id="Node000012" class="node">
<title>Node12</title>
<g id="a_Node000012"><a xlink:title=" ">
<polygon fill="#e0e0e0" stroke="#999999" points="81.74,-74 12.74,-74 12.74,-55 81.74,-55 81.74,-74"/>
<text text-anchor="middle" x="47.24" y="-62" font-family="Helvetica,sans-Serif" font-size="10.00">fmt/base.h</text>
</a>
</g>
</g>
<!-- Node11&#45;&gt;Node12 -->
<g id="edge13_Node000011_Node000012" class="edge">
<title>Node11&#45;&gt;Node12</title>
<g id="a_edge13_Node000011_Node000012"><a xlink:title=" ">
<path fill="none" stroke="#63b8ff" d="M100.94,-115.37C91.26,-106.38 75.9,-92.11 64.08,-81.14"/>
<polygon fill="#63b8ff" stroke="#63b8ff" points="66.28,-78.41 56.57,-74.17 61.52,-83.54 66.28,-78.41"/>
</a>
</g>
</g>
<!-- Node13&#45;&gt;Node6 -->
<g id="edge16_Node000013_Node000006" class="edge">
<title>Node13&#45;&gt;Node6</title>
<g id="a_edge16_Node000013_Node000006"><a xlink:title=" ">
<path fill="none" stroke="#63b8ff" d="M375.87,-109.99C407.16,-99.71 449.04,-85.94 477.89,-76.46"/>
<polygon fill="#63b8ff" stroke="#63b8ff" points="479.11,-79.74 487.51,-73.3 476.92,-73.09 479.11,-79.74"/>
</a>
</g>
</g>
<!-- Node13&#45;&gt;Node8 -->
<g id="edge28_Node000013_Node000008" class="edge">
<title>Node13&#45;&gt;Node8</title>
<g id="a_edge28_Node000013_Node000008"><a xlink:title=" ">
<path fill="none" stroke="#63b8ff" d="M269.43,-119.25C234.99,-113.47 194.14,-100.95 167.24,-74 155.44,-62.18 150.91,-43.34 149.2,-29.25"/>
<polygon fill="#63b8ff" stroke="#63b8ff" points="152.68,-28.86 148.35,-19.19 145.71,-29.45 152.68,-28.86"/>
</a>
</g>
</g>
<!-- Node14 -->
<g id="Node000014" class="node">
<title>Node14</title>
<g id="a_Node000014"><a xlink:title=" ">
<polygon fill="#e0e0e0" stroke="#999999" points="481.24,-19 437.24,-19 437.24,0 481.24,0 481.24,-19"/>
<text text-anchor="middle" x="459.24" y="-7" font-family="Helvetica,sans-Serif" font-size="10.00">string</text>
</a>
</g>
</g>
<!-- Node13&#45;&gt;Node14 -->
<g id="edge15_Node000013_Node000014" class="edge">
<title>Node13&#45;&gt;Node14</title>
<g id="a_edge15_Node000013_Node000014"><a xlink:title=" ">
<path fill="none" stroke="#63b8ff" d="M383.8,-109.9C403.47,-102.15 424.72,-90.63 439.24,-74 450.05,-61.62 455.02,-43.4 457.3,-29.65"/>
<polygon fill="#63b8ff" stroke="#63b8ff" points="460.82,-29.75 458.66,-19.38 453.88,-28.83 460.82,-29.75"/>
</a>
</g>
</g>
<!-- Node15 -->
<g id="Node000015" class="node">
<title>Node15</title>
<g id="a_Node000015"><a xlink:title=" ">
<polygon fill="#e0e0e0" stroke="#999999" points="217.74,-74 176.74,-74 176.74,-55 217.74,-55 217.74,-74"/>
<text text-anchor="middle" x="197.24" y="-62" font-family="Helvetica,sans-Serif" font-size="10.00">tuple</text>
</a>
</g>
</g>
<!-- Node13&#45;&gt;Node15 -->
<g id="edge17_Node000013_Node000015" class="edge">
<title>Node13&#45;&gt;Node15</title>
<g id="a_edge17_Node000013_Node000015"><a xlink:title=" ">
<path fill="none" stroke="#63b8ff" d="M300.66,-109.99C278.18,-100.31 248.52,-87.56 226.73,-78.18"/>
<polygon fill="#63b8ff" stroke="#63b8ff" points="227.89,-74.88 217.32,-74.14 225.13,-81.31 227.89,-74.88"/>
</a>
</g>
</g>
<!-- Node16 -->
<g id="Node000016" class="node">
<title>Node16</title>
<g id="a_Node000016"><a xlink:title=" ">
<polygon fill="#e0e0e0" stroke="#999999" points="286.24,-74 236.24,-74 236.24,-55 286.24,-55 286.24,-74"/>
<text text-anchor="middle" x="261.24" y="-62" font-family="Helvetica,sans-Serif" font-size="10.00">cstdint</text>
</a>
</g>
</g>
<!-- Node13&#45;&gt;Node16 -->
<g id="edge18_Node000013_Node000016" class="edge">
<title>Node13&#45;&gt;Node16</title>
<g id="a_edge18_Node000013_Node000016"><a xlink:title=" ">
<path fill="none" stroke="#63b8ff" d="M315.81,-109.84C304.93,-101 290.94,-89.63 279.85,-80.62"/>
<polygon fill="#63b8ff" stroke="#63b8ff" points="282,-77.86 272.03,-74.27 277.58,-83.29 282,-77.86"/>
</a>
</g>
</g>
<!-- Node17 -->
<g id="Node000017" class="node">
<title>Node17</title>
<g id="a_Node000017"><a xlink:title=" ">
<polygon fill="#e0e0e0" stroke="#999999" points="361.74,-74 304.74,-74 304.74,-55 361.74,-55 361.74,-74"/>
<text text-anchor="middle" x="333.24" y="-62" font-family="Helvetica,sans-Serif" font-size="10.00">ostream</text>
</a>
</g>
</g>
<!-- Node13&#45;&gt;Node17 -->
<g id="edge19_Node000013_Node000017" class="edge">
<title>Node13&#45;&gt;Node17</title>
<g id="a_edge19_Node000013_Node000017"><a xlink:title=" ">
<path fill="none" stroke="#63b8ff" d="M333.24,-109.84C333.24,-102.21 333.24,-92.7 333.24,-84.45"/>
<polygon fill="#63b8ff" stroke="#63b8ff" points="336.74,-84.27 333.24,-74.27 329.74,-84.27 336.74,-84.27"/>
</a>
</g>
</g>
<!-- Node18 -->
<g id="Node000018" class="node">
<title>Node18</title>
<g id="a_Node000018"><a xlink:title=" ">
<polygon fill="#e0e0e0" stroke="#999999" points="430.74,-74 379.74,-74 379.74,-55 430.74,-55 430.74,-74"/>
<text text-anchor="middle" x="405.24" y="-62" font-family="Helvetica,sans-Serif" font-size="10.00">variant</text>
</a>
</g>
</g>
<!-- Node13&#45;&gt;Node18 -->
<g id="edge20_Node000013_Node000018" class="edge">
<title>Node13&#45;&gt;Node18</title>
<g id="a_edge20_Node000013_Node000018"><a xlink:title=" ">
<path fill="none" stroke="#63b8ff" d="M350.67,-109.84C361.55,-101 375.54,-89.63 386.63,-80.62"/>
<polygon fill="#63b8ff" stroke="#63b8ff" points="388.9,-83.29 394.45,-74.27 384.48,-77.86 388.9,-83.29"/>
</a>
</g>
</g>
<!-- Node13&#45;&gt;Node19 -->
<g id="edge21_Node000013_Node000019" class="edge">
<title>Node13&#45;&gt;Node19</title>
<g id="a_edge21_Node000013_Node000019"><a xlink:title=" ">
<path fill="none" stroke="#63b8ff" d="M396.82,-111.31C452.44,-100.2 531.85,-84.35 581.15,-74.5"/>
<polygon fill="#63b8ff" stroke="#63b8ff" points="582.08,-77.89 591.2,-72.5 580.71,-71.02 582.08,-77.89"/>
</a>
</g>
</g>
<!-- Node19&#45;&gt;Node7 -->
<g id="edge26_Node000019_Node000007" class="edge">
<title>Node19&#45;&gt;Node7</title>
<g id="a_edge26_Node000019_Node000007"><a xlink:title=" ">
<path fill="none" stroke="#63b8ff" d="M642.31,-54.98C658.1,-46.61 682.46,-33.7 700.87,-23.95"/>
<polygon fill="#63b8ff" stroke="#63b8ff" points="702.68,-26.95 709.88,-19.17 699.4,-20.76 702.68,-26.95"/>
</a>
</g>
</g>
<!-- Node19&#45;&gt;Node8 -->
<g id="edge27_Node000019_Node000008" class="edge">
<title>Node19&#45;&gt;Node8</title>
<g id="a_edge27_Node000019_Node000008"><a xlink:title=" ">
<path fill="none" stroke="#63b8ff" d="M591.22,-57.13C586.53,-56.36 581.77,-55.63 577.24,-55 447.47,-37.04 294.71,-22.84 210.99,-15.65"/>
<polygon fill="#63b8ff" stroke="#63b8ff" points="211.14,-12.16 200.88,-14.79 210.55,-19.13 211.14,-12.16"/>
</a>
</g>
</g>
<!-- Node19&#45;&gt;Node14 -->
<g id="edge24_Node000019_Node000014" class="edge">
<title>Node19&#45;&gt;Node14</title>
<g id="a_edge24_Node000019_Node000014"><a xlink:title=" ">
<path fill="none" stroke="#63b8ff" d="M599.41,-54.98C569.87,-45.61 522.43,-30.55 491.04,-20.59"/>
<polygon fill="#63b8ff" stroke="#63b8ff" points="492.05,-17.24 481.46,-17.55 489.93,-23.91 492.05,-17.24"/>
</a>
</g>
</g>
<!-- Node20 -->
<g id="Node000020" class="node">
<title>Node20</title>
<g id="a_Node000020"><a xlink:title=" ">
<polygon fill="#e0e0e0" stroke="#999999" points="679.24,-19 641.24,-19 641.24,0 679.24,0 679.24,-19"/>
<text text-anchor="middle" x="660.24" y="-7" font-family="Helvetica,sans-Serif" font-size="10.00">map</text>
</a>
</g>
</g>
<!-- Node19&#45;&gt;Node20 -->
<g id="edge22_Node000019_Node000020" class="edge">
<title>Node19&#45;&gt;Node20</title>
<g id="a_edge22_Node000019_Node000020"><a xlink:title=" ">
<path fill="none" stroke="#63b8ff" d="M631.85,-54.75C636.56,-47.42 643.41,-36.73 649.21,-27.7"/>
<polygon fill="#63b8ff" stroke="#63b8ff" points="652.28,-29.4 654.73,-19.09 646.38,-25.62 652.28,-29.4"/>
</a>
</g>
</g>
<!-- Node21 -->
<g id="Node000021" class="node">
<title>Node21</title>
<g id="a_Node000021"><a xlink:title=" ">
<polygon fill="#e0e0e0" stroke="#999999" points="531.24,-19 499.24,-19 499.24,0 531.24,0 531.24,-19"/>
<text text-anchor="middle" x="515.24" y="-7" font-family="Helvetica,sans-Serif" font-size="10.00">set</text>
</a>
</g>
</g>
<!-- Node19&#45;&gt;Node21 -->
<g id="edge23_Node000019_Node000021" class="edge">
<title>Node19&#45;&gt;Node21</title>
<g id="a_edge23_Node000019_Node000021"><a xlink:title=" ">
<path fill="none" stroke="#63b8ff" d="M608.4,-54.98C590.1,-46.24 561.44,-32.56 540.74,-22.68"/>
<polygon fill="#63b8ff" stroke="#63b8ff" points="542.11,-19.45 531.58,-18.3 539.1,-25.77 542.11,-19.45"/>
</a>
</g>
</g>
<!-- Node22 -->
<g id="Node000022" class="node">
<title>Node22</title>
<g id="a_Node000022"><a xlink:title=" ">
<polygon fill="#e0e0e0" stroke="#999999" points="622.74,-19 549.74,-19 549.74,0 622.74,0 622.74,-19"/>
<text text-anchor="middle" x="586.24" y="-7" font-family="Helvetica,sans-Serif" font-size="10.00">string_view</text>
</a>
</g>
</g>
<!-- Node19&#45;&gt;Node22 -->
<g id="edge25_Node000019_Node000022" class="edge">
<title>Node19&#45;&gt;Node22</title>
<g id="a_edge25_Node000019_Node000022"><a xlink:title=" ">
<path fill="none" stroke="#63b8ff" d="M619.63,-54.75C613.98,-47.26 605.69,-36.28 598.79,-27.13"/>
<polygon fill="#63b8ff" stroke="#63b8ff" points="601.54,-24.96 592.72,-19.09 595.95,-29.18 601.54,-24.96"/>
</a>
</g>
</g>
</g>
</svg>
