<?xml version="1.0" encoding="UTF-8" standalone="no"?>
<!DOCTYPE svg PUBLIC "-//W3C//DTD SVG 1.1//EN"
 "http://www.w3.org/Graphics/SVG/1.1/DTD/svg11.dtd">
<!-- Generated by graphviz version 2.43.0 (0)
 -->
<!-- Title: include/webcface/image.h Pages: 1 -->
<svg width="1182pt" height="302pt"
 viewBox="0.00 0.00 1182.22 302.00" xmlns="http://www.w3.org/2000/svg" xmlns:xlink="http://www.w3.org/1999/xlink">
<g id="graph0" class="graph" transform="scale(1 1) rotate(0) translate(4 298)">
<title>include/webcface/image.h</title>
<!-- Node1 -->
<g id="Node000001" class="node">
<title>Node1</title>
<g id="a_Node000001"><a xlink:title=" ">
<polygon fill="#999999" stroke="#666666" points="463.22,-294 319.22,-294 319.22,-275 463.22,-275 463.22,-294"/>
<text text-anchor="middle" x="391.22" y="-282" font-family="Helvetica,sans-Serif" font-size="10.00">include/webcface/image.h</text>
</a>
</g>
</g>
<!-- Node2 -->
<g id="Node000002" class="node">
<title>Node2</title>
<g id="a_Node000002"><a xlink:title=" ">
<polygon fill="#e0e0e0" stroke="#999999" points="201.72,-239 144.72,-239 144.72,-220 201.72,-220 201.72,-239"/>
<text text-anchor="middle" x="173.22" y="-227" font-family="Helvetica,sans-Serif" font-size="10.00">ostream</text>
</a>
</g>
</g>
<!-- Node1&#45;&gt;Node2 -->
<g id="edge1_Node000001_Node000002" class="edge">
<title>Node1&#45;&gt;Node2</title>
<g id="a_edge1_Node000001_Node000002"><a xlink:title=" ">
<path fill="none" stroke="#63b8ff" d="M356.2,-274.98C316.7,-265.38 252.66,-249.81 211.77,-239.87"/>
<polygon fill="#63b8ff" stroke="#63b8ff" points="212.44,-236.43 201.9,-237.47 210.79,-243.23 212.44,-236.43"/>
</a>
</g>
</g>
<!-- Node3 -->
<g id="Node000003" class="node">
<title>Node3</title>
<g id="a_Node000003"><a xlink:title=" ">
<polygon fill="#e0e0e0" stroke="#999999" points="276.22,-239 220.22,-239 220.22,-220 276.22,-220 276.22,-239"/>
<text text-anchor="middle" x="248.22" y="-227" font-family="Helvetica,sans-Serif" font-size="10.00">optional</text>
</a>
</g>
</g>
<!-- Node1&#45;&gt;Node3 -->
<g id="edge2_Node000001_Node000003" class="edge">
<title>Node1&#45;&gt;Node3</title>
<g id="a_edge2_Node000001_Node000003"><a xlink:title=" ">
<path fill="none" stroke="#63b8ff" d="M368.25,-274.98C344.73,-266.27 307.94,-252.63 281.29,-242.75"/>
<polygon fill="#63b8ff" stroke="#63b8ff" points="282.21,-239.36 271.62,-239.17 279.78,-245.93 282.21,-239.36"/>
</a>
</g>
</g>
<!-- Node4 -->
<g id="Node000004" class="node">
<title>Node4</title>
<g id="a_Node000004"><a xlink:title=" ">
<polygon fill="#e0e0e0" stroke="#999999" points="344.22,-239 294.22,-239 294.22,-220 344.22,-220 344.22,-239"/>
<text text-anchor="middle" x="319.22" y="-227" font-family="Helvetica,sans-Serif" font-size="10.00">chrono</text>
</a>
</g>
</g>
<!-- Node1&#45;&gt;Node4 -->
<g id="edge3_Node000001_Node000004" class="edge">
<title>Node1&#45;&gt;Node4</title>
<g id="a_edge3_Node000001_Node000004"><a xlink:title=" ">
<path fill="none" stroke="#63b8ff" d="M379.66,-274.98C368.8,-267 352.34,-254.88 339.34,-245.31"/>
<polygon fill="#63b8ff" stroke="#63b8ff" points="341.13,-242.28 331,-239.17 336.98,-247.92 341.13,-242.28"/>
</a>
</g>
</g>
<!-- Node5 -->
<g id="Node000005" class="node">
<title>Node5</title>
<g id="a_Node000005"><a xlink:title=" ">
<polygon fill="#e0e0e0" stroke="#999999" points="342.22,-129 284.22,-129 284.22,-110 342.22,-110 342.22,-129"/>
<text text-anchor="middle" x="313.22" y="-117" font-family="Helvetica,sans-Serif" font-size="10.00">memory</text>
</a>
</g>
</g>
<!-- Node1&#45;&gt;Node5 -->
<g id="edge4_Node000001_Node000005" class="edge">
<title>Node1&#45;&gt;Node5</title>
<g id="a_edge4_Node000001_Node000005"><a xlink:title=" ">
<path fill="none" stroke="#63b8ff" d="M389.69,-274.61C387.33,-262.07 382.24,-238.66 374.22,-220 360.96,-189.12 339.28,-156.49 325.65,-137.34"/>
<polygon fill="#63b8ff" stroke="#63b8ff" points="328.38,-135.14 319.68,-129.08 322.71,-139.24 328.38,-135.14"/>
</a>
</g>
</g>
<!-- Node6 -->
<g id="Node000006" class="node">
<title>Node6</title>
<g id="a_Node000006"><a xlink:href="common_2image_8h.html" target="_top" xlink:title=" ">
<polygon fill="white" stroke="#666666" points="540.22,-184 438.22,-184 438.22,-165 540.22,-165 540.22,-184"/>
<text text-anchor="middle" x="489.22" y="-172" font-family="Helvetica,sans-Serif" font-size="10.00">common/image.h</text>
</a>
</g>
</g>
<!-- Node1&#45;&gt;Node6 -->
<g id="edge5_Node000001_Node000006" class="edge">
<title>Node1&#45;&gt;Node6</title>
<g id="a_edge5_Node000001_Node000006"><a xlink:title=" ">
<path fill="none" stroke="#63b8ff" d="M399.24,-274.66C415.69,-256.54 453.46,-214.91 474.46,-191.77"/>
<polygon fill="#63b8ff" stroke="#63b8ff" points="477.24,-193.92 481.37,-184.16 472.06,-189.21 477.24,-193.92"/>
</a>
</g>
</g>
<!-- Node10 -->
<g id="Node000010" class="node">
<title>Node10</title>
<g id="a_Node000010"><a xlink:href="def_8h.html" target="_top" xlink:title=" ">
<polygon fill="white" stroke="#666666" points="456.72,-74 415.72,-74 415.72,-55 456.72,-55 456.72,-74"/>
<text text-anchor="middle" x="436.22" y="-62" font-family="Helvetica,sans-Serif" font-size="10.00">def.h</text>
</a>
</g>
</g>
<!-- Node1&#45;&gt;Node10 -->
<g id="edge29_Node000001_Node000010" class="edge">
<title>Node1&#45;&gt;Node10</title>
<g id="a_edge29_Node000001_Node000010"><a xlink:title=" ">
<path fill="none" stroke="#63b8ff" d="M443.3,-274.96C558.4,-254.9 828.42,-201.02 881.22,-129 886.22,-122.19 886.89,-116.26 881.22,-110 853.48,-79.34 563.73,-68.89 467.27,-66.25"/>
<polygon fill="#63b8ff" stroke="#63b8ff" points="467.09,-62.74 457,-65.98 466.91,-69.74 467.09,-62.74"/>
</a>
</g>
</g>
<!-- Node14 -->
<g id="Node000014" class="node">
<title>Node14</title>
<g id="a_Node000014"><a xlink:href="field_8h.html" target="_top" xlink:title=" ">
<polygon fill="white" stroke="#666666" points="294.72,-184 247.72,-184 247.72,-165 294.72,-165 294.72,-184"/>
<text text-anchor="middle" x="271.22" y="-172" font-family="Helvetica,sans-Serif" font-size="10.00">field.h</text>
</a>
</g>
</g>
<!-- Node1&#45;&gt;Node14 -->
<g id="edge14_Node000001_Node000014" class="edge">
<title>Node1&#45;&gt;Node14</title>
<g id="a_edge14_Node000001_Node000014"><a xlink:title=" ">
<path fill="none" stroke="#63b8ff" d="M387.77,-274.71C382.19,-261.45 370.1,-236.18 353.22,-220 338.96,-206.32 319.65,-195.57 303.36,-188.06"/>
<polygon fill="#63b8ff" stroke="#63b8ff" points="304.74,-184.85 294.18,-184.02 301.92,-191.25 304.74,-184.85"/>
</a>
</g>
</g>
<!-- Node18 -->
<g id="Node000018" class="node">
<title>Node18</title>
<g id="a_Node000018"><a xlink:href="event__target_8h.html" target="_top" xlink:title=" ">
<polygon fill="white" stroke="#666666" points="980.22,-239 892.22,-239 892.22,-220 980.22,-220 980.22,-239"/>
<text text-anchor="middle" x="936.22" y="-227" font-family="Helvetica,sans-Serif" font-size="10.00">event_target.h</text>
</a>
</g>
</g>
<!-- Node1&#45;&gt;Node18 -->
<g id="edge23_Node000001_Node000018" class="edge">
<title>Node1&#45;&gt;Node18</title>
<g id="a_edge23_Node000001_Node000018"><a xlink:title=" ">
<path fill="none" stroke="#63b8ff" d="M463.24,-278.01C558.06,-270.52 729.88,-256.07 876.22,-239 878.14,-238.78 880.1,-238.54 882.07,-238.3"/>
<polygon fill="#63b8ff" stroke="#63b8ff" points="882.55,-241.76 892.02,-237.01 881.66,-234.82 882.55,-241.76"/>
</a>
</g>
</g>
<!-- Node6&#45;&gt;Node5 -->
<g id="edge7_Node000006_Node000005" class="edge">
<title>Node6&#45;&gt;Node5</title>
<g id="a_edge7_Node000006_Node000005"><a xlink:title=" ">
<path fill="none" stroke="#63b8ff" d="M460.95,-164.98C431.27,-156.05 384.44,-141.94 351.47,-132.02"/>
<polygon fill="#63b8ff" stroke="#63b8ff" points="352.31,-128.61 341.72,-129.08 350.29,-135.32 352.31,-128.61"/>
</a>
</g>
</g>
<!-- Node7 -->
<g id="Node000007" class="node">
<title>Node7</title>
<g id="a_Node000007"><a xlink:title=" ">
<polygon fill="#e0e0e0" stroke="#999999" points="407.72,-129 360.72,-129 360.72,-110 407.72,-110 407.72,-129"/>
<text text-anchor="middle" x="384.22" y="-117" font-family="Helvetica,sans-Serif" font-size="10.00">vector</text>
</a>
</g>
</g>
<!-- Node6&#45;&gt;Node7 -->
<g id="edge6_Node000006_Node000007" class="edge">
<title>Node6&#45;&gt;Node7</title>
<g id="a_edge6_Node000006_Node000007"><a xlink:title=" ">
<path fill="none" stroke="#63b8ff" d="M472.35,-164.98C455.62,-156.54 429.73,-143.47 410.33,-133.68"/>
<polygon fill="#63b8ff" stroke="#63b8ff" points="411.91,-130.55 401.4,-129.17 408.75,-136.8 411.91,-130.55"/>
</a>
</g>
</g>
<!-- Node8 -->
<g id="Node000008" class="node">
<title>Node8</title>
<g id="a_Node000008"><a xlink:title=" ">
<polygon fill="#e0e0e0" stroke="#999999" points="514.22,-129 464.22,-129 464.22,-110 514.22,-110 514.22,-129"/>
<text text-anchor="middle" x="489.22" y="-117" font-family="Helvetica,sans-Serif" font-size="10.00">cstdint</text>
</a>
</g>
</g>
<!-- Node6&#45;&gt;Node8 -->
<g id="edge8_Node000006_Node000008" class="edge">
<title>Node6&#45;&gt;Node8</title>
<g id="a_edge8_Node000006_Node000008"><a xlink:title=" ">
<path fill="none" stroke="#63b8ff" d="M489.22,-164.75C489.22,-157.8 489.22,-147.85 489.22,-139.13"/>
<polygon fill="#63b8ff" stroke="#63b8ff" points="492.72,-139.09 489.22,-129.09 485.72,-139.09 492.72,-139.09"/>
</a>
</g>
</g>
<!-- Node9 -->
<g id="Node000009" class="node">
<title>Node9</title>
<g id="a_Node000009"><a xlink:title=" ">
<polygon fill="#e0e0e0" stroke="#999999" points="871.72,-129 806.72,-129 806.72,-110 871.72,-110 871.72,-129"/>
<text text-anchor="middle" x="839.22" y="-117" font-family="Helvetica,sans-Serif" font-size="10.00">stdexcept</text>
</a>
</g>
</g>
<!-- Node6&#45;&gt;Node9 -->
<g id="edge9_Node000006_Node000009" class="edge">
<title>Node6&#45;&gt;Node9</title>
<g id="a_edge9_Node000006_Node000009"><a xlink:title=" ">
<path fill="none" stroke="#63b8ff" d="M540.32,-167.01C599.5,-159.3 700.16,-145.56 796.76,-128.99"/>
<polygon fill="#63b8ff" stroke="#63b8ff" points="797.44,-132.42 806.7,-127.27 796.25,-125.52 797.44,-132.42"/>
</a>
</g>
</g>
<!-- Node6&#45;&gt;Node10 -->
<g id="edge10_Node000006_Node000010" class="edge">
<title>Node6&#45;&gt;Node10</title>
<g id="a_edge10_Node000006_Node000010"><a xlink:title=" ">
<path fill="none" stroke="#63b8ff" d="M481.16,-164.95C473.52,-156.43 462.2,-142.69 455.22,-129 447.95,-114.73 442.97,-97.2 439.94,-84.18"/>
<polygon fill="#63b8ff" stroke="#63b8ff" points="443.29,-83.13 437.77,-74.09 436.45,-84.6 443.29,-83.13"/>
</a>
</g>
</g>
<!-- Node12 -->
<g id="Node000012" class="node">
<title>Node12</title>
<g id="a_Node000012"><a xlink:title=" ">
<polygon fill="#e0e0e0" stroke="#999999" points="635.72,-129 532.72,-129 532.72,-110 635.72,-110 635.72,-129"/>
<text text-anchor="middle" x="584.22" y="-117" font-family="Helvetica,sans-Serif" font-size="10.00">opencv2/core.hpp</text>
</a>
</g>
</g>
<!-- Node6&#45;&gt;Node12 -->
<g id="edge12_Node000006_Node000012" class="edge">
<title>Node6&#45;&gt;Node12</title>
<g id="a_edge12_Node000006_Node000012"><a xlink:title=" ">
<path fill="none" stroke="#63b8ff" d="M504.49,-164.98C519.36,-156.69 542.21,-143.94 559.64,-134.22"/>
<polygon fill="#63b8ff" stroke="#63b8ff" points="561.66,-137.1 568.68,-129.17 558.25,-130.99 561.66,-137.1"/>
</a>
</g>
</g>
<!-- Node13 -->
<g id="Node000013" class="node">
<title>Node13</title>
<g id="a_Node000013"><a xlink:title=" ">
<polygon fill="#e0e0e0" stroke="#999999" points="788.22,-129 654.22,-129 654.22,-110 788.22,-110 788.22,-129"/>
<text text-anchor="middle" x="721.22" y="-117" font-family="Helvetica,sans-Serif" font-size="10.00">opencv2/imgcodecs.hpp</text>
</a>
</g>
</g>
<!-- Node6&#45;&gt;Node13 -->
<g id="edge13_Node000006_Node000013" class="edge">
<title>Node6&#45;&gt;Node13</title>
<g id="a_edge13_Node000006_Node000013"><a xlink:title=" ">
<path fill="none" stroke="#63b8ff" d="M526.5,-164.98C566.55,-155.84 630.29,-141.27 673.86,-131.32"/>
<polygon fill="#63b8ff" stroke="#63b8ff" points="674.69,-134.72 683.66,-129.08 673.13,-127.9 674.69,-134.72"/>
</a>
</g>
</g>
<!-- Node11 -->
<g id="Node000011" class="node">
<title>Node11</title>
<g id="a_Node000011"><a xlink:href="macros_8h.html" target="_top" xlink:title=" ">
<polygon fill="white" stroke="#666666" points="467.22,-19 405.22,-19 405.22,0 467.22,0 467.22,-19"/>
<text text-anchor="middle" x="436.22" y="-7" font-family="Helvetica,sans-Serif" font-size="10.00">macros.h</text>
</a>
</g>
</g>
<!-- Node10&#45;&gt;Node11 -->
<g id="edge11_Node000010_Node000011" class="edge">
<title>Node10&#45;&gt;Node11</title>
<g id="a_edge11_Node000010_Node000011"><a xlink:title=" ">
<path fill="none" stroke="#63b8ff" d="M436.22,-54.75C436.22,-47.8 436.22,-37.85 436.22,-29.13"/>
<polygon fill="#63b8ff" stroke="#63b8ff" points="439.72,-29.09 436.22,-19.09 432.72,-29.09 439.72,-29.09"/>
</a>
</g>
</g>
<!-- Node14&#45;&gt;Node5 -->
<g id="edge15_Node000014_Node000005" class="edge">
<title>Node14&#45;&gt;Node5</title>
<g id="a_edge15_Node000014_Node000005"><a xlink:title=" ">
<path fill="none" stroke="#63b8ff" d="M278.16,-164.75C284.09,-157.26 292.8,-146.28 300.05,-137.13"/>
<polygon fill="#63b8ff" stroke="#63b8ff" points="302.95,-139.1 306.42,-129.09 297.46,-134.75 302.95,-139.1"/>
</a>
</g>
</g>
<!-- Node14&#45;&gt;Node7 -->
<g id="edge18_Node000014_Node000007" class="edge">
<title>Node14&#45;&gt;Node7</title>
<g id="a_edge18_Node000014_Node000007"><a xlink:title=" ">
<path fill="none" stroke="#63b8ff" d="M289.38,-164.98C307.48,-156.5 335.51,-143.35 356.41,-133.54"/>
<polygon fill="#63b8ff" stroke="#63b8ff" points="358.17,-136.59 365.74,-129.17 355.2,-130.25 358.17,-136.59"/>
</a>
</g>
</g>
<!-- Node14&#45;&gt;Node10 -->
<g id="edge22_Node000014_Node000010" class="edge">
<title>Node14&#45;&gt;Node10</title>
<g id="a_edge22_Node000014_Node000010"><a xlink:title=" ">
<path fill="none" stroke="#63b8ff" d="M247.62,-167.15C214.66,-157.16 161.24,-136.19 183.22,-110 211.29,-76.57 344.36,-68.25 405.44,-66.18"/>
<polygon fill="#63b8ff" stroke="#63b8ff" points="405.74,-69.67 415.63,-65.87 405.52,-62.67 405.74,-69.67"/>
</a>
</g>
</g>
<!-- Node15 -->
<g id="Node000015" class="node">
<title>Node15</title>
<g id="a_Node000015"><a xlink:title=" ">
<polygon fill="#e0e0e0" stroke="#999999" points="53.22,-74 9.22,-74 9.22,-55 53.22,-55 53.22,-74"/>
<text text-anchor="middle" x="31.22" y="-62" font-family="Helvetica,sans-Serif" font-size="10.00">string</text>
</a>
</g>
</g>
<!-- Node14&#45;&gt;Node15 -->
<g id="edge16_Node000014_Node000015" class="edge">
<title>Node14&#45;&gt;Node15</title>
<g id="a_edge16_Node000014_Node000015"><a xlink:title=" ">
<path fill="none" stroke="#63b8ff" d="M247.45,-173.27C188.15,-172.13 36.23,-165.63 5.22,-129 -6.38,-115.3 4.69,-95.72 15.76,-81.93"/>
<polygon fill="#63b8ff" stroke="#63b8ff" points="18.56,-84.05 22.45,-74.2 13.26,-79.47 18.56,-84.05"/>
</a>
</g>
</g>
<!-- Node16 -->
<g id="Node000016" class="node">
<title>Node16</title>
<g id="a_Node000016"><a xlink:title=" ">
<polygon fill="#e0e0e0" stroke="#999999" points="265.72,-129 192.72,-129 192.72,-110 265.72,-110 265.72,-129"/>
<text text-anchor="middle" x="229.22" y="-117" font-family="Helvetica,sans-Serif" font-size="10.00">string_view</text>
</a>
</g>
</g>
<!-- Node14&#45;&gt;Node16 -->
<g id="edge17_Node000014_Node000016" class="edge">
<title>Node14&#45;&gt;Node16</title>
<g id="a_edge17_Node000014_Node000016"><a xlink:title=" ">
<path fill="none" stroke="#63b8ff" d="M264.29,-164.75C258.36,-157.26 249.65,-146.28 242.4,-137.13"/>
<polygon fill="#63b8ff" stroke="#63b8ff" points="244.99,-134.75 236.03,-129.09 239.5,-139.1 244.99,-134.75"/>
</a>
</g>
</g>
<!-- Node17 -->
<g id="Node000017" class="node">
<title>Node17</title>
<g id="a_Node000017"><a xlink:href="field__base_8h.html" target="_top" xlink:title=" ">
<polygon fill="white" stroke="#666666" points="135.72,-129 14.72,-129 14.72,-110 135.72,-110 135.72,-129"/>
<text text-anchor="middle" x="75.22" y="-117" font-family="Helvetica,sans-Serif" font-size="10.00">common/field_base.h</text>
</a>
</g>
</g>
<!-- Node14&#45;&gt;Node17 -->
<g id="edge19_Node000014_Node000017" class="edge">
<title>Node14&#45;&gt;Node17</title>
<g id="a_edge19_Node000014_Node000017"><a xlink:title=" ">
<path fill="none" stroke="#63b8ff" d="M247.58,-167.11C215.11,-158.33 156.2,-142.4 116.4,-131.63"/>
<polygon fill="#63b8ff" stroke="#63b8ff" points="117.29,-128.25 106.72,-129.02 115.46,-135.01 117.29,-128.25"/>
</a>
</g>
</g>
<!-- Node17&#45;&gt;Node10 -->
<g id="edge21_Node000017_Node000010" class="edge">
<title>Node17&#45;&gt;Node10</title>
<g id="a_edge21_Node000017_Node000010"><a xlink:title=" ">
<path fill="none" stroke="#63b8ff" d="M133.23,-109.98C210.69,-98.61 345.15,-78.87 405.43,-70.02"/>
<polygon fill="#63b8ff" stroke="#63b8ff" points="406.08,-73.46 415.46,-68.55 405.06,-66.54 406.08,-73.46"/>
</a>
</g>
</g>
<!-- Node17&#45;&gt;Node15 -->
<g id="edge20_Node000017_Node000015" class="edge">
<title>Node17&#45;&gt;Node15</title>
<g id="a_edge20_Node000017_Node000015"><a xlink:title=" ">
<path fill="none" stroke="#63b8ff" d="M67.96,-109.75C61.68,-102.18 52.44,-91.05 44.79,-81.84"/>
<polygon fill="#63b8ff" stroke="#63b8ff" points="47.44,-79.55 38.36,-74.09 42.05,-84.02 47.44,-79.55"/>
</a>
</g>
</g>
<!-- Node18&#45;&gt;Node9 -->
<g id="edge25_Node000018_Node000009" class="edge">
<title>Node18&#45;&gt;Node9</title>
<g id="a_edge25_Node000018_Node000009"><a xlink:title=" ">
<path fill="none" stroke="#63b8ff" d="M928.29,-219.66C912.01,-201.54 874.62,-159.91 853.84,-136.77"/>
<polygon fill="#63b8ff" stroke="#63b8ff" points="856.29,-134.26 847,-129.16 851.08,-138.94 856.29,-134.26"/>
</a>
</g>
</g>
<!-- Node18&#45;&gt;Node10 -->
<g id="edge28_Node000018_Node000010" class="edge">
<title>Node18&#45;&gt;Node10</title>
<g id="a_edge28_Node000018_Node000010"><a xlink:title=" ">
<path fill="none" stroke="#63b8ff" d="M937.72,-219.71C940.95,-197.51 945.9,-138.92 914.22,-110 881.19,-79.84 567.42,-68.97 466.98,-66.25"/>
<polygon fill="#63b8ff" stroke="#63b8ff" points="466.97,-62.74 456.88,-65.98 466.78,-69.74 466.97,-62.74"/>
</a>
</g>
</g>
<!-- Node18&#45;&gt;Node14 -->
<g id="edge27_Node000018_Node000014" class="edge">
<title>Node18&#45;&gt;Node14</title>
<g id="a_edge27_Node000018_Node000014"><a xlink:title=" ">
<path fill="none" stroke="#63b8ff" d="M892.08,-224.98C767.71,-215.07 416.31,-187.06 305.28,-178.21"/>
<polygon fill="#63b8ff" stroke="#63b8ff" points="305.26,-174.7 295.01,-177.4 304.7,-181.68 305.26,-174.7"/>
</a>
</g>
</g>
<!-- Node19 -->
<g id="Node000019" class="node">
<title>Node19</title>
<g id="a_Node000019"><a xlink:title=" ">
<polygon fill="#e0e0e0" stroke="#999999" points="1031.72,-184 966.72,-184 966.72,-165 1031.72,-165 1031.72,-184"/>
<text text-anchor="middle" x="999.22" y="-172" font-family="Helvetica,sans-Serif" font-size="10.00">functional</text>
</a>
</g>
</g>
<!-- Node18&#45;&gt;Node19 -->
<g id="edge24_Node000018_Node000019" class="edge">
<title>Node18&#45;&gt;Node19</title>
<g id="a_edge24_Node000018_Node000019"><a xlink:title=" ">
<path fill="none" stroke="#63b8ff" d="M946.35,-219.98C955.66,-212.15 969.69,-200.34 980.96,-190.86"/>
<polygon fill="#63b8ff" stroke="#63b8ff" points="983.52,-193.29 988.92,-184.17 979.01,-187.93 983.52,-193.29"/>
</a>
</g>
</g>
<!-- Node20 -->
<g id="Node000020" class="node">
<title>Node20</title>
<g id="a_Node000020"><a xlink:title=" ">
<polygon fill="#e0e0e0" stroke="#999999" points="1174.22,-184 1050.22,-184 1050.22,-165 1174.22,-165 1174.22,-184"/>
<text text-anchor="middle" x="1112.22" y="-172" font-family="Helvetica,sans-Serif" font-size="10.00">eventpp/callbacklist.h</text>
</a>
</g>
</g>
<!-- Node18&#45;&gt;Node20 -->
<g id="edge26_Node000018_Node000020" class="edge">
<title>Node18&#45;&gt;Node20</title>
<g id="a_edge26_Node000018_Node000020"><a xlink:title=" ">
<path fill="none" stroke="#63b8ff" d="M964.5,-219.98C994.18,-211.05 1041.01,-196.94 1073.98,-187.02"/>
<polygon fill="#63b8ff" stroke="#63b8ff" points="1075.16,-190.32 1083.73,-184.08 1073.14,-183.61 1075.16,-190.32"/>
</a>
</g>
</g>
</g>
</svg>
