<?xml version="1.0" encoding="UTF-8" standalone="no"?>
<!DOCTYPE svg PUBLIC "-//W3C//DTD SVG 1.1//EN"
 "http://www.w3.org/Graphics/SVG/1.1/DTD/svg11.dtd">
<!-- Generated by graphviz version 2.43.0 (0)
 -->
<!-- Title: client/include/webcface/image_frame.h Pages: 1 -->
<svg width="406pt" height="170pt"
 viewBox="0.00 0.00 406.00 170.00" xmlns="http://www.w3.org/2000/svg" xmlns:xlink="http://www.w3.org/1999/xlink">
<g id="graph0" class="graph" transform="scale(1 1) rotate(0) translate(4 166)">
<title>client/include/webcface/image_frame.h</title>
<!-- Node1 -->
<g id="Node000001" class="node">
<title>Node1</title>
<g id="a_Node000001"><a xlink:title=" ">
<polygon fill="#999999" stroke="#666666" points="234.5,-162 103.5,-162 103.5,-132 234.5,-132 234.5,-162"/>
<text text-anchor="start" x="111.5" y="-150" font-family="Helvetica,sans-Serif" font-size="10.00">client/include/webcface</text>
<text text-anchor="middle" x="169" y="-139" font-family="Helvetica,sans-Serif" font-size="10.00">/image_frame.h</text>
</a>
</g>
</g>
<!-- Node2 -->
<g id="Node000002" class="node">
<title>Node2</title>
<g id="a_Node000002"><a xlink:title=" ">
<polygon fill="#e0e0e0" stroke="#999999" points="56,-90.5 0,-90.5 0,-71.5 56,-71.5 56,-90.5"/>
<text text-anchor="middle" x="28" y="-78.5" font-family="Helvetica,sans-Serif" font-size="10.00">optional</text>
</a>
</g>
</g>
<!-- Node1&#45;&gt;Node2 -->
<g id="edge1_Node000001_Node000002" class="edge">
<title>Node1&#45;&gt;Node2</title>
<g id="a_edge1_Node000001_Node000002"><a xlink:title=" ">
<path fill="none" stroke="#63b8ff" d="M138.06,-131.95C113.55,-120.83 79.61,-105.42 55.92,-94.67"/>
<polygon fill="#63b8ff" stroke="#63b8ff" points="57.32,-91.46 46.76,-90.52 54.42,-97.84 57.32,-91.46"/>
</a>
</g>
</g>
<!-- Node3 -->
<g id="Node000003" class="node">
<title>Node3</title>
<g id="a_Node000003"><a xlink:title=" ">
<polygon fill="#e0e0e0" stroke="#999999" points="121.5,-90.5 74.5,-90.5 74.5,-71.5 121.5,-71.5 121.5,-90.5"/>
<text text-anchor="middle" x="98" y="-78.5" font-family="Helvetica,sans-Serif" font-size="10.00">vector</text>
</a>
</g>
</g>
<!-- Node1&#45;&gt;Node3 -->
<g id="edge2_Node000001_Node000003" class="edge">
<title>Node1&#45;&gt;Node3</title>
<g id="a_edge2_Node000001_Node000003"><a xlink:title=" ">
<path fill="none" stroke="#63b8ff" d="M153.24,-131.8C142.07,-121.72 127.06,-108.19 115.51,-97.78"/>
<polygon fill="#63b8ff" stroke="#63b8ff" points="117.58,-94.94 107.81,-90.84 112.9,-100.14 117.58,-94.94"/>
</a>
</g>
</g>
<!-- Node4 -->
<g id="Node000004" class="node">
<title>Node4</title>
<g id="a_Node000004"><a xlink:title=" ">
<polygon fill="#e0e0e0" stroke="#999999" points="198,-90.5 140,-90.5 140,-71.5 198,-71.5 198,-90.5"/>
<text text-anchor="middle" x="169" y="-78.5" font-family="Helvetica,sans-Serif" font-size="10.00">memory</text>
</a>
</g>
</g>
<!-- Node1&#45;&gt;Node4 -->
<g id="edge3_Node000001_Node000004" class="edge">
<title>Node1&#45;&gt;Node4</title>
<g id="a_edge3_Node000001_Node000004"><a xlink:title=" ">
<path fill="none" stroke="#63b8ff" d="M169,-131.8C169,-122.7 169,-110.79 169,-100.9"/>
<polygon fill="#63b8ff" stroke="#63b8ff" points="172.5,-100.84 169,-90.84 165.5,-100.84 172.5,-100.84"/>
</a>
</g>
</g>
<!-- Node5 -->
<g id="Node000005" class="node">
<title>Node5</title>
<g id="a_Node000005"><a xlink:title=" ">
<polygon fill="#e0e0e0" stroke="#999999" points="355,-30 197,-30 197,0 355,0 355,-30"/>
<text text-anchor="start" x="205" y="-18" font-family="Helvetica,sans-Serif" font-size="10.00">webcface/common/webcface</text>
<text text-anchor="middle" x="276" y="-7" font-family="Helvetica,sans-Serif" font-size="10.00">&#45;config.h</text>
</a>
</g>
</g>
<!-- Node1&#45;&gt;Node5 -->
<g id="edge4_Node000001_Node000005" class="edge">
<title>Node1&#45;&gt;Node5</title>
<g id="a_edge4_Node000001_Node000005"><a xlink:title=" ">
<path fill="none" stroke="#63b8ff" d="M180.65,-131.84C199.23,-109.28 235.69,-64.98 257.74,-38.18"/>
<polygon fill="#63b8ff" stroke="#63b8ff" points="260.71,-40.09 264.36,-30.14 255.3,-35.64 260.71,-40.09"/>
</a>
</g>
</g>
<!-- Node6 -->
<g id="Node000006" class="node">
<title>Node6</title>
<g id="a_Node000006"><a xlink:href="image__mode_8h.html" target="_top" xlink:title=" ">
<polygon fill="white" stroke="#666666" points="398,-96 254,-96 254,-66 398,-66 398,-96"/>
<text text-anchor="start" x="262" y="-84" font-family="Helvetica,sans-Serif" font-size="10.00">webcface/encoding/image</text>
<text text-anchor="middle" x="326" y="-73" font-family="Helvetica,sans-Serif" font-size="10.00">_mode.h</text>
</a>
</g>
</g>
<!-- Node1&#45;&gt;Node6 -->
<g id="edge5_Node000001_Node000006" class="edge">
<title>Node1&#45;&gt;Node6</title>
<g id="a_edge5_Node000001_Node000006"><a xlink:title=" ">
<path fill="none" stroke="#63b8ff" d="M203.45,-131.95C226.56,-122.53 257.2,-110.04 282.06,-99.91"/>
<polygon fill="#63b8ff" stroke="#63b8ff" points="283.69,-103.03 291.63,-96.01 281.04,-96.55 283.69,-103.03"/>
</a>
</g>
</g>
<!-- Node6&#45;&gt;Node5 -->
<g id="edge6_Node000006_Node000005" class="edge">
<title>Node6&#45;&gt;Node5</title>
<g id="a_edge6_Node000006_Node000005"><a xlink:title=" ">
<path fill="none" stroke="#63b8ff" d="M314.9,-65.8C308.56,-57.68 300.46,-47.31 293.3,-38.15"/>
<polygon fill="#63b8ff" stroke="#63b8ff" points="295.98,-35.89 287.07,-30.16 290.46,-40.2 295.98,-35.89"/>
</a>
</g>
</g>
</g>
</svg>
