<?xml version="1.0" encoding="UTF-8" standalone="no"?>
<!DOCTYPE svg PUBLIC "-//W3C//DTD SVG 1.1//EN"
 "http://www.w3.org/Graphics/SVG/1.1/DTD/svg11.dtd">
<!-- Generated by graphviz version 2.43.0 (0)
 -->
<!-- Title: client/include/webcface/image.h Pages: 1 -->
<svg width="977pt" height="225pt"
 viewBox="0.00 0.00 977.00 225.00" xmlns="http://www.w3.org/2000/svg" xmlns:xlink="http://www.w3.org/1999/xlink">
<g id="graph0" class="graph" transform="scale(1 1) rotate(0) translate(4 221)">
<title>client/include/webcface/image.h</title>
<!-- Node1 -->
<g id="Node000001" class="node">
<title>Node1</title>
<g id="a_Node000001"><a xlink:title=" ">
<polygon fill="#999999" stroke="#666666" points="296,-217 165,-217 165,-187 296,-187 296,-217"/>
<text text-anchor="start" x="173" y="-205" font-family="Helvetica,sans-Serif" font-size="10.00">client/include/webcface</text>
<text text-anchor="middle" x="230.5" y="-194" font-family="Helvetica,sans-Serif" font-size="10.00">/image.h</text>
</a>
</g>
</g>
<!-- Node2 -->
<g id="Node000002" class="node">
<title>Node2</title>
<g id="a_Node000002"><a xlink:title=" ">
<polygon fill="#e0e0e0" stroke="#999999" points="65,-151 0,-151 0,-132 65,-132 65,-151"/>
<text text-anchor="middle" x="32.5" y="-139" font-family="Helvetica,sans-Serif" font-size="10.00">functional</text>
</a>
</g>
</g>
<!-- Node1&#45;&gt;Node2 -->
<g id="edge1_Node000001_Node000002" class="edge">
<title>Node1&#45;&gt;Node2</title>
<g id="a_edge1_Node000001_Node000002"><a xlink:title=" ">
<path fill="none" stroke="#63b8ff" d="M183.07,-186.99C148.9,-176.89 103.36,-163.44 71.34,-153.98"/>
<polygon fill="#63b8ff" stroke="#63b8ff" points="72.03,-150.53 61.45,-151.05 70.05,-157.24 72.03,-150.53"/>
</a>
</g>
</g>
<!-- Node3 -->
<g id="Node000003" class="node">
<title>Node3</title>
<g id="a_Node000003"><a xlink:title=" ">
<polygon fill="#e0e0e0" stroke="#999999" points="177.5,-90.5 121.5,-90.5 121.5,-71.5 177.5,-71.5 177.5,-90.5"/>
<text text-anchor="middle" x="149.5" y="-78.5" font-family="Helvetica,sans-Serif" font-size="10.00">optional</text>
</a>
</g>
</g>
<!-- Node1&#45;&gt;Node3 -->
<g id="edge2_Node000001_Node000003" class="edge">
<title>Node1&#45;&gt;Node3</title>
<g id="a_edge2_Node000001_Node000003"><a xlink:title=" ">
<path fill="none" stroke="#63b8ff" d="M220.89,-186.88C205.94,-164.92 177.18,-122.66 161.1,-99.04"/>
<polygon fill="#63b8ff" stroke="#63b8ff" points="163.95,-97.01 155.43,-90.71 158.16,-100.95 163.95,-97.01"/>
</a>
</g>
</g>
<!-- Node4 -->
<g id="Node000004" class="node">
<title>Node4</title>
<g id="a_Node000004"><a xlink:title=" ">
<polygon fill="#e0e0e0" stroke="#999999" points="620.5,-151 570.5,-151 570.5,-132 620.5,-132 620.5,-151"/>
<text text-anchor="middle" x="595.5" y="-139" font-family="Helvetica,sans-Serif" font-size="10.00">chrono</text>
</a>
</g>
</g>
<!-- Node1&#45;&gt;Node4 -->
<g id="edge3_Node000001_Node000004" class="edge">
<title>Node1&#45;&gt;Node4</title>
<g id="a_edge3_Node000001_Node000004"><a xlink:title=" ">
<path fill="none" stroke="#63b8ff" d="M296.14,-192.96C360.93,-184.59 462.98,-170.29 560.3,-151.08"/>
<polygon fill="#63b8ff" stroke="#63b8ff" points="561.19,-154.47 570.31,-149.08 559.82,-147.6 561.19,-154.47"/>
</a>
</g>
</g>
<!-- Node5 -->
<g id="Node000005" class="node">
<title>Node5</title>
<g id="a_Node000005"><a xlink:href="image__frame_8h.html" target="_top" xlink:title=" ">
<polygon fill="white" stroke="#666666" points="363,-151 272,-151 272,-132 363,-132 363,-151"/>
<text text-anchor="middle" x="317.5" y="-139" font-family="Helvetica,sans-Serif" font-size="10.00">image_frame.h</text>
</a>
</g>
</g>
<!-- Node1&#45;&gt;Node5 -->
<g id="edge4_Node000001_Node000005" class="edge">
<title>Node1&#45;&gt;Node5</title>
<g id="a_edge4_Node000001_Node000005"><a xlink:title=" ">
<path fill="none" stroke="#63b8ff" d="M251.56,-186.84C265.04,-177.77 282.49,-166.04 296.05,-156.92"/>
<polygon fill="#63b8ff" stroke="#63b8ff" points="298.37,-159.58 304.72,-151.09 294.47,-153.77 298.37,-159.58"/>
</a>
</g>
</g>
<!-- Node8 -->
<g id="Node000008" class="node">
<title>Node8</title>
<g id="a_Node000008"><a xlink:title=" ">
<polygon fill="#e0e0e0" stroke="#999999" points="446.5,-30 288.5,-30 288.5,0 446.5,0 446.5,-30"/>
<text text-anchor="start" x="296.5" y="-18" font-family="Helvetica,sans-Serif" font-size="10.00">webcface/common/webcface</text>
<text text-anchor="middle" x="367.5" y="-7" font-family="Helvetica,sans-Serif" font-size="10.00">&#45;config.h</text>
</a>
</g>
</g>
<!-- Node1&#45;&gt;Node8 -->
<g id="edge25_Node000001_Node000008" class="edge">
<title>Node1&#45;&gt;Node8</title>
<g id="a_edge25_Node000001_Node000008"><a xlink:title=" ">
<path fill="none" stroke="#63b8ff" d="M201.71,-186.86C155.95,-162.54 75.41,-111.07 112.5,-66 133.38,-40.62 213.1,-27.94 277.92,-21.71"/>
<polygon fill="#63b8ff" stroke="#63b8ff" points="278.54,-25.17 288.18,-20.77 277.9,-18.2 278.54,-25.17"/>
</a>
</g>
</g>
<!-- Node10 -->
<g id="Node000010" class="node">
<title>Node10</title>
<g id="a_Node000010"><a xlink:href="field_8h.html" target="_top" xlink:title=" ">
<polygon fill="white" stroke="#666666" points="552,-151 505,-151 505,-132 552,-132 552,-151"/>
<text text-anchor="middle" x="528.5" y="-139" font-family="Helvetica,sans-Serif" font-size="10.00">field.h</text>
</a>
</g>
</g>
<!-- Node1&#45;&gt;Node10 -->
<g id="edge11_Node000001_Node000010" class="edge">
<title>Node1&#45;&gt;Node10</title>
<g id="a_edge11_Node000001_Node000010"><a xlink:title=" ">
<path fill="none" stroke="#63b8ff" d="M296.27,-188.09C357.75,-176.02 447.06,-158.49 495.04,-149.07"/>
<polygon fill="#63b8ff" stroke="#63b8ff" points="495.76,-152.49 504.9,-147.13 494.42,-145.62 495.76,-152.49"/>
</a>
</g>
</g>
<!-- Node5&#45;&gt;Node3 -->
<g id="edge5_Node000005_Node000003" class="edge">
<title>Node5&#45;&gt;Node3</title>
<g id="a_edge5_Node000005_Node000003"><a xlink:title=" ">
<path fill="none" stroke="#63b8ff" d="M291.31,-131.9C264.8,-123.12 222.67,-108.98 186.5,-96 184.86,-95.41 183.17,-94.8 181.48,-94.18"/>
<polygon fill="#63b8ff" stroke="#63b8ff" points="182.35,-90.77 171.76,-90.56 179.91,-97.33 182.35,-90.77"/>
</a>
</g>
</g>
<!-- Node6 -->
<g id="Node000006" class="node">
<title>Node6</title>
<g id="a_Node000006"><a xlink:title=" ">
<polygon fill="#e0e0e0" stroke="#999999" points="481,-90.5 434,-90.5 434,-71.5 481,-71.5 481,-90.5"/>
<text text-anchor="middle" x="457.5" y="-78.5" font-family="Helvetica,sans-Serif" font-size="10.00">vector</text>
</a>
</g>
</g>
<!-- Node5&#45;&gt;Node6 -->
<g id="edge6_Node000005_Node000006" class="edge">
<title>Node5&#45;&gt;Node6</title>
<g id="a_edge6_Node000005_Node000006"><a xlink:title=" ">
<path fill="none" stroke="#63b8ff" d="M337.86,-131.99C361.5,-122.12 400.7,-105.73 427.75,-94.43"/>
<polygon fill="#63b8ff" stroke="#63b8ff" points="429.24,-97.6 437.12,-90.52 426.54,-91.14 429.24,-97.6"/>
</a>
</g>
</g>
<!-- Node7 -->
<g id="Node000007" class="node">
<title>Node7</title>
<g id="a_Node000007"><a xlink:title=" ">
<polygon fill="#e0e0e0" stroke="#999999" points="533.5,-24.5 475.5,-24.5 475.5,-5.5 533.5,-5.5 533.5,-24.5"/>
<text text-anchor="middle" x="504.5" y="-12.5" font-family="Helvetica,sans-Serif" font-size="10.00">memory</text>
</a>
</g>
</g>
<!-- Node5&#45;&gt;Node7 -->
<g id="edge7_Node000005_Node000007" class="edge">
<title>Node5&#45;&gt;Node7</title>
<g id="a_edge7_Node000005_Node000007"><a xlink:title=" ">
<path fill="none" stroke="#63b8ff" d="M329.56,-131.81C349.24,-117.7 389.55,-89.07 424.5,-66 443.47,-53.48 465.38,-39.84 481.47,-29.98"/>
<polygon fill="#63b8ff" stroke="#63b8ff" points="483.49,-32.84 490.2,-24.64 479.84,-26.87 483.49,-32.84"/>
</a>
</g>
</g>
<!-- Node5&#45;&gt;Node8 -->
<g id="edge8_Node000005_Node000008" class="edge">
<title>Node5&#45;&gt;Node8</title>
<g id="a_edge8_Node000005_Node000008"><a xlink:title=" ">
<path fill="none" stroke="#63b8ff" d="M324.98,-131.9C332.04,-123.35 342.42,-109.58 348.5,-96 356.46,-78.21 361.33,-56.65 364.15,-40.4"/>
<polygon fill="#63b8ff" stroke="#63b8ff" points="367.67,-40.53 365.78,-30.1 360.76,-39.43 367.67,-40.53"/>
</a>
</g>
</g>
<!-- Node9 -->
<g id="Node000009" class="node">
<title>Node9</title>
<g id="a_Node000009"><a xlink:href="image__mode_8h.html" target="_top" xlink:title=" ">
<polygon fill="white" stroke="#666666" points="339.5,-96 195.5,-96 195.5,-66 339.5,-66 339.5,-96"/>
<text text-anchor="start" x="203.5" y="-84" font-family="Helvetica,sans-Serif" font-size="10.00">webcface/encoding/image</text>
<text text-anchor="middle" x="267.5" y="-73" font-family="Helvetica,sans-Serif" font-size="10.00">_mode.h</text>
</a>
</g>
</g>
<!-- Node5&#45;&gt;Node9 -->
<g id="edge9_Node000005_Node000009" class="edge">
<title>Node5&#45;&gt;Node9</title>
<g id="a_edge9_Node000005_Node000009"><a xlink:title=" ">
<path fill="none" stroke="#63b8ff" d="M310.12,-131.87C303.84,-124.52 294.54,-113.63 286.23,-103.91"/>
<polygon fill="#63b8ff" stroke="#63b8ff" points="288.72,-101.44 279.56,-96.11 283.4,-105.99 288.72,-101.44"/>
</a>
</g>
</g>
<!-- Node9&#45;&gt;Node8 -->
<g id="edge10_Node000009_Node000008" class="edge">
<title>Node9&#45;&gt;Node8</title>
<g id="a_edge10_Node000009_Node000008"><a xlink:title=" ">
<path fill="none" stroke="#63b8ff" d="M289.69,-65.8C303.55,-56.93 321.57,-45.39 336.79,-35.66"/>
<polygon fill="#63b8ff" stroke="#63b8ff" points="338.83,-38.5 345.37,-30.16 335.06,-32.61 338.83,-38.5"/>
</a>
</g>
</g>
<!-- Node10&#45;&gt;Node6 -->
<g id="edge15_Node000010_Node000006" class="edge">
<title>Node10&#45;&gt;Node6</title>
<g id="a_edge15_Node000010_Node000006"><a xlink:title=" ">
<path fill="none" stroke="#63b8ff" d="M518.02,-131.87C507.01,-122.8 489.46,-108.34 476.09,-97.32"/>
<polygon fill="#63b8ff" stroke="#63b8ff" points="477.96,-94.33 468.02,-90.67 473.51,-99.73 477.96,-94.33"/>
</a>
</g>
</g>
<!-- Node10&#45;&gt;Node7 -->
<g id="edge12_Node000010_Node000007" class="edge">
<title>Node10&#45;&gt;Node7</title>
<g id="a_edge12_Node000010_Node000007"><a xlink:title=" ">
<path fill="none" stroke="#63b8ff" d="M528.74,-131.67C528.95,-117.59 528.59,-89.3 523.5,-66 521.11,-55.06 516.75,-43.33 512.82,-33.98"/>
<polygon fill="#63b8ff" stroke="#63b8ff" points="515.92,-32.34 508.67,-24.61 509.52,-35.17 515.92,-32.34"/>
</a>
</g>
</g>
<!-- Node10&#45;&gt;Node8 -->
<g id="edge16_Node000010_Node000008" class="edge">
<title>Node10&#45;&gt;Node8</title>
<g id="a_edge16_Node000010_Node000008"><a xlink:title=" ">
<path fill="none" stroke="#63b8ff" d="M526.15,-131.92C521.56,-116.67 510.01,-84.68 489.5,-66 473.72,-51.63 453.25,-41.09 433.6,-33.51"/>
<polygon fill="#63b8ff" stroke="#63b8ff" points="434.64,-30.16 424.04,-30.01 432.24,-36.73 434.64,-30.16"/>
</a>
</g>
</g>
<!-- Node11 -->
<g id="Node000011" class="node">
<title>Node11</title>
<g id="a_Node000011"><a xlink:title=" ">
<polygon fill="#e0e0e0" stroke="#999999" points="595.5,-24.5 551.5,-24.5 551.5,-5.5 595.5,-5.5 595.5,-24.5"/>
<text text-anchor="middle" x="573.5" y="-12.5" font-family="Helvetica,sans-Serif" font-size="10.00">string</text>
</a>
</g>
</g>
<!-- Node10&#45;&gt;Node11 -->
<g id="edge13_Node000010_Node000011" class="edge">
<title>Node10&#45;&gt;Node11</title>
<g id="a_edge13_Node000010_Node000011"><a xlink:title=" ">
<path fill="none" stroke="#63b8ff" d="M531.59,-131.94C538.85,-111.86 557.1,-61.37 566.95,-34.12"/>
<polygon fill="#63b8ff" stroke="#63b8ff" points="570.28,-35.21 570.39,-24.62 563.69,-32.83 570.28,-35.21"/>
</a>
</g>
</g>
<!-- Node12 -->
<g id="Node000012" class="node">
<title>Node12</title>
<g id="a_Node000012"><a xlink:title=" ">
<polygon fill="#e0e0e0" stroke="#999999" points="969,-24.5 896,-24.5 896,-5.5 969,-5.5 969,-24.5"/>
<text text-anchor="middle" x="932.5" y="-12.5" font-family="Helvetica,sans-Serif" font-size="10.00">string_view</text>
</a>
</g>
</g>
<!-- Node10&#45;&gt;Node12 -->
<g id="edge14_Node000010_Node000012" class="edge">
<title>Node10&#45;&gt;Node12</title>
<g id="a_edge14_Node000010_Node000012"><a xlink:title=" ">
<path fill="none" stroke="#63b8ff" d="M552.23,-134.1C555.34,-133.35 558.49,-132.62 561.5,-132 661.95,-111.18 692.56,-129.57 789.5,-96 836.15,-79.85 885.27,-48.83 912.07,-30.53"/>
<polygon fill="#63b8ff" stroke="#63b8ff" points="914.35,-33.2 920.58,-24.63 910.36,-27.45 914.35,-33.2"/>
</a>
</g>
</g>
<!-- Node13 -->
<g id="Node000013" class="node">
<title>Node13</title>
<g id="a_Node000013"><a xlink:href="encoding_8h.html" target="_top" xlink:title=" ">
<polygon fill="white" stroke="#666666" points="780,-90.5 613,-90.5 613,-71.5 780,-71.5 780,-90.5"/>
<text text-anchor="middle" x="696.5" y="-78.5" font-family="Helvetica,sans-Serif" font-size="10.00">webcface/encoding/encoding.h</text>
</a>
</g>
</g>
<!-- Node10&#45;&gt;Node13 -->
<g id="edge17_Node000010_Node000013" class="edge">
<title>Node10&#45;&gt;Node13</title>
<g id="a_edge17_Node000010_Node000013"><a xlink:title=" ">
<path fill="none" stroke="#63b8ff" d="M552.21,-132.24C580.98,-122.22 629.7,-105.26 662.47,-93.85"/>
<polygon fill="#63b8ff" stroke="#63b8ff" points="663.8,-97.09 672.09,-90.5 661.49,-90.48 663.8,-97.09"/>
</a>
</g>
</g>
<!-- Node13&#45;&gt;Node7 -->
<g id="edge20_Node000013_Node000007" class="edge">
<title>Node13&#45;&gt;Node7</title>
<g id="a_edge20_Node000013_Node000007"><a xlink:title=" ">
<path fill="none" stroke="#63b8ff" d="M669.13,-71.47C638.25,-61.76 586.59,-45.27 542.5,-30 540.66,-29.36 538.77,-28.7 536.86,-28.02"/>
<polygon fill="#63b8ff" stroke="#63b8ff" points="537.95,-24.69 527.36,-24.58 535.57,-31.27 537.95,-24.69"/>
</a>
</g>
</g>
<!-- Node13&#45;&gt;Node8 -->
<g id="edge24_Node000013_Node000008" class="edge">
<title>Node13&#45;&gt;Node8</title>
<g id="a_edge24_Node000013_Node000008"><a xlink:title=" ">
<path fill="none" stroke="#63b8ff" d="M652.47,-71.44C600.78,-61.38 513.96,-44.49 449.71,-31.99"/>
<polygon fill="#63b8ff" stroke="#63b8ff" points="450.08,-28.5 439.6,-30.02 448.74,-35.37 450.08,-28.5"/>
</a>
</g>
</g>
<!-- Node13&#45;&gt;Node11 -->
<g id="edge18_Node000013_Node000011" class="edge">
<title>Node13&#45;&gt;Node11</title>
<g id="a_edge18_Node000013_Node000011"><a xlink:title=" ">
<path fill="none" stroke="#63b8ff" d="M679.91,-71.37C659.19,-60.59 623.5,-42.02 599.22,-29.38"/>
<polygon fill="#63b8ff" stroke="#63b8ff" points="600.7,-26.21 590.22,-24.7 597.47,-32.42 600.7,-26.21"/>
</a>
</g>
</g>
<!-- Node13&#45;&gt;Node12 -->
<g id="edge19_Node000013_Node000012" class="edge">
<title>Node13&#45;&gt;Node12</title>
<g id="a_edge19_Node000013_Node000012"><a xlink:title=" ">
<path fill="none" stroke="#63b8ff" d="M730.59,-71.45C768.69,-61.79 832.19,-45.4 886.5,-30 889.29,-29.21 892.16,-28.38 895.05,-27.53"/>
<polygon fill="#63b8ff" stroke="#63b8ff" points="896.24,-30.82 904.82,-24.61 894.24,-24.12 896.24,-30.82"/>
</a>
</g>
</g>
<!-- Node14 -->
<g id="Node000014" class="node">
<title>Node14</title>
<g id="a_Node000014"><a xlink:title=" ">
<polygon fill="#e0e0e0" stroke="#999999" points="877.5,-24.5 829.5,-24.5 829.5,-5.5 877.5,-5.5 877.5,-24.5"/>
<text text-anchor="middle" x="853.5" y="-12.5" font-family="Helvetica,sans-Serif" font-size="10.00">mutex</text>
</a>
</g>
</g>
<!-- Node13&#45;&gt;Node14 -->
<g id="edge21_Node000013_Node000014" class="edge">
<title>Node13&#45;&gt;Node14</title>
<g id="a_edge21_Node000013_Node000014"><a xlink:title=" ">
<path fill="none" stroke="#63b8ff" d="M718.05,-71.45C742.83,-61.58 784.68,-44.82 820.5,-30 821.66,-29.52 822.85,-29.03 824.05,-28.53"/>
<polygon fill="#63b8ff" stroke="#63b8ff" points="825.42,-31.75 833.28,-24.65 822.7,-25.29 825.42,-31.75"/>
</a>
</g>
</g>
<!-- Node15 -->
<g id="Node000015" class="node">
<title>Node15</title>
<g id="a_Node000015"><a xlink:title=" ">
<polygon fill="#e0e0e0" stroke="#999999" points="707,-24.5 614,-24.5 614,-5.5 707,-5.5 707,-24.5"/>
<text text-anchor="middle" x="660.5" y="-12.5" font-family="Helvetica,sans-Serif" font-size="10.00">unordered_map</text>
</a>
</g>
</g>
<!-- Node13&#45;&gt;Node15 -->
<g id="edge22_Node000013_Node000015" class="edge">
<title>Node13&#45;&gt;Node15</title>
<g id="a_edge22_Node000013_Node000015"><a xlink:title=" ">
<path fill="none" stroke="#63b8ff" d="M691.64,-71.37C686.25,-61.78 677.4,-46.05 670.51,-33.8"/>
<polygon fill="#63b8ff" stroke="#63b8ff" points="673.46,-31.91 665.51,-24.91 667.36,-35.34 673.46,-31.91"/>
</a>
</g>
</g>
<!-- Node16 -->
<g id="Node000016" class="node">
<title>Node16</title>
<g id="a_Node000016"><a xlink:title=" ">
<polygon fill="#e0e0e0" stroke="#999999" points="811.5,-24.5 725.5,-24.5 725.5,-5.5 811.5,-5.5 811.5,-24.5"/>
<text text-anchor="middle" x="768.5" y="-12.5" font-family="Helvetica,sans-Serif" font-size="10.00">unordered_set</text>
</a>
</g>
</g>
<!-- Node13&#45;&gt;Node16 -->
<g id="edge23_Node000013_Node000016" class="edge">
<title>Node13&#45;&gt;Node16</title>
<g id="a_edge23_Node000013_Node000016"><a xlink:title=" ">
<path fill="none" stroke="#63b8ff" d="M706.21,-71.37C717.63,-61.21 736.82,-44.16 750.89,-31.65"/>
<polygon fill="#63b8ff" stroke="#63b8ff" points="753.33,-34.16 758.48,-24.91 748.68,-28.93 753.33,-34.16"/>
</a>
</g>
</g>
</g>
</svg>
