<?xml version="1.0" encoding="UTF-8" standalone="no"?>
<!DOCTYPE svg PUBLIC "-//W3C//DTD SVG 1.1//EN"
 "http://www.w3.org/Graphics/SVG/1.1/DTD/svg11.dtd">
<!-- Generated by graphviz version 2.43.0 (0)
 -->
<!-- Title: client/src/image_frame.cc Pages: 1 -->
<svg width="1142pt" height="346pt"
 viewBox="0.00 0.00 1141.53 346.00" xmlns="http://www.w3.org/2000/svg" xmlns:xlink="http://www.w3.org/1999/xlink">
<g id="graph0" class="graph" transform="scale(1 1) rotate(0) translate(4 342)">
<title>client/src/image_frame.cc</title>
<!-- Node1 -->
<g id="Node000001" class="node">
<title>Node1</title>
<g id="a_Node000001"><a xlink:title=" ">
<polygon fill="#999999" stroke="#666666" points="295.02,-338 152.02,-338 152.02,-319 295.02,-319 295.02,-338"/>
<text text-anchor="middle" x="223.52" y="-326" font-family="Helvetica,sans-Serif" font-size="10.00">client/src/image_frame.cc</text>
</a>
</g>
</g>
<!-- Node2 -->
<g id="Node000002" class="node">
<title>Node2</title>
<g id="a_Node000002"><a xlink:title=" ">
<polygon fill="#e0e0e0" stroke="#999999" points="195.02,-283 142.02,-283 142.02,-264 195.02,-264 195.02,-283"/>
<text text-anchor="middle" x="168.52" y="-271" font-family="Helvetica,sans-Serif" font-size="10.00">cstddef</text>
</a>
</g>
</g>
<!-- Node1&#45;&gt;Node2 -->
<g id="edge1_Node000001_Node000002" class="edge">
<title>Node1&#45;&gt;Node2</title>
<g id="a_edge1_Node000001_Node000002"><a xlink:title=" ">
<path fill="none" stroke="#63b8ff" d="M214.44,-318.75C206.43,-311.03 194.56,-299.6 184.9,-290.28"/>
<polygon fill="#63b8ff" stroke="#63b8ff" points="187.06,-287.51 177.43,-283.09 182.21,-292.55 187.06,-287.51"/>
</a>
</g>
</g>
<!-- Node3 -->
<g id="Node000003" class="node">
<title>Node3</title>
<g id="a_Node000003"><a xlink:href="image__frame_8h.html" target="_top" xlink:title=" ">
<polygon fill="white" stroke="#666666" points="218.52,-156.5 78.52,-156.5 78.52,-137.5 218.52,-137.5 218.52,-156.5"/>
<text text-anchor="middle" x="148.52" y="-144.5" font-family="Helvetica,sans-Serif" font-size="10.00">webcface/image_frame.h</text>
</a>
</g>
</g>
<!-- Node1&#45;&gt;Node3 -->
<g id="edge2_Node000001_Node000003" class="edge">
<title>Node1&#45;&gt;Node3</title>
<g id="a_edge2_Node000001_Node000003"><a xlink:title=" ">
<path fill="none" stroke="#63b8ff" d="M221.18,-318.74C217.77,-306.37 211.04,-283.15 203.52,-264 189.47,-228.2 169.37,-187.95 157.76,-165.52"/>
<polygon fill="#63b8ff" stroke="#63b8ff" points="160.81,-163.8 153.08,-156.55 154.6,-167.04 160.81,-163.8"/>
</a>
</g>
</g>
<!-- Node9 -->
<g id="Node000009" class="node">
<title>Node9</title>
<g id="a_Node000009"><a xlink:href="message_8h.html" target="_top" xlink:title=" ">
<polygon fill="white" stroke="#666666" points="770.02,-283 603.02,-283 603.02,-264 770.02,-264 770.02,-283"/>
<text text-anchor="middle" x="686.52" y="-271" font-family="Helvetica,sans-Serif" font-size="10.00">webcface/message/message.h</text>
</a>
</g>
</g>
<!-- Node1&#45;&gt;Node9 -->
<g id="edge9_Node000001_Node000009" class="edge">
<title>Node1&#45;&gt;Node9</title>
<g id="a_edge9_Node000001_Node000009"><a xlink:title=" ">
<path fill="none" stroke="#63b8ff" d="M295.1,-319.31C377.96,-309.82 514.26,-294.22 602.18,-284.15"/>
<polygon fill="#63b8ff" stroke="#63b8ff" points="602.59,-287.63 612.13,-283.02 601.8,-280.68 602.59,-287.63"/>
</a>
</g>
</g>
<!-- Node4 -->
<g id="Node000004" class="node">
<title>Node4</title>
<g id="a_Node000004"><a xlink:title=" ">
<polygon fill="#e0e0e0" stroke="#999999" points="70.52,-90.5 14.52,-90.5 14.52,-71.5 70.52,-71.5 70.52,-90.5"/>
<text text-anchor="middle" x="42.52" y="-78.5" font-family="Helvetica,sans-Serif" font-size="10.00">optional</text>
</a>
</g>
</g>
<!-- Node3&#45;&gt;Node4 -->
<g id="edge3_Node000003_Node000004" class="edge">
<title>Node3&#45;&gt;Node4</title>
<g id="a_edge3_Node000003_Node000004"><a xlink:title=" ">
<path fill="none" stroke="#63b8ff" d="M134.23,-137.37C116.6,-126.73 86.43,-108.51 65.53,-95.89"/>
<polygon fill="#63b8ff" stroke="#63b8ff" points="67.3,-92.87 56.93,-90.7 63.68,-98.86 67.3,-92.87"/>
</a>
</g>
</g>
<!-- Node5 -->
<g id="Node000005" class="node">
<title>Node5</title>
<g id="a_Node000005"><a xlink:title=" ">
<polygon fill="#e0e0e0" stroke="#999999" points="336.02,-90.5 289.02,-90.5 289.02,-71.5 336.02,-71.5 336.02,-90.5"/>
<text text-anchor="middle" x="312.52" y="-78.5" font-family="Helvetica,sans-Serif" font-size="10.00">vector</text>
</a>
</g>
</g>
<!-- Node3&#45;&gt;Node5 -->
<g id="edge4_Node000003_Node000005" class="edge">
<title>Node3&#45;&gt;Node5</title>
<g id="a_edge4_Node000003_Node000005"><a xlink:title=" ">
<path fill="none" stroke="#63b8ff" d="M171.81,-137.4C198.08,-127.64 242.04,-111.1 279.52,-96 280.72,-95.52 281.95,-95.02 283.18,-94.51"/>
<polygon fill="#63b8ff" stroke="#63b8ff" points="284.79,-97.63 292.68,-90.56 282.1,-91.17 284.79,-97.63"/>
</a>
</g>
</g>
<!-- Node6 -->
<g id="Node000006" class="node">
<title>Node6</title>
<g id="a_Node000006"><a xlink:title=" ">
<polygon fill="#e0e0e0" stroke="#999999" points="120.52,-24.5 62.52,-24.5 62.52,-5.5 120.52,-5.5 120.52,-24.5"/>
<text text-anchor="middle" x="91.52" y="-12.5" font-family="Helvetica,sans-Serif" font-size="10.00">memory</text>
</a>
</g>
</g>
<!-- Node3&#45;&gt;Node6 -->
<g id="edge5_Node000003_Node000006" class="edge">
<title>Node3&#45;&gt;Node6</title>
<g id="a_edge5_Node000003_Node000006"><a xlink:title=" ">
<path fill="none" stroke="#63b8ff" d="M78.38,-138.78C51.02,-132.14 22.26,-119.59 5.52,-96 -2.2,-85.13 -1.13,-77.56 5.52,-66 15.77,-48.19 35.06,-36.14 52.78,-28.33"/>
<polygon fill="#63b8ff" stroke="#63b8ff" points="54.45,-31.43 62.4,-24.43 51.82,-24.95 54.45,-31.43"/>
</a>
</g>
</g>
<!-- Node7 -->
<g id="Node000007" class="node">
<title>Node7</title>
<g id="a_Node000007"><a xlink:title=" ">
<polygon fill="#e0e0e0" stroke="#999999" points="339.52,-30 181.52,-30 181.52,0 339.52,0 339.52,-30"/>
<text text-anchor="start" x="189.52" y="-18" font-family="Helvetica,sans-Serif" font-size="10.00">webcface/common/webcface</text>
<text text-anchor="middle" x="260.52" y="-7" font-family="Helvetica,sans-Serif" font-size="10.00">&#45;config.h</text>
</a>
</g>
</g>
<!-- Node3&#45;&gt;Node7 -->
<g id="edge6_Node000003_Node000007" class="edge">
<title>Node3&#45;&gt;Node7</title>
<g id="a_edge6_Node000003_Node000007"><a xlink:title=" ">
<path fill="none" stroke="#63b8ff" d="M140.14,-137.39C126.15,-121.97 101.14,-89.08 117.52,-66 130.46,-47.77 150.56,-36.14 171.65,-28.73"/>
<polygon fill="#63b8ff" stroke="#63b8ff" points="172.93,-31.99 181.39,-25.61 170.8,-25.32 172.93,-31.99"/>
</a>
</g>
</g>
<!-- Node8 -->
<g id="Node000008" class="node">
<title>Node8</title>
<g id="a_Node000008"><a xlink:href="image__mode_8h.html" target="_top" xlink:title=" ">
<polygon fill="white" stroke="#666666" points="270.52,-96 126.52,-96 126.52,-66 270.52,-66 270.52,-96"/>
<text text-anchor="start" x="134.52" y="-84" font-family="Helvetica,sans-Serif" font-size="10.00">webcface/encoding/image</text>
<text text-anchor="middle" x="198.52" y="-73" font-family="Helvetica,sans-Serif" font-size="10.00">_mode.h</text>
</a>
</g>
</g>
<!-- Node3&#45;&gt;Node8 -->
<g id="edge7_Node000003_Node000008" class="edge">
<title>Node3&#45;&gt;Node8</title>
<g id="a_edge7_Node000003_Node000008"><a xlink:title=" ">
<path fill="none" stroke="#63b8ff" d="M155.26,-137.37C161.87,-128.91 172.22,-115.67 181.13,-104.25"/>
<polygon fill="#63b8ff" stroke="#63b8ff" points="183.9,-106.4 187.3,-96.36 178.39,-102.09 183.9,-106.4"/>
</a>
</g>
</g>
<!-- Node8&#45;&gt;Node7 -->
<g id="edge8_Node000008_Node000007" class="edge">
<title>Node8&#45;&gt;Node7</title>
<g id="a_edge8_Node000008_Node000007"><a xlink:title=" ">
<path fill="none" stroke="#63b8ff" d="M212.28,-65.8C220.31,-57.51 230.6,-46.89 239.61,-37.59"/>
<polygon fill="#63b8ff" stroke="#63b8ff" points="242.36,-39.78 246.8,-30.16 237.33,-34.91 242.36,-39.78"/>
</a>
</g>
</g>
<!-- Node9&#45;&gt;Node5 -->
<g id="edge13_Node000009_Node000005" class="edge">
<title>Node9&#45;&gt;Node5</title>
<g id="a_edge13_Node000009_Node000005"><a xlink:title=" ">
<path fill="none" stroke="#63b8ff" d="M602.81,-268.17C557.6,-262.97 502.09,-251.8 457.52,-228 397.26,-195.83 346.12,-130.26 324.1,-99.14"/>
<polygon fill="#63b8ff" stroke="#63b8ff" points="326.8,-96.88 318.22,-90.66 321.04,-100.87 326.8,-96.88"/>
</a>
</g>
</g>
<!-- Node9&#45;&gt;Node8 -->
<g id="edge45_Node000009_Node000008" class="edge">
<title>Node9&#45;&gt;Node8</title>
<g id="a_edge45_Node000009_Node000008"><a xlink:title=" ">
<path fill="none" stroke="#63b8ff" d="M602.76,-268.5C546.93,-263.55 472.81,-252.53 411.52,-228 334.9,-197.34 258.34,-135.28 221.37,-102.84"/>
<polygon fill="#63b8ff" stroke="#63b8ff" points="223.48,-100.03 213.68,-96.01 218.83,-105.26 223.48,-100.03"/>
</a>
</g>
</g>
<!-- Node10 -->
<g id="Node000010" class="node">
<title>Node10</title>
<g id="a_Node000010"><a xlink:title=" ">
<polygon fill="#e0e0e0" stroke="#999999" points="436.52,-90.5 354.52,-90.5 354.52,-71.5 436.52,-71.5 436.52,-90.5"/>
<text text-anchor="middle" x="395.52" y="-78.5" font-family="Helvetica,sans-Serif" font-size="10.00">msgpack.hpp</text>
</a>
</g>
</g>
<!-- Node9&#45;&gt;Node10 -->
<g id="edge10_Node000009_Node000010" class="edge">
<title>Node9&#45;&gt;Node10</title>
<g id="a_edge10_Node000009_Node000010"><a xlink:title=" ">
<path fill="none" stroke="#63b8ff" d="M625.86,-263.95C564.65,-252.03 472.04,-224.35 420.52,-162 406,-144.43 399.89,-118.4 397.33,-100.85"/>
<polygon fill="#63b8ff" stroke="#63b8ff" points="400.78,-100.22 396.11,-90.71 393.83,-101.06 400.78,-100.22"/>
</a>
</g>
</g>
<!-- Node11 -->
<g id="Node000011" class="node">
<title>Node11</title>
<g id="a_Node000011"><a xlink:title=" ">
<polygon fill="#e0e0e0" stroke="#999999" points="1014.52,-24.5 970.52,-24.5 970.52,-5.5 1014.52,-5.5 1014.52,-24.5"/>
<text text-anchor="middle" x="992.52" y="-12.5" font-family="Helvetica,sans-Serif" font-size="10.00">string</text>
</a>
</g>
</g>
<!-- Node9&#45;&gt;Node11 -->
<g id="edge11_Node000009_Node000011" class="edge">
<title>Node9&#45;&gt;Node11</title>
<g id="a_edge11_Node000009_Node000011"><a xlink:title=" ">
<path fill="none" stroke="#63b8ff" d="M770.21,-269.13C858.05,-264.3 989.29,-253.05 1032.52,-228 1102.87,-187.23 1163.1,-133.33 1117.52,-66 1096.89,-35.53 1054.36,-23.63 1024.67,-18.98"/>
<polygon fill="#63b8ff" stroke="#63b8ff" points="1025.14,-15.51 1014.76,-17.62 1024.19,-22.44 1025.14,-15.51"/>
</a>
</g>
</g>
<!-- Node12 -->
<g id="Node000012" class="node">
<title>Node12</title>
<g id="a_Node000012"><a xlink:title=" ">
<polygon fill="#e0e0e0" stroke="#999999" points="762.02,-222.5 717.02,-222.5 717.02,-203.5 762.02,-203.5 762.02,-222.5"/>
<text text-anchor="middle" x="739.52" y="-210.5" font-family="Helvetica,sans-Serif" font-size="10.00">utility</text>
</a>
</g>
</g>
<!-- Node9&#45;&gt;Node12 -->
<g id="edge12_Node000009_Node000012" class="edge">
<title>Node9&#45;&gt;Node12</title>
<g id="a_edge12_Node000009_Node000012"><a xlink:title=" ">
<path fill="none" stroke="#63b8ff" d="M694.34,-263.87C702.33,-255.05 714.92,-241.16 724.78,-230.27"/>
<polygon fill="#63b8ff" stroke="#63b8ff" points="727.55,-232.43 731.67,-222.67 722.36,-227.73 727.55,-232.43"/>
</a>
</g>
</g>
<!-- Node13 -->
<g id="Node000013" class="node">
<title>Node13</title>
<g id="a_Node000013"><a xlink:title=" ">
<polygon fill="#e0e0e0" stroke="#999999" points="827.02,-222.5 780.02,-222.5 780.02,-203.5 827.02,-203.5 827.02,-222.5"/>
<text text-anchor="middle" x="803.52" y="-210.5" font-family="Helvetica,sans-Serif" font-size="10.00">deque</text>
</a>
</g>
</g>
<!-- Node9&#45;&gt;Node13 -->
<g id="edge14_Node000009_Node000013" class="edge">
<title>Node9&#45;&gt;Node13</title>
<g id="a_edge14_Node000009_Node000013"><a xlink:title=" ">
<path fill="none" stroke="#63b8ff" d="M703.53,-263.99C722.94,-254.29 754.91,-238.31 777.46,-227.03"/>
<polygon fill="#63b8ff" stroke="#63b8ff" points="779.11,-230.12 786.49,-222.52 775.98,-223.86 779.11,-230.12"/>
</a>
</g>
</g>
<!-- Node14 -->
<g id="Node000014" class="node">
<title>Node14</title>
<g id="a_Node000014"><a xlink:title=" ">
<polygon fill="#e0e0e0" stroke="#999999" points="880.02,-222.5 845.02,-222.5 845.02,-203.5 880.02,-203.5 880.02,-222.5"/>
<text text-anchor="middle" x="862.52" y="-210.5" font-family="Helvetica,sans-Serif" font-size="10.00">any</text>
</a>
</g>
</g>
<!-- Node9&#45;&gt;Node14 -->
<g id="edge15_Node000009_Node000014" class="edge">
<title>Node9&#45;&gt;Node14</title>
<g id="a_edge15_Node000009_Node000014"><a xlink:title=" ">
<path fill="none" stroke="#63b8ff" d="M722.69,-264C753.53,-256.23 798.73,-243.59 836.52,-228 837.23,-227.71 837.95,-227.4 838.67,-227.08"/>
<polygon fill="#63b8ff" stroke="#63b8ff" points="840.49,-230.08 847.93,-222.54 837.41,-223.8 840.49,-230.08"/>
</a>
</g>
</g>
<!-- Node15 -->
<g id="Node000015" class="node">
<title>Node15</title>
<g id="a_Node000015"><a xlink:title=" ">
<polygon fill="#e0e0e0" stroke="#999999" points="1108.52,-90.5 1058.52,-90.5 1058.52,-71.5 1108.52,-71.5 1108.52,-90.5"/>
<text text-anchor="middle" x="1083.52" y="-78.5" font-family="Helvetica,sans-Serif" font-size="10.00">cstdint</text>
</a>
</g>
</g>
<!-- Node9&#45;&gt;Node15 -->
<g id="edge16_Node000009_Node000015" class="edge">
<title>Node9&#45;&gt;Node15</title>
<g id="a_edge16_Node000009_Node000015"><a xlink:title=" ">
<path fill="none" stroke="#63b8ff" d="M770.23,-266.62C848.74,-260.02 959.69,-247.6 998.52,-228 1035.28,-209.45 1043.37,-197.9 1063.52,-162 1074.22,-142.93 1079.27,-118.13 1081.61,-101.24"/>
<polygon fill="#63b8ff" stroke="#63b8ff" points="1085.12,-101.31 1082.82,-90.97 1078.17,-100.49 1085.12,-101.31"/>
</a>
</g>
</g>
<!-- Node16 -->
<g id="Node000016" class="node">
<title>Node16</title>
<g id="a_Node000016"><a xlink:title=" ">
<polygon fill="#e0e0e0" stroke="#999999" points="989.02,-222.5 898.02,-222.5 898.02,-203.5 989.02,-203.5 989.02,-222.5"/>
<text text-anchor="middle" x="943.52" y="-210.5" font-family="Helvetica,sans-Serif" font-size="10.00">spdlog/logger.h</text>
</a>
</g>
</g>
<!-- Node9&#45;&gt;Node16 -->
<g id="edge17_Node000009_Node000016" class="edge">
<title>Node9&#45;&gt;Node16</title>
<g id="a_edge17_Node000009_Node000016"><a xlink:title=" ">
<path fill="none" stroke="#63b8ff" d="M727.84,-263.92C768.93,-255.28 833.73,-241.34 889.52,-228 893.38,-227.08 897.4,-226.09 901.41,-225.08"/>
<polygon fill="#63b8ff" stroke="#63b8ff" points="902.48,-228.42 911.3,-222.57 900.75,-221.64 902.48,-228.42"/>
</a>
</g>
</g>
<!-- Node17 -->
<g id="Node000017" class="node">
<title>Node17</title>
<g id="a_Node000017"><a xlink:href="u8string_8h.html" target="_top" xlink:title=" ">
<polygon fill="white" stroke="#666666" points="623.52,-156.5 461.52,-156.5 461.52,-137.5 623.52,-137.5 623.52,-156.5"/>
<text text-anchor="middle" x="542.52" y="-144.5" font-family="Helvetica,sans-Serif" font-size="10.00">webcface/message/u8string.h</text>
</a>
</g>
</g>
<!-- Node9&#45;&gt;Node17 -->
<g id="edge18_Node000009_Node000017" class="edge">
<title>Node9&#45;&gt;Node17</title>
<g id="a_edge18_Node000009_Node000017"><a xlink:title=" ">
<path fill="none" stroke="#63b8ff" d="M627.43,-264C603.89,-257.73 578.44,-246.87 561.52,-228 546.44,-211.18 542.74,-184.59 542.12,-166.73"/>
<polygon fill="#63b8ff" stroke="#63b8ff" points="545.62,-166.65 542.06,-156.67 538.62,-166.69 545.62,-166.65"/>
</a>
</g>
</g>
<!-- Node24 -->
<g id="Node000024" class="node">
<title>Node24</title>
<g id="a_Node000024"><a xlink:href="message_2include_2webcface_2message_2val__adaptor_8h.html" target="_top" xlink:title=" ">
<polygon fill="white" stroke="#666666" points="698.52,-228 570.52,-228 570.52,-198 698.52,-198 698.52,-228"/>
<text text-anchor="start" x="578.52" y="-216" font-family="Helvetica,sans-Serif" font-size="10.00">webcface/message/val</text>
<text text-anchor="middle" x="634.52" y="-205" font-family="Helvetica,sans-Serif" font-size="10.00">_adaptor.h</text>
</a>
</g>
</g>
<!-- Node9&#45;&gt;Node24 -->
<g id="edge30_Node000009_Node000024" class="edge">
<title>Node9&#45;&gt;Node24</title>
<g id="a_edge30_Node000009_Node000024"><a xlink:title=" ">
<path fill="none" stroke="#63b8ff" d="M678.85,-263.87C672.25,-256.44 662.45,-245.42 653.74,-235.62"/>
<polygon fill="#63b8ff" stroke="#63b8ff" points="656.33,-233.26 647.07,-228.11 651.09,-237.91 656.33,-233.26"/>
</a>
</g>
</g>
<!-- Node17&#45;&gt;Node10 -->
<g id="edge28_Node000017_Node000010" class="edge">
<title>Node17&#45;&gt;Node10</title>
<g id="a_edge28_Node000017_Node000010"><a xlink:title=" ">
<path fill="none" stroke="#63b8ff" d="M522.7,-137.37C497.49,-126.39 453.76,-107.36 424.73,-94.72"/>
<polygon fill="#63b8ff" stroke="#63b8ff" points="426.07,-91.48 415.5,-90.7 423.27,-97.9 426.07,-91.48"/>
</a>
</g>
</g>
<!-- Node17&#45;&gt;Node11 -->
<g id="edge29_Node000017_Node000011" class="edge">
<title>Node17&#45;&gt;Node11</title>
<g id="a_edge29_Node000017_Node000011"><a xlink:title=" ">
<path fill="none" stroke="#63b8ff" d="M598.42,-137.43C637.23,-130.02 689.32,-117.09 731.52,-96 750.77,-86.38 750.09,-75.25 769.52,-66 833.03,-35.76 915.52,-23.42 960.25,-18.7"/>
<polygon fill="#63b8ff" stroke="#63b8ff" points="960.65,-22.17 970.25,-17.7 959.95,-15.21 960.65,-22.17"/>
</a>
</g>
</g>
<!-- Node18 -->
<g id="Node000018" class="node">
<title>Node18</title>
<g id="a_Node000018"><a xlink:title=" ">
<polygon fill="#e0e0e0" stroke="#999999" points="500.02,-90.5 455.02,-90.5 455.02,-71.5 500.02,-71.5 500.02,-90.5"/>
<text text-anchor="middle" x="477.52" y="-78.5" font-family="Helvetica,sans-Serif" font-size="10.00">utf8.h</text>
</a>
</g>
</g>
<!-- Node17&#45;&gt;Node18 -->
<g id="edge19_Node000017_Node000018" class="edge">
<title>Node17&#45;&gt;Node18</title>
<g id="a_edge19_Node000017_Node000018"><a xlink:title=" ">
<path fill="none" stroke="#63b8ff" d="M533.75,-137.37C523.54,-127.31 506.44,-110.48 493.78,-98.01"/>
<polygon fill="#63b8ff" stroke="#63b8ff" points="496.15,-95.43 486.57,-90.91 491.24,-100.42 496.15,-95.43"/>
</a>
</g>
</g>
<!-- Node19 -->
<g id="Node000019" class="node">
<title>Node19</title>
<g id="a_Node000019"><a xlink:href="encoding_8h.html" target="_top" xlink:title=" ">
<polygon fill="white" stroke="#666666" points="723.02,-90.5 556.02,-90.5 556.02,-71.5 723.02,-71.5 723.02,-90.5"/>
<text text-anchor="middle" x="639.52" y="-78.5" font-family="Helvetica,sans-Serif" font-size="10.00">webcface/encoding/encoding.h</text>
</a>
</g>
</g>
<!-- Node17&#45;&gt;Node19 -->
<g id="edge20_Node000017_Node000019" class="edge">
<title>Node17&#45;&gt;Node19</title>
<g id="a_edge20_Node000017_Node000019"><a xlink:title=" ">
<path fill="none" stroke="#63b8ff" d="M555.6,-137.37C571.58,-126.82 598.85,-108.84 617.95,-96.23"/>
<polygon fill="#63b8ff" stroke="#63b8ff" points="619.92,-99.13 626.34,-90.7 616.06,-93.28 619.92,-99.13"/>
</a>
</g>
</g>
<!-- Node19&#45;&gt;Node6 -->
<g id="edge23_Node000019_Node000006" class="edge">
<title>Node19&#45;&gt;Node6</title>
<g id="a_edge23_Node000019_Node000006"><a xlink:title=" ">
<path fill="none" stroke="#63b8ff" d="M559.74,-71.47C426.97,-57.28 174.9,-30.33 172.52,-30 158.91,-28.1 144.09,-25.65 130.88,-23.33"/>
<polygon fill="#63b8ff" stroke="#63b8ff" points="131.15,-19.82 120.69,-21.51 129.92,-26.71 131.15,-19.82"/>
</a>
</g>
</g>
<!-- Node19&#45;&gt;Node7 -->
<g id="edge27_Node000019_Node000007" class="edge">
<title>Node19&#45;&gt;Node7</title>
<g id="a_edge27_Node000019_Node000007"><a xlink:title=" ">
<path fill="none" stroke="#63b8ff" d="M588.8,-71.44C527.83,-61.14 424.42,-43.68 349.94,-31.1"/>
<polygon fill="#63b8ff" stroke="#63b8ff" points="350.08,-27.57 339.63,-29.36 348.91,-34.48 350.08,-27.57"/>
</a>
</g>
</g>
<!-- Node19&#45;&gt;Node11 -->
<g id="edge21_Node000019_Node000011" class="edge">
<title>Node19&#45;&gt;Node11</title>
<g id="a_edge21_Node000019_Node000011"><a xlink:title=" ">
<path fill="none" stroke="#63b8ff" d="M686.76,-71.44C759.58,-58.23 897.36,-33.25 960.03,-21.89"/>
<polygon fill="#63b8ff" stroke="#63b8ff" points="960.91,-25.29 970.12,-20.06 959.66,-18.4 960.91,-25.29"/>
</a>
</g>
</g>
<!-- Node20 -->
<g id="Node000020" class="node">
<title>Node20</title>
<g id="a_Node000020"><a xlink:title=" ">
<polygon fill="#e0e0e0" stroke="#999999" points="636.02,-24.5 563.02,-24.5 563.02,-5.5 636.02,-5.5 636.02,-24.5"/>
<text text-anchor="middle" x="599.52" y="-12.5" font-family="Helvetica,sans-Serif" font-size="10.00">string_view</text>
</a>
</g>
</g>
<!-- Node19&#45;&gt;Node20 -->
<g id="edge22_Node000019_Node000020" class="edge">
<title>Node19&#45;&gt;Node20</title>
<g id="a_edge22_Node000019_Node000020"><a xlink:title=" ">
<path fill="none" stroke="#63b8ff" d="M634.13,-71.37C628.08,-61.69 618.11,-45.74 610.42,-33.44"/>
<polygon fill="#63b8ff" stroke="#63b8ff" points="613.35,-31.53 605.09,-24.91 607.42,-35.24 613.35,-31.53"/>
</a>
</g>
</g>
<!-- Node21 -->
<g id="Node000021" class="node">
<title>Node21</title>
<g id="a_Node000021"><a xlink:title=" ">
<polygon fill="#e0e0e0" stroke="#999999" points="702.52,-24.5 654.52,-24.5 654.52,-5.5 702.52,-5.5 702.52,-24.5"/>
<text text-anchor="middle" x="678.52" y="-12.5" font-family="Helvetica,sans-Serif" font-size="10.00">mutex</text>
</a>
</g>
</g>
<!-- Node19&#45;&gt;Node21 -->
<g id="edge24_Node000019_Node000021" class="edge">
<title>Node19&#45;&gt;Node21</title>
<g id="a_edge24_Node000019_Node000021"><a xlink:title=" ">
<path fill="none" stroke="#63b8ff" d="M644.78,-71.37C650.62,-61.78 660.21,-46.05 667.67,-33.8"/>
<polygon fill="#63b8ff" stroke="#63b8ff" points="670.88,-35.27 673.09,-24.91 664.9,-31.62 670.88,-35.27"/>
</a>
</g>
</g>
<!-- Node22 -->
<g id="Node000022" class="node">
<title>Node22</title>
<g id="a_Node000022"><a xlink:title=" ">
<polygon fill="#e0e0e0" stroke="#999999" points="814.02,-24.5 721.02,-24.5 721.02,-5.5 814.02,-5.5 814.02,-24.5"/>
<text text-anchor="middle" x="767.52" y="-12.5" font-family="Helvetica,sans-Serif" font-size="10.00">unordered_map</text>
</a>
</g>
</g>
<!-- Node19&#45;&gt;Node22 -->
<g id="edge25_Node000019_Node000022" class="edge">
<title>Node19&#45;&gt;Node22</title>
<g id="a_edge25_Node000019_Node000022"><a xlink:title=" ">
<path fill="none" stroke="#63b8ff" d="M656.78,-71.37C678.45,-60.54 715.82,-41.85 741.09,-29.22"/>
<polygon fill="#63b8ff" stroke="#63b8ff" points="742.74,-32.3 750.12,-24.7 739.61,-26.04 742.74,-32.3"/>
</a>
</g>
</g>
<!-- Node23 -->
<g id="Node000023" class="node">
<title>Node23</title>
<g id="a_Node000023"><a xlink:title=" ">
<polygon fill="#e0e0e0" stroke="#999999" points="544.52,-24.5 458.52,-24.5 458.52,-5.5 544.52,-5.5 544.52,-24.5"/>
<text text-anchor="middle" x="501.52" y="-12.5" font-family="Helvetica,sans-Serif" font-size="10.00">unordered_set</text>
</a>
</g>
</g>
<!-- Node19&#45;&gt;Node23 -->
<g id="edge26_Node000019_Node000023" class="edge">
<title>Node19&#45;&gt;Node23</title>
<g id="a_edge26_Node000019_Node000023"><a xlink:title=" ">
<path fill="none" stroke="#63b8ff" d="M620.91,-71.37C597.45,-60.49 556.91,-41.69 529.66,-29.05"/>
<polygon fill="#63b8ff" stroke="#63b8ff" points="530.82,-25.73 520.28,-24.7 527.88,-32.08 530.82,-25.73"/>
</a>
</g>
</g>
<!-- Node24&#45;&gt;Node10 -->
<g id="edge40_Node000024_Node000010" class="edge">
<title>Node24&#45;&gt;Node10</title>
<g id="a_edge40_Node000024_Node000010"><a xlink:title=" ">
<path fill="none" stroke="#63b8ff" d="M570.17,-205.17C533.11,-198.72 487.17,-186.21 452.52,-162 429.76,-146.09 412.89,-118.05 403.63,-99.75"/>
<polygon fill="#63b8ff" stroke="#63b8ff" points="406.77,-98.21 399.28,-90.72 400.47,-101.25 406.77,-98.21"/>
</a>
</g>
</g>
<!-- Node24&#45;&gt;Node11 -->
<g id="edge41_Node000024_Node000011" class="edge">
<title>Node24&#45;&gt;Node11</title>
<g id="a_edge41_Node000024_Node000011"><a xlink:title=" ">
<path fill="none" stroke="#63b8ff" d="M698.54,-199.34C767.65,-185.59 869.08,-165.16 877.52,-162 933.43,-141.07 964.41,-147.55 994.52,-96 1005.44,-77.3 1002.32,-51.72 998.21,-34.56"/>
<polygon fill="#63b8ff" stroke="#63b8ff" points="1001.52,-33.39 995.51,-24.67 994.77,-35.23 1001.52,-33.39"/>
</a>
</g>
</g>
<!-- Node24&#45;&gt;Node15 -->
<g id="edge42_Node000024_Node000015" class="edge">
<title>Node24&#45;&gt;Node15</title>
<g id="a_edge42_Node000024_Node000015"><a xlink:title=" ">
<path fill="none" stroke="#63b8ff" d="M698.56,-199.42C701.59,-198.92 704.59,-198.44 707.52,-198 780.25,-187.06 974.77,-201.95 1036.52,-162 1058.67,-147.67 1071.71,-118.93 1078.24,-100.09"/>
<polygon fill="#63b8ff" stroke="#63b8ff" points="1081.58,-101.15 1081.28,-90.56 1074.91,-99.02 1081.58,-101.15"/>
</a>
</g>
</g>
<!-- Node24&#45;&gt;Node17 -->
<g id="edge44_Node000024_Node000017" class="edge">
<title>Node24&#45;&gt;Node17</title>
<g id="a_edge44_Node000024_Node000017"><a xlink:title=" ">
<path fill="none" stroke="#63b8ff" d="M614.1,-197.8C598.97,-187.27 578.42,-172.97 563.22,-162.4"/>
<polygon fill="#63b8ff" stroke="#63b8ff" points="565.17,-159.5 554.97,-156.66 561.18,-165.24 565.17,-159.5"/>
</a>
</g>
</g>
<!-- Node24&#45;&gt;Node18 -->
<g id="edge43_Node000024_Node000018" class="edge">
<title>Node24&#45;&gt;Node18</title>
<g id="a_edge43_Node000024_Node000018"><a xlink:title=" ">
<path fill="none" stroke="#63b8ff" d="M638.69,-197.96C642.91,-180.6 646.98,-151.03 632.52,-132 599.34,-88.34 566.41,-113.71 514.52,-96 512.67,-95.37 510.77,-94.7 508.86,-94.02"/>
<polygon fill="#63b8ff" stroke="#63b8ff" points="509.94,-90.69 499.35,-90.53 507.53,-97.26 509.94,-90.69"/>
</a>
</g>
</g>
<!-- Node25 -->
<g id="Node000025" class="node">
<title>Node25</title>
<g id="a_Node000025"><a xlink:href="encoding_2include_2webcface_2encoding_2val__adaptor_8h.html" target="_top" xlink:title=" ">
<polygon fill="white" stroke="#666666" points="868.52,-162 740.52,-162 740.52,-132 868.52,-132 868.52,-162"/>
<text text-anchor="start" x="748.52" y="-150" font-family="Helvetica,sans-Serif" font-size="10.00">webcface/encoding/val</text>
<text text-anchor="middle" x="804.52" y="-139" font-family="Helvetica,sans-Serif" font-size="10.00">_adaptor.h</text>
</a>
</g>
</g>
<!-- Node24&#45;&gt;Node25 -->
<g id="edge31_Node000024_Node000025" class="edge">
<title>Node24&#45;&gt;Node25</title>
<g id="a_edge31_Node000024_Node000025"><a xlink:title=" ">
<path fill="none" stroke="#63b8ff" d="M671.83,-197.95C697.07,-188.45 730.61,-175.82 757.66,-165.64"/>
<polygon fill="#63b8ff" stroke="#63b8ff" points="759.17,-168.81 767.3,-162.01 756.71,-162.26 759.17,-168.81"/>
</a>
</g>
</g>
<!-- Node25&#45;&gt;Node5 -->
<g id="edge33_Node000025_Node000005" class="edge">
<title>Node25&#45;&gt;Node5</title>
<g id="a_edge33_Node000025_Node000005"><a xlink:title=" ">
<path fill="none" stroke="#63b8ff" d="M740.24,-140.05C622.95,-129.04 382.8,-105.71 345.52,-96 343.58,-95.49 341.6,-94.89 339.63,-94.23"/>
<polygon fill="#63b8ff" stroke="#63b8ff" points="340.59,-90.85 330,-90.54 338.08,-97.38 340.59,-90.85"/>
</a>
</g>
</g>
<!-- Node25&#45;&gt;Node7 -->
<g id="edge39_Node000025_Node000007" class="edge">
<title>Node25&#45;&gt;Node7</title>
<g id="a_edge39_Node000025_Node000007"><a xlink:title=" ">
<path fill="none" stroke="#63b8ff" d="M740.45,-142.05C686.62,-136.78 608.73,-124.52 546.52,-96 526.96,-87.03 528.05,-75.04 508.52,-66 458.75,-42.96 398.53,-30.5 349.9,-23.78"/>
<polygon fill="#63b8ff" stroke="#63b8ff" points="350.07,-20.27 339.7,-22.43 349.16,-27.21 350.07,-20.27"/>
</a>
</g>
</g>
<!-- Node25&#45;&gt;Node11 -->
<g id="edge32_Node000025_Node000011" class="edge">
<title>Node25&#45;&gt;Node11</title>
<g id="a_edge32_Node000025_Node000011"><a xlink:title=" ">
<path fill="none" stroke="#63b8ff" d="M868.82,-142.33C904.34,-136.94 946.59,-124.44 973.52,-96 989.05,-79.6 992.64,-52.9 993.12,-34.91"/>
<polygon fill="#63b8ff" stroke="#63b8ff" points="996.62,-34.76 993.09,-24.77 989.62,-34.78 996.62,-34.76"/>
</a>
</g>
</g>
<!-- Node25&#45;&gt;Node15 -->
<g id="edge35_Node000025_Node000015" class="edge">
<title>Node25&#45;&gt;Node15</title>
<g id="a_edge35_Node000025_Node000015"><a xlink:title=" ">
<path fill="none" stroke="#63b8ff" d="M865.75,-131.95C921.82,-119.09 1002.84,-100.51 1048.6,-90.01"/>
<polygon fill="#63b8ff" stroke="#63b8ff" points="1049.39,-93.42 1058.35,-87.77 1047.82,-86.6 1049.39,-93.42"/>
</a>
</g>
</g>
<!-- Node25&#45;&gt;Node19 -->
<g id="edge38_Node000025_Node000019" class="edge">
<title>Node25&#45;&gt;Node19</title>
<g id="a_edge38_Node000025_Node000019"><a xlink:title=" ">
<path fill="none" stroke="#63b8ff" d="M768.31,-131.95C739.25,-120.68 698.85,-105.01 671.09,-94.25"/>
<polygon fill="#63b8ff" stroke="#63b8ff" points="672.07,-90.87 661.48,-90.52 669.54,-97.4 672.07,-90.87"/>
</a>
</g>
</g>
<!-- Node26 -->
<g id="Node000026" class="node">
<title>Node26</title>
<g id="a_Node000026"><a xlink:title=" ">
<polygon fill="#e0e0e0" stroke="#999999" points="889.02,-90.5 848.02,-90.5 848.02,-71.5 889.02,-71.5 889.02,-90.5"/>
<text text-anchor="middle" x="868.52" y="-78.5" font-family="Helvetica,sans-Serif" font-size="10.00">tuple</text>
</a>
</g>
</g>
<!-- Node25&#45;&gt;Node26 -->
<g id="edge34_Node000025_Node000026" class="edge">
<title>Node25&#45;&gt;Node26</title>
<g id="a_edge34_Node000025_Node000026"><a xlink:title=" ">
<path fill="none" stroke="#63b8ff" d="M818.72,-131.8C828.7,-121.82 842.06,-108.46 852.43,-98.09"/>
<polygon fill="#63b8ff" stroke="#63b8ff" points="855.08,-100.39 859.68,-90.84 850.13,-95.44 855.08,-100.39"/>
</a>
</g>
</g>
<!-- Node27 -->
<g id="Node000027" class="node">
<title>Node27</title>
<g id="a_Node000027"><a xlink:title=" ">
<polygon fill="#e0e0e0" stroke="#999999" points="964.02,-90.5 907.02,-90.5 907.02,-71.5 964.02,-71.5 964.02,-90.5"/>
<text text-anchor="middle" x="935.52" y="-78.5" font-family="Helvetica,sans-Serif" font-size="10.00">ostream</text>
</a>
</g>
</g>
<!-- Node25&#45;&gt;Node27 -->
<g id="edge36_Node000025_Node000027" class="edge">
<title>Node25&#45;&gt;Node27</title>
<g id="a_edge36_Node000025_Node000027"><a xlink:title=" ">
<path fill="none" stroke="#63b8ff" d="M833.27,-131.95C855.84,-120.93 887.01,-105.7 908.99,-94.96"/>
<polygon fill="#63b8ff" stroke="#63b8ff" points="910.64,-98.05 918.09,-90.52 907.57,-91.76 910.64,-98.05"/>
</a>
</g>
</g>
<!-- Node28 -->
<g id="Node000028" class="node">
<title>Node28</title>
<g id="a_Node000028"><a xlink:title=" ">
<polygon fill="#e0e0e0" stroke="#999999" points="830.02,-90.5 779.02,-90.5 779.02,-71.5 830.02,-71.5 830.02,-90.5"/>
<text text-anchor="middle" x="804.52" y="-78.5" font-family="Helvetica,sans-Serif" font-size="10.00">variant</text>
</a>
</g>
</g>
<!-- Node25&#45;&gt;Node28 -->
<g id="edge37_Node000025_Node000028" class="edge">
<title>Node25&#45;&gt;Node28</title>
<g id="a_edge37_Node000025_Node000028"><a xlink:title=" ">
<path fill="none" stroke="#63b8ff" d="M804.52,-131.8C804.52,-122.7 804.52,-110.79 804.52,-100.9"/>
<polygon fill="#63b8ff" stroke="#63b8ff" points="808.02,-100.84 804.52,-90.84 801.02,-100.84 808.02,-100.84"/>
</a>
</g>
</g>
</g>
</svg>
