<?xml version="1.0" encoding="UTF-8" standalone="no"?>
<!DOCTYPE svg PUBLIC "-//W3C//DTD SVG 1.1//EN"
 "http://www.w3.org/Graphics/SVG/1.1/DTD/svg11.dtd">
<!-- Generated by graphviz version 2.43.0 (0)
 -->
<!-- Title: /home/runner/work/webcface/webcface/client/include/webcface/image.h Pages: 1 -->
<svg width="2160pt" height="126pt"
 viewBox="0.00 0.00 2160.00 126.00" xmlns="http://www.w3.org/2000/svg" xmlns:xlink="http://www.w3.org/1999/xlink">
<g id="graph0" class="graph" transform="scale(1 1) rotate(0) translate(4 122)">
<title>/home/runner/work/webcface/webcface/client/include/webcface/image.h</title>
<!-- Node1 -->
<g id="Node000001" class="node">
<title>Node1</title>
<g id="a_Node000001"><a xlink:title=" ">
<polygon fill="#999999" stroke="#666666" points="1154,-118 996,-118 996,-77 1154,-77 1154,-118"/>
<text text-anchor="start" x="1004" y="-106" font-family="Helvetica,sans-Serif" font-size="10.00">/home/runner/work/webcface</text>
<text text-anchor="start" x="1004" y="-95" font-family="Helvetica,sans-Serif" font-size="10.00">/webcface/client/include</text>
<text text-anchor="middle" x="1075" y="-84" font-family="Helvetica,sans-Serif" font-size="10.00">/webcface/image.h</text>
</a>
</g>
</g>
<!-- Node2 -->
<g id="Node000002" class="node">
<title>Node2</title>
<g id="a_Node000002"><a xlink:href="webcface_8h.html" target="_top" xlink:title=" ">
<polygon fill="white" stroke="#666666" points="158,-41 0,-41 0,0 158,0 158,-41"/>
<text text-anchor="start" x="8" y="-29" font-family="Helvetica,sans-Serif" font-size="10.00">/home/runner/work/webcface</text>
<text text-anchor="start" x="8" y="-18" font-family="Helvetica,sans-Serif" font-size="10.00">/webcface/client/include</text>
<text text-anchor="middle" x="79" y="-7" font-family="Helvetica,sans-Serif" font-size="10.00">/webcface/webcface.h</text>
</a>
</g>
</g>
<!-- Node1&#45;&gt;Node2 -->
<g id="edge1_Node000001_Node000002" class="edge">
<title>Node1&#45;&gt;Node2</title>
<g id="a_edge1_Node000001_Node000002"><a xlink:title=" ">
<path fill="none" stroke="#63b8ff" d="M985.46,-95.68C822.05,-93.14 464.85,-82.84 167,-41 164.06,-40.59 161.06,-40.13 158.05,-39.63"/>
<polygon fill="#63b8ff" stroke="#63b8ff" points="985.89,-99.18 995.94,-95.83 985.99,-92.18 985.89,-99.18"/>
</a>
</g>
</g>
<!-- Node3 -->
<g id="Node000003" class="node">
<title>Node3</title>
<g id="a_Node000003"><a xlink:href="client_8cc.html" target="_top" xlink:title=" ">
<polygon fill="white" stroke="#666666" points="334,-35.5 176,-35.5 176,-5.5 334,-5.5 334,-35.5"/>
<text text-anchor="start" x="184" y="-23.5" font-family="Helvetica,sans-Serif" font-size="10.00">/home/runner/work/webcface</text>
<text text-anchor="middle" x="255" y="-12.5" font-family="Helvetica,sans-Serif" font-size="10.00">/webcface/client/src/client.cc</text>
</a>
</g>
</g>
<!-- Node1&#45;&gt;Node3 -->
<g id="edge2_Node000001_Node000003" class="edge">
<title>Node1&#45;&gt;Node3</title>
<g id="a_edge2_Node000001_Node000003"><a xlink:title=" ">
<path fill="none" stroke="#63b8ff" d="M985.66,-93.82C847.3,-88.76 573.16,-75.05 343,-41 333.25,-39.56 322.97,-37.64 313.01,-35.58"/>
<polygon fill="#63b8ff" stroke="#63b8ff" points="985.67,-97.33 995.79,-94.19 985.92,-90.33 985.67,-97.33"/>
</a>
</g>
</g>
<!-- Node4 -->
<g id="Node000004" class="node">
<title>Node4</title>
<g id="a_Node000004"><a xlink:href="field_8cc.html" target="_top" xlink:title=" ">
<polygon fill="white" stroke="#666666" points="510,-35.5 352,-35.5 352,-5.5 510,-5.5 510,-35.5"/>
<text text-anchor="start" x="360" y="-23.5" font-family="Helvetica,sans-Serif" font-size="10.00">/home/runner/work/webcface</text>
<text text-anchor="middle" x="431" y="-12.5" font-family="Helvetica,sans-Serif" font-size="10.00">/webcface/client/src/field.cc</text>
</a>
</g>
</g>
<!-- Node1&#45;&gt;Node4 -->
<g id="edge3_Node000001_Node000004" class="edge">
<title>Node1&#45;&gt;Node4</title>
<g id="a_edge3_Node000001_Node000004"><a xlink:title=" ">
<path fill="none" stroke="#63b8ff" d="M985.82,-90.87C875.65,-83.16 682.71,-67.22 519,-41 509.57,-39.49 499.64,-37.59 489.99,-35.58"/>
<polygon fill="#63b8ff" stroke="#63b8ff" points="985.68,-94.37 995.9,-91.57 986.16,-87.39 985.68,-94.37"/>
</a>
</g>
</g>
<!-- Node5 -->
<g id="Node000005" class="node">
<title>Node5</title>
<g id="a_Node000005"><a xlink:href="image_8cc.html" target="_top" xlink:title=" ">
<polygon fill="white" stroke="#666666" points="689.5,-35.5 528.5,-35.5 528.5,-5.5 689.5,-5.5 689.5,-35.5"/>
<text text-anchor="start" x="536.5" y="-23.5" font-family="Helvetica,sans-Serif" font-size="10.00">/home/runner/work/webcface</text>
<text text-anchor="middle" x="609" y="-12.5" font-family="Helvetica,sans-Serif" font-size="10.00">/webcface/client/src/image.cc</text>
</a>
</g>
</g>
<!-- Node1&#45;&gt;Node5 -->
<g id="edge4_Node000001_Node000005" class="edge">
<title>Node1&#45;&gt;Node5</title>
<g id="a_edge4_Node000001_Node000005"><a xlink:title=" ">
<path fill="none" stroke="#63b8ff" d="M985.83,-85.05C909.47,-74.83 796.7,-58.77 699,-41 690.03,-39.37 680.6,-37.5 671.35,-35.57"/>
<polygon fill="#63b8ff" stroke="#63b8ff" points="985.52,-88.54 995.89,-86.39 986.44,-81.6 985.52,-88.54"/>
</a>
</g>
</g>
<!-- Node6 -->
<g id="Node000006" class="node">
<title>Node6</title>
<g id="a_Node000006"><a xlink:href="member_8cc.html" target="_top" xlink:title=" ">
<polygon fill="white" stroke="#666666" points="878,-35.5 708,-35.5 708,-5.5 878,-5.5 878,-35.5"/>
<text text-anchor="start" x="716" y="-23.5" font-family="Helvetica,sans-Serif" font-size="10.00">/home/runner/work/webcface</text>
<text text-anchor="middle" x="793" y="-12.5" font-family="Helvetica,sans-Serif" font-size="10.00">/webcface/client/src/member.cc</text>
</a>
</g>
</g>
<!-- Node1&#45;&gt;Node6 -->
<g id="edge5_Node000001_Node000006" class="edge">
<title>Node1&#45;&gt;Node6</title>
<g id="a_edge5_Node000001_Node000006"><a xlink:title=" ">
<path fill="none" stroke="#63b8ff" d="M991.75,-74.36C944.57,-61.81 886.97,-46.49 845.95,-35.58"/>
<polygon fill="#63b8ff" stroke="#63b8ff" points="991.08,-77.8 1001.64,-76.99 992.88,-71.04 991.08,-77.8"/>
</a>
</g>
</g>
<!-- Node7 -->
<g id="Node000007" class="node">
<title>Node7</title>
<g id="a_Node000007"><a xlink:href="cv-recv_8cc.html" target="_top" xlink:title=" ">
<polygon fill="white" stroke="#666666" points="1065.5,-35.5 896.5,-35.5 896.5,-5.5 1065.5,-5.5 1065.5,-35.5"/>
<text text-anchor="start" x="904.5" y="-23.5" font-family="Helvetica,sans-Serif" font-size="10.00">/home/runner/work/webcface</text>
<text text-anchor="middle" x="981" y="-12.5" font-family="Helvetica,sans-Serif" font-size="10.00">/webcface/examples/cv&#45;recv.cc</text>
</a>
</g>
</g>
<!-- Node1&#45;&gt;Node7 -->
<g id="edge6_Node000001_Node000007" class="edge">
<title>Node1&#45;&gt;Node7</title>
<g id="a_edge6_Node000001_Node000007"><a xlink:title=" ">
<path fill="none" stroke="#63b8ff" d="M1042.41,-70.5C1027.74,-58.79 1011,-45.44 998.7,-35.63"/>
<polygon fill="#63b8ff" stroke="#63b8ff" points="1040.3,-73.29 1050.3,-76.79 1044.67,-67.82 1040.3,-73.29"/>
</a>
</g>
</g>
<!-- Node8 -->
<g id="Node000008" class="node">
<title>Node8</title>
<g id="a_Node000008"><a xlink:href="cv-send_8cc.html" target="_top" xlink:title=" ">
<polygon fill="white" stroke="#666666" points="1256,-35.5 1084,-35.5 1084,-5.5 1256,-5.5 1256,-35.5"/>
<text text-anchor="start" x="1092" y="-23.5" font-family="Helvetica,sans-Serif" font-size="10.00">/home/runner/work/webcface</text>
<text text-anchor="middle" x="1170" y="-12.5" font-family="Helvetica,sans-Serif" font-size="10.00">/webcface/examples/cv&#45;send.cc</text>
</a>
</g>
</g>
<!-- Node1&#45;&gt;Node8 -->
<g id="edge7_Node000001_Node000008" class="edge">
<title>Node1&#45;&gt;Node8</title>
<g id="a_edge7_Node000001_Node000008"><a xlink:title=" ">
<path fill="none" stroke="#63b8ff" d="M1107.94,-70.5C1122.76,-58.79 1139.68,-45.44 1152.11,-35.63"/>
<polygon fill="#63b8ff" stroke="#63b8ff" points="1105.64,-67.85 1099.96,-76.79 1109.98,-73.35 1105.64,-67.85"/>
</a>
</g>
</g>
<!-- Node9 -->
<g id="Node000009" class="node">
<title>Node9</title>
<g id="a_Node000009"><a xlink:href="image-recv_8cc.html" target="_top" xlink:title=" ">
<polygon fill="white" stroke="#666666" points="1432,-41 1274,-41 1274,0 1432,0 1432,-41"/>
<text text-anchor="start" x="1282" y="-29" font-family="Helvetica,sans-Serif" font-size="10.00">/home/runner/work/webcface</text>
<text text-anchor="start" x="1282" y="-18" font-family="Helvetica,sans-Serif" font-size="10.00">/webcface/examples/image</text>
<text text-anchor="middle" x="1353" y="-7" font-family="Helvetica,sans-Serif" font-size="10.00">&#45;recv.cc</text>
</a>
</g>
</g>
<!-- Node1&#45;&gt;Node9 -->
<g id="edge8_Node000001_Node000009" class="edge">
<title>Node1&#45;&gt;Node9</title>
<g id="a_edge8_Node000001_Node000009"><a xlink:title=" ">
<path fill="none" stroke="#63b8ff" d="M1157.11,-74.35C1196.27,-63.78 1242.73,-51.25 1280.56,-41.04"/>
<polygon fill="#63b8ff" stroke="#63b8ff" points="1156.06,-71.01 1147.32,-76.99 1157.88,-77.76 1156.06,-71.01"/>
</a>
</g>
</g>
<!-- Node10 -->
<g id="Node000010" class="node">
<title>Node10</title>
<g id="a_Node000010"><a xlink:href="image-send_8cc.html" target="_top" xlink:title=" ">
<polygon fill="white" stroke="#666666" points="1608,-41 1450,-41 1450,0 1608,0 1608,-41"/>
<text text-anchor="start" x="1458" y="-29" font-family="Helvetica,sans-Serif" font-size="10.00">/home/runner/work/webcface</text>
<text text-anchor="start" x="1458" y="-18" font-family="Helvetica,sans-Serif" font-size="10.00">/webcface/examples/image</text>
<text text-anchor="middle" x="1529" y="-7" font-family="Helvetica,sans-Serif" font-size="10.00">&#45;send.cc</text>
</a>
</g>
</g>
<!-- Node1&#45;&gt;Node10 -->
<g id="edge9_Node000001_Node000010" class="edge">
<title>Node1&#45;&gt;Node10</title>
<g id="a_edge9_Node000001_Node000010"><a xlink:title=" ">
<path fill="none" stroke="#63b8ff" d="M1164.4,-84.66C1238.68,-74.42 1347.02,-58.52 1441,-41 1443.92,-40.46 1446.9,-39.88 1449.9,-39.29"/>
<polygon fill="#63b8ff" stroke="#63b8ff" points="1163.58,-81.24 1154.15,-86.07 1164.53,-88.18 1163.58,-81.24"/>
</a>
</g>
</g>
<!-- Node11 -->
<g id="Node000011" class="node">
<title>Node11</title>
<g id="a_Node000011"><a xlink:href="client__test_8cc.html" target="_top" xlink:title=" ">
<polygon fill="white" stroke="#666666" points="1787.5,-35.5 1626.5,-35.5 1626.5,-5.5 1787.5,-5.5 1787.5,-35.5"/>
<text text-anchor="start" x="1634.5" y="-23.5" font-family="Helvetica,sans-Serif" font-size="10.00">/home/runner/work/webcface</text>
<text text-anchor="middle" x="1707" y="-12.5" font-family="Helvetica,sans-Serif" font-size="10.00">/webcface/tests/client_test.cc</text>
</a>
</g>
</g>
<!-- Node1&#45;&gt;Node11 -->
<g id="edge10_Node000001_Node000011" class="edge">
<title>Node1&#45;&gt;Node11</title>
<g id="a_edge10_Node000001_Node000011"><a xlink:title=" ">
<path fill="none" stroke="#63b8ff" d="M1164.53,-90.4C1272.32,-82.35 1458.63,-66.18 1617,-41 1626.63,-39.47 1636.78,-37.56 1646.66,-35.54"/>
<polygon fill="#63b8ff" stroke="#63b8ff" points="1164.06,-86.93 1154.35,-91.16 1164.58,-93.91 1164.06,-86.93"/>
</a>
</g>
</g>
<!-- Node12 -->
<g id="Node000012" class="node">
<title>Node12</title>
<g id="a_Node000012"><a xlink:href="image__test_8cc.html" target="_top" xlink:title=" ">
<polygon fill="white" stroke="#666666" points="1970,-35.5 1806,-35.5 1806,-5.5 1970,-5.5 1970,-35.5"/>
<text text-anchor="start" x="1814" y="-23.5" font-family="Helvetica,sans-Serif" font-size="10.00">/home/runner/work/webcface</text>
<text text-anchor="middle" x="1888" y="-12.5" font-family="Helvetica,sans-Serif" font-size="10.00">/webcface/tests/image_test.cc</text>
</a>
</g>
</g>
<!-- Node1&#45;&gt;Node12 -->
<g id="edge11_Node000001_Node000012" class="edge">
<title>Node1&#45;&gt;Node12</title>
<g id="a_edge11_Node000001_Node000012"><a xlink:title=" ">
<path fill="none" stroke="#63b8ff" d="M1164.19,-93.5C1300.96,-88.03 1570.47,-73.83 1797,-41 1807.07,-39.54 1817.7,-37.62 1828,-35.55"/>
<polygon fill="#63b8ff" stroke="#63b8ff" points="1164.03,-90 1154.17,-93.89 1164.3,-97 1164.03,-90"/>
</a>
</g>
</g>
<!-- Node13 -->
<g id="Node000013" class="node">
<title>Node13</title>
<g id="a_Node000013"><a xlink:href="server__test_8cc.html" target="_top" xlink:title=" ">
<polygon fill="white" stroke="#666666" points="2152,-35.5 1988,-35.5 1988,-5.5 2152,-5.5 2152,-35.5"/>
<text text-anchor="start" x="1996" y="-23.5" font-family="Helvetica,sans-Serif" font-size="10.00">/home/runner/work/webcface</text>
<text text-anchor="middle" x="2070" y="-12.5" font-family="Helvetica,sans-Serif" font-size="10.00">/webcface/tests/server_test.cc</text>
</a>
</g>
</g>
<!-- Node1&#45;&gt;Node13 -->
<g id="edge12_Node000001_Node000013" class="edge">
<title>Node1&#45;&gt;Node13</title>
<g id="a_edge12_Node000001_Node000013"><a xlink:title=" ">
<path fill="none" stroke="#63b8ff" d="M1164.74,-95.43C1327.68,-92.51 1682.7,-81.61 1979,-41 1989.24,-39.6 2000.05,-37.68 2010.51,-35.58"/>
<polygon fill="#63b8ff" stroke="#63b8ff" points="1164.23,-91.94 1154.29,-95.61 1164.35,-98.94 1164.23,-91.94"/>
</a>
</g>
</g>
</g>
</svg>
