<?xml version="1.0" encoding="UTF-8" standalone="no"?>
<!DOCTYPE svg PUBLIC "-//W3C//DTD SVG 1.1//EN"
 "http://www.w3.org/Graphics/SVG/1.1/DTD/svg11.dtd">
<!-- Generated by graphviz version 2.43.0 (0)
 -->
<!-- Title: /home/runner/work/webcface/webcface/client/include/webcface/image.h Pages: 1 -->
<svg width="1043pt" height="280pt"
 viewBox="0.00 0.00 1042.50 280.00" xmlns="http://www.w3.org/2000/svg" xmlns:xlink="http://www.w3.org/1999/xlink">
<g id="graph0" class="graph" transform="scale(1 1) rotate(0) translate(4 276)">
<title>/home/runner/work/webcface/webcface/client/include/webcface/image.h</title>
<!-- Node1 -->
<g id="Node000001" class="node">
<title>Node1</title>
<g id="a_Node000001"><a xlink:title=" ">
<polygon fill="#999999" stroke="#666666" points="607,-272 449,-272 449,-231 607,-231 607,-272"/>
<text text-anchor="start" x="457" y="-260" font-family="Helvetica,sans-Serif" font-size="10.00">/home/runner/work/webcface</text>
<text text-anchor="start" x="457" y="-249" font-family="Helvetica,sans-Serif" font-size="10.00">/webcface/client/include</text>
<text text-anchor="middle" x="528" y="-238" font-family="Helvetica,sans-Serif" font-size="10.00">/webcface/image.h</text>
</a>
</g>
</g>
<!-- Node2 -->
<g id="Node000002" class="node">
<title>Node2</title>
<g id="a_Node000002"><a xlink:title=" ">
<polygon fill="#e0e0e0" stroke="#999999" points="56,-79.5 0,-79.5 0,-60.5 56,-60.5 56,-79.5"/>
<text text-anchor="middle" x="28" y="-67.5" font-family="Helvetica,sans-Serif" font-size="10.00">optional</text>
</a>
</g>
</g>
<!-- Node1&#45;&gt;Node2 -->
<g id="edge1_Node000001_Node000002" class="edge">
<title>Node1&#45;&gt;Node2</title>
<g id="a_edge1_Node000001_Node000002"><a xlink:title=" ">
<path fill="none" stroke="#63b8ff" d="M472.29,-230.96C385.21,-200.33 211.61,-138.93 65,-85 63.36,-84.4 61.68,-83.78 59.99,-83.14"/>
<polygon fill="#63b8ff" stroke="#63b8ff" points="60.87,-79.74 50.28,-79.51 58.42,-86.29 60.87,-79.74"/>
</a>
</g>
</g>
<!-- Node3 -->
<g id="Node000003" class="node">
<title>Node3</title>
<g id="a_Node000003"><a xlink:title=" ">
<polygon fill="#e0e0e0" stroke="#999999" points="740,-195 690,-195 690,-176 740,-176 740,-195"/>
<text text-anchor="middle" x="715" y="-183" font-family="Helvetica,sans-Serif" font-size="10.00">chrono</text>
</a>
</g>
</g>
<!-- Node1&#45;&gt;Node3 -->
<g id="edge2_Node000001_Node000003" class="edge">
<title>Node1&#45;&gt;Node3</title>
<g id="a_edge2_Node000001_Node000003"><a xlink:title=" ">
<path fill="none" stroke="#63b8ff" d="M585.12,-230.95C616.17,-220.32 653.56,-207.53 680.23,-198.4"/>
<polygon fill="#63b8ff" stroke="#63b8ff" points="681.57,-201.64 689.9,-195.09 679.3,-195.02 681.57,-201.64"/>
</a>
</g>
</g>
<!-- Node4 -->
<g id="Node000004" class="node">
<title>Node4</title>
<g id="a_Node000004"><a xlink:href="image__frame_8h.html" target="_top" xlink:title=" ">
<polygon fill="white" stroke="#666666" points="391.5,-140 300.5,-140 300.5,-121 391.5,-121 391.5,-140"/>
<text text-anchor="middle" x="346" y="-128" font-family="Helvetica,sans-Serif" font-size="10.00">image_frame.h</text>
</a>
</g>
</g>
<!-- Node1&#45;&gt;Node4 -->
<g id="edge3_Node000001_Node000004" class="edge">
<title>Node1&#45;&gt;Node4</title>
<g id="a_edge3_Node000001_Node000004"><a xlink:title=" ">
<path fill="none" stroke="#63b8ff" d="M497.95,-230.85C461.37,-206.94 400.49,-167.13 368.01,-145.89"/>
<polygon fill="#63b8ff" stroke="#63b8ff" points="369.55,-142.72 359.27,-140.18 365.72,-148.58 369.55,-142.72"/>
</a>
</g>
</g>
<!-- Node9 -->
<g id="Node000009" class="node">
<title>Node9</title>
<g id="a_Node000009"><a xlink:href="def_8h.html" target="_top" xlink:title=" ">
<polygon fill="white" stroke="#666666" points="523,-19 387,-19 387,0 523,0 523,-19"/>
<text text-anchor="middle" x="455" y="-7" font-family="Helvetica,sans-Serif" font-size="10.00">webcface/common/def.h</text>
</a>
</g>
</g>
<!-- Node1&#45;&gt;Node9 -->
<g id="edge32_Node000001_Node000009" class="edge">
<title>Node1&#45;&gt;Node9</title>
<g id="a_edge32_Node000001_Node000009"><a xlink:title=" ">
<path fill="none" stroke="#63b8ff" d="M525.22,-230.77C519.72,-194.83 505.81,-116.7 481,-55 477.21,-45.57 471.66,-35.75 466.67,-27.74"/>
<polygon fill="#63b8ff" stroke="#63b8ff" points="469.57,-25.79 461.19,-19.3 463.7,-29.6 469.57,-25.79"/>
</a>
</g>
</g>
<!-- Node11 -->
<g id="Node000011" class="node">
<title>Node11</title>
<g id="a_Node000011"><a xlink:href="field_8h.html" target="_top" xlink:title=" ">
<polygon fill="white" stroke="#666666" points="651.5,-140 604.5,-140 604.5,-121 651.5,-121 651.5,-140"/>
<text text-anchor="middle" x="628" y="-128" font-family="Helvetica,sans-Serif" font-size="10.00">field.h</text>
</a>
</g>
</g>
<!-- Node1&#45;&gt;Node11 -->
<g id="edge12_Node000001_Node000011" class="edge">
<title>Node1&#45;&gt;Node11</title>
<g id="a_edge12_Node000001_Node000011"><a xlink:title=" ">
<path fill="none" stroke="#63b8ff" d="M538.27,-230.69C546.91,-214.99 560.22,-192.94 575,-176 584.63,-164.97 597.1,-154.35 607.53,-146.26"/>
<polygon fill="#63b8ff" stroke="#63b8ff" points="609.82,-148.92 615.7,-140.1 605.61,-143.33 609.82,-148.92"/>
</a>
</g>
</g>
<!-- Node18 -->
<g id="Node000018" class="node">
<title>Node18</title>
<g id="a_Node000018"><a xlink:href="event__target_8h.html" target="_top" xlink:title=" ">
<polygon fill="white" stroke="#666666" points="672,-195 584,-195 584,-176 672,-176 672,-195"/>
<text text-anchor="middle" x="628" y="-183" font-family="Helvetica,sans-Serif" font-size="10.00">event_target.h</text>
</a>
</g>
</g>
<!-- Node1&#45;&gt;Node18 -->
<g id="edge26_Node000001_Node000018" class="edge">
<title>Node1&#45;&gt;Node18</title>
<g id="a_edge26_Node000001_Node000018"><a xlink:title=" ">
<path fill="none" stroke="#63b8ff" d="M558.55,-230.95C573.91,-221.12 592.17,-209.43 606.11,-200.51"/>
<polygon fill="#63b8ff" stroke="#63b8ff" points="608.04,-203.43 614.58,-195.09 604.27,-197.53 608.04,-203.43"/>
</a>
</g>
</g>
<!-- Node4&#45;&gt;Node2 -->
<g id="edge4_Node000004_Node000002" class="edge">
<title>Node4&#45;&gt;Node2</title>
<g id="a_edge4_Node000004_Node000002"><a xlink:title=" ">
<path fill="none" stroke="#63b8ff" d="M300.14,-125.15C244.02,-119.17 146.4,-106.6 65,-85 62.7,-84.39 60.35,-83.69 58,-82.93"/>
<polygon fill="#63b8ff" stroke="#63b8ff" points="59.09,-79.61 48.5,-79.61 56.78,-86.22 59.09,-79.61"/>
</a>
</g>
</g>
<!-- Node5 -->
<g id="Node000005" class="node">
<title>Node5</title>
<g id="a_Node000005"><a xlink:title=" ">
<polygon fill="#e0e0e0" stroke="#999999" points="471.5,-79.5 424.5,-79.5 424.5,-60.5 471.5,-60.5 471.5,-79.5"/>
<text text-anchor="middle" x="448" y="-67.5" font-family="Helvetica,sans-Serif" font-size="10.00">vector</text>
</a>
</g>
</g>
<!-- Node4&#45;&gt;Node5 -->
<g id="edge5_Node000004_Node000005" class="edge">
<title>Node4&#45;&gt;Node5</title>
<g id="a_edge5_Node000004_Node000005"><a xlink:title=" ">
<path fill="none" stroke="#63b8ff" d="M361.05,-120.87C377.62,-111.36 404.5,-95.95 423.99,-84.77"/>
<polygon fill="#63b8ff" stroke="#63b8ff" points="425.95,-87.68 432.89,-79.67 422.47,-81.61 425.95,-87.68"/>
</a>
</g>
</g>
<!-- Node6 -->
<g id="Node000006" class="node">
<title>Node6</title>
<g id="a_Node000006"><a xlink:title=" ">
<polygon fill="#e0e0e0" stroke="#999999" points="599,-19 541,-19 541,0 599,0 599,-19"/>
<text text-anchor="middle" x="570" y="-7" font-family="Helvetica,sans-Serif" font-size="10.00">memory</text>
</a>
</g>
</g>
<!-- Node4&#45;&gt;Node6 -->
<g id="edge6_Node000004_Node000006" class="edge">
<title>Node4&#45;&gt;Node6</title>
<g id="a_edge6_Node000004_Node000006"><a xlink:title=" ">
<path fill="none" stroke="#63b8ff" d="M384.55,-120.94C412.46,-113.78 450.48,-101.98 481,-85 509.75,-69 538.03,-43.11 554.75,-26.44"/>
<polygon fill="#63b8ff" stroke="#63b8ff" points="557.46,-28.68 561.97,-19.09 552.47,-23.77 557.46,-28.68"/>
</a>
</g>
</g>
<!-- Node7 -->
<g id="Node000007" class="node">
<title>Node7</title>
<g id="a_Node000007"><a xlink:title=" ">
<polygon fill="#e0e0e0" stroke="#999999" points="127.5,-79.5 74.5,-79.5 74.5,-60.5 127.5,-60.5 127.5,-79.5"/>
<text text-anchor="middle" x="101" y="-67.5" font-family="Helvetica,sans-Serif" font-size="10.00">cstddef</text>
</a>
</g>
</g>
<!-- Node4&#45;&gt;Node7 -->
<g id="edge7_Node000004_Node000007" class="edge">
<title>Node4&#45;&gt;Node7</title>
<g id="a_edge7_Node000004_Node000007"><a xlink:title=" ">
<path fill="none" stroke="#63b8ff" d="M300.21,-121.95C257.51,-114.39 192.27,-101.51 137,-85 135.07,-84.42 133.1,-83.79 131.13,-83.12"/>
<polygon fill="#63b8ff" stroke="#63b8ff" points="131.96,-79.7 121.36,-79.58 129.57,-86.28 131.96,-79.7"/>
</a>
</g>
</g>
<!-- Node8 -->
<g id="Node000008" class="node">
<title>Node8</title>
<g id="a_Node000008"><a xlink:title=" ">
<polygon fill="#e0e0e0" stroke="#999999" points="206,-79.5 146,-79.5 146,-60.5 206,-60.5 206,-79.5"/>
<text text-anchor="middle" x="176" y="-67.5" font-family="Helvetica,sans-Serif" font-size="10.00">concepts</text>
</a>
</g>
</g>
<!-- Node4&#45;&gt;Node8 -->
<g id="edge8_Node000004_Node000008" class="edge">
<title>Node4&#45;&gt;Node8</title>
<g id="a_edge8_Node000004_Node000008"><a xlink:title=" ">
<path fill="none" stroke="#63b8ff" d="M320.35,-120.93C293.91,-112.07 251.51,-97.75 215,-85 213.12,-84.34 211.18,-83.66 209.23,-82.97"/>
<polygon fill="#63b8ff" stroke="#63b8ff" points="210.08,-79.56 199.49,-79.51 207.74,-86.16 210.08,-79.56"/>
</a>
</g>
</g>
<!-- Node4&#45;&gt;Node9 -->
<g id="edge9_Node000004_Node000009" class="edge">
<title>Node4&#45;&gt;Node9</title>
<g id="a_edge9_Node000004_Node000009"><a xlink:title=" ">
<path fill="none" stroke="#63b8ff" d="M353.84,-120.94C371.9,-101.23 416.68,-52.34 440.13,-26.73"/>
<polygon fill="#63b8ff" stroke="#63b8ff" points="442.76,-29.04 446.94,-19.3 437.6,-24.31 442.76,-29.04"/>
</a>
</g>
</g>
<!-- Node10 -->
<g id="Node000010" class="node">
<title>Node10</title>
<g id="a_Node000010"><a xlink:href="image__mode_8h.html" target="_top" xlink:title=" ">
<polygon fill="white" stroke="#666666" points="368,-85 224,-85 224,-55 368,-55 368,-85"/>
<text text-anchor="start" x="232" y="-73" font-family="Helvetica,sans-Serif" font-size="10.00">webcface/encoding/image</text>
<text text-anchor="middle" x="296" y="-62" font-family="Helvetica,sans-Serif" font-size="10.00">_mode.h</text>
</a>
</g>
</g>
<!-- Node4&#45;&gt;Node10 -->
<g id="edge10_Node000004_Node000010" class="edge">
<title>Node4&#45;&gt;Node10</title>
<g id="a_edge10_Node000004_Node000010"><a xlink:title=" ">
<path fill="none" stroke="#63b8ff" d="M338.62,-120.87C332.34,-113.52 323.04,-102.63 314.73,-92.91"/>
<polygon fill="#63b8ff" stroke="#63b8ff" points="317.22,-90.44 308.06,-85.11 311.9,-94.99 317.22,-90.44"/>
</a>
</g>
</g>
<!-- Node10&#45;&gt;Node9 -->
<g id="edge11_Node000010_Node000009" class="edge">
<title>Node10&#45;&gt;Node9</title>
<g id="a_edge11_Node000010_Node000009"><a xlink:title=" ">
<path fill="none" stroke="#63b8ff" d="M334.08,-54.99C360.85,-45.14 396.3,-32.1 421.89,-22.68"/>
<polygon fill="#63b8ff" stroke="#63b8ff" points="423.34,-25.88 431.52,-19.14 420.93,-19.31 423.34,-25.88"/>
</a>
</g>
</g>
<!-- Node11&#45;&gt;Node5 -->
<g id="edge16_Node000011_Node000005" class="edge">
<title>Node11&#45;&gt;Node5</title>
<g id="a_edge16_Node000011_Node000005"><a xlink:title=" ">
<path fill="none" stroke="#63b8ff" d="M604.47,-121.85C573.07,-111.65 517.29,-93.52 481.51,-81.89"/>
<polygon fill="#63b8ff" stroke="#63b8ff" points="482.13,-78.41 471.54,-78.65 479.97,-85.07 482.13,-78.41"/>
</a>
</g>
</g>
<!-- Node11&#45;&gt;Node6 -->
<g id="edge13_Node000011_Node000006" class="edge">
<title>Node11&#45;&gt;Node6</title>
<g id="a_edge13_Node000011_Node000006"><a xlink:title=" ">
<path fill="none" stroke="#63b8ff" d="M630.39,-120.68C633.82,-106.13 638.64,-76.58 628,-55 621.51,-41.85 609.07,-31.5 597.36,-24.11"/>
<polygon fill="#63b8ff" stroke="#63b8ff" points="599.07,-21.05 588.67,-19.03 595.54,-27.1 599.07,-21.05"/>
</a>
</g>
</g>
<!-- Node11&#45;&gt;Node9 -->
<g id="edge17_Node000011_Node000009" class="edge">
<title>Node11&#45;&gt;Node9</title>
<g id="a_edge17_Node000011_Node000009"><a xlink:title=" ">
<path fill="none" stroke="#63b8ff" d="M625.9,-120.78C621.73,-105.3 610.94,-72.96 590,-55 570.9,-38.63 545.61,-28.24 522.08,-21.66"/>
<polygon fill="#63b8ff" stroke="#63b8ff" points="522.69,-18.2 512.13,-19.07 520.93,-24.98 522.69,-18.2"/>
</a>
</g>
</g>
<!-- Node12 -->
<g id="Node000012" class="node">
<title>Node12</title>
<g id="a_Node000012"><a xlink:title=" ">
<polygon fill="#e0e0e0" stroke="#999999" points="943,-19 899,-19 899,0 943,0 943,-19"/>
<text text-anchor="middle" x="921" y="-7" font-family="Helvetica,sans-Serif" font-size="10.00">string</text>
</a>
</g>
</g>
<!-- Node11&#45;&gt;Node12 -->
<g id="edge14_Node000011_Node000012" class="edge">
<title>Node11&#45;&gt;Node12</title>
<g id="a_edge14_Node000011_Node000012"><a xlink:title=" ">
<path fill="none" stroke="#63b8ff" d="M651.75,-123.17C654.85,-122.41 658,-121.66 661,-121 747.06,-102 779.43,-128.64 856,-85 880.16,-71.23 899.77,-45.06 910.92,-27.69"/>
<polygon fill="#63b8ff" stroke="#63b8ff" points="913.95,-29.43 916.21,-19.08 907.99,-25.76 913.95,-29.43"/>
</a>
</g>
</g>
<!-- Node13 -->
<g id="Node000013" class="node">
<title>Node13</title>
<g id="a_Node000013"><a xlink:title=" ">
<polygon fill="#e0e0e0" stroke="#999999" points="1034.5,-19 961.5,-19 961.5,0 1034.5,0 1034.5,-19"/>
<text text-anchor="middle" x="998" y="-7" font-family="Helvetica,sans-Serif" font-size="10.00">string_view</text>
</a>
</g>
</g>
<!-- Node11&#45;&gt;Node13 -->
<g id="edge15_Node000011_Node000013" class="edge">
<title>Node11&#45;&gt;Node13</title>
<g id="a_edge15_Node000011_Node000013"><a xlink:title=" ">
<path fill="none" stroke="#63b8ff" d="M651.73,-123.1C654.84,-122.35 657.99,-121.63 661,-121 760.58,-100.29 792.34,-122.21 887,-85 923.45,-70.67 960.08,-42.86 980.81,-25.57"/>
<polygon fill="#63b8ff" stroke="#63b8ff" points="983.08,-28.23 988.43,-19.08 978.55,-22.9 983.08,-28.23"/>
</a>
</g>
</g>
<!-- Node14 -->
<g id="Node000014" class="node">
<title>Node14</title>
<g id="a_Node000014"><a xlink:href="encoding_8h.html" target="_top" xlink:title=" ">
<polygon fill="white" stroke="#666666" points="846.5,-79.5 679.5,-79.5 679.5,-60.5 846.5,-60.5 846.5,-79.5"/>
<text text-anchor="middle" x="763" y="-67.5" font-family="Helvetica,sans-Serif" font-size="10.00">webcface/encoding/encoding.h</text>
</a>
</g>
</g>
<!-- Node11&#45;&gt;Node14 -->
<g id="edge18_Node000011_Node000014" class="edge">
<title>Node11&#45;&gt;Node14</title>
<g id="a_edge18_Node000011_Node000014"><a xlink:title=" ">
<path fill="none" stroke="#63b8ff" d="M647.63,-120.99C670.33,-111.16 707.9,-94.88 733.97,-83.58"/>
<polygon fill="#63b8ff" stroke="#63b8ff" points="735.56,-86.7 743.35,-79.52 732.78,-80.28 735.56,-86.7"/>
</a>
</g>
</g>
<!-- Node14&#45;&gt;Node6 -->
<g id="edge21_Node000014_Node000006" class="edge">
<title>Node14&#45;&gt;Node6</title>
<g id="a_edge21_Node000014_Node000006"><a xlink:title=" ">
<path fill="none" stroke="#63b8ff" d="M734.94,-60.49C701.49,-50.36 645.44,-33.37 608.1,-22.05"/>
<polygon fill="#63b8ff" stroke="#63b8ff" points="608.68,-18.57 598.1,-19.02 606.65,-25.27 608.68,-18.57"/>
</a>
</g>
</g>
<!-- Node14&#45;&gt;Node9 -->
<g id="edge25_Node000014_Node000009" class="edge">
<title>Node14&#45;&gt;Node9</title>
<g id="a_edge25_Node000014_Node000009"><a xlink:title=" ">
<path fill="none" stroke="#63b8ff" d="M718.21,-60.49C663.01,-50.01 569.24,-32.2 509.8,-20.91"/>
<polygon fill="#63b8ff" stroke="#63b8ff" points="510.32,-17.44 499.84,-19.02 509.01,-24.32 510.32,-17.44"/>
</a>
</g>
</g>
<!-- Node14&#45;&gt;Node12 -->
<g id="edge19_Node000014_Node000012" class="edge">
<title>Node14&#45;&gt;Node12</title>
<g id="a_edge19_Node000014_Node000012"><a xlink:title=" ">
<path fill="none" stroke="#63b8ff" d="M785.97,-60.49C813.12,-50.44 858.44,-33.66 889.01,-22.34"/>
<polygon fill="#63b8ff" stroke="#63b8ff" points="890.6,-25.49 898.76,-18.73 888.17,-18.92 890.6,-25.49"/>
</a>
</g>
</g>
<!-- Node14&#45;&gt;Node13 -->
<g id="edge20_Node000014_Node000013" class="edge">
<title>Node14&#45;&gt;Node13</title>
<g id="a_edge20_Node000014_Node000013"><a xlink:title=" ">
<path fill="none" stroke="#63b8ff" d="M797.17,-60.49C838.59,-50.18 908.48,-32.78 953.92,-21.47"/>
<polygon fill="#63b8ff" stroke="#63b8ff" points="954.93,-24.83 963.79,-19.02 953.24,-18.04 954.93,-24.83"/>
</a>
</g>
</g>
<!-- Node15 -->
<g id="Node000015" class="node">
<title>Node15</title>
<g id="a_Node000015"><a xlink:title=" ">
<polygon fill="#e0e0e0" stroke="#999999" points="665,-19 617,-19 617,0 665,0 665,-19"/>
<text text-anchor="middle" x="641" y="-7" font-family="Helvetica,sans-Serif" font-size="10.00">mutex</text>
</a>
</g>
</g>
<!-- Node14&#45;&gt;Node15 -->
<g id="edge22_Node000014_Node000015" class="edge">
<title>Node14&#45;&gt;Node15</title>
<g id="a_edge22_Node000014_Node000015"><a xlink:title=" ">
<path fill="none" stroke="#63b8ff" d="M745.26,-60.49C724.93,-50.75 691.39,-34.66 667.86,-23.38"/>
<polygon fill="#63b8ff" stroke="#63b8ff" points="669.29,-20.18 658.76,-19.02 666.26,-26.5 669.29,-20.18"/>
</a>
</g>
</g>
<!-- Node16 -->
<g id="Node000016" class="node">
<title>Node16</title>
<g id="a_Node000016"><a xlink:title=" ">
<polygon fill="#e0e0e0" stroke="#999999" points="776.5,-19 683.5,-19 683.5,0 776.5,0 776.5,-19"/>
<text text-anchor="middle" x="730" y="-7" font-family="Helvetica,sans-Serif" font-size="10.00">unordered_map</text>
</a>
</g>
</g>
<!-- Node14&#45;&gt;Node16 -->
<g id="edge23_Node000014_Node000016" class="edge">
<title>Node14&#45;&gt;Node16</title>
<g id="a_edge23_Node000014_Node000016"><a xlink:title=" ">
<path fill="none" stroke="#63b8ff" d="M758.13,-60.37C753.35,-51.9 745.93,-38.74 739.91,-28.07"/>
<polygon fill="#63b8ff" stroke="#63b8ff" points="742.85,-26.16 734.89,-19.17 736.75,-29.6 742.85,-26.16"/>
</a>
</g>
</g>
<!-- Node17 -->
<g id="Node000017" class="node">
<title>Node17</title>
<g id="a_Node000017"><a xlink:title=" ">
<polygon fill="#e0e0e0" stroke="#999999" points="881,-19 795,-19 795,0 881,0 881,-19"/>
<text text-anchor="middle" x="838" y="-7" font-family="Helvetica,sans-Serif" font-size="10.00">unordered_set</text>
</a>
</g>
</g>
<!-- Node14&#45;&gt;Node17 -->
<g id="edge24_Node000014_Node000017" class="edge">
<title>Node14&#45;&gt;Node17</title>
<g id="a_edge24_Node000014_Node000017"><a xlink:title=" ">
<path fill="none" stroke="#63b8ff" d="M774.07,-60.37C785.81,-51.21 804.59,-36.56 818.76,-25.51"/>
<polygon fill="#63b8ff" stroke="#63b8ff" points="821.16,-28.08 826.89,-19.17 816.85,-22.56 821.16,-28.08"/>
</a>
</g>
</g>
<!-- Node18&#45;&gt;Node9 -->
<g id="edge31_Node000018_Node000009" class="edge">
<title>Node18&#45;&gt;Node9</title>
<g id="a_edge31_Node000018_Node000009"><a xlink:title=" ">
<path fill="none" stroke="#63b8ff" d="M621.35,-175.78C604.59,-154.11 558.81,-96.54 514,-55 502.15,-44.02 487.69,-33.07 476.05,-24.79"/>
<polygon fill="#63b8ff" stroke="#63b8ff" points="477.98,-21.87 467.78,-19.01 473.97,-27.61 477.98,-21.87"/>
</a>
</g>
</g>
<!-- Node18&#45;&gt;Node11 -->
<g id="edge30_Node000018_Node000011" class="edge">
<title>Node18&#45;&gt;Node11</title>
<g id="a_edge30_Node000018_Node000011"><a xlink:title=" ">
<path fill="none" stroke="#63b8ff" d="M628,-175.75C628,-168.8 628,-158.85 628,-150.13"/>
<polygon fill="#63b8ff" stroke="#63b8ff" points="631.5,-150.09 628,-140.09 624.5,-150.09 631.5,-150.09"/>
</a>
</g>
</g>
<!-- Node19 -->
<g id="Node000019" class="node">
<title>Node19</title>
<g id="a_Node000019"><a xlink:title=" ">
<polygon fill="#e0e0e0" stroke="#999999" points="734.5,-140 669.5,-140 669.5,-121 734.5,-121 734.5,-140"/>
<text text-anchor="middle" x="702" y="-128" font-family="Helvetica,sans-Serif" font-size="10.00">functional</text>
</a>
</g>
</g>
<!-- Node18&#45;&gt;Node19 -->
<g id="edge27_Node000018_Node000019" class="edge">
<title>Node18&#45;&gt;Node19</title>
<g id="a_edge27_Node000018_Node000019"><a xlink:title=" ">
<path fill="none" stroke="#63b8ff" d="M639.89,-175.98C651.15,-167.92 668.29,-155.65 681.71,-146.03"/>
<polygon fill="#63b8ff" stroke="#63b8ff" points="683.8,-148.84 689.89,-140.17 679.73,-143.15 683.8,-148.84"/>
</a>
</g>
</g>
<!-- Node20 -->
<g id="Node000020" class="node">
<title>Node20</title>
<g id="a_Node000020"><a xlink:title=" ">
<polygon fill="#e0e0e0" stroke="#999999" points="817.5,-140 752.5,-140 752.5,-121 817.5,-121 817.5,-140"/>
<text text-anchor="middle" x="785" y="-128" font-family="Helvetica,sans-Serif" font-size="10.00">stdexcept</text>
</a>
</g>
</g>
<!-- Node18&#45;&gt;Node20 -->
<g id="edge28_Node000018_Node000020" class="edge">
<title>Node18&#45;&gt;Node20</title>
<g id="a_edge28_Node000018_Node000020"><a xlink:title=" ">
<path fill="none" stroke="#63b8ff" d="M653.22,-175.98C679.36,-167.16 720.4,-153.31 749.73,-143.41"/>
<polygon fill="#63b8ff" stroke="#63b8ff" points="751.22,-146.6 759.58,-140.08 748.98,-139.96 751.22,-146.6"/>
</a>
</g>
</g>
<!-- Node21 -->
<g id="Node000021" class="node">
<title>Node21</title>
<g id="a_Node000021"><a xlink:title=" ">
<polygon fill="#e0e0e0" stroke="#999999" points="960,-140 836,-140 836,-121 960,-121 960,-140"/>
<text text-anchor="middle" x="898" y="-128" font-family="Helvetica,sans-Serif" font-size="10.00">eventpp/callbacklist.h</text>
</a>
</g>
</g>
<!-- Node18&#45;&gt;Node21 -->
<g id="edge29_Node000018_Node000021" class="edge">
<title>Node18&#45;&gt;Node21</title>
<g id="a_edge29_Node000018_Node000021"><a xlink:title=" ">
<path fill="none" stroke="#63b8ff" d="M671.38,-175.98C718.38,-166.76 793.43,-152.03 844.16,-142.07"/>
<polygon fill="#63b8ff" stroke="#63b8ff" points="845.14,-145.44 854.28,-140.08 843.79,-138.57 845.14,-145.44"/>
</a>
</g>
</g>
</g>
</svg>
