<?xml version="1.0" encoding="UTF-8" standalone="no"?>
<!DOCTYPE svg PUBLIC "-//W3C//DTD SVG 1.1//EN"
 "http://www.w3.org/Graphics/SVG/1.1/DTD/svg11.dtd">
<!-- Generated by graphviz version 2.43.0 (0)
 -->
<!-- Title: Graphical Class Hierarchy Pages: 1 -->
<svg width="333pt" height="113pt"
 viewBox="0.00 0.00 333.00 112.50" xmlns="http://www.w3.org/2000/svg" xmlns:xlink="http://www.w3.org/1999/xlink">
<g id="graph0" class="graph" transform="scale(1 1) rotate(0) translate(4 108.5)">
<title>Graphical Class Hierarchy</title>
<!-- Node0 -->
<g id="Node000000" class="node">
<title>Node0</title>
<g id="a_Node000000"><a xlink:href="structwebcface_1_1Common_1_1Canvas2DComponentBase.html" target="_top" xlink:title=" ">
<polygon fill="white" stroke="#666666" points="156.5,-104.5 10.5,-104.5 10.5,-85.5 156.5,-85.5 156.5,-104.5"/>
<text text-anchor="middle" x="83.5" y="-92.5" font-family="Helvetica,sans-Serif" font-size="10.00">Canvas2DComponentBase</text>
</a>
</g>
</g>
<!-- Node1 -->
<g id="Node000001" class="node">
<title>Node1</title>
<g id="a_Node000001"><a xlink:href="classwebcface_1_1Canvas2DComponent.html" target="_top" xlink:title="Canvas2Dの各要素を表すクラス。">
<polygon fill="white" stroke="#666666" points="325,-67.5 203,-67.5 203,-48.5 325,-48.5 325,-67.5"/>
<text text-anchor="middle" x="264" y="-55.5" font-family="Helvetica,sans-Serif" font-size="10.00">Canvas2DComponent</text>
</a>
</g>
</g>
<!-- Node0&#45;&gt;Node1 -->
<g id="edge5_Node000000_Node000001" class="edge">
<title>Node0&#45;&gt;Node1</title>
<g id="a_edge5_Node000000_Node000001"><a xlink:title=" ">
<path fill="none" stroke="darkgreen" d="M140.39,-83.42C164.98,-78.32 193.52,-72.4 216.88,-67.56"/>
<polygon fill="darkgreen" stroke="darkgreen" points="139.55,-80.01 130.47,-85.47 140.97,-86.87 139.55,-80.01"/>
</a>
</g>
</g>
<!-- Node2 -->
<g id="Node000002" class="node">
<title>Node2</title>
<g id="a_Node000002"><a xlink:href="structwebcface_1_1Common_1_1Canvas2DComponentBase.html" target="_top" xlink:title=" ">
<polygon fill="white" stroke="#666666" points="156.5,-67.5 10.5,-67.5 10.5,-48.5 156.5,-48.5 156.5,-67.5"/>
<text text-anchor="middle" x="83.5" y="-55.5" font-family="Helvetica,sans-Serif" font-size="10.00">Canvas2DComponentBase</text>
</a>
</g>
</g>
<!-- Node2&#45;&gt;Node1 -->
<g id="edge6_Node000002_Node000001" class="edge">
<title>Node2&#45;&gt;Node1</title>
<g id="a_edge6_Node000002_Node000001"><a xlink:title=" ">
<path fill="none" stroke="darkgreen" d="M166.77,-58C178.95,-58 191.32,-58 202.94,-58"/>
<polygon fill="darkgreen" stroke="darkgreen" points="166.59,-54.5 156.59,-58 166.59,-61.5 166.59,-54.5"/>
</a>
</g>
</g>
<!-- Node3 -->
<g id="Node000003" class="node">
<title>Node3</title>
<g id="a_Node000003"><a xlink:href="classwebcface_1_1IdBase.html" target="_top" xlink:title=" ">
<polygon fill="white" stroke="#666666" points="167,-30 0,-30 0,0 167,0 167,-30"/>
<text text-anchor="start" x="8" y="-18" font-family="Helvetica,sans-Serif" font-size="10.00">IdBase&lt; Canvas2DComponent</text>
<text text-anchor="middle" x="83.5" y="-7" font-family="Helvetica,sans-Serif" font-size="10.00">Type &gt;</text>
</a>
</g>
</g>
<!-- Node3&#45;&gt;Node1 -->
<g id="edge7_Node000003_Node000001" class="edge">
<title>Node3&#45;&gt;Node1</title>
<g id="a_edge7_Node000003_Node000001"><a xlink:title=" ">
<path fill="none" stroke="#63b8ff" d="M156.91,-32.44C179.65,-37.92 203.9,-43.76 223.47,-48.48"/>
<polygon fill="#63b8ff" stroke="#63b8ff" points="157.47,-28.98 146.93,-30.04 155.83,-35.78 157.47,-28.98"/>
</a>
</g>
</g>
</g>
</svg>
