<?xml version="1.0" encoding="UTF-8" standalone="no"?>
<!DOCTYPE svg PUBLIC "-//W3C//DTD SVG 1.1//EN"
 "http://www.w3.org/Graphics/SVG/1.1/DTD/svg11.dtd">
<!-- Generated by graphviz version 2.43.0 (0)
 -->
<!-- Title: Graphical Class Hierarchy Pages: 1 -->
<svg width="150pt" height="64pt"
 viewBox="0.00 0.00 150.00 64.00" xmlns="http://www.w3.org/2000/svg" xmlns:xlink="http://www.w3.org/1999/xlink">
<g id="graph0" class="graph" transform="scale(1 1) rotate(0) translate(4 60)">
<title>Graphical Class Hierarchy</title>
<!-- Node0 -->
<g id="Node000000" class="node">
<title>Node0</title>
<g id="a_Node000000"><a xlink:href="classwebcface_1_1Common_1_1Point.html" target="_top" xlink:title="3次元 or 2次元の座標">
<polygon fill="white" stroke="#666666" points="41,-56 0,-56 0,-37 41,-37 41,-56"/>
<text text-anchor="middle" x="20.5" y="-44" font-family="Helvetica,sans-Serif" font-size="10.00">Point</text>
</a>
</g>
</g>
<!-- Node1 -->
<g id="Node000001" class="node">
<title>Node1</title>
<g id="a_Node000001"><a xlink:href="classwebcface_1_1Common_1_1Transform.html" target="_top" xlink:title="3次元の座標と回転">
<polygon fill="white" stroke="#666666" points="142,-37 77,-37 77,-18 142,-18 142,-37"/>
<text text-anchor="middle" x="109.5" y="-25" font-family="Helvetica,sans-Serif" font-size="10.00">Transform</text>
</a>
</g>
</g>
<!-- Node0&#45;&gt;Node1 -->
<g id="edge95_Node000000_Node000001" class="edge">
<title>Node0&#45;&gt;Node1</title>
<g id="a_edge95_Node000000_Node000001"><a xlink:title=" ">
<path fill="none" stroke="#63b8ff" d="M51.22,-40.01C59.5,-38.2 68.51,-36.23 76.89,-34.4"/>
<polygon fill="#63b8ff" stroke="#63b8ff" points="50.26,-36.64 41.24,-42.19 51.76,-43.47 50.26,-36.64"/>
</a>
</g>
</g>
<!-- Node2 -->
<g id="Node000002" class="node">
<title>Node2</title>
<g id="a_Node000002"><a xlink:href="classwebcface_1_1Common_1_1Point.html" target="_top" xlink:title="3次元 or 2次元の座標">
<polygon fill="white" stroke="#666666" points="41,-19 0,-19 0,0 41,0 41,-19"/>
<text text-anchor="middle" x="20.5" y="-7" font-family="Helvetica,sans-Serif" font-size="10.00">Point</text>
</a>
</g>
</g>
<!-- Node2&#45;&gt;Node1 -->
<g id="edge96_Node000002_Node000001" class="edge">
<title>Node2&#45;&gt;Node1</title>
<g id="a_edge96_Node000002_Node000001"><a xlink:title=" ">
<path fill="none" stroke="#63b8ff" d="M51.22,-15.65C59.5,-17.36 68.51,-19.23 76.89,-20.96"/>
<polygon fill="#63b8ff" stroke="#63b8ff" points="51.74,-12.18 41.24,-13.58 50.33,-19.04 51.74,-12.18"/>
</a>
</g>
</g>
</g>
</svg>
