<?xml version="1.0" encoding="UTF-8" standalone="no"?>
<!DOCTYPE svg PUBLIC "-//W3C//DTD SVG 1.1//EN"
 "http://www.w3.org/Graphics/SVG/1.1/DTD/svg11.dtd">
<!-- Generated by graphviz version 2.43.0 (0)
 -->
<!-- Title: Graphical Class Hierarchy Pages: 1 -->
<svg width="213pt" height="101pt"
 viewBox="0.00 0.00 213.00 101.00" xmlns="http://www.w3.org/2000/svg" xmlns:xlink="http://www.w3.org/1999/xlink">
<g id="graph0" class="graph" transform="scale(1 1) rotate(0) translate(4 97)">
<title>Graphical Class Hierarchy</title>
<!-- Node0 -->
<g id="Node000000" class="node">
<title>Node0</title>
<g id="a_Node000000"><a xlink:title=" ">
<polygon fill="#e0e0e0" stroke="#999999" points="83,-56 0,-56 0,-37 83,-37 83,-56"/>
<text text-anchor="middle" x="41.5" y="-44" font-family="Helvetica,sans-Serif" font-size="10.00">runtime_error</text>
</a>
</g>
</g>
<!-- Node1 -->
<g id="Node000001" class="node">
<title>Node1</title>
<g id="a_Node000001"><a xlink:href="structwebcface_1_1FuncNotFound.html" target="_top" xlink:title="Funcの実行ができなかった場合発生する例外">
<polygon fill="white" stroke="#666666" points="205,-93 119,-93 119,-74 205,-74 205,-93"/>
<text text-anchor="middle" x="162" y="-81" font-family="Helvetica,sans-Serif" font-size="10.00">FuncNotFound</text>
</a>
</g>
</g>
<!-- Node0&#45;&gt;Node1 -->
<g id="edge152_Node000000_Node000001" class="edge">
<title>Node0&#45;&gt;Node1</title>
<g id="a_edge152_Node000000_Node000001"><a xlink:title=" ">
<path fill="none" stroke="#63b8ff" d="M82.86,-59.1C98.34,-63.93 115.73,-69.37 130.17,-73.88"/>
<polygon fill="#63b8ff" stroke="#63b8ff" points="83.61,-55.67 73.02,-56.03 81.52,-62.35 83.61,-55.67"/>
</a>
</g>
</g>
<!-- Node2 -->
<g id="Node000002" class="node">
<title>Node2</title>
<g id="a_Node000002"><a xlink:href="structwebcface_1_1PromiseError.html" target="_top" xlink:title="Funcの実行結果の処理中に発生した例外">
<polygon fill="white" stroke="#666666" points="202,-56 122,-56 122,-37 202,-37 202,-56"/>
<text text-anchor="middle" x="162" y="-44" font-family="Helvetica,sans-Serif" font-size="10.00">PromiseError</text>
</a>
</g>
</g>
<!-- Node0&#45;&gt;Node2 -->
<g id="edge153_Node000000_Node000002" class="edge">
<title>Node0&#45;&gt;Node2</title>
<g id="a_edge153_Node000000_Node000002"><a xlink:title=" ">
<path fill="none" stroke="#63b8ff" d="M93.41,-46.5C102.9,-46.5 112.68,-46.5 121.74,-46.5"/>
<polygon fill="#63b8ff" stroke="#63b8ff" points="93.28,-43 83.28,-46.5 93.28,-50 93.28,-43"/>
</a>
</g>
</g>
<!-- Node3 -->
<g id="Node000003" class="node">
<title>Node3</title>
<g id="a_Node000003"><a xlink:href="structwebcface_1_1SanityError.html" target="_top" xlink:title="未初期化の変数にアクセスした場合に発生する例外">
<polygon fill="white" stroke="#666666" points="197.5,-19 126.5,-19 126.5,0 197.5,0 197.5,-19"/>
<text text-anchor="middle" x="162" y="-7" font-family="Helvetica,sans-Serif" font-size="10.00">SanityError</text>
</a>
</g>
</g>
<!-- Node0&#45;&gt;Node3 -->
<g id="edge154_Node000000_Node000003" class="edge">
<title>Node0&#45;&gt;Node3</title>
<g id="a_edge154_Node000000_Node000003"><a xlink:title=" ">
<path fill="none" stroke="#63b8ff" d="M82.86,-33.9C98.34,-29.07 115.73,-23.63 130.17,-19.12"/>
<polygon fill="#63b8ff" stroke="#63b8ff" points="81.52,-30.65 73.02,-36.97 83.61,-37.33 81.52,-30.65"/>
</a>
</g>
</g>
</g>
</svg>
