<?xml version="1.0" encoding="UTF-8" standalone="no"?>
<!DOCTYPE svg PUBLIC "-//W3C//DTD SVG 1.1//EN"
 "http://www.w3.org/Graphics/SVG/1.1/DTD/svg11.dtd">
<!-- Generated by graphviz version 2.43.0 (0)
 -->
<!-- Title: benchmarks/latency&#45;text.cc Pages: 1 -->
<svg width="1715pt" height="324pt"
 viewBox="0.00 0.00 1715.00 324.00" xmlns="http://www.w3.org/2000/svg" xmlns:xlink="http://www.w3.org/1999/xlink">
<g id="graph0" class="graph" transform="scale(1 1) rotate(0) translate(4 320)">
<title>benchmarks/latency&#45;text.cc</title>
<!-- Node1 -->
<g id="Node000001" class="node">
<title>Node1</title>
<g id="a_Node000001"><a xlink:title=" ">
<polygon fill="#999999" stroke="#666666" points="1160,-316 1044,-316 1044,-286 1160,-286 1160,-316"/>
<text text-anchor="start" x="1052" y="-304" font-family="Helvetica,sans-Serif" font-size="10.00">benchmarks/latency</text>
<text text-anchor="middle" x="1102" y="-293" font-family="Helvetica,sans-Serif" font-size="10.00">&#45;text.cc</text>
</a>
</g>
</g>
<!-- Node2 -->
<g id="Node000002" class="node">
<title>Node2</title>
<g id="a_Node000002"><a xlink:title=" ">
<polygon fill="#e0e0e0" stroke="#999999" points="158,-250 20,-250 20,-231 158,-231 158,-250"/>
<text text-anchor="middle" x="89" y="-238" font-family="Helvetica,sans-Serif" font-size="10.00">benchmark/benchmark.h</text>
</a>
</g>
</g>
<!-- Node1&#45;&gt;Node2 -->
<g id="edge1_Node000001_Node000002" class="edge">
<title>Node1&#45;&gt;Node2</title>
<g id="a_edge1_Node000001_Node000002"><a xlink:title=" ">
<path fill="none" stroke="#63b8ff" d="M1043.93,-298.01C898.4,-292.78 506.1,-277.2 168.28,-250.06"/>
<polygon fill="#63b8ff" stroke="#63b8ff" points="168.55,-246.57 158.3,-249.25 167.99,-253.55 168.55,-246.57"/>
</a>
</g>
</g>
<!-- Node3 -->
<g id="Node000003" class="node">
<title>Node3</title>
<g id="a_Node000003"><a xlink:href="client_8h.html" target="_top" xlink:title=" ">
<polygon fill="white" stroke="#666666" points="278,-250 176,-250 176,-231 278,-231 278,-250"/>
<text text-anchor="middle" x="227" y="-238" font-family="Helvetica,sans-Serif" font-size="10.00">webcface/client.h</text>
</a>
</g>
</g>
<!-- Node1&#45;&gt;Node3 -->
<g id="edge2_Node000001_Node000003" class="edge">
<title>Node1&#45;&gt;Node3</title>
<g id="a_edge2_Node000001_Node000003"><a xlink:title=" ">
<path fill="none" stroke="#63b8ff" d="M1043.91,-296.12C886.02,-285.56 450,-256.41 288.35,-245.6"/>
<polygon fill="#63b8ff" stroke="#63b8ff" points="288.32,-242.09 278.1,-244.92 287.85,-249.08 288.32,-242.09"/>
</a>
</g>
</g>
<!-- Node5 -->
<g id="Node000005" class="node">
<title>Node5</title>
<g id="a_Node000005"><a xlink:title=" ">
<polygon fill="#e0e0e0" stroke="#999999" points="1036,-19 978,-19 978,0 1036,0 1036,-19"/>
<text text-anchor="middle" x="1007" y="-7" font-family="Helvetica,sans-Serif" font-size="10.00">memory</text>
</a>
</g>
</g>
<!-- Node1&#45;&gt;Node5 -->
<g id="edge56_Node000001_Node000005" class="edge">
<title>Node1&#45;&gt;Node5</title>
<g id="a_edge56_Node000001_Node000005"><a xlink:title=" ">
<path fill="none" stroke="#63b8ff" d="M1102,-285.67C1102,-264.14 1102,-222.17 1102,-186.5 1102,-186.5 1102,-186.5 1102,-124 1102,-79.71 1058.94,-43.61 1030.8,-24.75"/>
<polygon fill="#63b8ff" stroke="#63b8ff" points="1032.56,-21.72 1022.26,-19.24 1028.77,-27.6 1032.56,-21.72"/>
</a>
</g>
</g>
<!-- Node17 -->
<g id="Node000017" class="node">
<title>Node17</title>
<g id="a_Node000017"><a xlink:href="client_2include_2webcface_2text_8h.html" target="_top" xlink:title=" ">
<polygon fill="white" stroke="#666666" points="551.5,-195 456.5,-195 456.5,-176 551.5,-176 551.5,-195"/>
<text text-anchor="middle" x="504" y="-183" font-family="Helvetica,sans-Serif" font-size="10.00">webcface/text.h</text>
</a>
</g>
</g>
<!-- Node1&#45;&gt;Node17 -->
<g id="edge27_Node000001_Node000017" class="edge">
<title>Node1&#45;&gt;Node17</title>
<g id="a_edge27_Node000001_Node000017"><a xlink:title=" ">
<path fill="none" stroke="#63b8ff" d="M1043.85,-288.96C928.43,-267.06 671.87,-218.36 559.05,-196.95"/>
<polygon fill="#63b8ff" stroke="#63b8ff" points="559.38,-193.45 548.91,-195.02 558.08,-200.33 559.38,-193.45"/>
</a>
</g>
</g>
<!-- Node23 -->
<g id="Node000023" class="node">
<title>Node23</title>
<g id="a_Node000023"><a xlink:href="server_2server_8h.html" target="_top" xlink:title=" ">
<polygon fill="white" stroke="#666666" points="1289.5,-134.5 1150.5,-134.5 1150.5,-115.5 1289.5,-115.5 1289.5,-134.5"/>
<text text-anchor="middle" x="1220" y="-122.5" font-family="Helvetica,sans-Serif" font-size="10.00">webcface/server/server.h</text>
</a>
</g>
</g>
<!-- Node1&#45;&gt;Node23 -->
<g id="edge44_Node000001_Node000023" class="edge">
<title>Node1&#45;&gt;Node23</title>
<g id="a_edge44_Node000001_Node000023"><a xlink:title=" ">
<path fill="none" stroke="#63b8ff" d="M1111.66,-285.76C1133.19,-254.01 1185.07,-177.5 1208.35,-143.18"/>
<polygon fill="#63b8ff" stroke="#63b8ff" points="1211.39,-144.93 1214.11,-134.68 1205.6,-141 1211.39,-144.93"/>
</a>
</g>
</g>
<!-- Node29 -->
<g id="Node000029" class="node">
<title>Node29</title>
<g id="a_Node000029"><a xlink:title=" ">
<polygon fill="#e0e0e0" stroke="#999999" points="1707,-74 1657,-74 1657,-55 1707,-55 1707,-74"/>
<text text-anchor="middle" x="1682" y="-62" font-family="Helvetica,sans-Serif" font-size="10.00">atomic</text>
</a>
</g>
</g>
<!-- Node1&#45;&gt;Node29 -->
<g id="edge54_Node000001_Node000029" class="edge">
<title>Node1&#45;&gt;Node29</title>
<g id="a_edge54_Node000001_Node000029"><a xlink:title=" ">
<path fill="none" stroke="#63b8ff" d="M1136.98,-285.86C1241.87,-243.45 1552.65,-117.8 1651.47,-77.84"/>
<polygon fill="#63b8ff" stroke="#63b8ff" points="1652.92,-81.03 1660.88,-74.04 1650.3,-74.54 1652.92,-81.03"/>
</a>
</g>
</g>
<!-- Node30 -->
<g id="Node000030" class="node">
<title>Node30</title>
<g id="a_Node000030"><a xlink:title=" ">
<polygon fill="#e0e0e0" stroke="#999999" points="1406,-250 1346,-250 1346,-231 1406,-231 1406,-250"/>
<text text-anchor="middle" x="1376" y="-238" font-family="Helvetica,sans-Serif" font-size="10.00">iostream</text>
</a>
</g>
</g>
<!-- Node1&#45;&gt;Node30 -->
<g id="edge55_Node000001_Node000030" class="edge">
<title>Node1&#45;&gt;Node30</title>
<g id="a_edge55_Node000001_Node000030"><a xlink:title=" ">
<path fill="none" stroke="#63b8ff" d="M1160.11,-287.59C1212.98,-276.31 1289.62,-259.94 1335.94,-250.05"/>
<polygon fill="#63b8ff" stroke="#63b8ff" points="1336.86,-253.44 1345.91,-247.92 1335.4,-246.59 1336.86,-253.44"/>
</a>
</g>
</g>
<!-- Node4 -->
<g id="Node000004" class="node">
<title>Node4</title>
<g id="a_Node000004"><a xlink:title=" ">
<polygon fill="#e0e0e0" stroke="#999999" points="44,-19 0,-19 0,0 44,0 44,-19"/>
<text text-anchor="middle" x="22" y="-7" font-family="Helvetica,sans-Serif" font-size="10.00">string</text>
</a>
</g>
</g>
<!-- Node3&#45;&gt;Node4 -->
<g id="edge3_Node000003_Node000004" class="edge">
<title>Node3&#45;&gt;Node4</title>
<g id="a_edge3_Node000003_Node000004"><a xlink:title=" ">
<path fill="none" stroke="#63b8ff" d="M206.59,-230.97C188.53,-222.96 161.9,-210 141,-195 84.78,-154.65 72.33,-136.68 43,-74 36.23,-59.52 30.66,-42.25 26.97,-29.38"/>
<polygon fill="#63b8ff" stroke="#63b8ff" points="30.25,-28.09 24.22,-19.38 23.5,-29.95 30.25,-28.09"/>
</a>
</g>
</g>
<!-- Node3&#45;&gt;Node5 -->
<g id="edge4_Node000003_Node000005" class="edge">
<title>Node3&#45;&gt;Node5</title>
<g id="a_edge4_Node000003_Node000005"><a xlink:title=" ">
<path fill="none" stroke="#63b8ff" d="M278.02,-236.51C385.56,-229.08 642.45,-205.42 847,-140 914.06,-118.55 945.97,-128.12 991,-74 1001.34,-61.57 1005.13,-43.36 1006.45,-29.62"/>
<polygon fill="#63b8ff" stroke="#63b8ff" points="1009.97,-29.56 1007.08,-19.36 1002.98,-29.13 1009.97,-29.56"/>
</a>
</g>
</g>
<!-- Node6 -->
<g id="Node000006" class="node">
<title>Node6</title>
<g id="a_Node000006"><a xlink:title=" ">
<polygon fill="#e0e0e0" stroke="#999999" points="173.5,-74 126.5,-74 126.5,-55 173.5,-55 173.5,-74"/>
<text text-anchor="middle" x="150" y="-62" font-family="Helvetica,sans-Serif" font-size="10.00">vector</text>
</a>
</g>
</g>
<!-- Node3&#45;&gt;Node6 -->
<g id="edge5_Node000003_Node000006" class="edge">
<title>Node3&#45;&gt;Node6</title>
<g id="a_edge5_Node000003_Node000006"><a xlink:title=" ">
<path fill="none" stroke="#63b8ff" d="M216.12,-230.74C206.57,-222.48 192.99,-209.28 185,-195 164.79,-158.89 155.77,-110.51 152.15,-84.3"/>
<polygon fill="#63b8ff" stroke="#63b8ff" points="155.6,-83.71 150.87,-74.23 148.66,-84.59 155.6,-83.71"/>
</a>
</g>
</g>
<!-- Node7 -->
<g id="Node000007" class="node">
<title>Node7</title>
<g id="a_Node000007"><a xlink:href="member_8h.html" target="_top" xlink:title=" ">
<polygon fill="white" stroke="#666666" points="260,-195 194,-195 194,-176 260,-176 260,-195"/>
<text text-anchor="middle" x="227" y="-183" font-family="Helvetica,sans-Serif" font-size="10.00">member.h</text>
</a>
</g>
</g>
<!-- Node3&#45;&gt;Node7 -->
<g id="edge6_Node000003_Node000007" class="edge">
<title>Node3&#45;&gt;Node7</title>
<g id="a_edge6_Node000003_Node000007"><a xlink:title=" ">
<path fill="none" stroke="#63b8ff" d="M227,-230.75C227,-223.8 227,-213.85 227,-205.13"/>
<polygon fill="#63b8ff" stroke="#63b8ff" points="230.5,-205.09 227,-195.09 223.5,-205.09 230.5,-205.09"/>
</a>
</g>
</g>
<!-- Node12 -->
<g id="Node000012" class="node">
<title>Node12</title>
<g id="a_Node000012"><a xlink:href="webcface-config_8h.html" target="_top" xlink:title=" ">
<polygon fill="white" stroke="#666666" points="455.5,-19 350.5,-19 350.5,0 455.5,0 455.5,-19"/>
<text text-anchor="middle" x="403" y="-7" font-family="Helvetica,sans-Serif" font-size="10.00">webcface&#45;config.h</text>
</a>
</g>
</g>
<!-- Node3&#45;&gt;Node12 -->
<g id="edge26_Node000003_Node000012" class="edge">
<title>Node3&#45;&gt;Node12</title>
<g id="a_edge26_Node000003_Node000012"><a xlink:title=" ">
<path fill="none" stroke="#63b8ff" d="M213.31,-230.88C171.52,-203.54 51.6,-116.96 105,-55 112.64,-46.13 255.25,-27.92 340.38,-17.75"/>
<polygon fill="#63b8ff" stroke="#63b8ff" points="340.94,-21.21 350.46,-16.56 340.12,-14.26 340.94,-21.21"/>
</a>
</g>
</g>
<!-- Node7&#45;&gt;Node4 -->
<g id="edge8_Node000007_Node000004" class="edge">
<title>Node7&#45;&gt;Node4</title>
<g id="a_edge8_Node000007_Node000004"><a xlink:title=" ">
<path fill="none" stroke="#63b8ff" d="M193.73,-176.28C170.53,-169.36 139.76,-157.71 117,-140 76.6,-108.57 45.3,-55.64 30.81,-28.19"/>
<polygon fill="#63b8ff" stroke="#63b8ff" points="33.78,-26.32 26.1,-19.02 27.56,-29.52 33.78,-26.32"/>
</a>
</g>
</g>
<!-- Node7&#45;&gt;Node6 -->
<g id="edge9_Node000007_Node000006" class="edge">
<title>Node7&#45;&gt;Node6</title>
<g id="a_edge9_Node000007_Node000006"><a xlink:title=" ">
<path fill="none" stroke="#63b8ff" d="M219.88,-175.88C212.75,-167.09 201.63,-152.94 193,-140 180.5,-121.24 167.79,-98.71 159.47,-83.37"/>
<polygon fill="#63b8ff" stroke="#63b8ff" points="162.49,-81.6 154.67,-74.44 156.32,-84.91 162.49,-81.6"/>
</a>
</g>
</g>
<!-- Node8 -->
<g id="Node000008" class="node">
<title>Node8</title>
<g id="a_Node000008"><a xlink:title=" ">
<polygon fill="#e0e0e0" stroke="#999999" points="335.5,-134.5 270.5,-134.5 270.5,-115.5 335.5,-115.5 335.5,-134.5"/>
<text text-anchor="middle" x="303" y="-122.5" font-family="Helvetica,sans-Serif" font-size="10.00">functional</text>
</a>
</g>
</g>
<!-- Node7&#45;&gt;Node8 -->
<g id="edge7_Node000007_Node000008" class="edge">
<title>Node7&#45;&gt;Node8</title>
<g id="a_edge7_Node000007_Node000008"><a xlink:title=" ">
<path fill="none" stroke="#63b8ff" d="M238.21,-175.87C250.11,-166.71 269.14,-152.06 283.51,-141.01"/>
<polygon fill="#63b8ff" stroke="#63b8ff" points="285.95,-143.54 291.74,-134.67 281.68,-137.99 285.95,-143.54"/>
</a>
</g>
</g>
<!-- Node9 -->
<g id="Node000009" class="node">
<title>Node9</title>
<g id="a_Node000009"><a xlink:title=" ">
<polygon fill="#e0e0e0" stroke="#999999" points="410,-134.5 354,-134.5 354,-115.5 410,-115.5 410,-134.5"/>
<text text-anchor="middle" x="382" y="-122.5" font-family="Helvetica,sans-Serif" font-size="10.00">optional</text>
</a>
</g>
</g>
<!-- Node7&#45;&gt;Node9 -->
<g id="edge10_Node000007_Node000009" class="edge">
<title>Node7&#45;&gt;Node9</title>
<g id="a_edge10_Node000007_Node000009"><a xlink:title=" ">
<path fill="none" stroke="#63b8ff" d="M249.54,-175.99C275.94,-166.03 319.88,-149.45 349.85,-138.13"/>
<polygon fill="#63b8ff" stroke="#63b8ff" points="351.31,-141.32 359.43,-134.52 348.84,-134.77 351.31,-141.32"/>
</a>
</g>
</g>
<!-- Node10 -->
<g id="Node000010" class="node">
<title>Node10</title>
<g id="a_Node000010"><a xlink:title=" ">
<polygon fill="#e0e0e0" stroke="#999999" points="252,-134.5 202,-134.5 202,-115.5 252,-115.5 252,-134.5"/>
<text text-anchor="middle" x="227" y="-122.5" font-family="Helvetica,sans-Serif" font-size="10.00">chrono</text>
</a>
</g>
</g>
<!-- Node7&#45;&gt;Node10 -->
<g id="edge11_Node000007_Node000010" class="edge">
<title>Node7&#45;&gt;Node10</title>
<g id="a_edge11_Node000007_Node000010"><a xlink:title=" ">
<path fill="none" stroke="#63b8ff" d="M227,-175.87C227,-167.75 227,-155.31 227,-144.89"/>
<polygon fill="#63b8ff" stroke="#63b8ff" points="230.5,-144.67 227,-134.67 223.5,-144.67 230.5,-144.67"/>
</a>
</g>
</g>
<!-- Node11 -->
<g id="Node000011" class="node">
<title>Node11</title>
<g id="a_Node000011"><a xlink:href="field_8h.html" target="_top" xlink:title=" ">
<polygon fill="white" stroke="#666666" points="475.5,-134.5 428.5,-134.5 428.5,-115.5 475.5,-115.5 475.5,-134.5"/>
<text text-anchor="middle" x="452" y="-122.5" font-family="Helvetica,sans-Serif" font-size="10.00">field.h</text>
</a>
</g>
</g>
<!-- Node7&#45;&gt;Node11 -->
<g id="edge12_Node000007_Node000011" class="edge">
<title>Node7&#45;&gt;Node11</title>
<g id="a_edge12_Node000007_Node000011"><a xlink:title=" ">
<path fill="none" stroke="#63b8ff" d="M260.09,-178.64C298.73,-171.39 364.33,-157.78 419,-140 420.63,-139.47 422.29,-138.89 423.95,-138.28"/>
<polygon fill="#63b8ff" stroke="#63b8ff" points="425.35,-141.5 433.37,-134.57 422.78,-134.98 425.35,-141.5"/>
</a>
</g>
</g>
<!-- Node7&#45;&gt;Node12 -->
<g id="edge25_Node000007_Node000012" class="edge">
<title>Node7&#45;&gt;Node12</title>
<g id="a_edge25_Node000007_Node000012"><a xlink:title=" ">
<path fill="none" stroke="#63b8ff" d="M209.8,-175.99C170.04,-155.26 78.05,-100.48 117,-55 124.24,-46.55 258.35,-28.49 340.32,-18.17"/>
<polygon fill="#63b8ff" stroke="#63b8ff" points="340.81,-21.63 350.3,-16.91 339.94,-14.69 340.81,-21.63"/>
</a>
</g>
</g>
<!-- Node11&#45;&gt;Node4 -->
<g id="edge14_Node000011_Node000004" class="edge">
<title>Node11&#45;&gt;Node4</title>
<g id="a_edge14_Node000011_Node000004"><a xlink:title=" ">
<path fill="none" stroke="#63b8ff" d="M434.51,-115.5C429.59,-113.41 424.17,-111.38 419,-110 288.37,-75.26 243.79,-120.85 117,-74 87.1,-62.95 57.3,-40.75 39.26,-25.75"/>
<polygon fill="#63b8ff" stroke="#63b8ff" points="41.28,-22.88 31.4,-19.05 36.74,-28.2 41.28,-22.88"/>
</a>
</g>
</g>
<!-- Node11&#45;&gt;Node5 -->
<g id="edge13_Node000011_Node000005" class="edge">
<title>Node11&#45;&gt;Node5</title>
<g id="a_edge13_Node000011_Node000005"><a xlink:title=" ">
<path fill="none" stroke="#63b8ff" d="M475.84,-116.85C528.55,-101.12 653.77,-64.15 697,-55 793.35,-34.61 908.54,-20.8 967.68,-14.46"/>
<polygon fill="#63b8ff" stroke="#63b8ff" points="968.14,-17.93 977.71,-13.4 967.4,-10.97 968.14,-17.93"/>
</a>
</g>
</g>
<!-- Node11&#45;&gt;Node6 -->
<g id="edge15_Node000011_Node000006" class="edge">
<title>Node11&#45;&gt;Node6</title>
<g id="a_edge15_Node000011_Node000006"><a xlink:title=" ">
<path fill="none" stroke="#63b8ff" d="M434.14,-115.48C429.31,-113.43 424.03,-111.43 419,-110 319.08,-81.49 290.09,-93.35 188,-74 186.55,-73.72 185.06,-73.43 183.57,-73.13"/>
<polygon fill="#63b8ff" stroke="#63b8ff" points="184.17,-69.68 173.67,-71.05 182.73,-76.53 184.17,-69.68"/>
</a>
</g>
</g>
<!-- Node11&#45;&gt;Node12 -->
<g id="edge16_Node000011_Node000012" class="edge">
<title>Node11&#45;&gt;Node12</title>
<g id="a_edge16_Node000011_Node000012"><a xlink:title=" ">
<path fill="none" stroke="#63b8ff" d="M439.46,-115.36C427.82,-106.51 411.23,-91.58 404,-74 398.16,-59.8 398.38,-42.27 399.79,-29.22"/>
<polygon fill="#63b8ff" stroke="#63b8ff" points="403.28,-29.51 401.22,-19.11 396.35,-28.53 403.28,-29.51"/>
</a>
</g>
</g>
<!-- Node13 -->
<g id="Node000013" class="node">
<title>Node13</title>
<g id="a_Node000013"><a xlink:href="common_2encoding_8h.html" target="_top" xlink:title=" ">
<polygon fill="white" stroke="#666666" points="611.5,-74 446.5,-74 446.5,-55 611.5,-55 611.5,-74"/>
<text text-anchor="middle" x="529" y="-62" font-family="Helvetica,sans-Serif" font-size="10.00">webcface/common/encoding.h</text>
</a>
</g>
</g>
<!-- Node11&#45;&gt;Node13 -->
<g id="edge17_Node000011_Node000013" class="edge">
<title>Node11&#45;&gt;Node13</title>
<g id="a_edge17_Node000011_Node000013"><a xlink:title=" ">
<path fill="none" stroke="#63b8ff" d="M463.36,-115.37C475.42,-106.21 494.7,-91.56 509.25,-80.51"/>
<polygon fill="#63b8ff" stroke="#63b8ff" points="511.75,-83 517.59,-74.17 507.51,-77.43 511.75,-83"/>
</a>
</g>
</g>
<!-- Node15 -->
<g id="Node000015" class="node">
<title>Node15</title>
<g id="a_Node000015"><a xlink:href="complete_8h.html" target="_top" xlink:title=" ">
<polygon fill="white" stroke="#666666" points="351.5,-74 230.5,-74 230.5,-55 351.5,-55 351.5,-74"/>
<text text-anchor="middle" x="291" y="-62" font-family="Helvetica,sans-Serif" font-size="10.00">webcface/complete.h</text>
</a>
</g>
</g>
<!-- Node11&#45;&gt;Node15 -->
<g id="edge22_Node000011_Node000015" class="edge">
<title>Node11&#45;&gt;Node15</title>
<g id="a_edge22_Node000011_Node000015"><a xlink:title=" ">
<path fill="none" stroke="#63b8ff" d="M432.54,-115.49C428.11,-113.63 423.41,-111.7 419,-110 388.19,-98.12 352.68,-85.89 326.89,-77.27"/>
<polygon fill="#63b8ff" stroke="#63b8ff" points="327.76,-73.87 317.17,-74.03 325.55,-80.51 327.76,-73.87"/>
</a>
</g>
</g>
<!-- Node13&#45;&gt;Node4 -->
<g id="edge18_Node000013_Node000004" class="edge">
<title>Node13&#45;&gt;Node4</title>
<g id="a_edge18_Node000013_Node000004"><a xlink:title=" ">
<path fill="none" stroke="#63b8ff" d="M447.54,-54.98C333.92,-43.11 133,-22.1 54.61,-13.91"/>
<polygon fill="#63b8ff" stroke="#63b8ff" points="54.69,-10.4 44.38,-12.84 53.96,-17.36 54.69,-10.4"/>
</a>
</g>
</g>
<!-- Node13&#45;&gt;Node5 -->
<g id="edge20_Node000013_Node000005" class="edge">
<title>Node13&#45;&gt;Node5</title>
<g id="a_edge20_Node000013_Node000005"><a xlink:title=" ">
<path fill="none" stroke="#63b8ff" d="M605.8,-54.98C709.1,-43.53 888.94,-23.59 967.92,-14.83"/>
<polygon fill="#63b8ff" stroke="#63b8ff" points="968.37,-18.3 977.93,-13.72 967.6,-11.35 968.37,-18.3"/>
</a>
</g>
</g>
<!-- Node13&#45;&gt;Node12 -->
<g id="edge21_Node000013_Node000012" class="edge">
<title>Node13&#45;&gt;Node12</title>
<g id="a_edge21_Node000013_Node000012"><a xlink:title=" ">
<path fill="none" stroke="#63b8ff" d="M508.76,-54.98C488.3,-46.38 456.47,-32.99 433.07,-23.15"/>
<polygon fill="#63b8ff" stroke="#63b8ff" points="434.19,-19.82 423.61,-19.17 431.47,-26.27 434.19,-19.82"/>
</a>
</g>
</g>
<!-- Node14 -->
<g id="Node000014" class="node">
<title>Node14</title>
<g id="a_Node000014"><a xlink:title=" ">
<polygon fill="#e0e0e0" stroke="#999999" points="565.5,-19 492.5,-19 492.5,0 565.5,0 565.5,-19"/>
<text text-anchor="middle" x="529" y="-7" font-family="Helvetica,sans-Serif" font-size="10.00">string_view</text>
</a>
</g>
</g>
<!-- Node13&#45;&gt;Node14 -->
<g id="edge19_Node000013_Node000014" class="edge">
<title>Node13&#45;&gt;Node14</title>
<g id="a_edge19_Node000013_Node000014"><a xlink:title=" ">
<path fill="none" stroke="#63b8ff" d="M529,-54.75C529,-47.8 529,-37.85 529,-29.13"/>
<polygon fill="#63b8ff" stroke="#63b8ff" points="532.5,-29.09 529,-19.09 525.5,-29.09 532.5,-29.09"/>
</a>
</g>
</g>
<!-- Node15&#45;&gt;Node12 -->
<g id="edge24_Node000015_Node000012" class="edge">
<title>Node15&#45;&gt;Node12</title>
<g id="a_edge24_Node000015_Node000012"><a xlink:title=" ">
<path fill="none" stroke="#63b8ff" d="M308.99,-54.98C326.93,-46.5 354.72,-33.35 375.43,-23.54"/>
<polygon fill="#63b8ff" stroke="#63b8ff" points="377.14,-26.61 384.68,-19.17 374.14,-20.28 377.14,-26.61"/>
</a>
</g>
</g>
<!-- Node16 -->
<g id="Node000016" class="node">
<title>Node16</title>
<g id="a_Node000016"><a xlink:title=" ">
<polygon fill="#e0e0e0" stroke="#999999" points="317.5,-19 264.5,-19 264.5,0 317.5,0 317.5,-19"/>
<text text-anchor="middle" x="291" y="-7" font-family="Helvetica,sans-Serif" font-size="10.00">cstddef</text>
</a>
</g>
</g>
<!-- Node15&#45;&gt;Node16 -->
<g id="edge23_Node000015_Node000016" class="edge">
<title>Node15&#45;&gt;Node16</title>
<g id="a_edge23_Node000015_Node000016"><a xlink:title=" ">
<path fill="none" stroke="#63b8ff" d="M291,-54.75C291,-47.8 291,-37.85 291,-29.13"/>
<polygon fill="#63b8ff" stroke="#63b8ff" points="294.5,-29.09 291,-19.09 287.5,-29.09 294.5,-29.09"/>
</a>
</g>
</g>
<!-- Node17&#45;&gt;Node5 -->
<g id="edge32_Node000017_Node000005" class="edge">
<title>Node17&#45;&gt;Node5</title>
<g id="a_edge32_Node000017_Node000005"><a xlink:title=" ">
<path fill="none" stroke="#63b8ff" d="M551.6,-178.35C656.45,-164.01 903.22,-125.58 968,-74 982.99,-62.07 993.68,-42.7 1000.04,-28.48"/>
<polygon fill="#63b8ff" stroke="#63b8ff" points="1003.28,-29.8 1003.9,-19.22 996.82,-27.11 1003.28,-29.8"/>
</a>
</g>
</g>
<!-- Node17&#45;&gt;Node8 -->
<g id="edge28_Node000017_Node000008" class="edge">
<title>Node17&#45;&gt;Node8</title>
<g id="a_edge28_Node000017_Node000008"><a xlink:title=" ">
<path fill="none" stroke="#63b8ff" d="M471.59,-175.93C439.36,-167.28 388.58,-153.35 345,-140 342.71,-139.3 340.35,-138.56 337.97,-137.8"/>
<polygon fill="#63b8ff" stroke="#63b8ff" points="338.85,-134.4 328.25,-134.64 336.68,-141.06 338.85,-134.4"/>
</a>
</g>
</g>
<!-- Node17&#45;&gt;Node9 -->
<g id="edge30_Node000017_Node000009" class="edge">
<title>Node17&#45;&gt;Node9</title>
<g id="a_edge30_Node000017_Node000009"><a xlink:title=" ">
<path fill="none" stroke="#63b8ff" d="M486.26,-175.99C465.93,-166.25 432.39,-150.16 408.86,-138.88"/>
<polygon fill="#63b8ff" stroke="#63b8ff" points="410.29,-135.68 399.76,-134.52 407.26,-142 410.29,-135.68"/>
</a>
</g>
</g>
<!-- Node17&#45;&gt;Node10 -->
<g id="edge31_Node000017_Node000010" class="edge">
<title>Node17&#45;&gt;Node10</title>
<g id="a_edge31_Node000017_Node000010"><a xlink:title=" ">
<path fill="none" stroke="#63b8ff" d="M456.28,-178.77C406.77,-172.13 327.45,-159.53 261,-140 259.12,-139.45 257.2,-138.82 255.27,-138.16"/>
<polygon fill="#63b8ff" stroke="#63b8ff" points="256.4,-134.84 245.81,-134.57 253.92,-141.39 256.4,-134.84"/>
</a>
</g>
</g>
<!-- Node17&#45;&gt;Node11 -->
<g id="edge33_Node000017_Node000011" class="edge">
<title>Node17&#45;&gt;Node11</title>
<g id="a_edge33_Node000017_Node000011"><a xlink:title=" ">
<path fill="none" stroke="#63b8ff" d="M496.33,-175.87C488.49,-167.05 476.14,-153.16 466.46,-142.27"/>
<polygon fill="#63b8ff" stroke="#63b8ff" points="468.96,-139.82 459.7,-134.67 463.73,-144.47 468.96,-139.82"/>
</a>
</g>
</g>
<!-- Node17&#45;&gt;Node12 -->
<g id="edge34_Node000017_Node000012" class="edge">
<title>Node17&#45;&gt;Node12</title>
<g id="a_edge34_Node000017_Node000012"><a xlink:title=" ">
<path fill="none" stroke="#63b8ff" d="M503.48,-175.95C502.22,-161.29 498,-130.92 484,-110 469.37,-88.13 454.04,-94.05 437,-74 425.37,-60.32 416.09,-42 410.18,-28.56"/>
<polygon fill="#63b8ff" stroke="#63b8ff" points="413.27,-26.88 406.19,-19 406.81,-29.58 413.27,-26.88"/>
</a>
</g>
</g>
<!-- Node18 -->
<g id="Node000018" class="node">
<title>Node18</title>
<g id="a_Node000018"><a xlink:title=" ">
<polygon fill="#e0e0e0" stroke="#999999" points="959.5,-74 902.5,-74 902.5,-55 959.5,-55 959.5,-74"/>
<text text-anchor="middle" x="931" y="-62" font-family="Helvetica,sans-Serif" font-size="10.00">ostream</text>
</a>
</g>
</g>
<!-- Node17&#45;&gt;Node18 -->
<g id="edge29_Node000017_Node000018" class="edge">
<title>Node17&#45;&gt;Node18</title>
<g id="a_edge29_Node000017_Node000018"><a xlink:title=" ">
<path fill="none" stroke="#63b8ff" d="M551.47,-175.99C593.88,-167.99 657.54,-155.03 712,-140 779.56,-121.35 856.78,-93.51 899.09,-77.67"/>
<polygon fill="#63b8ff" stroke="#63b8ff" points="900.45,-80.9 908.57,-74.11 897.98,-74.35 900.45,-80.9"/>
</a>
</g>
</g>
<!-- Node19 -->
<g id="Node000019" class="node">
<title>Node19</title>
<g id="a_Node000019"><a xlink:href="common_2val__adaptor_8h.html" target="_top" xlink:title=" ">
<polygon fill="white" stroke="#666666" points="703.5,-140 576.5,-140 576.5,-110 703.5,-110 703.5,-140"/>
<text text-anchor="start" x="584.5" y="-128" font-family="Helvetica,sans-Serif" font-size="10.00">webcface/common/val</text>
<text text-anchor="middle" x="640" y="-117" font-family="Helvetica,sans-Serif" font-size="10.00">_adaptor.h</text>
</a>
</g>
</g>
<!-- Node17&#45;&gt;Node19 -->
<g id="edge35_Node000017_Node000019" class="edge">
<title>Node17&#45;&gt;Node19</title>
<g id="a_edge35_Node000017_Node000019"><a xlink:title=" ">
<path fill="none" stroke="#63b8ff" d="M523.78,-175.99C543.09,-167.68 573.1,-154.78 597.79,-144.16"/>
<polygon fill="#63b8ff" stroke="#63b8ff" points="599.5,-147.23 607.3,-140.06 596.73,-140.8 599.5,-147.23"/>
</a>
</g>
</g>
<!-- Node19&#45;&gt;Node4 -->
<g id="edge36_Node000019_Node000004" class="edge">
<title>Node19&#45;&gt;Node4</title>
<g id="a_edge36_Node000019_Node000004"><a xlink:title=" ">
<path fill="none" stroke="#63b8ff" d="M576.18,-117.57C467.32,-106.43 254.25,-83.78 221,-74 202.5,-68.56 200.03,-61.83 182,-55 138.7,-38.59 86.75,-25.25 54.05,-17.59"/>
<polygon fill="#63b8ff" stroke="#63b8ff" points="54.67,-14.15 44.14,-15.31 53.1,-20.97 54.67,-14.15"/>
</a>
</g>
</g>
<!-- Node19&#45;&gt;Node6 -->
<g id="edge37_Node000019_Node000006" class="edge">
<title>Node19&#45;&gt;Node6</title>
<g id="a_edge37_Node000019_Node000006"><a xlink:title=" ">
<path fill="none" stroke="#63b8ff" d="M576.34,-117.83C470.1,-107.39 261.11,-86.18 188,-74 186.54,-73.76 185.05,-73.49 183.55,-73.21"/>
<polygon fill="#63b8ff" stroke="#63b8ff" points="184.13,-69.76 173.64,-71.21 182.75,-76.62 184.13,-69.76"/>
</a>
</g>
</g>
<!-- Node19&#45;&gt;Node12 -->
<g id="edge43_Node000019_Node000012" class="edge">
<title>Node19&#45;&gt;Node12</title>
<g id="a_edge43_Node000019_Node000012"><a xlink:title=" ">
<path fill="none" stroke="#63b8ff" d="M639.98,-109.9C639.15,-94.19 635.3,-69.13 620,-55 608.63,-44.5 525.79,-29.62 465.84,-20.01"/>
<polygon fill="#63b8ff" stroke="#63b8ff" points="466.11,-16.51 455.68,-18.4 465.01,-23.42 466.11,-16.51"/>
</a>
</g>
</g>
<!-- Node19&#45;&gt;Node13 -->
<g id="edge42_Node000019_Node000013" class="edge">
<title>Node19&#45;&gt;Node13</title>
<g id="a_edge42_Node000019_Node000013"><a xlink:title=" ">
<path fill="none" stroke="#63b8ff" d="M613.41,-109.99C595.55,-100.58 572.16,-88.24 554.52,-78.95"/>
<polygon fill="#63b8ff" stroke="#63b8ff" points="555.87,-75.71 545.39,-74.14 552.61,-81.9 555.87,-75.71"/>
</a>
</g>
</g>
<!-- Node19&#45;&gt;Node18 -->
<g id="edge40_Node000019_Node000018" class="edge">
<title>Node19&#45;&gt;Node18</title>
<g id="a_edge40_Node000019_Node000018"><a xlink:title=" ">
<path fill="none" stroke="#63b8ff" d="M703.51,-111.9C752.43,-102.48 822.01,-88.86 892.44,-74.07"/>
<polygon fill="#63b8ff" stroke="#63b8ff" points="893.32,-77.47 902.38,-71.98 891.88,-70.62 893.32,-77.47"/>
</a>
</g>
</g>
<!-- Node20 -->
<g id="Node000020" class="node">
<title>Node20</title>
<g id="a_Node000020"><a xlink:title=" ">
<polygon fill="#e0e0e0" stroke="#999999" points="884.5,-74 843.5,-74 843.5,-55 884.5,-55 884.5,-74"/>
<text text-anchor="middle" x="864" y="-62" font-family="Helvetica,sans-Serif" font-size="10.00">tuple</text>
</a>
</g>
</g>
<!-- Node19&#45;&gt;Node20 -->
<g id="edge38_Node000019_Node000020" class="edge">
<title>Node19&#45;&gt;Node20</title>
<g id="a_edge38_Node000019_Node000020"><a xlink:title=" ">
<path fill="none" stroke="#63b8ff" d="M696.12,-109.91C732.64,-100.66 781.53,-88.11 833.6,-74.06"/>
<polygon fill="#63b8ff" stroke="#63b8ff" points="834.62,-77.41 843.36,-71.42 832.79,-70.65 834.62,-77.41"/>
</a>
</g>
</g>
<!-- Node21 -->
<g id="Node000021" class="node">
<title>Node21</title>
<g id="a_Node000021"><a xlink:title=" ">
<polygon fill="#e0e0e0" stroke="#999999" points="756,-74 706,-74 706,-55 756,-55 756,-74"/>
<text text-anchor="middle" x="731" y="-62" font-family="Helvetica,sans-Serif" font-size="10.00">cstdint</text>
</a>
</g>
</g>
<!-- Node19&#45;&gt;Node21 -->
<g id="edge39_Node000019_Node000021" class="edge">
<title>Node19&#45;&gt;Node21</title>
<g id="a_edge39_Node000019_Node000021"><a xlink:title=" ">
<path fill="none" stroke="#63b8ff" d="M662.03,-109.84C676.27,-100.68 694.73,-88.82 708.97,-79.66"/>
<polygon fill="#63b8ff" stroke="#63b8ff" points="711.11,-82.45 717.63,-74.09 707.33,-76.56 711.11,-82.45"/>
</a>
</g>
</g>
<!-- Node22 -->
<g id="Node000022" class="node">
<title>Node22</title>
<g id="a_Node000022"><a xlink:title=" ">
<polygon fill="#e0e0e0" stroke="#999999" points="825.5,-74 774.5,-74 774.5,-55 825.5,-55 825.5,-74"/>
<text text-anchor="middle" x="800" y="-62" font-family="Helvetica,sans-Serif" font-size="10.00">variant</text>
</a>
</g>
</g>
<!-- Node19&#45;&gt;Node22 -->
<g id="edge41_Node000019_Node000022" class="edge">
<title>Node19&#45;&gt;Node22</title>
<g id="a_edge41_Node000019_Node000022"><a xlink:title=" ">
<path fill="none" stroke="#63b8ff" d="M678.32,-109.99C705.26,-100.14 740.93,-87.1 766.69,-77.68"/>
<polygon fill="#63b8ff" stroke="#63b8ff" points="768.18,-80.86 776.37,-74.14 765.78,-74.29 768.18,-80.86"/>
</a>
</g>
</g>
<!-- Node23&#45;&gt;Node5 -->
<g id="edge50_Node000023_Node000005" class="edge">
<title>Node23&#45;&gt;Node5</title>
<g id="a_edge50_Node000023_Node000005"><a xlink:title=" ">
<path fill="none" stroke="#63b8ff" d="M1208.61,-115.35C1189.97,-101.43 1151.43,-73.75 1116,-55 1091.87,-42.23 1063.26,-30.68 1041.4,-22.54"/>
<polygon fill="#63b8ff" stroke="#63b8ff" points="1042.47,-19.21 1031.87,-19.05 1040.06,-25.78 1042.47,-19.21"/>
</a>
</g>
</g>
<!-- Node23&#45;&gt;Node6 -->
<g id="edge53_Node000023_Node000006" class="edge">
<title>Node23&#45;&gt;Node6</title>
<g id="a_edge53_Node000023_Node000006"><a xlink:title=" ">
<path fill="none" stroke="#63b8ff" d="M1150.25,-122.17C987.34,-117.53 569.23,-103.52 221,-74 208.88,-72.97 195.63,-71.49 183.9,-70.04"/>
<polygon fill="#63b8ff" stroke="#63b8ff" points="183.98,-66.53 173.62,-68.74 183.11,-73.47 183.98,-66.53"/>
</a>
</g>
</g>
<!-- Node23&#45;&gt;Node12 -->
<g id="edge45_Node000023_Node000012" class="edge">
<title>Node23&#45;&gt;Node12</title>
<g id="a_edge45_Node000023_Node000012"><a xlink:title=" ">
<path fill="none" stroke="#63b8ff" d="M1194.97,-115.41C1150.09,-100.39 1052.71,-69.6 968,-55 754.99,-18.29 698.27,-38.42 483,-19 477.52,-18.51 471.84,-17.96 466.14,-17.4"/>
<polygon fill="#63b8ff" stroke="#63b8ff" points="466.21,-13.89 455.91,-16.36 465.5,-20.85 466.21,-13.89"/>
</a>
</g>
</g>
<!-- Node24 -->
<g id="Node000024" class="node">
<title>Node24</title>
<g id="a_Node000024"><a xlink:title=" ">
<polygon fill="#e0e0e0" stroke="#999999" points="1272,-74 1168,-74 1168,-55 1272,-55 1272,-74"/>
<text text-anchor="middle" x="1220" y="-62" font-family="Helvetica,sans-Serif" font-size="10.00">spdlog/common.h</text>
</a>
</g>
</g>
<!-- Node23&#45;&gt;Node24 -->
<g id="edge46_Node000023_Node000024" class="edge">
<title>Node23&#45;&gt;Node24</title>
<g id="a_edge46_Node000023_Node000024"><a xlink:title=" ">
<path fill="none" stroke="#63b8ff" d="M1220,-115.37C1220,-107.25 1220,-94.81 1220,-84.39"/>
<polygon fill="#63b8ff" stroke="#63b8ff" points="1223.5,-84.17 1220,-74.17 1216.5,-84.17 1223.5,-84.17"/>
</a>
</g>
</g>
<!-- Node25 -->
<g id="Node000025" class="node">
<title>Node25</title>
<g id="a_Node000025"><a xlink:title=" ">
<polygon fill="#e0e0e0" stroke="#999999" points="1381.5,-74 1290.5,-74 1290.5,-55 1381.5,-55 1381.5,-74"/>
<text text-anchor="middle" x="1336" y="-62" font-family="Helvetica,sans-Serif" font-size="10.00">spdlog/logger.h</text>
</a>
</g>
</g>
<!-- Node23&#45;&gt;Node25 -->
<g id="edge47_Node000023_Node000025" class="edge">
<title>Node23&#45;&gt;Node25</title>
<g id="a_edge47_Node000023_Node000025"><a xlink:title=" ">
<path fill="none" stroke="#63b8ff" d="M1237.12,-115.37C1256.22,-105.73 1287.37,-90.03 1309.6,-78.81"/>
<polygon fill="#63b8ff" stroke="#63b8ff" points="1311.46,-81.8 1318.81,-74.17 1308.31,-75.55 1311.46,-81.8"/>
</a>
</g>
</g>
<!-- Node26 -->
<g id="Node000026" class="node">
<title>Node26</title>
<g id="a_Node000026"><a xlink:title=" ">
<polygon fill="#e0e0e0" stroke="#999999" points="1506.5,-74 1399.5,-74 1399.5,-55 1506.5,-55 1506.5,-74"/>
<text text-anchor="middle" x="1453" y="-62" font-family="Helvetica,sans-Serif" font-size="10.00">condition_variable</text>
</a>
</g>
</g>
<!-- Node23&#45;&gt;Node26 -->
<g id="edge48_Node000023_Node000026" class="edge">
<title>Node23&#45;&gt;Node26</title>
<g id="a_edge48_Node000023_Node000026"><a xlink:title=" ">
<path fill="none" stroke="#63b8ff" d="M1253.88,-115.49C1294.95,-105.18 1364.24,-87.78 1409.3,-76.47"/>
<polygon fill="#63b8ff" stroke="#63b8ff" points="1410.23,-79.85 1419.08,-74.02 1408.53,-73.06 1410.23,-79.85"/>
</a>
</g>
</g>
<!-- Node27 -->
<g id="Node000027" class="node">
<title>Node27</title>
<g id="a_Node000027"><a xlink:title=" ">
<polygon fill="#e0e0e0" stroke="#999999" points="1573,-74 1525,-74 1525,-55 1573,-55 1573,-74"/>
<text text-anchor="middle" x="1549" y="-62" font-family="Helvetica,sans-Serif" font-size="10.00">mutex</text>
</a>
</g>
</g>
<!-- Node23&#45;&gt;Node27 -->
<g id="edge49_Node000023_Node000027" class="edge">
<title>Node23&#45;&gt;Node27</title>
<g id="a_edge49_Node000023_Node000027"><a xlink:title=" ">
<path fill="none" stroke="#63b8ff" d="M1271.3,-115.45C1344.73,-103.2 1474.69,-81.45 1515.01,-73.91"/>
<polygon fill="#63b8ff" stroke="#63b8ff" points="1515.77,-77.33 1524.91,-71.96 1514.42,-70.46 1515.77,-77.33"/>
</a>
</g>
</g>
<!-- Node28 -->
<g id="Node000028" class="node">
<title>Node28</title>
<g id="a_Node000028"><a xlink:title=" ">
<polygon fill="#e0e0e0" stroke="#999999" points="1639,-74 1591,-74 1591,-55 1639,-55 1639,-74"/>
<text text-anchor="middle" x="1615" y="-62" font-family="Helvetica,sans-Serif" font-size="10.00">thread</text>
</a>
</g>
</g>
<!-- Node23&#45;&gt;Node28 -->
<g id="edge51_Node000023_Node000028" class="edge">
<title>Node23&#45;&gt;Node28</title>
<g id="a_edge51_Node000023_Node000028"><a xlink:title=" ">
<path fill="none" stroke="#63b8ff" d="M1269.26,-115.48C1280.65,-113.6 1292.74,-111.67 1304,-110 1423.99,-92.24 1457.89,-97.29 1580.75,-74.02"/>
<polygon fill="#63b8ff" stroke="#63b8ff" points="1581.77,-77.39 1590.93,-72.07 1580.45,-70.51 1581.77,-77.39"/>
</a>
</g>
</g>
<!-- Node23&#45;&gt;Node29 -->
<g id="edge52_Node000023_Node000029" class="edge">
<title>Node23&#45;&gt;Node29</title>
<g id="a_edge52_Node000023_Node000029"><a xlink:title=" ">
<path fill="none" stroke="#63b8ff" d="M1267.9,-115.5C1279.68,-113.55 1292.28,-111.59 1304,-110 1453.06,-89.8 1494.83,-100.23 1646.67,-73.99"/>
<polygon fill="#63b8ff" stroke="#63b8ff" points="1647.59,-77.39 1656.83,-72.21 1646.38,-70.49 1647.59,-77.39"/>
</a>
</g>
</g>
</g>
</svg>
