<?xml version="1.0" encoding="UTF-8" standalone="no"?>
<!DOCTYPE svg PUBLIC "-//W3C//DTD SVG 1.1//EN"
 "http://www.w3.org/Graphics/SVG/1.1/DTD/svg11.dtd">
<!-- Generated by graphviz version 2.43.0 (0)
 -->
<!-- Title: include/webcface/log.h Pages: 1 -->
<svg width="881pt" height="247pt"
 viewBox="0.00 0.00 880.61 247.00" xmlns="http://www.w3.org/2000/svg" xmlns:xlink="http://www.w3.org/1999/xlink">
<g id="graph0" class="graph" transform="scale(1 1) rotate(0) translate(4 243)">
<title>include/webcface/log.h</title>
<!-- Node1 -->
<g id="Node000001" class="node">
<title>Node1</title>
<g id="a_Node000001"><a xlink:title=" ">
<polygon fill="#999999" stroke="#666666" points="413.61,-239 285.61,-239 285.61,-220 413.61,-220 413.61,-239"/>
<text text-anchor="middle" x="349.61" y="-227" font-family="Helvetica,sans-Serif" font-size="10.00">include/webcface/log.h</text>
</a>
</g>
</g>
<!-- Node2 -->
<g id="Node000002" class="node">
<title>Node2</title>
<g id="a_Node000002"><a xlink:href="client_2client_8cc.html" target="_top" xlink:title=" ">
<polygon fill="white" stroke="#666666" points="229.11,-74 142.11,-74 142.11,-55 229.11,-55 229.11,-74"/>
<text text-anchor="middle" x="185.61" y="-62" font-family="Helvetica,sans-Serif" font-size="10.00">client/client.cc</text>
</a>
</g>
</g>
<!-- Node1&#45;&gt;Node2 -->
<g id="edge1_Node000001_Node000002" class="edge">
<title>Node1&#45;&gt;Node2</title>
<g id="a_edge1_Node000001_Node000002"><a xlink:title=" ">
<path fill="none" stroke="#63b8ff" d="M280.92,-218.35C190.85,-203.47 40.4,-172.69 7.61,-129 -28.48,-80.91 78.3,-69.13 141.91,-66.32"/>
<polygon fill="#63b8ff" stroke="#63b8ff" points="280.62,-221.85 291.05,-220 281.74,-214.94 280.62,-221.85"/>
</a>
</g>
</g>
<!-- Node3 -->
<g id="Node000003" class="node">
<title>Node3</title>
<g id="a_Node000003"><a xlink:href="log_8cc.html" target="_top" xlink:title=" ">
<polygon fill="white" stroke="#666666" points="321.11,-184 246.11,-184 246.11,-165 321.11,-165 321.11,-184"/>
<text text-anchor="middle" x="283.61" y="-172" font-family="Helvetica,sans-Serif" font-size="10.00">client/log.cc</text>
</a>
</g>
</g>
<!-- Node1&#45;&gt;Node3 -->
<g id="edge2_Node000001_Node000003" class="edge">
<title>Node1&#45;&gt;Node3</title>
<g id="a_edge2_Node000001_Node000003"><a xlink:title=" ">
<path fill="none" stroke="#63b8ff" d="M331.06,-213.6C319.23,-204.11 304.32,-192.13 294.41,-184.17"/>
<polygon fill="#63b8ff" stroke="#63b8ff" points="329.02,-216.45 339.01,-219.98 333.4,-210.99 329.02,-216.45"/>
</a>
</g>
</g>
<!-- Node4 -->
<g id="Node000004" class="node">
<title>Node4</title>
<g id="a_Node000004"><a xlink:href="member_8h.html" target="_top" xlink:title=" ">
<polygon fill="white" stroke="#666666" points="493.61,-184 339.61,-184 339.61,-165 493.61,-165 493.61,-184"/>
<text text-anchor="middle" x="416.61" y="-172" font-family="Helvetica,sans-Serif" font-size="10.00">include/webcface/member.h</text>
</a>
</g>
</g>
<!-- Node1&#45;&gt;Node4 -->
<g id="edge3_Node000001_Node000004" class="edge">
<title>Node1&#45;&gt;Node4</title>
<g id="a_edge3_Node000001_Node000004"><a xlink:title=" ">
<path fill="none" stroke="#63b8ff" d="M368.44,-213.6C380.45,-204.11 395.58,-192.13 405.65,-184.17"/>
<polygon fill="#63b8ff" stroke="#63b8ff" points="366.05,-211.04 360.37,-219.98 370.39,-216.53 366.05,-211.04"/>
</a>
</g>
</g>
<!-- Node18 -->
<g id="Node000018" class="node">
<title>Node18</title>
<g id="a_Node000018"><a xlink:href="webcface_8h.html" target="_top" xlink:title=" ">
<polygon fill="white" stroke="#666666" points="872.61,-74 712.61,-74 712.61,-55 872.61,-55 872.61,-74"/>
<text text-anchor="middle" x="792.61" y="-62" font-family="Helvetica,sans-Serif" font-size="10.00">include/webcface/webcface.h</text>
</a>
</g>
</g>
<!-- Node1&#45;&gt;Node18 -->
<g id="edge20_Node000001_Node000018" class="edge">
<title>Node1&#45;&gt;Node18</title>
<g id="a_edge20_Node000001_Node000018"><a xlink:title=" ">
<path fill="none" stroke="#63b8ff" d="M423.82,-228.65C512.92,-225.09 662.6,-206.77 760.61,-129 778.4,-114.88 787.15,-88.25 790.66,-74.39"/>
<polygon fill="#63b8ff" stroke="#63b8ff" points="423.66,-225.15 413.79,-229 423.91,-232.15 423.66,-225.15"/>
</a>
</g>
</g>
<!-- Node5 -->
<g id="Node000005" class="node">
<title>Node5</title>
<g id="a_Node000005"><a xlink:href="canvas2d_8cc.html" target="_top" xlink:title=" ">
<polygon fill="white" stroke="#666666" points="124.11,-129 17.11,-129 17.11,-110 124.11,-110 124.11,-129"/>
<text text-anchor="middle" x="70.61" y="-117" font-family="Helvetica,sans-Serif" font-size="10.00">client/canvas2d.cc</text>
</a>
</g>
</g>
<!-- Node4&#45;&gt;Node5 -->
<g id="edge4_Node000004_Node000005" class="edge">
<title>Node4&#45;&gt;Node5</title>
<g id="a_edge4_Node000004_Node000005"><a xlink:title=" ">
<path fill="none" stroke="#63b8ff" d="M350.78,-163.42C285.1,-153.36 185.42,-138.09 124.36,-128.73"/>
<polygon fill="#63b8ff" stroke="#63b8ff" points="350.6,-166.93 361.02,-164.98 351.66,-160.01 350.6,-166.93"/>
</a>
</g>
</g>
<!-- Node6 -->
<g id="Node000006" class="node">
<title>Node6</title>
<g id="a_Node000006"><a xlink:href="canvas3d_8cc.html" target="_top" xlink:title=" ">
<polygon fill="white" stroke="#666666" points="249.11,-129 142.11,-129 142.11,-110 249.11,-110 249.11,-129"/>
<text text-anchor="middle" x="195.61" y="-117" font-family="Helvetica,sans-Serif" font-size="10.00">client/canvas3d.cc</text>
</a>
</g>
</g>
<!-- Node4&#45;&gt;Node6 -->
<g id="edge5_Node000004_Node000006" class="edge">
<title>Node4&#45;&gt;Node6</title>
<g id="a_edge5_Node000004_Node000006"><a xlink:title=" ">
<path fill="none" stroke="#63b8ff" d="M371.27,-162.63C329.87,-152.7 269.49,-138.22 231.4,-129.08"/>
<polygon fill="#63b8ff" stroke="#63b8ff" points="370.56,-166.06 381.1,-164.98 372.19,-159.25 370.56,-166.06"/>
</a>
</g>
</g>
<!-- Node7 -->
<g id="Node000007" class="node">
<title>Node7</title>
<g id="a_Node000007"><a xlink:href="field_8cc.html" target="_top" xlink:title=" ">
<polygon fill="white" stroke="#666666" points="348.11,-129 267.11,-129 267.11,-110 348.11,-110 348.11,-129"/>
<text text-anchor="middle" x="307.61" y="-117" font-family="Helvetica,sans-Serif" font-size="10.00">client/field.cc</text>
</a>
</g>
</g>
<!-- Node4&#45;&gt;Node7 -->
<g id="edge6_Node000004_Node000007" class="edge">
<title>Node4&#45;&gt;Node7</title>
<g id="a_edge6_Node000004_Node000007"><a xlink:title=" ">
<path fill="none" stroke="#63b8ff" d="M389.88,-160.5C369.82,-150.75 342.93,-137.68 325.44,-129.17"/>
<polygon fill="#63b8ff" stroke="#63b8ff" points="388.57,-163.76 399.1,-164.98 391.63,-157.46 388.57,-163.76"/>
</a>
</g>
</g>
<!-- Node8 -->
<g id="Node000008" class="node">
<title>Node8</title>
<g id="a_Node000008"><a xlink:href="member_8cc.html" target="_top" xlink:title=" ">
<polygon fill="white" stroke="#666666" points="467.11,-129 366.11,-129 366.11,-110 467.11,-110 467.11,-129"/>
<text text-anchor="middle" x="416.61" y="-117" font-family="Helvetica,sans-Serif" font-size="10.00">client/member.cc</text>
</a>
</g>
</g>
<!-- Node4&#45;&gt;Node8 -->
<g id="edge7_Node000004_Node000008" class="edge">
<title>Node4&#45;&gt;Node8</title>
<g id="a_edge7_Node000004_Node000008"><a xlink:title=" ">
<path fill="none" stroke="#63b8ff" d="M416.61,-154.66C416.61,-145.93 416.61,-135.99 416.61,-129.09"/>
<polygon fill="#63b8ff" stroke="#63b8ff" points="413.11,-154.75 416.61,-164.75 420.11,-154.75 413.11,-154.75"/>
</a>
</g>
</g>
<!-- Node9 -->
<g id="Node000009" class="node">
<title>Node9</title>
<g id="a_Node000009"><a xlink:href="client_2view_8cc.html" target="_top" xlink:title=" ">
<polygon fill="white" stroke="#666666" points="568.11,-129 485.11,-129 485.11,-110 568.11,-110 568.11,-129"/>
<text text-anchor="middle" x="526.61" y="-117" font-family="Helvetica,sans-Serif" font-size="10.00">client/view.cc</text>
</a>
</g>
</g>
<!-- Node4&#45;&gt;Node9 -->
<g id="edge8_Node000004_Node000009" class="edge">
<title>Node4&#45;&gt;Node9</title>
<g id="a_edge8_Node000004_Node000009"><a xlink:title=" ">
<path fill="none" stroke="#63b8ff" d="M443.31,-160.63C463.58,-150.87 490.88,-137.71 508.62,-129.17"/>
<polygon fill="#63b8ff" stroke="#63b8ff" points="441.77,-157.49 434.28,-164.98 444.81,-163.8 441.77,-157.49"/>
</a>
</g>
</g>
<!-- Node10 -->
<g id="Node000010" class="node">
<title>Node10</title>
<g id="a_Node000010"><a xlink:href="client_8h.html" target="_top" xlink:title=" ">
<polygon fill="white" stroke="#666666" points="726.61,-129 586.61,-129 586.61,-110 726.61,-110 726.61,-129"/>
<text text-anchor="middle" x="656.61" y="-117" font-family="Helvetica,sans-Serif" font-size="10.00">include/webcface/client.h</text>
</a>
</g>
</g>
<!-- Node4&#45;&gt;Node10 -->
<g id="edge9_Node000004_Node000010" class="edge">
<title>Node4&#45;&gt;Node10</title>
<g id="a_edge9_Node000004_Node000010"><a xlink:title=" ">
<path fill="none" stroke="#63b8ff" d="M464.99,-162.82C509.97,-152.88 576.11,-138.28 617.75,-129.08"/>
<polygon fill="#63b8ff" stroke="#63b8ff" points="464.18,-159.41 455.17,-164.98 465.69,-166.25 464.18,-159.41"/>
</a>
</g>
</g>
<!-- Node4&#45;&gt;Node18 -->
<g id="edge19_Node000004_Node000018" class="edge">
<title>Node4&#45;&gt;Node18</title>
<g id="a_edge19_Node000004_Node000018"><a xlink:title=" ">
<path fill="none" stroke="#63b8ff" d="M503.93,-168.05C584.25,-161.84 696.61,-149.75 735.61,-129 759.94,-116.06 779,-88.4 787.61,-74.24"/>
<polygon fill="#63b8ff" stroke="#63b8ff" points="503.51,-164.57 493.81,-168.82 504.04,-171.55 503.51,-164.57"/>
</a>
</g>
</g>
<!-- Node10&#45;&gt;Node2 -->
<g id="edge16_Node000010_Node000002" class="edge">
<title>Node10&#45;&gt;Node2</title>
<g id="a_edge16_Node000010_Node000002"><a xlink:title=" ">
<path fill="none" stroke="#63b8ff" d="M576.52,-109.49C476.29,-98.21 308.21,-79.3 229.18,-70.4"/>
<polygon fill="#63b8ff" stroke="#63b8ff" points="576.28,-112.98 586.61,-110.62 577.06,-106.03 576.28,-112.98"/>
</a>
</g>
</g>
<!-- Node11 -->
<g id="Node000011" class="node">
<title>Node11</title>
<g id="a_Node000011"><a xlink:href="c__wcf__internal_8h.html" target="_top" xlink:title=" ">
<polygon fill="white" stroke="#666666" points="570.11,-74 443.11,-74 443.11,-55 570.11,-55 570.11,-74"/>
<text text-anchor="middle" x="506.61" y="-62" font-family="Helvetica,sans-Serif" font-size="10.00">c_wcf/c_wcf_internal.h</text>
</a>
</g>
</g>
<!-- Node10&#45;&gt;Node11 -->
<g id="edge10_Node000010_Node000011" class="edge">
<title>Node10&#45;&gt;Node11</title>
<g id="a_edge10_Node000010_Node000011"><a xlink:title=" ">
<path fill="none" stroke="#63b8ff" d="M622.79,-106.55C594.93,-96.71 556.1,-82.98 531.15,-74.17"/>
<polygon fill="#63b8ff" stroke="#63b8ff" points="621.92,-109.95 632.51,-109.98 624.25,-103.35 621.92,-109.95"/>
</a>
</g>
</g>
<!-- Node17 -->
<g id="Node000017" class="node">
<title>Node17</title>
<g id="a_Node000017"><a xlink:href="client__ws_8cc.html" target="_top" xlink:title=" ">
<polygon fill="white" stroke="#666666" points="694.61,-74 588.61,-74 588.61,-55 694.61,-55 694.61,-74"/>
<text text-anchor="middle" x="641.61" y="-62" font-family="Helvetica,sans-Serif" font-size="10.00">client/client_ws.cc</text>
</a>
</g>
</g>
<!-- Node10&#45;&gt;Node17 -->
<g id="edge17_Node000010_Node000017" class="edge">
<title>Node10&#45;&gt;Node17</title>
<g id="a_edge17_Node000010_Node000017"><a xlink:title=" ">
<path fill="none" stroke="#63b8ff" d="M651.36,-99.95C648.87,-91.15 646.02,-81.06 644.04,-74.09"/>
<polygon fill="#63b8ff" stroke="#63b8ff" points="648.04,-101.08 654.13,-109.75 654.78,-99.17 648.04,-101.08"/>
</a>
</g>
</g>
<!-- Node10&#45;&gt;Node18 -->
<g id="edge18_Node000010_Node000018" class="edge">
<title>Node10&#45;&gt;Node18</title>
<g id="a_edge18_Node000010_Node000018"><a xlink:title=" ">
<path fill="none" stroke="#63b8ff" d="M687.94,-106.29C713.15,-96.47 747.94,-82.91 770.36,-74.17"/>
<polygon fill="#63b8ff" stroke="#63b8ff" points="686.51,-103.09 678.46,-109.98 689.05,-109.61 686.51,-103.09"/>
</a>
</g>
</g>
<!-- Node12 -->
<g id="Node000012" class="node">
<title>Node12</title>
<g id="a_Node000012"><a xlink:href="c__wcf_2client_8cc.html" target="_top" xlink:title=" ">
<polygon fill="white" stroke="#666666" points="348.61,-19 260.61,-19 260.61,0 348.61,0 348.61,-19"/>
<text text-anchor="middle" x="304.61" y="-7" font-family="Helvetica,sans-Serif" font-size="10.00">c_wcf/client.cc</text>
</a>
</g>
</g>
<!-- Node11&#45;&gt;Node12 -->
<g id="edge11_Node000011_Node000012" class="edge">
<title>Node11&#45;&gt;Node12</title>
<g id="a_edge11_Node000011_Node000012"><a xlink:title=" ">
<path fill="none" stroke="#63b8ff" d="M464.45,-52.44C426.63,-42.52 371.92,-28.16 337.32,-19.08"/>
<polygon fill="#63b8ff" stroke="#63b8ff" points="463.59,-55.83 474.16,-54.98 465.37,-49.06 463.59,-55.83"/>
</a>
</g>
</g>
<!-- Node13 -->
<g id="Node000013" class="node">
<title>Node13</title>
<g id="a_Node000013"><a xlink:href="c__wcf_2func_8cc.html" target="_top" xlink:title=" ">
<polygon fill="white" stroke="#666666" points="448.61,-19 366.61,-19 366.61,0 448.61,0 448.61,-19"/>
<text text-anchor="middle" x="407.61" y="-7" font-family="Helvetica,sans-Serif" font-size="10.00">c_wcf/func.cc</text>
</a>
</g>
</g>
<!-- Node11&#45;&gt;Node13 -->
<g id="edge12_Node000011_Node000013" class="edge">
<title>Node11&#45;&gt;Node13</title>
<g id="a_edge12_Node000011_Node000013"><a xlink:title=" ">
<path fill="none" stroke="#63b8ff" d="M481.83,-50.23C463.67,-40.51 439.55,-27.6 423.81,-19.17"/>
<polygon fill="#63b8ff" stroke="#63b8ff" points="480.24,-53.35 490.7,-54.98 483.54,-47.18 480.24,-53.35"/>
</a>
</g>
</g>
<!-- Node14 -->
<g id="Node000014" class="node">
<title>Node14</title>
<g id="a_Node000014"><a xlink:href="c__wcf_2text_8cc.html" target="_top" xlink:title=" ">
<polygon fill="white" stroke="#666666" points="546.61,-19 466.61,-19 466.61,0 546.61,0 546.61,-19"/>
<text text-anchor="middle" x="506.61" y="-7" font-family="Helvetica,sans-Serif" font-size="10.00">c_wcf/text.cc</text>
</a>
</g>
</g>
<!-- Node11&#45;&gt;Node14 -->
<g id="edge13_Node000011_Node000014" class="edge">
<title>Node11&#45;&gt;Node14</title>
<g id="a_edge13_Node000011_Node000014"><a xlink:title=" ">
<path fill="none" stroke="#63b8ff" d="M506.61,-44.66C506.61,-35.93 506.61,-25.99 506.61,-19.09"/>
<polygon fill="#63b8ff" stroke="#63b8ff" points="503.11,-44.75 506.61,-54.75 510.11,-44.75 503.11,-44.75"/>
</a>
</g>
</g>
<!-- Node15 -->
<g id="Node000015" class="node">
<title>Node15</title>
<g id="a_Node000015"><a xlink:href="c__wcf_2value_8cc.html" target="_top" xlink:title=" ">
<polygon fill="white" stroke="#666666" points="652.61,-19 564.61,-19 564.61,0 652.61,0 652.61,-19"/>
<text text-anchor="middle" x="608.61" y="-7" font-family="Helvetica,sans-Serif" font-size="10.00">c_wcf/value.cc</text>
</a>
</g>
</g>
<!-- Node11&#45;&gt;Node15 -->
<g id="edge14_Node000011_Node000015" class="edge">
<title>Node11&#45;&gt;Node15</title>
<g id="a_edge14_Node000011_Node000015"><a xlink:title=" ">
<path fill="none" stroke="#63b8ff" d="M531.88,-50.37C550.62,-40.63 575.63,-27.64 591.92,-19.17"/>
<polygon fill="#63b8ff" stroke="#63b8ff" points="530.26,-47.27 523,-54.98 533.49,-53.48 530.26,-47.27"/>
</a>
</g>
</g>
<!-- Node16 -->
<g id="Node000016" class="node">
<title>Node16</title>
<g id="a_Node000016"><a xlink:href="c__wcf_2view_8cc.html" target="_top" xlink:title=" ">
<polygon fill="white" stroke="#666666" points="754.11,-19 671.11,-19 671.11,0 754.11,0 754.11,-19"/>
<text text-anchor="middle" x="712.61" y="-7" font-family="Helvetica,sans-Serif" font-size="10.00">c_wcf/view.cc</text>
</a>
</g>
</g>
<!-- Node11&#45;&gt;Node16 -->
<g id="edge15_Node000011_Node000016" class="edge">
<title>Node11&#45;&gt;Node16</title>
<g id="a_edge15_Node000011_Node000016"><a xlink:title=" ">
<path fill="none" stroke="#63b8ff" d="M549.61,-52.44C588.17,-42.52 643.97,-28.16 679.25,-19.08"/>
<polygon fill="#63b8ff" stroke="#63b8ff" points="548.52,-49.1 539.71,-54.98 550.26,-55.88 548.52,-49.1"/>
</a>
</g>
</g>
</g>
</svg>
