<?xml version="1.0" encoding="UTF-8" standalone="no"?>
<!DOCTYPE svg PUBLIC "-//W3C//DTD SVG 1.1//EN"
 "http://www.w3.org/Graphics/SVG/1.1/DTD/svg11.dtd">
<!-- Generated by graphviz version 2.43.0 (0)
 -->
<!-- Title: /home/runner/work/webcface/webcface/client/include/webcface/log.h Pages: 1 -->
<svg width="731pt" height="269pt"
 viewBox="0.00 0.00 731.16 269.00" xmlns="http://www.w3.org/2000/svg" xmlns:xlink="http://www.w3.org/1999/xlink">
<g id="graph0" class="graph" transform="scale(1 1) rotate(0) translate(4 265)">
<title>/home/runner/work/webcface/webcface/client/include/webcface/log.h</title>
<!-- Node1 -->
<g id="Node000001" class="node">
<title>Node1</title>
<g id="a_Node000001"><a xlink:title=" ">
<polygon fill="#999999" stroke="#666666" points="387.5,-261 229.5,-261 229.5,-220 387.5,-220 387.5,-261"/>
<text text-anchor="start" x="237.5" y="-249" font-family="Helvetica,sans-Serif" font-size="10.00">/home/runner/work/webcface</text>
<text text-anchor="start" x="237.5" y="-238" font-family="Helvetica,sans-Serif" font-size="10.00">/webcface/client/include</text>
<text text-anchor="middle" x="308.5" y="-227" font-family="Helvetica,sans-Serif" font-size="10.00">/webcface/log.h</text>
</a>
</g>
</g>
<!-- Node2 -->
<g id="Node000002" class="node">
<title>Node2</title>
<g id="a_Node000002"><a xlink:title=" ">
<polygon fill="#e0e0e0" stroke="#999999" points="228.5,-184 172.5,-184 172.5,-165 228.5,-165 228.5,-184"/>
<text text-anchor="middle" x="200.5" y="-172" font-family="Helvetica,sans-Serif" font-size="10.00">optional</text>
</a>
</g>
</g>
<!-- Node1&#45;&gt;Node2 -->
<g id="edge1_Node000001_Node000002" class="edge">
<title>Node1&#45;&gt;Node2</title>
<g id="a_edge1_Node000001_Node000002"><a xlink:title=" ">
<path fill="none" stroke="#63b8ff" d="M275.51,-219.95C258.76,-210.03 238.82,-198.21 223.71,-189.25"/>
<polygon fill="#63b8ff" stroke="#63b8ff" points="225.39,-186.18 215,-184.09 221.82,-192.2 225.39,-186.18"/>
</a>
</g>
</g>
<!-- Node3 -->
<g id="Node000003" class="node">
<title>Node3</title>
<g id="a_Node000003"><a xlink:title=" ">
<polygon fill="#e0e0e0" stroke="#999999" points="118,-74 71,-74 71,-55 118,-55 118,-74"/>
<text text-anchor="middle" x="94.5" y="-62" font-family="Helvetica,sans-Serif" font-size="10.00">vector</text>
</a>
</g>
</g>
<!-- Node1&#45;&gt;Node3 -->
<g id="edge2_Node000001_Node000003" class="edge">
<title>Node1&#45;&gt;Node3</title>
<g id="a_edge2_Node000001_Node000003"><a xlink:title=" ">
<path fill="none" stroke="#63b8ff" d="M291.69,-219.78C277.89,-204.12 257.44,-182.09 237.5,-165 197.92,-131.07 146.82,-97.73 117.65,-79.56"/>
<polygon fill="#63b8ff" stroke="#63b8ff" points="119.34,-76.49 108.99,-74.21 115.66,-82.45 119.34,-76.49"/>
</a>
</g>
</g>
<!-- Node4 -->
<g id="Node000004" class="node">
<title>Node4</title>
<g id="a_Node000004"><a xlink:href="event__target_8h.html" target="_top" xlink:title=" ">
<polygon fill="white" stroke="#666666" points="482.5,-184 394.5,-184 394.5,-165 482.5,-165 482.5,-184"/>
<text text-anchor="middle" x="438.5" y="-172" font-family="Helvetica,sans-Serif" font-size="10.00">event_target.h</text>
</a>
</g>
</g>
<!-- Node1&#45;&gt;Node4 -->
<g id="edge3_Node000001_Node000004" class="edge">
<title>Node1&#45;&gt;Node4</title>
<g id="a_edge3_Node000001_Node000004"><a xlink:title=" ">
<path fill="none" stroke="#63b8ff" d="M348.21,-219.95C368.84,-209.79 393.51,-197.65 411.84,-188.63"/>
<polygon fill="#63b8ff" stroke="#63b8ff" points="413.62,-191.65 421.05,-184.09 410.53,-185.37 413.62,-191.65"/>
</a>
</g>
</g>
<!-- Node8 -->
<g id="Node000008" class="node">
<title>Node8</title>
<g id="a_Node000008"><a xlink:href="field_8h.html" target="_top" xlink:title=" ">
<polygon fill="white" stroke="#666666" points="332,-129 285,-129 285,-110 332,-110 332,-129"/>
<text text-anchor="middle" x="308.5" y="-117" font-family="Helvetica,sans-Serif" font-size="10.00">field.h</text>
</a>
</g>
</g>
<!-- Node1&#45;&gt;Node8 -->
<g id="edge22_Node000001_Node000008" class="edge">
<title>Node1&#45;&gt;Node8</title>
<g id="a_edge22_Node000001_Node000008"><a xlink:title=" ">
<path fill="none" stroke="#63b8ff" d="M308.5,-219.85C308.5,-197.48 308.5,-161.19 308.5,-139.21"/>
<polygon fill="#63b8ff" stroke="#63b8ff" points="312,-139.18 308.5,-129.18 305,-139.18 312,-139.18"/>
</a>
</g>
</g>
<!-- Node12 -->
<g id="Node000012" class="node">
<title>Node12</title>
<g id="a_Node000012"><a xlink:href="def_8h.html" target="_top" xlink:title=" ">
<polygon fill="white" stroke="#666666" points="647.5,-19 511.5,-19 511.5,0 647.5,0 647.5,-19"/>
<text text-anchor="middle" x="579.5" y="-7" font-family="Helvetica,sans-Serif" font-size="10.00">webcface/common/def.h</text>
</a>
</g>
</g>
<!-- Node1&#45;&gt;Node12 -->
<g id="edge23_Node000001_Node000012" class="edge">
<title>Node1&#45;&gt;Node12</title>
<g id="a_edge23_Node000001_Node000012"><a xlink:title=" ">
<path fill="none" stroke="#63b8ff" d="M387.61,-229.36C494.16,-213.9 675.02,-180.66 714.5,-129 749.21,-83.59 665.02,-42.46 614.39,-22.76"/>
<polygon fill="#63b8ff" stroke="#63b8ff" points="615.35,-19.38 604.76,-19.11 612.87,-25.93 615.35,-19.38"/>
</a>
</g>
</g>
<!-- Node5 -->
<g id="Node000005" class="node">
<title>Node5</title>
<g id="a_Node000005"><a xlink:title=" ">
<polygon fill="#e0e0e0" stroke="#999999" points="705,-129 640,-129 640,-110 705,-110 705,-129"/>
<text text-anchor="middle" x="672.5" y="-117" font-family="Helvetica,sans-Serif" font-size="10.00">functional</text>
</a>
</g>
</g>
<!-- Node4&#45;&gt;Node5 -->
<g id="edge4_Node000004_Node000005" class="edge">
<title>Node4&#45;&gt;Node5</title>
<g id="a_edge4_Node000004_Node000005"><a xlink:title=" ">
<path fill="none" stroke="#63b8ff" d="M476.1,-164.98C518.17,-155.46 586.17,-140.05 630.1,-130.1"/>
<polygon fill="#63b8ff" stroke="#63b8ff" points="630.92,-133.51 639.9,-127.88 629.38,-126.68 630.92,-133.51"/>
</a>
</g>
</g>
<!-- Node6 -->
<g id="Node000006" class="node">
<title>Node6</title>
<g id="a_Node000006"><a xlink:title=" ">
<polygon fill="#e0e0e0" stroke="#999999" points="441,-129 376,-129 376,-110 441,-110 441,-129"/>
<text text-anchor="middle" x="408.5" y="-117" font-family="Helvetica,sans-Serif" font-size="10.00">stdexcept</text>
</a>
</g>
</g>
<!-- Node4&#45;&gt;Node6 -->
<g id="edge5_Node000004_Node000006" class="edge">
<title>Node4&#45;&gt;Node6</title>
<g id="a_edge5_Node000004_Node000006"><a xlink:title=" ">
<path fill="none" stroke="#63b8ff" d="M433.55,-164.75C429.44,-157.49 423.47,-146.95 418.4,-137.98"/>
<polygon fill="#63b8ff" stroke="#63b8ff" points="421.33,-136.07 413.36,-129.09 415.24,-139.52 421.33,-136.07"/>
</a>
</g>
</g>
<!-- Node7 -->
<g id="Node000007" class="node">
<title>Node7</title>
<g id="a_Node000007"><a xlink:title=" ">
<polygon fill="#e0e0e0" stroke="#999999" points="621.5,-129 497.5,-129 497.5,-110 621.5,-110 621.5,-129"/>
<text text-anchor="middle" x="559.5" y="-117" font-family="Helvetica,sans-Serif" font-size="10.00">eventpp/callbacklist.h</text>
</a>
</g>
</g>
<!-- Node4&#45;&gt;Node7 -->
<g id="edge6_Node000004_Node000007" class="edge">
<title>Node4&#45;&gt;Node7</title>
<g id="a_edge6_Node000004_Node000007"><a xlink:title=" ">
<path fill="none" stroke="#63b8ff" d="M457.94,-164.98C477.49,-156.42 507.88,-143.11 530.32,-133.28"/>
<polygon fill="#63b8ff" stroke="#63b8ff" points="531.95,-136.39 539.71,-129.17 529.14,-129.98 531.95,-136.39"/>
</a>
</g>
</g>
<!-- Node4&#45;&gt;Node8 -->
<g id="edge7_Node000004_Node000008" class="edge">
<title>Node4&#45;&gt;Node8</title>
<g id="a_edge7_Node000004_Node000008"><a xlink:title=" ">
<path fill="none" stroke="#63b8ff" d="M417.61,-164.98C396.42,-156.34 363.37,-142.87 339.2,-133.02"/>
<polygon fill="#63b8ff" stroke="#63b8ff" points="340.35,-129.7 329.77,-129.17 337.71,-136.19 340.35,-129.7"/>
</a>
</g>
</g>
<!-- Node4&#45;&gt;Node12 -->
<g id="edge21_Node000004_Node000012" class="edge">
<title>Node4&#45;&gt;Node12</title>
<g id="a_edge21_Node000004_Node000012"><a xlink:title=" ">
<path fill="none" stroke="#63b8ff" d="M445.09,-164.71C454.48,-152.3 472.34,-129.04 488.5,-110 514.22,-79.71 545.84,-45.84 564.23,-26.46"/>
<polygon fill="#63b8ff" stroke="#63b8ff" points="566.88,-28.75 571.24,-19.09 561.81,-23.92 566.88,-28.75"/>
</a>
</g>
</g>
<!-- Node8&#45;&gt;Node3 -->
<g id="edge11_Node000008_Node000003" class="edge">
<title>Node8&#45;&gt;Node3</title>
<g id="a_edge11_Node000008_Node000003"><a xlink:title=" ">
<path fill="none" stroke="#63b8ff" d="M284.78,-112.63C246.7,-103.19 171.78,-84.64 128.17,-73.84"/>
<polygon fill="#63b8ff" stroke="#63b8ff" points="128.87,-70.41 118.33,-71.4 127.19,-77.2 128.87,-70.41"/>
</a>
</g>
</g>
<!-- Node9 -->
<g id="Node000009" class="node">
<title>Node9</title>
<g id="a_Node000009"><a xlink:title=" ">
<polygon fill="#e0e0e0" stroke="#999999" points="149.5,-19 91.5,-19 91.5,0 149.5,0 149.5,-19"/>
<text text-anchor="middle" x="120.5" y="-7" font-family="Helvetica,sans-Serif" font-size="10.00">memory</text>
</a>
</g>
</g>
<!-- Node8&#45;&gt;Node9 -->
<g id="edge8_Node000008_Node000009" class="edge">
<title>Node8&#45;&gt;Node9</title>
<g id="a_edge8_Node000008_Node000009"><a xlink:title=" ">
<path fill="none" stroke="#63b8ff" d="M284.92,-110.62C262.87,-102.78 229.39,-89.69 202.5,-74 178.62,-60.07 153.88,-40 137.91,-26.17"/>
<polygon fill="#63b8ff" stroke="#63b8ff" points="139.82,-23.19 130,-19.21 135.19,-28.44 139.82,-23.19"/>
</a>
</g>
</g>
<!-- Node10 -->
<g id="Node000010" class="node">
<title>Node10</title>
<g id="a_Node000010"><a xlink:title=" ">
<polygon fill="#e0e0e0" stroke="#999999" points="493.5,-19 449.5,-19 449.5,0 493.5,0 493.5,-19"/>
<text text-anchor="middle" x="471.5" y="-7" font-family="Helvetica,sans-Serif" font-size="10.00">string</text>
</a>
</g>
</g>
<!-- Node8&#45;&gt;Node10 -->
<g id="edge9_Node000008_Node000010" class="edge">
<title>Node8&#45;&gt;Node10</title>
<g id="a_edge9_Node000008_Node000010"><a xlink:title=" ">
<path fill="none" stroke="#63b8ff" d="M325.22,-109.92C341.48,-101.39 366.7,-87.63 387.5,-74 410.94,-58.64 436.42,-38.91 453.1,-25.55"/>
<polygon fill="#63b8ff" stroke="#63b8ff" points="455.38,-28.2 460.96,-19.2 450.98,-22.76 455.38,-28.2"/>
</a>
</g>
</g>
<!-- Node11 -->
<g id="Node000011" class="node">
<title>Node11</title>
<g id="a_Node000011"><a xlink:title=" ">
<polygon fill="#e0e0e0" stroke="#999999" points="73,-19 0,-19 0,0 73,0 73,-19"/>
<text text-anchor="middle" x="36.5" y="-7" font-family="Helvetica,sans-Serif" font-size="10.00">string_view</text>
</a>
</g>
</g>
<!-- Node8&#45;&gt;Node11 -->
<g id="edge10_Node000008_Node000011" class="edge">
<title>Node8&#45;&gt;Node11</title>
<g id="a_edge10_Node000008_Node000011"><a xlink:title=" ">
<path fill="none" stroke="#63b8ff" d="M284.73,-111.86C256.96,-103.87 209.82,-89.58 170.5,-74 149.81,-65.8 95.92,-39.7 63.13,-23.63"/>
<polygon fill="#63b8ff" stroke="#63b8ff" points="64.61,-20.46 54.09,-19.19 61.53,-26.74 64.61,-20.46"/>
</a>
</g>
</g>
<!-- Node8&#45;&gt;Node12 -->
<g id="edge12_Node000008_Node000012" class="edge">
<title>Node8&#45;&gt;Node12</title>
<g id="a_edge12_Node000008_Node000012"><a xlink:title=" ">
<path fill="none" stroke="#63b8ff" d="M330.22,-109.84C378.21,-90.72 493.38,-44.82 548.75,-22.75"/>
<polygon fill="#63b8ff" stroke="#63b8ff" points="550.06,-26 558.05,-19.05 547.47,-19.5 550.06,-26"/>
</a>
</g>
</g>
<!-- Node13 -->
<g id="Node000013" class="node">
<title>Node13</title>
<g id="a_Node000013"><a xlink:href="encoding_8h.html" target="_top" xlink:title=" ">
<polygon fill="white" stroke="#666666" points="379,-74 212,-74 212,-55 379,-55 379,-74"/>
<text text-anchor="middle" x="295.5" y="-62" font-family="Helvetica,sans-Serif" font-size="10.00">webcface/encoding/encoding.h</text>
</a>
</g>
</g>
<!-- Node8&#45;&gt;Node13 -->
<g id="edge13_Node000008_Node000013" class="edge">
<title>Node8&#45;&gt;Node13</title>
<g id="a_edge13_Node000008_Node000013"><a xlink:title=" ">
<path fill="none" stroke="#63b8ff" d="M306.35,-109.75C304.63,-102.72 302.15,-92.62 300,-83.84"/>
<polygon fill="#63b8ff" stroke="#63b8ff" points="303.39,-82.97 297.61,-74.09 296.59,-84.63 303.39,-82.97"/>
</a>
</g>
</g>
<!-- Node13&#45;&gt;Node9 -->
<g id="edge16_Node000013_Node000009" class="edge">
<title>Node13&#45;&gt;Node9</title>
<g id="a_edge16_Node000013_Node000009"><a xlink:title=" ">
<path fill="none" stroke="#63b8ff" d="M267.38,-54.98C237.88,-46.05 191.31,-31.94 158.53,-22.02"/>
<polygon fill="#63b8ff" stroke="#63b8ff" points="159.42,-18.63 148.84,-19.08 157.39,-25.33 159.42,-18.63"/>
</a>
</g>
</g>
<!-- Node13&#45;&gt;Node10 -->
<g id="edge14_Node000013_Node000010" class="edge">
<title>Node13&#45;&gt;Node10</title>
<g id="a_edge14_Node000013_Node000010"><a xlink:title=" ">
<path fill="none" stroke="#63b8ff" d="M323.78,-54.98C355.48,-45.44 406.76,-30 439.8,-20.05"/>
<polygon fill="#63b8ff" stroke="#63b8ff" points="440.86,-23.38 449.42,-17.15 438.84,-16.68 440.86,-23.38"/>
</a>
</g>
</g>
<!-- Node13&#45;&gt;Node11 -->
<g id="edge15_Node000013_Node000011" class="edge">
<title>Node13&#45;&gt;Node11</title>
<g id="a_edge15_Node000013_Node000011"><a xlink:title=" ">
<path fill="none" stroke="#63b8ff" d="M253.89,-54.98C207.3,-45.45 131.97,-30.04 83.35,-20.09"/>
<polygon fill="#63b8ff" stroke="#63b8ff" points="83.89,-16.63 73.4,-18.05 82.49,-23.48 83.89,-16.63"/>
</a>
</g>
</g>
<!-- Node13&#45;&gt;Node12 -->
<g id="edge20_Node000013_Node000012" class="edge">
<title>Node13&#45;&gt;Node12</title>
<g id="a_edge20_Node000013_Node000012"><a xlink:title=" ">
<path fill="none" stroke="#63b8ff" d="M341.13,-54.98C390.77,-45.72 470.16,-30.9 523.53,-20.94"/>
<polygon fill="#63b8ff" stroke="#63b8ff" points="524.32,-24.36 533.51,-19.08 523.04,-17.48 524.32,-24.36"/>
</a>
</g>
</g>
<!-- Node14 -->
<g id="Node000014" class="node">
<title>Node14</title>
<g id="a_Node000014"><a xlink:title=" ">
<polygon fill="#e0e0e0" stroke="#999999" points="319.5,-19 271.5,-19 271.5,0 319.5,0 319.5,-19"/>
<text text-anchor="middle" x="295.5" y="-7" font-family="Helvetica,sans-Serif" font-size="10.00">mutex</text>
</a>
</g>
</g>
<!-- Node13&#45;&gt;Node14 -->
<g id="edge17_Node000013_Node000014" class="edge">
<title>Node13&#45;&gt;Node14</title>
<g id="a_edge17_Node000013_Node000014"><a xlink:title=" ">
<path fill="none" stroke="#63b8ff" d="M295.5,-54.75C295.5,-47.8 295.5,-37.85 295.5,-29.13"/>
<polygon fill="#63b8ff" stroke="#63b8ff" points="299,-29.09 295.5,-19.09 292,-29.09 299,-29.09"/>
</a>
</g>
</g>
<!-- Node15 -->
<g id="Node000015" class="node">
<title>Node15</title>
<g id="a_Node000015"><a xlink:title=" ">
<polygon fill="#e0e0e0" stroke="#999999" points="431,-19 338,-19 338,0 431,0 431,-19"/>
<text text-anchor="middle" x="384.5" y="-7" font-family="Helvetica,sans-Serif" font-size="10.00">unordered_map</text>
</a>
</g>
</g>
<!-- Node13&#45;&gt;Node15 -->
<g id="edge18_Node000013_Node000015" class="edge">
<title>Node13&#45;&gt;Node15</title>
<g id="a_edge18_Node000013_Node000015"><a xlink:title=" ">
<path fill="none" stroke="#63b8ff" d="M309.8,-54.98C323.6,-46.77 344.74,-34.18 361.01,-24.49"/>
<polygon fill="#63b8ff" stroke="#63b8ff" points="363.14,-27.29 369.94,-19.17 359.56,-21.28 363.14,-27.29"/>
</a>
</g>
</g>
<!-- Node16 -->
<g id="Node000016" class="node">
<title>Node16</title>
<g id="a_Node000016"><a xlink:title=" ">
<polygon fill="#e0e0e0" stroke="#999999" points="253.5,-19 167.5,-19 167.5,0 253.5,0 253.5,-19"/>
<text text-anchor="middle" x="210.5" y="-7" font-family="Helvetica,sans-Serif" font-size="10.00">unordered_set</text>
</a>
</g>
</g>
<!-- Node13&#45;&gt;Node16 -->
<g id="edge19_Node000013_Node000016" class="edge">
<title>Node13&#45;&gt;Node16</title>
<g id="a_edge19_Node000013_Node000016"><a xlink:title=" ">
<path fill="none" stroke="#63b8ff" d="M281.84,-54.98C268.66,-46.77 248.47,-34.18 232.93,-24.49"/>
<polygon fill="#63b8ff" stroke="#63b8ff" points="234.74,-21.49 224.41,-19.17 231.04,-27.43 234.74,-21.49"/>
</a>
</g>
</g>
</g>
</svg>
