<?xml version="1.0" encoding="UTF-8" standalone="no"?>
<!DOCTYPE svg PUBLIC "-//W3C//DTD SVG 1.1//EN"
 "http://www.w3.org/Graphics/SVG/1.1/DTD/svg11.dtd">
<!-- Generated by graphviz version 2.43.0 (0)
 -->
<!-- Title: include/webcface/log.h Pages: 1 -->
<svg width="1471pt" height="247pt"
 viewBox="0.00 0.00 1471.22 247.00" xmlns="http://www.w3.org/2000/svg" xmlns:xlink="http://www.w3.org/1999/xlink">
<g id="graph0" class="graph" transform="scale(1 1) rotate(0) translate(4 243)">
<title>include/webcface/log.h</title>
<!-- Node1 -->
<g id="Node000001" class="node">
<title>Node1</title>
<g id="a_Node000001"><a xlink:title=" ">
<polygon fill="#999999" stroke="#666666" points="725.22,-239 597.22,-239 597.22,-220 725.22,-220 725.22,-239"/>
<text text-anchor="middle" x="661.22" y="-227" font-family="Helvetica,sans-Serif" font-size="10.00">include/webcface/log.h</text>
</a>
</g>
</g>
<!-- Node2 -->
<g id="Node000002" class="node">
<title>Node2</title>
<g id="a_Node000002"><a xlink:href="client_2client_8cc.html" target="_top" xlink:title=" ">
<polygon fill="white" stroke="#666666" points="522.72,-74 435.72,-74 435.72,-55 522.72,-55 522.72,-74"/>
<text text-anchor="middle" x="479.22" y="-62" font-family="Helvetica,sans-Serif" font-size="10.00">client/client.cc</text>
</a>
</g>
</g>
<!-- Node1&#45;&gt;Node2 -->
<g id="edge1_Node000001_Node000002" class="edge">
<title>Node1&#45;&gt;Node2</title>
<g id="a_edge1_Node000001_Node000002"><a xlink:title=" ">
<path fill="none" stroke="#63b8ff" d="M586.68,-228.83C430.81,-227.75 78.67,-215.57 4.22,-129 -1.29,-122.6 -1.47,-116.24 4.22,-110 32.98,-78.42 323.72,-68.84 435.63,-66.31"/>
<polygon fill="#63b8ff" stroke="#63b8ff" points="587.09,-232.33 597.11,-228.88 587.13,-225.33 587.09,-232.33"/>
</a>
</g>
</g>
<!-- Node3 -->
<g id="Node000003" class="node">
<title>Node3</title>
<g id="a_Node000003"><a xlink:href="log_8cc.html" target="_top" xlink:title=" ">
<polygon fill="white" stroke="#666666" points="632.72,-184 557.72,-184 557.72,-165 632.72,-165 632.72,-184"/>
<text text-anchor="middle" x="595.22" y="-172" font-family="Helvetica,sans-Serif" font-size="10.00">client/log.cc</text>
</a>
</g>
</g>
<!-- Node1&#45;&gt;Node3 -->
<g id="edge2_Node000001_Node000003" class="edge">
<title>Node1&#45;&gt;Node3</title>
<g id="a_edge2_Node000001_Node000003"><a xlink:title=" ">
<path fill="none" stroke="#63b8ff" d="M642.67,-213.6C630.84,-204.11 615.93,-192.13 606.02,-184.17"/>
<polygon fill="#63b8ff" stroke="#63b8ff" points="640.63,-216.45 650.62,-219.98 645.01,-210.99 640.63,-216.45"/>
</a>
</g>
</g>
<!-- Node4 -->
<g id="Node000004" class="node">
<title>Node4</title>
<g id="a_Node000004"><a xlink:href="member_8h.html" target="_top" xlink:title=" ">
<polygon fill="white" stroke="#666666" points="805.22,-184 651.22,-184 651.22,-165 805.22,-165 805.22,-184"/>
<text text-anchor="middle" x="728.22" y="-172" font-family="Helvetica,sans-Serif" font-size="10.00">include/webcface/member.h</text>
</a>
</g>
</g>
<!-- Node1&#45;&gt;Node4 -->
<g id="edge3_Node000001_Node000004" class="edge">
<title>Node1&#45;&gt;Node4</title>
<g id="a_edge3_Node000001_Node000004"><a xlink:title=" ">
<path fill="none" stroke="#63b8ff" d="M680.05,-213.6C692.06,-204.11 707.19,-192.13 717.26,-184.17"/>
<polygon fill="#63b8ff" stroke="#63b8ff" points="677.66,-211.04 671.98,-219.98 682,-216.53 677.66,-211.04"/>
</a>
</g>
</g>
<!-- Node23 -->
<g id="Node000023" class="node">
<title>Node23</title>
<g id="a_Node000023"><a xlink:href="webcface_8h.html" target="_top" xlink:title=" ">
<polygon fill="white" stroke="#666666" points="1463.22,-74 1303.22,-74 1303.22,-55 1463.22,-55 1463.22,-74"/>
<text text-anchor="middle" x="1383.22" y="-62" font-family="Helvetica,sans-Serif" font-size="10.00">include/webcface/webcface.h</text>
</a>
</g>
</g>
<!-- Node1&#45;&gt;Node23 -->
<g id="edge25_Node000001_Node000023" class="edge">
<title>Node1&#45;&gt;Node23</title>
<g id="a_edge25_Node000001_Node000023"><a xlink:title=" ">
<path fill="none" stroke="#63b8ff" d="M735.39,-226.42C893.04,-220.65 1255,-199.86 1352.22,-129 1370.66,-115.56 1378.67,-88.13 1381.67,-74.13"/>
<polygon fill="#63b8ff" stroke="#63b8ff" points="735.17,-222.93 725.31,-226.78 735.42,-229.92 735.17,-222.93"/>
</a>
</g>
</g>
<!-- Node5 -->
<g id="Node000005" class="node">
<title>Node5</title>
<g id="a_Node000005"><a xlink:href="canvas2d_8cc.html" target="_top" xlink:title=" ">
<polygon fill="white" stroke="#666666" points="120.72,-129 13.72,-129 13.72,-110 120.72,-110 120.72,-129"/>
<text text-anchor="middle" x="67.22" y="-117" font-family="Helvetica,sans-Serif" font-size="10.00">client/canvas2d.cc</text>
</a>
</g>
</g>
<!-- Node4&#45;&gt;Node5 -->
<g id="edge4_Node000004_Node000005" class="edge">
<title>Node4&#45;&gt;Node5</title>
<g id="a_edge4_Node000004_Node000005"><a xlink:title=" ">
<path fill="none" stroke="#63b8ff" d="M640.61,-164.98C412.17,-146.09 352.8,-152.16 129.22,-129 126.52,-128.72 123.75,-128.41 120.96,-128.09"/>
<polygon fill="#63b8ff" stroke="#63b8ff" points="640.65,-168.49 650.91,-165.84 641.23,-161.52 640.65,-168.49"/>
</a>
</g>
</g>
<!-- Node6 -->
<g id="Node000006" class="node">
<title>Node6</title>
<g id="a_Node000006"><a xlink:href="canvas3d_8cc.html" target="_top" xlink:title=" ">
<polygon fill="white" stroke="#666666" points="245.72,-129 138.72,-129 138.72,-110 245.72,-110 245.72,-129"/>
<text text-anchor="middle" x="192.22" y="-117" font-family="Helvetica,sans-Serif" font-size="10.00">client/canvas3d.cc</text>
</a>
</g>
</g>
<!-- Node4&#45;&gt;Node6 -->
<g id="edge5_Node000004_Node000006" class="edge">
<title>Node4&#45;&gt;Node6</title>
<g id="a_edge5_Node000004_Node000006"><a xlink:title=" ">
<path fill="none" stroke="#63b8ff" d="M640.7,-164.96C468,-148.61 423.15,-148.15 255.22,-129 252.15,-128.65 249,-128.27 245.82,-127.88"/>
<polygon fill="#63b8ff" stroke="#63b8ff" points="640.61,-168.47 650.9,-165.93 641.28,-161.5 640.61,-168.47"/>
</a>
</g>
</g>
<!-- Node7 -->
<g id="Node000007" class="node">
<title>Node7</title>
<g id="a_Node000007"><a xlink:href="canvas__data_8cc.html" target="_top" xlink:title=" ">
<polygon fill="white" stroke="#666666" points="386.22,-129 264.22,-129 264.22,-110 386.22,-110 386.22,-129"/>
<text text-anchor="middle" x="325.22" y="-117" font-family="Helvetica,sans-Serif" font-size="10.00">client/canvas_data.cc</text>
</a>
</g>
</g>
<!-- Node4&#45;&gt;Node7 -->
<g id="edge6_Node000004_Node000007" class="edge">
<title>Node4&#45;&gt;Node7</title>
<g id="a_edge6_Node000004_Node000007"><a xlink:title=" ">
<path fill="none" stroke="#63b8ff" d="M653.37,-163.66C576.43,-153.54 458.07,-137.97 386.51,-128.56"/>
<polygon fill="#63b8ff" stroke="#63b8ff" points="653.1,-167.15 663.47,-164.98 654.01,-160.21 653.1,-167.15"/>
</a>
</g>
</g>
<!-- Node8 -->
<g id="Node000008" class="node">
<title>Node8</title>
<g id="a_Node000008"><a xlink:href="field_8cc.html" target="_top" xlink:title=" ">
<polygon fill="white" stroke="#666666" points="485.72,-129 404.72,-129 404.72,-110 485.72,-110 485.72,-129"/>
<text text-anchor="middle" x="445.22" y="-117" font-family="Helvetica,sans-Serif" font-size="10.00">client/field.cc</text>
</a>
</g>
</g>
<!-- Node4&#45;&gt;Node8 -->
<g id="edge7_Node000004_Node000008" class="edge">
<title>Node4&#45;&gt;Node8</title>
<g id="a_edge7_Node000004_Node000008"><a xlink:title=" ">
<path fill="none" stroke="#63b8ff" d="M672.84,-163.13C617.94,-152.85 535.13,-137.34 485.98,-128.13"/>
<polygon fill="#63b8ff" stroke="#63b8ff" points="672.28,-166.58 682.75,-164.98 673.57,-159.7 672.28,-166.58"/>
</a>
</g>
</g>
<!-- Node9 -->
<g id="Node000009" class="node">
<title>Node9</title>
<g id="a_Node000009"><a xlink:href="image_8cc.html" target="_top" xlink:title=" ">
<polygon fill="white" stroke="#666666" points="594.72,-129 503.72,-129 503.72,-110 594.72,-110 594.72,-129"/>
<text text-anchor="middle" x="549.22" y="-117" font-family="Helvetica,sans-Serif" font-size="10.00">client/image.cc</text>
</a>
</g>
</g>
<!-- Node4&#45;&gt;Node9 -->
<g id="edge8_Node000004_Node000009" class="edge">
<title>Node4&#45;&gt;Node9</title>
<g id="a_edge8_Node000004_Node000009"><a xlink:title=" ">
<path fill="none" stroke="#63b8ff" d="M689.57,-162.06C656.11,-152.15 608.47,-138.04 578.2,-129.08"/>
<polygon fill="#63b8ff" stroke="#63b8ff" points="688.88,-165.5 699.46,-164.98 690.87,-158.79 688.88,-165.5"/>
</a>
</g>
</g>
<!-- Node10 -->
<g id="Node000010" class="node">
<title>Node10</title>
<g id="a_Node000010"><a xlink:href="member_8cc.html" target="_top" xlink:title=" ">
<polygon fill="white" stroke="#666666" points="713.72,-129 612.72,-129 612.72,-110 713.72,-110 713.72,-129"/>
<text text-anchor="middle" x="663.22" y="-117" font-family="Helvetica,sans-Serif" font-size="10.00">client/member.cc</text>
</a>
</g>
</g>
<!-- Node4&#45;&gt;Node10 -->
<g id="edge9_Node000004_Node000010" class="edge">
<title>Node4&#45;&gt;Node10</title>
<g id="a_edge9_Node000004_Node000010"><a xlink:title=" ">
<path fill="none" stroke="#63b8ff" d="M709.95,-158.6C698.3,-149.11 683.62,-137.13 673.85,-129.17"/>
<polygon fill="#63b8ff" stroke="#63b8ff" points="707.81,-161.38 717.78,-164.98 712.24,-155.95 707.81,-161.38"/>
</a>
</g>
</g>
<!-- Node11 -->
<g id="Node000011" class="node">
<title>Node11</title>
<g id="a_Node000011"><a xlink:href="robot__model_8cc.html" target="_top" xlink:title=" ">
<polygon fill="white" stroke="#666666" points="854.22,-129 732.22,-129 732.22,-110 854.22,-110 854.22,-129"/>
<text text-anchor="middle" x="793.22" y="-117" font-family="Helvetica,sans-Serif" font-size="10.00">client/robot_model.cc</text>
</a>
</g>
</g>
<!-- Node4&#45;&gt;Node11 -->
<g id="edge10_Node000004_Node000011" class="edge">
<title>Node4&#45;&gt;Node11</title>
<g id="a_edge10_Node000004_Node000011"><a xlink:title=" ">
<path fill="none" stroke="#63b8ff" d="M746.49,-158.6C758.14,-149.11 772.82,-137.13 782.59,-129.17"/>
<polygon fill="#63b8ff" stroke="#63b8ff" points="744.2,-155.95 738.66,-164.98 748.62,-161.38 744.2,-155.95"/>
</a>
</g>
</g>
<!-- Node12 -->
<g id="Node000012" class="node">
<title>Node12</title>
<g id="a_Node000012"><a xlink:href="client_2text_8cc.html" target="_top" xlink:title=" ">
<polygon fill="white" stroke="#666666" points="952.22,-129 872.22,-129 872.22,-110 952.22,-110 952.22,-129"/>
<text text-anchor="middle" x="912.22" y="-117" font-family="Helvetica,sans-Serif" font-size="10.00">client/text.cc</text>
</a>
</g>
</g>
<!-- Node4&#45;&gt;Node12 -->
<g id="edge11_Node000004_Node000012" class="edge">
<title>Node4&#45;&gt;Node12</title>
<g id="a_edge11_Node000004_Node000012"><a xlink:title=" ">
<path fill="none" stroke="#63b8ff" d="M767.51,-162.18C801.92,-152.27 851.18,-138.08 882.42,-129.08"/>
<polygon fill="#63b8ff" stroke="#63b8ff" points="766.42,-158.85 757.78,-164.98 768.36,-165.58 766.42,-158.85"/>
</a>
</g>
</g>
<!-- Node13 -->
<g id="Node000013" class="node">
<title>Node13</title>
<g id="a_Node000013"><a xlink:href="client_2value_8cc.html" target="_top" xlink:title=" ">
<polygon fill="white" stroke="#666666" points="1057.72,-129 970.72,-129 970.72,-110 1057.72,-110 1057.72,-129"/>
<text text-anchor="middle" x="1014.22" y="-117" font-family="Helvetica,sans-Serif" font-size="10.00">client/value.cc</text>
</a>
</g>
</g>
<!-- Node4&#45;&gt;Node13 -->
<g id="edge12_Node000004_Node000013" class="edge">
<title>Node4&#45;&gt;Node13</title>
<g id="a_edge12_Node000004_Node000013"><a xlink:title=" ">
<path fill="none" stroke="#63b8ff" d="M784.01,-163.16C838.48,-153.07 920.25,-137.91 970.26,-128.65"/>
<polygon fill="#63b8ff" stroke="#63b8ff" points="783.37,-159.72 774.17,-164.98 784.64,-166.6 783.37,-159.72"/>
</a>
</g>
</g>
<!-- Node14 -->
<g id="Node000014" class="node">
<title>Node14</title>
<g id="a_Node000014"><a xlink:href="client_2view_8cc.html" target="_top" xlink:title=" ">
<polygon fill="white" stroke="#666666" points="1158.72,-129 1075.72,-129 1075.72,-110 1158.72,-110 1158.72,-129"/>
<text text-anchor="middle" x="1117.22" y="-117" font-family="Helvetica,sans-Serif" font-size="10.00">client/view.cc</text>
</a>
</g>
</g>
<!-- Node4&#45;&gt;Node14 -->
<g id="edge13_Node000004_Node000014" class="edge">
<title>Node4&#45;&gt;Node14</title>
<g id="a_edge13_Node000004_Node000014"><a xlink:title=" ">
<path fill="none" stroke="#63b8ff" d="M809.43,-163.72C878.18,-155.22 979.29,-142.24 1067.22,-129 1069.92,-128.59 1072.7,-128.16 1075.5,-127.71"/>
<polygon fill="#63b8ff" stroke="#63b8ff" points="808.6,-160.29 799.1,-164.99 809.45,-167.24 808.6,-160.29"/>
</a>
</g>
</g>
<!-- Node15 -->
<g id="Node000015" class="node">
<title>Node15</title>
<g id="a_Node000015"><a xlink:href="client_8h.html" target="_top" xlink:title=" ">
<polygon fill="white" stroke="#666666" points="1317.22,-129 1177.22,-129 1177.22,-110 1317.22,-110 1317.22,-129"/>
<text text-anchor="middle" x="1247.22" y="-117" font-family="Helvetica,sans-Serif" font-size="10.00">include/webcface/client.h</text>
</a>
</g>
</g>
<!-- Node4&#45;&gt;Node15 -->
<g id="edge14_Node000004_Node000015" class="edge">
<title>Node4&#45;&gt;Node15</title>
<g id="a_edge14_Node000004_Node000015"><a xlink:title=" ">
<path fill="none" stroke="#63b8ff" d="M815.36,-164.85C904.14,-156 1045.79,-141.78 1168.22,-129 1171.1,-128.7 1174.04,-128.39 1177.01,-128.08"/>
<polygon fill="#63b8ff" stroke="#63b8ff" points="814.94,-161.38 805.33,-165.85 815.63,-168.34 814.94,-161.38"/>
</a>
</g>
</g>
<!-- Node4&#45;&gt;Node23 -->
<g id="edge24_Node000004_Node000023" class="edge">
<title>Node4&#45;&gt;Node23</title>
<g id="a_edge24_Node000004_Node000023"><a xlink:title=" ">
<path fill="none" stroke="#63b8ff" d="M815.7,-170.59C970.73,-164.9 1281.61,-150.92 1326.22,-129 1350.95,-116.85 1369.83,-88.83 1378.31,-74.42"/>
<polygon fill="#63b8ff" stroke="#63b8ff" points="815.13,-167.11 805.27,-170.97 815.39,-174.1 815.13,-167.11"/>
</a>
</g>
</g>
<!-- Node15&#45;&gt;Node2 -->
<g id="edge21_Node000015_Node000002" class="edge">
<title>Node15&#45;&gt;Node2</title>
<g id="a_edge21_Node000015_Node000002"><a xlink:title=" ">
<path fill="none" stroke="#63b8ff" d="M1167.02,-109.93C916.9,-88.62 630.29,-73.15 522.8,-67.67"/>
<polygon fill="#63b8ff" stroke="#63b8ff" points="1166.76,-113.42 1177.02,-110.79 1167.36,-106.45 1166.76,-113.42"/>
</a>
</g>
</g>
<!-- Node16 -->
<g id="Node000016" class="node">
<title>Node16</title>
<g id="a_Node000016"><a xlink:href="c__wcf__internal_8h.html" target="_top" xlink:title=" ">
<polygon fill="white" stroke="#666666" points="1160.72,-74 1033.72,-74 1033.72,-55 1160.72,-55 1160.72,-74"/>
<text text-anchor="middle" x="1097.22" y="-62" font-family="Helvetica,sans-Serif" font-size="10.00">c_wcf/c_wcf_internal.h</text>
</a>
</g>
</g>
<!-- Node15&#45;&gt;Node16 -->
<g id="edge15_Node000015_Node000016" class="edge">
<title>Node15&#45;&gt;Node16</title>
<g id="a_edge15_Node000015_Node000016"><a xlink:title=" ">
<path fill="none" stroke="#63b8ff" d="M1213.4,-106.55C1185.54,-96.71 1146.7,-82.98 1121.76,-74.17"/>
<polygon fill="#63b8ff" stroke="#63b8ff" points="1212.52,-109.95 1223.12,-109.98 1214.86,-103.35 1212.52,-109.95"/>
</a>
</g>
</g>
<!-- Node22 -->
<g id="Node000022" class="node">
<title>Node22</title>
<g id="a_Node000022"><a xlink:href="client__ws_8cc.html" target="_top" xlink:title=" ">
<polygon fill="white" stroke="#666666" points="1285.22,-74 1179.22,-74 1179.22,-55 1285.22,-55 1285.22,-74"/>
<text text-anchor="middle" x="1232.22" y="-62" font-family="Helvetica,sans-Serif" font-size="10.00">client/client_ws.cc</text>
</a>
</g>
</g>
<!-- Node15&#45;&gt;Node22 -->
<g id="edge22_Node000015_Node000022" class="edge">
<title>Node15&#45;&gt;Node22</title>
<g id="a_edge22_Node000015_Node000022"><a xlink:title=" ">
<path fill="none" stroke="#63b8ff" d="M1241.97,-99.95C1239.48,-91.15 1236.62,-81.06 1234.65,-74.09"/>
<polygon fill="#63b8ff" stroke="#63b8ff" points="1238.65,-101.08 1244.74,-109.75 1245.39,-99.17 1238.65,-101.08"/>
</a>
</g>
</g>
<!-- Node15&#45;&gt;Node23 -->
<g id="edge23_Node000015_Node000023" class="edge">
<title>Node15&#45;&gt;Node23</title>
<g id="a_edge23_Node000015_Node000023"><a xlink:title=" ">
<path fill="none" stroke="#63b8ff" d="M1278.55,-106.29C1303.76,-96.47 1338.55,-82.91 1360.97,-74.17"/>
<polygon fill="#63b8ff" stroke="#63b8ff" points="1277.12,-103.09 1269.07,-109.98 1279.66,-109.61 1277.12,-103.09"/>
</a>
</g>
</g>
<!-- Node17 -->
<g id="Node000017" class="node">
<title>Node17</title>
<g id="a_Node000017"><a xlink:href="c__wcf_2client_8cc.html" target="_top" xlink:title=" ">
<polygon fill="white" stroke="#666666" points="939.22,-19 851.22,-19 851.22,0 939.22,0 939.22,-19"/>
<text text-anchor="middle" x="895.22" y="-7" font-family="Helvetica,sans-Serif" font-size="10.00">c_wcf/client.cc</text>
</a>
</g>
</g>
<!-- Node16&#45;&gt;Node17 -->
<g id="edge16_Node000016_Node000017" class="edge">
<title>Node16&#45;&gt;Node17</title>
<g id="a_edge16_Node000016_Node000017"><a xlink:title=" ">
<path fill="none" stroke="#63b8ff" d="M1055.06,-52.44C1017.24,-42.52 962.53,-28.16 927.93,-19.08"/>
<polygon fill="#63b8ff" stroke="#63b8ff" points="1054.2,-55.83 1064.76,-54.98 1055.98,-49.06 1054.2,-55.83"/>
</a>
</g>
</g>
<!-- Node18 -->
<g id="Node000018" class="node">
<title>Node18</title>
<g id="a_Node000018"><a xlink:href="c__wcf_2func_8cc.html" target="_top" xlink:title=" ">
<polygon fill="white" stroke="#666666" points="1039.22,-19 957.22,-19 957.22,0 1039.22,0 1039.22,-19"/>
<text text-anchor="middle" x="998.22" y="-7" font-family="Helvetica,sans-Serif" font-size="10.00">c_wcf/func.cc</text>
</a>
</g>
</g>
<!-- Node16&#45;&gt;Node18 -->
<g id="edge17_Node000016_Node000018" class="edge">
<title>Node16&#45;&gt;Node18</title>
<g id="a_edge17_Node000016_Node000018"><a xlink:title=" ">
<path fill="none" stroke="#63b8ff" d="M1072.44,-50.23C1054.28,-40.51 1030.16,-27.6 1014.41,-19.17"/>
<polygon fill="#63b8ff" stroke="#63b8ff" points="1070.85,-53.35 1081.31,-54.98 1074.15,-47.18 1070.85,-53.35"/>
</a>
</g>
</g>
<!-- Node19 -->
<g id="Node000019" class="node">
<title>Node19</title>
<g id="a_Node000019"><a xlink:href="c__wcf_2text_8cc.html" target="_top" xlink:title=" ">
<polygon fill="white" stroke="#666666" points="1137.22,-19 1057.22,-19 1057.22,0 1137.22,0 1137.22,-19"/>
<text text-anchor="middle" x="1097.22" y="-7" font-family="Helvetica,sans-Serif" font-size="10.00">c_wcf/text.cc</text>
</a>
</g>
</g>
<!-- Node16&#45;&gt;Node19 -->
<g id="edge18_Node000016_Node000019" class="edge">
<title>Node16&#45;&gt;Node19</title>
<g id="a_edge18_Node000016_Node000019"><a xlink:title=" ">
<path fill="none" stroke="#63b8ff" d="M1097.22,-44.66C1097.22,-35.93 1097.22,-25.99 1097.22,-19.09"/>
<polygon fill="#63b8ff" stroke="#63b8ff" points="1093.72,-44.75 1097.22,-54.75 1100.72,-44.75 1093.72,-44.75"/>
</a>
</g>
</g>
<!-- Node20 -->
<g id="Node000020" class="node">
<title>Node20</title>
<g id="a_Node000020"><a xlink:href="c__wcf_2value_8cc.html" target="_top" xlink:title=" ">
<polygon fill="white" stroke="#666666" points="1243.22,-19 1155.22,-19 1155.22,0 1243.22,0 1243.22,-19"/>
<text text-anchor="middle" x="1199.22" y="-7" font-family="Helvetica,sans-Serif" font-size="10.00">c_wcf/value.cc</text>
</a>
</g>
</g>
<!-- Node16&#45;&gt;Node20 -->
<g id="edge19_Node000016_Node000020" class="edge">
<title>Node16&#45;&gt;Node20</title>
<g id="a_edge19_Node000016_Node000020"><a xlink:title=" ">
<path fill="none" stroke="#63b8ff" d="M1122.49,-50.37C1141.23,-40.63 1166.24,-27.64 1182.53,-19.17"/>
<polygon fill="#63b8ff" stroke="#63b8ff" points="1120.87,-47.27 1113.61,-54.98 1124.09,-53.48 1120.87,-47.27"/>
</a>
</g>
</g>
<!-- Node21 -->
<g id="Node000021" class="node">
<title>Node21</title>
<g id="a_Node000021"><a xlink:href="c__wcf_2view_8cc.html" target="_top" xlink:title=" ">
<polygon fill="white" stroke="#666666" points="1344.72,-19 1261.72,-19 1261.72,0 1344.72,0 1344.72,-19"/>
<text text-anchor="middle" x="1303.22" y="-7" font-family="Helvetica,sans-Serif" font-size="10.00">c_wcf/view.cc</text>
</a>
</g>
</g>
<!-- Node16&#45;&gt;Node21 -->
<g id="edge20_Node000016_Node000021" class="edge">
<title>Node16&#45;&gt;Node21</title>
<g id="a_edge20_Node000016_Node000021"><a xlink:title=" ">
<path fill="none" stroke="#63b8ff" d="M1140.22,-52.44C1178.78,-42.52 1234.58,-28.16 1269.86,-19.08"/>
<polygon fill="#63b8ff" stroke="#63b8ff" points="1139.13,-49.1 1130.32,-54.98 1140.87,-55.88 1139.13,-49.1"/>
</a>
</g>
</g>
</g>
</svg>
