<?xml version="1.0" encoding="UTF-8" standalone="no"?>
<!DOCTYPE svg PUBLIC "-//W3C//DTD SVG 1.1//EN"
 "http://www.w3.org/Graphics/SVG/1.1/DTD/svg11.dtd">
<!-- Generated by graphviz version 2.43.0 (0)
 -->
<!-- Title: include/webcface/log.h Pages: 1 -->
<svg width="783pt" height="357pt"
 viewBox="0.00 0.00 783.00 357.00" xmlns="http://www.w3.org/2000/svg" xmlns:xlink="http://www.w3.org/1999/xlink">
<g id="graph0" class="graph" transform="scale(1 1) rotate(0) translate(4 353)">
<title>include/webcface/log.h</title>
<!-- Node1 -->
<g id="Node000001" class="node">
<title>Node1</title>
<g id="a_Node000001"><a xlink:title=" ">
<polygon fill="#999999" stroke="#666666" points="356,-349 228,-349 228,-330 356,-330 356,-349"/>
<text text-anchor="middle" x="292" y="-337" font-family="Helvetica,sans-Serif" font-size="10.00">include/webcface/log.h</text>
</a>
</g>
</g>
<!-- Node2 -->
<g id="Node000002" class="node">
<title>Node2</title>
<g id="a_Node000002"><a xlink:title=" ">
<polygon fill="#e0e0e0" stroke="#999999" points="58,-74 0,-74 0,-55 58,-55 58,-74"/>
<text text-anchor="middle" x="29" y="-62" font-family="Helvetica,sans-Serif" font-size="10.00">memory</text>
</a>
</g>
</g>
<!-- Node1&#45;&gt;Node2 -->
<g id="edge1_Node000001_Node000002" class="edge">
<title>Node1&#45;&gt;Node2</title>
<g id="a_edge1_Node000001_Node000002"><a xlink:title=" ">
<path fill="none" stroke="#63b8ff" d="M247.64,-329.95C172.21,-314.13 27,-277.57 27,-230.5 27,-230.5 27,-230.5 27,-173.5 27,-142.18 27.85,-105.77 28.44,-84.23"/>
<polygon fill="#63b8ff" stroke="#63b8ff" points="31.94,-84.27 28.73,-74.18 24.95,-84.07 31.94,-84.27"/>
</a>
</g>
</g>
<!-- Node3 -->
<g id="Node000003" class="node">
<title>Node3</title>
<g id="a_Node000003"><a xlink:title=" ">
<polygon fill="#e0e0e0" stroke="#999999" points="775,-294 719,-294 719,-275 775,-275 775,-294"/>
<text text-anchor="middle" x="747" y="-282" font-family="Helvetica,sans-Serif" font-size="10.00">optional</text>
</a>
</g>
</g>
<!-- Node1&#45;&gt;Node3 -->
<g id="edge2_Node000001_Node000003" class="edge">
<title>Node1&#45;&gt;Node3</title>
<g id="a_edge2_Node000001_Node000003"><a xlink:title=" ">
<path fill="none" stroke="#63b8ff" d="M356.27,-333.43C437.7,-326.57 582.24,-312.99 705,-294 706.1,-293.83 707.22,-293.65 708.35,-293.46"/>
<polygon fill="#63b8ff" stroke="#63b8ff" points="709.38,-296.83 718.6,-291.62 708.14,-289.94 709.38,-296.83"/>
</a>
</g>
</g>
<!-- Node4 -->
<g id="Node000004" class="node">
<title>Node4</title>
<g id="a_Node000004"><a xlink:title=" ">
<polygon fill="#e0e0e0" stroke="#999999" points="263.5,-184 216.5,-184 216.5,-165 263.5,-165 263.5,-184"/>
<text text-anchor="middle" x="240" y="-172" font-family="Helvetica,sans-Serif" font-size="10.00">vector</text>
</a>
</g>
</g>
<!-- Node1&#45;&gt;Node4 -->
<g id="edge3_Node000001_Node000004" class="edge">
<title>Node1&#45;&gt;Node4</title>
<g id="a_edge3_Node000001_Node000004"><a xlink:title=" ">
<path fill="none" stroke="#63b8ff" d="M289.24,-329.99C283.68,-312.8 270.73,-272.72 260,-239 255.17,-223.84 249.75,-206.62 245.78,-193.94"/>
<polygon fill="#63b8ff" stroke="#63b8ff" points="249.03,-192.63 242.7,-184.13 242.35,-194.72 249.03,-192.63"/>
</a>
</g>
</g>
<!-- Node5 -->
<g id="Node000005" class="node">
<title>Node5</title>
<g id="a_Node000005"><a xlink:href="event__target_8h.html" target="_top" xlink:title=" ">
<polygon fill="white" stroke="#666666" points="466,-294 378,-294 378,-275 466,-275 466,-294"/>
<text text-anchor="middle" x="422" y="-282" font-family="Helvetica,sans-Serif" font-size="10.00">event_target.h</text>
</a>
</g>
</g>
<!-- Node1&#45;&gt;Node5 -->
<g id="edge4_Node000001_Node000005" class="edge">
<title>Node1&#45;&gt;Node5</title>
<g id="a_edge4_Node000001_Node000005"><a xlink:title=" ">
<path fill="none" stroke="#63b8ff" d="M312.89,-329.98C334.08,-321.34 367.13,-307.87 391.3,-298.02"/>
<polygon fill="#63b8ff" stroke="#63b8ff" points="392.79,-301.19 400.73,-294.17 390.15,-294.7 392.79,-301.19"/>
</a>
</g>
</g>
<!-- Node9 -->
<g id="Node000009" class="node">
<title>Node9</title>
<g id="a_Node000009"><a xlink:href="field_8h.html" target="_top" xlink:title=" ">
<polygon fill="white" stroke="#666666" points="315.5,-239 268.5,-239 268.5,-220 315.5,-220 315.5,-239"/>
<text text-anchor="middle" x="292" y="-227" font-family="Helvetica,sans-Serif" font-size="10.00">field.h</text>
</a>
</g>
</g>
<!-- Node1&#45;&gt;Node9 -->
<g id="edge27_Node000001_Node000009" class="edge">
<title>Node1&#45;&gt;Node9</title>
<g id="a_edge27_Node000001_Node000009"><a xlink:title=" ">
<path fill="none" stroke="#63b8ff" d="M292,-329.66C292,-312.17 292,-272.8 292,-249.27"/>
<polygon fill="#63b8ff" stroke="#63b8ff" points="295.5,-249.16 292,-239.16 288.5,-249.16 295.5,-249.16"/>
</a>
</g>
</g>
<!-- Node13 -->
<g id="Node000013" class="node">
<title>Node13</title>
<g id="a_Node000013"><a xlink:href="def_8h.html" target="_top" xlink:title=" ">
<polygon fill="white" stroke="#666666" points="665,-74 529,-74 529,-55 665,-55 665,-74"/>
<text text-anchor="middle" x="597" y="-62" font-family="Helvetica,sans-Serif" font-size="10.00">webcface/common/def.h</text>
</a>
</g>
</g>
<!-- Node1&#45;&gt;Node13 -->
<g id="edge34_Node000001_Node000013" class="edge">
<title>Node1&#45;&gt;Node13</title>
<g id="a_edge34_Node000001_Node000013"><a xlink:title=" ">
<path fill="none" stroke="#63b8ff" d="M356.11,-334.4C468.89,-325.42 691,-299.03 691,-230.5 691,-230.5 691,-230.5 691,-173.5 691,-131.29 649.64,-97.56 621.79,-79.63"/>
<polygon fill="#63b8ff" stroke="#63b8ff" points="623.29,-76.44 612.95,-74.17 619.62,-82.4 623.29,-76.44"/>
</a>
</g>
</g>
<!-- Node19 -->
<g id="Node000019" class="node">
<title>Node19</title>
<g id="a_Node000019"><a xlink:href="common_2log_8h.html" target="_top" xlink:title=" ">
<polygon fill="white" stroke="#666666" points="198,-184 112,-184 112,-165 198,-165 198,-184"/>
<text text-anchor="middle" x="155" y="-172" font-family="Helvetica,sans-Serif" font-size="10.00">common/log.h</text>
</a>
</g>
</g>
<!-- Node1&#45;&gt;Node19 -->
<g id="edge28_Node000001_Node000019" class="edge">
<title>Node1&#45;&gt;Node19</title>
<g id="a_edge28_Node000001_Node000019"><a xlink:title=" ">
<path fill="none" stroke="#63b8ff" d="M284.63,-329.74C262.71,-303.65 197.59,-226.17 168.87,-192"/>
<polygon fill="#63b8ff" stroke="#63b8ff" points="171.52,-189.71 162.4,-184.31 166.16,-194.21 171.52,-189.71"/>
</a>
</g>
</g>
<!-- Node6 -->
<g id="Node000006" class="node">
<title>Node6</title>
<g id="a_Node000006"><a xlink:title=" ">
<polygon fill="#e0e0e0" stroke="#999999" points="624.5,-239 559.5,-239 559.5,-220 624.5,-220 624.5,-239"/>
<text text-anchor="middle" x="592" y="-227" font-family="Helvetica,sans-Serif" font-size="10.00">functional</text>
</a>
</g>
</g>
<!-- Node5&#45;&gt;Node6 -->
<g id="edge5_Node000005_Node000006" class="edge">
<title>Node5&#45;&gt;Node6</title>
<g id="a_edge5_Node000005_Node000006"><a xlink:title=" ">
<path fill="none" stroke="#63b8ff" d="M449.31,-274.98C477.85,-266.09 522.83,-252.07 554.64,-242.15"/>
<polygon fill="#63b8ff" stroke="#63b8ff" points="555.97,-245.4 564.47,-239.08 553.88,-238.72 555.97,-245.4"/>
</a>
</g>
</g>
<!-- Node7 -->
<g id="Node000007" class="node">
<title>Node7</title>
<g id="a_Node000007"><a xlink:title=" ">
<polygon fill="#e0e0e0" stroke="#999999" points="398.5,-239 333.5,-239 333.5,-220 398.5,-220 398.5,-239"/>
<text text-anchor="middle" x="366" y="-227" font-family="Helvetica,sans-Serif" font-size="10.00">stdexcept</text>
</a>
</g>
</g>
<!-- Node5&#45;&gt;Node7 -->
<g id="edge6_Node000005_Node000007" class="edge">
<title>Node5&#45;&gt;Node7</title>
<g id="a_edge6_Node000005_Node000007"><a xlink:title=" ">
<path fill="none" stroke="#63b8ff" d="M413,-274.98C404.81,-267.23 392.49,-255.58 382.53,-246.14"/>
<polygon fill="#63b8ff" stroke="#63b8ff" points="384.83,-243.5 375.16,-239.17 380.02,-248.59 384.83,-243.5"/>
</a>
</g>
</g>
<!-- Node8 -->
<g id="Node000008" class="node">
<title>Node8</title>
<g id="a_Node000008"><a xlink:title=" ">
<polygon fill="#e0e0e0" stroke="#999999" points="541,-239 417,-239 417,-220 541,-220 541,-239"/>
<text text-anchor="middle" x="479" y="-227" font-family="Helvetica,sans-Serif" font-size="10.00">eventpp/callbacklist.h</text>
</a>
</g>
</g>
<!-- Node5&#45;&gt;Node8 -->
<g id="edge7_Node000005_Node000008" class="edge">
<title>Node5&#45;&gt;Node8</title>
<g id="a_edge7_Node000005_Node000008"><a xlink:title=" ">
<path fill="none" stroke="#63b8ff" d="M431.16,-274.98C439.5,-267.23 452.03,-255.58 462.18,-246.14"/>
<polygon fill="#63b8ff" stroke="#63b8ff" points="464.74,-248.54 469.68,-239.17 459.97,-243.42 464.74,-248.54"/>
</a>
</g>
</g>
<!-- Node5&#45;&gt;Node9 -->
<g id="edge8_Node000005_Node000009" class="edge">
<title>Node5&#45;&gt;Node9</title>
<g id="a_edge8_Node000005_Node000009"><a xlink:title=" ">
<path fill="none" stroke="#63b8ff" d="M401.11,-274.98C379.92,-266.34 346.87,-252.87 322.7,-243.02"/>
<polygon fill="#63b8ff" stroke="#63b8ff" points="323.85,-239.7 313.27,-239.17 321.21,-246.19 323.85,-239.7"/>
</a>
</g>
</g>
<!-- Node5&#45;&gt;Node13 -->
<g id="edge26_Node000005_Node000013" class="edge">
<title>Node5&#45;&gt;Node13</title>
<g id="a_edge26_Node000005_Node000013"><a xlink:title=" ">
<path fill="none" stroke="#63b8ff" d="M466.01,-280.63C521.81,-275.96 613.26,-264.55 634,-239 671.8,-192.45 630.7,-116.35 608.85,-82.57"/>
<polygon fill="#63b8ff" stroke="#63b8ff" points="611.74,-80.6 603.28,-74.23 605.92,-84.49 611.74,-80.6"/>
</a>
</g>
</g>
<!-- Node9&#45;&gt;Node2 -->
<g id="edge9_Node000009_Node000002" class="edge">
<title>Node9&#45;&gt;Node2</title>
<g id="a_edge9_Node000009_Node000002"><a xlink:title=" ">
<path fill="none" stroke="#63b8ff" d="M291.26,-219.88C289.76,-206.86 285.38,-181.89 273,-165 260.14,-147.45 211.76,-119.1 192,-110 170.08,-99.91 108.99,-84.4 68.14,-74.61"/>
<polygon fill="#63b8ff" stroke="#63b8ff" points="68.77,-71.17 58.23,-72.26 67.15,-77.98 68.77,-71.17"/>
</a>
</g>
</g>
<!-- Node9&#45;&gt;Node4 -->
<g id="edge12_Node000009_Node000004" class="edge">
<title>Node9&#45;&gt;Node4</title>
<g id="a_edge12_Node000009_Node000004"><a xlink:title=" ">
<path fill="none" stroke="#63b8ff" d="M283.41,-219.75C275.84,-212.03 264.62,-200.6 255.49,-191.28"/>
<polygon fill="#63b8ff" stroke="#63b8ff" points="257.93,-188.78 248.43,-184.09 252.93,-193.68 257.93,-188.78"/>
</a>
</g>
</g>
<!-- Node10 -->
<g id="Node000010" class="node">
<title>Node10</title>
<g id="a_Node000010"><a xlink:title=" ">
<polygon fill="#e0e0e0" stroke="#999999" points="494,-74 450,-74 450,-55 494,-55 494,-74"/>
<text text-anchor="middle" x="472" y="-62" font-family="Helvetica,sans-Serif" font-size="10.00">string</text>
</a>
</g>
</g>
<!-- Node9&#45;&gt;Node10 -->
<g id="edge10_Node000009_Node000010" class="edge">
<title>Node9&#45;&gt;Node10</title>
<g id="a_edge10_Node000009_Node000010"><a xlink:title=" ">
<path fill="none" stroke="#63b8ff" d="M304.56,-219.74C316.76,-211.07 335.63,-197.22 351,-184 391.07,-149.52 434.54,-105.02 456.87,-81.58"/>
<polygon fill="#63b8ff" stroke="#63b8ff" points="459.51,-83.89 463.85,-74.22 454.43,-79.07 459.51,-83.89"/>
</a>
</g>
</g>
<!-- Node11 -->
<g id="Node000011" class="node">
<title>Node11</title>
<g id="a_Node000011"><a xlink:title=" ">
<polygon fill="#e0e0e0" stroke="#999999" points="431.5,-74 358.5,-74 358.5,-55 431.5,-55 431.5,-74"/>
<text text-anchor="middle" x="395" y="-62" font-family="Helvetica,sans-Serif" font-size="10.00">string_view</text>
</a>
</g>
</g>
<!-- Node9&#45;&gt;Node11 -->
<g id="edge11_Node000009_Node000011" class="edge">
<title>Node9&#45;&gt;Node11</title>
<g id="a_edge11_Node000009_Node000011"><a xlink:title=" ">
<path fill="none" stroke="#63b8ff" d="M299.71,-219.98C314.42,-203.4 346.89,-165.26 368,-129 376.48,-114.44 383.79,-96.72 388.66,-83.7"/>
<polygon fill="#63b8ff" stroke="#63b8ff" points="392.04,-84.63 392.14,-74.04 385.45,-82.26 392.04,-84.63"/>
</a>
</g>
</g>
<!-- Node12 -->
<g id="Node000012" class="node">
<title>Node12</title>
<g id="a_Node000012"><a xlink:href="field__base_8h.html" target="_top" xlink:title=" ">
<polygon fill="white" stroke="#666666" points="586.5,-184 465.5,-184 465.5,-165 586.5,-165 586.5,-184"/>
<text text-anchor="middle" x="526" y="-172" font-family="Helvetica,sans-Serif" font-size="10.00">common/field_base.h</text>
</a>
</g>
</g>
<!-- Node9&#45;&gt;Node12 -->
<g id="edge13_Node000009_Node000012" class="edge">
<title>Node9&#45;&gt;Node12</title>
<g id="a_edge13_Node000009_Node000012"><a xlink:title=" ">
<path fill="none" stroke="#63b8ff" d="M315.77,-222.27C318.87,-221.49 322.01,-220.72 325,-220 376.11,-207.76 434.82,-194.9 475.53,-186.17"/>
<polygon fill="#63b8ff" stroke="#63b8ff" points="476.44,-189.56 485.48,-184.04 474.97,-182.71 476.44,-189.56"/>
</a>
</g>
</g>
<!-- Node9&#45;&gt;Node13 -->
<g id="edge25_Node000009_Node000013" class="edge">
<title>Node9&#45;&gt;Node13</title>
<g id="a_edge25_Node000009_Node000013"><a xlink:title=" ">
<path fill="none" stroke="#63b8ff" d="M315.72,-222.03C318.83,-221.29 321.98,-220.59 325,-220 384.63,-208.4 555.78,-229.53 596,-184 620.31,-156.48 611.21,-109.72 603.47,-83.94"/>
<polygon fill="#63b8ff" stroke="#63b8ff" points="606.75,-82.72 600.33,-74.29 600.09,-84.88 606.75,-82.72"/>
</a>
</g>
</g>
<!-- Node12&#45;&gt;Node10 -->
<g id="edge14_Node000012_Node000010" class="edge">
<title>Node12&#45;&gt;Node10</title>
<g id="a_edge14_Node000012_Node000010"><a xlink:title=" ">
<path fill="none" stroke="#63b8ff" d="M521.58,-164.66C512.72,-146.93 492.61,-106.73 480.91,-83.32"/>
<polygon fill="#63b8ff" stroke="#63b8ff" points="483.93,-81.54 476.33,-74.16 477.67,-84.67 483.93,-81.54"/>
</a>
</g>
</g>
<!-- Node12&#45;&gt;Node13 -->
<g id="edge15_Node000012_Node000013" class="edge">
<title>Node12&#45;&gt;Node13</title>
<g id="a_edge15_Node000012_Node000013"><a xlink:title=" ">
<path fill="none" stroke="#63b8ff" d="M531.81,-164.66C543.57,-146.77 570.37,-106 585.7,-82.69"/>
<polygon fill="#63b8ff" stroke="#63b8ff" points="588.74,-84.44 591.31,-74.16 582.89,-80.59 588.74,-84.44"/>
</a>
</g>
</g>
<!-- Node15 -->
<g id="Node000015" class="node">
<title>Node15</title>
<g id="a_Node000015"><a xlink:href="encoding_8h.html" target="_top" xlink:title=" ">
<polygon fill="white" stroke="#666666" points="358.5,-129 239.5,-129 239.5,-110 358.5,-110 358.5,-129"/>
<text text-anchor="middle" x="299" y="-117" font-family="Helvetica,sans-Serif" font-size="10.00">webcface/encoding.h</text>
</a>
</g>
</g>
<!-- Node12&#45;&gt;Node15 -->
<g id="edge17_Node000012_Node000015" class="edge">
<title>Node12&#45;&gt;Node15</title>
<g id="a_edge17_Node000012_Node000015"><a xlink:title=" ">
<path fill="none" stroke="#63b8ff" d="M489.53,-164.98C450.43,-155.86 388.23,-141.33 345.61,-131.38"/>
<polygon fill="#63b8ff" stroke="#63b8ff" points="346.29,-127.95 335.76,-129.08 344.7,-134.76 346.29,-127.95"/>
</a>
</g>
</g>
<!-- Node14 -->
<g id="Node000014" class="node">
<title>Node14</title>
<g id="a_Node000014"><a xlink:href="macros_8h.html" target="_top" xlink:title=" ">
<polygon fill="white" stroke="#666666" points="675.5,-19 518.5,-19 518.5,0 675.5,0 675.5,-19"/>
<text text-anchor="middle" x="597" y="-7" font-family="Helvetica,sans-Serif" font-size="10.00">webcface/common/macros.h</text>
</a>
</g>
</g>
<!-- Node13&#45;&gt;Node14 -->
<g id="edge16_Node000013_Node000014" class="edge">
<title>Node13&#45;&gt;Node14</title>
<g id="a_edge16_Node000013_Node000014"><a xlink:title=" ">
<path fill="none" stroke="#63b8ff" d="M597,-54.75C597,-47.8 597,-37.85 597,-29.13"/>
<polygon fill="#63b8ff" stroke="#63b8ff" points="600.5,-29.09 597,-19.09 593.5,-29.09 600.5,-29.09"/>
</a>
</g>
</g>
<!-- Node15&#45;&gt;Node2 -->
<g id="edge20_Node000015_Node000002" class="edge">
<title>Node15&#45;&gt;Node2</title>
<g id="a_edge20_Node000015_Node000002"><a xlink:title=" ">
<path fill="none" stroke="#63b8ff" d="M252.26,-109.97C207.45,-101.69 137.67,-88.55 67.87,-74.13"/>
<polygon fill="#63b8ff" stroke="#63b8ff" points="68.53,-70.69 58.03,-72.09 67.11,-77.55 68.53,-70.69"/>
</a>
</g>
</g>
<!-- Node15&#45;&gt;Node10 -->
<g id="edge18_Node000015_Node000010" class="edge">
<title>Node15&#45;&gt;Node10</title>
<g id="a_edge18_Node000015_Node000010"><a xlink:title=" ">
<path fill="none" stroke="#63b8ff" d="M326.8,-109.98C357.65,-100.53 407.37,-85.3 439.87,-75.34"/>
<polygon fill="#63b8ff" stroke="#63b8ff" points="441.24,-78.59 449.77,-72.31 439.19,-71.89 441.24,-78.59"/>
</a>
</g>
</g>
<!-- Node15&#45;&gt;Node11 -->
<g id="edge19_Node000015_Node000011" class="edge">
<title>Node15&#45;&gt;Node11</title>
<g id="a_edge19_Node000015_Node000011"><a xlink:title=" ">
<path fill="none" stroke="#63b8ff" d="M314.42,-109.98C329.45,-101.69 352.54,-88.94 370.16,-79.22"/>
<polygon fill="#63b8ff" stroke="#63b8ff" points="372.23,-82.07 379.3,-74.17 368.85,-75.94 372.23,-82.07"/>
</a>
</g>
</g>
<!-- Node15&#45;&gt;Node13 -->
<g id="edge24_Node000015_Node000013" class="edge">
<title>Node15&#45;&gt;Node13</title>
<g id="a_edge24_Node000015_Node000013"><a xlink:title=" ">
<path fill="none" stroke="#63b8ff" d="M346.88,-109.98C399.08,-100.7 482.62,-85.84 538.62,-75.88"/>
<polygon fill="#63b8ff" stroke="#63b8ff" points="539.51,-79.28 548.75,-74.08 538.29,-72.39 539.51,-79.28"/>
</a>
</g>
</g>
<!-- Node16 -->
<g id="Node000016" class="node">
<title>Node16</title>
<g id="a_Node000016"><a xlink:title=" ">
<polygon fill="#e0e0e0" stroke="#999999" points="124,-74 76,-74 76,-55 124,-55 124,-74"/>
<text text-anchor="middle" x="100" y="-62" font-family="Helvetica,sans-Serif" font-size="10.00">mutex</text>
</a>
</g>
</g>
<!-- Node15&#45;&gt;Node16 -->
<g id="edge21_Node000015_Node000016" class="edge">
<title>Node15&#45;&gt;Node16</title>
<g id="a_edge21_Node000015_Node000016"><a xlink:title=" ">
<path fill="none" stroke="#63b8ff" d="M267.03,-109.98C230.57,-100.28 171.22,-84.47 133.96,-74.54"/>
<polygon fill="#63b8ff" stroke="#63b8ff" points="134.63,-71.1 124.07,-71.91 132.83,-77.87 134.63,-71.1"/>
</a>
</g>
</g>
<!-- Node17 -->
<g id="Node000017" class="node">
<title>Node17</title>
<g id="a_Node000017"><a xlink:title=" ">
<polygon fill="#e0e0e0" stroke="#999999" points="235.5,-74 142.5,-74 142.5,-55 235.5,-55 235.5,-74"/>
<text text-anchor="middle" x="189" y="-62" font-family="Helvetica,sans-Serif" font-size="10.00">unordered_map</text>
</a>
</g>
</g>
<!-- Node15&#45;&gt;Node17 -->
<g id="edge22_Node000015_Node000017" class="edge">
<title>Node15&#45;&gt;Node17</title>
<g id="a_edge22_Node000015_Node000017"><a xlink:title=" ">
<path fill="none" stroke="#63b8ff" d="M281.33,-109.98C263.71,-101.5 236.42,-88.35 216.07,-78.54"/>
<polygon fill="#63b8ff" stroke="#63b8ff" points="217.52,-75.36 206.99,-74.17 214.48,-81.66 217.52,-75.36"/>
</a>
</g>
</g>
<!-- Node18 -->
<g id="Node000018" class="node">
<title>Node18</title>
<g id="a_Node000018"><a xlink:title=" ">
<polygon fill="#e0e0e0" stroke="#999999" points="340,-74 254,-74 254,-55 340,-55 340,-74"/>
<text text-anchor="middle" x="297" y="-62" font-family="Helvetica,sans-Serif" font-size="10.00">unordered_set</text>
</a>
</g>
</g>
<!-- Node15&#45;&gt;Node18 -->
<g id="edge23_Node000015_Node000018" class="edge">
<title>Node15&#45;&gt;Node18</title>
<g id="a_edge23_Node000015_Node000018"><a xlink:title=" ">
<path fill="none" stroke="#63b8ff" d="M298.67,-109.75C298.41,-102.8 298.03,-92.85 297.7,-84.13"/>
<polygon fill="#63b8ff" stroke="#63b8ff" points="301.2,-83.95 297.32,-74.09 294.2,-84.21 301.2,-83.95"/>
</a>
</g>
</g>
<!-- Node19&#45;&gt;Node10 -->
<g id="edge29_Node000019_Node000010" class="edge">
<title>Node19&#45;&gt;Node10</title>
<g id="a_edge29_Node000019_Node000010"><a xlink:title=" ">
<path fill="none" stroke="#63b8ff" d="M198.07,-166.29C251.03,-157.12 337.62,-141.03 368,-129 399.55,-116.5 432.4,-94.73 452.53,-80.22"/>
<polygon fill="#63b8ff" stroke="#63b8ff" points="454.85,-82.86 460.84,-74.12 450.7,-77.22 454.85,-82.86"/>
</a>
</g>
</g>
<!-- Node19&#45;&gt;Node13 -->
<g id="edge32_Node000019_Node000013" class="edge">
<title>Node19&#45;&gt;Node13</title>
<g id="a_edge32_Node000019_Node000013"><a xlink:title=" ">
<path fill="none" stroke="#63b8ff" d="M198.23,-166.36C257.93,-156.37 362.52,-138.4 400,-129 458.71,-114.27 525.45,-91.43 564.24,-77.53"/>
<polygon fill="#63b8ff" stroke="#63b8ff" points="565.72,-80.72 573.94,-74.03 563.34,-74.14 565.72,-80.72"/>
</a>
</g>
</g>
<!-- Node19&#45;&gt;Node15 -->
<g id="edge33_Node000019_Node000015" class="edge">
<title>Node19&#45;&gt;Node15</title>
<g id="a_edge33_Node000019_Node000015"><a xlink:title=" ">
<path fill="none" stroke="#63b8ff" d="M178.14,-164.98C201.82,-156.27 238.87,-142.63 265.71,-132.75"/>
<polygon fill="#63b8ff" stroke="#63b8ff" points="267.27,-135.91 275.44,-129.17 264.85,-129.34 267.27,-135.91"/>
</a>
</g>
</g>
<!-- Node20 -->
<g id="Node000020" class="node">
<title>Node20</title>
<g id="a_Node000020"><a xlink:title=" ">
<polygon fill="#e0e0e0" stroke="#999999" points="105,-129 55,-129 55,-110 105,-110 105,-129"/>
<text text-anchor="middle" x="80" y="-117" font-family="Helvetica,sans-Serif" font-size="10.00">chrono</text>
</a>
</g>
</g>
<!-- Node19&#45;&gt;Node20 -->
<g id="edge30_Node000019_Node000020" class="edge">
<title>Node19&#45;&gt;Node20</title>
<g id="a_edge30_Node000019_Node000020"><a xlink:title=" ">
<path fill="none" stroke="#63b8ff" d="M142.95,-164.98C131.54,-156.92 114.17,-144.65 100.57,-135.03"/>
<polygon fill="#63b8ff" stroke="#63b8ff" points="102.46,-132.08 92.27,-129.17 98.42,-137.8 102.46,-132.08"/>
</a>
</g>
</g>
<!-- Node21 -->
<g id="Node000021" class="node">
<title>Node21</title>
<g id="a_Node000021"><a xlink:title=" ">
<polygon fill="#e0e0e0" stroke="#999999" points="183,-129 123,-129 123,-110 183,-110 183,-129"/>
<text text-anchor="middle" x="153" y="-117" font-family="Helvetica,sans-Serif" font-size="10.00">concepts</text>
</a>
</g>
</g>
<!-- Node19&#45;&gt;Node21 -->
<g id="edge31_Node000019_Node000021" class="edge">
<title>Node19&#45;&gt;Node21</title>
<g id="a_edge31_Node000019_Node000021"><a xlink:title=" ">
<path fill="none" stroke="#63b8ff" d="M154.67,-164.75C154.41,-157.8 154.03,-147.85 153.7,-139.13"/>
<polygon fill="#63b8ff" stroke="#63b8ff" points="157.2,-138.95 153.32,-129.09 150.2,-139.21 157.2,-138.95"/>
</a>
</g>
</g>
</g>
</svg>
