<?xml version="1.0" encoding="UTF-8" standalone="no"?>
<!DOCTYPE svg PUBLIC "-//W3C//DTD SVG 1.1//EN"
 "http://www.w3.org/Graphics/SVG/1.1/DTD/svg11.dtd">
<!-- Generated by graphviz version 2.43.0 (0)
 -->
<!-- Title: /home/runner/work/webcface/webcface/client/include/webcface/log.h Pages: 1 -->
<svg width="5328pt" height="357pt"
 viewBox="0.00 0.00 5328.47 357.00" xmlns="http://www.w3.org/2000/svg" xmlns:xlink="http://www.w3.org/1999/xlink">
<g id="graph0" class="graph" transform="scale(1 1) rotate(0) translate(4 353)">
<title>/home/runner/work/webcface/webcface/client/include/webcface/log.h</title>
<!-- Node1 -->
<g id="Node000001" class="node">
<title>Node1</title>
<g id="a_Node000001"><a xlink:title=" ">
<polygon fill="#999999" stroke="#666666" points="3196.97,-349 3038.97,-349 3038.97,-308 3196.97,-308 3196.97,-349"/>
<text text-anchor="start" x="3046.97" y="-337" font-family="Helvetica,sans-Serif" font-size="10.00">/home/runner/work/webcface</text>
<text text-anchor="start" x="3046.97" y="-326" font-family="Helvetica,sans-Serif" font-size="10.00">/webcface/client/include</text>
<text text-anchor="middle" x="3117.97" y="-315" font-family="Helvetica,sans-Serif" font-size="10.00">/webcface/log.h</text>
</a>
</g>
</g>
<!-- Node2 -->
<g id="Node000002" class="node">
<title>Node2</title>
<g id="a_Node000002"><a xlink:href="client__internal_8h.html" target="_top" xlink:title=" ">
<polygon fill="white" stroke="#666666" points="2913.97,-195 2755.97,-195 2755.97,-143 2913.97,-143 2913.97,-195"/>
<text text-anchor="start" x="2763.97" y="-183" font-family="Helvetica,sans-Serif" font-size="10.00">/home/runner/work/webcface</text>
<text text-anchor="start" x="2763.97" y="-172" font-family="Helvetica,sans-Serif" font-size="10.00">/webcface/client/include</text>
<text text-anchor="start" x="2763.97" y="-161" font-family="Helvetica,sans-Serif" font-size="10.00">/webcface/internal/client</text>
<text text-anchor="middle" x="2834.97" y="-150" font-family="Helvetica,sans-Serif" font-size="10.00">_internal.h</text>
</a>
</g>
</g>
<!-- Node1&#45;&gt;Node2 -->
<g id="edge1_Node000001_Node000002" class="edge">
<title>Node1&#45;&gt;Node2</title>
<g id="a_edge1_Node000001_Node000002"><a xlink:title=" ">
<path fill="none" stroke="#63b8ff" d="M3029.02,-318.7C2988.33,-311.24 2941.23,-297.46 2904.97,-272 2877.37,-252.62 2857.3,-218.65 2845.9,-195.27"/>
<polygon fill="#63b8ff" stroke="#63b8ff" points="3028.5,-322.16 3038.95,-320.42 3029.69,-315.26 3028.5,-322.16"/>
</a>
</g>
</g>
<!-- Node4 -->
<g id="Node000004" class="node">
<title>Node4</title>
<g id="a_Node000004"><a xlink:href="client_8cc.html" target="_top" xlink:title=" ">
<polygon fill="white" stroke="#666666" points="2278.97,-30 2120.97,-30 2120.97,0 2278.97,0 2278.97,-30"/>
<text text-anchor="start" x="2128.97" y="-18" font-family="Helvetica,sans-Serif" font-size="10.00">/home/runner/work/webcface</text>
<text text-anchor="middle" x="2199.97" y="-7" font-family="Helvetica,sans-Serif" font-size="10.00">/webcface/client/src/client.cc</text>
</a>
</g>
</g>
<!-- Node1&#45;&gt;Node4 -->
<g id="edge43_Node000001_Node000004" class="edge">
<title>Node1&#45;&gt;Node4</title>
<g id="a_edge43_Node000001_Node000004"><a xlink:title=" ">
<path fill="none" stroke="#63b8ff" d="M3028.23,-326.8C2741.61,-324.19 1822.48,-312.97 1062.97,-272 826.02,-259.22 107.81,-322.27 7.97,-107 0.3,-90.47 -4.77,-79.03 7.97,-66 45.63,-27.46 1732.57,-17.98 2120.85,-16.3"/>
<polygon fill="#63b8ff" stroke="#63b8ff" points="3028.53,-330.3 3038.56,-326.89 3028.6,-323.3 3028.53,-330.3"/>
</a>
</g>
</g>
<!-- Node14 -->
<g id="Node000014" class="node">
<title>Node14</title>
<g id="a_Node000014"><a xlink:href="client_2src_2log_8cc.html" target="_top" xlink:title=" ">
<polygon fill="white" stroke="#666666" points="188.97,-101.5 30.97,-101.5 30.97,-71.5 188.97,-71.5 188.97,-101.5"/>
<text text-anchor="start" x="38.97" y="-89.5" font-family="Helvetica,sans-Serif" font-size="10.00">/home/runner/work/webcface</text>
<text text-anchor="middle" x="109.97" y="-78.5" font-family="Helvetica,sans-Serif" font-size="10.00">/webcface/client/src/log.cc</text>
</a>
</g>
</g>
<!-- Node1&#45;&gt;Node14 -->
<g id="edge44_Node000001_Node000014" class="edge">
<title>Node1&#45;&gt;Node14</title>
<g id="a_edge44_Node000001_Node000014"><a xlink:title=" ">
<path fill="none" stroke="#63b8ff" d="M3028.6,-322.48C2601.47,-298.22 765.44,-190.86 197.97,-107 188.22,-105.56 177.93,-103.65 167.97,-101.58"/>
<polygon fill="#63b8ff" stroke="#63b8ff" points="3028.54,-325.98 3038.73,-323.05 3028.94,-318.99 3028.54,-325.98"/>
</a>
</g>
</g>
<!-- Node15 -->
<g id="Node000015" class="node">
<title>Node15</title>
<g id="a_Node000015"><a xlink:href="member_8cc.html" target="_top" xlink:title=" ">
<polygon fill="white" stroke="#666666" points="558.97,-101.5 388.97,-101.5 388.97,-71.5 558.97,-71.5 558.97,-101.5"/>
<text text-anchor="start" x="396.97" y="-89.5" font-family="Helvetica,sans-Serif" font-size="10.00">/home/runner/work/webcface</text>
<text text-anchor="middle" x="473.97" y="-78.5" font-family="Helvetica,sans-Serif" font-size="10.00">/webcface/client/src/member.cc</text>
</a>
</g>
</g>
<!-- Node1&#45;&gt;Node15 -->
<g id="edge45_Node000001_Node000015" class="edge">
<title>Node1&#45;&gt;Node15</title>
<g id="a_edge45_Node000001_Node000015"><a xlink:title=" ">
<path fill="none" stroke="#63b8ff" d="M3028.73,-311.9C2813.54,-275.03 2248.68,-182.62 1772.97,-143 1239.02,-98.53 1100.09,-169.65 567.97,-107 556.8,-105.68 544.98,-103.71 533.64,-101.51"/>
<polygon fill="#63b8ff" stroke="#63b8ff" points="3028.26,-315.37 3038.71,-313.62 3029.44,-308.48 3028.26,-315.37"/>
</a>
</g>
</g>
<!-- Node20 -->
<g id="Node000020" class="node">
<title>Node20</title>
<g id="a_Node000020"><a xlink:href="c__wcf__test_8cc.html" target="_top" xlink:title=" ">
<polygon fill="white" stroke="#666666" points="4771.47,-101.5 4610.47,-101.5 4610.47,-71.5 4771.47,-71.5 4771.47,-101.5"/>
<text text-anchor="start" x="4618.47" y="-89.5" font-family="Helvetica,sans-Serif" font-size="10.00">/home/runner/work/webcface</text>
<text text-anchor="middle" x="4690.97" y="-78.5" font-family="Helvetica,sans-Serif" font-size="10.00">/webcface/tests/c_wcf_test.cc</text>
</a>
</g>
</g>
<!-- Node1&#45;&gt;Node20 -->
<g id="edge48_Node000001_Node000020" class="edge">
<title>Node1&#45;&gt;Node20</title>
<g id="a_edge48_Node000001_Node000020"><a xlink:title=" ">
<path fill="none" stroke="#63b8ff" d="M3111.51,-297.92C3104.39,-256.42 3099.03,-181.68 3141.97,-143 3201.35,-89.52 4500.45,-114.94 4579.97,-107 4593.11,-105.69 4607.04,-103.71 4620.43,-101.51"/>
<polygon fill="#63b8ff" stroke="#63b8ff" points="3108.1,-298.76 3113.38,-307.95 3114.99,-297.48 3108.1,-298.76"/>
</a>
</g>
</g>
<!-- Node24 -->
<g id="Node000024" class="node">
<title>Node24</title>
<g id="a_Node000024"><a xlink:href="client__test_8cc.html" target="_top" xlink:title=" ">
<polygon fill="white" stroke="#666666" points="4950.47,-101.5 4789.47,-101.5 4789.47,-71.5 4950.47,-71.5 4950.47,-101.5"/>
<text text-anchor="start" x="4797.47" y="-89.5" font-family="Helvetica,sans-Serif" font-size="10.00">/home/runner/work/webcface</text>
<text text-anchor="middle" x="4869.97" y="-78.5" font-family="Helvetica,sans-Serif" font-size="10.00">/webcface/tests/client_test.cc</text>
</a>
</g>
</g>
<!-- Node1&#45;&gt;Node24 -->
<g id="edge49_Node000001_Node000024" class="edge">
<title>Node1&#45;&gt;Node24</title>
<g id="a_edge49_Node000001_Node000024"><a xlink:title=" ">
<path fill="none" stroke="#63b8ff" d="M3123.67,-297.79C3133.41,-250.52 3154.67,-161.62 3179.97,-143 3251.62,-90.26 4692.63,-117.57 4780.97,-107 4791.65,-105.72 4802.93,-103.75 4813.75,-101.54"/>
<polygon fill="#63b8ff" stroke="#63b8ff" points="3120.21,-297.26 3121.66,-307.75 3127.07,-298.64 3120.21,-297.26"/>
</a>
</g>
</g>
<!-- Node25 -->
<g id="Node000025" class="node">
<title>Node25</title>
<g id="a_Node000025"><a xlink:href="data__test_8cc.html" target="_top" xlink:title=" ">
<polygon fill="white" stroke="#666666" points="5126.97,-101.5 4968.97,-101.5 4968.97,-71.5 5126.97,-71.5 5126.97,-101.5"/>
<text text-anchor="start" x="4976.97" y="-89.5" font-family="Helvetica,sans-Serif" font-size="10.00">/home/runner/work/webcface</text>
<text text-anchor="middle" x="5047.97" y="-78.5" font-family="Helvetica,sans-Serif" font-size="10.00">/webcface/tests/data_test.cc</text>
</a>
</g>
</g>
<!-- Node1&#45;&gt;Node25 -->
<g id="edge50_Node000001_Node000025" class="edge">
<title>Node1&#45;&gt;Node25</title>
<g id="a_edge50_Node000001_Node000025"><a xlink:title=" ">
<path fill="none" stroke="#63b8ff" d="M3133.53,-298.74C3161.57,-246.9 3217.74,-143.14 3217.97,-143 3300.62,-92.62 4863.86,-118.53 4959.97,-107 4970.53,-105.73 4981.7,-103.76 4992.39,-101.55"/>
<polygon fill="#63b8ff" stroke="#63b8ff" points="3130.32,-297.31 3128.64,-307.77 3136.48,-300.64 3130.32,-297.31"/>
</a>
</g>
</g>
<!-- Node30 -->
<g id="Node000030" class="node">
<title>Node30</title>
<g id="a_Node000030"><a xlink:href="member__test_8cc.html" target="_top" xlink:title=" ">
<polygon fill="white" stroke="#666666" points="5320.47,-101.5 5145.47,-101.5 5145.47,-71.5 5320.47,-71.5 5320.47,-101.5"/>
<text text-anchor="start" x="5153.47" y="-89.5" font-family="Helvetica,sans-Serif" font-size="10.00">/home/runner/work/webcface</text>
<text text-anchor="middle" x="5232.97" y="-78.5" font-family="Helvetica,sans-Serif" font-size="10.00">/webcface/tests/member_test.cc</text>
</a>
</g>
</g>
<!-- Node1&#45;&gt;Node30 -->
<g id="edge51_Node000001_Node000030" class="edge">
<title>Node1&#45;&gt;Node30</title>
<g id="a_edge51_Node000001_Node000030"><a xlink:title=" ">
<path fill="none" stroke="#63b8ff" d="M3144.78,-300.89C3169.88,-277.84 3209.63,-245.93 3250.97,-231 3645.79,-88.36 4719.83,-162.27 5135.97,-107 5146.87,-105.55 5158.38,-103.61 5169.51,-101.51"/>
<polygon fill="#63b8ff" stroke="#63b8ff" points="3142.38,-298.34 3137.47,-307.72 3147.16,-303.45 3142.38,-298.34"/>
</a>
</g>
</g>
<!-- Node34 -->
<g id="Node000034" class="node">
<title>Node34</title>
<g id="a_Node000034"><a xlink:href="data__store1_8h.html" target="_top" xlink:title=" ">
<polygon fill="white" stroke="#666666" points="3089.97,-272 2913.97,-272 2913.97,-231 3089.97,-231 3089.97,-272"/>
<text text-anchor="start" x="2921.97" y="-260" font-family="Helvetica,sans-Serif" font-size="10.00">/home/runner/work/webcface</text>
<text text-anchor="start" x="2921.97" y="-249" font-family="Helvetica,sans-Serif" font-size="10.00">/webcface/client/include</text>
<text text-anchor="middle" x="3001.97" y="-238" font-family="Helvetica,sans-Serif" font-size="10.00">/webcface/internal/data_store1.h</text>
</a>
</g>
</g>
<!-- Node1&#45;&gt;Node34 -->
<g id="edge35_Node000001_Node000034" class="edge">
<title>Node1&#45;&gt;Node34</title>
<g id="a_edge35_Node000001_Node000034"><a xlink:title=" ">
<path fill="none" stroke="#63b8ff" d="M3079.1,-302.37C3063.88,-292.53 3046.68,-281.41 3032.4,-272.17"/>
<polygon fill="#63b8ff" stroke="#63b8ff" points="3077.5,-305.5 3087.79,-307.99 3081.3,-299.62 3077.5,-305.5"/>
</a>
</g>
</g>
<!-- Node36 -->
<g id="Node000036" class="node">
<title>Node36</title>
<g id="a_Node000036"><a xlink:href="internal_2logger_8h.html" target="_top" xlink:title=" ">
<polygon fill="white" stroke="#666666" points="278.97,-189.5 120.97,-189.5 120.97,-148.5 278.97,-148.5 278.97,-189.5"/>
<text text-anchor="start" x="128.97" y="-177.5" font-family="Helvetica,sans-Serif" font-size="10.00">/home/runner/work/webcface</text>
<text text-anchor="start" x="128.97" y="-166.5" font-family="Helvetica,sans-Serif" font-size="10.00">/webcface/client/include</text>
<text text-anchor="middle" x="199.97" y="-155.5" font-family="Helvetica,sans-Serif" font-size="10.00">/webcface/internal/logger.h</text>
</a>
</g>
</g>
<!-- Node1&#45;&gt;Node36 -->
<g id="edge38_Node000001_Node000036" class="edge">
<title>Node1&#45;&gt;Node36</title>
<g id="a_edge38_Node000001_Node000036"><a xlink:title=" ">
<path fill="none" stroke="#63b8ff" d="M3028.46,-324.67C2809.41,-317.58 2228.92,-297.75 1744.97,-272 1182.94,-242.09 506.77,-192.88 279.12,-175.94"/>
<polygon fill="#63b8ff" stroke="#63b8ff" points="3028.51,-328.18 3038.61,-325 3028.73,-321.18 3028.51,-328.18"/>
</a>
</g>
</g>
<!-- Node37 -->
<g id="Node000037" class="node">
<title>Node37</title>
<g id="a_Node000037"><a xlink:href="webcface_8h.html" target="_top" xlink:title=" ">
<polygon fill="white" stroke="#666666" points="3417.97,-272 3259.97,-272 3259.97,-231 3417.97,-231 3417.97,-272"/>
<text text-anchor="start" x="3267.97" y="-260" font-family="Helvetica,sans-Serif" font-size="10.00">/home/runner/work/webcface</text>
<text text-anchor="start" x="3267.97" y="-249" font-family="Helvetica,sans-Serif" font-size="10.00">/webcface/client/include</text>
<text text-anchor="middle" x="3338.97" y="-238" font-family="Helvetica,sans-Serif" font-size="10.00">/webcface/webcface.h</text>
</a>
</g>
</g>
<!-- Node1&#45;&gt;Node37 -->
<g id="edge42_Node000001_Node000037" class="edge">
<title>Node1&#45;&gt;Node37</title>
<g id="a_edge42_Node000001_Node000037"><a xlink:title=" ">
<path fill="none" stroke="#63b8ff" d="M3185.23,-304.67C3215.94,-294.25 3251.94,-282.03 3281.38,-272.04"/>
<polygon fill="#63b8ff" stroke="#63b8ff" points="3183.8,-301.46 3175.46,-307.99 3186.05,-308.09 3183.8,-301.46"/>
</a>
</g>
</g>
<!-- Node38 -->
<g id="Node000038" class="node">
<title>Node38</title>
<g id="a_Node000038"><a xlink:href="examples_2log_8cc.html" target="_top" xlink:title=" ">
<polygon fill="white" stroke="#666666" points="3593.97,-266.5 3435.97,-266.5 3435.97,-236.5 3593.97,-236.5 3593.97,-266.5"/>
<text text-anchor="start" x="3443.97" y="-254.5" font-family="Helvetica,sans-Serif" font-size="10.00">/home/runner/work/webcface</text>
<text text-anchor="middle" x="3514.97" y="-243.5" font-family="Helvetica,sans-Serif" font-size="10.00">/webcface/examples/log.cc</text>
</a>
</g>
</g>
<!-- Node1&#45;&gt;Node38 -->
<g id="edge46_Node000001_Node000038" class="edge">
<title>Node1&#45;&gt;Node38</title>
<g id="a_edge46_Node000001_Node000038"><a xlink:title=" ">
<path fill="none" stroke="#63b8ff" d="M3207.31,-312.44C3269.11,-301.77 3353.19,-286.79 3426.97,-272 3435.41,-270.31 3444.28,-268.44 3453.02,-266.56"/>
<polygon fill="#63b8ff" stroke="#63b8ff" points="3206.46,-309.03 3197.2,-314.18 3207.65,-315.93 3206.46,-309.03"/>
</a>
</g>
</g>
<!-- Node39 -->
<g id="Node000039" class="node">
<title>Node39</title>
<g id="a_Node000039"><a xlink:href="recv_8cc.html" target="_top" xlink:title=" ">
<polygon fill="white" stroke="#666666" points="3769.97,-266.5 3611.97,-266.5 3611.97,-236.5 3769.97,-236.5 3769.97,-266.5"/>
<text text-anchor="start" x="3619.97" y="-254.5" font-family="Helvetica,sans-Serif" font-size="10.00">/home/runner/work/webcface</text>
<text text-anchor="middle" x="3690.97" y="-243.5" font-family="Helvetica,sans-Serif" font-size="10.00">/webcface/examples/recv.cc</text>
</a>
</g>
</g>
<!-- Node1&#45;&gt;Node39 -->
<g id="edge47_Node000001_Node000039" class="edge">
<title>Node1&#45;&gt;Node39</title>
<g id="a_edge47_Node000001_Node000039"><a xlink:title=" ">
<path fill="none" stroke="#63b8ff" d="M3207.41,-320.08C3305.03,-311.32 3465.73,-294.99 3602.97,-272 3612.23,-270.45 3621.98,-268.55 3631.49,-266.56"/>
<polygon fill="#63b8ff" stroke="#63b8ff" points="3206.94,-316.61 3197.29,-320.98 3207.56,-323.58 3206.94,-316.61"/>
</a>
</g>
</g>
<!-- Node3 -->
<g id="Node000003" class="node">
<title>Node3</title>
<g id="a_Node000003"><a xlink:href="client__ws_8h.html" target="_top" xlink:title=" ">
<polygon fill="white" stroke="#666666" points="4553.97,-107 4389.97,-107 4389.97,-66 4553.97,-66 4553.97,-107"/>
<text text-anchor="start" x="4397.97" y="-95" font-family="Helvetica,sans-Serif" font-size="10.00">/home/runner/work/webcface</text>
<text text-anchor="start" x="4397.97" y="-84" font-family="Helvetica,sans-Serif" font-size="10.00">/webcface/client/include</text>
<text text-anchor="middle" x="4471.97" y="-73" font-family="Helvetica,sans-Serif" font-size="10.00">/webcface/internal/client_ws.h</text>
</a>
</g>
</g>
<!-- Node2&#45;&gt;Node3 -->
<g id="edge2_Node000002_Node000003" class="edge">
<title>Node2&#45;&gt;Node3</title>
<g id="a_edge2_Node000002_Node000003"><a xlink:title=" ">
<path fill="none" stroke="#63b8ff" d="M2924.63,-142.96C3258.91,-95.47 4058.32,-142.91 4375.97,-107 4380.53,-106.48 4385.2,-105.86 4389.9,-105.16"/>
<polygon fill="#63b8ff" stroke="#63b8ff" points="2923.78,-139.55 2914.4,-144.47 2924.8,-146.47 2923.78,-139.55"/>
</a>
</g>
</g>
<!-- Node2&#45;&gt;Node4 -->
<g id="edge7_Node000002_Node000004" class="edge">
<title>Node2&#45;&gt;Node4</title>
<g id="a_edge7_Node000002_Node000004"><a xlink:title=" ">
<path fill="none" stroke="#63b8ff" d="M2924.59,-143.44C3072.89,-132.89 4289.44,-161.9 4342.97,-107 4355.69,-93.95 4355.7,-79.03 4342.97,-66 4306.21,-28.38 2662.38,-18.21 2279.21,-16.35"/>
<polygon fill="#63b8ff" stroke="#63b8ff" points="2923.99,-139.98 2914.4,-144.47 2924.7,-146.95 2923.99,-139.98"/>
</a>
</g>
</g>
<!-- Node5 -->
<g id="Node000005" class="node">
<title>Node5</title>
<g id="a_Node000005"><a xlink:href="client__ws_8cc.html" target="_top" xlink:title=" ">
<polygon fill="white" stroke="#666666" points="4614.97,-30 4438.97,-30 4438.97,0 4614.97,0 4614.97,-30"/>
<text text-anchor="start" x="4446.97" y="-18" font-family="Helvetica,sans-Serif" font-size="10.00">/home/runner/work/webcface</text>
<text text-anchor="middle" x="4526.97" y="-7" font-family="Helvetica,sans-Serif" font-size="10.00">/webcface/client/src/client_ws.cc</text>
</a>
</g>
</g>
<!-- Node2&#45;&gt;Node5 -->
<g id="edge8_Node000002_Node000005" class="edge">
<title>Node2&#45;&gt;Node5</title>
<g id="a_edge8_Node000002_Node000005"><a xlink:title=" ">
<path fill="none" stroke="#63b8ff" d="M2924.62,-143.67C3070.14,-136.4 4532.16,-138.49 4562.97,-107 4584.12,-85.38 4558.45,-49.83 4540.85,-30.18"/>
<polygon fill="#63b8ff" stroke="#63b8ff" points="2924.1,-140.2 2914.39,-144.46 2924.63,-147.18 2924.1,-140.2"/>
</a>
</g>
</g>
<!-- Node6 -->
<g id="Node000006" class="node">
<title>Node6</title>
<g id="a_Node000006"><a xlink:href="client_2src_2canvas2d_8cc.html" target="_top" xlink:title=" ">
<polygon fill="white" stroke="#666666" points="752.97,-101.5 576.97,-101.5 576.97,-71.5 752.97,-71.5 752.97,-101.5"/>
<text text-anchor="start" x="584.97" y="-89.5" font-family="Helvetica,sans-Serif" font-size="10.00">/home/runner/work/webcface</text>
<text text-anchor="middle" x="664.97" y="-78.5" font-family="Helvetica,sans-Serif" font-size="10.00">/webcface/client/src/canvas2d.cc</text>
</a>
</g>
</g>
<!-- Node2&#45;&gt;Node6 -->
<g id="edge5_Node000002_Node000006" class="edge">
<title>Node2&#45;&gt;Node6</title>
<g id="a_edge5_Node000002_Node000006"><a xlink:title=" ">
<path fill="none" stroke="#63b8ff" d="M2745.44,-161.9C2657.91,-156.15 2520.84,-147.73 2401.97,-143 2037.73,-128.49 1124.29,-147.08 761.97,-107 750.36,-105.72 738.07,-103.74 726.29,-101.53"/>
<polygon fill="#63b8ff" stroke="#63b8ff" points="2745.39,-165.4 2755.6,-162.56 2745.85,-158.41 2745.39,-165.4"/>
</a>
</g>
</g>
<!-- Node7 -->
<g id="Node000007" class="node">
<title>Node7</title>
<g id="a_Node000007"><a xlink:href="client_2src_2canvas3d_8cc.html" target="_top" xlink:title=" ">
<polygon fill="white" stroke="#666666" points="946.97,-101.5 770.97,-101.5 770.97,-71.5 946.97,-71.5 946.97,-101.5"/>
<text text-anchor="start" x="778.97" y="-89.5" font-family="Helvetica,sans-Serif" font-size="10.00">/home/runner/work/webcface</text>
<text text-anchor="middle" x="858.97" y="-78.5" font-family="Helvetica,sans-Serif" font-size="10.00">/webcface/client/src/canvas3d.cc</text>
</a>
</g>
</g>
<!-- Node2&#45;&gt;Node7 -->
<g id="edge6_Node000002_Node000007" class="edge">
<title>Node2&#45;&gt;Node7</title>
<g id="a_edge6_Node000002_Node000007"><a xlink:title=" ">
<path fill="none" stroke="#63b8ff" d="M2745.44,-161.97C2657.91,-156.28 2520.84,-147.91 2401.97,-143 1759.65,-116.47 1594.83,-178.62 955.97,-107 944.45,-105.71 932.26,-103.74 920.55,-101.55"/>
<polygon fill="#63b8ff" stroke="#63b8ff" points="2745.39,-165.48 2755.6,-162.64 2745.85,-158.49 2745.39,-165.48"/>
</a>
</g>
</g>
<!-- Node8 -->
<g id="Node000008" class="node">
<title>Node8</title>
<g id="a_Node000008"><a xlink:href="component__canvas2d_8cc.html" target="_top" xlink:title=" ">
<polygon fill="white" stroke="#666666" points="1136.47,-107 965.47,-107 965.47,-66 1136.47,-66 1136.47,-107"/>
<text text-anchor="start" x="973.47" y="-95" font-family="Helvetica,sans-Serif" font-size="10.00">/home/runner/work/webcface</text>
<text text-anchor="start" x="973.47" y="-84" font-family="Helvetica,sans-Serif" font-size="10.00">/webcface/client/src/component</text>
<text text-anchor="middle" x="1050.97" y="-73" font-family="Helvetica,sans-Serif" font-size="10.00">_canvas2d.cc</text>
</a>
</g>
</g>
<!-- Node2&#45;&gt;Node8 -->
<g id="edge9_Node000002_Node000008" class="edge">
<title>Node2&#45;&gt;Node8</title>
<g id="a_edge9_Node000002_Node000008"><a xlink:title=" ">
<path fill="none" stroke="#63b8ff" d="M2745.43,-162.07C2657.9,-156.45 2520.83,-148.13 2401.97,-143 1843.59,-118.89 1700.07,-172.01 1144.97,-107 1142.24,-106.68 1139.47,-106.32 1136.68,-105.93"/>
<polygon fill="#63b8ff" stroke="#63b8ff" points="2745.39,-165.57 2755.59,-162.72 2745.84,-158.59 2745.39,-165.57"/>
</a>
</g>
</g>
<!-- Node9 -->
<g id="Node000009" class="node">
<title>Node9</title>
<g id="a_Node000009"><a xlink:href="component__view_8cc.html" target="_top" xlink:title=" ">
<polygon fill="white" stroke="#666666" points="1325.47,-107 1154.47,-107 1154.47,-66 1325.47,-66 1325.47,-107"/>
<text text-anchor="start" x="1162.47" y="-95" font-family="Helvetica,sans-Serif" font-size="10.00">/home/runner/work/webcface</text>
<text text-anchor="start" x="1162.47" y="-84" font-family="Helvetica,sans-Serif" font-size="10.00">/webcface/client/src/component</text>
<text text-anchor="middle" x="1239.97" y="-73" font-family="Helvetica,sans-Serif" font-size="10.00">_view.cc</text>
</a>
</g>
</g>
<!-- Node2&#45;&gt;Node9 -->
<g id="edge10_Node000002_Node000009" class="edge">
<title>Node2&#45;&gt;Node9</title>
<g id="a_edge10_Node000002_Node000009"><a xlink:title=" ">
<path fill="none" stroke="#63b8ff" d="M2745.43,-162.2C2657.89,-156.68 2520.81,-148.43 2401.97,-143 1927.97,-121.32 1806.16,-162.9 1334.97,-107 1331.88,-106.63 1328.73,-106.22 1325.57,-105.76"/>
<polygon fill="#63b8ff" stroke="#63b8ff" points="2745.39,-165.71 2755.59,-162.85 2745.83,-158.72 2745.39,-165.71"/>
</a>
</g>
</g>
<!-- Node10 -->
<g id="Node000010" class="node">
<title>Node10</title>
<g id="a_Node000010"><a xlink:href="field_8cc.html" target="_top" xlink:title=" ">
<polygon fill="white" stroke="#666666" points="1501.97,-101.5 1343.97,-101.5 1343.97,-71.5 1501.97,-71.5 1501.97,-101.5"/>
<text text-anchor="start" x="1351.97" y="-89.5" font-family="Helvetica,sans-Serif" font-size="10.00">/home/runner/work/webcface</text>
<text text-anchor="middle" x="1422.97" y="-78.5" font-family="Helvetica,sans-Serif" font-size="10.00">/webcface/client/src/field.cc</text>
</a>
</g>
</g>
<!-- Node2&#45;&gt;Node10 -->
<g id="edge11_Node000002_Node000010" class="edge">
<title>Node2&#45;&gt;Node10</title>
<g id="a_edge11_Node000002_Node000010"><a xlink:title=" ">
<path fill="none" stroke="#63b8ff" d="M2745.42,-162.38C2657.88,-156.99 2520.79,-148.83 2401.97,-143 2006.12,-123.58 1903.99,-158.07 1510.97,-107 1500.73,-105.67 1489.92,-103.73 1479.51,-101.58"/>
<polygon fill="#63b8ff" stroke="#63b8ff" points="2745.39,-165.88 2755.58,-163 2745.82,-158.89 2745.39,-165.88"/>
</a>
</g>
</g>
<!-- Node11 -->
<g id="Node000011" class="node">
<title>Node11</title>
<g id="a_Node000011"><a xlink:href="client_2src_2func_8cc.html" target="_top" xlink:title=" ">
<polygon fill="white" stroke="#666666" points="1677.97,-101.5 1519.97,-101.5 1519.97,-71.5 1677.97,-71.5 1677.97,-101.5"/>
<text text-anchor="start" x="1527.97" y="-89.5" font-family="Helvetica,sans-Serif" font-size="10.00">/home/runner/work/webcface</text>
<text text-anchor="middle" x="1598.97" y="-78.5" font-family="Helvetica,sans-Serif" font-size="10.00">/webcface/client/src/func.cc</text>
</a>
</g>
</g>
<!-- Node2&#45;&gt;Node11 -->
<g id="edge12_Node000002_Node000011" class="edge">
<title>Node2&#45;&gt;Node11</title>
<g id="a_edge12_Node000002_Node000011"><a xlink:title=" ">
<path fill="none" stroke="#63b8ff" d="M2745.81,-162.66C2658.27,-157.46 2520.94,-149.43 2401.97,-143 2084.25,-125.83 2002.29,-149.57 1686.97,-107 1676.89,-105.64 1666.25,-103.71 1656,-101.59"/>
<polygon fill="#63b8ff" stroke="#63b8ff" points="2745.78,-166.16 2755.97,-163.26 2746.19,-159.18 2745.78,-166.16"/>
</a>
</g>
</g>
<!-- Node12 -->
<g id="Node000012" class="node">
<title>Node12</title>
<g id="a_Node000012"><a xlink:href="func__listener_8cc.html" target="_top" xlink:title=" ">
<polygon fill="white" stroke="#666666" points="1853.97,-107 1695.97,-107 1695.97,-66 1853.97,-66 1853.97,-107"/>
<text text-anchor="start" x="1703.97" y="-95" font-family="Helvetica,sans-Serif" font-size="10.00">/home/runner/work/webcface</text>
<text text-anchor="start" x="1703.97" y="-84" font-family="Helvetica,sans-Serif" font-size="10.00">/webcface/client/src/func</text>
<text text-anchor="middle" x="1774.97" y="-73" font-family="Helvetica,sans-Serif" font-size="10.00">_listener.cc</text>
</a>
</g>
</g>
<!-- Node2&#45;&gt;Node12 -->
<g id="edge13_Node000002_Node000012" class="edge">
<title>Node2&#45;&gt;Node12</title>
<g id="a_edge13_Node000002_Node000012"><a xlink:title=" ">
<path fill="none" stroke="#63b8ff" d="M2745.86,-162.78C2513.9,-149.16 1906.25,-113.12 1862.97,-107 1860.02,-106.58 1857.03,-106.12 1854.02,-105.62"/>
<polygon fill="#63b8ff" stroke="#63b8ff" points="2745.77,-166.28 2755.95,-163.38 2746.18,-159.3 2745.77,-166.28"/>
</a>
</g>
</g>
<!-- Node13 -->
<g id="Node000013" class="node">
<title>Node13</title>
<g id="a_Node000013"><a xlink:href="image_8cc.html" target="_top" xlink:title=" ">
<polygon fill="white" stroke="#666666" points="2033.47,-101.5 1872.47,-101.5 1872.47,-71.5 2033.47,-71.5 2033.47,-101.5"/>
<text text-anchor="start" x="1880.47" y="-89.5" font-family="Helvetica,sans-Serif" font-size="10.00">/home/runner/work/webcface</text>
<text text-anchor="middle" x="1952.97" y="-78.5" font-family="Helvetica,sans-Serif" font-size="10.00">/webcface/client/src/image.cc</text>
</a>
</g>
</g>
<!-- Node2&#45;&gt;Node13 -->
<g id="edge14_Node000002_Node000013" class="edge">
<title>Node2&#45;&gt;Node13</title>
<g id="a_edge14_Node000002_Node000013"><a xlink:title=" ">
<path fill="none" stroke="#63b8ff" d="M2745.74,-162.67C2568.22,-151.81 2176.41,-126.5 2042.97,-107 2033,-105.54 2022.49,-103.62 2012.31,-101.55"/>
<polygon fill="#63b8ff" stroke="#63b8ff" points="2745.63,-166.17 2755.83,-163.28 2746.06,-159.18 2745.63,-166.17"/>
</a>
</g>
</g>
<!-- Node2&#45;&gt;Node14 -->
<g id="edge15_Node000002_Node000014" class="edge">
<title>Node2&#45;&gt;Node14</title>
<g id="a_edge15_Node000002_Node000014"><a xlink:title=" ">
<path fill="none" stroke="#63b8ff" d="M2745.61,-165.88C2562.93,-161.54 2133.52,-151.36 1772.97,-143 1422.97,-134.88 545.52,-149.07 197.97,-107 187.4,-105.72 176.24,-103.75 165.55,-101.53"/>
<polygon fill="#63b8ff" stroke="#63b8ff" points="2745.62,-169.38 2755.7,-166.12 2745.79,-162.38 2745.62,-169.38"/>
</a>
</g>
</g>
<!-- Node2&#45;&gt;Node15 -->
<g id="edge16_Node000002_Node000015" class="edge">
<title>Node2&#45;&gt;Node15</title>
<g id="a_edge16_Node000002_Node000015"><a xlink:title=" ">
<path fill="none" stroke="#63b8ff" d="M2745.44,-161.83C2657.92,-156.04 2520.85,-147.6 2401.97,-143 1994.64,-127.25 973.04,-152.59 567.97,-107 556.62,-105.72 544.62,-103.73 533.12,-101.5"/>
<polygon fill="#63b8ff" stroke="#63b8ff" points="2745.39,-165.34 2755.6,-162.51 2745.86,-158.35 2745.39,-165.34"/>
</a>
</g>
</g>
<!-- Node16 -->
<g id="Node000016" class="node">
<title>Node16</title>
<g id="a_Node000016"><a xlink:href="robot__model_8cc.html" target="_top" xlink:title=" ">
<polygon fill="white" stroke="#666666" points="2209.97,-107 2051.97,-107 2051.97,-66 2209.97,-66 2209.97,-107"/>
<text text-anchor="start" x="2059.97" y="-95" font-family="Helvetica,sans-Serif" font-size="10.00">/home/runner/work/webcface</text>
<text text-anchor="start" x="2059.97" y="-84" font-family="Helvetica,sans-Serif" font-size="10.00">/webcface/client/src/robot</text>
<text text-anchor="middle" x="2130.97" y="-73" font-family="Helvetica,sans-Serif" font-size="10.00">_model.cc</text>
</a>
</g>
</g>
<!-- Node2&#45;&gt;Node16 -->
<g id="edge17_Node000002_Node000016" class="edge">
<title>Node2&#45;&gt;Node16</title>
<g id="a_edge17_Node000002_Node000016"><a xlink:title=" ">
<path fill="none" stroke="#63b8ff" d="M2745.56,-162.51C2625.32,-154.35 2405.09,-136.73 2218.97,-107 2216.03,-106.53 2213.05,-106.02 2210.04,-105.49"/>
<polygon fill="#63b8ff" stroke="#63b8ff" points="2745.61,-166.02 2755.82,-163.2 2746.07,-159.03 2745.61,-166.02"/>
</a>
</g>
</g>
<!-- Node17 -->
<g id="Node000017" class="node">
<title>Node17</title>
<g id="a_Node000017"><a xlink:href="text_8cc.html" target="_top" xlink:title=" ">
<polygon fill="white" stroke="#666666" points="2385.97,-101.5 2227.97,-101.5 2227.97,-71.5 2385.97,-71.5 2385.97,-101.5"/>
<text text-anchor="start" x="2235.97" y="-89.5" font-family="Helvetica,sans-Serif" font-size="10.00">/home/runner/work/webcface</text>
<text text-anchor="middle" x="2306.97" y="-78.5" font-family="Helvetica,sans-Serif" font-size="10.00">/webcface/client/src/text.cc</text>
</a>
</g>
</g>
<!-- Node2&#45;&gt;Node17 -->
<g id="edge18_Node000002_Node000017" class="edge">
<title>Node2&#45;&gt;Node17</title>
<g id="a_edge18_Node000002_Node000017"><a xlink:title=" ">
<path fill="none" stroke="#63b8ff" d="M2745.51,-157.73C2656.37,-147 2515.74,-128.72 2394.97,-107 2386.04,-105.39 2376.63,-103.51 2367.43,-101.57"/>
<polygon fill="#63b8ff" stroke="#63b8ff" points="2745.23,-161.23 2755.58,-158.94 2746.07,-154.28 2745.23,-161.23"/>
</a>
</g>
</g>
<!-- Node18 -->
<g id="Node000018" class="node">
<title>Node18</title>
<g id="a_Node000018"><a xlink:href="client_2src_2value_8cc.html" target="_top" xlink:title=" ">
<polygon fill="white" stroke="#666666" points="2561.97,-101.5 2403.97,-101.5 2403.97,-71.5 2561.97,-71.5 2561.97,-101.5"/>
<text text-anchor="start" x="2411.97" y="-89.5" font-family="Helvetica,sans-Serif" font-size="10.00">/home/runner/work/webcface</text>
<text text-anchor="middle" x="2482.97" y="-78.5" font-family="Helvetica,sans-Serif" font-size="10.00">/webcface/client/src/value.cc</text>
</a>
</g>
</g>
<!-- Node2&#45;&gt;Node18 -->
<g id="edge19_Node000002_Node000018" class="edge">
<title>Node2&#45;&gt;Node18</title>
<g id="a_edge19_Node000002_Node000018"><a xlink:title=" ">
<path fill="none" stroke="#63b8ff" d="M2745.6,-147.56C2682.64,-133.16 2599.96,-114.25 2544.33,-101.53"/>
<polygon fill="#63b8ff" stroke="#63b8ff" points="2745.01,-151.02 2755.53,-149.83 2746.57,-144.19 2745.01,-151.02"/>
</a>
</g>
</g>
<!-- Node19 -->
<g id="Node000019" class="node">
<title>Node19</title>
<g id="a_Node000019"><a xlink:href="client_2src_2view_8cc.html" target="_top" xlink:title=" ">
<polygon fill="white" stroke="#666666" points="2737.97,-101.5 2579.97,-101.5 2579.97,-71.5 2737.97,-71.5 2737.97,-101.5"/>
<text text-anchor="start" x="2587.97" y="-89.5" font-family="Helvetica,sans-Serif" font-size="10.00">/home/runner/work/webcface</text>
<text text-anchor="middle" x="2658.97" y="-78.5" font-family="Helvetica,sans-Serif" font-size="10.00">/webcface/client/src/view.cc</text>
</a>
</g>
</g>
<!-- Node2&#45;&gt;Node19 -->
<g id="edge20_Node000002_Node000019" class="edge">
<title>Node2&#45;&gt;Node19</title>
<g id="a_edge20_Node000002_Node000019"><a xlink:title=" ">
<path fill="none" stroke="#63b8ff" d="M2771.01,-138.75C2743.33,-126.09 2712.22,-111.86 2689.82,-101.61"/>
<polygon fill="#63b8ff" stroke="#63b8ff" points="2769.7,-141.99 2780.25,-142.97 2772.61,-135.63 2769.7,-141.99"/>
</a>
</g>
</g>
<!-- Node2&#45;&gt;Node20 -->
<g id="edge21_Node000002_Node000020" class="edge">
<title>Node2&#45;&gt;Node20</title>
<g id="a_edge21_Node000002_Node000020"><a xlink:title=" ">
<path fill="none" stroke="#63b8ff" d="M2924.45,-142.99C3307.11,-88.8 4229.68,-148.19 4595.97,-107 4607.35,-105.72 4619.38,-103.74 4630.92,-101.53"/>
<polygon fill="#63b8ff" stroke="#63b8ff" points="2923.78,-139.55 2914.39,-144.45 2924.79,-146.47 2923.78,-139.55"/>
</a>
</g>
</g>
<!-- Node21 -->
<g id="Node000021" class="node">
<title>Node21</title>
<g id="a_Node000021"><a xlink:href="canvas2d__test_8cc.html" target="_top" xlink:title=" ">
<polygon fill="white" stroke="#666666" points="2913.97,-107 2755.97,-107 2755.97,-66 2913.97,-66 2913.97,-107"/>
<text text-anchor="start" x="2763.97" y="-95" font-family="Helvetica,sans-Serif" font-size="10.00">/home/runner/work/webcface</text>
<text text-anchor="start" x="2763.97" y="-84" font-family="Helvetica,sans-Serif" font-size="10.00">/webcface/tests/canvas2d</text>
<text text-anchor="middle" x="2834.97" y="-73" font-family="Helvetica,sans-Serif" font-size="10.00">_test.cc</text>
</a>
</g>
</g>
<!-- Node2&#45;&gt;Node21 -->
<g id="edge22_Node000002_Node000021" class="edge">
<title>Node2&#45;&gt;Node21</title>
<g id="a_edge22_Node000002_Node000021"><a xlink:title=" ">
<path fill="none" stroke="#63b8ff" d="M2834.97,-132.87C2834.97,-124.05 2834.97,-114.9 2834.97,-107.15"/>
<polygon fill="#63b8ff" stroke="#63b8ff" points="2831.47,-132.97 2834.97,-142.97 2838.47,-132.97 2831.47,-132.97"/>
</a>
</g>
</g>
<!-- Node22 -->
<g id="Node000022" class="node">
<title>Node22</title>
<g id="a_Node000022"><a xlink:href="canvas3d__test_8cc.html" target="_top" xlink:title=" ">
<polygon fill="white" stroke="#666666" points="3089.97,-107 2931.97,-107 2931.97,-66 3089.97,-66 3089.97,-107"/>
<text text-anchor="start" x="2939.97" y="-95" font-family="Helvetica,sans-Serif" font-size="10.00">/home/runner/work/webcface</text>
<text text-anchor="start" x="2939.97" y="-84" font-family="Helvetica,sans-Serif" font-size="10.00">/webcface/tests/canvas3d</text>
<text text-anchor="middle" x="3010.97" y="-73" font-family="Helvetica,sans-Serif" font-size="10.00">_test.cc</text>
</a>
</g>
</g>
<!-- Node2&#45;&gt;Node22 -->
<g id="edge23_Node000002_Node000022" class="edge">
<title>Node2&#45;&gt;Node22</title>
<g id="a_edge23_Node000002_Node000022"><a xlink:title=" ">
<path fill="none" stroke="#63b8ff" d="M2899.06,-138.68C2922.11,-128.14 2947.52,-116.52 2968.3,-107.02"/>
<polygon fill="#63b8ff" stroke="#63b8ff" points="2897.33,-135.63 2889.69,-142.97 2900.24,-141.99 2897.33,-135.63"/>
</a>
</g>
</g>
<!-- Node23 -->
<g id="Node000023" class="node">
<title>Node23</title>
<g id="a_Node000023"><a xlink:href="client__data__test_8cc.html" target="_top" xlink:title=" ">
<polygon fill="white" stroke="#666666" points="3265.97,-107 3107.97,-107 3107.97,-66 3265.97,-66 3265.97,-107"/>
<text text-anchor="start" x="3115.97" y="-95" font-family="Helvetica,sans-Serif" font-size="10.00">/home/runner/work/webcface</text>
<text text-anchor="start" x="3115.97" y="-84" font-family="Helvetica,sans-Serif" font-size="10.00">/webcface/tests/client_data</text>
<text text-anchor="middle" x="3186.97" y="-73" font-family="Helvetica,sans-Serif" font-size="10.00">_test.cc</text>
</a>
</g>
</g>
<!-- Node2&#45;&gt;Node23 -->
<g id="edge24_Node000002_Node000023" class="edge">
<title>Node2&#45;&gt;Node23</title>
<g id="a_edge24_Node000002_Node000023"><a xlink:title=" ">
<path fill="none" stroke="#63b8ff" d="M2923.89,-142.85C3002.21,-124.02 3023.93,-122.99 3098.97,-107 3101.88,-106.38 3104.84,-105.75 3107.83,-105.1"/>
<polygon fill="#63b8ff" stroke="#63b8ff" points="2922.94,-139.47 2914.05,-145.23 2924.59,-146.28 2922.94,-139.47"/>
</a>
</g>
</g>
<!-- Node2&#45;&gt;Node24 -->
<g id="edge25_Node000002_Node000024" class="edge">
<title>Node2&#45;&gt;Node24</title>
<g id="a_edge25_Node000002_Node000024"><a xlink:title=" ">
<path fill="none" stroke="#63b8ff" d="M2924.59,-142.97C3348.12,-83.24 4374.16,-155.04 4780.97,-107 4791.65,-105.74 4802.94,-103.77 4813.75,-101.56"/>
<polygon fill="#63b8ff" stroke="#63b8ff" points="2923.79,-139.55 2914.39,-144.45 2924.79,-146.47 2923.79,-139.55"/>
</a>
</g>
</g>
<!-- Node2&#45;&gt;Node25 -->
<g id="edge26_Node000002_Node000025" class="edge">
<title>Node2&#45;&gt;Node25</title>
<g id="a_edge26_Node000002_Node000025"><a xlink:title=" ">
<path fill="none" stroke="#63b8ff" d="M2924.53,-142.97C3387.46,-77.8 4513.67,-159.85 4959.97,-107 4970.54,-105.75 4981.7,-103.79 4992.39,-101.58"/>
<polygon fill="#63b8ff" stroke="#63b8ff" points="2923.79,-139.54 2914.39,-144.44 2924.79,-146.47 2923.79,-139.54"/>
</a>
</g>
</g>
<!-- Node26 -->
<g id="Node000026" class="node">
<title>Node26</title>
<g id="a_Node000026"><a xlink:href="func__listener__test_8cc.html" target="_top" xlink:title=" ">
<polygon fill="white" stroke="#666666" points="3442.47,-107 3283.47,-107 3283.47,-66 3442.47,-66 3442.47,-107"/>
<text text-anchor="start" x="3291.47" y="-95" font-family="Helvetica,sans-Serif" font-size="10.00">/home/runner/work/webcface</text>
<text text-anchor="start" x="3291.47" y="-84" font-family="Helvetica,sans-Serif" font-size="10.00">/webcface/tests/func_listener</text>
<text text-anchor="middle" x="3362.97" y="-73" font-family="Helvetica,sans-Serif" font-size="10.00">_test.cc</text>
</a>
</g>
</g>
<!-- Node2&#45;&gt;Node26 -->
<g id="edge27_Node000002_Node000026" class="edge">
<title>Node2&#45;&gt;Node26</title>
<g id="a_edge27_Node000002_Node000026"><a xlink:title=" ">
<path fill="none" stroke="#63b8ff" d="M2924.32,-142.88C3079.2,-114.15 3122.9,-131.54 3274.97,-107 3277.75,-106.55 3280.57,-106.07 3283.42,-105.56"/>
<polygon fill="#63b8ff" stroke="#63b8ff" points="2923.62,-139.45 2914.44,-144.75 2924.92,-146.33 2923.62,-139.45"/>
</a>
</g>
</g>
<!-- Node27 -->
<g id="Node000027" class="node">
<title>Node27</title>
<g id="a_Node000027"><a xlink:href="func__test_8cc.html" target="_top" xlink:title=" ">
<polygon fill="white" stroke="#666666" points="3617.97,-101.5 3459.97,-101.5 3459.97,-71.5 3617.97,-71.5 3617.97,-101.5"/>
<text text-anchor="start" x="3467.97" y="-89.5" font-family="Helvetica,sans-Serif" font-size="10.00">/home/runner/work/webcface</text>
<text text-anchor="middle" x="3538.97" y="-78.5" font-family="Helvetica,sans-Serif" font-size="10.00">/webcface/tests/func_test.cc</text>
</a>
</g>
</g>
<!-- Node2&#45;&gt;Node27 -->
<g id="edge28_Node000002_Node000027" class="edge">
<title>Node2&#45;&gt;Node27</title>
<g id="a_edge28_Node000002_Node000027"><a xlink:title=" ">
<path fill="none" stroke="#63b8ff" d="M2924.54,-142.89C3156.97,-103.65 3222.06,-140.39 3451.97,-107 3461.77,-105.58 3472.11,-103.65 3482.11,-101.55"/>
<polygon fill="#63b8ff" stroke="#63b8ff" points="2923.68,-139.48 2914.42,-144.62 2924.87,-146.38 2923.68,-139.48"/>
</a>
</g>
</g>
<!-- Node28 -->
<g id="Node000028" class="node">
<title>Node28</title>
<g id="a_Node000028"><a xlink:href="image__test_8cc.html" target="_top" xlink:title=" ">
<polygon fill="white" stroke="#666666" points="3799.97,-101.5 3635.97,-101.5 3635.97,-71.5 3799.97,-71.5 3799.97,-101.5"/>
<text text-anchor="start" x="3643.97" y="-89.5" font-family="Helvetica,sans-Serif" font-size="10.00">/home/runner/work/webcface</text>
<text text-anchor="middle" x="3717.97" y="-78.5" font-family="Helvetica,sans-Serif" font-size="10.00">/webcface/tests/image_test.cc</text>
</a>
</g>
</g>
<!-- Node2&#45;&gt;Node28 -->
<g id="edge29_Node000002_Node000028" class="edge">
<title>Node2&#45;&gt;Node28</title>
<g id="a_edge29_Node000002_Node000028"><a xlink:title=" ">
<path fill="none" stroke="#63b8ff" d="M2924.57,-142.9C3233.9,-93.06 3319.7,-147.51 3626.97,-107 3637.38,-105.63 3648.37,-103.69 3658.98,-101.57"/>
<polygon fill="#63b8ff" stroke="#63b8ff" points="2923.72,-139.5 2914.41,-144.56 2924.84,-146.4 2923.72,-139.5"/>
</a>
</g>
</g>
<!-- Node29 -->
<g id="Node000029" class="node">
<title>Node29</title>
<g id="a_Node000029"><a xlink:href="logger__test_8cc.html" target="_top" xlink:title=" ">
<polygon fill="white" stroke="#666666" points="370.97,-101.5 206.97,-101.5 206.97,-71.5 370.97,-71.5 370.97,-101.5"/>
<text text-anchor="start" x="214.97" y="-89.5" font-family="Helvetica,sans-Serif" font-size="10.00">/home/runner/work/webcface</text>
<text text-anchor="middle" x="288.97" y="-78.5" font-family="Helvetica,sans-Serif" font-size="10.00">/webcface/tests/logger_test.cc</text>
</a>
</g>
</g>
<!-- Node2&#45;&gt;Node29 -->
<g id="edge30_Node000002_Node000029" class="edge">
<title>Node2&#45;&gt;Node29</title>
<g id="a_edge30_Node000002_Node000029"><a xlink:title=" ">
<path fill="none" stroke="#63b8ff" d="M2745.68,-165.89C2308.12,-155.56 409.93,-110.55 379.97,-107 369.06,-105.71 357.52,-103.72 346.47,-101.51"/>
<polygon fill="#63b8ff" stroke="#63b8ff" points="2745.67,-169.39 2755.75,-166.13 2745.83,-162.4 2745.67,-169.39"/>
</a>
</g>
</g>
<!-- Node2&#45;&gt;Node30 -->
<g id="edge31_Node000002_Node000030" class="edge">
<title>Node2&#45;&gt;Node30</title>
<g id="a_edge31_Node000002_Node000030"><a xlink:title=" ">
<path fill="none" stroke="#63b8ff" d="M2924.65,-142.96C3426.42,-72.39 4650.3,-159.33 5135.97,-107 5147.67,-105.74 5160.05,-103.76 5171.91,-101.53"/>
<polygon fill="#63b8ff" stroke="#63b8ff" points="2923.79,-139.54 2914.39,-144.44 2924.79,-146.47 2923.79,-139.54"/>
</a>
</g>
</g>
<!-- Node31 -->
<g id="Node000031" class="node">
<title>Node31</title>
<g id="a_Node000031"><a xlink:href="robot__model__test_8cc.html" target="_top" xlink:title=" ">
<polygon fill="white" stroke="#666666" points="3975.97,-107 3817.97,-107 3817.97,-66 3975.97,-66 3975.97,-107"/>
<text text-anchor="start" x="3825.97" y="-95" font-family="Helvetica,sans-Serif" font-size="10.00">/home/runner/work/webcface</text>
<text text-anchor="start" x="3825.97" y="-84" font-family="Helvetica,sans-Serif" font-size="10.00">/webcface/tests/robot_model</text>
<text text-anchor="middle" x="3896.97" y="-73" font-family="Helvetica,sans-Serif" font-size="10.00">_test.cc</text>
</a>
</g>
</g>
<!-- Node2&#45;&gt;Node31 -->
<g id="edge32_Node000002_Node000031" class="edge">
<title>Node2&#45;&gt;Node31</title>
<g id="a_edge32_Node000002_Node000031"><a xlink:title=" ">
<path fill="none" stroke="#63b8ff" d="M2924.54,-142.92C3313.95,-82.03 3421.5,-157.4 3808.97,-107 3811.92,-106.62 3814.91,-106.18 3817.93,-105.71"/>
<polygon fill="#63b8ff" stroke="#63b8ff" points="2923.73,-139.5 2914.4,-144.52 2924.83,-146.42 2923.73,-139.5"/>
</a>
</g>
</g>
<!-- Node32 -->
<g id="Node000032" class="node">
<title>Node32</title>
<g id="a_Node000032"><a xlink:href="server__test_8cc.html" target="_top" xlink:title=" ">
<polygon fill="white" stroke="#666666" points="4157.97,-101.5 3993.97,-101.5 3993.97,-71.5 4157.97,-71.5 4157.97,-101.5"/>
<text text-anchor="start" x="4001.97" y="-89.5" font-family="Helvetica,sans-Serif" font-size="10.00">/home/runner/work/webcface</text>
<text text-anchor="middle" x="4075.97" y="-78.5" font-family="Helvetica,sans-Serif" font-size="10.00">/webcface/tests/server_test.cc</text>
</a>
</g>
</g>
<!-- Node2&#45;&gt;Node32 -->
<g id="edge33_Node000002_Node000032" class="edge">
<title>Node2&#45;&gt;Node32</title>
<g id="a_edge33_Node000002_Node000032"><a xlink:title=" ">
<path fill="none" stroke="#63b8ff" d="M2924.44,-142.94C3391.36,-71.27 3519.55,-164.3 3984.97,-107 3995.71,-105.68 4007.07,-103.71 4017.97,-101.53"/>
<polygon fill="#63b8ff" stroke="#63b8ff" points="2923.75,-139.51 2914.4,-144.5 2924.82,-146.42 2923.75,-139.51"/>
</a>
</g>
</g>
<!-- Node33 -->
<g id="Node000033" class="node">
<title>Node33</title>
<g id="a_Node000033"><a xlink:href="view__test_8cc.html" target="_top" xlink:title=" ">
<polygon fill="white" stroke="#666666" points="4333.97,-101.5 4175.97,-101.5 4175.97,-71.5 4333.97,-71.5 4333.97,-101.5"/>
<text text-anchor="start" x="4183.97" y="-89.5" font-family="Helvetica,sans-Serif" font-size="10.00">/home/runner/work/webcface</text>
<text text-anchor="middle" x="4254.97" y="-78.5" font-family="Helvetica,sans-Serif" font-size="10.00">/webcface/tests/view_test.cc</text>
</a>
</g>
</g>
<!-- Node2&#45;&gt;Node33 -->
<g id="edge34_Node000002_Node000033" class="edge">
<title>Node2&#45;&gt;Node33</title>
<g id="a_edge34_Node000002_Node000033"><a xlink:title=" ">
<path fill="none" stroke="#63b8ff" d="M2924.52,-142.94C3471.47,-60.19 3621.41,-174.72 4166.97,-107 4177.37,-105.71 4188.36,-103.76 4198.91,-101.58"/>
<polygon fill="#63b8ff" stroke="#63b8ff" points="2923.75,-139.51 2914.4,-144.48 2924.81,-146.43 2923.75,-139.51"/>
</a>
</g>
</g>
<!-- Node3&#45;&gt;Node4 -->
<g id="edge3_Node000003_Node000004" class="edge">
<title>Node3&#45;&gt;Node4</title>
<g id="a_edge3_Node000003_Node000004"><a xlink:title=" ">
<path fill="none" stroke="#63b8ff" d="M4379.84,-66.46C4378.54,-66.3 4377.25,-66.14 4375.97,-66 3957.61,-19.08 2619.12,-15.96 2279.1,-15.94"/>
<polygon fill="#63b8ff" stroke="#63b8ff" points="4379.52,-69.95 4389.9,-67.83 4380.47,-63.01 4379.52,-69.95"/>
</a>
</g>
</g>
<!-- Node3&#45;&gt;Node5 -->
<g id="edge4_Node000003_Node000005" class="edge">
<title>Node3&#45;&gt;Node5</title>
<g id="a_edge4_Node000003_Node000005"><a xlink:title=" ">
<path fill="none" stroke="#63b8ff" d="M4493.98,-57.69C4501.49,-48.19 4509.57,-37.98 4515.86,-30.04"/>
<polygon fill="#63b8ff" stroke="#63b8ff" points="4491.04,-55.76 4487.58,-65.77 4496.53,-60.1 4491.04,-55.76"/>
</a>
</g>
</g>
<!-- Node34&#45;&gt;Node2 -->
<g id="edge36_Node000034_Node000002" class="edge">
<title>Node34&#45;&gt;Node2</title>
<g id="a_edge36_Node000034_Node000002"><a xlink:title=" ">
<path fill="none" stroke="#63b8ff" d="M2951.96,-226.39C2931.48,-216.52 2907.78,-205.1 2887.1,-195.13"/>
<polygon fill="#63b8ff" stroke="#63b8ff" points="2950.59,-229.62 2961.12,-230.81 2953.63,-223.31 2950.59,-229.62"/>
</a>
</g>
</g>
<!-- Node35 -->
<g id="Node000035" class="node">
<title>Node35</title>
<g id="a_Node000035"><a xlink:href="data__store1_8cc.html" target="_top" xlink:title=" ">
<polygon fill="white" stroke="#666666" points="3089.97,-189.5 2931.97,-189.5 2931.97,-148.5 3089.97,-148.5 3089.97,-189.5"/>
<text text-anchor="start" x="2939.97" y="-177.5" font-family="Helvetica,sans-Serif" font-size="10.00">/home/runner/work/webcface</text>
<text text-anchor="start" x="2939.97" y="-166.5" font-family="Helvetica,sans-Serif" font-size="10.00">/webcface/client/src/data</text>
<text text-anchor="middle" x="3010.97" y="-155.5" font-family="Helvetica,sans-Serif" font-size="10.00">_store1.cc</text>
</a>
</g>
</g>
<!-- Node34&#45;&gt;Node35 -->
<g id="edge37_Node000034_Node000035" class="edge">
<title>Node34&#45;&gt;Node35</title>
<g id="a_edge37_Node000034_Node000035"><a xlink:title=" ">
<path fill="none" stroke="#63b8ff" d="M3005.34,-220.37C3006.49,-210.1 3007.74,-198.9 3008.77,-189.67"/>
<polygon fill="#63b8ff" stroke="#63b8ff" points="3001.83,-220.27 3004.19,-230.6 3008.78,-221.05 3001.83,-220.27"/>
</a>
</g>
</g>
<!-- Node36&#45;&gt;Node4 -->
<g id="edge39_Node000036_Node000004" class="edge">
<title>Node36&#45;&gt;Node4</title>
<g id="a_edge39_Node000036_Node000004"><a xlink:title=" ">
<path fill="none" stroke="#63b8ff" d="M110.9,-148.68C49.61,-131.57 -14.66,-103.48 21.97,-66 59.37,-27.73 1733.7,-18.05 2120.72,-16.32"/>
<polygon fill="#63b8ff" stroke="#63b8ff" points="110.13,-152.1 120.69,-151.33 111.96,-145.34 110.13,-152.1"/>
</a>
</g>
</g>
<!-- Node36&#45;&gt;Node14 -->
<g id="edge40_Node000036_Node000014" class="edge">
<title>Node36&#45;&gt;Node14</title>
<g id="a_edge40_Node000036_Node000014"><a xlink:title=" ">
<path fill="none" stroke="#63b8ff" d="M170.23,-141.4C155.38,-128.11 138.01,-112.58 125.75,-101.62"/>
<polygon fill="#63b8ff" stroke="#63b8ff" points="167.93,-144.04 177.72,-148.1 172.6,-138.83 167.93,-144.04"/>
</a>
</g>
</g>
<!-- Node36&#45;&gt;Node29 -->
<g id="edge41_Node000036_Node000029" class="edge">
<title>Node36&#45;&gt;Node29</title>
<g id="a_edge41_Node000036_Node000029"><a xlink:title=" ">
<path fill="none" stroke="#63b8ff" d="M229.79,-141.03C244.38,-127.83 261.35,-112.48 273.36,-101.62"/>
<polygon fill="#63b8ff" stroke="#63b8ff" points="227.04,-138.8 221.97,-148.1 231.73,-143.99 227.04,-138.8"/>
</a>
</g>
</g>
</g>
</svg>
