<?xml version="1.0" encoding="UTF-8" standalone="no"?>
<!DOCTYPE svg PUBLIC "-//W3C//DTD SVG 1.1//EN"
 "http://www.w3.org/Graphics/SVG/1.1/DTD/svg11.dtd">
<!-- Generated by graphviz version 2.43.0 (0)
 -->
<!-- Title: /home/runner/work/webcface/webcface/client/include/webcface/logger.h Pages: 1 -->
<svg width="5476pt" height="280pt"
 viewBox="0.00 0.00 5476.00 280.00" xmlns="http://www.w3.org/2000/svg" xmlns:xlink="http://www.w3.org/1999/xlink">
<g id="graph0" class="graph" transform="scale(1 1) rotate(0) translate(4 276)">
<title>/home/runner/work/webcface/webcface/client/include/webcface/logger.h</title>
<!-- Node1 -->
<g id="Node000001" class="node">
<title>Node1</title>
<g id="a_Node000001"><a xlink:title=" ">
<polygon fill="#999999" stroke="#666666" points="5143,-272 4985,-272 4985,-231 5143,-231 5143,-272"/>
<text text-anchor="start" x="4993" y="-260" font-family="Helvetica,sans-Serif" font-size="10.00">/home/runner/work/webcface</text>
<text text-anchor="start" x="4993" y="-249" font-family="Helvetica,sans-Serif" font-size="10.00">/webcface/client/include</text>
<text text-anchor="middle" x="5064" y="-238" font-family="Helvetica,sans-Serif" font-size="10.00">/webcface/logger.h</text>
</a>
</g>
</g>
<!-- Node2 -->
<g id="Node000002" class="node">
<title>Node2</title>
<g id="a_Node000002"><a xlink:href="client__internal_8h.html" target="_top" xlink:title=" ">
<polygon fill="white" stroke="#666666" points="3018,-195 2860,-195 2860,-143 3018,-143 3018,-195"/>
<text text-anchor="start" x="2868" y="-183" font-family="Helvetica,sans-Serif" font-size="10.00">/home/runner/work/webcface</text>
<text text-anchor="start" x="2868" y="-172" font-family="Helvetica,sans-Serif" font-size="10.00">/webcface/client/include</text>
<text text-anchor="start" x="2868" y="-161" font-family="Helvetica,sans-Serif" font-size="10.00">/webcface/internal/client</text>
<text text-anchor="middle" x="2939" y="-150" font-family="Helvetica,sans-Serif" font-size="10.00">_internal.h</text>
</a>
</g>
</g>
<!-- Node1&#45;&gt;Node2 -->
<g id="edge1_Node000001_Node000002" class="edge">
<title>Node1&#45;&gt;Node2</title>
<g id="a_edge1_Node000001_Node000002"><a xlink:title=" ">
<path fill="none" stroke="#63b8ff" d="M4974.82,-247.12C4624.96,-233.87 3349.26,-185.54 3018.02,-172.99"/>
<polygon fill="#63b8ff" stroke="#63b8ff" points="4974.77,-250.62 4984.9,-247.5 4975.03,-243.63 4974.77,-250.62"/>
</a>
</g>
</g>
<!-- Node15 -->
<g id="Node000015" class="node">
<title>Node15</title>
<g id="a_Node000015"><a xlink:href="logger_8cc.html" target="_top" xlink:title=" ">
<polygon fill="white" stroke="#666666" points="160,-101.5 0,-101.5 0,-71.5 160,-71.5 160,-101.5"/>
<text text-anchor="start" x="8" y="-89.5" font-family="Helvetica,sans-Serif" font-size="10.00">/home/runner/work/webcface</text>
<text text-anchor="middle" x="80" y="-78.5" font-family="Helvetica,sans-Serif" font-size="10.00">/webcface/client/src/logger.cc</text>
</a>
</g>
</g>
<!-- Node1&#45;&gt;Node15 -->
<g id="edge37_Node000001_Node000015" class="edge">
<title>Node1&#45;&gt;Node15</title>
<g id="a_edge37_Node000001_Node000015"><a xlink:title=" ">
<path fill="none" stroke="#63b8ff" d="M4974.21,-248.5C4673.72,-241.74 3675.81,-218.87 2851,-195 1658.86,-160.49 1352.45,-254.8 169,-107 158.48,-105.69 147.38,-103.73 136.71,-101.54"/>
<polygon fill="#63b8ff" stroke="#63b8ff" points="4974.53,-252 4984.6,-248.73 4974.68,-245.01 4974.53,-252"/>
</a>
</g>
</g>
<!-- Node21 -->
<g id="Node000021" class="node">
<title>Node21</title>
<g id="a_Node000021"><a xlink:href="c__wcf__test_8cc.html" target="_top" xlink:title=" ">
<polygon fill="white" stroke="#666666" points="5106.5,-101.5 4945.5,-101.5 4945.5,-71.5 5106.5,-71.5 5106.5,-101.5"/>
<text text-anchor="start" x="4953.5" y="-89.5" font-family="Helvetica,sans-Serif" font-size="10.00">/home/runner/work/webcface</text>
<text text-anchor="middle" x="5026" y="-78.5" font-family="Helvetica,sans-Serif" font-size="10.00">/webcface/tests/c_wcf_test.cc</text>
</a>
</g>
</g>
<!-- Node1&#45;&gt;Node21 -->
<g id="edge39_Node000001_Node000021" class="edge">
<title>Node1&#45;&gt;Node21</title>
<g id="a_edge39_Node000001_Node000021"><a xlink:title=" ">
<path fill="none" stroke="#63b8ff" d="M5056.4,-221C5054.28,-212.61 5052.01,-203.45 5050,-195 5042.08,-161.7 5033.5,-122.41 5029.06,-101.79"/>
<polygon fill="#63b8ff" stroke="#63b8ff" points="5053.02,-221.92 5058.88,-230.75 5059.81,-220.2 5053.02,-221.92"/>
</a>
</g>
</g>
<!-- Node25 -->
<g id="Node000025" class="node">
<title>Node25</title>
<g id="a_Node000025"><a xlink:href="client__test_8cc.html" target="_top" xlink:title=" ">
<polygon fill="white" stroke="#666666" points="5285.5,-101.5 5124.5,-101.5 5124.5,-71.5 5285.5,-71.5 5285.5,-101.5"/>
<text text-anchor="start" x="5132.5" y="-89.5" font-family="Helvetica,sans-Serif" font-size="10.00">/home/runner/work/webcface</text>
<text text-anchor="middle" x="5205" y="-78.5" font-family="Helvetica,sans-Serif" font-size="10.00">/webcface/tests/client_test.cc</text>
</a>
</g>
</g>
<!-- Node1&#45;&gt;Node25 -->
<g id="edge40_Node000001_Node000025" class="edge">
<title>Node1&#45;&gt;Node25</title>
<g id="a_edge40_Node000001_Node000025"><a xlink:title=" ">
<path fill="none" stroke="#63b8ff" d="M5063.8,-220.78C5065.12,-197.34 5070.41,-165.03 5088,-143 5103.85,-123.15 5128.5,-110.01 5151.1,-101.52"/>
<polygon fill="#63b8ff" stroke="#63b8ff" points="5060.3,-220.74 5063.44,-230.86 5067.29,-220.99 5060.3,-220.74"/>
</a>
</g>
</g>
<!-- Node30 -->
<g id="Node000030" class="node">
<title>Node30</title>
<g id="a_Node000030"><a xlink:href="logger__test_8cc.html" target="_top" xlink:title=" ">
<polygon fill="white" stroke="#666666" points="5468,-101.5 5304,-101.5 5304,-71.5 5468,-71.5 5468,-101.5"/>
<text text-anchor="start" x="5312" y="-89.5" font-family="Helvetica,sans-Serif" font-size="10.00">/home/runner/work/webcface</text>
<text text-anchor="middle" x="5386" y="-78.5" font-family="Helvetica,sans-Serif" font-size="10.00">/webcface/tests/logger_test.cc</text>
</a>
</g>
</g>
<!-- Node1&#45;&gt;Node30 -->
<g id="edge41_Node000001_Node000030" class="edge">
<title>Node1&#45;&gt;Node30</title>
<g id="a_edge41_Node000001_Node000030"><a xlink:title=" ">
<path fill="none" stroke="#63b8ff" d="M5076.1,-221.3C5088.36,-193.1 5107.4,-153.21 5121,-143 5184.17,-95.61 5217.72,-123.27 5295,-107 5303.38,-105.24 5312.19,-103.37 5320.89,-101.51"/>
<polygon fill="#63b8ff" stroke="#63b8ff" points="5072.79,-220.15 5072.07,-230.72 5079.22,-222.9 5072.79,-220.15"/>
</a>
</g>
</g>
<!-- Node35 -->
<g id="Node000035" class="node">
<title>Node35</title>
<g id="a_Node000035"><a xlink:href="webcface_8h.html" target="_top" xlink:title=" ">
<polygon fill="white" stroke="#666666" points="5288,-189.5 5130,-189.5 5130,-148.5 5288,-148.5 5288,-189.5"/>
<text text-anchor="start" x="5138" y="-177.5" font-family="Helvetica,sans-Serif" font-size="10.00">/home/runner/work/webcface</text>
<text text-anchor="start" x="5138" y="-166.5" font-family="Helvetica,sans-Serif" font-size="10.00">/webcface/client/include</text>
<text text-anchor="middle" x="5209" y="-155.5" font-family="Helvetica,sans-Serif" font-size="10.00">/webcface/webcface.h</text>
</a>
</g>
</g>
<!-- Node1&#45;&gt;Node35 -->
<g id="edge36_Node000001_Node000035" class="edge">
<title>Node1&#45;&gt;Node35</title>
<g id="a_edge36_Node000001_Node000035"><a xlink:title=" ">
<path fill="none" stroke="#63b8ff" d="M5108.49,-225.8C5129.41,-214.18 5154.02,-200.52 5173.64,-189.63"/>
<polygon fill="#63b8ff" stroke="#63b8ff" points="5106.52,-222.89 5099.47,-230.81 5109.91,-229.01 5106.52,-222.89"/>
</a>
</g>
</g>
<!-- Node36 -->
<g id="Node000036" class="node">
<title>Node36</title>
<g id="a_Node000036"><a xlink:href="examples_2log_8cc.html" target="_top" xlink:title=" ">
<polygon fill="white" stroke="#666666" points="5464,-184 5306,-184 5306,-154 5464,-154 5464,-184"/>
<text text-anchor="start" x="5314" y="-172" font-family="Helvetica,sans-Serif" font-size="10.00">/home/runner/work/webcface</text>
<text text-anchor="middle" x="5385" y="-161" font-family="Helvetica,sans-Serif" font-size="10.00">/webcface/examples/log.cc</text>
</a>
</g>
</g>
<!-- Node1&#45;&gt;Node36 -->
<g id="edge38_Node000001_Node000036" class="edge">
<title>Node1&#45;&gt;Node36</title>
<g id="a_edge38_Node000001_Node000036"><a xlink:title=" ">
<path fill="none" stroke="#63b8ff" d="M5153.19,-230.2C5196.68,-220.06 5249.69,-207.35 5297,-195 5309.91,-191.63 5323.82,-187.78 5336.69,-184.13"/>
<polygon fill="#63b8ff" stroke="#63b8ff" points="5152.15,-226.85 5143.21,-232.52 5153.74,-233.67 5152.15,-226.85"/>
</a>
</g>
</g>
<!-- Node3 -->
<g id="Node000003" class="node">
<title>Node3</title>
<g id="a_Node000003"><a xlink:href="client__ws_8h.html" target="_top" xlink:title=" ">
<polygon fill="white" stroke="#666666" points="3238,-107 3074,-107 3074,-66 3238,-66 3238,-107"/>
<text text-anchor="start" x="3082" y="-95" font-family="Helvetica,sans-Serif" font-size="10.00">/home/runner/work/webcface</text>
<text text-anchor="start" x="3082" y="-84" font-family="Helvetica,sans-Serif" font-size="10.00">/webcface/client/include</text>
<text text-anchor="middle" x="3156" y="-73" font-family="Helvetica,sans-Serif" font-size="10.00">/webcface/internal/client_ws.h</text>
</a>
</g>
</g>
<!-- Node2&#45;&gt;Node3 -->
<g id="edge2_Node000002_Node000003" class="edge">
<title>Node2&#45;&gt;Node3</title>
<g id="a_edge2_Node000002_Node000003"><a xlink:title=" ">
<path fill="none" stroke="#63b8ff" d="M3016.14,-139.38C3045.05,-128.66 3077.21,-116.73 3103.39,-107.02"/>
<polygon fill="#63b8ff" stroke="#63b8ff" points="3014.63,-136.21 3006.47,-142.97 3017.06,-142.77 3014.63,-136.21"/>
</a>
</g>
</g>
<!-- Node4 -->
<g id="Node000004" class="node">
<title>Node4</title>
<g id="a_Node000004"><a xlink:href="client_8cc.html" target="_top" xlink:title=" ">
<polygon fill="white" stroke="#666666" points="3142,-30 2984,-30 2984,0 3142,0 3142,-30"/>
<text text-anchor="start" x="2992" y="-18" font-family="Helvetica,sans-Serif" font-size="10.00">/home/runner/work/webcface</text>
<text text-anchor="middle" x="3063" y="-7" font-family="Helvetica,sans-Serif" font-size="10.00">/webcface/client/src/client.cc</text>
</a>
</g>
</g>
<!-- Node2&#45;&gt;Node4 -->
<g id="edge7_Node000002_Node000004" class="edge">
<title>Node2&#45;&gt;Node4</title>
<g id="a_edge7_Node000002_Node000004"><a xlink:title=" ">
<path fill="none" stroke="#63b8ff" d="M2994.03,-137.28C3006.05,-128.67 3017.89,-118.48 3027,-107 3045.59,-83.57 3055.63,-49.35 3060.1,-30.24"/>
<polygon fill="#63b8ff" stroke="#63b8ff" points="2991.97,-134.44 2985.7,-142.98 2995.93,-140.22 2991.97,-134.44"/>
</a>
</g>
</g>
<!-- Node5 -->
<g id="Node000005" class="node">
<title>Node5</title>
<g id="a_Node000005"><a xlink:href="client__ws_8cc.html" target="_top" xlink:title=" ">
<polygon fill="white" stroke="#666666" points="3345,-30 3169,-30 3169,0 3345,0 3345,-30"/>
<text text-anchor="start" x="3177" y="-18" font-family="Helvetica,sans-Serif" font-size="10.00">/home/runner/work/webcface</text>
<text text-anchor="middle" x="3257" y="-7" font-family="Helvetica,sans-Serif" font-size="10.00">/webcface/client/src/client_ws.cc</text>
</a>
</g>
</g>
<!-- Node2&#45;&gt;Node5 -->
<g id="edge8_Node000002_Node000005" class="edge">
<title>Node2&#45;&gt;Node5</title>
<g id="a_edge8_Node000002_Node000005"><a xlink:title=" ">
<path fill="none" stroke="#63b8ff" d="M3028.16,-161.87C3108.4,-154.39 3218.02,-138.59 3247,-107 3266.23,-86.04 3263.46,-49.9 3260.05,-30.06"/>
<polygon fill="#63b8ff" stroke="#63b8ff" points="3027.68,-158.4 3018.04,-162.79 3028.31,-165.37 3027.68,-158.4"/>
</a>
</g>
</g>
<!-- Node6 -->
<g id="Node000006" class="node">
<title>Node6</title>
<g id="a_Node000006"><a xlink:href="client_2src_2canvas2d_8cc.html" target="_top" xlink:title=" ">
<polygon fill="white" stroke="#666666" points="3470,-101.5 3294,-101.5 3294,-71.5 3470,-71.5 3470,-101.5"/>
<text text-anchor="start" x="3302" y="-89.5" font-family="Helvetica,sans-Serif" font-size="10.00">/home/runner/work/webcface</text>
<text text-anchor="middle" x="3382" y="-78.5" font-family="Helvetica,sans-Serif" font-size="10.00">/webcface/client/src/canvas2d.cc</text>
</a>
</g>
</g>
<!-- Node2&#45;&gt;Node6 -->
<g id="edge5_Node000002_Node000006" class="edge">
<title>Node2&#45;&gt;Node6</title>
<g id="a_edge5_Node000002_Node000006"><a xlink:title=" ">
<path fill="none" stroke="#63b8ff" d="M3028.23,-152.34C3097.05,-140.18 3194.61,-122.8 3280,-107 3289.48,-105.25 3299.46,-103.37 3309.31,-101.51"/>
<polygon fill="#63b8ff" stroke="#63b8ff" points="3027.53,-148.91 3018.29,-154.09 3028.74,-155.8 3027.53,-148.91"/>
</a>
</g>
</g>
<!-- Node7 -->
<g id="Node000007" class="node">
<title>Node7</title>
<g id="a_Node000007"><a xlink:href="client_2src_2canvas3d_8cc.html" target="_top" xlink:title=" ">
<polygon fill="white" stroke="#666666" points="3664,-101.5 3488,-101.5 3488,-71.5 3664,-71.5 3664,-101.5"/>
<text text-anchor="start" x="3496" y="-89.5" font-family="Helvetica,sans-Serif" font-size="10.00">/home/runner/work/webcface</text>
<text text-anchor="middle" x="3576" y="-78.5" font-family="Helvetica,sans-Serif" font-size="10.00">/webcface/client/src/canvas3d.cc</text>
</a>
</g>
</g>
<!-- Node2&#45;&gt;Node7 -->
<g id="edge6_Node000002_Node000007" class="edge">
<title>Node2&#45;&gt;Node7</title>
<g id="a_edge6_Node000002_Node000007"><a xlink:title=" ">
<path fill="none" stroke="#63b8ff" d="M3028.58,-160.26C3135.97,-150.43 3321.21,-131.73 3479,-107 3489.1,-105.42 3499.74,-103.52 3510.13,-101.53"/>
<polygon fill="#63b8ff" stroke="#63b8ff" points="3028.08,-156.79 3018.44,-161.18 3028.71,-163.76 3028.08,-156.79"/>
</a>
</g>
</g>
<!-- Node8 -->
<g id="Node000008" class="node">
<title>Node8</title>
<g id="a_Node000008"><a xlink:href="component__canvas2d_8cc.html" target="_top" xlink:title=" ">
<polygon fill="white" stroke="#666666" points="3853.5,-107 3682.5,-107 3682.5,-66 3853.5,-66 3853.5,-107"/>
<text text-anchor="start" x="3690.5" y="-95" font-family="Helvetica,sans-Serif" font-size="10.00">/home/runner/work/webcface</text>
<text text-anchor="start" x="3690.5" y="-84" font-family="Helvetica,sans-Serif" font-size="10.00">/webcface/client/src/component</text>
<text text-anchor="middle" x="3768" y="-73" font-family="Helvetica,sans-Serif" font-size="10.00">_canvas2d.cc</text>
</a>
</g>
</g>
<!-- Node2&#45;&gt;Node8 -->
<g id="edge9_Node000002_Node000008" class="edge">
<title>Node2&#45;&gt;Node8</title>
<g id="a_edge9_Node000002_Node000008"><a xlink:title=" ">
<path fill="none" stroke="#63b8ff" d="M3028.24,-164.03C3166.79,-157.09 3441.78,-140.22 3673,-107 3676.08,-106.56 3679.22,-106.08 3682.38,-105.57"/>
<polygon fill="#63b8ff" stroke="#63b8ff" points="3027.91,-160.54 3018.1,-164.53 3028.26,-167.53 3027.91,-160.54"/>
</a>
</g>
</g>
<!-- Node9 -->
<g id="Node000009" class="node">
<title>Node9</title>
<g id="a_Node000009"><a xlink:href="component__view_8cc.html" target="_top" xlink:title=" ">
<polygon fill="white" stroke="#666666" points="4042.5,-107 3871.5,-107 3871.5,-66 4042.5,-66 4042.5,-107"/>
<text text-anchor="start" x="3879.5" y="-95" font-family="Helvetica,sans-Serif" font-size="10.00">/home/runner/work/webcface</text>
<text text-anchor="start" x="3879.5" y="-84" font-family="Helvetica,sans-Serif" font-size="10.00">/webcface/client/src/component</text>
<text text-anchor="middle" x="3957" y="-73" font-family="Helvetica,sans-Serif" font-size="10.00">_view.cc</text>
</a>
</g>
</g>
<!-- Node2&#45;&gt;Node9 -->
<g id="edge10_Node000002_Node000009" class="edge">
<title>Node2&#45;&gt;Node9</title>
<g id="a_edge10_Node000002_Node000009"><a xlink:title=" ">
<path fill="none" stroke="#63b8ff" d="M3028.19,-166.15C3193.37,-161.82 3557.83,-148.07 3862,-107 3865.09,-106.58 3868.22,-106.12 3871.39,-105.63"/>
<polygon fill="#63b8ff" stroke="#63b8ff" points="3027.98,-162.65 3018.07,-166.41 3028.16,-169.65 3027.98,-162.65"/>
</a>
</g>
</g>
<!-- Node10 -->
<g id="Node000010" class="node">
<title>Node10</title>
<g id="a_Node000010"><a xlink:href="field_8cc.html" target="_top" xlink:title=" ">
<polygon fill="white" stroke="#666666" points="4219,-101.5 4061,-101.5 4061,-71.5 4219,-71.5 4219,-101.5"/>
<text text-anchor="start" x="4069" y="-89.5" font-family="Helvetica,sans-Serif" font-size="10.00">/home/runner/work/webcface</text>
<text text-anchor="middle" x="4140" y="-78.5" font-family="Helvetica,sans-Serif" font-size="10.00">/webcface/client/src/field.cc</text>
</a>
</g>
</g>
<!-- Node2&#45;&gt;Node10 -->
<g id="edge11_Node000002_Node000010" class="edge">
<title>Node2&#45;&gt;Node10</title>
<g id="a_edge11_Node000002_Node000010"><a xlink:title=" ">
<path fill="none" stroke="#63b8ff" d="M3028.47,-167.96C3217.96,-166.81 3673.35,-158.39 4051,-107 4061.19,-105.61 4071.94,-103.67 4082.31,-101.55"/>
<polygon fill="#63b8ff" stroke="#63b8ff" points="3028.27,-164.46 3018.29,-168.02 3028.31,-171.46 3028.27,-164.46"/>
</a>
</g>
</g>
<!-- Node11 -->
<g id="Node000011" class="node">
<title>Node11</title>
<g id="a_Node000011"><a xlink:href="client_2src_2func_8cc.html" target="_top" xlink:title=" ">
<polygon fill="white" stroke="#666666" points="4395,-101.5 4237,-101.5 4237,-71.5 4395,-71.5 4395,-101.5"/>
<text text-anchor="start" x="4245" y="-89.5" font-family="Helvetica,sans-Serif" font-size="10.00">/home/runner/work/webcface</text>
<text text-anchor="middle" x="4316" y="-78.5" font-family="Helvetica,sans-Serif" font-size="10.00">/webcface/client/src/func.cc</text>
</a>
</g>
</g>
<!-- Node2&#45;&gt;Node11 -->
<g id="edge12_Node000002_Node000011" class="edge">
<title>Node2&#45;&gt;Node11</title>
<g id="a_edge12_Node000002_Node000011"><a xlink:title=" ">
<path fill="none" stroke="#63b8ff" d="M3028.66,-165.75C3281.27,-159.1 3995.55,-138.02 4228,-107 4238.24,-105.63 4249.04,-103.68 4259.45,-101.52"/>
<polygon fill="#63b8ff" stroke="#63b8ff" points="3028.33,-162.26 3018.42,-166.02 3028.51,-169.26 3028.33,-162.26"/>
</a>
</g>
</g>
<!-- Node12 -->
<g id="Node000012" class="node">
<title>Node12</title>
<g id="a_Node000012"><a xlink:href="func__listener_8cc.html" target="_top" xlink:title=" ">
<polygon fill="white" stroke="#666666" points="4571,-107 4413,-107 4413,-66 4571,-66 4571,-107"/>
<text text-anchor="start" x="4421" y="-95" font-family="Helvetica,sans-Serif" font-size="10.00">/home/runner/work/webcface</text>
<text text-anchor="start" x="4421" y="-84" font-family="Helvetica,sans-Serif" font-size="10.00">/webcface/client/src/func</text>
<text text-anchor="middle" x="4492" y="-73" font-family="Helvetica,sans-Serif" font-size="10.00">_listener.cc</text>
</a>
</g>
</g>
<!-- Node2&#45;&gt;Node12 -->
<g id="edge13_Node000002_Node000012" class="edge">
<title>Node2&#45;&gt;Node12</title>
<g id="a_edge13_Node000002_Node000012"><a xlink:title=" ">
<path fill="none" stroke="#63b8ff" d="M3028.7,-166.34C3304.26,-160.91 4135.94,-142 4404,-107 4406.95,-106.62 4409.94,-106.18 4412.96,-105.7"/>
<polygon fill="#63b8ff" stroke="#63b8ff" points="3028.28,-162.85 3018.35,-166.54 3028.42,-169.85 3028.28,-162.85"/>
</a>
</g>
</g>
<!-- Node13 -->
<g id="Node000013" class="node">
<title>Node13</title>
<g id="a_Node000013"><a xlink:href="image_8cc.html" target="_top" xlink:title=" ">
<polygon fill="white" stroke="#666666" points="4750.5,-101.5 4589.5,-101.5 4589.5,-71.5 4750.5,-71.5 4750.5,-101.5"/>
<text text-anchor="start" x="4597.5" y="-89.5" font-family="Helvetica,sans-Serif" font-size="10.00">/home/runner/work/webcface</text>
<text text-anchor="middle" x="4670" y="-78.5" font-family="Helvetica,sans-Serif" font-size="10.00">/webcface/client/src/image.cc</text>
</a>
</g>
</g>
<!-- Node2&#45;&gt;Node13 -->
<g id="edge14_Node000002_Node000013" class="edge">
<title>Node2&#45;&gt;Node13</title>
<g id="a_edge14_Node000002_Node000013"><a xlink:title=" ">
<path fill="none" stroke="#63b8ff" d="M3028.6,-166.75C3325.57,-162.28 4276,-145.28 4580,-107 4590.63,-105.66 4601.86,-103.69 4612.65,-101.5"/>
<polygon fill="#63b8ff" stroke="#63b8ff" points="3028.26,-163.26 3018.31,-166.9 3028.36,-170.25 3028.26,-163.26"/>
</a>
</g>
</g>
<!-- Node14 -->
<g id="Node000014" class="node">
<title>Node14</title>
<g id="a_Node000014"><a xlink:href="client_2src_2log_8cc.html" target="_top" xlink:title=" ">
<polygon fill="white" stroke="#666666" points="4927,-101.5 4769,-101.5 4769,-71.5 4927,-71.5 4927,-101.5"/>
<text text-anchor="start" x="4777" y="-89.5" font-family="Helvetica,sans-Serif" font-size="10.00">/home/runner/work/webcface</text>
<text text-anchor="middle" x="4848" y="-78.5" font-family="Helvetica,sans-Serif" font-size="10.00">/webcface/client/src/log.cc</text>
</a>
</g>
</g>
<!-- Node2&#45;&gt;Node14 -->
<g id="edge15_Node000002_Node000014" class="edge">
<title>Node2&#45;&gt;Node14</title>
<g id="a_edge15_Node000002_Node000014"><a xlink:title=" ">
<path fill="none" stroke="#63b8ff" d="M3028.26,-167.16C3345.57,-163.85 4418.32,-149.67 4759,-107 4769.52,-105.68 4780.62,-103.72 4791.29,-101.54"/>
<polygon fill="#63b8ff" stroke="#63b8ff" points="3028.15,-163.66 3018.19,-167.27 3028.22,-170.66 3028.15,-163.66"/>
</a>
</g>
</g>
<!-- Node2&#45;&gt;Node15 -->
<g id="edge16_Node000002_Node000015" class="edge">
<title>Node2&#45;&gt;Node15</title>
<g id="a_edge16_Node000002_Node000015"><a xlink:title=" ">
<path fill="none" stroke="#63b8ff" d="M2849.55,-166.52C2389.36,-158.83 304.91,-123.23 169,-107 158.32,-105.72 147.03,-103.75 136.22,-101.54"/>
<polygon fill="#63b8ff" stroke="#63b8ff" points="2849.73,-170.02 2859.79,-166.69 2849.85,-163.02 2849.73,-170.02"/>
</a>
</g>
</g>
<!-- Node16 -->
<g id="Node000016" class="node">
<title>Node16</title>
<g id="a_Node000016"><a xlink:href="member_8cc.html" target="_top" xlink:title=" ">
<polygon fill="white" stroke="#666666" points="348,-101.5 178,-101.5 178,-71.5 348,-71.5 348,-101.5"/>
<text text-anchor="start" x="186" y="-89.5" font-family="Helvetica,sans-Serif" font-size="10.00">/home/runner/work/webcface</text>
<text text-anchor="middle" x="263" y="-78.5" font-family="Helvetica,sans-Serif" font-size="10.00">/webcface/client/src/member.cc</text>
</a>
</g>
</g>
<!-- Node2&#45;&gt;Node16 -->
<g id="edge17_Node000002_Node000016" class="edge">
<title>Node2&#45;&gt;Node16</title>
<g id="a_edge17_Node000002_Node000016"><a xlink:title=" ">
<path fill="none" stroke="#63b8ff" d="M2849.6,-166.34C2408.83,-158.11 483.18,-121.46 357,-107 345.74,-105.71 333.83,-103.73 322.41,-101.52"/>
<polygon fill="#63b8ff" stroke="#63b8ff" points="2849.67,-169.84 2859.73,-166.53 2849.8,-162.85 2849.67,-169.84"/>
</a>
</g>
</g>
<!-- Node17 -->
<g id="Node000017" class="node">
<title>Node17</title>
<g id="a_Node000017"><a xlink:href="robot__model_8cc.html" target="_top" xlink:title=" ">
<polygon fill="white" stroke="#666666" points="524,-107 366,-107 366,-66 524,-66 524,-107"/>
<text text-anchor="start" x="374" y="-95" font-family="Helvetica,sans-Serif" font-size="10.00">/home/runner/work/webcface</text>
<text text-anchor="start" x="374" y="-84" font-family="Helvetica,sans-Serif" font-size="10.00">/webcface/client/src/robot</text>
<text text-anchor="middle" x="445" y="-73" font-family="Helvetica,sans-Serif" font-size="10.00">_model.cc</text>
</a>
</g>
</g>
<!-- Node2&#45;&gt;Node17 -->
<g id="edge18_Node000002_Node000017" class="edge">
<title>Node2&#45;&gt;Node17</title>
<g id="a_edge18_Node000002_Node000017"><a xlink:title=" ">
<path fill="none" stroke="#63b8ff" d="M2849.61,-166.75C2441.58,-160.93 765.85,-135.48 533,-107 530.05,-106.64 527.05,-106.22 524.03,-105.77"/>
<polygon fill="#63b8ff" stroke="#63b8ff" points="2849.82,-170.26 2859.87,-166.9 2849.92,-163.26 2849.82,-170.26"/>
</a>
</g>
</g>
<!-- Node18 -->
<g id="Node000018" class="node">
<title>Node18</title>
<g id="a_Node000018"><a xlink:href="text_8cc.html" target="_top" xlink:title=" ">
<polygon fill="white" stroke="#666666" points="700,-101.5 542,-101.5 542,-71.5 700,-71.5 700,-101.5"/>
<text text-anchor="start" x="550" y="-89.5" font-family="Helvetica,sans-Serif" font-size="10.00">/home/runner/work/webcface</text>
<text text-anchor="middle" x="621" y="-78.5" font-family="Helvetica,sans-Serif" font-size="10.00">/webcface/client/src/text.cc</text>
</a>
</g>
</g>
<!-- Node2&#45;&gt;Node18 -->
<g id="edge19_Node000002_Node000018" class="edge">
<title>Node2&#45;&gt;Node18</title>
<g id="a_edge19_Node000002_Node000018"><a xlink:title=" ">
<path fill="none" stroke="#63b8ff" d="M2849.81,-166.57C2460.95,-160.18 923.61,-133.47 709,-107 698.59,-105.72 687.61,-103.77 677.06,-101.59"/>
<polygon fill="#63b8ff" stroke="#63b8ff" points="2849.83,-170.07 2859.88,-166.73 2849.94,-163.07 2849.83,-170.07"/>
</a>
</g>
</g>
<!-- Node19 -->
<g id="Node000019" class="node">
<title>Node19</title>
<g id="a_Node000019"><a xlink:href="client_2src_2value_8cc.html" target="_top" xlink:title=" ">
<polygon fill="white" stroke="#666666" points="876,-101.5 718,-101.5 718,-71.5 876,-71.5 876,-101.5"/>
<text text-anchor="start" x="726" y="-89.5" font-family="Helvetica,sans-Serif" font-size="10.00">/home/runner/work/webcface</text>
<text text-anchor="middle" x="797" y="-78.5" font-family="Helvetica,sans-Serif" font-size="10.00">/webcface/client/src/value.cc</text>
</a>
</g>
</g>
<!-- Node2&#45;&gt;Node19 -->
<g id="edge20_Node000002_Node000019" class="edge">
<title>Node2&#45;&gt;Node19</title>
<g id="a_edge20_Node000002_Node000019"><a xlink:title=" ">
<path fill="none" stroke="#63b8ff" d="M2849.63,-166.34C2480.06,-159.34 1081.36,-131.45 885,-107 874.6,-105.7 863.61,-103.75 853.06,-101.57"/>
<polygon fill="#63b8ff" stroke="#63b8ff" points="2849.68,-169.84 2859.74,-166.53 2849.81,-162.84 2849.68,-169.84"/>
</a>
</g>
</g>
<!-- Node20 -->
<g id="Node000020" class="node">
<title>Node20</title>
<g id="a_Node000020"><a xlink:href="client_2src_2view_8cc.html" target="_top" xlink:title=" ">
<polygon fill="white" stroke="#666666" points="1052,-101.5 894,-101.5 894,-71.5 1052,-71.5 1052,-101.5"/>
<text text-anchor="start" x="902" y="-89.5" font-family="Helvetica,sans-Serif" font-size="10.00">/home/runner/work/webcface</text>
<text text-anchor="middle" x="973" y="-78.5" font-family="Helvetica,sans-Serif" font-size="10.00">/webcface/client/src/view.cc</text>
</a>
</g>
</g>
<!-- Node2&#45;&gt;Node20 -->
<g id="edge21_Node000002_Node000020" class="edge">
<title>Node2&#45;&gt;Node20</title>
<g id="a_edge21_Node000002_Node000020"><a xlink:title=" ">
<path fill="none" stroke="#63b8ff" d="M2849.67,-167.3C2525.77,-164.4 1413.5,-151.39 1061,-107 1050.6,-105.69 1039.61,-103.73 1029.06,-101.55"/>
<polygon fill="#63b8ff" stroke="#63b8ff" points="2849.92,-170.8 2859.95,-167.39 2849.98,-163.8 2849.92,-170.8"/>
</a>
</g>
</g>
<!-- Node2&#45;&gt;Node21 -->
<g id="edge22_Node000002_Node000021" class="edge">
<title>Node2&#45;&gt;Node21</title>
<g id="a_edge22_Node000002_Node000021"><a xlink:title=" ">
<path fill="none" stroke="#63b8ff" d="M3028.26,-167.44C3365.1,-165 4558.93,-153.21 4936,-107 4946.63,-105.7 4957.86,-103.74 4968.65,-101.56"/>
<polygon fill="#63b8ff" stroke="#63b8ff" points="3028.05,-163.94 3018.07,-167.52 3028.1,-170.94 3028.05,-163.94"/>
</a>
</g>
</g>
<!-- Node22 -->
<g id="Node000022" class="node">
<title>Node22</title>
<g id="a_Node000022"><a xlink:href="canvas2d__test_8cc.html" target="_top" xlink:title=" ">
<polygon fill="white" stroke="#666666" points="1228,-107 1070,-107 1070,-66 1228,-66 1228,-107"/>
<text text-anchor="start" x="1078" y="-95" font-family="Helvetica,sans-Serif" font-size="10.00">/home/runner/work/webcface</text>
<text text-anchor="start" x="1078" y="-84" font-family="Helvetica,sans-Serif" font-size="10.00">/webcface/tests/canvas2d</text>
<text text-anchor="middle" x="1149" y="-73" font-family="Helvetica,sans-Serif" font-size="10.00">_test.cc</text>
</a>
</g>
</g>
<!-- Node2&#45;&gt;Node22 -->
<g id="edge23_Node000002_Node000022" class="edge">
<title>Node2&#45;&gt;Node22</title>
<g id="a_edge23_Node000002_Node000022"><a xlink:title=" ">
<path fill="none" stroke="#63b8ff" d="M2849.68,-166.95C2545.82,-163.03 1553.47,-147.39 1237,-107 1234.05,-106.62 1231.05,-106.2 1228.03,-105.73"/>
<polygon fill="#63b8ff" stroke="#63b8ff" points="2849.72,-170.45 2859.77,-167.08 2849.81,-163.45 2849.72,-170.45"/>
</a>
</g>
</g>
<!-- Node23 -->
<g id="Node000023" class="node">
<title>Node23</title>
<g id="a_Node000023"><a xlink:href="canvas3d__test_8cc.html" target="_top" xlink:title=" ">
<polygon fill="white" stroke="#666666" points="1404,-107 1246,-107 1246,-66 1404,-66 1404,-107"/>
<text text-anchor="start" x="1254" y="-95" font-family="Helvetica,sans-Serif" font-size="10.00">/home/runner/work/webcface</text>
<text text-anchor="start" x="1254" y="-84" font-family="Helvetica,sans-Serif" font-size="10.00">/webcface/tests/canvas3d</text>
<text text-anchor="middle" x="1325" y="-73" font-family="Helvetica,sans-Serif" font-size="10.00">_test.cc</text>
</a>
</g>
</g>
<!-- Node2&#45;&gt;Node23 -->
<g id="edge24_Node000002_Node000023" class="edge">
<title>Node2&#45;&gt;Node23</title>
<g id="a_edge24_Node000002_Node000023"><a xlink:title=" ">
<path fill="none" stroke="#63b8ff" d="M2849.45,-166.52C2566.46,-161.49 1693.51,-143.39 1413,-107 1410.05,-106.62 1407.06,-106.18 1404.04,-105.71"/>
<polygon fill="#63b8ff" stroke="#63b8ff" points="2849.61,-170.02 2859.67,-166.7 2849.74,-163.02 2849.61,-170.02"/>
</a>
</g>
</g>
<!-- Node24 -->
<g id="Node000024" class="node">
<title>Node24</title>
<g id="a_Node000024"><a xlink:href="client__data__test_8cc.html" target="_top" xlink:title=" ">
<polygon fill="white" stroke="#666666" points="1580,-107 1422,-107 1422,-66 1580,-66 1580,-107"/>
<text text-anchor="start" x="1430" y="-95" font-family="Helvetica,sans-Serif" font-size="10.00">/home/runner/work/webcface</text>
<text text-anchor="start" x="1430" y="-84" font-family="Helvetica,sans-Serif" font-size="10.00">/webcface/tests/client_data</text>
<text text-anchor="middle" x="1501" y="-73" font-family="Helvetica,sans-Serif" font-size="10.00">_test.cc</text>
</a>
</g>
</g>
<!-- Node2&#45;&gt;Node24 -->
<g id="edge25_Node000002_Node000024" class="edge">
<title>Node2&#45;&gt;Node24</title>
<g id="a_edge25_Node000002_Node000024"><a xlink:title=" ">
<path fill="none" stroke="#63b8ff" d="M2849.65,-165.98C2589.22,-159.77 1833.87,-139.41 1589,-107 1586.05,-106.61 1583.06,-106.17 1580.04,-105.69"/>
<polygon fill="#63b8ff" stroke="#63b8ff" points="2849.74,-169.48 2859.82,-166.22 2849.91,-162.49 2849.74,-169.48"/>
</a>
</g>
</g>
<!-- Node2&#45;&gt;Node25 -->
<g id="edge26_Node000002_Node000025" class="edge">
<title>Node2&#45;&gt;Node25</title>
<g id="a_edge26_Node000002_Node000025"><a xlink:title=" ">
<path fill="none" stroke="#63b8ff" d="M3028.45,-167.73C3384.53,-166.32 4701.98,-157.7 5116,-107 5126.52,-105.71 5137.63,-103.76 5148.3,-101.59"/>
<polygon fill="#63b8ff" stroke="#63b8ff" points="3028.18,-164.23 3018.19,-167.77 3028.21,-171.23 3028.18,-164.23"/>
</a>
</g>
</g>
<!-- Node26 -->
<g id="Node000026" class="node">
<title>Node26</title>
<g id="a_Node000026"><a xlink:href="data__test_8cc.html" target="_top" xlink:title=" ">
<polygon fill="white" stroke="#666666" points="1756,-101.5 1598,-101.5 1598,-71.5 1756,-71.5 1756,-101.5"/>
<text text-anchor="start" x="1606" y="-89.5" font-family="Helvetica,sans-Serif" font-size="10.00">/home/runner/work/webcface</text>
<text text-anchor="middle" x="1677" y="-78.5" font-family="Helvetica,sans-Serif" font-size="10.00">/webcface/tests/data_test.cc</text>
</a>
</g>
</g>
<!-- Node2&#45;&gt;Node26 -->
<g id="edge27_Node000002_Node000026" class="edge">
<title>Node2&#45;&gt;Node26</title>
<g id="a_edge27_Node000002_Node000026"><a xlink:title=" ">
<path fill="none" stroke="#63b8ff" d="M2849.83,-168.48C2652.94,-168.43 2166.56,-162.16 1764,-107 1754.03,-105.63 1743.52,-103.7 1733.38,-101.59"/>
<polygon fill="#63b8ff" stroke="#63b8ff" points="2849.84,-171.98 2859.84,-168.48 2849.84,-164.98 2849.84,-171.98"/>
</a>
</g>
</g>
<!-- Node27 -->
<g id="Node000027" class="node">
<title>Node27</title>
<g id="a_Node000027"><a xlink:href="func__listener__test_8cc.html" target="_top" xlink:title=" ">
<polygon fill="white" stroke="#666666" points="1932.5,-107 1773.5,-107 1773.5,-66 1932.5,-66 1932.5,-107"/>
<text text-anchor="start" x="1781.5" y="-95" font-family="Helvetica,sans-Serif" font-size="10.00">/home/runner/work/webcface</text>
<text text-anchor="start" x="1781.5" y="-84" font-family="Helvetica,sans-Serif" font-size="10.00">/webcface/tests/func_listener</text>
<text text-anchor="middle" x="1853" y="-73" font-family="Helvetica,sans-Serif" font-size="10.00">_test.cc</text>
</a>
</g>
</g>
<!-- Node2&#45;&gt;Node27 -->
<g id="edge28_Node000002_Node000027" class="edge">
<title>Node2&#45;&gt;Node27</title>
<g id="a_edge28_Node000002_Node000027"><a xlink:title=" ">
<path fill="none" stroke="#63b8ff" d="M2849.79,-167.23C2674.69,-164.7 2274.08,-153.79 1941,-107 1938.21,-106.61 1935.38,-106.18 1932.52,-105.71"/>
<polygon fill="#63b8ff" stroke="#63b8ff" points="2849.93,-170.74 2859.98,-167.37 2850.03,-163.74 2849.93,-170.74"/>
</a>
</g>
</g>
<!-- Node28 -->
<g id="Node000028" class="node">
<title>Node28</title>
<g id="a_Node000028"><a xlink:href="func__test_8cc.html" target="_top" xlink:title=" ">
<polygon fill="white" stroke="#666666" points="2108,-101.5 1950,-101.5 1950,-71.5 2108,-71.5 2108,-101.5"/>
<text text-anchor="start" x="1958" y="-89.5" font-family="Helvetica,sans-Serif" font-size="10.00">/home/runner/work/webcface</text>
<text text-anchor="middle" x="2029" y="-78.5" font-family="Helvetica,sans-Serif" font-size="10.00">/webcface/tests/func_test.cc</text>
</a>
</g>
</g>
<!-- Node2&#45;&gt;Node28 -->
<g id="edge29_Node000002_Node000028" class="edge">
<title>Node2&#45;&gt;Node28</title>
<g id="a_edge29_Node000002_Node000028"><a xlink:title=" ">
<path fill="none" stroke="#63b8ff" d="M2849.63,-165.58C2698.17,-160.54 2381.68,-145.94 2117,-107 2107.25,-105.57 2096.96,-103.66 2087,-101.59"/>
<polygon fill="#63b8ff" stroke="#63b8ff" points="2849.7,-169.08 2859.81,-165.91 2849.93,-162.09 2849.7,-169.08"/>
</a>
</g>
</g>
<!-- Node29 -->
<g id="Node000029" class="node">
<title>Node29</title>
<g id="a_Node000029"><a xlink:href="image__test_8cc.html" target="_top" xlink:title=" ">
<polygon fill="white" stroke="#666666" points="2290,-101.5 2126,-101.5 2126,-71.5 2290,-71.5 2290,-101.5"/>
<text text-anchor="start" x="2134" y="-89.5" font-family="Helvetica,sans-Serif" font-size="10.00">/home/runner/work/webcface</text>
<text text-anchor="middle" x="2208" y="-78.5" font-family="Helvetica,sans-Serif" font-size="10.00">/webcface/tests/image_test.cc</text>
</a>
</g>
</g>
<!-- Node2&#45;&gt;Node29 -->
<g id="edge30_Node000002_Node000029" class="edge">
<title>Node2&#45;&gt;Node29</title>
<g id="a_edge30_Node000002_Node000029"><a xlink:title=" ">
<path fill="none" stroke="#63b8ff" d="M2849.6,-162.77C2725.51,-154.76 2494.27,-137.12 2299,-107 2289.26,-105.5 2278.99,-103.6 2269.01,-101.59"/>
<polygon fill="#63b8ff" stroke="#63b8ff" points="2849.61,-166.27 2859.81,-163.42 2850.06,-159.29 2849.61,-166.27"/>
</a>
</g>
</g>
<!-- Node2&#45;&gt;Node30 -->
<g id="edge31_Node000002_Node000030" class="edge">
<title>Node2&#45;&gt;Node30</title>
<g id="a_edge31_Node000002_Node000030"><a xlink:title=" ">
<path fill="none" stroke="#63b8ff" d="M3028.23,-167.9C3402.06,-167.14 4843.79,-160.71 5295,-107 5305.91,-105.7 5317.44,-103.72 5328.5,-101.5"/>
<polygon fill="#63b8ff" stroke="#63b8ff" points="3028,-164.4 3018.01,-167.92 3028.01,-171.4 3028,-164.4"/>
</a>
</g>
</g>
<!-- Node31 -->
<g id="Node000031" class="node">
<title>Node31</title>
<g id="a_Node000031"><a xlink:href="member__test_8cc.html" target="_top" xlink:title=" ">
<polygon fill="white" stroke="#666666" points="2483.5,-101.5 2308.5,-101.5 2308.5,-71.5 2483.5,-71.5 2483.5,-101.5"/>
<text text-anchor="start" x="2316.5" y="-89.5" font-family="Helvetica,sans-Serif" font-size="10.00">/home/runner/work/webcface</text>
<text text-anchor="middle" x="2396" y="-78.5" font-family="Helvetica,sans-Serif" font-size="10.00">/webcface/tests/member_test.cc</text>
</a>
</g>
</g>
<!-- Node2&#45;&gt;Node31 -->
<g id="edge32_Node000002_Node000031" class="edge">
<title>Node2&#45;&gt;Node31</title>
<g id="a_edge32_Node000002_Node000031"><a xlink:title=" ">
<path fill="none" stroke="#63b8ff" d="M2849.63,-157.44C2759.41,-146.39 2616.18,-127.78 2493,-107 2483.26,-105.36 2473,-103.47 2462.95,-101.53"/>
<polygon fill="#63b8ff" stroke="#63b8ff" points="2849.47,-160.95 2859.82,-158.69 2850.32,-154 2849.47,-160.95"/>
</a>
</g>
</g>
<!-- Node32 -->
<g id="Node000032" class="node">
<title>Node32</title>
<g id="a_Node000032"><a xlink:href="robot__model__test_8cc.html" target="_top" xlink:title=" ">
<polygon fill="white" stroke="#666666" points="2660,-107 2502,-107 2502,-66 2660,-66 2660,-107"/>
<text text-anchor="start" x="2510" y="-95" font-family="Helvetica,sans-Serif" font-size="10.00">/home/runner/work/webcface</text>
<text text-anchor="start" x="2510" y="-84" font-family="Helvetica,sans-Serif" font-size="10.00">/webcface/tests/robot_model</text>
<text text-anchor="middle" x="2581" y="-73" font-family="Helvetica,sans-Serif" font-size="10.00">_test.cc</text>
</a>
</g>
</g>
<!-- Node2&#45;&gt;Node32 -->
<g id="edge33_Node000002_Node000032" class="edge">
<title>Node2&#45;&gt;Node32</title>
<g id="a_edge33_Node000002_Node000032"><a xlink:title=" ">
<path fill="none" stroke="#63b8ff" d="M2850.06,-148C2791.79,-134.9 2716.3,-117.92 2660.11,-105.29"/>
<polygon fill="#63b8ff" stroke="#63b8ff" points="2849.47,-151.46 2859.99,-150.23 2851,-144.63 2849.47,-151.46"/>
</a>
</g>
</g>
<!-- Node33 -->
<g id="Node000033" class="node">
<title>Node33</title>
<g id="a_Node000033"><a xlink:href="server__test_8cc.html" target="_top" xlink:title=" ">
<polygon fill="white" stroke="#666666" points="2842,-101.5 2678,-101.5 2678,-71.5 2842,-71.5 2842,-101.5"/>
<text text-anchor="start" x="2686" y="-89.5" font-family="Helvetica,sans-Serif" font-size="10.00">/home/runner/work/webcface</text>
<text text-anchor="middle" x="2760" y="-78.5" font-family="Helvetica,sans-Serif" font-size="10.00">/webcface/tests/server_test.cc</text>
</a>
</g>
</g>
<!-- Node2&#45;&gt;Node33 -->
<g id="edge34_Node000002_Node000033" class="edge">
<title>Node2&#45;&gt;Node33</title>
<g id="a_edge34_Node000002_Node000033"><a xlink:title=" ">
<path fill="none" stroke="#63b8ff" d="M2873.95,-138.75C2845.8,-126.09 2814.16,-111.86 2791.37,-101.61"/>
<polygon fill="#63b8ff" stroke="#63b8ff" points="2872.79,-142.06 2883.34,-142.97 2875.66,-135.68 2872.79,-142.06"/>
</a>
</g>
</g>
<!-- Node34 -->
<g id="Node000034" class="node">
<title>Node34</title>
<g id="a_Node000034"><a xlink:href="view__test_8cc.html" target="_top" xlink:title=" ">
<polygon fill="white" stroke="#666666" points="3018,-101.5 2860,-101.5 2860,-71.5 3018,-71.5 3018,-101.5"/>
<text text-anchor="start" x="2868" y="-89.5" font-family="Helvetica,sans-Serif" font-size="10.00">/home/runner/work/webcface</text>
<text text-anchor="middle" x="2939" y="-78.5" font-family="Helvetica,sans-Serif" font-size="10.00">/webcface/tests/view_test.cc</text>
</a>
</g>
</g>
<!-- Node2&#45;&gt;Node34 -->
<g id="edge35_Node000002_Node000034" class="edge">
<title>Node2&#45;&gt;Node34</title>
<g id="a_edge35_Node000002_Node000034"><a xlink:title=" ">
<path fill="none" stroke="#63b8ff" d="M2939,-132.81C2939,-121.95 2939,-110.59 2939,-101.96"/>
<polygon fill="#63b8ff" stroke="#63b8ff" points="2935.5,-132.97 2939,-142.97 2942.5,-132.97 2935.5,-132.97"/>
</a>
</g>
</g>
<!-- Node3&#45;&gt;Node4 -->
<g id="edge3_Node000003_Node000004" class="edge">
<title>Node3&#45;&gt;Node4</title>
<g id="a_edge3_Node000003_Node000004"><a xlink:title=" ">
<path fill="none" stroke="#63b8ff" d="M3121.46,-59.69C3108.03,-49.65 3093.16,-38.54 3081.78,-30.04"/>
<polygon fill="#63b8ff" stroke="#63b8ff" points="3119.49,-62.59 3129.6,-65.77 3123.68,-56.98 3119.49,-62.59"/>
</a>
</g>
</g>
<!-- Node3&#45;&gt;Node5 -->
<g id="edge4_Node000003_Node000005" class="edge">
<title>Node3&#45;&gt;Node5</title>
<g id="a_edge4_Node000003_Node000005"><a xlink:title=" ">
<path fill="none" stroke="#63b8ff" d="M3192.84,-60.15C3207.56,-50.02 3223.96,-38.74 3236.49,-30.11"/>
<polygon fill="#63b8ff" stroke="#63b8ff" points="3190.66,-57.4 3184.4,-65.96 3194.63,-63.17 3190.66,-57.4"/>
</a>
</g>
</g>
</g>
</svg>
