<?xml version="1.0" encoding="UTF-8" standalone="no"?>
<!DOCTYPE svg PUBLIC "-//W3C//DTD SVG 1.1//EN"
 "http://www.w3.org/Graphics/SVG/1.1/DTD/svg11.dtd">
<!-- Generated by graphviz version 2.43.0 (0)
 -->
<!-- Title: include/webcface/logger.h Pages: 1 -->
<svg width="2151pt" height="192pt"
 viewBox="0.00 0.00 2151.00 192.00" xmlns="http://www.w3.org/2000/svg" xmlns:xlink="http://www.w3.org/1999/xlink">
<g id="graph0" class="graph" transform="scale(1 1) rotate(0) translate(4 188)">
<title>include/webcface/logger.h</title>
<!-- Node1 -->
<g id="Node000001" class="node">
<title>Node1</title>
<g id="a_Node000001"><a xlink:title=" ">
<polygon fill="#999999" stroke="#666666" points="848.5,-184 705.5,-184 705.5,-165 848.5,-165 848.5,-184"/>
<text text-anchor="middle" x="777" y="-172" font-family="Helvetica,sans-Serif" font-size="10.00">include/webcface/logger.h</text>
</a>
</g>
</g>
<!-- Node2 -->
<g id="Node000002" class="node">
<title>Node2</title>
<g id="a_Node000002"><a xlink:href="client__internal_8h.html" target="_top" xlink:title=" ">
<polygon fill="white" stroke="#666666" points="1245.5,-129 1120.5,-129 1120.5,-110 1245.5,-110 1245.5,-129"/>
<text text-anchor="middle" x="1183" y="-117" font-family="Helvetica,sans-Serif" font-size="10.00">client/client_internal.h</text>
</a>
</g>
</g>
<!-- Node1&#45;&gt;Node2 -->
<g id="edge1_Node000001_Node000002" class="edge">
<title>Node1&#45;&gt;Node2</title>
<g id="a_edge1_Node000001_Node000002"><a xlink:title=" ">
<path fill="none" stroke="#63b8ff" d="M852.36,-163.66C929.52,-153.59 1048.06,-138.12 1120.27,-128.69"/>
<polygon fill="#63b8ff" stroke="#63b8ff" points="851.69,-160.22 842.23,-164.98 852.6,-167.16 851.69,-160.22"/>
</a>
</g>
</g>
<!-- Node13 -->
<g id="Node000013" class="node">
<title>Node13</title>
<g id="a_Node000013"><a xlink:href="logger_8cc.html" target="_top" xlink:title=" ">
<polygon fill="white" stroke="#666666" points="2143,-74 2053,-74 2053,-55 2143,-55 2143,-74"/>
<text text-anchor="middle" x="2098" y="-62" font-family="Helvetica,sans-Serif" font-size="10.00">client/logger.cc</text>
</a>
</g>
</g>
<!-- Node1&#45;&gt;Node13 -->
<g id="edge18_Node000001_Node000013" class="edge">
<title>Node1&#45;&gt;Node13</title>
<g id="a_edge18_Node000001_Node000013"><a xlink:title=" ">
<path fill="none" stroke="#63b8ff" d="M858.85,-169.28C1060.68,-158.41 1598.16,-126.52 2044,-74 2046.92,-73.66 2049.93,-73.27 2052.95,-72.86"/>
<polygon fill="#63b8ff" stroke="#63b8ff" points="858.43,-165.8 848.63,-169.83 858.8,-172.79 858.43,-165.8"/>
</a>
</g>
</g>
<!-- Node19 -->
<g id="Node000019" class="node">
<title>Node19</title>
<g id="a_Node000019"><a xlink:href="client_8h.html" target="_top" xlink:title=" ">
<polygon fill="white" stroke="#666666" points="441,-129 301,-129 301,-110 441,-110 441,-129"/>
<text text-anchor="middle" x="371" y="-117" font-family="Helvetica,sans-Serif" font-size="10.00">include/webcface/client.h</text>
</a>
</g>
</g>
<!-- Node1&#45;&gt;Node19 -->
<g id="edge19_Node000001_Node000019" class="edge">
<title>Node1&#45;&gt;Node19</title>
<g id="a_edge19_Node000001_Node000019"><a xlink:title=" ">
<path fill="none" stroke="#63b8ff" d="M701.76,-163.68C625.55,-153.73 508.88,-138.5 436.41,-129.04"/>
<polygon fill="#63b8ff" stroke="#63b8ff" points="701.4,-167.16 711.77,-164.98 702.31,-160.22 701.4,-167.16"/>
</a>
</g>
</g>
<!-- Node26 -->
<g id="Node000026" class="node">
<title>Node26</title>
<g id="a_Node000026"><a xlink:href="webcface_8h.html" target="_top" xlink:title=" ">
<polygon fill="white" stroke="#666666" points="164,-74 4,-74 4,-55 164,-55 164,-74"/>
<text text-anchor="middle" x="84" y="-62" font-family="Helvetica,sans-Serif" font-size="10.00">include/webcface/webcface.h</text>
</a>
</g>
</g>
<!-- Node1&#45;&gt;Node26 -->
<g id="edge29_Node000001_Node000026" class="edge">
<title>Node1&#45;&gt;Node26</title>
<g id="a_edge29_Node000001_Node000026"><a xlink:title=" ">
<path fill="none" stroke="#63b8ff" d="M695.23,-171.1C598.23,-167.08 432.04,-156.5 292,-129 223.09,-115.47 144.51,-88.08 106.69,-74.11"/>
<polygon fill="#63b8ff" stroke="#63b8ff" points="695.13,-174.6 705.26,-171.5 695.41,-167.6 695.13,-174.6"/>
</a>
</g>
</g>
<!-- Node3 -->
<g id="Node000003" class="node">
<title>Node3</title>
<g id="a_Node000003"><a xlink:href="canvas2d_8cc.html" target="_top" xlink:title=" ">
<polygon fill="white" stroke="#666666" points="1909.5,-74 1802.5,-74 1802.5,-55 1909.5,-55 1909.5,-74"/>
<text text-anchor="middle" x="1856" y="-62" font-family="Helvetica,sans-Serif" font-size="10.00">client/canvas2d.cc</text>
</a>
</g>
</g>
<!-- Node2&#45;&gt;Node3 -->
<g id="edge2_Node000002_Node000003" class="edge">
<title>Node2&#45;&gt;Node3</title>
<g id="a_edge2_Node000002_Node000003"><a xlink:title=" ">
<path fill="none" stroke="#63b8ff" d="M1255.62,-114.71C1370.22,-108.39 1599.94,-94.35 1794,-74 1796.7,-73.72 1799.47,-73.41 1802.26,-73.08"/>
<polygon fill="#63b8ff" stroke="#63b8ff" points="1255.36,-111.22 1245.57,-115.26 1255.74,-118.21 1255.36,-111.22"/>
</a>
</g>
</g>
<!-- Node4 -->
<g id="Node000004" class="node">
<title>Node4</title>
<g id="a_Node000004"><a xlink:href="canvas3d_8cc.html" target="_top" xlink:title=" ">
<polygon fill="white" stroke="#666666" points="2034.5,-74 1927.5,-74 1927.5,-55 2034.5,-55 2034.5,-74"/>
<text text-anchor="middle" x="1981" y="-62" font-family="Helvetica,sans-Serif" font-size="10.00">client/canvas3d.cc</text>
</a>
</g>
</g>
<!-- Node2&#45;&gt;Node4 -->
<g id="edge3_Node000002_Node000004" class="edge">
<title>Node2&#45;&gt;Node4</title>
<g id="a_edge3_Node000002_Node000004"><a xlink:title=" ">
<path fill="none" stroke="#63b8ff" d="M1255.66,-115.94C1387.89,-110.86 1676.58,-97.91 1919,-74 1921.7,-73.73 1924.47,-73.44 1927.26,-73.12"/>
<polygon fill="#63b8ff" stroke="#63b8ff" points="1255.51,-112.44 1245.65,-116.32 1255.77,-119.43 1255.51,-112.44"/>
</a>
</g>
</g>
<!-- Node5 -->
<g id="Node000005" class="node">
<title>Node5</title>
<g id="a_Node000005"><a xlink:href="canvas__data_8cc.html" target="_top" xlink:title=" ">
<polygon fill="white" stroke="#666666" points="679,-74 557,-74 557,-55 679,-55 679,-74"/>
<text text-anchor="middle" x="618" y="-62" font-family="Helvetica,sans-Serif" font-size="10.00">client/canvas_data.cc</text>
</a>
</g>
</g>
<!-- Node2&#45;&gt;Node5 -->
<g id="edge4_Node000002_Node000005" class="edge">
<title>Node2&#45;&gt;Node5</title>
<g id="a_edge4_Node000002_Node000005"><a xlink:title=" ">
<path fill="none" stroke="#63b8ff" d="M1110.19,-112.67C1013.61,-104.77 837.85,-89.83 688,-74 685.08,-73.69 682.09,-73.37 679.07,-73.03"/>
<polygon fill="#63b8ff" stroke="#63b8ff" points="1110.18,-116.18 1120.43,-113.5 1110.74,-109.2 1110.18,-116.18"/>
</a>
</g>
</g>
<!-- Node6 -->
<g id="Node000006" class="node">
<title>Node6</title>
<g id="a_Node000006"><a xlink:href="client_2client_8cc.html" target="_top" xlink:title=" ">
<polygon fill="white" stroke="#666666" points="414.5,-74 327.5,-74 327.5,-55 414.5,-55 414.5,-74"/>
<text text-anchor="middle" x="371" y="-62" font-family="Helvetica,sans-Serif" font-size="10.00">client/client.cc</text>
</a>
</g>
</g>
<!-- Node2&#45;&gt;Node6 -->
<g id="edge5_Node000002_Node000006" class="edge">
<title>Node2&#45;&gt;Node6</title>
<g id="a_edge5_Node000002_Node000006"><a xlink:title=" ">
<path fill="none" stroke="#63b8ff" d="M1110.09,-116.66C974.61,-112.7 674.97,-101.41 424,-74 420.94,-73.67 417.79,-73.28 414.63,-72.85"/>
<polygon fill="#63b8ff" stroke="#63b8ff" points="1110.25,-120.17 1120.35,-116.96 1110.45,-113.17 1110.25,-120.17"/>
</a>
</g>
</g>
<!-- Node7 -->
<g id="Node000007" class="node">
<title>Node7</title>
<g id="a_Node000007"><a xlink:href="client__ws_8cc.html" target="_top" xlink:title=" ">
<polygon fill="white" stroke="#666666" points="539,-74 433,-74 433,-55 539,-55 539,-74"/>
<text text-anchor="middle" x="486" y="-62" font-family="Helvetica,sans-Serif" font-size="10.00">client/client_ws.cc</text>
</a>
</g>
</g>
<!-- Node2&#45;&gt;Node7 -->
<g id="edge6_Node000002_Node000007" class="edge">
<title>Node2&#45;&gt;Node7</title>
<g id="a_edge6_Node000002_Node000007"><a xlink:title=" ">
<path fill="none" stroke="#63b8ff" d="M1110.23,-114.97C992.06,-108.89 751.21,-95.03 548,-74 545.08,-73.7 542.09,-73.37 539.07,-73.01"/>
<polygon fill="#63b8ff" stroke="#63b8ff" points="1110.07,-118.47 1120.24,-115.48 1110.43,-111.48 1110.07,-118.47"/>
</a>
</g>
</g>
<!-- Node8 -->
<g id="Node000008" class="node">
<title>Node8</title>
<g id="a_Node000008"><a xlink:href="field_8cc.html" target="_top" xlink:title=" ">
<polygon fill="white" stroke="#666666" points="778.5,-74 697.5,-74 697.5,-55 778.5,-55 778.5,-74"/>
<text text-anchor="middle" x="738" y="-62" font-family="Helvetica,sans-Serif" font-size="10.00">client/field.cc</text>
</a>
</g>
</g>
<!-- Node2&#45;&gt;Node8 -->
<g id="edge7_Node000002_Node000008" class="edge">
<title>Node2&#45;&gt;Node8</title>
<g id="a_edge7_Node000002_Node000008"><a xlink:title=" ">
<path fill="none" stroke="#63b8ff" d="M1110.04,-111.62C1030.46,-103.81 899.41,-90.05 787,-74 784.26,-73.61 781.45,-73.18 778.61,-72.74"/>
<polygon fill="#63b8ff" stroke="#63b8ff" points="1110.15,-115.15 1120.44,-112.64 1110.83,-108.18 1110.15,-115.15"/>
</a>
</g>
</g>
<!-- Node9 -->
<g id="Node000009" class="node">
<title>Node9</title>
<g id="a_Node000009"><a xlink:href="client_2func_8cc.html" target="_top" xlink:title=" ">
<polygon fill="white" stroke="#666666" points="877.5,-74 796.5,-74 796.5,-55 877.5,-55 877.5,-74"/>
<text text-anchor="middle" x="837" y="-62" font-family="Helvetica,sans-Serif" font-size="10.00">client/func.cc</text>
</a>
</g>
</g>
<!-- Node2&#45;&gt;Node9 -->
<g id="edge8_Node000002_Node000009" class="edge">
<title>Node2&#45;&gt;Node9</title>
<g id="a_edge8_Node000002_Node000009"><a xlink:title=" ">
<path fill="none" stroke="#63b8ff" d="M1113.86,-108.49C1053.84,-99.71 964.61,-86.43 887,-74 883.96,-73.51 880.81,-73 877.65,-72.48"/>
<polygon fill="#63b8ff" stroke="#63b8ff" points="1113.58,-111.98 1123.98,-109.97 1114.59,-105.06 1113.58,-111.98"/>
</a>
</g>
</g>
<!-- Node10 -->
<g id="Node000010" class="node">
<title>Node10</title>
<g id="a_Node000010"><a xlink:href="func__listener_8cc.html" target="_top" xlink:title=" ">
<polygon fill="white" stroke="#666666" points="1018,-74 896,-74 896,-55 1018,-55 1018,-74"/>
<text text-anchor="middle" x="957" y="-62" font-family="Helvetica,sans-Serif" font-size="10.00">client/func_listener.cc</text>
</a>
</g>
</g>
<!-- Node2&#45;&gt;Node10 -->
<g id="edge9_Node000002_Node000010" class="edge">
<title>Node2&#45;&gt;Node10</title>
<g id="a_edge9_Node000002_Node000010"><a xlink:title=" ">
<path fill="none" stroke="#63b8ff" d="M1136.91,-107.69C1094.56,-97.76 1032.64,-83.24 993.6,-74.08"/>
<polygon fill="#63b8ff" stroke="#63b8ff" points="1136.15,-111.11 1146.69,-109.98 1137.75,-104.29 1136.15,-111.11"/>
</a>
</g>
</g>
<!-- Node11 -->
<g id="Node000011" class="node">
<title>Node11</title>
<g id="a_Node000011"><a xlink:href="image_8cc.html" target="_top" xlink:title=" ">
<polygon fill="white" stroke="#666666" points="1127.5,-74 1036.5,-74 1036.5,-55 1127.5,-55 1127.5,-74"/>
<text text-anchor="middle" x="1082" y="-62" font-family="Helvetica,sans-Serif" font-size="10.00">client/image.cc</text>
</a>
</g>
</g>
<!-- Node2&#45;&gt;Node11 -->
<g id="edge10_Node000002_Node000011" class="edge">
<title>Node2&#45;&gt;Node11</title>
<g id="a_edge10_Node000002_Node000011"><a xlink:title=" ">
<path fill="none" stroke="#63b8ff" d="M1157.72,-105.23C1139.2,-95.51 1114.58,-82.6 1098.52,-74.17"/>
<polygon fill="#63b8ff" stroke="#63b8ff" points="1156.29,-108.44 1166.77,-109.98 1159.54,-102.24 1156.29,-108.44"/>
</a>
</g>
</g>
<!-- Node12 -->
<g id="Node000012" class="node">
<title>Node12</title>
<g id="a_Node000012"><a xlink:href="log_8cc.html" target="_top" xlink:title=" ">
<polygon fill="white" stroke="#666666" points="1220.5,-74 1145.5,-74 1145.5,-55 1220.5,-55 1220.5,-74"/>
<text text-anchor="middle" x="1183" y="-62" font-family="Helvetica,sans-Serif" font-size="10.00">client/log.cc</text>
</a>
</g>
</g>
<!-- Node2&#45;&gt;Node12 -->
<g id="edge11_Node000002_Node000012" class="edge">
<title>Node2&#45;&gt;Node12</title>
<g id="a_edge11_Node000002_Node000012"><a xlink:title=" ">
<path fill="none" stroke="#63b8ff" d="M1183,-99.66C1183,-90.93 1183,-80.99 1183,-74.09"/>
<polygon fill="#63b8ff" stroke="#63b8ff" points="1179.5,-99.75 1183,-109.75 1186.5,-99.75 1179.5,-99.75"/>
</a>
</g>
</g>
<!-- Node2&#45;&gt;Node13 -->
<g id="edge12_Node000002_Node000013" class="edge">
<title>Node2&#45;&gt;Node13</title>
<g id="a_edge12_Node000002_Node000013"><a xlink:title=" ">
<path fill="none" stroke="#63b8ff" d="M1255.92,-117.3C1404.54,-114.29 1753.05,-104.33 2044,-74 2046.93,-73.69 2049.94,-73.34 2052.96,-72.95"/>
<polygon fill="#63b8ff" stroke="#63b8ff" points="1255.49,-113.81 1245.57,-117.5 1255.63,-120.81 1255.49,-113.81"/>
</a>
</g>
</g>
<!-- Node14 -->
<g id="Node000014" class="node">
<title>Node14</title>
<g id="a_Node000014"><a xlink:href="member_8cc.html" target="_top" xlink:title=" ">
<polygon fill="white" stroke="#666666" points="1339.5,-74 1238.5,-74 1238.5,-55 1339.5,-55 1339.5,-74"/>
<text text-anchor="middle" x="1289" y="-62" font-family="Helvetica,sans-Serif" font-size="10.00">client/member.cc</text>
</a>
</g>
</g>
<!-- Node2&#45;&gt;Node14 -->
<g id="edge13_Node000002_Node000014" class="edge">
<title>Node2&#45;&gt;Node14</title>
<g id="a_edge13_Node000002_Node000014"><a xlink:title=" ">
<path fill="none" stroke="#63b8ff" d="M1209,-105.5C1228.5,-95.75 1254.65,-82.68 1271.66,-74.17"/>
<polygon fill="#63b8ff" stroke="#63b8ff" points="1207.41,-102.38 1200.03,-109.98 1210.54,-108.64 1207.41,-102.38"/>
</a>
</g>
</g>
<!-- Node15 -->
<g id="Node000015" class="node">
<title>Node15</title>
<g id="a_Node000015"><a xlink:href="robot__model_8cc.html" target="_top" xlink:title=" ">
<polygon fill="white" stroke="#666666" points="1480,-74 1358,-74 1358,-55 1480,-55 1480,-74"/>
<text text-anchor="middle" x="1419" y="-62" font-family="Helvetica,sans-Serif" font-size="10.00">client/robot_model.cc</text>
</a>
</g>
</g>
<!-- Node2&#45;&gt;Node15 -->
<g id="edge14_Node000002_Node000015" class="edge">
<title>Node2&#45;&gt;Node15</title>
<g id="a_edge14_Node000002_Node000015"><a xlink:title=" ">
<path fill="none" stroke="#63b8ff" d="M1230.85,-107.75C1275.08,-97.82 1339.93,-83.26 1380.79,-74.08"/>
<polygon fill="#63b8ff" stroke="#63b8ff" points="1229.91,-104.38 1220.92,-109.98 1231.44,-111.21 1229.91,-104.38"/>
</a>
</g>
</g>
<!-- Node16 -->
<g id="Node000016" class="node">
<title>Node16</title>
<g id="a_Node000016"><a xlink:href="client_2text_8cc.html" target="_top" xlink:title=" ">
<polygon fill="white" stroke="#666666" points="1578,-74 1498,-74 1498,-55 1578,-55 1578,-74"/>
<text text-anchor="middle" x="1538" y="-62" font-family="Helvetica,sans-Serif" font-size="10.00">client/text.cc</text>
</a>
</g>
</g>
<!-- Node2&#45;&gt;Node16 -->
<g id="edge15_Node000002_Node000016" class="edge">
<title>Node2&#45;&gt;Node16</title>
<g id="a_edge15_Node000002_Node000016"><a xlink:title=" ">
<path fill="none" stroke="#63b8ff" d="M1255.28,-108.56C1317.34,-99.88 1409.15,-86.73 1489,-74 1491.9,-73.54 1494.89,-73.05 1497.9,-72.55"/>
<polygon fill="#63b8ff" stroke="#63b8ff" points="1254.62,-105.11 1245.2,-109.96 1255.59,-112.05 1254.62,-105.11"/>
</a>
</g>
</g>
<!-- Node17 -->
<g id="Node000017" class="node">
<title>Node17</title>
<g id="a_Node000017"><a xlink:href="client_2value_8cc.html" target="_top" xlink:title=" ">
<polygon fill="white" stroke="#666666" points="1683.5,-74 1596.5,-74 1596.5,-55 1683.5,-55 1683.5,-74"/>
<text text-anchor="middle" x="1640" y="-62" font-family="Helvetica,sans-Serif" font-size="10.00">client/value.cc</text>
</a>
</g>
</g>
<!-- Node2&#45;&gt;Node17 -->
<g id="edge16_Node000002_Node000017" class="edge">
<title>Node2&#45;&gt;Node17</title>
<g id="a_edge16_Node000002_Node000017"><a xlink:title=" ">
<path fill="none" stroke="#63b8ff" d="M1255.84,-111.57C1336.84,-103.61 1471.49,-89.61 1587,-74 1590.05,-73.59 1593.19,-73.14 1596.35,-72.67"/>
<polygon fill="#63b8ff" stroke="#63b8ff" points="1255.36,-108.1 1245.75,-112.56 1256.04,-115.06 1255.36,-108.1"/>
</a>
</g>
</g>
<!-- Node18 -->
<g id="Node000018" class="node">
<title>Node18</title>
<g id="a_Node000018"><a xlink:href="client_2view_8cc.html" target="_top" xlink:title=" ">
<polygon fill="white" stroke="#666666" points="1784.5,-74 1701.5,-74 1701.5,-55 1784.5,-55 1784.5,-74"/>
<text text-anchor="middle" x="1743" y="-62" font-family="Helvetica,sans-Serif" font-size="10.00">client/view.cc</text>
</a>
</g>
</g>
<!-- Node2&#45;&gt;Node18 -->
<g id="edge17_Node000002_Node000018" class="edge">
<title>Node2&#45;&gt;Node18</title>
<g id="a_edge17_Node000002_Node000018"><a xlink:title=" ">
<path fill="none" stroke="#63b8ff" d="M1255.8,-114.02C1354.93,-107.49 1537.83,-93.93 1693,-74 1695.71,-73.65 1698.49,-73.26 1701.3,-72.85"/>
<polygon fill="#63b8ff" stroke="#63b8ff" points="1255.34,-110.54 1245.59,-114.68 1255.8,-117.53 1255.34,-110.54"/>
</a>
</g>
</g>
<!-- Node19&#45;&gt;Node6 -->
<g id="edge26_Node000019_Node000006" class="edge">
<title>Node19&#45;&gt;Node6</title>
<g id="a_edge26_Node000019_Node000006"><a xlink:title=" ">
<path fill="none" stroke="#63b8ff" d="M371,-99.66C371,-90.93 371,-80.99 371,-74.09"/>
<polygon fill="#63b8ff" stroke="#63b8ff" points="367.5,-99.75 371,-109.75 374.5,-99.75 367.5,-99.75"/>
</a>
</g>
</g>
<!-- Node19&#45;&gt;Node7 -->
<g id="edge27_Node000019_Node000007" class="edge">
<title>Node19&#45;&gt;Node7</title>
<g id="a_edge27_Node000019_Node000007"><a xlink:title=" ">
<path fill="none" stroke="#63b8ff" d="M398.63,-105.77C419.84,-95.99 448.56,-82.75 467.19,-74.17"/>
<polygon fill="#63b8ff" stroke="#63b8ff" points="397.09,-102.62 389.48,-109.98 400.02,-108.98 397.09,-102.62"/>
</a>
</g>
</g>
<!-- Node20 -->
<g id="Node000020" class="node">
<title>Node20</title>
<g id="a_Node000020"><a xlink:href="c__wcf__internal_8h.html" target="_top" xlink:title=" ">
<polygon fill="white" stroke="#666666" points="309.5,-74 182.5,-74 182.5,-55 309.5,-55 309.5,-74"/>
<text text-anchor="middle" x="246" y="-62" font-family="Helvetica,sans-Serif" font-size="10.00">c_wcf/c_wcf_internal.h</text>
</a>
</g>
</g>
<!-- Node19&#45;&gt;Node20 -->
<g id="edge20_Node000019_Node000020" class="edge">
<title>Node19&#45;&gt;Node20</title>
<g id="a_edge20_Node000019_Node000020"><a xlink:title=" ">
<path fill="none" stroke="#63b8ff" d="M341.59,-106.03C318.47,-96.23 286.87,-82.83 266.45,-74.17"/>
<polygon fill="#63b8ff" stroke="#63b8ff" points="340.34,-109.3 350.92,-109.98 343.08,-102.86 340.34,-109.3"/>
</a>
</g>
</g>
<!-- Node19&#45;&gt;Node26 -->
<g id="edge28_Node000019_Node000026" class="edge">
<title>Node19&#45;&gt;Node26</title>
<g id="a_edge28_Node000019_Node000026"><a xlink:title=" ">
<path fill="none" stroke="#63b8ff" d="M314.83,-108.13C261.02,-98.19 180.78,-83.37 130.47,-74.08"/>
<polygon fill="#63b8ff" stroke="#63b8ff" points="314.42,-111.61 324.89,-109.98 315.69,-104.73 314.42,-111.61"/>
</a>
</g>
</g>
<!-- Node21 -->
<g id="Node000021" class="node">
<title>Node21</title>
<g id="a_Node000021"><a xlink:href="c__wcf_2client_8cc.html" target="_top" xlink:title=" ">
<polygon fill="white" stroke="#666666" points="88,-19 0,-19 0,0 88,0 88,-19"/>
<text text-anchor="middle" x="44" y="-7" font-family="Helvetica,sans-Serif" font-size="10.00">c_wcf/client.cc</text>
</a>
</g>
</g>
<!-- Node20&#45;&gt;Node21 -->
<g id="edge21_Node000020_Node000021" class="edge">
<title>Node20&#45;&gt;Node21</title>
<g id="a_edge21_Node000020_Node000021"><a xlink:title=" ">
<path fill="none" stroke="#63b8ff" d="M203.84,-52.44C166.02,-42.52 111.31,-28.16 76.71,-19.08"/>
<polygon fill="#63b8ff" stroke="#63b8ff" points="202.98,-55.83 213.55,-54.98 204.76,-49.06 202.98,-55.83"/>
</a>
</g>
</g>
<!-- Node22 -->
<g id="Node000022" class="node">
<title>Node22</title>
<g id="a_Node000022"><a xlink:href="c__wcf_2func_8cc.html" target="_top" xlink:title=" ">
<polygon fill="white" stroke="#666666" points="188,-19 106,-19 106,0 188,0 188,-19"/>
<text text-anchor="middle" x="147" y="-7" font-family="Helvetica,sans-Serif" font-size="10.00">c_wcf/func.cc</text>
</a>
</g>
</g>
<!-- Node20&#45;&gt;Node22 -->
<g id="edge22_Node000020_Node000022" class="edge">
<title>Node20&#45;&gt;Node22</title>
<g id="a_edge22_Node000020_Node000022"><a xlink:title=" ">
<path fill="none" stroke="#63b8ff" d="M221.22,-50.23C203.06,-40.51 178.94,-27.6 163.2,-19.17"/>
<polygon fill="#63b8ff" stroke="#63b8ff" points="219.63,-53.35 230.09,-54.98 222.93,-47.18 219.63,-53.35"/>
</a>
</g>
</g>
<!-- Node23 -->
<g id="Node000023" class="node">
<title>Node23</title>
<g id="a_Node000023"><a xlink:href="c__wcf_2text_8cc.html" target="_top" xlink:title=" ">
<polygon fill="white" stroke="#666666" points="286,-19 206,-19 206,0 286,0 286,-19"/>
<text text-anchor="middle" x="246" y="-7" font-family="Helvetica,sans-Serif" font-size="10.00">c_wcf/text.cc</text>
</a>
</g>
</g>
<!-- Node20&#45;&gt;Node23 -->
<g id="edge23_Node000020_Node000023" class="edge">
<title>Node20&#45;&gt;Node23</title>
<g id="a_edge23_Node000020_Node000023"><a xlink:title=" ">
<path fill="none" stroke="#63b8ff" d="M246,-44.66C246,-35.93 246,-25.99 246,-19.09"/>
<polygon fill="#63b8ff" stroke="#63b8ff" points="242.5,-44.75 246,-54.75 249.5,-44.75 242.5,-44.75"/>
</a>
</g>
</g>
<!-- Node24 -->
<g id="Node000024" class="node">
<title>Node24</title>
<g id="a_Node000024"><a xlink:href="c__wcf_2value_8cc.html" target="_top" xlink:title=" ">
<polygon fill="white" stroke="#666666" points="392,-19 304,-19 304,0 392,0 392,-19"/>
<text text-anchor="middle" x="348" y="-7" font-family="Helvetica,sans-Serif" font-size="10.00">c_wcf/value.cc</text>
</a>
</g>
</g>
<!-- Node20&#45;&gt;Node24 -->
<g id="edge24_Node000020_Node000024" class="edge">
<title>Node20&#45;&gt;Node24</title>
<g id="a_edge24_Node000020_Node000024"><a xlink:title=" ">
<path fill="none" stroke="#63b8ff" d="M271.27,-50.37C290.01,-40.63 315.02,-27.64 331.31,-19.17"/>
<polygon fill="#63b8ff" stroke="#63b8ff" points="269.65,-47.27 262.39,-54.98 272.88,-53.48 269.65,-47.27"/>
</a>
</g>
</g>
<!-- Node25 -->
<g id="Node000025" class="node">
<title>Node25</title>
<g id="a_Node000025"><a xlink:href="c__wcf_2view_8cc.html" target="_top" xlink:title=" ">
<polygon fill="white" stroke="#666666" points="493.5,-19 410.5,-19 410.5,0 493.5,0 493.5,-19"/>
<text text-anchor="middle" x="452" y="-7" font-family="Helvetica,sans-Serif" font-size="10.00">c_wcf/view.cc</text>
</a>
</g>
</g>
<!-- Node20&#45;&gt;Node25 -->
<g id="edge25_Node000020_Node000025" class="edge">
<title>Node20&#45;&gt;Node25</title>
<g id="a_edge25_Node000020_Node000025"><a xlink:title=" ">
<path fill="none" stroke="#63b8ff" d="M289,-52.44C327.56,-42.52 383.36,-28.16 418.64,-19.08"/>
<polygon fill="#63b8ff" stroke="#63b8ff" points="287.91,-49.1 279.1,-54.98 289.65,-55.88 287.91,-49.1"/>
</a>
</g>
</g>
</g>
</svg>
