<?xml version="1.0" encoding="UTF-8" standalone="no"?>
<!DOCTYPE svg PUBLIC "-//W3C//DTD SVG 1.1//EN"
 "http://www.w3.org/Graphics/SVG/1.1/DTD/svg11.dtd">
<!-- Generated by graphviz version 2.43.0 (0)
 -->
<!-- Title: include/webcface/logger.h Pages: 1 -->
<svg width="846pt" height="148pt"
 viewBox="0.00 0.00 846.00 148.00" xmlns="http://www.w3.org/2000/svg" xmlns:xlink="http://www.w3.org/1999/xlink">
<g id="graph0" class="graph" transform="scale(1 1) rotate(0) translate(4 144)">
<title>include/webcface/logger.h</title>
<!-- Node1 -->
<g id="Node000001" class="node">
<title>Node1</title>
<g id="a_Node000001"><a xlink:title=" ">
<polygon fill="#999999" stroke="#666666" points="385,-140 242,-140 242,-121 385,-121 385,-140"/>
<text text-anchor="middle" x="313.5" y="-128" font-family="Helvetica,sans-Serif" font-size="10.00">include/webcface/logger.h</text>
</a>
</g>
</g>
<!-- Node2 -->
<g id="Node000002" class="node">
<title>Node2</title>
<g id="a_Node000002"><a xlink:title=" ">
<polygon fill="#e0e0e0" stroke="#999999" points="67,-79.5 0,-79.5 0,-60.5 67,-60.5 67,-79.5"/>
<text text-anchor="middle" x="33.5" y="-67.5" font-family="Helvetica,sans-Serif" font-size="10.00">streambuf</text>
</a>
</g>
</g>
<!-- Node1&#45;&gt;Node2 -->
<g id="edge1_Node000001_Node000002" class="edge">
<title>Node1&#45;&gt;Node2</title>
<g id="a_edge1_Node000001_Node000002"><a xlink:title=" ">
<path fill="none" stroke="#63b8ff" d="M256.54,-120.93C208.25,-113.15 137.34,-100.55 76.5,-85 73.55,-84.25 70.51,-83.4 67.47,-82.51"/>
<polygon fill="#63b8ff" stroke="#63b8ff" points="68.49,-79.16 57.9,-79.55 66.42,-85.84 68.49,-79.16"/>
</a>
</g>
</g>
<!-- Node3 -->
<g id="Node000003" class="node">
<title>Node3</title>
<g id="a_Node000003"><a xlink:title=" ">
<polygon fill="#e0e0e0" stroke="#999999" points="143.5,-79.5 85.5,-79.5 85.5,-60.5 143.5,-60.5 143.5,-79.5"/>
<text text-anchor="middle" x="114.5" y="-67.5" font-family="Helvetica,sans-Serif" font-size="10.00">memory</text>
</a>
</g>
</g>
<!-- Node1&#45;&gt;Node3 -->
<g id="edge2_Node000001_Node000003" class="edge">
<title>Node1&#45;&gt;Node3</title>
<g id="a_edge2_Node000001_Node000003"><a xlink:title=" ">
<path fill="none" stroke="#63b8ff" d="M282.32,-120.97C250.76,-112.25 200.6,-98.16 157.5,-85 155.07,-84.26 152.57,-83.48 150.05,-82.69"/>
<polygon fill="#63b8ff" stroke="#63b8ff" points="150.96,-79.3 140.37,-79.59 148.83,-85.97 150.96,-79.3"/>
</a>
</g>
</g>
<!-- Node4 -->
<g id="Node000004" class="node">
<title>Node4</title>
<g id="a_Node000004"><a xlink:title=" ">
<polygon fill="#e0e0e0" stroke="#999999" points="159.5,-19 115.5,-19 115.5,0 159.5,0 159.5,-19"/>
<text text-anchor="middle" x="137.5" y="-7" font-family="Helvetica,sans-Serif" font-size="10.00">string</text>
</a>
</g>
</g>
<!-- Node1&#45;&gt;Node4 -->
<g id="edge3_Node000001_Node000004" class="edge">
<title>Node1&#45;&gt;Node4</title>
<g id="a_edge3_Node000001_Node000004"><a xlink:title=" ">
<path fill="none" stroke="#63b8ff" d="M271.39,-120.98C246.08,-114.31 214.28,-103.07 190.5,-85 170.61,-69.89 155.15,-45.21 146.19,-28.43"/>
<polygon fill="#63b8ff" stroke="#63b8ff" points="149.12,-26.48 141.46,-19.16 142.89,-29.66 149.12,-26.48"/>
</a>
</g>
</g>
<!-- Node5 -->
<g id="Node000005" class="node">
<title>Node5</title>
<g id="a_Node000005"><a xlink:title=" ">
<polygon fill="#e0e0e0" stroke="#999999" points="552,-79.5 461,-79.5 461,-60.5 552,-60.5 552,-79.5"/>
<text text-anchor="middle" x="506.5" y="-67.5" font-family="Helvetica,sans-Serif" font-size="10.00">spdlog/logger.h</text>
</a>
</g>
</g>
<!-- Node1&#45;&gt;Node5 -->
<g id="edge4_Node000001_Node000005" class="edge">
<title>Node1&#45;&gt;Node5</title>
<g id="a_edge4_Node000001_Node000005"><a xlink:title=" ">
<path fill="none" stroke="#63b8ff" d="M341.56,-120.99C375.01,-110.86 431.06,-93.87 468.4,-82.55"/>
<polygon fill="#63b8ff" stroke="#63b8ff" points="469.85,-85.77 478.4,-79.52 467.82,-79.07 469.85,-85.77"/>
</a>
</g>
</g>
<!-- Node6 -->
<g id="Node000006" class="node">
<title>Node6</title>
<g id="a_Node000006"><a xlink:title=" ">
<polygon fill="#e0e0e0" stroke="#999999" points="708.5,-79.5 570.5,-79.5 570.5,-60.5 708.5,-60.5 708.5,-79.5"/>
<text text-anchor="middle" x="639.5" y="-67.5" font-family="Helvetica,sans-Serif" font-size="10.00">spdlog/sinks/base_sink.h</text>
</a>
</g>
</g>
<!-- Node1&#45;&gt;Node6 -->
<g id="edge5_Node000001_Node000006" class="edge">
<title>Node1&#45;&gt;Node6</title>
<g id="a_edge5_Node000001_Node000006"><a xlink:title=" ">
<path fill="none" stroke="#63b8ff" d="M360.9,-120.99C419.45,-110.49 518.99,-92.62 581.89,-81.34"/>
<polygon fill="#63b8ff" stroke="#63b8ff" points="582.82,-84.73 592.04,-79.52 581.58,-77.84 582.82,-84.73"/>
</a>
</g>
</g>
<!-- Node7 -->
<g id="Node000007" class="node">
<title>Node7</title>
<g id="a_Node000007"><a xlink:title=" ">
<polygon fill="#e0e0e0" stroke="#999999" points="838,-85 727,-85 727,-55 838,-55 838,-85"/>
<text text-anchor="start" x="735" y="-73" font-family="Helvetica,sans-Serif" font-size="10.00">spdlog/sinks/stdout</text>
<text text-anchor="middle" x="782.5" y="-62" font-family="Helvetica,sans-Serif" font-size="10.00">_color_sinks.h</text>
</a>
</g>
</g>
<!-- Node1&#45;&gt;Node7 -->
<g id="edge6_Node000001_Node000007" class="edge">
<title>Node1&#45;&gt;Node7</title>
<g id="a_edge6_Node000001_Node000007"><a xlink:title=" ">
<path fill="none" stroke="#63b8ff" d="M385.32,-123.83C464.2,-117.09 594.77,-104.46 716.99,-84.97"/>
<polygon fill="#63b8ff" stroke="#63b8ff" points="717.59,-88.41 726.9,-83.37 716.47,-81.5 717.59,-88.41"/>
</a>
</g>
</g>
<!-- Node8 -->
<g id="Node000008" class="node">
<title>Node8</title>
<g id="a_Node000008"><a xlink:href="queue_8h.html" target="_top" xlink:title=" ">
<polygon fill="white" stroke="#666666" points="443,-79.5 342,-79.5 342,-60.5 443,-60.5 443,-79.5"/>
<text text-anchor="middle" x="392.5" y="-67.5" font-family="Helvetica,sans-Serif" font-size="10.00">common/queue.h</text>
</a>
</g>
</g>
<!-- Node1&#45;&gt;Node8 -->
<g id="edge7_Node000001_Node000008" class="edge">
<title>Node1&#45;&gt;Node8</title>
<g id="a_edge7_Node000001_Node000008"><a xlink:title=" ">
<path fill="none" stroke="#63b8ff" d="M325.16,-120.87C337.64,-111.62 357.68,-96.78 372.66,-85.69"/>
<polygon fill="#63b8ff" stroke="#63b8ff" points="374.84,-88.43 380.8,-79.67 370.68,-82.81 374.84,-88.43"/>
</a>
</g>
</g>
<!-- Node14 -->
<g id="Node000014" class="node">
<title>Node14</title>
<g id="a_Node000014"><a xlink:title=" ">
<polygon fill="#e0e0e0" stroke="#999999" points="381.5,-19 245.5,-19 245.5,0 381.5,0 381.5,-19"/>
<text text-anchor="middle" x="313.5" y="-7" font-family="Helvetica,sans-Serif" font-size="10.00">webcface/common/def.h</text>
</a>
</g>
</g>
<!-- Node1&#45;&gt;Node14 -->
<g id="edge18_Node000001_Node000014" class="edge">
<title>Node1&#45;&gt;Node14</title>
<g id="a_edge18_Node000001_Node000014"><a xlink:title=" ">
<path fill="none" stroke="#63b8ff" d="M313.5,-120.94C313.5,-101.91 313.5,-55.69 313.5,-29.47"/>
<polygon fill="#63b8ff" stroke="#63b8ff" points="317,-29.3 313.5,-19.3 310,-29.3 317,-29.3"/>
</a>
</g>
</g>
<!-- Node15 -->
<g id="Node000015" class="node">
<title>Node15</title>
<g id="a_Node000015"><a xlink:href="common_2log_8h.html" target="_top" xlink:title=" ">
<polygon fill="white" stroke="#666666" points="285.5,-79.5 199.5,-79.5 199.5,-60.5 285.5,-60.5 285.5,-79.5"/>
<text text-anchor="middle" x="242.5" y="-67.5" font-family="Helvetica,sans-Serif" font-size="10.00">common/log.h</text>
</a>
</g>
</g>
<!-- Node1&#45;&gt;Node15 -->
<g id="edge14_Node000001_Node000015" class="edge">
<title>Node1&#45;&gt;Node15</title>
<g id="a_edge14_Node000001_Node000015"><a xlink:title=" ">
<path fill="none" stroke="#63b8ff" d="M303.02,-120.87C292.01,-111.8 274.46,-97.34 261.09,-86.32"/>
<polygon fill="#63b8ff" stroke="#63b8ff" points="262.96,-83.33 253.02,-79.67 258.51,-88.73 262.96,-83.33"/>
</a>
</g>
</g>
<!-- Node9 -->
<g id="Node000009" class="node">
<title>Node9</title>
<g id="a_Node000009"><a xlink:title=" ">
<polygon fill="#e0e0e0" stroke="#999999" points="447,-19 400,-19 400,0 447,0 447,-19"/>
<text text-anchor="middle" x="423.5" y="-7" font-family="Helvetica,sans-Serif" font-size="10.00">queue</text>
</a>
</g>
</g>
<!-- Node8&#45;&gt;Node9 -->
<g id="edge8_Node000008_Node000009" class="edge">
<title>Node8&#45;&gt;Node9</title>
<g id="a_edge8_Node000008_Node000009"><a xlink:title=" ">
<path fill="none" stroke="#63b8ff" d="M397.07,-60.37C401.56,-51.9 408.53,-38.74 414.19,-28.07"/>
<polygon fill="#63b8ff" stroke="#63b8ff" points="417.32,-29.64 418.91,-19.17 411.13,-26.36 417.32,-29.64"/>
</a>
</g>
</g>
<!-- Node10 -->
<g id="Node000010" class="node">
<title>Node10</title>
<g id="a_Node000010"><a xlink:title=" ">
<polygon fill="#e0e0e0" stroke="#999999" points="513.5,-19 465.5,-19 465.5,0 513.5,0 513.5,-19"/>
<text text-anchor="middle" x="489.5" y="-7" font-family="Helvetica,sans-Serif" font-size="10.00">mutex</text>
</a>
</g>
</g>
<!-- Node8&#45;&gt;Node10 -->
<g id="edge9_Node000008_Node000010" class="edge">
<title>Node8&#45;&gt;Node10</title>
<g id="a_edge9_Node000008_Node000010"><a xlink:title=" ">
<path fill="none" stroke="#63b8ff" d="M406.81,-60.37C422.5,-50.91 447.9,-35.59 466.41,-24.42"/>
<polygon fill="#63b8ff" stroke="#63b8ff" points="468.37,-27.33 475.13,-19.17 464.76,-21.33 468.37,-27.33"/>
</a>
</g>
</g>
<!-- Node11 -->
<g id="Node000011" class="node">
<title>Node11</title>
<g id="a_Node000011"><a xlink:title=" ">
<polygon fill="#e0e0e0" stroke="#999999" points="639,-19 532,-19 532,0 639,0 639,-19"/>
<text text-anchor="middle" x="585.5" y="-7" font-family="Helvetica,sans-Serif" font-size="10.00">condition_variable</text>
</a>
</g>
</g>
<!-- Node8&#45;&gt;Node11 -->
<g id="edge10_Node000008_Node000011" class="edge">
<title>Node8&#45;&gt;Node11</title>
<g id="a_edge10_Node000008_Node000011"><a xlink:title=" ">
<path fill="none" stroke="#63b8ff" d="M420.56,-60.49C454.01,-50.36 510.06,-33.37 547.4,-22.05"/>
<polygon fill="#63b8ff" stroke="#63b8ff" points="548.85,-25.27 557.4,-19.02 546.82,-18.57 548.85,-25.27"/>
</a>
</g>
</g>
<!-- Node12 -->
<g id="Node000012" class="node">
<title>Node12</title>
<g id="a_Node000012"><a xlink:title=" ">
<polygon fill="#e0e0e0" stroke="#999999" points="227.5,-19 177.5,-19 177.5,0 227.5,0 227.5,-19"/>
<text text-anchor="middle" x="202.5" y="-7" font-family="Helvetica,sans-Serif" font-size="10.00">chrono</text>
</a>
</g>
</g>
<!-- Node8&#45;&gt;Node12 -->
<g id="edge11_Node000008_Node000012" class="edge">
<title>Node8&#45;&gt;Node12</title>
<g id="a_edge11_Node000008_Node000012"><a xlink:title=" ">
<path fill="none" stroke="#63b8ff" d="M364.87,-60.49C331.19,-50.12 274.24,-32.59 237.52,-21.28"/>
<polygon fill="#63b8ff" stroke="#63b8ff" points="238.32,-17.87 227.73,-18.27 236.26,-24.56 238.32,-17.87"/>
</a>
</g>
</g>
<!-- Node13 -->
<g id="Node000013" class="node">
<title>Node13</title>
<g id="a_Node000013"><a xlink:title=" ">
<polygon fill="#e0e0e0" stroke="#999999" points="713.5,-19 657.5,-19 657.5,0 713.5,0 713.5,-19"/>
<text text-anchor="middle" x="685.5" y="-7" font-family="Helvetica,sans-Serif" font-size="10.00">optional</text>
</a>
</g>
</g>
<!-- Node8&#45;&gt;Node13 -->
<g id="edge12_Node000008_Node000013" class="edge">
<title>Node8&#45;&gt;Node13</title>
<g id="a_edge12_Node000008_Node000013"><a xlink:title=" ">
<path fill="none" stroke="#63b8ff" d="M427.97,-60.43C436.02,-58.57 444.54,-56.66 452.5,-55 536.16,-37.57 560.1,-36.94 647.44,-19.14"/>
<polygon fill="#63b8ff" stroke="#63b8ff" points="648.16,-22.57 657.25,-17.13 646.75,-15.71 648.16,-22.57"/>
</a>
</g>
</g>
<!-- Node8&#45;&gt;Node14 -->
<g id="edge13_Node000008_Node000014" class="edge">
<title>Node8&#45;&gt;Node14</title>
<g id="a_edge13_Node000008_Node000014"><a xlink:title=" ">
<path fill="none" stroke="#63b8ff" d="M380.84,-60.37C368.36,-51.12 348.32,-36.28 333.34,-25.19"/>
<polygon fill="#63b8ff" stroke="#63b8ff" points="335.32,-22.31 325.2,-19.17 331.16,-27.93 335.32,-22.31"/>
</a>
</g>
</g>
<!-- Node15&#45;&gt;Node4 -->
<g id="edge15_Node000015_Node000004" class="edge">
<title>Node15&#45;&gt;Node4</title>
<g id="a_edge15_Node000015_Node000004"><a xlink:title=" ">
<path fill="none" stroke="#63b8ff" d="M227.01,-60.37C209.87,-50.82 182.03,-35.31 161.94,-24.12"/>
<polygon fill="#63b8ff" stroke="#63b8ff" points="163.5,-20.98 153.06,-19.17 160.09,-27.09 163.5,-20.98"/>
</a>
</g>
</g>
<!-- Node15&#45;&gt;Node12 -->
<g id="edge16_Node000015_Node000012" class="edge">
<title>Node15&#45;&gt;Node12</title>
<g id="a_edge16_Node000015_Node000012"><a xlink:title=" ">
<path fill="none" stroke="#63b8ff" d="M236.6,-60.37C230.75,-51.81 221.63,-38.47 214.29,-27.74"/>
<polygon fill="#63b8ff" stroke="#63b8ff" points="216.96,-25.45 208.43,-19.17 211.18,-29.4 216.96,-25.45"/>
</a>
</g>
</g>
<!-- Node15&#45;&gt;Node14 -->
<g id="edge17_Node000015_Node000014" class="edge">
<title>Node15&#45;&gt;Node14</title>
<g id="a_edge17_Node000015_Node000014"><a xlink:title=" ">
<path fill="none" stroke="#63b8ff" d="M252.98,-60.37C263.99,-51.3 281.54,-36.84 294.91,-25.82"/>
<polygon fill="#63b8ff" stroke="#63b8ff" points="297.49,-28.23 302.98,-19.17 293.04,-22.83 297.49,-28.23"/>
</a>
</g>
</g>
</g>
</svg>
