<?xml version="1.0" encoding="UTF-8" standalone="no"?>
<!DOCTYPE svg PUBLIC "-//W3C//DTD SVG 1.1//EN"
 "http://www.w3.org/Graphics/SVG/1.1/DTD/svg11.dtd">
<!-- Generated by graphviz version 2.43.0 (0)
 -->
<!-- Title: include/webcface/logger.h Pages: 1 -->
<svg width="913pt" height="148pt"
 viewBox="0.00 0.00 912.50 148.00" xmlns="http://www.w3.org/2000/svg" xmlns:xlink="http://www.w3.org/1999/xlink">
<g id="graph0" class="graph" transform="scale(1 1) rotate(0) translate(4 144)">
<title>include/webcface/logger.h</title>
<!-- Node1 -->
<g id="Node000001" class="node">
<title>Node1</title>
<g id="a_Node000001"><a xlink:title=" ">
<polygon fill="#999999" stroke="#666666" points="426,-140 283,-140 283,-121 426,-121 426,-140"/>
<text text-anchor="middle" x="354.5" y="-128" font-family="Helvetica,sans-Serif" font-size="10.00">include/webcface/logger.h</text>
</a>
</g>
</g>
<!-- Node2 -->
<g id="Node000002" class="node">
<title>Node2</title>
<g id="a_Node000002"><a xlink:title=" ">
<polygon fill="#e0e0e0" stroke="#999999" points="67,-79.5 0,-79.5 0,-60.5 67,-60.5 67,-79.5"/>
<text text-anchor="middle" x="33.5" y="-67.5" font-family="Helvetica,sans-Serif" font-size="10.00">streambuf</text>
</a>
</g>
</g>
<!-- Node1&#45;&gt;Node2 -->
<g id="edge1_Node000001_Node000002" class="edge">
<title>Node1&#45;&gt;Node2</title>
<g id="a_edge1_Node000001_Node000002"><a xlink:title=" ">
<path fill="none" stroke="#63b8ff" d="M282.76,-121.15C226.26,-113.82 145.75,-101.71 76.5,-85 73.47,-84.27 70.34,-83.43 67.22,-82.53"/>
<polygon fill="#63b8ff" stroke="#63b8ff" points="68,-79.11 57.42,-79.52 65.95,-85.8 68,-79.11"/>
</a>
</g>
</g>
<!-- Node3 -->
<g id="Node000003" class="node">
<title>Node3</title>
<g id="a_Node000003"><a xlink:title=" ">
<polygon fill="#e0e0e0" stroke="#999999" points="143.5,-79.5 85.5,-79.5 85.5,-60.5 143.5,-60.5 143.5,-79.5"/>
<text text-anchor="middle" x="114.5" y="-67.5" font-family="Helvetica,sans-Serif" font-size="10.00">memory</text>
</a>
</g>
</g>
<!-- Node1&#45;&gt;Node3 -->
<g id="edge2_Node000001_Node000003" class="edge">
<title>Node1&#45;&gt;Node3</title>
<g id="a_edge2_Node000001_Node000003"><a xlink:title=" ">
<path fill="none" stroke="#63b8ff" d="M311.56,-121C271.46,-112.77 210.07,-99.46 157.5,-85 154.73,-84.24 151.88,-83.41 149.02,-82.55"/>
<polygon fill="#63b8ff" stroke="#63b8ff" points="149.98,-79.18 139.39,-79.54 147.89,-85.86 149.98,-79.18"/>
</a>
</g>
</g>
<!-- Node4 -->
<g id="Node000004" class="node">
<title>Node4</title>
<g id="a_Node000004"><a xlink:title=" ">
<polygon fill="#e0e0e0" stroke="#999999" points="189.5,-19 145.5,-19 145.5,0 189.5,0 189.5,-19"/>
<text text-anchor="middle" x="167.5" y="-7" font-family="Helvetica,sans-Serif" font-size="10.00">string</text>
</a>
</g>
</g>
<!-- Node1&#45;&gt;Node4 -->
<g id="edge3_Node000001_Node000004" class="edge">
<title>Node1&#45;&gt;Node4</title>
<g id="a_edge3_Node000001_Node000004"><a xlink:title=" ">
<path fill="none" stroke="#63b8ff" d="M282.67,-125.4C250.78,-120.05 215.01,-108.68 190.5,-85 175.47,-70.48 170.2,-46.38 168.39,-29.54"/>
<polygon fill="#63b8ff" stroke="#63b8ff" points="171.86,-28.95 167.61,-19.24 164.88,-29.48 171.86,-28.95"/>
</a>
</g>
</g>
<!-- Node5 -->
<g id="Node000005" class="node">
<title>Node5</title>
<g id="a_Node000005"><a xlink:title=" ">
<polygon fill="#e0e0e0" stroke="#999999" points="514,-79.5 423,-79.5 423,-60.5 514,-60.5 514,-79.5"/>
<text text-anchor="middle" x="468.5" y="-67.5" font-family="Helvetica,sans-Serif" font-size="10.00">spdlog/logger.h</text>
</a>
</g>
</g>
<!-- Node1&#45;&gt;Node5 -->
<g id="edge4_Node000001_Node000005" class="edge">
<title>Node1&#45;&gt;Node5</title>
<g id="a_edge4_Node000001_Node000005"><a xlink:title=" ">
<path fill="none" stroke="#63b8ff" d="M371.32,-120.87C390.1,-111.23 420.7,-95.53 442.55,-84.31"/>
<polygon fill="#63b8ff" stroke="#63b8ff" points="444.31,-87.35 451.61,-79.67 441.11,-81.12 444.31,-87.35"/>
</a>
</g>
</g>
<!-- Node6 -->
<g id="Node000006" class="node">
<title>Node6</title>
<g id="a_Node000006"><a xlink:title=" ">
<polygon fill="#e0e0e0" stroke="#999999" points="670.5,-79.5 532.5,-79.5 532.5,-60.5 670.5,-60.5 670.5,-79.5"/>
<text text-anchor="middle" x="601.5" y="-67.5" font-family="Helvetica,sans-Serif" font-size="10.00">spdlog/sinks/base_sink.h</text>
</a>
</g>
</g>
<!-- Node1&#45;&gt;Node6 -->
<g id="edge5_Node000001_Node000006" class="edge">
<title>Node1&#45;&gt;Node6</title>
<g id="a_edge5_Node000001_Node000006"><a xlink:title=" ">
<path fill="none" stroke="#63b8ff" d="M390.42,-120.99C434.14,-110.64 508.03,-93.14 555.77,-81.83"/>
<polygon fill="#63b8ff" stroke="#63b8ff" points="556.62,-85.23 565.54,-79.52 555,-78.42 556.62,-85.23"/>
</a>
</g>
</g>
<!-- Node7 -->
<g id="Node000007" class="node">
<title>Node7</title>
<g id="a_Node000007"><a xlink:title=" ">
<polygon fill="#e0e0e0" stroke="#999999" points="800,-85 689,-85 689,-55 800,-55 800,-85"/>
<text text-anchor="start" x="697" y="-73" font-family="Helvetica,sans-Serif" font-size="10.00">spdlog/sinks/stdout</text>
<text text-anchor="middle" x="744.5" y="-62" font-family="Helvetica,sans-Serif" font-size="10.00">_color_sinks.h</text>
</a>
</g>
</g>
<!-- Node1&#45;&gt;Node7 -->
<g id="edge6_Node000001_Node000007" class="edge">
<title>Node1&#45;&gt;Node7</title>
<g id="a_edge6_Node000001_Node000007"><a xlink:title=" ">
<path fill="none" stroke="#63b8ff" d="M426.07,-121.29C489.83,-113.61 585.86,-101.15 679.01,-85"/>
<polygon fill="#63b8ff" stroke="#63b8ff" points="679.64,-88.44 688.89,-83.27 678.43,-81.55 679.64,-88.44"/>
</a>
</g>
</g>
<!-- Node8 -->
<g id="Node000008" class="node">
<title>Node8</title>
<g id="a_Node000008"><a xlink:href="queue_8h.html" target="_top" xlink:title=" ">
<polygon fill="white" stroke="#666666" points="405,-79.5 304,-79.5 304,-60.5 405,-60.5 405,-79.5"/>
<text text-anchor="middle" x="354.5" y="-67.5" font-family="Helvetica,sans-Serif" font-size="10.00">common/queue.h</text>
</a>
</g>
</g>
<!-- Node1&#45;&gt;Node8 -->
<g id="edge7_Node000001_Node000008" class="edge">
<title>Node1&#45;&gt;Node8</title>
<g id="a_edge7_Node000001_Node000008"><a xlink:title=" ">
<path fill="none" stroke="#63b8ff" d="M354.5,-120.87C354.5,-112.75 354.5,-100.31 354.5,-89.89"/>
<polygon fill="#63b8ff" stroke="#63b8ff" points="358,-89.67 354.5,-79.67 351,-89.67 358,-89.67"/>
</a>
</g>
</g>
<!-- Node15 -->
<g id="Node000015" class="node">
<title>Node15</title>
<g id="a_Node000015"><a xlink:href="common_2log_8h.html" target="_top" xlink:title=" ">
<polygon fill="white" stroke="#666666" points="285.5,-79.5 199.5,-79.5 199.5,-60.5 285.5,-60.5 285.5,-79.5"/>
<text text-anchor="middle" x="242.5" y="-67.5" font-family="Helvetica,sans-Serif" font-size="10.00">common/log.h</text>
</a>
</g>
</g>
<!-- Node1&#45;&gt;Node15 -->
<g id="edge14_Node000001_Node000015" class="edge">
<title>Node1&#45;&gt;Node15</title>
<g id="a_edge14_Node000001_Node000015"><a xlink:title=" ">
<path fill="none" stroke="#63b8ff" d="M337.97,-120.87C319.53,-111.23 289.46,-95.53 267.99,-84.31"/>
<polygon fill="#63b8ff" stroke="#63b8ff" points="269.58,-81.19 259.09,-79.67 266.34,-87.4 269.58,-81.19"/>
</a>
</g>
</g>
<!-- Node16 -->
<g id="Node000016" class="node">
<title>Node16</title>
<g id="a_Node000016"><a xlink:title=" ">
<polygon fill="#e0e0e0" stroke="#999999" points="904.5,-79.5 818.5,-79.5 818.5,-60.5 904.5,-60.5 904.5,-79.5"/>
<text text-anchor="middle" x="861.5" y="-67.5" font-family="Helvetica,sans-Serif" font-size="10.00">common/def.h</text>
</a>
</g>
</g>
<!-- Node1&#45;&gt;Node16 -->
<g id="edge18_Node000001_Node000016" class="edge">
<title>Node1&#45;&gt;Node16</title>
<g id="a_edge18_Node000001_Node000016"><a xlink:title=" ">
<path fill="none" stroke="#63b8ff" d="M426.33,-126.15C516.43,-121.11 675.39,-109.44 809.5,-85 813.97,-84.19 818.61,-83.18 823.2,-82.08"/>
<polygon fill="#63b8ff" stroke="#63b8ff" points="824.26,-85.42 833.08,-79.56 822.53,-78.64 824.26,-85.42"/>
</a>
</g>
</g>
<!-- Node9 -->
<g id="Node000009" class="node">
<title>Node9</title>
<g id="a_Node000009"><a xlink:title=" ">
<polygon fill="#e0e0e0" stroke="#999999" points="649,-19 602,-19 602,0 649,0 649,-19"/>
<text text-anchor="middle" x="625.5" y="-7" font-family="Helvetica,sans-Serif" font-size="10.00">queue</text>
</a>
</g>
</g>
<!-- Node8&#45;&gt;Node9 -->
<g id="edge8_Node000008_Node000009" class="edge">
<title>Node8&#45;&gt;Node9</title>
<g id="a_edge8_Node000008_Node000009"><a xlink:title=" ">
<path fill="none" stroke="#63b8ff" d="M390.31,-60.46C398.27,-58.62 406.66,-56.71 414.5,-55 490.28,-38.5 512.15,-37.16 591.74,-19.07"/>
<polygon fill="#63b8ff" stroke="#63b8ff" points="592.78,-22.42 601.74,-16.78 591.21,-15.6 592.78,-22.42"/>
</a>
</g>
</g>
<!-- Node10 -->
<g id="Node000010" class="node">
<title>Node10</title>
<g id="a_Node000010"><a xlink:title=" ">
<polygon fill="#e0e0e0" stroke="#999999" points="383.5,-19 335.5,-19 335.5,0 383.5,0 383.5,-19"/>
<text text-anchor="middle" x="359.5" y="-7" font-family="Helvetica,sans-Serif" font-size="10.00">mutex</text>
</a>
</g>
</g>
<!-- Node8&#45;&gt;Node10 -->
<g id="edge9_Node000008_Node000010" class="edge">
<title>Node8&#45;&gt;Node10</title>
<g id="a_edge9_Node000008_Node000010"><a xlink:title=" ">
<path fill="none" stroke="#63b8ff" d="M355.24,-60.37C355.93,-52.25 357,-39.81 357.89,-29.39"/>
<polygon fill="#63b8ff" stroke="#63b8ff" points="361.39,-29.43 358.76,-19.17 354.42,-28.83 361.39,-29.43"/>
</a>
</g>
</g>
<!-- Node11 -->
<g id="Node000011" class="node">
<title>Node11</title>
<g id="a_Node000011"><a xlink:title=" ">
<polygon fill="#e0e0e0" stroke="#999999" points="509,-19 402,-19 402,0 509,0 509,-19"/>
<text text-anchor="middle" x="455.5" y="-7" font-family="Helvetica,sans-Serif" font-size="10.00">condition_variable</text>
</a>
</g>
</g>
<!-- Node8&#45;&gt;Node11 -->
<g id="edge10_Node000008_Node000011" class="edge">
<title>Node8&#45;&gt;Node11</title>
<g id="a_edge10_Node000008_Node000011"><a xlink:title=" ">
<path fill="none" stroke="#63b8ff" d="M369.4,-60.37C385.81,-50.86 412.43,-35.45 431.73,-24.27"/>
<polygon fill="#63b8ff" stroke="#63b8ff" points="433.64,-27.21 440.54,-19.17 430.13,-21.15 433.64,-27.21"/>
</a>
</g>
</g>
<!-- Node12 -->
<g id="Node000012" class="node">
<title>Node12</title>
<g id="a_Node000012"><a xlink:title=" ">
<polygon fill="#e0e0e0" stroke="#999999" points="317.5,-19 267.5,-19 267.5,0 317.5,0 317.5,-19"/>
<text text-anchor="middle" x="292.5" y="-7" font-family="Helvetica,sans-Serif" font-size="10.00">chrono</text>
</a>
</g>
</g>
<!-- Node8&#45;&gt;Node12 -->
<g id="edge11_Node000008_Node000012" class="edge">
<title>Node8&#45;&gt;Node12</title>
<g id="a_edge11_Node000008_Node000012"><a xlink:title=" ">
<path fill="none" stroke="#63b8ff" d="M345.35,-60.37C335.83,-51.38 320.7,-37.11 309.07,-26.14"/>
<polygon fill="#63b8ff" stroke="#63b8ff" points="311.36,-23.48 301.69,-19.17 306.56,-28.58 311.36,-23.48"/>
</a>
</g>
</g>
<!-- Node13 -->
<g id="Node000013" class="node">
<title>Node13</title>
<g id="a_Node000013"><a xlink:title=" ">
<polygon fill="#e0e0e0" stroke="#999999" points="583.5,-19 527.5,-19 527.5,0 583.5,0 583.5,-19"/>
<text text-anchor="middle" x="555.5" y="-7" font-family="Helvetica,sans-Serif" font-size="10.00">optional</text>
</a>
</g>
</g>
<!-- Node8&#45;&gt;Node13 -->
<g id="edge12_Node000008_Node000013" class="edge">
<title>Node8&#45;&gt;Node13</title>
<g id="a_edge12_Node000008_Node000013"><a xlink:title=" ">
<path fill="none" stroke="#63b8ff" d="M383.73,-60.49C419.01,-50.22 478.44,-32.93 517.31,-21.61"/>
<polygon fill="#63b8ff" stroke="#63b8ff" points="518.59,-24.89 527.21,-18.73 516.63,-18.17 518.59,-24.89"/>
</a>
</g>
</g>
<!-- Node14 -->
<g id="Node000014" class="node">
<title>Node14</title>
<g id="a_Node000014"><a xlink:title=" ">
<polygon fill="#e0e0e0" stroke="#999999" points="249,-19 208,-19 208,0 249,0 249,-19"/>
<text text-anchor="middle" x="228.5" y="-7" font-family="Helvetica,sans-Serif" font-size="10.00">def.h</text>
</a>
</g>
</g>
<!-- Node8&#45;&gt;Node14 -->
<g id="edge13_Node000008_Node000014" class="edge">
<title>Node8&#45;&gt;Node14</title>
<g id="a_edge13_Node000008_Node000014"><a xlink:title=" ">
<path fill="none" stroke="#63b8ff" d="M336.18,-60.49C315.09,-50.7 280.24,-34.52 255.92,-23.23"/>
<polygon fill="#63b8ff" stroke="#63b8ff" points="257.39,-20.05 246.84,-19.02 254.44,-26.4 257.39,-20.05"/>
</a>
</g>
</g>
<!-- Node15&#45;&gt;Node4 -->
<g id="edge15_Node000015_Node000004" class="edge">
<title>Node15&#45;&gt;Node4</title>
<g id="a_edge15_Node000015_Node000004"><a xlink:title=" ">
<path fill="none" stroke="#63b8ff" d="M231.43,-60.37C219.69,-51.21 200.91,-36.56 186.74,-25.51"/>
<polygon fill="#63b8ff" stroke="#63b8ff" points="188.65,-22.56 178.61,-19.17 184.34,-28.08 188.65,-22.56"/>
</a>
</g>
</g>
<!-- Node15&#45;&gt;Node12 -->
<g id="edge16_Node000015_Node000012" class="edge">
<title>Node15&#45;&gt;Node12</title>
<g id="a_edge16_Node000015_Node000012"><a xlink:title=" ">
<path fill="none" stroke="#63b8ff" d="M249.88,-60.37C257.41,-51.55 269.29,-37.66 278.59,-26.77"/>
<polygon fill="#63b8ff" stroke="#63b8ff" points="281.26,-29.04 285.09,-19.17 275.93,-24.5 281.26,-29.04"/>
</a>
</g>
</g>
<!-- Node15&#45;&gt;Node14 -->
<g id="edge17_Node000015_Node000014" class="edge">
<title>Node15&#45;&gt;Node14</title>
<g id="a_edge17_Node000015_Node000014"><a xlink:title=" ">
<path fill="none" stroke="#63b8ff" d="M240.43,-60.37C238.47,-52.16 235.45,-39.54 232.94,-29.05"/>
<polygon fill="#63b8ff" stroke="#63b8ff" points="236.31,-28.08 230.57,-19.17 229.5,-29.71 236.31,-28.08"/>
</a>
</g>
</g>
</g>
</svg>
