<?xml version="1.0" encoding="UTF-8" standalone="no"?>
<!DOCTYPE svg PUBLIC "-//W3C//DTD SVG 1.1//EN"
 "http://www.w3.org/Graphics/SVG/1.1/DTD/svg11.dtd">
<!-- Generated by graphviz version 2.43.0 (0)
 -->
<!-- Title: include/webcface/logger.h Pages: 1 -->
<svg width="1331pt" height="137pt"
 viewBox="0.00 0.00 1331.00 137.00" xmlns="http://www.w3.org/2000/svg" xmlns:xlink="http://www.w3.org/1999/xlink">
<g id="graph0" class="graph" transform="scale(1 1) rotate(0) translate(4 133)">
<title>include/webcface/logger.h</title>
<!-- Node1 -->
<g id="Node000001" class="node">
<title>Node1</title>
<g id="a_Node000001"><a xlink:title=" ">
<polygon fill="#999999" stroke="#666666" points="574.5,-129 431.5,-129 431.5,-110 574.5,-110 574.5,-129"/>
<text text-anchor="middle" x="503" y="-117" font-family="Helvetica,sans-Serif" font-size="10.00">include/webcface/logger.h</text>
</a>
</g>
</g>
<!-- Node2 -->
<g id="Node000002" class="node">
<title>Node2</title>
<g id="a_Node000002"><a xlink:href="client__internal_8h.html" target="_top" xlink:title=" ">
<polygon fill="white" stroke="#666666" points="783.5,-74 658.5,-74 658.5,-55 783.5,-55 783.5,-74"/>
<text text-anchor="middle" x="721" y="-62" font-family="Helvetica,sans-Serif" font-size="10.00">client/client_internal.h</text>
</a>
</g>
</g>
<!-- Node1&#45;&gt;Node2 -->
<g id="edge1_Node000001_Node000002" class="edge">
<title>Node1&#45;&gt;Node2</title>
<g id="a_edge1_Node000001_Node000002"><a xlink:title=" ">
<path fill="none" stroke="#63b8ff" d="M547.98,-107.56C588.81,-97.64 648.2,-83.2 685.7,-74.08"/>
<polygon fill="#63b8ff" stroke="#63b8ff" points="546.92,-104.22 538.03,-109.98 548.57,-111.02 546.92,-104.22"/>
</a>
</g>
</g>
<!-- Node9 -->
<g id="Node000009" class="node">
<title>Node9</title>
<g id="a_Node000009"><a xlink:href="logger_8cc.html" target="_top" xlink:title=" ">
<polygon fill="white" stroke="#666666" points="1323,-19 1233,-19 1233,0 1323,0 1323,-19"/>
<text text-anchor="middle" x="1278" y="-7" font-family="Helvetica,sans-Serif" font-size="10.00">client/logger.cc</text>
</a>
</g>
</g>
<!-- Node1&#45;&gt;Node9 -->
<g id="edge13_Node000001_Node000009" class="edge">
<title>Node1&#45;&gt;Node9</title>
<g id="a_edge13_Node000001_Node000009"><a xlink:title=" ">
<path fill="none" stroke="#63b8ff" d="M577.62,-108.68C708.57,-91.33 988.26,-53.82 1224,-19 1226.91,-18.57 1229.91,-18.12 1232.93,-17.66"/>
<polygon fill="#63b8ff" stroke="#63b8ff" points="577.14,-105.21 567.69,-109.99 578.06,-112.15 577.14,-105.21"/>
</a>
</g>
</g>
<!-- Node14 -->
<g id="Node000014" class="node">
<title>Node14</title>
<g id="a_Node000014"><a xlink:href="client_8h.html" target="_top" xlink:title=" ">
<polygon fill="white" stroke="#666666" points="349,-74 209,-74 209,-55 349,-55 349,-74"/>
<text text-anchor="middle" x="279" y="-62" font-family="Helvetica,sans-Serif" font-size="10.00">include/webcface/client.h</text>
</a>
</g>
</g>
<!-- Node1&#45;&gt;Node14 -->
<g id="edge14_Node000001_Node000014" class="edge">
<title>Node1&#45;&gt;Node14</title>
<g id="a_edge14_Node000001_Node000014"><a xlink:title=" ">
<path fill="none" stroke="#63b8ff" d="M457.05,-107.63C415.09,-97.7 353.88,-83.22 315.27,-74.08"/>
<polygon fill="#63b8ff" stroke="#63b8ff" points="456.47,-111.09 467.01,-109.98 458.09,-104.28 456.47,-111.09"/>
</a>
</g>
</g>
<!-- Node15 -->
<g id="Node000015" class="node">
<title>Node15</title>
<g id="a_Node000015"><a xlink:href="webcface_8h.html" target="_top" xlink:title=" ">
<polygon fill="white" stroke="#666666" points="160,-19 0,-19 0,0 160,0 160,-19"/>
<text text-anchor="middle" x="80" y="-7" font-family="Helvetica,sans-Serif" font-size="10.00">include/webcface/webcface.h</text>
</a>
</g>
</g>
<!-- Node1&#45;&gt;Node15 -->
<g id="edge18_Node000001_Node000015" class="edge">
<title>Node1&#45;&gt;Node15</title>
<g id="a_edge18_Node000001_Node000015"><a xlink:title=" ">
<path fill="none" stroke="#63b8ff" d="M421.22,-114.05C359.24,-108.88 272.64,-97.77 200,-74 158.33,-60.36 113.87,-33.02 92.66,-19.09"/>
<polygon fill="#63b8ff" stroke="#63b8ff" points="421.08,-117.55 431.33,-114.86 421.64,-110.57 421.08,-117.55"/>
</a>
</g>
</g>
<!-- Node3 -->
<g id="Node000003" class="node">
<title>Node3</title>
<g id="a_Node000003"><a xlink:href="client_8cc.html" target="_top" xlink:title=" ">
<polygon fill="white" stroke="#666666" points="265.5,-19 178.5,-19 178.5,0 265.5,0 265.5,-19"/>
<text text-anchor="middle" x="222" y="-7" font-family="Helvetica,sans-Serif" font-size="10.00">client/client.cc</text>
</a>
</g>
</g>
<!-- Node2&#45;&gt;Node3 -->
<g id="edge2_Node000002_Node000003" class="edge">
<title>Node2&#45;&gt;Node3</title>
<g id="a_edge2_Node000002_Node000003"><a xlink:title=" ">
<path fill="none" stroke="#63b8ff" d="M648.26,-57.58C559.85,-50.08 406.2,-36.05 275,-19 271.95,-18.6 268.81,-18.17 265.64,-17.71"/>
<polygon fill="#63b8ff" stroke="#63b8ff" points="648.19,-61.09 658.45,-58.44 648.78,-54.11 648.19,-61.09"/>
</a>
</g>
</g>
<!-- Node4 -->
<g id="Node000004" class="node">
<title>Node4</title>
<g id="a_Node000004"><a xlink:href="client__ws_8cc.html" target="_top" xlink:title=" ">
<polygon fill="white" stroke="#666666" points="390,-19 284,-19 284,0 390,0 390,-19"/>
<text text-anchor="middle" x="337" y="-7" font-family="Helvetica,sans-Serif" font-size="10.00">client/client_ws.cc</text>
</a>
</g>
</g>
<!-- Node2&#45;&gt;Node4 -->
<g id="edge3_Node000002_Node000004" class="edge">
<title>Node2&#45;&gt;Node4</title>
<g id="a_edge3_Node000002_Node000004"><a xlink:title=" ">
<path fill="none" stroke="#63b8ff" d="M648.97,-53.56C573.74,-43.18 457.51,-27.13 390.19,-17.84"/>
<polygon fill="#63b8ff" stroke="#63b8ff" points="648.92,-57.08 659.3,-54.98 649.88,-50.15 648.92,-57.08"/>
</a>
</g>
</g>
<!-- Node5 -->
<g id="Node000005" class="node">
<title>Node5</title>
<g id="a_Node000005"><a xlink:href="field_8cc.html" target="_top" xlink:title=" ">
<polygon fill="white" stroke="#666666" points="913.5,-19 832.5,-19 832.5,0 913.5,0 913.5,-19"/>
<text text-anchor="middle" x="873" y="-7" font-family="Helvetica,sans-Serif" font-size="10.00">client/field.cc</text>
</a>
</g>
</g>
<!-- Node2&#45;&gt;Node5 -->
<g id="edge4_Node000002_Node000005" class="edge">
<title>Node2&#45;&gt;Node5</title>
<g id="a_edge4_Node000002_Node000005"><a xlink:title=" ">
<path fill="none" stroke="#63b8ff" d="M754.93,-51.67C783.27,-41.79 823.02,-27.93 848.39,-19.08"/>
<polygon fill="#63b8ff" stroke="#63b8ff" points="753.71,-48.39 745.42,-54.98 756.02,-55 753.71,-48.39"/>
</a>
</g>
</g>
<!-- Node6 -->
<g id="Node000006" class="node">
<title>Node6</title>
<g id="a_Node000006"><a xlink:href="func_8cc.html" target="_top" xlink:title=" ">
<polygon fill="white" stroke="#666666" points="1012.5,-19 931.5,-19 931.5,0 1012.5,0 1012.5,-19"/>
<text text-anchor="middle" x="972" y="-7" font-family="Helvetica,sans-Serif" font-size="10.00">client/func.cc</text>
</a>
</g>
</g>
<!-- Node2&#45;&gt;Node6 -->
<g id="edge5_Node000002_Node000006" class="edge">
<title>Node2&#45;&gt;Node6</title>
<g id="a_edge5_Node000002_Node000006"><a xlink:title=" ">
<path fill="none" stroke="#63b8ff" d="M771.3,-52.88C818.35,-42.94 887.72,-28.3 931.36,-19.08"/>
<polygon fill="#63b8ff" stroke="#63b8ff" points="770.39,-49.49 761.33,-54.98 771.83,-56.34 770.39,-49.49"/>
</a>
</g>
</g>
<!-- Node7 -->
<g id="Node000007" class="node">
<title>Node7</title>
<g id="a_Node000007"><a xlink:href="image_8cc.html" target="_top" xlink:title=" ">
<polygon fill="white" stroke="#666666" points="1121.5,-19 1030.5,-19 1030.5,0 1121.5,0 1121.5,-19"/>
<text text-anchor="middle" x="1076" y="-7" font-family="Helvetica,sans-Serif" font-size="10.00">client/image.cc</text>
</a>
</g>
</g>
<!-- Node2&#45;&gt;Node7 -->
<g id="edge6_Node000002_Node000007" class="edge">
<title>Node2&#45;&gt;Node7</title>
<g id="a_edge6_Node000002_Node000007"><a xlink:title=" ">
<path fill="none" stroke="#63b8ff" d="M789.76,-53.52C850.78,-44.62 942.36,-31.15 1022,-19 1024.72,-18.58 1027.52,-18.15 1030.34,-17.72"/>
<polygon fill="#63b8ff" stroke="#63b8ff" points="789.25,-50.06 779.85,-54.96 790.25,-56.99 789.25,-50.06"/>
</a>
</g>
</g>
<!-- Node8 -->
<g id="Node000008" class="node">
<title>Node8</title>
<g id="a_Node000008"><a xlink:href="log_8cc.html" target="_top" xlink:title=" ">
<polygon fill="white" stroke="#666666" points="1214.5,-19 1139.5,-19 1139.5,0 1214.5,0 1214.5,-19"/>
<text text-anchor="middle" x="1177" y="-7" font-family="Helvetica,sans-Serif" font-size="10.00">client/log.cc</text>
</a>
</g>
</g>
<!-- Node2&#45;&gt;Node8 -->
<g id="edge7_Node000002_Node000008" class="edge">
<title>Node2&#45;&gt;Node8</title>
<g id="a_edge7_Node000002_Node000008"><a xlink:title=" ">
<path fill="none" stroke="#63b8ff" d="M793.68,-57.26C875.8,-49.83 1013.35,-36.23 1131,-19 1133.73,-18.6 1136.55,-18.16 1139.38,-17.69"/>
<polygon fill="#63b8ff" stroke="#63b8ff" points="793.35,-53.78 783.7,-58.16 793.97,-60.75 793.35,-53.78"/>
</a>
</g>
</g>
<!-- Node2&#45;&gt;Node9 -->
<g id="edge8_Node000002_Node000009" class="edge">
<title>Node2&#45;&gt;Node9</title>
<g id="a_edge8_Node000002_Node000009"><a xlink:title=" ">
<path fill="none" stroke="#63b8ff" d="M793.97,-58.61C891.98,-51.67 1071.47,-37.73 1224,-19 1226.92,-18.64 1229.92,-18.25 1232.95,-17.83"/>
<polygon fill="#63b8ff" stroke="#63b8ff" points="793.61,-55.12 783.88,-59.31 794.1,-62.1 793.61,-55.12"/>
</a>
</g>
</g>
<!-- Node10 -->
<g id="Node000010" class="node">
<title>Node10</title>
<g id="a_Node000010"><a xlink:href="member_8cc.html" target="_top" xlink:title=" ">
<polygon fill="white" stroke="#666666" points="509.5,-19 408.5,-19 408.5,0 509.5,0 509.5,-19"/>
<text text-anchor="middle" x="459" y="-7" font-family="Helvetica,sans-Serif" font-size="10.00">client/member.cc</text>
</a>
</g>
</g>
<!-- Node2&#45;&gt;Node10 -->
<g id="edge9_Node000002_Node000010" class="edge">
<title>Node2&#45;&gt;Node10</title>
<g id="a_edge9_Node000002_Node000010"><a xlink:title=" ">
<path fill="none" stroke="#63b8ff" d="M668.8,-52.94C619.69,-43.01 547.07,-28.31 501.42,-19.08"/>
<polygon fill="#63b8ff" stroke="#63b8ff" points="668.41,-56.43 678.91,-54.98 669.8,-49.57 668.41,-56.43"/>
</a>
</g>
</g>
<!-- Node11 -->
<g id="Node000011" class="node">
<title>Node11</title>
<g id="a_Node000011"><a xlink:href="text_8cc.html" target="_top" xlink:title=" ">
<polygon fill="white" stroke="#666666" points="608,-19 528,-19 528,0 608,0 608,-19"/>
<text text-anchor="middle" x="568" y="-7" font-family="Helvetica,sans-Serif" font-size="10.00">client/text.cc</text>
</a>
</g>
</g>
<!-- Node2&#45;&gt;Node11 -->
<g id="edge10_Node000002_Node000011" class="edge">
<title>Node2&#45;&gt;Node11</title>
<g id="a_edge10_Node000002_Node000011"><a xlink:title=" ">
<path fill="none" stroke="#63b8ff" d="M686.85,-51.67C658.32,-41.79 618.31,-27.93 592.77,-19.08"/>
<polygon fill="#63b8ff" stroke="#63b8ff" points="685.82,-55.02 696.42,-54.98 688.11,-48.4 685.82,-55.02"/>
</a>
</g>
</g>
<!-- Node12 -->
<g id="Node000012" class="node">
<title>Node12</title>
<g id="a_Node000012"><a xlink:href="value_8cc.html" target="_top" xlink:title=" ">
<polygon fill="white" stroke="#666666" points="713.5,-19 626.5,-19 626.5,0 713.5,0 713.5,-19"/>
<text text-anchor="middle" x="670" y="-7" font-family="Helvetica,sans-Serif" font-size="10.00">client/value.cc</text>
</a>
</g>
</g>
<!-- Node2&#45;&gt;Node12 -->
<g id="edge11_Node000002_Node000012" class="edge">
<title>Node2&#45;&gt;Node12</title>
<g id="a_edge11_Node000002_Node000012"><a xlink:title=" ">
<path fill="none" stroke="#63b8ff" d="M705.62,-47.52C696.63,-38.18 685.64,-26.75 678.26,-19.09"/>
<polygon fill="#63b8ff" stroke="#63b8ff" points="703.12,-49.97 712.58,-54.75 708.17,-45.12 703.12,-49.97"/>
</a>
</g>
</g>
<!-- Node13 -->
<g id="Node000013" class="node">
<title>Node13</title>
<g id="a_Node000013"><a xlink:href="view_8cc.html" target="_top" xlink:title=" ">
<polygon fill="white" stroke="#666666" points="814.5,-19 731.5,-19 731.5,0 814.5,0 814.5,-19"/>
<text text-anchor="middle" x="773" y="-7" font-family="Helvetica,sans-Serif" font-size="10.00">client/view.cc</text>
</a>
</g>
</g>
<!-- Node2&#45;&gt;Node13 -->
<g id="edge12_Node000002_Node000013" class="edge">
<title>Node2&#45;&gt;Node13</title>
<g id="a_edge12_Node000002_Node000013"><a xlink:title=" ">
<path fill="none" stroke="#63b8ff" d="M736.68,-47.52C745.84,-38.18 757.05,-26.75 764.57,-19.09"/>
<polygon fill="#63b8ff" stroke="#63b8ff" points="734.09,-45.16 729.59,-54.75 739.09,-50.06 734.09,-45.16"/>
</a>
</g>
</g>
<!-- Node14&#45;&gt;Node3 -->
<g id="edge15_Node000014_Node000003" class="edge">
<title>Node14&#45;&gt;Node3</title>
<g id="a_edge15_Node000014_Node000003"><a xlink:title=" ">
<path fill="none" stroke="#63b8ff" d="M262.38,-48.04C252.27,-38.64 239.72,-26.98 231.32,-19.17"/>
<polygon fill="#63b8ff" stroke="#63b8ff" points="260.14,-50.74 269.84,-54.98 264.9,-45.61 260.14,-50.74"/>
</a>
</g>
</g>
<!-- Node14&#45;&gt;Node4 -->
<g id="edge16_Node000014_Node000004" class="edge">
<title>Node14&#45;&gt;Node4</title>
<g id="a_edge16_Node000014_Node000004"><a xlink:title=" ">
<path fill="none" stroke="#63b8ff" d="M295.91,-48.04C306.2,-38.64 318.97,-26.98 327.51,-19.17"/>
<polygon fill="#63b8ff" stroke="#63b8ff" points="293.34,-45.66 288.32,-54.98 298.06,-50.82 293.34,-45.66"/>
</a>
</g>
</g>
<!-- Node14&#45;&gt;Node15 -->
<g id="edge17_Node000014_Node000015" class="edge">
<title>Node14&#45;&gt;Node15</title>
<g id="a_edge17_Node000014_Node000015"><a xlink:title=" ">
<path fill="none" stroke="#63b8ff" d="M236.99,-52.31C199.75,-42.39 146.16,-28.12 112.22,-19.08"/>
<polygon fill="#63b8ff" stroke="#63b8ff" points="236.46,-55.79 247.03,-54.98 238.26,-49.03 236.46,-55.79"/>
</a>
</g>
</g>
</g>
</svg>
