<?xml version="1.0" encoding="UTF-8" standalone="no"?>
<!DOCTYPE svg PUBLIC "-//W3C//DTD SVG 1.1//EN"
 "http://www.w3.org/Graphics/SVG/1.1/DTD/svg11.dtd">
<!-- Generated by graphviz version 2.43.0 (0)
 -->
<!-- Title: include/webcface/member.h Pages: 1 -->
<svg width="1442pt" height="357pt"
 viewBox="0.00 0.00 1441.82 357.00" xmlns="http://www.w3.org/2000/svg" xmlns:xlink="http://www.w3.org/1999/xlink">
<g id="graph0" class="graph" transform="scale(1 1) rotate(0) translate(4 353)">
<title>include/webcface/member.h</title>
<!-- Node1 -->
<g id="Node000001" class="node">
<title>Node1</title>
<g id="a_Node000001"><a xlink:title=" ">
<polygon fill="#999999" stroke="#666666" points="657.82,-349 503.82,-349 503.82,-330 657.82,-330 657.82,-349"/>
<text text-anchor="middle" x="580.82" y="-337" font-family="Helvetica,sans-Serif" font-size="10.00">include/webcface/member.h</text>
</a>
</g>
</g>
<!-- Node2 -->
<g id="Node000002" class="node">
<title>Node2</title>
<g id="a_Node000002"><a xlink:title=" ">
<polygon fill="#e0e0e0" stroke="#999999" points="343.82,-74 299.82,-74 299.82,-55 343.82,-55 343.82,-74"/>
<text text-anchor="middle" x="321.82" y="-62" font-family="Helvetica,sans-Serif" font-size="10.00">string</text>
</a>
</g>
</g>
<!-- Node1&#45;&gt;Node2 -->
<g id="edge1_Node000001_Node000002" class="edge">
<title>Node1&#45;&gt;Node2</title>
<g id="a_edge1_Node000001_Node000002"><a xlink:title=" ">
<path fill="none" stroke="#63b8ff" d="M503.8,-332.08C346.03,-317.89 0.82,-281.07 0.82,-230.5 0.82,-230.5 0.82,-230.5 0.82,-173.5 0.82,-144.04 -2.46,-129.27 19.82,-110 59.67,-75.52 219.84,-67.76 289.36,-66.01"/>
<polygon fill="#63b8ff" stroke="#63b8ff" points="289.78,-69.5 299.7,-65.78 289.63,-62.5 289.78,-69.5"/>
</a>
</g>
</g>
<!-- Node3 -->
<g id="Node000003" class="node">
<title>Node3</title>
<g id="a_Node000003"><a xlink:title=" ">
<polygon fill="#e0e0e0" stroke="#999999" points="658.32,-129 611.32,-129 611.32,-110 658.32,-110 658.32,-129"/>
<text text-anchor="middle" x="634.82" y="-117" font-family="Helvetica,sans-Serif" font-size="10.00">vector</text>
</a>
</g>
</g>
<!-- Node1&#45;&gt;Node3 -->
<g id="edge2_Node000001_Node000003" class="edge">
<title>Node1&#45;&gt;Node3</title>
<g id="a_edge2_Node000001_Node000003"><a xlink:title=" ">
<path fill="none" stroke="#63b8ff" d="M576.23,-329.99C566.36,-310.69 544.48,-261.97 550.82,-220 554.64,-194.7 552.5,-185.49 567.82,-165 577.74,-151.73 592.85,-141.21 606.22,-133.73"/>
<polygon fill="#63b8ff" stroke="#63b8ff" points="607.89,-136.8 615.1,-129.04 604.62,-130.61 607.89,-136.8"/>
</a>
</g>
</g>
<!-- Node4 -->
<g id="Node000004" class="node">
<title>Node4</title>
<g id="a_Node000004"><a xlink:title=" ">
<polygon fill="#e0e0e0" stroke="#999999" points="1251.82,-129 1195.82,-129 1195.82,-110 1251.82,-110 1251.82,-129"/>
<text text-anchor="middle" x="1223.82" y="-117" font-family="Helvetica,sans-Serif" font-size="10.00">optional</text>
</a>
</g>
</g>
<!-- Node1&#45;&gt;Node4 -->
<g id="edge3_Node000001_Node000004" class="edge">
<title>Node1&#45;&gt;Node4</title>
<g id="a_edge3_Node000001_Node000004"><a xlink:title=" ">
<path fill="none" stroke="#63b8ff" d="M640.59,-329.97C688.66,-322.46 757.71,-310.19 816.82,-294 955,-256.16 990.7,-246.08 1119.82,-184 1149.91,-169.53 1182.43,-148.77 1202.94,-134.97"/>
<polygon fill="#63b8ff" stroke="#63b8ff" points="1205.17,-137.69 1211.47,-129.17 1201.23,-131.9 1205.17,-137.69"/>
</a>
</g>
</g>
<!-- Node5 -->
<g id="Node000005" class="node">
<title>Node5</title>
<g id="a_Node000005"><a xlink:title=" ">
<polygon fill="#e0e0e0" stroke="#999999" points="1367.82,-129 1307.82,-129 1307.82,-110 1367.82,-110 1367.82,-129"/>
<text text-anchor="middle" x="1337.82" y="-117" font-family="Helvetica,sans-Serif" font-size="10.00">concepts</text>
</a>
</g>
</g>
<!-- Node1&#45;&gt;Node5 -->
<g id="edge4_Node000001_Node000005" class="edge">
<title>Node1&#45;&gt;Node5</title>
<g id="a_edge4_Node000001_Node000005"><a xlink:title=" ">
<path fill="none" stroke="#63b8ff" d="M655.67,-329.97C712.87,-322.66 793.42,-310.66 862.82,-294 1013.56,-257.82 1049.36,-240.25 1193.82,-184 1235.04,-167.95 1281.72,-146.8 1310.47,-133.42"/>
<polygon fill="#63b8ff" stroke="#63b8ff" points="1312.27,-136.44 1319.85,-129.04 1309.31,-130.1 1312.27,-136.44"/>
</a>
</g>
</g>
<!-- Node6 -->
<g id="Node000006" class="node">
<title>Node6</title>
<g id="a_Node000006"><a xlink:href="field_8h.html" target="_top" xlink:title=" ">
<polygon fill="white" stroke="#666666" points="104.32,-184 57.32,-184 57.32,-165 104.32,-165 104.32,-184"/>
<text text-anchor="middle" x="80.82" y="-172" font-family="Helvetica,sans-Serif" font-size="10.00">field.h</text>
</a>
</g>
</g>
<!-- Node1&#45;&gt;Node6 -->
<g id="edge5_Node000001_Node000006" class="edge">
<title>Node1&#45;&gt;Node6</title>
<g id="a_edge5_Node000001_Node000006"><a xlink:title=" ">
<path fill="none" stroke="#63b8ff" d="M519.39,-329.97C438.97,-317.31 294.86,-289.44 180.82,-239 150.81,-225.73 119.36,-204.33 99.92,-190.09"/>
<polygon fill="#63b8ff" stroke="#63b8ff" points="102,-187.28 91.89,-184.11 97.82,-192.89 102,-187.28"/>
</a>
</g>
</g>
<!-- Node10 -->
<g id="Node000010" class="node">
<title>Node10</title>
<g id="a_Node000010"><a xlink:href="def_8h.html" target="_top" xlink:title=" ">
<polygon fill="white" stroke="#666666" points="1056.32,-74 1015.32,-74 1015.32,-55 1056.32,-55 1056.32,-74"/>
<text text-anchor="middle" x="1035.82" y="-62" font-family="Helvetica,sans-Serif" font-size="10.00">def.h</text>
</a>
</g>
</g>
<!-- Node1&#45;&gt;Node10 -->
<g id="edge21_Node000001_Node000010" class="edge">
<title>Node1&#45;&gt;Node10</title>
<g id="a_edge21_Node000001_Node000010"><a xlink:title=" ">
<path fill="none" stroke="#63b8ff" d="M658.02,-336.76C868,-331.01 1433.82,-308.31 1433.82,-230.5 1433.82,-230.5 1433.82,-230.5 1433.82,-173.5 1433.82,-139.66 1420.57,-127.84 1391.82,-110 1337.72,-76.43 1142.98,-68.1 1066.74,-66.1"/>
<polygon fill="#63b8ff" stroke="#63b8ff" points="1066.46,-62.6 1056.38,-65.85 1066.29,-69.59 1066.46,-62.6"/>
</a>
</g>
</g>
<!-- Node12 -->
<g id="Node000012" class="node">
<title>Node12</title>
<g id="a_Node000012"><a xlink:href="event__target_8h.html" target="_top" xlink:title=" ">
<polygon fill="white" stroke="#666666" points="277.82,-239 189.82,-239 189.82,-220 277.82,-220 277.82,-239"/>
<text text-anchor="middle" x="233.82" y="-227" font-family="Helvetica,sans-Serif" font-size="10.00">event_target.h</text>
</a>
</g>
</g>
<!-- Node1&#45;&gt;Node12 -->
<g id="edge15_Node000001_Node000012" class="edge">
<title>Node1&#45;&gt;Node12</title>
<g id="a_edge15_Node000001_Node000012"><a xlink:title=" ">
<path fill="none" stroke="#63b8ff" d="M553.3,-329.94C491.42,-310.68 341.25,-263.94 271.09,-242.1"/>
<polygon fill="#63b8ff" stroke="#63b8ff" points="271.93,-238.7 261.34,-239.07 269.85,-245.38 271.93,-238.7"/>
</a>
</g>
</g>
<!-- Node16 -->
<g id="Node000016" class="node">
<title>Node16</title>
<g id="a_Node000016"><a xlink:href="func_8h.html" target="_top" xlink:title=" ">
<polygon fill="white" stroke="#666666" points="807.32,-294 760.32,-294 760.32,-275 807.32,-275 807.32,-294"/>
<text text-anchor="middle" x="783.82" y="-282" font-family="Helvetica,sans-Serif" font-size="10.00">func.h</text>
</a>
</g>
</g>
<!-- Node1&#45;&gt;Node16 -->
<g id="edge22_Node000001_Node000016" class="edge">
<title>Node1&#45;&gt;Node16</title>
<g id="a_edge22_Node000001_Node000016"><a xlink:title=" ">
<path fill="none" stroke="#63b8ff" d="M613.44,-329.98C650.93,-320.2 712.17,-304.21 750.12,-294.3"/>
<polygon fill="#63b8ff" stroke="#63b8ff" points="751.37,-297.59 760.16,-291.68 749.6,-290.82 751.37,-297.59"/>
</a>
</g>
</g>
<!-- Node6&#45;&gt;Node2 -->
<g id="edge7_Node000006_Node000002" class="edge">
<title>Node6&#45;&gt;Node2</title>
<g id="a_edge7_Node000006_Node000002"><a xlink:title=" ">
<path fill="none" stroke="#63b8ff" d="M88.01,-164.66C99.72,-150.88 124.26,-124.36 150.82,-110 195.45,-85.87 253.79,-74.34 289.49,-69.21"/>
<polygon fill="#63b8ff" stroke="#63b8ff" points="290.36,-72.62 299.8,-67.81 289.43,-65.69 290.36,-72.62"/>
</a>
</g>
</g>
<!-- Node6&#45;&gt;Node3 -->
<g id="edge9_Node000006_Node000003" class="edge">
<title>Node6&#45;&gt;Node3</title>
<g id="a_edge9_Node000006_Node000003"><a xlink:title=" ">
<path fill="none" stroke="#63b8ff" d="M104.46,-171.55C174.59,-165.72 387.54,-147.67 563.82,-129 575.92,-127.72 589.16,-126.17 600.89,-124.75"/>
<polygon fill="#63b8ff" stroke="#63b8ff" points="601.67,-128.18 611.17,-123.49 600.82,-121.24 601.67,-128.18"/>
</a>
</g>
</g>
<!-- Node7 -->
<g id="Node000007" class="node">
<title>Node7</title>
<g id="a_Node000007"><a xlink:title=" ">
<polygon fill="#e0e0e0" stroke="#999999" points="394.82,-129 336.82,-129 336.82,-110 394.82,-110 394.82,-129"/>
<text text-anchor="middle" x="365.82" y="-117" font-family="Helvetica,sans-Serif" font-size="10.00">memory</text>
</a>
</g>
</g>
<!-- Node6&#45;&gt;Node7 -->
<g id="edge6_Node000006_Node000007" class="edge">
<title>Node6&#45;&gt;Node7</title>
<g id="a_edge6_Node000006_Node000007"><a xlink:title=" ">
<path fill="none" stroke="#63b8ff" d="M104.5,-168.03C109.24,-166.98 114.18,-165.93 118.82,-165 209.1,-146.95 232.32,-145.93 322.82,-129 324.08,-128.76 325.36,-128.52 326.66,-128.28"/>
<polygon fill="#63b8ff" stroke="#63b8ff" points="327.53,-131.67 336.69,-126.34 326.21,-124.8 327.53,-131.67"/>
</a>
</g>
</g>
<!-- Node8 -->
<g id="Node000008" class="node">
<title>Node8</title>
<g id="a_Node000008"><a xlink:title=" ">
<polygon fill="#e0e0e0" stroke="#999999" points="102.32,-129 29.32,-129 29.32,-110 102.32,-110 102.32,-129"/>
<text text-anchor="middle" x="65.82" y="-117" font-family="Helvetica,sans-Serif" font-size="10.00">string_view</text>
</a>
</g>
</g>
<!-- Node6&#45;&gt;Node8 -->
<g id="edge8_Node000006_Node000008" class="edge">
<title>Node6&#45;&gt;Node8</title>
<g id="a_edge8_Node000006_Node000008"><a xlink:title=" ">
<path fill="none" stroke="#63b8ff" d="M78.34,-164.75C76.36,-157.72 73.5,-147.62 71.01,-138.84"/>
<polygon fill="#63b8ff" stroke="#63b8ff" points="74.34,-137.76 68.25,-129.09 67.61,-139.66 74.34,-137.76"/>
</a>
</g>
</g>
<!-- Node9 -->
<g id="Node000009" class="node">
<title>Node9</title>
<g id="a_Node000009"><a xlink:href="field__base_8h.html" target="_top" xlink:title=" ">
<polygon fill="white" stroke="#666666" points="280.32,-129 159.32,-129 159.32,-110 280.32,-110 280.32,-129"/>
<text text-anchor="middle" x="219.82" y="-117" font-family="Helvetica,sans-Serif" font-size="10.00">common/field_base.h</text>
</a>
</g>
</g>
<!-- Node6&#45;&gt;Node9 -->
<g id="edge10_Node000006_Node000009" class="edge">
<title>Node6&#45;&gt;Node9</title>
<g id="a_edge10_Node000006_Node000009"><a xlink:title=" ">
<path fill="none" stroke="#63b8ff" d="M103.15,-164.98C126.02,-156.27 161.78,-142.63 187.68,-132.75"/>
<polygon fill="#63b8ff" stroke="#63b8ff" points="188.98,-136 197.08,-129.17 186.49,-129.46 188.98,-136"/>
</a>
</g>
</g>
<!-- Node6&#45;&gt;Node10 -->
<g id="edge14_Node000006_Node000010" class="edge">
<title>Node6&#45;&gt;Node10</title>
<g id="a_edge14_Node000006_Node000010"><a xlink:title=" ">
<path fill="none" stroke="#63b8ff" d="M104.53,-168.15C109.26,-167.09 114.2,-166 118.82,-165 194.72,-148.52 216.49,-154.58 289.82,-129 307.65,-122.78 309.59,-114.91 327.82,-110 458.42,-74.81 886.1,-67.25 1004.94,-65.81"/>
<polygon fill="#63b8ff" stroke="#63b8ff" points="1005.19,-69.31 1015.15,-65.69 1005.11,-62.31 1005.19,-69.31"/>
</a>
</g>
</g>
<!-- Node9&#45;&gt;Node2 -->
<g id="edge11_Node000009_Node000002" class="edge">
<title>Node9&#45;&gt;Node2</title>
<g id="a_edge11_Node000009_Node000002"><a xlink:title=" ">
<path fill="none" stroke="#63b8ff" d="M236.21,-109.98C252.39,-101.57 277.39,-88.59 296.2,-78.81"/>
<polygon fill="#63b8ff" stroke="#63b8ff" points="297.87,-81.89 305.13,-74.17 294.65,-75.68 297.87,-81.89"/>
</a>
</g>
</g>
<!-- Node9&#45;&gt;Node10 -->
<g id="edge12_Node000009_Node000010" class="edge">
<title>Node9&#45;&gt;Node10</title>
<g id="a_edge12_Node000009_Node000010"><a xlink:title=" ">
<path fill="none" stroke="#63b8ff" d="M280.37,-111.36C285.26,-110.87 290.12,-110.41 294.82,-110 569.84,-86.17 903.39,-71.07 1004.99,-66.77"/>
<polygon fill="#63b8ff" stroke="#63b8ff" points="1005.32,-70.26 1015.16,-66.34 1005.03,-63.26 1005.32,-70.26"/>
</a>
</g>
</g>
<!-- Node11 -->
<g id="Node000011" class="node">
<title>Node11</title>
<g id="a_Node000011"><a xlink:href="macros_8h.html" target="_top" xlink:title=" ">
<polygon fill="white" stroke="#666666" points="1066.82,-19 1004.82,-19 1004.82,0 1066.82,0 1066.82,-19"/>
<text text-anchor="middle" x="1035.82" y="-7" font-family="Helvetica,sans-Serif" font-size="10.00">macros.h</text>
</a>
</g>
</g>
<!-- Node10&#45;&gt;Node11 -->
<g id="edge13_Node000010_Node000011" class="edge">
<title>Node10&#45;&gt;Node11</title>
<g id="a_edge13_Node000010_Node000011"><a xlink:title=" ">
<path fill="none" stroke="#63b8ff" d="M1035.82,-54.75C1035.82,-47.8 1035.82,-37.85 1035.82,-29.13"/>
<polygon fill="#63b8ff" stroke="#63b8ff" points="1039.32,-29.09 1035.82,-19.09 1032.32,-29.09 1039.32,-29.09"/>
</a>
</g>
</g>
<!-- Node12&#45;&gt;Node6 -->
<g id="edge19_Node000012_Node000006" class="edge">
<title>Node12&#45;&gt;Node6</title>
<g id="a_edge19_Node000012_Node000006"><a xlink:title=" ">
<path fill="none" stroke="#63b8ff" d="M209.24,-219.98C183.4,-211.03 142.59,-196.9 113.92,-186.97"/>
<polygon fill="#63b8ff" stroke="#63b8ff" points="114.93,-183.61 104.34,-183.65 112.64,-190.23 114.93,-183.61"/>
</a>
</g>
</g>
<!-- Node12&#45;&gt;Node10 -->
<g id="edge20_Node000012_Node000010" class="edge">
<title>Node12&#45;&gt;Node10</title>
<g id="a_edge20_Node000012_Node000010"><a xlink:title=" ">
<path fill="none" stroke="#63b8ff" d="M217.44,-219.83C196.35,-207.56 164.25,-184.46 180.82,-165 213.36,-126.78 354.63,-139.02 403.82,-129 438.36,-121.96 446.03,-115.65 480.82,-110 678.94,-77.83 920.81,-68.57 1005.11,-66.22"/>
<polygon fill="#63b8ff" stroke="#63b8ff" points="1005.36,-69.71 1015.27,-65.95 1005.18,-62.72 1005.36,-69.71"/>
</a>
</g>
</g>
<!-- Node13 -->
<g id="Node000013" class="node">
<title>Node13</title>
<g id="a_Node000013"><a xlink:title=" ">
<polygon fill="#e0e0e0" stroke="#999999" points="444.32,-184 379.32,-184 379.32,-165 444.32,-165 444.32,-184"/>
<text text-anchor="middle" x="411.82" y="-172" font-family="Helvetica,sans-Serif" font-size="10.00">functional</text>
</a>
</g>
</g>
<!-- Node12&#45;&gt;Node13 -->
<g id="edge16_Node000012_Node000013" class="edge">
<title>Node12&#45;&gt;Node13</title>
<g id="a_edge16_Node000012_Node000013"><a xlink:title=" ">
<path fill="none" stroke="#63b8ff" d="M262.42,-219.98C292.43,-211.05 339.8,-196.94 373.14,-187.02"/>
<polygon fill="#63b8ff" stroke="#63b8ff" points="374.41,-190.29 383,-184.08 372.41,-183.58 374.41,-190.29"/>
</a>
</g>
</g>
<!-- Node14 -->
<g id="Node000014" class="node">
<title>Node14</title>
<g id="a_Node000014"><a xlink:title=" ">
<polygon fill="#e0e0e0" stroke="#999999" points="554.32,-129 489.32,-129 489.32,-110 554.32,-110 554.32,-129"/>
<text text-anchor="middle" x="521.82" y="-117" font-family="Helvetica,sans-Serif" font-size="10.00">stdexcept</text>
</a>
</g>
</g>
<!-- Node12&#45;&gt;Node14 -->
<g id="edge17_Node000012_Node000014" class="edge">
<title>Node12&#45;&gt;Node14</title>
<g id="a_edge17_Node000012_Node000014"><a xlink:title=" ">
<path fill="none" stroke="#63b8ff" d="M220.27,-219.82C202.09,-207.15 173.85,-183.11 189.82,-165 232.04,-117.12 411.72,-138.68 474.82,-129 476.28,-128.78 477.76,-128.54 479.26,-128.3"/>
<polygon fill="#63b8ff" stroke="#63b8ff" points="479.96,-131.73 489.24,-126.62 478.8,-124.83 479.96,-131.73"/>
</a>
</g>
</g>
<!-- Node15 -->
<g id="Node000015" class="node">
<title>Node15</title>
<g id="a_Node000015"><a xlink:title=" ">
<polygon fill="#e0e0e0" stroke="#999999" points="322.82,-184 198.82,-184 198.82,-165 322.82,-165 322.82,-184"/>
<text text-anchor="middle" x="260.82" y="-172" font-family="Helvetica,sans-Serif" font-size="10.00">eventpp/callbacklist.h</text>
</a>
</g>
</g>
<!-- Node12&#45;&gt;Node15 -->
<g id="edge18_Node000012_Node000015" class="edge">
<title>Node12&#45;&gt;Node15</title>
<g id="a_edge18_Node000012_Node000015"><a xlink:title=" ">
<path fill="none" stroke="#63b8ff" d="M238.28,-219.75C241.93,-212.57 247.23,-202.18 251.77,-193.27"/>
<polygon fill="#63b8ff" stroke="#63b8ff" points="255.02,-194.59 256.44,-184.09 248.79,-191.41 255.02,-194.59"/>
</a>
</g>
</g>
<!-- Node16&#45;&gt;Node3 -->
<g id="edge23_Node000016_Node000003" class="edge">
<title>Node16&#45;&gt;Node3</title>
<g id="a_edge23_Node000016_Node000003"><a xlink:title=" ">
<path fill="none" stroke="#63b8ff" d="M775.81,-274.74C751.96,-248.65 681.14,-171.17 649.91,-137"/>
<polygon fill="#63b8ff" stroke="#63b8ff" points="652.2,-134.33 642.87,-129.31 647.03,-139.05 652.2,-134.33"/>
</a>
</g>
</g>
<!-- Node16&#45;&gt;Node10 -->
<g id="edge58_Node000016_Node000010" class="edge">
<title>Node16&#45;&gt;Node10</title>
<g id="a_edge58_Node000016_Node000010"><a xlink:title=" ">
<path fill="none" stroke="#63b8ff" d="M807.65,-281.17C909.49,-270.67 1306.11,-224.08 1376.82,-129 1381.86,-122.22 1382.39,-116.35 1376.82,-110 1356.5,-86.86 1147.49,-72.12 1067.09,-67.26"/>
<polygon fill="#63b8ff" stroke="#63b8ff" points="1066.83,-63.74 1056.64,-66.65 1066.41,-70.73 1066.83,-63.74"/>
</a>
</g>
</g>
<!-- Node17 -->
<g id="Node000017" class="node">
<title>Node17</title>
<g id="a_Node000017"><a xlink:href="common_2func_8h.html" target="_top" xlink:title=" ">
<polygon fill="white" stroke="#666666" points="927.82,-239 835.82,-239 835.82,-220 927.82,-220 927.82,-239"/>
<text text-anchor="middle" x="881.82" y="-227" font-family="Helvetica,sans-Serif" font-size="10.00">common/func.h</text>
</a>
</g>
</g>
<!-- Node16&#45;&gt;Node17 -->
<g id="edge24_Node000016_Node000017" class="edge">
<title>Node16&#45;&gt;Node17</title>
<g id="a_edge24_Node000016_Node000017"><a xlink:title=" ">
<path fill="none" stroke="#63b8ff" d="M799.57,-274.98C815.05,-266.61 838.91,-253.7 856.96,-243.95"/>
<polygon fill="#63b8ff" stroke="#63b8ff" points="858.66,-247.01 865.79,-239.17 855.33,-240.85 858.66,-247.01"/>
</a>
</g>
</g>
<!-- Node21 -->
<g id="Node000021" class="node">
<title>Node21</title>
<g id="a_Node000021"><a xlink:href="val_8h.html" target="_top" xlink:title=" ">
<polygon fill="white" stroke="#666666" points="986.32,-184 945.32,-184 945.32,-165 986.32,-165 986.32,-184"/>
<text text-anchor="middle" x="965.82" y="-172" font-family="Helvetica,sans-Serif" font-size="10.00">val.h</text>
</a>
</g>
</g>
<!-- Node16&#45;&gt;Node21 -->
<g id="edge46_Node000016_Node000021" class="edge">
<title>Node16&#45;&gt;Node21</title>
<g id="a_edge46_Node000016_Node000021"><a xlink:title=" ">
<path fill="none" stroke="#63b8ff" d="M807.4,-282.59C840.15,-280.13 899.56,-271.2 936.82,-239 950.26,-227.38 957.82,-208.24 961.82,-194.01"/>
<polygon fill="#63b8ff" stroke="#63b8ff" points="965.23,-194.83 964.23,-184.28 958.43,-193.15 965.23,-194.83"/>
</a>
</g>
</g>
<!-- Node25 -->
<g id="Node000025" class="node">
<title>Node25</title>
<g id="a_Node000025"><a xlink:href="func__result_8h.html" target="_top" xlink:title=" ">
<polygon fill="white" stroke="#666666" points="639.82,-239 559.82,-239 559.82,-220 639.82,-220 639.82,-239"/>
<text text-anchor="middle" x="599.82" y="-227" font-family="Helvetica,sans-Serif" font-size="10.00">func_result.h</text>
</a>
</g>
</g>
<!-- Node16&#45;&gt;Node25 -->
<g id="edge47_Node000016_Node000025" class="edge">
<title>Node16&#45;&gt;Node25</title>
<g id="a_edge47_Node000016_Node000025"><a xlink:title=" ">
<path fill="none" stroke="#63b8ff" d="M760.14,-276.68C729.62,-267.89 676.12,-252.48 639.38,-241.89"/>
<polygon fill="#63b8ff" stroke="#63b8ff" points="640.07,-238.45 629.49,-239.05 638.13,-245.18 640.07,-238.45"/>
</a>
</g>
</g>
<!-- Node17&#45;&gt;Node2 -->
<g id="edge29_Node000017_Node000002" class="edge">
<title>Node17&#45;&gt;Node2</title>
<g id="a_edge29_Node000017_Node000002"><a xlink:title=" ">
<path fill="none" stroke="#63b8ff" d="M867.33,-219.9C846.38,-207.53 806.36,-184.1 771.82,-165 760.38,-158.68 680.28,-113.95 667.82,-110 556.45,-74.67 416.44,-67.32 354.21,-65.84"/>
<polygon fill="#63b8ff" stroke="#63b8ff" points="353.93,-62.33 343.86,-65.63 353.79,-69.33 353.93,-62.33"/>
</a>
</g>
</g>
<!-- Node17&#45;&gt;Node3 -->
<g id="edge25_Node000017_Node000003" class="edge">
<title>Node17&#45;&gt;Node3</title>
<g id="a_edge25_Node000017_Node000003"><a xlink:title=" ">
<path fill="none" stroke="#63b8ff" d="M862.02,-219.84C818.56,-200.84 714.61,-155.39 663.79,-133.17"/>
<polygon fill="#63b8ff" stroke="#63b8ff" points="664.93,-129.85 654.37,-129.05 662.13,-136.26 664.93,-129.85"/>
</a>
</g>
</g>
<!-- Node17&#45;&gt;Node4 -->
<g id="edge28_Node000017_Node000004" class="edge">
<title>Node17&#45;&gt;Node4</title>
<g id="a_edge28_Node000017_Node000004"><a xlink:title=" ">
<path fill="none" stroke="#63b8ff" d="M928.05,-221.05C969.26,-213.76 1030.92,-201.23 1082.82,-184 1124.76,-170.08 1171.05,-147.81 1198.77,-133.68"/>
<polygon fill="#63b8ff" stroke="#63b8ff" points="1200.47,-136.74 1207.76,-129.05 1197.27,-130.52 1200.47,-136.74"/>
</a>
</g>
</g>
<!-- Node17&#45;&gt;Node10 -->
<g id="edge45_Node000017_Node000010" class="edge">
<title>Node17&#45;&gt;Node10</title>
<g id="a_edge45_Node000017_Node000010"><a xlink:title=" ">
<path fill="none" stroke="#63b8ff" d="M927.97,-223.78C1020.51,-213.2 1223.16,-184.11 1260.82,-129 1265.58,-122.03 1266.18,-116.52 1260.82,-110 1236.54,-80.45 1121.98,-70.19 1066.32,-66.91"/>
<polygon fill="#63b8ff" stroke="#63b8ff" points="1066.51,-63.41 1056.34,-66.36 1066.13,-70.4 1066.51,-63.41"/>
</a>
</g>
</g>
<!-- Node17&#45;&gt;Node13 -->
<g id="edge27_Node000017_Node000013" class="edge">
<title>Node17&#45;&gt;Node13</title>
<g id="a_edge27_Node000017_Node000013"><a xlink:title=" ">
<path fill="none" stroke="#63b8ff" d="M835.47,-223.27C744.34,-213 543.04,-190.3 454.75,-180.34"/>
<polygon fill="#63b8ff" stroke="#63b8ff" points="454.89,-176.83 444.56,-179.19 454.1,-183.79 454.89,-176.83"/>
</a>
</g>
</g>
<!-- Node18 -->
<g id="Node000018" class="node">
<title>Node18</title>
<g id="a_Node000018"><a xlink:title=" ">
<polygon fill="#e0e0e0" stroke="#999999" points="1073.32,-184 1004.32,-184 1004.32,-165 1073.32,-165 1073.32,-184"/>
<text text-anchor="middle" x="1038.82" y="-172" font-family="Helvetica,sans-Serif" font-size="10.00">type_traits</text>
</a>
</g>
</g>
<!-- Node17&#45;&gt;Node18 -->
<g id="edge26_Node000017_Node000018" class="edge">
<title>Node17&#45;&gt;Node18</title>
<g id="a_edge26_Node000017_Node000018"><a xlink:title=" ">
<path fill="none" stroke="#63b8ff" d="M907.04,-219.98C933.17,-211.16 974.22,-197.31 1003.55,-187.41"/>
<polygon fill="#63b8ff" stroke="#63b8ff" points="1005.04,-190.6 1013.4,-184.08 1002.8,-183.96 1005.04,-190.6"/>
</a>
</g>
</g>
<!-- Node19 -->
<g id="Node000019" class="node">
<title>Node19</title>
<g id="a_Node000019"><a xlink:title=" ">
<polygon fill="#e0e0e0" stroke="#999999" points="772.32,-129 715.32,-129 715.32,-110 772.32,-110 772.32,-129"/>
<text text-anchor="middle" x="743.82" y="-117" font-family="Helvetica,sans-Serif" font-size="10.00">ostream</text>
</a>
</g>
</g>
<!-- Node17&#45;&gt;Node19 -->
<g id="edge30_Node000017_Node000019" class="edge">
<title>Node17&#45;&gt;Node19</title>
<g id="a_edge30_Node000017_Node000019"><a xlink:title=" ">
<path fill="none" stroke="#63b8ff" d="M880.35,-219.92C877.63,-206.48 870.57,-180.42 854.82,-165 844.02,-154.42 809.59,-141.48 781.91,-132.29"/>
<polygon fill="#63b8ff" stroke="#63b8ff" points="782.67,-128.85 772.07,-129.08 780.5,-135.51 782.67,-128.85"/>
</a>
</g>
</g>
<!-- Node20 -->
<g id="Node000020" class="node">
<title>Node20</title>
<g id="a_Node000020"><a xlink:title=" ">
<polygon fill="#e0e0e0" stroke="#999999" points="840.82,-129 790.82,-129 790.82,-110 840.82,-110 840.82,-129"/>
<text text-anchor="middle" x="815.82" y="-117" font-family="Helvetica,sans-Serif" font-size="10.00">cstdint</text>
</a>
</g>
</g>
<!-- Node17&#45;&gt;Node20 -->
<g id="edge31_Node000017_Node000020" class="edge">
<title>Node17&#45;&gt;Node20</title>
<g id="a_edge31_Node000017_Node000020"><a xlink:title=" ">
<path fill="none" stroke="#63b8ff" d="M886.81,-219.65C893.36,-206.75 902.89,-182.44 892.82,-165 883.68,-149.16 866.52,-138.46 850.71,-131.52"/>
<polygon fill="#63b8ff" stroke="#63b8ff" points="851.72,-128.15 841.13,-127.68 849.11,-134.65 851.72,-128.15"/>
</a>
</g>
</g>
<!-- Node17&#45;&gt;Node21 -->
<g id="edge32_Node000017_Node000021" class="edge">
<title>Node17&#45;&gt;Node21</title>
<g id="a_edge32_Node000017_Node000021"><a xlink:title=" ">
<path fill="none" stroke="#63b8ff" d="M895.32,-219.98C908.22,-211.84 927.92,-199.41 943.22,-189.76"/>
<polygon fill="#63b8ff" stroke="#63b8ff" points="945.49,-192.47 952.08,-184.17 941.75,-186.55 945.49,-192.47"/>
</a>
</g>
</g>
<!-- Node21&#45;&gt;Node2 -->
<g id="edge33_Node000021_Node000002" class="edge">
<title>Node21&#45;&gt;Node2</title>
<g id="a_edge33_Node000021_Node000002"><a xlink:title=" ">
<path fill="none" stroke="#63b8ff" d="M951.03,-164.95C922.23,-148.38 860.54,-113.23 849.82,-110 756.12,-81.79 453.5,-69.73 353.92,-66.47"/>
<polygon fill="#63b8ff" stroke="#63b8ff" points="353.97,-62.97 343.86,-66.14 353.74,-69.96 353.97,-62.97"/>
</a>
</g>
</g>
<!-- Node21&#45;&gt;Node3 -->
<g id="edge34_Node000021_Node000003" class="edge">
<title>Node21&#45;&gt;Node3</title>
<g id="a_edge34_Node000021_Node000003"><a xlink:title=" ">
<path fill="none" stroke="#63b8ff" d="M945.11,-170.18C889.63,-161.3 737.2,-136.89 668.81,-125.94"/>
<polygon fill="#63b8ff" stroke="#63b8ff" points="669.01,-122.43 658.58,-124.3 667.9,-129.34 669.01,-122.43"/>
</a>
</g>
</g>
<!-- Node21&#45;&gt;Node4 -->
<g id="edge41_Node000021_Node000004" class="edge">
<title>Node21&#45;&gt;Node4</title>
<g id="a_edge41_Node000021_Node000004"><a xlink:title=" ">
<path fill="none" stroke="#63b8ff" d="M986.41,-167.4C989.55,-166.55 992.76,-165.72 995.82,-165 1076.87,-145.92 1100.57,-146.6 1185.72,-129.15"/>
<polygon fill="#63b8ff" stroke="#63b8ff" points="1186.48,-132.57 1195.56,-127.11 1185.06,-125.71 1186.48,-132.57"/>
</a>
</g>
</g>
<!-- Node21&#45;&gt;Node5 -->
<g id="edge36_Node000021_Node000005" class="edge">
<title>Node21&#45;&gt;Node5</title>
<g id="a_edge36_Node000021_Node000005"><a xlink:title=" ">
<path fill="none" stroke="#63b8ff" d="M986.38,-167.25C989.52,-166.41 992.74,-165.63 995.82,-165 1052.67,-153.31 1219.57,-133.8 1297.22,-125.02"/>
<polygon fill="#63b8ff" stroke="#63b8ff" points="1298.02,-128.46 1307.57,-123.86 1297.24,-121.5 1298.02,-128.46"/>
</a>
</g>
</g>
<!-- Node21&#45;&gt;Node10 -->
<g id="edge44_Node000021_Node000010" class="edge">
<title>Node21&#45;&gt;Node10</title>
<g id="a_edge44_Node000021_Node000010"><a xlink:title=" ">
<path fill="none" stroke="#63b8ff" d="M979.44,-164.87C990.98,-156.89 1007.15,-144.02 1016.82,-129 1025.58,-115.39 1030.45,-97.58 1033.06,-84.28"/>
<polygon fill="#63b8ff" stroke="#63b8ff" points="1036.52,-84.81 1034.76,-74.36 1029.62,-83.63 1036.52,-84.81"/>
</a>
</g>
</g>
<!-- Node21&#45;&gt;Node14 -->
<g id="edge37_Node000021_Node000014" class="edge">
<title>Node21&#45;&gt;Node14</title>
<g id="a_edge37_Node000021_Node000014"><a xlink:title=" ">
<path fill="none" stroke="#63b8ff" d="M945.3,-171.05C877.16,-162.92 657.5,-136.7 564.29,-125.57"/>
<polygon fill="#63b8ff" stroke="#63b8ff" points="564.69,-122.09 554.35,-124.38 563.87,-129.04 564.69,-122.09"/>
</a>
</g>
</g>
<!-- Node21&#45;&gt;Node19 -->
<g id="edge39_Node000021_Node000019" class="edge">
<title>Node21&#45;&gt;Node19</title>
<g id="a_edge39_Node000021_Node000019"><a xlink:title=" ">
<path fill="none" stroke="#63b8ff" d="M944.93,-168.51C907.73,-159.63 829.46,-140.95 782.29,-129.68"/>
<polygon fill="#63b8ff" stroke="#63b8ff" points="782.97,-126.25 772.43,-127.33 781.35,-133.06 782.97,-126.25"/>
</a>
</g>
</g>
<!-- Node21&#45;&gt;Node20 -->
<g id="edge38_Node000021_Node000020" class="edge">
<title>Node21&#45;&gt;Node20</title>
<g id="a_edge38_Node000021_Node000020"><a xlink:title=" ">
<path fill="none" stroke="#63b8ff" d="M945.28,-166.24C920.62,-157.53 878.94,-142.8 849.54,-132.41"/>
<polygon fill="#63b8ff" stroke="#63b8ff" points="850.68,-129.1 840.08,-129.07 848.35,-135.7 850.68,-129.1"/>
</a>
</g>
</g>
<!-- Node22 -->
<g id="Node000022" class="node">
<title>Node22</title>
<g id="a_Node000022"><a xlink:title=" ">
<polygon fill="#e0e0e0" stroke="#999999" points="1007.32,-129 966.32,-129 966.32,-110 1007.32,-110 1007.32,-129"/>
<text text-anchor="middle" x="986.82" y="-117" font-family="Helvetica,sans-Serif" font-size="10.00">tuple</text>
</a>
</g>
</g>
<!-- Node21&#45;&gt;Node22 -->
<g id="edge35_Node000021_Node000022" class="edge">
<title>Node21&#45;&gt;Node22</title>
<g id="a_edge35_Node000021_Node000022"><a xlink:title=" ">
<path fill="none" stroke="#63b8ff" d="M969.29,-164.75C972.1,-157.65 976.16,-147.4 979.67,-138.56"/>
<polygon fill="#63b8ff" stroke="#63b8ff" points="982.99,-139.68 983.42,-129.09 976.48,-137.1 982.99,-139.68"/>
</a>
</g>
</g>
<!-- Node23 -->
<g id="Node000023" class="node">
<title>Node23</title>
<g id="a_Node000023"><a xlink:title=" ">
<polygon fill="#e0e0e0" stroke="#999999" points="948.32,-129 897.32,-129 897.32,-110 948.32,-110 948.32,-129"/>
<text text-anchor="middle" x="922.82" y="-117" font-family="Helvetica,sans-Serif" font-size="10.00">variant</text>
</a>
</g>
</g>
<!-- Node21&#45;&gt;Node23 -->
<g id="edge40_Node000021_Node000023" class="edge">
<title>Node21&#45;&gt;Node23</title>
<g id="a_edge40_Node000021_Node000023"><a xlink:title=" ">
<path fill="none" stroke="#63b8ff" d="M958.72,-164.75C952.65,-157.26 943.73,-146.28 936.31,-137.13"/>
<polygon fill="#63b8ff" stroke="#63b8ff" points="938.81,-134.65 929.79,-129.09 933.37,-139.06 938.81,-134.65"/>
</a>
</g>
</g>
<!-- Node24 -->
<g id="Node000024" class="node">
<title>Node24</title>
<g id="a_Node000024"><a xlink:href="def__types_8h.html" target="_top" xlink:title=" ">
<polygon fill="white" stroke="#666666" points="1177.32,-129 1064.32,-129 1064.32,-110 1177.32,-110 1177.32,-129"/>
<text text-anchor="middle" x="1120.82" y="-117" font-family="Helvetica,sans-Serif" font-size="10.00">../c_wcf/def_types.h</text>
</a>
</g>
</g>
<!-- Node21&#45;&gt;Node24 -->
<g id="edge42_Node000021_Node000024" class="edge">
<title>Node21&#45;&gt;Node24</title>
<g id="a_edge42_Node000021_Node000024"><a xlink:title=" ">
<path fill="none" stroke="#63b8ff" d="M986.4,-166.46C1011.78,-157.78 1055.3,-142.9 1085.94,-132.43"/>
<polygon fill="#63b8ff" stroke="#63b8ff" points="1087.46,-135.61 1095.79,-129.06 1085.19,-128.98 1087.46,-135.61"/>
</a>
</g>
</g>
<!-- Node24&#45;&gt;Node10 -->
<g id="edge43_Node000024_Node000010" class="edge">
<title>Node24&#45;&gt;Node10</title>
<g id="a_edge43_Node000024_Node000010"><a xlink:title=" ">
<path fill="none" stroke="#63b8ff" d="M1107.16,-109.98C1093.98,-101.77 1073.79,-89.18 1058.25,-79.49"/>
<polygon fill="#63b8ff" stroke="#63b8ff" points="1060.06,-76.49 1049.72,-74.17 1056.36,-82.43 1060.06,-76.49"/>
</a>
</g>
</g>
<!-- Node25&#45;&gt;Node2 -->
<g id="edge49_Node000025_Node000002" class="edge">
<title>Node25&#45;&gt;Node2</title>
<g id="a_edge49_Node000025_Node000002"><a xlink:title=" ">
<path fill="none" stroke="#63b8ff" d="M586.17,-219.95C554.44,-200.13 473.16,-149.75 403.82,-110 385.02,-99.23 363.49,-87.56 347.2,-78.88"/>
<polygon fill="#63b8ff" stroke="#63b8ff" points="348.75,-75.74 338.28,-74.14 345.47,-81.92 348.75,-75.74"/>
</a>
</g>
</g>
<!-- Node25&#45;&gt;Node6 -->
<g id="edge55_Node000025_Node000006" class="edge">
<title>Node25&#45;&gt;Node6</title>
<g id="a_edge55_Node000025_Node000006"><a xlink:title=" ">
<path fill="none" stroke="#63b8ff" d="M559.53,-224.39C460.44,-214.27 206.32,-188.32 114.53,-178.94"/>
<polygon fill="#63b8ff" stroke="#63b8ff" points="114.71,-175.44 104.41,-177.91 114,-182.41 114.71,-175.44"/>
</a>
</g>
</g>
<!-- Node25&#45;&gt;Node7 -->
<g id="edge51_Node000025_Node000007" class="edge">
<title>Node25&#45;&gt;Node7</title>
<g id="a_edge51_Node000025_Node000007"><a xlink:title=" ">
<path fill="none" stroke="#63b8ff" d="M559.63,-226.39C500.75,-222.39 395.36,-211.5 370.82,-184 360.13,-172.02 359.96,-153.21 361.81,-139.16"/>
<polygon fill="#63b8ff" stroke="#63b8ff" points="365.29,-139.6 363.57,-129.14 358.39,-138.39 365.29,-139.6"/>
</a>
</g>
</g>
<!-- Node25&#45;&gt;Node10 -->
<g id="edge57_Node000025_Node000010" class="edge">
<title>Node25&#45;&gt;Node10</title>
<g id="a_edge57_Node000025_Node000010"><a xlink:title=" ">
<path fill="none" stroke="#63b8ff" d="M608.57,-219.9C616.38,-211.56 627.27,-198.13 631.82,-184 634.41,-175.96 634.63,-172.96 631.82,-165 624.99,-145.62 609.65,-148.38 602.82,-129 600.01,-121.04 597.16,-116.27 602.82,-110 629.72,-80.19 910.46,-69.2 1004.97,-66.33"/>
<polygon fill="#63b8ff" stroke="#63b8ff" points="1005.15,-69.83 1015.04,-66.04 1004.94,-62.83 1005.15,-69.83"/>
</a>
</g>
</g>
<!-- Node25&#45;&gt;Node14 -->
<g id="edge52_Node000025_Node000014" class="edge">
<title>Node25&#45;&gt;Node14</title>
<g id="a_edge52_Node000025_Node000014"><a xlink:title=" ">
<path fill="none" stroke="#63b8ff" d="M593.44,-219.66C580.46,-201.69 550.81,-160.64 534.01,-137.38"/>
<polygon fill="#63b8ff" stroke="#63b8ff" points="536.77,-135.22 528.07,-129.16 531.09,-139.31 536.77,-135.22"/>
</a>
</g>
</g>
<!-- Node25&#45;&gt;Node15 -->
<g id="edge54_Node000025_Node000015" class="edge">
<title>Node25&#45;&gt;Node15</title>
<g id="a_edge54_Node000025_Node000015"><a xlink:title=" ">
<path fill="none" stroke="#63b8ff" d="M559.6,-222.21C501.68,-213.16 394.17,-196.35 325.14,-185.56"/>
<polygon fill="#63b8ff" stroke="#63b8ff" points="325.66,-182.1 315.24,-184.01 324.58,-189.01 325.66,-182.1"/>
</a>
</g>
</g>
<!-- Node25&#45;&gt;Node19 -->
<g id="edge48_Node000025_Node000019" class="edge">
<title>Node25&#45;&gt;Node19</title>
<g id="a_edge48_Node000025_Node000019"><a xlink:title=" ">
<path fill="none" stroke="#63b8ff" d="M612.97,-219.92C626.25,-211.17 647.25,-197.04 664.82,-184 686.04,-168.25 709.55,-149.12 725.36,-136"/>
<polygon fill="#63b8ff" stroke="#63b8ff" points="727.85,-138.48 733.29,-129.39 723.37,-133.11 727.85,-138.48"/>
</a>
</g>
</g>
<!-- Node25&#45;&gt;Node20 -->
<g id="edge53_Node000025_Node000020" class="edge">
<title>Node25&#45;&gt;Node20</title>
<g id="a_edge53_Node000025_Node000020"><a xlink:title=" ">
<path fill="none" stroke="#63b8ff" d="M617.64,-219.88C636.02,-210.98 665.48,-196.63 690.82,-184 725.4,-166.76 765.15,-146.49 790.37,-133.57"/>
<polygon fill="#63b8ff" stroke="#63b8ff" points="791.98,-136.68 799.28,-129 788.78,-130.45 791.98,-136.68"/>
</a>
</g>
</g>
<!-- Node25&#45;&gt;Node21 -->
<g id="edge56_Node000025_Node000021" class="edge">
<title>Node25&#45;&gt;Node21</title>
<g id="a_edge56_Node000025_Node000021"><a xlink:title=" ">
<path fill="none" stroke="#63b8ff" d="M640.04,-222.68C713.74,-212 868.95,-189.53 935.01,-179.96"/>
<polygon fill="#63b8ff" stroke="#63b8ff" points="935.78,-183.39 945.18,-178.49 934.78,-176.46 935.78,-183.39"/>
</a>
</g>
</g>
<!-- Node26 -->
<g id="Node000026" class="node">
<title>Node26</title>
<g id="a_Node000026"><a xlink:title=" ">
<polygon fill="#e0e0e0" stroke="#999999" points="622.82,-184 576.82,-184 576.82,-165 622.82,-165 622.82,-184"/>
<text text-anchor="middle" x="599.82" y="-172" font-family="Helvetica,sans-Serif" font-size="10.00">future</text>
</a>
</g>
</g>
<!-- Node25&#45;&gt;Node26 -->
<g id="edge50_Node000025_Node000026" class="edge">
<title>Node25&#45;&gt;Node26</title>
<g id="a_edge50_Node000025_Node000026"><a xlink:title=" ">
<path fill="none" stroke="#63b8ff" d="M599.82,-219.75C599.82,-212.8 599.82,-202.85 599.82,-194.13"/>
<polygon fill="#63b8ff" stroke="#63b8ff" points="603.32,-194.09 599.82,-184.09 596.32,-194.09 603.32,-194.09"/>
</a>
</g>
</g>
</g>
</svg>
