<?xml version="1.0" encoding="UTF-8" standalone="no"?>
<!DOCTYPE svg PUBLIC "-//W3C//DTD SVG 1.1//EN"
 "http://www.w3.org/Graphics/SVG/1.1/DTD/svg11.dtd">
<!-- Generated by graphviz version 2.43.0 (0)
 -->
<!-- Title: client/include/webcface/member.h Pages: 1 -->
<svg width="1125pt" height="324pt"
 viewBox="0.00 0.00 1125.00 324.00" xmlns="http://www.w3.org/2000/svg" xmlns:xlink="http://www.w3.org/1999/xlink">
<g id="graph0" class="graph" transform="scale(1 1) rotate(0) translate(4 320)">
<title>client/include/webcface/member.h</title>
<!-- Node1 -->
<g id="Node000001" class="node">
<title>Node1</title>
<g id="a_Node000001"><a xlink:title=" ">
<polygon fill="#999999" stroke="#666666" points="908.5,-316 777.5,-316 777.5,-286 908.5,-286 908.5,-316"/>
<text text-anchor="start" x="785.5" y="-304" font-family="Helvetica,sans-Serif" font-size="10.00">client/include/webcface</text>
<text text-anchor="middle" x="843" y="-293" font-family="Helvetica,sans-Serif" font-size="10.00">/member.h</text>
</a>
</g>
</g>
<!-- Node2 -->
<g id="Node000002" class="node">
<title>Node2</title>
<g id="a_Node000002"><a xlink:title=" ">
<polygon fill="#e0e0e0" stroke="#999999" points="274,-19 230,-19 230,0 274,0 274,-19"/>
<text text-anchor="middle" x="252" y="-7" font-family="Helvetica,sans-Serif" font-size="10.00">string</text>
</a>
</g>
</g>
<!-- Node1&#45;&gt;Node2 -->
<g id="edge1_Node000001_Node000002" class="edge">
<title>Node1&#45;&gt;Node2</title>
<g id="a_edge1_Node000001_Node000002"><a xlink:title=" ">
<path fill="none" stroke="#63b8ff" d="M777.2,-298.04C578.8,-291.27 0,-264.81 0,-186.5 0,-186.5 0,-186.5 0,-124 0,-28.81 151.34,-12.99 219.45,-10.69"/>
<polygon fill="#63b8ff" stroke="#63b8ff" points="219.73,-14.19 229.64,-10.43 219.55,-7.19 219.73,-14.19"/>
</a>
</g>
</g>
<!-- Node3 -->
<g id="Node000003" class="node">
<title>Node3</title>
<g id="a_Node000003"><a xlink:title=" ">
<polygon fill="#e0e0e0" stroke="#999999" points="1050.5,-74 1003.5,-74 1003.5,-55 1050.5,-55 1050.5,-74"/>
<text text-anchor="middle" x="1027" y="-62" font-family="Helvetica,sans-Serif" font-size="10.00">vector</text>
</a>
</g>
</g>
<!-- Node1&#45;&gt;Node3 -->
<g id="edge2_Node000001_Node000003" class="edge">
<title>Node1&#45;&gt;Node3</title>
<g id="a_edge2_Node000001_Node000003"><a xlink:title=" ">
<path fill="none" stroke="#63b8ff" d="M869.29,-285.83C910.33,-262.01 988.12,-209.65 1019,-140 1026.82,-122.37 1028.26,-100.18 1028.1,-84.62"/>
<polygon fill="#63b8ff" stroke="#63b8ff" points="1031.58,-84.08 1027.73,-74.2 1024.58,-84.32 1031.58,-84.08"/>
</a>
</g>
</g>
<!-- Node4 -->
<g id="Node000004" class="node">
<title>Node4</title>
<g id="a_Node000004"><a xlink:title=" ">
<polygon fill="#e0e0e0" stroke="#999999" points="888,-134.5 832,-134.5 832,-115.5 888,-115.5 888,-134.5"/>
<text text-anchor="middle" x="860" y="-122.5" font-family="Helvetica,sans-Serif" font-size="10.00">optional</text>
</a>
</g>
</g>
<!-- Node1&#45;&gt;Node4 -->
<g id="edge3_Node000001_Node000004" class="edge">
<title>Node1&#45;&gt;Node4</title>
<g id="a_edge3_Node000001_Node000004"><a xlink:title=" ">
<path fill="none" stroke="#63b8ff" d="M844.39,-285.76C847.44,-254.55 854.71,-180.11 858.15,-144.97"/>
<polygon fill="#63b8ff" stroke="#63b8ff" points="861.66,-144.98 859.15,-134.68 854.7,-144.3 861.66,-144.98"/>
</a>
</g>
</g>
<!-- Node5 -->
<g id="Node000005" class="node">
<title>Node5</title>
<g id="a_Node000005"><a xlink:href="field_8h.html" target="_top" xlink:title=" ">
<polygon fill="white" stroke="#666666" points="737.5,-134.5 690.5,-134.5 690.5,-115.5 737.5,-115.5 737.5,-134.5"/>
<text text-anchor="middle" x="714" y="-122.5" font-family="Helvetica,sans-Serif" font-size="10.00">field.h</text>
</a>
</g>
</g>
<!-- Node1&#45;&gt;Node5 -->
<g id="edge4_Node000001_Node000005" class="edge">
<title>Node1&#45;&gt;Node5</title>
<g id="a_edge4_Node000001_Node000005"><a xlink:title=" ">
<path fill="none" stroke="#63b8ff" d="M827.98,-285.73C808.22,-266.43 773.17,-230.34 749,-195 737.9,-178.76 728.04,-158.52 721.64,-144.17"/>
<polygon fill="#63b8ff" stroke="#63b8ff" points="724.81,-142.69 717.62,-134.9 718.39,-145.47 724.81,-142.69"/>
</a>
</g>
</g>
<!-- Node8 -->
<g id="Node000008" class="node">
<title>Node8</title>
<g id="a_Node000008"><a xlink:href="webcface-config_8h.html" target="_top" xlink:title=" ">
<polygon fill="white" stroke="#666666" points="1020.5,-19 915.5,-19 915.5,0 1020.5,0 1020.5,-19"/>
<text text-anchor="middle" x="968" y="-7" font-family="Helvetica,sans-Serif" font-size="10.00">webcface&#45;config.h</text>
</a>
</g>
</g>
<!-- Node1&#45;&gt;Node8 -->
<g id="edge18_Node000001_Node000008" class="edge">
<title>Node1&#45;&gt;Node8</title>
<g id="a_edge18_Node000001_Node000008"><a xlink:title=" ">
<path fill="none" stroke="#63b8ff" d="M908.63,-300.13C989.69,-296.44 1117,-276.35 1117,-186.5 1117,-186.5 1117,-186.5 1117,-124 1117,-88.1 1102.25,-78.38 1075,-55 1057.2,-39.73 1033.44,-29.14 1012.82,-22.14"/>
<polygon fill="#63b8ff" stroke="#63b8ff" points="1013.89,-18.81 1003.3,-19.07 1011.75,-25.47 1013.89,-18.81"/>
</a>
</g>
</g>
<!-- Node13 -->
<g id="Node000013" class="node">
<title>Node13</title>
<g id="a_Node000013"><a xlink:href="func_8h.html" target="_top" xlink:title=" ">
<polygon fill="white" stroke="#666666" points="646.5,-250 599.5,-250 599.5,-231 646.5,-231 646.5,-250"/>
<text text-anchor="middle" x="623" y="-238" font-family="Helvetica,sans-Serif" font-size="10.00">func.h</text>
</a>
</g>
</g>
<!-- Node1&#45;&gt;Node13 -->
<g id="edge19_Node000001_Node000013" class="edge">
<title>Node1&#45;&gt;Node13</title>
<g id="a_edge19_Node000001_Node000013"><a xlink:title=" ">
<path fill="none" stroke="#63b8ff" d="M790.3,-285.99C748.77,-274.94 692.11,-259.88 656.55,-250.42"/>
<polygon fill="#63b8ff" stroke="#63b8ff" points="657.23,-246.98 646.67,-247.79 655.43,-253.75 657.23,-246.98"/>
</a>
</g>
</g>
<!-- Node26 -->
<g id="Node000026" class="node">
<title>Node26</title>
<g id="a_Node000026"><a xlink:href="log_8h.html" target="_top" xlink:title=" ">
<polygon fill="white" stroke="#666666" points="961,-195 871,-195 871,-176 961,-176 961,-195"/>
<text text-anchor="middle" x="916" y="-183" font-family="Helvetica,sans-Serif" font-size="10.00">webcface/log.h</text>
</a>
</g>
</g>
<!-- Node1&#45;&gt;Node26 -->
<g id="edge46_Node000001_Node000026" class="edge">
<title>Node1&#45;&gt;Node26</title>
<g id="a_edge46_Node000001_Node000026"><a xlink:title=" ">
<path fill="none" stroke="#63b8ff" d="M852.25,-285.63C865.67,-264.75 890.54,-226.09 904.92,-203.72"/>
<polygon fill="#63b8ff" stroke="#63b8ff" points="907.92,-205.53 910.39,-195.23 902.03,-201.75 907.92,-205.53"/>
</a>
</g>
</g>
<!-- Node5&#45;&gt;Node2 -->
<g id="edge6_Node000005_Node000002" class="edge">
<title>Node5&#45;&gt;Node2</title>
<g id="a_edge6_Node000005_Node000002"><a xlink:title=" ">
<path fill="none" stroke="#63b8ff" d="M690.37,-115.79C663.76,-106.36 619.34,-90.13 582,-74 564.3,-66.35 561.41,-60.74 543,-55 451.75,-26.52 338.51,-15.9 284.11,-12.25"/>
<polygon fill="#63b8ff" stroke="#63b8ff" points="284.25,-8.75 274.04,-11.61 283.8,-15.74 284.25,-8.75"/>
</a>
</g>
</g>
<!-- Node5&#45;&gt;Node3 -->
<g id="edge8_Node000005_Node000003" class="edge">
<title>Node5&#45;&gt;Node3</title>
<g id="a_edge8_Node000005_Node000003"><a xlink:title=" ">
<path fill="none" stroke="#63b8ff" d="M737.53,-119.6C792.47,-109.33 929.41,-83.74 993.25,-71.81"/>
<polygon fill="#63b8ff" stroke="#63b8ff" points="994.01,-75.23 1003.2,-69.95 992.73,-68.34 994.01,-75.23"/>
</a>
</g>
</g>
<!-- Node6 -->
<g id="Node000006" class="node">
<title>Node6</title>
<g id="a_Node000006"><a xlink:title=" ">
<polygon fill="#e0e0e0" stroke="#999999" points="525,-19 467,-19 467,0 525,0 525,-19"/>
<text text-anchor="middle" x="496" y="-7" font-family="Helvetica,sans-Serif" font-size="10.00">memory</text>
</a>
</g>
</g>
<!-- Node5&#45;&gt;Node6 -->
<g id="edge5_Node000005_Node000006" class="edge">
<title>Node5&#45;&gt;Node6</title>
<g id="a_edge5_Node000005_Node000006"><a xlink:title=" ">
<path fill="none" stroke="#63b8ff" d="M697.61,-115.47C659.9,-95.83 566.71,-47.32 521.47,-23.76"/>
<polygon fill="#63b8ff" stroke="#63b8ff" points="523.06,-20.64 512.58,-19.13 519.83,-26.85 523.06,-20.64"/>
</a>
</g>
</g>
<!-- Node7 -->
<g id="Node000007" class="node">
<title>Node7</title>
<g id="a_Node000007"><a xlink:title=" ">
<polygon fill="#e0e0e0" stroke="#999999" points="897.5,-19 824.5,-19 824.5,0 897.5,0 897.5,-19"/>
<text text-anchor="middle" x="861" y="-7" font-family="Helvetica,sans-Serif" font-size="10.00">string_view</text>
</a>
</g>
</g>
<!-- Node5&#45;&gt;Node7 -->
<g id="edge7_Node000005_Node000007" class="edge">
<title>Node5&#45;&gt;Node7</title>
<g id="a_edge7_Node000005_Node000007"><a xlink:title=" ">
<path fill="none" stroke="#63b8ff" d="M733.76,-115.37C752.81,-106.53 781.92,-91.61 804,-74 821.29,-60.21 837.8,-40.91 848.56,-27.21"/>
<polygon fill="#63b8ff" stroke="#63b8ff" points="851.44,-29.2 854.75,-19.14 845.89,-24.94 851.44,-29.2"/>
</a>
</g>
</g>
<!-- Node5&#45;&gt;Node8 -->
<g id="edge9_Node000005_Node000008" class="edge">
<title>Node5&#45;&gt;Node8</title>
<g id="a_edge9_Node000005_Node000008"><a xlink:title=" ">
<path fill="none" stroke="#63b8ff" d="M735.94,-115.35C741.16,-113.45 746.74,-111.55 752,-110 822.33,-89.28 850.05,-111.6 913,-74 932.1,-62.59 947.97,-42.22 957.68,-27.63"/>
<polygon fill="#63b8ff" stroke="#63b8ff" points="960.73,-29.35 963.14,-19.03 954.82,-25.6 960.73,-29.35"/>
</a>
</g>
</g>
<!-- Node9 -->
<g id="Node000009" class="node">
<title>Node9</title>
<g id="a_Node000009"><a xlink:href="encoding_8h.html" target="_top" xlink:title=" ">
<polygon fill="white" stroke="#666666" points="795.5,-74 628.5,-74 628.5,-55 795.5,-55 795.5,-74"/>
<text text-anchor="middle" x="712" y="-62" font-family="Helvetica,sans-Serif" font-size="10.00">webcface/encoding/encoding.h</text>
</a>
</g>
</g>
<!-- Node5&#45;&gt;Node9 -->
<g id="edge10_Node000005_Node000009" class="edge">
<title>Node5&#45;&gt;Node9</title>
<g id="a_edge10_Node000005_Node000009"><a xlink:title=" ">
<path fill="none" stroke="#63b8ff" d="M713.7,-115.37C713.43,-107.25 713,-94.81 712.65,-84.39"/>
<polygon fill="#63b8ff" stroke="#63b8ff" points="716.14,-84.04 712.3,-74.17 709.14,-84.28 716.14,-84.04"/>
</a>
</g>
</g>
<!-- Node9&#45;&gt;Node2 -->
<g id="edge11_Node000009_Node000002" class="edge">
<title>Node9&#45;&gt;Node2</title>
<g id="a_edge11_Node000009_Node000002"><a xlink:title=" ">
<path fill="none" stroke="#63b8ff" d="M638.09,-54.98C536.18,-43.24 356.87,-22.58 284.07,-14.19"/>
<polygon fill="#63b8ff" stroke="#63b8ff" points="284.46,-10.72 274.12,-13.05 283.65,-17.67 284.46,-10.72"/>
</a>
</g>
</g>
<!-- Node9&#45;&gt;Node6 -->
<g id="edge13_Node000009_Node000006" class="edge">
<title>Node9&#45;&gt;Node6</title>
<g id="a_edge13_Node000009_Node000006"><a xlink:title=" ">
<path fill="none" stroke="#63b8ff" d="M677.3,-54.98C638.38,-45.44 575.42,-29.99 534.87,-20.04"/>
<polygon fill="#63b8ff" stroke="#63b8ff" points="535.62,-16.62 525.08,-17.63 533.96,-23.42 535.62,-16.62"/>
</a>
</g>
</g>
<!-- Node9&#45;&gt;Node7 -->
<g id="edge12_Node000009_Node000007" class="edge">
<title>Node9&#45;&gt;Node7</title>
<g id="a_edge12_Node000009_Node000007"><a xlink:title=" ">
<path fill="none" stroke="#63b8ff" d="M735.94,-54.98C760.56,-46.23 799.12,-32.51 826.92,-22.62"/>
<polygon fill="#63b8ff" stroke="#63b8ff" points="828.38,-25.82 836.62,-19.17 826.03,-19.22 828.38,-25.82"/>
</a>
</g>
</g>
<!-- Node9&#45;&gt;Node8 -->
<g id="edge17_Node000009_Node000008" class="edge">
<title>Node9&#45;&gt;Node8</title>
<g id="a_edge17_Node000009_Node000008"><a xlink:title=" ">
<path fill="none" stroke="#63b8ff" d="M753.13,-54.98C797.6,-45.78 868.55,-31.09 916.65,-21.13"/>
<polygon fill="#63b8ff" stroke="#63b8ff" points="917.46,-24.54 926.55,-19.08 916.04,-17.68 917.46,-24.54"/>
</a>
</g>
</g>
<!-- Node10 -->
<g id="Node000010" class="node">
<title>Node10</title>
<g id="a_Node000010"><a xlink:title=" ">
<polygon fill="#e0e0e0" stroke="#999999" points="695,-19 647,-19 647,0 695,0 695,-19"/>
<text text-anchor="middle" x="671" y="-7" font-family="Helvetica,sans-Serif" font-size="10.00">mutex</text>
</a>
</g>
</g>
<!-- Node9&#45;&gt;Node10 -->
<g id="edge14_Node000009_Node000010" class="edge">
<title>Node9&#45;&gt;Node10</title>
<g id="a_edge14_Node000009_Node000010"><a xlink:title=" ">
<path fill="none" stroke="#63b8ff" d="M705.23,-54.75C699.44,-47.26 690.94,-36.28 683.86,-27.13"/>
<polygon fill="#63b8ff" stroke="#63b8ff" points="686.53,-24.86 677.64,-19.09 680.99,-29.14 686.53,-24.86"/>
</a>
</g>
</g>
<!-- Node11 -->
<g id="Node000011" class="node">
<title>Node11</title>
<g id="a_Node000011"><a xlink:title=" ">
<polygon fill="#e0e0e0" stroke="#999999" points="806.5,-19 713.5,-19 713.5,0 806.5,0 806.5,-19"/>
<text text-anchor="middle" x="760" y="-7" font-family="Helvetica,sans-Serif" font-size="10.00">unordered_map</text>
</a>
</g>
</g>
<!-- Node9&#45;&gt;Node11 -->
<g id="edge15_Node000009_Node000011" class="edge">
<title>Node9&#45;&gt;Node11</title>
<g id="a_edge15_Node000009_Node000011"><a xlink:title=" ">
<path fill="none" stroke="#63b8ff" d="M719.93,-54.75C726.85,-47.11 737.07,-35.82 745.45,-26.56"/>
<polygon fill="#63b8ff" stroke="#63b8ff" points="748.1,-28.85 752.22,-19.09 742.91,-24.15 748.1,-28.85"/>
</a>
</g>
</g>
<!-- Node12 -->
<g id="Node000012" class="node">
<title>Node12</title>
<g id="a_Node000012"><a xlink:title=" ">
<polygon fill="#e0e0e0" stroke="#999999" points="629,-19 543,-19 543,0 629,0 629,-19"/>
<text text-anchor="middle" x="586" y="-7" font-family="Helvetica,sans-Serif" font-size="10.00">unordered_set</text>
</a>
</g>
</g>
<!-- Node9&#45;&gt;Node12 -->
<g id="edge16_Node000009_Node000012" class="edge">
<title>Node9&#45;&gt;Node12</title>
<g id="a_edge16_Node000009_Node000012"><a xlink:title=" ">
<path fill="none" stroke="#63b8ff" d="M691.76,-54.98C671.3,-46.38 639.47,-32.99 616.07,-23.15"/>
<polygon fill="#63b8ff" stroke="#63b8ff" points="617.19,-19.82 606.61,-19.17 614.47,-26.27 617.19,-19.82"/>
</a>
</g>
</g>
<!-- Node14 -->
<g id="Node000014" class="node">
<title>Node14</title>
<g id="a_Node000014"><a xlink:href="encoding_2include_2webcface_2encoding_2val__adaptor_8h.html" target="_top" xlink:title=" ">
<polygon fill="white" stroke="#666666" points="573,-140 445,-140 445,-110 573,-110 573,-140"/>
<text text-anchor="start" x="453" y="-128" font-family="Helvetica,sans-Serif" font-size="10.00">webcface/encoding/val</text>
<text text-anchor="middle" x="509" y="-117" font-family="Helvetica,sans-Serif" font-size="10.00">_adaptor.h</text>
</a>
</g>
</g>
<!-- Node13&#45;&gt;Node14 -->
<g id="edge20_Node000013_Node000014" class="edge">
<title>Node13&#45;&gt;Node14</title>
<g id="a_edge20_Node000013_Node000014"><a xlink:title=" ">
<path fill="none" stroke="#63b8ff" d="M614.43,-230.97C596.79,-213.4 555.93,-172.72 530.57,-147.48"/>
<polygon fill="#63b8ff" stroke="#63b8ff" points="532.8,-144.76 523.24,-140.18 527.86,-149.72 532.8,-144.76"/>
</a>
</g>
</g>
<!-- Node19 -->
<g id="Node000019" class="node">
<title>Node19</title>
<g id="a_Node000019"><a xlink:href="func__result_8h.html" target="_top" xlink:title=" ">
<polygon fill="white" stroke="#666666" points="438,-195 358,-195 358,-176 438,-176 438,-195"/>
<text text-anchor="middle" x="398" y="-183" font-family="Helvetica,sans-Serif" font-size="10.00">func_result.h</text>
</a>
</g>
</g>
<!-- Node13&#45;&gt;Node19 -->
<g id="edge29_Node000013_Node000019" class="edge">
<title>Node13&#45;&gt;Node19</title>
<g id="a_edge29_Node000013_Node000019"><a xlink:title=" ">
<path fill="none" stroke="#63b8ff" d="M599.35,-233.93C562.66,-225.29 491.37,-208.49 444.22,-197.39"/>
<polygon fill="#63b8ff" stroke="#63b8ff" points="444.79,-193.93 434.25,-195.04 443.19,-200.74 444.79,-193.93"/>
</a>
</g>
</g>
<!-- Node25 -->
<g id="Node000025" class="node">
<title>Node25</title>
<g id="a_Node000025"><a xlink:href="arg_8h.html" target="_top" xlink:title=" ">
<polygon fill="white" stroke="#666666" points="799.5,-195 758.5,-195 758.5,-176 799.5,-176 799.5,-195"/>
<text text-anchor="middle" x="779" y="-183" font-family="Helvetica,sans-Serif" font-size="10.00">arg.h</text>
</a>
</g>
</g>
<!-- Node13&#45;&gt;Node25 -->
<g id="edge42_Node000013_Node000025" class="edge">
<title>Node13&#45;&gt;Node25</title>
<g id="a_edge42_Node000013_Node000025"><a xlink:title=" ">
<path fill="none" stroke="#63b8ff" d="M646.69,-231.45C673.96,-222.19 718.79,-206.96 748.6,-196.83"/>
<polygon fill="#63b8ff" stroke="#63b8ff" points="749.75,-200.14 758.09,-193.6 747.49,-193.51 749.75,-200.14"/>
</a>
</g>
</g>
<!-- Node14&#45;&gt;Node2 -->
<g id="edge21_Node000014_Node000002" class="edge">
<title>Node14&#45;&gt;Node2</title>
<g id="a_edge21_Node000014_Node000002"><a xlink:title=" ">
<path fill="none" stroke="#63b8ff" d="M444.76,-117.89C383.16,-110.77 295.94,-96.94 271,-74 258.7,-62.69 254.24,-43.78 252.69,-29.54"/>
<polygon fill="#63b8ff" stroke="#63b8ff" points="256.16,-29.07 251.97,-19.34 249.18,-29.56 256.16,-29.07"/>
</a>
</g>
</g>
<!-- Node14&#45;&gt;Node3 -->
<g id="edge22_Node000014_Node000003" class="edge">
<title>Node14&#45;&gt;Node3</title>
<g id="a_edge22_Node000014_Node000003"><a xlink:title=" ">
<path fill="none" stroke="#63b8ff" d="M573.04,-116.77C684.01,-104.24 908.32,-78.9 993.32,-69.3"/>
<polygon fill="#63b8ff" stroke="#63b8ff" points="993.9,-72.76 1003.44,-68.16 993.11,-65.8 993.9,-72.76"/>
</a>
</g>
</g>
<!-- Node14&#45;&gt;Node8 -->
<g id="edge28_Node000014_Node000008" class="edge">
<title>Node14&#45;&gt;Node8</title>
<g id="a_edge28_Node000014_Node000008"><a xlink:title=" ">
<path fill="none" stroke="#63b8ff" d="M573.15,-119.93C640.21,-114.36 747.89,-101.69 837,-74 876.81,-61.63 919.7,-38.84 945.17,-24.19"/>
<polygon fill="#63b8ff" stroke="#63b8ff" points="947.17,-27.08 954.04,-19.02 943.64,-21.04 947.17,-27.08"/>
</a>
</g>
</g>
<!-- Node14&#45;&gt;Node9 -->
<g id="edge27_Node000014_Node000009" class="edge">
<title>Node14&#45;&gt;Node9</title>
<g id="a_edge27_Node000014_Node000009"><a xlink:title=" ">
<path fill="none" stroke="#63b8ff" d="M557.62,-109.99C592.81,-99.85 639.76,-86.32 672.6,-76.85"/>
<polygon fill="#63b8ff" stroke="#63b8ff" points="673.68,-80.19 682.32,-74.05 671.74,-73.46 673.68,-80.19"/>
</a>
</g>
</g>
<!-- Node15 -->
<g id="Node000015" class="node">
<title>Node15</title>
<g id="a_Node000015"><a xlink:title=" ">
<polygon fill="#e0e0e0" stroke="#999999" points="321.5,-74 280.5,-74 280.5,-55 321.5,-55 321.5,-74"/>
<text text-anchor="middle" x="301" y="-62" font-family="Helvetica,sans-Serif" font-size="10.00">tuple</text>
</a>
</g>
</g>
<!-- Node14&#45;&gt;Node15 -->
<g id="edge23_Node000014_Node000015" class="edge">
<title>Node14&#45;&gt;Node15</title>
<g id="a_edge23_Node000014_Node000015"><a xlink:title=" ">
<path fill="none" stroke="#63b8ff" d="M458.74,-109.91C425.31,-100.54 380.17,-87.86 331.44,-74.12"/>
<polygon fill="#63b8ff" stroke="#63b8ff" points="332.23,-70.71 321.66,-71.36 330.33,-77.44 332.23,-70.71"/>
</a>
</g>
</g>
<!-- Node16 -->
<g id="Node000016" class="node">
<title>Node16</title>
<g id="a_Node000016"><a xlink:title=" ">
<polygon fill="#e0e0e0" stroke="#999999" points="390,-74 340,-74 340,-55 390,-55 390,-74"/>
<text text-anchor="middle" x="365" y="-62" font-family="Helvetica,sans-Serif" font-size="10.00">cstdint</text>
</a>
</g>
</g>
<!-- Node14&#45;&gt;Node16 -->
<g id="edge24_Node000014_Node000016" class="edge">
<title>Node14&#45;&gt;Node16</title>
<g id="a_edge24_Node000014_Node000016"><a xlink:title=" ">
<path fill="none" stroke="#63b8ff" d="M474.51,-109.99C450.48,-100.23 418.73,-87.33 395.6,-77.93"/>
<polygon fill="#63b8ff" stroke="#63b8ff" points="396.85,-74.66 386.27,-74.14 394.21,-81.15 396.85,-74.66"/>
</a>
</g>
</g>
<!-- Node17 -->
<g id="Node000017" class="node">
<title>Node17</title>
<g id="a_Node000017"><a xlink:title=" ">
<polygon fill="#e0e0e0" stroke="#999999" points="465.5,-74 408.5,-74 408.5,-55 465.5,-55 465.5,-74"/>
<text text-anchor="middle" x="437" y="-62" font-family="Helvetica,sans-Serif" font-size="10.00">ostream</text>
</a>
</g>
</g>
<!-- Node14&#45;&gt;Node17 -->
<g id="edge25_Node000014_Node000017" class="edge">
<title>Node14&#45;&gt;Node17</title>
<g id="a_edge25_Node000014_Node000017"><a xlink:title=" ">
<path fill="none" stroke="#63b8ff" d="M491.57,-109.84C480.69,-101 466.7,-89.63 455.61,-80.62"/>
<polygon fill="#63b8ff" stroke="#63b8ff" points="457.76,-77.86 447.79,-74.27 453.34,-83.29 457.76,-77.86"/>
</a>
</g>
</g>
<!-- Node18 -->
<g id="Node000018" class="node">
<title>Node18</title>
<g id="a_Node000018"><a xlink:title=" ">
<polygon fill="#e0e0e0" stroke="#999999" points="534.5,-74 483.5,-74 483.5,-55 534.5,-55 534.5,-74"/>
<text text-anchor="middle" x="509" y="-62" font-family="Helvetica,sans-Serif" font-size="10.00">variant</text>
</a>
</g>
</g>
<!-- Node14&#45;&gt;Node18 -->
<g id="edge26_Node000014_Node000018" class="edge">
<title>Node14&#45;&gt;Node18</title>
<g id="a_edge26_Node000014_Node000018"><a xlink:title=" ">
<path fill="none" stroke="#63b8ff" d="M509,-109.84C509,-102.21 509,-92.7 509,-84.45"/>
<polygon fill="#63b8ff" stroke="#63b8ff" points="512.5,-84.27 509,-74.27 505.5,-84.27 512.5,-84.27"/>
</a>
</g>
</g>
<!-- Node19&#45;&gt;Node2 -->
<g id="edge32_Node000019_Node000002" class="edge">
<title>Node19&#45;&gt;Node2</title>
<g id="a_edge32_Node000019_Node000002"><a xlink:title=" ">
<path fill="none" stroke="#63b8ff" d="M357.73,-182.18C271.78,-176.83 76.6,-162.32 57,-140 32.08,-111.61 33.45,-84.54 57,-55 77.01,-29.91 169.79,-17.85 219.82,-13.09"/>
<polygon fill="#63b8ff" stroke="#63b8ff" points="220.17,-16.57 229.81,-12.18 219.53,-9.6 220.17,-16.57"/>
</a>
</g>
</g>
<!-- Node19&#45;&gt;Node4 -->
<g id="edge31_Node000019_Node000004" class="edge">
<title>Node19&#45;&gt;Node4</title>
<g id="a_edge31_Node000019_Node000004"><a xlink:title=" ">
<path fill="none" stroke="#63b8ff" d="M438.25,-180.58C508,-173.61 655.79,-158.09 780,-140 793.65,-138.01 808.55,-135.5 821.76,-133.15"/>
<polygon fill="#63b8ff" stroke="#63b8ff" points="822.71,-136.54 831.93,-131.32 821.46,-129.65 822.71,-136.54"/>
</a>
</g>
</g>
<!-- Node19&#45;&gt;Node5 -->
<g id="edge36_Node000019_Node000005" class="edge">
<title>Node19&#45;&gt;Node5</title>
<g id="a_edge36_Node000019_Node000005"><a xlink:title=" ">
<path fill="none" stroke="#63b8ff" d="M438.02,-177.09C500.85,-165.46 621.49,-143.13 680.22,-132.25"/>
<polygon fill="#63b8ff" stroke="#63b8ff" points="680.91,-135.69 690.1,-130.42 679.63,-128.8 680.91,-135.69"/>
</a>
</g>
</g>
<!-- Node19&#45;&gt;Node6 -->
<g id="edge34_Node000019_Node000006" class="edge">
<title>Node19&#45;&gt;Node6</title>
<g id="a_edge34_Node000019_Node000006"><a xlink:title=" ">
<path fill="none" stroke="#63b8ff" d="M392.36,-175.79C382.39,-160.89 360.37,-130.17 336,-110 306.84,-85.87 246.98,-84.24 271,-55 294.02,-26.98 398.21,-16.3 456.39,-12.48"/>
<polygon fill="#63b8ff" stroke="#63b8ff" points="456.92,-15.95 466.69,-11.84 456.49,-8.96 456.92,-15.95"/>
</a>
</g>
</g>
<!-- Node19&#45;&gt;Node8 -->
<g id="edge30_Node000019_Node000008" class="edge">
<title>Node19&#45;&gt;Node8</title>
<g id="a_edge30_Node000019_Node000008"><a xlink:title=" ">
<path fill="none" stroke="#63b8ff" d="M438.2,-184.99C504.41,-184.58 639.63,-178.54 746,-140 769.3,-131.56 770.23,-119.78 793,-110 854.01,-83.79 886.64,-116.08 938,-74 951.83,-62.67 959.66,-43.49 963.82,-29.16"/>
<polygon fill="#63b8ff" stroke="#63b8ff" points="967.24,-29.93 966.33,-19.37 960.46,-28.19 967.24,-29.93"/>
</a>
</g>
</g>
<!-- Node19&#45;&gt;Node14 -->
<g id="edge37_Node000019_Node000014" class="edge">
<title>Node19&#45;&gt;Node14</title>
<g id="a_edge37_Node000019_Node000014"><a xlink:title=" ">
<path fill="none" stroke="#63b8ff" d="M414.38,-175.87C429.79,-167.75 453.39,-155.31 473.16,-144.89"/>
<polygon fill="#63b8ff" stroke="#63b8ff" points="475,-147.87 482.22,-140.11 471.74,-141.68 475,-147.87"/>
</a>
</g>
</g>
<!-- Node20 -->
<g id="Node000020" class="node">
<title>Node20</title>
<g id="a_Node000020"><a xlink:title=" ">
<polygon fill="#e0e0e0" stroke="#999999" points="327,-134.5 281,-134.5 281,-115.5 327,-115.5 327,-134.5"/>
<text text-anchor="middle" x="304" y="-122.5" font-family="Helvetica,sans-Serif" font-size="10.00">future</text>
</a>
</g>
</g>
<!-- Node19&#45;&gt;Node20 -->
<g id="edge33_Node000019_Node000020" class="edge">
<title>Node19&#45;&gt;Node20</title>
<g id="a_edge33_Node000019_Node000020"><a xlink:title=" ">
<path fill="none" stroke="#63b8ff" d="M384.13,-175.87C369,-166.45 344.54,-151.23 326.62,-140.08"/>
<polygon fill="#63b8ff" stroke="#63b8ff" points="328.27,-136.98 317.93,-134.67 324.57,-142.92 328.27,-136.98"/>
</a>
</g>
</g>
<!-- Node21 -->
<g id="Node000021" class="node">
<title>Node21</title>
<g id="a_Node000021"><a xlink:title=" ">
<polygon fill="#e0e0e0" stroke="#999999" points="131.5,-134.5 66.5,-134.5 66.5,-115.5 131.5,-115.5 131.5,-134.5"/>
<text text-anchor="middle" x="99" y="-122.5" font-family="Helvetica,sans-Serif" font-size="10.00">stdexcept</text>
</a>
</g>
</g>
<!-- Node19&#45;&gt;Node21 -->
<g id="edge35_Node000019_Node000021" class="edge">
<title>Node19&#45;&gt;Node21</title>
<g id="a_edge35_Node000019_Node000021"><a xlink:title=" ">
<path fill="none" stroke="#63b8ff" d="M357.81,-179.57C306.7,-172.86 215.97,-159.39 140,-140 137.36,-139.33 134.64,-138.56 131.93,-137.75"/>
<polygon fill="#63b8ff" stroke="#63b8ff" points="132.81,-134.36 122.22,-134.64 130.68,-141.02 132.81,-134.36"/>
</a>
</g>
</g>
<!-- Node22 -->
<g id="Node000022" class="node">
<title>Node22</title>
<g id="a_Node000022"><a xlink:href="def__types_8h.html" target="_top" xlink:title=" ">
<polygon fill="white" stroke="#666666" points="262.5,-140 149.5,-140 149.5,-110 262.5,-110 262.5,-140"/>
<text text-anchor="start" x="157.5" y="-128" font-family="Helvetica,sans-Serif" font-size="10.00">webcface/c_wcf/def</text>
<text text-anchor="middle" x="206" y="-117" font-family="Helvetica,sans-Serif" font-size="10.00">_types.h</text>
</a>
</g>
</g>
<!-- Node19&#45;&gt;Node22 -->
<g id="edge38_Node000019_Node000022" class="edge">
<title>Node19&#45;&gt;Node22</title>
<g id="a_edge38_Node000019_Node000022"><a xlink:title=" ">
<path fill="none" stroke="#63b8ff" d="M370.08,-175.99C341.85,-167.39 297.42,-153.86 261.92,-143.04"/>
<polygon fill="#63b8ff" stroke="#63b8ff" points="262.75,-139.63 252.16,-140.06 260.71,-146.33 262.75,-139.63"/>
</a>
</g>
</g>
<!-- Node22&#45;&gt;Node8 -->
<g id="edge39_Node000022_Node000008" class="edge">
<title>Node22&#45;&gt;Node8</title>
<g id="a_edge39_Node000022_Node000008"><a xlink:title=" ">
<path fill="none" stroke="#63b8ff" d="M262.79,-111.42C265.9,-110.9 268.98,-110.42 272,-110 506.72,-77.33 577.25,-142.9 804,-74 820.19,-69.08 821.58,-61.98 837,-55 866.59,-41.61 901.47,-29.95 927.8,-21.93"/>
<polygon fill="#63b8ff" stroke="#63b8ff" points="928.87,-25.26 937.44,-19.03 926.86,-18.56 928.87,-25.26"/>
</a>
</g>
</g>
<!-- Node23 -->
<g id="Node000023" class="node">
<title>Node23</title>
<g id="a_Node000023"><a xlink:title=" ">
<polygon fill="#e0e0e0" stroke="#999999" points="120,-74 66,-74 66,-55 120,-55 120,-74"/>
<text text-anchor="middle" x="93" y="-62" font-family="Helvetica,sans-Serif" font-size="10.00">wchar.h</text>
</a>
</g>
</g>
<!-- Node22&#45;&gt;Node23 -->
<g id="edge40_Node000022_Node000023" class="edge">
<title>Node22&#45;&gt;Node23</title>
<g id="a_edge40_Node000022_Node000023"><a xlink:title=" ">
<path fill="none" stroke="#63b8ff" d="M178.93,-109.99C160.75,-100.58 136.93,-88.24 118.98,-78.95"/>
<polygon fill="#63b8ff" stroke="#63b8ff" points="120.18,-75.63 109.69,-74.14 116.96,-81.84 120.18,-75.63"/>
</a>
</g>
</g>
<!-- Node24 -->
<g id="Node000024" class="node">
<title>Node24</title>
<g id="a_Node000024"><a xlink:title=" ">
<polygon fill="#e0e0e0" stroke="#999999" points="185.5,-74 138.5,-74 138.5,-55 185.5,-55 185.5,-74"/>
<text text-anchor="middle" x="162" y="-62" font-family="Helvetica,sans-Serif" font-size="10.00">float.h</text>
</a>
</g>
</g>
<!-- Node22&#45;&gt;Node24 -->
<g id="edge41_Node000022_Node000024" class="edge">
<title>Node22&#45;&gt;Node24</title>
<g id="a_edge41_Node000022_Node000024"><a xlink:title=" ">
<path fill="none" stroke="#63b8ff" d="M195.35,-109.84C189.16,-101.61 181.31,-91.18 174.79,-82.51"/>
<polygon fill="#63b8ff" stroke="#63b8ff" points="177.4,-80.15 168.59,-74.27 171.81,-84.36 177.4,-80.15"/>
</a>
</g>
</g>
<!-- Node25&#45;&gt;Node3 -->
<g id="edge43_Node000025_Node000003" class="edge">
<title>Node25&#45;&gt;Node3</title>
<g id="a_edge43_Node000025_Node000003"><a xlink:title=" ">
<path fill="none" stroke="#63b8ff" d="M781.57,-175.78C786.7,-160 799.74,-126.8 823,-110 884.2,-65.8 915.27,-90.24 989,-74 990.44,-73.68 991.92,-73.36 993.41,-73.03"/>
<polygon fill="#63b8ff" stroke="#63b8ff" points="994.29,-76.42 1003.29,-70.83 992.77,-69.58 994.29,-76.42"/>
</a>
</g>
</g>
<!-- Node25&#45;&gt;Node4 -->
<g id="edge44_Node000025_Node000004" class="edge">
<title>Node25&#45;&gt;Node4</title>
<g id="a_edge44_Node000025_Node000004"><a xlink:title=" ">
<path fill="none" stroke="#63b8ff" d="M790.95,-175.87C803.75,-166.62 824.3,-151.78 839.65,-140.69"/>
<polygon fill="#63b8ff" stroke="#63b8ff" points="841.94,-143.36 848,-134.67 837.84,-137.68 841.94,-143.36"/>
</a>
</g>
</g>
<!-- Node25&#45;&gt;Node14 -->
<g id="edge45_Node000025_Node000014" class="edge">
<title>Node25&#45;&gt;Node14</title>
<g id="a_edge45_Node000025_Node000014"><a xlink:title=" ">
<path fill="none" stroke="#63b8ff" d="M758.26,-180.01C721.32,-172 642.43,-154.91 583.24,-142.09"/>
<polygon fill="#63b8ff" stroke="#63b8ff" points="583.69,-138.6 573.18,-139.91 582.21,-145.44 583.69,-138.6"/>
</a>
</g>
</g>
<!-- Node26&#45;&gt;Node3 -->
<g id="edge49_Node000026_Node000003" class="edge">
<title>Node26&#45;&gt;Node3</title>
<g id="a_edge49_Node000026_Node000003"><a xlink:title=" ">
<path fill="none" stroke="#63b8ff" d="M916.1,-175.64C916.71,-160.5 919.99,-129.43 936,-110 950.66,-92.2 974.19,-80.96 993.64,-74.23"/>
<polygon fill="#63b8ff" stroke="#63b8ff" points="994.92,-77.49 1003.37,-71.11 992.78,-70.83 994.92,-77.49"/>
</a>
</g>
</g>
<!-- Node26&#45;&gt;Node4 -->
<g id="edge48_Node000026_Node000004" class="edge">
<title>Node26&#45;&gt;Node4</title>
<g id="a_edge48_Node000026_Node000004"><a xlink:title=" ">
<path fill="none" stroke="#63b8ff" d="M907.74,-175.87C899.22,-166.97 885.74,-152.89 875.27,-141.95"/>
<polygon fill="#63b8ff" stroke="#63b8ff" points="877.74,-139.47 868.3,-134.67 872.68,-144.31 877.74,-139.47"/>
</a>
</g>
</g>
<!-- Node26&#45;&gt;Node5 -->
<g id="edge50_Node000026_Node000005" class="edge">
<title>Node26&#45;&gt;Node5</title>
<g id="a_edge50_Node000026_Node000005"><a xlink:title=" ">
<path fill="none" stroke="#63b8ff" d="M886.63,-175.99C849.66,-165.29 786.33,-146.95 747.51,-135.7"/>
<polygon fill="#63b8ff" stroke="#63b8ff" points="748.31,-132.29 737.73,-132.87 746.36,-139.02 748.31,-132.29"/>
</a>
</g>
</g>
<!-- Node26&#45;&gt;Node8 -->
<g id="edge51_Node000026_Node000008" class="edge">
<title>Node26&#45;&gt;Node8</title>
<g id="a_edge51_Node000026_Node000008"><a xlink:title=" ">
<path fill="none" stroke="#63b8ff" d="M948.97,-175.89C970.71,-168.94 998.79,-157.42 1019,-140 1045.16,-117.45 1050.53,-107.21 1060,-74 1062.32,-65.88 1064.49,-62.15 1060,-55 1050.31,-39.54 1033.56,-29.33 1016.99,-22.63"/>
<polygon fill="#63b8ff" stroke="#63b8ff" points="1017.9,-19.24 1007.31,-19.08 1015.49,-25.81 1017.9,-19.24"/>
</a>
</g>
</g>
<!-- Node27 -->
<g id="Node000027" class="node">
<title>Node27</title>
<g id="a_Node000027"><a xlink:title=" ">
<polygon fill="#e0e0e0" stroke="#999999" points="1009.5,-134.5 944.5,-134.5 944.5,-115.5 1009.5,-115.5 1009.5,-134.5"/>
<text text-anchor="middle" x="977" y="-122.5" font-family="Helvetica,sans-Serif" font-size="10.00">functional</text>
</a>
</g>
</g>
<!-- Node26&#45;&gt;Node27 -->
<g id="edge47_Node000026_Node000027" class="edge">
<title>Node26&#45;&gt;Node27</title>
<g id="a_edge47_Node000026_Node000027"><a xlink:title=" ">
<path fill="none" stroke="#63b8ff" d="M925,-175.87C934.37,-166.88 949.25,-152.61 960.7,-141.64"/>
<polygon fill="#63b8ff" stroke="#63b8ff" points="963.17,-144.12 967.96,-134.67 958.32,-139.06 963.17,-144.12"/>
</a>
</g>
</g>
</g>
</svg>
