<?xml version="1.0" encoding="UTF-8" standalone="no"?>
<!DOCTYPE svg PUBLIC "-//W3C//DTD SVG 1.1//EN"
 "http://www.w3.org/Graphics/SVG/1.1/DTD/svg11.dtd">
<!-- Generated by graphviz version 2.43.0 (0)
 -->
<!-- Title: client/include/webcface/member.h Pages: 1 -->
<svg width="834pt" height="203pt"
 viewBox="0.00 0.00 833.50 203.00" xmlns="http://www.w3.org/2000/svg" xmlns:xlink="http://www.w3.org/1999/xlink">
<g id="graph0" class="graph" transform="scale(1 1) rotate(0) translate(4 199)">
<title>client/include/webcface/member.h</title>
<!-- Node1 -->
<g id="Node000001" class="node">
<title>Node1</title>
<g id="a_Node000001"><a xlink:title=" ">
<polygon fill="#999999" stroke="#666666" points="485,-195 354,-195 354,-165 485,-165 485,-195"/>
<text text-anchor="start" x="362" y="-183" font-family="Helvetica,sans-Serif" font-size="10.00">client/include/webcface</text>
<text text-anchor="middle" x="419.5" y="-172" font-family="Helvetica,sans-Serif" font-size="10.00">/member.h</text>
</a>
</g>
</g>
<!-- Node2 -->
<g id="Node000002" class="node">
<title>Node2</title>
<g id="a_Node000002"><a xlink:title=" ">
<polygon fill="#e0e0e0" stroke="#999999" points="65,-129 0,-129 0,-110 65,-110 65,-129"/>
<text text-anchor="middle" x="32.5" y="-117" font-family="Helvetica,sans-Serif" font-size="10.00">functional</text>
</a>
</g>
</g>
<!-- Node1&#45;&gt;Node2 -->
<g id="edge1_Node000001_Node000002" class="edge">
<title>Node1&#45;&gt;Node2</title>
<g id="a_edge1_Node000001_Node000002"><a xlink:title=" ">
<path fill="none" stroke="#63b8ff" d="M353.9,-170.01C285.36,-160.45 174.73,-144.61 79.5,-129 78.04,-128.76 76.56,-128.51 75.06,-128.26"/>
<polygon fill="#63b8ff" stroke="#63b8ff" points="75.54,-124.79 65.09,-126.54 74.35,-131.69 75.54,-124.79"/>
</a>
</g>
</g>
<!-- Node3 -->
<g id="Node000003" class="node">
<title>Node3</title>
<g id="a_Node000003"><a xlink:title=" ">
<polygon fill="#e0e0e0" stroke="#999999" points="218.5,-19 174.5,-19 174.5,0 218.5,0 218.5,-19"/>
<text text-anchor="middle" x="196.5" y="-7" font-family="Helvetica,sans-Serif" font-size="10.00">string</text>
</a>
</g>
</g>
<!-- Node1&#45;&gt;Node3 -->
<g id="edge2_Node000001_Node000003" class="edge">
<title>Node1&#45;&gt;Node3</title>
<g id="a_edge2_Node000001_Node000003"><a xlink:title=" ">
<path fill="none" stroke="#63b8ff" d="M353.92,-177.94C280.8,-172.77 165.82,-151.84 112.5,-74 95.7,-49.47 134.14,-30.48 164.42,-19.89"/>
<polygon fill="#63b8ff" stroke="#63b8ff" points="165.89,-23.09 174.28,-16.63 163.69,-16.45 165.89,-23.09"/>
</a>
</g>
</g>
<!-- Node4 -->
<g id="Node000004" class="node">
<title>Node4</title>
<g id="a_Node000004"><a xlink:title=" ">
<polygon fill="#e0e0e0" stroke="#999999" points="169,-74 122,-74 122,-55 169,-55 169,-74"/>
<text text-anchor="middle" x="145.5" y="-62" font-family="Helvetica,sans-Serif" font-size="10.00">vector</text>
</a>
</g>
</g>
<!-- Node1&#45;&gt;Node4 -->
<g id="edge3_Node000001_Node000004" class="edge">
<title>Node1&#45;&gt;Node4</title>
<g id="a_edge3_Node000001_Node000004"><a xlink:title=" ">
<path fill="none" stroke="#63b8ff" d="M385.63,-164.97C331.69,-142.63 227.12,-99.31 175.64,-77.98"/>
<polygon fill="#63b8ff" stroke="#63b8ff" points="176.95,-74.74 166.37,-74.14 174.27,-81.21 176.95,-74.74"/>
</a>
</g>
</g>
<!-- Node5 -->
<g id="Node000005" class="node">
<title>Node5</title>
<g id="a_Node000005"><a xlink:title=" ">
<polygon fill="#e0e0e0" stroke="#999999" points="757.5,-129 701.5,-129 701.5,-110 757.5,-110 757.5,-129"/>
<text text-anchor="middle" x="729.5" y="-117" font-family="Helvetica,sans-Serif" font-size="10.00">optional</text>
</a>
</g>
</g>
<!-- Node1&#45;&gt;Node5 -->
<g id="edge4_Node000001_Node000005" class="edge">
<title>Node1&#45;&gt;Node5</title>
<g id="a_edge4_Node000001_Node000005"><a xlink:title=" ">
<path fill="none" stroke="#63b8ff" d="M485.09,-167.05C539.38,-157.09 618.51,-142.42 687.5,-129 688.77,-128.75 690.07,-128.5 691.38,-128.24"/>
<polygon fill="#63b8ff" stroke="#63b8ff" points="692.37,-131.61 701.5,-126.23 691.01,-124.75 692.37,-131.61"/>
</a>
</g>
</g>
<!-- Node6 -->
<g id="Node000006" class="node">
<title>Node6</title>
<g id="a_Node000006"><a xlink:title=" ">
<polygon fill="#e0e0e0" stroke="#999999" points="825.5,-129 775.5,-129 775.5,-110 825.5,-110 825.5,-129"/>
<text text-anchor="middle" x="800.5" y="-117" font-family="Helvetica,sans-Serif" font-size="10.00">chrono</text>
</a>
</g>
</g>
<!-- Node1&#45;&gt;Node6 -->
<g id="edge5_Node000001_Node000006" class="edge">
<title>Node1&#45;&gt;Node6</title>
<g id="a_edge5_Node000001_Node000006"><a xlink:title=" ">
<path fill="none" stroke="#63b8ff" d="M485.07,-171.57C552.9,-163.43 662.07,-149.06 765.34,-129.05"/>
<polygon fill="#63b8ff" stroke="#63b8ff" points="766.17,-132.46 775.31,-127.1 764.83,-125.59 766.17,-132.46"/>
</a>
</g>
</g>
<!-- Node7 -->
<g id="Node000007" class="node">
<title>Node7</title>
<g id="a_Node000007"><a xlink:href="field_8h.html" target="_top" xlink:title=" ">
<polygon fill="white" stroke="#666666" points="443,-129 396,-129 396,-110 443,-110 443,-129"/>
<text text-anchor="middle" x="419.5" y="-117" font-family="Helvetica,sans-Serif" font-size="10.00">field.h</text>
</a>
</g>
</g>
<!-- Node1&#45;&gt;Node7 -->
<g id="edge6_Node000001_Node000007" class="edge">
<title>Node1&#45;&gt;Node7</title>
<g id="a_edge6_Node000001_Node000007"><a xlink:title=" ">
<path fill="none" stroke="#63b8ff" d="M419.5,-164.84C419.5,-157.21 419.5,-147.7 419.5,-139.45"/>
<polygon fill="#63b8ff" stroke="#63b8ff" points="423,-139.27 419.5,-129.27 416,-139.27 423,-139.27"/>
</a>
</g>
</g>
<!-- Node10 -->
<g id="Node000010" class="node">
<title>Node10</title>
<g id="a_Node000010"><a xlink:href="webcface-config_8h.html" target="_top" xlink:title=" ">
<polygon fill="white" stroke="#666666" points="615,-19 510,-19 510,0 615,0 615,-19"/>
<text text-anchor="middle" x="562.5" y="-7" font-family="Helvetica,sans-Serif" font-size="10.00">webcface&#45;config.h</text>
</a>
</g>
</g>
<!-- Node1&#45;&gt;Node10 -->
<g id="edge22_Node000001_Node000010" class="edge">
<title>Node1&#45;&gt;Node10</title>
<g id="a_edge22_Node000001_Node000010"><a xlink:title=" ">
<path fill="none" stroke="#63b8ff" d="M485.22,-169.49C540.88,-157.58 617.36,-131.27 654.5,-74 670.03,-50.05 637.35,-32.66 606.72,-22.2"/>
<polygon fill="#63b8ff" stroke="#63b8ff" points="607.51,-18.77 596.92,-19.04 605.37,-25.44 607.51,-18.77"/>
</a>
</g>
</g>
<!-- Node7&#45;&gt;Node3 -->
<g id="edge8_Node000007_Node000003" class="edge">
<title>Node7&#45;&gt;Node3</title>
<g id="a_edge8_Node000007_Node000003"><a xlink:title=" ">
<path fill="none" stroke="#63b8ff" d="M395.94,-116.28C348.26,-111.34 242.66,-97.92 216.5,-74 204.12,-62.68 199.35,-43.77 197.54,-29.53"/>
<polygon fill="#63b8ff" stroke="#63b8ff" points="201,-28.99 196.63,-19.34 194.03,-29.61 201,-28.99"/>
</a>
</g>
</g>
<!-- Node7&#45;&gt;Node4 -->
<g id="edge10_Node000007_Node000004" class="edge">
<title>Node7&#45;&gt;Node4</title>
<g id="a_edge10_Node000007_Node000004"><a xlink:title=" ">
<path fill="none" stroke="#63b8ff" d="M395.66,-114.28C353.02,-106.67 260.88,-89.95 183.5,-74 182.05,-73.7 180.57,-73.39 179.08,-73.08"/>
<polygon fill="#63b8ff" stroke="#63b8ff" points="179.71,-69.63 169.19,-70.93 178.22,-76.47 179.71,-69.63"/>
</a>
</g>
</g>
<!-- Node8 -->
<g id="Node000008" class="node">
<title>Node8</title>
<g id="a_Node000008"><a xlink:title=" ">
<polygon fill="#e0e0e0" stroke="#999999" points="400.5,-19 342.5,-19 342.5,0 400.5,0 400.5,-19"/>
<text text-anchor="middle" x="371.5" y="-7" font-family="Helvetica,sans-Serif" font-size="10.00">memory</text>
</a>
</g>
</g>
<!-- Node7&#45;&gt;Node8 -->
<g id="edge7_Node000007_Node000008" class="edge">
<title>Node7&#45;&gt;Node8</title>
<g id="a_edge7_Node000007_Node000008"><a xlink:title=" ">
<path fill="none" stroke="#63b8ff" d="M417.47,-109.61C414.43,-97.08 408.14,-73.67 399.5,-55 395.15,-45.59 389.15,-35.77 383.82,-27.76"/>
<polygon fill="#63b8ff" stroke="#63b8ff" points="386.56,-25.57 378.01,-19.32 380.79,-29.54 386.56,-25.57"/>
</a>
</g>
</g>
<!-- Node9 -->
<g id="Node000009" class="node">
<title>Node9</title>
<g id="a_Node000009"><a xlink:title=" ">
<polygon fill="#e0e0e0" stroke="#999999" points="492,-19 419,-19 419,0 492,0 492,-19"/>
<text text-anchor="middle" x="455.5" y="-7" font-family="Helvetica,sans-Serif" font-size="10.00">string_view</text>
</a>
</g>
</g>
<!-- Node7&#45;&gt;Node9 -->
<g id="edge9_Node000007_Node000009" class="edge">
<title>Node7&#45;&gt;Node9</title>
<g id="a_edge9_Node000007_Node000009"><a xlink:title=" ">
<path fill="none" stroke="#63b8ff" d="M422.45,-109.66C428.3,-92.09 441.52,-52.45 449.35,-28.95"/>
<polygon fill="#63b8ff" stroke="#63b8ff" points="452.77,-29.75 452.61,-19.16 446.13,-27.54 452.77,-29.75"/>
</a>
</g>
</g>
<!-- Node7&#45;&gt;Node10 -->
<g id="edge11_Node000007_Node000010" class="edge">
<title>Node7&#45;&gt;Node10</title>
<g id="a_edge11_Node000007_Node000010"><a xlink:title=" ">
<path fill="none" stroke="#63b8ff" d="M431.2,-109.66C455.73,-91.14 512.75,-48.08 542.94,-25.28"/>
<polygon fill="#63b8ff" stroke="#63b8ff" points="545.17,-27.98 551.04,-19.16 540.95,-22.39 545.17,-27.98"/>
</a>
</g>
</g>
<!-- Node11 -->
<g id="Node000011" class="node">
<title>Node11</title>
<g id="a_Node000011"><a xlink:href="common_2encoding_8h.html" target="_top" xlink:title=" ">
<polygon fill="white" stroke="#666666" points="391,-74 226,-74 226,-55 391,-55 391,-74"/>
<text text-anchor="middle" x="308.5" y="-62" font-family="Helvetica,sans-Serif" font-size="10.00">webcface/common/encoding.h</text>
</a>
</g>
</g>
<!-- Node7&#45;&gt;Node11 -->
<g id="edge12_Node000007_Node000011" class="edge">
<title>Node7&#45;&gt;Node11</title>
<g id="a_edge12_Node000007_Node000011"><a xlink:title=" ">
<path fill="none" stroke="#63b8ff" d="M401.67,-109.98C383.89,-101.5 356.35,-88.35 335.82,-78.54"/>
<polygon fill="#63b8ff" stroke="#63b8ff" points="337.19,-75.32 326.66,-74.17 334.17,-81.64 337.19,-75.32"/>
</a>
</g>
</g>
<!-- Node14 -->
<g id="Node000014" class="node">
<title>Node14</title>
<g id="a_Node000014"><a xlink:href="complete_8h.html" target="_top" xlink:title=" ">
<polygon fill="white" stroke="#666666" points="645,-74 524,-74 524,-55 645,-55 645,-74"/>
<text text-anchor="middle" x="584.5" y="-62" font-family="Helvetica,sans-Serif" font-size="10.00">webcface/complete.h</text>
</a>
</g>
</g>
<!-- Node7&#45;&gt;Node14 -->
<g id="edge19_Node000007_Node000014" class="edge">
<title>Node7&#45;&gt;Node14</title>
<g id="a_edge19_Node000007_Node000014"><a xlink:title=" ">
<path fill="none" stroke="#63b8ff" d="M443.14,-110.91C470.56,-102.1 516.08,-87.48 548.04,-77.21"/>
<polygon fill="#63b8ff" stroke="#63b8ff" points="549.45,-80.44 557.9,-74.05 547.31,-73.77 549.45,-80.44"/>
</a>
</g>
</g>
<!-- Node11&#45;&gt;Node3 -->
<g id="edge15_Node000011_Node000003" class="edge">
<title>Node11&#45;&gt;Node3</title>
<g id="a_edge15_Node000011_Node000003"><a xlink:title=" ">
<path fill="none" stroke="#63b8ff" d="M290.51,-54.98C272.57,-46.5 244.78,-33.35 224.07,-23.54"/>
<polygon fill="#63b8ff" stroke="#63b8ff" points="225.36,-20.28 214.82,-19.17 222.36,-26.61 225.36,-20.28"/>
</a>
</g>
</g>
<!-- Node11&#45;&gt;Node8 -->
<g id="edge17_Node000011_Node000008" class="edge">
<title>Node11&#45;&gt;Node8</title>
<g id="a_edge17_Node000011_Node000008"><a xlink:title=" ">
<path fill="none" stroke="#63b8ff" d="M318.62,-54.98C327.94,-47.15 341.97,-35.34 353.24,-25.86"/>
<polygon fill="#63b8ff" stroke="#63b8ff" points="355.79,-28.29 361.19,-19.17 351.29,-22.93 355.79,-28.29"/>
</a>
</g>
</g>
<!-- Node11&#45;&gt;Node9 -->
<g id="edge16_Node000011_Node000009" class="edge">
<title>Node11&#45;&gt;Node9</title>
<g id="a_edge16_Node000011_Node000009"><a xlink:title=" ">
<path fill="none" stroke="#63b8ff" d="M332.12,-54.98C356.4,-46.23 394.45,-32.51 421.87,-22.62"/>
<polygon fill="#63b8ff" stroke="#63b8ff" points="423.23,-25.85 431.45,-19.17 420.86,-19.27 423.23,-25.85"/>
</a>
</g>
</g>
<!-- Node11&#45;&gt;Node10 -->
<g id="edge18_Node000011_Node000010" class="edge">
<title>Node11&#45;&gt;Node10</title>
<g id="a_edge18_Node000011_Node000010"><a xlink:title=" ">
<path fill="none" stroke="#63b8ff" d="M349.31,-54.98C393.43,-45.78 463.83,-31.09 511.55,-21.13"/>
<polygon fill="#63b8ff" stroke="#63b8ff" points="512.3,-24.55 521.37,-19.08 510.87,-17.7 512.3,-24.55"/>
</a>
</g>
</g>
<!-- Node12 -->
<g id="Node000012" class="node">
<title>Node12</title>
<g id="a_Node000012"><a xlink:title=" ">
<polygon fill="#e0e0e0" stroke="#999999" points="274.5,-19 236.5,-19 236.5,0 274.5,0 274.5,-19"/>
<text text-anchor="middle" x="255.5" y="-7" font-family="Helvetica,sans-Serif" font-size="10.00">map</text>
</a>
</g>
</g>
<!-- Node11&#45;&gt;Node12 -->
<g id="edge13_Node000011_Node000012" class="edge">
<title>Node11&#45;&gt;Node12</title>
<g id="a_edge13_Node000011_Node000012"><a xlink:title=" ">
<path fill="none" stroke="#63b8ff" d="M299.75,-54.75C292.03,-47.03 280.6,-35.6 271.28,-26.28"/>
<polygon fill="#63b8ff" stroke="#63b8ff" points="273.64,-23.69 264.09,-19.09 268.69,-28.64 273.64,-23.69"/>
</a>
</g>
</g>
<!-- Node13 -->
<g id="Node000013" class="node">
<title>Node13</title>
<g id="a_Node000013"><a xlink:title=" ">
<polygon fill="#e0e0e0" stroke="#999999" points="324.5,-19 292.5,-19 292.5,0 324.5,0 324.5,-19"/>
<text text-anchor="middle" x="308.5" y="-7" font-family="Helvetica,sans-Serif" font-size="10.00">set</text>
</a>
</g>
</g>
<!-- Node11&#45;&gt;Node13 -->
<g id="edge14_Node000011_Node000013" class="edge">
<title>Node11&#45;&gt;Node13</title>
<g id="a_edge14_Node000011_Node000013"><a xlink:title=" ">
<path fill="none" stroke="#63b8ff" d="M308.5,-54.75C308.5,-47.8 308.5,-37.85 308.5,-29.13"/>
<polygon fill="#63b8ff" stroke="#63b8ff" points="312,-29.09 308.5,-19.09 305,-29.09 312,-29.09"/>
</a>
</g>
</g>
<!-- Node14&#45;&gt;Node10 -->
<g id="edge21_Node000014_Node000010" class="edge">
<title>Node14&#45;&gt;Node10</title>
<g id="a_edge21_Node000014_Node000010"><a xlink:title=" ">
<path fill="none" stroke="#63b8ff" d="M580.87,-54.75C577.92,-47.65 573.67,-37.4 569.99,-28.56"/>
<polygon fill="#63b8ff" stroke="#63b8ff" points="573.13,-26.98 566.07,-19.09 566.67,-29.67 573.13,-26.98"/>
</a>
</g>
</g>
<!-- Node15 -->
<g id="Node000015" class="node">
<title>Node15</title>
<g id="a_Node000015"><a xlink:title=" ">
<polygon fill="#e0e0e0" stroke="#999999" points="686,-19 633,-19 633,0 686,0 686,-19"/>
<text text-anchor="middle" x="659.5" y="-7" font-family="Helvetica,sans-Serif" font-size="10.00">cstddef</text>
</a>
</g>
</g>
<!-- Node14&#45;&gt;Node15 -->
<g id="edge20_Node000014_Node000015" class="edge">
<title>Node14&#45;&gt;Node15</title>
<g id="a_edge20_Node000014_Node000015"><a xlink:title=" ">
<path fill="none" stroke="#63b8ff" d="M596.55,-54.98C607.96,-46.92 625.33,-34.65 638.93,-25.03"/>
<polygon fill="#63b8ff" stroke="#63b8ff" points="641.08,-27.8 647.23,-19.17 637.04,-22.08 641.08,-27.8"/>
</a>
</g>
</g>
</g>
</svg>
