<?xml version="1.0" encoding="UTF-8" standalone="no"?>
<!DOCTYPE svg PUBLIC "-//W3C//DTD SVG 1.1//EN"
 "http://www.w3.org/Graphics/SVG/1.1/DTD/svg11.dtd">
<!-- Generated by graphviz version 2.43.0 (0)
 -->
<!-- Title: client/include/webcface/member.h Pages: 1 -->
<svg width="1135pt" height="324pt"
 viewBox="0.00 0.00 1134.50 324.00" xmlns="http://www.w3.org/2000/svg" xmlns:xlink="http://www.w3.org/1999/xlink">
<g id="graph0" class="graph" transform="scale(1 1) rotate(0) translate(4 320)">
<title>client/include/webcface/member.h</title>
<!-- Node1 -->
<g id="Node000001" class="node">
<title>Node1</title>
<g id="a_Node000001"><a xlink:title=" ">
<polygon fill="#999999" stroke="#666666" points="797.5,-316 666.5,-316 666.5,-286 797.5,-286 797.5,-316"/>
<text text-anchor="start" x="674.5" y="-304" font-family="Helvetica,sans-Serif" font-size="10.00">client/include/webcface</text>
<text text-anchor="middle" x="732" y="-293" font-family="Helvetica,sans-Serif" font-size="10.00">/member.h</text>
</a>
</g>
</g>
<!-- Node2 -->
<g id="Node000002" class="node">
<title>Node2</title>
<g id="a_Node000002"><a xlink:title=" ">
<polygon fill="#e0e0e0" stroke="#999999" points="737,-19 693,-19 693,0 737,0 737,-19"/>
<text text-anchor="middle" x="715" y="-7" font-family="Helvetica,sans-Serif" font-size="10.00">string</text>
</a>
</g>
</g>
<!-- Node1&#45;&gt;Node2 -->
<g id="edge1_Node000001_Node000002" class="edge">
<title>Node1&#45;&gt;Node2</title>
<g id="a_edge1_Node000001_Node000002"><a xlink:title=" ">
<path fill="none" stroke="#63b8ff" d="M666.26,-298.09C534.8,-292.48 252,-270.63 252,-186.5 252,-186.5 252,-186.5 252,-124 252,-35.17 577.52,-15.51 682.67,-11.47"/>
<polygon fill="#63b8ff" stroke="#63b8ff" points="683.11,-14.96 692.98,-11.1 682.86,-7.97 683.11,-14.96"/>
</a>
</g>
</g>
<!-- Node3 -->
<g id="Node000003" class="node">
<title>Node3</title>
<g id="a_Node000003"><a xlink:title=" ">
<polygon fill="#e0e0e0" stroke="#999999" points="1126.5,-74 1079.5,-74 1079.5,-55 1126.5,-55 1126.5,-74"/>
<text text-anchor="middle" x="1103" y="-62" font-family="Helvetica,sans-Serif" font-size="10.00">vector</text>
</a>
</g>
</g>
<!-- Node1&#45;&gt;Node3 -->
<g id="edge2_Node000001_Node000003" class="edge">
<title>Node1&#45;&gt;Node3</title>
<g id="a_edge2_Node000001_Node000003"><a xlink:title=" ">
<path fill="none" stroke="#63b8ff" d="M797.58,-288.07C877.24,-270.08 1010.1,-228.28 1084,-140 1097.09,-124.37 1101.32,-100.86 1102.61,-84.45"/>
<polygon fill="#63b8ff" stroke="#63b8ff" points="1106.11,-84.56 1103.1,-74.4 1099.11,-84.22 1106.11,-84.56"/>
</a>
</g>
</g>
<!-- Node4 -->
<g id="Node000004" class="node">
<title>Node4</title>
<g id="a_Node000004"><a xlink:title=" ">
<polygon fill="#e0e0e0" stroke="#999999" points="781,-134.5 725,-134.5 725,-115.5 781,-115.5 781,-134.5"/>
<text text-anchor="middle" x="753" y="-122.5" font-family="Helvetica,sans-Serif" font-size="10.00">optional</text>
</a>
</g>
</g>
<!-- Node1&#45;&gt;Node4 -->
<g id="edge3_Node000001_Node000004" class="edge">
<title>Node1&#45;&gt;Node4</title>
<g id="a_edge3_Node000001_Node000004"><a xlink:title=" ">
<path fill="none" stroke="#63b8ff" d="M733.72,-285.76C737.49,-254.55 746.47,-180.11 750.71,-144.97"/>
<polygon fill="#63b8ff" stroke="#63b8ff" points="754.23,-145.03 751.95,-134.68 747.28,-144.19 754.23,-145.03"/>
</a>
</g>
</g>
<!-- Node5 -->
<g id="Node000005" class="node">
<title>Node5</title>
<g id="a_Node000005"><a xlink:href="field_8h.html" target="_top" xlink:title=" ">
<polygon fill="white" stroke="#666666" points="846.5,-134.5 799.5,-134.5 799.5,-115.5 846.5,-115.5 846.5,-134.5"/>
<text text-anchor="middle" x="823" y="-122.5" font-family="Helvetica,sans-Serif" font-size="10.00">field.h</text>
</a>
</g>
</g>
<!-- Node1&#45;&gt;Node5 -->
<g id="edge4_Node000001_Node000005" class="edge">
<title>Node1&#45;&gt;Node5</title>
<g id="a_edge4_Node000001_Node000005"><a xlink:title=" ">
<path fill="none" stroke="#63b8ff" d="M738.36,-285.82C751.98,-255.5 783.2,-186.26 789,-176 795.49,-164.5 803.81,-152.23 810.6,-142.72"/>
<polygon fill="#63b8ff" stroke="#63b8ff" points="813.48,-144.72 816.52,-134.57 807.81,-140.6 813.48,-144.72"/>
</a>
</g>
</g>
<!-- Node8 -->
<g id="Node000008" class="node">
<title>Node8</title>
<g id="a_Node000008"><a xlink:href="webcface-config_8h.html" target="_top" xlink:title=" ">
<polygon fill="white" stroke="#666666" points="342.5,-19 237.5,-19 237.5,0 342.5,0 342.5,-19"/>
<text text-anchor="middle" x="290" y="-7" font-family="Helvetica,sans-Serif" font-size="10.00">webcface&#45;config.h</text>
</a>
</g>
</g>
<!-- Node1&#45;&gt;Node8 -->
<g id="edge17_Node000001_Node000008" class="edge">
<title>Node1&#45;&gt;Node8</title>
<g id="a_edge17_Node000001_Node000008"><a xlink:title=" ">
<path fill="none" stroke="#63b8ff" d="M666.4,-296.69C486.73,-286.74 0,-253.61 0,-186.5 0,-186.5 0,-186.5 0,-124 0,-78.38 35.35,-75.71 76,-55 123.37,-30.87 182.98,-19.83 227.25,-14.77"/>
<polygon fill="#63b8ff" stroke="#63b8ff" points="227.73,-18.24 237.3,-13.69 226.98,-11.28 227.73,-18.24"/>
</a>
</g>
</g>
<!-- Node12 -->
<g id="Node000012" class="node">
<title>Node12</title>
<g id="a_Node000012"><a xlink:href="func_8h.html" target="_top" xlink:title=" ">
<polygon fill="white" stroke="#666666" points="656.5,-250 609.5,-250 609.5,-231 656.5,-231 656.5,-250"/>
<text text-anchor="middle" x="633" y="-238" font-family="Helvetica,sans-Serif" font-size="10.00">func.h</text>
</a>
</g>
</g>
<!-- Node1&#45;&gt;Node12 -->
<g id="edge18_Node000001_Node000012" class="edge">
<title>Node1&#45;&gt;Node12</title>
<g id="a_edge18_Node000001_Node000012"><a xlink:title=" ">
<path fill="none" stroke="#63b8ff" d="M708.29,-285.99C692.65,-276.75 672.26,-264.7 656.64,-255.47"/>
<polygon fill="#63b8ff" stroke="#63b8ff" points="658.01,-252.21 647.62,-250.14 654.45,-258.24 658.01,-252.21"/>
</a>
</g>
</g>
<!-- Node25 -->
<g id="Node000025" class="node">
<title>Node25</title>
<g id="a_Node000025"><a xlink:href="log_8h.html" target="_top" xlink:title=" ">
<polygon fill="white" stroke="#666666" points="888,-195 798,-195 798,-176 888,-176 888,-195"/>
<text text-anchor="middle" x="843" y="-183" font-family="Helvetica,sans-Serif" font-size="10.00">webcface/log.h</text>
</a>
</g>
</g>
<!-- Node1&#45;&gt;Node25 -->
<g id="edge45_Node000001_Node000025" class="edge">
<title>Node1&#45;&gt;Node25</title>
<g id="a_edge45_Node000001_Node000025"><a xlink:title=" ">
<path fill="none" stroke="#63b8ff" d="M747.24,-285.78C757.72,-275.89 771.88,-262.33 784,-250 799.4,-234.33 816.43,-215.88 828.22,-202.91"/>
<polygon fill="#63b8ff" stroke="#63b8ff" points="831.02,-205.03 835.14,-195.27 825.83,-200.34 831.02,-205.03"/>
</a>
</g>
</g>
<!-- Node5&#45;&gt;Node2 -->
<g id="edge6_Node000005_Node000002" class="edge">
<title>Node5&#45;&gt;Node2</title>
<g id="a_edge6_Node000005_Node000002"><a xlink:title=" ">
<path fill="none" stroke="#63b8ff" d="M813.8,-115.32C803.45,-105.48 786.23,-88.87 772,-74 757.04,-58.37 740.61,-39.91 729.24,-26.94"/>
<polygon fill="#63b8ff" stroke="#63b8ff" points="731.78,-24.53 722.57,-19.29 726.51,-29.12 731.78,-24.53"/>
</a>
</g>
</g>
<!-- Node5&#45;&gt;Node3 -->
<g id="edge8_Node000005_Node000003" class="edge">
<title>Node5&#45;&gt;Node3</title>
<g id="a_edge8_Node000005_Node000003"><a xlink:title=" ">
<path fill="none" stroke="#63b8ff" d="M844.09,-115.47C849.54,-113.48 855.43,-111.5 861,-110 949.88,-85.99 974.72,-92.05 1065,-74 1066.45,-73.71 1067.93,-73.41 1069.42,-73.1"/>
<polygon fill="#63b8ff" stroke="#63b8ff" points="1070.28,-76.49 1079.32,-70.97 1068.81,-69.65 1070.28,-76.49"/>
</a>
</g>
</g>
<!-- Node6 -->
<g id="Node000006" class="node">
<title>Node6</title>
<g id="a_Node000006"><a xlink:title=" ">
<polygon fill="#e0e0e0" stroke="#999999" points="996,-19 938,-19 938,0 996,0 996,-19"/>
<text text-anchor="middle" x="967" y="-7" font-family="Helvetica,sans-Serif" font-size="10.00">memory</text>
</a>
</g>
</g>
<!-- Node5&#45;&gt;Node6 -->
<g id="edge5_Node000005_Node000006" class="edge">
<title>Node5&#45;&gt;Node6</title>
<g id="a_edge5_Node000005_Node000006"><a xlink:title=" ">
<path fill="none" stroke="#63b8ff" d="M845.4,-115.41C850.5,-113.55 855.92,-111.65 861,-110 917.21,-91.77 953.32,-121.11 989,-74 999.52,-60.12 990.29,-40.83 980.76,-27.16"/>
<polygon fill="#63b8ff" stroke="#63b8ff" points="983.49,-24.97 974.67,-19.11 977.91,-29.19 983.49,-24.97"/>
</a>
</g>
</g>
<!-- Node7 -->
<g id="Node000007" class="node">
<title>Node7</title>
<g id="a_Node000007"><a xlink:title=" ">
<polygon fill="#e0e0e0" stroke="#999999" points="1087.5,-19 1014.5,-19 1014.5,0 1087.5,0 1087.5,-19"/>
<text text-anchor="middle" x="1051" y="-7" font-family="Helvetica,sans-Serif" font-size="10.00">string_view</text>
</a>
</g>
</g>
<!-- Node5&#45;&gt;Node7 -->
<g id="edge7_Node000005_Node000007" class="edge">
<title>Node5&#45;&gt;Node7</title>
<g id="a_edge7_Node000005_Node000007"><a xlink:title=" ">
<path fill="none" stroke="#63b8ff" d="M844.97,-115.45C850.18,-113.55 855.76,-111.62 861,-110 924.04,-90.57 950.35,-110.95 1005,-74 1021.86,-62.6 1034.72,-42.86 1042.49,-28.41"/>
<polygon fill="#63b8ff" stroke="#63b8ff" points="1045.65,-29.92 1047.06,-19.41 1039.41,-26.75 1045.65,-29.92"/>
</a>
</g>
</g>
<!-- Node5&#45;&gt;Node8 -->
<g id="edge9_Node000005_Node000008" class="edge">
<title>Node5&#45;&gt;Node8</title>
<g id="a_edge9_Node000005_Node000008"><a xlink:title=" ">
<path fill="none" stroke="#63b8ff" d="M806.57,-115.37C777.35,-100.44 714.06,-69.96 657,-55 552.49,-27.6 426.74,-16.99 352.87,-12.94"/>
<polygon fill="#63b8ff" stroke="#63b8ff" points="352.97,-9.44 342.8,-12.41 352.6,-16.43 352.97,-9.44"/>
</a>
</g>
</g>
<!-- Node9 -->
<g id="Node000009" class="node">
<title>Node9</title>
<g id="a_Node000009"><a xlink:href="encoding_8h.html" target="_top" xlink:title=" ">
<polygon fill="white" stroke="#666666" points="947.5,-74 780.5,-74 780.5,-55 947.5,-55 947.5,-74"/>
<text text-anchor="middle" x="864" y="-62" font-family="Helvetica,sans-Serif" font-size="10.00">webcface/encoding/encoding.h</text>
</a>
</g>
</g>
<!-- Node5&#45;&gt;Node9 -->
<g id="edge10_Node000005_Node000009" class="edge">
<title>Node5&#45;&gt;Node9</title>
<g id="a_edge10_Node000005_Node000009"><a xlink:title=" ">
<path fill="none" stroke="#63b8ff" d="M829.05,-115.37C835.11,-106.73 844.59,-93.2 852.14,-82.42"/>
<polygon fill="#63b8ff" stroke="#63b8ff" points="855.05,-84.37 857.93,-74.17 849.32,-80.35 855.05,-84.37"/>
</a>
</g>
</g>
<!-- Node9&#45;&gt;Node2 -->
<g id="edge13_Node000009_Node000002" class="edge">
<title>Node9&#45;&gt;Node2</title>
<g id="a_edge13_Node000009_Node000002"><a xlink:title=" ">
<path fill="none" stroke="#63b8ff" d="M840.06,-54.98C814.86,-46.02 775.04,-31.86 747.12,-21.92"/>
<polygon fill="#63b8ff" stroke="#63b8ff" points="748.01,-18.53 737.42,-18.47 745.67,-25.12 748.01,-18.53"/>
</a>
</g>
</g>
<!-- Node9&#45;&gt;Node6 -->
<g id="edge15_Node000009_Node000006" class="edge">
<title>Node9&#45;&gt;Node6</title>
<g id="a_edge15_Node000009_Node000006"><a xlink:title=" ">
<path fill="none" stroke="#63b8ff" d="M880.55,-54.98C896.89,-46.57 922.13,-33.59 941.13,-23.81"/>
<polygon fill="#63b8ff" stroke="#63b8ff" points="942.86,-26.86 950.15,-19.17 939.66,-20.63 942.86,-26.86"/>
</a>
</g>
</g>
<!-- Node9&#45;&gt;Node7 -->
<g id="edge14_Node000009_Node000007" class="edge">
<title>Node9&#45;&gt;Node7</title>
<g id="a_edge14_Node000009_Node000007"><a xlink:title=" ">
<path fill="none" stroke="#63b8ff" d="M894.04,-54.98C925.71,-46.01 975.77,-31.82 1010.81,-21.89"/>
<polygon fill="#63b8ff" stroke="#63b8ff" points="1012.05,-25.18 1020.72,-19.08 1010.14,-18.44 1012.05,-25.18"/>
</a>
</g>
</g>
<!-- Node9&#45;&gt;Node8 -->
<g id="edge16_Node000009_Node000008" class="edge">
<title>Node9&#45;&gt;Node8</title>
<g id="a_edge16_Node000009_Node000008"><a xlink:title=" ">
<path fill="none" stroke="#63b8ff" d="M780.23,-55.76C663.99,-45.03 456.4,-25.86 352.65,-16.28"/>
<polygon fill="#63b8ff" stroke="#63b8ff" points="352.91,-12.79 342.63,-15.36 352.27,-19.76 352.91,-12.79"/>
</a>
</g>
</g>
<!-- Node10 -->
<g id="Node000010" class="node">
<title>Node10</title>
<g id="a_Node000010"><a xlink:title=" ">
<polygon fill="#e0e0e0" stroke="#999999" points="850,-19 812,-19 812,0 850,0 850,-19"/>
<text text-anchor="middle" x="831" y="-7" font-family="Helvetica,sans-Serif" font-size="10.00">map</text>
</a>
</g>
</g>
<!-- Node9&#45;&gt;Node10 -->
<g id="edge11_Node000009_Node000010" class="edge">
<title>Node9&#45;&gt;Node10</title>
<g id="a_edge11_Node000009_Node000010"><a xlink:title=" ">
<path fill="none" stroke="#63b8ff" d="M858.55,-54.75C853.99,-47.42 847.33,-36.73 841.71,-27.7"/>
<polygon fill="#63b8ff" stroke="#63b8ff" points="844.6,-25.73 836.35,-19.09 838.66,-29.43 844.6,-25.73"/>
</a>
</g>
</g>
<!-- Node11 -->
<g id="Node000011" class="node">
<title>Node11</title>
<g id="a_Node000011"><a xlink:title=" ">
<polygon fill="#e0e0e0" stroke="#999999" points="900,-19 868,-19 868,0 900,0 900,-19"/>
<text text-anchor="middle" x="884" y="-7" font-family="Helvetica,sans-Serif" font-size="10.00">set</text>
</a>
</g>
</g>
<!-- Node9&#45;&gt;Node11 -->
<g id="edge12_Node000009_Node000011" class="edge">
<title>Node9&#45;&gt;Node11</title>
<g id="a_edge12_Node000009_Node000011"><a xlink:title=" ">
<path fill="none" stroke="#63b8ff" d="M867.3,-54.75C869.98,-47.65 873.85,-37.4 877.19,-28.56"/>
<polygon fill="#63b8ff" stroke="#63b8ff" points="880.5,-29.68 880.76,-19.09 873.95,-27.21 880.5,-29.68"/>
</a>
</g>
</g>
<!-- Node13 -->
<g id="Node000013" class="node">
<title>Node13</title>
<g id="a_Node000013"><a xlink:href="encoding_2include_2webcface_2encoding_2val__adaptor_8h.html" target="_top" xlink:title=" ">
<polygon fill="white" stroke="#666666" points="669,-140 541,-140 541,-110 669,-110 669,-140"/>
<text text-anchor="start" x="549" y="-128" font-family="Helvetica,sans-Serif" font-size="10.00">webcface/encoding/val</text>
<text text-anchor="middle" x="605" y="-117" font-family="Helvetica,sans-Serif" font-size="10.00">_adaptor.h</text>
</a>
</g>
</g>
<!-- Node12&#45;&gt;Node13 -->
<g id="edge19_Node000012_Node000013" class="edge">
<title>Node12&#45;&gt;Node13</title>
<g id="a_edge19_Node000012_Node000013"><a xlink:title=" ">
<path fill="none" stroke="#63b8ff" d="M630.9,-230.97C626.71,-214.01 617.21,-175.5 610.96,-150.14"/>
<polygon fill="#63b8ff" stroke="#63b8ff" points="614.29,-149.05 608.5,-140.18 607.5,-150.73 614.29,-149.05"/>
</a>
</g>
</g>
<!-- Node18 -->
<g id="Node000018" class="node">
<title>Node18</title>
<g id="a_Node000018"><a xlink:href="func__result_8h.html" target="_top" xlink:title=" ">
<polygon fill="white" stroke="#666666" points="530,-195 450,-195 450,-176 530,-176 530,-195"/>
<text text-anchor="middle" x="490" y="-183" font-family="Helvetica,sans-Serif" font-size="10.00">func_result.h</text>
</a>
</g>
</g>
<!-- Node12&#45;&gt;Node18 -->
<g id="edge28_Node000012_Node000018" class="edge">
<title>Node12&#45;&gt;Node18</title>
<g id="a_edge28_Node000012_Node000018"><a xlink:title=" ">
<path fill="none" stroke="#63b8ff" d="M610.02,-230.98C586.5,-222.27 549.71,-208.63 523.06,-198.75"/>
<polygon fill="#63b8ff" stroke="#63b8ff" points="523.99,-195.36 513.39,-195.17 521.55,-201.93 523.99,-195.36"/>
</a>
</g>
</g>
<!-- Node24 -->
<g id="Node000024" class="node">
<title>Node24</title>
<g id="a_Node000024"><a xlink:href="arg_8h.html" target="_top" xlink:title=" ">
<polygon fill="white" stroke="#666666" points="680.5,-195 639.5,-195 639.5,-176 680.5,-176 680.5,-195"/>
<text text-anchor="middle" x="660" y="-183" font-family="Helvetica,sans-Serif" font-size="10.00">arg.h</text>
</a>
</g>
</g>
<!-- Node12&#45;&gt;Node24 -->
<g id="edge41_Node000012_Node000024" class="edge">
<title>Node12&#45;&gt;Node24</title>
<g id="a_edge41_Node000012_Node000024"><a xlink:title=" ">
<path fill="none" stroke="#63b8ff" d="M637.46,-230.75C641.12,-223.57 646.41,-213.18 650.95,-204.27"/>
<polygon fill="#63b8ff" stroke="#63b8ff" points="654.2,-205.59 655.62,-195.09 647.97,-202.41 654.2,-205.59"/>
</a>
</g>
</g>
<!-- Node13&#45;&gt;Node2 -->
<g id="edge20_Node000013_Node000002" class="edge">
<title>Node13&#45;&gt;Node2</title>
<g id="a_edge20_Node000013_Node000002"><a xlink:title=" ">
<path fill="none" stroke="#63b8ff" d="M620.27,-109.81C630.77,-99.94 644.94,-86.38 657,-74 672.22,-58.39 688.94,-39.93 700.51,-26.95"/>
<polygon fill="#63b8ff" stroke="#63b8ff" points="703.28,-29.1 707.29,-19.29 698.04,-24.45 703.28,-29.1"/>
</a>
</g>
</g>
<!-- Node13&#45;&gt;Node3 -->
<g id="edge21_Node000013_Node000003" class="edge">
<title>Node13&#45;&gt;Node3</title>
<g id="a_edge21_Node000013_Node000003"><a xlink:title=" ">
<path fill="none" stroke="#63b8ff" d="M669.26,-115.77C684.57,-113.85 700.86,-111.82 716,-110 846.66,-94.25 1002.28,-76.73 1069.43,-69.23"/>
<polygon fill="#63b8ff" stroke="#63b8ff" points="1069.88,-72.71 1079.43,-68.12 1069.1,-65.75 1069.88,-72.71"/>
</a>
</g>
</g>
<!-- Node13&#45;&gt;Node8 -->
<g id="edge27_Node000013_Node000008" class="edge">
<title>Node13&#45;&gt;Node8</title>
<g id="a_edge27_Node000013_Node000008"><a xlink:title=" ">
<path fill="none" stroke="#63b8ff" d="M540.97,-115.78C496.01,-108.5 435.19,-95.6 385,-74 356.03,-61.53 326.4,-40.06 308.11,-25.58"/>
<polygon fill="#63b8ff" stroke="#63b8ff" points="310.07,-22.66 300.09,-19.1 305.67,-28.1 310.07,-22.66"/>
</a>
</g>
</g>
<!-- Node13&#45;&gt;Node9 -->
<g id="edge26_Node000013_Node000009" class="edge">
<title>Node13&#45;&gt;Node9</title>
<g id="a_edge26_Node000013_Node000009"><a xlink:title=" ">
<path fill="none" stroke="#63b8ff" d="M667.04,-109.99C712.8,-99.65 774.16,-85.79 816.16,-76.31"/>
<polygon fill="#63b8ff" stroke="#63b8ff" points="817.15,-79.67 826.13,-74.05 815.6,-72.84 817.15,-79.67"/>
</a>
</g>
</g>
<!-- Node14 -->
<g id="Node000014" class="node">
<title>Node14</title>
<g id="a_Node000014"><a xlink:title=" ">
<polygon fill="#e0e0e0" stroke="#999999" points="504.5,-74 463.5,-74 463.5,-55 504.5,-55 504.5,-74"/>
<text text-anchor="middle" x="484" y="-62" font-family="Helvetica,sans-Serif" font-size="10.00">tuple</text>
</a>
</g>
</g>
<!-- Node13&#45;&gt;Node14 -->
<g id="edge22_Node000013_Node000014" class="edge">
<title>Node13&#45;&gt;Node14</title>
<g id="a_edge22_Node000013_Node000014"><a xlink:title=" ">
<path fill="none" stroke="#63b8ff" d="M576.02,-109.99C556.28,-100.45 530.33,-87.9 511.03,-78.57"/>
<polygon fill="#63b8ff" stroke="#63b8ff" points="512.4,-75.34 501.87,-74.14 509.35,-81.64 512.4,-75.34"/>
</a>
</g>
</g>
<!-- Node15 -->
<g id="Node000015" class="node">
<title>Node15</title>
<g id="a_Node000015"><a xlink:title=" ">
<polygon fill="#e0e0e0" stroke="#999999" points="573,-74 523,-74 523,-55 573,-55 573,-74"/>
<text text-anchor="middle" x="548" y="-62" font-family="Helvetica,sans-Serif" font-size="10.00">cstdint</text>
</a>
</g>
</g>
<!-- Node13&#45;&gt;Node15 -->
<g id="edge23_Node000013_Node000015" class="edge">
<title>Node13&#45;&gt;Node15</title>
<g id="a_edge23_Node000013_Node000015"><a xlink:title=" ">
<path fill="none" stroke="#63b8ff" d="M591.2,-109.84C582.93,-101.35 572.38,-90.52 563.77,-81.69"/>
<polygon fill="#63b8ff" stroke="#63b8ff" points="566.03,-78.99 556.54,-74.27 561.01,-83.87 566.03,-78.99"/>
</a>
</g>
</g>
<!-- Node16 -->
<g id="Node000016" class="node">
<title>Node16</title>
<g id="a_Node000016"><a xlink:title=" ">
<polygon fill="#e0e0e0" stroke="#999999" points="648.5,-74 591.5,-74 591.5,-55 648.5,-55 648.5,-74"/>
<text text-anchor="middle" x="620" y="-62" font-family="Helvetica,sans-Serif" font-size="10.00">ostream</text>
</a>
</g>
</g>
<!-- Node13&#45;&gt;Node16 -->
<g id="edge24_Node000013_Node000016" class="edge">
<title>Node13&#45;&gt;Node16</title>
<g id="a_edge24_Node000013_Node000016"><a xlink:title=" ">
<path fill="none" stroke="#63b8ff" d="M608.63,-109.84C610.61,-102.13 613.08,-92.49 615.21,-84.17"/>
<polygon fill="#63b8ff" stroke="#63b8ff" points="618.66,-84.82 617.75,-74.27 611.88,-83.08 618.66,-84.82"/>
</a>
</g>
</g>
<!-- Node17 -->
<g id="Node000017" class="node">
<title>Node17</title>
<g id="a_Node000017"><a xlink:title=" ">
<polygon fill="#e0e0e0" stroke="#999999" points="445.5,-74 394.5,-74 394.5,-55 445.5,-55 445.5,-74"/>
<text text-anchor="middle" x="420" y="-62" font-family="Helvetica,sans-Serif" font-size="10.00">variant</text>
</a>
</g>
</g>
<!-- Node13&#45;&gt;Node17 -->
<g id="edge25_Node000013_Node000017" class="edge">
<title>Node13&#45;&gt;Node17</title>
<g id="a_edge25_Node000013_Node000017"><a xlink:title=" ">
<path fill="none" stroke="#63b8ff" d="M560.69,-109.99C528.42,-99.78 485.29,-86.15 455.33,-76.67"/>
<polygon fill="#63b8ff" stroke="#63b8ff" points="456.3,-73.31 445.71,-73.63 454.19,-79.98 456.3,-73.31"/>
</a>
</g>
</g>
<!-- Node18&#45;&gt;Node2 -->
<g id="edge31_Node000018_Node000002" class="edge">
<title>Node18&#45;&gt;Node2</title>
<g id="a_edge31_Node000018_Node000002"><a xlink:title=" ">
<path fill="none" stroke="#63b8ff" d="M481.53,-175.76C456.79,-150.21 386.29,-77.24 385,-74 381.87,-66.16 379.44,-61.36 385,-55 423.44,-11.03 606.79,-8.75 682.34,-9.74"/>
<polygon fill="#63b8ff" stroke="#63b8ff" points="682.63,-13.24 692.68,-9.9 682.74,-6.24 682.63,-13.24"/>
</a>
</g>
</g>
<!-- Node18&#45;&gt;Node4 -->
<g id="edge30_Node000018_Node000004" class="edge">
<title>Node18&#45;&gt;Node4</title>
<g id="a_edge30_Node000018_Node000004"><a xlink:title=" ">
<path fill="none" stroke="#63b8ff" d="M530.27,-177.93C574.83,-170.3 648.6,-156.62 711,-140 713.79,-139.26 716.66,-138.43 719.53,-137.57"/>
<polygon fill="#63b8ff" stroke="#63b8ff" points="720.69,-140.87 729.17,-134.51 718.58,-134.2 720.69,-140.87"/>
</a>
</g>
</g>
<!-- Node18&#45;&gt;Node5 -->
<g id="edge35_Node000018_Node000005" class="edge">
<title>Node18&#45;&gt;Node5</title>
<g id="a_edge35_Node000018_Node000005"><a xlink:title=" ">
<path fill="none" stroke="#63b8ff" d="M530.47,-181.77C588.75,-177.11 699.27,-165.52 790,-140 791.89,-139.47 793.81,-138.86 795.73,-138.19"/>
<polygon fill="#63b8ff" stroke="#63b8ff" points="797.08,-141.42 805.14,-134.55 794.55,-134.89 797.08,-141.42"/>
</a>
</g>
</g>
<!-- Node18&#45;&gt;Node6 -->
<g id="edge33_Node000018_Node000006" class="edge">
<title>Node18&#45;&gt;Node6</title>
<g id="a_edge33_Node000018_Node000006"><a xlink:title=" ">
<path fill="none" stroke="#63b8ff" d="M530.21,-180.12C569.48,-174.69 630.14,-163.14 678,-140 697.37,-130.63 696.25,-118.55 716,-110 814.98,-67.15 878.87,-149.4 956,-74 967.62,-62.64 969.59,-43.74 969.13,-29.51"/>
<polygon fill="#63b8ff" stroke="#63b8ff" points="972.61,-29.04 968.37,-19.33 965.62,-29.56 972.61,-29.04"/>
</a>
</g>
</g>
<!-- Node18&#45;&gt;Node8 -->
<g id="edge29_Node000018_Node000008" class="edge">
<title>Node18&#45;&gt;Node8</title>
<g id="a_edge29_Node000018_Node000008"><a xlink:title=" ">
<path fill="none" stroke="#63b8ff" d="M449.96,-183.12C351.8,-179.33 105.38,-167.18 81,-140 70.52,-128.32 77.13,-65.99 87,-55 105.48,-34.43 174.61,-22.54 227.1,-16.31"/>
<polygon fill="#63b8ff" stroke="#63b8ff" points="227.82,-19.75 237.36,-15.14 227.03,-12.79 227.82,-19.75"/>
</a>
</g>
</g>
<!-- Node18&#45;&gt;Node13 -->
<g id="edge36_Node000018_Node000013" class="edge">
<title>Node18&#45;&gt;Node13</title>
<g id="a_edge36_Node000018_Node000013"><a xlink:title=" ">
<path fill="none" stroke="#63b8ff" d="M506.97,-175.87C523.01,-167.71 547.6,-155.2 568.15,-144.75"/>
<polygon fill="#63b8ff" stroke="#63b8ff" points="569.93,-147.77 577.25,-140.11 566.75,-141.53 569.93,-147.77"/>
</a>
</g>
</g>
<!-- Node19 -->
<g id="Node000019" class="node">
<title>Node19</title>
<g id="a_Node000019"><a xlink:title=" ">
<polygon fill="#e0e0e0" stroke="#999999" points="326,-134.5 280,-134.5 280,-115.5 326,-115.5 326,-134.5"/>
<text text-anchor="middle" x="303" y="-122.5" font-family="Helvetica,sans-Serif" font-size="10.00">future</text>
</a>
</g>
</g>
<!-- Node18&#45;&gt;Node19 -->
<g id="edge32_Node000018_Node000019" class="edge">
<title>Node18&#45;&gt;Node19</title>
<g id="a_edge32_Node000018_Node000019"><a xlink:title=" ">
<path fill="none" stroke="#63b8ff" d="M455.41,-175.98C423.72,-167.84 375.69,-154.67 335,-140 333.61,-139.5 332.19,-138.97 330.77,-138.41"/>
<polygon fill="#63b8ff" stroke="#63b8ff" points="332.02,-135.14 321.44,-134.57 329.35,-141.61 332.02,-135.14"/>
</a>
</g>
</g>
<!-- Node20 -->
<g id="Node000020" class="node">
<title>Node20</title>
<g id="a_Node000020"><a xlink:title=" ">
<polygon fill="#e0e0e0" stroke="#999999" points="409.5,-134.5 344.5,-134.5 344.5,-115.5 409.5,-115.5 409.5,-134.5"/>
<text text-anchor="middle" x="377" y="-122.5" font-family="Helvetica,sans-Serif" font-size="10.00">stdexcept</text>
</a>
</g>
</g>
<!-- Node18&#45;&gt;Node20 -->
<g id="edge34_Node000018_Node000020" class="edge">
<title>Node18&#45;&gt;Node20</title>
<g id="a_edge34_Node000018_Node000020"><a xlink:title=" ">
<path fill="none" stroke="#63b8ff" d="M473.33,-175.87C454.72,-166.23 424.38,-150.53 402.72,-139.31"/>
<polygon fill="#63b8ff" stroke="#63b8ff" points="404.23,-136.16 393.74,-134.67 401.01,-142.37 404.23,-136.16"/>
</a>
</g>
</g>
<!-- Node21 -->
<g id="Node000021" class="node">
<title>Node21</title>
<g id="a_Node000021"><a xlink:href="def__types_8h.html" target="_top" xlink:title=" ">
<polygon fill="white" stroke="#666666" points="203.5,-140 90.5,-140 90.5,-110 203.5,-110 203.5,-140"/>
<text text-anchor="start" x="98.5" y="-128" font-family="Helvetica,sans-Serif" font-size="10.00">webcface/c_wcf/def</text>
<text text-anchor="middle" x="147" y="-117" font-family="Helvetica,sans-Serif" font-size="10.00">_types.h</text>
</a>
</g>
</g>
<!-- Node18&#45;&gt;Node21 -->
<g id="edge37_Node000018_Node000021" class="edge">
<title>Node18&#45;&gt;Node21</title>
<g id="a_edge37_Node000018_Node000021"><a xlink:title=" ">
<path fill="none" stroke="#63b8ff" d="M449.98,-177.67C391.96,-167.78 283.75,-149.32 213.58,-137.36"/>
<polygon fill="#63b8ff" stroke="#63b8ff" points="213.96,-133.87 203.52,-135.64 212.79,-140.77 213.96,-133.87"/>
</a>
</g>
</g>
<!-- Node21&#45;&gt;Node8 -->
<g id="edge38_Node000021_Node000008" class="edge">
<title>Node21&#45;&gt;Node8</title>
<g id="a_edge38_Node000021_Node000008"><a xlink:title=" ">
<path fill="none" stroke="#63b8ff" d="M123.86,-109.82C103.79,-95.75 80.13,-73.65 95,-55 111.36,-34.49 176.33,-22.69 226.84,-16.46"/>
<polygon fill="#63b8ff" stroke="#63b8ff" points="227.53,-19.9 237.05,-15.25 226.71,-12.95 227.53,-19.9"/>
</a>
</g>
</g>
<!-- Node22 -->
<g id="Node000022" class="node">
<title>Node22</title>
<g id="a_Node000022"><a xlink:title=" ">
<polygon fill="#e0e0e0" stroke="#999999" points="224,-74 170,-74 170,-55 224,-55 224,-74"/>
<text text-anchor="middle" x="197" y="-62" font-family="Helvetica,sans-Serif" font-size="10.00">wchar.h</text>
</a>
</g>
</g>
<!-- Node21&#45;&gt;Node22 -->
<g id="edge39_Node000021_Node000022" class="edge">
<title>Node21&#45;&gt;Node22</title>
<g id="a_edge39_Node000021_Node000022"><a xlink:title=" ">
<path fill="none" stroke="#63b8ff" d="M159.1,-109.84C166.29,-101.43 175.43,-90.74 182.93,-81.96"/>
<polygon fill="#63b8ff" stroke="#63b8ff" points="185.67,-84.14 189.51,-74.27 180.35,-79.59 185.67,-84.14"/>
</a>
</g>
</g>
<!-- Node23 -->
<g id="Node000023" class="node">
<title>Node23</title>
<g id="a_Node000023"><a xlink:title=" ">
<polygon fill="#e0e0e0" stroke="#999999" points="151.5,-74 104.5,-74 104.5,-55 151.5,-55 151.5,-74"/>
<text text-anchor="middle" x="128" y="-62" font-family="Helvetica,sans-Serif" font-size="10.00">float.h</text>
</a>
</g>
</g>
<!-- Node21&#45;&gt;Node23 -->
<g id="edge40_Node000021_Node000023" class="edge">
<title>Node21&#45;&gt;Node23</title>
<g id="a_edge40_Node000021_Node000023"><a xlink:title=" ">
<path fill="none" stroke="#63b8ff" d="M142.4,-109.84C139.87,-102.04 136.69,-92.27 133.97,-83.89"/>
<polygon fill="#63b8ff" stroke="#63b8ff" points="137.26,-82.7 130.85,-74.27 130.61,-84.86 137.26,-82.7"/>
</a>
</g>
</g>
<!-- Node24&#45;&gt;Node3 -->
<g id="edge42_Node000024_Node000003" class="edge">
<title>Node24&#45;&gt;Node3</title>
<g id="a_edge42_Node000024_Node000003"><a xlink:title=" ">
<path fill="none" stroke="#63b8ff" d="M680.74,-183.04C717.62,-179.76 796.23,-169.6 855,-140 873.3,-130.79 871.62,-119.05 890,-110 921.16,-94.67 1017.4,-78.41 1069.19,-70.46"/>
<polygon fill="#63b8ff" stroke="#63b8ff" points="1069.86,-73.9 1079.23,-68.94 1068.82,-66.98 1069.86,-73.9"/>
</a>
</g>
</g>
<!-- Node24&#45;&gt;Node4 -->
<g id="edge43_Node000024_Node000004" class="edge">
<title>Node24&#45;&gt;Node4</title>
<g id="a_edge43_Node000024_Node000004"><a xlink:title=" ">
<path fill="none" stroke="#63b8ff" d="M673.72,-175.87C688.7,-166.45 712.89,-151.23 730.62,-140.08"/>
<polygon fill="#63b8ff" stroke="#63b8ff" points="732.62,-142.95 739.22,-134.67 728.89,-137.03 732.62,-142.95"/>
</a>
</g>
</g>
<!-- Node24&#45;&gt;Node13 -->
<g id="edge44_Node000024_Node000013" class="edge">
<title>Node24&#45;&gt;Node13</title>
<g id="a_edge44_Node000024_Node000013"><a xlink:title=" ">
<path fill="none" stroke="#63b8ff" d="M651.88,-175.87C644.91,-168.44 634.54,-157.42 625.32,-147.62"/>
<polygon fill="#63b8ff" stroke="#63b8ff" points="627.67,-145 618.27,-140.11 622.57,-149.8 627.67,-145"/>
</a>
</g>
</g>
<!-- Node25&#45;&gt;Node3 -->
<g id="edge48_Node000025_Node000003" class="edge">
<title>Node25&#45;&gt;Node3</title>
<g id="a_edge48_Node000025_Node000003"><a xlink:title=" ">
<path fill="none" stroke="#63b8ff" d="M852.3,-175.91C871.51,-158.32 915.22,-119.11 933,-110 977.04,-87.42 1033.53,-75.59 1069,-69.95"/>
<polygon fill="#63b8ff" stroke="#63b8ff" points="1069.94,-73.35 1079.3,-68.39 1068.89,-66.43 1069.94,-73.35"/>
</a>
</g>
</g>
<!-- Node25&#45;&gt;Node4 -->
<g id="edge47_Node000025_Node000004" class="edge">
<title>Node25&#45;&gt;Node4</title>
<g id="a_edge47_Node000025_Node000004"><a xlink:title=" ">
<path fill="none" stroke="#63b8ff" d="M829.72,-175.87C815.36,-166.54 792.24,-151.51 775.13,-140.38"/>
<polygon fill="#63b8ff" stroke="#63b8ff" points="776.63,-137.18 766.33,-134.67 772.81,-143.05 776.63,-137.18"/>
</a>
</g>
</g>
<!-- Node25&#45;&gt;Node5 -->
<g id="edge50_Node000025_Node000005" class="edge">
<title>Node25&#45;&gt;Node5</title>
<g id="a_edge50_Node000025_Node000005"><a xlink:title=" ">
<path fill="none" stroke="#63b8ff" d="M840.05,-175.87C837.21,-167.57 832.84,-154.78 829.23,-144.22"/>
<polygon fill="#63b8ff" stroke="#63b8ff" points="832.51,-143 825.96,-134.67 825.89,-145.26 832.51,-143"/>
</a>
</g>
</g>
<!-- Node25&#45;&gt;Node8 -->
<g id="edge51_Node000025_Node000008" class="edge">
<title>Node25&#45;&gt;Node8</title>
<g id="a_edge51_Node000025_Node000008"><a xlink:title=" ">
<path fill="none" stroke="#63b8ff" d="M797.9,-180.93C736.91,-175.45 625.04,-163.09 532,-140 489.84,-129.54 384.16,-98.08 348,-74 329.24,-61.51 312.44,-41.67 301.81,-27.5"/>
<polygon fill="#63b8ff" stroke="#63b8ff" points="304.45,-25.18 295.76,-19.13 298.78,-29.28 304.45,-25.18"/>
</a>
</g>
</g>
<!-- Node26 -->
<g id="Node000026" class="node">
<title>Node26</title>
<g id="a_Node000026"><a xlink:title=" ">
<polygon fill="#e0e0e0" stroke="#999999" points="1006.5,-134.5 941.5,-134.5 941.5,-115.5 1006.5,-115.5 1006.5,-134.5"/>
<text text-anchor="middle" x="974" y="-122.5" font-family="Helvetica,sans-Serif" font-size="10.00">functional</text>
</a>
</g>
</g>
<!-- Node25&#45;&gt;Node26 -->
<g id="edge46_Node000025_Node000026" class="edge">
<title>Node25&#45;&gt;Node26</title>
<g id="a_edge46_Node000025_Node000026"><a xlink:title=" ">
<path fill="none" stroke="#63b8ff" d="M862.05,-175.99C883.97,-166.2 920.21,-150.02 945.5,-138.73"/>
<polygon fill="#63b8ff" stroke="#63b8ff" points="947.22,-141.79 954.93,-134.52 944.37,-135.4 947.22,-141.79"/>
</a>
</g>
</g>
<!-- Node27 -->
<g id="Node000027" class="node">
<title>Node27</title>
<g id="a_Node000027"><a xlink:title=" ">
<polygon fill="#e0e0e0" stroke="#999999" points="1075,-134.5 1025,-134.5 1025,-115.5 1075,-115.5 1075,-134.5"/>
<text text-anchor="middle" x="1050" y="-122.5" font-family="Helvetica,sans-Serif" font-size="10.00">chrono</text>
</a>
</g>
</g>
<!-- Node25&#45;&gt;Node27 -->
<g id="edge49_Node000025_Node000027" class="edge">
<title>Node25&#45;&gt;Node27</title>
<g id="a_edge49_Node000025_Node000027"><a xlink:title=" ">
<path fill="none" stroke="#63b8ff" d="M882.62,-175.96C917.98,-167.95 970.98,-154.98 1016,-140 1017.62,-139.46 1019.28,-138.88 1020.95,-138.27"/>
<polygon fill="#63b8ff" stroke="#63b8ff" points="1022.34,-141.49 1030.4,-134.61 1019.81,-134.96 1022.34,-141.49"/>
</a>
</g>
</g>
</g>
</svg>
