<?xml version="1.0" encoding="UTF-8" standalone="no"?>
<!DOCTYPE svg PUBLIC "-//W3C//DTD SVG 1.1//EN"
 "http://www.w3.org/Graphics/SVG/1.1/DTD/svg11.dtd">
<!-- Generated by graphviz version 2.43.0 (0)
 -->
<!-- Title: message/message.h Pages: 1 -->
<svg width="1174pt" height="192pt"
 viewBox="0.00 0.00 1174.17 192.00" xmlns="http://www.w3.org/2000/svg" xmlns:xlink="http://www.w3.org/1999/xlink">
<g id="graph0" class="graph" transform="scale(1 1) rotate(0) translate(4 188)">
<title>message/message.h</title>
<!-- Node1 -->
<g id="Node000001" class="node">
<title>Node1</title>
<g id="a_Node000001"><a xlink:title=" ">
<polygon fill="#999999" stroke="#666666" points="674.17,-184 557.17,-184 557.17,-165 674.17,-165 674.17,-184"/>
<text text-anchor="middle" x="615.67" y="-172" font-family="Helvetica,sans-Serif" font-size="10.00">message/message.h</text>
</a>
</g>
</g>
<!-- Node2 -->
<g id="Node000002" class="node">
<title>Node2</title>
<g id="a_Node000002"><a xlink:title=" ">
<polygon fill="#e0e0e0" stroke="#999999" points="94.67,-74 12.67,-74 12.67,-55 94.67,-55 94.67,-74"/>
<text text-anchor="middle" x="53.67" y="-62" font-family="Helvetica,sans-Serif" font-size="10.00">msgpack.hpp</text>
</a>
</g>
</g>
<!-- Node1&#45;&gt;Node2 -->
<g id="edge1_Node000001_Node000002" class="edge">
<title>Node1&#45;&gt;Node2</title>
<g id="a_edge1_Node000001_Node000002"><a xlink:title=" ">
<path fill="none" stroke="#63b8ff" d="M557.05,-171.03C450.89,-166.02 231.11,-153.05 158.67,-129 125.73,-118.07 92.2,-95.34 72.16,-80.25"/>
<polygon fill="#63b8ff" stroke="#63b8ff" points="74.26,-77.45 64.2,-74.12 69.98,-82.99 74.26,-77.45"/>
</a>
</g>
</g>
<!-- Node3 -->
<g id="Node000003" class="node">
<title>Node3</title>
<g id="a_Node000003"><a xlink:title=" ">
<polygon fill="#e0e0e0" stroke="#999999" points="641.67,-19 597.67,-19 597.67,0 641.67,0 641.67,-19"/>
<text text-anchor="middle" x="619.67" y="-7" font-family="Helvetica,sans-Serif" font-size="10.00">string</text>
</a>
</g>
</g>
<!-- Node1&#45;&gt;Node3 -->
<g id="edge2_Node000001_Node000003" class="edge">
<title>Node1&#45;&gt;Node3</title>
<g id="a_edge2_Node000001_Node000003"><a xlink:title=" ">
<path fill="none" stroke="#63b8ff" d="M615.88,-164.74C616.5,-139.31 618.33,-65.08 619.19,-29.69"/>
<polygon fill="#63b8ff" stroke="#63b8ff" points="622.7,-29.39 619.45,-19.31 615.7,-29.22 622.7,-29.39"/>
</a>
</g>
</g>
<!-- Node4 -->
<g id="Node000004" class="node">
<title>Node4</title>
<g id="a_Node000004"><a xlink:title=" ">
<polygon fill="#e0e0e0" stroke="#999999" points="1004.17,-129 959.17,-129 959.17,-110 1004.17,-110 1004.17,-129"/>
<text text-anchor="middle" x="981.67" y="-117" font-family="Helvetica,sans-Serif" font-size="10.00">utility</text>
</a>
</g>
</g>
<!-- Node1&#45;&gt;Node4 -->
<g id="edge3_Node000001_Node000004" class="edge">
<title>Node1&#45;&gt;Node4</title>
<g id="a_edge3_Node000001_Node000004"><a xlink:title=" ">
<path fill="none" stroke="#63b8ff" d="M674.46,-168.13C739.51,-161.64 847.54,-149.25 948.96,-129.12"/>
<polygon fill="#63b8ff" stroke="#63b8ff" points="949.95,-132.49 959.06,-127.08 948.57,-125.62 949.95,-132.49"/>
</a>
</g>
</g>
<!-- Node5 -->
<g id="Node000005" class="node">
<title>Node5</title>
<g id="a_Node000005"><a xlink:title=" ">
<polygon fill="#e0e0e0" stroke="#999999" points="419.17,-19 372.17,-19 372.17,0 419.17,0 419.17,-19"/>
<text text-anchor="middle" x="395.67" y="-7" font-family="Helvetica,sans-Serif" font-size="10.00">vector</text>
</a>
</g>
</g>
<!-- Node1&#45;&gt;Node5 -->
<g id="edge4_Node000001_Node000005" class="edge">
<title>Node1&#45;&gt;Node5</title>
<g id="a_edge4_Node000001_Node000005"><a xlink:title=" ">
<path fill="none" stroke="#63b8ff" d="M611.33,-164.97C599.94,-143.39 567.04,-86.14 523.67,-55 495.19,-34.56 456.51,-22.84 429.15,-16.61"/>
<polygon fill="#63b8ff" stroke="#63b8ff" points="429.77,-13.17 419.26,-14.49 428.3,-20.01 429.77,-13.17"/>
</a>
</g>
</g>
<!-- Node6 -->
<g id="Node000006" class="node">
<title>Node6</title>
<g id="a_Node000006"><a xlink:title=" ">
<polygon fill="#e0e0e0" stroke="#999999" points="1057.17,-129 1022.17,-129 1022.17,-110 1057.17,-110 1057.17,-129"/>
<text text-anchor="middle" x="1039.67" y="-117" font-family="Helvetica,sans-Serif" font-size="10.00">any</text>
</a>
</g>
</g>
<!-- Node1&#45;&gt;Node6 -->
<g id="edge5_Node000001_Node000006" class="edge">
<title>Node1&#45;&gt;Node6</title>
<g id="a_edge5_Node000001_Node000006"><a xlink:title=" ">
<path fill="none" stroke="#63b8ff" d="M674.27,-170.7C750.37,-166.24 887.3,-155.39 1011.81,-129.02"/>
<polygon fill="#63b8ff" stroke="#63b8ff" points="1012.86,-132.37 1021.89,-126.84 1011.38,-125.53 1012.86,-132.37"/>
</a>
</g>
</g>
<!-- Node7 -->
<g id="Node000007" class="node">
<title>Node7</title>
<g id="a_Node000007"><a xlink:title=" ">
<polygon fill="#e0e0e0" stroke="#999999" points="57.67,-19 7.67,-19 7.67,0 57.67,0 57.67,-19"/>
<text text-anchor="middle" x="32.67" y="-7" font-family="Helvetica,sans-Serif" font-size="10.00">cstdint</text>
</a>
</g>
</g>
<!-- Node1&#45;&gt;Node7 -->
<g id="edge6_Node000001_Node000007" class="edge">
<title>Node1&#45;&gt;Node7</title>
<g id="a_edge6_Node000001_Node000007"><a xlink:title=" ">
<path fill="none" stroke="#63b8ff" d="M557.09,-170.98C443.5,-165.65 197.29,-151.82 115.67,-129 62.26,-114.07 32.99,-121.07 3.67,-74 -5.89,-58.67 5.52,-39.66 16.71,-26.46"/>
<polygon fill="#63b8ff" stroke="#63b8ff" points="19.3,-28.81 23.46,-19.07 14.13,-24.09 19.3,-28.81"/>
</a>
</g>
</g>
<!-- Node8 -->
<g id="Node000008" class="node">
<title>Node8</title>
<g id="a_Node000008"><a xlink:title=" ">
<polygon fill="#e0e0e0" stroke="#999999" points="1166.17,-129 1075.17,-129 1075.17,-110 1166.17,-110 1166.17,-129"/>
<text text-anchor="middle" x="1120.67" y="-117" font-family="Helvetica,sans-Serif" font-size="10.00">spdlog/logger.h</text>
</a>
</g>
</g>
<!-- Node1&#45;&gt;Node8 -->
<g id="edge7_Node000001_Node000008" class="edge">
<title>Node1&#45;&gt;Node8</title>
<g id="a_edge7_Node000001_Node000008"><a xlink:title=" ">
<path fill="none" stroke="#63b8ff" d="M674.17,-168.81C758.36,-161.83 918.78,-147.63 1064.97,-129.15"/>
<polygon fill="#63b8ff" stroke="#63b8ff" points="1065.55,-132.61 1075.03,-127.87 1064.66,-125.66 1065.55,-132.61"/>
</a>
</g>
</g>
<!-- Node9 -->
<g id="Node000009" class="node">
<title>Node9</title>
<g id="a_Node000009"><a xlink:href="common_2func_8h.html" target="_top" xlink:title=" ">
<polygon fill="white" stroke="#666666" points="468.67,-129 326.67,-129 326.67,-110 468.67,-110 468.67,-129"/>
<text text-anchor="middle" x="397.67" y="-117" font-family="Helvetica,sans-Serif" font-size="10.00">webcface/common/func.h</text>
</a>
</g>
</g>
<!-- Node1&#45;&gt;Node9 -->
<g id="edge8_Node000001_Node000009" class="edge">
<title>Node1&#45;&gt;Node9</title>
<g id="a_edge8_Node000001_Node000009"><a xlink:title=" ">
<path fill="none" stroke="#63b8ff" d="M580.64,-164.98C543.17,-155.87 483.61,-141.4 442.69,-131.45"/>
<polygon fill="#63b8ff" stroke="#63b8ff" points="443.51,-128.04 432.97,-129.08 441.86,-134.85 443.51,-128.04"/>
</a>
</g>
</g>
<!-- Node18 -->
<g id="Node000018" class="node">
<title>Node18</title>
<g id="a_Node000018"><a xlink:href="common_2log_8h.html" target="_top" xlink:title=" ">
<polygon fill="white" stroke="#666666" points="779.67,-129 643.67,-129 643.67,-110 779.67,-110 779.67,-129"/>
<text text-anchor="middle" x="711.67" y="-117" font-family="Helvetica,sans-Serif" font-size="10.00">webcface/common/log.h</text>
</a>
</g>
</g>
<!-- Node1&#45;&gt;Node18 -->
<g id="edge24_Node000001_Node000018" class="edge">
<title>Node1&#45;&gt;Node18</title>
<g id="a_edge24_Node000001_Node000018"><a xlink:title=" ">
<path fill="none" stroke="#63b8ff" d="M631.09,-164.98C646.12,-156.69 669.21,-143.94 686.82,-134.22"/>
<polygon fill="#63b8ff" stroke="#63b8ff" points="688.9,-137.07 695.96,-129.17 685.51,-130.94 688.9,-137.07"/>
</a>
</g>
</g>
<!-- Node20 -->
<g id="Node000020" class="node">
<title>Node20</title>
<g id="a_Node000020"><a xlink:href="common_2view_8h.html" target="_top" xlink:title=" ">
<polygon fill="white" stroke="#666666" points="941.17,-129 798.17,-129 798.17,-110 941.17,-110 941.17,-129"/>
<text text-anchor="middle" x="869.67" y="-117" font-family="Helvetica,sans-Serif" font-size="10.00">webcface/common/view.h</text>
</a>
</g>
</g>
<!-- Node1&#45;&gt;Node20 -->
<g id="edge27_Node000001_Node000020" class="edge">
<title>Node1&#45;&gt;Node20</title>
<g id="a_edge27_Node000001_Node000020"><a xlink:title=" ">
<path fill="none" stroke="#63b8ff" d="M656.47,-164.98C700.6,-155.78 770.99,-141.09 818.71,-131.13"/>
<polygon fill="#63b8ff" stroke="#63b8ff" points="819.46,-134.55 828.54,-129.08 818.03,-127.7 819.46,-134.55"/>
</a>
</g>
</g>
<!-- Node22 -->
<g id="Node000022" class="node">
<title>Node22</title>
<g id="a_Node000022"><a xlink:href="val__adaptor_8h.html" target="_top" xlink:title=" ">
<polygon fill="white" stroke="#666666" points="251.17,-129 168.17,-129 168.17,-110 251.17,-110 251.17,-129"/>
<text text-anchor="middle" x="209.67" y="-117" font-family="Helvetica,sans-Serif" font-size="10.00">val_adaptor.h</text>
</a>
</g>
</g>
<!-- Node1&#45;&gt;Node22 -->
<g id="edge32_Node000001_Node000022" class="edge">
<title>Node1&#45;&gt;Node22</title>
<g id="a_edge32_Node000001_Node000022"><a xlink:title=" ">
<path fill="none" stroke="#63b8ff" d="M557.06,-165.85C477.68,-155.49 337.21,-137.15 261.49,-127.27"/>
<polygon fill="#63b8ff" stroke="#63b8ff" points="261.62,-123.75 251.25,-125.93 260.71,-130.69 261.62,-123.75"/>
</a>
</g>
</g>
<!-- Node9&#45;&gt;Node3 -->
<g id="edge13_Node000009_Node000003" class="edge">
<title>Node9&#45;&gt;Node3</title>
<g id="a_edge13_Node000009_Node000003"><a xlink:title=" ">
<path fill="none" stroke="#63b8ff" d="M428.3,-109.98C454.36,-102.21 492.41,-89.56 523.67,-74 551.93,-59.93 581.87,-39.04 600.65,-25.11"/>
<polygon fill="#63b8ff" stroke="#63b8ff" points="602.8,-27.88 608.68,-19.07 598.59,-22.28 602.8,-27.88"/>
</a>
</g>
</g>
<!-- Node9&#45;&gt;Node5 -->
<g id="edge9_Node000009_Node000005" class="edge">
<title>Node9&#45;&gt;Node5</title>
<g id="a_edge9_Node000009_Node000005"><a xlink:title=" ">
<path fill="none" stroke="#63b8ff" d="M384.89,-110C374.28,-102.1 359.94,-89.27 353.67,-74 346.32,-56.12 361.08,-37.93 375.09,-25.64"/>
<polygon fill="#63b8ff" stroke="#63b8ff" points="377.54,-28.16 383.07,-19.12 373.11,-22.73 377.54,-28.16"/>
</a>
</g>
</g>
<!-- Node9&#45;&gt;Node7 -->
<g id="edge15_Node000009_Node000007" class="edge">
<title>Node9&#45;&gt;Node7</title>
<g id="a_edge15_Node000009_Node000007"><a xlink:title=" ">
<path fill="none" stroke="#63b8ff" d="M339.47,-109.98C295.07,-102.68 232.73,-90.68 179.67,-74 179.48,-73.94 104.63,-41.6 61.83,-23.1"/>
<polygon fill="#63b8ff" stroke="#63b8ff" points="63.03,-19.81 52.46,-19.05 60.25,-26.23 63.03,-19.81"/>
</a>
</g>
</g>
<!-- Node10 -->
<g id="Node000010" class="node">
<title>Node10</title>
<g id="a_Node000010"><a xlink:title=" ">
<polygon fill="#e0e0e0" stroke="#999999" points="432.17,-74 363.17,-74 363.17,-55 432.17,-55 432.17,-74"/>
<text text-anchor="middle" x="397.67" y="-62" font-family="Helvetica,sans-Serif" font-size="10.00">type_traits</text>
</a>
</g>
</g>
<!-- Node9&#45;&gt;Node10 -->
<g id="edge10_Node000009_Node000010" class="edge">
<title>Node9&#45;&gt;Node10</title>
<g id="a_edge10_Node000009_Node000010"><a xlink:title=" ">
<path fill="none" stroke="#63b8ff" d="M397.67,-109.75C397.67,-102.8 397.67,-92.85 397.67,-84.13"/>
<polygon fill="#63b8ff" stroke="#63b8ff" points="401.17,-84.09 397.67,-74.09 394.17,-84.09 401.17,-84.09"/>
</a>
</g>
</g>
<!-- Node11 -->
<g id="Node000011" class="node">
<title>Node11</title>
<g id="a_Node000011"><a xlink:title=" ">
<polygon fill="#e0e0e0" stroke="#999999" points="515.17,-74 450.17,-74 450.17,-55 515.17,-55 515.17,-74"/>
<text text-anchor="middle" x="482.67" y="-62" font-family="Helvetica,sans-Serif" font-size="10.00">functional</text>
</a>
</g>
</g>
<!-- Node9&#45;&gt;Node11 -->
<g id="edge11_Node000009_Node000011" class="edge">
<title>Node9&#45;&gt;Node11</title>
<g id="a_edge11_Node000009_Node000011"><a xlink:title=" ">
<path fill="none" stroke="#63b8ff" d="M411.32,-109.98C424.5,-101.77 444.69,-89.18 460.23,-79.49"/>
<polygon fill="#63b8ff" stroke="#63b8ff" points="462.13,-82.43 468.76,-74.17 458.42,-76.49 462.13,-82.43"/>
</a>
</g>
</g>
<!-- Node12 -->
<g id="Node000012" class="node">
<title>Node12</title>
<g id="a_Node000012"><a xlink:title=" ">
<polygon fill="#e0e0e0" stroke="#999999" points="703.67,-74 647.67,-74 647.67,-55 703.67,-55 703.67,-74"/>
<text text-anchor="middle" x="675.67" y="-62" font-family="Helvetica,sans-Serif" font-size="10.00">optional</text>
</a>
</g>
</g>
<!-- Node9&#45;&gt;Node12 -->
<g id="edge12_Node000009_Node000012" class="edge">
<title>Node9&#45;&gt;Node12</title>
<g id="a_edge12_Node000009_Node000012"><a xlink:title=" ">
<path fill="none" stroke="#63b8ff" d="M442.33,-109.98C496.46,-99.66 586.74,-82.45 637.68,-72.74"/>
<polygon fill="#63b8ff" stroke="#63b8ff" points="638.45,-76.16 647.62,-70.85 637.14,-69.28 638.45,-76.16"/>
</a>
</g>
</g>
<!-- Node13 -->
<g id="Node000013" class="node">
<title>Node13</title>
<g id="a_Node000013"><a xlink:title=" ">
<polygon fill="#e0e0e0" stroke="#999999" points="354.17,-19 297.17,-19 297.17,0 354.17,0 354.17,-19"/>
<text text-anchor="middle" x="325.67" y="-7" font-family="Helvetica,sans-Serif" font-size="10.00">ostream</text>
</a>
</g>
</g>
<!-- Node9&#45;&gt;Node13 -->
<g id="edge14_Node000009_Node000013" class="edge">
<title>Node9&#45;&gt;Node13</title>
<g id="a_edge14_Node000009_Node000013"><a xlink:title=" ">
<path fill="none" stroke="#63b8ff" d="M385.22,-109.94C374.25,-101.82 358.52,-88.7 348.67,-74 339.48,-60.3 333.45,-42.49 329.88,-29.22"/>
<polygon fill="#63b8ff" stroke="#63b8ff" points="333.23,-28.2 327.44,-19.33 326.43,-29.88 333.23,-28.2"/>
</a>
</g>
</g>
<!-- Node14 -->
<g id="Node000014" class="node">
<title>Node14</title>
<g id="a_Node000014"><a xlink:href="val_8h.html" target="_top" xlink:title=" ">
<polygon fill="white" stroke="#666666" points="230.17,-74 189.17,-74 189.17,-55 230.17,-55 230.17,-74"/>
<text text-anchor="middle" x="209.67" y="-62" font-family="Helvetica,sans-Serif" font-size="10.00">val.h</text>
</a>
</g>
</g>
<!-- Node9&#45;&gt;Node14 -->
<g id="edge16_Node000009_Node000014" class="edge">
<title>Node9&#45;&gt;Node14</title>
<g id="a_edge16_Node000009_Node000014"><a xlink:title=" ">
<path fill="none" stroke="#63b8ff" d="M367.46,-109.98C332.41,-100.1 274.96,-83.91 239.9,-74.02"/>
<polygon fill="#63b8ff" stroke="#63b8ff" points="240.79,-70.64 230.21,-71.29 238.89,-77.38 240.79,-70.64"/>
</a>
</g>
</g>
<!-- Node14&#45;&gt;Node3 -->
<g id="edge17_Node000014_Node000003" class="edge">
<title>Node14&#45;&gt;Node3</title>
<g id="a_edge17_Node000014_Node000003"><a xlink:title=" ">
<path fill="none" stroke="#63b8ff" d="M230.31,-58.05C235,-56.93 239.99,-55.84 244.67,-55 370.57,-32.33 522.42,-18.36 587.51,-13"/>
<polygon fill="#63b8ff" stroke="#63b8ff" points="587.86,-16.49 597.55,-12.19 587.3,-9.51 587.86,-16.49"/>
</a>
</g>
</g>
<!-- Node14&#45;&gt;Node5 -->
<g id="edge18_Node000014_Node000005" class="edge">
<title>Node14&#45;&gt;Node5</title>
<g id="a_edge18_Node000014_Node000005"><a xlink:title=" ">
<path fill="none" stroke="#63b8ff" d="M230.28,-57.63C262.23,-48.52 324.02,-30.92 362.36,-19.99"/>
<polygon fill="#63b8ff" stroke="#63b8ff" points="363.38,-23.34 372.04,-17.23 361.46,-16.61 363.38,-23.34"/>
</a>
</g>
</g>
<!-- Node14&#45;&gt;Node7 -->
<g id="edge22_Node000014_Node000007" class="edge">
<title>Node14&#45;&gt;Node7</title>
<g id="a_edge22_Node000014_Node000007"><a xlink:title=" ">
<path fill="none" stroke="#63b8ff" d="M189.01,-57.32C159.17,-48.38 103.61,-31.74 67.39,-20.9"/>
<polygon fill="#63b8ff" stroke="#63b8ff" points="68.31,-17.52 57.73,-18.01 66.31,-24.23 68.31,-17.52"/>
</a>
</g>
</g>
<!-- Node14&#45;&gt;Node13 -->
<g id="edge23_Node000014_Node000013" class="edge">
<title>Node14&#45;&gt;Node13</title>
<g id="a_edge23_Node000014_Node000013"><a xlink:title=" ">
<path fill="none" stroke="#63b8ff" d="M228.3,-54.98C246.96,-46.46 275.92,-33.23 297.4,-23.41"/>
<polygon fill="#63b8ff" stroke="#63b8ff" points="299.05,-26.51 306.69,-19.17 296.14,-20.14 299.05,-26.51"/>
</a>
</g>
</g>
<!-- Node15 -->
<g id="Node000015" class="node">
<title>Node15</title>
<g id="a_Node000015"><a xlink:title=" ">
<polygon fill="#e0e0e0" stroke="#999999" points="200.17,-19 159.17,-19 159.17,0 200.17,0 200.17,-19"/>
<text text-anchor="middle" x="179.67" y="-7" font-family="Helvetica,sans-Serif" font-size="10.00">tuple</text>
</a>
</g>
</g>
<!-- Node14&#45;&gt;Node15 -->
<g id="edge19_Node000014_Node000015" class="edge">
<title>Node14&#45;&gt;Node15</title>
<g id="a_edge19_Node000014_Node000015"><a xlink:title=" ">
<path fill="none" stroke="#63b8ff" d="M204.71,-54.75C200.6,-47.49 194.64,-36.95 189.56,-27.98"/>
<polygon fill="#63b8ff" stroke="#63b8ff" points="192.5,-26.07 184.53,-19.09 186.41,-29.52 192.5,-26.07"/>
</a>
</g>
</g>
<!-- Node16 -->
<g id="Node000016" class="node">
<title>Node16</title>
<g id="a_Node000016"><a xlink:title=" ">
<polygon fill="#e0e0e0" stroke="#999999" points="278.67,-19 218.67,-19 218.67,0 278.67,0 278.67,-19"/>
<text text-anchor="middle" x="248.67" y="-7" font-family="Helvetica,sans-Serif" font-size="10.00">concepts</text>
</a>
</g>
</g>
<!-- Node14&#45;&gt;Node16 -->
<g id="edge20_Node000014_Node000016" class="edge">
<title>Node14&#45;&gt;Node16</title>
<g id="a_edge20_Node000014_Node000016"><a xlink:title=" ">
<path fill="none" stroke="#63b8ff" d="M216.11,-54.75C221.56,-47.34 229.53,-36.5 236.22,-27.41"/>
<polygon fill="#63b8ff" stroke="#63b8ff" points="239.24,-29.22 242.34,-19.09 233.6,-25.07 239.24,-29.22"/>
</a>
</g>
</g>
<!-- Node17 -->
<g id="Node000017" class="node">
<title>Node17</title>
<g id="a_Node000017"><a xlink:title=" ">
<polygon fill="#e0e0e0" stroke="#999999" points="141.17,-19 76.17,-19 76.17,0 141.17,0 141.17,-19"/>
<text text-anchor="middle" x="108.67" y="-7" font-family="Helvetica,sans-Serif" font-size="10.00">stdexcept</text>
</a>
</g>
</g>
<!-- Node14&#45;&gt;Node17 -->
<g id="edge21_Node000014_Node000017" class="edge">
<title>Node14&#45;&gt;Node17</title>
<g id="a_edge21_Node000014_Node000017"><a xlink:title=" ">
<path fill="none" stroke="#63b8ff" d="M193.44,-54.98C177.48,-46.61 152.89,-33.7 134.29,-23.95"/>
<polygon fill="#63b8ff" stroke="#63b8ff" points="135.67,-20.72 125.19,-19.17 132.42,-26.92 135.67,-20.72"/>
</a>
</g>
</g>
<!-- Node18&#45;&gt;Node3 -->
<g id="edge25_Node000018_Node000003" class="edge">
<title>Node18&#45;&gt;Node3</title>
<g id="a_edge25_Node000018_Node000003"><a xlink:title=" ">
<path fill="none" stroke="#63b8ff" d="M734.1,-109.87C760.21,-98.53 797.72,-77.41 780.67,-55 765.16,-34.63 694.48,-21.19 652.09,-14.81"/>
<polygon fill="#63b8ff" stroke="#63b8ff" points="652.37,-11.32 641.97,-13.34 651.37,-18.24 652.37,-11.32"/>
</a>
</g>
</g>
<!-- Node19 -->
<g id="Node000019" class="node">
<title>Node19</title>
<g id="a_Node000019"><a xlink:title=" ">
<polygon fill="#e0e0e0" stroke="#999999" points="771.67,-74 721.67,-74 721.67,-55 771.67,-55 771.67,-74"/>
<text text-anchor="middle" x="746.67" y="-62" font-family="Helvetica,sans-Serif" font-size="10.00">chrono</text>
</a>
</g>
</g>
<!-- Node18&#45;&gt;Node19 -->
<g id="edge26_Node000018_Node000019" class="edge">
<title>Node18&#45;&gt;Node19</title>
<g id="a_edge26_Node000018_Node000019"><a xlink:title=" ">
<path fill="none" stroke="#63b8ff" d="M717.44,-109.75C722.29,-102.42 729.34,-91.73 735.31,-82.7"/>
<polygon fill="#63b8ff" stroke="#63b8ff" points="738.4,-84.36 740.99,-74.09 732.56,-80.5 738.4,-84.36"/>
</a>
</g>
</g>
<!-- Node20&#45;&gt;Node3 -->
<g id="edge28_Node000020_Node000003" class="edge">
<title>Node20&#45;&gt;Node3</title>
<g id="a_edge28_Node000020_Node000003"><a xlink:title=" ">
<path fill="none" stroke="#63b8ff" d="M882.91,-109.84C900.68,-97.18 928.29,-73.17 912.67,-55 879.32,-16.2 720.98,-10.83 651.95,-10.36"/>
<polygon fill="#63b8ff" stroke="#63b8ff" points="651.69,-6.86 641.68,-10.33 651.66,-13.86 651.69,-6.86"/>
</a>
</g>
</g>
<!-- Node20&#45;&gt;Node12 -->
<g id="edge29_Node000020_Node000012" class="edge">
<title>Node20&#45;&gt;Node12</title>
<g id="a_edge29_Node000020_Node000012"><a xlink:title=" ">
<path fill="none" stroke="#63b8ff" d="M838.5,-109.98C804.52,-100.7 750.15,-85.85 713.69,-75.89"/>
<polygon fill="#63b8ff" stroke="#63b8ff" points="714.49,-72.48 703.92,-73.22 712.64,-79.23 714.49,-72.48"/>
</a>
</g>
</g>
<!-- Node21 -->
<g id="Node000021" class="node">
<title>Node21</title>
<g id="a_Node000021"><a xlink:href="field__base_8h.html" target="_top" xlink:title=" ">
<polygon fill="white" stroke="#666666" points="903.17,-74 828.17,-74 828.17,-55 903.17,-55 903.17,-74"/>
<text text-anchor="middle" x="865.67" y="-62" font-family="Helvetica,sans-Serif" font-size="10.00">field_base.h</text>
</a>
</g>
</g>
<!-- Node20&#45;&gt;Node21 -->
<g id="edge30_Node000020_Node000021" class="edge">
<title>Node20&#45;&gt;Node21</title>
<g id="a_edge30_Node000020_Node000021"><a xlink:title=" ">
<path fill="none" stroke="#63b8ff" d="M869,-109.75C868.48,-102.8 867.73,-92.85 867.07,-84.13"/>
<polygon fill="#63b8ff" stroke="#63b8ff" points="870.56,-83.8 866.31,-74.09 863.58,-84.32 870.56,-83.8"/>
</a>
</g>
</g>
<!-- Node21&#45;&gt;Node3 -->
<g id="edge31_Node000021_Node000003" class="edge">
<title>Node21&#45;&gt;Node3</title>
<g id="a_edge31_Node000021_Node000003"><a xlink:title=" ">
<path fill="none" stroke="#63b8ff" d="M828.04,-55.39C779.84,-45.01 697.13,-27.19 651.76,-17.41"/>
<polygon fill="#63b8ff" stroke="#63b8ff" points="652.39,-13.97 641.87,-15.28 650.91,-20.81 652.39,-13.97"/>
</a>
</g>
</g>
<!-- Node22&#45;&gt;Node2 -->
<g id="edge34_Node000022_Node000002" class="edge">
<title>Node22&#45;&gt;Node2</title>
<g id="a_edge34_Node000022_Node000002"><a xlink:title=" ">
<path fill="none" stroke="#63b8ff" d="M184.6,-109.98C158.64,-101.16 117.86,-87.31 88.71,-77.41"/>
<polygon fill="#63b8ff" stroke="#63b8ff" points="89.52,-73.99 78.93,-74.08 87.27,-80.61 89.52,-73.99"/>
</a>
</g>
</g>
<!-- Node22&#45;&gt;Node3 -->
<g id="edge35_Node000022_Node000003" class="edge">
<title>Node22&#45;&gt;Node3</title>
<g id="a_edge35_Node000022_Node000003"><a xlink:title=" ">
<path fill="none" stroke="#63b8ff" d="M225.58,-109.9C251.6,-96.19 305.24,-69.48 353.67,-55 435.96,-30.39 536.91,-18.2 587.51,-13.27"/>
<polygon fill="#63b8ff" stroke="#63b8ff" points="587.9,-16.75 597.52,-12.32 587.24,-9.78 587.9,-16.75"/>
</a>
</g>
</g>
<!-- Node22&#45;&gt;Node7 -->
<g id="edge36_Node000022_Node000007" class="edge">
<title>Node22&#45;&gt;Node7</title>
<g id="a_edge36_Node000022_Node000007"><a xlink:title=" ">
<path fill="none" stroke="#63b8ff" d="M195.48,-109.84C164.93,-91.2 92.67,-47.11 55.55,-24.46"/>
<polygon fill="#63b8ff" stroke="#63b8ff" points="57.28,-21.42 46.92,-19.2 53.63,-27.39 57.28,-21.42"/>
</a>
</g>
</g>
<!-- Node22&#45;&gt;Node14 -->
<g id="edge33_Node000022_Node000014" class="edge">
<title>Node22&#45;&gt;Node14</title>
<g id="a_edge33_Node000022_Node000014"><a xlink:title=" ">
<path fill="none" stroke="#63b8ff" d="M209.67,-109.75C209.67,-102.8 209.67,-92.85 209.67,-84.13"/>
<polygon fill="#63b8ff" stroke="#63b8ff" points="213.17,-84.09 209.67,-74.09 206.17,-84.09 213.17,-84.09"/>
</a>
</g>
</g>
</g>
</svg>
