<?xml version="1.0" encoding="UTF-8" standalone="no"?>
<!DOCTYPE svg PUBLIC "-//W3C//DTD SVG 1.1//EN"
 "http://www.w3.org/Graphics/SVG/1.1/DTD/svg11.dtd">
<!-- Generated by graphviz version 2.43.0 (0)
 -->
<!-- Title: /home/runner/work/webcface/webcface/message/src/message.cc Pages: 1 -->
<svg width="1410pt" height="335pt"
 viewBox="0.00 0.00 1409.77 335.00" xmlns="http://www.w3.org/2000/svg" xmlns:xlink="http://www.w3.org/1999/xlink">
<g id="graph0" class="graph" transform="scale(1 1) rotate(0) translate(4 331)">
<title>/home/runner/work/webcface/webcface/message/src/message.cc</title>
<!-- Node1 -->
<g id="Node000001" class="node">
<title>Node1</title>
<g id="a_Node000001"><a xlink:title=" ">
<polygon fill="#999999" stroke="#666666" points="1185.77,-327 994.77,-327 994.77,-297 1185.77,-297 1185.77,-327"/>
<text text-anchor="start" x="1002.77" y="-315" font-family="Helvetica,sans-Serif" font-size="10.00">/home/runner/work/webcface</text>
<text text-anchor="middle" x="1090.27" y="-304" font-family="Helvetica,sans-Serif" font-size="10.00">/webcface/message/src/message.cc</text>
</a>
</g>
</g>
<!-- Node2 -->
<g id="Node000002" class="node">
<title>Node2</title>
<g id="a_Node000002"><a xlink:href="message_8h.html" target="_top" xlink:title=" ">
<polygon fill="white" stroke="#666666" points="1109.77,-261 942.77,-261 942.77,-242 1109.77,-242 1109.77,-261"/>
<text text-anchor="middle" x="1026.27" y="-249" font-family="Helvetica,sans-Serif" font-size="10.00">webcface/message/message.h</text>
</a>
</g>
</g>
<!-- Node1&#45;&gt;Node2 -->
<g id="edge1_Node000001_Node000002" class="edge">
<title>Node1&#45;&gt;Node2</title>
<g id="a_edge1_Node000001_Node000002"><a xlink:title=" ">
<path fill="none" stroke="#63b8ff" d="M1074.78,-296.84C1065.3,-288.17 1053.16,-277.08 1043.4,-268.15"/>
<polygon fill="#63b8ff" stroke="#63b8ff" points="1045.61,-265.43 1035.86,-261.27 1040.88,-270.6 1045.61,-265.43"/>
</a>
</g>
</g>
<!-- Node28 -->
<g id="Node000028" class="node">
<title>Node28</title>
<g id="a_Node000028"><a xlink:title=" ">
<polygon fill="#e0e0e0" stroke="#999999" points="1183.27,-261 1127.27,-261 1127.27,-242 1183.27,-242 1183.27,-261"/>
<text text-anchor="middle" x="1155.27" y="-249" font-family="Helvetica,sans-Serif" font-size="10.00">sstream</text>
</a>
</g>
</g>
<!-- Node1&#45;&gt;Node28 -->
<g id="edge43_Node000001_Node000028" class="edge">
<title>Node1&#45;&gt;Node28</title>
<g id="a_edge43_Node000001_Node000028"><a xlink:title=" ">
<path fill="none" stroke="#63b8ff" d="M1106.01,-296.84C1115.64,-288.17 1127.97,-277.08 1137.88,-268.15"/>
<polygon fill="#63b8ff" stroke="#63b8ff" points="1140.44,-270.56 1145.53,-261.27 1135.76,-265.35 1140.44,-270.56"/>
</a>
</g>
</g>
<!-- Node3 -->
<g id="Node000003" class="node">
<title>Node3</title>
<g id="a_Node000003"><a xlink:title=" ">
<polygon fill="#e0e0e0" stroke="#999999" points="1104.27,-74 1022.27,-74 1022.27,-55 1104.27,-55 1104.27,-74"/>
<text text-anchor="middle" x="1063.27" y="-62" font-family="Helvetica,sans-Serif" font-size="10.00">msgpack.hpp</text>
</a>
</g>
</g>
<!-- Node2&#45;&gt;Node3 -->
<g id="edge2_Node000002_Node000003" class="edge">
<title>Node2&#45;&gt;Node3</title>
<g id="a_edge2_Node000002_Node000003"><a xlink:title=" ">
<path fill="none" stroke="#63b8ff" d="M1028.06,-241.58C1033.77,-213.01 1051.7,-123.36 1059.54,-84.16"/>
<polygon fill="#63b8ff" stroke="#63b8ff" points="1062.98,-84.83 1061.51,-74.33 1056.11,-83.45 1062.98,-84.83"/>
</a>
</g>
</g>
<!-- Node4 -->
<g id="Node000004" class="node">
<title>Node4</title>
<g id="a_Node000004"><a xlink:title=" ">
<polygon fill="#e0e0e0" stroke="#999999" points="901.27,-19 857.27,-19 857.27,0 901.27,0 901.27,-19"/>
<text text-anchor="middle" x="879.27" y="-7" font-family="Helvetica,sans-Serif" font-size="10.00">string</text>
</a>
</g>
</g>
<!-- Node2&#45;&gt;Node4 -->
<g id="edge3_Node000002_Node000004" class="edge">
<title>Node2&#45;&gt;Node4</title>
<g id="a_edge3_Node000002_Node000004"><a xlink:title=" ">
<path fill="none" stroke="#63b8ff" d="M1036.17,-241.8C1068.22,-212.6 1164.2,-116.53 1113.27,-55 1088.02,-24.49 969.52,-14.72 911.47,-11.74"/>
<polygon fill="#63b8ff" stroke="#63b8ff" points="911.53,-8.24 901.38,-11.26 911.2,-15.23 911.53,-8.24"/>
</a>
</g>
</g>
<!-- Node5 -->
<g id="Node000005" class="node">
<title>Node5</title>
<g id="a_Node000005"><a xlink:title=" ">
<polygon fill="#e0e0e0" stroke="#999999" points="1174.77,-200.5 1129.77,-200.5 1129.77,-181.5 1174.77,-181.5 1174.77,-200.5"/>
<text text-anchor="middle" x="1152.27" y="-188.5" font-family="Helvetica,sans-Serif" font-size="10.00">utility</text>
</a>
</g>
</g>
<!-- Node2&#45;&gt;Node5 -->
<g id="edge4_Node000002_Node000005" class="edge">
<title>Node2&#45;&gt;Node5</title>
<g id="a_edge4_Node000002_Node000005"><a xlink:title=" ">
<path fill="none" stroke="#63b8ff" d="M1044.59,-241.99C1065.68,-232.2 1100.54,-216.02 1124.86,-204.73"/>
<polygon fill="#63b8ff" stroke="#63b8ff" points="1126.33,-207.9 1133.93,-200.52 1123.39,-201.55 1126.33,-207.9"/>
</a>
</g>
</g>
<!-- Node6 -->
<g id="Node000006" class="node">
<title>Node6</title>
<g id="a_Node000006"><a xlink:title=" ">
<polygon fill="#e0e0e0" stroke="#999999" points="250.77,-74 203.77,-74 203.77,-55 250.77,-55 250.77,-74"/>
<text text-anchor="middle" x="227.27" y="-62" font-family="Helvetica,sans-Serif" font-size="10.00">vector</text>
</a>
</g>
</g>
<!-- Node2&#45;&gt;Node6 -->
<g id="edge5_Node000002_Node000006" class="edge">
<title>Node2&#45;&gt;Node6</title>
<g id="a_edge5_Node000002_Node000006"><a xlink:title=" ">
<path fill="none" stroke="#63b8ff" d="M942.47,-246.92C850.14,-241.93 697.58,-230.54 568.27,-206 463.37,-186.09 434.02,-185.17 337.27,-140 302.53,-123.78 266.52,-97.21 245.54,-80.57"/>
<polygon fill="#63b8ff" stroke="#63b8ff" points="247.5,-77.65 237.52,-74.11 243.11,-83.1 247.5,-77.65"/>
</a>
</g>
</g>
<!-- Node7 -->
<g id="Node000007" class="node">
<title>Node7</title>
<g id="a_Node000007"><a xlink:title=" ">
<polygon fill="#e0e0e0" stroke="#999999" points="1239.77,-200.5 1192.77,-200.5 1192.77,-181.5 1239.77,-181.5 1239.77,-200.5"/>
<text text-anchor="middle" x="1216.27" y="-188.5" font-family="Helvetica,sans-Serif" font-size="10.00">deque</text>
</a>
</g>
</g>
<!-- Node2&#45;&gt;Node7 -->
<g id="edge6_Node000002_Node000007" class="edge">
<title>Node2&#45;&gt;Node7</title>
<g id="a_edge6_Node000002_Node000007"><a xlink:title=" ">
<path fill="none" stroke="#63b8ff" d="M1061.85,-241.97C1094.17,-233.88 1142.95,-220.78 1184.27,-206 1185.67,-205.5 1187.08,-204.97 1188.51,-204.42"/>
<polygon fill="#63b8ff" stroke="#63b8ff" points="1189.92,-207.62 1197.83,-200.58 1187.26,-201.15 1189.92,-207.62"/>
</a>
</g>
</g>
<!-- Node8 -->
<g id="Node000008" class="node">
<title>Node8</title>
<g id="a_Node000008"><a xlink:title=" ">
<polygon fill="#e0e0e0" stroke="#999999" points="1292.77,-200.5 1257.77,-200.5 1257.77,-181.5 1292.77,-181.5 1292.77,-200.5"/>
<text text-anchor="middle" x="1275.27" y="-188.5" font-family="Helvetica,sans-Serif" font-size="10.00">any</text>
</a>
</g>
</g>
<!-- Node2&#45;&gt;Node8 -->
<g id="edge7_Node000002_Node000008" class="edge">
<title>Node2&#45;&gt;Node8</title>
<g id="a_edge7_Node000002_Node000008"><a xlink:title=" ">
<path fill="none" stroke="#63b8ff" d="M1096.28,-241.98C1140.95,-235.22 1199.59,-223.88 1249.27,-206 1250.14,-205.69 1251.01,-205.35 1251.88,-205"/>
<polygon fill="#63b8ff" stroke="#63b8ff" points="1253.52,-208.09 1261.05,-200.64 1250.52,-201.77 1253.52,-208.09"/>
</a>
</g>
</g>
<!-- Node9 -->
<g id="Node000009" class="node">
<title>Node9</title>
<g id="a_Node000009"><a xlink:title=" ">
<polygon fill="#e0e0e0" stroke="#999999" points="147.27,-74 97.27,-74 97.27,-55 147.27,-55 147.27,-74"/>
<text text-anchor="middle" x="122.27" y="-62" font-family="Helvetica,sans-Serif" font-size="10.00">cstdint</text>
</a>
</g>
</g>
<!-- Node2&#45;&gt;Node9 -->
<g id="edge8_Node000002_Node000009" class="edge">
<title>Node2&#45;&gt;Node9</title>
<g id="a_edge8_Node000002_Node000009"><a xlink:title=" ">
<path fill="none" stroke="#63b8ff" d="M942.72,-248.04C801.08,-243.24 519.87,-230.86 424.27,-206 313.57,-177.21 193.63,-109.02 144.83,-79.51"/>
<polygon fill="#63b8ff" stroke="#63b8ff" points="146.4,-76.37 136.04,-74.15 142.75,-82.35 146.4,-76.37"/>
</a>
</g>
</g>
<!-- Node10 -->
<g id="Node000010" class="node">
<title>Node10</title>
<g id="a_Node000010"><a xlink:title=" ">
<polygon fill="#e0e0e0" stroke="#999999" points="1401.77,-200.5 1310.77,-200.5 1310.77,-181.5 1401.77,-181.5 1401.77,-200.5"/>
<text text-anchor="middle" x="1356.27" y="-188.5" font-family="Helvetica,sans-Serif" font-size="10.00">spdlog/logger.h</text>
</a>
</g>
</g>
<!-- Node2&#45;&gt;Node10 -->
<g id="edge9_Node000002_Node000010" class="edge">
<title>Node2&#45;&gt;Node10</title>
<g id="a_edge9_Node000002_Node000010"><a xlink:title=" ">
<path fill="none" stroke="#63b8ff" d="M1089.89,-241.97C1146.03,-234.04 1229.95,-221.17 1302.27,-206 1306.49,-205.12 1310.86,-204.12 1315.22,-203.07"/>
<polygon fill="#63b8ff" stroke="#63b8ff" points="1316.41,-206.38 1325.27,-200.57 1314.72,-199.59 1316.41,-206.38"/>
</a>
</g>
</g>
<!-- Node11 -->
<g id="Node000011" class="node">
<title>Node11</title>
<g id="a_Node000011"><a xlink:href="def_8h.html" target="_top" xlink:title=" ">
<polygon fill="white" stroke="#666666" points="295.27,-19 159.27,-19 159.27,0 295.27,0 295.27,-19"/>
<text text-anchor="middle" x="227.27" y="-7" font-family="Helvetica,sans-Serif" font-size="10.00">webcface/common/def.h</text>
</a>
</g>
</g>
<!-- Node2&#45;&gt;Node11 -->
<g id="edge10_Node000002_Node000011" class="edge">
<title>Node2&#45;&gt;Node11</title>
<g id="a_edge10_Node000002_Node000011"><a xlink:title=" ">
<path fill="none" stroke="#63b8ff" d="M942.54,-251.1C749.97,-251.7 280.58,-248.6 129.27,-206 70.31,-189.4 39.54,-192.68 8.27,-140 -31.32,-73.3 86.47,-37.17 164.34,-21.06"/>
<polygon fill="#63b8ff" stroke="#63b8ff" points="165.46,-24.4 174.57,-19.01 164.08,-17.54 165.46,-24.4"/>
</a>
</g>
</g>
<!-- Node12 -->
<g id="Node000012" class="node">
<title>Node12</title>
<g id="a_Node000012"><a xlink:href="u8string_8h.html" target="_top" xlink:title=" ">
<polygon fill="white" stroke="#666666" points="997.27,-134.5 835.27,-134.5 835.27,-115.5 997.27,-115.5 997.27,-134.5"/>
<text text-anchor="middle" x="916.27" y="-122.5" font-family="Helvetica,sans-Serif" font-size="10.00">webcface/message/u8string.h</text>
</a>
</g>
</g>
<!-- Node2&#45;&gt;Node12 -->
<g id="edge11_Node000002_Node000012" class="edge">
<title>Node2&#45;&gt;Node12</title>
<g id="a_edge11_Node000002_Node000012"><a xlink:title=" ">
<path fill="none" stroke="#63b8ff" d="M1018.71,-241.94C1000.58,-221.42 954.37,-169.12 930.71,-142.34"/>
<polygon fill="#63b8ff" stroke="#63b8ff" points="933.13,-139.79 923.89,-134.62 927.89,-144.43 933.13,-139.79"/>
</a>
</g>
</g>
<!-- Node20 -->
<g id="Node000020" class="node">
<title>Node20</title>
<g id="a_Node000020"><a xlink:href="message_2include_2webcface_2message_2val__adaptor_8h.html" target="_top" xlink:title=" ">
<polygon fill="white" stroke="#666666" points="705.27,-206 577.27,-206 577.27,-176 705.27,-176 705.27,-206"/>
<text text-anchor="start" x="585.27" y="-194" font-family="Helvetica,sans-Serif" font-size="10.00">webcface/message/val</text>
<text text-anchor="middle" x="641.27" y="-183" font-family="Helvetica,sans-Serif" font-size="10.00">_adaptor.h</text>
</a>
</g>
</g>
<!-- Node2&#45;&gt;Node20 -->
<g id="edge24_Node000002_Node000020" class="edge">
<title>Node2&#45;&gt;Node20</title>
<g id="a_edge24_Node000002_Node000020"><a xlink:title=" ">
<path fill="none" stroke="#63b8ff" d="M970.29,-241.99C903.07,-231.78 790.08,-214.61 715.59,-203.29"/>
<polygon fill="#63b8ff" stroke="#63b8ff" points="715.76,-199.78 705.35,-201.74 714.71,-206.7 715.76,-199.78"/>
</a>
</g>
</g>
<!-- Node27 -->
<g id="Node000027" class="node">
<title>Node27</title>
<g id="a_Node000027"><a xlink:href="image__mode_8h.html" target="_top" xlink:title=" ">
<polygon fill="white" stroke="#666666" points="161.27,-140 17.27,-140 17.27,-110 161.27,-110 161.27,-140"/>
<text text-anchor="start" x="25.27" y="-128" font-family="Helvetica,sans-Serif" font-size="10.00">webcface/encoding/image</text>
<text text-anchor="middle" x="89.27" y="-117" font-family="Helvetica,sans-Serif" font-size="10.00">_mode.h</text>
</a>
</g>
</g>
<!-- Node2&#45;&gt;Node27 -->
<g id="edge41_Node000002_Node000027" class="edge">
<title>Node2&#45;&gt;Node27</title>
<g id="a_edge41_Node000002_Node000027"><a xlink:title=" ">
<path fill="none" stroke="#63b8ff" d="M942.7,-249.36C742.06,-246.18 244.62,-235.38 175.27,-206 146.32,-193.73 121.05,-167.22 105.53,-148.08"/>
<polygon fill="#63b8ff" stroke="#63b8ff" points="108.22,-145.84 99.29,-140.13 102.71,-150.16 108.22,-145.84"/>
</a>
</g>
</g>
<!-- Node12&#45;&gt;Node3 -->
<g id="edge21_Node000012_Node000003" class="edge">
<title>Node12&#45;&gt;Node3</title>
<g id="a_edge21_Node000012_Node000003"><a xlink:title=" ">
<path fill="none" stroke="#63b8ff" d="M937.65,-115.49C962.58,-105.57 1003.99,-89.09 1032.41,-77.78"/>
<polygon fill="#63b8ff" stroke="#63b8ff" points="1033.88,-80.97 1041.87,-74.02 1031.29,-74.46 1033.88,-80.97"/>
</a>
</g>
</g>
<!-- Node12&#45;&gt;Node4 -->
<g id="edge22_Node000012_Node000004" class="edge">
<title>Node12&#45;&gt;Node4</title>
<g id="a_edge22_Node000012_Node000004"><a xlink:title=" ">
<path fill="none" stroke="#63b8ff" d="M913.49,-115.47C907.52,-97.15 893.35,-53.68 885.24,-28.81"/>
<polygon fill="#63b8ff" stroke="#63b8ff" points="888.51,-27.55 882.09,-19.13 881.86,-29.72 888.51,-27.55"/>
</a>
</g>
</g>
<!-- Node12&#45;&gt;Node11 -->
<g id="edge23_Node000012_Node000011" class="edge">
<title>Node12&#45;&gt;Node11</title>
<g id="a_edge23_Node000012_Node000011"><a xlink:title=" ">
<path fill="none" stroke="#63b8ff" d="M835.06,-116.67C774.51,-109.7 690.36,-96.77 619.27,-74 600.91,-68.12 598.75,-60.5 580.27,-55 488.44,-27.66 378.29,-17.11 305.74,-13.05"/>
<polygon fill="#63b8ff" stroke="#63b8ff" points="305.48,-9.53 295.31,-12.49 305.11,-16.52 305.48,-9.53"/>
</a>
</g>
</g>
<!-- Node13 -->
<g id="Node000013" class="node">
<title>Node13</title>
<g id="a_Node000013"><a xlink:title=" ">
<polygon fill="#e0e0e0" stroke="#999999" points="1003.77,-74 926.77,-74 926.77,-55 1003.77,-55 1003.77,-74"/>
<text text-anchor="middle" x="965.27" y="-62" font-family="Helvetica,sans-Serif" font-size="10.00">utf8/cpp20.h</text>
</a>
</g>
</g>
<!-- Node12&#45;&gt;Node13 -->
<g id="edge12_Node000012_Node000013" class="edge">
<title>Node12&#45;&gt;Node13</title>
<g id="a_edge12_Node000012_Node000013"><a xlink:title=" ">
<path fill="none" stroke="#63b8ff" d="M923.5,-115.37C930.81,-106.64 942.3,-92.93 951.37,-82.09"/>
<polygon fill="#63b8ff" stroke="#63b8ff" points="954.28,-84.08 958.01,-74.17 948.91,-79.59 954.28,-84.08"/>
</a>
</g>
</g>
<!-- Node14 -->
<g id="Node000014" class="node">
<title>Node14</title>
<g id="a_Node000014"><a xlink:href="encoding_8h.html" target="_top" xlink:title=" ">
<polygon fill="white" stroke="#666666" points="794.77,-74 627.77,-74 627.77,-55 794.77,-55 794.77,-74"/>
<text text-anchor="middle" x="711.27" y="-62" font-family="Helvetica,sans-Serif" font-size="10.00">webcface/encoding/encoding.h</text>
</a>
</g>
</g>
<!-- Node12&#45;&gt;Node14 -->
<g id="edge13_Node000012_Node000014" class="edge">
<title>Node12&#45;&gt;Node14</title>
<g id="a_edge13_Node000012_Node000014"><a xlink:title=" ">
<path fill="none" stroke="#63b8ff" d="M886.46,-115.49C850.71,-105.29 790.64,-88.15 750.98,-76.83"/>
<polygon fill="#63b8ff" stroke="#63b8ff" points="751.69,-73.4 741.12,-74.02 749.77,-80.13 751.69,-73.4"/>
</a>
</g>
</g>
<!-- Node14&#45;&gt;Node4 -->
<g id="edge14_Node000014_Node000004" class="edge">
<title>Node14&#45;&gt;Node4</title>
<g id="a_edge14_Node000014_Node000004"><a xlink:title=" ">
<path fill="none" stroke="#63b8ff" d="M738.27,-54.98C768.06,-45.58 815.98,-30.47 847.54,-20.51"/>
<polygon fill="#63b8ff" stroke="#63b8ff" points="848.69,-23.82 857.18,-17.47 846.59,-17.14 848.69,-23.82"/>
</a>
</g>
</g>
<!-- Node14&#45;&gt;Node11 -->
<g id="edge20_Node000014_Node000011" class="edge">
<title>Node14&#45;&gt;Node11</title>
<g id="a_edge20_Node000014_Node000011"><a xlink:title=" ">
<path fill="none" stroke="#63b8ff" d="M633.51,-54.98C543.45,-45.12 395.95,-28.97 305.64,-19.08"/>
<polygon fill="#63b8ff" stroke="#63b8ff" points="305.78,-15.58 295.46,-17.97 305.02,-22.53 305.78,-15.58"/>
</a>
</g>
</g>
<!-- Node15 -->
<g id="Node000015" class="node">
<title>Node15</title>
<g id="a_Node000015"><a xlink:title=" ">
<polygon fill="#e0e0e0" stroke="#999999" points="696.77,-19 623.77,-19 623.77,0 696.77,0 696.77,-19"/>
<text text-anchor="middle" x="660.27" y="-7" font-family="Helvetica,sans-Serif" font-size="10.00">string_view</text>
</a>
</g>
</g>
<!-- Node14&#45;&gt;Node15 -->
<g id="edge15_Node000014_Node000015" class="edge">
<title>Node14&#45;&gt;Node15</title>
<g id="a_edge15_Node000014_Node000015"><a xlink:title=" ">
<path fill="none" stroke="#63b8ff" d="M702.85,-54.75C695.5,-47.11 684.64,-35.82 675.73,-26.56"/>
<polygon fill="#63b8ff" stroke="#63b8ff" points="677.99,-23.87 668.54,-19.09 672.95,-28.72 677.99,-23.87"/>
</a>
</g>
</g>
<!-- Node16 -->
<g id="Node000016" class="node">
<title>Node16</title>
<g id="a_Node000016"><a xlink:title=" ">
<polygon fill="#e0e0e0" stroke="#999999" points="773.27,-19 715.27,-19 715.27,0 773.27,0 773.27,-19"/>
<text text-anchor="middle" x="744.27" y="-7" font-family="Helvetica,sans-Serif" font-size="10.00">memory</text>
</a>
</g>
</g>
<!-- Node14&#45;&gt;Node16 -->
<g id="edge16_Node000014_Node000016" class="edge">
<title>Node14&#45;&gt;Node16</title>
<g id="a_edge16_Node000014_Node000016"><a xlink:title=" ">
<path fill="none" stroke="#63b8ff" d="M716.72,-54.75C721.29,-47.42 727.94,-36.73 733.57,-27.7"/>
<polygon fill="#63b8ff" stroke="#63b8ff" points="736.61,-29.43 738.93,-19.09 730.67,-25.73 736.61,-29.43"/>
</a>
</g>
</g>
<!-- Node17 -->
<g id="Node000017" class="node">
<title>Node17</title>
<g id="a_Node000017"><a xlink:title=" ">
<polygon fill="#e0e0e0" stroke="#999999" points="839.27,-19 791.27,-19 791.27,0 839.27,0 839.27,-19"/>
<text text-anchor="middle" x="815.27" y="-7" font-family="Helvetica,sans-Serif" font-size="10.00">mutex</text>
</a>
</g>
</g>
<!-- Node14&#45;&gt;Node17 -->
<g id="edge17_Node000014_Node000017" class="edge">
<title>Node14&#45;&gt;Node17</title>
<g id="a_edge17_Node000014_Node000017"><a xlink:title=" ">
<path fill="none" stroke="#63b8ff" d="M727.98,-54.98C744.49,-46.57 769.97,-33.59 789.15,-23.81"/>
<polygon fill="#63b8ff" stroke="#63b8ff" points="790.94,-26.83 798.26,-19.17 787.76,-20.59 790.94,-26.83"/>
</a>
</g>
</g>
<!-- Node18 -->
<g id="Node000018" class="node">
<title>Node18</title>
<g id="a_Node000018"><a xlink:title=" ">
<polygon fill="#e0e0e0" stroke="#999999" points="500.77,-19 407.77,-19 407.77,0 500.77,0 500.77,-19"/>
<text text-anchor="middle" x="454.27" y="-7" font-family="Helvetica,sans-Serif" font-size="10.00">unordered_map</text>
</a>
</g>
</g>
<!-- Node14&#45;&gt;Node18 -->
<g id="edge18_Node000014_Node000018" class="edge">
<title>Node14&#45;&gt;Node18</title>
<g id="a_edge18_Node000014_Node000018"><a xlink:title=" ">
<path fill="none" stroke="#63b8ff" d="M669.98,-54.98C625.34,-45.78 554.11,-31.09 505.83,-21.13"/>
<polygon fill="#63b8ff" stroke="#63b8ff" points="506.39,-17.67 495.89,-19.08 504.98,-24.53 506.39,-17.67"/>
</a>
</g>
</g>
<!-- Node19 -->
<g id="Node000019" class="node">
<title>Node19</title>
<g id="a_Node000019"><a xlink:title=" ">
<polygon fill="#e0e0e0" stroke="#999999" points="605.27,-19 519.27,-19 519.27,0 605.27,0 605.27,-19"/>
<text text-anchor="middle" x="562.27" y="-7" font-family="Helvetica,sans-Serif" font-size="10.00">unordered_set</text>
</a>
</g>
</g>
<!-- Node14&#45;&gt;Node19 -->
<g id="edge19_Node000014_Node000019" class="edge">
<title>Node14&#45;&gt;Node19</title>
<g id="a_edge19_Node000014_Node000019"><a xlink:title=" ">
<path fill="none" stroke="#63b8ff" d="M687.33,-54.98C662.72,-46.23 624.15,-32.51 596.36,-22.62"/>
<polygon fill="#63b8ff" stroke="#63b8ff" points="597.24,-19.22 586.65,-19.17 594.9,-25.82 597.24,-19.22"/>
</a>
</g>
</g>
<!-- Node20&#45;&gt;Node3 -->
<g id="edge35_Node000020_Node000003" class="edge">
<title>Node20&#45;&gt;Node3</title>
<g id="a_edge35_Node000020_Node000003"><a xlink:title=" ">
<path fill="none" stroke="#63b8ff" d="M705.52,-187.05C796.28,-181.91 956.52,-168.95 1006.27,-140 1028.87,-126.86 1045.53,-100.91 1054.83,-83.38"/>
<polygon fill="#63b8ff" stroke="#63b8ff" points="1058.08,-84.7 1059.43,-74.19 1051.82,-81.56 1058.08,-84.7"/>
</a>
</g>
</g>
<!-- Node20&#45;&gt;Node4 -->
<g id="edge36_Node000020_Node000004" class="edge">
<title>Node20&#45;&gt;Node4</title>
<g id="a_edge36_Node000020_Node000004"><a xlink:title=" ">
<path fill="none" stroke="#63b8ff" d="M672.16,-175.93C712.09,-156.74 782.41,-119.5 832.27,-74 847.11,-60.46 860.35,-41.63 868.97,-27.99"/>
<polygon fill="#63b8ff" stroke="#63b8ff" points="872.16,-29.49 874.38,-19.13 866.18,-25.84 872.16,-29.49"/>
</a>
</g>
</g>
<!-- Node20&#45;&gt;Node9 -->
<g id="edge37_Node000020_Node000009" class="edge">
<title>Node20&#45;&gt;Node9</title>
<g id="a_edge37_Node000020_Node000009"><a xlink:title=" ">
<path fill="none" stroke="#63b8ff" d="M577.21,-186.27C505.8,-180.88 387.44,-168.27 289.27,-140 236.47,-124.79 178.72,-96.09 146.86,-79.1"/>
<polygon fill="#63b8ff" stroke="#63b8ff" points="148.3,-75.9 137.84,-74.22 144.97,-82.05 148.3,-75.9"/>
</a>
</g>
</g>
<!-- Node20&#45;&gt;Node11 -->
<g id="edge38_Node000020_Node000011" class="edge">
<title>Node20&#45;&gt;Node11</title>
<g id="a_edge38_Node000020_Node000011"><a xlink:title=" ">
<path fill="none" stroke="#63b8ff" d="M577.25,-184.53C514.93,-178.03 418.07,-164.79 337.27,-140 328.91,-137.43 198.99,-81.37 194.27,-74 184.4,-58.57 196.84,-39.86 209.17,-26.76"/>
<polygon fill="#63b8ff" stroke="#63b8ff" points="211.96,-28.92 216.63,-19.4 207.05,-23.93 211.96,-28.92"/>
</a>
</g>
</g>
<!-- Node20&#45;&gt;Node12 -->
<g id="edge40_Node000020_Node000012" class="edge">
<title>Node20&#45;&gt;Node12</title>
<g id="a_edge40_Node000020_Node000012"><a xlink:title=" ">
<path fill="none" stroke="#63b8ff" d="M701.62,-175.95C752.29,-164.16 823.63,-147.56 869.91,-136.79"/>
<polygon fill="#63b8ff" stroke="#63b8ff" points="870.73,-140.19 879.68,-134.52 869.14,-133.38 870.73,-140.19"/>
</a>
</g>
</g>
<!-- Node21 -->
<g id="Node000021" class="node">
<title>Node21</title>
<g id="a_Node000021"><a xlink:href="encoding_2include_2webcface_2encoding_2val__adaptor_8h.html" target="_top" xlink:title=" ">
<polygon fill="white" stroke="#666666" points="538.27,-140 410.27,-140 410.27,-110 538.27,-110 538.27,-140"/>
<text text-anchor="start" x="418.27" y="-128" font-family="Helvetica,sans-Serif" font-size="10.00">webcface/encoding/val</text>
<text text-anchor="middle" x="474.27" y="-117" font-family="Helvetica,sans-Serif" font-size="10.00">_adaptor.h</text>
</a>
</g>
</g>
<!-- Node20&#45;&gt;Node21 -->
<g id="edge25_Node000020_Node000021" class="edge">
<title>Node20&#45;&gt;Node21</title>
<g id="a_edge25_Node000020_Node000021"><a xlink:title=" ">
<path fill="none" stroke="#63b8ff" d="M604.62,-175.95C579.83,-166.45 546.88,-153.82 520.31,-143.64"/>
<polygon fill="#63b8ff" stroke="#63b8ff" points="521.43,-140.32 510.84,-140.01 518.92,-146.86 521.43,-140.32"/>
</a>
</g>
</g>
<!-- Node26 -->
<g id="Node000026" class="node">
<title>Node26</title>
<g id="a_Node000026"><a xlink:title=" ">
<polygon fill="#e0e0e0" stroke="#999999" points="391.77,-134.5 346.77,-134.5 346.77,-115.5 391.77,-115.5 391.77,-134.5"/>
<text text-anchor="middle" x="369.27" y="-122.5" font-family="Helvetica,sans-Serif" font-size="10.00">utf8.h</text>
</a>
</g>
</g>
<!-- Node20&#45;&gt;Node26 -->
<g id="edge39_Node000020_Node000026" class="edge">
<title>Node20&#45;&gt;Node26</title>
<g id="a_edge39_Node000020_Node000026"><a xlink:title=" ">
<path fill="none" stroke="#63b8ff" d="M577.18,-180.36C528.3,-172.12 459.66,-158.63 401.27,-140 399.64,-139.48 397.99,-138.91 396.33,-138.29"/>
<polygon fill="#63b8ff" stroke="#63b8ff" points="397.55,-135.01 386.96,-134.52 394.93,-141.5 397.55,-135.01"/>
</a>
</g>
</g>
<!-- Node21&#45;&gt;Node4 -->
<g id="edge26_Node000021_Node000004" class="edge">
<title>Node21&#45;&gt;Node4</title>
<g id="a_edge26_Node000021_Node000004"><a xlink:title=" ">
<path fill="none" stroke="#63b8ff" d="M538.29,-124.49C606.99,-122.75 717.89,-113.25 804.27,-74 828.65,-62.92 851.33,-41.56 865.22,-26.69"/>
<polygon fill="#63b8ff" stroke="#63b8ff" points="867.89,-28.97 872,-19.2 862.69,-24.27 867.89,-28.97"/>
</a>
</g>
</g>
<!-- Node21&#45;&gt;Node6 -->
<g id="edge27_Node000021_Node000006" class="edge">
<title>Node21&#45;&gt;Node6</title>
<g id="a_edge27_Node000021_Node000006"><a xlink:title=" ">
<path fill="none" stroke="#63b8ff" d="M415.11,-109.99C366.9,-98.57 300.54,-82.85 260.96,-73.48"/>
<polygon fill="#63b8ff" stroke="#63b8ff" points="261.56,-70.02 251.03,-71.13 259.95,-76.84 261.56,-70.02"/>
</a>
</g>
</g>
<!-- Node21&#45;&gt;Node9 -->
<g id="edge30_Node000021_Node000009" class="edge">
<title>Node21&#45;&gt;Node9</title>
<g id="a_edge30_Node000021_Node000009"><a xlink:title=" ">
<path fill="none" stroke="#63b8ff" d="M410.12,-111.75C406.79,-111.15 403.49,-110.56 400.27,-110 313.33,-94.82 210.74,-78.92 157.82,-70.86"/>
<polygon fill="#63b8ff" stroke="#63b8ff" points="158.02,-67.35 147.61,-69.31 156.97,-74.27 158.02,-67.35"/>
</a>
</g>
</g>
<!-- Node21&#45;&gt;Node11 -->
<g id="edge34_Node000021_Node000011" class="edge">
<title>Node21&#45;&gt;Node11</title>
<g id="a_edge34_Node000021_Node000011"><a xlink:title=" ">
<path fill="none" stroke="#63b8ff" d="M414.19,-110C371.49,-99.47 318.31,-85.03 298.27,-74 275.99,-61.73 254.85,-41.28 241.53,-26.91"/>
<polygon fill="#63b8ff" stroke="#63b8ff" points="243.93,-24.35 234.64,-19.26 238.73,-29.03 243.93,-24.35"/>
</a>
</g>
</g>
<!-- Node21&#45;&gt;Node14 -->
<g id="edge33_Node000021_Node000014" class="edge">
<title>Node21&#45;&gt;Node14</title>
<g id="a_edge33_Node000021_Node000014"><a xlink:title=" ">
<path fill="none" stroke="#63b8ff" d="M531.04,-109.99C572.65,-99.72 628.35,-85.97 666.76,-76.49"/>
<polygon fill="#63b8ff" stroke="#63b8ff" points="667.75,-79.85 676.62,-74.05 666.07,-73.05 667.75,-79.85"/>
</a>
</g>
</g>
<!-- Node22 -->
<g id="Node000022" class="node">
<title>Node22</title>
<g id="a_Node000022"><a xlink:title=" ">
<polygon fill="#e0e0e0" stroke="#999999" points="348.77,-74 307.77,-74 307.77,-55 348.77,-55 348.77,-74"/>
<text text-anchor="middle" x="328.27" y="-62" font-family="Helvetica,sans-Serif" font-size="10.00">tuple</text>
</a>
</g>
</g>
<!-- Node21&#45;&gt;Node22 -->
<g id="edge28_Node000021_Node000022" class="edge">
<title>Node21&#45;&gt;Node22</title>
<g id="a_edge28_Node000021_Node000022"><a xlink:title=" ">
<path fill="none" stroke="#63b8ff" d="M439.3,-109.99C414.65,-100.11 381.96,-87.01 358.45,-77.59"/>
<polygon fill="#63b8ff" stroke="#63b8ff" points="359.57,-74.27 348.98,-73.8 356.97,-80.77 359.57,-74.27"/>
</a>
</g>
</g>
<!-- Node23 -->
<g id="Node000023" class="node">
<title>Node23</title>
<g id="a_Node000023"><a xlink:title=" ">
<polygon fill="#e0e0e0" stroke="#999999" points="427.27,-74 367.27,-74 367.27,-55 427.27,-55 427.27,-74"/>
<text text-anchor="middle" x="397.27" y="-62" font-family="Helvetica,sans-Serif" font-size="10.00">concepts</text>
</a>
</g>
</g>
<!-- Node21&#45;&gt;Node23 -->
<g id="edge29_Node000021_Node000023" class="edge">
<title>Node21&#45;&gt;Node23</title>
<g id="a_edge29_Node000021_Node000023"><a xlink:title=" ">
<path fill="none" stroke="#63b8ff" d="M455.63,-109.84C443.89,-100.91 428.74,-89.41 416.82,-80.35"/>
<polygon fill="#63b8ff" stroke="#63b8ff" points="418.89,-77.53 408.81,-74.27 414.66,-83.1 418.89,-77.53"/>
</a>
</g>
</g>
<!-- Node24 -->
<g id="Node000024" class="node">
<title>Node24</title>
<g id="a_Node000024"><a xlink:title=" ">
<polygon fill="#e0e0e0" stroke="#999999" points="502.77,-74 445.77,-74 445.77,-55 502.77,-55 502.77,-74"/>
<text text-anchor="middle" x="474.27" y="-62" font-family="Helvetica,sans-Serif" font-size="10.00">ostream</text>
</a>
</g>
</g>
<!-- Node21&#45;&gt;Node24 -->
<g id="edge31_Node000021_Node000024" class="edge">
<title>Node21&#45;&gt;Node24</title>
<g id="a_edge31_Node000021_Node000024"><a xlink:title=" ">
<path fill="none" stroke="#63b8ff" d="M474.27,-109.84C474.27,-102.21 474.27,-92.7 474.27,-84.45"/>
<polygon fill="#63b8ff" stroke="#63b8ff" points="477.77,-84.27 474.27,-74.27 470.77,-84.27 477.77,-84.27"/>
</a>
</g>
</g>
<!-- Node25 -->
<g id="Node000025" class="node">
<title>Node25</title>
<g id="a_Node000025"><a xlink:title=" ">
<polygon fill="#e0e0e0" stroke="#999999" points="571.77,-74 520.77,-74 520.77,-55 571.77,-55 571.77,-74"/>
<text text-anchor="middle" x="546.27" y="-62" font-family="Helvetica,sans-Serif" font-size="10.00">variant</text>
</a>
</g>
</g>
<!-- Node21&#45;&gt;Node25 -->
<g id="edge32_Node000021_Node000025" class="edge">
<title>Node21&#45;&gt;Node25</title>
<g id="a_edge32_Node000021_Node000025"><a xlink:title=" ">
<path fill="none" stroke="#63b8ff" d="M491.7,-109.84C502.58,-101 516.57,-89.63 527.67,-80.62"/>
<polygon fill="#63b8ff" stroke="#63b8ff" points="529.93,-83.29 535.48,-74.27 525.52,-77.86 529.93,-83.29"/>
</a>
</g>
</g>
<!-- Node27&#45;&gt;Node11 -->
<g id="edge42_Node000027_Node000011" class="edge">
<title>Node27&#45;&gt;Node11</title>
<g id="a_edge42_Node000027_Node000011"><a xlink:title=" ">
<path fill="none" stroke="#63b8ff" d="M84.49,-109.82C80.36,-94.72 76.69,-70.87 88.27,-55 102.65,-35.3 125.87,-24.12 149.24,-17.85"/>
<polygon fill="#63b8ff" stroke="#63b8ff" points="150.34,-21.18 159.24,-15.44 148.7,-14.38 150.34,-21.18"/>
</a>
</g>
</g>
</g>
</svg>
