<?xml version="1.0" encoding="UTF-8" standalone="no"?>
<!DOCTYPE svg PUBLIC "-//W3C//DTD SVG 1.1//EN"
 "http://www.w3.org/Graphics/SVG/1.1/DTD/svg11.dtd">
<!-- Generated by graphviz version 2.43.0 (0)
 -->
<!-- Title: message/message.h Pages: 1 -->
<svg width="1710pt" height="313pt"
 viewBox="0.00 0.00 1710.00 313.00" xmlns="http://www.w3.org/2000/svg" xmlns:xlink="http://www.w3.org/1999/xlink">
<g id="graph0" class="graph" transform="scale(1 1) rotate(0) translate(4 309)">
<title>message/message.h</title>
<!-- Node1 -->
<g id="Node000001" class="node">
<title>Node1</title>
<g id="a_Node000001"><a xlink:title=" ">
<polygon fill="#999999" stroke="#666666" points="851.5,-305 734.5,-305 734.5,-286 851.5,-286 851.5,-305"/>
<text text-anchor="middle" x="793" y="-293" font-family="Helvetica,sans-Serif" font-size="10.00">message/message.h</text>
</a>
</g>
</g>
<!-- Node2 -->
<g id="Node000002" class="node">
<title>Node2</title>
<g id="a_Node000002"><a xlink:title=" ">
<polygon fill="#e0e0e0" stroke="#999999" points="988,-74 906,-74 906,-55 988,-55 988,-74"/>
<text text-anchor="middle" x="947" y="-62" font-family="Helvetica,sans-Serif" font-size="10.00">msgpack.hpp</text>
</a>
</g>
</g>
<!-- Node1&#45;&gt;Node2 -->
<g id="edge1_Node000001_Node000002" class="edge">
<title>Node1&#45;&gt;Node2</title>
<g id="a_edge1_Node000001_Node000002"><a xlink:title=" ">
<path fill="none" stroke="#63b8ff" d="M811.91,-285.88C827.94,-278 850.98,-265.26 868,-250 918.11,-205.09 937.68,-192.82 959,-129 963.94,-114.2 959.98,-96.74 955.32,-83.88"/>
<polygon fill="#63b8ff" stroke="#63b8ff" points="958.44,-82.26 951.43,-74.32 951.95,-84.9 958.44,-82.26"/>
</a>
</g>
</g>
<!-- Node3 -->
<g id="Node000003" class="node">
<title>Node3</title>
<g id="a_Node000003"><a xlink:title=" ">
<polygon fill="#e0e0e0" stroke="#999999" points="985,-19 941,-19 941,0 985,0 985,-19"/>
<text text-anchor="middle" x="963" y="-7" font-family="Helvetica,sans-Serif" font-size="10.00">string</text>
</a>
</g>
</g>
<!-- Node1&#45;&gt;Node3 -->
<g id="edge2_Node000001_Node000003" class="edge">
<title>Node1&#45;&gt;Node3</title>
<g id="a_edge2_Node000001_Node000003"><a xlink:title=" ">
<path fill="none" stroke="#63b8ff" d="M796.49,-285.67C800.01,-276.72 805.53,-262.46 810,-250 841.52,-162.14 822.74,-121.73 888,-55 900.85,-41.86 918.38,-31.17 933.26,-23.57"/>
<polygon fill="#63b8ff" stroke="#63b8ff" points="935.13,-26.55 942.58,-19.02 932.06,-20.26 935.13,-26.55"/>
</a>
</g>
</g>
<!-- Node4 -->
<g id="Node000004" class="node">
<title>Node4</title>
<g id="a_Node000004"><a xlink:title=" ">
<polygon fill="#e0e0e0" stroke="#999999" points="378.5,-244.5 333.5,-244.5 333.5,-225.5 378.5,-225.5 378.5,-244.5"/>
<text text-anchor="middle" x="356" y="-232.5" font-family="Helvetica,sans-Serif" font-size="10.00">utility</text>
</a>
</g>
</g>
<!-- Node1&#45;&gt;Node4 -->
<g id="edge3_Node000001_Node000004" class="edge">
<title>Node1&#45;&gt;Node4</title>
<g id="a_edge3_Node000001_Node000004"><a xlink:title=" ">
<path fill="none" stroke="#63b8ff" d="M734.25,-292.57C655.56,-288.94 512.05,-278.66 393,-250 390.55,-249.41 388.03,-248.7 385.53,-247.92"/>
<polygon fill="#63b8ff" stroke="#63b8ff" points="386.66,-244.6 376.07,-244.64 384.37,-251.22 386.66,-244.6"/>
</a>
</g>
</g>
<!-- Node5 -->
<g id="Node000005" class="node">
<title>Node5</title>
<g id="a_Node000005"><a xlink:title=" ">
<polygon fill="#e0e0e0" stroke="#999999" points="613.5,-19 566.5,-19 566.5,0 613.5,0 613.5,-19"/>
<text text-anchor="middle" x="590" y="-7" font-family="Helvetica,sans-Serif" font-size="10.00">vector</text>
</a>
</g>
</g>
<!-- Node1&#45;&gt;Node5 -->
<g id="edge4_Node000001_Node000005" class="edge">
<title>Node1&#45;&gt;Node5</title>
<g id="a_edge4_Node000001_Node000005"><a xlink:title=" ">
<path fill="none" stroke="#63b8ff" d="M734.25,-288.74C671.08,-281.73 575.48,-268.48 544,-250 456.85,-198.82 433.98,-169.19 400,-74 397.16,-66.05 394.75,-61.62 400,-55 419.12,-30.89 506.79,-18.59 556.08,-13.48"/>
<polygon fill="#63b8ff" stroke="#63b8ff" points="556.67,-16.94 566.27,-12.47 555.98,-9.97 556.67,-16.94"/>
</a>
</g>
</g>
<!-- Node6 -->
<g id="Node000006" class="node">
<title>Node6</title>
<g id="a_Node000006"><a xlink:title=" ">
<polygon fill="#e0e0e0" stroke="#999999" points="600.5,-244.5 553.5,-244.5 553.5,-225.5 600.5,-225.5 600.5,-244.5"/>
<text text-anchor="middle" x="577" y="-232.5" font-family="Helvetica,sans-Serif" font-size="10.00">deque</text>
</a>
</g>
</g>
<!-- Node1&#45;&gt;Node6 -->
<g id="edge5_Node000001_Node000006" class="edge">
<title>Node1&#45;&gt;Node6</title>
<g id="a_edge5_Node000001_Node000006"><a xlink:title=" ">
<path fill="none" stroke="#63b8ff" d="M748.14,-285.95C710.49,-278.22 655.56,-265.68 609,-250 607.56,-249.52 606.1,-248.99 604.63,-248.44"/>
<polygon fill="#63b8ff" stroke="#63b8ff" points="605.64,-245.07 595.06,-244.56 603.01,-251.56 605.64,-245.07"/>
</a>
</g>
</g>
<!-- Node7 -->
<g id="Node000007" class="node">
<title>Node7</title>
<g id="a_Node000007"><a xlink:title=" ">
<polygon fill="#e0e0e0" stroke="#999999" points="653.5,-244.5 618.5,-244.5 618.5,-225.5 653.5,-225.5 653.5,-244.5"/>
<text text-anchor="middle" x="636" y="-232.5" font-family="Helvetica,sans-Serif" font-size="10.00">any</text>
</a>
</g>
</g>
<!-- Node1&#45;&gt;Node7 -->
<g id="edge6_Node000001_Node000007" class="edge">
<title>Node1&#45;&gt;Node7</title>
<g id="a_edge6_Node000001_Node000007"><a xlink:title=" ">
<path fill="none" stroke="#63b8ff" d="M767.43,-285.99C742.02,-277.39 702.05,-263.49 668,-250 666.37,-249.36 664.7,-248.68 663.03,-247.98"/>
<polygon fill="#63b8ff" stroke="#63b8ff" points="664.08,-244.63 653.51,-243.93 661.34,-251.07 664.08,-244.63"/>
</a>
</g>
</g>
<!-- Node8 -->
<g id="Node000008" class="node">
<title>Node8</title>
<g id="a_Node000008"><a xlink:title=" ">
<polygon fill="#e0e0e0" stroke="#999999" points="484,-19 434,-19 434,0 484,0 484,-19"/>
<text text-anchor="middle" x="459" y="-7" font-family="Helvetica,sans-Serif" font-size="10.00">cstdint</text>
</a>
</g>
</g>
<!-- Node1&#45;&gt;Node8 -->
<g id="edge7_Node000001_Node000008" class="edge">
<title>Node1&#45;&gt;Node8</title>
<g id="a_edge7_Node000001_Node000008"><a xlink:title=" ">
<path fill="none" stroke="#63b8ff" d="M734.17,-292.66C615.18,-288.39 354.57,-276.16 324,-250 298.04,-227.78 305,-209.67 305,-175.5 305,-175.5 305,-175.5 305,-118.5 305,-88.08 386.58,-44.73 430.99,-23.38"/>
<polygon fill="#63b8ff" stroke="#63b8ff" points="432.58,-26.5 440.12,-19.06 429.58,-20.18 432.58,-26.5"/>
</a>
</g>
</g>
<!-- Node9 -->
<g id="Node000009" class="node">
<title>Node9</title>
<g id="a_Node000009"><a xlink:title=" ">
<polygon fill="#e0e0e0" stroke="#999999" points="801.5,-244.5 710.5,-244.5 710.5,-225.5 801.5,-225.5 801.5,-244.5"/>
<text text-anchor="middle" x="756" y="-232.5" font-family="Helvetica,sans-Serif" font-size="10.00">spdlog/logger.h</text>
</a>
</g>
</g>
<!-- Node1&#45;&gt;Node9 -->
<g id="edge8_Node000001_Node000009" class="edge">
<title>Node1&#45;&gt;Node9</title>
<g id="a_edge8_Node000001_Node000009"><a xlink:title=" ">
<path fill="none" stroke="#63b8ff" d="M787.54,-285.87C782.13,-277.31 773.69,-263.97 766.9,-253.24"/>
<polygon fill="#63b8ff" stroke="#63b8ff" points="769.79,-251.25 761.48,-244.67 763.87,-254.99 769.79,-251.25"/>
</a>
</g>
</g>
<!-- Node10 -->
<g id="Node000010" class="node">
<title>Node10</title>
<g id="a_Node000010"><a xlink:href="common_2func_8h.html" target="_top" xlink:title=" ">
<polygon fill="white" stroke="#666666" points="765,-129 623,-129 623,-110 765,-110 765,-129"/>
<text text-anchor="middle" x="694" y="-117" font-family="Helvetica,sans-Serif" font-size="10.00">webcface/common/func.h</text>
</a>
</g>
</g>
<!-- Node1&#45;&gt;Node10 -->
<g id="edge9_Node000001_Node000010" class="edge">
<title>Node1&#45;&gt;Node10</title>
<g id="a_edge9_Node000001_Node000010"><a xlink:title=" ">
<path fill="none" stroke="#63b8ff" d="M755.03,-285.97C735.51,-279.51 713.29,-268.46 701,-250 678.63,-216.38 684.17,-166.29 689.49,-139.32"/>
<polygon fill="#63b8ff" stroke="#63b8ff" points="692.97,-139.81 691.68,-129.3 686.13,-138.32 692.97,-139.81"/>
</a>
</g>
</g>
<!-- Node19 -->
<g id="Node000019" class="node">
<title>Node19</title>
<g id="a_Node000019"><a xlink:href="def_8h.html" target="_top" xlink:title=" ">
<polygon fill="white" stroke="#666666" points="1444.5,-19 1403.5,-19 1403.5,0 1444.5,0 1444.5,-19"/>
<text text-anchor="middle" x="1424" y="-7" font-family="Helvetica,sans-Serif" font-size="10.00">def.h</text>
</a>
</g>
</g>
<!-- Node1&#45;&gt;Node19 -->
<g id="edge61_Node000001_Node000019" class="edge">
<title>Node1&#45;&gt;Node19</title>
<g id="a_edge61_Node000001_Node000019"><a xlink:title=" ">
<path fill="none" stroke="#63b8ff" d="M851.59,-293.02C1052.62,-287.16 1702,-261.6 1702,-175.5 1702,-175.5 1702,-175.5 1702,-118.5 1702,-84.91 1688.89,-73.73 1661,-55 1627.62,-32.57 1510.86,-18.75 1454.67,-13.24"/>
<polygon fill="#63b8ff" stroke="#63b8ff" points="1454.89,-9.75 1444.6,-12.28 1454.22,-16.71 1454.89,-9.75"/>
</a>
</g>
</g>
<!-- Node20 -->
<g id="Node000020" class="node">
<title>Node20</title>
<g id="a_Node000020"><a xlink:href="common_2log_8h.html" target="_top" xlink:title=" ">
<polygon fill="white" stroke="#666666" points="1218,-74 1082,-74 1082,-55 1218,-55 1218,-74"/>
<text text-anchor="middle" x="1150" y="-62" font-family="Helvetica,sans-Serif" font-size="10.00">webcface/common/log.h</text>
</a>
</g>
</g>
<!-- Node1&#45;&gt;Node20 -->
<g id="edge27_Node000001_Node000020" class="edge">
<title>Node1&#45;&gt;Node20</title>
<g id="a_edge27_Node000001_Node000020"><a xlink:title=" ">
<path fill="none" stroke="#63b8ff" d="M817.52,-285.95C839.3,-277.93 871.66,-264.96 898,-250 992.01,-196.62 1092.43,-114.48 1132.26,-80.75"/>
<polygon fill="#63b8ff" stroke="#63b8ff" points="1134.68,-83.29 1140.02,-74.14 1130.14,-77.96 1134.68,-83.29"/>
</a>
</g>
</g>
<!-- Node22 -->
<g id="Node000022" class="node">
<title>Node22</title>
<g id="a_Node000022"><a xlink:href="common_2view_8h.html" target="_top" xlink:title=" ">
<polygon fill="white" stroke="#666666" points="1311.5,-129 1168.5,-129 1168.5,-110 1311.5,-110 1311.5,-129"/>
<text text-anchor="middle" x="1240" y="-117" font-family="Helvetica,sans-Serif" font-size="10.00">webcface/common/view.h</text>
</a>
</g>
</g>
<!-- Node1&#45;&gt;Node22 -->
<g id="edge31_Node000001_Node000022" class="edge">
<title>Node1&#45;&gt;Node22</title>
<g id="a_edge31_Node000001_Node000022"><a xlink:title=" ">
<path fill="none" stroke="#63b8ff" d="M851.55,-289.78C926.37,-283.07 1051.21,-269.4 1093,-250 1151.15,-223 1203.36,-165.55 1226.86,-137.13"/>
<polygon fill="#63b8ff" stroke="#63b8ff" points="1229.62,-139.28 1233.2,-129.31 1224.18,-134.87 1229.62,-139.28"/>
</a>
</g>
</g>
<!-- Node24 -->
<g id="Node000024" class="node">
<title>Node24</title>
<g id="a_Node000024"><a xlink:href="common_2image_8h.html" target="_top" xlink:title=" ">
<polygon fill="white" stroke="#666666" points="277,-74 125,-74 125,-55 277,-55 277,-74"/>
<text text-anchor="middle" x="201" y="-62" font-family="Helvetica,sans-Serif" font-size="10.00">webcface/common/image.h</text>
</a>
</g>
</g>
<!-- Node1&#45;&gt;Node24 -->
<g id="edge38_Node000001_Node000024" class="edge">
<title>Node1&#45;&gt;Node24</title>
<g id="a_edge38_Node000001_Node000024"><a xlink:title=" ">
<path fill="none" stroke="#63b8ff" d="M734.28,-292.52C609.6,-287.84 326.81,-274.64 291,-250 233.28,-210.28 211.13,-122.76 203.97,-84.28"/>
<polygon fill="#63b8ff" stroke="#63b8ff" points="207.41,-83.67 202.26,-74.41 200.51,-84.86 207.41,-83.67"/>
</a>
</g>
</g>
<!-- Node28 -->
<g id="Node000028" class="node">
<title>Node28</title>
<g id="a_Node000028"><a xlink:href="common_2robot__model_8h.html" target="_top" xlink:title=" ">
<polygon fill="white" stroke="#666666" points="1308.5,-250 1171.5,-250 1171.5,-220 1308.5,-220 1308.5,-250"/>
<text text-anchor="start" x="1179.5" y="-238" font-family="Helvetica,sans-Serif" font-size="10.00">webcface/common/robot</text>
<text text-anchor="middle" x="1240" y="-227" font-family="Helvetica,sans-Serif" font-size="10.00">_model.h</text>
</a>
</g>
</g>
<!-- Node1&#45;&gt;Node28 -->
<g id="edge46_Node000001_Node000028" class="edge">
<title>Node1&#45;&gt;Node28</title>
<g id="a_edge46_Node000001_Node000028"><a xlink:title=" ">
<path fill="none" stroke="#63b8ff" d="M851.73,-287.39C921.48,-278.88 1041.29,-264 1144,-250 1149.67,-249.23 1155.52,-248.41 1161.41,-247.58"/>
<polygon fill="#63b8ff" stroke="#63b8ff" points="1161.92,-251.05 1171.33,-246.17 1160.93,-244.12 1161.92,-251.05"/>
</a>
</g>
</g>
<!-- Node29 -->
<g id="Node000029" class="node">
<title>Node29</title>
<g id="a_Node000029"><a xlink:href="common_2canvas3d_8h.html" target="_top" xlink:title=" ">
<polygon fill="white" stroke="#666666" points="1376,-184 1304,-184 1304,-165 1376,-165 1376,-184"/>
<text text-anchor="middle" x="1340" y="-172" font-family="Helvetica,sans-Serif" font-size="10.00">canvas3d.h</text>
</a>
</g>
</g>
<!-- Node1&#45;&gt;Node29 -->
<g id="edge60_Node000001_Node000029" class="edge">
<title>Node1&#45;&gt;Node29</title>
<g id="a_edge60_Node000001_Node000029"><a xlink:title=" ">
<path fill="none" stroke="#63b8ff" d="M851.8,-293.21C981.31,-289.83 1282.51,-278.94 1318,-250 1334.46,-236.58 1338.99,-211.47 1340.05,-194.14"/>
<polygon fill="#63b8ff" stroke="#63b8ff" points="1343.55,-194.17 1340.33,-184.07 1336.55,-193.97 1343.55,-194.17"/>
</a>
</g>
</g>
<!-- Node33 -->
<g id="Node000033" class="node">
<title>Node33</title>
<g id="a_Node000033"><a xlink:href="val__adaptor_8h.html" target="_top" xlink:title=" ">
<polygon fill="white" stroke="#666666" points="949.5,-129 866.5,-129 866.5,-110 949.5,-110 949.5,-129"/>
<text text-anchor="middle" x="908" y="-117" font-family="Helvetica,sans-Serif" font-size="10.00">val_adaptor.h</text>
</a>
</g>
</g>
<!-- Node1&#45;&gt;Node33 -->
<g id="edge62_Node000001_Node000033" class="edge">
<title>Node1&#45;&gt;Node33</title>
<g id="a_edge62_Node000001_Node000033"><a xlink:title=" ">
<path fill="none" stroke="#63b8ff" d="M805.58,-285.76C816.75,-277.53 832.96,-264.34 844,-250 871.57,-214.2 892.03,-164.64 901.74,-138.43"/>
<polygon fill="#63b8ff" stroke="#63b8ff" points="905.03,-139.62 905.13,-129.02 898.44,-137.24 905.03,-139.62"/>
</a>
</g>
</g>
<!-- Node10&#45;&gt;Node3 -->
<g id="edge14_Node000010_Node000003" class="edge">
<title>Node10&#45;&gt;Node3</title>
<g id="a_edge14_Node000010_Node000003"><a xlink:title=" ">
<path fill="none" stroke="#63b8ff" d="M709.94,-109.97C734.45,-97.05 783.04,-72.22 826,-55 861.35,-40.83 903.13,-27.77 931.17,-19.51"/>
<polygon fill="#63b8ff" stroke="#63b8ff" points="932.22,-22.85 940.85,-16.7 930.27,-16.13 932.22,-22.85"/>
</a>
</g>
</g>
<!-- Node10&#45;&gt;Node5 -->
<g id="edge10_Node000010_Node000005" class="edge">
<title>Node10&#45;&gt;Node5</title>
<g id="a_edge10_Node000010_Node000005"><a xlink:title=" ">
<path fill="none" stroke="#63b8ff" d="M685.49,-109.66C667.96,-91.46 627.6,-49.55 605.38,-26.47"/>
<polygon fill="#63b8ff" stroke="#63b8ff" points="607.8,-23.93 598.34,-19.16 602.75,-28.79 607.8,-23.93"/>
</a>
</g>
</g>
<!-- Node10&#45;&gt;Node8 -->
<g id="edge16_Node000010_Node000008" class="edge">
<title>Node10&#45;&gt;Node8</title>
<g id="a_edge16_Node000010_Node000008"><a xlink:title=" ">
<path fill="none" stroke="#63b8ff" d="M622.99,-117.97C545.35,-115.71 428.19,-106.78 400,-74 384.74,-56.25 409.81,-36.62 431.83,-23.96"/>
<polygon fill="#63b8ff" stroke="#63b8ff" points="433.55,-27.01 440.65,-19.14 430.2,-20.86 433.55,-27.01"/>
</a>
</g>
</g>
<!-- Node11 -->
<g id="Node000011" class="node">
<title>Node11</title>
<g id="a_Node000011"><a xlink:title=" ">
<polygon fill="#e0e0e0" stroke="#999999" points="561.5,-74 492.5,-74 492.5,-55 561.5,-55 561.5,-74"/>
<text text-anchor="middle" x="527" y="-62" font-family="Helvetica,sans-Serif" font-size="10.00">type_traits</text>
</a>
</g>
</g>
<!-- Node10&#45;&gt;Node11 -->
<g id="edge11_Node000010_Node000011" class="edge">
<title>Node10&#45;&gt;Node11</title>
<g id="a_edge11_Node000010_Node000011"><a xlink:title=" ">
<path fill="none" stroke="#63b8ff" d="M667.17,-109.98C639.13,-101.09 594.95,-87.07 563.7,-77.15"/>
<polygon fill="#63b8ff" stroke="#63b8ff" points="564.63,-73.77 554.04,-74.08 562.51,-80.44 564.63,-73.77"/>
</a>
</g>
</g>
<!-- Node12 -->
<g id="Node000012" class="node">
<title>Node12</title>
<g id="a_Node000012"><a xlink:title=" ">
<polygon fill="#e0e0e0" stroke="#999999" points="474.5,-74 409.5,-74 409.5,-55 474.5,-55 474.5,-74"/>
<text text-anchor="middle" x="442" y="-62" font-family="Helvetica,sans-Serif" font-size="10.00">functional</text>
</a>
</g>
</g>
<!-- Node10&#45;&gt;Node12 -->
<g id="edge12_Node000010_Node000012" class="edge">
<title>Node10&#45;&gt;Node12</title>
<g id="a_edge12_Node000010_Node000012"><a xlink:title=" ">
<path fill="none" stroke="#63b8ff" d="M653.51,-109.98C607.24,-100.25 531.83,-84.39 484.66,-74.47"/>
<polygon fill="#63b8ff" stroke="#63b8ff" points="485.27,-71.02 474.76,-72.39 483.83,-77.87 485.27,-71.02"/>
</a>
</g>
</g>
<!-- Node13 -->
<g id="Node000013" class="node">
<title>Node13</title>
<g id="a_Node000013"><a xlink:title=" ">
<polygon fill="#e0e0e0" stroke="#999999" points="1368,-74 1312,-74 1312,-55 1368,-55 1368,-74"/>
<text text-anchor="middle" x="1340" y="-62" font-family="Helvetica,sans-Serif" font-size="10.00">optional</text>
</a>
</g>
</g>
<!-- Node10&#45;&gt;Node13 -->
<g id="edge13_Node000010_Node000013" class="edge">
<title>Node10&#45;&gt;Node13</title>
<g id="a_edge13_Node000010_Node000013"><a xlink:title=" ">
<path fill="none" stroke="#63b8ff" d="M765.09,-113.54C872.39,-105.91 1082.11,-90.44 1260,-74 1273.61,-72.74 1288.5,-71.2 1301.71,-69.78"/>
<polygon fill="#63b8ff" stroke="#63b8ff" points="1302.32,-73.24 1311.88,-68.68 1301.56,-66.28 1302.32,-73.24"/>
</a>
</g>
</g>
<!-- Node14 -->
<g id="Node000014" class="node">
<title>Node14</title>
<g id="a_Node000014"><a xlink:title=" ">
<polygon fill="#e0e0e0" stroke="#999999" points="723.5,-19 666.5,-19 666.5,0 723.5,0 723.5,-19"/>
<text text-anchor="middle" x="695" y="-7" font-family="Helvetica,sans-Serif" font-size="10.00">ostream</text>
</a>
</g>
</g>
<!-- Node10&#45;&gt;Node14 -->
<g id="edge15_Node000010_Node000014" class="edge">
<title>Node10&#45;&gt;Node14</title>
<g id="a_edge15_Node000010_Node000014"><a xlink:title=" ">
<path fill="none" stroke="#63b8ff" d="M694.08,-109.66C694.24,-92.17 694.61,-52.8 694.83,-29.27"/>
<polygon fill="#63b8ff" stroke="#63b8ff" points="698.33,-29.19 694.92,-19.16 691.33,-29.13 698.33,-29.19"/>
</a>
</g>
</g>
<!-- Node15 -->
<g id="Node000015" class="node">
<title>Node15</title>
<g id="a_Node000015"><a xlink:href="val_8h.html" target="_top" xlink:title=" ">
<polygon fill="white" stroke="#666666" points="773.5,-74 732.5,-74 732.5,-55 773.5,-55 773.5,-74"/>
<text text-anchor="middle" x="753" y="-62" font-family="Helvetica,sans-Serif" font-size="10.00">val.h</text>
</a>
</g>
</g>
<!-- Node10&#45;&gt;Node15 -->
<g id="edge17_Node000010_Node000015" class="edge">
<title>Node10&#45;&gt;Node15</title>
<g id="a_edge17_Node000010_Node000015"><a xlink:title=" ">
<path fill="none" stroke="#63b8ff" d="M703.48,-109.98C712.2,-102.15 725.34,-90.34 735.9,-80.86"/>
<polygon fill="#63b8ff" stroke="#63b8ff" points="738.25,-83.46 743.35,-74.17 733.57,-78.25 738.25,-83.46"/>
</a>
</g>
</g>
<!-- Node10&#45;&gt;Node19 -->
<g id="edge26_Node000010_Node000019" class="edge">
<title>Node10&#45;&gt;Node19</title>
<g id="a_edge26_Node000010_Node000019"><a xlink:title=" ">
<path fill="none" stroke="#63b8ff" d="M765.08,-114.3C900.09,-106.06 1184.01,-87.43 1227,-74 1243.15,-68.95 1244.37,-61.49 1260,-55 1304.74,-36.42 1359.57,-23.36 1393.13,-16.39"/>
<polygon fill="#63b8ff" stroke="#63b8ff" points="1394.14,-19.76 1403.24,-14.34 1392.75,-12.9 1394.14,-19.76"/>
</a>
</g>
</g>
<!-- Node15&#45;&gt;Node3 -->
<g id="edge18_Node000015_Node000003" class="edge">
<title>Node15&#45;&gt;Node3</title>
<g id="a_edge18_Node000015_Node000003"><a xlink:title=" ">
<path fill="none" stroke="#63b8ff" d="M773.52,-58.32C810.21,-49.06 887.3,-29.61 931,-18.58"/>
<polygon fill="#63b8ff" stroke="#63b8ff" points="931.98,-21.94 940.82,-16.1 930.27,-15.15 931.98,-21.94"/>
</a>
</g>
</g>
<!-- Node15&#45;&gt;Node5 -->
<g id="edge19_Node000015_Node000005" class="edge">
<title>Node15&#45;&gt;Node5</title>
<g id="a_edge19_Node000015_Node000005"><a xlink:title=" ">
<path fill="none" stroke="#63b8ff" d="M732.36,-56.79C704.87,-47.85 655.94,-31.94 623.23,-21.3"/>
<polygon fill="#63b8ff" stroke="#63b8ff" points="624.23,-17.95 613.64,-18.19 622.07,-24.61 624.23,-17.95"/>
</a>
</g>
</g>
<!-- Node15&#45;&gt;Node8 -->
<g id="edge23_Node000015_Node000008" class="edge">
<title>Node15&#45;&gt;Node8</title>
<g id="a_edge23_Node000015_Node000008"><a xlink:title=" ">
<path fill="none" stroke="#63b8ff" d="M732.33,-59.77C682.66,-50.82 556.15,-28.01 494.22,-16.85"/>
<polygon fill="#63b8ff" stroke="#63b8ff" points="494.61,-13.36 484.15,-15.03 493.37,-20.25 494.61,-13.36"/>
</a>
</g>
</g>
<!-- Node15&#45;&gt;Node14 -->
<g id="edge24_Node000015_Node000014" class="edge">
<title>Node15&#45;&gt;Node14</title>
<g id="a_edge24_Node000015_Node000014"><a xlink:title=" ">
<path fill="none" stroke="#63b8ff" d="M743.68,-54.98C735.19,-47.23 722.44,-35.58 712.12,-26.14"/>
<polygon fill="#63b8ff" stroke="#63b8ff" points="714.23,-23.33 704.49,-19.17 709.51,-28.5 714.23,-23.33"/>
</a>
</g>
</g>
<!-- Node16 -->
<g id="Node000016" class="node">
<title>Node16</title>
<g id="a_Node000016"><a xlink:title=" ">
<polygon fill="#e0e0e0" stroke="#999999" points="782.5,-19 741.5,-19 741.5,0 782.5,0 782.5,-19"/>
<text text-anchor="middle" x="762" y="-7" font-family="Helvetica,sans-Serif" font-size="10.00">tuple</text>
</a>
</g>
</g>
<!-- Node15&#45;&gt;Node16 -->
<g id="edge20_Node000015_Node000016" class="edge">
<title>Node15&#45;&gt;Node16</title>
<g id="a_edge20_Node000015_Node000016"><a xlink:title=" ">
<path fill="none" stroke="#63b8ff" d="M754.49,-54.75C755.67,-47.8 757.36,-37.85 758.84,-29.13"/>
<polygon fill="#63b8ff" stroke="#63b8ff" points="762.32,-29.53 760.54,-19.09 755.42,-28.36 762.32,-29.53"/>
</a>
</g>
</g>
<!-- Node17 -->
<g id="Node000017" class="node">
<title>Node17</title>
<g id="a_Node000017"><a xlink:title=" ">
<polygon fill="#e0e0e0" stroke="#999999" points="861,-19 801,-19 801,0 861,0 861,-19"/>
<text text-anchor="middle" x="831" y="-7" font-family="Helvetica,sans-Serif" font-size="10.00">concepts</text>
</a>
</g>
</g>
<!-- Node15&#45;&gt;Node17 -->
<g id="edge21_Node000015_Node000017" class="edge">
<title>Node15&#45;&gt;Node17</title>
<g id="a_edge21_Node000015_Node000017"><a xlink:title=" ">
<path fill="none" stroke="#63b8ff" d="M765.53,-54.98C777.4,-46.92 795.46,-34.65 809.61,-25.03"/>
<polygon fill="#63b8ff" stroke="#63b8ff" points="811.94,-27.69 818.24,-19.17 808,-21.9 811.94,-27.69"/>
</a>
</g>
</g>
<!-- Node18 -->
<g id="Node000018" class="node">
<title>Node18</title>
<g id="a_Node000018"><a xlink:title=" ">
<polygon fill="#e0e0e0" stroke="#999999" points="415.5,-19 350.5,-19 350.5,0 415.5,0 415.5,-19"/>
<text text-anchor="middle" x="383" y="-7" font-family="Helvetica,sans-Serif" font-size="10.00">stdexcept</text>
</a>
</g>
</g>
<!-- Node15&#45;&gt;Node18 -->
<g id="edge22_Node000015_Node000018" class="edge">
<title>Node15&#45;&gt;Node18</title>
<g id="a_edge22_Node000015_Node000018"><a xlink:title=" ">
<path fill="none" stroke="#63b8ff" d="M732.21,-61.15C681.61,-55.34 547.9,-39.39 425.44,-18.97"/>
<polygon fill="#63b8ff" stroke="#63b8ff" points="425.96,-15.51 415.52,-17.3 424.8,-22.41 425.96,-15.51"/>
</a>
</g>
</g>
<!-- Node15&#45;&gt;Node19 -->
<g id="edge25_Node000015_Node000019" class="edge">
<title>Node15&#45;&gt;Node19</title>
<g id="a_edge25_Node000015_Node000019"><a xlink:title=" ">
<path fill="none" stroke="#63b8ff" d="M773.82,-61.86C870.68,-54.21 1277.41,-22.08 1393.15,-12.94"/>
<polygon fill="#63b8ff" stroke="#63b8ff" points="1393.73,-16.4 1403.43,-12.13 1393.18,-9.42 1393.73,-16.4"/>
</a>
</g>
</g>
<!-- Node20&#45;&gt;Node3 -->
<g id="edge28_Node000020_Node000003" class="edge">
<title>Node20&#45;&gt;Node3</title>
<g id="a_edge28_Node000020_Node000003"><a xlink:title=" ">
<path fill="none" stroke="#63b8ff" d="M1119.96,-54.98C1085.66,-45.26 1029.79,-29.43 994.78,-19.51"/>
<polygon fill="#63b8ff" stroke="#63b8ff" points="995.64,-16.11 985.07,-16.75 993.73,-22.85 995.64,-16.11"/>
</a>
</g>
</g>
<!-- Node20&#45;&gt;Node19 -->
<g id="edge30_Node000020_Node000019" class="edge">
<title>Node20&#45;&gt;Node19</title>
<g id="a_edge30_Node000020_Node000019"><a xlink:title=" ">
<path fill="none" stroke="#63b8ff" d="M1194.02,-54.98C1249.97,-44.16 1345.1,-25.76 1393.6,-16.38"/>
<polygon fill="#63b8ff" stroke="#63b8ff" points="1394.34,-19.8 1403.49,-14.47 1393.01,-12.93 1394.34,-19.8"/>
</a>
</g>
</g>
<!-- Node21 -->
<g id="Node000021" class="node">
<title>Node21</title>
<g id="a_Node000021"><a xlink:title=" ">
<polygon fill="#e0e0e0" stroke="#999999" points="1175,-19 1125,-19 1125,0 1175,0 1175,-19"/>
<text text-anchor="middle" x="1150" y="-7" font-family="Helvetica,sans-Serif" font-size="10.00">chrono</text>
</a>
</g>
</g>
<!-- Node20&#45;&gt;Node21 -->
<g id="edge29_Node000020_Node000021" class="edge">
<title>Node20&#45;&gt;Node21</title>
<g id="a_edge29_Node000020_Node000021"><a xlink:title=" ">
<path fill="none" stroke="#63b8ff" d="M1150,-54.75C1150,-47.8 1150,-37.85 1150,-29.13"/>
<polygon fill="#63b8ff" stroke="#63b8ff" points="1153.5,-29.09 1150,-19.09 1146.5,-29.09 1153.5,-29.09"/>
</a>
</g>
</g>
<!-- Node22&#45;&gt;Node3 -->
<g id="edge32_Node000022_Node000003" class="edge">
<title>Node22&#45;&gt;Node3</title>
<g id="a_edge32_Node000022_Node000003"><a xlink:title=" ">
<path fill="none" stroke="#63b8ff" d="M1195.36,-109.95C1161.11,-102.61 1113.07,-90.56 1073,-74 1040.19,-60.44 1005.14,-38.82 983.65,-24.64"/>
<polygon fill="#63b8ff" stroke="#63b8ff" points="985.57,-21.72 975.31,-19.07 981.68,-27.53 985.57,-21.72"/>
</a>
</g>
</g>
<!-- Node22&#45;&gt;Node13 -->
<g id="edge33_Node000022_Node000013" class="edge">
<title>Node22&#45;&gt;Node13</title>
<g id="a_edge33_Node000022_Node000013"><a xlink:title=" ">
<path fill="none" stroke="#63b8ff" d="M1256.07,-109.98C1271.86,-101.61 1296.22,-88.7 1314.63,-78.95"/>
<polygon fill="#63b8ff" stroke="#63b8ff" points="1316.44,-81.95 1323.64,-74.17 1313.17,-75.76 1316.44,-81.95"/>
</a>
</g>
</g>
<!-- Node22&#45;&gt;Node19 -->
<g id="edge37_Node000022_Node000019" class="edge">
<title>Node22&#45;&gt;Node19</title>
<g id="a_edge37_Node000022_Node000019"><a xlink:title=" ">
<path fill="none" stroke="#63b8ff" d="M1311.55,-114.46C1371.71,-109.39 1451.01,-98.21 1471,-74 1484.43,-57.73 1464.75,-38.09 1446.9,-25"/>
<polygon fill="#63b8ff" stroke="#63b8ff" points="1448.66,-21.95 1438.44,-19.14 1444.67,-27.71 1448.66,-21.95"/>
</a>
</g>
</g>
<!-- Node23 -->
<g id="Node000023" class="node">
<title>Node23</title>
<g id="a_Node000023"><a xlink:href="field__base_8h.html" target="_top" xlink:title=" ">
<polygon fill="white" stroke="#666666" points="1461.5,-74 1386.5,-74 1386.5,-55 1461.5,-55 1461.5,-74"/>
<text text-anchor="middle" x="1424" y="-62" font-family="Helvetica,sans-Serif" font-size="10.00">field_base.h</text>
</a>
</g>
</g>
<!-- Node22&#45;&gt;Node23 -->
<g id="edge34_Node000022_Node000023" class="edge">
<title>Node22&#45;&gt;Node23</title>
<g id="a_edge34_Node000022_Node000023"><a xlink:title=" ">
<path fill="none" stroke="#63b8ff" d="M1269.56,-109.98C1300.72,-101.01 1349.97,-86.82 1384.46,-76.89"/>
<polygon fill="#63b8ff" stroke="#63b8ff" points="1385.57,-80.21 1394.21,-74.08 1383.63,-73.49 1385.57,-80.21"/>
</a>
</g>
</g>
<!-- Node23&#45;&gt;Node3 -->
<g id="edge35_Node000023_Node000003" class="edge">
<title>Node23&#45;&gt;Node3</title>
<g id="a_edge35_Node000023_Node000003"><a xlink:title=" ">
<path fill="none" stroke="#63b8ff" d="M1386.33,-56.44C1383.18,-55.93 1380.04,-55.44 1377,-55 1235.39,-34.61 1065.3,-19.15 995.4,-13.18"/>
<polygon fill="#63b8ff" stroke="#63b8ff" points="995.32,-9.67 985.06,-12.31 994.73,-16.64 995.32,-9.67"/>
</a>
</g>
</g>
<!-- Node23&#45;&gt;Node19 -->
<g id="edge36_Node000023_Node000019" class="edge">
<title>Node23&#45;&gt;Node19</title>
<g id="a_edge36_Node000023_Node000019"><a xlink:title=" ">
<path fill="none" stroke="#63b8ff" d="M1424,-54.75C1424,-47.8 1424,-37.85 1424,-29.13"/>
<polygon fill="#63b8ff" stroke="#63b8ff" points="1427.5,-29.09 1424,-19.09 1420.5,-29.09 1427.5,-29.09"/>
</a>
</g>
</g>
<!-- Node24&#45;&gt;Node5 -->
<g id="edge39_Node000024_Node000005" class="edge">
<title>Node24&#45;&gt;Node5</title>
<g id="a_edge39_Node000024_Node000005"><a xlink:title=" ">
<path fill="none" stroke="#63b8ff" d="M263.5,-54.98C346.71,-43.65 490.94,-24 556.2,-15.11"/>
<polygon fill="#63b8ff" stroke="#63b8ff" points="556.9,-18.54 566.34,-13.72 555.96,-11.61 556.9,-18.54"/>
</a>
</g>
</g>
<!-- Node24&#45;&gt;Node8 -->
<g id="edge41_Node000024_Node000008" class="edge">
<title>Node24&#45;&gt;Node8</title>
<g id="a_edge41_Node000024_Node000008"><a xlink:title=" ">
<path fill="none" stroke="#63b8ff" d="M246.81,-54.93C291.98,-46.35 362.9,-32.51 424,-19 424.1,-18.98 424.2,-18.96 424.3,-18.93"/>
<polygon fill="#63b8ff" stroke="#63b8ff" points="424.83,-22.4 433.79,-16.75 423.26,-15.58 424.83,-22.4"/>
</a>
</g>
</g>
<!-- Node24&#45;&gt;Node18 -->
<g id="edge42_Node000024_Node000018" class="edge">
<title>Node24&#45;&gt;Node18</title>
<g id="a_edge42_Node000024_Node000018"><a xlink:title=" ">
<path fill="none" stroke="#63b8ff" d="M230.24,-54.98C261.06,-46.01 309.78,-31.82 343.89,-21.89"/>
<polygon fill="#63b8ff" stroke="#63b8ff" points="344.91,-25.24 353.53,-19.08 342.95,-18.52 344.91,-25.24"/>
</a>
</g>
</g>
<!-- Node24&#45;&gt;Node19 -->
<g id="edge43_Node000024_Node000019" class="edge">
<title>Node24&#45;&gt;Node19</title>
<g id="a_edge43_Node000024_Node000019"><a xlink:title=" ">
<path fill="none" stroke="#63b8ff" d="M277.04,-60.2C514.28,-49.92 1234.41,-18.72 1392.92,-11.85"/>
<polygon fill="#63b8ff" stroke="#63b8ff" points="1393.51,-15.32 1403.35,-11.39 1393.21,-8.33 1393.51,-15.32"/>
</a>
</g>
</g>
<!-- Node25 -->
<g id="Node000025" class="node">
<title>Node25</title>
<g id="a_Node000025"><a xlink:title=" ">
<polygon fill="#e0e0e0" stroke="#999999" points="58,-19 0,-19 0,0 58,0 58,-19"/>
<text text-anchor="middle" x="29" y="-7" font-family="Helvetica,sans-Serif" font-size="10.00">memory</text>
</a>
</g>
</g>
<!-- Node24&#45;&gt;Node25 -->
<g id="edge40_Node000024_Node000025" class="edge">
<title>Node24&#45;&gt;Node25</title>
<g id="a_edge40_Node000024_Node000025"><a xlink:title=" ">
<path fill="none" stroke="#63b8ff" d="M173.37,-54.98C144.49,-46.09 98.99,-32.07 66.8,-22.15"/>
<polygon fill="#63b8ff" stroke="#63b8ff" points="67.44,-18.68 56.85,-19.08 65.38,-25.37 67.44,-18.68"/>
</a>
</g>
</g>
<!-- Node26 -->
<g id="Node000026" class="node">
<title>Node26</title>
<g id="a_Node000026"><a xlink:title=" ">
<polygon fill="#e0e0e0" stroke="#999999" points="179.5,-19 76.5,-19 76.5,0 179.5,0 179.5,-19"/>
<text text-anchor="middle" x="128" y="-7" font-family="Helvetica,sans-Serif" font-size="10.00">opencv2/core.hpp</text>
</a>
</g>
</g>
<!-- Node24&#45;&gt;Node26 -->
<g id="edge44_Node000024_Node000026" class="edge">
<title>Node24&#45;&gt;Node26</title>
<g id="a_edge44_Node000024_Node000026"><a xlink:title=" ">
<path fill="none" stroke="#63b8ff" d="M189.27,-54.98C178.27,-47 161.58,-34.88 148.4,-25.31"/>
<polygon fill="#63b8ff" stroke="#63b8ff" points="150.09,-22.21 139.94,-19.17 145.98,-27.88 150.09,-22.21"/>
</a>
</g>
</g>
<!-- Node27 -->
<g id="Node000027" class="node">
<title>Node27</title>
<g id="a_Node000027"><a xlink:title=" ">
<polygon fill="#e0e0e0" stroke="#999999" points="332,-19 198,-19 198,0 332,0 332,-19"/>
<text text-anchor="middle" x="265" y="-7" font-family="Helvetica,sans-Serif" font-size="10.00">opencv2/imgcodecs.hpp</text>
</a>
</g>
</g>
<!-- Node24&#45;&gt;Node27 -->
<g id="edge45_Node000024_Node000027" class="edge">
<title>Node24&#45;&gt;Node27</title>
<g id="a_edge45_Node000024_Node000027"><a xlink:title=" ">
<path fill="none" stroke="#63b8ff" d="M211.28,-54.98C220.84,-47.07 235.28,-35.11 246.78,-25.58"/>
<polygon fill="#63b8ff" stroke="#63b8ff" points="249.06,-28.24 254.53,-19.17 244.6,-22.85 249.06,-28.24"/>
</a>
</g>
</g>
<!-- Node28&#45;&gt;Node3 -->
<g id="edge59_Node000028_Node000003" class="edge">
<title>Node28&#45;&gt;Node3</title>
<g id="a_edge59_Node000028_Node000003"><a xlink:title=" ">
<path fill="none" stroke="#63b8ff" d="M1220.2,-219.84C1182.49,-192.66 1098.15,-130.82 1031,-74 1012.62,-58.45 992.59,-39.48 979.06,-26.34"/>
<polygon fill="#63b8ff" stroke="#63b8ff" points="981.15,-23.49 971.55,-19 976.26,-28.49 981.15,-23.49"/>
</a>
</g>
</g>
<!-- Node28&#45;&gt;Node19 -->
<g id="edge47_Node000028_Node000019" class="edge">
<title>Node28&#45;&gt;Node19</title>
<g id="a_edge47_Node000028_Node000019"><a xlink:title=" ">
<path fill="none" stroke="#63b8ff" d="M1308.64,-232.27C1381.38,-226.31 1493.03,-204.5 1547,-129 1579.04,-84.18 1499.79,-42.01 1453.91,-22.24"/>
<polygon fill="#63b8ff" stroke="#63b8ff" points="1455.26,-19.01 1444.68,-18.37 1452.55,-25.46 1455.26,-19.01"/>
</a>
</g>
</g>
<!-- Node28&#45;&gt;Node22 -->
<g id="edge48_Node000028_Node000022" class="edge">
<title>Node28&#45;&gt;Node22</title>
<g id="a_edge48_Node000028_Node000022"><a xlink:title=" ">
<path fill="none" stroke="#63b8ff" d="M1240,-219.63C1240,-199.21 1240,-161.81 1240,-139.24"/>
<polygon fill="#63b8ff" stroke="#63b8ff" points="1243.5,-139.23 1240,-129.23 1236.5,-139.23 1243.5,-139.23"/>
</a>
</g>
</g>
<!-- Node28&#45;&gt;Node29 -->
<g id="edge49_Node000028_Node000029" class="edge">
<title>Node28&#45;&gt;Node29</title>
<g id="a_edge49_Node000028_Node000029"><a xlink:title=" ">
<path fill="none" stroke="#63b8ff" d="M1263.95,-219.99C1279.89,-210.66 1300.73,-198.47 1316.56,-189.21"/>
<polygon fill="#63b8ff" stroke="#63b8ff" points="1318.37,-192.21 1325.23,-184.14 1314.83,-186.17 1318.37,-192.21"/>
</a>
</g>
</g>
<!-- Node29&#45;&gt;Node5 -->
<g id="edge56_Node000029_Node000005" class="edge">
<title>Node29&#45;&gt;Node5</title>
<g id="a_edge56_Node000029_Node000005"><a xlink:title=" ">
<path fill="none" stroke="#63b8ff" d="M1303.95,-173.81C1222.85,-173.71 1020.36,-169.09 857,-129 794.48,-113.66 781.85,-100.1 723,-74 685.5,-57.37 642.81,-36.67 616.14,-23.51"/>
<polygon fill="#63b8ff" stroke="#63b8ff" points="617.59,-20.33 607.07,-19.03 614.49,-26.6 617.59,-20.33"/>
</a>
</g>
</g>
<!-- Node29&#45;&gt;Node13 -->
<g id="edge57_Node000029_Node000013" class="edge">
<title>Node29&#45;&gt;Node13</title>
<g id="a_edge57_Node000029_Node000013"><a xlink:title=" ">
<path fill="none" stroke="#63b8ff" d="M1340,-164.66C1340,-147.17 1340,-107.8 1340,-84.27"/>
<polygon fill="#63b8ff" stroke="#63b8ff" points="1343.5,-84.16 1340,-74.16 1336.5,-84.16 1343.5,-84.16"/>
</a>
</g>
</g>
<!-- Node29&#45;&gt;Node19 -->
<g id="edge50_Node000029_Node000019" class="edge">
<title>Node29&#45;&gt;Node19</title>
<g id="a_edge50_Node000029_Node000019"><a xlink:title=" ">
<path fill="none" stroke="#63b8ff" d="M1353.11,-164.86C1388.79,-141.32 1485.12,-77.55 1487,-74 1497.84,-53.57 1474.74,-35.41 1453.52,-23.8"/>
<polygon fill="#63b8ff" stroke="#63b8ff" points="1454.84,-20.55 1444.34,-19.09 1451.64,-26.77 1454.84,-20.55"/>
</a>
</g>
</g>
<!-- Node29&#45;&gt;Node22 -->
<g id="edge55_Node000029_Node000022" class="edge">
<title>Node29&#45;&gt;Node22</title>
<g id="a_edge55_Node000029_Node000022"><a xlink:title=" ">
<path fill="none" stroke="#63b8ff" d="M1323.93,-164.98C1308.14,-156.61 1283.78,-143.7 1265.37,-133.95"/>
<polygon fill="#63b8ff" stroke="#63b8ff" points="1266.83,-130.76 1256.36,-129.17 1263.56,-136.95 1266.83,-130.76"/>
</a>
</g>
</g>
<!-- Node29&#45;&gt;Node23 -->
<g id="edge54_Node000029_Node000023" class="edge">
<title>Node29&#45;&gt;Node23</title>
<g id="a_edge54_Node000029_Node000023"><a xlink:title=" ">
<path fill="none" stroke="#63b8ff" d="M1346.87,-164.66C1360.91,-146.61 1393.06,-105.28 1411.11,-82.08"/>
<polygon fill="#63b8ff" stroke="#63b8ff" points="1413.89,-84.2 1417.27,-74.16 1408.36,-79.9 1413.89,-84.2"/>
</a>
</g>
</g>
<!-- Node30 -->
<g id="Node000030" class="node">
<title>Node30</title>
<g id="a_Node000030"><a xlink:href="transform_8h.html" target="_top" xlink:title=" ">
<polygon fill="white" stroke="#666666" points="1668,-129 1594,-129 1594,-110 1668,-110 1668,-129"/>
<text text-anchor="middle" x="1631" y="-117" font-family="Helvetica,sans-Serif" font-size="10.00">transform.h</text>
</a>
</g>
</g>
<!-- Node29&#45;&gt;Node30 -->
<g id="edge51_Node000029_Node000030" class="edge">
<title>Node29&#45;&gt;Node30</title>
<g id="a_edge51_Node000029_Node000030"><a xlink:title=" ">
<path fill="none" stroke="#63b8ff" d="M1376.27,-166.89C1428.73,-157.34 1525.84,-139.65 1583.81,-129.09"/>
<polygon fill="#63b8ff" stroke="#63b8ff" points="1584.6,-132.51 1593.82,-127.27 1583.35,-125.62 1584.6,-132.51"/>
</a>
</g>
</g>
<!-- Node32 -->
<g id="Node000032" class="node">
<title>Node32</title>
<g id="a_Node000032"><a xlink:title=" ">
<polygon fill="#e0e0e0" stroke="#999999" points="1537.5,-129 1444.5,-129 1444.5,-110 1537.5,-110 1537.5,-129"/>
<text text-anchor="middle" x="1491" y="-117" font-family="Helvetica,sans-Serif" font-size="10.00">unordered_map</text>
</a>
</g>
</g>
<!-- Node29&#45;&gt;Node32 -->
<g id="edge58_Node000029_Node000032" class="edge">
<title>Node29&#45;&gt;Node32</title>
<g id="a_edge58_Node000029_Node000032"><a xlink:title=" ">
<path fill="none" stroke="#63b8ff" d="M1364.26,-164.98C1389.32,-156.19 1428.63,-142.39 1456.83,-132.49"/>
<polygon fill="#63b8ff" stroke="#63b8ff" points="1458.02,-135.78 1466.3,-129.17 1455.7,-129.18 1458.02,-135.78"/>
</a>
</g>
</g>
<!-- Node30&#45;&gt;Node19 -->
<g id="edge52_Node000030_Node000019" class="edge">
<title>Node30&#45;&gt;Node19</title>
<g id="a_edge52_Node000030_Node000019"><a xlink:title=" ">
<path fill="none" stroke="#63b8ff" d="M1637.1,-109.63C1645.45,-96.29 1658.02,-70.9 1645,-55 1621.29,-26.04 1509.66,-15.52 1454.71,-12.04"/>
<polygon fill="#63b8ff" stroke="#63b8ff" points="1454.71,-8.54 1444.52,-11.44 1454.3,-15.52 1454.71,-8.54"/>
</a>
</g>
</g>
<!-- Node31 -->
<g id="Node000031" class="node">
<title>Node31</title>
<g id="a_Node000031"><a xlink:title=" ">
<polygon fill="#e0e0e0" stroke="#999999" points="1636,-74 1594,-74 1594,-55 1636,-55 1636,-74"/>
<text text-anchor="middle" x="1615" y="-62" font-family="Helvetica,sans-Serif" font-size="10.00">array</text>
</a>
</g>
</g>
<!-- Node30&#45;&gt;Node31 -->
<g id="edge53_Node000030_Node000031" class="edge">
<title>Node30&#45;&gt;Node31</title>
<g id="a_edge53_Node000030_Node000031"><a xlink:title=" ">
<path fill="none" stroke="#63b8ff" d="M1628.36,-109.75C1626.24,-102.72 1623.19,-92.62 1620.54,-83.84"/>
<polygon fill="#63b8ff" stroke="#63b8ff" points="1623.83,-82.65 1617.59,-74.09 1617.13,-84.67 1623.83,-82.65"/>
</a>
</g>
</g>
<!-- Node33&#45;&gt;Node2 -->
<g id="edge64_Node000033_Node000002" class="edge">
<title>Node33&#45;&gt;Node2</title>
<g id="a_edge64_Node000033_Node000002"><a xlink:title=" ">
<path fill="none" stroke="#63b8ff" d="M914.44,-109.75C919.89,-102.34 927.86,-91.5 934.56,-82.41"/>
<polygon fill="#63b8ff" stroke="#63b8ff" points="937.57,-84.22 940.68,-74.09 931.93,-80.07 937.57,-84.22"/>
</a>
</g>
</g>
<!-- Node33&#45;&gt;Node3 -->
<g id="edge65_Node000033_Node000003" class="edge">
<title>Node33&#45;&gt;Node3</title>
<g id="a_edge65_Node000033_Node000003"><a xlink:title=" ">
<path fill="none" stroke="#63b8ff" d="M903.17,-109.73C896.82,-96.95 887.54,-72.78 897,-55 904.49,-40.92 918.63,-30.5 931.91,-23.29"/>
<polygon fill="#63b8ff" stroke="#63b8ff" points="933.49,-26.41 940.87,-18.81 930.36,-20.15 933.49,-26.41"/>
</a>
</g>
</g>
<!-- Node33&#45;&gt;Node8 -->
<g id="edge66_Node000033_Node000008" class="edge">
<title>Node33&#45;&gt;Node8</title>
<g id="a_edge66_Node000033_Node000008"><a xlink:title=" ">
<path fill="none" stroke="#63b8ff" d="M872.39,-109.94C788.17,-89.68 577.52,-39.01 493.95,-18.91"/>
<polygon fill="#63b8ff" stroke="#63b8ff" points="494.72,-15.49 484.18,-16.56 493.08,-22.3 494.72,-15.49"/>
</a>
</g>
</g>
<!-- Node33&#45;&gt;Node15 -->
<g id="edge63_Node000033_Node000015" class="edge">
<title>Node33&#45;&gt;Node15</title>
<g id="a_edge63_Node000033_Node000015"><a xlink:title=" ">
<path fill="none" stroke="#63b8ff" d="M883.1,-109.98C856,-100.72 812.65,-85.9 783.53,-75.94"/>
<polygon fill="#63b8ff" stroke="#63b8ff" points="784.46,-72.56 773.87,-72.63 782.2,-79.18 784.46,-72.56"/>
</a>
</g>
</g>
<!-- Node33&#45;&gt;Node19 -->
<g id="edge67_Node000033_Node000019" class="edge">
<title>Node33&#45;&gt;Node19</title>
<g id="a_edge67_Node000033_Node000019"><a xlink:title=" ">
<path fill="none" stroke="#63b8ff" d="M949.68,-117.13C1016.36,-114.08 1150.65,-104.37 1260,-74 1280.13,-68.41 1283.63,-62.83 1303,-55 1333.64,-42.61 1369.19,-29.71 1393.79,-21.01"/>
<polygon fill="#63b8ff" stroke="#63b8ff" points="1395.02,-24.28 1403.29,-17.66 1392.7,-17.68 1395.02,-24.28"/>
</a>
</g>
</g>
</g>
</svg>
