<?xml version="1.0" encoding="UTF-8" standalone="no"?>
<!DOCTYPE svg PUBLIC "-//W3C//DTD SVG 1.1//EN"
 "http://www.w3.org/Graphics/SVG/1.1/DTD/svg11.dtd">
<!-- Generated by graphviz version 2.43.0 (0)
 -->
<!-- Title: message/message.cc Pages: 1 -->
<svg width="1374pt" height="247pt"
 viewBox="0.00 0.00 1373.95 247.00" xmlns="http://www.w3.org/2000/svg" xmlns:xlink="http://www.w3.org/1999/xlink">
<g id="graph0" class="graph" transform="scale(1 1) rotate(0) translate(4 243)">
<title>message/message.cc</title>
<!-- Node1 -->
<g id="Node000001" class="node">
<title>Node1</title>
<g id="a_Node000001"><a xlink:title=" ">
<polygon fill="#999999" stroke="#666666" points="801.89,-239 679.89,-239 679.89,-220 801.89,-220 801.89,-239"/>
<text text-anchor="middle" x="740.89" y="-227" font-family="Helvetica,sans-Serif" font-size="10.00">message/message.cc</text>
</a>
</g>
</g>
<!-- Node2 -->
<g id="Node000002" class="node">
<title>Node2</title>
<g id="a_Node000002"><a xlink:href="message_8h.html" target="_top" xlink:title=" ">
<polygon fill="white" stroke="#666666" points="735.89,-184 665.89,-184 665.89,-165 735.89,-165 735.89,-184"/>
<text text-anchor="middle" x="700.89" y="-172" font-family="Helvetica,sans-Serif" font-size="10.00">message.h</text>
</a>
</g>
</g>
<!-- Node1&#45;&gt;Node2 -->
<g id="edge1_Node000001_Node000002" class="edge">
<title>Node1&#45;&gt;Node2</title>
<g id="a_edge1_Node000001_Node000002"><a xlink:title=" ">
<path fill="none" stroke="#63b8ff" d="M734.28,-219.75C728.63,-212.26 720.34,-201.28 713.44,-192.13"/>
<polygon fill="#63b8ff" stroke="#63b8ff" points="716.19,-189.96 707.37,-184.09 710.6,-194.18 716.19,-189.96"/>
</a>
</g>
</g>
<!-- Node29 -->
<g id="Node000029" class="node">
<title>Node29</title>
<g id="a_Node000029"><a xlink:title=" ">
<polygon fill="#e0e0e0" stroke="#999999" points="809.89,-184 753.89,-184 753.89,-165 809.89,-165 809.89,-184"/>
<text text-anchor="middle" x="781.89" y="-172" font-family="Helvetica,sans-Serif" font-size="10.00">sstream</text>
</a>
</g>
</g>
<!-- Node1&#45;&gt;Node29 -->
<g id="edge52_Node000001_Node000029" class="edge">
<title>Node1&#45;&gt;Node29</title>
<g id="a_edge52_Node000001_Node000029"><a xlink:title=" ">
<path fill="none" stroke="#63b8ff" d="M747.66,-219.75C753.45,-212.26 761.95,-201.28 769.02,-192.13"/>
<polygon fill="#63b8ff" stroke="#63b8ff" points="771.89,-194.14 775.24,-184.09 766.36,-189.86 771.89,-194.14"/>
</a>
</g>
</g>
<!-- Node3 -->
<g id="Node000003" class="node">
<title>Node3</title>
<g id="a_Node000003"><a xlink:title=" ">
<polygon fill="#e0e0e0" stroke="#999999" points="1198.89,-74 1116.89,-74 1116.89,-55 1198.89,-55 1198.89,-74"/>
<text text-anchor="middle" x="1157.89" y="-62" font-family="Helvetica,sans-Serif" font-size="10.00">msgpack.hpp</text>
</a>
</g>
</g>
<!-- Node2&#45;&gt;Node3 -->
<g id="edge2_Node000002_Node000003" class="edge">
<title>Node2&#45;&gt;Node3</title>
<g id="a_edge2_Node000002_Node000003"><a xlink:title=" ">
<path fill="none" stroke="#63b8ff" d="M735.91,-166.48C738.94,-165.95 741.97,-165.45 744.89,-165 884.61,-143.58 927.94,-177.01 1060.89,-129 1091.45,-117.96 1122.04,-95.6 1140.47,-80.58"/>
<polygon fill="#63b8ff" stroke="#63b8ff" points="1142.83,-83.16 1148.26,-74.07 1138.34,-77.79 1142.83,-83.16"/>
</a>
</g>
</g>
<!-- Node4 -->
<g id="Node000004" class="node">
<title>Node4</title>
<g id="a_Node000004"><a xlink:title=" ">
<polygon fill="#e0e0e0" stroke="#999999" points="264.89,-19 220.89,-19 220.89,0 264.89,0 264.89,-19"/>
<text text-anchor="middle" x="242.89" y="-7" font-family="Helvetica,sans-Serif" font-size="10.00">string</text>
</a>
</g>
</g>
<!-- Node2&#45;&gt;Node4 -->
<g id="edge3_Node000002_Node000004" class="edge">
<title>Node2&#45;&gt;Node4</title>
<g id="a_edge3_Node000002_Node000004"><a xlink:title=" ">
<path fill="none" stroke="#63b8ff" d="M665.8,-174.24C577.09,-175.36 337.18,-173.65 143.89,-129 78.75,-113.95 41.54,-129.24 3.89,-74 -0.87,-67.02 -1.51,-61.49 3.89,-55 29.79,-23.83 151.33,-14.38 210.44,-11.61"/>
<polygon fill="#63b8ff" stroke="#63b8ff" points="210.88,-15.09 220.72,-11.16 210.57,-8.1 210.88,-15.09"/>
</a>
</g>
</g>
<!-- Node5 -->
<g id="Node000005" class="node">
<title>Node5</title>
<g id="a_Node000005"><a xlink:title=" ">
<polygon fill="#e0e0e0" stroke="#999999" points="242.39,-129 197.39,-129 197.39,-110 242.39,-110 242.39,-129"/>
<text text-anchor="middle" x="219.89" y="-117" font-family="Helvetica,sans-Serif" font-size="10.00">utility</text>
</a>
</g>
</g>
<!-- Node2&#45;&gt;Node5 -->
<g id="edge4_Node000002_Node000005" class="edge">
<title>Node2&#45;&gt;Node5</title>
<g id="a_edge4_Node000002_Node000005"><a xlink:title=" ">
<path fill="none" stroke="#63b8ff" d="M665.88,-172.05C591.37,-168.55 411.5,-157.79 252.43,-129"/>
<polygon fill="#63b8ff" stroke="#63b8ff" points="252.94,-125.53 242.47,-127.17 251.67,-132.42 252.94,-125.53"/>
</a>
</g>
</g>
<!-- Node6 -->
<g id="Node000006" class="node">
<title>Node6</title>
<g id="a_Node000006"><a xlink:title=" ">
<polygon fill="#e0e0e0" stroke="#999999" points="857.39,-19 810.39,-19 810.39,0 857.39,0 857.39,-19"/>
<text text-anchor="middle" x="833.89" y="-7" font-family="Helvetica,sans-Serif" font-size="10.00">vector</text>
</a>
</g>
</g>
<!-- Node2&#45;&gt;Node6 -->
<g id="edge5_Node000002_Node000006" class="edge">
<title>Node2&#45;&gt;Node6</title>
<g id="a_edge5_Node000002_Node000006"><a xlink:title=" ">
<path fill="none" stroke="#63b8ff" d="M736.06,-165.27C768.4,-156.94 812.94,-143.28 823.89,-129 846.11,-100.01 842.39,-54.5 837.98,-29.14"/>
<polygon fill="#63b8ff" stroke="#63b8ff" points="841.35,-28.18 835.99,-19.04 834.49,-29.53 841.35,-28.18"/>
</a>
</g>
</g>
<!-- Node7 -->
<g id="Node000007" class="node">
<title>Node7</title>
<g id="a_Node000007"><a xlink:title=" ">
<polygon fill="#e0e0e0" stroke="#999999" points="491.39,-129 444.39,-129 444.39,-110 491.39,-110 491.39,-129"/>
<text text-anchor="middle" x="467.89" y="-117" font-family="Helvetica,sans-Serif" font-size="10.00">deque</text>
</a>
</g>
</g>
<!-- Node2&#45;&gt;Node7 -->
<g id="edge6_Node000002_Node000007" class="edge">
<title>Node2&#45;&gt;Node7</title>
<g id="a_edge6_Node000002_Node000007"><a xlink:title=" ">
<path fill="none" stroke="#63b8ff" d="M665.56,-166.15C627.38,-158.09 564.51,-144.54 501.7,-129.37"/>
<polygon fill="#63b8ff" stroke="#63b8ff" points="502.17,-125.88 491.62,-126.92 500.52,-132.69 502.17,-125.88"/>
</a>
</g>
</g>
<!-- Node8 -->
<g id="Node000008" class="node">
<title>Node8</title>
<g id="a_Node000008"><a xlink:title=" ">
<polygon fill="#e0e0e0" stroke="#999999" points="544.39,-129 509.39,-129 509.39,-110 544.39,-110 544.39,-129"/>
<text text-anchor="middle" x="526.89" y="-117" font-family="Helvetica,sans-Serif" font-size="10.00">any</text>
</a>
</g>
</g>
<!-- Node2&#45;&gt;Node8 -->
<g id="edge7_Node000002_Node000008" class="edge">
<title>Node2&#45;&gt;Node8</title>
<g id="a_edge7_Node000002_Node000008"><a xlink:title=" ">
<path fill="none" stroke="#63b8ff" d="M672.4,-164.98C644.68,-156.66 601.11,-143.54 554.31,-129.11"/>
<polygon fill="#63b8ff" stroke="#63b8ff" points="555.19,-125.71 544.6,-126.11 553.12,-132.4 555.19,-125.71"/>
</a>
</g>
</g>
<!-- Node9 -->
<g id="Node000009" class="node">
<title>Node9</title>
<g id="a_Node000009"><a xlink:title=" ">
<polygon fill="#e0e0e0" stroke="#999999" points="1084.89,-19 1034.89,-19 1034.89,0 1084.89,0 1084.89,-19"/>
<text text-anchor="middle" x="1059.89" y="-7" font-family="Helvetica,sans-Serif" font-size="10.00">cstdint</text>
</a>
</g>
</g>
<!-- Node2&#45;&gt;Node9 -->
<g id="edge8_Node000002_Node000009" class="edge">
<title>Node2&#45;&gt;Node9</title>
<g id="a_edge8_Node000002_Node000009"><a xlink:title=" ">
<path fill="none" stroke="#63b8ff" d="M735.9,-166.41C738.93,-165.89 741.96,-165.41 744.89,-165 882.11,-145.56 1276.54,-183.2 1361.89,-74 1367.09,-67.35 1367.41,-61.39 1361.89,-55 1327.79,-15.51 1167.5,-10.44 1095.3,-10.21"/>
<polygon fill="#63b8ff" stroke="#63b8ff" points="1094.91,-6.71 1084.9,-10.2 1094.9,-13.71 1094.91,-6.71"/>
</a>
</g>
</g>
<!-- Node10 -->
<g id="Node000010" class="node">
<title>Node10</title>
<g id="a_Node000010"><a xlink:title=" ">
<polygon fill="#e0e0e0" stroke="#999999" points="814.39,-129 723.39,-129 723.39,-110 814.39,-110 814.39,-129"/>
<text text-anchor="middle" x="768.89" y="-117" font-family="Helvetica,sans-Serif" font-size="10.00">spdlog/logger.h</text>
</a>
</g>
</g>
<!-- Node2&#45;&gt;Node10 -->
<g id="edge9_Node000002_Node000010" class="edge">
<title>Node2&#45;&gt;Node10</title>
<g id="a_edge9_Node000002_Node000010"><a xlink:title=" ">
<path fill="none" stroke="#63b8ff" d="M711.81,-164.98C721.96,-157.07 737.31,-145.11 749.53,-135.58"/>
<polygon fill="#63b8ff" stroke="#63b8ff" points="752.03,-138.08 757.76,-129.17 747.72,-132.56 752.03,-138.08"/>
</a>
</g>
</g>
<!-- Node11 -->
<g id="Node000011" class="node">
<title>Node11</title>
<g id="a_Node000011"><a xlink:href="common_2func_8h.html" target="_top" xlink:title=" ">
<polygon fill="white" stroke="#666666" points="704.89,-129 562.89,-129 562.89,-110 704.89,-110 704.89,-129"/>
<text text-anchor="middle" x="633.89" y="-117" font-family="Helvetica,sans-Serif" font-size="10.00">webcface/common/func.h</text>
</a>
</g>
</g>
<!-- Node2&#45;&gt;Node11 -->
<g id="edge10_Node000002_Node000011" class="edge">
<title>Node2&#45;&gt;Node11</title>
<g id="a_edge10_Node000002_Node000011"><a xlink:title=" ">
<path fill="none" stroke="#63b8ff" d="M690.12,-164.98C680.12,-157.07 665,-145.11 652.96,-135.58"/>
<polygon fill="#63b8ff" stroke="#63b8ff" points="654.86,-132.63 644.85,-129.17 650.52,-138.12 654.86,-132.63"/>
</a>
</g>
</g>
<!-- Node21 -->
<g id="Node000021" class="node">
<title>Node21</title>
<g id="a_Node000021"><a xlink:href="common_2log_8h.html" target="_top" xlink:title=" ">
<polygon fill="white" stroke="#666666" points="148.89,-74 12.89,-74 12.89,-55 148.89,-55 148.89,-74"/>
<text text-anchor="middle" x="80.89" y="-62" font-family="Helvetica,sans-Serif" font-size="10.00">webcface/common/log.h</text>
</a>
</g>
</g>
<!-- Node2&#45;&gt;Node21 -->
<g id="edge28_Node000002_Node000021" class="edge">
<title>Node2&#45;&gt;Node21</title>
<g id="a_edge28_Node000002_Node000021"><a xlink:title=" ">
<path fill="none" stroke="#63b8ff" d="M665.81,-172.49C565.21,-169.27 277.25,-157.73 187.89,-129 154.39,-118.23 120.2,-95.46 99.76,-80.31"/>
<polygon fill="#63b8ff" stroke="#63b8ff" points="101.72,-77.41 91.64,-74.16 97.49,-82.99 101.72,-77.41"/>
</a>
</g>
</g>
<!-- Node23 -->
<g id="Node000023" class="node">
<title>Node23</title>
<g id="a_Node000023"><a xlink:href="common_2view_8h.html" target="_top" xlink:title=" ">
<polygon fill="white" stroke="#666666" points="403.39,-129 260.39,-129 260.39,-110 403.39,-110 403.39,-129"/>
<text text-anchor="middle" x="331.89" y="-117" font-family="Helvetica,sans-Serif" font-size="10.00">webcface/common/view.h</text>
</a>
</g>
</g>
<!-- Node2&#45;&gt;Node23 -->
<g id="edge32_Node000002_Node000023" class="edge">
<title>Node2&#45;&gt;Node23</title>
<g id="a_edge32_Node000002_Node000023"><a xlink:title=" ">
<path fill="none" stroke="#63b8ff" d="M665.84,-168.47C605.32,-159.77 480.17,-141.8 401.44,-130.49"/>
<polygon fill="#63b8ff" stroke="#63b8ff" points="401.52,-126.97 391.12,-129.01 400.52,-133.89 401.52,-126.97"/>
</a>
</g>
</g>
<!-- Node25 -->
<g id="Node000025" class="node">
<title>Node25</title>
<g id="a_Node000025"><a xlink:href="common_2image_8h.html" target="_top" xlink:title=" ">
<polygon fill="white" stroke="#666666" points="1022.89,-74 870.89,-74 870.89,-55 1022.89,-55 1022.89,-74"/>
<text text-anchor="middle" x="946.89" y="-62" font-family="Helvetica,sans-Serif" font-size="10.00">webcface/common/image.h</text>
</a>
</g>
</g>
<!-- Node2&#45;&gt;Node25 -->
<g id="edge39_Node000002_Node000025" class="edge">
<title>Node2&#45;&gt;Node25</title>
<g id="a_edge39_Node000002_Node000025"><a xlink:title=" ">
<path fill="none" stroke="#63b8ff" d="M735.95,-164.96C775.03,-155.18 835.55,-139.21 856.89,-129 883.92,-116.07 911.57,-95.18 928.97,-80.92"/>
<polygon fill="#63b8ff" stroke="#63b8ff" points="931.64,-83.24 937.07,-74.14 927.15,-77.87 931.64,-83.24"/>
</a>
</g>
</g>
<!-- Node27 -->
<g id="Node000027" class="node">
<title>Node27</title>
<g id="a_Node000027"><a xlink:title=" ">
<polygon fill="#e0e0e0" stroke="#999999" points="1352.89,-74 1216.89,-74 1216.89,-55 1352.89,-55 1352.89,-74"/>
<text text-anchor="middle" x="1284.89" y="-62" font-family="Helvetica,sans-Serif" font-size="10.00">webcface/common/def.h</text>
</a>
</g>
</g>
<!-- Node2&#45;&gt;Node27 -->
<g id="edge45_Node000002_Node000027" class="edge">
<title>Node2&#45;&gt;Node27</title>
<g id="a_edge45_Node000002_Node000027"><a xlink:title=" ">
<path fill="none" stroke="#63b8ff" d="M735.9,-166.45C738.94,-165.92 741.96,-165.43 744.89,-165 898.7,-142.23 940.85,-161.6 1092.89,-129 1151.5,-116.43 1217.34,-92.38 1254.69,-77.76"/>
<polygon fill="#63b8ff" stroke="#63b8ff" points="1255.98,-81.01 1263.99,-74.08 1253.41,-74.5 1255.98,-81.01"/>
</a>
</g>
</g>
<!-- Node28 -->
<g id="Node000028" class="node">
<title>Node28</title>
<g id="a_Node000028"><a xlink:href="val__adaptor_8h.html" target="_top" xlink:title=" ">
<polygon fill="white" stroke="#666666" points="1051.39,-129 968.39,-129 968.39,-110 1051.39,-110 1051.39,-129"/>
<text text-anchor="middle" x="1009.89" y="-117" font-family="Helvetica,sans-Serif" font-size="10.00">val_adaptor.h</text>
</a>
</g>
</g>
<!-- Node2&#45;&gt;Node28 -->
<g id="edge46_Node000002_Node000028" class="edge">
<title>Node2&#45;&gt;Node28</title>
<g id="a_edge46_Node000002_Node000028"><a xlink:title=" ">
<path fill="none" stroke="#63b8ff" d="M735.94,-166.65C738.96,-166.08 741.98,-165.53 744.89,-165 818.85,-151.65 904.68,-137.48 958.14,-128.8"/>
<polygon fill="#63b8ff" stroke="#63b8ff" points="958.75,-132.25 968.07,-127.2 957.63,-125.34 958.75,-132.25"/>
</a>
</g>
</g>
<!-- Node11&#45;&gt;Node4 -->
<g id="edge15_Node000011_Node000004" class="edge">
<title>Node11&#45;&gt;Node4</title>
<g id="a_edge15_Node000011_Node000004"><a xlink:title=" ">
<path fill="none" stroke="#63b8ff" d="M581.46,-109.98C541.87,-102.7 486.56,-90.75 439.89,-74 422.11,-67.62 419.5,-61.8 401.89,-55 358.93,-38.43 307.29,-25.13 274.77,-17.53"/>
<polygon fill="#63b8ff" stroke="#63b8ff" points="275.45,-14.09 264.92,-15.26 273.88,-20.91 275.45,-14.09"/>
</a>
</g>
</g>
<!-- Node11&#45;&gt;Node6 -->
<g id="edge11_Node000011_Node000006" class="edge">
<title>Node11&#45;&gt;Node6</title>
<g id="a_edge11_Node000011_Node000006"><a xlink:title=" ">
<path fill="none" stroke="#63b8ff" d="M694.38,-109.96C723.93,-103.6 758.85,-92.67 785.89,-74 802.89,-62.26 816.4,-42.58 824.71,-28.23"/>
<polygon fill="#63b8ff" stroke="#63b8ff" points="827.86,-29.77 829.6,-19.32 821.72,-26.4 827.86,-29.77"/>
</a>
</g>
</g>
<!-- Node11&#45;&gt;Node9 -->
<g id="edge17_Node000011_Node000009" class="edge">
<title>Node11&#45;&gt;Node9</title>
<g id="a_edge17_Node000011_Node000009"><a xlink:title=" ">
<path fill="none" stroke="#63b8ff" d="M705.24,-110.97C818.88,-98.92 1028.62,-76.4 1031.89,-74 1046.28,-63.43 1053.39,-43.81 1056.83,-29.17"/>
<polygon fill="#63b8ff" stroke="#63b8ff" points="1060.3,-29.66 1058.8,-19.17 1053.43,-28.31 1060.3,-29.66"/>
</a>
</g>
</g>
<!-- Node12 -->
<g id="Node000012" class="node">
<title>Node12</title>
<g id="a_Node000012"><a xlink:title=" ">
<polygon fill="#e0e0e0" stroke="#999999" points="518.39,-74 449.39,-74 449.39,-55 518.39,-55 518.39,-74"/>
<text text-anchor="middle" x="483.89" y="-62" font-family="Helvetica,sans-Serif" font-size="10.00">type_traits</text>
</a>
</g>
</g>
<!-- Node11&#45;&gt;Node12 -->
<g id="edge12_Node000011_Node000012" class="edge">
<title>Node11&#45;&gt;Node12</title>
<g id="a_edge12_Node000011_Node000012"><a xlink:title=" ">
<path fill="none" stroke="#63b8ff" d="M609.79,-109.98C585,-101.23 546.18,-87.51 518.2,-77.62"/>
<polygon fill="#63b8ff" stroke="#63b8ff" points="519.02,-74.2 508.43,-74.17 516.69,-80.8 519.02,-74.2"/>
</a>
</g>
</g>
<!-- Node13 -->
<g id="Node000013" class="node">
<title>Node13</title>
<g id="a_Node000013"><a xlink:title=" ">
<polygon fill="#e0e0e0" stroke="#999999" points="640.39,-74 575.39,-74 575.39,-55 640.39,-55 640.39,-74"/>
<text text-anchor="middle" x="607.89" y="-62" font-family="Helvetica,sans-Serif" font-size="10.00">functional</text>
</a>
</g>
</g>
<!-- Node11&#45;&gt;Node13 -->
<g id="edge13_Node000011_Node000013" class="edge">
<title>Node11&#45;&gt;Node13</title>
<g id="a_edge13_Node000011_Node000013"><a xlink:title=" ">
<path fill="none" stroke="#63b8ff" d="M629.59,-109.75C626.07,-102.57 620.97,-92.18 616.6,-83.27"/>
<polygon fill="#63b8ff" stroke="#63b8ff" points="619.65,-81.53 612.1,-74.09 613.36,-84.61 619.65,-81.53"/>
</a>
</g>
</g>
<!-- Node14 -->
<g id="Node000014" class="node">
<title>Node14</title>
<g id="a_Node000014"><a xlink:title=" ">
<polygon fill="#e0e0e0" stroke="#999999" points="392.89,-74 336.89,-74 336.89,-55 392.89,-55 392.89,-74"/>
<text text-anchor="middle" x="364.89" y="-62" font-family="Helvetica,sans-Serif" font-size="10.00">optional</text>
</a>
</g>
</g>
<!-- Node11&#45;&gt;Node14 -->
<g id="edge14_Node000011_Node000014" class="edge">
<title>Node11&#45;&gt;Node14</title>
<g id="a_edge14_Node000011_Node000014"><a xlink:title=" ">
<path fill="none" stroke="#63b8ff" d="M589.93,-109.97C544.19,-101.07 470.5,-86.67 406.89,-74 405.62,-73.75 404.32,-73.49 403.01,-73.23"/>
<polygon fill="#63b8ff" stroke="#63b8ff" points="403.39,-69.73 392.9,-71.19 402.01,-76.6 403.39,-69.73"/>
</a>
</g>
</g>
<!-- Node15 -->
<g id="Node000015" class="node">
<title>Node15</title>
<g id="a_Node000015"><a xlink:title=" ">
<polygon fill="#e0e0e0" stroke="#999999" points="654.39,-19 597.39,-19 597.39,0 654.39,0 654.39,-19"/>
<text text-anchor="middle" x="625.89" y="-7" font-family="Helvetica,sans-Serif" font-size="10.00">ostream</text>
</a>
</g>
</g>
<!-- Node11&#45;&gt;Node15 -->
<g id="edge16_Node000011_Node000015" class="edge">
<title>Node11&#45;&gt;Node15</title>
<g id="a_edge16_Node000011_Node000015"><a xlink:title=" ">
<path fill="none" stroke="#63b8ff" d="M638.82,-109.87C645.17,-97.66 654.84,-74.62 649.89,-55 647.47,-45.44 642.56,-35.7 637.8,-27.78"/>
<polygon fill="#63b8ff" stroke="#63b8ff" points="640.61,-25.68 632.25,-19.16 634.72,-29.46 640.61,-25.68"/>
</a>
</g>
</g>
<!-- Node16 -->
<g id="Node000016" class="node">
<title>Node16</title>
<g id="a_Node000016"><a xlink:href="val_8h.html" target="_top" xlink:title=" ">
<polygon fill="white" stroke="#666666" points="776.39,-74 735.39,-74 735.39,-55 776.39,-55 776.39,-74"/>
<text text-anchor="middle" x="755.89" y="-62" font-family="Helvetica,sans-Serif" font-size="10.00">val.h</text>
</a>
</g>
</g>
<!-- Node11&#45;&gt;Node16 -->
<g id="edge18_Node000011_Node000016" class="edge">
<title>Node11&#45;&gt;Node16</title>
<g id="a_edge18_Node000011_Node000016"><a xlink:title=" ">
<path fill="none" stroke="#63b8ff" d="M653.49,-109.98C673.2,-101.42 703.84,-88.11 726.47,-78.28"/>
<polygon fill="#63b8ff" stroke="#63b8ff" points="728.15,-81.37 735.93,-74.17 725.36,-74.94 728.15,-81.37"/>
</a>
</g>
</g>
<!-- Node20 -->
<g id="Node000020" class="node">
<title>Node20</title>
<g id="a_Node000020"><a xlink:title=" ">
<polygon fill="#e0e0e0" stroke="#999999" points="448.39,-19 407.39,-19 407.39,0 448.39,0 448.39,-19"/>
<text text-anchor="middle" x="427.89" y="-7" font-family="Helvetica,sans-Serif" font-size="10.00">def.h</text>
</a>
</g>
</g>
<!-- Node11&#45;&gt;Node20 -->
<g id="edge27_Node000011_Node000020" class="edge">
<title>Node11&#45;&gt;Node20</title>
<g id="a_edge27_Node000011_Node000020"><a xlink:title=" ">
<path fill="none" stroke="#63b8ff" d="M620.65,-109.98C600.71,-97.3 561.59,-73.02 526.89,-55 504.28,-43.26 477.95,-31.51 458.13,-23.04"/>
<polygon fill="#63b8ff" stroke="#63b8ff" points="459.26,-19.72 448.69,-19.04 456.53,-26.16 459.26,-19.72"/>
</a>
</g>
</g>
<!-- Node16&#45;&gt;Node4 -->
<g id="edge19_Node000016_Node000004" class="edge">
<title>Node16&#45;&gt;Node4</title>
<g id="a_edge19_Node000016_Node000004"><a xlink:title=" ">
<path fill="none" stroke="#63b8ff" d="M735.13,-61C720.53,-59.26 700.52,-56.92 682.89,-55 530.79,-38.45 348.88,-20.7 275.72,-13.65"/>
<polygon fill="#63b8ff" stroke="#63b8ff" points="275.63,-10.12 265.34,-12.65 274.96,-17.09 275.63,-10.12"/>
</a>
</g>
</g>
<!-- Node16&#45;&gt;Node6 -->
<g id="edge20_Node000016_Node000006" class="edge">
<title>Node16&#45;&gt;Node6</title>
<g id="a_edge20_Node000016_Node000006"><a xlink:title=" ">
<path fill="none" stroke="#63b8ff" d="M768.42,-54.98C780.29,-46.92 798.35,-34.65 812.5,-25.03"/>
<polygon fill="#63b8ff" stroke="#63b8ff" points="814.82,-27.69 821.13,-19.17 810.89,-21.9 814.82,-27.69"/>
</a>
</g>
</g>
<!-- Node16&#45;&gt;Node9 -->
<g id="edge24_Node000016_Node000009" class="edge">
<title>Node16&#45;&gt;Node9</title>
<g id="a_edge24_Node000016_Node000009"><a xlink:title=" ">
<path fill="none" stroke="#63b8ff" d="M776.66,-60.67C820.61,-54.55 926.43,-39.15 1024.88,-19.07"/>
<polygon fill="#63b8ff" stroke="#63b8ff" points="1025.6,-22.49 1034.69,-17.04 1024.19,-15.63 1025.6,-22.49"/>
</a>
</g>
</g>
<!-- Node16&#45;&gt;Node15 -->
<g id="edge25_Node000016_Node000015" class="edge">
<title>Node16&#45;&gt;Node15</title>
<g id="a_edge25_Node000016_Node000015"><a xlink:title=" ">
<path fill="none" stroke="#63b8ff" d="M735.29,-55.1C714.02,-46.43 680.6,-32.81 656.29,-22.9"/>
<polygon fill="#63b8ff" stroke="#63b8ff" points="657.4,-19.57 646.82,-19.03 654.76,-26.05 657.4,-19.57"/>
</a>
</g>
</g>
<!-- Node17 -->
<g id="Node000017" class="node">
<title>Node17</title>
<g id="a_Node000017"><a xlink:title=" ">
<polygon fill="#e0e0e0" stroke="#999999" points="792.39,-19 751.39,-19 751.39,0 792.39,0 792.39,-19"/>
<text text-anchor="middle" x="771.89" y="-7" font-family="Helvetica,sans-Serif" font-size="10.00">tuple</text>
</a>
</g>
</g>
<!-- Node16&#45;&gt;Node17 -->
<g id="edge21_Node000016_Node000017" class="edge">
<title>Node16&#45;&gt;Node17</title>
<g id="a_edge21_Node000016_Node000017"><a xlink:title=" ">
<path fill="none" stroke="#63b8ff" d="M758.53,-54.75C760.65,-47.72 763.7,-37.62 766.35,-28.84"/>
<polygon fill="#63b8ff" stroke="#63b8ff" points="769.76,-29.67 769.29,-19.09 763.05,-27.65 769.76,-29.67"/>
</a>
</g>
</g>
<!-- Node18 -->
<g id="Node000018" class="node">
<title>Node18</title>
<g id="a_Node000018"><a xlink:title=" ">
<polygon fill="#e0e0e0" stroke="#999999" points="732.89,-19 672.89,-19 672.89,0 732.89,0 732.89,-19"/>
<text text-anchor="middle" x="702.89" y="-7" font-family="Helvetica,sans-Serif" font-size="10.00">concepts</text>
</a>
</g>
</g>
<!-- Node16&#45;&gt;Node18 -->
<g id="edge22_Node000016_Node000018" class="edge">
<title>Node16&#45;&gt;Node18</title>
<g id="a_edge22_Node000016_Node000018"><a xlink:title=" ">
<path fill="none" stroke="#63b8ff" d="M747.14,-54.75C739.42,-47.03 727.98,-35.6 718.67,-26.28"/>
<polygon fill="#63b8ff" stroke="#63b8ff" points="721.02,-23.69 711.48,-19.09 716.07,-28.64 721.02,-23.69"/>
</a>
</g>
</g>
<!-- Node19 -->
<g id="Node000019" class="node">
<title>Node19</title>
<g id="a_Node000019"><a xlink:title=" ">
<polygon fill="#e0e0e0" stroke="#999999" points="940.39,-19 875.39,-19 875.39,0 940.39,0 940.39,-19"/>
<text text-anchor="middle" x="907.89" y="-7" font-family="Helvetica,sans-Serif" font-size="10.00">stdexcept</text>
</a>
</g>
</g>
<!-- Node16&#45;&gt;Node19 -->
<g id="edge23_Node000016_Node000019" class="edge">
<title>Node16&#45;&gt;Node19</title>
<g id="a_edge23_Node000016_Node000019"><a xlink:title=" ">
<path fill="none" stroke="#63b8ff" d="M776.7,-56.24C801.69,-47.53 843.93,-32.8 873.72,-22.41"/>
<polygon fill="#63b8ff" stroke="#63b8ff" points="875.01,-25.67 883.3,-19.07 872.71,-19.06 875.01,-25.67"/>
</a>
</g>
</g>
<!-- Node16&#45;&gt;Node20 -->
<g id="edge26_Node000016_Node000020" class="edge">
<title>Node16&#45;&gt;Node20</title>
<g id="a_edge26_Node000016_Node000020"><a xlink:title=" ">
<path fill="none" stroke="#63b8ff" d="M735.37,-60.18C679.57,-51.17 524.83,-26.16 458.6,-15.46"/>
<polygon fill="#63b8ff" stroke="#63b8ff" points="458.83,-11.95 448.4,-13.81 457.71,-18.86 458.83,-11.95"/>
</a>
</g>
</g>
<!-- Node21&#45;&gt;Node4 -->
<g id="edge29_Node000021_Node000004" class="edge">
<title>Node21&#45;&gt;Node4</title>
<g id="a_edge29_Node000021_Node000004"><a xlink:title=" ">
<path fill="none" stroke="#63b8ff" d="M106.92,-54.98C135.2,-45.73 180.42,-30.94 210.86,-20.98"/>
<polygon fill="#63b8ff" stroke="#63b8ff" points="212.16,-24.24 220.57,-17.8 209.98,-17.58 212.16,-24.24"/>
</a>
</g>
</g>
<!-- Node21&#45;&gt;Node20 -->
<g id="edge31_Node000021_Node000020" class="edge">
<title>Node21&#45;&gt;Node20</title>
<g id="a_edge31_Node000021_Node000020"><a xlink:title=" ">
<path fill="none" stroke="#63b8ff" d="M136.64,-54.98C210.58,-43.69 338.56,-24.14 397.08,-15.21"/>
<polygon fill="#63b8ff" stroke="#63b8ff" points="397.81,-18.63 407.17,-13.66 396.75,-11.71 397.81,-18.63"/>
</a>
</g>
</g>
<!-- Node22 -->
<g id="Node000022" class="node">
<title>Node22</title>
<g id="a_Node000022"><a xlink:title=" ">
<polygon fill="#e0e0e0" stroke="#999999" points="105.89,-19 55.89,-19 55.89,0 105.89,0 105.89,-19"/>
<text text-anchor="middle" x="80.89" y="-7" font-family="Helvetica,sans-Serif" font-size="10.00">chrono</text>
</a>
</g>
</g>
<!-- Node21&#45;&gt;Node22 -->
<g id="edge30_Node000021_Node000022" class="edge">
<title>Node21&#45;&gt;Node22</title>
<g id="a_edge30_Node000021_Node000022"><a xlink:title=" ">
<path fill="none" stroke="#63b8ff" d="M80.89,-54.75C80.89,-47.8 80.89,-37.85 80.89,-29.13"/>
<polygon fill="#63b8ff" stroke="#63b8ff" points="84.39,-29.09 80.89,-19.09 77.39,-29.09 84.39,-29.09"/>
</a>
</g>
</g>
<!-- Node23&#45;&gt;Node4 -->
<g id="edge33_Node000023_Node000004" class="edge">
<title>Node23&#45;&gt;Node4</title>
<g id="a_edge33_Node000023_Node000004"><a xlink:title=" ">
<path fill="none" stroke="#63b8ff" d="M260.31,-112.01C235.86,-105.97 210.91,-94.72 195.89,-74 183.57,-57.01 202.76,-37.65 220.19,-24.82"/>
<polygon fill="#63b8ff" stroke="#63b8ff" points="222.24,-27.66 228.47,-19.09 218.25,-21.91 222.24,-27.66"/>
</a>
</g>
</g>
<!-- Node23&#45;&gt;Node14 -->
<g id="edge34_Node000023_Node000014" class="edge">
<title>Node23&#45;&gt;Node14</title>
<g id="a_edge34_Node000023_Node000014"><a xlink:title=" ">
<path fill="none" stroke="#63b8ff" d="M337.34,-109.75C341.9,-102.42 348.56,-91.73 354.18,-82.7"/>
<polygon fill="#63b8ff" stroke="#63b8ff" points="357.23,-84.43 359.54,-74.09 351.28,-80.73 357.23,-84.43"/>
</a>
</g>
</g>
<!-- Node23&#45;&gt;Node20 -->
<g id="edge38_Node000023_Node000020" class="edge">
<title>Node23&#45;&gt;Node20</title>
<g id="a_edge38_Node000023_Node000020"><a xlink:title=" ">
<path fill="none" stroke="#63b8ff" d="M328.33,-109.88C323.58,-96.84 316.94,-71.86 327.89,-55 343.13,-31.54 373.91,-20.35 397.32,-15.07"/>
<polygon fill="#63b8ff" stroke="#63b8ff" points="398.04,-18.49 407.15,-13.09 396.66,-11.63 398.04,-18.49"/>
</a>
</g>
</g>
<!-- Node24 -->
<g id="Node000024" class="node">
<title>Node24</title>
<g id="a_Node000024"><a xlink:href="field__base_8h.html" target="_top" xlink:title=" ">
<polygon fill="white" stroke="#666666" points="280.39,-74 205.39,-74 205.39,-55 280.39,-55 280.39,-74"/>
<text text-anchor="middle" x="242.89" y="-62" font-family="Helvetica,sans-Serif" font-size="10.00">field_base.h</text>
</a>
</g>
</g>
<!-- Node23&#45;&gt;Node24 -->
<g id="edge35_Node000023_Node000024" class="edge">
<title>Node23&#45;&gt;Node24</title>
<g id="a_edge35_Node000023_Node000024"><a xlink:title=" ">
<path fill="none" stroke="#63b8ff" d="M317.59,-109.98C303.79,-101.77 282.65,-89.18 266.37,-79.49"/>
<polygon fill="#63b8ff" stroke="#63b8ff" points="267.83,-76.28 257.45,-74.17 264.25,-82.29 267.83,-76.28"/>
</a>
</g>
</g>
<!-- Node24&#45;&gt;Node4 -->
<g id="edge36_Node000024_Node000004" class="edge">
<title>Node24&#45;&gt;Node4</title>
<g id="a_edge36_Node000024_Node000004"><a xlink:title=" ">
<path fill="none" stroke="#63b8ff" d="M242.89,-54.75C242.89,-47.8 242.89,-37.85 242.89,-29.13"/>
<polygon fill="#63b8ff" stroke="#63b8ff" points="246.39,-29.09 242.89,-19.09 239.39,-29.09 246.39,-29.09"/>
</a>
</g>
</g>
<!-- Node24&#45;&gt;Node20 -->
<g id="edge37_Node000024_Node000020" class="edge">
<title>Node24&#45;&gt;Node20</title>
<g id="a_edge37_Node000024_Node000020"><a xlink:title=" ">
<path fill="none" stroke="#63b8ff" d="M272.61,-54.98C306.77,-45.2 362.54,-29.22 397.13,-19.31"/>
<polygon fill="#63b8ff" stroke="#63b8ff" points="398.49,-22.56 407.14,-16.45 396.56,-15.83 398.49,-22.56"/>
</a>
</g>
</g>
<!-- Node25&#45;&gt;Node6 -->
<g id="edge40_Node000025_Node000006" class="edge">
<title>Node25&#45;&gt;Node6</title>
<g id="a_edge40_Node000025_Node000006"><a xlink:title=" ">
<path fill="none" stroke="#63b8ff" d="M928.73,-54.98C910.64,-46.5 882.6,-33.35 861.7,-23.54"/>
<polygon fill="#63b8ff" stroke="#63b8ff" points="862.91,-20.25 852.37,-19.17 859.94,-26.59 862.91,-20.25"/>
</a>
</g>
</g>
<!-- Node25&#45;&gt;Node9 -->
<g id="edge42_Node000025_Node000009" class="edge">
<title>Node25&#45;&gt;Node9</title>
<g id="a_edge42_Node000025_Node000009"><a xlink:title=" ">
<path fill="none" stroke="#63b8ff" d="M965.04,-54.98C983.14,-46.5 1011.17,-33.35 1032.07,-23.54"/>
<polygon fill="#63b8ff" stroke="#63b8ff" points="1033.83,-26.59 1041.4,-19.17 1030.86,-20.25 1033.83,-26.59"/>
</a>
</g>
</g>
<!-- Node25&#45;&gt;Node19 -->
<g id="edge43_Node000025_Node000019" class="edge">
<title>Node25&#45;&gt;Node19</title>
<g id="a_edge43_Node000025_Node000019"><a xlink:title=" ">
<path fill="none" stroke="#63b8ff" d="M940.45,-54.75C935,-47.34 927.02,-36.5 920.33,-27.41"/>
<polygon fill="#63b8ff" stroke="#63b8ff" points="922.95,-25.07 914.21,-19.09 917.32,-29.22 922.95,-25.07"/>
</a>
</g>
</g>
<!-- Node25&#45;&gt;Node20 -->
<g id="edge44_Node000025_Node000020" class="edge">
<title>Node25&#45;&gt;Node20</title>
<g id="a_edge44_Node000025_Node000020"><a xlink:title=" ">
<path fill="none" stroke="#63b8ff" d="M870.86,-55.74C754.96,-43.9 539.09,-21.86 458.92,-13.67"/>
<polygon fill="#63b8ff" stroke="#63b8ff" points="458.83,-10.14 448.53,-12.61 458.12,-17.11 458.83,-10.14"/>
</a>
</g>
</g>
<!-- Node26 -->
<g id="Node000026" class="node">
<title>Node26</title>
<g id="a_Node000026"><a xlink:title=" ">
<polygon fill="#e0e0e0" stroke="#999999" points="1016.89,-19 958.89,-19 958.89,0 1016.89,0 1016.89,-19"/>
<text text-anchor="middle" x="987.89" y="-7" font-family="Helvetica,sans-Serif" font-size="10.00">memory</text>
</a>
</g>
</g>
<!-- Node25&#45;&gt;Node26 -->
<g id="edge41_Node000025_Node000026" class="edge">
<title>Node25&#45;&gt;Node26</title>
<g id="a_edge41_Node000025_Node000026"><a xlink:title=" ">
<path fill="none" stroke="#63b8ff" d="M953.66,-54.75C959.45,-47.26 967.95,-36.28 975.02,-27.13"/>
<polygon fill="#63b8ff" stroke="#63b8ff" points="977.89,-29.14 981.24,-19.09 972.36,-24.86 977.89,-29.14"/>
</a>
</g>
</g>
<!-- Node28&#45;&gt;Node3 -->
<g id="edge48_Node000028_Node000003" class="edge">
<title>Node28&#45;&gt;Node3</title>
<g id="a_edge48_Node000028_Node000003"><a xlink:title=" ">
<path fill="none" stroke="#63b8ff" d="M1033.67,-109.98C1058.12,-101.23 1096.42,-87.51 1124.03,-77.62"/>
<polygon fill="#63b8ff" stroke="#63b8ff" points="1125.44,-80.84 1133.68,-74.17 1123.08,-74.25 1125.44,-80.84"/>
</a>
</g>
</g>
<!-- Node28&#45;&gt;Node4 -->
<g id="edge49_Node000028_Node000004" class="edge">
<title>Node28&#45;&gt;Node4</title>
<g id="a_edge49_Node000028_Node000004"><a xlink:title=" ">
<path fill="none" stroke="#63b8ff" d="M967.97,-113.06C912.55,-105.6 811.96,-91.15 726.89,-74 692.33,-67.03 684.6,-61.15 649.89,-55 511.7,-30.51 344.58,-17.33 275.34,-12.58"/>
<polygon fill="#63b8ff" stroke="#63b8ff" points="275.31,-9.07 265.09,-11.89 274.84,-16.05 275.31,-9.07"/>
</a>
</g>
</g>
<!-- Node28&#45;&gt;Node9 -->
<g id="edge50_Node000028_Node000009" class="edge">
<title>Node28&#45;&gt;Node9</title>
<g id="a_edge50_Node000028_Node000009"><a xlink:title=" ">
<path fill="none" stroke="#63b8ff" d="M1027.35,-109.88C1040.36,-102.38 1057.16,-90.18 1064.89,-74 1071.59,-59.97 1069.42,-42.19 1066.1,-29.02"/>
<polygon fill="#63b8ff" stroke="#63b8ff" points="1069.4,-27.82 1063.21,-19.22 1062.68,-29.8 1069.4,-27.82"/>
</a>
</g>
</g>
<!-- Node28&#45;&gt;Node16 -->
<g id="edge47_Node000028_Node000016" class="edge">
<title>Node28&#45;&gt;Node16</title>
<g id="a_edge47_Node000028_Node000016"><a xlink:title=" ">
<path fill="none" stroke="#63b8ff" d="M969.08,-109.98C918.08,-99.34 831.97,-81.38 786.36,-71.86"/>
<polygon fill="#63b8ff" stroke="#63b8ff" points="786.98,-68.41 776.47,-69.8 785.55,-75.26 786.98,-68.41"/>
</a>
</g>
</g>
<!-- Node28&#45;&gt;Node27 -->
<g id="edge51_Node000028_Node000027" class="edge">
<title>Node28&#45;&gt;Node27</title>
<g id="a_edge51_Node000028_Node000027"><a xlink:title=" ">
<path fill="none" stroke="#63b8ff" d="M1051.65,-110.45C1099.51,-101.23 1178.07,-86.09 1230.62,-75.96"/>
<polygon fill="#63b8ff" stroke="#63b8ff" points="1231.29,-79.39 1240.44,-74.07 1229.96,-72.52 1231.29,-79.39"/>
</a>
</g>
</g>
</g>
</svg>
