<?xml version="1.0" encoding="UTF-8" standalone="no"?>
<!DOCTYPE svg PUBLIC "-//W3C//DTD SVG 1.1//EN"
 "http://www.w3.org/Graphics/SVG/1.1/DTD/svg11.dtd">
<!-- Generated by graphviz version 2.43.0 (0)
 -->
<!-- Title: common/include/webcface/common/internal/mutex.h Pages: 1 -->
<svg width="653pt" height="148pt"
 viewBox="0.00 0.00 653.12 148.00" xmlns="http://www.w3.org/2000/svg" xmlns:xlink="http://www.w3.org/1999/xlink">
<g id="graph0" class="graph" transform="scale(1 1) rotate(0) translate(4 144)">
<title>common/include/webcface/common/internal/mutex.h</title>
<!-- Node1 -->
<g id="Node000001" class="node">
<title>Node1</title>
<g id="a_Node000001"><a xlink:title=" ">
<polygon fill="#999999" stroke="#666666" points="380.62,-140 233.62,-140 233.62,-110 380.62,-110 380.62,-140"/>
<text text-anchor="start" x="241.62" y="-128" font-family="Helvetica,sans-Serif" font-size="10.00">common/include/webcface</text>
<text text-anchor="middle" x="307.12" y="-117" font-family="Helvetica,sans-Serif" font-size="10.00">/common/internal/mutex.h</text>
</a>
</g>
</g>
<!-- Node2 -->
<g id="Node000002" class="node">
<title>Node2</title>
<g id="a_Node000002"><a xlink:href="webcface-config_8h.html" target="_top" xlink:title=" ">
<polygon fill="white" stroke="#666666" points="351.62,-19 246.62,-19 246.62,0 351.62,0 351.62,-19"/>
<text text-anchor="middle" x="299.12" y="-7" font-family="Helvetica,sans-Serif" font-size="10.00">webcface&#45;config.h</text>
</a>
</g>
</g>
<!-- Node1&#45;&gt;Node2 -->
<g id="edge1_Node000001_Node000002" class="edge">
<title>Node1&#45;&gt;Node2</title>
<g id="a_edge1_Node000001_Node000002"><a xlink:title=" ">
<path fill="none" stroke="#63b8ff" d="M233.52,-122.4C153.45,-118.91 32.97,-108 4.12,-74 -1.34,-67.56 -1.39,-61.4 4.12,-55 33.46,-20.9 158.8,-12.59 236.36,-10.77"/>
<polygon fill="#63b8ff" stroke="#63b8ff" points="236.57,-14.26 246.5,-10.56 236.43,-7.27 236.57,-14.26"/>
</a>
</g>
</g>
<!-- Node3 -->
<g id="Node000003" class="node">
<title>Node3</title>
<g id="a_Node000003"><a xlink:title=" ">
<polygon fill="#e0e0e0" stroke="#999999" points="99.12,-74 13.12,-74 13.12,-55 99.12,-55 99.12,-74"/>
<text text-anchor="middle" x="56.12" y="-62" font-family="Helvetica,sans-Serif" font-size="10.00">shared_mutex</text>
</a>
</g>
</g>
<!-- Node1&#45;&gt;Node3 -->
<g id="edge2_Node000001_Node000003" class="edge">
<title>Node1&#45;&gt;Node3</title>
<g id="a_edge2_Node000001_Node000003"><a xlink:title=" ">
<path fill="none" stroke="#63b8ff" d="M247,-109.99C202.74,-99.67 143.44,-85.85 102.74,-76.37"/>
<polygon fill="#63b8ff" stroke="#63b8ff" points="103.35,-72.91 92.82,-74.05 101.76,-79.73 103.35,-72.91"/>
</a>
</g>
</g>
<!-- Node4 -->
<g id="Node000004" class="node">
<title>Node4</title>
<g id="a_Node000004"><a xlink:title=" ">
<polygon fill="#e0e0e0" stroke="#999999" points="165.12,-74 117.12,-74 117.12,-55 165.12,-55 165.12,-74"/>
<text text-anchor="middle" x="141.12" y="-62" font-family="Helvetica,sans-Serif" font-size="10.00">mutex</text>
</a>
</g>
</g>
<!-- Node1&#45;&gt;Node4 -->
<g id="edge3_Node000001_Node000004" class="edge">
<title>Node1&#45;&gt;Node4</title>
<g id="a_edge3_Node000001_Node000004"><a xlink:title=" ">
<path fill="none" stroke="#63b8ff" d="M267.36,-109.99C239.12,-100.04 201.62,-86.82 174.84,-77.39"/>
<polygon fill="#63b8ff" stroke="#63b8ff" points="175.74,-73.99 165.15,-73.97 173.42,-80.59 175.74,-73.99"/>
</a>
</g>
</g>
<!-- Node5 -->
<g id="Node000005" class="node">
<title>Node5</title>
<g id="a_Node000005"><a xlink:title=" ">
<polygon fill="#e0e0e0" stroke="#999999" points="235.12,-74 183.12,-74 183.12,-55 235.12,-55 235.12,-74"/>
<text text-anchor="middle" x="209.12" y="-62" font-family="Helvetica,sans-Serif" font-size="10.00">cassert</text>
</a>
</g>
</g>
<!-- Node1&#45;&gt;Node5 -->
<g id="edge4_Node000001_Node000005" class="edge">
<title>Node1&#45;&gt;Node5</title>
<g id="a_edge4_Node000001_Node000005"><a xlink:title=" ">
<path fill="none" stroke="#63b8ff" d="M283.4,-109.84C267.92,-100.6 247.8,-88.59 232.41,-79.4"/>
<polygon fill="#63b8ff" stroke="#63b8ff" points="233.9,-76.21 223.52,-74.09 230.31,-82.23 233.9,-76.21"/>
</a>
</g>
</g>
<!-- Node6 -->
<g id="Node000006" class="node">
<title>Node6</title>
<g id="a_Node000006"><a xlink:title=" ">
<polygon fill="#e0e0e0" stroke="#999999" points="360.62,-74 253.62,-74 253.62,-55 360.62,-55 360.62,-74"/>
<text text-anchor="middle" x="307.12" y="-62" font-family="Helvetica,sans-Serif" font-size="10.00">condition_variable</text>
</a>
</g>
</g>
<!-- Node1&#45;&gt;Node6 -->
<g id="edge5_Node000001_Node000006" class="edge">
<title>Node1&#45;&gt;Node6</title>
<g id="a_edge5_Node000001_Node000006"><a xlink:title=" ">
<path fill="none" stroke="#63b8ff" d="M307.12,-109.84C307.12,-102.21 307.12,-92.7 307.12,-84.45"/>
<polygon fill="#63b8ff" stroke="#63b8ff" points="310.62,-84.27 307.12,-74.27 303.62,-84.27 310.62,-84.27"/>
</a>
</g>
</g>
<!-- Node7 -->
<g id="Node000007" class="node">
<title>Node7</title>
<g id="a_Node000007"><a xlink:title=" ">
<polygon fill="#e0e0e0" stroke="#999999" points="429.12,-74 379.12,-74 379.12,-55 429.12,-55 429.12,-74"/>
<text text-anchor="middle" x="404.12" y="-62" font-family="Helvetica,sans-Serif" font-size="10.00">atomic</text>
</a>
</g>
</g>
<!-- Node1&#45;&gt;Node7 -->
<g id="edge6_Node000001_Node000007" class="edge">
<title>Node1&#45;&gt;Node7</title>
<g id="a_edge6_Node000001_Node000007"><a xlink:title=" ">
<path fill="none" stroke="#63b8ff" d="M330.6,-109.84C345.92,-100.6 365.83,-88.59 381.07,-79.4"/>
<polygon fill="#63b8ff" stroke="#63b8ff" points="383.11,-82.26 389.87,-74.09 379.5,-76.26 383.11,-82.26"/>
</a>
</g>
</g>
<!-- Node8 -->
<g id="Node000008" class="node">
<title>Node8</title>
<g id="a_Node000008"><a xlink:title=" ">
<polygon fill="#e0e0e0" stroke="#999999" points="495.12,-74 447.12,-74 447.12,-55 495.12,-55 495.12,-74"/>
<text text-anchor="middle" x="471.12" y="-62" font-family="Helvetica,sans-Serif" font-size="10.00">thread</text>
</a>
</g>
</g>
<!-- Node1&#45;&gt;Node8 -->
<g id="edge7_Node000001_Node000008" class="edge">
<title>Node1&#45;&gt;Node8</title>
<g id="a_edge7_Node000001_Node000008"><a xlink:title=" ">
<path fill="none" stroke="#63b8ff" d="M346.4,-109.99C374.13,-100.1 410.9,-86.98 437.32,-77.56"/>
<polygon fill="#63b8ff" stroke="#63b8ff" points="438.66,-80.8 446.9,-74.14 436.31,-74.2 438.66,-80.8"/>
</a>
</g>
</g>
<!-- Node9 -->
<g id="Node000009" class="node">
<title>Node9</title>
<g id="a_Node000009"><a xlink:title=" ">
<polygon fill="#e0e0e0" stroke="#999999" points="563.12,-74 513.12,-74 513.12,-55 563.12,-55 563.12,-74"/>
<text text-anchor="middle" x="538.12" y="-62" font-family="Helvetica,sans-Serif" font-size="10.00">chrono</text>
</a>
</g>
</g>
<!-- Node1&#45;&gt;Node9 -->
<g id="edge8_Node000001_Node000009" class="edge">
<title>Node1&#45;&gt;Node9</title>
<g id="a_edge8_Node000001_Node000009"><a xlink:title=" ">
<path fill="none" stroke="#63b8ff" d="M362.45,-109.99C406.13,-98.93 465.73,-83.83 503.06,-74.38"/>
<polygon fill="#63b8ff" stroke="#63b8ff" points="504.14,-77.72 512.97,-71.87 502.42,-70.93 504.14,-77.72"/>
</a>
</g>
</g>
<!-- Node10 -->
<g id="Node000010" class="node">
<title>Node10</title>
<g id="a_Node000010"><a xlink:href="unlock_8h.html" target="_top" xlink:title=" ">
<polygon fill="white" stroke="#666666" points="645.12,-74 581.12,-74 581.12,-55 645.12,-55 645.12,-74"/>
<text text-anchor="middle" x="613.12" y="-62" font-family="Helvetica,sans-Serif" font-size="10.00">./unlock.h</text>
</a>
</g>
</g>
<!-- Node1&#45;&gt;Node10 -->
<g id="edge9_Node000001_Node000010" class="edge">
<title>Node1&#45;&gt;Node10</title>
<g id="a_edge9_Node000001_Node000010"><a xlink:title=" ">
<path fill="none" stroke="#63b8ff" d="M380.87,-110.45C431.68,-101.03 501.03,-88.01 571.02,-74.19"/>
<polygon fill="#63b8ff" stroke="#63b8ff" points="571.77,-77.61 580.9,-72.24 570.41,-70.74 571.77,-77.61"/>
</a>
</g>
</g>
<!-- Node10&#45;&gt;Node2 -->
<g id="edge10_Node000010_Node000002" class="edge">
<title>Node10&#45;&gt;Node2</title>
<g id="a_edge10_Node000010_Node000002"><a xlink:title=" ">
<path fill="none" stroke="#63b8ff" d="M580.92,-56.69C577.95,-56.1 574.98,-55.53 572.12,-55 500.22,-41.69 417.26,-28.47 361.84,-19.94"/>
<polygon fill="#63b8ff" stroke="#63b8ff" points="362.24,-16.46 351.83,-18.41 361.18,-23.38 362.24,-16.46"/>
</a>
</g>
</g>
</g>
</svg>
