<?xml version="1.0" encoding="UTF-8" standalone="no"?>
<!DOCTYPE svg PUBLIC "-//W3C//DTD SVG 1.1//EN"
 "http://www.w3.org/Graphics/SVG/1.1/DTD/svg11.dtd">
<!-- Generated by graphviz version 2.43.0 (0)
 -->
<!-- Title: common/include/webcface/common/internal/message/pack.h Pages: 1 -->
<svg width="937pt" height="291pt"
 viewBox="0.00 0.00 937.38 291.00" xmlns="http://www.w3.org/2000/svg" xmlns:xlink="http://www.w3.org/1999/xlink">
<g id="graph0" class="graph" transform="scale(1 1) rotate(0) translate(4 287)">
<title>common/include/webcface/common/internal/message/pack.h</title>
<!-- Node1 -->
<g id="Node000001" class="node">
<title>Node1</title>
<g id="a_Node000001"><a xlink:title=" ">
<polygon fill="#999999" stroke="#666666" points="500.88,-283 350.88,-283 350.88,-242 500.88,-242 500.88,-283"/>
<text text-anchor="start" x="358.88" y="-271" font-family="Helvetica,sans-Serif" font-size="10.00">common/include/webcface</text>
<text text-anchor="start" x="358.88" y="-260" font-family="Helvetica,sans-Serif" font-size="10.00">/common/internal/message</text>
<text text-anchor="middle" x="425.88" y="-249" font-family="Helvetica,sans-Serif" font-size="10.00">/pack.h</text>
</a>
</g>
</g>
<!-- Node2 -->
<g id="Node000002" class="node">
<title>Node2</title>
<g id="a_Node000002"><a xlink:title=" ">
<polygon fill="#e0e0e0" stroke="#999999" points="215.88,-200.5 133.88,-200.5 133.88,-181.5 215.88,-181.5 215.88,-200.5"/>
<text text-anchor="middle" x="174.88" y="-188.5" font-family="Helvetica,sans-Serif" font-size="10.00">msgpack.hpp</text>
</a>
</g>
</g>
<!-- Node1&#45;&gt;Node2 -->
<g id="edge1_Node000001_Node000002" class="edge">
<title>Node1&#45;&gt;Node2</title>
<g id="a_edge1_Node000001_Node000002"><a xlink:title=" ">
<path fill="none" stroke="#63b8ff" d="M355.29,-241.96C310.23,-229.48 253.4,-213.74 215.69,-203.3"/>
<polygon fill="#63b8ff" stroke="#63b8ff" points="216.16,-199.8 205.59,-200.5 214.29,-206.55 216.16,-199.8"/>
</a>
</g>
</g>
<!-- Node3 -->
<g id="Node000003" class="node">
<title>Node3</title>
<g id="a_Node000003"><a xlink:title=" ">
<polygon fill="#e0e0e0" stroke="#999999" points="732.88,-19 688.88,-19 688.88,0 732.88,0 732.88,-19"/>
<text text-anchor="middle" x="710.88" y="-7" font-family="Helvetica,sans-Serif" font-size="10.00">string</text>
</a>
</g>
</g>
<!-- Node1&#45;&gt;Node3 -->
<g id="edge2_Node000001_Node000003" class="edge">
<title>Node1&#45;&gt;Node3</title>
<g id="a_edge2_Node000001_Node000003"><a xlink:title=" ">
<path fill="none" stroke="#63b8ff" d="M501.17,-248.61C590.1,-228.76 733.23,-181.12 790.88,-74 804.18,-49.28 770.43,-30.85 742.73,-20.38"/>
<polygon fill="#63b8ff" stroke="#63b8ff" points="743.87,-17.07 733.28,-17.01 741.53,-23.66 743.87,-17.07"/>
</a>
</g>
</g>
<!-- Node4 -->
<g id="Node000004" class="node">
<title>Node4</title>
<g id="a_Node000004"><a xlink:title=" ">
<polygon fill="#e0e0e0" stroke="#999999" points="781.88,-74 731.88,-74 731.88,-55 781.88,-55 781.88,-74"/>
<text text-anchor="middle" x="756.88" y="-62" font-family="Helvetica,sans-Serif" font-size="10.00">cstdint</text>
</a>
</g>
</g>
<!-- Node1&#45;&gt;Node4 -->
<g id="edge3_Node000001_Node000004" class="edge">
<title>Node1&#45;&gt;Node4</title>
<g id="a_edge3_Node000001_Node000004"><a xlink:title=" ">
<path fill="none" stroke="#63b8ff" d="M475.55,-241.88C498.89,-232.05 526.81,-219.4 550.88,-206 623.05,-165.8 702.09,-107.46 737.65,-80.37"/>
<polygon fill="#63b8ff" stroke="#63b8ff" points="739.92,-83.04 745.73,-74.18 735.66,-77.48 739.92,-83.04"/>
</a>
</g>
</g>
<!-- Node5 -->
<g id="Node000005" class="node">
<title>Node5</title>
<g id="a_Node000005"><a xlink:title=" ">
<polygon fill="#e0e0e0" stroke="#999999" points="396.38,-200.5 351.38,-200.5 351.38,-181.5 396.38,-181.5 396.38,-200.5"/>
<text text-anchor="middle" x="373.88" y="-188.5" font-family="Helvetica,sans-Serif" font-size="10.00">utf8.h</text>
</a>
</g>
</g>
<!-- Node1&#45;&gt;Node5 -->
<g id="edge4_Node000001_Node000005" class="edge">
<title>Node1&#45;&gt;Node5</title>
<g id="a_edge4_Node000001_Node000005"><a xlink:title=" ">
<path fill="none" stroke="#63b8ff" d="M411.11,-241.77C403.39,-231.45 394.03,-218.93 386.62,-209.04"/>
<polygon fill="#63b8ff" stroke="#63b8ff" points="389.27,-206.73 380.48,-200.82 383.66,-210.92 389.27,-206.73"/>
</a>
</g>
</g>
<!-- Node6 -->
<g id="Node000006" class="node">
<title>Node6</title>
<g id="a_Node000006"><a xlink:href="val__adaptor__vec_8h.html" target="_top" xlink:title=" ">
<polygon fill="white" stroke="#666666" points="541.38,-206 414.38,-206 414.38,-176 541.38,-176 541.38,-206"/>
<text text-anchor="start" x="422.38" y="-194" font-family="Helvetica,sans-Serif" font-size="10.00">webcface/common/val</text>
<text text-anchor="middle" x="477.88" y="-183" font-family="Helvetica,sans-Serif" font-size="10.00">_adaptor_vec.h</text>
</a>
</g>
</g>
<!-- Node1&#45;&gt;Node6 -->
<g id="edge5_Node000001_Node000006" class="edge">
<title>Node1&#45;&gt;Node6</title>
<g id="a_edge5_Node000001_Node000006"><a xlink:title=" ">
<path fill="none" stroke="#63b8ff" d="M440.64,-241.77C447.1,-233.13 454.71,-222.96 461.36,-214.08"/>
<polygon fill="#63b8ff" stroke="#63b8ff" points="464.18,-216.14 467.37,-206.04 458.58,-211.95 464.18,-216.14"/>
</a>
</g>
</g>
<!-- Node16 -->
<g id="Node000016" class="node">
<title>Node16</title>
<g id="a_Node000016"><a xlink:href="num__vector_8h.html" target="_top" xlink:title=" ">
<polygon fill="white" stroke="#666666" points="156.88,-140 22.88,-140 22.88,-110 156.88,-110 156.88,-140"/>
<text text-anchor="start" x="30.88" y="-128" font-family="Helvetica,sans-Serif" font-size="10.00">webcface/common/num</text>
<text text-anchor="middle" x="89.88" y="-117" font-family="Helvetica,sans-Serif" font-size="10.00">_vector.h</text>
</a>
</g>
</g>
<!-- Node1&#45;&gt;Node16 -->
<g id="edge20_Node000001_Node000016" class="edge">
<title>Node1&#45;&gt;Node16</title>
<g id="a_edge20_Node000001_Node000016"><a xlink:title=" ">
<path fill="none" stroke="#63b8ff" d="M352.39,-241.9C323.88,-232.88 291.51,-220.84 263.88,-206 244.61,-195.65 244.01,-186.58 224.88,-176 200.74,-162.65 172.33,-151.52 147.81,-143.18"/>
<polygon fill="#63b8ff" stroke="#63b8ff" points="148.87,-139.84 138.27,-140 146.66,-146.48 148.87,-139.84"/>
</a>
</g>
</g>
<!-- Node17 -->
<g id="Node000017" class="node">
<title>Node17</title>
<g id="a_Node000017"><a xlink:href="base_8h.html" target="_top" xlink:title=" ">
<polygon fill="white" stroke="#666666" points="327.38,-200.5 272.38,-200.5 272.38,-181.5 327.38,-181.5 327.38,-200.5"/>
<text text-anchor="middle" x="299.88" y="-188.5" font-family="Helvetica,sans-Serif" font-size="10.00">./base.h</text>
</a>
</g>
</g>
<!-- Node1&#45;&gt;Node17 -->
<g id="edge24_Node000001_Node000017" class="edge">
<title>Node1&#45;&gt;Node17</title>
<g id="a_edge24_Node000001_Node000017"><a xlink:title=" ">
<path fill="none" stroke="#63b8ff" d="M390.44,-241.96C369.27,-230.28 342.93,-215.75 324.12,-205.37"/>
<polygon fill="#63b8ff" stroke="#63b8ff" points="325.74,-202.27 315.29,-200.5 322.36,-208.4 325.74,-202.27"/>
</a>
</g>
</g>
<!-- Node20 -->
<g id="Node000020" class="node">
<title>Node20</title>
<g id="a_Node000020"><a xlink:title=" ">
<polygon fill="#e0e0e0" stroke="#999999" points="929.38,-200.5 838.38,-200.5 838.38,-181.5 929.38,-181.5 929.38,-200.5"/>
<text text-anchor="middle" x="883.88" y="-188.5" font-family="Helvetica,sans-Serif" font-size="10.00">spdlog/logger.h</text>
</a>
</g>
</g>
<!-- Node1&#45;&gt;Node20 -->
<g id="edge33_Node000001_Node000020" class="edge">
<title>Node1&#45;&gt;Node20</title>
<g id="a_edge33_Node000001_Node000020"><a xlink:title=" ">
<path fill="none" stroke="#63b8ff" d="M501.03,-253.08C581.29,-243.61 712.08,-226.79 823.88,-206 829,-205.05 834.35,-203.95 839.66,-202.8"/>
<polygon fill="#63b8ff" stroke="#63b8ff" points="840.73,-206.14 849.72,-200.53 839.2,-199.31 840.73,-206.14"/>
</a>
</g>
</g>
<!-- Node7 -->
<g id="Node000007" class="node">
<title>Node7</title>
<g id="a_Node000007"><a xlink:href="common_2val__adaptor_8h.html" target="_top" xlink:title=" ">
<polygon fill="white" stroke="#666666" points="530.38,-134.5 447.38,-134.5 447.38,-115.5 530.38,-115.5 530.38,-134.5"/>
<text text-anchor="middle" x="488.88" y="-122.5" font-family="Helvetica,sans-Serif" font-size="10.00">val_adaptor.h</text>
</a>
</g>
</g>
<!-- Node6&#45;&gt;Node7 -->
<g id="edge6_Node000006_Node000007" class="edge">
<title>Node6&#45;&gt;Node7</title>
<g id="a_edge6_Node000006_Node000007"><a xlink:title=" ">
<path fill="none" stroke="#63b8ff" d="M480.32,-175.8C481.88,-166.7 483.93,-154.79 485.63,-144.9"/>
<polygon fill="#63b8ff" stroke="#63b8ff" points="489.11,-145.29 487.36,-134.84 482.21,-144.11 489.11,-145.29"/>
</a>
</g>
</g>
<!-- Node15 -->
<g id="Node000015" class="node">
<title>Node15</title>
<g id="a_Node000015"><a xlink:href="webcface-config_8h.html" target="_top" xlink:title=" ">
<polygon fill="white" stroke="#666666" points="368.38,-19 263.38,-19 263.38,0 368.38,0 368.38,-19"/>
<text text-anchor="middle" x="315.88" y="-7" font-family="Helvetica,sans-Serif" font-size="10.00">webcface&#45;config.h</text>
</a>
</g>
</g>
<!-- Node6&#45;&gt;Node15 -->
<g id="edge19_Node000006_Node000015" class="edge">
<title>Node6&#45;&gt;Node15</title>
<g id="a_edge19_Node000006_Node000015"><a xlink:title=" ">
<path fill="none" stroke="#63b8ff" d="M460.18,-175.89C434.95,-155.24 388.03,-114.76 354.88,-74 343.17,-59.6 332.34,-41.4 325.08,-28.18"/>
<polygon fill="#63b8ff" stroke="#63b8ff" points="328.07,-26.36 320.26,-19.19 321.9,-29.66 328.07,-26.36"/>
</a>
</g>
</g>
<!-- Node7&#45;&gt;Node3 -->
<g id="edge7_Node000007_Node000003" class="edge">
<title>Node7&#45;&gt;Node3</title>
<g id="a_edge7_Node000007_Node000003"><a xlink:title=" ">
<path fill="none" stroke="#63b8ff" d="M530.58,-123.87C574.04,-121.57 641.69,-111.57 684.88,-74 697.93,-62.65 704.54,-43.75 707.81,-29.51"/>
<polygon fill="#63b8ff" stroke="#63b8ff" points="711.32,-29.81 709.79,-19.33 704.45,-28.48 711.32,-29.81"/>
</a>
</g>
</g>
<!-- Node7&#45;&gt;Node4 -->
<g id="edge10_Node000007_Node000004" class="edge">
<title>Node7&#45;&gt;Node4</title>
<g id="a_edge10_Node000007_Node000004"><a xlink:title=" ">
<path fill="none" stroke="#63b8ff" d="M527.85,-115.49C579.89,-104.13 671.34,-84.17 721.5,-73.22"/>
<polygon fill="#63b8ff" stroke="#63b8ff" points="722.52,-76.58 731.54,-71.03 721.03,-69.74 722.52,-76.58"/>
</a>
</g>
</g>
<!-- Node8 -->
<g id="Node000008" class="node">
<title>Node8</title>
<g id="a_Node000008"><a xlink:title=" ">
<polygon fill="#e0e0e0" stroke="#999999" points="143.38,-74 96.38,-74 96.38,-55 143.38,-55 143.38,-74"/>
<text text-anchor="middle" x="119.88" y="-62" font-family="Helvetica,sans-Serif" font-size="10.00">vector</text>
</a>
</g>
</g>
<!-- Node7&#45;&gt;Node8 -->
<g id="edge8_Node000007_Node000008" class="edge">
<title>Node7&#45;&gt;Node8</title>
<g id="a_edge8_Node000007_Node000008"><a xlink:title=" ">
<path fill="none" stroke="#63b8ff" d="M447.25,-119.22C385.39,-111.82 265.37,-96.26 153.69,-73.96"/>
<polygon fill="#63b8ff" stroke="#63b8ff" points="154.1,-70.48 143.6,-71.93 152.71,-77.34 154.1,-70.48"/>
</a>
</g>
</g>
<!-- Node9 -->
<g id="Node000009" class="node">
<title>Node9</title>
<g id="a_Node000009"><a xlink:title=" ">
<polygon fill="#e0e0e0" stroke="#999999" points="512.38,-74 471.38,-74 471.38,-55 512.38,-55 512.38,-74"/>
<text text-anchor="middle" x="491.88" y="-62" font-family="Helvetica,sans-Serif" font-size="10.00">tuple</text>
</a>
</g>
</g>
<!-- Node7&#45;&gt;Node9 -->
<g id="edge9_Node000007_Node000009" class="edge">
<title>Node7&#45;&gt;Node9</title>
<g id="a_edge9_Node000007_Node000009"><a xlink:title=" ">
<path fill="none" stroke="#63b8ff" d="M489.32,-115.37C489.74,-107.25 490.37,-94.81 490.91,-84.39"/>
<polygon fill="#63b8ff" stroke="#63b8ff" points="494.42,-84.33 491.43,-74.17 487.42,-83.97 494.42,-84.33"/>
</a>
</g>
</g>
<!-- Node10 -->
<g id="Node000010" class="node">
<title>Node10</title>
<g id="a_Node000010"><a xlink:title=" ">
<polygon fill="#e0e0e0" stroke="#999999" points="587.38,-74 530.38,-74 530.38,-55 587.38,-55 587.38,-74"/>
<text text-anchor="middle" x="558.88" y="-62" font-family="Helvetica,sans-Serif" font-size="10.00">ostream</text>
</a>
</g>
</g>
<!-- Node7&#45;&gt;Node10 -->
<g id="edge11_Node000007_Node000010" class="edge">
<title>Node7&#45;&gt;Node10</title>
<g id="a_edge11_Node000007_Node000010"><a xlink:title=" ">
<path fill="none" stroke="#63b8ff" d="M499.21,-115.37C510.06,-106.3 527.36,-91.84 540.55,-80.82"/>
<polygon fill="#63b8ff" stroke="#63b8ff" points="543.08,-83.27 548.51,-74.17 538.59,-77.89 543.08,-83.27"/>
</a>
</g>
</g>
<!-- Node11 -->
<g id="Node000011" class="node">
<title>Node11</title>
<g id="a_Node000011"><a xlink:title=" ">
<polygon fill="#e0e0e0" stroke="#999999" points="414.38,-74 363.38,-74 363.38,-55 414.38,-55 414.38,-74"/>
<text text-anchor="middle" x="388.88" y="-62" font-family="Helvetica,sans-Serif" font-size="10.00">variant</text>
</a>
</g>
</g>
<!-- Node7&#45;&gt;Node11 -->
<g id="edge12_Node000007_Node000011" class="edge">
<title>Node7&#45;&gt;Node11</title>
<g id="a_edge12_Node000007_Node000011"><a xlink:title=" ">
<path fill="none" stroke="#63b8ff" d="M474.12,-115.37C457.87,-105.86 431.52,-90.45 412.41,-79.27"/>
<polygon fill="#63b8ff" stroke="#63b8ff" points="414.09,-76.2 403.69,-74.17 410.56,-82.24 414.09,-76.2"/>
</a>
</g>
</g>
<!-- Node12 -->
<g id="Node000012" class="node">
<title>Node12</title>
<g id="a_Node000012"><a xlink:href="common_2encoding_8h.html" target="_top" xlink:title=" ">
<polygon fill="white" stroke="#666666" points="675.88,-74 605.88,-74 605.88,-55 675.88,-55 675.88,-74"/>
<text text-anchor="middle" x="640.88" y="-62" font-family="Helvetica,sans-Serif" font-size="10.00">encoding.h</text>
</a>
</g>
</g>
<!-- Node7&#45;&gt;Node12 -->
<g id="edge13_Node000007_Node000012" class="edge">
<title>Node7&#45;&gt;Node12</title>
<g id="a_edge13_Node000007_Node000012"><a xlink:title=" ">
<path fill="none" stroke="#63b8ff" d="M510.98,-115.49C536.87,-105.53 579.96,-88.95 609.35,-77.63"/>
<polygon fill="#63b8ff" stroke="#63b8ff" points="610.67,-80.88 618.75,-74.02 608.16,-74.34 610.67,-80.88"/>
</a>
</g>
</g>
<!-- Node7&#45;&gt;Node15 -->
<g id="edge18_Node000007_Node000015" class="edge">
<title>Node7&#45;&gt;Node15</title>
<g id="a_edge18_Node000007_Node000015"><a xlink:title=" ">
<path fill="none" stroke="#63b8ff" d="M482.61,-115.24C471.98,-100.92 449.09,-72.36 423.88,-55 403.11,-40.7 377.05,-29.8 355.73,-22.36"/>
<polygon fill="#63b8ff" stroke="#63b8ff" points="356.59,-18.96 345.99,-19.09 354.36,-25.59 356.59,-18.96"/>
</a>
</g>
</g>
<!-- Node12&#45;&gt;Node3 -->
<g id="edge14_Node000012_Node000003" class="edge">
<title>Node12&#45;&gt;Node3</title>
<g id="a_edge14_Node000012_Node000003"><a xlink:title=" ">
<path fill="none" stroke="#63b8ff" d="M652.12,-54.98C662.67,-47 678.68,-34.88 691.32,-25.31"/>
<polygon fill="#63b8ff" stroke="#63b8ff" points="693.57,-28 699.43,-19.17 689.34,-22.42 693.57,-28"/>
</a>
</g>
</g>
<!-- Node13 -->
<g id="Node000013" class="node">
<title>Node13</title>
<g id="a_Node000013"><a xlink:title=" ">
<polygon fill="#e0e0e0" stroke="#999999" points="670.38,-19 597.38,-19 597.38,0 670.38,0 670.38,-19"/>
<text text-anchor="middle" x="633.88" y="-7" font-family="Helvetica,sans-Serif" font-size="10.00">string_view</text>
</a>
</g>
</g>
<!-- Node12&#45;&gt;Node13 -->
<g id="edge15_Node000012_Node000013" class="edge">
<title>Node12&#45;&gt;Node13</title>
<g id="a_edge15_Node000012_Node000013"><a xlink:title=" ">
<path fill="none" stroke="#63b8ff" d="M639.72,-54.75C638.8,-47.8 637.49,-37.85 636.34,-29.13"/>
<polygon fill="#63b8ff" stroke="#63b8ff" points="639.79,-28.54 635.01,-19.09 632.85,-29.46 639.79,-28.54"/>
</a>
</g>
</g>
<!-- Node14 -->
<g id="Node000014" class="node">
<title>Node14</title>
<g id="a_Node000014"><a xlink:title=" ">
<polygon fill="#e0e0e0" stroke="#999999" points="58.88,-19 0.88,-19 0.88,0 58.88,0 58.88,-19"/>
<text text-anchor="middle" x="29.88" y="-7" font-family="Helvetica,sans-Serif" font-size="10.00">memory</text>
</a>
</g>
</g>
<!-- Node12&#45;&gt;Node14 -->
<g id="edge16_Node000012_Node000014" class="edge">
<title>Node12&#45;&gt;Node14</title>
<g id="a_edge16_Node000012_Node000014"><a xlink:title=" ">
<path fill="none" stroke="#63b8ff" d="M605.87,-56.37C602.84,-55.86 599.81,-55.4 596.88,-55 399.49,-28.28 161.12,-16.04 68.91,-12.05"/>
<polygon fill="#63b8ff" stroke="#63b8ff" points="69.05,-8.55 58.91,-11.62 68.75,-15.55 69.05,-8.55"/>
</a>
</g>
</g>
<!-- Node12&#45;&gt;Node15 -->
<g id="edge17_Node000012_Node000015" class="edge">
<title>Node12&#45;&gt;Node15</title>
<g id="a_edge17_Node000012_Node000015"><a xlink:title=" ">
<path fill="none" stroke="#63b8ff" d="M605.83,-56.62C602.81,-56.06 599.79,-55.51 596.88,-55 521.96,-41.84 435.49,-28.41 378.47,-19.79"/>
<polygon fill="#63b8ff" stroke="#63b8ff" points="378.94,-16.32 368.53,-18.3 377.9,-23.25 378.94,-16.32"/>
</a>
</g>
</g>
<!-- Node16&#45;&gt;Node8 -->
<g id="edge22_Node000016_Node000008" class="edge">
<title>Node16&#45;&gt;Node8</title>
<g id="a_edge22_Node000016_Node000008"><a xlink:title=" ">
<path fill="none" stroke="#63b8ff" d="M97.14,-109.84C101.23,-101.87 106.37,-91.84 110.73,-83.33"/>
<polygon fill="#63b8ff" stroke="#63b8ff" points="113.93,-84.76 115.38,-74.27 107.7,-81.57 113.93,-84.76"/>
</a>
</g>
</g>
<!-- Node16&#45;&gt;Node14 -->
<g id="edge21_Node000016_Node000014" class="edge">
<title>Node16&#45;&gt;Node14</title>
<g id="a_edge21_Node000016_Node000014"><a xlink:title=" ">
<path fill="none" stroke="#63b8ff" d="M78.1,-109.79C70.49,-100.13 60.76,-86.82 53.88,-74 46.04,-59.4 39.57,-41.68 35.33,-28.67"/>
<polygon fill="#63b8ff" stroke="#63b8ff" points="38.64,-27.52 32.31,-19.02 31.96,-29.61 38.64,-27.52"/>
</a>
</g>
</g>
<!-- Node16&#45;&gt;Node15 -->
<g id="edge23_Node000016_Node000015" class="edge">
<title>Node16&#45;&gt;Node15</title>
<g id="a_edge23_Node000016_Node000015"><a xlink:title=" ">
<path fill="none" stroke="#63b8ff" d="M84.24,-109.83C79.18,-94.52 74.29,-70.27 86.88,-55 107.58,-29.89 192.53,-18.77 252.91,-13.97"/>
<polygon fill="#63b8ff" stroke="#63b8ff" points="253.42,-17.44 263.12,-13.2 252.89,-10.46 253.42,-17.44"/>
</a>
</g>
</g>
<!-- Node17&#45;&gt;Node7 -->
<g id="edge29_Node000017_Node000007" class="edge">
<title>Node17&#45;&gt;Node7</title>
<g id="a_edge29_Node000017_Node000007"><a xlink:title=" ">
<path fill="none" stroke="#63b8ff" d="M325.37,-181.37C358.43,-170.17 416.28,-150.58 453.56,-137.96"/>
<polygon fill="#63b8ff" stroke="#63b8ff" points="455.14,-141.12 463.49,-134.6 452.9,-134.49 455.14,-141.12"/>
</a>
</g>
</g>
<!-- Node17&#45;&gt;Node8 -->
<g id="edge32_Node000017_Node000008" class="edge">
<title>Node17&#45;&gt;Node8</title>
<g id="a_edge32_Node000017_Node000008"><a xlink:title=" ">
<path fill="none" stroke="#63b8ff" d="M282.62,-181.45C264.29,-172.1 234.74,-156.29 210.88,-140 183.78,-121.5 154.84,-96.87 137.05,-81.09"/>
<polygon fill="#63b8ff" stroke="#63b8ff" points="139.06,-78.19 129.27,-74.13 134.39,-83.41 139.06,-78.19"/>
</a>
</g>
</g>
<!-- Node17&#45;&gt;Node11 -->
<g id="edge31_Node000017_Node000011" class="edge">
<title>Node17&#45;&gt;Node11</title>
<g id="a_edge31_Node000017_Node000011"><a xlink:title=" ">
<path fill="none" stroke="#63b8ff" d="M305.99,-181.44C320.54,-161.1 357.41,-109.53 376.69,-82.54"/>
<polygon fill="#63b8ff" stroke="#63b8ff" points="379.75,-84.29 382.72,-74.12 374.05,-80.22 379.75,-84.29"/>
</a>
</g>
</g>
<!-- Node17&#45;&gt;Node14 -->
<g id="edge30_Node000017_Node000014" class="edge">
<title>Node17&#45;&gt;Node14</title>
<g id="a_edge30_Node000017_Node000014"><a xlink:title=" ">
<path fill="none" stroke="#63b8ff" d="M272.11,-184.71C257.98,-182.05 240.52,-178.8 224.88,-176 178.05,-167.64 44.55,-176.35 13.88,-140 -12.81,-108.37 6.73,-55.95 20.12,-28.51"/>
<polygon fill="#63b8ff" stroke="#63b8ff" points="23.39,-29.8 24.84,-19.31 17.16,-26.61 23.39,-29.8"/>
</a>
</g>
</g>
<!-- Node17&#45;&gt;Node15 -->
<g id="edge25_Node000017_Node000015" class="edge">
<title>Node17&#45;&gt;Node15</title>
<g id="a_edge25_Node000017_Node000015"><a xlink:title=" ">
<path fill="none" stroke="#63b8ff" d="M300.65,-181.34C303.1,-153.8 310.77,-67.76 314.2,-29.34"/>
<polygon fill="#63b8ff" stroke="#63b8ff" points="317.71,-29.34 315.11,-19.07 310.74,-28.72 317.71,-29.34"/>
</a>
</g>
</g>
<!-- Node18 -->
<g id="Node000018" class="node">
<title>Node18</title>
<g id="a_Node000018"><a xlink:href="fmt_8h.html" target="_top" xlink:title=" ">
<polygon fill="white" stroke="#666666" points="268.38,-134.5 219.38,-134.5 219.38,-115.5 268.38,-115.5 268.38,-134.5"/>
<text text-anchor="middle" x="243.88" y="-122.5" font-family="Helvetica,sans-Serif" font-size="10.00">./fmt.h</text>
</a>
</g>
</g>
<!-- Node17&#45;&gt;Node18 -->
<g id="edge26_Node000017_Node000018" class="edge">
<title>Node17&#45;&gt;Node18</title>
<g id="a_edge26_Node000017_Node000018"><a xlink:title=" ">
<path fill="none" stroke="#63b8ff" d="M292.32,-181.37C283.69,-171.5 269.35,-155.11 258.5,-142.72"/>
<polygon fill="#63b8ff" stroke="#63b8ff" points="260.89,-140.13 251.67,-134.91 255.62,-144.74 260.89,-140.13"/>
</a>
</g>
</g>
<!-- Node18&#45;&gt;Node15 -->
<g id="edge27_Node000018_Node000015" class="edge">
<title>Node18&#45;&gt;Node15</title>
<g id="a_edge27_Node000018_Node000015"><a xlink:title=" ">
<path fill="none" stroke="#63b8ff" d="M248.35,-115.3C255.28,-102.01 269.23,-76 282.88,-55 289.03,-45.52 296.49,-35.37 302.76,-27.16"/>
<polygon fill="#63b8ff" stroke="#63b8ff" points="305.62,-29.19 308.97,-19.14 300.08,-24.9 305.62,-29.19"/>
</a>
</g>
</g>
<!-- Node19 -->
<g id="Node000019" class="node">
<title>Node19</title>
<g id="a_Node000019"><a xlink:title=" ">
<polygon fill="#e0e0e0" stroke="#999999" points="230.38,-74 161.38,-74 161.38,-55 230.38,-55 230.38,-74"/>
<text text-anchor="middle" x="195.88" y="-62" font-family="Helvetica,sans-Serif" font-size="10.00">fmt/base.h</text>
</a>
</g>
</g>
<!-- Node18&#45;&gt;Node19 -->
<g id="edge28_Node000018_Node000019" class="edge">
<title>Node18&#45;&gt;Node19</title>
<g id="a_edge28_Node000018_Node000019"><a xlink:title=" ">
<path fill="none" stroke="#63b8ff" d="M236.79,-115.37C229.63,-106.64 218.38,-92.93 209.49,-82.09"/>
<polygon fill="#63b8ff" stroke="#63b8ff" points="212.04,-79.68 202.99,-74.17 206.63,-84.12 212.04,-79.68"/>
</a>
</g>
</g>
</g>
</svg>
