<?xml version="1.0" encoding="UTF-8" standalone="no"?>
<!DOCTYPE svg PUBLIC "-//W3C//DTD SVG 1.1//EN"
 "http://www.w3.org/Graphics/SVG/1.1/DTD/svg11.dtd">
<!-- Generated by graphviz version 2.43.0 (0)
 -->
<!-- Title: common/include/webcface/common/internal/message/pack.h Pages: 1 -->
<svg width="1051pt" height="291pt"
 viewBox="0.00 0.00 1050.88 291.00" xmlns="http://www.w3.org/2000/svg" xmlns:xlink="http://www.w3.org/1999/xlink">
<g id="graph0" class="graph" transform="scale(1 1) rotate(0) translate(4 287)">
<title>common/include/webcface/common/internal/message/pack.h</title>
<!-- Node1 -->
<g id="Node000001" class="node">
<title>Node1</title>
<g id="a_Node000001"><a xlink:title=" ">
<polygon fill="#999999" stroke="#666666" points="517,-283 367,-283 367,-242 517,-242 517,-283"/>
<text text-anchor="start" x="375" y="-271" font-family="Helvetica,sans-Serif" font-size="10.00">common/include/webcface</text>
<text text-anchor="start" x="375" y="-260" font-family="Helvetica,sans-Serif" font-size="10.00">/common/internal/message</text>
<text text-anchor="middle" x="442" y="-249" font-family="Helvetica,sans-Serif" font-size="10.00">/pack.h</text>
</a>
</g>
</g>
<!-- Node2 -->
<g id="Node000002" class="node">
<title>Node2</title>
<g id="a_Node000002"><a xlink:title=" ">
<polygon fill="#e0e0e0" stroke="#999999" points="82,-200.5 0,-200.5 0,-181.5 82,-181.5 82,-200.5"/>
<text text-anchor="middle" x="41" y="-188.5" font-family="Helvetica,sans-Serif" font-size="10.00">msgpack.hpp</text>
</a>
</g>
</g>
<!-- Node1&#45;&gt;Node2 -->
<g id="edge1_Node000001_Node000002" class="edge">
<title>Node1&#45;&gt;Node2</title>
<g id="a_edge1_Node000001_Node000002"><a xlink:title=" ">
<path fill="none" stroke="#63b8ff" d="M366.73,-251.42C296.4,-241.54 188.64,-225.18 96,-206 91.59,-205.09 87.01,-204.06 82.45,-202.97"/>
<polygon fill="#63b8ff" stroke="#63b8ff" points="83.13,-199.54 72.59,-200.56 81.47,-206.34 83.13,-199.54"/>
</a>
</g>
</g>
<!-- Node3 -->
<g id="Node000003" class="node">
<title>Node3</title>
<g id="a_Node000003"><a xlink:title=" ">
<polygon fill="#e0e0e0" stroke="#999999" points="353,-19 309,-19 309,0 353,0 353,-19"/>
<text text-anchor="middle" x="331" y="-7" font-family="Helvetica,sans-Serif" font-size="10.00">string</text>
</a>
</g>
</g>
<!-- Node1&#45;&gt;Node3 -->
<g id="edge2_Node000001_Node000003" class="edge">
<title>Node1&#45;&gt;Node3</title>
<g id="a_edge2_Node000001_Node000003"><a xlink:title=" ">
<path fill="none" stroke="#63b8ff" d="M366.76,-254.48C294.03,-243.33 187.13,-214.5 133,-140 110.77,-109.4 105.31,-84.48 129,-55 149.9,-29 246.85,-17.3 298.46,-12.84"/>
<polygon fill="#63b8ff" stroke="#63b8ff" points="299.07,-16.3 308.75,-11.99 298.49,-9.32 299.07,-16.3"/>
</a>
</g>
</g>
<!-- Node4 -->
<g id="Node000004" class="node">
<title>Node4</title>
<g id="a_Node000004"><a xlink:title=" ">
<polygon fill="#e0e0e0" stroke="#999999" points="310,-74 260,-74 260,-55 310,-55 310,-74"/>
<text text-anchor="middle" x="285" y="-62" font-family="Helvetica,sans-Serif" font-size="10.00">cstdint</text>
</a>
</g>
</g>
<!-- Node1&#45;&gt;Node4 -->
<g id="edge3_Node000001_Node000004" class="edge">
<title>Node1&#45;&gt;Node4</title>
<g id="a_edge3_Node000001_Node000004"><a xlink:title=" ">
<path fill="none" stroke="#63b8ff" d="M402.17,-241.99C386.71,-232.82 369.9,-220.66 358,-206 329.08,-170.37 342.87,-149.78 320,-110 314.26,-100.01 306.43,-89.83 299.64,-81.74"/>
<polygon fill="#63b8ff" stroke="#63b8ff" points="302.25,-79.41 293.06,-74.15 296.96,-84 302.25,-79.41"/>
</a>
</g>
</g>
<!-- Node5 -->
<g id="Node000005" class="node">
<title>Node5</title>
<g id="a_Node000005"><a xlink:title=" ">
<polygon fill="#e0e0e0" stroke="#999999" points="412.5,-200.5 367.5,-200.5 367.5,-181.5 412.5,-181.5 412.5,-200.5"/>
<text text-anchor="middle" x="390" y="-188.5" font-family="Helvetica,sans-Serif" font-size="10.00">utf8.h</text>
</a>
</g>
</g>
<!-- Node1&#45;&gt;Node5 -->
<g id="edge4_Node000001_Node000005" class="edge">
<title>Node1&#45;&gt;Node5</title>
<g id="a_edge4_Node000001_Node000005"><a xlink:title=" ">
<path fill="none" stroke="#63b8ff" d="M427.24,-241.77C419.51,-231.45 410.15,-218.93 402.75,-209.04"/>
<polygon fill="#63b8ff" stroke="#63b8ff" points="405.39,-206.73 396.6,-200.82 399.79,-210.92 405.39,-206.73"/>
</a>
</g>
</g>
<!-- Node6 -->
<g id="Node000006" class="node">
<title>Node6</title>
<g id="a_Node000006"><a xlink:href="val__adaptor__vec_8h.html" target="_top" xlink:title=" ">
<polygon fill="white" stroke="#666666" points="557.5,-206 430.5,-206 430.5,-176 557.5,-176 557.5,-206"/>
<text text-anchor="start" x="438.5" y="-194" font-family="Helvetica,sans-Serif" font-size="10.00">webcface/common/val</text>
<text text-anchor="middle" x="494" y="-183" font-family="Helvetica,sans-Serif" font-size="10.00">_adaptor_vec.h</text>
</a>
</g>
</g>
<!-- Node1&#45;&gt;Node6 -->
<g id="edge5_Node000001_Node000006" class="edge">
<title>Node1&#45;&gt;Node6</title>
<g id="a_edge5_Node000001_Node000006"><a xlink:title=" ">
<path fill="none" stroke="#63b8ff" d="M456.76,-241.77C463.22,-233.13 470.83,-222.96 477.48,-214.08"/>
<polygon fill="#63b8ff" stroke="#63b8ff" points="480.31,-216.14 483.5,-206.04 474.7,-211.95 480.31,-216.14"/>
</a>
</g>
</g>
<!-- Node18 -->
<g id="Node000018" class="node">
<title>Node18</title>
<g id="a_Node000018"><a xlink:href="num__vector_8h.html" target="_top" xlink:title=" ">
<polygon fill="white" stroke="#666666" points="1020,-140 886,-140 886,-110 1020,-110 1020,-140"/>
<text text-anchor="start" x="894" y="-128" font-family="Helvetica,sans-Serif" font-size="10.00">webcface/common/num</text>
<text text-anchor="middle" x="953" y="-117" font-family="Helvetica,sans-Serif" font-size="10.00">_vector.h</text>
</a>
</g>
</g>
<!-- Node1&#45;&gt;Node18 -->
<g id="edge23_Node000001_Node000018" class="edge">
<title>Node1&#45;&gt;Node18</title>
<g id="a_edge23_Node000001_Node000018"><a xlink:title=" ">
<path fill="none" stroke="#63b8ff" d="M517.27,-258.68C584.25,-253.84 683.63,-240.82 763,-206 783.03,-197.21 782.68,-186.25 802,-176 828.18,-162.11 858.95,-151.08 885.86,-142.95"/>
<polygon fill="#63b8ff" stroke="#63b8ff" points="886.97,-146.27 895.58,-140.09 885,-139.56 886.97,-146.27"/>
</a>
</g>
</g>
<!-- Node19 -->
<g id="Node000019" class="node">
<title>Node19</title>
<g id="a_Node000019"><a xlink:href="base_8h.html" target="_top" xlink:title=" ">
<polygon fill="white" stroke="#666666" points="753.5,-200.5 698.5,-200.5 698.5,-181.5 753.5,-181.5 753.5,-200.5"/>
<text text-anchor="middle" x="726" y="-188.5" font-family="Helvetica,sans-Serif" font-size="10.00">./base.h</text>
</a>
</g>
</g>
<!-- Node1&#45;&gt;Node19 -->
<g id="edge27_Node000001_Node000019" class="edge">
<title>Node1&#45;&gt;Node19</title>
<g id="a_edge27_Node000001_Node000019"><a xlink:title=" ">
<path fill="none" stroke="#63b8ff" d="M517.36,-243.06C572.59,-229.54 645.2,-211.77 688.58,-201.16"/>
<polygon fill="#63b8ff" stroke="#63b8ff" points="689.55,-204.52 698.43,-198.75 687.89,-197.72 689.55,-204.52"/>
</a>
</g>
</g>
<!-- Node22 -->
<g id="Node000022" class="node">
<title>Node22</title>
<g id="a_Node000022"><a xlink:title=" ">
<polygon fill="#e0e0e0" stroke="#999999" points="901.5,-200.5 810.5,-200.5 810.5,-181.5 901.5,-181.5 901.5,-200.5"/>
<text text-anchor="middle" x="856" y="-188.5" font-family="Helvetica,sans-Serif" font-size="10.00">spdlog/logger.h</text>
</a>
</g>
</g>
<!-- Node1&#45;&gt;Node22 -->
<g id="edge36_Node000001_Node000022" class="edge">
<title>Node1&#45;&gt;Node22</title>
<g id="a_edge36_Node000001_Node000022"><a xlink:title=" ">
<path fill="none" stroke="#63b8ff" d="M517.21,-251.35C589.06,-241.26 700.29,-224.64 796,-206 801.05,-205.02 806.33,-203.91 811.56,-202.75"/>
<polygon fill="#63b8ff" stroke="#63b8ff" points="812.53,-206.12 821.51,-200.51 810.98,-199.3 812.53,-206.12"/>
</a>
</g>
</g>
<!-- Node7 -->
<g id="Node000007" class="node">
<title>Node7</title>
<g id="a_Node000007"><a xlink:href="common_2val__adaptor_8h.html" target="_top" xlink:title=" ">
<polygon fill="white" stroke="#666666" points="597.5,-134.5 514.5,-134.5 514.5,-115.5 597.5,-115.5 597.5,-134.5"/>
<text text-anchor="middle" x="556" y="-122.5" font-family="Helvetica,sans-Serif" font-size="10.00">val_adaptor.h</text>
</a>
</g>
</g>
<!-- Node6&#45;&gt;Node7 -->
<g id="edge6_Node000006_Node000007" class="edge">
<title>Node6&#45;&gt;Node7</title>
<g id="a_edge6_Node000006_Node000007"><a xlink:title=" ">
<path fill="none" stroke="#63b8ff" d="M507.76,-175.8C517.43,-165.82 530.37,-152.46 540.42,-142.09"/>
<polygon fill="#63b8ff" stroke="#63b8ff" points="542.99,-144.46 547.43,-134.84 537.96,-139.59 542.99,-144.46"/>
</a>
</g>
</g>
<!-- Node15 -->
<g id="Node000015" class="node">
<title>Node15</title>
<g id="a_Node000015"><a xlink:href="webcface-config_8h.html" target="_top" xlink:title=" ">
<polygon fill="white" stroke="#666666" points="630.5,-19 525.5,-19 525.5,0 630.5,0 630.5,-19"/>
<text text-anchor="middle" x="578" y="-7" font-family="Helvetica,sans-Serif" font-size="10.00">webcface&#45;config.h</text>
</a>
</g>
</g>
<!-- Node6&#45;&gt;Node15 -->
<g id="edge22_Node000006_Node000015" class="edge">
<title>Node6&#45;&gt;Node15</title>
<g id="a_edge22_Node000006_Node000015"><a xlink:title=" ">
<path fill="none" stroke="#63b8ff" d="M487.57,-175.64C476.89,-149.4 458.9,-92.9 483,-55 492.88,-39.45 509.79,-29.25 526.62,-22.58"/>
<polygon fill="#63b8ff" stroke="#63b8ff" points="528.24,-25.72 536.47,-19.06 525.88,-19.13 528.24,-25.72"/>
</a>
</g>
</g>
<!-- Node16 -->
<g id="Node000016" class="node">
<title>Node16</title>
<g id="a_Node000016"><a xlink:href="common_2include_2webcface_2common_2exception_8h.html" target="_top" xlink:title=" ">
<polygon fill="white" stroke="#666666" points="311.5,-134.5 142.5,-134.5 142.5,-115.5 311.5,-115.5 311.5,-134.5"/>
<text text-anchor="middle" x="227" y="-122.5" font-family="Helvetica,sans-Serif" font-size="10.00">webcface/common/exception.h</text>
</a>
</g>
</g>
<!-- Node6&#45;&gt;Node16 -->
<g id="edge19_Node000006_Node000016" class="edge">
<title>Node6&#45;&gt;Node16</title>
<g id="a_edge19_Node000006_Node000016"><a xlink:title=" ">
<path fill="none" stroke="#63b8ff" d="M435.41,-175.95C386.31,-164.19 317.24,-147.63 272.3,-136.86"/>
<polygon fill="#63b8ff" stroke="#63b8ff" points="273.07,-133.44 262.53,-134.52 271.44,-140.25 273.07,-133.44"/>
</a>
</g>
</g>
<!-- Node7&#45;&gt;Node3 -->
<g id="edge7_Node000007_Node000003" class="edge">
<title>Node7&#45;&gt;Node3</title>
<g id="a_edge7_Node000007_Node000003"><a xlink:title=" ">
<path fill="none" stroke="#63b8ff" d="M514.47,-124.09C470.4,-122.02 401.15,-112.26 357,-74 343.93,-62.67 337.32,-43.77 334.05,-29.53"/>
<polygon fill="#63b8ff" stroke="#63b8ff" points="337.42,-28.49 332.08,-19.34 330.54,-29.82 337.42,-28.49"/>
</a>
</g>
</g>
<!-- Node7&#45;&gt;Node4 -->
<g id="edge10_Node000007_Node000004" class="edge">
<title>Node7&#45;&gt;Node4</title>
<g id="a_edge10_Node000007_Node000004"><a xlink:title=" ">
<path fill="none" stroke="#63b8ff" d="M516.17,-115.45C469.95,-105.51 391.45,-88.62 324,-74 322.74,-73.73 321.46,-73.45 320.17,-73.17"/>
<polygon fill="#63b8ff" stroke="#63b8ff" points="320.69,-69.7 310.17,-71 319.2,-76.54 320.69,-69.7"/>
</a>
</g>
</g>
<!-- Node8 -->
<g id="Node000008" class="node">
<title>Node8</title>
<g id="a_Node000008"><a xlink:title=" ">
<polygon fill="#e0e0e0" stroke="#999999" points="945.5,-74 898.5,-74 898.5,-55 945.5,-55 945.5,-74"/>
<text text-anchor="middle" x="922" y="-62" font-family="Helvetica,sans-Serif" font-size="10.00">vector</text>
</a>
</g>
</g>
<!-- Node7&#45;&gt;Node8 -->
<g id="edge8_Node000007_Node000008" class="edge">
<title>Node7&#45;&gt;Node8</title>
<g id="a_edge8_Node000007_Node000008"><a xlink:title=" ">
<path fill="none" stroke="#63b8ff" d="M597.66,-119.27C659.26,-111.95 778.4,-96.54 888.37,-74.15"/>
<polygon fill="#63b8ff" stroke="#63b8ff" points="889.22,-77.55 898.3,-72.11 887.8,-70.7 889.22,-77.55"/>
</a>
</g>
</g>
<!-- Node9 -->
<g id="Node000009" class="node">
<title>Node9</title>
<g id="a_Node000009"><a xlink:title=" ">
<polygon fill="#e0e0e0" stroke="#999999" points="647.5,-74 606.5,-74 606.5,-55 647.5,-55 647.5,-74"/>
<text text-anchor="middle" x="627" y="-62" font-family="Helvetica,sans-Serif" font-size="10.00">tuple</text>
</a>
</g>
</g>
<!-- Node7&#45;&gt;Node9 -->
<g id="edge9_Node000007_Node000009" class="edge">
<title>Node7&#45;&gt;Node9</title>
<g id="a_edge9_Node000007_Node000009"><a xlink:title=" ">
<path fill="none" stroke="#63b8ff" d="M566.48,-115.37C577.49,-106.3 595.04,-91.84 608.41,-80.82"/>
<polygon fill="#63b8ff" stroke="#63b8ff" points="610.99,-83.23 616.48,-74.17 606.54,-77.83 610.99,-83.23"/>
</a>
</g>
</g>
<!-- Node10 -->
<g id="Node000010" class="node">
<title>Node10</title>
<g id="a_Node000010"><a xlink:title=" ">
<polygon fill="#e0e0e0" stroke="#999999" points="549.5,-74 492.5,-74 492.5,-55 549.5,-55 549.5,-74"/>
<text text-anchor="middle" x="521" y="-62" font-family="Helvetica,sans-Serif" font-size="10.00">ostream</text>
</a>
</g>
</g>
<!-- Node7&#45;&gt;Node10 -->
<g id="edge11_Node000007_Node000010" class="edge">
<title>Node7&#45;&gt;Node10</title>
<g id="a_edge11_Node000007_Node000010"><a xlink:title=" ">
<path fill="none" stroke="#63b8ff" d="M550.84,-115.37C545.77,-106.9 537.9,-93.74 531.51,-83.07"/>
<polygon fill="#63b8ff" stroke="#63b8ff" points="534.32,-80.95 526.19,-74.17 528.32,-84.55 534.32,-80.95"/>
</a>
</g>
</g>
<!-- Node11 -->
<g id="Node000011" class="node">
<title>Node11</title>
<g id="a_Node000011"><a xlink:title=" ">
<polygon fill="#e0e0e0" stroke="#999999" points="716.5,-74 665.5,-74 665.5,-55 716.5,-55 716.5,-74"/>
<text text-anchor="middle" x="691" y="-62" font-family="Helvetica,sans-Serif" font-size="10.00">variant</text>
</a>
</g>
</g>
<!-- Node7&#45;&gt;Node11 -->
<g id="edge12_Node000007_Node000011" class="edge">
<title>Node7&#45;&gt;Node11</title>
<g id="a_edge12_Node000007_Node000011"><a xlink:title=" ">
<path fill="none" stroke="#63b8ff" d="M575.63,-115.49C598.33,-105.66 635.9,-89.38 661.97,-78.08"/>
<polygon fill="#63b8ff" stroke="#63b8ff" points="663.56,-81.2 671.35,-74.02 660.78,-74.78 663.56,-81.2"/>
</a>
</g>
</g>
<!-- Node12 -->
<g id="Node000012" class="node">
<title>Node12</title>
<g id="a_Node000012"><a xlink:href="common_2encoding_8h.html" target="_top" xlink:title=" ">
<polygon fill="white" stroke="#666666" points="436,-74 366,-74 366,-55 436,-55 436,-74"/>
<text text-anchor="middle" x="401" y="-62" font-family="Helvetica,sans-Serif" font-size="10.00">encoding.h</text>
</a>
</g>
</g>
<!-- Node7&#45;&gt;Node12 -->
<g id="edge13_Node000007_Node000012" class="edge">
<title>Node7&#45;&gt;Node12</title>
<g id="a_edge13_Node000007_Node000012"><a xlink:title=" ">
<path fill="none" stroke="#63b8ff" d="M533.46,-115.49C507.06,-105.53 463.12,-88.95 433.15,-77.63"/>
<polygon fill="#63b8ff" stroke="#63b8ff" points="434.16,-74.27 423.57,-74.02 431.69,-80.82 434.16,-74.27"/>
</a>
</g>
</g>
<!-- Node7&#45;&gt;Node15 -->
<g id="edge18_Node000007_Node000015" class="edge">
<title>Node7&#45;&gt;Node15</title>
<g id="a_edge18_Node000007_Node000015"><a xlink:title=" ">
<path fill="none" stroke="#63b8ff" d="M557.65,-115.47C561.19,-97.23 569.55,-54.07 574.39,-29.14"/>
<polygon fill="#63b8ff" stroke="#63b8ff" points="577.86,-29.61 576.33,-19.13 570.99,-28.28 577.86,-29.61"/>
</a>
</g>
</g>
<!-- Node12&#45;&gt;Node3 -->
<g id="edge14_Node000012_Node000003" class="edge">
<title>Node12&#45;&gt;Node3</title>
<g id="a_edge14_Node000012_Node000003"><a xlink:title=" ">
<path fill="none" stroke="#63b8ff" d="M389.75,-54.98C379.2,-47 363.2,-34.88 350.56,-25.31"/>
<polygon fill="#63b8ff" stroke="#63b8ff" points="352.54,-22.42 342.45,-19.17 348.31,-28 352.54,-22.42"/>
</a>
</g>
</g>
<!-- Node13 -->
<g id="Node000013" class="node">
<title>Node13</title>
<g id="a_Node000013"><a xlink:title=" ">
<polygon fill="#e0e0e0" stroke="#999999" points="444.5,-19 371.5,-19 371.5,0 444.5,0 444.5,-19"/>
<text text-anchor="middle" x="408" y="-7" font-family="Helvetica,sans-Serif" font-size="10.00">string_view</text>
</a>
</g>
</g>
<!-- Node12&#45;&gt;Node13 -->
<g id="edge15_Node000012_Node000013" class="edge">
<title>Node12&#45;&gt;Node13</title>
<g id="a_edge15_Node000012_Node000013"><a xlink:title=" ">
<path fill="none" stroke="#63b8ff" d="M402.16,-54.75C403.07,-47.8 404.39,-37.85 405.54,-29.13"/>
<polygon fill="#63b8ff" stroke="#63b8ff" points="409.03,-29.46 406.87,-19.09 402.09,-28.54 409.03,-29.46"/>
</a>
</g>
</g>
<!-- Node14 -->
<g id="Node000014" class="node">
<title>Node14</title>
<g id="a_Node000014"><a xlink:title=" ">
<polygon fill="#e0e0e0" stroke="#999999" points="1041,-19 983,-19 983,0 1041,0 1041,-19"/>
<text text-anchor="middle" x="1012" y="-7" font-family="Helvetica,sans-Serif" font-size="10.00">memory</text>
</a>
</g>
</g>
<!-- Node12&#45;&gt;Node14 -->
<g id="edge16_Node000012_Node000014" class="edge">
<title>Node12&#45;&gt;Node14</title>
<g id="a_edge16_Node000012_Node000014"><a xlink:title=" ">
<path fill="none" stroke="#63b8ff" d="M436.1,-59.71C450.61,-58.18 467.61,-56.44 483,-55 665.97,-37.82 884.84,-20.41 972.68,-13.55"/>
<polygon fill="#63b8ff" stroke="#63b8ff" points="973.04,-17.03 982.74,-12.76 972.49,-10.05 973.04,-17.03"/>
</a>
</g>
</g>
<!-- Node12&#45;&gt;Node15 -->
<g id="edge17_Node000012_Node000015" class="edge">
<title>Node12&#45;&gt;Node15</title>
<g id="a_edge17_Node000012_Node000015"><a xlink:title=" ">
<path fill="none" stroke="#63b8ff" d="M429.44,-54.98C459.28,-46.05 506.38,-31.94 539.53,-22.02"/>
<polygon fill="#63b8ff" stroke="#63b8ff" points="540.76,-25.3 549.34,-19.08 538.76,-18.6 540.76,-25.3"/>
</a>
</g>
</g>
<!-- Node16&#45;&gt;Node15 -->
<g id="edge20_Node000016_Node000015" class="edge">
<title>Node16&#45;&gt;Node15</title>
<g id="a_edge20_Node000016_Node000015"><a xlink:title=" ">
<path fill="none" stroke="#63b8ff" d="M227.27,-115.18C228.25,-100.23 232.54,-70.1 251,-55 271.07,-38.58 426.26,-23.13 515.45,-15.49"/>
<polygon fill="#63b8ff" stroke="#63b8ff" points="515.78,-18.97 525.45,-14.64 515.19,-12 515.78,-18.97"/>
</a>
</g>
</g>
<!-- Node17 -->
<g id="Node000017" class="node">
<title>Node17</title>
<g id="a_Node000017"><a xlink:title=" ">
<polygon fill="#e0e0e0" stroke="#999999" points="203.5,-74 138.5,-74 138.5,-55 203.5,-55 203.5,-74"/>
<text text-anchor="middle" x="171" y="-62" font-family="Helvetica,sans-Serif" font-size="10.00">stdexcept</text>
</a>
</g>
</g>
<!-- Node16&#45;&gt;Node17 -->
<g id="edge21_Node000016_Node000017" class="edge">
<title>Node16&#45;&gt;Node17</title>
<g id="a_edge21_Node000016_Node000017"><a xlink:title=" ">
<path fill="none" stroke="#63b8ff" d="M218.74,-115.37C210.22,-106.47 196.74,-92.39 186.27,-81.45"/>
<polygon fill="#63b8ff" stroke="#63b8ff" points="188.74,-78.97 179.3,-74.17 183.68,-83.81 188.74,-78.97"/>
</a>
</g>
</g>
<!-- Node18&#45;&gt;Node8 -->
<g id="edge25_Node000018_Node000008" class="edge">
<title>Node18&#45;&gt;Node8</title>
<g id="a_edge25_Node000018_Node000008"><a xlink:title=" ">
<path fill="none" stroke="#63b8ff" d="M945.5,-109.84C941.27,-101.87 935.96,-91.84 931.45,-83.33"/>
<polygon fill="#63b8ff" stroke="#63b8ff" points="934.42,-81.46 926.65,-74.27 928.23,-84.74 934.42,-81.46"/>
</a>
</g>
</g>
<!-- Node18&#45;&gt;Node14 -->
<g id="edge24_Node000018_Node000014" class="edge">
<title>Node18&#45;&gt;Node14</title>
<g id="a_edge24_Node000018_Node000014"><a xlink:title=" ">
<path fill="none" stroke="#63b8ff" d="M964.42,-109.74C971.81,-100.06 981.27,-86.74 988,-74 995.74,-59.35 1002.22,-41.63 1006.49,-28.64"/>
<polygon fill="#63b8ff" stroke="#63b8ff" points="1009.85,-29.6 1009.53,-19.01 1003.18,-27.49 1009.85,-29.6"/>
</a>
</g>
</g>
<!-- Node18&#45;&gt;Node15 -->
<g id="edge26_Node000018_Node000015" class="edge">
<title>Node18&#45;&gt;Node15</title>
<g id="a_edge26_Node000018_Node000015"><a xlink:title=" ">
<path fill="none" stroke="#63b8ff" d="M958.47,-109.93C963.45,-94.47 968.22,-69.87 955,-55 934.52,-31.96 742.65,-18.83 640.82,-13.43"/>
<polygon fill="#63b8ff" stroke="#63b8ff" points="640.82,-9.93 630.65,-12.9 640.46,-16.92 640.82,-9.93"/>
</a>
</g>
</g>
<!-- Node19&#45;&gt;Node7 -->
<g id="edge32_Node000019_Node000007" class="edge">
<title>Node19&#45;&gt;Node7</title>
<g id="a_edge32_Node000019_Node000007"><a xlink:title=" ">
<path fill="none" stroke="#63b8ff" d="M703.07,-181.37C673.46,-170.22 621.75,-150.75 588.2,-138.12"/>
<polygon fill="#63b8ff" stroke="#63b8ff" points="589.43,-134.84 578.83,-134.6 586.96,-141.4 589.43,-134.84"/>
</a>
</g>
</g>
<!-- Node19&#45;&gt;Node8 -->
<g id="edge35_Node000019_Node000008" class="edge">
<title>Node19&#45;&gt;Node8</title>
<g id="a_edge35_Node000019_Node000008"><a xlink:title=" ">
<path fill="none" stroke="#63b8ff" d="M748.36,-181.38C770.42,-172.44 804.69,-157.35 832,-140 859.66,-122.42 888.25,-97.36 905.59,-81.26"/>
<polygon fill="#63b8ff" stroke="#63b8ff" points="908.26,-83.55 913.14,-74.15 903.46,-78.46 908.26,-83.55"/>
</a>
</g>
</g>
<!-- Node19&#45;&gt;Node11 -->
<g id="edge34_Node000019_Node000011" class="edge">
<title>Node19&#45;&gt;Node11</title>
<g id="a_edge34_Node000019_Node000011"><a xlink:title=" ">
<path fill="none" stroke="#63b8ff" d="M723.59,-181.44C717.97,-161.45 703.88,-111.32 696.2,-83.98"/>
<polygon fill="#63b8ff" stroke="#63b8ff" points="699.5,-82.8 693.42,-74.12 692.76,-84.69 699.5,-82.8"/>
</a>
</g>
</g>
<!-- Node19&#45;&gt;Node14 -->
<g id="edge33_Node000019_Node000014" class="edge">
<title>Node19&#45;&gt;Node14</title>
<g id="a_edge33_Node000019_Node000014"><a xlink:title=" ">
<path fill="none" stroke="#63b8ff" d="M753.77,-184.71C768.15,-182.02 786,-178.74 802,-176 852.34,-167.37 995.83,-178.84 1029,-140 1056.02,-108.36 1035.58,-55.56 1021.83,-28.18"/>
<polygon fill="#63b8ff" stroke="#63b8ff" points="1024.92,-26.54 1017.16,-19.33 1018.73,-29.8 1024.92,-26.54"/>
</a>
</g>
</g>
<!-- Node19&#45;&gt;Node15 -->
<g id="edge28_Node000019_Node000015" class="edge">
<title>Node19&#45;&gt;Node15</title>
<g id="a_edge28_Node000019_Node000015"><a xlink:title=" ">
<path fill="none" stroke="#63b8ff" d="M729.18,-181.33C737.08,-158.17 754.95,-93.93 726,-55 706.44,-28.69 671.83,-17.36 641,-12.7"/>
<polygon fill="#63b8ff" stroke="#63b8ff" points="641.09,-9.18 630.72,-11.36 640.19,-16.12 641.09,-9.18"/>
</a>
</g>
</g>
<!-- Node20 -->
<g id="Node000020" class="node">
<title>Node20</title>
<g id="a_Node000020"><a xlink:href="fmt_8h.html" target="_top" xlink:title=" ">
<polygon fill="white" stroke="#666666" points="822.5,-134.5 773.5,-134.5 773.5,-115.5 822.5,-115.5 822.5,-134.5"/>
<text text-anchor="middle" x="798" y="-122.5" font-family="Helvetica,sans-Serif" font-size="10.00">./fmt.h</text>
</a>
</g>
</g>
<!-- Node19&#45;&gt;Node20 -->
<g id="edge29_Node000019_Node000020" class="edge">
<title>Node19&#45;&gt;Node20</title>
<g id="a_edge29_Node000019_Node000020"><a xlink:title=" ">
<path fill="none" stroke="#63b8ff" d="M735.71,-181.37C747.13,-171.21 766.32,-154.16 780.39,-141.65"/>
<polygon fill="#63b8ff" stroke="#63b8ff" points="782.83,-144.16 787.98,-134.91 778.18,-138.93 782.83,-144.16"/>
</a>
</g>
</g>
<!-- Node20&#45;&gt;Node15 -->
<g id="edge30_Node000020_Node000015" class="edge">
<title>Node20&#45;&gt;Node15</title>
<g id="a_edge30_Node000020_Node000015"><a xlink:title=" ">
<path fill="none" stroke="#63b8ff" d="M795.57,-115.29C790.98,-100.52 779.61,-70.63 759,-55 725.18,-29.36 678.5,-18.31 641.01,-13.63"/>
<polygon fill="#63b8ff" stroke="#63b8ff" points="641.03,-10.11 630.7,-12.47 640.25,-17.07 641.03,-10.11"/>
</a>
</g>
</g>
<!-- Node21 -->
<g id="Node000021" class="node">
<title>Node21</title>
<g id="a_Node000021"><a xlink:title=" ">
<polygon fill="#e0e0e0" stroke="#999999" points="880.5,-74 811.5,-74 811.5,-55 880.5,-55 880.5,-74"/>
<text text-anchor="middle" x="846" y="-62" font-family="Helvetica,sans-Serif" font-size="10.00">fmt/base.h</text>
</a>
</g>
</g>
<!-- Node20&#45;&gt;Node21 -->
<g id="edge31_Node000020_Node000021" class="edge">
<title>Node20&#45;&gt;Node21</title>
<g id="a_edge31_Node000020_Node000021"><a xlink:title=" ">
<path fill="none" stroke="#63b8ff" d="M805.08,-115.37C812.24,-106.64 823.49,-92.93 832.39,-82.09"/>
<polygon fill="#63b8ff" stroke="#63b8ff" points="835.25,-84.12 838.89,-74.17 829.84,-79.68 835.25,-84.12"/>
</a>
</g>
</g>
</g>
</svg>
