<?xml version="1.0" encoding="UTF-8" standalone="no"?>
<!DOCTYPE svg PUBLIC "-//W3C//DTD SVG 1.1//EN"
 "http://www.w3.org/Graphics/SVG/1.1/DTD/svg11.dtd">
<!-- Generated by graphviz version 2.43.0 (0)
 -->
<!-- Title: include/webcface/common/queue.h Pages: 1 -->
<svg width="1791pt" height="258pt"
 viewBox="0.00 0.00 1790.50 258.00" xmlns="http://www.w3.org/2000/svg" xmlns:xlink="http://www.w3.org/1999/xlink">
<g id="graph0" class="graph" transform="scale(1 1) rotate(0) translate(4 254)">
<title>include/webcface/common/queue.h</title>
<!-- Node1 -->
<g id="Node000001" class="node">
<title>Node1</title>
<g id="a_Node000001"><a xlink:title=" ">
<polygon fill="#999999" stroke="#666666" points="1082,-250 935,-250 935,-220 1082,-220 1082,-250"/>
<text text-anchor="start" x="943" y="-238" font-family="Helvetica,sans-Serif" font-size="10.00">include/webcface/common</text>
<text text-anchor="middle" x="1008.5" y="-227" font-family="Helvetica,sans-Serif" font-size="10.00">/queue.h</text>
</a>
</g>
</g>
<!-- Node2 -->
<g id="Node000002" class="node">
<title>Node2</title>
<g id="a_Node000002"><a xlink:href="client__internal_8h.html" target="_top" xlink:title=" ">
<polygon fill="white" stroke="#666666" points="971,-129 846,-129 846,-110 971,-110 971,-129"/>
<text text-anchor="middle" x="908.5" y="-117" font-family="Helvetica,sans-Serif" font-size="10.00">client/client_internal.h</text>
</a>
</g>
</g>
<!-- Node1&#45;&gt;Node2 -->
<g id="edge1_Node000001_Node000002" class="edge">
<title>Node1&#45;&gt;Node2</title>
<g id="a_edge1_Node000001_Node000002"><a xlink:title=" ">
<path fill="none" stroke="#63b8ff" d="M965.47,-215.16C951.66,-207.28 937.4,-196.91 927.5,-184 914.75,-167.38 910.53,-142.3 909.15,-129.18"/>
<polygon fill="#63b8ff" stroke="#63b8ff" points="963.96,-218.33 974.43,-219.98 967.28,-212.16 963.96,-218.33"/>
</a>
</g>
</g>
<!-- Node20 -->
<g id="Node000020" class="node">
<title>Node20</title>
<g id="a_Node000020"><a xlink:href="logger_8h.html" target="_top" xlink:title=" ">
<polygon fill="white" stroke="#666666" points="1080,-184 937,-184 937,-165 1080,-165 1080,-184"/>
<text text-anchor="middle" x="1008.5" y="-172" font-family="Helvetica,sans-Serif" font-size="10.00">include/webcface/logger.h</text>
</a>
</g>
</g>
<!-- Node1&#45;&gt;Node20 -->
<g id="edge21_Node000001_Node000020" class="edge">
<title>Node1&#45;&gt;Node20</title>
<g id="a_edge21_Node000001_Node000020"><a xlink:title=" ">
<path fill="none" stroke="#63b8ff" d="M1008.5,-209.75C1008.5,-200.72 1008.5,-191.03 1008.5,-184.27"/>
<polygon fill="#63b8ff" stroke="#63b8ff" points="1005,-209.84 1008.5,-219.84 1012,-209.84 1005,-209.84"/>
</a>
</g>
</g>
<!-- Node21 -->
<g id="Node000021" class="node">
<title>Node21</title>
<g id="a_Node000021"><a xlink:href="webcface_8h.html" target="_top" xlink:title=" ">
<polygon fill="white" stroke="#666666" points="1194.5,-129 1034.5,-129 1034.5,-110 1194.5,-110 1194.5,-129"/>
<text text-anchor="middle" x="1114.5" y="-117" font-family="Helvetica,sans-Serif" font-size="10.00">include/webcface/webcface.h</text>
</a>
</g>
</g>
<!-- Node1&#45;&gt;Node21 -->
<g id="edge25_Node000001_Node000021" class="edge">
<title>Node1&#45;&gt;Node21</title>
<g id="a_edge25_Node000001_Node000021"><a xlink:title=" ">
<path fill="none" stroke="#63b8ff" d="M1050.23,-215.07C1064.2,-207.1 1078.89,-196.69 1089.5,-184 1103.33,-167.46 1110.13,-142.34 1112.91,-129.2"/>
<polygon fill="#63b8ff" stroke="#63b8ff" points="1048.34,-212.12 1041.22,-219.96 1051.67,-218.27 1048.34,-212.12"/>
</a>
</g>
</g>
<!-- Node3 -->
<g id="Node000003" class="node">
<title>Node3</title>
<g id="a_Node000003"><a xlink:href="canvas2d_8cc.html" target="_top" xlink:title=" ">
<polygon fill="white" stroke="#666666" points="107,-74 0,-74 0,-55 107,-55 107,-74"/>
<text text-anchor="middle" x="53.5" y="-62" font-family="Helvetica,sans-Serif" font-size="10.00">client/canvas2d.cc</text>
</a>
</g>
</g>
<!-- Node2&#45;&gt;Node3 -->
<g id="edge2_Node000002_Node000003" class="edge">
<title>Node2&#45;&gt;Node3</title>
<g id="a_edge2_Node000002_Node000003"><a xlink:title=" ">
<path fill="none" stroke="#63b8ff" d="M835.75,-116.37C695.95,-111.84 380.12,-99.52 115.5,-74 112.8,-73.74 110.03,-73.45 107.24,-73.14"/>
<polygon fill="#63b8ff" stroke="#63b8ff" points="835.81,-119.87 845.92,-116.69 836.03,-112.88 835.81,-119.87"/>
</a>
</g>
</g>
<!-- Node4 -->
<g id="Node000004" class="node">
<title>Node4</title>
<g id="a_Node000004"><a xlink:href="canvas3d_8cc.html" target="_top" xlink:title=" ">
<polygon fill="white" stroke="#666666" points="232,-74 125,-74 125,-55 232,-55 232,-74"/>
<text text-anchor="middle" x="178.5" y="-62" font-family="Helvetica,sans-Serif" font-size="10.00">client/canvas3d.cc</text>
</a>
</g>
</g>
<!-- Node2&#45;&gt;Node4 -->
<g id="edge3_Node000002_Node000004" class="edge">
<title>Node2&#45;&gt;Node4</title>
<g id="a_edge3_Node000002_Node000004"><a xlink:title=" ">
<path fill="none" stroke="#63b8ff" d="M835.82,-115.26C713.12,-109.43 457.14,-95.72 241.5,-74 238.43,-73.69 235.27,-73.35 232.09,-72.98"/>
<polygon fill="#63b8ff" stroke="#63b8ff" points="835.7,-118.76 845.85,-115.73 836.03,-111.77 835.7,-118.76"/>
</a>
</g>
</g>
<!-- Node5 -->
<g id="Node000005" class="node">
<title>Node5</title>
<g id="a_Node000005"><a xlink:href="canvas__data_8cc.html" target="_top" xlink:title=" ">
<polygon fill="white" stroke="#666666" points="372.5,-74 250.5,-74 250.5,-55 372.5,-55 372.5,-74"/>
<text text-anchor="middle" x="311.5" y="-62" font-family="Helvetica,sans-Serif" font-size="10.00">client/canvas_data.cc</text>
</a>
</g>
</g>
<!-- Node2&#45;&gt;Node5 -->
<g id="edge4_Node000002_Node000005" class="edge">
<title>Node2&#45;&gt;Node5</title>
<g id="a_edge4_Node000002_Node000005"><a xlink:title=" ">
<path fill="none" stroke="#63b8ff" d="M835.69,-112.94C734.75,-105.08 546.63,-89.9 386.5,-74 382.07,-73.56 377.49,-73.09 372.88,-72.6"/>
<polygon fill="#63b8ff" stroke="#63b8ff" points="835.53,-116.43 845.77,-113.72 836.08,-109.46 835.53,-116.43"/>
</a>
</g>
</g>
<!-- Node6 -->
<g id="Node000006" class="node">
<title>Node6</title>
<g id="a_Node000006"><a xlink:href="client_2client_8cc.html" target="_top" xlink:title=" ">
<polygon fill="white" stroke="#666666" points="465,-19 378,-19 378,0 465,0 465,-19"/>
<text text-anchor="middle" x="421.5" y="-7" font-family="Helvetica,sans-Serif" font-size="10.00">client/client.cc</text>
</a>
</g>
</g>
<!-- Node2&#45;&gt;Node6 -->
<g id="edge5_Node000002_Node000006" class="edge">
<title>Node2&#45;&gt;Node6</title>
<g id="a_edge5_Node000002_Node000006"><a xlink:title=" ">
<path fill="none" stroke="#63b8ff" d="M835.4,-117.17C705.85,-114.04 446.96,-104.07 419.5,-74 405.82,-59.01 412.84,-32.77 417.87,-19.19"/>
<polygon fill="#63b8ff" stroke="#63b8ff" points="835.55,-120.67 845.63,-117.41 835.71,-113.67 835.55,-120.67"/>
</a>
</g>
</g>
<!-- Node7 -->
<g id="Node000007" class="node">
<title>Node7</title>
<g id="a_Node000007"><a xlink:href="client__ws_8cc.html" target="_top" xlink:title=" ">
<polygon fill="white" stroke="#666666" points="600.5,-19 494.5,-19 494.5,0 600.5,0 600.5,-19"/>
<text text-anchor="middle" x="547.5" y="-7" font-family="Helvetica,sans-Serif" font-size="10.00">client/client_ws.cc</text>
</a>
</g>
</g>
<!-- Node2&#45;&gt;Node7 -->
<g id="edge6_Node000002_Node000007" class="edge">
<title>Node2&#45;&gt;Node7</title>
<g id="a_edge6_Node000002_Node000007"><a xlink:title=" ">
<path fill="none" stroke="#63b8ff" d="M835.85,-116.69C751.08,-113.24 617.41,-103.19 577.5,-74 559.2,-60.61 551.65,-33.16 548.9,-19.14"/>
<polygon fill="#63b8ff" stroke="#63b8ff" points="835.81,-120.19 845.93,-117.08 836.08,-113.2 835.81,-120.19"/>
</a>
</g>
</g>
<!-- Node8 -->
<g id="Node000008" class="node">
<title>Node8</title>
<g id="a_Node000008"><a xlink:href="client__ws_8h.html" target="_top" xlink:title=" ">
<polygon fill="white" stroke="#666666" points="530,-74 429,-74 429,-55 530,-55 530,-74"/>
<text text-anchor="middle" x="479.5" y="-62" font-family="Helvetica,sans-Serif" font-size="10.00">client/client_ws.h</text>
</a>
</g>
</g>
<!-- Node2&#45;&gt;Node8 -->
<g id="edge7_Node000002_Node000008" class="edge">
<title>Node2&#45;&gt;Node8</title>
<g id="a_edge7_Node000002_Node000008"><a xlink:title=" ">
<path fill="none" stroke="#63b8ff" d="M835.6,-109.77C762.1,-100.92 645.39,-86.76 544.5,-74 539.87,-73.41 535.06,-72.8 530.24,-72.18"/>
<polygon fill="#63b8ff" stroke="#63b8ff" points="835.33,-113.26 845.68,-110.98 836.17,-106.31 835.33,-113.26"/>
</a>
</g>
</g>
<!-- Node9 -->
<g id="Node000009" class="node">
<title>Node9</title>
<g id="a_Node000009"><a xlink:href="field_8cc.html" target="_top" xlink:title=" ">
<polygon fill="white" stroke="#666666" points="668,-74 587,-74 587,-55 668,-55 668,-74"/>
<text text-anchor="middle" x="627.5" y="-62" font-family="Helvetica,sans-Serif" font-size="10.00">client/field.cc</text>
</a>
</g>
</g>
<!-- Node2&#45;&gt;Node9 -->
<g id="edge10_Node000002_Node000009" class="edge">
<title>Node2&#45;&gt;Node9</title>
<g id="a_edge10_Node000002_Node000009"><a xlink:title=" ">
<path fill="none" stroke="#63b8ff" d="M853.2,-108.07C798.85,-97.82 717.18,-82.41 668.42,-73.22"/>
<polygon fill="#63b8ff" stroke="#63b8ff" points="852.88,-111.57 863.35,-109.98 854.17,-104.69 852.88,-111.57"/>
</a>
</g>
</g>
<!-- Node10 -->
<g id="Node000010" class="node">
<title>Node10</title>
<g id="a_Node000010"><a xlink:href="client_2func_8cc.html" target="_top" xlink:title=" ">
<polygon fill="white" stroke="#666666" points="767,-74 686,-74 686,-55 767,-55 767,-74"/>
<text text-anchor="middle" x="726.5" y="-62" font-family="Helvetica,sans-Serif" font-size="10.00">client/func.cc</text>
</a>
</g>
</g>
<!-- Node2&#45;&gt;Node10 -->
<g id="edge11_Node000002_Node000010" class="edge">
<title>Node2&#45;&gt;Node10</title>
<g id="a_edge11_Node000002_Node000010"><a xlink:title=" ">
<path fill="none" stroke="#63b8ff" d="M869.64,-107.18C835.6,-97.27 786.88,-83.08 755.97,-74.08"/>
<polygon fill="#63b8ff" stroke="#63b8ff" points="868.68,-110.55 879.26,-109.98 870.64,-103.83 868.68,-110.55"/>
</a>
</g>
</g>
<!-- Node11 -->
<g id="Node000011" class="node">
<title>Node11</title>
<g id="a_Node000011"><a xlink:href="func__listener_8cc.html" target="_top" xlink:title=" ">
<polygon fill="white" stroke="#666666" points="907.5,-74 785.5,-74 785.5,-55 907.5,-55 907.5,-74"/>
<text text-anchor="middle" x="846.5" y="-62" font-family="Helvetica,sans-Serif" font-size="10.00">client/func_listener.cc</text>
</a>
</g>
</g>
<!-- Node2&#45;&gt;Node11 -->
<g id="edge12_Node000002_Node000011" class="edge">
<title>Node2&#45;&gt;Node11</title>
<g id="a_edge12_Node000002_Node000011"><a xlink:title=" ">
<path fill="none" stroke="#63b8ff" d="M890.75,-103.32C879.69,-93.87 865.87,-82.06 856.64,-74.17"/>
<polygon fill="#63b8ff" stroke="#63b8ff" points="888.66,-106.15 898.54,-109.98 893.21,-100.83 888.66,-106.15"/>
</a>
</g>
</g>
<!-- Node12 -->
<g id="Node000012" class="node">
<title>Node12</title>
<g id="a_Node000012"><a xlink:href="image_8cc.html" target="_top" xlink:title=" ">
<polygon fill="white" stroke="#666666" points="1017,-74 926,-74 926,-55 1017,-55 1017,-74"/>
<text text-anchor="middle" x="971.5" y="-62" font-family="Helvetica,sans-Serif" font-size="10.00">client/image.cc</text>
</a>
</g>
</g>
<!-- Node2&#45;&gt;Node12 -->
<g id="edge13_Node000002_Node000012" class="edge">
<title>Node2&#45;&gt;Node12</title>
<g id="a_edge13_Node000002_Node000012"><a xlink:title=" ">
<path fill="none" stroke="#63b8ff" d="M926.54,-103.32C937.77,-93.87 951.82,-82.06 961.19,-74.17"/>
<polygon fill="#63b8ff" stroke="#63b8ff" points="924.02,-100.87 918.62,-109.98 928.53,-106.23 924.02,-100.87"/>
</a>
</g>
</g>
<!-- Node13 -->
<g id="Node000013" class="node">
<title>Node13</title>
<g id="a_Node000013"><a xlink:href="log_8cc.html" target="_top" xlink:title=" ">
<polygon fill="white" stroke="#666666" points="1110,-74 1035,-74 1035,-55 1110,-55 1110,-74"/>
<text text-anchor="middle" x="1072.5" y="-62" font-family="Helvetica,sans-Serif" font-size="10.00">client/log.cc</text>
</a>
</g>
</g>
<!-- Node2&#45;&gt;Node13 -->
<g id="edge14_Node000002_Node000013" class="edge">
<title>Node2&#45;&gt;Node13</title>
<g id="a_edge14_Node000002_Node000013"><a xlink:title=" ">
<path fill="none" stroke="#63b8ff" d="M944.71,-106.8C975.32,-96.91 1018.45,-82.97 1045.94,-74.08"/>
<polygon fill="#63b8ff" stroke="#63b8ff" points="943.29,-103.58 934.85,-109.98 945.44,-110.24 943.29,-103.58"/>
</a>
</g>
</g>
<!-- Node14 -->
<g id="Node000014" class="node">
<title>Node14</title>
<g id="a_Node000014"><a xlink:href="logger_8cc.html" target="_top" xlink:title=" ">
<polygon fill="white" stroke="#666666" points="1782.5,-74 1692.5,-74 1692.5,-55 1782.5,-55 1782.5,-74"/>
<text text-anchor="middle" x="1737.5" y="-62" font-family="Helvetica,sans-Serif" font-size="10.00">client/logger.cc</text>
</a>
</g>
</g>
<!-- Node2&#45;&gt;Node14 -->
<g id="edge15_Node000002_Node000014" class="edge">
<title>Node2&#45;&gt;Node14</title>
<g id="a_edge15_Node000002_Node000014"><a xlink:title=" ">
<path fill="none" stroke="#63b8ff" d="M981.34,-110.91C985.11,-110.59 988.85,-110.28 992.5,-110 1299.13,-86.51 1377.64,-105.95 1683.5,-74 1686.43,-73.69 1689.44,-73.34 1692.46,-72.95"/>
<polygon fill="#63b8ff" stroke="#63b8ff" points="980.96,-107.43 971.31,-111.81 981.58,-114.4 980.96,-107.43"/>
</a>
</g>
</g>
<!-- Node15 -->
<g id="Node000015" class="node">
<title>Node15</title>
<g id="a_Node000015"><a xlink:href="member_8cc.html" target="_top" xlink:title=" ">
<polygon fill="white" stroke="#666666" points="1229,-74 1128,-74 1128,-55 1229,-55 1229,-74"/>
<text text-anchor="middle" x="1178.5" y="-62" font-family="Helvetica,sans-Serif" font-size="10.00">client/member.cc</text>
</a>
</g>
</g>
<!-- Node2&#45;&gt;Node15 -->
<g id="edge16_Node000002_Node000015" class="edge">
<title>Node2&#45;&gt;Node15</title>
<g id="a_edge16_Node000002_Node000015"><a xlink:title=" ">
<path fill="none" stroke="#63b8ff" d="M961.98,-108C1012.59,-98.07 1087.65,-83.33 1134.78,-74.08"/>
<polygon fill="#63b8ff" stroke="#63b8ff" points="961.02,-104.62 951.88,-109.98 962.37,-111.49 961.02,-104.62"/>
</a>
</g>
</g>
<!-- Node16 -->
<g id="Node000016" class="node">
<title>Node16</title>
<g id="a_Node000016"><a xlink:href="robot__model_8cc.html" target="_top" xlink:title=" ">
<polygon fill="white" stroke="#666666" points="1369.5,-74 1247.5,-74 1247.5,-55 1369.5,-55 1369.5,-74"/>
<text text-anchor="middle" x="1308.5" y="-62" font-family="Helvetica,sans-Serif" font-size="10.00">client/robot_model.cc</text>
</a>
</g>
</g>
<!-- Node2&#45;&gt;Node16 -->
<g id="edge17_Node000002_Node000016" class="edge">
<title>Node2&#45;&gt;Node16</title>
<g id="a_edge17_Node000002_Node000016"><a xlink:title=" ">
<path fill="none" stroke="#63b8ff" d="M981,-108.89C1057.22,-98.79 1175.8,-83.08 1247.42,-73.59"/>
<polygon fill="#63b8ff" stroke="#63b8ff" points="980.45,-105.44 971,-110.22 981.37,-112.37 980.45,-105.44"/>
</a>
</g>
</g>
<!-- Node17 -->
<g id="Node000017" class="node">
<title>Node17</title>
<g id="a_Node000017"><a xlink:href="client_2text_8cc.html" target="_top" xlink:title=" ">
<polygon fill="white" stroke="#666666" points="1467.5,-74 1387.5,-74 1387.5,-55 1467.5,-55 1467.5,-74"/>
<text text-anchor="middle" x="1427.5" y="-62" font-family="Helvetica,sans-Serif" font-size="10.00">client/text.cc</text>
</a>
</g>
</g>
<!-- Node2&#45;&gt;Node17 -->
<g id="edge18_Node000002_Node000017" class="edge">
<title>Node2&#45;&gt;Node17</title>
<g id="a_edge18_Node000002_Node000017"><a xlink:title=" ">
<path fill="none" stroke="#63b8ff" d="M981.36,-111.09C985.13,-110.72 988.86,-110.35 992.5,-110 1163.99,-93.33 1207.71,-96.74 1378.5,-74 1381.41,-73.61 1384.41,-73.18 1387.43,-72.72"/>
<polygon fill="#63b8ff" stroke="#63b8ff" points="980.94,-107.62 971.33,-112.09 981.63,-114.58 980.94,-107.62"/>
</a>
</g>
</g>
<!-- Node18 -->
<g id="Node000018" class="node">
<title>Node18</title>
<g id="a_Node000018"><a xlink:href="client_2value_8cc.html" target="_top" xlink:title=" ">
<polygon fill="white" stroke="#666666" points="1573,-74 1486,-74 1486,-55 1573,-55 1573,-74"/>
<text text-anchor="middle" x="1529.5" y="-62" font-family="Helvetica,sans-Serif" font-size="10.00">client/value.cc</text>
</a>
</g>
</g>
<!-- Node2&#45;&gt;Node18 -->
<g id="edge19_Node000002_Node000018" class="edge">
<title>Node2&#45;&gt;Node18</title>
<g id="a_edge19_Node000002_Node000018"><a xlink:title=" ">
<path fill="none" stroke="#63b8ff" d="M981.35,-111.01C985.12,-110.66 988.85,-110.32 992.5,-110 1207.38,-91.14 1262.26,-99.1 1476.5,-74 1479.55,-73.64 1482.7,-73.24 1485.87,-72.8"/>
<polygon fill="#63b8ff" stroke="#63b8ff" points="980.95,-107.53 971.32,-111.96 981.61,-114.5 980.95,-107.53"/>
</a>
</g>
</g>
<!-- Node19 -->
<g id="Node000019" class="node">
<title>Node19</title>
<g id="a_Node000019"><a xlink:href="client_2view_8cc.html" target="_top" xlink:title=" ">
<polygon fill="white" stroke="#666666" points="1674,-74 1591,-74 1591,-55 1674,-55 1674,-74"/>
<text text-anchor="middle" x="1632.5" y="-62" font-family="Helvetica,sans-Serif" font-size="10.00">client/view.cc</text>
</a>
</g>
</g>
<!-- Node2&#45;&gt;Node19 -->
<g id="edge20_Node000002_Node000019" class="edge">
<title>Node2&#45;&gt;Node19</title>
<g id="a_edge20_Node000002_Node000019"><a xlink:title=" ">
<path fill="none" stroke="#63b8ff" d="M981.35,-110.95C985.12,-110.61 988.85,-110.3 992.5,-110 1254.35,-88.77 1321.52,-104.06 1582.5,-74 1585.21,-73.69 1588,-73.33 1590.81,-72.93"/>
<polygon fill="#63b8ff" stroke="#63b8ff" points="980.95,-107.47 971.32,-111.87 981.59,-114.44 980.95,-107.47"/>
</a>
</g>
</g>
<!-- Node8&#45;&gt;Node6 -->
<g id="edge8_Node000008_Node000006" class="edge">
<title>Node8&#45;&gt;Node6</title>
<g id="a_edge8_Node000008_Node000006"><a xlink:title=" ">
<path fill="none" stroke="#63b8ff" d="M462.59,-48.04C452.3,-38.64 439.53,-26.98 430.99,-19.17"/>
<polygon fill="#63b8ff" stroke="#63b8ff" points="460.44,-50.82 470.18,-54.98 465.16,-45.66 460.44,-50.82"/>
</a>
</g>
</g>
<!-- Node8&#45;&gt;Node7 -->
<g id="edge9_Node000008_Node000007" class="edge">
<title>Node8&#45;&gt;Node7</title>
<g id="a_edge9_Node000008_Node000007"><a xlink:title=" ">
<path fill="none" stroke="#63b8ff" d="M498.62,-48.6C510.8,-39.11 526.16,-27.13 536.38,-19.17"/>
<polygon fill="#63b8ff" stroke="#63b8ff" points="496.16,-46.08 490.43,-54.98 500.46,-51.6 496.16,-46.08"/>
</a>
</g>
</g>
<!-- Node20&#45;&gt;Node2 -->
<g id="edge22_Node000020_Node000002" class="edge">
<title>Node20&#45;&gt;Node2</title>
<g id="a_edge22_Node000020_Node000002"><a xlink:title=" ">
<path fill="none" stroke="#63b8ff" d="M983.47,-160.23C965.13,-150.51 940.76,-137.6 924.86,-129.17"/>
<polygon fill="#63b8ff" stroke="#63b8ff" points="981.96,-163.39 992.43,-164.98 985.24,-157.21 981.96,-163.39"/>
</a>
</g>
</g>
<!-- Node20&#45;&gt;Node14 -->
<g id="edge23_Node000020_Node000014" class="edge">
<title>Node20&#45;&gt;Node14</title>
<g id="a_edge23_Node000020_Node000014"><a xlink:title=" ">
<path fill="none" stroke="#63b8ff" d="M1008.04,-154.45C1008.82,-139.88 1012.5,-120.56 1025.5,-110 1082.35,-63.85 1610.69,-81.7 1683.5,-74 1686.43,-73.69 1689.43,-73.33 1692.46,-72.94"/>
<polygon fill="#63b8ff" stroke="#63b8ff" points="1004.54,-154.81 1007.92,-164.85 1011.54,-154.9 1004.54,-154.81"/>
</a>
</g>
</g>
<!-- Node20&#45;&gt;Node21 -->
<g id="edge24_Node000020_Node000021" class="edge">
<title>Node20&#45;&gt;Node21</title>
<g id="a_edge24_Node000020_Node000021"><a xlink:title=" ">
<path fill="none" stroke="#63b8ff" d="M1034.5,-160.5C1054,-150.75 1080.15,-137.68 1097.16,-129.17"/>
<polygon fill="#63b8ff" stroke="#63b8ff" points="1032.91,-157.38 1025.53,-164.98 1036.04,-163.64 1032.91,-157.38"/>
</a>
</g>
</g>
</g>
</svg>
