<?xml version="1.0" encoding="UTF-8" standalone="no"?>
<!DOCTYPE svg PUBLIC "-//W3C//DTD SVG 1.1//EN"
 "http://www.w3.org/Graphics/SVG/1.1/DTD/svg11.dtd">
<!-- Generated by graphviz version 2.43.0 (0)
 -->
<!-- Title: client/include/webcface/robot_link.h Pages: 1 -->
<svg width="1525pt" height="390pt"
 viewBox="0.00 0.00 1524.50 390.00" xmlns="http://www.w3.org/2000/svg" xmlns:xlink="http://www.w3.org/1999/xlink">
<g id="graph0" class="graph" transform="scale(1 1) rotate(0) translate(4 386)">
<title>client/include/webcface/robot_link.h</title>
<!-- Node1 -->
<g id="Node000001" class="node">
<title>Node1</title>
<g id="a_Node000001"><a xlink:title=" ">
<polygon fill="#999999" stroke="#666666" points="1408,-382 1277,-382 1277,-352 1408,-352 1408,-382"/>
<text text-anchor="start" x="1285" y="-370" font-family="Helvetica,sans-Serif" font-size="10.00">client/include/webcface</text>
<text text-anchor="middle" x="1342.5" y="-359" font-family="Helvetica,sans-Serif" font-size="10.00">/robot_link.h</text>
</a>
</g>
</g>
<!-- Node2 -->
<g id="Node000002" class="node">
<title>Node2</title>
<g id="a_Node000002"><a xlink:href="component__view_8h.html" target="_top" xlink:title=" ">
<polygon fill="white" stroke="#666666" points="846,-316 725,-316 725,-286 846,-286 846,-316"/>
<text text-anchor="start" x="733" y="-304" font-family="Helvetica,sans-Serif" font-size="10.00">webcface/component</text>
<text text-anchor="middle" x="785.5" y="-293" font-family="Helvetica,sans-Serif" font-size="10.00">_view.h</text>
</a>
</g>
</g>
<!-- Node1&#45;&gt;Node2 -->
<g id="edge1_Node000001_Node000002" class="edge">
<title>Node1&#45;&gt;Node2</title>
<g id="a_edge1_Node000001_Node000002"><a xlink:title=" ">
<path fill="none" stroke="#63b8ff" d="M1276.97,-358.47C1171.52,-346.35 965.04,-322.63 856.32,-310.14"/>
<polygon fill="#63b8ff" stroke="#63b8ff" points="856.45,-306.63 846.11,-308.96 855.65,-313.58 856.45,-306.63"/>
</a>
</g>
</g>
<!-- Node9 -->
<g id="Node000009" class="node">
<title>Node9</title>
<g id="a_Node000009"><a xlink:href="webcface-config_8h.html" target="_top" xlink:title=" ">
<polygon fill="white" stroke="#666666" points="1296,-19 1191,-19 1191,0 1296,0 1296,-19"/>
<text text-anchor="middle" x="1243.5" y="-7" font-family="Helvetica,sans-Serif" font-size="10.00">webcface&#45;config.h</text>
</a>
</g>
</g>
<!-- Node1&#45;&gt;Node9 -->
<g id="edge64_Node000001_Node000009" class="edge">
<title>Node1&#45;&gt;Node9</title>
<g id="a_edge64_Node000001_Node000009"><a xlink:title=" ">
<path fill="none" stroke="#63b8ff" d="M1396.6,-352C1447.68,-335.13 1516.5,-301.3 1516.5,-241.5 1516.5,-241.5 1516.5,-241.5 1516.5,-124 1516.5,-90.01 1510.48,-75.68 1483.5,-55 1456.3,-34.15 1367.66,-21.88 1306.08,-15.68"/>
<polygon fill="#63b8ff" stroke="#63b8ff" points="1306.36,-12.19 1296.07,-14.7 1305.68,-19.15 1306.36,-12.19"/>
</a>
</g>
</g>
<!-- Node10 -->
<g id="Node000010" class="node">
<title>Node10</title>
<g id="a_Node000010"><a xlink:href="encoding_8h.html" target="_top" xlink:title=" ">
<polygon fill="white" stroke="#666666" points="329,-74 162,-74 162,-55 329,-55 329,-74"/>
<text text-anchor="middle" x="245.5" y="-62" font-family="Helvetica,sans-Serif" font-size="10.00">webcface/encoding/encoding.h</text>
</a>
</g>
</g>
<!-- Node1&#45;&gt;Node10 -->
<g id="edge56_Node000001_Node000010" class="edge">
<title>Node1&#45;&gt;Node10</title>
<g id="a_edge56_Node000001_Node000010"><a xlink:title=" ">
<path fill="none" stroke="#63b8ff" d="M1276.96,-365.27C1044.81,-361.85 275.5,-342.85 275.5,-241.5 275.5,-241.5 275.5,-241.5 275.5,-184.5 275.5,-147.9 261.99,-106.83 253.1,-83.78"/>
<polygon fill="#63b8ff" stroke="#63b8ff" points="256.26,-82.25 249.3,-74.27 249.76,-84.85 256.26,-82.25"/>
</a>
</g>
</g>
<!-- Node30 -->
<g id="Node000030" class="node">
<title>Node30</title>
<g id="a_Node000030"><a xlink:href="geometry_8h.html" target="_top" xlink:title=" ">
<polygon fill="white" stroke="#666666" points="1488,-134.5 1367,-134.5 1367,-115.5 1488,-115.5 1488,-134.5"/>
<text text-anchor="middle" x="1427.5" y="-122.5" font-family="Helvetica,sans-Serif" font-size="10.00">webcface/geometry.h</text>
</a>
</g>
</g>
<!-- Node1&#45;&gt;Node30 -->
<g id="edge57_Node000001_Node000030" class="edge">
<title>Node1&#45;&gt;Node30</title>
<g id="a_edge57_Node000001_Node000030"><a xlink:title=" ">
<path fill="none" stroke="#63b8ff" d="M1373.77,-351.99C1388.43,-343.71 1404.58,-331.74 1413.5,-316 1444.98,-260.43 1436.93,-180.59 1431.08,-144.71"/>
<polygon fill="#63b8ff" stroke="#63b8ff" points="1434.5,-143.93 1429.31,-134.69 1427.6,-145.15 1434.5,-143.93"/>
</a>
</g>
</g>
<!-- Node32 -->
<g id="Node000032" class="node">
<title>Node32</title>
<g id="a_Node000032"><a xlink:href="transform_8h.html" target="_top" xlink:title=" ">
<polygon fill="white" stroke="#666666" points="1404,-310.5 1281,-310.5 1281,-291.5 1404,-291.5 1404,-310.5"/>
<text text-anchor="middle" x="1342.5" y="-298.5" font-family="Helvetica,sans-Serif" font-size="10.00">webcface/transform.h</text>
</a>
</g>
</g>
<!-- Node1&#45;&gt;Node32 -->
<g id="edge61_Node000001_Node000032" class="edge">
<title>Node1&#45;&gt;Node32</title>
<g id="a_edge61_Node000001_Node000032"><a xlink:title=" ">
<path fill="none" stroke="#63b8ff" d="M1342.5,-351.8C1342.5,-342.7 1342.5,-330.79 1342.5,-320.9"/>
<polygon fill="#63b8ff" stroke="#63b8ff" points="1346,-320.84 1342.5,-310.84 1339,-320.84 1346,-320.84"/>
</a>
</g>
</g>
<!-- Node3 -->
<g id="Node000003" class="node">
<title>Node3</title>
<g id="a_Node000003"><a xlink:title=" ">
<polygon fill="#e0e0e0" stroke="#999999" points="840.5,-134.5 784.5,-134.5 784.5,-115.5 840.5,-115.5 840.5,-134.5"/>
<text text-anchor="middle" x="812.5" y="-122.5" font-family="Helvetica,sans-Serif" font-size="10.00">optional</text>
</a>
</g>
</g>
<!-- Node2&#45;&gt;Node3 -->
<g id="edge2_Node000002_Node000003" class="edge">
<title>Node2&#45;&gt;Node3</title>
<g id="a_edge2_Node000002_Node000003"><a xlink:title=" ">
<path fill="none" stroke="#63b8ff" d="M792.16,-285.91C796.47,-276.07 801.78,-262.52 804.5,-250 812.48,-213.24 813.3,-169.02 813.01,-144.56"/>
<polygon fill="#63b8ff" stroke="#63b8ff" points="816.51,-144.47 812.82,-134.54 809.51,-144.61 816.51,-144.47"/>
</a>
</g>
</g>
<!-- Node4 -->
<g id="Node000004" class="node">
<title>Node4</title>
<g id="a_Node000004"><a xlink:title=" ">
<polygon fill="#e0e0e0" stroke="#999999" points="896,-74 849,-74 849,-55 896,-55 896,-74"/>
<text text-anchor="middle" x="872.5" y="-62" font-family="Helvetica,sans-Serif" font-size="10.00">vector</text>
</a>
</g>
</g>
<!-- Node2&#45;&gt;Node4 -->
<g id="edge3_Node000002_Node000004" class="edge">
<title>Node2&#45;&gt;Node4</title>
<g id="a_edge3_Node000002_Node000004"><a xlink:title=" ">
<path fill="none" stroke="#63b8ff" d="M845.69,-285.99C914.67,-266.36 1024.48,-223.31 1073.5,-140 1110.51,-77.11 972.9,-66.85 906.46,-65.5"/>
<polygon fill="#63b8ff" stroke="#63b8ff" points="906.12,-61.99 896.07,-65.35 906.01,-68.99 906.12,-61.99"/>
</a>
</g>
</g>
<!-- Node5 -->
<g id="Node000005" class="node">
<title>Node5</title>
<g id="a_Node000005"><a xlink:href="field_8h.html" target="_top" xlink:title=" ">
<polygon fill="white" stroke="#666666" points="354,-134.5 307,-134.5 307,-115.5 354,-115.5 354,-134.5"/>
<text text-anchor="middle" x="330.5" y="-122.5" font-family="Helvetica,sans-Serif" font-size="10.00">field.h</text>
</a>
</g>
</g>
<!-- Node2&#45;&gt;Node5 -->
<g id="edge4_Node000002_Node000005" class="edge">
<title>Node2&#45;&gt;Node5</title>
<g id="a_edge4_Node000002_Node000005"><a xlink:title=" ">
<path fill="none" stroke="#63b8ff" d="M729.85,-285.91C694.31,-276.56 647.39,-263.54 606.5,-250 541.86,-228.59 525.6,-222.94 463.5,-195 424.63,-177.51 381.02,-154.13 354.67,-139.58"/>
<polygon fill="#63b8ff" stroke="#63b8ff" points="356.23,-136.44 345.79,-134.64 352.83,-142.56 356.23,-136.44"/>
</a>
</g>
</g>
<!-- Node2&#45;&gt;Node9 -->
<g id="edge18_Node000002_Node000009" class="edge">
<title>Node2&#45;&gt;Node9</title>
<g id="a_edge18_Node000002_Node000009"><a xlink:title=" ">
<path fill="none" stroke="#63b8ff" d="M846.09,-299.29C982.23,-296.05 1300.5,-278.63 1300.5,-186.5 1300.5,-186.5 1300.5,-186.5 1300.5,-124 1300.5,-86.18 1274.92,-48.1 1258.03,-27.07"/>
<polygon fill="#63b8ff" stroke="#63b8ff" points="1260.52,-24.59 1251.43,-19.16 1255.15,-29.08 1260.52,-24.59"/>
</a>
</g>
</g>
<!-- Node14 -->
<g id="Node000014" class="node">
<title>Node14</title>
<g id="a_Node000014"><a xlink:href="encoding_2include_2webcface_2encoding_2val__adaptor_8h.html" target="_top" xlink:title=" ">
<polygon fill="white" stroke="#666666" points="728.5,-140 600.5,-140 600.5,-110 728.5,-110 728.5,-140"/>
<text text-anchor="start" x="608.5" y="-128" font-family="Helvetica,sans-Serif" font-size="10.00">webcface/encoding/val</text>
<text text-anchor="middle" x="664.5" y="-117" font-family="Helvetica,sans-Serif" font-size="10.00">_adaptor.h</text>
</a>
</g>
</g>
<!-- Node2&#45;&gt;Node14 -->
<g id="edge19_Node000002_Node000014" class="edge">
<title>Node2&#45;&gt;Node14</title>
<g id="a_edge19_Node000002_Node000014"><a xlink:title=" ">
<path fill="none" stroke="#63b8ff" d="M740.59,-285.94C722.48,-278.11 702.96,-266.51 690.5,-250 668.49,-220.84 664.1,-177.31 663.72,-150.34"/>
<polygon fill="#63b8ff" stroke="#63b8ff" points="667.22,-150.23 663.76,-140.22 660.22,-150.2 667.22,-150.23"/>
</a>
</g>
</g>
<!-- Node19 -->
<g id="Node000019" class="node">
<title>Node19</title>
<g id="a_Node000019"><a xlink:href="func_8h.html" target="_top" xlink:title=" ">
<polygon fill="white" stroke="#666666" points="795.5,-250 699.5,-250 699.5,-231 795.5,-231 795.5,-250"/>
<text text-anchor="middle" x="747.5" y="-238" font-family="Helvetica,sans-Serif" font-size="10.00">webcface/func.h</text>
</a>
</g>
</g>
<!-- Node2&#45;&gt;Node19 -->
<g id="edge28_Node000002_Node000019" class="edge">
<title>Node2&#45;&gt;Node19</title>
<g id="a_edge28_Node000002_Node000019"><a xlink:title=" ">
<path fill="none" stroke="#63b8ff" d="M776.3,-285.84C771.01,-277.69 764.32,-267.4 758.72,-258.78"/>
<polygon fill="#63b8ff" stroke="#63b8ff" points="761.58,-256.75 753.19,-250.27 755.71,-260.56 761.58,-256.75"/>
</a>
</g>
</g>
<!-- Node27 -->
<g id="Node000027" class="node">
<title>Node27</title>
<g id="a_Node000027"><a xlink:href="text_8h.html" target="_top" xlink:title=" ">
<polygon fill="white" stroke="#666666" points="567,-195 472,-195 472,-176 567,-176 567,-195"/>
<text text-anchor="middle" x="519.5" y="-183" font-family="Helvetica,sans-Serif" font-size="10.00">webcface/text.h</text>
</a>
</g>
</g>
<!-- Node2&#45;&gt;Node27 -->
<g id="edge47_Node000002_Node000027" class="edge">
<title>Node2&#45;&gt;Node27</title>
<g id="a_edge47_Node000002_Node000027"><a xlink:title=" ">
<path fill="none" stroke="#63b8ff" d="M744.96,-285.96C718.18,-276.42 682.45,-263.19 651.5,-250 613.79,-233.93 571.23,-212.92 544.88,-199.56"/>
<polygon fill="#63b8ff" stroke="#63b8ff" points="546.45,-196.43 535.95,-195.01 543.27,-202.67 546.45,-196.43"/>
</a>
</g>
</g>
<!-- Node5&#45;&gt;Node4 -->
<g id="edge8_Node000005_Node000004" class="edge">
<title>Node5&#45;&gt;Node4</title>
<g id="a_edge8_Node000005_Node000004"><a xlink:title=" ">
<path fill="none" stroke="#63b8ff" d="M354.07,-118.79C368.08,-115.85 386.24,-112.31 402.5,-110 578.79,-84.97 624.42,-92.58 801.5,-74 813.6,-72.73 826.84,-71.19 838.58,-69.77"/>
<polygon fill="#63b8ff" stroke="#63b8ff" points="839.35,-73.2 848.85,-68.51 838.5,-66.25 839.35,-73.2"/>
</a>
</g>
</g>
<!-- Node6 -->
<g id="Node000006" class="node">
<title>Node6</title>
<g id="a_Node000006"><a xlink:title=" ">
<polygon fill="#e0e0e0" stroke="#999999" points="430.5,-19 372.5,-19 372.5,0 430.5,0 430.5,-19"/>
<text text-anchor="middle" x="401.5" y="-7" font-family="Helvetica,sans-Serif" font-size="10.00">memory</text>
</a>
</g>
</g>
<!-- Node5&#45;&gt;Node6 -->
<g id="edge5_Node000005_Node000006" class="edge">
<title>Node5&#45;&gt;Node6</title>
<g id="a_edge5_Node000005_Node000006"><a xlink:title=" ">
<path fill="none" stroke="#63b8ff" d="M335.84,-115.47C347.45,-96.9 375.22,-52.51 390.67,-27.82"/>
<polygon fill="#63b8ff" stroke="#63b8ff" points="393.77,-29.46 396.1,-19.13 387.83,-25.75 393.77,-29.46"/>
</a>
</g>
</g>
<!-- Node7 -->
<g id="Node000007" class="node">
<title>Node7</title>
<g id="a_Node000007"><a xlink:title=" ">
<polygon fill="#e0e0e0" stroke="#999999" points="549.5,-19 505.5,-19 505.5,0 549.5,0 549.5,-19"/>
<text text-anchor="middle" x="527.5" y="-7" font-family="Helvetica,sans-Serif" font-size="10.00">string</text>
</a>
</g>
</g>
<!-- Node5&#45;&gt;Node7 -->
<g id="edge6_Node000005_Node000007" class="edge">
<title>Node5&#45;&gt;Node7</title>
<g id="a_edge6_Node000005_Node000007"><a xlink:title=" ">
<path fill="none" stroke="#63b8ff" d="M339.64,-115.41C354.97,-101.34 387.28,-73.14 418.5,-55 443.18,-40.66 473.36,-28.73 495.7,-20.84"/>
<polygon fill="#63b8ff" stroke="#63b8ff" points="497.05,-24.08 505.36,-17.51 494.77,-17.46 497.05,-24.08"/>
</a>
</g>
</g>
<!-- Node8 -->
<g id="Node000008" class="node">
<title>Node8</title>
<g id="a_Node000008"><a xlink:title=" ">
<polygon fill="#e0e0e0" stroke="#999999" points="73,-19 0,-19 0,0 73,0 73,-19"/>
<text text-anchor="middle" x="36.5" y="-7" font-family="Helvetica,sans-Serif" font-size="10.00">string_view</text>
</a>
</g>
</g>
<!-- Node5&#45;&gt;Node8 -->
<g id="edge7_Node000005_Node000008" class="edge">
<title>Node5&#45;&gt;Node8</title>
<g id="a_edge7_Node000005_Node000008"><a xlink:title=" ">
<path fill="none" stroke="#63b8ff" d="M306.9,-119.17C272.26,-111.68 206,-95.82 152.5,-74 118.31,-60.05 81.29,-38.56 58.5,-24.52"/>
<polygon fill="#63b8ff" stroke="#63b8ff" points="60.27,-21.5 49.93,-19.17 56.56,-27.44 60.27,-21.5"/>
</a>
</g>
</g>
<!-- Node5&#45;&gt;Node9 -->
<g id="edge9_Node000005_Node000009" class="edge">
<title>Node5&#45;&gt;Node9</title>
<g id="a_edge9_Node000005_Node000009"><a xlink:title=" ">
<path fill="none" stroke="#63b8ff" d="M345.52,-115.39C377.49,-97.07 449.6,-55.85 452.5,-55 588.5,-15.09 1018.21,-10.6 1180.56,-10.36"/>
<polygon fill="#63b8ff" stroke="#63b8ff" points="1180.86,-13.86 1190.86,-10.35 1180.85,-6.86 1180.86,-13.86"/>
</a>
</g>
</g>
<!-- Node5&#45;&gt;Node10 -->
<g id="edge10_Node000005_Node000010" class="edge">
<title>Node5&#45;&gt;Node10</title>
<g id="a_edge10_Node000005_Node000010"><a xlink:title=" ">
<path fill="none" stroke="#63b8ff" d="M317.96,-115.37C304.4,-106.04 282.56,-91.01 266.4,-79.88"/>
<polygon fill="#63b8ff" stroke="#63b8ff" points="268.32,-76.95 258.09,-74.17 264.35,-82.72 268.32,-76.95"/>
</a>
</g>
</g>
<!-- Node10&#45;&gt;Node6 -->
<g id="edge13_Node000010_Node000006" class="edge">
<title>Node10&#45;&gt;Node6</title>
<g id="a_edge13_Node000010_Node000006"><a xlink:title=" ">
<path fill="none" stroke="#63b8ff" d="M270.56,-54.98C296.53,-46.16 337.31,-32.31 366.46,-22.41"/>
<polygon fill="#63b8ff" stroke="#63b8ff" points="367.9,-25.61 376.24,-19.08 365.65,-18.99 367.9,-25.61"/>
</a>
</g>
</g>
<!-- Node10&#45;&gt;Node7 -->
<g id="edge11_Node000010_Node000007" class="edge">
<title>Node10&#45;&gt;Node7</title>
<g id="a_edge11_Node000010_Node000007"><a xlink:title=" ">
<path fill="none" stroke="#63b8ff" d="M290.81,-54.98C348.08,-44.22 445.23,-25.96 495.39,-16.53"/>
<polygon fill="#63b8ff" stroke="#63b8ff" points="496.17,-19.95 505.35,-14.66 494.88,-13.07 496.17,-19.95"/>
</a>
</g>
</g>
<!-- Node10&#45;&gt;Node8 -->
<g id="edge12_Node000010_Node000008" class="edge">
<title>Node10&#45;&gt;Node8</title>
<g id="a_edge12_Node000010_Node000008"><a xlink:title=" ">
<path fill="none" stroke="#63b8ff" d="M211.92,-54.98C176.15,-45.91 119.38,-31.52 80.16,-21.57"/>
<polygon fill="#63b8ff" stroke="#63b8ff" points="80.9,-18.15 70.34,-19.08 79.18,-24.93 80.9,-18.15"/>
</a>
</g>
</g>
<!-- Node10&#45;&gt;Node9 -->
<g id="edge17_Node000010_Node000009" class="edge">
<title>Node10&#45;&gt;Node9</title>
<g id="a_edge17_Node000010_Node000009"><a xlink:title=" ">
<path fill="none" stroke="#63b8ff" d="M329.3,-59.05C524.83,-48.67 1007.72,-23.02 1180.64,-13.84"/>
<polygon fill="#63b8ff" stroke="#63b8ff" points="1181.04,-17.32 1190.84,-13.3 1180.67,-10.33 1181.04,-17.32"/>
</a>
</g>
</g>
<!-- Node11 -->
<g id="Node000011" class="node">
<title>Node11</title>
<g id="a_Node000011"><a xlink:title=" ">
<polygon fill="#e0e0e0" stroke="#999999" points="354.5,-19 306.5,-19 306.5,0 354.5,0 354.5,-19"/>
<text text-anchor="middle" x="330.5" y="-7" font-family="Helvetica,sans-Serif" font-size="10.00">mutex</text>
</a>
</g>
</g>
<!-- Node10&#45;&gt;Node11 -->
<g id="edge14_Node000010_Node000011" class="edge">
<title>Node10&#45;&gt;Node11</title>
<g id="a_edge14_Node000010_Node000011"><a xlink:title=" ">
<path fill="none" stroke="#63b8ff" d="M259.16,-54.98C272.34,-46.77 292.53,-34.18 308.07,-24.49"/>
<polygon fill="#63b8ff" stroke="#63b8ff" points="309.96,-27.43 316.59,-19.17 306.26,-21.49 309.96,-27.43"/>
</a>
</g>
</g>
<!-- Node12 -->
<g id="Node000012" class="node">
<title>Node12</title>
<g id="a_Node000012"><a xlink:title=" ">
<polygon fill="#e0e0e0" stroke="#999999" points="184,-19 91,-19 91,0 184,0 184,-19"/>
<text text-anchor="middle" x="137.5" y="-7" font-family="Helvetica,sans-Serif" font-size="10.00">unordered_map</text>
</a>
</g>
</g>
<!-- Node10&#45;&gt;Node12 -->
<g id="edge15_Node000010_Node000012" class="edge">
<title>Node10&#45;&gt;Node12</title>
<g id="a_edge15_Node000010_Node000012"><a xlink:title=" ">
<path fill="none" stroke="#63b8ff" d="M228.15,-54.98C210.93,-46.54 184.3,-33.47 164.35,-23.68"/>
<polygon fill="#63b8ff" stroke="#63b8ff" points="165.69,-20.43 155.17,-19.17 162.6,-26.72 165.69,-20.43"/>
</a>
</g>
</g>
<!-- Node13 -->
<g id="Node000013" class="node">
<title>Node13</title>
<g id="a_Node000013"><a xlink:title=" ">
<polygon fill="#e0e0e0" stroke="#999999" points="288.5,-19 202.5,-19 202.5,0 288.5,0 288.5,-19"/>
<text text-anchor="middle" x="245.5" y="-7" font-family="Helvetica,sans-Serif" font-size="10.00">unordered_set</text>
</a>
</g>
</g>
<!-- Node10&#45;&gt;Node13 -->
<g id="edge16_Node000010_Node000013" class="edge">
<title>Node10&#45;&gt;Node13</title>
<g id="a_edge16_Node000010_Node000013"><a xlink:title=" ">
<path fill="none" stroke="#63b8ff" d="M245.5,-54.75C245.5,-47.8 245.5,-37.85 245.5,-29.13"/>
<polygon fill="#63b8ff" stroke="#63b8ff" points="249,-29.09 245.5,-19.09 242,-29.09 249,-29.09"/>
</a>
</g>
</g>
<!-- Node14&#45;&gt;Node4 -->
<g id="edge21_Node000014_Node000004" class="edge">
<title>Node14&#45;&gt;Node4</title>
<g id="a_edge21_Node000014_Node000004"><a xlink:title=" ">
<path fill="none" stroke="#63b8ff" d="M714.32,-109.99C752.88,-99.14 805.22,-84.42 838.93,-74.94"/>
<polygon fill="#63b8ff" stroke="#63b8ff" points="840.08,-78.25 848.76,-72.18 838.19,-71.51 840.08,-78.25"/>
</a>
</g>
</g>
<!-- Node14&#45;&gt;Node7 -->
<g id="edge20_Node000014_Node000007" class="edge">
<title>Node14&#45;&gt;Node7</title>
<g id="a_edge20_Node000014_Node000007"><a xlink:title=" ">
<path fill="none" stroke="#63b8ff" d="M647.43,-109.85C621.54,-88.41 572.55,-47.82 545.9,-25.74"/>
<polygon fill="#63b8ff" stroke="#63b8ff" points="548.02,-22.96 538.09,-19.27 543.55,-28.35 548.02,-22.96"/>
</a>
</g>
</g>
<!-- Node14&#45;&gt;Node9 -->
<g id="edge27_Node000014_Node000009" class="edge">
<title>Node14&#45;&gt;Node9</title>
<g id="a_edge27_Node000014_Node000009"><a xlink:title=" ">
<path fill="none" stroke="#63b8ff" d="M706.61,-109.9C733.93,-100.44 770.16,-87.31 801.5,-74 819.25,-66.46 821.98,-60.36 840.5,-55 957.3,-21.2 1099.97,-12.75 1180.41,-10.83"/>
<polygon fill="#63b8ff" stroke="#63b8ff" points="1180.94,-14.32 1190.86,-10.61 1180.79,-7.33 1180.94,-14.32"/>
</a>
</g>
</g>
<!-- Node14&#45;&gt;Node10 -->
<g id="edge26_Node000014_Node000010" class="edge">
<title>Node14&#45;&gt;Node10</title>
<g id="a_edge26_Node000014_Node000010"><a xlink:title=" ">
<path fill="none" stroke="#63b8ff" d="M600.41,-115.05C523.79,-104.35 395.98,-86.51 316.45,-75.41"/>
<polygon fill="#63b8ff" stroke="#63b8ff" points="316.91,-71.94 306.52,-74.02 315.94,-78.87 316.91,-71.94"/>
</a>
</g>
</g>
<!-- Node15 -->
<g id="Node000015" class="node">
<title>Node15</title>
<g id="a_Node000015"><a xlink:title=" ">
<polygon fill="#e0e0e0" stroke="#999999" points="654,-74 613,-74 613,-55 654,-55 654,-74"/>
<text text-anchor="middle" x="633.5" y="-62" font-family="Helvetica,sans-Serif" font-size="10.00">tuple</text>
</a>
</g>
</g>
<!-- Node14&#45;&gt;Node15 -->
<g id="edge22_Node000014_Node000015" class="edge">
<title>Node14&#45;&gt;Node15</title>
<g id="a_edge22_Node000014_Node000015"><a xlink:title=" ">
<path fill="none" stroke="#63b8ff" d="M657,-109.84C652.77,-101.87 647.46,-91.84 642.95,-83.33"/>
<polygon fill="#63b8ff" stroke="#63b8ff" points="645.92,-81.46 638.15,-74.27 639.73,-84.74 645.92,-81.46"/>
</a>
</g>
</g>
<!-- Node16 -->
<g id="Node000016" class="node">
<title>Node16</title>
<g id="a_Node000016"><a xlink:title=" ">
<polygon fill="#e0e0e0" stroke="#999999" points="722.5,-74 672.5,-74 672.5,-55 722.5,-55 722.5,-74"/>
<text text-anchor="middle" x="697.5" y="-62" font-family="Helvetica,sans-Serif" font-size="10.00">cstdint</text>
</a>
</g>
</g>
<!-- Node14&#45;&gt;Node16 -->
<g id="edge23_Node000014_Node000016" class="edge">
<title>Node14&#45;&gt;Node16</title>
<g id="a_edge23_Node000014_Node000016"><a xlink:title=" ">
<path fill="none" stroke="#63b8ff" d="M672.49,-109.84C677.03,-101.78 682.77,-91.62 687.6,-83.06"/>
<polygon fill="#63b8ff" stroke="#63b8ff" points="690.69,-84.7 692.56,-74.27 684.59,-81.26 690.69,-84.7"/>
</a>
</g>
</g>
<!-- Node17 -->
<g id="Node000017" class="node">
<title>Node17</title>
<g id="a_Node000017"><a xlink:title=" ">
<polygon fill="#e0e0e0" stroke="#999999" points="518,-74 461,-74 461,-55 518,-55 518,-74"/>
<text text-anchor="middle" x="489.5" y="-62" font-family="Helvetica,sans-Serif" font-size="10.00">ostream</text>
</a>
</g>
</g>
<!-- Node14&#45;&gt;Node17 -->
<g id="edge24_Node000014_Node000017" class="edge">
<title>Node14&#45;&gt;Node17</title>
<g id="a_edge24_Node000014_Node000017"><a xlink:title=" ">
<path fill="none" stroke="#63b8ff" d="M622.58,-109.99C592.77,-100.02 553.17,-86.78 524.94,-77.35"/>
<polygon fill="#63b8ff" stroke="#63b8ff" points="525.68,-73.9 515.09,-74.05 523.46,-80.54 525.68,-73.9"/>
</a>
</g>
</g>
<!-- Node18 -->
<g id="Node000018" class="node">
<title>Node18</title>
<g id="a_Node000018"><a xlink:title=" ">
<polygon fill="#e0e0e0" stroke="#999999" points="792,-74 741,-74 741,-55 792,-55 792,-74"/>
<text text-anchor="middle" x="766.5" y="-62" font-family="Helvetica,sans-Serif" font-size="10.00">variant</text>
</a>
</g>
</g>
<!-- Node14&#45;&gt;Node18 -->
<g id="edge25_Node000014_Node000018" class="edge">
<title>Node14&#45;&gt;Node18</title>
<g id="a_edge25_Node000014_Node000018"><a xlink:title=" ">
<path fill="none" stroke="#63b8ff" d="M688.93,-109.99C705.19,-100.66 726.45,-88.47 742.6,-79.21"/>
<polygon fill="#63b8ff" stroke="#63b8ff" points="744.5,-82.15 751.44,-74.14 741.02,-76.08 744.5,-82.15"/>
</a>
</g>
</g>
<!-- Node19&#45;&gt;Node14 -->
<g id="edge29_Node000019_Node000014" class="edge">
<title>Node19&#45;&gt;Node14</title>
<g id="a_edge29_Node000019_Node000014"><a xlink:title=" ">
<path fill="none" stroke="#63b8ff" d="M741.26,-230.97C728.58,-213.63 699.43,-173.77 680.93,-148.47"/>
<polygon fill="#63b8ff" stroke="#63b8ff" points="683.6,-146.19 674.87,-140.18 677.95,-150.32 683.6,-146.19"/>
</a>
</g>
</g>
<!-- Node20 -->
<g id="Node000020" class="node">
<title>Node20</title>
<g id="a_Node000020"><a xlink:href="func__result_8h.html" target="_top" xlink:title=" ">
<polygon fill="white" stroke="#666666" points="934.5,-195 854.5,-195 854.5,-176 934.5,-176 934.5,-195"/>
<text text-anchor="middle" x="894.5" y="-183" font-family="Helvetica,sans-Serif" font-size="10.00">func_result.h</text>
</a>
</g>
</g>
<!-- Node19&#45;&gt;Node20 -->
<g id="edge30_Node000019_Node000020" class="edge">
<title>Node19&#45;&gt;Node20</title>
<g id="a_edge30_Node000019_Node000020"><a xlink:title=" ">
<path fill="none" stroke="#63b8ff" d="M771.12,-230.98C795.4,-222.23 833.45,-208.51 860.87,-198.62"/>
<polygon fill="#63b8ff" stroke="#63b8ff" points="862.23,-201.85 870.45,-195.17 859.86,-195.27 862.23,-201.85"/>
</a>
</g>
</g>
<!-- Node26 -->
<g id="Node000026" class="node">
<title>Node26</title>
<g id="a_Node000026"><a xlink:href="arg_8h.html" target="_top" xlink:title=" ">
<polygon fill="white" stroke="#666666" points="776,-195 735,-195 735,-176 776,-176 776,-195"/>
<text text-anchor="middle" x="755.5" y="-183" font-family="Helvetica,sans-Serif" font-size="10.00">arg.h</text>
</a>
</g>
</g>
<!-- Node19&#45;&gt;Node26 -->
<g id="edge43_Node000019_Node000026" class="edge">
<title>Node19&#45;&gt;Node26</title>
<g id="a_edge43_Node000019_Node000026"><a xlink:title=" ">
<path fill="none" stroke="#63b8ff" d="M748.82,-230.75C749.87,-223.8 751.37,-213.85 752.69,-205.13"/>
<polygon fill="#63b8ff" stroke="#63b8ff" points="756.17,-205.5 754.2,-195.09 749.25,-204.45 756.17,-205.5"/>
</a>
</g>
</g>
<!-- Node20&#45;&gt;Node3 -->
<g id="edge32_Node000020_Node000003" class="edge">
<title>Node20&#45;&gt;Node3</title>
<g id="a_edge32_Node000020_Node000003"><a xlink:title=" ">
<path fill="none" stroke="#63b8ff" d="M882.4,-175.87C869.44,-166.62 848.64,-151.78 833.1,-140.69"/>
<polygon fill="#63b8ff" stroke="#63b8ff" points="834.82,-137.63 824.65,-134.67 830.76,-143.32 834.82,-137.63"/>
</a>
</g>
</g>
<!-- Node20&#45;&gt;Node5 -->
<g id="edge37_Node000020_Node000005" class="edge">
<title>Node20&#45;&gt;Node5</title>
<g id="a_edge37_Node000020_Node000005"><a xlink:title=" ">
<path fill="none" stroke="#63b8ff" d="M854.43,-181.41C753.32,-173.51 489.64,-152.38 402.5,-140 389.92,-138.21 376.21,-135.69 364.16,-133.28"/>
<polygon fill="#63b8ff" stroke="#63b8ff" points="364.57,-129.79 354.07,-131.21 363.16,-136.65 364.57,-129.79"/>
</a>
</g>
</g>
<!-- Node20&#45;&gt;Node6 -->
<g id="edge35_Node000020_Node000006" class="edge">
<title>Node20&#45;&gt;Node6</title>
<g id="a_edge35_Node000020_Node000006"><a xlink:title=" ">
<path fill="none" stroke="#63b8ff" d="M895.95,-175.91C900.49,-148.41 913.65,-63.9 905.5,-55 874.69,-21.36 541.94,-23.03 496.5,-19 478.2,-17.38 457.91,-15.56 440.8,-14.03"/>
<polygon fill="#63b8ff" stroke="#63b8ff" points="440.88,-10.52 430.6,-13.11 440.25,-17.49 440.88,-10.52"/>
</a>
</g>
</g>
<!-- Node20&#45;&gt;Node7 -->
<g id="edge33_Node000020_Node000007" class="edge">
<title>Node20&#45;&gt;Node7</title>
<g id="a_edge33_Node000020_Node000007"><a xlink:title=" ">
<path fill="none" stroke="#63b8ff" d="M898.2,-175.77C908.43,-151.54 936.47,-84.6 938.5,-74 940.09,-65.71 944.14,-61.28 938.5,-55 913.31,-26.94 652.45,-14.96 559.87,-11.57"/>
<polygon fill="#63b8ff" stroke="#63b8ff" points="559.81,-8.06 549.69,-11.21 559.56,-15.06 559.81,-8.06"/>
</a>
</g>
</g>
<!-- Node20&#45;&gt;Node9 -->
<g id="edge31_Node000020_Node000009" class="edge">
<title>Node20&#45;&gt;Node9</title>
<g id="a_edge31_Node000020_Node000009"><a xlink:title=" ">
<path fill="none" stroke="#63b8ff" d="M934.72,-182.31C1022.16,-177.15 1223.34,-162.89 1243.5,-140 1270.65,-109.17 1259.04,-56.36 1250.17,-28.67"/>
<polygon fill="#63b8ff" stroke="#63b8ff" points="1253.44,-27.4 1246.88,-19.08 1246.81,-29.67 1253.44,-27.4"/>
</a>
</g>
</g>
<!-- Node20&#45;&gt;Node14 -->
<g id="edge38_Node000020_Node000014" class="edge">
<title>Node20&#45;&gt;Node14</title>
<g id="a_edge38_Node000020_Node000014"><a xlink:title=" ">
<path fill="none" stroke="#63b8ff" d="M861.06,-175.99C826.73,-167.26 772.42,-153.45 729.58,-142.55"/>
<polygon fill="#63b8ff" stroke="#63b8ff" points="730.35,-139.14 719.8,-140.06 728.62,-145.92 730.35,-139.14"/>
</a>
</g>
</g>
<!-- Node21 -->
<g id="Node000021" class="node">
<title>Node21</title>
<g id="a_Node000021"><a xlink:title=" ">
<polygon fill="#e0e0e0" stroke="#999999" points="980.5,-134.5 934.5,-134.5 934.5,-115.5 980.5,-115.5 980.5,-134.5"/>
<text text-anchor="middle" x="957.5" y="-122.5" font-family="Helvetica,sans-Serif" font-size="10.00">future</text>
</a>
</g>
</g>
<!-- Node20&#45;&gt;Node21 -->
<g id="edge34_Node000020_Node000021" class="edge">
<title>Node20&#45;&gt;Node21</title>
<g id="a_edge34_Node000020_Node000021"><a xlink:title=" ">
<path fill="none" stroke="#63b8ff" d="M903.8,-175.87C913.47,-166.88 928.84,-152.61 940.66,-141.64"/>
<polygon fill="#63b8ff" stroke="#63b8ff" points="943.22,-144.04 948.17,-134.67 938.46,-138.91 943.22,-144.04"/>
</a>
</g>
</g>
<!-- Node22 -->
<g id="Node000022" class="node">
<title>Node22</title>
<g id="a_Node000022"><a xlink:title=" ">
<polygon fill="#e0e0e0" stroke="#999999" points="1064,-134.5 999,-134.5 999,-115.5 1064,-115.5 1064,-134.5"/>
<text text-anchor="middle" x="1031.5" y="-122.5" font-family="Helvetica,sans-Serif" font-size="10.00">stdexcept</text>
</a>
</g>
</g>
<!-- Node20&#45;&gt;Node22 -->
<g id="edge36_Node000020_Node000022" class="edge">
<title>Node20&#45;&gt;Node22</title>
<g id="a_edge36_Node000020_Node000022"><a xlink:title=" ">
<path fill="none" stroke="#63b8ff" d="M914.42,-175.99C937.45,-166.16 975.58,-149.88 1002.04,-138.58"/>
<polygon fill="#63b8ff" stroke="#63b8ff" points="1003.73,-141.66 1011.55,-134.52 1000.98,-135.22 1003.73,-141.66"/>
</a>
</g>
</g>
<!-- Node23 -->
<g id="Node000023" class="node">
<title>Node23</title>
<g id="a_Node000023"><a xlink:href="def__types_8h.html" target="_top" xlink:title=" ">
<polygon fill="white" stroke="#666666" points="1234,-140 1121,-140 1121,-110 1234,-110 1234,-140"/>
<text text-anchor="start" x="1129" y="-128" font-family="Helvetica,sans-Serif" font-size="10.00">webcface/c_wcf/def</text>
<text text-anchor="middle" x="1177.5" y="-117" font-family="Helvetica,sans-Serif" font-size="10.00">_types.h</text>
</a>
</g>
</g>
<!-- Node20&#45;&gt;Node23 -->
<g id="edge39_Node000020_Node000023" class="edge">
<title>Node20&#45;&gt;Node23</title>
<g id="a_edge39_Node000020_Node000023"><a xlink:title=" ">
<path fill="none" stroke="#63b8ff" d="M934.75,-176.18C980.57,-166.71 1056.16,-151.08 1110.82,-139.78"/>
<polygon fill="#63b8ff" stroke="#63b8ff" points="1111.69,-143.18 1120.77,-137.73 1110.27,-136.32 1111.69,-143.18"/>
</a>
</g>
</g>
<!-- Node23&#45;&gt;Node9 -->
<g id="edge40_Node000023_Node000009" class="edge">
<title>Node23&#45;&gt;Node9</title>
<g id="a_edge40_Node000023_Node000009"><a xlink:title=" ">
<path fill="none" stroke="#63b8ff" d="M1185.86,-109.63C1197.95,-88.84 1220.28,-50.44 1233.31,-28.02"/>
<polygon fill="#63b8ff" stroke="#63b8ff" points="1236.42,-29.63 1238.42,-19.23 1230.37,-26.11 1236.42,-29.63"/>
</a>
</g>
</g>
<!-- Node24 -->
<g id="Node000024" class="node">
<title>Node24</title>
<g id="a_Node000024"><a xlink:title=" ">
<polygon fill="#e0e0e0" stroke="#999999" points="1196.5,-74 1142.5,-74 1142.5,-55 1196.5,-55 1196.5,-74"/>
<text text-anchor="middle" x="1169.5" y="-62" font-family="Helvetica,sans-Serif" font-size="10.00">wchar.h</text>
</a>
</g>
</g>
<!-- Node23&#45;&gt;Node24 -->
<g id="edge41_Node000023_Node000024" class="edge">
<title>Node23&#45;&gt;Node24</title>
<g id="a_edge41_Node000023_Node000024"><a xlink:title=" ">
<path fill="none" stroke="#63b8ff" d="M1175.56,-109.84C1174.52,-102.21 1173.22,-92.7 1172.09,-84.45"/>
<polygon fill="#63b8ff" stroke="#63b8ff" points="1175.52,-83.7 1170.7,-74.27 1168.59,-84.65 1175.52,-83.7"/>
</a>
</g>
</g>
<!-- Node25 -->
<g id="Node000025" class="node">
<title>Node25</title>
<g id="a_Node000025"><a xlink:title=" ">
<polygon fill="#e0e0e0" stroke="#999999" points="1124,-74 1077,-74 1077,-55 1124,-55 1124,-74"/>
<text text-anchor="middle" x="1100.5" y="-62" font-family="Helvetica,sans-Serif" font-size="10.00">float.h</text>
</a>
</g>
</g>
<!-- Node23&#45;&gt;Node25 -->
<g id="edge42_Node000023_Node000025" class="edge">
<title>Node23&#45;&gt;Node25</title>
<g id="a_edge42_Node000023_Node000025"><a xlink:title=" ">
<path fill="none" stroke="#63b8ff" d="M1158.86,-109.84C1147.11,-100.91 1131.97,-89.41 1120.05,-80.35"/>
<polygon fill="#63b8ff" stroke="#63b8ff" points="1122.12,-77.53 1112.04,-74.27 1117.88,-83.1 1122.12,-77.53"/>
</a>
</g>
</g>
<!-- Node26&#45;&gt;Node3 -->
<g id="edge45_Node000026_Node000003" class="edge">
<title>Node26&#45;&gt;Node3</title>
<g id="a_edge45_Node000026_Node000003"><a xlink:title=" ">
<path fill="none" stroke="#63b8ff" d="M763.91,-175.87C772.58,-166.97 786.3,-152.89 796.96,-141.95"/>
<polygon fill="#63b8ff" stroke="#63b8ff" points="799.58,-144.27 804.05,-134.67 794.57,-139.39 799.58,-144.27"/>
</a>
</g>
</g>
<!-- Node26&#45;&gt;Node4 -->
<g id="edge44_Node000026_Node000004" class="edge">
<title>Node26&#45;&gt;Node4</title>
<g id="a_edge44_Node000026_Node000004"><a xlink:title=" ">
<path fill="none" stroke="#63b8ff" d="M755.54,-175.59C756.08,-160.4 759.25,-129.23 775.5,-110 791.63,-90.9 817.7,-79.58 838.76,-73.13"/>
<polygon fill="#63b8ff" stroke="#63b8ff" points="839.95,-76.43 848.62,-70.35 838.05,-69.7 839.95,-76.43"/>
</a>
</g>
</g>
<!-- Node26&#45;&gt;Node14 -->
<g id="edge46_Node000026_Node000014" class="edge">
<title>Node26&#45;&gt;Node14</title>
<g id="a_edge46_Node000026_Node000014"><a xlink:title=" ">
<path fill="none" stroke="#63b8ff" d="M742.07,-175.87C729.73,-167.93 710.97,-155.87 694.99,-145.6"/>
<polygon fill="#63b8ff" stroke="#63b8ff" points="696.76,-142.58 686.46,-140.11 692.98,-148.47 696.76,-142.58"/>
</a>
</g>
</g>
<!-- Node27&#45;&gt;Node3 -->
<g id="edge50_Node000027_Node000003" class="edge">
<title>Node27&#45;&gt;Node3</title>
<g id="a_edge50_Node000027_Node000003"><a xlink:title=" ">
<path fill="none" stroke="#63b8ff" d="M562.1,-175.99C619.21,-164.59 719.72,-144.53 774.42,-133.6"/>
<polygon fill="#63b8ff" stroke="#63b8ff" points="775.28,-137 784.4,-131.61 773.91,-130.14 775.28,-137"/>
</a>
</g>
</g>
<!-- Node27&#45;&gt;Node5 -->
<g id="edge53_Node000027_Node000005" class="edge">
<title>Node27&#45;&gt;Node5</title>
<g id="a_edge53_Node000027_Node000005"><a xlink:title=" ">
<path fill="none" stroke="#63b8ff" d="M488.37,-175.98C457.71,-167.43 409.62,-153.62 368.5,-140 366.6,-139.37 364.65,-138.71 362.69,-138.03"/>
<polygon fill="#63b8ff" stroke="#63b8ff" points="363.51,-134.6 352.92,-134.54 361.16,-141.2 363.51,-134.6"/>
</a>
</g>
</g>
<!-- Node27&#45;&gt;Node6 -->
<g id="edge52_Node000027_Node000006" class="edge">
<title>Node27&#45;&gt;Node6</title>
<g id="a_edge52_Node000027_Node000006"><a xlink:title=" ">
<path fill="none" stroke="#63b8ff" d="M471.85,-177.8C380.68,-163.84 187.47,-128.35 152.5,-74 83.78,32.78 -123.46,-113.48 362.36,-19.13"/>
<polygon fill="#63b8ff" stroke="#63b8ff" points="363.34,-22.51 372.49,-17.15 362,-15.64 363.34,-22.51"/>
</a>
</g>
</g>
<!-- Node27&#45;&gt;Node9 -->
<g id="edge54_Node000027_Node000009" class="edge">
<title>Node27&#45;&gt;Node9</title>
<g id="a_edge54_Node000027_Node000009"><a xlink:title=" ">
<path fill="none" stroke="#63b8ff" d="M526.57,-175.85C533.67,-167.04 544.76,-152.87 553.5,-140 578.25,-103.55 566.94,-78.03 604.5,-55 652.81,-25.38 1029.24,-14.72 1180.69,-11.6"/>
<polygon fill="#63b8ff" stroke="#63b8ff" points="1180.84,-15.1 1190.77,-11.4 1180.7,-8.1 1180.84,-15.1"/>
</a>
</g>
</g>
<!-- Node27&#45;&gt;Node14 -->
<g id="edge55_Node000027_Node000014" class="edge">
<title>Node27&#45;&gt;Node14</title>
<g id="a_edge55_Node000027_Node000014"><a xlink:title=" ">
<path fill="none" stroke="#63b8ff" d="M540.58,-175.99C561.36,-167.61 593.74,-154.55 620.2,-143.87"/>
<polygon fill="#63b8ff" stroke="#63b8ff" points="621.68,-147.05 629.64,-140.06 619.06,-140.56 621.68,-147.05"/>
</a>
</g>
</g>
<!-- Node27&#45;&gt;Node17 -->
<g id="edge49_Node000027_Node000017" class="edge">
<title>Node27&#45;&gt;Node17</title>
<g id="a_edge49_Node000027_Node000017"><a xlink:title=" ">
<path fill="none" stroke="#63b8ff" d="M471.95,-179.23C446.86,-173.76 418.11,-162.63 402.5,-140 394.93,-129.02 395.54,-121.37 402.5,-110 413.11,-92.66 432.84,-81.8 450.84,-75.16"/>
<polygon fill="#63b8ff" stroke="#63b8ff" points="452.22,-78.39 460.59,-71.89 449.99,-71.75 452.22,-78.39"/>
</a>
</g>
</g>
<!-- Node28 -->
<g id="Node000028" class="node">
<title>Node28</title>
<g id="a_Node000028"><a xlink:title=" ">
<polygon fill="#e0e0e0" stroke="#999999" points="476,-134.5 411,-134.5 411,-115.5 476,-115.5 476,-134.5"/>
<text text-anchor="middle" x="443.5" y="-122.5" font-family="Helvetica,sans-Serif" font-size="10.00">functional</text>
</a>
</g>
</g>
<!-- Node27&#45;&gt;Node28 -->
<g id="edge48_Node000027_Node000028" class="edge">
<title>Node27&#45;&gt;Node28</title>
<g id="a_edge48_Node000027_Node000028"><a xlink:title=" ">
<path fill="none" stroke="#63b8ff" d="M508.29,-175.87C496.39,-166.71 477.36,-152.06 462.99,-141.01"/>
<polygon fill="#63b8ff" stroke="#63b8ff" points="464.82,-137.99 454.76,-134.67 460.55,-143.54 464.82,-137.99"/>
</a>
</g>
</g>
<!-- Node29 -->
<g id="Node000029" class="node">
<title>Node29</title>
<g id="a_Node000029"><a xlink:title=" ">
<polygon fill="#e0e0e0" stroke="#999999" points="544.5,-134.5 494.5,-134.5 494.5,-115.5 544.5,-115.5 544.5,-134.5"/>
<text text-anchor="middle" x="519.5" y="-122.5" font-family="Helvetica,sans-Serif" font-size="10.00">chrono</text>
</a>
</g>
</g>
<!-- Node27&#45;&gt;Node29 -->
<g id="edge51_Node000027_Node000029" class="edge">
<title>Node27&#45;&gt;Node29</title>
<g id="a_edge51_Node000027_Node000029"><a xlink:title=" ">
<path fill="none" stroke="#63b8ff" d="M519.5,-175.87C519.5,-167.75 519.5,-155.31 519.5,-144.89"/>
<polygon fill="#63b8ff" stroke="#63b8ff" points="523,-144.67 519.5,-134.67 516,-144.67 523,-144.67"/>
</a>
</g>
</g>
<!-- Node30&#45;&gt;Node4 -->
<g id="edge59_Node000030_Node000004" class="edge">
<title>Node30&#45;&gt;Node4</title>
<g id="a_edge59_Node000030_Node000004"><a xlink:title=" ">
<path fill="none" stroke="#63b8ff" d="M1366.78,-117.6C1249.9,-105.28 997.15,-78.64 906.07,-69.04"/>
<polygon fill="#63b8ff" stroke="#63b8ff" points="906.34,-65.55 896.03,-67.98 905.61,-72.51 906.34,-65.55"/>
</a>
</g>
</g>
<!-- Node30&#45;&gt;Node9 -->
<g id="edge58_Node000030_Node000009" class="edge">
<title>Node30&#45;&gt;Node9</title>
<g id="a_edge58_Node000030_Node000009"><a xlink:title=" ">
<path fill="none" stroke="#63b8ff" d="M1419.98,-115.3C1407.29,-101.07 1380.28,-72.64 1352.5,-55 1330.5,-41.03 1303.39,-29.94 1281.7,-22.33"/>
<polygon fill="#63b8ff" stroke="#63b8ff" points="1282.75,-18.99 1272.16,-19.07 1280.49,-25.61 1282.75,-18.99"/>
</a>
</g>
</g>
<!-- Node31 -->
<g id="Node000031" class="node">
<title>Node31</title>
<g id="a_Node000031"><a xlink:title=" ">
<polygon fill="#e0e0e0" stroke="#999999" points="1474,-74 1405,-74 1405,-55 1474,-55 1474,-74"/>
<text text-anchor="middle" x="1439.5" y="-62" font-family="Helvetica,sans-Serif" font-size="10.00">type_traits</text>
</a>
</g>
</g>
<!-- Node30&#45;&gt;Node31 -->
<g id="edge60_Node000030_Node000031" class="edge">
<title>Node30&#45;&gt;Node31</title>
<g id="a_edge60_Node000030_Node000031"><a xlink:title=" ">
<path fill="none" stroke="#63b8ff" d="M1429.27,-115.37C1430.95,-107.16 1433.54,-94.54 1435.69,-84.05"/>
<polygon fill="#63b8ff" stroke="#63b8ff" points="1439.14,-84.67 1437.72,-74.17 1432.28,-83.26 1439.14,-84.67"/>
</a>
</g>
</g>
<!-- Node32&#45;&gt;Node9 -->
<g id="edge62_Node000032_Node000009" class="edge">
<title>Node32&#45;&gt;Node9</title>
<g id="a_edge62_Node000032_Node000009"><a xlink:title=" ">
<path fill="none" stroke="#63b8ff" d="M1341.99,-291.46C1340.92,-272.56 1338.5,-225.74 1338.5,-186.5 1338.5,-186.5 1338.5,-186.5 1338.5,-124 1338.5,-91.53 1334.73,-80.39 1314.5,-55 1303.82,-41.6 1287.93,-31.11 1273.89,-23.68"/>
<polygon fill="#63b8ff" stroke="#63b8ff" points="1275.07,-20.36 1264.56,-19.04 1271.95,-26.63 1275.07,-20.36"/>
</a>
</g>
</g>
<!-- Node33 -->
<g id="Node000033" class="node">
<title>Node33</title>
<g id="a_Node000033"><a xlink:title=" ">
<polygon fill="#e0e0e0" stroke="#999999" points="1408.5,-250 1366.5,-250 1366.5,-231 1408.5,-231 1408.5,-250"/>
<text text-anchor="middle" x="1387.5" y="-238" font-family="Helvetica,sans-Serif" font-size="10.00">array</text>
</a>
</g>
</g>
<!-- Node32&#45;&gt;Node33 -->
<g id="edge63_Node000032_Node000033" class="edge">
<title>Node32&#45;&gt;Node33</title>
<g id="a_edge63_Node000032_Node000033"><a xlink:title=" ">
<path fill="none" stroke="#63b8ff" d="M1349.14,-291.37C1355.79,-282.73 1366.19,-269.2 1374.49,-258.42"/>
<polygon fill="#63b8ff" stroke="#63b8ff" points="1377.51,-260.23 1380.83,-250.17 1371.96,-255.96 1377.51,-260.23"/>
</a>
</g>
</g>
</g>
</svg>
