<?xml version="1.0" encoding="UTF-8" standalone="no"?>
<!DOCTYPE svg PUBLIC "-//W3C//DTD SVG 1.1//EN"
 "http://www.w3.org/Graphics/SVG/1.1/DTD/svg11.dtd">
<!-- Generated by graphviz version 2.43.0 (0)
 -->
<!-- Title: client/include/webcface/robot_link.h Pages: 1 -->
<svg width="1384pt" height="335pt"
 viewBox="0.00 0.00 1384.00 335.00" xmlns="http://www.w3.org/2000/svg" xmlns:xlink="http://www.w3.org/1999/xlink">
<g id="graph0" class="graph" transform="scale(1 1) rotate(0) translate(4 331)">
<title>client/include/webcface/robot_link.h</title>
<!-- Node1 -->
<g id="Node000001" class="node">
<title>Node1</title>
<g id="a_Node000001"><a xlink:title=" ">
<polygon fill="#999999" stroke="#666666" points="980.5,-327 849.5,-327 849.5,-297 980.5,-297 980.5,-327"/>
<text text-anchor="start" x="857.5" y="-315" font-family="Helvetica,sans-Serif" font-size="10.00">client/include/webcface</text>
<text text-anchor="middle" x="915" y="-304" font-family="Helvetica,sans-Serif" font-size="10.00">/robot_link.h</text>
</a>
</g>
</g>
<!-- Node2 -->
<g id="Node000002" class="node">
<title>Node2</title>
<g id="a_Node000002"><a xlink:href="component__view_8h.html" target="_top" xlink:title=" ">
<polygon fill="white" stroke="#666666" points="776.5,-261 655.5,-261 655.5,-231 776.5,-231 776.5,-261"/>
<text text-anchor="start" x="663.5" y="-249" font-family="Helvetica,sans-Serif" font-size="10.00">webcface/component</text>
<text text-anchor="middle" x="716" y="-238" font-family="Helvetica,sans-Serif" font-size="10.00">_view.h</text>
</a>
</g>
</g>
<!-- Node1&#45;&gt;Node2 -->
<g id="edge1_Node000001_Node000002" class="edge">
<title>Node1&#45;&gt;Node2</title>
<g id="a_edge1_Node000001_Node000002"><a xlink:title=" ">
<path fill="none" stroke="#63b8ff" d="M871.33,-296.95C841.26,-287.28 801.13,-274.38 769.2,-264.11"/>
<polygon fill="#63b8ff" stroke="#63b8ff" points="770.16,-260.74 759.57,-261.01 768.02,-267.41 770.16,-260.74"/>
</a>
</g>
</g>
<!-- Node7 -->
<g id="Node000007" class="node">
<title>Node7</title>
<g id="a_Node000007"><a xlink:href="webcface-config_8h.html" target="_top" xlink:title=" ">
<polygon fill="white" stroke="#666666" points="932.5,-19 827.5,-19 827.5,0 932.5,0 932.5,-19"/>
<text text-anchor="middle" x="880" y="-7" font-family="Helvetica,sans-Serif" font-size="10.00">webcface&#45;config.h</text>
</a>
</g>
</g>
<!-- Node1&#45;&gt;Node7 -->
<g id="edge60_Node000001_Node000007" class="edge">
<title>Node1&#45;&gt;Node7</title>
<g id="a_edge60_Node000001_Node000007"><a xlink:title=" ">
<path fill="none" stroke="#63b8ff" d="M914.41,-296.75C912.63,-257.79 906.48,-146.32 891,-55 889.54,-46.37 887.3,-36.94 885.23,-28.99"/>
<polygon fill="#63b8ff" stroke="#63b8ff" points="888.59,-28.01 882.58,-19.28 881.83,-29.85 888.59,-28.01"/>
</a>
</g>
</g>
<!-- Node14 -->
<g id="Node000014" class="node">
<title>Node14</title>
<g id="a_Node000014"><a xlink:href="common_2encoding_8h.html" target="_top" xlink:title=" ">
<polygon fill="white" stroke="#666666" points="267,-74 197,-74 197,-55 267,-55 267,-74"/>
<text text-anchor="middle" x="232" y="-62" font-family="Helvetica,sans-Serif" font-size="10.00">encoding.h</text>
</a>
</g>
</g>
<!-- Node1&#45;&gt;Node14 -->
<g id="edge40_Node000001_Node000014" class="edge">
<title>Node1&#45;&gt;Node14</title>
<g id="a_edge40_Node000001_Node000014"><a xlink:title=" ">
<path fill="none" stroke="#63b8ff" d="M849.25,-300.02C794.64,-290.61 715.01,-276.19 646,-261 444.99,-216.76 322.42,-304.7 199,-140 185.56,-122.07 201.39,-97.81 215.41,-81.91"/>
<polygon fill="#63b8ff" stroke="#63b8ff" points="218.12,-84.13 222.41,-74.44 213.02,-79.34 218.12,-84.13"/>
</a>
</g>
</g>
<!-- Node24 -->
<g id="Node000024" class="node">
<title>Node24</title>
<g id="a_Node000024"><a xlink:href="geometry_8h.html" target="_top" xlink:title=" ">
<polygon fill="white" stroke="#666666" points="1064.5,-134.5 943.5,-134.5 943.5,-115.5 1064.5,-115.5 1064.5,-134.5"/>
<text text-anchor="middle" x="1004" y="-122.5" font-family="Helvetica,sans-Serif" font-size="10.00">webcface/geometry.h</text>
</a>
</g>
</g>
<!-- Node1&#45;&gt;Node24 -->
<g id="edge41_Node000001_Node000024" class="edge">
<title>Node1&#45;&gt;Node24</title>
<g id="a_edge41_Node000001_Node000024"><a xlink:title=" ">
<path fill="none" stroke="#63b8ff" d="M921.84,-296.79C937.84,-263.52 977.72,-180.63 995.37,-143.95"/>
<polygon fill="#63b8ff" stroke="#63b8ff" points="998.72,-145.06 999.9,-134.53 992.41,-142.02 998.72,-145.06"/>
</a>
</g>
</g>
<!-- Node26 -->
<g id="Node000026" class="node">
<title>Node26</title>
<g id="a_Node000026"><a xlink:href="transform_8h.html" target="_top" xlink:title=" ">
<polygon fill="white" stroke="#666666" points="1186.5,-195 1063.5,-195 1063.5,-176 1186.5,-176 1186.5,-195"/>
<text text-anchor="middle" x="1125" y="-183" font-family="Helvetica,sans-Serif" font-size="10.00">webcface/transform.h</text>
</a>
</g>
</g>
<!-- Node1&#45;&gt;Node26 -->
<g id="edge45_Node000001_Node000026" class="edge">
<title>Node1&#45;&gt;Node26</title>
<g id="a_edge45_Node000001_Node000026"><a xlink:title=" ">
<path fill="none" stroke="#63b8ff" d="M938.68,-296.96C979.2,-272.94 1061.34,-224.24 1101.64,-200.35"/>
<polygon fill="#63b8ff" stroke="#63b8ff" points="1103.66,-203.22 1110.48,-195.11 1100.09,-197.2 1103.66,-203.22"/>
</a>
</g>
</g>
<!-- Node3 -->
<g id="Node000003" class="node">
<title>Node3</title>
<g id="a_Node000003"><a xlink:title=" ">
<polygon fill="#e0e0e0" stroke="#999999" points="418.5,-134.5 353.5,-134.5 353.5,-115.5 418.5,-115.5 418.5,-134.5"/>
<text text-anchor="middle" x="386" y="-122.5" font-family="Helvetica,sans-Serif" font-size="10.00">functional</text>
</a>
</g>
</g>
<!-- Node2&#45;&gt;Node3 -->
<g id="edge2_Node000002_Node000003" class="edge">
<title>Node2&#45;&gt;Node3</title>
<g id="a_edge2_Node000002_Node000003"><a xlink:title=" ">
<path fill="none" stroke="#63b8ff" d="M655.14,-239.27C606.14,-233 536.38,-220.25 480,-195 450.15,-181.63 420.54,-157.66 402.75,-141.78"/>
<polygon fill="#63b8ff" stroke="#63b8ff" points="404.77,-138.88 395.02,-134.73 400.05,-144.05 404.77,-138.88"/>
</a>
</g>
</g>
<!-- Node4 -->
<g id="Node000004" class="node">
<title>Node4</title>
<g id="a_Node000004"><a xlink:title=" ">
<polygon fill="#e0e0e0" stroke="#999999" points="741,-134.5 685,-134.5 685,-115.5 741,-115.5 741,-134.5"/>
<text text-anchor="middle" x="713" y="-122.5" font-family="Helvetica,sans-Serif" font-size="10.00">optional</text>
</a>
</g>
</g>
<!-- Node2&#45;&gt;Node4 -->
<g id="edge3_Node000002_Node000004" class="edge">
<title>Node2&#45;&gt;Node4</title>
<g id="a_edge3_Node000002_Node000004"><a xlink:title=" ">
<path fill="none" stroke="#63b8ff" d="M709.09,-230.96C704.65,-221.15 699.31,-207.6 697,-195 693.81,-177.65 699.22,-158.08 704.59,-144.23"/>
<polygon fill="#63b8ff" stroke="#63b8ff" points="707.88,-145.45 708.55,-134.88 701.43,-142.72 707.88,-145.45"/>
</a>
</g>
</g>
<!-- Node5 -->
<g id="Node000005" class="node">
<title>Node5</title>
<g id="a_Node000005"><a xlink:title=" ">
<polygon fill="#e0e0e0" stroke="#999999" points="799.5,-195 706.5,-195 706.5,-176 799.5,-176 799.5,-195"/>
<text text-anchor="middle" x="753" y="-183" font-family="Helvetica,sans-Serif" font-size="10.00">unordered_map</text>
</a>
</g>
</g>
<!-- Node2&#45;&gt;Node5 -->
<g id="edge4_Node000002_Node000005" class="edge">
<title>Node2&#45;&gt;Node5</title>
<g id="a_edge4_Node000002_Node000005"><a xlink:title=" ">
<path fill="none" stroke="#63b8ff" d="M724.96,-230.84C730.11,-222.69 736.62,-212.4 742.07,-203.78"/>
<polygon fill="#63b8ff" stroke="#63b8ff" points="745.07,-205.59 747.46,-195.27 739.15,-201.85 745.07,-205.59"/>
</a>
</g>
</g>
<!-- Node6 -->
<g id="Node000006" class="node">
<title>Node6</title>
<g id="a_Node000006"><a xlink:title=" ">
<polygon fill="#e0e0e0" stroke="#999999" points="851.5,-74 804.5,-74 804.5,-55 851.5,-55 851.5,-74"/>
<text text-anchor="middle" x="828" y="-62" font-family="Helvetica,sans-Serif" font-size="10.00">vector</text>
</a>
</g>
</g>
<!-- Node2&#45;&gt;Node6 -->
<g id="edge5_Node000002_Node000006" class="edge">
<title>Node2&#45;&gt;Node6</title>
<g id="a_edge5_Node000002_Node000006"><a xlink:title=" ">
<path fill="none" stroke="#63b8ff" d="M759.94,-230.93C777.55,-223.1 796.39,-211.5 808,-195 831.59,-161.46 831.88,-110.95 829.98,-84"/>
<polygon fill="#63b8ff" stroke="#63b8ff" points="833.46,-83.66 829.1,-74 826.49,-84.27 833.46,-83.66"/>
</a>
</g>
</g>
<!-- Node2&#45;&gt;Node7 -->
<g id="edge6_Node000002_Node000007" class="edge">
<title>Node2&#45;&gt;Node7</title>
<g id="a_edge6_Node000002_Node000007"><a xlink:title=" ">
<path fill="none" stroke="#63b8ff" d="M770.39,-230.91C790.59,-223.25 812.17,-211.79 827,-195 869.81,-146.55 878.17,-65.57 879.71,-29.2"/>
<polygon fill="#63b8ff" stroke="#63b8ff" points="883.22,-29.15 880.01,-19.05 876.22,-28.94 883.22,-29.15"/>
</a>
</g>
</g>
<!-- Node8 -->
<g id="Node000008" class="node">
<title>Node8</title>
<g id="a_Node000008"><a xlink:href="common_2val__adaptor_8h.html" target="_top" xlink:title=" ">
<polygon fill="white" stroke="#666666" points="335.5,-140 208.5,-140 208.5,-110 335.5,-110 335.5,-140"/>
<text text-anchor="start" x="216.5" y="-128" font-family="Helvetica,sans-Serif" font-size="10.00">webcface/common/val</text>
<text text-anchor="middle" x="272" y="-117" font-family="Helvetica,sans-Serif" font-size="10.00">_adaptor.h</text>
</a>
</g>
</g>
<!-- Node2&#45;&gt;Node8 -->
<g id="edge7_Node000002_Node000008" class="edge">
<title>Node2&#45;&gt;Node8</title>
<g id="a_edge7_Node000002_Node000008"><a xlink:title=" ">
<path fill="none" stroke="#63b8ff" d="M655.27,-237.47C599.4,-229.7 514.61,-215.77 443,-195 396.35,-181.47 344.92,-159.74 310.78,-144.28"/>
<polygon fill="#63b8ff" stroke="#63b8ff" points="312.17,-141.07 301.62,-140.1 309.26,-147.44 312.17,-141.07"/>
</a>
</g>
</g>
<!-- Node19 -->
<g id="Node000019" class="node">
<title>Node19</title>
<g id="a_Node000019"><a xlink:href="client_2include_2webcface_2text_8h.html" target="_top" xlink:title=" ">
<polygon fill="white" stroke="#666666" points="584.5,-195 489.5,-195 489.5,-176 584.5,-176 584.5,-195"/>
<text text-anchor="middle" x="537" y="-183" font-family="Helvetica,sans-Serif" font-size="10.00">webcface/text.h</text>
</a>
</g>
</g>
<!-- Node2&#45;&gt;Node19 -->
<g id="edge22_Node000002_Node000019" class="edge">
<title>Node2&#45;&gt;Node19</title>
<g id="a_edge22_Node000002_Node000019"><a xlink:title=" ">
<path fill="none" stroke="#63b8ff" d="M673.13,-230.99C642.5,-220.98 601.77,-207.67 572.87,-198.22"/>
<polygon fill="#63b8ff" stroke="#63b8ff" points="573.77,-194.83 563.17,-195.05 571.59,-201.49 573.77,-194.83"/>
</a>
</g>
</g>
<!-- Node8&#45;&gt;Node6 -->
<g id="edge9_Node000008_Node000006" class="edge">
<title>Node8&#45;&gt;Node6</title>
<g id="a_edge9_Node000008_Node000006"><a xlink:title=" ">
<path fill="none" stroke="#63b8ff" d="M335.54,-111.24C338.39,-110.8 341.22,-110.38 344,-110 540.02,-83.21 594.92,-106.43 794.39,-73.77"/>
<polygon fill="#63b8ff" stroke="#63b8ff" points="795.02,-77.22 804.31,-72.12 793.87,-70.31 795.02,-77.22"/>
</a>
</g>
</g>
<!-- Node8&#45;&gt;Node7 -->
<g id="edge21_Node000008_Node000007" class="edge">
<title>Node8&#45;&gt;Node7</title>
<g id="a_edge21_Node000008_Node000007"><a xlink:title=" ">
<path fill="none" stroke="#63b8ff" d="M283.29,-109.96C297.41,-93.54 323.26,-67.08 352,-55 434.4,-20.36 695.97,-12.67 817.2,-10.97"/>
<polygon fill="#63b8ff" stroke="#63b8ff" points="817.48,-14.47 827.43,-10.84 817.39,-7.47 817.48,-14.47"/>
</a>
</g>
</g>
<!-- Node9 -->
<g id="Node000009" class="node">
<title>Node9</title>
<g id="a_Node000009"><a xlink:title=" ">
<polygon fill="#e0e0e0" stroke="#999999" points="580,-19 536,-19 536,0 580,0 580,-19"/>
<text text-anchor="middle" x="558" y="-7" font-family="Helvetica,sans-Serif" font-size="10.00">string</text>
</a>
</g>
</g>
<!-- Node8&#45;&gt;Node9 -->
<g id="edge8_Node000008_Node000009" class="edge">
<title>Node8&#45;&gt;Node9</title>
<g id="a_edge8_Node000008_Node000009"><a xlink:title=" ">
<path fill="none" stroke="#63b8ff" d="M277.59,-109.83C284.7,-93.8 298.55,-68.22 319,-55 396.32,-5.03 432.89,-37.87 523,-19 523.91,-18.81 524.83,-18.61 525.76,-18.41"/>
<polygon fill="#63b8ff" stroke="#63b8ff" points="526.86,-21.75 535.83,-16.11 525.3,-14.93 526.86,-21.75"/>
</a>
</g>
</g>
<!-- Node10 -->
<g id="Node000010" class="node">
<title>Node10</title>
<g id="a_Node000010"><a xlink:title=" ">
<polygon fill="#e0e0e0" stroke="#999999" points="178.5,-74 137.5,-74 137.5,-55 178.5,-55 178.5,-74"/>
<text text-anchor="middle" x="158" y="-62" font-family="Helvetica,sans-Serif" font-size="10.00">tuple</text>
</a>
</g>
</g>
<!-- Node8&#45;&gt;Node10 -->
<g id="edge10_Node000008_Node000010" class="edge">
<title>Node8&#45;&gt;Node10</title>
<g id="a_edge10_Node000008_Node000010"><a xlink:title=" ">
<path fill="none" stroke="#63b8ff" d="M244.69,-109.99C226.35,-100.58 202.32,-88.24 184.21,-78.95"/>
<polygon fill="#63b8ff" stroke="#63b8ff" points="185.33,-75.59 174.84,-74.14 182.13,-81.82 185.33,-75.59"/>
</a>
</g>
</g>
<!-- Node11 -->
<g id="Node000011" class="node">
<title>Node11</title>
<g id="a_Node000011"><a xlink:title=" ">
<polygon fill="#e0e0e0" stroke="#999999" points="50,-74 0,-74 0,-55 50,-55 50,-74"/>
<text text-anchor="middle" x="25" y="-62" font-family="Helvetica,sans-Serif" font-size="10.00">cstdint</text>
</a>
</g>
</g>
<!-- Node8&#45;&gt;Node11 -->
<g id="edge11_Node000008_Node000011" class="edge">
<title>Node8&#45;&gt;Node11</title>
<g id="a_edge11_Node000008_Node000011"><a xlink:title=" ">
<path fill="none" stroke="#63b8ff" d="M210.89,-109.9C170.61,-100.55 116.44,-87.87 60.05,-74.23"/>
<polygon fill="#63b8ff" stroke="#63b8ff" points="60.78,-70.81 50.24,-71.85 59.14,-77.61 60.78,-70.81"/>
</a>
</g>
</g>
<!-- Node12 -->
<g id="Node000012" class="node">
<title>Node12</title>
<g id="a_Node000012"><a xlink:title=" ">
<polygon fill="#e0e0e0" stroke="#999999" points="418.5,-74 361.5,-74 361.5,-55 418.5,-55 418.5,-74"/>
<text text-anchor="middle" x="390" y="-62" font-family="Helvetica,sans-Serif" font-size="10.00">ostream</text>
</a>
</g>
</g>
<!-- Node8&#45;&gt;Node12 -->
<g id="edge12_Node000008_Node000012" class="edge">
<title>Node8&#45;&gt;Node12</title>
<g id="a_edge12_Node000008_Node000012"><a xlink:title=" ">
<path fill="none" stroke="#63b8ff" d="M300.26,-109.99C319.42,-100.49 344.58,-88.02 363.39,-78.69"/>
<polygon fill="#63b8ff" stroke="#63b8ff" points="365.17,-81.72 372.57,-74.14 362.06,-75.45 365.17,-81.72"/>
</a>
</g>
</g>
<!-- Node13 -->
<g id="Node000013" class="node">
<title>Node13</title>
<g id="a_Node000013"><a xlink:title=" ">
<polygon fill="#e0e0e0" stroke="#999999" points="119.5,-74 68.5,-74 68.5,-55 119.5,-55 119.5,-74"/>
<text text-anchor="middle" x="94" y="-62" font-family="Helvetica,sans-Serif" font-size="10.00">variant</text>
</a>
</g>
</g>
<!-- Node8&#45;&gt;Node13 -->
<g id="edge13_Node000008_Node000013" class="edge">
<title>Node8&#45;&gt;Node13</title>
<g id="a_edge13_Node000008_Node000013"><a xlink:title=" ">
<path fill="none" stroke="#63b8ff" d="M229.36,-109.99C198.73,-99.92 157.92,-86.51 129.15,-77.05"/>
<polygon fill="#63b8ff" stroke="#63b8ff" points="130.1,-73.68 119.51,-73.88 127.92,-80.33 130.1,-73.68"/>
</a>
</g>
</g>
<!-- Node8&#45;&gt;Node14 -->
<g id="edge14_Node000008_Node000014" class="edge">
<title>Node8&#45;&gt;Node14</title>
<g id="a_edge14_Node000008_Node000014"><a xlink:title=" ">
<path fill="none" stroke="#63b8ff" d="M262.32,-109.84C256.75,-101.69 249.71,-91.4 243.82,-82.78"/>
<polygon fill="#63b8ff" stroke="#63b8ff" points="246.53,-80.55 237.99,-74.27 240.75,-84.5 246.53,-80.55"/>
</a>
</g>
</g>
<!-- Node14&#45;&gt;Node7 -->
<g id="edge20_Node000014_Node000007" class="edge">
<title>Node14&#45;&gt;Node7</title>
<g id="a_edge20_Node000014_Node000007"><a xlink:title=" ">
<path fill="none" stroke="#63b8ff" d="M267.12,-59.92C282.96,-58.35 301.92,-56.51 319,-55 499.84,-39 713.71,-22.78 817.39,-15.09"/>
<polygon fill="#63b8ff" stroke="#63b8ff" points="817.67,-18.58 827.38,-14.35 817.15,-11.6 817.67,-18.58"/>
</a>
</g>
</g>
<!-- Node14&#45;&gt;Node9 -->
<g id="edge17_Node000014_Node000009" class="edge">
<title>Node14&#45;&gt;Node9</title>
<g id="a_edge17_Node000014_Node000009"><a xlink:title=" ">
<path fill="none" stroke="#63b8ff" d="M267.05,-57.31C271.73,-56.52 276.48,-55.73 281,-55 388.36,-37.71 416.28,-39.85 523,-19 523.91,-18.82 524.84,-18.64 525.77,-18.44"/>
<polygon fill="#63b8ff" stroke="#63b8ff" points="526.85,-21.79 535.85,-16.2 525.33,-14.96 526.85,-21.79"/>
</a>
</g>
</g>
<!-- Node15 -->
<g id="Node000015" class="node">
<title>Node15</title>
<g id="a_Node000015"><a xlink:title=" ">
<polygon fill="#e0e0e0" stroke="#999999" points="275,-19 237,-19 237,0 275,0 275,-19"/>
<text text-anchor="middle" x="256" y="-7" font-family="Helvetica,sans-Serif" font-size="10.00">map</text>
</a>
</g>
</g>
<!-- Node14&#45;&gt;Node15 -->
<g id="edge15_Node000014_Node000015" class="edge">
<title>Node14&#45;&gt;Node15</title>
<g id="a_edge15_Node000014_Node000015"><a xlink:title=" ">
<path fill="none" stroke="#63b8ff" d="M235.96,-54.75C239.21,-47.57 243.92,-37.18 247.95,-28.27"/>
<polygon fill="#63b8ff" stroke="#63b8ff" points="251.17,-29.64 252.11,-19.09 244.8,-26.75 251.17,-29.64"/>
</a>
</g>
</g>
<!-- Node16 -->
<g id="Node000016" class="node">
<title>Node16</title>
<g id="a_Node000016"><a xlink:title=" ">
<polygon fill="#e0e0e0" stroke="#999999" points="219,-19 187,-19 187,0 219,0 219,-19"/>
<text text-anchor="middle" x="203" y="-7" font-family="Helvetica,sans-Serif" font-size="10.00">set</text>
</a>
</g>
</g>
<!-- Node14&#45;&gt;Node16 -->
<g id="edge16_Node000014_Node000016" class="edge">
<title>Node14&#45;&gt;Node16</title>
<g id="a_edge16_Node000014_Node000016"><a xlink:title=" ">
<path fill="none" stroke="#63b8ff" d="M227.21,-54.75C223.24,-47.49 217.47,-36.95 212.57,-27.98"/>
<polygon fill="#63b8ff" stroke="#63b8ff" points="215.57,-26.18 207.7,-19.09 209.43,-29.54 215.57,-26.18"/>
</a>
</g>
</g>
<!-- Node17 -->
<g id="Node000017" class="node">
<title>Node17</title>
<g id="a_Node000017"><a xlink:title=" ">
<polygon fill="#e0e0e0" stroke="#999999" points="390.5,-19 317.5,-19 317.5,0 390.5,0 390.5,-19"/>
<text text-anchor="middle" x="354" y="-7" font-family="Helvetica,sans-Serif" font-size="10.00">string_view</text>
</a>
</g>
</g>
<!-- Node14&#45;&gt;Node17 -->
<g id="edge18_Node000014_Node000017" class="edge">
<title>Node14&#45;&gt;Node17</title>
<g id="a_edge18_Node000014_Node000017"><a xlink:title=" ">
<path fill="none" stroke="#63b8ff" d="M251.6,-54.98C271.32,-46.42 301.95,-33.11 324.58,-23.28"/>
<polygon fill="#63b8ff" stroke="#63b8ff" points="326.26,-26.37 334.04,-19.17 323.48,-19.94 326.26,-26.37"/>
</a>
</g>
</g>
<!-- Node18 -->
<g id="Node000018" class="node">
<title>Node18</title>
<g id="a_Node000018"><a xlink:title=" ">
<polygon fill="#e0e0e0" stroke="#999999" points="514,-19 456,-19 456,0 514,0 514,-19"/>
<text text-anchor="middle" x="485" y="-7" font-family="Helvetica,sans-Serif" font-size="10.00">memory</text>
</a>
</g>
</g>
<!-- Node14&#45;&gt;Node18 -->
<g id="edge19_Node000014_Node000018" class="edge">
<title>Node14&#45;&gt;Node18</title>
<g id="a_edge19_Node000014_Node000018"><a xlink:title=" ">
<path fill="none" stroke="#63b8ff" d="M267.18,-56.13C314.08,-46.31 396.84,-28.97 445.73,-18.73"/>
<polygon fill="#63b8ff" stroke="#63b8ff" points="446.55,-22.13 455.62,-16.65 445.12,-15.28 446.55,-22.13"/>
</a>
</g>
</g>
<!-- Node19&#45;&gt;Node3 -->
<g id="edge23_Node000019_Node000003" class="edge">
<title>Node19&#45;&gt;Node3</title>
<g id="a_edge23_Node000019_Node000003"><a xlink:title=" ">
<path fill="none" stroke="#63b8ff" d="M515.04,-175.99C489.32,-166.03 446.52,-149.45 417.32,-138.13"/>
<polygon fill="#63b8ff" stroke="#63b8ff" points="418.57,-134.87 407.98,-134.52 416.04,-141.39 418.57,-134.87"/>
</a>
</g>
</g>
<!-- Node19&#45;&gt;Node4 -->
<g id="edge25_Node000019_Node000004" class="edge">
<title>Node19&#45;&gt;Node4</title>
<g id="a_edge25_Node000019_Node000004"><a xlink:title=" ">
<path fill="none" stroke="#63b8ff" d="M562.69,-175.98C589.67,-167.03 633.32,-152.54 671,-140 673.13,-139.29 675.33,-138.56 677.54,-137.82"/>
<polygon fill="#63b8ff" stroke="#63b8ff" points="678.85,-141.07 687.24,-134.59 676.64,-134.43 678.85,-141.07"/>
</a>
</g>
</g>
<!-- Node19&#45;&gt;Node7 -->
<g id="edge38_Node000019_Node000007" class="edge">
<title>Node19&#45;&gt;Node7</title>
<g id="a_edge38_Node000019_Node000007"><a xlink:title=" ">
<path fill="none" stroke="#63b8ff" d="M577.66,-175.99C598.66,-169.55 622.96,-158.52 638,-140 662.35,-110.03 628.52,-82.13 656,-55 678.39,-32.89 759.12,-21.09 817.24,-15.32"/>
<polygon fill="#63b8ff" stroke="#63b8ff" points="817.83,-18.78 827.45,-14.34 817.16,-11.81 817.83,-18.78"/>
</a>
</g>
</g>
<!-- Node19&#45;&gt;Node8 -->
<g id="edge39_Node000019_Node000008" class="edge">
<title>Node19&#45;&gt;Node8</title>
<g id="a_edge39_Node000019_Node000008"><a xlink:title=" ">
<path fill="none" stroke="#63b8ff" d="M498.47,-175.99C458.51,-167.17 395.08,-153.17 345.49,-142.22"/>
<polygon fill="#63b8ff" stroke="#63b8ff" points="345.97,-138.75 335.45,-140.01 344.46,-145.58 345.97,-138.75"/>
</a>
</g>
</g>
<!-- Node19&#45;&gt;Node12 -->
<g id="edge24_Node000019_Node000012" class="edge">
<title>Node19&#45;&gt;Node12</title>
<g id="a_edge24_Node000019_Node000012"><a xlink:title=" ">
<path fill="none" stroke="#63b8ff" d="M522.92,-175.88C509.26,-167.31 488.14,-153.53 471,-140 447.25,-121.24 421.88,-97.18 405.99,-81.55"/>
<polygon fill="#63b8ff" stroke="#63b8ff" points="408.17,-78.78 398.6,-74.22 403.24,-83.75 408.17,-78.78"/>
</a>
</g>
</g>
<!-- Node19&#45;&gt;Node18 -->
<g id="edge27_Node000019_Node000018" class="edge">
<title>Node19&#45;&gt;Node18</title>
<g id="a_edge27_Node000019_Node000018"><a xlink:title=" ">
<path fill="none" stroke="#63b8ff" d="M528.45,-175.78C520.73,-167.36 509.73,-153.87 504,-140 488.65,-102.85 485.44,-55.2 484.92,-29.31"/>
<polygon fill="#63b8ff" stroke="#63b8ff" points="488.42,-29.03 484.84,-19.06 481.42,-29.08 488.42,-29.03"/>
</a>
</g>
</g>
<!-- Node20 -->
<g id="Node000020" class="node">
<title>Node20</title>
<g id="a_Node000020"><a xlink:title=" ">
<polygon fill="#e0e0e0" stroke="#999999" points="629,-134.5 579,-134.5 579,-115.5 629,-115.5 629,-134.5"/>
<text text-anchor="middle" x="604" y="-122.5" font-family="Helvetica,sans-Serif" font-size="10.00">chrono</text>
</a>
</g>
</g>
<!-- Node19&#45;&gt;Node20 -->
<g id="edge26_Node000019_Node000020" class="edge">
<title>Node19&#45;&gt;Node20</title>
<g id="a_edge26_Node000019_Node000020"><a xlink:title=" ">
<path fill="none" stroke="#63b8ff" d="M546.89,-175.87C557.28,-166.8 573.84,-152.34 586.45,-141.32"/>
<polygon fill="#63b8ff" stroke="#63b8ff" points="588.84,-143.88 594.07,-134.67 584.24,-138.61 588.84,-143.88"/>
</a>
</g>
</g>
<!-- Node21 -->
<g id="Node000021" class="node">
<title>Node21</title>
<g id="a_Node000021"><a xlink:href="field_8h.html" target="_top" xlink:title=" ">
<polygon fill="white" stroke="#666666" points="560.5,-134.5 513.5,-134.5 513.5,-115.5 560.5,-115.5 560.5,-134.5"/>
<text text-anchor="middle" x="537" y="-122.5" font-family="Helvetica,sans-Serif" font-size="10.00">field.h</text>
</a>
</g>
</g>
<!-- Node19&#45;&gt;Node21 -->
<g id="edge28_Node000019_Node000021" class="edge">
<title>Node19&#45;&gt;Node21</title>
<g id="a_edge28_Node000019_Node000021"><a xlink:title=" ">
<path fill="none" stroke="#63b8ff" d="M537,-175.87C537,-167.75 537,-155.31 537,-144.89"/>
<polygon fill="#63b8ff" stroke="#63b8ff" points="540.5,-144.67 537,-134.67 533.5,-144.67 540.5,-144.67"/>
</a>
</g>
</g>
<!-- Node21&#45;&gt;Node6 -->
<g id="edge32_Node000021_Node000006" class="edge">
<title>Node21&#45;&gt;Node6</title>
<g id="a_edge32_Node000021_Node000006"><a xlink:title=" ">
<path fill="none" stroke="#63b8ff" d="M554.87,-115.49C559.7,-113.45 564.98,-111.44 570,-110 664.29,-82.89 694.01,-93.9 794.33,-73.93"/>
<polygon fill="#63b8ff" stroke="#63b8ff" points="795.17,-77.33 804.27,-71.9 793.77,-70.47 795.17,-77.33"/>
</a>
</g>
</g>
<!-- Node21&#45;&gt;Node7 -->
<g id="edge33_Node000021_Node000007" class="edge">
<title>Node21&#45;&gt;Node7</title>
<g id="a_edge33_Node000021_Node000007"><a xlink:title=" ">
<path fill="none" stroke="#63b8ff" d="M545.04,-115.11C559.19,-100.07 590.2,-69.8 623,-55 685.33,-26.88 763.56,-16.45 817.24,-12.63"/>
<polygon fill="#63b8ff" stroke="#63b8ff" points="817.55,-16.11 827.3,-11.97 817.09,-9.13 817.55,-16.11"/>
</a>
</g>
</g>
<!-- Node21&#45;&gt;Node9 -->
<g id="edge30_Node000021_Node000009" class="edge">
<title>Node21&#45;&gt;Node9</title>
<g id="a_edge30_Node000021_Node000009"><a xlink:title=" ">
<path fill="none" stroke="#63b8ff" d="M538.58,-115.47C541.95,-97.23 549.94,-54.07 554.55,-29.14"/>
<polygon fill="#63b8ff" stroke="#63b8ff" points="558.03,-29.6 556.4,-19.13 551.14,-28.33 558.03,-29.6"/>
</a>
</g>
</g>
<!-- Node21&#45;&gt;Node14 -->
<g id="edge34_Node000021_Node000014" class="edge">
<title>Node21&#45;&gt;Node14</title>
<g id="a_edge34_Node000021_Node000014"><a xlink:title=" ">
<path fill="none" stroke="#63b8ff" d="M513.32,-119.46C462.7,-109.75 343.23,-86.83 277.43,-74.21"/>
<polygon fill="#63b8ff" stroke="#63b8ff" points="277.83,-70.73 267.35,-72.28 276.51,-77.6 277.83,-70.73"/>
</a>
</g>
</g>
<!-- Node21&#45;&gt;Node17 -->
<g id="edge31_Node000021_Node000017" class="edge">
<title>Node21&#45;&gt;Node17</title>
<g id="a_edge31_Node000021_Node000017"><a xlink:title=" ">
<path fill="none" stroke="#63b8ff" d="M523.49,-115.45C502.77,-102.35 461.9,-76.58 427,-55 410.33,-44.69 391.43,-33.17 377.04,-24.44"/>
<polygon fill="#63b8ff" stroke="#63b8ff" points="378.67,-21.33 368.3,-19.14 375.04,-27.32 378.67,-21.33"/>
</a>
</g>
</g>
<!-- Node21&#45;&gt;Node18 -->
<g id="edge29_Node000021_Node000018" class="edge">
<title>Node21&#45;&gt;Node18</title>
<g id="a_edge29_Node000021_Node000018"><a xlink:title=" ">
<path fill="none" stroke="#63b8ff" d="M533.09,-115.47C524.66,-97.06 504.61,-53.29 493.24,-28.48"/>
<polygon fill="#63b8ff" stroke="#63b8ff" points="496.3,-26.76 488.95,-19.13 489.94,-29.68 496.3,-26.76"/>
</a>
</g>
</g>
<!-- Node22 -->
<g id="Node000022" class="node">
<title>Node22</title>
<g id="a_Node000022"><a xlink:href="complete_8h.html" target="_top" xlink:title=" ">
<polygon fill="white" stroke="#666666" points="786.5,-74 665.5,-74 665.5,-55 786.5,-55 786.5,-74"/>
<text text-anchor="middle" x="726" y="-62" font-family="Helvetica,sans-Serif" font-size="10.00">webcface/complete.h</text>
</a>
</g>
</g>
<!-- Node21&#45;&gt;Node22 -->
<g id="edge35_Node000021_Node000022" class="edge">
<title>Node21&#45;&gt;Node22</title>
<g id="a_edge35_Node000021_Node000022"><a xlink:title=" ">
<path fill="none" stroke="#63b8ff" d="M556.04,-115.45C560.57,-113.55 565.42,-111.62 570,-110 607.14,-96.88 650.26,-84.81 681.74,-76.57"/>
<polygon fill="#63b8ff" stroke="#63b8ff" points="682.73,-79.92 691.53,-74.02 680.98,-73.15 682.73,-79.92"/>
</a>
</g>
</g>
<!-- Node22&#45;&gt;Node7 -->
<g id="edge37_Node000022_Node000007" class="edge">
<title>Node22&#45;&gt;Node7</title>
<g id="a_edge37_Node000022_Node000007"><a xlink:title=" ">
<path fill="none" stroke="#63b8ff" d="M750.74,-54.98C776.37,-46.16 816.63,-32.31 845.41,-22.41"/>
<polygon fill="#63b8ff" stroke="#63b8ff" points="846.75,-25.65 855.06,-19.08 844.47,-19.03 846.75,-25.65"/>
</a>
</g>
</g>
<!-- Node23 -->
<g id="Node000023" class="node">
<title>Node23</title>
<g id="a_Node000023"><a xlink:title=" ">
<polygon fill="#e0e0e0" stroke="#999999" points="1119.5,-19 1066.5,-19 1066.5,0 1119.5,0 1119.5,-19"/>
<text text-anchor="middle" x="1093" y="-7" font-family="Helvetica,sans-Serif" font-size="10.00">cstddef</text>
</a>
</g>
</g>
<!-- Node22&#45;&gt;Node23 -->
<g id="edge36_Node000022_Node000023" class="edge">
<title>Node22&#45;&gt;Node23</title>
<g id="a_edge36_Node000022_Node000023"><a xlink:title=" ">
<path fill="none" stroke="#63b8ff" d="M784.96,-54.98C861.55,-43.92 992.92,-24.95 1056.46,-15.78"/>
<polygon fill="#63b8ff" stroke="#63b8ff" points="1057.03,-19.23 1066.42,-14.34 1056.03,-12.3 1057.03,-19.23"/>
</a>
</g>
</g>
<!-- Node24&#45;&gt;Node6 -->
<g id="edge43_Node000024_Node000006" class="edge">
<title>Node24&#45;&gt;Node6</title>
<g id="a_edge43_Node000024_Node000006"><a xlink:title=" ">
<path fill="none" stroke="#63b8ff" d="M978.41,-115.49C947.43,-105.2 895.19,-87.83 861.16,-76.52"/>
<polygon fill="#63b8ff" stroke="#63b8ff" points="862.24,-73.19 851.65,-73.36 860.04,-79.84 862.24,-73.19"/>
</a>
</g>
</g>
<!-- Node24&#45;&gt;Node7 -->
<g id="edge42_Node000024_Node000007" class="edge">
<title>Node24&#45;&gt;Node7</title>
<g id="a_edge42_Node000024_Node000007"><a xlink:title=" ">
<path fill="none" stroke="#63b8ff" d="M995.28,-115.34C981.89,-102.1 955.35,-76.15 932,-55 920.99,-45.03 908.34,-34.19 898.27,-25.7"/>
<polygon fill="#63b8ff" stroke="#63b8ff" points="900.42,-22.94 890.51,-19.2 895.92,-28.3 900.42,-22.94"/>
</a>
</g>
</g>
<!-- Node25 -->
<g id="Node000025" class="node">
<title>Node25</title>
<g id="a_Node000025"><a xlink:title=" ">
<polygon fill="#e0e0e0" stroke="#999999" points="1091.5,-74 1022.5,-74 1022.5,-55 1091.5,-55 1091.5,-74"/>
<text text-anchor="middle" x="1057" y="-62" font-family="Helvetica,sans-Serif" font-size="10.00">type_traits</text>
</a>
</g>
</g>
<!-- Node24&#45;&gt;Node25 -->
<g id="edge44_Node000024_Node000025" class="edge">
<title>Node24&#45;&gt;Node25</title>
<g id="a_edge44_Node000024_Node000025"><a xlink:title=" ">
<path fill="none" stroke="#63b8ff" d="M1011.82,-115.37C1019.81,-106.55 1032.39,-92.66 1042.26,-81.77"/>
<polygon fill="#63b8ff" stroke="#63b8ff" points="1045.03,-83.93 1049.15,-74.17 1039.84,-79.23 1045.03,-83.93"/>
</a>
</g>
</g>
<!-- Node26&#45;&gt;Node4 -->
<g id="edge58_Node000026_Node000004" class="edge">
<title>Node26&#45;&gt;Node4</title>
<g id="a_edge58_Node000026_Node000004"><a xlink:title=" ">
<path fill="none" stroke="#63b8ff" d="M1065.09,-175.99C979.15,-163.79 823.33,-141.67 751.35,-131.45"/>
<polygon fill="#63b8ff" stroke="#63b8ff" points="751.75,-127.97 741.35,-130.03 750.76,-134.9 751.75,-127.97"/>
</a>
</g>
</g>
<!-- Node26&#45;&gt;Node7 -->
<g id="edge46_Node000026_Node000007" class="edge">
<title>Node26&#45;&gt;Node7</title>
<g id="a_edge46_Node000026_Node000007"><a xlink:title=" ">
<path fill="none" stroke="#63b8ff" d="M1120.67,-175.66C1112.9,-160.55 1095.32,-129.52 1073,-110 1059.33,-98.05 956.93,-47.73 907.09,-23.57"/>
<polygon fill="#63b8ff" stroke="#63b8ff" points="908.39,-20.31 897.87,-19.1 905.34,-26.61 908.39,-20.31"/>
</a>
</g>
</g>
<!-- Node27 -->
<g id="Node000027" class="node">
<title>Node27</title>
<g id="a_Node000027"><a xlink:href="array__like_8h.html" target="_top" xlink:title=" ">
<polygon fill="white" stroke="#666666" points="1195,-134.5 1121,-134.5 1121,-115.5 1195,-115.5 1195,-134.5"/>
<text text-anchor="middle" x="1158" y="-122.5" font-family="Helvetica,sans-Serif" font-size="10.00">array_like.h</text>
</a>
</g>
</g>
<!-- Node26&#45;&gt;Node27 -->
<g id="edge47_Node000026_Node000027" class="edge">
<title>Node26&#45;&gt;Node27</title>
<g id="a_edge47_Node000026_Node000027"><a xlink:title=" ">
<path fill="none" stroke="#63b8ff" d="M1129.87,-175.87C1134.65,-167.4 1142.07,-154.24 1148.09,-143.57"/>
<polygon fill="#63b8ff" stroke="#63b8ff" points="1151.25,-145.1 1153.11,-134.67 1145.15,-141.66 1151.25,-145.1"/>
</a>
</g>
</g>
<!-- Node29 -->
<g id="Node000029" class="node">
<title>Node29</title>
<g id="a_Node000029"><a xlink:title=" ">
<polygon fill="#e0e0e0" stroke="#999999" points="1376,-74 1334,-74 1334,-55 1376,-55 1376,-74"/>
<text text-anchor="middle" x="1355" y="-62" font-family="Helvetica,sans-Serif" font-size="10.00">array</text>
</a>
</g>
</g>
<!-- Node26&#45;&gt;Node29 -->
<g id="edge57_Node000026_Node000029" class="edge">
<title>Node26&#45;&gt;Node29</title>
<g id="a_edge57_Node000026_Node000029"><a xlink:title=" ">
<path fill="none" stroke="#63b8ff" d="M1172.84,-175.99C1203.2,-169.23 1242.55,-157.88 1274,-140 1300.87,-124.72 1326.13,-99 1341.08,-82.13"/>
<polygon fill="#63b8ff" stroke="#63b8ff" points="1344.03,-84.08 1347.92,-74.22 1338.73,-79.5 1344.03,-84.08"/>
</a>
</g>
</g>
<!-- Node31 -->
<g id="Node000031" class="node">
<title>Node31</title>
<g id="a_Node000031"><a xlink:title=" ">
<polygon fill="#e0e0e0" stroke="#999999" points="1265,-134.5 1213,-134.5 1213,-115.5 1265,-115.5 1265,-134.5"/>
<text text-anchor="middle" x="1239" y="-122.5" font-family="Helvetica,sans-Serif" font-size="10.00">cassert</text>
</a>
</g>
</g>
<!-- Node26&#45;&gt;Node31 -->
<g id="edge59_Node000026_Node000031" class="edge">
<title>Node26&#45;&gt;Node31</title>
<g id="a_edge59_Node000026_Node000031"><a xlink:title=" ">
<path fill="none" stroke="#63b8ff" d="M1141.82,-175.87C1160.6,-166.23 1191.2,-150.53 1213.05,-139.31"/>
<polygon fill="#63b8ff" stroke="#63b8ff" points="1214.81,-142.35 1222.11,-134.67 1211.61,-136.12 1214.81,-142.35"/>
</a>
</g>
</g>
<!-- Node27&#45;&gt;Node6 -->
<g id="edge49_Node000027_Node000006" class="edge">
<title>Node27&#45;&gt;Node6</title>
<g id="a_edge49_Node000027_Node000006"><a xlink:title=" ">
<path fill="none" stroke="#63b8ff" d="M1120.79,-117.4C1056.09,-105.93 923.87,-82.5 861.71,-71.48"/>
<polygon fill="#63b8ff" stroke="#63b8ff" points="862.11,-67.99 851.65,-69.69 860.89,-74.88 862.11,-67.99"/>
</a>
</g>
</g>
<!-- Node27&#45;&gt;Node7 -->
<g id="edge56_Node000027_Node000007" class="edge">
<title>Node27&#45;&gt;Node7</title>
<g id="a_edge56_Node000027_Node000007"><a xlink:title=" ">
<path fill="none" stroke="#63b8ff" d="M1157.66,-115.25C1156.59,-100.42 1152.16,-70.45 1134,-55 1105.88,-31.08 1008.57,-19.51 942.89,-14.31"/>
<polygon fill="#63b8ff" stroke="#63b8ff" points="942.87,-10.8 932.64,-13.53 942.34,-17.78 942.87,-10.8"/>
</a>
</g>
</g>
<!-- Node27&#45;&gt;Node9 -->
<g id="edge52_Node000027_Node000009" class="edge">
<title>Node27&#45;&gt;Node9</title>
<g id="a_edge52_Node000027_Node000009"><a xlink:title=" ">
<path fill="none" stroke="#63b8ff" d="M1153.69,-115.33C1145.57,-100.04 1126.42,-68.65 1100,-55 1054.69,-31.59 699.81,-16 590.16,-11.7"/>
<polygon fill="#63b8ff" stroke="#63b8ff" points="590.17,-8.2 580.04,-11.31 589.9,-15.2 590.17,-8.2"/>
</a>
</g>
</g>
<!-- Node27&#45;&gt;Node25 -->
<g id="edge51_Node000027_Node000025" class="edge">
<title>Node27&#45;&gt;Node25</title>
<g id="a_edge51_Node000027_Node000025"><a xlink:title=" ">
<path fill="none" stroke="#63b8ff" d="M1143.1,-115.37C1126.69,-105.86 1100.07,-90.45 1080.77,-79.27"/>
<polygon fill="#63b8ff" stroke="#63b8ff" points="1082.37,-76.15 1071.96,-74.17 1078.86,-82.21 1082.37,-76.15"/>
</a>
</g>
</g>
<!-- Node28 -->
<g id="Node000028" class="node">
<title>Node28</title>
<g id="a_Node000028"><a xlink:title=" ">
<polygon fill="#e0e0e0" stroke="#999999" points="1315.5,-74 1250.5,-74 1250.5,-55 1315.5,-55 1315.5,-74"/>
<text text-anchor="middle" x="1283" y="-62" font-family="Helvetica,sans-Serif" font-size="10.00">stdexcept</text>
</a>
</g>
</g>
<!-- Node27&#45;&gt;Node28 -->
<g id="edge48_Node000027_Node000028" class="edge">
<title>Node27&#45;&gt;Node28</title>
<g id="a_edge48_Node000027_Node000028"><a xlink:title=" ">
<path fill="none" stroke="#63b8ff" d="M1176.18,-115.49C1197.01,-105.75 1231.37,-89.66 1255.48,-78.38"/>
<polygon fill="#63b8ff" stroke="#63b8ff" points="1257.23,-81.43 1264.8,-74.02 1254.26,-75.09 1257.23,-81.43"/>
</a>
</g>
</g>
<!-- Node27&#45;&gt;Node29 -->
<g id="edge50_Node000027_Node000029" class="edge">
<title>Node27&#45;&gt;Node29</title>
<g id="a_edge50_Node000027_Node000029"><a xlink:title=" ">
<path fill="none" stroke="#63b8ff" d="M1186.21,-115.37C1192.08,-113.59 1198.24,-111.72 1204,-110 1245.63,-97.53 1293.81,-83.38 1324.33,-74.45"/>
<polygon fill="#63b8ff" stroke="#63b8ff" points="1325.36,-77.8 1333.97,-71.63 1323.39,-71.08 1325.36,-77.8"/>
</a>
</g>
</g>
<!-- Node30 -->
<g id="Node000030" class="node">
<title>Node30</title>
<g id="a_Node000030"><a xlink:href="trait_8h.html" target="_top" xlink:title=" ">
<polygon fill="white" stroke="#666666" points="1232,-74 1186,-74 1186,-55 1232,-55 1232,-74"/>
<text text-anchor="middle" x="1209" y="-62" font-family="Helvetica,sans-Serif" font-size="10.00">trait.h</text>
</a>
</g>
</g>
<!-- Node27&#45;&gt;Node30 -->
<g id="edge53_Node000027_Node000030" class="edge">
<title>Node27&#45;&gt;Node30</title>
<g id="a_edge53_Node000027_Node000030"><a xlink:title=" ">
<path fill="none" stroke="#63b8ff" d="M1165.53,-115.37C1173.21,-106.55 1185.32,-92.66 1194.81,-81.77"/>
<polygon fill="#63b8ff" stroke="#63b8ff" points="1197.51,-84.01 1201.44,-74.17 1192.23,-79.41 1197.51,-84.01"/>
</a>
</g>
</g>
<!-- Node30&#45;&gt;Node7 -->
<g id="edge55_Node000030_Node000007" class="edge">
<title>Node30&#45;&gt;Node7</title>
<g id="a_edge55_Node000030_Node000007"><a xlink:title=" ">
<path fill="none" stroke="#63b8ff" d="M1185.96,-57.93C1181.35,-56.89 1176.53,-55.86 1172,-55 1093.31,-39.99 1001.93,-26.73 942.64,-18.67"/>
<polygon fill="#63b8ff" stroke="#63b8ff" points="943.06,-15.19 932.69,-17.32 942.13,-22.13 943.06,-15.19"/>
</a>
</g>
</g>
<!-- Node30&#45;&gt;Node23 -->
<g id="edge54_Node000030_Node000023" class="edge">
<title>Node30&#45;&gt;Node23</title>
<g id="a_edge54_Node000030_Node000023"><a xlink:title=" ">
<path fill="none" stroke="#63b8ff" d="M1190.36,-54.98C1171.7,-46.46 1142.75,-33.23 1121.26,-23.41"/>
<polygon fill="#63b8ff" stroke="#63b8ff" points="1122.53,-20.14 1111.98,-19.17 1119.62,-26.51 1122.53,-20.14"/>
</a>
</g>
</g>
</g>
</svg>
