<?xml version="1.0" encoding="UTF-8" standalone="no"?>
<!DOCTYPE svg PUBLIC "-//W3C//DTD SVG 1.1//EN"
 "http://www.w3.org/Graphics/SVG/1.1/DTD/svg11.dtd">
<!-- Generated by graphviz version 2.43.0 (0)
 -->
<!-- Title: client/include/webcface/internal/robot_link_internal.h Pages: 1 -->
<svg width="1811pt" height="390pt"
 viewBox="0.00 0.00 1811.49 390.00" xmlns="http://www.w3.org/2000/svg" xmlns:xlink="http://www.w3.org/1999/xlink">
<g id="graph0" class="graph" transform="scale(1 1) rotate(0) translate(4 386)">
<title>client/include/webcface/internal/robot_link_internal.h</title>
<!-- Node1 -->
<g id="Node000001" class="node">
<title>Node1</title>
<g id="a_Node000001"><a xlink:title=" ">
<polygon fill="#999999" stroke="#666666" points="901.99,-382 740.99,-382 740.99,-352 901.99,-352 901.99,-382"/>
<text text-anchor="start" x="748.99" y="-370" font-family="Helvetica,sans-Serif" font-size="10.00">client/include/webcface</text>
<text text-anchor="middle" x="821.49" y="-359" font-family="Helvetica,sans-Serif" font-size="10.00">/internal/robot_link_internal.h</text>
</a>
</g>
</g>
<!-- Node2 -->
<g id="Node000002" class="node">
<title>Node2</title>
<g id="a_Node000002"><a xlink:href="common_2include_2webcface_2common_2internal_2message_2robot__model_8h.html" target="_top" xlink:title=" ">
<polygon fill="white" stroke="#666666" points="602.99,-261 453.99,-261 453.99,-231 602.99,-231 602.99,-261"/>
<text text-anchor="start" x="461.99" y="-249" font-family="Helvetica,sans-Serif" font-size="10.00">webcface/common/internal</text>
<text text-anchor="middle" x="528.49" y="-238" font-family="Helvetica,sans-Serif" font-size="10.00">/message/robot_model.h</text>
</a>
</g>
</g>
<!-- Node1&#45;&gt;Node2 -->
<g id="edge1_Node000001_Node000002" class="edge">
<title>Node1&#45;&gt;Node2</title>
<g id="a_edge1_Node000001_Node000002"><a xlink:title=" ">
<path fill="none" stroke="#63b8ff" d="M787.02,-352C733.71,-330.35 631.32,-288.76 572.66,-264.94"/>
<polygon fill="#63b8ff" stroke="#63b8ff" points="573.87,-261.65 563.29,-261.13 571.24,-268.14 573.87,-261.65"/>
</a>
</g>
</g>
<!-- Node17 -->
<g id="Node000017" class="node">
<title>Node17</title>
<g id="a_Node000017"><a xlink:href="robot__link_8h.html" target="_top" xlink:title=" ">
<polygon fill="white" stroke="#666666" points="1069.49,-316 945.49,-316 945.49,-297 1069.49,-297 1069.49,-316"/>
<text text-anchor="middle" x="1007.49" y="-304" font-family="Helvetica,sans-Serif" font-size="10.00">webcface/robot_link.h</text>
</a>
</g>
</g>
<!-- Node1&#45;&gt;Node17 -->
<g id="edge25_Node000001_Node000017" class="edge">
<title>Node1&#45;&gt;Node17</title>
<g id="a_edge25_Node000001_Node000017"><a xlink:title=" ">
<path fill="none" stroke="#63b8ff" d="M866.04,-351.99C898,-341.94 940.56,-328.55 970.61,-319.1"/>
<polygon fill="#63b8ff" stroke="#63b8ff" points="971.81,-322.39 980.3,-316.05 969.71,-315.72 971.81,-322.39"/>
</a>
</g>
</g>
<!-- Node3 -->
<g id="Node000003" class="node">
<title>Node3</title>
<g id="a_Node000003"><a xlink:href="base_8h.html" target="_top" xlink:title=" ">
<polygon fill="white" stroke="#666666" points="336.99,-195 281.99,-195 281.99,-176 336.99,-176 336.99,-195"/>
<text text-anchor="middle" x="309.49" y="-183" font-family="Helvetica,sans-Serif" font-size="10.00">./base.h</text>
</a>
</g>
</g>
<!-- Node2&#45;&gt;Node3 -->
<g id="edge2_Node000002_Node000003" class="edge">
<title>Node2&#45;&gt;Node3</title>
<g id="a_edge2_Node000002_Node000003"><a xlink:title=" ">
<path fill="none" stroke="#63b8ff" d="M476.04,-230.99C436.3,-220.37 382.66,-206.05 347.12,-196.55"/>
<polygon fill="#63b8ff" stroke="#63b8ff" points="347.72,-193.09 337.15,-193.89 345.91,-199.85 347.72,-193.09"/>
</a>
</g>
</g>
<!-- Node9 -->
<g id="Node000009" class="node">
<title>Node9</title>
<g id="a_Node000009"><a xlink:title=" ">
<polygon fill="#e0e0e0" stroke="#999999" points="938.99,-74 891.99,-74 891.99,-55 938.99,-55 938.99,-74"/>
<text text-anchor="middle" x="915.49" y="-62" font-family="Helvetica,sans-Serif" font-size="10.00">vector</text>
</a>
</g>
</g>
<!-- Node2&#45;&gt;Node9 -->
<g id="edge24_Node000002_Node000009" class="edge">
<title>Node2&#45;&gt;Node9</title>
<g id="a_edge24_Node000002_Node000009"><a xlink:title=" ">
<path fill="none" stroke="#63b8ff" d="M603.12,-237.35C673.37,-229.13 772.69,-214.56 806.49,-195 853.82,-167.62 889.93,-111.63 906.13,-83.08"/>
<polygon fill="#63b8ff" stroke="#63b8ff" points="909.25,-84.67 911.01,-74.22 903.12,-81.29 909.25,-84.67"/>
</a>
</g>
</g>
<!-- Node14 -->
<g id="Node000014" class="node">
<title>Node14</title>
<g id="a_Node000014"><a xlink:href="common_2encoding_8h.html" target="_top" xlink:title=" ">
<polygon fill="white" stroke="#666666" points="216.49,-74 146.49,-74 146.49,-55 216.49,-55 216.49,-74"/>
<text text-anchor="middle" x="181.49" y="-62" font-family="Helvetica,sans-Serif" font-size="10.00">encoding.h</text>
</a>
</g>
</g>
<!-- Node2&#45;&gt;Node14 -->
<g id="edge23_Node000002_Node000014" class="edge">
<title>Node2&#45;&gt;Node14</title>
<g id="a_edge23_Node000002_Node000014"><a xlink:title=" ">
<path fill="none" stroke="#63b8ff" d="M453.87,-240.5C328.3,-231.19 83.35,-204.96 31.49,-140 -0.27,-100.21 81.59,-80 136.51,-71.2"/>
<polygon fill="#63b8ff" stroke="#63b8ff" points="137.05,-74.65 146.41,-69.68 136,-67.73 137.05,-74.65"/>
</a>
</g>
</g>
<!-- Node4 -->
<g id="Node000004" class="node">
<title>Node4</title>
<g id="a_Node000004"><a xlink:href="webcface-config_8h.html" target="_top" xlink:title=" ">
<polygon fill="white" stroke="#666666" points="1079.99,-19 974.99,-19 974.99,0 1079.99,0 1079.99,-19"/>
<text text-anchor="middle" x="1027.49" y="-7" font-family="Helvetica,sans-Serif" font-size="10.00">webcface&#45;config.h</text>
</a>
</g>
</g>
<!-- Node3&#45;&gt;Node4 -->
<g id="edge3_Node000003_Node000004" class="edge">
<title>Node3&#45;&gt;Node4</title>
<g id="a_edge3_Node000003_Node000004"><a xlink:title=" ">
<path fill="none" stroke="#63b8ff" d="M305.31,-175.81C294.85,-152.67 270.56,-88.95 302.49,-55 325.03,-31.03 792.82,-16.56 964.78,-12.04"/>
<polygon fill="#63b8ff" stroke="#63b8ff" points="965.04,-15.53 974.95,-11.77 964.86,-8.54 965.04,-15.53"/>
</a>
</g>
</g>
<!-- Node5 -->
<g id="Node000005" class="node">
<title>Node5</title>
<g id="a_Node000005"><a xlink:href="fmt_8h.html" target="_top" xlink:title=" ">
<polygon fill="white" stroke="#666666" points="89.99,-134.5 40.99,-134.5 40.99,-115.5 89.99,-115.5 89.99,-134.5"/>
<text text-anchor="middle" x="65.49" y="-122.5" font-family="Helvetica,sans-Serif" font-size="10.00">./fmt.h</text>
</a>
</g>
</g>
<!-- Node3&#45;&gt;Node5 -->
<g id="edge4_Node000003_Node000005" class="edge">
<title>Node3&#45;&gt;Node5</title>
<g id="a_edge4_Node000003_Node000005"><a xlink:title=" ">
<path fill="none" stroke="#63b8ff" d="M281.69,-179.66C241.99,-172.48 166.98,-157.92 104.49,-140 102.07,-139.31 99.58,-138.54 97.09,-137.74"/>
<polygon fill="#63b8ff" stroke="#63b8ff" points="98.2,-134.41 87.6,-134.5 95.94,-141.04 98.2,-134.41"/>
</a>
</g>
</g>
<!-- Node7 -->
<g id="Node000007" class="node">
<title>Node7</title>
<g id="a_Node000007"><a xlink:href="common_2val__adaptor_8h.html" target="_top" xlink:title=" ">
<polygon fill="white" stroke="#666666" points="464.99,-140 337.99,-140 337.99,-110 464.99,-110 464.99,-140"/>
<text text-anchor="start" x="345.99" y="-128" font-family="Helvetica,sans-Serif" font-size="10.00">webcface/common/val</text>
<text text-anchor="middle" x="401.49" y="-117" font-family="Helvetica,sans-Serif" font-size="10.00">_adaptor.h</text>
</a>
</g>
</g>
<!-- Node3&#45;&gt;Node7 -->
<g id="edge7_Node000003_Node000007" class="edge">
<title>Node3&#45;&gt;Node7</title>
<g id="a_edge7_Node000003_Node000007"><a xlink:title=" ">
<path fill="none" stroke="#63b8ff" d="M323.07,-175.87C335.55,-167.93 354.52,-155.87 370.67,-145.6"/>
<polygon fill="#63b8ff" stroke="#63b8ff" points="372.73,-148.43 379.29,-140.11 368.98,-142.53 372.73,-148.43"/>
</a>
</g>
</g>
<!-- Node3&#45;&gt;Node9 -->
<g id="edge22_Node000003_Node000009" class="edge">
<title>Node3&#45;&gt;Node9</title>
<g id="a_edge22_Node000003_Node000009"><a xlink:title=" ">
<path fill="none" stroke="#63b8ff" d="M337.11,-184.41C387.33,-183.29 496.01,-176.45 578.49,-140 598.17,-131.3 596.74,-118.54 616.49,-110 706.55,-71.07 824.53,-65.27 881.62,-64.97"/>
<polygon fill="#63b8ff" stroke="#63b8ff" points="881.88,-68.47 891.88,-64.97 881.88,-61.47 881.88,-68.47"/>
</a>
</g>
</g>
<!-- Node13 -->
<g id="Node000013" class="node">
<title>Node13</title>
<g id="a_Node000013"><a xlink:title=" ">
<polygon fill="#e0e0e0" stroke="#999999" points="361.99,-74 310.99,-74 310.99,-55 361.99,-55 361.99,-74"/>
<text text-anchor="middle" x="336.49" y="-62" font-family="Helvetica,sans-Serif" font-size="10.00">variant</text>
</a>
</g>
</g>
<!-- Node3&#45;&gt;Node13 -->
<g id="edge21_Node000003_Node000013" class="edge">
<title>Node3&#45;&gt;Node13</title>
<g id="a_edge21_Node000003_Node000013"><a xlink:title=" ">
<path fill="none" stroke="#63b8ff" d="M311.43,-175.94C315.77,-156.82 326.33,-110.27 332.27,-84.12"/>
<polygon fill="#63b8ff" stroke="#63b8ff" points="335.7,-84.83 334.49,-74.3 328.87,-83.28 335.7,-84.83"/>
</a>
</g>
</g>
<!-- Node16 -->
<g id="Node000016" class="node">
<title>Node16</title>
<g id="a_Node000016"><a xlink:title=" ">
<polygon fill="#e0e0e0" stroke="#999999" points="147.49,-19 89.49,-19 89.49,0 147.49,0 147.49,-19"/>
<text text-anchor="middle" x="118.49" y="-7" font-family="Helvetica,sans-Serif" font-size="10.00">memory</text>
</a>
</g>
</g>
<!-- Node3&#45;&gt;Node16 -->
<g id="edge20_Node000003_Node000016" class="edge">
<title>Node3&#45;&gt;Node16</title>
<g id="a_edge20_Node000003_Node000016"><a xlink:title=" ">
<path fill="none" stroke="#63b8ff" d="M281.63,-183.69C218.77,-181.31 68.5,-172.3 31.49,-140 2.25,-114.48 -10.05,-87.28 11.49,-55 26.54,-32.45 55.39,-21.31 79.35,-15.81"/>
<polygon fill="#63b8ff" stroke="#63b8ff" points="80.16,-19.22 89.26,-13.79 78.76,-12.36 80.16,-19.22"/>
</a>
</g>
</g>
<!-- Node5&#45;&gt;Node4 -->
<g id="edge5_Node000005_Node000004" class="edge">
<title>Node5&#45;&gt;Node4</title>
<g id="a_edge5_Node000005_Node000004"><a xlink:title=" ">
<path fill="none" stroke="#63b8ff" d="M90.18,-117.23C121.86,-108.32 178.36,-91.71 225.49,-74 245.05,-66.65 248.18,-59.91 268.49,-55 399.86,-23.22 806.78,-13.81 964.31,-11.32"/>
<polygon fill="#63b8ff" stroke="#63b8ff" points="964.82,-14.81 974.77,-11.15 964.71,-7.81 964.82,-14.81"/>
</a>
</g>
</g>
<!-- Node6 -->
<g id="Node000006" class="node">
<title>Node6</title>
<g id="a_Node000006"><a xlink:title=" ">
<polygon fill="#e0e0e0" stroke="#999999" points="89.99,-74 20.99,-74 20.99,-55 89.99,-55 89.99,-74"/>
<text text-anchor="middle" x="55.49" y="-62" font-family="Helvetica,sans-Serif" font-size="10.00">fmt/base.h</text>
</a>
</g>
</g>
<!-- Node5&#45;&gt;Node6 -->
<g id="edge6_Node000005_Node000006" class="edge">
<title>Node5&#45;&gt;Node6</title>
<g id="a_edge6_Node000005_Node000006"><a xlink:title=" ">
<path fill="none" stroke="#63b8ff" d="M64.02,-115.37C62.61,-107.16 60.46,-94.54 58.66,-84.05"/>
<polygon fill="#63b8ff" stroke="#63b8ff" points="62.11,-83.43 56.97,-74.17 55.21,-84.61 62.11,-83.43"/>
</a>
</g>
</g>
<!-- Node7&#45;&gt;Node4 -->
<g id="edge19_Node000007_Node000004" class="edge">
<title>Node7&#45;&gt;Node4</title>
<g id="a_edge19_Node000007_Node000004"><a xlink:title=" ">
<path fill="none" stroke="#63b8ff" d="M422.45,-109.85C449.96,-91.56 497,-61.32 516.49,-55 598.2,-28.5 846.98,-16.67 964.6,-12.45"/>
<polygon fill="#63b8ff" stroke="#63b8ff" points="965.01,-15.93 974.88,-12.08 964.77,-8.94 965.01,-15.93"/>
</a>
</g>
</g>
<!-- Node8 -->
<g id="Node000008" class="node">
<title>Node8</title>
<g id="a_Node000008"><a xlink:title=" ">
<polygon fill="#e0e0e0" stroke="#999999" points="570.49,-19 526.49,-19 526.49,0 570.49,0 570.49,-19"/>
<text text-anchor="middle" x="548.49" y="-7" font-family="Helvetica,sans-Serif" font-size="10.00">string</text>
</a>
</g>
</g>
<!-- Node7&#45;&gt;Node8 -->
<g id="edge8_Node000007_Node000008" class="edge">
<title>Node7&#45;&gt;Node8</title>
<g id="a_edge8_Node000007_Node000008"><a xlink:title=" ">
<path fill="none" stroke="#63b8ff" d="M399.01,-109.87C397.18,-94.59 396.85,-70.37 409.49,-55 435.45,-23.44 483.86,-13.98 516.14,-11.3"/>
<polygon fill="#63b8ff" stroke="#63b8ff" points="516.66,-14.78 526.41,-10.64 516.21,-7.79 516.66,-14.78"/>
</a>
</g>
</g>
<!-- Node7&#45;&gt;Node9 -->
<g id="edge9_Node000007_Node000009" class="edge">
<title>Node7&#45;&gt;Node9</title>
<g id="a_edge9_Node000007_Node000009"><a xlink:title=" ">
<path fill="none" stroke="#63b8ff" d="M465.14,-115.89C480.94,-113.92 497.83,-111.85 513.49,-110 649.85,-93.93 812.44,-76.45 881.63,-69.09"/>
<polygon fill="#63b8ff" stroke="#63b8ff" points="882.34,-72.53 891.92,-67.99 881.6,-65.57 882.34,-72.53"/>
</a>
</g>
</g>
<!-- Node10 -->
<g id="Node000010" class="node">
<title>Node10</title>
<g id="a_Node000010"><a xlink:title=" ">
<polygon fill="#e0e0e0" stroke="#999999" points="640.99,-74 599.99,-74 599.99,-55 640.99,-55 640.99,-74"/>
<text text-anchor="middle" x="620.49" y="-62" font-family="Helvetica,sans-Serif" font-size="10.00">tuple</text>
</a>
</g>
</g>
<!-- Node7&#45;&gt;Node10 -->
<g id="edge10_Node000007_Node000010" class="edge">
<title>Node7&#45;&gt;Node10</title>
<g id="a_edge10_Node000007_Node000010"><a xlink:title=" ">
<path fill="none" stroke="#63b8ff" d="M456.48,-109.96C492.17,-100.75 539.94,-88.24 590.17,-74.32"/>
<polygon fill="#63b8ff" stroke="#63b8ff" points="591.22,-77.66 599.92,-71.61 589.34,-70.91 591.22,-77.66"/>
</a>
</g>
</g>
<!-- Node11 -->
<g id="Node000011" class="node">
<title>Node11</title>
<g id="a_Node000011"><a xlink:title=" ">
<polygon fill="#e0e0e0" stroke="#999999" points="468.49,-74 418.49,-74 418.49,-55 468.49,-55 468.49,-74"/>
<text text-anchor="middle" x="443.49" y="-62" font-family="Helvetica,sans-Serif" font-size="10.00">cstdint</text>
</a>
</g>
</g>
<!-- Node7&#45;&gt;Node11 -->
<g id="edge11_Node000007_Node000011" class="edge">
<title>Node7&#45;&gt;Node11</title>
<g id="a_edge11_Node000007_Node000011"><a xlink:title=" ">
<path fill="none" stroke="#63b8ff" d="M411.66,-109.84C417.57,-101.61 425.06,-91.18 431.28,-82.51"/>
<polygon fill="#63b8ff" stroke="#63b8ff" points="434.21,-84.43 437.2,-74.27 428.52,-80.35 434.21,-84.43"/>
</a>
</g>
</g>
<!-- Node12 -->
<g id="Node000012" class="node">
<title>Node12</title>
<g id="a_Node000012"><a xlink:title=" ">
<polygon fill="#e0e0e0" stroke="#999999" points="581.99,-74 524.99,-74 524.99,-55 581.99,-55 581.99,-74"/>
<text text-anchor="middle" x="553.49" y="-62" font-family="Helvetica,sans-Serif" font-size="10.00">ostream</text>
</a>
</g>
</g>
<!-- Node7&#45;&gt;Node12 -->
<g id="edge12_Node000007_Node000012" class="edge">
<title>Node7&#45;&gt;Node12</title>
<g id="a_edge12_Node000007_Node000012"><a xlink:title=" ">
<path fill="none" stroke="#63b8ff" d="M437.9,-109.99C463.37,-100.18 497.08,-87.21 521.52,-77.81"/>
<polygon fill="#63b8ff" stroke="#63b8ff" points="522.97,-81 531.04,-74.14 520.45,-74.46 522.97,-81"/>
</a>
</g>
</g>
<!-- Node7&#45;&gt;Node13 -->
<g id="edge13_Node000007_Node000013" class="edge">
<title>Node7&#45;&gt;Node13</title>
<g id="a_edge13_Node000007_Node000013"><a xlink:title=" ">
<path fill="none" stroke="#63b8ff" d="M385.76,-109.84C376.13,-101.17 363.8,-90.08 353.88,-81.15"/>
<polygon fill="#63b8ff" stroke="#63b8ff" points="356.01,-78.35 346.23,-74.27 351.32,-83.56 356.01,-78.35"/>
</a>
</g>
</g>
<!-- Node7&#45;&gt;Node14 -->
<g id="edge14_Node000007_Node000014" class="edge">
<title>Node7&#45;&gt;Node14</title>
<g id="a_edge14_Node000007_Node000014"><a xlink:title=" ">
<path fill="none" stroke="#63b8ff" d="M348.8,-109.99C310.5,-99.8 259.35,-86.2 223.73,-76.73"/>
<polygon fill="#63b8ff" stroke="#63b8ff" points="224.22,-73.24 213.66,-74.05 222.42,-80.01 224.22,-73.24"/>
</a>
</g>
</g>
<!-- Node14&#45;&gt;Node4 -->
<g id="edge18_Node000014_Node000004" class="edge">
<title>Node14&#45;&gt;Node4</title>
<g id="a_edge18_Node000014_Node000004"><a xlink:title=" ">
<path fill="none" stroke="#63b8ff" d="M216.75,-56.88C221.36,-56.16 226.03,-55.51 230.49,-55 502.57,-23.91 829.48,-14.3 964.47,-11.54"/>
<polygon fill="#63b8ff" stroke="#63b8ff" points="964.69,-15.03 974.62,-11.33 964.55,-8.04 964.69,-15.03"/>
</a>
</g>
</g>
<!-- Node14&#45;&gt;Node8 -->
<g id="edge15_Node000014_Node000008" class="edge">
<title>Node14&#45;&gt;Node8</title>
<g id="a_edge15_Node000014_Node000008"><a xlink:title=" ">
<path fill="none" stroke="#63b8ff" d="M216.53,-57.28C221.22,-56.49 225.97,-55.71 230.49,-55 334.75,-38.67 458.7,-22.16 516.21,-14.66"/>
<polygon fill="#63b8ff" stroke="#63b8ff" points="517.01,-18.09 526.48,-13.33 516.11,-11.15 517.01,-18.09"/>
</a>
</g>
</g>
<!-- Node15 -->
<g id="Node000015" class="node">
<title>Node15</title>
<g id="a_Node000015"><a xlink:title=" ">
<polygon fill="#e0e0e0" stroke="#999999" points="238.99,-19 165.99,-19 165.99,0 238.99,0 238.99,-19"/>
<text text-anchor="middle" x="202.49" y="-7" font-family="Helvetica,sans-Serif" font-size="10.00">string_view</text>
</a>
</g>
</g>
<!-- Node14&#45;&gt;Node15 -->
<g id="edge16_Node000014_Node000015" class="edge">
<title>Node14&#45;&gt;Node15</title>
<g id="a_edge16_Node000014_Node000015"><a xlink:title=" ">
<path fill="none" stroke="#63b8ff" d="M184.96,-54.75C187.77,-47.65 191.83,-37.4 195.34,-28.56"/>
<polygon fill="#63b8ff" stroke="#63b8ff" points="198.66,-29.68 199.09,-19.09 192.15,-27.1 198.66,-29.68"/>
</a>
</g>
</g>
<!-- Node14&#45;&gt;Node16 -->
<g id="edge17_Node000014_Node000016" class="edge">
<title>Node14&#45;&gt;Node16</title>
<g id="a_edge17_Node000014_Node000016"><a xlink:title=" ">
<path fill="none" stroke="#63b8ff" d="M171.37,-54.98C162.06,-47.15 148.02,-35.34 136.75,-25.86"/>
<polygon fill="#63b8ff" stroke="#63b8ff" points="138.7,-22.93 128.8,-19.17 134.2,-28.29 138.7,-22.93"/>
</a>
</g>
</g>
<!-- Node17&#45;&gt;Node4 -->
<g id="edge77_Node000017_Node000004" class="edge">
<title>Node17&#45;&gt;Node4</title>
<g id="a_edge77_Node000017_Node000004"><a xlink:title=" ">
<path fill="none" stroke="#63b8ff" d="M1027.17,-296.88C1070.24,-276.78 1172.04,-222.16 1210.49,-140 1216.14,-127.92 1217.9,-121.08 1210.49,-110 1187.24,-75.21 1160.45,-93.63 1123.49,-74 1095.77,-59.27 1065.91,-38.7 1046.99,-25.01"/>
<polygon fill="#63b8ff" stroke="#63b8ff" points="1049.01,-22.15 1038.87,-19.07 1044.87,-27.8 1049.01,-22.15"/>
</a>
</g>
</g>
<!-- Node17&#45;&gt;Node14 -->
<g id="edge54_Node000017_Node000014" class="edge">
<title>Node17&#45;&gt;Node14</title>
<g id="a_edge54_Node000017_Node000014"><a xlink:title=" ">
<path fill="none" stroke="#63b8ff" d="M945.24,-303.22C763.67,-295.76 237.87,-268.22 84.49,-195 41.82,-174.63 -8.15,-147.63 20.49,-110 34.56,-91.52 94.04,-78.75 136.61,-71.77"/>
<polygon fill="#63b8ff" stroke="#63b8ff" points="137.16,-75.23 146.48,-70.21 136.06,-68.31 137.16,-75.23"/>
</a>
</g>
</g>
<!-- Node18 -->
<g id="Node000018" class="node">
<title>Node18</title>
<g id="a_Node000018"><a xlink:href="component__view_8h.html" target="_top" xlink:title=" ">
<polygon fill="white" stroke="#666666" points="960.99,-261 839.99,-261 839.99,-231 960.99,-231 960.99,-261"/>
<text text-anchor="start" x="847.99" y="-249" font-family="Helvetica,sans-Serif" font-size="10.00">webcface/component</text>
<text text-anchor="middle" x="900.49" y="-238" font-family="Helvetica,sans-Serif" font-size="10.00">_view.h</text>
</a>
</g>
</g>
<!-- Node17&#45;&gt;Node18 -->
<g id="edge26_Node000017_Node000018" class="edge">
<title>Node17&#45;&gt;Node18</title>
<g id="a_edge26_Node000017_Node000018"><a xlink:title=" ">
<path fill="none" stroke="#63b8ff" d="M991.7,-296.87C976.92,-288.78 954.31,-276.42 935.3,-266.03"/>
<polygon fill="#63b8ff" stroke="#63b8ff" points="936.76,-262.84 926.31,-261.11 933.4,-268.98 936.76,-262.84"/>
</a>
</g>
</g>
<!-- Node28 -->
<g id="Node000028" class="node">
<title>Node28</title>
<g id="a_Node000028"><a xlink:href="geometry_8h.html" target="_top" xlink:title=" ">
<polygon fill="white" stroke="#666666" points="1200.99,-134.5 1079.99,-134.5 1079.99,-115.5 1200.99,-115.5 1200.99,-134.5"/>
<text text-anchor="middle" x="1140.49" y="-122.5" font-family="Helvetica,sans-Serif" font-size="10.00">webcface/geometry.h</text>
</a>
</g>
</g>
<!-- Node17&#45;&gt;Node28 -->
<g id="edge55_Node000017_Node000028" class="edge">
<title>Node17&#45;&gt;Node28</title>
<g id="a_edge55_Node000017_Node000028"><a xlink:title=" ">
<path fill="none" stroke="#63b8ff" d="M1013.91,-296.84C1034.67,-268.82 1100.28,-180.27 1127.97,-142.9"/>
<polygon fill="#63b8ff" stroke="#63b8ff" points="1131,-144.69 1134.14,-134.57 1125.38,-140.52 1131,-144.69"/>
</a>
</g>
</g>
<!-- Node30 -->
<g id="Node000030" class="node">
<title>Node30</title>
<g id="a_Node000030"><a xlink:href="transform_8h.html" target="_top" xlink:title=" ">
<polygon fill="white" stroke="#666666" points="1381.99,-195 1258.99,-195 1258.99,-176 1381.99,-176 1381.99,-195"/>
<text text-anchor="middle" x="1320.49" y="-183" font-family="Helvetica,sans-Serif" font-size="10.00">webcface/transform.h</text>
</a>
</g>
</g>
<!-- Node17&#45;&gt;Node30 -->
<g id="edge59_Node000017_Node000030" class="edge">
<title>Node17&#45;&gt;Node30</title>
<g id="a_edge59_Node000017_Node000030"><a xlink:title=" ">
<path fill="none" stroke="#63b8ff" d="M1069.56,-303.51C1119.09,-299.7 1188.97,-289.22 1243.49,-261 1270.5,-247.02 1294.42,-220.51 1308.18,-203.18"/>
<polygon fill="#63b8ff" stroke="#63b8ff" points="1311.09,-205.13 1314.41,-195.06 1305.54,-200.86 1311.09,-205.13"/>
</a>
</g>
</g>
<!-- Node18&#45;&gt;Node4 -->
<g id="edge35_Node000018_Node000004" class="edge">
<title>Node18&#45;&gt;Node4</title>
<g id="a_edge35_Node000018_Node000004"><a xlink:title=" ">
<path fill="none" stroke="#63b8ff" d="M941.42,-230.92C959.33,-222.9 979.24,-211.17 992.49,-195 1032.58,-146.07 1032.01,-65.34 1029.38,-29.11"/>
<polygon fill="#63b8ff" stroke="#63b8ff" points="1032.86,-28.67 1028.5,-19.01 1025.88,-29.27 1032.86,-28.67"/>
</a>
</g>
</g>
<!-- Node18&#45;&gt;Node7 -->
<g id="edge36_Node000018_Node000007" class="edge">
<title>Node18&#45;&gt;Node7</title>
<g id="a_edge36_Node000018_Node000007"><a xlink:title=" ">
<path fill="none" stroke="#63b8ff" d="M839.69,-244.78C762.28,-242.79 625.39,-233.47 515.49,-195 482.91,-183.6 449.59,-162.05 427.45,-146.05"/>
<polygon fill="#63b8ff" stroke="#63b8ff" points="429.38,-143.13 419.26,-140.02 425.23,-148.76 429.38,-143.13"/>
</a>
</g>
</g>
<!-- Node18&#45;&gt;Node9 -->
<g id="edge34_Node000018_Node000009" class="edge">
<title>Node18&#45;&gt;Node9</title>
<g id="a_edge34_Node000018_Node000009"><a xlink:title=" ">
<path fill="none" stroke="#63b8ff" d="M928.45,-230.81C943.2,-222.15 960.65,-209.89 972.49,-195 988.89,-174.4 989.51,-165.85 994.49,-140 997.01,-126.91 1001.22,-121.51 994.49,-110 984.6,-93.07 965.63,-82.08 948.76,-75.26"/>
<polygon fill="#63b8ff" stroke="#63b8ff" points="949.75,-71.89 939.16,-71.71 947.32,-78.46 949.75,-71.89"/>
</a>
</g>
</g>
<!-- Node19 -->
<g id="Node000019" class="node">
<title>Node19</title>
<g id="a_Node000019"><a xlink:href="func__trait_8h.html" target="_top" xlink:title=" ">
<polygon fill="white" stroke="#666666" points="797.49,-195 675.49,-195 675.49,-176 797.49,-176 797.49,-195"/>
<text text-anchor="middle" x="736.49" y="-183" font-family="Helvetica,sans-Serif" font-size="10.00">webcface/func_trait.h</text>
</a>
</g>
</g>
<!-- Node18&#45;&gt;Node19 -->
<g id="edge27_Node000018_Node000019" class="edge">
<title>Node18&#45;&gt;Node19</title>
<g id="a_edge27_Node000018_Node000019"><a xlink:title=" ">
<path fill="none" stroke="#63b8ff" d="M861.21,-230.99C833.48,-221.1 796.71,-207.98 770.29,-198.56"/>
<polygon fill="#63b8ff" stroke="#63b8ff" points="771.31,-195.2 760.71,-195.14 768.95,-201.8 771.31,-195.2"/>
</a>
</g>
</g>
<!-- Node20 -->
<g id="Node000020" class="node">
<title>Node20</title>
<g id="a_Node000020"><a xlink:title=" ">
<polygon fill="#e0e0e0" stroke="#999999" points="796.99,-134.5 731.99,-134.5 731.99,-115.5 796.99,-115.5 796.99,-134.5"/>
<text text-anchor="middle" x="764.49" y="-122.5" font-family="Helvetica,sans-Serif" font-size="10.00">functional</text>
</a>
</g>
</g>
<!-- Node18&#45;&gt;Node20 -->
<g id="edge31_Node000018_Node000020" class="edge">
<title>Node18&#45;&gt;Node20</title>
<g id="a_edge31_Node000018_Node000020"><a xlink:title=" ">
<path fill="none" stroke="#63b8ff" d="M839.85,-240.53C777.92,-234.56 687.92,-221.48 666.49,-195 661.18,-188.43 662.08,-183.2 666.49,-176 673.97,-163.8 706.27,-148.75 731.77,-138.36"/>
<polygon fill="#63b8ff" stroke="#63b8ff" points="733.16,-141.58 741.15,-134.63 730.56,-135.08 733.16,-141.58"/>
</a>
</g>
</g>
<!-- Node21 -->
<g id="Node000021" class="node">
<title>Node21</title>
<g id="a_Node000021"><a xlink:title=" ">
<polygon fill="#e0e0e0" stroke="#999999" points="985.49,-134.5 929.49,-134.5 929.49,-115.5 985.49,-115.5 985.49,-134.5"/>
<text text-anchor="middle" x="957.49" y="-122.5" font-family="Helvetica,sans-Serif" font-size="10.00">optional</text>
</a>
</g>
</g>
<!-- Node18&#45;&gt;Node21 -->
<g id="edge32_Node000018_Node000021" class="edge">
<title>Node18&#45;&gt;Node21</title>
<g id="a_edge32_Node000018_Node000021"><a xlink:title=" ">
<path fill="none" stroke="#63b8ff" d="M923.87,-230.97C936,-222.29 949.67,-209.94 956.49,-195 963.71,-179.18 963.07,-159.11 961.15,-144.7"/>
<polygon fill="#63b8ff" stroke="#63b8ff" points="964.56,-143.84 959.47,-134.55 957.65,-144.98 964.56,-143.84"/>
</a>
</g>
</g>
<!-- Node22 -->
<g id="Node000022" class="node">
<title>Node22</title>
<g id="a_Node000022"><a xlink:title=" ">
<polygon fill="#e0e0e0" stroke="#999999" points="946.99,-195 853.99,-195 853.99,-176 946.99,-176 946.99,-195"/>
<text text-anchor="middle" x="900.49" y="-183" font-family="Helvetica,sans-Serif" font-size="10.00">unordered_map</text>
</a>
</g>
</g>
<!-- Node18&#45;&gt;Node22 -->
<g id="edge33_Node000018_Node000022" class="edge">
<title>Node18&#45;&gt;Node22</title>
<g id="a_edge33_Node000018_Node000022"><a xlink:title=" ">
<path fill="none" stroke="#63b8ff" d="M900.49,-230.84C900.49,-223.21 900.49,-213.7 900.49,-205.45"/>
<polygon fill="#63b8ff" stroke="#63b8ff" points="903.99,-205.27 900.49,-195.27 896.99,-205.27 903.99,-205.27"/>
</a>
</g>
</g>
<!-- Node23 -->
<g id="Node000023" class="node">
<title>Node23</title>
<g id="a_Node000023"><a xlink:href="client_2include_2webcface_2text_8h.html" target="_top" xlink:title=" ">
<polygon fill="white" stroke="#666666" points="618.99,-195 523.99,-195 523.99,-176 618.99,-176 618.99,-195"/>
<text text-anchor="middle" x="571.49" y="-183" font-family="Helvetica,sans-Serif" font-size="10.00">webcface/text.h</text>
</a>
</g>
</g>
<!-- Node18&#45;&gt;Node23 -->
<g id="edge37_Node000018_Node000023" class="edge">
<title>Node18&#45;&gt;Node23</title>
<g id="a_edge37_Node000018_Node000023"><a xlink:title=" ">
<path fill="none" stroke="#63b8ff" d="M839.76,-234.2C779.56,-223.5 688.02,-207.22 628.98,-196.72"/>
<polygon fill="#63b8ff" stroke="#63b8ff" points="629.53,-193.26 619.07,-194.96 628.3,-200.16 629.53,-193.26"/>
</a>
</g>
</g>
<!-- Node19&#45;&gt;Node4 -->
<g id="edge30_Node000019_Node000004" class="edge">
<title>Node19&#45;&gt;Node4</title>
<g id="a_edge30_Node000019_Node000004"><a xlink:title=" ">
<path fill="none" stroke="#63b8ff" d="M759.82,-175.96C778.22,-168.44 803.8,-156.16 822.49,-140 857.67,-109.59 845.76,-82.17 883.49,-55 907.31,-37.85 937.9,-27.19 964.76,-20.62"/>
<polygon fill="#63b8ff" stroke="#63b8ff" points="965.89,-23.95 974.85,-18.29 964.32,-17.13 965.89,-23.95"/>
</a>
</g>
</g>
<!-- Node19&#45;&gt;Node7 -->
<g id="edge28_Node000019_Node000007" class="edge">
<title>Node19&#45;&gt;Node7</title>
<g id="a_edge28_Node000019_Node000007"><a xlink:title=" ">
<path fill="none" stroke="#63b8ff" d="M687.78,-175.99C631.97,-166.25 539.91,-150.17 475.29,-138.89"/>
<polygon fill="#63b8ff" stroke="#63b8ff" points="475.61,-135.39 465.16,-137.12 474.41,-142.29 475.61,-135.39"/>
</a>
</g>
</g>
<!-- Node19&#45;&gt;Node10 -->
<g id="edge29_Node000019_Node000010" class="edge">
<title>Node19&#45;&gt;Node10</title>
<g id="a_edge29_Node000019_Node000010"><a xlink:title=" ">
<path fill="none" stroke="#63b8ff" d="M761.3,-175.95C777.33,-168.99 796.92,-157.42 806.49,-140 812.91,-128.31 814.75,-120.47 806.49,-110 787.47,-85.89 698.8,-73.39 651.08,-68.31"/>
<polygon fill="#63b8ff" stroke="#63b8ff" points="651.31,-64.81 641.01,-67.28 650.6,-71.77 651.31,-64.81"/>
</a>
</g>
</g>
<!-- Node23&#45;&gt;Node4 -->
<g id="edge52_Node000023_Node000004" class="edge">
<title>Node23&#45;&gt;Node4</title>
<g id="a_edge52_Node000023_Node000004"><a xlink:title=" ">
<path fill="none" stroke="#63b8ff" d="M599.42,-175.95C622.91,-168.19 656.97,-155.59 684.49,-140 703.52,-129.22 704.51,-120.87 723.49,-110 780.07,-77.6 797.63,-75.61 859.49,-55 899.44,-41.69 945.76,-29.67 979.64,-21.48"/>
<polygon fill="#63b8ff" stroke="#63b8ff" points="980.82,-24.8 989.73,-19.07 979.19,-17.99 980.82,-24.8"/>
</a>
</g>
</g>
<!-- Node23&#45;&gt;Node7 -->
<g id="edge53_Node000023_Node000007" class="edge">
<title>Node23&#45;&gt;Node7</title>
<g id="a_edge53_Node000023_Node000007"><a xlink:title=" ">
<path fill="none" stroke="#63b8ff" d="M546.77,-175.99C522.09,-167.5 483.45,-154.2 452.21,-143.45"/>
<polygon fill="#63b8ff" stroke="#63b8ff" points="452.96,-140.01 442.36,-140.06 450.68,-146.63 452.96,-140.01"/>
</a>
</g>
</g>
<!-- Node23&#45;&gt;Node12 -->
<g id="edge39_Node000023_Node000012" class="edge">
<title>Node23&#45;&gt;Node12</title>
<g id="a_edge39_Node000023_Node000012"><a xlink:title=" ">
<path fill="none" stroke="#63b8ff" d="M552.83,-175.97C539.16,-168.59 521.63,-156.5 513.49,-140 507.59,-128.04 508.72,-122.45 513.49,-110 517.73,-98.94 526.13,-88.91 534.14,-81.18"/>
<polygon fill="#63b8ff" stroke="#63b8ff" points="536.74,-83.55 541.85,-74.27 532.07,-78.33 536.74,-83.55"/>
</a>
</g>
</g>
<!-- Node23&#45;&gt;Node16 -->
<g id="edge42_Node000023_Node000016" class="edge">
<title>Node23&#45;&gt;Node16</title>
<g id="a_edge42_Node000023_Node000016"><a xlink:title=" ">
<path fill="none" stroke="#63b8ff" d="M523.73,-178.7C422.44,-165.44 190.95,-129.66 137.49,-74 125.92,-61.95 121.36,-43.14 119.58,-29.12"/>
<polygon fill="#63b8ff" stroke="#63b8ff" points="123.07,-28.76 118.67,-19.12 116.1,-29.4 123.07,-28.76"/>
</a>
</g>
</g>
<!-- Node23&#45;&gt;Node20 -->
<g id="edge38_Node000023_Node000020" class="edge">
<title>Node23&#45;&gt;Node20</title>
<g id="a_edge38_Node000023_Node000020"><a xlink:title=" ">
<path fill="none" stroke="#63b8ff" d="M599.56,-175.99C633,-165.86 689.05,-148.87 726.39,-137.55"/>
<polygon fill="#63b8ff" stroke="#63b8ff" points="727.84,-140.77 736.39,-134.52 725.81,-134.07 727.84,-140.77"/>
</a>
</g>
</g>
<!-- Node23&#45;&gt;Node21 -->
<g id="edge40_Node000023_Node000021" class="edge">
<title>Node23&#45;&gt;Node21</title>
<g id="a_edge40_Node000023_Node000021"><a xlink:title=" ">
<path fill="none" stroke="#63b8ff" d="M619.21,-177.27C696.53,-165.55 847.69,-142.64 918.78,-131.87"/>
<polygon fill="#63b8ff" stroke="#63b8ff" points="919.71,-135.27 929.08,-130.31 918.67,-128.34 919.71,-135.27"/>
</a>
</g>
</g>
<!-- Node24 -->
<g id="Node000024" class="node">
<title>Node24</title>
<g id="a_Node000024"><a xlink:title=" ">
<polygon fill="#e0e0e0" stroke="#999999" points="675.49,-134.5 625.49,-134.5 625.49,-115.5 675.49,-115.5 675.49,-134.5"/>
<text text-anchor="middle" x="650.49" y="-122.5" font-family="Helvetica,sans-Serif" font-size="10.00">chrono</text>
</a>
</g>
</g>
<!-- Node23&#45;&gt;Node24 -->
<g id="edge41_Node000023_Node000024" class="edge">
<title>Node23&#45;&gt;Node24</title>
<g id="a_edge41_Node000023_Node000024"><a xlink:title=" ">
<path fill="none" stroke="#63b8ff" d="M583.15,-175.87C595.63,-166.62 615.67,-151.78 630.65,-140.69"/>
<polygon fill="#63b8ff" stroke="#63b8ff" points="632.83,-143.43 638.79,-134.67 628.67,-137.81 632.83,-143.43"/>
</a>
</g>
</g>
<!-- Node25 -->
<g id="Node000025" class="node">
<title>Node25</title>
<g id="a_Node000025"><a xlink:href="field_8h.html" target="_top" xlink:title=" ">
<polygon fill="white" stroke="#666666" points="568.99,-134.5 521.99,-134.5 521.99,-115.5 568.99,-115.5 568.99,-134.5"/>
<text text-anchor="middle" x="545.49" y="-122.5" font-family="Helvetica,sans-Serif" font-size="10.00">field.h</text>
</a>
</g>
</g>
<!-- Node23&#45;&gt;Node25 -->
<g id="edge43_Node000023_Node000025" class="edge">
<title>Node23&#45;&gt;Node25</title>
<g id="a_edge43_Node000023_Node000025"><a xlink:title=" ">
<path fill="none" stroke="#63b8ff" d="M567.66,-175.87C563.93,-167.49 558.16,-154.51 553.44,-143.89"/>
<polygon fill="#63b8ff" stroke="#63b8ff" points="556.6,-142.38 549.34,-134.67 550.21,-145.23 556.6,-142.38"/>
</a>
</g>
</g>
<!-- Node25&#45;&gt;Node4 -->
<g id="edge47_Node000025_Node000004" class="edge">
<title>Node25&#45;&gt;Node4</title>
<g id="a_edge47_Node000025_Node000004"><a xlink:title=" ">
<path fill="none" stroke="#63b8ff" d="M567.91,-115.46C573.01,-113.6 578.42,-111.68 583.49,-110 624.4,-96.43 727.52,-64.79 769.49,-55 835.47,-39.61 912.09,-27.05 964.59,-19.25"/>
<polygon fill="#63b8ff" stroke="#63b8ff" points="965.37,-22.67 974.75,-17.75 964.35,-15.75 965.37,-22.67"/>
</a>
</g>
</g>
<!-- Node25&#45;&gt;Node8 -->
<g id="edge45_Node000025_Node000008" class="edge">
<title>Node25&#45;&gt;Node8</title>
<g id="a_edge45_Node000025_Node000008"><a xlink:title=" ">
<path fill="none" stroke="#63b8ff" d="M568.79,-115.38C573.65,-113.6 578.74,-111.73 583.49,-110 627.88,-93.83 656.33,-112.65 683.49,-74 710.96,-34.91 628.75,-19.18 580.66,-13.45"/>
<polygon fill="#63b8ff" stroke="#63b8ff" points="581.01,-9.96 570.68,-12.34 580.23,-16.92 581.01,-9.96"/>
</a>
</g>
</g>
<!-- Node25&#45;&gt;Node9 -->
<g id="edge46_Node000025_Node000009" class="edge">
<title>Node25&#45;&gt;Node9</title>
<g id="a_edge46_Node000025_Node000009"><a xlink:title=" ">
<path fill="none" stroke="#63b8ff" d="M566.14,-115.46C571.7,-113.42 577.76,-111.42 583.49,-110 690.52,-83.46 821.14,-71.82 881.69,-67.57"/>
<polygon fill="#63b8ff" stroke="#63b8ff" points="882.07,-71.05 891.81,-66.88 881.6,-64.07 882.07,-71.05"/>
</a>
</g>
</g>
<!-- Node25&#45;&gt;Node14 -->
<g id="edge48_Node000025_Node000014" class="edge">
<title>Node25&#45;&gt;Node14</title>
<g id="a_edge48_Node000025_Node000014"><a xlink:title=" ">
<path fill="none" stroke="#63b8ff" d="M521.87,-119.07C508.08,-116.26 490.33,-112.76 474.49,-110 387.17,-94.77 284.69,-79.88 226.99,-71.78"/>
<polygon fill="#63b8ff" stroke="#63b8ff" points="227.14,-68.26 216.75,-70.34 226.17,-75.2 227.14,-68.26"/>
</a>
</g>
</g>
<!-- Node25&#45;&gt;Node16 -->
<g id="edge44_Node000025_Node000016" class="edge">
<title>Node25&#45;&gt;Node16</title>
<g id="a_edge44_Node000025_Node000016"><a xlink:title=" ">
<path fill="none" stroke="#63b8ff" d="M566.48,-115.43C595.7,-103.28 645.64,-81.68 650.49,-74 655,-66.86 656.24,-61.18 650.49,-55 614.7,-16.5 245.66,-25.92 157.87,-18.47"/>
<polygon fill="#63b8ff" stroke="#63b8ff" points="158.12,-14.97 147.8,-17.35 157.35,-21.93 158.12,-14.97"/>
</a>
</g>
</g>
<!-- Node26 -->
<g id="Node000026" class="node">
<title>Node26</title>
<g id="a_Node000026"><a xlink:href="complete_8h.html" target="_top" xlink:title=" ">
<polygon fill="white" stroke="#666666" points="1454.99,-74 1333.99,-74 1333.99,-55 1454.99,-55 1454.99,-74"/>
<text text-anchor="middle" x="1394.49" y="-62" font-family="Helvetica,sans-Serif" font-size="10.00">webcface/complete.h</text>
</a>
</g>
</g>
<!-- Node25&#45;&gt;Node26 -->
<g id="edge49_Node000025_Node000026" class="edge">
<title>Node25&#45;&gt;Node26</title>
<g id="a_edge49_Node000025_Node000026"><a xlink:title=" ">
<path fill="none" stroke="#63b8ff" d="M569.03,-118.51C582.79,-115.52 600.54,-112.02 616.49,-110 685.45,-101.27 1145.07,-77.88 1323.69,-68.99"/>
<polygon fill="#63b8ff" stroke="#63b8ff" points="1323.95,-72.48 1333.77,-68.49 1323.61,-65.49 1323.95,-72.48"/>
</a>
</g>
</g>
<!-- Node26&#45;&gt;Node4 -->
<g id="edge51_Node000026_Node000004" class="edge">
<title>Node26&#45;&gt;Node4</title>
<g id="a_edge51_Node000026_Node000004"><a xlink:title=" ">
<path fill="none" stroke="#63b8ff" d="M1335.53,-54.98C1268.36,-45.28 1159.05,-29.5 1090.32,-19.57"/>
<polygon fill="#63b8ff" stroke="#63b8ff" points="1090.46,-16.06 1080.06,-18.09 1089.46,-22.99 1090.46,-16.06"/>
</a>
</g>
</g>
<!-- Node27 -->
<g id="Node000027" class="node">
<title>Node27</title>
<g id="a_Node000027"><a xlink:title=" ">
<polygon fill="#e0e0e0" stroke="#999999" points="1471.99,-19 1418.99,-19 1418.99,0 1471.99,0 1471.99,-19"/>
<text text-anchor="middle" x="1445.49" y="-7" font-family="Helvetica,sans-Serif" font-size="10.00">cstddef</text>
</a>
</g>
</g>
<!-- Node26&#45;&gt;Node27 -->
<g id="edge50_Node000026_Node000027" class="edge">
<title>Node26&#45;&gt;Node27</title>
<g id="a_edge50_Node000026_Node000027"><a xlink:title=" ">
<path fill="none" stroke="#63b8ff" d="M1402.91,-54.75C1410.27,-47.11 1421.12,-35.82 1430.03,-26.56"/>
<polygon fill="#63b8ff" stroke="#63b8ff" points="1432.82,-28.72 1437.23,-19.09 1427.77,-23.87 1432.82,-28.72"/>
</a>
</g>
</g>
<!-- Node28&#45;&gt;Node4 -->
<g id="edge56_Node000028_Node000004" class="edge">
<title>Node28&#45;&gt;Node4</title>
<g id="a_edge56_Node000028_Node000004"><a xlink:title=" ">
<path fill="none" stroke="#63b8ff" d="M1131.4,-115.21C1121.16,-105.27 1104.03,-88.57 1089.49,-74 1073.45,-57.92 1055.32,-39.31 1042.84,-26.41"/>
<polygon fill="#63b8ff" stroke="#63b8ff" points="1045.32,-23.94 1035.86,-19.19 1040.29,-28.81 1045.32,-23.94"/>
</a>
</g>
</g>
<!-- Node28&#45;&gt;Node9 -->
<g id="edge57_Node000028_Node000009" class="edge">
<title>Node28&#45;&gt;Node9</title>
<g id="a_edge57_Node000028_Node000009"><a xlink:title=" ">
<path fill="none" stroke="#63b8ff" d="M1107.77,-115.49C1065.44,-104.49 992.04,-85.4 949.22,-74.27"/>
<polygon fill="#63b8ff" stroke="#63b8ff" points="949.84,-70.82 939.28,-71.69 948.08,-77.59 949.84,-70.82"/>
</a>
</g>
</g>
<!-- Node29 -->
<g id="Node000029" class="node">
<title>Node29</title>
<g id="a_Node000029"><a xlink:title=" ">
<polygon fill="#e0e0e0" stroke="#999999" points="1200.99,-74 1131.99,-74 1131.99,-55 1200.99,-55 1200.99,-74"/>
<text text-anchor="middle" x="1166.49" y="-62" font-family="Helvetica,sans-Serif" font-size="10.00">type_traits</text>
</a>
</g>
</g>
<!-- Node28&#45;&gt;Node29 -->
<g id="edge58_Node000028_Node000029" class="edge">
<title>Node28&#45;&gt;Node29</title>
<g id="a_edge58_Node000028_Node000029"><a xlink:title=" ">
<path fill="none" stroke="#63b8ff" d="M1144.33,-115.37C1148.05,-106.99 1153.82,-94.01 1158.54,-83.39"/>
<polygon fill="#63b8ff" stroke="#63b8ff" points="1161.78,-84.73 1162.64,-74.17 1155.38,-81.88 1161.78,-84.73"/>
</a>
</g>
</g>
<!-- Node30&#45;&gt;Node4 -->
<g id="edge60_Node000030_Node000004" class="edge">
<title>Node30&#45;&gt;Node4</title>
<g id="a_edge60_Node000030_Node000004"><a xlink:title=" ">
<path fill="none" stroke="#63b8ff" d="M1313.67,-175.86C1291.77,-148.21 1223.92,-63.28 1210.49,-55 1174.24,-32.65 1127.5,-21.52 1090.34,-15.98"/>
<polygon fill="#63b8ff" stroke="#63b8ff" points="1090.51,-12.47 1080.12,-14.56 1089.55,-19.41 1090.51,-12.47"/>
</a>
</g>
</g>
<!-- Node30&#45;&gt;Node21 -->
<g id="edge75_Node000030_Node000021" class="edge">
<title>Node30&#45;&gt;Node21</title>
<g id="a_edge75_Node000030_Node000021"><a xlink:title=" ">
<path fill="none" stroke="#63b8ff" d="M1267.71,-175.99C1193.76,-164.08 1061.08,-142.69 995.84,-132.18"/>
<polygon fill="#63b8ff" stroke="#63b8ff" points="996.03,-128.67 985.6,-130.53 994.91,-135.58 996.03,-128.67"/>
</a>
</g>
</g>
<!-- Node31 -->
<g id="Node000031" class="node">
<title>Node31</title>
<g id="a_Node000031"><a xlink:href="array__like_8h.html" target="_top" xlink:title=" ">
<polygon fill="white" stroke="#666666" points="1502.99,-140 1365.99,-140 1365.99,-110 1502.99,-110 1502.99,-140"/>
<text text-anchor="start" x="1373.99" y="-128" font-family="Helvetica,sans-Serif" font-size="10.00">webcface/common/array</text>
<text text-anchor="middle" x="1434.49" y="-117" font-family="Helvetica,sans-Serif" font-size="10.00">_like.h</text>
</a>
</g>
</g>
<!-- Node30&#45;&gt;Node31 -->
<g id="edge61_Node000030_Node000031" class="edge">
<title>Node30&#45;&gt;Node31</title>
<g id="a_edge61_Node000030_Node000031"><a xlink:title=" ">
<path fill="none" stroke="#63b8ff" d="M1337.31,-175.87C1353.21,-167.71 1377.59,-155.2 1397.96,-144.75"/>
<polygon fill="#63b8ff" stroke="#63b8ff" points="1399.69,-147.79 1406.99,-140.11 1396.49,-141.57 1399.69,-147.79"/>
</a>
</g>
</g>
<!-- Node33 -->
<g id="Node000033" class="node">
<title>Node33</title>
<g id="a_Node000033"><a xlink:title=" ">
<polygon fill="#e0e0e0" stroke="#999999" points="1803.49,-74 1761.49,-74 1761.49,-55 1803.49,-55 1803.49,-74"/>
<text text-anchor="middle" x="1782.49" y="-62" font-family="Helvetica,sans-Serif" font-size="10.00">array</text>
</a>
</g>
</g>
<!-- Node30&#45;&gt;Node33 -->
<g id="edge74_Node000030_Node000033" class="edge">
<title>Node30&#45;&gt;Node33</title>
<g id="a_edge74_Node000030_Node000033"><a xlink:title=" ">
<path fill="none" stroke="#63b8ff" d="M1359.59,-175.94C1398.46,-167.31 1459.76,-153.38 1512.49,-140 1599.4,-117.95 1701.18,-89.01 1751.33,-74.55"/>
<polygon fill="#63b8ff" stroke="#63b8ff" points="1752.59,-77.83 1761.22,-71.69 1750.64,-71.11 1752.59,-77.83"/>
</a>
</g>
</g>
<!-- Node36 -->
<g id="Node000036" class="node">
<title>Node36</title>
<g id="a_Node000036"><a xlink:title=" ">
<polygon fill="#e0e0e0" stroke="#999999" points="1347.49,-134.5 1295.49,-134.5 1295.49,-115.5 1347.49,-115.5 1347.49,-134.5"/>
<text text-anchor="middle" x="1321.49" y="-122.5" font-family="Helvetica,sans-Serif" font-size="10.00">cassert</text>
</a>
</g>
</g>
<!-- Node30&#45;&gt;Node36 -->
<g id="edge76_Node000030_Node000036" class="edge">
<title>Node30&#45;&gt;Node36</title>
<g id="a_edge76_Node000030_Node000036"><a xlink:title=" ">
<path fill="none" stroke="#63b8ff" d="M1320.64,-175.87C1320.78,-167.75 1320.99,-155.31 1321.17,-144.89"/>
<polygon fill="#63b8ff" stroke="#63b8ff" points="1324.67,-144.73 1321.34,-134.67 1317.67,-144.61 1324.67,-144.73"/>
</a>
</g>
</g>
<!-- Node31&#45;&gt;Node4 -->
<g id="edge73_Node000031_Node000004" class="edge">
<title>Node31&#45;&gt;Node4</title>
<g id="a_edge73_Node000031_Node000004"><a xlink:title=" ">
<path fill="none" stroke="#63b8ff" d="M1403.7,-109.88C1360.85,-90.26 1287.76,-56.93 1281.49,-55 1217.91,-35.43 1142.56,-23.59 1090.53,-17.09"/>
<polygon fill="#63b8ff" stroke="#63b8ff" points="1090.8,-13.6 1080.45,-15.87 1089.95,-20.55 1090.8,-13.6"/>
</a>
</g>
</g>
<!-- Node31&#45;&gt;Node8 -->
<g id="edge66_Node000031_Node000008" class="edge">
<title>Node31&#45;&gt;Node8</title>
<g id="a_edge66_Node000031_Node000008"><a xlink:title=" ">
<path fill="none" stroke="#63b8ff" d="M1390.75,-109.93C1330.78,-90.73 1228.4,-58.31 1210.49,-55 971.91,-10.85 677.78,-9.23 581.02,-10.04"/>
<polygon fill="#63b8ff" stroke="#63b8ff" points="580.69,-6.54 570.72,-10.14 580.76,-13.54 580.69,-6.54"/>
</a>
</g>
</g>
<!-- Node31&#45;&gt;Node9 -->
<g id="edge63_Node000031_Node000009" class="edge">
<title>Node31&#45;&gt;Node9</title>
<g id="a_edge63_Node000031_Node000009"><a xlink:title=" ">
<path fill="none" stroke="#63b8ff" d="M1365.63,-111.34C1362.55,-110.87 1359.49,-110.42 1356.49,-110 1205.05,-88.8 1022.98,-73.7 949.09,-68"/>
<polygon fill="#63b8ff" stroke="#63b8ff" points="949.23,-64.5 938.99,-67.23 948.7,-71.48 949.23,-64.5"/>
</a>
</g>
</g>
<!-- Node31&#45;&gt;Node29 -->
<g id="edge65_Node000031_Node000029" class="edge">
<title>Node31&#45;&gt;Node29</title>
<g id="a_edge65_Node000031_Node000029"><a xlink:title=" ">
<path fill="none" stroke="#63b8ff" d="M1370.3,-109.99C1321.13,-99.25 1254.55,-84.72 1211.08,-75.23"/>
<polygon fill="#63b8ff" stroke="#63b8ff" points="1211.6,-71.76 1201.09,-73.05 1210.11,-78.6 1211.6,-71.76"/>
</a>
</g>
</g>
<!-- Node32 -->
<g id="Node000032" class="node">
<title>Node32</title>
<g id="a_Node000032"><a xlink:title=" ">
<polygon fill="#e0e0e0" stroke="#999999" points="1709.99,-19 1644.99,-19 1644.99,0 1709.99,0 1709.99,-19"/>
<text text-anchor="middle" x="1677.49" y="-7" font-family="Helvetica,sans-Serif" font-size="10.00">stdexcept</text>
</a>
</g>
</g>
<!-- Node31&#45;&gt;Node32 -->
<g id="edge62_Node000031_Node000032" class="edge">
<title>Node31&#45;&gt;Node32</title>
<g id="a_edge62_Node000031_Node000032"><a xlink:title=" ">
<path fill="none" stroke="#63b8ff" d="M1503.13,-121.57C1577.44,-117.33 1688.92,-105.72 1715.49,-74 1728.09,-58.96 1712.14,-39.27 1697.21,-25.82"/>
<polygon fill="#63b8ff" stroke="#63b8ff" points="1699.11,-22.85 1689.21,-19.07 1694.59,-28.19 1699.11,-22.85"/>
</a>
</g>
</g>
<!-- Node31&#45;&gt;Node33 -->
<g id="edge64_Node000031_Node000033" class="edge">
<title>Node31&#45;&gt;Node33</title>
<g id="a_edge64_Node000031_Node000033"><a xlink:title=" ">
<path fill="none" stroke="#63b8ff" d="M1503.16,-114.64C1566.76,-105.59 1663.87,-90.81 1747.49,-74 1748.77,-73.74 1750.07,-73.47 1751.38,-73.19"/>
<polygon fill="#63b8ff" stroke="#63b8ff" points="1752.48,-76.53 1761.45,-70.9 1750.93,-69.7 1752.48,-76.53"/>
</a>
</g>
</g>
<!-- Node34 -->
<g id="Node000034" class="node">
<title>Node34</title>
<g id="a_Node000034"><a xlink:href="trait_8h.html" target="_top" xlink:title=" ">
<polygon fill="white" stroke="#666666" points="1519.49,-74 1473.49,-74 1473.49,-55 1519.49,-55 1519.49,-74"/>
<text text-anchor="middle" x="1496.49" y="-62" font-family="Helvetica,sans-Serif" font-size="10.00">trait.h</text>
</a>
</g>
</g>
<!-- Node31&#45;&gt;Node34 -->
<g id="edge67_Node000031_Node000034" class="edge">
<title>Node31&#45;&gt;Node34</title>
<g id="a_edge67_Node000031_Node000034"><a xlink:title=" ">
<path fill="none" stroke="#63b8ff" d="M1449.5,-109.84C1458.68,-101.17 1470.45,-90.08 1479.9,-81.15"/>
<polygon fill="#63b8ff" stroke="#63b8ff" points="1482.33,-83.67 1487.2,-74.27 1477.53,-78.58 1482.33,-83.67"/>
</a>
</g>
</g>
<!-- Node35 -->
<g id="Node000035" class="node">
<title>Node35</title>
<g id="a_Node000035"><a xlink:href="common_2include_2webcface_2common_2exception_8h.html" target="_top" xlink:title=" ">
<polygon fill="white" stroke="#666666" points="1705.99,-74 1536.99,-74 1536.99,-55 1705.99,-55 1705.99,-74"/>
<text text-anchor="middle" x="1621.49" y="-62" font-family="Helvetica,sans-Serif" font-size="10.00">webcface/common/exception.h</text>
</a>
</g>
</g>
<!-- Node31&#45;&gt;Node35 -->
<g id="edge70_Node000031_Node000035" class="edge">
<title>Node31&#45;&gt;Node35</title>
<g id="a_edge70_Node000031_Node000035"><a xlink:title=" ">
<path fill="none" stroke="#63b8ff" d="M1479.28,-109.99C1511.42,-99.94 1554.2,-86.55 1584.42,-77.1"/>
<polygon fill="#63b8ff" stroke="#63b8ff" points="1585.65,-80.38 1594.15,-74.05 1583.56,-73.7 1585.65,-80.38"/>
</a>
</g>
</g>
<!-- Node34&#45;&gt;Node4 -->
<g id="edge69_Node000034_Node000004" class="edge">
<title>Node34&#45;&gt;Node4</title>
<g id="a_edge69_Node000034_Node000004"><a xlink:title=" ">
<path fill="none" stroke="#63b8ff" d="M1473.17,-56.85C1470.26,-56.15 1467.32,-55.52 1464.49,-55 1332.39,-30.89 1175.25,-18.89 1090.03,-13.75"/>
<polygon fill="#63b8ff" stroke="#63b8ff" points="1090.19,-10.26 1080,-13.16 1089.78,-17.24 1090.19,-10.26"/>
</a>
</g>
</g>
<!-- Node34&#45;&gt;Node27 -->
<g id="edge68_Node000034_Node000027" class="edge">
<title>Node34&#45;&gt;Node27</title>
<g id="a_edge68_Node000034_Node000027"><a xlink:title=" ">
<path fill="none" stroke="#63b8ff" d="M1488.07,-54.75C1480.72,-47.11 1469.86,-35.82 1460.95,-26.56"/>
<polygon fill="#63b8ff" stroke="#63b8ff" points="1463.21,-23.87 1453.76,-19.09 1458.17,-28.72 1463.21,-23.87"/>
</a>
</g>
</g>
<!-- Node35&#45;&gt;Node4 -->
<g id="edge71_Node000035_Node000004" class="edge">
<title>Node35&#45;&gt;Node4</title>
<g id="a_edge71_Node000035_Node000004"><a xlink:title=" ">
<path fill="none" stroke="#63b8ff" d="M1536.85,-55.75C1534.03,-55.5 1531.24,-55.25 1528.49,-55 1370.74,-40.78 1185.01,-24.37 1090.15,-16.01"/>
<polygon fill="#63b8ff" stroke="#63b8ff" points="1090.42,-12.52 1080.15,-15.13 1089.81,-19.5 1090.42,-12.52"/>
</a>
</g>
</g>
<!-- Node35&#45;&gt;Node32 -->
<g id="edge72_Node000035_Node000032" class="edge">
<title>Node35&#45;&gt;Node32</title>
<g id="a_edge72_Node000035_Node000032"><a xlink:title=" ">
<path fill="none" stroke="#63b8ff" d="M1630.49,-54.98C1638.69,-47.23 1651,-35.58 1660.96,-26.14"/>
<polygon fill="#63b8ff" stroke="#63b8ff" points="1663.47,-28.59 1668.33,-19.17 1658.66,-23.5 1663.47,-28.59"/>
</a>
</g>
</g>
</g>
</svg>
