<?xml version="1.0" encoding="UTF-8" standalone="no"?>
<!DOCTYPE svg PUBLIC "-//W3C//DTD SVG 1.1//EN"
 "http://www.w3.org/Graphics/SVG/1.1/DTD/svg11.dtd">
<!-- Generated by graphviz version 2.43.0 (0)
 -->
<!-- Title: client/src/robot_link.cc Pages: 1 -->
<svg width="1549pt" height="445pt"
 viewBox="0.00 0.00 1549.40 445.00" xmlns="http://www.w3.org/2000/svg" xmlns:xlink="http://www.w3.org/1999/xlink">
<g id="graph0" class="graph" transform="scale(1 1) rotate(0) translate(4 441)">
<title>client/src/robot_link.cc</title>
<!-- Node1 -->
<g id="Node000001" class="node">
<title>Node1</title>
<g id="a_Node000001"><a xlink:title=" ">
<polygon fill="#999999" stroke="#666666" points="633.4,-437 507.4,-437 507.4,-418 633.4,-418 633.4,-437"/>
<text text-anchor="middle" x="570.4" y="-425" font-family="Helvetica,sans-Serif" font-size="10.00">client/src/robot_link.cc</text>
</a>
</g>
</g>
<!-- Node2 -->
<g id="Node000002" class="node">
<title>Node2</title>
<g id="a_Node000002"><a xlink:href="robot__link_8h.html" target="_top" xlink:title=" ">
<polygon fill="white" stroke="#666666" points="538.4,-316 414.4,-316 414.4,-297 538.4,-297 538.4,-316"/>
<text text-anchor="middle" x="476.4" y="-304" font-family="Helvetica,sans-Serif" font-size="10.00">webcface/robot_link.h</text>
</a>
</g>
</g>
<!-- Node1&#45;&gt;Node2 -->
<g id="edge1_Node000001_Node000002" class="edge">
<title>Node1&#45;&gt;Node2</title>
<g id="a_edge1_Node000001_Node000002"><a xlink:title=" ">
<path fill="none" stroke="#63b8ff" d="M546.34,-417.97C529.64,-410.85 508.19,-399.09 495.4,-382 483.3,-365.83 478.87,-342.76 477.26,-326.58"/>
<polygon fill="#63b8ff" stroke="#63b8ff" points="480.73,-325.95 476.53,-316.22 473.74,-326.45 480.73,-325.95"/>
</a>
</g>
</g>
<!-- Node33 -->
<g id="Node000033" class="node">
<title>Node33</title>
<g id="a_Node000033"><a xlink:href="robot__link__internal_8h.html" target="_top" xlink:title=" ">
<polygon fill="white" stroke="#666666" points="636.4,-382 504.4,-382 504.4,-352 636.4,-352 636.4,-382"/>
<text text-anchor="start" x="512.4" y="-370" font-family="Helvetica,sans-Serif" font-size="10.00">webcface/internal/robot</text>
<text text-anchor="middle" x="570.4" y="-359" font-family="Helvetica,sans-Serif" font-size="10.00">_link_internal.h</text>
</a>
</g>
</g>
<!-- Node1&#45;&gt;Node33 -->
<g id="edge62_Node000001_Node000033" class="edge">
<title>Node1&#45;&gt;Node33</title>
<g id="a_edge62_Node000001_Node000033"><a xlink:title=" ">
<path fill="none" stroke="#63b8ff" d="M570.4,-417.87C570.4,-411.11 570.4,-401.35 570.4,-392.26"/>
<polygon fill="#63b8ff" stroke="#63b8ff" points="573.9,-392.11 570.4,-382.11 566.9,-392.11 573.9,-392.11"/>
</a>
</g>
</g>
<!-- Node38 -->
<g id="Node000038" class="node">
<title>Node38</title>
<g id="a_Node000038"><a xlink:title=" ">
<polygon fill="#e0e0e0" stroke="#999999" points="718.4,-376.5 654.4,-376.5 654.4,-357.5 718.4,-357.5 718.4,-376.5"/>
<text text-anchor="middle" x="686.4" y="-364.5" font-family="Helvetica,sans-Serif" font-size="10.00">algorithm</text>
</a>
</g>
</g>
<!-- Node1&#45;&gt;Node38 -->
<g id="edge73_Node000001_Node000038" class="edge">
<title>Node1&#45;&gt;Node38</title>
<g id="a_edge73_Node000001_Node000038"><a xlink:title=" ">
<path fill="none" stroke="#63b8ff" d="M587.52,-417.87C606.62,-408.23 637.77,-392.53 660,-381.31"/>
<polygon fill="#63b8ff" stroke="#63b8ff" points="661.86,-384.3 669.21,-376.67 658.71,-378.05 661.86,-384.3"/>
</a>
</g>
</g>
<!-- Node3 -->
<g id="Node000003" class="node">
<title>Node3</title>
<g id="a_Node000003"><a xlink:href="component__view_8h.html" target="_top" xlink:title=" ">
<polygon fill="white" stroke="#666666" points="649.9,-261 528.9,-261 528.9,-231 649.9,-231 649.9,-261"/>
<text text-anchor="start" x="536.9" y="-249" font-family="Helvetica,sans-Serif" font-size="10.00">webcface/component</text>
<text text-anchor="middle" x="589.4" y="-238" font-family="Helvetica,sans-Serif" font-size="10.00">_view.h</text>
</a>
</g>
</g>
<!-- Node2&#45;&gt;Node3 -->
<g id="edge2_Node000002_Node000003" class="edge">
<title>Node2&#45;&gt;Node3</title>
<g id="a_edge2_Node000002_Node000003"><a xlink:title=" ">
<path fill="none" stroke="#63b8ff" d="M493.07,-296.87C508.83,-288.71 533,-276.2 553.19,-265.75"/>
<polygon fill="#63b8ff" stroke="#63b8ff" points="554.86,-268.82 562.13,-261.11 551.65,-262.6 554.86,-268.82"/>
</a>
</g>
</g>
<!-- Node8 -->
<g id="Node000008" class="node">
<title>Node8</title>
<g id="a_Node000008"><a xlink:href="webcface-config_8h.html" target="_top" xlink:title=" ">
<polygon fill="white" stroke="#666666" points="693.9,-19 588.9,-19 588.9,0 693.9,0 693.9,-19"/>
<text text-anchor="middle" x="641.4" y="-7" font-family="Helvetica,sans-Serif" font-size="10.00">webcface&#45;config.h</text>
</a>
</g>
</g>
<!-- Node2&#45;&gt;Node8 -->
<g id="edge61_Node000002_Node000008" class="edge">
<title>Node2&#45;&gt;Node8</title>
<g id="a_edge61_Node000002_Node000008"><a xlink:title=" ">
<path fill="none" stroke="#63b8ff" d="M414.3,-302.9C285.55,-295.82 1.4,-270.66 1.4,-186.5 1.4,-186.5 1.4,-186.5 1.4,-124 1.4,-92.19 -4.2,-75.17 20.4,-55 41.76,-37.49 425,-19.57 578.55,-13.06"/>
<polygon fill="#63b8ff" stroke="#63b8ff" points="578.92,-16.55 588.76,-12.63 578.62,-9.55 578.92,-16.55"/>
</a>
</g>
</g>
<!-- Node15 -->
<g id="Node000015" class="node">
<title>Node15</title>
<g id="a_Node000015"><a xlink:href="common_2encoding_8h.html" target="_top" xlink:title=" ">
<polygon fill="white" stroke="#666666" points="1531.4,-74 1461.4,-74 1461.4,-55 1531.4,-55 1531.4,-74"/>
<text text-anchor="middle" x="1496.4" y="-62" font-family="Helvetica,sans-Serif" font-size="10.00">encoding.h</text>
</a>
</g>
</g>
<!-- Node2&#45;&gt;Node15 -->
<g id="edge41_Node000002_Node000015" class="edge">
<title>Node2&#45;&gt;Node15</title>
<g id="a_edge41_Node000002_Node000015"><a xlink:title=" ">
<path fill="none" stroke="#63b8ff" d="M538.57,-304.58C645.12,-302.13 869.14,-293.26 1055.4,-261 1165.25,-241.98 1191.9,-231.04 1297.4,-195 1357.93,-174.32 1378.3,-177.11 1430.4,-140 1452.96,-123.93 1473.15,-98.77 1485.09,-82.21"/>
<polygon fill="#63b8ff" stroke="#63b8ff" points="1487.96,-84.2 1490.83,-74 1482.23,-80.19 1487.96,-84.2"/>
</a>
</g>
</g>
<!-- Node25 -->
<g id="Node000025" class="node">
<title>Node25</title>
<g id="a_Node000025"><a xlink:href="geometry_8h.html" target="_top" xlink:title=" ">
<polygon fill="white" stroke="#666666" points="458.9,-134.5 337.9,-134.5 337.9,-115.5 458.9,-115.5 458.9,-134.5"/>
<text text-anchor="middle" x="398.4" y="-122.5" font-family="Helvetica,sans-Serif" font-size="10.00">webcface/geometry.h</text>
</a>
</g>
</g>
<!-- Node2&#45;&gt;Node25 -->
<g id="edge42_Node000002_Node000025" class="edge">
<title>Node2&#45;&gt;Node25</title>
<g id="a_edge42_Node000002_Node000025"><a xlink:title=" ">
<path fill="none" stroke="#63b8ff" d="M472.26,-296.98C463.34,-278.54 441.79,-233.49 425.4,-195 418.09,-177.84 410.39,-157.97 405.1,-143.98"/>
<polygon fill="#63b8ff" stroke="#63b8ff" points="408.36,-142.69 401.56,-134.56 401.8,-145.16 408.36,-142.69"/>
</a>
</g>
</g>
<!-- Node27 -->
<g id="Node000027" class="node">
<title>Node27</title>
<g id="a_Node000027"><a xlink:href="transform_8h.html" target="_top" xlink:title=" ">
<polygon fill="white" stroke="#666666" points="344.9,-195 221.9,-195 221.9,-176 344.9,-176 344.9,-195"/>
<text text-anchor="middle" x="283.4" y="-183" font-family="Helvetica,sans-Serif" font-size="10.00">webcface/transform.h</text>
</a>
</g>
</g>
<!-- Node2&#45;&gt;Node27 -->
<g id="edge46_Node000002_Node000027" class="edge">
<title>Node2&#45;&gt;Node27</title>
<g id="a_edge46_Node000002_Node000027"><a xlink:title=" ">
<path fill="none" stroke="#63b8ff" d="M456.34,-296.92C437.54,-288.6 408.89,-275.17 385.4,-261 354.81,-242.55 321.85,-217.41 301.92,-201.57"/>
<polygon fill="#63b8ff" stroke="#63b8ff" points="303.97,-198.73 293.98,-195.2 299.59,-204.19 303.97,-198.73"/>
</a>
</g>
</g>
<!-- Node4 -->
<g id="Node000004" class="node">
<title>Node4</title>
<g id="a_Node000004"><a xlink:title=" ">
<polygon fill="#e0e0e0" stroke="#999999" points="697.9,-134.5 632.9,-134.5 632.9,-115.5 697.9,-115.5 697.9,-134.5"/>
<text text-anchor="middle" x="665.4" y="-122.5" font-family="Helvetica,sans-Serif" font-size="10.00">functional</text>
</a>
</g>
</g>
<!-- Node3&#45;&gt;Node4 -->
<g id="edge3_Node000003_Node000004" class="edge">
<title>Node3&#45;&gt;Node4</title>
<g id="a_edge3_Node000003_Node000004"><a xlink:title=" ">
<path fill="none" stroke="#63b8ff" d="M607.9,-230.97C618.93,-221.78 632.48,-208.92 641.4,-195 651.43,-179.34 657.85,-158.99 661.49,-144.45"/>
<polygon fill="#63b8ff" stroke="#63b8ff" points="664.92,-145.17 663.76,-134.64 658.1,-143.6 664.92,-145.17"/>
</a>
</g>
</g>
<!-- Node5 -->
<g id="Node000005" class="node">
<title>Node5</title>
<g id="a_Node000005"><a xlink:title=" ">
<polygon fill="#e0e0e0" stroke="#999999" points="571.4,-134.5 515.4,-134.5 515.4,-115.5 571.4,-115.5 571.4,-134.5"/>
<text text-anchor="middle" x="543.4" y="-122.5" font-family="Helvetica,sans-Serif" font-size="10.00">optional</text>
</a>
</g>
</g>
<!-- Node3&#45;&gt;Node5 -->
<g id="edge4_Node000003_Node000005" class="edge">
<title>Node3&#45;&gt;Node5</title>
<g id="a_edge4_Node000003_Node000005"><a xlink:title=" ">
<path fill="none" stroke="#63b8ff" d="M541.3,-230.8C524.03,-223.12 506.37,-211.68 496.4,-195 484.9,-175.76 504.45,-154.57 521.74,-140.82"/>
<polygon fill="#63b8ff" stroke="#63b8ff" points="523.99,-143.51 529.89,-134.71 519.79,-137.91 523.99,-143.51"/>
</a>
</g>
</g>
<!-- Node6 -->
<g id="Node000006" class="node">
<title>Node6</title>
<g id="a_Node000006"><a xlink:title=" ">
<polygon fill="#e0e0e0" stroke="#999999" points="598.9,-195 505.9,-195 505.9,-176 598.9,-176 598.9,-195"/>
<text text-anchor="middle" x="552.4" y="-183" font-family="Helvetica,sans-Serif" font-size="10.00">unordered_map</text>
</a>
</g>
</g>
<!-- Node3&#45;&gt;Node6 -->
<g id="edge5_Node000003_Node000006" class="edge">
<title>Node3&#45;&gt;Node6</title>
<g id="a_edge5_Node000003_Node000006"><a xlink:title=" ">
<path fill="none" stroke="#63b8ff" d="M580.44,-230.84C575.29,-222.69 568.78,-212.4 563.33,-203.78"/>
<polygon fill="#63b8ff" stroke="#63b8ff" points="566.25,-201.85 557.94,-195.27 560.33,-205.59 566.25,-201.85"/>
</a>
</g>
</g>
<!-- Node7 -->
<g id="Node000007" class="node">
<title>Node7</title>
<g id="a_Node000007"><a xlink:title=" ">
<polygon fill="#e0e0e0" stroke="#999999" points="562.9,-74 515.9,-74 515.9,-55 562.9,-55 562.9,-74"/>
<text text-anchor="middle" x="539.4" y="-62" font-family="Helvetica,sans-Serif" font-size="10.00">vector</text>
</a>
</g>
</g>
<!-- Node3&#45;&gt;Node7 -->
<g id="edge6_Node000003_Node000007" class="edge">
<title>Node3&#45;&gt;Node7</title>
<g id="a_edge6_Node000003_Node000007"><a xlink:title=" ">
<path fill="none" stroke="#63b8ff" d="M596.95,-230.84C603.43,-216.98 611.17,-195.19 607.4,-176 601.28,-144.9 597.41,-136.74 580.4,-110 573.8,-99.63 564.67,-89.44 556.7,-81.44"/>
<polygon fill="#63b8ff" stroke="#63b8ff" points="558.88,-78.67 549.25,-74.24 554.01,-83.7 558.88,-78.67"/>
</a>
</g>
</g>
<!-- Node3&#45;&gt;Node8 -->
<g id="edge7_Node000003_Node000008" class="edge">
<title>Node3&#45;&gt;Node8</title>
<g id="a_edge7_Node000003_Node000008"><a xlink:title=" ">
<path fill="none" stroke="#63b8ff" d="M536.2,-230.99C518.15,-223.42 499.91,-212.01 489.4,-195 479.15,-178.42 452.42,-119.61 506.4,-55 524.29,-33.59 552.7,-22.41 578.86,-16.6"/>
<polygon fill="#63b8ff" stroke="#63b8ff" points="579.63,-20.02 588.75,-14.63 578.26,-13.15 579.63,-20.02"/>
</a>
</g>
</g>
<!-- Node9 -->
<g id="Node000009" class="node">
<title>Node9</title>
<g id="a_Node000009"><a xlink:href="common_2val__adaptor_8h.html" target="_top" xlink:title=" ">
<polygon fill="white" stroke="#666666" points="1150.9,-140 1023.9,-140 1023.9,-110 1150.9,-110 1150.9,-140"/>
<text text-anchor="start" x="1031.9" y="-128" font-family="Helvetica,sans-Serif" font-size="10.00">webcface/common/val</text>
<text text-anchor="middle" x="1087.4" y="-117" font-family="Helvetica,sans-Serif" font-size="10.00">_adaptor.h</text>
</a>
</g>
</g>
<!-- Node3&#45;&gt;Node9 -->
<g id="edge8_Node000003_Node000009" class="edge">
<title>Node3&#45;&gt;Node9</title>
<g id="a_edge8_Node000003_Node000009"><a xlink:title=" ">
<path fill="none" stroke="#63b8ff" d="M647.99,-231C740.59,-208.87 920.32,-165.93 1018.79,-142.39"/>
<polygon fill="#63b8ff" stroke="#63b8ff" points="1019.73,-145.77 1028.65,-140.04 1018.11,-138.96 1019.73,-145.77"/>
</a>
</g>
</g>
<!-- Node20 -->
<g id="Node000020" class="node">
<title>Node20</title>
<g id="a_Node000020"><a xlink:href="client_2include_2webcface_2text_8h.html" target="_top" xlink:title=" ">
<polygon fill="white" stroke="#666666" points="788.9,-195 693.9,-195 693.9,-176 788.9,-176 788.9,-195"/>
<text text-anchor="middle" x="741.4" y="-183" font-family="Helvetica,sans-Serif" font-size="10.00">webcface/text.h</text>
</a>
</g>
</g>
<!-- Node3&#45;&gt;Node20 -->
<g id="edge23_Node000003_Node000020" class="edge">
<title>Node3&#45;&gt;Node20</title>
<g id="a_edge23_Node000003_Node000020"><a xlink:title=" ">
<path fill="none" stroke="#63b8ff" d="M625.81,-230.99C651.28,-221.18 684.99,-208.21 709.42,-198.81"/>
<polygon fill="#63b8ff" stroke="#63b8ff" points="710.88,-202 718.95,-195.14 708.36,-195.46 710.88,-202"/>
</a>
</g>
</g>
<!-- Node9&#45;&gt;Node7 -->
<g id="edge10_Node000009_Node000007" class="edge">
<title>Node9&#45;&gt;Node7</title>
<g id="a_edge10_Node000009_Node000007"><a xlink:title=" ">
<path fill="none" stroke="#63b8ff" d="M1023.79,-118.42C902.4,-107.7 644.1,-84.46 573.12,-73.89"/>
<polygon fill="#63b8ff" stroke="#63b8ff" points="573.5,-70.41 563.07,-72.25 572.37,-77.31 573.5,-70.41"/>
</a>
</g>
</g>
<!-- Node9&#45;&gt;Node8 -->
<g id="edge22_Node000009_Node000008" class="edge">
<title>Node9&#45;&gt;Node8</title>
<g id="a_edge22_Node000009_Node000008"><a xlink:title=" ">
<path fill="none" stroke="#63b8ff" d="M1077.27,-109.84C1064.76,-93.56 1041.86,-67.5 1015.4,-55 961.69,-29.63 795.83,-17.86 704.07,-13.16"/>
<polygon fill="#63b8ff" stroke="#63b8ff" points="704.23,-9.66 694.07,-12.66 703.88,-16.65 704.23,-9.66"/>
</a>
</g>
</g>
<!-- Node10 -->
<g id="Node000010" class="node">
<title>Node10</title>
<g id="a_Node000010"><a xlink:title=" ">
<polygon fill="#e0e0e0" stroke="#999999" points="851.4,-19 807.4,-19 807.4,0 851.4,0 851.4,-19"/>
<text text-anchor="middle" x="829.4" y="-7" font-family="Helvetica,sans-Serif" font-size="10.00">string</text>
</a>
</g>
</g>
<!-- Node9&#45;&gt;Node10 -->
<g id="edge9_Node000009_Node000010" class="edge">
<title>Node9&#45;&gt;Node10</title>
<g id="a_edge9_Node000009_Node000010"><a xlink:title=" ">
<path fill="none" stroke="#63b8ff" d="M1150.99,-117.8C1209.91,-109.66 1283.79,-91.82 1250.4,-55 1222.8,-24.57 923.15,-24.26 882.4,-19 875.73,-18.14 868.6,-17.09 861.81,-16.02"/>
<polygon fill="#63b8ff" stroke="#63b8ff" points="861.96,-12.5 851.53,-14.36 860.85,-19.41 861.96,-12.5"/>
</a>
</g>
</g>
<!-- Node11 -->
<g id="Node000011" class="node">
<title>Node11</title>
<g id="a_Node000011"><a xlink:title=" ">
<polygon fill="#e0e0e0" stroke="#999999" points="1240.9,-74 1199.9,-74 1199.9,-55 1240.9,-55 1240.9,-74"/>
<text text-anchor="middle" x="1220.4" y="-62" font-family="Helvetica,sans-Serif" font-size="10.00">tuple</text>
</a>
</g>
</g>
<!-- Node9&#45;&gt;Node11 -->
<g id="edge11_Node000009_Node000011" class="edge">
<title>Node9&#45;&gt;Node11</title>
<g id="a_edge11_Node000009_Node000011"><a xlink:title=" ">
<path fill="none" stroke="#63b8ff" d="M1119.26,-109.99C1141.25,-100.31 1170.25,-87.56 1191.56,-78.18"/>
<polygon fill="#63b8ff" stroke="#63b8ff" points="1193.01,-81.37 1200.76,-74.14 1190.19,-74.96 1193.01,-81.37"/>
</a>
</g>
</g>
<!-- Node12 -->
<g id="Node000012" class="node">
<title>Node12</title>
<g id="a_Node000012"><a xlink:title=" ">
<polygon fill="#e0e0e0" stroke="#999999" points="1112.4,-74 1062.4,-74 1062.4,-55 1112.4,-55 1112.4,-74"/>
<text text-anchor="middle" x="1087.4" y="-62" font-family="Helvetica,sans-Serif" font-size="10.00">cstdint</text>
</a>
</g>
</g>
<!-- Node9&#45;&gt;Node12 -->
<g id="edge12_Node000009_Node000012" class="edge">
<title>Node9&#45;&gt;Node12</title>
<g id="a_edge12_Node000009_Node000012"><a xlink:title=" ">
<path fill="none" stroke="#63b8ff" d="M1087.4,-109.84C1087.4,-102.21 1087.4,-92.7 1087.4,-84.45"/>
<polygon fill="#63b8ff" stroke="#63b8ff" points="1090.9,-84.27 1087.4,-74.27 1083.9,-84.27 1090.9,-84.27"/>
</a>
</g>
</g>
<!-- Node13 -->
<g id="Node000013" class="node">
<title>Node13</title>
<g id="a_Node000013"><a xlink:title=" ">
<polygon fill="#e0e0e0" stroke="#999999" points="1005.9,-74 948.9,-74 948.9,-55 1005.9,-55 1005.9,-74"/>
<text text-anchor="middle" x="977.4" y="-62" font-family="Helvetica,sans-Serif" font-size="10.00">ostream</text>
</a>
</g>
</g>
<!-- Node9&#45;&gt;Node13 -->
<g id="edge13_Node000009_Node000013" class="edge">
<title>Node9&#45;&gt;Node13</title>
<g id="a_edge13_Node000009_Node000013"><a xlink:title=" ">
<path fill="none" stroke="#63b8ff" d="M1061.05,-109.99C1043.35,-100.58 1020.17,-88.24 1002.69,-78.95"/>
<polygon fill="#63b8ff" stroke="#63b8ff" points="1004.12,-75.74 993.64,-74.14 1000.83,-81.92 1004.12,-75.74"/>
</a>
</g>
</g>
<!-- Node14 -->
<g id="Node000014" class="node">
<title>Node14</title>
<g id="a_Node000014"><a xlink:title=" ">
<polygon fill="#e0e0e0" stroke="#999999" points="1181.9,-74 1130.9,-74 1130.9,-55 1181.9,-55 1181.9,-74"/>
<text text-anchor="middle" x="1156.4" y="-62" font-family="Helvetica,sans-Serif" font-size="10.00">variant</text>
</a>
</g>
</g>
<!-- Node9&#45;&gt;Node14 -->
<g id="edge14_Node000009_Node000014" class="edge">
<title>Node9&#45;&gt;Node14</title>
<g id="a_edge14_Node000009_Node000014"><a xlink:title=" ">
<path fill="none" stroke="#63b8ff" d="M1104.1,-109.84C1114.42,-101.09 1127.67,-89.85 1138.25,-80.88"/>
<polygon fill="#63b8ff" stroke="#63b8ff" points="1140.7,-83.4 1146.06,-74.27 1136.17,-78.06 1140.7,-83.4"/>
</a>
</g>
</g>
<!-- Node9&#45;&gt;Node15 -->
<g id="edge15_Node000009_Node000015" class="edge">
<title>Node9&#45;&gt;Node15</title>
<g id="a_edge15_Node000009_Node000015"><a xlink:title=" ">
<path fill="none" stroke="#63b8ff" d="M1151.19,-116.34C1222.03,-107.58 1340,-92.29 1451.31,-74.1"/>
<polygon fill="#63b8ff" stroke="#63b8ff" points="1452.07,-77.52 1461.37,-72.45 1450.93,-70.62 1452.07,-77.52"/>
</a>
</g>
</g>
<!-- Node15&#45;&gt;Node8 -->
<g id="edge21_Node000015_Node000008" class="edge">
<title>Node15&#45;&gt;Node8</title>
<g id="a_edge21_Node000015_Node000008"><a xlink:title=" ">
<path fill="none" stroke="#63b8ff" d="M1460.92,-56.22C1458.05,-55.76 1455.18,-55.34 1452.4,-55 1447.76,-54.43 893.48,-24.22 704.03,-13.91"/>
<polygon fill="#63b8ff" stroke="#63b8ff" points="704.13,-10.41 693.95,-13.36 703.75,-17.4 704.13,-10.41"/>
</a>
</g>
</g>
<!-- Node15&#45;&gt;Node10 -->
<g id="edge18_Node000015_Node000010" class="edge">
<title>Node15&#45;&gt;Node10</title>
<g id="a_edge18_Node000015_Node000010"><a xlink:title=" ">
<path fill="none" stroke="#63b8ff" d="M1460.92,-56.24C1458.04,-55.78 1455.18,-55.35 1452.4,-55 1200.6,-22.86 1134.67,-47.13 882.4,-19 875.71,-18.25 868.58,-17.25 861.79,-16.2"/>
<polygon fill="#63b8ff" stroke="#63b8ff" points="861.94,-12.68 851.51,-14.53 860.82,-19.59 861.94,-12.68"/>
</a>
</g>
</g>
<!-- Node16 -->
<g id="Node000016" class="node">
<title>Node16</title>
<g id="a_Node000016"><a xlink:title=" ">
<polygon fill="#e0e0e0" stroke="#999999" points="1541.4,-19 1503.4,-19 1503.4,0 1541.4,0 1541.4,-19"/>
<text text-anchor="middle" x="1522.4" y="-7" font-family="Helvetica,sans-Serif" font-size="10.00">map</text>
</a>
</g>
</g>
<!-- Node15&#45;&gt;Node16 -->
<g id="edge16_Node000015_Node000016" class="edge">
<title>Node15&#45;&gt;Node16</title>
<g id="a_edge16_Node000015_Node000016"><a xlink:title=" ">
<path fill="none" stroke="#63b8ff" d="M1500.69,-54.75C1504.21,-47.57 1509.31,-37.18 1513.68,-28.27"/>
<polygon fill="#63b8ff" stroke="#63b8ff" points="1516.92,-29.61 1518.19,-19.09 1510.64,-26.53 1516.92,-29.61"/>
</a>
</g>
</g>
<!-- Node17 -->
<g id="Node000017" class="node">
<title>Node17</title>
<g id="a_Node000017"><a xlink:title=" ">
<polygon fill="#e0e0e0" stroke="#999999" points="1485.4,-19 1453.4,-19 1453.4,0 1485.4,0 1485.4,-19"/>
<text text-anchor="middle" x="1469.4" y="-7" font-family="Helvetica,sans-Serif" font-size="10.00">set</text>
</a>
</g>
</g>
<!-- Node15&#45;&gt;Node17 -->
<g id="edge17_Node000015_Node000017" class="edge">
<title>Node15&#45;&gt;Node17</title>
<g id="a_edge17_Node000015_Node000017"><a xlink:title=" ">
<path fill="none" stroke="#63b8ff" d="M1491.94,-54.75C1488.28,-47.57 1482.99,-37.18 1478.45,-28.27"/>
<polygon fill="#63b8ff" stroke="#63b8ff" points="1481.43,-26.41 1473.77,-19.09 1475.2,-29.59 1481.43,-26.41"/>
</a>
</g>
</g>
<!-- Node18 -->
<g id="Node000018" class="node">
<title>Node18</title>
<g id="a_Node000018"><a xlink:title=" ">
<polygon fill="#e0e0e0" stroke="#999999" points="1250.9,-19 1177.9,-19 1177.9,0 1250.9,0 1250.9,-19"/>
<text text-anchor="middle" x="1214.4" y="-7" font-family="Helvetica,sans-Serif" font-size="10.00">string_view</text>
</a>
</g>
</g>
<!-- Node15&#45;&gt;Node18 -->
<g id="edge19_Node000015_Node000018" class="edge">
<title>Node15&#45;&gt;Node18</title>
<g id="a_edge19_Node000015_Node000018"><a xlink:title=" ">
<path fill="none" stroke="#63b8ff" d="M1461.34,-56.71C1458.32,-56.13 1455.3,-55.55 1452.4,-55 1386.03,-42.39 1309.2,-28.07 1261.19,-19.16"/>
<polygon fill="#63b8ff" stroke="#63b8ff" points="1261.58,-15.68 1251.11,-17.29 1260.3,-22.56 1261.58,-15.68"/>
</a>
</g>
</g>
<!-- Node19 -->
<g id="Node000019" class="node">
<title>Node19</title>
<g id="a_Node000019"><a xlink:title=" ">
<polygon fill="#e0e0e0" stroke="#999999" points="949.4,-19 891.4,-19 891.4,0 949.4,0 949.4,-19"/>
<text text-anchor="middle" x="920.4" y="-7" font-family="Helvetica,sans-Serif" font-size="10.00">memory</text>
</a>
</g>
</g>
<!-- Node15&#45;&gt;Node19 -->
<g id="edge20_Node000015_Node000019" class="edge">
<title>Node15&#45;&gt;Node19</title>
<g id="a_edge20_Node000015_Node000019"><a xlink:title=" ">
<path fill="none" stroke="#63b8ff" d="M1461.39,-56.39C1458.36,-55.88 1455.33,-55.4 1452.4,-55 1269.11,-29.7 1048.16,-16.8 959.76,-12.34"/>
<polygon fill="#63b8ff" stroke="#63b8ff" points="959.8,-8.84 949.64,-11.84 959.46,-15.83 959.8,-8.84"/>
</a>
</g>
</g>
<!-- Node20&#45;&gt;Node4 -->
<g id="edge24_Node000020_Node000004" class="edge">
<title>Node20&#45;&gt;Node4</title>
<g id="a_edge24_Node000020_Node000004"><a xlink:title=" ">
<path fill="none" stroke="#63b8ff" d="M730.18,-175.87C718.29,-166.71 699.26,-152.06 684.89,-141.01"/>
<polygon fill="#63b8ff" stroke="#63b8ff" points="686.72,-137.99 676.66,-134.67 682.45,-143.54 686.72,-137.99"/>
</a>
</g>
</g>
<!-- Node20&#45;&gt;Node5 -->
<g id="edge26_Node000020_Node000005" class="edge">
<title>Node20&#45;&gt;Node5</title>
<g id="a_edge26_Node000020_Node000005"><a xlink:title=" ">
<path fill="none" stroke="#63b8ff" d="M712.61,-175.99C677.95,-165.75 619.64,-148.53 581.34,-137.21"/>
<polygon fill="#63b8ff" stroke="#63b8ff" points="582.17,-133.8 571.58,-134.33 580.18,-140.52 582.17,-133.8"/>
</a>
</g>
</g>
<!-- Node20&#45;&gt;Node8 -->
<g id="edge39_Node000020_Node000008" class="edge">
<title>Node20&#45;&gt;Node8</title>
<g id="a_edge39_Node000020_Node000008"><a xlink:title=" ">
<path fill="none" stroke="#63b8ff" d="M741.46,-175.73C741.2,-153.45 737.8,-93.67 710.4,-55 700.82,-41.49 685.73,-31.07 672.09,-23.73"/>
<polygon fill="#63b8ff" stroke="#63b8ff" points="673.48,-20.51 662.97,-19.14 670.33,-26.76 673.48,-20.51"/>
</a>
</g>
</g>
<!-- Node20&#45;&gt;Node9 -->
<g id="edge40_Node000020_Node000009" class="edge">
<title>Node20&#45;&gt;Node9</title>
<g id="a_edge40_Node000020_Node000009"><a xlink:title=" ">
<path fill="none" stroke="#63b8ff" d="M789.15,-176.43C847.16,-166.62 945.67,-149.96 1013.51,-138.49"/>
<polygon fill="#63b8ff" stroke="#63b8ff" points="1014.43,-141.89 1023.71,-136.77 1013.26,-134.99 1014.43,-141.89"/>
</a>
</g>
</g>
<!-- Node20&#45;&gt;Node13 -->
<g id="edge25_Node000020_Node000013" class="edge">
<title>Node20&#45;&gt;Node13</title>
<g id="a_edge25_Node000020_Node000013"><a xlink:title=" ">
<path fill="none" stroke="#63b8ff" d="M789,-176.86C846.84,-167.2 938.28,-150.55 950.4,-140 966.5,-125.98 973,-101.58 975.63,-84.54"/>
<polygon fill="#63b8ff" stroke="#63b8ff" points="979.16,-84.48 976.89,-74.13 972.21,-83.64 979.16,-84.48"/>
</a>
</g>
</g>
<!-- Node20&#45;&gt;Node19 -->
<g id="edge28_Node000020_Node000019" class="edge">
<title>Node20&#45;&gt;Node19</title>
<g id="a_edge28_Node000020_Node000019"><a xlink:title=" ">
<path fill="none" stroke="#63b8ff" d="M787.01,-175.92C836.36,-166.19 909.17,-150.32 917.4,-140 942.78,-108.17 933.76,-56.59 926.31,-29.11"/>
<polygon fill="#63b8ff" stroke="#63b8ff" points="929.58,-27.85 923.41,-19.25 922.87,-29.83 929.58,-27.85"/>
</a>
</g>
</g>
<!-- Node21 -->
<g id="Node000021" class="node">
<title>Node21</title>
<g id="a_Node000021"><a xlink:title=" ">
<polygon fill="#e0e0e0" stroke="#999999" points="804.4,-134.5 754.4,-134.5 754.4,-115.5 804.4,-115.5 804.4,-134.5"/>
<text text-anchor="middle" x="779.4" y="-122.5" font-family="Helvetica,sans-Serif" font-size="10.00">chrono</text>
</a>
</g>
</g>
<!-- Node20&#45;&gt;Node21 -->
<g id="edge27_Node000020_Node000021" class="edge">
<title>Node20&#45;&gt;Node21</title>
<g id="a_edge27_Node000020_Node000021"><a xlink:title=" ">
<path fill="none" stroke="#63b8ff" d="M747.01,-175.87C752.56,-167.31 761.23,-153.97 768.2,-143.24"/>
<polygon fill="#63b8ff" stroke="#63b8ff" points="771.26,-144.96 773.77,-134.67 765.39,-141.15 771.26,-144.96"/>
</a>
</g>
</g>
<!-- Node22 -->
<g id="Node000022" class="node">
<title>Node22</title>
<g id="a_Node000022"><a xlink:href="field_8h.html" target="_top" xlink:title=" ">
<polygon fill="white" stroke="#666666" points="907.9,-134.5 860.9,-134.5 860.9,-115.5 907.9,-115.5 907.9,-134.5"/>
<text text-anchor="middle" x="884.4" y="-122.5" font-family="Helvetica,sans-Serif" font-size="10.00">field.h</text>
</a>
</g>
</g>
<!-- Node20&#45;&gt;Node22 -->
<g id="edge29_Node000020_Node000022" class="edge">
<title>Node20&#45;&gt;Node22</title>
<g id="a_edge29_Node000020_Node000022"><a xlink:title=" ">
<path fill="none" stroke="#63b8ff" d="M762.19,-175.99C786.34,-166.12 826.38,-149.73 854.01,-138.43"/>
<polygon fill="#63b8ff" stroke="#63b8ff" points="855.65,-141.54 863.58,-134.52 853,-135.06 855.65,-141.54"/>
</a>
</g>
</g>
<!-- Node22&#45;&gt;Node7 -->
<g id="edge33_Node000022_Node000007" class="edge">
<title>Node22&#45;&gt;Node7</title>
<g id="a_edge33_Node000022_Node000007"><a xlink:title=" ">
<path fill="none" stroke="#63b8ff" d="M863.75,-115.45C858.2,-113.41 852.13,-111.41 846.4,-110 729.87,-81.29 694.2,-96.99 573.11,-74.1"/>
<polygon fill="#63b8ff" stroke="#63b8ff" points="573.57,-70.63 563.08,-72.16 572.24,-77.5 573.57,-70.63"/>
</a>
</g>
</g>
<!-- Node22&#45;&gt;Node8 -->
<g id="edge34_Node000022_Node000008" class="edge">
<title>Node22&#45;&gt;Node8</title>
<g id="a_edge34_Node000022_Node000008"><a xlink:title=" ">
<path fill="none" stroke="#63b8ff" d="M867.72,-115.44C841.61,-102.12 789.41,-75.8 744.4,-55 720.09,-43.76 692.18,-31.76 671.55,-23.06"/>
<polygon fill="#63b8ff" stroke="#63b8ff" points="672.63,-19.71 662.05,-19.06 669.92,-26.17 672.63,-19.71"/>
</a>
</g>
</g>
<!-- Node22&#45;&gt;Node10 -->
<g id="edge31_Node000022_Node000010" class="edge">
<title>Node22&#45;&gt;Node10</title>
<g id="a_edge31_Node000022_Node000010"><a xlink:title=" ">
<path fill="none" stroke="#63b8ff" d="M880.27,-115.47C871.31,-96.98 849.95,-52.9 837.95,-28.14"/>
<polygon fill="#63b8ff" stroke="#63b8ff" points="841.09,-26.6 833.58,-19.13 834.79,-29.66 841.09,-26.6"/>
</a>
</g>
</g>
<!-- Node22&#45;&gt;Node15 -->
<g id="edge35_Node000022_Node000015" class="edge">
<title>Node22&#45;&gt;Node15</title>
<g id="a_edge35_Node000022_Node000015"><a xlink:title=" ">
<path fill="none" stroke="#63b8ff" d="M908.05,-121.3C934.27,-118.34 977.83,-113.55 1015.4,-110 1206.19,-91.95 1257.63,-100.23 1451.45,-73.98"/>
<polygon fill="#63b8ff" stroke="#63b8ff" points="1451.96,-77.44 1461.39,-72.62 1451.01,-70.51 1451.96,-77.44"/>
</a>
</g>
</g>
<!-- Node22&#45;&gt;Node18 -->
<g id="edge32_Node000022_Node000018" class="edge">
<title>Node22&#45;&gt;Node18</title>
<g id="a_edge32_Node000022_Node000018"><a xlink:title=" ">
<path fill="none" stroke="#63b8ff" d="M888.84,-115.06C896.86,-99.94 915.3,-69.54 940.4,-55 978.23,-33.09 1100.07,-19.88 1167.83,-14.05"/>
<polygon fill="#63b8ff" stroke="#63b8ff" points="1168.15,-17.53 1177.82,-13.21 1167.57,-10.56 1168.15,-17.53"/>
</a>
</g>
</g>
<!-- Node22&#45;&gt;Node19 -->
<g id="edge30_Node000022_Node000019" class="edge">
<title>Node22&#45;&gt;Node19</title>
<g id="a_edge30_Node000022_Node000019"><a xlink:title=" ">
<path fill="none" stroke="#63b8ff" d="M878.81,-115.13C871.07,-101.63 859.04,-75.33 868.4,-55 874.14,-42.52 885.31,-32.24 895.82,-24.71"/>
<polygon fill="#63b8ff" stroke="#63b8ff" points="897.97,-27.49 904.37,-19.05 894.1,-21.65 897.97,-27.49"/>
</a>
</g>
</g>
<!-- Node23 -->
<g id="Node000023" class="node">
<title>Node23</title>
<g id="a_Node000023"><a xlink:href="complete_8h.html" target="_top" xlink:title=" ">
<polygon fill="white" stroke="#666666" points="701.9,-74 580.9,-74 580.9,-55 701.9,-55 701.9,-74"/>
<text text-anchor="middle" x="641.4" y="-62" font-family="Helvetica,sans-Serif" font-size="10.00">webcface/complete.h</text>
</a>
</g>
</g>
<!-- Node22&#45;&gt;Node23 -->
<g id="edge36_Node000022_Node000023" class="edge">
<title>Node22&#45;&gt;Node23</title>
<g id="a_edge36_Node000022_Node000023"><a xlink:title=" ">
<path fill="none" stroke="#63b8ff" d="M862.87,-115.48C857.54,-113.53 851.8,-111.57 846.4,-110 797.62,-95.8 741.13,-83.86 699.82,-75.93"/>
<polygon fill="#63b8ff" stroke="#63b8ff" points="700.4,-72.48 689.92,-74.06 699.09,-79.36 700.4,-72.48"/>
</a>
</g>
</g>
<!-- Node23&#45;&gt;Node8 -->
<g id="edge38_Node000023_Node000008" class="edge">
<title>Node23&#45;&gt;Node8</title>
<g id="a_edge38_Node000023_Node000008"><a xlink:title=" ">
<path fill="none" stroke="#63b8ff" d="M641.4,-54.75C641.4,-47.8 641.4,-37.85 641.4,-29.13"/>
<polygon fill="#63b8ff" stroke="#63b8ff" points="644.9,-29.09 641.4,-19.09 637.9,-29.09 644.9,-29.09"/>
</a>
</g>
</g>
<!-- Node24 -->
<g id="Node000024" class="node">
<title>Node24</title>
<g id="a_Node000024"><a xlink:title=" ">
<polygon fill="#e0e0e0" stroke="#999999" points="324.9,-19 271.9,-19 271.9,0 324.9,0 324.9,-19"/>
<text text-anchor="middle" x="298.4" y="-7" font-family="Helvetica,sans-Serif" font-size="10.00">cstddef</text>
</a>
</g>
</g>
<!-- Node23&#45;&gt;Node24 -->
<g id="edge37_Node000023_Node000024" class="edge">
<title>Node23&#45;&gt;Node24</title>
<g id="a_edge37_Node000023_Node000024"><a xlink:title=" ">
<path fill="none" stroke="#63b8ff" d="M586.29,-54.98C515.73,-44.08 395.38,-25.49 335.1,-16.17"/>
<polygon fill="#63b8ff" stroke="#63b8ff" points="335.33,-12.66 324.91,-14.6 334.26,-19.58 335.33,-12.66"/>
</a>
</g>
</g>
<!-- Node25&#45;&gt;Node7 -->
<g id="edge44_Node000025_Node000007" class="edge">
<title>Node25&#45;&gt;Node7</title>
<g id="a_edge44_Node000025_Node000007"><a xlink:title=" ">
<path fill="none" stroke="#63b8ff" d="M418.9,-115.49C442.71,-105.62 482.19,-89.23 509.44,-77.93"/>
<polygon fill="#63b8ff" stroke="#63b8ff" points="510.98,-81.08 518.87,-74.02 508.29,-74.62 510.98,-81.08"/>
</a>
</g>
</g>
<!-- Node25&#45;&gt;Node8 -->
<g id="edge43_Node000025_Node000008" class="edge">
<title>Node25&#45;&gt;Node8</title>
<g id="a_edge43_Node000025_Node000008"><a xlink:title=" ">
<path fill="none" stroke="#63b8ff" d="M405.29,-115.36C417.45,-100.7 444.23,-70.99 473.4,-55 505.89,-37.19 545.87,-26.23 578.67,-19.64"/>
<polygon fill="#63b8ff" stroke="#63b8ff" points="579.44,-23.06 588.6,-17.74 578.12,-16.18 579.44,-23.06"/>
</a>
</g>
</g>
<!-- Node26 -->
<g id="Node000026" class="node">
<title>Node26</title>
<g id="a_Node000026"><a xlink:title=" ">
<polygon fill="#e0e0e0" stroke="#999999" points="420.9,-74 351.9,-74 351.9,-55 420.9,-55 420.9,-74"/>
<text text-anchor="middle" x="386.4" y="-62" font-family="Helvetica,sans-Serif" font-size="10.00">type_traits</text>
</a>
</g>
</g>
<!-- Node25&#45;&gt;Node26 -->
<g id="edge45_Node000025_Node000026" class="edge">
<title>Node25&#45;&gt;Node26</title>
<g id="a_edge45_Node000025_Node000026"><a xlink:title=" ">
<path fill="none" stroke="#63b8ff" d="M396.63,-115.37C394.94,-107.16 392.36,-94.54 390.2,-84.05"/>
<polygon fill="#63b8ff" stroke="#63b8ff" points="393.62,-83.26 388.18,-74.17 386.76,-84.67 393.62,-83.26"/>
</a>
</g>
</g>
<!-- Node27&#45;&gt;Node5 -->
<g id="edge59_Node000027_Node000005" class="edge">
<title>Node27&#45;&gt;Node5</title>
<g id="a_edge59_Node000027_Node000005"><a xlink:title=" ">
<path fill="none" stroke="#63b8ff" d="M321.21,-175.99C370.38,-164.93 455.82,-145.71 505.19,-134.6"/>
<polygon fill="#63b8ff" stroke="#63b8ff" points="506.17,-137.96 515.16,-132.35 504.63,-131.14 506.17,-137.96"/>
</a>
</g>
</g>
<!-- Node27&#45;&gt;Node8 -->
<g id="edge47_Node000027_Node000008" class="edge">
<title>Node27&#45;&gt;Node8</title>
<g id="a_edge47_Node000027_Node000008"><a xlink:title=" ">
<path fill="none" stroke="#63b8ff" d="M228.95,-175.95C189.38,-168.5 140.7,-156.32 128.4,-140 104.92,-108.83 119.11,-78.31 150.4,-55 184.03,-29.94 453.95,-17.17 578.65,-12.56"/>
<polygon fill="#63b8ff" stroke="#63b8ff" points="578.95,-16.05 588.82,-12.19 578.69,-9.06 578.95,-16.05"/>
</a>
</g>
</g>
<!-- Node28 -->
<g id="Node000028" class="node">
<title>Node28</title>
<g id="a_Node000028"><a xlink:href="array__like_8h.html" target="_top" xlink:title=" ">
<polygon fill="white" stroke="#666666" points="211.4,-134.5 137.4,-134.5 137.4,-115.5 211.4,-115.5 211.4,-134.5"/>
<text text-anchor="middle" x="174.4" y="-122.5" font-family="Helvetica,sans-Serif" font-size="10.00">array_like.h</text>
</a>
</g>
</g>
<!-- Node27&#45;&gt;Node28 -->
<g id="edge48_Node000027_Node000028" class="edge">
<title>Node27&#45;&gt;Node28</title>
<g id="a_edge48_Node000027_Node000028"><a xlink:title=" ">
<path fill="none" stroke="#63b8ff" d="M267.32,-175.87C249.44,-166.28 220.36,-150.67 199.49,-139.47"/>
<polygon fill="#63b8ff" stroke="#63b8ff" points="201.01,-136.31 190.55,-134.67 197.7,-142.48 201.01,-136.31"/>
</a>
</g>
</g>
<!-- Node30 -->
<g id="Node000030" class="node">
<title>Node30</title>
<g id="a_Node000030"><a xlink:title=" ">
<polygon fill="#e0e0e0" stroke="#999999" points="333.4,-74 291.4,-74 291.4,-55 333.4,-55 333.4,-74"/>
<text text-anchor="middle" x="312.4" y="-62" font-family="Helvetica,sans-Serif" font-size="10.00">array</text>
</a>
</g>
</g>
<!-- Node27&#45;&gt;Node30 -->
<g id="edge58_Node000027_Node000030" class="edge">
<title>Node27&#45;&gt;Node30</title>
<g id="a_edge58_Node000027_Node000030"><a xlink:title=" ">
<path fill="none" stroke="#63b8ff" d="M285.48,-175.94C290.14,-156.82 301.49,-110.27 307.86,-84.12"/>
<polygon fill="#63b8ff" stroke="#63b8ff" points="311.29,-84.85 310.25,-74.3 304.49,-83.19 311.29,-84.85"/>
</a>
</g>
</g>
<!-- Node32 -->
<g id="Node000032" class="node">
<title>Node32</title>
<g id="a_Node000032"><a xlink:title=" ">
<polygon fill="#e0e0e0" stroke="#999999" points="281.4,-134.5 229.4,-134.5 229.4,-115.5 281.4,-115.5 281.4,-134.5"/>
<text text-anchor="middle" x="255.4" y="-122.5" font-family="Helvetica,sans-Serif" font-size="10.00">cassert</text>
</a>
</g>
</g>
<!-- Node27&#45;&gt;Node32 -->
<g id="edge60_Node000027_Node000032" class="edge">
<title>Node27&#45;&gt;Node32</title>
<g id="a_edge60_Node000027_Node000032"><a xlink:title=" ">
<path fill="none" stroke="#63b8ff" d="M279.27,-175.87C275.26,-167.49 269.04,-154.51 263.96,-143.89"/>
<polygon fill="#63b8ff" stroke="#63b8ff" points="267.02,-142.18 259.55,-134.67 260.71,-145.2 267.02,-142.18"/>
</a>
</g>
</g>
<!-- Node28&#45;&gt;Node7 -->
<g id="edge50_Node000028_Node000007" class="edge">
<title>Node28&#45;&gt;Node7</title>
<g id="a_edge50_Node000028_Node000007"><a xlink:title=" ">
<path fill="none" stroke="#63b8ff" d="M200,-115.43C206.59,-113.44 213.71,-111.47 220.4,-110 322.96,-87.39 446.73,-74 505.39,-68.48"/>
<polygon fill="#63b8ff" stroke="#63b8ff" points="505.93,-71.94 515.56,-67.54 505.28,-64.97 505.93,-71.94"/>
</a>
</g>
</g>
<!-- Node28&#45;&gt;Node8 -->
<g id="edge57_Node000028_Node000008" class="edge">
<title>Node28&#45;&gt;Node8</title>
<g id="a_edge57_Node000028_Node000008"><a xlink:title=" ">
<path fill="none" stroke="#63b8ff" d="M168.4,-115.11C159.41,-100.61 145.08,-71.8 160.4,-55 188.05,-24.67 454.64,-14.71 578.6,-11.69"/>
<polygon fill="#63b8ff" stroke="#63b8ff" points="578.79,-15.19 588.71,-11.46 578.63,-8.19 578.79,-15.19"/>
</a>
</g>
</g>
<!-- Node28&#45;&gt;Node10 -->
<g id="edge53_Node000028_Node000010" class="edge">
<title>Node28&#45;&gt;Node10</title>
<g id="a_edge53_Node000028_Node000010"><a xlink:title=" ">
<path fill="none" stroke="#63b8ff" d="M186.37,-115.29C209.94,-98.33 261.84,-61.92 282.4,-55 306.89,-46.75 682.89,-20.51 796.89,-12.71"/>
<polygon fill="#63b8ff" stroke="#63b8ff" points="797.34,-16.19 807.08,-12.01 796.86,-9.2 797.34,-16.19"/>
</a>
</g>
</g>
<!-- Node28&#45;&gt;Node26 -->
<g id="edge52_Node000028_Node000026" class="edge">
<title>Node28&#45;&gt;Node26</title>
<g id="a_edge52_Node000028_Node000026"><a xlink:title=" ">
<path fill="none" stroke="#63b8ff" d="M202.08,-115.41C208.11,-113.59 214.46,-111.7 220.4,-110 261.99,-98.1 309.72,-85.4 343.3,-76.63"/>
<polygon fill="#63b8ff" stroke="#63b8ff" points="344.44,-79.95 353.24,-74.04 342.68,-73.18 344.44,-79.95"/>
</a>
</g>
</g>
<!-- Node29 -->
<g id="Node000029" class="node">
<title>Node29</title>
<g id="a_Node000029"><a xlink:title=" ">
<polygon fill="#e0e0e0" stroke="#999999" points="234.9,-74 169.9,-74 169.9,-55 234.9,-55 234.9,-74"/>
<text text-anchor="middle" x="202.4" y="-62" font-family="Helvetica,sans-Serif" font-size="10.00">stdexcept</text>
</a>
</g>
</g>
<!-- Node28&#45;&gt;Node29 -->
<g id="edge49_Node000028_Node000029" class="edge">
<title>Node28&#45;&gt;Node29</title>
<g id="a_edge49_Node000028_Node000029"><a xlink:title=" ">
<path fill="none" stroke="#63b8ff" d="M178.53,-115.37C182.54,-106.99 188.75,-94.01 193.83,-83.39"/>
<polygon fill="#63b8ff" stroke="#63b8ff" points="197.09,-84.7 198.25,-74.17 190.78,-81.68 197.09,-84.7"/>
</a>
</g>
</g>
<!-- Node28&#45;&gt;Node30 -->
<g id="edge51_Node000028_Node000030" class="edge">
<title>Node28&#45;&gt;Node30</title>
<g id="a_edge51_Node000028_Node000030"><a xlink:title=" ">
<path fill="none" stroke="#63b8ff" d="M194.47,-115.49C217.77,-105.62 256.41,-89.23 283.08,-77.93"/>
<polygon fill="#63b8ff" stroke="#63b8ff" points="284.47,-81.14 292.31,-74.02 281.74,-74.7 284.47,-81.14"/>
</a>
</g>
</g>
<!-- Node31 -->
<g id="Node000031" class="node">
<title>Node31</title>
<g id="a_Node000031"><a xlink:href="trait_8h.html" target="_top" xlink:title=" ">
<polygon fill="white" stroke="#666666" points="75.4,-74 29.4,-74 29.4,-55 75.4,-55 75.4,-74"/>
<text text-anchor="middle" x="52.4" y="-62" font-family="Helvetica,sans-Serif" font-size="10.00">trait.h</text>
</a>
</g>
</g>
<!-- Node28&#45;&gt;Node31 -->
<g id="edge54_Node000028_Node000031" class="edge">
<title>Node28&#45;&gt;Node31</title>
<g id="a_edge54_Node000028_Node000031"><a xlink:title=" ">
<path fill="none" stroke="#63b8ff" d="M156.66,-115.49C136.33,-105.75 102.79,-89.66 79.26,-78.38"/>
<polygon fill="#63b8ff" stroke="#63b8ff" points="80.69,-75.18 70.16,-74.02 77.66,-81.5 80.69,-75.18"/>
</a>
</g>
</g>
<!-- Node31&#45;&gt;Node8 -->
<g id="edge56_Node000031_Node000008" class="edge">
<title>Node31&#45;&gt;Node8</title>
<g id="a_edge56_Node000031_Node000008"><a xlink:title=" ">
<path fill="none" stroke="#63b8ff" d="M75.79,-57.59C80.28,-56.6 84.97,-55.68 89.4,-55 265.32,-27.85 475.5,-16.7 578.37,-12.6"/>
<polygon fill="#63b8ff" stroke="#63b8ff" points="578.73,-16.09 588.59,-12.2 578.46,-9.09 578.73,-16.09"/>
</a>
</g>
</g>
<!-- Node31&#45;&gt;Node24 -->
<g id="edge55_Node000031_Node000024" class="edge">
<title>Node31&#45;&gt;Node24</title>
<g id="a_edge55_Node000031_Node000024"><a xlink:title=" ">
<path fill="none" stroke="#63b8ff" d="M75.48,-58.14C80.09,-57.08 84.89,-56 89.4,-55 149.67,-41.66 219.89,-26.86 261.66,-18.14"/>
<polygon fill="#63b8ff" stroke="#63b8ff" points="262.57,-21.52 271.65,-16.05 261.14,-14.67 262.57,-21.52"/>
</a>
</g>
</g>
<!-- Node33&#45;&gt;Node2 -->
<g id="edge72_Node000033_Node000002" class="edge">
<title>Node33&#45;&gt;Node2</title>
<g id="a_edge72_Node000033_Node000002"><a xlink:title=" ">
<path fill="none" stroke="#63b8ff" d="M547.64,-351.84C532.8,-342.6 513.5,-330.59 498.74,-321.4"/>
<polygon fill="#63b8ff" stroke="#63b8ff" points="500.55,-318.41 490.21,-316.09 496.85,-324.35 500.55,-318.41"/>
</a>
</g>
</g>
<!-- Node34 -->
<g id="Node000034" class="node">
<title>Node34</title>
<g id="a_Node000034"><a xlink:href="common_2include_2webcface_2common_2internal_2message_2robot__model_8h.html" target="_top" xlink:title=" ">
<polygon fill="white" stroke="#666666" points="1045.9,-261 896.9,-261 896.9,-231 1045.9,-231 1045.9,-261"/>
<text text-anchor="start" x="904.9" y="-249" font-family="Helvetica,sans-Serif" font-size="10.00">webcface/common/internal</text>
<text text-anchor="middle" x="971.4" y="-238" font-family="Helvetica,sans-Serif" font-size="10.00">/message/robot_model.h</text>
</a>
</g>
</g>
<!-- Node33&#45;&gt;Node34 -->
<g id="edge63_Node000033_Node000034" class="edge">
<title>Node33&#45;&gt;Node34</title>
<g id="a_edge63_Node000033_Node000034"><a xlink:title=" ">
<path fill="none" stroke="#63b8ff" d="M617.58,-352C691.53,-330.05 834.53,-287.62 914.22,-263.97"/>
<polygon fill="#63b8ff" stroke="#63b8ff" points="915.5,-267.24 924.09,-261.04 913.51,-260.53 915.5,-267.24"/>
</a>
</g>
</g>
<!-- Node34&#45;&gt;Node7 -->
<g id="edge71_Node000034_Node000007" class="edge">
<title>Node34&#45;&gt;Node7</title>
<g id="a_edge71_Node000034_Node000007"><a xlink:title=" ">
<path fill="none" stroke="#63b8ff" d="M955.24,-230.78C916.67,-196.87 821.75,-113.8 813.4,-110 717.34,-66.25 680.09,-94.24 572.99,-74.07"/>
<polygon fill="#63b8ff" stroke="#63b8ff" points="573.58,-70.62 563.09,-72.11 572.22,-77.49 573.58,-70.62"/>
</a>
</g>
</g>
<!-- Node34&#45;&gt;Node15 -->
<g id="edge70_Node000034_Node000015" class="edge">
<title>Node34&#45;&gt;Node15</title>
<g id="a_edge70_Node000034_Node000015"><a xlink:title=" ">
<path fill="none" stroke="#63b8ff" d="M1046.25,-237.26C1133.87,-225.81 1281.37,-198.98 1394.4,-140 1426.41,-123.3 1459.43,-97.27 1478.93,-80.81"/>
<polygon fill="#63b8ff" stroke="#63b8ff" points="1481.33,-83.36 1486.65,-74.2 1476.78,-78.05 1481.33,-83.36"/>
</a>
</g>
</g>
<!-- Node35 -->
<g id="Node000035" class="node">
<title>Node35</title>
<g id="a_Node000035"><a xlink:href="base_8h.html" target="_top" xlink:title=" ">
<polygon fill="white" stroke="#666666" points="1224.9,-195 1169.9,-195 1169.9,-176 1224.9,-176 1224.9,-195"/>
<text text-anchor="middle" x="1197.4" y="-183" font-family="Helvetica,sans-Serif" font-size="10.00">./base.h</text>
</a>
</g>
</g>
<!-- Node34&#45;&gt;Node35 -->
<g id="edge64_Node000034_Node000035" class="edge">
<title>Node34&#45;&gt;Node35</title>
<g id="a_edge64_Node000034_Node000035"><a xlink:title=" ">
<path fill="none" stroke="#63b8ff" d="M1025.53,-230.99C1067.07,-220.24 1123.33,-205.67 1159.99,-196.18"/>
<polygon fill="#63b8ff" stroke="#63b8ff" points="1160.98,-199.54 1169.78,-193.65 1159.22,-192.77 1160.98,-199.54"/>
</a>
</g>
</g>
<!-- Node35&#45;&gt;Node8 -->
<g id="edge65_Node000035_Node000008" class="edge">
<title>Node35&#45;&gt;Node8</title>
<g id="a_edge65_Node000035_Node000008"><a xlink:title=" ">
<path fill="none" stroke="#63b8ff" d="M1206.57,-175.8C1229.39,-153.17 1284.47,-91.65 1250.4,-55 1241.17,-45.07 857.88,-22.6 704.19,-13.97"/>
<polygon fill="#63b8ff" stroke="#63b8ff" points="704.15,-10.46 693.97,-13.39 703.75,-17.45 704.15,-10.46"/>
</a>
</g>
</g>
<!-- Node35&#45;&gt;Node9 -->
<g id="edge69_Node000035_Node000009" class="edge">
<title>Node35&#45;&gt;Node9</title>
<g id="a_edge69_Node000035_Node000009"><a xlink:title=" ">
<path fill="none" stroke="#63b8ff" d="M1181.17,-175.87C1165.9,-167.75 1142.51,-155.31 1122.92,-144.89"/>
<polygon fill="#63b8ff" stroke="#63b8ff" points="1124.41,-141.72 1113.94,-140.11 1121.12,-147.9 1124.41,-141.72"/>
</a>
</g>
</g>
<!-- Node36 -->
<g id="Node000036" class="node">
<title>Node36</title>
<g id="a_Node000036"><a xlink:href="fmt_8h.html" target="_top" xlink:title=" ">
<polygon fill="white" stroke="#666666" points="1384.9,-134.5 1335.9,-134.5 1335.9,-115.5 1384.9,-115.5 1384.9,-134.5"/>
<text text-anchor="middle" x="1360.4" y="-122.5" font-family="Helvetica,sans-Serif" font-size="10.00">./fmt.h</text>
</a>
</g>
</g>
<!-- Node35&#45;&gt;Node36 -->
<g id="edge66_Node000035_Node000036" class="edge">
<title>Node35&#45;&gt;Node36</title>
<g id="a_edge66_Node000035_Node000036"><a xlink:title=" ">
<path fill="none" stroke="#63b8ff" d="M1221.1,-175.99C1248.99,-165.99 1295.47,-149.3 1327,-137.99"/>
<polygon fill="#63b8ff" stroke="#63b8ff" points="1328.44,-141.19 1336.67,-134.52 1326.07,-134.6 1328.44,-141.19"/>
</a>
</g>
</g>
<!-- Node36&#45;&gt;Node8 -->
<g id="edge67_Node000036_Node000008" class="edge">
<title>Node36&#45;&gt;Node8</title>
<g id="a_edge67_Node000036_Node000008"><a xlink:title=" ">
<path fill="none" stroke="#63b8ff" d="M1358.37,-115.38C1354.3,-100.18 1343.54,-68.91 1321.4,-55 1314.9,-50.92 871.54,-24.18 704.3,-14.23"/>
<polygon fill="#63b8ff" stroke="#63b8ff" points="704.36,-10.72 694.17,-13.62 703.94,-17.71 704.36,-10.72"/>
</a>
</g>
</g>
<!-- Node37 -->
<g id="Node000037" class="node">
<title>Node37</title>
<g id="a_Node000037"><a xlink:title=" ">
<polygon fill="#e0e0e0" stroke="#999999" points="1442.9,-74 1373.9,-74 1373.9,-55 1442.9,-55 1442.9,-74"/>
<text text-anchor="middle" x="1408.4" y="-62" font-family="Helvetica,sans-Serif" font-size="10.00">fmt/base.h</text>
</a>
</g>
</g>
<!-- Node36&#45;&gt;Node37 -->
<g id="edge68_Node000036_Node000037" class="edge">
<title>Node36&#45;&gt;Node37</title>
<g id="a_edge68_Node000036_Node000037"><a xlink:title=" ">
<path fill="none" stroke="#63b8ff" d="M1367.48,-115.37C1374.64,-106.64 1385.89,-92.93 1394.78,-82.09"/>
<polygon fill="#63b8ff" stroke="#63b8ff" points="1397.65,-84.12 1401.29,-74.17 1392.24,-79.68 1397.65,-84.12"/>
</a>
</g>
</g>
</g>
</svg>
