<?xml version="1.0" encoding="UTF-8" standalone="no"?>
<!DOCTYPE svg PUBLIC "-//W3C//DTD SVG 1.1//EN"
 "http://www.w3.org/Graphics/SVG/1.1/DTD/svg11.dtd">
<!-- Generated by graphviz version 2.43.0 (0)
 -->
<!-- Title: include/webcface/robot_model.h Pages: 1 -->
<svg width="1871pt" height="368pt"
 viewBox="0.00 0.00 1870.55 368.00" xmlns="http://www.w3.org/2000/svg" xmlns:xlink="http://www.w3.org/1999/xlink">
<g id="graph0" class="graph" transform="scale(1 1) rotate(0) translate(4 364)">
<title>include/webcface/robot_model.h</title>
<!-- Node1 -->
<g id="Node000001" class="node">
<title>Node1</title>
<g id="a_Node000001"><a xlink:title=" ">
<polygon fill="#999999" stroke="#666666" points="1659.55,-360 1529.55,-360 1529.55,-330 1659.55,-330 1659.55,-360"/>
<text text-anchor="start" x="1537.55" y="-348" font-family="Helvetica,sans-Serif" font-size="10.00">include/webcface/robot</text>
<text text-anchor="middle" x="1594.55" y="-337" font-family="Helvetica,sans-Serif" font-size="10.00">_model.h</text>
</a>
</g>
</g>
<!-- Node2 -->
<g id="Node000002" class="node">
<title>Node2</title>
<g id="a_Node000002"><a xlink:href="def_8h.html" target="_top" xlink:title=" ">
<polygon fill="white" stroke="#666666" points="909.55,-19 823.55,-19 823.55,0 909.55,0 909.55,-19"/>
<text text-anchor="middle" x="866.55" y="-7" font-family="Helvetica,sans-Serif" font-size="10.00">common/def.h</text>
</a>
</g>
</g>
<!-- Node1&#45;&gt;Node2 -->
<g id="edge1_Node000001_Node000002" class="edge">
<title>Node1&#45;&gt;Node2</title>
<g id="a_edge1_Node000001_Node000002"><a xlink:title=" ">
<path fill="none" stroke="#63b8ff" d="M1659.76,-343.57C1739.09,-339.2 1862.55,-318.29 1862.55,-230.5 1862.55,-230.5 1862.55,-230.5 1862.55,-118.5 1862.55,-22.82 1126.65,-11.83 919.96,-10.63"/>
<polygon fill="#63b8ff" stroke="#63b8ff" points="919.68,-7.13 909.66,-10.58 919.64,-14.13 919.68,-7.13"/>
</a>
</g>
</g>
<!-- Node3 -->
<g id="Node000003" class="node">
<title>Node3</title>
<g id="a_Node000003"><a xlink:href="common_2robot__model_8h.html" target="_top" xlink:title=" ">
<polygon fill="white" stroke="#666666" points="189.05,-239 56.05,-239 56.05,-220 189.05,-220 189.05,-239"/>
<text text-anchor="middle" x="122.55" y="-227" font-family="Helvetica,sans-Serif" font-size="10.00">common/robot_model.h</text>
</a>
</g>
</g>
<!-- Node1&#45;&gt;Node3 -->
<g id="edge2_Node000001_Node000003" class="edge">
<title>Node1&#45;&gt;Node3</title>
<g id="a_edge2_Node000001_Node000003"><a xlink:title=" ">
<path fill="none" stroke="#63b8ff" d="M1529.4,-338.98C1289.73,-320.5 457.58,-256.33 199.49,-236.43"/>
<polygon fill="#63b8ff" stroke="#63b8ff" points="199.7,-232.94 189.46,-235.66 199.16,-239.92 199.7,-232.94"/>
</a>
</g>
</g>
<!-- Node14 -->
<g id="Node000014" class="node">
<title>Node14</title>
<g id="a_Node000014"><a xlink:href="field_8h.html" target="_top" xlink:title=" ">
<polygon fill="white" stroke="#666666" points="1632.05,-129 1585.05,-129 1585.05,-110 1632.05,-110 1632.05,-129"/>
<text text-anchor="middle" x="1608.55" y="-117" font-family="Helvetica,sans-Serif" font-size="10.00">field.h</text>
</a>
</g>
</g>
<!-- Node1&#45;&gt;Node14 -->
<g id="edge23_Node000001_Node000014" class="edge">
<title>Node1&#45;&gt;Node14</title>
<g id="a_edge23_Node000001_Node000014"><a xlink:title=" ">
<path fill="none" stroke="#63b8ff" d="M1595.44,-329.68C1597.88,-290.76 1604.63,-183.07 1607.37,-139.33"/>
<polygon fill="#63b8ff" stroke="#63b8ff" points="1610.87,-139.43 1608,-129.23 1603.88,-138.99 1610.87,-139.43"/>
</a>
</g>
</g>
<!-- Node16 -->
<g id="Node000016" class="node">
<title>Node16</title>
<g id="a_Node000016"><a xlink:href="event__target_8h.html" target="_top" xlink:title=" ">
<polygon fill="white" stroke="#666666" points="1710.55,-184 1622.55,-184 1622.55,-165 1710.55,-165 1710.55,-184"/>
<text text-anchor="middle" x="1666.55" y="-172" font-family="Helvetica,sans-Serif" font-size="10.00">event_target.h</text>
</a>
</g>
</g>
<!-- Node1&#45;&gt;Node16 -->
<g id="edge28_Node000001_Node000016" class="edge">
<title>Node1&#45;&gt;Node16</title>
<g id="a_edge28_Node000001_Node000016"><a xlink:title=" ">
<path fill="none" stroke="#63b8ff" d="M1600.56,-329.92C1613.55,-299.52 1644.23,-227.73 1658.72,-193.83"/>
<polygon fill="#63b8ff" stroke="#63b8ff" points="1662.1,-194.83 1662.81,-184.25 1655.66,-192.08 1662.1,-194.83"/>
</a>
</g>
</g>
<!-- Node19 -->
<g id="Node000019" class="node">
<title>Node19</title>
<g id="a_Node000019"><a xlink:href="canvas__data_8h.html" target="_top" xlink:title=" ">
<polygon fill="white" stroke="#666666" points="1086.05,-294 999.05,-294 999.05,-275 1086.05,-275 1086.05,-294"/>
<text text-anchor="middle" x="1042.55" y="-282" font-family="Helvetica,sans-Serif" font-size="10.00">canvas_data.h</text>
</a>
</g>
</g>
<!-- Node1&#45;&gt;Node19 -->
<g id="edge33_Node000001_Node000019" class="edge">
<title>Node1&#45;&gt;Node19</title>
<g id="a_edge33_Node000001_Node000019"><a xlink:title=" ">
<path fill="none" stroke="#63b8ff" d="M1529.33,-337.09C1419.14,-325.41 1198.19,-301.99 1096.28,-291.2"/>
<polygon fill="#63b8ff" stroke="#63b8ff" points="1096.53,-287.7 1086.22,-290.13 1095.79,-294.66 1096.53,-287.7"/>
</a>
</g>
</g>
<!-- Node3&#45;&gt;Node2 -->
<g id="edge3_Node000003_Node000002" class="edge">
<title>Node3&#45;&gt;Node2</title>
<g id="a_edge3_Node000003_Node000002"><a xlink:title=" ">
<path fill="none" stroke="#63b8ff" d="M114.53,-219.77C100.14,-203.43 70.42,-166.51 59.55,-129 47.6,-87.79 81.88,-71.36 121.55,-55 252.42,-1.04 616.31,-28.5 757.55,-19 775.67,-17.78 795.48,-16.28 813.18,-14.89"/>
<polygon fill="#63b8ff" stroke="#63b8ff" points="813.64,-18.36 823.33,-14.08 813.09,-11.39 813.64,-18.36"/>
</a>
</g>
</g>
<!-- Node4 -->
<g id="Node000004" class="node">
<title>Node4</title>
<g id="a_Node000004"><a xlink:href="common_2view_8h.html" target="_top" xlink:title=" ">
<polygon fill="white" stroke="#666666" points="116.55,-129 68.55,-129 68.55,-110 116.55,-110 116.55,-129"/>
<text text-anchor="middle" x="92.55" y="-117" font-family="Helvetica,sans-Serif" font-size="10.00">view.h</text>
</a>
</g>
</g>
<!-- Node3&#45;&gt;Node4 -->
<g id="edge4_Node000003_Node000004" class="edge">
<title>Node3&#45;&gt;Node4</title>
<g id="a_edge4_Node000003_Node000004"><a xlink:title=" ">
<path fill="none" stroke="#63b8ff" d="M120.09,-219.66C115.21,-202.09 104.2,-162.45 97.67,-138.95"/>
<polygon fill="#63b8ff" stroke="#63b8ff" points="101,-137.86 94.95,-129.16 94.26,-139.73 101,-137.86"/>
</a>
</g>
</g>
<!-- Node5 -->
<g id="Node000005" class="node">
<title>Node5</title>
<g id="a_Node000005"><a xlink:title=" ">
<polygon fill="#e0e0e0" stroke="#999999" points="748.55,-19 704.55,-19 704.55,0 748.55,0 748.55,-19"/>
<text text-anchor="middle" x="726.55" y="-7" font-family="Helvetica,sans-Serif" font-size="10.00">string</text>
</a>
</g>
</g>
<!-- Node3&#45;&gt;Node5 -->
<g id="edge21_Node000003_Node000005" class="edge">
<title>Node3&#45;&gt;Node5</title>
<g id="a_edge21_Node000003_Node000005"><a xlink:title=" ">
<path fill="none" stroke="#63b8ff" d="M80.1,-219.9C60.25,-213.52 38.41,-202.58 26.55,-184 -4.31,-135.68 -12.69,-96.81 26.55,-55 49.7,-30.33 560.16,-14.96 694.43,-11.33"/>
<polygon fill="#63b8ff" stroke="#63b8ff" points="694.59,-14.83 704.49,-11.06 694.4,-7.83 694.59,-14.83"/>
</a>
</g>
</g>
<!-- Node8 -->
<g id="Node000008" class="node">
<title>Node8</title>
<g id="a_Node000008"><a xlink:href="common_2canvas3d_8h.html" target="_top" xlink:title=" ">
<polygon fill="white" stroke="#666666" points="342.55,-184 270.55,-184 270.55,-165 342.55,-165 342.55,-184"/>
<text text-anchor="middle" x="306.55" y="-172" font-family="Helvetica,sans-Serif" font-size="10.00">canvas3d.h</text>
</a>
</g>
</g>
<!-- Node3&#45;&gt;Node8 -->
<g id="edge11_Node000003_Node000008" class="edge">
<title>Node3&#45;&gt;Node8</title>
<g id="a_edge11_Node000003_Node000008"><a xlink:title=" ">
<path fill="none" stroke="#63b8ff" d="M152.11,-219.98C183.27,-211.01 232.52,-196.82 267,-186.89"/>
<polygon fill="#63b8ff" stroke="#63b8ff" points="268.11,-190.21 276.75,-184.08 266.17,-183.49 268.11,-190.21"/>
</a>
</g>
</g>
<!-- Node13 -->
<g id="Node000013" class="node">
<title>Node13</title>
<g id="a_Node000013"><a xlink:title=" ">
<polygon fill="#e0e0e0" stroke="#999999" points="292.55,-74 232.55,-74 232.55,-55 292.55,-55 292.55,-74"/>
<text text-anchor="middle" x="262.55" y="-62" font-family="Helvetica,sans-Serif" font-size="10.00">concepts</text>
</a>
</g>
</g>
<!-- Node3&#45;&gt;Node13 -->
<g id="edge22_Node000003_Node000013" class="edge">
<title>Node3&#45;&gt;Node13</title>
<g id="a_edge22_Node000003_Node000013"><a xlink:title=" ">
<path fill="none" stroke="#63b8ff" d="M127,-219.72C137.78,-198.99 166.98,-146.06 201.55,-110 212.68,-98.39 227.16,-87.68 239.21,-79.68"/>
<polygon fill="#63b8ff" stroke="#63b8ff" points="241.34,-82.47 247.87,-74.12 237.56,-76.58 241.34,-82.47"/>
</a>
</g>
</g>
<!-- Node4&#45;&gt;Node2 -->
<g id="edge10_Node000004_Node000002" class="edge">
<title>Node4&#45;&gt;Node2</title>
<g id="a_edge10_Node000004_Node000002"><a xlink:title=" ">
<path fill="none" stroke="#63b8ff" d="M97.17,-110C105.48,-95.67 124.46,-67.09 149.55,-55 210.51,-25.61 690.03,-23.63 757.55,-19 775.67,-17.76 795.48,-16.26 813.18,-14.86"/>
<polygon fill="#63b8ff" stroke="#63b8ff" points="813.64,-18.34 823.33,-14.06 813.08,-11.36 813.64,-18.34"/>
</a>
</g>
</g>
<!-- Node4&#45;&gt;Node5 -->
<g id="edge5_Node000004_Node000005" class="edge">
<title>Node4&#45;&gt;Node5</title>
<g id="a_edge5_Node000004_Node000005"><a xlink:title=" ">
<path fill="none" stroke="#63b8ff" d="M93.01,-109.79C94.27,-95.69 98.98,-68.11 116.55,-55 163.02,-20.32 574.28,-12.42 693.99,-10.85"/>
<polygon fill="#63b8ff" stroke="#63b8ff" points="694.38,-14.35 704.33,-10.72 694.29,-7.35 694.38,-14.35"/>
</a>
</g>
</g>
<!-- Node6 -->
<g id="Node000006" class="node">
<title>Node6</title>
<g id="a_Node000006"><a xlink:title=" ">
<polygon fill="#e0e0e0" stroke="#999999" points="214.55,-74 158.55,-74 158.55,-55 214.55,-55 214.55,-74"/>
<text text-anchor="middle" x="186.55" y="-62" font-family="Helvetica,sans-Serif" font-size="10.00">optional</text>
</a>
</g>
</g>
<!-- Node4&#45;&gt;Node6 -->
<g id="edge6_Node000004_Node000006" class="edge">
<title>Node4&#45;&gt;Node6</title>
<g id="a_edge6_Node000004_Node000006"><a xlink:title=" ">
<path fill="none" stroke="#63b8ff" d="M107.65,-109.98C122.36,-101.69 144.97,-88.94 162.22,-79.22"/>
<polygon fill="#63b8ff" stroke="#63b8ff" points="164.18,-82.13 171.17,-74.17 160.74,-76.03 164.18,-82.13"/>
</a>
</g>
</g>
<!-- Node7 -->
<g id="Node000007" class="node">
<title>Node7</title>
<g id="a_Node000007"><a xlink:href="field__base_8h.html" target="_top" xlink:title=" ">
<polygon fill="white" stroke="#666666" points="386.05,-74 311.05,-74 311.05,-55 386.05,-55 386.05,-74"/>
<text text-anchor="middle" x="348.55" y="-62" font-family="Helvetica,sans-Serif" font-size="10.00">field_base.h</text>
</a>
</g>
</g>
<!-- Node4&#45;&gt;Node7 -->
<g id="edge7_Node000004_Node000007" class="edge">
<title>Node4&#45;&gt;Node7</title>
<g id="a_edge7_Node000004_Node000007"><a xlink:title=" ">
<path fill="none" stroke="#63b8ff" d="M116.63,-113.51C158.7,-104.8 246.28,-86.67 300.96,-75.35"/>
<polygon fill="#63b8ff" stroke="#63b8ff" points="301.68,-78.78 310.77,-73.32 300.26,-71.92 301.68,-78.78"/>
</a>
</g>
</g>
<!-- Node7&#45;&gt;Node2 -->
<g id="edge9_Node000007_Node000002" class="edge">
<title>Node7&#45;&gt;Node2</title>
<g id="a_edge9_Node000007_Node000002"><a xlink:title=" ">
<path fill="none" stroke="#63b8ff" d="M386.28,-57.03C391.07,-56.3 395.92,-55.6 400.55,-55 479.13,-44.84 708.39,-24.34 813.18,-15.14"/>
<polygon fill="#63b8ff" stroke="#63b8ff" points="813.56,-18.62 823.22,-14.26 812.95,-11.65 813.56,-18.62"/>
</a>
</g>
</g>
<!-- Node7&#45;&gt;Node5 -->
<g id="edge8_Node000007_Node000005" class="edge">
<title>Node7&#45;&gt;Node5</title>
<g id="a_edge8_Node000007_Node000005"><a xlink:title=" ">
<path fill="none" stroke="#63b8ff" d="M386.3,-57.21C391.09,-56.45 395.93,-55.69 400.55,-55 507.97,-38.89 635.68,-22.16 694.27,-14.62"/>
<polygon fill="#63b8ff" stroke="#63b8ff" points="694.91,-18.07 704.38,-13.32 694.02,-11.12 694.91,-18.07"/>
</a>
</g>
</g>
<!-- Node8&#45;&gt;Node2 -->
<g id="edge12_Node000008_Node000002" class="edge">
<title>Node8&#45;&gt;Node2</title>
<g id="a_edge12_Node000008_Node000002"><a xlink:title=" ">
<path fill="none" stroke="#63b8ff" d="M315.86,-164.71C340.55,-142 410.68,-81.28 481.55,-55 511.97,-43.72 715.19,-24.17 813.49,-15.22"/>
<polygon fill="#63b8ff" stroke="#63b8ff" points="813.87,-18.7 823.52,-14.31 813.24,-11.73 813.87,-18.7"/>
</a>
</g>
</g>
<!-- Node8&#45;&gt;Node4 -->
<g id="edge17_Node000008_Node000004" class="edge">
<title>Node8&#45;&gt;Node4</title>
<g id="a_edge17_Node000008_Node000004"><a xlink:title=" ">
<path fill="none" stroke="#63b8ff" d="M272.16,-164.98C232.06,-155.05 166.18,-138.74 126.33,-128.87"/>
<polygon fill="#63b8ff" stroke="#63b8ff" points="127.1,-125.45 116.55,-126.45 125.42,-132.25 127.1,-125.45"/>
</a>
</g>
</g>
<!-- Node8&#45;&gt;Node6 -->
<g id="edge19_Node000008_Node000006" class="edge">
<title>Node8&#45;&gt;Node6</title>
<g id="a_edge19_Node000008_Node000006"><a xlink:title=" ">
<path fill="none" stroke="#63b8ff" d="M270.41,-166.9C247.46,-160.85 218.91,-149.58 201.55,-129 191.16,-116.69 187.68,-98.47 186.65,-84.69"/>
<polygon fill="#63b8ff" stroke="#63b8ff" points="190.13,-84.26 186.25,-74.4 183.14,-84.53 190.13,-84.26"/>
</a>
</g>
</g>
<!-- Node8&#45;&gt;Node7 -->
<g id="edge16_Node000008_Node000007" class="edge">
<title>Node8&#45;&gt;Node7</title>
<g id="a_edge16_Node000008_Node000007"><a xlink:title=" ">
<path fill="none" stroke="#63b8ff" d="M309.98,-164.66C316.85,-147.01 332.37,-107.09 341.49,-83.64"/>
<polygon fill="#63b8ff" stroke="#63b8ff" points="344.82,-84.75 345.18,-74.16 338.29,-82.21 344.82,-84.75"/>
</a>
</g>
</g>
<!-- Node9 -->
<g id="Node000009" class="node">
<title>Node9</title>
<g id="a_Node000009"><a xlink:href="transform_8h.html" target="_top" xlink:title=" ">
<polygon fill="white" stroke="#666666" points="548.55,-129 474.55,-129 474.55,-110 548.55,-110 548.55,-129"/>
<text text-anchor="middle" x="511.55" y="-117" font-family="Helvetica,sans-Serif" font-size="10.00">transform.h</text>
</a>
</g>
</g>
<!-- Node8&#45;&gt;Node9 -->
<g id="edge13_Node000008_Node000009" class="edge">
<title>Node8&#45;&gt;Node9</title>
<g id="a_edge13_Node000008_Node000009"><a xlink:title=" ">
<path fill="none" stroke="#63b8ff" d="M339.48,-164.98C374.5,-155.93 430.01,-141.58 468.48,-131.64"/>
<polygon fill="#63b8ff" stroke="#63b8ff" points="469.55,-134.97 478.35,-129.08 467.79,-128.2 469.55,-134.97"/>
</a>
</g>
</g>
<!-- Node11 -->
<g id="Node000011" class="node">
<title>Node11</title>
<g id="a_Node000011"><a xlink:title=" ">
<polygon fill="#e0e0e0" stroke="#999999" points="698.05,-74 651.05,-74 651.05,-55 698.05,-55 698.05,-74"/>
<text text-anchor="middle" x="674.55" y="-62" font-family="Helvetica,sans-Serif" font-size="10.00">vector</text>
</a>
</g>
</g>
<!-- Node8&#45;&gt;Node11 -->
<g id="edge18_Node000008_Node000011" class="edge">
<title>Node8&#45;&gt;Node11</title>
<g id="a_edge18_Node000008_Node000011"><a xlink:title=" ">
<path fill="none" stroke="#63b8ff" d="M342.8,-170.75C392.44,-166.17 483.81,-154.78 557.55,-129 593.02,-116.6 630.63,-94.33 653.35,-79.74"/>
<polygon fill="#63b8ff" stroke="#63b8ff" points="655.39,-82.59 661.85,-74.19 651.57,-76.72 655.39,-82.59"/>
</a>
</g>
</g>
<!-- Node12 -->
<g id="Node000012" class="node">
<title>Node12</title>
<g id="a_Node000012"><a xlink:title=" ">
<polygon fill="#e0e0e0" stroke="#999999" points="304.05,-129 211.05,-129 211.05,-110 304.05,-110 304.05,-129"/>
<text text-anchor="middle" x="257.55" y="-117" font-family="Helvetica,sans-Serif" font-size="10.00">unordered_map</text>
</a>
</g>
</g>
<!-- Node8&#45;&gt;Node12 -->
<g id="edge20_Node000008_Node000012" class="edge">
<title>Node8&#45;&gt;Node12</title>
<g id="a_edge20_Node000008_Node000012"><a xlink:title=" ">
<path fill="none" stroke="#63b8ff" d="M298.46,-164.75C291.39,-157.11 280.96,-145.82 272.4,-136.56"/>
<polygon fill="#63b8ff" stroke="#63b8ff" points="274.85,-134.06 265.49,-129.09 269.71,-138.81 274.85,-134.06"/>
</a>
</g>
</g>
<!-- Node9&#45;&gt;Node2 -->
<g id="edge14_Node000009_Node000002" class="edge">
<title>Node9&#45;&gt;Node2</title>
<g id="a_edge14_Node000009_Node000002"><a xlink:title=" ">
<path fill="none" stroke="#63b8ff" d="M520.55,-109.88C535.73,-95.91 567.93,-68.51 600.55,-55 638.07,-39.46 746.88,-24.55 813.13,-16.55"/>
<polygon fill="#63b8ff" stroke="#63b8ff" points="813.87,-19.98 823.38,-15.32 813.04,-13.03 813.87,-19.98"/>
</a>
</g>
</g>
<!-- Node10 -->
<g id="Node000010" class="node">
<title>Node10</title>
<g id="a_Node000010"><a xlink:title=" ">
<polygon fill="#e0e0e0" stroke="#999999" points="532.55,-74 490.55,-74 490.55,-55 532.55,-55 532.55,-74"/>
<text text-anchor="middle" x="511.55" y="-62" font-family="Helvetica,sans-Serif" font-size="10.00">array</text>
</a>
</g>
</g>
<!-- Node9&#45;&gt;Node10 -->
<g id="edge15_Node000009_Node000010" class="edge">
<title>Node9&#45;&gt;Node10</title>
<g id="a_edge15_Node000009_Node000010"><a xlink:title=" ">
<path fill="none" stroke="#63b8ff" d="M511.55,-109.75C511.55,-102.8 511.55,-92.85 511.55,-84.13"/>
<polygon fill="#63b8ff" stroke="#63b8ff" points="515.05,-84.09 511.55,-74.09 508.05,-84.09 515.05,-84.09"/>
</a>
</g>
</g>
<!-- Node14&#45;&gt;Node2 -->
<g id="edge27_Node000014_Node000002" class="edge">
<title>Node14&#45;&gt;Node2</title>
<g id="a_edge27_Node000014_Node000002"><a xlink:title=" ">
<path fill="none" stroke="#63b8ff" d="M1610.16,-109.98C1612.23,-96.16 1613.91,-68.96 1598.55,-55 1548.62,-9.62 1079.51,-8.88 919.63,-9.97"/>
<polygon fill="#63b8ff" stroke="#63b8ff" points="919.52,-6.47 909.55,-10.04 919.57,-13.47 919.52,-6.47"/>
</a>
</g>
</g>
<!-- Node14&#45;&gt;Node5 -->
<g id="edge25_Node000014_Node000005" class="edge">
<title>Node14&#45;&gt;Node5</title>
<g id="a_edge25_Node000014_Node000005"><a xlink:title=" ">
<path fill="none" stroke="#63b8ff" d="M1605.5,-109.57C1600.05,-95.15 1587.14,-67.13 1565.55,-55 1492.71,-14.09 897.87,-25.02 814.55,-19 796.09,-17.67 775.49,-15.7 758.87,-14"/>
<polygon fill="#63b8ff" stroke="#63b8ff" points="758.89,-10.48 748.58,-12.93 758.17,-17.45 758.89,-10.48"/>
</a>
</g>
</g>
<!-- Node14&#45;&gt;Node7 -->
<g id="edge26_Node000014_Node000007" class="edge">
<title>Node14&#45;&gt;Node7</title>
<g id="a_edge26_Node000014_Node000007"><a xlink:title=" ">
<path fill="none" stroke="#63b8ff" d="M1584.89,-117.35C1549.72,-115.66 1481.53,-112.44 1423.55,-110 1004.95,-92.38 899.97,-95.36 481.55,-74 453.22,-72.55 421.51,-70.54 396.17,-68.84"/>
<polygon fill="#63b8ff" stroke="#63b8ff" points="396.3,-65.34 386.08,-68.16 395.82,-72.32 396.3,-65.34"/>
</a>
</g>
</g>
<!-- Node15 -->
<g id="Node000015" class="node">
<title>Node15</title>
<g id="a_Node000015"><a xlink:title=" ">
<polygon fill="#e0e0e0" stroke="#999999" points="1556.55,-74 1498.55,-74 1498.55,-55 1556.55,-55 1556.55,-74"/>
<text text-anchor="middle" x="1527.55" y="-62" font-family="Helvetica,sans-Serif" font-size="10.00">memory</text>
</a>
</g>
</g>
<!-- Node14&#45;&gt;Node15 -->
<g id="edge24_Node000014_Node000015" class="edge">
<title>Node14&#45;&gt;Node15</title>
<g id="a_edge24_Node000014_Node000015"><a xlink:title=" ">
<path fill="none" stroke="#63b8ff" d="M1595.53,-109.98C1583.09,-101.84 1564.09,-89.41 1549.34,-79.76"/>
<polygon fill="#63b8ff" stroke="#63b8ff" points="1551.08,-76.72 1540.8,-74.17 1547.25,-82.57 1551.08,-76.72"/>
</a>
</g>
</g>
<!-- Node16&#45;&gt;Node2 -->
<g id="edge32_Node000016_Node000002" class="edge">
<title>Node16&#45;&gt;Node2</title>
<g id="a_edge32_Node000016_Node000002"><a xlink:title=" ">
<path fill="none" stroke="#63b8ff" d="M1665.97,-164.71C1663.97,-141.98 1655.16,-81.24 1617.55,-55 1560.72,-15.35 1082.03,-10.86 919.95,-10.48"/>
<polygon fill="#63b8ff" stroke="#63b8ff" points="919.75,-6.98 909.74,-10.46 919.73,-13.98 919.75,-6.98"/>
</a>
</g>
</g>
<!-- Node16&#45;&gt;Node14 -->
<g id="edge31_Node000016_Node000014" class="edge">
<title>Node16&#45;&gt;Node14</title>
<g id="a_edge31_Node000016_Node000014"><a xlink:title=" ">
<path fill="none" stroke="#63b8ff" d="M1657.23,-164.98C1648.74,-157.23 1635.99,-145.58 1625.67,-136.14"/>
<polygon fill="#63b8ff" stroke="#63b8ff" points="1627.78,-133.33 1618.04,-129.17 1623.06,-138.5 1627.78,-133.33"/>
</a>
</g>
</g>
<!-- Node17 -->
<g id="Node000017" class="node">
<title>Node17</title>
<g id="a_Node000017"><a xlink:title=" ">
<polygon fill="#e0e0e0" stroke="#999999" points="1350.05,-129 1285.05,-129 1285.05,-110 1350.05,-110 1350.05,-129"/>
<text text-anchor="middle" x="1317.55" y="-117" font-family="Helvetica,sans-Serif" font-size="10.00">functional</text>
</a>
</g>
</g>
<!-- Node16&#45;&gt;Node17 -->
<g id="edge29_Node000016_Node000017" class="edge">
<title>Node16&#45;&gt;Node17</title>
<g id="a_edge29_Node000016_Node000017"><a xlink:title=" ">
<path fill="none" stroke="#63b8ff" d="M1622.45,-167.89C1564.63,-160.37 1459.84,-146.14 1360.02,-128.99"/>
<polygon fill="#63b8ff" stroke="#63b8ff" points="1360.52,-125.53 1350.07,-127.27 1359.33,-132.42 1360.52,-125.53"/>
</a>
</g>
</g>
<!-- Node18 -->
<g id="Node000018" class="node">
<title>Node18</title>
<g id="a_Node000018"><a xlink:title=" ">
<polygon fill="#e0e0e0" stroke="#999999" points="1834.55,-129 1688.55,-129 1688.55,-110 1834.55,-110 1834.55,-129"/>
<text text-anchor="middle" x="1761.55" y="-117" font-family="Helvetica,sans-Serif" font-size="10.00">eventpp/eventdispatcher.h</text>
</a>
</g>
</g>
<!-- Node16&#45;&gt;Node18 -->
<g id="edge30_Node000016_Node000018" class="edge">
<title>Node16&#45;&gt;Node18</title>
<g id="a_edge30_Node000016_Node000018"><a xlink:title=" ">
<path fill="none" stroke="#63b8ff" d="M1681.81,-164.98C1696.68,-156.69 1719.53,-143.94 1736.96,-134.22"/>
<polygon fill="#63b8ff" stroke="#63b8ff" points="1738.98,-137.1 1746.01,-129.17 1735.57,-130.99 1738.98,-137.1"/>
</a>
</g>
</g>
<!-- Node19&#45;&gt;Node8 -->
<g id="edge43_Node000019_Node000008" class="edge">
<title>Node19&#45;&gt;Node8</title>
<g id="a_edge43_Node000019_Node000008"><a xlink:title=" ">
<path fill="none" stroke="#63b8ff" d="M998.77,-282.28C879.14,-278.63 548.64,-266.29 443.55,-239 401.29,-228.03 356.03,-204.45 329.56,-189.32"/>
<polygon fill="#63b8ff" stroke="#63b8ff" points="331.1,-186.17 320.7,-184.17 327.58,-192.22 331.1,-186.17"/>
</a>
</g>
</g>
<!-- Node19&#45;&gt;Node15 -->
<g id="edge78_Node000019_Node000015" class="edge">
<title>Node19&#45;&gt;Node15</title>
<g id="a_edge78_Node000019_Node000015"><a xlink:title=" ">
<path fill="none" stroke="#63b8ff" d="M1083.51,-274.96C1146.94,-260.9 1271.9,-229.77 1370.55,-184 1411.36,-165.06 1419.69,-156.18 1455.55,-129 1475.53,-113.85 1496.9,-94.57 1511.12,-81.25"/>
<polygon fill="#63b8ff" stroke="#63b8ff" points="1513.74,-83.59 1518.6,-74.18 1508.93,-78.51 1513.74,-83.59"/>
</a>
</g>
</g>
<!-- Node20 -->
<g id="Node000020" class="node">
<title>Node20</title>
<g id="a_Node000020"><a xlink:href="common_2canvas2d_8h.html" target="_top" xlink:title=" ">
<polygon fill="white" stroke="#666666" points="570.55,-239 452.55,-239 452.55,-220 570.55,-220 570.55,-239"/>
<text text-anchor="middle" x="511.55" y="-227" font-family="Helvetica,sans-Serif" font-size="10.00">common/canvas2d.h</text>
</a>
</g>
</g>
<!-- Node19&#45;&gt;Node20 -->
<g id="edge34_Node000019_Node000020" class="edge">
<title>Node19&#45;&gt;Node20</title>
<g id="a_edge34_Node000019_Node000020"><a xlink:title=" ">
<path fill="none" stroke="#63b8ff" d="M998.64,-279.12C906.36,-269.91 691.65,-248.48 580.69,-237.4"/>
<polygon fill="#63b8ff" stroke="#63b8ff" points="580.9,-233.91 570.6,-236.39 580.21,-240.87 580.9,-233.91"/>
</a>
</g>
</g>
<!-- Node22 -->
<g id="Node000022" class="node">
<title>Node22</title>
<g id="a_Node000022"><a xlink:href="func_8h.html" target="_top" xlink:title=" ">
<polygon fill="white" stroke="#666666" points="1066.05,-239 1019.05,-239 1019.05,-220 1066.05,-220 1066.05,-239"/>
<text text-anchor="middle" x="1042.55" y="-227" font-family="Helvetica,sans-Serif" font-size="10.00">func.h</text>
</a>
</g>
</g>
<!-- Node19&#45;&gt;Node22 -->
<g id="edge44_Node000019_Node000022" class="edge">
<title>Node19&#45;&gt;Node22</title>
<g id="a_edge44_Node000019_Node000022"><a xlink:title=" ">
<path fill="none" stroke="#63b8ff" d="M1042.55,-274.75C1042.55,-267.8 1042.55,-257.85 1042.55,-249.13"/>
<polygon fill="#63b8ff" stroke="#63b8ff" points="1046.05,-249.09 1042.55,-239.09 1039.05,-249.09 1046.05,-249.09"/>
</a>
</g>
</g>
<!-- Node20&#45;&gt;Node2 -->
<g id="edge38_Node000020_Node000002" class="edge">
<title>Node20&#45;&gt;Node2</title>
<g id="a_edge38_Node000020_Node000002"><a xlink:title=" ">
<path fill="none" stroke="#63b8ff" d="M515.26,-219.89C528.13,-191.19 573.8,-98.11 642.55,-55 670.43,-37.51 756.37,-23.99 813.33,-16.65"/>
<polygon fill="#63b8ff" stroke="#63b8ff" points="813.77,-20.12 823.25,-15.39 812.89,-13.17 813.77,-20.12"/>
</a>
</g>
</g>
<!-- Node20&#45;&gt;Node4 -->
<g id="edge40_Node000020_Node000004" class="edge">
<title>Node20&#45;&gt;Node4</title>
<g id="a_edge40_Node000020_Node000004"><a xlink:title=" ">
<path fill="none" stroke="#63b8ff" d="M452.53,-221.11C401.44,-213.97 325.85,-201.64 261.55,-184 211.15,-170.17 154.7,-147.42 121.47,-133.23"/>
<polygon fill="#63b8ff" stroke="#63b8ff" points="122.5,-129.86 111.93,-129.12 119.73,-136.29 122.5,-129.86"/>
</a>
</g>
</g>
<!-- Node20&#45;&gt;Node6 -->
<g id="edge36_Node000020_Node000006" class="edge">
<title>Node20&#45;&gt;Node6</title>
<g id="a_edge36_Node000020_Node000006"><a xlink:title=" ">
<path fill="none" stroke="#63b8ff" d="M498.99,-219.82C468.28,-198.86 386.46,-144.64 312.55,-110 283.8,-96.53 249.79,-84.74 224.35,-76.69"/>
<polygon fill="#63b8ff" stroke="#63b8ff" points="225.29,-73.32 214.7,-73.69 223.21,-80 225.29,-73.32"/>
</a>
</g>
</g>
<!-- Node20&#45;&gt;Node7 -->
<g id="edge42_Node000020_Node000007" class="edge">
<title>Node20&#45;&gt;Node7</title>
<g id="a_edge42_Node000020_Node000007"><a xlink:title=" ">
<path fill="none" stroke="#63b8ff" d="M502.78,-219.74C476.58,-193.53 398.56,-115.51 364.62,-81.57"/>
<polygon fill="#63b8ff" stroke="#63b8ff" points="366.9,-78.9 357.35,-74.31 361.95,-83.85 366.9,-78.9"/>
</a>
</g>
</g>
<!-- Node20&#45;&gt;Node8 -->
<g id="edge41_Node000020_Node000008" class="edge">
<title>Node20&#45;&gt;Node8</title>
<g id="a_edge41_Node000020_Node000008"><a xlink:title=" ">
<path fill="none" stroke="#63b8ff" d="M478.61,-219.98C443.6,-210.93 388.08,-196.58 349.62,-186.64"/>
<polygon fill="#63b8ff" stroke="#63b8ff" points="350.3,-183.2 339.74,-184.08 348.55,-189.97 350.3,-183.2"/>
</a>
</g>
</g>
<!-- Node20&#45;&gt;Node9 -->
<g id="edge39_Node000020_Node000009" class="edge">
<title>Node20&#45;&gt;Node9</title>
<g id="a_edge39_Node000020_Node000009"><a xlink:title=" ">
<path fill="none" stroke="#63b8ff" d="M511.55,-219.66C511.55,-202.17 511.55,-162.8 511.55,-139.27"/>
<polygon fill="#63b8ff" stroke="#63b8ff" points="515.05,-139.16 511.55,-129.16 508.05,-139.16 515.05,-139.16"/>
</a>
</g>
</g>
<!-- Node20&#45;&gt;Node11 -->
<g id="edge35_Node000020_Node000011" class="edge">
<title>Node20&#45;&gt;Node11</title>
<g id="a_edge35_Node000020_Node000011"><a xlink:title=" ">
<path fill="none" stroke="#63b8ff" d="M558.98,-219.97C582.51,-213.58 609.81,-202.61 628.55,-184 656.37,-156.36 667.73,-110 672.08,-84.22"/>
<polygon fill="#63b8ff" stroke="#63b8ff" points="675.55,-84.66 673.58,-74.25 668.63,-83.62 675.55,-84.66"/>
</a>
</g>
</g>
<!-- Node21 -->
<g id="Node000021" class="node">
<title>Node21</title>
<g id="a_Node000021"><a xlink:title=" ">
<polygon fill="#e0e0e0" stroke="#999999" points="896.05,-74 831.05,-74 831.05,-55 896.05,-55 896.05,-74"/>
<text text-anchor="middle" x="863.55" y="-62" font-family="Helvetica,sans-Serif" font-size="10.00">stdexcept</text>
</a>
</g>
</g>
<!-- Node20&#45;&gt;Node21 -->
<g id="edge37_Node000020_Node000021" class="edge">
<title>Node20&#45;&gt;Node21</title>
<g id="a_edge37_Node000020_Node000021"><a xlink:title=" ">
<path fill="none" stroke="#63b8ff" d="M543.46,-220C571.64,-212.05 613.55,-199.16 648.55,-184 721.73,-152.29 802.81,-103.61 841.13,-79.73"/>
<polygon fill="#63b8ff" stroke="#63b8ff" points="843.31,-82.49 849.92,-74.21 839.59,-76.56 843.31,-82.49"/>
</a>
</g>
</g>
<!-- Node22&#45;&gt;Node2 -->
<g id="edge77_Node000022_Node000002" class="edge">
<title>Node22&#45;&gt;Node2</title>
<g id="a_edge77_Node000022_Node000002"><a xlink:title=" ">
<path fill="none" stroke="#63b8ff" d="M1066.14,-226.14C1157.77,-216.47 1482.88,-177.17 1440.55,-110 1385.35,-22.42 1051.41,-11.28 919.8,-10.34"/>
<polygon fill="#63b8ff" stroke="#63b8ff" points="919.58,-6.83 909.56,-10.28 919.54,-13.83 919.58,-6.83"/>
</a>
</g>
</g>
<!-- Node22&#45;&gt;Node11 -->
<g id="edge45_Node000022_Node000011" class="edge">
<title>Node22&#45;&gt;Node11</title>
<g id="a_edge45_Node000022_Node000011"><a xlink:title=" ">
<path fill="none" stroke="#63b8ff" d="M1018.9,-221.35C992.77,-213.21 949.61,-199.09 913.55,-184 833.11,-150.35 741.73,-102.11 699,-78.93"/>
<polygon fill="#63b8ff" stroke="#63b8ff" points="700.62,-75.83 690.16,-74.12 697.27,-81.98 700.62,-75.83"/>
</a>
</g>
</g>
<!-- Node23 -->
<g id="Node000023" class="node">
<title>Node23</title>
<g id="a_Node000023"><a xlink:href="common_2func_8h.html" target="_top" xlink:title=" ">
<polygon fill="white" stroke="#666666" points="1014.55,-184 922.55,-184 922.55,-165 1014.55,-165 1014.55,-184"/>
<text text-anchor="middle" x="968.55" y="-172" font-family="Helvetica,sans-Serif" font-size="10.00">common/func.h</text>
</a>
</g>
</g>
<!-- Node22&#45;&gt;Node23 -->
<g id="edge46_Node000022_Node000023" class="edge">
<title>Node22&#45;&gt;Node23</title>
<g id="a_edge46_Node000022_Node000023"><a xlink:title=" ">
<path fill="none" stroke="#63b8ff" d="M1030.66,-219.98C1019.4,-211.92 1002.26,-199.65 988.84,-190.03"/>
<polygon fill="#63b8ff" stroke="#63b8ff" points="990.82,-187.15 980.65,-184.17 986.74,-192.84 990.82,-187.15"/>
</a>
</g>
</g>
<!-- Node27 -->
<g id="Node000027" class="node">
<title>Node27</title>
<g id="a_Node000027"><a xlink:href="val_8h.html" target="_top" xlink:title=" ">
<polygon fill="white" stroke="#666666" points="1038.05,-129 997.05,-129 997.05,-110 1038.05,-110 1038.05,-129"/>
<text text-anchor="middle" x="1017.55" y="-117" font-family="Helvetica,sans-Serif" font-size="10.00">val.h</text>
</a>
</g>
</g>
<!-- Node22&#45;&gt;Node27 -->
<g id="edge66_Node000022_Node000027" class="edge">
<title>Node22&#45;&gt;Node27</title>
<g id="a_edge66_Node000022_Node000027"><a xlink:title=" ">
<path fill="none" stroke="#63b8ff" d="M1040.5,-219.66C1036.43,-202.09 1027.26,-162.45 1021.82,-138.95"/>
<polygon fill="#63b8ff" stroke="#63b8ff" points="1025.22,-138.11 1019.55,-129.16 1018.4,-139.69 1025.22,-138.11"/>
</a>
</g>
</g>
<!-- Node30 -->
<g id="Node000030" class="node">
<title>Node30</title>
<g id="a_Node000030"><a xlink:href="func__result_8h.html" target="_top" xlink:title=" ">
<polygon fill="white" stroke="#666666" points="1277.55,-184 1197.55,-184 1197.55,-165 1277.55,-165 1277.55,-184"/>
<text text-anchor="middle" x="1237.55" y="-172" font-family="Helvetica,sans-Serif" font-size="10.00">func_result.h</text>
</a>
</g>
</g>
<!-- Node22&#45;&gt;Node30 -->
<g id="edge67_Node000022_Node000030" class="edge">
<title>Node22&#45;&gt;Node30</title>
<g id="a_edge67_Node000022_Node000030"><a xlink:title=" ">
<path fill="none" stroke="#63b8ff" d="M1066.07,-222.11C1098.31,-213.34 1156.74,-197.46 1196.33,-186.7"/>
<polygon fill="#63b8ff" stroke="#63b8ff" points="1197.48,-190.02 1206.21,-184.02 1195.64,-183.26 1197.48,-190.02"/>
</a>
</g>
</g>
<!-- Node23&#45;&gt;Node2 -->
<g id="edge65_Node000023_Node000002" class="edge">
<title>Node23&#45;&gt;Node2</title>
<g id="a_edge65_Node000023_Node000002"><a xlink:title=" ">
<path fill="none" stroke="#63b8ff" d="M935.99,-164.9C913.68,-157.86 884.3,-146.22 862.55,-129 838.85,-110.24 831.89,-102.74 822.55,-74 819.94,-65.97 819.34,-62.81 822.55,-55 827.35,-43.31 836.88,-33.05 845.85,-25.34"/>
<polygon fill="#63b8ff" stroke="#63b8ff" points="848.14,-27.98 853.77,-19 843.77,-22.51 848.14,-27.98"/>
</a>
</g>
</g>
<!-- Node23&#45;&gt;Node5 -->
<g id="edge51_Node000023_Node000005" class="edge">
<title>Node23&#45;&gt;Node5</title>
<g id="a_edge51_Node000023_Node000005"><a xlink:title=" ">
<path fill="none" stroke="#63b8ff" d="M926.33,-164.95C899.17,-158.13 863.97,-146.72 836.55,-129 793.51,-101.18 755.91,-52.77 737.88,-27.29"/>
<polygon fill="#63b8ff" stroke="#63b8ff" points="740.72,-25.24 732.15,-19.02 734.97,-29.23 740.72,-25.24"/>
</a>
</g>
</g>
<!-- Node23&#45;&gt;Node6 -->
<g id="edge50_Node000023_Node000006" class="edge">
<title>Node23&#45;&gt;Node6</title>
<g id="a_edge50_Node000023_Node000006"><a xlink:title=" ">
<path fill="none" stroke="#63b8ff" d="M922.42,-165.67C846.49,-152.93 690.34,-127.41 557.55,-110 412.69,-91.01 372.5,-98.42 224.66,-74"/>
<polygon fill="#63b8ff" stroke="#63b8ff" points="225.2,-70.54 214.76,-72.34 224.05,-77.45 225.2,-70.54"/>
</a>
</g>
</g>
<!-- Node23&#45;&gt;Node11 -->
<g id="edge47_Node000023_Node000011" class="edge">
<title>Node23&#45;&gt;Node11</title>
<g id="a_edge47_Node000023_Node000011"><a xlink:title=" ">
<path fill="none" stroke="#63b8ff" d="M968.66,-164.57C968.31,-150.66 965.46,-123.97 949.55,-110 931.61,-94.26 777.87,-76.34 708.39,-68.96"/>
<polygon fill="#63b8ff" stroke="#63b8ff" points="708.7,-65.47 698.39,-67.9 707.97,-72.43 708.7,-65.47"/>
</a>
</g>
</g>
<!-- Node23&#45;&gt;Node17 -->
<g id="edge49_Node000023_Node000017" class="edge">
<title>Node23&#45;&gt;Node17</title>
<g id="a_edge49_Node000023_Node000017"><a xlink:title=" ">
<path fill="none" stroke="#63b8ff" d="M1014.89,-166.46C1082.83,-156.14 1208.53,-137.06 1274.52,-127.03"/>
<polygon fill="#63b8ff" stroke="#63b8ff" points="1275.22,-130.47 1284.58,-125.51 1274.17,-123.55 1275.22,-130.47"/>
</a>
</g>
</g>
<!-- Node24 -->
<g id="Node000024" class="node">
<title>Node24</title>
<g id="a_Node000024"><a xlink:title=" ">
<polygon fill="#e0e0e0" stroke="#999999" points="940.05,-129 871.05,-129 871.05,-110 940.05,-110 940.05,-129"/>
<text text-anchor="middle" x="905.55" y="-117" font-family="Helvetica,sans-Serif" font-size="10.00">type_traits</text>
</a>
</g>
</g>
<!-- Node23&#45;&gt;Node24 -->
<g id="edge48_Node000023_Node000024" class="edge">
<title>Node23&#45;&gt;Node24</title>
<g id="a_edge48_Node000023_Node000024"><a xlink:title=" ">
<path fill="none" stroke="#63b8ff" d="M958.42,-164.98C949.11,-157.15 935.08,-145.34 923.81,-135.86"/>
<polygon fill="#63b8ff" stroke="#63b8ff" points="925.76,-132.93 915.85,-129.17 921.25,-138.29 925.76,-132.93"/>
</a>
</g>
</g>
<!-- Node25 -->
<g id="Node000025" class="node">
<title>Node25</title>
<g id="a_Node000025"><a xlink:title=" ">
<polygon fill="#e0e0e0" stroke="#999999" points="1200.05,-74 1143.05,-74 1143.05,-55 1200.05,-55 1200.05,-74"/>
<text text-anchor="middle" x="1171.55" y="-62" font-family="Helvetica,sans-Serif" font-size="10.00">ostream</text>
</a>
</g>
</g>
<!-- Node23&#45;&gt;Node25 -->
<g id="edge52_Node000023_Node000025" class="edge">
<title>Node23&#45;&gt;Node25</title>
<g id="a_edge52_Node000023_Node000025"><a xlink:title=" ">
<path fill="none" stroke="#63b8ff" d="M984.82,-164.84C1020.17,-146.04 1104.19,-101.33 1146.42,-78.87"/>
<polygon fill="#63b8ff" stroke="#63b8ff" points="1148.3,-81.83 1155.48,-74.05 1145.01,-75.65 1148.3,-81.83"/>
</a>
</g>
</g>
<!-- Node26 -->
<g id="Node000026" class="node">
<title>Node26</title>
<g id="a_Node000026"><a xlink:title=" ">
<polygon fill="#e0e0e0" stroke="#999999" points="1268.55,-74 1218.55,-74 1218.55,-55 1268.55,-55 1268.55,-74"/>
<text text-anchor="middle" x="1243.55" y="-62" font-family="Helvetica,sans-Serif" font-size="10.00">cstdint</text>
</a>
</g>
</g>
<!-- Node23&#45;&gt;Node26 -->
<g id="edge53_Node000023_Node000026" class="edge">
<title>Node23&#45;&gt;Node26</title>
<g id="a_edge53_Node000023_Node000026"><a xlink:title=" ">
<path fill="none" stroke="#63b8ff" d="M991.05,-164.86C1014.24,-155.93 1051.46,-141.58 1083.55,-129 1128.56,-111.36 1180.57,-90.66 1212.76,-77.81"/>
<polygon fill="#63b8ff" stroke="#63b8ff" points="1214.1,-81.04 1222.09,-74.08 1211.51,-74.54 1214.1,-81.04"/>
</a>
</g>
</g>
<!-- Node23&#45;&gt;Node27 -->
<g id="edge54_Node000023_Node000027" class="edge">
<title>Node23&#45;&gt;Node27</title>
<g id="a_edge54_Node000023_Node000027"><a xlink:title=" ">
<path fill="none" stroke="#63b8ff" d="M976.64,-164.75C983.7,-157.11 994.13,-145.82 1002.7,-136.56"/>
<polygon fill="#63b8ff" stroke="#63b8ff" points="1005.39,-138.81 1009.61,-129.09 1000.25,-134.06 1005.39,-138.81"/>
</a>
</g>
</g>
<!-- Node27&#45;&gt;Node2 -->
<g id="edge64_Node000027_Node000002" class="edge">
<title>Node27&#45;&gt;Node2</title>
<g id="a_edge64_Node000027_Node000002"><a xlink:title=" ">
<path fill="none" stroke="#63b8ff" d="M1002.06,-109.88C987.02,-101.32 963.7,-87.54 944.55,-74 922.89,-58.69 899.48,-39.2 884.01,-25.87"/>
<polygon fill="#63b8ff" stroke="#63b8ff" points="886.15,-23.09 876.3,-19.17 881.55,-28.37 886.15,-23.09"/>
</a>
</g>
</g>
<!-- Node27&#45;&gt;Node5 -->
<g id="edge55_Node000027_Node000005" class="edge">
<title>Node27&#45;&gt;Node5</title>
<g id="a_edge55_Node000027_Node000005"><a xlink:title=" ">
<path fill="none" stroke="#63b8ff" d="M996.83,-113.41C992.14,-112.27 987.17,-111.08 982.55,-110 911.57,-93.4 889.6,-102.58 822.55,-74 793.19,-61.49 763.1,-39.87 744.61,-25.38"/>
<polygon fill="#63b8ff" stroke="#63b8ff" points="746.75,-22.61 736.76,-19.1 742.38,-28.08 746.75,-22.61"/>
</a>
</g>
</g>
<!-- Node27&#45;&gt;Node11 -->
<g id="edge56_Node000027_Node000011" class="edge">
<title>Node27&#45;&gt;Node11</title>
<g id="a_edge56_Node000027_Node000011"><a xlink:title=" ">
<path fill="none" stroke="#63b8ff" d="M996.89,-113.14C992.19,-112.02 987.21,-110.9 982.55,-110 883.63,-90.89 765.39,-76.01 708.47,-69.33"/>
<polygon fill="#63b8ff" stroke="#63b8ff" points="708.58,-65.82 698.25,-68.15 707.77,-72.78 708.58,-65.82"/>
</a>
</g>
</g>
<!-- Node27&#45;&gt;Node13 -->
<g id="edge58_Node000027_Node000013" class="edge">
<title>Node27&#45;&gt;Node13</title>
<g id="a_edge58_Node000027_Node000013"><a xlink:title=" ">
<path fill="none" stroke="#63b8ff" d="M996.75,-115.52C983.31,-113.69 965.42,-111.43 949.55,-110 662.71,-84.12 588.02,-112.04 302.55,-74 302.45,-73.99 302.34,-73.97 302.24,-73.96"/>
<polygon fill="#63b8ff" stroke="#63b8ff" points="303.03,-70.54 292.6,-72.4 301.92,-77.45 303.03,-70.54"/>
</a>
</g>
</g>
<!-- Node27&#45;&gt;Node21 -->
<g id="edge59_Node000027_Node000021" class="edge">
<title>Node27&#45;&gt;Node21</title>
<g id="a_edge59_Node000027_Node000021"><a xlink:title=" ">
<path fill="none" stroke="#63b8ff" d="M996.78,-111.35C971.48,-102.64 928.37,-87.81 898.05,-77.38"/>
<polygon fill="#63b8ff" stroke="#63b8ff" points="898.9,-73.97 888.31,-74.02 896.62,-80.59 898.9,-73.97"/>
</a>
</g>
</g>
<!-- Node27&#45;&gt;Node25 -->
<g id="edge61_Node000027_Node000025" class="edge">
<title>Node27&#45;&gt;Node25</title>
<g id="a_edge61_Node000027_Node000025"><a xlink:title=" ">
<path fill="none" stroke="#63b8ff" d="M1038.32,-111.35C1063.62,-102.64 1106.73,-87.81 1137.04,-77.38"/>
<polygon fill="#63b8ff" stroke="#63b8ff" points="1138.47,-80.59 1146.79,-74.02 1136.19,-73.97 1138.47,-80.59"/>
</a>
</g>
</g>
<!-- Node27&#45;&gt;Node26 -->
<g id="edge60_Node000027_Node000026" class="edge">
<title>Node27&#45;&gt;Node26</title>
<g id="a_edge60_Node000027_Node000026"><a xlink:title=" ">
<path fill="none" stroke="#63b8ff" d="M1038.32,-113.81C1071.91,-106.2 1140.51,-90.54 1208.31,-74.27"/>
<polygon fill="#63b8ff" stroke="#63b8ff" points="1209.4,-77.6 1218.31,-71.86 1207.77,-70.8 1209.4,-77.6"/>
</a>
</g>
</g>
<!-- Node28 -->
<g id="Node000028" class="node">
<title>Node28</title>
<g id="a_Node000028"><a xlink:title=" ">
<polygon fill="#e0e0e0" stroke="#999999" points="994.05,-74 953.05,-74 953.05,-55 994.05,-55 994.05,-74"/>
<text text-anchor="middle" x="973.55" y="-62" font-family="Helvetica,sans-Serif" font-size="10.00">tuple</text>
</a>
</g>
</g>
<!-- Node27&#45;&gt;Node28 -->
<g id="edge57_Node000027_Node000028" class="edge">
<title>Node27&#45;&gt;Node28</title>
<g id="a_edge57_Node000027_Node000028"><a xlink:title=" ">
<path fill="none" stroke="#63b8ff" d="M1010.28,-109.75C1004,-102.18 994.76,-91.05 987.12,-81.84"/>
<polygon fill="#63b8ff" stroke="#63b8ff" points="989.76,-79.55 980.68,-74.09 984.37,-84.02 989.76,-79.55"/>
</a>
</g>
</g>
<!-- Node29 -->
<g id="Node000029" class="node">
<title>Node29</title>
<g id="a_Node000029"><a xlink:href="def__types_8h.html" target="_top" xlink:title=" ">
<polygon fill="white" stroke="#666666" points="1125.05,-74 1012.05,-74 1012.05,-55 1125.05,-55 1125.05,-74"/>
<text text-anchor="middle" x="1068.55" y="-62" font-family="Helvetica,sans-Serif" font-size="10.00">../c_wcf/def_types.h</text>
</a>
</g>
</g>
<!-- Node27&#45;&gt;Node29 -->
<g id="edge62_Node000027_Node000029" class="edge">
<title>Node27&#45;&gt;Node29</title>
<g id="a_edge62_Node000027_Node000029"><a xlink:title=" ">
<path fill="none" stroke="#63b8ff" d="M1025.97,-109.75C1033.32,-102.11 1044.18,-90.82 1053.09,-81.56"/>
<polygon fill="#63b8ff" stroke="#63b8ff" points="1055.87,-83.72 1060.28,-74.09 1050.83,-78.87 1055.87,-83.72"/>
</a>
</g>
</g>
<!-- Node29&#45;&gt;Node2 -->
<g id="edge63_Node000029_Node000002" class="edge">
<title>Node29&#45;&gt;Node2</title>
<g id="a_edge63_Node000029_Node000002"><a xlink:title=" ">
<path fill="none" stroke="#63b8ff" d="M1036.09,-54.98C1001.59,-45.93 946.89,-31.58 908.99,-21.64"/>
<polygon fill="#63b8ff" stroke="#63b8ff" points="909.82,-18.23 899.26,-19.08 908.04,-25.01 909.82,-18.23"/>
</a>
</g>
</g>
<!-- Node30&#45;&gt;Node2 -->
<g id="edge76_Node000030_Node000002" class="edge">
<title>Node30&#45;&gt;Node2</title>
<g id="a_edge76_Node000030_Node000002"><a xlink:title=" ">
<path fill="none" stroke="#63b8ff" d="M1242.07,-164.92C1248.86,-152.37 1262.38,-128.49 1276.55,-110 1289.93,-92.53 1302.42,-94.45 1310.55,-74 1313.67,-66.15 1316.21,-61.26 1310.55,-55 1284.75,-26.49 1031.88,-15.43 919.69,-11.91"/>
<polygon fill="#63b8ff" stroke="#63b8ff" points="919.71,-8.41 909.61,-11.6 919.5,-15.4 919.71,-8.41"/>
</a>
</g>
</g>
<!-- Node30&#45;&gt;Node5 -->
<g id="edge69_Node000030_Node000005" class="edge">
<title>Node30&#45;&gt;Node5</title>
<g id="a_edge69_Node000030_Node000005"><a xlink:title=" ">
<path fill="none" stroke="#63b8ff" d="M1240.18,-164.74C1244,-152.36 1251.49,-129.14 1259.55,-110 1266.49,-93.51 1273.44,-91.41 1277.55,-74 1279.49,-65.78 1283.28,-61.2 1277.55,-55 1242.5,-17.13 865.95,-23.48 814.55,-19 796.11,-17.39 775.51,-15.41 758.89,-13.77"/>
<polygon fill="#63b8ff" stroke="#63b8ff" points="758.89,-10.25 748.6,-12.75 758.2,-17.22 758.89,-10.25"/>
</a>
</g>
</g>
<!-- Node30&#45;&gt;Node14 -->
<g id="edge74_Node000030_Node000014" class="edge">
<title>Node30&#45;&gt;Node14</title>
<g id="a_edge74_Node000030_Node000014"><a xlink:title=" ">
<path fill="none" stroke="#63b8ff" d="M1277.6,-167.78C1351.06,-157.28 1506.05,-135.14 1574.65,-125.34"/>
<polygon fill="#63b8ff" stroke="#63b8ff" points="1575.49,-128.76 1584.89,-123.88 1574.5,-121.83 1575.49,-128.76"/>
</a>
</g>
</g>
<!-- Node30&#45;&gt;Node15 -->
<g id="edge71_Node000030_Node000015" class="edge">
<title>Node30&#45;&gt;Node15</title>
<g id="a_edge71_Node000030_Node000015"><a xlink:title=" ">
<path fill="none" stroke="#63b8ff" d="M1277.61,-169.66C1319.7,-164.52 1387.09,-153.08 1440.55,-129 1467.26,-116.97 1493.87,-95.88 1510.49,-81.32"/>
<polygon fill="#63b8ff" stroke="#63b8ff" points="1513.11,-83.67 1518.22,-74.39 1508.44,-78.46 1513.11,-83.67"/>
</a>
</g>
</g>
<!-- Node30&#45;&gt;Node21 -->
<g id="edge72_Node000030_Node000021" class="edge">
<title>Node30&#45;&gt;Node21</title>
<g id="a_edge72_Node000030_Node000021"><a xlink:title=" ">
<path fill="none" stroke="#63b8ff" d="M1214.05,-164.93C1178.36,-152.07 1108.21,-127.44 1047.55,-110 999.62,-96.22 943.87,-83.14 906.4,-74.78"/>
<polygon fill="#63b8ff" stroke="#63b8ff" points="906.86,-71.29 896.34,-72.54 905.34,-78.13 906.86,-71.29"/>
</a>
</g>
</g>
<!-- Node30&#45;&gt;Node25 -->
<g id="edge68_Node000030_Node000025" class="edge">
<title>Node30&#45;&gt;Node25</title>
<g id="a_edge68_Node000030_Node000025"><a xlink:title=" ">
<path fill="none" stroke="#63b8ff" d="M1230.55,-164.93C1223.56,-156.17 1212.7,-142.05 1204.55,-129 1195.3,-114.2 1186.26,-96.53 1179.99,-83.59"/>
<polygon fill="#63b8ff" stroke="#63b8ff" points="1183.06,-81.9 1175.61,-74.37 1176.74,-84.9 1183.06,-81.9"/>
</a>
</g>
</g>
<!-- Node30&#45;&gt;Node26 -->
<g id="edge73_Node000030_Node000026" class="edge">
<title>Node30&#45;&gt;Node26</title>
<g id="a_edge73_Node000030_Node000026"><a xlink:title=" ">
<path fill="none" stroke="#63b8ff" d="M1277.91,-169.61C1327.07,-163.94 1405.76,-151.55 1423.55,-129 1462.93,-79.08 1342.13,-68.32 1279.16,-66.06"/>
<polygon fill="#63b8ff" stroke="#63b8ff" points="1278.96,-62.55 1268.86,-65.75 1278.74,-69.55 1278.96,-62.55"/>
</a>
</g>
</g>
<!-- Node30&#45;&gt;Node27 -->
<g id="edge75_Node000030_Node000027" class="edge">
<title>Node30&#45;&gt;Node27</title>
<g id="a_edge75_Node000030_Node000027"><a xlink:title=" ">
<path fill="none" stroke="#63b8ff" d="M1202.2,-164.98C1159.52,-154.7 1088.44,-137.58 1048.05,-127.85"/>
<polygon fill="#63b8ff" stroke="#63b8ff" points="1048.78,-124.42 1038.24,-125.49 1047.14,-131.23 1048.78,-124.42"/>
</a>
</g>
</g>
<!-- Node31 -->
<g id="Node000031" class="node">
<title>Node31</title>
<g id="a_Node000031"><a xlink:title=" ">
<polygon fill="#e0e0e0" stroke="#999999" points="1414.55,-129 1368.55,-129 1368.55,-110 1414.55,-110 1414.55,-129"/>
<text text-anchor="middle" x="1391.55" y="-117" font-family="Helvetica,sans-Serif" font-size="10.00">future</text>
</a>
</g>
</g>
<!-- Node30&#45;&gt;Node31 -->
<g id="edge70_Node000030_Node000031" class="edge">
<title>Node30&#45;&gt;Node31</title>
<g id="a_edge70_Node000030_Node000031"><a xlink:title=" ">
<path fill="none" stroke="#63b8ff" d="M1262.29,-164.98C1288.45,-155.98 1329.86,-141.73 1358.73,-131.79"/>
<polygon fill="#63b8ff" stroke="#63b8ff" points="1360.06,-135.04 1368.38,-128.47 1357.78,-128.42 1360.06,-135.04"/>
</a>
</g>
</g>
</g>
</svg>
