<?xml version="1.0" encoding="UTF-8" standalone="no"?>
<!DOCTYPE svg PUBLIC "-//W3C//DTD SVG 1.1//EN"
 "http://www.w3.org/Graphics/SVG/1.1/DTD/svg11.dtd">
<!-- Generated by graphviz version 2.43.0 (0)
 -->
<!-- Title: client/src/robot_link.cc Pages: 1 -->
<svg width="1531pt" height="445pt"
 viewBox="0.00 0.00 1531.14 445.00" xmlns="http://www.w3.org/2000/svg" xmlns:xlink="http://www.w3.org/1999/xlink">
<g id="graph0" class="graph" transform="scale(1 1) rotate(0) translate(4 441)">
<title>client/src/robot_link.cc</title>
<!-- Node1 -->
<g id="Node000001" class="node">
<title>Node1</title>
<g id="a_Node000001"><a xlink:title=" ">
<polygon fill="#999999" stroke="#666666" points="825.5,-437 699.5,-437 699.5,-418 825.5,-418 825.5,-437"/>
<text text-anchor="middle" x="762.5" y="-425" font-family="Helvetica,sans-Serif" font-size="10.00">client/src/robot_link.cc</text>
</a>
</g>
</g>
<!-- Node2 -->
<g id="Node000002" class="node">
<title>Node2</title>
<g id="a_Node000002"><a xlink:href="robot__link_8h.html" target="_top" xlink:title=" ">
<polygon fill="white" stroke="#666666" points="824.5,-316 700.5,-316 700.5,-297 824.5,-297 824.5,-316"/>
<text text-anchor="middle" x="762.5" y="-304" font-family="Helvetica,sans-Serif" font-size="10.00">webcface/robot_link.h</text>
</a>
</g>
</g>
<!-- Node1&#45;&gt;Node2 -->
<g id="edge1_Node000001_Node000002" class="edge">
<title>Node1&#45;&gt;Node2</title>
<g id="a_edge1_Node000001_Node000002"><a xlink:title=" ">
<path fill="none" stroke="#63b8ff" d="M762.5,-417.94C762.5,-398.91 762.5,-352.69 762.5,-326.47"/>
<polygon fill="#63b8ff" stroke="#63b8ff" points="766,-326.3 762.5,-316.3 759,-326.3 766,-326.3"/>
</a>
</g>
</g>
<!-- Node31 -->
<g id="Node000031" class="node">
<title>Node31</title>
<g id="a_Node000031"><a xlink:href="robot__link__internal_8h.html" target="_top" xlink:title=" ">
<polygon fill="white" stroke="#666666" points="734.5,-382 602.5,-382 602.5,-352 734.5,-352 734.5,-382"/>
<text text-anchor="start" x="610.5" y="-370" font-family="Helvetica,sans-Serif" font-size="10.00">webcface/internal/robot</text>
<text text-anchor="middle" x="668.5" y="-359" font-family="Helvetica,sans-Serif" font-size="10.00">_link_internal.h</text>
</a>
</g>
</g>
<!-- Node1&#45;&gt;Node31 -->
<g id="edge60_Node000001_Node000031" class="edge">
<title>Node1&#45;&gt;Node31</title>
<g id="a_edge60_Node000001_Node000031"><a xlink:title=" ">
<path fill="none" stroke="#63b8ff" d="M748.63,-417.87C735.88,-409.93 716.5,-397.87 699.99,-387.6"/>
<polygon fill="#63b8ff" stroke="#63b8ff" points="701.52,-384.43 691.18,-382.11 697.82,-390.37 701.52,-384.43"/>
</a>
</g>
</g>
<!-- Node36 -->
<g id="Node000036" class="node">
<title>Node36</title>
<g id="a_Node000036"><a xlink:title=" ">
<polygon fill="#e0e0e0" stroke="#999999" points="854.5,-376.5 790.5,-376.5 790.5,-357.5 854.5,-357.5 854.5,-376.5"/>
<text text-anchor="middle" x="822.5" y="-364.5" font-family="Helvetica,sans-Serif" font-size="10.00">algorithm</text>
</a>
</g>
</g>
<!-- Node1&#45;&gt;Node36 -->
<g id="edge71_Node000001_Node000036" class="edge">
<title>Node1&#45;&gt;Node36</title>
<g id="a_edge71_Node000001_Node000036"><a xlink:title=" ">
<path fill="none" stroke="#63b8ff" d="M771.35,-417.87C780.48,-408.97 794.92,-394.89 806.14,-383.95"/>
<polygon fill="#63b8ff" stroke="#63b8ff" points="808.89,-386.15 813.61,-376.67 804.01,-381.14 808.89,-386.15"/>
</a>
</g>
</g>
<!-- Node3 -->
<g id="Node000003" class="node">
<title>Node3</title>
<g id="a_Node000003"><a xlink:href="component__view_8h.html" target="_top" xlink:title=" ">
<polygon fill="white" stroke="#666666" points="956,-261 835,-261 835,-231 956,-231 956,-261"/>
<text text-anchor="start" x="843" y="-249" font-family="Helvetica,sans-Serif" font-size="10.00">webcface/component</text>
<text text-anchor="middle" x="895.5" y="-238" font-family="Helvetica,sans-Serif" font-size="10.00">_view.h</text>
</a>
</g>
</g>
<!-- Node2&#45;&gt;Node3 -->
<g id="edge2_Node000002_Node000003" class="edge">
<title>Node2&#45;&gt;Node3</title>
<g id="a_edge2_Node000002_Node000003"><a xlink:title=" ">
<path fill="none" stroke="#63b8ff" d="M781.84,-296.99C800.73,-288.68 830.08,-275.78 854.22,-265.16"/>
<polygon fill="#63b8ff" stroke="#63b8ff" points="855.78,-268.29 863.52,-261.06 852.96,-261.89 855.78,-268.29"/>
</a>
</g>
</g>
<!-- Node8 -->
<g id="Node000008" class="node">
<title>Node8</title>
<g id="a_Node000008"><a xlink:href="webcface-config_8h.html" target="_top" xlink:title=" ">
<polygon fill="white" stroke="#666666" points="891,-19 786,-19 786,0 891,0 891,-19"/>
<text text-anchor="middle" x="838.5" y="-7" font-family="Helvetica,sans-Serif" font-size="10.00">webcface&#45;config.h</text>
</a>
</g>
</g>
<!-- Node2&#45;&gt;Node8 -->
<g id="edge59_Node000002_Node000008" class="edge">
<title>Node2&#45;&gt;Node8</title>
<g id="a_edge59_Node000002_Node000008"><a xlink:title=" ">
<path fill="none" stroke="#63b8ff" d="M758.42,-296.88C750.04,-278.6 731.09,-234.42 724.5,-195 718.18,-157.16 721,-143.61 739.5,-110 759.19,-74.22 795.53,-42.65 818.28,-25.1"/>
<polygon fill="#63b8ff" stroke="#63b8ff" points="820.39,-27.9 826.27,-19.09 816.18,-22.31 820.39,-27.9"/>
</a>
</g>
</g>
<!-- Node15 -->
<g id="Node000015" class="node">
<title>Node15</title>
<g id="a_Node000015"><a xlink:href="common_2encoding_8h.html" target="_top" xlink:title=" ">
<polygon fill="white" stroke="#666666" points="195.5,-74 125.5,-74 125.5,-55 195.5,-55 195.5,-74"/>
<text text-anchor="middle" x="160.5" y="-62" font-family="Helvetica,sans-Serif" font-size="10.00">encoding.h</text>
</a>
</g>
</g>
<!-- Node2&#45;&gt;Node15 -->
<g id="edge39_Node000002_Node000015" class="edge">
<title>Node2&#45;&gt;Node15</title>
<g id="a_edge39_Node000002_Node000015"><a xlink:title=" ">
<path fill="none" stroke="#63b8ff" d="M700.29,-303.98C617.37,-300.81 466.56,-291.05 341.5,-261 261.89,-241.87 235.05,-244.06 169.5,-195 135.76,-169.75 114.28,-150.01 127.5,-110 130.96,-99.54 137.93,-89.53 144.58,-81.66"/>
<polygon fill="#63b8ff" stroke="#63b8ff" points="147.36,-83.8 151.48,-74.04 142.17,-79.1 147.36,-83.8"/>
</a>
</g>
</g>
<!-- Node23 -->
<g id="Node000023" class="node">
<title>Node23</title>
<g id="a_Node000023"><a xlink:href="geometry_8h.html" target="_top" xlink:title=" ">
<polygon fill="white" stroke="#666666" points="1219,-134.5 1098,-134.5 1098,-115.5 1219,-115.5 1219,-134.5"/>
<text text-anchor="middle" x="1158.5" y="-122.5" font-family="Helvetica,sans-Serif" font-size="10.00">webcface/geometry.h</text>
</a>
</g>
</g>
<!-- Node2&#45;&gt;Node23 -->
<g id="edge40_Node000002_Node000023" class="edge">
<title>Node2&#45;&gt;Node23</title>
<g id="a_edge40_Node000002_Node000023"><a xlink:title=" ">
<path fill="none" stroke="#63b8ff" d="M824.7,-297.73C896.9,-286.04 1016.53,-258.14 1098.5,-195 1117.87,-180.08 1135.65,-158.13 1146.75,-143.02"/>
<polygon fill="#63b8ff" stroke="#63b8ff" points="1149.78,-144.79 1152.74,-134.61 1144.08,-140.72 1149.78,-144.79"/>
</a>
</g>
</g>
<!-- Node25 -->
<g id="Node000025" class="node">
<title>Node25</title>
<g id="a_Node000025"><a xlink:href="transform_8h.html" target="_top" xlink:title=" ">
<polygon fill="white" stroke="#666666" points="1365,-195 1242,-195 1242,-176 1365,-176 1365,-195"/>
<text text-anchor="middle" x="1303.5" y="-183" font-family="Helvetica,sans-Serif" font-size="10.00">webcface/transform.h</text>
</a>
</g>
</g>
<!-- Node2&#45;&gt;Node25 -->
<g id="edge44_Node000002_Node000025" class="edge">
<title>Node2&#45;&gt;Node25</title>
<g id="a_edge44_Node000002_Node000025"><a xlink:title=" ">
<path fill="none" stroke="#63b8ff" d="M824.84,-301.89C923.34,-295.66 1110.27,-281.54 1173.5,-261 1215.81,-247.26 1259.6,-218.63 1284.01,-201.14"/>
<polygon fill="#63b8ff" stroke="#63b8ff" points="1286.08,-203.97 1292.09,-195.25 1281.95,-198.31 1286.08,-203.97"/>
</a>
</g>
</g>
<!-- Node4 -->
<g id="Node000004" class="node">
<title>Node4</title>
<g id="a_Node000004"><a xlink:title=" ">
<polygon fill="#e0e0e0" stroke="#999999" points="890,-134.5 825,-134.5 825,-115.5 890,-115.5 890,-134.5"/>
<text text-anchor="middle" x="857.5" y="-122.5" font-family="Helvetica,sans-Serif" font-size="10.00">functional</text>
</a>
</g>
</g>
<!-- Node3&#45;&gt;Node4 -->
<g id="edge3_Node000003_Node000004" class="edge">
<title>Node3&#45;&gt;Node4</title>
<g id="a_edge3_Node000003_Node000004"><a xlink:title=" ">
<path fill="none" stroke="#63b8ff" d="M890.99,-230.88C884.1,-209.31 870.96,-168.15 863.35,-144.31"/>
<polygon fill="#63b8ff" stroke="#63b8ff" points="866.66,-143.17 860.28,-134.71 859.99,-145.3 866.66,-143.17"/>
</a>
</g>
</g>
<!-- Node5 -->
<g id="Node000005" class="node">
<title>Node5</title>
<g id="a_Node000005"><a xlink:title=" ">
<polygon fill="#e0e0e0" stroke="#999999" points="1041.5,-134.5 985.5,-134.5 985.5,-115.5 1041.5,-115.5 1041.5,-134.5"/>
<text text-anchor="middle" x="1013.5" y="-122.5" font-family="Helvetica,sans-Serif" font-size="10.00">optional</text>
</a>
</g>
</g>
<!-- Node3&#45;&gt;Node5 -->
<g id="edge4_Node000003_Node000005" class="edge">
<title>Node3&#45;&gt;Node5</title>
<g id="a_edge4_Node000003_Node000005"><a xlink:title=" ">
<path fill="none" stroke="#63b8ff" d="M956.31,-234.75C998.88,-226.19 1050.4,-212.56 1063.5,-195 1077.46,-176.28 1055.2,-154.42 1036.08,-140.4"/>
<polygon fill="#63b8ff" stroke="#63b8ff" points="1037.86,-137.38 1027.65,-134.55 1033.87,-143.13 1037.86,-137.38"/>
</a>
</g>
</g>
<!-- Node6 -->
<g id="Node000006" class="node">
<title>Node6</title>
<g id="a_Node000006"><a xlink:title=" ">
<polygon fill="#e0e0e0" stroke="#999999" points="1055,-195 962,-195 962,-176 1055,-176 1055,-195"/>
<text text-anchor="middle" x="1008.5" y="-183" font-family="Helvetica,sans-Serif" font-size="10.00">unordered_map</text>
</a>
</g>
</g>
<!-- Node3&#45;&gt;Node6 -->
<g id="edge5_Node000003_Node000006" class="edge">
<title>Node3&#45;&gt;Node6</title>
<g id="a_edge5_Node000003_Node000006"><a xlink:title=" ">
<path fill="none" stroke="#63b8ff" d="M922.57,-230.99C940.75,-221.58 964.57,-209.24 982.52,-199.95"/>
<polygon fill="#63b8ff" stroke="#63b8ff" points="984.54,-202.84 991.81,-195.14 981.32,-196.63 984.54,-202.84"/>
</a>
</g>
</g>
<!-- Node7 -->
<g id="Node000007" class="node">
<title>Node7</title>
<g id="a_Node000007"><a xlink:title=" ">
<polygon fill="#e0e0e0" stroke="#999999" points="914,-74 867,-74 867,-55 914,-55 914,-74"/>
<text text-anchor="middle" x="890.5" y="-62" font-family="Helvetica,sans-Serif" font-size="10.00">vector</text>
</a>
</g>
</g>
<!-- Node3&#45;&gt;Node7 -->
<g id="edge6_Node000003_Node000007" class="edge">
<title>Node3&#45;&gt;Node7</title>
<g id="a_edge6_Node000003_Node000007"><a xlink:title=" ">
<path fill="none" stroke="#63b8ff" d="M956.11,-236.65C1004.02,-228.67 1065.28,-214.88 1080.5,-195 1100.04,-169.48 1081.55,-136.56 1050.5,-110 1031.52,-93.76 964.9,-79.11 923.85,-71.34"/>
<polygon fill="#63b8ff" stroke="#63b8ff" points="924.48,-67.9 914.01,-69.52 923.21,-74.78 924.48,-67.9"/>
</a>
</g>
</g>
<!-- Node3&#45;&gt;Node8 -->
<g id="edge7_Node000003_Node000008" class="edge">
<title>Node3&#45;&gt;Node8</title>
<g id="a_edge7_Node000003_Node000008"><a xlink:title=" ">
<path fill="none" stroke="#63b8ff" d="M903.23,-230.9C920.33,-197.62 957.21,-112.66 922.5,-55 913.41,-39.89 897.28,-29.65 881.56,-22.83"/>
<polygon fill="#63b8ff" stroke="#63b8ff" points="882.49,-19.44 871.9,-19.02 879.92,-25.95 882.49,-19.44"/>
</a>
</g>
</g>
<!-- Node9 -->
<g id="Node000009" class="node">
<title>Node9</title>
<g id="a_Node000009"><a xlink:href="common_2val__adaptor_8h.html" target="_top" xlink:title=" ">
<polygon fill="white" stroke="#666666" points="558,-140 431,-140 431,-110 558,-110 558,-140"/>
<text text-anchor="start" x="439" y="-128" font-family="Helvetica,sans-Serif" font-size="10.00">webcface/common/val</text>
<text text-anchor="middle" x="494.5" y="-117" font-family="Helvetica,sans-Serif" font-size="10.00">_adaptor.h</text>
</a>
</g>
</g>
<!-- Node3&#45;&gt;Node9 -->
<g id="edge8_Node000003_Node000009" class="edge">
<title>Node3&#45;&gt;Node9</title>
<g id="a_edge8_Node000003_Node000009"><a xlink:title=" ">
<path fill="none" stroke="#63b8ff" d="M847.2,-230.97C812.93,-221 765.87,-207.25 724.5,-195 665.16,-177.43 597.31,-157.03 550.76,-143"/>
<polygon fill="#63b8ff" stroke="#63b8ff" points="551.75,-139.64 541.17,-140.1 549.73,-146.34 551.75,-139.64"/>
</a>
</g>
</g>
<!-- Node18 -->
<g id="Node000018" class="node">
<title>Node18</title>
<g id="a_Node000018"><a xlink:href="client_2include_2webcface_2text_8h.html" target="_top" xlink:title=" ">
<polygon fill="white" stroke="#666666" points="829,-195 734,-195 734,-176 829,-176 829,-195"/>
<text text-anchor="middle" x="781.5" y="-183" font-family="Helvetica,sans-Serif" font-size="10.00">webcface/text.h</text>
</a>
</g>
</g>
<!-- Node3&#45;&gt;Node18 -->
<g id="edge21_Node000003_Node000018" class="edge">
<title>Node3&#45;&gt;Node18</title>
<g id="a_edge21_Node000003_Node000018"><a xlink:title=" ">
<path fill="none" stroke="#63b8ff" d="M868.19,-230.99C849.85,-221.58 825.82,-209.24 807.71,-199.95"/>
<polygon fill="#63b8ff" stroke="#63b8ff" points="808.83,-196.59 798.34,-195.14 805.63,-202.82 808.83,-196.59"/>
</a>
</g>
</g>
<!-- Node9&#45;&gt;Node7 -->
<g id="edge10_Node000009_Node000007" class="edge">
<title>Node9&#45;&gt;Node7</title>
<g id="a_edge10_Node000009_Node000007"><a xlink:title=" ">
<path fill="none" stroke="#63b8ff" d="M558.12,-114.6C643.04,-102.06 790.38,-80.29 856.58,-70.51"/>
<polygon fill="#63b8ff" stroke="#63b8ff" points="857.47,-73.92 866.85,-68.99 856.45,-66.99 857.47,-73.92"/>
</a>
</g>
</g>
<!-- Node9&#45;&gt;Node8 -->
<g id="edge20_Node000009_Node000008" class="edge">
<title>Node9&#45;&gt;Node8</title>
<g id="a_edge20_Node000009_Node000008"><a xlink:title=" ">
<path fill="none" stroke="#63b8ff" d="M502.43,-109.72C512.2,-93.59 530.38,-67.91 553.5,-55 590.54,-34.32 703.38,-21.52 775.46,-15.23"/>
<polygon fill="#63b8ff" stroke="#63b8ff" points="776.12,-18.69 785.79,-14.35 775.53,-11.71 776.12,-18.69"/>
</a>
</g>
</g>
<!-- Node10 -->
<g id="Node000010" class="node">
<title>Node10</title>
<g id="a_Node000010"><a xlink:title=" ">
<polygon fill="#e0e0e0" stroke="#999999" points="632.5,-19 588.5,-19 588.5,0 632.5,0 632.5,-19"/>
<text text-anchor="middle" x="610.5" y="-7" font-family="Helvetica,sans-Serif" font-size="10.00">string</text>
</a>
</g>
</g>
<!-- Node9&#45;&gt;Node10 -->
<g id="edge9_Node000009_Node000010" class="edge">
<title>Node9&#45;&gt;Node10</title>
<g id="a_edge9_Node000009_Node000010"><a xlink:title=" ">
<path fill="none" stroke="#63b8ff" d="M496.65,-109.98C499.62,-94.79 506.32,-70.66 520.5,-55 536.04,-37.84 559.69,-26.5 578.85,-19.57"/>
<polygon fill="#63b8ff" stroke="#63b8ff" points="580.04,-22.86 588.39,-16.34 577.79,-16.23 580.04,-22.86"/>
</a>
</g>
</g>
<!-- Node11 -->
<g id="Node000011" class="node">
<title>Node11</title>
<g id="a_Node000011"><a xlink:title=" ">
<polygon fill="#e0e0e0" stroke="#999999" points="400,-74 359,-74 359,-55 400,-55 400,-74"/>
<text text-anchor="middle" x="379.5" y="-62" font-family="Helvetica,sans-Serif" font-size="10.00">tuple</text>
</a>
</g>
</g>
<!-- Node9&#45;&gt;Node11 -->
<g id="edge11_Node000009_Node000011" class="edge">
<title>Node9&#45;&gt;Node11</title>
<g id="a_edge11_Node000009_Node000011"><a xlink:title=" ">
<path fill="none" stroke="#63b8ff" d="M466.95,-109.99C448.28,-100.49 423.76,-88.02 405.44,-78.69"/>
<polygon fill="#63b8ff" stroke="#63b8ff" points="406.98,-75.55 396.48,-74.14 403.81,-81.79 406.98,-75.55"/>
</a>
</g>
</g>
<!-- Node12 -->
<g id="Node000012" class="node">
<title>Node12</title>
<g id="a_Node000012"><a xlink:title=" ">
<polygon fill="#e0e0e0" stroke="#999999" points="468.5,-74 418.5,-74 418.5,-55 468.5,-55 468.5,-74"/>
<text text-anchor="middle" x="443.5" y="-62" font-family="Helvetica,sans-Serif" font-size="10.00">cstdint</text>
</a>
</g>
</g>
<!-- Node9&#45;&gt;Node12 -->
<g id="edge12_Node000009_Node000012" class="edge">
<title>Node9&#45;&gt;Node12</title>
<g id="a_edge12_Node000009_Node000012"><a xlink:title=" ">
<path fill="none" stroke="#63b8ff" d="M482.15,-109.84C474.83,-101.43 465.5,-90.74 457.85,-81.96"/>
<polygon fill="#63b8ff" stroke="#63b8ff" points="460.35,-79.5 451.14,-74.27 455.08,-84.1 460.35,-79.5"/>
</a>
</g>
</g>
<!-- Node13 -->
<g id="Node000013" class="node">
<title>Node13</title>
<g id="a_Node000013"><a xlink:title=" ">
<polygon fill="#e0e0e0" stroke="#999999" points="620,-74 563,-74 563,-55 620,-55 620,-74"/>
<text text-anchor="middle" x="591.5" y="-62" font-family="Helvetica,sans-Serif" font-size="10.00">ostream</text>
</a>
</g>
</g>
<!-- Node9&#45;&gt;Node13 -->
<g id="edge13_Node000009_Node000013" class="edge">
<title>Node9&#45;&gt;Node13</title>
<g id="a_edge13_Node000009_Node000013"><a xlink:title=" ">
<path fill="none" stroke="#63b8ff" d="M517.98,-109.84C533.3,-100.6 553.21,-88.59 568.45,-79.4"/>
<polygon fill="#63b8ff" stroke="#63b8ff" points="570.49,-82.26 577.25,-74.09 566.88,-76.26 570.49,-82.26"/>
</a>
</g>
</g>
<!-- Node14 -->
<g id="Node000014" class="node">
<title>Node14</title>
<g id="a_Node000014"><a xlink:title=" ">
<polygon fill="#e0e0e0" stroke="#999999" points="341,-74 290,-74 290,-55 341,-55 341,-74"/>
<text text-anchor="middle" x="315.5" y="-62" font-family="Helvetica,sans-Serif" font-size="10.00">variant</text>
</a>
</g>
</g>
<!-- Node9&#45;&gt;Node14 -->
<g id="edge14_Node000009_Node000014" class="edge">
<title>Node9&#45;&gt;Node14</title>
<g id="a_edge14_Node000009_Node000014"><a xlink:title=" ">
<path fill="none" stroke="#63b8ff" d="M451.63,-109.99C420.82,-99.92 379.78,-86.51 350.84,-77.05"/>
<polygon fill="#63b8ff" stroke="#63b8ff" points="351.74,-73.66 341.15,-73.88 349.57,-80.32 351.74,-73.66"/>
</a>
</g>
</g>
<!-- Node9&#45;&gt;Node15 -->
<g id="edge15_Node000009_Node000015" class="edge">
<title>Node9&#45;&gt;Node15</title>
<g id="a_edge15_Node000009_Node000015"><a xlink:title=" ">
<path fill="none" stroke="#63b8ff" d="M430.89,-112.86C365.01,-101.32 263.72,-83.58 205.63,-73.4"/>
<polygon fill="#63b8ff" stroke="#63b8ff" points="206.1,-69.93 195.65,-71.66 204.9,-76.83 206.1,-69.93"/>
</a>
</g>
</g>
<!-- Node15&#45;&gt;Node8 -->
<g id="edge19_Node000015_Node000008" class="edge">
<title>Node15&#45;&gt;Node8</title>
<g id="a_edge19_Node000015_Node000008"><a xlink:title=" ">
<path fill="none" stroke="#63b8ff" d="M195.5,-56.99C200.2,-56.24 204.96,-55.55 209.5,-55 415.78,-29.88 661.99,-17.54 775.49,-12.85"/>
<polygon fill="#63b8ff" stroke="#63b8ff" points="775.88,-16.33 785.73,-12.43 775.59,-9.34 775.88,-16.33"/>
</a>
</g>
</g>
<!-- Node15&#45;&gt;Node10 -->
<g id="edge16_Node000015_Node000010" class="edge">
<title>Node15&#45;&gt;Node10</title>
<g id="a_edge16_Node000015_Node000010"><a xlink:title=" ">
<path fill="none" stroke="#63b8ff" d="M195.52,-57.16C200.21,-56.39 204.97,-55.64 209.5,-55 346.09,-35.59 509.87,-19.71 578.15,-13.41"/>
<polygon fill="#63b8ff" stroke="#63b8ff" points="578.63,-16.88 588.27,-12.48 577.99,-9.91 578.63,-16.88"/>
</a>
</g>
</g>
<!-- Node16 -->
<g id="Node000016" class="node">
<title>Node16</title>
<g id="a_Node000016"><a xlink:title=" ">
<polygon fill="#e0e0e0" stroke="#999999" points="483,-19 410,-19 410,0 483,0 483,-19"/>
<text text-anchor="middle" x="446.5" y="-7" font-family="Helvetica,sans-Serif" font-size="10.00">string_view</text>
</a>
</g>
</g>
<!-- Node15&#45;&gt;Node16 -->
<g id="edge17_Node000015_Node000016" class="edge">
<title>Node15&#45;&gt;Node16</title>
<g id="a_edge17_Node000015_Node000016"><a xlink:title=" ">
<path fill="none" stroke="#63b8ff" d="M195.57,-57C246.93,-47.48 342.7,-29.74 399.92,-19.13"/>
<polygon fill="#63b8ff" stroke="#63b8ff" points="400.59,-22.57 409.79,-17.3 399.32,-15.68 400.59,-22.57"/>
</a>
</g>
</g>
<!-- Node17 -->
<g id="Node000017" class="node">
<title>Node17</title>
<g id="a_Node000017"><a xlink:title=" ">
<polygon fill="#e0e0e0" stroke="#999999" points="189.5,-19 131.5,-19 131.5,0 189.5,0 189.5,-19"/>
<text text-anchor="middle" x="160.5" y="-7" font-family="Helvetica,sans-Serif" font-size="10.00">memory</text>
</a>
</g>
</g>
<!-- Node15&#45;&gt;Node17 -->
<g id="edge18_Node000015_Node000017" class="edge">
<title>Node15&#45;&gt;Node17</title>
<g id="a_edge18_Node000015_Node000017"><a xlink:title=" ">
<path fill="none" stroke="#63b8ff" d="M160.5,-54.75C160.5,-47.8 160.5,-37.85 160.5,-29.13"/>
<polygon fill="#63b8ff" stroke="#63b8ff" points="164,-29.09 160.5,-19.09 157,-29.09 164,-29.09"/>
</a>
</g>
</g>
<!-- Node18&#45;&gt;Node4 -->
<g id="edge22_Node000018_Node000004" class="edge">
<title>Node18&#45;&gt;Node4</title>
<g id="a_edge22_Node000018_Node000004"><a xlink:title=" ">
<path fill="none" stroke="#63b8ff" d="M792.71,-175.87C804.61,-166.71 823.64,-152.06 838.01,-141.01"/>
<polygon fill="#63b8ff" stroke="#63b8ff" points="840.45,-143.54 846.24,-134.67 836.18,-137.99 840.45,-143.54"/>
</a>
</g>
</g>
<!-- Node18&#45;&gt;Node5 -->
<g id="edge24_Node000018_Node000005" class="edge">
<title>Node18&#45;&gt;Node5</title>
<g id="a_edge24_Node000018_Node000005"><a xlink:title=" ">
<path fill="none" stroke="#63b8ff" d="M815.23,-175.99C857.79,-165.26 930.78,-146.86 975.33,-135.62"/>
<polygon fill="#63b8ff" stroke="#63b8ff" points="976.36,-138.98 985.2,-133.14 974.65,-132.19 976.36,-138.98"/>
</a>
</g>
</g>
<!-- Node18&#45;&gt;Node8 -->
<g id="edge37_Node000018_Node000008" class="edge">
<title>Node18&#45;&gt;Node8</title>
<g id="a_edge37_Node000018_Node000008"><a xlink:title=" ">
<path fill="none" stroke="#63b8ff" d="M772.22,-175.93C758.03,-161.74 733.93,-132.7 747.5,-110 764.85,-80.99 792.22,-99.42 814.5,-74 825.65,-61.27 831.85,-42.84 835.13,-29.11"/>
<polygon fill="#63b8ff" stroke="#63b8ff" points="838.56,-29.81 837.19,-19.31 831.71,-28.38 838.56,-29.81"/>
</a>
</g>
</g>
<!-- Node18&#45;&gt;Node9 -->
<g id="edge38_Node000018_Node000009" class="edge">
<title>Node18&#45;&gt;Node9</title>
<g id="a_edge38_Node000018_Node000009"><a xlink:title=" ">
<path fill="none" stroke="#63b8ff" d="M739.77,-175.99C694.84,-166.84 622.48,-152.09 567.98,-140.98"/>
<polygon fill="#63b8ff" stroke="#63b8ff" points="568.52,-137.51 558.02,-138.95 567.12,-144.37 568.52,-137.51"/>
</a>
</g>
</g>
<!-- Node18&#45;&gt;Node13 -->
<g id="edge23_Node000018_Node000013" class="edge">
<title>Node18&#45;&gt;Node13</title>
<g id="a_edge23_Node000018_Node000013"><a xlink:title=" ">
<path fill="none" stroke="#63b8ff" d="M733.96,-178.3C688.01,-171.32 622.88,-158.49 605.5,-140 591.59,-125.2 589.36,-101.16 589.79,-84.4"/>
<polygon fill="#63b8ff" stroke="#63b8ff" points="593.3,-84.36 590.4,-74.17 586.31,-83.94 593.3,-84.36"/>
</a>
</g>
</g>
<!-- Node18&#45;&gt;Node17 -->
<g id="edge26_Node000018_Node000017" class="edge">
<title>Node18&#45;&gt;Node17</title>
<g id="a_edge26_Node000018_Node000017"><a xlink:title=" ">
<path fill="none" stroke="#63b8ff" d="M733.8,-180.2C587.97,-166.58 155.54,-122.39 116.5,-74 103.66,-58.09 121.71,-38.61 138.42,-25.46"/>
<polygon fill="#63b8ff" stroke="#63b8ff" points="140.91,-27.97 146.86,-19.21 136.74,-22.34 140.91,-27.97"/>
</a>
</g>
</g>
<!-- Node19 -->
<g id="Node000019" class="node">
<title>Node19</title>
<g id="a_Node000019"><a xlink:title=" ">
<polygon fill="#e0e0e0" stroke="#999999" points="806.5,-134.5 756.5,-134.5 756.5,-115.5 806.5,-115.5 806.5,-134.5"/>
<text text-anchor="middle" x="781.5" y="-122.5" font-family="Helvetica,sans-Serif" font-size="10.00">chrono</text>
</a>
</g>
</g>
<!-- Node18&#45;&gt;Node19 -->
<g id="edge25_Node000018_Node000019" class="edge">
<title>Node18&#45;&gt;Node19</title>
<g id="a_edge25_Node000018_Node000019"><a xlink:title=" ">
<path fill="none" stroke="#63b8ff" d="M781.5,-175.87C781.5,-167.75 781.5,-155.31 781.5,-144.89"/>
<polygon fill="#63b8ff" stroke="#63b8ff" points="785,-144.67 781.5,-134.67 778,-144.67 785,-144.67"/>
</a>
</g>
</g>
<!-- Node20 -->
<g id="Node000020" class="node">
<title>Node20</title>
<g id="a_Node000020"><a xlink:href="field_8h.html" target="_top" xlink:title=" ">
<polygon fill="white" stroke="#666666" points="662,-134.5 615,-134.5 615,-115.5 662,-115.5 662,-134.5"/>
<text text-anchor="middle" x="638.5" y="-122.5" font-family="Helvetica,sans-Serif" font-size="10.00">field.h</text>
</a>
</g>
</g>
<!-- Node18&#45;&gt;Node20 -->
<g id="edge27_Node000018_Node000020" class="edge">
<title>Node18&#45;&gt;Node20</title>
<g id="a_edge27_Node000018_Node000020"><a xlink:title=" ">
<path fill="none" stroke="#63b8ff" d="M760.71,-175.99C736.56,-166.12 696.52,-149.73 668.88,-138.43"/>
<polygon fill="#63b8ff" stroke="#63b8ff" points="669.9,-135.06 659.32,-134.52 667.25,-141.54 669.9,-135.06"/>
</a>
</g>
</g>
<!-- Node20&#45;&gt;Node7 -->
<g id="edge31_Node000020_Node000007" class="edge">
<title>Node20&#45;&gt;Node7</title>
<g id="a_edge31_Node000020_Node000007"><a xlink:title=" ">
<path fill="none" stroke="#63b8ff" d="M662.21,-118.5C707.14,-108.07 804.83,-85.39 856.65,-73.36"/>
<polygon fill="#63b8ff" stroke="#63b8ff" points="857.72,-76.7 866.67,-71.03 856.14,-69.88 857.72,-76.7"/>
</a>
</g>
</g>
<!-- Node20&#45;&gt;Node8 -->
<g id="edge32_Node000020_Node000008" class="edge">
<title>Node20&#45;&gt;Node8</title>
<g id="a_edge32_Node000020_Node000008"><a xlink:title=" ">
<path fill="none" stroke="#63b8ff" d="M653.53,-115.47C687.92,-95.96 772.56,-47.92 814.35,-24.21"/>
<polygon fill="#63b8ff" stroke="#63b8ff" points="816.32,-27.11 823.29,-19.13 812.87,-21.02 816.32,-27.11"/>
</a>
</g>
</g>
<!-- Node20&#45;&gt;Node10 -->
<g id="edge29_Node000020_Node000010" class="edge">
<title>Node20&#45;&gt;Node10</title>
<g id="a_edge29_Node000020_Node000010"><a xlink:title=" ">
<path fill="none" stroke="#63b8ff" d="M656.47,-115.47C679.74,-103.2 715.63,-79.35 700.5,-55 687.91,-34.73 663.06,-23.42 642.65,-17.27"/>
<polygon fill="#63b8ff" stroke="#63b8ff" points="643.34,-13.83 632.77,-14.59 641.5,-20.59 643.34,-13.83"/>
</a>
</g>
</g>
<!-- Node20&#45;&gt;Node15 -->
<g id="edge33_Node000020_Node000015" class="edge">
<title>Node20&#45;&gt;Node15</title>
<g id="a_edge33_Node000020_Node000015"><a xlink:title=" ">
<path fill="none" stroke="#63b8ff" d="M614.91,-118.9C600.9,-116 582.74,-112.46 566.5,-110 436.1,-90.21 280.86,-75.69 205.72,-69.22"/>
<polygon fill="#63b8ff" stroke="#63b8ff" points="205.92,-65.73 195.66,-68.36 205.32,-72.7 205.92,-65.73"/>
</a>
</g>
</g>
<!-- Node20&#45;&gt;Node16 -->
<g id="edge30_Node000020_Node000016" class="edge">
<title>Node20&#45;&gt;Node16</title>
<g id="a_edge30_Node000020_Node000016"><a xlink:title=" ">
<path fill="none" stroke="#63b8ff" d="M646.24,-115.45C657.98,-101.43 677.4,-73.29 662.5,-55 641.61,-29.36 550.56,-18.06 493.54,-13.42"/>
<polygon fill="#63b8ff" stroke="#63b8ff" points="493.56,-9.92 483.32,-12.63 493.02,-16.89 493.56,-9.92"/>
</a>
</g>
</g>
<!-- Node20&#45;&gt;Node17 -->
<g id="edge28_Node000020_Node000017" class="edge">
<title>Node20&#45;&gt;Node17</title>
<g id="a_edge28_Node000020_Node000017"><a xlink:title=" ">
<path fill="none" stroke="#63b8ff" d="M640.25,-115.3C642.65,-100.55 644.98,-70.69 628.5,-55 597.68,-25.66 306.47,-14.59 199.59,-11.5"/>
<polygon fill="#63b8ff" stroke="#63b8ff" points="199.64,-8 189.54,-11.21 199.44,-14.99 199.64,-8"/>
</a>
</g>
</g>
<!-- Node21 -->
<g id="Node000021" class="node">
<title>Node21</title>
<g id="a_Node000021"><a xlink:href="complete_8h.html" target="_top" xlink:title=" ">
<polygon fill="white" stroke="#666666" points="1294,-74 1173,-74 1173,-55 1294,-55 1294,-74"/>
<text text-anchor="middle" x="1233.5" y="-62" font-family="Helvetica,sans-Serif" font-size="10.00">webcface/complete.h</text>
</a>
</g>
</g>
<!-- Node20&#45;&gt;Node21 -->
<g id="edge34_Node000020_Node000021" class="edge">
<title>Node20&#45;&gt;Node21</title>
<g id="a_edge34_Node000020_Node000021"><a xlink:title=" ">
<path fill="none" stroke="#63b8ff" d="M662.29,-120.69C684.35,-117.68 718.1,-113.23 747.5,-110 894.99,-93.78 1068.11,-78.93 1162.78,-71.16"/>
<polygon fill="#63b8ff" stroke="#63b8ff" points="1163.13,-74.65 1172.82,-70.34 1162.56,-67.67 1163.13,-74.65"/>
</a>
</g>
</g>
<!-- Node21&#45;&gt;Node8 -->
<g id="edge36_Node000021_Node000008" class="edge">
<title>Node21&#45;&gt;Node8</title>
<g id="a_edge36_Node000021_Node000008"><a xlink:title=" ">
<path fill="none" stroke="#63b8ff" d="M1172.65,-55.33C1099.07,-45.46 975.85,-28.93 901.38,-18.94"/>
<polygon fill="#63b8ff" stroke="#63b8ff" points="901.58,-15.43 891.2,-17.57 900.65,-22.37 901.58,-15.43"/>
</a>
</g>
</g>
<!-- Node22 -->
<g id="Node000022" class="node">
<title>Node22</title>
<g id="a_Node000022"><a xlink:title=" ">
<polygon fill="#e0e0e0" stroke="#999999" points="1352,-19 1299,-19 1299,0 1352,0 1352,-19"/>
<text text-anchor="middle" x="1325.5" y="-7" font-family="Helvetica,sans-Serif" font-size="10.00">cstddef</text>
</a>
</g>
</g>
<!-- Node21&#45;&gt;Node22 -->
<g id="edge35_Node000021_Node000022" class="edge">
<title>Node21&#45;&gt;Node22</title>
<g id="a_edge35_Node000021_Node000022"><a xlink:title=" ">
<path fill="none" stroke="#63b8ff" d="M1248.28,-54.98C1262.68,-46.69 1284.81,-33.94 1301.69,-24.22"/>
<polygon fill="#63b8ff" stroke="#63b8ff" points="1303.53,-27.19 1310.45,-19.17 1300.04,-21.13 1303.53,-27.19"/>
</a>
</g>
</g>
<!-- Node23&#45;&gt;Node7 -->
<g id="edge42_Node000023_Node000007" class="edge">
<title>Node23&#45;&gt;Node7</title>
<g id="a_edge42_Node000023_Node000007"><a xlink:title=" ">
<path fill="none" stroke="#63b8ff" d="M1119.53,-115.49C1066.81,-103.99 973.65,-83.65 923.94,-72.8"/>
<polygon fill="#63b8ff" stroke="#63b8ff" points="924.54,-69.35 914.03,-70.64 923.05,-76.19 924.54,-69.35"/>
</a>
</g>
</g>
<!-- Node23&#45;&gt;Node8 -->
<g id="edge41_Node000023_Node000008" class="edge">
<title>Node23&#45;&gt;Node8</title>
<g id="a_edge41_Node000023_Node000008"><a xlink:title=" ">
<path fill="none" stroke="#63b8ff" d="M1127.97,-115.5C1095.71,-106.26 1043.5,-90.58 999.5,-74 979.95,-66.63 975.84,-62.91 956.5,-55 928.31,-43.47 895.91,-31.33 872.2,-22.64"/>
<polygon fill="#63b8ff" stroke="#63b8ff" points="873.2,-19.28 862.61,-19.15 870.8,-25.86 873.2,-19.28"/>
</a>
</g>
</g>
<!-- Node24 -->
<g id="Node000024" class="node">
<title>Node24</title>
<g id="a_Node000024"><a xlink:title=" ">
<polygon fill="#e0e0e0" stroke="#999999" points="1078,-74 1009,-74 1009,-55 1078,-55 1078,-74"/>
<text text-anchor="middle" x="1043.5" y="-62" font-family="Helvetica,sans-Serif" font-size="10.00">type_traits</text>
</a>
</g>
</g>
<!-- Node23&#45;&gt;Node24 -->
<g id="edge43_Node000023_Node000024" class="edge">
<title>Node23&#45;&gt;Node24</title>
<g id="a_edge43_Node000023_Node000024"><a xlink:title=" ">
<path fill="none" stroke="#63b8ff" d="M1141.53,-115.37C1122.59,-105.73 1091.71,-90.03 1069.67,-78.81"/>
<polygon fill="#63b8ff" stroke="#63b8ff" points="1071.04,-75.58 1060.54,-74.17 1067.86,-81.82 1071.04,-75.58"/>
</a>
</g>
</g>
<!-- Node25&#45;&gt;Node5 -->
<g id="edge57_Node000025_Node000005" class="edge">
<title>Node25&#45;&gt;Node5</title>
<g id="a_edge57_Node000025_Node000005"><a xlink:title=" ">
<path fill="none" stroke="#63b8ff" d="M1261.33,-175.99C1204.96,-164.62 1105.85,-144.63 1051.62,-133.69"/>
<polygon fill="#63b8ff" stroke="#63b8ff" points="1052.21,-130.24 1041.71,-131.69 1050.82,-137.1 1052.21,-130.24"/>
</a>
</g>
</g>
<!-- Node25&#45;&gt;Node8 -->
<g id="edge45_Node000025_Node000008" class="edge">
<title>Node25&#45;&gt;Node8</title>
<g id="a_edge45_Node000025_Node000008"><a xlink:title=" ">
<path fill="none" stroke="#63b8ff" d="M1343.93,-175.96C1418.84,-158.45 1566.7,-115.04 1510.5,-55 1489.87,-32.96 1064.91,-17.51 901.63,-12.37"/>
<polygon fill="#63b8ff" stroke="#63b8ff" points="901.37,-8.86 891.26,-12.05 901.15,-15.86 901.37,-8.86"/>
</a>
</g>
</g>
<!-- Node26 -->
<g id="Node000026" class="node">
<title>Node26</title>
<g id="a_Node000026"><a xlink:href="array__like_8h.html" target="_top" xlink:title=" ">
<polygon fill="white" stroke="#666666" points="1381.5,-134.5 1307.5,-134.5 1307.5,-115.5 1381.5,-115.5 1381.5,-134.5"/>
<text text-anchor="middle" x="1344.5" y="-122.5" font-family="Helvetica,sans-Serif" font-size="10.00">array_like.h</text>
</a>
</g>
</g>
<!-- Node25&#45;&gt;Node26 -->
<g id="edge46_Node000025_Node000026" class="edge">
<title>Node25&#45;&gt;Node26</title>
<g id="a_edge46_Node000025_Node000026"><a xlink:title=" ">
<path fill="none" stroke="#63b8ff" d="M1309.55,-175.87C1315.61,-167.23 1325.09,-153.7 1332.64,-142.92"/>
<polygon fill="#63b8ff" stroke="#63b8ff" points="1335.55,-144.87 1338.43,-134.67 1329.82,-140.85 1335.55,-144.87"/>
</a>
</g>
</g>
<!-- Node28 -->
<g id="Node000028" class="node">
<title>Node28</title>
<g id="a_Node000028"><a xlink:title=" ">
<polygon fill="#e0e0e0" stroke="#999999" points="1501.5,-74 1459.5,-74 1459.5,-55 1501.5,-55 1501.5,-74"/>
<text text-anchor="middle" x="1480.5" y="-62" font-family="Helvetica,sans-Serif" font-size="10.00">array</text>
</a>
</g>
</g>
<!-- Node25&#45;&gt;Node28 -->
<g id="edge56_Node000025_Node000028" class="edge">
<title>Node25&#45;&gt;Node28</title>
<g id="a_edge56_Node000025_Node000028"><a xlink:title=" ">
<path fill="none" stroke="#63b8ff" d="M1323.18,-175.94C1341.27,-167.72 1368.53,-154.46 1390.5,-140 1417.87,-121.98 1446.54,-97.03 1463.97,-81.08"/>
<polygon fill="#63b8ff" stroke="#63b8ff" points="1466.61,-83.4 1471.57,-74.04 1461.85,-78.27 1466.61,-83.4"/>
</a>
</g>
</g>
<!-- Node30 -->
<g id="Node000030" class="node">
<title>Node30</title>
<g id="a_Node000030"><a xlink:title=" ">
<polygon fill="#e0e0e0" stroke="#999999" points="1289.5,-134.5 1237.5,-134.5 1237.5,-115.5 1289.5,-115.5 1289.5,-134.5"/>
<text text-anchor="middle" x="1263.5" y="-122.5" font-family="Helvetica,sans-Serif" font-size="10.00">cassert</text>
</a>
</g>
</g>
<!-- Node25&#45;&gt;Node30 -->
<g id="edge58_Node000025_Node000030" class="edge">
<title>Node25&#45;&gt;Node30</title>
<g id="a_edge58_Node000025_Node000030"><a xlink:title=" ">
<path fill="none" stroke="#63b8ff" d="M1297.6,-175.87C1291.75,-167.31 1282.63,-153.97 1275.29,-143.24"/>
<polygon fill="#63b8ff" stroke="#63b8ff" points="1277.96,-140.95 1269.43,-134.67 1272.18,-144.9 1277.96,-140.95"/>
</a>
</g>
</g>
<!-- Node26&#45;&gt;Node7 -->
<g id="edge48_Node000026_Node000007" class="edge">
<title>Node26&#45;&gt;Node7</title>
<g id="a_edge48_Node000026_Node000007"><a xlink:title=" ">
<path fill="none" stroke="#63b8ff" d="M1319.41,-115.44C1312.68,-113.4 1305.37,-111.41 1298.5,-110 1226.96,-95.35 1008.4,-75.63 924.13,-68.35"/>
<polygon fill="#63b8ff" stroke="#63b8ff" points="924.34,-64.86 914.07,-67.49 923.74,-71.83 924.34,-64.86"/>
</a>
</g>
</g>
<!-- Node26&#45;&gt;Node8 -->
<g id="edge55_Node000026_Node000008" class="edge">
<title>Node26&#45;&gt;Node8</title>
<g id="a_edge55_Node000026_Node000008"><a xlink:title=" ">
<path fill="none" stroke="#63b8ff" d="M1316.82,-115.4C1310.79,-113.58 1304.44,-111.7 1298.5,-110 1238.79,-92.96 1222.08,-94.61 1163.5,-74 1143.79,-67.07 1140.54,-60.9 1120.5,-55 1046.83,-33.31 959.03,-21.58 901.19,-15.69"/>
<polygon fill="#63b8ff" stroke="#63b8ff" points="901.41,-12.19 891.11,-14.69 900.72,-19.16 901.41,-12.19"/>
</a>
</g>
</g>
<!-- Node26&#45;&gt;Node10 -->
<g id="edge51_Node000026_Node000010" class="edge">
<title>Node26&#45;&gt;Node10</title>
<g id="a_edge51_Node000026_Node000010"><a xlink:title=" ">
<path fill="none" stroke="#63b8ff" d="M1317.86,-115.42C1311.55,-113.52 1304.81,-111.6 1298.5,-110 1220.25,-90.23 1196.19,-102.02 1120.5,-74 1104.27,-67.99 1103.03,-60.14 1086.5,-55 1044.3,-41.88 742.83,-19.79 642.72,-12.74"/>
<polygon fill="#63b8ff" stroke="#63b8ff" points="642.82,-9.23 632.6,-12.03 642.33,-16.22 642.82,-9.23"/>
</a>
</g>
</g>
<!-- Node26&#45;&gt;Node24 -->
<g id="edge50_Node000026_Node000024" class="edge">
<title>Node26&#45;&gt;Node24</title>
<g id="a_edge50_Node000026_Node000024"><a xlink:title=" ">
<path fill="none" stroke="#63b8ff" d="M1318.38,-115.44C1311.92,-113.5 1305,-111.55 1298.5,-110 1295.94,-109.39 1160.99,-85.91 1088.47,-73.31"/>
<polygon fill="#63b8ff" stroke="#63b8ff" points="1088.7,-69.8 1078.25,-71.54 1087.5,-76.7 1088.7,-69.8"/>
</a>
</g>
</g>
<!-- Node27 -->
<g id="Node000027" class="node">
<title>Node27</title>
<g id="a_Node000027"><a xlink:title=" ">
<polygon fill="#e0e0e0" stroke="#999999" points="1377,-74 1312,-74 1312,-55 1377,-55 1377,-74"/>
<text text-anchor="middle" x="1344.5" y="-62" font-family="Helvetica,sans-Serif" font-size="10.00">stdexcept</text>
</a>
</g>
</g>
<!-- Node26&#45;&gt;Node27 -->
<g id="edge47_Node000026_Node000027" class="edge">
<title>Node26&#45;&gt;Node27</title>
<g id="a_edge47_Node000026_Node000027"><a xlink:title=" ">
<path fill="none" stroke="#63b8ff" d="M1344.5,-115.37C1344.5,-107.25 1344.5,-94.81 1344.5,-84.39"/>
<polygon fill="#63b8ff" stroke="#63b8ff" points="1348,-84.17 1344.5,-74.17 1341,-84.17 1348,-84.17"/>
</a>
</g>
</g>
<!-- Node26&#45;&gt;Node28 -->
<g id="edge49_Node000026_Node000028" class="edge">
<title>Node26&#45;&gt;Node28</title>
<g id="a_edge49_Node000026_Node000028"><a xlink:title=" ">
<path fill="none" stroke="#63b8ff" d="M1364.28,-115.49C1387.14,-105.66 1424.99,-89.38 1451.26,-78.08"/>
<polygon fill="#63b8ff" stroke="#63b8ff" points="1452.9,-81.18 1460.7,-74.02 1450.13,-74.75 1452.9,-81.18"/>
</a>
</g>
</g>
<!-- Node29 -->
<g id="Node000029" class="node">
<title>Node29</title>
<g id="a_Node000029"><a xlink:href="trait_8h.html" target="_top" xlink:title=" ">
<polygon fill="white" stroke="#666666" points="1441.5,-74 1395.5,-74 1395.5,-55 1441.5,-55 1441.5,-74"/>
<text text-anchor="middle" x="1418.5" y="-62" font-family="Helvetica,sans-Serif" font-size="10.00">trait.h</text>
</a>
</g>
</g>
<!-- Node26&#45;&gt;Node29 -->
<g id="edge52_Node000026_Node000029" class="edge">
<title>Node26&#45;&gt;Node29</title>
<g id="a_edge52_Node000026_Node000029"><a xlink:title=" ">
<path fill="none" stroke="#63b8ff" d="M1355.42,-115.37C1367.01,-106.21 1385.53,-91.56 1399.52,-80.51"/>
<polygon fill="#63b8ff" stroke="#63b8ff" points="1401.86,-83.11 1407.54,-74.17 1397.52,-77.62 1401.86,-83.11"/>
</a>
</g>
</g>
<!-- Node29&#45;&gt;Node8 -->
<g id="edge54_Node000029_Node000008" class="edge">
<title>Node29&#45;&gt;Node8</title>
<g id="a_edge54_Node000029_Node000008"><a xlink:title=" ">
<path fill="none" stroke="#63b8ff" d="M1395.19,-56.79C1392.28,-56.11 1389.33,-55.49 1386.5,-55 1212.34,-25.04 1003.46,-15.14 901.18,-11.96"/>
<polygon fill="#63b8ff" stroke="#63b8ff" points="901.13,-8.45 891.03,-11.65 900.92,-15.45 901.13,-8.45"/>
</a>
</g>
</g>
<!-- Node29&#45;&gt;Node22 -->
<g id="edge53_Node000029_Node000022" class="edge">
<title>Node29&#45;&gt;Node22</title>
<g id="a_edge53_Node000029_Node000022"><a xlink:title=" ">
<path fill="none" stroke="#63b8ff" d="M1403.56,-54.98C1389,-46.69 1366.63,-33.94 1349.57,-24.22"/>
<polygon fill="#63b8ff" stroke="#63b8ff" points="1351.14,-21.08 1340.71,-19.17 1347.67,-27.16 1351.14,-21.08"/>
</a>
</g>
</g>
<!-- Node31&#45;&gt;Node2 -->
<g id="edge70_Node000031_Node000002" class="edge">
<title>Node31&#45;&gt;Node2</title>
<g id="a_edge70_Node000031_Node000002"><a xlink:title=" ">
<path fill="none" stroke="#63b8ff" d="M691.25,-351.84C706.1,-342.6 725.4,-330.59 740.16,-321.4"/>
<polygon fill="#63b8ff" stroke="#63b8ff" points="742.05,-324.35 748.69,-316.09 738.35,-318.41 742.05,-324.35"/>
</a>
</g>
</g>
<!-- Node32 -->
<g id="Node000032" class="node">
<title>Node32</title>
<g id="a_Node000032"><a xlink:href="common_2include_2webcface_2common_2internal_2message_2robot__model_8h.html" target="_top" xlink:title=" ">
<polygon fill="white" stroke="#666666" points="500,-261 351,-261 351,-231 500,-231 500,-261"/>
<text text-anchor="start" x="359" y="-249" font-family="Helvetica,sans-Serif" font-size="10.00">webcface/common/internal</text>
<text text-anchor="middle" x="425.5" y="-238" font-family="Helvetica,sans-Serif" font-size="10.00">/message/robot_model.h</text>
</a>
</g>
</g>
<!-- Node31&#45;&gt;Node32 -->
<g id="edge61_Node000031_Node000032" class="edge">
<title>Node31&#45;&gt;Node32</title>
<g id="a_edge61_Node000031_Node000032"><a xlink:title=" ">
<path fill="none" stroke="#63b8ff" d="M639.67,-351.88C595.83,-330.41 512.34,-289.53 463.56,-265.64"/>
<polygon fill="#63b8ff" stroke="#63b8ff" points="464.81,-262.35 454.29,-261.1 461.73,-268.64 464.81,-262.35"/>
</a>
</g>
</g>
<!-- Node32&#45;&gt;Node7 -->
<g id="edge69_Node000032_Node000007" class="edge">
<title>Node32&#45;&gt;Node7</title>
<g id="a_edge69_Node000032_Node000007"><a xlink:title=" ">
<path fill="none" stroke="#63b8ff" d="M500.25,-241.33C602.25,-235.4 779.06,-221.61 837.5,-195 870.72,-179.87 883.66,-173.35 898.5,-140 906.49,-122.04 902.26,-99.32 897.45,-83.72"/>
<polygon fill="#63b8ff" stroke="#63b8ff" points="900.74,-82.52 894.17,-74.21 894.12,-84.8 900.74,-82.52"/>
</a>
</g>
</g>
<!-- Node32&#45;&gt;Node15 -->
<g id="edge68_Node000032_Node000015" class="edge">
<title>Node32&#45;&gt;Node15</title>
<g id="a_edge68_Node000032_Node000015"><a xlink:title=" ">
<path fill="none" stroke="#63b8ff" d="M350.84,-240.83C282.39,-232.58 184.59,-208.64 136.5,-140 124.25,-122.51 136.08,-98.42 147.05,-82.42"/>
<polygon fill="#63b8ff" stroke="#63b8ff" points="150.1,-84.18 153.22,-74.05 144.47,-80.02 150.1,-84.18"/>
</a>
</g>
</g>
<!-- Node33 -->
<g id="Node000033" class="node">
<title>Node33</title>
<g id="a_Node000033"><a xlink:href="base_8h.html" target="_top" xlink:title=" ">
<polygon fill="white" stroke="#666666" points="375,-195 320,-195 320,-176 375,-176 375,-195"/>
<text text-anchor="middle" x="347.5" y="-183" font-family="Helvetica,sans-Serif" font-size="10.00">./base.h</text>
</a>
</g>
</g>
<!-- Node32&#45;&gt;Node33 -->
<g id="edge62_Node000032_Node000033" class="edge">
<title>Node32&#45;&gt;Node33</title>
<g id="a_edge62_Node000032_Node000033"><a xlink:title=" ">
<path fill="none" stroke="#63b8ff" d="M406.62,-230.84C394.72,-221.91 379.38,-210.41 367.3,-201.35"/>
<polygon fill="#63b8ff" stroke="#63b8ff" points="369.29,-198.47 359.19,-195.27 365.09,-204.07 369.29,-198.47"/>
</a>
</g>
</g>
<!-- Node33&#45;&gt;Node8 -->
<g id="edge63_Node000033_Node000008" class="edge">
<title>Node33&#45;&gt;Node8</title>
<g id="a_edge63_Node000033_Node000008"><a xlink:title=" ">
<path fill="none" stroke="#63b8ff" d="M336.78,-175.99C310.06,-153.82 245.12,-93.31 280.5,-55 297.1,-37.02 633.14,-19.78 775.57,-13.25"/>
<polygon fill="#63b8ff" stroke="#63b8ff" points="776.06,-16.73 785.89,-12.78 775.74,-9.74 776.06,-16.73"/>
</a>
</g>
</g>
<!-- Node33&#45;&gt;Node9 -->
<g id="edge67_Node000033_Node000009" class="edge">
<title>Node33&#45;&gt;Node9</title>
<g id="a_edge67_Node000033_Node000009"><a xlink:title=" ">
<path fill="none" stroke="#63b8ff" d="M368.88,-175.99C389.94,-167.61 422.77,-154.55 449.58,-143.87"/>
<polygon fill="#63b8ff" stroke="#63b8ff" points="451.16,-147.01 459.16,-140.06 448.57,-140.51 451.16,-147.01"/>
</a>
</g>
</g>
<!-- Node34 -->
<g id="Node000034" class="node">
<title>Node34</title>
<g id="a_Node000034"><a xlink:href="fmt_8h.html" target="_top" xlink:title=" ">
<polygon fill="white" stroke="#666666" points="195,-134.5 146,-134.5 146,-115.5 195,-115.5 195,-134.5"/>
<text text-anchor="middle" x="170.5" y="-122.5" font-family="Helvetica,sans-Serif" font-size="10.00">./fmt.h</text>
</a>
</g>
</g>
<!-- Node33&#45;&gt;Node34 -->
<g id="edge64_Node000033_Node000034" class="edge">
<title>Node33&#45;&gt;Node34</title>
<g id="a_edge64_Node000033_Node000034"><a xlink:title=" ">
<path fill="none" stroke="#63b8ff" d="M320.18,-175.98C292.28,-167.21 247.75,-153.03 209.5,-140 207.61,-139.36 205.67,-138.69 203.72,-138.01"/>
<polygon fill="#63b8ff" stroke="#63b8ff" points="204.56,-134.59 193.97,-134.56 202.23,-141.19 204.56,-134.59"/>
</a>
</g>
</g>
<!-- Node34&#45;&gt;Node8 -->
<g id="edge65_Node000034_Node000008" class="edge">
<title>Node34&#45;&gt;Node8</title>
<g id="a_edge65_Node000034_Node000008"><a xlink:title=" ">
<path fill="none" stroke="#63b8ff" d="M176.96,-115.27C188.91,-99.9 216.13,-68.37 247.5,-55 295.12,-34.71 632.99,-18.82 775.43,-12.95"/>
<polygon fill="#63b8ff" stroke="#63b8ff" points="775.9,-16.44 785.74,-12.53 775.61,-9.44 775.9,-16.44"/>
</a>
</g>
</g>
<!-- Node35 -->
<g id="Node000035" class="node">
<title>Node35</title>
<g id="a_Node000035"><a xlink:title=" ">
<polygon fill="#e0e0e0" stroke="#999999" points="69,-74 0,-74 0,-55 69,-55 69,-74"/>
<text text-anchor="middle" x="34.5" y="-62" font-family="Helvetica,sans-Serif" font-size="10.00">fmt/base.h</text>
</a>
</g>
</g>
<!-- Node34&#45;&gt;Node35 -->
<g id="edge66_Node000034_Node000035" class="edge">
<title>Node34&#45;&gt;Node35</title>
<g id="a_edge66_Node000034_Node000035"><a xlink:title=" ">
<path fill="none" stroke="#63b8ff" d="M150.72,-115.49C127.86,-105.66 90.01,-89.38 63.74,-78.08"/>
<polygon fill="#63b8ff" stroke="#63b8ff" points="64.87,-74.75 54.3,-74.02 62.1,-81.18 64.87,-74.75"/>
</a>
</g>
</g>
</g>
</svg>
