<?xml version="1.0" encoding="UTF-8" standalone="no"?>
<!DOCTYPE svg PUBLIC "-//W3C//DTD SVG 1.1//EN"
 "http://www.w3.org/Graphics/SVG/1.1/DTD/svg11.dtd">
<!-- Generated by graphviz version 2.43.0 (0)
 -->
<!-- Title: server/s_client_data.h Pages: 1 -->
<svg width="1739pt" height="368pt"
 viewBox="0.00 0.00 1739.00 368.00" xmlns="http://www.w3.org/2000/svg" xmlns:xlink="http://www.w3.org/1999/xlink">
<g id="graph0" class="graph" transform="scale(1 1) rotate(0) translate(4 364)">
<title>server/s_client_data.h</title>
<!-- Node1 -->
<g id="Node000001" class="node">
<title>Node1</title>
<g id="a_Node000001"><a xlink:title=" ">
<polygon fill="#999999" stroke="#666666" points="975,-360 851,-360 851,-341 975,-341 975,-360"/>
<text text-anchor="middle" x="913" y="-348" font-family="Helvetica,sans-Serif" font-size="10.00">server/s_client_data.h</text>
</a>
</g>
</g>
<!-- Node2 -->
<g id="Node000002" class="node">
<title>Node2</title>
<g id="a_Node000002"><a xlink:title=" ">
<polygon fill="#e0e0e0" stroke="#999999" points="253,-19 209,-19 209,0 253,0 253,-19"/>
<text text-anchor="middle" x="231" y="-7" font-family="Helvetica,sans-Serif" font-size="10.00">string</text>
</a>
</g>
</g>
<!-- Node1&#45;&gt;Node2 -->
<g id="edge1_Node000001_Node000002" class="edge">
<title>Node1&#45;&gt;Node2</title>
<g id="a_edge1_Node000001_Node000002"><a xlink:title=" ">
<path fill="none" stroke="#63b8ff" d="M850.99,-348.33C697.07,-345.02 300.66,-333.87 172,-305 91.63,-286.97 0,-318.37 0,-236 0,-236 0,-236 0,-118.5 0,-31.87 134.97,-14.57 198.57,-11.23"/>
<polygon fill="#63b8ff" stroke="#63b8ff" points="199.01,-14.72 208.85,-10.78 198.71,-7.72 199.01,-14.72"/>
</a>
</g>
</g>
<!-- Node3 -->
<g id="Node000003" class="node">
<title>Node3</title>
<g id="a_Node000003"><a xlink:title=" ">
<polygon fill="#e0e0e0" stroke="#999999" points="973,-305 941,-305 941,-286 973,-286 973,-305"/>
<text text-anchor="middle" x="957" y="-293" font-family="Helvetica,sans-Serif" font-size="10.00">set</text>
</a>
</g>
</g>
<!-- Node1&#45;&gt;Node3 -->
<g id="edge2_Node000001_Node000003" class="edge">
<title>Node1&#45;&gt;Node3</title>
<g id="a_edge2_Node000001_Node000003"><a xlink:title=" ">
<path fill="none" stroke="#63b8ff" d="M920.27,-340.75C926.54,-333.18 935.79,-322.05 943.43,-312.84"/>
<polygon fill="#63b8ff" stroke="#63b8ff" points="946.17,-315.02 949.87,-305.09 940.79,-310.55 946.17,-315.02"/>
</a>
</g>
</g>
<!-- Node4 -->
<g id="Node000004" class="node">
<title>Node4</title>
<g id="a_Node000004"><a xlink:title=" ">
<polygon fill="#e0e0e0" stroke="#999999" points="292.5,-129 199.5,-129 199.5,-110 292.5,-110 292.5,-129"/>
<text text-anchor="middle" x="246" y="-117" font-family="Helvetica,sans-Serif" font-size="10.00">unordered_map</text>
</a>
</g>
</g>
<!-- Node1&#45;&gt;Node4 -->
<g id="edge3_Node000001_Node000004" class="edge">
<title>Node1&#45;&gt;Node4</title>
<g id="a_edge3_Node000001_Node000004"><a xlink:title=" ">
<path fill="none" stroke="#63b8ff" d="M850.74,-348.56C711.93,-345.93 380.88,-336.45 274,-305 194.78,-281.69 155.66,-263.41 133,-184 130.68,-175.88 128.25,-171.98 133,-165 145.92,-146.03 168.27,-135.15 189.71,-128.91"/>
<polygon fill="#63b8ff" stroke="#63b8ff" points="190.67,-132.27 199.46,-126.35 188.89,-125.5 190.67,-132.27"/>
</a>
</g>
</g>
<!-- Node5 -->
<g id="Node000005" class="node">
<title>Node5</title>
<g id="a_Node000005"><a xlink:title=" ">
<polygon fill="#e0e0e0" stroke="#999999" points="192,-184 142,-184 142,-165 192,-165 192,-184"/>
<text text-anchor="middle" x="167" y="-172" font-family="Helvetica,sans-Serif" font-size="10.00">chrono</text>
</a>
</g>
</g>
<!-- Node1&#45;&gt;Node5 -->
<g id="edge4_Node000001_Node000005" class="edge">
<title>Node1&#45;&gt;Node5</title>
<g id="a_edge4_Node000001_Node000005"><a xlink:title=" ">
<path fill="none" stroke="#63b8ff" d="M850.91,-348.68C696.23,-345.44 298.88,-329.41 198,-250 180.66,-236.35 172.92,-211.3 169.54,-194.04"/>
<polygon fill="#63b8ff" stroke="#63b8ff" points="172.96,-193.32 167.88,-184.02 166.06,-194.46 172.96,-193.32"/>
</a>
</g>
</g>
<!-- Node6 -->
<g id="Node000006" class="node">
<title>Node6</title>
<g id="a_Node000006"><a xlink:title=" ">
<polygon fill="#e0e0e0" stroke="#999999" points="506,-74 450,-74 450,-55 506,-55 506,-74"/>
<text text-anchor="middle" x="478" y="-62" font-family="Helvetica,sans-Serif" font-size="10.00">optional</text>
</a>
</g>
</g>
<!-- Node1&#45;&gt;Node6 -->
<g id="edge5_Node000001_Node000006" class="edge">
<title>Node1&#45;&gt;Node6</title>
<g id="a_edge5_Node000001_Node000006"><a xlink:title=" ">
<path fill="none" stroke="#63b8ff" d="M850.93,-342.52C749.41,-329.35 559,-296.59 559,-236 559,-236 559,-236 559,-173.5 559,-133.63 523.23,-99.06 499.24,-80.35"/>
<polygon fill="#63b8ff" stroke="#63b8ff" points="501.12,-77.39 491.01,-74.19 496.92,-82.99 501.12,-77.39"/>
</a>
</g>
</g>
<!-- Node7 -->
<g id="Node000007" class="node">
<title>Node7</title>
<g id="a_Node000007"><a xlink:title=" ">
<polygon fill="#e0e0e0" stroke="#999999" points="1039,-305 991,-305 991,-286 1039,-286 1039,-305"/>
<text text-anchor="middle" x="1015" y="-293" font-family="Helvetica,sans-Serif" font-size="10.00">mutex</text>
</a>
</g>
</g>
<!-- Node1&#45;&gt;Node7 -->
<g id="edge6_Node000001_Node000007" class="edge">
<title>Node1&#45;&gt;Node7</title>
<g id="a_edge6_Node000001_Node000007"><a xlink:title=" ">
<path fill="none" stroke="#63b8ff" d="M929.39,-340.98C945.57,-332.57 970.57,-319.59 989.38,-309.81"/>
<polygon fill="#63b8ff" stroke="#63b8ff" points="991.05,-312.89 998.31,-305.17 987.83,-306.68 991.05,-312.89"/>
</a>
</g>
</g>
<!-- Node8 -->
<g id="Node000008" class="node">
<title>Node8</title>
<g id="a_Node000008"><a xlink:title=" ">
<polygon fill="#e0e0e0" stroke="#999999" points="1107,-305 1057,-305 1057,-286 1107,-286 1107,-305"/>
<text text-anchor="middle" x="1082" y="-293" font-family="Helvetica,sans-Serif" font-size="10.00">atomic</text>
</a>
</g>
</g>
<!-- Node1&#45;&gt;Node8 -->
<g id="edge7_Node000001_Node000008" class="edge">
<title>Node1&#45;&gt;Node8</title>
<g id="a_edge7_Node000001_Node000008"><a xlink:title=" ">
<path fill="none" stroke="#63b8ff" d="M940.15,-340.98C969.2,-331.88 1015.36,-317.4 1047.09,-307.45"/>
<polygon fill="#63b8ff" stroke="#63b8ff" points="1048.35,-310.72 1056.85,-304.39 1046.26,-304.04 1048.35,-310.72"/>
</a>
</g>
</g>
<!-- Node9 -->
<g id="Node000009" class="node">
<title>Node9</title>
<g id="a_Node000009"><a xlink:title=" ">
<polygon fill="#e0e0e0" stroke="#999999" points="1232.5,-305 1125.5,-305 1125.5,-286 1232.5,-286 1232.5,-305"/>
<text text-anchor="middle" x="1179" y="-293" font-family="Helvetica,sans-Serif" font-size="10.00">condition_variable</text>
</a>
</g>
</g>
<!-- Node1&#45;&gt;Node9 -->
<g id="edge8_Node000001_Node000009" class="edge">
<title>Node1&#45;&gt;Node9</title>
<g id="a_edge8_Node000001_Node000009"><a xlink:title=" ">
<path fill="none" stroke="#63b8ff" d="M955.74,-340.98C1002.04,-331.76 1075.98,-317.03 1125.96,-307.07"/>
<polygon fill="#63b8ff" stroke="#63b8ff" points="1126.8,-310.47 1135.93,-305.08 1125.44,-303.6 1126.8,-310.47"/>
</a>
</g>
</g>
<!-- Node10 -->
<g id="Node000010" class="node">
<title>Node10</title>
<g id="a_Node000010"><a xlink:title=" ">
<polygon fill="#e0e0e0" stroke="#999999" points="1299,-305 1251,-305 1251,-286 1299,-286 1299,-305"/>
<text text-anchor="middle" x="1275" y="-293" font-family="Helvetica,sans-Serif" font-size="10.00">thread</text>
</a>
</g>
</g>
<!-- Node1&#45;&gt;Node10 -->
<g id="edge9_Node000001_Node000010" class="edge">
<title>Node1&#45;&gt;Node10</title>
<g id="a_edge9_Node000001_Node000010"><a xlink:title=" ">
<path fill="none" stroke="#63b8ff" d="M975.3,-343.12C1041.52,-335.85 1149.16,-322.66 1241,-305 1241.1,-304.98 1241.2,-304.96 1241.3,-304.94"/>
<polygon fill="#63b8ff" stroke="#63b8ff" points="1241.89,-308.4 1250.93,-302.87 1240.41,-301.55 1241.89,-308.4"/>
</a>
</g>
</g>
<!-- Node11 -->
<g id="Node000011" class="node">
<title>Node11</title>
<g id="a_Node000011"><a xlink:href="message_8h.html" target="_top" xlink:title=" ">
<polygon fill="white" stroke="#666666" points="885,-305 759,-305 759,-286 885,-286 885,-305"/>
<text text-anchor="middle" x="822" y="-293" font-family="Helvetica,sans-Serif" font-size="10.00">../message/message.h</text>
</a>
</g>
</g>
<!-- Node1&#45;&gt;Node11 -->
<g id="edge10_Node000001_Node000011" class="edge">
<title>Node1&#45;&gt;Node11</title>
<g id="a_edge10_Node000001_Node000011"><a xlink:title=" ">
<path fill="none" stroke="#63b8ff" d="M898.38,-340.98C884.14,-332.69 862.25,-319.94 845.55,-310.22"/>
<polygon fill="#63b8ff" stroke="#63b8ff" points="847.29,-307.18 836.89,-305.17 843.77,-313.23 847.29,-307.18"/>
</a>
</g>
</g>
<!-- Node18 -->
<g id="Node000018" class="node">
<title>Node18</title>
<g id="a_Node000018"><a xlink:title=" ">
<polygon fill="#e0e0e0" stroke="#999999" points="1615.5,-244.5 1524.5,-244.5 1524.5,-225.5 1615.5,-225.5 1615.5,-244.5"/>
<text text-anchor="middle" x="1570" y="-232.5" font-family="Helvetica,sans-Serif" font-size="10.00">spdlog/logger.h</text>
</a>
</g>
</g>
<!-- Node1&#45;&gt;Node18 -->
<g id="edge79_Node000001_Node000018" class="edge">
<title>Node1&#45;&gt;Node18</title>
<g id="a_edge79_Node000001_Node000018"><a xlink:title=" ">
<path fill="none" stroke="#63b8ff" d="M912.73,-340.84C912.8,-326.8 915.24,-299.31 932,-286 982.39,-245.98 1446.34,-259.34 1510,-250 1515.83,-249.14 1521.93,-248.01 1527.91,-246.75"/>
<polygon fill="#63b8ff" stroke="#63b8ff" points="1528.8,-250.14 1537.8,-244.55 1527.28,-243.31 1528.8,-250.14"/>
</a>
</g>
</g>
<!-- Node27 -->
<g id="Node000027" class="node">
<title>Node27</title>
<g id="a_Node000027"><a xlink:href="def_8h.html" target="_top" xlink:title=" ">
<polygon fill="white" stroke="#666666" points="747.5,-19 706.5,-19 706.5,0 747.5,0 747.5,-19"/>
<text text-anchor="middle" x="727" y="-7" font-family="Helvetica,sans-Serif" font-size="10.00">def.h</text>
</a>
</g>
</g>
<!-- Node1&#45;&gt;Node27 -->
<g id="edge80_Node000001_Node000027" class="edge">
<title>Node1&#45;&gt;Node27</title>
<g id="a_edge80_Node000001_Node000027"><a xlink:title=" ">
<path fill="none" stroke="#63b8ff" d="M850.75,-350.12C702.16,-350.87 330.51,-348.21 215,-305 177.28,-290.89 165.01,-283.72 143,-250 90.32,-169.26 150.61,-95.7 238,-55 320.04,-16.8 602.35,-11.35 696.31,-10.61"/>
<polygon fill="#63b8ff" stroke="#63b8ff" points="696.34,-14.11 706.31,-10.54 696.29,-7.11 696.34,-14.11"/>
</a>
</g>
</g>
<!-- Node40 -->
<g id="Node000040" class="node">
<title>Node40</title>
<g id="a_Node000040"><a xlink:title=" ">
<polygon fill="#e0e0e0" stroke="#999999" points="1421,-305 1317,-305 1317,-286 1421,-286 1421,-305"/>
<text text-anchor="middle" x="1369" y="-293" font-family="Helvetica,sans-Serif" font-size="10.00">spdlog/common.h</text>
</a>
</g>
</g>
<!-- Node1&#45;&gt;Node40 -->
<g id="edge78_Node000001_Node000040" class="edge">
<title>Node1&#45;&gt;Node40</title>
<g id="a_edge78_Node000001_Node000040"><a xlink:title=" ">
<path fill="none" stroke="#63b8ff" d="M975.32,-342.99C1051.15,-334.95 1183.37,-320.58 1306.76,-305.13"/>
<polygon fill="#63b8ff" stroke="#63b8ff" points="1307.28,-308.59 1316.77,-303.87 1306.41,-301.64 1307.28,-308.59"/>
</a>
</g>
</g>
<!-- Node11&#45;&gt;Node2 -->
<g id="edge12_Node000011_Node000002" class="edge">
<title>Node11&#45;&gt;Node2</title>
<g id="a_edge12_Node000011_Node000002"><a xlink:title=" ">
<path fill="none" stroke="#63b8ff" d="M759,-292.53C610.65,-287.52 248.02,-273.07 198,-250 115.29,-211.86 85.28,-131.31 135,-55 149.11,-33.34 176.71,-22.05 198.71,-16.27"/>
<polygon fill="#63b8ff" stroke="#63b8ff" points="199.74,-19.62 208.67,-13.92 198.13,-12.81 199.74,-19.62"/>
</a>
</g>
</g>
<!-- Node12 -->
<g id="Node000012" class="node">
<title>Node12</title>
<g id="a_Node000012"><a xlink:title=" ">
<polygon fill="#e0e0e0" stroke="#999999" points="1270,-74 1188,-74 1188,-55 1270,-55 1270,-74"/>
<text text-anchor="middle" x="1229" y="-62" font-family="Helvetica,sans-Serif" font-size="10.00">msgpack.hpp</text>
</a>
</g>
</g>
<!-- Node11&#45;&gt;Node12 -->
<g id="edge11_Node000011_Node000012" class="edge">
<title>Node11&#45;&gt;Node12</title>
<g id="a_edge11_Node000011_Node000012"><a xlink:title=" ">
<path fill="none" stroke="#63b8ff" d="M885.01,-288.69C950.2,-281.79 1046.91,-268.79 1079,-250 1149.33,-208.81 1200.4,-121.41 1220.08,-83.58"/>
<polygon fill="#63b8ff" stroke="#63b8ff" points="1223.39,-84.81 1224.79,-74.31 1217.15,-81.64 1223.39,-84.81"/>
</a>
</g>
</g>
<!-- Node13 -->
<g id="Node000013" class="node">
<title>Node13</title>
<g id="a_Node000013"><a xlink:title=" ">
<polygon fill="#e0e0e0" stroke="#999999" points="952.5,-244.5 907.5,-244.5 907.5,-225.5 952.5,-225.5 952.5,-244.5"/>
<text text-anchor="middle" x="930" y="-232.5" font-family="Helvetica,sans-Serif" font-size="10.00">utility</text>
</a>
</g>
</g>
<!-- Node11&#45;&gt;Node13 -->
<g id="edge13_Node000011_Node000013" class="edge">
<title>Node11&#45;&gt;Node13</title>
<g id="a_edge13_Node000011_Node000013"><a xlink:title=" ">
<path fill="none" stroke="#63b8ff" d="M837.94,-285.87C855.64,-276.28 884.46,-260.67 905.14,-249.47"/>
<polygon fill="#63b8ff" stroke="#63b8ff" points="906.87,-252.51 914,-244.67 903.54,-246.35 906.87,-252.51"/>
</a>
</g>
</g>
<!-- Node14 -->
<g id="Node000014" class="node">
<title>Node14</title>
<g id="a_Node000014"><a xlink:title=" ">
<polygon fill="#e0e0e0" stroke="#999999" points="1183.5,-19 1136.5,-19 1136.5,0 1183.5,0 1183.5,-19"/>
<text text-anchor="middle" x="1160" y="-7" font-family="Helvetica,sans-Serif" font-size="10.00">vector</text>
</a>
</g>
</g>
<!-- Node11&#45;&gt;Node14 -->
<g id="edge14_Node000011_Node000014" class="edge">
<title>Node11&#45;&gt;Node14</title>
<g id="a_edge14_Node000011_Node000014"><a xlink:title=" ">
<path fill="none" stroke="#63b8ff" d="M885.15,-288.53C1038.87,-273.16 1420,-229.59 1420,-175.5 1420,-175.5 1420,-175.5 1420,-118.5 1420,-21.57 1263.96,-10 1193.65,-9.71"/>
<polygon fill="#63b8ff" stroke="#63b8ff" points="1193.52,-6.21 1183.53,-9.75 1193.54,-13.21 1193.52,-6.21"/>
</a>
</g>
</g>
<!-- Node15 -->
<g id="Node000015" class="node">
<title>Node15</title>
<g id="a_Node000015"><a xlink:title=" ">
<polygon fill="#e0e0e0" stroke="#999999" points="1017.5,-244.5 970.5,-244.5 970.5,-225.5 1017.5,-225.5 1017.5,-244.5"/>
<text text-anchor="middle" x="994" y="-232.5" font-family="Helvetica,sans-Serif" font-size="10.00">deque</text>
</a>
</g>
</g>
<!-- Node11&#45;&gt;Node15 -->
<g id="edge15_Node000011_Node000015" class="edge">
<title>Node11&#45;&gt;Node15</title>
<g id="a_edge15_Node000011_Node000015"><a xlink:title=" ">
<path fill="none" stroke="#63b8ff" d="M851.28,-285.98C879.6,-277.53 923.59,-263.89 961,-250 962.39,-249.49 963.8,-248.95 965.22,-248.39"/>
<polygon fill="#63b8ff" stroke="#63b8ff" points="966.63,-251.6 974.57,-244.59 963.99,-245.11 966.63,-251.6"/>
</a>
</g>
</g>
<!-- Node16 -->
<g id="Node000016" class="node">
<title>Node16</title>
<g id="a_Node000016"><a xlink:title=" ">
<polygon fill="#e0e0e0" stroke="#999999" points="1070.5,-244.5 1035.5,-244.5 1035.5,-225.5 1070.5,-225.5 1070.5,-244.5"/>
<text text-anchor="middle" x="1053" y="-232.5" font-family="Helvetica,sans-Serif" font-size="10.00">any</text>
</a>
</g>
</g>
<!-- Node11&#45;&gt;Node16 -->
<g id="edge16_Node000011_Node000016" class="edge">
<title>Node11&#45;&gt;Node16</title>
<g id="a_edge16_Node000011_Node000016"><a xlink:title=" ">
<path fill="none" stroke="#63b8ff" d="M880.3,-285.99C921.73,-278.93 978.27,-267.24 1026,-250 1027.02,-249.63 1028.05,-249.23 1029.08,-248.81"/>
<polygon fill="#63b8ff" stroke="#63b8ff" points="1030.59,-251.97 1038.18,-244.57 1027.64,-245.62 1030.59,-251.97"/>
</a>
</g>
</g>
<!-- Node17 -->
<g id="Node000017" class="node">
<title>Node17</title>
<g id="a_Node000017"><a xlink:title=" ">
<polygon fill="#e0e0e0" stroke="#999999" points="1381,-19 1331,-19 1331,0 1381,0 1381,-19"/>
<text text-anchor="middle" x="1356" y="-7" font-family="Helvetica,sans-Serif" font-size="10.00">cstdint</text>
</a>
</g>
</g>
<!-- Node11&#45;&gt;Node17 -->
<g id="edge17_Node000011_Node000017" class="edge">
<title>Node11&#45;&gt;Node17</title>
<g id="a_edge17_Node000011_Node000017"><a xlink:title=" ">
<path fill="none" stroke="#63b8ff" d="M885.45,-288.52C1008.12,-276.93 1266.63,-252.32 1276,-250 1360.83,-228.96 1458,-262.9 1458,-175.5 1458,-175.5 1458,-175.5 1458,-118.5 1458,-74.56 1412.82,-41.27 1382.6,-23.92"/>
<polygon fill="#63b8ff" stroke="#63b8ff" points="1384.21,-20.81 1373.77,-19.05 1380.84,-26.94 1384.21,-20.81"/>
</a>
</g>
</g>
<!-- Node11&#45;&gt;Node18 -->
<g id="edge18_Node000011_Node000018" class="edge">
<title>Node11&#45;&gt;Node18</title>
<g id="a_edge18_Node000011_Node000018"><a xlink:title=" ">
<path fill="none" stroke="#63b8ff" d="M885.01,-287.28C889.74,-286.82 894.44,-286.39 899,-286 1170.06,-263.07 1240.79,-289.05 1510,-250 1515.9,-249.14 1522.07,-248 1528.13,-246.73"/>
<polygon fill="#63b8ff" stroke="#63b8ff" points="1529.12,-250.09 1538.12,-244.5 1527.6,-243.26 1529.12,-250.09"/>
</a>
</g>
</g>
<!-- Node19 -->
<g id="Node000019" class="node">
<title>Node19</title>
<g id="a_Node000019"><a xlink:href="common_2func_8h.html" target="_top" xlink:title=" ">
<polygon fill="white" stroke="#666666" points="1113,-129 971,-129 971,-110 1113,-110 1113,-129"/>
<text text-anchor="middle" x="1042" y="-117" font-family="Helvetica,sans-Serif" font-size="10.00">webcface/common/func.h</text>
</a>
</g>
</g>
<!-- Node11&#45;&gt;Node19 -->
<g id="edge19_Node000011_Node000019" class="edge">
<title>Node11&#45;&gt;Node19</title>
<g id="a_edge19_Node000011_Node000019"><a xlink:title=" ">
<path fill="none" stroke="#63b8ff" d="M829.99,-285.74C843.39,-271.29 871.5,-241.88 898,-220 938.6,-186.49 990.2,-152.76 1019.32,-134.46"/>
<polygon fill="#63b8ff" stroke="#63b8ff" points="1021.31,-137.35 1027.94,-129.08 1017.6,-131.41 1021.31,-137.35"/>
</a>
</g>
</g>
<!-- Node11&#45;&gt;Node27 -->
<g id="edge71_Node000011_Node000027" class="edge">
<title>Node11&#45;&gt;Node27</title>
<g id="a_edge71_Node000011_Node000027"><a xlink:title=" ">
<path fill="none" stroke="#63b8ff" d="M819.65,-285.67C811.12,-254.02 780.57,-143.39 747,-55 743.62,-46.09 739.35,-36.42 735.62,-28.37"/>
<polygon fill="#63b8ff" stroke="#63b8ff" points="738.74,-26.78 731.3,-19.24 732.41,-29.77 738.74,-26.78"/>
</a>
</g>
</g>
<!-- Node28 -->
<g id="Node000028" class="node">
<title>Node28</title>
<g id="a_Node000028"><a xlink:href="common_2log_8h.html" target="_top" xlink:title=" ">
<polygon fill="white" stroke="#666666" points="343,-244.5 207,-244.5 207,-225.5 343,-225.5 343,-244.5"/>
<text text-anchor="middle" x="275" y="-232.5" font-family="Helvetica,sans-Serif" font-size="10.00">webcface/common/log.h</text>
</a>
</g>
</g>
<!-- Node11&#45;&gt;Node28 -->
<g id="edge37_Node000011_Node000028" class="edge">
<title>Node11&#45;&gt;Node28</title>
<g id="a_edge37_Node000011_Node000028"><a xlink:title=" ">
<path fill="none" stroke="#63b8ff" d="M758.99,-287.76C658.6,-277.02 462.58,-256.06 353.32,-244.38"/>
<polygon fill="#63b8ff" stroke="#63b8ff" points="353.66,-240.89 343.35,-243.31 352.92,-247.85 353.66,-240.89"/>
</a>
</g>
</g>
<!-- Node29 -->
<g id="Node000029" class="node">
<title>Node29</title>
<g id="a_Node000029"><a xlink:href="common_2view_8h.html" target="_top" xlink:title=" ">
<polygon fill="white" stroke="#666666" points="492.5,-129 349.5,-129 349.5,-110 492.5,-110 492.5,-129"/>
<text text-anchor="middle" x="421" y="-117" font-family="Helvetica,sans-Serif" font-size="10.00">webcface/common/view.h</text>
</a>
</g>
</g>
<!-- Node11&#45;&gt;Node29 -->
<g id="edge41_Node000011_Node000029" class="edge">
<title>Node11&#45;&gt;Node29</title>
<g id="a_edge41_Node000011_Node000029"><a xlink:title=" ">
<path fill="none" stroke="#63b8ff" d="M758.77,-291.37C708.6,-286.91 637.72,-276.11 581,-250 519.81,-221.83 461.98,-164.93 435.74,-136.89"/>
<polygon fill="#63b8ff" stroke="#63b8ff" points="437.99,-134.16 428.64,-129.17 432.84,-138.9 437.99,-134.16"/>
</a>
</g>
</g>
<!-- Node31 -->
<g id="Node000031" class="node">
<title>Node31</title>
<g id="a_Node000031"><a xlink:href="common_2image_8h.html" target="_top" xlink:title=" ">
<polygon fill="white" stroke="#666666" points="1638,-74 1486,-74 1486,-55 1638,-55 1638,-74"/>
<text text-anchor="middle" x="1562" y="-62" font-family="Helvetica,sans-Serif" font-size="10.00">webcface/common/image.h</text>
</a>
</g>
</g>
<!-- Node11&#45;&gt;Node31 -->
<g id="edge48_Node000011_Node000031" class="edge">
<title>Node11&#45;&gt;Node31</title>
<g id="a_edge48_Node000011_Node000031"><a xlink:title=" ">
<path fill="none" stroke="#63b8ff" d="M885.01,-288.51C895.04,-287.63 905.3,-286.76 915,-286 976.83,-281.18 1420.49,-284.54 1472,-250 1530.21,-210.96 1552.1,-123.03 1559.12,-84.35"/>
<polygon fill="#63b8ff" stroke="#63b8ff" points="1562.64,-84.48 1560.84,-74.04 1555.74,-83.33 1562.64,-84.48"/>
</a>
</g>
</g>
<!-- Node35 -->
<g id="Node000035" class="node">
<title>Node35</title>
<g id="a_Node000035"><a xlink:href="common_2robot__model_8h.html" target="_top" xlink:title=" ">
<polygon fill="white" stroke="#666666" points="727.5,-250 590.5,-250 590.5,-220 727.5,-220 727.5,-250"/>
<text text-anchor="start" x="598.5" y="-238" font-family="Helvetica,sans-Serif" font-size="10.00">webcface/common/robot</text>
<text text-anchor="middle" x="659" y="-227" font-family="Helvetica,sans-Serif" font-size="10.00">_model.h</text>
</a>
</g>
</g>
<!-- Node11&#45;&gt;Node35 -->
<g id="edge56_Node000011_Node000035" class="edge">
<title>Node11&#45;&gt;Node35</title>
<g id="a_edge56_Node000011_Node000035"><a xlink:title=" ">
<path fill="none" stroke="#63b8ff" d="M798.3,-285.99C774.64,-277.5 737.58,-264.2 707.63,-253.45"/>
<polygon fill="#63b8ff" stroke="#63b8ff" points="708.78,-250.15 698.19,-250.06 706.42,-256.74 708.78,-250.15"/>
</a>
</g>
</g>
<!-- Node36 -->
<g id="Node000036" class="node">
<title>Node36</title>
<g id="a_Node000036"><a xlink:href="common_2canvas3d_8h.html" target="_top" xlink:title=" ">
<polygon fill="white" stroke="#666666" points="695,-184 623,-184 623,-165 695,-165 695,-184"/>
<text text-anchor="middle" x="659" y="-172" font-family="Helvetica,sans-Serif" font-size="10.00">canvas3d.h</text>
</a>
</g>
</g>
<!-- Node11&#45;&gt;Node36 -->
<g id="edge70_Node000011_Node000036" class="edge">
<title>Node11&#45;&gt;Node36</title>
<g id="a_edge70_Node000011_Node000036"><a xlink:title=" ">
<path fill="none" stroke="#63b8ff" d="M812.94,-285.62C797.76,-270.99 765.93,-241.32 736,-220 719.65,-208.35 700.05,-197.06 684.71,-188.76"/>
<polygon fill="#63b8ff" stroke="#63b8ff" points="686.25,-185.62 675.78,-184.01 682.96,-191.8 686.25,-185.62"/>
</a>
</g>
</g>
<!-- Node39 -->
<g id="Node000039" class="node">
<title>Node39</title>
<g id="a_Node000039"><a xlink:href="val__adaptor_8h.html" target="_top" xlink:title=" ">
<polygon fill="white" stroke="#666666" points="952.5,-129 869.5,-129 869.5,-110 952.5,-110 952.5,-129"/>
<text text-anchor="middle" x="911" y="-117" font-family="Helvetica,sans-Serif" font-size="10.00">val_adaptor.h</text>
</a>
</g>
</g>
<!-- Node11&#45;&gt;Node39 -->
<g id="edge72_Node000011_Node000039" class="edge">
<title>Node11&#45;&gt;Node39</title>
<g id="a_edge72_Node000011_Node000039"><a xlink:title=" ">
<path fill="none" stroke="#63b8ff" d="M823.42,-285.71C827.24,-263.85 839.28,-205.91 865,-165 871.97,-153.91 882.28,-143.59 891.37,-135.69"/>
<polygon fill="#63b8ff" stroke="#63b8ff" points="893.78,-138.24 899.25,-129.16 889.32,-132.85 893.78,-138.24"/>
</a>
</g>
</g>
<!-- Node19&#45;&gt;Node2 -->
<g id="edge24_Node000019_Node000002" class="edge">
<title>Node19&#45;&gt;Node2</title>
<g id="a_edge24_Node000019_Node000002"><a xlink:title=" ">
<path fill="none" stroke="#63b8ff" d="M987.64,-109.96C905.98,-97.26 746.72,-72.94 611,-55 482.5,-38.01 329.11,-21.07 263.43,-13.97"/>
<polygon fill="#63b8ff" stroke="#63b8ff" points="263.62,-10.47 253.3,-12.88 262.87,-17.43 263.62,-10.47"/>
</a>
</g>
</g>
<!-- Node19&#45;&gt;Node6 -->
<g id="edge23_Node000019_Node000006" class="edge">
<title>Node19&#45;&gt;Node6</title>
<g id="a_edge23_Node000019_Node000006"><a xlink:title=" ">
<path fill="none" stroke="#63b8ff" d="M970.89,-110.94C967.55,-110.62 964.24,-110.3 961,-110 766.27,-91.93 713.29,-103.93 516.3,-73.98"/>
<polygon fill="#63b8ff" stroke="#63b8ff" points="516.62,-70.48 506.2,-72.42 515.55,-77.4 516.62,-70.48"/>
</a>
</g>
</g>
<!-- Node19&#45;&gt;Node14 -->
<g id="edge20_Node000019_Node000014" class="edge">
<title>Node19&#45;&gt;Node14</title>
<g id="a_edge20_Node000019_Node000014"><a xlink:title=" ">
<path fill="none" stroke="#63b8ff" d="M1078.15,-109.99C1098.87,-103.38 1123.89,-92.18 1140,-74 1150.9,-61.7 1155.86,-43.47 1158.12,-29.7"/>
<polygon fill="#63b8ff" stroke="#63b8ff" points="1161.64,-29.77 1159.45,-19.4 1154.69,-28.87 1161.64,-29.77"/>
</a>
</g>
</g>
<!-- Node19&#45;&gt;Node17 -->
<g id="edge26_Node000019_Node000017" class="edge">
<title>Node19&#45;&gt;Node17</title>
<g id="a_edge26_Node000019_Node000017"><a xlink:title=" ">
<path fill="none" stroke="#63b8ff" d="M1113.11,-119.05C1197.63,-118.01 1331.27,-110.43 1363,-74 1373.68,-61.74 1369.83,-42.69 1364.59,-28.65"/>
<polygon fill="#63b8ff" stroke="#63b8ff" points="1367.66,-26.93 1360.53,-19.09 1361.22,-29.66 1367.66,-26.93"/>
</a>
</g>
</g>
<!-- Node20 -->
<g id="Node000020" class="node">
<title>Node20</title>
<g id="a_Node000020"><a xlink:title=" ">
<polygon fill="#e0e0e0" stroke="#999999" points="1131.5,-74 1062.5,-74 1062.5,-55 1131.5,-55 1131.5,-74"/>
<text text-anchor="middle" x="1097" y="-62" font-family="Helvetica,sans-Serif" font-size="10.00">type_traits</text>
</a>
</g>
</g>
<!-- Node19&#45;&gt;Node20 -->
<g id="edge21_Node000019_Node000020" class="edge">
<title>Node19&#45;&gt;Node20</title>
<g id="a_edge21_Node000019_Node000020"><a xlink:title=" ">
<path fill="none" stroke="#63b8ff" d="M1051.08,-109.75C1059.09,-102.03 1070.96,-90.6 1080.62,-81.28"/>
<polygon fill="#63b8ff" stroke="#63b8ff" points="1083.31,-83.55 1088.09,-74.09 1078.46,-78.51 1083.31,-83.55"/>
</a>
</g>
</g>
<!-- Node21 -->
<g id="Node000021" class="node">
<title>Node21</title>
<g id="a_Node000021"><a xlink:title=" ">
<polygon fill="#e0e0e0" stroke="#999999" points="1353.5,-74 1288.5,-74 1288.5,-55 1353.5,-55 1353.5,-74"/>
<text text-anchor="middle" x="1321" y="-62" font-family="Helvetica,sans-Serif" font-size="10.00">functional</text>
</a>
</g>
</g>
<!-- Node19&#45;&gt;Node21 -->
<g id="edge22_Node000019_Node000021" class="edge">
<title>Node19&#45;&gt;Node21</title>
<g id="a_edge22_Node000019_Node000021"><a xlink:title=" ">
<path fill="none" stroke="#63b8ff" d="M1088.36,-110C1134.01,-101.57 1206.01,-88.18 1278.26,-74.12"/>
<polygon fill="#63b8ff" stroke="#63b8ff" points="1279.3,-77.48 1288.45,-72.13 1277.96,-70.61 1279.3,-77.48"/>
</a>
</g>
</g>
<!-- Node22 -->
<g id="Node000022" class="node">
<title>Node22</title>
<g id="a_Node000022"><a xlink:title=" ">
<polygon fill="#e0e0e0" stroke="#999999" points="1020.5,-19 963.5,-19 963.5,0 1020.5,0 1020.5,-19"/>
<text text-anchor="middle" x="992" y="-7" font-family="Helvetica,sans-Serif" font-size="10.00">ostream</text>
</a>
</g>
</g>
<!-- Node19&#45;&gt;Node22 -->
<g id="edge25_Node000019_Node000022" class="edge">
<title>Node19&#45;&gt;Node22</title>
<g id="a_edge25_Node000019_Node000022"><a xlink:title=" ">
<path fill="none" stroke="#63b8ff" d="M1037.91,-109.66C1029.7,-91.93 1011.09,-51.73 1000.25,-28.32"/>
<polygon fill="#63b8ff" stroke="#63b8ff" points="1003.39,-26.76 996.01,-19.16 997.03,-29.7 1003.39,-26.76"/>
</a>
</g>
</g>
<!-- Node23 -->
<g id="Node000023" class="node">
<title>Node23</title>
<g id="a_Node000023"><a xlink:href="val_8h.html" target="_top" xlink:title=" ">
<polygon fill="white" stroke="#666666" points="929.5,-74 888.5,-74 888.5,-55 929.5,-55 929.5,-74"/>
<text text-anchor="middle" x="909" y="-62" font-family="Helvetica,sans-Serif" font-size="10.00">val.h</text>
</a>
</g>
</g>
<!-- Node19&#45;&gt;Node23 -->
<g id="edge27_Node000019_Node000023" class="edge">
<title>Node19&#45;&gt;Node23</title>
<g id="a_edge27_Node000019_Node000023"><a xlink:title=" ">
<path fill="none" stroke="#63b8ff" d="M1020.63,-109.98C998.59,-101.2 964.03,-87.43 939.2,-77.53"/>
<polygon fill="#63b8ff" stroke="#63b8ff" points="940.46,-74.27 929.88,-73.82 937.87,-80.77 940.46,-74.27"/>
</a>
</g>
</g>
<!-- Node19&#45;&gt;Node27 -->
<g id="edge36_Node000019_Node000027" class="edge">
<title>Node19&#45;&gt;Node27</title>
<g id="a_edge36_Node000019_Node000027"><a xlink:title=" ">
<path fill="none" stroke="#63b8ff" d="M1005.34,-109.93C972.03,-101.81 921.72,-88.69 879,-74 875.91,-72.94 799.83,-41.06 756.5,-22.88"/>
<polygon fill="#63b8ff" stroke="#63b8ff" points="757.85,-19.65 747.28,-19.01 755.15,-26.11 757.85,-19.65"/>
</a>
</g>
</g>
<!-- Node23&#45;&gt;Node2 -->
<g id="edge28_Node000023_Node000002" class="edge">
<title>Node23&#45;&gt;Node2</title>
<g id="a_edge28_Node000023_Node000002"><a xlink:title=" ">
<path fill="none" stroke="#63b8ff" d="M888.34,-61.88C791.49,-54.31 382.23,-22.32 263.45,-13.04"/>
<polygon fill="#63b8ff" stroke="#63b8ff" points="263.43,-9.52 253.19,-12.23 262.89,-16.5 263.43,-9.52"/>
</a>
</g>
</g>
<!-- Node23&#45;&gt;Node14 -->
<g id="edge29_Node000023_Node000014" class="edge">
<title>Node23&#45;&gt;Node14</title>
<g id="a_edge29_Node000023_Node000014"><a xlink:title=" ">
<path fill="none" stroke="#63b8ff" d="M929.7,-58.33C934.39,-57.2 939.36,-56.03 944,-55 1022.79,-37.47 1043.06,-35.81 1122,-19 1123.45,-18.69 1124.92,-18.37 1126.41,-18.05"/>
<polygon fill="#63b8ff" stroke="#63b8ff" points="1127.28,-21.44 1136.3,-15.88 1125.78,-14.61 1127.28,-21.44"/>
</a>
</g>
</g>
<!-- Node23&#45;&gt;Node17 -->
<g id="edge33_Node000023_Node000017" class="edge">
<title>Node23&#45;&gt;Node17</title>
<g id="a_edge33_Node000023_Node000017"><a xlink:title=" ">
<path fill="none" stroke="#63b8ff" d="M929.66,-61.05C1000.2,-52.69 1232,-25.2 1320.88,-14.66"/>
<polygon fill="#63b8ff" stroke="#63b8ff" points="1321.48,-18.12 1330.99,-13.46 1320.65,-11.17 1321.48,-18.12"/>
</a>
</g>
</g>
<!-- Node23&#45;&gt;Node22 -->
<g id="edge34_Node000023_Node000022" class="edge">
<title>Node23&#45;&gt;Node22</title>
<g id="a_edge34_Node000023_Node000022"><a xlink:title=" ">
<path fill="none" stroke="#63b8ff" d="M922.34,-54.98C935.09,-46.84 954.55,-34.41 969.67,-24.76"/>
<polygon fill="#63b8ff" stroke="#63b8ff" points="971.88,-27.5 978.42,-19.17 968.11,-21.6 971.88,-27.5"/>
</a>
</g>
</g>
<!-- Node24 -->
<g id="Node000024" class="node">
<title>Node24</title>
<g id="a_Node000024"><a xlink:title=" ">
<polygon fill="#e0e0e0" stroke="#999999" points="863.5,-19 822.5,-19 822.5,0 863.5,0 863.5,-19"/>
<text text-anchor="middle" x="843" y="-7" font-family="Helvetica,sans-Serif" font-size="10.00">tuple</text>
</a>
</g>
</g>
<!-- Node23&#45;&gt;Node24 -->
<g id="edge30_Node000023_Node000024" class="edge">
<title>Node23&#45;&gt;Node24</title>
<g id="a_edge30_Node000023_Node000024"><a xlink:title=" ">
<path fill="none" stroke="#63b8ff" d="M898.4,-54.98C888.54,-47.07 873.65,-35.11 861.78,-25.58"/>
<polygon fill="#63b8ff" stroke="#63b8ff" points="863.79,-22.7 853.8,-19.17 859.4,-28.16 863.79,-22.7"/>
</a>
</g>
</g>
<!-- Node25 -->
<g id="Node000025" class="node">
<title>Node25</title>
<g id="a_Node000025"><a xlink:title=" ">
<polygon fill="#e0e0e0" stroke="#999999" points="942,-19 882,-19 882,0 942,0 942,-19"/>
<text text-anchor="middle" x="912" y="-7" font-family="Helvetica,sans-Serif" font-size="10.00">concepts</text>
</a>
</g>
</g>
<!-- Node23&#45;&gt;Node25 -->
<g id="edge31_Node000023_Node000025" class="edge">
<title>Node23&#45;&gt;Node25</title>
<g id="a_edge31_Node000023_Node000025"><a xlink:title=" ">
<path fill="none" stroke="#63b8ff" d="M909.5,-54.75C909.89,-47.8 910.45,-37.85 910.95,-29.13"/>
<polygon fill="#63b8ff" stroke="#63b8ff" points="914.44,-29.27 911.51,-19.09 907.45,-28.88 914.44,-29.27"/>
</a>
</g>
</g>
<!-- Node26 -->
<g id="Node000026" class="node">
<title>Node26</title>
<g id="a_Node000026"><a xlink:title=" ">
<polygon fill="#e0e0e0" stroke="#999999" points="1113.5,-19 1048.5,-19 1048.5,0 1113.5,0 1113.5,-19"/>
<text text-anchor="middle" x="1081" y="-7" font-family="Helvetica,sans-Serif" font-size="10.00">stdexcept</text>
</a>
</g>
</g>
<!-- Node23&#45;&gt;Node26 -->
<g id="edge32_Node000023_Node000026" class="edge">
<title>Node23&#45;&gt;Node26</title>
<g id="a_edge32_Node000023_Node000026"><a xlink:title=" ">
<path fill="none" stroke="#63b8ff" d="M929.75,-57.11C957.88,-48.44 1008.63,-32.8 1043.53,-22.05"/>
<polygon fill="#63b8ff" stroke="#63b8ff" points="1044.83,-25.31 1053.36,-19.02 1042.77,-18.62 1044.83,-25.31"/>
</a>
</g>
</g>
<!-- Node23&#45;&gt;Node27 -->
<g id="edge35_Node000023_Node000027" class="edge">
<title>Node23&#45;&gt;Node27</title>
<g id="a_edge35_Node000023_Node000027"><a xlink:title=" ">
<path fill="none" stroke="#63b8ff" d="M888.48,-57.52C856.53,-48.22 794.71,-30.22 757.52,-19.39"/>
<polygon fill="#63b8ff" stroke="#63b8ff" points="758.31,-15.97 747.73,-16.54 756.35,-22.69 758.31,-15.97"/>
</a>
</g>
</g>
<!-- Node28&#45;&gt;Node2 -->
<g id="edge38_Node000028_Node000002" class="edge">
<title>Node28&#45;&gt;Node2</title>
<g id="a_edge38_Node000028_Node000002"><a xlink:title=" ">
<path fill="none" stroke="#63b8ff" d="M266.06,-225.31C252.32,-212.04 225.08,-186.03 201,-165 181.97,-148.38 170.93,-150.08 157,-129 142.96,-107.76 144.59,-99.2 141,-74 139.81,-65.64 136.54,-62.17 141,-55 153.59,-34.73 178.44,-23.42 198.85,-17.27"/>
<polygon fill="#63b8ff" stroke="#63b8ff" points="200,-20.59 208.73,-14.59 198.16,-13.83 200,-20.59"/>
</a>
</g>
</g>
<!-- Node28&#45;&gt;Node5 -->
<g id="edge39_Node000028_Node000005" class="edge">
<title>Node28&#45;&gt;Node5</title>
<g id="a_edge39_Node000028_Node000005"><a xlink:title=" ">
<path fill="none" stroke="#63b8ff" d="M259.06,-225.37C241.36,-215.78 212.54,-200.17 191.86,-188.97"/>
<polygon fill="#63b8ff" stroke="#63b8ff" points="193.46,-185.85 183,-184.17 190.13,-192.01 193.46,-185.85"/>
</a>
</g>
</g>
<!-- Node28&#45;&gt;Node27 -->
<g id="edge40_Node000028_Node000027" class="edge">
<title>Node28&#45;&gt;Node27</title>
<g id="a_edge40_Node000028_Node000027"><a xlink:title=" ">
<path fill="none" stroke="#63b8ff" d="M269.41,-225.16C260.74,-211.68 243.26,-185.43 226,-165 211.4,-147.71 198.66,-149.91 190,-129 186.77,-121.2 185.45,-117.11 190,-110 245.25,-23.6 590.56,-12.17 696.28,-10.7"/>
<polygon fill="#63b8ff" stroke="#63b8ff" points="696.34,-14.2 706.3,-10.58 696.26,-7.2 696.34,-14.2"/>
</a>
</g>
</g>
<!-- Node29&#45;&gt;Node2 -->
<g id="edge42_Node000029_Node000002" class="edge">
<title>Node29&#45;&gt;Node2</title>
<g id="a_edge42_Node000029_Node000002"><a xlink:title=" ">
<path fill="none" stroke="#63b8ff" d="M392.75,-109.95C369.42,-102.27 335.89,-89.78 309,-74 285.87,-60.43 262.43,-40.29 247.36,-26.35"/>
<polygon fill="#63b8ff" stroke="#63b8ff" points="249.59,-23.63 239.91,-19.32 244.79,-28.73 249.59,-23.63"/>
</a>
</g>
</g>
<!-- Node29&#45;&gt;Node6 -->
<g id="edge43_Node000029_Node000006" class="edge">
<title>Node29&#45;&gt;Node6</title>
<g id="a_edge43_Node000029_Node000006"><a xlink:title=" ">
<path fill="none" stroke="#63b8ff" d="M430.16,-109.98C438.5,-102.23 451.03,-90.58 461.18,-81.14"/>
<polygon fill="#63b8ff" stroke="#63b8ff" points="463.74,-83.54 468.68,-74.17 458.97,-78.42 463.74,-83.54"/>
</a>
</g>
</g>
<!-- Node29&#45;&gt;Node27 -->
<g id="edge47_Node000029_Node000027" class="edge">
<title>Node29&#45;&gt;Node27</title>
<g id="a_edge47_Node000029_Node000027"><a xlink:title=" ">
<path fill="none" stroke="#63b8ff" d="M421.01,-110C421.53,-96.18 424.7,-69.01 441,-55 478.9,-22.42 630.59,-13.6 696.34,-11.29"/>
<polygon fill="#63b8ff" stroke="#63b8ff" points="696.61,-14.78 706.49,-10.96 696.38,-7.79 696.61,-14.78"/>
</a>
</g>
</g>
<!-- Node30 -->
<g id="Node000030" class="node">
<title>Node30</title>
<g id="a_Node000030"><a xlink:href="field__base_8h.html" target="_top" xlink:title=" ">
<polygon fill="white" stroke="#666666" points="393.5,-74 318.5,-74 318.5,-55 393.5,-55 393.5,-74"/>
<text text-anchor="middle" x="356" y="-62" font-family="Helvetica,sans-Serif" font-size="10.00">field_base.h</text>
</a>
</g>
</g>
<!-- Node29&#45;&gt;Node30 -->
<g id="edge44_Node000029_Node000030" class="edge">
<title>Node29&#45;&gt;Node30</title>
<g id="a_edge44_Node000029_Node000030"><a xlink:title=" ">
<path fill="none" stroke="#63b8ff" d="M410.56,-109.98C400.85,-102.07 386.18,-90.11 374.5,-80.58"/>
<polygon fill="#63b8ff" stroke="#63b8ff" points="376.6,-77.78 366.63,-74.17 372.17,-83.2 376.6,-77.78"/>
</a>
</g>
</g>
<!-- Node30&#45;&gt;Node2 -->
<g id="edge45_Node000030_Node000002" class="edge">
<title>Node30&#45;&gt;Node2</title>
<g id="a_edge45_Node000030_Node000002"><a xlink:title=" ">
<path fill="none" stroke="#63b8ff" d="M335.92,-54.98C315.63,-46.38 284.04,-32.99 260.83,-23.15"/>
<polygon fill="#63b8ff" stroke="#63b8ff" points="262.02,-19.85 251.45,-19.17 259.29,-26.3 262.02,-19.85"/>
</a>
</g>
</g>
<!-- Node30&#45;&gt;Node27 -->
<g id="edge46_Node000030_Node000027" class="edge">
<title>Node30&#45;&gt;Node27</title>
<g id="a_edge46_Node000030_Node000027"><a xlink:title=" ">
<path fill="none" stroke="#63b8ff" d="M393.76,-57.22C398.55,-56.46 403.39,-55.7 408,-55 513.7,-38.99 639.43,-22.08 696.33,-14.54"/>
<polygon fill="#63b8ff" stroke="#63b8ff" points="696.99,-17.98 706.45,-13.2 696.08,-11.04 696.99,-17.98"/>
</a>
</g>
</g>
<!-- Node31&#45;&gt;Node14 -->
<g id="edge49_Node000031_Node000014" class="edge">
<title>Node31&#45;&gt;Node14</title>
<g id="a_edge49_Node000031_Node000014"><a xlink:title=" ">
<path fill="none" stroke="#63b8ff" d="M1497.41,-54.98C1410.82,-43.57 1260.29,-23.72 1193.53,-14.92"/>
<polygon fill="#63b8ff" stroke="#63b8ff" points="1193.93,-11.44 1183.56,-13.61 1193.02,-18.38 1193.93,-11.44"/>
</a>
</g>
</g>
<!-- Node31&#45;&gt;Node17 -->
<g id="edge51_Node000031_Node000017" class="edge">
<title>Node31&#45;&gt;Node17</title>
<g id="a_edge51_Node000031_Node000017"><a xlink:title=" ">
<path fill="none" stroke="#63b8ff" d="M1528.9,-54.98C1491.11,-45.26 1429.54,-29.42 1390.98,-19.5"/>
<polygon fill="#63b8ff" stroke="#63b8ff" points="1391.78,-16.09 1381.22,-16.99 1390.04,-22.87 1391.78,-16.09"/>
</a>
</g>
</g>
<!-- Node31&#45;&gt;Node26 -->
<g id="edge52_Node000031_Node000026" class="edge">
<title>Node31&#45;&gt;Node26</title>
<g id="a_edge52_Node000031_Node000026"><a xlink:title=" ">
<path fill="none" stroke="#63b8ff" d="M1485.94,-57.59C1398.93,-50.4 1252.31,-36.96 1127,-19 1125.91,-18.84 1124.82,-18.68 1123.71,-18.51"/>
<polygon fill="#63b8ff" stroke="#63b8ff" points="1124.05,-15.02 1113.61,-16.86 1122.92,-21.93 1124.05,-15.02"/>
</a>
</g>
</g>
<!-- Node31&#45;&gt;Node27 -->
<g id="edge53_Node000031_Node000027" class="edge">
<title>Node31&#45;&gt;Node27</title>
<g id="a_edge53_Node000031_Node000027"><a xlink:title=" ">
<path fill="none" stroke="#63b8ff" d="M1485.91,-59.97C1350.49,-53.46 1058.76,-38.44 813,-19 794.72,-17.55 774.29,-15.55 757.93,-13.85"/>
<polygon fill="#63b8ff" stroke="#63b8ff" points="758.14,-10.36 747.83,-12.79 757.41,-17.32 758.14,-10.36"/>
</a>
</g>
</g>
<!-- Node32 -->
<g id="Node000032" class="node">
<title>Node32</title>
<g id="a_Node000032"><a xlink:title=" ">
<polygon fill="#e0e0e0" stroke="#999999" points="1731,-19 1673,-19 1673,0 1731,0 1731,-19"/>
<text text-anchor="middle" x="1702" y="-7" font-family="Helvetica,sans-Serif" font-size="10.00">memory</text>
</a>
</g>
</g>
<!-- Node31&#45;&gt;Node32 -->
<g id="edge50_Node000031_Node000032" class="edge">
<title>Node31&#45;&gt;Node32</title>
<g id="a_edge50_Node000031_Node000032"><a xlink:title=" ">
<path fill="none" stroke="#63b8ff" d="M1584.49,-54.98C1607.52,-46.27 1643.54,-32.63 1669.63,-22.75"/>
<polygon fill="#63b8ff" stroke="#63b8ff" points="1670.98,-25.98 1679.1,-19.17 1668.51,-19.44 1670.98,-25.98"/>
</a>
</g>
</g>
<!-- Node33 -->
<g id="Node000033" class="node">
<title>Node33</title>
<g id="a_Node000033"><a xlink:title=" ">
<polygon fill="#e0e0e0" stroke="#999999" points="1502.5,-19 1399.5,-19 1399.5,0 1502.5,0 1502.5,-19"/>
<text text-anchor="middle" x="1451" y="-7" font-family="Helvetica,sans-Serif" font-size="10.00">opencv2/core.hpp</text>
</a>
</g>
</g>
<!-- Node31&#45;&gt;Node33 -->
<g id="edge54_Node000031_Node000033" class="edge">
<title>Node31&#45;&gt;Node33</title>
<g id="a_edge54_Node000031_Node000033"><a xlink:title=" ">
<path fill="none" stroke="#63b8ff" d="M1544.17,-54.98C1526.39,-46.5 1498.85,-33.35 1478.32,-23.54"/>
<polygon fill="#63b8ff" stroke="#63b8ff" points="1479.69,-20.32 1469.16,-19.17 1476.67,-26.64 1479.69,-20.32"/>
</a>
</g>
</g>
<!-- Node34 -->
<g id="Node000034" class="node">
<title>Node34</title>
<g id="a_Node000034"><a xlink:title=" ">
<polygon fill="#e0e0e0" stroke="#999999" points="1655,-19 1521,-19 1521,0 1655,0 1655,-19"/>
<text text-anchor="middle" x="1588" y="-7" font-family="Helvetica,sans-Serif" font-size="10.00">opencv2/imgcodecs.hpp</text>
</a>
</g>
</g>
<!-- Node31&#45;&gt;Node34 -->
<g id="edge55_Node000031_Node000034" class="edge">
<title>Node31&#45;&gt;Node34</title>
<g id="a_edge55_Node000031_Node000034"><a xlink:title=" ">
<path fill="none" stroke="#63b8ff" d="M1566.29,-54.75C1569.81,-47.57 1574.91,-37.18 1579.28,-28.27"/>
<polygon fill="#63b8ff" stroke="#63b8ff" points="1582.52,-29.61 1583.79,-19.09 1576.24,-26.53 1582.52,-29.61"/>
</a>
</g>
</g>
<!-- Node35&#45;&gt;Node2 -->
<g id="edge69_Node000035_Node000002" class="edge">
<title>Node35&#45;&gt;Node2</title>
<g id="a_edge69_Node000035_Node000002"><a xlink:title=" ">
<path fill="none" stroke="#63b8ff" d="M590.29,-219.95C523.31,-204.34 420.11,-175.06 340,-129 295.54,-103.44 258.82,-53.65 241.58,-27.49"/>
<polygon fill="#63b8ff" stroke="#63b8ff" points="244.49,-25.53 236.14,-19.01 238.6,-29.32 244.49,-25.53"/>
</a>
</g>
</g>
<!-- Node35&#45;&gt;Node27 -->
<g id="edge57_Node000035_Node000027" class="edge">
<title>Node35&#45;&gt;Node27</title>
<g id="a_edge57_Node000035_Node000027"><a xlink:title=" ">
<path fill="none" stroke="#63b8ff" d="M674.29,-219.81C683.79,-210.36 695.73,-197.29 704,-184 735,-134.19 735.28,-113.58 732,-55 731.52,-46.45 730.53,-37.03 729.55,-29.06"/>
<polygon fill="#63b8ff" stroke="#63b8ff" points="733.01,-28.47 728.24,-19.01 726.07,-29.38 733.01,-28.47"/>
</a>
</g>
</g>
<!-- Node35&#45;&gt;Node29 -->
<g id="edge58_Node000035_Node000029" class="edge">
<title>Node35&#45;&gt;Node29</title>
<g id="a_edge58_Node000035_Node000029"><a xlink:title=" ">
<path fill="none" stroke="#63b8ff" d="M629.34,-219.85C582.79,-197.65 493.25,-154.95 448.24,-133.49"/>
<polygon fill="#63b8ff" stroke="#63b8ff" points="449.62,-130.27 439.08,-129.12 446.6,-136.59 449.62,-130.27"/>
</a>
</g>
</g>
<!-- Node35&#45;&gt;Node36 -->
<g id="edge59_Node000035_Node000036" class="edge">
<title>Node35&#45;&gt;Node36</title>
<g id="a_edge59_Node000035_Node000036"><a xlink:title=" ">
<path fill="none" stroke="#63b8ff" d="M659,-219.84C659,-212.21 659,-202.7 659,-194.45"/>
<polygon fill="#63b8ff" stroke="#63b8ff" points="662.5,-194.27 659,-184.27 655.5,-194.27 662.5,-194.27"/>
</a>
</g>
</g>
<!-- Node36&#45;&gt;Node4 -->
<g id="edge68_Node000036_Node000004" class="edge">
<title>Node36&#45;&gt;Node4</title>
<g id="a_edge68_Node000036_Node000004"><a xlink:title=" ">
<path fill="none" stroke="#63b8ff" d="M622.71,-168.84C550.65,-159.6 389.02,-138.85 302.77,-127.79"/>
<polygon fill="#63b8ff" stroke="#63b8ff" points="303,-124.29 292.64,-126.48 302.11,-131.23 303,-124.29"/>
</a>
</g>
</g>
<!-- Node36&#45;&gt;Node6 -->
<g id="edge67_Node000036_Node000006" class="edge">
<title>Node36&#45;&gt;Node6</title>
<g id="a_edge67_Node000036_Node000006"><a xlink:title=" ">
<path fill="none" stroke="#63b8ff" d="M648.87,-164.98C633.25,-152.09 602.02,-127.28 573,-110 552.34,-97.7 527.73,-86.26 508.74,-78.05"/>
<polygon fill="#63b8ff" stroke="#63b8ff" points="509.94,-74.76 499.37,-74.07 507.2,-81.2 509.94,-74.76"/>
</a>
</g>
</g>
<!-- Node36&#45;&gt;Node14 -->
<g id="edge66_Node000036_Node000014" class="edge">
<title>Node36&#45;&gt;Node14</title>
<g id="a_edge66_Node000036_Node000014"><a xlink:title=" ">
<path fill="none" stroke="#63b8ff" d="M682.72,-164.94C748.94,-141.08 934.96,-74.32 997,-55 1041.35,-41.19 1093.21,-27.44 1126.31,-18.96"/>
<polygon fill="#63b8ff" stroke="#63b8ff" points="1127.54,-22.25 1136.36,-16.39 1125.81,-15.47 1127.54,-22.25"/>
</a>
</g>
</g>
<!-- Node36&#45;&gt;Node27 -->
<g id="edge60_Node000036_Node000027" class="edge">
<title>Node36&#45;&gt;Node27</title>
<g id="a_edge60_Node000036_Node000027"><a xlink:title=" ">
<path fill="none" stroke="#63b8ff" d="M673.02,-164.73C684.38,-156.83 699.79,-144.16 708,-129 725.3,-97.05 727.85,-53.64 727.71,-29.21"/>
<polygon fill="#63b8ff" stroke="#63b8ff" points="731.21,-29.07 727.5,-19.15 724.21,-29.23 731.21,-29.07"/>
</a>
</g>
</g>
<!-- Node36&#45;&gt;Node29 -->
<g id="edge65_Node000036_Node000029" class="edge">
<title>Node36&#45;&gt;Node29</title>
<g id="a_edge65_Node000036_Node000029"><a xlink:title=" ">
<path fill="none" stroke="#63b8ff" d="M622.85,-165.45C581.87,-156.32 514.86,-141.4 469.39,-131.28"/>
<polygon fill="#63b8ff" stroke="#63b8ff" points="469.99,-127.82 459.46,-129.07 468.46,-134.66 469.99,-127.82"/>
</a>
</g>
</g>
<!-- Node36&#45;&gt;Node30 -->
<g id="edge64_Node000036_Node000030" class="edge">
<title>Node36&#45;&gt;Node30</title>
<g id="a_edge64_Node000036_Node000030"><a xlink:title=" ">
<path fill="none" stroke="#63b8ff" d="M639.25,-164.94C609.54,-152.2 551.45,-127.84 501,-110 466.02,-97.63 425.63,-85.4 396.37,-76.9"/>
<polygon fill="#63b8ff" stroke="#63b8ff" points="397.09,-73.46 386.51,-74.05 395.15,-80.19 397.09,-73.46"/>
</a>
</g>
</g>
<!-- Node37 -->
<g id="Node000037" class="node">
<title>Node37</title>
<g id="a_Node000037"><a xlink:href="transform_8h.html" target="_top" xlink:title=" ">
<polygon fill="white" stroke="#666666" points="699,-129 625,-129 625,-110 699,-110 699,-129"/>
<text text-anchor="middle" x="662" y="-117" font-family="Helvetica,sans-Serif" font-size="10.00">transform.h</text>
</a>
</g>
</g>
<!-- Node36&#45;&gt;Node37 -->
<g id="edge61_Node000036_Node000037" class="edge">
<title>Node36&#45;&gt;Node37</title>
<g id="a_edge61_Node000036_Node000037"><a xlink:title=" ">
<path fill="none" stroke="#63b8ff" d="M659.5,-164.75C659.89,-157.8 660.45,-147.85 660.95,-139.13"/>
<polygon fill="#63b8ff" stroke="#63b8ff" points="664.44,-139.27 661.51,-129.09 657.45,-138.88 664.44,-139.27"/>
</a>
</g>
</g>
<!-- Node37&#45;&gt;Node27 -->
<g id="edge62_Node000037_Node000027" class="edge">
<title>Node37&#45;&gt;Node27</title>
<g id="a_edge62_Node000037_Node000027"><a xlink:title=" ">
<path fill="none" stroke="#63b8ff" d="M665.89,-109.62C671.5,-97.1 682.47,-73.71 694,-55 699.93,-45.38 707.37,-35.22 713.68,-27.03"/>
<polygon fill="#63b8ff" stroke="#63b8ff" points="716.53,-29.08 719.97,-19.05 711.03,-24.75 716.53,-29.08"/>
</a>
</g>
</g>
<!-- Node38 -->
<g id="Node000038" class="node">
<title>Node38</title>
<g id="a_Node000038"><a xlink:title=" ">
<polygon fill="#e0e0e0" stroke="#999999" points="566,-74 524,-74 524,-55 566,-55 566,-74"/>
<text text-anchor="middle" x="545" y="-62" font-family="Helvetica,sans-Serif" font-size="10.00">array</text>
</a>
</g>
</g>
<!-- Node37&#45;&gt;Node38 -->
<g id="edge63_Node000037_Node000038" class="edge">
<title>Node37&#45;&gt;Node38</title>
<g id="a_edge63_Node000037_Node000038"><a xlink:title=" ">
<path fill="none" stroke="#63b8ff" d="M643.2,-109.98C624.38,-101.46 595.18,-88.23 573.5,-78.41"/>
<polygon fill="#63b8ff" stroke="#63b8ff" points="574.69,-75.11 564.14,-74.17 571.8,-81.48 574.69,-75.11"/>
</a>
</g>
</g>
<!-- Node39&#45;&gt;Node2 -->
<g id="edge75_Node000039_Node000002" class="edge">
<title>Node39&#45;&gt;Node2</title>
<g id="a_edge75_Node000039_Node000002"><a xlink:title=" ">
<path fill="none" stroke="#63b8ff" d="M869.49,-115.68C812.03,-110.99 705.44,-99.46 618,-74 597.94,-68.16 595.12,-60.62 575,-55 463.38,-23.83 325.18,-14.37 263.44,-11.6"/>
<polygon fill="#63b8ff" stroke="#63b8ff" points="263.31,-8.09 253.17,-11.17 263.01,-15.09 263.31,-8.09"/>
</a>
</g>
</g>
<!-- Node39&#45;&gt;Node12 -->
<g id="edge74_Node000039_Node000012" class="edge">
<title>Node39&#45;&gt;Node12</title>
<g id="a_edge74_Node000039_Node000012"><a xlink:title=" ">
<path fill="none" stroke="#63b8ff" d="M952.57,-111.57C1010.46,-101.92 1115.28,-84.45 1177.87,-74.02"/>
<polygon fill="#63b8ff" stroke="#63b8ff" points="1178.63,-77.44 1187.92,-72.35 1177.48,-70.54 1178.63,-77.44"/>
</a>
</g>
</g>
<!-- Node39&#45;&gt;Node17 -->
<g id="edge76_Node000039_Node000017" class="edge">
<title>Node39&#45;&gt;Node17</title>
<g id="a_edge76_Node000039_Node000017"><a xlink:title=" ">
<path fill="none" stroke="#63b8ff" d="M926.64,-109.78C952.23,-95.9 1005.03,-68.96 1053,-55 1147.24,-27.58 1263.12,-16.56 1320.43,-12.55"/>
<polygon fill="#63b8ff" stroke="#63b8ff" points="1321.02,-16.02 1330.76,-11.86 1320.55,-9.04 1321.02,-16.02"/>
</a>
</g>
</g>
<!-- Node39&#45;&gt;Node23 -->
<g id="edge73_Node000039_Node000023" class="edge">
<title>Node39&#45;&gt;Node23</title>
<g id="a_edge73_Node000039_Node000023"><a xlink:title=" ">
<path fill="none" stroke="#63b8ff" d="M910.67,-109.75C910.41,-102.8 910.03,-92.85 909.7,-84.13"/>
<polygon fill="#63b8ff" stroke="#63b8ff" points="913.2,-83.95 909.32,-74.09 906.2,-84.21 913.2,-83.95"/>
</a>
</g>
</g>
<!-- Node39&#45;&gt;Node27 -->
<g id="edge77_Node000039_Node000027" class="edge">
<title>Node39&#45;&gt;Node27</title>
<g id="a_edge77_Node000039_Node000027"><a xlink:title=" ">
<path fill="none" stroke="#63b8ff" d="M896.25,-109.84C864.41,-91.16 789.01,-46.9 750.51,-24.3"/>
<polygon fill="#63b8ff" stroke="#63b8ff" points="751.96,-21.09 741.56,-19.05 748.41,-27.13 751.96,-21.09"/>
</a>
</g>
</g>
</g>
</svg>
