<?xml version="1.0" encoding="UTF-8" standalone="no"?>
<!DOCTYPE svg PUBLIC "-//W3C//DTD SVG 1.1//EN"
 "http://www.w3.org/Graphics/SVG/1.1/DTD/svg11.dtd">
<!-- Generated by graphviz version 2.43.0 (0)
 -->
<!-- Title: server&#45;store/src/server_ws.cc Pages: 1 -->
<svg width="456pt" height="148pt"
 viewBox="0.00 0.00 455.50 148.00" xmlns="http://www.w3.org/2000/svg" xmlns:xlink="http://www.w3.org/1999/xlink">
<g id="graph0" class="graph" transform="scale(1 1) rotate(0) translate(4 144)">
<title>server&#45;store/src/server_ws.cc</title>
<!-- Node1 -->
<g id="Node000001" class="node">
<title>Node1</title>
<g id="a_Node000001"><a xlink:title=" ">
<polygon fill="#999999" stroke="#666666" points="359,-140 232,-140 232,-110 359,-110 359,-140"/>
<text text-anchor="start" x="240" y="-128" font-family="Helvetica,sans-Serif" font-size="10.00">server&#45;store/src/server</text>
<text text-anchor="middle" x="295.5" y="-117" font-family="Helvetica,sans-Serif" font-size="10.00">_ws.cc</text>
</a>
</g>
</g>
<!-- Node2 -->
<g id="Node000002" class="node">
<title>Node2</title>
<g id="a_Node000002"><a xlink:href="server__ws_8h.html" target="_top" xlink:title=" ">
<polygon fill="white" stroke="#666666" points="229.5,-74 71.5,-74 71.5,-55 229.5,-55 229.5,-74"/>
<text text-anchor="middle" x="150.5" y="-62" font-family="Helvetica,sans-Serif" font-size="10.00">webcface/server/server_ws.h</text>
</a>
</g>
</g>
<!-- Node1&#45;&gt;Node2 -->
<g id="edge1_Node000001_Node000002" class="edge">
<title>Node1&#45;&gt;Node2</title>
<g id="a_edge1_Node000001_Node000002"><a xlink:title=" ">
<path fill="none" stroke="#63b8ff" d="M260.77,-109.99C236.58,-100.23 204.6,-87.33 181.31,-77.93"/>
<polygon fill="#63b8ff" stroke="#63b8ff" points="182.5,-74.63 171.91,-74.14 179.88,-81.13 182.5,-74.63"/>
</a>
</g>
</g>
<!-- Node5 -->
<g id="Node000005" class="node">
<title>Node5</title>
<g id="a_Node000005"><a xlink:title=" ">
<polygon fill="#e0e0e0" stroke="#999999" points="257,-19 192,-19 192,0 257,0 257,-19"/>
<text text-anchor="middle" x="224.5" y="-7" font-family="Helvetica,sans-Serif" font-size="10.00">functional</text>
</a>
</g>
</g>
<!-- Node1&#45;&gt;Node5 -->
<g id="edge7_Node000001_Node000005" class="edge">
<title>Node1&#45;&gt;Node5</title>
<g id="a_edge7_Node000001_Node000005"><a xlink:title=" ">
<path fill="none" stroke="#63b8ff" d="M286.51,-109.63C273.45,-88.75 249.27,-50.09 235.27,-27.72"/>
<polygon fill="#63b8ff" stroke="#63b8ff" points="238.23,-25.85 229.96,-19.23 232.3,-29.56 238.23,-25.85"/>
</a>
</g>
</g>
<!-- Node6 -->
<g id="Node000006" class="node">
<title>Node6</title>
<g id="a_Node000006"><a xlink:title=" ">
<polygon fill="#e0e0e0" stroke="#999999" points="319.5,-19 275.5,-19 275.5,0 319.5,0 319.5,-19"/>
<text text-anchor="middle" x="297.5" y="-7" font-family="Helvetica,sans-Serif" font-size="10.00">string</text>
</a>
</g>
</g>
<!-- Node1&#45;&gt;Node6 -->
<g id="edge6_Node000001_Node000006" class="edge">
<title>Node1&#45;&gt;Node6</title>
<g id="a_edge6_Node000001_Node000006"><a xlink:title=" ">
<path fill="none" stroke="#63b8ff" d="M295.75,-109.63C296.11,-89.21 296.77,-51.81 297.17,-29.24"/>
<polygon fill="#63b8ff" stroke="#63b8ff" points="300.67,-29.29 297.35,-19.23 293.67,-29.17 300.67,-29.29"/>
</a>
</g>
</g>
<!-- Node7 -->
<g id="Node000007" class="node">
<title>Node7</title>
<g id="a_Node000007"><a xlink:title=" ">
<polygon fill="#e0e0e0" stroke="#999999" points="381.5,-74 323.5,-74 323.5,-55 381.5,-55 381.5,-74"/>
<text text-anchor="middle" x="352.5" y="-62" font-family="Helvetica,sans-Serif" font-size="10.00">memory</text>
</a>
</g>
</g>
<!-- Node1&#45;&gt;Node7 -->
<g id="edge8_Node000001_Node000007" class="edge">
<title>Node1&#45;&gt;Node7</title>
<g id="a_edge8_Node000001_Node000007"><a xlink:title=" ">
<path fill="none" stroke="#63b8ff" d="M309.3,-109.84C317.57,-101.35 328.12,-90.52 336.73,-81.69"/>
<polygon fill="#63b8ff" stroke="#63b8ff" points="339.49,-83.87 343.96,-74.27 334.47,-78.99 339.49,-83.87"/>
</a>
</g>
</g>
<!-- Node8 -->
<g id="Node000008" class="node">
<title>Node8</title>
<g id="a_Node000008"><a xlink:title=" ">
<polygon fill="#e0e0e0" stroke="#999999" points="447.5,-74 399.5,-74 399.5,-55 447.5,-55 447.5,-74"/>
<text text-anchor="middle" x="423.5" y="-62" font-family="Helvetica,sans-Serif" font-size="10.00">crow.h</text>
</a>
</g>
</g>
<!-- Node1&#45;&gt;Node8 -->
<g id="edge9_Node000001_Node000008" class="edge">
<title>Node1&#45;&gt;Node8</title>
<g id="a_edge9_Node000001_Node000008"><a xlink:title=" ">
<path fill="none" stroke="#63b8ff" d="M326.16,-109.99C347.23,-100.36 374.99,-87.67 395.47,-78.31"/>
<polygon fill="#63b8ff" stroke="#63b8ff" points="396.96,-81.48 404.6,-74.14 394.05,-75.11 396.96,-81.48"/>
</a>
</g>
</g>
<!-- Node3 -->
<g id="Node000003" class="node">
<title>Node3</title>
<g id="a_Node000003"><a xlink:href="webcface-config_8h.html" target="_top" xlink:title=" ">
<polygon fill="white" stroke="#666666" points="105,-19 0,-19 0,0 105,0 105,-19"/>
<text text-anchor="middle" x="52.5" y="-7" font-family="Helvetica,sans-Serif" font-size="10.00">webcface&#45;config.h</text>
</a>
</g>
</g>
<!-- Node2&#45;&gt;Node3 -->
<g id="edge2_Node000002_Node000003" class="edge">
<title>Node2&#45;&gt;Node3</title>
<g id="a_edge2_Node000002_Node000003"><a xlink:title=" ">
<path fill="none" stroke="#63b8ff" d="M134.75,-54.98C119.27,-46.61 95.41,-33.7 77.36,-23.95"/>
<polygon fill="#63b8ff" stroke="#63b8ff" points="78.99,-20.85 68.53,-19.17 75.66,-27.01 78.99,-20.85"/>
</a>
</g>
</g>
<!-- Node4 -->
<g id="Node000004" class="node">
<title>Node4</title>
<g id="a_Node000004"><a xlink:title=" ">
<polygon fill="#e0e0e0" stroke="#999999" points="173.5,-19 123.5,-19 123.5,0 173.5,0 173.5,-19"/>
<text text-anchor="middle" x="148.5" y="-7" font-family="Helvetica,sans-Serif" font-size="10.00">cstdint</text>
</a>
</g>
</g>
<!-- Node2&#45;&gt;Node4 -->
<g id="edge3_Node000002_Node000004" class="edge">
<title>Node2&#45;&gt;Node4</title>
<g id="a_edge3_Node000002_Node000004"><a xlink:title=" ">
<path fill="none" stroke="#63b8ff" d="M150.17,-54.75C149.91,-47.8 149.53,-37.85 149.2,-29.13"/>
<polygon fill="#63b8ff" stroke="#63b8ff" points="152.7,-28.95 148.82,-19.09 145.7,-29.21 152.7,-28.95"/>
</a>
</g>
</g>
<!-- Node2&#45;&gt;Node5 -->
<g id="edge4_Node000002_Node000005" class="edge">
<title>Node2&#45;&gt;Node5</title>
<g id="a_edge4_Node000002_Node000005"><a xlink:title=" ">
<path fill="none" stroke="#63b8ff" d="M162.39,-54.98C173.65,-46.92 190.79,-34.65 204.21,-25.03"/>
<polygon fill="#63b8ff" stroke="#63b8ff" points="206.3,-27.84 212.39,-19.17 202.23,-22.15 206.3,-27.84"/>
</a>
</g>
</g>
<!-- Node2&#45;&gt;Node6 -->
<g id="edge5_Node000002_Node000006" class="edge">
<title>Node2&#45;&gt;Node6</title>
<g id="a_edge5_Node000002_Node000006"><a xlink:title=" ">
<path fill="none" stroke="#63b8ff" d="M174.12,-54.98C198.98,-46.02 238.27,-31.86 265.81,-21.92"/>
<polygon fill="#63b8ff" stroke="#63b8ff" points="267.16,-25.16 275.38,-18.47 264.79,-18.57 267.16,-25.16"/>
</a>
</g>
</g>
</g>
</svg>
