<?xml version="1.0" encoding="UTF-8" standalone="no"?>
<!DOCTYPE svg PUBLIC "-//W3C//DTD SVG 1.1//EN"
 "http://www.w3.org/Graphics/SVG/1.1/DTD/svg11.dtd">
<!-- Generated by graphviz version 2.43.0 (0)
 -->
<!-- Title: server/store.h Pages: 1 -->
<svg width="1387pt" height="302pt"
 viewBox="0.00 0.00 1386.72 302.00" xmlns="http://www.w3.org/2000/svg" xmlns:xlink="http://www.w3.org/1999/xlink">
<g id="graph0" class="graph" transform="scale(1 1) rotate(0) translate(4 298)">
<title>server/store.h</title>
<!-- Node1 -->
<g id="Node000001" class="node">
<title>Node1</title>
<g id="a_Node000001"><a xlink:title=" ">
<polygon fill="#999999" stroke="#666666" points="1225.72,-294 1141.72,-294 1141.72,-275 1225.72,-275 1225.72,-294"/>
<text text-anchor="middle" x="1183.72" y="-282" font-family="Helvetica,sans-Serif" font-size="10.00">server/store.h</text>
</a>
</g>
</g>
<!-- Node2 -->
<g id="Node000002" class="node">
<title>Node2</title>
<g id="a_Node000002"><a xlink:href="s__client__data_8h.html" target="_top" xlink:title=" ">
<polygon fill="white" stroke="#666666" points="1129.72,-239 1039.72,-239 1039.72,-220 1129.72,-220 1129.72,-239"/>
<text text-anchor="middle" x="1084.72" y="-227" font-family="Helvetica,sans-Serif" font-size="10.00">s_client_data.h</text>
</a>
</g>
</g>
<!-- Node1&#45;&gt;Node2 -->
<g id="edge1_Node000001_Node000002" class="edge">
<title>Node1&#45;&gt;Node2</title>
<g id="a_edge1_Node000001_Node000002"><a xlink:title=" ">
<path fill="none" stroke="#63b8ff" d="M1167.81,-274.98C1152.17,-266.61 1128.06,-253.7 1109.84,-243.95"/>
<polygon fill="#63b8ff" stroke="#63b8ff" points="1111.38,-240.8 1100.92,-239.17 1108.08,-246.98 1111.38,-240.8"/>
</a>
</g>
</g>
<!-- Node5 -->
<g id="Node000005" class="node">
<title>Node5</title>
<g id="a_Node000005"><a xlink:title=" ">
<polygon fill="#e0e0e0" stroke="#999999" points="1256.22,-184 1163.22,-184 1163.22,-165 1256.22,-165 1256.22,-184"/>
<text text-anchor="middle" x="1209.72" y="-172" font-family="Helvetica,sans-Serif" font-size="10.00">unordered_map</text>
</a>
</g>
</g>
<!-- Node1&#45;&gt;Node5 -->
<g id="edge45_Node000001_Node000005" class="edge">
<title>Node1&#45;&gt;Node5</title>
<g id="a_edge45_Node000001_Node000005"><a xlink:title=" ">
<path fill="none" stroke="#63b8ff" d="M1185.85,-274.66C1190.08,-257.09 1199.62,-217.45 1205.28,-193.95"/>
<polygon fill="#63b8ff" stroke="#63b8ff" points="1208.7,-194.7 1207.64,-184.16 1201.89,-193.06 1208.7,-194.7"/>
</a>
</g>
</g>
<!-- Node17 -->
<g id="Node000017" class="node">
<title>Node17</title>
<g id="a_Node000017"><a xlink:title=" ">
<polygon fill="#e0e0e0" stroke="#999999" points="218.22,-74 153.22,-74 153.22,-55 218.22,-55 218.22,-74"/>
<text text-anchor="middle" x="185.72" y="-62" font-family="Helvetica,sans-Serif" font-size="10.00">functional</text>
</a>
</g>
</g>
<!-- Node1&#45;&gt;Node17 -->
<g id="edge47_Node000001_Node000017" class="edge">
<title>Node1&#45;&gt;Node17</title>
<g id="a_edge47_Node000001_Node000017"><a xlink:title=" ">
<path fill="none" stroke="#63b8ff" d="M1141.53,-280.92C946.9,-268.61 142.22,-212.88 71.72,-129 47.75,-100.48 101.61,-82.4 143.21,-73.11"/>
<polygon fill="#63b8ff" stroke="#63b8ff" points="144.14,-76.49 153.19,-71 142.68,-69.65 144.14,-76.49"/>
</a>
</g>
</g>
<!-- Node27 -->
<g id="Node000027" class="node">
<title>Node27</title>
<g id="a_Node000027"><a xlink:title=" ">
<polygon fill="#e0e0e0" stroke="#999999" points="1378.72,-184 1274.72,-184 1274.72,-165 1378.72,-165 1378.72,-184"/>
<text text-anchor="middle" x="1326.72" y="-172" font-family="Helvetica,sans-Serif" font-size="10.00">spdlog/common.h</text>
</a>
</g>
</g>
<!-- Node1&#45;&gt;Node27 -->
<g id="edge48_Node000001_Node000027" class="edge">
<title>Node1&#45;&gt;Node27</title>
<g id="a_edge48_Node000001_Node000027"><a xlink:title=" ">
<path fill="none" stroke="#63b8ff" d="M1189.91,-274.79C1199.58,-261.63 1219.39,-236.5 1240.72,-220 1257.39,-207.1 1278.37,-196.16 1295.43,-188.36"/>
<polygon fill="#63b8ff" stroke="#63b8ff" points="1297.23,-191.39 1304.96,-184.13 1294.4,-184.99 1297.23,-191.39"/>
</a>
</g>
</g>
<!-- Node28 -->
<g id="Node000028" class="node">
<title>Node28</title>
<g id="a_Node000028"><a xlink:title=" ">
<polygon fill="#e0e0e0" stroke="#999999" points="1307.72,-239 1249.72,-239 1249.72,-220 1307.72,-220 1307.72,-239"/>
<text text-anchor="middle" x="1278.72" y="-227" font-family="Helvetica,sans-Serif" font-size="10.00">memory</text>
</a>
</g>
</g>
<!-- Node1&#45;&gt;Node28 -->
<g id="edge46_Node000001_Node000028" class="edge">
<title>Node1&#45;&gt;Node28</title>
<g id="a_edge46_Node000001_Node000028"><a xlink:title=" ">
<path fill="none" stroke="#63b8ff" d="M1198.98,-274.98C1213.85,-266.69 1236.7,-253.94 1254.14,-244.22"/>
<polygon fill="#63b8ff" stroke="#63b8ff" points="1256.15,-247.1 1263.18,-239.17 1252.74,-240.99 1256.15,-247.1"/>
</a>
</g>
</g>
<!-- Node3 -->
<g id="Node000003" class="node">
<title>Node3</title>
<g id="a_Node000003"><a xlink:title=" ">
<polygon fill="#e0e0e0" stroke="#999999" points="638.72,-19 594.72,-19 594.72,0 638.72,0 638.72,-19"/>
<text text-anchor="middle" x="616.72" y="-7" font-family="Helvetica,sans-Serif" font-size="10.00">string</text>
</a>
</g>
</g>
<!-- Node2&#45;&gt;Node3 -->
<g id="edge2_Node000002_Node000003" class="edge">
<title>Node2&#45;&gt;Node3</title>
<g id="a_edge2_Node000002_Node000003"><a xlink:title=" ">
<path fill="none" stroke="#63b8ff" d="M1084.82,-219.73C1084.62,-190.51 1079.61,-96.01 1024.72,-55 965.6,-10.83 735.03,-9 649.17,-9.92"/>
<polygon fill="#63b8ff" stroke="#63b8ff" points="648.93,-6.42 638.97,-10.05 649.02,-13.42 648.93,-6.42"/>
</a>
</g>
</g>
<!-- Node4 -->
<g id="Node000004" class="node">
<title>Node4</title>
<g id="a_Node000004"><a xlink:title=" ">
<polygon fill="#e0e0e0" stroke="#999999" points="1144.72,-184 1112.72,-184 1112.72,-165 1144.72,-165 1144.72,-184"/>
<text text-anchor="middle" x="1128.72" y="-172" font-family="Helvetica,sans-Serif" font-size="10.00">set</text>
</a>
</g>
</g>
<!-- Node2&#45;&gt;Node4 -->
<g id="edge3_Node000002_Node000004" class="edge">
<title>Node2&#45;&gt;Node4</title>
<g id="a_edge3_Node000002_Node000004"><a xlink:title=" ">
<path fill="none" stroke="#63b8ff" d="M1091.99,-219.75C1098.26,-212.18 1107.51,-201.05 1115.15,-191.84"/>
<polygon fill="#63b8ff" stroke="#63b8ff" points="1117.89,-194.02 1121.59,-184.09 1112.51,-189.55 1117.89,-194.02"/>
</a>
</g>
</g>
<!-- Node2&#45;&gt;Node5 -->
<g id="edge4_Node000002_Node000005" class="edge">
<title>Node2&#45;&gt;Node5</title>
<g id="a_edge4_Node000002_Node000005"><a xlink:title=" ">
<path fill="none" stroke="#63b8ff" d="M1104.8,-219.98C1125.09,-211.38 1156.68,-197.99 1179.89,-188.15"/>
<polygon fill="#63b8ff" stroke="#63b8ff" points="1181.43,-191.3 1189.27,-184.17 1178.7,-184.85 1181.43,-191.3"/>
</a>
</g>
</g>
<!-- Node6 -->
<g id="Node000006" class="node">
<title>Node6</title>
<g id="a_Node000006"><a xlink:title=" ">
<polygon fill="#e0e0e0" stroke="#999999" points="1015.72,-74 965.72,-74 965.72,-55 1015.72,-55 1015.72,-74"/>
<text text-anchor="middle" x="990.72" y="-62" font-family="Helvetica,sans-Serif" font-size="10.00">chrono</text>
</a>
</g>
</g>
<!-- Node2&#45;&gt;Node6 -->
<g id="edge5_Node000002_Node000006" class="edge">
<title>Node2&#45;&gt;Node6</title>
<g id="a_edge5_Node000002_Node000006"><a xlink:title=" ">
<path fill="none" stroke="#63b8ff" d="M1081.39,-219.79C1073.52,-199.64 1052.52,-148.61 1027.72,-110 1021.35,-100.09 1013.05,-89.92 1005.93,-81.81"/>
<polygon fill="#63b8ff" stroke="#63b8ff" points="1008.36,-79.28 999.06,-74.2 1003.17,-83.97 1008.36,-79.28"/>
</a>
</g>
</g>
<!-- Node7 -->
<g id="Node000007" class="node">
<title>Node7</title>
<g id="a_Node000007"><a xlink:title=" ">
<polygon fill="#e0e0e0" stroke="#999999" points="760.72,-74 704.72,-74 704.72,-55 760.72,-55 760.72,-74"/>
<text text-anchor="middle" x="732.72" y="-62" font-family="Helvetica,sans-Serif" font-size="10.00">optional</text>
</a>
</g>
</g>
<!-- Node2&#45;&gt;Node7 -->
<g id="edge6_Node000002_Node000007" class="edge">
<title>Node2&#45;&gt;Node7</title>
<g id="a_edge6_Node000002_Node000007"><a xlink:title=" ">
<path fill="none" stroke="#63b8ff" d="M1066.34,-219.93C1029.65,-202.8 944.75,-163.05 873.72,-129 856.33,-120.67 852.23,-118.08 834.72,-110 810.6,-98.87 782.96,-86.86 762.55,-78.12"/>
<polygon fill="#63b8ff" stroke="#63b8ff" points="763.72,-74.82 753.15,-74.12 760.98,-81.26 763.72,-74.82"/>
</a>
</g>
</g>
<!-- Node8 -->
<g id="Node000008" class="node">
<title>Node8</title>
<g id="a_Node000008"><a xlink:href="message_8h.html" target="_top" xlink:title=" ">
<polygon fill="white" stroke="#666666" points="521.72,-184 395.72,-184 395.72,-165 521.72,-165 521.72,-184"/>
<text text-anchor="middle" x="458.72" y="-172" font-family="Helvetica,sans-Serif" font-size="10.00">../message/message.h</text>
</a>
</g>
</g>
<!-- Node2&#45;&gt;Node8 -->
<g id="edge7_Node000002_Node000008" class="edge">
<title>Node2&#45;&gt;Node8</title>
<g id="a_edge7_Node000002_Node000008"><a xlink:title=" ">
<path fill="none" stroke="#63b8ff" d="M1039.7,-224.69C932.84,-215.64 663.08,-192.8 532.2,-181.72"/>
<polygon fill="#63b8ff" stroke="#63b8ff" points="532.14,-178.2 521.88,-180.85 531.55,-185.18 532.14,-178.2"/>
</a>
</g>
</g>
<!-- Node14 -->
<g id="Node000014" class="node">
<title>Node14</title>
<g id="a_Node000014"><a xlink:title=" ">
<polygon fill="#e0e0e0" stroke="#999999" points="826.22,-129 735.22,-129 735.22,-110 826.22,-110 826.22,-129"/>
<text text-anchor="middle" x="780.72" y="-117" font-family="Helvetica,sans-Serif" font-size="10.00">spdlog/logger.h</text>
</a>
</g>
</g>
<!-- Node2&#45;&gt;Node14 -->
<g id="edge44_Node000002_Node000014" class="edge">
<title>Node2&#45;&gt;Node14</title>
<g id="a_edge44_Node000002_Node000014"><a xlink:title=" ">
<path fill="none" stroke="#63b8ff" d="M1039.67,-228.54C988.5,-226.78 903.93,-218.29 840.72,-184 820.18,-172.86 802.64,-152.14 791.92,-137.4"/>
<polygon fill="#63b8ff" stroke="#63b8ff" points="794.75,-135.33 786.16,-129.13 789.01,-139.34 794.75,-135.33"/>
</a>
</g>
</g>
<!-- Node2&#45;&gt;Node27 -->
<g id="edge43_Node000002_Node000027" class="edge">
<title>Node2&#45;&gt;Node27</title>
<g id="a_edge43_Node000002_Node000027"><a xlink:title=" ">
<path fill="none" stroke="#63b8ff" d="M1123.6,-219.98C1165.46,-210.82 1232.15,-196.21 1277.6,-186.26"/>
<polygon fill="#63b8ff" stroke="#63b8ff" points="1278.51,-189.64 1287.53,-184.08 1277.02,-182.8 1278.51,-189.64"/>
</a>
</g>
</g>
<!-- Node8&#45;&gt;Node3 -->
<g id="edge9_Node000008_Node000003" class="edge">
<title>Node8&#45;&gt;Node3</title>
<g id="a_edge9_Node000008_Node000003"><a xlink:title=" ">
<path fill="none" stroke="#63b8ff" d="M468,-164.75C477.38,-155.87 492.22,-141.64 504.72,-129 540.17,-93.14 580.51,-49.81 601.77,-26.77"/>
<polygon fill="#63b8ff" stroke="#63b8ff" points="604.5,-28.98 608.7,-19.25 599.35,-24.23 604.5,-28.98"/>
</a>
</g>
</g>
<!-- Node9 -->
<g id="Node000009" class="node">
<title>Node9</title>
<g id="a_Node000009"><a xlink:title=" ">
<polygon fill="#e0e0e0" stroke="#999999" points="96.72,-74 14.72,-74 14.72,-55 96.72,-55 96.72,-74"/>
<text text-anchor="middle" x="55.72" y="-62" font-family="Helvetica,sans-Serif" font-size="10.00">msgpack.hpp</text>
</a>
</g>
</g>
<!-- Node8&#45;&gt;Node9 -->
<g id="edge8_Node000008_Node000009" class="edge">
<title>Node8&#45;&gt;Node9</title>
<g id="a_edge8_Node000008_Node000009"><a xlink:title=" ">
<path fill="none" stroke="#63b8ff" d="M395.54,-165.97C348.23,-159.24 282.36,-147.53 226.72,-129 208.43,-122.91 205.56,-117.32 187.72,-110 156.77,-97.3 120.73,-85.34 94.13,-77.02"/>
<polygon fill="#63b8ff" stroke="#63b8ff" points="95.02,-73.63 84.43,-74.01 92.95,-80.31 95.02,-73.63"/>
</a>
</g>
</g>
<!-- Node10 -->
<g id="Node000010" class="node">
<title>Node10</title>
<g id="a_Node000010"><a xlink:title=" ">
<polygon fill="#e0e0e0" stroke="#999999" points="126.22,-129 81.22,-129 81.22,-110 126.22,-110 126.22,-129"/>
<text text-anchor="middle" x="103.72" y="-117" font-family="Helvetica,sans-Serif" font-size="10.00">utility</text>
</a>
</g>
</g>
<!-- Node8&#45;&gt;Node10 -->
<g id="edge10_Node000008_Node000010" class="edge">
<title>Node8&#45;&gt;Node10</title>
<g id="a_edge10_Node000008_Node000010"><a xlink:title=" ">
<path fill="none" stroke="#63b8ff" d="M395.59,-167.31C332.17,-160.53 231.51,-148.25 136.13,-129.07"/>
<polygon fill="#63b8ff" stroke="#63b8ff" points="136.82,-125.64 126.32,-127.07 135.42,-132.49 136.82,-125.64"/>
</a>
</g>
</g>
<!-- Node11 -->
<g id="Node000011" class="node">
<title>Node11</title>
<g id="a_Node000011"><a xlink:title=" ">
<polygon fill="#e0e0e0" stroke="#999999" points="493.22,-19 446.22,-19 446.22,0 493.22,0 493.22,-19"/>
<text text-anchor="middle" x="469.72" y="-7" font-family="Helvetica,sans-Serif" font-size="10.00">vector</text>
</a>
</g>
</g>
<!-- Node8&#45;&gt;Node11 -->
<g id="edge11_Node000008_Node000011" class="edge">
<title>Node8&#45;&gt;Node11</title>
<g id="a_edge11_Node000008_Node000011"><a xlink:title=" ">
<path fill="none" stroke="#63b8ff" d="M466.93,-164.8C474.26,-156.38 484.47,-142.9 488.72,-129 499.33,-94.27 486.69,-51.9 477.53,-28.39"/>
<polygon fill="#63b8ff" stroke="#63b8ff" points="480.71,-26.93 473.67,-19.01 474.24,-29.59 480.71,-26.93"/>
</a>
</g>
</g>
<!-- Node12 -->
<g id="Node000012" class="node">
<title>Node12</title>
<g id="a_Node000012"><a xlink:title=" ">
<polygon fill="#e0e0e0" stroke="#999999" points="179.22,-129 144.22,-129 144.22,-110 179.22,-110 179.22,-129"/>
<text text-anchor="middle" x="161.72" y="-117" font-family="Helvetica,sans-Serif" font-size="10.00">any</text>
</a>
</g>
</g>
<!-- Node8&#45;&gt;Node12 -->
<g id="edge12_Node000008_Node000012" class="edge">
<title>Node8&#45;&gt;Node12</title>
<g id="a_edge12_Node000008_Node000012"><a xlink:title=" ">
<path fill="none" stroke="#63b8ff" d="M398.16,-164.97C344.25,-156.99 263.37,-144.06 193.72,-129 192.25,-128.68 190.74,-128.34 189.22,-127.98"/>
<polygon fill="#63b8ff" stroke="#63b8ff" points="189.81,-124.52 179.25,-125.47 188.1,-131.31 189.81,-124.52"/>
</a>
</g>
</g>
<!-- Node13 -->
<g id="Node000013" class="node">
<title>Node13</title>
<g id="a_Node000013"><a xlink:title=" ">
<polygon fill="#e0e0e0" stroke="#999999" points="103.72,-19 53.72,-19 53.72,0 103.72,0 103.72,-19"/>
<text text-anchor="middle" x="78.72" y="-7" font-family="Helvetica,sans-Serif" font-size="10.00">cstdint</text>
</a>
</g>
</g>
<!-- Node8&#45;&gt;Node13 -->
<g id="edge13_Node000008_Node000013" class="edge">
<title>Node8&#45;&gt;Node13</title>
<g id="a_edge13_Node000008_Node000013"><a xlink:title=" ">
<path fill="none" stroke="#63b8ff" d="M395.36,-170.61C300.97,-165.57 128.45,-153.29 71.72,-129 31.21,-111.65 -15.86,-93.43 5.72,-55 14.07,-40.14 29.62,-29.65 44.23,-22.61"/>
<polygon fill="#63b8ff" stroke="#63b8ff" points="45.87,-25.71 53.6,-18.47 43.04,-19.31 45.87,-25.71"/>
</a>
</g>
</g>
<!-- Node8&#45;&gt;Node14 -->
<g id="edge14_Node000008_Node000014" class="edge">
<title>Node8&#45;&gt;Node14</title>
<g id="a_edge14_Node000008_Node000014"><a xlink:title=" ">
<path fill="none" stroke="#63b8ff" d="M510.45,-164.98C569.19,-155.32 664.66,-139.6 725,-129.67"/>
<polygon fill="#63b8ff" stroke="#63b8ff" points="725.81,-133.09 735.1,-128.01 724.67,-126.18 725.81,-133.09"/>
</a>
</g>
</g>
<!-- Node15 -->
<g id="Node000015" class="node">
<title>Node15</title>
<g id="a_Node000015"><a xlink:href="common_2func_8h.html" target="_top" xlink:title=" ">
<polygon fill="white" stroke="#666666" points="479.72,-129 337.72,-129 337.72,-110 479.72,-110 479.72,-129"/>
<text text-anchor="middle" x="408.72" y="-117" font-family="Helvetica,sans-Serif" font-size="10.00">webcface/common/func.h</text>
</a>
</g>
</g>
<!-- Node8&#45;&gt;Node15 -->
<g id="edge15_Node000008_Node000015" class="edge">
<title>Node8&#45;&gt;Node15</title>
<g id="a_edge15_Node000008_Node000015"><a xlink:title=" ">
<path fill="none" stroke="#63b8ff" d="M450.46,-164.75C443.26,-157.11 432.61,-145.82 423.87,-136.56"/>
<polygon fill="#63b8ff" stroke="#63b8ff" points="426.23,-133.96 416.82,-129.09 421.14,-138.76 426.23,-133.96"/>
</a>
</g>
</g>
<!-- Node23 -->
<g id="Node000023" class="node">
<title>Node23</title>
<g id="a_Node000023"><a xlink:href="log_8h.html" target="_top" xlink:title=" ">
<polygon fill="white" stroke="#666666" points="1018.72,-129 882.72,-129 882.72,-110 1018.72,-110 1018.72,-129"/>
<text text-anchor="middle" x="950.72" y="-117" font-family="Helvetica,sans-Serif" font-size="10.00">webcface/common/log.h</text>
</a>
</g>
</g>
<!-- Node8&#45;&gt;Node23 -->
<g id="edge30_Node000008_Node000023" class="edge">
<title>Node8&#45;&gt;Node23</title>
<g id="a_edge30_Node000008_Node000023"><a xlink:title=" ">
<path fill="none" stroke="#63b8ff" d="M521.78,-166.71C611.31,-157.06 775.16,-139.41 872.38,-128.94"/>
<polygon fill="#63b8ff" stroke="#63b8ff" points="872.87,-132.41 882.44,-127.86 872.12,-125.45 872.87,-132.41"/>
</a>
</g>
</g>
<!-- Node24 -->
<g id="Node000024" class="node">
<title>Node24</title>
<g id="a_Node000024"><a xlink:href="common_2view_8h.html" target="_top" xlink:title=" ">
<polygon fill="white" stroke="#666666" points="717.22,-129 574.22,-129 574.22,-110 717.22,-110 717.22,-129"/>
<text text-anchor="middle" x="645.72" y="-117" font-family="Helvetica,sans-Serif" font-size="10.00">webcface/common/view.h</text>
</a>
</g>
</g>
<!-- Node8&#45;&gt;Node24 -->
<g id="edge33_Node000008_Node000024" class="edge">
<title>Node8&#45;&gt;Node24</title>
<g id="a_edge33_Node000008_Node000024"><a xlink:title=" ">
<path fill="none" stroke="#63b8ff" d="M488.76,-164.98C520.43,-156.01 570.49,-141.82 605.53,-131.89"/>
<polygon fill="#63b8ff" stroke="#63b8ff" points="606.77,-135.18 615.44,-129.08 604.86,-128.44 606.77,-135.18"/>
</a>
</g>
</g>
<!-- Node26 -->
<g id="Node000026" class="node">
<title>Node26</title>
<g id="a_Node000026"><a xlink:href="val__adaptor_8h.html" target="_top" xlink:title=" ">
<polygon fill="white" stroke="#666666" points="319.22,-129 236.22,-129 236.22,-110 319.22,-110 319.22,-129"/>
<text text-anchor="middle" x="277.72" y="-117" font-family="Helvetica,sans-Serif" font-size="10.00">val_adaptor.h</text>
</a>
</g>
</g>
<!-- Node8&#45;&gt;Node26 -->
<g id="edge38_Node000008_Node000026" class="edge">
<title>Node8&#45;&gt;Node26</title>
<g id="a_edge38_Node000008_Node000026"><a xlink:title=" ">
<path fill="none" stroke="#63b8ff" d="M429.64,-164.98C399.12,-156.05 350.96,-141.94 317.06,-132.02"/>
<polygon fill="#63b8ff" stroke="#63b8ff" points="317.61,-128.53 307.03,-129.08 315.64,-135.25 317.61,-128.53"/>
</a>
</g>
</g>
<!-- Node15&#45;&gt;Node3 -->
<g id="edge20_Node000015_Node000003" class="edge">
<title>Node15&#45;&gt;Node3</title>
<g id="a_edge20_Node000015_Node000003"><a xlink:title=" ">
<path fill="none" stroke="#63b8ff" d="M425.39,-109.84C461.69,-91 548.07,-46.14 591.25,-23.73"/>
<polygon fill="#63b8ff" stroke="#63b8ff" points="593,-26.76 600.26,-19.05 589.77,-20.55 593,-26.76"/>
</a>
</g>
</g>
<!-- Node15&#45;&gt;Node7 -->
<g id="edge19_Node000015_Node000007" class="edge">
<title>Node15&#45;&gt;Node7</title>
<g id="a_edge19_Node000015_Node000007"><a xlink:title=" ">
<path fill="none" stroke="#63b8ff" d="M472.21,-109.99C528.24,-102.18 612.33,-89.72 694.48,-74.12"/>
<polygon fill="#63b8ff" stroke="#63b8ff" points="695.32,-77.53 704.48,-72.21 694,-70.65 695.32,-77.53"/>
</a>
</g>
</g>
<!-- Node15&#45;&gt;Node11 -->
<g id="edge16_Node000015_Node000011" class="edge">
<title>Node15&#45;&gt;Node11</title>
<g id="a_edge16_Node000015_Node000011"><a xlink:title=" ">
<path fill="none" stroke="#63b8ff" d="M418.84,-109.93C428.08,-101.6 441.51,-88.18 449.72,-74 457.86,-59.93 463.1,-42.16 466.16,-29"/>
<polygon fill="#63b8ff" stroke="#63b8ff" points="469.58,-29.71 468.23,-19.21 462.73,-28.26 469.58,-29.71"/>
</a>
</g>
</g>
<!-- Node16 -->
<g id="Node000016" class="node">
<title>Node16</title>
<g id="a_Node000016"><a xlink:title=" ">
<polygon fill="#e0e0e0" stroke="#999999" points="441.22,-74 372.22,-74 372.22,-55 441.22,-55 441.22,-74"/>
<text text-anchor="middle" x="406.72" y="-62" font-family="Helvetica,sans-Serif" font-size="10.00">type_traits</text>
</a>
</g>
</g>
<!-- Node15&#45;&gt;Node16 -->
<g id="edge17_Node000015_Node000016" class="edge">
<title>Node15&#45;&gt;Node16</title>
<g id="a_edge17_Node000015_Node000016"><a xlink:title=" ">
<path fill="none" stroke="#63b8ff" d="M408.39,-109.75C408.13,-102.8 407.75,-92.85 407.42,-84.13"/>
<polygon fill="#63b8ff" stroke="#63b8ff" points="410.92,-83.95 407.04,-74.09 403.92,-84.21 410.92,-83.95"/>
</a>
</g>
</g>
<!-- Node15&#45;&gt;Node17 -->
<g id="edge18_Node000015_Node000017" class="edge">
<title>Node15&#45;&gt;Node17</title>
<g id="a_edge18_Node000015_Node000017"><a xlink:title=" ">
<path fill="none" stroke="#63b8ff" d="M372.89,-109.98C333.54,-100.63 270.37,-85.62 228.46,-75.66"/>
<polygon fill="#63b8ff" stroke="#63b8ff" points="229.09,-72.21 218.55,-73.3 227.47,-79.02 229.09,-72.21"/>
</a>
</g>
</g>
<!-- Node18 -->
<g id="Node000018" class="node">
<title>Node18</title>
<g id="a_Node000018"><a xlink:title=" ">
<polygon fill="#e0e0e0" stroke="#999999" points="400.22,-19 343.22,-19 343.22,0 400.22,0 400.22,-19"/>
<text text-anchor="middle" x="371.72" y="-7" font-family="Helvetica,sans-Serif" font-size="10.00">ostream</text>
</a>
</g>
</g>
<!-- Node15&#45;&gt;Node18 -->
<g id="edge21_Node000015_Node000018" class="edge">
<title>Node15&#45;&gt;Node18</title>
<g id="a_edge21_Node000015_Node000018"><a xlink:title=" ">
<path fill="none" stroke="#63b8ff" d="M394.94,-109.82C383.9,-101.99 369.23,-89.35 362.72,-74 356.61,-59.58 359.93,-41.85 364.16,-28.78"/>
<polygon fill="#63b8ff" stroke="#63b8ff" points="367.56,-29.68 367.74,-19.09 360.99,-27.25 367.56,-29.68"/>
</a>
</g>
</g>
<!-- Node19 -->
<g id="Node000019" class="node">
<title>Node19</title>
<g id="a_Node000019"><a xlink:href="val_8h.html" target="_top" xlink:title=" ">
<polygon fill="white" stroke="#666666" points="277.22,-74 236.22,-74 236.22,-55 277.22,-55 277.22,-74"/>
<text text-anchor="middle" x="256.72" y="-62" font-family="Helvetica,sans-Serif" font-size="10.00">val.h</text>
</a>
</g>
</g>
<!-- Node15&#45;&gt;Node19 -->
<g id="edge22_Node000015_Node000019" class="edge">
<title>Node15&#45;&gt;Node19</title>
<g id="a_edge22_Node000015_Node000019"><a xlink:title=" ">
<path fill="none" stroke="#63b8ff" d="M384.3,-109.98C357.87,-100.77 315.7,-86.07 287.14,-76.11"/>
<polygon fill="#63b8ff" stroke="#63b8ff" points="288.25,-72.79 277.66,-72.8 285.95,-79.4 288.25,-72.79"/>
</a>
</g>
</g>
<!-- Node19&#45;&gt;Node3 -->
<g id="edge23_Node000019_Node000003" class="edge">
<title>Node19&#45;&gt;Node3</title>
<g id="a_edge23_Node000019_Node000003"><a xlink:title=" ">
<path fill="none" stroke="#63b8ff" d="M277.37,-58.11C282.07,-56.99 287.05,-55.88 291.72,-55 398.13,-34.85 525.78,-20.08 584.4,-13.82"/>
<polygon fill="#63b8ff" stroke="#63b8ff" points="584.95,-17.28 594.53,-12.75 584.21,-10.32 584.95,-17.28"/>
</a>
</g>
</g>
<!-- Node19&#45;&gt;Node11 -->
<g id="edge24_Node000019_Node000011" class="edge">
<title>Node19&#45;&gt;Node11</title>
<g id="a_edge24_Node000019_Node000011"><a xlink:title=" ">
<path fill="none" stroke="#63b8ff" d="M277.53,-58.32C314.44,-49.14 391.64,-29.93 436.14,-18.85"/>
<polygon fill="#63b8ff" stroke="#63b8ff" points="437.06,-22.23 445.92,-16.42 435.37,-15.44 437.06,-22.23"/>
</a>
</g>
</g>
<!-- Node19&#45;&gt;Node13 -->
<g id="edge28_Node000019_Node000013" class="edge">
<title>Node19&#45;&gt;Node13</title>
<g id="a_edge28_Node000019_Node000013"><a xlink:title=" ">
<path fill="none" stroke="#63b8ff" d="M235.95,-57.32C205.94,-48.38 150.07,-31.74 113.65,-20.9"/>
<polygon fill="#63b8ff" stroke="#63b8ff" points="114.51,-17.5 103.93,-18.01 112.51,-24.21 114.51,-17.5"/>
</a>
</g>
</g>
<!-- Node19&#45;&gt;Node18 -->
<g id="edge29_Node000019_Node000018" class="edge">
<title>Node19&#45;&gt;Node18</title>
<g id="a_edge29_Node000019_Node000018"><a xlink:title=" ">
<path fill="none" stroke="#63b8ff" d="M275.2,-54.98C293.7,-46.46 322.4,-33.23 343.7,-23.41"/>
<polygon fill="#63b8ff" stroke="#63b8ff" points="345.29,-26.53 352.91,-19.17 342.36,-20.18 345.29,-26.53"/>
</a>
</g>
</g>
<!-- Node20 -->
<g id="Node000020" class="node">
<title>Node20</title>
<g id="a_Node000020"><a xlink:title=" ">
<polygon fill="#e0e0e0" stroke="#999999" points="163.22,-19 122.22,-19 122.22,0 163.22,0 163.22,-19"/>
<text text-anchor="middle" x="142.72" y="-7" font-family="Helvetica,sans-Serif" font-size="10.00">tuple</text>
</a>
</g>
</g>
<!-- Node19&#45;&gt;Node20 -->
<g id="edge25_Node000019_Node000020" class="edge">
<title>Node19&#45;&gt;Node20</title>
<g id="a_edge25_Node000019_Node000020"><a xlink:title=" ">
<path fill="none" stroke="#63b8ff" d="M238.4,-54.98C220.06,-46.46 191.61,-33.23 170.49,-23.41"/>
<polygon fill="#63b8ff" stroke="#63b8ff" points="171.91,-20.21 161.37,-19.17 168.96,-26.56 171.91,-20.21"/>
</a>
</g>
</g>
<!-- Node21 -->
<g id="Node000021" class="node">
<title>Node21</title>
<g id="a_Node000021"><a xlink:title=" ">
<polygon fill="#e0e0e0" stroke="#999999" points="241.72,-19 181.72,-19 181.72,0 241.72,0 241.72,-19"/>
<text text-anchor="middle" x="211.72" y="-7" font-family="Helvetica,sans-Serif" font-size="10.00">concepts</text>
</a>
</g>
</g>
<!-- Node19&#45;&gt;Node21 -->
<g id="edge26_Node000019_Node000021" class="edge">
<title>Node19&#45;&gt;Node21</title>
<g id="a_edge26_Node000019_Node000021"><a xlink:title=" ">
<path fill="none" stroke="#63b8ff" d="M249.29,-54.75C242.87,-47.18 233.41,-36.05 225.6,-26.84"/>
<polygon fill="#63b8ff" stroke="#63b8ff" points="228.15,-24.45 219.01,-19.09 222.82,-28.98 228.15,-24.45"/>
</a>
</g>
</g>
<!-- Node22 -->
<g id="Node000022" class="node">
<title>Node22</title>
<g id="a_Node000022"><a xlink:title=" ">
<polygon fill="#e0e0e0" stroke="#999999" points="325.22,-19 260.22,-19 260.22,0 325.22,0 325.22,-19"/>
<text text-anchor="middle" x="292.72" y="-7" font-family="Helvetica,sans-Serif" font-size="10.00">stdexcept</text>
</a>
</g>
</g>
<!-- Node19&#45;&gt;Node22 -->
<g id="edge27_Node000019_Node000022" class="edge">
<title>Node19&#45;&gt;Node22</title>
<g id="a_edge27_Node000019_Node000022"><a xlink:title=" ">
<path fill="none" stroke="#63b8ff" d="M262.66,-54.75C267.7,-47.34 275.06,-36.5 281.23,-27.41"/>
<polygon fill="#63b8ff" stroke="#63b8ff" points="284.16,-29.33 286.89,-19.09 278.37,-25.39 284.16,-29.33"/>
</a>
</g>
</g>
<!-- Node23&#45;&gt;Node3 -->
<g id="edge31_Node000023_Node000003" class="edge">
<title>Node23&#45;&gt;Node3</title>
<g id="a_edge31_Node000023_Node000003"><a xlink:title=" ">
<path fill="none" stroke="#63b8ff" d="M930.79,-109.94C900.18,-96.98 839.59,-72.1 786.72,-55 739.37,-39.69 683.34,-25.82 648.91,-17.78"/>
<polygon fill="#63b8ff" stroke="#63b8ff" points="649.49,-14.32 638.96,-15.47 647.91,-21.14 649.49,-14.32"/>
</a>
</g>
</g>
<!-- Node23&#45;&gt;Node6 -->
<g id="edge32_Node000023_Node000006" class="edge">
<title>Node23&#45;&gt;Node6</title>
<g id="a_edge32_Node000023_Node000006"><a xlink:title=" ">
<path fill="none" stroke="#63b8ff" d="M957.33,-109.75C962.98,-102.26 971.26,-91.28 978.17,-82.13"/>
<polygon fill="#63b8ff" stroke="#63b8ff" points="981.01,-84.18 984.24,-74.09 975.42,-79.96 981.01,-84.18"/>
</a>
</g>
</g>
<!-- Node24&#45;&gt;Node3 -->
<g id="edge34_Node000024_Node000003" class="edge">
<title>Node24&#45;&gt;Node3</title>
<g id="a_edge34_Node000024_Node000003"><a xlink:title=" ">
<path fill="none" stroke="#63b8ff" d="M702.25,-109.96C744.56,-101.05 791.64,-84.21 769.72,-55 755.21,-35.66 689.19,-21.99 648.76,-15.26"/>
<polygon fill="#63b8ff" stroke="#63b8ff" points="649.27,-11.79 638.84,-13.66 648.15,-18.7 649.27,-11.79"/>
</a>
</g>
</g>
<!-- Node24&#45;&gt;Node7 -->
<g id="edge35_Node000024_Node000007" class="edge">
<title>Node24&#45;&gt;Node7</title>
<g id="a_edge35_Node000024_Node000007"><a xlink:title=" ">
<path fill="none" stroke="#63b8ff" d="M659.7,-109.98C673.19,-101.77 693.85,-89.18 709.76,-79.49"/>
<polygon fill="#63b8ff" stroke="#63b8ff" points="711.77,-82.36 718.49,-74.17 708.13,-76.38 711.77,-82.36"/>
</a>
</g>
</g>
<!-- Node25 -->
<g id="Node000025" class="node">
<title>Node25</title>
<g id="a_Node000025"><a xlink:href="field__base_8h.html" target="_top" xlink:title=" ">
<polygon fill="white" stroke="#666666" points="687.22,-74 612.22,-74 612.22,-55 687.22,-55 687.22,-74"/>
<text text-anchor="middle" x="649.72" y="-62" font-family="Helvetica,sans-Serif" font-size="10.00">field_base.h</text>
</a>
</g>
</g>
<!-- Node24&#45;&gt;Node25 -->
<g id="edge36_Node000024_Node000025" class="edge">
<title>Node24&#45;&gt;Node25</title>
<g id="a_edge36_Node000024_Node000025"><a xlink:title=" ">
<path fill="none" stroke="#63b8ff" d="M646.38,-109.75C646.9,-102.8 647.66,-92.85 648.31,-84.13"/>
<polygon fill="#63b8ff" stroke="#63b8ff" points="651.81,-84.32 649.07,-74.09 644.83,-83.8 651.81,-84.32"/>
</a>
</g>
</g>
<!-- Node25&#45;&gt;Node3 -->
<g id="edge37_Node000025_Node000003" class="edge">
<title>Node25&#45;&gt;Node3</title>
<g id="a_edge37_Node000025_Node000003"><a xlink:title=" ">
<path fill="none" stroke="#63b8ff" d="M644.27,-54.75C639.71,-47.42 633.05,-36.73 627.43,-27.7"/>
<polygon fill="#63b8ff" stroke="#63b8ff" points="630.32,-25.73 622.07,-19.09 624.38,-29.43 630.32,-25.73"/>
</a>
</g>
</g>
<!-- Node26&#45;&gt;Node3 -->
<g id="edge41_Node000026_Node000003" class="edge">
<title>Node26&#45;&gt;Node3</title>
<g id="a_edge41_Node000026_Node000003"><a xlink:title=" ">
<path fill="none" stroke="#63b8ff" d="M286.25,-109.9C300.65,-95.95 331.26,-68.58 362.72,-55 437.77,-22.6 534.99,-13.78 584.56,-11.39"/>
<polygon fill="#63b8ff" stroke="#63b8ff" points="584.84,-14.88 594.68,-10.96 584.54,-7.88 584.84,-14.88"/>
</a>
</g>
</g>
<!-- Node26&#45;&gt;Node9 -->
<g id="edge40_Node000026_Node000009" class="edge">
<title>Node26&#45;&gt;Node9</title>
<g id="a_edge40_Node000026_Node000009"><a xlink:title=" ">
<path fill="none" stroke="#63b8ff" d="M242.05,-109.98C203.89,-100.87 143.25,-86.4 101.57,-76.45"/>
<polygon fill="#63b8ff" stroke="#63b8ff" points="102.21,-73 91.67,-74.08 100.58,-79.81 102.21,-73"/>
</a>
</g>
</g>
<!-- Node26&#45;&gt;Node13 -->
<g id="edge42_Node000026_Node000013" class="edge">
<title>Node26&#45;&gt;Node13</title>
<g id="a_edge42_Node000026_Node000013"><a xlink:title=" ">
<path fill="none" stroke="#63b8ff" d="M236.67,-109.99C209.03,-103.07 172.5,-91.54 143.72,-74 123.19,-61.49 104.07,-41.38 91.96,-27.14"/>
<polygon fill="#63b8ff" stroke="#63b8ff" points="94.43,-24.64 85.37,-19.16 89.04,-29.1 94.43,-24.64"/>
</a>
</g>
</g>
<!-- Node26&#45;&gt;Node19 -->
<g id="edge39_Node000026_Node000019" class="edge">
<title>Node26&#45;&gt;Node19</title>
<g id="a_edge39_Node000026_Node000019"><a xlink:title=" ">
<path fill="none" stroke="#63b8ff" d="M274.25,-109.75C271.44,-102.65 267.38,-92.4 263.87,-83.56"/>
<polygon fill="#63b8ff" stroke="#63b8ff" points="267.06,-82.1 260.12,-74.09 260.55,-84.68 267.06,-82.1"/>
</a>
</g>
</g>
</g>
</svg>
