<?xml version="1.0" encoding="UTF-8" standalone="no"?>
<!DOCTYPE svg PUBLIC "-//W3C//DTD SVG 1.1//EN"
 "http://www.w3.org/Graphics/SVG/1.1/DTD/svg11.dtd">
<!-- Generated by graphviz version 2.43.0 (0)
 -->
<!-- Title: /home/runner/work/webcface/webcface/server&#45;store/include/webcface/server/store.h Pages: 1 -->
<svg width="1104pt" height="159pt"
 viewBox="0.00 0.00 1103.50 159.00" xmlns="http://www.w3.org/2000/svg" xmlns:xlink="http://www.w3.org/1999/xlink">
<g id="graph0" class="graph" transform="scale(1 1) rotate(0) translate(4 155)">
<title>/home/runner/work/webcface/webcface/server&#45;store/include/webcface/server/store.h</title>
<!-- Node1 -->
<g id="Node000001" class="node">
<title>Node1</title>
<g id="a_Node000001"><a xlink:title=" ">
<polygon fill="#999999" stroke="#666666" points="719.5,-151 552.5,-151 552.5,-110 719.5,-110 719.5,-151"/>
<text text-anchor="start" x="560.5" y="-139" font-family="Helvetica,sans-Serif" font-size="10.00">/home/runner/work/webcface</text>
<text text-anchor="start" x="560.5" y="-128" font-family="Helvetica,sans-Serif" font-size="10.00">/webcface/server&#45;store/include</text>
<text text-anchor="middle" x="636" y="-117" font-family="Helvetica,sans-Serif" font-size="10.00">/webcface/server/store.h</text>
</a>
</g>
</g>
<!-- Node2 -->
<g id="Node000002" class="node">
<title>Node2</title>
<g id="a_Node000002"><a xlink:title=" ">
<polygon fill="#e0e0e0" stroke="#999999" points="1095.5,-19 1002.5,-19 1002.5,0 1095.5,0 1095.5,-19"/>
<text text-anchor="middle" x="1049" y="-7" font-family="Helvetica,sans-Serif" font-size="10.00">unordered_map</text>
</a>
</g>
</g>
<!-- Node1&#45;&gt;Node2 -->
<g id="edge1_Node000001_Node000002" class="edge">
<title>Node1&#45;&gt;Node2</title>
<g id="a_edge1_Node000001_Node000002"><a xlink:title=" ">
<path fill="none" stroke="#63b8ff" d="M719.58,-110.74C756.96,-101.34 801.25,-88.79 840,-74 857.64,-67.27 860.32,-61.64 878,-55 916.69,-40.48 962,-28.92 996.27,-21.22"/>
<polygon fill="#63b8ff" stroke="#63b8ff" points="997.06,-24.63 1006.07,-19.06 995.55,-17.8 997.06,-24.63"/>
</a>
</g>
</g>
<!-- Node3 -->
<g id="Node000003" class="node">
<title>Node3</title>
<g id="a_Node000003"><a xlink:title=" ">
<polygon fill="#e0e0e0" stroke="#999999" points="572,-19 514,-19 514,0 572,0 572,-19"/>
<text text-anchor="middle" x="543" y="-7" font-family="Helvetica,sans-Serif" font-size="10.00">memory</text>
</a>
</g>
</g>
<!-- Node1&#45;&gt;Node3 -->
<g id="edge2_Node000001_Node000003" class="edge">
<title>Node1&#45;&gt;Node3</title>
<g id="a_edge2_Node000001_Node000003"><a xlink:title=" ">
<path fill="none" stroke="#63b8ff" d="M620.64,-109.85C602.6,-86.76 572.97,-48.84 556.01,-27.14"/>
<polygon fill="#63b8ff" stroke="#63b8ff" points="558.7,-24.9 549.78,-19.18 553.18,-29.21 558.7,-24.9"/>
</a>
</g>
</g>
<!-- Node4 -->
<g id="Node000004" class="node">
<title>Node4</title>
<g id="a_Node000004"><a xlink:title=" ">
<polygon fill="#e0e0e0" stroke="#999999" points="951.5,-74 886.5,-74 886.5,-55 951.5,-55 951.5,-74"/>
<text text-anchor="middle" x="919" y="-62" font-family="Helvetica,sans-Serif" font-size="10.00">functional</text>
</a>
</g>
</g>
<!-- Node1&#45;&gt;Node4 -->
<g id="edge3_Node000001_Node000004" class="edge">
<title>Node1&#45;&gt;Node4</title>
<g id="a_edge3_Node000001_Node000004"><a xlink:title=" ">
<path fill="none" stroke="#63b8ff" d="M719.76,-110.56C771.3,-98.9 835.17,-84.46 876.48,-75.11"/>
<polygon fill="#63b8ff" stroke="#63b8ff" points="877.5,-78.47 886.48,-72.85 875.96,-71.65 877.5,-78.47"/>
</a>
</g>
</g>
<!-- Node5 -->
<g id="Node000005" class="node">
<title>Node5</title>
<g id="a_Node000005"><a xlink:title=" ">
<polygon fill="#e0e0e0" stroke="#999999" points="104,-19 0,-19 0,0 104,0 104,-19"/>
<text text-anchor="middle" x="52" y="-7" font-family="Helvetica,sans-Serif" font-size="10.00">spdlog/common.h</text>
</a>
</g>
</g>
<!-- Node1&#45;&gt;Node5 -->
<g id="edge4_Node000001_Node000005" class="edge">
<title>Node1&#45;&gt;Node5</title>
<g id="a_edge4_Node000001_Node000005"><a xlink:title=" ">
<path fill="none" stroke="#63b8ff" d="M552.18,-115.59C489.9,-104.98 402.95,-89.58 327,-74 245.38,-57.26 150.86,-34.74 96.59,-21.51"/>
<polygon fill="#63b8ff" stroke="#63b8ff" points="97.15,-18.04 86.61,-19.07 95.49,-24.84 97.15,-18.04"/>
</a>
</g>
</g>
<!-- Node6 -->
<g id="Node000006" class="node">
<title>Node6</title>
<g id="a_Node000006"><a xlink:href="def_8h.html" target="_top" xlink:title=" ">
<polygon fill="white" stroke="#666666" points="726,-19 590,-19 590,0 726,0 726,-19"/>
<text text-anchor="middle" x="658" y="-7" font-family="Helvetica,sans-Serif" font-size="10.00">webcface/common/def.h</text>
</a>
</g>
</g>
<!-- Node1&#45;&gt;Node6 -->
<g id="edge5_Node000001_Node000006" class="edge">
<title>Node1&#45;&gt;Node6</title>
<g id="a_edge5_Node000001_Node000006"><a xlink:title=" ">
<path fill="none" stroke="#63b8ff" d="M639.63,-109.85C643.77,-87.48 650.48,-51.19 654.54,-29.21"/>
<polygon fill="#63b8ff" stroke="#63b8ff" points="658.02,-29.64 656.4,-19.18 651.14,-28.37 658.02,-29.64"/>
</a>
</g>
</g>
<!-- Node7 -->
<g id="Node000007" class="node">
<title>Node7</title>
<g id="a_Node000007"><a xlink:href="server_2server_8h.html" target="_top" xlink:title=" ">
<polygon fill="white" stroke="#666666" points="475.5,-74 336.5,-74 336.5,-55 475.5,-55 475.5,-74"/>
<text text-anchor="middle" x="406" y="-62" font-family="Helvetica,sans-Serif" font-size="10.00">webcface/server/server.h</text>
</a>
</g>
</g>
<!-- Node1&#45;&gt;Node7 -->
<g id="edge6_Node000001_Node000007" class="edge">
<title>Node1&#45;&gt;Node7</title>
<g id="a_edge6_Node000001_Node000007"><a xlink:title=" ">
<path fill="none" stroke="#63b8ff" d="M565.74,-109.95C526.59,-99.06 479.25,-85.88 446.31,-76.72"/>
<polygon fill="#63b8ff" stroke="#63b8ff" points="447.15,-73.32 436.58,-74.01 445.27,-80.06 447.15,-73.32"/>
</a>
</g>
</g>
<!-- Node13 -->
<g id="Node000013" class="node">
<title>Node13</title>
<g id="a_Node000013"><a xlink:href="encoding_8h.html" target="_top" xlink:title=" ">
<polygon fill="white" stroke="#666666" points="830.5,-74 663.5,-74 663.5,-55 830.5,-55 830.5,-74"/>
<text text-anchor="middle" x="747" y="-62" font-family="Helvetica,sans-Serif" font-size="10.00">webcface/encoding/encoding.h</text>
</a>
</g>
</g>
<!-- Node1&#45;&gt;Node13 -->
<g id="edge15_Node000001_Node000013" class="edge">
<title>Node1&#45;&gt;Node13</title>
<g id="a_edge15_Node000001_Node000013"><a xlink:title=" ">
<path fill="none" stroke="#63b8ff" d="M669.91,-109.95C687.12,-100.03 707.61,-88.21 723.14,-79.25"/>
<polygon fill="#63b8ff" stroke="#63b8ff" points="725.18,-82.12 732.1,-74.09 721.69,-76.05 725.18,-82.12"/>
</a>
</g>
</g>
<!-- Node7&#45;&gt;Node3 -->
<g id="edge11_Node000007_Node000003" class="edge">
<title>Node7&#45;&gt;Node3</title>
<g id="a_edge11_Node000007_Node000003"><a xlink:title=" ">
<path fill="none" stroke="#63b8ff" d="M428.01,-54.98C450.45,-46.3 485.48,-32.75 510.99,-22.88"/>
<polygon fill="#63b8ff" stroke="#63b8ff" points="512.52,-26.04 520.59,-19.17 510,-19.51 512.52,-26.04"/>
</a>
</g>
</g>
<!-- Node7&#45;&gt;Node5 -->
<g id="edge8_Node000007_Node000005" class="edge">
<title>Node7&#45;&gt;Node5</title>
<g id="a_edge8_Node000007_Node000005"><a xlink:title=" ">
<path fill="none" stroke="#63b8ff" d="M349.12,-54.98C284.8,-45.35 180.41,-29.72 114.03,-19.79"/>
<polygon fill="#63b8ff" stroke="#63b8ff" points="114.53,-16.32 104.12,-18.3 113.49,-23.25 114.53,-16.32"/>
</a>
</g>
</g>
<!-- Node7&#45;&gt;Node6 -->
<g id="edge7_Node000007_Node000006" class="edge">
<title>Node7&#45;&gt;Node6</title>
<g id="a_edge7_Node000007_Node000006"><a xlink:title=" ">
<path fill="none" stroke="#63b8ff" d="M446.49,-54.98C490.17,-45.8 559.81,-31.15 607.15,-21.19"/>
<polygon fill="#63b8ff" stroke="#63b8ff" points="608.13,-24.57 617.19,-19.08 606.69,-17.72 608.13,-24.57"/>
</a>
</g>
</g>
<!-- Node8 -->
<g id="Node000008" class="node">
<title>Node8</title>
<g id="a_Node000008"><a xlink:title=" ">
<polygon fill="#e0e0e0" stroke="#999999" points="229.5,-19 122.5,-19 122.5,0 229.5,0 229.5,-19"/>
<text text-anchor="middle" x="176" y="-7" font-family="Helvetica,sans-Serif" font-size="10.00">condition_variable</text>
</a>
</g>
</g>
<!-- Node7&#45;&gt;Node8 -->
<g id="edge9_Node000007_Node000008" class="edge">
<title>Node7&#45;&gt;Node8</title>
<g id="a_edge9_Node000007_Node000008"><a xlink:title=" ">
<path fill="none" stroke="#63b8ff" d="M369.05,-54.98C329.43,-45.86 266.41,-31.33 223.23,-21.38"/>
<polygon fill="#63b8ff" stroke="#63b8ff" points="223.77,-17.92 213.24,-19.08 222.2,-24.74 223.77,-17.92"/>
</a>
</g>
</g>
<!-- Node9 -->
<g id="Node000009" class="node">
<title>Node9</title>
<g id="a_Node000009"><a xlink:title=" ">
<polygon fill="#e0e0e0" stroke="#999999" points="496,-19 448,-19 448,0 496,0 496,-19"/>
<text text-anchor="middle" x="472" y="-7" font-family="Helvetica,sans-Serif" font-size="10.00">mutex</text>
</a>
</g>
</g>
<!-- Node7&#45;&gt;Node9 -->
<g id="edge10_Node000007_Node000009" class="edge">
<title>Node7&#45;&gt;Node9</title>
<g id="a_edge10_Node000007_Node000009"><a xlink:title=" ">
<path fill="none" stroke="#63b8ff" d="M416.6,-54.98C426.46,-47.07 441.35,-35.11 453.22,-25.58"/>
<polygon fill="#63b8ff" stroke="#63b8ff" points="455.6,-28.16 461.2,-19.17 451.21,-22.7 455.6,-28.16"/>
</a>
</g>
</g>
<!-- Node10 -->
<g id="Node000010" class="node">
<title>Node10</title>
<g id="a_Node000010"><a xlink:title=" ">
<polygon fill="#e0e0e0" stroke="#999999" points="296,-19 248,-19 248,0 296,0 296,-19"/>
<text text-anchor="middle" x="272" y="-7" font-family="Helvetica,sans-Serif" font-size="10.00">thread</text>
</a>
</g>
</g>
<!-- Node7&#45;&gt;Node10 -->
<g id="edge12_Node000007_Node000010" class="edge">
<title>Node7&#45;&gt;Node10</title>
<g id="a_edge12_Node000007_Node000010"><a xlink:title=" ">
<path fill="none" stroke="#63b8ff" d="M384.47,-54.98C362.53,-46.3 328.26,-32.75 303.31,-22.88"/>
<polygon fill="#63b8ff" stroke="#63b8ff" points="304.51,-19.59 293.92,-19.17 301.93,-26.1 304.51,-19.59"/>
</a>
</g>
</g>
<!-- Node11 -->
<g id="Node000011" class="node">
<title>Node11</title>
<g id="a_Node000011"><a xlink:title=" ">
<polygon fill="#e0e0e0" stroke="#999999" points="364,-19 314,-19 314,0 364,0 364,-19"/>
<text text-anchor="middle" x="339" y="-7" font-family="Helvetica,sans-Serif" font-size="10.00">atomic</text>
</a>
</g>
</g>
<!-- Node7&#45;&gt;Node11 -->
<g id="edge13_Node000007_Node000011" class="edge">
<title>Node7&#45;&gt;Node11</title>
<g id="a_edge13_Node000007_Node000011"><a xlink:title=" ">
<path fill="none" stroke="#63b8ff" d="M395.24,-54.98C385.23,-47.07 370.11,-35.11 358.07,-25.58"/>
<polygon fill="#63b8ff" stroke="#63b8ff" points="359.97,-22.63 349.96,-19.17 355.63,-28.12 359.97,-22.63"/>
</a>
</g>
</g>
<!-- Node12 -->
<g id="Node000012" class="node">
<title>Node12</title>
<g id="a_Node000012"><a xlink:title=" ">
<polygon fill="#e0e0e0" stroke="#999999" points="429.5,-19 382.5,-19 382.5,0 429.5,0 429.5,-19"/>
<text text-anchor="middle" x="406" y="-7" font-family="Helvetica,sans-Serif" font-size="10.00">vector</text>
</a>
</g>
</g>
<!-- Node7&#45;&gt;Node12 -->
<g id="edge14_Node000007_Node000012" class="edge">
<title>Node7&#45;&gt;Node12</title>
<g id="a_edge14_Node000007_Node000012"><a xlink:title=" ">
<path fill="none" stroke="#63b8ff" d="M406,-54.75C406,-47.8 406,-37.85 406,-29.13"/>
<polygon fill="#63b8ff" stroke="#63b8ff" points="409.5,-29.09 406,-19.09 402.5,-29.09 409.5,-29.09"/>
</a>
</g>
</g>
<!-- Node13&#45;&gt;Node2 -->
<g id="edge20_Node000013_Node000002" class="edge">
<title>Node13&#45;&gt;Node2</title>
<g id="a_edge20_Node000013_Node000002"><a xlink:title=" ">
<path fill="none" stroke="#63b8ff" d="M795.52,-54.98C849.16,-45.57 935.46,-30.43 992.2,-20.47"/>
<polygon fill="#63b8ff" stroke="#63b8ff" points="992.85,-23.91 1002.09,-18.73 991.64,-17.01 992.85,-23.91"/>
</a>
</g>
</g>
<!-- Node13&#45;&gt;Node3 -->
<g id="edge18_Node000013_Node000003" class="edge">
<title>Node13&#45;&gt;Node3</title>
<g id="a_edge18_Node000013_Node000003"><a xlink:title=" ">
<path fill="none" stroke="#63b8ff" d="M714.22,-54.98C678.14,-45.61 620.17,-30.55 581.84,-20.59"/>
<polygon fill="#63b8ff" stroke="#63b8ff" points="582.62,-17.18 572.06,-18.05 580.86,-23.95 582.62,-17.18"/>
</a>
</g>
</g>
<!-- Node13&#45;&gt;Node6 -->
<g id="edge22_Node000013_Node000006" class="edge">
<title>Node13&#45;&gt;Node6</title>
<g id="a_edge22_Node000013_Node000006"><a xlink:title=" ">
<path fill="none" stroke="#63b8ff" d="M732.7,-54.98C718.9,-46.77 697.76,-34.18 681.49,-24.49"/>
<polygon fill="#63b8ff" stroke="#63b8ff" points="682.94,-21.28 672.56,-19.17 679.36,-27.29 682.94,-21.28"/>
</a>
</g>
</g>
<!-- Node13&#45;&gt;Node9 -->
<g id="edge19_Node000013_Node000009" class="edge">
<title>Node13&#45;&gt;Node9</title>
<g id="a_edge19_Node000013_Node000009"><a xlink:title=" ">
<path fill="none" stroke="#63b8ff" d="M694.39,-54.92C647.43,-47.02 576.59,-34.49 506.05,-19.11"/>
<polygon fill="#63b8ff" stroke="#63b8ff" points="506.62,-15.65 496.1,-16.92 505.12,-22.48 506.62,-15.65"/>
</a>
</g>
</g>
<!-- Node14 -->
<g id="Node000014" class="node">
<title>Node14</title>
<g id="a_Node000014"><a xlink:title=" ">
<polygon fill="#e0e0e0" stroke="#999999" points="788,-19 744,-19 744,0 788,0 788,-19"/>
<text text-anchor="middle" x="766" y="-7" font-family="Helvetica,sans-Serif" font-size="10.00">string</text>
</a>
</g>
</g>
<!-- Node13&#45;&gt;Node14 -->
<g id="edge16_Node000013_Node000014" class="edge">
<title>Node13&#45;&gt;Node14</title>
<g id="a_edge16_Node000013_Node000014"><a xlink:title=" ">
<path fill="none" stroke="#63b8ff" d="M750.14,-54.75C752.68,-47.65 756.36,-37.4 759.53,-28.56"/>
<polygon fill="#63b8ff" stroke="#63b8ff" points="762.84,-29.68 762.92,-19.09 756.25,-27.32 762.84,-29.68"/>
</a>
</g>
</g>
<!-- Node15 -->
<g id="Node000015" class="node">
<title>Node15</title>
<g id="a_Node000015"><a xlink:title=" ">
<polygon fill="#e0e0e0" stroke="#999999" points="879.5,-19 806.5,-19 806.5,0 879.5,0 879.5,-19"/>
<text text-anchor="middle" x="843" y="-7" font-family="Helvetica,sans-Serif" font-size="10.00">string_view</text>
</a>
</g>
</g>
<!-- Node13&#45;&gt;Node15 -->
<g id="edge17_Node000013_Node000015" class="edge">
<title>Node13&#45;&gt;Node15</title>
<g id="a_edge17_Node000013_Node000015"><a xlink:title=" ">
<path fill="none" stroke="#63b8ff" d="M762.42,-54.98C777.45,-46.69 800.54,-33.94 818.16,-24.22"/>
<polygon fill="#63b8ff" stroke="#63b8ff" points="820.23,-27.07 827.3,-19.17 816.85,-20.94 820.23,-27.07"/>
</a>
</g>
</g>
<!-- Node16 -->
<g id="Node000016" class="node">
<title>Node16</title>
<g id="a_Node000016"><a xlink:title=" ">
<polygon fill="#e0e0e0" stroke="#999999" points="984,-19 898,-19 898,0 984,0 984,-19"/>
<text text-anchor="middle" x="941" y="-7" font-family="Helvetica,sans-Serif" font-size="10.00">unordered_set</text>
</a>
</g>
</g>
<!-- Node13&#45;&gt;Node16 -->
<g id="edge21_Node000013_Node000016" class="edge">
<title>Node13&#45;&gt;Node16</title>
<g id="a_edge21_Node000013_Node000016"><a xlink:title=" ">
<path fill="none" stroke="#63b8ff" d="M778.17,-54.98C811.16,-45.97 863.4,-31.7 899.77,-21.76"/>
<polygon fill="#63b8ff" stroke="#63b8ff" points="900.86,-25.09 909.59,-19.08 899.02,-18.34 900.86,-25.09"/>
</a>
</g>
</g>
</g>
</svg>
