<?xml version="1.0" encoding="UTF-8" standalone="no"?>
<!DOCTYPE svg PUBLIC "-//W3C//DTD SVG 1.1//EN"
 "http://www.w3.org/Graphics/SVG/1.1/DTD/svg11.dtd">
<!-- Generated by graphviz version 2.43.0 (0)
 -->
<!-- Title: server/store.h Pages: 1 -->
<svg width="1527pt" height="302pt"
 viewBox="0.00 0.00 1526.83 302.00" xmlns="http://www.w3.org/2000/svg" xmlns:xlink="http://www.w3.org/1999/xlink">
<g id="graph0" class="graph" transform="scale(1 1) rotate(0) translate(4 298)">
<title>server/store.h</title>
<!-- Node1 -->
<g id="Node000001" class="node">
<title>Node1</title>
<g id="a_Node000001"><a xlink:title=" ">
<polygon fill="#999999" stroke="#666666" points="937.83,-294 853.83,-294 853.83,-275 937.83,-275 937.83,-294"/>
<text text-anchor="middle" x="895.83" y="-282" font-family="Helvetica,sans-Serif" font-size="10.00">server/store.h</text>
</a>
</g>
</g>
<!-- Node2 -->
<g id="Node000002" class="node">
<title>Node2</title>
<g id="a_Node000002"><a xlink:href="s__client__data_8h.html" target="_top" xlink:title=" ">
<polygon fill="white" stroke="#666666" points="516.83,-239 426.83,-239 426.83,-220 516.83,-220 516.83,-239"/>
<text text-anchor="middle" x="471.83" y="-227" font-family="Helvetica,sans-Serif" font-size="10.00">s_client_data.h</text>
</a>
</g>
</g>
<!-- Node1&#45;&gt;Node2 -->
<g id="edge1_Node000001_Node000002" class="edge">
<title>Node1&#45;&gt;Node2</title>
<g id="a_edge1_Node000001_Node000002"><a xlink:title=" ">
<path fill="none" stroke="#63b8ff" d="M853.62,-278.22C776.53,-268.59 612.99,-248.15 527.12,-237.41"/>
<polygon fill="#63b8ff" stroke="#63b8ff" points="527.4,-233.92 517.04,-236.15 526.53,-240.87 527.4,-233.92"/>
</a>
</g>
</g>
<!-- Node5 -->
<g id="Node000005" class="node">
<title>Node5</title>
<g id="a_Node000005"><a xlink:title=" ">
<polygon fill="#e0e0e0" stroke="#999999" points="107.33,-184 14.33,-184 14.33,-165 107.33,-165 107.33,-184"/>
<text text-anchor="middle" x="60.83" y="-172" font-family="Helvetica,sans-Serif" font-size="10.00">unordered_map</text>
</a>
</g>
</g>
<!-- Node1&#45;&gt;Node5 -->
<g id="edge65_Node000001_Node000005" class="edge">
<title>Node1&#45;&gt;Node5</title>
<g id="a_edge65_Node000001_Node000005"><a xlink:title=" ">
<path fill="none" stroke="#63b8ff" d="M853.81,-280.77C770.44,-275.09 578.26,-260.7 417.83,-239 308.5,-224.21 181.55,-199.91 112.34,-186.05"/>
<polygon fill="#63b8ff" stroke="#63b8ff" points="112.64,-182.54 102.15,-184 111.26,-189.41 112.64,-182.54"/>
</a>
</g>
</g>
<!-- Node22 -->
<g id="Node000022" class="node">
<title>Node22</title>
<g id="a_Node000022"><a xlink:title=" ">
<polygon fill="#e0e0e0" stroke="#999999" points="371.33,-74 306.33,-74 306.33,-55 371.33,-55 371.33,-74"/>
<text text-anchor="middle" x="338.83" y="-62" font-family="Helvetica,sans-Serif" font-size="10.00">functional</text>
</a>
</g>
</g>
<!-- Node1&#45;&gt;Node22 -->
<g id="edge67_Node000001_Node000022" class="edge">
<title>Node1&#45;&gt;Node22</title>
<g id="a_edge67_Node000001_Node000022"><a xlink:title=" ">
<path fill="none" stroke="#63b8ff" d="M853.78,-282.15C684.56,-276.29 59.73,-250.25 4.83,-184 -34.94,-136.01 197.38,-89.77 296.07,-72.56"/>
<polygon fill="#63b8ff" stroke="#63b8ff" points="296.77,-75.99 306.03,-70.84 295.58,-69.09 296.77,-75.99"/>
</a>
</g>
</g>
<!-- Node33 -->
<g id="Node000033" class="node">
<title>Node33</title>
<g id="a_Node000033"><a xlink:title=" ">
<polygon fill="#e0e0e0" stroke="#999999" points="1467.83,-19 1409.83,-19 1409.83,0 1467.83,0 1467.83,-19"/>
<text text-anchor="middle" x="1438.83" y="-7" font-family="Helvetica,sans-Serif" font-size="10.00">memory</text>
</a>
</g>
</g>
<!-- Node1&#45;&gt;Node33 -->
<g id="edge66_Node000001_Node000033" class="edge">
<title>Node1&#45;&gt;Node33</title>
<g id="a_edge66_Node000001_Node000033"><a xlink:title=" ">
<path fill="none" stroke="#63b8ff" d="M938.16,-280.65C1078.38,-270.66 1518.83,-234.57 1518.83,-175.5 1518.83,-175.5 1518.83,-175.5 1518.83,-118.5 1518.83,-89.04 1516.84,-79.05 1499.83,-55 1490.9,-42.38 1477.25,-31.94 1465.12,-24.36"/>
<polygon fill="#63b8ff" stroke="#63b8ff" points="1466.64,-21.19 1456.25,-19.12 1463.09,-27.22 1466.64,-21.19"/>
</a>
</g>
</g>
<!-- Node34 -->
<g id="Node000034" class="node">
<title>Node34</title>
<g id="a_Node000034"><a xlink:title=" ">
<polygon fill="#e0e0e0" stroke="#999999" points="1490.83,-74 1354.83,-74 1354.83,-55 1490.83,-55 1490.83,-74"/>
<text text-anchor="middle" x="1422.83" y="-62" font-family="Helvetica,sans-Serif" font-size="10.00">webcface/common/def.h</text>
</a>
</g>
</g>
<!-- Node1&#45;&gt;Node34 -->
<g id="edge69_Node000001_Node000034" class="edge">
<title>Node1&#45;&gt;Node34</title>
<g id="a_edge69_Node000001_Node000034"><a xlink:title=" ">
<path fill="none" stroke="#63b8ff" d="M937.85,-281.31C1047.74,-274.69 1339.5,-251.03 1403.83,-184 1429.59,-157.15 1428.65,-110.1 1425.73,-84.09"/>
<polygon fill="#63b8ff" stroke="#63b8ff" points="1429.19,-83.51 1424.38,-74.07 1422.25,-84.44 1429.19,-83.51"/>
</a>
</g>
</g>
<!-- Node36 -->
<g id="Node000036" class="node">
<title>Node36</title>
<g id="a_Node000036"><a xlink:title=" ">
<polygon fill="#e0e0e0" stroke="#999999" points="1394.83,-184 1290.83,-184 1290.83,-165 1394.83,-165 1394.83,-184"/>
<text text-anchor="middle" x="1342.83" y="-172" font-family="Helvetica,sans-Serif" font-size="10.00">spdlog/common.h</text>
</a>
</g>
</g>
<!-- Node1&#45;&gt;Node36 -->
<g id="edge68_Node000001_Node000036" class="edge">
<title>Node1&#45;&gt;Node36</title>
<g id="a_edge68_Node000001_Node000036"><a xlink:title=" ">
<path fill="none" stroke="#63b8ff" d="M931.27,-274.94C1011.8,-255.48 1208.41,-207.98 1297.56,-186.44"/>
<polygon fill="#63b8ff" stroke="#63b8ff" points="1298.47,-189.82 1307.37,-184.07 1296.83,-183.01 1298.47,-189.82"/>
</a>
</g>
</g>
<!-- Node3 -->
<g id="Node000003" class="node">
<title>Node3</title>
<g id="a_Node000003"><a xlink:title=" ">
<polygon fill="#e0e0e0" stroke="#999999" points="355.83,-19 311.83,-19 311.83,0 355.83,0 355.83,-19"/>
<text text-anchor="middle" x="333.83" y="-7" font-family="Helvetica,sans-Serif" font-size="10.00">string</text>
</a>
</g>
</g>
<!-- Node2&#45;&gt;Node3 -->
<g id="edge2_Node000002_Node000003" class="edge">
<title>Node2&#45;&gt;Node3</title>
<g id="a_edge2_Node000002_Node000003"><a xlink:title=" ">
<path fill="none" stroke="#63b8ff" d="M426.56,-224.39C345.47,-216.67 181.89,-199.43 160.83,-184 117.04,-151.94 119.91,-126.91 107.83,-74 105.95,-65.77 102.46,-61.52 107.83,-55 131.98,-25.62 245.04,-15.33 301.53,-11.98"/>
<polygon fill="#63b8ff" stroke="#63b8ff" points="301.92,-15.47 311.71,-11.42 301.53,-8.48 301.92,-15.47"/>
</a>
</g>
</g>
<!-- Node4 -->
<g id="Node000004" class="node">
<title>Node4</title>
<g id="a_Node000004"><a xlink:title=" ">
<polygon fill="#e0e0e0" stroke="#999999" points="233.83,-184 201.83,-184 201.83,-165 233.83,-165 233.83,-184"/>
<text text-anchor="middle" x="217.83" y="-172" font-family="Helvetica,sans-Serif" font-size="10.00">set</text>
</a>
</g>
</g>
<!-- Node2&#45;&gt;Node4 -->
<g id="edge3_Node000002_Node000004" class="edge">
<title>Node2&#45;&gt;Node4</title>
<g id="a_edge3_Node000002_Node000004"><a xlink:title=" ">
<path fill="none" stroke="#63b8ff" d="M426.66,-221.58C382.26,-214.37 312.46,-201.93 243.58,-183.89"/>
<polygon fill="#63b8ff" stroke="#63b8ff" points="244.43,-180.5 233.87,-181.31 242.63,-187.26 244.43,-180.5"/>
</a>
</g>
</g>
<!-- Node2&#45;&gt;Node5 -->
<g id="edge4_Node000002_Node000005" class="edge">
<title>Node2&#45;&gt;Node5</title>
<g id="a_edge4_Node000002_Node000005"><a xlink:title=" ">
<path fill="none" stroke="#63b8ff" d="M426.77,-222.95C360.11,-214.69 231.27,-198.58 121.83,-184 120.37,-183.81 118.89,-183.61 117.4,-183.41"/>
<polygon fill="#63b8ff" stroke="#63b8ff" points="117.82,-179.93 107.44,-182.05 116.88,-186.87 117.82,-179.93"/>
</a>
</g>
</g>
<!-- Node6 -->
<g id="Node000006" class="node">
<title>Node6</title>
<g id="a_Node000006"><a xlink:title=" ">
<polygon fill="#e0e0e0" stroke="#999999" points="173.83,-74 123.83,-74 123.83,-55 173.83,-55 173.83,-74"/>
<text text-anchor="middle" x="148.83" y="-62" font-family="Helvetica,sans-Serif" font-size="10.00">chrono</text>
</a>
</g>
</g>
<!-- Node2&#45;&gt;Node6 -->
<g id="edge5_Node000002_Node000006" class="edge">
<title>Node2&#45;&gt;Node6</title>
<g id="a_edge5_Node000002_Node000006"><a xlink:title=" ">
<path fill="none" stroke="#63b8ff" d="M426.64,-224.89C358.31,-218.84 232.47,-205.18 192.83,-184 163.42,-168.29 154,-160.03 141.83,-129 136.13,-114.48 138.8,-96.75 142.37,-83.72"/>
<polygon fill="#63b8ff" stroke="#63b8ff" points="145.75,-84.64 145.41,-74.05 139.07,-82.54 145.75,-84.64"/>
</a>
</g>
</g>
<!-- Node7 -->
<g id="Node000007" class="node">
<title>Node7</title>
<g id="a_Node000007"><a xlink:title=" ">
<polygon fill="#e0e0e0" stroke="#999999" points="576.83,-74 520.83,-74 520.83,-55 576.83,-55 576.83,-74"/>
<text text-anchor="middle" x="548.83" y="-62" font-family="Helvetica,sans-Serif" font-size="10.00">optional</text>
</a>
</g>
</g>
<!-- Node2&#45;&gt;Node7 -->
<g id="edge6_Node000002_Node000007" class="edge">
<title>Node2&#45;&gt;Node7</title>
<g id="a_edge6_Node000002_Node000007"><a xlink:title=" ">
<path fill="none" stroke="#63b8ff" d="M441.5,-219.93C414.74,-211.95 374.95,-199.04 341.83,-184 326.41,-177 324.56,-171.23 308.83,-165 241.63,-138.42 107.69,-163.89 155.83,-110 156.19,-109.59 411.62,-80.89 510.44,-69.81"/>
<polygon fill="#63b8ff" stroke="#63b8ff" points="511.05,-73.26 520.59,-68.67 510.26,-66.3 511.05,-73.26"/>
</a>
</g>
</g>
<!-- Node8 -->
<g id="Node000008" class="node">
<title>Node8</title>
<g id="a_Node000008"><a xlink:title=" ">
<polygon fill="#e0e0e0" stroke="#999999" points="299.83,-184 251.83,-184 251.83,-165 299.83,-165 299.83,-184"/>
<text text-anchor="middle" x="275.83" y="-172" font-family="Helvetica,sans-Serif" font-size="10.00">mutex</text>
</a>
</g>
</g>
<!-- Node2&#45;&gt;Node8 -->
<g id="edge7_Node000002_Node000008" class="edge">
<title>Node2&#45;&gt;Node8</title>
<g id="a_edge7_Node000002_Node000008"><a xlink:title=" ">
<path fill="none" stroke="#63b8ff" d="M440.33,-219.98C404.63,-210.33 346.61,-194.64 309.88,-184.71"/>
<polygon fill="#63b8ff" stroke="#63b8ff" points="310.69,-181.3 300.12,-182.07 308.86,-188.06 310.69,-181.3"/>
</a>
</g>
</g>
<!-- Node9 -->
<g id="Node000009" class="node">
<title>Node9</title>
<g id="a_Node000009"><a xlink:title=" ">
<polygon fill="#e0e0e0" stroke="#999999" points="773.83,-184 723.83,-184 723.83,-165 773.83,-165 773.83,-184"/>
<text text-anchor="middle" x="748.83" y="-172" font-family="Helvetica,sans-Serif" font-size="10.00">atomic</text>
</a>
</g>
</g>
<!-- Node2&#45;&gt;Node9 -->
<g id="edge8_Node000002_Node000009" class="edge">
<title>Node2&#45;&gt;Node9</title>
<g id="a_edge8_Node000002_Node000009"><a xlink:title=" ">
<path fill="none" stroke="#63b8ff" d="M517.23,-221.08C564.07,-213.22 639.46,-200.02 713.64,-184.15"/>
<polygon fill="#63b8ff" stroke="#63b8ff" points="714.58,-187.52 723.62,-181.99 713.1,-180.68 714.58,-187.52"/>
</a>
</g>
</g>
<!-- Node10 -->
<g id="Node000010" class="node">
<title>Node10</title>
<g id="a_Node000010"><a xlink:title=" ">
<polygon fill="#e0e0e0" stroke="#999999" points="899.33,-184 792.33,-184 792.33,-165 899.33,-165 899.33,-184"/>
<text text-anchor="middle" x="845.83" y="-172" font-family="Helvetica,sans-Serif" font-size="10.00">condition_variable</text>
</a>
</g>
</g>
<!-- Node2&#45;&gt;Node10 -->
<g id="edge9_Node000002_Node000010" class="edge">
<title>Node2&#45;&gt;Node10</title>
<g id="a_edge9_Node000002_Node000010"><a xlink:title=" ">
<path fill="none" stroke="#63b8ff" d="M516.94,-222.11C583,-212.75 706.36,-195.26 781.78,-184.58"/>
<polygon fill="#63b8ff" stroke="#63b8ff" points="782.69,-187.98 792.1,-183.11 781.71,-181.05 782.69,-187.98"/>
</a>
</g>
</g>
<!-- Node11 -->
<g id="Node000011" class="node">
<title>Node11</title>
<g id="a_Node000011"><a xlink:title=" ">
<polygon fill="#e0e0e0" stroke="#999999" points="965.83,-184 917.83,-184 917.83,-165 965.83,-165 965.83,-184"/>
<text text-anchor="middle" x="941.83" y="-172" font-family="Helvetica,sans-Serif" font-size="10.00">thread</text>
</a>
</g>
</g>
<!-- Node2&#45;&gt;Node11 -->
<g id="edge10_Node000002_Node000011" class="edge">
<title>Node2&#45;&gt;Node11</title>
<g id="a_edge10_Node000002_Node000011"><a xlink:title=" ">
<path fill="none" stroke="#63b8ff" d="M516.99,-226.03C596.48,-221.21 766.36,-208.77 907.83,-184 907.93,-183.98 908.03,-183.96 908.13,-183.95"/>
<polygon fill="#63b8ff" stroke="#63b8ff" points="908.68,-187.41 917.77,-181.97 907.27,-180.55 908.68,-187.41"/>
</a>
</g>
</g>
<!-- Node12 -->
<g id="Node000012" class="node">
<title>Node12</title>
<g id="a_Node000012"><a xlink:href="message_8h.html" target="_top" xlink:title=" ">
<polygon fill="white" stroke="#666666" points="705.83,-184 579.83,-184 579.83,-165 705.83,-165 705.83,-184"/>
<text text-anchor="middle" x="642.83" y="-172" font-family="Helvetica,sans-Serif" font-size="10.00">../message/message.h</text>
</a>
</g>
</g>
<!-- Node2&#45;&gt;Node12 -->
<g id="edge11_Node000002_Node000012" class="edge">
<title>Node2&#45;&gt;Node12</title>
<g id="a_edge11_Node000002_Node000012"><a xlink:title=" ">
<path fill="none" stroke="#63b8ff" d="M499.3,-219.98C528.01,-211.09 573.24,-197.07 605.25,-187.15"/>
<polygon fill="#63b8ff" stroke="#63b8ff" points="606.62,-190.39 615.14,-184.08 604.55,-183.7 606.62,-190.39"/>
</a>
</g>
</g>
<!-- Node19 -->
<g id="Node000019" class="node">
<title>Node19</title>
<g id="a_Node000019"><a xlink:title=" ">
<polygon fill="#e0e0e0" stroke="#999999" points="256.33,-129 165.33,-129 165.33,-110 256.33,-110 256.33,-129"/>
<text text-anchor="middle" x="210.83" y="-117" font-family="Helvetica,sans-Serif" font-size="10.00">spdlog/logger.h</text>
</a>
</g>
</g>
<!-- Node2&#45;&gt;Node19 -->
<g id="edge63_Node000002_Node000019" class="edge">
<title>Node2&#45;&gt;Node19</title>
<g id="a_edge63_Node000002_Node000019"><a xlink:title=" ">
<path fill="none" stroke="#63b8ff" d="M455.71,-219.8C431.44,-206.89 383.86,-182.32 341.83,-165 311.11,-152.34 275.34,-140.37 248.94,-132.04"/>
<polygon fill="#63b8ff" stroke="#63b8ff" points="249.91,-128.67 239.32,-129.03 247.82,-135.35 249.91,-128.67"/>
</a>
</g>
</g>
<!-- Node2&#45;&gt;Node34 -->
<g id="edge64_Node000002_Node000034" class="edge">
<title>Node2&#45;&gt;Node34</title>
<g id="a_edge64_Node000002_Node000034"><a xlink:title=" ">
<path fill="none" stroke="#63b8ff" d="M517.02,-225.9C669.88,-216.69 1166.28,-183.21 1315.83,-129 1348.73,-117.07 1382.84,-94.81 1403.46,-80.07"/>
<polygon fill="#63b8ff" stroke="#63b8ff" points="1405.66,-82.8 1411.67,-74.08 1401.53,-77.14 1405.66,-82.8"/>
</a>
</g>
</g>
<!-- Node2&#45;&gt;Node36 -->
<g id="edge62_Node000002_Node000036" class="edge">
<title>Node2&#45;&gt;Node36</title>
<g id="a_edge62_Node000002_Node000036"><a xlink:title=" ">
<path fill="none" stroke="#63b8ff" d="M516.86,-227.16C639.21,-223.28 987.95,-210.55 1276.83,-184 1278.09,-183.88 1279.36,-183.76 1280.65,-183.64"/>
<polygon fill="#63b8ff" stroke="#63b8ff" points="1281.05,-187.11 1290.63,-182.58 1280.31,-180.15 1281.05,-187.11"/>
</a>
</g>
</g>
<!-- Node12&#45;&gt;Node3 -->
<g id="edge13_Node000012_Node000003" class="edge">
<title>Node12&#45;&gt;Node3</title>
<g id="a_edge13_Node000012_Node000003"><a xlink:title=" ">
<path fill="none" stroke="#63b8ff" d="M579.7,-171.28C510.65,-167.46 397.34,-157.1 303.83,-129 285.36,-123.45 282.97,-116.51 264.83,-110 200.29,-86.85 157.27,-127.84 114.83,-74 109.6,-67.37 109.48,-61.54 114.83,-55 138.01,-26.62 246.23,-15.9 301.36,-12.22"/>
<polygon fill="#63b8ff" stroke="#63b8ff" points="301.88,-15.7 311.64,-11.58 301.44,-8.71 301.88,-15.7"/>
</a>
</g>
</g>
<!-- Node13 -->
<g id="Node000013" class="node">
<title>Node13</title>
<g id="a_Node000013"><a xlink:title=" ">
<polygon fill="#e0e0e0" stroke="#999999" points="1090.83,-74 1008.83,-74 1008.83,-55 1090.83,-55 1090.83,-74"/>
<text text-anchor="middle" x="1049.83" y="-62" font-family="Helvetica,sans-Serif" font-size="10.00">msgpack.hpp</text>
</a>
</g>
</g>
<!-- Node12&#45;&gt;Node13 -->
<g id="edge12_Node000012_Node000013" class="edge">
<title>Node12&#45;&gt;Node13</title>
<g id="a_edge12_Node000012_Node000013"><a xlink:title=" ">
<path fill="none" stroke="#63b8ff" d="M706.03,-165.95C709,-165.62 711.95,-165.3 714.83,-165 757.66,-160.47 1071.82,-160.84 1100.83,-129 1115.61,-112.78 1093.71,-92.88 1074.18,-79.73"/>
<polygon fill="#63b8ff" stroke="#63b8ff" points="1075.83,-76.63 1065.52,-74.2 1072.07,-82.53 1075.83,-76.63"/>
</a>
</g>
</g>
<!-- Node14 -->
<g id="Node000014" class="node">
<title>Node14</title>
<g id="a_Node000014"><a xlink:title=" ">
<polygon fill="#e0e0e0" stroke="#999999" points="512.33,-129 467.33,-129 467.33,-110 512.33,-110 512.33,-129"/>
<text text-anchor="middle" x="489.83" y="-117" font-family="Helvetica,sans-Serif" font-size="10.00">utility</text>
</a>
</g>
</g>
<!-- Node12&#45;&gt;Node14 -->
<g id="edge14_Node000012_Node000014" class="edge">
<title>Node12&#45;&gt;Node14</title>
<g id="a_edge14_Node000012_Node000014"><a xlink:title=" ">
<path fill="none" stroke="#63b8ff" d="M618.24,-164.98C592.1,-155.93 550.64,-141.56 521.93,-131.62"/>
<polygon fill="#63b8ff" stroke="#63b8ff" points="522.95,-128.27 512.35,-128.3 520.66,-134.88 522.95,-128.27"/>
</a>
</g>
</g>
<!-- Node15 -->
<g id="Node000015" class="node">
<title>Node15</title>
<g id="a_Node000015"><a xlink:title=" ">
<polygon fill="#e0e0e0" stroke="#999999" points="1260.33,-19 1213.33,-19 1213.33,0 1260.33,0 1260.33,-19"/>
<text text-anchor="middle" x="1236.83" y="-7" font-family="Helvetica,sans-Serif" font-size="10.00">vector</text>
</a>
</g>
</g>
<!-- Node12&#45;&gt;Node15 -->
<g id="edge15_Node000012_Node000015" class="edge">
<title>Node12&#45;&gt;Node15</title>
<g id="a_edge15_Node000012_Node000015"><a xlink:title=" ">
<path fill="none" stroke="#63b8ff" d="M706.03,-165.92C709,-165.6 711.95,-165.29 714.83,-165 905.19,-145.78 957.38,-171.99 1143.83,-129 1209.77,-113.79 1247.58,-129.83 1285.83,-74 1297.8,-56.53 1278.24,-37.4 1260.4,-24.75"/>
<polygon fill="#63b8ff" stroke="#63b8ff" points="1262.19,-21.74 1251.92,-19.1 1258.3,-27.56 1262.19,-21.74"/>
</a>
</g>
</g>
<!-- Node16 -->
<g id="Node000016" class="node">
<title>Node16</title>
<g id="a_Node000016"><a xlink:title=" ">
<polygon fill="#e0e0e0" stroke="#999999" points="577.33,-129 530.33,-129 530.33,-110 577.33,-110 577.33,-129"/>
<text text-anchor="middle" x="553.83" y="-117" font-family="Helvetica,sans-Serif" font-size="10.00">deque</text>
</a>
</g>
</g>
<!-- Node12&#45;&gt;Node16 -->
<g id="edge16_Node000012_Node000016" class="edge">
<title>Node12&#45;&gt;Node16</title>
<g id="a_edge16_Node000012_Node000016"><a xlink:title=" ">
<path fill="none" stroke="#63b8ff" d="M628.53,-164.98C614.72,-156.77 593.58,-144.18 577.31,-134.49"/>
<polygon fill="#63b8ff" stroke="#63b8ff" points="578.77,-131.28 568.38,-129.17 575.19,-137.29 578.77,-131.28"/>
</a>
</g>
</g>
<!-- Node17 -->
<g id="Node000017" class="node">
<title>Node17</title>
<g id="a_Node000017"><a xlink:title=" ">
<polygon fill="#e0e0e0" stroke="#999999" points="1091.33,-129 1056.33,-129 1056.33,-110 1091.33,-110 1091.33,-129"/>
<text text-anchor="middle" x="1073.83" y="-117" font-family="Helvetica,sans-Serif" font-size="10.00">any</text>
</a>
</g>
</g>
<!-- Node12&#45;&gt;Node17 -->
<g id="edge17_Node000012_Node000017" class="edge">
<title>Node12&#45;&gt;Node17</title>
<g id="a_edge17_Node000012_Node000017"><a xlink:title=" ">
<path fill="none" stroke="#63b8ff" d="M706.04,-166C709.01,-165.66 711.95,-165.33 714.83,-165 859.42,-148.65 900.46,-159.77 1045.87,-129.04"/>
<polygon fill="#63b8ff" stroke="#63b8ff" points="1047.01,-132.37 1056.06,-126.85 1045.55,-125.52 1047.01,-132.37"/>
</a>
</g>
</g>
<!-- Node18 -->
<g id="Node000018" class="node">
<title>Node18</title>
<g id="a_Node000018"><a xlink:title=" ">
<polygon fill="#e0e0e0" stroke="#999999" points="1005.83,-19 955.83,-19 955.83,0 1005.83,0 1005.83,-19"/>
<text text-anchor="middle" x="980.83" y="-7" font-family="Helvetica,sans-Serif" font-size="10.00">cstdint</text>
</a>
</g>
</g>
<!-- Node12&#45;&gt;Node18 -->
<g id="edge18_Node000012_Node000018" class="edge">
<title>Node12&#45;&gt;Node18</title>
<g id="a_edge18_Node000012_Node000018"><a xlink:title=" ">
<path fill="none" stroke="#63b8ff" d="M705.92,-165.68C778.93,-156.2 891.31,-140.12 907.83,-129 944.12,-104.57 965.59,-55.42 975.05,-28.74"/>
<polygon fill="#63b8ff" stroke="#63b8ff" points="978.42,-29.71 978.28,-19.11 971.78,-27.48 978.42,-29.71"/>
</a>
</g>
</g>
<!-- Node12&#45;&gt;Node19 -->
<g id="edge19_Node000012_Node000019" class="edge">
<title>Node12&#45;&gt;Node19</title>
<g id="a_edge19_Node000012_Node000019"><a xlink:title=" ">
<path fill="none" stroke="#63b8ff" d="M579.59,-166.36C505.53,-157.9 379.18,-143.15 270.83,-129 269.36,-128.81 267.87,-128.61 266.37,-128.41"/>
<polygon fill="#63b8ff" stroke="#63b8ff" points="266.73,-124.93 256.35,-127.05 265.79,-131.87 266.73,-124.93"/>
</a>
</g>
</g>
<!-- Node20 -->
<g id="Node000020" class="node">
<title>Node20</title>
<g id="a_Node000020"><a xlink:href="common_2func_8h.html" target="_top" xlink:title=" ">
<polygon fill="white" stroke="#666666" points="898.83,-129 756.83,-129 756.83,-110 898.83,-110 898.83,-129"/>
<text text-anchor="middle" x="827.83" y="-117" font-family="Helvetica,sans-Serif" font-size="10.00">webcface/common/func.h</text>
</a>
</g>
</g>
<!-- Node12&#45;&gt;Node20 -->
<g id="edge20_Node000012_Node000020" class="edge">
<title>Node12&#45;&gt;Node20</title>
<g id="a_edge20_Node000012_Node000020"><a xlink:title=" ">
<path fill="none" stroke="#63b8ff" d="M672.55,-164.98C703.88,-156.01 753.4,-141.82 788.07,-131.89"/>
<polygon fill="#63b8ff" stroke="#63b8ff" points="789.22,-135.2 797.87,-129.08 787.29,-128.47 789.22,-135.2"/>
</a>
</g>
</g>
<!-- Node29 -->
<g id="Node000029" class="node">
<title>Node29</title>
<g id="a_Node000029"><a xlink:href="common_2log_8h.html" target="_top" xlink:title=" ">
<polygon fill="white" stroke="#666666" points="448.83,-129 312.83,-129 312.83,-110 448.83,-110 448.83,-129"/>
<text text-anchor="middle" x="380.83" y="-117" font-family="Helvetica,sans-Serif" font-size="10.00">webcface/common/log.h</text>
</a>
</g>
</g>
<!-- Node12&#45;&gt;Node29 -->
<g id="edge38_Node000012_Node000029" class="edge">
<title>Node12&#45;&gt;Node29</title>
<g id="a_edge38_Node000012_Node000029"><a xlink:title=" ">
<path fill="none" stroke="#63b8ff" d="M600.73,-164.98C555.13,-155.76 482.3,-141.03 433.07,-131.07"/>
<polygon fill="#63b8ff" stroke="#63b8ff" points="433.75,-127.63 423.25,-129.08 432.36,-134.5 433.75,-127.63"/>
</a>
</g>
</g>
<!-- Node30 -->
<g id="Node000030" class="node">
<title>Node30</title>
<g id="a_Node000030"><a xlink:href="common_2view_8h.html" target="_top" xlink:title=" ">
<polygon fill="white" stroke="#666666" points="738.33,-129 595.33,-129 595.33,-110 738.33,-110 738.33,-129"/>
<text text-anchor="middle" x="666.83" y="-117" font-family="Helvetica,sans-Serif" font-size="10.00">webcface/common/view.h</text>
</a>
</g>
</g>
<!-- Node12&#45;&gt;Node30 -->
<g id="edge42_Node000012_Node000030" class="edge">
<title>Node12&#45;&gt;Node30</title>
<g id="a_edge42_Node000012_Node000030"><a xlink:title=" ">
<path fill="none" stroke="#63b8ff" d="M646.79,-164.75C650.04,-157.57 654.74,-147.18 658.78,-138.27"/>
<polygon fill="#63b8ff" stroke="#63b8ff" points="662,-139.64 662.94,-129.09 655.62,-136.75 662,-139.64"/>
</a>
</g>
</g>
<!-- Node32 -->
<g id="Node000032" class="node">
<title>Node32</title>
<g id="a_Node000032"><a xlink:href="common_2image_8h.html" target="_top" xlink:title=" ">
<polygon fill="white" stroke="#666666" points="1260.83,-74 1108.83,-74 1108.83,-55 1260.83,-55 1260.83,-74"/>
<text text-anchor="middle" x="1184.83" y="-62" font-family="Helvetica,sans-Serif" font-size="10.00">webcface/common/image.h</text>
</a>
</g>
</g>
<!-- Node12&#45;&gt;Node32 -->
<g id="edge49_Node000012_Node000032" class="edge">
<title>Node12&#45;&gt;Node32</title>
<g id="a_edge49_Node000012_Node000032"><a xlink:title=" ">
<path fill="none" stroke="#63b8ff" d="M706.03,-165.94C709,-165.61 711.95,-165.3 714.83,-165 804.04,-155.74 1034.94,-165.59 1116.83,-129 1139.75,-118.75 1159.92,-97.53 1172.21,-82.44"/>
<polygon fill="#63b8ff" stroke="#63b8ff" points="1175.1,-84.43 1178.51,-74.4 1169.59,-80.12 1175.1,-84.43"/>
</a>
</g>
</g>
<!-- Node12&#45;&gt;Node34 -->
<g id="edge55_Node000012_Node000034" class="edge">
<title>Node12&#45;&gt;Node34</title>
<g id="a_edge55_Node000012_Node000034"><a xlink:title=" ">
<path fill="none" stroke="#63b8ff" d="M706.02,-165.84C709,-165.55 711.94,-165.26 714.83,-165 965.41,-142.24 1035.46,-189 1279.83,-129 1291.63,-126.1 1356.84,-96.21 1395,-78.49"/>
<polygon fill="#63b8ff" stroke="#63b8ff" points="1396.94,-81.45 1404.53,-74.06 1393.98,-75.1 1396.94,-81.45"/>
</a>
</g>
</g>
<!-- Node35 -->
<g id="Node000035" class="node">
<title>Node35</title>
<g id="a_Node000035"><a xlink:href="val__adaptor_8h.html" target="_top" xlink:title=" ">
<polygon fill="white" stroke="#666666" points="1038.33,-129 955.33,-129 955.33,-110 1038.33,-110 1038.33,-129"/>
<text text-anchor="middle" x="996.83" y="-117" font-family="Helvetica,sans-Serif" font-size="10.00">val_adaptor.h</text>
</a>
</g>
</g>
<!-- Node12&#45;&gt;Node35 -->
<g id="edge56_Node000012_Node000035" class="edge">
<title>Node12&#45;&gt;Node35</title>
<g id="a_edge56_Node000012_Node000035"><a xlink:title=" ">
<path fill="none" stroke="#63b8ff" d="M700.24,-164.97C760.25,-156.04 857.16,-141.6 940.83,-129 942.28,-128.78 943.76,-128.56 945.26,-128.33"/>
<polygon fill="#63b8ff" stroke="#63b8ff" points="945.87,-131.78 955.24,-126.82 944.83,-124.86 945.87,-131.78"/>
</a>
</g>
</g>
<!-- Node20&#45;&gt;Node3 -->
<g id="edge25_Node000020_Node000003" class="edge">
<title>Node20&#45;&gt;Node3</title>
<g id="a_edge25_Node000020_Node000003"><a xlink:title=" ">
<path fill="none" stroke="#63b8ff" d="M792.67,-109.97C757.09,-101.25 700.51,-87.16 651.83,-74 622.36,-66.04 615.56,-61.89 585.83,-55 507.56,-36.88 414.13,-22.15 366.01,-15.07"/>
<polygon fill="#63b8ff" stroke="#63b8ff" points="366.29,-11.57 355.89,-13.6 365.28,-18.5 366.29,-11.57"/>
</a>
</g>
</g>
<!-- Node20&#45;&gt;Node7 -->
<g id="edge24_Node000020_Node000007" class="edge">
<title>Node20&#45;&gt;Node7</title>
<g id="a_edge24_Node000020_Node000007"><a xlink:title=" ">
<path fill="none" stroke="#63b8ff" d="M781.47,-110C733.66,-101.18 656.98,-86.9 590.83,-74 589.55,-73.75 588.26,-73.5 586.95,-73.24"/>
<polygon fill="#63b8ff" stroke="#63b8ff" points="587.32,-69.74 576.83,-71.22 585.95,-76.61 587.32,-69.74"/>
</a>
</g>
</g>
<!-- Node20&#45;&gt;Node15 -->
<g id="edge21_Node000020_Node000015" class="edge">
<title>Node20&#45;&gt;Node15</title>
<g id="a_edge21_Node000020_Node000015"><a xlink:title=" ">
<path fill="none" stroke="#63b8ff" d="M899.1,-112.55C1022.55,-102.07 1263.67,-80.8 1269.83,-74 1282.62,-59.85 1268.19,-39.83 1254.6,-26.07"/>
<polygon fill="#63b8ff" stroke="#63b8ff" points="1256.97,-23.49 1247.31,-19.15 1252.15,-28.57 1256.97,-23.49"/>
</a>
</g>
</g>
<!-- Node20&#45;&gt;Node18 -->
<g id="edge27_Node000020_Node000018" class="edge">
<title>Node20&#45;&gt;Node18</title>
<g id="a_edge27_Node000020_Node000018"><a xlink:title=" ">
<path fill="none" stroke="#63b8ff" d="M840.09,-109.84C866.27,-91.36 927.9,-47.86 960.22,-25.05"/>
<polygon fill="#63b8ff" stroke="#63b8ff" points="962.35,-27.82 968.5,-19.2 958.32,-22.1 962.35,-27.82"/>
</a>
</g>
</g>
<!-- Node21 -->
<g id="Node000021" class="node">
<title>Node21</title>
<g id="a_Node000021"><a xlink:title=" ">
<polygon fill="#e0e0e0" stroke="#999999" points="740.33,-74 671.33,-74 671.33,-55 740.33,-55 740.33,-74"/>
<text text-anchor="middle" x="705.83" y="-62" font-family="Helvetica,sans-Serif" font-size="10.00">type_traits</text>
</a>
</g>
</g>
<!-- Node20&#45;&gt;Node21 -->
<g id="edge22_Node000020_Node000021" class="edge">
<title>Node20&#45;&gt;Node21</title>
<g id="a_edge22_Node000020_Node000021"><a xlink:title=" ">
<path fill="none" stroke="#63b8ff" d="M808.22,-109.98C788.51,-101.42 757.87,-88.11 735.24,-78.28"/>
<polygon fill="#63b8ff" stroke="#63b8ff" points="736.35,-74.94 725.78,-74.17 733.56,-81.37 736.35,-74.94"/>
</a>
</g>
</g>
<!-- Node20&#45;&gt;Node22 -->
<g id="edge23_Node000020_Node000022" class="edge">
<title>Node20&#45;&gt;Node22</title>
<g id="a_edge23_Node000020_Node000022"><a xlink:title=" ">
<path fill="none" stroke="#63b8ff" d="M756.71,-111.01C753.37,-110.67 750.06,-110.33 746.83,-110 587.11,-93.79 543.62,-98.47 381.77,-74.15"/>
<polygon fill="#63b8ff" stroke="#63b8ff" points="381.85,-70.63 371.44,-72.59 380.8,-77.55 381.85,-70.63"/>
</a>
</g>
</g>
<!-- Node23 -->
<g id="Node000023" class="node">
<title>Node23</title>
<g id="a_Node000023"><a xlink:title=" ">
<polygon fill="#e0e0e0" stroke="#999999" points="693.33,-19 636.33,-19 636.33,0 693.33,0 693.33,-19"/>
<text text-anchor="middle" x="664.83" y="-7" font-family="Helvetica,sans-Serif" font-size="10.00">ostream</text>
</a>
</g>
</g>
<!-- Node20&#45;&gt;Node23 -->
<g id="edge26_Node000020_Node000023" class="edge">
<title>Node20&#45;&gt;Node23</title>
<g id="a_edge26_Node000020_Node000023"><a xlink:title=" ">
<path fill="none" stroke="#63b8ff" d="M766.5,-109.96C724.73,-102.74 674.77,-90.87 661.83,-74 652.18,-61.43 654.3,-42.98 658.02,-29.2"/>
<polygon fill="#63b8ff" stroke="#63b8ff" points="661.46,-29.95 661.15,-19.36 654.78,-27.82 661.46,-29.95"/>
</a>
</g>
</g>
<!-- Node24 -->
<g id="Node000024" class="node">
<title>Node24</title>
<g id="a_Node000024"><a xlink:href="val_8h.html" target="_top" xlink:title=" ">
<polygon fill="white" stroke="#666666" points="876.33,-74 835.33,-74 835.33,-55 876.33,-55 876.33,-74"/>
<text text-anchor="middle" x="855.83" y="-62" font-family="Helvetica,sans-Serif" font-size="10.00">val.h</text>
</a>
</g>
</g>
<!-- Node20&#45;&gt;Node24 -->
<g id="edge28_Node000020_Node000024" class="edge">
<title>Node20&#45;&gt;Node24</title>
<g id="a_edge28_Node000020_Node000024"><a xlink:title=" ">
<path fill="none" stroke="#63b8ff" d="M832.45,-109.75C836.28,-102.49 841.85,-91.95 846.59,-82.98"/>
<polygon fill="#63b8ff" stroke="#63b8ff" points="849.71,-84.57 851.29,-74.09 843.52,-81.3 849.71,-84.57"/>
</a>
</g>
</g>
<!-- Node28 -->
<g id="Node000028" class="node">
<title>Node28</title>
<g id="a_Node000028"><a xlink:title=" ">
<polygon fill="#e0e0e0" stroke="#999999" points="554.33,-19 513.33,-19 513.33,0 554.33,0 554.33,-19"/>
<text text-anchor="middle" x="533.83" y="-7" font-family="Helvetica,sans-Serif" font-size="10.00">def.h</text>
</a>
</g>
</g>
<!-- Node20&#45;&gt;Node28 -->
<g id="edge37_Node000020_Node000028" class="edge">
<title>Node20&#45;&gt;Node28</title>
<g id="a_edge37_Node000020_Node000028"><a xlink:title=" ">
<path fill="none" stroke="#63b8ff" d="M819.98,-109.98C806.72,-96.15 778.43,-68.96 748.83,-55 687.48,-26.08 607.55,-15.86 564.51,-12.32"/>
<polygon fill="#63b8ff" stroke="#63b8ff" points="564.62,-8.82 554.39,-11.56 564.1,-15.8 564.62,-8.82"/>
</a>
</g>
</g>
<!-- Node24&#45;&gt;Node3 -->
<g id="edge29_Node000024_Node000003" class="edge">
<title>Node24&#45;&gt;Node3</title>
<g id="a_edge29_Node000024_Node000003"><a xlink:title=" ">
<path fill="none" stroke="#63b8ff" d="M835.2,-57.96C830.5,-56.84 825.51,-55.78 820.83,-55 651.25,-26.82 445.27,-15.38 366.55,-11.83"/>
<polygon fill="#63b8ff" stroke="#63b8ff" points="366.45,-8.32 356.3,-11.38 366.14,-15.31 366.45,-8.32"/>
</a>
</g>
</g>
<!-- Node24&#45;&gt;Node15 -->
<g id="edge30_Node000024_Node000015" class="edge">
<title>Node24&#45;&gt;Node15</title>
<g id="a_edge30_Node000024_Node000015"><a xlink:title=" ">
<path fill="none" stroke="#63b8ff" d="M876.58,-60.61C939.02,-51.93 1125.57,-25.98 1202.78,-15.24"/>
<polygon fill="#63b8ff" stroke="#63b8ff" points="1203.5,-18.67 1212.93,-13.82 1202.54,-11.74 1203.5,-18.67"/>
</a>
</g>
</g>
<!-- Node24&#45;&gt;Node18 -->
<g id="edge34_Node000024_Node000018" class="edge">
<title>Node24&#45;&gt;Node18</title>
<g id="a_edge34_Node000024_Node000018"><a xlink:title=" ">
<path fill="none" stroke="#63b8ff" d="M875.91,-54.98C896.2,-46.38 927.78,-32.99 951,-23.15"/>
<polygon fill="#63b8ff" stroke="#63b8ff" points="952.54,-26.3 960.38,-19.17 949.8,-19.85 952.54,-26.3"/>
</a>
</g>
</g>
<!-- Node24&#45;&gt;Node23 -->
<g id="edge35_Node000024_Node000023" class="edge">
<title>Node24&#45;&gt;Node23</title>
<g id="a_edge35_Node000024_Node000023"><a xlink:title=" ">
<path fill="none" stroke="#63b8ff" d="M835.02,-57.73C803.45,-48.97 742.91,-32.17 703.2,-21.15"/>
<polygon fill="#63b8ff" stroke="#63b8ff" points="703.91,-17.71 693.34,-18.41 702.04,-24.46 703.91,-17.71"/>
</a>
</g>
</g>
<!-- Node25 -->
<g id="Node000025" class="node">
<title>Node25</title>
<g id="a_Node000025"><a xlink:title=" ">
<polygon fill="#e0e0e0" stroke="#999999" points="775.33,-19 734.33,-19 734.33,0 775.33,0 775.33,-19"/>
<text text-anchor="middle" x="754.83" y="-7" font-family="Helvetica,sans-Serif" font-size="10.00">tuple</text>
</a>
</g>
</g>
<!-- Node24&#45;&gt;Node25 -->
<g id="edge31_Node000024_Node000025" class="edge">
<title>Node24&#45;&gt;Node25</title>
<g id="a_edge31_Node000024_Node000025"><a xlink:title=" ">
<path fill="none" stroke="#63b8ff" d="M839.6,-54.98C823.64,-46.61 799.05,-33.7 780.45,-23.95"/>
<polygon fill="#63b8ff" stroke="#63b8ff" points="781.83,-20.72 771.35,-19.17 778.58,-26.92 781.83,-20.72"/>
</a>
</g>
</g>
<!-- Node26 -->
<g id="Node000026" class="node">
<title>Node26</title>
<g id="a_Node000026"><a xlink:title=" ">
<polygon fill="#e0e0e0" stroke="#999999" points="853.83,-19 793.83,-19 793.83,0 853.83,0 853.83,-19"/>
<text text-anchor="middle" x="823.83" y="-7" font-family="Helvetica,sans-Serif" font-size="10.00">concepts</text>
</a>
</g>
</g>
<!-- Node24&#45;&gt;Node26 -->
<g id="edge32_Node000024_Node000026" class="edge">
<title>Node24&#45;&gt;Node26</title>
<g id="a_edge32_Node000024_Node000026"><a xlink:title=" ">
<path fill="none" stroke="#63b8ff" d="M850.54,-54.75C846.11,-47.42 839.66,-36.73 834.21,-27.7"/>
<polygon fill="#63b8ff" stroke="#63b8ff" points="837.18,-25.84 829.01,-19.09 831.18,-29.46 837.18,-25.84"/>
</a>
</g>
</g>
<!-- Node27 -->
<g id="Node000027" class="node">
<title>Node27</title>
<g id="a_Node000027"><a xlink:title=" ">
<polygon fill="#e0e0e0" stroke="#999999" points="937.33,-19 872.33,-19 872.33,0 937.33,0 937.33,-19"/>
<text text-anchor="middle" x="904.83" y="-7" font-family="Helvetica,sans-Serif" font-size="10.00">stdexcept</text>
</a>
</g>
</g>
<!-- Node24&#45;&gt;Node27 -->
<g id="edge33_Node000024_Node000027" class="edge">
<title>Node24&#45;&gt;Node27</title>
<g id="a_edge33_Node000024_Node000027"><a xlink:title=" ">
<path fill="none" stroke="#63b8ff" d="M863.92,-54.75C870.98,-47.11 881.41,-35.82 889.97,-26.56"/>
<polygon fill="#63b8ff" stroke="#63b8ff" points="892.67,-28.81 896.88,-19.09 887.53,-24.06 892.67,-28.81"/>
</a>
</g>
</g>
<!-- Node24&#45;&gt;Node28 -->
<g id="edge36_Node000024_Node000028" class="edge">
<title>Node24&#45;&gt;Node28</title>
<g id="a_edge36_Node000024_Node000028"><a xlink:title=" ">
<path fill="none" stroke="#63b8ff" d="M835.16,-58.18C830.46,-57.05 825.49,-55.93 820.83,-55 728.06,-36.58 617.15,-21.26 564.49,-14.39"/>
<polygon fill="#63b8ff" stroke="#63b8ff" points="564.83,-10.9 554.46,-13.09 563.93,-17.85 564.83,-10.9"/>
</a>
</g>
</g>
<!-- Node29&#45;&gt;Node3 -->
<g id="edge39_Node000029_Node000003" class="edge">
<title>Node29&#45;&gt;Node3</title>
<g id="a_edge39_Node000029_Node000003"><a xlink:title=" ">
<path fill="none" stroke="#63b8ff" d="M326.38,-109.95C286.81,-102.5 238.12,-90.32 225.83,-74 202.83,-43.47 262.28,-24.94 301.83,-16.31"/>
<polygon fill="#63b8ff" stroke="#63b8ff" points="302.55,-19.74 311.64,-14.28 301.14,-12.88 302.55,-19.74"/>
</a>
</g>
</g>
<!-- Node29&#45;&gt;Node6 -->
<g id="edge40_Node000029_Node000006" class="edge">
<title>Node29&#45;&gt;Node6</title>
<g id="a_edge40_Node000029_Node000006"><a xlink:title=" ">
<path fill="none" stroke="#63b8ff" d="M343.55,-109.98C299.53,-99.93 226.87,-83.33 183.86,-73.5"/>
<polygon fill="#63b8ff" stroke="#63b8ff" points="184.38,-70.03 173.85,-71.22 182.82,-76.86 184.38,-70.03"/>
</a>
</g>
</g>
<!-- Node29&#45;&gt;Node28 -->
<g id="edge41_Node000029_Node000028" class="edge">
<title>Node29&#45;&gt;Node28</title>
<g id="a_edge41_Node000029_Node000028"><a xlink:title=" ">
<path fill="none" stroke="#63b8ff" d="M352.04,-109.91C320.53,-99.07 276.98,-78.92 296.83,-55 322.68,-23.83 444.81,-14.36 502.93,-11.59"/>
<polygon fill="#63b8ff" stroke="#63b8ff" points="503.17,-15.08 513,-11.15 502.86,-8.09 503.17,-15.08"/>
</a>
</g>
</g>
<!-- Node30&#45;&gt;Node3 -->
<g id="edge43_Node000030_Node000003" class="edge">
<title>Node30&#45;&gt;Node3</title>
<g id="a_edge43_Node000030_Node000003"><a xlink:title=" ">
<path fill="none" stroke="#63b8ff" d="M595.2,-110.48C488.32,-98.44 299.29,-76.78 296.83,-74 283.9,-59.42 299.56,-39.64 314.3,-26.05"/>
<polygon fill="#63b8ff" stroke="#63b8ff" points="316.94,-28.4 322.21,-19.21 312.36,-23.1 316.94,-28.4"/>
</a>
</g>
</g>
<!-- Node30&#45;&gt;Node7 -->
<g id="edge44_Node000030_Node000007" class="edge">
<title>Node30&#45;&gt;Node7</title>
<g id="a_edge44_Node000030_Node000007"><a xlink:title=" ">
<path fill="none" stroke="#63b8ff" d="M647.87,-109.98C628.8,-101.42 599.17,-88.11 577.28,-78.28"/>
<polygon fill="#63b8ff" stroke="#63b8ff" points="578.69,-75.07 568.13,-74.17 575.82,-81.46 578.69,-75.07"/>
</a>
</g>
</g>
<!-- Node30&#45;&gt;Node28 -->
<g id="edge48_Node000030_Node000028" class="edge">
<title>Node30&#45;&gt;Node28</title>
<g id="a_edge48_Node000030_Node000028"><a xlink:title=" ">
<path fill="none" stroke="#63b8ff" d="M612.38,-109.95C572.81,-102.5 524.12,-90.32 511.83,-74 501.34,-60.09 510.57,-40.8 520.08,-27.15"/>
<polygon fill="#63b8ff" stroke="#63b8ff" points="522.93,-29.19 526.17,-19.1 517.35,-24.96 522.93,-29.19"/>
</a>
</g>
</g>
<!-- Node31 -->
<g id="Node000031" class="node">
<title>Node31</title>
<g id="a_Node000031"><a xlink:href="field__base_8h.html" target="_top" xlink:title=" ">
<polygon fill="white" stroke="#666666" points="464.33,-74 389.33,-74 389.33,-55 464.33,-55 464.33,-74"/>
<text text-anchor="middle" x="426.83" y="-62" font-family="Helvetica,sans-Serif" font-size="10.00">field_base.h</text>
</a>
</g>
</g>
<!-- Node30&#45;&gt;Node31 -->
<g id="edge45_Node000030_Node000031" class="edge">
<title>Node30&#45;&gt;Node31</title>
<g id="a_edge45_Node000030_Node000031"><a xlink:title=" ">
<path fill="none" stroke="#63b8ff" d="M628.27,-109.98C586.38,-100.74 519.44,-85.95 474.34,-75.99"/>
<polygon fill="#63b8ff" stroke="#63b8ff" points="475.02,-72.56 464.5,-73.82 473.51,-79.39 475.02,-72.56"/>
</a>
</g>
</g>
<!-- Node31&#45;&gt;Node3 -->
<g id="edge46_Node000031_Node000003" class="edge">
<title>Node31&#45;&gt;Node3</title>
<g id="a_edge46_Node000031_Node000003"><a xlink:title=" ">
<path fill="none" stroke="#63b8ff" d="M411.88,-54.98C397.33,-46.69 374.96,-33.94 357.89,-24.22"/>
<polygon fill="#63b8ff" stroke="#63b8ff" points="359.46,-21.08 349.04,-19.17 355.99,-27.16 359.46,-21.08"/>
</a>
</g>
</g>
<!-- Node31&#45;&gt;Node28 -->
<g id="edge47_Node000031_Node000028" class="edge">
<title>Node31&#45;&gt;Node28</title>
<g id="a_edge47_Node000031_Node000028"><a xlink:title=" ">
<path fill="none" stroke="#63b8ff" d="M444.02,-54.98C461.07,-46.54 487.46,-33.47 507.22,-23.68"/>
<polygon fill="#63b8ff" stroke="#63b8ff" points="508.91,-26.75 516.32,-19.17 505.81,-20.47 508.91,-26.75"/>
</a>
</g>
</g>
<!-- Node32&#45;&gt;Node15 -->
<g id="edge50_Node000032_Node000015" class="edge">
<title>Node32&#45;&gt;Node15</title>
<g id="a_edge50_Node000032_Node000015"><a xlink:title=" ">
<path fill="none" stroke="#63b8ff" d="M1193.41,-54.75C1200.98,-47.03 1212.2,-35.6 1221.34,-26.28"/>
<polygon fill="#63b8ff" stroke="#63b8ff" points="1223.89,-28.68 1228.4,-19.09 1218.9,-23.78 1223.89,-28.68"/>
</a>
</g>
</g>
<!-- Node32&#45;&gt;Node18 -->
<g id="edge52_Node000032_Node000018" class="edge">
<title>Node32&#45;&gt;Node18</title>
<g id="a_edge52_Node000032_Node000018"><a xlink:title=" ">
<path fill="none" stroke="#63b8ff" d="M1152.05,-54.98C1114.88,-45.33 1054.5,-29.64 1016.27,-19.71"/>
<polygon fill="#63b8ff" stroke="#63b8ff" points="1016.67,-16.2 1006.11,-17.07 1014.91,-22.97 1016.67,-16.2"/>
</a>
</g>
</g>
<!-- Node32&#45;&gt;Node27 -->
<g id="edge53_Node000032_Node000027" class="edge">
<title>Node32&#45;&gt;Node27</title>
<g id="a_edge53_Node000032_Node000027"><a xlink:title=" ">
<path fill="none" stroke="#63b8ff" d="M1137.82,-54.92C1091.94,-46.51 1019.89,-33.16 947.58,-19.12"/>
<polygon fill="#63b8ff" stroke="#63b8ff" points="947.86,-15.61 937.38,-17.14 946.52,-22.48 947.86,-15.61"/>
</a>
</g>
</g>
<!-- Node32&#45;&gt;Node28 -->
<g id="edge54_Node000032_Node000028" class="edge">
<title>Node32&#45;&gt;Node28</title>
<g id="a_edge54_Node000032_Node000028"><a xlink:title=" ">
<path fill="none" stroke="#63b8ff" d="M1108.38,-55.77C1105.49,-55.5 1102.63,-55.25 1099.83,-55 889.81,-36.51 836.92,-36.6 626.83,-19 606.03,-17.26 582.63,-15.12 564.5,-13.42"/>
<polygon fill="#63b8ff" stroke="#63b8ff" points="564.79,-9.93 554.5,-12.48 564.13,-16.9 564.79,-9.93"/>
</a>
</g>
</g>
<!-- Node32&#45;&gt;Node33 -->
<g id="edge51_Node000032_Node000033" class="edge">
<title>Node32&#45;&gt;Node33</title>
<g id="a_edge51_Node000032_Node000033"><a xlink:title=" ">
<path fill="none" stroke="#63b8ff" d="M1225.63,-54.98C1273.58,-44.98 1352.56,-28.5 1399.75,-18.65"/>
<polygon fill="#63b8ff" stroke="#63b8ff" points="1400.52,-22.07 1409.6,-16.6 1399.09,-15.22 1400.52,-22.07"/>
</a>
</g>
</g>
<!-- Node35&#45;&gt;Node3 -->
<g id="edge59_Node000035_Node000003" class="edge">
<title>Node35&#45;&gt;Node3</title>
<g id="a_edge59_Node000035_Node000003"><a xlink:title=" ">
<path fill="none" stroke="#63b8ff" d="M964.11,-109.99C899.22,-93.13 759.54,-56.94 748.83,-55 607.7,-29.5 436.75,-16.83 366.43,-12.4"/>
<polygon fill="#63b8ff" stroke="#63b8ff" points="366.23,-8.88 356.03,-11.75 365.8,-15.86 366.23,-8.88"/>
</a>
</g>
</g>
<!-- Node35&#45;&gt;Node13 -->
<g id="edge58_Node000035_Node000013" class="edge">
<title>Node35&#45;&gt;Node13</title>
<g id="a_edge58_Node000035_Node000013"><a xlink:title=" ">
<path fill="none" stroke="#63b8ff" d="M1005.58,-109.75C1013.3,-102.03 1024.73,-90.6 1034.04,-81.28"/>
<polygon fill="#63b8ff" stroke="#63b8ff" points="1036.64,-83.64 1041.24,-74.09 1031.69,-78.69 1036.64,-83.64"/>
</a>
</g>
</g>
<!-- Node35&#45;&gt;Node18 -->
<g id="edge60_Node000035_Node000018" class="edge">
<title>Node35&#45;&gt;Node18</title>
<g id="a_edge60_Node000035_Node000018"><a xlink:title=" ">
<path fill="none" stroke="#63b8ff" d="M995.52,-109.66C992.92,-92.17 987.09,-52.8 983.61,-29.27"/>
<polygon fill="#63b8ff" stroke="#63b8ff" points="987.04,-28.54 982.11,-19.16 980.11,-29.56 987.04,-28.54"/>
</a>
</g>
</g>
<!-- Node35&#45;&gt;Node24 -->
<g id="edge57_Node000035_Node000024" class="edge">
<title>Node35&#45;&gt;Node24</title>
<g id="a_edge57_Node000035_Node000024"><a xlink:title=" ">
<path fill="none" stroke="#63b8ff" d="M974.17,-109.98C950.29,-101.01 912.53,-86.82 886.11,-76.88"/>
<polygon fill="#63b8ff" stroke="#63b8ff" points="887.18,-73.55 876.59,-73.3 884.71,-80.1 887.18,-73.55"/>
</a>
</g>
</g>
<!-- Node35&#45;&gt;Node34 -->
<g id="edge61_Node000035_Node000034" class="edge">
<title>Node35&#45;&gt;Node34</title>
<g id="a_edge61_Node000035_Node000034"><a xlink:title=" ">
<path fill="none" stroke="#63b8ff" d="M1038.55,-111.38C1041.69,-110.9 1044.8,-110.43 1047.83,-110 1150.16,-95.41 1268.69,-81.91 1344.65,-73.69"/>
<polygon fill="#63b8ff" stroke="#63b8ff" points="1345.05,-77.17 1354.61,-72.62 1344.3,-70.21 1345.05,-77.17"/>
</a>
</g>
</g>
</g>
</svg>
