<?xml version="1.0" encoding="UTF-8" standalone="no"?>
<!DOCTYPE svg PUBLIC "-//W3C//DTD SVG 1.1//EN"
 "http://www.w3.org/Graphics/SVG/1.1/DTD/svg11.dtd">
<!-- Generated by graphviz version 2.43.0 (0)
 -->
<!-- Title: InputRefState Pages: 1 -->
<svg width="264pt" height="356pt"
 viewBox="0.00 0.00 264.00 356.00" xmlns="http://www.w3.org/2000/svg" xmlns:xlink="http://www.w3.org/1999/xlink">
<g id="graph0" class="graph" transform="scale(1 1) rotate(0) translate(4 352)">
<title>InputRefState</title>
<!-- Node1 -->
<g id="Node000001" class="node">
<title>Node1</title>
<g id="a_Node000001"><a xlink:title=" ">
<polygon fill="#999999" stroke="#666666" points="83,-19 0,-19 0,0 83,0 83,-19"/>
<text text-anchor="middle" x="41.5" y="-7" font-family="Helvetica,sans-Serif" font-size="10.00">InputRefState</text>
</a>
</g>
</g>
<!-- Node2 -->
<g id="Node000002" class="node">
<title>Node2</title>
<g id="a_Node000002"><a xlink:href="classwebcface_1_1Text.html" target="_top" xlink:title="文字列の送受信データを表すクラス">
<polygon fill="white" stroke="#666666" points="60,-85 23,-85 23,-66 60,-66 60,-85"/>
<text text-anchor="middle" x="41.5" y="-73" font-family="Helvetica,sans-Serif" font-size="10.00">Text</text>
</a>
</g>
</g>
<!-- Node2&#45;&gt;Node1 -->
<g id="edge1_Node000001_Node000002" class="edge">
<title>Node2&#45;&gt;Node1</title>
<g id="a_edge1_Node000001_Node000002"><a xlink:title=" ">
<path fill="none" stroke="#9a32cd" stroke-dasharray="5,2" d="M41.5,-55.58C41.5,-43.63 41.5,-28.72 41.5,-19.41"/>
<polygon fill="#9a32cd" stroke="#9a32cd" points="38,-55.87 41.5,-65.87 45,-55.87 38,-55.87"/>
</a>
</g>
<text text-anchor="middle" x="54" y="-40" font-family="Helvetica,sans-Serif" font-size="10.00" fill="grey"> field</text>
</g>
<!-- Node3 -->
<g id="Node000003" class="node">
<title>Node3</title>
<g id="a_Node000003"><a xlink:href="structwebcface_1_1Field.html" target="_top" xlink:title="ClientDataの参照とメンバ名とデータ名を持つクラス">
<polygon fill="white" stroke="#666666" points="49.5,-255 9.5,-255 9.5,-236 49.5,-236 49.5,-255"/>
<text text-anchor="middle" x="29.5" y="-243" font-family="Helvetica,sans-Serif" font-size="10.00">Field</text>
</a>
</g>
</g>
<!-- Node3&#45;&gt;Node2 -->
<g id="edge2_Node000002_Node000003" class="edge">
<title>Node3&#45;&gt;Node2</title>
<g id="a_edge2_Node000002_Node000003"><a xlink:title=" ">
<path fill="none" stroke="darkgreen" d="M30.84,-225.8C33.42,-189.65 39,-111.44 40.88,-85.25"/>
<polygon fill="darkgreen" stroke="darkgreen" points="27.33,-225.71 30.11,-235.94 34.32,-226.21 27.33,-225.71"/>
</a>
</g>
</g>
<!-- Node4 -->
<g id="Node000004" class="node">
<title>Node4</title>
<g id="a_Node000004"><a xlink:href="structwebcface_1_1Common_1_1FieldBase.html" target="_top" xlink:title="メンバ名とデータ名を持つクラス">
<polygon fill="white" stroke="#666666" points="73.5,-348 9.5,-348 9.5,-329 73.5,-329 73.5,-348"/>
<text text-anchor="middle" x="41.5" y="-336" font-family="Helvetica,sans-Serif" font-size="10.00">FieldBase</text>
</a>
</g>
</g>
<!-- Node4&#45;&gt;Node3 -->
<g id="edge3_Node000003_Node000004" class="edge">
<title>Node4&#45;&gt;Node3</title>
<g id="a_edge3_Node000003_Node000004"><a xlink:title=" ">
<path fill="none" stroke="#63b8ff" d="M39.01,-318.64C36.44,-299.13 32.54,-269.53 30.63,-255.07"/>
<polygon fill="#63b8ff" stroke="#63b8ff" points="35.57,-319.32 40.35,-328.77 42.51,-318.4 35.57,-319.32"/>
</a>
</g>
</g>
<!-- Node6 -->
<g id="Node000006" class="node">
<title>Node6</title>
<g id="a_Node000006"><a xlink:href="structwebcface_1_1Common_1_1FieldBaseComparable.html" target="_top" xlink:title=" ">
<polygon fill="white" stroke="#666666" points="181,-292 58,-292 58,-273 181,-273 181,-292"/>
<text text-anchor="middle" x="119.5" y="-280" font-family="Helvetica,sans-Serif" font-size="10.00">FieldBaseComparable</text>
</a>
</g>
</g>
<!-- Node4&#45;&gt;Node6 -->
<g id="edge6_Node000006_Node000004" class="edge">
<title>Node4&#45;&gt;Node6</title>
<g id="a_edge6_Node000006_Node000004"><a xlink:title=" ">
<path fill="none" stroke="#63b8ff" d="M62.27,-323.12C76.52,-313.26 94.96,-300.49 107,-292.15"/>
<polygon fill="#63b8ff" stroke="#63b8ff" points="60.26,-320.25 54.03,-328.82 64.25,-326.01 60.26,-320.25"/>
</a>
</g>
</g>
<!-- Node5 -->
<g id="Node000005" class="node">
<title>Node5</title>
<g id="a_Node000005"><a xlink:href="classwebcface_1_1EventTarget.html" target="_top" xlink:title=" ">
<polygon fill="white" stroke="#666666" points="175,-141 58,-141 58,-122 175,-122 175,-141"/>
<text text-anchor="middle" x="116.5" y="-129" font-family="Helvetica,sans-Serif" font-size="10.00">EventTarget&lt; Text &gt;</text>
</a>
</g>
</g>
<!-- Node5&#45;&gt;Node2 -->
<g id="edge4_Node000002_Node000005" class="edge">
<title>Node5&#45;&gt;Node2</title>
<g id="a_edge4_Node000002_Node000005"><a xlink:title=" ">
<path fill="none" stroke="#63b8ff" d="M96.19,-115.88C82.64,-106.12 65.26,-93.61 53.77,-85.33"/>
<polygon fill="#63b8ff" stroke="#63b8ff" points="94.29,-118.82 104.45,-121.82 98.38,-113.14 94.29,-118.82"/>
</a>
</g>
</g>
<!-- Node6&#45;&gt;Node5 -->
<g id="edge5_Node000005_Node000006" class="edge">
<title>Node6&#45;&gt;Node5</title>
<g id="a_edge5_Node000005_Node000006"><a xlink:title=" ">
<path fill="none" stroke="#9a32cd" stroke-dasharray="5,2" d="M114.74,-263.22C111.7,-250.61 108.06,-233.41 106.5,-218 105.16,-204.73 105.31,-201.28 106.5,-188 108,-171.23 112,-151.94 114.46,-141.09"/>
<polygon fill="#9a32cd" stroke="#9a32cd" points="111.35,-264.11 117.18,-272.96 118.14,-262.41 111.35,-264.11"/>
</a>
</g>
<text text-anchor="middle" x="117" y="-200.5" font-family="Helvetica,sans-Serif" font-size="10.00" fill="grey"> key</text>
</g>
<!-- Node7 -->
<g id="Node000007" class="node">
<title>Node7</title>
<g id="a_Node000007"><a xlink:href="classwebcface_1_1EventTarget.html" target="_top" xlink:title="イベントを表し、コールバックの追加や削除ができるクラス。">
<polygon fill="white" stroke="#666666" points="256,-218 137,-218 137,-188 256,-188 256,-218"/>
<text text-anchor="start" x="145" y="-206" font-family="Helvetica,sans-Serif" font-size="10.00">EventTarget&lt; V, Key,</text>
<text text-anchor="middle" x="196.5" y="-195" font-family="Helvetica,sans-Serif" font-size="10.00"> VBase &gt;</text>
</a>
</g>
</g>
<!-- Node6&#45;&gt;Node7 -->
<g id="edge8_Node000007_Node000006" class="edge">
<title>Node6&#45;&gt;Node7</title>
<g id="a_edge8_Node000007_Node000006"><a xlink:title=" ">
<path fill="none" stroke="#9a32cd" stroke-dasharray="5,2" d="M135.4,-265.5C149.26,-251.55 169.17,-231.51 182.46,-218.14"/>
<polygon fill="#9a32cd" stroke="#9a32cd" points="132.6,-263.35 128.03,-272.91 137.57,-268.28 132.6,-263.35"/>
</a>
</g>
<text text-anchor="middle" x="173" y="-243" font-family="Helvetica,sans-Serif" font-size="10.00" fill="grey"> key</text>
</g>
<!-- Node7&#45;&gt;Node5 -->
<g id="edge7_Node000005_Node000007" class="edge">
<title>Node7&#45;&gt;Node5</title>
<g id="a_edge7_Node000005_Node000007"><a xlink:title=" ">
<path fill="none" stroke="orange" stroke-dasharray="5,2" d="M172.68,-181.31C157.31,-167.95 138.1,-151.26 126.59,-141.27"/>
<polygon fill="orange" stroke="orange" points="170.47,-184.02 180.31,-187.94 175.06,-178.74 170.47,-184.02"/>
</a>
</g>
<text text-anchor="middle" x="181.5" y="-162" font-family="Helvetica,sans-Serif" font-size="10.00" fill="grey"> &lt; Text &gt;</text>
</g>
</g>
</svg>
