<?xml version="1.0" encoding="UTF-8" standalone="no"?>
<!DOCTYPE svg PUBLIC "-//W3C//DTD SVG 1.1//EN"
 "http://www.w3.org/Graphics/SVG/1.1/DTD/svg11.dtd">
<!-- Generated by graphviz version 2.43.0 (0)
 -->
<!-- Title: FieldBase Pages: 1 -->
<svg width="469pt" height="192pt"
 viewBox="0.00 0.00 469.00 192.00" xmlns="http://www.w3.org/2000/svg" xmlns:xlink="http://www.w3.org/1999/xlink">
<g id="graph0" class="graph" transform="scale(1 1) rotate(0) translate(4 188)">
<title>FieldBase</title>
<!-- Node1 -->
<g id="Node000001" class="node">
<title>Node1</title>
<g id="a_Node000001"><a xlink:title="メンバ名とデータ名を持つクラス">
<polygon fill="#999999" stroke="#666666" points="237.5,-184 173.5,-184 173.5,-165 237.5,-165 237.5,-184"/>
<text text-anchor="middle" x="205.5" y="-172" font-family="Helvetica,sans-Serif" font-size="10.00">FieldBase</text>
</a>
</g>
</g>
<!-- Node2 -->
<g id="Node000002" class="node">
<title>Node2</title>
<g id="a_Node000002"><a xlink:href="structWebCFace_1_1Common_1_1FieldBaseComparable.html" target="_top" xlink:title=" ">
<polygon fill="white" stroke="#666666" points="217,-129 94,-129 94,-110 217,-110 217,-129"/>
<text text-anchor="middle" x="155.5" y="-117" font-family="Helvetica,sans-Serif" font-size="10.00">FieldBaseComparable</text>
</a>
</g>
</g>
<!-- Node1&#45;&gt;Node2 -->
<g id="edge1_Node000001_Node000002" class="edge">
<title>Node1&#45;&gt;Node2</title>
<g id="a_edge1_Node000001_Node000002"><a xlink:title=" ">
<path fill="none" stroke="#63b8ff" d="M190.16,-157.24C181.4,-147.95 170.76,-136.68 163.6,-129.09"/>
<polygon fill="#63b8ff" stroke="#63b8ff" points="187.84,-159.88 197.24,-164.75 192.93,-155.07 187.84,-159.88"/>
</a>
</g>
</g>
<!-- Node3 -->
<g id="Node000003" class="node">
<title>Node3</title>
<g id="a_Node000003"><a xlink:href="structWebCFace_1_1Field.html" target="_top" xlink:title="ClientDataの参照とメンバ名とデータ名を持つクラス">
<polygon fill="white" stroke="#666666" points="275.5,-129 235.5,-129 235.5,-110 275.5,-110 275.5,-129"/>
<text text-anchor="middle" x="255.5" y="-117" font-family="Helvetica,sans-Serif" font-size="10.00">Field</text>
</a>
</g>
</g>
<!-- Node1&#45;&gt;Node3 -->
<g id="edge2_Node000001_Node000003" class="edge">
<title>Node1&#45;&gt;Node3</title>
<g id="a_edge2_Node000001_Node000003"><a xlink:title=" ">
<path fill="none" stroke="#63b8ff" d="M220.84,-157.24C229.6,-147.95 240.24,-136.68 247.4,-129.09"/>
<polygon fill="#63b8ff" stroke="#63b8ff" points="218.07,-155.07 213.76,-164.75 223.16,-159.88 218.07,-155.07"/>
</a>
</g>
</g>
<!-- Node4 -->
<g id="Node000004" class="node">
<title>Node4</title>
<g id="a_Node000004"><a xlink:href="classWebCFace_1_1AsyncFuncResult.html" target="_top" xlink:title=" ">
<polygon fill="white" stroke="#666666" points="99,-74 0,-74 0,-55 99,-55 99,-74"/>
<text text-anchor="middle" x="49.5" y="-62" font-family="Helvetica,sans-Serif" font-size="10.00">AsyncFuncResult</text>
</a>
</g>
</g>
<!-- Node3&#45;&gt;Node4 -->
<g id="edge3_Node000003_Node000004" class="edge">
<title>Node3&#45;&gt;Node4</title>
<g id="a_edge3_Node000003_Node000004"><a xlink:title=" ">
<path fill="none" stroke="#8b1a1a" d="M225.49,-109.8C171.38,-95.16 119,-82.23 85.2,-74.05"/>
<polygon fill="#8b1a1a" stroke="#8b1a1a" points="224.68,-113.21 235.25,-112.45 226.52,-106.45 224.68,-113.21"/>
</a>
</g>
</g>
<!-- Node5 -->
<g id="Node000005" class="node">
<title>Node5</title>
<g id="a_Node000005"><a xlink:href="classWebCFace_1_1Func.html" target="_top" xlink:title="関数1つを表すクラス">
<polygon fill="white" stroke="#666666" points="156,-74 117,-74 117,-55 156,-55 156,-74"/>
<text text-anchor="middle" x="136.5" y="-62" font-family="Helvetica,sans-Serif" font-size="10.00">Func</text>
</a>
</g>
</g>
<!-- Node3&#45;&gt;Node5 -->
<g id="edge4_Node000003_Node000005" class="edge">
<title>Node3&#45;&gt;Node5</title>
<g id="a_edge4_Node000003_Node000005"><a xlink:title=" ">
<path fill="none" stroke="darkgreen" d="M227.2,-105.9C205.22,-96.11 175.32,-82.79 155.97,-74.17"/>
<polygon fill="darkgreen" stroke="darkgreen" points="225.82,-109.11 236.38,-109.98 228.67,-102.72 225.82,-109.11"/>
</a>
</g>
</g>
<!-- Node7 -->
<g id="Node000007" class="node">
<title>Node7</title>
<g id="a_Node000007"><a xlink:href="classWebCFace_1_1Log.html" target="_top" xlink:title=" ">
<polygon fill="white" stroke="#666666" points="208.5,-74 174.5,-74 174.5,-55 208.5,-55 208.5,-74"/>
<text text-anchor="middle" x="191.5" y="-62" font-family="Helvetica,sans-Serif" font-size="10.00">Log</text>
</a>
</g>
</g>
<!-- Node3&#45;&gt;Node7 -->
<g id="edge6_Node000003_Node000007" class="edge">
<title>Node3&#45;&gt;Node7</title>
<g id="a_edge6_Node000003_Node000007"><a xlink:title=" ">
<path fill="none" stroke="darkgreen" d="M237.51,-103.6C226.04,-94.11 211.59,-82.13 201.97,-74.17"/>
<polygon fill="darkgreen" stroke="darkgreen" points="235.28,-106.3 245.22,-109.98 239.75,-100.91 235.28,-106.3"/>
</a>
</g>
</g>
<!-- Node8 -->
<g id="Node000008" class="node">
<title>Node8</title>
<g id="a_Node000008"><a xlink:href="classWebCFace_1_1Member.html" target="_top" xlink:title="他のクライアントを参照することを表すクラス">
<polygon fill="white" stroke="#666666" points="284,-74 227,-74 227,-55 284,-55 284,-74"/>
<text text-anchor="middle" x="255.5" y="-62" font-family="Helvetica,sans-Serif" font-size="10.00">Member</text>
</a>
</g>
</g>
<!-- Node3&#45;&gt;Node8 -->
<g id="edge7_Node000003_Node000008" class="edge">
<title>Node3&#45;&gt;Node8</title>
<g id="a_edge7_Node000003_Node000008"><a xlink:title=" ">
<path fill="none" stroke="darkgreen" d="M255.5,-99.66C255.5,-90.93 255.5,-80.99 255.5,-74.09"/>
<polygon fill="darkgreen" stroke="darkgreen" points="252,-99.75 255.5,-109.75 259,-99.75 252,-99.75"/>
</a>
</g>
</g>
<!-- Node10 -->
<g id="Node000010" class="node">
<title>Node10</title>
<g id="a_Node000010"><a xlink:href="classWebCFace_1_1Text.html" target="_top" xlink:title="文字列の送受信データを表すクラス">
<polygon fill="white" stroke="#666666" points="339,-74 302,-74 302,-55 339,-55 339,-74"/>
<text text-anchor="middle" x="320.5" y="-62" font-family="Helvetica,sans-Serif" font-size="10.00">Text</text>
</a>
</g>
</g>
<!-- Node3&#45;&gt;Node10 -->
<g id="edge9_Node000003_Node000010" class="edge">
<title>Node3&#45;&gt;Node10</title>
<g id="a_edge9_Node000003_Node000010"><a xlink:title=" ">
<path fill="none" stroke="darkgreen" d="M273.77,-103.6C285.42,-94.11 300.1,-82.13 309.87,-74.17"/>
<polygon fill="darkgreen" stroke="darkgreen" points="271.48,-100.95 265.94,-109.98 275.91,-106.38 271.48,-100.95"/>
</a>
</g>
</g>
<!-- Node11 -->
<g id="Node000011" class="node">
<title>Node11</title>
<g id="a_Node000011"><a xlink:href="classWebCFace_1_1Value.html" target="_top" xlink:title="実数値またはその配列の送受信データを表すクラス">
<polygon fill="white" stroke="#666666" points="401.5,-74 357.5,-74 357.5,-55 401.5,-55 401.5,-74"/>
<text text-anchor="middle" x="379.5" y="-62" font-family="Helvetica,sans-Serif" font-size="10.00">Value</text>
</a>
</g>
</g>
<!-- Node3&#45;&gt;Node11 -->
<g id="edge10_Node000003_Node000011" class="edge">
<title>Node3&#45;&gt;Node11</title>
<g id="a_edge10_Node000003_Node000011"><a xlink:title=" ">
<path fill="none" stroke="darkgreen" d="M284.68,-106.03C307.61,-96.23 338.95,-82.83 359.21,-74.17"/>
<polygon fill="darkgreen" stroke="darkgreen" points="283.24,-102.84 275.42,-109.98 285.99,-109.27 283.24,-102.84"/>
</a>
</g>
</g>
<!-- Node12 -->
<g id="Node000012" class="node">
<title>Node12</title>
<g id="a_Node000012"><a xlink:href="classWebCFace_1_1View.html" target="_top" xlink:title="Viewの送受信データを表すクラス">
<polygon fill="white" stroke="#666666" points="461,-74 420,-74 420,-55 461,-55 461,-74"/>
<text text-anchor="middle" x="440.5" y="-62" font-family="Helvetica,sans-Serif" font-size="10.00">View</text>
</a>
</g>
</g>
<!-- Node3&#45;&gt;Node12 -->
<g id="edge11_Node000003_Node000012" class="edge">
<title>Node3&#45;&gt;Node12</title>
<g id="a_edge11_Node000003_Node000012"><a xlink:title=" ">
<path fill="none" stroke="darkgreen" d="M285.56,-109.89C323.32,-99.07 387.11,-80.8 419.81,-71.43"/>
<polygon fill="darkgreen" stroke="darkgreen" points="284.3,-106.61 275.65,-112.73 286.23,-113.34 284.3,-106.61"/>
</a>
</g>
</g>
<!-- Node6 -->
<g id="Node000006" class="node">
<title>Node6</title>
<g id="a_Node000006"><a xlink:href="classWebCFace_1_1AnonymousFunc.html" target="_top" xlink:title=" ">
<polygon fill="white" stroke="#666666" points="185,-19 88,-19 88,0 185,0 185,-19"/>
<text text-anchor="middle" x="136.5" y="-7" font-family="Helvetica,sans-Serif" font-size="10.00">AnonymousFunc</text>
</a>
</g>
</g>
<!-- Node5&#45;&gt;Node6 -->
<g id="edge5_Node000005_Node000006" class="edge">
<title>Node5&#45;&gt;Node6</title>
<g id="a_edge5_Node000005_Node000006"><a xlink:title=" ">
<path fill="none" stroke="#63b8ff" d="M136.5,-44.66C136.5,-35.93 136.5,-25.99 136.5,-19.09"/>
<polygon fill="#63b8ff" stroke="#63b8ff" points="133,-44.75 136.5,-54.75 140,-44.75 133,-44.75"/>
</a>
</g>
</g>
<!-- Node9 -->
<g id="Node000009" class="node">
<title>Node9</title>
<g id="a_Node000009"><a xlink:href="classWebCFace_1_1Client.html" target="_top" xlink:title="サーバーに接続するクライアント。">
<polygon fill="white" stroke="#666666" points="278,-19 233,-19 233,0 278,0 278,-19"/>
<text text-anchor="middle" x="255.5" y="-7" font-family="Helvetica,sans-Serif" font-size="10.00">Client</text>
</a>
</g>
</g>
<!-- Node8&#45;&gt;Node9 -->
<g id="edge8_Node000008_Node000009" class="edge">
<title>Node8&#45;&gt;Node9</title>
<g id="a_edge8_Node000008_Node000009"><a xlink:title=" ">
<path fill="none" stroke="#63b8ff" d="M255.5,-44.66C255.5,-35.93 255.5,-25.99 255.5,-19.09"/>
<polygon fill="#63b8ff" stroke="#63b8ff" points="252,-44.75 255.5,-54.75 259,-44.75 252,-44.75"/>
</a>
</g>
</g>
</g>
</svg>
