<?xml version="1.0" encoding="UTF-8" standalone="no"?>
<!DOCTYPE svg PUBLIC "-//W3C//DTD SVG 1.1//EN"
 "http://www.w3.org/Graphics/SVG/1.1/DTD/svg11.dtd">
<!-- Generated by graphviz version 2.43.0 (0)
 -->
<!-- Title: InputRefState Pages: 1 -->
<svg width="286pt" height="310pt"
 viewBox="0.00 0.00 286.00 310.00" xmlns="http://www.w3.org/2000/svg" xmlns:xlink="http://www.w3.org/1999/xlink">
<g id="graph0" class="graph" transform="scale(1 1) rotate(0) translate(4 306)">
<title>InputRefState</title>
<!-- Node1 -->
<g id="Node000001" class="node">
<title>Node1</title>
<g id="a_Node000001"><a xlink:title=" ">
<polygon fill="#999999" stroke="#666666" points="239.5,-19 156.5,-19 156.5,0 239.5,0 239.5,-19"/>
<text text-anchor="middle" x="198" y="-7" font-family="Helvetica,sans-Serif" font-size="10.00">InputRefState</text>
</a>
</g>
</g>
<!-- Node2 -->
<g id="Node000002" class="node">
<title>Node2</title>
<g id="a_Node000002"><a xlink:href="classwebcface_1_1Text.html" target="_top" xlink:title="文字列の送受信データを表すクラス">
<polygon fill="white" stroke="#666666" points="168.5,-85 131.5,-85 131.5,-66 168.5,-66 168.5,-85"/>
<text text-anchor="middle" x="150" y="-73" font-family="Helvetica,sans-Serif" font-size="10.00">Text</text>
</a>
</g>
</g>
<!-- Node2&#45;&gt;Node1 -->
<g id="edge1_Node000001_Node000002" class="edge">
<title>Node2&#45;&gt;Node1</title>
<g id="a_edge1_Node000001_Node000002"><a xlink:title=" ">
<path fill="none" stroke="#9a32cd" stroke-dasharray="5,2" d="M162.55,-57.77C171.76,-45.49 183.9,-29.3 191.32,-19.41"/>
<polygon fill="#9a32cd" stroke="#9a32cd" points="159.67,-55.77 156.47,-65.87 165.27,-59.97 159.67,-55.77"/>
</a>
</g>
<text text-anchor="middle" x="188.5" y="-40" font-family="Helvetica,sans-Serif" font-size="10.00" fill="grey"> field</text>
</g>
<!-- Node3 -->
<g id="Node000003" class="node">
<title>Node3</title>
<g id="a_Node000003"><a xlink:href="structwebcface_1_1Field.html" target="_top" xlink:title="ClientDataの参照とメンバ名とデータ名を持つクラス">
<polygon fill="white" stroke="#666666" points="68,-151 28,-151 28,-132 68,-132 68,-151"/>
<text text-anchor="middle" x="48" y="-139" font-family="Helvetica,sans-Serif" font-size="10.00">Field</text>
</a>
</g>
</g>
<!-- Node3&#45;&gt;Node2 -->
<g id="edge2_Node000002_Node000003" class="edge">
<title>Node3&#45;&gt;Node2</title>
<g id="a_edge2_Node000002_Node000003"><a xlink:title=" ">
<path fill="none" stroke="darkgreen" d="M70.28,-126.52C90.34,-113.93 119.2,-95.82 136.14,-85.2"/>
<polygon fill="darkgreen" stroke="darkgreen" points="68.37,-123.59 61.76,-131.87 72.09,-129.52 68.37,-123.59"/>
</a>
</g>
</g>
<!-- Node4 -->
<g id="Node000004" class="node">
<title>Node4</title>
<g id="a_Node000004"><a xlink:href="structwebcface_1_1FieldBase.html" target="_top" xlink:title="メンバ名とデータ名を持つクラス">
<polygon fill="white" stroke="#666666" points="64,-225 0,-225 0,-206 64,-206 64,-225"/>
<text text-anchor="middle" x="32" y="-213" font-family="Helvetica,sans-Serif" font-size="10.00">FieldBase</text>
</a>
</g>
</g>
<!-- Node4&#45;&gt;Node3 -->
<g id="edge3_Node000003_Node000004" class="edge">
<title>Node4&#45;&gt;Node3</title>
<g id="a_edge3_Node000003_Node000004"><a xlink:title=" ">
<path fill="none" stroke="#63b8ff" d="M36.09,-196.08C39.31,-181.59 43.65,-162.07 46.1,-151.03"/>
<polygon fill="#63b8ff" stroke="#63b8ff" points="32.65,-195.44 33.9,-205.96 39.48,-196.96 32.65,-195.44"/>
</a>
</g>
</g>
<!-- Node5 -->
<g id="Node000005" class="node">
<title>Node5</title>
<g id="a_Node000005"><a xlink:href="classwebcface_1_1Encoding_1_1SharedString.html" target="_top" xlink:title="u8stringとstringとwstringをshared_ptrで持ち共有する">
<polygon fill="white" stroke="#666666" points="178.5,-302 99.5,-302 99.5,-283 178.5,-283 178.5,-302"/>
<text text-anchor="middle" x="139" y="-290" font-family="Helvetica,sans-Serif" font-size="10.00">SharedString</text>
</a>
</g>
</g>
<!-- Node5&#45;&gt;Node4 -->
<g id="edge4_Node000004_Node000005" class="edge">
<title>Node5&#45;&gt;Node4</title>
<g id="a_edge4_Node000004_Node000005"><a xlink:title=" ">
<path fill="none" stroke="#9a32cd" stroke-dasharray="5,2" d="M118.39,-277.05C96.36,-261.61 62.19,-237.66 44.13,-225"/>
<polygon fill="#9a32cd" stroke="#9a32cd" points="116.53,-280.02 126.73,-282.9 120.55,-274.29 116.53,-280.02"/>
</a>
</g>
<text text-anchor="middle" x="122.5" y="-257" font-family="Helvetica,sans-Serif" font-size="10.00" fill="grey"> field_</text>
<text text-anchor="middle" x="122.5" y="-246" font-family="Helvetica,sans-Serif" font-size="10.00" fill="grey">member_</text>
</g>
<!-- Node8 -->
<g id="Node000008" class="node">
<title>Node8</title>
<g id="a_Node000008"><a xlink:href="classwebcface_1_1ValAdaptor.html" target="_top" xlink:title="数値、文字列などの値を相互変換するクラス">
<polygon fill="white" stroke="#666666" points="278,-188 208,-188 208,-169 278,-169 278,-188"/>
<text text-anchor="middle" x="243" y="-176" font-family="Helvetica,sans-Serif" font-size="10.00">ValAdaptor</text>
</a>
</g>
</g>
<!-- Node5&#45;&gt;Node8 -->
<g id="edge8_Node000008_Node000005" class="edge">
<title>Node5&#45;&gt;Node8</title>
<g id="a_edge8_Node000008_Node000005"><a xlink:title=" ">
<path fill="none" stroke="#9a32cd" stroke-dasharray="5,2" d="M164.34,-277.9C183.93,-266.22 210.42,-247.69 227,-225 235.2,-213.78 239.49,-197.98 241.5,-188.25"/>
<polygon fill="#9a32cd" stroke="#9a32cd" points="162.54,-274.9 155.62,-282.93 166.03,-280.97 162.54,-274.9"/>
</a>
</g>
<text text-anchor="middle" x="225.5" y="-251.5" font-family="Helvetica,sans-Serif" font-size="10.00" fill="grey"> as_str</text>
</g>
<!-- Node6 -->
<g id="Node000006" class="node">
<title>Node6</title>
<g id="a_Node000006"><a xlink:href="classwebcface_1_1EventTarget.html" target="_top" xlink:title=" ">
<polygon fill="white" stroke="#666666" points="208.5,-151 91.5,-151 91.5,-132 208.5,-132 208.5,-151"/>
<text text-anchor="middle" x="150" y="-139" font-family="Helvetica,sans-Serif" font-size="10.00">EventTarget&lt; Text &gt;</text>
</a>
</g>
</g>
<!-- Node6&#45;&gt;Node2 -->
<g id="edge5_Node000002_Node000006" class="edge">
<title>Node6&#45;&gt;Node2</title>
<g id="a_edge5_Node000002_Node000006"><a xlink:title=" ">
<path fill="none" stroke="#63b8ff" d="M150,-121.58C150,-109.63 150,-94.72 150,-85.41"/>
<polygon fill="#63b8ff" stroke="#63b8ff" points="146.5,-121.87 150,-131.87 153.5,-121.87 146.5,-121.87"/>
</a>
</g>
</g>
<!-- Node7 -->
<g id="Node000007" class="node">
<title>Node7</title>
<g id="a_Node000007"><a xlink:href="classwebcface_1_1EventTarget.html" target="_top" xlink:title="イベントを表し、コールバックの追加や削除ができるクラス。">
<polygon fill="white" stroke="#666666" points="218,-225 82,-225 82,-206 218,-206 218,-225"/>
<text text-anchor="middle" x="150" y="-213" font-family="Helvetica,sans-Serif" font-size="10.00">EventTarget&lt; ArgType &gt;</text>
</a>
</g>
</g>
<!-- Node7&#45;&gt;Node6 -->
<g id="edge6_Node000006_Node000007" class="edge">
<title>Node7&#45;&gt;Node6</title>
<g id="a_edge6_Node000006_Node000007"><a xlink:title=" ">
<path fill="none" stroke="orange" stroke-dasharray="5,2" d="M150,-195.66C150,-181.21 150,-161.96 150,-151.03"/>
<polygon fill="orange" stroke="orange" points="146.5,-195.96 150,-205.96 153.5,-195.96 146.5,-195.96"/>
</a>
</g>
<text text-anchor="middle" x="173" y="-176" font-family="Helvetica,sans-Serif" font-size="10.00" fill="grey"> &lt; Text &gt;</text>
</g>
<!-- Node8&#45;&gt;Node1 -->
<g id="edge7_Node000001_Node000008" class="edge">
<title>Node8&#45;&gt;Node1</title>
<g id="a_edge7_Node000001_Node000008"><a xlink:title=" ">
<path fill="none" stroke="#9a32cd" stroke-dasharray="5,2" d="M237.99,-158.91C228.31,-122.97 207.36,-45.23 200.34,-19.19"/>
<polygon fill="#9a32cd" stroke="#9a32cd" points="234.73,-160.24 240.71,-168.99 241.48,-158.42 234.73,-160.24"/>
</a>
</g>
<text text-anchor="middle" x="234.5" y="-106" font-family="Helvetica,sans-Serif" font-size="10.00" fill="grey"> val</text>
</g>
</g>
</svg>
