<?xml version="1.0" encoding="UTF-8" standalone="no"?>
<!DOCTYPE svg PUBLIC "-//W3C//DTD SVG 1.1//EN"
 "http://www.w3.org/Graphics/SVG/1.1/DTD/svg11.dtd">
<!-- Generated by graphviz version 2.43.0 (0)
 -->
<!-- Title: ClientData Pages: 1 -->
<svg width="822pt" height="658pt"
 viewBox="0.00 0.00 822.00 657.50" xmlns="http://www.w3.org/2000/svg" xmlns:xlink="http://www.w3.org/1999/xlink">
<g id="graph0" class="graph" transform="scale(1 1) rotate(0) translate(4 653.5)">
<title>ClientData</title>
<!-- Node1 -->
<g id="Node000001" class="node">
<title>Node1</title>
<g id="a_Node000001"><a xlink:title=" ">
<polygon fill="#999999" stroke="#666666" points="814,-361 746,-361 746,-342 814,-342 814,-361"/>
<text text-anchor="middle" x="780" y="-349" font-family="Helvetica,sans-Serif" font-size="10.00">ClientData</text>
</a>
</g>
</g>
<!-- Node2 -->
<g id="Node000002" class="node">
<title>Node2</title>
<g id="a_Node000002"><a xlink:title=" ">
<polygon fill="white" stroke="#666666" points="555,-649.5 439,-649.5 439,-619.5 555,-619.5 555,-649.5"/>
<text text-anchor="start" x="447" y="-637.5" font-family="Helvetica,sans-Serif" font-size="10.00">enable_shared_from</text>
<text text-anchor="middle" x="497" y="-626.5" font-family="Helvetica,sans-Serif" font-size="10.00">_this&lt; ClientData &gt;</text>
</a>
</g>
</g>
<!-- Node2&#45;&gt;Node1 -->
<g id="edge1_Node000001_Node000002" class="edge">
<title>Node2&#45;&gt;Node1</title>
<g id="a_edge1_Node000001_Node000002"><a xlink:title=" ">
<path fill="none" stroke="#63b8ff" d="M565.15,-643.84C616.35,-646.96 685.15,-641.91 728,-601.5 763.93,-567.62 775.96,-403.06 778.47,-361.2"/>
<polygon fill="#63b8ff" stroke="#63b8ff" points="565.39,-640.34 555.16,-643.11 564.88,-647.33 565.39,-640.34"/>
</a>
</g>
</g>
<!-- Node3 -->
<g id="Node000003" class="node">
<title>Node3</title>
<g id="a_Node000003"><a xlink:href="classwebcface_1_1Common_1_1Queue.html" target="_top" xlink:title=" ">
<polygon fill="white" stroke="#666666" points="556.5,-601 437.5,-601 437.5,-582 556.5,-582 556.5,-601"/>
<text text-anchor="middle" x="497" y="-589" font-family="Helvetica,sans-Serif" font-size="10.00">Queue&lt; std::string &gt;</text>
</a>
</g>
</g>
<!-- Node3&#45;&gt;Node1 -->
<g id="edge2_Node000001_Node000003" class="edge">
<title>Node3&#45;&gt;Node1</title>
<g id="a_edge2_Node000001_Node000003"><a xlink:title=" ">
<path fill="none" stroke="#9a32cd" stroke-dasharray="5,2" d="M566.73,-594.95C618.15,-593.61 686.48,-582.89 728,-540.5 778.66,-488.79 780.32,-392.29 779.45,-361.33"/>
<polygon fill="#9a32cd" stroke="#9a32cd" points="566.64,-591.45 556.69,-595.09 566.74,-598.45 566.64,-591.45"/>
</a>
</g>
<text text-anchor="middle" x="680.5" y="-589.5" font-family="Helvetica,sans-Serif" font-size="10.00" fill="grey"> recv_queue</text>
</g>
<!-- Node4 -->
<g id="Node000004" class="node">
<title>Node4</title>
<g id="a_Node000004"><a xlink:href="classwebcface_1_1Common_1_1Queue.html" target="_top" xlink:title="排他制御をしたただのキュー">
<polygon fill="white" stroke="#666666" points="100,-577 23,-577 23,-558 100,-558 100,-577"/>
<text text-anchor="middle" x="61.5" y="-565" font-family="Helvetica,sans-Serif" font-size="10.00">Queue&lt; T &gt;</text>
</a>
</g>
</g>
<!-- Node4&#45;&gt;Node3 -->
<g id="edge3_Node000003_Node000004" class="edge">
<title>Node4&#45;&gt;Node3</title>
<g id="a_edge3_Node000003_Node000004"><a xlink:title=" ">
<path fill="none" stroke="orange" stroke-dasharray="5,2" d="M110.02,-571.33C120.23,-572.1 130.97,-572.86 141,-573.5 245.24,-580.13 366.81,-585.86 437.24,-588.98"/>
<polygon fill="orange" stroke="orange" points="110.26,-567.84 100.02,-570.56 109.72,-574.82 110.26,-567.84"/>
</a>
</g>
<text text-anchor="middle" x="251" y="-587.5" font-family="Helvetica,sans-Serif" font-size="10.00" fill="grey"> &lt; std::string &gt;</text>
</g>
<!-- Node16 -->
<g id="Node000016" class="node">
<title>Node16</title>
<g id="a_Node000016"><a xlink:href="classwebcface_1_1Common_1_1Queue.html" target="_top" xlink:title=" ">
<polygon fill="white" stroke="#666666" points="565.5,-564 428.5,-564 428.5,-523 565.5,-523 565.5,-564"/>
<text text-anchor="start" x="436.5" y="-552" font-family="Helvetica,sans-Serif" font-size="10.00">Queue&lt; std::shared</text>
<text text-anchor="start" x="436.5" y="-541" font-family="Helvetica,sans-Serif" font-size="10.00">_ptr&lt; webcface::Internal</text>
<text text-anchor="middle" x="497" y="-530" font-family="Helvetica,sans-Serif" font-size="10.00">::FuncOnSync &gt; &gt;</text>
</a>
</g>
</g>
<!-- Node4&#45;&gt;Node16 -->
<g id="edge22_Node000016_Node000004" class="edge">
<title>Node4&#45;&gt;Node16</title>
<g id="a_edge22_Node000016_Node000004"><a xlink:title=" ">
<path fill="none" stroke="orange" stroke-dasharray="5,2" d="M90.41,-553.51C105.07,-546.93 123.57,-539.82 141,-536.5 239.56,-517.74 356.28,-525.67 428.24,-533.92"/>
<polygon fill="orange" stroke="orange" points="88.52,-550.52 80.94,-557.92 91.48,-556.87 88.52,-550.52"/>
</a>
</g>
<text text-anchor="start" x="203" y="-561.5" font-family="Helvetica,sans-Serif" font-size="10.00" fill="grey"> &lt; std::shared_ptr&lt;</text>
<text text-anchor="start" x="203" y="-550.5" font-family="Helvetica,sans-Serif" font-size="10.00" fill="grey"> webcface::Internal</text>
<text text-anchor="middle" x="251" y="-539.5" font-family="Helvetica,sans-Serif" font-size="10.00" fill="grey">::FuncOnSync &gt; &gt;</text>
</g>
<!-- Node5 -->
<g id="Node000005" class="node">
<title>Node5</title>
<g id="a_Node000005"><a xlink:href="classwebcface_1_1Internal_1_1SyncDataStore2.html" target="_top" xlink:title=" ">
<polygon fill="white" stroke="#666666" points="571.5,-505 422.5,-505 422.5,-464 571.5,-464 571.5,-505"/>
<text text-anchor="start" x="430.5" y="-493" font-family="Helvetica,sans-Serif" font-size="10.00">SyncDataStore2&lt; std</text>
<text text-anchor="start" x="430.5" y="-482" font-family="Helvetica,sans-Serif" font-size="10.00">::shared_ptr&lt; webcface</text>
<text text-anchor="middle" x="497" y="-471" font-family="Helvetica,sans-Serif" font-size="10.00">::VectorOpt&lt; double &gt; &gt; &gt;</text>
</a>
</g>
</g>
<!-- Node5&#45;&gt;Node1 -->
<g id="edge4_Node000001_Node000005" class="edge">
<title>Node5&#45;&gt;Node1</title>
<g id="a_edge4_Node000001_Node000005"><a xlink:title=" ">
<path fill="none" stroke="#9a32cd" stroke-dasharray="5,2" d="M581.63,-475.19C628.07,-466.77 684.98,-450.78 728,-420.5 750.41,-404.72 766.95,-375.98 774.49,-361.06"/>
<polygon fill="#9a32cd" stroke="#9a32cd" points="580.84,-471.77 571.58,-476.93 582.03,-478.67 580.84,-471.77"/>
</a>
</g>
<text text-anchor="middle" x="680.5" y="-465.5" font-family="Helvetica,sans-Serif" font-size="10.00" fill="grey"> value_store</text>
</g>
<!-- Node6 -->
<g id="Node000006" class="node">
<title>Node6</title>
<g id="a_Node000006"><a xlink:href="classwebcface_1_1Internal_1_1SyncDataStore2.html" target="_top" xlink:title="送受信するデータを保持するクラス">
<polygon fill="white" stroke="#666666" points="119,-326.5 4,-326.5 4,-296.5 119,-296.5 119,-326.5"/>
<text text-anchor="start" x="12" y="-314.5" font-family="Helvetica,sans-Serif" font-size="10.00">SyncDataStore2&lt; T,</text>
<text text-anchor="middle" x="61.5" y="-303.5" font-family="Helvetica,sans-Serif" font-size="10.00"> ReqT &gt;</text>
</a>
</g>
</g>
<!-- Node6&#45;&gt;Node5 -->
<g id="edge5_Node000005_Node000006" class="edge">
<title>Node6&#45;&gt;Node5</title>
<g id="a_edge5_Node000005_Node000006"><a xlink:title=" ">
<path fill="none" stroke="orange" stroke-dasharray="5,2" d="M68.26,-336.41C77.43,-369.8 98.78,-428.05 141,-455.5 185.84,-484.66 332.2,-487.65 422.39,-486.53"/>
<polygon fill="orange" stroke="orange" points="71.6,-335.31 65.71,-326.51 64.82,-337.07 71.6,-335.31"/>
</a>
</g>
<text text-anchor="start" x="199" y="-510.5" font-family="Helvetica,sans-Serif" font-size="10.00" fill="grey"> &lt; std::shared_ptr&lt;</text>
<text text-anchor="start" x="199" y="-499.5" font-family="Helvetica,sans-Serif" font-size="10.00" fill="grey"> webcface::VectorOpt</text>
<text text-anchor="middle" x="251" y="-488.5" font-family="Helvetica,sans-Serif" font-size="10.00" fill="grey">&lt; double &gt; &gt; &gt;</text>
</g>
<!-- Node7 -->
<g id="Node000007" class="node">
<title>Node7</title>
<g id="a_Node000007"><a xlink:href="classwebcface_1_1Internal_1_1SyncDataStore2.html" target="_top" xlink:title=" ">
<polygon fill="white" stroke="#666666" points="575.5,-445.5 418.5,-445.5 418.5,-415.5 575.5,-415.5 575.5,-445.5"/>
<text text-anchor="start" x="426.5" y="-433.5" font-family="Helvetica,sans-Serif" font-size="10.00">SyncDataStore2&lt; std</text>
<text text-anchor="middle" x="497" y="-422.5" font-family="Helvetica,sans-Serif" font-size="10.00">::shared_ptr&lt; std::string &gt; &gt;</text>
</a>
</g>
</g>
<!-- Node6&#45;&gt;Node7 -->
<g id="edge7_Node000007_Node000006" class="edge">
<title>Node6&#45;&gt;Node7</title>
<g id="a_edge7_Node000007_Node000006"><a xlink:title=" ">
<path fill="none" stroke="orange" stroke-dasharray="5,2" d="M75.62,-335.32C88.98,-356.97 111.85,-387.73 141,-402.5 187.81,-426.21 328.63,-430.79 418.2,-431.18"/>
<polygon fill="orange" stroke="orange" points="78.6,-333.48 70.49,-326.67 72.58,-337.05 78.6,-333.48"/>
</a>
</g>
<text text-anchor="start" x="203" y="-443.5" font-family="Helvetica,sans-Serif" font-size="10.00" fill="grey"> &lt; std::shared_ptr&lt;</text>
<text text-anchor="middle" x="251" y="-432.5" font-family="Helvetica,sans-Serif" font-size="10.00" fill="grey"> std::string &gt; &gt;</text>
</g>
<!-- Node8 -->
<g id="Node000008" class="node">
<title>Node8</title>
<g id="a_Node000008"><a xlink:href="classwebcface_1_1Internal_1_1SyncDataStore2.html" target="_top" xlink:title=" ">
<polygon fill="white" stroke="#666666" points="563,-397 431,-397 431,-356 563,-356 563,-397"/>
<text text-anchor="start" x="439" y="-385" font-family="Helvetica,sans-Serif" font-size="10.00">SyncDataStore2&lt; std</text>
<text text-anchor="start" x="439" y="-374" font-family="Helvetica,sans-Serif" font-size="10.00">::shared_ptr&lt; webcface</text>
<text text-anchor="middle" x="497" y="-363" font-family="Helvetica,sans-Serif" font-size="10.00">::FuncInfo &gt; &gt;</text>
</a>
</g>
</g>
<!-- Node6&#45;&gt;Node8 -->
<g id="edge9_Node000008_Node000006" class="edge">
<title>Node6&#45;&gt;Node8</title>
<g id="a_edge9_Node000008_Node000006"><a xlink:title=" ">
<path fill="none" stroke="orange" stroke-dasharray="5,2" d="M97.66,-331.4C110.85,-337.96 126.24,-344.58 141,-348.5 239.59,-374.68 358.57,-378.75 430.69,-378.33"/>
<polygon fill="orange" stroke="orange" points="98.97,-328.13 88.48,-326.66 95.76,-334.36 98.97,-328.13"/>
</a>
</g>
<text text-anchor="start" x="191" y="-390.5" font-family="Helvetica,sans-Serif" font-size="10.00" fill="grey"> &lt; std::shared_ptr&lt;</text>
<text text-anchor="middle" x="251" y="-379.5" font-family="Helvetica,sans-Serif" font-size="10.00" fill="grey"> webcface::FuncInfo &gt; &gt;</text>
</g>
<!-- Node9 -->
<g id="Node000009" class="node">
<title>Node9</title>
<g id="a_Node000009"><a xlink:href="classwebcface_1_1Internal_1_1SyncDataStore2.html" target="_top" xlink:title=" ">
<polygon fill="white" stroke="#666666" points="602.5,-337.5 391.5,-337.5 391.5,-285.5 602.5,-285.5 602.5,-337.5"/>
<text text-anchor="start" x="399.5" y="-325.5" font-family="Helvetica,sans-Serif" font-size="10.00">SyncDataStore2&lt; std</text>
<text text-anchor="start" x="399.5" y="-314.5" font-family="Helvetica,sans-Serif" font-size="10.00">::shared_ptr&lt; std::vector</text>
<text text-anchor="start" x="399.5" y="-303.5" font-family="Helvetica,sans-Serif" font-size="10.00">&lt; webcface::Common::ViewComponent</text>
<text text-anchor="middle" x="497" y="-292.5" font-family="Helvetica,sans-Serif" font-size="10.00">Base &gt; &gt; &gt;</text>
</a>
</g>
</g>
<!-- Node6&#45;&gt;Node9 -->
<g id="edge11_Node000009_Node000006" class="edge">
<title>Node6&#45;&gt;Node9</title>
<g id="a_edge11_Node000009_Node000006"><a xlink:title=" ">
<path fill="none" stroke="orange" stroke-dasharray="5,2" d="M129.6,-311.5C199.43,-311.5 309.74,-311.5 391.1,-311.5"/>
<polygon fill="orange" stroke="orange" points="129.17,-308 119.17,-311.5 129.17,-315 129.17,-308"/>
</a>
</g>
<text text-anchor="start" x="153.5" y="-336.5" font-family="Helvetica,sans-Serif" font-size="10.00" fill="grey"> &lt; std::shared_ptr&lt;</text>
<text text-anchor="start" x="153.5" y="-325.5" font-family="Helvetica,sans-Serif" font-size="10.00" fill="grey"> std::vector&lt; webcface</text>
<text text-anchor="middle" x="251" y="-314.5" font-family="Helvetica,sans-Serif" font-size="10.00" fill="grey">::Common::ViewComponentBase &gt; &gt; &gt;</text>
</g>
<!-- Node10 -->
<g id="Node000010" class="node">
<title>Node10</title>
<g id="a_Node000010"><a xlink:href="classwebcface_1_1Internal_1_1SyncDataStore2.html" target="_top" xlink:title=" ">
<polygon fill="white" stroke="#666666" points="587,-267 407,-267 407,-226 587,-226 587,-267"/>
<text text-anchor="start" x="415" y="-255" font-family="Helvetica,sans-Serif" font-size="10.00">SyncDataStore2&lt; webcface</text>
<text text-anchor="start" x="415" y="-244" font-family="Helvetica,sans-Serif" font-size="10.00">::Common::ImageBase, webcface</text>
<text text-anchor="middle" x="497" y="-233" font-family="Helvetica,sans-Serif" font-size="10.00">::Common::ImageReq &gt;</text>
</a>
</g>
</g>
<!-- Node6&#45;&gt;Node10 -->
<g id="edge13_Node000010_Node000006" class="edge">
<title>Node6&#45;&gt;Node10</title>
<g id="a_edge13_Node000010_Node000006"><a xlink:title=" ">
<path fill="none" stroke="orange" stroke-dasharray="5,2" d="M97.66,-291.6C110.85,-285.04 126.24,-278.42 141,-274.5 229.43,-251.01 334.27,-245.33 406.98,-244.71"/>
<polygon fill="orange" stroke="orange" points="95.76,-288.64 88.48,-296.34 98.97,-294.87 95.76,-288.64"/>
</a>
</g>
<text text-anchor="start" x="192" y="-299.5" font-family="Helvetica,sans-Serif" font-size="10.00" fill="grey"> &lt; webcface::Common</text>
<text text-anchor="start" x="192" y="-288.5" font-family="Helvetica,sans-Serif" font-size="10.00" fill="grey">::ImageBase, webcface</text>
<text text-anchor="middle" x="251" y="-277.5" font-family="Helvetica,sans-Serif" font-size="10.00" fill="grey">::Common::ImageReq &gt;</text>
</g>
<!-- Node11 -->
<g id="Node000011" class="node">
<title>Node11</title>
<g id="a_Node000011"><a xlink:href="classwebcface_1_1Internal_1_1SyncDataStore2.html" target="_top" xlink:title=" ">
<polygon fill="white" stroke="#666666" points="566,-208 428,-208 428,-167 566,-167 566,-208"/>
<text text-anchor="start" x="436" y="-196" font-family="Helvetica,sans-Serif" font-size="10.00">SyncDataStore2&lt; std</text>
<text text-anchor="start" x="436" y="-185" font-family="Helvetica,sans-Serif" font-size="10.00">::vector&lt; webcface::</text>
<text text-anchor="middle" x="497" y="-174" font-family="Helvetica,sans-Serif" font-size="10.00">Common::RobotLink &gt; &gt;</text>
</a>
</g>
</g>
<!-- Node6&#45;&gt;Node11 -->
<g id="edge15_Node000011_Node000006" class="edge">
<title>Node6&#45;&gt;Node11</title>
<g id="a_edge15_Node000011_Node000006"><a xlink:title=" ">
<path fill="none" stroke="orange" stroke-dasharray="5,2" d="M75.6,-287.5C88.94,-265.66 111.79,-234.6 141,-219.5 231.7,-172.61 352.96,-172.87 427.7,-178.98"/>
<polygon fill="orange" stroke="orange" points="72.52,-285.83 70.47,-296.22 78.56,-289.37 72.52,-285.83"/>
</a>
</g>
<text text-anchor="start" x="187" y="-233.5" font-family="Helvetica,sans-Serif" font-size="10.00" fill="grey"> &lt; std::vector&lt; webcface</text>
<text text-anchor="middle" x="251" y="-222.5" font-family="Helvetica,sans-Serif" font-size="10.00" fill="grey">::Common::RobotLink &gt; &gt;</text>
</g>
<!-- Node12 -->
<g id="Node000012" class="node">
<title>Node12</title>
<g id="a_Node000012"><a xlink:href="classwebcface_1_1Internal_1_1SyncDataStore2.html" target="_top" xlink:title=" ">
<polygon fill="white" stroke="#666666" points="615,-148.5 379,-148.5 379,-96.5 615,-96.5 615,-148.5"/>
<text text-anchor="start" x="387" y="-136.5" font-family="Helvetica,sans-Serif" font-size="10.00">SyncDataStore2&lt; std</text>
<text text-anchor="start" x="387" y="-125.5" font-family="Helvetica,sans-Serif" font-size="10.00">::shared_ptr&lt; std::vector</text>
<text text-anchor="start" x="387" y="-114.5" font-family="Helvetica,sans-Serif" font-size="10.00">&lt; webcface::Common::Canvas3DComponent</text>
<text text-anchor="middle" x="497" y="-103.5" font-family="Helvetica,sans-Serif" font-size="10.00">Base &gt; &gt; &gt;</text>
</a>
</g>
</g>
<!-- Node6&#45;&gt;Node12 -->
<g id="edge17_Node000012_Node000006" class="edge">
<title>Node6&#45;&gt;Node12</title>
<g id="a_edge17_Node000012_Node000006"><a xlink:title=" ">
<path fill="none" stroke="orange" stroke-dasharray="5,2" d="M65.69,-286.33C72.14,-247.15 90.69,-172.55 141,-138.5 209.85,-91.91 304.58,-89.93 378.86,-98.51"/>
<polygon fill="orange" stroke="orange" points="62.2,-285.97 64.17,-296.38 69.13,-287.01 62.2,-285.97"/>
</a>
</g>
<text text-anchor="start" x="141" y="-163.5" font-family="Helvetica,sans-Serif" font-size="10.00" fill="grey"> &lt; std::shared_ptr&lt;</text>
<text text-anchor="start" x="141" y="-152.5" font-family="Helvetica,sans-Serif" font-size="10.00" fill="grey"> std::vector&lt; webcface</text>
<text text-anchor="middle" x="251" y="-141.5" font-family="Helvetica,sans-Serif" font-size="10.00" fill="grey">::Common::Canvas3DComponentBase &gt; &gt; &gt;</text>
</g>
<!-- Node7&#45;&gt;Node1 -->
<g id="edge6_Node000001_Node000007" class="edge">
<title>Node7&#45;&gt;Node1</title>
<g id="a_edge6_Node000001_Node000007"><a xlink:title=" ">
<path fill="none" stroke="#9a32cd" stroke-dasharray="5,2" d="M585.77,-416.74C629.4,-408.39 682.41,-395.92 728,-378.5 740.35,-373.78 753.53,-366.75 763.39,-361.05"/>
<polygon fill="#9a32cd" stroke="#9a32cd" points="584.94,-413.34 575.76,-418.62 586.23,-420.22 584.94,-413.34"/>
</a>
</g>
<text text-anchor="middle" x="680.5" y="-408.5" font-family="Helvetica,sans-Serif" font-size="10.00" fill="grey"> text_store</text>
</g>
<!-- Node8&#45;&gt;Node1 -->
<g id="edge8_Node000001_Node000008" class="edge">
<title>Node8&#45;&gt;Node1</title>
<g id="a_edge8_Node000001_Node000008"><a xlink:title=" ">
<path fill="none" stroke="#9a32cd" stroke-dasharray="5,2" d="M573.44,-369.79C629.57,-364.79 703.48,-358.22 745.66,-354.47"/>
<polygon fill="#9a32cd" stroke="#9a32cd" points="572.82,-366.33 563.17,-370.7 573.44,-373.3 572.82,-366.33"/>
</a>
</g>
<text text-anchor="middle" x="680.5" y="-366.5" font-family="Helvetica,sans-Serif" font-size="10.00" fill="grey"> func_store</text>
</g>
<!-- Node9&#45;&gt;Node1 -->
<g id="edge10_Node000001_Node000009" class="edge">
<title>Node9&#45;&gt;Node1</title>
<g id="a_edge10_Node000001_Node000009"><a xlink:title=" ">
<path fill="none" stroke="#9a32cd" stroke-dasharray="5,2" d="M613.03,-324.01C649.86,-328.55 690.74,-334.14 728,-340.5 733.8,-341.49 739.95,-342.69 745.89,-343.92"/>
<polygon fill="#9a32cd" stroke="#9a32cd" points="613.11,-320.5 602.76,-322.76 612.26,-327.44 613.11,-320.5"/>
</a>
</g>
<text text-anchor="middle" x="680.5" y="-343.5" font-family="Helvetica,sans-Serif" font-size="10.00" fill="grey"> view_store</text>
</g>
<!-- Node10&#45;&gt;Node1 -->
<g id="edge12_Node000001_Node000010" class="edge">
<title>Node10&#45;&gt;Node1</title>
<g id="a_edge12_Node000001_Node000010"><a xlink:title=" ">
<path fill="none" stroke="#9a32cd" stroke-dasharray="5,2" d="M597.19,-265.02C639.07,-275.22 687.43,-290.24 728,-311.5 743.55,-319.65 759.09,-332.72 768.85,-341.69"/>
<polygon fill="#9a32cd" stroke="#9a32cd" points="597.79,-261.57 587.26,-262.66 596.18,-268.38 597.79,-261.57"/>
</a>
</g>
<text text-anchor="middle" x="680.5" y="-314.5" font-family="Helvetica,sans-Serif" font-size="10.00" fill="grey"> image_store</text>
</g>
<!-- Node11&#45;&gt;Node1 -->
<g id="edge14_Node000001_Node000011" class="edge">
<title>Node11&#45;&gt;Node1</title>
<g id="a_edge14_Node000001_Node000011"><a xlink:title=" ">
<path fill="none" stroke="#9a32cd" stroke-dasharray="5,2" d="M576.24,-196.51C624.71,-205.62 685.58,-223.9 728,-260.5 754.47,-283.33 770.01,-323.46 776.06,-341.83"/>
<polygon fill="#9a32cd" stroke="#9a32cd" points="576.56,-193.01 566.1,-194.7 575.33,-199.9 576.56,-193.01"/>
</a>
</g>
<text text-anchor="middle" x="680.5" y="-263.5" font-family="Helvetica,sans-Serif" font-size="10.00" fill="grey"> robot_model_store</text>
</g>
<!-- Node12&#45;&gt;Node1 -->
<g id="edge16_Node000001_Node000012" class="edge">
<title>Node12&#45;&gt;Node1</title>
<g id="a_edge16_Node000001_Node000012"><a xlink:title=" ">
<path fill="none" stroke="#9a32cd" stroke-dasharray="5,2" d="M625.07,-140.5C662.31,-151.34 700.39,-168.71 728,-196.5 769.73,-238.5 777.31,-315.23 778.69,-341.99"/>
<polygon fill="#9a32cd" stroke="#9a32cd" points="625.69,-137.04 615.12,-137.74 623.82,-143.78 625.69,-137.04"/>
</a>
</g>
<text text-anchor="middle" x="680.5" y="-199.5" font-family="Helvetica,sans-Serif" font-size="10.00" fill="grey"> canvas3d_store</text>
</g>
<!-- Node13 -->
<g id="Node000013" class="node">
<title>Node13</title>
<g id="a_Node000013"><a xlink:href="classwebcface_1_1Internal_1_1SyncDataStore1.html" target="_top" xlink:title=" ">
<polygon fill="white" stroke="#666666" points="561,-78 433,-78 433,-37 561,-37 561,-78"/>
<text text-anchor="start" x="441" y="-66" font-family="Helvetica,sans-Serif" font-size="10.00">SyncDataStore1&lt; std</text>
<text text-anchor="start" x="441" y="-55" font-family="Helvetica,sans-Serif" font-size="10.00">::chrono::system_clock</text>
<text text-anchor="middle" x="497" y="-44" font-family="Helvetica,sans-Serif" font-size="10.00">::time_point &gt;</text>
</a>
</g>
</g>
<!-- Node13&#45;&gt;Node1 -->
<g id="edge18_Node000001_Node000013" class="edge">
<title>Node13&#45;&gt;Node1</title>
<g id="a_edge18_Node000001_Node000013"><a xlink:title=" ">
<path fill="none" stroke="#9a32cd" stroke-dasharray="5,2" d="M571.11,-61.08C622.52,-67.63 688.86,-84.91 728,-129.5 756.76,-162.27 773.81,-303.29 777.99,-341.77"/>
<polygon fill="#9a32cd" stroke="#9a32cd" points="571.38,-57.59 561.04,-59.91 570.57,-64.54 571.38,-57.59"/>
</a>
</g>
<text text-anchor="middle" x="680.5" y="-132.5" font-family="Helvetica,sans-Serif" font-size="10.00" fill="grey"> sync_time_store</text>
</g>
<!-- Node14 -->
<g id="Node000014" class="node">
<title>Node14</title>
<g id="a_Node000014"><a xlink:href="classwebcface_1_1Internal_1_1SyncDataStore1.html" target="_top" xlink:title=" ">
<polygon fill="white" stroke="#666666" points="123,-67 0,-67 0,-48 123,-48 123,-67"/>
<text text-anchor="middle" x="61.5" y="-55" font-family="Helvetica,sans-Serif" font-size="10.00">SyncDataStore1&lt; T &gt;</text>
</a>
</g>
</g>
<!-- Node14&#45;&gt;Node13 -->
<g id="edge19_Node000013_Node000014" class="edge">
<title>Node14&#45;&gt;Node13</title>
<g id="a_edge19_Node000013_Node000014"><a xlink:title=" ">
<path fill="none" stroke="orange" stroke-dasharray="5,2" d="M133.35,-57.5C216.52,-57.5 353.19,-57.5 432.86,-57.5"/>
<polygon fill="orange" stroke="orange" points="133.23,-54 123.23,-57.5 133.23,-61 133.23,-54"/>
</a>
</g>
<text text-anchor="start" x="195.5" y="-71.5" font-family="Helvetica,sans-Serif" font-size="10.00" fill="grey"> &lt; std::chrono::system</text>
<text text-anchor="middle" x="251" y="-60.5" font-family="Helvetica,sans-Serif" font-size="10.00" fill="grey">_clock::time_point &gt;</text>
</g>
<!-- Node15 -->
<g id="Node000015" class="node">
<title>Node15</title>
<g id="a_Node000015"><a xlink:href="classwebcface_1_1Internal_1_1FuncResultStore.html" target="_top" xlink:title="AsyncFuncResultのリストを保持する。">
<polygon fill="white" stroke="#666666" points="544.5,-19 449.5,-19 449.5,0 544.5,0 544.5,-19"/>
<text text-anchor="middle" x="497" y="-7" font-family="Helvetica,sans-Serif" font-size="10.00">FuncResultStore</text>
</a>
</g>
</g>
<!-- Node15&#45;&gt;Node1 -->
<g id="edge20_Node000001_Node000015" class="edge">
<title>Node15&#45;&gt;Node1</title>
<g id="a_edge20_Node000001_Node000015"><a xlink:title=" ">
<path fill="none" stroke="#9a32cd" stroke-dasharray="5,2" d="M555.21,-4.54C608.12,-3.38 684.88,-11.06 728,-58.5 767.16,-101.58 776.9,-296.11 778.67,-341.85"/>
<polygon fill="#9a32cd" stroke="#9a32cd" points="554.85,-1.05 544.97,-4.88 555.08,-8.04 554.85,-1.05"/>
</a>
</g>
<text text-anchor="middle" x="680.5" y="-61.5" font-family="Helvetica,sans-Serif" font-size="10.00" fill="grey"> func_result_store</text>
</g>
<!-- Node16&#45;&gt;Node1 -->
<g id="edge21_Node000001_Node000016" class="edge">
<title>Node16&#45;&gt;Node1</title>
<g id="a_edge21_Node000001_Node000016"><a xlink:title=" ">
<path fill="none" stroke="#9a32cd" stroke-dasharray="5,2" d="M575.65,-538.92C624.91,-532.14 686.89,-515.9 728,-477.5 763.01,-444.8 774.56,-384.73 777.85,-361.26"/>
<polygon fill="#9a32cd" stroke="#9a32cd" points="575.14,-535.46 565.66,-540.2 576.02,-542.41 575.14,-535.46"/>
</a>
</g>
<text text-anchor="middle" x="680.5" y="-528.5" font-family="Helvetica,sans-Serif" font-size="10.00" fill="grey"> func_sync_queue</text>
</g>
</g>
</svg>
