<?xml version="1.0" encoding="UTF-8" standalone="no"?>
<!DOCTYPE svg PUBLIC "-//W3C//DTD SVG 1.1//EN"
 "http://www.w3.org/Graphics/SVG/1.1/DTD/svg11.dtd">
<!-- Generated by graphviz version 2.43.0 (0)
 -->
<!-- Title: ArraySizeTrait&lt; T[N], Num &gt; Pages: 1 -->
<svg width="139pt" height="182pt"
 viewBox="0.00 0.00 139.00 182.00" xmlns="http://www.w3.org/2000/svg" xmlns:xlink="http://www.w3.org/1999/xlink">
<g id="graph0" class="graph" transform="scale(1 1) rotate(0) translate(4 178)">
<title>ArraySizeTrait&lt; T[N], Num &gt;</title>
<!-- Node1 -->
<g id="Node000001" class="node">
<title>Node1</title>
<g id="a_Node000001"><a xlink:title=" ">
<polygon fill="#999999" stroke="#666666" points="116,-30 0,-30 0,0 116,0 116,-30"/>
<text text-anchor="start" x="8" y="-18" font-family="Helvetica,sans-Serif" font-size="10.00">ArraySizeTrait&lt; T[N]</text>
<text text-anchor="middle" x="58" y="-7" font-family="Helvetica,sans-Serif" font-size="10.00">, Num &gt;</text>
</a>
</g>
</g>
<!-- Node2 -->
<g id="Node000002" class="node">
<title>Node2</title>
<g id="a_Node000002"><a xlink:href="structwebcface_1_1traits_1_1ArraySizeTraitCheck.html" target="_top" xlink:title=" ">
<polygon fill="white" stroke="#666666" points="115,-97 1,-97 1,-67 115,-67 115,-97"/>
<text text-anchor="start" x="9" y="-85" font-family="Helvetica,sans-Serif" font-size="10.00">ArraySizeTraitCheck</text>
<text text-anchor="middle" x="58" y="-74" font-family="Helvetica,sans-Serif" font-size="10.00">&lt; N==Num &gt;</text>
</a>
</g>
</g>
<!-- Node2&#45;&gt;Node1 -->
<g id="edge1_Node000001_Node000002" class="edge">
<title>Node2&#45;&gt;Node1</title>
<g id="a_edge1_Node000001_Node000002"><a xlink:title=" ">
<path fill="none" stroke="#63b8ff" d="M58,-56.61C58,-47.65 58,-37.82 58,-30.08"/>
<polygon fill="#63b8ff" stroke="#63b8ff" points="54.5,-56.9 58,-66.9 61.5,-56.9 54.5,-56.9"/>
</a>
</g>
</g>
<!-- Node3 -->
<g id="Node000003" class="node">
<title>Node3</title>
<g id="a_Node000003"><a xlink:href="structwebcface_1_1traits_1_1ArraySizeTraitCheck.html" target="_top" xlink:title=" ">
<polygon fill="white" stroke="#666666" points="115,-174 1,-174 1,-144 115,-144 115,-174"/>
<text text-anchor="start" x="9" y="-162" font-family="Helvetica,sans-Serif" font-size="10.00">ArraySizeTraitCheck</text>
<text text-anchor="middle" x="58" y="-151" font-family="Helvetica,sans-Serif" font-size="10.00">&lt; bool &gt;</text>
</a>
</g>
</g>
<!-- Node3&#45;&gt;Node2 -->
<g id="edge2_Node000002_Node000003" class="edge">
<title>Node3&#45;&gt;Node2</title>
<g id="a_edge2_Node000002_Node000003"><a xlink:title=" ">
<path fill="none" stroke="orange" stroke-dasharray="5,2" d="M58,-133.54C58,-121.45 58,-107.29 58,-97.04"/>
<polygon fill="orange" stroke="orange" points="54.5,-133.89 58,-143.89 61.5,-133.89 54.5,-133.89"/>
</a>
</g>
<text text-anchor="middle" x="94.5" y="-118" font-family="Helvetica,sans-Serif" font-size="10.00" fill="grey"> &lt; N==Num &gt;</text>
</g>
</g>
</svg>
