<?xml version="1.0" encoding="UTF-8" standalone="no"?>
<!DOCTYPE svg PUBLIC "-//W3C//DTD SVG 1.1//EN"
 "http://www.w3.org/Graphics/SVG/1.1/DTD/svg11.dtd">
<!-- Generated by graphviz version 2.43.0 (0)
 -->
<!-- Title: Canvas2DComponentData Pages: 1 -->
<svg width="154pt" height="149pt"
 viewBox="0.00 0.00 154.00 149.00" xmlns="http://www.w3.org/2000/svg" xmlns:xlink="http://www.w3.org/1999/xlink">
<g id="graph0" class="graph" transform="scale(1 1) rotate(0) translate(4 145)">
<title>Canvas2DComponentData</title>
<!-- Node1 -->
<g id="Node000001" class="node">
<title>Node1</title>
<g id="a_Node000001"><a xlink:title=" ">
<polygon fill="#999999" stroke="#666666" points="146,-19 0,-19 0,0 146,0 146,-19"/>
<text text-anchor="middle" x="73" y="-7" font-family="Helvetica,sans-Serif" font-size="10.00">Canvas2DComponentData</text>
</a>
</g>
</g>
<!-- Node2 -->
<g id="Node000002" class="node">
<title>Node2</title>
<g id="a_Node000002"><a xlink:href="structmessage_1_1Canvas2DComponent.html" target="_top" xlink:title=" ">
<polygon fill="white" stroke="#666666" points="134,-75 12,-75 12,-56 134,-56 134,-75"/>
<text text-anchor="middle" x="73" y="-63" font-family="Helvetica,sans-Serif" font-size="10.00">Canvas2DComponent</text>
</a>
</g>
</g>
<!-- Node2&#45;&gt;Node1 -->
<g id="edge1_Node000001_Node000002" class="edge">
<title>Node2&#45;&gt;Node1</title>
<g id="a_edge1_Node000001_Node000002"><a xlink:title=" ">
<path fill="none" stroke="#63b8ff" d="M73,-45.3C73,-36.41 73,-26.28 73,-19.25"/>
<polygon fill="#63b8ff" stroke="#63b8ff" points="69.5,-45.58 73,-55.58 76.5,-45.58 69.5,-45.58"/>
</a>
</g>
</g>
<!-- Node3 -->
<g id="Node000003" class="node">
<title>Node3</title>
<g id="a_Node000003"><a xlink:href="classencoding_1_1SharedString.html" target="_top" xlink:title="u8stringとstringとwstringをshared_ptrで持ち共有する">
<polygon fill="white" stroke="#666666" points="112.5,-141 33.5,-141 33.5,-122 112.5,-122 112.5,-141"/>
<text text-anchor="middle" x="73" y="-129" font-family="Helvetica,sans-Serif" font-size="10.00">SharedString</text>
</a>
</g>
</g>
<!-- Node3&#45;&gt;Node2 -->
<g id="edge2_Node000002_Node000003" class="edge">
<title>Node3&#45;&gt;Node2</title>
<g id="a_edge2_Node000002_Node000003"><a xlink:title=" ">
<path fill="none" stroke="#9a32cd" stroke-dasharray="5,2" d="M73,-111.58C73,-99.63 73,-84.72 73,-75.41"/>
<polygon fill="#9a32cd" stroke="#9a32cd" points="69.5,-111.87 73,-121.87 76.5,-111.87 69.5,-111.87"/>
</a>
</g>
<text text-anchor="middle" x="84.5" y="-96" font-family="Helvetica,sans-Serif" font-size="10.00" fill="grey"> text</text>
</g>
</g>
</svg>
