<?xml version="1.0" encoding="UTF-8" standalone="no"?>
<!DOCTYPE svg PUBLIC "-//W3C//DTD SVG 1.1//EN"
 "http://www.w3.org/Graphics/SVG/1.1/DTD/svg11.dtd">
<!-- Generated by graphviz version 2.43.0 (0)
 -->
<!-- Title: InputRefState Pages: 1 -->
<svg width="226pt" height="215pt"
 viewBox="0.00 0.00 226.00 215.00" xmlns="http://www.w3.org/2000/svg" xmlns:xlink="http://www.w3.org/1999/xlink">
<g id="graph0" class="graph" transform="scale(1 1) rotate(0) translate(4 211)">
<title>InputRefState</title>
<!-- Node1 -->
<g id="Node000001" class="node">
<title>Node1</title>
<g id="a_Node000001"><a xlink:title=" ">
<polygon fill="#999999" stroke="#666666" points="127.5,-19 44.5,-19 44.5,0 127.5,0 127.5,-19"/>
<text text-anchor="middle" x="86" y="-7" font-family="Helvetica,sans-Serif" font-size="10.00">InputRefState</text>
</a>
</g>
</g>
<!-- Node2 -->
<g id="Node000002" class="node">
<title>Node2</title>
<g id="a_Node000002"><a xlink:href="classText.html" target="_top" xlink:title="文字列の送受信データを表すクラス">
<polygon fill="white" stroke="#666666" points="104.5,-85 67.5,-85 67.5,-66 104.5,-66 104.5,-85"/>
<text text-anchor="middle" x="86" y="-73" font-family="Helvetica,sans-Serif" font-size="10.00">Text</text>
</a>
</g>
</g>
<!-- Node2&#45;&gt;Node1 -->
<g id="edge1_Node000001_Node000002" class="edge">
<title>Node2&#45;&gt;Node1</title>
<g id="a_edge1_Node000001_Node000002"><a xlink:title=" ">
<path fill="none" stroke="#9a32cd" stroke-dasharray="5,2" d="M86,-55.58C86,-43.63 86,-28.72 86,-19.41"/>
<polygon fill="#9a32cd" stroke="#9a32cd" points="82.5,-55.87 86,-65.87 89.5,-55.87 82.5,-55.87"/>
</a>
</g>
<text text-anchor="middle" x="98.5" y="-40" font-family="Helvetica,sans-Serif" font-size="10.00" fill="grey"> field</text>
</g>
<!-- Node3 -->
<g id="Node000003" class="node">
<title>Node3</title>
<g id="a_Node000003"><a xlink:href="structField.html" target="_top" xlink:title="ClientDataの参照とメンバ名とデータ名を持つクラス">
<polygon fill="white" stroke="#666666" points="58,-141 18,-141 18,-122 58,-122 58,-141"/>
<text text-anchor="middle" x="38" y="-129" font-family="Helvetica,sans-Serif" font-size="10.00">Field</text>
</a>
</g>
</g>
<!-- Node3&#45;&gt;Node2 -->
<g id="edge2_Node000002_Node000003" class="edge">
<title>Node3&#45;&gt;Node2</title>
<g id="a_edge2_Node000002_Node000003"><a xlink:title=" ">
<path fill="none" stroke="darkgreen" d="M52.73,-113.93C61.14,-104.47 71.35,-92.98 78.22,-85.25"/>
<polygon fill="darkgreen" stroke="darkgreen" points="49.95,-111.78 45.93,-121.58 55.19,-116.43 49.95,-111.78"/>
</a>
</g>
</g>
<!-- Node4 -->
<g id="Node000004" class="node">
<title>Node4</title>
<g id="a_Node000004"><a xlink:href="structCommon_1_1FieldBase.html" target="_top" xlink:title="メンバ名とデータ名を持つクラス">
<polygon fill="white" stroke="#666666" points="64,-207 0,-207 0,-188 64,-188 64,-207"/>
<text text-anchor="middle" x="32" y="-195" font-family="Helvetica,sans-Serif" font-size="10.00">FieldBase</text>
</a>
</g>
</g>
<!-- Node4&#45;&gt;Node3 -->
<g id="edge3_Node000003_Node000004" class="edge">
<title>Node4&#45;&gt;Node3</title>
<g id="a_edge3_Node000003_Node000004"><a xlink:title=" ">
<path fill="none" stroke="#63b8ff" d="M33.77,-177.58C34.89,-165.63 36.29,-150.72 37.17,-141.41"/>
<polygon fill="#63b8ff" stroke="#63b8ff" points="30.26,-177.59 32.81,-187.87 37.23,-178.24 30.26,-177.59"/>
</a>
</g>
</g>
<!-- Node5 -->
<g id="Node000005" class="node">
<title>Node5</title>
<g id="a_Node000005"><a xlink:href="classEventTarget.html" target="_top" xlink:title=" ">
<polygon fill="white" stroke="#666666" points="203.5,-141 86.5,-141 86.5,-122 203.5,-122 203.5,-141"/>
<text text-anchor="middle" x="145" y="-129" font-family="Helvetica,sans-Serif" font-size="10.00">EventTarget&lt; Text &gt;</text>
</a>
</g>
</g>
<!-- Node5&#45;&gt;Node2 -->
<g id="edge4_Node000002_Node000005" class="edge">
<title>Node5&#45;&gt;Node2</title>
<g id="a_edge4_Node000002_Node000005"><a xlink:title=" ">
<path fill="none" stroke="#63b8ff" d="M128.11,-115.04C117.59,-105.41 104.43,-93.37 95.65,-85.33"/>
<polygon fill="#63b8ff" stroke="#63b8ff" points="125.78,-117.65 135.52,-121.82 130.51,-112.49 125.78,-117.65"/>
</a>
</g>
</g>
<!-- Node6 -->
<g id="Node000006" class="node">
<title>Node6</title>
<g id="a_Node000006"><a xlink:href="classEventTarget.html" target="_top" xlink:title="イベントを表し、コールバックの追加や削除ができるクラス。">
<polygon fill="white" stroke="#666666" points="218,-207 82,-207 82,-188 218,-188 218,-207"/>
<text text-anchor="middle" x="150" y="-195" font-family="Helvetica,sans-Serif" font-size="10.00">EventTarget&lt; ArgType &gt;</text>
</a>
</g>
</g>
<!-- Node6&#45;&gt;Node5 -->
<g id="edge5_Node000005_Node000006" class="edge">
<title>Node6&#45;&gt;Node5</title>
<g id="a_edge5_Node000005_Node000006"><a xlink:title=" ">
<path fill="none" stroke="orange" stroke-dasharray="5,2" d="M148.52,-177.58C147.59,-165.63 146.42,-150.72 145.7,-141.41"/>
<polygon fill="orange" stroke="orange" points="145.06,-178.17 149.33,-187.87 152.04,-177.63 145.06,-178.17"/>
</a>
</g>
<text text-anchor="middle" x="171" y="-162" font-family="Helvetica,sans-Serif" font-size="10.00" fill="grey"> &lt; Text &gt;</text>
</g>
</g>
</svg>
