<?xml version="1.0" encoding="UTF-8" standalone="no"?>
<!DOCTYPE svg PUBLIC "-//W3C//DTD SVG 1.1//EN"
 "http://www.w3.org/Graphics/SVG/1.1/DTD/svg11.dtd">
<!-- Generated by graphviz version 2.43.0 (0)
 -->
<!-- Title: MemberData Pages: 1 -->
<svg width="266pt" height="247pt"
 viewBox="0.00 0.00 266.00 247.00" xmlns="http://www.w3.org/2000/svg" xmlns:xlink="http://www.w3.org/1999/xlink">
<g id="graph0" class="graph" transform="scale(1 1) rotate(0) translate(4 243)">
<title>MemberData</title>
<!-- Node1 -->
<g id="Node000001" class="node">
<title>Node1</title>
<g id="a_Node000001"><a xlink:title=" ">
<polygon fill="#999999" stroke="#666666" points="127,-19 47,-19 47,0 127,0 127,-19"/>
<text text-anchor="middle" x="87" y="-7" font-family="Helvetica,sans-Serif" font-size="10.00">MemberData</text>
</a>
</g>
</g>
<!-- Node2 -->
<g id="Node000002" class="node">
<title>Node2</title>
<g id="a_Node000002"><a xlink:href="structServer_1_1ServerStorage.html" target="_top" xlink:title=" ">
<polygon fill="white" stroke="#666666" points="86,-85 0,-85 0,-66 86,-66 86,-85"/>
<text text-anchor="middle" x="43" y="-73" font-family="Helvetica,sans-Serif" font-size="10.00">ServerStorage</text>
</a>
</g>
</g>
<!-- Node2&#45;&gt;Node1 -->
<g id="edge1_Node000001_Node000002" class="edge">
<title>Node2&#45;&gt;Node1</title>
<g id="a_edge1_Node000001_Node000002"><a xlink:title=" ">
<path fill="none" stroke="#9a32cd" stroke-dasharray="5,2" d="M54.75,-57.41C63.16,-45.18 74.14,-29.2 80.88,-19.41"/>
<polygon fill="#9a32cd" stroke="#9a32cd" points="51.72,-55.65 48.93,-65.87 57.48,-59.61 51.72,-55.65"/>
</a>
</g>
<text text-anchor="middle" x="82" y="-40" font-family="Helvetica,sans-Serif" font-size="10.00" fill="grey"> store</text>
</g>
<!-- Node3 -->
<g id="Node000003" class="node">
<title>Node3</title>
<g id="a_Node000003"><a xlink:href="classServer_1_1Server.html" target="_top" xlink:title=" ">
<polygon fill="white" stroke="#666666" points="50,-156.5 2,-156.5 2,-137.5 50,-137.5 50,-156.5"/>
<text text-anchor="middle" x="26" y="-144.5" font-family="Helvetica,sans-Serif" font-size="10.00">Server</text>
</a>
</g>
</g>
<!-- Node3&#45;&gt;Node2 -->
<g id="edge2_Node000002_Node000003" class="edge">
<title>Node3&#45;&gt;Node2</title>
<g id="a_edge2_Node000002_Node000003"><a xlink:title=" ">
<path fill="none" stroke="#9a32cd" stroke-dasharray="5,2" d="M30.5,-127.62C33.86,-113.86 38.32,-95.65 40.9,-85.09"/>
<polygon fill="#9a32cd" stroke="#9a32cd" points="27.06,-126.93 28.08,-137.48 33.86,-128.6 27.06,-126.93"/>
</a>
</g>
<text text-anchor="middle" x="54" y="-106" font-family="Helvetica,sans-Serif" font-size="10.00" fill="grey"> server</text>
</g>
<!-- Node4 -->
<g id="Node000004" class="node">
<title>Node4</title>
<g id="a_Node000004"><a xlink:href="structMessage_1_1SyncInit.html" target="_top" xlink:title="client初期化(client&#45;&gt;server&#45;&gt;client)">
<polygon fill="white" stroke="#666666" points="168,-85 112,-85 112,-66 168,-66 168,-85"/>
<text text-anchor="middle" x="140" y="-73" font-family="Helvetica,sans-Serif" font-size="10.00">SyncInit</text>
</a>
</g>
</g>
<!-- Node4&#45;&gt;Node1 -->
<g id="edge3_Node000001_Node000004" class="edge">
<title>Node4&#45;&gt;Node1</title>
<g id="a_edge3_Node000001_Node000004"><a xlink:title=" ">
<path fill="none" stroke="#9a32cd" stroke-dasharray="5,2" d="M126.44,-58.12C116.24,-45.81 102.65,-29.39 94.37,-19.41"/>
<polygon fill="#9a32cd" stroke="#9a32cd" points="123.78,-60.4 132.85,-65.87 129.17,-55.93 123.78,-60.4"/>
</a>
</g>
<text text-anchor="middle" x="139" y="-40" font-family="Helvetica,sans-Serif" font-size="10.00" fill="grey"> init_data</text>
</g>
<!-- Node5 -->
<g id="Node000005" class="node">
<title>Node5</title>
<g id="a_Node000005"><a xlink:href="structMessage_1_1MessageBase.html" target="_top" xlink:title=" ">
<polygon fill="white" stroke="#666666" points="229.5,-162 68.5,-162 68.5,-132 229.5,-132 229.5,-162"/>
<text text-anchor="start" x="76.5" y="-150" font-family="Helvetica,sans-Serif" font-size="10.00">MessageBase&lt; MessageKind</text>
<text text-anchor="middle" x="149" y="-139" font-family="Helvetica,sans-Serif" font-size="10.00">::sync_init &gt;</text>
</a>
</g>
</g>
<!-- Node5&#45;&gt;Node4 -->
<g id="edge4_Node000004_Node000005" class="edge">
<title>Node5&#45;&gt;Node4</title>
<g id="a_edge4_Node000004_Node000005"><a xlink:title=" ">
<path fill="none" stroke="#63b8ff" d="M145.88,-121.94C144.24,-109.24 142.32,-94.44 141.14,-85.27"/>
<polygon fill="#63b8ff" stroke="#63b8ff" points="142.42,-122.47 147.18,-131.94 149.37,-121.57 142.42,-122.47"/>
</a>
</g>
</g>
<!-- Node6 -->
<g id="Node000006" class="node">
<title>Node6</title>
<g id="a_Node000006"><a xlink:href="structMessage_1_1MessageBase.html" target="_top" xlink:title="型からkindを取得するためだけのベースクラス">
<polygon fill="white" stroke="#666666" points="205.5,-239 92.5,-239 92.5,-220 205.5,-220 205.5,-239"/>
<text text-anchor="middle" x="149" y="-227" font-family="Helvetica,sans-Serif" font-size="10.00">MessageBase&lt; k &gt;</text>
</a>
</g>
</g>
<!-- Node6&#45;&gt;Node5 -->
<g id="edge5_Node000005_Node000006" class="edge">
<title>Node6&#45;&gt;Node5</title>
<g id="a_edge5_Node000005_Node000006"><a xlink:title=" ">
<path fill="none" stroke="orange" stroke-dasharray="5,2" d="M149,-209.6C149,-195.1 149,-175.4 149,-162.22"/>
<polygon fill="orange" stroke="orange" points="145.5,-209.89 149,-219.89 152.5,-209.89 145.5,-209.89"/>
</a>
</g>
<text text-anchor="start" x="149" y="-194" font-family="Helvetica,sans-Serif" font-size="10.00" fill="grey"> &lt; MessageKind::sync</text>
<text text-anchor="middle" x="203.5" y="-183" font-family="Helvetica,sans-Serif" font-size="10.00" fill="grey">_init &gt;</text>
</g>
</g>
</svg>
