<?xml version="1.0" encoding="UTF-8" standalone="no"?>
<!DOCTYPE svg PUBLIC "-//W3C//DTD SVG 1.1//EN"
 "http://www.w3.org/Graphics/SVG/1.1/DTD/svg11.dtd">
<!-- Generated by graphviz version 2.43.0 (0)
 -->
<!-- Title: Res&lt; Canvas3DOld &gt; Pages: 1 -->
<svg width="239pt" height="171pt"
 viewBox="0.00 0.00 238.50 171.00" xmlns="http://www.w3.org/2000/svg" xmlns:xlink="http://www.w3.org/1999/xlink">
<g id="graph0" class="graph" transform="scale(1 1) rotate(0) translate(4 167)">
<title>Res&lt; Canvas3DOld &gt;</title>
<!-- Node1 -->
<g id="Node000001" class="node">
<title>Node1</title>
<g id="a_Node000001"><a xlink:title=" ">
<polygon fill="#999999" stroke="#666666" points="159,-19 36,-19 36,0 159,0 159,-19"/>
<text text-anchor="middle" x="97.5" y="-7" font-family="Helvetica,sans-Serif" font-size="10.00">Res&lt; Canvas3DOld &gt;</text>
</a>
</g>
</g>
<!-- Node2 -->
<g id="Node000002" class="node">
<title>Node2</title>
<g id="a_Node000002"><a xlink:href="structwebcface_1_1message_1_1MessageBase.html" target="_top" xlink:title=" ">
<polygon fill="white" stroke="#666666" points="195,-86 0,-86 0,-56 195,-56 195,-86"/>
<text text-anchor="start" x="8" y="-74" font-family="Helvetica,sans-Serif" font-size="10.00">MessageBase&lt; MessageKind</text>
<text text-anchor="middle" x="97.5" y="-63" font-family="Helvetica,sans-Serif" font-size="10.00">::canvas3d_old+MessageKind::res &gt;</text>
</a>
</g>
</g>
<!-- Node2&#45;&gt;Node1 -->
<g id="edge1_Node000001_Node000002" class="edge">
<title>Node2&#45;&gt;Node1</title>
<g id="a_edge1_Node000001_Node000002"><a xlink:title=" ">
<path fill="none" stroke="#63b8ff" d="M97.5,-45.79C97.5,-36.36 97.5,-26.15 97.5,-19.16"/>
<polygon fill="#63b8ff" stroke="#63b8ff" points="94,-45.9 97.5,-55.9 101,-45.9 94,-45.9"/>
</a>
</g>
</g>
<!-- Node3 -->
<g id="Node000003" class="node">
<title>Node3</title>
<g id="a_Node000003"><a xlink:href="structwebcface_1_1message_1_1MessageBase.html" target="_top" xlink:title="型からkindを取得するためだけのベースクラス">
<polygon fill="white" stroke="#666666" points="154,-163 41,-163 41,-144 154,-144 154,-163"/>
<text text-anchor="middle" x="97.5" y="-151" font-family="Helvetica,sans-Serif" font-size="10.00">MessageBase&lt; k &gt;</text>
</a>
</g>
</g>
<!-- Node3&#45;&gt;Node2 -->
<g id="edge2_Node000002_Node000003" class="edge">
<title>Node3&#45;&gt;Node2</title>
<g id="a_edge2_Node000002_Node000003"><a xlink:title=" ">
<path fill="none" stroke="orange" stroke-dasharray="5,2" d="M97.5,-133.6C97.5,-119.1 97.5,-99.4 97.5,-86.22"/>
<polygon fill="orange" stroke="orange" points="94,-133.89 97.5,-143.89 101,-133.89 94,-133.89"/>
</a>
</g>
<text text-anchor="start" x="97.5" y="-118" font-family="Helvetica,sans-Serif" font-size="10.00" fill="grey"> &lt; MessageKind::canvas3d</text>
<text text-anchor="middle" x="164" y="-107" font-family="Helvetica,sans-Serif" font-size="10.00" fill="grey">_old+MessageKind::res &gt;</text>
</g>
</g>
</svg>
