<?xml version="1.0" encoding="UTF-8" standalone="no"?>
<!DOCTYPE svg PUBLIC "-//W3C//DTD SVG 1.1//EN"
 "http://www.w3.org/Graphics/SVG/1.1/DTD/svg11.dtd">
<!-- Generated by graphviz version 2.43.0 (0)
 -->
<!-- Title: WebCFace::Message::Entry&lt; T &gt; Pages: 1 -->
<svg width="196pt" height="204pt"
 viewBox="0.00 0.00 195.50 204.00" xmlns="http://www.w3.org/2000/svg" xmlns:xlink="http://www.w3.org/1999/xlink">
<g id="graph0" class="graph" transform="scale(1 1) rotate(0) translate(4 200)">
<title>WebCFace::Message::Entry&lt; T &gt;</title>
<!-- Node1 -->
<g id="Node000001" class="node">
<title>Node1</title>
<g id="a_Node000001"><a xlink:title=" ">
<polygon fill="#999999" stroke="#666666" points="127.5,-30 5.5,-30 5.5,0 127.5,0 127.5,-30"/>
<text text-anchor="start" x="13.5" y="-18" font-family="Helvetica,sans-Serif" font-size="10.00">WebCFace::Message::</text>
<text text-anchor="middle" x="66.5" y="-7" font-family="Helvetica,sans-Serif" font-size="10.00">Entry&lt; T &gt;</text>
</a>
</g>
</g>
<!-- Node2 -->
<g id="Node000002" class="node">
<title>Node2</title>
<g id="a_Node000002"><a xlink:href="structWebCFace_1_1Message_1_1MessageBase.html" target="_top" xlink:title=" ">
<polygon fill="white" stroke="#666666" points="133,-108 0,-108 0,-67 133,-67 133,-108"/>
<text text-anchor="start" x="8" y="-96" font-family="Helvetica,sans-Serif" font-size="10.00">WebCFace::Message::</text>
<text text-anchor="start" x="8" y="-85" font-family="Helvetica,sans-Serif" font-size="10.00">MessageBase&lt; T::kind</text>
<text text-anchor="middle" x="66.5" y="-74" font-family="Helvetica,sans-Serif" font-size="10.00">+MessageKind::entry &gt;</text>
</a>
</g>
</g>
<!-- Node2&#45;&gt;Node1 -->
<g id="edge1_Node000001_Node000002" class="edge">
<title>Node2&#45;&gt;Node1</title>
<g id="a_edge1_Node000001_Node000002"><a xlink:title=" ">
<path fill="none" stroke="#63b8ff" d="M66.5,-56.58C66.5,-47.51 66.5,-37.95 66.5,-30.39"/>
<polygon fill="#63b8ff" stroke="#63b8ff" points="63,-56.86 66.5,-66.86 70,-56.86 63,-56.86"/>
</a>
</g>
</g>
<!-- Node3 -->
<g id="Node000003" class="node">
<title>Node3</title>
<g id="a_Node000003"><a xlink:href="structWebCFace_1_1Message_1_1MessageBase.html" target="_top" xlink:title="型からkindを取得するためだけのベースクラス">
<polygon fill="white" stroke="#666666" points="127.5,-196 5.5,-196 5.5,-166 127.5,-166 127.5,-196"/>
<text text-anchor="start" x="13.5" y="-184" font-family="Helvetica,sans-Serif" font-size="10.00">WebCFace::Message::</text>
<text text-anchor="middle" x="66.5" y="-173" font-family="Helvetica,sans-Serif" font-size="10.00">MessageBase&lt; k &gt;</text>
</a>
</g>
</g>
<!-- Node3&#45;&gt;Node2 -->
<g id="edge2_Node000002_Node000003" class="edge">
<title>Node3&#45;&gt;Node2</title>
<g id="a_edge2_Node000002_Node000003"><a xlink:title=" ">
<path fill="none" stroke="orange" stroke-dasharray="5,2" d="M66.5,-155.69C66.5,-140.82 66.5,-122.05 66.5,-108.13"/>
<polygon fill="orange" stroke="orange" points="63,-155.7 66.5,-165.7 70,-155.7 63,-155.7"/>
</a>
</g>
<text text-anchor="start" x="66.5" y="-140" font-family="Helvetica,sans-Serif" font-size="10.00" fill="grey"> &lt; T::kind+MessageKind</text>
<text text-anchor="middle" x="127" y="-129" font-family="Helvetica,sans-Serif" font-size="10.00" fill="grey">::entry &gt;</text>
</g>
</g>
</svg>
