<?xml version="1.0" encoding="UTF-8" standalone="no"?>
<!DOCTYPE svg PUBLIC "-//W3C//DTD SVG 1.1//EN"
 "http://www.w3.org/Graphics/SVG/1.1/DTD/svg11.dtd">
<!-- Generated by graphviz version 2.43.0 (0)
 -->
<!-- Title: WebCFace::Common::FieldBase Pages: 1 -->
<svg width="763pt" height="249pt"
 viewBox="0.00 0.00 763.00 249.00" xmlns="http://www.w3.org/2000/svg" xmlns:xlink="http://www.w3.org/1999/xlink">
<g id="graph0" class="graph" transform="scale(1 1) rotate(0) translate(4 245)">
<title>WebCFace::Common::FieldBase</title>
<!-- Node1 -->
<g id="Node000001" class="node">
<title>Node1</title>
<g id="a_Node000001"><a xlink:title="メンバ名とデータ名を持つクラス">
<polygon fill="#999999" stroke="#666666" points="170,-151 0,-151 0,-132 170,-132 170,-151"/>
<text text-anchor="middle" x="85" y="-139" font-family="Helvetica,sans-Serif" font-size="10.00">WebCFace::Common::FieldBase</text>
</a>
</g>
</g>
<!-- Node2 -->
<g id="Node000002" class="node">
<title>Node2</title>
<g id="a_Node000002"><a xlink:href="structWebCFace_1_1Common_1_1FieldBaseComparable.html" target="_top" xlink:title=" ">
<polygon fill="white" stroke="#666666" points="376,-178.5 206,-178.5 206,-148.5 376,-148.5 376,-178.5"/>
<text text-anchor="start" x="214" y="-166.5" font-family="Helvetica,sans-Serif" font-size="10.00">WebCFace::Common::FieldBase</text>
<text text-anchor="middle" x="291" y="-155.5" font-family="Helvetica,sans-Serif" font-size="10.00">Comparable</text>
</a>
</g>
</g>
<!-- Node1&#45;&gt;Node2 -->
<g id="edge1_Node000001_Node000002" class="edge">
<title>Node1&#45;&gt;Node2</title>
<g id="a_edge1_Node000001_Node000002"><a xlink:title=" ">
<path fill="none" stroke="#63b8ff" d="M180.12,-151.65C188.66,-152.57 197.27,-153.5 205.71,-154.41"/>
<polygon fill="#63b8ff" stroke="#63b8ff" points="180.47,-148.17 170.15,-150.58 179.72,-155.13 180.47,-148.17"/>
</a>
</g>
</g>
<!-- Node3 -->
<g id="Node000003" class="node">
<title>Node3</title>
<g id="a_Node000003"><a xlink:href="structWebCFace_1_1Field.html" target="_top" xlink:title="ClientDataの参照とメンバ名とデータ名を持つクラス">
<polygon fill="white" stroke="#666666" points="338.5,-130 243.5,-130 243.5,-111 338.5,-111 338.5,-130"/>
<text text-anchor="middle" x="291" y="-118" font-family="Helvetica,sans-Serif" font-size="10.00">WebCFace::Field</text>
</a>
</g>
</g>
<!-- Node1&#45;&gt;Node3 -->
<g id="edge2_Node000001_Node000003" class="edge">
<title>Node1&#45;&gt;Node3</title>
<g id="a_edge2_Node000001_Node000003"><a xlink:title=" ">
<path fill="none" stroke="#63b8ff" d="M180.19,-131.8C202.13,-129.55 224.56,-127.24 243.38,-125.3"/>
<polygon fill="#63b8ff" stroke="#63b8ff" points="179.74,-128.33 170.15,-132.84 180.46,-135.29 179.74,-128.33"/>
</a>
</g>
</g>
<!-- Node4 -->
<g id="Node000004" class="node">
<title>Node4</title>
<g id="a_Node000004"><a xlink:href="classWebCFace_1_1AsyncFuncResult.html" target="_top" xlink:title=" ">
<polygon fill="white" stroke="#666666" points="567,-241 412,-241 412,-222 567,-222 567,-241"/>
<text text-anchor="middle" x="489.5" y="-229" font-family="Helvetica,sans-Serif" font-size="10.00">WebCFace::AsyncFuncResult</text>
</a>
</g>
</g>
<!-- Node3&#45;&gt;Node4 -->
<g id="edge3_Node000003_Node000004" class="edge">
<title>Node3&#45;&gt;Node4</title>
<g id="a_edge3_Node000003_Node000004"><a xlink:title=" ">
<path fill="none" stroke="#8b1a1a" d="M348.7,-126.04C358.51,-128.95 368.09,-133.23 376,-139.5 404.66,-162.22 383.44,-190.66 412,-213.5 416.26,-216.91 421.06,-219.69 426.12,-221.96"/>
<polygon fill="#8b1a1a" stroke="#8b1a1a" points="349.4,-122.61 338.85,-123.56 347.7,-129.39 349.4,-122.61"/>
</a>
</g>
</g>
<!-- Node5 -->
<g id="Node000005" class="node">
<title>Node5</title>
<g id="a_Node000005"><a xlink:href="classWebCFace_1_1Func.html" target="_top" xlink:title="関数1つを表すクラス">
<polygon fill="white" stroke="#666666" points="537,-204 442,-204 442,-185 537,-185 537,-204"/>
<text text-anchor="middle" x="489.5" y="-192" font-family="Helvetica,sans-Serif" font-size="10.00">WebCFace::Func</text>
</a>
</g>
</g>
<!-- Node3&#45;&gt;Node5 -->
<g id="edge4_Node000003_Node000005" class="edge">
<title>Node3&#45;&gt;Node5</title>
<g id="a_edge4_Node000003_Node000005"><a xlink:title=" ">
<path fill="none" stroke="darkgreen" d="M348.54,-128.57C358.06,-131.23 367.58,-134.78 376,-139.5 396.02,-150.72 392.03,-165.2 412,-176.5 421.02,-181.61 431.43,-185.27 441.61,-187.89"/>
<polygon fill="darkgreen" stroke="darkgreen" points="349.2,-125.13 338.65,-126.09 347.51,-131.92 349.2,-125.13"/>
</a>
</g>
</g>
<!-- Node7 -->
<g id="Node000007" class="node">
<title>Node7</title>
<g id="a_Node000007"><a xlink:href="classWebCFace_1_1Log.html" target="_top" xlink:title=" ">
<polygon fill="white" stroke="#666666" points="534,-167 445,-167 445,-148 534,-148 534,-167"/>
<text text-anchor="middle" x="489.5" y="-155" font-family="Helvetica,sans-Serif" font-size="10.00">WebCFace::Log</text>
</a>
</g>
</g>
<!-- Node3&#45;&gt;Node7 -->
<g id="edge6_Node000003_Node000007" class="edge">
<title>Node3&#45;&gt;Node7</title>
<g id="a_edge6_Node000003_Node000007"><a xlink:title=" ">
<path fill="none" stroke="darkgreen" d="M348.69,-131.17C379.34,-136.95 416.61,-143.96 444.96,-149.3"/>
<polygon fill="darkgreen" stroke="darkgreen" points="349.04,-127.68 338.57,-129.27 347.75,-134.56 349.04,-127.68"/>
</a>
</g>
</g>
<!-- Node8 -->
<g id="Node000008" class="node">
<title>Node8</title>
<g id="a_Node000008"><a xlink:href="classWebCFace_1_1Member.html" target="_top" xlink:title="他のクライアントを参照することを表すクラス">
<polygon fill="white" stroke="#666666" points="546,-130 433,-130 433,-111 546,-111 546,-130"/>
<text text-anchor="middle" x="489.5" y="-118" font-family="Helvetica,sans-Serif" font-size="10.00">WebCFace::Member</text>
</a>
</g>
</g>
<!-- Node3&#45;&gt;Node8 -->
<g id="edge7_Node000003_Node000008" class="edge">
<title>Node3&#45;&gt;Node8</title>
<g id="a_edge7_Node000003_Node000008"><a xlink:title=" ">
<path fill="none" stroke="darkgreen" d="M348.81,-120.5C375.23,-120.5 406.55,-120.5 432.83,-120.5"/>
<polygon fill="darkgreen" stroke="darkgreen" points="348.57,-117 338.57,-120.5 348.57,-124 348.57,-117"/>
</a>
</g>
</g>
<!-- Node10 -->
<g id="Node000010" class="node">
<title>Node10</title>
<g id="a_Node000010"><a xlink:href="classWebCFace_1_1Text.html" target="_top" xlink:title="文字列の送受信データを表すクラス">
<polygon fill="white" stroke="#666666" points="535.5,-93 443.5,-93 443.5,-74 535.5,-74 535.5,-93"/>
<text text-anchor="middle" x="489.5" y="-81" font-family="Helvetica,sans-Serif" font-size="10.00">WebCFace::Text</text>
</a>
</g>
</g>
<!-- Node3&#45;&gt;Node10 -->
<g id="edge9_Node000003_Node000010" class="edge">
<title>Node3&#45;&gt;Node10</title>
<g id="a_edge9_Node000003_Node000010"><a xlink:title=" ">
<path fill="none" stroke="darkgreen" d="M348.5,-109.86C378.59,-104.2 415.09,-97.32 443.28,-92.01"/>
<polygon fill="darkgreen" stroke="darkgreen" points="347.75,-106.44 338.57,-111.73 349.04,-113.32 347.75,-106.44"/>
</a>
</g>
</g>
<!-- Node11 -->
<g id="Node000011" class="node">
<title>Node11</title>
<g id="a_Node000011"><a xlink:href="classWebCFace_1_1Value.html" target="_top" xlink:title="実数値またはその配列の送受信データを表すクラス">
<polygon fill="white" stroke="#666666" points="539,-56 440,-56 440,-37 539,-37 539,-56"/>
<text text-anchor="middle" x="489.5" y="-44" font-family="Helvetica,sans-Serif" font-size="10.00">WebCFace::Value</text>
</a>
</g>
</g>
<!-- Node3&#45;&gt;Node11 -->
<g id="edge10_Node000003_Node000011" class="edge">
<title>Node3&#45;&gt;Node11</title>
<g id="a_edge10_Node000003_Node000011"><a xlink:title=" ">
<path fill="none" stroke="darkgreen" d="M318.54,-106.18C342.43,-93.76 378.78,-76.02 412,-64.5 421.28,-61.28 431.39,-58.45 441.13,-56.04"/>
<polygon fill="darkgreen" stroke="darkgreen" points="316.64,-103.23 309.42,-110.98 319.9,-109.42 316.64,-103.23"/>
</a>
</g>
</g>
<!-- Node12 -->
<g id="Node000012" class="node">
<title>Node12</title>
<g id="a_Node000012"><a xlink:href="classWebCFace_1_1View.html" target="_top" xlink:title="Viewの送受信データを表すクラス">
<polygon fill="white" stroke="#666666" points="537.5,-19 441.5,-19 441.5,0 537.5,0 537.5,-19"/>
<text text-anchor="middle" x="489.5" y="-7" font-family="Helvetica,sans-Serif" font-size="10.00">WebCFace::View</text>
</a>
</g>
</g>
<!-- Node3&#45;&gt;Node12 -->
<g id="edge11_Node000003_Node000012" class="edge">
<title>Node3&#45;&gt;Node12</title>
<g id="a_edge11_Node000003_Node000012"><a xlink:title=" ">
<path fill="none" stroke="darkgreen" d="M308.72,-103.67C330.55,-82.67 370.87,-47.13 412,-27.5 421.11,-23.15 431.35,-19.81 441.3,-17.26"/>
<polygon fill="darkgreen" stroke="darkgreen" points="305.99,-101.45 301.29,-110.95 310.88,-106.45 305.99,-101.45"/>
</a>
</g>
</g>
<!-- Node6 -->
<g id="Node000006" class="node">
<title>Node6</title>
<g id="a_Node000006"><a xlink:href="classWebCFace_1_1AnonymousFunc.html" target="_top" xlink:title=" ">
<polygon fill="white" stroke="#666666" points="755,-204 603,-204 603,-185 755,-185 755,-204"/>
<text text-anchor="middle" x="679" y="-192" font-family="Helvetica,sans-Serif" font-size="10.00">WebCFace::AnonymousFunc</text>
</a>
</g>
</g>
<!-- Node5&#45;&gt;Node6 -->
<g id="edge5_Node000005_Node000006" class="edge">
<title>Node5&#45;&gt;Node6</title>
<g id="a_edge5_Node000005_Node000006"><a xlink:title=" ">
<path fill="none" stroke="#63b8ff" d="M547.38,-194.5C564.9,-194.5 584.45,-194.5 602.98,-194.5"/>
<polygon fill="#63b8ff" stroke="#63b8ff" points="547.33,-191 537.33,-194.5 547.33,-198 547.33,-191"/>
</a>
</g>
</g>
<!-- Node9 -->
<g id="Node000009" class="node">
<title>Node9</title>
<g id="a_Node000009"><a xlink:href="classWebCFace_1_1Client.html" target="_top" xlink:title="サーバーに接続するクライアント。">
<polygon fill="white" stroke="#666666" points="729.5,-130 628.5,-130 628.5,-111 729.5,-111 729.5,-130"/>
<text text-anchor="middle" x="679" y="-118" font-family="Helvetica,sans-Serif" font-size="10.00">WebCFace::Client</text>
</a>
</g>
</g>
<!-- Node8&#45;&gt;Node9 -->
<g id="edge8_Node000008_Node000009" class="edge">
<title>Node8&#45;&gt;Node9</title>
<g id="a_edge8_Node000008_Node000009"><a xlink:title=" ">
<path fill="none" stroke="#63b8ff" d="M556.52,-120.5C580.09,-120.5 606.23,-120.5 628.21,-120.5"/>
<polygon fill="#63b8ff" stroke="#63b8ff" points="556.25,-117 546.25,-120.5 556.25,-124 556.25,-117"/>
</a>
</g>
</g>
</g>
</svg>
