<?xml version="1.0" encoding="UTF-8" standalone="no"?>
<!DOCTYPE svg PUBLIC "-//W3C//DTD SVG 1.1//EN"
 "http://www.w3.org/Graphics/SVG/1.1/DTD/svg11.dtd">
<!-- Generated by graphviz version 2.43.0 (0)
 -->
<!-- Title: ClientData Pages: 1 -->
<svg width="822pt" height="717pt"
 viewBox="0.00 0.00 822.00 716.50" xmlns="http://www.w3.org/2000/svg" xmlns:xlink="http://www.w3.org/1999/xlink">
<g id="graph0" class="graph" transform="scale(1 1) rotate(0) translate(4 712.5)">
<title>ClientData</title>
<!-- Node1 -->
<g id="Node000001" class="node">
<title>Node1</title>
<g id="a_Node000001"><a xlink:title=" ">
<polygon fill="#999999" stroke="#666666" points="814,-380 746,-380 746,-361 814,-361 814,-380"/>
<text text-anchor="middle" x="780" y="-368" font-family="Helvetica,sans-Serif" font-size="10.00">ClientData</text>
</a>
</g>
</g>
<!-- Node2 -->
<g id="Node000002" class="node">
<title>Node2</title>
<g id="a_Node000002"><a xlink:title=" ">
<polygon fill="white" stroke="#666666" points="555,-708.5 439,-708.5 439,-678.5 555,-678.5 555,-708.5"/>
<text text-anchor="start" x="447" y="-696.5" font-family="Helvetica,sans-Serif" font-size="10.00">enable_shared_from</text>
<text text-anchor="middle" x="497" y="-685.5" font-family="Helvetica,sans-Serif" font-size="10.00">_this&lt; ClientData &gt;</text>
</a>
</g>
</g>
<!-- Node2&#45;&gt;Node1 -->
<g id="edge1_Node000001_Node000002" class="edge">
<title>Node2&#45;&gt;Node1</title>
<g id="a_edge1_Node000001_Node000002"><a xlink:title=" ">
<path fill="none" stroke="#63b8ff" d="M565.13,-704.15C616.48,-708.23 685.48,-704.25 728,-663.5 770.03,-623.22 777.59,-426.56 778.79,-380.27"/>
<polygon fill="#63b8ff" stroke="#63b8ff" points="565.38,-700.66 555.1,-703.24 564.75,-707.63 565.38,-700.66"/>
</a>
</g>
</g>
<!-- Node3 -->
<g id="Node000003" class="node">
<title>Node3</title>
<g id="a_Node000003"><a xlink:href="classwebcface_1_1Common_1_1Queue.html" target="_top" xlink:title=" ">
<polygon fill="white" stroke="#666666" points="556.5,-660 437.5,-660 437.5,-641 556.5,-641 556.5,-660"/>
<text text-anchor="middle" x="497" y="-648" font-family="Helvetica,sans-Serif" font-size="10.00">Queue&lt; std::string &gt;</text>
</a>
</g>
</g>
<!-- Node3&#45;&gt;Node1 -->
<g id="edge2_Node000001_Node000003" class="edge">
<title>Node3&#45;&gt;Node1</title>
<g id="a_edge2_Node000001_Node000003"><a xlink:title=" ">
<path fill="none" stroke="#9a32cd" stroke-dasharray="5,2" d="M566.75,-655.64C618.33,-655.5 686.88,-646.12 728,-603.5 759.84,-570.5 774.76,-420.17 778.21,-380.26"/>
<polygon fill="#9a32cd" stroke="#9a32cd" points="566.7,-652.14 556.67,-655.55 566.64,-659.14 566.7,-652.14"/>
</a>
</g>
<text text-anchor="middle" x="680.5" y="-651.5" font-family="Helvetica,sans-Serif" font-size="10.00" fill="grey"> recv_queue</text>
</g>
<!-- Node4 -->
<g id="Node000004" class="node">
<title>Node4</title>
<g id="a_Node000004"><a xlink:href="classwebcface_1_1Common_1_1Queue.html" target="_top" xlink:title="排他制御をしたただのキュー">
<polygon fill="white" stroke="#666666" points="100,-636 23,-636 23,-617 100,-617 100,-636"/>
<text text-anchor="middle" x="61.5" y="-624" font-family="Helvetica,sans-Serif" font-size="10.00">Queue&lt; T &gt;</text>
</a>
</g>
</g>
<!-- Node4&#45;&gt;Node3 -->
<g id="edge3_Node000003_Node000004" class="edge">
<title>Node4&#45;&gt;Node3</title>
<g id="a_edge3_Node000003_Node000004"><a xlink:title=" ">
<path fill="none" stroke="orange" stroke-dasharray="5,2" d="M110.02,-630.33C120.23,-631.1 130.97,-631.86 141,-632.5 245.24,-639.13 366.81,-644.86 437.24,-647.98"/>
<polygon fill="orange" stroke="orange" points="110.26,-626.84 100.02,-629.56 109.72,-633.82 110.26,-626.84"/>
</a>
</g>
<text text-anchor="middle" x="251" y="-646.5" font-family="Helvetica,sans-Serif" font-size="10.00" fill="grey"> &lt; std::string &gt;</text>
</g>
<!-- Node17 -->
<g id="Node000017" class="node">
<title>Node17</title>
<g id="a_Node000017"><a xlink:href="classwebcface_1_1Common_1_1Queue.html" target="_top" xlink:title=" ">
<polygon fill="white" stroke="#666666" points="565.5,-623 428.5,-623 428.5,-582 565.5,-582 565.5,-623"/>
<text text-anchor="start" x="436.5" y="-611" font-family="Helvetica,sans-Serif" font-size="10.00">Queue&lt; std::shared</text>
<text text-anchor="start" x="436.5" y="-600" font-family="Helvetica,sans-Serif" font-size="10.00">_ptr&lt; webcface::Internal</text>
<text text-anchor="middle" x="497" y="-589" font-family="Helvetica,sans-Serif" font-size="10.00">::FuncOnSync &gt; &gt;</text>
</a>
</g>
</g>
<!-- Node4&#45;&gt;Node17 -->
<g id="edge24_Node000017_Node000004" class="edge">
<title>Node4&#45;&gt;Node17</title>
<g id="a_edge24_Node000017_Node000004"><a xlink:title=" ">
<path fill="none" stroke="orange" stroke-dasharray="5,2" d="M90.41,-612.51C105.07,-605.93 123.57,-598.82 141,-595.5 239.56,-576.74 356.28,-584.67 428.24,-592.92"/>
<polygon fill="orange" stroke="orange" points="88.52,-609.52 80.94,-616.92 91.48,-615.87 88.52,-609.52"/>
</a>
</g>
<text text-anchor="start" x="203" y="-620.5" font-family="Helvetica,sans-Serif" font-size="10.00" fill="grey"> &lt; std::shared_ptr&lt;</text>
<text text-anchor="start" x="203" y="-609.5" font-family="Helvetica,sans-Serif" font-size="10.00" fill="grey"> webcface::Internal</text>
<text text-anchor="middle" x="251" y="-598.5" font-family="Helvetica,sans-Serif" font-size="10.00" fill="grey">::FuncOnSync &gt; &gt;</text>
</g>
<!-- Node5 -->
<g id="Node000005" class="node">
<title>Node5</title>
<g id="a_Node000005"><a xlink:href="classwebcface_1_1Internal_1_1SyncDataStore2.html" target="_top" xlink:title=" ">
<polygon fill="white" stroke="#666666" points="571.5,-564 422.5,-564 422.5,-523 571.5,-523 571.5,-564"/>
<text text-anchor="start" x="430.5" y="-552" font-family="Helvetica,sans-Serif" font-size="10.00">SyncDataStore2&lt; std</text>
<text text-anchor="start" x="430.5" y="-541" font-family="Helvetica,sans-Serif" font-size="10.00">::shared_ptr&lt; webcface</text>
<text text-anchor="middle" x="497" y="-530" font-family="Helvetica,sans-Serif" font-size="10.00">::VectorOpt&lt; double &gt; &gt; &gt;</text>
</a>
</g>
</g>
<!-- Node5&#45;&gt;Node1 -->
<g id="edge4_Node000001_Node000005" class="edge">
<title>Node5&#45;&gt;Node1</title>
<g id="a_edge4_Node000001_Node000005"><a xlink:title=" ">
<path fill="none" stroke="#9a32cd" stroke-dasharray="5,2" d="M581.76,-536.91C629.46,-529.22 687.59,-512.74 728,-477.5 758.86,-450.58 772.56,-400.86 777.13,-380.05"/>
<polygon fill="#9a32cd" stroke="#9a32cd" points="581.11,-533.46 571.74,-538.41 582.15,-540.39 581.11,-533.46"/>
</a>
</g>
<text text-anchor="middle" x="680.5" y="-526.5" font-family="Helvetica,sans-Serif" font-size="10.00" fill="grey"> value_store</text>
</g>
<!-- Node6 -->
<g id="Node000006" class="node">
<title>Node6</title>
<g id="a_Node000006"><a xlink:href="classwebcface_1_1Internal_1_1SyncDataStore2.html" target="_top" xlink:title="送受信するデータを保持するクラス">
<polygon fill="white" stroke="#666666" points="119,-352.5 4,-352.5 4,-322.5 119,-322.5 119,-352.5"/>
<text text-anchor="start" x="12" y="-340.5" font-family="Helvetica,sans-Serif" font-size="10.00">SyncDataStore2&lt; T,</text>
<text text-anchor="middle" x="61.5" y="-329.5" font-family="Helvetica,sans-Serif" font-size="10.00"> ReqT &gt;</text>
</a>
</g>
</g>
<!-- Node6&#45;&gt;Node5 -->
<g id="edge5_Node000005_Node000006" class="edge">
<title>Node6&#45;&gt;Node5</title>
<g id="a_edge5_Node000005_Node000006"><a xlink:title=" ">
<path fill="none" stroke="orange" stroke-dasharray="5,2" d="M65.5,-362.61C71.73,-402.46 90.03,-479.34 141,-515.5 163.34,-531.35 324.93,-538.68 422.23,-541.68"/>
<polygon fill="orange" stroke="orange" points="68.96,-362.05 64.08,-352.65 62.03,-363.04 68.96,-362.05"/>
</a>
</g>
<text text-anchor="start" x="199" y="-563.5" font-family="Helvetica,sans-Serif" font-size="10.00" fill="grey"> &lt; std::shared_ptr&lt;</text>
<text text-anchor="start" x="199" y="-552.5" font-family="Helvetica,sans-Serif" font-size="10.00" fill="grey"> webcface::VectorOpt</text>
<text text-anchor="middle" x="251" y="-541.5" font-family="Helvetica,sans-Serif" font-size="10.00" fill="grey">&lt; double &gt; &gt; &gt;</text>
</g>
<!-- Node7 -->
<g id="Node000007" class="node">
<title>Node7</title>
<g id="a_Node000007"><a xlink:href="classwebcface_1_1Internal_1_1SyncDataStore2.html" target="_top" xlink:title=" ">
<polygon fill="white" stroke="#666666" points="575.5,-504.5 418.5,-504.5 418.5,-474.5 575.5,-474.5 575.5,-504.5"/>
<text text-anchor="start" x="426.5" y="-492.5" font-family="Helvetica,sans-Serif" font-size="10.00">SyncDataStore2&lt; std</text>
<text text-anchor="middle" x="497" y="-481.5" font-family="Helvetica,sans-Serif" font-size="10.00">::shared_ptr&lt; std::string &gt; &gt;</text>
</a>
</g>
</g>
<!-- Node6&#45;&gt;Node7 -->
<g id="edge7_Node000007_Node000006" class="edge">
<title>Node6&#45;&gt;Node7</title>
<g id="a_edge7_Node000007_Node000006"><a xlink:title=" ">
<path fill="none" stroke="orange" stroke-dasharray="5,2" d="M70.64,-362.31C81.61,-391.35 104.12,-438.29 141,-460.5 186.09,-487.66 328.22,-491.52 418.37,-491.06"/>
<polygon fill="orange" stroke="orange" points="73.92,-361.08 67.24,-352.86 67.33,-363.45 73.92,-361.08"/>
</a>
</g>
<text text-anchor="start" x="203" y="-504.5" font-family="Helvetica,sans-Serif" font-size="10.00" fill="grey"> &lt; std::shared_ptr&lt;</text>
<text text-anchor="middle" x="251" y="-493.5" font-family="Helvetica,sans-Serif" font-size="10.00" fill="grey"> std::string &gt; &gt;</text>
</g>
<!-- Node8 -->
<g id="Node000008" class="node">
<title>Node8</title>
<g id="a_Node000008"><a xlink:href="classwebcface_1_1Internal_1_1SyncDataStore2.html" target="_top" xlink:title=" ">
<polygon fill="white" stroke="#666666" points="563,-456 431,-456 431,-415 563,-415 563,-456"/>
<text text-anchor="start" x="439" y="-444" font-family="Helvetica,sans-Serif" font-size="10.00">SyncDataStore2&lt; std</text>
<text text-anchor="start" x="439" y="-433" font-family="Helvetica,sans-Serif" font-size="10.00">::shared_ptr&lt; webcface</text>
<text text-anchor="middle" x="497" y="-422" font-family="Helvetica,sans-Serif" font-size="10.00">::FuncInfo &gt; &gt;</text>
</a>
</g>
</g>
<!-- Node6&#45;&gt;Node8 -->
<g id="edge9_Node000008_Node000006" class="edge">
<title>Node6&#45;&gt;Node8</title>
<g id="a_edge9_Node000008_Node000006"><a xlink:title=" ">
<path fill="none" stroke="orange" stroke-dasharray="5,2" d="M84.67,-359.79C99.35,-373.11 119.76,-389.03 141,-397.5 236.71,-435.69 357.83,-440.3 430.99,-438.84"/>
<polygon fill="orange" stroke="orange" points="86.83,-357.02 77.14,-352.73 82.04,-362.12 86.83,-357.02"/>
</a>
</g>
<text text-anchor="start" x="191" y="-451.5" font-family="Helvetica,sans-Serif" font-size="10.00" fill="grey"> &lt; std::shared_ptr&lt;</text>
<text text-anchor="middle" x="251" y="-440.5" font-family="Helvetica,sans-Serif" font-size="10.00" fill="grey"> webcface::FuncInfo &gt; &gt;</text>
</g>
<!-- Node9 -->
<g id="Node000009" class="node">
<title>Node9</title>
<g id="a_Node000009"><a xlink:href="classwebcface_1_1Internal_1_1SyncDataStore2.html" target="_top" xlink:title=" ">
<polygon fill="white" stroke="#666666" points="602.5,-396.5 391.5,-396.5 391.5,-344.5 602.5,-344.5 602.5,-396.5"/>
<text text-anchor="start" x="399.5" y="-384.5" font-family="Helvetica,sans-Serif" font-size="10.00">SyncDataStore2&lt; std</text>
<text text-anchor="start" x="399.5" y="-373.5" font-family="Helvetica,sans-Serif" font-size="10.00">::shared_ptr&lt; std::vector</text>
<text text-anchor="start" x="399.5" y="-362.5" font-family="Helvetica,sans-Serif" font-size="10.00">&lt; webcface::Common::ViewComponent</text>
<text text-anchor="middle" x="497" y="-351.5" font-family="Helvetica,sans-Serif" font-size="10.00">Base &gt; &gt; &gt;</text>
</a>
</g>
</g>
<!-- Node6&#45;&gt;Node9 -->
<g id="edge11_Node000009_Node000006" class="edge">
<title>Node6&#45;&gt;Node9</title>
<g id="a_edge11_Node000009_Node000006"><a xlink:title=" ">
<path fill="none" stroke="orange" stroke-dasharray="5,2" d="M129.12,-343.51C133.14,-343.85 137.12,-344.19 141,-344.5 225.08,-351.33 320.42,-358.27 391.12,-363.26"/>
<polygon fill="orange" stroke="orange" points="129.35,-340.02 119.09,-342.65 128.75,-347 129.35,-340.02"/>
</a>
</g>
<text text-anchor="start" x="153.5" y="-385.5" font-family="Helvetica,sans-Serif" font-size="10.00" fill="grey"> &lt; std::shared_ptr&lt;</text>
<text text-anchor="start" x="153.5" y="-374.5" font-family="Helvetica,sans-Serif" font-size="10.00" fill="grey"> std::vector&lt; webcface</text>
<text text-anchor="middle" x="251" y="-363.5" font-family="Helvetica,sans-Serif" font-size="10.00" fill="grey">::Common::ViewComponentBase &gt; &gt; &gt;</text>
</g>
<!-- Node10 -->
<g id="Node000010" class="node">
<title>Node10</title>
<g id="a_Node000010"><a xlink:href="classwebcface_1_1Internal_1_1SyncDataStore2.html" target="_top" xlink:title=" ">
<polygon fill="white" stroke="#666666" points="587,-326 407,-326 407,-285 587,-285 587,-326"/>
<text text-anchor="start" x="415" y="-314" font-family="Helvetica,sans-Serif" font-size="10.00">SyncDataStore2&lt; webcface</text>
<text text-anchor="start" x="415" y="-303" font-family="Helvetica,sans-Serif" font-size="10.00">::Common::ImageBase, webcface</text>
<text text-anchor="middle" x="497" y="-292" font-family="Helvetica,sans-Serif" font-size="10.00">::Common::ImageReq &gt;</text>
</a>
</g>
</g>
<!-- Node6&#45;&gt;Node10 -->
<g id="edge13_Node000010_Node000006" class="edge">
<title>Node6&#45;&gt;Node10</title>
<g id="a_edge13_Node000010_Node000006"><a xlink:title=" ">
<path fill="none" stroke="orange" stroke-dasharray="5,2" d="M109.76,-319.3C119.92,-316.11 130.7,-313.25 141,-311.5 230.48,-296.29 334.48,-296.59 406.68,-299.59"/>
<polygon fill="orange" stroke="orange" points="108.64,-315.98 100.24,-322.43 110.83,-322.63 108.64,-315.98"/>
</a>
</g>
<text text-anchor="start" x="192" y="-336.5" font-family="Helvetica,sans-Serif" font-size="10.00" fill="grey"> &lt; webcface::Common</text>
<text text-anchor="start" x="192" y="-325.5" font-family="Helvetica,sans-Serif" font-size="10.00" fill="grey">::ImageBase, webcface</text>
<text text-anchor="middle" x="251" y="-314.5" font-family="Helvetica,sans-Serif" font-size="10.00" fill="grey">::Common::ImageReq &gt;</text>
</g>
<!-- Node11 -->
<g id="Node000011" class="node">
<title>Node11</title>
<g id="a_Node000011"><a xlink:href="classwebcface_1_1Internal_1_1SyncDataStore2.html" target="_top" xlink:title=" ">
<polygon fill="white" stroke="#666666" points="566,-267 428,-267 428,-226 566,-226 566,-267"/>
<text text-anchor="start" x="436" y="-255" font-family="Helvetica,sans-Serif" font-size="10.00">SyncDataStore2&lt; std</text>
<text text-anchor="start" x="436" y="-244" font-family="Helvetica,sans-Serif" font-size="10.00">::vector&lt; webcface::</text>
<text text-anchor="middle" x="497" y="-233" font-family="Helvetica,sans-Serif" font-size="10.00">Common::RobotLink &gt; &gt;</text>
</a>
</g>
</g>
<!-- Node6&#45;&gt;Node11 -->
<g id="edge15_Node000011_Node000006" class="edge">
<title>Node6&#45;&gt;Node11</title>
<g id="a_edge15_Node000011_Node000006"><a xlink:title=" ">
<path fill="none" stroke="orange" stroke-dasharray="5,2" d="M82.12,-314.78C96.69,-299.62 117.95,-280.83 141,-271.5 234.92,-233.47 354.2,-233.91 427.8,-239.13"/>
<polygon fill="orange" stroke="orange" points="79.38,-312.59 75.14,-322.3 84.51,-317.35 79.38,-312.59"/>
</a>
</g>
<text text-anchor="start" x="187" y="-285.5" font-family="Helvetica,sans-Serif" font-size="10.00" fill="grey"> &lt; std::vector&lt; webcface</text>
<text text-anchor="middle" x="251" y="-274.5" font-family="Helvetica,sans-Serif" font-size="10.00" fill="grey">::Common::RobotLink &gt; &gt;</text>
</g>
<!-- Node12 -->
<g id="Node000012" class="node">
<title>Node12</title>
<g id="a_Node000012"><a xlink:href="classwebcface_1_1Internal_1_1SyncDataStore2.html" target="_top" xlink:title=" ">
<polygon fill="white" stroke="#666666" points="615,-207.5 379,-207.5 379,-155.5 615,-155.5 615,-207.5"/>
<text text-anchor="start" x="387" y="-195.5" font-family="Helvetica,sans-Serif" font-size="10.00">SyncDataStore2&lt; std</text>
<text text-anchor="start" x="387" y="-184.5" font-family="Helvetica,sans-Serif" font-size="10.00">::shared_ptr&lt; std::vector</text>
<text text-anchor="start" x="387" y="-173.5" font-family="Helvetica,sans-Serif" font-size="10.00">&lt; webcface::Common::Canvas3DComponent</text>
<text text-anchor="middle" x="497" y="-162.5" font-family="Helvetica,sans-Serif" font-size="10.00">Base &gt; &gt; &gt;</text>
</a>
</g>
</g>
<!-- Node6&#45;&gt;Node12 -->
<g id="edge17_Node000012_Node000006" class="edge">
<title>Node6&#45;&gt;Node12</title>
<g id="a_edge17_Node000012_Node000006"><a xlink:title=" ">
<path fill="none" stroke="orange" stroke-dasharray="5,2" d="M68.76,-312.42C78.31,-280.03 99.92,-224.81 141,-199.5 179.62,-175.71 290.94,-173.31 378.73,-175.57"/>
<polygon fill="orange" stroke="orange" points="65.38,-311.5 66.07,-322.07 72.13,-313.38 65.38,-311.5"/>
</a>
</g>
<text text-anchor="start" x="141" y="-224.5" font-family="Helvetica,sans-Serif" font-size="10.00" fill="grey"> &lt; std::shared_ptr&lt;</text>
<text text-anchor="start" x="141" y="-213.5" font-family="Helvetica,sans-Serif" font-size="10.00" fill="grey"> std::vector&lt; webcface</text>
<text text-anchor="middle" x="251" y="-202.5" font-family="Helvetica,sans-Serif" font-size="10.00" fill="grey">::Common::Canvas3DComponentBase &gt; &gt; &gt;</text>
</g>
<!-- Node13 -->
<g id="Node000013" class="node">
<title>Node13</title>
<g id="a_Node000013"><a xlink:href="classwebcface_1_1Internal_1_1SyncDataStore2.html" target="_top" xlink:title=" ">
<polygon fill="white" stroke="#666666" points="581,-137 413,-137 413,-96 581,-96 581,-137"/>
<text text-anchor="start" x="421" y="-125" font-family="Helvetica,sans-Serif" font-size="10.00">SyncDataStore2&lt; std</text>
<text text-anchor="start" x="421" y="-114" font-family="Helvetica,sans-Serif" font-size="10.00">::shared_ptr&lt; webcface</text>
<text text-anchor="middle" x="497" y="-103" font-family="Helvetica,sans-Serif" font-size="10.00">::Common::Canvas2DData &gt; &gt;</text>
</a>
</g>
</g>
<!-- Node6&#45;&gt;Node13 -->
<g id="edge19_Node000013_Node000006" class="edge">
<title>Node6&#45;&gt;Node13</title>
<g id="a_edge19_Node000013_Node000006"><a xlink:title=" ">
<path fill="none" stroke="orange" stroke-dasharray="5,2" d="M64.06,-312.39C68.28,-268.61 83.81,-179.01 141,-137.5 219.44,-80.56 335.19,-85.56 412.98,-97.94"/>
<polygon fill="orange" stroke="orange" points="60.57,-312.22 63.22,-322.48 67.54,-312.81 60.57,-312.22"/>
</a>
</g>
<text text-anchor="start" x="177" y="-162.5" font-family="Helvetica,sans-Serif" font-size="10.00" fill="grey"> &lt; std::shared_ptr&lt;</text>
<text text-anchor="start" x="177" y="-151.5" font-family="Helvetica,sans-Serif" font-size="10.00" fill="grey"> webcface::Common::Canvas2</text>
<text text-anchor="middle" x="251" y="-140.5" font-family="Helvetica,sans-Serif" font-size="10.00" fill="grey">DData &gt; &gt;</text>
</g>
<!-- Node7&#45;&gt;Node1 -->
<g id="edge6_Node000001_Node000007" class="edge">
<title>Node7&#45;&gt;Node1</title>
<g id="a_edge6_Node000001_Node000007"><a xlink:title=" ">
<path fill="none" stroke="#9a32cd" stroke-dasharray="5,2" d="M585.36,-476.66C630.65,-467 685.28,-450.45 728,-422.5 745.99,-410.73 762.58,-391.66 771.69,-380.18"/>
<polygon fill="#9a32cd" stroke="#9a32cd" points="584.63,-473.23 575.54,-478.67 586.04,-480.09 584.63,-473.23"/>
</a>
</g>
<text text-anchor="middle" x="680.5" y="-465.5" font-family="Helvetica,sans-Serif" font-size="10.00" fill="grey"> text_store</text>
</g>
<!-- Node8&#45;&gt;Node1 -->
<g id="edge8_Node000001_Node000008" class="edge">
<title>Node8&#45;&gt;Node1</title>
<g id="a_edge8_Node000001_Node000008"><a xlink:title=" ">
<path fill="none" stroke="#9a32cd" stroke-dasharray="5,2" d="M573.22,-420.57C618.3,-411.27 676.65,-398.61 728,-385.5 734.44,-383.86 741.29,-381.95 747.81,-380.06"/>
<polygon fill="#9a32cd" stroke="#9a32cd" points="572.32,-417.18 563.23,-422.62 573.73,-424.04 572.32,-417.18"/>
</a>
</g>
<text text-anchor="middle" x="680.5" y="-410.5" font-family="Helvetica,sans-Serif" font-size="10.00" fill="grey"> func_store</text>
</g>
<!-- Node9&#45;&gt;Node1 -->
<g id="edge10_Node000001_Node000009" class="edge">
<title>Node9&#45;&gt;Node1</title>
<g id="a_edge10_Node000001_Node000009"><a xlink:title=" ">
<path fill="none" stroke="#9a32cd" stroke-dasharray="5,2" d="M612.82,-370.5C660.87,-370.5 713.08,-370.5 745.9,-370.5"/>
<polygon fill="#9a32cd" stroke="#9a32cd" points="612.63,-367 602.63,-370.5 612.63,-374 612.63,-367"/>
</a>
</g>
<text text-anchor="middle" x="680.5" y="-373.5" font-family="Helvetica,sans-Serif" font-size="10.00" fill="grey"> view_store</text>
</g>
<!-- Node10&#45;&gt;Node1 -->
<g id="edge12_Node000001_Node000010" class="edge">
<title>Node10&#45;&gt;Node1</title>
<g id="a_edge12_Node000001_Node000010"><a xlink:title=" ">
<path fill="none" stroke="#9a32cd" stroke-dasharray="5,2" d="M597.02,-325.4C637.75,-334 685.3,-344.59 728,-355.5 734.44,-357.14 741.29,-359.05 747.81,-360.94"/>
<polygon fill="#9a32cd" stroke="#9a32cd" points="597.6,-321.94 587.09,-323.31 596.16,-328.79 597.6,-321.94"/>
</a>
</g>
<text text-anchor="middle" x="680.5" y="-358.5" font-family="Helvetica,sans-Serif" font-size="10.00" fill="grey"> image_store</text>
</g>
<!-- Node11&#45;&gt;Node1 -->
<g id="edge14_Node000001_Node000011" class="edge">
<title>Node11&#45;&gt;Node1</title>
<g id="a_edge14_Node000001_Node000011"><a xlink:title=" ">
<path fill="none" stroke="#9a32cd" stroke-dasharray="5,2" d="M575.94,-259.37C622.79,-269.73 682.04,-287.63 728,-317.5 746.42,-329.47 763.11,-349.28 772.08,-360.99"/>
<polygon fill="#9a32cd" stroke="#9a32cd" points="576.66,-255.95 566.14,-257.28 575.19,-262.79 576.66,-255.95"/>
</a>
</g>
<text text-anchor="middle" x="680.5" y="-320.5" font-family="Helvetica,sans-Serif" font-size="10.00" fill="grey"> robot_model_store</text>
</g>
<!-- Node12&#45;&gt;Node1 -->
<g id="edge16_Node000001_Node000012" class="edge">
<title>Node12&#45;&gt;Node1</title>
<g id="a_edge16_Node000001_Node000012"><a xlink:title=" ">
<path fill="none" stroke="#9a32cd" stroke-dasharray="5,2" d="M624.94,-204.52C661.68,-216.27 699.5,-233.95 728,-260.5 758.65,-289.06 772.46,-339.69 777.1,-360.82"/>
<polygon fill="#9a32cd" stroke="#9a32cd" points="625.72,-201.1 615.13,-201.51 623.66,-207.79 625.72,-201.1"/>
</a>
</g>
<text text-anchor="middle" x="680.5" y="-263.5" font-family="Helvetica,sans-Serif" font-size="10.00" fill="grey"> canvas3d_store</text>
</g>
<!-- Node13&#45;&gt;Node1 -->
<g id="edge18_Node000001_Node000013" class="edge">
<title>Node13&#45;&gt;Node1</title>
<g id="a_edge18_Node000001_Node000013"><a xlink:title=" ">
<path fill="none" stroke="#9a32cd" stroke-dasharray="5,2" d="M591,-125.8C638.45,-135.35 693.32,-154.64 728,-193.5 772.93,-243.85 778.44,-331.44 778.99,-360.68"/>
<polygon fill="#9a32cd" stroke="#9a32cd" points="591.48,-122.33 581,-123.91 590.18,-129.21 591.48,-122.33"/>
</a>
</g>
<text text-anchor="middle" x="680.5" y="-196.5" font-family="Helvetica,sans-Serif" font-size="10.00" fill="grey"> canvas2d_store</text>
</g>
<!-- Node14 -->
<g id="Node000014" class="node">
<title>Node14</title>
<g id="a_Node000014"><a xlink:href="classwebcface_1_1Internal_1_1SyncDataStore1.html" target="_top" xlink:title=" ">
<polygon fill="white" stroke="#666666" points="561,-78 433,-78 433,-37 561,-37 561,-78"/>
<text text-anchor="start" x="441" y="-66" font-family="Helvetica,sans-Serif" font-size="10.00">SyncDataStore1&lt; std</text>
<text text-anchor="start" x="441" y="-55" font-family="Helvetica,sans-Serif" font-size="10.00">::chrono::system_clock</text>
<text text-anchor="middle" x="497" y="-44" font-family="Helvetica,sans-Serif" font-size="10.00">::time_point &gt;</text>
</a>
</g>
</g>
<!-- Node14&#45;&gt;Node1 -->
<g id="edge20_Node000001_Node000014" class="edge">
<title>Node14&#45;&gt;Node1</title>
<g id="a_edge20_Node000001_Node000014"><a xlink:title=" ">
<path fill="none" stroke="#9a32cd" stroke-dasharray="5,2" d="M571.07,-58.46C622.29,-63.2 688.42,-78.18 728,-121.5 761.19,-157.82 775.25,-319.81 778.33,-360.96"/>
<polygon fill="#9a32cd" stroke="#9a32cd" points="571.28,-54.97 561.03,-57.65 570.72,-61.95 571.28,-54.97"/>
</a>
</g>
<text text-anchor="middle" x="680.5" y="-124.5" font-family="Helvetica,sans-Serif" font-size="10.00" fill="grey"> sync_time_store</text>
</g>
<!-- Node15 -->
<g id="Node000015" class="node">
<title>Node15</title>
<g id="a_Node000015"><a xlink:href="classwebcface_1_1Internal_1_1SyncDataStore1.html" target="_top" xlink:title=" ">
<polygon fill="white" stroke="#666666" points="123,-67 0,-67 0,-48 123,-48 123,-67"/>
<text text-anchor="middle" x="61.5" y="-55" font-family="Helvetica,sans-Serif" font-size="10.00">SyncDataStore1&lt; T &gt;</text>
</a>
</g>
</g>
<!-- Node15&#45;&gt;Node14 -->
<g id="edge21_Node000014_Node000015" class="edge">
<title>Node15&#45;&gt;Node14</title>
<g id="a_edge21_Node000014_Node000015"><a xlink:title=" ">
<path fill="none" stroke="orange" stroke-dasharray="5,2" d="M133.35,-57.5C216.52,-57.5 353.19,-57.5 432.86,-57.5"/>
<polygon fill="orange" stroke="orange" points="133.23,-54 123.23,-57.5 133.23,-61 133.23,-54"/>
</a>
</g>
<text text-anchor="start" x="195.5" y="-71.5" font-family="Helvetica,sans-Serif" font-size="10.00" fill="grey"> &lt; std::chrono::system</text>
<text text-anchor="middle" x="251" y="-60.5" font-family="Helvetica,sans-Serif" font-size="10.00" fill="grey">_clock::time_point &gt;</text>
</g>
<!-- Node16 -->
<g id="Node000016" class="node">
<title>Node16</title>
<g id="a_Node000016"><a xlink:href="classwebcface_1_1Internal_1_1FuncResultStore.html" target="_top" xlink:title="AsyncFuncResultのリストを保持する。">
<polygon fill="white" stroke="#666666" points="544.5,-19 449.5,-19 449.5,0 544.5,0 544.5,-19"/>
<text text-anchor="middle" x="497" y="-7" font-family="Helvetica,sans-Serif" font-size="10.00">FuncResultStore</text>
</a>
</g>
</g>
<!-- Node16&#45;&gt;Node1 -->
<g id="edge22_Node000001_Node000016" class="edge">
<title>Node16&#45;&gt;Node1</title>
<g id="a_edge22_Node000001_Node000016"><a xlink:title=" ">
<path fill="none" stroke="#9a32cd" stroke-dasharray="5,2" d="M555.06,-3.48C607.85,-1.36 684.54,-7.67 728,-54.5 770.81,-100.63 777.79,-312.5 778.83,-360.72"/>
<polygon fill="#9a32cd" stroke="#9a32cd" points="554.64,0 544.84,-4.01 555,-6.99 554.64,0"/>
</a>
</g>
<text text-anchor="middle" x="680.5" y="-57.5" font-family="Helvetica,sans-Serif" font-size="10.00" fill="grey"> func_result_store</text>
</g>
<!-- Node17&#45;&gt;Node1 -->
<g id="edge23_Node000001_Node000017" class="edge">
<title>Node17&#45;&gt;Node1</title>
<g id="a_edge23_Node000001_Node000017"><a xlink:title=" ">
<path fill="none" stroke="#9a32cd" stroke-dasharray="5,2" d="M575.64,-599.89C625.5,-594.12 688.15,-578.58 728,-538.5 773.35,-492.89 778.59,-408.34 779.03,-380.02"/>
<polygon fill="#9a32cd" stroke="#9a32cd" points="575.11,-596.43 565.53,-600.95 575.84,-603.39 575.11,-596.43"/>
</a>
</g>
<text text-anchor="middle" x="680.5" y="-591.5" font-family="Helvetica,sans-Serif" font-size="10.00" fill="grey"> func_sync_queue</text>
</g>
</g>
</svg>
