<?xml version="1.0" encoding="UTF-8" standalone="no"?>
<!DOCTYPE svg PUBLIC "-//W3C//DTD SVG 1.1//EN"
 "http://www.w3.org/Graphics/SVG/1.1/DTD/svg11.dtd">
<!-- Generated by graphviz version 2.43.0 (0)
 -->
<!-- Title: benchmarks/sync&#45;value.cc Pages: 1 -->
<svg width="1957pt" height="302pt"
 viewBox="0.00 0.00 1957.00 302.00" xmlns="http://www.w3.org/2000/svg" xmlns:xlink="http://www.w3.org/1999/xlink">
<g id="graph0" class="graph" transform="scale(1 1) rotate(0) translate(4 298)">
<title>benchmarks/sync&#45;value.cc</title>
<!-- Node1 -->
<g id="Node000001" class="node">
<title>Node1</title>
<g id="a_Node000001"><a xlink:title=" ">
<polygon fill="#999999" stroke="#666666" points="1025,-294 879,-294 879,-275 1025,-275 1025,-294"/>
<text text-anchor="middle" x="952" y="-282" font-family="Helvetica,sans-Serif" font-size="10.00">benchmarks/sync&#45;value.cc</text>
</a>
</g>
</g>
<!-- Node2 -->
<g id="Node000002" class="node">
<title>Node2</title>
<g id="a_Node000002"><a xlink:title=" ">
<polygon fill="#e0e0e0" stroke="#999999" points="138,-239 0,-239 0,-220 138,-220 138,-239"/>
<text text-anchor="middle" x="69" y="-227" font-family="Helvetica,sans-Serif" font-size="10.00">benchmark/benchmark.h</text>
</a>
</g>
</g>
<!-- Node1&#45;&gt;Node2 -->
<g id="edge1_Node000001_Node000002" class="edge">
<title>Node1&#45;&gt;Node2</title>
<g id="a_edge1_Node000001_Node000002"><a xlink:title=" ">
<path fill="none" stroke="#63b8ff" d="M878.85,-280.57C738.01,-274.68 419.46,-260.12 152,-239 150.88,-238.91 149.75,-238.82 148.62,-238.73"/>
<polygon fill="#63b8ff" stroke="#63b8ff" points="148.53,-235.21 138.27,-237.84 147.93,-242.18 148.53,-235.21"/>
</a>
</g>
</g>
<!-- Node3 -->
<g id="Node000003" class="node">
<title>Node3</title>
<g id="a_Node000003"><a xlink:href="client_8h.html" target="_top" xlink:title=" ">
<polygon fill="white" stroke="#666666" points="690,-239 588,-239 588,-220 690,-220 690,-239"/>
<text text-anchor="middle" x="639" y="-227" font-family="Helvetica,sans-Serif" font-size="10.00">webcface/client.h</text>
</a>
</g>
</g>
<!-- Node1&#45;&gt;Node3 -->
<g id="edge2_Node000001_Node000003" class="edge">
<title>Node1&#45;&gt;Node3</title>
<g id="a_edge2_Node000001_Node000003"><a xlink:title=" ">
<path fill="none" stroke="#63b8ff" d="M901.71,-274.98C846.58,-265.65 758.15,-250.67 699.32,-240.71"/>
<polygon fill="#63b8ff" stroke="#63b8ff" points="699.87,-237.26 689.42,-239.04 698.7,-244.16 699.87,-237.26"/>
</a>
</g>
</g>
<!-- Node4 -->
<g id="Node000004" class="node">
<title>Node4</title>
<g id="a_Node000004"><a xlink:title=" ">
<polygon fill="#e0e0e0" stroke="#999999" points="283,-19 239,-19 239,0 283,0 283,-19"/>
<text text-anchor="middle" x="261" y="-7" font-family="Helvetica,sans-Serif" font-size="10.00">string</text>
</a>
</g>
</g>
<!-- Node1&#45;&gt;Node4 -->
<g id="edge55_Node000001_Node000004" class="edge">
<title>Node1&#45;&gt;Node4</title>
<g id="a_edge55_Node000001_Node000004"><a xlink:title=" ">
<path fill="none" stroke="#63b8ff" d="M878.76,-281.06C683.64,-273.59 166,-247.04 166,-175.5 166,-175.5 166,-175.5 166,-118.5 166,-75.91 208.16,-42.14 236.31,-24.33"/>
<polygon fill="#63b8ff" stroke="#63b8ff" points="238.16,-27.31 244.88,-19.12 234.52,-21.32 238.16,-27.31"/>
</a>
</g>
</g>
<!-- Node6 -->
<g id="Node000006" class="node">
<title>Node6</title>
<g id="a_Node000006"><a xlink:title=" ">
<polygon fill="#e0e0e0" stroke="#999999" points="906.5,-74 859.5,-74 859.5,-55 906.5,-55 906.5,-74"/>
<text text-anchor="middle" x="883" y="-62" font-family="Helvetica,sans-Serif" font-size="10.00">vector</text>
</a>
</g>
</g>
<!-- Node1&#45;&gt;Node6 -->
<g id="edge56_Node000001_Node000006" class="edge">
<title>Node1&#45;&gt;Node6</title>
<g id="a_edge56_Node000001_Node000006"><a xlink:title=" ">
<path fill="none" stroke="#63b8ff" d="M960.18,-274.76C984.33,-247.9 1051.22,-165.02 1012,-110 1009.09,-105.92 953.74,-87.81 916.5,-75.99"/>
<polygon fill="#63b8ff" stroke="#63b8ff" points="917.12,-72.52 906.53,-72.84 915.01,-79.19 917.12,-72.52"/>
</a>
</g>
</g>
<!-- Node17 -->
<g id="Node000017" class="node">
<title>Node17</title>
<g id="a_Node000017"><a xlink:href="client_2include_2webcface_2value_8h.html" target="_top" xlink:title=" ">
<polygon fill="white" stroke="#666666" points="1003,-184 901,-184 901,-165 1003,-165 1003,-184"/>
<text text-anchor="middle" x="952" y="-172" font-family="Helvetica,sans-Serif" font-size="10.00">webcface/value.h</text>
</a>
</g>
</g>
<!-- Node1&#45;&gt;Node17 -->
<g id="edge28_Node000001_Node000017" class="edge">
<title>Node1&#45;&gt;Node17</title>
<g id="a_edge28_Node000001_Node000017"><a xlink:title=" ">
<path fill="none" stroke="#63b8ff" d="M952,-274.66C952,-257.17 952,-217.8 952,-194.27"/>
<polygon fill="#63b8ff" stroke="#63b8ff" points="955.5,-194.16 952,-184.16 948.5,-194.16 955.5,-194.16"/>
</a>
</g>
</g>
<!-- Node24 -->
<g id="Node000024" class="node">
<title>Node24</title>
<g id="a_Node000024"><a xlink:href="server_2server_8h.html" target="_top" xlink:title=" ">
<polygon fill="white" stroke="#666666" points="1546.5,-129 1407.5,-129 1407.5,-110 1546.5,-110 1546.5,-129"/>
<text text-anchor="middle" x="1477" y="-117" font-family="Helvetica,sans-Serif" font-size="10.00">webcface/server/server.h</text>
</a>
</g>
</g>
<!-- Node1&#45;&gt;Node24 -->
<g id="edge45_Node000001_Node000024" class="edge">
<title>Node1&#45;&gt;Node24</title>
<g id="a_edge45_Node000001_Node000024"><a xlink:title=" ">
<path fill="none" stroke="#63b8ff" d="M969.97,-274.88C1004.13,-258.53 1076.1,-224.26 1088,-220 1204.68,-178.25 1346.89,-146.5 1422.91,-131"/>
<polygon fill="#63b8ff" stroke="#63b8ff" points="1423.63,-134.42 1432.74,-129.01 1422.24,-127.56 1423.63,-134.42"/>
</a>
</g>
</g>
<!-- Node31 -->
<g id="Node000031" class="node">
<title>Node31</title>
<g id="a_Node000031"><a xlink:title=" ">
<polygon fill="#e0e0e0" stroke="#999999" points="1157,-239 1097,-239 1097,-220 1157,-220 1157,-239"/>
<text text-anchor="middle" x="1127" y="-227" font-family="Helvetica,sans-Serif" font-size="10.00">iostream</text>
</a>
</g>
</g>
<!-- Node1&#45;&gt;Node31 -->
<g id="edge57_Node000001_Node000031" class="edge">
<title>Node1&#45;&gt;Node31</title>
<g id="a_edge57_Node000001_Node000031"><a xlink:title=" ">
<path fill="none" stroke="#63b8ff" d="M980.12,-274.98C1009.62,-266.05 1056.19,-251.94 1088.97,-242.02"/>
<polygon fill="#63b8ff" stroke="#63b8ff" points="1090.11,-245.33 1098.66,-239.08 1088.08,-238.63 1090.11,-245.33"/>
</a>
</g>
</g>
<!-- Node3&#45;&gt;Node4 -->
<g id="edge3_Node000003_Node000004" class="edge">
<title>Node3&#45;&gt;Node4</title>
<g id="a_edge3_Node000003_Node000004"><a xlink:title=" ">
<path fill="none" stroke="#63b8ff" d="M587.82,-220.68C550.94,-213.9 500.56,-202.25 459,-184 377.96,-148.41 351.77,-140.18 293,-74 281.23,-60.74 272.59,-42.38 267.28,-28.81"/>
<polygon fill="#63b8ff" stroke="#63b8ff" points="270.46,-27.32 263.74,-19.14 263.89,-29.73 270.46,-27.32"/>
</a>
</g>
</g>
<!-- Node5 -->
<g id="Node000005" class="node">
<title>Node5</title>
<g id="a_Node000005"><a xlink:title=" ">
<polygon fill="#e0e0e0" stroke="#999999" points="398,-19 340,-19 340,0 398,0 398,-19"/>
<text text-anchor="middle" x="369" y="-7" font-family="Helvetica,sans-Serif" font-size="10.00">memory</text>
</a>
</g>
</g>
<!-- Node3&#45;&gt;Node5 -->
<g id="edge4_Node000003_Node000005" class="edge">
<title>Node3&#45;&gt;Node5</title>
<g id="a_edge4_Node000003_Node000005"><a xlink:title=" ">
<path fill="none" stroke="#63b8ff" d="M600.22,-219.99C537.28,-203.86 414.72,-162.23 363,-74 355.05,-60.43 357.76,-42.37 361.76,-28.98"/>
<polygon fill="#63b8ff" stroke="#63b8ff" points="365.11,-30.01 365.06,-19.42 358.49,-27.73 365.11,-30.01"/>
</a>
</g>
</g>
<!-- Node3&#45;&gt;Node6 -->
<g id="edge5_Node000003_Node000006" class="edge">
<title>Node3&#45;&gt;Node6</title>
<g id="a_edge5_Node000003_Node000006"><a xlink:title=" ">
<path fill="none" stroke="#63b8ff" d="M647.28,-219.7C667.65,-198.47 722.47,-143.7 777,-110 799.87,-95.87 828.01,-84.29 849.55,-76.49"/>
<polygon fill="#63b8ff" stroke="#63b8ff" points="850.97,-79.7 859.24,-73.07 848.64,-73.1 850.97,-79.7"/>
</a>
</g>
</g>
<!-- Node7 -->
<g id="Node000007" class="node">
<title>Node7</title>
<g id="a_Node000007"><a xlink:href="member_8h.html" target="_top" xlink:title=" ">
<polygon fill="white" stroke="#666666" points="823,-184 757,-184 757,-165 823,-165 823,-184"/>
<text text-anchor="middle" x="790" y="-172" font-family="Helvetica,sans-Serif" font-size="10.00">member.h</text>
</a>
</g>
</g>
<!-- Node3&#45;&gt;Node7 -->
<g id="edge6_Node000003_Node000007" class="edge">
<title>Node3&#45;&gt;Node7</title>
<g id="a_edge6_Node000003_Node000007"><a xlink:title=" ">
<path fill="none" stroke="#63b8ff" d="M663.26,-219.98C688.32,-211.19 727.63,-197.39 755.83,-187.49"/>
<polygon fill="#63b8ff" stroke="#63b8ff" points="757.02,-190.78 765.3,-184.17 754.7,-184.18 757.02,-190.78"/>
</a>
</g>
</g>
<!-- Node13 -->
<g id="Node000013" class="node">
<title>Node13</title>
<g id="a_Node000013"><a xlink:href="webcface-config_8h.html" target="_top" xlink:title=" ">
<polygon fill="white" stroke="#666666" points="833.5,-19 728.5,-19 728.5,0 833.5,0 833.5,-19"/>
<text text-anchor="middle" x="781" y="-7" font-family="Helvetica,sans-Serif" font-size="10.00">webcface&#45;config.h</text>
</a>
</g>
</g>
<!-- Node3&#45;&gt;Node13 -->
<g id="edge27_Node000003_Node000013" class="edge">
<title>Node3&#45;&gt;Node13</title>
<g id="a_edge27_Node000003_Node000013"><a xlink:title=" ">
<path fill="none" stroke="#63b8ff" d="M632.89,-219.96C619.52,-200.19 590.13,-149.88 606,-110 625.76,-60.34 684.37,-34.5 728.35,-21.75"/>
<polygon fill="#63b8ff" stroke="#63b8ff" points="729.35,-25.1 738.06,-19.07 727.49,-18.36 729.35,-25.1"/>
</a>
</g>
</g>
<!-- Node7&#45;&gt;Node4 -->
<g id="edge8_Node000007_Node000004" class="edge">
<title>Node7&#45;&gt;Node4</title>
<g id="a_edge8_Node000007_Node000004"><a xlink:title=" ">
<path fill="none" stroke="#63b8ff" d="M756.96,-173.1C676.92,-170.81 468.35,-156.69 321,-74 300.63,-62.57 283.05,-41.9 272.28,-27.26"/>
<polygon fill="#63b8ff" stroke="#63b8ff" points="275.11,-25.2 266.49,-19.05 269.39,-29.24 275.11,-25.2"/>
</a>
</g>
</g>
<!-- Node7&#45;&gt;Node6 -->
<g id="edge9_Node000007_Node000006" class="edge">
<title>Node7&#45;&gt;Node6</title>
<g id="a_edge9_Node000007_Node000006"><a xlink:title=" ">
<path fill="none" stroke="#63b8ff" d="M786.47,-164.89C781.75,-151.88 775.15,-126.92 786,-110 793.42,-98.44 824.8,-85.33 849.89,-76.36"/>
<polygon fill="#63b8ff" stroke="#63b8ff" points="851.18,-79.61 859.47,-73.02 848.88,-73 851.18,-79.61"/>
</a>
</g>
</g>
<!-- Node8 -->
<g id="Node000008" class="node">
<title>Node8</title>
<g id="a_Node000008"><a xlink:title=" ">
<polygon fill="#e0e0e0" stroke="#999999" points="860.5,-129 795.5,-129 795.5,-110 860.5,-110 860.5,-129"/>
<text text-anchor="middle" x="828" y="-117" font-family="Helvetica,sans-Serif" font-size="10.00">functional</text>
</a>
</g>
</g>
<!-- Node7&#45;&gt;Node8 -->
<g id="edge7_Node000007_Node000008" class="edge">
<title>Node7&#45;&gt;Node8</title>
<g id="a_edge7_Node000007_Node000008"><a xlink:title=" ">
<path fill="none" stroke="#63b8ff" d="M796.27,-164.75C801.59,-157.34 809.36,-146.5 815.88,-137.41"/>
<polygon fill="#63b8ff" stroke="#63b8ff" points="818.86,-139.26 821.84,-129.09 813.17,-135.18 818.86,-139.26"/>
</a>
</g>
</g>
<!-- Node9 -->
<g id="Node000009" class="node">
<title>Node9</title>
<g id="a_Node000009"><a xlink:title=" ">
<polygon fill="#e0e0e0" stroke="#999999" points="935,-129 879,-129 879,-110 935,-110 935,-129"/>
<text text-anchor="middle" x="907" y="-117" font-family="Helvetica,sans-Serif" font-size="10.00">optional</text>
</a>
</g>
</g>
<!-- Node7&#45;&gt;Node9 -->
<g id="edge10_Node000007_Node000009" class="edge">
<title>Node7&#45;&gt;Node9</title>
<g id="a_edge10_Node000007_Node000009"><a xlink:title=" ">
<path fill="none" stroke="#63b8ff" d="M808.8,-164.98C827.62,-156.46 856.82,-143.23 878.5,-133.41"/>
<polygon fill="#63b8ff" stroke="#63b8ff" points="880.2,-136.48 887.86,-129.17 877.31,-130.11 880.2,-136.48"/>
</a>
</g>
</g>
<!-- Node10 -->
<g id="Node000010" class="node">
<title>Node10</title>
<g id="a_Node000010"><a xlink:title=" ">
<polygon fill="#e0e0e0" stroke="#999999" points="1003,-129 953,-129 953,-110 1003,-110 1003,-129"/>
<text text-anchor="middle" x="978" y="-117" font-family="Helvetica,sans-Serif" font-size="10.00">chrono</text>
</a>
</g>
</g>
<!-- Node7&#45;&gt;Node10 -->
<g id="edge11_Node000007_Node000010" class="edge">
<title>Node7&#45;&gt;Node10</title>
<g id="a_edge11_Node000007_Node000010"><a xlink:title=" ">
<path fill="none" stroke="#63b8ff" d="M820.21,-164.98C853.74,-155.53 907.79,-140.29 943.11,-130.34"/>
<polygon fill="#63b8ff" stroke="#63b8ff" points="944.31,-133.64 952.98,-127.55 942.41,-126.9 944.31,-133.64"/>
</a>
</g>
</g>
<!-- Node11 -->
<g id="Node000011" class="node">
<title>Node11</title>
<g id="a_Node000011"><a xlink:href="field_8h.html" target="_top" xlink:title=" ">
<polygon fill="white" stroke="#666666" points="662.5,-129 615.5,-129 615.5,-110 662.5,-110 662.5,-129"/>
<text text-anchor="middle" x="639" y="-117" font-family="Helvetica,sans-Serif" font-size="10.00">field.h</text>
</a>
</g>
</g>
<!-- Node7&#45;&gt;Node11 -->
<g id="edge12_Node000007_Node000011" class="edge">
<title>Node7&#45;&gt;Node11</title>
<g id="a_edge12_Node000007_Node000011"><a xlink:title=" ">
<path fill="none" stroke="#63b8ff" d="M765.74,-164.98C740.38,-156.09 700.43,-142.06 672.17,-132.14"/>
<polygon fill="#63b8ff" stroke="#63b8ff" points="673.3,-128.83 662.7,-128.82 670.98,-135.43 673.3,-128.83"/>
</a>
</g>
</g>
<!-- Node7&#45;&gt;Node13 -->
<g id="edge26_Node000007_Node000013" class="edge">
<title>Node7&#45;&gt;Node13</title>
<g id="a_edge26_Node000007_Node000013"><a xlink:title=" ">
<path fill="none" stroke="#63b8ff" d="M779.71,-164.96C761.63,-149.21 724.8,-113.57 711,-74 708.22,-66.03 706.93,-62.4 711,-55 718.77,-40.85 733.17,-30.56 746.89,-23.46"/>
<polygon fill="#63b8ff" stroke="#63b8ff" points="748.66,-26.49 756.19,-19.05 745.66,-20.17 748.66,-26.49"/>
</a>
</g>
</g>
<!-- Node11&#45;&gt;Node4 -->
<g id="edge14_Node000011_Node000004" class="edge">
<title>Node11&#45;&gt;Node4</title>
<g id="a_edge14_Node000011_Node000004"><a xlink:title=" ">
<path fill="none" stroke="#63b8ff" d="M615.34,-112.94C610.6,-111.9 605.65,-110.87 601,-110 495.85,-90.31 463.37,-111.03 363,-74 331.43,-62.35 299.15,-40.17 279.59,-25.36"/>
<polygon fill="#63b8ff" stroke="#63b8ff" points="281.59,-22.49 271.54,-19.13 277.31,-28.02 281.59,-22.49"/>
</a>
</g>
</g>
<!-- Node11&#45;&gt;Node5 -->
<g id="edge13_Node000011_Node000005" class="edge">
<title>Node11&#45;&gt;Node5</title>
<g id="a_edge13_Node000011_Node000005"><a xlink:title=" ">
<path fill="none" stroke="#63b8ff" d="M615.33,-112.97C610.6,-111.93 605.65,-110.89 601,-110 551.05,-100.44 409.8,-111.09 375,-74 364,-62.28 363.55,-43.42 365.22,-29.3"/>
<polygon fill="#63b8ff" stroke="#63b8ff" points="368.71,-29.65 366.85,-19.22 361.8,-28.53 368.71,-29.65"/>
</a>
</g>
</g>
<!-- Node11&#45;&gt;Node6 -->
<g id="edge16_Node000011_Node000006" class="edge">
<title>Node11&#45;&gt;Node6</title>
<g id="a_edge16_Node000011_Node000006"><a xlink:title=" ">
<path fill="none" stroke="#63b8ff" d="M662.81,-113.84C700.29,-106.42 775.55,-91.21 849.31,-74.07"/>
<polygon fill="#63b8ff" stroke="#63b8ff" points="850.3,-77.44 859.24,-71.75 848.7,-70.62 850.3,-77.44"/>
</a>
</g>
</g>
<!-- Node12 -->
<g id="Node000012" class="node">
<title>Node12</title>
<g id="a_Node000012"><a xlink:title=" ">
<polygon fill="#e0e0e0" stroke="#999999" points="577.5,-19 504.5,-19 504.5,0 577.5,0 577.5,-19"/>
<text text-anchor="middle" x="541" y="-7" font-family="Helvetica,sans-Serif" font-size="10.00">string_view</text>
</a>
</g>
</g>
<!-- Node11&#45;&gt;Node12 -->
<g id="edge15_Node000011_Node000012" class="edge">
<title>Node11&#45;&gt;Node12</title>
<g id="a_edge15_Node000011_Node000012"><a xlink:title=" ">
<path fill="none" stroke="#63b8ff" d="M630.98,-109.66C614.53,-91.54 576.76,-49.91 555.76,-26.77"/>
<polygon fill="#63b8ff" stroke="#63b8ff" points="558.17,-24.21 548.86,-19.16 552.98,-28.92 558.17,-24.21"/>
</a>
</g>
</g>
<!-- Node11&#45;&gt;Node13 -->
<g id="edge17_Node000011_Node000013" class="edge">
<title>Node11&#45;&gt;Node13</title>
<g id="a_edge17_Node000011_Node000013"><a xlink:title=" ">
<path fill="none" stroke="#63b8ff" d="M642.25,-109.96C647.73,-96.57 660.01,-70.59 678,-55 695.33,-39.98 718.51,-29.37 738.49,-22.28"/>
<polygon fill="#63b8ff" stroke="#63b8ff" points="739.64,-25.59 748,-19.08 737.4,-18.95 739.64,-25.59"/>
</a>
</g>
</g>
<!-- Node14 -->
<g id="Node000014" class="node">
<title>Node14</title>
<g id="a_Node000014"><a xlink:href="common_2encoding_8h.html" target="_top" xlink:title=" ">
<polygon fill="white" stroke="#666666" points="549.5,-74 384.5,-74 384.5,-55 549.5,-55 549.5,-74"/>
<text text-anchor="middle" x="467" y="-62" font-family="Helvetica,sans-Serif" font-size="10.00">webcface/common/encoding.h</text>
</a>
</g>
</g>
<!-- Node11&#45;&gt;Node14 -->
<g id="edge18_Node000011_Node000014" class="edge">
<title>Node11&#45;&gt;Node14</title>
<g id="a_edge18_Node000011_Node000014"><a xlink:title=" ">
<path fill="none" stroke="#63b8ff" d="M615.44,-111.24C586.93,-102.45 538.54,-87.54 504.79,-77.14"/>
<polygon fill="#63b8ff" stroke="#63b8ff" points="505.41,-73.67 494.82,-74.07 503.35,-80.36 505.41,-73.67"/>
</a>
</g>
</g>
<!-- Node15 -->
<g id="Node000015" class="node">
<title>Node15</title>
<g id="a_Node000015"><a xlink:href="complete_8h.html" target="_top" xlink:title=" ">
<polygon fill="white" stroke="#666666" points="841.5,-74 720.5,-74 720.5,-55 841.5,-55 841.5,-74"/>
<text text-anchor="middle" x="781" y="-62" font-family="Helvetica,sans-Serif" font-size="10.00">webcface/complete.h</text>
</a>
</g>
</g>
<!-- Node11&#45;&gt;Node15 -->
<g id="edge23_Node000011_Node000015" class="edge">
<title>Node11&#45;&gt;Node15</title>
<g id="a_edge23_Node000011_Node000015"><a xlink:title=" ">
<path fill="none" stroke="#63b8ff" d="M661.81,-109.98C685.17,-101.27 721.7,-87.63 748.17,-77.75"/>
<polygon fill="#63b8ff" stroke="#63b8ff" points="749.63,-80.95 757.77,-74.17 747.18,-74.39 749.63,-80.95"/>
</a>
</g>
</g>
<!-- Node14&#45;&gt;Node4 -->
<g id="edge19_Node000014_Node000004" class="edge">
<title>Node14&#45;&gt;Node4</title>
<g id="a_edge19_Node000014_Node000004"><a xlink:title=" ">
<path fill="none" stroke="#63b8ff" d="M433.9,-54.98C395.23,-45.03 331.66,-28.68 293.33,-18.82"/>
<polygon fill="#63b8ff" stroke="#63b8ff" points="293.78,-15.32 283.22,-16.22 292.04,-22.1 293.78,-15.32"/>
</a>
</g>
</g>
<!-- Node14&#45;&gt;Node5 -->
<g id="edge21_Node000014_Node000005" class="edge">
<title>Node14&#45;&gt;Node5</title>
<g id="a_edge21_Node000014_Node000005"><a xlink:title=" ">
<path fill="none" stroke="#63b8ff" d="M451.25,-54.98C435.77,-46.61 411.91,-33.7 393.86,-23.95"/>
<polygon fill="#63b8ff" stroke="#63b8ff" points="395.49,-20.85 385.03,-19.17 392.16,-27.01 395.49,-20.85"/>
</a>
</g>
</g>
<!-- Node14&#45;&gt;Node12 -->
<g id="edge20_Node000014_Node000012" class="edge">
<title>Node14&#45;&gt;Node12</title>
<g id="a_edge20_Node000014_Node000012"><a xlink:title=" ">
<path fill="none" stroke="#63b8ff" d="M478.89,-54.98C490.15,-46.92 507.29,-34.65 520.71,-25.03"/>
<polygon fill="#63b8ff" stroke="#63b8ff" points="522.8,-27.84 528.89,-19.17 518.73,-22.15 522.8,-27.84"/>
</a>
</g>
</g>
<!-- Node14&#45;&gt;Node13 -->
<g id="edge22_Node000014_Node000013" class="edge">
<title>Node14&#45;&gt;Node13</title>
<g id="a_edge22_Node000014_Node000013"><a xlink:title=" ">
<path fill="none" stroke="#63b8ff" d="M517.45,-54.98C572.76,-45.65 661.47,-30.67 720.48,-20.71"/>
<polygon fill="#63b8ff" stroke="#63b8ff" points="721.14,-24.15 730.42,-19.04 719.97,-17.25 721.14,-24.15"/>
</a>
</g>
</g>
<!-- Node15&#45;&gt;Node13 -->
<g id="edge25_Node000015_Node000013" class="edge">
<title>Node15&#45;&gt;Node13</title>
<g id="a_edge25_Node000015_Node000013"><a xlink:title=" ">
<path fill="none" stroke="#63b8ff" d="M781,-54.75C781,-47.8 781,-37.85 781,-29.13"/>
<polygon fill="#63b8ff" stroke="#63b8ff" points="784.5,-29.09 781,-19.09 777.5,-29.09 784.5,-29.09"/>
</a>
</g>
</g>
<!-- Node16 -->
<g id="Node000016" class="node">
<title>Node16</title>
<g id="a_Node000016"><a xlink:title=" ">
<polygon fill="#e0e0e0" stroke="#999999" points="1130.5,-19 1077.5,-19 1077.5,0 1130.5,0 1130.5,-19"/>
<text text-anchor="middle" x="1104" y="-7" font-family="Helvetica,sans-Serif" font-size="10.00">cstddef</text>
</a>
</g>
</g>
<!-- Node15&#45;&gt;Node16 -->
<g id="edge24_Node000015_Node000016" class="edge">
<title>Node15&#45;&gt;Node16</title>
<g id="a_edge24_Node000015_Node000016"><a xlink:title=" ">
<path fill="none" stroke="#63b8ff" d="M832.9,-54.98C898.54,-44.21 1009.92,-25.94 1067.34,-16.51"/>
<polygon fill="#63b8ff" stroke="#63b8ff" points="1068.11,-19.94 1077.42,-14.86 1066.98,-13.03 1068.11,-19.94"/>
</a>
</g>
</g>
<!-- Node17&#45;&gt;Node8 -->
<g id="edge29_Node000017_Node000008" class="edge">
<title>Node17&#45;&gt;Node8</title>
<g id="a_edge29_Node000017_Node000008"><a xlink:title=" ">
<path fill="none" stroke="#63b8ff" d="M932.08,-164.98C911.95,-156.38 880.62,-142.99 857.59,-133.15"/>
<polygon fill="#63b8ff" stroke="#63b8ff" points="858.86,-129.88 848.29,-129.17 856.1,-136.32 858.86,-129.88"/>
</a>
</g>
</g>
<!-- Node17&#45;&gt;Node9 -->
<g id="edge31_Node000017_Node000009" class="edge">
<title>Node17&#45;&gt;Node9</title>
<g id="a_edge31_Node000017_Node000009"><a xlink:title=" ">
<path fill="none" stroke="#63b8ff" d="M944.57,-164.75C938.15,-157.18 928.69,-146.05 920.88,-136.84"/>
<polygon fill="#63b8ff" stroke="#63b8ff" points="923.43,-134.45 914.29,-129.09 918.1,-138.98 923.43,-134.45"/>
</a>
</g>
</g>
<!-- Node17&#45;&gt;Node10 -->
<g id="edge32_Node000017_Node000010" class="edge">
<title>Node17&#45;&gt;Node10</title>
<g id="a_edge32_Node000017_Node000010"><a xlink:title=" ">
<path fill="none" stroke="#63b8ff" d="M956.29,-164.75C959.81,-157.57 964.91,-147.18 969.28,-138.27"/>
<polygon fill="#63b8ff" stroke="#63b8ff" points="972.52,-139.61 973.79,-129.09 966.24,-136.53 972.52,-139.61"/>
</a>
</g>
</g>
<!-- Node17&#45;&gt;Node11 -->
<g id="edge33_Node000017_Node000011" class="edge">
<title>Node17&#45;&gt;Node11</title>
<g id="a_edge33_Node000017_Node000011"><a xlink:title=" ">
<path fill="none" stroke="#63b8ff" d="M901.71,-164.98C837.42,-154.1 727.86,-135.55 672.76,-126.22"/>
<polygon fill="#63b8ff" stroke="#63b8ff" points="673.25,-122.75 662.81,-124.53 672.08,-129.65 673.25,-122.75"/>
</a>
</g>
</g>
<!-- Node17&#45;&gt;Node13 -->
<g id="edge44_Node000017_Node000013" class="edge">
<title>Node17&#45;&gt;Node13</title>
<g id="a_edge44_Node000017_Node000013"><a xlink:title=" ">
<path fill="none" stroke="#63b8ff" d="M1003.19,-169.02C1098.72,-158.81 1288.69,-128.76 1222,-55 1197.14,-27.5 959.87,-16.19 844.02,-12.27"/>
<polygon fill="#63b8ff" stroke="#63b8ff" points="843.98,-8.77 833.87,-11.94 843.75,-15.77 843.98,-8.77"/>
</a>
</g>
</g>
<!-- Node18 -->
<g id="Node000018" class="node">
<title>Node18</title>
<g id="a_Node000018"><a xlink:title=" ">
<polygon fill="#e0e0e0" stroke="#999999" points="1365.5,-129 1308.5,-129 1308.5,-110 1365.5,-110 1365.5,-129"/>
<text text-anchor="middle" x="1337" y="-117" font-family="Helvetica,sans-Serif" font-size="10.00">ostream</text>
</a>
</g>
</g>
<!-- Node17&#45;&gt;Node18 -->
<g id="edge30_Node000017_Node000018" class="edge">
<title>Node17&#45;&gt;Node18</title>
<g id="a_edge30_Node000017_Node000018"><a xlink:title=" ">
<path fill="none" stroke="#63b8ff" d="M1003.14,-167.91C1070.14,-160.34 1191.19,-145.83 1294,-129 1295.46,-128.76 1296.94,-128.51 1298.43,-128.25"/>
<polygon fill="#63b8ff" stroke="#63b8ff" points="1299.16,-131.68 1308.37,-126.43 1297.9,-124.79 1299.16,-131.68"/>
</a>
</g>
</g>
<!-- Node19 -->
<g id="Node000019" class="node">
<title>Node19</title>
<g id="a_Node000019"><a xlink:href="array__like_8h.html" target="_top" xlink:title=" ">
<polygon fill="white" stroke="#666666" points="1133,-129 1059,-129 1059,-110 1133,-110 1133,-129"/>
<text text-anchor="middle" x="1096" y="-117" font-family="Helvetica,sans-Serif" font-size="10.00">array_like.h</text>
</a>
</g>
</g>
<!-- Node17&#45;&gt;Node19 -->
<g id="edge34_Node000017_Node000019" class="edge">
<title>Node17&#45;&gt;Node19</title>
<g id="a_edge34_Node000017_Node000019"><a xlink:title=" ">
<path fill="none" stroke="#63b8ff" d="M975.14,-164.98C998.82,-156.27 1035.87,-142.63 1062.71,-132.75"/>
<polygon fill="#63b8ff" stroke="#63b8ff" points="1064.27,-135.91 1072.44,-129.17 1061.85,-129.34 1064.27,-135.91"/>
</a>
</g>
</g>
<!-- Node19&#45;&gt;Node4 -->
<g id="edge39_Node000019_Node000004" class="edge">
<title>Node19&#45;&gt;Node4</title>
<g id="a_edge39_Node000019_Node000004"><a xlink:title=" ">
<path fill="none" stroke="#63b8ff" d="M1060.2,-109.97C1029.95,-102.23 985.81,-89.64 949,-74 933.07,-67.23 931.61,-59.88 915,-55 790.24,-18.37 460.48,-30.84 331,-19 318.55,-17.86 304.9,-16.28 292.98,-14.79"/>
<polygon fill="#63b8ff" stroke="#63b8ff" points="293.4,-11.31 283.03,-13.51 292.51,-18.26 293.4,-11.31"/>
</a>
</g>
</g>
<!-- Node19&#45;&gt;Node6 -->
<g id="edge36_Node000019_Node000006" class="edge">
<title>Node19&#45;&gt;Node6</title>
<g id="a_edge36_Node000019_Node000006"><a xlink:title=" ">
<path fill="none" stroke="#63b8ff" d="M1061.78,-109.98C1021.75,-100.02 955.93,-83.65 916.31,-73.79"/>
<polygon fill="#63b8ff" stroke="#63b8ff" points="917.14,-70.39 906.59,-71.37 915.45,-77.18 917.14,-70.39"/>
</a>
</g>
</g>
<!-- Node19&#45;&gt;Node13 -->
<g id="edge43_Node000019_Node000013" class="edge">
<title>Node19&#45;&gt;Node13</title>
<g id="a_edge43_Node000019_Node000013"><a xlink:title=" ">
<path fill="none" stroke="#63b8ff" d="M1075.64,-109.87C1054.65,-100.96 1021,-86.61 992,-74 972.84,-65.67 968.71,-61.92 949,-55 909.78,-41.24 864.13,-29.4 830.32,-21.4"/>
<polygon fill="#63b8ff" stroke="#63b8ff" points="830.76,-17.91 820.23,-19.05 829.17,-24.73 830.76,-17.91"/>
</a>
</g>
</g>
<!-- Node20 -->
<g id="Node000020" class="node">
<title>Node20</title>
<g id="a_Node000020"><a xlink:title=" ">
<polygon fill="#e0e0e0" stroke="#999999" points="1213.5,-74 1148.5,-74 1148.5,-55 1213.5,-55 1213.5,-74"/>
<text text-anchor="middle" x="1181" y="-62" font-family="Helvetica,sans-Serif" font-size="10.00">stdexcept</text>
</a>
</g>
</g>
<!-- Node19&#45;&gt;Node20 -->
<g id="edge35_Node000019_Node000020" class="edge">
<title>Node19&#45;&gt;Node20</title>
<g id="a_edge35_Node000019_Node000020"><a xlink:title=" ">
<path fill="none" stroke="#63b8ff" d="M1109.66,-109.98C1122.84,-101.77 1143.03,-89.18 1158.57,-79.49"/>
<polygon fill="#63b8ff" stroke="#63b8ff" points="1160.46,-82.43 1167.09,-74.17 1156.76,-76.49 1160.46,-82.43"/>
</a>
</g>
</g>
<!-- Node21 -->
<g id="Node000021" class="node">
<title>Node21</title>
<g id="a_Node000021"><a xlink:title=" ">
<polygon fill="#e0e0e0" stroke="#999999" points="1043,-74 1001,-74 1001,-55 1043,-55 1043,-74"/>
<text text-anchor="middle" x="1022" y="-62" font-family="Helvetica,sans-Serif" font-size="10.00">array</text>
</a>
</g>
</g>
<!-- Node19&#45;&gt;Node21 -->
<g id="edge37_Node000019_Node000021" class="edge">
<title>Node19&#45;&gt;Node21</title>
<g id="a_edge37_Node000019_Node000021"><a xlink:title=" ">
<path fill="none" stroke="#63b8ff" d="M1084.11,-109.98C1072.85,-101.92 1055.71,-89.65 1042.29,-80.03"/>
<polygon fill="#63b8ff" stroke="#63b8ff" points="1044.27,-77.15 1034.11,-74.17 1040.2,-82.84 1044.27,-77.15"/>
</a>
</g>
</g>
<!-- Node22 -->
<g id="Node000022" class="node">
<title>Node22</title>
<g id="a_Node000022"><a xlink:title=" ">
<polygon fill="#e0e0e0" stroke="#999999" points="1130.5,-74 1061.5,-74 1061.5,-55 1130.5,-55 1130.5,-74"/>
<text text-anchor="middle" x="1096" y="-62" font-family="Helvetica,sans-Serif" font-size="10.00">type_traits</text>
</a>
</g>
</g>
<!-- Node19&#45;&gt;Node22 -->
<g id="edge38_Node000019_Node000022" class="edge">
<title>Node19&#45;&gt;Node22</title>
<g id="a_edge38_Node000019_Node000022"><a xlink:title=" ">
<path fill="none" stroke="#63b8ff" d="M1096,-109.75C1096,-102.8 1096,-92.85 1096,-84.13"/>
<polygon fill="#63b8ff" stroke="#63b8ff" points="1099.5,-84.09 1096,-74.09 1092.5,-84.09 1099.5,-84.09"/>
</a>
</g>
</g>
<!-- Node23 -->
<g id="Node000023" class="node">
<title>Node23</title>
<g id="a_Node000023"><a xlink:href="trait_8h.html" target="_top" xlink:title=" ">
<polygon fill="white" stroke="#666666" points="1354,-74 1308,-74 1308,-55 1354,-55 1354,-74"/>
<text text-anchor="middle" x="1331" y="-62" font-family="Helvetica,sans-Serif" font-size="10.00">trait.h</text>
</a>
</g>
</g>
<!-- Node19&#45;&gt;Node23 -->
<g id="edge40_Node000019_Node000023" class="edge">
<title>Node19&#45;&gt;Node23</title>
<g id="a_edge40_Node000019_Node000023"><a xlink:title=" ">
<path fill="none" stroke="#63b8ff" d="M1133.24,-110.1C1178.65,-99.86 1254.69,-82.71 1298.06,-72.93"/>
<polygon fill="#63b8ff" stroke="#63b8ff" points="1298.84,-76.34 1307.83,-70.73 1297.3,-69.51 1298.84,-76.34"/>
</a>
</g>
</g>
<!-- Node23&#45;&gt;Node13 -->
<g id="edge42_Node000023_Node000013" class="edge">
<title>Node23&#45;&gt;Node13</title>
<g id="a_edge42_Node000023_Node000013"><a xlink:title=" ">
<path fill="none" stroke="#63b8ff" d="M1307.61,-57.61C1303.11,-56.62 1298.43,-55.7 1294,-55 1132.96,-29.64 941.05,-17.83 843.96,-13.13"/>
<polygon fill="#63b8ff" stroke="#63b8ff" points="843.88,-9.63 833.73,-12.65 843.55,-16.62 843.88,-9.63"/>
</a>
</g>
</g>
<!-- Node23&#45;&gt;Node16 -->
<g id="edge41_Node000023_Node000016" class="edge">
<title>Node23&#45;&gt;Node16</title>
<g id="a_edge41_Node000023_Node000016"><a xlink:title=" ">
<path fill="none" stroke="#63b8ff" d="M1307.98,-58.13C1268.5,-48.91 1187.56,-30.01 1140.37,-18.99"/>
<polygon fill="#63b8ff" stroke="#63b8ff" points="1141.09,-15.57 1130.56,-16.7 1139.5,-22.38 1141.09,-15.57"/>
</a>
</g>
</g>
<!-- Node24&#45;&gt;Node5 -->
<g id="edge51_Node000024_Node000005" class="edge">
<title>Node24&#45;&gt;Node5</title>
<g id="a_edge51_Node000024_Node000005"><a xlink:title=" ">
<path fill="none" stroke="#63b8ff" d="M1442.79,-109.94C1373.91,-92.7 1224.77,-55.41 1222,-55 901.97,-7.69 817.96,-37.89 495,-19 465.89,-17.3 433.02,-15.07 408.15,-13.32"/>
<polygon fill="#63b8ff" stroke="#63b8ff" points="408.24,-9.82 398.02,-12.61 407.75,-16.8 408.24,-9.82"/>
</a>
</g>
</g>
<!-- Node24&#45;&gt;Node6 -->
<g id="edge54_Node000024_Node000006" class="edge">
<title>Node24&#45;&gt;Node6</title>
<g id="a_edge54_Node000024_Node000006"><a xlink:title=" ">
<path fill="none" stroke="#63b8ff" d="M1407.41,-112.29C1279.38,-100.87 1010.99,-76.92 916.66,-68.5"/>
<polygon fill="#63b8ff" stroke="#63b8ff" points="916.82,-65 906.55,-67.6 916.2,-71.98 916.82,-65"/>
</a>
</g>
</g>
<!-- Node24&#45;&gt;Node13 -->
<g id="edge46_Node000024_Node000013" class="edge">
<title>Node24&#45;&gt;Node13</title>
<g id="a_edge46_Node000024_Node000013"><a xlink:title=" ">
<path fill="none" stroke="#63b8ff" d="M1462.47,-109.94C1434.18,-93.36 1373.58,-58.18 1363,-55 1267.34,-26.22 973.82,-15.37 843.94,-11.91"/>
<polygon fill="#63b8ff" stroke="#63b8ff" points="843.85,-8.41 833.76,-11.64 843.66,-15.4 843.85,-8.41"/>
</a>
</g>
</g>
<!-- Node25 -->
<g id="Node000025" class="node">
<title>Node25</title>
<g id="a_Node000025"><a xlink:title=" ">
<polygon fill="#e0e0e0" stroke="#999999" points="1648,-74 1544,-74 1544,-55 1648,-55 1648,-74"/>
<text text-anchor="middle" x="1596" y="-62" font-family="Helvetica,sans-Serif" font-size="10.00">spdlog/common.h</text>
</a>
</g>
</g>
<!-- Node24&#45;&gt;Node25 -->
<g id="edge47_Node000024_Node000025" class="edge">
<title>Node24&#45;&gt;Node25</title>
<g id="a_edge47_Node000024_Node000025"><a xlink:title=" ">
<path fill="none" stroke="#63b8ff" d="M1496.12,-109.98C1515.35,-101.42 1545.23,-88.11 1567.31,-78.28"/>
<polygon fill="#63b8ff" stroke="#63b8ff" points="1568.82,-81.44 1576.53,-74.17 1565.97,-75.04 1568.82,-81.44"/>
</a>
</g>
</g>
<!-- Node26 -->
<g id="Node000026" class="node">
<title>Node26</title>
<g id="a_Node000026"><a xlink:title=" ">
<polygon fill="#e0e0e0" stroke="#999999" points="1757.5,-74 1666.5,-74 1666.5,-55 1757.5,-55 1757.5,-74"/>
<text text-anchor="middle" x="1712" y="-62" font-family="Helvetica,sans-Serif" font-size="10.00">spdlog/logger.h</text>
</a>
</g>
</g>
<!-- Node24&#45;&gt;Node26 -->
<g id="edge48_Node000024_Node000026" class="edge">
<title>Node24&#45;&gt;Node26</title>
<g id="a_edge48_Node000024_Node000026"><a xlink:title=" ">
<path fill="none" stroke="#63b8ff" d="M1514.76,-109.98C1555.32,-100.84 1619.89,-86.27 1664.03,-76.32"/>
<polygon fill="#63b8ff" stroke="#63b8ff" points="1664.96,-79.7 1673.95,-74.08 1663.42,-72.87 1664.96,-79.7"/>
</a>
</g>
</g>
<!-- Node27 -->
<g id="Node000027" class="node">
<title>Node27</title>
<g id="a_Node000027"><a xlink:title=" ">
<polygon fill="#e0e0e0" stroke="#999999" points="1882.5,-74 1775.5,-74 1775.5,-55 1882.5,-55 1882.5,-74"/>
<text text-anchor="middle" x="1829" y="-62" font-family="Helvetica,sans-Serif" font-size="10.00">condition_variable</text>
</a>
</g>
</g>
<!-- Node24&#45;&gt;Node27 -->
<g id="edge49_Node000024_Node000027" class="edge">
<title>Node24&#45;&gt;Node27</title>
<g id="a_edge49_Node000024_Node000027"><a xlink:title=" ">
<path fill="none" stroke="#63b8ff" d="M1533.55,-109.98C1596.83,-100.46 1699.1,-85.06 1765.19,-75.11"/>
<polygon fill="#63b8ff" stroke="#63b8ff" points="1766.1,-78.51 1775.47,-73.56 1765.06,-71.59 1766.1,-78.51"/>
</a>
</g>
</g>
<!-- Node28 -->
<g id="Node000028" class="node">
<title>Node28</title>
<g id="a_Node000028"><a xlink:title=" ">
<polygon fill="#e0e0e0" stroke="#999999" points="1949,-74 1901,-74 1901,-55 1949,-55 1949,-74"/>
<text text-anchor="middle" x="1925" y="-62" font-family="Helvetica,sans-Serif" font-size="10.00">mutex</text>
</a>
</g>
</g>
<!-- Node24&#45;&gt;Node28 -->
<g id="edge50_Node000024_Node000028" class="edge">
<title>Node24&#45;&gt;Node28</title>
<g id="a_edge50_Node000024_Node000028"><a xlink:title=" ">
<path fill="none" stroke="#63b8ff" d="M1546.83,-114.12C1627.56,-108.36 1764.51,-96.45 1891.07,-73.91"/>
<polygon fill="#63b8ff" stroke="#63b8ff" points="1891.72,-77.35 1900.94,-72.13 1890.48,-70.46 1891.72,-77.35"/>
</a>
</g>
</g>
<!-- Node29 -->
<g id="Node000029" class="node">
<title>Node29</title>
<g id="a_Node000029"><a xlink:title=" ">
<polygon fill="#e0e0e0" stroke="#999999" points="1458,-74 1410,-74 1410,-55 1458,-55 1458,-74"/>
<text text-anchor="middle" x="1434" y="-62" font-family="Helvetica,sans-Serif" font-size="10.00">thread</text>
</a>
</g>
</g>
<!-- Node24&#45;&gt;Node29 -->
<g id="edge52_Node000024_Node000029" class="edge">
<title>Node24&#45;&gt;Node29</title>
<g id="a_edge52_Node000024_Node000029"><a xlink:title=" ">
<path fill="none" stroke="#63b8ff" d="M1469.9,-109.75C1463.83,-102.26 1454.91,-91.28 1447.49,-82.13"/>
<polygon fill="#63b8ff" stroke="#63b8ff" points="1449.99,-79.65 1440.97,-74.09 1444.55,-84.06 1449.99,-79.65"/>
</a>
</g>
</g>
<!-- Node30 -->
<g id="Node000030" class="node">
<title>Node30</title>
<g id="a_Node000030"><a xlink:title=" ">
<polygon fill="#e0e0e0" stroke="#999999" points="1526,-74 1476,-74 1476,-55 1526,-55 1526,-74"/>
<text text-anchor="middle" x="1501" y="-62" font-family="Helvetica,sans-Serif" font-size="10.00">atomic</text>
</a>
</g>
</g>
<!-- Node24&#45;&gt;Node30 -->
<g id="edge53_Node000024_Node000030" class="edge">
<title>Node24&#45;&gt;Node30</title>
<g id="a_edge53_Node000024_Node000030"><a xlink:title=" ">
<path fill="none" stroke="#63b8ff" d="M1480.96,-109.75C1484.21,-102.57 1488.92,-92.18 1492.95,-83.27"/>
<polygon fill="#63b8ff" stroke="#63b8ff" points="1496.17,-84.64 1497.11,-74.09 1489.8,-81.75 1496.17,-84.64"/>
</a>
</g>
</g>
</g>
</svg>
