<?xml version="1.0" encoding="UTF-8" standalone="no"?>
<!DOCTYPE svg PUBLIC "-//W3C//DTD SVG 1.1//EN"
 "http://www.w3.org/Graphics/SVG/1.1/DTD/svg11.dtd">
<!-- Generated by graphviz version 2.43.0 (0)
 -->
<!-- Title: benchmarks/sync&#45;value.cc Pages: 1 -->
<svg width="2055pt" height="302pt"
 viewBox="0.00 0.00 2054.50 302.00" xmlns="http://www.w3.org/2000/svg" xmlns:xlink="http://www.w3.org/1999/xlink">
<g id="graph0" class="graph" transform="scale(1 1) rotate(0) translate(4 298)">
<title>benchmarks/sync&#45;value.cc</title>
<!-- Node1 -->
<g id="Node000001" class="node">
<title>Node1</title>
<g id="a_Node000001"><a xlink:title=" ">
<polygon fill="#999999" stroke="#666666" points="918,-294 772,-294 772,-275 918,-275 918,-294"/>
<text text-anchor="middle" x="845" y="-282" font-family="Helvetica,sans-Serif" font-size="10.00">benchmarks/sync&#45;value.cc</text>
</a>
</g>
</g>
<!-- Node2 -->
<g id="Node000002" class="node">
<title>Node2</title>
<g id="a_Node000002"><a xlink:title=" ">
<polygon fill="#e0e0e0" stroke="#999999" points="138,-239 0,-239 0,-220 138,-220 138,-239"/>
<text text-anchor="middle" x="69" y="-227" font-family="Helvetica,sans-Serif" font-size="10.00">benchmark/benchmark.h</text>
</a>
</g>
</g>
<!-- Node1&#45;&gt;Node2 -->
<g id="edge1_Node000001_Node000002" class="edge">
<title>Node1&#45;&gt;Node2</title>
<g id="a_edge1_Node000001_Node000002"><a xlink:title=" ">
<path fill="none" stroke="#63b8ff" d="M771.85,-279.72C645.38,-272.97 377.72,-257.8 152,-239 150.88,-238.91 149.75,-238.81 148.62,-238.71"/>
<polygon fill="#63b8ff" stroke="#63b8ff" points="148.54,-235.19 138.27,-237.79 147.92,-242.17 148.54,-235.19"/>
</a>
</g>
</g>
<!-- Node3 -->
<g id="Node000003" class="node">
<title>Node3</title>
<g id="a_Node000003"><a xlink:href="client_8h.html" target="_top" xlink:title=" ">
<polygon fill="white" stroke="#666666" points="677,-239 575,-239 575,-220 677,-220 677,-239"/>
<text text-anchor="middle" x="626" y="-227" font-family="Helvetica,sans-Serif" font-size="10.00">webcface/client.h</text>
</a>
</g>
</g>
<!-- Node1&#45;&gt;Node3 -->
<g id="edge2_Node000001_Node000003" class="edge">
<title>Node1&#45;&gt;Node3</title>
<g id="a_edge2_Node000001_Node000003"><a xlink:title=" ">
<path fill="none" stroke="#63b8ff" d="M809.81,-274.98C772.17,-265.87 712.34,-251.4 671.23,-241.45"/>
<polygon fill="#63b8ff" stroke="#63b8ff" points="672,-238.03 661.46,-239.08 670.36,-244.84 672,-238.03"/>
</a>
</g>
</g>
<!-- Node4 -->
<g id="Node000004" class="node">
<title>Node4</title>
<g id="a_Node000004"><a xlink:title=" ">
<polygon fill="#e0e0e0" stroke="#999999" points="300,-19 256,-19 256,0 300,0 300,-19"/>
<text text-anchor="middle" x="278" y="-7" font-family="Helvetica,sans-Serif" font-size="10.00">string</text>
</a>
</g>
</g>
<!-- Node1&#45;&gt;Node4 -->
<g id="edge58_Node000001_Node000004" class="edge">
<title>Node1&#45;&gt;Node4</title>
<g id="a_edge58_Node000001_Node000004"><a xlink:title=" ">
<path fill="none" stroke="#63b8ff" d="M771.69,-279.44C596.12,-268.73 166,-236.3 166,-175.5 166,-175.5 166,-175.5 166,-118.5 166,-72.77 214.98,-40.29 248.16,-23.54"/>
<polygon fill="#63b8ff" stroke="#63b8ff" points="249.98,-26.54 257.46,-19.04 246.93,-20.24 249.98,-26.54"/>
</a>
</g>
</g>
<!-- Node6 -->
<g id="Node000006" class="node">
<title>Node6</title>
<g id="a_Node000006"><a xlink:title=" ">
<polygon fill="#e0e0e0" stroke="#999999" points="907.5,-74 860.5,-74 860.5,-55 907.5,-55 907.5,-74"/>
<text text-anchor="middle" x="884" y="-62" font-family="Helvetica,sans-Serif" font-size="10.00">vector</text>
</a>
</g>
</g>
<!-- Node1&#45;&gt;Node6 -->
<g id="edge59_Node000001_Node000006" class="edge">
<title>Node1&#45;&gt;Node6</title>
<g id="a_edge59_Node000001_Node000006"><a xlink:title=" ">
<path fill="none" stroke="#63b8ff" d="M852.43,-274.95C866.06,-258.63 894.62,-221.31 905,-184 914.71,-149.09 901.63,-107.09 892.17,-83.63"/>
<polygon fill="#63b8ff" stroke="#63b8ff" points="895.32,-82.08 888.18,-74.25 888.88,-84.82 895.32,-82.08"/>
</a>
</g>
</g>
<!-- Node17 -->
<g id="Node000017" class="node">
<title>Node17</title>
<g id="a_Node000017"><a xlink:href="client_2include_2webcface_2value_8h.html" target="_top" xlink:title=" ">
<polygon fill="white" stroke="#666666" points="896,-184 794,-184 794,-165 896,-165 896,-184"/>
<text text-anchor="middle" x="845" y="-172" font-family="Helvetica,sans-Serif" font-size="10.00">webcface/value.h</text>
</a>
</g>
</g>
<!-- Node1&#45;&gt;Node17 -->
<g id="edge28_Node000001_Node000017" class="edge">
<title>Node1&#45;&gt;Node17</title>
<g id="a_edge28_Node000001_Node000017"><a xlink:title=" ">
<path fill="none" stroke="#63b8ff" d="M845,-274.66C845,-257.17 845,-217.8 845,-194.27"/>
<polygon fill="#63b8ff" stroke="#63b8ff" points="848.5,-194.16 845,-184.16 841.5,-194.16 848.5,-194.16"/>
</a>
</g>
</g>
<!-- Node25 -->
<g id="Node000025" class="node">
<title>Node25</title>
<g id="a_Node000025"><a xlink:href="server_2server_8h.html" target="_top" xlink:title=" ">
<polygon fill="white" stroke="#666666" points="1634.5,-129 1495.5,-129 1495.5,-110 1634.5,-110 1634.5,-129"/>
<text text-anchor="middle" x="1565" y="-117" font-family="Helvetica,sans-Serif" font-size="10.00">webcface/server/server.h</text>
</a>
</g>
</g>
<!-- Node1&#45;&gt;Node25 -->
<g id="edge48_Node000001_Node000025" class="edge">
<title>Node1&#45;&gt;Node25</title>
<g id="a_edge48_Node000001_Node000025"><a xlink:title=" ">
<path fill="none" stroke="#63b8ff" d="M876.03,-274.96C905.23,-266.65 950.02,-253.25 988,-239 1007.56,-231.66 1011.04,-226.18 1031,-220 1188.53,-171.25 1380,-142.67 1485.54,-129.46"/>
<polygon fill="#63b8ff" stroke="#63b8ff" points="1485.99,-132.93 1495.49,-128.23 1485.13,-125.98 1485.99,-132.93"/>
</a>
</g>
</g>
<!-- Node32 -->
<g id="Node000032" class="node">
<title>Node32</title>
<g id="a_Node000032"><a xlink:title=" ">
<polygon fill="#e0e0e0" stroke="#999999" points="1100,-239 1040,-239 1040,-220 1100,-220 1100,-239"/>
<text text-anchor="middle" x="1070" y="-227" font-family="Helvetica,sans-Serif" font-size="10.00">iostream</text>
</a>
</g>
</g>
<!-- Node1&#45;&gt;Node32 -->
<g id="edge60_Node000001_Node000032" class="edge">
<title>Node1&#45;&gt;Node32</title>
<g id="a_edge60_Node000001_Node000032"><a xlink:title=" ">
<path fill="none" stroke="#63b8ff" d="M881.15,-274.98C921.78,-265.42 987.55,-249.92 1029.77,-239.98"/>
<polygon fill="#63b8ff" stroke="#63b8ff" points="1030.78,-243.33 1039.71,-237.63 1029.17,-236.52 1030.78,-243.33"/>
</a>
</g>
</g>
<!-- Node3&#45;&gt;Node4 -->
<g id="edge3_Node000003_Node000004" class="edge">
<title>Node3&#45;&gt;Node4</title>
<g id="a_edge3_Node000003_Node000004"><a xlink:title=" ">
<path fill="none" stroke="#63b8ff" d="M574.68,-220C540.51,-213.12 495.22,-201.64 458,-184 382.65,-148.28 358.42,-138.85 306,-74 295.12,-60.54 287.64,-42.2 283.16,-28.69"/>
<polygon fill="#63b8ff" stroke="#63b8ff" points="286.49,-27.61 280.21,-19.08 279.8,-29.66 286.49,-27.61"/>
</a>
</g>
</g>
<!-- Node5 -->
<g id="Node000005" class="node">
<title>Node5</title>
<g id="a_Node000005"><a xlink:title=" ">
<polygon fill="#e0e0e0" stroke="#999999" points="398,-19 340,-19 340,0 398,0 398,-19"/>
<text text-anchor="middle" x="369" y="-7" font-family="Helvetica,sans-Serif" font-size="10.00">memory</text>
</a>
</g>
</g>
<!-- Node3&#45;&gt;Node5 -->
<g id="edge4_Node000003_Node000005" class="edge">
<title>Node3&#45;&gt;Node5</title>
<g id="a_edge4_Node000003_Node000005"><a xlink:title=" ">
<path fill="none" stroke="#63b8ff" d="M590.66,-219.88C531.11,-203.23 412.45,-160.41 363,-74 355.19,-60.35 357.89,-42.3 361.85,-28.93"/>
<polygon fill="#63b8ff" stroke="#63b8ff" points="365.18,-29.99 365.11,-19.39 358.56,-27.72 365.18,-29.99"/>
</a>
</g>
</g>
<!-- Node3&#45;&gt;Node6 -->
<g id="edge5_Node000003_Node000006" class="edge">
<title>Node3&#45;&gt;Node6</title>
<g id="a_edge5_Node000003_Node000006"><a xlink:title=" ">
<path fill="none" stroke="#63b8ff" d="M623.17,-219.75C620.45,-210.86 616.54,-196.64 615,-184 610.75,-149.09 614.82,-131.04 643,-110 675.26,-85.92 791.5,-73.13 849.95,-68.09"/>
<polygon fill="#63b8ff" stroke="#63b8ff" points="850.48,-71.56 860.15,-67.24 849.9,-64.58 850.48,-71.56"/>
</a>
</g>
</g>
<!-- Node7 -->
<g id="Node000007" class="node">
<title>Node7</title>
<g id="a_Node000007"><a xlink:href="member_8h.html" target="_top" xlink:title=" ">
<polygon fill="white" stroke="#666666" points="690,-184 624,-184 624,-165 690,-165 690,-184"/>
<text text-anchor="middle" x="657" y="-172" font-family="Helvetica,sans-Serif" font-size="10.00">member.h</text>
</a>
</g>
</g>
<!-- Node3&#45;&gt;Node7 -->
<g id="edge6_Node000003_Node000007" class="edge">
<title>Node3&#45;&gt;Node7</title>
<g id="a_edge6_Node000003_Node000007"><a xlink:title=" ">
<path fill="none" stroke="#63b8ff" d="M631.12,-219.75C635.36,-212.49 641.53,-201.95 646.78,-192.98"/>
<polygon fill="#63b8ff" stroke="#63b8ff" points="649.95,-194.49 651.98,-184.09 643.91,-190.95 649.95,-194.49"/>
</a>
</g>
</g>
<!-- Node13 -->
<g id="Node000013" class="node">
<title>Node13</title>
<g id="a_Node000013"><a xlink:href="webcface-config_8h.html" target="_top" xlink:title=" ">
<polygon fill="white" stroke="#666666" points="936.5,-19 831.5,-19 831.5,0 936.5,0 936.5,-19"/>
<text text-anchor="middle" x="884" y="-7" font-family="Helvetica,sans-Serif" font-size="10.00">webcface&#45;config.h</text>
</a>
</g>
</g>
<!-- Node3&#45;&gt;Node13 -->
<g id="edge27_Node000003_Node000013" class="edge">
<title>Node3&#45;&gt;Node13</title>
<g id="a_edge27_Node000003_Node000013"><a xlink:title=" ">
<path fill="none" stroke="#63b8ff" d="M677.16,-227.55C749.08,-225.07 874.71,-216.11 905,-184 944.48,-142.14 933.65,-109.77 916,-55 912.66,-44.62 905.9,-34.62 899.45,-26.74"/>
<polygon fill="#63b8ff" stroke="#63b8ff" points="901.97,-24.31 892.75,-19.1 896.71,-28.92 901.97,-24.31"/>
</a>
</g>
</g>
<!-- Node7&#45;&gt;Node4 -->
<g id="edge8_Node000007_Node000004" class="edge">
<title>Node7&#45;&gt;Node4</title>
<g id="a_edge8_Node000007_Node000004"><a xlink:title=" ">
<path fill="none" stroke="#63b8ff" d="M623.71,-170.52C560.82,-163.46 422.58,-140.92 330,-74 312.74,-61.52 297.9,-41.96 288.55,-27.85"/>
<polygon fill="#63b8ff" stroke="#63b8ff" points="291.3,-25.66 282.98,-19.1 285.4,-29.41 291.3,-25.66"/>
</a>
</g>
</g>
<!-- Node7&#45;&gt;Node6 -->
<g id="edge9_Node000007_Node000006" class="edge">
<title>Node7&#45;&gt;Node6</title>
<g id="a_edge9_Node000007_Node000006"><a xlink:title=" ">
<path fill="none" stroke="#63b8ff" d="M653.16,-164.98C647.79,-151.62 640.06,-125.67 653,-110 665.48,-94.89 789.05,-77.43 850.15,-69.63"/>
<polygon fill="#63b8ff" stroke="#63b8ff" points="850.61,-73.1 860.09,-68.38 849.73,-66.16 850.61,-73.1"/>
</a>
</g>
</g>
<!-- Node8 -->
<g id="Node000008" class="node">
<title>Node8</title>
<g id="a_Node000008"><a xlink:title=" ">
<polygon fill="#e0e0e0" stroke="#999999" points="727.5,-129 662.5,-129 662.5,-110 727.5,-110 727.5,-129"/>
<text text-anchor="middle" x="695" y="-117" font-family="Helvetica,sans-Serif" font-size="10.00">functional</text>
</a>
</g>
</g>
<!-- Node7&#45;&gt;Node8 -->
<g id="edge7_Node000007_Node000008" class="edge">
<title>Node7&#45;&gt;Node8</title>
<g id="a_edge7_Node000007_Node000008"><a xlink:title=" ">
<path fill="none" stroke="#63b8ff" d="M663.27,-164.75C668.59,-157.34 676.36,-146.5 682.88,-137.41"/>
<polygon fill="#63b8ff" stroke="#63b8ff" points="685.86,-139.26 688.84,-129.09 680.17,-135.18 685.86,-139.26"/>
</a>
</g>
</g>
<!-- Node9 -->
<g id="Node000009" class="node">
<title>Node9</title>
<g id="a_Node000009"><a xlink:title=" ">
<polygon fill="#e0e0e0" stroke="#999999" points="802,-129 746,-129 746,-110 802,-110 802,-129"/>
<text text-anchor="middle" x="774" y="-117" font-family="Helvetica,sans-Serif" font-size="10.00">optional</text>
</a>
</g>
</g>
<!-- Node7&#45;&gt;Node9 -->
<g id="edge10_Node000007_Node000009" class="edge">
<title>Node7&#45;&gt;Node9</title>
<g id="a_edge10_Node000007_Node000009"><a xlink:title=" ">
<path fill="none" stroke="#63b8ff" d="M675.8,-164.98C694.62,-156.46 723.82,-143.23 745.5,-133.41"/>
<polygon fill="#63b8ff" stroke="#63b8ff" points="747.2,-136.48 754.86,-129.17 744.31,-130.11 747.2,-136.48"/>
</a>
</g>
</g>
<!-- Node10 -->
<g id="Node000010" class="node">
<title>Node10</title>
<g id="a_Node000010"><a xlink:title=" ">
<polygon fill="#e0e0e0" stroke="#999999" points="870,-129 820,-129 820,-110 870,-110 870,-129"/>
<text text-anchor="middle" x="845" y="-117" font-family="Helvetica,sans-Serif" font-size="10.00">chrono</text>
</a>
</g>
</g>
<!-- Node7&#45;&gt;Node10 -->
<g id="edge11_Node000007_Node000010" class="edge">
<title>Node7&#45;&gt;Node10</title>
<g id="a_edge11_Node000007_Node000010"><a xlink:title=" ">
<path fill="none" stroke="#63b8ff" d="M687.21,-164.98C720.74,-155.53 774.79,-140.29 810.11,-130.34"/>
<polygon fill="#63b8ff" stroke="#63b8ff" points="811.31,-133.64 819.98,-127.55 809.41,-126.9 811.31,-133.64"/>
</a>
</g>
</g>
<!-- Node11 -->
<g id="Node000011" class="node">
<title>Node11</title>
<g id="a_Node000011"><a xlink:href="field_8h.html" target="_top" xlink:title=" ">
<polygon fill="white" stroke="#666666" points="529.5,-129 482.5,-129 482.5,-110 529.5,-110 529.5,-129"/>
<text text-anchor="middle" x="506" y="-117" font-family="Helvetica,sans-Serif" font-size="10.00">field.h</text>
</a>
</g>
</g>
<!-- Node7&#45;&gt;Node11 -->
<g id="edge12_Node000007_Node000011" class="edge">
<title>Node7&#45;&gt;Node11</title>
<g id="a_edge12_Node000007_Node000011"><a xlink:title=" ">
<path fill="none" stroke="#63b8ff" d="M632.74,-164.98C607.38,-156.09 567.43,-142.06 539.17,-132.14"/>
<polygon fill="#63b8ff" stroke="#63b8ff" points="540.3,-128.83 529.7,-128.82 537.98,-135.43 540.3,-128.83"/>
</a>
</g>
</g>
<!-- Node7&#45;&gt;Node13 -->
<g id="edge26_Node000007_Node000013" class="edge">
<title>Node7&#45;&gt;Node13</title>
<g id="a_edge26_Node000007_Node000013"><a xlink:title=" ">
<path fill="none" stroke="#63b8ff" d="M651.05,-164.75C642.89,-151.56 630.58,-126.36 643,-110 678.99,-62.59 717.04,-96.85 772,-74 805.05,-60.26 840.57,-38.87 862.55,-24.77"/>
<polygon fill="#63b8ff" stroke="#63b8ff" points="864.61,-27.6 871.09,-19.22 860.79,-21.73 864.61,-27.6"/>
</a>
</g>
</g>
<!-- Node11&#45;&gt;Node4 -->
<g id="edge14_Node000011_Node000004" class="edge">
<title>Node11&#45;&gt;Node4</title>
<g id="a_edge14_Node000011_Node000004"><a xlink:title=" ">
<path fill="none" stroke="#63b8ff" d="M482.27,-113.72C453.11,-107.27 402.61,-94.2 363,-74 337.29,-60.89 311.21,-40.04 294.84,-25.83"/>
<polygon fill="#63b8ff" stroke="#63b8ff" points="297.03,-23.1 287.22,-19.09 292.39,-28.34 297.03,-23.1"/>
</a>
</g>
</g>
<!-- Node11&#45;&gt;Node5 -->
<g id="edge13_Node000011_Node000005" class="edge">
<title>Node11&#45;&gt;Node5</title>
<g id="a_edge13_Node000011_Node000005"><a xlink:title=" ">
<path fill="none" stroke="#63b8ff" d="M482.26,-117.82C452.12,-115.56 400.91,-106.79 375,-74 365.24,-61.65 364.47,-43.43 365.71,-29.67"/>
<polygon fill="#63b8ff" stroke="#63b8ff" points="369.23,-29.76 367.08,-19.39 362.29,-28.84 369.23,-29.76"/>
</a>
</g>
</g>
<!-- Node11&#45;&gt;Node6 -->
<g id="edge16_Node000011_Node000006" class="edge">
<title>Node11&#45;&gt;Node6</title>
<g id="a_edge16_Node000011_Node000006"><a xlink:title=" ">
<path fill="none" stroke="#63b8ff" d="M529.65,-115.18C594.35,-106.11 774.49,-80.85 850.01,-70.27"/>
<polygon fill="#63b8ff" stroke="#63b8ff" points="850.95,-73.67 860.36,-68.81 849.97,-66.74 850.95,-73.67"/>
</a>
</g>
</g>
<!-- Node12 -->
<g id="Node000012" class="node">
<title>Node12</title>
<g id="a_Node000012"><a xlink:title=" ">
<polygon fill="#e0e0e0" stroke="#999999" points="558.5,-19 485.5,-19 485.5,0 558.5,0 558.5,-19"/>
<text text-anchor="middle" x="522" y="-7" font-family="Helvetica,sans-Serif" font-size="10.00">string_view</text>
</a>
</g>
</g>
<!-- Node11&#45;&gt;Node12 -->
<g id="edge15_Node000011_Node000012" class="edge">
<title>Node11&#45;&gt;Node12</title>
<g id="a_edge15_Node000011_Node000012"><a xlink:title=" ">
<path fill="none" stroke="#63b8ff" d="M522.03,-109.95C534.41,-102.35 550.65,-89.97 558,-74 565.72,-57.22 552.98,-38.97 540.58,-26.35"/>
<polygon fill="#63b8ff" stroke="#63b8ff" points="542.76,-23.6 533.08,-19.29 537.96,-28.7 542.76,-23.6"/>
</a>
</g>
</g>
<!-- Node11&#45;&gt;Node13 -->
<g id="edge17_Node000011_Node000013" class="edge">
<title>Node11&#45;&gt;Node13</title>
<g id="a_edge17_Node000011_Node000013"><a xlink:title=" ">
<path fill="none" stroke="#63b8ff" d="M529.69,-113.07C534.42,-112.02 539.36,-110.95 544,-110 629.04,-92.52 652.97,-99.37 736,-74 756.37,-67.78 760.43,-63.41 780,-55 805.23,-44.15 833.93,-31.88 854.78,-22.97"/>
<polygon fill="#63b8ff" stroke="#63b8ff" points="856.23,-26.16 864.05,-19.01 853.48,-19.72 856.23,-26.16"/>
</a>
</g>
</g>
<!-- Node14 -->
<g id="Node000014" class="node">
<title>Node14</title>
<g id="a_Node000014"><a xlink:href="common_2encoding_8h.html" target="_top" xlink:title=" ">
<polygon fill="white" stroke="#666666" points="549.5,-74 384.5,-74 384.5,-55 549.5,-55 549.5,-74"/>
<text text-anchor="middle" x="467" y="-62" font-family="Helvetica,sans-Serif" font-size="10.00">webcface/common/encoding.h</text>
</a>
</g>
</g>
<!-- Node11&#45;&gt;Node14 -->
<g id="edge18_Node000011_Node000014" class="edge">
<title>Node11&#45;&gt;Node14</title>
<g id="a_edge18_Node000011_Node000014"><a xlink:title=" ">
<path fill="none" stroke="#63b8ff" d="M499.56,-109.75C494.11,-102.34 486.14,-91.5 479.44,-82.41"/>
<polygon fill="#63b8ff" stroke="#63b8ff" points="482.07,-80.07 473.32,-74.09 476.43,-84.22 482.07,-80.07"/>
</a>
</g>
</g>
<!-- Node15 -->
<g id="Node000015" class="node">
<title>Node15</title>
<g id="a_Node000015"><a xlink:href="complete_8h.html" target="_top" xlink:title=" ">
<polygon fill="white" stroke="#666666" points="727.5,-74 606.5,-74 606.5,-55 727.5,-55 727.5,-74"/>
<text text-anchor="middle" x="667" y="-62" font-family="Helvetica,sans-Serif" font-size="10.00">webcface/complete.h</text>
</a>
</g>
</g>
<!-- Node11&#45;&gt;Node15 -->
<g id="edge23_Node000011_Node000015" class="edge">
<title>Node11&#45;&gt;Node15</title>
<g id="a_edge23_Node000011_Node000015"><a xlink:title=" ">
<path fill="none" stroke="#63b8ff" d="M529.76,-110.68C556.59,-101.85 600.55,-87.38 631.47,-77.2"/>
<polygon fill="#63b8ff" stroke="#63b8ff" points="632.61,-80.51 641.01,-74.06 630.42,-73.86 632.61,-80.51"/>
</a>
</g>
</g>
<!-- Node14&#45;&gt;Node4 -->
<g id="edge19_Node000014_Node000004" class="edge">
<title>Node14&#45;&gt;Node4</title>
<g id="a_edge19_Node000014_Node000004"><a xlink:title=" ">
<path fill="none" stroke="#63b8ff" d="M436.63,-54.98C401.87,-45.24 345.19,-29.34 309.83,-19.43"/>
<polygon fill="#63b8ff" stroke="#63b8ff" points="310.6,-16.01 300.02,-16.68 308.71,-22.75 310.6,-16.01"/>
</a>
</g>
</g>
<!-- Node14&#45;&gt;Node5 -->
<g id="edge21_Node000014_Node000005" class="edge">
<title>Node14&#45;&gt;Node5</title>
<g id="a_edge21_Node000014_Node000005"><a xlink:title=" ">
<path fill="none" stroke="#63b8ff" d="M451.25,-54.98C435.77,-46.61 411.91,-33.7 393.86,-23.95"/>
<polygon fill="#63b8ff" stroke="#63b8ff" points="395.49,-20.85 385.03,-19.17 392.16,-27.01 395.49,-20.85"/>
</a>
</g>
</g>
<!-- Node14&#45;&gt;Node12 -->
<g id="edge20_Node000014_Node000012" class="edge">
<title>Node14&#45;&gt;Node12</title>
<g id="a_edge20_Node000014_Node000012"><a xlink:title=" ">
<path fill="none" stroke="#63b8ff" d="M476.08,-54.75C484.09,-47.03 495.96,-35.6 505.62,-26.28"/>
<polygon fill="#63b8ff" stroke="#63b8ff" points="508.31,-28.55 513.09,-19.09 503.46,-23.51 508.31,-28.55"/>
</a>
</g>
</g>
<!-- Node14&#45;&gt;Node13 -->
<g id="edge22_Node000014_Node000013" class="edge">
<title>Node14&#45;&gt;Node13</title>
<g id="a_edge22_Node000014_Node000013"><a xlink:title=" ">
<path fill="none" stroke="#63b8ff" d="M534,-54.98C613.21,-44.92 744.01,-28.29 821.3,-18.47"/>
<polygon fill="#63b8ff" stroke="#63b8ff" points="821.89,-21.92 831.37,-17.19 821.01,-14.98 821.89,-21.92"/>
</a>
</g>
</g>
<!-- Node15&#45;&gt;Node13 -->
<g id="edge25_Node000015_Node000013" class="edge">
<title>Node15&#45;&gt;Node13</title>
<g id="a_edge25_Node000015_Node000013"><a xlink:title=" ">
<path fill="none" stroke="#63b8ff" d="M701.86,-54.98C739.09,-45.89 798.2,-31.46 838.93,-21.51"/>
<polygon fill="#63b8ff" stroke="#63b8ff" points="839.98,-24.85 848.86,-19.08 838.32,-18.05 839.98,-24.85"/>
</a>
</g>
</g>
<!-- Node16 -->
<g id="Node000016" class="node">
<title>Node16</title>
<g id="a_Node000016"><a xlink:title=" ">
<polygon fill="#e0e0e0" stroke="#999999" points="727.5,-19 674.5,-19 674.5,0 727.5,0 727.5,-19"/>
<text text-anchor="middle" x="701" y="-7" font-family="Helvetica,sans-Serif" font-size="10.00">cstddef</text>
</a>
</g>
</g>
<!-- Node15&#45;&gt;Node16 -->
<g id="edge24_Node000015_Node000016" class="edge">
<title>Node15&#45;&gt;Node16</title>
<g id="a_edge24_Node000015_Node000016"><a xlink:title=" ">
<path fill="none" stroke="#63b8ff" d="M672.61,-54.75C677.32,-47.42 684.17,-36.73 689.97,-27.7"/>
<polygon fill="#63b8ff" stroke="#63b8ff" points="693.04,-29.4 695.49,-19.09 687.14,-25.62 693.04,-29.4"/>
</a>
</g>
</g>
<!-- Node17&#45;&gt;Node8 -->
<g id="edge29_Node000017_Node000008" class="edge">
<title>Node17&#45;&gt;Node8</title>
<g id="a_edge29_Node000017_Node000008"><a xlink:title=" ">
<path fill="none" stroke="#63b8ff" d="M820.9,-164.98C796.12,-156.23 757.3,-142.51 729.31,-132.62"/>
<polygon fill="#63b8ff" stroke="#63b8ff" points="730.13,-129.2 719.54,-129.17 727.8,-135.8 730.13,-129.2"/>
</a>
</g>
</g>
<!-- Node17&#45;&gt;Node9 -->
<g id="edge31_Node000017_Node000009" class="edge">
<title>Node17&#45;&gt;Node9</title>
<g id="a_edge31_Node000017_Node000009"><a xlink:title=" ">
<path fill="none" stroke="#63b8ff" d="M833.59,-164.98C822.89,-157 806.66,-144.88 793.84,-135.31"/>
<polygon fill="#63b8ff" stroke="#63b8ff" points="795.72,-132.35 785.61,-129.17 791.53,-137.96 795.72,-132.35"/>
</a>
</g>
</g>
<!-- Node17&#45;&gt;Node10 -->
<g id="edge32_Node000017_Node000010" class="edge">
<title>Node17&#45;&gt;Node10</title>
<g id="a_edge32_Node000017_Node000010"><a xlink:title=" ">
<path fill="none" stroke="#63b8ff" d="M845,-164.75C845,-157.8 845,-147.85 845,-139.13"/>
<polygon fill="#63b8ff" stroke="#63b8ff" points="848.5,-139.09 845,-129.09 841.5,-139.09 848.5,-139.09"/>
</a>
</g>
</g>
<!-- Node17&#45;&gt;Node11 -->
<g id="edge33_Node000017_Node000011" class="edge">
<title>Node17&#45;&gt;Node11</title>
<g id="a_edge33_Node000017_Node000011"><a xlink:title=" ">
<path fill="none" stroke="#63b8ff" d="M793.88,-165.51C723.74,-154.54 599.57,-135.13 539.88,-125.8"/>
<polygon fill="#63b8ff" stroke="#63b8ff" points="540.28,-122.32 529.86,-124.23 539.2,-129.23 540.28,-122.32"/>
</a>
</g>
</g>
<!-- Node17&#45;&gt;Node13 -->
<g id="edge47_Node000017_Node000013" class="edge">
<title>Node17&#45;&gt;Node13</title>
<g id="a_edge47_Node000017_Node000013"><a xlink:title=" ">
<path fill="none" stroke="#63b8ff" d="M854.61,-164.69C862.87,-156.41 874.2,-143.18 879,-129 881.71,-121 881.74,-117.99 879,-110 872.42,-90.83 857.58,-93.17 851,-74 848.26,-66.01 848.35,-63.02 851,-55 854.46,-44.54 861.43,-34.53 868.08,-26.66"/>
<polygon fill="#63b8ff" stroke="#63b8ff" points="870.86,-28.8 874.98,-19.04 865.67,-24.1 870.86,-28.8"/>
</a>
</g>
</g>
<!-- Node18 -->
<g id="Node000018" class="node">
<title>Node18</title>
<g id="a_Node000018"><a xlink:title=" ">
<polygon fill="#e0e0e0" stroke="#999999" points="1180.5,-129 1123.5,-129 1123.5,-110 1180.5,-110 1180.5,-129"/>
<text text-anchor="middle" x="1152" y="-117" font-family="Helvetica,sans-Serif" font-size="10.00">ostream</text>
</a>
</g>
</g>
<!-- Node17&#45;&gt;Node18 -->
<g id="edge30_Node000017_Node000018" class="edge">
<title>Node17&#45;&gt;Node18</title>
<g id="a_edge30_Node000017_Node000018"><a xlink:title=" ">
<path fill="none" stroke="#63b8ff" d="M896.22,-165.9C948.34,-157.97 1031.67,-144.76 1113.44,-129.01"/>
<polygon fill="#63b8ff" stroke="#63b8ff" points="1114.25,-132.42 1123.4,-127.08 1112.92,-125.55 1114.25,-132.42"/>
</a>
</g>
</g>
<!-- Node19 -->
<g id="Node000019" class="node">
<title>Node19</title>
<g id="a_Node000019"><a xlink:href="array__like_8h.html" target="_top" xlink:title=" ">
<polygon fill="white" stroke="#666666" points="1105,-129 1031,-129 1031,-110 1105,-110 1105,-129"/>
<text text-anchor="middle" x="1068" y="-117" font-family="Helvetica,sans-Serif" font-size="10.00">array_like.h</text>
</a>
</g>
</g>
<!-- Node17&#45;&gt;Node19 -->
<g id="edge34_Node000017_Node000019" class="edge">
<title>Node17&#45;&gt;Node19</title>
<g id="a_edge34_Node000017_Node000019"><a xlink:title=" ">
<path fill="none" stroke="#63b8ff" d="M880.83,-164.98C919.16,-155.87 980.08,-141.4 1021.95,-131.45"/>
<polygon fill="#63b8ff" stroke="#63b8ff" points="1022.97,-134.8 1031.89,-129.08 1021.35,-127.99 1022.97,-134.8"/>
</a>
</g>
</g>
<!-- Node19&#45;&gt;Node4 -->
<g id="edge39_Node000019_Node000004" class="edge">
<title>Node19&#45;&gt;Node4</title>
<g id="a_edge39_Node000019_Node000004"><a xlink:title=" ">
<path fill="none" stroke="#63b8ff" d="M1052.18,-109.79C1025.18,-95.42 968.09,-67.12 916,-55 662.28,4.03 589.91,-47.66 331,-19 324.31,-18.26 317.18,-17.26 310.39,-16.21"/>
<polygon fill="#63b8ff" stroke="#63b8ff" points="310.54,-12.69 300.11,-14.54 309.42,-19.6 310.54,-12.69"/>
</a>
</g>
</g>
<!-- Node19&#45;&gt;Node6 -->
<g id="edge36_Node000019_Node000006" class="edge">
<title>Node19&#45;&gt;Node6</title>
<g id="a_edge36_Node000019_Node000006"><a xlink:title=" ">
<path fill="none" stroke="#63b8ff" d="M1038.44,-109.98C1005.34,-100.45 951.82,-85.03 917.28,-75.09"/>
<polygon fill="#63b8ff" stroke="#63b8ff" points="918.22,-71.71 907.64,-72.31 916.28,-78.44 918.22,-71.71"/>
</a>
</g>
</g>
<!-- Node19&#45;&gt;Node13 -->
<g id="edge46_Node000019_Node000013" class="edge">
<title>Node19&#45;&gt;Node13</title>
<g id="a_edge46_Node000019_Node000013"><a xlink:title=" ">
<path fill="none" stroke="#63b8ff" d="M1105.28,-111.53C1154.09,-102.03 1234.49,-84.95 1243,-74 1248.18,-67.33 1248.59,-61.33 1243,-55 1223.75,-33.21 1044.47,-19.66 946.78,-13.83"/>
<polygon fill="#63b8ff" stroke="#63b8ff" points="946.91,-10.33 936.72,-13.24 946.5,-17.32 946.91,-10.33"/>
</a>
</g>
</g>
<!-- Node20 -->
<g id="Node000020" class="node">
<title>Node20</title>
<g id="a_Node000020"><a xlink:title=" ">
<polygon fill="#e0e0e0" stroke="#999999" points="1429.5,-19 1364.5,-19 1364.5,0 1429.5,0 1429.5,-19"/>
<text text-anchor="middle" x="1397" y="-7" font-family="Helvetica,sans-Serif" font-size="10.00">stdexcept</text>
</a>
</g>
</g>
<!-- Node19&#45;&gt;Node20 -->
<g id="edge35_Node000019_Node000020" class="edge">
<title>Node19&#45;&gt;Node20</title>
<g id="a_edge35_Node000019_Node000020"><a xlink:title=" ">
<path fill="none" stroke="#63b8ff" d="M1105.12,-111.42C1108.12,-110.92 1111.11,-110.44 1114,-110 1182.36,-99.71 1377.03,-125.63 1423,-74 1434.94,-60.59 1423.81,-40.96 1412.63,-27.08"/>
<polygon fill="#63b8ff" stroke="#63b8ff" points="1415.07,-24.55 1405.88,-19.29 1409.78,-29.14 1415.07,-24.55"/>
</a>
</g>
</g>
<!-- Node21 -->
<g id="Node000021" class="node">
<title>Node21</title>
<g id="a_Node000021"><a xlink:title=" ">
<polygon fill="#e0e0e0" stroke="#999999" points="1044,-74 1002,-74 1002,-55 1044,-55 1044,-74"/>
<text text-anchor="middle" x="1023" y="-62" font-family="Helvetica,sans-Serif" font-size="10.00">array</text>
</a>
</g>
</g>
<!-- Node19&#45;&gt;Node21 -->
<g id="edge37_Node000019_Node000021" class="edge">
<title>Node19&#45;&gt;Node21</title>
<g id="a_edge37_Node000019_Node000021"><a xlink:title=" ">
<path fill="none" stroke="#63b8ff" d="M1060.57,-109.75C1054.15,-102.18 1044.69,-91.05 1036.88,-81.84"/>
<polygon fill="#63b8ff" stroke="#63b8ff" points="1039.43,-79.45 1030.29,-74.09 1034.1,-83.98 1039.43,-79.45"/>
</a>
</g>
</g>
<!-- Node22 -->
<g id="Node000022" class="node">
<title>Node22</title>
<g id="a_Node000022"><a xlink:title=" ">
<polygon fill="#e0e0e0" stroke="#999999" points="1131.5,-74 1062.5,-74 1062.5,-55 1131.5,-55 1131.5,-74"/>
<text text-anchor="middle" x="1097" y="-62" font-family="Helvetica,sans-Serif" font-size="10.00">type_traits</text>
</a>
</g>
</g>
<!-- Node19&#45;&gt;Node22 -->
<g id="edge38_Node000019_Node000022" class="edge">
<title>Node19&#45;&gt;Node22</title>
<g id="a_edge38_Node000019_Node000022"><a xlink:title=" ">
<path fill="none" stroke="#63b8ff" d="M1072.79,-109.75C1076.76,-102.49 1082.53,-91.95 1087.43,-82.98"/>
<polygon fill="#63b8ff" stroke="#63b8ff" points="1090.57,-84.54 1092.3,-74.09 1084.43,-81.18 1090.57,-84.54"/>
</a>
</g>
</g>
<!-- Node23 -->
<g id="Node000023" class="node">
<title>Node23</title>
<g id="a_Node000023"><a xlink:href="trait_8h.html" target="_top" xlink:title=" ">
<polygon fill="white" stroke="#666666" points="1234,-74 1188,-74 1188,-55 1234,-55 1234,-74"/>
<text text-anchor="middle" x="1211" y="-62" font-family="Helvetica,sans-Serif" font-size="10.00">trait.h</text>
</a>
</g>
</g>
<!-- Node19&#45;&gt;Node23 -->
<g id="edge40_Node000019_Node000023" class="edge">
<title>Node19&#45;&gt;Node23</title>
<g id="a_edge40_Node000019_Node000023"><a xlink:title=" ">
<path fill="none" stroke="#63b8ff" d="M1090.98,-109.98C1114.5,-101.27 1151.29,-87.63 1177.94,-77.75"/>
<polygon fill="#63b8ff" stroke="#63b8ff" points="1179.45,-80.93 1187.61,-74.17 1177.01,-74.36 1179.45,-80.93"/>
</a>
</g>
</g>
<!-- Node24 -->
<g id="Node000024" class="node">
<title>Node24</title>
<g id="a_Node000024"><a xlink:href="exception_8h.html" target="_top" xlink:title=" ">
<polygon fill="white" stroke="#666666" points="1413.5,-74 1290.5,-74 1290.5,-55 1413.5,-55 1413.5,-74"/>
<text text-anchor="middle" x="1352" y="-62" font-family="Helvetica,sans-Serif" font-size="10.00">webcface/exception.h</text>
</a>
</g>
</g>
<!-- Node19&#45;&gt;Node24 -->
<g id="edge43_Node000019_Node000024" class="edge">
<title>Node19&#45;&gt;Node24</title>
<g id="a_edge43_Node000019_Node000024"><a xlink:title=" ">
<path fill="none" stroke="#63b8ff" d="M1105.13,-111.57C1153.92,-102.47 1240.04,-86.39 1296.56,-75.85"/>
<polygon fill="#63b8ff" stroke="#63b8ff" points="1297.22,-79.28 1306.41,-74.01 1295.94,-72.4 1297.22,-79.28"/>
</a>
</g>
</g>
<!-- Node23&#45;&gt;Node13 -->
<g id="edge42_Node000023_Node000013" class="edge">
<title>Node23&#45;&gt;Node13</title>
<g id="a_edge42_Node000023_Node000013"><a xlink:title=" ">
<path fill="none" stroke="#63b8ff" d="M1187.96,-57.93C1183.35,-56.9 1178.53,-55.87 1174,-55 1096.13,-40.1 1005.74,-26.87 946.85,-18.78"/>
<polygon fill="#63b8ff" stroke="#63b8ff" points="946.97,-15.27 936.59,-17.38 946.02,-22.2 946.97,-15.27"/>
</a>
</g>
</g>
<!-- Node23&#45;&gt;Node16 -->
<g id="edge41_Node000023_Node000016" class="edge">
<title>Node23&#45;&gt;Node16</title>
<g id="a_edge41_Node000023_Node000016"><a xlink:title=" ">
<path fill="none" stroke="#63b8ff" d="M1188,-57.72C1183.39,-56.7 1178.55,-55.73 1174,-55 1089.92,-41.45 833.7,-20.8 737.77,-13.33"/>
<polygon fill="#63b8ff" stroke="#63b8ff" points="737.92,-9.83 727.68,-12.54 737.38,-16.81 737.92,-9.83"/>
</a>
</g>
</g>
<!-- Node24&#45;&gt;Node13 -->
<g id="edge44_Node000024_Node000013" class="edge">
<title>Node24&#45;&gt;Node13</title>
<g id="a_edge44_Node000024_Node000013"><a xlink:title=" ">
<path fill="none" stroke="#63b8ff" d="M1290.34,-56.52C1201.07,-46.41 1036.72,-27.8 946.82,-17.61"/>
<polygon fill="#63b8ff" stroke="#63b8ff" points="947.09,-14.12 936.76,-16.48 946.31,-21.08 947.09,-14.12"/>
</a>
</g>
</g>
<!-- Node24&#45;&gt;Node20 -->
<g id="edge45_Node000024_Node000020" class="edge">
<title>Node24&#45;&gt;Node20</title>
<g id="a_edge45_Node000024_Node000020"><a xlink:title=" ">
<path fill="none" stroke="#63b8ff" d="M1359.43,-54.75C1365.85,-47.18 1375.31,-36.05 1383.12,-26.84"/>
<polygon fill="#63b8ff" stroke="#63b8ff" points="1385.9,-28.98 1389.71,-19.09 1380.57,-24.45 1385.9,-28.98"/>
</a>
</g>
</g>
<!-- Node25&#45;&gt;Node5 -->
<g id="edge54_Node000025_Node000005" class="edge">
<title>Node25&#45;&gt;Node5</title>
<g id="a_edge54_Node000025_Node000005"><a xlink:title=" ">
<path fill="none" stroke="#63b8ff" d="M1495.28,-117.5C1416.88,-114.78 1286.49,-105.38 1179,-74 1160.49,-68.6 1158.66,-59.84 1140,-55 996.96,-17.9 623.44,-28.85 476,-19 453.52,-17.5 428.4,-15.52 408.15,-13.85"/>
<polygon fill="#63b8ff" stroke="#63b8ff" points="408.31,-10.35 398.05,-13.01 407.73,-17.32 408.31,-10.35"/>
</a>
</g>
</g>
<!-- Node25&#45;&gt;Node6 -->
<g id="edge57_Node000025_Node000006" class="edge">
<title>Node25&#45;&gt;Node6</title>
<g id="a_edge57_Node000025_Node000006"><a xlink:title=" ">
<path fill="none" stroke="#63b8ff" d="M1495.44,-113.09C1387.76,-104.72 1174.23,-88.12 993,-74 967.91,-72.05 939.57,-69.84 918.07,-68.16"/>
<polygon fill="#63b8ff" stroke="#63b8ff" points="918.06,-64.65 907.81,-67.36 917.51,-71.63 918.06,-64.65"/>
</a>
</g>
</g>
<!-- Node25&#45;&gt;Node13 -->
<g id="edge49_Node000025_Node000013" class="edge">
<title>Node25&#45;&gt;Node13</title>
<g id="a_edge49_Node000025_Node000013"><a xlink:title=" ">
<path fill="none" stroke="#63b8ff" d="M1550.27,-109.89C1525.14,-95.66 1471.91,-67.56 1423,-55 1334.52,-32.27 1069.16,-18.39 946.91,-13.03"/>
<polygon fill="#63b8ff" stroke="#63b8ff" points="946.74,-9.52 936.6,-12.58 946.44,-16.51 946.74,-9.52"/>
</a>
</g>
</g>
<!-- Node26 -->
<g id="Node000026" class="node">
<title>Node26</title>
<g id="a_Node000026"><a xlink:title=" ">
<polygon fill="#e0e0e0" stroke="#999999" points="1812,-74 1708,-74 1708,-55 1812,-55 1812,-74"/>
<text text-anchor="middle" x="1760" y="-62" font-family="Helvetica,sans-Serif" font-size="10.00">spdlog/common.h</text>
</a>
</g>
</g>
<!-- Node25&#45;&gt;Node26 -->
<g id="edge50_Node000025_Node000026" class="edge">
<title>Node25&#45;&gt;Node26</title>
<g id="a_edge50_Node000025_Node000026"><a xlink:title=" ">
<path fill="none" stroke="#63b8ff" d="M1596.33,-109.98C1629.49,-100.97 1682,-86.7 1718.56,-76.76"/>
<polygon fill="#63b8ff" stroke="#63b8ff" points="1719.69,-80.08 1728.42,-74.08 1717.86,-73.33 1719.69,-80.08"/>
</a>
</g>
</g>
<!-- Node27 -->
<g id="Node000027" class="node">
<title>Node27</title>
<g id="a_Node000027"><a xlink:title=" ">
<polygon fill="#e0e0e0" stroke="#999999" points="1921.5,-74 1830.5,-74 1830.5,-55 1921.5,-55 1921.5,-74"/>
<text text-anchor="middle" x="1876" y="-62" font-family="Helvetica,sans-Serif" font-size="10.00">spdlog/logger.h</text>
</a>
</g>
</g>
<!-- Node25&#45;&gt;Node27 -->
<g id="edge51_Node000025_Node000027" class="edge">
<title>Node25&#45;&gt;Node27</title>
<g id="a_edge51_Node000025_Node000027"><a xlink:title=" ">
<path fill="none" stroke="#63b8ff" d="M1614.97,-109.98C1671.01,-100.43 1761.69,-84.98 1820.06,-75.03"/>
<polygon fill="#63b8ff" stroke="#63b8ff" points="1820.94,-78.43 1830.21,-73.3 1819.76,-71.53 1820.94,-78.43"/>
</a>
</g>
</g>
<!-- Node28 -->
<g id="Node000028" class="node">
<title>Node28</title>
<g id="a_Node000028"><a xlink:title=" ">
<polygon fill="#e0e0e0" stroke="#999999" points="2046.5,-74 1939.5,-74 1939.5,-55 2046.5,-55 2046.5,-74"/>
<text text-anchor="middle" x="1993" y="-62" font-family="Helvetica,sans-Serif" font-size="10.00">condition_variable</text>
</a>
</g>
</g>
<!-- Node25&#45;&gt;Node28 -->
<g id="edge52_Node000025_Node000028" class="edge">
<title>Node25&#45;&gt;Node28</title>
<g id="a_edge52_Node000025_Node000028"><a xlink:title=" ">
<path fill="none" stroke="#63b8ff" d="M1634.52,-110.37C1705.95,-101.94 1820.64,-88.2 1929.1,-74.23"/>
<polygon fill="#63b8ff" stroke="#63b8ff" points="1929.77,-77.67 1939.24,-72.92 1928.87,-70.73 1929.77,-77.67"/>
</a>
</g>
</g>
<!-- Node29 -->
<g id="Node000029" class="node">
<title>Node29</title>
<g id="a_Node000029"><a xlink:title=" ">
<polygon fill="#e0e0e0" stroke="#999999" points="1556,-74 1508,-74 1508,-55 1556,-55 1556,-74"/>
<text text-anchor="middle" x="1532" y="-62" font-family="Helvetica,sans-Serif" font-size="10.00">mutex</text>
</a>
</g>
</g>
<!-- Node25&#45;&gt;Node29 -->
<g id="edge53_Node000025_Node000029" class="edge">
<title>Node25&#45;&gt;Node29</title>
<g id="a_edge53_Node000025_Node000029"><a xlink:title=" ">
<path fill="none" stroke="#63b8ff" d="M1559.55,-109.75C1554.99,-102.42 1548.33,-91.73 1542.71,-82.7"/>
<polygon fill="#63b8ff" stroke="#63b8ff" points="1545.6,-80.73 1537.35,-74.09 1539.66,-84.43 1545.6,-80.73"/>
</a>
</g>
</g>
<!-- Node30 -->
<g id="Node000030" class="node">
<title>Node30</title>
<g id="a_Node000030"><a xlink:title=" ">
<polygon fill="#e0e0e0" stroke="#999999" points="1622,-74 1574,-74 1574,-55 1622,-55 1622,-74"/>
<text text-anchor="middle" x="1598" y="-62" font-family="Helvetica,sans-Serif" font-size="10.00">thread</text>
</a>
</g>
</g>
<!-- Node25&#45;&gt;Node30 -->
<g id="edge55_Node000025_Node000030" class="edge">
<title>Node25&#45;&gt;Node30</title>
<g id="a_edge55_Node000025_Node000030"><a xlink:title=" ">
<path fill="none" stroke="#63b8ff" d="M1570.45,-109.75C1575.01,-102.42 1581.67,-91.73 1587.29,-82.7"/>
<polygon fill="#63b8ff" stroke="#63b8ff" points="1590.34,-84.43 1592.65,-74.09 1584.4,-80.73 1590.34,-84.43"/>
</a>
</g>
</g>
<!-- Node31 -->
<g id="Node000031" class="node">
<title>Node31</title>
<g id="a_Node000031"><a xlink:title=" ">
<polygon fill="#e0e0e0" stroke="#999999" points="1690,-74 1640,-74 1640,-55 1690,-55 1690,-74"/>
<text text-anchor="middle" x="1665" y="-62" font-family="Helvetica,sans-Serif" font-size="10.00">atomic</text>
</a>
</g>
</g>
<!-- Node25&#45;&gt;Node31 -->
<g id="edge56_Node000025_Node000031" class="edge">
<title>Node25&#45;&gt;Node31</title>
<g id="a_edge56_Node000025_Node000031"><a xlink:title=" ">
<path fill="none" stroke="#63b8ff" d="M1581.07,-109.98C1596.86,-101.61 1621.22,-88.7 1639.63,-78.95"/>
<polygon fill="#63b8ff" stroke="#63b8ff" points="1641.44,-81.95 1648.64,-74.17 1638.17,-75.76 1641.44,-81.95"/>
</a>
</g>
</g>
</g>
</svg>
