<?xml version="1.0" encoding="UTF-8" standalone="no"?>
<!DOCTYPE svg PUBLIC "-//W3C//DTD SVG 1.1//EN"
 "http://www.w3.org/Graphics/SVG/1.1/DTD/svg11.dtd">
<!-- Generated by graphviz version 2.43.0 (0)
 -->
<!-- Title: benchmarks/sync&#45;value.cc Pages: 1 -->
<svg width="2138pt" height="313pt"
 viewBox="0.00 0.00 2137.50 313.00" xmlns="http://www.w3.org/2000/svg" xmlns:xlink="http://www.w3.org/1999/xlink">
<g id="graph0" class="graph" transform="scale(1 1) rotate(0) translate(4 309)">
<title>benchmarks/sync&#45;value.cc</title>
<!-- Node1 -->
<g id="Node000001" class="node">
<title>Node1</title>
<g id="a_Node000001"><a xlink:title=" ">
<polygon fill="#999999" stroke="#666666" points="429,-305 283,-305 283,-286 429,-286 429,-305"/>
<text text-anchor="middle" x="356" y="-293" font-family="Helvetica,sans-Serif" font-size="10.00">benchmarks/sync&#45;value.cc</text>
</a>
</g>
</g>
<!-- Node2 -->
<g id="Node000002" class="node">
<title>Node2</title>
<g id="a_Node000002"><a xlink:title=" ">
<polygon fill="#e0e0e0" stroke="#999999" points="138,-250 0,-250 0,-231 138,-231 138,-250"/>
<text text-anchor="middle" x="69" y="-238" font-family="Helvetica,sans-Serif" font-size="10.00">benchmark/benchmark.h</text>
</a>
</g>
</g>
<!-- Node1&#45;&gt;Node2 -->
<g id="edge1_Node000001_Node000002" class="edge">
<title>Node1&#45;&gt;Node2</title>
<g id="a_edge1_Node000001_Node000002"><a xlink:title=" ">
<path fill="none" stroke="#63b8ff" d="M309.89,-285.98C259.72,-276.72 179.49,-261.9 125.56,-251.94"/>
<polygon fill="#63b8ff" stroke="#63b8ff" points="125.94,-248.46 115.47,-250.08 124.67,-255.34 125.94,-248.46"/>
</a>
</g>
</g>
<!-- Node3 -->
<g id="Node000003" class="node">
<title>Node3</title>
<g id="a_Node000003"><a xlink:href="client_8h.html" target="_top" xlink:title=" ">
<polygon fill="white" stroke="#666666" points="407,-250 305,-250 305,-231 407,-231 407,-250"/>
<text text-anchor="middle" x="356" y="-238" font-family="Helvetica,sans-Serif" font-size="10.00">webcface/client.h</text>
</a>
</g>
</g>
<!-- Node1&#45;&gt;Node3 -->
<g id="edge2_Node000001_Node000003" class="edge">
<title>Node1&#45;&gt;Node3</title>
<g id="a_edge2_Node000001_Node000003"><a xlink:title=" ">
<path fill="none" stroke="#63b8ff" d="M356,-285.75C356,-278.8 356,-268.85 356,-260.13"/>
<polygon fill="#63b8ff" stroke="#63b8ff" points="359.5,-260.09 356,-250.09 352.5,-260.09 359.5,-260.09"/>
</a>
</g>
</g>
<!-- Node4 -->
<g id="Node000004" class="node">
<title>Node4</title>
<g id="a_Node000004"><a xlink:title=" ">
<polygon fill="#e0e0e0" stroke="#999999" points="354,-19 310,-19 310,0 354,0 354,-19"/>
<text text-anchor="middle" x="332" y="-7" font-family="Helvetica,sans-Serif" font-size="10.00">string</text>
</a>
</g>
</g>
<!-- Node1&#45;&gt;Node4 -->
<g id="edge61_Node000001_Node000004" class="edge">
<title>Node1&#45;&gt;Node4</title>
<g id="a_edge61_Node000001_Node000004"><a xlink:title=" ">
<path fill="none" stroke="#63b8ff" d="M296.14,-285.99C240.45,-274.3 166,-247.3 166,-186.5 166,-186.5 166,-186.5 166,-124 166,-59.76 251.75,-29.23 299.99,-17.14"/>
<polygon fill="#63b8ff" stroke="#63b8ff" points="301.04,-20.49 309.96,-14.77 299.42,-13.68 301.04,-20.49"/>
</a>
</g>
</g>
<!-- Node6 -->
<g id="Node000006" class="node">
<title>Node6</title>
<g id="a_Node000006"><a xlink:title=" ">
<polygon fill="#e0e0e0" stroke="#999999" points="355.5,-74 308.5,-74 308.5,-55 355.5,-55 355.5,-74"/>
<text text-anchor="middle" x="332" y="-62" font-family="Helvetica,sans-Serif" font-size="10.00">vector</text>
</a>
</g>
</g>
<!-- Node1&#45;&gt;Node6 -->
<g id="edge62_Node000001_Node000006" class="edge">
<title>Node1&#45;&gt;Node6</title>
<g id="a_edge62_Node000001_Node000006"><a xlink:title=" ">
<path fill="none" stroke="#63b8ff" d="M336.42,-285.98C322.33,-278.68 304.4,-266.68 296,-250 267.55,-193.49 302.84,-116.76 321.64,-82.84"/>
<polygon fill="#63b8ff" stroke="#63b8ff" points="324.71,-84.53 326.65,-74.11 318.64,-81.04 324.71,-84.53"/>
</a>
</g>
</g>
<!-- Node17 -->
<g id="Node000017" class="node">
<title>Node17</title>
<g id="a_Node000017"><a xlink:href="client_2include_2webcface_2value_8h.html" target="_top" xlink:title=" ">
<polygon fill="white" stroke="#666666" points="923,-195 821,-195 821,-176 923,-176 923,-195"/>
<text text-anchor="middle" x="872" y="-183" font-family="Helvetica,sans-Serif" font-size="10.00">webcface/value.h</text>
</a>
</g>
</g>
<!-- Node1&#45;&gt;Node17 -->
<g id="edge27_Node000001_Node000017" class="edge">
<title>Node1&#45;&gt;Node17</title>
<g id="a_edge27_Node000001_Node000017"><a xlink:title=" ">
<path fill="none" stroke="#63b8ff" d="M396.92,-285.94C490.26,-266.4 718.68,-218.59 820.99,-197.18"/>
<polygon fill="#63b8ff" stroke="#63b8ff" points="822,-200.54 831.07,-195.07 820.57,-193.69 822,-200.54"/>
</a>
</g>
</g>
<!-- Node26 -->
<g id="Node000026" class="node">
<title>Node26</title>
<g id="a_Node000026"><a xlink:href="server_2server_8h.html" target="_top" xlink:title=" ">
<polygon fill="white" stroke="#666666" points="1761.5,-134.5 1622.5,-134.5 1622.5,-115.5 1761.5,-115.5 1761.5,-134.5"/>
<text text-anchor="middle" x="1692" y="-122.5" font-family="Helvetica,sans-Serif" font-size="10.00">webcface/server/server.h</text>
</a>
</g>
</g>
<!-- Node1&#45;&gt;Node26 -->
<g id="edge51_Node000001_Node000026" class="edge">
<title>Node1&#45;&gt;Node26</title>
<g id="a_edge51_Node000001_Node000026"><a xlink:title=" ">
<path fill="none" stroke="#63b8ff" d="M429.26,-294.64C612.16,-293.57 1102.74,-282.12 1500,-195 1560.09,-181.82 1627.01,-154.77 1663.84,-138.73"/>
<polygon fill="#63b8ff" stroke="#63b8ff" points="1665.66,-141.75 1673.4,-134.52 1662.84,-135.35 1665.66,-141.75"/>
</a>
</g>
</g>
<!-- Node33 -->
<g id="Node000033" class="node">
<title>Node33</title>
<g id="a_Node000033"><a xlink:title=" ">
<polygon fill="#e0e0e0" stroke="#999999" points="1612,-250 1552,-250 1552,-231 1612,-231 1612,-250"/>
<text text-anchor="middle" x="1582" y="-238" font-family="Helvetica,sans-Serif" font-size="10.00">iostream</text>
</a>
</g>
</g>
<!-- Node1&#45;&gt;Node33 -->
<g id="edge63_Node000001_Node000033" class="edge">
<title>Node1&#45;&gt;Node33</title>
<g id="a_edge63_Node000001_Node000033"><a xlink:title=" ">
<path fill="none" stroke="#63b8ff" d="M429.19,-293.21C652.27,-289.06 1321.62,-274.83 1538,-250 1539.26,-249.86 1540.54,-249.69 1541.83,-249.52"/>
<polygon fill="#63b8ff" stroke="#63b8ff" points="1542.46,-252.96 1551.8,-247.97 1541.38,-246.05 1542.46,-252.96"/>
</a>
</g>
</g>
<!-- Node3&#45;&gt;Node4 -->
<g id="edge3_Node000003_Node000004" class="edge">
<title>Node3&#45;&gt;Node4</title>
<g id="a_edge3_Node000003_Node000004"><a xlink:title=" ">
<path fill="none" stroke="#63b8ff" d="M330.7,-230.98C311.46,-223.61 285.12,-211.53 266,-195 243.52,-175.57 236.85,-168.36 228,-140 216.75,-103.94 207.19,-86.53 228,-55 243.8,-31.05 275.45,-19.94 299.71,-14.82"/>
<polygon fill="#63b8ff" stroke="#63b8ff" points="300.39,-18.25 309.58,-12.97 299.11,-11.37 300.39,-18.25"/>
</a>
</g>
</g>
<!-- Node5 -->
<g id="Node000005" class="node">
<title>Node5</title>
<g id="a_Node000005"><a xlink:title=" ">
<polygon fill="#e0e0e0" stroke="#999999" points="673,-19 615,-19 615,0 673,0 673,-19"/>
<text text-anchor="middle" x="644" y="-7" font-family="Helvetica,sans-Serif" font-size="10.00">memory</text>
</a>
</g>
</g>
<!-- Node3&#45;&gt;Node5 -->
<g id="edge4_Node000003_Node000005" class="edge">
<title>Node3&#45;&gt;Node5</title>
<g id="a_edge4_Node000003_Node000005"><a xlink:title=" ">
<path fill="none" stroke="#63b8ff" d="M348.42,-230.98C323.96,-202.47 251.4,-109.13 299,-55 299,-55 514.32,-27.23 604.75,-15.56"/>
<polygon fill="#63b8ff" stroke="#63b8ff" points="605.41,-19.01 614.88,-14.26 604.52,-12.06 605.41,-19.01"/>
</a>
</g>
</g>
<!-- Node3&#45;&gt;Node6 -->
<g id="edge5_Node000003_Node000006" class="edge">
<title>Node3&#45;&gt;Node6</title>
<g id="a_edge5_Node000003_Node000006"><a xlink:title=" ">
<path fill="none" stroke="#63b8ff" d="M354.78,-230.63C351.04,-203.52 339.7,-121.32 334.57,-84.13"/>
<polygon fill="#63b8ff" stroke="#63b8ff" points="338.03,-83.57 333.19,-74.14 331.09,-84.53 338.03,-83.57"/>
</a>
</g>
</g>
<!-- Node7 -->
<g id="Node000007" class="node">
<title>Node7</title>
<g id="a_Node000007"><a xlink:href="member_8h.html" target="_top" xlink:title=" ">
<polygon fill="white" stroke="#666666" points="668,-195 602,-195 602,-176 668,-176 668,-195"/>
<text text-anchor="middle" x="635" y="-183" font-family="Helvetica,sans-Serif" font-size="10.00">member.h</text>
</a>
</g>
</g>
<!-- Node3&#45;&gt;Node7 -->
<g id="edge6_Node000003_Node000007" class="edge">
<title>Node3&#45;&gt;Node7</title>
<g id="a_edge6_Node000003_Node000007"><a xlink:title=" ">
<path fill="none" stroke="#63b8ff" d="M400.83,-230.98C453.39,-221 539.91,-204.56 591.78,-194.71"/>
<polygon fill="#63b8ff" stroke="#63b8ff" points="592.5,-198.14 601.67,-192.83 591.19,-191.26 592.5,-198.14"/>
</a>
</g>
</g>
<!-- Node12 -->
<g id="Node000012" class="node">
<title>Node12</title>
<g id="a_Node000012"><a xlink:href="webcface-config_8h.html" target="_top" xlink:title=" ">
<polygon fill="white" stroke="#666666" points="1090.5,-19 985.5,-19 985.5,0 1090.5,0 1090.5,-19"/>
<text text-anchor="middle" x="1038" y="-7" font-family="Helvetica,sans-Serif" font-size="10.00">webcface&#45;config.h</text>
</a>
</g>
</g>
<!-- Node3&#45;&gt;Node12 -->
<g id="edge26_Node000003_Node000012" class="edge">
<title>Node3&#45;&gt;Node12</title>
<g id="a_edge26_Node000003_Node000012"><a xlink:title=" ">
<path fill="none" stroke="#63b8ff" d="M407.27,-238.38C586.81,-233.84 1185.74,-213.42 1361,-140 1404.79,-121.65 1424.25,-116.7 1445,-74 1448.69,-66.41 1450.64,-61.29 1445,-55 1422.48,-29.88 1209.47,-17.54 1100.93,-12.84"/>
<polygon fill="#63b8ff" stroke="#63b8ff" points="1100.9,-9.34 1090.76,-12.41 1100.6,-16.33 1100.9,-9.34"/>
</a>
</g>
</g>
<!-- Node7&#45;&gt;Node4 -->
<g id="edge8_Node000007_Node000004" class="edge">
<title>Node7&#45;&gt;Node4</title>
<g id="a_edge8_Node000007_Node000004"><a xlink:title=" ">
<path fill="none" stroke="#63b8ff" d="M601.81,-178.94C523.77,-165.09 332.69,-126.35 299,-74 289.09,-58.6 301.53,-39.88 313.87,-26.77"/>
<polygon fill="#63b8ff" stroke="#63b8ff" points="316.68,-28.92 321.34,-19.41 311.76,-23.94 316.68,-28.92"/>
</a>
</g>
</g>
<!-- Node7&#45;&gt;Node6 -->
<g id="edge9_Node000007_Node000006" class="edge">
<title>Node7&#45;&gt;Node6</title>
<g id="a_edge9_Node000007_Node000006"><a xlink:title=" ">
<path fill="none" stroke="#63b8ff" d="M613.21,-175.94C560.38,-155.19 425.3,-102.14 363.6,-77.91"/>
<polygon fill="#63b8ff" stroke="#63b8ff" points="364.59,-74.54 354,-74.14 362.03,-81.05 364.59,-74.54"/>
</a>
</g>
</g>
<!-- Node8 -->
<g id="Node000008" class="node">
<title>Node8</title>
<g id="a_Node000008"><a xlink:title=" ">
<polygon fill="#e0e0e0" stroke="#999999" points="828.5,-134.5 763.5,-134.5 763.5,-115.5 828.5,-115.5 828.5,-134.5"/>
<text text-anchor="middle" x="796" y="-122.5" font-family="Helvetica,sans-Serif" font-size="10.00">functional</text>
</a>
</g>
</g>
<!-- Node7&#45;&gt;Node8 -->
<g id="edge7_Node000007_Node000008" class="edge">
<title>Node7&#45;&gt;Node8</title>
<g id="a_edge7_Node000007_Node000008"><a xlink:title=" ">
<path fill="none" stroke="#63b8ff" d="M658.41,-175.99C685.95,-165.99 731.87,-149.3 763.01,-137.99"/>
<polygon fill="#63b8ff" stroke="#63b8ff" points="764.36,-141.22 772.56,-134.52 761.97,-134.64 764.36,-141.22"/>
</a>
</g>
</g>
<!-- Node9 -->
<g id="Node000009" class="node">
<title>Node9</title>
<g id="a_Node000009"><a xlink:title=" ">
<polygon fill="#e0e0e0" stroke="#999999" points="745,-134.5 689,-134.5 689,-115.5 745,-115.5 745,-134.5"/>
<text text-anchor="middle" x="717" y="-122.5" font-family="Helvetica,sans-Serif" font-size="10.00">optional</text>
</a>
</g>
</g>
<!-- Node7&#45;&gt;Node9 -->
<g id="edge10_Node000007_Node000009" class="edge">
<title>Node7&#45;&gt;Node9</title>
<g id="a_edge10_Node000007_Node000009"><a xlink:title=" ">
<path fill="none" stroke="#63b8ff" d="M647.1,-175.87C660.06,-166.62 680.86,-151.78 696.4,-140.69"/>
<polygon fill="#63b8ff" stroke="#63b8ff" points="698.74,-143.32 704.85,-134.67 694.68,-137.63 698.74,-143.32"/>
</a>
</g>
</g>
<!-- Node10 -->
<g id="Node000010" class="node">
<title>Node10</title>
<g id="a_Node000010"><a xlink:title=" ">
<polygon fill="#e0e0e0" stroke="#999999" points="897,-134.5 847,-134.5 847,-115.5 897,-115.5 897,-134.5"/>
<text text-anchor="middle" x="872" y="-122.5" font-family="Helvetica,sans-Serif" font-size="10.00">chrono</text>
</a>
</g>
</g>
<!-- Node7&#45;&gt;Node10 -->
<g id="edge11_Node000007_Node000010" class="edge">
<title>Node7&#45;&gt;Node10</title>
<g id="a_edge11_Node000007_Node000010"><a xlink:title=" ">
<path fill="none" stroke="#63b8ff" d="M668.32,-178.89C708.72,-171.69 778.66,-157.96 837,-140 838.88,-139.42 840.79,-138.79 842.72,-138.12"/>
<polygon fill="#63b8ff" stroke="#63b8ff" points="844.07,-141.35 852.21,-134.57 841.62,-134.79 844.07,-141.35"/>
</a>
</g>
</g>
<!-- Node11 -->
<g id="Node000011" class="node">
<title>Node11</title>
<g id="a_Node000011"><a xlink:href="field_8h.html" target="_top" xlink:title=" ">
<polygon fill="white" stroke="#666666" points="632.5,-134.5 585.5,-134.5 585.5,-115.5 632.5,-115.5 632.5,-134.5"/>
<text text-anchor="middle" x="609" y="-122.5" font-family="Helvetica,sans-Serif" font-size="10.00">field.h</text>
</a>
</g>
</g>
<!-- Node7&#45;&gt;Node11 -->
<g id="edge12_Node000007_Node000011" class="edge">
<title>Node7&#45;&gt;Node11</title>
<g id="a_edge12_Node000007_Node000011"><a xlink:title=" ">
<path fill="none" stroke="#63b8ff" d="M631.16,-175.87C627.44,-167.49 621.67,-154.51 616.95,-143.89"/>
<polygon fill="#63b8ff" stroke="#63b8ff" points="620.11,-142.38 612.85,-134.67 613.72,-145.23 620.11,-142.38"/>
</a>
</g>
</g>
<!-- Node7&#45;&gt;Node12 -->
<g id="edge25_Node000007_Node000012" class="edge">
<title>Node7&#45;&gt;Node12</title>
<g id="a_edge25_Node000007_Node000012"><a xlink:title=" ">
<path fill="none" stroke="#63b8ff" d="M637.46,-175.81C642.5,-159.77 655.63,-125.73 680,-110 793.19,-36.93 861.44,-136.12 981,-74 1001.06,-63.58 1017.45,-43.02 1027.43,-28.12"/>
<polygon fill="#63b8ff" stroke="#63b8ff" points="1030.62,-29.62 1033.03,-19.3 1024.71,-25.86 1030.62,-29.62"/>
</a>
</g>
</g>
<!-- Node11&#45;&gt;Node4 -->
<g id="edge14_Node000011_Node000004" class="edge">
<title>Node11&#45;&gt;Node4</title>
<g id="a_edge14_Node000011_Node000004"><a xlink:title=" ">
<path fill="none" stroke="#63b8ff" d="M585.2,-121.58C546.29,-116.89 467.47,-104.2 408,-74 384.2,-61.91 361.32,-41.13 346.99,-26.65"/>
<polygon fill="#63b8ff" stroke="#63b8ff" points="349.42,-24.12 339.96,-19.34 344.37,-28.98 349.42,-24.12"/>
</a>
</g>
</g>
<!-- Node11&#45;&gt;Node5 -->
<g id="edge13_Node000011_Node000005" class="edge">
<title>Node11&#45;&gt;Node5</title>
<g id="a_edge13_Node000011_Node000005"><a xlink:title=" ">
<path fill="none" stroke="#63b8ff" d="M611.63,-115.47C617.28,-97.15 630.68,-53.68 638.35,-28.81"/>
<polygon fill="#63b8ff" stroke="#63b8ff" points="641.74,-29.72 641.34,-19.13 635.05,-27.65 641.74,-29.72"/>
</a>
</g>
</g>
<!-- Node11&#45;&gt;Node6 -->
<g id="edge15_Node000011_Node000006" class="edge">
<title>Node11&#45;&gt;Node6</title>
<g id="a_edge15_Node000011_Node000006"><a xlink:title=" ">
<path fill="none" stroke="#63b8ff" d="M585.23,-119.14C542.24,-110.33 448.72,-91.04 370,-74 368.55,-73.69 367.08,-73.37 365.59,-73.04"/>
<polygon fill="#63b8ff" stroke="#63b8ff" points="366.23,-69.6 355.71,-70.86 364.71,-76.43 366.23,-69.6"/>
</a>
</g>
</g>
<!-- Node11&#45;&gt;Node12 -->
<g id="edge16_Node000011_Node000012" class="edge">
<title>Node11&#45;&gt;Node12</title>
<g id="a_edge16_Node000011_Node000012"><a xlink:title=" ">
<path fill="none" stroke="#63b8ff" d="M630.07,-115.4C635.52,-113.4 641.42,-111.45 647,-110 747.58,-83.91 778.86,-105.1 878,-74 896.4,-68.23 899.26,-62.56 917,-55 945.41,-42.89 978.35,-30.91 1002.68,-22.43"/>
<polygon fill="#63b8ff" stroke="#63b8ff" points="1003.9,-25.71 1012.21,-19.14 1001.62,-19.1 1003.9,-25.71"/>
</a>
</g>
</g>
<!-- Node13 -->
<g id="Node000013" class="node">
<title>Node13</title>
<g id="a_Node000013"><a xlink:href="common_2encoding_8h.html" target="_top" xlink:title=" ">
<polygon fill="white" stroke="#666666" points="615.5,-74 450.5,-74 450.5,-55 615.5,-55 615.5,-74"/>
<text text-anchor="middle" x="533" y="-62" font-family="Helvetica,sans-Serif" font-size="10.00">webcface/common/encoding.h</text>
</a>
</g>
</g>
<!-- Node11&#45;&gt;Node13 -->
<g id="edge17_Node000011_Node000013" class="edge">
<title>Node11&#45;&gt;Node13</title>
<g id="a_edge17_Node000011_Node000013"><a xlink:title=" ">
<path fill="none" stroke="#63b8ff" d="M597.79,-115.37C585.89,-106.21 566.86,-91.56 552.49,-80.51"/>
<polygon fill="#63b8ff" stroke="#63b8ff" points="554.32,-77.49 544.26,-74.17 550.05,-83.04 554.32,-77.49"/>
</a>
</g>
</g>
<!-- Node15 -->
<g id="Node000015" class="node">
<title>Node15</title>
<g id="a_Node000015"><a xlink:href="complete_8h.html" target="_top" xlink:title=" ">
<polygon fill="white" stroke="#666666" points="869.5,-74 748.5,-74 748.5,-55 869.5,-55 869.5,-74"/>
<text text-anchor="middle" x="809" y="-62" font-family="Helvetica,sans-Serif" font-size="10.00">webcface/complete.h</text>
</a>
</g>
</g>
<!-- Node11&#45;&gt;Node15 -->
<g id="edge22_Node000011_Node000015" class="edge">
<title>Node11&#45;&gt;Node15</title>
<g id="a_edge22_Node000011_Node000015"><a xlink:title=" ">
<path fill="none" stroke="#63b8ff" d="M631.4,-115.39C636.5,-113.53 641.91,-111.63 647,-110 686.51,-97.32 732.15,-84.99 764.89,-76.54"/>
<polygon fill="#63b8ff" stroke="#63b8ff" points="765.8,-79.91 774.62,-74.04 764.06,-73.13 765.8,-79.91"/>
</a>
</g>
</g>
<!-- Node13&#45;&gt;Node4 -->
<g id="edge18_Node000013_Node000004" class="edge">
<title>Node13&#45;&gt;Node4</title>
<g id="a_edge18_Node000013_Node000004"><a xlink:title=" ">
<path fill="none" stroke="#63b8ff" d="M500.71,-54.98C463.17,-45.09 401.61,-28.86 364.15,-18.98"/>
<polygon fill="#63b8ff" stroke="#63b8ff" points="364.82,-15.53 354.26,-16.37 363.03,-22.3 364.82,-15.53"/>
</a>
</g>
</g>
<!-- Node13&#45;&gt;Node5 -->
<g id="edge20_Node000013_Node000005" class="edge">
<title>Node13&#45;&gt;Node5</title>
<g id="a_edge20_Node000013_Node000005"><a xlink:title=" ">
<path fill="none" stroke="#63b8ff" d="M550.83,-54.98C568.61,-46.5 596.15,-33.35 616.68,-23.54"/>
<polygon fill="#63b8ff" stroke="#63b8ff" points="618.33,-26.64 625.84,-19.17 615.31,-20.32 618.33,-26.64"/>
</a>
</g>
</g>
<!-- Node13&#45;&gt;Node12 -->
<g id="edge21_Node000013_Node000012" class="edge">
<title>Node13&#45;&gt;Node12</title>
<g id="a_edge21_Node000013_Node000012"><a xlink:title=" ">
<path fill="none" stroke="#63b8ff" d="M614.14,-54.98C714.68,-44.43 883.85,-26.68 975.11,-17.1"/>
<polygon fill="#63b8ff" stroke="#63b8ff" points="975.72,-20.56 985.3,-16.03 974.99,-13.59 975.72,-20.56"/>
</a>
</g>
</g>
<!-- Node14 -->
<g id="Node000014" class="node">
<title>Node14</title>
<g id="a_Node000014"><a xlink:title=" ">
<polygon fill="#e0e0e0" stroke="#999999" points="569.5,-19 496.5,-19 496.5,0 569.5,0 569.5,-19"/>
<text text-anchor="middle" x="533" y="-7" font-family="Helvetica,sans-Serif" font-size="10.00">string_view</text>
</a>
</g>
</g>
<!-- Node13&#45;&gt;Node14 -->
<g id="edge19_Node000013_Node000014" class="edge">
<title>Node13&#45;&gt;Node14</title>
<g id="a_edge19_Node000013_Node000014"><a xlink:title=" ">
<path fill="none" stroke="#63b8ff" d="M533,-54.75C533,-47.8 533,-37.85 533,-29.13"/>
<polygon fill="#63b8ff" stroke="#63b8ff" points="536.5,-29.09 533,-19.09 529.5,-29.09 536.5,-29.09"/>
</a>
</g>
</g>
<!-- Node15&#45;&gt;Node12 -->
<g id="edge24_Node000015_Node000012" class="edge">
<title>Node15&#45;&gt;Node12</title>
<g id="a_edge24_Node000015_Node000012"><a xlink:title=" ">
<path fill="none" stroke="#63b8ff" d="M845.79,-54.98C885.24,-45.86 947.98,-31.33 990.98,-21.38"/>
<polygon fill="#63b8ff" stroke="#63b8ff" points="991.97,-24.75 1000.92,-19.08 990.39,-17.93 991.97,-24.75"/>
</a>
</g>
</g>
<!-- Node16 -->
<g id="Node000016" class="node">
<title>Node16</title>
<g id="a_Node000016"><a xlink:title=" ">
<polygon fill="#e0e0e0" stroke="#999999" points="901.5,-19 848.5,-19 848.5,0 901.5,0 901.5,-19"/>
<text text-anchor="middle" x="875" y="-7" font-family="Helvetica,sans-Serif" font-size="10.00">cstddef</text>
</a>
</g>
</g>
<!-- Node15&#45;&gt;Node16 -->
<g id="edge23_Node000015_Node000016" class="edge">
<title>Node15&#45;&gt;Node16</title>
<g id="a_edge23_Node000015_Node000016"><a xlink:title=" ">
<path fill="none" stroke="#63b8ff" d="M819.6,-54.98C829.46,-47.07 844.35,-35.11 856.22,-25.58"/>
<polygon fill="#63b8ff" stroke="#63b8ff" points="858.6,-28.16 864.2,-19.17 854.21,-22.7 858.6,-28.16"/>
</a>
</g>
</g>
<!-- Node17&#45;&gt;Node8 -->
<g id="edge28_Node000017_Node000008" class="edge">
<title>Node17&#45;&gt;Node8</title>
<g id="a_edge28_Node000017_Node000008"><a xlink:title=" ">
<path fill="none" stroke="#63b8ff" d="M860.79,-175.87C848.89,-166.71 829.86,-152.06 815.49,-141.01"/>
<polygon fill="#63b8ff" stroke="#63b8ff" points="817.32,-137.99 807.26,-134.67 813.05,-143.54 817.32,-137.99"/>
</a>
</g>
</g>
<!-- Node17&#45;&gt;Node9 -->
<g id="edge30_Node000017_Node000009" class="edge">
<title>Node17&#45;&gt;Node9</title>
<g id="a_edge30_Node000017_Node000009"><a xlink:title=" ">
<path fill="none" stroke="#63b8ff" d="M849.38,-175.98C825.62,-167.02 787.18,-152.53 754,-140 752.41,-139.4 750.78,-138.78 749.14,-138.16"/>
<polygon fill="#63b8ff" stroke="#63b8ff" points="750.29,-134.86 739.7,-134.59 747.81,-141.4 750.29,-134.86"/>
</a>
</g>
</g>
<!-- Node17&#45;&gt;Node10 -->
<g id="edge31_Node000017_Node000010" class="edge">
<title>Node17&#45;&gt;Node10</title>
<g id="a_edge31_Node000017_Node000010"><a xlink:title=" ">
<path fill="none" stroke="#63b8ff" d="M872,-175.87C872,-167.75 872,-155.31 872,-144.89"/>
<polygon fill="#63b8ff" stroke="#63b8ff" points="875.5,-144.67 872,-134.67 868.5,-144.67 875.5,-144.67"/>
</a>
</g>
</g>
<!-- Node17&#45;&gt;Node11 -->
<g id="edge32_Node000017_Node000011" class="edge">
<title>Node17&#45;&gt;Node11</title>
<g id="a_edge32_Node000017_Node000011"><a xlink:title=" ">
<path fill="none" stroke="#63b8ff" d="M833.76,-175.99C782.28,-164.54 691.54,-144.36 642.57,-133.47"/>
<polygon fill="#63b8ff" stroke="#63b8ff" points="643.31,-130.05 632.79,-131.29 641.79,-136.88 643.31,-130.05"/>
</a>
</g>
</g>
<!-- Node17&#45;&gt;Node12 -->
<g id="edge50_Node000017_Node000012" class="edge">
<title>Node17&#45;&gt;Node12</title>
<g id="a_edge50_Node000017_Node000012"><a xlink:title=" ">
<path fill="none" stroke="#63b8ff" d="M923.05,-183.24C1050.22,-178.83 1374.77,-159.26 1429,-74 1464.91,-17.54 1220.35,-10.23 1100.92,-9.96"/>
<polygon fill="#63b8ff" stroke="#63b8ff" points="1100.81,-6.46 1090.81,-9.96 1100.81,-13.46 1100.81,-6.46"/>
</a>
</g>
</g>
<!-- Node18 -->
<g id="Node000018" class="node">
<title>Node18</title>
<g id="a_Node000018"><a xlink:title=" ">
<polygon fill="#e0e0e0" stroke="#999999" points="1279.5,-134.5 1222.5,-134.5 1222.5,-115.5 1279.5,-115.5 1279.5,-134.5"/>
<text text-anchor="middle" x="1251" y="-122.5" font-family="Helvetica,sans-Serif" font-size="10.00">ostream</text>
</a>
</g>
</g>
<!-- Node17&#45;&gt;Node18 -->
<g id="edge29_Node000017_Node000018" class="edge">
<title>Node17&#45;&gt;Node18</title>
<g id="a_edge29_Node000017_Node000018"><a xlink:title=" ">
<path fill="none" stroke="#63b8ff" d="M923.21,-181.39C990.5,-176.5 1111.98,-164.87 1213,-140 1215.51,-139.38 1218.08,-138.65 1220.65,-137.86"/>
<polygon fill="#63b8ff" stroke="#63b8ff" points="1222.01,-141.09 1230.36,-134.56 1219.76,-134.46 1222.01,-141.09"/>
</a>
</g>
</g>
<!-- Node19 -->
<g id="Node000019" class="node">
<title>Node19</title>
<g id="a_Node000019"><a xlink:href="array__like_8h.html" target="_top" xlink:title=" ">
<polygon fill="white" stroke="#666666" points="1204.5,-140 1067.5,-140 1067.5,-110 1204.5,-110 1204.5,-140"/>
<text text-anchor="start" x="1075.5" y="-128" font-family="Helvetica,sans-Serif" font-size="10.00">webcface/common/array</text>
<text text-anchor="middle" x="1136" y="-117" font-family="Helvetica,sans-Serif" font-size="10.00">_like.h</text>
</a>
</g>
</g>
<!-- Node17&#45;&gt;Node19 -->
<g id="edge33_Node000017_Node000019" class="edge">
<title>Node17&#45;&gt;Node19</title>
<g id="a_edge33_Node000017_Node000019"><a xlink:title=" ">
<path fill="none" stroke="#63b8ff" d="M910.39,-175.99C950.19,-167.17 1013.39,-153.17 1062.79,-142.22"/>
<polygon fill="#63b8ff" stroke="#63b8ff" points="1063.78,-145.59 1072.79,-140.01 1062.27,-138.75 1063.78,-145.59"/>
</a>
</g>
</g>
<!-- Node25 -->
<g id="Node000025" class="node">
<title>Node25</title>
<g id="a_Node000025"><a xlink:href="num__vector_8h.html" target="_top" xlink:title=" ">
<polygon fill="white" stroke="#666666" points="1049,-140 915,-140 915,-110 1049,-110 1049,-140"/>
<text text-anchor="start" x="923" y="-128" font-family="Helvetica,sans-Serif" font-size="10.00">webcface/common/num</text>
<text text-anchor="middle" x="982" y="-117" font-family="Helvetica,sans-Serif" font-size="10.00">_vector.h</text>
</a>
</g>
</g>
<!-- Node17&#45;&gt;Node25 -->
<g id="edge46_Node000017_Node000025" class="edge">
<title>Node17&#45;&gt;Node25</title>
<g id="a_edge46_Node000017_Node000025"><a xlink:title=" ">
<path fill="none" stroke="#63b8ff" d="M888.23,-175.87C903.5,-167.75 926.89,-155.31 946.48,-144.89"/>
<polygon fill="#63b8ff" stroke="#63b8ff" points="948.27,-147.9 955.46,-140.11 944.99,-141.72 948.27,-147.9"/>
</a>
</g>
</g>
<!-- Node19&#45;&gt;Node4 -->
<g id="edge38_Node000019_Node000004" class="edge">
<title>Node19&#45;&gt;Node4</title>
<g id="a_edge38_Node000019_Node000004"><a xlink:title=" ">
<path fill="none" stroke="#63b8ff" d="M1067.16,-111.19C1064.07,-110.75 1061.01,-110.36 1058,-110 921.61,-93.84 572.5,-113.65 441,-74 439.83,-73.65 386.83,-42.64 355.17,-24.09"/>
<polygon fill="#63b8ff" stroke="#63b8ff" points="356.89,-21.04 346.49,-19 353.35,-27.08 356.89,-21.04"/>
</a>
</g>
</g>
<!-- Node19&#45;&gt;Node6 -->
<g id="edge35_Node000019_Node000006" class="edge">
<title>Node19&#45;&gt;Node6</title>
<g id="a_edge35_Node000019_Node000006"><a xlink:title=" ">
<path fill="none" stroke="#63b8ff" d="M1067.16,-111.17C1064.07,-110.75 1061.01,-110.35 1058,-110 770.63,-76.38 696.33,-98.09 408,-74 394.12,-72.84 378.84,-71.2 365.65,-69.67"/>
<polygon fill="#63b8ff" stroke="#63b8ff" points="365.93,-66.18 355.59,-68.48 365.11,-73.13 365.93,-66.18"/>
</a>
</g>
</g>
<!-- Node19&#45;&gt;Node12 -->
<g id="edge45_Node000019_Node000012" class="edge">
<title>Node19&#45;&gt;Node12</title>
<g id="a_edge45_Node000019_Node000012"><a xlink:title=" ">
<path fill="none" stroke="#63b8ff" d="M1167.22,-109.98C1192.33,-96.72 1221,-75.82 1205,-55 1192.05,-38.15 1142.31,-26.32 1100.45,-19.12"/>
<polygon fill="#63b8ff" stroke="#63b8ff" points="1100.99,-15.66 1090.56,-17.48 1099.85,-22.57 1100.99,-15.66"/>
</a>
</g>
</g>
<!-- Node20 -->
<g id="Node000020" class="node">
<title>Node20</title>
<g id="a_Node000020"><a xlink:title=" ">
<polygon fill="#e0e0e0" stroke="#999999" points="1462.5,-19 1397.5,-19 1397.5,0 1462.5,0 1462.5,-19"/>
<text text-anchor="middle" x="1430" y="-7" font-family="Helvetica,sans-Serif" font-size="10.00">stdexcept</text>
</a>
</g>
</g>
<!-- Node19&#45;&gt;Node20 -->
<g id="edge34_Node000019_Node000020" class="edge">
<title>Node19&#45;&gt;Node20</title>
<g id="a_edge34_Node000019_Node000020"><a xlink:title=" ">
<path fill="none" stroke="#63b8ff" d="M1204.84,-111.43C1207.59,-110.95 1210.32,-110.47 1213,-110 1260.94,-101.65 1397.25,-110.88 1429,-74 1439.44,-61.87 1438.36,-43.07 1435.47,-29.07"/>
<polygon fill="#63b8ff" stroke="#63b8ff" points="1438.79,-27.93 1432.95,-19.09 1432.01,-29.65 1438.79,-27.93"/>
</a>
</g>
</g>
<!-- Node21 -->
<g id="Node000021" class="node">
<title>Node21</title>
<g id="a_Node000021"><a xlink:title=" ">
<polygon fill="#e0e0e0" stroke="#999999" points="1196,-74 1154,-74 1154,-55 1196,-55 1196,-74"/>
<text text-anchor="middle" x="1175" y="-62" font-family="Helvetica,sans-Serif" font-size="10.00">array</text>
</a>
</g>
</g>
<!-- Node19&#45;&gt;Node21 -->
<g id="edge36_Node000019_Node000021" class="edge">
<title>Node19&#45;&gt;Node21</title>
<g id="a_edge36_Node000019_Node000021"><a xlink:title=" ">
<path fill="none" stroke="#63b8ff" d="M1145.44,-109.84C1150.87,-101.69 1157.73,-91.4 1163.48,-82.78"/>
<polygon fill="#63b8ff" stroke="#63b8ff" points="1166.52,-84.53 1169.16,-74.27 1160.7,-80.65 1166.52,-84.53"/>
</a>
</g>
</g>
<!-- Node22 -->
<g id="Node000022" class="node">
<title>Node22</title>
<g id="a_Node000022"><a xlink:title=" ">
<polygon fill="#e0e0e0" stroke="#999999" points="1135.5,-74 1066.5,-74 1066.5,-55 1135.5,-55 1135.5,-74"/>
<text text-anchor="middle" x="1101" y="-62" font-family="Helvetica,sans-Serif" font-size="10.00">type_traits</text>
</a>
</g>
</g>
<!-- Node19&#45;&gt;Node22 -->
<g id="edge37_Node000019_Node000022" class="edge">
<title>Node19&#45;&gt;Node22</title>
<g id="a_edge37_Node000019_Node000022"><a xlink:title=" ">
<path fill="none" stroke="#63b8ff" d="M1127.53,-109.84C1122.71,-101.78 1116.63,-91.62 1111.5,-83.06"/>
<polygon fill="#63b8ff" stroke="#63b8ff" points="1114.38,-81.05 1106.24,-74.27 1108.38,-84.64 1114.38,-81.05"/>
</a>
</g>
</g>
<!-- Node23 -->
<g id="Node000023" class="node">
<title>Node23</title>
<g id="a_Node000023"><a xlink:href="trait_8h.html" target="_top" xlink:title=" ">
<polygon fill="white" stroke="#666666" points="972,-74 926,-74 926,-55 972,-55 972,-74"/>
<text text-anchor="middle" x="949" y="-62" font-family="Helvetica,sans-Serif" font-size="10.00">trait.h</text>
</a>
</g>
</g>
<!-- Node19&#45;&gt;Node23 -->
<g id="edge39_Node000019_Node000023" class="edge">
<title>Node19&#45;&gt;Node23</title>
<g id="a_edge39_Node000019_Node000023"><a xlink:title=" ">
<path fill="none" stroke="#63b8ff" d="M1091.21,-109.99C1057.52,-99.45 1012.13,-85.25 981.78,-75.76"/>
<polygon fill="#63b8ff" stroke="#63b8ff" points="982.7,-72.37 972.11,-72.73 980.61,-79.05 982.7,-72.37"/>
</a>
</g>
</g>
<!-- Node24 -->
<g id="Node000024" class="node">
<title>Node24</title>
<g id="a_Node000024"><a xlink:href="common_2include_2webcface_2common_2exception_8h.html" target="_top" xlink:title=" ">
<polygon fill="white" stroke="#666666" points="1420.5,-74 1251.5,-74 1251.5,-55 1420.5,-55 1420.5,-74"/>
<text text-anchor="middle" x="1336" y="-62" font-family="Helvetica,sans-Serif" font-size="10.00">webcface/common/exception.h</text>
</a>
</g>
</g>
<!-- Node19&#45;&gt;Node24 -->
<g id="edge42_Node000019_Node000024" class="edge">
<title>Node19&#45;&gt;Node24</title>
<g id="a_edge42_Node000019_Node000024"><a xlink:title=" ">
<path fill="none" stroke="#63b8ff" d="M1183.9,-109.99C1218.42,-99.89 1264.42,-86.44 1296.77,-76.98"/>
<polygon fill="#63b8ff" stroke="#63b8ff" points="1298.14,-80.22 1306.76,-74.05 1296.18,-73.5 1298.14,-80.22"/>
</a>
</g>
</g>
<!-- Node23&#45;&gt;Node12 -->
<g id="edge41_Node000023_Node000012" class="edge">
<title>Node23&#45;&gt;Node12</title>
<g id="a_edge41_Node000023_Node000012"><a xlink:title=" ">
<path fill="none" stroke="#63b8ff" d="M963.3,-54.98C977.1,-46.77 998.24,-34.18 1014.51,-24.49"/>
<polygon fill="#63b8ff" stroke="#63b8ff" points="1016.64,-27.29 1023.44,-19.17 1013.06,-21.28 1016.64,-27.29"/>
</a>
</g>
</g>
<!-- Node23&#45;&gt;Node16 -->
<g id="edge40_Node000023_Node000016" class="edge">
<title>Node23&#45;&gt;Node16</title>
<g id="a_edge40_Node000023_Node000016"><a xlink:title=" ">
<path fill="none" stroke="#63b8ff" d="M937.11,-54.98C925.85,-46.92 908.71,-34.65 895.29,-25.03"/>
<polygon fill="#63b8ff" stroke="#63b8ff" points="897.27,-22.15 887.11,-19.17 893.2,-27.84 897.27,-22.15"/>
</a>
</g>
</g>
<!-- Node24&#45;&gt;Node12 -->
<g id="edge43_Node000024_Node000012" class="edge">
<title>Node24&#45;&gt;Node12</title>
<g id="a_edge43_Node000024_Node000012"><a xlink:title=" ">
<path fill="none" stroke="#63b8ff" d="M1288.12,-54.98C1235.92,-45.7 1152.38,-30.84 1096.38,-20.88"/>
<polygon fill="#63b8ff" stroke="#63b8ff" points="1096.71,-17.39 1086.25,-19.08 1095.49,-24.28 1096.71,-17.39"/>
</a>
</g>
</g>
<!-- Node24&#45;&gt;Node20 -->
<g id="edge44_Node000024_Node000020" class="edge">
<title>Node24&#45;&gt;Node20</title>
<g id="a_edge44_Node000024_Node000020"><a xlink:title=" ">
<path fill="none" stroke="#63b8ff" d="M1351.1,-54.98C1365.82,-46.69 1388.42,-33.94 1405.67,-24.22"/>
<polygon fill="#63b8ff" stroke="#63b8ff" points="1407.63,-27.13 1414.62,-19.17 1404.19,-21.03 1407.63,-27.13"/>
</a>
</g>
</g>
<!-- Node25&#45;&gt;Node5 -->
<g id="edge47_Node000025_Node000005" class="edge">
<title>Node25&#45;&gt;Node5</title>
<g id="a_edge47_Node000025_Node000005"><a xlink:title=" ">
<path fill="none" stroke="#63b8ff" d="M914.87,-111.62C911.87,-111.07 908.9,-110.53 906,-110 817.14,-93.82 785.79,-116.32 706,-74 685.03,-62.88 666.85,-42.15 655.69,-27.4"/>
<polygon fill="#63b8ff" stroke="#63b8ff" points="658.4,-25.17 649.69,-19.13 652.73,-29.28 658.4,-25.17"/>
</a>
</g>
</g>
<!-- Node25&#45;&gt;Node6 -->
<g id="edge48_Node000025_Node000006" class="edge">
<title>Node25&#45;&gt;Node6</title>
<g id="a_edge48_Node000025_Node000006"><a xlink:title=" ">
<path fill="none" stroke="#63b8ff" d="M914.93,-111.23C911.91,-110.79 908.93,-110.37 906,-110 685.88,-81.86 628.98,-94.34 408,-74 394.13,-72.72 378.85,-71.06 365.66,-69.55"/>
<polygon fill="#63b8ff" stroke="#63b8ff" points="365.93,-66.06 355.6,-68.38 365.13,-73.01 365.93,-66.06"/>
</a>
</g>
</g>
<!-- Node25&#45;&gt;Node12 -->
<g id="edge49_Node000025_Node000012" class="edge">
<title>Node25&#45;&gt;Node12</title>
<g id="a_edge49_Node000025_Node000012"><a xlink:title=" ">
<path fill="none" stroke="#63b8ff" d="M992.36,-109.6C999.07,-99.85 1007.71,-86.53 1014,-74 1021.35,-59.35 1027.8,-41.88 1032.16,-28.98"/>
<polygon fill="#63b8ff" stroke="#63b8ff" points="1035.51,-29.96 1035.3,-19.37 1028.86,-27.79 1035.51,-29.96"/>
</a>
</g>
</g>
<!-- Node26&#45;&gt;Node5 -->
<g id="edge57_Node000026_Node000005" class="edge">
<title>Node26&#45;&gt;Node5</title>
<g id="a_edge57_Node000026_Node000005"><a xlink:title=" ">
<path fill="none" stroke="#63b8ff" d="M1622.42,-121.36C1409.84,-113.17 780.76,-87.88 739,-74 730.79,-71.27 689.66,-42.78 664.29,-24.9"/>
<polygon fill="#63b8ff" stroke="#63b8ff" points="666.23,-21.99 656.05,-19.08 662.19,-27.71 666.23,-21.99"/>
</a>
</g>
</g>
<!-- Node26&#45;&gt;Node6 -->
<g id="edge60_Node000026_Node000006" class="edge">
<title>Node26&#45;&gt;Node6</title>
<g id="a_edge60_Node000026_Node000006"><a xlink:title=" ">
<path fill="none" stroke="#63b8ff" d="M1622.38,-121.57C1394.73,-113.55 673.72,-87.72 441,-74 415.88,-72.52 387.53,-70.29 366.05,-68.49"/>
<polygon fill="#63b8ff" stroke="#63b8ff" points="366.06,-64.98 355.8,-67.62 365.46,-71.95 366.06,-64.98"/>
</a>
</g>
</g>
<!-- Node26&#45;&gt;Node12 -->
<g id="edge52_Node000026_Node000012" class="edge">
<title>Node26&#45;&gt;Node12</title>
<g id="a_edge52_Node000026_Node000012"><a xlink:title=" ">
<path fill="none" stroke="#63b8ff" d="M1673.12,-115.42C1639.23,-100.44 1565.5,-69.68 1500,-55 1359.7,-23.55 1190.53,-14.32 1100.9,-11.62"/>
<polygon fill="#63b8ff" stroke="#63b8ff" points="1100.73,-8.11 1090.63,-11.33 1100.53,-15.11 1100.73,-8.11"/>
</a>
</g>
</g>
<!-- Node27 -->
<g id="Node000027" class="node">
<title>Node27</title>
<g id="a_Node000027"><a xlink:title=" ">
<polygon fill="#e0e0e0" stroke="#999999" points="2020,-74 1916,-74 1916,-55 2020,-55 2020,-74"/>
<text text-anchor="middle" x="1968" y="-62" font-family="Helvetica,sans-Serif" font-size="10.00">spdlog/common.h</text>
</a>
</g>
</g>
<!-- Node26&#45;&gt;Node27 -->
<g id="edge53_Node000026_Node000027" class="edge">
<title>Node26&#45;&gt;Node27</title>
<g id="a_edge53_Node000026_Node000027"><a xlink:title=" ">
<path fill="none" stroke="#63b8ff" d="M1732.13,-115.49C1781.29,-105.07 1864.59,-87.42 1917.9,-76.12"/>
<polygon fill="#63b8ff" stroke="#63b8ff" points="1918.76,-79.51 1927.82,-74.02 1917.31,-72.67 1918.76,-79.51"/>
</a>
</g>
</g>
<!-- Node28 -->
<g id="Node000028" class="node">
<title>Node28</title>
<g id="a_Node000028"><a xlink:title=" ">
<polygon fill="#e0e0e0" stroke="#999999" points="2129.5,-74 2038.5,-74 2038.5,-55 2129.5,-55 2129.5,-74"/>
<text text-anchor="middle" x="2084" y="-62" font-family="Helvetica,sans-Serif" font-size="10.00">spdlog/logger.h</text>
</a>
</g>
</g>
<!-- Node26&#45;&gt;Node28 -->
<g id="edge54_Node000026_Node000028" class="edge">
<title>Node26&#45;&gt;Node28</title>
<g id="a_edge54_Node000026_Node000028"><a xlink:title=" ">
<path fill="none" stroke="#63b8ff" d="M1750.16,-115.48C1815.24,-105.92 1924.12,-89.86 2028.32,-74.1"/>
<polygon fill="#63b8ff" stroke="#63b8ff" points="2029.02,-77.53 2038.38,-72.57 2027.97,-70.61 2029.02,-77.53"/>
</a>
</g>
</g>
<!-- Node29 -->
<g id="Node000029" class="node">
<title>Node29</title>
<g id="a_Node000029"><a xlink:title=" ">
<polygon fill="#e0e0e0" stroke="#999999" points="1697.5,-74 1590.5,-74 1590.5,-55 1697.5,-55 1697.5,-74"/>
<text text-anchor="middle" x="1644" y="-62" font-family="Helvetica,sans-Serif" font-size="10.00">condition_variable</text>
</a>
</g>
</g>
<!-- Node26&#45;&gt;Node29 -->
<g id="edge55_Node000026_Node000029" class="edge">
<title>Node26&#45;&gt;Node29</title>
<g id="a_edge55_Node000026_Node000029"><a xlink:title=" ">
<path fill="none" stroke="#63b8ff" d="M1684.92,-115.37C1677.76,-106.64 1666.51,-92.93 1657.61,-82.09"/>
<polygon fill="#63b8ff" stroke="#63b8ff" points="1660.16,-79.68 1651.11,-74.17 1654.75,-84.12 1660.16,-79.68"/>
</a>
</g>
</g>
<!-- Node30 -->
<g id="Node000030" class="node">
<title>Node30</title>
<g id="a_Node000030"><a xlink:title=" ">
<polygon fill="#e0e0e0" stroke="#999999" points="1764,-74 1716,-74 1716,-55 1764,-55 1764,-74"/>
<text text-anchor="middle" x="1740" y="-62" font-family="Helvetica,sans-Serif" font-size="10.00">mutex</text>
</a>
</g>
</g>
<!-- Node26&#45;&gt;Node30 -->
<g id="edge56_Node000026_Node000030" class="edge">
<title>Node26&#45;&gt;Node30</title>
<g id="a_edge56_Node000026_Node000030"><a xlink:title=" ">
<path fill="none" stroke="#63b8ff" d="M1699.08,-115.37C1706.24,-106.64 1717.49,-92.93 1726.39,-82.09"/>
<polygon fill="#63b8ff" stroke="#63b8ff" points="1729.25,-84.12 1732.89,-74.17 1723.84,-79.68 1729.25,-84.12"/>
</a>
</g>
</g>
<!-- Node31 -->
<g id="Node000031" class="node">
<title>Node31</title>
<g id="a_Node000031"><a xlink:title=" ">
<polygon fill="#e0e0e0" stroke="#999999" points="1830,-74 1782,-74 1782,-55 1830,-55 1830,-74"/>
<text text-anchor="middle" x="1806" y="-62" font-family="Helvetica,sans-Serif" font-size="10.00">thread</text>
</a>
</g>
</g>
<!-- Node26&#45;&gt;Node31 -->
<g id="edge58_Node000026_Node000031" class="edge">
<title>Node26&#45;&gt;Node31</title>
<g id="a_edge58_Node000026_Node000031"><a xlink:title=" ">
<path fill="none" stroke="#63b8ff" d="M1708.82,-115.37C1727.6,-105.73 1758.2,-90.03 1780.05,-78.81"/>
<polygon fill="#63b8ff" stroke="#63b8ff" points="1781.81,-81.85 1789.11,-74.17 1778.61,-75.62 1781.81,-81.85"/>
</a>
</g>
</g>
<!-- Node32 -->
<g id="Node000032" class="node">
<title>Node32</title>
<g id="a_Node000032"><a xlink:title=" ">
<polygon fill="#e0e0e0" stroke="#999999" points="1898,-74 1848,-74 1848,-55 1898,-55 1898,-74"/>
<text text-anchor="middle" x="1873" y="-62" font-family="Helvetica,sans-Serif" font-size="10.00">atomic</text>
</a>
</g>
</g>
<!-- Node26&#45;&gt;Node32 -->
<g id="edge59_Node000026_Node000032" class="edge">
<title>Node26&#45;&gt;Node32</title>
<g id="a_edge59_Node000026_Node000032"><a xlink:title=" ">
<path fill="none" stroke="#63b8ff" d="M1718.32,-115.49C1749.91,-105.28 1802.99,-88.13 1838.01,-76.81"/>
<polygon fill="#63b8ff" stroke="#63b8ff" points="1839.38,-80.05 1847.82,-73.64 1837.22,-73.38 1839.38,-80.05"/>
</a>
</g>
</g>
</g>
</svg>
