<?xml version="1.0" encoding="UTF-8" standalone="no"?>
<!DOCTYPE svg PUBLIC "-//W3C//DTD SVG 1.1//EN"
 "http://www.w3.org/Graphics/SVG/1.1/DTD/svg11.dtd">
<!-- Generated by graphviz version 2.43.0 (0)
 -->
<!-- Title: common/include/webcface/common/internal/message/sync.h Pages: 1 -->
<svg width="820pt" height="192pt"
 viewBox="0.00 0.00 819.50 192.00" xmlns="http://www.w3.org/2000/svg" xmlns:xlink="http://www.w3.org/1999/xlink">
<g id="graph0" class="graph" transform="scale(1 1) rotate(0) translate(4 188)">
<title>common/include/webcface/common/internal/message/sync.h</title>
<!-- Node1 -->
<g id="Node000001" class="node">
<title>Node1</title>
<g id="a_Node000001"><a xlink:title=" ">
<polygon fill="#999999" stroke="#666666" points="340.5,-184 190.5,-184 190.5,-143 340.5,-143 340.5,-184"/>
<text text-anchor="start" x="198.5" y="-172" font-family="Helvetica,sans-Serif" font-size="10.00">common/include/webcface</text>
<text text-anchor="start" x="198.5" y="-161" font-family="Helvetica,sans-Serif" font-size="10.00">/common/internal/message</text>
<text text-anchor="middle" x="265.5" y="-150" font-family="Helvetica,sans-Serif" font-size="10.00">/sync.h</text>
</a>
</g>
</g>
<!-- Node2 -->
<g id="Node000002" class="node">
<title>Node2</title>
<g id="a_Node000002"><a xlink:href="client__msg__recv_8cc.html" target="_top" xlink:title=" ">
<polygon fill="white" stroke="#666666" points="117,-101.5 0,-101.5 0,-71.5 117,-71.5 117,-101.5"/>
<text text-anchor="start" x="8" y="-89.5" font-family="Helvetica,sans-Serif" font-size="10.00">client/src/client_msg</text>
<text text-anchor="middle" x="58.5" y="-78.5" font-family="Helvetica,sans-Serif" font-size="10.00">_recv.cc</text>
</a>
</g>
</g>
<!-- Node1&#45;&gt;Node2 -->
<g id="edge1_Node000001_Node000002" class="edge">
<title>Node1&#45;&gt;Node2</title>
<g id="a_edge1_Node000001_Node000002"><a xlink:title=" ">
<path fill="none" stroke="#63b8ff" d="M202.2,-139.57C168,-127.17 126.85,-112.26 97.37,-101.58"/>
<polygon fill="#63b8ff" stroke="#63b8ff" points="201.06,-142.87 211.65,-142.99 203.44,-136.29 201.06,-142.87"/>
</a>
</g>
</g>
<!-- Node3 -->
<g id="Node000003" class="node">
<title>Node3</title>
<g id="a_Node000003"><a xlink:href="client__msg__sync_8cc.html" target="_top" xlink:title=" ">
<polygon fill="white" stroke="#666666" points="252,-101.5 135,-101.5 135,-71.5 252,-71.5 252,-101.5"/>
<text text-anchor="start" x="143" y="-89.5" font-family="Helvetica,sans-Serif" font-size="10.00">client/src/client_msg</text>
<text text-anchor="middle" x="193.5" y="-78.5" font-family="Helvetica,sans-Serif" font-size="10.00">_sync.cc</text>
</a>
</g>
</g>
<!-- Node1&#45;&gt;Node3 -->
<g id="edge2_Node000001_Node000003" class="edge">
<title>Node1&#45;&gt;Node3</title>
<g id="a_edge2_Node000001_Node000003"><a xlink:title=" ">
<path fill="none" stroke="#63b8ff" d="M239.64,-135.57C228.72,-124.18 216.43,-111.39 207.29,-101.86"/>
<polygon fill="#63b8ff" stroke="#63b8ff" points="237.13,-138 246.58,-142.79 242.18,-133.16 237.13,-138"/>
</a>
</g>
</g>
<!-- Node4 -->
<g id="Node000004" class="node">
<title>Node4</title>
<g id="a_Node000004"><a xlink:href="message_8cc.html" target="_top" xlink:title=" ">
<polygon fill="white" stroke="#666666" points="407,-96 270,-96 270,-77 407,-77 407,-96"/>
<text text-anchor="middle" x="338.5" y="-84" font-family="Helvetica,sans-Serif" font-size="10.00">common/src/message.cc</text>
</a>
</g>
</g>
<!-- Node1&#45;&gt;Node4 -->
<g id="edge3_Node000001_Node000004" class="edge">
<title>Node1&#45;&gt;Node4</title>
<g id="a_edge3_Node000001_Node000004"><a xlink:title=" ">
<path fill="none" stroke="#63b8ff" d="M291.88,-135.4C305.29,-121.62 320.69,-105.8 330,-96.24"/>
<polygon fill="#63b8ff" stroke="#63b8ff" points="289.15,-133.19 284.68,-142.79 294.16,-138.07 289.15,-133.19"/>
</a>
</g>
</g>
<!-- Node5 -->
<g id="Node000005" class="node">
<title>Node5</title>
<g id="a_Node000005"><a xlink:href="member__data_8h.html" target="_top" xlink:title=" ">
<polygon fill="white" stroke="#666666" points="569.5,-107 425.5,-107 425.5,-66 569.5,-66 569.5,-107"/>
<text text-anchor="start" x="433.5" y="-95" font-family="Helvetica,sans-Serif" font-size="10.00">server&#45;store/include</text>
<text text-anchor="start" x="433.5" y="-84" font-family="Helvetica,sans-Serif" font-size="10.00">/webcface/server/member</text>
<text text-anchor="middle" x="497.5" y="-73" font-family="Helvetica,sans-Serif" font-size="10.00">_data.h</text>
</a>
</g>
</g>
<!-- Node1&#45;&gt;Node5 -->
<g id="edge4_Node000001_Node000005" class="edge">
<title>Node1&#45;&gt;Node5</title>
<g id="a_edge4_Node000001_Node000005"><a xlink:title=" ">
<path fill="none" stroke="#63b8ff" d="M335.69,-139.81C368.02,-129.36 406.01,-117.08 437.05,-107.04"/>
<polygon fill="#63b8ff" stroke="#63b8ff" points="334.29,-136.58 325.85,-142.99 336.44,-143.24 334.29,-136.58"/>
</a>
</g>
</g>
<!-- Node6 -->
<g id="Node000006" class="node">
<title>Node6</title>
<g id="a_Node000006"><a xlink:href="image__conversion_8cc.html" target="_top" xlink:title=" ">
<polygon fill="white" stroke="#666666" points="334,-30 207,-30 207,0 334,0 334,-30"/>
<text text-anchor="start" x="215" y="-18" font-family="Helvetica,sans-Serif" font-size="10.00">server&#45;store/src/image</text>
<text text-anchor="middle" x="270.5" y="-7" font-family="Helvetica,sans-Serif" font-size="10.00">_conversion.cc</text>
</a>
</g>
</g>
<!-- Node5&#45;&gt;Node6 -->
<g id="edge5_Node000005_Node000006" class="edge">
<title>Node5&#45;&gt;Node6</title>
<g id="a_edge5_Node000005_Node000006"><a xlink:title=" ">
<path fill="none" stroke="#63b8ff" d="M423.84,-62.95C388.42,-52.1 347.07,-39.44 316.24,-30"/>
<polygon fill="#63b8ff" stroke="#63b8ff" points="423.08,-66.37 433.66,-65.96 425.13,-59.68 423.08,-66.37"/>
</a>
</g>
</g>
<!-- Node7 -->
<g id="Node000007" class="node">
<title>Node7</title>
<g id="a_Node000007"><a xlink:href="member__data_8cc.html" target="_top" xlink:title=" ">
<polygon fill="white" stroke="#666666" points="489,-30 352,-30 352,0 489,0 489,-30"/>
<text text-anchor="start" x="360" y="-18" font-family="Helvetica,sans-Serif" font-size="10.00">server&#45;store/src/member</text>
<text text-anchor="middle" x="420.5" y="-7" font-family="Helvetica,sans-Serif" font-size="10.00">_data.cc</text>
</a>
</g>
</g>
<!-- Node5&#45;&gt;Node7 -->
<g id="edge6_Node000005_Node000007" class="edge">
<title>Node5&#45;&gt;Node7</title>
<g id="a_edge6_Node000005_Node000007"><a xlink:title=" ">
<path fill="none" stroke="#63b8ff" d="M467.96,-58.83C457.09,-49.02 445.21,-38.3 436.05,-30.04"/>
<polygon fill="#63b8ff" stroke="#63b8ff" points="465.87,-61.67 475.64,-65.77 470.56,-56.47 465.87,-61.67"/>
</a>
</g>
</g>
<!-- Node8 -->
<g id="Node000008" class="node">
<title>Node8</title>
<g id="a_Node000008"><a xlink:href="store_8cc.html" target="_top" xlink:title=" ">
<polygon fill="white" stroke="#666666" points="641.5,-24.5 507.5,-24.5 507.5,-5.5 641.5,-5.5 641.5,-24.5"/>
<text text-anchor="middle" x="574.5" y="-12.5" font-family="Helvetica,sans-Serif" font-size="10.00">server&#45;store/src/store.cc</text>
</a>
</g>
</g>
<!-- Node5&#45;&gt;Node8 -->
<g id="edge7_Node000005_Node000008" class="edge">
<title>Node5&#45;&gt;Node8</title>
<g id="a_edge7_Node000005_Node000008"><a xlink:title=" ">
<path fill="none" stroke="#63b8ff" d="M526.99,-58.88C540.35,-46.82 555.24,-33.38 564.73,-24.82"/>
<polygon fill="#63b8ff" stroke="#63b8ff" points="524.44,-56.47 519.36,-65.77 529.13,-61.67 524.44,-56.47"/>
</a>
</g>
</g>
<!-- Node9 -->
<g id="Node000009" class="node">
<title>Node9</title>
<g id="a_Node000009"><a xlink:href="websock_8cc.html" target="_top" xlink:title=" ">
<polygon fill="white" stroke="#666666" points="811.5,-24.5 659.5,-24.5 659.5,-5.5 811.5,-5.5 811.5,-24.5"/>
<text text-anchor="middle" x="735.5" y="-12.5" font-family="Helvetica,sans-Serif" font-size="10.00">server&#45;store/src/websock.cc</text>
</a>
</g>
</g>
<!-- Node5&#45;&gt;Node9 -->
<g id="edge8_Node000005_Node000009" class="edge">
<title>Node5&#45;&gt;Node9</title>
<g id="a_edge8_Node000005_Node000009"><a xlink:title=" ">
<path fill="none" stroke="#63b8ff" d="M574.19,-63.1C619.28,-49.94 673.68,-34.05 706.38,-24.5"/>
<polygon fill="#63b8ff" stroke="#63b8ff" points="573.05,-59.79 564.43,-65.96 575.01,-66.51 573.05,-59.79"/>
</a>
</g>
</g>
</g>
</svg>
