<?xml version="1.0" encoding="UTF-8" standalone="no"?>
<!DOCTYPE svg PUBLIC "-//W3C//DTD SVG 1.1//EN"
 "http://www.w3.org/Graphics/SVG/1.1/DTD/svg11.dtd">
<!-- Generated by graphviz version 2.43.0 (0)
 -->
<!-- Title: client/include/webcface/text.h Pages: 1 -->
<svg width="900pt" height="225pt"
 viewBox="0.00 0.00 899.50 225.00" xmlns="http://www.w3.org/2000/svg" xmlns:xlink="http://www.w3.org/1999/xlink">
<g id="graph0" class="graph" transform="scale(1 1) rotate(0) translate(4 221)">
<title>client/include/webcface/text.h</title>
<!-- Node1 -->
<g id="Node000001" class="node">
<title>Node1</title>
<g id="a_Node000001"><a xlink:title=" ">
<polygon fill="#999999" stroke="#666666" points="491,-217 360,-217 360,-187 491,-187 491,-217"/>
<text text-anchor="start" x="368" y="-205" font-family="Helvetica,sans-Serif" font-size="10.00">client/include/webcface</text>
<text text-anchor="middle" x="425.5" y="-194" font-family="Helvetica,sans-Serif" font-size="10.00">/text.h</text>
</a>
</g>
</g>
<!-- Node2 -->
<g id="Node000002" class="node">
<title>Node2</title>
<g id="a_Node000002"><a xlink:title=" ">
<polygon fill="#e0e0e0" stroke="#999999" points="65,-145.5 0,-145.5 0,-126.5 65,-126.5 65,-145.5"/>
<text text-anchor="middle" x="32.5" y="-133.5" font-family="Helvetica,sans-Serif" font-size="10.00">functional</text>
</a>
</g>
</g>
<!-- Node1&#45;&gt;Node2 -->
<g id="edge1_Node000001_Node000002" class="edge">
<title>Node1&#45;&gt;Node2</title>
<g id="a_edge1_Node000001_Node000002"><a xlink:title=" ">
<path fill="none" stroke="#63b8ff" d="M359.94,-194.41C289.97,-186.71 176.12,-172.25 79.5,-151 75.88,-150.2 72.13,-149.27 68.4,-148.28"/>
<polygon fill="#63b8ff" stroke="#63b8ff" points="69.25,-144.88 58.67,-145.53 67.35,-151.62 69.25,-144.88"/>
</a>
</g>
</g>
<!-- Node3 -->
<g id="Node000003" class="node">
<title>Node3</title>
<g id="a_Node000003"><a xlink:title=" ">
<polygon fill="#e0e0e0" stroke="#999999" points="656,-85 599,-85 599,-66 656,-66 656,-85"/>
<text text-anchor="middle" x="627.5" y="-73" font-family="Helvetica,sans-Serif" font-size="10.00">ostream</text>
</a>
</g>
</g>
<!-- Node1&#45;&gt;Node3 -->
<g id="edge2_Node000001_Node000003" class="edge">
<title>Node1&#45;&gt;Node3</title>
<g id="a_edge2_Node000001_Node000003"><a xlink:title=" ">
<path fill="none" stroke="#63b8ff" d="M432.25,-186.99C441.57,-169.11 460.03,-138.41 484.5,-121 501.39,-108.98 552.75,-94.66 589.07,-85.58"/>
<polygon fill="#63b8ff" stroke="#63b8ff" points="590,-88.95 598.87,-83.16 588.32,-82.16 590,-88.95"/>
</a>
</g>
</g>
<!-- Node4 -->
<g id="Node000004" class="node">
<title>Node4</title>
<g id="a_Node000004"><a xlink:title=" ">
<polygon fill="#e0e0e0" stroke="#999999" points="695.5,-145.5 639.5,-145.5 639.5,-126.5 695.5,-126.5 695.5,-145.5"/>
<text text-anchor="middle" x="667.5" y="-133.5" font-family="Helvetica,sans-Serif" font-size="10.00">optional</text>
</a>
</g>
</g>
<!-- Node1&#45;&gt;Node4 -->
<g id="edge3_Node000001_Node000004" class="edge">
<title>Node1&#45;&gt;Node4</title>
<g id="a_edge3_Node000001_Node000004"><a xlink:title=" ">
<path fill="none" stroke="#63b8ff" d="M491.15,-187.14C531.65,-178.06 584.49,-165.26 630.5,-151 632.42,-150.41 634.38,-149.76 636.36,-149.09"/>
<polygon fill="#63b8ff" stroke="#63b8ff" points="637.9,-152.26 646.13,-145.59 635.54,-145.67 637.9,-152.26"/>
</a>
</g>
</g>
<!-- Node5 -->
<g id="Node000005" class="node">
<title>Node5</title>
<g id="a_Node000005"><a xlink:title=" ">
<polygon fill="#e0e0e0" stroke="#999999" points="763.5,-145.5 713.5,-145.5 713.5,-126.5 763.5,-126.5 763.5,-145.5"/>
<text text-anchor="middle" x="738.5" y="-133.5" font-family="Helvetica,sans-Serif" font-size="10.00">chrono</text>
</a>
</g>
</g>
<!-- Node1&#45;&gt;Node5 -->
<g id="edge4_Node000001_Node000005" class="edge">
<title>Node1&#45;&gt;Node5</title>
<g id="a_edge4_Node000001_Node000005"><a xlink:title=" ">
<path fill="none" stroke="#63b8ff" d="M491.24,-193.25C548.36,-185.56 632.93,-171.89 704.5,-151 706.38,-150.45 708.31,-149.83 710.23,-149.17"/>
<polygon fill="#63b8ff" stroke="#63b8ff" points="711.58,-152.4 719.69,-145.58 709.1,-145.85 711.58,-152.4"/>
</a>
</g>
</g>
<!-- Node6 -->
<g id="Node000006" class="node">
<title>Node6</title>
<g id="a_Node000006"><a xlink:title=" ">
<polygon fill="#e0e0e0" stroke="#999999" points="94.5,-24.5 36.5,-24.5 36.5,-5.5 94.5,-5.5 94.5,-24.5"/>
<text text-anchor="middle" x="65.5" y="-12.5" font-family="Helvetica,sans-Serif" font-size="10.00">memory</text>
</a>
</g>
</g>
<!-- Node1&#45;&gt;Node6 -->
<g id="edge5_Node000001_Node000006" class="edge">
<title>Node1&#45;&gt;Node6</title>
<g id="a_edge5_Node000001_Node000006"><a xlink:title=" ">
<path fill="none" stroke="#63b8ff" d="M387.25,-186.95C362.69,-177.56 330.29,-164.49 302.5,-151 221.09,-111.48 129.15,-55.73 87.77,-30.01"/>
<polygon fill="#63b8ff" stroke="#63b8ff" points="89.38,-26.89 79.05,-24.56 85.68,-32.83 89.38,-26.89"/>
</a>
</g>
</g>
<!-- Node7 -->
<g id="Node000007" class="node">
<title>Node7</title>
<g id="a_Node000007"><a xlink:href="field_8h.html" target="_top" xlink:title=" ">
<polygon fill="white" stroke="#666666" points="418,-145.5 371,-145.5 371,-126.5 418,-126.5 418,-145.5"/>
<text text-anchor="middle" x="394.5" y="-133.5" font-family="Helvetica,sans-Serif" font-size="10.00">field.h</text>
</a>
</g>
</g>
<!-- Node1&#45;&gt;Node7 -->
<g id="edge6_Node000001_Node000007" class="edge">
<title>Node1&#45;&gt;Node7</title>
<g id="a_edge6_Node000001_Node000007"><a xlink:title=" ">
<path fill="none" stroke="#63b8ff" d="M418.62,-186.8C414.07,-177.41 408.07,-165.02 403.19,-154.95"/>
<polygon fill="#63b8ff" stroke="#63b8ff" points="406.29,-153.32 398.78,-145.84 399.99,-156.37 406.29,-153.32"/>
</a>
</g>
</g>
<!-- Node11 -->
<g id="Node000011" class="node">
<title>Node11</title>
<g id="a_Node000011"><a xlink:title=" ">
<polygon fill="#e0e0e0" stroke="#999999" points="270.5,-30 112.5,-30 112.5,0 270.5,0 270.5,-30"/>
<text text-anchor="start" x="120.5" y="-18" font-family="Helvetica,sans-Serif" font-size="10.00">webcface/common/webcface</text>
<text text-anchor="middle" x="191.5" y="-7" font-family="Helvetica,sans-Serif" font-size="10.00">&#45;config.h</text>
</a>
</g>
</g>
<!-- Node1&#45;&gt;Node11 -->
<g id="edge20_Node000001_Node000011" class="edge">
<title>Node1&#45;&gt;Node11</title>
<g id="a_edge20_Node000001_Node000011"><a xlink:title=" ">
<path fill="none" stroke="#63b8ff" d="M402.99,-186.95C370.37,-166.2 308.61,-125.45 260.5,-85 242.88,-70.19 224.54,-51.67 211.19,-37.55"/>
<polygon fill="#63b8ff" stroke="#63b8ff" points="213.71,-35.12 204.33,-30.2 208.6,-39.9 213.71,-35.12"/>
</a>
</g>
</g>
<!-- Node16 -->
<g id="Node000016" class="node">
<title>Node16</title>
<g id="a_Node000016"><a xlink:href="encoding_2include_2webcface_2encoding_2val__adaptor_8h.html" target="_top" xlink:title=" ">
<polygon fill="white" stroke="#666666" points="621.5,-151 493.5,-151 493.5,-121 621.5,-121 621.5,-151"/>
<text text-anchor="start" x="501.5" y="-139" font-family="Helvetica,sans-Serif" font-size="10.00">webcface/encoding/val</text>
<text text-anchor="middle" x="557.5" y="-128" font-family="Helvetica,sans-Serif" font-size="10.00">_adaptor.h</text>
</a>
</g>
</g>
<!-- Node1&#45;&gt;Node16 -->
<g id="edge21_Node000001_Node000016" class="edge">
<title>Node1&#45;&gt;Node16</title>
<g id="a_edge21_Node000001_Node000016"><a xlink:title=" ">
<path fill="none" stroke="#63b8ff" d="M454.47,-186.95C473.55,-177.7 498.75,-165.49 519.44,-155.45"/>
<polygon fill="#63b8ff" stroke="#63b8ff" points="521.13,-158.52 528.6,-151.01 518.07,-152.23 521.13,-158.52"/>
</a>
</g>
</g>
<!-- Node7&#45;&gt;Node6 -->
<g id="edge7_Node000007_Node000006" class="edge">
<title>Node7&#45;&gt;Node6</title>
<g id="a_edge7_Node000007_Node000006"><a xlink:title=" ">
<path fill="none" stroke="#63b8ff" d="M370.72,-126.48C321.04,-108.67 202.65,-66.15 103.5,-30 101.87,-29.4 100.19,-28.79 98.5,-28.17"/>
<polygon fill="#63b8ff" stroke="#63b8ff" points="99.4,-24.77 88.8,-24.61 96.98,-31.35 99.4,-24.77"/>
</a>
</g>
</g>
<!-- Node8 -->
<g id="Node000008" class="node">
<title>Node8</title>
<g id="a_Node000008"><a xlink:title=" ">
<polygon fill="#e0e0e0" stroke="#999999" points="706.5,-24.5 662.5,-24.5 662.5,-5.5 706.5,-5.5 706.5,-24.5"/>
<text text-anchor="middle" x="684.5" y="-12.5" font-family="Helvetica,sans-Serif" font-size="10.00">string</text>
</a>
</g>
</g>
<!-- Node7&#45;&gt;Node8 -->
<g id="edge8_Node000007_Node000008" class="edge">
<title>Node7&#45;&gt;Node8</title>
<g id="a_edge8_Node000007_Node000008"><a xlink:title=" ">
<path fill="none" stroke="#63b8ff" d="M410.29,-126.44C442.5,-109.02 513.74,-70.69 525.5,-66 580.39,-44.11 597.97,-50.22 653.5,-30 654.72,-29.56 655.95,-29.09 657.2,-28.6"/>
<polygon fill="#63b8ff" stroke="#63b8ff" points="658.8,-31.72 666.66,-24.61 656.08,-25.27 658.8,-31.72"/>
</a>
</g>
</g>
<!-- Node9 -->
<g id="Node000009" class="node">
<title>Node9</title>
<g id="a_Node000009"><a xlink:title=" ">
<polygon fill="#e0e0e0" stroke="#999999" points="362,-24.5 289,-24.5 289,-5.5 362,-5.5 362,-24.5"/>
<text text-anchor="middle" x="325.5" y="-12.5" font-family="Helvetica,sans-Serif" font-size="10.00">string_view</text>
</a>
</g>
</g>
<!-- Node7&#45;&gt;Node9 -->
<g id="edge9_Node000007_Node000009" class="edge">
<title>Node7&#45;&gt;Node9</title>
<g id="a_edge9_Node000007_Node000009"><a xlink:title=" ">
<path fill="none" stroke="#63b8ff" d="M370.83,-129.48C348.78,-122.95 317.18,-109.69 302.5,-85 292.76,-68.62 302.5,-47.57 312.14,-33.05"/>
<polygon fill="#63b8ff" stroke="#63b8ff" points="315.24,-34.72 318.25,-24.56 309.56,-30.63 315.24,-34.72"/>
</a>
</g>
</g>
<!-- Node10 -->
<g id="Node000010" class="node">
<title>Node10</title>
<g id="a_Node000010"><a xlink:title=" ">
<polygon fill="#e0e0e0" stroke="#999999" points="581,-85 534,-85 534,-66 581,-66 581,-85"/>
<text text-anchor="middle" x="557.5" y="-73" font-family="Helvetica,sans-Serif" font-size="10.00">vector</text>
</a>
</g>
</g>
<!-- Node7&#45;&gt;Node10 -->
<g id="edge10_Node000007_Node000010" class="edge">
<title>Node7&#45;&gt;Node10</title>
<g id="a_edge10_Node000007_Node000010"><a xlink:title=" ">
<path fill="none" stroke="#63b8ff" d="M418.2,-126.49C446.09,-116.49 492.57,-99.8 524.1,-88.49"/>
<polygon fill="#63b8ff" stroke="#63b8ff" points="525.54,-91.69 533.77,-85.02 523.18,-85.1 525.54,-91.69"/>
</a>
</g>
</g>
<!-- Node7&#45;&gt;Node11 -->
<g id="edge11_Node000007_Node000011" class="edge">
<title>Node7&#45;&gt;Node11</title>
<g id="a_edge11_Node000007_Node000011"><a xlink:title=" ">
<path fill="none" stroke="#63b8ff" d="M375.11,-126.35C354.47,-116.93 321.06,-101.05 293.5,-85 267.43,-69.82 239.1,-50.41 218.94,-36.04"/>
<polygon fill="#63b8ff" stroke="#63b8ff" points="220.72,-33.01 210.55,-30.03 216.64,-38.7 220.72,-33.01"/>
</a>
</g>
</g>
<!-- Node12 -->
<g id="Node000012" class="node">
<title>Node12</title>
<g id="a_Node000012"><a xlink:href="encoding_8h.html" target="_top" xlink:title=" ">
<polygon fill="white" stroke="#666666" points="478,-85 311,-85 311,-66 478,-66 478,-85"/>
<text text-anchor="middle" x="394.5" y="-73" font-family="Helvetica,sans-Serif" font-size="10.00">webcface/encoding/encoding.h</text>
</a>
</g>
</g>
<!-- Node7&#45;&gt;Node12 -->
<g id="edge12_Node000007_Node000012" class="edge">
<title>Node7&#45;&gt;Node12</title>
<g id="a_edge12_Node000007_Node000012"><a xlink:title=" ">
<path fill="none" stroke="#63b8ff" d="M394.5,-126.37C394.5,-118.25 394.5,-105.81 394.5,-95.39"/>
<polygon fill="#63b8ff" stroke="#63b8ff" points="398,-95.17 394.5,-85.17 391,-95.17 398,-95.17"/>
</a>
</g>
</g>
<!-- Node12&#45;&gt;Node6 -->
<g id="edge15_Node000012_Node000006" class="edge">
<title>Node12&#45;&gt;Node6</title>
<g id="a_edge15_Node000012_Node000006"><a xlink:title=" ">
<path fill="none" stroke="#63b8ff" d="M310.82,-66.23C252.17,-59.33 172.29,-47.74 103.5,-30 101.06,-29.37 98.55,-28.64 96.05,-27.86"/>
<polygon fill="#63b8ff" stroke="#63b8ff" points="97.16,-24.53 86.56,-24.62 94.9,-31.16 97.16,-24.53"/>
</a>
</g>
</g>
<!-- Node12&#45;&gt;Node8 -->
<g id="edge13_Node000012_Node000008" class="edge">
<title>Node12&#45;&gt;Node8</title>
<g id="a_edge13_Node000012_Node000008"><a xlink:title=" ">
<path fill="none" stroke="#63b8ff" d="M475.36,-65.97C527.08,-59.21 595.15,-47.87 653.5,-30 655.13,-29.5 656.79,-28.94 658.44,-28.33"/>
<polygon fill="#63b8ff" stroke="#63b8ff" points="659.83,-31.54 667.75,-24.5 657.17,-25.07 659.83,-31.54"/>
</a>
</g>
</g>
<!-- Node12&#45;&gt;Node9 -->
<g id="edge14_Node000012_Node000009" class="edge">
<title>Node12&#45;&gt;Node9</title>
<g id="a_edge14_Node000012_Node000009"><a xlink:title=" ">
<path fill="none" stroke="#63b8ff" d="M384.32,-65.87C373.62,-56.8 356.56,-42.34 343.57,-31.32"/>
<polygon fill="#63b8ff" stroke="#63b8ff" points="345.61,-28.46 335.72,-24.67 341.09,-33.8 345.61,-28.46"/>
</a>
</g>
</g>
<!-- Node12&#45;&gt;Node11 -->
<g id="edge19_Node000012_Node000011" class="edge">
<title>Node12&#45;&gt;Node11</title>
<g id="a_edge19_Node000012_Node000011"><a xlink:title=" ">
<path fill="none" stroke="#63b8ff" d="M364.98,-65.99C335,-57.35 287.76,-43.74 250.14,-32.9"/>
<polygon fill="#63b8ff" stroke="#63b8ff" points="250.88,-29.47 240.3,-30.06 248.94,-36.2 250.88,-29.47"/>
</a>
</g>
</g>
<!-- Node13 -->
<g id="Node000013" class="node">
<title>Node13</title>
<g id="a_Node000013"><a xlink:title=" ">
<polygon fill="#e0e0e0" stroke="#999999" points="532.5,-24.5 484.5,-24.5 484.5,-5.5 532.5,-5.5 532.5,-24.5"/>
<text text-anchor="middle" x="508.5" y="-12.5" font-family="Helvetica,sans-Serif" font-size="10.00">mutex</text>
</a>
</g>
</g>
<!-- Node12&#45;&gt;Node13 -->
<g id="edge16_Node000012_Node000013" class="edge">
<title>Node12&#45;&gt;Node13</title>
<g id="a_edge16_Node000012_Node000013"><a xlink:title=" ">
<path fill="none" stroke="#63b8ff" d="M411.32,-65.87C430.1,-56.23 460.7,-40.53 482.55,-29.31"/>
<polygon fill="#63b8ff" stroke="#63b8ff" points="484.31,-32.35 491.61,-24.67 481.11,-26.12 484.31,-32.35"/>
</a>
</g>
</g>
<!-- Node14 -->
<g id="Node000014" class="node">
<title>Node14</title>
<g id="a_Node000014"><a xlink:title=" ">
<polygon fill="#e0e0e0" stroke="#999999" points="644,-24.5 551,-24.5 551,-5.5 644,-5.5 644,-24.5"/>
<text text-anchor="middle" x="597.5" y="-12.5" font-family="Helvetica,sans-Serif" font-size="10.00">unordered_map</text>
</a>
</g>
</g>
<!-- Node12&#45;&gt;Node14 -->
<g id="edge17_Node000012_Node000014" class="edge">
<title>Node12&#45;&gt;Node14</title>
<g id="a_edge17_Node000012_Node000014"><a xlink:title=" ">
<path fill="none" stroke="#63b8ff" d="M424.02,-65.99C459.42,-55.79 518.9,-38.65 558.18,-27.33"/>
<polygon fill="#63b8ff" stroke="#63b8ff" points="559.31,-30.65 567.95,-24.52 557.37,-23.92 559.31,-30.65"/>
</a>
</g>
</g>
<!-- Node15 -->
<g id="Node000015" class="node">
<title>Node15</title>
<g id="a_Node000015"><a xlink:title=" ">
<polygon fill="#e0e0e0" stroke="#999999" points="466.5,-24.5 380.5,-24.5 380.5,-5.5 466.5,-5.5 466.5,-24.5"/>
<text text-anchor="middle" x="423.5" y="-12.5" font-family="Helvetica,sans-Serif" font-size="10.00">unordered_set</text>
</a>
</g>
</g>
<!-- Node12&#45;&gt;Node15 -->
<g id="edge18_Node000012_Node000015" class="edge">
<title>Node12&#45;&gt;Node15</title>
<g id="a_edge18_Node000012_Node000015"><a xlink:title=" ">
<path fill="none" stroke="#63b8ff" d="M398.78,-65.87C402.93,-57.49 409.37,-44.51 414.63,-33.89"/>
<polygon fill="#63b8ff" stroke="#63b8ff" points="417.9,-35.18 419.2,-24.67 411.63,-32.07 417.9,-35.18"/>
</a>
</g>
</g>
<!-- Node16&#45;&gt;Node3 -->
<g id="edge26_Node000016_Node000003" class="edge">
<title>Node16&#45;&gt;Node3</title>
<g id="a_edge26_Node000016_Node000003"><a xlink:title=" ">
<path fill="none" stroke="#63b8ff" d="M574.45,-120.84C584.92,-112.09 598.36,-100.85 609.09,-91.88"/>
<polygon fill="#63b8ff" stroke="#63b8ff" points="611.58,-94.36 617.01,-85.27 607.09,-88.99 611.58,-94.36"/>
</a>
</g>
</g>
<!-- Node16&#45;&gt;Node8 -->
<g id="edge22_Node000016_Node000008" class="edge">
<title>Node16&#45;&gt;Node8</title>
<g id="a_edge22_Node000016_Node000008"><a xlink:title=" ">
<path fill="none" stroke="#63b8ff" d="M610.42,-120.94C630.19,-113.26 651.27,-101.79 665.5,-85 677.41,-70.95 681.89,-50.04 683.56,-34.92"/>
<polygon fill="#63b8ff" stroke="#63b8ff" points="687.07,-34.94 684.37,-24.7 680.09,-34.4 687.07,-34.94"/>
</a>
</g>
</g>
<!-- Node16&#45;&gt;Node10 -->
<g id="edge23_Node000016_Node000010" class="edge">
<title>Node16&#45;&gt;Node10</title>
<g id="a_edge23_Node000016_Node000010"><a xlink:title=" ">
<path fill="none" stroke="#63b8ff" d="M557.5,-120.84C557.5,-113.21 557.5,-103.7 557.5,-95.45"/>
<polygon fill="#63b8ff" stroke="#63b8ff" points="561,-95.27 557.5,-85.27 554,-95.27 561,-95.27"/>
</a>
</g>
</g>
<!-- Node16&#45;&gt;Node11 -->
<g id="edge29_Node000016_Node000011" class="edge">
<title>Node16&#45;&gt;Node11</title>
<g id="a_edge29_Node000016_Node000011"><a xlink:title=" ">
<path fill="none" stroke="#63b8ff" d="M493.35,-128.93C440.66,-122.43 364.84,-109.53 302.5,-85 293.95,-81.63 251.77,-54.9 221.94,-35.71"/>
<polygon fill="#63b8ff" stroke="#63b8ff" points="223.82,-32.76 213.52,-30.28 220.03,-38.64 223.82,-32.76"/>
</a>
</g>
</g>
<!-- Node16&#45;&gt;Node12 -->
<g id="edge28_Node000016_Node000012" class="edge">
<title>Node16&#45;&gt;Node12</title>
<g id="a_edge28_Node000016_Node000012"><a xlink:title=" ">
<path fill="none" stroke="#63b8ff" d="M518.46,-120.99C490.9,-111.1 454.35,-97.98 428.09,-88.56"/>
<polygon fill="#63b8ff" stroke="#63b8ff" points="429.17,-85.22 418.57,-85.14 426.8,-91.81 429.17,-85.22"/>
</a>
</g>
</g>
<!-- Node17 -->
<g id="Node000017" class="node">
<title>Node17</title>
<g id="a_Node000017"><a xlink:title=" ">
<polygon fill="#e0e0e0" stroke="#999999" points="823,-85 782,-85 782,-66 823,-66 823,-85"/>
<text text-anchor="middle" x="802.5" y="-73" font-family="Helvetica,sans-Serif" font-size="10.00">tuple</text>
</a>
</g>
</g>
<!-- Node16&#45;&gt;Node17 -->
<g id="edge24_Node000016_Node000017" class="edge">
<title>Node16&#45;&gt;Node17</title>
<g id="a_edge24_Node000016_Node000017"><a xlink:title=" ">
<path fill="none" stroke="#63b8ff" d="M621.53,-121.19C662.28,-112.17 716.37,-99.77 772.23,-85.23"/>
<polygon fill="#63b8ff" stroke="#63b8ff" points="773.16,-88.6 781.95,-82.68 771.39,-81.83 773.16,-88.6"/>
</a>
</g>
</g>
<!-- Node18 -->
<g id="Node000018" class="node">
<title>Node18</title>
<g id="a_Node000018"><a xlink:title=" ">
<polygon fill="#e0e0e0" stroke="#999999" points="891.5,-85 841.5,-85 841.5,-66 891.5,-66 891.5,-85"/>
<text text-anchor="middle" x="866.5" y="-73" font-family="Helvetica,sans-Serif" font-size="10.00">cstdint</text>
</a>
</g>
</g>
<!-- Node16&#45;&gt;Node18 -->
<g id="edge25_Node000016_Node000018" class="edge">
<title>Node16&#45;&gt;Node18</title>
<g id="a_edge25_Node000016_Node000018"><a xlink:title=" ">
<path fill="none" stroke="#63b8ff" d="M621.59,-122.66C624.6,-122.1 627.58,-121.54 630.5,-121 717.11,-104.98 741.66,-104.11 831.5,-85.09"/>
<polygon fill="#63b8ff" stroke="#63b8ff" points="832.24,-88.52 841.29,-83.01 830.78,-81.67 832.24,-88.52"/>
</a>
</g>
</g>
<!-- Node19 -->
<g id="Node000019" class="node">
<title>Node19</title>
<g id="a_Node000019"><a xlink:title=" ">
<polygon fill="#e0e0e0" stroke="#999999" points="764,-85 713,-85 713,-66 764,-66 764,-85"/>
<text text-anchor="middle" x="738.5" y="-73" font-family="Helvetica,sans-Serif" font-size="10.00">variant</text>
</a>
</g>
</g>
<!-- Node16&#45;&gt;Node19 -->
<g id="edge27_Node000016_Node000019" class="edge">
<title>Node16&#45;&gt;Node19</title>
<g id="a_edge27_Node000016_Node000019"><a xlink:title=" ">
<path fill="none" stroke="#63b8ff" d="M600.85,-120.99C632.1,-110.89 673.75,-97.43 703.02,-87.97"/>
<polygon fill="#63b8ff" stroke="#63b8ff" points="704.38,-91.2 712.82,-84.8 702.23,-84.54 704.38,-91.2"/>
</a>
</g>
</g>
</g>
</svg>
