<?xml version="1.0" encoding="UTF-8" standalone="no"?>
<!DOCTYPE svg PUBLIC "-//W3C//DTD SVG 1.1//EN"
 "http://www.w3.org/Graphics/SVG/1.1/DTD/svg11.dtd">
<!-- Generated by graphviz version 2.43.0 (0)
 -->
<!-- Title: include/webcface/text.h Pages: 1 -->
<svg width="753pt" height="247pt"
 viewBox="0.00 0.00 753.21 247.00" xmlns="http://www.w3.org/2000/svg" xmlns:xlink="http://www.w3.org/1999/xlink">
<g id="graph0" class="graph" transform="scale(1 1) rotate(0) translate(4 243)">
<title>include/webcface/text.h</title>
<!-- Node1 -->
<g id="Node000001" class="node">
<title>Node1</title>
<g id="a_Node000001"><a xlink:title=" ">
<polygon fill="#999999" stroke="#666666" points="342.71,-239 209.71,-239 209.71,-220 342.71,-220 342.71,-239"/>
<text text-anchor="middle" x="276.21" y="-227" font-family="Helvetica,sans-Serif" font-size="10.00">include/webcface/text.h</text>
</a>
</g>
</g>
<!-- Node2 -->
<g id="Node000002" class="node">
<title>Node2</title>
<g id="a_Node000002"><a xlink:href="client_2client_8cc.html" target="_top" xlink:title=" ">
<polygon fill="white" stroke="#666666" points="163.71,-74 76.71,-74 76.71,-55 163.71,-55 163.71,-74"/>
<text text-anchor="middle" x="120.21" y="-62" font-family="Helvetica,sans-Serif" font-size="10.00">client/client.cc</text>
</a>
</g>
</g>
<!-- Node1&#45;&gt;Node2 -->
<g id="edge1_Node000001_Node000002" class="edge">
<title>Node1&#45;&gt;Node2</title>
<g id="a_edge1_Node000001_Node000002"><a xlink:title=" ">
<path fill="none" stroke="#63b8ff" d="M199.51,-223.44C135.77,-214.72 48.72,-191.32 5.21,-129 -15.94,-98.71 35.73,-81.32 76.53,-72.64"/>
<polygon fill="#63b8ff" stroke="#63b8ff" points="199.17,-226.93 209.53,-224.72 200.05,-219.98 199.17,-226.93"/>
</a>
</g>
</g>
<!-- Node3 -->
<g id="Node000003" class="node">
<title>Node3</title>
<g id="a_Node000003"><a xlink:href="text_8cc.html" target="_top" xlink:title=" ">
<polygon fill="white" stroke="#666666" points="249.21,-184 169.21,-184 169.21,-165 249.21,-165 249.21,-184"/>
<text text-anchor="middle" x="209.21" y="-172" font-family="Helvetica,sans-Serif" font-size="10.00">client/text.cc</text>
</a>
</g>
</g>
<!-- Node1&#45;&gt;Node3 -->
<g id="edge2_Node000001_Node000003" class="edge">
<title>Node1&#45;&gt;Node3</title>
<g id="a_edge2_Node000001_Node000003"><a xlink:title=" ">
<path fill="none" stroke="#63b8ff" d="M257.38,-213.6C245.37,-204.11 230.24,-192.13 220.17,-184.17"/>
<polygon fill="#63b8ff" stroke="#63b8ff" points="255.43,-216.53 265.45,-219.98 259.78,-211.04 255.43,-216.53"/>
</a>
</g>
</g>
<!-- Node4 -->
<g id="Node000004" class="node">
<title>Node4</title>
<g id="a_Node000004"><a xlink:href="member_8h.html" target="_top" xlink:title=" ">
<polygon fill="white" stroke="#666666" points="421.21,-184 267.21,-184 267.21,-165 421.21,-165 421.21,-184"/>
<text text-anchor="middle" x="344.21" y="-172" font-family="Helvetica,sans-Serif" font-size="10.00">include/webcface/member.h</text>
</a>
</g>
</g>
<!-- Node1&#45;&gt;Node4 -->
<g id="edge3_Node000001_Node000004" class="edge">
<title>Node1&#45;&gt;Node4</title>
<g id="a_edge3_Node000001_Node000004"><a xlink:title=" ">
<path fill="none" stroke="#63b8ff" d="M295.33,-213.6C307.51,-204.11 322.87,-192.13 333.09,-184.17"/>
<polygon fill="#63b8ff" stroke="#63b8ff" points="292.87,-211.08 287.14,-219.98 297.18,-216.6 292.87,-211.08"/>
</a>
</g>
</g>
<!-- Node15 -->
<g id="Node000015" class="node">
<title>Node15</title>
<g id="a_Node000015"><a xlink:href="webcface_8h.html" target="_top" xlink:title=" ">
<polygon fill="white" stroke="#666666" points="745.21,-74 585.21,-74 585.21,-55 745.21,-55 745.21,-74"/>
<text text-anchor="middle" x="665.21" y="-62" font-family="Helvetica,sans-Serif" font-size="10.00">include/webcface/webcface.h</text>
</a>
</g>
</g>
<!-- Node1&#45;&gt;Node15 -->
<g id="edge17_Node000001_Node000015" class="edge">
<title>Node1&#45;&gt;Node15</title>
<g id="a_edge17_Node000001_Node000015"><a xlink:title=" ">
<path fill="none" stroke="#63b8ff" d="M353.07,-224.84C431.51,-217.37 552.81,-195.07 633.21,-129 650.76,-114.58 659.62,-88.08 663.21,-74.32"/>
<polygon fill="#63b8ff" stroke="#63b8ff" points="352.42,-221.38 342.77,-225.76 353.05,-228.35 352.42,-221.38"/>
</a>
</g>
</g>
<!-- Node5 -->
<g id="Node000005" class="node">
<title>Node5</title>
<g id="a_Node000005"><a xlink:href="canvas3d_8cc.html" target="_top" xlink:title=" ">
<polygon fill="white" stroke="#666666" points="121.71,-129 14.71,-129 14.71,-110 121.71,-110 121.71,-129"/>
<text text-anchor="middle" x="68.21" y="-117" font-family="Helvetica,sans-Serif" font-size="10.00">client/canvas3d.cc</text>
</a>
</g>
</g>
<!-- Node4&#45;&gt;Node5 -->
<g id="edge4_Node000004_Node000005" class="edge">
<title>Node4&#45;&gt;Node5</title>
<g id="a_edge4_Node000004_Node000005"><a xlink:title=" ">
<path fill="none" stroke="#63b8ff" d="M289.87,-163.07C238.13,-153.13 161.19,-138.35 112.9,-129.08"/>
<polygon fill="#63b8ff" stroke="#63b8ff" points="289.39,-166.54 299.87,-164.98 290.71,-159.66 289.39,-166.54"/>
</a>
</g>
</g>
<!-- Node6 -->
<g id="Node000006" class="node">
<title>Node6</title>
<g id="a_Node000006"><a xlink:href="field_8cc.html" target="_top" xlink:title=" ">
<polygon fill="white" stroke="#666666" points="220.71,-129 139.71,-129 139.71,-110 220.71,-110 220.71,-129"/>
<text text-anchor="middle" x="180.21" y="-117" font-family="Helvetica,sans-Serif" font-size="10.00">client/field.cc</text>
</a>
</g>
</g>
<!-- Node4&#45;&gt;Node6 -->
<g id="edge5_Node000004_Node000006" class="edge">
<title>Node4&#45;&gt;Node6</title>
<g id="a_edge5_Node000004_Node000006"><a xlink:title=" ">
<path fill="none" stroke="#63b8ff" d="M308,-161.8C277.4,-151.91 234.26,-137.97 206.77,-129.08"/>
<polygon fill="#63b8ff" stroke="#63b8ff" points="307.27,-165.24 317.86,-164.98 309.42,-158.58 307.27,-165.24"/>
</a>
</g>
</g>
<!-- Node7 -->
<g id="Node000007" class="node">
<title>Node7</title>
<g id="a_Node000007"><a xlink:href="member_8cc.html" target="_top" xlink:title=" ">
<polygon fill="white" stroke="#666666" points="339.71,-129 238.71,-129 238.71,-110 339.71,-110 339.71,-129"/>
<text text-anchor="middle" x="289.21" y="-117" font-family="Helvetica,sans-Serif" font-size="10.00">client/member.cc</text>
</a>
</g>
</g>
<!-- Node4&#45;&gt;Node7 -->
<g id="edge6_Node000004_Node000007" class="edge">
<title>Node4&#45;&gt;Node7</title>
<g id="a_edge6_Node000004_Node000007"><a xlink:title=" ">
<path fill="none" stroke="#63b8ff" d="M327.92,-157.8C318.17,-148.41 306.16,-136.83 298.13,-129.09"/>
<polygon fill="#63b8ff" stroke="#63b8ff" points="325.5,-160.33 335.13,-164.75 330.36,-155.29 325.5,-160.33"/>
</a>
</g>
</g>
<!-- Node8 -->
<g id="Node000008" class="node">
<title>Node8</title>
<g id="a_Node000008"><a xlink:href="view_8cc.html" target="_top" xlink:title=" ">
<polygon fill="white" stroke="#666666" points="440.71,-129 357.71,-129 357.71,-110 440.71,-110 440.71,-129"/>
<text text-anchor="middle" x="399.21" y="-117" font-family="Helvetica,sans-Serif" font-size="10.00">client/view.cc</text>
</a>
</g>
</g>
<!-- Node4&#45;&gt;Node8 -->
<g id="edge7_Node000004_Node000008" class="edge">
<title>Node4&#45;&gt;Node8</title>
<g id="a_edge7_Node000004_Node000008"><a xlink:title=" ">
<path fill="none" stroke="#63b8ff" d="M360.51,-157.8C370.25,-148.41 382.27,-136.83 390.3,-129.09"/>
<polygon fill="#63b8ff" stroke="#63b8ff" points="358.07,-155.29 353.29,-164.75 362.92,-160.33 358.07,-155.29"/>
</a>
</g>
</g>
<!-- Node9 -->
<g id="Node000009" class="node">
<title>Node9</title>
<g id="a_Node000009"><a xlink:href="client_8h.html" target="_top" xlink:title=" ">
<polygon fill="white" stroke="#666666" points="599.21,-129 459.21,-129 459.21,-110 599.21,-110 599.21,-129"/>
<text text-anchor="middle" x="529.21" y="-117" font-family="Helvetica,sans-Serif" font-size="10.00">include/webcface/client.h</text>
</a>
</g>
</g>
<!-- Node4&#45;&gt;Node9 -->
<g id="edge8_Node000004_Node000009" class="edge">
<title>Node4&#45;&gt;Node9</title>
<g id="a_edge8_Node000004_Node000009"><a xlink:title=" ">
<path fill="none" stroke="#63b8ff" d="M383.71,-162.18C418.31,-152.27 467.84,-138.08 499.26,-129.08"/>
<polygon fill="#63b8ff" stroke="#63b8ff" points="382.59,-158.87 373.94,-164.98 384.51,-165.6 382.59,-158.87"/>
</a>
</g>
</g>
<!-- Node4&#45;&gt;Node15 -->
<g id="edge16_Node000004_Node000015" class="edge">
<title>Node4&#45;&gt;Node15</title>
<g id="a_edge16_Node000004_Node000015"><a xlink:title=" ">
<path fill="none" stroke="#63b8ff" d="M431.53,-165.04C496.33,-157.6 578.4,-145.41 608.21,-129 632.35,-115.71 651.5,-88.21 660.17,-74.17"/>
<polygon fill="#63b8ff" stroke="#63b8ff" points="430.84,-161.59 421.29,-166.19 431.62,-168.55 430.84,-161.59"/>
</a>
</g>
</g>
<!-- Node9&#45;&gt;Node2 -->
<g id="edge13_Node000009_Node000002" class="edge">
<title>Node9&#45;&gt;Node2</title>
<g id="a_edge13_Node000009_Node000002"><a xlink:title=" ">
<path fill="none" stroke="#63b8ff" d="M453.36,-108.67C368.16,-97.63 232.77,-80.09 163.76,-71.14"/>
<polygon fill="#63b8ff" stroke="#63b8ff" points="453.13,-112.17 463.5,-109.98 454.03,-105.23 453.13,-112.17"/>
</a>
</g>
</g>
<!-- Node10 -->
<g id="Node000010" class="node">
<title>Node10</title>
<g id="a_Node000010"><a xlink:href="c__wcf__internal_8h.html" target="_top" xlink:title=" ">
<polygon fill="white" stroke="#666666" points="442.71,-74 315.71,-74 315.71,-55 442.71,-55 442.71,-74"/>
<text text-anchor="middle" x="379.21" y="-62" font-family="Helvetica,sans-Serif" font-size="10.00">c_wcf/c_wcf_internal.h</text>
</a>
</g>
</g>
<!-- Node9&#45;&gt;Node10 -->
<g id="edge9_Node000009_Node000010" class="edge">
<title>Node9&#45;&gt;Node10</title>
<g id="a_edge9_Node000009_Node000010"><a xlink:title=" ">
<path fill="none" stroke="#63b8ff" d="M495.39,-106.55C467.54,-96.71 428.7,-82.98 403.75,-74.17"/>
<polygon fill="#63b8ff" stroke="#63b8ff" points="494.52,-109.95 505.11,-109.98 496.85,-103.35 494.52,-109.95"/>
</a>
</g>
</g>
<!-- Node14 -->
<g id="Node000014" class="node">
<title>Node14</title>
<g id="a_Node000014"><a xlink:href="client__ws_8cc.html" target="_top" xlink:title=" ">
<polygon fill="white" stroke="#666666" points="567.21,-74 461.21,-74 461.21,-55 567.21,-55 567.21,-74"/>
<text text-anchor="middle" x="514.21" y="-62" font-family="Helvetica,sans-Serif" font-size="10.00">client/client_ws.cc</text>
</a>
</g>
</g>
<!-- Node9&#45;&gt;Node14 -->
<g id="edge14_Node000009_Node000014" class="edge">
<title>Node9&#45;&gt;Node14</title>
<g id="a_edge14_Node000009_Node000014"><a xlink:title=" ">
<path fill="none" stroke="#63b8ff" d="M523.96,-99.95C521.47,-91.15 518.62,-81.06 516.64,-74.09"/>
<polygon fill="#63b8ff" stroke="#63b8ff" points="520.64,-101.08 526.74,-109.75 527.38,-99.17 520.64,-101.08"/>
</a>
</g>
</g>
<!-- Node9&#45;&gt;Node15 -->
<g id="edge15_Node000009_Node000015" class="edge">
<title>Node9&#45;&gt;Node15</title>
<g id="a_edge15_Node000009_Node000015"><a xlink:title=" ">
<path fill="none" stroke="#63b8ff" d="M560.54,-106.29C585.75,-96.47 620.54,-82.91 642.96,-74.17"/>
<polygon fill="#63b8ff" stroke="#63b8ff" points="559.11,-103.09 551.06,-109.98 561.65,-109.61 559.11,-103.09"/>
</a>
</g>
</g>
<!-- Node11 -->
<g id="Node000011" class="node">
<title>Node11</title>
<g id="a_Node000011"><a xlink:href="c__wcf_2client_8cc.html" target="_top" xlink:title=" ">
<polygon fill="white" stroke="#666666" points="320.21,-19 232.21,-19 232.21,0 320.21,0 320.21,-19"/>
<text text-anchor="middle" x="276.21" y="-7" font-family="Helvetica,sans-Serif" font-size="10.00">c_wcf/client.cc</text>
</a>
</g>
</g>
<!-- Node10&#45;&gt;Node11 -->
<g id="edge10_Node000010_Node000011" class="edge">
<title>Node10&#45;&gt;Node11</title>
<g id="a_edge10_Node000010_Node000011"><a xlink:title=" ">
<path fill="none" stroke="#63b8ff" d="M353.69,-50.37C334.77,-40.63 309.52,-27.64 293.06,-19.17"/>
<polygon fill="#63b8ff" stroke="#63b8ff" points="352.17,-53.52 362.66,-54.98 355.37,-47.3 352.17,-53.52"/>
</a>
</g>
</g>
<!-- Node12 -->
<g id="Node000012" class="node">
<title>Node12</title>
<g id="a_Node000012"><a xlink:href="c__wcf_2func_8cc.html" target="_top" xlink:title=" ">
<polygon fill="white" stroke="#666666" points="420.21,-19 338.21,-19 338.21,0 420.21,0 420.21,-19"/>
<text text-anchor="middle" x="379.21" y="-7" font-family="Helvetica,sans-Serif" font-size="10.00">c_wcf/func.cc</text>
</a>
</g>
</g>
<!-- Node10&#45;&gt;Node12 -->
<g id="edge11_Node000010_Node000012" class="edge">
<title>Node10&#45;&gt;Node12</title>
<g id="a_edge11_Node000010_Node000012"><a xlink:title=" ">
<path fill="none" stroke="#63b8ff" d="M379.21,-44.66C379.21,-35.93 379.21,-25.99 379.21,-19.09"/>
<polygon fill="#63b8ff" stroke="#63b8ff" points="375.71,-44.75 379.21,-54.75 382.71,-44.75 375.71,-44.75"/>
</a>
</g>
</g>
<!-- Node13 -->
<g id="Node000013" class="node">
<title>Node13</title>
<g id="a_Node000013"><a xlink:href="c__wcf_2value_8cc.html" target="_top" xlink:title=" ">
<polygon fill="white" stroke="#666666" points="526.21,-19 438.21,-19 438.21,0 526.21,0 526.21,-19"/>
<text text-anchor="middle" x="482.21" y="-7" font-family="Helvetica,sans-Serif" font-size="10.00">c_wcf/value.cc</text>
</a>
</g>
</g>
<!-- Node10&#45;&gt;Node13 -->
<g id="edge12_Node000010_Node000013" class="edge">
<title>Node10&#45;&gt;Node13</title>
<g id="a_edge12_Node000010_Node000013"><a xlink:title=" ">
<path fill="none" stroke="#63b8ff" d="M404.73,-50.37C423.65,-40.63 448.91,-27.64 465.36,-19.17"/>
<polygon fill="#63b8ff" stroke="#63b8ff" points="403.05,-47.3 395.76,-54.98 406.25,-53.52 403.05,-47.3"/>
</a>
</g>
</g>
</g>
</svg>
