<?xml version="1.0" encoding="UTF-8" standalone="no"?>
<!DOCTYPE svg PUBLIC "-//W3C//DTD SVG 1.1//EN"
 "http://www.w3.org/Graphics/SVG/1.1/DTD/svg11.dtd">
<!-- Generated by graphviz version 2.43.0 (0)
 -->
<!-- Title: include/webcface/text.h Pages: 1 -->
<svg width="881pt" height="247pt"
 viewBox="0.00 0.00 880.60 247.00" xmlns="http://www.w3.org/2000/svg" xmlns:xlink="http://www.w3.org/1999/xlink">
<g id="graph0" class="graph" transform="scale(1 1) rotate(0) translate(4 243)">
<title>include/webcface/text.h</title>
<!-- Node1 -->
<g id="Node000001" class="node">
<title>Node1</title>
<g id="a_Node000001"><a xlink:title=" ">
<polygon fill="#999999" stroke="#666666" points="415.1,-239 282.1,-239 282.1,-220 415.1,-220 415.1,-239"/>
<text text-anchor="middle" x="348.6" y="-227" font-family="Helvetica,sans-Serif" font-size="10.00">include/webcface/text.h</text>
</a>
</g>
</g>
<!-- Node2 -->
<g id="Node000002" class="node">
<title>Node2</title>
<g id="a_Node000002"><a xlink:href="client_2client_8cc.html" target="_top" xlink:title=" ">
<polygon fill="white" stroke="#666666" points="229.1,-74 142.1,-74 142.1,-55 229.1,-55 229.1,-74"/>
<text text-anchor="middle" x="185.6" y="-62" font-family="Helvetica,sans-Serif" font-size="10.00">client/client.cc</text>
</a>
</g>
</g>
<!-- Node1&#45;&gt;Node2 -->
<g id="edge1_Node000001_Node000002" class="edge">
<title>Node1&#45;&gt;Node2</title>
<g id="a_edge1_Node000001_Node000002"><a xlink:title=" ">
<path fill="none" stroke="#63b8ff" d="M280.11,-218.32C190.3,-203.41 40.29,-172.59 7.6,-129 -28.47,-80.9 78.31,-69.12 141.91,-66.32"/>
<polygon fill="#63b8ff" stroke="#63b8ff" points="279.78,-221.81 290.21,-219.97 280.91,-214.9 279.78,-221.81"/>
</a>
</g>
</g>
<!-- Node3 -->
<g id="Node000003" class="node">
<title>Node3</title>
<g id="a_Node000003"><a xlink:href="text_8cc.html" target="_top" xlink:title=" ">
<polygon fill="white" stroke="#666666" points="321.6,-184 241.6,-184 241.6,-165 321.6,-165 321.6,-184"/>
<text text-anchor="middle" x="281.6" y="-172" font-family="Helvetica,sans-Serif" font-size="10.00">client/text.cc</text>
</a>
</g>
</g>
<!-- Node1&#45;&gt;Node3 -->
<g id="edge2_Node000001_Node000003" class="edge">
<title>Node1&#45;&gt;Node3</title>
<g id="a_edge2_Node000001_Node000003"><a xlink:title=" ">
<path fill="none" stroke="#63b8ff" d="M329.77,-213.6C317.76,-204.11 302.63,-192.13 292.56,-184.17"/>
<polygon fill="#63b8ff" stroke="#63b8ff" points="327.82,-216.53 337.84,-219.98 332.17,-211.04 327.82,-216.53"/>
</a>
</g>
</g>
<!-- Node4 -->
<g id="Node000004" class="node">
<title>Node4</title>
<g id="a_Node000004"><a xlink:href="member_8h.html" target="_top" xlink:title=" ">
<polygon fill="white" stroke="#666666" points="493.6,-184 339.6,-184 339.6,-165 493.6,-165 493.6,-184"/>
<text text-anchor="middle" x="416.6" y="-172" font-family="Helvetica,sans-Serif" font-size="10.00">include/webcface/member.h</text>
</a>
</g>
</g>
<!-- Node1&#45;&gt;Node4 -->
<g id="edge3_Node000001_Node000004" class="edge">
<title>Node1&#45;&gt;Node4</title>
<g id="a_edge3_Node000001_Node000004"><a xlink:title=" ">
<path fill="none" stroke="#63b8ff" d="M367.72,-213.6C379.9,-204.11 395.26,-192.13 405.48,-184.17"/>
<polygon fill="#63b8ff" stroke="#63b8ff" points="365.26,-211.08 359.53,-219.98 369.57,-216.6 365.26,-211.08"/>
</a>
</g>
</g>
<!-- Node16 -->
<g id="Node000016" class="node">
<title>Node16</title>
<g id="a_Node000016"><a xlink:href="webcface_8h.html" target="_top" xlink:title=" ">
<polygon fill="white" stroke="#666666" points="872.6,-74 712.6,-74 712.6,-55 872.6,-55 872.6,-74"/>
<text text-anchor="middle" x="792.6" y="-62" font-family="Helvetica,sans-Serif" font-size="10.00">include/webcface/webcface.h</text>
</a>
</g>
</g>
<!-- Node1&#45;&gt;Node16 -->
<g id="edge18_Node000001_Node000016" class="edge">
<title>Node1&#45;&gt;Node16</title>
<g id="a_edge18_Node000001_Node000016"><a xlink:title=" ">
<path fill="none" stroke="#63b8ff" d="M425.27,-228.61C514.85,-224.88 663.17,-206.27 760.6,-129 778.4,-114.89 787.15,-88.26 790.66,-74.39"/>
<polygon fill="#63b8ff" stroke="#63b8ff" points="425.05,-225.11 415.18,-228.98 425.3,-232.11 425.05,-225.11"/>
</a>
</g>
</g>
<!-- Node5 -->
<g id="Node000005" class="node">
<title>Node5</title>
<g id="a_Node000005"><a xlink:href="canvas2d_8cc.html" target="_top" xlink:title=" ">
<polygon fill="white" stroke="#666666" points="124.1,-129 17.1,-129 17.1,-110 124.1,-110 124.1,-129"/>
<text text-anchor="middle" x="70.6" y="-117" font-family="Helvetica,sans-Serif" font-size="10.00">client/canvas2d.cc</text>
</a>
</g>
</g>
<!-- Node4&#45;&gt;Node5 -->
<g id="edge4_Node000004_Node000005" class="edge">
<title>Node4&#45;&gt;Node5</title>
<g id="a_edge4_Node000004_Node000005"><a xlink:title=" ">
<path fill="none" stroke="#63b8ff" d="M350.77,-163.42C285.1,-153.36 185.41,-138.09 124.35,-128.73"/>
<polygon fill="#63b8ff" stroke="#63b8ff" points="350.6,-166.93 361.01,-164.98 351.66,-160.01 350.6,-166.93"/>
</a>
</g>
</g>
<!-- Node6 -->
<g id="Node000006" class="node">
<title>Node6</title>
<g id="a_Node000006"><a xlink:href="canvas3d_8cc.html" target="_top" xlink:title=" ">
<polygon fill="white" stroke="#666666" points="249.1,-129 142.1,-129 142.1,-110 249.1,-110 249.1,-129"/>
<text text-anchor="middle" x="195.6" y="-117" font-family="Helvetica,sans-Serif" font-size="10.00">client/canvas3d.cc</text>
</a>
</g>
</g>
<!-- Node4&#45;&gt;Node6 -->
<g id="edge5_Node000004_Node000006" class="edge">
<title>Node4&#45;&gt;Node6</title>
<g id="a_edge5_Node000004_Node000006"><a xlink:title=" ">
<path fill="none" stroke="#63b8ff" d="M371.27,-162.63C329.87,-152.7 269.48,-138.22 231.39,-129.08"/>
<polygon fill="#63b8ff" stroke="#63b8ff" points="370.55,-166.06 381.1,-164.98 372.19,-159.25 370.55,-166.06"/>
</a>
</g>
</g>
<!-- Node7 -->
<g id="Node000007" class="node">
<title>Node7</title>
<g id="a_Node000007"><a xlink:href="field_8cc.html" target="_top" xlink:title=" ">
<polygon fill="white" stroke="#666666" points="348.1,-129 267.1,-129 267.1,-110 348.1,-110 348.1,-129"/>
<text text-anchor="middle" x="307.6" y="-117" font-family="Helvetica,sans-Serif" font-size="10.00">client/field.cc</text>
</a>
</g>
</g>
<!-- Node4&#45;&gt;Node7 -->
<g id="edge6_Node000004_Node000007" class="edge">
<title>Node4&#45;&gt;Node7</title>
<g id="a_edge6_Node000004_Node000007"><a xlink:title=" ">
<path fill="none" stroke="#63b8ff" d="M389.87,-160.5C369.82,-150.75 342.93,-137.68 325.43,-129.17"/>
<polygon fill="#63b8ff" stroke="#63b8ff" points="388.57,-163.76 399.09,-164.98 391.63,-157.46 388.57,-163.76"/>
</a>
</g>
</g>
<!-- Node8 -->
<g id="Node000008" class="node">
<title>Node8</title>
<g id="a_Node000008"><a xlink:href="member_8cc.html" target="_top" xlink:title=" ">
<polygon fill="white" stroke="#666666" points="467.1,-129 366.1,-129 366.1,-110 467.1,-110 467.1,-129"/>
<text text-anchor="middle" x="416.6" y="-117" font-family="Helvetica,sans-Serif" font-size="10.00">client/member.cc</text>
</a>
</g>
</g>
<!-- Node4&#45;&gt;Node8 -->
<g id="edge7_Node000004_Node000008" class="edge">
<title>Node4&#45;&gt;Node8</title>
<g id="a_edge7_Node000004_Node000008"><a xlink:title=" ">
<path fill="none" stroke="#63b8ff" d="M416.6,-154.66C416.6,-145.93 416.6,-135.99 416.6,-129.09"/>
<polygon fill="#63b8ff" stroke="#63b8ff" points="413.1,-154.75 416.6,-164.75 420.1,-154.75 413.1,-154.75"/>
</a>
</g>
</g>
<!-- Node9 -->
<g id="Node000009" class="node">
<title>Node9</title>
<g id="a_Node000009"><a xlink:href="view_8cc.html" target="_top" xlink:title=" ">
<polygon fill="white" stroke="#666666" points="568.1,-129 485.1,-129 485.1,-110 568.1,-110 568.1,-129"/>
<text text-anchor="middle" x="526.6" y="-117" font-family="Helvetica,sans-Serif" font-size="10.00">client/view.cc</text>
</a>
</g>
</g>
<!-- Node4&#45;&gt;Node9 -->
<g id="edge8_Node000004_Node000009" class="edge">
<title>Node4&#45;&gt;Node9</title>
<g id="a_edge8_Node000004_Node000009"><a xlink:title=" ">
<path fill="none" stroke="#63b8ff" d="M443.31,-160.63C463.57,-150.87 490.88,-137.71 508.61,-129.17"/>
<polygon fill="#63b8ff" stroke="#63b8ff" points="441.77,-157.49 434.28,-164.98 444.8,-163.8 441.77,-157.49"/>
</a>
</g>
</g>
<!-- Node10 -->
<g id="Node000010" class="node">
<title>Node10</title>
<g id="a_Node000010"><a xlink:href="client_8h.html" target="_top" xlink:title=" ">
<polygon fill="white" stroke="#666666" points="726.6,-129 586.6,-129 586.6,-110 726.6,-110 726.6,-129"/>
<text text-anchor="middle" x="656.6" y="-117" font-family="Helvetica,sans-Serif" font-size="10.00">include/webcface/client.h</text>
</a>
</g>
</g>
<!-- Node4&#45;&gt;Node10 -->
<g id="edge9_Node000004_Node000010" class="edge">
<title>Node4&#45;&gt;Node10</title>
<g id="a_edge9_Node000004_Node000010"><a xlink:title=" ">
<path fill="none" stroke="#63b8ff" d="M464.98,-162.82C509.96,-152.88 576.11,-138.28 617.74,-129.08"/>
<polygon fill="#63b8ff" stroke="#63b8ff" points="464.17,-159.41 455.16,-164.98 465.68,-166.25 464.17,-159.41"/>
</a>
</g>
</g>
<!-- Node4&#45;&gt;Node16 -->
<g id="edge17_Node000004_Node000016" class="edge">
<title>Node4&#45;&gt;Node16</title>
<g id="a_edge17_Node000004_Node000016"><a xlink:title=" ">
<path fill="none" stroke="#63b8ff" d="M503.92,-168.05C584.24,-161.84 696.61,-149.75 735.6,-129 759.93,-116.06 779,-88.4 787.6,-74.24"/>
<polygon fill="#63b8ff" stroke="#63b8ff" points="503.51,-164.57 493.8,-168.82 504.03,-171.55 503.51,-164.57"/>
</a>
</g>
</g>
<!-- Node10&#45;&gt;Node2 -->
<g id="edge14_Node000010_Node000002" class="edge">
<title>Node10&#45;&gt;Node2</title>
<g id="a_edge14_Node000010_Node000002"><a xlink:title=" ">
<path fill="none" stroke="#63b8ff" d="M576.52,-109.49C476.29,-98.21 308.2,-79.3 229.17,-70.4"/>
<polygon fill="#63b8ff" stroke="#63b8ff" points="576.27,-112.98 586.6,-110.62 577.05,-106.03 576.27,-112.98"/>
</a>
</g>
</g>
<!-- Node11 -->
<g id="Node000011" class="node">
<title>Node11</title>
<g id="a_Node000011"><a xlink:href="c__wcf__internal_8h.html" target="_top" xlink:title=" ">
<polygon fill="white" stroke="#666666" points="570.1,-74 443.1,-74 443.1,-55 570.1,-55 570.1,-74"/>
<text text-anchor="middle" x="506.6" y="-62" font-family="Helvetica,sans-Serif" font-size="10.00">c_wcf/c_wcf_internal.h</text>
</a>
</g>
</g>
<!-- Node10&#45;&gt;Node11 -->
<g id="edge10_Node000010_Node000011" class="edge">
<title>Node10&#45;&gt;Node11</title>
<g id="a_edge10_Node000010_Node000011"><a xlink:title=" ">
<path fill="none" stroke="#63b8ff" d="M622.78,-106.55C594.93,-96.71 556.09,-82.98 531.14,-74.17"/>
<polygon fill="#63b8ff" stroke="#63b8ff" points="621.91,-109.95 632.5,-109.98 624.24,-103.35 621.91,-109.95"/>
</a>
</g>
</g>
<!-- Node15 -->
<g id="Node000015" class="node">
<title>Node15</title>
<g id="a_Node000015"><a xlink:href="client__ws_8cc.html" target="_top" xlink:title=" ">
<polygon fill="white" stroke="#666666" points="694.6,-74 588.6,-74 588.6,-55 694.6,-55 694.6,-74"/>
<text text-anchor="middle" x="641.6" y="-62" font-family="Helvetica,sans-Serif" font-size="10.00">client/client_ws.cc</text>
</a>
</g>
</g>
<!-- Node10&#45;&gt;Node15 -->
<g id="edge15_Node000010_Node000015" class="edge">
<title>Node10&#45;&gt;Node15</title>
<g id="a_edge15_Node000010_Node000015"><a xlink:title=" ">
<path fill="none" stroke="#63b8ff" d="M651.35,-99.95C648.86,-91.15 646.01,-81.06 644.03,-74.09"/>
<polygon fill="#63b8ff" stroke="#63b8ff" points="648.03,-101.08 654.13,-109.75 654.77,-99.17 648.03,-101.08"/>
</a>
</g>
</g>
<!-- Node10&#45;&gt;Node16 -->
<g id="edge16_Node000010_Node000016" class="edge">
<title>Node10&#45;&gt;Node16</title>
<g id="a_edge16_Node000010_Node000016"><a xlink:title=" ">
<path fill="none" stroke="#63b8ff" d="M687.93,-106.29C713.14,-96.47 747.93,-82.91 770.35,-74.17"/>
<polygon fill="#63b8ff" stroke="#63b8ff" points="686.5,-103.09 678.45,-109.98 689.04,-109.61 686.5,-103.09"/>
</a>
</g>
</g>
<!-- Node12 -->
<g id="Node000012" class="node">
<title>Node12</title>
<g id="a_Node000012"><a xlink:href="c__wcf_2client_8cc.html" target="_top" xlink:title=" ">
<polygon fill="white" stroke="#666666" points="447.6,-19 359.6,-19 359.6,0 447.6,0 447.6,-19"/>
<text text-anchor="middle" x="403.6" y="-7" font-family="Helvetica,sans-Serif" font-size="10.00">c_wcf/client.cc</text>
</a>
</g>
</g>
<!-- Node11&#45;&gt;Node12 -->
<g id="edge11_Node000011_Node000012" class="edge">
<title>Node11&#45;&gt;Node12</title>
<g id="a_edge11_Node000011_Node000012"><a xlink:title=" ">
<path fill="none" stroke="#63b8ff" d="M481.08,-50.37C462.16,-40.63 436.91,-27.64 420.45,-19.17"/>
<polygon fill="#63b8ff" stroke="#63b8ff" points="479.56,-53.52 490.05,-54.98 482.76,-47.3 479.56,-53.52"/>
</a>
</g>
</g>
<!-- Node13 -->
<g id="Node000013" class="node">
<title>Node13</title>
<g id="a_Node000013"><a xlink:href="c__wcf_2func_8cc.html" target="_top" xlink:title=" ">
<polygon fill="white" stroke="#666666" points="547.6,-19 465.6,-19 465.6,0 547.6,0 547.6,-19"/>
<text text-anchor="middle" x="506.6" y="-7" font-family="Helvetica,sans-Serif" font-size="10.00">c_wcf/func.cc</text>
</a>
</g>
</g>
<!-- Node11&#45;&gt;Node13 -->
<g id="edge12_Node000011_Node000013" class="edge">
<title>Node11&#45;&gt;Node13</title>
<g id="a_edge12_Node000011_Node000013"><a xlink:title=" ">
<path fill="none" stroke="#63b8ff" d="M506.6,-44.66C506.6,-35.93 506.6,-25.99 506.6,-19.09"/>
<polygon fill="#63b8ff" stroke="#63b8ff" points="503.1,-44.75 506.6,-54.75 510.1,-44.75 503.1,-44.75"/>
</a>
</g>
</g>
<!-- Node14 -->
<g id="Node000014" class="node">
<title>Node14</title>
<g id="a_Node000014"><a xlink:href="c__wcf_2value_8cc.html" target="_top" xlink:title=" ">
<polygon fill="white" stroke="#666666" points="653.6,-19 565.6,-19 565.6,0 653.6,0 653.6,-19"/>
<text text-anchor="middle" x="609.6" y="-7" font-family="Helvetica,sans-Serif" font-size="10.00">c_wcf/value.cc</text>
</a>
</g>
</g>
<!-- Node11&#45;&gt;Node14 -->
<g id="edge13_Node000011_Node000014" class="edge">
<title>Node11&#45;&gt;Node14</title>
<g id="a_edge13_Node000011_Node000014"><a xlink:title=" ">
<path fill="none" stroke="#63b8ff" d="M532.12,-50.37C551.04,-40.63 576.3,-27.64 592.75,-19.17"/>
<polygon fill="#63b8ff" stroke="#63b8ff" points="530.44,-47.3 523.15,-54.98 533.64,-53.52 530.44,-47.3"/>
</a>
</g>
</g>
</g>
</svg>
