<?xml version="1.0" encoding="UTF-8" standalone="no"?>
<!DOCTYPE svg PUBLIC "-//W3C//DTD SVG 1.1//EN"
 "http://www.w3.org/Graphics/SVG/1.1/DTD/svg11.dtd">
<!-- Generated by graphviz version 2.43.0 (0)
 -->
<!-- Title: include/webcface/text.h Pages: 1 -->
<svg width="1429pt" height="247pt"
 viewBox="0.00 0.00 1428.93 247.00" xmlns="http://www.w3.org/2000/svg" xmlns:xlink="http://www.w3.org/1999/xlink">
<g id="graph0" class="graph" transform="scale(1 1) rotate(0) translate(4 243)">
<title>include/webcface/text.h</title>
<!-- Node1 -->
<g id="Node000001" class="node">
<title>Node1</title>
<g id="a_Node000001"><a xlink:title=" ">
<polygon fill="#999999" stroke="#666666" points="663.43,-239 530.43,-239 530.43,-220 663.43,-220 663.43,-239"/>
<text text-anchor="middle" x="596.93" y="-227" font-family="Helvetica,sans-Serif" font-size="10.00">include/webcface/text.h</text>
</a>
</g>
</g>
<!-- Node2 -->
<g id="Node000002" class="node">
<title>Node2</title>
<g id="a_Node000002"><a xlink:title=" ">
<polygon fill="#e0e0e0" stroke="#999999" points="677.43,-74 620.43,-74 620.43,-55 677.43,-55 677.43,-74"/>
<text text-anchor="middle" x="648.93" y="-62" font-family="Helvetica,sans-Serif" font-size="10.00">ostream</text>
</a>
</g>
</g>
<!-- Node1&#45;&gt;Node2 -->
<g id="edge1_Node000001_Node000002" class="edge">
<title>Node1&#45;&gt;Node2</title>
<g id="a_edge1_Node000001_Node000002"><a xlink:title=" ">
<path fill="none" stroke="#63b8ff" d="M599.73,-219.74C607.87,-194.2 631.73,-119.43 642.95,-84.23"/>
<polygon fill="#63b8ff" stroke="#63b8ff" points="646.42,-84.9 646.12,-74.31 639.75,-82.77 646.42,-84.9"/>
</a>
</g>
</g>
<!-- Node3 -->
<g id="Node000003" class="node">
<title>Node3</title>
<g id="a_Node000003"><a xlink:title=" ">
<polygon fill="#e0e0e0" stroke="#999999" points="66.93,-129 10.93,-129 10.93,-110 66.93,-110 66.93,-129"/>
<text text-anchor="middle" x="38.93" y="-117" font-family="Helvetica,sans-Serif" font-size="10.00">optional</text>
</a>
</g>
</g>
<!-- Node1&#45;&gt;Node3 -->
<g id="edge2_Node000001_Node000003" class="edge">
<title>Node1&#45;&gt;Node3</title>
<g id="a_edge2_Node000001_Node000003"><a xlink:title=" ">
<path fill="none" stroke="#63b8ff" d="M530.22,-222.29C463.04,-215.38 356.65,-202.69 265.93,-184 197.33,-169.86 118.98,-146.24 74.59,-132.14"/>
<polygon fill="#63b8ff" stroke="#63b8ff" points="75.45,-128.74 64.86,-129.03 73.31,-135.41 75.45,-128.74"/>
</a>
</g>
</g>
<!-- Node4 -->
<g id="Node000004" class="node">
<title>Node4</title>
<g id="a_Node000004"><a xlink:title=" ">
<polygon fill="#e0e0e0" stroke="#999999" points="324.93,-184 274.93,-184 274.93,-165 324.93,-165 324.93,-184"/>
<text text-anchor="middle" x="299.93" y="-172" font-family="Helvetica,sans-Serif" font-size="10.00">chrono</text>
</a>
</g>
</g>
<!-- Node1&#45;&gt;Node4 -->
<g id="edge3_Node000001_Node000004" class="edge">
<title>Node1&#45;&gt;Node4</title>
<g id="a_edge3_Node000001_Node000004"><a xlink:title=" ">
<path fill="none" stroke="#63b8ff" d="M538.71,-219.97C487.55,-212.18 410.9,-199.78 335.3,-184.15"/>
<polygon fill="#63b8ff" stroke="#63b8ff" points="335.64,-180.65 325.13,-182.03 334.21,-187.5 335.64,-180.65"/>
</a>
</g>
</g>
<!-- Node5 -->
<g id="Node000005" class="node">
<title>Node5</title>
<g id="a_Node000005"><a xlink:title=" ">
<polygon fill="#e0e0e0" stroke="#999999" points="601.93,-74 543.93,-74 543.93,-55 601.93,-55 601.93,-74"/>
<text text-anchor="middle" x="572.93" y="-62" font-family="Helvetica,sans-Serif" font-size="10.00">memory</text>
</a>
</g>
</g>
<!-- Node1&#45;&gt;Node5 -->
<g id="edge4_Node000001_Node000005" class="edge">
<title>Node1&#45;&gt;Node5</title>
<g id="a_edge4_Node000001_Node000005"><a xlink:title=" ">
<path fill="none" stroke="#63b8ff" d="M595.64,-219.74C591.88,-194.2 580.87,-119.43 575.69,-84.23"/>
<polygon fill="#63b8ff" stroke="#63b8ff" points="579.15,-83.69 574.23,-74.31 572.22,-84.71 579.15,-83.69"/>
</a>
</g>
</g>
<!-- Node6 -->
<g id="Node000006" class="node">
<title>Node6</title>
<g id="a_Node000006"><a xlink:href="dict_8h.html" target="_top" xlink:title=" ">
<polygon fill="white" stroke="#666666" points="432.43,-184 343.43,-184 343.43,-165 432.43,-165 432.43,-184"/>
<text text-anchor="middle" x="387.93" y="-172" font-family="Helvetica,sans-Serif" font-size="10.00">common/dict.h</text>
</a>
</g>
</g>
<!-- Node1&#45;&gt;Node6 -->
<g id="edge5_Node000001_Node000006" class="edge">
<title>Node1&#45;&gt;Node6</title>
<g id="a_edge5_Node000001_Node000006"><a xlink:title=" ">
<path fill="none" stroke="#63b8ff" d="M563.35,-219.98C527.58,-210.91 470.81,-196.52 431.59,-186.57"/>
<polygon fill="#63b8ff" stroke="#63b8ff" points="432.33,-183.15 421.77,-184.08 430.61,-189.93 432.33,-183.15"/>
</a>
</g>
</g>
<!-- Node15 -->
<g id="Node000015" class="node">
<title>Node15</title>
<g id="a_Node000015"><a xlink:href="def_8h.html" target="_top" xlink:title=" ">
<polygon fill="white" stroke="#666666" points="943.43,-19 902.43,-19 902.43,0 943.43,0 943.43,-19"/>
<text text-anchor="middle" x="922.93" y="-7" font-family="Helvetica,sans-Serif" font-size="10.00">def.h</text>
</a>
</g>
</g>
<!-- Node1&#45;&gt;Node15 -->
<g id="edge33_Node000001_Node000015" class="edge">
<title>Node1&#45;&gt;Node15</title>
<g id="a_edge33_Node000001_Node000015"><a xlink:title=" ">
<path fill="none" stroke="#63b8ff" d="M530.3,-228.64C369.08,-227.34 -26.78,-213.66 1.93,-110 9.54,-82.53 10.48,-69.66 34.93,-55 109.67,-10.17 743.68,-9.81 891.99,-10.34"/>
<polygon fill="#63b8ff" stroke="#63b8ff" points="892.18,-13.84 902.19,-10.38 892.21,-6.84 892.18,-13.84"/>
</a>
</g>
</g>
<!-- Node16 -->
<g id="Node000016" class="node">
<title>Node16</title>
<g id="a_Node000016"><a xlink:href="field_8h.html" target="_top" xlink:title=" ">
<polygon fill="white" stroke="#666666" points="1122.43,-129 1075.43,-129 1075.43,-110 1122.43,-110 1122.43,-129"/>
<text text-anchor="middle" x="1098.93" y="-117" font-family="Helvetica,sans-Serif" font-size="10.00">field.h</text>
</a>
</g>
</g>
<!-- Node1&#45;&gt;Node16 -->
<g id="edge21_Node000001_Node000016" class="edge">
<title>Node1&#45;&gt;Node16</title>
<g id="a_edge21_Node000001_Node000016"><a xlink:title=" ">
<path fill="none" stroke="#63b8ff" d="M636.74,-219.94C732.88,-199.25 976.37,-146.87 1065.54,-127.68"/>
<polygon fill="#63b8ff" stroke="#63b8ff" points="1066.35,-131.09 1075.39,-125.56 1064.88,-124.25 1066.35,-131.09"/>
</a>
</g>
</g>
<!-- Node18 -->
<g id="Node000018" class="node">
<title>Node18</title>
<g id="a_Node000018"><a xlink:href="event__target_8h.html" target="_top" xlink:title=" ">
<polygon fill="white" stroke="#666666" points="1206.93,-184 1118.93,-184 1118.93,-165 1206.93,-165 1206.93,-184"/>
<text text-anchor="middle" x="1162.93" y="-172" font-family="Helvetica,sans-Serif" font-size="10.00">event_target.h</text>
</a>
</g>
</g>
<!-- Node1&#45;&gt;Node18 -->
<g id="edge28_Node000001_Node000018" class="edge">
<title>Node1&#45;&gt;Node18</title>
<g id="a_edge28_Node000001_Node000018"><a xlink:title=" ">
<path fill="none" stroke="#63b8ff" d="M663.52,-222.26C776.79,-211.66 1004.76,-190.31 1108.87,-180.56"/>
<polygon fill="#63b8ff" stroke="#63b8ff" points="1109.21,-184.05 1118.84,-179.63 1108.56,-177.08 1109.21,-184.05"/>
</a>
</g>
</g>
<!-- Node21 -->
<g id="Node000021" class="node">
<title>Node21</title>
<g id="a_Node000021"><a xlink:href="val_8h.html" target="_top" xlink:title=" ">
<polygon fill="white" stroke="#666666" points="800.93,-129 714.93,-129 714.93,-110 800.93,-110 800.93,-129"/>
<text text-anchor="middle" x="757.93" y="-117" font-family="Helvetica,sans-Serif" font-size="10.00">common/val.h</text>
</a>
</g>
</g>
<!-- Node1&#45;&gt;Node21 -->
<g id="edge34_Node000001_Node000021" class="edge">
<title>Node1&#45;&gt;Node21</title>
<g id="a_edge34_Node000001_Node000021"><a xlink:title=" ">
<path fill="none" stroke="#63b8ff" d="M609.83,-219.84C637.39,-201.36 702.24,-157.86 736.25,-135.05"/>
<polygon fill="#63b8ff" stroke="#63b8ff" points="738.61,-137.67 744.97,-129.2 734.71,-131.86 738.61,-137.67"/>
</a>
</g>
</g>
<!-- Node6&#45;&gt;Node3 -->
<g id="edge9_Node000006_Node000003" class="edge">
<title>Node6&#45;&gt;Node3</title>
<g id="a_edge9_Node000006_Node000003"><a xlink:title=" ">
<path fill="none" stroke="#63b8ff" d="M343.15,-166.4C340.03,-165.92 336.93,-165.45 333.93,-165 221.61,-148.17 192.86,-148.27 80.93,-129 79.83,-128.81 78.72,-128.61 77.59,-128.41"/>
<polygon fill="#63b8ff" stroke="#63b8ff" points="77.83,-124.9 67.35,-126.49 76.54,-131.78 77.83,-124.9"/>
</a>
</g>
</g>
<!-- Node6&#45;&gt;Node5 -->
<g id="edge10_Node000006_Node000005" class="edge">
<title>Node6&#45;&gt;Node5</title>
<g id="a_edge10_Node000006_Node000005"><a xlink:title=" ">
<path fill="none" stroke="#63b8ff" d="M432.66,-168.58C464,-163.2 505.4,-152.05 534.93,-129 549.93,-117.3 560.29,-97.89 566.36,-83.6"/>
<polygon fill="#63b8ff" stroke="#63b8ff" points="569.62,-84.88 570.03,-74.29 563.11,-82.31 569.62,-84.88"/>
</a>
</g>
</g>
<!-- Node7 -->
<g id="Node000007" class="node">
<title>Node7</title>
<g id="a_Node000007"><a xlink:title=" ">
<polygon fill="#e0e0e0" stroke="#999999" points="1209.93,-19 1165.93,-19 1165.93,0 1209.93,0 1209.93,-19"/>
<text text-anchor="middle" x="1187.93" y="-7" font-family="Helvetica,sans-Serif" font-size="10.00">string</text>
</a>
</g>
</g>
<!-- Node6&#45;&gt;Node7 -->
<g id="edge6_Node000006_Node000007" class="edge">
<title>Node6&#45;&gt;Node7</title>
<g id="a_edge6_Node000006_Node000007"><a xlink:title=" ">
<path fill="none" stroke="#63b8ff" d="M415.46,-164.93C435.68,-157.66 462.98,-145.74 482.93,-129 513.72,-103.16 499.91,-74.73 534.93,-55 562.23,-39.62 1027.25,-17.71 1155.44,-11.94"/>
<polygon fill="#63b8ff" stroke="#63b8ff" points="1155.94,-15.42 1165.77,-11.47 1155.62,-8.43 1155.94,-15.42"/>
</a>
</g>
</g>
<!-- Node8 -->
<g id="Node000008" class="node">
<title>Node8</title>
<g id="a_Node000008"><a xlink:title=" ">
<polygon fill="#e0e0e0" stroke="#999999" points="328.43,-129 235.43,-129 235.43,-110 328.43,-110 328.43,-129"/>
<text text-anchor="middle" x="281.93" y="-117" font-family="Helvetica,sans-Serif" font-size="10.00">unordered_map</text>
</a>
</g>
</g>
<!-- Node6&#45;&gt;Node8 -->
<g id="edge7_Node000006_Node000008" class="edge">
<title>Node6&#45;&gt;Node8</title>
<g id="a_edge7_Node000006_Node000008"><a xlink:title=" ">
<path fill="none" stroke="#63b8ff" d="M370.9,-164.98C354,-156.54 327.87,-143.47 308.29,-133.68"/>
<polygon fill="#63b8ff" stroke="#63b8ff" points="309.78,-130.51 299.27,-129.17 306.65,-136.77 309.78,-130.51"/>
</a>
</g>
</g>
<!-- Node9 -->
<g id="Node000009" class="node">
<title>Node9</title>
<g id="a_Node000009"><a xlink:title=" ">
<polygon fill="#e0e0e0" stroke="#999999" points="127.43,-74 44.43,-74 44.43,-55 127.43,-55 127.43,-74"/>
<text text-anchor="middle" x="85.93" y="-62" font-family="Helvetica,sans-Serif" font-size="10.00">initializer_list</text>
</a>
</g>
</g>
<!-- Node6&#45;&gt;Node9 -->
<g id="edge8_Node000006_Node000009" class="edge">
<title>Node6&#45;&gt;Node9</title>
<g id="a_edge8_Node000006_Node000009"><a xlink:title=" ">
<path fill="none" stroke="#63b8ff" d="M343.22,-166.37C265.84,-154.03 115.06,-129.88 113.93,-129 99.8,-118.08 92.65,-98.51 89.13,-83.98"/>
<polygon fill="#63b8ff" stroke="#63b8ff" points="92.53,-83.16 87.09,-74.07 85.68,-84.57 92.53,-83.16"/>
</a>
</g>
</g>
<!-- Node10 -->
<g id="Node000010" class="node">
<title>Node10</title>
<g id="a_Node000010"><a xlink:title=" ">
<polygon fill="#e0e0e0" stroke="#999999" points="302.43,-74 255.43,-74 255.43,-55 302.43,-55 302.43,-74"/>
<text text-anchor="middle" x="278.93" y="-62" font-family="Helvetica,sans-Serif" font-size="10.00">vector</text>
</a>
</g>
</g>
<!-- Node6&#45;&gt;Node10 -->
<g id="edge11_Node000006_Node000010" class="edge">
<title>Node6&#45;&gt;Node10</title>
<g id="a_edge11_Node000006_Node000010"><a xlink:title=" ">
<path fill="none" stroke="#63b8ff" d="M347.11,-164.97C301.61,-155.05 233.4,-138.8 225.93,-129 212.57,-111.47 234.28,-92.13 253.81,-79.46"/>
<polygon fill="#63b8ff" stroke="#63b8ff" points="255.81,-82.34 262.5,-74.13 252.15,-76.38 255.81,-82.34"/>
</a>
</g>
</g>
<!-- Node11 -->
<g id="Node000011" class="node">
<title>Node11</title>
<g id="a_Node000011"><a xlink:title=" ">
<polygon fill="#e0e0e0" stroke="#999999" points="454.43,-129 385.43,-129 385.43,-110 454.43,-110 454.43,-129"/>
<text text-anchor="middle" x="419.93" y="-117" font-family="Helvetica,sans-Serif" font-size="10.00">type_traits</text>
</a>
</g>
</g>
<!-- Node6&#45;&gt;Node11 -->
<g id="edge12_Node000006_Node000011" class="edge">
<title>Node6&#45;&gt;Node11</title>
<g id="a_edge12_Node000006_Node000011"><a xlink:title=" ">
<path fill="none" stroke="#63b8ff" d="M393.21,-164.75C397.64,-157.42 404.09,-146.73 409.55,-137.7"/>
<polygon fill="#63b8ff" stroke="#63b8ff" points="412.57,-139.46 414.74,-129.09 406.58,-135.84 412.57,-139.46"/>
</a>
</g>
</g>
<!-- Node12 -->
<g id="Node000012" class="node">
<title>Node12</title>
<g id="a_Node000012"><a xlink:title=" ">
<polygon fill="#e0e0e0" stroke="#999999" points="386.93,-74 326.93,-74 326.93,-55 386.93,-55 386.93,-74"/>
<text text-anchor="middle" x="356.93" y="-62" font-family="Helvetica,sans-Serif" font-size="10.00">concepts</text>
</a>
</g>
</g>
<!-- Node6&#45;&gt;Node12 -->
<g id="edge13_Node000006_Node000012" class="edge">
<title>Node6&#45;&gt;Node12</title>
<g id="a_edge13_Node000006_Node000012"><a xlink:title=" ">
<path fill="none" stroke="#63b8ff" d="M385.39,-164.66C380.35,-147.09 368.97,-107.45 362.23,-83.95"/>
<polygon fill="#63b8ff" stroke="#63b8ff" points="365.54,-82.8 359.42,-74.16 358.81,-84.74 365.54,-82.8"/>
</a>
</g>
</g>
<!-- Node13 -->
<g id="Node000013" class="node">
<title>Node13</title>
<g id="a_Node000013"><a xlink:href="vector_8h.html" target="_top" xlink:title=" ">
<polygon fill="white" stroke="#666666" points="178.93,-129 122.93,-129 122.93,-110 178.93,-110 178.93,-129"/>
<text text-anchor="middle" x="150.93" y="-117" font-family="Helvetica,sans-Serif" font-size="10.00">vector.h</text>
</a>
</g>
</g>
<!-- Node6&#45;&gt;Node13 -->
<g id="edge14_Node000006_Node000013" class="edge">
<title>Node6&#45;&gt;Node13</title>
<g id="a_edge14_Node000006_Node000013"><a xlink:title=" ">
<path fill="none" stroke="#63b8ff" d="M349.85,-164.98C305.67,-155.1 233.23,-138.9 189.03,-129.02"/>
<polygon fill="#63b8ff" stroke="#63b8ff" points="189.77,-125.6 179.25,-126.83 188.24,-132.43 189.77,-125.6"/>
</a>
</g>
</g>
<!-- Node6&#45;&gt;Node15 -->
<g id="edge20_Node000006_Node000015" class="edge">
<title>Node6&#45;&gt;Node15</title>
<g id="a_edge20_Node000006_Node000015"><a xlink:title=" ">
<path fill="none" stroke="#63b8ff" d="M408.8,-164.94C425.14,-157.41 447.6,-145.13 462.93,-129 488.55,-102.06 471.15,-75.85 501.93,-55 565.53,-11.9 806.02,-9.52 892.07,-10.09"/>
<polygon fill="#63b8ff" stroke="#63b8ff" points="892.21,-13.59 902.24,-10.18 892.27,-6.59 892.21,-13.59"/>
</a>
</g>
</g>
<!-- Node13&#45;&gt;Node9 -->
<g id="edge16_Node000013_Node000009" class="edge">
<title>Node13&#45;&gt;Node9</title>
<g id="a_edge16_Node000013_Node000009"><a xlink:title=" ">
<path fill="none" stroke="#63b8ff" d="M140.49,-109.98C130.78,-102.07 116.12,-90.11 104.43,-80.58"/>
<polygon fill="#63b8ff" stroke="#63b8ff" points="106.53,-77.78 96.56,-74.17 102.1,-83.2 106.53,-77.78"/>
</a>
</g>
</g>
<!-- Node13&#45;&gt;Node10 -->
<g id="edge15_Node000013_Node000010" class="edge">
<title>Node13&#45;&gt;Node10</title>
<g id="a_edge15_Node000013_Node000010"><a xlink:title=" ">
<path fill="none" stroke="#63b8ff" d="M171.5,-109.98C192.37,-101.34 224.9,-87.87 248.7,-78.02"/>
<polygon fill="#63b8ff" stroke="#63b8ff" points="250.09,-81.23 257.99,-74.17 247.41,-74.76 250.09,-81.23"/>
</a>
</g>
</g>
<!-- Node13&#45;&gt;Node12 -->
<g id="edge18_Node000013_Node000012" class="edge">
<title>Node13&#45;&gt;Node12</title>
<g id="a_edge18_Node000013_Node000012"><a xlink:title=" ">
<path fill="none" stroke="#63b8ff" d="M179.14,-111.24C214.8,-102.07 276.4,-86.22 316.9,-75.8"/>
<polygon fill="#63b8ff" stroke="#63b8ff" points="317.91,-79.15 326.72,-73.27 316.16,-72.37 317.91,-79.15"/>
</a>
</g>
</g>
<!-- Node14 -->
<g id="Node000014" class="node">
<title>Node14</title>
<g id="a_Node000014"><a xlink:title=" ">
<polygon fill="#e0e0e0" stroke="#999999" points="237.43,-74 184.43,-74 184.43,-55 237.43,-55 237.43,-74"/>
<text text-anchor="middle" x="210.93" y="-62" font-family="Helvetica,sans-Serif" font-size="10.00">iterator</text>
</a>
</g>
</g>
<!-- Node13&#45;&gt;Node14 -->
<g id="edge17_Node000013_Node000014" class="edge">
<title>Node13&#45;&gt;Node14</title>
<g id="a_edge17_Node000013_Node000014"><a xlink:title=" ">
<path fill="none" stroke="#63b8ff" d="M160.57,-109.98C169.44,-102.15 182.81,-90.34 193.54,-80.86"/>
<polygon fill="#63b8ff" stroke="#63b8ff" points="195.94,-83.41 201.12,-74.17 191.3,-78.17 195.94,-83.41"/>
</a>
</g>
</g>
<!-- Node13&#45;&gt;Node15 -->
<g id="edge19_Node000013_Node000015" class="edge">
<title>Node13&#45;&gt;Node15</title>
<g id="a_edge19_Node000013_Node000015"><a xlink:title=" ">
<path fill="none" stroke="#63b8ff" d="M151.37,-109.77C152.61,-95.63 157.28,-67.99 174.93,-55 233.34,-12.02 757.49,-10.15 891.73,-10.38"/>
<polygon fill="#63b8ff" stroke="#63b8ff" points="892.09,-13.89 902.1,-10.41 892.11,-6.89 892.09,-13.89"/>
</a>
</g>
</g>
<!-- Node16&#45;&gt;Node5 -->
<g id="edge22_Node000016_Node000005" class="edge">
<title>Node16&#45;&gt;Node5</title>
<g id="a_edge22_Node000016_Node000005"><a xlink:title=" ">
<path fill="none" stroke="#63b8ff" d="M1075.18,-117.42C1005.56,-114.04 795.83,-102.21 612.41,-74.04"/>
<polygon fill="#63b8ff" stroke="#63b8ff" points="612.74,-70.55 602.32,-72.47 611.66,-77.46 612.74,-70.55"/>
</a>
</g>
</g>
<!-- Node16&#45;&gt;Node7 -->
<g id="edge23_Node000016_Node000007" class="edge">
<title>Node16&#45;&gt;Node7</title>
<g id="a_edge23_Node000016_Node000007"><a xlink:title=" ">
<path fill="none" stroke="#63b8ff" d="M1122.82,-115.45C1177.75,-108.21 1309.29,-89.42 1321.93,-74 1352.12,-37.19 1268.77,-20.42 1220.16,-13.95"/>
<polygon fill="#63b8ff" stroke="#63b8ff" points="1220.44,-10.46 1210.08,-12.69 1219.57,-17.41 1220.44,-10.46"/>
</a>
</g>
</g>
<!-- Node16&#45;&gt;Node15 -->
<g id="edge27_Node000016_Node000015" class="edge">
<title>Node16&#45;&gt;Node15</title>
<g id="a_edge27_Node000016_Node000015"><a xlink:title=" ">
<path fill="none" stroke="#63b8ff" d="M1097.03,-109.74C1093.6,-96.05 1085.09,-69.67 1067.93,-55 1035.38,-27.18 985.67,-16.75 953.74,-12.84"/>
<polygon fill="#63b8ff" stroke="#63b8ff" points="953.96,-9.34 943.65,-11.75 953.21,-16.3 953.96,-9.34"/>
</a>
</g>
</g>
<!-- Node17 -->
<g id="Node000017" class="node">
<title>Node17</title>
<g id="a_Node000017"><a xlink:href="field__base_8h.html" target="_top" xlink:title=" ">
<polygon fill="white" stroke="#666666" points="1312.43,-74 1191.43,-74 1191.43,-55 1312.43,-55 1312.43,-74"/>
<text text-anchor="middle" x="1251.93" y="-62" font-family="Helvetica,sans-Serif" font-size="10.00">common/field_base.h</text>
</a>
</g>
</g>
<!-- Node16&#45;&gt;Node17 -->
<g id="edge24_Node000016_Node000017" class="edge">
<title>Node16&#45;&gt;Node17</title>
<g id="a_edge24_Node000016_Node000017"><a xlink:title=" ">
<path fill="none" stroke="#63b8ff" d="M1122.5,-110.33C1147.92,-101.53 1188.63,-87.43 1217.6,-77.39"/>
<polygon fill="#63b8ff" stroke="#63b8ff" points="1219.02,-80.61 1227.32,-74.03 1216.72,-73.99 1219.02,-80.61"/>
</a>
</g>
</g>
<!-- Node17&#45;&gt;Node7 -->
<g id="edge25_Node000017_Node000007" class="edge">
<title>Node17&#45;&gt;Node7</title>
<g id="a_edge25_Node000017_Node000007"><a xlink:title=" ">
<path fill="none" stroke="#63b8ff" d="M1241.65,-54.98C1232.09,-47.07 1217.65,-35.11 1206.15,-25.58"/>
<polygon fill="#63b8ff" stroke="#63b8ff" points="1208.33,-22.85 1198.4,-19.17 1203.87,-28.24 1208.33,-22.85"/>
</a>
</g>
</g>
<!-- Node17&#45;&gt;Node15 -->
<g id="edge26_Node000017_Node000015" class="edge">
<title>Node17&#45;&gt;Node15</title>
<g id="a_edge26_Node000017_Node000015"><a xlink:title=" ">
<path fill="none" stroke="#63b8ff" d="M1199.07,-54.98C1129.62,-43.8 1009.9,-24.51 953.72,-15.46"/>
<polygon fill="#63b8ff" stroke="#63b8ff" points="954.11,-11.98 943.68,-13.84 953,-18.89 954.11,-11.98"/>
</a>
</g>
</g>
<!-- Node18&#45;&gt;Node15 -->
<g id="edge32_Node000018_Node000015" class="edge">
<title>Node18&#45;&gt;Node15</title>
<g id="a_edge32_Node000018_Node000015"><a xlink:title=" ">
<path fill="none" stroke="#63b8ff" d="M1160.33,-164.86C1153.12,-142.5 1130.6,-82.57 1088.93,-55 1047.21,-27.39 988.94,-16.86 953.69,-12.88"/>
<polygon fill="#63b8ff" stroke="#63b8ff" points="953.84,-9.38 943.53,-11.84 953.12,-16.34 953.84,-9.38"/>
</a>
</g>
</g>
<!-- Node18&#45;&gt;Node16 -->
<g id="edge31_Node000018_Node000016" class="edge">
<title>Node18&#45;&gt;Node16</title>
<g id="a_edge31_Node000018_Node000016"><a xlink:title=" ">
<path fill="none" stroke="#63b8ff" d="M1152.65,-164.98C1143.09,-157.07 1128.65,-145.11 1117.15,-135.58"/>
<polygon fill="#63b8ff" stroke="#63b8ff" points="1119.33,-132.85 1109.4,-129.17 1114.87,-138.24 1119.33,-132.85"/>
</a>
</g>
</g>
<!-- Node19 -->
<g id="Node000019" class="node">
<title>Node19</title>
<g id="a_Node000019"><a xlink:title=" ">
<polygon fill="#e0e0e0" stroke="#999999" points="1256.43,-129 1191.43,-129 1191.43,-110 1256.43,-110 1256.43,-129"/>
<text text-anchor="middle" x="1223.93" y="-117" font-family="Helvetica,sans-Serif" font-size="10.00">functional</text>
</a>
</g>
</g>
<!-- Node18&#45;&gt;Node19 -->
<g id="edge29_Node000018_Node000019" class="edge">
<title>Node18&#45;&gt;Node19</title>
<g id="a_edge29_Node000018_Node000019"><a xlink:title=" ">
<path fill="none" stroke="#63b8ff" d="M1172.73,-164.98C1181.75,-157.15 1195.34,-145.34 1206.25,-135.86"/>
<polygon fill="#63b8ff" stroke="#63b8ff" points="1208.7,-138.37 1213.95,-129.17 1204.11,-133.09 1208.7,-138.37"/>
</a>
</g>
</g>
<!-- Node20 -->
<g id="Node000020" class="node">
<title>Node20</title>
<g id="a_Node000020"><a xlink:title=" ">
<polygon fill="#e0e0e0" stroke="#999999" points="1420.93,-129 1274.93,-129 1274.93,-110 1420.93,-110 1420.93,-129"/>
<text text-anchor="middle" x="1347.93" y="-117" font-family="Helvetica,sans-Serif" font-size="10.00">eventpp/eventdispatcher.h</text>
</a>
</g>
</g>
<!-- Node18&#45;&gt;Node20 -->
<g id="edge30_Node000018_Node000020" class="edge">
<title>Node18&#45;&gt;Node20</title>
<g id="a_edge30_Node000018_Node000020"><a xlink:title=" ">
<path fill="none" stroke="#63b8ff" d="M1192.65,-164.98C1223.98,-156.01 1273.5,-141.82 1308.17,-131.89"/>
<polygon fill="#63b8ff" stroke="#63b8ff" points="1309.32,-135.2 1317.97,-129.08 1307.4,-128.47 1309.32,-135.2"/>
</a>
</g>
</g>
<!-- Node21&#45;&gt;Node2 -->
<g id="edge41_Node000021_Node000002" class="edge">
<title>Node21&#45;&gt;Node2</title>
<g id="a_edge41_Node000021_Node000002"><a xlink:title=" ">
<path fill="none" stroke="#63b8ff" d="M740.42,-109.98C722.96,-101.5 695.92,-88.35 675.76,-78.54"/>
<polygon fill="#63b8ff" stroke="#63b8ff" points="677.29,-75.4 666.76,-74.17 674.22,-81.69 677.29,-75.4"/>
</a>
</g>
</g>
<!-- Node21&#45;&gt;Node7 -->
<g id="edge35_Node000021_Node000007" class="edge">
<title>Node21&#45;&gt;Node7</title>
<g id="a_edge35_Node000021_Node000007"><a xlink:title=" ">
<path fill="none" stroke="#63b8ff" d="M801.1,-116.97C861.98,-113.77 975.9,-103.95 1067.93,-74 1104.57,-62.08 1143.35,-39.49 1166.59,-24.72"/>
<polygon fill="#63b8ff" stroke="#63b8ff" points="1168.78,-27.47 1175.27,-19.1 1164.97,-21.6 1168.78,-27.47"/>
</a>
</g>
</g>
<!-- Node21&#45;&gt;Node10 -->
<g id="edge36_Node000021_Node000010" class="edge">
<title>Node21&#45;&gt;Node10</title>
<g id="a_edge36_Node000021_Node000010"><a xlink:title=" ">
<path fill="none" stroke="#63b8ff" d="M714.63,-115.76C635.5,-110.4 462.38,-96.97 317.93,-74 316.24,-73.73 314.51,-73.43 312.76,-73.12"/>
<polygon fill="#63b8ff" stroke="#63b8ff" points="313.26,-69.65 302.77,-71.15 311.91,-76.52 313.26,-69.65"/>
</a>
</g>
</g>
<!-- Node21&#45;&gt;Node12 -->
<g id="edge38_Node000021_Node000012" class="edge">
<title>Node21&#45;&gt;Node12</title>
<g id="a_edge38_Node000021_Node000012"><a xlink:title=" ">
<path fill="none" stroke="#63b8ff" d="M714.64,-112.78C636.49,-102.45 472.98,-80.84 397.14,-70.81"/>
<polygon fill="#63b8ff" stroke="#63b8ff" points="397.41,-67.32 387.04,-69.48 396.5,-74.26 397.41,-67.32"/>
</a>
</g>
</g>
<!-- Node21&#45;&gt;Node15 -->
<g id="edge44_Node000021_Node000015" class="edge">
<title>Node21&#45;&gt;Node15</title>
<g id="a_edge44_Node000021_Node000015"><a xlink:title=" ">
<path fill="none" stroke="#63b8ff" d="M801.34,-114.38C851.14,-108.65 928.24,-96.36 945.93,-74 956.79,-60.27 947.16,-40.96 937.25,-27.24"/>
<polygon fill="#63b8ff" stroke="#63b8ff" points="939.83,-24.86 930.9,-19.15 934.32,-29.18 939.83,-24.86"/>
</a>
</g>
</g>
<!-- Node22 -->
<g id="Node000022" class="node">
<title>Node22</title>
<g id="a_Node000022"><a xlink:title=" ">
<polygon fill="#e0e0e0" stroke="#999999" points="805.43,-74 764.43,-74 764.43,-55 805.43,-55 805.43,-74"/>
<text text-anchor="middle" x="784.93" y="-62" font-family="Helvetica,sans-Serif" font-size="10.00">tuple</text>
</a>
</g>
</g>
<!-- Node21&#45;&gt;Node22 -->
<g id="edge37_Node000021_Node000022" class="edge">
<title>Node21&#45;&gt;Node22</title>
<g id="a_edge37_Node000021_Node000022"><a xlink:title=" ">
<path fill="none" stroke="#63b8ff" d="M762.39,-109.75C766.05,-102.57 771.34,-92.18 775.88,-83.27"/>
<polygon fill="#63b8ff" stroke="#63b8ff" points="779.13,-84.59 780.56,-74.09 772.9,-81.41 779.13,-84.59"/>
</a>
</g>
</g>
<!-- Node23 -->
<g id="Node000023" class="node">
<title>Node23</title>
<g id="a_Node000023"><a xlink:title=" ">
<polygon fill="#e0e0e0" stroke="#999999" points="1058.43,-74 993.43,-74 993.43,-55 1058.43,-55 1058.43,-74"/>
<text text-anchor="middle" x="1025.93" y="-62" font-family="Helvetica,sans-Serif" font-size="10.00">stdexcept</text>
</a>
</g>
</g>
<!-- Node21&#45;&gt;Node23 -->
<g id="edge39_Node000021_Node000023" class="edge">
<title>Node21&#45;&gt;Node23</title>
<g id="a_edge39_Node000021_Node000023"><a xlink:title=" ">
<path fill="none" stroke="#63b8ff" d="M800.99,-109.98C851.1,-100.07 933.34,-83.81 983.27,-73.94"/>
<polygon fill="#63b8ff" stroke="#63b8ff" points="983.98,-77.36 993.11,-71.99 982.63,-70.5 983.98,-77.36"/>
</a>
</g>
</g>
<!-- Node24 -->
<g id="Node000024" class="node">
<title>Node24</title>
<g id="a_Node000024"><a xlink:title=" ">
<polygon fill="#e0e0e0" stroke="#999999" points="745.93,-74 695.93,-74 695.93,-55 745.93,-55 745.93,-74"/>
<text text-anchor="middle" x="720.93" y="-62" font-family="Helvetica,sans-Serif" font-size="10.00">cstdint</text>
</a>
</g>
</g>
<!-- Node21&#45;&gt;Node24 -->
<g id="edge40_Node000021_Node000024" class="edge">
<title>Node21&#45;&gt;Node24</title>
<g id="a_edge40_Node000021_Node000024"><a xlink:title=" ">
<path fill="none" stroke="#63b8ff" d="M751.82,-109.75C746.65,-102.34 739.08,-91.5 732.74,-82.41"/>
<polygon fill="#63b8ff" stroke="#63b8ff" points="735.52,-80.29 726.93,-74.09 729.78,-84.29 735.52,-80.29"/>
</a>
</g>
</g>
<!-- Node25 -->
<g id="Node000025" class="node">
<title>Node25</title>
<g id="a_Node000025"><a xlink:href="def__types_8h.html" target="_top" xlink:title=" ">
<polygon fill="white" stroke="#666666" points="936.43,-74 823.43,-74 823.43,-55 936.43,-55 936.43,-74"/>
<text text-anchor="middle" x="879.93" y="-62" font-family="Helvetica,sans-Serif" font-size="10.00">../c_wcf/def_types.h</text>
</a>
</g>
</g>
<!-- Node21&#45;&gt;Node25 -->
<g id="edge42_Node000021_Node000025" class="edge">
<title>Node21&#45;&gt;Node25</title>
<g id="a_edge42_Node000021_Node000025"><a xlink:title=" ">
<path fill="none" stroke="#63b8ff" d="M777.53,-109.98C797.25,-101.42 827.88,-88.11 850.51,-78.28"/>
<polygon fill="#63b8ff" stroke="#63b8ff" points="852.2,-81.37 859.97,-74.17 849.41,-74.94 852.2,-81.37"/>
</a>
</g>
</g>
<!-- Node25&#45;&gt;Node15 -->
<g id="edge43_Node000025_Node000015" class="edge">
<title>Node25&#45;&gt;Node15</title>
<g id="a_edge43_Node000025_Node000015"><a xlink:title=" ">
<path fill="none" stroke="#63b8ff" d="M887.03,-54.75C893.1,-47.26 902.02,-36.28 909.44,-27.13"/>
<polygon fill="#63b8ff" stroke="#63b8ff" points="912.38,-29.06 915.96,-19.09 906.94,-24.65 912.38,-29.06"/>
</a>
</g>
</g>
</g>
</svg>
