<?xml version="1.0" encoding="UTF-8" standalone="no"?>
<!DOCTYPE svg PUBLIC "-//W3C//DTD SVG 1.1//EN"
 "http://www.w3.org/Graphics/SVG/1.1/DTD/svg11.dtd">
<!-- Generated by graphviz version 2.43.0 (0)
 -->
<!-- Title: include/webcface/text.h Pages: 1 -->
<svg width="1616pt" height="434pt"
 viewBox="0.00 0.00 1616.20 434.00" xmlns="http://www.w3.org/2000/svg" xmlns:xlink="http://www.w3.org/1999/xlink">
<g id="graph0" class="graph" transform="scale(1 1) rotate(0) translate(4 430)">
<title>include/webcface/text.h</title>
<!-- Node1 -->
<g id="Node000001" class="node">
<title>Node1</title>
<g id="a_Node000001"><a xlink:title=" ">
<polygon fill="#999999" stroke="#666666" points="898,-426 765,-426 765,-407 898,-407 898,-426"/>
<text text-anchor="middle" x="831.5" y="-414" font-family="Helvetica,sans-Serif" font-size="10.00">include/webcface/text.h</text>
</a>
</g>
</g>
<!-- Node2 -->
<g id="Node000002" class="node">
<title>Node2</title>
<g id="a_Node000002"><a xlink:href="client_2client_8cc.html" target="_top" xlink:title=" ">
<polygon fill="white" stroke="#666666" points="87,-74 0,-74 0,-55 87,-55 87,-74"/>
<text text-anchor="middle" x="43.5" y="-62" font-family="Helvetica,sans-Serif" font-size="10.00">client/client.cc</text>
</a>
</g>
</g>
<!-- Node1&#45;&gt;Node2 -->
<g id="edge1_Node000001_Node000002" class="edge">
<title>Node1&#45;&gt;Node2</title>
<g id="a_edge1_Node000001_Node000002"><a xlink:title=" ">
<path fill="none" stroke="#63b8ff" d="M754.47,-415.17C598.51,-413.74 250.59,-406.53 137.5,-371 72.05,-350.44 5.5,-359.6 5.5,-291 5.5,-291 5.5,-291 5.5,-173.5 5.5,-134.54 27.77,-91.93 38.22,-74.1"/>
<polygon fill="#63b8ff" stroke="#63b8ff" points="754.88,-418.67 764.91,-415.25 754.94,-411.67 754.88,-418.67"/>
</a>
</g>
</g>
<!-- Node3 -->
<g id="Node000003" class="node">
<title>Node3</title>
<g id="a_Node000003"><a xlink:href="client_2text_8cc.html" target="_top" xlink:title=" ">
<polygon fill="white" stroke="#666666" points="1386.5,-129 1306.5,-129 1306.5,-110 1386.5,-110 1386.5,-129"/>
<text text-anchor="middle" x="1346.5" y="-117" font-family="Helvetica,sans-Serif" font-size="10.00">client/text.cc</text>
</a>
</g>
</g>
<!-- Node1&#45;&gt;Node3 -->
<g id="edge2_Node000001_Node000003" class="edge">
<title>Node1&#45;&gt;Node3</title>
<g id="a_edge2_Node000001_Node000003"><a xlink:title=" ">
<path fill="none" stroke="#63b8ff" d="M908.22,-411.25C1040.33,-402.1 1301.69,-375.35 1354.5,-305 1395.69,-250.13 1362.43,-158.07 1350.4,-129.34"/>
<polygon fill="#63b8ff" stroke="#63b8ff" points="907.91,-407.76 898.17,-411.93 908.38,-414.75 907.91,-407.76"/>
</a>
</g>
</g>
<!-- Node4 -->
<g id="Node000004" class="node">
<title>Node4</title>
<g id="a_Node000004"><a xlink:href="canvas__data_8h.html" target="_top" xlink:title=" ">
<polygon fill="white" stroke="#666666" points="1118,-371 979,-371 979,-341 1118,-341 1118,-371"/>
<text text-anchor="start" x="987" y="-359" font-family="Helvetica,sans-Serif" font-size="10.00">include/webcface/canvas</text>
<text text-anchor="middle" x="1048.5" y="-348" font-family="Helvetica,sans-Serif" font-size="10.00">_data.h</text>
</a>
</g>
</g>
<!-- Node1&#45;&gt;Node4 -->
<g id="edge3_Node000001_Node000004" class="edge">
<title>Node1&#45;&gt;Node4</title>
<g id="a_edge3_Node000001_Node000004"><a xlink:title=" ">
<path fill="none" stroke="#63b8ff" d="M872.97,-404.32C908.05,-394.86 958.51,-381.26 996.33,-371.06"/>
<polygon fill="#63b8ff" stroke="#63b8ff" points="871.8,-401.01 863.05,-406.99 873.62,-407.77 871.8,-401.01"/>
</a>
</g>
</g>
<!-- Node12 -->
<g id="Node000012" class="node">
<title>Node12</title>
<g id="a_Node000012"><a xlink:href="member_8h.html" target="_top" xlink:title=" ">
<polygon fill="white" stroke="#666666" points="999.5,-184 845.5,-184 845.5,-165 999.5,-165 999.5,-184"/>
<text text-anchor="middle" x="922.5" y="-172" font-family="Helvetica,sans-Serif" font-size="10.00">include/webcface/member.h</text>
</a>
</g>
</g>
<!-- Node1&#45;&gt;Node12 -->
<g id="edge52_Node000001_Node000012" class="edge">
<title>Node1&#45;&gt;Node12</title>
<g id="a_edge52_Node000001_Node000012"><a xlink:title=" ">
<path fill="none" stroke="#63b8ff" d="M828.15,-396.54C822.65,-359.47 815.52,-276.16 850.5,-220 861.3,-202.66 881.6,-191.03 897.9,-184.02"/>
<polygon fill="#63b8ff" stroke="#63b8ff" points="824.77,-397.54 829.82,-406.85 831.68,-396.42 824.77,-397.54"/>
</a>
</g>
</g>
<!-- Node25 -->
<g id="Node000025" class="node">
<title>Node25</title>
<g id="a_Node000025"><a xlink:href="webcface_8h.html" target="_top" xlink:title=" ">
<polygon fill="white" stroke="#666666" points="1269.5,-74 1109.5,-74 1109.5,-55 1269.5,-55 1269.5,-74"/>
<text text-anchor="middle" x="1189.5" y="-62" font-family="Helvetica,sans-Serif" font-size="10.00">include/webcface/webcface.h</text>
</a>
</g>
</g>
<!-- Node1&#45;&gt;Node25 -->
<g id="edge53_Node000001_Node000025" class="edge">
<title>Node1&#45;&gt;Node25</title>
<g id="a_edge53_Node000001_Node000025"><a xlink:title=" ">
<path fill="none" stroke="#63b8ff" d="M754.96,-411.38C557.01,-399.72 43.5,-362.56 43.5,-291 43.5,-291 43.5,-291 43.5,-228.5 43.5,-164.71 68.71,-140.95 124.5,-110 167.36,-86.22 868.78,-71.32 1109.31,-66.89"/>
<polygon fill="#63b8ff" stroke="#63b8ff" points="754.81,-414.88 764.99,-411.97 755.22,-407.89 754.81,-414.88"/>
</a>
</g>
</g>
<!-- Node5 -->
<g id="Node000005" class="node">
<title>Node5</title>
<g id="a_Node000005"><a xlink:href="canvas__data_8cc.html" target="_top" xlink:title=" ">
<polygon fill="white" stroke="#666666" points="1564.5,-129 1442.5,-129 1442.5,-110 1564.5,-110 1564.5,-129"/>
<text text-anchor="middle" x="1503.5" y="-117" font-family="Helvetica,sans-Serif" font-size="10.00">client/canvas_data.cc</text>
</a>
</g>
</g>
<!-- Node4&#45;&gt;Node5 -->
<g id="edge4_Node000004_Node000005" class="edge">
<title>Node4&#45;&gt;Node5</title>
<g id="a_edge4_Node000004_Node000005"><a xlink:title=" ">
<path fill="none" stroke="#63b8ff" d="M1128.48,-348.42C1205.97,-340.9 1317.09,-326.75 1354.5,-305 1431.38,-260.29 1484.6,-159.68 1499.35,-129.33"/>
<polygon fill="#63b8ff" stroke="#63b8ff" points="1127.88,-344.96 1118.26,-349.39 1128.55,-351.93 1127.88,-344.96"/>
</a>
</g>
</g>
<!-- Node6 -->
<g id="Node000006" class="node">
<title>Node6</title>
<g id="a_Node000006"><a xlink:href="data__buffer_8h.html" target="_top" xlink:title=" ">
<polygon fill="white" stroke="#666666" points="420.5,-184 310.5,-184 310.5,-165 420.5,-165 420.5,-184"/>
<text text-anchor="middle" x="365.5" y="-172" font-family="Helvetica,sans-Serif" font-size="10.00">client/data_buffer.h</text>
</a>
</g>
</g>
<!-- Node4&#45;&gt;Node6 -->
<g id="edge5_Node000004_Node000006" class="edge">
<title>Node4&#45;&gt;Node6</title>
<g id="a_edge5_Node000004_Node000006"><a xlink:title=" ">
<path fill="none" stroke="#63b8ff" d="M985.33,-338.4C843.62,-301.16 504.43,-212.01 398.01,-184.04"/>
<polygon fill="#63b8ff" stroke="#63b8ff" points="984.63,-341.83 995.19,-340.99 986.41,-335.06 984.63,-341.83"/>
</a>
</g>
</g>
<!-- Node11 -->
<g id="Node000011" class="node">
<title>Node11</title>
<g id="a_Node000011"><a xlink:href="canvas2d_8h.html" target="_top" xlink:title=" ">
<polygon fill="white" stroke="#666666" points="1019.5,-239 859.5,-239 859.5,-220 1019.5,-220 1019.5,-239"/>
<text text-anchor="middle" x="939.5" y="-227" font-family="Helvetica,sans-Serif" font-size="10.00">include/webcface/canvas2d.h</text>
</a>
</g>
</g>
<!-- Node4&#45;&gt;Node11 -->
<g id="edge10_Node000004_Node000011" class="edge">
<title>Node4&#45;&gt;Node11</title>
<g id="a_edge10_Node000004_Node000011"><a xlink:title=" ">
<path fill="none" stroke="#63b8ff" d="M1029.28,-333.05C1004.84,-305.13 963.79,-258.25 947,-239.07"/>
<polygon fill="#63b8ff" stroke="#63b8ff" points="1026.78,-335.5 1036,-340.72 1032.04,-330.89 1026.78,-335.5"/>
</a>
</g>
</g>
<!-- Node4&#45;&gt;Node25 -->
<g id="edge51_Node000004_Node000025" class="edge">
<title>Node4&#45;&gt;Node25</title>
<g id="a_edge51_Node000004_Node000025"><a xlink:title=" ">
<path fill="none" stroke="#63b8ff" d="M1128.22,-351.95C1198.48,-347.25 1302.71,-335.31 1388.5,-305 1488.26,-269.76 1541.04,-275.88 1593.5,-184 1609.81,-155.44 1615.45,-134.5 1593.5,-110 1572.31,-86.35 1381.19,-73.96 1269.58,-68.68"/>
<polygon fill="#63b8ff" stroke="#63b8ff" points="1127.86,-348.47 1118.11,-352.6 1128.31,-355.45 1127.86,-348.47"/>
</a>
</g>
</g>
<!-- Node26 -->
<g id="Node000026" class="node">
<title>Node26</title>
<g id="a_Node000026"><a xlink:href="canvas3d_8h.html" target="_top" xlink:title=" ">
<polygon fill="white" stroke="#666666" points="1197.5,-239 1037.5,-239 1037.5,-220 1197.5,-220 1197.5,-239"/>
<text text-anchor="middle" x="1117.5" y="-227" font-family="Helvetica,sans-Serif" font-size="10.00">include/webcface/canvas3d.h</text>
</a>
</g>
</g>
<!-- Node4&#45;&gt;Node26 -->
<g id="edge35_Node000004_Node000026" class="edge">
<title>Node4&#45;&gt;Node26</title>
<g id="a_edge35_Node000004_Node000026"><a xlink:title=" ">
<path fill="none" stroke="#63b8ff" d="M1061.27,-331.96C1076.8,-303.93 1102.26,-258 1112.75,-239.07"/>
<polygon fill="#63b8ff" stroke="#63b8ff" points="1058.2,-330.28 1056.42,-340.72 1064.32,-333.67 1058.2,-330.28"/>
</a>
</g>
</g>
<!-- Node27 -->
<g id="Node000027" class="node">
<title>Node27</title>
<g id="a_Node000027"><a xlink:href="robot__model_8h.html" target="_top" xlink:title=" ">
<polygon fill="white" stroke="#666666" points="1345.5,-305 1215.5,-305 1215.5,-275 1345.5,-275 1345.5,-305"/>
<text text-anchor="start" x="1223.5" y="-293" font-family="Helvetica,sans-Serif" font-size="10.00">include/webcface/robot</text>
<text text-anchor="middle" x="1280.5" y="-282" font-family="Helvetica,sans-Serif" font-size="10.00">_model.h</text>
</a>
</g>
</g>
<!-- Node4&#45;&gt;Node27 -->
<g id="edge39_Node000004_Node000027" class="edge">
<title>Node4&#45;&gt;Node27</title>
<g id="a_edge39_Node000004_Node000027"><a xlink:title=" ">
<path fill="none" stroke="#63b8ff" d="M1109.21,-338.25C1146.69,-327.91 1194.22,-314.8 1229.71,-305.01"/>
<polygon fill="#63b8ff" stroke="#63b8ff" points="1108.12,-334.92 1099.41,-340.95 1109.98,-341.67 1108.12,-334.92"/>
</a>
</g>
</g>
<!-- Node28 -->
<g id="Node000028" class="node">
<title>Node28</title>
<g id="a_Node000028"><a xlink:href="view_8h.html" target="_top" xlink:title=" ">
<polygon fill="white" stroke="#666666" points="392.5,-239 256.5,-239 256.5,-220 392.5,-220 392.5,-239"/>
<text text-anchor="middle" x="324.5" y="-227" font-family="Helvetica,sans-Serif" font-size="10.00">include/webcface/view.h</text>
</a>
</g>
</g>
<!-- Node4&#45;&gt;Node28 -->
<g id="edge45_Node000004_Node000028" class="edge">
<title>Node4&#45;&gt;Node28</title>
<g id="a_edge45_Node000004_Node000028"><a xlink:title=" ">
<path fill="none" stroke="#63b8ff" d="M968.67,-341.27C818.42,-315.44 497.67,-260.28 374.29,-239.06"/>
<polygon fill="#63b8ff" stroke="#63b8ff" points="968.3,-344.76 978.75,-343.01 969.49,-337.86 968.3,-344.76"/>
</a>
</g>
</g>
<!-- Node7 -->
<g id="Node000007" class="node">
<title>Node7</title>
<g id="a_Node000007"><a xlink:href="canvas2d_8cc.html" target="_top" xlink:title=" ">
<polygon fill="white" stroke="#666666" points="356,-129 249,-129 249,-110 356,-110 356,-129"/>
<text text-anchor="middle" x="302.5" y="-117" font-family="Helvetica,sans-Serif" font-size="10.00">client/canvas2d.cc</text>
</a>
</g>
</g>
<!-- Node6&#45;&gt;Node7 -->
<g id="edge6_Node000006_Node000007" class="edge">
<title>Node6&#45;&gt;Node7</title>
<g id="a_edge6_Node000006_Node000007"><a xlink:title=" ">
<path fill="none" stroke="#63b8ff" d="M347.46,-158.32C336.23,-148.87 322.18,-137.06 312.81,-129.17"/>
<polygon fill="#63b8ff" stroke="#63b8ff" points="345.47,-161.23 355.38,-164.98 349.98,-155.87 345.47,-161.23"/>
</a>
</g>
</g>
<!-- Node8 -->
<g id="Node000008" class="node">
<title>Node8</title>
<g id="a_Node000008"><a xlink:href="canvas3d_8cc.html" target="_top" xlink:title=" ">
<polygon fill="white" stroke="#666666" points="481,-129 374,-129 374,-110 481,-110 481,-129"/>
<text text-anchor="middle" x="427.5" y="-117" font-family="Helvetica,sans-Serif" font-size="10.00">client/canvas3d.cc</text>
</a>
</g>
</g>
<!-- Node6&#45;&gt;Node8 -->
<g id="edge7_Node000006_Node000008" class="edge">
<title>Node6&#45;&gt;Node8</title>
<g id="a_edge7_Node000006_Node000008"><a xlink:title=" ">
<path fill="none" stroke="#63b8ff" d="M383.25,-158.32C394.31,-148.87 408.13,-137.06 417.36,-129.17"/>
<polygon fill="#63b8ff" stroke="#63b8ff" points="380.79,-155.83 375.46,-164.98 385.34,-161.15 380.79,-155.83"/>
</a>
</g>
</g>
<!-- Node9 -->
<g id="Node000009" class="node">
<title>Node9</title>
<g id="a_Node000009"><a xlink:href="robot__model_8cc.html" target="_top" xlink:title=" ">
<polygon fill="white" stroke="#666666" points="1250.5,-129 1128.5,-129 1128.5,-110 1250.5,-110 1250.5,-129"/>
<text text-anchor="middle" x="1189.5" y="-117" font-family="Helvetica,sans-Serif" font-size="10.00">client/robot_model.cc</text>
</a>
</g>
</g>
<!-- Node6&#45;&gt;Node9 -->
<g id="edge8_Node000006_Node000009" class="edge">
<title>Node6&#45;&gt;Node9</title>
<g id="a_edge8_Node000006_Node000009"><a xlink:title=" ">
<path fill="none" stroke="#63b8ff" d="M431.02,-169.79C557.03,-162.57 841.93,-145.87 1081.5,-129 1096.7,-127.93 1113.09,-126.69 1128.4,-125.49"/>
<polygon fill="#63b8ff" stroke="#63b8ff" points="430.55,-166.31 420.77,-170.38 430.95,-173.3 430.55,-166.31"/>
</a>
</g>
</g>
<!-- Node10 -->
<g id="Node000010" class="node">
<title>Node10</title>
<g id="a_Node000010"><a xlink:href="client_2view_8cc.html" target="_top" xlink:title=" ">
<polygon fill="white" stroke="#666666" points="231,-129 148,-129 148,-110 231,-110 231,-129"/>
<text text-anchor="middle" x="189.5" y="-117" font-family="Helvetica,sans-Serif" font-size="10.00">client/view.cc</text>
</a>
</g>
</g>
<!-- Node6&#45;&gt;Node10 -->
<g id="edge9_Node000006_Node000010" class="edge">
<title>Node6&#45;&gt;Node10</title>
<g id="a_edge9_Node000006_Node000010"><a xlink:title=" ">
<path fill="none" stroke="#63b8ff" d="M327.5,-162.06C294.6,-152.15 247.76,-138.04 218,-129.08"/>
<polygon fill="#63b8ff" stroke="#63b8ff" points="326.64,-165.45 337.22,-164.98 328.66,-158.75 326.64,-165.45"/>
</a>
</g>
</g>
<!-- Node11&#45;&gt;Node7 -->
<g id="edge11_Node000011_Node000007" class="edge">
<title>Node11&#45;&gt;Node7</title>
<g id="a_edge11_Node000011_Node000007"><a xlink:title=" ">
<path fill="none" stroke="#63b8ff" d="M879.08,-218.26C753.93,-197.04 468.4,-148.63 352.64,-129"/>
<polygon fill="#63b8ff" stroke="#63b8ff" points="878.81,-221.76 889.25,-219.98 879.98,-214.86 878.81,-221.76"/>
</a>
</g>
</g>
<!-- Node11&#45;&gt;Node12 -->
<g id="edge12_Node000011_Node000012" class="edge">
<title>Node11&#45;&gt;Node12</title>
<g id="a_edge12_Node000011_Node000012"><a xlink:title=" ">
<path fill="none" stroke="#63b8ff" d="M933.55,-209.95C930.73,-201.15 927.49,-191.06 925.25,-184.09"/>
<polygon fill="#63b8ff" stroke="#63b8ff" points="930.31,-211.29 936.69,-219.75 936.97,-209.16 930.31,-211.29"/>
</a>
</g>
</g>
<!-- Node11&#45;&gt;Node25 -->
<g id="edge34_Node000011_Node000025" class="edge">
<title>Node11&#45;&gt;Node25</title>
<g id="a_edge34_Node000011_Node000025"><a xlink:title=" ">
<path fill="none" stroke="#63b8ff" d="M1001.27,-218.16C1085.29,-202.69 1228.71,-170.81 1259.5,-129 1276.23,-106.27 1238.88,-85.42 1212.57,-74.18"/>
<polygon fill="#63b8ff" stroke="#63b8ff" points="1000.54,-214.73 991.33,-219.96 1001.79,-221.62 1000.54,-214.73"/>
</a>
</g>
</g>
<!-- Node12&#45;&gt;Node3 -->
<g id="edge20_Node000012_Node000003" class="edge">
<title>Node12&#45;&gt;Node3</title>
<g id="a_edge20_Node000012_Node000003"><a xlink:title=" ">
<path fill="none" stroke="#63b8ff" d="M1000.55,-163.74C1090.94,-152.45 1236.35,-134.27 1306.33,-125.52"/>
<polygon fill="#63b8ff" stroke="#63b8ff" points="1000.11,-160.27 990.62,-164.98 1000.98,-167.22 1000.11,-160.27"/>
</a>
</g>
</g>
<!-- Node12&#45;&gt;Node5 -->
<g id="edge15_Node000012_Node000005" class="edge">
<title>Node12&#45;&gt;Node5</title>
<g id="a_edge15_Node000012_Node000005"><a xlink:title=" ">
<path fill="none" stroke="#63b8ff" d="M1009.82,-165.53C1128.83,-154.68 1338.95,-135.51 1442.43,-126.07"/>
<polygon fill="#63b8ff" stroke="#63b8ff" points="1009.29,-162.07 999.65,-166.46 1009.93,-169.04 1009.29,-162.07"/>
</a>
</g>
</g>
<!-- Node12&#45;&gt;Node7 -->
<g id="edge13_Node000012_Node000007" class="edge">
<title>Node12&#45;&gt;Node7</title>
<g id="a_edge13_Node000012_Node000007"><a xlink:title=" ">
<path fill="none" stroke="#63b8ff" d="M835.15,-168.07C725.18,-160.88 530.57,-146.99 364.5,-129 361.8,-128.71 359.04,-128.39 356.25,-128.06"/>
<polygon fill="#63b8ff" stroke="#63b8ff" points="834.99,-171.57 845.19,-168.72 835.44,-164.58 834.99,-171.57"/>
</a>
</g>
</g>
<!-- Node12&#45;&gt;Node8 -->
<g id="edge14_Node000012_Node000008" class="edge">
<title>Node12&#45;&gt;Node8</title>
<g id="a_edge14_Node000012_Node000008"><a xlink:title=" ">
<path fill="none" stroke="#63b8ff" d="M835.03,-165.3C747.7,-156.93 609.69,-143.18 490.5,-129 487.43,-128.64 484.28,-128.25 481.1,-127.85"/>
<polygon fill="#63b8ff" stroke="#63b8ff" points="834.87,-168.81 845.16,-166.27 835.54,-161.84 834.87,-168.81"/>
</a>
</g>
</g>
<!-- Node12&#45;&gt;Node9 -->
<g id="edge19_Node000012_Node000009" class="edge">
<title>Node12&#45;&gt;Node9</title>
<g id="a_edge19_Node000012_Node000009"><a xlink:title=" ">
<path fill="none" stroke="#63b8ff" d="M975.38,-163C1025.43,-153.07 1099.66,-138.33 1146.27,-129.08"/>
<polygon fill="#63b8ff" stroke="#63b8ff" points="974.53,-159.6 965.4,-164.98 975.89,-166.47 974.53,-159.6"/>
</a>
</g>
</g>
<!-- Node12&#45;&gt;Node10 -->
<g id="edge22_Node000012_Node000010" class="edge">
<title>Node12&#45;&gt;Node10</title>
<g id="a_edge22_Node000012_Node000010"><a xlink:title=" ">
<path fill="none" stroke="#63b8ff" d="M835.14,-170.7C705,-165.87 452.65,-153.99 239.5,-129 236.79,-128.68 234,-128.32 231.2,-127.92"/>
<polygon fill="#63b8ff" stroke="#63b8ff" points="835.32,-174.21 845.44,-171.07 835.58,-167.21 835.32,-174.21"/>
</a>
</g>
</g>
<!-- Node13 -->
<g id="Node000013" class="node">
<title>Node13</title>
<g id="a_Node000013"><a xlink:href="field_8cc.html" target="_top" xlink:title=" ">
<polygon fill="white" stroke="#666666" points="963,-129 882,-129 882,-110 963,-110 963,-129"/>
<text text-anchor="middle" x="922.5" y="-117" font-family="Helvetica,sans-Serif" font-size="10.00">client/field.cc</text>
</a>
</g>
</g>
<!-- Node12&#45;&gt;Node13 -->
<g id="edge16_Node000012_Node000013" class="edge">
<title>Node12&#45;&gt;Node13</title>
<g id="a_edge16_Node000012_Node000013"><a xlink:title=" ">
<path fill="none" stroke="#63b8ff" d="M922.5,-154.66C922.5,-145.93 922.5,-135.99 922.5,-129.09"/>
<polygon fill="#63b8ff" stroke="#63b8ff" points="919,-154.75 922.5,-164.75 926,-154.75 919,-154.75"/>
</a>
</g>
</g>
<!-- Node14 -->
<g id="Node000014" class="node">
<title>Node14</title>
<g id="a_Node000014"><a xlink:href="image_8cc.html" target="_top" xlink:title=" ">
<polygon fill="white" stroke="#666666" points="1072,-129 981,-129 981,-110 1072,-110 1072,-129"/>
<text text-anchor="middle" x="1026.5" y="-117" font-family="Helvetica,sans-Serif" font-size="10.00">client/image.cc</text>
</a>
</g>
</g>
<!-- Node12&#45;&gt;Node14 -->
<g id="edge17_Node000012_Node000014" class="edge">
<title>Node12&#45;&gt;Node14</title>
<g id="a_edge17_Node000012_Node000014"><a xlink:title=" ">
<path fill="none" stroke="#63b8ff" d="M948.27,-160.37C967.37,-150.63 992.87,-137.64 1009.49,-129.17"/>
<polygon fill="#63b8ff" stroke="#63b8ff" points="946.53,-157.33 939.21,-164.98 949.71,-163.56 946.53,-157.33"/>
</a>
</g>
</g>
<!-- Node15 -->
<g id="Node000015" class="node">
<title>Node15</title>
<g id="a_Node000015"><a xlink:href="member_8cc.html" target="_top" xlink:title=" ">
<polygon fill="white" stroke="#666666" points="759,-129 658,-129 658,-110 759,-110 759,-129"/>
<text text-anchor="middle" x="708.5" y="-117" font-family="Helvetica,sans-Serif" font-size="10.00">client/member.cc</text>
</a>
</g>
</g>
<!-- Node12&#45;&gt;Node15 -->
<g id="edge18_Node000012_Node000015" class="edge">
<title>Node12&#45;&gt;Node15</title>
<g id="a_edge18_Node000012_Node000015"><a xlink:title=" ">
<path fill="none" stroke="#63b8ff" d="M878.34,-162.56C838.26,-152.64 779.96,-138.2 743.15,-129.08"/>
<polygon fill="#63b8ff" stroke="#63b8ff" points="877.57,-165.98 888.12,-164.98 879.25,-159.18 877.57,-165.98"/>
</a>
</g>
</g>
<!-- Node16 -->
<g id="Node000016" class="node">
<title>Node16</title>
<g id="a_Node000016"><a xlink:href="client_2value_8cc.html" target="_top" xlink:title=" ">
<polygon fill="white" stroke="#666666" points="864,-129 777,-129 777,-110 864,-110 864,-129"/>
<text text-anchor="middle" x="820.5" y="-117" font-family="Helvetica,sans-Serif" font-size="10.00">client/value.cc</text>
</a>
</g>
</g>
<!-- Node12&#45;&gt;Node16 -->
<g id="edge21_Node000012_Node000016" class="edge">
<title>Node12&#45;&gt;Node16</title>
<g id="a_edge21_Node000012_Node000016"><a xlink:title=" ">
<path fill="none" stroke="#63b8ff" d="M897.23,-160.37C878.49,-150.63 853.48,-137.64 837.19,-129.17"/>
<polygon fill="#63b8ff" stroke="#63b8ff" points="895.62,-163.48 906.11,-164.98 898.85,-157.27 895.62,-163.48"/>
</a>
</g>
</g>
<!-- Node17 -->
<g id="Node000017" class="node">
<title>Node17</title>
<g id="a_Node000017"><a xlink:href="client_8h.html" target="_top" xlink:title=" ">
<polygon fill="white" stroke="#666666" points="639.5,-129 499.5,-129 499.5,-110 639.5,-110 639.5,-129"/>
<text text-anchor="middle" x="569.5" y="-117" font-family="Helvetica,sans-Serif" font-size="10.00">include/webcface/client.h</text>
</a>
</g>
</g>
<!-- Node12&#45;&gt;Node17 -->
<g id="edge23_Node000012_Node000017" class="edge">
<title>Node12&#45;&gt;Node17</title>
<g id="a_edge23_Node000012_Node000017"><a xlink:title=" ">
<path fill="none" stroke="#63b8ff" d="M855.86,-163.49C789.58,-153.54 688.99,-138.44 626.37,-129.04"/>
<polygon fill="#63b8ff" stroke="#63b8ff" points="855.38,-166.96 865.78,-164.98 856.41,-160.04 855.38,-166.96"/>
</a>
</g>
</g>
<!-- Node12&#45;&gt;Node25 -->
<g id="edge33_Node000012_Node000025" class="edge">
<title>Node12&#45;&gt;Node25</title>
<g id="a_edge33_Node000012_Node000025"><a xlink:title=" ">
<path fill="none" stroke="#63b8ff" d="M973.95,-162.67C1005.66,-155.14 1046.75,-143.78 1081.5,-129 1100.61,-120.87 1151.33,-89.52 1175.84,-74.13"/>
<polygon fill="#63b8ff" stroke="#63b8ff" points="972.96,-159.31 964.01,-164.99 974.54,-166.13 972.96,-159.31"/>
</a>
</g>
</g>
<!-- Node17&#45;&gt;Node2 -->
<g id="edge30_Node000017_Node000002" class="edge">
<title>Node17&#45;&gt;Node2</title>
<g id="a_edge30_Node000017_Node000002"><a xlink:title=" ">
<path fill="none" stroke="#63b8ff" d="M489.11,-109.97C334.57,-94.07 165.36,-77.42 87.19,-69.77"/>
<polygon fill="#63b8ff" stroke="#63b8ff" points="488.96,-113.47 499.26,-111.01 489.67,-106.51 488.96,-113.47"/>
</a>
</g>
</g>
<!-- Node18 -->
<g id="Node000018" class="node">
<title>Node18</title>
<g id="a_Node000018"><a xlink:href="c__wcf__internal_8h.html" target="_top" xlink:title=" ">
<polygon fill="white" stroke="#666666" points="565,-74 438,-74 438,-55 565,-55 565,-74"/>
<text text-anchor="middle" x="501.5" y="-62" font-family="Helvetica,sans-Serif" font-size="10.00">c_wcf/c_wcf_internal.h</text>
</a>
</g>
</g>
<!-- Node17&#45;&gt;Node18 -->
<g id="edge24_Node000017_Node000018" class="edge">
<title>Node17&#45;&gt;Node18</title>
<g id="a_edge24_Node000017_Node000018"><a xlink:title=" ">
<path fill="none" stroke="#63b8ff" d="M550.38,-103.6C538.2,-94.11 522.84,-82.13 512.62,-74.17"/>
<polygon fill="#63b8ff" stroke="#63b8ff" points="548.54,-106.6 558.57,-109.98 552.84,-101.08 548.54,-106.6"/>
</a>
</g>
</g>
<!-- Node24 -->
<g id="Node000024" class="node">
<title>Node24</title>
<g id="a_Node000024"><a xlink:href="client__ws_8cc.html" target="_top" xlink:title=" ">
<polygon fill="white" stroke="#666666" points="689.5,-74 583.5,-74 583.5,-55 689.5,-55 689.5,-74"/>
<text text-anchor="middle" x="636.5" y="-62" font-family="Helvetica,sans-Serif" font-size="10.00">client/client_ws.cc</text>
</a>
</g>
</g>
<!-- Node17&#45;&gt;Node24 -->
<g id="edge31_Node000017_Node000024" class="edge">
<title>Node17&#45;&gt;Node24</title>
<g id="a_edge31_Node000017_Node000024"><a xlink:title=" ">
<path fill="none" stroke="#63b8ff" d="M588.33,-103.6C600.34,-94.11 615.47,-82.13 625.54,-74.17"/>
<polygon fill="#63b8ff" stroke="#63b8ff" points="585.94,-101.04 580.26,-109.98 590.28,-106.53 585.94,-101.04"/>
</a>
</g>
</g>
<!-- Node17&#45;&gt;Node25 -->
<g id="edge32_Node000017_Node000025" class="edge">
<title>Node17&#45;&gt;Node25</title>
<g id="a_edge32_Node000017_Node000025"><a xlink:title=" ">
<path fill="none" stroke="#63b8ff" d="M649.82,-109.9C819.43,-93.9 1005.62,-79.32 1109.24,-71.47"/>
<polygon fill="#63b8ff" stroke="#63b8ff" points="649.33,-106.43 639.7,-110.85 649.99,-113.4 649.33,-106.43"/>
</a>
</g>
</g>
<!-- Node19 -->
<g id="Node000019" class="node">
<title>Node19</title>
<g id="a_Node000019"><a xlink:href="c__wcf_2client_8cc.html" target="_top" xlink:title=" ">
<polygon fill="white" stroke="#666666" points="343.5,-19 255.5,-19 255.5,0 343.5,0 343.5,-19"/>
<text text-anchor="middle" x="299.5" y="-7" font-family="Helvetica,sans-Serif" font-size="10.00">c_wcf/client.cc</text>
</a>
</g>
</g>
<!-- Node18&#45;&gt;Node19 -->
<g id="edge25_Node000018_Node000019" class="edge">
<title>Node18&#45;&gt;Node19</title>
<g id="a_edge25_Node000018_Node000019"><a xlink:title=" ">
<path fill="none" stroke="#63b8ff" d="M459.34,-52.44C421.52,-42.52 366.81,-28.16 332.21,-19.08"/>
<polygon fill="#63b8ff" stroke="#63b8ff" points="458.48,-55.83 469.05,-54.98 460.26,-49.06 458.48,-55.83"/>
</a>
</g>
</g>
<!-- Node20 -->
<g id="Node000020" class="node">
<title>Node20</title>
<g id="a_Node000020"><a xlink:href="c__wcf_2func_8cc.html" target="_top" xlink:title=" ">
<polygon fill="white" stroke="#666666" points="443.5,-19 361.5,-19 361.5,0 443.5,0 443.5,-19"/>
<text text-anchor="middle" x="402.5" y="-7" font-family="Helvetica,sans-Serif" font-size="10.00">c_wcf/func.cc</text>
</a>
</g>
</g>
<!-- Node18&#45;&gt;Node20 -->
<g id="edge26_Node000018_Node000020" class="edge">
<title>Node18&#45;&gt;Node20</title>
<g id="a_edge26_Node000018_Node000020"><a xlink:title=" ">
<path fill="none" stroke="#63b8ff" d="M476.72,-50.23C458.56,-40.51 434.44,-27.6 418.7,-19.17"/>
<polygon fill="#63b8ff" stroke="#63b8ff" points="475.13,-53.35 485.59,-54.98 478.43,-47.18 475.13,-53.35"/>
</a>
</g>
</g>
<!-- Node21 -->
<g id="Node000021" class="node">
<title>Node21</title>
<g id="a_Node000021"><a xlink:href="c__wcf_2text_8cc.html" target="_top" xlink:title=" ">
<polygon fill="white" stroke="#666666" points="541.5,-19 461.5,-19 461.5,0 541.5,0 541.5,-19"/>
<text text-anchor="middle" x="501.5" y="-7" font-family="Helvetica,sans-Serif" font-size="10.00">c_wcf/text.cc</text>
</a>
</g>
</g>
<!-- Node18&#45;&gt;Node21 -->
<g id="edge27_Node000018_Node000021" class="edge">
<title>Node18&#45;&gt;Node21</title>
<g id="a_edge27_Node000018_Node000021"><a xlink:title=" ">
<path fill="none" stroke="#63b8ff" d="M501.5,-44.66C501.5,-35.93 501.5,-25.99 501.5,-19.09"/>
<polygon fill="#63b8ff" stroke="#63b8ff" points="498,-44.75 501.5,-54.75 505,-44.75 498,-44.75"/>
</a>
</g>
</g>
<!-- Node22 -->
<g id="Node000022" class="node">
<title>Node22</title>
<g id="a_Node000022"><a xlink:href="c__wcf_2value_8cc.html" target="_top" xlink:title=" ">
<polygon fill="white" stroke="#666666" points="647.5,-19 559.5,-19 559.5,0 647.5,0 647.5,-19"/>
<text text-anchor="middle" x="603.5" y="-7" font-family="Helvetica,sans-Serif" font-size="10.00">c_wcf/value.cc</text>
</a>
</g>
</g>
<!-- Node18&#45;&gt;Node22 -->
<g id="edge28_Node000018_Node000022" class="edge">
<title>Node18&#45;&gt;Node22</title>
<g id="a_edge28_Node000018_Node000022"><a xlink:title=" ">
<path fill="none" stroke="#63b8ff" d="M526.77,-50.37C545.51,-40.63 570.52,-27.64 586.81,-19.17"/>
<polygon fill="#63b8ff" stroke="#63b8ff" points="525.15,-47.27 517.89,-54.98 528.38,-53.48 525.15,-47.27"/>
</a>
</g>
</g>
<!-- Node23 -->
<g id="Node000023" class="node">
<title>Node23</title>
<g id="a_Node000023"><a xlink:href="c__wcf_2view_8cc.html" target="_top" xlink:title=" ">
<polygon fill="white" stroke="#666666" points="749,-19 666,-19 666,0 749,0 749,-19"/>
<text text-anchor="middle" x="707.5" y="-7" font-family="Helvetica,sans-Serif" font-size="10.00">c_wcf/view.cc</text>
</a>
</g>
</g>
<!-- Node18&#45;&gt;Node23 -->
<g id="edge29_Node000018_Node000023" class="edge">
<title>Node18&#45;&gt;Node23</title>
<g id="a_edge29_Node000018_Node000023"><a xlink:title=" ">
<path fill="none" stroke="#63b8ff" d="M544.5,-52.44C583.06,-42.52 638.86,-28.16 674.14,-19.08"/>
<polygon fill="#63b8ff" stroke="#63b8ff" points="543.41,-49.1 534.6,-54.98 545.15,-55.88 543.41,-49.1"/>
</a>
</g>
</g>
<!-- Node26&#45;&gt;Node8 -->
<g id="edge36_Node000026_Node000008" class="edge">
<title>Node26&#45;&gt;Node8</title>
<g id="a_edge36_Node000026_Node000008"><a xlink:title=" ">
<path fill="none" stroke="#63b8ff" d="M1052.86,-218.38C917.55,-197.2 606.66,-148.54 481.33,-128.93"/>
<polygon fill="#63b8ff" stroke="#63b8ff" points="1052.65,-221.89 1063.07,-219.98 1053.73,-214.98 1052.65,-221.89"/>
</a>
</g>
</g>
<!-- Node26&#45;&gt;Node12 -->
<g id="edge37_Node000026_Node000012" class="edge">
<title>Node26&#45;&gt;Node12</title>
<g id="a_edge37_Node000026_Node000012"><a xlink:title=" ">
<path fill="none" stroke="#63b8ff" d="M1076.33,-217.31C1039.84,-207.39 987.33,-193.12 954.08,-184.08"/>
<polygon fill="#63b8ff" stroke="#63b8ff" points="1075.6,-220.74 1086.17,-219.98 1077.44,-213.98 1075.6,-220.74"/>
</a>
</g>
</g>
<!-- Node26&#45;&gt;Node25 -->
<g id="edge38_Node000026_Node000025" class="edge">
<title>Node26&#45;&gt;Node25</title>
<g id="a_edge38_Node000026_Node000025"><a xlink:title=" ">
<path fill="none" stroke="#63b8ff" d="M1207.66,-224.53C1273.38,-216.14 1357.32,-192.67 1395.5,-129 1399.84,-121.76 1400.8,-116.57 1395.5,-110 1379.56,-90.25 1320.38,-78.83 1269.52,-72.52"/>
<polygon fill="#63b8ff" stroke="#63b8ff" points="1207.22,-221.05 1197.69,-225.7 1208.04,-228.01 1207.22,-221.05"/>
</a>
</g>
</g>
<!-- Node27&#45;&gt;Node5 -->
<g id="edge40_Node000027_Node000005" class="edge">
<title>Node27&#45;&gt;Node5</title>
<g id="a_edge40_Node000027_Node000005"><a xlink:title=" ">
<path fill="none" stroke="#63b8ff" d="M1307.35,-268.71C1356.3,-231.72 1458.16,-154.76 1492.17,-129.06"/>
<polygon fill="#63b8ff" stroke="#63b8ff" points="1305,-266.1 1299.13,-274.92 1309.22,-271.69 1305,-266.1"/>
</a>
</g>
</g>
<!-- Node27&#45;&gt;Node9 -->
<g id="edge41_Node000027_Node000009" class="edge">
<title>Node27&#45;&gt;Node9</title>
<g id="a_edge41_Node000027_Node000009"><a xlink:title=" ">
<path fill="none" stroke="#63b8ff" d="M1267.9,-265.66C1247.42,-227.74 1207.83,-154.45 1194.23,-129.25"/>
<polygon fill="#63b8ff" stroke="#63b8ff" points="1265.07,-267.79 1272.9,-274.92 1271.23,-264.46 1265.07,-267.79"/>
</a>
</g>
</g>
<!-- Node27&#45;&gt;Node12 -->
<g id="edge43_Node000027_Node000012" class="edge">
<title>Node27&#45;&gt;Node12</title>
<g id="a_edge43_Node000027_Node000012"><a xlink:title=" ">
<path fill="none" stroke="#63b8ff" d="M1263.19,-266.98C1249.55,-251.25 1229.1,-231 1206.5,-220 1141.43,-188.33 1058.96,-178.26 999.68,-175.48"/>
<polygon fill="#63b8ff" stroke="#63b8ff" points="1260.58,-269.31 1269.69,-274.72 1265.94,-264.81 1260.58,-269.31"/>
</a>
</g>
</g>
<!-- Node27&#45;&gt;Node25 -->
<g id="edge44_Node000027_Node000025" class="edge">
<title>Node27&#45;&gt;Node25</title>
<g id="a_edge44_Node000027_Node000025"><a xlink:title=" ">
<path fill="none" stroke="#63b8ff" d="M1355.59,-273.62C1464.61,-248.1 1646.17,-191.58 1573.5,-110 1553.66,-87.73 1376.25,-74.93 1269.64,-69.19"/>
<polygon fill="#63b8ff" stroke="#63b8ff" points="1354.56,-270.27 1345.6,-275.92 1356.13,-277.09 1354.56,-270.27"/>
</a>
</g>
</g>
<!-- Node27&#45;&gt;Node26 -->
<g id="edge42_Node000027_Node000026" class="edge">
<title>Node27&#45;&gt;Node26</title>
<g id="a_edge42_Node000027_Node000026"><a xlink:title=" ">
<path fill="none" stroke="#63b8ff" d="M1231.66,-271.47C1201.91,-260.79 1165.2,-247.62 1141.57,-239.14"/>
<polygon fill="#63b8ff" stroke="#63b8ff" points="1230.86,-274.9 1241.46,-274.99 1233.23,-268.32 1230.86,-274.9"/>
</a>
</g>
</g>
<!-- Node28&#45;&gt;Node2 -->
<g id="edge46_Node000028_Node000002" class="edge">
<title>Node28&#45;&gt;Node2</title>
<g id="a_edge46_Node000028_Node000002"><a xlink:title=" ">
<path fill="none" stroke="#63b8ff" d="M246.1,-219.75C192.58,-212.45 127.53,-200.56 105.5,-184 67.27,-155.26 50.42,-96.04 45.3,-74.01"/>
<polygon fill="#63b8ff" stroke="#63b8ff" points="245.91,-223.25 256.29,-221.1 246.83,-216.31 245.91,-223.25"/>
</a>
</g>
</g>
<!-- Node28&#45;&gt;Node6 -->
<g id="edge47_Node000028_Node000006" class="edge">
<title>Node28&#45;&gt;Node6</title>
<g id="a_edge47_Node000028_Node000006"><a xlink:title=" ">
<path fill="none" stroke="#63b8ff" d="M337.52,-211.67C344.62,-202.5 353.1,-191.52 358.86,-184.09"/>
<polygon fill="#63b8ff" stroke="#63b8ff" points="334.62,-209.7 331.27,-219.75 340.16,-213.98 334.62,-209.7"/>
</a>
</g>
</g>
<!-- Node28&#45;&gt;Node10 -->
<g id="edge48_Node000028_Node000010" class="edge">
<title>Node28&#45;&gt;Node10</title>
<g id="a_edge48_Node000028_Node000010"><a xlink:title=" ">
<path fill="none" stroke="#63b8ff" d="M305.38,-213.21C276.63,-190.2 223.18,-147.44 200.32,-129.16"/>
<polygon fill="#63b8ff" stroke="#63b8ff" points="303.46,-216.15 313.45,-219.66 307.83,-210.68 303.46,-216.15"/>
</a>
</g>
</g>
<!-- Node28&#45;&gt;Node12 -->
<g id="edge49_Node000028_Node000012" class="edge">
<title>Node28&#45;&gt;Node12</title>
<g id="a_edge49_Node000028_Node000012"><a xlink:title=" ">
<path fill="none" stroke="#63b8ff" d="M402.64,-221.57C517.51,-211.39 730.69,-192.5 845.12,-182.36"/>
<polygon fill="#63b8ff" stroke="#63b8ff" points="402.17,-218.1 392.52,-222.47 402.79,-225.08 402.17,-218.1"/>
</a>
</g>
</g>
<!-- Node28&#45;&gt;Node25 -->
<g id="edge50_Node000028_Node000025" class="edge">
<title>Node28&#45;&gt;Node25</title>
<g id="a_edge50_Node000028_Node000025"><a xlink:title=" ">
<path fill="none" stroke="#63b8ff" d="M275.92,-217.43C205.89,-199.4 90.01,-160.58 138.5,-110 155.26,-92.51 866.7,-73.43 1109.37,-67.42"/>
<polygon fill="#63b8ff" stroke="#63b8ff" points="275.35,-220.89 285.9,-219.94 277.05,-214.1 275.35,-220.89"/>
</a>
</g>
</g>
</g>
</svg>
