<?xml version="1.0" encoding="UTF-8" standalone="no"?>
<!DOCTYPE svg PUBLIC "-//W3C//DTD SVG 1.1//EN"
 "http://www.w3.org/Graphics/SVG/1.1/DTD/svg11.dtd">
<!-- Generated by graphviz version 2.43.0 (0)
 -->
<!-- Title: client/include/webcface/text.h Pages: 1 -->
<svg width="900pt" height="214pt"
 viewBox="0.00 0.00 900.00 214.00" xmlns="http://www.w3.org/2000/svg" xmlns:xlink="http://www.w3.org/1999/xlink">
<g id="graph0" class="graph" transform="scale(1 1) rotate(0) translate(4 210)">
<title>client/include/webcface/text.h</title>
<!-- Node1 -->
<g id="Node000001" class="node">
<title>Node1</title>
<g id="a_Node000001"><a xlink:title=" ">
<polygon fill="#999999" stroke="#666666" points="491,-206 360,-206 360,-176 491,-176 491,-206"/>
<text text-anchor="start" x="368" y="-194" font-family="Helvetica,sans-Serif" font-size="10.00">client/include/webcface</text>
<text text-anchor="middle" x="425.5" y="-183" font-family="Helvetica,sans-Serif" font-size="10.00">/text.h</text>
</a>
</g>
</g>
<!-- Node2 -->
<g id="Node000002" class="node">
<title>Node2</title>
<g id="a_Node000002"><a xlink:title=" ">
<polygon fill="#e0e0e0" stroke="#999999" points="65,-134.5 0,-134.5 0,-115.5 65,-115.5 65,-134.5"/>
<text text-anchor="middle" x="32.5" y="-122.5" font-family="Helvetica,sans-Serif" font-size="10.00">functional</text>
</a>
</g>
</g>
<!-- Node1&#45;&gt;Node2 -->
<g id="edge1_Node000001_Node000002" class="edge">
<title>Node1&#45;&gt;Node2</title>
<g id="a_edge1_Node000001_Node000002"><a xlink:title=" ">
<path fill="none" stroke="#63b8ff" d="M359.94,-183.41C289.97,-175.71 176.12,-161.25 79.5,-140 75.88,-139.2 72.13,-138.27 68.4,-137.28"/>
<polygon fill="#63b8ff" stroke="#63b8ff" points="69.25,-133.88 58.67,-134.53 67.35,-140.62 69.25,-133.88"/>
</a>
</g>
</g>
<!-- Node3 -->
<g id="Node000003" class="node">
<title>Node3</title>
<g id="a_Node000003"><a xlink:title=" ">
<polygon fill="#e0e0e0" stroke="#999999" points="656,-74 599,-74 599,-55 656,-55 656,-74"/>
<text text-anchor="middle" x="627.5" y="-62" font-family="Helvetica,sans-Serif" font-size="10.00">ostream</text>
</a>
</g>
</g>
<!-- Node1&#45;&gt;Node3 -->
<g id="edge2_Node000001_Node000003" class="edge">
<title>Node1&#45;&gt;Node3</title>
<g id="a_edge2_Node000001_Node000003"><a xlink:title=" ">
<path fill="none" stroke="#63b8ff" d="M432.25,-175.99C441.57,-158.11 460.03,-127.41 484.5,-110 501.39,-97.98 552.75,-83.66 589.07,-74.58"/>
<polygon fill="#63b8ff" stroke="#63b8ff" points="590,-77.95 598.87,-72.16 588.32,-71.16 590,-77.95"/>
</a>
</g>
</g>
<!-- Node4 -->
<g id="Node000004" class="node">
<title>Node4</title>
<g id="a_Node000004"><a xlink:title=" ">
<polygon fill="#e0e0e0" stroke="#999999" points="695.5,-134.5 639.5,-134.5 639.5,-115.5 695.5,-115.5 695.5,-134.5"/>
<text text-anchor="middle" x="667.5" y="-122.5" font-family="Helvetica,sans-Serif" font-size="10.00">optional</text>
</a>
</g>
</g>
<!-- Node1&#45;&gt;Node4 -->
<g id="edge3_Node000001_Node000004" class="edge">
<title>Node1&#45;&gt;Node4</title>
<g id="a_edge3_Node000001_Node000004"><a xlink:title=" ">
<path fill="none" stroke="#63b8ff" d="M491.15,-176.14C531.65,-167.06 584.49,-154.26 630.5,-140 632.42,-139.41 634.38,-138.76 636.36,-138.09"/>
<polygon fill="#63b8ff" stroke="#63b8ff" points="637.9,-141.26 646.13,-134.59 635.54,-134.67 637.9,-141.26"/>
</a>
</g>
</g>
<!-- Node5 -->
<g id="Node000005" class="node">
<title>Node5</title>
<g id="a_Node000005"><a xlink:title=" ">
<polygon fill="#e0e0e0" stroke="#999999" points="763.5,-134.5 713.5,-134.5 713.5,-115.5 763.5,-115.5 763.5,-134.5"/>
<text text-anchor="middle" x="738.5" y="-122.5" font-family="Helvetica,sans-Serif" font-size="10.00">chrono</text>
</a>
</g>
</g>
<!-- Node1&#45;&gt;Node5 -->
<g id="edge4_Node000001_Node000005" class="edge">
<title>Node1&#45;&gt;Node5</title>
<g id="a_edge4_Node000001_Node000005"><a xlink:title=" ">
<path fill="none" stroke="#63b8ff" d="M491.24,-182.25C548.36,-174.56 632.93,-160.89 704.5,-140 706.38,-139.45 708.31,-138.83 710.23,-138.17"/>
<polygon fill="#63b8ff" stroke="#63b8ff" points="711.58,-141.4 719.69,-134.58 709.1,-134.85 711.58,-141.4"/>
</a>
</g>
</g>
<!-- Node6 -->
<g id="Node000006" class="node">
<title>Node6</title>
<g id="a_Node000006"><a xlink:title=" ">
<polygon fill="#e0e0e0" stroke="#999999" points="142.5,-19 84.5,-19 84.5,0 142.5,0 142.5,-19"/>
<text text-anchor="middle" x="113.5" y="-7" font-family="Helvetica,sans-Serif" font-size="10.00">memory</text>
</a>
</g>
</g>
<!-- Node1&#45;&gt;Node6 -->
<g id="edge5_Node000001_Node000006" class="edge">
<title>Node1&#45;&gt;Node6</title>
<g id="a_edge5_Node000001_Node000006"><a xlink:title=" ">
<path fill="none" stroke="#63b8ff" d="M385.88,-175.97C361.79,-166.88 330.72,-154.11 304.5,-140 238.12,-104.26 166.12,-51.09 132.63,-25.43"/>
<polygon fill="#63b8ff" stroke="#63b8ff" points="134.67,-22.57 124.61,-19.24 130.39,-28.12 134.67,-22.57"/>
</a>
</g>
</g>
<!-- Node7 -->
<g id="Node000007" class="node">
<title>Node7</title>
<g id="a_Node000007"><a xlink:href="field_8h.html" target="_top" xlink:title=" ">
<polygon fill="white" stroke="#666666" points="418,-134.5 371,-134.5 371,-115.5 418,-115.5 418,-134.5"/>
<text text-anchor="middle" x="394.5" y="-122.5" font-family="Helvetica,sans-Serif" font-size="10.00">field.h</text>
</a>
</g>
</g>
<!-- Node1&#45;&gt;Node7 -->
<g id="edge6_Node000001_Node000007" class="edge">
<title>Node1&#45;&gt;Node7</title>
<g id="a_edge6_Node000001_Node000007"><a xlink:title=" ">
<path fill="none" stroke="#63b8ff" d="M418.62,-175.8C414.07,-166.41 408.07,-154.02 403.19,-143.95"/>
<polygon fill="#63b8ff" stroke="#63b8ff" points="406.29,-142.32 398.78,-134.84 399.99,-145.37 406.29,-142.32"/>
</a>
</g>
</g>
<!-- Node11 -->
<g id="Node000011" class="node">
<title>Node11</title>
<g id="a_Node000011"><a xlink:href="webcface-config_8h.html" target="_top" xlink:title=" ">
<polygon fill="white" stroke="#666666" points="266,-19 161,-19 161,0 266,0 266,-19"/>
<text text-anchor="middle" x="213.5" y="-7" font-family="Helvetica,sans-Serif" font-size="10.00">webcface&#45;config.h</text>
</a>
</g>
</g>
<!-- Node1&#45;&gt;Node11 -->
<g id="edge19_Node000001_Node000011" class="edge">
<title>Node1&#45;&gt;Node11</title>
<g id="a_edge19_Node000001_Node000011"><a xlink:title=" ">
<path fill="none" stroke="#63b8ff" d="M401.88,-175.84C369.1,-155.58 308.86,-116.09 264.5,-74 249.5,-59.76 234.99,-41.07 225.31,-27.66"/>
<polygon fill="#63b8ff" stroke="#63b8ff" points="228.06,-25.48 219.43,-19.33 222.34,-29.52 228.06,-25.48"/>
</a>
</g>
</g>
<!-- Node15 -->
<g id="Node000015" class="node">
<title>Node15</title>
<g id="a_Node000015"><a xlink:href="encoding_2include_2webcface_2encoding_2val__adaptor_8h.html" target="_top" xlink:title=" ">
<polygon fill="white" stroke="#666666" points="621.5,-140 493.5,-140 493.5,-110 621.5,-110 621.5,-140"/>
<text text-anchor="start" x="501.5" y="-128" font-family="Helvetica,sans-Serif" font-size="10.00">webcface/encoding/val</text>
<text text-anchor="middle" x="557.5" y="-117" font-family="Helvetica,sans-Serif" font-size="10.00">_adaptor.h</text>
</a>
</g>
</g>
<!-- Node1&#45;&gt;Node15 -->
<g id="edge20_Node000001_Node000015" class="edge">
<title>Node1&#45;&gt;Node15</title>
<g id="a_edge20_Node000001_Node000015"><a xlink:title=" ">
<path fill="none" stroke="#63b8ff" d="M454.47,-175.95C473.55,-166.7 498.75,-154.49 519.44,-144.45"/>
<polygon fill="#63b8ff" stroke="#63b8ff" points="521.13,-147.52 528.6,-140.01 518.07,-141.23 521.13,-147.52"/>
</a>
</g>
</g>
<!-- Node7&#45;&gt;Node6 -->
<g id="edge7_Node000007_Node000006" class="edge">
<title>Node7&#45;&gt;Node6</title>
<g id="a_edge7_Node000007_Node000006"><a xlink:title=" ">
<path fill="none" stroke="#63b8ff" d="M371.4,-115.36C345.34,-105.56 301.74,-88.99 264.5,-74 222.07,-56.92 173.36,-36.24 143,-23.22"/>
<polygon fill="#63b8ff" stroke="#63b8ff" points="144.02,-19.85 133.45,-19.12 141.25,-26.28 144.02,-19.85"/>
</a>
</g>
</g>
<!-- Node8 -->
<g id="Node000008" class="node">
<title>Node8</title>
<g id="a_Node000008"><a xlink:title=" ">
<polygon fill="#e0e0e0" stroke="#999999" points="527.5,-19 483.5,-19 483.5,0 527.5,0 527.5,-19"/>
<text text-anchor="middle" x="505.5" y="-7" font-family="Helvetica,sans-Serif" font-size="10.00">string</text>
</a>
</g>
</g>
<!-- Node7&#45;&gt;Node8 -->
<g id="edge8_Node000007_Node000008" class="edge">
<title>Node7&#45;&gt;Node8</title>
<g id="a_edge8_Node000007_Node000008"><a xlink:title=" ">
<path fill="none" stroke="#63b8ff" d="M418.19,-117.14C439.36,-109.81 469.7,-96.15 487.5,-74 497.7,-61.3 502.13,-43.12 504.04,-29.46"/>
<polygon fill="#63b8ff" stroke="#63b8ff" points="507.55,-29.59 505.13,-19.27 500.59,-28.85 507.55,-29.59"/>
</a>
</g>
</g>
<!-- Node9 -->
<g id="Node000009" class="node">
<title>Node9</title>
<g id="a_Node000009"><a xlink:title=" ">
<polygon fill="#e0e0e0" stroke="#999999" points="357,-19 284,-19 284,0 357,0 357,-19"/>
<text text-anchor="middle" x="320.5" y="-7" font-family="Helvetica,sans-Serif" font-size="10.00">string_view</text>
</a>
</g>
</g>
<!-- Node7&#45;&gt;Node9 -->
<g id="edge9_Node000007_Node000009" class="edge">
<title>Node7&#45;&gt;Node9</title>
<g id="a_edge9_Node000007_Node000009"><a xlink:title=" ">
<path fill="none" stroke="#63b8ff" d="M370.83,-118.48C348.78,-111.95 317.18,-98.69 302.5,-74 294.02,-59.73 300.9,-41.28 308.47,-27.95"/>
<polygon fill="#63b8ff" stroke="#63b8ff" points="311.56,-29.61 313.9,-19.28 305.62,-25.9 311.56,-29.61"/>
</a>
</g>
</g>
<!-- Node10 -->
<g id="Node000010" class="node">
<title>Node10</title>
<g id="a_Node000010"><a xlink:title=" ">
<polygon fill="#e0e0e0" stroke="#999999" points="581,-74 534,-74 534,-55 581,-55 581,-74"/>
<text text-anchor="middle" x="557.5" y="-62" font-family="Helvetica,sans-Serif" font-size="10.00">vector</text>
</a>
</g>
</g>
<!-- Node7&#45;&gt;Node10 -->
<g id="edge10_Node000007_Node000010" class="edge">
<title>Node7&#45;&gt;Node10</title>
<g id="a_edge10_Node000007_Node000010"><a xlink:title=" ">
<path fill="none" stroke="#63b8ff" d="M418.2,-115.49C446.09,-105.49 492.57,-88.8 524.1,-77.49"/>
<polygon fill="#63b8ff" stroke="#63b8ff" points="525.54,-80.69 533.77,-74.02 523.18,-74.1 525.54,-80.69"/>
</a>
</g>
</g>
<!-- Node7&#45;&gt;Node11 -->
<g id="edge11_Node000007_Node000011" class="edge">
<title>Node7&#45;&gt;Node11</title>
<g id="a_edge11_Node000007_Node000011"><a xlink:title=" ">
<path fill="none" stroke="#63b8ff" d="M374.32,-115.36C353.65,-106.18 320.91,-90.71 294.5,-74 271.57,-59.49 247.34,-39.84 231.42,-26.27"/>
<polygon fill="#63b8ff" stroke="#63b8ff" points="233.35,-23.31 223.49,-19.42 228.77,-28.6 233.35,-23.31"/>
</a>
</g>
</g>
<!-- Node12 -->
<g id="Node000012" class="node">
<title>Node12</title>
<g id="a_Node000012"><a xlink:href="encoding_8h.html" target="_top" xlink:title=" ">
<polygon fill="white" stroke="#666666" points="478,-74 311,-74 311,-55 478,-55 478,-74"/>
<text text-anchor="middle" x="394.5" y="-62" font-family="Helvetica,sans-Serif" font-size="10.00">webcface/encoding/encoding.h</text>
</a>
</g>
</g>
<!-- Node7&#45;&gt;Node12 -->
<g id="edge12_Node000007_Node000012" class="edge">
<title>Node7&#45;&gt;Node12</title>
<g id="a_edge12_Node000007_Node000012"><a xlink:title=" ">
<path fill="none" stroke="#63b8ff" d="M394.5,-115.37C394.5,-107.25 394.5,-94.81 394.5,-84.39"/>
<polygon fill="#63b8ff" stroke="#63b8ff" points="398,-84.17 394.5,-74.17 391,-84.17 398,-84.17"/>
</a>
</g>
</g>
<!-- Node12&#45;&gt;Node6 -->
<g id="edge17_Node000012_Node000006" class="edge">
<title>Node12&#45;&gt;Node6</title>
<g id="a_edge17_Node000012_Node000006"><a xlink:title=" ">
<path fill="none" stroke="#63b8ff" d="M344.59,-54.95C297.6,-46.76 225,-33.78 152.72,-19.18"/>
<polygon fill="#63b8ff" stroke="#63b8ff" points="153.02,-15.67 142.52,-17.11 151.63,-22.53 153.02,-15.67"/>
</a>
</g>
</g>
<!-- Node12&#45;&gt;Node8 -->
<g id="edge15_Node000012_Node000008" class="edge">
<title>Node12&#45;&gt;Node8</title>
<g id="a_edge15_Node000012_Node000008"><a xlink:title=" ">
<path fill="none" stroke="#63b8ff" d="M412.33,-54.98C430.11,-46.5 457.65,-33.35 478.18,-23.54"/>
<polygon fill="#63b8ff" stroke="#63b8ff" points="479.83,-26.64 487.34,-19.17 476.81,-20.32 479.83,-26.64"/>
</a>
</g>
</g>
<!-- Node12&#45;&gt;Node9 -->
<g id="edge16_Node000012_Node000009" class="edge">
<title>Node12&#45;&gt;Node9</title>
<g id="a_edge16_Node000012_Node000009"><a xlink:title=" ">
<path fill="none" stroke="#63b8ff" d="M382.61,-54.98C371.35,-46.92 354.21,-34.65 340.79,-25.03"/>
<polygon fill="#63b8ff" stroke="#63b8ff" points="342.77,-22.15 332.61,-19.17 338.7,-27.84 342.77,-22.15"/>
</a>
</g>
</g>
<!-- Node12&#45;&gt;Node11 -->
<g id="edge18_Node000012_Node000011" class="edge">
<title>Node12&#45;&gt;Node11</title>
<g id="a_edge18_Node000012_Node000011"><a xlink:title=" ">
<path fill="none" stroke="#63b8ff" d="M365.42,-54.98C334.9,-46.05 286.74,-31.94 252.84,-22.02"/>
<polygon fill="#63b8ff" stroke="#63b8ff" points="253.39,-18.53 242.81,-19.08 251.42,-25.25 253.39,-18.53"/>
</a>
</g>
</g>
<!-- Node13 -->
<g id="Node000013" class="node">
<title>Node13</title>
<g id="a_Node000013"><a xlink:title=" ">
<polygon fill="#e0e0e0" stroke="#999999" points="413.5,-19 375.5,-19 375.5,0 413.5,0 413.5,-19"/>
<text text-anchor="middle" x="394.5" y="-7" font-family="Helvetica,sans-Serif" font-size="10.00">map</text>
</a>
</g>
</g>
<!-- Node12&#45;&gt;Node13 -->
<g id="edge13_Node000012_Node000013" class="edge">
<title>Node12&#45;&gt;Node13</title>
<g id="a_edge13_Node000012_Node000013"><a xlink:title=" ">
<path fill="none" stroke="#63b8ff" d="M394.5,-54.75C394.5,-47.8 394.5,-37.85 394.5,-29.13"/>
<polygon fill="#63b8ff" stroke="#63b8ff" points="398,-29.09 394.5,-19.09 391,-29.09 398,-29.09"/>
</a>
</g>
</g>
<!-- Node14 -->
<g id="Node000014" class="node">
<title>Node14</title>
<g id="a_Node000014"><a xlink:title=" ">
<polygon fill="#e0e0e0" stroke="#999999" points="463.5,-19 431.5,-19 431.5,0 463.5,0 463.5,-19"/>
<text text-anchor="middle" x="447.5" y="-7" font-family="Helvetica,sans-Serif" font-size="10.00">set</text>
</a>
</g>
</g>
<!-- Node12&#45;&gt;Node14 -->
<g id="edge14_Node000012_Node000014" class="edge">
<title>Node12&#45;&gt;Node14</title>
<g id="a_edge14_Node000012_Node000014"><a xlink:title=" ">
<path fill="none" stroke="#63b8ff" d="M403.25,-54.75C410.97,-47.03 422.4,-35.6 431.72,-26.28"/>
<polygon fill="#63b8ff" stroke="#63b8ff" points="434.31,-28.64 438.91,-19.09 429.36,-23.69 434.31,-28.64"/>
</a>
</g>
</g>
<!-- Node15&#45;&gt;Node3 -->
<g id="edge25_Node000015_Node000003" class="edge">
<title>Node15&#45;&gt;Node3</title>
<g id="a_edge25_Node000015_Node000003"><a xlink:title=" ">
<path fill="none" stroke="#63b8ff" d="M574.45,-109.84C584.92,-101.09 598.36,-89.85 609.09,-80.88"/>
<polygon fill="#63b8ff" stroke="#63b8ff" points="611.58,-83.36 617.01,-74.27 607.09,-77.99 611.58,-83.36"/>
</a>
</g>
</g>
<!-- Node15&#45;&gt;Node8 -->
<g id="edge21_Node000015_Node000008" class="edge">
<title>Node15&#45;&gt;Node8</title>
<g id="a_edge21_Node000015_Node000008"><a xlink:title=" ">
<path fill="none" stroke="#63b8ff" d="M614.42,-109.98C649.54,-98.5 684.55,-80.07 665.5,-55 650.1,-34.74 579.85,-21.26 537.73,-14.84"/>
<polygon fill="#63b8ff" stroke="#63b8ff" points="538.07,-11.36 527.67,-13.37 537.06,-18.28 538.07,-11.36"/>
</a>
</g>
</g>
<!-- Node15&#45;&gt;Node10 -->
<g id="edge22_Node000015_Node000010" class="edge">
<title>Node15&#45;&gt;Node10</title>
<g id="a_edge22_Node000015_Node000010"><a xlink:title=" ">
<path fill="none" stroke="#63b8ff" d="M557.5,-109.84C557.5,-102.21 557.5,-92.7 557.5,-84.45"/>
<polygon fill="#63b8ff" stroke="#63b8ff" points="561,-84.27 557.5,-74.27 554,-84.27 561,-84.27"/>
</a>
</g>
</g>
<!-- Node15&#45;&gt;Node11 -->
<g id="edge28_Node000015_Node000011" class="edge">
<title>Node15&#45;&gt;Node11</title>
<g id="a_edge28_Node000015_Node000011"><a xlink:title=" ">
<path fill="none" stroke="#63b8ff" d="M493.45,-119.03C440.49,-113.16 364.24,-100.59 302.5,-74 287.79,-67.67 253.8,-42.09 232.34,-25.39"/>
<polygon fill="#63b8ff" stroke="#63b8ff" points="234.3,-22.48 224.27,-19.07 229.98,-27.99 234.3,-22.48"/>
</a>
</g>
</g>
<!-- Node15&#45;&gt;Node12 -->
<g id="edge27_Node000015_Node000012" class="edge">
<title>Node15&#45;&gt;Node12</title>
<g id="a_edge27_Node000015_Node000012"><a xlink:title=" ">
<path fill="none" stroke="#63b8ff" d="M518.46,-109.99C490.9,-100.1 454.35,-86.98 428.09,-77.56"/>
<polygon fill="#63b8ff" stroke="#63b8ff" points="429.17,-74.22 418.57,-74.14 426.8,-80.81 429.17,-74.22"/>
</a>
</g>
</g>
<!-- Node16 -->
<g id="Node000016" class="node">
<title>Node16</title>
<g id="a_Node000016"><a xlink:title=" ">
<polygon fill="#e0e0e0" stroke="#999999" points="754,-74 713,-74 713,-55 754,-55 754,-74"/>
<text text-anchor="middle" x="733.5" y="-62" font-family="Helvetica,sans-Serif" font-size="10.00">tuple</text>
</a>
</g>
</g>
<!-- Node15&#45;&gt;Node16 -->
<g id="edge23_Node000015_Node000016" class="edge">
<title>Node15&#45;&gt;Node16</title>
<g id="a_edge23_Node000015_Node000016"><a xlink:title=" ">
<path fill="none" stroke="#63b8ff" d="M599.66,-109.99C631.54,-99.39 674.56,-85.09 703.12,-75.6"/>
<polygon fill="#63b8ff" stroke="#63b8ff" points="704.56,-78.81 712.94,-72.33 702.35,-72.17 704.56,-78.81"/>
</a>
</g>
</g>
<!-- Node17 -->
<g id="Node000017" class="node">
<title>Node17</title>
<g id="a_Node000017"><a xlink:title=" ">
<polygon fill="#e0e0e0" stroke="#999999" points="822.5,-74 772.5,-74 772.5,-55 822.5,-55 822.5,-74"/>
<text text-anchor="middle" x="797.5" y="-62" font-family="Helvetica,sans-Serif" font-size="10.00">cstdint</text>
</a>
</g>
</g>
<!-- Node15&#45;&gt;Node17 -->
<g id="edge24_Node000015_Node000017" class="edge">
<title>Node15&#45;&gt;Node17</title>
<g id="a_edge24_Node000015_Node000017"><a xlink:title=" ">
<path fill="none" stroke="#63b8ff" d="M615.69,-109.99C654.62,-100.59 707.28,-87.83 762.32,-74.28"/>
<polygon fill="#63b8ff" stroke="#63b8ff" points="763.38,-77.62 772.25,-71.83 761.71,-70.83 763.38,-77.62"/>
</a>
</g>
</g>
<!-- Node18 -->
<g id="Node000018" class="node">
<title>Node18</title>
<g id="a_Node000018"><a xlink:title=" ">
<polygon fill="#e0e0e0" stroke="#999999" points="892,-74 841,-74 841,-55 892,-55 892,-74"/>
<text text-anchor="middle" x="866.5" y="-62" font-family="Helvetica,sans-Serif" font-size="10.00">variant</text>
</a>
</g>
</g>
<!-- Node15&#45;&gt;Node18 -->
<g id="edge26_Node000015_Node000018" class="edge">
<title>Node15&#45;&gt;Node18</title>
<g id="a_edge26_Node000015_Node000018"><a xlink:title=" ">
<path fill="none" stroke="#63b8ff" d="M621.59,-111.66C624.6,-111.1 627.58,-110.54 630.5,-110 716.68,-94.02 741.05,-92.79 831.11,-73.97"/>
<polygon fill="#63b8ff" stroke="#63b8ff" points="831.86,-77.39 840.93,-71.9 830.42,-70.54 831.86,-77.39"/>
</a>
</g>
</g>
</g>
</svg>
