<?xml version="1.0" encoding="UTF-8" standalone="no"?>
<!DOCTYPE svg PUBLIC "-//W3C//DTD SVG 1.1//EN"
 "http://www.w3.org/Graphics/SVG/1.1/DTD/svg11.dtd">
<!-- Generated by graphviz version 2.43.0 (0)
 -->
<!-- Title: include/webcface/common/transform.h Pages: 1 -->
<svg width="2296pt" height="511pt"
 viewBox="0.00 0.00 2295.91 511.00" xmlns="http://www.w3.org/2000/svg" xmlns:xlink="http://www.w3.org/1999/xlink">
<g id="graph0" class="graph" transform="scale(1 1) rotate(0) translate(4 507)">
<title>include/webcface/common/transform.h</title>
<!-- Node1 -->
<g id="Node000001" class="node">
<title>Node1</title>
<g id="a_Node000001"><a xlink:title=" ">
<polygon fill="#999999" stroke="#666666" points="288.5,-503 141.5,-503 141.5,-473 288.5,-473 288.5,-503"/>
<text text-anchor="start" x="149.5" y="-491" font-family="Helvetica,sans-Serif" font-size="10.00">include/webcface/common</text>
<text text-anchor="middle" x="215" y="-480" font-family="Helvetica,sans-Serif" font-size="10.00">/transform.h</text>
</a>
</g>
</g>
<!-- Node2 -->
<g id="Node000002" class="node">
<title>Node2</title>
<g id="a_Node000002"><a xlink:href="common_2canvas3d_8h.html" target="_top" xlink:title=" ">
<polygon fill="white" stroke="#666666" points="583.5,-437 436.5,-437 436.5,-407 583.5,-407 583.5,-437"/>
<text text-anchor="start" x="444.5" y="-425" font-family="Helvetica,sans-Serif" font-size="10.00">include/webcface/common</text>
<text text-anchor="middle" x="510" y="-414" font-family="Helvetica,sans-Serif" font-size="10.00">/canvas3d.h</text>
</a>
</g>
</g>
<!-- Node1&#45;&gt;Node2 -->
<g id="edge1_Node000001_Node000002" class="edge">
<title>Node1&#45;&gt;Node2</title>
<g id="a_edge1_Node000001_Node000002"><a xlink:title=" ">
<path fill="none" stroke="#63b8ff" d="M289.77,-470.78C337.79,-460.36 399.53,-446.97 445.41,-437.01"/>
<polygon fill="#63b8ff" stroke="#63b8ff" points="288.77,-467.41 279.74,-472.95 290.25,-474.26 288.77,-467.41"/>
</a>
</g>
</g>
<!-- Node27 -->
<g id="Node000027" class="node">
<title>Node27</title>
<g id="a_Node000027"><a xlink:href="webcface_8h.html" target="_top" xlink:title=" ">
<polygon fill="white" stroke="#666666" points="194,-74 34,-74 34,-55 194,-55 194,-74"/>
<text text-anchor="middle" x="114" y="-62" font-family="Helvetica,sans-Serif" font-size="10.00">include/webcface/webcface.h</text>
</a>
</g>
</g>
<!-- Node1&#45;&gt;Node27 -->
<g id="edge73_Node000001_Node000027" class="edge">
<title>Node1&#45;&gt;Node27</title>
<g id="a_edge73_Node000001_Node000027"><a xlink:title=" ">
<path fill="none" stroke="#63b8ff" d="M131.34,-471.26C70.95,-454.5 0,-421.15 0,-357 0,-357 0,-357 0,-173.5 0,-122.93 59.86,-88.94 92.82,-74.05"/>
<polygon fill="#63b8ff" stroke="#63b8ff" points="130.75,-474.73 141.31,-473.91 132.54,-467.96 130.75,-474.73"/>
</a>
</g>
</g>
<!-- Node3 -->
<g id="Node000003" class="node">
<title>Node3</title>
<g id="a_Node000003"><a xlink:href="client__internal_8h.html" target="_top" xlink:title=" ">
<polygon fill="white" stroke="#666666" points="1084.5,-184 959.5,-184 959.5,-165 1084.5,-165 1084.5,-184"/>
<text text-anchor="middle" x="1022" y="-172" font-family="Helvetica,sans-Serif" font-size="10.00">client/client_internal.h</text>
</a>
</g>
</g>
<!-- Node2&#45;&gt;Node3 -->
<g id="edge2_Node000002_Node000003" class="edge">
<title>Node2&#45;&gt;Node3</title>
<g id="a_edge2_Node000002_Node000003"><a xlink:title=" ">
<path fill="none" stroke="#63b8ff" d="M552.21,-402.79C573.52,-393.48 599.73,-381.84 623,-371 772.28,-301.43 950.08,-211.93 1005,-184.12"/>
<polygon fill="#63b8ff" stroke="#63b8ff" points="550.56,-399.69 542.79,-406.89 553.35,-406.11 550.56,-399.69"/>
</a>
</g>
</g>
<!-- Node18 -->
<g id="Node000018" class="node">
<title>Node18</title>
<g id="a_Node000018"><a xlink:href="data__store2_8h.html" target="_top" xlink:title=" ">
<polygon fill="white" stroke="#666666" points="760.5,-239 647.5,-239 647.5,-220 760.5,-220 760.5,-239"/>
<text text-anchor="middle" x="704" y="-227" font-family="Helvetica,sans-Serif" font-size="10.00">client/data_store2.h</text>
</a>
</g>
</g>
<!-- Node2&#45;&gt;Node18 -->
<g id="edge17_Node000002_Node000018" class="edge">
<title>Node2&#45;&gt;Node18</title>
<g id="a_edge17_Node000002_Node000018"><a xlink:title=" ">
<path fill="none" stroke="#63b8ff" d="M546.39,-401.89C561.42,-393.29 578.65,-382.5 593,-371 624.65,-345.65 630.91,-336.85 656,-305 673.71,-282.52 691.02,-253.38 699.17,-239.12"/>
<polygon fill="#63b8ff" stroke="#63b8ff" points="544.37,-399 537.36,-406.94 547.79,-405.11 544.37,-399"/>
</a>
</g>
</g>
<!-- Node20 -->
<g id="Node000020" class="node">
<title>Node20</title>
<g id="a_Node000020"><a xlink:href="canvas3d_8h.html" target="_top" xlink:title=" ">
<polygon fill="white" stroke="#666666" points="264,-239 104,-239 104,-220 264,-220 264,-239"/>
<text text-anchor="middle" x="184" y="-227" font-family="Helvetica,sans-Serif" font-size="10.00">include/webcface/canvas3d.h</text>
</a>
</g>
</g>
<!-- Node2&#45;&gt;Node20 -->
<g id="edge20_Node000002_Node000020" class="edge">
<title>Node2&#45;&gt;Node20</title>
<g id="a_edge20_Node000002_Node000020"><a xlink:title=" ">
<path fill="none" stroke="#63b8ff" d="M468.03,-402.8C420.89,-381.68 342.78,-344.67 280,-305 246.65,-283.93 210.8,-253.89 193.89,-239.23"/>
<polygon fill="#63b8ff" stroke="#63b8ff" points="466.75,-406.06 477.31,-406.93 469.6,-399.67 466.75,-406.06"/>
</a>
</g>
</g>
<!-- Node2&#45;&gt;Node27 -->
<g id="edge71_Node000002_Node000027" class="edge">
<title>Node2&#45;&gt;Node27</title>
<g id="a_edge71_Node000002_Node000027"><a xlink:title=" ">
<path fill="none" stroke="#63b8ff" d="M425.89,-415.1C290.19,-403.25 38,-370.52 38,-291 38,-291 38,-291 38,-173.5 38,-129.48 80.75,-90.74 102.12,-74.12"/>
<polygon fill="#63b8ff" stroke="#63b8ff" points="425.99,-418.62 436.25,-415.99 426.58,-411.65 425.99,-418.62"/>
</a>
</g>
</g>
<!-- Node28 -->
<g id="Node000028" class="node">
<title>Node28</title>
<g id="a_Node000028"><a xlink:href="common_2robot__model_8h.html" target="_top" xlink:title=" ">
<polygon fill="white" stroke="#666666" points="583.5,-371 436.5,-371 436.5,-341 583.5,-341 583.5,-371"/>
<text text-anchor="start" x="444.5" y="-359" font-family="Helvetica,sans-Serif" font-size="10.00">include/webcface/common</text>
<text text-anchor="middle" x="510" y="-348" font-family="Helvetica,sans-Serif" font-size="10.00">/robot_model.h</text>
</a>
</g>
</g>
<!-- Node2&#45;&gt;Node28 -->
<g id="edge37_Node000002_Node000028" class="edge">
<title>Node2&#45;&gt;Node28</title>
<g id="a_edge37_Node000002_Node000028"><a xlink:title=" ">
<path fill="none" stroke="#63b8ff" d="M510,-396.54C510,-387.96 510,-378.61 510,-371.16"/>
<polygon fill="#63b8ff" stroke="#63b8ff" points="506.5,-396.8 510,-406.8 513.5,-396.8 506.5,-396.8"/>
</a>
</g>
</g>
<!-- Node30 -->
<g id="Node000030" class="node">
<title>Node30</title>
<g id="a_Node000030"><a xlink:href="message_8h.html" target="_top" xlink:title=" ">
<polygon fill="white" stroke="#666666" points="1410.5,-299.5 1293.5,-299.5 1293.5,-280.5 1410.5,-280.5 1410.5,-299.5"/>
<text text-anchor="middle" x="1352" y="-287.5" font-family="Helvetica,sans-Serif" font-size="10.00">message/message.h</text>
</a>
</g>
</g>
<!-- Node2&#45;&gt;Node30 -->
<g id="edge72_Node000002_Node000030" class="edge">
<title>Node2&#45;&gt;Node30</title>
<g id="a_edge72_Node000002_Node000030"><a xlink:title=" ">
<path fill="none" stroke="#63b8ff" d="M593.97,-415.56C691.89,-408.49 858.39,-394.23 1000,-371 1119.36,-351.42 1258.81,-315.89 1320.22,-299.59"/>
<polygon fill="#63b8ff" stroke="#63b8ff" points="593.56,-412.08 583.84,-416.28 594.06,-419.06 593.56,-412.08"/>
</a>
</g>
</g>
<!-- Node4 -->
<g id="Node000004" class="node">
<title>Node4</title>
<g id="a_Node000004"><a xlink:href="canvas3d_8cc.html" target="_top" xlink:title=" ">
<polygon fill="white" stroke="#666666" points="483.5,-129 376.5,-129 376.5,-110 483.5,-110 483.5,-129"/>
<text text-anchor="middle" x="430" y="-117" font-family="Helvetica,sans-Serif" font-size="10.00">client/canvas3d.cc</text>
</a>
</g>
</g>
<!-- Node3&#45;&gt;Node4 -->
<g id="edge3_Node000003_Node000004" class="edge">
<title>Node3&#45;&gt;Node4</title>
<g id="a_edge3_Node000003_Node000004"><a xlink:title=" ">
<path fill="none" stroke="#63b8ff" d="M948.99,-168.52C846.85,-161.29 655.54,-146.79 493,-129 489.93,-128.66 486.77,-128.3 483.59,-127.92"/>
<polygon fill="#63b8ff" stroke="#63b8ff" points="948.98,-172.03 959.2,-169.24 949.47,-165.05 948.98,-172.03"/>
</a>
</g>
</g>
<!-- Node5 -->
<g id="Node000005" class="node">
<title>Node5</title>
<g id="a_Node000005"><a xlink:href="client_2client_8cc.html" target="_top" xlink:title=" ">
<polygon fill="white" stroke="#666666" points="1300.5,-74 1213.5,-74 1213.5,-55 1300.5,-55 1300.5,-74"/>
<text text-anchor="middle" x="1257" y="-62" font-family="Helvetica,sans-Serif" font-size="10.00">client/client.cc</text>
</a>
</g>
</g>
<!-- Node3&#45;&gt;Node5 -->
<g id="edge4_Node000003_Node000005" class="edge">
<title>Node3&#45;&gt;Node5</title>
<g id="a_edge4_Node000003_Node000005"><a xlink:title=" ">
<path fill="none" stroke="#63b8ff" d="M1094.57,-165.67C1147.1,-158.66 1212.34,-146.71 1233,-129 1249.46,-114.89 1254.66,-88.26 1256.28,-74.39"/>
<polygon fill="#63b8ff" stroke="#63b8ff" points="1094.05,-162.21 1084.59,-166.97 1094.96,-169.15 1094.05,-162.21"/>
</a>
</g>
</g>
<!-- Node6 -->
<g id="Node000006" class="node">
<title>Node6</title>
<g id="a_Node000006"><a xlink:href="client__ws_8cc.html" target="_top" xlink:title=" ">
<polygon fill="white" stroke="#666666" points="836,-74 730,-74 730,-55 836,-55 836,-74"/>
<text text-anchor="middle" x="783" y="-62" font-family="Helvetica,sans-Serif" font-size="10.00">client/client_ws.cc</text>
</a>
</g>
</g>
<!-- Node3&#45;&gt;Node6 -->
<g id="edge5_Node000003_Node000006" class="edge">
<title>Node3&#45;&gt;Node6</title>
<g id="a_edge5_Node000003_Node000006"><a xlink:title=" ">
<path fill="none" stroke="#63b8ff" d="M1094.61,-169.74C1158,-163.85 1234.82,-148.74 1200,-110 1176.09,-83.4 943.2,-71.42 836.23,-67.28"/>
<polygon fill="#63b8ff" stroke="#63b8ff" points="1094.24,-166.26 1084.57,-170.61 1094.84,-173.24 1094.24,-166.26"/>
</a>
</g>
</g>
<!-- Node7 -->
<g id="Node000007" class="node">
<title>Node7</title>
<g id="a_Node000007"><a xlink:href="field_8cc.html" target="_top" xlink:title=" ">
<polygon fill="white" stroke="#666666" points="802.5,-129 721.5,-129 721.5,-110 802.5,-110 802.5,-129"/>
<text text-anchor="middle" x="762" y="-117" font-family="Helvetica,sans-Serif" font-size="10.00">client/field.cc</text>
</a>
</g>
</g>
<!-- Node3&#45;&gt;Node7 -->
<g id="edge6_Node000003_Node000007" class="edge">
<title>Node3&#45;&gt;Node7</title>
<g id="a_edge6_Node000003_Node000007"><a xlink:title=" ">
<path fill="none" stroke="#63b8ff" d="M970.41,-162.98C921.21,-152.95 848.08,-138.05 802.81,-128.82"/>
<polygon fill="#63b8ff" stroke="#63b8ff" points="969.73,-166.42 980.23,-164.98 971.13,-159.56 969.73,-166.42"/>
</a>
</g>
</g>
<!-- Node8 -->
<g id="Node000008" class="node">
<title>Node8</title>
<g id="a_Node000008"><a xlink:href="client_2func_8cc.html" target="_top" xlink:title=" ">
<polygon fill="white" stroke="#666666" points="1663.5,-129 1582.5,-129 1582.5,-110 1663.5,-110 1663.5,-129"/>
<text text-anchor="middle" x="1623" y="-117" font-family="Helvetica,sans-Serif" font-size="10.00">client/func.cc</text>
</a>
</g>
</g>
<!-- Node3&#45;&gt;Node8 -->
<g id="edge7_Node000003_Node000008" class="edge">
<title>Node3&#45;&gt;Node8</title>
<g id="a_edge7_Node000003_Node000008"><a xlink:title=" ">
<path fill="none" stroke="#63b8ff" d="M1094.94,-169.75C1200.79,-163.82 1403,-150.68 1574,-129 1576.74,-128.65 1579.56,-128.26 1582.4,-127.84"/>
<polygon fill="#63b8ff" stroke="#63b8ff" points="1094.48,-166.27 1084.69,-170.31 1094.87,-173.26 1094.48,-166.27"/>
</a>
</g>
</g>
<!-- Node9 -->
<g id="Node000009" class="node">
<title>Node9</title>
<g id="a_Node000009"><a xlink:href="func__listener_8cc.html" target="_top" xlink:title=" ">
<polygon fill="white" stroke="#666666" points="1083,-129 961,-129 961,-110 1083,-110 1083,-129"/>
<text text-anchor="middle" x="1022" y="-117" font-family="Helvetica,sans-Serif" font-size="10.00">client/func_listener.cc</text>
</a>
</g>
</g>
<!-- Node3&#45;&gt;Node9 -->
<g id="edge8_Node000003_Node000009" class="edge">
<title>Node3&#45;&gt;Node9</title>
<g id="a_edge8_Node000003_Node000009"><a xlink:title=" ">
<path fill="none" stroke="#63b8ff" d="M1022,-154.66C1022,-145.93 1022,-135.99 1022,-129.09"/>
<polygon fill="#63b8ff" stroke="#63b8ff" points="1018.5,-154.75 1022,-164.75 1025.5,-154.75 1018.5,-154.75"/>
</a>
</g>
</g>
<!-- Node10 -->
<g id="Node000010" class="node">
<title>Node10</title>
<g id="a_Node000010"><a xlink:href="image_8cc.html" target="_top" xlink:title=" ">
<polygon fill="white" stroke="#666666" points="1772.5,-129 1681.5,-129 1681.5,-110 1772.5,-110 1772.5,-129"/>
<text text-anchor="middle" x="1727" y="-117" font-family="Helvetica,sans-Serif" font-size="10.00">client/image.cc</text>
</a>
</g>
</g>
<!-- Node3&#45;&gt;Node10 -->
<g id="edge9_Node000003_Node000010" class="edge">
<title>Node3&#45;&gt;Node10</title>
<g id="a_edge9_Node000003_Node000010"><a xlink:title=" ">
<path fill="none" stroke="#63b8ff" d="M1094.76,-170.62C1215.28,-165.37 1463.8,-152.57 1673,-129 1675.73,-128.69 1678.54,-128.34 1681.37,-127.97"/>
<polygon fill="#63b8ff" stroke="#63b8ff" points="1094.39,-167.13 1084.55,-171.05 1094.69,-174.12 1094.39,-167.13"/>
</a>
</g>
</g>
<!-- Node11 -->
<g id="Node000011" class="node">
<title>Node11</title>
<g id="a_Node000011"><a xlink:href="log_8cc.html" target="_top" xlink:title=" ">
<polygon fill="white" stroke="#666666" points="1360.5,-129 1285.5,-129 1285.5,-110 1360.5,-110 1360.5,-129"/>
<text text-anchor="middle" x="1323" y="-117" font-family="Helvetica,sans-Serif" font-size="10.00">client/log.cc</text>
</a>
</g>
</g>
<!-- Node3&#45;&gt;Node11 -->
<g id="edge10_Node000003_Node000011" class="edge">
<title>Node3&#45;&gt;Node11</title>
<g id="a_edge10_Node000003_Node000011"><a xlink:title=" ">
<path fill="none" stroke="#63b8ff" d="M1080.53,-163.19C1141.05,-152.54 1233.76,-136.21 1285.24,-127.15"/>
<polygon fill="#63b8ff" stroke="#63b8ff" points="1079.6,-159.8 1070.36,-164.98 1080.82,-166.7 1079.6,-159.8"/>
</a>
</g>
</g>
<!-- Node12 -->
<g id="Node000012" class="node">
<title>Node12</title>
<g id="a_Node000012"><a xlink:href="logger_8cc.html" target="_top" xlink:title=" ">
<polygon fill="white" stroke="#666666" points="1191,-129 1101,-129 1101,-110 1191,-110 1191,-129"/>
<text text-anchor="middle" x="1146" y="-117" font-family="Helvetica,sans-Serif" font-size="10.00">client/logger.cc</text>
</a>
</g>
</g>
<!-- Node3&#45;&gt;Node12 -->
<g id="edge11_Node000003_Node000012" class="edge">
<title>Node3&#45;&gt;Node12</title>
<g id="a_edge11_Node000003_Node000012"><a xlink:title=" ">
<path fill="none" stroke="#63b8ff" d="M1051.18,-161.03C1074.11,-151.23 1105.45,-137.83 1125.71,-129.17"/>
<polygon fill="#63b8ff" stroke="#63b8ff" points="1049.74,-157.84 1041.92,-164.98 1052.49,-164.27 1049.74,-157.84"/>
</a>
</g>
</g>
<!-- Node13 -->
<g id="Node000013" class="node">
<title>Node13</title>
<g id="a_Node000013"><a xlink:href="member_8cc.html" target="_top" xlink:title=" ">
<polygon fill="white" stroke="#666666" points="703.5,-129 602.5,-129 602.5,-110 703.5,-110 703.5,-129"/>
<text text-anchor="middle" x="653" y="-117" font-family="Helvetica,sans-Serif" font-size="10.00">client/member.cc</text>
</a>
</g>
</g>
<!-- Node3&#45;&gt;Node13 -->
<g id="edge12_Node000003_Node000013" class="edge">
<title>Node3&#45;&gt;Node13</title>
<g id="a_edge12_Node000003_Node000013"><a xlink:title=" ">
<path fill="none" stroke="#63b8ff" d="M952.75,-163.55C880.25,-153.14 768.13,-137.04 703.54,-127.76"/>
<polygon fill="#63b8ff" stroke="#63b8ff" points="952.32,-167.03 962.71,-164.98 953.31,-160.1 952.32,-167.03"/>
</a>
</g>
</g>
<!-- Node14 -->
<g id="Node000014" class="node">
<title>Node14</title>
<g id="a_Node000014"><a xlink:href="robot__model_8cc.html" target="_top" xlink:title=" ">
<polygon fill="white" stroke="#666666" points="943,-129 821,-129 821,-110 943,-110 943,-129"/>
<text text-anchor="middle" x="882" y="-117" font-family="Helvetica,sans-Serif" font-size="10.00">client/robot_model.cc</text>
</a>
</g>
</g>
<!-- Node3&#45;&gt;Node14 -->
<g id="edge13_Node000003_Node000014" class="edge">
<title>Node3&#45;&gt;Node14</title>
<g id="a_edge13_Node000003_Node000014"><a xlink:title=" ">
<path fill="none" stroke="#63b8ff" d="M990.09,-161.42C964.12,-151.59 928.08,-137.95 904.9,-129.17"/>
<polygon fill="#63b8ff" stroke="#63b8ff" points="988.92,-164.72 999.51,-164.98 991.39,-158.17 988.92,-164.72"/>
</a>
</g>
</g>
<!-- Node15 -->
<g id="Node000015" class="node">
<title>Node15</title>
<g id="a_Node000015"><a xlink:href="text_8cc.html" target="_top" xlink:title=" ">
<polygon fill="white" stroke="#666666" points="1459,-129 1379,-129 1379,-110 1459,-110 1459,-129"/>
<text text-anchor="middle" x="1419" y="-117" font-family="Helvetica,sans-Serif" font-size="10.00">client/text.cc</text>
</a>
</g>
</g>
<!-- Node3&#45;&gt;Node15 -->
<g id="edge14_Node000003_Node000015" class="edge">
<title>Node3&#45;&gt;Node15</title>
<g id="a_edge14_Node000003_Node000015"><a xlink:title=" ">
<path fill="none" stroke="#63b8ff" d="M1094.78,-165.15C1165.27,-156.84 1275.14,-143.29 1370,-129 1372.9,-128.56 1375.9,-128.09 1378.91,-127.6"/>
<polygon fill="#63b8ff" stroke="#63b8ff" points="1094.19,-161.7 1084.67,-166.34 1095.01,-168.65 1094.19,-161.7"/>
</a>
</g>
</g>
<!-- Node16 -->
<g id="Node000016" class="node">
<title>Node16</title>
<g id="a_Node000016"><a xlink:href="client_2value_8cc.html" target="_top" xlink:title=" ">
<polygon fill="white" stroke="#666666" points="1564.5,-129 1477.5,-129 1477.5,-110 1564.5,-110 1564.5,-129"/>
<text text-anchor="middle" x="1521" y="-117" font-family="Helvetica,sans-Serif" font-size="10.00">client/value.cc</text>
</a>
</g>
</g>
<!-- Node3&#45;&gt;Node16 -->
<g id="edge15_Node000003_Node000016" class="edge">
<title>Node3&#45;&gt;Node16</title>
<g id="a_edge15_Node000003_Node000016"><a xlink:title=" ">
<path fill="none" stroke="#63b8ff" d="M1094.74,-167.58C1183.15,-160.08 1336.8,-146.05 1468,-129 1471.05,-128.6 1474.19,-128.17 1477.36,-127.71"/>
<polygon fill="#63b8ff" stroke="#63b8ff" points="1094.22,-164.11 1084.55,-168.44 1094.81,-171.09 1094.22,-164.11"/>
</a>
</g>
</g>
<!-- Node17 -->
<g id="Node000017" class="node">
<title>Node17</title>
<g id="a_Node000017"><a xlink:href="view_8cc.html" target="_top" xlink:title=" ">
<polygon fill="white" stroke="#666666" points="584.5,-129 501.5,-129 501.5,-110 584.5,-110 584.5,-129"/>
<text text-anchor="middle" x="543" y="-117" font-family="Helvetica,sans-Serif" font-size="10.00">client/view.cc</text>
</a>
</g>
</g>
<!-- Node3&#45;&gt;Node17 -->
<g id="edge16_Node000003_Node000017" class="edge">
<title>Node3&#45;&gt;Node17</title>
<g id="a_edge16_Node000003_Node000017"><a xlink:title=" ">
<path fill="none" stroke="#63b8ff" d="M949.39,-167.32C864.12,-159.75 718.5,-145.83 594,-129 590.98,-128.59 587.85,-128.14 584.72,-127.67"/>
<polygon fill="#63b8ff" stroke="#63b8ff" points="949.21,-170.82 959.48,-168.21 949.83,-163.85 949.21,-170.82"/>
</a>
</g>
</g>
<!-- Node18&#45;&gt;Node3 -->
<g id="edge18_Node000018_Node000003" class="edge">
<title>Node18&#45;&gt;Node3</title>
<g id="a_edge18_Node000018_Node000003"><a xlink:title=" ">
<path fill="none" stroke="#63b8ff" d="M765.14,-218.31C824.86,-208.36 914.7,-193.38 970.77,-184.04"/>
<polygon fill="#63b8ff" stroke="#63b8ff" points="764.38,-214.89 755.09,-219.98 765.53,-221.79 764.38,-214.89"/>
</a>
</g>
</g>
<!-- Node19 -->
<g id="Node000019" class="node">
<title>Node19</title>
<g id="a_Node000019"><a xlink:href="data__store2_8cc.html" target="_top" xlink:title=" ">
<polygon fill="white" stroke="#666666" points="763,-184 645,-184 645,-165 763,-165 763,-184"/>
<text text-anchor="middle" x="704" y="-172" font-family="Helvetica,sans-Serif" font-size="10.00">client/data_store2.cc</text>
</a>
</g>
</g>
<!-- Node18&#45;&gt;Node19 -->
<g id="edge19_Node000018_Node000019" class="edge">
<title>Node18&#45;&gt;Node19</title>
<g id="a_edge19_Node000018_Node000019"><a xlink:title=" ">
<path fill="none" stroke="#63b8ff" d="M704,-209.66C704,-200.93 704,-190.99 704,-184.09"/>
<polygon fill="#63b8ff" stroke="#63b8ff" points="700.5,-209.75 704,-219.75 707.5,-209.75 700.5,-209.75"/>
</a>
</g>
</g>
<!-- Node20&#45;&gt;Node4 -->
<g id="edge21_Node000020_Node000004" class="edge">
<title>Node20&#45;&gt;Node4</title>
<g id="a_edge21_Node000020_Node000004"><a xlink:title=" ">
<path fill="none" stroke="#63b8ff" d="M213.14,-215.71C263.96,-193.4 367.47,-147.95 410.53,-129.05"/>
<polygon fill="#63b8ff" stroke="#63b8ff" points="211.46,-212.62 203.72,-219.84 214.28,-219.03 211.46,-212.62"/>
</a>
</g>
</g>
<!-- Node21 -->
<g id="Node000021" class="node">
<title>Node21</title>
<g id="a_Node000021"><a xlink:href="member_8h.html" target="_top" xlink:title=" ">
<polygon fill="white" stroke="#666666" points="507,-184 353,-184 353,-165 507,-165 507,-184"/>
<text text-anchor="middle" x="430" y="-172" font-family="Helvetica,sans-Serif" font-size="10.00">include/webcface/member.h</text>
</a>
</g>
</g>
<!-- Node20&#45;&gt;Node21 -->
<g id="edge22_Node000020_Node000021" class="edge">
<title>Node20&#45;&gt;Node21</title>
<g id="a_edge22_Node000020_Node000021"><a xlink:title=" ">
<path fill="none" stroke="#63b8ff" d="M233.3,-217.88C279.41,-207.94 347.4,-193.3 390.17,-184.08"/>
<polygon fill="#63b8ff" stroke="#63b8ff" points="232.56,-214.46 223.52,-219.98 234.04,-221.3 232.56,-214.46"/>
</a>
</g>
</g>
<!-- Node20&#45;&gt;Node27 -->
<g id="edge36_Node000020_Node000027" class="edge">
<title>Node20&#45;&gt;Node27</title>
<g id="a_edge36_Node000020_Node000027"><a xlink:title=" ">
<path fill="none" stroke="#63b8ff" d="M175.33,-210.77C165.78,-191 150.16,-157.99 138,-129 129.88,-109.66 121.45,-86.51 117.07,-74.21"/>
<polygon fill="#63b8ff" stroke="#63b8ff" points="172.21,-212.34 179.73,-219.81 178.5,-209.29 172.21,-212.34"/>
</a>
</g>
</g>
<!-- Node21&#45;&gt;Node4 -->
<g id="edge23_Node000021_Node000004" class="edge">
<title>Node21&#45;&gt;Node4</title>
<g id="a_edge23_Node000021_Node000004"><a xlink:title=" ">
<path fill="none" stroke="#63b8ff" d="M430,-154.66C430,-145.93 430,-135.99 430,-129.09"/>
<polygon fill="#63b8ff" stroke="#63b8ff" points="426.5,-154.75 430,-164.75 433.5,-154.75 426.5,-154.75"/>
</a>
</g>
</g>
<!-- Node21&#45;&gt;Node7 -->
<g id="edge24_Node000021_Node000007" class="edge">
<title>Node21&#45;&gt;Node7</title>
<g id="a_edge24_Node000021_Node000007"><a xlink:title=" ">
<path fill="none" stroke="#63b8ff" d="M495.91,-163.44C553.3,-154.6 638.7,-141.28 713,-129 715.73,-128.55 718.54,-128.08 721.37,-127.6"/>
<polygon fill="#63b8ff" stroke="#63b8ff" points="495.24,-160 485.89,-164.98 496.3,-166.92 495.24,-160"/>
</a>
</g>
</g>
<!-- Node21&#45;&gt;Node13 -->
<g id="edge25_Node000021_Node000013" class="edge">
<title>Node21&#45;&gt;Node13</title>
<g id="a_edge25_Node000021_Node000013"><a xlink:title=" ">
<path fill="none" stroke="#63b8ff" d="M475.75,-162.63C517.52,-152.7 578.45,-138.22 616.89,-129.08"/>
<polygon fill="#63b8ff" stroke="#63b8ff" points="474.75,-159.27 465.83,-164.98 476.37,-166.08 474.75,-159.27"/>
</a>
</g>
</g>
<!-- Node21&#45;&gt;Node17 -->
<g id="edge26_Node000021_Node000017" class="edge">
<title>Node21&#45;&gt;Node17</title>
<g id="a_edge26_Node000021_Node000017"><a xlink:title=" ">
<path fill="none" stroke="#63b8ff" d="M457.43,-160.63C478.25,-150.87 506.3,-137.71 524.51,-129.17"/>
<polygon fill="#63b8ff" stroke="#63b8ff" points="455.72,-157.57 448.16,-164.98 458.7,-163.91 455.72,-157.57"/>
</a>
</g>
</g>
<!-- Node22 -->
<g id="Node000022" class="node">
<title>Node22</title>
<g id="a_Node000022"><a xlink:href="client_8h.html" target="_top" xlink:title=" ">
<polygon fill="white" stroke="#666666" points="358,-129 218,-129 218,-110 358,-110 358,-129"/>
<text text-anchor="middle" x="288" y="-117" font-family="Helvetica,sans-Serif" font-size="10.00">include/webcface/client.h</text>
</a>
</g>
</g>
<!-- Node21&#45;&gt;Node22 -->
<g id="edge27_Node000021_Node000022" class="edge">
<title>Node21&#45;&gt;Node22</title>
<g id="a_edge27_Node000021_Node000022"><a xlink:title=" ">
<path fill="none" stroke="#63b8ff" d="M397.64,-161.42C371.29,-151.59 334.74,-137.95 311.23,-129.17"/>
<polygon fill="#63b8ff" stroke="#63b8ff" points="396.59,-164.77 407.19,-164.98 399.04,-158.21 396.59,-164.77"/>
</a>
</g>
</g>
<!-- Node21&#45;&gt;Node27 -->
<g id="edge35_Node000021_Node000027" class="edge">
<title>Node21&#45;&gt;Node27</title>
<g id="a_edge35_Node000021_Node000027"><a xlink:title=" ">
<path fill="none" stroke="#63b8ff" d="M342.79,-163.95C301.16,-157.4 251.32,-146.59 209,-129 175.11,-114.91 140.59,-88.02 124.05,-74.19"/>
<polygon fill="#63b8ff" stroke="#63b8ff" points="342.5,-167.45 352.91,-165.49 343.55,-160.53 342.5,-167.45"/>
</a>
</g>
</g>
<!-- Node22&#45;&gt;Node5 -->
<g id="edge32_Node000022_Node000005" class="edge">
<title>Node22&#45;&gt;Node5</title>
<g id="a_edge32_Node000022_Node000005"><a xlink:title=" ">
<path fill="none" stroke="#63b8ff" d="M368.51,-110.01C700.32,-84.39 1085.68,-70.87 1213.47,-66.82"/>
<polygon fill="#63b8ff" stroke="#63b8ff" points="367.92,-106.55 358.22,-110.82 368.46,-113.53 367.92,-106.55"/>
</a>
</g>
</g>
<!-- Node22&#45;&gt;Node6 -->
<g id="edge33_Node000022_Node000006" class="edge">
<title>Node22&#45;&gt;Node6</title>
<g id="a_edge33_Node000022_Node000006"><a xlink:title=" ">
<path fill="none" stroke="#63b8ff" d="M368.37,-109.89C470.25,-98.99 643.04,-80.49 729.86,-71.19"/>
<polygon fill="#63b8ff" stroke="#63b8ff" points="367.7,-106.45 358.13,-110.99 368.45,-113.41 367.7,-106.45"/>
</a>
</g>
</g>
<!-- Node23 -->
<g id="Node000023" class="node">
<title>Node23</title>
<g id="a_Node000023"><a xlink:href="c__wcf__internal_8h.html" target="_top" xlink:title=" ">
<polygon fill="white" stroke="#666666" points="351.5,-74 224.5,-74 224.5,-55 351.5,-55 351.5,-74"/>
<text text-anchor="middle" x="288" y="-62" font-family="Helvetica,sans-Serif" font-size="10.00">c_wcf/c_wcf_internal.h</text>
</a>
</g>
</g>
<!-- Node22&#45;&gt;Node23 -->
<g id="edge28_Node000022_Node000023" class="edge">
<title>Node22&#45;&gt;Node23</title>
<g id="a_edge28_Node000022_Node000023"><a xlink:title=" ">
<path fill="none" stroke="#63b8ff" d="M288,-99.66C288,-90.93 288,-80.99 288,-74.09"/>
<polygon fill="#63b8ff" stroke="#63b8ff" points="284.5,-99.75 288,-109.75 291.5,-99.75 284.5,-99.75"/>
</a>
</g>
</g>
<!-- Node22&#45;&gt;Node27 -->
<g id="edge34_Node000022_Node000027" class="edge">
<title>Node22&#45;&gt;Node27</title>
<g id="a_edge34_Node000022_Node000027"><a xlink:title=" ">
<path fill="none" stroke="#63b8ff" d="M250.43,-107.06C217.91,-97.15 171.6,-83.04 142.18,-74.08"/>
<polygon fill="#63b8ff" stroke="#63b8ff" points="249.46,-110.42 260.04,-109.98 251.5,-103.72 249.46,-110.42"/>
</a>
</g>
</g>
<!-- Node24 -->
<g id="Node000024" class="node">
<title>Node24</title>
<g id="a_Node000024"><a xlink:href="c__wcf_2client_8cc.html" target="_top" xlink:title=" ">
<polygon fill="white" stroke="#666666" points="229,-19 141,-19 141,0 229,0 229,-19"/>
<text text-anchor="middle" x="185" y="-7" font-family="Helvetica,sans-Serif" font-size="10.00">c_wcf/client.cc</text>
</a>
</g>
</g>
<!-- Node23&#45;&gt;Node24 -->
<g id="edge29_Node000023_Node000024" class="edge">
<title>Node23&#45;&gt;Node24</title>
<g id="a_edge29_Node000023_Node000024"><a xlink:title=" ">
<path fill="none" stroke="#63b8ff" d="M262.48,-50.37C243.56,-40.63 218.3,-27.64 201.85,-19.17"/>
<polygon fill="#63b8ff" stroke="#63b8ff" points="260.96,-53.52 271.45,-54.98 264.16,-47.3 260.96,-53.52"/>
</a>
</g>
</g>
<!-- Node25 -->
<g id="Node000025" class="node">
<title>Node25</title>
<g id="a_Node000025"><a xlink:href="c__wcf_2func_8cc.html" target="_top" xlink:title=" ">
<polygon fill="white" stroke="#666666" points="329,-19 247,-19 247,0 329,0 329,-19"/>
<text text-anchor="middle" x="288" y="-7" font-family="Helvetica,sans-Serif" font-size="10.00">c_wcf/func.cc</text>
</a>
</g>
</g>
<!-- Node23&#45;&gt;Node25 -->
<g id="edge30_Node000023_Node000025" class="edge">
<title>Node23&#45;&gt;Node25</title>
<g id="a_edge30_Node000023_Node000025"><a xlink:title=" ">
<path fill="none" stroke="#63b8ff" d="M288,-44.66C288,-35.93 288,-25.99 288,-19.09"/>
<polygon fill="#63b8ff" stroke="#63b8ff" points="284.5,-44.75 288,-54.75 291.5,-44.75 284.5,-44.75"/>
</a>
</g>
</g>
<!-- Node26 -->
<g id="Node000026" class="node">
<title>Node26</title>
<g id="a_Node000026"><a xlink:href="c__wcf_2value_8cc.html" target="_top" xlink:title=" ">
<polygon fill="white" stroke="#666666" points="435,-19 347,-19 347,0 435,0 435,-19"/>
<text text-anchor="middle" x="391" y="-7" font-family="Helvetica,sans-Serif" font-size="10.00">c_wcf/value.cc</text>
</a>
</g>
</g>
<!-- Node23&#45;&gt;Node26 -->
<g id="edge31_Node000023_Node000026" class="edge">
<title>Node23&#45;&gt;Node26</title>
<g id="a_edge31_Node000023_Node000026"><a xlink:title=" ">
<path fill="none" stroke="#63b8ff" d="M313.52,-50.37C332.44,-40.63 357.7,-27.64 374.15,-19.17"/>
<polygon fill="#63b8ff" stroke="#63b8ff" points="311.84,-47.3 304.55,-54.98 315.04,-53.52 311.84,-47.3"/>
</a>
</g>
</g>
<!-- Node28&#45;&gt;Node3 -->
<g id="edge38_Node000028_Node000003" class="edge">
<title>Node28&#45;&gt;Node3</title>
<g id="a_edge38_Node000028_Node000003"><a xlink:title=" ">
<path fill="none" stroke="#63b8ff" d="M524.11,-332.41C544.97,-301.18 587.23,-245.77 639,-220 693.76,-192.74 865.51,-181.72 959.32,-177.65"/>
<polygon fill="#63b8ff" stroke="#63b8ff" points="521.1,-330.61 518.56,-340.9 526.96,-334.44 521.1,-330.61"/>
</a>
</g>
</g>
<!-- Node28&#45;&gt;Node18 -->
<g id="edge39_Node000028_Node000018" class="edge">
<title>Node28&#45;&gt;Node18</title>
<g id="a_edge39_Node000028_Node000018"><a xlink:title=" ">
<path fill="none" stroke="#63b8ff" d="M560.26,-337.22C580.83,-328.88 604.36,-317.91 624,-305 653.81,-285.4 682.98,-254.41 696.38,-239.33"/>
<polygon fill="#63b8ff" stroke="#63b8ff" points="558.75,-334.06 550.73,-340.99 561.32,-340.57 558.75,-334.06"/>
</a>
</g>
</g>
<!-- Node28&#45;&gt;Node20 -->
<g id="edge40_Node000028_Node000020" class="edge">
<title>Node28&#45;&gt;Node20</title>
<g id="a_edge40_Node000028_Node000020"><a xlink:title=" ">
<path fill="none" stroke="#63b8ff" d="M453.12,-337.95C423.87,-328.82 387.77,-317.01 356,-305 298.92,-283.43 233.19,-253.49 202.09,-239.01"/>
<polygon fill="#63b8ff" stroke="#63b8ff" points="452.17,-341.32 462.76,-340.94 454.24,-334.63 452.17,-341.32"/>
</a>
</g>
</g>
<!-- Node28&#45;&gt;Node27 -->
<g id="edge46_Node000028_Node000027" class="edge">
<title>Node28&#45;&gt;Node27</title>
<g id="a_edge46_Node000028_Node000027"><a xlink:title=" ">
<path fill="none" stroke="#63b8ff" d="M426.23,-344.06C316.38,-327.75 133.09,-293.03 95,-239 57.81,-186.25 95.66,-101.17 109.42,-74.08"/>
<polygon fill="#63b8ff" stroke="#63b8ff" points="425.9,-347.55 436.3,-345.54 426.91,-340.63 425.9,-347.55"/>
</a>
</g>
</g>
<!-- Node29 -->
<g id="Node000029" class="node">
<title>Node29</title>
<g id="a_Node000029"><a xlink:href="robot__model_8h.html" target="_top" xlink:title=" ">
<polygon fill="white" stroke="#666666" points="495,-305 365,-305 365,-275 495,-275 495,-305"/>
<text text-anchor="start" x="373" y="-293" font-family="Helvetica,sans-Serif" font-size="10.00">include/webcface/robot</text>
<text text-anchor="middle" x="430" y="-282" font-family="Helvetica,sans-Serif" font-size="10.00">_model.h</text>
</a>
</g>
</g>
<!-- Node28&#45;&gt;Node29 -->
<g id="edge41_Node000028_Node000029" class="edge">
<title>Node28&#45;&gt;Node29</title>
<g id="a_edge41_Node000028_Node000029"><a xlink:title=" ">
<path fill="none" stroke="#63b8ff" d="M484.35,-334.48C472.39,-324.91 458.47,-313.77 447.7,-305.16"/>
<polygon fill="#63b8ff" stroke="#63b8ff" points="482.25,-337.28 492.25,-340.8 486.62,-331.82 482.25,-337.28"/>
</a>
</g>
</g>
<!-- Node28&#45;&gt;Node30 -->
<g id="edge47_Node000028_Node000030" class="edge">
<title>Node28&#45;&gt;Node30</title>
<g id="a_edge47_Node000028_Node000030"><a xlink:title=" ">
<path fill="none" stroke="#63b8ff" d="M593.78,-348.63C764.04,-335.69 1146.72,-306.6 1293.32,-295.46"/>
<polygon fill="#63b8ff" stroke="#63b8ff" points="593.32,-345.16 583.62,-349.4 593.85,-352.14 593.32,-345.16"/>
</a>
</g>
</g>
<!-- Node29&#45;&gt;Node14 -->
<g id="edge42_Node000029_Node000014" class="edge">
<title>Node29&#45;&gt;Node14</title>
<g id="a_edge42_Node000029_Node000014"><a xlink:title=" ">
<path fill="none" stroke="#63b8ff" d="M456.51,-268.66C494.24,-240.78 566.57,-191.17 636,-165 669,-152.56 759.22,-137.99 820.73,-129"/>
<polygon fill="#63b8ff" stroke="#63b8ff" points="454.04,-266.14 448.13,-274.92 458.23,-271.75 454.04,-266.14"/>
</a>
</g>
</g>
<!-- Node29&#45;&gt;Node20 -->
<g id="edge43_Node000029_Node000020" class="edge">
<title>Node29&#45;&gt;Node20</title>
<g id="a_edge43_Node000029_Node000020"><a xlink:title=" ">
<path fill="none" stroke="#63b8ff" d="M361.2,-272.64C315.34,-261.73 256.91,-247.84 219.97,-239.05"/>
<polygon fill="#63b8ff" stroke="#63b8ff" points="360.54,-276.08 371.08,-274.99 362.16,-269.27 360.54,-276.08"/>
</a>
</g>
</g>
<!-- Node29&#45;&gt;Node21 -->
<g id="edge44_Node000029_Node000021" class="edge">
<title>Node29&#45;&gt;Node21</title>
<g id="a_edge44_Node000029_Node000021"><a xlink:title=" ">
<path fill="none" stroke="#63b8ff" d="M430,-264.35C430,-239.09 430,-201.18 430,-184.23"/>
<polygon fill="#63b8ff" stroke="#63b8ff" points="426.5,-264.63 430,-274.63 433.5,-264.63 426.5,-264.63"/>
</a>
</g>
</g>
<!-- Node29&#45;&gt;Node27 -->
<g id="edge45_Node000029_Node000027" class="edge">
<title>Node29&#45;&gt;Node27</title>
<g id="a_edge45_Node000029_Node000027"><a xlink:title=" ">
<path fill="none" stroke="#63b8ff" d="M391.59,-270.24C338.43,-243.26 240.88,-189.97 169,-129 148.76,-111.83 129.5,-86.98 120.06,-74.05"/>
<polygon fill="#63b8ff" stroke="#63b8ff" points="390.16,-273.44 400.67,-274.81 393.31,-267.19 390.16,-273.44"/>
</a>
</g>
</g>
<!-- Node30&#45;&gt;Node4 -->
<g id="edge48_Node000030_Node000004" class="edge">
<title>Node30&#45;&gt;Node4</title>
<g id="a_edge48_Node000030_Node000004"><a xlink:title=" ">
<path fill="none" stroke="#63b8ff" d="M1283.26,-287.76C1197.58,-284.68 1047.4,-274.2 924,-239 868.74,-223.24 858.27,-209.94 807,-184 791.21,-176.01 788.84,-170.45 772,-165 653.04,-126.52 616.95,-145.36 493,-129 489.94,-128.6 486.79,-128.18 483.61,-127.76"/>
<polygon fill="#63b8ff" stroke="#63b8ff" points="1283.27,-291.26 1293.38,-288.1 1283.5,-284.26 1283.27,-291.26"/>
</a>
</g>
</g>
<!-- Node30&#45;&gt;Node5 -->
<g id="edge49_Node000030_Node000005" class="edge">
<title>Node30&#45;&gt;Node5</title>
<g id="a_edge49_Node000030_Node000005"><a xlink:title=" ">
<path fill="none" stroke="#63b8ff" d="M1420.95,-287.94C1576.17,-284.96 1948.8,-274.24 2069,-239 2170.86,-209.14 2343.39,-186.69 2270,-110 2236.01,-74.49 1490.08,-67.07 1300.51,-65.75"/>
<polygon fill="#63b8ff" stroke="#63b8ff" points="1420.54,-284.45 1410.6,-288.14 1420.67,-291.45 1420.54,-284.45"/>
</a>
</g>
</g>
<!-- Node30&#45;&gt;Node8 -->
<g id="edge51_Node000030_Node000008" class="edge">
<title>Node30&#45;&gt;Node8</title>
<g id="a_edge51_Node000030_Node000008"><a xlink:title=" ">
<path fill="none" stroke="#63b8ff" d="M1420.93,-280.06C1455.84,-273.05 1497.58,-260.69 1530,-239 1574.56,-209.19 1607.39,-151.13 1618.7,-129.19"/>
<polygon fill="#63b8ff" stroke="#63b8ff" points="1419.97,-276.67 1410.8,-281.98 1421.28,-283.55 1419.97,-276.67"/>
</a>
</g>
</g>
<!-- Node30&#45;&gt;Node10 -->
<g id="edge52_Node000030_Node000010" class="edge">
<title>Node30&#45;&gt;Node10</title>
<g id="a_edge52_Node000030_Node000010"><a xlink:title=" ">
<path fill="none" stroke="#63b8ff" d="M1419.86,-278.64C1460.3,-270.93 1511.97,-258.34 1555,-239 1622.8,-208.53 1692.31,-150.87 1717.31,-129.11"/>
<polygon fill="#63b8ff" stroke="#63b8ff" points="1419.03,-275.23 1409.83,-280.5 1420.3,-282.12 1419.03,-275.23"/>
</a>
</g>
</g>
<!-- Node30&#45;&gt;Node11 -->
<g id="edge53_Node000030_Node000011" class="edge">
<title>Node30&#45;&gt;Node11</title>
<g id="a_edge53_Node000030_Node000011"><a xlink:title=" ">
<path fill="none" stroke="#63b8ff" d="M1346.11,-270.47C1343.32,-261.12 1340.13,-249.54 1338,-239 1329.78,-198.35 1325.25,-148.89 1323.66,-129.19"/>
<polygon fill="#63b8ff" stroke="#63b8ff" points="1342.83,-271.72 1349.12,-280.24 1349.52,-269.66 1342.83,-271.72"/>
</a>
</g>
</g>
<!-- Node30&#45;&gt;Node13 -->
<g id="edge54_Node000030_Node000013" class="edge">
<title>Node30&#45;&gt;Node13</title>
<g id="a_edge54_Node000030_Node000013"><a xlink:title=" ">
<path fill="none" stroke="#63b8ff" d="M1282.92,-283.25C1216.42,-276.57 1113.48,-263.24 1027,-239 944.51,-215.87 930.63,-191.02 849,-165 799.46,-149.21 741.19,-136.72 701.14,-129.05"/>
<polygon fill="#63b8ff" stroke="#63b8ff" points="1282.98,-286.77 1293.27,-284.26 1283.66,-279.8 1282.98,-286.77"/>
</a>
</g>
</g>
<!-- Node30&#45;&gt;Node14 -->
<g id="edge55_Node000030_Node000014" class="edge">
<title>Node30&#45;&gt;Node14</title>
<g id="a_edge55_Node000030_Node000014"><a xlink:title=" ">
<path fill="none" stroke="#63b8ff" d="M1283.22,-281.3C1200.22,-269.76 1058.46,-242.71 951,-184 924.71,-169.64 900.57,-143.12 889.07,-129.34"/>
<polygon fill="#63b8ff" stroke="#63b8ff" points="1282.91,-284.79 1293.29,-282.67 1283.85,-277.86 1282.91,-284.79"/>
</a>
</g>
</g>
<!-- Node30&#45;&gt;Node15 -->
<g id="edge56_Node000030_Node000015" class="edge">
<title>Node30&#45;&gt;Node15</title>
<g id="a_edge56_Node000030_Node000015"><a xlink:title=" ">
<path fill="none" stroke="#63b8ff" d="M1356.14,-270.44C1359.51,-256.38 1364.73,-236.71 1371,-220 1384.08,-185.17 1404.9,-145.99 1414.22,-129.05"/>
<polygon fill="#63b8ff" stroke="#63b8ff" points="1352.7,-269.81 1353.85,-280.34 1359.52,-271.39 1352.7,-269.81"/>
</a>
</g>
</g>
<!-- Node30&#45;&gt;Node16 -->
<g id="edge57_Node000030_Node000016" class="edge">
<title>Node30&#45;&gt;Node16</title>
<g id="a_edge57_Node000030_Node000016"><a xlink:title=" ">
<path fill="none" stroke="#63b8ff" d="M1420.5,-284.62C1452.96,-278.8 1489.28,-266.12 1511,-239 1537.32,-206.12 1528.04,-150.39 1523.19,-129.11"/>
<polygon fill="#63b8ff" stroke="#63b8ff" points="1419.9,-281.17 1410.58,-286.21 1421.01,-288.09 1419.9,-281.17"/>
</a>
</g>
</g>
<!-- Node30&#45;&gt;Node17 -->
<g id="edge58_Node000030_Node000017" class="edge">
<title>Node30&#45;&gt;Node17</title>
<g id="a_edge58_Node000030_Node000017"><a xlink:title=" ">
<path fill="none" stroke="#63b8ff" d="M1283.2,-286.11C1205.76,-281.47 1076.79,-269.5 970,-239 967.61,-238.32 809.38,-165.73 807,-165 804.34,-164.19 658.31,-139.75 584.61,-127.44"/>
<polygon fill="#63b8ff" stroke="#63b8ff" points="1283.13,-289.62 1293.32,-286.7 1283.54,-282.63 1283.13,-289.62"/>
</a>
</g>
</g>
<!-- Node30&#45;&gt;Node18 -->
<g id="edge50_Node000030_Node000018" class="edge">
<title>Node30&#45;&gt;Node18</title>
<g id="a_edge50_Node000030_Node000018"><a xlink:title=" ">
<path fill="none" stroke="#63b8ff" d="M1283.31,-283.58C1175.72,-274.97 960.92,-257.24 779,-239 773.13,-238.41 767.01,-237.77 760.9,-237.11"/>
<polygon fill="#63b8ff" stroke="#63b8ff" points="1283.14,-287.08 1293.39,-284.39 1283.7,-280.1 1283.14,-287.08"/>
</a>
</g>
</g>
<!-- Node31 -->
<g id="Node000031" class="node">
<title>Node31</title>
<g id="a_Node000031"><a xlink:href="message_8cc.html" target="_top" xlink:title=" ">
<polygon fill="white" stroke="#666666" points="1502,-239 1380,-239 1380,-220 1502,-220 1502,-239"/>
<text text-anchor="middle" x="1441" y="-227" font-family="Helvetica,sans-Serif" font-size="10.00">message/message.cc</text>
</a>
</g>
</g>
<!-- Node30&#45;&gt;Node31 -->
<g id="edge59_Node000030_Node000031" class="edge">
<title>Node30&#45;&gt;Node31</title>
<g id="a_edge59_Node000030_Node000031"><a xlink:title=" ">
<path fill="none" stroke="#63b8ff" d="M1373.82,-274.66C1390.73,-263.55 1413.59,-248.51 1427.81,-239.17"/>
<polygon fill="#63b8ff" stroke="#63b8ff" points="1371.57,-271.95 1365.13,-280.37 1375.41,-277.8 1371.57,-271.95"/>
</a>
</g>
</g>
<!-- Node32 -->
<g id="Node000032" class="node">
<title>Node32</title>
<g id="a_Node000032"><a xlink:href="s__client__data_8cc.html" target="_top" xlink:title=" ">
<polygon fill="white" stroke="#666666" points="1919,-129 1791,-129 1791,-110 1919,-110 1919,-129"/>
<text text-anchor="middle" x="1855" y="-117" font-family="Helvetica,sans-Serif" font-size="10.00">server/s_client_data.cc</text>
</a>
</g>
</g>
<!-- Node30&#45;&gt;Node32 -->
<g id="edge60_Node000030_Node000032" class="edge">
<title>Node30&#45;&gt;Node32</title>
<g id="a_edge60_Node000030_Node000032"><a xlink:title=" ">
<path fill="none" stroke="#63b8ff" d="M1417.81,-278.75C1465.46,-270.43 1531.05,-257.1 1587,-239 1685.98,-206.97 1797.84,-150.49 1838.84,-129.07"/>
<polygon fill="#63b8ff" stroke="#63b8ff" points="1417.19,-275.31 1407.93,-280.45 1418.38,-282.21 1417.19,-275.31"/>
</a>
</g>
</g>
<!-- Node33 -->
<g id="Node000033" class="node">
<title>Node33</title>
<g id="a_Node000033"><a xlink:href="s__client__data_8h.html" target="_top" xlink:title=" ">
<polygon fill="white" stroke="#666666" points="2026,-239 1902,-239 1902,-220 2026,-220 2026,-239"/>
<text text-anchor="middle" x="1964" y="-227" font-family="Helvetica,sans-Serif" font-size="10.00">server/s_client_data.h</text>
</a>
</g>
</g>
<!-- Node30&#45;&gt;Node33 -->
<g id="edge61_Node000030_Node000033" class="edge">
<title>Node30&#45;&gt;Node33</title>
<g id="a_edge61_Node000030_Node000033"><a xlink:title=" ">
<path fill="none" stroke="#63b8ff" d="M1420.85,-282.42C1540.9,-270.94 1786.7,-247.45 1901.87,-236.44"/>
<polygon fill="#63b8ff" stroke="#63b8ff" points="1420.3,-278.96 1410.68,-283.39 1420.97,-285.92 1420.3,-278.96"/>
</a>
</g>
</g>
<!-- Node36 -->
<g id="Node000036" class="node">
<title>Node36</title>
<g id="a_Node000036"><a xlink:href="websock_8cc.html" target="_top" xlink:title=" ">
<polygon fill="white" stroke="#666666" points="2260.5,-129 2153.5,-129 2153.5,-110 2260.5,-110 2260.5,-129"/>
<text text-anchor="middle" x="2207" y="-117" font-family="Helvetica,sans-Serif" font-size="10.00">server/websock.cc</text>
</a>
</g>
</g>
<!-- Node30&#45;&gt;Node36 -->
<g id="edge70_Node000030_Node000036" class="edge">
<title>Node30&#45;&gt;Node36</title>
<g id="a_edge70_Node000030_Node000036"><a xlink:title=" ">
<path fill="none" stroke="#63b8ff" d="M1420.65,-288.42C1570.58,-286.43 1922.86,-277.66 2035,-239 2105.96,-214.54 2174.62,-152.16 2198.31,-129.17"/>
<polygon fill="#63b8ff" stroke="#63b8ff" points="1420.59,-284.92 1410.64,-288.54 1420.68,-291.92 1420.59,-284.92"/>
</a>
</g>
</g>
<!-- Node33&#45;&gt;Node32 -->
<g id="edge62_Node000033_Node000032" class="edge">
<title>Node33&#45;&gt;Node32</title>
<g id="a_edge62_Node000033_Node000032"><a xlink:title=" ">
<path fill="none" stroke="#63b8ff" d="M1947.96,-212.61C1924.6,-189.47 1882.03,-147.29 1863.74,-129.16"/>
<polygon fill="#63b8ff" stroke="#63b8ff" points="1945.51,-215.11 1955.08,-219.66 1950.44,-210.14 1945.51,-215.11"/>
</a>
</g>
</g>
<!-- Node34 -->
<g id="Node000034" class="node">
<title>Node34</title>
<g id="a_Node000034"><a xlink:href="store_8cc.html" target="_top" xlink:title=" ">
<polygon fill="white" stroke="#666666" points="2026.5,-129 1937.5,-129 1937.5,-110 2026.5,-110 2026.5,-129"/>
<text text-anchor="middle" x="1982" y="-117" font-family="Helvetica,sans-Serif" font-size="10.00">server/store.cc</text>
</a>
</g>
</g>
<!-- Node33&#45;&gt;Node34 -->
<g id="edge63_Node000033_Node000034" class="edge">
<title>Node33&#45;&gt;Node34</title>
<g id="a_edge63_Node000033_Node000034"><a xlink:title=" ">
<path fill="none" stroke="#63b8ff" d="M1967.17,-209.48C1971.11,-185.84 1977.67,-146.5 1980.56,-129.16"/>
<polygon fill="#63b8ff" stroke="#63b8ff" points="1963.66,-209.22 1965.47,-219.66 1970.57,-210.37 1963.66,-209.22"/>
</a>
</g>
</g>
<!-- Node35 -->
<g id="Node000035" class="node">
<title>Node35</title>
<g id="a_Node000035"><a xlink:href="store_8h.html" target="_top" xlink:title=" ">
<polygon fill="white" stroke="#666666" points="2076,-184 1992,-184 1992,-165 2076,-165 2076,-184"/>
<text text-anchor="middle" x="2034" y="-172" font-family="Helvetica,sans-Serif" font-size="10.00">server/store.h</text>
</a>
</g>
</g>
<!-- Node33&#45;&gt;Node35 -->
<g id="edge64_Node000033_Node000035" class="edge">
<title>Node33&#45;&gt;Node35</title>
<g id="a_edge64_Node000033_Node000035"><a xlink:title=" ">
<path fill="none" stroke="#63b8ff" d="M1983.31,-213.88C1995.91,-204.34 2011.93,-192.21 2022.55,-184.17"/>
<polygon fill="#63b8ff" stroke="#63b8ff" points="1981.11,-211.16 1975.25,-219.98 1985.33,-216.74 1981.11,-211.16"/>
</a>
</g>
</g>
<!-- Node33&#45;&gt;Node36 -->
<g id="edge69_Node000033_Node000036" class="edge">
<title>Node33&#45;&gt;Node36</title>
<g id="a_edge69_Node000033_Node000036"><a xlink:title=" ">
<path fill="none" stroke="#63b8ff" d="M1999.89,-216.65C2024.22,-208.29 2056.93,-196.41 2085,-184 2124.53,-166.53 2169.15,-142.02 2191.9,-129.16"/>
<polygon fill="#63b8ff" stroke="#63b8ff" points="1998.69,-213.36 1990.35,-219.9 2000.94,-219.99 1998.69,-213.36"/>
</a>
</g>
</g>
<!-- Node35&#45;&gt;Node32 -->
<g id="edge65_Node000035_Node000032" class="edge">
<title>Node35&#45;&gt;Node32</title>
<g id="a_edge65_Node000035_Node000032"><a xlink:title=" ">
<path fill="none" stroke="#63b8ff" d="M1995.35,-162.06C1961.89,-152.15 1914.25,-138.04 1883.98,-129.08"/>
<polygon fill="#63b8ff" stroke="#63b8ff" points="1994.66,-165.5 2005.24,-164.98 1996.65,-158.79 1994.66,-165.5"/>
</a>
</g>
</g>
<!-- Node35&#45;&gt;Node34 -->
<g id="edge66_Node000035_Node000034" class="edge">
<title>Node35&#45;&gt;Node34</title>
<g id="a_edge66_Node000035_Node000034"><a xlink:title=" ">
<path fill="none" stroke="#63b8ff" d="M2018.32,-157.52C2009.16,-148.18 1997.95,-136.75 1990.43,-129.09"/>
<polygon fill="#63b8ff" stroke="#63b8ff" points="2015.91,-160.06 2025.41,-164.75 2020.91,-155.16 2015.91,-160.06"/>
</a>
</g>
</g>
<!-- Node35&#45;&gt;Node36 -->
<g id="edge67_Node000035_Node000036" class="edge">
<title>Node35&#45;&gt;Node36</title>
<g id="a_edge67_Node000035_Node000036"><a xlink:title=" ">
<path fill="none" stroke="#63b8ff" d="M2071.77,-161.93C2104.09,-152.03 2149.86,-138.01 2178.99,-129.08"/>
<polygon fill="#63b8ff" stroke="#63b8ff" points="2070.33,-158.71 2061.8,-164.98 2072.38,-165.4 2070.33,-158.71"/>
</a>
</g>
</g>
<!-- Node37 -->
<g id="Node000037" class="node">
<title>Node37</title>
<g id="a_Node000037"><a xlink:href="server__main_8cc.html" target="_top" xlink:title=" ">
<polygon fill="white" stroke="#666666" points="2135.5,-129 2044.5,-129 2044.5,-110 2135.5,-110 2135.5,-129"/>
<text text-anchor="middle" x="2090" y="-117" font-family="Helvetica,sans-Serif" font-size="10.00">server_main.cc</text>
</a>
</g>
</g>
<!-- Node35&#45;&gt;Node37 -->
<g id="edge68_Node000035_Node000037" class="edge">
<title>Node35&#45;&gt;Node37</title>
<g id="a_edge68_Node000035_Node000037"><a xlink:title=" ">
<path fill="none" stroke="#63b8ff" d="M2050.33,-158.04C2060.26,-148.64 2072.59,-136.98 2080.84,-129.17"/>
<polygon fill="#63b8ff" stroke="#63b8ff" points="2047.85,-155.57 2043,-164.98 2052.67,-160.65 2047.85,-155.57"/>
</a>
</g>
</g>
</g>
</svg>
