<?xml version="1.0" encoding="UTF-8" standalone="no"?>
<!DOCTYPE svg PUBLIC "-//W3C//DTD SVG 1.1//EN"
 "http://www.w3.org/Graphics/SVG/1.1/DTD/svg11.dtd">
<!-- Generated by graphviz version 2.43.0 (0)
 -->
<!-- Title: message/include/webcface/message/u8string.h Pages: 1 -->
<svg width="678pt" height="159pt"
 viewBox="0.00 0.00 678.00 159.00" xmlns="http://www.w3.org/2000/svg" xmlns:xlink="http://www.w3.org/1999/xlink">
<g id="graph0" class="graph" transform="scale(1 1) rotate(0) translate(4 155)">
<title>message/include/webcface/message/u8string.h</title>
<!-- Node1 -->
<g id="Node000001" class="node">
<title>Node1</title>
<g id="a_Node000001"><a xlink:title=" ">
<polygon fill="#999999" stroke="#666666" points="236.5,-151 87.5,-151 87.5,-121 236.5,-121 236.5,-151"/>
<text text-anchor="start" x="95.5" y="-139" font-family="Helvetica,sans-Serif" font-size="10.00">message/include/webcface</text>
<text text-anchor="middle" x="162" y="-128" font-family="Helvetica,sans-Serif" font-size="10.00">/message/u8string.h</text>
</a>
</g>
</g>
<!-- Node2 -->
<g id="Node000002" class="node">
<title>Node2</title>
<g id="a_Node000002"><a xlink:title=" ">
<polygon fill="#e0e0e0" stroke="#999999" points="78.5,-85 33.5,-85 33.5,-66 78.5,-66 78.5,-85"/>
<text text-anchor="middle" x="56" y="-73" font-family="Helvetica,sans-Serif" font-size="10.00">utf8.h</text>
</a>
</g>
</g>
<!-- Node1&#45;&gt;Node2 -->
<g id="edge1_Node000001_Node000002" class="edge">
<title>Node1&#45;&gt;Node2</title>
<g id="a_edge1_Node000001_Node000002"><a xlink:title=" ">
<path fill="none" stroke="#63b8ff" d="M136.61,-120.99C119.71,-111.66 97.62,-99.47 80.84,-90.21"/>
<polygon fill="#63b8ff" stroke="#63b8ff" points="82.1,-86.91 71.65,-85.14 78.72,-93.04 82.1,-86.91"/>
</a>
</g>
</g>
<!-- Node3 -->
<g id="Node000003" class="node">
<title>Node3</title>
<g id="a_Node000003"><a xlink:href="encoding_8h.html" target="_top" xlink:title=" ">
<polygon fill="white" stroke="#666666" points="301.5,-85 134.5,-85 134.5,-66 301.5,-66 301.5,-85"/>
<text text-anchor="middle" x="218" y="-73" font-family="Helvetica,sans-Serif" font-size="10.00">webcface/encoding/encoding.h</text>
</a>
</g>
</g>
<!-- Node1&#45;&gt;Node3 -->
<g id="edge2_Node000001_Node000003" class="edge">
<title>Node1&#45;&gt;Node3</title>
<g id="a_edge2_Node000001_Node000003"><a xlink:title=" ">
<path fill="none" stroke="#63b8ff" d="M175.56,-120.84C183.68,-112.35 194.05,-101.52 202.5,-92.69"/>
<polygon fill="#63b8ff" stroke="#63b8ff" points="205.22,-94.91 209.61,-85.27 200.17,-90.07 205.22,-94.91"/>
</a>
</g>
</g>
<!-- Node4 -->
<g id="Node000004" class="node">
<title>Node4</title>
<g id="a_Node000004"><a xlink:title=" ">
<polygon fill="#e0e0e0" stroke="#999999" points="44,-24.5 0,-24.5 0,-5.5 44,-5.5 44,-24.5"/>
<text text-anchor="middle" x="22" y="-12.5" font-family="Helvetica,sans-Serif" font-size="10.00">string</text>
</a>
</g>
</g>
<!-- Node1&#45;&gt;Node4 -->
<g id="edge11_Node000001_Node000004" class="edge">
<title>Node1&#45;&gt;Node4</title>
<g id="a_edge11_Node000001_Node000004"><a xlink:title=" ">
<path fill="none" stroke="#63b8ff" d="M147.41,-120.86C132.54,-106.63 108.66,-84.23 87,-66 72.31,-53.63 55.06,-40.42 42.02,-30.68"/>
<polygon fill="#63b8ff" stroke="#63b8ff" points="43.87,-27.7 33.75,-24.55 39.7,-33.32 43.87,-27.7"/>
</a>
</g>
</g>
<!-- Node11 -->
<g id="Node000011" class="node">
<title>Node11</title>
<g id="a_Node000011"><a xlink:title=" ">
<polygon fill="#e0e0e0" stroke="#999999" points="402,-85 320,-85 320,-66 402,-66 402,-85"/>
<text text-anchor="middle" x="361" y="-73" font-family="Helvetica,sans-Serif" font-size="10.00">msgpack.hpp</text>
</a>
</g>
</g>
<!-- Node1&#45;&gt;Node11 -->
<g id="edge10_Node000001_Node000011" class="edge">
<title>Node1&#45;&gt;Node11</title>
<g id="a_edge10_Node000001_Node000011"><a xlink:title=" ">
<path fill="none" stroke="#63b8ff" d="M209.67,-120.99C244.01,-110.89 289.78,-97.44 321.96,-87.98"/>
<polygon fill="#63b8ff" stroke="#63b8ff" points="323.3,-91.23 331.9,-85.05 321.32,-84.52 323.3,-91.23"/>
</a>
</g>
</g>
<!-- Node3&#45;&gt;Node4 -->
<g id="edge3_Node000003_Node000004" class="edge">
<title>Node3&#45;&gt;Node4</title>
<g id="a_edge3_Node000003_Node000004"><a xlink:title=" ">
<path fill="none" stroke="#63b8ff" d="M179.45,-65.96C145.67,-58.04 95.46,-45.2 53,-30 51.78,-29.56 50.54,-29.1 49.3,-28.61"/>
<polygon fill="#63b8ff" stroke="#63b8ff" points="50.41,-25.28 39.83,-24.64 47.7,-31.74 50.41,-25.28"/>
</a>
</g>
</g>
<!-- Node5 -->
<g id="Node000005" class="node">
<title>Node5</title>
<g id="a_Node000005"><a xlink:title=" ">
<polygon fill="#e0e0e0" stroke="#999999" points="135.5,-24.5 62.5,-24.5 62.5,-5.5 135.5,-5.5 135.5,-24.5"/>
<text text-anchor="middle" x="99" y="-12.5" font-family="Helvetica,sans-Serif" font-size="10.00">string_view</text>
</a>
</g>
</g>
<!-- Node3&#45;&gt;Node5 -->
<g id="edge4_Node000003_Node000005" class="edge">
<title>Node3&#45;&gt;Node5</title>
<g id="a_edge4_Node000003_Node000005"><a xlink:title=" ">
<path fill="none" stroke="#63b8ff" d="M200.7,-65.99C180.95,-56.29 148.45,-40.31 125.51,-29.03"/>
<polygon fill="#63b8ff" stroke="#63b8ff" points="126.84,-25.79 116.32,-24.52 123.75,-32.07 126.84,-25.79"/>
</a>
</g>
</g>
<!-- Node6 -->
<g id="Node000006" class="node">
<title>Node6</title>
<g id="a_Node000006"><a xlink:title=" ">
<polygon fill="#e0e0e0" stroke="#999999" points="212,-24.5 154,-24.5 154,-5.5 212,-5.5 212,-24.5"/>
<text text-anchor="middle" x="183" y="-12.5" font-family="Helvetica,sans-Serif" font-size="10.00">memory</text>
</a>
</g>
</g>
<!-- Node3&#45;&gt;Node6 -->
<g id="edge5_Node000003_Node000006" class="edge">
<title>Node3&#45;&gt;Node6</title>
<g id="a_edge5_Node000003_Node000006"><a xlink:title=" ">
<path fill="none" stroke="#63b8ff" d="M212.84,-65.87C207.77,-57.4 199.9,-44.24 193.51,-33.57"/>
<polygon fill="#63b8ff" stroke="#63b8ff" points="196.32,-31.45 188.19,-24.67 190.32,-35.05 196.32,-31.45"/>
</a>
</g>
</g>
<!-- Node7 -->
<g id="Node000007" class="node">
<title>Node7</title>
<g id="a_Node000007"><a xlink:title=" ">
<polygon fill="#e0e0e0" stroke="#999999" points="278,-24.5 230,-24.5 230,-5.5 278,-5.5 278,-24.5"/>
<text text-anchor="middle" x="254" y="-12.5" font-family="Helvetica,sans-Serif" font-size="10.00">mutex</text>
</a>
</g>
</g>
<!-- Node3&#45;&gt;Node7 -->
<g id="edge6_Node000003_Node000007" class="edge">
<title>Node3&#45;&gt;Node7</title>
<g id="a_edge6_Node000003_Node000007"><a xlink:title=" ">
<path fill="none" stroke="#63b8ff" d="M223.31,-65.87C228.58,-57.31 236.79,-43.97 243.39,-33.24"/>
<polygon fill="#63b8ff" stroke="#63b8ff" points="246.41,-35.02 248.67,-24.67 240.44,-31.35 246.41,-35.02"/>
</a>
</g>
</g>
<!-- Node8 -->
<g id="Node000008" class="node">
<title>Node8</title>
<g id="a_Node000008"><a xlink:title=" ">
<polygon fill="#e0e0e0" stroke="#999999" points="389.5,-24.5 296.5,-24.5 296.5,-5.5 389.5,-5.5 389.5,-24.5"/>
<text text-anchor="middle" x="343" y="-12.5" font-family="Helvetica,sans-Serif" font-size="10.00">unordered_map</text>
</a>
</g>
</g>
<!-- Node3&#45;&gt;Node8 -->
<g id="edge7_Node000003_Node000008" class="edge">
<title>Node3&#45;&gt;Node8</title>
<g id="a_edge7_Node000003_Node000008"><a xlink:title=" ">
<path fill="none" stroke="#63b8ff" d="M236.18,-65.99C257.01,-56.25 291.37,-40.16 315.48,-28.88"/>
<polygon fill="#63b8ff" stroke="#63b8ff" points="317.23,-31.93 324.8,-24.52 314.26,-25.59 317.23,-31.93"/>
</a>
</g>
</g>
<!-- Node9 -->
<g id="Node000009" class="node">
<title>Node9</title>
<g id="a_Node000009"><a xlink:title=" ">
<polygon fill="#e0e0e0" stroke="#999999" points="494,-24.5 408,-24.5 408,-5.5 494,-5.5 494,-24.5"/>
<text text-anchor="middle" x="451" y="-12.5" font-family="Helvetica,sans-Serif" font-size="10.00">unordered_set</text>
</a>
</g>
</g>
<!-- Node3&#45;&gt;Node9 -->
<g id="edge8_Node000003_Node000009" class="edge">
<title>Node3&#45;&gt;Node9</title>
<g id="a_edge8_Node000003_Node000009"><a xlink:title=" ">
<path fill="none" stroke="#63b8ff" d="M253.77,-65.95C290.33,-57.15 348.7,-42.95 399,-30 402.56,-29.08 406.25,-28.12 409.95,-27.14"/>
<polygon fill="#63b8ff" stroke="#63b8ff" points="410.92,-30.51 419.68,-24.55 409.12,-23.74 410.92,-30.51"/>
</a>
</g>
</g>
<!-- Node10 -->
<g id="Node000010" class="node">
<title>Node10</title>
<g id="a_Node000010"><a xlink:title=" ">
<polygon fill="#e0e0e0" stroke="#999999" points="670,-30 512,-30 512,0 670,0 670,-30"/>
<text text-anchor="start" x="520" y="-18" font-family="Helvetica,sans-Serif" font-size="10.00">webcface/common/webcface</text>
<text text-anchor="middle" x="591" y="-7" font-family="Helvetica,sans-Serif" font-size="10.00">&#45;config.h</text>
</a>
</g>
</g>
<!-- Node3&#45;&gt;Node10 -->
<g id="edge9_Node000003_Node000010" class="edge">
<title>Node3&#45;&gt;Node10</title>
<g id="a_edge9_Node000003_Node000010"><a xlink:title=" ">
<path fill="none" stroke="#63b8ff" d="M272.91,-65.97C328.18,-57.38 416.16,-43.68 501.94,-30.16"/>
<polygon fill="#63b8ff" stroke="#63b8ff" points="502.51,-33.62 511.85,-28.6 501.42,-26.7 502.51,-33.62"/>
</a>
</g>
</g>
</g>
</svg>
