<?xml version="1.0" encoding="UTF-8" standalone="no"?>
<!DOCTYPE svg PUBLIC "-//W3C//DTD SVG 1.1//EN"
 "http://www.w3.org/Graphics/SVG/1.1/DTD/svg11.dtd">
<!-- Generated by graphviz version 2.43.0 (0)
 -->
<!-- Title: message/unix_path.h Pages: 1 -->
<svg width="414pt" height="137pt"
 viewBox="0.00 0.00 414.00 137.00" xmlns="http://www.w3.org/2000/svg" xmlns:xlink="http://www.w3.org/1999/xlink">
<g id="graph0" class="graph" transform="scale(1 1) rotate(0) translate(4 133)">
<title>message/unix_path.h</title>
<!-- Node1 -->
<g id="Node000001" class="node">
<title>Node1</title>
<g id="a_Node000001"><a xlink:title=" ">
<polygon fill="#999999" stroke="#666666" points="309.5,-129 188.5,-129 188.5,-110 309.5,-110 309.5,-129"/>
<text text-anchor="middle" x="249" y="-117" font-family="Helvetica,sans-Serif" font-size="10.00">message/unix_path.h</text>
</a>
</g>
</g>
<!-- Node2 -->
<g id="Node000002" class="node">
<title>Node2</title>
<g id="a_Node000002"><a xlink:href="def_8h.html" target="_top" xlink:title=" ">
<polygon fill="white" stroke="#666666" points="136,-74 0,-74 0,-55 136,-55 136,-74"/>
<text text-anchor="middle" x="68" y="-62" font-family="Helvetica,sans-Serif" font-size="10.00">webcface/common/def.h</text>
</a>
</g>
</g>
<!-- Node1&#45;&gt;Node2 -->
<g id="edge1_Node000001_Node000002" class="edge">
<title>Node1&#45;&gt;Node2</title>
<g id="a_edge1_Node000001_Node000002"><a xlink:title=" ">
<path fill="none" stroke="#63b8ff" d="M219.92,-109.98C189.4,-101.05 141.24,-86.94 107.34,-77.02"/>
<polygon fill="#63b8ff" stroke="#63b8ff" points="107.89,-73.53 97.31,-74.08 105.92,-80.25 107.89,-73.53"/>
</a>
</g>
</g>
<!-- Node4 -->
<g id="Node000004" class="node">
<title>Node4</title>
<g id="a_Node000004"><a xlink:title=" ">
<polygon fill="#e0e0e0" stroke="#999999" points="245.5,-74 154.5,-74 154.5,-55 245.5,-55 245.5,-74"/>
<text text-anchor="middle" x="200" y="-62" font-family="Helvetica,sans-Serif" font-size="10.00">spdlog/logger.h</text>
</a>
</g>
</g>
<!-- Node1&#45;&gt;Node4 -->
<g id="edge3_Node000001_Node000004" class="edge">
<title>Node1&#45;&gt;Node4</title>
<g id="a_edge3_Node000001_Node000004"><a xlink:title=" ">
<path fill="none" stroke="#63b8ff" d="M240.91,-109.75C233.84,-102.11 223.41,-90.82 214.85,-81.56"/>
<polygon fill="#63b8ff" stroke="#63b8ff" points="217.3,-79.06 207.94,-74.09 212.16,-83.81 217.3,-79.06"/>
</a>
</g>
</g>
<!-- Node5 -->
<g id="Node000005" class="node">
<title>Node5</title>
<g id="a_Node000005"><a xlink:title=" ">
<polygon fill="#e0e0e0" stroke="#999999" points="332,-74 264,-74 264,-55 332,-55 332,-74"/>
<text text-anchor="middle" x="298" y="-62" font-family="Helvetica,sans-Serif" font-size="10.00">filesystem</text>
</a>
</g>
</g>
<!-- Node1&#45;&gt;Node5 -->
<g id="edge4_Node000001_Node000005" class="edge">
<title>Node1&#45;&gt;Node5</title>
<g id="a_edge4_Node000001_Node000005"><a xlink:title=" ">
<path fill="none" stroke="#63b8ff" d="M257.09,-109.75C264.16,-102.11 274.59,-90.82 283.15,-81.56"/>
<polygon fill="#63b8ff" stroke="#63b8ff" points="285.84,-83.81 290.06,-74.09 280.7,-79.06 285.84,-83.81"/>
</a>
</g>
</g>
<!-- Node6 -->
<g id="Node000006" class="node">
<title>Node6</title>
<g id="a_Node000006"><a xlink:title=" ">
<polygon fill="#e0e0e0" stroke="#999999" points="406,-74 350,-74 350,-55 406,-55 406,-74"/>
<text text-anchor="middle" x="378" y="-62" font-family="Helvetica,sans-Serif" font-size="10.00">optional</text>
</a>
</g>
</g>
<!-- Node1&#45;&gt;Node6 -->
<g id="edge5_Node000001_Node000006" class="edge">
<title>Node1&#45;&gt;Node6</title>
<g id="a_edge5_Node000001_Node000006"><a xlink:title=" ">
<path fill="none" stroke="#63b8ff" d="M269.73,-109.98C290.76,-101.34 323.55,-87.87 347.54,-78.02"/>
<polygon fill="#63b8ff" stroke="#63b8ff" points="348.98,-81.21 356.9,-74.17 346.32,-74.73 348.98,-81.21"/>
</a>
</g>
</g>
<!-- Node3 -->
<g id="Node000003" class="node">
<title>Node3</title>
<g id="a_Node000003"><a xlink:href="macros_8h.html" target="_top" xlink:title=" ">
<polygon fill="white" stroke="#666666" points="99,-19 37,-19 37,0 99,0 99,-19"/>
<text text-anchor="middle" x="68" y="-7" font-family="Helvetica,sans-Serif" font-size="10.00">macros.h</text>
</a>
</g>
</g>
<!-- Node2&#45;&gt;Node3 -->
<g id="edge2_Node000002_Node000003" class="edge">
<title>Node2&#45;&gt;Node3</title>
<g id="a_edge2_Node000002_Node000003"><a xlink:title=" ">
<path fill="none" stroke="#63b8ff" d="M68,-54.75C68,-47.8 68,-37.85 68,-29.13"/>
<polygon fill="#63b8ff" stroke="#63b8ff" points="71.5,-29.09 68,-19.09 64.5,-29.09 71.5,-29.09"/>
</a>
</g>
</g>
</g>
</svg>
