<?xml version="1.0" encoding="UTF-8" standalone="no"?>
<!DOCTYPE svg PUBLIC "-//W3C//DTD SVG 1.1//EN"
 "http://www.w3.org/Graphics/SVG/1.1/DTD/svg11.dtd">
<!-- Generated by graphviz version 2.43.0 (0)
 -->
<!-- Title: /home/runner/work/webcface/webcface/server&#45;store/src/unix_path.cc Pages: 1 -->
<svg width="594pt" height="170pt"
 viewBox="0.00 0.00 594.00 170.00" xmlns="http://www.w3.org/2000/svg" xmlns:xlink="http://www.w3.org/1999/xlink">
<g id="graph0" class="graph" transform="scale(1 1) rotate(0) translate(4 166)">
<title>/home/runner/work/webcface/webcface/server&#45;store/src/unix_path.cc</title>
<!-- Node1 -->
<g id="Node000001" class="node">
<title>Node1</title>
<g id="a_Node000001"><a xlink:title=" ">
<polygon fill="#999999" stroke="#666666" points="501,-162 343,-162 343,-121 501,-121 501,-162"/>
<text text-anchor="start" x="351" y="-150" font-family="Helvetica,sans-Serif" font-size="10.00">/home/runner/work/webcface</text>
<text text-anchor="start" x="351" y="-139" font-family="Helvetica,sans-Serif" font-size="10.00">/webcface/server&#45;store/src</text>
<text text-anchor="middle" x="422" y="-128" font-family="Helvetica,sans-Serif" font-size="10.00">/unix_path.cc</text>
</a>
</g>
</g>
<!-- Node2 -->
<g id="Node000002" class="node">
<title>Node2</title>
<g id="a_Node000002"><a xlink:href="unix__path_8h.html" target="_top" xlink:title=" ">
<polygon fill="white" stroke="#666666" points="309.5,-85 188.5,-85 188.5,-55 309.5,-55 309.5,-85"/>
<text text-anchor="start" x="196.5" y="-73" font-family="Helvetica,sans-Serif" font-size="10.00">webcface/server/unix</text>
<text text-anchor="middle" x="249" y="-62" font-family="Helvetica,sans-Serif" font-size="10.00">_path.h</text>
</a>
</g>
</g>
<!-- Node1&#45;&gt;Node2 -->
<g id="edge1_Node000001_Node000002" class="edge">
<title>Node1&#45;&gt;Node2</title>
<g id="a_edge1_Node000001_Node000002"><a xlink:title=" ">
<path fill="none" stroke="#63b8ff" d="M373.35,-120.96C348.2,-110.85 317.74,-98.62 293.26,-88.78"/>
<polygon fill="#63b8ff" stroke="#63b8ff" points="294.44,-85.48 283.86,-85 291.83,-91.98 294.44,-85.48"/>
</a>
</g>
</g>
<!-- Node7 -->
<g id="Node000007" class="node">
<title>Node7</title>
<g id="a_Node000007"><a xlink:title=" ">
<polygon fill="#e0e0e0" stroke="#999999" points="376.5,-79.5 327.5,-79.5 327.5,-60.5 376.5,-60.5 376.5,-79.5"/>
<text text-anchor="middle" x="352" y="-67.5" font-family="Helvetica,sans-Serif" font-size="10.00">cstdlib</text>
</a>
</g>
</g>
<!-- Node1&#45;&gt;Node7 -->
<g id="edge6_Node000001_Node000007" class="edge">
<title>Node1&#45;&gt;Node7</title>
<g id="a_edge6_Node000001_Node000007"><a xlink:title=" ">
<path fill="none" stroke="#63b8ff" d="M402.13,-120.77C391.41,-110.13 378.35,-97.16 368.25,-87.13"/>
<polygon fill="#63b8ff" stroke="#63b8ff" points="370.45,-84.38 360.88,-79.82 365.51,-89.35 370.45,-84.38"/>
</a>
</g>
</g>
<!-- Node8 -->
<g id="Node000008" class="node">
<title>Node8</title>
<g id="a_Node000008"><a xlink:title=" ">
<polygon fill="#e0e0e0" stroke="#999999" points="449.5,-79.5 394.5,-79.5 394.5,-60.5 449.5,-60.5 449.5,-79.5"/>
<text text-anchor="middle" x="422" y="-67.5" font-family="Helvetica,sans-Serif" font-size="10.00">fstream</text>
</a>
</g>
</g>
<!-- Node1&#45;&gt;Node8 -->
<g id="edge7_Node000001_Node000008" class="edge">
<title>Node1&#45;&gt;Node8</title>
<g id="a_edge7_Node000001_Node000008"><a xlink:title=" ">
<path fill="none" stroke="#63b8ff" d="M422,-120.77C422,-111.08 422,-99.46 422,-89.88"/>
<polygon fill="#63b8ff" stroke="#63b8ff" points="425.5,-89.82 422,-79.82 418.5,-89.82 425.5,-89.82"/>
</a>
</g>
</g>
<!-- Node9 -->
<g id="Node000009" class="node">
<title>Node9</title>
<g id="a_Node000009"><a xlink:title=" ">
<polygon fill="#e0e0e0" stroke="#999999" points="524,-79.5 468,-79.5 468,-60.5 524,-60.5 524,-79.5"/>
<text text-anchor="middle" x="496" y="-67.5" font-family="Helvetica,sans-Serif" font-size="10.00">sstream</text>
</a>
</g>
</g>
<!-- Node1&#45;&gt;Node9 -->
<g id="edge8_Node000001_Node000009" class="edge">
<title>Node1&#45;&gt;Node9</title>
<g id="a_edge8_Node000001_Node000009"><a xlink:title=" ">
<path fill="none" stroke="#63b8ff" d="M443.01,-120.77C454.45,-110.02 468.42,-96.91 479.14,-86.84"/>
<polygon fill="#63b8ff" stroke="#63b8ff" points="481.72,-89.22 486.61,-79.82 476.92,-84.11 481.72,-89.22"/>
</a>
</g>
</g>
<!-- Node10 -->
<g id="Node000010" class="node">
<title>Node10</title>
<g id="a_Node000010"><a xlink:title=" ">
<polygon fill="#e0e0e0" stroke="#999999" points="586,-79.5 542,-79.5 542,-60.5 586,-60.5 586,-79.5"/>
<text text-anchor="middle" x="564" y="-67.5" font-family="Helvetica,sans-Serif" font-size="10.00">string</text>
</a>
</g>
</g>
<!-- Node1&#45;&gt;Node10 -->
<g id="edge9_Node000001_Node000010" class="edge">
<title>Node1&#45;&gt;Node10</title>
<g id="a_edge9_Node000001_Node000010"><a xlink:title=" ">
<path fill="none" stroke="#63b8ff" d="M461.93,-120.96C486.12,-109.12 516.3,-94.35 537.55,-83.95"/>
<polygon fill="#63b8ff" stroke="#63b8ff" points="539.18,-87.04 546.63,-79.5 536.11,-80.76 539.18,-87.04"/>
</a>
</g>
</g>
<!-- Node3 -->
<g id="Node000003" class="node">
<title>Node3</title>
<g id="a_Node000003"><a xlink:href="def_8h.html" target="_top" xlink:title=" ">
<polygon fill="white" stroke="#666666" points="136,-19 0,-19 0,0 136,0 136,-19"/>
<text text-anchor="middle" x="68" y="-7" font-family="Helvetica,sans-Serif" font-size="10.00">webcface/common/def.h</text>
</a>
</g>
</g>
<!-- Node2&#45;&gt;Node3 -->
<g id="edge2_Node000002_Node000003" class="edge">
<title>Node2&#45;&gt;Node3</title>
<g id="a_edge2_Node000002_Node000003"><a xlink:title=" ">
<path fill="none" stroke="#63b8ff" d="M205.65,-54.99C174.68,-44.98 133.5,-31.67 104.27,-22.22"/>
<polygon fill="#63b8ff" stroke="#63b8ff" points="105.06,-18.8 94.47,-19.05 102.9,-25.46 105.06,-18.8"/>
</a>
</g>
</g>
<!-- Node4 -->
<g id="Node000004" class="node">
<title>Node4</title>
<g id="a_Node000004"><a xlink:title=" ">
<polygon fill="#e0e0e0" stroke="#999999" points="245.5,-19 154.5,-19 154.5,0 245.5,0 245.5,-19"/>
<text text-anchor="middle" x="200" y="-7" font-family="Helvetica,sans-Serif" font-size="10.00">spdlog/logger.h</text>
</a>
</g>
</g>
<!-- Node2&#45;&gt;Node4 -->
<g id="edge3_Node000002_Node000004" class="edge">
<title>Node2&#45;&gt;Node4</title>
<g id="a_edge3_Node000002_Node000004"><a xlink:title=" ">
<path fill="none" stroke="#63b8ff" d="M237.14,-54.84C230.1,-46.43 221.14,-35.74 213.79,-26.96"/>
<polygon fill="#63b8ff" stroke="#63b8ff" points="216.45,-24.68 207.34,-19.27 211.08,-29.18 216.45,-24.68"/>
</a>
</g>
</g>
<!-- Node5 -->
<g id="Node000005" class="node">
<title>Node5</title>
<g id="a_Node000005"><a xlink:title=" ">
<polygon fill="#e0e0e0" stroke="#999999" points="332,-19 264,-19 264,0 332,0 332,-19"/>
<text text-anchor="middle" x="298" y="-7" font-family="Helvetica,sans-Serif" font-size="10.00">filesystem</text>
</a>
</g>
</g>
<!-- Node2&#45;&gt;Node5 -->
<g id="edge4_Node000002_Node000005" class="edge">
<title>Node2&#45;&gt;Node5</title>
<g id="a_edge4_Node000002_Node000005"><a xlink:title=" ">
<path fill="none" stroke="#63b8ff" d="M260.86,-54.84C267.9,-46.43 276.86,-35.74 284.21,-26.96"/>
<polygon fill="#63b8ff" stroke="#63b8ff" points="286.92,-29.18 290.66,-19.27 281.55,-24.68 286.92,-29.18"/>
</a>
</g>
</g>
<!-- Node6 -->
<g id="Node000006" class="node">
<title>Node6</title>
<g id="a_Node000006"><a xlink:title=" ">
<polygon fill="#e0e0e0" stroke="#999999" points="406,-19 350,-19 350,0 406,0 406,-19"/>
<text text-anchor="middle" x="378" y="-7" font-family="Helvetica,sans-Serif" font-size="10.00">optional</text>
</a>
</g>
</g>
<!-- Node2&#45;&gt;Node6 -->
<g id="edge5_Node000002_Node000006" class="edge">
<title>Node2&#45;&gt;Node6</title>
<g id="a_edge5_Node000002_Node000006"><a xlink:title=" ">
<path fill="none" stroke="#63b8ff" d="M279.9,-54.99C301.13,-45.36 329.11,-32.67 349.75,-23.31"/>
<polygon fill="#63b8ff" stroke="#63b8ff" points="351.29,-26.46 358.95,-19.14 348.4,-20.08 351.29,-26.46"/>
</a>
</g>
</g>
</g>
</svg>
