<?xml version="1.0" encoding="UTF-8" standalone="no"?>
<!DOCTYPE svg PUBLIC "-//W3C//DTD SVG 1.1//EN"
 "http://www.w3.org/Graphics/SVG/1.1/DTD/svg11.dtd">
<!-- Generated by graphviz version 2.43.0 (0)
 -->
<!-- Title: include/webcface/value.h Pages: 1 -->
<svg width="736pt" height="192pt"
 viewBox="0.00 0.00 736.17 192.00" xmlns="http://www.w3.org/2000/svg" xmlns:xlink="http://www.w3.org/1999/xlink">
<g id="graph0" class="graph" transform="scale(1 1) rotate(0) translate(4 188)">
<title>include/webcface/value.h</title>
<!-- Node1 -->
<g id="Node000001" class="node">
<title>Node1</title>
<g id="a_Node000001"><a xlink:title=" ">
<polygon fill="#999999" stroke="#666666" points="346.17,-184 206.17,-184 206.17,-165 346.17,-165 346.17,-184"/>
<text text-anchor="middle" x="276.17" y="-172" font-family="Helvetica,sans-Serif" font-size="10.00">include/webcface/value.h</text>
</a>
</g>
</g>
<!-- Node2 -->
<g id="Node000002" class="node">
<title>Node2</title>
<g id="a_Node000002"><a xlink:href="client_8cc.html" target="_top" xlink:title=" ">
<polygon fill="white" stroke="#666666" points="238.67,-19 151.67,-19 151.67,0 238.67,0 238.67,-19"/>
<text text-anchor="middle" x="195.17" y="-7" font-family="Helvetica,sans-Serif" font-size="10.00">client/client.cc</text>
</a>
</g>
</g>
<!-- Node1&#45;&gt;Node2 -->
<g id="edge1_Node000001_Node000002" class="edge">
<title>Node1&#45;&gt;Node2</title>
<g id="a_edge1_Node000001_Node000002"><a xlink:title=" ">
<path fill="none" stroke="#63b8ff" d="M196.06,-167.75C133.13,-158.53 49.32,-134.78 7.17,-74 -29.16,-21.63 85.2,-11.79 151.42,-10.36"/>
<polygon fill="#63b8ff" stroke="#63b8ff" points="195.59,-171.22 205.97,-169.11 196.54,-164.28 195.59,-171.22"/>
</a>
</g>
</g>
<!-- Node3 -->
<g id="Node000003" class="node">
<title>Node3</title>
<g id="a_Node000003"><a xlink:href="value_8cc.html" target="_top" xlink:title=" ">
<polygon fill="white" stroke="#666666" points="250.67,-129 163.67,-129 163.67,-110 250.67,-110 250.67,-129"/>
<text text-anchor="middle" x="207.17" y="-117" font-family="Helvetica,sans-Serif" font-size="10.00">client/value.cc</text>
</a>
</g>
</g>
<!-- Node1&#45;&gt;Node3 -->
<g id="edge2_Node000001_Node000003" class="edge">
<title>Node1&#45;&gt;Node3</title>
<g id="a_edge2_Node000001_Node000003"><a xlink:title=" ">
<path fill="none" stroke="#63b8ff" d="M257.13,-158.88C244.71,-149.34 228.92,-137.21 218.45,-129.17"/>
<polygon fill="#63b8ff" stroke="#63b8ff" points="255.02,-161.67 265.08,-164.98 259.28,-156.12 255.02,-161.67"/>
</a>
</g>
</g>
<!-- Node4 -->
<g id="Node000004" class="node">
<title>Node4</title>
<g id="a_Node000004"><a xlink:href="member_8h.html" target="_top" xlink:title=" ">
<polygon fill="white" stroke="#666666" points="423.17,-129 269.17,-129 269.17,-110 423.17,-110 423.17,-129"/>
<text text-anchor="middle" x="346.17" y="-117" font-family="Helvetica,sans-Serif" font-size="10.00">include/webcface/member.h</text>
</a>
</g>
</g>
<!-- Node1&#45;&gt;Node4 -->
<g id="edge3_Node000001_Node000004" class="edge">
<title>Node1&#45;&gt;Node4</title>
<g id="a_edge3_Node000001_Node000004"><a xlink:title=" ">
<path fill="none" stroke="#63b8ff" d="M295.48,-158.88C308.08,-149.34 324.09,-137.21 334.71,-129.17"/>
<polygon fill="#63b8ff" stroke="#63b8ff" points="293.27,-156.16 287.41,-164.98 297.5,-161.74 293.27,-156.16"/>
</a>
</g>
</g>
<!-- Node11 -->
<g id="Node000011" class="node">
<title>Node11</title>
<g id="a_Node000011"><a xlink:href="webcface_8h.html" target="_top" xlink:title=" ">
<polygon fill="white" stroke="#666666" points="728.17,-19 568.17,-19 568.17,0 728.17,0 728.17,-19"/>
<text text-anchor="middle" x="648.17" y="-7" font-family="Helvetica,sans-Serif" font-size="10.00">include/webcface/webcface.h</text>
</a>
</g>
</g>
<!-- Node1&#45;&gt;Node11 -->
<g id="edge13_Node000001_Node000011" class="edge">
<title>Node1&#45;&gt;Node11</title>
<g id="a_edge13_Node000001_Node000011"><a xlink:title=" ">
<path fill="none" stroke="#63b8ff" d="M341.37,-163.27C432.65,-147.66 591.91,-115.31 632.17,-74 646.77,-59.02 648.64,-32.77 648.55,-19.19"/>
<polygon fill="#63b8ff" stroke="#63b8ff" points="340.68,-159.84 331.4,-164.96 341.84,-166.74 340.68,-159.84"/>
</a>
</g>
</g>
<!-- Node5 -->
<g id="Node000005" class="node">
<title>Node5</title>
<g id="a_Node000005"><a xlink:href="canvas3d_8cc.html" target="_top" xlink:title=" ">
<polygon fill="white" stroke="#666666" points="123.67,-74 16.67,-74 16.67,-55 123.67,-55 123.67,-74"/>
<text text-anchor="middle" x="70.17" y="-62" font-family="Helvetica,sans-Serif" font-size="10.00">client/canvas3d.cc</text>
</a>
</g>
</g>
<!-- Node4&#45;&gt;Node5 -->
<g id="edge4_Node000004_Node000005" class="edge">
<title>Node4&#45;&gt;Node5</title>
<g id="a_edge4_Node000004_Node000005"><a xlink:title=" ">
<path fill="none" stroke="#63b8ff" d="M291.83,-108.07C240.08,-98.13 163.14,-83.35 114.86,-74.08"/>
<polygon fill="#63b8ff" stroke="#63b8ff" points="291.34,-111.54 301.82,-109.98 292.66,-104.66 291.34,-111.54"/>
</a>
</g>
</g>
<!-- Node6 -->
<g id="Node000006" class="node">
<title>Node6</title>
<g id="a_Node000006"><a xlink:href="field_8cc.html" target="_top" xlink:title=" ">
<polygon fill="white" stroke="#666666" points="222.67,-74 141.67,-74 141.67,-55 222.67,-55 222.67,-74"/>
<text text-anchor="middle" x="182.17" y="-62" font-family="Helvetica,sans-Serif" font-size="10.00">client/field.cc</text>
</a>
</g>
</g>
<!-- Node4&#45;&gt;Node6 -->
<g id="edge5_Node000004_Node000006" class="edge">
<title>Node4&#45;&gt;Node6</title>
<g id="a_edge5_Node000004_Node000006"><a xlink:title=" ">
<path fill="none" stroke="#63b8ff" d="M309.96,-106.8C279.35,-96.91 236.22,-82.97 208.72,-74.08"/>
<polygon fill="#63b8ff" stroke="#63b8ff" points="309.22,-110.24 319.82,-109.98 311.38,-103.58 309.22,-110.24"/>
</a>
</g>
</g>
<!-- Node7 -->
<g id="Node000007" class="node">
<title>Node7</title>
<g id="a_Node000007"><a xlink:href="member_8cc.html" target="_top" xlink:title=" ">
<polygon fill="white" stroke="#666666" points="341.67,-74 240.67,-74 240.67,-55 341.67,-55 341.67,-74"/>
<text text-anchor="middle" x="291.17" y="-62" font-family="Helvetica,sans-Serif" font-size="10.00">client/member.cc</text>
</a>
</g>
</g>
<!-- Node4&#45;&gt;Node7 -->
<g id="edge6_Node000004_Node000007" class="edge">
<title>Node4&#45;&gt;Node7</title>
<g id="a_edge6_Node000004_Node000007"><a xlink:title=" ">
<path fill="none" stroke="#63b8ff" d="M329.87,-102.8C320.13,-93.41 308.11,-81.83 300.08,-74.09"/>
<polygon fill="#63b8ff" stroke="#63b8ff" points="327.45,-105.33 337.08,-109.75 332.31,-100.29 327.45,-105.33"/>
</a>
</g>
</g>
<!-- Node8 -->
<g id="Node000008" class="node">
<title>Node8</title>
<g id="a_Node000008"><a xlink:href="view_8cc.html" target="_top" xlink:title=" ">
<polygon fill="white" stroke="#666666" points="442.67,-74 359.67,-74 359.67,-55 442.67,-55 442.67,-74"/>
<text text-anchor="middle" x="401.17" y="-62" font-family="Helvetica,sans-Serif" font-size="10.00">client/view.cc</text>
</a>
</g>
</g>
<!-- Node4&#45;&gt;Node8 -->
<g id="edge7_Node000004_Node000008" class="edge">
<title>Node4&#45;&gt;Node8</title>
<g id="a_edge7_Node000004_Node000008"><a xlink:title=" ">
<path fill="none" stroke="#63b8ff" d="M362.46,-102.8C372.21,-93.41 384.22,-81.83 392.25,-74.09"/>
<polygon fill="#63b8ff" stroke="#63b8ff" points="360.02,-100.29 355.25,-109.75 364.88,-105.33 360.02,-100.29"/>
</a>
</g>
</g>
<!-- Node9 -->
<g id="Node000009" class="node">
<title>Node9</title>
<g id="a_Node000009"><a xlink:href="client_8h.html" target="_top" xlink:title=" ">
<polygon fill="white" stroke="#666666" points="601.17,-74 461.17,-74 461.17,-55 601.17,-55 601.17,-74"/>
<text text-anchor="middle" x="531.17" y="-62" font-family="Helvetica,sans-Serif" font-size="10.00">include/webcface/client.h</text>
</a>
</g>
</g>
<!-- Node4&#45;&gt;Node9 -->
<g id="edge8_Node000004_Node000009" class="edge">
<title>Node4&#45;&gt;Node9</title>
<g id="a_edge8_Node000004_Node000009"><a xlink:title=" ">
<path fill="none" stroke="#63b8ff" d="M385.67,-107.18C420.26,-97.27 469.79,-83.08 501.21,-74.08"/>
<polygon fill="#63b8ff" stroke="#63b8ff" points="384.54,-103.87 375.89,-109.98 386.47,-110.6 384.54,-103.87"/>
</a>
</g>
</g>
<!-- Node4&#45;&gt;Node11 -->
<g id="edge12_Node000004_Node000011" class="edge">
<title>Node4&#45;&gt;Node11</title>
<g id="a_edge12_Node000004_Node000011"><a xlink:title=" ">
<path fill="none" stroke="#63b8ff" d="M433.79,-111.63C499.22,-105.06 581.98,-93.25 610.17,-74 629.9,-60.52 641.02,-33.11 645.62,-19.12"/>
<polygon fill="#63b8ff" stroke="#63b8ff" points="433.07,-108.19 423.45,-112.64 433.75,-115.15 433.07,-108.19"/>
</a>
</g>
</g>
<!-- Node9&#45;&gt;Node2 -->
<g id="edge9_Node000009_Node000002" class="edge">
<title>Node9&#45;&gt;Node2</title>
<g id="a_edge9_Node000009_Node000002"><a xlink:title=" ">
<path fill="none" stroke="#63b8ff" d="M467.17,-53.41C400.24,-42.85 296.99,-26.56 238.85,-17.39"/>
<polygon fill="#63b8ff" stroke="#63b8ff" points="466.76,-56.88 477.18,-54.98 467.85,-49.97 466.76,-56.88"/>
</a>
</g>
</g>
<!-- Node10 -->
<g id="Node000010" class="node">
<title>Node10</title>
<g id="a_Node000010"><a xlink:href="client__ws_8cc.html" target="_top" xlink:title=" ">
<polygon fill="white" stroke="#666666" points="550.17,-19 444.17,-19 444.17,0 550.17,0 550.17,-19"/>
<text text-anchor="middle" x="497.17" y="-7" font-family="Helvetica,sans-Serif" font-size="10.00">client/client_ws.cc</text>
</a>
</g>
</g>
<!-- Node9&#45;&gt;Node10 -->
<g id="edge10_Node000009_Node000010" class="edge">
<title>Node9&#45;&gt;Node10</title>
<g id="a_edge10_Node000009_Node000010"><a xlink:title=" ">
<path fill="none" stroke="#63b8ff" d="M520.01,-46.1C514.19,-37.04 507.35,-26.37 502.68,-19.09"/>
<polygon fill="#63b8ff" stroke="#63b8ff" points="517.21,-48.22 525.55,-54.75 523.1,-44.44 517.21,-48.22"/>
</a>
</g>
</g>
<!-- Node9&#45;&gt;Node11 -->
<g id="edge11_Node000009_Node000011" class="edge">
<title>Node9&#45;&gt;Node11</title>
<g id="a_edge11_Node000009_Node000011"><a xlink:title=" ">
<path fill="none" stroke="#63b8ff" d="M559.28,-50.77C580.86,-40.99 610.08,-27.75 629.03,-19.17"/>
<polygon fill="#63b8ff" stroke="#63b8ff" points="557.63,-47.67 549.96,-54.98 560.52,-54.05 557.63,-47.67"/>
</a>
</g>
</g>
</g>
</svg>
