<?xml version="1.0" encoding="UTF-8" standalone="no"?>
<!DOCTYPE svg PUBLIC "-//W3C//DTD SVG 1.1//EN"
 "http://www.w3.org/Graphics/SVG/1.1/DTD/svg11.dtd">
<!-- Generated by graphviz version 2.43.0 (0)
 -->
<!-- Title: include/webcface/value.h Pages: 1 -->
<svg width="608pt" height="192pt"
 viewBox="0.00 0.00 607.64 192.00" xmlns="http://www.w3.org/2000/svg" xmlns:xlink="http://www.w3.org/1999/xlink">
<g id="graph0" class="graph" transform="scale(1 1) rotate(0) translate(4 188)">
<title>include/webcface/value.h</title>
<!-- Node1 -->
<g id="Node000001" class="node">
<title>Node1</title>
<g id="a_Node000001"><a xlink:title=" ">
<polygon fill="#999999" stroke="#666666" points="272.64,-184 132.64,-184 132.64,-165 272.64,-165 272.64,-184"/>
<text text-anchor="middle" x="202.64" y="-172" font-family="Helvetica,sans-Serif" font-size="10.00">include/webcface/value.h</text>
</a>
</g>
</g>
<!-- Node2 -->
<g id="Node000002" class="node">
<title>Node2</title>
<g id="a_Node000002"><a xlink:href="client_8cc.html" target="_top" xlink:title=" ">
<polygon fill="white" stroke="#666666" points="172.14,-19 85.14,-19 85.14,0 172.14,0 172.14,-19"/>
<text text-anchor="middle" x="128.64" y="-7" font-family="Helvetica,sans-Serif" font-size="10.00">client/client.cc</text>
</a>
</g>
</g>
<!-- Node1&#45;&gt;Node2 -->
<g id="edge1_Node000001_Node000002" class="edge">
<title>Node1&#45;&gt;Node2</title>
<g id="a_edge1_Node000001_Node000002"><a xlink:title=" ">
<path fill="none" stroke="#63b8ff" d="M140.66,-162.57C92.59,-150.3 29.87,-124.98 3.64,-74 -14.69,-38.4 42.15,-22.33 85.12,-15.39"/>
<polygon fill="#63b8ff" stroke="#63b8ff" points="140.14,-166.04 150.68,-164.99 141.79,-159.24 140.14,-166.04"/>
</a>
</g>
</g>
<!-- Node3 -->
<g id="Node000003" class="node">
<title>Node3</title>
<g id="a_Node000003"><a xlink:href="value_8cc.html" target="_top" xlink:title=" ">
<polygon fill="white" stroke="#666666" points="177.14,-129 90.14,-129 90.14,-110 177.14,-110 177.14,-129"/>
<text text-anchor="middle" x="133.64" y="-117" font-family="Helvetica,sans-Serif" font-size="10.00">client/value.cc</text>
</a>
</g>
</g>
<!-- Node1&#45;&gt;Node3 -->
<g id="edge2_Node000001_Node000003" class="edge">
<title>Node1&#45;&gt;Node3</title>
<g id="a_edge2_Node000001_Node000003"><a xlink:title=" ">
<path fill="none" stroke="#63b8ff" d="M183.6,-158.88C171.18,-149.34 155.39,-137.21 144.92,-129.17"/>
<polygon fill="#63b8ff" stroke="#63b8ff" points="181.49,-161.67 191.55,-164.98 185.75,-156.12 181.49,-161.67"/>
</a>
</g>
</g>
<!-- Node4 -->
<g id="Node000004" class="node">
<title>Node4</title>
<g id="a_Node000004"><a xlink:href="member_8h.html" target="_top" xlink:title=" ">
<polygon fill="white" stroke="#666666" points="349.64,-129 195.64,-129 195.64,-110 349.64,-110 349.64,-129"/>
<text text-anchor="middle" x="272.64" y="-117" font-family="Helvetica,sans-Serif" font-size="10.00">include/webcface/member.h</text>
</a>
</g>
</g>
<!-- Node1&#45;&gt;Node4 -->
<g id="edge3_Node000001_Node000004" class="edge">
<title>Node1&#45;&gt;Node4</title>
<g id="a_edge3_Node000001_Node000004"><a xlink:title=" ">
<path fill="none" stroke="#63b8ff" d="M221.95,-158.88C234.55,-149.34 250.56,-137.21 261.19,-129.17"/>
<polygon fill="#63b8ff" stroke="#63b8ff" points="219.74,-156.16 213.88,-164.98 223.97,-161.74 219.74,-156.16"/>
</a>
</g>
</g>
<!-- Node10 -->
<g id="Node000010" class="node">
<title>Node10</title>
<g id="a_Node000010"><a xlink:href="webcface_8h.html" target="_top" xlink:title=" ">
<polygon fill="white" stroke="#666666" points="599.64,-19 439.64,-19 439.64,0 599.64,0 599.64,-19"/>
<text text-anchor="middle" x="519.64" y="-7" font-family="Helvetica,sans-Serif" font-size="10.00">include/webcface/webcface.h</text>
</a>
</g>
</g>
<!-- Node1&#45;&gt;Node10 -->
<g id="edge12_Node000001_Node000010" class="edge">
<title>Node1&#45;&gt;Node10</title>
<g id="a_edge12_Node000001_Node000010"><a xlink:title=" ">
<path fill="none" stroke="#63b8ff" d="M283.18,-168.58C351.78,-159.97 447.85,-136.65 503.64,-74 517.55,-58.38 519.73,-32.41 519.85,-19.04"/>
<polygon fill="#63b8ff" stroke="#63b8ff" points="282.37,-165.16 272.85,-169.8 283.19,-172.11 282.37,-165.16"/>
</a>
</g>
</g>
<!-- Node5 -->
<g id="Node000005" class="node">
<title>Node5</title>
<g id="a_Node000005"><a xlink:href="field_8cc.html" target="_top" xlink:title=" ">
<polygon fill="white" stroke="#666666" points="94.14,-74 13.14,-74 13.14,-55 94.14,-55 94.14,-74"/>
<text text-anchor="middle" x="53.64" y="-62" font-family="Helvetica,sans-Serif" font-size="10.00">client/field.cc</text>
</a>
</g>
</g>
<!-- Node4&#45;&gt;Node5 -->
<g id="edge4_Node000004_Node000005" class="edge">
<title>Node4&#45;&gt;Node5</title>
<g id="a_edge4_Node000004_Node000005"><a xlink:title=" ">
<path fill="none" stroke="#63b8ff" d="M227.71,-107.63C186.69,-97.7 126.85,-83.22 89.1,-74.08"/>
<polygon fill="#63b8ff" stroke="#63b8ff" points="226.91,-111.03 237.45,-109.98 228.55,-104.23 226.91,-111.03"/>
</a>
</g>
</g>
<!-- Node6 -->
<g id="Node000006" class="node">
<title>Node6</title>
<g id="a_Node000006"><a xlink:href="member_8cc.html" target="_top" xlink:title=" ">
<polygon fill="white" stroke="#666666" points="213.14,-74 112.14,-74 112.14,-55 213.14,-55 213.14,-74"/>
<text text-anchor="middle" x="162.64" y="-62" font-family="Helvetica,sans-Serif" font-size="10.00">client/member.cc</text>
</a>
</g>
</g>
<!-- Node4&#45;&gt;Node6 -->
<g id="edge5_Node000004_Node000006" class="edge">
<title>Node4&#45;&gt;Node6</title>
<g id="a_edge5_Node000004_Node000006"><a xlink:title=" ">
<path fill="none" stroke="#63b8ff" d="M245.93,-105.63C225.67,-95.87 198.36,-82.71 180.63,-74.17"/>
<polygon fill="#63b8ff" stroke="#63b8ff" points="244.44,-108.8 254.96,-109.98 247.47,-102.49 244.44,-108.8"/>
</a>
</g>
</g>
<!-- Node7 -->
<g id="Node000007" class="node">
<title>Node7</title>
<g id="a_Node000007"><a xlink:href="view_8cc.html" target="_top" xlink:title=" ">
<polygon fill="white" stroke="#666666" points="314.14,-74 231.14,-74 231.14,-55 314.14,-55 314.14,-74"/>
<text text-anchor="middle" x="272.64" y="-62" font-family="Helvetica,sans-Serif" font-size="10.00">client/view.cc</text>
</a>
</g>
</g>
<!-- Node4&#45;&gt;Node7 -->
<g id="edge6_Node000004_Node000007" class="edge">
<title>Node4&#45;&gt;Node7</title>
<g id="a_edge6_Node000004_Node000007"><a xlink:title=" ">
<path fill="none" stroke="#63b8ff" d="M272.64,-99.66C272.64,-90.93 272.64,-80.99 272.64,-74.09"/>
<polygon fill="#63b8ff" stroke="#63b8ff" points="269.14,-99.75 272.64,-109.75 276.14,-99.75 269.14,-99.75"/>
</a>
</g>
</g>
<!-- Node8 -->
<g id="Node000008" class="node">
<title>Node8</title>
<g id="a_Node000008"><a xlink:href="client_8h.html" target="_top" xlink:title=" ">
<polygon fill="white" stroke="#666666" points="472.64,-74 332.64,-74 332.64,-55 472.64,-55 472.64,-74"/>
<text text-anchor="middle" x="402.64" y="-62" font-family="Helvetica,sans-Serif" font-size="10.00">include/webcface/client.h</text>
</a>
</g>
</g>
<!-- Node4&#45;&gt;Node8 -->
<g id="edge7_Node000004_Node000008" class="edge">
<title>Node4&#45;&gt;Node8</title>
<g id="a_edge7_Node000004_Node000008"><a xlink:title=" ">
<path fill="none" stroke="#63b8ff" d="M302.91,-106.16C326.97,-96.35 360.03,-82.87 381.37,-74.17"/>
<polygon fill="#63b8ff" stroke="#63b8ff" points="301.46,-102.97 293.52,-109.98 304.11,-109.45 301.46,-102.97"/>
</a>
</g>
</g>
<!-- Node4&#45;&gt;Node10 -->
<g id="edge11_Node000004_Node000010" class="edge">
<title>Node4&#45;&gt;Node10</title>
<g id="a_edge11_Node000004_Node000010"><a xlink:title=" ">
<path fill="none" stroke="#63b8ff" d="M359.74,-115.67C399.94,-110.63 446.44,-99.16 481.64,-74 501.08,-60.1 512.33,-32.88 517.03,-19.03"/>
<polygon fill="#63b8ff" stroke="#63b8ff" points="359.21,-112.2 349.67,-116.81 360,-119.16 359.21,-112.2"/>
</a>
</g>
</g>
<!-- Node8&#45;&gt;Node2 -->
<g id="edge8_Node000008_Node000002" class="edge">
<title>Node8&#45;&gt;Node2</title>
<g id="a_edge8_Node000008_Node000002"><a xlink:title=" ">
<path fill="none" stroke="#63b8ff" d="M348.66,-53.06C297.13,-43.09 220.44,-28.26 172.55,-18.99"/>
<polygon fill="#63b8ff" stroke="#63b8ff" points="348.13,-56.52 358.61,-54.98 349.46,-49.65 348.13,-56.52"/>
</a>
</g>
</g>
<!-- Node9 -->
<g id="Node000009" class="node">
<title>Node9</title>
<g id="a_Node000009"><a xlink:href="client__ws_8cc.html" target="_top" xlink:title=" ">
<polygon fill="white" stroke="#666666" points="421.64,-19 315.64,-19 315.64,0 421.64,0 421.64,-19"/>
<text text-anchor="middle" x="368.64" y="-7" font-family="Helvetica,sans-Serif" font-size="10.00">client/client_ws.cc</text>
</a>
</g>
</g>
<!-- Node8&#45;&gt;Node9 -->
<g id="edge9_Node000008_Node000009" class="edge">
<title>Node8&#45;&gt;Node9</title>
<g id="a_edge9_Node000008_Node000009"><a xlink:title=" ">
<path fill="none" stroke="#63b8ff" d="M391.48,-46.1C385.67,-37.04 378.82,-26.37 374.15,-19.09"/>
<polygon fill="#63b8ff" stroke="#63b8ff" points="388.68,-48.22 397.02,-54.75 394.57,-44.44 388.68,-48.22"/>
</a>
</g>
</g>
<!-- Node8&#45;&gt;Node10 -->
<g id="edge10_Node000008_Node000010" class="edge">
<title>Node8&#45;&gt;Node10</title>
<g id="a_edge10_Node000008_Node000010"><a xlink:title=" ">
<path fill="none" stroke="#63b8ff" d="M430.75,-50.77C452.33,-40.99 481.55,-27.75 500.5,-19.17"/>
<polygon fill="#63b8ff" stroke="#63b8ff" points="429.1,-47.67 421.43,-54.98 431.99,-54.05 429.1,-47.67"/>
</a>
</g>
</g>
</g>
</svg>
