<?xml version="1.0" encoding="UTF-8" standalone="no"?>
<!DOCTYPE svg PUBLIC "-//W3C//DTD SVG 1.1//EN"
 "http://www.w3.org/Graphics/SVG/1.1/DTD/svg11.dtd">
<!-- Generated by graphviz version 2.43.0 (0)
 -->
<!-- Title: include/webcface/common/vector.h Pages: 1 -->
<svg width="1206pt" height="324pt"
 viewBox="0.00 0.00 1205.57 324.00" xmlns="http://www.w3.org/2000/svg" xmlns:xlink="http://www.w3.org/1999/xlink">
<g id="graph0" class="graph" transform="scale(1 1) rotate(0) translate(4 320)">
<title>include/webcface/common/vector.h</title>
<!-- Node1 -->
<g id="Node000001" class="node">
<title>Node1</title>
<g id="a_Node000001"><a xlink:title=" ">
<polygon fill="#999999" stroke="#666666" points="789.07,-316 642.07,-316 642.07,-286 789.07,-286 789.07,-316"/>
<text text-anchor="start" x="650.07" y="-304" font-family="Helvetica,sans-Serif" font-size="10.00">include/webcface/common</text>
<text text-anchor="middle" x="715.57" y="-293" font-family="Helvetica,sans-Serif" font-size="10.00">/vector.h</text>
</a>
</g>
</g>
<!-- Node2 -->
<g id="Node000002" class="node">
<title>Node2</title>
<g id="a_Node000002"><a xlink:href="client__internal_8h.html" target="_top" xlink:title=" ">
<polygon fill="white" stroke="#666666" points="454.07,-129 329.07,-129 329.07,-110 454.07,-110 454.07,-129"/>
<text text-anchor="middle" x="391.57" y="-117" font-family="Helvetica,sans-Serif" font-size="10.00">client/client_internal.h</text>
</a>
</g>
</g>
<!-- Node1&#45;&gt;Node2 -->
<g id="edge1_Node000001_Node000002" class="edge">
<title>Node1&#45;&gt;Node2</title>
<g id="a_edge1_Node000001_Node000002"><a xlink:title=" ">
<path fill="none" stroke="#63b8ff" d="M670.2,-282.09C619.97,-261.44 537.38,-225.02 471.57,-184 444.18,-166.93 415.3,-142.04 400.89,-129.07"/>
<polygon fill="#63b8ff" stroke="#63b8ff" points="668.92,-285.35 679.5,-285.89 671.56,-278.87 668.92,-285.35"/>
</a>
</g>
</g>
<!-- Node13 -->
<g id="Node000013" class="node">
<title>Node13</title>
<g id="a_Node000013"><a xlink:href="dict_8h.html" target="_top" xlink:title=" ">
<polygon fill="white" stroke="#666666" points="789.07,-250 642.07,-250 642.07,-220 789.07,-220 789.07,-250"/>
<text text-anchor="start" x="650.07" y="-238" font-family="Helvetica,sans-Serif" font-size="10.00">include/webcface/common</text>
<text text-anchor="middle" x="715.57" y="-227" font-family="Helvetica,sans-Serif" font-size="10.00">/dict.h</text>
</a>
</g>
</g>
<!-- Node1&#45;&gt;Node13 -->
<g id="edge12_Node000001_Node000013" class="edge">
<title>Node1&#45;&gt;Node13</title>
<g id="a_edge12_Node000001_Node000013"><a xlink:title=" ">
<path fill="none" stroke="#63b8ff" d="M715.57,-275.54C715.57,-266.96 715.57,-257.61 715.57,-250.16"/>
<polygon fill="#63b8ff" stroke="#63b8ff" points="712.07,-275.8 715.57,-285.8 719.07,-275.8 712.07,-275.8"/>
</a>
</g>
</g>
<!-- Node20 -->
<g id="Node000020" class="node">
<title>Node20</title>
<g id="a_Node000020"><a xlink:href="value_8h.html" target="_top" xlink:title=" ">
<polygon fill="white" stroke="#666666" points="927.57,-184 787.57,-184 787.57,-165 927.57,-165 927.57,-184"/>
<text text-anchor="middle" x="857.57" y="-172" font-family="Helvetica,sans-Serif" font-size="10.00">include/webcface/value.h</text>
</a>
</g>
</g>
<!-- Node1&#45;&gt;Node20 -->
<g id="edge37_Node000001_Node000020" class="edge">
<title>Node1&#45;&gt;Node20</title>
<g id="a_edge37_Node000001_Node000020"><a xlink:title=" ">
<path fill="none" stroke="#63b8ff" d="M753.52,-280.95C768.39,-272.54 785.07,-261.87 798.57,-250 821.85,-229.51 842.76,-198.94 852.22,-184.14"/>
<polygon fill="#63b8ff" stroke="#63b8ff" points="751.63,-277.99 744.55,-285.88 755,-284.13 751.63,-277.99"/>
</a>
</g>
</g>
<!-- Node3 -->
<g id="Node000003" class="node">
<title>Node3</title>
<g id="a_Node000003"><a xlink:href="client_8cc.html" target="_top" xlink:title=" ">
<polygon fill="white" stroke="#666666" points="863.07,-19 776.07,-19 776.07,0 863.07,0 863.07,-19"/>
<text text-anchor="middle" x="819.57" y="-7" font-family="Helvetica,sans-Serif" font-size="10.00">client/client.cc</text>
</a>
</g>
</g>
<!-- Node2&#45;&gt;Node3 -->
<g id="edge2_Node000002_Node000003" class="edge">
<title>Node2&#45;&gt;Node3</title>
<g id="a_edge2_Node000002_Node000003"><a xlink:title=" ">
<path fill="none" stroke="#63b8ff" d="M318.59,-116.32C203.99,-111.6 -1.28,-97.18 38.57,-55 64.04,-28.04 614.98,-14.68 775.84,-11.35"/>
<polygon fill="#63b8ff" stroke="#63b8ff" points="318.58,-119.83 328.71,-116.73 318.86,-112.83 318.58,-119.83"/>
</a>
</g>
</g>
<!-- Node4 -->
<g id="Node000004" class="node">
<title>Node4</title>
<g id="a_Node000004"><a xlink:href="client__ws_8cc.html" target="_top" xlink:title=" ">
<polygon fill="white" stroke="#666666" points="473.57,-19 367.57,-19 367.57,0 473.57,0 473.57,-19"/>
<text text-anchor="middle" x="420.57" y="-7" font-family="Helvetica,sans-Serif" font-size="10.00">client/client_ws.cc</text>
</a>
</g>
</g>
<!-- Node2&#45;&gt;Node4 -->
<g id="edge3_Node000002_Node000004" class="edge">
<title>Node2&#45;&gt;Node4</title>
<g id="a_edge3_Node000002_Node000004"><a xlink:title=" ">
<path fill="none" stroke="#63b8ff" d="M318.58,-117.57C195.14,-114.68 -37.48,-102.91 5.57,-55 29.33,-28.56 260.54,-16.5 367.18,-12.32"/>
<polygon fill="#63b8ff" stroke="#63b8ff" points="318.65,-121.07 328.72,-117.79 318.8,-114.07 318.65,-121.07"/>
</a>
</g>
</g>
<!-- Node5 -->
<g id="Node000005" class="node">
<title>Node5</title>
<g id="a_Node000005"><a xlink:href="field_8cc.html" target="_top" xlink:title=" ">
<polygon fill="white" stroke="#666666" points="774.07,-74 693.07,-74 693.07,-55 774.07,-55 774.07,-74"/>
<text text-anchor="middle" x="733.57" y="-62" font-family="Helvetica,sans-Serif" font-size="10.00">client/field.cc</text>
</a>
</g>
</g>
<!-- Node2&#45;&gt;Node5 -->
<g id="edge4_Node000002_Node000005" class="edge">
<title>Node2&#45;&gt;Node5</title>
<g id="a_edge4_Node000002_Node000005"><a xlink:title=" ">
<path fill="none" stroke="#63b8ff" d="M456.49,-108.44C526.12,-97.65 634.53,-80.85 692.96,-71.79"/>
<polygon fill="#63b8ff" stroke="#63b8ff" points="455.86,-104.99 446.51,-109.98 456.93,-111.91 455.86,-104.99"/>
</a>
</g>
</g>
<!-- Node6 -->
<g id="Node000006" class="node">
<title>Node6</title>
<g id="a_Node000006"><a xlink:href="func_8cc.html" target="_top" xlink:title=" ">
<polygon fill="white" stroke="#666666" points="331.07,-74 250.07,-74 250.07,-55 331.07,-55 331.07,-74"/>
<text text-anchor="middle" x="290.57" y="-62" font-family="Helvetica,sans-Serif" font-size="10.00">client/func.cc</text>
</a>
</g>
</g>
<!-- Node2&#45;&gt;Node6 -->
<g id="edge5_Node000002_Node000006" class="edge">
<title>Node2&#45;&gt;Node6</title>
<g id="a_edge5_Node000002_Node000006"><a xlink:title=" ">
<path fill="none" stroke="#63b8ff" d="M366.28,-105.23C347.76,-95.51 323.15,-82.6 307.09,-74.17"/>
<polygon fill="#63b8ff" stroke="#63b8ff" points="364.86,-108.44 375.34,-109.98 368.11,-102.24 364.86,-108.44"/>
</a>
</g>
</g>
<!-- Node7 -->
<g id="Node000007" class="node">
<title>Node7</title>
<g id="a_Node000007"><a xlink:href="log_8cc.html" target="_top" xlink:title=" ">
<polygon fill="white" stroke="#666666" points="123.07,-74 48.07,-74 48.07,-55 123.07,-55 123.07,-74"/>
<text text-anchor="middle" x="85.57" y="-62" font-family="Helvetica,sans-Serif" font-size="10.00">client/log.cc</text>
</a>
</g>
</g>
<!-- Node2&#45;&gt;Node7 -->
<g id="edge6_Node000002_Node000007" class="edge">
<title>Node2&#45;&gt;Node7</title>
<g id="a_edge6_Node000002_Node000007"><a xlink:title=" ">
<path fill="none" stroke="#63b8ff" d="M330.77,-108.21C278.27,-99.28 200.38,-85.96 132.57,-74 129.54,-73.47 126.41,-72.91 123.27,-72.35"/>
<polygon fill="#63b8ff" stroke="#63b8ff" points="330.48,-111.71 340.92,-109.93 331.65,-104.81 330.48,-111.71"/>
</a>
</g>
</g>
<!-- Node8 -->
<g id="Node000008" class="node">
<title>Node8</title>
<g id="a_Node000008"><a xlink:href="logger_8cc.html" target="_top" xlink:title=" ">
<polygon fill="white" stroke="#666666" points="231.57,-74 141.57,-74 141.57,-55 231.57,-55 231.57,-74"/>
<text text-anchor="middle" x="186.57" y="-62" font-family="Helvetica,sans-Serif" font-size="10.00">client/logger.cc</text>
</a>
</g>
</g>
<!-- Node2&#45;&gt;Node8 -->
<g id="edge7_Node000002_Node000008" class="edge">
<title>Node2&#45;&gt;Node8</title>
<g id="a_edge7_Node000002_Node000008"><a xlink:title=" ">
<path fill="none" stroke="#63b8ff" d="M348.78,-107.44C310.4,-97.52 254.87,-83.16 219.76,-74.08"/>
<polygon fill="#63b8ff" stroke="#63b8ff" points="348.07,-110.87 358.63,-109.98 349.82,-104.09 348.07,-110.87"/>
</a>
</g>
</g>
<!-- Node9 -->
<g id="Node000009" class="node">
<title>Node9</title>
<g id="a_Node000009"><a xlink:href="member_8cc.html" target="_top" xlink:title=" ">
<polygon fill="white" stroke="#666666" points="893.07,-74 792.07,-74 792.07,-55 893.07,-55 893.07,-74"/>
<text text-anchor="middle" x="842.57" y="-62" font-family="Helvetica,sans-Serif" font-size="10.00">client/member.cc</text>
</a>
</g>
</g>
<!-- Node2&#45;&gt;Node9 -->
<g id="edge8_Node000002_Node000009" class="edge">
<title>Node2&#45;&gt;Node9</title>
<g id="a_edge8_Node000002_Node000009"><a xlink:title=" ">
<path fill="none" stroke="#63b8ff" d="M464.5,-110.34C569.16,-98.61 752.79,-77.96 783.57,-74 786.34,-73.64 789.18,-73.27 792.05,-72.88"/>
<polygon fill="#63b8ff" stroke="#63b8ff" points="463.86,-106.89 454.31,-111.48 464.64,-113.85 463.86,-106.89"/>
</a>
</g>
</g>
<!-- Node10 -->
<g id="Node000010" class="node">
<title>Node10</title>
<g id="a_Node000010"><a xlink:href="text_8cc.html" target="_top" xlink:title=" ">
<polygon fill="white" stroke="#666666" points="429.57,-74 349.57,-74 349.57,-55 429.57,-55 429.57,-74"/>
<text text-anchor="middle" x="389.57" y="-62" font-family="Helvetica,sans-Serif" font-size="10.00">client/text.cc</text>
</a>
</g>
</g>
<!-- Node2&#45;&gt;Node10 -->
<g id="edge9_Node000002_Node000010" class="edge">
<title>Node2&#45;&gt;Node10</title>
<g id="a_edge9_Node000002_Node000010"><a xlink:title=" ">
<path fill="none" stroke="#63b8ff" d="M390.85,-99.66C390.52,-90.93 390.15,-80.99 389.89,-74.09"/>
<polygon fill="#63b8ff" stroke="#63b8ff" points="387.36,-99.89 391.23,-109.75 394.36,-99.62 387.36,-99.89"/>
</a>
</g>
</g>
<!-- Node11 -->
<g id="Node000011" class="node">
<title>Node11</title>
<g id="a_Node000011"><a xlink:href="value_8cc.html" target="_top" xlink:title=" ">
<polygon fill="white" stroke="#666666" points="535.07,-74 448.07,-74 448.07,-55 535.07,-55 535.07,-74"/>
<text text-anchor="middle" x="491.57" y="-62" font-family="Helvetica,sans-Serif" font-size="10.00">client/value.cc</text>
</a>
</g>
</g>
<!-- Node2&#45;&gt;Node11 -->
<g id="edge10_Node000002_Node000011" class="edge">
<title>Node2&#45;&gt;Node11</title>
<g id="a_edge10_Node000002_Node000011"><a xlink:title=" ">
<path fill="none" stroke="#63b8ff" d="M416.6,-105.23C434.94,-95.51 459.3,-82.6 475.21,-74.17"/>
<polygon fill="#63b8ff" stroke="#63b8ff" points="414.83,-102.21 407.63,-109.98 418.11,-108.39 414.83,-102.21"/>
</a>
</g>
</g>
<!-- Node12 -->
<g id="Node000012" class="node">
<title>Node12</title>
<g id="a_Node000012"><a xlink:href="view_8cc.html" target="_top" xlink:title=" ">
<polygon fill="white" stroke="#666666" points="636.07,-74 553.07,-74 553.07,-55 636.07,-55 636.07,-74"/>
<text text-anchor="middle" x="594.57" y="-62" font-family="Helvetica,sans-Serif" font-size="10.00">client/view.cc</text>
</a>
</g>
</g>
<!-- Node2&#45;&gt;Node12 -->
<g id="edge11_Node000002_Node000012" class="edge">
<title>Node2&#45;&gt;Node12</title>
<g id="a_edge11_Node000002_Node000012"><a xlink:title=" ">
<path fill="none" stroke="#63b8ff" d="M433.94,-107.44C471.94,-97.52 526.92,-83.16 561.69,-74.08"/>
<polygon fill="#63b8ff" stroke="#63b8ff" points="432.97,-104.07 424.18,-109.98 434.74,-110.84 432.97,-104.07"/>
</a>
</g>
</g>
<!-- Node14 -->
<g id="Node000014" class="node">
<title>Node14</title>
<g id="a_Node000014"><a xlink:href="data__store2_8h.html" target="_top" xlink:title=" ">
<polygon fill="white" stroke="#666666" points="593.07,-184 480.07,-184 480.07,-165 593.07,-165 593.07,-184"/>
<text text-anchor="middle" x="536.57" y="-172" font-family="Helvetica,sans-Serif" font-size="10.00">client/data_store2.h</text>
</a>
</g>
</g>
<!-- Node13&#45;&gt;Node14 -->
<g id="edge13_Node000013_Node000014" class="edge">
<title>Node13&#45;&gt;Node14</title>
<g id="a_edge13_Node000013_Node000014"><a xlink:title=" ">
<path fill="none" stroke="#63b8ff" d="M663.18,-216.88C630.18,-206.09 589,-192.64 562.74,-184.05"/>
<polygon fill="#63b8ff" stroke="#63b8ff" points="662.1,-220.21 672.69,-219.99 664.27,-213.55 662.1,-220.21"/>
</a>
</g>
</g>
<!-- Node16 -->
<g id="Node000016" class="node">
<title>Node16</title>
<g id="a_Node000016"><a xlink:href="text_8h.html" target="_top" xlink:title=" ">
<polygon fill="white" stroke="#666666" points="769.07,-184 636.07,-184 636.07,-165 769.07,-165 769.07,-184"/>
<text text-anchor="middle" x="702.57" y="-172" font-family="Helvetica,sans-Serif" font-size="10.00">include/webcface/text.h</text>
</a>
</g>
</g>
<!-- Node13&#45;&gt;Node16 -->
<g id="edge16_Node000013_Node000016" class="edge">
<title>Node13&#45;&gt;Node16</title>
<g id="a_edge16_Node000013_Node000016"><a xlink:title=" ">
<path fill="none" stroke="#63b8ff" d="M710.24,-210.04C708.22,-200.93 706.03,-191.1 704.51,-184.27"/>
<polygon fill="#63b8ff" stroke="#63b8ff" points="706.83,-210.84 712.42,-219.84 713.67,-209.32 706.83,-210.84"/>
</a>
</g>
</g>
<!-- Node19 -->
<g id="Node000019" class="node">
<title>Node19</title>
<g id="a_Node000019"><a xlink:href="webcface_8h.html" target="_top" xlink:title=" ">
<polygon fill="white" stroke="#666666" points="1197.57,-19 1037.57,-19 1037.57,0 1197.57,0 1197.57,-19"/>
<text text-anchor="middle" x="1117.57" y="-7" font-family="Helvetica,sans-Serif" font-size="10.00">include/webcface/webcface.h</text>
</a>
</g>
</g>
<!-- Node13&#45;&gt;Node19 -->
<g id="edge36_Node000013_Node000019" class="edge">
<title>Node13&#45;&gt;Node19</title>
<g id="a_edge36_Node000013_Node000019"><a xlink:title=" ">
<path fill="none" stroke="#63b8ff" d="M799.33,-228.14C878.53,-218.66 996.8,-193.87 1076.57,-129 1099.23,-110.57 1103.12,-101.65 1112.57,-74 1118.93,-55.37 1118.86,-31.95 1118.23,-19.4"/>
<polygon fill="#63b8ff" stroke="#63b8ff" points="798.93,-224.66 789.39,-229.27 799.72,-231.62 798.93,-224.66"/>
</a>
</g>
</g>
<!-- Node13&#45;&gt;Node20 -->
<g id="edge30_Node000013_Node000020" class="edge">
<title>Node13&#45;&gt;Node20</title>
<g id="a_edge30_Node000013_Node000020"><a xlink:title=" ">
<path fill="none" stroke="#63b8ff" d="M759.13,-216.05C784.86,-205.45 816.28,-192.51 836.59,-184.14"/>
<polygon fill="#63b8ff" stroke="#63b8ff" points="757.49,-212.94 749.58,-219.99 760.16,-219.41 757.49,-212.94"/>
</a>
</g>
</g>
<!-- Node14&#45;&gt;Node2 -->
<g id="edge14_Node000014_Node000002" class="edge">
<title>Node14&#45;&gt;Node2</title>
<g id="a_edge14_Node000014_Node000002"><a xlink:title=" ">
<path fill="none" stroke="#63b8ff" d="M503.87,-161.55C476.95,-151.71 439.4,-137.98 415.29,-129.17"/>
<polygon fill="#63b8ff" stroke="#63b8ff" points="502.67,-164.84 513.27,-164.98 505.08,-158.26 502.67,-164.84"/>
</a>
</g>
</g>
<!-- Node15 -->
<g id="Node000015" class="node">
<title>Node15</title>
<g id="a_Node000015"><a xlink:href="data__store2_8cc.html" target="_top" xlink:title=" ">
<polygon fill="white" stroke="#666666" points="595.57,-129 477.57,-129 477.57,-110 595.57,-110 595.57,-129"/>
<text text-anchor="middle" x="536.57" y="-117" font-family="Helvetica,sans-Serif" font-size="10.00">client/data_store2.cc</text>
</a>
</g>
</g>
<!-- Node14&#45;&gt;Node15 -->
<g id="edge15_Node000014_Node000015" class="edge">
<title>Node14&#45;&gt;Node15</title>
<g id="a_edge15_Node000014_Node000015"><a xlink:title=" ">
<path fill="none" stroke="#63b8ff" d="M536.57,-154.66C536.57,-145.93 536.57,-135.99 536.57,-129.09"/>
<polygon fill="#63b8ff" stroke="#63b8ff" points="533.07,-154.75 536.57,-164.75 540.07,-154.75 533.07,-154.75"/>
</a>
</g>
</g>
<!-- Node16&#45;&gt;Node3 -->
<g id="edge17_Node000016_Node000003" class="edge">
<title>Node16&#45;&gt;Node3</title>
<g id="a_edge17_Node000016_Node000003"><a xlink:title=" ">
<path fill="none" stroke="#63b8ff" d="M692.61,-155.74C680.12,-130.79 662.81,-85.08 684.57,-55 705.25,-26.41 744.95,-15.87 775.97,-12.14"/>
<polygon fill="#63b8ff" stroke="#63b8ff" points="689.62,-157.56 697.39,-164.77 695.81,-154.29 689.62,-157.56"/>
</a>
</g>
</g>
<!-- Node16&#45;&gt;Node9 -->
<g id="edge18_Node000016_Node000009" class="edge">
<title>Node16&#45;&gt;Node9</title>
<g id="a_edge18_Node000016_Node000009"><a xlink:title=" ">
<path fill="none" stroke="#63b8ff" d="M714.95,-156.72C725.68,-142.98 742.17,-123.66 759.57,-110 778.98,-94.75 804.37,-82.01 821.93,-74.12"/>
<polygon fill="#63b8ff" stroke="#63b8ff" points="712.06,-154.75 708.78,-164.82 717.63,-158.99 712.06,-154.75"/>
</a>
</g>
</g>
<!-- Node16&#45;&gt;Node10 -->
<g id="edge19_Node000016_Node000010" class="edge">
<title>Node16&#45;&gt;Node10</title>
<g id="a_edge19_Node000016_Node000010"><a xlink:title=" ">
<path fill="none" stroke="#63b8ff" d="M684.11,-158.52C665.24,-143.96 634.52,-122.3 604.57,-110 588.61,-103.45 487.74,-83.92 430,-73.03"/>
<polygon fill="#63b8ff" stroke="#63b8ff" points="682.12,-161.41 692.14,-164.84 686.45,-155.91 682.12,-161.41"/>
</a>
</g>
</g>
<!-- Node17 -->
<g id="Node000017" class="node">
<title>Node17</title>
<g id="a_Node000017"><a xlink:href="member_8h.html" target="_top" xlink:title=" ">
<polygon fill="white" stroke="#666666" points="922.57,-129 768.57,-129 768.57,-110 922.57,-110 922.57,-129"/>
<text text-anchor="middle" x="845.57" y="-117" font-family="Helvetica,sans-Serif" font-size="10.00">include/webcface/member.h</text>
</a>
</g>
</g>
<!-- Node16&#45;&gt;Node17 -->
<g id="edge20_Node000016_Node000017" class="edge">
<title>Node16&#45;&gt;Node17</title>
<g id="a_edge20_Node000016_Node000017"><a xlink:title=" ">
<path fill="none" stroke="#63b8ff" d="M735.16,-161.42C761.69,-151.59 798.49,-137.95 822.17,-129.17"/>
<polygon fill="#63b8ff" stroke="#63b8ff" points="733.7,-158.23 725.54,-164.98 736.13,-164.79 733.7,-158.23"/>
</a>
</g>
</g>
<!-- Node16&#45;&gt;Node19 -->
<g id="edge29_Node000016_Node000019" class="edge">
<title>Node16&#45;&gt;Node19</title>
<g id="a_edge29_Node000016_Node000019"><a xlink:title=" ">
<path fill="none" stroke="#63b8ff" d="M770.55,-163.38C867.55,-147.72 1039.07,-115.07 1085.57,-74 1102.59,-58.96 1111.67,-32.74 1115.44,-19.17"/>
<polygon fill="#63b8ff" stroke="#63b8ff" points="769.87,-159.95 760.55,-164.98 770.97,-166.86 769.87,-159.95"/>
</a>
</g>
</g>
<!-- Node17&#45;&gt;Node5 -->
<g id="edge21_Node000017_Node000005" class="edge">
<title>Node17&#45;&gt;Node5</title>
<g id="a_edge21_Node000017_Node000005"><a xlink:title=" ">
<path fill="none" stroke="#63b8ff" d="M818.37,-105.63C797.74,-95.87 769.94,-82.71 751.89,-74.17"/>
<polygon fill="#63b8ff" stroke="#63b8ff" points="817.03,-108.87 827.57,-109.98 820.03,-102.54 817.03,-108.87"/>
</a>
</g>
</g>
<!-- Node17&#45;&gt;Node9 -->
<g id="edge22_Node000017_Node000009" class="edge">
<title>Node17&#45;&gt;Node9</title>
<g id="a_edge22_Node000017_Node000009"><a xlink:title=" ">
<path fill="none" stroke="#63b8ff" d="M844.5,-99.66C844,-90.93 843.44,-80.99 843.05,-74.09"/>
<polygon fill="#63b8ff" stroke="#63b8ff" points="841.01,-99.96 845.07,-109.75 848,-99.57 841.01,-99.96"/>
</a>
</g>
</g>
<!-- Node17&#45;&gt;Node12 -->
<g id="edge23_Node000017_Node000012" class="edge">
<title>Node17&#45;&gt;Node12</title>
<g id="a_edge23_Node000017_Node000012"><a xlink:title=" ">
<path fill="none" stroke="#63b8ff" d="M795.26,-107.88C748.22,-97.94 678.84,-83.3 635.21,-74.08"/>
<polygon fill="#63b8ff" stroke="#63b8ff" points="794.73,-111.34 805.24,-109.98 796.18,-104.49 794.73,-111.34"/>
</a>
</g>
</g>
<!-- Node18 -->
<g id="Node000018" class="node">
<title>Node18</title>
<g id="a_Node000018"><a xlink:href="client_8h.html" target="_top" xlink:title=" ">
<polygon fill="white" stroke="#666666" points="1051.57,-74 911.57,-74 911.57,-55 1051.57,-55 1051.57,-74"/>
<text text-anchor="middle" x="981.57" y="-62" font-family="Helvetica,sans-Serif" font-size="10.00">include/webcface/client.h</text>
</a>
</g>
</g>
<!-- Node17&#45;&gt;Node18 -->
<g id="edge24_Node000017_Node000018" class="edge">
<title>Node17&#45;&gt;Node18</title>
<g id="a_edge24_Node000017_Node000018"><a xlink:title=" ">
<path fill="none" stroke="#63b8ff" d="M876.9,-106.29C902.1,-96.47 936.9,-82.91 959.32,-74.17"/>
<polygon fill="#63b8ff" stroke="#63b8ff" points="875.46,-103.09 867.42,-109.98 878,-109.61 875.46,-103.09"/>
</a>
</g>
</g>
<!-- Node17&#45;&gt;Node19 -->
<g id="edge28_Node000017_Node000019" class="edge">
<title>Node17&#45;&gt;Node19</title>
<g id="a_edge28_Node000017_Node000019"><a xlink:title=" ">
<path fill="none" stroke="#63b8ff" d="M932.59,-113.06C973.59,-107.45 1021.87,-96.24 1060.57,-74 1084.45,-60.27 1103.72,-32.97 1112.47,-19.07"/>
<polygon fill="#63b8ff" stroke="#63b8ff" points="932.08,-109.6 922.61,-114.34 932.97,-116.54 932.08,-109.6"/>
</a>
</g>
</g>
<!-- Node18&#45;&gt;Node3 -->
<g id="edge25_Node000018_Node000003" class="edge">
<title>Node18&#45;&gt;Node3</title>
<g id="a_edge25_Node000018_Node000003"><a xlink:title=" ">
<path fill="none" stroke="#63b8ff" d="M945.8,-51.8C915.56,-41.91 872.96,-27.97 845.8,-19.08"/>
<polygon fill="#63b8ff" stroke="#63b8ff" points="944.94,-55.2 955.54,-54.98 947.12,-48.55 944.94,-55.2"/>
</a>
</g>
</g>
<!-- Node18&#45;&gt;Node4 -->
<g id="edge26_Node000018_Node000004" class="edge">
<title>Node18&#45;&gt;Node4</title>
<g id="a_edge26_Node000018_Node000004"><a xlink:title=" ">
<path fill="none" stroke="#63b8ff" d="M901.21,-54.88C739.31,-38.76 560.75,-22.8 473.73,-15.14"/>
<polygon fill="#63b8ff" stroke="#63b8ff" points="901.06,-58.38 911.36,-55.89 901.76,-51.41 901.06,-58.38"/>
</a>
</g>
</g>
<!-- Node18&#45;&gt;Node19 -->
<g id="edge27_Node000018_Node000019" class="edge">
<title>Node18&#45;&gt;Node19</title>
<g id="a_edge27_Node000018_Node000019"><a xlink:title=" ">
<path fill="none" stroke="#63b8ff" d="M1012.9,-51.29C1038.1,-41.47 1072.9,-27.91 1095.32,-19.17"/>
<polygon fill="#63b8ff" stroke="#63b8ff" points="1011.46,-48.09 1003.42,-54.98 1014,-54.61 1011.46,-48.09"/>
</a>
</g>
</g>
<!-- Node20&#45;&gt;Node3 -->
<g id="edge31_Node000020_Node000003" class="edge">
<title>Node20&#45;&gt;Node3</title>
<g id="a_edge31_Node000020_Node000003"><a xlink:title=" ">
<path fill="none" stroke="#63b8ff" d="M914.94,-162.88C990.1,-146.51 1107.16,-110.98 1060.57,-55 1035.93,-25.4 925.66,-15.41 863.16,-12.1"/>
<polygon fill="#63b8ff" stroke="#63b8ff" points="914.15,-159.48 905.09,-164.98 915.6,-166.32 914.15,-159.48"/>
</a>
</g>
</g>
<!-- Node20&#45;&gt;Node9 -->
<g id="edge32_Node000020_Node000009" class="edge">
<title>Node20&#45;&gt;Node9</title>
<g id="a_edge32_Node000020_Node000009"><a xlink:title=" ">
<path fill="none" stroke="#63b8ff" d="M892.06,-160.93C917.27,-149.65 944.9,-131.58 931.57,-110 920.21,-91.63 898.73,-80.59 879.71,-74.1"/>
<polygon fill="#63b8ff" stroke="#63b8ff" points="890.46,-157.81 882.61,-164.92 893.18,-164.26 890.46,-157.81"/>
</a>
</g>
</g>
<!-- Node20&#45;&gt;Node11 -->
<g id="edge33_Node000020_Node000011" class="edge">
<title>Node20&#45;&gt;Node11</title>
<g id="a_edge33_Node000020_Node000011"><a xlink:title=" ">
<path fill="none" stroke="#63b8ff" d="M818.71,-162.03C744.91,-140.26 586,-93.36 520.59,-74.07"/>
<polygon fill="#63b8ff" stroke="#63b8ff" points="817.96,-165.46 828.54,-164.94 819.94,-158.75 817.96,-165.46"/>
</a>
</g>
</g>
<!-- Node20&#45;&gt;Node17 -->
<g id="edge34_Node000020_Node000017" class="edge">
<title>Node20&#45;&gt;Node17</title>
<g id="a_edge34_Node000020_Node000017"><a xlink:title=" ">
<path fill="none" stroke="#63b8ff" d="M853.37,-154.95C851.37,-146.15 849.09,-136.06 847.51,-129.09"/>
<polygon fill="#63b8ff" stroke="#63b8ff" points="849.96,-155.77 855.58,-164.75 856.79,-154.22 849.96,-155.77"/>
</a>
</g>
</g>
<!-- Node20&#45;&gt;Node19 -->
<g id="edge35_Node000020_Node000019" class="edge">
<title>Node20&#45;&gt;Node19</title>
<g id="a_edge35_Node000020_Node000019"><a xlink:title=" ">
<path fill="none" stroke="#63b8ff" d="M938.03,-170.41C976.25,-165.38 1020.66,-153.99 1053.57,-129 1091.74,-100.01 1109.82,-41.46 1115.5,-19.28"/>
<polygon fill="#63b8ff" stroke="#63b8ff" points="937.46,-166.95 927.95,-171.61 938.29,-173.9 937.46,-166.95"/>
</a>
</g>
</g>
</g>
</svg>
