<?xml version="1.0" encoding="UTF-8" standalone="no"?>
<!DOCTYPE svg PUBLIC "-//W3C//DTD SVG 1.1//EN"
 "http://www.w3.org/Graphics/SVG/1.1/DTD/svg11.dtd">
<!-- Generated by graphviz version 2.43.0 (0)
 -->
<!-- Title: include/webcface/common/vector.h Pages: 1 -->
<svg width="1587pt" height="324pt"
 viewBox="0.00 0.00 1587.29 324.00" xmlns="http://www.w3.org/2000/svg" xmlns:xlink="http://www.w3.org/1999/xlink">
<g id="graph0" class="graph" transform="scale(1 1) rotate(0) translate(4 320)">
<title>include/webcface/common/vector.h</title>
<!-- Node1 -->
<g id="Node000001" class="node">
<title>Node1</title>
<g id="a_Node000001"><a xlink:title=" ">
<polygon fill="#999999" stroke="#666666" points="1387.82,-316 1240.82,-316 1240.82,-286 1387.82,-286 1387.82,-316"/>
<text text-anchor="start" x="1248.82" y="-304" font-family="Helvetica,sans-Serif" font-size="10.00">include/webcface/common</text>
<text text-anchor="middle" x="1314.32" y="-293" font-family="Helvetica,sans-Serif" font-size="10.00">/vector.h</text>
</a>
</g>
</g>
<!-- Node2 -->
<g id="Node000002" class="node">
<title>Node2</title>
<g id="a_Node000002"><a xlink:href="client__internal_8h.html" target="_top" xlink:title=" ">
<polygon fill="white" stroke="#666666" points="703.82,-129 578.82,-129 578.82,-110 703.82,-110 703.82,-129"/>
<text text-anchor="middle" x="641.32" y="-117" font-family="Helvetica,sans-Serif" font-size="10.00">client/client_internal.h</text>
</a>
</g>
</g>
<!-- Node1&#45;&gt;Node2 -->
<g id="edge1_Node000001_Node000002" class="edge">
<title>Node1&#45;&gt;Node2</title>
<g id="a_edge1_Node000001_Node000002"><a xlink:title=" ">
<path fill="none" stroke="#63b8ff" d="M1237.2,-283.83C1141.05,-263.14 971.95,-225.05 829.32,-184 769.06,-166.66 699.46,-141.88 664.26,-129"/>
<polygon fill="#63b8ff" stroke="#63b8ff" points="1236.62,-287.28 1247.13,-285.96 1238.09,-280.44 1236.62,-287.28"/>
</a>
</g>
</g>
<!-- Node16 -->
<g id="Node000016" class="node">
<title>Node16</title>
<g id="a_Node000016"><a xlink:href="dict_8h.html" target="_top" xlink:title=" ">
<polygon fill="white" stroke="#666666" points="1387.82,-250 1240.82,-250 1240.82,-220 1387.82,-220 1387.82,-250"/>
<text text-anchor="start" x="1248.82" y="-238" font-family="Helvetica,sans-Serif" font-size="10.00">include/webcface/common</text>
<text text-anchor="middle" x="1314.32" y="-227" font-family="Helvetica,sans-Serif" font-size="10.00">/dict.h</text>
</a>
</g>
</g>
<!-- Node1&#45;&gt;Node16 -->
<g id="edge15_Node000001_Node000016" class="edge">
<title>Node1&#45;&gt;Node16</title>
<g id="a_edge15_Node000001_Node000016"><a xlink:title=" ">
<path fill="none" stroke="#63b8ff" d="M1314.32,-275.54C1314.32,-266.96 1314.32,-257.61 1314.32,-250.16"/>
<polygon fill="#63b8ff" stroke="#63b8ff" points="1310.82,-275.8 1314.32,-285.8 1317.82,-275.8 1310.82,-275.8"/>
</a>
</g>
</g>
<!-- Node23 -->
<g id="Node000023" class="node">
<title>Node23</title>
<g id="a_Node000023"><a xlink:href="value_8h.html" target="_top" xlink:title=" ">
<polygon fill="white" stroke="#666666" points="1526.32,-184 1386.32,-184 1386.32,-165 1526.32,-165 1526.32,-184"/>
<text text-anchor="middle" x="1456.32" y="-172" font-family="Helvetica,sans-Serif" font-size="10.00">include/webcface/value.h</text>
</a>
</g>
</g>
<!-- Node1&#45;&gt;Node23 -->
<g id="edge39_Node000001_Node000023" class="edge">
<title>Node1&#45;&gt;Node23</title>
<g id="a_edge39_Node000001_Node000023"><a xlink:title=" ">
<path fill="none" stroke="#63b8ff" d="M1352.28,-280.95C1367.14,-272.54 1383.82,-261.87 1397.32,-250 1420.6,-229.51 1441.51,-198.94 1450.97,-184.14"/>
<polygon fill="#63b8ff" stroke="#63b8ff" points="1350.38,-277.99 1343.3,-285.88 1353.75,-284.13 1350.38,-277.99"/>
</a>
</g>
</g>
<!-- Node3 -->
<g id="Node000003" class="node">
<title>Node3</title>
<g id="a_Node000003"><a xlink:href="canvas3d_8cc.html" target="_top" xlink:title=" ">
<polygon fill="white" stroke="#666666" points="1125.82,-74 1018.82,-74 1018.82,-55 1125.82,-55 1125.82,-74"/>
<text text-anchor="middle" x="1072.32" y="-62" font-family="Helvetica,sans-Serif" font-size="10.00">client/canvas3d.cc</text>
</a>
</g>
</g>
<!-- Node2&#45;&gt;Node3 -->
<g id="edge2_Node000002_Node000003" class="edge">
<title>Node2&#45;&gt;Node3</title>
<g id="a_edge2_Node000002_Node000003"><a xlink:title=" ">
<path fill="none" stroke="#63b8ff" d="M714.24,-110.06C788.71,-101.36 907.63,-87.23 1010.32,-74 1013.01,-73.65 1015.77,-73.29 1018.56,-72.92"/>
<polygon fill="#63b8ff" stroke="#63b8ff" points="713.56,-106.61 704.03,-111.25 714.37,-113.57 713.56,-106.61"/>
</a>
</g>
</g>
<!-- Node4 -->
<g id="Node000004" class="node">
<title>Node4</title>
<g id="a_Node000004"><a xlink:href="client_8cc.html" target="_top" xlink:title=" ">
<polygon fill="white" stroke="#666666" points="1326.82,-19 1239.82,-19 1239.82,0 1326.82,0 1326.82,-19"/>
<text text-anchor="middle" x="1283.32" y="-7" font-family="Helvetica,sans-Serif" font-size="10.00">client/client.cc</text>
</a>
</g>
</g>
<!-- Node2&#45;&gt;Node4 -->
<g id="edge3_Node000002_Node000004" class="edge">
<title>Node2&#45;&gt;Node4</title>
<g id="a_edge3_Node000002_Node000004"><a xlink:title=" ">
<path fill="none" stroke="#63b8ff" d="M617.96,-104.28C598.93,-90.98 577.45,-70.86 592.32,-55 636.57,-7.81 1094.93,-8.52 1239.73,-9.94"/>
<polygon fill="#63b8ff" stroke="#63b8ff" points="616.12,-107.26 626.39,-109.87 619.99,-101.43 616.12,-107.26"/>
</a>
</g>
</g>
<!-- Node5 -->
<g id="Node000005" class="node">
<title>Node5</title>
<g id="a_Node000005"><a xlink:href="client__ws_8cc.html" target="_top" xlink:title=" ">
<polygon fill="white" stroke="#666666" points="664.32,-19 558.32,-19 558.32,0 664.32,0 664.32,-19"/>
<text text-anchor="middle" x="611.32" y="-7" font-family="Helvetica,sans-Serif" font-size="10.00">client/client_ws.cc</text>
</a>
</g>
</g>
<!-- Node2&#45;&gt;Node5 -->
<g id="edge4_Node000002_Node000005" class="edge">
<title>Node2&#45;&gt;Node5</title>
<g id="a_edge4_Node000002_Node000005"><a xlink:title=" ">
<path fill="none" stroke="#63b8ff" d="M568.6,-118.86C409.59,-118.9 42.12,-114.53 4.32,-74 -1.44,-67.82 -1.43,-61.19 4.32,-55 41.63,-14.85 417.25,-10.55 558.23,-10.36"/>
<polygon fill="#63b8ff" stroke="#63b8ff" points="568.77,-122.36 578.76,-118.85 568.76,-115.36 568.77,-122.36"/>
</a>
</g>
</g>
<!-- Node6 -->
<g id="Node000006" class="node">
<title>Node6</title>
<g id="a_Node000006"><a xlink:href="field_8cc.html" target="_top" xlink:title=" ">
<polygon fill="white" stroke="#666666" points="780.82,-74 699.82,-74 699.82,-55 780.82,-55 780.82,-74"/>
<text text-anchor="middle" x="740.32" y="-62" font-family="Helvetica,sans-Serif" font-size="10.00">client/field.cc</text>
</a>
</g>
</g>
<!-- Node2&#45;&gt;Node6 -->
<g id="edge5_Node000002_Node000006" class="edge">
<title>Node2&#45;&gt;Node6</title>
<g id="a_edge5_Node000002_Node000006"><a xlink:title=" ">
<path fill="none" stroke="#63b8ff" d="M666.1,-105.23C684.25,-95.51 708.38,-82.6 724.12,-74.17"/>
<polygon fill="#63b8ff" stroke="#63b8ff" points="664.39,-102.18 657.22,-109.98 667.69,-108.35 664.39,-102.18"/>
</a>
</g>
</g>
<!-- Node7 -->
<g id="Node000007" class="node">
<title>Node7</title>
<g id="a_Node000007"><a xlink:href="func_8cc.html" target="_top" xlink:title=" ">
<polygon fill="white" stroke="#666666" points="94.82,-74 13.82,-74 13.82,-55 94.82,-55 94.82,-74"/>
<text text-anchor="middle" x="54.32" y="-62" font-family="Helvetica,sans-Serif" font-size="10.00">client/func.cc</text>
</a>
</g>
</g>
<!-- Node2&#45;&gt;Node7 -->
<g id="edge6_Node000002_Node000007" class="edge">
<title>Node2&#45;&gt;Node7</title>
<g id="a_edge6_Node000002_Node000007"><a xlink:title=" ">
<path fill="none" stroke="#63b8ff" d="M568.55,-114.55C464.94,-108.45 269.09,-95.19 103.32,-74 100.58,-73.65 97.76,-73.25 94.92,-72.83"/>
<polygon fill="#63b8ff" stroke="#63b8ff" points="568.4,-118.04 578.59,-115.13 568.81,-111.06 568.4,-118.04"/>
</a>
</g>
</g>
<!-- Node8 -->
<g id="Node000008" class="node">
<title>Node8</title>
<g id="a_Node000008"><a xlink:href="image_8cc.html" target="_top" xlink:title=" ">
<polygon fill="white" stroke="#666666" points="203.82,-74 112.82,-74 112.82,-55 203.82,-55 203.82,-74"/>
<text text-anchor="middle" x="158.32" y="-62" font-family="Helvetica,sans-Serif" font-size="10.00">client/image.cc</text>
</a>
</g>
</g>
<!-- Node2&#45;&gt;Node8 -->
<g id="edge7_Node000002_Node000008" class="edge">
<title>Node2&#45;&gt;Node8</title>
<g id="a_edge7_Node000002_Node000008"><a xlink:title=" ">
<path fill="none" stroke="#63b8ff" d="M568.37,-112.03C483.08,-104.21 337.73,-90.07 213.32,-74 210.25,-73.6 207.09,-73.17 203.91,-72.72"/>
<polygon fill="#63b8ff" stroke="#63b8ff" points="568.19,-115.53 578.47,-112.95 568.83,-108.56 568.19,-115.53"/>
</a>
</g>
</g>
<!-- Node9 -->
<g id="Node000009" class="node">
<title>Node9</title>
<g id="a_Node000009"><a xlink:href="log_8cc.html" target="_top" xlink:title=" ">
<polygon fill="white" stroke="#666666" points="296.82,-74 221.82,-74 221.82,-55 296.82,-55 296.82,-74"/>
<text text-anchor="middle" x="259.32" y="-62" font-family="Helvetica,sans-Serif" font-size="10.00">client/log.cc</text>
</a>
</g>
</g>
<!-- Node2&#45;&gt;Node9 -->
<g id="edge8_Node000002_Node000009" class="edge">
<title>Node2&#45;&gt;Node9</title>
<g id="a_edge8_Node000002_Node000009"><a xlink:title=" ">
<path fill="none" stroke="#63b8ff" d="M568.35,-109.81C500.39,-101.47 396.32,-88.11 306.32,-74 303.29,-73.52 300.15,-73.01 297,-72.48"/>
<polygon fill="#63b8ff" stroke="#63b8ff" points="568.17,-113.31 578.52,-111.05 569.02,-106.36 568.17,-113.31"/>
</a>
</g>
</g>
<!-- Node10 -->
<g id="Node000010" class="node">
<title>Node10</title>
<g id="a_Node000010"><a xlink:href="logger_8cc.html" target="_top" xlink:title=" ">
<polygon fill="white" stroke="#666666" points="405.32,-74 315.32,-74 315.32,-55 405.32,-55 405.32,-74"/>
<text text-anchor="middle" x="360.32" y="-62" font-family="Helvetica,sans-Serif" font-size="10.00">client/logger.cc</text>
</a>
</g>
</g>
<!-- Node2&#45;&gt;Node10 -->
<g id="edge9_Node000002_Node000010" class="edge">
<title>Node2&#45;&gt;Node10</title>
<g id="a_edge9_Node000002_Node000010"><a xlink:title=" ">
<path fill="none" stroke="#63b8ff" d="M586.29,-108.12C533.44,-98.15 454.57,-83.28 405.35,-73.99"/>
<polygon fill="#63b8ff" stroke="#63b8ff" points="585.69,-111.57 596.17,-109.98 586.99,-104.69 585.69,-111.57"/>
</a>
</g>
</g>
<!-- Node11 -->
<g id="Node000011" class="node">
<title>Node11</title>
<g id="a_Node000011"><a xlink:href="member_8cc.html" target="_top" xlink:title=" ">
<polygon fill="white" stroke="#666666" points="899.82,-74 798.82,-74 798.82,-55 899.82,-55 899.82,-74"/>
<text text-anchor="middle" x="849.32" y="-62" font-family="Helvetica,sans-Serif" font-size="10.00">client/member.cc</text>
</a>
</g>
</g>
<!-- Node2&#45;&gt;Node11 -->
<g id="edge10_Node000002_Node000011" class="edge">
<title>Node2&#45;&gt;Node11</title>
<g id="a_edge10_Node000002_Node000011"><a xlink:title=" ">
<path fill="none" stroke="#63b8ff" d="M684.73,-107.44C723.67,-97.52 780.01,-83.16 815.64,-74.08"/>
<polygon fill="#63b8ff" stroke="#63b8ff" points="683.56,-104.12 674.74,-109.98 685.29,-110.91 683.56,-104.12"/>
</a>
</g>
</g>
<!-- Node12 -->
<g id="Node000012" class="node">
<title>Node12</title>
<g id="a_Node000012"><a xlink:href="robot__model_8cc.html" target="_top" xlink:title=" ">
<polygon fill="white" stroke="#666666" points="545.32,-74 423.32,-74 423.32,-55 545.32,-55 545.32,-74"/>
<text text-anchor="middle" x="484.32" y="-62" font-family="Helvetica,sans-Serif" font-size="10.00">client/robot_model.cc</text>
</a>
</g>
</g>
<!-- Node2&#45;&gt;Node12 -->
<g id="edge11_Node000002_Node000012" class="edge">
<title>Node2&#45;&gt;Node12</title>
<g id="a_edge11_Node000002_Node000012"><a xlink:title=" ">
<path fill="none" stroke="#63b8ff" d="M606.27,-106.67C576.99,-96.79 535.94,-82.93 509.74,-74.08"/>
<polygon fill="#63b8ff" stroke="#63b8ff" points="605.5,-110.1 616.09,-109.98 607.74,-103.47 605.5,-110.1"/>
</a>
</g>
</g>
<!-- Node13 -->
<g id="Node000013" class="node">
<title>Node13</title>
<g id="a_Node000013"><a xlink:href="text_8cc.html" target="_top" xlink:title=" ">
<polygon fill="white" stroke="#666666" points="681.32,-74 601.32,-74 601.32,-55 681.32,-55 681.32,-74"/>
<text text-anchor="middle" x="641.32" y="-62" font-family="Helvetica,sans-Serif" font-size="10.00">client/text.cc</text>
</a>
</g>
</g>
<!-- Node2&#45;&gt;Node13 -->
<g id="edge12_Node000002_Node000013" class="edge">
<title>Node2&#45;&gt;Node13</title>
<g id="a_edge12_Node000002_Node000013"><a xlink:title=" ">
<path fill="none" stroke="#63b8ff" d="M641.32,-99.66C641.32,-90.93 641.32,-80.99 641.32,-74.09"/>
<polygon fill="#63b8ff" stroke="#63b8ff" points="637.82,-99.75 641.32,-109.75 644.82,-99.75 637.82,-99.75"/>
</a>
</g>
</g>
<!-- Node14 -->
<g id="Node000014" class="node">
<title>Node14</title>
<g id="a_Node000014"><a xlink:href="value_8cc.html" target="_top" xlink:title=" ">
<polygon fill="white" stroke="#666666" points="1389.82,-74 1302.82,-74 1302.82,-55 1389.82,-55 1389.82,-74"/>
<text text-anchor="middle" x="1346.32" y="-62" font-family="Helvetica,sans-Serif" font-size="10.00">client/value.cc</text>
</a>
</g>
</g>
<!-- Node2&#45;&gt;Node14 -->
<g id="edge13_Node000002_Node000014" class="edge">
<title>Node2&#45;&gt;Node14</title>
<g id="a_edge13_Node000002_Node000014"><a xlink:title=" ">
<path fill="none" stroke="#63b8ff" d="M714.21,-114.36C860,-105.95 1182.96,-86.59 1293.32,-74 1296.37,-73.65 1299.52,-73.25 1302.69,-72.82"/>
<polygon fill="#63b8ff" stroke="#63b8ff" points="713.81,-110.88 704.03,-114.95 714.21,-117.87 713.81,-110.88"/>
</a>
</g>
</g>
<!-- Node15 -->
<g id="Node000015" class="node">
<title>Node15</title>
<g id="a_Node000015"><a xlink:href="view_8cc.html" target="_top" xlink:title=" ">
<polygon fill="white" stroke="#666666" points="1000.82,-74 917.82,-74 917.82,-55 1000.82,-55 1000.82,-74"/>
<text text-anchor="middle" x="959.32" y="-62" font-family="Helvetica,sans-Serif" font-size="10.00">client/view.cc</text>
</a>
</g>
</g>
<!-- Node2&#45;&gt;Node15 -->
<g id="edge14_Node000002_Node000015" class="edge">
<title>Node2&#45;&gt;Node15</title>
<g id="a_edge14_Node000002_Node000015"><a xlink:title=" ">
<path fill="none" stroke="#63b8ff" d="M703.11,-108.31C757.44,-99.33 838.64,-85.88 909.32,-74 912.01,-73.55 914.78,-73.08 917.58,-72.61"/>
<polygon fill="#63b8ff" stroke="#63b8ff" points="702.25,-104.9 692.95,-109.99 703.39,-111.81 702.25,-104.9"/>
</a>
</g>
</g>
<!-- Node17 -->
<g id="Node000017" class="node">
<title>Node17</title>
<g id="a_Node000017"><a xlink:href="data__store2_8h.html" target="_top" xlink:title=" ">
<polygon fill="white" stroke="#666666" points="950.82,-184 837.82,-184 837.82,-165 950.82,-165 950.82,-184"/>
<text text-anchor="middle" x="894.32" y="-172" font-family="Helvetica,sans-Serif" font-size="10.00">client/data_store2.h</text>
</a>
</g>
</g>
<!-- Node16&#45;&gt;Node17 -->
<g id="edge16_Node000016_Node000017" class="edge">
<title>Node16&#45;&gt;Node17</title>
<g id="a_edge16_Node000016_Node000017"><a xlink:title=" ">
<path fill="none" stroke="#63b8ff" d="M1230.53,-222.33C1147.61,-210.78 1022.96,-193.42 951.03,-183.4"/>
<polygon fill="#63b8ff" stroke="#63b8ff" points="1230.29,-225.83 1240.68,-223.74 1231.26,-218.9 1230.29,-225.83"/>
</a>
</g>
</g>
<!-- Node19 -->
<g id="Node000019" class="node">
<title>Node19</title>
<g id="a_Node000019"><a xlink:href="text_8h.html" target="_top" xlink:title=" ">
<polygon fill="white" stroke="#666666" points="1367.82,-184 1234.82,-184 1234.82,-165 1367.82,-165 1367.82,-184"/>
<text text-anchor="middle" x="1301.32" y="-172" font-family="Helvetica,sans-Serif" font-size="10.00">include/webcface/text.h</text>
</a>
</g>
</g>
<!-- Node16&#45;&gt;Node19 -->
<g id="edge19_Node000016_Node000019" class="edge">
<title>Node16&#45;&gt;Node19</title>
<g id="a_edge19_Node000016_Node000019"><a xlink:title=" ">
<path fill="none" stroke="#63b8ff" d="M1308.99,-210.04C1306.97,-200.93 1304.78,-191.1 1303.26,-184.27"/>
<polygon fill="#63b8ff" stroke="#63b8ff" points="1305.58,-210.84 1311.17,-219.84 1312.42,-209.32 1305.58,-210.84"/>
</a>
</g>
</g>
<!-- Node22 -->
<g id="Node000022" class="node">
<title>Node22</title>
<g id="a_Node000022"><a xlink:href="webcface_8h.html" target="_top" xlink:title=" ">
<polygon fill="white" stroke="#666666" points="1574.32,-19 1414.32,-19 1414.32,0 1574.32,0 1574.32,-19"/>
<text text-anchor="middle" x="1494.32" y="-7" font-family="Helvetica,sans-Serif" font-size="10.00">include/webcface/webcface.h</text>
</a>
</g>
</g>
<!-- Node16&#45;&gt;Node22 -->
<g id="edge38_Node000016_Node000022" class="edge">
<title>Node16&#45;&gt;Node22</title>
<g id="a_edge38_Node000016_Node000022"><a xlink:title=" ">
<path fill="none" stroke="#63b8ff" d="M1398,-231.63C1442.65,-226.55 1496.28,-213.93 1535.32,-184 1581.88,-148.31 1591.86,-106.26 1563.32,-55 1553.68,-37.69 1534.16,-26.06 1518.34,-19.04"/>
<polygon fill="#63b8ff" stroke="#63b8ff" points="1397.62,-228.15 1388.03,-232.66 1398.34,-235.11 1397.62,-228.15"/>
</a>
</g>
</g>
<!-- Node16&#45;&gt;Node23 -->
<g id="edge33_Node000016_Node000023" class="edge">
<title>Node16&#45;&gt;Node23</title>
<g id="a_edge33_Node000016_Node000023"><a xlink:title=" ">
<path fill="none" stroke="#63b8ff" d="M1357.88,-216.05C1383.61,-205.45 1415.03,-192.51 1435.35,-184.14"/>
<polygon fill="#63b8ff" stroke="#63b8ff" points="1356.24,-212.94 1348.33,-219.99 1358.91,-219.41 1356.24,-212.94"/>
</a>
</g>
</g>
<!-- Node17&#45;&gt;Node2 -->
<g id="edge17_Node000017_Node000002" class="edge">
<title>Node17&#45;&gt;Node2</title>
<g id="a_edge17_Node000017_Node000002"><a xlink:title=" ">
<path fill="none" stroke="#63b8ff" d="M843.61,-162.88C796.19,-152.94 726.26,-138.3 682.28,-129.08"/>
<polygon fill="#63b8ff" stroke="#63b8ff" points="843.16,-166.36 853.67,-164.98 844.6,-159.51 843.16,-166.36"/>
</a>
</g>
</g>
<!-- Node18 -->
<g id="Node000018" class="node">
<title>Node18</title>
<g id="a_Node000018"><a xlink:href="data__store2_8cc.html" target="_top" xlink:title=" ">
<polygon fill="white" stroke="#666666" points="953.32,-129 835.32,-129 835.32,-110 953.32,-110 953.32,-129"/>
<text text-anchor="middle" x="894.32" y="-117" font-family="Helvetica,sans-Serif" font-size="10.00">client/data_store2.cc</text>
</a>
</g>
</g>
<!-- Node17&#45;&gt;Node18 -->
<g id="edge18_Node000017_Node000018" class="edge">
<title>Node17&#45;&gt;Node18</title>
<g id="a_edge18_Node000017_Node000018"><a xlink:title=" ">
<path fill="none" stroke="#63b8ff" d="M894.32,-154.66C894.32,-145.93 894.32,-135.99 894.32,-129.09"/>
<polygon fill="#63b8ff" stroke="#63b8ff" points="890.82,-154.75 894.32,-164.75 897.82,-154.75 890.82,-154.75"/>
</a>
</g>
</g>
<!-- Node19&#45;&gt;Node4 -->
<g id="edge20_Node000019_Node000004" class="edge">
<title>Node19&#45;&gt;Node4</title>
<g id="a_edge20_Node000019_Node000004"><a xlink:title=" ">
<path fill="none" stroke="#63b8ff" d="M1327.43,-159.91C1365.03,-138.51 1426.99,-95.26 1399.32,-55 1383.13,-31.45 1352.62,-20.36 1326.96,-15.13"/>
<polygon fill="#63b8ff" stroke="#63b8ff" points="1325.53,-156.96 1318.47,-164.86 1328.92,-163.09 1325.53,-156.96"/>
</a>
</g>
</g>
<!-- Node19&#45;&gt;Node13 -->
<g id="edge21_Node000019_Node000013" class="edge">
<title>Node19&#45;&gt;Node13</title>
<g id="a_edge21_Node000019_Node000013"><a xlink:title=" ">
<path fill="none" stroke="#63b8ff" d="M1243.24,-163.2C1193.78,-154.35 1120.82,-141.14 1057.32,-129 1015.02,-120.91 1004.79,-117.06 962.32,-110 842.46,-90.08 811.45,-92.18 691.32,-74 688.1,-73.51 684.76,-72.99 681.41,-72.45"/>
<polygon fill="#63b8ff" stroke="#63b8ff" points="1242.66,-166.65 1253.12,-164.96 1243.89,-159.76 1242.66,-166.65"/>
</a>
</g>
</g>
<!-- Node20 -->
<g id="Node000020" class="node">
<title>Node20</title>
<g id="a_Node000020"><a xlink:href="member_8h.html" target="_top" xlink:title=" ">
<polygon fill="white" stroke="#666666" points="1220.32,-129 1066.32,-129 1066.32,-110 1220.32,-110 1220.32,-129"/>
<text text-anchor="middle" x="1143.32" y="-117" font-family="Helvetica,sans-Serif" font-size="10.00">include/webcface/member.h</text>
</a>
</g>
</g>
<!-- Node19&#45;&gt;Node20 -->
<g id="edge22_Node000019_Node000020" class="edge">
<title>Node19&#45;&gt;Node20</title>
<g id="a_edge22_Node000019_Node000020"><a xlink:title=" ">
<path fill="none" stroke="#63b8ff" d="M1266.43,-161.8C1236.95,-151.91 1195.39,-137.97 1168.9,-129.08"/>
<polygon fill="#63b8ff" stroke="#63b8ff" points="1265.34,-165.12 1275.93,-164.98 1267.56,-158.49 1265.34,-165.12"/>
</a>
</g>
</g>
<!-- Node19&#45;&gt;Node22 -->
<g id="edge32_Node000019_Node000022" class="edge">
<title>Node19&#45;&gt;Node22</title>
<g id="a_edge32_Node000019_Node000022"><a xlink:title=" ">
<path fill="none" stroke="#63b8ff" d="M1336.25,-161.19C1354.88,-153.63 1377.56,-142.74 1395.32,-129 1438.57,-95.54 1475.75,-40.16 1489.08,-19.04"/>
<polygon fill="#63b8ff" stroke="#63b8ff" points="1334.95,-157.94 1326.92,-164.85 1337.51,-164.46 1334.95,-157.94"/>
</a>
</g>
</g>
<!-- Node20&#45;&gt;Node3 -->
<g id="edge23_Node000020_Node000003" class="edge">
<title>Node20&#45;&gt;Node3</title>
<g id="a_edge23_Node000020_Node000003"><a xlink:title=" ">
<path fill="none" stroke="#63b8ff" d="M1123.73,-103.88C1110.95,-94.34 1094.7,-82.21 1083.93,-74.17"/>
<polygon fill="#63b8ff" stroke="#63b8ff" points="1121.8,-106.81 1131.91,-109.98 1125.99,-101.2 1121.8,-106.81"/>
</a>
</g>
</g>
<!-- Node20&#45;&gt;Node6 -->
<g id="edge24_Node000020_Node000006" class="edge">
<title>Node20&#45;&gt;Node6</title>
<g id="a_edge24_Node000020_Node000006"><a xlink:title=" ">
<path fill="none" stroke="#63b8ff" d="M1057.82,-108.76C986.24,-100.36 881.46,-87.49 790.32,-74 787.27,-73.55 784.12,-73.06 780.95,-72.56"/>
<polygon fill="#63b8ff" stroke="#63b8ff" points="1057.79,-112.29 1068.13,-109.97 1058.6,-105.33 1057.79,-112.29"/>
</a>
</g>
</g>
<!-- Node20&#45;&gt;Node11 -->
<g id="edge25_Node000020_Node000011" class="edge">
<title>Node20&#45;&gt;Node11</title>
<g id="a_edge25_Node000020_Node000011"><a xlink:title=" ">
<path fill="none" stroke="#63b8ff" d="M1086.12,-108.19C1031,-98.25 948.57,-83.39 896.92,-74.08"/>
<polygon fill="#63b8ff" stroke="#63b8ff" points="1085.62,-111.65 1096.08,-109.98 1086.86,-104.77 1085.62,-111.65"/>
</a>
</g>
</g>
<!-- Node20&#45;&gt;Node15 -->
<g id="edge26_Node000020_Node000015" class="edge">
<title>Node20&#45;&gt;Node15</title>
<g id="a_edge26_Node000020_Node000015"><a xlink:title=" ">
<path fill="none" stroke="#63b8ff" d="M1104.03,-107.18C1069.62,-97.27 1020.36,-83.08 989.11,-74.08"/>
<polygon fill="#63b8ff" stroke="#63b8ff" points="1103.18,-110.58 1113.75,-109.98 1105.11,-103.85 1103.18,-110.58"/>
</a>
</g>
</g>
<!-- Node21 -->
<g id="Node000021" class="node">
<title>Node21</title>
<g id="a_Node000021"><a xlink:href="client_8h.html" target="_top" xlink:title=" ">
<polygon fill="white" stroke="#666666" points="1284.32,-74 1144.32,-74 1144.32,-55 1284.32,-55 1284.32,-74"/>
<text text-anchor="middle" x="1214.32" y="-62" font-family="Helvetica,sans-Serif" font-size="10.00">include/webcface/client.h</text>
</a>
</g>
</g>
<!-- Node20&#45;&gt;Node21 -->
<g id="edge27_Node000020_Node000021" class="edge">
<title>Node20&#45;&gt;Node21</title>
<g id="a_edge27_Node000020_Node000021"><a xlink:title=" ">
<path fill="none" stroke="#63b8ff" d="M1162.91,-103.88C1175.68,-94.34 1191.93,-82.21 1202.7,-74.17"/>
<polygon fill="#63b8ff" stroke="#63b8ff" points="1160.64,-101.2 1154.72,-109.98 1164.83,-106.81 1160.64,-101.2"/>
</a>
</g>
</g>
<!-- Node20&#45;&gt;Node22 -->
<g id="edge31_Node000020_Node000022" class="edge">
<title>Node20&#45;&gt;Node22</title>
<g id="a_edge31_Node000020_Node000022"><a xlink:title=" ">
<path fill="none" stroke="#63b8ff" d="M1230.31,-112.43C1281.04,-106.69 1345.43,-95.57 1399.32,-74 1433.57,-60.29 1468.2,-32.98 1484.58,-19.07"/>
<polygon fill="#63b8ff" stroke="#63b8ff" points="1229.93,-108.95 1220.36,-113.51 1230.68,-115.91 1229.93,-108.95"/>
</a>
</g>
</g>
<!-- Node21&#45;&gt;Node4 -->
<g id="edge28_Node000021_Node000004" class="edge">
<title>Node21&#45;&gt;Node4</title>
<g id="a_edge28_Node000021_Node000004"><a xlink:title=" ">
<path fill="none" stroke="#63b8ff" d="M1233.35,-48.88C1245.77,-39.34 1261.56,-27.21 1272.03,-19.17"/>
<polygon fill="#63b8ff" stroke="#63b8ff" points="1231.2,-46.12 1225.4,-54.98 1235.47,-51.67 1231.2,-46.12"/>
</a>
</g>
</g>
<!-- Node21&#45;&gt;Node5 -->
<g id="edge29_Node000021_Node000005" class="edge">
<title>Node21&#45;&gt;Node5</title>
<g id="a_edge29_Node000021_Node000005"><a xlink:title=" ">
<path fill="none" stroke="#63b8ff" d="M1134.03,-54.9C955.79,-37.84 757.5,-21.91 664.53,-14.62"/>
<polygon fill="#63b8ff" stroke="#63b8ff" points="1133.83,-58.39 1144.11,-55.86 1134.49,-51.42 1133.83,-58.39"/>
</a>
</g>
</g>
<!-- Node21&#45;&gt;Node22 -->
<g id="edge30_Node000021_Node000022" class="edge">
<title>Node21&#45;&gt;Node22</title>
<g id="a_edge30_Node000021_Node000022"><a xlink:title=" ">
<path fill="none" stroke="#63b8ff" d="M1269.45,-53.07C1321.94,-43.13 1400,-28.35 1448.98,-19.08"/>
<polygon fill="#63b8ff" stroke="#63b8ff" points="1268.48,-49.69 1259.3,-54.98 1269.78,-56.56 1268.48,-49.69"/>
</a>
</g>
</g>
<!-- Node23&#45;&gt;Node4 -->
<g id="edge34_Node000023_Node000004" class="edge">
<title>Node23&#45;&gt;Node4</title>
<g id="a_edge34_Node000023_Node000004"><a xlink:title=" ">
<path fill="none" stroke="#63b8ff" d="M1455.05,-154.67C1452.3,-128.77 1443.64,-82.25 1416.32,-55 1392.53,-31.27 1355.74,-20.19 1326.88,-15.02"/>
<polygon fill="#63b8ff" stroke="#63b8ff" points="1451.57,-155.03 1455.92,-164.69 1458.54,-154.42 1451.57,-155.03"/>
</a>
</g>
</g>
<!-- Node23&#45;&gt;Node14 -->
<g id="edge35_Node000023_Node000014" class="edge">
<title>Node23&#45;&gt;Node14</title>
<g id="a_edge35_Node000023_Node000014"><a xlink:title=" ">
<path fill="none" stroke="#63b8ff" d="M1440.13,-157.61C1416.56,-134.47 1373.6,-92.29 1355.14,-74.16"/>
<polygon fill="#63b8ff" stroke="#63b8ff" points="1437.73,-160.15 1447.32,-164.66 1442.63,-155.16 1437.73,-160.15"/>
</a>
</g>
</g>
<!-- Node23&#45;&gt;Node20 -->
<g id="edge36_Node000023_Node000020" class="edge">
<title>Node23&#45;&gt;Node20</title>
<g id="a_edge36_Node000023_Node000020"><a xlink:title=" ">
<path fill="none" stroke="#63b8ff" d="M1396.14,-163.31C1337.36,-153.36 1248.93,-138.38 1193.74,-129.04"/>
<polygon fill="#63b8ff" stroke="#63b8ff" points="1395.58,-166.77 1406.03,-164.98 1396.75,-159.86 1395.58,-166.77"/>
</a>
</g>
</g>
<!-- Node23&#45;&gt;Node22 -->
<g id="edge37_Node000023_Node000022" class="edge">
<title>Node23&#45;&gt;Node22</title>
<g id="a_edge37_Node000023_Node000022"><a xlink:title=" ">
<path fill="none" stroke="#63b8ff" d="M1503.87,-161.29C1520.22,-154.56 1536.78,-144.35 1546.32,-129 1563.67,-101.06 1560.07,-84.87 1546.32,-55 1538.96,-39.03 1522.73,-26.65 1510.35,-19.05"/>
<polygon fill="#63b8ff" stroke="#63b8ff" points="1502.47,-158.07 1494.33,-164.85 1504.92,-164.63 1502.47,-158.07"/>
</a>
</g>
</g>
</g>
</svg>
