<?xml version="1.0" encoding="UTF-8" standalone="no"?>
<!DOCTYPE svg PUBLIC "-//W3C//DTD SVG 1.1//EN"
 "http://www.w3.org/Graphics/SVG/1.1/DTD/svg11.dtd">
<!-- Generated by graphviz version 2.43.0 (0)
 -->
<!-- Title: include/webcface/view.h Pages: 1 -->
<svg width="735pt" height="192pt"
 viewBox="0.00 0.00 735.46 192.00" xmlns="http://www.w3.org/2000/svg" xmlns:xlink="http://www.w3.org/1999/xlink">
<g id="graph0" class="graph" transform="scale(1 1) rotate(0) translate(4 188)">
<title>include/webcface/view.h</title>
<!-- Node1 -->
<g id="Node000001" class="node">
<title>Node1</title>
<g id="a_Node000001"><a xlink:title=" ">
<polygon fill="#999999" stroke="#666666" points="293.46,-184 157.46,-184 157.46,-165 293.46,-165 293.46,-184"/>
<text text-anchor="middle" x="225.46" y="-172" font-family="Helvetica,sans-Serif" font-size="10.00">include/webcface/view.h</text>
</a>
</g>
</g>
<!-- Node2 -->
<g id="Node000002" class="node">
<title>Node2</title>
<g id="a_Node000002"><a xlink:href="client_8cc.html" target="_top" xlink:title=" ">
<polygon fill="white" stroke="#666666" points="237.96,-19 150.96,-19 150.96,0 237.96,0 237.96,-19"/>
<text text-anchor="middle" x="194.46" y="-7" font-family="Helvetica,sans-Serif" font-size="10.00">client/client.cc</text>
</a>
</g>
</g>
<!-- Node1&#45;&gt;Node2 -->
<g id="edge1_Node000001_Node000002" class="edge">
<title>Node1&#45;&gt;Node2</title>
<g id="a_edge1_Node000001_Node000002"><a xlink:title=" ">
<path fill="none" stroke="#63b8ff" d="M157.94,-162.75C106.71,-150.66 39.63,-125.52 6.46,-74 -28,-20.49 85.19,-11.14 150.87,-10.08"/>
<polygon fill="#63b8ff" stroke="#63b8ff" points="157.43,-166.22 167.96,-164.99 158.97,-159.39 157.43,-166.22"/>
</a>
</g>
</g>
<!-- Node3 -->
<g id="Node000003" class="node">
<title>Node3</title>
<g id="a_Node000003"><a xlink:href="view_8cc.html" target="_top" xlink:title=" ">
<polygon fill="white" stroke="#666666" points="98.96,-74 15.96,-74 15.96,-55 98.96,-55 98.96,-74"/>
<text text-anchor="middle" x="57.46" y="-62" font-family="Helvetica,sans-Serif" font-size="10.00">client/view.cc</text>
</a>
</g>
</g>
<!-- Node1&#45;&gt;Node3 -->
<g id="edge2_Node000001_Node000003" class="edge">
<title>Node1&#45;&gt;Node3</title>
<g id="a_edge2_Node000001_Node000003"><a xlink:title=" ">
<path fill="none" stroke="#63b8ff" d="M203.36,-159.3C168.05,-136.59 99.92,-92.8 70.98,-74.2"/>
<polygon fill="#63b8ff" stroke="#63b8ff" points="201.69,-162.38 211.99,-164.84 205.47,-156.49 201.69,-162.38"/>
</a>
</g>
</g>
<!-- Node4 -->
<g id="Node000004" class="node">
<title>Node4</title>
<g id="a_Node000004"><a xlink:href="member_8h.html" target="_top" xlink:title=" ">
<polygon fill="white" stroke="#666666" points="359.46,-129 205.46,-129 205.46,-110 359.46,-110 359.46,-129"/>
<text text-anchor="middle" x="282.46" y="-117" font-family="Helvetica,sans-Serif" font-size="10.00">include/webcface/member.h</text>
</a>
</g>
</g>
<!-- Node1&#45;&gt;Node4 -->
<g id="edge3_Node000001_Node000004" class="edge">
<title>Node1&#45;&gt;Node4</title>
<g id="a_edge3_Node000001_Node000004"><a xlink:title=" ">
<path fill="none" stroke="#63b8ff" d="M242.08,-158.04C252.19,-148.64 264.73,-136.98 273.13,-129.17"/>
<polygon fill="#63b8ff" stroke="#63b8ff" points="239.55,-155.61 234.61,-164.98 244.32,-160.74 239.55,-155.61"/>
</a>
</g>
</g>
<!-- Node10 -->
<g id="Node000010" class="node">
<title>Node10</title>
<g id="a_Node000010"><a xlink:href="webcface_8h.html" target="_top" xlink:title=" ">
<polygon fill="white" stroke="#666666" points="727.46,-19 567.46,-19 567.46,0 727.46,0 727.46,-19"/>
<text text-anchor="middle" x="647.46" y="-7" font-family="Helvetica,sans-Serif" font-size="10.00">include/webcface/webcface.h</text>
</a>
</g>
</g>
<!-- Node1&#45;&gt;Node10 -->
<g id="edge13_Node000001_Node000010" class="edge">
<title>Node1&#45;&gt;Node10</title>
<g id="a_edge13_Node000001_Node000010"><a xlink:title=" ">
<path fill="none" stroke="#63b8ff" d="M303.82,-164.12C408.73,-149.97 586.96,-119.85 632.46,-74 647.14,-59.2 648.46,-32.87 648.05,-19.23"/>
<polygon fill="#63b8ff" stroke="#63b8ff" points="303.04,-160.69 293.59,-165.48 303.96,-167.63 303.04,-160.69"/>
</a>
</g>
</g>
<!-- Node4&#45;&gt;Node3 -->
<g id="edge7_Node000004_Node000003" class="edge">
<title>Node4&#45;&gt;Node3</title>
<g id="a_edge7_Node000004_Node000003"><a xlink:title=" ">
<path fill="none" stroke="#63b8ff" d="M236.57,-107.69C194.41,-97.76 132.76,-83.24 93.89,-74.08"/>
<polygon fill="#63b8ff" stroke="#63b8ff" points="235.77,-111.1 246.31,-109.98 237.37,-104.28 235.77,-111.1"/>
</a>
</g>
</g>
<!-- Node5 -->
<g id="Node000005" class="node">
<title>Node5</title>
<g id="a_Node000005"><a xlink:href="canvas3d_8cc.html" target="_top" xlink:title=" ">
<polygon fill="white" stroke="#666666" points="223.96,-74 116.96,-74 116.96,-55 223.96,-55 223.96,-74"/>
<text text-anchor="middle" x="170.46" y="-62" font-family="Helvetica,sans-Serif" font-size="10.00">client/canvas3d.cc</text>
</a>
</g>
</g>
<!-- Node4&#45;&gt;Node5 -->
<g id="edge4_Node000004_Node000005" class="edge">
<title>Node4&#45;&gt;Node5</title>
<g id="a_edge4_Node000004_Node000005"><a xlink:title=" ">
<path fill="none" stroke="#63b8ff" d="M255.27,-105.63C234.63,-95.87 206.83,-82.71 188.78,-74.17"/>
<polygon fill="#63b8ff" stroke="#63b8ff" points="253.93,-108.87 264.46,-109.98 256.92,-102.54 253.93,-108.87"/>
</a>
</g>
</g>
<!-- Node6 -->
<g id="Node000006" class="node">
<title>Node6</title>
<g id="a_Node000006"><a xlink:href="field_8cc.html" target="_top" xlink:title=" ">
<polygon fill="white" stroke="#666666" points="322.96,-74 241.96,-74 241.96,-55 322.96,-55 322.96,-74"/>
<text text-anchor="middle" x="282.46" y="-62" font-family="Helvetica,sans-Serif" font-size="10.00">client/field.cc</text>
</a>
</g>
</g>
<!-- Node4&#45;&gt;Node6 -->
<g id="edge5_Node000004_Node000006" class="edge">
<title>Node4&#45;&gt;Node6</title>
<g id="a_edge5_Node000004_Node000006"><a xlink:title=" ">
<path fill="none" stroke="#63b8ff" d="M282.46,-99.66C282.46,-90.93 282.46,-80.99 282.46,-74.09"/>
<polygon fill="#63b8ff" stroke="#63b8ff" points="278.96,-99.75 282.46,-109.75 285.96,-99.75 278.96,-99.75"/>
</a>
</g>
</g>
<!-- Node7 -->
<g id="Node000007" class="node">
<title>Node7</title>
<g id="a_Node000007"><a xlink:href="member_8cc.html" target="_top" xlink:title=" ">
<polygon fill="white" stroke="#666666" points="441.96,-74 340.96,-74 340.96,-55 441.96,-55 441.96,-74"/>
<text text-anchor="middle" x="391.46" y="-62" font-family="Helvetica,sans-Serif" font-size="10.00">client/member.cc</text>
</a>
</g>
</g>
<!-- Node4&#45;&gt;Node7 -->
<g id="edge6_Node000004_Node000007" class="edge">
<title>Node4&#45;&gt;Node7</title>
<g id="a_edge6_Node000004_Node000007"><a xlink:title=" ">
<path fill="none" stroke="#63b8ff" d="M309.19,-105.5C329.24,-95.75 356.13,-82.68 373.62,-74.17"/>
<polygon fill="#63b8ff" stroke="#63b8ff" points="307.43,-102.46 299.97,-109.98 310.49,-108.76 307.43,-102.46"/>
</a>
</g>
</g>
<!-- Node8 -->
<g id="Node000008" class="node">
<title>Node8</title>
<g id="a_Node000008"><a xlink:href="client_8h.html" target="_top" xlink:title=" ">
<polygon fill="white" stroke="#666666" points="600.46,-74 460.46,-74 460.46,-55 600.46,-55 600.46,-74"/>
<text text-anchor="middle" x="530.46" y="-62" font-family="Helvetica,sans-Serif" font-size="10.00">include/webcface/client.h</text>
</a>
</g>
</g>
<!-- Node4&#45;&gt;Node8 -->
<g id="edge8_Node000004_Node000008" class="edge">
<title>Node4&#45;&gt;Node8</title>
<g id="a_edge8_Node000004_Node000008"><a xlink:title=" ">
<path fill="none" stroke="#63b8ff" d="M332.16,-107.88C378.64,-97.94 447.19,-83.3 490.3,-74.08"/>
<polygon fill="#63b8ff" stroke="#63b8ff" points="331.35,-104.47 322.3,-109.98 332.81,-111.32 331.35,-104.47"/>
</a>
</g>
</g>
<!-- Node4&#45;&gt;Node10 -->
<g id="edge12_Node000004_Node000010" class="edge">
<title>Node4&#45;&gt;Node10</title>
<g id="a_edge12_Node000004_Node000010"><a xlink:title=" ">
<path fill="none" stroke="#63b8ff" d="M370.04,-115.06C453.28,-110.3 571.24,-99.22 609.46,-74 629.4,-60.84 640.42,-33.28 644.96,-19.19"/>
<polygon fill="#63b8ff" stroke="#63b8ff" points="369.61,-111.58 359.82,-115.62 369.99,-118.56 369.61,-111.58"/>
</a>
</g>
</g>
<!-- Node8&#45;&gt;Node2 -->
<g id="edge9_Node000008_Node000002" class="edge">
<title>Node8&#45;&gt;Node2</title>
<g id="a_edge9_Node000008_Node000002"><a xlink:title=" ">
<path fill="none" stroke="#63b8ff" d="M466.46,-53.41C399.53,-42.85 296.28,-26.56 238.14,-17.39"/>
<polygon fill="#63b8ff" stroke="#63b8ff" points="466.05,-56.88 476.47,-54.98 467.14,-49.97 466.05,-56.88"/>
</a>
</g>
</g>
<!-- Node9 -->
<g id="Node000009" class="node">
<title>Node9</title>
<g id="a_Node000009"><a xlink:href="client__ws_8cc.html" target="_top" xlink:title=" ">
<polygon fill="white" stroke="#666666" points="549.46,-19 443.46,-19 443.46,0 549.46,0 549.46,-19"/>
<text text-anchor="middle" x="496.46" y="-7" font-family="Helvetica,sans-Serif" font-size="10.00">client/client_ws.cc</text>
</a>
</g>
</g>
<!-- Node8&#45;&gt;Node9 -->
<g id="edge10_Node000008_Node000009" class="edge">
<title>Node8&#45;&gt;Node9</title>
<g id="a_edge10_Node000008_Node000009"><a xlink:title=" ">
<path fill="none" stroke="#63b8ff" d="M519.3,-46.1C513.48,-37.04 506.64,-26.37 501.97,-19.09"/>
<polygon fill="#63b8ff" stroke="#63b8ff" points="516.5,-48.22 524.84,-54.75 522.39,-44.44 516.5,-48.22"/>
</a>
</g>
</g>
<!-- Node8&#45;&gt;Node10 -->
<g id="edge11_Node000008_Node000010" class="edge">
<title>Node8&#45;&gt;Node10</title>
<g id="a_edge11_Node000008_Node000010"><a xlink:title=" ">
<path fill="none" stroke="#63b8ff" d="M558.57,-50.77C580.15,-40.99 609.37,-27.75 628.32,-19.17"/>
<polygon fill="#63b8ff" stroke="#63b8ff" points="556.92,-47.67 549.25,-54.98 559.81,-54.05 556.92,-47.67"/>
</a>
</g>
</g>
</g>
</svg>
