<?xml version="1.0" encoding="UTF-8" standalone="no"?>
<!DOCTYPE svg PUBLIC "-//W3C//DTD SVG 1.1//EN"
 "http://www.w3.org/Graphics/SVG/1.1/DTD/svg11.dtd">
<!-- Generated by graphviz version 2.43.0 (0)
 -->
<!-- Title: client/include/webcface/wcf.h Pages: 1 -->
<svg width="1204pt" height="170pt"
 viewBox="0.00 0.00 1204.00 170.00" xmlns="http://www.w3.org/2000/svg" xmlns:xlink="http://www.w3.org/1999/xlink">
<g id="graph0" class="graph" transform="scale(1 1) rotate(0) translate(4 166)">
<title>client/include/webcface/wcf.h</title>
<!-- Node1 -->
<g id="Node000001" class="node">
<title>Node1</title>
<g id="a_Node000001"><a xlink:title=" ">
<polygon fill="#999999" stroke="#666666" points="280,-162 149,-162 149,-132 280,-132 280,-162"/>
<text text-anchor="start" x="157" y="-150" font-family="Helvetica,sans-Serif" font-size="10.00">client/include/webcface</text>
<text text-anchor="middle" x="214.5" y="-139" font-family="Helvetica,sans-Serif" font-size="10.00">/wcf.h</text>
</a>
</g>
</g>
<!-- Node2 -->
<g id="Node000002" class="node">
<title>Node2</title>
<g id="a_Node000002"><a xlink:href="c__wcf_8h.html" target="_top" xlink:title=" ">
<polygon fill="white" stroke="#666666" points="131,-96 0,-96 0,-66 131,-66 131,-96"/>
<text text-anchor="start" x="8" y="-84" font-family="Helvetica,sans-Serif" font-size="10.00">client/include/webcface</text>
<text text-anchor="middle" x="65.5" y="-73" font-family="Helvetica,sans-Serif" font-size="10.00">/c_wcf.h</text>
</a>
</g>
</g>
<!-- Node1&#45;&gt;Node2 -->
<g id="edge1_Node000001_Node000002" class="edge">
<title>Node1&#45;&gt;Node2</title>
<g id="a_edge1_Node000001_Node000002"><a xlink:title=" ">
<path fill="none" stroke="#63b8ff" d="M172.41,-127.92C148.86,-117.8 119.94,-105.38 98.12,-96.01"/>
<polygon fill="#63b8ff" stroke="#63b8ff" points="171.23,-131.22 181.8,-131.95 173.99,-124.79 171.23,-131.22"/>
</a>
</g>
</g>
<!-- Node3 -->
<g id="Node000003" class="node">
<title>Node3</title>
<g id="a_Node000003"><a xlink:href="webcface_8h.html" target="_top" xlink:title=" ">
<polygon fill="white" stroke="#666666" points="280,-96 149,-96 149,-66 280,-66 280,-96"/>
<text text-anchor="start" x="157" y="-84" font-family="Helvetica,sans-Serif" font-size="10.00">client/include/webcface</text>
<text text-anchor="middle" x="214.5" y="-73" font-family="Helvetica,sans-Serif" font-size="10.00">/webcface.h</text>
</a>
</g>
</g>
<!-- Node1&#45;&gt;Node3 -->
<g id="edge2_Node000001_Node000003" class="edge">
<title>Node1&#45;&gt;Node3</title>
<g id="a_edge2_Node000001_Node000003"><a xlink:title=" ">
<path fill="none" stroke="#63b8ff" d="M214.5,-121.54C214.5,-112.96 214.5,-103.61 214.5,-96.16"/>
<polygon fill="#63b8ff" stroke="#63b8ff" points="211,-121.8 214.5,-131.8 218,-121.8 211,-121.8"/>
</a>
</g>
</g>
<!-- Node6 -->
<g id="Node000006" class="node">
<title>Node6</title>
<g id="a_Node000006"><a xlink:href="c__wcf__internal_8h.html" target="_top" xlink:title=" ">
<polygon fill="white" stroke="#666666" points="722.5,-96 622.5,-96 622.5,-66 722.5,-66 722.5,-96"/>
<text text-anchor="start" x="630.5" y="-84" font-family="Helvetica,sans-Serif" font-size="10.00">client/src/c_wcf/c</text>
<text text-anchor="middle" x="672.5" y="-73" font-family="Helvetica,sans-Serif" font-size="10.00">_wcf_internal.h</text>
</a>
</g>
</g>
<!-- Node1&#45;&gt;Node6 -->
<g id="edge5_Node000001_Node000006" class="edge">
<title>Node1&#45;&gt;Node6</title>
<g id="a_edge5_Node000001_Node000006"><a xlink:title=" ">
<path fill="none" stroke="#63b8ff" d="M290.13,-135.43C384.1,-122.3 541.84,-100.26 622.18,-89.03"/>
<polygon fill="#63b8ff" stroke="#63b8ff" points="289.54,-131.98 280.12,-136.83 290.51,-138.91 289.54,-131.98"/>
</a>
</g>
</g>
<!-- Node4 -->
<g id="Node000004" class="node">
<title>Node4</title>
<g id="a_Node000004"><a xlink:href="webcface_8cc.html" target="_top" xlink:title=" ">
<polygon fill="white" stroke="#666666" points="131,-30 0,-30 0,0 131,0 131,-30"/>
<text text-anchor="start" x="8" y="-18" font-family="Helvetica,sans-Serif" font-size="10.00">client/include/webcface</text>
<text text-anchor="middle" x="65.5" y="-7" font-family="Helvetica,sans-Serif" font-size="10.00">/modules/webcface.cc</text>
</a>
</g>
</g>
<!-- Node3&#45;&gt;Node4 -->
<g id="edge3_Node000003_Node000004" class="edge">
<title>Node3&#45;&gt;Node4</title>
<g id="a_edge3_Node000003_Node000004"><a xlink:title=" ">
<path fill="none" stroke="#63b8ff" d="M172.41,-61.92C148.86,-51.8 119.94,-39.38 98.12,-30.01"/>
<polygon fill="#63b8ff" stroke="#63b8ff" points="171.23,-65.22 181.8,-65.95 173.99,-58.79 171.23,-65.22"/>
</a>
</g>
</g>
<!-- Node5 -->
<g id="Node000005" class="node">
<title>Node5</title>
<g id="a_Node000005"><a xlink:href="webcface_8ixx.html" target="_top" xlink:title=" ">
<polygon fill="white" stroke="#666666" points="280,-30 149,-30 149,0 280,0 280,-30"/>
<text text-anchor="start" x="157" y="-18" font-family="Helvetica,sans-Serif" font-size="10.00">client/include/webcface</text>
<text text-anchor="middle" x="214.5" y="-7" font-family="Helvetica,sans-Serif" font-size="10.00">/modules/webcface.ixx</text>
</a>
</g>
</g>
<!-- Node3&#45;&gt;Node5 -->
<g id="edge4_Node000003_Node000005" class="edge">
<title>Node3&#45;&gt;Node5</title>
<g id="a_edge4_Node000003_Node000005"><a xlink:title=" ">
<path fill="none" stroke="#63b8ff" d="M214.5,-55.54C214.5,-46.96 214.5,-37.61 214.5,-30.16"/>
<polygon fill="#63b8ff" stroke="#63b8ff" points="211,-55.8 214.5,-65.8 218,-55.8 211,-55.8"/>
</a>
</g>
</g>
<!-- Node7 -->
<g id="Node000007" class="node">
<title>Node7</title>
<g id="a_Node000007"><a xlink:href="client_8cc.html" target="_top" xlink:title=" ">
<polygon fill="white" stroke="#666666" points="433,-24.5 298,-24.5 298,-5.5 433,-5.5 433,-24.5"/>
<text text-anchor="middle" x="365.5" y="-12.5" font-family="Helvetica,sans-Serif" font-size="10.00">client/src/c_wcf/client.cc</text>
</a>
</g>
</g>
<!-- Node6&#45;&gt;Node7 -->
<g id="edge6_Node000006_Node000007" class="edge">
<title>Node6&#45;&gt;Node7</title>
<g id="a_edge6_Node000006_Node000007"><a xlink:title=" ">
<path fill="none" stroke="#63b8ff" d="M612.66,-67.52C551.94,-54.87 459.57,-35.61 406.63,-24.57"/>
<polygon fill="#63b8ff" stroke="#63b8ff" points="611.99,-70.96 622.49,-69.57 613.42,-64.11 611.99,-70.96"/>
</a>
</g>
</g>
<!-- Node8 -->
<g id="Node000008" class="node">
<title>Node8</title>
<g id="a_Node000008"><a xlink:href="c__wcf_2func_8cc.html" target="_top" xlink:title=" ">
<polygon fill="white" stroke="#666666" points="580,-24.5 451,-24.5 451,-5.5 580,-5.5 580,-24.5"/>
<text text-anchor="middle" x="515.5" y="-12.5" font-family="Helvetica,sans-Serif" font-size="10.00">client/src/c_wcf/func.cc</text>
</a>
</g>
</g>
<!-- Node6&#45;&gt;Node8 -->
<g id="edge7_Node000006_Node000008" class="edge">
<title>Node6&#45;&gt;Node8</title>
<g id="a_edge7_Node000006_Node000008"><a xlink:title=" ">
<path fill="none" stroke="#63b8ff" d="M628.59,-62.1C598.45,-49.82 559.81,-34.06 536.39,-24.52"/>
<polygon fill="#63b8ff" stroke="#63b8ff" points="627.46,-65.42 638.05,-65.95 630.11,-58.94 627.46,-65.42"/>
</a>
</g>
</g>
<!-- Node9 -->
<g id="Node000009" class="node">
<title>Node9</title>
<g id="a_Node000009"><a xlink:href="c__wcf_2member_8cc.html" target="_top" xlink:title=" ">
<polygon fill="white" stroke="#666666" points="747,-24.5 598,-24.5 598,-5.5 747,-5.5 747,-24.5"/>
<text text-anchor="middle" x="672.5" y="-12.5" font-family="Helvetica,sans-Serif" font-size="10.00">client/src/c_wcf/member.cc</text>
</a>
</g>
</g>
<!-- Node6&#45;&gt;Node9 -->
<g id="edge8_Node000006_Node000009" class="edge">
<title>Node6&#45;&gt;Node9</title>
<g id="a_edge8_Node000006_Node000009"><a xlink:title=" ">
<path fill="none" stroke="#63b8ff" d="M672.5,-55.6C672.5,-44.8 672.5,-32.78 672.5,-24.84"/>
<polygon fill="#63b8ff" stroke="#63b8ff" points="669,-55.8 672.5,-65.8 676,-55.8 669,-55.8"/>
</a>
</g>
</g>
<!-- Node10 -->
<g id="Node000010" class="node">
<title>Node10</title>
<g id="a_Node000010"><a xlink:href="c__wcf_2text_8cc.html" target="_top" xlink:title=" ">
<polygon fill="white" stroke="#666666" points="893.5,-24.5 765.5,-24.5 765.5,-5.5 893.5,-5.5 893.5,-24.5"/>
<text text-anchor="middle" x="829.5" y="-12.5" font-family="Helvetica,sans-Serif" font-size="10.00">client/src/c_wcf/text.cc</text>
</a>
</g>
</g>
<!-- Node6&#45;&gt;Node10 -->
<g id="edge9_Node000006_Node000010" class="edge">
<title>Node6&#45;&gt;Node10</title>
<g id="a_edge9_Node000006_Node000010"><a xlink:title=" ">
<path fill="none" stroke="#63b8ff" d="M716.41,-62.1C746.55,-49.82 785.19,-34.06 808.61,-24.52"/>
<polygon fill="#63b8ff" stroke="#63b8ff" points="714.89,-58.94 706.95,-65.95 717.54,-65.42 714.89,-58.94"/>
</a>
</g>
</g>
<!-- Node11 -->
<g id="Node000011" class="node">
<title>Node11</title>
<g id="a_Node000011"><a xlink:href="c__wcf_2value_8cc.html" target="_top" xlink:title=" ">
<polygon fill="white" stroke="#666666" points="1047,-24.5 912,-24.5 912,-5.5 1047,-5.5 1047,-24.5"/>
<text text-anchor="middle" x="979.5" y="-12.5" font-family="Helvetica,sans-Serif" font-size="10.00">client/src/c_wcf/value.cc</text>
</a>
</g>
</g>
<!-- Node6&#45;&gt;Node11 -->
<g id="edge10_Node000006_Node000011" class="edge">
<title>Node6&#45;&gt;Node11</title>
<g id="a_edge10_Node000006_Node000011"><a xlink:title=" ">
<path fill="none" stroke="#63b8ff" d="M732.34,-67.52C793.06,-54.87 885.43,-35.61 938.37,-24.57"/>
<polygon fill="#63b8ff" stroke="#63b8ff" points="731.58,-64.11 722.51,-69.57 733.01,-70.96 731.58,-64.11"/>
</a>
</g>
</g>
<!-- Node12 -->
<g id="Node000012" class="node">
<title>Node12</title>
<g id="a_Node000012"><a xlink:href="c__wcf_2view_8cc.html" target="_top" xlink:title=" ">
<polygon fill="white" stroke="#666666" points="1196,-24.5 1065,-24.5 1065,-5.5 1196,-5.5 1196,-24.5"/>
<text text-anchor="middle" x="1130.5" y="-12.5" font-family="Helvetica,sans-Serif" font-size="10.00">client/src/c_wcf/view.cc</text>
</a>
</g>
</g>
<!-- Node6&#45;&gt;Node12 -->
<g id="edge11_Node000006_Node000012" class="edge">
<title>Node6&#45;&gt;Node12</title>
<g id="a_edge11_Node000006_Node000012"><a xlink:title=" ">
<path fill="none" stroke="#63b8ff" d="M732.95,-73.22C808.73,-64.47 942.53,-48.19 1056.5,-30 1066.57,-28.39 1077.37,-26.47 1087.53,-24.56"/>
<polygon fill="#63b8ff" stroke="#63b8ff" points="732.18,-69.78 722.65,-74.4 732.98,-76.74 732.18,-69.78"/>
</a>
</g>
</g>
</g>
</svg>
