<?xml version="1.0" encoding="UTF-8" standalone="no"?>
<!DOCTYPE svg PUBLIC "-//W3C//DTD SVG 1.1//EN"
 "http://www.w3.org/Graphics/SVG/1.1/DTD/svg11.dtd">
<!-- Generated by graphviz version 2.43.0 (0)
 -->
<!-- Title: include/webcface/wcf.h Pages: 1 -->
<svg width="496pt" height="247pt"
 viewBox="0.00 0.00 495.80 247.00" xmlns="http://www.w3.org/2000/svg" xmlns:xlink="http://www.w3.org/1999/xlink">
<g id="graph0" class="graph" transform="scale(1 1) rotate(0) translate(4 243)">
<title>include/webcface/wcf.h</title>
<!-- Node1 -->
<g id="Node000001" class="node">
<title>Node1</title>
<g id="a_Node000001"><a xlink:title=" ">
<polygon fill="#999999" stroke="#666666" points="273.3,-239 143.3,-239 143.3,-220 273.3,-220 273.3,-239"/>
<text text-anchor="middle" x="208.3" y="-227" font-family="Helvetica,sans-Serif" font-size="10.00">include/webcface/wcf.h</text>
</a>
</g>
</g>
<!-- Node2 -->
<g id="Node000002" class="node">
<title>Node2</title>
<g id="a_Node000002"><a xlink:href="def__types_8h.html" target="_top" xlink:title=" ">
<polygon fill="white" stroke="#666666" points="211.3,-129 107.3,-129 107.3,-110 211.3,-110 211.3,-129"/>
<text text-anchor="middle" x="159.3" y="-117" font-family="Helvetica,sans-Serif" font-size="10.00">c_wcf/def_types.h</text>
</a>
</g>
</g>
<!-- Node1&#45;&gt;Node2 -->
<g id="edge1_Node000001_Node000002" class="edge">
<title>Node1&#45;&gt;Node2</title>
<g id="a_edge1_Node000001_Node000002"><a xlink:title=" ">
<path fill="none" stroke="#63b8ff" d="M143.12,-222.8C91.09,-216.74 24.19,-205.04 7.3,-184 -20.96,-148.8 43.4,-132.87 96.92,-125.82"/>
<polygon fill="#63b8ff" stroke="#63b8ff" points="97.6,-129.27 107.1,-124.57 96.75,-122.32 97.6,-129.27"/>
</a>
</g>
</g>
<!-- Node5 -->
<g id="Node000005" class="node">
<title>Node5</title>
<g id="a_Node000005"><a xlink:href="c__wcf_2client_8h.html" target="_top" xlink:title=" ">
<polygon fill="white" stroke="#666666" points="99.8,-184 16.8,-184 16.8,-165 99.8,-165 99.8,-184"/>
<text text-anchor="middle" x="58.3" y="-172" font-family="Helvetica,sans-Serif" font-size="10.00">c_wcf/client.h</text>
</a>
</g>
</g>
<!-- Node1&#45;&gt;Node5 -->
<g id="edge4_Node000001_Node000005" class="edge">
<title>Node1&#45;&gt;Node5</title>
<g id="a_edge4_Node000001_Node000005"><a xlink:title=" ">
<path fill="none" stroke="#63b8ff" d="M184.2,-219.98C159.41,-211.23 120.59,-197.51 92.61,-187.62"/>
<polygon fill="#63b8ff" stroke="#63b8ff" points="93.43,-184.2 82.84,-184.17 91.1,-190.8 93.43,-184.2"/>
</a>
</g>
</g>
<!-- Node6 -->
<g id="Node000006" class="node">
<title>Node6</title>
<g id="a_Node000006"><a xlink:href="c__wcf_2value_8h.html" target="_top" xlink:title=" ">
<polygon fill="white" stroke="#666666" points="200.8,-184 117.8,-184 117.8,-165 200.8,-165 200.8,-184"/>
<text text-anchor="middle" x="159.3" y="-172" font-family="Helvetica,sans-Serif" font-size="10.00">c_wcf/value.h</text>
</a>
</g>
</g>
<!-- Node1&#45;&gt;Node6 -->
<g id="edge6_Node000001_Node000006" class="edge">
<title>Node1&#45;&gt;Node6</title>
<g id="a_edge6_Node000001_Node000006"><a xlink:title=" ">
<path fill="none" stroke="#63b8ff" d="M200.21,-219.75C193.14,-212.11 182.71,-200.82 174.15,-191.56"/>
<polygon fill="#63b8ff" stroke="#63b8ff" points="176.6,-189.06 167.24,-184.09 171.46,-193.81 176.6,-189.06"/>
</a>
</g>
</g>
<!-- Node7 -->
<g id="Node000007" class="node">
<title>Node7</title>
<g id="a_Node000007"><a xlink:href="c__wcf_2text_8h.html" target="_top" xlink:title=" ">
<polygon fill="white" stroke="#666666" points="295.3,-184 219.3,-184 219.3,-165 295.3,-165 295.3,-184"/>
<text text-anchor="middle" x="257.3" y="-172" font-family="Helvetica,sans-Serif" font-size="10.00">c_wcf/text.h</text>
</a>
</g>
</g>
<!-- Node1&#45;&gt;Node7 -->
<g id="edge8_Node000001_Node000007" class="edge">
<title>Node1&#45;&gt;Node7</title>
<g id="a_edge8_Node000001_Node000007"><a xlink:title=" ">
<path fill="none" stroke="#63b8ff" d="M216.39,-219.75C223.45,-212.11 233.88,-200.82 242.45,-191.56"/>
<polygon fill="#63b8ff" stroke="#63b8ff" points="245.14,-193.81 249.36,-184.09 240,-189.06 245.14,-193.81"/>
</a>
</g>
</g>
<!-- Node8 -->
<g id="Node000008" class="node">
<title>Node8</title>
<g id="a_Node000008"><a xlink:href="c__wcf_2func_8h.html" target="_top" xlink:title=" ">
<polygon fill="white" stroke="#666666" points="390.8,-184 313.8,-184 313.8,-165 390.8,-165 390.8,-184"/>
<text text-anchor="middle" x="352.3" y="-172" font-family="Helvetica,sans-Serif" font-size="10.00">c_wcf/func.h</text>
</a>
</g>
</g>
<!-- Node1&#45;&gt;Node8 -->
<g id="edge10_Node000001_Node000008" class="edge">
<title>Node1&#45;&gt;Node8</title>
<g id="a_edge10_Node000001_Node000008"><a xlink:title=" ">
<path fill="none" stroke="#63b8ff" d="M231.43,-219.98C255.12,-211.27 292.17,-197.63 319,-187.75"/>
<polygon fill="#63b8ff" stroke="#63b8ff" points="320.56,-190.91 328.74,-184.17 318.15,-184.34 320.56,-190.91"/>
</a>
</g>
</g>
<!-- Node9 -->
<g id="Node000009" class="node">
<title>Node9</title>
<g id="a_Node000009"><a xlink:href="c__wcf_2view_8h.html" target="_top" xlink:title=" ">
<polygon fill="white" stroke="#666666" points="487.8,-184 408.8,-184 408.8,-165 487.8,-165 487.8,-184"/>
<text text-anchor="middle" x="448.3" y="-172" font-family="Helvetica,sans-Serif" font-size="10.00">c_wcf/view.h</text>
</a>
</g>
</g>
<!-- Node1&#45;&gt;Node9 -->
<g id="edge12_Node000001_Node000009" class="edge">
<title>Node1&#45;&gt;Node9</title>
<g id="a_edge12_Node000001_Node000009"><a xlink:title=" ">
<path fill="none" stroke="#63b8ff" d="M246.86,-219.98C288.37,-210.82 354.51,-196.21 399.59,-186.26"/>
<polygon fill="#63b8ff" stroke="#63b8ff" points="400.42,-189.66 409.43,-184.08 398.92,-182.82 400.42,-189.66"/>
</a>
</g>
</g>
<!-- Node3 -->
<g id="Node000003" class="node">
<title>Node3</title>
<g id="a_Node000003"><a xlink:href="def_8h.html" target="_top" xlink:title=" ">
<polygon fill="white" stroke="#666666" points="206.8,-74 111.8,-74 111.8,-55 206.8,-55 206.8,-74"/>
<text text-anchor="middle" x="159.3" y="-62" font-family="Helvetica,sans-Serif" font-size="10.00">../common/def.h</text>
</a>
</g>
</g>
<!-- Node2&#45;&gt;Node3 -->
<g id="edge2_Node000002_Node000003" class="edge">
<title>Node2&#45;&gt;Node3</title>
<g id="a_edge2_Node000002_Node000003"><a xlink:title=" ">
<path fill="none" stroke="#63b8ff" d="M159.3,-109.75C159.3,-102.8 159.3,-92.85 159.3,-84.13"/>
<polygon fill="#63b8ff" stroke="#63b8ff" points="162.8,-84.09 159.3,-74.09 155.8,-84.09 162.8,-84.09"/>
</a>
</g>
</g>
<!-- Node4 -->
<g id="Node000004" class="node">
<title>Node4</title>
<g id="a_Node000004"><a xlink:href="macros_8h.html" target="_top" xlink:title=" ">
<polygon fill="white" stroke="#666666" points="190.3,-19 128.3,-19 128.3,0 190.3,0 190.3,-19"/>
<text text-anchor="middle" x="159.3" y="-7" font-family="Helvetica,sans-Serif" font-size="10.00">macros.h</text>
</a>
</g>
</g>
<!-- Node3&#45;&gt;Node4 -->
<g id="edge3_Node000003_Node000004" class="edge">
<title>Node3&#45;&gt;Node4</title>
<g id="a_edge3_Node000003_Node000004"><a xlink:title=" ">
<path fill="none" stroke="#63b8ff" d="M159.3,-54.75C159.3,-47.8 159.3,-37.85 159.3,-29.13"/>
<polygon fill="#63b8ff" stroke="#63b8ff" points="162.8,-29.09 159.3,-19.09 155.8,-29.09 162.8,-29.09"/>
</a>
</g>
</g>
<!-- Node5&#45;&gt;Node2 -->
<g id="edge5_Node000005_Node000002" class="edge">
<title>Node5&#45;&gt;Node2</title>
<g id="a_edge5_Node000005_Node000002"><a xlink:title=" ">
<path fill="none" stroke="#63b8ff" d="M74.52,-164.98C90.48,-156.61 115.08,-143.7 133.67,-133.95"/>
<polygon fill="#63b8ff" stroke="#63b8ff" points="135.55,-136.92 142.77,-129.17 132.29,-130.72 135.55,-136.92"/>
</a>
</g>
</g>
<!-- Node6&#45;&gt;Node2 -->
<g id="edge7_Node000006_Node000002" class="edge">
<title>Node6&#45;&gt;Node2</title>
<g id="a_edge7_Node000006_Node000002"><a xlink:title=" ">
<path fill="none" stroke="#63b8ff" d="M159.3,-164.75C159.3,-157.8 159.3,-147.85 159.3,-139.13"/>
<polygon fill="#63b8ff" stroke="#63b8ff" points="162.8,-139.09 159.3,-129.09 155.8,-139.09 162.8,-139.09"/>
</a>
</g>
</g>
<!-- Node7&#45;&gt;Node2 -->
<g id="edge9_Node000007_Node000002" class="edge">
<title>Node7&#45;&gt;Node2</title>
<g id="a_edge9_Node000007_Node000002"><a xlink:title=" ">
<path fill="none" stroke="#63b8ff" d="M241.55,-164.98C226.07,-156.61 202.2,-143.7 184.16,-133.95"/>
<polygon fill="#63b8ff" stroke="#63b8ff" points="185.79,-130.85 175.33,-129.17 182.46,-137.01 185.79,-130.85"/>
</a>
</g>
</g>
<!-- Node8&#45;&gt;Node2 -->
<g id="edge11_Node000008_Node000002" class="edge">
<title>Node8&#45;&gt;Node2</title>
<g id="a_edge11_Node000008_Node000002"><a xlink:title=" ">
<path fill="none" stroke="#63b8ff" d="M321.29,-164.98C288.47,-155.97 236.5,-141.7 200.31,-131.76"/>
<polygon fill="#63b8ff" stroke="#63b8ff" points="201.12,-128.36 190.55,-129.08 199.27,-135.11 201.12,-128.36"/>
</a>
</g>
</g>
</g>
</svg>
