<?xml version="1.0" encoding="UTF-8" standalone="no"?>
<!DOCTYPE svg PUBLIC "-//W3C//DTD SVG 1.1//EN"
 "http://www.w3.org/Graphics/SVG/1.1/DTD/svg11.dtd">
<!-- Generated by graphviz version 2.43.0 (0)
 -->
<!-- Title: /home/runner/work/webcface/webcface/client/include/webcface/wcf.h Pages: 1 -->
<svg width="898pt" height="203pt"
 viewBox="0.00 0.00 897.50 203.00" xmlns="http://www.w3.org/2000/svg" xmlns:xlink="http://www.w3.org/1999/xlink">
<g id="graph0" class="graph" transform="scale(1 1) rotate(0) translate(4 199)">
<title>/home/runner/work/webcface/webcface/client/include/webcface/wcf.h</title>
<!-- Node1 -->
<g id="Node000001" class="node">
<title>Node1</title>
<g id="a_Node000001"><a xlink:title=" ">
<polygon fill="#999999" stroke="#666666" points="510,-195 352,-195 352,-154 510,-154 510,-195"/>
<text text-anchor="start" x="360" y="-183" font-family="Helvetica,sans-Serif" font-size="10.00">/home/runner/work/webcface</text>
<text text-anchor="start" x="360" y="-172" font-family="Helvetica,sans-Serif" font-size="10.00">/webcface/client/include</text>
<text text-anchor="middle" x="431" y="-161" font-family="Helvetica,sans-Serif" font-size="10.00">/webcface/wcf.h</text>
</a>
</g>
</g>
<!-- Node2 -->
<g id="Node000002" class="node">
<title>Node2</title>
<g id="a_Node000002"><a xlink:href="c__wcf_8h.html" target="_top" xlink:title=" ">
<polygon fill="white" stroke="#666666" points="158,-118 0,-118 0,-77 158,-77 158,-118"/>
<text text-anchor="start" x="8" y="-106" font-family="Helvetica,sans-Serif" font-size="10.00">/home/runner/work/webcface</text>
<text text-anchor="start" x="8" y="-95" font-family="Helvetica,sans-Serif" font-size="10.00">/webcface/client/include</text>
<text text-anchor="middle" x="79" y="-84" font-family="Helvetica,sans-Serif" font-size="10.00">/webcface/c_wcf.h</text>
</a>
</g>
</g>
<!-- Node1&#45;&gt;Node2 -->
<g id="edge1_Node000001_Node000002" class="edge">
<title>Node1&#45;&gt;Node2</title>
<g id="a_edge1_Node000001_Node000002"><a xlink:title=" ">
<path fill="none" stroke="#63b8ff" d="M341.78,-154.99C290.6,-144.32 225.16,-130.56 167,-118 164.09,-117.37 161.13,-116.73 158.15,-116.08"/>
<polygon fill="#63b8ff" stroke="#63b8ff" points="341.32,-158.47 351.82,-157.09 342.75,-151.62 341.32,-158.47"/>
</a>
</g>
</g>
<!-- Node3 -->
<g id="Node000003" class="node">
<title>Node3</title>
<g id="a_Node000003"><a xlink:href="webcface_8h.html" target="_top" xlink:title=" ">
<polygon fill="white" stroke="#666666" points="334,-118 176,-118 176,-77 334,-77 334,-118"/>
<text text-anchor="start" x="184" y="-106" font-family="Helvetica,sans-Serif" font-size="10.00">/home/runner/work/webcface</text>
<text text-anchor="start" x="184" y="-95" font-family="Helvetica,sans-Serif" font-size="10.00">/webcface/client/include</text>
<text text-anchor="middle" x="255" y="-84" font-family="Helvetica,sans-Serif" font-size="10.00">/webcface/webcface.h</text>
</a>
</g>
</g>
<!-- Node1&#45;&gt;Node3 -->
<g id="edge2_Node000001_Node000003" class="edge">
<title>Node1&#45;&gt;Node3</title>
<g id="a_edge2_Node000001_Node000003"><a xlink:title=" ">
<path fill="none" stroke="#63b8ff" d="M375.84,-150C351.74,-139.72 323.8,-127.82 300.86,-118.04"/>
<polygon fill="#63b8ff" stroke="#63b8ff" points="374.65,-153.29 385.22,-153.99 377.39,-146.85 374.65,-153.29"/>
</a>
</g>
</g>
<!-- Node4 -->
<g id="Node000004" class="node">
<title>Node4</title>
<g id="a_Node000004"><a xlink:href="c__wcf__internal_8h.html" target="_top" xlink:title=" ">
<polygon fill="white" stroke="#666666" points="510,-118 352,-118 352,-77 510,-77 510,-118"/>
<text text-anchor="start" x="360" y="-106" font-family="Helvetica,sans-Serif" font-size="10.00">/home/runner/work/webcface</text>
<text text-anchor="start" x="360" y="-95" font-family="Helvetica,sans-Serif" font-size="10.00">/webcface/client/src/c_wcf</text>
<text text-anchor="middle" x="431" y="-84" font-family="Helvetica,sans-Serif" font-size="10.00">/c_wcf_internal.h</text>
</a>
</g>
</g>
<!-- Node1&#45;&gt;Node4 -->
<g id="edge3_Node000001_Node000004" class="edge">
<title>Node1&#45;&gt;Node4</title>
<g id="a_edge3_Node000001_Node000004"><a xlink:title=" ">
<path fill="none" stroke="#63b8ff" d="M431,-143.69C431,-135.08 431,-125.9 431,-118.07"/>
<polygon fill="#63b8ff" stroke="#63b8ff" points="427.5,-143.79 431,-153.79 434.5,-143.79 427.5,-143.79"/>
</a>
</g>
</g>
<!-- Node10 -->
<g id="Node000010" class="node">
<title>Node10</title>
<g id="a_Node000010"><a xlink:href="c__example_8c.html" target="_top" xlink:title=" ">
<polygon fill="white" stroke="#666666" points="710,-112.5 528,-112.5 528,-82.5 710,-82.5 710,-112.5"/>
<text text-anchor="start" x="536" y="-100.5" font-family="Helvetica,sans-Serif" font-size="10.00">/home/runner/work/webcface</text>
<text text-anchor="middle" x="619" y="-89.5" font-family="Helvetica,sans-Serif" font-size="10.00">/webcface/examples/c_example.c</text>
</a>
</g>
</g>
<!-- Node1&#45;&gt;Node10 -->
<g id="edge9_Node000001_Node000010" class="edge">
<title>Node1&#45;&gt;Node10</title>
<g id="a_edge9_Node000001_Node000010"><a xlink:title=" ">
<path fill="none" stroke="#63b8ff" d="M489.28,-150.25C520.19,-137.92 557.15,-123.17 583.7,-112.58"/>
<polygon fill="#63b8ff" stroke="#63b8ff" points="487.9,-147.03 479.9,-153.99 490.49,-153.54 487.9,-147.03"/>
</a>
</g>
</g>
<!-- Node11 -->
<g id="Node000011" class="node">
<title>Node11</title>
<g id="a_Node000011"><a xlink:href="c__wcf__test_8cc.html" target="_top" xlink:title=" ">
<polygon fill="white" stroke="#666666" points="889.5,-112.5 728.5,-112.5 728.5,-82.5 889.5,-82.5 889.5,-112.5"/>
<text text-anchor="start" x="736.5" y="-100.5" font-family="Helvetica,sans-Serif" font-size="10.00">/home/runner/work/webcface</text>
<text text-anchor="middle" x="809" y="-89.5" font-family="Helvetica,sans-Serif" font-size="10.00">/webcface/tests/c_wcf_test.cc</text>
</a>
</g>
</g>
<!-- Node1&#45;&gt;Node11 -->
<g id="edge10_Node000001_Node000011" class="edge">
<title>Node1&#45;&gt;Node11</title>
<g id="a_edge10_Node000001_Node000011"><a xlink:title=" ">
<path fill="none" stroke="#63b8ff" d="M520.3,-156.84C577.23,-146.08 652.53,-131.6 719,-118 727.46,-116.27 736.35,-114.4 745.12,-112.53"/>
<polygon fill="#63b8ff" stroke="#63b8ff" points="519.43,-153.44 510.25,-158.74 520.72,-160.32 519.43,-153.44"/>
</a>
</g>
</g>
<!-- Node5 -->
<g id="Node000005" class="node">
<title>Node5</title>
<g id="a_Node000005"><a xlink:href="c__wcf_2client_8cc.html" target="_top" xlink:title=" ">
<polygon fill="white" stroke="#666666" points="158,-41 0,-41 0,0 158,0 158,-41"/>
<text text-anchor="start" x="8" y="-29" font-family="Helvetica,sans-Serif" font-size="10.00">/home/runner/work/webcface</text>
<text text-anchor="start" x="8" y="-18" font-family="Helvetica,sans-Serif" font-size="10.00">/webcface/client/src/c_wcf</text>
<text text-anchor="middle" x="79" y="-7" font-family="Helvetica,sans-Serif" font-size="10.00">/client.cc</text>
</a>
</g>
</g>
<!-- Node4&#45;&gt;Node5 -->
<g id="edge4_Node000004_Node000005" class="edge">
<title>Node4&#45;&gt;Node5</title>
<g id="a_edge4_Node000004_Node000005"><a xlink:title=" ">
<path fill="none" stroke="#63b8ff" d="M341.97,-76.8C263.27,-60.13 242.04,-56.99 167,-41 164.09,-40.38 161.13,-39.75 158.14,-39.1"/>
<polygon fill="#63b8ff" stroke="#63b8ff" points="341.35,-80.24 351.86,-78.9 342.81,-73.4 341.35,-80.24"/>
</a>
</g>
</g>
<!-- Node6 -->
<g id="Node000006" class="node">
<title>Node6</title>
<g id="a_Node000006"><a xlink:href="client_2src_2c__wcf_2func_8cc.html" target="_top" xlink:title=" ">
<polygon fill="white" stroke="#666666" points="334,-41 176,-41 176,0 334,0 334,-41"/>
<text text-anchor="start" x="184" y="-29" font-family="Helvetica,sans-Serif" font-size="10.00">/home/runner/work/webcface</text>
<text text-anchor="start" x="184" y="-18" font-family="Helvetica,sans-Serif" font-size="10.00">/webcface/client/src/c_wcf</text>
<text text-anchor="middle" x="255" y="-7" font-family="Helvetica,sans-Serif" font-size="10.00">/func.cc</text>
</a>
</g>
</g>
<!-- Node4&#45;&gt;Node6 -->
<g id="edge5_Node000004_Node000006" class="edge">
<title>Node4&#45;&gt;Node6</title>
<g id="a_edge5_Node000004_Node000006"><a xlink:title=" ">
<path fill="none" stroke="#63b8ff" d="M375.84,-73C351.74,-62.72 323.8,-50.82 300.86,-41.04"/>
<polygon fill="#63b8ff" stroke="#63b8ff" points="374.65,-76.29 385.22,-76.99 377.39,-69.85 374.65,-76.29"/>
</a>
</g>
</g>
<!-- Node7 -->
<g id="Node000007" class="node">
<title>Node7</title>
<g id="a_Node000007"><a xlink:href="c__wcf_2text_8cc.html" target="_top" xlink:title=" ">
<polygon fill="white" stroke="#666666" points="510,-41 352,-41 352,0 510,0 510,-41"/>
<text text-anchor="start" x="360" y="-29" font-family="Helvetica,sans-Serif" font-size="10.00">/home/runner/work/webcface</text>
<text text-anchor="start" x="360" y="-18" font-family="Helvetica,sans-Serif" font-size="10.00">/webcface/client/src/c_wcf</text>
<text text-anchor="middle" x="431" y="-7" font-family="Helvetica,sans-Serif" font-size="10.00">/text.cc</text>
</a>
</g>
</g>
<!-- Node4&#45;&gt;Node7 -->
<g id="edge6_Node000004_Node000007" class="edge">
<title>Node4&#45;&gt;Node7</title>
<g id="a_edge6_Node000004_Node000007"><a xlink:title=" ">
<path fill="none" stroke="#63b8ff" d="M431,-66.69C431,-58.08 431,-48.9 431,-41.07"/>
<polygon fill="#63b8ff" stroke="#63b8ff" points="427.5,-66.79 431,-76.79 434.5,-66.79 427.5,-66.79"/>
</a>
</g>
</g>
<!-- Node8 -->
<g id="Node000008" class="node">
<title>Node8</title>
<g id="a_Node000008"><a xlink:href="client_2src_2c__wcf_2value_8cc.html" target="_top" xlink:title=" ">
<polygon fill="white" stroke="#666666" points="686,-41 528,-41 528,0 686,0 686,-41"/>
<text text-anchor="start" x="536" y="-29" font-family="Helvetica,sans-Serif" font-size="10.00">/home/runner/work/webcface</text>
<text text-anchor="start" x="536" y="-18" font-family="Helvetica,sans-Serif" font-size="10.00">/webcface/client/src/c_wcf</text>
<text text-anchor="middle" x="607" y="-7" font-family="Helvetica,sans-Serif" font-size="10.00">/value.cc</text>
</a>
</g>
</g>
<!-- Node4&#45;&gt;Node8 -->
<g id="edge7_Node000004_Node000008" class="edge">
<title>Node4&#45;&gt;Node8</title>
<g id="a_edge7_Node000004_Node000008"><a xlink:title=" ">
<path fill="none" stroke="#63b8ff" d="M486.16,-73C510.26,-62.72 538.2,-50.82 561.14,-41.04"/>
<polygon fill="#63b8ff" stroke="#63b8ff" points="484.61,-69.85 476.78,-76.99 487.35,-76.29 484.61,-69.85"/>
</a>
</g>
</g>
<!-- Node9 -->
<g id="Node000009" class="node">
<title>Node9</title>
<g id="a_Node000009"><a xlink:href="client_2src_2c__wcf_2view_8cc.html" target="_top" xlink:title=" ">
<polygon fill="white" stroke="#666666" points="862,-41 704,-41 704,0 862,0 862,-41"/>
<text text-anchor="start" x="712" y="-29" font-family="Helvetica,sans-Serif" font-size="10.00">/home/runner/work/webcface</text>
<text text-anchor="start" x="712" y="-18" font-family="Helvetica,sans-Serif" font-size="10.00">/webcface/client/src/c_wcf</text>
<text text-anchor="middle" x="783" y="-7" font-family="Helvetica,sans-Serif" font-size="10.00">/view.cc</text>
</a>
</g>
</g>
<!-- Node4&#45;&gt;Node9 -->
<g id="edge8_Node000004_Node000009" class="edge">
<title>Node4&#45;&gt;Node9</title>
<g id="a_edge8_Node000004_Node000009"><a xlink:title=" ">
<path fill="none" stroke="#63b8ff" d="M520.03,-76.8C598.73,-60.13 619.96,-56.99 695,-41 697.91,-40.38 700.87,-39.75 703.86,-39.1"/>
<polygon fill="#63b8ff" stroke="#63b8ff" points="519.19,-73.4 510.14,-78.9 520.65,-80.24 519.19,-73.4"/>
</a>
</g>
</g>
</g>
</svg>
