<?xml version="1.0" encoding="UTF-8" standalone="no"?>
<!-- Created with Inkscape (http://www.inkscape.org/) -->

<svg
   width="127.99999"
   height="128"
   viewBox="0 0 33.866638 33.866667"
   version="1.1"
   id="svg1"
   xml:space="preserve"
   xmlns="http://www.w3.org/2000/svg"
   xmlns:svg="http://www.w3.org/2000/svg"><defs
     id="defs1" /><g
     id="layer2"
     style="display:inline"><path
       style="display:inline;fill:#fcc21b;fill-opacity:1;stroke:none;stroke-width:0.264583;stroke-opacity:1"
       d="m 3.1251325,16.298292 c 0,0 3.0935952,-13.0686946 16.6207095,-13.1577507 13.527116,-0.089056 14.023021,11.8722577 13.975314,12.9333497 -0.04771,1.061092 -0.721301,4.693553 -0.721301,4.693553 0,0 0.569111,2.141306 0.572905,3.871989 0.0038,1.730684 -4.47972,6.260671 -15.652575,6.131417 C 6.7473293,30.641596 2.6619325,27.113275 2.250343,23.176126 1.8387536,19.238978 3.1251325,16.298292 3.1251325,16.298292 Z"
       id="path1" /><path
       style="display:inline;fill:#000000;fill-opacity:1;stroke:#000000;stroke-width:0.47625;stroke-linecap:round;stroke-linejoin:round;stroke-dasharray:none;stroke-opacity:1"
       d="m 11.456492,11.571396 c -0.804693,0 -1.5168605,-0.540551 -1.4862048,-1.553867 0.039641,-1.3103243 0.7952548,-2.2679176 1.8897848,-2.2340087 0.823534,0.025513 1.613943,0.5172912 1.59483,1.4930582 -0.02632,1.3436995 -0.89994,2.2908915 -1.99841,2.2948175 z"
       id="path5" /><path
       style="display:inline;fill:#000000;fill-opacity:1;stroke:#000000;stroke-width:0.47625;stroke-linecap:round;stroke-linejoin:round;stroke-dasharray:none;stroke-opacity:1"
       d="m 22.752879,13.019174 c -0.804693,0 -1.51686,-0.540551 -1.486205,-1.553867 0.03964,-1.310325 0.795255,-2.267918 1.889785,-2.234009 0.823534,0.02551 1.613943,0.5172915 1.59483,1.493058 -0.02632,1.3437 -0.89994,2.290892 -1.99841,2.294818 z"
       id="path5-6" /><path
       style="display:inline;fill:#fcc21b;fill-opacity:1;stroke:#000000;stroke-width:0.47625;stroke-linecap:round;stroke-linejoin:round;stroke-dasharray:none;stroke-opacity:1"
       d="m 2.2478587,22.891316 c 0,0 -1.46986645,-2.197873 -1.65839584,-2.998512 -0.18852939,-0.80064 -0.21749199,-1.625125 -0.21749199,-1.625125 l 0.90179343,0.1123 0.1371123,-1.082748 1.2282033,0.412379 0.1995358,-1.2035 2.2081247,0.612281"
       id="path4" /><path
       style="display:inline;fill:#ffffff;fill-opacity:1;stroke:#000000;stroke-width:0.47625;stroke-linecap:round;stroke-linejoin:round;stroke-dasharray:none"
       d="M 4.7993395,13.116686 26.902397,13.295201 25.233911,27.492261 2.4913737,27.029992 Z"
       id="path2" /><path
       d="m 5.1623019,20.029804 q -0.1185333,0.0254 -0.2285999,-0.04233 -0.1015999,-0.06773 -0.1269998,-0.186267 -0.0254,-0.118533 0.042333,-0.220133 0.067733,-0.110066 0.1862666,-0.135466 l 0.7619993,-0.169334 q 2.0065983,-0.448733 2.7939977,-0.448733 0.9059325,0 1.3969988,0.448733 0.4995334,0.448733 0.4995334,1.261533 0,0.990599 -1.0413996,1.828798 -1.0413991,0.829733 -2.7262644,1.142999 -0.1185332,0.01693 -0.2201331,-0.0508 -0.093133,-0.06773 -0.1185333,-0.1778 -0.0254,-0.110066 0.033867,-0.203199 0.067733,-0.09313 0.1862665,-0.118534 1.4647321,-0.296333 2.336798,-0.956732 0.8805326,-0.668866 0.8805326,-1.422399 0,-1.159932 -1.3631322,-1.159932 -0.5757328,0 -2.3452647,0.397933 -0.3132664,0.06773 -0.9482658,0.211666 z M 6.3222342,16.74474 q 1.4477988,0.364067 2.8701976,0.491066 0.1185332,0.01693 0.1862665,0.110067 0.067733,0.08467 0.0508,0.194733 -0.016933,0.118533 -0.1100666,0.194733 -0.093133,0.0762 -0.2116665,0.06773 -1.4647321,-0.143934 -2.9209975,-0.499533 -0.1100666,-0.03387 -0.1777999,-0.135467 -0.059267,-0.1016 -0.033867,-0.220133 0.0254,-0.110067 0.1269999,-0.169333 0.1015999,-0.06773 0.2201331,-0.03387 z"
       id="text6"
       style="font-size:8.46666px;font-family:'Rounded M+ 2c';-inkscape-font-specification:'Rounded M+ 2c, Normal';stroke:#000000;stroke-width:0.47625;stroke-linecap:round;stroke-linejoin:round"
       aria-label="う" /><path
       d="m 23.765997,17.934317 q -0.270933,-0.601133 -0.423333,-0.922866 -0.0508,-0.1016 -0.0085,-0.211666 0.04233,-0.110067 0.1524,-0.143933 0.110067,-0.04233 0.220133,0 0.118534,0.04233 0.169334,0.152399 0.253999,0.541867 0.423333,0.9398 0.04233,0.1016 -0.0085,0.203199 -0.04233,0.1016 -0.1524,0.143934 -0.110066,0.04233 -0.220133,0 -0.110067,-0.0508 -0.1524,-0.160867 z m 1.329266,-1.329265 q 0.211666,0.440266 0.431799,0.956732 0.04233,0.110067 -0.0085,0.211667 -0.04233,0.101599 -0.1524,0.143933 -0.110067,0.03387 -0.220133,-0.0085 -0.110067,-0.0508 -0.160867,-0.169333 -0.06773,-0.143933 -0.4318,-0.922866 -0.0508,-0.110067 -0.0085,-0.220133 0.04233,-0.110067 0.1524,-0.1524 0.110066,-0.04233 0.228599,0.0085 0.118534,0.04233 0.169334,0.1524 z m -5.156196,1.227665 q -0.118533,-0.0254 -0.186267,-0.127 -0.05927,-0.1016 -0.04233,-0.220133 0.01693,-0.110066 0.110067,-0.1778 0.1016,-0.06773 0.220133,-0.04233 1.346199,0.270933 2.777064,0.321733 0.143933,0.0085 0.237067,0.110067 0.1016,0.1016 0.110066,0.245533 0.0085,0.1524 -0.08467,0.2794 -0.08467,0.118533 -0.2286,0.177799 -1.278466,0.499533 -1.278466,1.159933 0,0.254 0.143933,0.507999 0.143934,0.254 0.550333,0.668866 0.829733,0.8382 0.829733,1.608666 0,0.736599 -0.465666,1.159932 -0.4572,0.414866 -1.253066,0.414866 -0.668866,0 -1.202266,-0.237066 -0.118533,-0.0508 -0.169333,-0.169333 -0.04233,-0.118533 0,-0.237067 0.03387,-0.110066 0.143933,-0.1524 0.118534,-0.04233 0.2286,0 0.4826,0.194734 0.914399,0.194734 0.508,0 0.8128,-0.270934 0.3048,-0.279399 0.3048,-0.736599 0,-0.550333 -0.745067,-1.303865 -0.440266,-0.440267 -0.609599,-0.7366 -0.169333,-0.296333 -0.169333,-0.626533 0,-0.888999 1.396999,-1.515532 0.0085,0 0.0085,-0.0085 0,-0.0085 -0.01693,-0.0085 -1.253066,-0.0508 -2.336798,-0.2794 z m 5.350929,4.868329 q -0.05927,0.118534 -0.186267,0.160867 -0.127,0.04233 -0.254,-0.01693 -0.118533,-0.05927 -0.160866,-0.186267 -0.465666,-1.261532 -1.117599,-2.218265 -0.06773,-0.1016 -0.04233,-0.220133 0.0254,-0.127 0.135466,-0.186266 0.118533,-0.06773 0.254,-0.0254 0.143933,0.03387 0.220133,0.143933 0.728133,1.092199 1.168399,2.294465 0.04233,0.127 -0.01693,0.253999 z m -6.307662,-2.438398 q 0.04233,-0.126999 0.1524,-0.194733 0.118534,-0.0762 0.245533,-0.04233 0.127,0.03387 0.194734,0.143933 0.06773,0.110067 0.03387,0.237067 -0.3302,1.159932 -0.990599,2.328331 -0.06773,0.118533 -0.2032,0.160867 -0.127,0.04233 -0.254,-0.0085 -0.118533,-0.0508 -0.160866,-0.169333 -0.03387,-0.118533 0.0254,-0.2286 0.618066,-1.092199 0.956732,-2.226732 z"
       id="text4"
       style="font-size:8.46666px;font-family:'Rounded M+ 2c';-inkscape-font-specification:'Rounded M+ 2c, Normal';stroke:#000000;stroke-width:0.47625;stroke-linecap:round;stroke-linejoin:round"
       aria-label="ぶ" /><path
       d="m 12.998307,18.29045 q 1.176865,0.270933 2.269064,0.372533 0.110067,0.01693 0.169334,0.1016 0.06773,0.0762 0.05927,0.186267 -0.01693,0.110066 -0.1016,0.186266 -0.08467,0.06773 -0.194733,0.05927 -1.176866,-0.1016 -2.311398,-0.372533 -0.110067,-0.0254 -0.169333,-0.118533 -0.05927,-0.1016 -0.03387,-0.211667 0.0254,-0.110067 0.110067,-0.169333 0.09313,-0.05927 0.2032,-0.03387 z m -1.041399,5.317062 q -0.09313,0.06773 -0.2032,0.0508 -0.110067,-0.0085 -0.1778,-0.1016 -0.06773,-0.08467 -0.05927,-0.203199 0.0085,-0.118534 0.09313,-0.186267 1.684866,-1.371599 3.428998,-2.878664 v -0.0085 h -0.0085 q -1.388532,0.194733 -2.675464,0.2032 -0.110067,0 -0.194734,-0.08467 -0.08467,-0.08467 -0.08467,-0.194733 0,-0.118533 0.08467,-0.194733 0.08467,-0.08467 0.2032,-0.08467 1.439332,-0.0085 3.098798,-0.211666 0.135466,-0.01693 0.237066,0.05927 0.110067,0.0762 0.135467,0.211666 0.05927,0.321733 -0.186267,0.524933 -0.2286,0.194733 -0.711199,0.618066 -0.4826,0.423333 -0.745066,0.651933 v 0.01693 h 0.01693 q 0.160866,-0.1016 0.3048,-0.1016 0.304799,0 0.465666,0.169334 0.169333,0.169333 0.220133,0.626532 0.05927,0.465667 0.186267,0.592666 0.135466,0.118534 0.567266,0.118534 0.2794,0 0.584199,-0.05927 0.110067,-0.01693 0.194734,0.04233 0.09313,0.05927 0.110066,0.169334 0.01693,0.118533 -0.0508,0.211666 -0.05927,0.1016 -0.169333,0.118533 -0.397933,0.0762 -0.778933,0.0762 -0.609599,0 -0.863599,-0.2032 -0.245533,-0.194733 -0.313266,-0.728132 -0.0508,-0.414867 -0.143934,-0.5334 -0.09313,-0.118533 -0.313266,-0.118533 -0.4572,0 -2.252131,1.430865 z"
       id="text8"
       style="font-size:8.46666px;font-family:'Rounded M+ 2c';-inkscape-font-specification:'Rounded M+ 2c, Normal';stroke:#000000;stroke-width:0.47625;stroke-linecap:round;stroke-linejoin:round"
       aria-label="ぇ" /><path
       style="display:inline;fill:#fcc21b;fill-opacity:1;stroke:#000000;stroke-width:0.47625;stroke-linecap:round;stroke-linejoin:round;stroke-dasharray:none"
       d="m 25.529659,27.390754 c 0,0 -1.104794,-1.623391 -1.574327,-2.621742 -0.469534,-0.998351 -0.434191,-2.181697 -0.434191,-2.181697 l 0.819794,0.04121 0.02956,-0.943917 1.193477,0.0596 0.482295,-0.889345 c 0,0 0.677198,-0.336725 1.992777,0.5056 1.315579,0.842326 3.221515,3.211446 3.221515,3.211446"
       id="path3" /></g></svg>
